<svg width="100" height="100" viewBox="0 0 100 100" fill="none" xmlns="http://www.w3.org/2000/svg">
<path d="M49.7745 99.8645C77.2495 99.8645 99.5224 77.5469 99.5224 50.0167C99.5224 22.4866 77.2495 0.168945 49.7745 0.168945C22.2995 0.168945 0.0266113 22.4866 0.0266113 50.0167C0.0266113 77.5469 22.2995 99.8645 49.7745 99.8645Z" fill="#EDF0F3"/>
<path d="M65.1652 88.3374L42.3123 59.5191V27.7412H25.6779V59.5193L2.82477 88.3374C-0.284449 92.3876 2.51375 98.3069 7.64401 98.3069H60.3458C65.4761 98.3071 68.2745 92.3876 65.1652 88.3374Z" fill="white"/>
<path fill-rule="evenodd" clip-rule="evenodd" d="M7.64418 99.8649H60.346C63.2997 99.8649 65.9426 98.1515 67.3418 95.5033C68.5855 92.8553 68.2744 89.7396 66.4089 87.4031L43.8672 59.0521V27.7414C43.8672 26.8067 43.2454 26.1836 42.3125 26.1836H25.678C24.7452 26.1836 24.1233 26.8067 24.1233 27.7414V59.0521L1.58125 87.4031C-0.28428 89.7396 -0.439791 92.8551 0.803896 95.5033C2.04758 98.1515 4.69047 99.8649 7.64418 99.8649ZM27.2324 59.5193V29.2991H40.7576V59.5193C40.7576 59.8308 40.9129 60.142 41.0683 60.4535L41.0686 60.4541L63.9217 89.4282C65.0099 90.83 65.1654 92.6993 64.3881 94.2571C63.6107 95.9705 62.056 96.9053 60.346 96.9053H7.64418C5.93396 96.9053 4.37945 95.8147 3.60209 94.2571C2.82474 92.6995 2.98025 90.8302 4.06843 89.4282L26.9213 60.4541L26.9216 60.4535C27.077 60.142 27.2324 59.8308 27.2324 59.5193Z" fill="#193651"/>
<path d="M26.4551 68.5542L7.79956 92.0763H60.1905L41.535 68.5542H26.4551Z" fill="#0B74D5"/>
<rect x="23.812" y="20.8872" width="20.3655" height="6.85402" fill="white"/>
<path fill-rule="evenodd" clip-rule="evenodd" d="M23.812 29.2988H44.1778C45.1104 29.2988 45.7323 28.5199 45.7323 27.7409V20.8869C45.7323 19.9522 45.1104 19.3291 44.1776 19.3291H23.812C22.8792 19.3291 22.2573 19.9522 22.2573 20.8869V27.7409C22.2573 28.6757 22.8792 29.2988 23.812 29.2988ZM42.6231 26.1833H25.3667V22.4448H42.6231V26.1833Z" fill="#193651"/>
<path d="M35.3164 50.0171C36.5185 50.0171 37.493 49.0407 37.493 47.8362C37.493 46.6317 36.5185 45.6553 35.3164 45.6553C34.1144 45.6553 33.1399 46.6317 33.1399 47.8362C33.1399 49.0407 34.1144 50.0171 35.3164 50.0171Z" fill="#0B74D5"/>
<path d="M32.5181 39.7359C33.7202 39.7359 34.6947 38.7594 34.6947 37.5549C34.6947 36.3505 33.7202 35.374 32.5181 35.374C31.316 35.374 30.3416 36.3505 30.3416 37.5549C30.3416 38.7594 31.316 39.7359 32.5181 39.7359Z" fill="#0B74D5"/>
<path d="M33.4507 63.7251C34.9104 63.7251 36.0936 62.5395 36.0936 61.0769C36.0936 59.6143 34.9104 58.4287 33.4507 58.4287C31.9911 58.4287 30.8079 59.6143 30.8079 61.0769C30.8079 62.5395 31.9911 63.7251 33.4507 63.7251Z" fill="#0B74D5"/>
<path d="M88.4847 39.4243C90.4595 39.4243 92.0603 37.8202 92.0603 35.8415C92.0603 33.8628 90.4595 32.2588 88.4847 32.2588C86.51 32.2588 84.9092 33.8628 84.9092 35.8415C84.9092 37.8202 86.51 39.4243 88.4847 39.4243Z" fill="white"/>
<path fill-rule="evenodd" clip-rule="evenodd" d="M83.3545 35.8412C83.3545 38.6453 85.6864 40.9818 88.4848 40.9818C91.2829 40.9818 93.615 38.6453 93.615 35.8412C93.615 33.0372 91.2831 30.7007 88.4848 30.7007C85.6864 30.7007 83.3545 33.0372 83.3545 35.8412ZM86.4637 35.6854C86.4637 34.5951 87.3966 33.6603 88.4848 33.6603C89.5729 33.6603 90.5056 34.5951 90.5058 35.6854C90.5058 36.7758 89.5729 37.7105 88.4848 37.7105C87.3966 37.7105 86.4637 36.7758 86.4637 35.6854Z" fill="#193651"/>
<path d="M67.808 34.9067C70.7272 34.9067 73.0938 32.5355 73.0938 29.6104C73.0938 26.6852 70.7272 24.314 67.808 24.314C64.8887 24.314 62.5222 26.6852 62.5222 29.6104C62.5222 32.5355 64.8887 34.9067 67.808 34.9067Z" fill="white"/>
<path fill-rule="evenodd" clip-rule="evenodd" d="M60.9678 29.6104C60.9678 33.3489 64.077 36.4644 67.8081 36.4644C71.5391 36.4644 74.6483 33.3489 74.6483 29.6104C74.6483 25.8718 71.5391 22.7563 67.8081 22.7563C64.077 22.7563 60.9678 25.8718 60.9678 29.6104ZM64.077 29.6104C64.077 27.5853 65.787 25.8718 67.8081 25.8718C69.8291 25.8718 71.5391 27.5853 71.5391 29.6104C71.5391 31.6355 69.8291 33.3489 67.8081 33.3489C65.787 33.3489 64.077 31.6355 64.077 29.6104Z" fill="#193651"/>
<path d="M76.2031 14.1884C79.6374 14.1884 82.4215 11.3987 82.4215 7.95749C82.4215 4.51624 79.6374 1.72656 76.2031 1.72656C72.7687 1.72656 69.9846 4.51624 69.9846 7.95749C69.9846 11.3987 72.7687 14.1884 76.2031 14.1884Z" fill="white"/>
<path fill-rule="evenodd" clip-rule="evenodd" d="M68.4299 7.9577C68.4299 12.3193 71.8502 15.7465 76.2031 15.7465C80.4005 15.7465 83.9762 12.3193 83.9762 7.9577C83.9762 3.59605 80.556 0.168945 76.2031 0.168945C71.8502 0.168945 68.4299 3.59605 68.4299 7.9577ZM71.5391 7.9579C71.5391 5.46553 73.5602 3.28461 76.2031 3.28461C78.6905 3.28461 80.867 5.46553 80.867 7.9579C80.867 10.4503 78.846 12.6312 76.2031 12.6312C73.7157 12.6312 71.5391 10.4503 71.5391 7.9579Z" fill="#193651"/>
<path d="M22.2577 8.89251C24.2324 8.89251 25.8332 7.28847 25.8332 5.30978C25.8332 3.33109 24.2324 1.72705 22.2577 1.72705C20.283 1.72705 18.6821 3.33109 18.6821 5.30978C18.6821 7.28847 20.283 8.89251 22.2577 8.89251Z" fill="white"/>
<path fill-rule="evenodd" clip-rule="evenodd" d="M17.1274 5.30951C17.1274 8.11352 19.4593 10.4501 22.2577 10.4501C25.0561 10.4501 27.388 8.11352 27.388 5.30951C27.388 2.50549 25.0561 0.168945 22.2577 0.168945C19.4593 0.168945 17.1274 2.50549 17.1274 5.30951ZM20.2367 5.30951C20.2367 4.21915 21.1695 3.28441 22.2577 3.28441C23.3459 3.28441 24.2787 4.21915 24.2787 5.30951C24.2787 6.39987 23.3459 7.33461 22.2577 7.33461C21.1695 7.33461 20.2367 6.39987 20.2367 5.30951Z" fill="#193651"/>
<path d="M36.0936 14.1884C38.0683 14.1884 39.6692 12.5844 39.6692 10.6057C39.6692 8.62699 38.0683 7.02295 36.0936 7.02295C34.1189 7.02295 32.5181 8.62699 32.5181 10.6057C32.5181 12.5844 34.1189 14.1884 36.0936 14.1884Z" fill="white"/>
<path fill-rule="evenodd" clip-rule="evenodd" d="M30.9634 10.6059C30.9634 13.4099 33.2952 15.7465 36.0936 15.7465C39.0475 15.7465 41.2239 13.4099 41.2239 10.6059C41.2239 7.80188 38.892 5.46533 36.0936 5.46533C33.2952 5.46533 30.9634 7.80188 30.9634 10.6059ZM34.0726 10.6061C34.0726 9.51573 35.0055 8.58099 36.0936 8.58099C37.3373 8.58099 38.1147 9.51573 38.1147 10.6061C38.1147 11.6965 37.1818 12.6312 36.0936 12.6312C35.0055 12.6312 34.0726 11.6965 34.0726 10.6061Z" fill="#193651"/>
<path d="M94.5476 67.6197C92.9929 66.3735 90.8165 66.3735 89.2618 67.6197C86.6189 69.6448 83.0434 69.6448 80.4005 67.6197C78.8458 66.3735 76.6694 66.3735 75.1147 67.6197C72.4718 69.6448 68.8963 69.6448 66.2534 67.6197C64.6987 66.3735 62.5224 66.3735 60.9676 67.6197C60.0348 68.3986 58.7911 68.8659 57.3921 69.1775V91.1418C57.3921 95.0362 60.5013 98.3074 64.5434 98.3074H90.972C94.8586 98.3074 98.1234 95.192 98.1234 91.1418V69.1773C96.7242 69.0215 95.4805 68.3984 94.5476 67.6197Z" fill="#F94814"/>
<path d="M66.2533 67.6195C68.8962 69.6446 72.4718 69.6446 75.1146 67.6195C76.6694 66.3733 78.8457 66.3733 80.4004 67.6195C83.0433 69.6446 86.6189 69.6446 89.2617 67.6195C90.8165 66.3733 92.9928 66.3733 94.5475 67.6195C95.4804 68.3984 96.7241 68.8657 98.1231 69.1773V50.0171H51.7954L57.392 56.248V69.1773C58.7912 69.0215 59.8794 68.5542 60.9676 67.6195C62.5223 66.3733 64.6988 66.3733 66.2533 67.6195Z" fill="white"/>
<path fill-rule="evenodd" clip-rule="evenodd" d="M75.8921 68.8656C76.9805 68.0867 78.3795 68.0867 79.3124 68.8656C82.5771 71.358 87.0855 71.358 90.0394 68.8656C91.1278 68.0867 92.5268 68.0867 93.4597 68.8656C94.7033 69.956 96.2579 70.5791 97.8126 70.7349C98.7452 70.8905 99.5226 70.1118 99.5226 69.1771V50.0168C99.5226 49.0821 98.9007 48.459 97.9679 48.459H51.64C51.0182 48.459 50.5518 48.7706 50.2408 49.3937C50.0855 50.0168 50.0855 50.6399 50.5518 51.1072L55.6821 56.8708V69.1771C55.6821 70.1118 56.4593 70.8907 57.3921 70.7349C58.9466 70.4234 60.5013 69.8003 61.745 68.8656C62.8334 68.0867 64.2324 68.0867 65.1653 68.8656C68.119 71.358 72.7829 71.358 75.8921 68.8656ZM88.1737 66.3732C86.3082 67.9311 83.3544 67.9311 81.3334 66.3732C79.1568 64.6596 76.2031 64.6596 74.3374 66.5289C72.4719 68.0867 69.5182 68.0867 67.4971 66.5289C65.3206 64.8154 62.3669 64.8154 60.1903 66.5289C60.0351 66.6067 59.841 66.7234 59.6469 66.8401C59.4524 66.957 59.2578 67.074 59.1021 67.152V56.2477C59.1021 55.7805 58.9468 55.469 58.6358 55.1574L55.3711 51.5746H96.5687V66.9963C96.1023 66.8405 95.7915 66.6849 95.4805 66.3732C93.3039 64.6598 90.3502 64.6598 88.1737 66.3732Z" fill="#193651"/>
<path fill-rule="evenodd" clip-rule="evenodd" d="M64.5435 99.8645H90.9721C95.636 99.8645 99.5224 95.9703 99.8338 91.297V69.1769C99.8338 68.398 99.212 67.7749 98.4346 67.6191C97.3463 67.6191 96.4136 67.1518 95.6362 66.5287C93.4597 64.8153 90.506 64.8153 88.3294 66.5287C86.4639 68.0866 83.5102 68.0866 81.4891 66.5287C79.3126 64.8153 76.3589 64.8153 74.1823 66.5287C72.3168 68.0866 69.3631 68.0866 67.3421 66.5287C65.1655 64.8153 62.2118 64.8153 60.0352 66.5287C59.2579 67.1518 58.325 67.4633 57.2368 67.6191C56.4595 67.6191 55.8376 68.398 55.8376 69.1769V91.1412C55.8376 95.9701 59.7242 99.8645 64.5435 99.8645ZM58.9469 91.297V70.4231C60.035 70.1117 60.9679 69.4886 61.9006 68.8653C62.9889 68.0864 64.3879 68.0864 65.3208 68.8653C68.2745 71.3577 72.9384 71.3577 76.0477 68.8653C77.136 68.0864 78.535 68.0864 79.4679 68.8653C82.4216 71.3577 87.0855 71.3577 90.1948 68.8653C91.2831 68.0864 92.6821 68.0864 93.615 68.8653C94.3922 69.6442 95.4805 70.1115 96.5687 70.4231V91.297C96.5687 94.4125 94.0813 96.9048 90.9721 96.9048H64.5435C61.4342 96.9048 58.9469 94.4125 58.9469 91.297Z" fill="#193651"/>
<path d="M70.14 89.5834C72.1147 89.5834 73.7156 87.9794 73.7156 86.0007C73.7156 84.022 72.1147 82.418 70.14 82.418C68.1653 82.418 66.5645 84.022 66.5645 86.0007C66.5645 87.9794 68.1653 89.5834 70.14 89.5834Z" fill="white"/>
<path fill-rule="evenodd" clip-rule="evenodd" d="M65.0095 86.0009C65.0095 88.8049 67.3414 91.1415 70.1398 91.1415C72.9382 91.1415 75.27 88.8049 75.27 86.0009C75.27 83.1969 72.9382 80.8604 70.1398 80.8604C67.3414 80.8604 65.0095 83.1969 65.0095 86.0009ZM68.1187 86.0009C68.1187 84.9106 69.0516 83.9758 70.1398 83.9758C71.2282 83.9758 72.1608 84.7547 72.1608 86.0009C72.1608 87.0913 71.228 88.026 70.1398 88.026C69.0516 88.026 68.1187 87.0913 68.1187 86.0009Z" fill="#193651"/>
<rect x="24.123" y="82.7295" width="3.10922" height="3.11546" fill="white"/>
<rect x="32.5181" y="82.7295" width="3.10922" height="3.11546" fill="white"/>
<rect x="40.9131" y="82.7295" width="3.10922" height="3.11546" fill="white"/>
</svg>
