<svg width="100" height="100" viewBox="0 0 100 100" fill="none" xmlns="http://www.w3.org/2000/svg">
<path d="M50.7286 99.5583C77.8832 99.5583 99.8964 77.2761 99.8964 49.7896C99.8964 22.3032 77.8832 0.0209961 50.7286 0.0209961C23.574 0.0209961 1.56079 22.3032 1.56079 49.7896C1.56079 77.2761 23.574 99.5583 50.7286 99.5583Z" fill="#EDF0F3"/>
<path d="M49.1678 70.9607C54.7711 70.9607 59.3134 66.3628 59.3134 60.691C59.3134 55.0193 54.7711 50.4214 49.1678 50.4214C43.5645 50.4214 39.0221 55.0193 39.0221 60.691C39.0221 66.3628 43.5645 70.9607 49.1678 70.9607Z" fill="white"/>
<path fill-rule="evenodd" clip-rule="evenodd" d="M37.6173 60.6912C37.6173 67.169 42.7682 72.3828 49.1678 72.3828C55.5674 72.3828 60.8743 67.169 60.7183 60.6912C60.7183 54.2134 55.5674 48.9995 49.1678 48.9995C42.7682 48.9995 37.6173 54.2134 37.6173 60.6912ZM40.5829 60.6912C40.5829 55.9512 44.4851 52.0013 49.1678 52.0013C53.8503 52.0013 57.7525 55.9512 57.7527 60.6912C57.7527 65.4311 53.8505 69.381 49.1678 69.381C44.4851 69.381 40.5829 65.4311 40.5829 60.6912Z" fill="#193651"/>
<path d="M13.4236 63.061C6.86783 63.061 1.56079 68.4329 1.56079 75.0688V98.1362H25.2861V74.9107C25.1302 68.4329 19.8232 63.061 13.4236 63.061Z" fill="white"/>
<path fill-rule="evenodd" clip-rule="evenodd" d="M0 75.069C0 67.4853 6.08752 61.4814 13.4235 61.4814C20.7598 61.4814 26.6911 67.4853 26.8473 74.911V98.1364C26.8473 99.0845 26.0668 99.7165 25.2863 99.7165H1.56097C0.624346 99.7165 0 98.9265 0 98.1364V75.069ZM3.12173 74.911V96.3983H23.7254V74.911C23.7254 69.2232 19.0427 64.4833 13.4235 64.4833C7.80443 64.4833 3.12173 69.2232 3.12173 74.911Z" fill="#193651"/>
<path d="M7.64832 91.8164V74.9109C7.64832 71.751 10.1457 69.2231 13.2674 69.2231C16.3892 69.2231 18.8865 71.751 18.8865 74.9109V91.8164H7.64832Z" fill="#E1E6E9"/>
<path d="M15.1404 66.8528C20.7437 66.8528 25.2861 62.2549 25.2861 56.5831C25.2861 50.9114 20.7437 46.3135 15.1404 46.3135C9.53712 46.3135 4.99475 50.9114 4.99475 56.5831C4.99475 62.2549 9.53712 66.8528 15.1404 66.8528Z" fill="white"/>
<path fill-rule="evenodd" clip-rule="evenodd" d="M3.58997 56.5833C3.58997 63.0611 8.74087 68.2749 15.1405 68.2749C21.5403 68.2749 26.6912 63.0611 26.691 56.5833C26.691 50.1055 21.5401 44.8916 15.1405 44.8916C8.74087 44.8916 3.58997 50.1055 3.58997 56.5833ZM6.55556 56.5835C6.55556 51.8435 10.4578 47.8936 15.1405 47.8936C19.8232 47.8936 23.7254 51.8435 23.7254 56.5835C23.7254 61.3234 19.8232 65.2733 15.1405 65.2733C10.4578 65.2733 6.55556 61.3234 6.55556 56.5835Z" fill="#193651"/>
<path d="M85.068 63.061C91.6237 63.061 96.9308 68.4329 96.9308 75.0688V98.1362H73.2052V74.9107C73.2052 68.4329 78.5122 63.061 85.068 63.061Z" fill="white"/>
<path fill-rule="evenodd" clip-rule="evenodd" d="M71.6445 75.069C71.6445 67.4853 77.7319 61.4814 85.0681 61.4814C92.4043 61.4814 98.3355 67.4853 98.3357 74.911V98.1364C98.3357 99.0845 97.5552 99.7165 96.7747 99.7165H73.2055C72.2689 99.7165 71.6445 98.9265 71.6445 98.1364V75.069ZM74.7663 96.3983H95.2137H95.3699V74.911C95.3699 69.2232 90.6872 64.4833 85.0681 64.4833C79.449 64.4833 74.7663 69.2232 74.7663 74.911V96.3983Z" fill="#193651"/>
<path d="M79.2927 91.8164V74.9109C79.2927 71.751 81.7901 69.2231 84.9118 69.2231C88.0336 69.2231 90.531 71.751 90.531 74.9109V91.8164H79.2927Z" fill="#E1E6E9"/>
<path d="M83.195 66.8528C88.7983 66.8528 93.3407 62.2549 93.3407 56.5831C93.3407 50.9114 88.7983 46.3135 83.195 46.3135C77.5917 46.3135 73.0493 50.9114 73.0493 56.5831C73.0493 62.2549 77.5917 66.8528 83.195 66.8528Z" fill="white"/>
<path fill-rule="evenodd" clip-rule="evenodd" d="M71.6445 56.5833C71.6445 63.0611 76.7954 68.2749 83.195 68.2749C89.5946 68.2749 94.9017 63.0611 94.7455 56.5833C94.7455 50.1055 89.5946 44.8916 83.195 44.8916C76.7954 44.8916 71.6445 50.1055 71.6445 56.5833ZM74.6101 56.5835C74.6101 51.8435 78.5123 47.8936 83.195 47.8936C88.0337 47.8936 91.7799 51.8435 91.7799 56.5835C91.7799 61.3234 87.8777 65.2733 83.195 65.2733C78.5123 65.2733 74.6101 61.3234 74.6101 56.5835Z" fill="#193651"/>
<path d="M61.3427 71.5928C58.3771 74.9107 54.0065 77.1225 49.324 77.1225C44.4854 77.1225 40.2709 74.9105 37.3053 71.5928C34.0274 73.0148 31.6862 76.3327 31.6862 80.2826V98.452H67.1181V80.2826C66.9618 76.3327 64.6206 73.0148 61.3427 71.5928Z" fill="white"/>
<path fill-rule="evenodd" clip-rule="evenodd" d="M31.3736 99.8743H66.9617C67.7422 99.8743 68.5227 99.2423 68.2102 98.4523V80.2828C68.2102 75.859 65.7128 71.9091 61.6545 70.1712C61.0301 70.0132 60.4058 70.1712 59.9376 70.6452C57.1279 73.9631 53.2257 75.701 49.0114 75.701C44.7971 75.701 40.8949 73.805 38.0853 70.6452C37.617 70.0132 36.9927 69.8551 36.3684 70.1712C32.4661 71.9091 29.8126 75.859 29.8126 80.2828V98.2943C29.8126 99.2423 30.5931 99.8743 31.3736 99.8743ZM65.401 96.7144H32.9346V80.2828C32.9346 77.5969 34.3394 75.069 36.6806 73.647C40.1146 76.9649 44.4851 78.8608 49.1678 78.8608C53.8505 78.8608 58.377 76.9649 61.6549 73.647C63.9961 74.911 65.401 77.4389 65.401 80.2828V96.7144Z" fill="#193651"/>
<path d="M37.6173 92.1323V80.2826V80.1245C41.0513 82.3365 45.1095 83.4424 49.1678 83.4424C53.2262 83.4424 57.2843 82.3365 60.7183 80.1245V80.2826V92.1323H37.6173Z" fill="#FFEADA"/>
<rect x="40.1147" y="86.1284" width="3.12173" height="3.15988" fill="#193651"/>
<rect x="47.6069" y="86.1284" width="3.12173" height="3.15988" fill="#193651"/>
<rect x="55.2552" y="86.1284" width="3.12173" height="3.15988" fill="#193651"/>
<rect x="83.5071" y="71.751" width="3.12173" height="3.15988" fill="#193651"/>
<rect x="83.5071" y="79.0186" width="3.12173" height="3.15988" fill="#193651"/>
<rect x="83.5071" y="86.1284" width="3.12173" height="3.15988" fill="#193651"/>
<rect x="11.8628" y="71.751" width="3.12173" height="3.15988" fill="#193651"/>
<rect x="11.8628" y="79.0186" width="3.12173" height="3.15988" fill="#193651"/>
<rect x="11.8628" y="86.1284" width="3.12173" height="3.15988" fill="#193651"/>
<path d="M12.9553 18.3483C12.9553 9.5006 21.8523 2.39062 32.7785 2.39062C43.7046 2.39062 52.7577 9.5004 52.7577 18.3483C52.7577 26.09 45.7338 32.5678 36.5245 33.9898C34.0272 36.9916 29.0324 40.6257 19.9793 41.4157C19.9793 41.4157 24.974 37.4658 24.5058 32.8839C17.638 30.198 12.9553 24.668 12.9553 18.3483Z" fill="#0B74D5"/>
<path fill-rule="evenodd" clip-rule="evenodd" d="M18.5745 41.8898C18.7306 42.5218 19.355 42.8379 19.9793 42.8379C29.3445 42.0481 34.4954 38.414 37.3051 35.4122C47.1387 33.6741 54.1626 26.5644 54.1626 18.3487C54.1626 8.86903 44.6413 0.969238 32.7785 0.969238C21.0719 0.969238 11.3944 8.71099 11.3944 18.3487C11.3944 24.8265 15.921 30.8303 22.9449 33.8322C22.7888 37.3079 19.0427 40.1519 19.0427 40.1519C18.5745 40.4678 18.2622 41.2578 18.5745 41.8898ZM14.3602 18.3487C14.3602 10.4489 22.6328 3.97107 32.7785 3.97107C42.9242 3.97107 51.1968 10.4489 50.8852 18.3489C50.8852 25.1426 44.6417 31.1464 36.0568 32.4104C35.7445 32.4104 35.4324 32.5682 35.1202 32.8843C33.2469 35.2542 29.8131 37.9401 23.8817 39.2041C25.1304 37.466 26.2232 35.0961 25.9109 32.5682C25.9109 31.9362 25.5986 31.4623 24.9743 31.3043C18.5745 28.9344 14.3602 23.8786 14.3602 18.3487Z" fill="#193651"/>
<path d="M32.7785 28.6179C40.4268 28.6179 46.8264 23.878 46.8264 18.3483C46.8264 12.8185 40.4268 8.07861 32.7785 8.07861C25.1302 8.07861 18.7306 12.8183 18.7306 18.3483C18.7306 23.8782 25.1302 28.6179 32.7785 28.6179Z" fill="white"/>
<path d="M85.38 18.3483C85.38 9.5006 76.4831 2.39062 65.5569 2.39062C54.6307 2.39062 45.7338 9.5004 45.7338 18.3483C45.7338 26.09 52.7577 32.5678 61.967 33.9898C64.4643 36.9916 69.4591 40.6257 78.5122 41.4157C78.5122 41.4157 73.5175 37.4658 73.9857 32.8839C80.6975 30.198 85.38 24.668 85.38 18.3483Z" fill="#F94814"/>
<path fill-rule="evenodd" clip-rule="evenodd" d="M61.0304 35.254C63.8401 38.4139 68.991 42.0477 78.3562 42.8377C78.9805 42.8377 79.6048 42.5218 79.761 41.7316C80.0733 41.0996 79.761 40.4677 79.2928 39.9937C79.2928 39.9643 79.1682 39.8417 78.9633 39.6401C78.0688 38.7597 75.6447 36.3737 75.3906 33.674C82.4145 30.6721 86.9411 24.6683 86.9411 18.1905C86.9411 8.71083 77.4197 0.811035 65.557 0.811035C53.8503 0.811035 44.1729 8.55279 44.1729 18.1905C44.1729 26.4063 51.1968 33.5161 61.0304 35.254ZM47.1386 18.3485C47.1386 10.4487 55.4113 3.97091 65.557 3.97091C75.7026 3.97091 83.9755 10.4487 83.6634 18.3483C83.6634 23.878 79.4491 28.934 73.0495 31.3039C72.5811 31.462 72.1129 31.9359 72.1129 32.5679C71.9568 35.2538 72.8934 37.4658 74.1421 39.2037C68.2107 37.7817 64.7767 35.096 62.9036 32.8839C62.7475 32.7261 62.2793 32.41 61.967 32.41C53.3821 31.1461 47.1386 25.1424 47.1386 18.3485Z" fill="#193651"/>
<path d="M65.5569 28.6179C57.9086 28.6179 51.509 23.878 51.509 18.3483C51.509 12.8185 57.9086 8.07861 65.5569 8.07861C73.2052 8.07861 79.6048 12.8185 79.6048 18.3483C79.6048 23.878 73.2052 28.6179 65.5569 28.6179Z" fill="white"/>
<path d="M59.1573 20.0866C60.1055 20.0866 60.8742 19.3085 60.8742 18.3487C60.8742 17.3889 60.1055 16.6108 59.1573 16.6108C58.2091 16.6108 57.4404 17.3889 57.4404 18.3487C57.4404 19.3085 58.2091 20.0866 59.1573 20.0866Z" fill="#193651"/>
<path d="M65.557 20.0866C66.5052 20.0866 67.2739 19.3085 67.2739 18.3487C67.2739 17.3889 66.5052 16.6108 65.557 16.6108C64.6088 16.6108 63.8401 17.3889 63.8401 18.3487C63.8401 19.3085 64.6088 20.0866 65.557 20.0866Z" fill="#193651"/>
<path d="M71.9565 20.0866C72.9047 20.0866 73.6734 19.3085 73.6734 18.3487C73.6734 17.3889 72.9047 16.6108 71.9565 16.6108C71.0083 16.6108 70.2396 17.3889 70.2396 18.3487C70.2396 19.3085 71.0083 20.0866 71.9565 20.0866Z" fill="#193651"/>
<path d="M26.3789 20.0866C27.3271 20.0866 28.0958 19.3085 28.0958 18.3487C28.0958 17.3889 27.3271 16.6108 26.3789 16.6108C25.4307 16.6108 24.662 17.3889 24.662 18.3487C24.662 19.3085 25.4307 20.0866 26.3789 20.0866Z" fill="#B1B3B4"/>
<path d="M32.7785 20.0866C33.7268 20.0866 34.4954 19.3085 34.4954 18.3487C34.4954 17.3889 33.7268 16.6108 32.7785 16.6108C31.8303 16.6108 31.0616 17.3889 31.0616 18.3487C31.0616 19.3085 31.8303 20.0866 32.7785 20.0866Z" fill="#B1B3B4"/>
<path d="M39.1781 20.0866C40.1263 20.0866 40.895 19.3085 40.895 18.3487C40.895 17.3889 40.1263 16.6108 39.1781 16.6108C38.2299 16.6108 37.4612 17.3889 37.4612 18.3487C37.4612 19.3085 38.2299 20.0866 39.1781 20.0866Z" fill="#B1B3B4"/>
</svg>
