<svg width="100" height="100" viewBox="0 0 100 100" fill="none" xmlns="http://www.w3.org/2000/svg">
<path d="M50.7286 99.5583C77.8832 99.5583 99.8964 77.2761 99.8964 49.7896C99.8964 22.3032 77.8832 0.0209961 50.7286 0.0209961C23.574 0.0209961 1.56079 22.3032 1.56079 49.7896C1.56079 77.2761 23.574 99.5583 50.7286 99.5583Z" fill="#EDF0F3"/>
<path d="M59 21.9574V1H52.6728V15.545H25.2036C24.432 15.545 23.8147 15.7015 23.1974 16.327L10.0802 27.7441C9.30854 28.3697 9 29.3082 9 30.2465C9 31.1849 9.46291 32.1232 10.2346 32.5924L18.8765 38.8483L22.7345 33.8436L17.179 29.9336L25.5124 22.7392V67H31.6852V40.4123H49.2777V51.5167H55.4505V39.0047C55.4505 35.8768 52.9814 33.3744 49.895 33.3744H41.2531V21.8009L59 21.9574Z" fill="white"/>
<path fill-rule="evenodd" clip-rule="evenodd" d="M32.1188 69H25.9739C25.0521 69 24.4376 68.377 24.4376 67.4424V35.3566L20.597 40.185C20.1362 40.808 19.2144 40.9638 18.4462 40.4966L9.84346 34.2664C8.76816 33.3318 8 32.0857 8 30.6841C8 29.2824 8.61449 27.8804 9.53631 26.946L22.5942 15.5759C23.3623 14.9528 24.4376 14.4856 25.3595 14.4856H25.5131H51.3217V1.55765C51.3217 1.09043 51.4754 0.778823 51.7825 0.467414C52.0897 0.156005 52.7043 0 53.1652 0H59.4637C60.3855 0 61 0.623018 61 1.55765V22.4291C61 22.8963 60.8463 23.2079 60.5392 23.5193C60.2318 23.8309 59.9247 23.9865 59.4639 23.9865H43.3334V32.3973H50.4001C54.3943 32.3973 57.4668 35.6682 57.4668 39.5621V52.0227C57.4668 52.9573 56.8523 53.5804 55.9304 53.5804H49.7856C48.8638 53.5804 48.2493 52.9573 48.2493 52.0227V42.5216H33.6551V67.4426C33.6551 68.2212 32.887 69 32.1188 69ZM27.3566 65.8847H27.6637V65.8849H27.3566V65.8847ZM27.6637 65.8847H30.429V40.9638C30.429 40.0292 31.0435 39.4061 31.9653 39.4061H49.7856C50.7074 39.4061 51.3219 40.0292 51.3219 40.9638V50.4649H54.3943V39.5619C54.3943 37.3813 52.5509 35.5122 50.4001 35.5122H41.7973C40.8755 35.5122 40.261 34.8892 40.261 33.9546V22.4286C40.261 21.9614 40.4146 21.6498 40.7218 21.3384C41.0291 21.0268 41.3363 20.8712 41.7971 20.8712H57.9276V3.11509H54.7015V16.0429C54.7015 16.9775 54.087 17.6005 53.1652 17.6005H26.1276H25.9739C25.6666 17.6005 25.3595 17.6005 24.8986 17.9121L11.8408 29.2822C11.5334 29.5939 11.2263 30.0611 11.38 30.5283C11.38 30.9955 11.5336 31.4629 11.9945 31.7743L19.3683 37.0701L21.2117 34.578L16.9101 31.6185C16.4493 31.3069 16.2957 30.8397 16.2957 30.3725C16.2957 29.9053 16.4493 29.4379 16.7565 29.1264L25.0521 21.9616C25.5129 21.4944 26.1274 21.4944 26.7419 21.8058C27.3564 22.1174 27.6637 22.5847 27.6637 23.2077V65.8847ZM24.1305 33.1762L20.1362 30.3725L24.4378 26.79V33.4878L24.1305 33.1762Z" fill="#193651"/>
<path d="M54.3748 90.5C54.3748 86.3674 57.7984 83 61.9998 83H8.62497C4.42354 83 1 86.3674 1 90.5C1 94.6326 4.42354 98 8.62497 98H62C57.7984 98 54.3748 94.6328 54.3748 90.5Z" fill="#458E5D"/>
<path fill-rule="evenodd" clip-rule="evenodd" d="M56.4066 90.5002C56.4066 93.8816 59.041 96.7799 62.4503 96.7799C63.2251 96.7799 64 97.424 63.8452 98.3898C63.8452 99.3559 63.2253 100 62.2955 100H9.14291C4.18393 100 0 95.6527 0 90.5C0 85.3473 4.02911 81 9.14291 81H62.4503C63.3801 81 64 81.6441 64 82.6102C64 83.5764 63.3801 84.2205 62.4503 84.2205C59.196 84.2205 56.4066 86.9578 56.4066 90.5002ZM9.14291 96.7799H55.4769C54.0822 95.1697 53.1525 92.9156 53.1528 90.5002C53.1528 88.0848 54.0824 85.8307 55.4771 84.2205H9.14291C5.88866 84.2205 3.09924 86.9578 3.09924 90.5002C3.09924 93.8816 5.88866 96.7799 9.14291 96.7799Z" fill="#193651"/>
<path d="M9.19716 92C7.9417 92 7 91.1428 7 90C7 88.8572 7.9417 88 9.19716 88H50C49.843 88.5714 49.843 89.2857 49.843 90C49.843 90.7143 49.843 91.2857 50 92H9.19716Z" fill="white"/>
<path d="M73.375 74.5C73.375 70.3674 76.7986 67 81 67H27.625C23.4235 67 20 70.3674 20 74.5C20 78.6326 23.4235 82 27.625 82H81C76.7984 82 73.375 78.6328 73.375 74.5Z" fill="#0B74D5"/>
<path fill-rule="evenodd" clip-rule="evenodd" d="M75.3882 74.5002C75.3882 77.8816 78.029 80.7799 81.4465 80.7799C82.3784 80.7799 83 81.4236 83 82.3898C83 83.3559 82.3787 84 81.4465 84H28.1651C23.1941 84 19 79.6527 19 74.5C19 69.3473 23.0389 65 28.1651 65H81.4465C82.3787 65 83 65.6441 83 66.6102C83 67.5764 82.3787 68.2205 81.4465 68.2205C78.1844 68.2205 75.3882 70.9578 75.3882 74.5002ZM28.1651 80.7799H74.6117C73.2136 79.1697 72.2814 76.9156 72.2816 74.5002C72.2816 72.0848 73.2136 69.8307 74.6117 68.2205H28.1651C24.9029 68.2205 22.1068 70.9578 22.1068 74.5002C22.1068 77.8816 24.7476 80.7799 28.1651 80.7799Z" fill="#193651"/>
<path d="M28.1972 77C26.9417 77 26 76.1428 26 75C26 73.8572 26.9417 73 28.1972 73H69C68.843 73.5714 68.843 74.2857 68.843 75C68.843 75.7143 68.843 76.2857 69 77H28.1972Z" fill="white"/>
<path d="M90.375 59.4975C90.375 55.3663 93.7986 52 98 52H44.625C40.4235 52 37 55.3663 37 59.4975C37 63.6287 40.4235 66.995 44.625 66.995H98C93.7986 67.148 90.375 63.7817 90.375 59.4975Z" fill="#FFEADA"/>
<path fill-rule="evenodd" clip-rule="evenodd" d="M92.3882 59.5002C92.3882 62.8816 95.029 65.7799 98.4465 65.7799C99.3787 65.7799 100 66.4242 100 67.3898C100 68.3559 99.3787 69 98.4465 69H45.1651C40.1941 69 36 64.8135 36 59.5C36 54.3473 40.0389 50 45.1651 50H98.4465C99.3787 50 100 50.6441 100 51.6102C100 52.5764 99.3787 53.2205 98.4465 53.2205C95.1844 53.2205 92.3882 56.1189 92.3882 59.5002ZM45.1651 65.7799H91.6117C90.0582 64.0088 89.2814 61.9156 89.2814 59.5002C89.2814 57.0848 90.2134 54.8307 91.6115 53.2205H45.1651C41.9029 53.2205 39.1068 56.1189 39.1068 59.5002C39.1068 62.8816 41.7476 65.7799 45.1651 65.7799Z" fill="#193651"/>
<path d="M45.3834 61.995C44.1377 61.995 43.2034 61.0671 43.2034 59.83C43.2034 58.5929 44.1377 57.665 45.3834 57.665H85.8673C85.7116 58.2836 85.7116 59.0568 85.7116 59.83C85.7116 60.6032 85.7116 61.2218 85.8673 61.995H45.3834Z" fill="white"/>
<path d="M37.4424 16.6868C41.4842 16.6868 44.7607 13.4328 44.7607 9.41885C44.7607 5.40486 41.4842 2.15088 37.4424 2.15088C33.4006 2.15088 30.124 5.40486 30.124 9.41885C30.124 13.4328 33.4006 16.6868 37.4424 16.6868Z" fill="white"/>
<path fill-rule="evenodd" clip-rule="evenodd" d="M28.1715 8.62352C28.1715 13.5511 32.1901 17.4009 36.9812 17.4009C41.7724 17.4009 45.7909 13.705 45.7909 8.77736C45.7909 3.84975 41.7726 0 36.9812 0C32.1899 0 28.1715 3.69591 28.1715 8.62352ZM31.2626 8.77736C31.2626 5.54356 33.8901 3.07976 36.9812 3.07976C40.0723 3.07976 42.6998 5.54356 42.6998 8.77736C42.6998 12.0112 40.0723 14.475 36.9812 14.475C33.7355 14.475 31.2626 12.0112 31.2626 8.77736Z" fill="#193651"/>
<path d="M78.4025 52.9724C77.475 52.9724 76.8568 52.3565 76.8568 51.4324V1.53998C76.8568 0.615951 77.475 0 78.4025 0C79.3299 0 79.9481 0.615951 79.9481 1.53998V51.4324C79.9479 52.3565 79.3297 52.9724 78.4025 52.9724Z" fill="#193651"/>
<path d="M78 2V20L98 11L78 2Z" fill="#F94814"/>
<path fill-rule="evenodd" clip-rule="evenodd" d="M77.8747 20.48C78.0309 20.6352 78.3432 20.7904 78.6556 20.7904C78.9679 20.7904 79.1241 20.7904 79.2804 20.6352L98.9591 11.7916C99.584 11.4812 99.8963 11.0158 99.8963 10.3952C99.8963 9.77457 99.5838 9.30917 99.1153 8.99877L79.4366 0.155166C78.8119 -3.35611e-05 78.3432 -3.3576e-05 77.8747 0.310366C77.4062 0.465566 77.0938 1.08617 77.0938 1.55157V19.2388C77.0938 19.7042 77.4062 20.1696 77.8747 20.48ZM80.2173 16.9116V4.03397L94.5861 10.3952L80.2173 16.9116Z" fill="#193651"/>
<rect x="69.7534" y="20.9453" width="3.1236" height="3.103" fill="#193651"/>
<rect x="69.7534" y="29.3237" width="3.1236" height="3.103" fill="#193651"/>
<rect x="69.7534" y="37.7017" width="3.1236" height="3.103" fill="#193651"/>
<rect x="9.15503" y="47.4766" width="3.1236" height="3.103" fill="#193651"/>
<rect x="9.15503" y="55.8545" width="3.1236" height="3.103" fill="#193651"/>
<rect x="9" y="64" width="3" height="3" fill="#193651"/>
</svg>
