<svg width="288" height="206" viewBox="0 0 288 206" fill="none" xmlns="http://www.w3.org/2000/svg">
<g clip-path="url(#clip0_1_13847)">
<rect width="98.3513" height="98.1245" rx="19.3208" transform="matrix(0.258819 0.965926 -0.965748 0.259482 172.184 89.3994)" fill="#6EBD4A"/>
<g clip-path="url(#clip1_1_13847)">
<path d="M176.339 14.4502H263.63V117.565C263.63 118.691 263.184 119.77 262.388 120.566C261.593 121.362 260.515 121.809 259.39 121.809H180.57C179.446 121.809 178.367 121.362 177.572 120.566C176.777 119.77 176.33 118.691 176.33 117.565V14.4502H176.339Z" fill="white"/>
<path d="M259.386 122.234H180.524C179.288 122.232 178.104 121.739 177.231 120.863C176.358 119.988 175.868 118.802 175.868 117.565V14.4503C175.868 14.3377 175.913 14.2298 175.992 14.1502C176.072 14.0706 176.18 14.0259 176.292 14.0259H263.626C263.739 14.0259 263.847 14.0706 263.926 14.1502C264.006 14.2298 264.05 14.3377 264.05 14.4503V117.565C264.048 118.803 263.556 119.989 262.682 120.864C261.808 121.739 260.623 122.232 259.386 122.234V122.234ZM176.759 14.8747V117.582C176.759 118.594 177.159 119.564 177.873 120.28C178.587 120.996 179.555 121.4 180.566 121.402H259.429C260.44 121.4 261.409 120.997 262.125 120.281C262.84 119.565 263.242 118.595 263.245 117.582V14.8747H176.759Z" fill="#040047"/>
<path d="M245.828 113.313H194.101C193.013 113.304 191.973 112.869 191.202 112.101C190.432 111.333 189.993 110.293 189.979 109.205V106.743C189.982 105.643 190.419 104.588 191.196 103.81C191.974 103.033 193.027 102.595 194.126 102.592H245.853C246.953 102.592 248.008 103.03 248.785 103.808C249.563 104.586 250 105.642 250 106.743V109.205C249.989 110.303 249.543 111.351 248.762 112.121C247.98 112.891 246.925 113.32 245.828 113.313V113.313ZM194.101 103.441C193.23 103.448 192.398 103.799 191.785 104.417C191.171 105.036 190.827 105.872 190.827 106.743V109.205C190.83 110.079 191.178 110.917 191.797 111.534C192.415 112.151 193.253 112.498 194.126 112.498H245.853C246.727 112.498 247.564 112.151 248.183 111.534C248.801 110.917 249.15 110.079 249.152 109.205V106.743C249.152 105.867 248.804 105.027 248.186 104.408C247.567 103.789 246.728 103.441 245.853 103.441H194.101Z" fill="#040047"/>
<path d="M195.737 42.7075H188.818V92.6268H195.737V42.7075Z" fill="#E2E2E2"/>
<path d="M208.507 54.396H201.588V92.6185H208.507V54.396Z" fill="#E2E2E2"/>
<path d="M221.271 46.7822H214.351V92.6272H221.271V46.7822Z" fill="#E2E2E2"/>
<path d="M234.045 60.5923H227.125V92.6184H234.045V60.5923Z" fill="#E2E2E2"/>
<path d="M246.809 46.7822H239.89V92.6272H246.809V46.7822Z" fill="#E2E2E2"/>
<path d="M246.65 23.4733H234.923C234.81 23.4733 234.702 23.4286 234.623 23.349C234.543 23.2694 234.499 23.1615 234.499 23.0489C234.499 22.9364 234.543 22.8284 234.623 22.7488C234.702 22.6692 234.81 22.6245 234.923 22.6245H246.633C246.745 22.6267 246.852 22.6721 246.931 22.7512C247.01 22.8303 247.055 22.937 247.057 23.0489C247.057 23.1586 247.015 23.2641 246.939 23.3432C246.863 23.4223 246.76 23.4689 246.65 23.4733Z" fill="#E2E2E2"/>
<path d="M242.554 27.8449H234.923C234.81 27.8449 234.702 27.8002 234.623 27.7206C234.543 27.641 234.499 27.5331 234.499 27.4205C234.499 27.3079 234.543 27.2 234.623 27.1204C234.702 27.0408 234.81 26.9961 234.923 26.9961H242.554C242.667 26.9961 242.775 27.0408 242.854 27.1204C242.934 27.2 242.978 27.3079 242.978 27.4205C242.978 27.5331 242.934 27.641 242.854 27.7206C242.775 27.8002 242.667 27.8449 242.554 27.8449Z" fill="#E2E2E2"/>
<path d="M231.439 47.2999C227.741 47.2999 224.519 43.1746 221.924 39.8473C220.228 37.6912 218.642 35.6031 217.583 35.6031C216.378 35.6031 214.716 36.5963 212.961 37.6149C210.57 38.9984 207.873 40.5688 205.329 40.4245C200.572 40.1698 191.634 29.6614 191.261 29.2115C191.226 29.1716 191.199 29.1251 191.182 29.0748C191.165 29.0244 191.159 28.9712 191.163 28.9182C191.167 28.8652 191.181 28.8136 191.205 28.7663C191.229 28.719 191.263 28.677 191.303 28.6428C191.381 28.5681 191.484 28.5264 191.592 28.5264C191.699 28.5264 191.803 28.5681 191.88 28.6428C191.965 28.7531 200.962 39.338 205.372 39.5756C207.695 39.7114 210.29 38.2005 212.579 36.8679C214.428 35.7984 216.175 34.7883 217.583 34.7458C218.99 34.7034 220.627 36.7151 222.611 39.2701C225.155 42.521 228.293 46.5614 231.693 46.4002C234.636 46.2559 236.043 43.6924 237.536 40.9762C239.028 38.26 240.444 35.6626 243.421 35.0938C243.521 35.0858 243.621 35.1155 243.701 35.1772C243.781 35.2388 243.836 35.3281 243.853 35.4275C243.871 35.5269 243.852 35.6295 243.799 35.7153C243.745 35.8011 243.662 35.864 243.565 35.8917C240.97 36.3841 239.647 38.8032 238.239 41.3667C236.713 44.1593 235.127 47.0453 231.735 47.215L231.439 47.2999Z" fill="#D1D3D4"/>
<path d="M252.732 93.0259H183.197C183.144 93.0259 183.091 93.0153 183.042 92.9948C182.994 92.9742 182.949 92.944 182.912 92.9061C182.875 92.8681 182.846 92.8231 182.826 92.7738C182.807 92.7244 182.797 92.6716 182.798 92.6185C182.803 92.5149 182.846 92.4167 182.92 92.3442C182.994 92.2716 183.093 92.2301 183.197 92.228H252.732C252.84 92.228 252.943 92.271 253.02 92.3474C253.096 92.4238 253.139 92.5274 253.139 92.6355C253.138 92.6879 253.126 92.7395 253.105 92.7875C253.084 92.8355 253.054 92.8788 253.016 92.9151C252.978 92.9514 252.934 92.9798 252.885 92.9988C252.836 93.0178 252.784 93.027 252.732 93.0259V93.0259Z" fill="#D1D3D4"/>
<path d="M191.677 30.5099C191.369 30.5099 191.067 30.4183 190.811 30.2467C190.554 30.0751 190.354 29.8311 190.236 29.5458C190.118 29.2604 190.087 28.9463 190.147 28.6434C190.207 28.3404 190.356 28.0621 190.574 27.8437C190.792 27.6253 191.07 27.4765 191.373 27.4162C191.676 27.356 191.989 27.3869 192.275 27.5051C192.56 27.6233 192.803 27.8235 192.975 28.0804C193.146 28.3372 193.238 28.6392 193.238 28.9481C193.238 29.3623 193.073 29.7595 192.781 30.0524C192.488 30.3454 192.091 30.5099 191.677 30.5099ZM191.677 28.2011C191.528 28.2011 191.382 28.2456 191.257 28.329C191.133 28.4124 191.036 28.5309 190.979 28.6695C190.923 28.808 190.908 28.9603 190.938 29.1071C190.968 29.2539 191.04 29.3884 191.147 29.4938C191.253 29.5991 191.389 29.6703 191.536 29.6985C191.682 29.7267 191.834 29.7105 191.972 29.652C192.11 29.5936 192.227 29.4954 192.309 29.3701C192.391 29.2447 192.434 29.0978 192.432 28.9481C192.432 28.8493 192.413 28.7514 192.375 28.6602C192.337 28.5691 192.281 28.4863 192.211 28.4169C192.14 28.3474 192.057 28.2925 191.966 28.2555C191.874 28.2185 191.776 28.2 191.677 28.2011V28.2011Z" fill="#D1D3D4"/>
<path d="M243.403 37.1393C243.095 37.1376 242.794 37.0446 242.539 36.8719C242.283 36.6993 242.085 36.4548 241.968 36.1693C241.851 35.8837 241.821 35.57 241.883 35.2676C241.944 34.9652 242.093 34.6877 242.312 34.4701C242.53 34.2525 242.808 34.1046 243.111 34.045C243.413 33.9854 243.726 34.0169 244.011 34.1353C244.296 34.2538 244.539 34.454 244.71 34.7106C244.881 34.9673 244.972 35.2689 244.972 35.5774C244.97 35.9924 244.804 36.3897 244.51 36.6823C244.216 36.975 243.818 37.1393 243.403 37.1393ZM243.403 34.822C243.254 34.822 243.108 34.8663 242.984 34.9493C242.86 35.0323 242.763 35.1503 242.706 35.2883C242.649 35.4264 242.634 35.5783 242.663 35.7248C242.692 35.8714 242.764 36.006 242.87 36.1116C242.975 36.2173 243.11 36.2892 243.256 36.3184C243.403 36.3475 243.554 36.3326 243.692 36.2754C243.83 36.2182 243.948 36.1214 244.031 35.9971C244.114 35.8729 244.158 35.7269 244.158 35.5774C244.158 35.3771 244.079 35.1849 243.937 35.0433C243.796 34.9016 243.604 34.822 243.403 34.822V34.822Z" fill="#D1D3D4"/>
<path d="M180.568 5.64795H259.389C260.513 5.64795 261.592 6.0951 262.387 6.89102C263.182 7.68695 263.629 8.76646 263.629 9.89206V14.4333H176.337V9.89206C176.337 8.76792 176.782 7.6897 177.576 6.89402C178.369 6.09834 179.445 5.6502 180.568 5.64795V5.64795Z" fill="white"/>
<path d="M263.629 14.8748H176.338C176.225 14.8748 176.117 14.83 176.038 14.7504C175.958 14.6709 175.914 14.5629 175.914 14.4503V9.89216C175.914 8.65546 176.404 7.46929 177.277 6.59401C178.149 5.71874 179.334 5.22588 180.569 5.22363H259.432C260.668 5.22588 261.853 5.71846 262.727 6.59349C263.601 7.46853 264.093 8.65468 264.096 9.89216V14.4334C264.098 14.4943 264.088 14.555 264.065 14.6116C264.042 14.6681 264.008 14.719 263.963 14.7609C263.919 14.8028 263.866 14.8346 263.809 14.8543C263.751 14.8739 263.69 14.8809 263.629 14.8748ZM176.762 14.0259H263.205V9.89216C263.203 8.8798 262.8 7.90955 262.085 7.1937C261.37 6.47785 260.401 6.0747 259.389 6.07246H180.527C179.516 6.0747 178.548 6.47813 177.834 7.19422C177.12 7.91031 176.719 8.88058 176.719 9.89216L176.762 14.0259Z" fill="#040047"/>
<path d="M86.2644 58.1304H27.8636C26.1448 58.1304 24.7515 59.5251 24.7515 61.2456V134.499C24.7515 136.219 26.1448 137.614 27.8636 137.614H86.2644C87.9832 137.614 89.3765 136.219 89.3765 134.499V61.2456C89.3765 59.5251 87.9832 58.1304 86.2644 58.1304Z" fill="white"/>
<path d="M86.2631 138.065H27.8623C26.9244 138.065 26.025 137.692 25.3619 137.028C24.6987 136.364 24.3262 135.464 24.3262 134.525V61.2461C24.3284 60.3081 24.7017 59.4091 25.3643 58.7457C26.027 58.0824 26.9251 57.7088 27.8623 57.7065H86.2631C87.2003 57.7088 88.0984 58.0824 88.761 58.7457C89.4237 59.4091 89.797 60.3081 89.7992 61.2461V134.5C89.8026 134.967 89.7136 135.43 89.5374 135.862C89.3612 136.294 89.1012 136.688 88.7725 137.019C88.4439 137.35 88.0529 137.613 87.6222 137.793C87.1915 137.972 86.7296 138.065 86.2631 138.065V138.065ZM27.8623 58.5554C27.15 58.5576 26.4676 58.8418 25.964 59.3459C25.4603 59.8501 25.1764 60.5332 25.1742 61.2461V134.5C25.1708 134.855 25.2378 135.208 25.3714 135.537C25.505 135.867 25.7025 136.166 25.9524 136.419C26.2024 136.671 26.4999 136.872 26.8277 137.009C27.1555 137.145 27.5071 137.216 27.8623 137.216H86.2631C86.976 137.216 87.6598 136.932 88.1639 136.428C88.668 135.923 88.9512 135.239 88.9512 134.525V61.2461C88.949 60.5332 88.6651 59.8501 88.1614 59.3459C87.6578 58.8418 86.9754 58.5576 86.2631 58.5554H27.8623Z" fill="#040047"/>
<path d="M73.0858 120.825H38.259C38.1465 120.825 38.0387 120.78 37.9591 120.701C37.8796 120.621 37.835 120.513 37.835 120.4C37.8371 120.289 37.8825 120.182 37.9615 120.103C38.0406 120.024 38.1472 119.978 38.259 119.976H73.0858C73.1982 119.976 73.3061 120.021 73.3856 120.1C73.4651 120.18 73.5098 120.288 73.5098 120.4C73.5098 120.513 73.4651 120.621 73.3856 120.701C73.3061 120.78 73.1982 120.825 73.0858 120.825Z" fill="#D1D3D4"/>
<path d="M56.2702 126.521H38.259C38.1472 126.519 38.0406 126.473 37.9615 126.394C37.8825 126.315 37.8371 126.208 37.835 126.096C37.835 125.984 37.8796 125.876 37.9591 125.796C38.0387 125.717 38.1465 125.672 38.259 125.672H56.2702C56.3826 125.672 56.4905 125.717 56.57 125.796C56.6495 125.876 56.6942 125.984 56.6942 126.096C56.692 126.208 56.6466 126.315 56.5676 126.394C56.4885 126.473 56.382 126.519 56.2702 126.521V126.521Z" fill="#D1D3D4"/>
<path d="M40.4129 76.024C45.5009 81.1169 50.569 86.1929 55.6173 91.2519C55.6946 91.336 55.7892 91.4024 55.8947 91.4463C56.0001 91.4903 56.1138 91.5108 56.2279 91.5065H79.5221C79.3945 95.1082 78.4038 98.6264 76.6337 101.765C74.8635 104.903 72.3656 107.569 69.3506 109.539C66.3356 111.509 62.8917 112.724 59.3092 113.083C55.7267 113.442 52.1105 112.933 48.7654 111.601C45.4202 110.268 42.4442 108.15 40.088 105.424C37.7318 102.699 36.0645 99.4474 35.2266 95.9424C34.3887 92.4374 34.4048 88.7821 35.2734 85.2847C36.1421 81.7872 37.8379 78.5499 40.2179 75.8457L40.4129 76.024Z" fill="#E2E2E2"/>
<path d="M57.8735 68.1895V89.9023H58.094L79.0902 89.8514C79.5566 89.8514 79.5566 89.8514 79.5226 89.3846C79.2579 85.255 77.8695 81.2766 75.5078 77.8802C73.1462 74.4838 69.9012 71.7989 66.1244 70.1163C63.8191 69.1083 61.364 68.486 58.8572 68.2743L57.8735 68.1895Z" fill="#E2E2E2"/>
<path d="M56.2708 89.6134V68.2061C53.7487 68.337 51.2625 68.8611 48.9018 69.7594C46.0779 70.8777 43.5019 72.5419 41.3208 74.6571L56.2708 89.6134Z" fill="#E2E2E2"/>
<path d="M123.581 78.0528C118.586 76.5504 115.949 70.702 114.618 66.0504C113.125 60.7623 111.37 56.4333 113.498 50.9244C113.982 49.6597 114.762 48.3779 116.042 47.9705C116.362 47.9244 116.67 47.8178 116.949 47.6564C117.172 47.4363 117.338 47.1654 117.433 46.867C120.469 39.703 129.059 39.5077 135.503 40.5178C139.235 41.1035 144.077 42.8097 145.238 46.6463C147.367 53.717 145.569 61.4074 141.651 67.5189C137.988 73.2654 131.06 80.3446 123.581 78.0528Z" fill="white"/>
<path d="M126.441 78.9011C125.432 78.9037 124.429 78.755 123.464 78.4598V78.4598C118.249 76.8894 115.552 70.9137 114.213 66.1688C114.043 65.5661 113.873 64.972 113.695 64.3863C112.339 59.7772 111.151 55.7877 113.102 50.8051C113.789 49.0141 114.755 47.9361 115.951 47.5965L116.205 47.5371C116.412 47.5389 116.613 47.4648 116.769 47.3287C116.925 47.1927 117.027 47.0042 117.053 46.7987C120.216 39.363 128.925 39.0744 135.607 40.1354C138.151 40.5343 144.308 41.9688 145.69 46.561C147.708 53.2837 146.385 60.991 142.052 67.7816C138.38 73.4432 132.597 78.9011 126.441 78.9011ZM130.206 40.5004C125.118 40.5004 120.03 41.9434 117.851 47.0278C117.737 47.3967 117.526 47.728 117.24 47.987C116.988 48.1646 116.697 48.2809 116.392 48.3265L116.18 48.386C115.256 48.6406 114.484 49.5488 113.89 51.0767C112.059 55.8216 113.195 59.6838 114.509 64.1486C114.688 64.7343 114.857 65.3285 115.035 65.9396C116.316 70.4723 118.86 76.1934 123.71 77.6534C130.494 79.6821 137.278 73.63 141.323 67.2892C145.52 60.7363 146.809 53.2582 144.859 46.7647C143.612 42.6394 137.872 41.3153 135.463 40.9418C133.725 40.6592 131.967 40.5117 130.206 40.5004V40.5004Z" fill="#040047"/>
<path d="M146.274 63.7412C146.274 63.7412 151.625 70.4384 150.785 72.0087C149.946 73.5791 146.622 72.8576 146.622 72.8576" fill="white"/>
<path d="M148.209 73.4771C147.64 73.4777 147.072 73.4208 146.514 73.3074C146.401 73.2849 146.302 73.2186 146.239 73.123C146.175 73.0275 146.152 72.9106 146.174 72.7981C146.197 72.6855 146.263 72.5865 146.358 72.5228C146.454 72.4592 146.571 72.436 146.683 72.4585C147.531 72.6283 149.829 72.849 150.389 71.7965C150.83 70.9476 148.405 67.1025 145.92 63.9873C145.849 63.899 145.816 63.7865 145.827 63.6738C145.838 63.5612 145.893 63.4574 145.979 63.3846C146.069 63.3168 146.182 63.286 146.294 63.2987C146.406 63.3113 146.509 63.3664 146.581 63.4525C147.879 65.0823 152.042 70.5063 151.135 72.1954C150.609 73.2395 149.278 73.4771 148.209 73.4771Z" fill="#040047"/>
<path d="M144.409 54.4043C147.631 56.5773 147.233 61.84 147.512 65.2098C147.903 69.9463 148.185 74.694 148.36 79.4531C148.471 82.4664 140.729 83.2388 139.262 82.4664L141.551 94.2226L124.685 89.4352L123.964 75.6928C123.964 75.6928 129.052 75.2599 131.596 68.9022C134.14 62.5445 133.097 53.1141 133.097 53.1141C133.097 53.1141 141.263 52.2738 144.409 54.4043Z" fill="white"/>
<path d="M141.552 94.6472H141.433L124.55 89.8598C124.464 89.8369 124.388 89.7878 124.331 89.7193C124.275 89.6508 124.242 89.5663 124.236 89.4778L123.515 75.7269C123.51 75.6184 123.547 75.5122 123.618 75.4301C123.689 75.348 123.789 75.2963 123.897 75.2855C124.1 75.2855 128.807 74.7847 131.155 68.7326C133.572 62.5022 132.639 53.2331 132.631 53.1397C132.624 53.0273 132.657 52.916 132.724 52.8256C132.76 52.7824 132.804 52.7466 132.853 52.7204C132.903 52.6942 132.957 52.678 133.013 52.6729C133.352 52.6729 141.416 51.8834 144.647 54.0649C147.505 56.0002 147.683 60.0746 147.827 63.402C147.827 64.0471 147.886 64.6667 147.937 65.2354C148.327 69.9719 148.615 74.7677 148.785 79.4957C148.781 79.9751 148.643 80.4437 148.384 80.8477C148.126 81.2516 147.76 81.5744 147.327 81.779C145.351 83.0183 141.62 83.4342 139.805 83.1286L141.967 94.1633C141.981 94.2352 141.976 94.3092 141.954 94.3789C141.932 94.4485 141.893 94.5115 141.84 94.5623C141.756 94.6216 141.655 94.6515 141.552 94.6472V94.6472ZM125.067 89.1128L141.001 93.6286L138.847 82.5514C138.828 82.4727 138.834 82.3902 138.863 82.3147C138.891 82.2391 138.942 82.1738 139.008 82.127C139.076 82.0858 139.153 82.064 139.233 82.064C139.312 82.064 139.39 82.0858 139.457 82.127C140.398 82.6278 144.757 82.3647 146.877 81.0405C147.606 80.5822 147.963 80.0644 147.937 79.5041C147.767 74.7847 147.479 69.9973 147.089 65.2779C147.038 64.7007 147.013 64.0725 146.979 63.4105C146.843 60.3208 146.674 56.4756 144.172 54.7864C141.628 53.0378 135.209 53.3774 133.513 53.4962C133.674 55.44 134.166 63.3426 131.944 69.0551C129.722 74.7677 125.694 75.8457 124.38 76.0919L125.067 89.1128Z" fill="#040047"/>
<path d="M147.93 75.9307C147.93 75.9307 143.283 75.9307 142.172 69.6494Z" fill="white"/>
<path d="M147.929 76.3549C147.878 76.3549 142.909 76.2785 141.747 69.7256C141.73 69.6144 141.756 69.5008 141.821 69.4089C141.886 69.317 141.984 69.254 142.095 69.2333C142.205 69.2134 142.318 69.238 142.41 69.3016C142.503 69.3652 142.566 69.4627 142.586 69.5728C143.612 75.4127 147.759 75.5146 147.929 75.5146C148.041 75.5146 148.149 75.5593 148.229 75.6389C148.308 75.7185 148.353 75.8264 148.353 75.939C148.35 76.0501 148.305 76.1558 148.226 76.2336C148.146 76.3114 148.04 76.3549 147.929 76.3549Z" fill="#040047"/>
<path d="M137.472 67.612C137.23 66.4412 136.67 65.3602 135.853 64.4883C135.316 63.7318 134.67 63.0595 133.936 62.4936C133.568 62.2122 133.142 62.0167 132.688 61.9212C132.235 61.8258 131.766 61.8328 131.316 61.9418C130.934 62.0809 130.586 62.2985 130.294 62.5807C130.002 62.8629 129.772 63.2034 129.62 63.5801C129.315 64.3423 129.185 65.1631 129.238 65.9822C129.318 67.7736 129.869 69.5119 130.836 71.0218C131.802 72.5316 133.149 73.7593 134.742 74.5808L134.462 74.3177" fill="white"/>
<path d="M134.716 74.9882C134.65 74.9872 134.586 74.9697 134.529 74.9373C132.874 74.0766 131.473 72.797 130.466 71.2258C129.459 69.6546 128.88 67.8468 128.788 65.9822C128.736 65.113 128.878 64.2432 129.204 63.4357C129.384 62.9994 129.655 62.6065 129.999 62.2831C130.342 61.9597 130.751 61.7131 131.197 61.5598C131.708 61.4307 132.242 61.4186 132.759 61.5244C133.276 61.6302 133.762 61.8512 134.182 62.171C134.951 62.7575 135.626 63.4589 136.183 64.2506C137.051 65.1839 137.638 66.3429 137.879 67.595C137.891 67.7063 137.858 67.8179 137.788 67.9053C137.718 67.9928 137.617 68.049 137.506 68.0618C137.394 68.0738 137.283 68.0412 137.196 67.9712C137.108 67.9013 137.052 67.7996 137.039 67.6883C136.8 66.5942 136.27 65.5852 135.504 64.7684C134.996 64.0491 134.384 63.4084 133.69 62.867C133.374 62.6229 133.007 62.4522 132.617 62.367C132.227 62.2819 131.823 62.2845 131.434 62.3747C131.105 62.4933 130.806 62.6801 130.554 62.923C130.303 63.1658 130.106 63.4592 129.976 63.7838C129.695 64.4867 129.576 65.244 129.628 65.9992C129.709 67.6072 130.183 69.1708 131.008 70.5529C131.833 71.9351 132.983 73.0937 134.36 73.9272C134.421 73.9148 134.485 73.9175 134.546 73.9353C134.607 73.953 134.662 73.9852 134.707 74.0291L134.996 74.2837C135.062 74.3408 135.11 74.4172 135.131 74.5024C135.153 74.5876 135.147 74.6774 135.116 74.7594C135.084 74.8414 135.028 74.9115 134.955 74.9601C134.881 75.0087 134.795 75.0334 134.707 75.0307L134.716 74.9882Z" fill="#040047"/>
<path d="M139.261 82.4665C139.261 82.4665 135.115 81.6177 132.995 78.9863C132.995 78.9863 133.741 85.2676 140.101 86.7955L139.261 82.4665Z" fill="#040047"/>
<path d="M140.103 87.22H140.001C133.429 85.6497 132.581 79.1222 132.572 79.0543C132.561 78.9631 132.58 78.8707 132.626 78.7911C132.672 78.7115 132.742 78.649 132.827 78.6129C132.91 78.5758 133.004 78.5673 133.093 78.5888C133.182 78.6102 133.261 78.6605 133.319 78.7318C135.328 81.1848 139.305 82.0591 139.348 82.0676C139.43 82.0848 139.506 82.1264 139.565 82.1868C139.624 82.2473 139.663 82.324 139.679 82.4071L140.527 86.7277C140.539 86.7893 140.538 86.853 140.523 86.9141C140.508 86.9752 140.479 87.0322 140.44 87.081C140.4 87.1297 140.35 87.169 140.293 87.196C140.236 87.223 140.174 87.237 140.111 87.2369L140.103 87.22ZM133.743 80.3275C134.155 81.7098 134.902 82.9688 135.917 83.9934C136.931 85.0179 138.183 85.7763 139.56 86.2014L138.898 82.8061C137.029 82.3501 135.273 81.512 133.743 80.3445V80.3275Z" fill="#040047"/>
<path d="M143.956 60.7609C144.028 59.8261 143.787 59.0451 143.419 59.0166C143.05 58.988 142.692 59.7227 142.62 60.6575C142.548 61.5923 142.788 62.3732 143.157 62.4018C143.526 62.4303 143.884 61.6957 143.956 60.7609Z" fill="#040047"/>
<path d="M99.1526 117.557L90.4523 132.836L67.7941 109.561C67.7941 109.561 69.6257 99.6722 67.1835 100.462C65.6405 101.012 64.2989 102.014 63.3337 103.339C63.3337 103.339 61.3239 89.7579 56.0325 94.2227C50.7411 98.6875 53.1748 106.531 57.1858 114.068C60.1622 119.662 86.6109 160.465 93.946 158.827C101.281 157.188 118.699 120.129 118.699 120.129L99.1526 117.557Z" fill="white"/>
<path d="M93.5377 159.285C85.202 159.285 59.4656 119.255 56.8114 114.298C53.4703 108.008 49.7222 99.0188 55.7599 93.9258C56.8792 92.9751 57.9646 92.6865 58.9907 93.077C61.7721 94.1295 63.1458 100.046 63.5868 102.414C64.5271 101.365 65.7215 100.575 67.055 100.122C67.235 100.052 67.431 100.033 67.6212 100.067C67.8113 100.102 67.9882 100.188 68.132 100.317C69.5481 101.565 68.556 107.753 68.2507 109.485L90.3577 132.123L98.7867 117.328C98.8282 117.254 98.8908 117.195 98.9663 117.157C99.0419 117.119 99.127 117.105 99.2107 117.116L118.714 119.662C118.781 119.67 118.844 119.695 118.899 119.733C118.954 119.772 118.998 119.823 119.028 119.883C119.057 119.942 119.073 120.008 119.073 120.074C119.073 120.14 119.057 120.205 119.028 120.265C118.307 121.784 101.424 157.537 93.9786 159.192C93.8349 159.237 93.6873 159.268 93.5377 159.285V159.285ZM58.0833 93.7306C57.4079 93.793 56.7767 94.0939 56.3026 94.5794C52.0626 98.1784 52.4612 104.324 57.5661 113.907C60.7969 119.985 87.0421 159.956 93.8514 158.453C100.432 156.985 115.899 125.027 118.07 120.511L99.4142 118.049L90.8496 133.082C90.8168 133.139 90.7715 133.188 90.7171 133.224C90.6628 133.261 90.6007 133.285 90.5358 133.294C90.4706 133.303 90.4041 133.297 90.3421 133.274C90.28 133.252 90.2243 133.215 90.1796 133.167L67.5214 109.892C67.4752 109.843 67.4411 109.783 67.422 109.719C67.4028 109.654 67.3992 109.585 67.4112 109.519C67.9878 106.387 68.4373 101.659 67.6062 100.929C67.6062 100.929 67.513 100.852 67.3434 100.929C65.8938 101.454 64.6313 102.396 63.714 103.636C63.6645 103.707 63.5957 103.761 63.5158 103.793C63.436 103.824 63.3487 103.832 63.2645 103.815C63.1823 103.795 63.1077 103.752 63.0503 103.69C62.9929 103.628 62.9553 103.55 62.9423 103.467C62.5946 101.115 61.17 94.8256 58.7024 93.9088C58.5093 93.8104 58.2992 93.7499 58.0833 93.7306V93.7306Z" fill="#040047"/>
<path d="M165.435 110.707C165.435 110.707 182.971 106.157 189.543 102.295C196.751 98.051 210.327 71.2451 214.737 64.5819C217.13 60.9023 218.909 56.857 220.003 52.605C220.511 50.7036 220.749 49.3285 219.799 47.512C219.604 47.1301 216.492 43.7178 216.348 44.1167C217.196 41.7315 218.044 39.4652 218.943 37.1055C219.18 36.4519 219.358 35.6285 218.858 35.1532C218.639 34.9818 218.368 34.8887 218.09 34.8887C217.812 34.8887 217.542 34.9818 217.323 35.1532C216.881 35.4924 216.521 35.9278 216.271 36.4264L209.063 48.9381C209.121 47.3932 208.81 45.8567 208.156 44.4563C208.053 44.1752 207.867 43.9323 207.622 43.7602C206.833 43.3189 206.07 44.3969 205.824 45.2627C204.544 49.7784 205.468 55.2194 202.704 59.2173C200.601 62.2561 181.919 84.682 181.919 84.682L165.435 88.9261" fill="white"/>
<path d="M165.434 111.131C165.321 111.146 165.208 111.115 165.118 111.046C165.028 110.976 164.969 110.874 164.955 110.762C164.94 110.649 164.971 110.535 165.04 110.445C165.109 110.355 165.211 110.297 165.324 110.282C165.502 110.24 182.885 105.715 189.33 101.921C194.545 98.8485 203.407 83.3065 209.275 73.0188C211.395 69.3094 213.218 66.1009 214.363 64.3438C216.727 60.6908 218.483 56.6773 219.561 52.4603C220.044 50.6777 220.299 49.379 219.391 47.6389C218.484 46.5007 217.474 45.4493 216.372 44.4983C216.311 44.5109 216.247 44.5109 216.186 44.4983C216.08 44.4598 215.993 44.3815 215.944 44.2801C215.895 44.1786 215.888 44.062 215.923 43.955V43.955C216.44 42.4272 217.017 40.9247 217.568 39.4648C217.89 38.6159 218.204 37.7671 218.518 36.9183C218.832 36.0695 218.806 35.6705 218.518 35.4244C218.372 35.3162 218.195 35.2578 218.013 35.2578C217.832 35.2578 217.655 35.3162 217.509 35.4244C217.129 35.7392 216.822 36.1331 216.61 36.5788L209.377 49.1159C209.33 49.1988 209.257 49.2633 209.169 49.2988C209.081 49.3343 208.984 49.3387 208.893 49.3111C208.82 49.2792 208.757 49.2272 208.712 49.1611C208.667 49.095 208.642 49.0176 208.639 48.9376C208.688 47.4763 208.398 46.0235 207.791 44.6935C207.719 44.4954 207.593 44.3217 207.426 44.1927C207.38 44.1659 207.327 44.1518 207.274 44.1518C207.22 44.1518 207.167 44.1659 207.121 44.1927C206.687 44.4906 206.384 44.943 206.273 45.4575C205.837 47.1834 205.553 48.9444 205.425 50.7202C205.145 53.7759 204.848 56.942 203.051 59.531C200.965 62.5613 183.004 84.0789 182.241 84.9957C182.184 85.0637 182.107 85.1114 182.02 85.1315L165.536 89.3756C165.427 89.4016 165.312 89.3843 165.215 89.3274C165.119 89.2704 165.048 89.1781 165.018 89.07C165.004 89.0159 165.001 88.9596 165.009 88.9043C165.017 88.849 165.035 88.7958 165.064 88.7477C165.092 88.6996 165.13 88.6575 165.174 88.624C165.219 88.5905 165.27 88.5661 165.324 88.5522L181.681 84.3081C183.064 82.6105 200.337 61.8992 202.355 59.0132C204.051 56.6025 204.306 53.5468 204.585 50.6013C204.704 48.7714 204.987 46.956 205.433 45.1774C205.523 44.7965 205.691 44.4384 205.926 44.1257C206.161 43.813 206.458 43.5526 206.799 43.3609C206.966 43.2898 207.147 43.259 207.328 43.2708C207.509 43.2826 207.685 43.3367 207.842 43.4288C208.167 43.624 208.418 43.9229 208.554 44.2776C209.022 45.28 209.323 46.3524 209.444 47.4522L215.923 36.2053C216.207 35.6441 216.616 35.1561 217.119 34.7793C217.421 34.558 217.788 34.443 218.162 34.4522C218.536 34.4614 218.897 34.5943 219.188 34.8302C219.714 35.331 219.781 36.1459 219.374 37.2409C219.061 38.0897 218.738 38.9385 218.416 39.7873C217.916 41.1115 217.399 42.4781 216.915 43.8617C218.138 44.864 219.242 46.0032 220.205 47.257C221.248 49.2602 220.96 50.7711 220.443 52.6894C219.335 56.9825 217.54 61.0674 215.126 64.7852C213.973 66.5253 212.158 69.7168 210.038 73.4092C203.771 84.393 195.198 99.4426 189.78 102.626C183.242 106.479 166.282 110.893 165.561 111.114L165.434 111.131Z" fill="#040047"/>
<path d="M169.627 183.901L164.141 158.928L109.42 173.621C109.42 173.621 109.53 177.721 109.683 183.884L169.627 183.901Z" fill="#040047"/>
<path d="M180.652 82.8905C180.652 82.8905 118.393 81.5748 110.49 92.7623C104.339 102.046 99.1885 111.956 95.124 122.327L106.317 132.801C106.268 147.615 107.021 162.42 108.573 177.152C127.865 180.548 167.83 165.099 167.491 164.946L162.403 113.168L186.232 105.8L180.652 82.8905Z" fill="#FFE11B"/>
<path d="M105.589 128.914C105.533 128.912 105.478 128.899 105.428 128.875C105.377 128.852 105.331 128.819 105.294 128.778C105.256 128.737 105.226 128.689 105.207 128.636C105.188 128.584 105.179 128.528 105.182 128.473C105.182 127.539 105.919 105.444 108.947 97.7198C108.966 97.6672 108.996 97.6191 109.035 97.5784C109.074 97.5378 109.12 97.5054 109.171 97.4832C109.223 97.4609 109.278 97.4494 109.335 97.4492C109.391 97.449 109.446 97.4602 109.498 97.4821C109.55 97.5008 109.598 97.53 109.638 97.5679C109.679 97.6058 109.711 97.6515 109.734 97.7024C109.756 97.7533 109.767 97.8082 109.768 97.8637C109.768 97.9192 109.757 97.9742 109.735 98.0253C106.767 105.614 106.038 128.277 106.029 128.498C106.025 128.611 105.976 128.718 105.894 128.796C105.811 128.874 105.702 128.916 105.589 128.914Z" fill="#040047"/>
<path d="M153.882 115.817C153.79 115.818 153.7 115.789 153.626 115.734C153.553 115.678 153.499 115.6 153.475 115.511C153.446 115.402 153.461 115.286 153.516 115.188C153.572 115.089 153.663 115.016 153.772 114.985L171.367 109.977C171.48 109.945 171.6 109.96 171.702 110.017C171.804 110.074 171.879 110.17 171.91 110.282C171.942 110.395 171.927 110.515 171.87 110.617C171.813 110.719 171.717 110.794 171.605 110.826L154.001 115.834C153.96 115.836 153.92 115.831 153.882 115.817Z" fill="#040047"/>
<path d="M222.675 175.277H191.901C191.474 175.278 191.051 175.195 190.657 175.032C190.262 174.869 189.904 174.629 189.602 174.327C189.3 174.025 189.061 173.666 188.898 173.271C188.735 172.876 188.652 172.453 188.653 172.026V137.997C188.653 137.57 188.737 137.147 188.901 136.752C189.064 136.358 189.303 136 189.605 135.698C189.906 135.396 190.264 135.156 190.658 134.993C191.052 134.83 191.475 134.746 191.901 134.746H219.037L225.888 141.434V171.992C225.893 172.419 225.813 172.843 225.654 173.239C225.495 173.635 225.26 173.996 224.961 174.301C224.663 174.606 224.307 174.849 223.915 175.017C223.523 175.184 223.101 175.272 222.675 175.277V175.277Z" fill="white"/>
<path d="M203.482 166.427H200.503V144.584H210.432C213.717 144.584 216.389 147.256 216.389 150.542C216.389 153.827 213.717 156.499 210.432 156.499H203.482V166.427ZM203.482 153.52H210.432C212.072 153.52 213.411 152.182 213.411 150.542C213.411 148.901 212.072 147.563 210.432 147.563H203.482V153.52Z" fill="#E2E2E2"/>
<path d="M198.518 159.478H208.447V162.456H198.518V159.478Z" fill="#E2E2E2"/>
<path d="M222.669 175.701H191.896C190.922 175.701 189.988 175.314 189.3 174.625C188.611 173.935 188.224 173 188.224 172.026V137.996C188.226 137.022 188.614 136.089 189.302 135.4C189.99 134.711 190.923 134.323 191.896 134.321H219.032C219.086 134.32 219.141 134.33 219.192 134.35C219.243 134.37 219.289 134.401 219.328 134.44L226.189 141.137C226.268 141.216 226.313 141.322 226.316 141.434V171.992C226.322 172.967 225.942 173.906 225.259 174.601C224.575 175.296 223.644 175.692 222.669 175.701V175.701ZM191.896 135.17C191.148 135.172 190.431 135.47 189.902 136C189.373 136.53 189.074 137.247 189.072 137.996V172.017C189.072 172.388 189.145 172.756 189.287 173.099C189.429 173.442 189.637 173.753 189.899 174.016C190.161 174.278 190.473 174.487 190.815 174.629C191.158 174.771 191.525 174.844 191.896 174.844H222.669C223.418 174.842 224.135 174.543 224.664 174.013C225.193 173.484 225.491 172.766 225.493 172.017V141.612L218.887 135.17H191.896Z" fill="#040047"/>
<path d="M181.628 11.5898C182.415 11.5898 183.052 10.9514 183.052 10.1638C183.052 9.37625 182.415 8.73779 181.628 8.73779C180.841 8.73779 180.203 9.37625 180.203 10.1638C180.203 10.9514 180.841 11.5898 181.628 11.5898Z" fill="#040047"/>
<path d="M186.57 11.5898C187.357 11.5898 187.995 10.9514 187.995 10.1638C187.995 9.37625 187.357 8.73779 186.57 8.73779C185.783 8.73779 185.146 9.37625 185.146 10.1638C185.146 10.9514 185.783 11.5898 186.57 11.5898Z" fill="#D1D3D4"/>
<path d="M191.515 11.5898C192.302 11.5898 192.94 10.9514 192.94 10.1638C192.94 9.37625 192.302 8.73779 191.515 8.73779C190.728 8.73779 190.09 9.37625 190.09 10.1638C190.09 10.9514 190.728 11.5898 191.515 11.5898Z" fill="#D1D3D4"/>
<path d="M218.811 32.5471C218.714 32.5463 218.621 32.5101 218.549 32.4452C218.467 32.376 218.416 32.2776 218.407 32.1713C218.397 32.0649 218.43 31.9591 218.498 31.8765L222.161 27.5305C222.199 27.4849 222.248 27.4484 222.302 27.4234C222.356 27.3985 222.415 27.3858 222.475 27.3862H231.641C231.754 27.3862 231.862 27.431 231.941 27.5105C232.021 27.5901 232.065 27.6981 232.065 27.8107C232.065 27.9232 232.021 28.0312 231.941 28.1108C231.862 28.1904 231.754 28.2351 231.641 28.2351H222.644L219.1 32.4792C219.016 32.5373 218.913 32.5615 218.811 32.5471V32.5471Z" fill="#D1D3D4"/>
<path d="M219.067 134.746V141.638L225.919 141.434L219.067 134.746Z" fill="#040047"/>
<path d="M219.057 142.062C218.949 142.062 218.846 142.019 218.769 141.944C218.726 141.905 218.692 141.858 218.668 141.805C218.645 141.753 218.633 141.696 218.633 141.638V134.746C218.635 134.662 218.66 134.581 218.707 134.511C218.754 134.442 218.819 134.388 218.896 134.355C218.972 134.322 219.057 134.312 219.138 134.327C219.22 134.342 219.295 134.382 219.354 134.44L226.214 141.137C226.272 141.196 226.311 141.27 226.327 141.351C226.344 141.432 226.336 141.516 226.305 141.592C226.275 141.669 226.223 141.735 226.155 141.782C226.088 141.829 226.008 141.856 225.926 141.859L219.074 142.062H219.057ZM219.481 135.756V141.205L224.9 141.044L219.481 135.756Z" fill="#040047"/>
<path d="M70.7543 152.672H62.0455C60.7669 152.672 59.7305 153.71 59.7305 154.99V163.707C59.7305 164.987 60.7669 166.024 62.0455 166.024H70.7543C72.0328 166.024 73.0693 164.987 73.0693 163.707V154.99C73.0693 153.71 72.0328 152.672 70.7543 152.672Z" fill="#FFE11B"/>
<path d="M68.4551 148.395H59.458C58.259 148.395 57.2871 149.367 57.2871 150.568V159.574C57.2871 160.774 58.259 161.747 59.458 161.747H68.4551C69.654 161.747 70.6259 160.774 70.6259 159.574V150.568C70.6259 149.367 69.654 148.395 68.4551 148.395Z" fill="white"/>
<path d="M68.4561 162.171H59.459C59.1168 162.173 58.7775 162.108 58.4608 161.978C58.144 161.849 57.8559 161.658 57.6132 161.416C57.3704 161.175 57.1778 160.888 57.0463 160.572C56.9148 160.255 56.8472 159.916 56.8472 159.574V150.568C56.8472 149.879 57.1206 149.218 57.6072 148.731C58.0938 148.244 58.7538 147.97 59.442 147.97H68.4391C68.7799 147.97 69.1173 148.037 69.4321 148.168C69.747 148.298 70.033 148.49 70.274 148.731C70.5149 148.972 70.7061 149.259 70.8365 149.574C70.9669 149.889 71.034 150.227 71.034 150.568V159.574C71.034 160.26 70.7629 160.918 70.28 161.404C69.797 161.891 69.1414 162.167 68.4561 162.171V162.171ZM59.459 148.819C59.2281 148.817 58.9992 148.86 58.7853 148.947C58.5714 149.034 58.3768 149.163 58.2128 149.325C58.0488 149.488 57.9186 149.681 57.8297 149.895C57.7409 150.108 57.6951 150.337 57.6952 150.568V159.574C57.6952 160.037 57.8792 160.482 58.2068 160.81C58.5344 161.138 58.9787 161.322 59.442 161.322H68.4391C68.9024 161.322 69.3468 161.138 69.6744 160.81C70.002 160.482 70.186 160.037 70.186 159.574V150.568C70.186 150.104 70.002 149.659 69.6744 149.331C69.3468 149.003 68.9024 148.819 68.4391 148.819H59.459Z" fill="#040047"/>
</g>
</g>
<defs>
<clipPath id="clip0_1_13847">
<rect width="288" height="206" fill="white"/>
</clipPath>
<clipPath id="clip1_1_13847">
<rect width="245.428" height="182.284" fill="white" transform="translate(21 4)"/>
</clipPath>
</defs>
</svg>
