<svg width="186" height="32" viewBox="0 0 186 32" fill="none" xmlns="http://www.w3.org/2000/svg">
<rect width="32" height="32" rx="4" fill="#4169F4"/>
<path fill-rule="evenodd" clip-rule="evenodd" d="M16 5C11.5702 5 9.09533 6.54933 7.94234 7.59296C7.2263 8.24108 7 9.13961 7 9.90833V16C7 18.5751 8.27689 20.7594 9.75258 22.4299C11.2336 24.1063 12.9974 25.3609 14.1707 26.0984C15.2955 26.8053 16.7045 26.8053 17.8293 26.0984C19.0026 25.3609 20.7664 24.1063 22.2474 22.4299C23.7231 20.7594 25 18.5751 25 16V9.90833C25 9.13961 24.7737 8.24108 24.0577 7.59296C22.9047 6.54933 20.4298 5 16 5ZM9.28449 9.07574C10.0843 8.35175 12.0856 7 16 7C19.9144 7 21.9157 8.35175 22.7155 9.07574C22.8777 9.22254 23 9.4925 23 9.90833V14.1437C22.9671 14.1794 22.9294 14.2189 22.8866 14.2616C22.658 14.4903 22.2843 14.8132 21.7355 15.1425C20.6456 15.7965 18.8243 16.5 16 16.5C13.1757 16.5 11.3544 15.7965 10.2645 15.1425C9.71567 14.8132 9.34202 14.4903 9.11336 14.2616C9.07058 14.2189 9.03286 14.1794 9 14.1437V9.90833C9 9.49249 9.12231 9.22254 9.28449 9.07574ZM9.04802 16.7419C9.25537 18.3465 10.115 19.8193 11.2515 21.1057C12.5557 22.5821 14.1432 23.7189 15.235 24.405C15.7092 24.7031 16.2908 24.7031 16.765 24.405C17.8568 23.7189 19.4443 22.5821 20.7485 21.1057C21.885 19.8193 22.7446 18.3465 22.952 16.7419C22.8911 16.7804 22.8287 16.819 22.7645 16.8575C21.3544 17.7035 19.1757 18.5 16 18.5C12.8243 18.5 10.6456 17.7035 9.2355 16.8575C9.17134 16.819 9.10886 16.7804 9.04802 16.7419Z" fill="white"/>
<path d="M147.046 23L141.334 6.19995H144.238L148.39 19.256L152.566 6.19995H155.47L149.758 23H147.046Z" fill="#191B1F"/>
<path d="M157.734 23V6.19995H163.878C165.494 6.19995 166.75 6.64795 167.646 7.54395C168.558 8.43995 169.014 9.64795 169.014 11.168C169.014 12.688 168.558 13.896 167.646 14.792C166.75 15.688 165.494 16.136 163.878 16.136H160.398V23H157.734ZM160.398 13.664H163.806C165.47 13.664 166.302 12.832 166.302 11.168C166.302 9.50395 165.47 8.67195 163.806 8.67195H160.398V13.664Z" fill="#191B1F"/>
<path d="M171.89 23V6.19995H174.746L181.562 18.248V6.19995H184.226V23H181.37L174.554 10.976V23H171.89Z" fill="#191B1F"/>
<path d="M54.2637 23L60.0477 6.19995H62.6637L68.4717 23H65.6157L64.2717 18.8H58.4637L57.0957 23H54.2637ZM59.2317 16.328H63.4797L61.3677 9.72795L59.2317 16.328Z" fill="#4169F4"/>
<path d="M70.4464 23V10.904H72.9904V13.016C73.4384 12.296 73.9984 11.736 74.6704 11.336C75.3584 10.92 76.0864 10.712 76.8544 10.712C77.9904 10.712 78.8944 11.04 79.5664 11.696C80.2384 12.352 80.5744 13.272 80.5744 14.456V23H78.0544V15.128C78.0544 13.656 77.3984 12.92 76.0864 12.92C75.2224 12.92 74.4864 13.384 73.8784 14.312C73.2864 15.24 72.9904 16.48 72.9904 18.032V23H70.4464Z" fill="#4169F4"/>
<path d="M85.0002 21.416C83.9122 20.216 83.3682 18.728 83.3682 16.952C83.3682 15.176 83.9122 13.696 85.0002 12.512C86.1042 11.312 87.5602 10.712 89.3682 10.712C91.1762 10.712 92.6242 11.312 93.7122 12.512C94.8162 13.696 95.3682 15.176 95.3682 16.952C95.3682 18.728 94.8162 20.216 93.7122 21.416C92.6242 22.6 91.1762 23.192 89.3682 23.192C87.5602 23.192 86.1042 22.6 85.0002 21.416ZM91.8162 19.808C92.4082 19.024 92.7042 18.072 92.7042 16.952C92.7042 15.832 92.4082 14.88 91.8162 14.096C91.2242 13.312 90.4082 12.92 89.3682 12.92C88.3122 12.92 87.4882 13.312 86.8962 14.096C86.3042 14.88 86.0082 15.832 86.0082 16.952C86.0082 18.072 86.3042 19.024 86.8962 19.808C87.4882 20.592 88.3122 20.984 89.3682 20.984C90.4082 20.984 91.2242 20.592 91.8162 19.808Z" fill="#4169F4"/>
<path d="M98.1495 23V10.904H100.694V13.016C101.142 12.296 101.702 11.736 102.374 11.336C103.062 10.92 103.79 10.712 104.558 10.712C105.694 10.712 106.598 11.04 107.27 11.696C107.942 12.352 108.278 13.272 108.278 14.456V23H105.758V15.128C105.758 13.656 105.102 12.92 103.79 12.92C102.926 12.92 102.19 13.384 101.582 14.312C100.99 15.24 100.694 16.48 100.694 18.032V23H98.1495Z" fill="#4169F4"/>
<path d="M118.165 10.904H120.709L114.541 27.896H112.093L114.061 22.4L109.693 10.904H112.261L115.261 19.016L118.165 10.904Z" fill="#4169F4"/>
<path d="M122.548 23V10.904H125.092V13.016C126.004 11.48 127.196 10.712 128.668 10.712C130.428 10.712 131.548 11.56 132.028 13.256C132.46 12.472 133.004 11.856 133.66 11.408C134.332 10.944 135.044 10.712 135.796 10.712C136.948 10.712 137.828 11.04 138.436 11.696C139.044 12.352 139.348 13.288 139.348 14.504V23H136.828V14.912C136.828 13.584 136.26 12.92 135.124 12.92C134.276 12.92 133.58 13.384 133.036 14.312C132.492 15.224 132.22 16.488 132.22 18.104V23H129.7V14.912C129.7 13.584 129.132 12.92 127.996 12.92C127.132 12.92 126.428 13.4 125.884 14.36C125.356 15.304 125.092 16.616 125.092 18.296V23H122.548Z" fill="#4169F4"/>
</svg>
