<svg width="179" height="32" viewBox="0 0 179 32" fill="none" xmlns="http://www.w3.org/2000/svg">
<rect width="32" height="32" rx="4" fill="#4169F4"/>
<path fill-rule="evenodd" clip-rule="evenodd" d="M16 5C11.5702 5 9.09533 6.54933 7.94234 7.59296C7.2263 8.24108 7 9.13961 7 9.90833V16C7 18.5751 8.27689 20.7594 9.75258 22.4299C11.2336 24.1063 12.9974 25.3609 14.1707 26.0984C15.2955 26.8053 16.7045 26.8053 17.8293 26.0984C19.0026 25.3609 20.7664 24.1063 22.2474 22.4299C23.7231 20.7594 25 18.5751 25 16V9.90833C25 9.13961 24.7737 8.24108 24.0577 7.59296C22.9047 6.54933 20.4298 5 16 5ZM9.28449 9.07574C10.0843 8.35175 12.0856 7 16 7C19.9144 7 21.9157 8.35175 22.7155 9.07574C22.8777 9.22254 23 9.4925 23 9.90833V14.1437C22.9671 14.1794 22.9294 14.2189 22.8866 14.2616C22.658 14.4903 22.2843 14.8132 21.7355 15.1425C20.6456 15.7965 18.8243 16.5 16 16.5C13.1757 16.5 11.3544 15.7965 10.2645 15.1425C9.71567 14.8132 9.34202 14.4903 9.11336 14.2616C9.07058 14.2189 9.03286 14.1794 9 14.1437V9.90833C9 9.49249 9.12231 9.22254 9.28449 9.07574ZM9.04802 16.7419C9.25537 18.3465 10.115 19.8193 11.2515 21.1057C12.5557 22.5821 14.1432 23.7189 15.235 24.405C15.7092 24.7031 16.2908 24.7031 16.765 24.405C17.8568 23.7189 19.4443 22.5821 20.7485 21.1057C21.885 19.8193 22.7446 18.3465 22.952 16.7419C22.8911 16.7804 22.8287 16.819 22.7645 16.8575C21.3544 17.7035 19.1757 18.5 16 18.5C12.8243 18.5 10.6456 17.7035 9.2355 16.8575C9.17134 16.819 9.10886 16.7804 9.04802 16.7419Z" fill="white"/>
<path d="M65.1828 22.8V10.704H67.7267V12.816C68.1747 12.096 68.7347 11.536 69.4067 11.136C70.0947 10.72 70.8227 10.512 71.5907 10.512C72.7267 10.512 73.6307 10.84 74.3027 11.496C74.9747 12.152 75.3108 13.072 75.3108 14.256V22.8H72.7908V14.928C72.7908 13.456 72.1348 12.72 70.8228 12.72C69.9588 12.72 69.2228 13.184 68.6147 14.112C68.0227 15.04 67.7267 16.28 67.7267 17.832V22.8H65.1828Z" fill="#4169F4"/>
<path d="M79.7365 21.216C78.6485 20.016 78.1045 18.528 78.1045 16.752C78.1045 14.976 78.6485 13.496 79.7365 12.312C80.8405 11.112 82.2965 10.512 84.1045 10.512C85.9125 10.512 87.3605 11.112 88.4485 12.312C89.5525 13.496 90.1045 14.976 90.1045 16.752C90.1045 18.528 89.5525 20.016 88.4485 21.216C87.3605 22.4 85.9125 22.992 84.1045 22.992C82.2965 22.992 80.8405 22.4 79.7365 21.216ZM86.5525 19.608C87.1445 18.824 87.4405 17.872 87.4405 16.752C87.4405 15.632 87.1445 14.68 86.5525 13.896C85.9605 13.112 85.1445 12.72 84.1045 12.72C83.0485 12.72 82.2245 13.112 81.6325 13.896C81.0405 14.68 80.7445 15.632 80.7445 16.752C80.7445 17.872 81.0405 18.824 81.6325 19.608C82.2245 20.392 83.0485 20.784 84.1045 20.784C85.1445 20.784 85.9605 20.392 86.5525 19.608Z" fill="#4169F4"/>
<path d="M92.8859 22.8V10.704H95.4299V12.816C95.8779 12.096 96.4379 11.536 97.1099 11.136C97.7979 10.72 98.5259 10.512 99.2939 10.512C100.43 10.512 101.334 10.84 102.006 11.496C102.678 12.152 103.014 13.072 103.014 14.256V22.8H100.494V14.928C100.494 13.456 99.8379 12.72 98.5259 12.72C97.6619 12.72 96.9259 13.184 96.3179 14.112C95.7259 15.04 95.4299 16.28 95.4299 17.832V22.8H92.8859Z" fill="#4169F4"/>
<path d="M112.901 10.704H115.445L109.277 27.696H106.829L108.797 22.2L104.429 10.704H106.997L109.997 18.816L112.901 10.704Z" fill="#4169F4"/>
<path d="M117.284 22.8V10.704H119.828V12.816C120.74 11.28 121.932 10.512 123.404 10.512C125.164 10.512 126.284 11.36 126.764 13.056C127.196 12.272 127.74 11.656 128.396 11.208C129.068 10.744 129.78 10.512 130.532 10.512C131.684 10.512 132.564 10.84 133.172 11.496C133.78 12.152 134.084 13.088 134.084 14.304V22.8H131.564V14.712C131.564 13.384 130.996 12.72 129.86 12.72C129.012 12.72 128.316 13.184 127.772 14.112C127.228 15.024 126.956 16.288 126.956 17.904V22.8H124.436V14.712C124.436 13.384 123.868 12.72 122.732 12.72C121.868 12.72 121.164 13.2 120.62 14.16C120.092 15.104 119.828 16.416 119.828 18.096V22.8H117.284Z" fill="#4169F4"/>
<path fill-rule="evenodd" clip-rule="evenodd" d="M49 22.8L54.784 6H57.4L63.208 22.8H60.352L59.008 18.6H53.2L51.832 22.8H49ZM58.216 16.128H53.968L56.104 9.528L58.216 16.128Z" fill="#4169F4"/>
<path d="M141.782 22.8L136.07 6H138.974L143.126 19.056L147.302 6H150.206L144.494 22.8H141.782Z" fill="#191B1F"/>
<path d="M152.47 22.8V6H158.614C160.23 6 161.486 6.448 162.382 7.344C163.294 8.24 163.75 9.448 163.75 10.968C163.75 12.488 163.294 13.696 162.382 14.592C161.486 15.488 160.23 15.936 158.614 15.936H155.134V22.8H152.47ZM155.134 13.464H158.542C160.206 13.464 161.038 12.632 161.038 10.968C161.038 9.304 160.206 8.472 158.542 8.472H155.134V13.464Z" fill="#191B1F"/>
<path d="M166.626 22.8V6H169.482L176.298 18.048V6H178.962V22.8H176.106L169.29 10.776V22.8H166.626Z" fill="#191B1F"/>
</svg>
