<svg width="148" height="32" viewBox="0 0 148 32" fill="none" xmlns="http://www.w3.org/2000/svg">
<path d="M48 23L53.784 6.19995H56.4L62.208 23H59.352L58.008 18.8H52.2L50.832 23H48ZM52.968 16.328H57.216L55.104 9.72795L52.968 16.328Z" fill="#4169F4"/>
<path d="M64.1828 23V10.904H66.7267V13.016C67.1747 12.296 67.7347 11.736 68.4067 11.336C69.0947 10.92 69.8227 10.712 70.5907 10.712C71.7267 10.712 72.6307 11.04 73.3027 11.696C73.9747 12.352 74.3108 13.272 74.3108 14.456V23H71.7908V15.128C71.7908 13.656 71.1348 12.92 69.8228 12.92C68.9588 12.92 68.2228 13.384 67.6147 14.312C67.0227 15.24 66.7267 16.48 66.7267 18.032V23H64.1828Z" fill="#4169F4"/>
<path d="M78.7365 21.416C77.6485 20.216 77.1045 18.728 77.1045 16.952C77.1045 15.176 77.6485 13.696 78.7365 12.512C79.8405 11.312 81.2965 10.712 83.1045 10.712C84.9125 10.712 86.3605 11.312 87.4485 12.512C88.5525 13.696 89.1045 15.176 89.1045 16.952C89.1045 18.728 88.5525 20.216 87.4485 21.416C86.3605 22.6 84.9125 23.192 83.1045 23.192C81.2965 23.192 79.8405 22.6 78.7365 21.416ZM85.5525 19.808C86.1445 19.024 86.4405 18.072 86.4405 16.952C86.4405 15.832 86.1445 14.88 85.5525 14.096C84.9605 13.312 84.1445 12.92 83.1045 12.92C82.0485 12.92 81.2245 13.312 80.6325 14.096C80.0405 14.88 79.7445 15.832 79.7445 16.952C79.7445 18.072 80.0405 19.024 80.6325 19.808C81.2245 20.592 82.0485 20.984 83.1045 20.984C84.1445 20.984 84.9605 20.592 85.5525 19.808Z" fill="#4169F4"/>
<path d="M91.8859 23V10.904H94.4299V13.016C94.8779 12.296 95.4379 11.736 96.1099 11.336C96.7979 10.92 97.5259 10.712 98.2939 10.712C99.4299 10.712 100.334 11.04 101.006 11.696C101.678 12.352 102.014 13.272 102.014 14.456V23H99.4939V15.128C99.4939 13.656 98.8379 12.92 97.5259 12.92C96.6619 12.92 95.9259 13.384 95.3179 14.312C94.7259 15.24 94.4299 16.48 94.4299 18.032V23H91.8859Z" fill="#4169F4"/>
<path d="M109.728 23L104.016 6.19995H106.92L111.072 19.256L115.248 6.19995H118.152L112.44 23H109.728Z" fill="white"/>
<path d="M120.415 23V6.19995H126.56C128.176 6.19995 129.431 6.64795 130.327 7.54395C131.239 8.43995 131.696 9.64795 131.696 11.168C131.696 12.688 131.239 13.896 130.327 14.792C129.431 15.688 128.176 16.136 126.56 16.136H123.079V23H120.415ZM123.079 13.664H126.488C128.152 13.664 128.983 12.832 128.983 11.168C128.983 9.50395 128.152 8.67195 126.488 8.67195H123.079V13.664Z" fill="white"/>
<path d="M134.572 23V6.19995H137.428L144.244 18.248V6.19995H146.908V23H144.052L137.236 10.976V23H134.572Z" fill="white"/>
<rect width="32" height="32" rx="4" fill="#4169F4"/>
<path fill-rule="evenodd" clip-rule="evenodd" d="M16 5C11.5702 5 9.09533 6.54933 7.94234 7.59296C7.2263 8.24108 7 9.13961 7 9.90833V16C7 18.5751 8.27689 20.7594 9.75258 22.4299C11.2336 24.1063 12.9974 25.3609 14.1707 26.0984C15.2955 26.8053 16.7045 26.8053 17.8293 26.0984C19.0026 25.3609 20.7664 24.1063 22.2474 22.4299C23.7231 20.7594 25 18.5751 25 16V9.90833C25 9.13961 24.7737 8.24108 24.0577 7.59296C22.9047 6.54933 20.4298 5 16 5ZM9.28449 9.07574C10.0843 8.35175 12.0856 7 16 7C19.9144 7 21.9157 8.35175 22.7155 9.07574C22.8777 9.22254 23 9.4925 23 9.90833V14.1437C22.9671 14.1794 22.9294 14.2189 22.8866 14.2616C22.658 14.4903 22.2843 14.8132 21.7355 15.1425C20.6456 15.7965 18.8243 16.5 16 16.5C13.1757 16.5 11.3544 15.7965 10.2645 15.1425C9.71567 14.8132 9.34202 14.4903 9.11336 14.2616C9.07058 14.2189 9.03286 14.1794 9 14.1437V9.90833C9 9.49249 9.12231 9.22254 9.28449 9.07574ZM9.04802 16.7419C9.25537 18.3465 10.115 19.8193 11.2515 21.1057C12.5557 22.5821 14.1432 23.7189 15.235 24.405C15.7092 24.7031 16.2908 24.7031 16.765 24.405C17.8568 23.7189 19.4443 22.5821 20.7485 21.1057C21.885 19.8193 22.7446 18.3465 22.952 16.7419C22.8911 16.7804 22.8287 16.819 22.7645 16.8575C21.3544 17.7035 19.1757 18.5 16 18.5C12.8243 18.5 10.6456 17.7035 9.2355 16.8575C9.17134 16.819 9.10886 16.7804 9.04802 16.7419Z" fill="white"/>
</svg>
