<svg width="148" height="32" viewBox="0 0 148 32" fill="none" xmlns="http://www.w3.org/2000/svg">
<path d="M109.991 24L104.279 7.19995H107.183L111.335 20.256L115.511 7.19995H118.415L112.703 24H109.991Z" fill="#191B1F"/>
<path d="M120.679 24V7.19995H126.823C128.439 7.19995 129.695 7.64795 130.591 8.54395C131.503 9.43995 131.959 10.648 131.959 12.168C131.959 13.688 131.503 14.896 130.591 15.792C129.695 16.688 128.439 17.136 126.823 17.136H123.343V24H120.679ZM123.343 14.664H126.751C128.415 14.664 129.247 13.832 129.247 12.168C129.247 10.504 128.415 9.67195 126.751 9.67195H123.343V14.664Z" fill="#191B1F"/>
<path d="M134.835 24V7.19995H137.691L144.507 19.248V7.19995H147.171V24H144.315L137.499 11.976V24H134.835Z" fill="#191B1F"/>
<path d="M48.2637 24L54.0477 7.19995H56.6637L62.4717 24H59.6157L58.2717 19.8H52.4637L51.0957 24H48.2637ZM53.2317 17.328H57.4797L55.3677 10.728L53.2317 17.328Z" fill="#4169F4"/>
<path d="M64.4464 24V11.904H66.9904V14.016C67.4384 13.296 67.9984 12.736 68.6704 12.336C69.3584 11.92 70.0864 11.712 70.8544 11.712C71.9904 11.712 72.8944 12.04 73.5664 12.696C74.2384 13.352 74.5744 14.272 74.5744 15.456V24H72.0544V16.128C72.0544 14.656 71.3984 13.92 70.0864 13.92C69.2224 13.92 68.4864 14.384 67.8784 15.312C67.2864 16.24 66.9904 17.48 66.9904 19.032V24H64.4464Z" fill="#4169F4"/>
<path d="M79.0002 22.416C77.9122 21.216 77.3682 19.728 77.3682 17.952C77.3682 16.176 77.9122 14.696 79.0002 13.512C80.1042 12.312 81.5602 11.712 83.3682 11.712C85.1762 11.712 86.6242 12.312 87.7122 13.512C88.8162 14.696 89.3682 16.176 89.3682 17.952C89.3682 19.728 88.8162 21.216 87.7122 22.416C86.6242 23.6 85.1762 24.192 83.3682 24.192C81.5602 24.192 80.1042 23.6 79.0002 22.416ZM85.8162 20.808C86.4082 20.024 86.7042 19.072 86.7042 17.952C86.7042 16.832 86.4082 15.88 85.8162 15.096C85.2242 14.312 84.4082 13.92 83.3682 13.92C82.3122 13.92 81.4882 14.312 80.8962 15.096C80.3042 15.88 80.0082 16.832 80.0082 17.952C80.0082 19.072 80.3042 20.024 80.8962 20.808C81.4882 21.592 82.3122 21.984 83.3682 21.984C84.4082 21.984 85.2242 21.592 85.8162 20.808Z" fill="#4169F4"/>
<path d="M92.1495 24V11.904H94.6935V14.016C95.1415 13.296 95.7015 12.736 96.3735 12.336C97.0615 11.92 97.7895 11.712 98.5575 11.712C99.6935 11.712 100.598 12.04 101.27 12.696C101.942 13.352 102.278 14.272 102.278 15.456V24H99.7575V16.128C99.7575 14.656 99.1015 13.92 97.7895 13.92C96.9255 13.92 96.1895 14.384 95.5815 15.312C94.9895 16.24 94.6935 17.48 94.6935 19.032V24H92.1495Z" fill="#4169F4"/>
<rect width="32" height="32" rx="4" fill="#4169F4"/>
<path fill-rule="evenodd" clip-rule="evenodd" d="M16 5C11.5702 5 9.09533 6.54933 7.94234 7.59296C7.2263 8.24108 7 9.13961 7 9.90833V16C7 18.5751 8.27689 20.7594 9.75258 22.4299C11.2336 24.1063 12.9974 25.3609 14.1707 26.0984C15.2955 26.8053 16.7045 26.8053 17.8293 26.0984C19.0026 25.3609 20.7664 24.1063 22.2474 22.4299C23.7231 20.7594 25 18.5751 25 16V9.90833C25 9.13961 24.7737 8.24108 24.0577 7.59296C22.9047 6.54933 20.4298 5 16 5ZM9.28449 9.07574C10.0843 8.35175 12.0856 7 16 7C19.9144 7 21.9157 8.35175 22.7155 9.07574C22.8777 9.22254 23 9.4925 23 9.90833V14.1437C22.9671 14.1794 22.9294 14.2189 22.8866 14.2616C22.658 14.4903 22.2843 14.8132 21.7355 15.1425C20.6456 15.7965 18.8243 16.5 16 16.5C13.1757 16.5 11.3544 15.7965 10.2645 15.1425C9.71567 14.8132 9.34202 14.4903 9.11336 14.2616C9.07058 14.2189 9.03286 14.1794 9 14.1437V9.90833C9 9.49249 9.12231 9.22254 9.28449 9.07574ZM9.04802 16.7419C9.25537 18.3465 10.115 19.8193 11.2515 21.1057C12.5557 22.5821 14.1432 23.7189 15.235 24.405C15.7092 24.7031 16.2908 24.7031 16.765 24.405C17.8568 23.7189 19.4443 22.5821 20.7485 21.1057C21.885 19.8193 22.7446 18.3465 22.952 16.7419C22.8911 16.7804 22.8287 16.819 22.7645 16.8575C21.3544 17.7035 19.1757 18.5 16 18.5C12.8243 18.5 10.6456 17.7035 9.2355 16.8575C9.17134 16.819 9.10886 16.7804 9.04802 16.7419Z" fill="white"/>
</svg>
