<svg width="11" height="8" viewBox="0 0 11 8" fill="none" xmlns="http://www.w3.org/2000/svg">
<path d="M4.25019 7.75005C4.01895 7.75105 3.79468 7.67089 3.61644 7.52355L0.209694 4.59405C0.136001 4.52993 0.0900538 4.43972 0.081521 4.34241C0.0729882 4.2451 0.102535 4.14827 0.163944 4.0723L0.954944 3.10405C0.986674 3.06516 1.02589 3.03303 1.07027 3.00958C1.11464 2.98612 1.16328 2.97181 1.21329 2.9675C1.26329 2.96318 1.31366 2.96896 1.3614 2.98447C1.40913 2.99998 1.45327 3.02492 1.49119 3.0578L4.15019 5.3663L8.42519 0.673552C8.4917 0.600382 8.58441 0.556441 8.68316 0.551291C8.7819 0.546141 8.87868 0.580198 8.95244 0.646052L9.88444 1.48255C9.92123 1.51554 9.95113 1.55547 9.97243 1.60006C9.99374 1.64464 10.006 1.69299 10.0086 1.74234C10.0111 1.79168 10.0039 1.84104 9.98732 1.88759C9.97074 1.93413 9.94512 1.97694 9.91194 2.01355L4.99519 7.4183C4.90092 7.52237 4.78597 7.60563 4.65768 7.66276C4.5294 7.71988 4.39062 7.74961 4.25019 7.75005Z" fill="#644BEC"/>
</svg>
