<svg width="32" height="32" viewBox="0 0 32 32" fill="none" xmlns="http://www.w3.org/2000/svg">
<circle cx="16" cy="16" r="16" fill="#4E6297"/>
<path d="M23.2001 11.055C23.2001 9.85704 22.1431 8.80005 20.9452 8.80005H11.855C10.6571 8.80005 9.6001 9.85704 9.6001 11.055V20.1451C9.6001 21.343 10.6571 22.4 11.855 22.4H16.4353V17.256H14.7441V15.0011H16.4353V14.085C16.4353 12.5348 17.5628 11.1959 18.9721 11.1959H20.8042V13.4508H18.9721C18.7607 13.4508 18.5493 13.6622 18.5493 14.085V15.0011H20.8042V17.256H18.5493V22.4H20.9452C22.1431 22.4 23.2001 21.343 23.2001 20.1451V11.055Z" fill="white"/>
</svg>
