<svg width="18" height="18" viewBox="0 0 18 18" fill="none" xmlns="http://www.w3.org/2000/svg">
<path d="M7.8748 14.6251C7.52793 14.6266 7.19153 14.5063 6.92418 14.2853L1.81405 9.89108C1.70351 9.79489 1.63459 9.65958 1.62179 9.51361C1.60899 9.36765 1.65331 9.22241 1.74543 9.10845L2.93193 7.65608C2.97952 7.59774 3.03835 7.54955 3.10491 7.51436C3.17148 7.47918 3.24443 7.45772 3.31944 7.45125C3.39445 7.44478 3.47 7.45343 3.54161 7.4767C3.61321 7.49997 3.67942 7.53737 3.7363 7.5867L7.7248 11.0495L14.1373 4.01033C14.2371 3.90057 14.3761 3.83466 14.5243 3.82694C14.6724 3.81921 14.8175 3.8703 14.9282 3.96908L16.3262 5.22383C16.3814 5.27331 16.4262 5.33321 16.4582 5.40008C16.4901 5.46696 16.5085 5.53949 16.5124 5.6135C16.5162 5.68752 16.5054 5.76156 16.4805 5.83138C16.4556 5.9012 16.4172 5.96541 16.3674 6.02033L8.9923 14.1275C8.85089 14.2836 8.67846 14.4084 8.48604 14.4941C8.29362 14.5798 8.08544 14.6244 7.8748 14.6251Z" fill="#48C95F"/>
</svg>
