<svg width="24" height="24" viewBox="0 0 24 24" fill="none" xmlns="http://www.w3.org/2000/svg">
<path d="M12 0.799999C5.81485 0.799999 0.800049 5.8148 0.800049 12C0.800049 18.1852 5.81485 23.2 12 23.2C18.1852 23.2 23.2 18.1852 23.2 12C23.2 5.8148 18.1852 0.799999 12 0.799999ZM17.6 12.9333H12.9334V17.6C12.9334 18.1161 12.5152 18.5333 12 18.5333C11.4848 18.5333 11.0667 18.1161 11.0667 17.6V12.9333H6.40005C5.88485 12.9333 5.46672 12.5161 5.46672 12C5.46672 11.4839 5.88485 11.0667 6.40005 11.0667H11.0667V6.4C11.0667 5.88387 11.4848 5.46667 12 5.46667C12.5152 5.46667 12.9334 5.88387 12.9334 6.4V11.0667H17.6C18.1152 11.0667 18.5334 11.4839 18.5334 12C18.5334 12.5161 18.1152 12.9333 17.6 12.9333Z" fill="#644BEC"/>
</svg>
