<svg width="110" height="110" viewBox="0 0 110 110" fill="none" xmlns="http://www.w3.org/2000/svg">
<path d="M5.12033 8.16656C5.5491 6.6954 6.70455 5.60148 8.18838 5.21886C14.0896 3.69721 30.8794 0 54.7059 0C78.5323 0 95.3222 3.69721 101.223 5.21887C102.707 5.60148 103.863 6.69539 104.291 8.16656C105.868 13.5759 109.412 28.6347 109.412 54.7059C109.412 80.6658 105.898 95.7071 104.312 101.175C103.873 102.688 102.67 103.799 101.139 104.17C94.9222 105.677 77.2434 109.412 54.7059 109.412C32.1683 109.412 14.4896 105.677 8.27236 104.17C6.74135 103.799 5.53897 102.688 5.10003 101.175C3.51359 95.7071 0 80.6658 0 54.7059C0 28.6347 3.54379 13.5759 5.12033 8.16656Z" fill="#FDABAB"/>
</svg>
