<svg width="185" height="58" viewBox="0 0 185 58" fill="none" xmlns="http://www.w3.org/2000/svg">
<path d="M21.6101 32.0309H12.4669V36.4752C12.4669 38.4166 12.3613 39.6498 12.1518 40.1753C11.9418 40.7009 11.4964 40.9631 10.8162 40.9631C10.1063 40.9631 9.65042 40.7015 9.44778 40.1772C9.24453 39.6529 9.14384 38.5322 9.14384 36.8138V20.3894C9.14384 18.5984 9.24453 17.4342 9.44778 16.8949C9.65042 16.3563 10.128 16.0873 10.881 16.0873C11.547 16.0873 11.9782 16.3091 12.1735 16.752C12.3687 17.195 12.4669 18.3101 12.4669 20.0974V26.2428H21.6101V22.8837C21.6101 19.583 21.3352 17.1515 20.7854 15.5885C20.2349 14.0254 19.0834 12.7202 17.332 11.6734C15.5799 10.626 13.3571 10.1029 10.6642 10.1029C8.67988 10.1029 6.92475 10.4415 5.39697 11.118C3.86919 11.7952 2.67501 12.7233 1.81382 13.903C0.952006 15.0821 0.434303 16.3091 0.260706 17.5833C0.0871083 18.8574 0 20.7684 0 23.3161V33.6467C0 37.112 0.28233 39.7075 0.846985 41.4327C1.41164 43.1585 2.56257 44.5091 4.3004 45.4845C6.03761 46.4598 8.24557 46.9475 10.9249 46.9475C13.5017 46.9475 15.6701 46.3716 17.4296 45.2198C19.189 44.068 20.3251 42.7261 20.8391 41.1948C21.3531 39.664 21.6101 37.0685 21.6101 33.4088V32.0309Z" fill="#742DDB"/>
<path d="M45.9138 10.8453H36.7706V23.4907H34.0338V10.8453H24.8899V46.2051H34.0338V31.3537H36.7706V46.2051H45.9138V10.8453Z" fill="#742DDB"/>
<path d="M65.4395 39.1285H58.7279V31.3537H64.4405V24.6269H58.7279V17.9218H64.831V10.8453H49.5846V46.2051H65.4395V39.1285Z" fill="#742DDB"/>
<path d="M89.4169 32.0309H80.2731V36.4752C80.2731 38.4166 80.1681 39.6498 79.9587 40.1753C79.7486 40.7009 79.3032 40.9631 78.623 40.9631C77.9132 40.9631 77.4572 40.7015 77.2546 40.1772C77.0514 39.6529 76.9507 38.5322 76.9507 36.8138V20.3894C76.9507 18.5984 77.0514 17.4342 77.2546 16.8949C77.4572 16.3563 77.9348 16.0873 78.6879 16.0873C79.3539 16.0873 79.7844 16.3091 79.9803 16.752C80.1755 17.195 80.2731 18.3101 80.2731 20.0974V26.2428H89.4169V22.8837C89.4169 19.583 89.142 17.1515 88.5916 15.5885C88.0412 14.0254 86.8902 12.7202 85.1382 11.6734C83.3861 10.626 81.164 10.1029 78.4704 10.1029C76.4867 10.1029 74.7316 10.4415 73.2038 11.118C71.676 11.7952 70.4812 12.7233 69.62 13.903C68.7588 15.0821 68.2411 16.3091 68.0675 17.5833C67.8933 18.8574 67.8068 20.7684 67.8068 23.3161V33.6467C67.8068 37.112 68.0892 39.7075 68.6538 41.4327C69.2185 43.1585 70.3694 44.5091 72.1072 45.4845C73.8444 46.4598 76.0524 46.9475 78.7311 46.9475C81.3085 46.9475 83.477 46.3716 85.2364 45.2198C86.9952 44.068 88.132 42.7261 88.646 41.1948C89.16 39.664 89.4169 37.0685 89.4169 33.4088V32.0309Z" fill="#742DDB"/>
<path d="M114.492 10.8453H105.912L101.841 24.5828V10.8453H92.6968V46.2051H101.841V31.0481L105.544 46.2051H114.991L109.247 26.8106L114.492 10.8453Z" fill="#742DDB"/>
<path d="M132.421 39.1285H125.709V31.3537H131.421V24.6269H125.709V17.9218H131.812V10.8453H116.566V46.2051H132.421V39.1285Z" fill="#742DDB"/>
<path fill-rule="evenodd" clip-rule="evenodd" d="M156.225 23.3161C156.225 19.9676 156.124 17.7218 155.921 16.5787C155.718 15.4356 155.211 14.3982 154.4 13.4663C153.589 12.5344 152.406 11.8647 150.849 11.4566C149.293 11.0497 146.306 10.8453 141.89 10.8453H135.049V46.2051H146.581C148.768 46.2051 150.404 46.0852 151.49 45.8448C152.576 45.6044 153.488 45.1825 154.226 44.5781C154.965 43.9742 155.483 43.1368 155.779 42.0664C156.076 40.996 156.225 38.8745 156.225 35.6999V23.3161ZM144.192 16.8949V40.1555C145.51 40.1555 146.321 39.8896 146.625 39.3584C146.929 38.8266 147.081 37.3816 147.081 35.0228V21.2852C147.081 19.6837 147.03 18.6568 146.929 18.2058C146.828 17.7541 146.596 17.423 146.234 17.2118C145.872 17.0012 145.191 16.8949 144.192 16.8949Z" fill="#742DDB"/>
<path d="M176.193 46.6536L162.213 44.1774L160.225 55.5237L174.205 58L176.193 46.6536Z" fill="#742DDB"/>
<path d="M163.929 41.5669L175.468 43.6114L185 2.39081L168.925 0L163.929 41.5669Z" fill="#742DDB"/>
</svg>
