<svg width="128" height="136" viewBox="0 0 128 136" fill="none" xmlns="http://www.w3.org/2000/svg">
<g filter="url(#filter0_d_118:5684)">
<path d="M36.4524 81.7896H107.227V95.1705C107.227 95.1705 99.925 106.727 71.8398 106.727C43.7546 106.727 36.4524 95.1705 36.4524 95.1705V81.7896Z" fill="#C6C6C6"/>
<path fill-rule="evenodd" clip-rule="evenodd" d="M57.2347 81.7915H39.5964V98.3373C42.6005 100.703 48.0608 103.81 57.2347 105.501V81.7915ZM86.4434 105.501C95.6161 103.81 101.076 100.704 104.08 98.338V81.7915H86.4434V105.501Z" fill="#761018"/>
<g filter="url(#filter1_ii_118:5684)">
<ellipse cx="71.8398" cy="82.3125" rx="16.3355" ry="35.3874" transform="rotate(-90 71.8398 82.3125)" fill="url(#paint0_linear_118:5684)"/>
</g>
<mask id="mask0_118:5684" style="mask-type:alpha" maskUnits="userSpaceOnUse" x="36" y="65" width="72" height="34">
<ellipse cx="71.8398" cy="82.3125" rx="16.3355" ry="35.3874" transform="rotate(-90 71.8398 82.3125)" fill="url(#paint1_linear_118:5684)"/>
</mask>
<g mask="url(#mask0_118:5684)">
<g filter="url(#filter2_ii_118:5684)">
<path fill-rule="evenodd" clip-rule="evenodd" d="M39.1601 89.1306C37.1169 87.0474 35.9824 84.7363 35.9824 82.3104C35.9824 79.8846 37.1169 77.5735 39.1601 75.4903L50.1886 77.7952C48.8416 79.1686 48.0886 80.6952 48.0886 82.3104C48.0886 83.9257 48.8416 85.4523 50.1886 86.8257L39.1601 89.1306ZM57.0609 67.2269C61.5737 66.2838 66.5803 65.7601 71.8354 65.7601C77.0906 65.7601 82.0971 66.2838 86.61 67.2269L81.6167 72.3179C78.6416 71.6961 75.3346 71.3485 71.8354 71.3485C68.3362 71.3485 65.0292 71.6961 62.0541 72.3179L57.0609 67.2269ZM71.8354 98.8608C66.5803 98.8608 61.5737 98.3371 57.0609 97.394L62.0541 92.303C65.0292 92.9248 68.3362 93.2724 71.8354 93.2724C75.3346 93.2724 78.6416 92.9248 81.6167 92.303L86.61 97.394C82.0972 98.3371 77.0906 98.8608 71.8354 98.8608ZM107.688 82.3104C107.688 84.7363 106.554 87.0474 104.511 89.1306L93.4822 86.8257C94.8292 85.4523 95.5822 83.9257 95.5822 82.3104C95.5822 80.6952 94.8292 79.1686 93.4822 77.7952L104.511 75.4903C106.554 77.5734 107.688 79.8846 107.688 82.3104Z" fill="url(#paint2_linear_118:5684)"/>
</g>
</g>
<ellipse cx="71.8375" cy="82.3134" rx="11.1769" ry="28.4987" transform="rotate(-90 71.8375 82.3134)" fill="url(#paint3_linear_118:5684)"/>
<path fill-rule="evenodd" clip-rule="evenodd" d="M43.5473 83.9929C43.3278 83.4456 43.2141 82.8854 43.2141 82.3154C43.2141 81.7454 43.3278 81.1852 43.5473 80.6379C43.6885 80.2859 44.5479 80.0444 45.4668 80.0985C46.3858 80.1526 47.0163 80.4818 46.8751 80.8338C46.6815 81.3164 46.5809 81.8112 46.5809 82.3154C46.5809 82.8196 46.6815 83.3144 46.8751 83.797C47.0163 84.149 46.3858 84.4782 45.4668 84.5323C44.5479 84.5864 43.6885 84.3449 43.5473 83.9929ZM49.0989 76.7424C48.349 76.5319 48.1867 76.1284 48.7364 75.8412C50.4718 74.9343 52.5624 74.1335 54.93 73.4687C55.6798 73.2582 56.7333 73.3204 57.2829 73.6076C57.8326 73.8948 57.6703 74.2983 56.9204 74.5089C54.8301 75.0958 52.984 75.8029 51.4518 76.6036C50.9022 76.8908 49.8487 76.953 49.0989 76.7424ZM49.0989 87.8884C49.8487 87.6778 50.9022 87.74 51.4518 88.0272C52.984 88.8279 54.8301 89.535 56.9204 90.1219C57.6703 90.3325 57.8326 90.736 57.2829 91.0232C56.7333 91.3104 55.6799 91.3726 54.93 91.1621C52.5624 90.4973 50.4718 89.6965 48.7364 88.7896C48.1867 88.5024 48.349 88.0989 49.0989 87.8884ZM66.0446 72.2163C65.9034 71.8644 66.5339 71.5352 67.4528 71.4811C68.8815 71.397 70.3441 71.3535 71.8321 71.3535C73.3202 71.3535 74.7827 71.397 76.2114 71.4811C77.1304 71.5352 77.7609 71.8644 77.6197 72.2163C77.4785 72.5683 76.6191 72.8099 75.7001 72.7558C74.4401 72.6816 73.1484 72.6431 71.8321 72.6431C70.5158 72.6431 69.2242 72.6816 67.9641 72.7558C67.0451 72.8099 66.1857 72.5683 66.0446 72.2163ZM66.0446 92.4144C66.1857 92.0625 67.0451 91.8209 67.9641 91.875C69.2242 91.9492 70.5158 91.9877 71.8321 91.9877C73.1484 91.9877 74.4401 91.9492 75.7002 91.875C76.6191 91.8209 77.4785 92.0625 77.6197 92.4144C77.7609 92.7664 77.1304 93.0956 76.2114 93.1497C74.7827 93.2338 73.3202 93.2773 71.8321 93.2773C70.3441 93.2773 68.8815 93.2338 67.4528 93.1497C66.5339 93.0956 65.9034 92.7664 66.0446 92.4144ZM86.3813 73.6076C86.9309 73.3204 87.9844 73.2582 88.7342 73.4687C91.1018 74.1335 93.1924 74.9343 94.9279 75.8412C95.4775 76.1284 95.3152 76.5319 94.5653 76.7424C93.8155 76.953 92.762 76.8908 92.2124 76.6036C90.6802 75.8029 88.8341 75.0958 86.7438 74.5089C85.994 74.2983 85.8316 73.8948 86.3813 73.6076ZM86.3813 91.0232C85.8316 90.736 85.994 90.3325 86.7438 90.1219C88.8341 89.535 90.6802 88.8279 92.2124 88.0272C92.762 87.74 93.8155 87.6778 94.5653 87.8884C95.3152 88.0989 95.4775 88.5024 94.9279 88.7896C93.1924 89.6965 91.1018 90.4973 88.7342 91.1621C87.9844 91.3726 86.9309 91.3104 86.3813 91.0232ZM98.1974 80.0985C99.1163 80.0444 99.9757 80.2859 100.117 80.6379C100.336 81.1852 100.45 81.7454 100.45 82.3154C100.45 82.8854 100.336 83.4456 100.117 83.9929C99.9757 84.3449 99.1163 84.5864 98.1974 84.5323C97.2784 84.4782 96.6479 84.149 96.7891 83.797C96.9827 83.3144 97.0833 82.8196 97.0833 82.3154C97.0833 81.8112 96.9827 81.3164 96.7891 80.8338C96.6479 80.4818 97.2784 80.1526 98.1974 80.0985Z" fill="url(#paint4_linear_118:5684)"/>
<ellipse cx="71.8403" cy="82.3095" rx="9.88724" ry="26.2593" transform="rotate(-90 71.8403 82.3095)" fill="url(#paint5_linear_118:5684)"/>
</g>
<g filter="url(#filter3_d_118:5684)">
<path d="M38.6992 72.0576H109.474V85.4386C109.474 85.4386 102.172 96.9949 74.0866 96.9949C46.0014 96.9949 38.6992 85.4386 38.6992 85.4386V72.0576Z" fill="#C6C6C6"/>
<path fill-rule="evenodd" clip-rule="evenodd" d="M59.4835 72.0615H41.8452V88.6074C44.8493 90.9734 50.3096 94.0801 59.4835 95.7715V72.0615ZM88.6922 95.7714C97.8649 94.0801 103.325 90.9739 106.329 88.608V72.0615H88.6922V95.7714Z" fill="#761018"/>
<g filter="url(#filter4_ii_118:5684)">
<ellipse cx="74.0866" cy="72.5806" rx="16.3354" ry="35.3874" transform="rotate(-90 74.0866 72.5806)" fill="url(#paint6_linear_118:5684)"/>
</g>
<mask id="mask1_118:5684" style="mask-type:alpha" maskUnits="userSpaceOnUse" x="38" y="56" width="72" height="33">
<ellipse cx="74.0866" cy="72.5806" rx="16.3354" ry="35.3874" transform="rotate(-90 74.0866 72.5806)" fill="url(#paint7_linear_118:5684)"/>
</mask>
<g mask="url(#mask1_118:5684)">
<g filter="url(#filter5_ii_118:5684)">
<path fill-rule="evenodd" clip-rule="evenodd" d="M41.4106 79.3992C39.3674 77.316 38.2329 75.0049 38.2329 72.579C38.2329 70.1531 39.3674 67.842 41.4106 65.7588L52.4391 68.0638C51.0921 69.4371 50.3391 70.9637 50.3391 72.579C50.3391 74.1943 51.0921 75.7209 52.4391 77.0942L41.4106 79.3992ZM59.3114 57.4955C63.8242 56.5523 68.8308 56.0286 74.0859 56.0286C79.3411 56.0286 84.3477 56.5523 88.8605 57.4955L83.8672 62.5864C80.8921 61.9646 77.5851 61.6171 74.0859 61.6171C70.5867 61.6171 67.2797 61.9646 64.3046 62.5864L59.3114 57.4955ZM74.0859 89.1294C68.8308 89.1294 63.8242 88.6057 59.3114 87.6625L64.3046 82.5716C67.2797 83.1934 70.5867 83.541 74.0859 83.541C77.5851 83.541 80.8921 83.1934 83.8673 82.5716L88.8605 87.6625C84.3477 88.6057 79.3411 89.1294 74.0859 89.1294ZM109.939 72.579C109.939 75.0049 108.804 77.316 106.761 79.3992L95.7327 77.0942C97.0798 75.7209 97.8327 74.1943 97.8327 72.579C97.8327 70.9637 97.0798 69.4371 95.7327 68.0638L106.761 65.7588C108.804 67.842 109.939 70.1531 109.939 72.579Z" fill="url(#paint8_linear_118:5684)"/>
</g>
</g>
<ellipse cx="74.0807" cy="72.58" rx="11.1769" ry="28.4987" transform="rotate(-90 74.0807 72.58)" fill="url(#paint9_linear_118:5684)"/>
<path fill-rule="evenodd" clip-rule="evenodd" d="M45.7951 74.2575C45.5756 73.7103 45.4619 73.15 45.4619 72.58C45.4619 72.0101 45.5756 71.4498 45.7951 70.9026C45.9363 70.5506 46.7957 70.3091 47.7146 70.3632C48.6336 70.4172 49.2641 70.7464 49.1229 71.0984C48.9293 71.5811 48.8287 72.0759 48.8287 72.58C48.8287 73.0842 48.9293 73.579 49.1229 74.0617C49.2641 74.4137 48.6336 74.7429 47.7146 74.7969C46.7957 74.851 45.9363 74.6095 45.7951 74.2575ZM51.3467 67.0071C50.5968 66.7965 50.4345 66.393 50.9842 66.1058C52.7196 65.1989 54.8102 64.3981 57.1778 63.7334C57.9277 63.5228 58.9811 63.585 59.5307 63.8722C60.0804 64.1595 59.9181 64.563 59.1682 64.7735C57.0779 65.3604 55.2318 66.0675 53.6996 66.8682C53.15 67.1554 52.0966 67.2176 51.3467 67.0071ZM51.3467 78.153C52.0966 77.9425 53.15 78.0047 53.6996 78.2919C55.2318 79.0926 57.0779 79.7997 59.1682 80.3866C59.9181 80.5971 60.0804 81.0006 59.5307 81.2879C58.9811 81.5751 57.9277 81.6373 57.1778 81.4267C54.8102 80.762 52.7196 79.9612 50.9842 79.0543C50.4345 78.7671 50.5968 78.3636 51.3467 78.153ZM68.2924 62.481C68.1512 62.129 68.7817 61.7998 69.7006 61.7457C71.1293 61.6617 72.5919 61.6181 74.0799 61.6181C75.568 61.6181 77.0306 61.6617 78.4592 61.7457C79.3782 61.7998 80.0087 62.129 79.8675 62.481C79.7263 62.833 78.8669 63.0745 77.948 63.0204C76.6879 62.9463 75.3962 62.9077 74.0799 62.9077C72.7636 62.9077 71.472 62.9463 70.2119 63.0204C69.2929 63.0745 68.4335 62.833 68.2924 62.481ZM68.2924 82.6791C68.4336 82.3271 69.293 82.0856 70.2119 82.1397C71.472 82.2138 72.7636 82.2524 74.0799 82.2524C75.3962 82.2524 76.6879 82.2138 77.948 82.1397C78.8669 82.0856 79.7263 82.3271 79.8675 82.6791C80.0087 83.0311 79.3782 83.3603 78.4592 83.4144C77.0306 83.4984 75.568 83.542 74.0799 83.542C72.5919 83.542 71.1293 83.4984 69.7006 83.4144C68.7817 83.3603 68.1512 83.0311 68.2924 82.6791ZM88.6291 63.8722C89.1787 63.585 90.2322 63.5228 90.982 63.7334C93.3496 64.3981 95.4402 65.1989 97.1757 66.1058C97.7253 66.393 97.563 66.7965 96.8132 67.0071C96.0633 67.2176 95.0099 67.1554 94.4602 66.8682C92.928 66.0675 91.0819 65.3604 88.9916 64.7735C88.2418 64.563 88.0795 64.1595 88.6291 63.8722ZM88.6291 81.2879C88.0795 81.0006 88.2418 80.5971 88.9916 80.3866C91.0819 79.7997 92.928 79.0926 94.4602 78.2919C95.0099 78.0046 96.0633 77.9425 96.8132 78.153C97.563 78.3636 97.7253 78.7671 97.1757 79.0543C95.4402 79.9612 93.3496 80.762 90.982 81.4267C90.2322 81.6373 89.1787 81.5751 88.6291 81.2879ZM100.445 70.3632C101.364 70.3091 102.224 70.5506 102.365 70.9026C102.584 71.4498 102.698 72.0101 102.698 72.58C102.698 73.15 102.584 73.7103 102.365 74.2575C102.224 74.6095 101.364 74.851 100.445 74.7969C99.5263 74.7429 98.8958 74.4137 99.037 74.0617C99.2305 73.579 99.3311 73.0842 99.3311 72.58C99.3311 72.0759 99.2305 71.5811 99.0369 71.0984C98.8958 70.7464 99.5263 70.4172 100.445 70.3632Z" fill="url(#paint10_linear_118:5684)"/>
<ellipse cx="74.0881" cy="72.5781" rx="9.88724" ry="26.2593" transform="rotate(-90 74.0881 72.5781)" fill="url(#paint11_linear_118:5684)"/>
</g>
<g filter="url(#filter6_d_118:5684)">
<path d="M38.6992 62.3252L109.474 62.3252V75.7062C109.474 75.7062 102.172 87.2625 74.0866 87.2625C46.0014 87.2625 38.6992 75.7062 38.6992 75.7062V62.3252Z" fill="#C6C6C6"/>
<path fill-rule="evenodd" clip-rule="evenodd" d="M59.4835 62.3247H41.8452V78.8706C44.8493 81.2366 50.3096 84.3432 59.4835 86.0347V62.3247ZM88.6922 86.0345C97.8649 84.3432 103.325 81.2371 106.329 78.8712V62.3247L88.6922 62.3247V86.0345Z" fill="#761018"/>
<g filter="url(#filter7_ii_118:5684)">
<ellipse cx="74.0866" cy="62.8482" rx="16.3354" ry="35.3874" transform="rotate(-90 74.0866 62.8482)" fill="url(#paint12_linear_118:5684)"/>
</g>
<mask id="mask2_118:5684" style="mask-type:alpha" maskUnits="userSpaceOnUse" x="38" y="46" width="72" height="34">
<ellipse cx="74.0866" cy="62.8482" rx="16.3354" ry="35.3874" transform="rotate(-90 74.0866 62.8482)" fill="url(#paint13_linear_118:5684)"/>
</mask>
<g mask="url(#mask2_118:5684)">
<g filter="url(#filter8_ii_118:5684)">
<path fill-rule="evenodd" clip-rule="evenodd" d="M41.4106 69.6653C39.3674 67.5821 38.2329 65.271 38.2329 62.8451C38.2329 60.4192 39.3674 58.1081 41.4106 56.0249L52.4391 58.3299C51.0921 59.7033 50.3391 61.2298 50.3391 62.8451C50.3391 64.4604 51.0921 65.987 52.4391 67.3604L41.4106 69.6653ZM59.3114 47.7616C63.8242 46.8184 68.8308 46.2947 74.0859 46.2947C79.3411 46.2947 84.3477 46.8184 88.8605 47.7616L83.8672 52.8526C80.8921 52.2308 77.5851 51.8832 74.0859 51.8832C70.5867 51.8832 67.2797 52.2308 64.3046 52.8526L59.3114 47.7616ZM74.0859 79.3955C68.8308 79.3955 63.8242 78.8718 59.3114 77.9286L64.3046 72.8377C67.2797 73.4595 70.5867 73.8071 74.0859 73.8071C77.5851 73.8071 80.8921 73.4595 83.8673 72.8377L88.8605 77.9286C84.3477 78.8718 79.3411 79.3955 74.0859 79.3955ZM109.939 62.8451C109.939 65.271 108.804 67.5821 106.761 69.6653L95.7327 67.3603C97.0798 65.987 97.8327 64.4604 97.8327 62.8451C97.8327 61.2298 97.0798 59.7033 95.7327 58.3299L106.761 56.0249C108.804 58.1081 109.939 60.4192 109.939 62.8451Z" fill="url(#paint14_linear_118:5684)"/>
</g>
</g>
<ellipse cx="74.0807" cy="62.8461" rx="11.1769" ry="28.4987" transform="rotate(-90 74.0807 62.8461)" fill="url(#paint15_linear_118:5684)"/>
<path fill-rule="evenodd" clip-rule="evenodd" d="M45.7951 64.5256C45.5756 63.9783 45.4619 63.4181 45.4619 62.8481C45.4619 62.2781 45.5756 61.7179 45.7951 61.1707C45.9363 60.8187 46.7957 60.5771 47.7146 60.6312C48.6336 60.6853 49.2641 61.0145 49.1229 61.3665C48.9293 61.8492 48.8287 62.3439 48.8287 62.8481C48.8287 63.3523 48.9293 63.8471 49.1229 64.3297C49.2641 64.6817 48.6336 65.0109 47.7146 65.065C46.7957 65.1191 45.9363 64.8776 45.7951 64.5256ZM51.3467 57.2751C50.5968 57.0646 50.4345 56.6611 50.9842 56.3739C52.7196 55.467 54.8102 54.6662 57.1778 54.0014C57.9277 53.7909 58.9811 53.8531 59.5307 54.1403C60.0804 54.4275 59.9181 54.831 59.1682 55.0416C57.0779 55.6285 55.2318 56.3356 53.6996 57.1363C53.15 57.4235 52.0966 57.4857 51.3467 57.2751ZM51.3467 68.4211C52.0966 68.2105 53.15 68.2727 53.6996 68.5599C55.2318 69.3606 57.0779 70.0678 59.1682 70.6547C59.9181 70.8652 60.0804 71.2687 59.5307 71.5559C58.9811 71.8432 57.9277 71.9053 57.1778 71.6948C54.8102 71.03 52.7196 70.2293 50.9842 69.3224C50.4345 69.0351 50.5968 68.6316 51.3467 68.4211ZM68.2924 52.7491C68.1512 52.3971 68.7817 52.0679 69.7006 52.0138C71.1293 51.9297 72.5919 51.8862 74.0799 51.8862C75.568 51.8862 77.0306 51.9297 78.4592 52.0138C79.3782 52.0679 80.0087 52.3971 79.8675 52.7491C79.7263 53.1011 78.8669 53.3426 77.948 53.2885C76.6879 53.2143 75.3962 53.1758 74.0799 53.1758C72.7636 53.1758 71.472 53.2143 70.2119 53.2885C69.2929 53.3426 68.4335 53.1011 68.2924 52.7491ZM68.2924 72.9472C68.4336 72.5952 69.293 72.3537 70.2119 72.4077C71.472 72.4819 72.7636 72.5204 74.0799 72.5204C75.3962 72.5204 76.6879 72.4819 77.948 72.4077C78.8669 72.3537 79.7263 72.5952 79.8675 72.9472C80.0087 73.2992 79.3782 73.6283 78.4592 73.6824C77.0306 73.7665 75.568 73.8101 74.0799 73.8101C72.5919 73.8101 71.1293 73.7665 69.7006 73.6824C68.7817 73.6283 68.1512 73.2992 68.2924 72.9472ZM88.6291 54.1403C89.1787 53.8531 90.2322 53.7909 90.982 54.0014C93.3496 54.6662 95.4402 55.467 97.1757 56.3739C97.7253 56.6611 97.563 57.0646 96.8132 57.2751C96.0633 57.4857 95.0099 57.4235 94.4602 57.1363C92.928 56.3356 91.0819 55.6285 88.9916 55.0416C88.2418 54.831 88.0795 54.4275 88.6291 54.1403ZM88.6291 71.5559C88.0795 71.2687 88.2418 70.8652 88.9916 70.6546C91.0819 70.0678 92.928 69.3606 94.4602 68.5599C95.0099 68.2727 96.0633 68.2105 96.8132 68.4211C97.563 68.6316 97.7253 69.0351 97.1757 69.3224C95.4402 70.2292 93.3496 71.03 90.982 71.6948C90.2322 71.9053 89.1787 71.8432 88.6291 71.5559ZM100.445 60.6312C101.364 60.5771 102.224 60.8187 102.365 61.1707C102.584 61.7179 102.698 62.2781 102.698 62.8481C102.698 63.4181 102.584 63.9783 102.365 64.5256C102.224 64.8776 101.364 65.1191 100.445 65.065C99.5263 65.0109 98.8958 64.6817 99.037 64.3297C99.2305 63.8471 99.3311 63.3523 99.3311 62.8481C99.3311 62.3439 99.2305 61.8492 99.0369 61.3665C98.8958 61.0145 99.5263 60.6853 100.445 60.6312Z" fill="url(#paint16_linear_118:5684)"/>
<ellipse cx="74.0881" cy="62.8462" rx="9.88725" ry="26.2593" transform="rotate(-90 74.0881 62.8462)" fill="url(#paint17_linear_118:5684)"/>
</g>
<g filter="url(#filter9_d_118:5684)">
<path d="M38.6992 51.3779L109.474 51.3779V64.7589C109.474 64.7589 102.172 76.3152 74.0866 76.3152C46.0014 76.3152 38.6992 64.7589 38.6992 64.7589V51.3779Z" fill="#C6C6C6"/>
<path fill-rule="evenodd" clip-rule="evenodd" d="M59.4835 51.3789H41.8452V67.9247C44.8493 70.2908 50.3096 73.3974 59.4835 75.0889V51.3789ZM88.6922 75.0887C97.8649 73.3974 103.325 70.2913 106.329 67.9254V51.3789L88.6922 51.3789V75.0887Z" fill="#761018"/>
<g filter="url(#filter10_ii_118:5684)">
<ellipse cx="74.0866" cy="51.9009" rx="16.3354" ry="35.3874" transform="rotate(-90 74.0866 51.9009)" fill="url(#paint18_linear_118:5684)"/>
</g>
<mask id="mask3_118:5684" style="mask-type:alpha" maskUnits="userSpaceOnUse" x="38" y="35" width="72" height="34">
<ellipse cx="74.0866" cy="51.9009" rx="16.3354" ry="35.3874" transform="rotate(-90 74.0866 51.9009)" fill="url(#paint19_linear_118:5684)"/>
</mask>
<g mask="url(#mask3_118:5684)">
<g filter="url(#filter11_ii_118:5684)">
<path fill-rule="evenodd" clip-rule="evenodd" d="M41.4106 58.7215C39.3674 56.6383 38.2329 54.3272 38.2329 51.9013C38.2329 49.4754 39.3674 47.1643 41.4106 45.0811L52.4391 47.386C51.0921 48.7594 50.3391 50.286 50.3391 51.9013C50.3391 53.5166 51.0921 55.0431 52.4391 56.4165L41.4106 58.7215ZM59.3114 36.8178C63.8242 35.8746 68.8308 35.3509 74.0859 35.3509C79.3411 35.3509 84.3477 35.8746 88.8605 36.8178L83.8672 41.9087C80.8921 41.2869 77.5851 40.9393 74.0859 40.9393C70.5867 40.9393 67.2797 41.2869 64.3046 41.9087L59.3114 36.8178ZM74.0859 68.4517C68.8308 68.4517 63.8242 67.928 59.3114 66.9848L64.3046 61.8938C67.2797 62.5156 70.5867 62.8632 74.0859 62.8632C77.5851 62.8632 80.8921 62.5156 83.8673 61.8938L88.8605 66.9848C84.3477 67.928 79.3411 68.4517 74.0859 68.4517ZM109.939 51.9013C109.939 54.3272 108.804 56.6383 106.761 58.7215L95.7327 56.4165C97.0798 55.0431 97.8327 53.5166 97.8327 51.9013C97.8327 50.286 97.0798 48.7594 95.7327 47.386L106.761 45.0811C108.804 47.1643 109.939 49.4754 109.939 51.9013Z" fill="url(#paint20_linear_118:5684)"/>
</g>
</g>
<ellipse cx="74.0807" cy="51.9042" rx="11.1769" ry="28.4987" transform="rotate(-90 74.0807 51.9042)" fill="url(#paint21_linear_118:5684)"/>
<path fill-rule="evenodd" clip-rule="evenodd" d="M45.7951 53.5798C45.5756 53.0325 45.4619 52.4723 45.4619 51.9023C45.4619 51.3323 45.5756 50.7721 45.7951 50.2249C45.9363 49.8729 46.7957 49.6313 47.7146 49.6854C48.6336 49.7395 49.2641 50.0687 49.1229 50.4207C48.9293 50.9034 48.8287 51.3981 48.8287 51.9023C48.8287 52.4065 48.9293 52.9013 49.1229 53.3839C49.2641 53.7359 48.6336 54.0651 47.7146 54.1192C46.7957 54.1733 45.9363 53.9318 45.7951 53.5798ZM51.3467 46.3293C50.5968 46.1188 50.4345 45.7153 50.9842 45.4281C52.7196 44.5212 54.8102 43.7204 57.1778 43.0556C57.9277 42.8451 58.9811 42.9073 59.5307 43.1945C60.0804 43.4817 59.9181 43.8852 59.1682 44.0958C57.0779 44.6827 55.2318 45.3898 53.6996 46.1905C53.15 46.4777 52.0966 46.5399 51.3467 46.3293ZM51.3467 57.4753C52.0966 57.2647 53.15 57.3269 53.6996 57.6141C55.2318 58.4148 57.0779 59.122 59.1682 59.7089C59.9181 59.9194 60.0804 60.3229 59.5307 60.6101C58.9811 60.8974 57.9277 60.9595 57.1778 60.749C54.8102 60.0842 52.7196 59.2834 50.9842 58.3766C50.4345 58.0893 50.5968 57.6858 51.3467 57.4753ZM68.2924 41.8033C68.1512 41.4513 68.7817 41.1221 69.7006 41.068C71.1293 40.9839 72.5919 40.9404 74.0799 40.9404C75.568 40.9404 77.0306 40.9839 78.4592 41.068C79.3782 41.1221 80.0087 41.4513 79.8675 41.8033C79.7263 42.1553 78.8669 42.3968 77.948 42.3427C76.6879 42.2685 75.3962 42.23 74.0799 42.23C72.7636 42.23 71.472 42.2685 70.2119 42.3427C69.2929 42.3968 68.4335 42.1553 68.2924 41.8033ZM68.2924 62.0014C68.4336 61.6494 69.293 61.4079 70.2119 61.4619C71.472 61.5361 72.7636 61.5746 74.0799 61.5746C75.3962 61.5746 76.6879 61.5361 77.948 61.4619C78.8669 61.4079 79.7263 61.6494 79.8675 62.0014C80.0087 62.3534 79.3782 62.6825 78.4592 62.7366C77.0306 62.8207 75.568 62.8643 74.0799 62.8643C72.5919 62.8643 71.1293 62.8207 69.7006 62.7366C68.7817 62.6825 68.1512 62.3534 68.2924 62.0014ZM88.6291 43.1945C89.1787 42.9073 90.2322 42.8451 90.982 43.0556C93.3496 43.7204 95.4402 44.5212 97.1757 45.4281C97.7253 45.7153 97.563 46.1188 96.8132 46.3293C96.0633 46.5399 95.0099 46.4777 94.4602 46.1905C92.928 45.3898 91.0819 44.6827 88.9916 44.0958C88.2418 43.8852 88.0795 43.4817 88.6291 43.1945ZM88.6291 60.6101C88.0795 60.3229 88.2418 59.9194 88.9916 59.7088C91.0819 59.122 92.928 58.4148 94.4602 57.6141C95.0099 57.3269 96.0633 57.2647 96.8132 57.4753C97.563 57.6858 97.7253 58.0893 97.1757 58.3766C95.4402 59.2834 93.3496 60.0842 90.982 60.749C90.2322 60.9595 89.1787 60.8974 88.6291 60.6101ZM100.445 49.6854C101.364 49.6313 102.224 49.8729 102.365 50.2248C102.584 50.7721 102.698 51.3323 102.698 51.9023C102.698 52.4723 102.584 53.0325 102.365 53.5798C102.224 53.9318 101.364 54.1733 100.445 54.1192C99.5263 54.0651 98.8958 53.7359 99.037 53.3839C99.2305 52.9013 99.3311 52.4065 99.3311 51.9023C99.3311 51.3981 99.2305 50.9034 99.0369 50.4207C98.8958 50.0687 99.5263 49.7395 100.445 49.6854Z" fill="url(#paint22_linear_118:5684)"/>
<ellipse cx="74.0881" cy="51.9004" rx="9.88725" ry="26.2593" transform="rotate(-90 74.0881 51.9004)" fill="url(#paint23_linear_118:5684)"/>
</g>
<g filter="url(#filter12_d_118:5684)">
<path d="M31.9585 36.7803L102.733 36.7803V50.1612C102.733 50.1612 95.4311 61.7175 67.3459 61.7175C39.2607 61.7175 31.9585 50.1612 31.9585 50.1612V36.7803Z" fill="#C6C6C6"/>
<path fill-rule="evenodd" clip-rule="evenodd" d="M52.7401 36.7842H35.1018V53.33C38.1059 55.696 43.5662 58.8027 52.7401 60.4941V36.7842ZM81.9488 60.494C91.1215 58.8027 96.5814 55.6966 99.5856 53.3307V36.7842L81.9488 36.7842V60.494Z" fill="#761018"/>
<g filter="url(#filter13_ii_118:5684)">
<ellipse cx="67.3459" cy="37.3032" rx="16.3354" ry="35.3874" transform="rotate(-90 67.3459 37.3032)" fill="url(#paint24_linear_118:5684)"/>
</g>
<mask id="mask4_118:5684" style="mask-type:alpha" maskUnits="userSpaceOnUse" x="31" y="20" width="72" height="34">
<ellipse cx="67.3459" cy="37.3032" rx="16.3354" ry="35.3874" transform="rotate(-90 67.3459 37.3032)" fill="url(#paint25_linear_118:5684)"/>
</mask>
<g mask="url(#mask4_118:5684)">
<g filter="url(#filter14_ii_118:5684)">
<path fill-rule="evenodd" clip-rule="evenodd" d="M34.6643 44.1233C32.6211 42.0401 31.4866 39.729 31.4866 37.3031C31.4866 34.8772 32.6211 32.5661 34.6643 30.4829L45.6928 32.7879C44.3458 34.1613 43.5928 35.6878 43.5928 37.3031C43.5928 38.9184 44.3458 40.445 45.6928 41.8184L34.6643 44.1233ZM52.565 22.2196C57.0779 21.2764 62.0844 20.7527 67.3396 20.7527C72.5948 20.7527 77.6013 21.2764 82.1141 22.2196L77.1209 27.3106C74.1458 26.6888 70.8388 26.3412 67.3396 26.3412C63.8404 26.3412 60.5334 26.6888 57.5583 27.3106L52.565 22.2196ZM67.3396 53.8535C62.0844 53.8535 57.0779 53.3298 52.5651 52.3866L57.5583 47.2957C60.5334 47.9175 63.8404 48.2651 67.3396 48.2651C70.8388 48.2651 74.1458 47.9175 77.1209 47.2957L82.1141 52.3866C77.6013 53.3298 72.5948 53.8535 67.3396 53.8535ZM103.193 37.3031C103.193 39.729 102.058 42.0401 100.015 44.1233L88.9864 41.8184C90.3334 40.445 91.0864 38.9184 91.0864 37.3031C91.0864 35.6878 90.3334 34.1613 88.9864 32.7879L100.015 30.4829C102.058 32.5661 103.193 34.8772 103.193 37.3031Z" fill="url(#paint26_linear_118:5684)"/>
</g>
</g>
<ellipse cx="67.341" cy="37.3026" rx="11.1769" ry="28.4987" transform="rotate(-90 67.341 37.3026)" fill="url(#paint27_linear_118:5684)"/>
<path fill-rule="evenodd" clip-rule="evenodd" d="M39.0534 38.9816C38.8339 38.4344 38.7202 37.8742 38.7202 37.3042C38.7202 36.7342 38.8339 36.1739 39.0534 35.6267C39.1946 35.2747 40.054 35.0332 40.9729 35.0873C41.8919 35.1414 42.5224 35.4705 42.3812 35.8225C42.1876 36.3052 42.087 36.8 42.087 37.3042C42.087 37.8084 42.1876 38.3031 42.3812 38.7858C42.5224 39.1378 41.8919 39.467 40.9729 39.5211C40.054 39.5751 39.1946 39.3336 39.0534 38.9816ZM44.605 31.7312C43.8551 31.5207 43.6928 31.1171 44.2425 30.8299C45.9779 29.923 48.0685 29.1222 50.4361 28.4575C51.186 28.247 52.2394 28.3091 52.789 28.5964C53.3387 28.8836 53.1764 29.2871 52.4265 29.4976C50.3362 30.0845 48.4901 30.7917 46.9579 31.5923C46.4083 31.8796 45.3548 31.9417 44.605 31.7312ZM44.605 42.8771C45.3549 42.6666 46.4083 42.7288 46.9579 43.016C48.4901 43.8167 50.3362 44.5238 52.4265 45.1107C53.1764 45.3212 53.3387 45.7248 52.789 46.012C52.2394 46.2992 51.186 46.3614 50.4361 46.1508C48.0685 45.4861 45.9779 44.6853 44.2425 43.7784C43.6928 43.4912 43.8551 43.0877 44.605 42.8771ZM61.5507 27.2051C61.4095 26.8531 62.04 26.5239 62.9589 26.4699C64.3876 26.3858 65.8502 26.3422 67.3382 26.3422C68.8263 26.3422 70.2888 26.3858 71.7175 26.4699C72.6365 26.5239 73.267 26.8531 73.1258 27.2051C72.9846 27.5571 72.1252 27.7986 71.2062 27.7445C69.9462 27.6704 68.6545 27.6319 67.3382 27.6319C66.0219 27.6319 64.7303 27.6704 63.4702 27.7445C62.5512 27.7986 61.6918 27.5571 61.5507 27.2051ZM61.5507 47.4032C61.6918 47.0512 62.5512 46.8097 63.4702 46.8638C64.7303 46.9379 66.0219 46.9765 67.3382 46.9765C68.6545 46.9765 69.9462 46.9379 71.2063 46.8638C72.1252 46.8097 72.9846 47.0512 73.1258 47.4032C73.267 47.7552 72.6365 48.0844 71.7175 48.1385C70.2888 48.2226 68.8263 48.2661 67.3382 48.2661C65.8502 48.2661 64.3876 48.2226 62.9589 48.1385C62.04 48.0844 61.4095 47.7552 61.5507 47.4032ZM81.8874 28.5964C82.437 28.3091 83.4905 28.247 84.2403 28.4575C86.6079 29.1222 88.6985 29.923 90.434 30.8299C90.9836 31.1171 90.8213 31.5207 90.0714 31.7312C89.3216 31.9417 88.2681 31.8796 87.7185 31.5923C86.1863 30.7917 84.3402 30.0845 82.2499 29.4976C81.5001 29.2871 81.3377 28.8836 81.8874 28.5964ZM81.8874 46.012C81.3377 45.7248 81.5001 45.3212 82.2499 45.1107C84.3402 44.5238 86.1863 43.8167 87.7185 43.016C88.2681 42.7288 89.3216 42.6666 90.0714 42.8771C90.8213 43.0877 90.9836 43.4912 90.434 43.7784C88.6985 44.6853 86.6079 45.4861 84.2403 46.1508C83.4905 46.3614 82.437 46.2992 81.8874 46.012ZM93.7035 35.0873C94.6224 35.0332 95.4818 35.2747 95.623 35.6267C95.8425 36.1739 95.9562 36.7342 95.9562 37.3042C95.9562 37.8742 95.8425 38.4344 95.623 38.9816C95.4818 39.3336 94.6224 39.5751 93.7035 39.5211C92.7845 39.467 92.154 39.1378 92.2952 38.7858C92.4888 38.3031 92.5894 37.8084 92.5894 37.3042C92.5894 36.8 92.4888 36.3052 92.2952 35.8225C92.154 35.4705 92.7845 35.1414 93.7035 35.0873Z" fill="url(#paint28_linear_118:5684)"/>
<ellipse cx="67.3435" cy="37.2983" rx="9.88724" ry="26.2593" transform="rotate(-90 67.3435 37.2983)" fill="url(#paint29_linear_118:5684)"/>
</g>
<g filter="url(#filter15_d_118:5684)">
<path d="M55.5505 104.902H126.325V118.283C126.325 118.283 119.023 129.839 90.9379 129.839C62.8527 129.839 55.5505 118.283 55.5505 118.283V104.902Z" fill="#C6C6C6"/>
<path fill-rule="evenodd" clip-rule="evenodd" d="M76.3349 104.904H58.6965V121.45C61.7006 123.816 67.1609 126.923 76.3349 128.614V104.904ZM105.543 128.614C114.716 126.923 120.176 123.817 123.18 121.451V104.904H105.543V128.614Z" fill="#761018"/>
<g filter="url(#filter16_ii_118:5684)">
<ellipse cx="90.9379" cy="105.425" rx="16.3354" ry="35.3874" transform="rotate(-90 90.9379 105.425)" fill="url(#paint30_linear_118:5684)"/>
</g>
<mask id="mask5_118:5684" style="mask-type:alpha" maskUnits="userSpaceOnUse" x="55" y="89" width="72" height="33">
<ellipse cx="90.9379" cy="105.425" rx="16.3354" ry="35.3874" transform="rotate(-90 90.9379 105.425)" fill="url(#paint31_linear_118:5684)"/>
</mask>
<g mask="url(#mask5_118:5684)">
<g filter="url(#filter17_ii_118:5684)">
<path fill-rule="evenodd" clip-rule="evenodd" d="M58.259 112.244C56.2158 110.161 55.0813 107.85 55.0813 105.424C55.0813 102.998 56.2158 100.687 58.259 98.604L69.2875 100.909C67.9405 102.282 67.1875 103.809 67.1875 105.424C67.1875 107.04 67.9405 108.566 69.2875 109.939L58.259 112.244ZM76.1598 90.3407C80.6726 89.3975 85.6792 88.8738 90.9343 88.8738C96.1895 88.8738 101.196 89.3975 105.709 90.3407L100.716 95.4317C97.7405 94.8099 94.4335 94.4623 90.9343 94.4623C87.4351 94.4623 84.1281 94.8099 81.153 95.4317L76.1598 90.3407ZM90.9343 121.975C85.6792 121.975 80.6726 121.451 76.1598 120.508L81.153 115.417C84.1281 116.039 87.4351 116.386 90.9343 116.386C94.4335 116.386 97.7405 116.039 100.716 115.417L105.709 120.508C101.196 121.451 96.1895 121.975 90.9343 121.975ZM126.787 105.424C126.787 107.85 125.653 110.161 123.61 112.244L112.581 109.939C113.928 108.566 114.681 107.04 114.681 105.424C114.681 103.809 113.928 102.282 112.581 100.909L123.61 98.604C125.653 100.687 126.787 102.998 126.787 105.424Z" fill="url(#paint32_linear_118:5684)"/>
</g>
</g>
<ellipse cx="90.9347" cy="105.424" rx="11.1769" ry="28.4987" transform="rotate(-90 90.9347 105.424)" fill="url(#paint33_linear_118:5684)"/>
<path fill-rule="evenodd" clip-rule="evenodd" d="M62.6452 107.103C62.4257 106.556 62.312 105.996 62.312 105.426C62.312 104.856 62.4257 104.296 62.6452 103.748C62.7864 103.396 63.6458 103.155 64.5647 103.209C65.4837 103.263 66.1142 103.592 65.973 103.944C65.7794 104.427 65.6788 104.922 65.6788 105.426C65.6788 105.93 65.7794 106.425 65.973 106.907C66.1142 107.259 65.4837 107.589 64.5647 107.643C63.6458 107.697 62.7864 107.455 62.6452 107.103ZM68.1968 99.8528C67.4469 99.6422 67.2846 99.2387 67.8343 98.9515C69.5697 98.0446 71.6603 97.2438 74.0279 96.5791C74.7777 96.3685 75.8312 96.4307 76.3808 96.7179C76.9305 97.0052 76.7682 97.4087 76.0183 97.6192C73.928 98.2061 72.0819 98.9132 70.5497 99.7139C70.0001 100.001 68.9466 100.063 68.1968 99.8528ZM68.1968 110.999C68.9467 110.788 70.0001 110.85 70.5497 111.138C72.0819 111.938 73.928 112.645 76.0183 113.232C76.7682 113.443 76.9305 113.846 76.3808 114.134C75.8312 114.421 74.7778 114.483 74.0279 114.272C71.6603 113.608 69.5697 112.807 67.8343 111.9C67.2846 111.613 67.4469 111.209 68.1968 110.999ZM85.1425 95.3267C85.0013 94.9747 85.6318 94.6455 86.5507 94.5914C87.9794 94.5074 89.442 94.4638 90.93 94.4638C92.4181 94.4638 93.8806 94.5074 95.3093 94.5914C96.2283 94.6455 96.8588 94.9747 96.7176 95.3267C96.5764 95.6787 95.717 95.9202 94.798 95.8661C93.538 95.792 92.2463 95.7534 90.93 95.7534C89.6137 95.7534 88.3221 95.792 87.062 95.8661C86.143 95.9202 85.2836 95.6787 85.1425 95.3267ZM85.1425 115.525C85.2836 115.173 86.143 114.931 87.062 114.985C88.3221 115.06 89.6137 115.098 90.93 115.098C92.2463 115.098 93.538 115.06 94.7981 114.985C95.717 114.931 96.5764 115.173 96.7176 115.525C96.8588 115.877 96.2283 116.206 95.3093 116.26C93.8807 116.344 92.4181 116.388 90.93 116.388C89.442 116.388 87.9794 116.344 86.5507 116.26C85.6318 116.206 85.0013 115.877 85.1425 115.525ZM105.479 96.7179C106.029 96.4307 107.082 96.3685 107.832 96.5791C110.2 97.2438 112.29 98.0446 114.026 98.9515C114.575 99.2387 114.413 99.6422 113.663 99.8528C112.913 100.063 111.86 100.001 111.31 99.7139C109.778 98.9132 107.932 98.2061 105.842 97.6192C105.092 97.4087 104.93 97.0052 105.479 96.7179ZM105.479 114.134C104.93 113.846 105.092 113.443 105.842 113.232C107.932 112.645 109.778 111.938 111.31 111.138C111.86 110.85 112.913 110.788 113.663 110.999C114.413 111.209 114.575 111.613 114.026 111.9C112.29 112.807 110.2 113.608 107.832 114.272C107.082 114.483 106.029 114.421 105.479 114.134ZM117.295 103.209C118.214 103.155 119.074 103.396 119.215 103.748C119.434 104.296 119.548 104.856 119.548 105.426C119.548 105.996 119.434 106.556 119.215 107.103C119.074 107.455 118.214 107.697 117.295 107.643C116.376 107.589 115.746 107.259 115.887 106.907C116.081 106.425 116.181 105.93 116.181 105.426C116.181 104.922 116.081 104.427 115.887 103.944C115.746 103.592 116.376 103.263 117.295 103.209Z" fill="url(#paint34_linear_118:5684)"/>
<ellipse cx="90.9385" cy="105.42" rx="9.88724" ry="26.2593" transform="rotate(-90 90.9385 105.42)" fill="url(#paint35_linear_118:5684)"/>
</g>
<g filter="url(#filter18_d_118:5684)">
<path d="M6.41333 113L73.461 86.373L77.4046 98.5234C77.4046 98.5234 73.8927 111.764 47.2865 122.33C20.6803 132.896 10.3569 125.15 10.3569 125.15L6.41333 113Z" fill="#C6C6C6"/>
<path fill-rule="evenodd" clip-rule="evenodd" d="M25.9823 105.405L9.89248 111.84L14.7859 127.061C18.3617 127.956 24.2111 128.504 32.804 126.702L25.9823 105.405ZM60.9112 115.466C68.5549 110.781 72.7544 106.226 75.0074 103.002L70.1064 87.7571L54.0879 94.1637L60.9112 115.466Z" fill="#761018"/>
<g filter="url(#filter19_ii_118:5684)">
<ellipse rx="15.4883" ry="36.2398" transform="matrix(-0.306866 -0.952142 0.928463 -0.373332 39.9022 99.7586)" fill="url(#paint36_linear_118:5684)"/>
</g>
<mask id="mask6_118:5684" style="mask-type:alpha" maskUnits="userSpaceOnUse" x="5" y="79" width="69" height="41">
<ellipse rx="15.4434" ry="36.2693" transform="matrix(-0.306612 -0.952244 0.928195 -0.374164 39.9022 99.7586)" fill="url(#paint37_linear_118:5684)"/>
</mask>
<g mask="url(#mask6_118:5684)">
<g filter="url(#filter20_ii_118:5684)">
<path fill-rule="evenodd" clip-rule="evenodd" d="M10.7892 118.43C8.2416 117.338 6.4924 115.692 5.78921 113.508C5.08602 111.324 5.49537 108.809 6.83527 106.15L17.9951 103.996C17.1118 105.748 16.838 107.412 17.3062 108.866C17.7744 110.32 18.9332 111.405 20.6128 112.125L10.7892 118.43ZM21.4695 91.8461C25.4892 89.2664 30.1003 86.8749 35.0997 84.8596C40.0991 82.8443 45.0138 81.3958 49.5803 80.5143L46.3059 87.0123C43.2953 87.5934 40.0485 88.5487 36.7196 89.8906C33.3907 91.2325 30.3455 92.8136 27.6954 94.5143L21.4695 91.8461ZM44.6946 114.658C39.6952 116.674 34.7806 118.122 30.214 119.004L33.4885 112.506C36.499 111.925 39.7458 110.969 43.0747 109.628C46.4036 108.286 49.4489 106.705 52.0989 105.004L58.3248 107.672C54.3051 110.252 49.694 112.643 44.6946 114.658ZM74.0051 86.0098C74.7083 88.1937 74.299 90.7094 72.9591 93.3683L61.7992 95.5226C62.6825 93.7696 62.9564 92.1066 62.4881 90.6524C62.0199 89.1983 60.8611 88.1128 59.1815 87.3929L69.0051 81.0886C71.5527 82.1804 73.3019 83.826 74.0051 86.0098Z" fill="url(#paint38_linear_118:5684)"/>
</g>
</g>
<ellipse rx="10.563" ry="29.14" transform="matrix(-0.30733 -0.951958 0.928749 -0.372456 39.8963 99.7581)" fill="url(#paint39_linear_118:5684)"/>
<path fill-rule="evenodd" clip-rule="evenodd" d="M13.5261 112.036C13.1588 111.627 12.8882 111.167 12.7227 110.654C12.5571 110.142 12.5024 109.595 12.5519 109.019C12.5838 108.649 13.3296 108.105 14.2179 107.804C15.1061 107.502 15.8003 107.558 15.7685 107.929C15.7248 108.436 15.773 108.92 15.9194 109.373C16.0658 109.826 16.305 110.233 16.629 110.593C16.8652 110.856 16.3622 111.392 15.5053 111.79C14.6485 112.189 13.7624 112.299 13.5261 112.036ZM16.6919 103.403C15.9188 103.499 15.6475 103.198 16.086 102.731C17.4704 101.255 19.2229 99.7389 21.2779 98.24C21.9287 97.7652 22.947 97.4202 23.5523 97.4692C24.1576 97.5183 24.1207 97.9429 23.4698 98.4177C21.6555 99.741 20.108 101.08 18.8857 102.383C18.4472 102.85 17.465 103.307 16.6919 103.403ZM19.9285 113.426C20.5793 112.951 21.5976 112.606 22.2029 112.655C23.8902 112.792 25.8484 112.725 28.0035 112.457C28.7766 112.361 29.0479 112.662 28.6094 113.13C28.171 113.597 27.1888 114.054 26.4157 114.15C23.9746 114.454 21.7571 114.529 19.846 114.374C19.2407 114.325 19.2776 113.901 19.9285 113.426ZM31.4674 92.8833C31.2312 92.6205 31.7342 92.0845 32.591 91.6861C33.9231 91.0668 35.2992 90.4709 36.7121 89.9045C38.125 89.3381 39.5263 88.8206 40.9073 88.3524C41.7955 88.0513 42.4897 88.1073 42.4579 88.4776C42.4261 88.8478 41.6802 89.3921 40.792 89.6932C39.574 90.1062 38.3364 90.5632 37.0866 91.0642C35.8368 91.5652 34.6215 92.0915 33.4466 92.6378C32.5898 93.0362 31.7037 93.1461 31.4674 92.8833ZM37.3325 111.046C37.3644 110.676 38.1102 110.131 38.9984 109.83C40.2164 109.417 41.454 108.96 42.7038 108.459C43.9536 107.958 45.1689 107.432 46.3438 106.886C47.2006 106.487 48.0867 106.377 48.323 106.64C48.5592 106.903 48.0562 107.439 47.1994 107.837C45.8673 108.457 44.4912 109.053 43.0783 109.619C41.6654 110.185 40.2641 110.703 38.8831 111.171C37.9949 111.472 37.3007 111.416 37.3325 111.046ZM51.181 86.3937C51.6194 85.9262 52.6016 85.4694 53.3747 85.3733C55.8158 85.0699 58.0333 84.9942 59.9444 85.1492C60.5497 85.1983 60.5128 85.6229 59.8619 86.0976C59.2111 86.5724 58.1928 86.9174 57.5875 86.8683C55.9002 86.7315 53.942 86.7983 51.7869 87.0662C51.0138 87.1623 50.7425 86.8612 51.181 86.3937ZM56.2381 102.054C55.6328 102.005 55.6697 101.581 56.3206 101.106C58.1349 99.7825 59.6824 98.444 60.9047 97.1408C61.3432 96.6733 62.3254 96.2164 63.0985 96.1203C63.8716 96.0242 64.1429 96.3253 63.7044 96.7928C62.32 98.2689 60.5675 99.7847 58.5125 101.284C57.8617 101.758 56.8434 102.103 56.2381 102.054ZM64.2851 87.7331C65.1419 87.3347 66.028 87.2247 66.2643 87.4875C66.6316 87.8961 66.9022 88.3566 67.0678 88.8691C67.2333 89.3816 67.288 89.9287 67.2385 90.5043C67.2066 90.8746 66.4608 91.4189 65.5725 91.72C64.6843 92.0212 63.9901 91.9651 64.0219 91.5949C64.0656 91.0872 64.0174 90.604 63.871 90.1506C63.7246 89.6972 63.4854 89.2906 63.1614 88.9302C62.9252 88.6675 63.4282 88.1315 64.2851 87.7331Z" fill="url(#paint40_linear_118:5684)"/>
<ellipse rx="9.33668" ry="26.8404" transform="matrix(-0.307447 -0.951911 0.928823 -0.37223 39.9012 99.7573)" fill="url(#paint41_linear_118:5684)"/>
</g>
<path d="M38.6992 26.8262L109.474 26.8262V40.2071C109.474 40.2071 102.172 51.7634 74.0866 51.7634C46.0014 51.7634 38.6992 40.2071 38.6992 40.2071V26.8262Z" fill="#C6C6C6"/>
<path fill-rule="evenodd" clip-rule="evenodd" d="M59.4835 26.8271H41.8452V43.373C44.8493 45.739 50.3096 48.8457 59.4835 50.5371V26.8271ZM88.6922 50.537C97.8649 48.8457 103.325 45.7395 106.329 43.3736V26.8271H88.6922V50.537Z" fill="#761018"/>
<g filter="url(#filter21_ii_118:5684)">
<ellipse cx="74.0866" cy="27.3491" rx="16.3354" ry="35.3874" transform="rotate(-90 74.0866 27.3491)" fill="url(#paint42_linear_118:5684)"/>
</g>
<mask id="mask7_118:5684" style="mask-type:alpha" maskUnits="userSpaceOnUse" x="38" y="11" width="72" height="33">
<ellipse cx="74.0866" cy="27.3491" rx="16.3354" ry="35.3874" transform="rotate(-90 74.0866 27.3491)" fill="url(#paint43_linear_118:5684)"/>
</mask>
<g mask="url(#mask7_118:5684)">
<g filter="url(#filter22_ii_118:5684)">
<path fill-rule="evenodd" clip-rule="evenodd" d="M41.4106 34.1673C39.3674 32.0841 38.2329 29.773 38.2329 27.3471C38.2329 24.9212 39.3674 22.6101 41.4106 20.5269L52.4391 22.8318C51.0921 24.2052 50.3391 25.7318 50.3391 27.3471C50.3391 28.9624 51.0921 30.4889 52.4391 31.8623L41.4106 34.1673ZM59.3114 12.2636C63.8242 11.3204 68.8308 10.7967 74.0859 10.7967C79.3411 10.7967 84.3477 11.3204 88.8605 12.2636L83.8672 17.3545C80.8921 16.7327 77.5851 16.3851 74.0859 16.3851C70.5867 16.3851 67.2797 16.7327 64.3046 17.3545L59.3114 12.2636ZM74.0859 43.8975C68.8308 43.8975 63.8242 43.3738 59.3114 42.4306L64.3046 37.3396C67.2797 37.9614 70.5867 38.309 74.0859 38.309C77.5851 38.309 80.8921 37.9614 83.8673 37.3396L88.8605 42.4306C84.3477 43.3738 79.3411 43.8975 74.0859 43.8975ZM109.939 27.3471C109.939 29.773 108.804 32.0841 106.761 34.1673L95.7327 31.8623C97.0798 30.4889 97.8327 28.9624 97.8327 27.3471C97.8327 25.7318 97.0798 24.2052 95.7327 22.8318L106.761 20.5269C108.804 22.6101 109.939 24.9212 109.939 27.3471Z" fill="url(#paint44_linear_118:5684)"/>
</g>
</g>
<ellipse cx="74.0807" cy="27.35" rx="11.1769" ry="28.4987" transform="rotate(-90 74.0807 27.35)" fill="url(#paint45_linear_118:5684)"/>
<path fill-rule="evenodd" clip-rule="evenodd" d="M45.7951 29.0275C45.5756 28.4803 45.4619 27.9201 45.4619 27.3501C45.4619 26.7801 45.5756 26.2198 45.7951 25.6726C45.9363 25.3206 46.7957 25.0791 47.7146 25.1332C48.6336 25.1873 49.2641 25.5165 49.1229 25.8684C48.9293 26.3511 48.8287 26.8459 48.8287 27.3501C48.8287 27.8543 48.9293 28.349 49.1229 28.8317C49.2641 29.1837 48.6336 29.5129 47.7146 29.567C46.7957 29.621 45.9363 29.3795 45.7951 29.0275ZM51.3467 21.7771C50.5968 21.5666 50.4345 21.163 50.9842 20.8758C52.7196 19.9689 54.8102 19.1681 57.1778 18.5034C57.9277 18.2929 58.9811 18.355 59.5307 18.6423C60.0804 18.9295 59.9181 19.333 59.1682 19.5435C57.0779 20.1304 55.2318 20.8376 53.6996 21.6382C53.15 21.9255 52.0966 21.9876 51.3467 21.7771ZM51.3467 32.923C52.0966 32.7125 53.15 32.7747 53.6996 33.0619C55.2318 33.8626 57.0779 34.5697 59.1682 35.1566C59.9181 35.3671 60.0804 35.7707 59.5307 36.0579C58.9811 36.3451 57.9277 36.4073 57.1778 36.1967C54.8102 35.532 52.7196 34.7312 50.9842 33.8243C50.4345 33.5371 50.5968 33.1336 51.3467 32.923ZM68.2924 17.251C68.1512 16.899 68.7817 16.5698 69.7006 16.5158C71.1293 16.4317 72.5919 16.3881 74.0799 16.3881C75.568 16.3881 77.0306 16.4317 78.4592 16.5158C79.3782 16.5698 80.0087 16.899 79.8675 17.251C79.7263 17.603 78.8669 17.8445 77.948 17.7904C76.6879 17.7163 75.3962 17.6778 74.0799 17.6778C72.7636 17.6778 71.472 17.7163 70.2119 17.7904C69.2929 17.8445 68.4335 17.603 68.2924 17.251ZM68.2924 37.4491C68.4336 37.0971 69.293 36.8556 70.2119 36.9097C71.472 36.9838 72.7636 37.0224 74.0799 37.0224C75.3962 37.0224 76.6879 36.9838 77.948 36.9097C78.8669 36.8556 79.7263 37.0971 79.8675 37.4491C80.0087 37.8011 79.3782 38.1303 78.4592 38.1844C77.0306 38.2685 75.568 38.312 74.0799 38.312C72.5919 38.312 71.1293 38.2685 69.7006 38.1844C68.7817 38.1303 68.1512 37.8011 68.2924 37.4491ZM88.6291 18.6423C89.1787 18.355 90.2322 18.2929 90.982 18.5034C93.3496 19.1681 95.4402 19.9689 97.1757 20.8758C97.7253 21.163 97.563 21.5666 96.8132 21.7771C96.0633 21.9876 95.0099 21.9255 94.4602 21.6382C92.928 20.8376 91.0819 20.1304 88.9916 19.5435C88.2418 19.333 88.0795 18.9295 88.6291 18.6423ZM88.6291 36.0579C88.0795 35.7707 88.2418 35.3671 88.9916 35.1566C91.0819 34.5697 92.928 33.8626 94.4602 33.0619C95.0099 32.7747 96.0633 32.7125 96.8132 32.923C97.563 33.1336 97.7253 33.5371 97.1757 33.8243C95.4402 34.7312 93.3496 35.532 90.982 36.1967C90.2322 36.4073 89.1787 36.3451 88.6291 36.0579ZM100.445 25.1332C101.364 25.0791 102.224 25.3206 102.365 25.6726C102.584 26.2198 102.698 26.7801 102.698 27.3501C102.698 27.9201 102.584 28.4803 102.365 29.0275C102.224 29.3795 101.364 29.621 100.445 29.567C99.5263 29.5129 98.8958 29.1837 99.037 28.8317C99.2305 28.349 99.3311 27.8543 99.3311 27.3501C99.3311 26.8459 99.2305 26.3511 99.0369 25.8684C98.8958 25.5164 99.5263 25.1873 100.445 25.1332Z" fill="url(#paint46_linear_118:5684)"/>
<ellipse cx="74.0881" cy="27.3481" rx="9.88724" ry="26.2593" transform="rotate(-90 74.0881 27.3481)" fill="url(#paint47_linear_118:5684)"/>
<g filter="url(#filter23_d_118:5684)">
<path d="M38.6992 15.877L109.474 15.877V29.2579C109.474 29.2579 102.172 40.8142 74.0866 40.8142C46.0014 40.8142 38.6992 29.2579 38.6992 29.2579V15.877Z" fill="#C6C6C6"/>
<path fill-rule="evenodd" clip-rule="evenodd" d="M59.4835 15.8794L41.8452 15.8794V32.4252C44.8493 34.7913 50.3096 37.8979 59.4835 39.5893V15.8794ZM88.6922 39.5892C97.8649 37.8979 103.325 34.7918 106.329 32.4259V15.8794H88.6922V39.5892Z" fill="#761018"/>
<g filter="url(#filter24_ii_118:5684)">
<ellipse cx="74.0866" cy="16.3999" rx="16.3354" ry="35.3874" transform="rotate(-90 74.0866 16.3999)" fill="url(#paint48_linear_118:5684)"/>
</g>
<mask id="mask8_118:5684" style="mask-type:alpha" maskUnits="userSpaceOnUse" x="38" y="0" width="72" height="33">
<ellipse cx="74.0866" cy="16.3999" rx="16.3354" ry="35.3874" transform="rotate(-90 74.0866 16.3999)" fill="url(#paint49_linear_118:5684)"/>
</mask>
<g mask="url(#mask8_118:5684)">
<g filter="url(#filter25_ii_118:5684)">
<path fill-rule="evenodd" clip-rule="evenodd" d="M41.4106 23.22C39.3674 21.1368 38.2329 18.8257 38.2329 16.3998C38.2329 13.9739 39.3674 11.6628 41.4106 9.57962L52.4391 11.8846C51.0921 13.258 50.3391 14.7845 50.3391 16.3998C50.3391 18.0151 51.0921 19.5417 52.4391 20.915L41.4106 23.22ZM59.3114 1.3163C63.8242 0.37312 68.8308 -0.15058 74.0859 -0.15058C79.3411 -0.15058 84.3477 0.37312 88.8605 1.3163L83.8672 6.40726C80.8921 5.78545 77.5851 5.43786 74.0859 5.43786C70.5867 5.43786 67.2797 5.78545 64.3046 6.40726L59.3114 1.3163ZM74.0859 32.9502C68.8308 32.9502 63.8242 32.4265 59.3114 31.4833L64.3046 26.3924C67.2797 27.0142 70.5867 27.3618 74.0859 27.3618C77.5851 27.3618 80.8921 27.0142 83.8673 26.3924L88.8605 31.4833C84.3477 32.4265 79.3411 32.9502 74.0859 32.9502ZM109.939 16.3998C109.939 18.8257 108.804 21.1368 106.761 23.22L95.7327 20.915C97.0798 19.5417 97.8327 18.0151 97.8327 16.3998C97.8327 14.7845 97.0798 13.258 95.7327 11.8846L106.761 9.57962C108.804 11.6628 109.939 13.9739 109.939 16.3998Z" fill="url(#paint50_linear_118:5684)"/>
</g>
</g>
<ellipse cx="74.0807" cy="16.4032" rx="11.1769" ry="28.4987" transform="rotate(-90 74.0807 16.4032)" fill="url(#paint51_linear_118:5684)"/>
<path fill-rule="evenodd" clip-rule="evenodd" d="M45.7951 18.0783C45.5756 17.5311 45.4619 16.9708 45.4619 16.4008C45.4619 15.8309 45.5756 15.2706 45.7951 14.7234C45.9363 14.3714 46.7957 14.1299 47.7146 14.184C48.6336 14.238 49.2641 14.5672 49.1229 14.9192C48.9293 15.4019 48.8287 15.8967 48.8287 16.4008C48.8287 16.905 48.9293 17.3998 49.1229 17.8825C49.2641 18.2345 48.6336 18.5637 47.7146 18.6177C46.7957 18.6718 45.9363 18.4303 45.7951 18.0783ZM51.3467 10.8279C50.5968 10.6173 50.4345 10.2138 50.9842 9.9266C52.7196 9.01971 54.8102 8.21892 57.1778 7.55417C57.9277 7.34364 58.9811 7.40581 59.5307 7.69303C60.0804 7.98026 59.9181 8.38378 59.1682 8.59431C57.0779 9.18121 55.2318 9.88834 53.6996 10.689C53.15 10.9762 52.0966 11.0384 51.3467 10.8279ZM51.3467 21.9738C52.0966 21.7633 53.15 21.8255 53.6996 22.1127C55.2318 22.9134 57.0779 23.6205 59.1682 24.2074C59.9181 24.4179 60.0804 24.8214 59.5307 25.1087C58.9811 25.3959 57.9277 25.4581 57.1778 25.2475C54.8102 24.5828 52.7196 23.782 50.9842 22.8751C50.4345 22.5879 50.5968 22.1844 51.3467 21.9738ZM68.2924 6.3018C68.1512 5.94981 68.7817 5.62062 69.7006 5.56654C71.1293 5.48246 72.5919 5.4389 74.0799 5.4389C75.568 5.4389 77.0306 5.48246 78.4592 5.56654C79.3782 5.62062 80.0087 5.94981 79.8675 6.3018C79.7263 6.65379 78.8669 6.8953 77.948 6.84122C76.6879 6.76707 75.3962 6.72854 74.0799 6.72854C72.7636 6.72854 71.472 6.76707 70.2119 6.84122C69.2929 6.8953 68.4335 6.65379 68.2924 6.3018ZM68.2924 26.4999C68.4336 26.1479 69.293 25.9064 70.2119 25.9605C71.472 26.0346 72.7636 26.0732 74.0799 26.0732C75.3962 26.0732 76.6879 26.0346 77.948 25.9605C78.8669 25.9064 79.7263 26.1479 79.8675 26.4999C80.0087 26.8519 79.3782 27.1811 78.4592 27.2352C77.0306 27.3192 75.568 27.3628 74.0799 27.3628C72.5919 27.3628 71.1293 27.3192 69.7006 27.2352C68.7817 27.1811 68.1512 26.8519 68.2924 26.4999ZM88.6291 7.69303C89.1787 7.40581 90.2322 7.34364 90.982 7.55417C93.3496 8.21892 95.4402 9.01971 97.1757 9.9266C97.7253 10.2138 97.563 10.6173 96.8132 10.8279C96.0633 11.0384 95.0099 10.9762 94.4602 10.689C92.928 9.88834 91.0819 9.18121 88.9916 8.59431C88.2418 8.38378 88.0795 7.98026 88.6291 7.69303ZM88.6291 25.1087C88.0795 24.8214 88.2418 24.4179 88.9916 24.2074C91.0819 23.6205 92.928 22.9134 94.4602 22.1127C95.0099 21.8255 96.0633 21.7633 96.8132 21.9738C97.563 22.1844 97.7253 22.5879 97.1757 22.8751C95.4402 23.782 93.3496 24.5828 90.982 25.2475C90.2322 25.4581 89.1787 25.3959 88.6291 25.1087ZM100.445 14.184C101.364 14.1299 102.224 14.3714 102.365 14.7234C102.584 15.2706 102.698 15.8309 102.698 16.4008C102.698 16.9708 102.584 17.5311 102.365 18.0783C102.224 18.4303 101.364 18.6718 100.445 18.6177C99.5263 18.5637 98.8958 18.2345 99.037 17.8825C99.2305 17.3998 99.3311 16.905 99.3311 16.4008C99.3311 15.8967 99.2305 15.4019 99.0369 14.9192C98.8958 14.5672 99.5263 14.238 100.445 14.184Z" fill="url(#paint52_linear_118:5684)"/>
<ellipse cx="74.0881" cy="16.3994" rx="9.88724" ry="26.2593" transform="rotate(-90 74.0881 16.3994)" fill="url(#paint53_linear_118:5684)"/>
</g>
<defs>
<filter id="filter0_d_118:5684" x="35.4524" y="65.9771" width="72.7747" height="42.75" filterUnits="userSpaceOnUse" color-interpolation-filters="sRGB">
<feFlood flood-opacity="0" result="BackgroundImageFix"/>
<feColorMatrix in="SourceAlpha" type="matrix" values="0 0 0 0 0 0 0 0 0 0 0 0 0 0 0 0 0 0 127 0" result="hardAlpha"/>
<feOffset dy="1"/>
<feGaussianBlur stdDeviation="0.5"/>
<feComposite in2="hardAlpha" operator="out"/>
<feColorMatrix type="matrix" values="0 0 0 0 0 0 0 0 0 0 0 0 0 0 0 0 0 0 0.25 0"/>
<feBlend mode="normal" in2="BackgroundImageFix" result="effect1_dropShadow_118:5684"/>
<feBlend mode="normal" in="SourceGraphic" in2="effect1_dropShadow_118:5684" result="shape"/>
</filter>
<filter id="filter1_ii_118:5684" x="36.4524" y="62.9771" width="70.7747" height="37.6709" filterUnits="userSpaceOnUse" color-interpolation-filters="sRGB">
<feFlood flood-opacity="0" result="BackgroundImageFix"/>
<feBlend mode="normal" in="SourceGraphic" in2="BackgroundImageFix" result="shape"/>
<feColorMatrix in="SourceAlpha" type="matrix" values="0 0 0 0 0 0 0 0 0 0 0 0 0 0 0 0 0 0 127 0" result="hardAlpha"/>
<feOffset dy="-3"/>
<feGaussianBlur stdDeviation="3"/>
<feComposite in2="hardAlpha" operator="arithmetic" k2="-1" k3="1"/>
<feColorMatrix type="matrix" values="0 0 0 0 0 0 0 0 0 0 0 0 0 0 0 0 0 0 0.5 0"/>
<feBlend mode="normal" in2="shape" result="effect1_innerShadow_118:5684"/>
<feColorMatrix in="SourceAlpha" type="matrix" values="0 0 0 0 0 0 0 0 0 0 0 0 0 0 0 0 0 0 127 0" result="hardAlpha"/>
<feOffset dy="2"/>
<feGaussianBlur stdDeviation="3"/>
<feComposite in2="hardAlpha" operator="arithmetic" k2="-1" k3="1"/>
<feColorMatrix type="matrix" values="0 0 0 0 0.945833 0 0 0 0 0.264045 0 0 0 0 0.298349 0 0 0 1 0"/>
<feBlend mode="normal" in2="effect1_innerShadow_118:5684" result="effect2_innerShadow_118:5684"/>
</filter>
<filter id="filter2_ii_118:5684" x="35.9824" y="64.7603" width="71.7061" height="36.1006" filterUnits="userSpaceOnUse" color-interpolation-filters="sRGB">
<feFlood flood-opacity="0" result="BackgroundImageFix"/>
<feBlend mode="normal" in="SourceGraphic" in2="BackgroundImageFix" result="shape"/>
<feColorMatrix in="SourceAlpha" type="matrix" values="0 0 0 0 0 0 0 0 0 0 0 0 0 0 0 0 0 0 127 0" result="hardAlpha"/>
<feOffset dy="-1"/>
<feGaussianBlur stdDeviation="1.5"/>
<feComposite in2="hardAlpha" operator="arithmetic" k2="-1" k3="1"/>
<feColorMatrix type="matrix" values="0 0 0 0 0 0 0 0 0 0 0 0 0 0 0 0 0 0 0.25 0"/>
<feBlend mode="normal" in2="shape" result="effect1_innerShadow_118:5684"/>
<feColorMatrix in="SourceAlpha" type="matrix" values="0 0 0 0 0 0 0 0 0 0 0 0 0 0 0 0 0 0 127 0" result="hardAlpha"/>
<feOffset dy="2"/>
<feGaussianBlur stdDeviation="1.5"/>
<feComposite in2="hardAlpha" operator="arithmetic" k2="-1" k3="1"/>
<feColorMatrix type="matrix" values="0 0 0 0 1 0 0 0 0 1 0 0 0 0 1 0 0 0 1 0"/>
<feBlend mode="normal" in2="effect1_innerShadow_118:5684" result="effect2_innerShadow_118:5684"/>
</filter>
<filter id="filter3_d_118:5684" x="37.6992" y="56.2451" width="72.7747" height="42.75" filterUnits="userSpaceOnUse" color-interpolation-filters="sRGB">
<feFlood flood-opacity="0" result="BackgroundImageFix"/>
<feColorMatrix in="SourceAlpha" type="matrix" values="0 0 0 0 0 0 0 0 0 0 0 0 0 0 0 0 0 0 127 0" result="hardAlpha"/>
<feOffset dy="1"/>
<feGaussianBlur stdDeviation="0.5"/>
<feComposite in2="hardAlpha" operator="out"/>
<feColorMatrix type="matrix" values="0 0 0 0 0 0 0 0 0 0 0 0 0 0 0 0 0 0 0.25 0"/>
<feBlend mode="normal" in2="BackgroundImageFix" result="effect1_dropShadow_118:5684"/>
<feBlend mode="normal" in="SourceGraphic" in2="effect1_dropShadow_118:5684" result="shape"/>
</filter>
<filter id="filter4_ii_118:5684" x="38.6992" y="53.2451" width="70.7747" height="37.6709" filterUnits="userSpaceOnUse" color-interpolation-filters="sRGB">
<feFlood flood-opacity="0" result="BackgroundImageFix"/>
<feBlend mode="normal" in="SourceGraphic" in2="BackgroundImageFix" result="shape"/>
<feColorMatrix in="SourceAlpha" type="matrix" values="0 0 0 0 0 0 0 0 0 0 0 0 0 0 0 0 0 0 127 0" result="hardAlpha"/>
<feOffset dy="-3"/>
<feGaussianBlur stdDeviation="3"/>
<feComposite in2="hardAlpha" operator="arithmetic" k2="-1" k3="1"/>
<feColorMatrix type="matrix" values="0 0 0 0 0 0 0 0 0 0 0 0 0 0 0 0 0 0 0.5 0"/>
<feBlend mode="normal" in2="shape" result="effect1_innerShadow_118:5684"/>
<feColorMatrix in="SourceAlpha" type="matrix" values="0 0 0 0 0 0 0 0 0 0 0 0 0 0 0 0 0 0 127 0" result="hardAlpha"/>
<feOffset dy="2"/>
<feGaussianBlur stdDeviation="3"/>
<feComposite in2="hardAlpha" operator="arithmetic" k2="-1" k3="1"/>
<feColorMatrix type="matrix" values="0 0 0 0 0.945833 0 0 0 0 0.264045 0 0 0 0 0.298349 0 0 0 1 0"/>
<feBlend mode="normal" in2="effect1_innerShadow_118:5684" result="effect2_innerShadow_118:5684"/>
</filter>
<filter id="filter5_ii_118:5684" x="38.2329" y="55.0288" width="71.7061" height="36.1006" filterUnits="userSpaceOnUse" color-interpolation-filters="sRGB">
<feFlood flood-opacity="0" result="BackgroundImageFix"/>
<feBlend mode="normal" in="SourceGraphic" in2="BackgroundImageFix" result="shape"/>
<feColorMatrix in="SourceAlpha" type="matrix" values="0 0 0 0 0 0 0 0 0 0 0 0 0 0 0 0 0 0 127 0" result="hardAlpha"/>
<feOffset dy="-1"/>
<feGaussianBlur stdDeviation="1.5"/>
<feComposite in2="hardAlpha" operator="arithmetic" k2="-1" k3="1"/>
<feColorMatrix type="matrix" values="0 0 0 0 0 0 0 0 0 0 0 0 0 0 0 0 0 0 0.25 0"/>
<feBlend mode="normal" in2="shape" result="effect1_innerShadow_118:5684"/>
<feColorMatrix in="SourceAlpha" type="matrix" values="0 0 0 0 0 0 0 0 0 0 0 0 0 0 0 0 0 0 127 0" result="hardAlpha"/>
<feOffset dy="2"/>
<feGaussianBlur stdDeviation="1.5"/>
<feComposite in2="hardAlpha" operator="arithmetic" k2="-1" k3="1"/>
<feColorMatrix type="matrix" values="0 0 0 0 1 0 0 0 0 1 0 0 0 0 1 0 0 0 1 0"/>
<feBlend mode="normal" in2="effect1_innerShadow_118:5684" result="effect2_innerShadow_118:5684"/>
</filter>
<filter id="filter6_d_118:5684" x="38.6992" y="46.5127" width="70.7747" height="41.75" filterUnits="userSpaceOnUse" color-interpolation-filters="sRGB">
<feFlood flood-opacity="0" result="BackgroundImageFix"/>
<feColorMatrix in="SourceAlpha" type="matrix" values="0 0 0 0 0 0 0 0 0 0 0 0 0 0 0 0 0 0 127 0" result="hardAlpha"/>
<feOffset dy="1"/>
<feComposite in2="hardAlpha" operator="out"/>
<feColorMatrix type="matrix" values="0 0 0 0 0 0 0 0 0 0 0 0 0 0 0 0 0 0 0.25 0"/>
<feBlend mode="normal" in2="BackgroundImageFix" result="effect1_dropShadow_118:5684"/>
<feBlend mode="normal" in="SourceGraphic" in2="effect1_dropShadow_118:5684" result="shape"/>
</filter>
<filter id="filter7_ii_118:5684" x="38.6992" y="43.5127" width="70.7747" height="37.6709" filterUnits="userSpaceOnUse" color-interpolation-filters="sRGB">
<feFlood flood-opacity="0" result="BackgroundImageFix"/>
<feBlend mode="normal" in="SourceGraphic" in2="BackgroundImageFix" result="shape"/>
<feColorMatrix in="SourceAlpha" type="matrix" values="0 0 0 0 0 0 0 0 0 0 0 0 0 0 0 0 0 0 127 0" result="hardAlpha"/>
<feOffset dy="-3"/>
<feGaussianBlur stdDeviation="3"/>
<feComposite in2="hardAlpha" operator="arithmetic" k2="-1" k3="1"/>
<feColorMatrix type="matrix" values="0 0 0 0 0 0 0 0 0 0 0 0 0 0 0 0 0 0 0.5 0"/>
<feBlend mode="normal" in2="shape" result="effect1_innerShadow_118:5684"/>
<feColorMatrix in="SourceAlpha" type="matrix" values="0 0 0 0 0 0 0 0 0 0 0 0 0 0 0 0 0 0 127 0" result="hardAlpha"/>
<feOffset dy="2"/>
<feGaussianBlur stdDeviation="3"/>
<feComposite in2="hardAlpha" operator="arithmetic" k2="-1" k3="1"/>
<feColorMatrix type="matrix" values="0 0 0 0 0.945833 0 0 0 0 0.264045 0 0 0 0 0.298349 0 0 0 1 0"/>
<feBlend mode="normal" in2="effect1_innerShadow_118:5684" result="effect2_innerShadow_118:5684"/>
</filter>
<filter id="filter8_ii_118:5684" x="38.2329" y="45.2949" width="71.7061" height="36.1006" filterUnits="userSpaceOnUse" color-interpolation-filters="sRGB">
<feFlood flood-opacity="0" result="BackgroundImageFix"/>
<feBlend mode="normal" in="SourceGraphic" in2="BackgroundImageFix" result="shape"/>
<feColorMatrix in="SourceAlpha" type="matrix" values="0 0 0 0 0 0 0 0 0 0 0 0 0 0 0 0 0 0 127 0" result="hardAlpha"/>
<feOffset dy="-1"/>
<feGaussianBlur stdDeviation="1.5"/>
<feComposite in2="hardAlpha" operator="arithmetic" k2="-1" k3="1"/>
<feColorMatrix type="matrix" values="0 0 0 0 0 0 0 0 0 0 0 0 0 0 0 0 0 0 0.25 0"/>
<feBlend mode="normal" in2="shape" result="effect1_innerShadow_118:5684"/>
<feColorMatrix in="SourceAlpha" type="matrix" values="0 0 0 0 0 0 0 0 0 0 0 0 0 0 0 0 0 0 127 0" result="hardAlpha"/>
<feOffset dy="2"/>
<feGaussianBlur stdDeviation="1.5"/>
<feComposite in2="hardAlpha" operator="arithmetic" k2="-1" k3="1"/>
<feColorMatrix type="matrix" values="0 0 0 0 1 0 0 0 0 1 0 0 0 0 1 0 0 0 1 0"/>
<feBlend mode="normal" in2="effect1_innerShadow_118:5684" result="effect2_innerShadow_118:5684"/>
</filter>
<filter id="filter9_d_118:5684" x="38.6992" y="35.5654" width="70.7747" height="41.75" filterUnits="userSpaceOnUse" color-interpolation-filters="sRGB">
<feFlood flood-opacity="0" result="BackgroundImageFix"/>
<feColorMatrix in="SourceAlpha" type="matrix" values="0 0 0 0 0 0 0 0 0 0 0 0 0 0 0 0 0 0 127 0" result="hardAlpha"/>
<feOffset dy="1"/>
<feComposite in2="hardAlpha" operator="out"/>
<feColorMatrix type="matrix" values="0 0 0 0 0 0 0 0 0 0 0 0 0 0 0 0 0 0 0.25 0"/>
<feBlend mode="normal" in2="BackgroundImageFix" result="effect1_dropShadow_118:5684"/>
<feBlend mode="normal" in="SourceGraphic" in2="effect1_dropShadow_118:5684" result="shape"/>
</filter>
<filter id="filter10_ii_118:5684" x="38.6992" y="32.5654" width="70.7747" height="37.6709" filterUnits="userSpaceOnUse" color-interpolation-filters="sRGB">
<feFlood flood-opacity="0" result="BackgroundImageFix"/>
<feBlend mode="normal" in="SourceGraphic" in2="BackgroundImageFix" result="shape"/>
<feColorMatrix in="SourceAlpha" type="matrix" values="0 0 0 0 0 0 0 0 0 0 0 0 0 0 0 0 0 0 127 0" result="hardAlpha"/>
<feOffset dy="-3"/>
<feGaussianBlur stdDeviation="3"/>
<feComposite in2="hardAlpha" operator="arithmetic" k2="-1" k3="1"/>
<feColorMatrix type="matrix" values="0 0 0 0 0 0 0 0 0 0 0 0 0 0 0 0 0 0 0.5 0"/>
<feBlend mode="normal" in2="shape" result="effect1_innerShadow_118:5684"/>
<feColorMatrix in="SourceAlpha" type="matrix" values="0 0 0 0 0 0 0 0 0 0 0 0 0 0 0 0 0 0 127 0" result="hardAlpha"/>
<feOffset dy="2"/>
<feGaussianBlur stdDeviation="3"/>
<feComposite in2="hardAlpha" operator="arithmetic" k2="-1" k3="1"/>
<feColorMatrix type="matrix" values="0 0 0 0 0.945833 0 0 0 0 0.264045 0 0 0 0 0.298349 0 0 0 1 0"/>
<feBlend mode="normal" in2="effect1_innerShadow_118:5684" result="effect2_innerShadow_118:5684"/>
</filter>
<filter id="filter11_ii_118:5684" x="38.2329" y="34.3511" width="71.7061" height="36.1006" filterUnits="userSpaceOnUse" color-interpolation-filters="sRGB">
<feFlood flood-opacity="0" result="BackgroundImageFix"/>
<feBlend mode="normal" in="SourceGraphic" in2="BackgroundImageFix" result="shape"/>
<feColorMatrix in="SourceAlpha" type="matrix" values="0 0 0 0 0 0 0 0 0 0 0 0 0 0 0 0 0 0 127 0" result="hardAlpha"/>
<feOffset dy="-1"/>
<feGaussianBlur stdDeviation="1.5"/>
<feComposite in2="hardAlpha" operator="arithmetic" k2="-1" k3="1"/>
<feColorMatrix type="matrix" values="0 0 0 0 0 0 0 0 0 0 0 0 0 0 0 0 0 0 0.25 0"/>
<feBlend mode="normal" in2="shape" result="effect1_innerShadow_118:5684"/>
<feColorMatrix in="SourceAlpha" type="matrix" values="0 0 0 0 0 0 0 0 0 0 0 0 0 0 0 0 0 0 127 0" result="hardAlpha"/>
<feOffset dy="2"/>
<feGaussianBlur stdDeviation="1.5"/>
<feComposite in2="hardAlpha" operator="arithmetic" k2="-1" k3="1"/>
<feColorMatrix type="matrix" values="0 0 0 0 1 0 0 0 0 1 0 0 0 0 1 0 0 0 1 0"/>
<feBlend mode="normal" in2="effect1_innerShadow_118:5684" result="effect2_innerShadow_118:5684"/>
</filter>
<filter id="filter12_d_118:5684" x="30.9585" y="20.9678" width="72.7747" height="42.75" filterUnits="userSpaceOnUse" color-interpolation-filters="sRGB">
<feFlood flood-opacity="0" result="BackgroundImageFix"/>
<feColorMatrix in="SourceAlpha" type="matrix" values="0 0 0 0 0 0 0 0 0 0 0 0 0 0 0 0 0 0 127 0" result="hardAlpha"/>
<feOffset dy="1"/>
<feGaussianBlur stdDeviation="0.5"/>
<feComposite in2="hardAlpha" operator="out"/>
<feColorMatrix type="matrix" values="0 0 0 0 0 0 0 0 0 0 0 0 0 0 0 0 0 0 0.25 0"/>
<feBlend mode="normal" in2="BackgroundImageFix" result="effect1_dropShadow_118:5684"/>
<feBlend mode="normal" in="SourceGraphic" in2="effect1_dropShadow_118:5684" result="shape"/>
</filter>
<filter id="filter13_ii_118:5684" x="31.9585" y="17.9678" width="70.7747" height="37.6709" filterUnits="userSpaceOnUse" color-interpolation-filters="sRGB">
<feFlood flood-opacity="0" result="BackgroundImageFix"/>
<feBlend mode="normal" in="SourceGraphic" in2="BackgroundImageFix" result="shape"/>
<feColorMatrix in="SourceAlpha" type="matrix" values="0 0 0 0 0 0 0 0 0 0 0 0 0 0 0 0 0 0 127 0" result="hardAlpha"/>
<feOffset dy="-3"/>
<feGaussianBlur stdDeviation="3"/>
<feComposite in2="hardAlpha" operator="arithmetic" k2="-1" k3="1"/>
<feColorMatrix type="matrix" values="0 0 0 0 0 0 0 0 0 0 0 0 0 0 0 0 0 0 0.5 0"/>
<feBlend mode="normal" in2="shape" result="effect1_innerShadow_118:5684"/>
<feColorMatrix in="SourceAlpha" type="matrix" values="0 0 0 0 0 0 0 0 0 0 0 0 0 0 0 0 0 0 127 0" result="hardAlpha"/>
<feOffset dy="2"/>
<feGaussianBlur stdDeviation="3"/>
<feComposite in2="hardAlpha" operator="arithmetic" k2="-1" k3="1"/>
<feColorMatrix type="matrix" values="0 0 0 0 0.945833 0 0 0 0 0.264045 0 0 0 0 0.298349 0 0 0 1 0"/>
<feBlend mode="normal" in2="effect1_innerShadow_118:5684" result="effect2_innerShadow_118:5684"/>
</filter>
<filter id="filter14_ii_118:5684" x="31.4866" y="19.7529" width="71.7061" height="36.1006" filterUnits="userSpaceOnUse" color-interpolation-filters="sRGB">
<feFlood flood-opacity="0" result="BackgroundImageFix"/>
<feBlend mode="normal" in="SourceGraphic" in2="BackgroundImageFix" result="shape"/>
<feColorMatrix in="SourceAlpha" type="matrix" values="0 0 0 0 0 0 0 0 0 0 0 0 0 0 0 0 0 0 127 0" result="hardAlpha"/>
<feOffset dy="-1"/>
<feGaussianBlur stdDeviation="1.5"/>
<feComposite in2="hardAlpha" operator="arithmetic" k2="-1" k3="1"/>
<feColorMatrix type="matrix" values="0 0 0 0 0 0 0 0 0 0 0 0 0 0 0 0 0 0 0.25 0"/>
<feBlend mode="normal" in2="shape" result="effect1_innerShadow_118:5684"/>
<feColorMatrix in="SourceAlpha" type="matrix" values="0 0 0 0 0 0 0 0 0 0 0 0 0 0 0 0 0 0 127 0" result="hardAlpha"/>
<feOffset dy="2"/>
<feGaussianBlur stdDeviation="1.5"/>
<feComposite in2="hardAlpha" operator="arithmetic" k2="-1" k3="1"/>
<feColorMatrix type="matrix" values="0 0 0 0 1 0 0 0 0 1 0 0 0 0 1 0 0 0 1 0"/>
<feBlend mode="normal" in2="effect1_innerShadow_118:5684" result="effect2_innerShadow_118:5684"/>
</filter>
<filter id="filter15_d_118:5684" x="54.5505" y="89.0894" width="72.7747" height="42.75" filterUnits="userSpaceOnUse" color-interpolation-filters="sRGB">
<feFlood flood-opacity="0" result="BackgroundImageFix"/>
<feColorMatrix in="SourceAlpha" type="matrix" values="0 0 0 0 0 0 0 0 0 0 0 0 0 0 0 0 0 0 127 0" result="hardAlpha"/>
<feOffset dy="1"/>
<feGaussianBlur stdDeviation="0.5"/>
<feComposite in2="hardAlpha" operator="out"/>
<feColorMatrix type="matrix" values="0 0 0 0 0 0 0 0 0 0 0 0 0 0 0 0 0 0 0.25 0"/>
<feBlend mode="normal" in2="BackgroundImageFix" result="effect1_dropShadow_118:5684"/>
<feBlend mode="normal" in="SourceGraphic" in2="effect1_dropShadow_118:5684" result="shape"/>
</filter>
<filter id="filter16_ii_118:5684" x="55.5505" y="86.0894" width="70.7747" height="37.6709" filterUnits="userSpaceOnUse" color-interpolation-filters="sRGB">
<feFlood flood-opacity="0" result="BackgroundImageFix"/>
<feBlend mode="normal" in="SourceGraphic" in2="BackgroundImageFix" result="shape"/>
<feColorMatrix in="SourceAlpha" type="matrix" values="0 0 0 0 0 0 0 0 0 0 0 0 0 0 0 0 0 0 127 0" result="hardAlpha"/>
<feOffset dy="-3"/>
<feGaussianBlur stdDeviation="3"/>
<feComposite in2="hardAlpha" operator="arithmetic" k2="-1" k3="1"/>
<feColorMatrix type="matrix" values="0 0 0 0 0 0 0 0 0 0 0 0 0 0 0 0 0 0 0.5 0"/>
<feBlend mode="normal" in2="shape" result="effect1_innerShadow_118:5684"/>
<feColorMatrix in="SourceAlpha" type="matrix" values="0 0 0 0 0 0 0 0 0 0 0 0 0 0 0 0 0 0 127 0" result="hardAlpha"/>
<feOffset dy="2"/>
<feGaussianBlur stdDeviation="3"/>
<feComposite in2="hardAlpha" operator="arithmetic" k2="-1" k3="1"/>
<feColorMatrix type="matrix" values="0 0 0 0 0.945833 0 0 0 0 0.264045 0 0 0 0 0.298349 0 0 0 1 0"/>
<feBlend mode="normal" in2="effect1_innerShadow_118:5684" result="effect2_innerShadow_118:5684"/>
</filter>
<filter id="filter17_ii_118:5684" x="55.0813" y="87.874" width="71.7061" height="36.1006" filterUnits="userSpaceOnUse" color-interpolation-filters="sRGB">
<feFlood flood-opacity="0" result="BackgroundImageFix"/>
<feBlend mode="normal" in="SourceGraphic" in2="BackgroundImageFix" result="shape"/>
<feColorMatrix in="SourceAlpha" type="matrix" values="0 0 0 0 0 0 0 0 0 0 0 0 0 0 0 0 0 0 127 0" result="hardAlpha"/>
<feOffset dy="-1"/>
<feGaussianBlur stdDeviation="1.5"/>
<feComposite in2="hardAlpha" operator="arithmetic" k2="-1" k3="1"/>
<feColorMatrix type="matrix" values="0 0 0 0 0 0 0 0 0 0 0 0 0 0 0 0 0 0 0.25 0"/>
<feBlend mode="normal" in2="shape" result="effect1_innerShadow_118:5684"/>
<feColorMatrix in="SourceAlpha" type="matrix" values="0 0 0 0 0 0 0 0 0 0 0 0 0 0 0 0 0 0 127 0" result="hardAlpha"/>
<feOffset dy="2"/>
<feGaussianBlur stdDeviation="1.5"/>
<feComposite in2="hardAlpha" operator="arithmetic" k2="-1" k3="1"/>
<feColorMatrix type="matrix" values="0 0 0 0 1 0 0 0 0 1 0 0 0 0 1 0 0 0 1 0"/>
<feBlend mode="normal" in2="effect1_innerShadow_118:5684" result="effect2_innerShadow_118:5684"/>
</filter>
<filter id="filter18_d_118:5684" x="4.90161" y="78.7456" width="79.5029" height="56.1484" filterUnits="userSpaceOnUse" color-interpolation-filters="sRGB">
<feFlood flood-opacity="0" result="BackgroundImageFix"/>
<feColorMatrix in="SourceAlpha" type="matrix" values="0 0 0 0 0 0 0 0 0 0 0 0 0 0 0 0 0 0 127 0" result="hardAlpha"/>
<feOffset dx="3" dy="3"/>
<feGaussianBlur stdDeviation="2"/>
<feComposite in2="hardAlpha" operator="out"/>
<feColorMatrix type="matrix" values="0 0 0 0 0 0 0 0 0 0 0 0 0 0 0 0 0 0 0.25 0"/>
<feBlend mode="normal" in2="BackgroundImageFix" result="effect1_dropShadow_118:5684"/>
<feBlend mode="normal" in="SourceGraphic" in2="effect1_dropShadow_118:5684" result="shape"/>
</filter>
<filter id="filter19_ii_118:5684" x="5.91675" y="76.7456" width="67.9709" height="45.0264" filterUnits="userSpaceOnUse" color-interpolation-filters="sRGB">
<feFlood flood-opacity="0" result="BackgroundImageFix"/>
<feBlend mode="normal" in="SourceGraphic" in2="BackgroundImageFix" result="shape"/>
<feColorMatrix in="SourceAlpha" type="matrix" values="0 0 0 0 0 0 0 0 0 0 0 0 0 0 0 0 0 0 127 0" result="hardAlpha"/>
<feOffset dy="-3"/>
<feGaussianBlur stdDeviation="3"/>
<feComposite in2="hardAlpha" operator="arithmetic" k2="-1" k3="1"/>
<feColorMatrix type="matrix" values="0 0 0 0 0 0 0 0 0 0 0 0 0 0 0 0 0 0 0.5 0"/>
<feBlend mode="normal" in2="shape" result="effect1_innerShadow_118:5684"/>
<feColorMatrix in="SourceAlpha" type="matrix" values="0 0 0 0 0 0 0 0 0 0 0 0 0 0 0 0 0 0 127 0" result="hardAlpha"/>
<feOffset dy="2"/>
<feGaussianBlur stdDeviation="3"/>
<feComposite in2="hardAlpha" operator="arithmetic" k2="-1" k3="1"/>
<feColorMatrix type="matrix" values="0 0 0 0 0.945833 0 0 0 0 0.264045 0 0 0 0 0.298349 0 0 0 1 0"/>
<feBlend mode="normal" in2="effect1_innerShadow_118:5684" result="effect2_innerShadow_118:5684"/>
</filter>
<filter id="filter20_ii_118:5684" x="5.44995" y="79.5142" width="68.8945" height="41.4897" filterUnits="userSpaceOnUse" color-interpolation-filters="sRGB">
<feFlood flood-opacity="0" result="BackgroundImageFix"/>
<feBlend mode="normal" in="SourceGraphic" in2="BackgroundImageFix" result="shape"/>
<feColorMatrix in="SourceAlpha" type="matrix" values="0 0 0 0 0 0 0 0 0 0 0 0 0 0 0 0 0 0 127 0" result="hardAlpha"/>
<feOffset dy="-1"/>
<feGaussianBlur stdDeviation="1.5"/>
<feComposite in2="hardAlpha" operator="arithmetic" k2="-1" k3="1"/>
<feColorMatrix type="matrix" values="0 0 0 0 0 0 0 0 0 0 0 0 0 0 0 0 0 0 0.25 0"/>
<feBlend mode="normal" in2="shape" result="effect1_innerShadow_118:5684"/>
<feColorMatrix in="SourceAlpha" type="matrix" values="0 0 0 0 0 0 0 0 0 0 0 0 0 0 0 0 0 0 127 0" result="hardAlpha"/>
<feOffset dy="2"/>
<feGaussianBlur stdDeviation="1.5"/>
<feComposite in2="hardAlpha" operator="arithmetic" k2="-1" k3="1"/>
<feColorMatrix type="matrix" values="0 0 0 0 1 0 0 0 0 1 0 0 0 0 1 0 0 0 1 0"/>
<feBlend mode="normal" in2="effect1_innerShadow_118:5684" result="effect2_innerShadow_118:5684"/>
</filter>
<filter id="filter21_ii_118:5684" x="38.6992" y="8.01367" width="70.7747" height="37.6709" filterUnits="userSpaceOnUse" color-interpolation-filters="sRGB">
<feFlood flood-opacity="0" result="BackgroundImageFix"/>
<feBlend mode="normal" in="SourceGraphic" in2="BackgroundImageFix" result="shape"/>
<feColorMatrix in="SourceAlpha" type="matrix" values="0 0 0 0 0 0 0 0 0 0 0 0 0 0 0 0 0 0 127 0" result="hardAlpha"/>
<feOffset dy="-3"/>
<feGaussianBlur stdDeviation="3"/>
<feComposite in2="hardAlpha" operator="arithmetic" k2="-1" k3="1"/>
<feColorMatrix type="matrix" values="0 0 0 0 0 0 0 0 0 0 0 0 0 0 0 0 0 0 0.5 0"/>
<feBlend mode="normal" in2="shape" result="effect1_innerShadow_118:5684"/>
<feColorMatrix in="SourceAlpha" type="matrix" values="0 0 0 0 0 0 0 0 0 0 0 0 0 0 0 0 0 0 127 0" result="hardAlpha"/>
<feOffset dy="2"/>
<feGaussianBlur stdDeviation="3"/>
<feComposite in2="hardAlpha" operator="arithmetic" k2="-1" k3="1"/>
<feColorMatrix type="matrix" values="0 0 0 0 0.945833 0 0 0 0 0.264045 0 0 0 0 0.298349 0 0 0 1 0"/>
<feBlend mode="normal" in2="effect1_innerShadow_118:5684" result="effect2_innerShadow_118:5684"/>
</filter>
<filter id="filter22_ii_118:5684" x="38.2329" y="9.79688" width="71.7061" height="36.1006" filterUnits="userSpaceOnUse" color-interpolation-filters="sRGB">
<feFlood flood-opacity="0" result="BackgroundImageFix"/>
<feBlend mode="normal" in="SourceGraphic" in2="BackgroundImageFix" result="shape"/>
<feColorMatrix in="SourceAlpha" type="matrix" values="0 0 0 0 0 0 0 0 0 0 0 0 0 0 0 0 0 0 127 0" result="hardAlpha"/>
<feOffset dy="-1"/>
<feGaussianBlur stdDeviation="1.5"/>
<feComposite in2="hardAlpha" operator="arithmetic" k2="-1" k3="1"/>
<feColorMatrix type="matrix" values="0 0 0 0 0 0 0 0 0 0 0 0 0 0 0 0 0 0 0.25 0"/>
<feBlend mode="normal" in2="shape" result="effect1_innerShadow_118:5684"/>
<feColorMatrix in="SourceAlpha" type="matrix" values="0 0 0 0 0 0 0 0 0 0 0 0 0 0 0 0 0 0 127 0" result="hardAlpha"/>
<feOffset dy="2"/>
<feGaussianBlur stdDeviation="1.5"/>
<feComposite in2="hardAlpha" operator="arithmetic" k2="-1" k3="1"/>
<feColorMatrix type="matrix" values="0 0 0 0 1 0 0 0 0 1 0 0 0 0 1 0 0 0 1 0"/>
<feBlend mode="normal" in2="effect1_innerShadow_118:5684" result="effect2_innerShadow_118:5684"/>
</filter>
<filter id="filter23_d_118:5684" x="38.6992" y="0.0644531" width="70.7747" height="41.75" filterUnits="userSpaceOnUse" color-interpolation-filters="sRGB">
<feFlood flood-opacity="0" result="BackgroundImageFix"/>
<feColorMatrix in="SourceAlpha" type="matrix" values="0 0 0 0 0 0 0 0 0 0 0 0 0 0 0 0 0 0 127 0" result="hardAlpha"/>
<feOffset dy="1"/>
<feComposite in2="hardAlpha" operator="out"/>
<feColorMatrix type="matrix" values="0 0 0 0 0 0 0 0 0 0 0 0 0 0 0 0 0 0 0.25 0"/>
<feBlend mode="normal" in2="BackgroundImageFix" result="effect1_dropShadow_118:5684"/>
<feBlend mode="normal" in="SourceGraphic" in2="effect1_dropShadow_118:5684" result="shape"/>
</filter>
<filter id="filter24_ii_118:5684" x="38.6992" y="-2.93555" width="70.7747" height="37.6709" filterUnits="userSpaceOnUse" color-interpolation-filters="sRGB">
<feFlood flood-opacity="0" result="BackgroundImageFix"/>
<feBlend mode="normal" in="SourceGraphic" in2="BackgroundImageFix" result="shape"/>
<feColorMatrix in="SourceAlpha" type="matrix" values="0 0 0 0 0 0 0 0 0 0 0 0 0 0 0 0 0 0 127 0" result="hardAlpha"/>
<feOffset dy="-3"/>
<feGaussianBlur stdDeviation="3"/>
<feComposite in2="hardAlpha" operator="arithmetic" k2="-1" k3="1"/>
<feColorMatrix type="matrix" values="0 0 0 0 0 0 0 0 0 0 0 0 0 0 0 0 0 0 0.5 0"/>
<feBlend mode="normal" in2="shape" result="effect1_innerShadow_118:5684"/>
<feColorMatrix in="SourceAlpha" type="matrix" values="0 0 0 0 0 0 0 0 0 0 0 0 0 0 0 0 0 0 127 0" result="hardAlpha"/>
<feOffset dy="2"/>
<feGaussianBlur stdDeviation="3"/>
<feComposite in2="hardAlpha" operator="arithmetic" k2="-1" k3="1"/>
<feColorMatrix type="matrix" values="0 0 0 0 0.945833 0 0 0 0 0.264045 0 0 0 0 0.298349 0 0 0 1 0"/>
<feBlend mode="normal" in2="effect1_innerShadow_118:5684" result="effect2_innerShadow_118:5684"/>
</filter>
<filter id="filter25_ii_118:5684" x="38.2329" y="-1.15039" width="71.7061" height="36.1006" filterUnits="userSpaceOnUse" color-interpolation-filters="sRGB">
<feFlood flood-opacity="0" result="BackgroundImageFix"/>
<feBlend mode="normal" in="SourceGraphic" in2="BackgroundImageFix" result="shape"/>
<feColorMatrix in="SourceAlpha" type="matrix" values="0 0 0 0 0 0 0 0 0 0 0 0 0 0 0 0 0 0 127 0" result="hardAlpha"/>
<feOffset dy="-1"/>
<feGaussianBlur stdDeviation="1.5"/>
<feComposite in2="hardAlpha" operator="arithmetic" k2="-1" k3="1"/>
<feColorMatrix type="matrix" values="0 0 0 0 0 0 0 0 0 0 0 0 0 0 0 0 0 0 0.25 0"/>
<feBlend mode="normal" in2="shape" result="effect1_innerShadow_118:5684"/>
<feColorMatrix in="SourceAlpha" type="matrix" values="0 0 0 0 0 0 0 0 0 0 0 0 0 0 0 0 0 0 127 0" result="hardAlpha"/>
<feOffset dy="2"/>
<feGaussianBlur stdDeviation="1.5"/>
<feComposite in2="hardAlpha" operator="arithmetic" k2="-1" k3="1"/>
<feColorMatrix type="matrix" values="0 0 0 0 1 0 0 0 0 1 0 0 0 0 1 0 0 0 1 0"/>
<feBlend mode="normal" in2="effect1_innerShadow_118:5684" result="effect2_innerShadow_118:5684"/>
</filter>
<linearGradient id="paint0_linear_118:5684" x1="71.8398" y1="46.9251" x2="71.8398" y2="117.7" gradientUnits="userSpaceOnUse">
<stop stop-color="#8F000E"/>
<stop offset="1" stop-color="#C5252D"/>
</linearGradient>
<linearGradient id="paint1_linear_118:5684" x1="71.8398" y1="46.9251" x2="71.8398" y2="117.7" gradientUnits="userSpaceOnUse">
<stop stop-color="#8F000E"/>
<stop offset="1" stop-color="#C5252D"/>
</linearGradient>
<linearGradient id="paint2_linear_118:5684" x1="42.0355" y1="82.3104" x2="101.635" y2="82.3104" gradientUnits="userSpaceOnUse">
<stop stop-color="#F2F2F2"/>
<stop offset="1" stop-color="#E2E2E2"/>
</linearGradient>
<linearGradient id="paint3_linear_118:5684" x1="71.8375" y1="53.8147" x2="71.8375" y2="110.812" gradientUnits="userSpaceOnUse">
<stop stop-color="#600009"/>
<stop offset="1" stop-color="#AB0E16"/>
</linearGradient>
<linearGradient id="paint4_linear_118:5684" x1="44.8975" y1="82.3154" x2="98.7667" y2="82.3154" gradientUnits="userSpaceOnUse">
<stop stop-color="#C2C2C2"/>
<stop offset="1" stop-color="#F2F2F2"/>
</linearGradient>
<linearGradient id="paint5_linear_118:5684" x1="71.8403" y1="56.0503" x2="71.8403" y2="108.569" gradientUnits="userSpaceOnUse">
<stop stop-color="#8F000E"/>
<stop offset="1" stop-color="#C5252D"/>
</linearGradient>
<linearGradient id="paint6_linear_118:5684" x1="74.0866" y1="37.1932" x2="74.0866" y2="107.968" gradientUnits="userSpaceOnUse">
<stop stop-color="#8F000E"/>
<stop offset="1" stop-color="#C5252D"/>
</linearGradient>
<linearGradient id="paint7_linear_118:5684" x1="74.0866" y1="37.1932" x2="74.0866" y2="107.968" gradientUnits="userSpaceOnUse">
<stop stop-color="#8F000E"/>
<stop offset="1" stop-color="#C5252D"/>
</linearGradient>
<linearGradient id="paint8_linear_118:5684" x1="44.286" y1="72.579" x2="103.886" y2="72.579" gradientUnits="userSpaceOnUse">
<stop stop-color="#F2F2F2"/>
<stop offset="1" stop-color="#E2E2E2"/>
</linearGradient>
<linearGradient id="paint9_linear_118:5684" x1="74.0807" y1="44.0813" x2="74.0807" y2="101.079" gradientUnits="userSpaceOnUse">
<stop stop-color="#600009"/>
<stop offset="1" stop-color="#AB0E16"/>
</linearGradient>
<linearGradient id="paint10_linear_118:5684" x1="47.1453" y1="72.58" x2="101.015" y2="72.58" gradientUnits="userSpaceOnUse">
<stop stop-color="#C2C2C2"/>
<stop offset="1" stop-color="#F2F2F2"/>
</linearGradient>
<linearGradient id="paint11_linear_118:5684" x1="74.0881" y1="46.3188" x2="74.0881" y2="98.8374" gradientUnits="userSpaceOnUse">
<stop stop-color="#8F000E"/>
<stop offset="1" stop-color="#C5252D"/>
</linearGradient>
<linearGradient id="paint12_linear_118:5684" x1="74.0866" y1="27.4608" x2="74.0866" y2="98.2355" gradientUnits="userSpaceOnUse">
<stop stop-color="#8F000E"/>
<stop offset="1" stop-color="#C5252D"/>
</linearGradient>
<linearGradient id="paint13_linear_118:5684" x1="74.0866" y1="27.4608" x2="74.0866" y2="98.2355" gradientUnits="userSpaceOnUse">
<stop stop-color="#8F000E"/>
<stop offset="1" stop-color="#C5252D"/>
</linearGradient>
<linearGradient id="paint14_linear_118:5684" x1="44.286" y1="62.8451" x2="103.886" y2="62.8451" gradientUnits="userSpaceOnUse">
<stop stop-color="#F2F2F2"/>
<stop offset="1" stop-color="#E2E2E2"/>
</linearGradient>
<linearGradient id="paint15_linear_118:5684" x1="74.0807" y1="34.3474" x2="74.0807" y2="91.3447" gradientUnits="userSpaceOnUse">
<stop stop-color="#600009"/>
<stop offset="1" stop-color="#AB0E16"/>
</linearGradient>
<linearGradient id="paint16_linear_118:5684" x1="47.1453" y1="62.8481" x2="101.015" y2="62.8481" gradientUnits="userSpaceOnUse">
<stop stop-color="#C2C2C2"/>
<stop offset="1" stop-color="#F2F2F2"/>
</linearGradient>
<linearGradient id="paint17_linear_118:5684" x1="74.0881" y1="36.5869" x2="74.0881" y2="89.1054" gradientUnits="userSpaceOnUse">
<stop stop-color="#8F000E"/>
<stop offset="1" stop-color="#C5252D"/>
</linearGradient>
<linearGradient id="paint18_linear_118:5684" x1="74.0866" y1="16.5135" x2="74.0866" y2="87.2883" gradientUnits="userSpaceOnUse">
<stop stop-color="#8F000E"/>
<stop offset="1" stop-color="#C5252D"/>
</linearGradient>
<linearGradient id="paint19_linear_118:5684" x1="74.0866" y1="16.5135" x2="74.0866" y2="87.2883" gradientUnits="userSpaceOnUse">
<stop stop-color="#8F000E"/>
<stop offset="1" stop-color="#C5252D"/>
</linearGradient>
<linearGradient id="paint20_linear_118:5684" x1="44.286" y1="51.9013" x2="103.886" y2="51.9013" gradientUnits="userSpaceOnUse">
<stop stop-color="#F2F2F2"/>
<stop offset="1" stop-color="#E2E2E2"/>
</linearGradient>
<linearGradient id="paint21_linear_118:5684" x1="74.0807" y1="23.4055" x2="74.0807" y2="80.4028" gradientUnits="userSpaceOnUse">
<stop stop-color="#600009"/>
<stop offset="1" stop-color="#AB0E16"/>
</linearGradient>
<linearGradient id="paint22_linear_118:5684" x1="47.1453" y1="51.9023" x2="101.015" y2="51.9023" gradientUnits="userSpaceOnUse">
<stop stop-color="#C2C2C2"/>
<stop offset="1" stop-color="#F2F2F2"/>
</linearGradient>
<linearGradient id="paint23_linear_118:5684" x1="74.0881" y1="25.6411" x2="74.0881" y2="78.1596" gradientUnits="userSpaceOnUse">
<stop stop-color="#8F000E"/>
<stop offset="1" stop-color="#C5252D"/>
</linearGradient>
<linearGradient id="paint24_linear_118:5684" x1="67.3459" y1="1.91584" x2="67.3459" y2="72.6906" gradientUnits="userSpaceOnUse">
<stop stop-color="#8F000E"/>
<stop offset="1" stop-color="#C5252D"/>
</linearGradient>
<linearGradient id="paint25_linear_118:5684" x1="67.3459" y1="1.91584" x2="67.3459" y2="72.6906" gradientUnits="userSpaceOnUse">
<stop stop-color="#8F000E"/>
<stop offset="1" stop-color="#C5252D"/>
</linearGradient>
<linearGradient id="paint26_linear_118:5684" x1="37.5397" y1="37.3031" x2="97.1395" y2="37.3031" gradientUnits="userSpaceOnUse">
<stop stop-color="#F2F2F2"/>
<stop offset="1" stop-color="#E2E2E2"/>
</linearGradient>
<linearGradient id="paint27_linear_118:5684" x1="67.3409" y1="8.80394" x2="67.3409" y2="65.8013" gradientUnits="userSpaceOnUse">
<stop stop-color="#600009"/>
<stop offset="1" stop-color="#AB0E16"/>
</linearGradient>
<linearGradient id="paint28_linear_118:5684" x1="40.4036" y1="37.3042" x2="94.2728" y2="37.3042" gradientUnits="userSpaceOnUse">
<stop stop-color="#C2C2C2"/>
<stop offset="1" stop-color="#F2F2F2"/>
</linearGradient>
<linearGradient id="paint29_linear_118:5684" x1="67.3435" y1="11.039" x2="67.3435" y2="63.5576" gradientUnits="userSpaceOnUse">
<stop stop-color="#8F000E"/>
<stop offset="1" stop-color="#C5252D"/>
</linearGradient>
<linearGradient id="paint30_linear_118:5684" x1="90.9379" y1="70.0374" x2="90.9379" y2="140.812" gradientUnits="userSpaceOnUse">
<stop stop-color="#8F000E"/>
<stop offset="1" stop-color="#C5252D"/>
</linearGradient>
<linearGradient id="paint31_linear_118:5684" x1="90.9379" y1="70.0374" x2="90.9379" y2="140.812" gradientUnits="userSpaceOnUse">
<stop stop-color="#8F000E"/>
<stop offset="1" stop-color="#C5252D"/>
</linearGradient>
<linearGradient id="paint32_linear_118:5684" x1="61.1344" y1="105.424" x2="120.734" y2="105.424" gradientUnits="userSpaceOnUse">
<stop stop-color="#F2F2F2"/>
<stop offset="1" stop-color="#E2E2E2"/>
</linearGradient>
<linearGradient id="paint33_linear_118:5684" x1="90.9347" y1="76.925" x2="90.9347" y2="133.922" gradientUnits="userSpaceOnUse">
<stop stop-color="#600009"/>
<stop offset="1" stop-color="#AB0E16"/>
</linearGradient>
<linearGradient id="paint34_linear_118:5684" x1="63.9954" y1="105.426" x2="117.865" y2="105.426" gradientUnits="userSpaceOnUse">
<stop stop-color="#C2C2C2"/>
<stop offset="1" stop-color="#F2F2F2"/>
</linearGradient>
<linearGradient id="paint35_linear_118:5684" x1="90.9385" y1="79.1611" x2="90.9385" y2="131.68" gradientUnits="userSpaceOnUse">
<stop stop-color="#8F000E"/>
<stop offset="1" stop-color="#C5252D"/>
</linearGradient>
<linearGradient id="paint36_linear_118:5684" x1="15.4883" y1="0" x2="15.4883" y2="72.4795" gradientUnits="userSpaceOnUse">
<stop stop-color="#8F000E"/>
<stop offset="1" stop-color="#C5252D"/>
</linearGradient>
<linearGradient id="paint37_linear_118:5684" x1="15.4434" y1="0" x2="15.4434" y2="72.5386" gradientUnits="userSpaceOnUse">
<stop stop-color="#8F000E"/>
<stop offset="1" stop-color="#C5252D"/>
</linearGradient>
<linearGradient id="paint38_linear_118:5684" x1="11.5477" y1="111.187" x2="69.5885" y2="92.4985" gradientUnits="userSpaceOnUse">
<stop stop-color="#F2F2F2"/>
<stop offset="1" stop-color="#E2E2E2"/>
</linearGradient>
<linearGradient id="paint39_linear_118:5684" x1="10.563" y1="0" x2="10.563" y2="58.28" gradientUnits="userSpaceOnUse">
<stop stop-color="#600009"/>
<stop offset="1" stop-color="#AB0E16"/>
</linearGradient>
<linearGradient id="paint40_linear_118:5684" x1="14.321" y1="110.014" x2="66.6353" y2="93.1204" gradientUnits="userSpaceOnUse">
<stop stop-color="#C2C2C2"/>
<stop offset="1" stop-color="#F2F2F2"/>
</linearGradient>
<linearGradient id="paint41_linear_118:5684" x1="9.33668" y1="0" x2="9.33668" y2="53.6808" gradientUnits="userSpaceOnUse">
<stop stop-color="#8F000E"/>
<stop offset="1" stop-color="#C5252D"/>
</linearGradient>
<linearGradient id="paint42_linear_118:5684" x1="74.0866" y1="-8.03825" x2="74.0866" y2="62.7365" gradientUnits="userSpaceOnUse">
<stop stop-color="#8F000E"/>
<stop offset="1" stop-color="#C5252D"/>
</linearGradient>
<linearGradient id="paint43_linear_118:5684" x1="74.0866" y1="-8.03825" x2="74.0866" y2="62.7365" gradientUnits="userSpaceOnUse">
<stop stop-color="#8F000E"/>
<stop offset="1" stop-color="#C5252D"/>
</linearGradient>
<linearGradient id="paint44_linear_118:5684" x1="44.286" y1="27.3471" x2="103.886" y2="27.3471" gradientUnits="userSpaceOnUse">
<stop stop-color="#F2F2F2"/>
<stop offset="1" stop-color="#E2E2E2"/>
</linearGradient>
<linearGradient id="paint45_linear_118:5684" x1="74.0807" y1="-1.14869" x2="74.0807" y2="55.8486" gradientUnits="userSpaceOnUse">
<stop stop-color="#600009"/>
<stop offset="1" stop-color="#AB0E16"/>
</linearGradient>
<linearGradient id="paint46_linear_118:5684" x1="47.1453" y1="27.3501" x2="101.015" y2="27.3501" gradientUnits="userSpaceOnUse">
<stop stop-color="#C2C2C2"/>
<stop offset="1" stop-color="#F2F2F2"/>
</linearGradient>
<linearGradient id="paint47_linear_118:5684" x1="74.0881" y1="1.08883" x2="74.0881" y2="53.6074" gradientUnits="userSpaceOnUse">
<stop stop-color="#8F000E"/>
<stop offset="1" stop-color="#C5252D"/>
</linearGradient>
<linearGradient id="paint48_linear_118:5684" x1="74.0866" y1="-18.9875" x2="74.0866" y2="51.7873" gradientUnits="userSpaceOnUse">
<stop stop-color="#8F000E"/>
<stop offset="1" stop-color="#C5252D"/>
</linearGradient>
<linearGradient id="paint49_linear_118:5684" x1="74.0866" y1="-18.9875" x2="74.0866" y2="51.7873" gradientUnits="userSpaceOnUse">
<stop stop-color="#8F000E"/>
<stop offset="1" stop-color="#C5252D"/>
</linearGradient>
<linearGradient id="paint50_linear_118:5684" x1="44.286" y1="16.3998" x2="103.886" y2="16.3998" gradientUnits="userSpaceOnUse">
<stop stop-color="#F2F2F2"/>
<stop offset="1" stop-color="#E2E2E2"/>
</linearGradient>
<linearGradient id="paint51_linear_118:5684" x1="74.0807" y1="-12.0955" x2="74.0807" y2="44.9018" gradientUnits="userSpaceOnUse">
<stop stop-color="#600009"/>
<stop offset="1" stop-color="#AB0E16"/>
</linearGradient>
<linearGradient id="paint52_linear_118:5684" x1="47.1453" y1="16.4008" x2="101.015" y2="16.4008" gradientUnits="userSpaceOnUse">
<stop stop-color="#C2C2C2"/>
<stop offset="1" stop-color="#F2F2F2"/>
</linearGradient>
<linearGradient id="paint53_linear_118:5684" x1="74.0881" y1="-9.85991" x2="74.0881" y2="42.6587" gradientUnits="userSpaceOnUse">
<stop stop-color="#8F000E"/>
<stop offset="1" stop-color="#C5252D"/>
</linearGradient>
</defs>
</svg>
