<svg width="48" height="48" viewBox="0 0 48 48" fill="none" xmlns="http://www.w3.org/2000/svg">
<rect width="48" height="48" rx="24" fill="#538CC1"/>
<path fill-rule="evenodd" clip-rule="evenodd" d="M9.5938 22.0546L35.1595 12.0919C36.1325 11.7128 37.1382 12.5644 36.9244 13.5866L32.5596 34.455C32.3548 35.4343 31.2062 35.8741 30.3997 35.2821L23.8093 30.4446L20.4504 33.8742C19.8609 34.4761 18.8426 34.2325 18.5893 33.4289L16.1648 25.7357L9.66829 23.8173C8.81589 23.5656 8.76572 22.3773 9.5938 22.0546ZM20.0791 27.2243L31.9542 16.7232C32.2385 16.4718 31.9083 16.0279 31.5859 16.228L17.5626 24.9254C17.3157 25.0785 17.2034 25.3792 17.2895 25.6567L19.1706 31.718C19.2102 31.8453 19.3957 31.8278 19.4106 31.6952L19.8678 27.6309C19.8854 27.4739 19.9607 27.329 20.0791 27.2243Z" fill="white"/>
</svg>
