<svg width="48" height="48" viewBox="0 0 48 48" fill="none" xmlns="http://www.w3.org/2000/svg">
<rect width="48" height="48" rx="23.9858" fill="#7D3DAF"/>
<path fill-rule="evenodd" clip-rule="evenodd" d="M39.1711 16.4351L39.1805 16.473C40.1285 20.8019 40.1285 25.1918 39.1805 29.5208L39.1711 29.5587C38.4043 32.6585 34.9475 35.9846 31.773 36.6766L31.7372 36.684C29.1704 37.1737 26.5847 37.4181 24 37.4181C23.2392 37.4181 22.4785 37.3944 21.7181 37.3519L18.2124 40.996C17.3445 41.8997 15.8183 41.2846 15.8183 40.0323V36.5721C12.7623 35.6994 9.56296 32.5261 8.82789 29.5586L8.81947 29.5207C7.87154 25.1918 7.87154 20.8019 8.81947 16.473L8.82789 16.4351C9.59571 13.3354 13.0525 10.0092 16.2259 9.31721L16.2628 9.30984C21.3964 8.33031 26.6026 8.33031 31.7372 9.30984L31.773 9.31721C34.9475 10.0092 38.4043 13.3354 39.1711 16.4351ZM31.1843 33.894C33.2697 33.4295 35.8944 30.9154 36.4063 28.8931C37.2604 24.9803 37.2604 21.0137 36.4063 17.1008C35.8944 15.0786 33.2708 12.5644 31.1843 12.1C26.4173 11.1931 21.5828 11.1931 16.8148 12.1C14.7293 12.5644 12.1057 15.0786 11.5927 17.1008C10.7396 21.0136 10.7396 24.9802 11.5927 28.893C12.1057 30.9153 14.7293 33.4294 16.8148 33.8939L16.8163 33.8942C16.9093 33.9124 16.977 33.9929 16.977 34.0876V39.8196C16.977 40.1061 17.3266 40.2472 17.5257 40.0397L20.2484 37.2454L22.8081 34.6178C22.8462 34.5786 22.8988 34.5574 22.9534 34.5589C25.7024 34.635 28.4541 34.4131 31.1843 33.894Z" fill="white"/>
<path d="M28.5365 31.5388C28.2159 31.4415 27.9104 31.3761 27.6266 31.2583C24.6864 30.0385 21.9803 28.4647 19.8369 26.0522C18.6179 24.6803 17.6639 23.1315 16.8574 21.4925C16.475 20.7152 16.1527 19.9074 15.8242 19.105C15.5246 18.3732 15.9659 17.6171 16.4304 17.0658C16.8664 16.5483 17.4273 16.1523 18.0349 15.8604C18.509 15.6326 18.9768 15.7639 19.3231 16.1659C20.0717 17.0348 20.7594 17.9482 21.3163 18.9554C21.6587 19.5749 21.5647 20.3322 20.9442 20.7538C20.7933 20.8563 20.6559 20.9766 20.5154 21.0923C20.3921 21.1938 20.2762 21.2962 20.1917 21.4336C20.0373 21.6849 20.0299 21.9813 20.1294 22.2545C20.8947 24.3576 22.1846 25.993 24.3014 26.8739C24.6401 27.0148 24.9803 27.1789 25.3706 27.1334C26.0241 27.057 26.2357 26.3402 26.6937 25.9656C27.1413 25.5996 27.7133 25.5948 28.1955 25.8999C28.6778 26.2051 29.1453 26.5328 29.61 26.864C30.0662 27.189 30.5203 27.507 30.9411 27.8775C31.3457 28.2338 31.485 28.7012 31.2572 29.1848C30.8401 30.0704 30.2332 30.8071 29.3578 31.2774C29.1106 31.41 28.8153 31.453 28.5365 31.5388C28.2159 31.4414 28.8153 31.453 28.5365 31.5388Z" fill="white"/>
<path d="M24.0081 14.8483C27.854 14.956 31.0128 17.5084 31.6898 21.3106C31.8051 21.9585 31.8462 22.6209 31.8975 23.2784C31.9191 23.555 31.7624 23.8178 31.4639 23.8214C31.1557 23.825 31.0169 23.5671 30.9969 23.2906C30.9573 22.7434 30.9298 22.1937 30.8544 21.6509C30.4563 18.786 28.1718 16.4157 25.3201 15.9071C24.891 15.8305 24.4518 15.8104 24.0171 15.7648C23.7423 15.736 23.3824 15.7193 23.3216 15.3778C23.2705 15.0914 23.5122 14.8633 23.7849 14.8487C23.859 14.8446 23.9336 14.848 24.0081 14.8483C27.854 14.956 23.9336 14.848 24.0081 14.8483Z" fill="white"/>
<path d="M29.8527 22.4246C29.8464 22.4727 29.843 22.5856 29.8149 22.692C29.7128 23.0781 29.1274 23.1264 28.9926 22.7367C28.9527 22.6211 28.9467 22.4895 28.9465 22.365C28.9451 21.5504 28.768 20.7367 28.3573 20.028C27.935 19.2995 27.2899 18.6872 26.5333 18.3166C26.0757 18.0926 25.5809 17.9534 25.0794 17.8704C24.8603 17.8342 24.6388 17.8121 24.4185 17.7815C24.1516 17.7444 24.0091 17.5743 24.0218 17.3113C24.0336 17.0649 24.2137 16.8876 24.4823 16.9028C25.3649 16.9529 26.2174 17.1436 27.0021 17.5591C28.5977 18.4042 29.5092 19.738 29.7753 21.5191C29.7873 21.5997 29.8067 21.6797 29.8128 21.7607C29.8278 21.9607 29.8373 22.1609 29.8527 22.4246C29.8464 22.4727 29.8373 22.1609 29.8527 22.4246Z" fill="white"/>
<path d="M27.4606 22.3315C27.1389 22.3373 26.9667 22.1592 26.9335 21.8642C26.9104 21.6585 26.8922 21.4501 26.8431 21.2499C26.7464 20.8558 26.5369 20.4906 26.2054 20.249C26.0489 20.135 25.8715 20.0519 25.6857 19.9983C25.4497 19.9301 25.2046 19.9489 24.9691 19.8911C24.7133 19.8285 24.5719 19.6214 24.6121 19.3815C24.6487 19.1631 24.8611 18.9927 25.0997 19.01C26.5908 19.1176 27.6564 19.8885 27.8085 21.6439C27.8193 21.7677 27.8319 21.8986 27.8044 22.0171C27.7573 22.22 27.6072 22.3216 27.4606 22.3315C27.1389 22.3373 27.6072 22.3216 27.4606 22.3315Z" fill="white"/>
</svg>
