<svg width="48" height="48" viewBox="0 0 48 48" fill="none" xmlns="http://www.w3.org/2000/svg">
<path d="M24.006 0H23.994C10.761 0 0 10.764 0 24C0 29.25 1.692 34.116 4.569 38.067L1.578 46.983L10.803 44.034C14.598 46.548 19.125 48 24.006 48C37.239 48 48 37.233 48 24C48 10.767 37.239 0 24.006 0Z" fill="#458E5D"/>
<path d="M37.971 33.8911C37.392 35.5261 35.094 36.8821 33.261 37.2781C32.007 37.5451 30.369 37.7581 24.855 35.4721C17.802 32.5501 13.26 25.3831 12.906 24.9181C12.567 24.4531 10.056 21.1231 10.056 17.6791C10.056 14.2351 11.805 12.5581 12.51 11.8381C13.089 11.2471 14.046 10.9771 14.964 10.9771C15.261 10.9771 15.528 10.9921 15.768 11.0041C16.473 11.0341 16.827 11.0761 17.292 12.1891C17.871 13.5841 19.281 17.0281 19.449 17.3821C19.62 17.7361 19.791 18.2161 19.551 18.6811C19.326 19.1611 19.128 19.3741 18.774 19.7821C18.42 20.1901 18.084 20.5021 17.73 20.9401C17.406 21.3211 17.04 21.7291 17.448 22.4341C17.856 23.1241 19.266 25.4251 21.342 27.2731C24.021 29.6581 26.193 30.4201 26.97 30.7441C27.549 30.9841 28.239 30.9271 28.662 30.4771C29.199 29.8981 29.862 28.9381 30.537 27.9931C31.017 27.3151 31.623 27.2311 32.259 27.4711C32.907 27.6961 36.336 29.3911 37.041 29.7421C37.746 30.0961 38.211 30.264 38.382 30.5611C38.55 30.8581 38.55 32.253 37.971 33.8911Z" fill="#FAFAFA"/>
</svg>
