<svg width="117" height="127" viewBox="0 0 117 127" fill="none" xmlns="http://www.w3.org/2000/svg">
<path fill-rule="evenodd" clip-rule="evenodd" d="M85.4682 23.4331C90.8144 21.5563 93.903 15.9134 92.4289 10.4296C90.8805 4.6695 84.8841 1.26628 79.0356 2.82834C75.7604 3.70311 73.5539 6.08097 71.9019 8.76861L57.9569 30.8151L84.6508 23.6514L85.4682 23.4331Z" stroke="#02221F" stroke-width="3"/>
<path fill-rule="evenodd" clip-rule="evenodd" d="M31.7266 23.4331C26.3805 21.5563 23.2918 15.9134 24.7659 10.4296C26.3143 4.6695 32.3107 1.26628 38.1592 2.82834C41.4345 3.70311 43.6409 6.08097 45.2929 8.76861L59.2379 30.8151L32.544 23.6514L31.7266 23.4331Z" stroke="#02221F" stroke-width="3"/>
<rect x="9.06982" y="28.9856" width="99.7674" height="96.0145" rx="7" fill="#FC525A" stroke="#02221F" stroke-width="3"/>
<rect x="54.4189" y="28.2659" width="9.06977" height="95.8301" fill="white"/>
<rect x="107.023" y="74.2754" width="9.05797" height="96.1395" transform="rotate(90 107.023 74.2754)" fill="white"/>
<rect x="1.5" y="27.9578" width="114" height="20.5055" rx="2.5" fill="#FC525A" stroke="#02221F" stroke-width="3"/>
<rect x="54.4189" y="29.8914" width="9.06977" height="16.3043" fill="white"/>
</svg>
