<svg width="244" height="167" viewBox="0 0 244 167" fill="none" xmlns="http://www.w3.org/2000/svg">
<rect x="22.25" y="2.25" width="219.5" height="146.5" rx="7.75" fill="#97EAF2" stroke="#02221F" stroke-width="3.5"/>
<rect x="2.25" y="17.7255" width="219.382" height="146.648" rx="7.75" fill="white" stroke="#02221F" stroke-width="3.5"/>
<path d="M23.1541 39.2671C23.7205 39.4621 24.1616 39.7685 24.4773 40.1863C24.8023 40.5949 24.9648 41.0731 24.9648 41.6209C24.9648 42.2152 24.7698 42.7305 24.3798 43.1669C23.9898 43.6033 23.4606 43.9376 22.792 44.1697C22.1328 44.4018 21.4085 44.5179 20.6193 44.5179C19.9507 44.5179 19.2822 44.4343 18.6137 44.2672C17.9544 44.1001 17.3277 43.8447 16.7334 43.5012L17.4298 41.8855C17.8569 42.1455 18.3258 42.3451 18.8365 42.4844C19.3565 42.6144 19.8625 42.6794 20.3546 42.6794C21.0232 42.6794 21.5757 42.5587 22.0121 42.3173C22.4578 42.0759 22.6806 41.737 22.6806 41.3006C22.6806 40.9384 22.5274 40.6645 22.221 40.4788C21.9239 40.2931 21.5153 40.2003 20.9953 40.2003H18.6137V38.5011H20.8282C21.2832 38.5011 21.636 38.4082 21.8867 38.2225C22.1467 38.0368 22.2767 37.7814 22.2767 37.4565C22.2767 37.0758 22.091 36.7786 21.7196 36.5651C21.3575 36.3515 20.8885 36.2447 20.3129 36.2447C19.8857 36.2447 19.4447 36.3051 18.9897 36.4258C18.5347 36.5372 18.103 36.709 17.6944 36.9411L17.012 35.1862C18.0426 34.657 19.1568 34.3923 20.3546 34.3923C21.116 34.3923 21.8171 34.5038 22.4578 34.7266C23.0984 34.9494 23.6091 35.2744 23.9898 35.7016C24.3705 36.1287 24.5609 36.6254 24.5609 37.1918C24.5609 37.6561 24.4355 38.0693 24.1848 38.4314C23.9341 38.7935 23.5906 39.0721 23.1541 39.2671Z" fill="#02221F"/>
<path d="M29.4948 36.7461C30.6555 36.7461 31.5468 37.0247 32.169 37.5818C32.7911 38.1296 33.1021 38.9607 33.1021 40.0749V44.3508H31.0687V43.4176C30.6601 44.114 29.8987 44.4622 28.7845 44.4622C28.2088 44.4622 27.7074 44.3647 27.2803 44.1697C26.8624 43.9747 26.5421 43.7054 26.3193 43.3619C26.0964 43.0183 25.985 42.6283 25.985 42.1919C25.985 41.4955 26.245 40.9477 26.7649 40.5485C27.2942 40.1492 28.1067 39.9496 29.2023 39.9496H30.9294C30.9294 39.476 30.7855 39.1139 30.4976 38.8632C30.2098 38.6032 29.778 38.4732 29.2023 38.4732C28.8031 38.4732 28.4084 38.5382 28.0185 38.6682C27.6378 38.7889 27.3128 38.956 27.0435 39.1696L26.2635 37.6515C26.6721 37.3636 27.1596 37.1408 27.726 36.9829C28.3017 36.8251 28.8913 36.7461 29.4948 36.7461ZM29.3277 42.9998C29.6991 42.9998 30.0287 42.9162 30.3166 42.7491C30.6044 42.5726 30.8087 42.3173 30.9294 41.983V41.217H29.4391C28.5477 41.217 28.102 41.5095 28.102 42.0944C28.102 42.373 28.2088 42.5958 28.4224 42.763C28.6452 42.9208 28.947 42.9998 29.3277 42.9998Z" fill="#02221F"/>
<path d="M43.3881 42.568V45.9664H41.3685V44.3508H36.1038V45.9664H34.0843V42.568H34.3907C34.8549 42.5587 35.1753 42.2848 35.3517 41.7462C35.5281 41.2077 35.6395 40.4417 35.686 39.4482L35.7835 36.8576H42.3156V42.568H43.3881ZM37.6498 39.6014C37.6219 40.3627 37.5616 40.9849 37.4687 41.4677C37.3852 41.9505 37.2227 42.3173 36.9813 42.568H40.1429V38.6403H37.6916L37.6498 39.6014Z" fill="#02221F"/>
<path d="M47.6663 36.7461C48.827 36.7461 49.7184 37.0247 50.3405 37.5818C50.9626 38.1296 51.2736 38.9607 51.2736 40.0749V44.3508H49.2402V43.4176C48.8316 44.114 48.0702 44.4622 46.956 44.4622C46.3803 44.4622 45.8789 44.3647 45.4518 44.1697C45.034 43.9747 44.7136 43.7054 44.4908 43.3619C44.2679 43.0183 44.1565 42.6283 44.1565 42.1919C44.1565 41.4955 44.4165 40.9477 44.9365 40.5485C45.4657 40.1492 46.2782 39.9496 47.3738 39.9496H49.1009C49.1009 39.476 48.957 39.1139 48.6691 38.8632C48.3813 38.6032 47.9495 38.4732 47.3738 38.4732C46.9746 38.4732 46.58 38.5382 46.19 38.6682C45.8093 38.7889 45.4843 38.956 45.215 39.1696L44.4351 37.6515C44.8436 37.3636 45.3311 37.1408 45.8975 36.9829C46.4732 36.8251 47.0628 36.7461 47.6663 36.7461ZM47.4992 42.9998C47.8706 42.9998 48.2002 42.9162 48.4881 42.7491C48.7759 42.5726 48.9802 42.3173 49.1009 41.983V41.217H47.6106C46.7192 41.217 46.2735 41.5095 46.2735 42.0944C46.2735 42.373 46.3803 42.5958 46.5939 42.763C46.8167 42.9208 47.1185 42.9998 47.4992 42.9998Z" fill="#02221F"/>
<path d="M53.1611 36.8576H55.3199V39.7824H58.579V36.8576H60.7518V44.3508H58.579V41.5513H55.3199V44.3508H53.1611V36.8576Z" fill="#02221F"/>
<path d="M62.8317 36.8576H64.9905V41.3145L68.6396 36.8576H70.6313V44.3508H68.4725V39.8938L64.8373 44.3508H62.8317V36.8576Z" fill="#02221F"/>
<path d="M80.0042 40.632C80.0042 40.6599 79.9903 40.8549 79.9624 41.217H74.2938C74.3959 41.6813 74.6374 42.048 75.0181 42.3173C75.3987 42.5866 75.8723 42.7212 76.4387 42.7212C76.8287 42.7212 77.1722 42.6655 77.4694 42.5541C77.7758 42.4334 78.059 42.2477 78.319 41.997L79.475 43.2505C78.7693 44.0583 77.7386 44.4622 76.383 44.4622C75.538 44.4622 74.7906 44.2997 74.1406 43.9747C73.4906 43.6404 72.9892 43.1808 72.6364 42.5958C72.2835 42.0109 72.1071 41.347 72.1071 40.6042C72.1071 39.8706 72.2789 39.2114 72.6225 38.6264C72.9753 38.0322 73.4535 37.5725 74.057 37.2475C74.6699 36.9133 75.3523 36.7461 76.1044 36.7461C76.838 36.7461 77.5019 36.904 78.0961 37.2197C78.6904 37.5354 79.1546 37.9904 79.4889 38.5846C79.8325 39.1696 80.0042 39.8521 80.0042 40.632ZM76.1183 38.3896C75.6262 38.3896 75.213 38.5289 74.8788 38.8075C74.5445 39.086 74.3402 39.4667 74.2659 39.9496H77.9568C77.8825 39.476 77.6783 39.1 77.344 38.8214C77.0097 38.5336 76.6012 38.3896 76.1183 38.3896Z" fill="#02221F"/>
<path d="M88.8732 34.6013V44.3508H86.6169V36.4119H84.667V34.6013H88.8732Z" fill="#02221F"/>
<path d="M21.3485 65.7344C21.8004 65.8272 22.1439 66.0098 22.3792 66.2822C22.6144 66.5484 22.732 66.8981 22.732 67.3314C22.732 67.8947 22.5308 68.3281 22.1285 68.6314C21.7323 68.9347 21.1473 69.0864 20.3735 69.0864H17.4951V62.5867H20.1971C20.8904 62.5867 21.4321 62.7291 21.822 63.0138C22.212 63.2985 22.407 63.7102 22.407 64.2487C22.407 64.614 22.3142 64.9235 22.1285 65.1773C21.9427 65.4249 21.6828 65.6106 21.3485 65.7344ZM18.1729 65.5301H20.16C20.6614 65.5301 21.0452 65.428 21.3114 65.2237C21.5837 65.0194 21.7199 64.7223 21.7199 64.3323C21.7199 63.9423 21.5837 63.6452 21.3114 63.4409C21.0452 63.2366 20.6614 63.1345 20.16 63.1345H18.1729V65.5301ZM20.3735 68.5385C21.494 68.5385 22.0542 68.1207 22.0542 67.285C22.0542 66.4679 21.494 66.0594 20.3735 66.0594H18.1729V68.5385H20.3735Z" fill="#02221F"/>
<path d="M26.3442 65.9294C26.957 65.9356 27.4244 66.0717 27.7462 66.3379C28.0681 66.6041 28.2291 66.9879 28.2291 67.4893C28.2291 68.0093 28.0558 68.4085 27.7091 68.6871C27.3625 68.9656 26.8672 69.1018 26.2235 69.0956L24.2921 69.0864V64.2023H24.9514V65.9108L26.3442 65.9294ZM29.0462 64.2023H29.7054V69.0864H29.0462V64.2023ZM26.1863 68.5942C26.6382 68.6004 26.9787 68.5107 27.2077 68.325C27.4429 68.1331 27.5605 67.8545 27.5605 67.4893C27.5605 67.1303 27.446 66.8641 27.217 66.6908C26.988 66.5174 26.6444 66.4277 26.1863 66.4215L24.9514 66.4029V68.5757L26.1863 68.5942Z" fill="#02221F"/>
<path d="M35.9651 64.2023V69.0864H35.3059V64.7873H32.2418V69.0864H31.5825V64.2023H35.9651Z" fill="#02221F"/>
<path d="M39.8541 69.1328C39.3836 69.1328 38.9596 69.0275 38.582 68.8171C38.2044 68.6004 37.9073 68.3033 37.6906 67.9257C37.4739 67.5481 37.3656 67.121 37.3656 66.6443C37.3656 66.1677 37.4739 65.7406 37.6906 65.363C37.9073 64.9854 38.2044 64.6913 38.582 64.4809C38.9596 64.2704 39.3836 64.1652 39.8541 64.1652C40.3245 64.1652 40.7485 64.2704 41.1261 64.4809C41.5037 64.6913 41.7978 64.9854 42.0082 65.363C42.2249 65.7406 42.3332 66.1677 42.3332 66.6443C42.3332 67.121 42.2249 67.5481 42.0082 67.9257C41.7978 68.3033 41.5037 68.6004 41.1261 68.8171C40.7485 69.0275 40.3245 69.1328 39.8541 69.1328ZM39.8541 68.5478C40.2007 68.5478 40.5102 68.4704 40.7826 68.3157C41.0611 68.1547 41.2778 67.9288 41.4326 67.6379C41.5873 67.3469 41.6647 67.0157 41.6647 66.6443C41.6647 66.2729 41.5873 65.9417 41.4326 65.6508C41.2778 65.3599 41.0611 65.137 40.7826 64.9823C40.5102 64.8213 40.2007 64.7409 39.8541 64.7409C39.5074 64.7409 39.1948 64.8213 38.9163 64.9823C38.6439 65.137 38.4272 65.3599 38.2663 65.6508C38.1115 65.9417 38.0342 66.2729 38.0342 66.6443C38.0342 67.0157 38.1115 67.3469 38.2663 67.6379C38.4272 67.9288 38.6439 68.1547 38.9163 68.3157C39.1948 68.4704 39.5074 68.5478 39.8541 68.5478Z" fill="#02221F"/>
<path d="M47.7076 64.2023V69.0864H47.0484V64.7873H44.7085L44.6435 65.9944C44.594 67.0096 44.4764 67.7895 44.2907 68.3342C44.105 68.879 43.7738 69.1513 43.2971 69.1513C43.1672 69.1513 43.0093 69.1266 42.8236 69.0771L42.87 68.5107C42.9814 68.5354 43.0588 68.5478 43.1022 68.5478C43.356 68.5478 43.5478 68.4302 43.6778 68.195C43.8078 67.9597 43.8945 67.6688 43.9378 67.3222C43.9812 66.9755 44.0183 66.5174 44.0493 65.9479L44.1328 64.2023H47.7076Z" fill="#02221F"/>
<path d="M49.5817 64.2023H50.241V66.3658H53.3144V64.2023H53.9737V69.0864H53.3144V66.9322H50.241V69.0864H49.5817V64.2023Z" fill="#02221F"/>
<path d="M59.5987 64.2023V69.0864H58.9952V67.4707H57.4631H57.2774L56.1446 69.0864H55.4296L56.646 67.3779C56.2684 67.2726 55.9775 67.0931 55.7732 66.8393C55.5689 66.5855 55.4668 66.2636 55.4668 65.8737C55.4668 65.3289 55.6525 64.9142 56.0239 64.6294C56.3953 64.3447 56.9029 64.2023 57.5467 64.2023H59.5987ZM56.1353 65.8922C56.1353 66.6165 56.5965 66.9786 57.5188 66.9786H58.9952V64.7873H57.5652C56.6119 64.7873 56.1353 65.1556 56.1353 65.8922Z" fill="#02221F"/>
<path d="M61.4785 64.2023H62.1377V68.0835L65.3968 64.2023H65.9818V69.0864H65.3225V65.2051L62.0727 69.0864H61.4785V64.2023ZM63.6976 63.4966C63.2767 63.4966 62.9424 63.3914 62.6948 63.1809C62.4472 62.9705 62.3203 62.6733 62.3141 62.2896H62.7877C62.7939 62.531 62.8805 62.726 63.0477 62.8745C63.2148 63.0169 63.4314 63.0881 63.6976 63.0881C63.9638 63.0881 64.1805 63.0169 64.3476 62.8745C64.5209 62.726 64.6107 62.531 64.6169 62.2896H65.0904C65.0842 62.6733 64.9542 62.9705 64.7004 63.1809C64.4528 63.3914 64.1186 63.4966 63.6976 63.4966Z" fill="#02221F"/>
<path d="M75.5363 66.5422C75.8829 66.6227 76.1491 66.7619 76.3348 66.96C76.5267 67.1581 76.6227 67.3995 76.6227 67.6843C76.6227 67.969 76.5236 68.2228 76.3255 68.4457C76.1336 68.6685 75.8705 68.8418 75.5363 68.9656C75.202 69.0833 74.8337 69.1421 74.4313 69.1421C74.0785 69.1421 73.7318 69.0925 73.3914 68.9935C73.0509 68.8883 72.7538 68.7366 72.5 68.5385L72.7228 68.0464C72.9457 68.2135 73.2057 68.3435 73.5028 68.4364C73.7999 68.5292 74.1002 68.5757 74.4035 68.5757C74.8554 68.5757 75.2237 68.4921 75.5084 68.325C75.7994 68.1516 75.9448 67.9195 75.9448 67.6286C75.9448 67.3686 75.8272 67.1674 75.592 67.025C75.3568 66.8765 75.0349 66.8022 74.6263 66.8022H73.7906V66.3193H74.5892C74.9544 66.3193 75.2484 66.2513 75.4713 66.1151C75.6941 65.9727 75.8056 65.7839 75.8056 65.5487C75.8056 65.2887 75.6786 65.0844 75.4249 64.9358C75.1772 64.7873 74.8523 64.713 74.4499 64.713C73.9237 64.713 73.4038 64.8461 72.89 65.1123L72.7043 64.6016C73.2862 64.2983 73.8897 64.1466 74.5149 64.1466C74.8863 64.1466 75.2206 64.2023 75.5177 64.3137C75.821 64.419 76.0562 64.5706 76.2234 64.7687C76.3967 64.9668 76.4834 65.1958 76.4834 65.4558C76.4834 65.7034 76.3967 65.9232 76.2234 66.1151C76.0562 66.307 75.8272 66.4493 75.5363 66.5422Z" fill="#02221F"/>
<path d="M79.7999 64.1652C80.4375 64.1652 80.9265 64.3261 81.2669 64.648C81.6074 64.9637 81.7776 65.4342 81.7776 66.0594V69.0864H81.1462V68.325C80.9977 68.5788 80.7779 68.7768 80.487 68.9192C80.2022 69.0616 79.8618 69.1328 79.4656 69.1328C78.9209 69.1328 78.4876 69.0028 78.1657 68.7428C77.8438 68.4828 77.6828 68.1393 77.6828 67.7121C77.6828 67.2974 77.8314 66.9631 78.1285 66.7093C78.4318 66.4555 78.9116 66.3286 79.5677 66.3286H81.1184V66.0315C81.1184 65.6106 81.0008 65.2918 80.7655 65.0751C80.5303 64.8523 80.1868 64.7409 79.7349 64.7409C79.4254 64.7409 79.1282 64.7935 78.8435 64.8987C78.5587 64.9977 78.3142 65.137 78.11 65.3165L77.8128 64.8244C78.0604 64.614 78.3576 64.453 78.7042 64.3416C79.0509 64.224 79.4161 64.1652 79.7999 64.1652ZM79.5677 68.6128C79.9391 68.6128 80.2579 68.5292 80.5241 68.3621C80.7903 68.1888 80.9884 67.9412 81.1184 67.6193V66.8208H79.5863C78.7506 66.8208 78.3328 67.1117 78.3328 67.6936C78.3328 67.9783 78.4411 68.2043 78.6578 68.3714C78.8744 68.5323 79.1778 68.6128 79.5677 68.6128Z" fill="#02221F"/>
<path d="M88.2959 68.5107V70.2656H87.6738V69.0864H83.3005V70.2656H82.6784V68.5107H82.9569C83.285 68.4921 83.5078 68.2507 83.6255 67.7864C83.7431 67.3222 83.8236 66.6722 83.8669 65.8365L83.9319 64.2023H87.5346V68.5107H88.2959ZM84.4704 65.8737C84.4395 66.567 84.3807 67.1395 84.294 67.5914C84.2073 68.0371 84.0526 68.3435 83.8297 68.5107H86.8753V64.7873H84.5261L84.4704 65.8737Z" fill="#02221F"/>
<path d="M91.2614 64.1652C91.8989 64.1652 92.3879 64.3261 92.7284 64.648C93.0689 64.9637 93.2391 65.4342 93.2391 66.0594V69.0864H92.6077V68.325C92.4591 68.5788 92.2394 68.7768 91.9485 68.9192C91.6637 69.0616 91.3232 69.1328 90.9271 69.1328C90.3823 69.1328 89.949 69.0028 89.6272 68.7428C89.3053 68.4828 89.1443 68.1393 89.1443 67.7121C89.1443 67.2974 89.2929 66.9631 89.59 66.7093C89.8933 66.4555 90.3731 66.3286 91.0292 66.3286H92.5798V66.0315C92.5798 65.6106 92.4622 65.2918 92.227 65.0751C91.9918 64.8523 91.6482 64.7409 91.1964 64.7409C90.8868 64.7409 90.5897 64.7935 90.305 64.8987C90.0202 64.9977 89.7757 65.137 89.5714 65.3165L89.2743 64.8244C89.5219 64.614 89.819 64.453 90.1657 64.3416C90.5123 64.224 90.8776 64.1652 91.2614 64.1652ZM91.0292 68.6128C91.4006 68.6128 91.7194 68.5292 91.9856 68.3621C92.2518 68.1888 92.4499 67.9412 92.5798 67.6193V66.8208H91.0478C90.2121 66.8208 89.7943 67.1117 89.7943 67.6936C89.7943 67.9783 89.9026 68.2043 90.1193 68.3714C90.3359 68.5323 90.6392 68.6128 91.0292 68.6128Z" fill="#02221F"/>
<path d="M94.9941 64.2023H95.6533V66.3658H98.7268V64.2023H99.386V69.0864H98.7268V66.9322H95.6533V69.0864H94.9941V64.2023Z" fill="#02221F"/>
<path d="M101.26 64.2023H101.919V68.0835L105.178 64.2023H105.763V69.0864H105.104V65.2051L101.854 69.0864H101.26V64.2023Z" fill="#02221F"/>
<path d="M111.404 64.2023V69.0864H110.8V67.4707H109.268H109.082L107.95 69.0864H107.235L108.451 67.3779C108.073 67.2726 107.782 67.0931 107.578 66.8393C107.374 66.5855 107.272 66.2636 107.272 65.8737C107.272 65.3289 107.457 64.9142 107.829 64.6294C108.2 64.3447 108.708 64.2023 109.352 64.2023H111.404ZM107.94 65.8922C107.94 66.6165 108.401 66.9786 109.324 66.9786H110.8V64.7873H109.37C108.417 64.7873 107.94 65.1556 107.94 65.8922Z" fill="#02221F"/>
<path d="M115.714 64.2023H116.373V68.0835L119.632 64.2023H120.217V69.0864H119.558V65.2051L116.308 69.0864H115.714V64.2023Z" fill="#02221F"/>
<path d="M128.919 64.2023V69.0864H128.26V64.7873H125.196V69.0864H124.536V64.2023H128.919Z" fill="#02221F"/>
<path d="M132.808 69.1328C132.338 69.1328 131.913 69.0275 131.536 68.8171C131.158 68.6004 130.861 68.3033 130.645 67.9257C130.428 67.5481 130.32 67.121 130.32 66.6443C130.32 66.1677 130.428 65.7406 130.645 65.363C130.861 64.9854 131.158 64.6913 131.536 64.4809C131.913 64.2704 132.338 64.1652 132.808 64.1652C133.278 64.1652 133.702 64.2704 134.08 64.4809C134.458 64.6913 134.752 64.9854 134.962 65.363C135.179 65.7406 135.287 66.1677 135.287 66.6443C135.287 67.121 135.179 67.5481 134.962 67.9257C134.752 68.3033 134.458 68.6004 134.08 68.8171C133.702 69.0275 133.278 69.1328 132.808 69.1328ZM132.808 68.5478C133.155 68.5478 133.464 68.4704 133.736 68.3157C134.015 68.1547 134.232 67.9288 134.386 67.6379C134.541 67.3469 134.619 67.0157 134.619 66.6443C134.619 66.2729 134.541 65.9417 134.386 65.6508C134.232 65.3599 134.015 65.137 133.736 64.9823C133.464 64.8213 133.155 64.7409 132.808 64.7409C132.461 64.7409 132.149 64.8213 131.87 64.9823C131.598 65.137 131.381 65.3599 131.22 65.6508C131.065 65.9417 130.988 66.2729 130.988 66.6443C130.988 67.0157 131.065 67.3469 131.22 67.6379C131.381 67.9288 131.598 68.1547 131.87 68.3157C132.149 68.4704 132.461 68.5478 132.808 68.5478Z" fill="#02221F"/>
<path d="M140.662 64.2023V69.0864H140.002V64.7873H137.662L137.597 65.9944C137.548 67.0096 137.43 67.7895 137.245 68.3342C137.059 68.879 136.728 69.1513 136.251 69.1513C136.121 69.1513 135.963 69.1266 135.777 69.0771L135.824 68.5107C135.935 68.5354 136.013 68.5478 136.056 68.5478C136.31 68.5478 136.502 68.4302 136.632 68.195C136.762 67.9597 136.848 67.6688 136.892 67.3222C136.935 66.9755 136.972 66.5174 137.003 65.9479L137.087 64.2023H140.662Z" fill="#02221F"/>
<path d="M146.686 64.2023L144.244 69.6713C144.046 70.1294 143.817 70.4544 143.557 70.6463C143.297 70.8382 142.984 70.9341 142.619 70.9341C142.384 70.9341 142.164 70.897 141.96 70.8227C141.756 70.7484 141.579 70.637 141.431 70.4884L141.737 69.9963C141.985 70.2439 142.282 70.3677 142.628 70.3677C142.851 70.3677 143.04 70.3058 143.195 70.182C143.356 70.0582 143.504 69.8477 143.641 69.5506L143.854 69.0771L141.672 64.2023H142.359L144.198 68.3528L146.036 64.2023H146.686Z" fill="#02221F"/>
<path d="M151.399 64.2023V69.0864H150.74V67.0529C150.177 67.3005 149.623 67.4243 149.078 67.4243C148.49 67.4243 148.032 67.2912 147.704 67.025C147.376 66.7527 147.212 66.3472 147.212 65.8087V64.2023H147.871V65.7715C147.871 66.1367 147.989 66.4153 148.224 66.6072C148.459 66.7929 148.784 66.8857 149.199 66.8857C149.657 66.8857 150.171 66.765 150.74 66.5236V64.2023H151.399Z" fill="#02221F"/>
<path d="M154.952 64.1652C155.59 64.1652 156.079 64.3261 156.419 64.648C156.76 64.9637 156.93 65.4342 156.93 66.0594V69.0864H156.299V68.325C156.15 68.5788 155.93 68.7768 155.639 68.9192C155.355 69.0616 155.014 69.1328 154.618 69.1328C154.073 69.1328 153.64 69.0028 153.318 68.7428C152.996 68.4828 152.835 68.1393 152.835 67.7121C152.835 67.2974 152.984 66.9631 153.281 66.7093C153.584 66.4555 154.064 66.3286 154.72 66.3286H156.271V66.0315C156.271 65.6106 156.153 65.2918 155.918 65.0751C155.683 64.8523 155.339 64.7409 154.887 64.7409C154.578 64.7409 154.281 64.7935 153.996 64.8987C153.711 64.9977 153.467 65.137 153.262 65.3165L152.965 64.8244C153.213 64.614 153.51 64.453 153.857 64.3416C154.203 64.224 154.569 64.1652 154.952 64.1652ZM154.72 68.6128C155.092 68.6128 155.41 68.5292 155.677 68.3621C155.943 68.1888 156.141 67.9412 156.271 67.6193V66.8208H154.739C153.903 66.8208 153.485 67.1117 153.485 67.6936C153.485 67.9783 153.594 68.2043 153.81 68.3714C154.027 68.5323 154.33 68.6128 154.72 68.6128Z" fill="#02221F"/>
<path d="M158.685 64.2023H159.344V68.0835L162.603 64.2023H163.188V69.0864H162.529V65.2051L159.279 69.0864H158.685V64.2023ZM160.904 63.4966C160.483 63.4966 160.149 63.3914 159.901 63.1809C159.654 62.9705 159.527 62.6733 159.521 62.2896H159.994C160 62.531 160.087 62.726 160.254 62.8745C160.421 63.0169 160.638 63.0881 160.904 63.0881C161.17 63.0881 161.387 63.0169 161.554 62.8745C161.728 62.726 161.817 62.531 161.823 62.2896H162.297C162.291 62.6733 162.161 62.9705 161.907 63.1809C161.659 63.3914 161.325 63.4966 160.904 63.4966Z" fill="#02221F"/>
<path d="M174.108 69.0864L172.009 66.2265L169.92 69.0864H169.131L171.601 65.7437L169.289 62.5867H170.078L172.037 65.2423L173.987 62.5867H174.73L172.427 65.7251L174.906 69.0864H174.108Z" fill="#02221F"/>
<path d="M178.331 62.5867C179.16 62.5867 179.81 62.7848 180.281 63.1809C180.751 63.5771 180.987 64.1218 180.987 64.8151C180.987 65.5084 180.751 66.0532 180.281 66.4493C179.81 66.8393 179.16 67.0343 178.331 67.0343H176.585V69.0864H175.898V62.5867H178.331ZM178.312 66.4308C178.956 66.4308 179.448 66.2915 179.789 66.0129C180.129 65.7282 180.299 65.3289 180.299 64.8151C180.299 64.289 180.129 63.8866 179.789 63.6081C179.448 63.3233 178.956 63.1809 178.312 63.1809H176.585V66.4308H178.312Z" fill="#02221F"/>
<path d="M23.3358 144.933V139.826L23.6686 140.189H22.1133V139.516H24.1019V144.933H23.3358Z" fill="#0BA46B"/>
<path d="M27.0938 144.933L29.3455 141.861V142.457L27.2176 139.516H28.0997L29.7865 141.83L29.4383 141.838L31.1174 139.516H31.9608L29.8484 142.41V141.853L32.1001 144.933H31.2103L29.4151 142.464H29.7556L27.9837 144.933H27.0938Z" fill="#0BA46B"/>
<path d="M32.8307 144.933V139.516H34.9431C35.4176 139.516 35.8226 139.591 36.1579 139.741C36.4932 139.89 36.7511 140.107 36.9317 140.391C37.1122 140.674 37.2025 141.012 37.2025 141.404C37.2025 141.796 37.1122 142.134 36.9317 142.418C36.7511 142.696 36.4932 142.913 36.1579 143.068C35.8226 143.217 35.4176 143.292 34.9431 143.292H33.2562L33.6044 142.929V144.933H32.8307ZM33.6044 143.006L33.2562 142.619H34.9198C35.4151 142.619 35.7891 142.513 36.0418 142.302C36.2997 142.09 36.4287 141.791 36.4287 141.404C36.4287 141.017 36.2997 140.718 36.0418 140.507C35.7891 140.295 35.4151 140.189 34.9198 140.189H33.2562L33.6044 139.803V143.006Z" fill="#0BA46B"/>
<path fill-rule="evenodd" clip-rule="evenodd" d="M41.8802 134.303H18.0586C17.2039 134.303 16.5111 134.996 16.5111 135.85V148.593C16.5111 149.447 17.2039 150.14 18.0586 150.14H41.8802C42.7349 150.14 43.4277 149.447 43.4277 148.593V135.85C43.4277 134.996 42.7349 134.303 41.8802 134.303ZM18.0586 133.529C16.7766 133.529 15.7373 134.568 15.7373 135.85V148.593C15.7373 149.875 16.7766 150.914 18.0586 150.914H41.8802C43.1622 150.914 44.2015 149.875 44.2015 148.593V135.85C44.2015 134.568 43.1622 133.529 41.8802 133.529H18.0586Z" fill="#0BA46B"/>
<path d="M179.95 144.995C179.537 144.995 179.153 144.925 178.797 144.786C178.446 144.646 178.142 144.453 177.884 144.205C177.626 143.953 177.425 143.658 177.28 143.323C177.136 142.988 177.063 142.622 177.063 142.224C177.063 141.827 177.136 141.461 177.28 141.126C177.425 140.79 177.626 140.499 177.884 140.251C178.142 139.999 178.446 139.803 178.797 139.663C179.147 139.524 179.532 139.454 179.95 139.454C180.362 139.454 180.741 139.524 181.087 139.663C181.438 139.797 181.742 139.991 182 140.244C182.263 140.491 182.464 140.783 182.604 141.118C182.748 141.453 182.82 141.822 182.82 142.224C182.82 142.627 182.748 142.996 182.604 143.331C182.464 143.666 182.263 143.96 182 144.213C181.742 144.461 181.438 144.654 181.087 144.793C180.741 144.927 180.362 144.995 179.95 144.995ZM179.95 144.306C180.249 144.306 180.525 144.254 180.778 144.151C181.035 144.048 181.257 143.904 181.443 143.718C181.634 143.527 181.781 143.305 181.884 143.052C181.992 142.8 182.047 142.524 182.047 142.224C182.047 141.925 181.992 141.649 181.884 141.397C181.781 141.144 181.634 140.925 181.443 140.739C181.257 140.548 181.035 140.401 180.778 140.298C180.525 140.195 180.249 140.143 179.95 140.143C179.645 140.143 179.364 140.195 179.106 140.298C178.853 140.401 178.632 140.548 178.441 140.739C178.25 140.925 178.1 141.144 177.992 141.397C177.889 141.649 177.837 141.925 177.837 142.224C177.837 142.524 177.889 142.8 177.992 143.052C178.1 143.305 178.25 143.527 178.441 143.718C178.632 143.904 178.853 144.048 179.106 144.151C179.364 144.254 179.645 144.306 179.95 144.306Z" fill="#FC525A"/>
<path d="M184.003 144.933V139.516H184.637L188.22 143.965H187.887V139.516H188.661V144.933H188.027L184.444 140.483H184.777V144.933H184.003Z" fill="#FC525A"/>
<path d="M192.704 144.995C192.292 144.995 191.91 144.927 191.559 144.793C191.213 144.654 190.912 144.461 190.654 144.213C190.401 143.96 190.202 143.666 190.058 143.331C189.913 142.996 189.841 142.627 189.841 142.224C189.841 141.822 189.913 141.453 190.058 141.118C190.202 140.783 190.404 140.491 190.661 140.244C190.919 139.991 191.221 139.797 191.567 139.663C191.918 139.524 192.299 139.454 192.712 139.454C193.13 139.454 193.514 139.527 193.865 139.671C194.221 139.81 194.523 140.019 194.77 140.298L194.267 140.785C194.061 140.569 193.829 140.409 193.571 140.305C193.313 140.197 193.037 140.143 192.743 140.143C192.439 140.143 192.155 140.195 191.892 140.298C191.634 140.401 191.409 140.545 191.219 140.731C191.028 140.917 190.878 141.139 190.77 141.397C190.667 141.649 190.615 141.925 190.615 142.224C190.615 142.524 190.667 142.802 190.77 143.06C190.878 143.313 191.028 143.532 191.219 143.718C191.409 143.904 191.634 144.048 191.892 144.151C192.155 144.254 192.439 144.306 192.743 144.306C193.037 144.306 193.313 144.254 193.571 144.151C193.829 144.043 194.061 143.878 194.267 143.656L194.77 144.143C194.523 144.422 194.221 144.633 193.865 144.778C193.514 144.922 193.127 144.995 192.704 144.995Z" fill="#FC525A"/>
<path d="M196.578 141.853H199.364V142.511H196.578V141.853ZM196.648 144.259H199.805V144.933H195.874V139.516H199.696V140.189H196.648V144.259Z" fill="#FC525A"/>
<path fill-rule="evenodd" clip-rule="evenodd" d="M205.933 134.303H172.236C171.382 134.303 170.689 134.996 170.689 135.85V148.593C170.689 149.447 171.382 150.14 172.236 150.14H205.933C206.788 150.14 207.481 149.447 207.481 148.593V135.85C207.481 134.996 206.788 134.303 205.933 134.303ZM172.236 133.529C170.954 133.529 169.915 134.568 169.915 135.85V148.593C169.915 149.875 170.954 150.914 172.236 150.914H205.933C207.215 150.914 208.255 149.875 208.255 148.593V135.85C208.255 134.568 207.215 133.529 205.933 133.529H172.236Z" fill="#FC525A"/>
</svg>
