<svg width="178" height="122" viewBox="0 0 178 122" fill="none" xmlns="http://www.w3.org/2000/svg">
<rect x="14" y="1" width="163" height="109" rx="7" fill="#97EAF2" stroke="#02221F" stroke-width="2"/>
<rect x="1" y="12" width="162.997" height="108.754" rx="7" fill="white" stroke="#02221F" stroke-width="2"/>
<path d="M14.2847 27.3009C14.7071 27.4463 15.036 27.6748 15.2714 27.9864C15.5138 28.2911 15.635 28.6477 15.635 29.0563C15.635 29.4994 15.4896 29.8837 15.1987 30.2092C14.9079 30.5347 14.5132 30.7839 14.0146 30.9571C13.523 31.1302 12.9829 31.2167 12.3943 31.2167C11.8957 31.2167 11.3971 31.1544 10.8986 31.0298C10.4069 30.9051 9.93951 30.7147 9.49634 30.4585L10.0157 29.2536C10.3342 29.4475 10.6839 29.5964 11.0648 29.7002C11.4525 29.7972 11.8299 29.8457 12.1969 29.8457C12.6955 29.8457 13.1075 29.7556 13.433 29.5756C13.7653 29.3956 13.9315 29.1428 13.9315 28.8174C13.9315 28.5473 13.8173 28.343 13.5888 28.2045C13.3672 28.066 13.0625 27.9968 12.6747 27.9968H10.8986V26.7296H12.5501C12.8894 26.7296 13.1525 26.6604 13.3395 26.5219C13.5334 26.3834 13.6303 26.1929 13.6303 25.9506C13.6303 25.6667 13.4918 25.4451 13.2148 25.2858C12.9448 25.1266 12.5951 25.0469 12.1658 25.0469C11.8472 25.0469 11.5183 25.0919 11.179 25.182C10.8397 25.265 10.5177 25.3932 10.213 25.5663L9.70408 24.2575C10.4727 23.8628 11.3037 23.6655 12.1969 23.6655C12.7647 23.6655 13.2876 23.7486 13.7653 23.9148C14.2431 24.0809 14.624 24.3233 14.9079 24.6418C15.1918 24.9604 15.3338 25.3308 15.3338 25.7532C15.3338 26.0995 15.2403 26.4076 15.0533 26.6777C14.8664 26.9477 14.6101 27.1555 14.2847 27.3009Z" fill="#02221F"/>
<path d="M19.0133 25.4209C19.8789 25.4209 20.5437 25.6286 21.0076 26.0441C21.4716 26.4526 21.7035 27.0724 21.7035 27.9033V31.0921H20.187V30.3962C19.8824 30.9155 19.3145 31.1752 18.4836 31.1752C18.0543 31.1752 17.6803 31.1025 17.3618 30.9571C17.0502 30.8116 16.8113 30.6108 16.6451 30.3546C16.4789 30.0984 16.3958 29.8076 16.3958 29.4821C16.3958 28.9628 16.5897 28.5542 16.9775 28.2565C17.3722 27.9587 17.9781 27.8098 18.7952 27.8098H20.0832C20.0832 27.4567 19.9758 27.1866 19.7612 26.9997C19.5465 26.8058 19.2245 26.7088 18.7952 26.7088C18.4974 26.7088 18.2031 26.7573 17.9123 26.8542C17.6284 26.9443 17.386 27.0689 17.1852 27.2282L16.6036 26.096C16.9082 25.8813 17.2718 25.7151 17.6942 25.5974C18.1235 25.4797 18.5632 25.4209 19.0133 25.4209ZM18.8887 30.0846C19.1657 30.0846 19.4115 30.0222 19.6261 29.8976C19.8408 29.766 19.9932 29.5756 20.0832 29.3263V28.755H18.9718C18.307 28.755 17.9746 28.9732 17.9746 29.4094C17.9746 29.6172 18.0543 29.7833 18.2135 29.908C18.3797 30.0257 18.6048 30.0846 18.8887 30.0846Z" fill="#02221F"/>
<path d="M29.3744 29.7626V32.297H27.8683V31.0921H23.9421V32.297H22.436V29.7626H22.6645C23.0107 29.7556 23.2496 29.5514 23.3812 29.1497C23.5127 28.7481 23.5958 28.1768 23.6305 27.4359L23.7032 25.5039H28.5746V29.7626H29.3744ZM25.095 27.5502C25.0742 28.118 25.0292 28.5819 24.96 28.942C24.8977 29.3021 24.7765 29.5756 24.5964 29.7626H26.9543V26.8335H25.1262L25.095 27.5502Z" fill="#02221F"/>
<path d="M32.565 25.4209C33.4305 25.4209 34.0953 25.6286 34.5592 26.0441C35.0232 26.4526 35.2552 27.0724 35.2552 27.9033V31.0921H33.7387V30.3962C33.434 30.9155 32.8662 31.1752 32.0352 31.1752C31.6059 31.1752 31.232 31.1025 30.9134 30.9571C30.6018 30.8116 30.3629 30.6108 30.1968 30.3546C30.0306 30.0984 29.9475 29.8076 29.9475 29.4821C29.9475 28.9628 30.1414 28.5542 30.5291 28.2565C30.9238 27.9587 31.5297 27.8098 32.3468 27.8098H33.6348C33.6348 27.4567 33.5275 27.1866 33.3128 26.9997C33.0982 26.8058 32.7762 26.7088 32.3468 26.7088C32.0491 26.7088 31.7548 26.7573 31.464 26.8542C31.18 26.9443 30.9377 27.0689 30.7369 27.2282L30.1552 26.096C30.4599 25.8813 30.8234 25.7151 31.2458 25.5974C31.6752 25.4797 32.1149 25.4209 32.565 25.4209ZM32.4403 30.0846C32.7173 30.0846 32.9631 30.0222 33.1778 29.8976C33.3925 29.766 33.5448 29.5756 33.6348 29.3263V28.755H32.5234C31.8587 28.755 31.5263 28.9732 31.5263 29.4094C31.5263 29.6172 31.6059 29.7833 31.7652 29.908C31.9314 30.0257 32.1564 30.0846 32.4403 30.0846Z" fill="#02221F"/>
<path d="M36.6627 25.5039H38.2727V27.6852H40.7032V25.5039H42.3236V31.0921H40.7032V29.0043H38.2727V31.0921H36.6627V25.5039Z" fill="#02221F"/>
<path d="M43.8747 25.5039H45.4847V28.8277L48.2061 25.5039H49.6914V31.0921H48.0814V27.7683L45.3705 31.0921H43.8747V25.5039Z" fill="#02221F"/>
<path d="M56.6814 28.3188C56.6814 28.3396 56.671 28.485 56.6502 28.755H52.4227C52.4989 29.1013 52.6789 29.3748 52.9629 29.5756C53.2468 29.7764 53.5999 29.8768 54.0223 29.8768C54.3132 29.8768 54.5694 29.8353 54.7909 29.7522C55.0195 29.6622 55.2307 29.5237 55.4245 29.3367L56.2867 30.2715C55.7604 30.874 54.9918 31.1752 53.9808 31.1752C53.3506 31.1752 52.7932 31.054 52.3085 30.8116C51.8238 30.5624 51.4498 30.2196 51.1867 29.7833C50.9236 29.3471 50.792 28.852 50.792 28.298C50.792 27.751 50.9201 27.2593 51.1763 26.8231C51.4394 26.3799 51.7961 26.0371 52.2462 25.7948C52.7032 25.5455 53.2121 25.4209 53.773 25.4209C54.3201 25.4209 54.8152 25.5386 55.2584 25.774C55.7015 26.0094 56.0478 26.3487 56.297 26.7919C56.5533 27.2282 56.6814 27.7371 56.6814 28.3188ZM53.7834 26.6465C53.4164 26.6465 53.1083 26.7504 52.859 26.9581C52.6097 27.1658 52.4574 27.4498 52.402 27.8098H55.1545C55.0991 27.4567 54.9468 27.1762 54.6975 26.9685C54.4482 26.7538 54.1435 26.6465 53.7834 26.6465Z" fill="#02221F"/>
<path d="M63.2955 23.8213V31.0921H61.6129V25.1716H60.1587V23.8213H63.2955Z" fill="#02221F"/>
<path d="M12.9379 47.0392C13.2749 47.1084 13.5311 47.2446 13.7065 47.4477C13.882 47.6462 13.9697 47.9071 13.9697 48.2302C13.9697 48.6503 13.8196 48.9734 13.5196 49.1996C13.2241 49.4259 12.7879 49.539 12.2108 49.539H10.0642V44.6917H12.0793C12.5963 44.6917 13.0002 44.7979 13.2911 45.0103C13.5819 45.2226 13.7273 45.5296 13.7273 45.9312C13.7273 46.2036 13.6581 46.4344 13.5196 46.6237C13.3811 46.8084 13.1872 46.9468 12.9379 47.0392ZM10.5697 46.8868H12.0516C12.4255 46.8868 12.7117 46.8107 12.9102 46.6583C13.1133 46.506 13.2149 46.2844 13.2149 45.9936C13.2149 45.7027 13.1133 45.4811 12.9102 45.3288C12.7117 45.1765 12.4255 45.1003 12.0516 45.1003H10.5697V46.8868ZM12.2108 49.1304C13.0464 49.1304 13.4642 48.8188 13.4642 48.1956C13.4642 47.5862 13.0464 47.2815 12.2108 47.2815H10.5697V49.1304H12.2108Z" fill="#02221F"/>
<path d="M16.6635 47.1846C17.1205 47.1892 17.4691 47.2908 17.7091 47.4893C17.9492 47.6878 18.0692 47.974 18.0692 48.3479C18.0692 48.7357 17.9399 49.0335 17.6814 49.2412C17.4229 49.4489 17.0536 49.5505 16.5735 49.5459L15.1332 49.539V45.8966H15.6248V47.1707L16.6635 47.1846ZM18.6786 45.8966H19.1702V49.539H18.6786V45.8966ZM16.5458 49.172C16.8828 49.1766 17.1367 49.1096 17.3075 48.9711C17.4829 48.828 17.5706 48.6203 17.5706 48.3479C17.5706 48.0802 17.4852 47.8817 17.3144 47.7524C17.1436 47.6232 16.8874 47.5562 16.5458 47.5516L15.6248 47.5377V49.1581L16.5458 49.172Z" fill="#02221F"/>
<path d="M23.8385 45.8966V49.539H23.3468V46.3329H21.0617V49.539H20.5701V45.8966H23.8385Z" fill="#02221F"/>
<path d="M26.7387 49.5736C26.3878 49.5736 26.0716 49.4951 25.79 49.3381C25.5084 49.1766 25.2868 48.955 25.1252 48.6734C24.9637 48.3918 24.8829 48.0732 24.8829 47.7178C24.8829 47.3623 24.9637 47.0438 25.1252 46.7622C25.2868 46.4806 25.5084 46.2613 25.79 46.1044C26.0716 45.9474 26.3878 45.8689 26.7387 45.8689C27.0895 45.8689 27.4057 45.9474 27.6873 46.1044C27.9689 46.2613 28.1882 46.4806 28.3452 46.7622C28.5068 47.0438 28.5875 47.3623 28.5875 47.7178C28.5875 48.0732 28.5068 48.3918 28.3452 48.6734C28.1882 48.955 27.9689 49.1766 27.6873 49.3381C27.4057 49.4951 27.0895 49.5736 26.7387 49.5736ZM26.7387 49.1373C26.9972 49.1373 27.228 49.0796 27.4311 48.9642C27.6389 48.8442 27.8004 48.6757 27.9159 48.4587C28.0313 48.2417 28.089 47.9948 28.089 47.7178C28.089 47.4408 28.0313 47.1938 27.9159 46.9769C27.8004 46.7599 27.6389 46.5937 27.4311 46.4783C27.228 46.3583 26.9972 46.2982 26.7387 46.2982C26.4802 46.2982 26.247 46.3583 26.0393 46.4783C25.8362 46.5937 25.6746 46.7599 25.5546 46.9769C25.4392 47.1938 25.3815 47.4408 25.3815 47.7178C25.3815 47.9948 25.4392 48.2417 25.5546 48.4587C25.6746 48.6757 25.8362 48.8442 26.0393 48.9642C26.247 49.0796 26.4802 49.1373 26.7387 49.1373Z" fill="#02221F"/>
<path d="M32.5956 45.8966V49.539H32.1039V46.3329H30.3589L30.3105 47.2331C30.2735 47.9902 30.1858 48.5718 30.0473 48.9781C29.9088 49.3843 29.6619 49.5874 29.3064 49.5874C29.2095 49.5874 29.0917 49.569 28.9532 49.532L28.9879 49.1096C29.071 49.1281 29.1287 49.1373 29.161 49.1373C29.3503 49.1373 29.4934 49.0496 29.5903 48.8742C29.6873 48.6988 29.7519 48.4818 29.7842 48.2233C29.8165 47.9648 29.8442 47.6232 29.8673 47.1984L29.9296 45.8966H32.5956Z" fill="#02221F"/>
<path d="M33.9932 45.8966H34.4849V47.51H36.7769V45.8966H37.2685V49.539H36.7769V47.9324H34.4849V49.539H33.9932V45.8966Z" fill="#02221F"/>
<path d="M41.4635 45.8966V49.539H41.0134V48.3341H39.8708H39.7323L38.8875 49.539H38.3543L39.2615 48.2648C38.9799 48.1864 38.7629 48.0525 38.6106 47.8632C38.4582 47.6739 38.382 47.4339 38.382 47.143C38.382 46.7368 38.5205 46.4275 38.7975 46.2152C39.0745 46.0028 39.4531 45.8966 39.9332 45.8966H41.4635ZM38.8806 47.1569C38.8806 47.697 39.2245 47.9671 39.9124 47.9671H41.0134V46.3329H39.947C39.2361 46.3329 38.8806 46.6075 38.8806 47.1569Z" fill="#02221F"/>
<path d="M42.8653 45.8966H43.357V48.7911L45.7875 45.8966H46.2238V49.539H45.7321V46.6445L43.3085 49.539H42.8653V45.8966ZM44.5203 45.3704C44.2064 45.3704 43.9571 45.2919 43.7725 45.1349C43.5878 44.978 43.4932 44.7564 43.4886 44.4702H43.8417C43.8463 44.6502 43.911 44.7956 44.0356 44.9064C44.1602 45.0126 44.3218 45.0657 44.5203 45.0657C44.7188 45.0657 44.8804 45.0126 45.005 44.9064C45.1343 44.7956 45.2012 44.6502 45.2059 44.4702H45.559C45.5544 44.7564 45.4574 44.978 45.2682 45.1349C45.0835 45.2919 44.8342 45.3704 44.5203 45.3704Z" fill="#02221F"/>
<path d="M50.1949 46.3329H48.8169V49.539H48.3252V46.3329H46.9472V45.8966H50.1949V46.3329Z" fill="#02221F"/>
<path d="M53.922 47.8701H50.8751C50.9028 48.2487 51.0483 48.5557 51.3114 48.7911C51.5745 49.0219 51.9069 49.1373 52.3085 49.1373C52.5347 49.1373 52.7425 49.0981 52.9317 49.0196C53.121 48.9365 53.2849 48.8165 53.4234 48.6595L53.7004 48.9781C53.5388 49.172 53.3357 49.3197 53.091 49.4212C52.851 49.5228 52.5855 49.5736 52.2947 49.5736C51.9208 49.5736 51.5884 49.4951 51.2975 49.3381C51.0113 49.1766 50.7874 48.955 50.6259 48.6734C50.4643 48.3918 50.3835 48.0732 50.3835 47.7178C50.3835 47.3623 50.4597 47.0438 50.612 46.7622C50.769 46.4806 50.9813 46.2613 51.2491 46.1044C51.5214 45.9474 51.8261 45.8689 52.1631 45.8689C52.5001 45.8689 52.8025 45.9474 53.0702 46.1044C53.338 46.2613 53.548 46.4806 53.7004 46.7622C53.8527 47.0392 53.9289 47.3577 53.9289 47.7178L53.922 47.8701ZM52.1631 46.2913C51.8123 46.2913 51.5168 46.4044 51.2768 46.6306C51.0413 46.8522 50.9075 47.143 50.8751 47.5031H53.458C53.4257 47.143 53.2895 46.8522 53.0495 46.6306C52.814 46.4044 52.5186 46.2913 52.1631 46.2913Z" fill="#02221F"/>
<path d="M58.6022 47.6416C58.8607 47.7016 59.0592 47.8055 59.1977 47.9532C59.3408 48.1009 59.4124 48.281 59.4124 48.4933C59.4124 48.7057 59.3385 48.895 59.1908 49.0612C59.0477 49.2273 58.8515 49.3566 58.6022 49.4489C58.3529 49.5366 58.0782 49.5805 57.7781 49.5805C57.515 49.5805 57.2565 49.5436 57.0026 49.4697C56.7487 49.3912 56.5271 49.2781 56.3378 49.1304L56.504 48.7634C56.6702 48.888 56.8641 48.985 57.0857 49.0542C57.3073 49.1235 57.5312 49.1581 57.7574 49.1581C58.0944 49.1581 58.369 49.0958 58.5814 48.9711C58.7984 48.8419 58.9069 48.6688 58.9069 48.4518C58.9069 48.2579 58.8191 48.1079 58.6437 48.0017C58.4683 47.8909 58.2282 47.8355 57.9236 47.8355H57.3004V47.4754H57.8959C58.1682 47.4754 58.3875 47.4246 58.5537 47.3231C58.7199 47.2169 58.803 47.0761 58.803 46.9007C58.803 46.7068 58.7084 46.5545 58.5191 46.4437C58.3344 46.3329 58.0921 46.2775 57.792 46.2775C57.3996 46.2775 57.0118 46.3767 56.6287 46.5752L56.4902 46.1944C56.9241 45.9682 57.3742 45.8551 57.8405 45.8551C58.1175 45.8551 58.3667 45.8966 58.5883 45.9797C58.8145 46.0582 58.9899 46.1713 59.1146 46.319C59.2439 46.4667 59.3085 46.6376 59.3085 46.8314C59.3085 47.0161 59.2439 47.18 59.1146 47.3231C58.9899 47.4662 58.8191 47.5724 58.6022 47.6416Z" fill="#02221F"/>
<path d="M61.7818 45.8689C62.2573 45.8689 62.622 45.9889 62.8759 46.229C63.1298 46.4644 63.2567 46.8153 63.2567 47.2815V49.539H62.7859V48.9711C62.6751 49.1604 62.5112 49.3081 62.2942 49.4143C62.0819 49.5205 61.828 49.5736 61.5325 49.5736C61.1263 49.5736 60.8031 49.4766 60.5631 49.2827C60.323 49.0889 60.203 48.8326 60.203 48.5141C60.203 48.2048 60.3138 47.9555 60.5354 47.7663C60.7616 47.577 61.1194 47.4824 61.6087 47.4824H62.7651V47.2608C62.7651 46.9468 62.6774 46.7091 62.502 46.5475C62.3265 46.3813 62.0703 46.2982 61.7333 46.2982C61.5025 46.2982 61.2809 46.3375 61.0686 46.416C60.8562 46.4898 60.6739 46.5937 60.5215 46.7276L60.2999 46.3606C60.4846 46.2036 60.7062 46.0836 60.9647 46.0005C61.2232 45.9128 61.4956 45.8689 61.7818 45.8689ZM61.6087 49.1858C61.8857 49.1858 62.1234 49.1235 62.3219 48.9988C62.5204 48.8696 62.6682 48.6849 62.7651 48.4449V47.8494H61.6225C60.9993 47.8494 60.6877 48.0663 60.6877 48.5003C60.6877 48.7126 60.7685 48.8811 60.9301 49.0058C61.0917 49.1258 61.3179 49.1858 61.6087 49.1858Z" fill="#02221F"/>
<path d="M68.1179 49.1096V50.4184H67.6539V49.539H64.3924V50.4184H63.9285V49.1096H64.1362C64.3809 49.0958 64.5471 48.9157 64.6348 48.5695C64.7225 48.2233 64.7825 47.7386 64.8148 47.1153L64.8633 45.8966H67.55V49.1096H68.1179ZM65.2649 47.143C65.2418 47.6601 65.198 48.0871 65.1334 48.4241C65.0687 48.7565 64.9533 48.985 64.7871 49.1096H67.0584V46.3329H65.3065L65.2649 47.143Z" fill="#02221F"/>
<path d="M70.3293 45.8689C70.8048 45.8689 71.1695 45.9889 71.4234 46.229C71.6773 46.4644 71.8043 46.8153 71.8043 47.2815V49.539H71.3334V48.9711C71.2226 49.1604 71.0587 49.3081 70.8418 49.4143C70.6294 49.5205 70.3755 49.5736 70.0801 49.5736C69.6738 49.5736 69.3507 49.4766 69.1106 49.2827C68.8706 49.0889 68.7505 48.8326 68.7505 48.5141C68.7505 48.2048 68.8613 47.9555 69.0829 47.7663C69.3091 47.577 69.6669 47.4824 70.1562 47.4824H71.3126V47.2608C71.3126 46.9468 71.2249 46.7091 71.0495 46.5475C70.8741 46.3813 70.6179 46.2982 70.2809 46.2982C70.0501 46.2982 69.8285 46.3375 69.6161 46.416C69.4038 46.4898 69.2214 46.5937 69.0691 46.7276L68.8475 46.3606C69.0321 46.2036 69.2537 46.0836 69.5122 46.0005C69.7708 45.9128 70.0431 45.8689 70.3293 45.8689ZM70.1562 49.1858C70.4332 49.1858 70.671 49.1235 70.8695 48.9988C71.068 48.8696 71.2157 48.6849 71.3126 48.4449V47.8494H70.1701C69.5469 47.8494 69.2353 48.0663 69.2353 48.5003C69.2353 48.7126 69.316 48.8811 69.4776 49.0058C69.6392 49.1258 69.8654 49.1858 70.1562 49.1858Z" fill="#02221F"/>
<path d="M73.1131 45.8966H73.6047V47.51H75.8968V45.8966H76.3884V49.539H75.8968V47.9324H73.6047V49.539H73.1131V45.8966Z" fill="#02221F"/>
<path d="M77.7858 45.8966H78.2775V48.7911L80.708 45.8966H81.1443V49.539H80.6526V46.6445L78.229 49.539H77.7858V45.8966Z" fill="#02221F"/>
<path d="M85.3508 45.8966V49.539H84.9007V48.3341H83.7581H83.6196L82.7748 49.539H82.2416L83.1488 48.2648C82.8672 48.1864 82.6502 48.0525 82.4978 47.8632C82.3455 47.6739 82.2693 47.4339 82.2693 47.143C82.2693 46.7368 82.4078 46.4275 82.6848 46.2152C82.9618 46.0028 83.3403 45.8966 83.8205 45.8966H85.3508ZM82.7679 47.1569C82.7679 47.697 83.1118 47.9671 83.7997 47.9671H84.9007V46.3329H83.8343C83.1234 46.3329 82.7679 46.6075 82.7679 47.1569Z" fill="#02221F"/>
<path d="M88.5649 45.8966H89.0566V48.7911L91.4871 45.8966H91.9234V49.539H91.4317V46.6445L89.0081 49.539H88.5649V45.8966Z" fill="#02221F"/>
<path d="M98.4131 45.8966V49.539H97.9214V46.3329H95.6363V49.539H95.1446V45.8966H98.4131Z" fill="#02221F"/>
<path d="M101.313 49.5736C100.962 49.5736 100.646 49.4951 100.365 49.3381C100.083 49.1766 99.8614 48.955 99.6998 48.6734C99.5383 48.3918 99.4575 48.0732 99.4575 47.7178C99.4575 47.3623 99.5383 47.0438 99.6998 46.7622C99.8614 46.4806 100.083 46.2613 100.365 46.1044C100.646 45.9474 100.962 45.8689 101.313 45.8689C101.664 45.8689 101.98 45.9474 102.262 46.1044C102.544 46.2613 102.763 46.4806 102.92 46.7622C103.081 47.0438 103.162 47.3623 103.162 47.7178C103.162 48.0732 103.081 48.3918 102.92 48.6734C102.763 48.955 102.544 49.1766 102.262 49.3381C101.98 49.4951 101.664 49.5736 101.313 49.5736ZM101.313 49.1373C101.572 49.1373 101.803 49.0796 102.006 48.9642C102.213 48.8442 102.375 48.6757 102.49 48.4587C102.606 48.2417 102.664 47.9948 102.664 47.7178C102.664 47.4408 102.606 47.1938 102.49 46.9769C102.375 46.7599 102.213 46.5937 102.006 46.4783C101.803 46.3583 101.572 46.2982 101.313 46.2982C101.055 46.2982 100.822 46.3583 100.614 46.4783C100.411 46.5937 100.249 46.7599 100.129 46.9769C100.014 47.1938 99.956 47.4408 99.956 47.7178C99.956 47.9948 100.014 48.2417 100.129 48.4587C100.249 48.6757 100.411 48.8442 100.614 48.9642C100.822 49.0796 101.055 49.1373 101.313 49.1373Z" fill="#02221F"/>
<path d="M107.17 45.8966V49.539H106.679V46.3329H104.934L104.885 47.2331C104.848 47.9902 104.76 48.5718 104.622 48.9781C104.483 49.3843 104.236 49.5874 103.881 49.5874C103.784 49.5874 103.666 49.569 103.528 49.532L103.562 49.1096C103.646 49.1281 103.703 49.1373 103.736 49.1373C103.925 49.1373 104.068 49.0496 104.165 48.8742C104.262 48.6988 104.326 48.4818 104.359 48.2233C104.391 47.9648 104.419 47.6232 104.442 47.1984L104.504 45.8966H107.17Z" fill="#02221F"/>
<path d="M111.663 45.8966L109.842 49.9752C109.694 50.3168 109.523 50.5592 109.329 50.7023C109.136 50.8454 108.902 50.9169 108.63 50.9169C108.455 50.9169 108.291 50.8892 108.138 50.8339C107.986 50.7785 107.855 50.6954 107.744 50.5846L107.972 50.2176C108.157 50.4022 108.379 50.4945 108.637 50.4945C108.803 50.4945 108.944 50.4484 109.059 50.3561C109.179 50.2637 109.29 50.1068 109.392 49.8852L109.551 49.532L107.924 45.8966H108.436L109.807 48.9919L111.178 45.8966H111.663Z" fill="#02221F"/>
<path d="M115.178 45.8966V49.539H114.686V48.0225C114.266 48.2071 113.853 48.2995 113.447 48.2995C113.008 48.2995 112.667 48.2002 112.422 48.0017C112.177 47.7986 112.055 47.4962 112.055 47.0946V45.8966H112.547V47.0669C112.547 47.3392 112.634 47.547 112.81 47.6901C112.985 47.8286 113.228 47.8978 113.537 47.8978C113.879 47.8978 114.262 47.8078 114.686 47.6278V45.8966H115.178Z" fill="#02221F"/>
<path d="M117.828 45.8689C118.303 45.8689 118.668 45.9889 118.922 46.229C119.176 46.4644 119.303 46.8153 119.303 47.2815V49.539H118.832V48.9711C118.721 49.1604 118.557 49.3081 118.34 49.4143C118.128 49.5205 117.874 49.5736 117.578 49.5736C117.172 49.5736 116.849 49.4766 116.609 49.2827C116.369 49.0889 116.249 48.8326 116.249 48.5141C116.249 48.2048 116.36 47.9555 116.581 47.7663C116.807 47.577 117.165 47.4824 117.655 47.4824H118.811V47.2608C118.811 46.9468 118.723 46.7091 118.548 46.5475C118.372 46.3813 118.116 46.2982 117.779 46.2982C117.548 46.2982 117.327 46.3375 117.114 46.416C116.902 46.4898 116.72 46.5937 116.567 46.7276L116.346 46.3606C116.53 46.2036 116.752 46.0836 117.011 46.0005C117.269 45.9128 117.541 45.8689 117.828 45.8689ZM117.655 49.1858C117.932 49.1858 118.169 49.1235 118.368 48.9988C118.566 48.8696 118.714 48.6849 118.811 48.4449V47.8494H117.668C117.045 47.8494 116.734 48.0663 116.734 48.5003C116.734 48.7126 116.814 48.8811 116.976 49.0058C117.138 49.1258 117.364 49.1858 117.655 49.1858Z" fill="#02221F"/>
<path d="M120.611 45.8966H121.103V48.7911L123.534 45.8966H123.97V49.539H123.478V46.6445L121.055 49.539H120.611V45.8966ZM122.266 45.3704C121.953 45.3704 121.703 45.2919 121.519 45.1349C121.334 44.978 121.239 44.7564 121.235 44.4702H121.588C121.592 44.6502 121.657 44.7956 121.782 44.9064C121.906 45.0126 122.068 45.0657 122.266 45.0657C122.465 45.0657 122.626 45.0126 122.751 44.9064C122.88 44.7956 122.947 44.6502 122.952 44.4702H123.305C123.3 44.7564 123.204 44.978 123.014 45.1349C122.83 45.2919 122.58 45.3704 122.266 45.3704Z" fill="#02221F"/>
<path d="M127.941 46.3329H126.563V49.539H126.071V46.3329H124.693V45.8966H127.941V46.3329Z" fill="#02221F"/>
<path d="M131.668 47.8701H128.621C128.649 48.2487 128.794 48.5557 129.057 48.7911C129.321 49.0219 129.653 49.1373 130.055 49.1373C130.281 49.1373 130.489 49.0981 130.678 49.0196C130.867 48.9365 131.031 48.8165 131.169 48.6595L131.446 48.9781C131.285 49.172 131.082 49.3197 130.837 49.4212C130.597 49.5228 130.332 49.5736 130.041 49.5736C129.667 49.5736 129.334 49.4951 129.044 49.3381C128.757 49.1766 128.534 48.955 128.372 48.6734C128.21 48.3918 128.13 48.0732 128.13 47.7178C128.13 47.3623 128.206 47.0438 128.358 46.7622C128.515 46.4806 128.727 46.2613 128.995 46.1044C129.268 45.9474 129.572 45.8689 129.909 45.8689C130.246 45.8689 130.549 45.9474 130.816 46.1044C131.084 46.2613 131.294 46.4806 131.446 46.7622C131.599 47.0392 131.675 47.3577 131.675 47.7178L131.668 47.8701ZM129.909 46.2913C129.558 46.2913 129.263 46.4044 129.023 46.6306C128.787 46.8522 128.654 47.143 128.621 47.5031H131.204C131.172 47.143 131.036 46.8522 130.796 46.6306C130.56 46.4044 130.265 46.2913 129.909 46.2913Z" fill="#02221F"/>
<path d="M137.705 49.539L136.141 47.4062L134.583 49.539H133.994L135.836 47.0461L134.112 44.6917H134.7L136.161 46.6722L137.615 44.6917H138.169L136.452 47.0323L138.301 49.539H137.705Z" fill="#02221F"/>
<path d="M140.855 44.6917C141.474 44.6917 141.958 44.8395 142.309 45.1349C142.66 45.4304 142.835 45.8366 142.835 46.3536C142.835 46.8707 142.66 47.2769 142.309 47.5724C141.958 47.8632 141.474 48.0086 140.855 48.0086H139.553V49.539H139.041V44.6917H140.855ZM140.841 47.5585C141.321 47.5585 141.688 47.4547 141.942 47.2469C142.196 47.0346 142.323 46.7368 142.323 46.3536C142.323 45.9612 142.196 45.6612 141.942 45.4534C141.688 45.2411 141.321 45.1349 140.841 45.1349H139.553V47.5585H140.841Z" fill="#02221F"/>
<path d="M14.42 106.102V102.294L14.6682 102.565H13.5083V102.063H14.9913V106.102H14.42Z" fill="#0BA46B"/>
<path d="M17.2226 106.102L18.9018 103.811V104.256L17.3149 102.063H17.9728L19.2307 103.788L18.9711 103.794L20.2233 102.063H20.8522L19.2769 104.221V103.806L20.9561 106.102H20.2925L18.9538 104.262H19.2077L17.8862 106.102H17.2226Z" fill="#0BA46B"/>
<path d="M21.5009 106.102V102.063H23.0763C23.4302 102.063 23.7322 102.119 23.9822 102.23C24.2323 102.342 24.4246 102.503 24.5593 102.715C24.6939 102.927 24.7613 103.179 24.7613 103.471C24.7613 103.763 24.6939 104.015 24.5593 104.227C24.4246 104.435 24.2323 104.596 23.9822 104.712C23.7322 104.823 23.4302 104.879 23.0763 104.879H21.8183L22.078 104.608V106.102H21.5009ZM22.078 104.665L21.8183 104.377H23.059C23.4283 104.377 23.7072 104.298 23.8957 104.14C24.088 103.983 24.1842 103.76 24.1842 103.471C24.1842 103.182 24.088 102.959 23.8957 102.802C23.7072 102.644 23.4283 102.565 23.059 102.565H21.8183L22.078 102.276V104.665Z" fill="#0BA46B"/>
<path fill-rule="evenodd" clip-rule="evenodd" d="M28.2496 98.1749H10.4843C9.84693 98.1749 9.33022 98.6917 9.33022 99.329V108.832C9.33022 109.469 9.84693 109.986 10.4843 109.986H28.2496C28.887 109.986 29.4037 109.469 29.4037 108.832V99.329C29.4037 98.6917 28.887 98.1749 28.2496 98.1749ZM10.4843 97.5979C9.52824 97.5979 8.75317 98.373 8.75317 99.329V108.832C8.75317 109.788 9.52823 110.563 10.4843 110.563H28.2496C29.2056 110.563 29.9807 109.788 29.9807 108.832V99.329C29.9807 98.373 29.2057 97.5979 28.2496 97.5979H10.4843Z" fill="#0BA46B"/>
<path d="M131.216 106.149C130.908 106.149 130.622 106.097 130.356 105.993C130.095 105.889 129.868 105.745 129.675 105.56C129.483 105.371 129.333 105.152 129.225 104.902C129.118 104.652 129.064 104.379 129.064 104.083C129.064 103.786 129.118 103.513 129.225 103.263C129.333 103.013 129.483 102.796 129.675 102.611C129.868 102.423 130.095 102.277 130.356 102.173C130.618 102.069 130.905 102.017 131.216 102.017C131.524 102.017 131.807 102.069 132.064 102.173C132.326 102.273 132.553 102.417 132.745 102.605C132.941 102.79 133.092 103.007 133.195 103.258C133.303 103.508 133.357 103.783 133.357 104.083C133.357 104.383 133.303 104.658 133.195 104.908C133.092 105.158 132.941 105.377 132.745 105.566C132.553 105.75 132.326 105.895 132.064 105.998C131.807 106.099 131.524 106.149 131.216 106.149ZM131.216 105.635C131.439 105.635 131.645 105.596 131.834 105.52C132.026 105.443 132.191 105.335 132.33 105.196C132.472 105.054 132.582 104.889 132.659 104.7C132.74 104.512 132.78 104.306 132.78 104.083C132.78 103.86 132.74 103.654 132.659 103.465C132.582 103.277 132.472 103.113 132.33 102.975C132.191 102.832 132.026 102.723 131.834 102.646C131.645 102.569 131.439 102.53 131.216 102.53C130.989 102.53 130.779 102.569 130.587 102.646C130.399 102.723 130.233 102.832 130.091 102.975C129.949 103.113 129.837 103.277 129.756 103.465C129.679 103.654 129.641 103.86 129.641 104.083C129.641 104.306 129.679 104.512 129.756 104.7C129.837 104.889 129.949 105.054 130.091 105.196C130.233 105.335 130.399 105.443 130.587 105.52C130.779 105.596 130.989 105.635 131.216 105.635Z" fill="#FC525A"/>
<path d="M134.239 106.102V102.063H134.712L137.384 105.381H137.136V102.063H137.713V106.102H137.24L134.568 102.784H134.816V106.102H134.239Z" fill="#FC525A"/>
<path d="M140.728 106.149C140.42 106.149 140.136 106.099 139.874 105.998C139.616 105.895 139.391 105.75 139.199 105.566C139.01 105.377 138.862 105.158 138.754 104.908C138.647 104.658 138.593 104.383 138.593 104.083C138.593 103.783 138.647 103.508 138.754 103.258C138.862 103.007 139.012 102.79 139.205 102.605C139.397 102.417 139.622 102.273 139.88 102.173C140.141 102.069 140.426 102.017 140.734 102.017C141.045 102.017 141.332 102.071 141.594 102.178C141.859 102.282 142.084 102.438 142.269 102.646L141.894 103.009C141.74 102.848 141.567 102.729 141.374 102.652C141.182 102.571 140.976 102.53 140.757 102.53C140.53 102.53 140.318 102.569 140.122 102.646C139.93 102.723 139.762 102.83 139.62 102.969C139.478 103.107 139.366 103.273 139.285 103.465C139.208 103.654 139.17 103.86 139.17 104.083C139.17 104.306 139.208 104.514 139.285 104.706C139.366 104.894 139.478 105.058 139.62 105.196C139.762 105.335 139.93 105.443 140.122 105.52C140.318 105.596 140.53 105.635 140.757 105.635C140.976 105.635 141.182 105.596 141.374 105.52C141.567 105.439 141.74 105.316 141.894 105.15L142.269 105.514C142.084 105.722 141.859 105.879 141.594 105.987C141.332 106.095 141.043 106.149 140.728 106.149Z" fill="#FC525A"/>
<path d="M143.617 103.806H145.694V104.296H143.617V103.806ZM143.669 105.6H146.023V106.102H143.092V102.063H145.943V102.565H143.669V105.6Z" fill="#FC525A"/>
<path fill-rule="evenodd" clip-rule="evenodd" d="M150.594 98.1749H125.464C124.827 98.1749 124.31 98.6917 124.31 99.329V108.832C124.31 109.469 124.827 109.986 125.464 109.986H150.594C151.232 109.986 151.748 109.469 151.748 108.832V99.329C151.748 98.6917 151.232 98.1749 150.594 98.1749ZM125.464 97.5979C124.508 97.5979 123.733 98.373 123.733 99.329V108.832C123.733 109.788 124.508 110.563 125.464 110.563H150.594C151.55 110.563 152.325 109.788 152.325 108.832V99.329C152.325 98.373 151.55 97.5979 150.594 97.5979H125.464Z" fill="#FC525A"/>
</svg>
