<svg width="240" height="163" viewBox="0 0 240 163" fill="none" xmlns="http://www.w3.org/2000/svg">
<rect x="21.5" y="1.5" width="217" height="145" rx="7.5" fill="#97EAF2" stroke="#02221F" stroke-width="3"/>
<rect x="1.5" y="16.8171" width="216.673" height="144.683" rx="7.5" fill="white" stroke="#02221F" stroke-width="3"/>
<path d="M21.9586 37.9063C22.5192 38.0993 22.9557 38.4026 23.2682 38.8161C23.5898 39.2205 23.7507 39.6938 23.7507 40.236C23.7507 40.8242 23.5577 41.3343 23.1717 41.7662C22.7857 42.1981 22.2618 42.529 21.6002 42.7588C20.9476 42.9885 20.2308 43.1034 19.4496 43.1034C18.7879 43.1034 18.1262 43.0207 17.4645 42.8552C16.812 42.6898 16.1917 42.4371 15.6035 42.0971L16.2928 40.498C16.7155 40.7553 17.1796 40.9529 17.6851 41.0907C18.1998 41.2194 18.7006 41.2837 19.1877 41.2837C19.8494 41.2837 20.3962 41.1642 20.8282 40.9253C21.2693 40.6864 21.4899 40.3509 21.4899 39.919C21.4899 39.5605 21.3382 39.2894 21.035 39.1056C20.7409 38.9218 20.3365 38.8299 19.8218 38.8299H17.4645V37.1481H19.6564C20.1067 37.1481 20.456 37.0562 20.7041 36.8724C20.9614 36.6886 21.0901 36.4359 21.0901 36.1142C21.0901 35.7374 20.9063 35.4433 20.5387 35.2319C20.1803 35.0206 19.7162 34.9149 19.1464 34.9149C18.7236 34.9149 18.2871 34.9746 17.8367 35.0941C17.3864 35.2044 16.9591 35.3744 16.5547 35.6041L15.8792 33.8672C16.8993 33.3433 18.0022 33.0814 19.1877 33.0814C19.9413 33.0814 20.6352 33.1917 21.2693 33.4123C21.9034 33.6328 22.4089 33.9545 22.7857 34.3772C23.1625 34.8 23.3509 35.2917 23.3509 35.8523C23.3509 36.3118 23.2268 36.7208 22.9787 37.0792C22.7306 37.4376 22.3905 37.7133 21.9586 37.9063Z" fill="#02221F"/>
<path d="M28.2344 35.4111C29.3831 35.4111 30.2654 35.6869 30.8812 36.2383C31.4969 36.7805 31.8048 37.603 31.8048 38.7059V42.938H29.7921V42.0143C29.3877 42.7036 28.6341 43.0482 27.5313 43.0482C26.9615 43.0482 26.4652 42.9517 26.0425 42.7588C25.6289 42.5658 25.3119 42.2992 25.0913 41.9592C24.8707 41.6192 24.7604 41.2332 24.7604 40.8012C24.7604 40.112 25.0178 39.5697 25.5324 39.1746C26.0563 38.7794 26.8604 38.5818 27.9449 38.5818H29.6543C29.6543 38.1131 29.5118 37.7547 29.2269 37.5065C28.942 37.2492 28.5147 37.1205 27.9449 37.1205C27.5497 37.1205 27.1591 37.1849 26.7731 37.3135C26.3963 37.433 26.0747 37.5984 25.8081 37.8098L25.0362 36.3072C25.4405 36.0223 25.923 35.8017 26.4836 35.6455C27.0534 35.4893 27.637 35.4111 28.2344 35.4111ZM28.0689 41.6008C28.4365 41.6008 28.7628 41.5181 29.0477 41.3526C29.3326 41.178 29.5348 40.9253 29.6543 40.5944V39.8363H28.1792C27.297 39.8363 26.8558 40.1257 26.8558 40.7047C26.8558 40.9804 26.9615 41.201 27.1729 41.3664C27.3935 41.5227 27.6921 41.6008 28.0689 41.6008Z" fill="#02221F"/>
<path d="M41.9855 41.1734V44.5371H39.9866V42.938H34.7757V44.5371H32.7769V41.1734H33.0801C33.5396 41.1642 33.8567 40.8931 34.0313 40.3601C34.2059 39.8271 34.3162 39.0689 34.3622 38.0855L34.4587 35.5214H40.924V41.1734H41.9855ZM36.3059 38.2371C36.2783 38.9907 36.2186 39.6065 36.1267 40.0844C36.044 40.5623 35.8832 40.9253 35.6442 41.1734H38.7735V37.286H36.3473L36.3059 38.2371Z" fill="#02221F"/>
<path d="M46.22 35.4111C47.3687 35.4111 48.251 35.6869 48.8667 36.2383C49.4825 36.7805 49.7904 37.603 49.7904 38.7059V42.938H47.7777V42.0143C47.3733 42.7036 46.6197 43.0482 45.5169 43.0482C44.9471 43.0482 44.4508 42.9517 44.0281 42.7588C43.6145 42.5658 43.2975 42.2992 43.0769 41.9592C42.8563 41.6192 42.746 41.2332 42.746 40.8012C42.746 40.112 43.0034 39.5697 43.518 39.1746C44.0419 38.7794 44.846 38.5818 45.9305 38.5818H47.6399C47.6399 38.1131 47.4974 37.7547 47.2125 37.5065C46.9276 37.2492 46.5003 37.1205 45.9305 37.1205C45.5353 37.1205 45.1447 37.1849 44.7587 37.3135C44.3819 37.433 44.0603 37.5984 43.7937 37.8098L43.0218 36.3072C43.4261 36.0223 43.9086 35.8017 44.4692 35.6455C45.039 35.4893 45.6226 35.4111 46.22 35.4111ZM46.0545 41.6008C46.4221 41.6008 46.7484 41.5181 47.0333 41.3526C47.3182 41.178 47.5204 40.9253 47.6399 40.5944V39.8363H46.1648C45.2826 39.8363 44.8414 40.1257 44.8414 40.7047C44.8414 40.9804 44.9471 41.201 45.1585 41.3664C45.3791 41.5227 45.6777 41.6008 46.0545 41.6008Z" fill="#02221F"/>
<path d="M51.6585 35.5214H53.7952V38.4164H57.021V35.5214H59.1715V42.938H57.021V40.1671H53.7952V42.938H51.6585V35.5214Z" fill="#02221F"/>
<path d="M61.2302 35.5214H63.3669V39.9328L66.9787 35.5214H68.95V42.938H66.8133V38.5266L63.2153 42.938H61.2302V35.5214Z" fill="#02221F"/>
<path d="M78.227 39.2573C78.227 39.2848 78.2132 39.4778 78.1856 39.8363H72.575C72.6761 40.2958 72.915 40.6588 73.2918 40.9253C73.6686 41.1918 74.1373 41.3251 74.6979 41.3251C75.0839 41.3251 75.424 41.2699 75.7181 41.1596C76.0213 41.0402 76.3016 40.8564 76.559 40.6082L77.7032 41.8489C77.0047 42.6485 75.9846 43.0482 74.6428 43.0482C73.8065 43.0482 73.0667 42.8874 72.4234 42.5658C71.78 42.2349 71.2838 41.78 70.9345 41.201C70.5853 40.622 70.4107 39.9649 70.4107 39.2297C70.4107 38.5037 70.5807 37.8512 70.9208 37.2722C71.27 36.684 71.7433 36.2291 72.3406 35.9074C72.9472 35.5766 73.6227 35.4111 74.3671 35.4111C75.0931 35.4111 75.7502 35.5674 76.3384 35.8799C76.9266 36.1923 77.3861 36.6426 77.7169 37.2308C78.057 37.8098 78.227 38.4853 78.227 39.2573ZM74.3809 37.0378C73.8938 37.0378 73.4848 37.1757 73.154 37.4514C72.8231 37.7271 72.6209 38.1039 72.5474 38.5818H76.2006C76.127 38.1131 75.9248 37.7409 75.594 37.4652C75.2631 37.1803 74.8588 37.0378 74.3809 37.0378Z" fill="#02221F"/>
<path d="M87.0053 33.2882V42.938H84.772V35.0803H82.8421V33.2882H87.0053Z" fill="#02221F"/>
<path d="M20.1714 64.1028C20.6186 64.1947 20.9587 64.3755 21.1915 64.645C21.4243 64.9085 21.5407 65.2547 21.5407 65.6835C21.5407 66.2411 21.3416 66.67 20.9434 66.9702C20.5512 67.2704 19.9723 67.4205 19.2064 67.4205H16.3574V60.9873H19.0318C19.718 60.9873 20.2541 61.1282 20.6401 61.4101C21.0261 61.6919 21.2191 62.0993 21.2191 62.6324C21.2191 62.9939 21.1272 63.3002 20.9434 63.5514C20.7595 63.7965 20.5022 63.9803 20.1714 64.1028ZM17.0283 63.9006H18.995C19.4913 63.9006 19.8712 63.7995 20.1346 63.5974C20.4042 63.3952 20.539 63.1011 20.539 62.7151C20.539 62.3291 20.4042 62.035 20.1346 61.8328C19.8712 61.6306 19.4913 61.5296 18.995 61.5296H17.0283V63.9006ZM19.2064 66.8783C20.3154 66.8783 20.8698 66.4647 20.8698 65.6376C20.8698 64.8288 20.3154 64.4245 19.2064 64.4245H17.0283V66.8783H19.2064Z" fill="#02221F"/>
<path d="M25.1159 64.2958C25.7225 64.3019 26.1851 64.4367 26.5037 64.7002C26.8223 64.9636 26.9816 65.3435 26.9816 65.8398C26.9816 66.3544 26.81 66.7496 26.4669 67.0253C26.1238 67.301 25.6337 67.4358 24.9965 67.4297L23.0849 67.4205V62.5864H23.7374V64.2774L25.1159 64.2958ZM27.7903 62.5864H28.4428V67.4205H27.7903V62.5864ZM24.9597 66.9334C25.407 66.9395 25.7439 66.8507 25.9706 66.6669C26.2035 66.477 26.3199 66.2013 26.3199 65.8398C26.3199 65.4844 26.2065 65.221 25.9798 65.0494C25.7531 64.8779 25.4131 64.789 24.9597 64.7829L23.7374 64.7645V66.915L24.9597 66.9334Z" fill="#02221F"/>
<path d="M34.6385 62.5864V67.4205H33.986V63.1654H30.9532V67.4205H30.3007V62.5864H34.6385Z" fill="#02221F"/>
<path d="M38.4876 67.4665C38.022 67.4665 37.6023 67.3623 37.2285 67.154C36.8548 66.9395 36.5607 66.6455 36.3463 66.2717C36.1318 65.898 36.0246 65.4752 36.0246 65.0035C36.0246 64.5317 36.1318 64.1089 36.3463 63.7352C36.5607 63.3615 36.8548 63.0704 37.2285 62.8621C37.6023 62.6538 38.022 62.5497 38.4876 62.5497C38.9532 62.5497 39.3729 62.6538 39.7467 62.8621C40.1204 63.0704 40.4114 63.3615 40.6197 63.7352C40.8342 64.1089 40.9414 64.5317 40.9414 65.0035C40.9414 65.4752 40.8342 65.898 40.6197 66.2717C40.4114 66.6455 40.1204 66.9395 39.7467 67.154C39.3729 67.3623 38.9532 67.4665 38.4876 67.4665ZM38.4876 66.8875C38.8307 66.8875 39.1371 66.8109 39.4066 66.6577C39.6823 66.4984 39.8968 66.2748 40.0499 65.9868C40.2031 65.6989 40.2797 65.3711 40.2797 65.0035C40.2797 64.6359 40.2031 64.3081 40.0499 64.0201C39.8968 63.7321 39.6823 63.5116 39.4066 63.3584C39.1371 63.1991 38.8307 63.1195 38.4876 63.1195C38.1445 63.1195 37.8351 63.1991 37.5594 63.3584C37.2898 63.5116 37.0754 63.7321 36.9161 64.0201C36.7629 64.3081 36.6863 64.6359 36.6863 65.0035C36.6863 65.3711 36.7629 65.6989 36.9161 65.9868C37.0754 66.2748 37.2898 66.4984 37.5594 66.6577C37.8351 66.8109 38.1445 66.8875 38.4876 66.8875Z" fill="#02221F"/>
<path d="M46.2608 62.5864V67.4205H45.6083V63.1654H43.2924L43.228 64.3601C43.179 65.3649 43.0626 66.1369 42.8788 66.6761C42.695 67.2152 42.3672 67.4848 41.8955 67.4848C41.7668 67.4848 41.6106 67.4603 41.4268 67.4113L41.4727 66.8507C41.583 66.8752 41.6596 66.8875 41.7025 66.8875C41.9537 66.8875 42.1436 66.7711 42.2723 66.5382C42.4009 66.3054 42.4867 66.0175 42.5296 65.6744C42.5725 65.3312 42.6092 64.8779 42.6399 64.3142L42.7226 62.5864H46.2608Z" fill="#02221F"/>
<path d="M48.1158 62.5864H48.7683V64.7278H51.8102V62.5864H52.4627V67.4205H51.8102V65.2884H48.7683V67.4205H48.1158V62.5864Z" fill="#02221F"/>
<path d="M58.0302 62.5864V67.4205H57.4329V65.8214H55.9165H55.7327L54.6115 67.4205H53.9038L55.1077 65.7295C54.734 65.6253 54.446 65.4477 54.2439 65.1965C54.0417 64.9453 53.9406 64.6267 53.9406 64.2407C53.9406 63.7015 54.1244 63.291 54.492 63.0092C54.8596 62.7273 55.362 62.5864 55.9992 62.5864H58.0302ZM54.6023 64.2591C54.6023 64.9759 55.0587 65.3343 55.9716 65.3343H57.4329V63.1654H56.0176C55.074 63.1654 54.6023 63.53 54.6023 64.2591Z" fill="#02221F"/>
<path d="M59.8908 62.5864H60.5433V66.428L63.769 62.5864H64.348V67.4205H63.6955V63.579L60.4789 67.4205H59.8908V62.5864ZM62.0872 61.888C61.6706 61.888 61.3397 61.7838 61.0947 61.5755C60.8496 61.3672 60.724 61.0731 60.7179 60.6932H61.1866C61.1927 60.9322 61.2785 61.1252 61.4439 61.2722C61.6093 61.4131 61.8238 61.4836 62.0872 61.4836C62.3507 61.4836 62.5651 61.4131 62.7305 61.2722C62.9021 61.1252 62.9909 60.9322 62.9971 60.6932H63.4658C63.4596 61.0731 63.331 61.3672 63.0798 61.5755C62.8347 61.7838 62.5038 61.888 62.0872 61.888Z" fill="#02221F"/>
<path d="M74.4963 64.9024C74.8394 64.982 75.1028 65.1199 75.2866 65.3159C75.4766 65.512 75.5715 65.7509 75.5715 66.0328C75.5715 66.3146 75.4735 66.5658 75.2774 66.7864C75.0875 67.0069 74.8271 67.1785 74.4963 67.301C74.1654 67.4174 73.8009 67.4756 73.4026 67.4756C73.0534 67.4756 72.7103 67.4266 72.3733 67.3286C72.0364 67.2244 71.7423 67.0743 71.4911 66.8783L71.7116 66.3912C71.9322 66.5566 72.1895 66.6853 72.4836 66.7772C72.7777 66.8691 73.0749 66.915 73.3751 66.915C73.8223 66.915 74.1869 66.8323 74.4687 66.6669C74.7567 66.4953 74.9006 66.2656 74.9006 65.9776C74.9006 65.7203 74.7842 65.5212 74.5514 65.3803C74.3186 65.2332 74 65.1597 73.5956 65.1597H72.7685V64.6818H73.5589C73.9204 64.6818 74.2114 64.6144 74.4319 64.4796C74.6525 64.3387 74.7628 64.1518 74.7628 63.919C74.7628 63.6617 74.6372 63.4595 74.386 63.3125C74.1409 63.1654 73.8193 63.0919 73.421 63.0919C72.9002 63.0919 72.3856 63.2236 71.8771 63.4871L71.6932 62.9816C72.2692 62.6814 72.8665 62.5313 73.4853 62.5313C73.853 62.5313 74.1838 62.5864 74.4779 62.6967C74.7781 62.8009 75.0109 62.951 75.1763 63.147C75.3479 63.3431 75.4337 63.5698 75.4337 63.8271C75.4337 64.0722 75.3479 64.2897 75.1763 64.4796C75.0109 64.6696 74.7842 64.8105 74.4963 64.9024Z" fill="#02221F"/>
<path d="M78.7163 62.5497C79.3473 62.5497 79.8313 62.709 80.1683 63.0276C80.5053 63.34 80.6738 63.8057 80.6738 64.4245V67.4205H80.0488V66.6669C79.9018 66.9181 79.6843 67.1142 79.3963 67.2551C79.1145 67.396 78.7775 67.4665 78.3854 67.4665C77.8462 67.4665 77.4174 67.3378 77.0988 67.0805C76.7802 66.8231 76.6209 66.4831 76.6209 66.0603C76.6209 65.6498 76.7679 65.319 77.062 65.0678C77.3622 64.8166 77.837 64.691 78.4865 64.691H80.0213V64.3969C80.0213 63.9803 79.9049 63.6648 79.672 63.4503C79.4392 63.2297 79.0992 63.1195 78.6519 63.1195C78.3456 63.1195 78.0515 63.1715 77.7697 63.2757C77.4878 63.3737 77.2458 63.5116 77.0436 63.6893L76.7495 63.2022C76.9946 62.9939 77.2887 62.8346 77.6318 62.7243C77.9749 62.6079 78.3364 62.5497 78.7163 62.5497ZM78.4865 66.9518C78.8541 66.9518 79.1696 66.8691 79.4331 66.7037C79.6965 66.5321 79.8926 66.287 80.0213 65.9684V65.1781H78.5049C77.6777 65.1781 77.2642 65.466 77.2642 66.042C77.2642 66.3238 77.3714 66.5474 77.5858 66.7128C77.8003 66.8721 78.1005 66.9518 78.4865 66.9518Z" fill="#02221F"/>
<path d="M87.1254 66.8507V68.5877H86.5097V67.4205H82.181V68.5877H81.5653V66.8507H81.841C82.1657 66.8323 82.3863 66.5934 82.5027 66.1339C82.6191 65.6744 82.6988 65.031 82.7416 64.2039L82.806 62.5864H86.3718V66.8507H87.1254ZM83.339 64.2407C83.3084 64.9269 83.2502 65.4936 83.1644 65.9409C83.0786 66.382 82.9255 66.6853 82.7049 66.8507H85.7193V63.1654H83.3942L83.339 64.2407Z" fill="#02221F"/>
<path d="M90.0605 62.5497C90.6915 62.5497 91.1755 62.709 91.5125 63.0276C91.8495 63.34 92.018 63.8057 92.018 64.4245V67.4205H91.393V66.6669C91.246 66.9181 91.0285 67.1142 90.7405 67.2551C90.4587 67.396 90.1217 67.4665 89.7296 67.4665C89.1904 67.4665 88.7616 67.3378 88.443 67.0805C88.1244 66.8231 87.9651 66.4831 87.9651 66.0603C87.9651 65.6498 88.1121 65.319 88.4062 65.0678C88.7064 64.8166 89.1813 64.691 89.8307 64.691H91.3655V64.3969C91.3655 63.9803 91.2491 63.6648 91.0162 63.4503C90.7834 63.2297 90.4434 63.1195 89.9961 63.1195C89.6898 63.1195 89.3957 63.1715 89.1139 63.2757C88.832 63.3737 88.59 63.5116 88.3878 63.6893L88.0937 63.2022C88.3388 62.9939 88.6329 62.8346 88.976 62.7243C89.3191 62.6079 89.6806 62.5497 90.0605 62.5497ZM89.8307 66.9518C90.1983 66.9518 90.5138 66.8691 90.7773 66.7037C91.0407 66.5321 91.2368 66.287 91.3655 65.9684V65.1781H89.8491C89.022 65.1781 88.6084 65.466 88.6084 66.042C88.6084 66.3238 88.7156 66.5474 88.9301 66.7128C89.1445 66.8721 89.4447 66.9518 89.8307 66.9518Z" fill="#02221F"/>
<path d="M93.755 62.5864H94.4075V64.7278H97.4495V62.5864H98.102V67.4205H97.4495V65.2884H94.4075V67.4205H93.755V62.5864Z" fill="#02221F"/>
<path d="M99.9566 62.5864H100.609V66.428L103.835 62.5864H104.414V67.4205H103.761V63.579L100.545 67.4205H99.9566V62.5864Z" fill="#02221F"/>
<path d="M109.997 62.5864V67.4205H109.399V65.8214H107.883H107.699L106.578 67.4205H105.87L107.074 65.7295C106.701 65.6253 106.413 65.4477 106.21 65.1965C106.008 64.9453 105.907 64.6267 105.907 64.2407C105.907 63.7015 106.091 63.291 106.459 63.0092C106.826 62.7273 107.329 62.5864 107.966 62.5864H109.997ZM106.569 64.2591C106.569 64.9759 107.025 65.3343 107.938 65.3343H109.399V63.1654H107.984C107.041 63.1654 106.569 63.53 106.569 64.2591Z" fill="#02221F"/>
<path d="M114.263 62.5864H114.915V66.428L118.141 62.5864H118.72V67.4205H118.067V63.579L114.851 67.4205H114.263V62.5864Z" fill="#02221F"/>
<path d="M127.333 62.5864V67.4205H126.68V63.1654H123.648V67.4205H122.995V62.5864H127.333Z" fill="#02221F"/>
<path d="M131.182 67.4665C130.716 67.4665 130.297 67.3623 129.923 67.154C129.549 66.9395 129.255 66.6455 129.041 66.2717C128.826 65.898 128.719 65.4752 128.719 65.0035C128.719 64.5317 128.826 64.1089 129.041 63.7352C129.255 63.3615 129.549 63.0704 129.923 62.8621C130.297 62.6538 130.716 62.5497 131.182 62.5497C131.648 62.5497 132.067 62.6538 132.441 62.8621C132.815 63.0704 133.106 63.3615 133.314 63.7352C133.529 64.1089 133.636 64.5317 133.636 65.0035C133.636 65.4752 133.529 65.898 133.314 66.2717C133.106 66.6455 132.815 66.9395 132.441 67.154C132.067 67.3623 131.648 67.4665 131.182 67.4665ZM131.182 66.8875C131.525 66.8875 131.831 66.8109 132.101 66.6577C132.377 66.4984 132.591 66.2748 132.744 65.9868C132.898 65.6989 132.974 65.3711 132.974 65.0035C132.974 64.6359 132.898 64.3081 132.744 64.0201C132.591 63.7321 132.377 63.5116 132.101 63.3584C131.831 63.1991 131.525 63.1195 131.182 63.1195C130.839 63.1195 130.529 63.1991 130.254 63.3584C129.984 63.5116 129.77 63.7321 129.61 64.0201C129.457 64.3081 129.381 64.6359 129.381 65.0035C129.381 65.3711 129.457 65.6989 129.61 65.9868C129.77 66.2748 129.984 66.4984 130.254 66.6577C130.529 66.8109 130.839 66.8875 131.182 66.8875Z" fill="#02221F"/>
<path d="M138.955 62.5864V67.4205H138.303V63.1654H135.987L135.922 64.3601C135.873 65.3649 135.757 66.1369 135.573 66.6761C135.389 67.2152 135.062 67.4848 134.59 67.4848C134.461 67.4848 134.305 67.4603 134.121 67.4113L134.167 66.8507C134.277 66.8752 134.354 66.8875 134.397 66.8875C134.648 66.8875 134.838 66.7711 134.967 66.5382C135.095 66.3054 135.181 66.0175 135.224 65.6744C135.267 65.3312 135.304 64.8779 135.334 64.3142L135.417 62.5864H138.955Z" fill="#02221F"/>
<path d="M144.918 62.5864L142.501 67.9995C142.305 68.4529 142.078 68.7745 141.821 68.9645C141.564 69.1544 141.254 69.2494 140.893 69.2494C140.66 69.2494 140.443 69.2126 140.24 69.1391C140.038 69.0656 139.864 68.9553 139.716 68.8082L140.02 68.3211C140.265 68.5662 140.559 68.6888 140.902 68.6888C141.123 68.6888 141.309 68.6275 141.463 68.5049C141.622 68.3824 141.769 68.1741 141.904 67.88L142.115 67.4113L139.955 62.5864H140.636L142.455 66.6945L144.275 62.5864H144.918Z" fill="#02221F"/>
<path d="M149.583 62.5864V67.4205H148.931V65.4078C148.373 65.6529 147.825 65.7754 147.286 65.7754C146.704 65.7754 146.25 65.6437 145.926 65.3803C145.601 65.1107 145.439 64.7094 145.439 64.1763V62.5864H146.091V64.1396C146.091 64.5011 146.207 64.7768 146.44 64.9667C146.673 65.1505 146.995 65.2424 147.405 65.2424C147.859 65.2424 148.367 65.1229 148.931 64.884V62.5864H149.583Z" fill="#02221F"/>
<path d="M153.1 62.5497C153.731 62.5497 154.215 62.709 154.552 63.0276C154.889 63.34 155.057 63.8057 155.057 64.4245V67.4205H154.432V66.6669C154.285 66.9181 154.068 67.1142 153.78 67.2551C153.498 67.396 153.161 67.4665 152.769 67.4665C152.23 67.4665 151.801 67.3378 151.482 67.0805C151.164 66.8231 151.004 66.4831 151.004 66.0603C151.004 65.6498 151.151 65.319 151.446 65.0678C151.746 64.8166 152.221 64.691 152.87 64.691H154.405V64.3969C154.405 63.9803 154.288 63.6648 154.056 63.4503C153.823 63.2297 153.483 63.1195 153.035 63.1195C152.729 63.1195 152.435 63.1715 152.153 63.2757C151.871 63.3737 151.629 63.5116 151.427 63.6893L151.133 63.2022C151.378 62.9939 151.672 62.8346 152.015 62.7243C152.358 62.6079 152.72 62.5497 153.1 62.5497ZM152.87 66.9518C153.238 66.9518 153.553 66.8691 153.817 66.7037C154.08 66.5321 154.276 66.287 154.405 65.9684V65.1781H152.888C152.061 65.1781 151.648 65.466 151.648 66.042C151.648 66.3238 151.755 66.5474 151.969 66.7128C152.184 66.8721 152.484 66.9518 152.87 66.9518Z" fill="#02221F"/>
<path d="M156.794 62.5864H157.447V66.428L160.673 62.5864H161.252V67.4205H160.599V63.579L157.383 67.4205H156.794V62.5864ZM158.991 61.888C158.574 61.888 158.243 61.7838 157.998 61.5755C157.753 61.3672 157.628 61.0731 157.621 60.6932H158.09C158.096 60.9322 158.182 61.1252 158.348 61.2722C158.513 61.4131 158.727 61.4836 158.991 61.4836C159.254 61.4836 159.469 61.4131 159.634 61.2722C159.806 61.1252 159.895 60.9322 159.901 60.6932H160.369C160.363 61.0731 160.235 61.3672 159.983 61.5755C159.738 61.7838 159.407 61.888 158.991 61.888Z" fill="#02221F"/>
<path d="M173.146 67.4205L171.069 64.5899L169.001 67.4205H168.22L170.664 64.112L168.376 60.9873H169.157L171.096 63.6157L173.026 60.9873H173.761L171.482 64.0936L173.936 67.4205H173.146Z" fill="#02221F"/>
<path d="M177.326 60.9873C178.147 60.9873 178.79 61.1834 179.256 61.5755C179.721 61.9676 179.954 62.5068 179.954 63.193C179.954 63.8792 179.721 64.4184 179.256 64.8105C178.79 65.1965 178.147 65.3895 177.326 65.3895H175.598V67.4205H174.918V60.9873H177.326ZM177.307 64.7921C177.945 64.7921 178.432 64.6542 178.769 64.3785C179.106 64.0967 179.274 63.7015 179.274 63.193C179.274 62.6722 179.106 62.274 178.769 61.9983C178.432 61.7164 177.945 61.5755 177.307 61.5755H175.598V64.7921H177.307Z" fill="#02221F"/>
<path d="M22.1378 142.491V137.436L22.4671 137.796H20.9277V137.13H22.896V142.491H22.1378Z" fill="#0BA46B"/>
<path d="M25.8573 142.491L28.086 139.45V140.04L25.9799 137.13H26.8529L28.5225 139.42L28.1779 139.427L29.8398 137.13H30.6745L28.5838 139.994V139.443L30.8124 142.491H29.9317L28.1549 140.048H28.4919L26.7381 142.491H25.8573Z" fill="#0BA46B"/>
<path d="M31.5355 142.491V137.13H33.6262C34.096 137.13 34.4968 137.204 34.8286 137.352C35.1605 137.5 35.4158 137.714 35.5945 137.995C35.7732 138.276 35.8625 138.611 35.8625 138.999C35.8625 139.387 35.7732 139.721 35.5945 140.002C35.4158 140.278 35.1605 140.492 34.8286 140.645C34.4968 140.793 34.096 140.867 33.6262 140.867H31.9567L32.3013 140.507V142.491H31.5355ZM32.3013 140.584L31.9567 140.201H33.6033C34.0934 140.201 34.4636 140.096 34.7138 139.887C34.969 139.678 35.0967 139.381 35.0967 138.999C35.0967 138.616 34.969 138.32 34.7138 138.11C34.4636 137.901 34.0934 137.796 33.6033 137.796H31.9567L32.3013 137.413V140.584Z" fill="#0BA46B"/>
<path fill-rule="evenodd" clip-rule="evenodd" d="M40.4926 131.97H16.9147C16.0688 131.97 15.383 132.655 15.383 133.501V146.113C15.383 146.959 16.0688 147.645 16.9147 147.645H40.4926C41.3385 147.645 42.0243 146.959 42.0243 146.113V133.501C42.0243 132.655 41.3385 131.97 40.4926 131.97ZM16.9147 131.204C15.6458 131.204 14.6172 132.232 14.6172 133.501V146.113C14.6172 147.382 15.6458 148.411 16.9147 148.411H40.4926C41.7615 148.411 42.7902 147.382 42.7902 146.113V133.501C42.7902 132.232 41.7615 131.204 40.4926 131.204H16.9147Z" fill="#0BA46B"/>
<path d="M177.148 142.552C176.739 142.552 176.359 142.483 176.007 142.345C175.659 142.207 175.358 142.016 175.103 141.771C174.848 141.521 174.648 141.23 174.505 140.898C174.362 140.566 174.291 140.203 174.291 139.81C174.291 139.417 174.362 139.055 174.505 138.723C174.648 138.391 174.848 138.103 175.103 137.857C175.358 137.607 175.659 137.413 176.007 137.275C176.354 137.138 176.734 137.069 177.148 137.069C177.556 137.069 177.931 137.138 178.273 137.275C178.621 137.408 178.922 137.6 179.177 137.85C179.438 138.095 179.637 138.383 179.775 138.715C179.917 139.047 179.989 139.412 179.989 139.81C179.989 140.209 179.917 140.574 179.775 140.906C179.637 141.237 179.438 141.528 179.177 141.779C178.922 142.024 178.621 142.215 178.273 142.353C177.931 142.486 177.556 142.552 177.148 142.552ZM177.148 141.871C177.444 141.871 177.717 141.819 177.967 141.717C178.222 141.615 178.442 141.472 178.626 141.288C178.815 141.1 178.96 140.88 179.062 140.63C179.17 140.38 179.223 140.106 179.223 139.81C179.223 139.514 179.17 139.241 179.062 138.991C178.96 138.741 178.815 138.524 178.626 138.34C178.442 138.151 178.222 138.005 177.967 137.903C177.717 137.801 177.444 137.75 177.148 137.75C176.846 137.75 176.568 137.801 176.313 137.903C176.063 138.005 175.843 138.151 175.654 138.34C175.465 138.524 175.317 138.741 175.21 138.991C175.108 139.241 175.057 139.514 175.057 139.81C175.057 140.106 175.108 140.38 175.21 140.63C175.317 140.88 175.465 141.1 175.654 141.288C175.843 141.472 176.063 141.615 176.313 141.717C176.568 141.819 176.846 141.871 177.148 141.871Z" fill="#FC525A"/>
<path d="M181.16 142.491V137.13H181.788L185.333 141.534H185.004V137.13H185.77V142.491H185.142L181.596 138.087H181.925V142.491H181.16Z" fill="#FC525A"/>
<path d="M189.772 142.552C189.363 142.552 188.985 142.486 188.638 142.353C188.296 142.215 187.998 142.024 187.742 141.779C187.492 141.528 187.295 141.237 187.153 140.906C187.01 140.574 186.938 140.209 186.938 139.81C186.938 139.412 187.01 139.047 187.153 138.715C187.295 138.383 187.495 138.095 187.75 137.85C188.005 137.6 188.304 137.408 188.646 137.275C188.993 137.138 189.371 137.069 189.779 137.069C190.193 137.069 190.573 137.14 190.921 137.283C191.273 137.421 191.571 137.628 191.817 137.903L191.319 138.386C191.115 138.171 190.885 138.013 190.629 137.911C190.374 137.804 190.101 137.75 189.81 137.75C189.509 137.75 189.228 137.801 188.968 137.903C188.712 138.005 188.49 138.148 188.301 138.332C188.112 138.516 187.964 138.736 187.857 138.991C187.755 139.241 187.704 139.514 187.704 139.81C187.704 140.106 187.755 140.382 187.857 140.637C187.964 140.888 188.112 141.105 188.301 141.288C188.49 141.472 188.712 141.615 188.968 141.717C189.228 141.819 189.509 141.871 189.81 141.871C190.101 141.871 190.374 141.819 190.629 141.717C190.885 141.61 191.115 141.447 191.319 141.227L191.817 141.71C191.571 141.985 191.273 142.195 190.921 142.338C190.573 142.481 190.19 142.552 189.772 142.552Z" fill="#FC525A"/>
<path d="M193.606 139.443H196.363V140.094H193.606V139.443ZM193.675 141.825H196.8V142.491H192.909V137.13H196.692V137.796H193.675V141.825Z" fill="#FC525A"/>
<path fill-rule="evenodd" clip-rule="evenodd" d="M202.866 131.97H169.514C168.668 131.97 167.983 132.655 167.983 133.501V146.113C167.983 146.959 168.668 147.645 169.514 147.645H202.866C203.712 147.645 204.398 146.959 204.398 146.113V133.501C204.398 132.655 203.712 131.97 202.866 131.97ZM169.514 131.204C168.245 131.204 167.217 132.232 167.217 133.501V146.113C167.217 147.382 168.245 148.411 169.514 148.411H202.866C204.135 148.411 205.164 147.382 205.164 146.113V133.501C205.164 132.232 204.135 131.204 202.866 131.204H169.514Z" fill="#FC525A"/>
</svg>
