<svg width="178" height="122" viewBox="0 0 178 122" fill="none" xmlns="http://www.w3.org/2000/svg">
<rect x="14" y="1" width="163" height="109" rx="7" fill="#97EAF2" stroke="#02221F" stroke-width="2"/>
<rect x="1" y="12" width="162.997" height="108.754" rx="7" fill="white" stroke="#02221F" stroke-width="2"/>
<path d="M14.2844 27.3008C14.7068 27.4462 15.0358 27.6747 15.2712 27.9864C15.5136 28.291 15.6347 28.6476 15.6347 29.0562C15.6347 29.4994 15.4893 29.8837 15.1985 30.2091C14.9077 30.5346 14.513 30.7839 14.0144 30.957C13.5227 31.1301 12.9826 31.2167 12.394 31.2167C11.8955 31.2167 11.3969 31.1544 10.8983 31.0297C10.4067 30.9051 9.93927 30.7146 9.49609 30.4584L10.0154 29.2536C10.334 29.4474 10.6837 29.5963 11.0645 29.7002C11.4523 29.7971 11.8297 29.8456 12.1967 29.8456C12.6953 29.8456 13.1073 29.7556 13.4327 29.5755C13.7651 29.3955 13.9313 29.1428 13.9313 28.8173C13.9313 28.5472 13.817 28.343 13.5885 28.2045C13.3669 28.066 13.0623 27.9967 12.6745 27.9967H10.8983V26.7295H12.5498C12.8891 26.7295 13.1523 26.6603 13.3392 26.5218C13.5331 26.3833 13.6301 26.1929 13.6301 25.9505C13.6301 25.6666 13.4916 25.445 13.2146 25.2858C12.9445 25.1265 12.5948 25.0469 12.1655 25.0469C11.847 25.0469 11.5181 25.0919 11.1788 25.1819C10.8395 25.265 10.5175 25.3931 10.2128 25.5662L9.70383 24.2575C10.4725 23.8628 11.3034 23.6654 12.1967 23.6654C12.7645 23.6654 13.2873 23.7485 13.7651 23.9147C14.2429 24.0809 14.6238 24.3232 14.9077 24.6418C15.1916 24.9603 15.3335 25.3308 15.3335 25.7532C15.3335 26.0994 15.24 26.4075 15.0531 26.6776C14.8661 26.9477 14.6099 27.1554 14.2844 27.3008Z" fill="#02221F"/>
<path d="M19.0131 25.4208C19.8787 25.4208 20.5434 25.6285 21.0074 26.044C21.4713 26.4526 21.7033 27.0723 21.7033 27.9033V31.092H20.1868V30.3961C19.8821 30.9155 19.3143 31.1751 18.4833 31.1751C18.054 31.1751 17.6801 31.1024 17.3616 30.957C17.05 30.8116 16.8111 30.6108 16.6449 30.3546C16.4787 30.0984 16.3956 29.8075 16.3956 29.4821C16.3956 28.9627 16.5895 28.5542 16.9772 28.2564C17.3719 27.9587 17.9779 27.8098 18.795 27.8098H20.0829C20.0829 27.4566 19.9756 27.1866 19.7609 26.9996C19.5463 26.8057 19.2243 26.7088 18.795 26.7088C18.4972 26.7088 18.2029 26.7572 17.9121 26.8542C17.6282 26.9442 17.3858 27.0688 17.185 27.2281L16.6033 26.0959C16.908 25.8813 17.2715 25.7151 17.6939 25.5974C18.1233 25.4796 18.563 25.4208 19.0131 25.4208ZM18.8884 30.0845C19.1654 30.0845 19.4112 30.0222 19.6259 29.8975C19.8406 29.766 19.9929 29.5755 20.0829 29.3263V28.755H18.9715C18.3068 28.755 17.9744 28.9731 17.9744 29.4094C17.9744 29.6171 18.054 29.7833 18.2133 29.9079C18.3795 30.0256 18.6045 30.0845 18.8884 30.0845Z" fill="#02221F"/>
<path d="M29.3742 29.7625V32.2969H27.8681V31.092H23.9418V32.2969H22.4357V29.7625H22.6642C23.0105 29.7556 23.2494 29.5513 23.3809 29.1497C23.5125 28.7481 23.5956 28.1768 23.6302 27.4358L23.7029 25.5039H28.5744V29.7625H29.3742ZM25.0948 27.5501C25.074 28.1179 25.029 28.5819 24.9597 28.9419C24.8974 29.302 24.7762 29.5755 24.5962 29.7625H26.954V26.8334H25.1259L25.0948 27.5501Z" fill="#02221F"/>
<path d="M32.5647 25.4208C33.4303 25.4208 34.0951 25.6285 34.559 26.044C35.0229 26.4526 35.2549 27.0723 35.2549 27.9033V31.092H33.7384V30.3961C33.4338 30.9155 32.8659 31.1751 32.035 31.1751C31.6057 31.1751 31.2317 31.1024 30.9132 30.957C30.6016 30.8116 30.3627 30.6108 30.1965 30.3546C30.0303 30.0984 29.9472 29.8075 29.9472 29.4821C29.9472 28.9627 30.1411 28.5542 30.5289 28.2564C30.9236 27.9587 31.5295 27.8098 32.3466 27.8098H33.6346C33.6346 27.4566 33.5272 27.1866 33.3126 26.9996C33.0979 26.8057 32.7759 26.7088 32.3466 26.7088C32.0488 26.7088 31.7545 26.7572 31.4637 26.8542C31.1798 26.9442 30.9374 27.0688 30.7366 27.2281L30.155 26.0959C30.4596 25.8813 30.8232 25.7151 31.2456 25.5974C31.6749 25.4796 32.1146 25.4208 32.5647 25.4208ZM32.4401 30.0845C32.7171 30.0845 32.9629 30.0222 33.1775 29.8975C33.3922 29.766 33.5445 29.5755 33.6346 29.3263V28.755H32.5232C31.8584 28.755 31.526 28.9731 31.526 29.4094C31.526 29.6171 31.6057 29.7833 31.7649 29.9079C31.9311 30.0256 32.1562 30.0845 32.4401 30.0845Z" fill="#02221F"/>
<path d="M36.6625 25.5039H38.2725V27.6851H40.703V25.5039H42.3234V31.092H40.703V29.0043H38.2725V31.092H36.6625V25.5039Z" fill="#02221F"/>
<path d="M43.8745 25.5039H45.4845V28.8277L48.2058 25.5039H49.6912V31.092H48.0812V27.7682L45.3702 31.092H43.8745V25.5039Z" fill="#02221F"/>
<path d="M56.6811 28.3187C56.6811 28.3395 56.6707 28.4849 56.65 28.755H52.4225C52.4987 29.1012 52.6787 29.3747 52.9626 29.5755C53.2465 29.7764 53.5997 29.8768 54.0221 29.8768C54.3129 29.8768 54.5691 29.8352 54.7907 29.7521C55.0192 29.6621 55.2304 29.5236 55.4243 29.3366L56.2864 30.2715C55.7601 30.8739 54.9915 31.1751 53.9805 31.1751C53.3504 31.1751 52.793 31.0539 52.3082 30.8116C51.8235 30.5623 51.4496 30.2195 51.1865 29.7833C50.9233 29.347 50.7918 28.8519 50.7918 28.298C50.7918 27.7509 50.9199 27.2593 51.1761 26.823C51.4392 26.3798 51.7958 26.0371 52.2459 25.7947C52.7029 25.5454 53.2119 25.4208 53.7728 25.4208C54.3198 25.4208 54.8149 25.5385 55.2581 25.7739C55.7013 26.0094 56.0475 26.3487 56.2968 26.7919C56.553 27.2281 56.6811 27.7371 56.6811 28.3187ZM53.7832 26.6464C53.4162 26.6464 53.108 26.7503 52.8587 26.958C52.6095 27.1658 52.4571 27.4497 52.4017 27.8098H55.1542C55.0989 27.4566 54.9465 27.1762 54.6972 26.9684C54.4479 26.7538 54.1433 26.6464 53.7832 26.6464Z" fill="#02221F"/>
<path d="M63.2953 23.8212V31.092H61.6126V25.1715H60.1585V23.8212H63.2953Z" fill="#02221F"/>
<path d="M12.9382 47.0392C13.2752 47.1085 13.5314 47.2447 13.7068 47.4478C13.8822 47.6463 13.9699 47.9071 13.9699 48.2303C13.9699 48.6504 13.8199 48.9735 13.5198 49.1997C13.2244 49.4259 12.7881 49.539 12.2111 49.539H10.0645V44.6918H12.0795C12.5965 44.6918 13.0005 44.798 13.2913 45.0103C13.5821 45.2227 13.7276 45.5297 13.7276 45.9313C13.7276 46.2037 13.6583 46.4345 13.5198 46.6238C13.3813 46.8084 13.1874 46.9469 12.9382 47.0392ZM10.5699 46.8869H12.0518C12.4257 46.8869 12.712 46.8107 12.9105 46.6584C13.1136 46.506 13.2151 46.2845 13.2151 45.9936C13.2151 45.7028 13.1136 45.4812 12.9105 45.3289C12.712 45.1765 12.4257 45.1004 12.0518 45.1004H10.5699V46.8869ZM12.2111 49.1305C13.0466 49.1305 13.4644 48.8189 13.4644 48.1956C13.4644 47.5863 13.0466 47.2816 12.2111 47.2816H10.5699V49.1305H12.2111Z" fill="#02221F"/>
<path d="M16.6637 47.1847C17.1208 47.1893 17.4693 47.2908 17.7094 47.4893C17.9494 47.6878 18.0694 47.9741 18.0694 48.348C18.0694 48.7358 17.9402 49.0335 17.6817 49.2413C17.4231 49.449 17.0538 49.5506 16.5737 49.5459L15.1334 49.539V45.8967H15.6251V47.1708L16.6637 47.1847ZM18.6788 45.8967H19.1705V49.539H18.6788V45.8967ZM16.546 49.172C16.883 49.1766 17.1369 49.1097 17.3077 48.9712C17.4832 48.8281 17.5709 48.6204 17.5709 48.348C17.5709 48.0802 17.4855 47.8817 17.3147 47.7525C17.1439 47.6232 16.8876 47.5563 16.546 47.5517L15.6251 47.5378V49.1582L16.546 49.172Z" fill="#02221F"/>
<path d="M23.8387 45.8967V49.539H23.3471V46.3329H21.0619V49.539H20.5703V45.8967H23.8387Z" fill="#02221F"/>
<path d="M26.7389 49.5736C26.3881 49.5736 26.0719 49.4952 25.7903 49.3382C25.5087 49.1766 25.2871 48.955 25.1255 48.6734C24.9639 48.3918 24.8831 48.0733 24.8831 47.7178C24.8831 47.3624 24.9639 47.0439 25.1255 46.7623C25.2871 46.4807 25.5087 46.2614 25.7903 46.1044C26.0719 45.9475 26.3881 45.869 26.7389 45.869C27.0898 45.869 27.406 45.9475 27.6876 46.1044C27.9692 46.2614 28.1885 46.4807 28.3454 46.7623C28.507 47.0439 28.5878 47.3624 28.5878 47.7178C28.5878 48.0733 28.507 48.3918 28.3454 48.6734C28.1885 48.955 27.9692 49.1766 27.6876 49.3382C27.406 49.4952 27.0898 49.5736 26.7389 49.5736ZM26.7389 49.1374C26.9974 49.1374 27.2283 49.0797 27.4314 48.9643C27.6391 48.8442 27.8007 48.6757 27.9161 48.4588C28.0315 48.2418 28.0892 47.9948 28.0892 47.7178C28.0892 47.4409 28.0315 47.1939 27.9161 46.9769C27.8007 46.7599 27.6391 46.5938 27.4314 46.4783C27.2283 46.3583 26.9974 46.2983 26.7389 46.2983C26.4804 46.2983 26.2473 46.3583 26.0395 46.4783C25.8364 46.5938 25.6748 46.7599 25.5548 46.9769C25.4394 47.1939 25.3817 47.4409 25.3817 47.7178C25.3817 47.9948 25.4394 48.2418 25.5548 48.4588C25.6748 48.6757 25.8364 48.8442 26.0395 48.9643C26.2473 49.0797 26.4804 49.1374 26.7389 49.1374Z" fill="#02221F"/>
<path d="M32.5958 45.8967V49.539H32.1042V46.3329H30.3592L30.3107 47.2331C30.2738 47.9902 30.1861 48.5719 30.0476 48.9781C29.9091 49.3844 29.6621 49.5875 29.3066 49.5875C29.2097 49.5875 29.092 49.569 28.9535 49.5321L28.9881 49.1097C29.0712 49.1282 29.1289 49.1374 29.1612 49.1374C29.3505 49.1374 29.4936 49.0497 29.5906 48.8743C29.6875 48.6988 29.7521 48.4819 29.7844 48.2233C29.8168 47.9648 29.8445 47.6232 29.8675 47.1985L29.9299 45.8967H32.5958Z" fill="#02221F"/>
<path d="M33.9935 45.8967H34.4851V47.5101H36.7771V45.8967H37.2688V49.539H36.7771V47.9325H34.4851V49.539H33.9935V45.8967Z" fill="#02221F"/>
<path d="M41.4637 45.8967V49.539H41.0136V48.3341H39.8711H39.7326L38.8878 49.539H38.3546L39.2617 48.2649C38.9801 48.1864 38.7631 48.0525 38.6108 47.8633C38.4585 47.674 38.3823 47.4339 38.3823 47.1431C38.3823 46.7369 38.5208 46.4276 38.7978 46.2152C39.0747 46.0029 39.4533 45.8967 39.9334 45.8967H41.4637ZM38.8809 47.157C38.8809 47.6971 39.2248 47.9671 39.9126 47.9671H41.0136V46.3329H39.9472C39.2363 46.3329 38.8809 46.6076 38.8809 47.157Z" fill="#02221F"/>
<path d="M42.8656 45.8967H43.3572V48.7912L45.7878 45.8967H46.224V49.539H45.7324V46.6445L43.3088 49.539H42.8656V45.8967ZM44.5206 45.3704C44.2066 45.3704 43.9574 45.2919 43.7727 45.135C43.588 44.978 43.4934 44.7564 43.4888 44.4702H43.842C43.8466 44.6503 43.9112 44.7957 44.0358 44.9065C44.1605 45.0126 44.3221 45.0657 44.5206 45.0657C44.7191 45.0657 44.8806 45.0126 45.0053 44.9065C45.1345 44.7957 45.2015 44.6503 45.2061 44.4702H45.5592C45.5546 44.7564 45.4577 44.978 45.2684 45.135C45.0838 45.2919 44.8345 45.3704 44.5206 45.3704Z" fill="#02221F"/>
<path d="M53.2643 47.6417C53.5229 47.7017 53.7214 47.8056 53.8599 47.9533C54.003 48.101 54.0745 48.281 54.0745 48.4934C54.0745 48.7058 54.0007 48.895 53.8529 49.0612C53.7098 49.2274 53.5136 49.3567 53.2643 49.449C53.0151 49.5367 52.7404 49.5806 52.4403 49.5806C52.1772 49.5806 51.9187 49.5436 51.6648 49.4698C51.4109 49.3913 51.1893 49.2782 51 49.1305L51.1662 48.7635C51.3324 48.8881 51.5263 48.985 51.7479 49.0543C51.9694 49.1235 52.1933 49.1582 52.4195 49.1582C52.7565 49.1582 53.0312 49.0958 53.2436 48.9712C53.4605 48.8419 53.569 48.6688 53.569 48.4519C53.569 48.258 53.4813 48.1079 53.3059 48.0018C53.1305 47.891 52.8904 47.8356 52.5857 47.8356H51.9625V47.4755H52.558C52.8304 47.4755 53.0497 47.4247 53.2159 47.3231C53.3821 47.217 53.4652 47.0762 53.4652 46.9007C53.4652 46.7069 53.3705 46.5545 53.1812 46.4437C52.9966 46.3329 52.7542 46.2775 52.4542 46.2775C52.0618 46.2775 51.674 46.3768 51.2908 46.5753L51.1523 46.1944C51.5863 45.9682 52.0364 45.8551 52.5026 45.8551C52.7796 45.8551 53.0289 45.8967 53.2505 45.9798C53.4767 46.0583 53.6521 46.1714 53.7768 46.3191C53.906 46.4668 53.9706 46.6376 53.9706 46.8315C53.9706 47.0162 53.906 47.18 53.7768 47.3231C53.6521 47.4663 53.4813 47.5724 53.2643 47.6417Z" fill="#02221F"/>
<path d="M56.444 45.869C56.9195 45.869 57.2842 45.989 57.5381 46.2291C57.792 46.4645 57.9189 46.8153 57.9189 47.2816V49.539H57.448V48.9712C57.3372 49.1605 57.1734 49.3082 56.9564 49.4144C56.744 49.5205 56.4901 49.5736 56.1947 49.5736C55.7884 49.5736 55.4653 49.4767 55.2252 49.2828C54.9852 49.0889 54.8652 48.8327 54.8652 48.5142C54.8652 48.2049 54.976 47.9556 55.1975 47.7663C55.4237 47.577 55.7815 47.4824 56.2709 47.4824H57.4273V47.2608C57.4273 46.9469 57.3396 46.7092 57.1641 46.5476C56.9887 46.3814 56.7325 46.2983 56.3955 46.2983C56.1647 46.2983 55.9431 46.3375 55.7307 46.416C55.5184 46.4899 55.336 46.5938 55.1837 46.7276L54.9621 46.3606C55.1468 46.2037 55.3684 46.0836 55.6269 46.0005C55.8854 45.9128 56.1578 45.869 56.444 45.869ZM56.2709 49.1859C56.5478 49.1859 56.7856 49.1235 56.9841 48.9989C57.1826 48.8696 57.3303 48.685 57.4273 48.4449V47.8494H56.2847C55.6615 47.8494 55.3499 48.0664 55.3499 48.5003C55.3499 48.7127 55.4307 48.8812 55.5922 49.0058C55.7538 49.1258 55.98 49.1859 56.2709 49.1859Z" fill="#02221F"/>
<path d="M62.78 49.1097V50.4184H62.3161V49.539H59.0546V50.4184H58.5906V49.1097H58.7984C59.0431 49.0958 59.2092 48.9158 59.297 48.5696C59.3847 48.2233 59.4447 47.7386 59.477 47.1154L59.5255 45.8967H62.2122V49.1097H62.78ZM59.9271 47.1431C59.904 47.6601 59.8602 48.0872 59.7955 48.4242C59.7309 48.7565 59.6155 48.985 59.4493 49.1097H61.7206V46.3329H59.9686L59.9271 47.1431Z" fill="#02221F"/>
<path d="M64.9915 45.869C65.467 45.869 65.8317 45.989 66.0856 46.2291C66.3395 46.4645 66.4664 46.8153 66.4664 47.2816V49.539H65.9956V48.9712C65.8848 49.1605 65.7209 49.3082 65.5039 49.4144C65.2916 49.5205 65.0377 49.5736 64.7422 49.5736C64.336 49.5736 64.0128 49.4767 63.7728 49.2828C63.5327 49.0889 63.4127 48.8327 63.4127 48.5142C63.4127 48.2049 63.5235 47.9556 63.7451 47.7663C63.9713 47.577 64.3291 47.4824 64.8184 47.4824H65.9748V47.2608C65.9748 46.9469 65.8871 46.7092 65.7117 46.5476C65.5362 46.3814 65.28 46.2983 64.943 46.2983C64.7122 46.2983 64.4906 46.3375 64.2783 46.416C64.0659 46.4899 63.8836 46.5938 63.7312 46.7276L63.5097 46.3606C63.6943 46.2037 63.9159 46.0836 64.1744 46.0005C64.4329 45.9128 64.7053 45.869 64.9915 45.869ZM64.8184 49.1859C65.0954 49.1859 65.3331 49.1235 65.5316 48.9989C65.7301 48.8696 65.8779 48.685 65.9748 48.4449V47.8494H64.8322C64.209 47.8494 63.8974 48.0664 63.8974 48.5003C63.8974 48.7127 63.9782 48.8812 64.1398 49.0058C64.3014 49.1258 64.5276 49.1859 64.8184 49.1859Z" fill="#02221F"/>
<path d="M67.7752 45.8967H68.2669V47.5101H70.5589V45.8967H71.0506V49.539H70.5589V47.9325H68.2669V49.539H67.7752V45.8967Z" fill="#02221F"/>
<path d="M72.448 45.8967H72.9396V48.7912L75.3702 45.8967H75.8064V49.539H75.3148V46.6445L72.8912 49.539H72.448V45.8967Z" fill="#02221F"/>
<path d="M80.0129 45.8967V49.539H79.5629V48.3341H78.4203H78.2818L77.437 49.539H76.9038L77.8109 48.2649C77.5293 48.1864 77.3124 48.0525 77.16 47.8633C77.0077 47.674 76.9315 47.4339 76.9315 47.1431C76.9315 46.7369 77.07 46.4276 77.347 46.2152C77.624 46.0029 78.0025 45.8967 78.4826 45.8967H80.0129ZM77.4301 47.157C77.4301 47.6971 77.774 47.9671 78.4618 47.9671H79.5629V46.3329H78.4965C77.7855 46.3329 77.4301 46.6076 77.4301 47.157Z" fill="#02221F"/>
<path d="M83.2271 45.8967H83.7187V48.7912L86.1493 45.8967H86.5855V49.539H86.0939V46.6445L83.6703 49.539H83.2271V45.8967Z" fill="#02221F"/>
<path d="M93.0752 45.8967V49.539H92.5836V46.3329H90.2984V49.539H89.8068V45.8967H93.0752Z" fill="#02221F"/>
<path d="M95.9754 49.5736C95.6246 49.5736 95.3083 49.4952 95.0267 49.3382C94.7451 49.1766 94.5236 48.955 94.362 48.6734C94.2004 48.3918 94.1196 48.0733 94.1196 47.7178C94.1196 47.3624 94.2004 47.0439 94.362 46.7623C94.5236 46.4807 94.7451 46.2614 95.0267 46.1044C95.3083 45.9475 95.6246 45.869 95.9754 45.869C96.3263 45.869 96.6425 45.9475 96.9241 46.1044C97.2057 46.2614 97.425 46.4807 97.5819 46.7623C97.7435 47.0439 97.8243 47.3624 97.8243 47.7178C97.8243 48.0733 97.7435 48.3918 97.5819 48.6734C97.425 48.955 97.2057 49.1766 96.9241 49.3382C96.6425 49.4952 96.3263 49.5736 95.9754 49.5736ZM95.9754 49.1374C96.2339 49.1374 96.4648 49.0797 96.6679 48.9643C96.8756 48.8442 97.0372 48.6757 97.1526 48.4588C97.268 48.2418 97.3257 47.9948 97.3257 47.7178C97.3257 47.4409 97.268 47.1939 97.1526 46.9769C97.0372 46.7599 96.8756 46.5938 96.6679 46.4783C96.4648 46.3583 96.2339 46.2983 95.9754 46.2983C95.7169 46.2983 95.4838 46.3583 95.276 46.4783C95.0729 46.5938 94.9113 46.7599 94.7913 46.9769C94.6759 47.1939 94.6182 47.4409 94.6182 47.7178C94.6182 47.9948 94.6759 48.2418 94.7913 48.4588C94.9113 48.6757 95.0729 48.8442 95.276 48.9643C95.4838 49.0797 95.7169 49.1374 95.9754 49.1374Z" fill="#02221F"/>
<path d="M101.832 45.8967V49.539H101.341V46.3329H99.5957L99.5472 47.2331C99.5103 47.9902 99.4226 48.5719 99.2841 48.9781C99.1456 49.3844 98.8986 49.5875 98.5432 49.5875C98.4462 49.5875 98.3285 49.569 98.19 49.5321L98.2246 49.1097C98.3077 49.1282 98.3654 49.1374 98.3977 49.1374C98.587 49.1374 98.7301 49.0497 98.8271 48.8743C98.924 48.6988 98.9886 48.4819 99.021 48.2233C99.0533 47.9648 99.081 47.6232 99.104 47.1985L99.1664 45.8967H101.832Z" fill="#02221F"/>
<path d="M106.325 45.8967L104.504 49.9753C104.356 50.3169 104.186 50.5592 103.992 50.7023C103.798 50.8455 103.565 50.917 103.292 50.917C103.117 50.917 102.953 50.8893 102.801 50.8339C102.648 50.7785 102.517 50.6954 102.406 50.5846L102.634 50.2176C102.819 50.4023 103.041 50.4946 103.299 50.4946C103.465 50.4946 103.606 50.4484 103.722 50.3561C103.842 50.2638 103.952 50.1068 104.054 49.8852L104.213 49.5321L102.586 45.8967H103.098L104.469 48.992L105.841 45.8967H106.325Z" fill="#02221F"/>
<path d="M109.84 45.8967V49.539H109.349V48.0225C108.929 48.2072 108.515 48.2995 108.109 48.2995C107.671 48.2995 107.329 48.2003 107.084 48.0018C106.84 47.7986 106.717 47.4963 106.717 47.0946V45.8967H107.209V47.0669C107.209 47.3393 107.297 47.547 107.472 47.6901C107.647 47.8286 107.89 47.8979 108.199 47.8979C108.541 47.8979 108.924 47.8079 109.349 47.6278V45.8967H109.84Z" fill="#02221F"/>
<path d="M112.49 45.869C112.965 45.869 113.33 45.989 113.584 46.2291C113.838 46.4645 113.965 46.8153 113.965 47.2816V49.539H113.494V48.9712C113.383 49.1605 113.219 49.3082 113.002 49.4144C112.79 49.5205 112.536 49.5736 112.241 49.5736C111.834 49.5736 111.511 49.4767 111.271 49.2828C111.031 49.0889 110.911 48.8327 110.911 48.5142C110.911 48.2049 111.022 47.9556 111.243 47.7663C111.47 47.577 111.827 47.4824 112.317 47.4824H113.473V47.2608C113.473 46.9469 113.385 46.7092 113.21 46.5476C113.035 46.3814 112.778 46.2983 112.441 46.2983C112.211 46.2983 111.989 46.3375 111.777 46.416C111.564 46.4899 111.382 46.5938 111.23 46.7276L111.008 46.3606C111.193 46.2037 111.414 46.0836 111.673 46.0005C111.931 45.9128 112.204 45.869 112.49 45.869ZM112.317 49.1859C112.594 49.1859 112.831 49.1235 113.03 48.9989C113.228 48.8696 113.376 48.685 113.473 48.4449V47.8494H112.331C111.707 47.8494 111.396 48.0664 111.396 48.5003C111.396 48.7127 111.477 48.8812 111.638 49.0058C111.8 49.1258 112.026 49.1859 112.317 49.1859Z" fill="#02221F"/>
<path d="M115.274 45.8967H115.765V48.7912L118.196 45.8967H118.632V49.539H118.14V46.6445L115.717 49.539H115.274V45.8967ZM116.929 45.3704C116.615 45.3704 116.365 45.2919 116.181 45.135C115.996 44.978 115.901 44.7564 115.897 44.4702H116.25C116.255 44.6503 116.319 44.7957 116.444 44.9065C116.569 45.0126 116.73 45.0657 116.929 45.0657C117.127 45.0657 117.289 45.0126 117.413 44.9065C117.543 44.7957 117.61 44.6503 117.614 44.4702H117.967C117.963 44.7564 117.866 44.978 117.676 45.135C117.492 45.2919 117.243 45.3704 116.929 45.3704Z" fill="#02221F"/>
<path d="M126.874 49.539L125.309 47.4062L123.751 49.539H123.162L125.004 47.0462L123.28 44.6918H123.868L125.329 46.6722L126.783 44.6918H127.337L125.62 47.0323L127.469 49.539H126.874Z" fill="#02221F"/>
<path d="M130.023 44.6918C130.642 44.6918 131.126 44.8395 131.477 45.135C131.828 45.4304 132.003 45.8367 132.003 46.3537C132.003 46.8707 131.828 47.277 131.477 47.5724C131.126 47.8633 130.642 48.0087 130.023 48.0087H128.721V49.539H128.209V44.6918H130.023ZM130.009 47.5586C130.489 47.5586 130.856 47.4547 131.11 47.247C131.364 47.0346 131.491 46.7369 131.491 46.3537C131.491 45.9613 131.364 45.6612 131.11 45.4535C130.856 45.2412 130.489 45.135 130.009 45.135H128.721V47.5586H130.009Z" fill="#02221F"/>
<path d="M14.4215 106.102V102.294L14.6696 102.565H13.5098V102.063H14.9928V106.102H14.4215Z" fill="#0BA46B"/>
<path d="M17.2241 106.102L18.9033 103.811V104.256L17.3164 102.063H17.9742L19.2322 103.788L18.9725 103.794L20.2247 102.063H20.8537L19.2784 104.221V103.806L20.9576 106.102H20.294L18.9552 104.262H19.2091L17.8877 106.102H17.2241Z" fill="#0BA46B"/>
<path d="M21.5024 106.102V102.063H23.0777C23.4317 102.063 23.7337 102.119 23.9837 102.23C24.2338 102.342 24.4261 102.503 24.5608 102.715C24.6954 102.927 24.7627 103.179 24.7627 103.471C24.7627 103.763 24.6954 104.015 24.5608 104.227C24.4261 104.435 24.2338 104.596 23.9837 104.712C23.7337 104.823 23.4317 104.879 23.0777 104.879H21.8198L22.0794 104.608V106.102H21.5024ZM22.0794 104.665L21.8198 104.377H23.0604C23.4297 104.377 23.7086 104.298 23.8971 104.14C24.0895 103.983 24.1857 103.76 24.1857 103.471C24.1857 103.182 24.0895 102.959 23.8971 102.802C23.7086 102.644 23.4297 102.565 23.0604 102.565H21.8198L22.0794 102.276V104.665Z" fill="#0BA46B"/>
<path fill-rule="evenodd" clip-rule="evenodd" d="M28.2503 98.1749H10.4851C9.84766 98.1749 9.33096 98.6917 9.33096 99.329V108.832C9.33096 109.469 9.84766 109.986 10.4851 109.986H28.2503C28.8877 109.986 29.4044 109.469 29.4044 108.832V99.329C29.4044 98.6917 28.8877 98.1749 28.2503 98.1749ZM10.4851 97.5979C9.52897 97.5979 8.75391 98.373 8.75391 99.329V108.832C8.75391 109.788 9.52897 110.563 10.4851 110.563H28.2503C29.2064 110.563 29.9814 109.788 29.9814 108.832V99.329C29.9814 98.373 29.2064 97.5979 28.2503 97.5979H10.4851Z" fill="#0BA46B"/>
<path d="M131.215 106.149C130.907 106.149 130.621 106.097 130.355 105.993C130.093 105.889 129.867 105.745 129.674 105.56C129.482 105.371 129.332 105.152 129.224 104.902C129.116 104.652 129.062 104.379 129.062 104.083C129.062 103.786 129.116 103.513 129.224 103.263C129.332 103.013 129.482 102.796 129.674 102.611C129.867 102.423 130.093 102.277 130.355 102.173C130.617 102.069 130.903 102.017 131.215 102.017C131.523 102.017 131.805 102.069 132.063 102.173C132.325 102.273 132.552 102.417 132.744 102.605C132.94 102.79 133.09 103.007 133.194 103.258C133.302 103.508 133.356 103.783 133.356 104.083C133.356 104.383 133.302 104.658 133.194 104.908C133.09 105.158 132.94 105.377 132.744 105.566C132.552 105.75 132.325 105.895 132.063 105.998C131.805 106.099 131.523 106.149 131.215 106.149ZM131.215 105.635C131.438 105.635 131.644 105.596 131.832 105.52C132.025 105.443 132.19 105.335 132.329 105.196C132.471 105.054 132.581 104.889 132.658 104.7C132.738 104.512 132.779 104.306 132.779 104.083C132.779 103.86 132.738 103.654 132.658 103.465C132.581 103.277 132.471 103.113 132.329 102.975C132.19 102.832 132.025 102.723 131.832 102.646C131.644 102.569 131.438 102.53 131.215 102.53C130.988 102.53 130.778 102.569 130.586 102.646C130.397 102.723 130.232 102.832 130.09 102.975C129.947 103.113 129.836 103.277 129.755 103.465C129.678 103.654 129.64 103.86 129.64 104.083C129.64 104.306 129.678 104.512 129.755 104.7C129.836 104.889 129.947 105.054 130.09 105.196C130.232 105.335 130.397 105.443 130.586 105.52C130.778 105.596 130.988 105.635 131.215 105.635Z" fill="#FC525A"/>
<path d="M134.238 106.102V102.063H134.711L137.383 105.381H137.135V102.063H137.712V106.102H137.238L134.567 102.784H134.815V106.102H134.238Z" fill="#FC525A"/>
<path d="M140.727 106.149C140.419 106.149 140.134 106.099 139.873 105.998C139.615 105.895 139.39 105.75 139.198 105.566C139.009 105.377 138.861 105.158 138.753 104.908C138.646 104.658 138.592 104.383 138.592 104.083C138.592 103.783 138.646 103.508 138.753 103.258C138.861 103.007 139.011 102.79 139.203 102.605C139.396 102.417 139.621 102.273 139.879 102.173C140.14 102.069 140.425 102.017 140.733 102.017C141.044 102.017 141.331 102.071 141.592 102.178C141.858 102.282 142.083 102.438 142.268 102.646L141.892 103.009C141.739 102.848 141.565 102.729 141.373 102.652C141.181 102.571 140.975 102.53 140.756 102.53C140.529 102.53 140.317 102.569 140.121 102.646C139.929 102.723 139.761 102.83 139.619 102.969C139.477 103.107 139.365 103.273 139.284 103.465C139.207 103.654 139.169 103.86 139.169 104.083C139.169 104.306 139.207 104.514 139.284 104.706C139.365 104.894 139.477 105.058 139.619 105.196C139.761 105.335 139.929 105.443 140.121 105.52C140.317 105.596 140.529 105.635 140.756 105.635C140.975 105.635 141.181 105.596 141.373 105.52C141.565 105.439 141.739 105.316 141.892 105.15L142.268 105.514C142.083 105.722 141.858 105.879 141.592 105.987C141.331 106.095 141.042 106.149 140.727 106.149Z" fill="#FC525A"/>
<path d="M143.616 103.806H145.693V104.296H143.616V103.806ZM143.668 105.6H146.022V106.102H143.091V102.063H145.941V102.565H143.668V105.6Z" fill="#FC525A"/>
<path fill-rule="evenodd" clip-rule="evenodd" d="M150.593 98.1749H125.464C124.826 98.1749 124.309 98.6917 124.309 99.329V108.832C124.309 109.469 124.826 109.986 125.464 109.986H150.593C151.231 109.986 151.748 109.469 151.748 108.832V99.329C151.748 98.6917 151.231 98.1749 150.593 98.1749ZM125.464 97.5979C124.507 97.5979 123.732 98.373 123.732 99.329V108.832C123.732 109.788 124.507 110.563 125.464 110.563H150.593C151.55 110.563 152.325 109.788 152.325 108.832V99.329C152.325 98.373 151.55 97.5979 150.593 97.5979H125.464Z" fill="#FC525A"/>
</svg>
