<svg width="284" height="195" viewBox="0 0 284 195" fill="none" xmlns="http://www.w3.org/2000/svg">
<rect x="25.4634" y="2" width="255.78" height="170.951" rx="8" fill="#97EAF2" stroke="#02221F" stroke-width="4"/>
<path d="M53.2988 31.6558C54.2748 31.9918 55.0348 32.5198 55.5788 33.2398C56.1388 33.9438 56.4188 34.7678 56.4188 35.7118C56.4188 36.7358 56.0828 37.6238 55.4108 38.3758C54.7388 39.1278 53.8268 39.7038 52.6748 40.1038C51.5388 40.5038 50.2908 40.7038 48.9308 40.7038C47.7788 40.7038 46.6268 40.5598 45.4748 40.2718C44.3388 39.9838 43.2588 39.5438 42.2348 38.9518L43.4348 36.1678C44.1708 36.6158 44.9788 36.9598 45.8588 37.1998C46.7548 37.4238 47.6268 37.5358 48.4748 37.5358C49.6268 37.5358 50.5788 37.3278 51.3308 36.9118C52.0988 36.4958 52.4828 35.9118 52.4828 35.1598C52.4828 34.5358 52.2188 34.0638 51.6908 33.7438C51.1788 33.4238 50.4748 33.2638 49.5788 33.2638H45.4748V30.3358H49.2908C50.0748 30.3358 50.6828 30.1758 51.1148 29.8558C51.5628 29.5358 51.7868 29.0958 51.7868 28.5358C51.7868 27.8798 51.4668 27.3678 50.8268 26.9998C50.2028 26.6318 49.3948 26.4478 48.4028 26.4478C47.6668 26.4478 46.9068 26.5518 46.1228 26.7598C45.3388 26.9518 44.5948 27.2478 43.8908 27.6478L42.7148 24.6238C44.4908 23.7118 46.4108 23.2558 48.4748 23.2558C49.7868 23.2558 50.9948 23.4478 52.0988 23.8318C53.2028 24.2158 54.0828 24.7758 54.7388 25.5118C55.3948 26.2478 55.7228 27.1038 55.7228 28.0798C55.7228 28.8798 55.5068 29.5918 55.0748 30.2158C54.6428 30.8398 54.0508 31.3198 53.2988 31.6558ZM64.2248 27.3118C66.2248 27.3118 67.7608 27.7918 68.8328 28.7518C69.9048 29.6958 70.4408 31.1278 70.4408 33.0478V40.4158H66.9368V38.8078C66.2328 40.0078 64.9208 40.6078 63.0008 40.6078C62.0088 40.6078 61.1448 40.4398 60.4088 40.1038C59.6888 39.7678 59.1368 39.3038 58.7528 38.7118C58.3688 38.1198 58.1768 37.4478 58.1768 36.6958C58.1768 35.4958 58.6248 34.5518 59.5208 33.8638C60.4328 33.1758 61.8328 32.8318 63.7208 32.8318H66.6968C66.6968 32.0158 66.4488 31.3918 65.9528 30.9598C65.4568 30.5118 64.7128 30.2878 63.7208 30.2878C63.0328 30.2878 62.3528 30.3998 61.6808 30.6238C61.0248 30.8318 60.4648 31.1198 60.0008 31.4878L58.6568 28.8718C59.3608 28.3758 60.2008 27.9918 61.1768 27.7198C62.1688 27.4478 63.1848 27.3118 64.2248 27.3118ZM63.9368 38.0878C64.5768 38.0878 65.1448 37.9438 65.6408 37.6558C66.1368 37.3518 66.4888 36.9118 66.6968 36.3358V35.0158H64.1288C62.5928 35.0158 61.8248 35.5198 61.8248 36.5278C61.8248 37.0078 62.0088 37.3918 62.3768 37.6798C62.7608 37.9518 63.2808 38.0878 63.9368 38.0878ZM88.1651 37.3438V43.1998H84.6851V40.4158H75.6131V43.1998H72.1331V37.3438H72.6611C73.4611 37.3278 74.0131 36.8558 74.3171 35.9278C74.6211 34.9998 74.8131 33.6798 74.8931 31.9678L75.0611 27.5038H86.3171V37.3438H88.1651ZM78.2771 32.2318C78.2291 33.5438 78.1251 34.6158 77.9651 35.4478C77.8211 36.2798 77.5411 36.9118 77.1251 37.3438H82.5731V30.5758H78.3491L78.2771 32.2318ZM95.5373 27.3118C97.5373 27.3118 99.0733 27.7918 100.145 28.7518C101.217 29.6958 101.753 31.1278 101.753 33.0478V40.4158H98.2493V38.8078C97.5453 40.0078 96.2333 40.6078 94.3133 40.6078C93.3213 40.6078 92.4573 40.4398 91.7213 40.1038C91.0013 39.7678 90.4493 39.3038 90.0653 38.7118C89.6813 38.1198 89.4893 37.4478 89.4893 36.6958C89.4893 35.4958 89.9373 34.5518 90.8333 33.8638C91.7453 33.1758 93.1453 32.8318 95.0333 32.8318H98.0093C98.0093 32.0158 97.7613 31.3918 97.2653 30.9598C96.7693 30.5118 96.0253 30.2878 95.0333 30.2878C94.3453 30.2878 93.6653 30.3998 92.9933 30.6238C92.3373 30.8318 91.7773 31.1198 91.3133 31.4878L89.9693 28.8718C90.6733 28.3758 91.5133 27.9918 92.4893 27.7198C93.4813 27.4478 94.4973 27.3118 95.5373 27.3118ZM95.2493 38.0878C95.8893 38.0878 96.4573 37.9438 96.9533 37.6558C97.4493 37.3518 97.8013 36.9118 98.0093 36.3358V35.0158H95.4413C93.9053 35.0158 93.1373 35.5198 93.1373 36.5278C93.1373 37.0078 93.3213 37.3918 93.6893 37.6798C94.0733 37.9518 94.5933 38.0878 95.2493 38.0878ZM43.4588 56.5038H47.1788V61.5438H52.7948V56.5038H56.5388V69.4158H52.7948V64.5918H47.1788V69.4158H43.4588V56.5038ZM60.1228 56.5038H63.8428V64.1838L70.1308 56.5038H73.5628V69.4158H69.8428V61.7358L63.5788 69.4158H60.1228V56.5038ZM89.7139 63.0078C89.7139 63.0558 89.6899 63.3918 89.6419 64.0158H79.8739C80.0499 64.8158 80.4659 65.4478 81.1219 65.9118C81.7779 66.3758 82.5939 66.6078 83.5699 66.6078C84.2419 66.6078 84.8339 66.5118 85.3459 66.3198C85.8739 66.1118 86.3619 65.7918 86.8099 65.3598L88.8019 67.5198C87.5859 68.9118 85.8099 69.6078 83.4739 69.6078C82.0179 69.6078 80.7299 69.3278 79.6099 68.7678C78.4899 68.1918 77.6259 67.3998 77.0179 66.3918C76.4099 65.3838 76.1059 64.2398 76.1059 62.9598C76.1059 61.6958 76.4019 60.5598 76.9939 59.5518C77.6019 58.5278 78.4259 57.7358 79.4659 57.1758C80.5219 56.5998 81.6979 56.3118 82.9939 56.3118C84.2579 56.3118 85.4019 56.5838 86.4259 57.1278C87.4499 57.6718 88.2499 58.4558 88.8259 59.4798C89.4179 60.4878 89.7139 61.6638 89.7139 63.0078ZM83.0179 59.1438C82.1699 59.1438 81.4579 59.3838 80.8819 59.8638C80.3059 60.3438 79.9539 60.9998 79.8259 61.8318H86.1859C86.0579 61.0158 85.7059 60.3678 85.1299 59.8878C84.5539 59.3918 83.8499 59.1438 83.0179 59.1438ZM111.069 66.2478V69.4158H98.3726V66.8958L104.853 60.7758C105.541 60.1198 106.005 59.5598 106.245 59.0958C106.485 58.6158 106.605 58.1438 106.605 57.6798C106.605 57.0078 106.373 56.4958 105.909 56.1438C105.461 55.7758 104.797 55.5918 103.917 55.5918C103.181 55.5918 102.517 55.7358 101.925 56.0238C101.333 56.2958 100.837 56.7118 100.437 57.2718L97.6046 55.4478C98.2606 54.4718 99.1646 53.7118 100.317 53.1678C101.469 52.6078 102.789 52.3278 104.277 52.3278C105.525 52.3278 106.613 52.5358 107.541 52.9518C108.485 53.3518 109.213 53.9278 109.725 54.6798C110.253 55.4158 110.517 56.2878 110.517 57.2958C110.517 58.2078 110.325 59.0638 109.941 59.8638C109.557 60.6638 108.813 61.5758 107.709 62.5998L103.845 66.2478H111.069Z" fill="#02221F"/>
<path d="M50.1868 61.1791C50.9654 61.3391 51.5574 61.6537 51.9628 62.1231C52.3681 62.5817 52.5708 63.1844 52.5708 63.9311C52.5708 64.9017 52.2241 65.6484 51.5308 66.1711C50.8481 66.6937 49.8401 66.9551 48.5068 66.9551H43.5468V55.7551H48.2028C49.3974 55.7551 50.3308 56.0004 51.0028 56.4911C51.6748 56.9817 52.0108 57.6911 52.0108 58.6191C52.0108 59.2484 51.8508 59.7817 51.5308 60.2191C51.2108 60.6457 50.7628 60.9657 50.1868 61.1791ZM44.7148 60.8271H48.1388C49.0028 60.8271 49.6641 60.6511 50.1228 60.2991C50.5921 59.9471 50.8268 59.4351 50.8268 58.7631C50.8268 58.0911 50.5921 57.5791 50.1228 57.2271C49.6641 56.8751 49.0028 56.6991 48.1388 56.6991H44.7148V60.8271ZM48.5068 66.0111C50.4374 66.0111 51.4028 65.2911 51.4028 63.8511C51.4028 62.4431 50.4374 61.7391 48.5068 61.7391H44.7148V66.0111H48.5068ZM58.7951 61.5151C59.8511 61.5257 60.6565 61.7604 61.2111 62.2191C61.7658 62.6777 62.0431 63.3391 62.0431 64.2031C62.0431 65.0991 61.7445 65.7871 61.1471 66.2671C60.5498 66.7471 59.6965 66.9817 58.5871 66.9711L55.2591 66.9551V58.5391H56.3951V61.4831L58.7951 61.5151ZM63.4511 58.5391H64.5871V66.9551H63.4511V58.5391ZM58.5231 66.1071C59.3018 66.1177 59.8885 65.9631 60.2831 65.6431C60.6885 65.3124 60.8911 64.8324 60.8911 64.2031C60.8911 63.5844 60.6938 63.1257 60.2991 62.8271C59.9045 62.5284 59.3125 62.3737 58.5231 62.3631L56.3951 62.3311V66.0751L58.5231 66.1071ZM75.3736 58.5391V66.9551H74.2376V59.5471H68.9576V66.9551H67.8216V58.5391H75.3736ZM82.0749 67.0351C81.2642 67.0351 80.5335 66.8537 79.8829 66.4911C79.2322 66.1177 78.7202 65.6057 78.3469 64.9551C77.9735 64.3044 77.7869 63.5684 77.7869 62.7471C77.7869 61.9257 77.9735 61.1897 78.3469 60.5391C78.7202 59.8884 79.2322 59.3817 79.8829 59.0191C80.5335 58.6564 81.2642 58.4751 82.0749 58.4751C82.8855 58.4751 83.6162 58.6564 84.2669 59.0191C84.9175 59.3817 85.4242 59.8884 85.7869 60.5391C86.1602 61.1897 86.3469 61.9257 86.3469 62.7471C86.3469 63.5684 86.1602 64.3044 85.7869 64.9551C85.4242 65.6057 84.9175 66.1177 84.2669 66.4911C83.6162 66.8537 82.8855 67.0351 82.0749 67.0351ZM82.0749 66.0271C82.6722 66.0271 83.2055 65.8937 83.6749 65.6271C84.1549 65.3497 84.5282 64.9604 84.7949 64.4591C85.0615 63.9577 85.1949 63.3871 85.1949 62.7471C85.1949 62.1071 85.0615 61.5364 84.7949 61.0351C84.5282 60.5337 84.1549 60.1497 83.6749 59.8831C83.2055 59.6057 82.6722 59.4671 82.0749 59.4671C81.4775 59.4671 80.9389 59.6057 80.4589 59.8831C79.9895 60.1497 79.6162 60.5337 79.3389 61.0351C79.0722 61.5364 78.9389 62.1071 78.9389 62.7471C78.9389 63.3871 79.0722 63.9577 79.3389 64.4591C79.6162 64.9604 79.9895 65.3497 80.4589 65.6271C80.9389 65.8937 81.4775 66.0271 82.0749 66.0271ZM95.6079 58.5391V66.9551H94.4719V59.5471H90.4399L90.3279 61.6271C90.2425 63.3764 90.0399 64.7204 89.7199 65.6591C89.3999 66.5977 88.8292 67.0671 88.0079 67.0671C87.7839 67.0671 87.5119 67.0244 87.1919 66.9391L87.2719 65.9631C87.4639 66.0057 87.5972 66.0271 87.6719 66.0271C88.1092 66.0271 88.4399 65.8244 88.6639 65.4191C88.8879 65.0137 89.0372 64.5124 89.1119 63.9151C89.1865 63.3177 89.2505 62.5284 89.3039 61.5471L89.4479 58.5391H95.6079ZM98.8373 58.5391H99.9733V62.2671H105.269V58.5391H106.405V66.9551H105.269V63.2431H99.9733V66.9551H98.8373V58.5391ZM116.098 58.5391V66.9551H115.058V64.1711H112.418H112.098L110.146 66.9551H108.914L111.01 64.0111C110.359 63.8297 109.858 63.5204 109.506 63.0831C109.154 62.6457 108.978 62.0911 108.978 61.4191C108.978 60.4804 109.298 59.7657 109.938 59.2751C110.578 58.7844 111.453 58.5391 112.562 58.5391H116.098ZM110.13 61.4511C110.13 62.6991 110.925 63.3231 112.514 63.3231H115.058V59.5471H112.594C110.951 59.5471 110.13 60.1817 110.13 61.4511ZM119.337 58.5391H120.473V65.2271L126.089 58.5391H127.097V66.9551H125.961V60.2671L120.361 66.9551H119.337V58.5391ZM123.161 57.3231C122.436 57.3231 121.86 57.1417 121.433 56.7791C121.007 56.4164 120.788 55.9044 120.777 55.2431H121.593C121.604 55.6591 121.753 55.9951 122.041 56.2511C122.329 56.4964 122.703 56.6191 123.161 56.6191C123.62 56.6191 123.993 56.4964 124.281 56.2511C124.58 55.9951 124.735 55.6591 124.745 55.2431H125.561C125.551 55.9044 125.327 56.4164 124.889 56.7791C124.463 57.1417 123.887 57.3231 123.161 57.3231ZM136.273 59.5471H133.089V66.9551H131.953V59.5471H128.769V58.5391H136.273V59.5471ZM144.885 63.0991H137.845C137.909 63.9737 138.245 64.6831 138.853 65.2271C139.461 65.7604 140.229 66.0271 141.157 66.0271C141.679 66.0271 142.159 65.9364 142.597 65.7551C143.034 65.5631 143.413 65.2857 143.733 64.9231L144.373 65.6591C143.999 66.1071 143.53 66.4484 142.965 66.6831C142.41 66.9177 141.797 67.0351 141.125 67.0351C140.261 67.0351 139.493 66.8537 138.821 66.4911C138.159 66.1177 137.642 65.6057 137.269 64.9551C136.895 64.3044 136.709 63.5684 136.709 62.7471C136.709 61.9257 136.885 61.1897 137.237 60.5391C137.599 59.8884 138.09 59.3817 138.709 59.0191C139.338 58.6564 140.042 58.4751 140.821 58.4751C141.599 58.4751 142.298 58.6564 142.917 59.0191C143.535 59.3817 144.021 59.8884 144.373 60.5391C144.725 61.1791 144.901 61.9151 144.901 62.7471L144.885 63.0991ZM140.821 59.4511C140.01 59.4511 139.327 59.7124 138.773 60.2351C138.229 60.7471 137.919 61.4191 137.845 62.2511H143.813C143.738 61.4191 143.423 60.7471 142.869 60.2351C142.325 59.7124 141.642 59.4511 140.821 59.4511ZM47.3708 82.5711C47.9681 82.7097 48.4268 82.9497 48.7468 83.2911C49.0774 83.6324 49.2428 84.0484 49.2428 84.5391C49.2428 85.0297 49.0721 85.4671 48.7308 85.8511C48.4001 86.2351 47.9468 86.5337 47.3708 86.7471C46.7948 86.9497 46.1601 87.0511 45.4668 87.0511C44.8588 87.0511 44.2614 86.9657 43.6748 86.7951C43.0881 86.6137 42.5761 86.3524 42.1388 86.0111L42.5228 85.1631C42.9068 85.4511 43.3548 85.6751 43.8668 85.8351C44.3788 85.9951 44.8961 86.0751 45.4188 86.0751C46.1974 86.0751 46.8321 85.9311 47.3228 85.6431C47.8241 85.3444 48.0748 84.9444 48.0748 84.4431C48.0748 83.9951 47.8721 83.6484 47.4668 83.4031C47.0614 83.1471 46.5068 83.0191 45.8028 83.0191H44.3628V82.1871H45.7388C46.3681 82.1871 46.8748 82.0697 47.2588 81.8351C47.6428 81.5897 47.8348 81.2644 47.8348 80.8591C47.8348 80.4111 47.6161 80.0591 47.1788 79.8031C46.7521 79.5471 46.1921 79.4191 45.4988 79.4191C44.5921 79.4191 43.6961 79.6484 42.8108 80.1071L42.4908 79.2271C43.4934 78.7044 44.5334 78.4431 45.6108 78.4431C46.2508 78.4431 46.8268 78.5391 47.3388 78.7311C47.8614 78.9124 48.2668 79.1737 48.5548 79.5151C48.8534 79.8564 49.0028 80.2511 49.0028 80.6991C49.0028 81.1257 48.8534 81.5044 48.5548 81.8351C48.2668 82.1657 47.8721 82.4111 47.3708 82.5711ZM54.7176 78.4751C55.8163 78.4751 56.659 78.7524 57.2456 79.3071C57.8323 79.8511 58.1256 80.6617 58.1256 81.7391V86.9551H57.0376V85.6431C56.7816 86.0804 56.403 86.4217 55.9016 86.6671C55.411 86.9124 54.8243 87.0351 54.1416 87.0351C53.203 87.0351 52.4563 86.8111 51.9016 86.3631C51.347 85.9151 51.0696 85.3231 51.0696 84.5871C51.0696 83.8724 51.3256 83.2964 51.8376 82.8591C52.3603 82.4217 53.187 82.2031 54.3176 82.2031H56.9896V81.6911C56.9896 80.9657 56.787 80.4164 56.3816 80.0431C55.9763 79.6591 55.3843 79.4671 54.6056 79.4671C54.0723 79.4671 53.5603 79.5577 53.0696 79.7391C52.579 79.9097 52.1576 80.1497 51.8056 80.4591L51.2936 79.6111C51.7203 79.2484 52.2323 78.9711 52.8296 78.7791C53.427 78.5764 54.0563 78.4751 54.7176 78.4751ZM54.3176 86.1391C54.9576 86.1391 55.507 85.9951 55.9656 85.7071C56.4243 85.4084 56.7656 84.9817 56.9896 84.4271V83.0511H54.3496C52.9096 83.0511 52.1896 83.5524 52.1896 84.5551C52.1896 85.0457 52.3763 85.4351 52.7496 85.7231C53.123 86.0004 53.6456 86.1391 54.3176 86.1391ZM69.3578 85.9631V88.9871H68.2858V86.9551H60.7498V88.9871H59.6778V85.9631H60.1578C60.7231 85.9311 61.1071 85.5151 61.3098 84.7151C61.5124 83.9151 61.6511 82.7951 61.7258 81.3551L61.8378 78.5391H68.0458V85.9631H69.3578ZM62.7658 81.4191C62.7124 82.6137 62.6111 83.6004 62.4618 84.3791C62.3124 85.1471 62.0458 85.6751 61.6618 85.9631H66.9098V79.5471H62.8618L62.7658 81.4191ZM74.4676 78.4751C75.5663 78.4751 76.409 78.7524 76.9956 79.3071C77.5823 79.8511 77.8756 80.6617 77.8756 81.7391V86.9551H76.7876V85.6431C76.5316 86.0804 76.153 86.4217 75.6516 86.6671C75.161 86.9124 74.5743 87.0351 73.8916 87.0351C72.953 87.0351 72.2063 86.8111 71.6516 86.3631C71.097 85.9151 70.8196 85.3231 70.8196 84.5871C70.8196 83.8724 71.0756 83.2964 71.5876 82.8591C72.1103 82.4217 72.937 82.2031 74.0676 82.2031H76.7396V81.6911C76.7396 80.9657 76.537 80.4164 76.1316 80.0431C75.7263 79.6591 75.1343 79.4671 74.3556 79.4671C73.8223 79.4671 73.3103 79.5577 72.8196 79.7391C72.329 79.9097 71.9076 80.1497 71.5556 80.4591L71.0436 79.6111C71.4703 79.2484 71.9823 78.9711 72.5796 78.7791C73.177 78.5764 73.8063 78.4751 74.4676 78.4751ZM74.0676 86.1391C74.7076 86.1391 75.257 85.9951 75.7156 85.7071C76.1743 85.4084 76.5156 84.9817 76.7396 84.4271V83.0511H74.0996C72.6596 83.0511 71.9396 83.5524 71.9396 84.5551C71.9396 85.0457 72.1263 85.4351 72.4996 85.7231C72.873 86.0004 73.3956 86.1391 74.0676 86.1391ZM80.8998 78.5391H82.0358V82.2671H87.3318V78.5391H88.4678V86.9551H87.3318V83.2431H82.0358V86.9551H80.8998V78.5391ZM91.6966 78.5391H92.8326V85.2271L98.4486 78.5391H99.4566V86.9551H98.3206V80.2671L92.7206 86.9551H91.6966V78.5391ZM109.176 78.5391V86.9551H108.136V84.1711H105.496H105.176L103.224 86.9551H101.992L104.088 84.0111C103.438 83.8297 102.936 83.5204 102.584 83.0831C102.232 82.6457 102.056 82.0911 102.056 81.4191C102.056 80.4804 102.376 79.7657 103.016 79.2751C103.656 78.7844 104.531 78.5391 105.64 78.5391H109.176ZM103.208 81.4511C103.208 82.6991 104.003 83.3231 105.592 83.3231H108.136V79.5471H105.672C104.03 79.5471 103.208 80.1817 103.208 81.4511ZM116.603 78.5391H117.739V85.2271L123.355 78.5391H124.363V86.9551H123.227V80.2671L117.627 86.9551H116.603V78.5391ZM50.8268 98.5391V106.955H49.6908V99.5471H44.4108V106.955H43.2748V98.5391H50.8268ZM57.528 107.035C56.7173 107.035 55.9867 106.854 55.336 106.491C54.6853 106.118 54.1733 105.606 53.8 104.955C53.4267 104.304 53.24 103.568 53.24 102.747C53.24 101.926 53.4267 101.19 53.8 100.539C54.1733 99.8884 54.6853 99.3817 55.336 99.0191C55.9867 98.6564 56.7173 98.4751 57.528 98.4751C58.3387 98.4751 59.0693 98.6564 59.72 99.0191C60.3707 99.3817 60.8773 99.8884 61.24 100.539C61.6133 101.19 61.8 101.926 61.8 102.747C61.8 103.568 61.6133 104.304 61.24 104.955C60.8773 105.606 60.3707 106.118 59.72 106.491C59.0693 106.854 58.3387 107.035 57.528 107.035ZM57.528 106.027C58.1253 106.027 58.6587 105.894 59.128 105.627C59.608 105.35 59.9813 104.96 60.248 104.459C60.5147 103.958 60.648 103.387 60.648 102.747C60.648 102.107 60.5147 101.536 60.248 101.035C59.9813 100.534 59.608 100.15 59.128 99.8831C58.6587 99.6057 58.1253 99.4671 57.528 99.4671C56.9307 99.4671 56.392 99.6057 55.912 99.8831C55.4427 100.15 55.0693 100.534 54.792 101.035C54.5253 101.536 54.392 102.107 54.392 102.747C54.392 103.387 54.5253 103.958 54.792 104.459C55.0693 104.96 55.4427 105.35 55.912 105.627C56.392 105.894 56.9307 106.027 57.528 106.027ZM71.061 98.5391V106.955H69.925V99.5471H65.893L65.781 101.627C65.6957 103.376 65.493 104.72 65.173 105.659C64.853 106.598 64.2823 107.067 63.461 107.067C63.237 107.067 62.965 107.024 62.645 106.939L62.725 105.963C62.917 106.006 63.0503 106.027 63.125 106.027C63.5623 106.027 63.893 105.824 64.117 105.419C64.341 105.014 64.4903 104.512 64.565 103.915C64.6397 103.318 64.7037 102.528 64.757 101.547L64.901 98.5391H71.061ZM81.4424 98.5391L77.2344 107.963C76.893 108.752 76.4984 109.312 76.0504 109.643C75.6024 109.974 75.0637 110.139 74.4344 110.139C74.029 110.139 73.6504 110.075 73.2984 109.947C72.9464 109.819 72.6424 109.627 72.3864 109.371L72.9144 108.523C73.341 108.95 73.853 109.163 74.4504 109.163C74.8344 109.163 75.1597 109.056 75.4264 108.843C75.7037 108.63 75.9597 108.267 76.1944 107.755L76.5624 106.939L72.8024 98.5391H73.9864L77.1544 105.691L80.3224 98.5391H81.4424ZM89.5643 98.5391V106.955H88.4283V103.451C87.4576 103.878 86.5029 104.091 85.5643 104.091C84.5509 104.091 83.7616 103.862 83.1963 103.403C82.6309 102.934 82.3483 102.235 82.3483 101.307V98.5391H83.4843V101.243C83.4843 101.872 83.6869 102.352 84.0923 102.683C84.4976 103.003 85.0576 103.163 85.7723 103.163C86.5616 103.163 87.4469 102.955 88.4283 102.539V98.5391H89.5643ZM95.6864 98.4751C96.785 98.4751 97.6277 98.7524 98.2144 99.3071C98.801 99.8511 99.0944 100.662 99.0944 101.739V106.955H98.0064V105.643C97.7504 106.08 97.3717 106.422 96.8704 106.667C96.3797 106.912 95.793 107.035 95.1104 107.035C94.1717 107.035 93.425 106.811 92.8704 106.363C92.3157 105.915 92.0384 105.323 92.0384 104.587C92.0384 103.872 92.2944 103.296 92.8064 102.859C93.329 102.422 94.1557 102.203 95.2864 102.203H97.9584V101.691C97.9584 100.966 97.7557 100.416 97.3504 100.043C96.945 99.6591 96.353 99.4671 95.5744 99.4671C95.041 99.4671 94.529 99.5577 94.0384 99.7391C93.5477 99.9097 93.1264 100.15 92.7744 100.459L92.2624 99.6111C92.689 99.2484 93.201 98.9711 93.7984 98.7791C94.3957 98.5764 95.025 98.4751 95.6864 98.4751ZM95.2864 106.139C95.9264 106.139 96.4757 105.995 96.9344 105.707C97.393 105.408 97.7344 104.982 97.9584 104.427V103.051H95.3184C93.8784 103.051 93.1584 103.552 93.1584 104.555C93.1584 105.046 93.345 105.435 93.7184 105.723C94.0917 106 94.6144 106.139 95.2864 106.139ZM102.119 98.5391H103.255V105.227L108.871 98.5391H109.879V106.955H108.743V100.267L103.143 106.955H102.119V98.5391ZM105.943 97.3231C105.217 97.3231 104.641 97.1417 104.215 96.7791C103.788 96.4164 103.569 95.9044 103.559 95.2431H104.375C104.385 95.6591 104.535 95.9951 104.823 96.2511C105.111 96.4964 105.484 96.6191 105.943 96.6191C106.401 96.6191 106.775 96.4964 107.063 96.2511C107.361 95.9951 107.516 95.6591 107.527 95.2431H108.343C108.332 95.9044 108.108 96.4164 107.671 96.7791C107.244 97.1417 106.668 97.3231 105.943 97.3231ZM119.054 99.5471H115.87V106.955H114.734V99.5471H111.55V98.5391H119.054V99.5471ZM127.666 103.099H120.626C120.69 103.974 121.026 104.683 121.634 105.227C122.242 105.76 123.01 106.027 123.938 106.027C124.461 106.027 124.941 105.936 125.378 105.755C125.815 105.563 126.194 105.286 126.514 104.923L127.154 105.659C126.781 106.107 126.311 106.448 125.746 106.683C125.191 106.918 124.578 107.035 123.906 107.035C123.042 107.035 122.274 106.854 121.602 106.491C120.941 106.118 120.423 105.606 120.05 104.955C119.677 104.304 119.49 103.568 119.49 102.747C119.49 101.926 119.666 101.19 120.018 100.539C120.381 99.8884 120.871 99.3817 121.49 99.0191C122.119 98.6564 122.823 98.4751 123.602 98.4751C124.381 98.4751 125.079 98.6564 125.698 99.0191C126.317 99.3817 126.802 99.8884 127.154 100.539C127.506 101.179 127.682 101.915 127.682 102.747L127.666 103.099ZM123.602 99.4511C122.791 99.4511 122.109 99.7124 121.554 100.235C121.01 100.747 120.701 101.419 120.626 102.251H126.594C126.519 101.419 126.205 100.747 125.65 100.235C125.106 99.7124 124.423 99.4511 123.602 99.4511ZM141.616 106.955L138 102.027L134.4 106.955H133.04L137.296 101.195L133.312 95.7551H134.672L138.048 100.331L141.408 95.7551H142.688L138.72 101.163L142.992 106.955H141.616ZM148.894 95.7551C150.323 95.7551 151.443 96.0964 152.254 96.7791C153.064 97.4617 153.47 98.4004 153.47 99.5951C153.47 100.79 153.064 101.728 152.254 102.411C151.443 103.083 150.323 103.419 148.894 103.419H145.886V106.955H144.702V95.7551H148.894ZM148.862 102.379C149.971 102.379 150.819 102.139 151.406 101.659C151.992 101.168 152.286 100.48 152.286 99.5951C152.286 98.6884 151.992 97.9951 151.406 97.5151C150.819 97.0244 149.971 96.7791 148.862 96.7791H145.886V102.379H148.862Z" fill="#02221F"/>
<path d="M57.3185 154.393V145.153L57.9205 145.811H55.1065V144.593H58.7045V154.393H57.3185ZM48.1696 171.393L52.2436 165.835V166.913L48.3936 161.593H49.9896L53.0416 165.779L52.4116 165.793L55.4496 161.593H56.9756L53.1536 166.829V165.821L57.2276 171.393H55.6176L52.3696 166.927H52.9856L49.7796 171.393H48.1696ZM58.5494 171.393V161.593H62.3714C63.2301 161.593 63.9627 161.729 64.5694 161.999C65.1761 162.27 65.6427 162.662 65.9694 163.175C66.2961 163.689 66.4594 164.3 66.4594 165.009C66.4594 165.719 66.2961 166.33 65.9694 166.843C65.6427 167.347 65.1761 167.739 64.5694 168.019C63.9627 168.29 63.2301 168.425 62.3714 168.425H59.3194L59.9494 167.767V171.393H58.5494ZM59.9494 167.907L59.3194 167.207H62.3294C63.2254 167.207 63.9021 167.016 64.3594 166.633C64.8261 166.251 65.0594 165.709 65.0594 165.009C65.0594 164.309 64.8261 163.768 64.3594 163.385C63.9021 163.003 63.2254 162.811 62.3294 162.811H59.3194L59.9494 162.111V167.907Z" fill="#02221F"/>
<mask id="path-5-inside-1_201_38" fill="white">
<rect x="41.1526" y="137.019" width="33.1974" height="20.2759" rx="3"/>
</mask>
<rect x="41.1526" y="137.019" width="33.1974" height="20.2759" rx="3" stroke="#02221F" stroke-width="8" mask="url(#path-5-inside-1_201_38)"/>
<rect x="2" y="22" width="255.78" height="170.951" rx="8" fill="white" stroke="#02221F" stroke-width="4"/>
<path d="M26.3397 45.1315C27.0003 45.3589 27.5147 45.7163 27.8829 46.2036C28.2619 46.6801 28.4514 47.2378 28.4514 47.8768C28.4514 48.5698 28.224 49.1709 27.7692 49.6798C27.3143 50.1888 26.6971 50.5787 25.9174 50.8494C25.1485 51.1201 24.3038 51.2555 23.3833 51.2555C22.6036 51.2555 21.8239 51.158 21.0442 50.9631C20.2753 50.7682 19.5443 50.4704 18.8513 50.0697L19.6635 48.1854C20.1616 48.4886 20.7085 48.7214 21.3041 48.8839C21.9105 49.0355 22.5007 49.1113 23.0747 49.1113C23.8544 49.1113 24.4987 48.9705 25.0077 48.6889C25.5275 48.4074 25.7874 48.0121 25.7874 47.5031C25.7874 47.0808 25.6087 46.7613 25.2514 46.5448C24.9048 46.3282 24.4283 46.2199 23.8219 46.2199H21.0442V44.2381H23.627C24.1576 44.2381 24.5691 44.1298 24.8615 43.9132C25.1647 43.6967 25.3163 43.3989 25.3163 43.0198C25.3163 42.5758 25.0997 42.2293 24.6666 41.9802C24.2442 41.7311 23.6974 41.6066 23.0259 41.6066C22.5278 41.6066 22.0134 41.677 21.4828 41.8178C20.9521 41.9477 20.4486 42.1481 19.9721 42.4188L19.1761 40.3721C20.3782 39.7548 21.6777 39.4462 23.0747 39.4462C23.9627 39.4462 24.7803 39.5761 25.5275 39.836C26.2747 40.0959 26.8703 40.4749 27.3143 40.9731C27.7583 41.4712 27.9803 42.0506 27.9803 42.7112C27.9803 43.2527 27.8341 43.7346 27.5417 44.1569C27.2494 44.5792 26.8487 44.9041 26.3397 45.1315Z" fill="#02221F"/>
<path d="M33.7347 42.1914C35.0884 42.1914 36.128 42.5163 36.8536 43.166C37.5791 43.8049 37.9419 44.7742 37.9419 46.0737V51.0606H35.5703V49.9722C35.0938 50.7844 34.2058 51.1905 32.9063 51.1905C32.2349 51.1905 31.6501 51.0768 31.152 50.8494C30.6646 50.622 30.291 50.3079 30.0311 49.9072C29.7712 49.5066 29.6413 49.0517 29.6413 48.5428C29.6413 47.7306 29.9445 47.0916 30.5509 46.626C31.1682 46.1603 32.1158 45.9275 33.3936 45.9275H35.4079C35.4079 45.3752 35.24 44.9529 34.9043 44.6605C34.5686 44.3572 34.065 44.2056 33.3936 44.2056C32.928 44.2056 32.4677 44.2814 32.0129 44.433C31.5689 44.5738 31.1899 44.7688 30.8758 45.0178L29.9661 43.2472C30.4426 42.9115 31.0112 42.6516 31.6718 42.4675C32.3432 42.2834 33.0308 42.1914 33.7347 42.1914ZM33.5398 49.4849C33.973 49.4849 34.3574 49.3874 34.6931 49.1925C35.0288 48.9868 35.2671 48.6889 35.4079 48.2991V47.4057H33.6698C32.6301 47.4057 32.1103 47.7468 32.1103 48.429C32.1103 48.7539 32.2349 49.0138 32.484 49.2088C32.7439 49.3929 33.0958 49.4849 33.5398 49.4849Z" fill="#02221F"/>
<path d="M49.9383 48.9813V52.9448H47.5829V51.0606H41.4427V52.9448H39.0874V48.9813H39.4447C39.9862 48.9705 40.3598 48.651 40.5655 48.0229C40.7713 47.3949 40.9013 46.5014 40.9554 45.3427L41.0691 42.3213H48.6875V48.9813H49.9383ZM43.2458 45.5214C43.2133 46.4094 43.1429 47.1349 43.0346 47.6981C42.9372 48.2612 42.7476 48.6889 42.4661 48.9813H46.1535V44.4006H43.2945L43.2458 45.5214Z" fill="#02221F"/>
<path d="M54.9279 42.1914C56.2816 42.1914 57.3212 42.5163 58.0468 43.166C58.7723 43.8049 59.1351 44.7742 59.1351 46.0737V51.0606H56.7635V49.9722C56.287 50.7844 55.399 51.1905 54.0995 51.1905C53.4281 51.1905 52.8433 51.0768 52.3452 50.8494C51.8579 50.622 51.4842 50.3079 51.2243 49.9072C50.9644 49.5066 50.8345 49.0517 50.8345 48.5428C50.8345 47.7306 51.1377 47.0916 51.7441 46.626C52.3614 46.1603 53.309 45.9275 54.5868 45.9275H56.6011C56.6011 45.3752 56.4332 44.9529 56.0975 44.6605C55.7618 44.3572 55.2582 44.2056 54.5868 44.2056C54.1212 44.2056 53.6609 44.2814 53.2061 44.433C52.7621 44.5738 52.3831 44.7688 52.069 45.0178L51.1594 43.2472C51.6359 42.9115 52.2044 42.6516 52.865 42.4675C53.5364 42.2834 54.224 42.1914 54.9279 42.1914ZM54.733 49.4849C55.1662 49.4849 55.5506 49.3874 55.8863 49.1925C56.222 48.9868 56.4603 48.6889 56.6011 48.2991V47.4057H54.863C53.8234 47.4057 53.3036 47.7468 53.3036 48.429C53.3036 48.7539 53.4281 49.0138 53.6772 49.2088C53.9371 49.3929 54.289 49.4849 54.733 49.4849Z" fill="#02221F"/>
<path d="M61.3364 42.3213H63.8542V45.7326H67.6553V42.3213H70.1893V51.0606H67.6553V47.7955H63.8542V51.0606H61.3364V42.3213Z" fill="#02221F"/>
<path d="M72.6151 42.3213H75.133V47.5194L79.3889 42.3213H81.7117V51.0606H79.1939V45.8625L74.9543 51.0606H72.6151V42.3213Z" fill="#02221F"/>
<path d="M92.6432 46.7234C92.6432 46.7559 92.627 46.9833 92.5945 47.4057H85.9832C86.1024 47.9471 86.3839 48.3749 86.8279 48.6889C87.2719 49.003 87.8242 49.16 88.4848 49.16C88.9396 49.16 89.3403 49.095 89.6869 48.9651C90.0442 48.8243 90.3745 48.6077 90.6777 48.3153L92.026 49.7773C91.203 50.7194 90.0009 51.1905 88.4198 51.1905C87.4344 51.1905 86.5626 51.001 85.8046 50.622C85.0465 50.2321 84.4617 49.6961 84.0502 49.0138C83.6387 48.3316 83.433 47.5573 83.433 46.6909C83.433 45.8354 83.6333 45.0666 84.034 44.3843C84.4455 43.6912 85.0032 43.1552 85.7071 42.7762C86.4218 42.3863 87.2178 42.1914 88.095 42.1914C88.9505 42.1914 89.7248 42.3755 90.4178 42.7437C91.1109 43.1119 91.6524 43.6425 92.0422 44.3356C92.4429 45.0178 92.6432 45.8138 92.6432 46.7234ZM88.1112 44.1082C87.5372 44.1082 87.0553 44.2706 86.6655 44.5955C86.2756 44.9204 86.0374 45.3644 85.9508 45.9275H90.2554C90.1688 45.3752 89.9305 44.9366 89.5407 44.6117C89.1508 44.276 88.6743 44.1082 88.1112 44.1082Z" fill="#02221F"/>
<path d="M102.987 39.6898V51.0606H100.356V41.8015H98.0814V39.6898H102.987Z" fill="#02221F"/>
<path d="M24.2334 76.0001C24.7604 76.1084 25.1611 76.3213 25.4355 76.639C25.7098 76.9494 25.847 77.3573 25.847 77.8627C25.847 78.5197 25.6123 79.0251 25.1431 79.3788C24.681 79.7326 23.9988 79.9094 23.0963 79.9094H19.7393V72.329H22.8906C23.6992 72.329 24.3309 72.495 24.7857 72.8271C25.2405 73.1592 25.4679 73.6393 25.4679 74.2674C25.4679 74.6933 25.3596 75.0543 25.1431 75.3503C24.9265 75.6391 24.6233 75.8557 24.2334 76.0001ZM20.5298 75.7618H22.8473C23.432 75.7618 23.8796 75.6427 24.1901 75.4045C24.5077 75.1662 24.6666 74.8197 24.6666 74.3649C24.6666 73.91 24.5077 73.5635 24.1901 73.3253C23.8796 73.087 23.432 72.9679 22.8473 72.9679H20.5298V75.7618ZM23.0963 79.2705C24.4031 79.2705 25.0564 78.7832 25.0564 77.8086C25.0564 76.8556 24.4031 76.3791 23.0963 76.3791H20.5298V79.2705H23.0963Z" fill="#02221F"/>
<path d="M30.0598 76.2275C30.7745 76.2347 31.3196 76.3935 31.695 76.704C32.0704 77.0144 32.2581 77.462 32.2581 78.0468C32.2581 78.6533 32.056 79.1189 31.6517 79.4438C31.2474 79.7687 30.6699 79.9275 29.919 79.9203L27.6665 79.9094V74.2133H28.4354V76.2058L30.0598 76.2275ZM33.2111 74.2133H33.98V79.9094H33.2111V74.2133ZM29.8757 79.3355C30.4027 79.3427 30.7998 79.238 31.0669 79.0214C31.3413 78.7976 31.4784 78.4728 31.4784 78.0468C31.4784 77.6281 31.3449 77.3176 31.0778 77.1155C30.8106 76.9133 30.4099 76.8087 29.8757 76.8014L28.4354 76.7798V79.3138L29.8757 79.3355Z" fill="#02221F"/>
<path d="M41.2806 74.2133V79.9094H40.5117V74.8955H36.9381V79.9094H36.1692V74.2133H41.2806Z" fill="#02221F"/>
<path d="M45.8162 79.9636C45.2675 79.9636 44.773 79.8409 44.3326 79.5954C43.8922 79.3427 43.5457 78.9962 43.293 78.5558C43.0403 78.1154 42.914 77.6173 42.914 77.0613C42.914 76.5054 43.0403 76.0073 43.293 75.5669C43.5457 75.1265 43.8922 74.7836 44.3326 74.5381C44.773 74.2927 45.2675 74.1699 45.8162 74.1699C46.3649 74.1699 46.8594 74.2927 47.2998 74.5381C47.7402 74.7836 48.0831 75.1265 48.3286 75.5669C48.5813 76.0073 48.7076 76.5054 48.7076 77.0613C48.7076 77.6173 48.5813 78.1154 48.3286 78.5558C48.0831 78.9962 47.7402 79.3427 47.2998 79.5954C46.8594 79.8409 46.3649 79.9636 45.8162 79.9636ZM45.8162 79.2813C46.2205 79.2813 46.5815 79.1911 46.8991 79.0106C47.224 78.8229 47.4767 78.5594 47.6572 78.2201C47.8377 77.8808 47.9279 77.4945 47.9279 77.0613C47.9279 76.6282 47.8377 76.2419 47.6572 75.9026C47.4767 75.5633 47.224 75.3034 46.8991 75.1229C46.5815 74.9352 46.2205 74.8413 45.8162 74.8413C45.4119 74.8413 45.0473 74.9352 44.7225 75.1229C44.4048 75.3034 44.1521 75.5633 43.9644 75.9026C43.7839 76.2419 43.6937 76.6282 43.6937 77.0613C43.6937 77.4945 43.7839 77.8808 43.9644 78.2201C44.1521 78.5594 44.4048 78.8229 44.7225 79.0106C45.0473 79.1911 45.4119 79.2813 45.8162 79.2813Z" fill="#02221F"/>
<path d="M54.9758 74.2133V79.9094H54.2069V74.8955H51.4779L51.4021 76.3033C51.3443 77.4873 51.2072 78.397 50.9906 79.0323C50.774 79.6676 50.3878 79.9853 49.8318 79.9853C49.6802 79.9853 49.4961 79.9564 49.2796 79.8986L49.3337 79.238C49.4637 79.2669 49.5539 79.2813 49.6044 79.2813C49.9004 79.2813 50.1242 79.1442 50.2758 78.8698C50.4275 78.5955 50.5285 78.2562 50.5791 77.8519C50.6296 77.4476 50.6729 76.9133 50.709 76.2492L50.8065 74.2133H54.9758Z" fill="#02221F"/>
<path d="M57.1615 74.2133H57.9304V76.7365H61.5149V74.2133H62.2837V79.9094H61.5149V77.3971H57.9304V79.9094H57.1615V74.2133Z" fill="#02221F"/>
<path d="M68.8442 74.2133V79.9094H68.1402V78.0252H66.3534H66.1368L64.8157 79.9094H63.9818L65.4004 77.9169C64.9601 77.7941 64.6207 77.5848 64.3825 77.2888C64.1442 76.9928 64.0251 76.6173 64.0251 76.1625C64.0251 75.5272 64.2417 75.0435 64.6749 74.7114C65.1081 74.3793 65.7001 74.2133 66.4509 74.2133H68.8442ZM64.8048 76.1842C64.8048 77.0289 65.3427 77.4512 66.4184 77.4512H68.1402V74.8955H66.4725C65.3607 74.8955 64.8048 75.3251 64.8048 76.1842Z" fill="#02221F"/>
<path d="M71.0365 74.2133H71.8054V78.7399L75.6064 74.2133H76.2887V79.9094H75.5198V75.3828L71.7296 79.9094H71.0365V74.2133ZM73.6247 73.3902C73.1338 73.3902 72.7439 73.2675 72.4551 73.022C72.1663 72.7766 72.0183 72.43 72.0111 71.9824H72.5634C72.5706 72.264 72.6717 72.4914 72.8666 72.6647C73.0616 72.8307 73.3142 72.9137 73.6247 72.9137C73.9351 72.9137 74.1878 72.8307 74.3827 72.6647C74.5849 72.4914 74.6896 72.264 74.6968 71.9824H75.2491C75.2419 72.43 75.0902 72.7766 74.7942 73.022C74.5055 73.2675 74.1156 73.3902 73.6247 73.3902Z" fill="#02221F"/>
<path d="M82.499 74.8955H80.344V79.9094H79.5751V74.8955H77.4201V74.2133H82.499V74.8955Z" fill="#02221F"/>
<path d="M88.3278 77.2996H83.5629C83.6062 77.8916 83.8336 78.3717 84.2451 78.7399C84.6567 79.1009 85.1765 79.2813 85.8046 79.2813C86.1583 79.2813 86.4832 79.22 86.7792 79.0973C87.0752 78.9673 87.3315 78.7796 87.5481 78.5341L87.9812 79.0323C87.7286 79.3355 87.4109 79.5665 87.0283 79.7253C86.6529 79.8842 86.2377 79.9636 85.7829 79.9636C85.1981 79.9636 84.6783 79.8409 84.2235 79.5954C83.7759 79.3427 83.4257 78.9962 83.173 78.5558C82.9204 78.1154 82.794 77.6173 82.794 77.0613C82.794 76.5054 82.9131 76.0073 83.1514 75.5669C83.3969 75.1265 83.7289 74.7836 84.1477 74.5381C84.5736 74.2927 85.0501 74.1699 85.5771 74.1699C86.1042 74.1699 86.577 74.2927 86.9958 74.5381C87.4145 74.7836 87.743 75.1265 87.9812 75.5669C88.2195 76.0001 88.3386 76.4982 88.3386 77.0613L88.3278 77.2996ZM85.5771 74.8305C85.0285 74.8305 84.5664 75.0074 84.191 75.3612C83.8228 75.7077 83.6134 76.1625 83.5629 76.7256H87.6022C87.5517 76.1625 87.3387 75.7077 86.9633 75.3612C86.5951 75.0074 86.133 74.8305 85.5771 74.8305Z" fill="#02221F"/>
<path d="M95.6471 76.9422C96.0514 77.0361 96.3618 77.1985 96.5784 77.4295C96.8022 77.6606 96.9141 77.9421 96.9141 78.2742C96.9141 78.6063 96.7986 78.9023 96.5676 79.1622C96.3438 79.4221 96.0369 79.6243 95.6471 79.7687C95.2572 79.9058 94.8277 79.9744 94.3584 79.9744C93.9469 79.9744 93.5426 79.9167 93.1455 79.8012C92.7485 79.6784 92.4019 79.5015 92.1059 79.2705L92.3658 78.6966C92.6257 78.8915 92.9289 79.0431 93.2755 79.1514C93.622 79.2597 93.9722 79.3138 94.3259 79.3138C94.8529 79.3138 95.2825 79.2164 95.6146 79.0214C95.9539 78.8193 96.1236 78.5486 96.1236 78.2093C96.1236 77.906 95.9864 77.6714 95.7121 77.5053C95.4377 77.3321 95.0623 77.2454 94.5858 77.2454H93.6112V76.6823H94.5425C94.9685 76.6823 95.3114 76.6029 95.5713 76.4441C95.8312 76.278 95.9611 76.0578 95.9611 75.7835C95.9611 75.4803 95.8131 75.242 95.5171 75.0688C95.2284 74.8955 94.8493 74.8089 94.3801 74.8089C93.7664 74.8089 93.16 74.9641 92.5608 75.2745L92.3442 74.6789C93.0228 74.3252 93.7267 74.1483 94.4559 74.1483C94.889 74.1483 95.2789 74.2133 95.6254 74.3432C95.9792 74.4659 96.2535 74.6428 96.4485 74.8738C96.6506 75.1049 96.7517 75.372 96.7517 75.6752C96.7517 75.964 96.6506 76.2203 96.4485 76.4441C96.2535 76.6679 95.9864 76.8339 95.6471 76.9422Z" fill="#02221F"/>
<path d="M100.62 74.1699C101.363 74.1699 101.934 74.3576 102.331 74.7331C102.728 75.1013 102.926 75.6499 102.926 76.3791V79.9094H102.19V79.0214C102.017 79.3174 101.76 79.5485 101.421 79.7145C101.089 79.8806 100.692 79.9636 100.23 79.9636C99.5945 79.9636 99.0891 79.812 98.7137 79.5088C98.3383 79.2055 98.1506 78.8049 98.1506 78.3067C98.1506 77.823 98.3239 77.4332 98.6704 77.1372C99.0242 76.8412 99.5837 76.6932 100.349 76.6932H102.157V76.3466C102.157 75.8557 102.02 75.4839 101.746 75.2312C101.472 74.9713 101.071 74.8413 100.544 74.8413C100.183 74.8413 99.8364 74.9027 99.5043 75.0254C99.1722 75.141 98.887 75.3034 98.6487 75.5128L98.3022 74.9388C98.591 74.6933 98.9375 74.5056 99.3418 74.3757C99.7461 74.2385 100.172 74.1699 100.62 74.1699ZM100.349 79.3572C100.782 79.3572 101.154 79.2597 101.464 79.0648C101.775 78.8626 102.006 78.5738 102.157 78.1984V77.2671H100.371C99.396 77.2671 98.9087 77.6064 98.9087 78.2851C98.9087 78.6172 99.035 78.8807 99.2877 79.0756C99.5404 79.2633 99.8941 79.3572 100.349 79.3572Z" fill="#02221F"/>
<path d="M110.529 79.238V81.2848H109.803V79.9094H104.702V81.2848H103.977V79.238H104.302C104.684 79.2164 104.944 78.9348 105.081 78.3933C105.219 77.8519 105.312 77.0938 105.363 76.1192L105.439 74.2133H109.641V79.238H110.529ZM106.067 76.1625C106.031 76.9711 105.962 77.6389 105.861 78.1659C105.76 78.6857 105.58 79.0431 105.32 79.238H108.872V74.8955H106.132L106.067 76.1625Z" fill="#02221F"/>
<path d="M113.987 74.1699C114.731 74.1699 115.301 74.3576 115.698 74.7331C116.095 75.1013 116.294 75.6499 116.294 76.3791V79.9094H115.557V79.0214C115.384 79.3174 115.128 79.5485 114.788 79.7145C114.456 79.8806 114.059 79.9636 113.597 79.9636C112.962 79.9636 112.457 79.812 112.081 79.5088C111.706 79.2055 111.518 78.8049 111.518 78.3067C111.518 77.823 111.691 77.4332 112.038 77.1372C112.392 76.8412 112.951 76.6932 113.716 76.6932H115.525V76.3466C115.525 75.8557 115.388 75.4839 115.113 75.2312C114.839 74.9713 114.438 74.8413 113.911 74.8413C113.55 74.8413 113.204 74.9027 112.872 75.0254C112.54 75.141 112.254 75.3034 112.016 75.5128L111.67 74.9388C111.958 74.6933 112.305 74.5056 112.709 74.3757C113.113 74.2385 113.539 74.1699 113.987 74.1699ZM113.716 79.3572C114.149 79.3572 114.521 79.2597 114.832 79.0648C115.142 78.8626 115.373 78.5738 115.525 78.1984V77.2671H113.738C112.763 77.2671 112.276 77.6064 112.276 78.2851C112.276 78.6172 112.402 78.8807 112.655 79.0756C112.908 79.2633 113.261 79.3572 113.716 79.3572Z" fill="#02221F"/>
<path d="M118.341 74.2133H119.109V76.7365H122.694V74.2133H123.463V79.9094H122.694V77.3971H119.109V79.9094H118.341V74.2133Z" fill="#02221F"/>
<path d="M125.648 74.2133H126.417V78.7399L130.218 74.2133H130.9V79.9094H130.131V75.3828L126.341 79.9094H125.648V74.2133Z" fill="#02221F"/>
<path d="M137.479 74.2133V79.9094H136.775V78.0252H134.988H134.772L133.45 79.9094H132.617L134.035 77.9169C133.595 77.7941 133.255 77.5848 133.017 77.2888C132.779 76.9928 132.66 76.6173 132.66 76.1625C132.66 75.5272 132.876 75.0435 133.31 74.7114C133.743 74.3793 134.335 74.2133 135.086 74.2133H137.479ZM133.44 76.1842C133.44 77.0289 133.977 77.4512 135.053 77.4512H136.775V74.8955H135.107C133.995 74.8955 133.44 75.3251 133.44 76.1842Z" fill="#02221F"/>
<path d="M142.505 74.2133H143.274V78.7399L147.075 74.2133H147.758V79.9094H146.989V75.3828L143.198 79.9094H142.505V74.2133Z" fill="#02221F"/>
<path d="M157.907 74.2133V79.9094H157.138V74.8955H153.564V79.9094H152.795V74.2133H157.907Z" fill="#02221F"/>
<path d="M162.442 79.9636C161.894 79.9636 161.399 79.8409 160.959 79.5954C160.518 79.3427 160.172 78.9962 159.919 78.5558C159.666 78.1154 159.54 77.6173 159.54 77.0613C159.54 76.5054 159.666 76.0073 159.919 75.5669C160.172 75.1265 160.518 74.7836 160.959 74.5381C161.399 74.2927 161.894 74.1699 162.442 74.1699C162.991 74.1699 163.486 74.2927 163.926 74.5381C164.366 74.7836 164.709 75.1265 164.955 75.5669C165.207 76.0073 165.334 76.5054 165.334 77.0613C165.334 77.6173 165.207 78.1154 164.955 78.5558C164.709 78.9962 164.366 79.3427 163.926 79.5954C163.486 79.8409 162.991 79.9636 162.442 79.9636ZM162.442 79.2813C162.847 79.2813 163.208 79.1911 163.525 79.0106C163.85 78.8229 164.103 78.5594 164.283 78.2201C164.464 77.8808 164.554 77.4945 164.554 77.0613C164.554 76.6282 164.464 76.2419 164.283 75.9026C164.103 75.5633 163.85 75.3034 163.525 75.1229C163.208 74.9352 162.847 74.8413 162.442 74.8413C162.038 74.8413 161.673 74.9352 161.349 75.1229C161.031 75.3034 160.778 75.5633 160.591 75.9026C160.41 76.2419 160.32 76.6282 160.32 77.0613C160.32 77.4945 160.41 77.8808 160.591 78.2201C160.778 78.5594 161.031 78.8229 161.349 79.0106C161.673 79.1911 162.038 79.2813 162.442 79.2813Z" fill="#02221F"/>
<path d="M171.602 74.2133V79.9094H170.833V74.8955H168.104L168.028 76.3033C167.97 77.4873 167.833 78.397 167.617 79.0323C167.4 79.6676 167.014 79.9853 166.458 79.9853C166.306 79.9853 166.122 79.9564 165.906 79.8986L165.96 79.238C166.09 79.2669 166.18 79.2813 166.231 79.2813C166.527 79.2813 166.75 79.1442 166.902 78.8698C167.054 78.5955 167.155 78.2562 167.205 77.8519C167.256 77.4476 167.299 76.9133 167.335 76.2492L167.433 74.2133H171.602Z" fill="#02221F"/>
<path d="M178.628 74.2133L175.78 80.5917C175.549 81.1259 175.282 81.505 174.979 81.7288C174.676 81.9526 174.311 82.0645 173.885 82.0645C173.611 82.0645 173.354 82.0212 173.116 81.9345C172.878 81.8479 172.672 81.7179 172.499 81.5447L172.856 80.9707C173.145 81.2595 173.492 81.4039 173.896 81.4039C174.156 81.4039 174.376 81.3317 174.556 81.1873C174.744 81.0429 174.917 80.7974 175.076 80.4509L175.325 79.8986L172.78 74.2133H173.582L175.726 79.0539L177.87 74.2133H178.628Z" fill="#02221F"/>
<path d="M184.125 74.2133V79.9094H183.357V77.5378C182.7 77.8266 182.053 77.971 181.418 77.971C180.732 77.971 180.198 77.8158 179.815 77.5053C179.433 77.1877 179.241 76.7148 179.241 76.0867V74.2133H180.01V76.0434C180.01 76.4693 180.147 76.7942 180.422 77.018C180.696 77.2346 181.075 77.3429 181.559 77.3429C182.093 77.3429 182.692 77.2021 183.357 76.9206V74.2133H184.125Z" fill="#02221F"/>
<path d="M188.269 74.1699C189.013 74.1699 189.583 74.3576 189.98 74.7331C190.377 75.1013 190.576 75.6499 190.576 76.3791V79.9094H189.839V79.0214C189.666 79.3174 189.41 79.5485 189.07 79.7145C188.738 79.8806 188.341 79.9636 187.879 79.9636C187.244 79.9636 186.739 79.812 186.363 79.5088C185.988 79.2055 185.8 78.8049 185.8 78.3067C185.8 77.823 185.973 77.4332 186.32 77.1372C186.674 76.8412 187.233 76.6932 187.998 76.6932H189.807V76.3466C189.807 75.8557 189.67 75.4839 189.395 75.2312C189.121 74.9713 188.72 74.8413 188.193 74.8413C187.832 74.8413 187.486 74.9027 187.154 75.0254C186.822 75.141 186.536 75.3034 186.298 75.5128L185.952 74.9388C186.24 74.6933 186.587 74.5056 186.991 74.3757C187.396 74.2385 187.821 74.1699 188.269 74.1699ZM187.998 79.3572C188.432 79.3572 188.803 79.2597 189.114 79.0648C189.424 78.8626 189.655 78.5738 189.807 78.1984V77.2671H188.02C187.045 77.2671 186.558 77.6064 186.558 78.2851C186.558 78.6172 186.684 78.8807 186.937 79.0756C187.19 79.2633 187.544 79.3572 187.998 79.3572Z" fill="#02221F"/>
<path d="M192.623 74.2133H193.391V78.7399L197.192 74.2133H197.875V79.9094H197.106V75.3828L193.316 79.9094H192.623V74.2133ZM195.211 73.3902C194.72 73.3902 194.33 73.2675 194.041 73.022C193.752 72.7766 193.604 72.43 193.597 71.9824H194.149C194.157 72.264 194.258 72.4914 194.453 72.6647C194.648 72.8307 194.9 72.9137 195.211 72.9137C195.521 72.9137 195.774 72.8307 195.969 72.6647C196.171 72.4914 196.276 72.264 196.283 71.9824H196.835C196.828 72.43 196.676 72.7766 196.38 73.022C196.091 73.2675 195.702 73.3902 195.211 73.3902Z" fill="#02221F"/>
<path d="M204.085 74.8955H201.93V79.9094H201.161V74.8955H199.006V74.2133H204.085V74.8955Z" fill="#02221F"/>
<path d="M209.914 77.2996H205.149C205.192 77.8916 205.42 78.3717 205.831 78.7399C206.243 79.1009 206.762 79.2813 207.391 79.2813C207.744 79.2813 208.069 79.22 208.365 79.0973C208.661 78.9673 208.918 78.7796 209.134 78.5341L209.567 79.0323C209.315 79.3355 208.997 79.5665 208.614 79.7253C208.239 79.8842 207.824 79.9636 207.369 79.9636C206.784 79.9636 206.264 79.8409 205.81 79.5954C205.362 79.3427 205.012 78.9962 204.759 78.5558C204.506 78.1154 204.38 77.6173 204.38 77.0613C204.38 76.5054 204.499 76.0073 204.737 75.5669C204.983 75.1265 205.315 74.7836 205.734 74.5381C206.16 74.2927 206.636 74.1699 207.163 74.1699C207.69 74.1699 208.163 74.2927 208.582 74.5381C209.001 74.7836 209.329 75.1265 209.567 75.5669C209.806 76.0001 209.925 76.4982 209.925 77.0613L209.914 77.2996ZM207.163 74.8305C206.614 74.8305 206.152 75.0074 205.777 75.3612C205.409 75.7077 205.199 76.1625 205.149 76.7256H209.188C209.138 76.1625 208.925 75.7077 208.549 75.3612C208.181 75.0074 207.719 74.8305 207.163 74.8305Z" fill="#02221F"/>
<path d="M219.356 79.9094L216.908 76.574L214.472 79.9094H213.551L216.432 76.0109L213.735 72.329H214.656L216.941 75.4261L219.215 72.329H220.081L217.396 75.9893L220.287 79.9094H219.356Z" fill="#02221F"/>
<path d="M224.281 72.329C225.249 72.329 226.007 72.56 226.555 73.022C227.104 73.4841 227.378 74.1194 227.378 74.928C227.378 75.7366 227.104 76.3719 226.555 76.8339C226.007 77.2888 225.249 77.5162 224.281 77.5162H222.245V79.9094H221.444V72.329H224.281ZM224.26 76.8123C225.01 76.8123 225.584 76.6498 225.981 76.325C226.378 75.9929 226.577 75.5272 226.577 74.928C226.577 74.3143 226.378 73.8451 225.981 73.5202C225.584 73.1881 225.01 73.022 224.26 73.022H222.245V76.8123H224.26Z" fill="#02221F"/>
<path d="M26.5515 168.368V162.412L26.9395 162.836H25.1256V162.051H27.4449V168.368H26.5515Z" fill="#0BA46B"/>
<path d="M30.9344 168.368L33.5605 164.785V165.48L31.0787 162.051H32.1075L34.0748 164.749L33.6687 164.758L35.627 162.051H36.6107L34.147 165.426V164.776L36.7731 168.368H35.7353L33.6417 165.489H34.0387L31.9722 168.368H30.9344Z" fill="#0BA46B"/>
<path d="M37.6252 168.368V162.051H40.0888C40.6423 162.051 41.1146 162.138 41.5057 162.313C41.8967 162.487 42.1975 162.74 42.4081 163.071C42.6187 163.402 42.7239 163.796 42.7239 164.253C42.7239 164.71 42.6187 165.104 42.4081 165.435C42.1975 165.76 41.8967 166.013 41.5057 166.193C41.1146 166.368 40.6423 166.455 40.0888 166.455H38.1215L38.5276 166.031V168.368H37.6252ZM38.5276 166.121L38.1215 165.67H40.0618C40.6393 165.67 41.0755 165.546 41.3703 165.3C41.6711 165.053 41.8215 164.704 41.8215 164.253C41.8215 163.802 41.6711 163.453 41.3703 163.206C41.0755 162.959 40.6393 162.836 40.0618 162.836H38.1215L38.5276 162.385V166.121Z" fill="#0BA46B"/>
<path fill-rule="evenodd" clip-rule="evenodd" d="M48.1793 155.97H20.3965C19.3997 155.97 18.5916 156.779 18.5916 157.775V172.637C18.5916 173.633 19.3997 174.441 20.3965 174.441H48.1793C49.1761 174.441 49.9842 173.633 49.9842 172.637V157.775C49.9842 156.779 49.1761 155.97 48.1793 155.97ZM20.3965 155.068C18.9013 155.068 17.6892 156.28 17.6892 157.775V172.637C17.6892 174.132 18.9013 175.344 20.3965 175.344H48.1793C49.6745 175.344 50.8866 174.132 50.8866 172.637V157.775C50.8866 156.28 49.6745 155.068 48.1793 155.068H20.3965Z" fill="#0BA46B"/>
<path d="M209.208 168.44C208.726 168.44 208.278 168.359 207.863 168.197C207.454 168.034 207.099 167.809 206.798 167.52C206.497 167.225 206.263 166.882 206.094 166.491C205.926 166.1 205.842 165.673 205.842 165.209C205.842 164.746 205.926 164.319 206.094 163.928C206.263 163.537 206.497 163.197 206.798 162.908C207.099 162.613 207.454 162.385 207.863 162.222C208.272 162.06 208.72 161.979 209.208 161.979C209.689 161.979 210.131 162.06 210.534 162.222C210.943 162.379 211.298 162.604 211.599 162.899C211.906 163.188 212.141 163.528 212.303 163.919C212.471 164.31 212.556 164.74 212.556 165.209C212.556 165.679 212.471 166.109 212.303 166.5C212.141 166.891 211.906 167.234 211.599 167.529C211.298 167.818 210.943 168.043 210.534 168.206C210.131 168.362 209.689 168.44 209.208 168.44ZM209.208 167.637C209.557 167.637 209.878 167.577 210.173 167.457C210.474 167.336 210.733 167.168 210.949 166.951C211.172 166.729 211.343 166.47 211.464 166.175C211.59 165.88 211.653 165.558 211.653 165.209C211.653 164.861 211.59 164.539 211.464 164.244C211.343 163.949 211.172 163.693 210.949 163.477C210.733 163.254 210.474 163.083 210.173 162.962C209.878 162.842 209.557 162.782 209.208 162.782C208.853 162.782 208.525 162.842 208.224 162.962C207.929 163.083 207.67 163.254 207.448 163.477C207.225 163.693 207.051 163.949 206.924 164.244C206.804 164.539 206.744 164.861 206.744 165.209C206.744 165.558 206.804 165.88 206.924 166.175C207.051 166.47 207.225 166.729 207.448 166.951C207.67 167.168 207.929 167.336 208.224 167.457C208.525 167.577 208.853 167.637 209.208 167.637Z" fill="#FC525A"/>
<path d="M213.935 168.368V162.051H214.675L218.853 167.24H218.465V162.051H219.368V168.368H218.628L214.449 163.179H214.837V168.368H213.935Z" fill="#FC525A"/>
<path d="M224.083 168.44C223.602 168.44 223.157 168.362 222.748 168.206C222.344 168.043 221.993 167.818 221.692 167.529C221.397 167.234 221.165 166.891 220.997 166.5C220.828 166.109 220.744 165.679 220.744 165.209C220.744 164.74 220.828 164.31 220.997 163.919C221.165 163.528 221.4 163.188 221.701 162.899C222.002 162.604 222.353 162.379 222.757 162.222C223.166 162.06 223.611 161.979 224.092 161.979C224.58 161.979 225.028 162.063 225.437 162.231C225.852 162.394 226.204 162.638 226.493 162.962L225.906 163.531C225.665 163.278 225.395 163.092 225.094 162.971C224.793 162.845 224.471 162.782 224.128 162.782C223.773 162.782 223.442 162.842 223.136 162.962C222.835 163.083 222.573 163.251 222.35 163.468C222.128 163.684 221.953 163.943 221.827 164.244C221.707 164.539 221.647 164.861 221.647 165.209C221.647 165.558 221.707 165.883 221.827 166.184C221.953 166.479 222.128 166.735 222.35 166.951C222.573 167.168 222.835 167.336 223.136 167.457C223.442 167.577 223.773 167.637 224.128 167.637C224.471 167.637 224.793 167.577 225.094 167.457C225.395 167.33 225.665 167.138 225.906 166.879L226.493 167.448C226.204 167.772 225.852 168.019 225.437 168.188C225.028 168.356 224.576 168.44 224.083 168.44Z" fill="#FC525A"/>
<path d="M228.601 164.776H231.85V165.543H228.601V164.776ZM228.682 167.583H232.364V168.368H227.78V162.051H232.238V162.836H228.682V167.583Z" fill="#FC525A"/>
<path fill-rule="evenodd" clip-rule="evenodd" d="M239.512 155.97H200.212C199.215 155.97 198.407 156.779 198.407 157.775V172.637C198.407 173.633 199.215 174.441 200.212 174.441H239.512C240.509 174.441 241.317 173.633 241.317 172.637V157.775C241.317 156.779 240.509 155.97 239.512 155.97ZM200.212 155.068C198.717 155.068 197.505 156.28 197.505 157.775V172.637C197.505 174.132 198.717 175.344 200.212 175.344H239.512C241.008 175.344 242.22 174.132 242.22 172.637V157.775C242.22 156.28 241.008 155.068 239.512 155.068H200.212Z" fill="#FC525A"/>
</svg>
