<svg width="240" height="163" viewBox="0 0 240 163" fill="none" xmlns="http://www.w3.org/2000/svg">
<rect x="21.5" y="1.5" width="217" height="145" rx="7.5" fill="#97EAF2" stroke="#02221F" stroke-width="3"/>
<rect x="1.5" y="16.8171" width="216.673" height="144.683" rx="7.5" fill="white" stroke="#02221F" stroke-width="3"/>
<path d="M21.9586 37.9063C22.5192 38.0993 22.9557 38.4026 23.2682 38.8161C23.5898 39.2205 23.7507 39.6938 23.7507 40.236C23.7507 40.8242 23.5577 41.3343 23.1717 41.7662C22.7857 42.1981 22.2618 42.529 21.6002 42.7588C20.9476 42.9885 20.2308 43.1034 19.4496 43.1034C18.7879 43.1034 18.1262 43.0207 17.4645 42.8552C16.812 42.6898 16.1917 42.4371 15.6035 42.0971L16.2928 40.498C16.7155 40.7553 17.1796 40.9529 17.6851 41.0907C18.1998 41.2194 18.7006 41.2837 19.1877 41.2837C19.8494 41.2837 20.3962 41.1642 20.8282 40.9253C21.2693 40.6864 21.4899 40.3509 21.4899 39.919C21.4899 39.5605 21.3382 39.2894 21.035 39.1056C20.7409 38.9218 20.3365 38.8299 19.8218 38.8299H17.4645V37.1481H19.6564C20.1067 37.1481 20.456 37.0562 20.7041 36.8724C20.9614 36.6886 21.0901 36.4359 21.0901 36.1142C21.0901 35.7374 20.9063 35.4433 20.5387 35.2319C20.1803 35.0206 19.7162 34.9149 19.1464 34.9149C18.7236 34.9149 18.2871 34.9746 17.8367 35.0941C17.3864 35.2044 16.9591 35.3744 16.5547 35.6041L15.8792 33.8672C16.8993 33.3433 18.0022 33.0814 19.1877 33.0814C19.9413 33.0814 20.6352 33.1917 21.2693 33.4123C21.9034 33.6328 22.4089 33.9545 22.7857 34.3772C23.1625 34.8 23.3509 35.2917 23.3509 35.8523C23.3509 36.3118 23.2268 36.7208 22.9787 37.0792C22.7306 37.4376 22.3905 37.7133 21.9586 37.9063Z" fill="#02221F"/>
<path d="M28.2344 35.4111C29.3831 35.4111 30.2654 35.6869 30.8812 36.2383C31.4969 36.7805 31.8048 37.603 31.8048 38.7059V42.938H29.7921V42.0143C29.3877 42.7036 28.6341 43.0482 27.5313 43.0482C26.9615 43.0482 26.4652 42.9517 26.0425 42.7588C25.6289 42.5658 25.3119 42.2992 25.0913 41.9592C24.8707 41.6192 24.7604 41.2332 24.7604 40.8012C24.7604 40.112 25.0178 39.5697 25.5324 39.1746C26.0563 38.7794 26.8604 38.5818 27.9449 38.5818H29.6543C29.6543 38.1131 29.5118 37.7547 29.2269 37.5065C28.942 37.2492 28.5147 37.1205 27.9449 37.1205C27.5497 37.1205 27.1591 37.1849 26.7731 37.3135C26.3963 37.433 26.0747 37.5984 25.8081 37.8098L25.0362 36.3072C25.4405 36.0223 25.923 35.8017 26.4836 35.6455C27.0534 35.4893 27.637 35.4111 28.2344 35.4111ZM28.0689 41.6008C28.4365 41.6008 28.7628 41.5181 29.0477 41.3526C29.3326 41.178 29.5348 40.9253 29.6543 40.5944V39.8363H28.1792C27.297 39.8363 26.8558 40.1257 26.8558 40.7047C26.8558 40.9804 26.9615 41.201 27.1729 41.3664C27.3935 41.5227 27.6921 41.6008 28.0689 41.6008Z" fill="#02221F"/>
<path d="M41.9855 41.1734V44.5371H39.9866V42.938H34.7757V44.5371H32.7769V41.1734H33.0801C33.5396 41.1642 33.8567 40.8931 34.0313 40.3601C34.2059 39.8271 34.3162 39.0689 34.3622 38.0855L34.4587 35.5214H40.924V41.1734H41.9855ZM36.3059 38.2371C36.2783 38.9907 36.2186 39.6065 36.1267 40.0844C36.044 40.5623 35.8832 40.9253 35.6442 41.1734H38.7735V37.286H36.3473L36.3059 38.2371Z" fill="#02221F"/>
<path d="M46.22 35.4111C47.3687 35.4111 48.251 35.6869 48.8668 36.2383C49.4825 36.7805 49.7904 37.603 49.7904 38.7059V42.938H47.7777V42.0143C47.3733 42.7036 46.6197 43.0482 45.5169 43.0482C44.9471 43.0482 44.4508 42.9517 44.0281 42.7588C43.6145 42.5658 43.2975 42.2992 43.0769 41.9592C42.8563 41.6192 42.746 41.2332 42.746 40.8012C42.746 40.112 43.0034 39.5697 43.518 39.1746C44.0419 38.7794 44.846 38.5818 45.9305 38.5818H47.6399C47.6399 38.1131 47.4974 37.7547 47.2125 37.5065C46.9276 37.2492 46.5003 37.1205 45.9305 37.1205C45.5353 37.1205 45.1447 37.1849 44.7587 37.3135C44.3819 37.433 44.0603 37.5984 43.7937 37.8098L43.0218 36.3072C43.4261 36.0223 43.9086 35.8017 44.4692 35.6455C45.039 35.4893 45.6226 35.4111 46.22 35.4111ZM46.0545 41.6008C46.4221 41.6008 46.7484 41.5181 47.0333 41.3526C47.3182 41.178 47.5204 40.9253 47.6399 40.5944V39.8363H46.1648C45.2826 39.8363 44.8414 40.1257 44.8414 40.7047C44.8414 40.9804 44.9471 41.201 45.1585 41.3664C45.3791 41.5227 45.6777 41.6008 46.0545 41.6008Z" fill="#02221F"/>
<path d="M51.6585 35.5214H53.7952V38.4164H57.021V35.5214H59.1715V42.938H57.021V40.1671H53.7952V42.938H51.6585V35.5214Z" fill="#02221F"/>
<path d="M61.2302 35.5214H63.3669V39.9328L66.9787 35.5214H68.95V42.938H66.8133V38.5266L63.2153 42.938H61.2302V35.5214Z" fill="#02221F"/>
<path d="M78.227 39.2573C78.227 39.2848 78.2132 39.4778 78.1856 39.8363H72.575C72.6761 40.2958 72.915 40.6588 73.2918 40.9253C73.6686 41.1918 74.1373 41.3251 74.6979 41.3251C75.0839 41.3251 75.424 41.2699 75.7181 41.1596C76.0213 41.0402 76.3016 40.8564 76.559 40.6082L77.7032 41.8489C77.0047 42.6485 75.9846 43.0482 74.6428 43.0482C73.8065 43.0482 73.0667 42.8874 72.4234 42.5658C71.78 42.2349 71.2838 41.78 70.9345 41.201C70.5853 40.622 70.4107 39.9649 70.4107 39.2297C70.4107 38.5037 70.5807 37.8512 70.9208 37.2722C71.27 36.684 71.7433 36.2291 72.3407 35.9074C72.9472 35.5766 73.6227 35.4111 74.3671 35.4111C75.0931 35.4111 75.7502 35.5674 76.3384 35.8799C76.9266 36.1923 77.3861 36.6426 77.7169 37.2308C78.057 37.8098 78.227 38.4853 78.227 39.2573ZM74.3809 37.0378C73.8938 37.0378 73.4848 37.1757 73.154 37.4514C72.8231 37.7271 72.621 38.1039 72.5474 38.5818H76.2006C76.127 38.1131 75.9248 37.7409 75.594 37.4652C75.2631 37.1803 74.8588 37.0378 74.3809 37.0378Z" fill="#02221F"/>
<path d="M87.0053 33.2882V42.938H84.772V35.0803H82.8421V33.2882H87.0053Z" fill="#02221F"/>
<path d="M20.1709 64.1028C20.6181 64.1947 20.9582 64.3755 21.191 64.645C21.4238 64.9085 21.5402 65.2547 21.5402 65.6835C21.5402 66.2411 21.3411 66.67 20.9429 66.9702C20.5507 67.2704 19.9718 67.4205 19.2059 67.4205H16.3569V60.9873H19.0313C19.7175 60.9873 20.2536 61.1282 20.6396 61.4101C21.0256 61.6919 21.2186 62.0993 21.2186 62.6324C21.2186 62.9939 21.1267 63.3002 20.9429 63.5514C20.7591 63.7965 20.5017 63.9803 20.1709 64.1028ZM17.0278 63.9006H18.9945C19.4908 63.9006 19.8707 63.7995 20.1341 63.5974C20.4037 63.3952 20.5385 63.1011 20.5385 62.7151C20.5385 62.3291 20.4037 62.035 20.1341 61.8328C19.8707 61.6306 19.4908 61.5295 18.9945 61.5295H17.0278V63.9006ZM19.2059 66.8783C20.3149 66.8783 20.8693 66.4647 20.8693 65.6376C20.8693 64.8288 20.3149 64.4245 19.2059 64.4245H17.0278V66.8783H19.2059Z" fill="#02221F"/>
<path d="M25.1155 64.2958C25.722 64.3019 26.1846 64.4367 26.5032 64.7002C26.8218 64.9636 26.9811 65.3435 26.9811 65.8398C26.9811 66.3544 26.8095 66.7496 26.4664 67.0253C26.1233 67.301 25.6332 67.4358 24.996 67.4297L23.0844 67.4205V62.5864H23.7369V64.2774L25.1155 64.2958ZM27.7898 62.5864H28.4423V67.4205H27.7898V62.5864ZM24.9592 66.9334C25.4065 66.9395 25.7435 66.8507 25.9701 66.6669C26.203 66.477 26.3194 66.2013 26.3194 65.8398C26.3194 65.4844 26.206 65.221 25.9793 65.0494C25.7526 64.8779 25.4126 64.789 24.9592 64.7829L23.7369 64.7645V66.915L24.9592 66.9334Z" fill="#02221F"/>
<path d="M34.638 62.5864V67.4205H33.9855V63.1654H30.9527V67.4205H30.3002V62.5864H34.638Z" fill="#02221F"/>
<path d="M38.4871 67.4665C38.0215 67.4665 37.6018 67.3623 37.2281 67.154C36.8543 66.9395 36.5602 66.6455 36.3458 66.2717C36.1314 65.898 36.0241 65.4752 36.0241 65.0035C36.0241 64.5317 36.1314 64.1089 36.3458 63.7352C36.5602 63.3615 36.8543 63.0704 37.2281 62.8621C37.6018 62.6538 38.0215 62.5497 38.4871 62.5497C38.9528 62.5497 39.3724 62.6538 39.7462 62.8621C40.1199 63.0704 40.4109 63.3615 40.6193 63.7352C40.8337 64.1089 40.9409 64.5317 40.9409 65.0035C40.9409 65.4752 40.8337 65.898 40.6193 66.2717C40.4109 66.6455 40.1199 66.9395 39.7462 67.154C39.3724 67.3623 38.9528 67.4665 38.4871 67.4665ZM38.4871 66.8875C38.8302 66.8875 39.1366 66.8109 39.4061 66.6577C39.6818 66.4984 39.8963 66.2748 40.0495 65.9868C40.2026 65.6989 40.2792 65.3711 40.2792 65.0035C40.2792 64.6359 40.2026 64.3081 40.0495 64.0201C39.8963 63.7321 39.6818 63.5116 39.4061 63.3584C39.1366 63.1991 38.8302 63.1195 38.4871 63.1195C38.144 63.1195 37.8346 63.1991 37.5589 63.3584C37.2893 63.5116 37.0749 63.7321 36.9156 64.0201C36.7624 64.3081 36.6858 64.6359 36.6858 65.0035C36.6858 65.3711 36.7624 65.6989 36.9156 65.9868C37.0749 66.2748 37.2893 66.4984 37.5589 66.6577C37.8346 66.8109 38.144 66.8875 38.4871 66.8875Z" fill="#02221F"/>
<path d="M46.2603 62.5864V67.4205H45.6078V63.1654H43.2919L43.2276 64.3601C43.1785 65.3649 43.0621 66.1369 42.8783 66.6761C42.6945 67.2152 42.3667 67.4848 41.895 67.4848C41.7663 67.4848 41.6101 67.4603 41.4263 67.4113L41.4722 66.8507C41.5825 66.8752 41.6591 66.8875 41.702 66.8875C41.9532 66.8875 42.1431 66.7711 42.2718 66.5382C42.4004 66.3054 42.4862 66.0175 42.5291 65.6744C42.572 65.3312 42.6088 64.8779 42.6394 64.3142L42.7221 62.5864H46.2603Z" fill="#02221F"/>
<path d="M48.1153 62.5864H48.7678V64.7278H51.8097V62.5864H52.4623V67.4205H51.8097V65.2884H48.7678V67.4205H48.1153V62.5864Z" fill="#02221F"/>
<path d="M58.0297 62.5864V67.4205H57.4324V65.8214H55.916H55.7322L54.611 67.4205H53.9033L55.1072 65.7295C54.7335 65.6253 54.4455 65.4477 54.2434 65.1965C54.0412 64.9453 53.9401 64.6267 53.9401 64.2407C53.9401 63.7015 54.1239 63.291 54.4915 63.0092C54.8591 62.7273 55.3615 62.5864 55.9987 62.5864H58.0297ZM54.6018 64.2591C54.6018 64.9759 55.0582 65.3343 55.9711 65.3343H57.4324V63.1654H56.0171C55.0735 63.1654 54.6018 63.53 54.6018 64.2591Z" fill="#02221F"/>
<path d="M59.8903 62.5864H60.5428V66.428L63.7686 62.5864H64.3475V67.4205H63.695V63.579L60.4784 67.4205H59.8903V62.5864ZM62.0867 61.888C61.6701 61.888 61.3393 61.7838 61.0942 61.5755C60.8491 61.3672 60.7235 61.0731 60.7174 60.6932H61.1861C61.1922 60.9322 61.278 61.1252 61.4434 61.2722C61.6088 61.4131 61.8233 61.4836 62.0867 61.4836C62.3502 61.4836 62.5646 61.4131 62.7301 61.2722C62.9016 61.1252 62.9904 60.9322 62.9966 60.6932H63.4653C63.4591 61.0731 63.3305 61.3672 63.0793 61.5755C62.8342 61.7838 62.5034 61.888 62.0867 61.888Z" fill="#02221F"/>
<path d="M69.6179 63.1654H67.7891V67.4205H67.1366V63.1654H65.3077V62.5864H69.6179V63.1654Z" fill="#02221F"/>
<path d="M74.5645 65.2056H70.5208C70.5576 65.708 70.7506 66.1155 71.0998 66.428C71.449 66.7343 71.8901 66.8875 72.4232 66.8875C72.7234 66.8875 72.9991 66.8354 73.2503 66.7312C73.5015 66.6209 73.719 66.4616 73.9028 66.2533L74.2704 66.6761C74.056 66.9334 73.7864 67.1295 73.4617 67.2643C73.1431 67.3991 72.7908 67.4665 72.4048 67.4665C71.9085 67.4665 71.4674 67.3623 71.0814 67.154C70.7015 66.9395 70.4044 66.6455 70.1899 66.2717C69.9755 65.898 69.8683 65.4752 69.8683 65.0035C69.8683 64.5317 69.9694 64.1089 70.1716 63.7352C70.3799 63.3615 70.6617 63.0704 71.0171 62.8621C71.3786 62.6538 71.7829 62.5497 72.2302 62.5497C72.6774 62.5497 73.0787 62.6538 73.4341 62.8621C73.7895 63.0704 74.0682 63.3615 74.2704 63.7352C74.4726 64.1028 74.5737 64.5256 74.5737 65.0035L74.5645 65.2056ZM72.2302 63.1103C71.7645 63.1103 71.3724 63.2604 71.0538 63.5606C70.7414 63.8547 70.5637 64.2407 70.5208 64.7186H73.9488C73.9059 64.2407 73.7251 63.8547 73.4065 63.5606C73.0941 63.2604 72.7019 63.1103 72.2302 63.1103Z" fill="#02221F"/>
<path d="M80.776 64.9024C81.1191 64.982 81.3826 65.1199 81.5664 65.3159C81.7563 65.512 81.8513 65.7509 81.8513 66.0328C81.8513 66.3146 81.7533 66.5658 81.5572 66.7864C81.3673 67.0069 81.1069 67.1785 80.776 67.301C80.4452 67.4174 80.0806 67.4756 79.6824 67.4756C79.3332 67.4756 78.9901 67.4266 78.6531 67.3286C78.3161 67.2244 78.022 67.0743 77.7708 66.8783L77.9914 66.3912C78.212 66.5566 78.4693 66.6853 78.7634 66.7772C79.0575 66.8691 79.3546 66.915 79.6548 66.915C80.1021 66.915 80.4666 66.8323 80.7485 66.6669C81.0364 66.4953 81.1804 66.2656 81.1804 65.9776C81.1804 65.7203 81.064 65.5212 80.8312 65.3803C80.5984 65.2332 80.2798 65.1597 79.8754 65.1597H79.0483V64.6818H79.8386C80.2001 64.6818 80.4911 64.6144 80.7117 64.4796C80.9323 64.3387 81.0426 64.1518 81.0426 63.919C81.0426 63.6617 80.917 63.4595 80.6658 63.3125C80.4207 63.1654 80.099 63.0919 79.7008 63.0919C79.18 63.0919 78.6653 63.2236 78.1568 63.4871L77.973 62.9816C78.5489 62.6814 79.1463 62.5313 79.7651 62.5313C80.1327 62.5313 80.4636 62.5864 80.7577 62.6967C81.0579 62.8009 81.2907 62.951 81.4561 63.147C81.6277 63.3431 81.7134 63.5698 81.7134 63.8271C81.7134 64.0722 81.6277 64.2897 81.4561 64.4796C81.2907 64.6696 81.064 64.8105 80.776 64.9024Z" fill="#02221F"/>
<path d="M84.996 62.5497C85.6271 62.5497 86.1111 62.709 86.4481 63.0276C86.785 63.34 86.9535 63.8057 86.9535 64.4245V67.4205H86.3286V66.6669C86.1815 66.9181 85.964 67.1142 85.6761 67.2551C85.3943 67.396 85.0573 67.4665 84.6652 67.4665C84.126 67.4665 83.6971 67.3378 83.3785 67.0805C83.0599 66.8231 82.9006 66.4831 82.9006 66.0603C82.9006 65.6498 83.0477 65.319 83.3418 65.0678C83.642 64.8166 84.1168 64.691 84.7663 64.691H86.301V64.3969C86.301 63.9803 86.1846 63.6648 85.9518 63.4503C85.719 63.2297 85.3789 63.1195 84.9317 63.1195C84.6253 63.1195 84.3312 63.1715 84.0494 63.2757C83.7676 63.3737 83.5256 63.5116 83.3234 63.6893L83.0293 63.2022C83.2744 62.9939 83.5685 62.8346 83.9116 62.7243C84.2547 62.6079 84.6161 62.5497 84.996 62.5497ZM84.7663 66.9518C85.1339 66.9518 85.4494 66.8691 85.7128 66.7037C85.9763 66.5321 86.1724 66.287 86.301 65.9684V65.1781H84.7846C83.9575 65.1781 83.5439 65.466 83.5439 66.042C83.5439 66.3238 83.6512 66.5474 83.8656 66.7128C84.08 66.8721 84.3803 66.9518 84.7663 66.9518Z" fill="#02221F"/>
<path d="M93.4052 66.8507V68.5877H92.7894V67.4205H88.4608V68.5877H87.8451V66.8507H88.1208C88.4455 66.8323 88.6661 66.5934 88.7825 66.1339C88.8989 65.6744 88.9785 65.031 89.0214 64.2039L89.0857 62.5864H92.6516V66.8507H93.4052ZM89.6188 64.2407C89.5881 64.9269 89.5299 65.4936 89.4442 65.9409C89.3584 66.382 89.2052 66.6853 88.9846 66.8507H91.999V63.1654H89.6739L89.6188 64.2407Z" fill="#02221F"/>
<path d="M96.3402 62.5497C96.9713 62.5497 97.4553 62.709 97.7923 63.0276C98.1293 63.34 98.2977 63.8057 98.2977 64.4245V67.4205H97.6728V66.6669C97.5258 66.9181 97.3083 67.1142 97.0203 67.2551C96.7385 67.396 96.4015 67.4665 96.0094 67.4665C95.4702 67.4665 95.0413 67.3378 94.7227 67.0805C94.4041 66.8231 94.2448 66.4831 94.2448 66.0603C94.2448 65.6498 94.3919 65.319 94.686 65.0678C94.9862 64.8166 95.461 64.691 96.1105 64.691H97.6452V64.3969C97.6452 63.9803 97.5288 63.6648 97.296 63.4503C97.0632 63.2297 96.7231 63.1195 96.2759 63.1195C95.9695 63.1195 95.6755 63.1715 95.3936 63.2757C95.1118 63.3737 94.8698 63.5116 94.6676 63.6893L94.3735 63.2022C94.6186 62.9939 94.9127 62.8346 95.2558 62.7243C95.5989 62.6079 95.9604 62.5497 96.3402 62.5497ZM96.1105 66.9518C96.4781 66.9518 96.7936 66.8691 97.0571 66.7037C97.3205 66.5321 97.5166 66.287 97.6452 65.9684V65.1781H96.1288C95.3017 65.1781 94.8882 65.466 94.8882 66.042C94.8882 66.3238 94.9954 66.5474 95.2098 66.7128C95.4243 66.8721 95.7245 66.9518 96.1105 66.9518Z" fill="#02221F"/>
<path d="M100.035 62.5864H100.687V64.7278H103.729V62.5864H104.382V67.4205H103.729V65.2884H100.687V67.4205H100.035V62.5864Z" fill="#02221F"/>
<path d="M106.236 62.5864H106.889V66.428L110.115 62.5864H110.694V67.4205H110.041V63.579L106.825 67.4205H106.236V62.5864Z" fill="#02221F"/>
<path d="M116.277 62.5864V67.4205H115.679V65.8214H114.163H113.979L112.858 67.4205H112.15L113.354 65.7295C112.98 65.6253 112.692 65.4477 112.49 65.1965C112.288 64.9453 112.187 64.6267 112.187 64.2407C112.187 63.7015 112.371 63.291 112.738 63.0092C113.106 62.7273 113.608 62.5864 114.245 62.5864H116.277ZM112.849 64.2591C112.849 64.9759 113.305 65.3343 114.218 65.3343H115.679V63.1654H114.264C113.32 63.1654 112.849 63.53 112.849 64.2591Z" fill="#02221F"/>
<path d="M120.542 62.5864H121.195V66.428L124.421 62.5864H125V67.4205H124.347V63.579L121.13 67.4205H120.542V62.5864Z" fill="#02221F"/>
<path d="M133.613 62.5864V67.4205H132.96V63.1654H129.927V67.4205H129.275V62.5864H133.613Z" fill="#02221F"/>
<path d="M137.462 67.4665C136.996 67.4665 136.576 67.3623 136.203 67.154C135.829 66.9395 135.535 66.6455 135.32 66.2717C135.106 65.898 134.999 65.4752 134.999 65.0035C134.999 64.5317 135.106 64.1089 135.32 63.7352C135.535 63.3615 135.829 63.0704 136.203 62.8621C136.576 62.6538 136.996 62.5497 137.462 62.5497C137.927 62.5497 138.347 62.6538 138.721 62.8621C139.095 63.0704 139.386 63.3615 139.594 63.7352C139.808 64.1089 139.916 64.5317 139.916 65.0035C139.916 65.4752 139.808 65.898 139.594 66.2717C139.386 66.6455 139.095 66.9395 138.721 67.154C138.347 67.3623 137.927 67.4665 137.462 67.4665ZM137.462 66.8875C137.805 66.8875 138.111 66.8109 138.381 66.6577C138.656 66.4984 138.871 66.2748 139.024 65.9868C139.177 65.6989 139.254 65.3711 139.254 65.0035C139.254 64.6359 139.177 64.3081 139.024 64.0201C138.871 63.7321 138.656 63.5116 138.381 63.3584C138.111 63.1991 137.805 63.1195 137.462 63.1195C137.119 63.1195 136.809 63.1991 136.534 63.3584C136.264 63.5116 136.05 63.7321 135.89 64.0201C135.737 64.3081 135.66 64.6359 135.66 65.0035C135.66 65.3711 135.737 65.6989 135.89 65.9868C136.05 66.2748 136.264 66.4984 136.534 66.6577C136.809 66.8109 137.119 66.8875 137.462 66.8875Z" fill="#02221F"/>
<path d="M145.235 62.5864V67.4205H144.582V63.1654H142.267L142.202 64.3601C142.153 65.3649 142.037 66.1369 141.853 66.6761C141.669 67.2152 141.341 67.4848 140.87 67.4848C140.741 67.4848 140.585 67.4603 140.401 67.4113L140.447 66.8507C140.557 66.8752 140.634 66.8875 140.677 66.8875C140.928 66.8875 141.118 66.7711 141.246 66.5382C141.375 66.3054 141.461 66.0175 141.504 65.6744C141.547 65.3312 141.583 64.8779 141.614 64.3142L141.697 62.5864H145.235Z" fill="#02221F"/>
<path d="M151.198 62.5864L148.781 67.9995C148.585 68.4529 148.358 68.7745 148.101 68.9645C147.844 69.1544 147.534 69.2494 147.173 69.2494C146.94 69.2494 146.722 69.2126 146.52 69.1391C146.318 69.0656 146.143 68.9553 145.996 68.8082L146.3 68.3211C146.545 68.5662 146.839 68.6888 147.182 68.6888C147.402 68.6888 147.589 68.6275 147.742 68.5049C147.902 68.3824 148.049 68.1741 148.184 67.88L148.395 67.4113L146.235 62.5864H146.915L148.735 66.6945L150.555 62.5864H151.198Z" fill="#02221F"/>
<path d="M155.863 62.5864V67.4205H155.211V65.4078C154.653 65.6529 154.105 65.7754 153.566 65.7754C152.983 65.7754 152.53 65.6437 152.205 65.3803C151.881 65.1107 151.718 64.7094 151.718 64.1763V62.5864H152.371V64.1396C152.371 64.5011 152.487 64.7768 152.72 64.9667C152.953 65.1505 153.274 65.2424 153.685 65.2424C154.138 65.2424 154.647 65.1229 155.211 64.884V62.5864H155.863Z" fill="#02221F"/>
<path d="M159.38 62.5497C160.011 62.5497 160.495 62.709 160.832 63.0276C161.169 63.34 161.337 63.8057 161.337 64.4245V67.4205H160.712V66.6669C160.565 66.9181 160.348 67.1142 160.06 67.2551C159.778 67.396 159.441 67.4665 159.049 67.4665C158.51 67.4665 158.081 67.3378 157.762 67.0805C157.443 66.8231 157.284 66.4831 157.284 66.0603C157.284 65.6498 157.431 65.319 157.725 65.0678C158.026 64.8166 158.5 64.691 159.15 64.691H160.685V64.3969C160.685 63.9803 160.568 63.6648 160.335 63.4503C160.103 63.2297 159.762 63.1195 159.315 63.1195C159.009 63.1195 158.715 63.1715 158.433 63.2757C158.151 63.3737 157.909 63.5116 157.707 63.6893L157.413 63.2022C157.658 62.9939 157.952 62.8346 158.295 62.7243C158.638 62.6079 159 62.5497 159.38 62.5497ZM159.15 66.9518C159.517 66.9518 159.833 66.8691 160.096 66.7037C160.36 66.5321 160.556 66.287 160.685 65.9684V65.1781H159.168C158.341 65.1781 157.928 65.466 157.928 66.042C157.928 66.3238 158.035 66.5474 158.249 66.7128C158.464 66.8721 158.764 66.9518 159.15 66.9518Z" fill="#02221F"/>
<path d="M163.074 62.5864H163.727V66.428L166.952 62.5864H167.531V67.4205H166.879V63.579L163.662 67.4205H163.074V62.5864ZM165.271 61.888C164.854 61.888 164.523 61.7838 164.278 61.5755C164.033 61.3672 163.907 61.0731 163.901 60.6932H164.37C164.376 60.9322 164.462 61.1252 164.627 61.2722C164.793 61.4131 165.007 61.4836 165.271 61.4836C165.534 61.4836 165.748 61.4131 165.914 61.2722C166.085 61.1252 166.174 60.9322 166.18 60.6932H166.649C166.643 61.0731 166.514 61.3672 166.263 61.5755C166.018 61.7838 165.687 61.888 165.271 61.888Z" fill="#02221F"/>
<path d="M172.802 63.1654H170.973V67.4205H170.32V63.1654H168.492V62.5864H172.802V63.1654Z" fill="#02221F"/>
<path d="M177.748 65.2056H173.705C173.741 65.708 173.934 66.1155 174.284 66.428C174.633 66.7343 175.074 66.8875 175.607 66.8875C175.907 66.8875 176.183 66.8354 176.434 66.7312C176.685 66.6209 176.903 66.4616 177.087 66.2533L177.454 66.6761C177.24 66.9334 176.97 67.1295 176.646 67.2643C176.327 67.3991 175.975 67.4665 175.589 67.4665C175.092 67.4665 174.651 67.3623 174.265 67.154C173.885 66.9395 173.588 66.6455 173.374 66.2717C173.159 65.898 173.052 65.4752 173.052 65.0035C173.052 64.5317 173.153 64.1089 173.355 63.7352C173.564 63.3615 173.846 63.0704 174.201 62.8621C174.562 62.6538 174.967 62.5497 175.414 62.5497C175.861 62.5497 176.263 62.6538 176.618 62.8621C176.973 63.0704 177.252 63.3615 177.454 63.7352C177.656 64.1028 177.758 64.5256 177.758 65.0035L177.748 65.2056ZM175.414 63.1103C174.948 63.1103 174.556 63.2604 174.238 63.5606C173.925 63.8547 173.748 64.2407 173.705 64.7186H177.133C177.09 64.2407 176.909 63.8547 176.59 63.5606C176.278 63.2604 175.886 63.1103 175.414 63.1103Z" fill="#02221F"/>
<path d="M185.761 67.4205L183.684 64.5899L181.616 67.4205H180.835L183.28 64.112L180.991 60.9873H181.773L183.712 63.6157L185.642 60.9873H186.377L184.098 64.0936L186.552 67.4205H185.761Z" fill="#02221F"/>
<path d="M189.941 60.9873C190.762 60.9873 191.406 61.1834 191.871 61.5755C192.337 61.9676 192.57 62.5068 192.57 63.193C192.57 63.8792 192.337 64.4184 191.871 64.8105C191.406 65.1965 190.762 65.3895 189.941 65.3895H188.213V67.4205H187.533V60.9873H189.941ZM189.923 64.7921C190.56 64.7921 191.047 64.6542 191.384 64.3785C191.721 64.0967 191.89 63.7015 191.89 63.193C191.89 62.6722 191.721 62.274 191.384 61.9983C191.047 61.7164 190.56 61.5755 189.923 61.5755H188.213V64.7921H189.923Z" fill="#02221F"/>
<path d="M22.1383 142.491V137.436L22.4676 137.796H20.9282V137.13H22.8965V142.491H22.1383Z" fill="#0BA46B"/>
<path d="M25.8578 142.491L28.0864 139.45V140.04L25.9803 137.13H26.8534L28.523 139.42L28.1783 139.427L29.8402 137.13H30.675L28.5842 139.994V139.443L30.8129 142.491H29.9322L28.1554 140.048H28.4923L26.7385 142.491H25.8578Z" fill="#0BA46B"/>
<path d="M31.536 142.491V137.13H33.6267C34.0965 137.13 34.4973 137.204 34.8291 137.352C35.161 137.5 35.4163 137.714 35.595 137.995C35.7737 138.276 35.863 138.611 35.863 138.999C35.863 139.387 35.7737 139.721 35.595 140.002C35.4163 140.278 35.161 140.492 34.8291 140.645C34.4973 140.793 34.0965 140.867 33.6267 140.867H31.9572L32.3018 140.507V142.491H31.536ZM32.3018 140.584L31.9572 140.201H33.6038C34.0939 140.201 34.4641 140.096 34.7143 139.887C34.9695 139.678 35.0972 139.381 35.0972 138.999C35.0972 138.616 34.9695 138.32 34.7143 138.11C34.4641 137.901 34.0939 137.796 33.6038 137.796H31.9572L32.3018 137.413V140.584Z" fill="#0BA46B"/>
<path fill-rule="evenodd" clip-rule="evenodd" d="M40.4926 131.97H16.9147C16.0688 131.97 15.383 132.655 15.383 133.501V146.113C15.383 146.959 16.0688 147.645 16.9147 147.645H40.4926C41.3385 147.645 42.0243 146.959 42.0243 146.113V133.501C42.0243 132.655 41.3385 131.97 40.4926 131.97ZM16.9147 131.204C15.6458 131.204 14.6172 132.232 14.6172 133.501V146.113C14.6172 147.382 15.6458 148.411 16.9147 148.411H40.4926C41.7615 148.411 42.7902 147.382 42.7902 146.113V133.501C42.7902 132.232 41.7615 131.204 40.4926 131.204H16.9147Z" fill="#0BA46B"/>
<path d="M177.149 142.552C176.74 142.552 176.36 142.483 176.008 142.345C175.66 142.207 175.359 142.016 175.104 141.771C174.849 141.521 174.649 141.23 174.506 140.898C174.363 140.566 174.292 140.203 174.292 139.81C174.292 139.417 174.363 139.055 174.506 138.723C174.649 138.391 174.849 138.103 175.104 137.857C175.359 137.607 175.66 137.413 176.008 137.275C176.355 137.138 176.735 137.069 177.149 137.069C177.557 137.069 177.932 137.138 178.274 137.275C178.622 137.408 178.923 137.6 179.178 137.85C179.439 138.095 179.638 138.383 179.776 138.715C179.918 139.047 179.99 139.412 179.99 139.81C179.99 140.209 179.918 140.574 179.776 140.906C179.638 141.237 179.439 141.528 179.178 141.779C178.923 142.024 178.622 142.215 178.274 142.353C177.932 142.486 177.557 142.552 177.149 142.552ZM177.149 141.871C177.445 141.871 177.718 141.819 177.968 141.717C178.223 141.615 178.443 141.472 178.627 141.288C178.816 141.1 178.961 140.88 179.063 140.63C179.17 140.38 179.224 140.106 179.224 139.81C179.224 139.514 179.17 139.241 179.063 138.991C178.961 138.741 178.816 138.524 178.627 138.34C178.443 138.151 178.223 138.005 177.968 137.903C177.718 137.801 177.445 137.75 177.149 137.75C176.847 137.75 176.569 137.801 176.314 137.903C176.064 138.005 175.844 138.151 175.655 138.34C175.466 138.524 175.318 138.741 175.211 138.991C175.109 139.241 175.058 139.514 175.058 139.81C175.058 140.106 175.109 140.38 175.211 140.63C175.318 140.88 175.466 141.1 175.655 141.288C175.844 141.472 176.064 141.615 176.314 141.717C176.569 141.819 176.847 141.871 177.149 141.871Z" fill="#FC525A"/>
<path d="M181.161 142.491V137.13H181.789L185.334 141.534H185.005V137.13H185.771V142.491H185.143L181.597 138.087H181.926V142.491H181.161Z" fill="#FC525A"/>
<path d="M189.773 142.552C189.364 142.552 188.986 142.486 188.639 142.353C188.297 142.215 187.998 142.024 187.743 141.779C187.493 141.528 187.296 141.237 187.153 140.906C187.011 140.574 186.939 140.209 186.939 139.81C186.939 139.412 187.011 139.047 187.153 138.715C187.296 138.383 187.496 138.095 187.751 137.85C188.006 137.6 188.305 137.408 188.647 137.275C188.994 137.138 189.372 137.069 189.78 137.069C190.194 137.069 190.574 137.14 190.921 137.283C191.274 137.421 191.572 137.628 191.818 137.903L191.32 138.386C191.116 138.171 190.886 138.013 190.63 137.911C190.375 137.804 190.102 137.75 189.811 137.75C189.51 137.75 189.229 137.801 188.969 137.903C188.713 138.005 188.491 138.148 188.302 138.332C188.113 138.516 187.965 138.736 187.858 138.991C187.756 139.241 187.705 139.514 187.705 139.81C187.705 140.106 187.756 140.382 187.858 140.637C187.965 140.888 188.113 141.105 188.302 141.288C188.491 141.472 188.713 141.615 188.969 141.717C189.229 141.819 189.51 141.871 189.811 141.871C190.102 141.871 190.375 141.819 190.63 141.717C190.886 141.61 191.116 141.447 191.32 141.227L191.818 141.71C191.572 141.985 191.274 142.195 190.921 142.338C190.574 142.481 190.191 142.552 189.773 142.552Z" fill="#FC525A"/>
<path d="M193.607 139.443H196.364V140.094H193.607V139.443ZM193.676 141.825H196.801V142.491H192.91V137.13H196.693V137.796H193.676V141.825Z" fill="#FC525A"/>
<path fill-rule="evenodd" clip-rule="evenodd" d="M202.867 131.97H169.515C168.669 131.97 167.984 132.655 167.984 133.501V146.113C167.984 146.959 168.669 147.645 169.515 147.645H202.867C203.713 147.645 204.399 146.959 204.399 146.113V133.501C204.399 132.655 203.713 131.97 202.867 131.97ZM169.515 131.204C168.246 131.204 167.218 132.232 167.218 133.501V146.113C167.218 147.382 168.246 148.411 169.515 148.411H202.867C204.136 148.411 205.165 147.382 205.165 146.113V133.501C205.165 132.232 204.136 131.204 202.867 131.204H169.515Z" fill="#FC525A"/>
</svg>
