<svg width="194" height="159" viewBox="0 0 194 159" fill="none" xmlns="http://www.w3.org/2000/svg">
<mask id="path-1-outside-1_201_39" maskUnits="userSpaceOnUse" x="-5.06716" y="-4.29257" width="203.305" height="167.816" fill="black">
<rect fill="white" x="-5.06716" y="-4.29257" width="203.305" height="167.816"/>
<path fill-rule="evenodd" clip-rule="evenodd" d="M33.0837 13.3296C36.9143 6.61319 45.46 4.28115 52.1712 8.12085L179.907 81.2024C186.618 85.0421 188.953 93.5995 185.123 100.316L178.156 112.53C172.873 110.989 166.992 113.26 164.1 118.331C161.207 123.402 162.242 129.629 166.251 133.405L159.473 145.289C155.643 152.006 147.097 154.338 140.386 150.498L12.6505 77.4163C5.93933 73.5766 3.60409 65.0192 7.43462 58.3027L14.2124 46.4186C19.4962 47.9598 25.3773 45.6891 28.2695 40.618C31.1617 35.5469 30.1271 29.3196 26.1177 25.5439L33.0837 13.3296Z"/>
</mask>
<path fill-rule="evenodd" clip-rule="evenodd" d="M33.0837 13.3296C36.9143 6.61319 45.46 4.28115 52.1712 8.12085L179.907 81.2024C186.618 85.0421 188.953 93.5995 185.123 100.316L178.156 112.53C172.873 110.989 166.992 113.26 164.1 118.331C161.207 123.402 162.242 129.629 166.251 133.405L159.473 145.289C155.643 152.006 147.097 154.338 140.386 150.498L12.6505 77.4163C5.93933 73.5766 3.60409 65.0192 7.43462 58.3027L14.2124 46.4186C19.4962 47.9598 25.3773 45.6891 28.2695 40.618C31.1617 35.5469 30.1271 29.3196 26.1177 25.5439L33.0837 13.3296Z" fill="#FCC155"/>
<path d="M185.123 100.316L188.594 102.302L185.123 100.316ZM178.156 112.53L177.041 116.373L180.066 117.255L181.628 114.517L178.156 112.53ZM166.251 133.405L169.723 135.391L171.285 132.653L168.989 130.49L166.251 133.405ZM140.386 150.498L142.368 147.023L140.386 150.498ZM14.2124 46.4186L15.3282 42.576L12.3024 41.6934L10.7405 44.4322L14.2124 46.4186ZM26.1177 25.5439L22.6458 23.5575L21.0838 26.2962L23.3798 28.4583L26.1177 25.5439ZM54.1529 4.64622C45.5242 -0.290532 34.5368 2.70781 29.6118 11.3432L36.5557 15.316C39.2918 10.5186 45.3959 8.85283 50.1896 11.5955L54.1529 4.64622ZM181.888 77.7278L54.1529 4.64622L50.1896 11.5955L177.925 84.677L181.888 77.7278ZM188.594 102.302C193.519 93.667 190.517 82.6645 181.888 77.7278L177.925 84.677C182.719 87.4197 184.387 93.5321 181.651 98.3296L188.594 102.302ZM181.628 114.517L188.594 102.302L181.651 98.3296L174.685 110.544L181.628 114.517ZM167.571 120.317C169.548 116.851 173.533 115.35 177.041 116.373L179.272 108.688C172.213 106.629 164.435 109.668 160.628 116.344L167.571 120.317ZM168.989 130.49C166.327 127.984 165.595 123.783 167.571 120.317L160.628 116.344C156.82 123.021 158.156 131.275 163.513 136.319L168.989 130.49ZM162.945 147.275L169.723 135.391L162.779 131.418L156.001 143.303L162.945 147.275ZM138.404 153.972C147.033 158.909 158.02 155.911 162.945 147.275L156.001 143.303C153.265 148.1 147.161 149.766 142.368 147.023L138.404 153.972ZM10.6689 80.8909L138.404 153.972L142.368 147.023L14.6322 73.9417L10.6689 80.8909ZM3.96271 56.3163C-0.962265 64.9517 2.04018 75.9542 10.6689 80.8909L14.6322 73.9417C9.83848 71.199 8.17045 65.0866 10.9065 60.2891L3.96271 56.3163ZM10.7405 44.4322L3.96271 56.3163L10.9065 60.2891L17.6843 48.405L10.7405 44.4322ZM24.7976 38.6316C22.8209 42.0975 18.8361 43.5993 15.3282 42.576L13.0967 50.2611C20.1563 52.3203 27.9338 49.2807 31.7414 42.6044L24.7976 38.6316ZM23.3798 28.4583C26.0416 30.965 26.7743 35.1657 24.7976 38.6316L31.7414 42.6044C35.5491 35.9281 34.2126 27.6742 28.8556 22.6294L23.3798 28.4583ZM29.6118 11.3432L22.6458 23.5575L29.5896 27.5303L36.5557 15.316L29.6118 11.3432Z" fill="#02221F" mask="url(#path-1-outside-1_201_39)"/>
<path d="M74.5777 65.4341L77.4936 86.3596L66.412 80.0194L65.2533 69.2103L55.3304 73.6793L44.2488 67.3391L63.7262 59.2256L60.7931 39.2221L71.8747 45.5622L73.0444 55.5494L82.1894 51.4636L93.271 57.8038L74.5777 65.4341Z" fill="white"/>
<path d="M114.602 70.0598C119.689 72.9703 122.703 75.9196 123.643 78.9079C124.598 81.8701 124.126 85.0166 122.227 88.3472C120.921 90.637 119.411 92.3619 117.699 93.5218C116.001 94.6556 113.896 95.1075 111.382 94.8775C108.884 94.6214 105.884 93.4915 102.381 91.4878L94.4057 86.9246L90.4879 93.7941L81.0551 88.3973C84.1386 83.4663 86.9344 78.802 89.4424 74.4046C91.9503 70.0071 94.5416 65.2258 97.216 60.0608L106.649 65.4576L106.627 65.4967L114.602 70.0598ZM103.994 82.4191C106.115 83.6331 107.745 84.4618 108.882 84.9053C110.059 85.3374 110.979 85.4493 111.64 85.241C112.327 85.0473 112.915 84.5211 113.405 83.6624C113.895 82.8037 114.054 82.0492 113.882 81.3988C113.751 80.7371 113.193 80.021 112.208 79.2507C111.249 78.4949 109.683 77.4954 107.511 76.2523L102.219 73.2248L98.7019 79.3917L103.994 82.4191Z" fill="white"/>
<path d="M163.171 70.0778L123.319 141.894" stroke="#02221F" stroke-width="4"/>
</svg>
