<svg width="132" height="109" viewBox="0 0 132 109" fill="none" xmlns="http://www.w3.org/2000/svg">
<mask id="path-2-outside-1_96_1173" maskUnits="userSpaceOnUse" x="-2.51313" y="-1.90434" width="137.727" height="113.326" fill="black">
<rect fill="white" x="-2.51313" y="-1.90434" width="137.727" height="113.326"/>
<path fill-rule="evenodd" clip-rule="evenodd" d="M20.5337 12.9732C24.3565 6.2523 32.8923 3.92297 39.599 7.7705L119.618 53.6759C126.325 57.5234 128.663 66.0908 124.84 72.8117L122.224 77.4105C118.599 76.3501 114.564 77.9121 112.58 81.4006C110.596 84.8892 111.306 89.1732 114.057 91.7705L111.57 96.142C107.747 102.863 99.2116 105.192 92.5049 101.345L12.4858 55.4393C5.77907 51.5918 3.44112 43.0244 7.26385 36.3035L9.75039 31.9318C13.3752 32.9918 17.4098 31.4298 19.3939 27.9415C21.3779 24.4532 20.6683 20.1695 17.9179 17.5722L20.5337 12.9732Z"/>
</mask>
<path fill-rule="evenodd" clip-rule="evenodd" d="M20.5337 12.9732C24.3565 6.2523 32.8923 3.92297 39.599 7.7705L119.618 53.6759C126.325 57.5234 128.663 66.0908 124.84 72.8117L122.224 77.4105C118.599 76.3501 114.564 77.9121 112.58 81.4006C110.596 84.8892 111.306 89.1732 114.057 91.7705L111.57 96.142C107.747 102.863 99.2116 105.192 92.5049 101.345L12.4858 55.4393C5.77907 51.5918 3.44112 43.0244 7.26385 36.3035L9.75039 31.9318C13.3752 32.9918 17.4098 31.4298 19.3939 27.9415C21.3779 24.4532 20.6683 20.1695 17.9179 17.5722L20.5337 12.9732Z" fill="#FCC155"/>
<path d="M39.599 7.7705L38.6062 9.50665L39.599 7.7705ZM20.5337 12.9732L18.7966 11.982L20.5337 12.9732ZM119.618 53.6759L118.625 55.412L119.618 53.6759ZM124.84 72.8117L126.577 73.8029L124.84 72.8117ZM122.224 77.4105L121.665 79.3313L123.181 79.7747L123.961 78.4017L122.224 77.4105ZM112.58 81.4006L114.317 82.3918L114.317 82.3918L112.58 81.4006ZM114.057 91.7705L115.794 92.7617L116.571 91.3949L115.427 90.315L114.057 91.7705ZM111.57 96.142L113.307 97.1332L111.57 96.142ZM92.5049 101.345L93.4977 99.6086L92.5049 101.345ZM12.4858 55.4393L13.4787 53.7032L12.4858 55.4393ZM7.26385 36.3035L9.00096 37.2947L7.26385 36.3035ZM9.75039 31.9318L10.3096 30.0109L8.79413 29.5678L8.01328 30.9406L9.75039 31.9318ZM17.9179 17.5722L16.1808 16.581L15.4035 17.9476L16.5469 19.0275L17.9179 17.5722ZM40.5919 6.03434C32.9254 1.63626 23.1663 4.29941 18.7966 11.982L22.2708 13.9644C25.5466 8.20519 32.8591 6.20968 38.6062 9.50665L40.5919 6.03434ZM120.611 51.9397L40.5919 6.03434L38.6062 9.50665L118.625 55.412L120.611 51.9397ZM126.577 73.8029C130.945 66.1234 128.274 56.336 120.611 51.9397L118.625 55.412C124.375 58.7108 126.38 66.0582 123.103 71.8205L126.577 73.8029ZM123.961 78.4017L126.577 73.8029L123.103 71.8205L120.487 76.4193L123.961 78.4017ZM114.317 82.3918C115.845 79.7055 118.931 78.5317 121.665 79.3313L122.784 75.4897C118.267 74.1684 113.284 76.1186 110.843 80.4094L114.317 82.3918ZM115.427 90.315C113.349 88.3526 112.788 85.0797 114.317 82.3918L110.843 80.4094C108.403 84.6986 109.263 89.9938 112.686 93.2259L115.427 90.315ZM113.307 97.1332L115.794 92.7617L112.32 90.7793L109.833 95.1508L113.307 97.1332ZM91.512 103.081C99.1785 107.479 108.938 104.816 113.307 97.1332L109.833 95.1508C106.557 100.91 99.2448 102.906 93.4977 99.6086L91.512 103.081ZM11.493 57.1755L91.512 103.081L93.4977 99.6086L13.4787 53.7032L11.493 57.1755ZM5.52674 35.3123C1.1588 42.9918 3.82969 52.7792 11.493 57.1755L13.4787 53.7032C7.72845 50.4044 5.72343 43.057 9.00096 37.2947L5.52674 35.3123ZM8.01328 30.9406L5.52674 35.3123L9.00096 37.2947L11.4875 32.923L8.01328 30.9406ZM17.6567 26.9503C16.1289 29.6364 13.043 30.8103 10.3096 30.0109L9.19121 33.8527C13.7075 35.1734 18.6906 33.2232 21.131 28.9327L17.6567 26.9503ZM16.5469 19.0275C18.6251 20.99 19.1855 24.2626 17.6567 26.9503L21.131 28.9327C23.5704 24.6438 22.7116 19.3491 19.2889 16.1169L16.5469 19.0275ZM18.7966 11.982L16.1808 16.581L19.655 18.5633L22.2708 13.9644L18.7966 11.982Z" fill="#02221F" mask="url(#path-2-outside-1_96_1173)"/>
<path d="M51.1641 45.0127L53.1645 59.4075L45.562 55.046L44.7671 47.6103L37.9594 50.6846L30.3569 46.3232L43.7194 40.7418L41.7072 26.9812L49.3097 31.3427L50.1122 38.213L56.3861 35.4023L63.9887 39.7637L51.1641 45.0127Z" fill="white"/>
<path d="M78.623 48.1947C82.113 50.1969 84.1805 52.2258 84.8256 54.2814C85.4808 56.3191 85.1569 58.4836 83.8537 60.7748C82.9577 62.3499 81.9223 63.5365 80.7474 64.3344C79.5827 65.1144 78.1382 65.4252 76.414 65.267C74.6999 65.0908 72.6415 64.3136 70.2389 62.9352L64.7671 59.7962L62.0793 64.5217L55.6079 60.8092C57.7234 57.4171 59.6414 54.2086 61.362 51.1835C63.0826 48.1585 64.8603 44.8694 66.6951 41.3164L73.1665 45.0289L73.1512 45.0557L78.623 48.1947ZM71.3448 56.6968C72.8004 57.5319 73.9183 58.102 74.6985 58.4071C75.5063 58.7043 76.1371 58.7813 76.5907 58.638C77.062 58.5047 77.4656 58.1427 77.8015 57.552C78.1375 56.9614 78.2466 56.4423 78.1289 55.9949C78.039 55.5397 77.6562 55.0471 76.9807 54.5172C76.3228 53.9973 75.2484 53.3098 73.7577 52.4546L70.1275 50.3719L67.7145 54.6142L71.3448 56.6968Z" fill="white"/>
<path d="M111.944 48.207L84.6029 97.6098" stroke="#02221F" stroke-width="2"/>
</svg>
