<svg width="162" height="133" viewBox="0 0 162 133" fill="none" xmlns="http://www.w3.org/2000/svg">
<mask id="path-1-outside-1_158_1520" maskUnits="userSpaceOnUse" x="-3.81368" y="-3.11847" width="168.966" height="139.392" fill="black">
<rect fill="white" x="-3.81368" y="-3.11847" width="168.966" height="139.392"/>
<path fill-rule="evenodd" clip-rule="evenodd" d="M26.5334 13.1385C30.364 6.42205 38.9097 4.08999 45.621 7.92969L148.471 66.7735C155.182 70.6132 157.517 79.1707 153.687 85.8871L148.996 94.1116C144.577 92.8225 139.659 94.7215 137.24 98.9626C134.821 103.204 135.686 108.412 139.04 111.57L134.506 119.518C130.676 126.235 122.13 128.567 115.419 124.727L12.5689 65.883C5.85769 62.0433 3.52244 53.4859 7.35298 46.7695L11.8862 38.821C16.305 40.1098 21.2234 38.2108 23.6421 33.9698C26.0609 29.7288 25.1957 24.5209 21.8428 21.3631L26.5334 13.1385Z"/>
</mask>
<path fill-rule="evenodd" clip-rule="evenodd" d="M26.5334 13.1385C30.364 6.42205 38.9097 4.08999 45.621 7.92969L148.471 66.7735C155.182 70.6132 157.517 79.1707 153.687 85.8871L148.996 94.1116C144.577 92.8225 139.659 94.7215 137.24 98.9626C134.821 103.204 135.686 108.412 139.04 111.57L134.506 119.518C130.676 126.235 122.13 128.567 115.419 124.727L12.5689 65.883C5.85769 62.0433 3.52244 53.4859 7.35298 46.7695L11.8862 38.821C16.305 40.1098 21.2234 38.2108 23.6421 33.9698C26.0609 29.7288 25.1957 24.5209 21.8428 21.3631L26.5334 13.1385Z" fill="#FCC155"/>
<path d="M45.621 7.92969L44.1347 10.5357L45.621 7.92969ZM148.471 66.7735L149.957 64.1676L148.471 66.7735ZM148.996 94.1116L148.159 96.9935L150.429 97.6554L151.6 95.6014L148.996 94.1116ZM139.04 111.57L141.644 113.059L142.815 111.005L141.093 109.384L139.04 111.57ZM115.419 124.727L116.905 122.121L115.419 124.727ZM12.5689 65.883L11.0827 68.489L12.5689 65.883ZM11.8862 38.821L12.7229 35.9391L10.4536 35.2772L9.28223 37.3312L11.8862 38.821ZM21.8428 21.3631L19.2388 19.8733L18.0674 21.9273L19.7893 23.5489L21.8428 21.3631ZM47.1072 5.32372C38.9579 0.661224 28.5809 3.49301 23.9295 11.6487L29.1374 14.6283C32.1471 9.35108 38.8616 7.51875 44.1347 10.5357L47.1072 5.32372ZM149.957 64.1676L47.1072 5.32372L44.1347 10.5357L146.985 69.3795L149.957 64.1676ZM156.291 87.3769C160.942 79.2213 158.107 68.8301 149.957 64.1676L146.985 69.3795C152.258 72.3964 154.093 79.1201 151.083 84.3973L156.291 87.3769ZM151.6 95.6014L156.291 87.3769L151.083 84.3973L146.392 92.6218L151.6 95.6014ZM139.844 100.452C141.576 97.4152 145.072 96.0929 148.159 96.9935L149.833 91.2297C144.082 89.5521 137.741 92.0278 134.636 97.4728L139.844 100.452ZM141.093 109.384C138.751 107.178 138.112 103.49 139.844 100.452L134.636 97.4728C131.531 102.918 132.622 109.646 136.986 113.755L141.093 109.384ZM137.11 121.008L141.644 113.059L136.436 110.08L131.902 118.028L137.11 121.008ZM113.933 127.333C122.082 131.995 132.459 129.164 137.11 121.008L131.902 118.028C128.893 123.306 122.178 125.138 116.905 122.121L113.933 127.333ZM11.0827 68.489L113.933 127.333L116.905 122.121L14.0551 63.2771L11.0827 68.489ZM4.74904 45.2797C0.0976757 53.4353 2.93333 63.8265 11.0827 68.489L14.0551 63.2771C8.78204 60.2602 6.94721 53.5365 9.95692 48.2593L4.74904 45.2797ZM9.28223 37.3312L4.74904 45.2797L9.95692 48.2593L14.4901 40.3108L9.28223 37.3312ZM21.0382 32.48C19.3061 35.5171 15.8099 36.8394 12.7229 35.9391L11.0494 41.7029C16.8002 43.3802 23.1408 40.9044 26.2461 35.4596L21.0382 32.48ZM19.7893 23.5489C22.1316 25.7549 22.7703 29.4429 21.0382 32.48L26.2461 35.4596C29.3514 30.0147 28.2598 23.2869 23.8962 19.1774L19.7893 23.5489ZM23.9295 11.6487L19.2388 19.8733L24.4467 22.8529L29.1374 14.6283L23.9295 11.6487Z" fill="#02221F" mask="url(#path-1-outside-1_158_1520)"/>
<path d="M62.3711 54.724L64.8096 72.2244L55.5418 66.922L54.5729 57.8821L46.274 61.6196L37.0062 56.3172L53.2957 49.5317L50.8427 32.8022L60.1105 38.1047L61.0887 46.4572L68.7369 43.0401L78.0047 48.3425L62.3711 54.724Z" fill="white"/>
<path d="M95.8445 58.5925C100.099 61.0266 102.619 63.4933 103.406 65.9924C104.204 68.4698 103.81 71.1012 102.221 73.8867C101.129 75.8017 99.8665 77.2443 98.4343 78.2143C97.0144 79.1626 95.2535 79.5405 93.1516 79.3481C91.0621 79.1339 88.5528 78.189 85.6239 76.5133L78.9536 72.697L75.6771 78.4421L67.7883 73.9286C70.367 69.8047 72.7052 65.9039 74.8027 62.2262C76.9001 58.5484 79.0673 54.5498 81.304 50.2302L89.1928 54.7436L89.1742 54.7763L95.8445 58.5925ZM86.9721 68.9289C88.7466 69.9442 90.1093 70.6372 91.0603 71.0082C92.0451 71.3696 92.814 71.4631 93.3671 71.2889C93.9415 71.1269 94.4335 70.6868 94.8431 69.9687C95.2527 69.2505 95.3857 68.6195 95.2422 68.0756C95.1325 67.5222 94.6659 66.9234 93.8425 66.2791C93.0404 65.647 91.7308 64.8111 89.9136 63.7714L85.4881 61.2395L82.5467 66.397L86.9721 68.9289Z" fill="white"/>
<path d="M136.464 58.6076L103.134 118.669" stroke="#02221F" stroke-width="3"/>
</svg>
