<svg width="121" height="108" viewBox="0 0 121 108" fill="none" xmlns="http://www.w3.org/2000/svg">
<rect x="61.8788" y="-1.24411" width="63.1045" height="89.0739" rx="11" transform="rotate(16.6087 61.8788 -1.24411)" fill="#0BA46B" stroke="#02221F" stroke-width="2"/>
<path d="M83.947 34.5447C86.3614 35.2649 88.4609 36.3448 90.2455 37.7846C92.0556 39.2319 93.3364 40.8758 94.0882 42.7164C94.8399 44.557 94.9284 46.4408 94.3536 48.3678C93.8876 49.9303 93.1191 51.1614 92.0481 52.0614C90.977 52.9613 89.7648 53.5922 88.4115 53.9542L86.0415 54.5233C84.7622 54.8223 83.9098 55.036 83.4841 55.1642C82.7908 55.3544 82.2637 55.6367 81.903 56.0112C81.5422 56.3857 81.2725 56.8724 81.0938 57.4713L72.3639 54.8674C72.9543 52.8883 73.9049 51.3712 75.216 50.316C76.5348 49.2348 78.4219 48.5216 80.8773 48.1764C81.9751 48.0218 82.8177 47.7485 83.4051 47.3566C84.0257 46.9462 84.437 46.4024 84.6389 45.7254C84.8642 44.9702 84.7025 44.2131 84.154 43.4539C83.631 42.7024 82.8357 42.1675 81.7683 41.8491C80.3197 41.417 79.08 41.4442 78.0492 41.9308C77.0439 42.4249 76.3432 43.336 75.947 44.6641C75.7917 45.1849 75.6893 45.8066 75.6398 46.5291C73.7853 45.3237 70.8376 44.1184 66.7967 42.9131C66.8412 42.6711 66.9255 42.3418 67.0498 41.9252C67.7023 39.7378 68.8439 37.9515 70.4748 36.5664C72.1389 35.1628 74.1312 34.2825 76.4518 33.9254C78.8055 33.5499 81.3039 33.7563 83.947 34.5447ZM78.1843 67.3651L69.34 64.727L71.4139 57.7742L80.2581 60.4122L78.1843 67.3651Z" fill="white"/>
<rect x="-0.157467" y="20.418" width="63.1045" height="89.0739" rx="11" transform="rotate(-9.93022 -0.157467 20.418)" fill="#0BA46B" stroke="#02221F" stroke-width="2"/>
<path d="M35.5763 42.5757C38.058 42.1413 40.4188 42.1693 42.6587 42.66C44.9247 43.1461 46.8051 44.0445 48.3 45.3553C49.795 46.6661 50.7158 48.3119 51.0626 50.2926C51.3438 51.8987 51.2063 53.3435 50.6502 54.6271C50.0941 55.9107 49.2916 57.0168 48.2425 57.9453L46.3766 59.5134C45.3657 60.3525 44.6985 60.9245 44.375 61.2294C43.8397 61.7094 43.4944 62.1974 43.3389 62.6936C43.1835 63.1898 43.1597 63.7458 43.2674 64.3614L34.2939 65.9324C33.9378 63.8981 34.1105 62.1161 34.8119 60.5863C35.5087 59.0298 36.8783 57.5485 38.9207 56.1426C39.8338 55.5138 40.4655 54.8928 40.8159 54.2797C41.1877 53.6353 41.3127 52.9651 41.1908 52.2692C41.0549 51.4929 40.572 50.8878 39.7422 50.4537C38.9384 50.0151 37.9879 49.8918 36.8908 50.0839C35.4017 50.3446 34.3048 50.9229 33.6001 51.8187C32.9214 52.71 32.7016 53.8382 32.9406 55.2033C33.0343 55.7386 33.2205 56.3405 33.4991 57.0091C31.3014 56.7593 28.1257 56.998 23.972 57.7252C23.9037 57.4889 23.8321 57.1566 23.7571 56.7283C23.3635 54.4798 23.5868 52.3717 24.4269 50.4038C25.2885 48.4046 26.6776 46.7269 28.5941 45.3706C30.532 43.983 32.8594 43.0514 35.5763 42.5757ZM45.085 74.5127L35.994 76.1043L34.7428 68.9574L43.8338 67.3659L45.085 74.5127Z" fill="white"/>
</svg>
