<svg width="190" height="170" viewBox="0 0 190 170" fill="none" xmlns="http://www.w3.org/2000/svg">
<rect x="96.5706" y="-0.488226" width="98.2264" height="138.273" rx="12" transform="rotate(16.6087 96.5706 -0.488226)" fill="#0BA46B" stroke="#02221F" stroke-width="4"/>
<path d="M130.909 55.2699C134.632 56.3804 137.87 58.0457 140.622 60.2659C143.413 62.4977 145.388 65.0328 146.547 67.8711C147.707 70.7094 147.843 73.6144 146.957 76.5859C146.238 78.9952 145.053 80.8938 143.401 82.2815C141.75 83.6692 139.88 84.6421 137.793 85.2003L134.139 86.078C132.166 86.5391 130.852 86.8685 130.195 87.0662C129.126 87.3596 128.313 87.7949 127.757 88.3724C127.201 88.9498 126.785 89.7003 126.509 90.6239L113.047 86.6085C113.958 83.5567 115.424 81.2172 117.445 79.59C119.479 77.9228 122.389 76.823 126.175 76.2907C127.868 76.0522 129.168 75.6308 130.073 75.0264C131.03 74.3936 131.665 73.5551 131.976 72.5111C132.323 71.3465 132.074 70.179 131.228 69.0084C130.422 67.8495 129.195 67.0246 127.549 66.5336C125.315 65.8673 123.404 65.9093 121.814 66.6596C120.264 67.4216 119.183 68.8265 118.573 70.8745C118.333 71.6776 118.175 72.6362 118.099 73.7504C115.239 71.8917 110.694 70.033 104.462 68.1743C104.531 67.8012 104.661 67.2934 104.853 66.6509C105.859 63.2778 107.619 60.5233 110.134 58.3874C112.7 56.2229 115.773 54.8654 119.351 54.3149C122.981 53.7358 126.833 54.0541 130.909 55.2699ZM122.023 105.881L108.384 101.813L111.582 91.091L125.221 95.159L122.023 105.881Z" fill="white"/>
<rect x="0.685066" y="33.1136" width="98.2264" height="138.273" rx="12" transform="rotate(-9.93022 0.685066 33.1136)" fill="#0BA46B" stroke="#02221F" stroke-width="4"/>
<path d="M56.3183 67.6541C60.1453 66.9841 63.7858 67.0274 67.2397 67.7841C70.734 68.5337 73.6338 69.9191 75.939 71.9404C78.2443 73.9617 79.6643 76.4995 80.199 79.554C80.6326 82.0306 80.4206 84.2586 79.5631 86.238C78.7056 88.2174 77.468 89.923 75.8504 91.3548L72.9729 93.773C71.4142 95.0669 70.3853 95.9489 69.8863 96.4191C69.061 97.1592 68.5284 97.9118 68.2887 98.677C68.049 99.4422 68.0123 100.299 68.1785 101.249L54.3409 103.671C53.7917 100.534 54.0579 97.7864 55.1396 95.4274C56.214 93.0271 58.3261 90.743 61.4756 88.575C62.8836 87.6053 63.8577 86.6478 64.398 85.7023C64.9714 84.7086 65.1641 83.6751 64.9762 82.6019C64.7667 81.4049 64.022 80.4717 62.7423 79.8024C61.5029 79.126 60.0372 78.9359 58.3453 79.2321C56.0491 79.6341 54.3576 80.5259 53.2708 81.9073C52.2244 83.2816 51.8854 85.0214 52.2539 87.1265C52.3985 87.952 52.6855 88.8802 53.1151 89.9111C49.7262 89.5259 44.8291 89.894 38.4239 91.0154C38.3186 90.651 38.2081 90.1385 38.0925 89.4781C37.4855 86.0109 37.8298 82.76 39.1253 79.7255C40.454 76.6426 42.596 74.0554 45.5513 71.964C48.5397 69.8242 52.1287 68.3876 56.3183 67.6541ZM70.9813 116.903L56.9624 119.357L55.033 108.336L69.0519 105.882L70.9813 116.903Z" fill="white"/>
</svg>
