<svg width="166" height="148" viewBox="0 0 166 148" fill="none" xmlns="http://www.w3.org/2000/svg">
<rect x="84.402" y="-0.866169" width="85.8051" height="120.997" rx="11.5" transform="rotate(16.6087 84.402 -0.866169)" fill="#0BA46B" stroke="#02221F" stroke-width="3"/>
<path d="M114.405 47.8129C117.677 48.7888 120.522 50.2523 122.94 52.2033C125.393 54.1647 127.129 56.3925 128.148 58.8867C129.166 61.381 129.286 63.9338 128.507 66.5452C127.876 68.6625 126.834 70.3309 125.383 71.5504C123.932 72.7699 122.289 73.6249 120.455 74.1154L117.243 74.8867C115.51 75.2919 114.354 75.5814 113.778 75.7552C112.838 76.0129 112.124 76.3955 111.635 76.903C111.146 77.4104 110.781 78.07 110.539 78.8816L98.7083 75.3529C99.5082 72.671 100.797 70.6151 102.573 69.1852C104.36 67.72 106.918 66.7535 110.245 66.2857C111.733 66.0762 112.875 65.7059 113.671 65.1747C114.512 64.6186 115.069 63.8817 115.343 62.9642C115.648 61.9409 115.429 60.9148 114.686 59.8861C113.977 58.8677 112.899 58.1428 111.452 57.7113C109.489 57.1258 107.809 57.1627 106.413 57.822C105.05 58.4916 104.101 59.7263 103.564 61.526C103.353 62.2318 103.215 63.0743 103.148 64.0534C100.634 62.4199 96.6398 60.7865 91.1638 59.1532C91.2241 58.8253 91.3385 58.379 91.5069 57.8144C92.3911 54.8502 93.9382 52.4295 96.1483 50.5525C98.4033 48.6504 101.103 47.4575 104.248 46.9736C107.437 46.4648 110.823 46.7445 114.405 47.8129ZM106.596 92.2891L94.6104 88.7141L97.4208 79.2921L109.406 82.867L106.596 92.2891Z" fill="white"/>
<rect x="0.263799" y="28.5517" width="85.8051" height="120.997" rx="11.5" transform="rotate(-9.93022 0.263799 28.5517)" fill="#0BA46B" stroke="#02221F" stroke-width="3"/>
<path d="M48.8557 58.6961C52.2188 58.1073 55.418 58.1453 58.4534 58.8103C61.5241 59.469 64.0724 60.6865 66.0982 62.4628C68.124 64.239 69.3719 66.4693 69.8418 69.1535C70.2229 71.3299 70.0366 73.2879 69.283 75.0273C68.5294 76.7668 67.4419 78.2657 66.0203 79.524L63.4916 81.649C62.1218 82.7861 61.2176 83.5612 60.7792 83.9744C60.0538 84.6248 59.5859 85.2862 59.3752 85.9586C59.1645 86.6311 59.1322 87.3844 59.2783 88.2187L47.118 90.3476C46.6353 87.5909 46.8693 85.1759 47.8199 83.1029C48.7641 80.9936 50.6201 78.9863 53.3879 77.0811C54.6252 76.2289 55.4813 75.3875 55.9561 74.5566C56.4599 73.6833 56.6293 72.7751 56.4642 71.832C56.28 70.7801 55.6257 69.96 54.5011 69.3718C53.4119 68.7774 52.1238 68.6104 50.637 68.8707C48.6191 69.224 47.1327 70.0076 46.1776 71.2216C45.258 72.4294 44.9601 73.9582 45.284 75.8081C45.411 76.5336 45.6633 77.3493 46.0408 78.2552C43.0626 77.9168 38.7591 78.2403 33.1303 79.2257C33.0378 78.9054 32.9407 78.4551 32.8391 77.8747C32.3057 74.8278 32.6082 71.9709 33.7467 69.3042C34.9143 66.595 36.7967 64.3214 39.3938 62.4835C42.02 60.6031 45.174 59.3406 48.8557 58.6961ZM61.7414 101.975L49.4217 104.132L47.7262 94.447L60.0458 92.2901L61.7414 101.975Z" fill="white"/>
</svg>
