<svg width="24" height="24" viewBox="0 0 24 24" fill="none" xmlns="http://www.w3.org/2000/svg">
<path fill-rule="evenodd" clip-rule="evenodd" d="M2 12C2 6.47715 6.47715 2 12 2C17.5228 2 22 6.47715 22 12C22 17.5228 17.5228 22 12 22C6.47715 22 2 17.5228 2 12Z" fill="white"/>
<path d="M12 2C6.47715 2 2 6.47715 2 12C2 17.1072 5.8286 21.3202 10.7723 21.9254V14.4993H9V11.5698H10.7723V9.81099C10.7723 7.42112 11.773 6 14.6162 6H16.9832V8.92982H15.5037C14.3969 8.92982 14.3237 9.33922 14.3237 10.1033L14.3197 11.5695H17L16.6864 14.499H14.3197V21.7296C18.7239 20.6835 22 16.7243 22 12C22 6.47715 17.5228 2 12 2Z" fill="#1977F3"/>
</svg>
