<svg width="24" height="24" viewBox="0 0 24 24" fill="none" xmlns="http://www.w3.org/2000/svg">
<path fill-rule="evenodd" clip-rule="evenodd" d="M11.9997 5.86667C13.8775 5.86667 15.1442 6.67778 15.8664 7.35556L18.6886 4.6C16.9553 2.98889 14.6997 2 11.9997 2C8.08863 2 4.71085 4.24444 3.06641 7.51111L6.29974 10.0222C7.11085 7.61111 9.3553 5.86667 11.9997 5.86667V5.86667Z" fill="#EA4335"/>
<path fill-rule="evenodd" clip-rule="evenodd" d="M21.6 12.2222C21.6 11.4 21.5333 10.8 21.3889 10.1777H12V13.8888H17.5111C17.4 14.8111 16.8 16.2 15.4667 17.1333L18.6222 19.5777C20.5111 17.8333 21.6 15.2666 21.6 12.2222V12.2222Z" fill="#4285F4"/>
<path fill-rule="evenodd" clip-rule="evenodd" d="M6.31111 13.9779C6.1 13.3557 5.97778 12.689 5.97778 12.0001C5.97778 11.3112 6.1 10.6446 6.3 10.0223L3.06667 7.51123C2.38889 8.86679 2 10.389 2 12.0001C2 13.6112 2.38889 15.1335 3.06667 16.489L6.31111 13.9779V13.9779Z" fill="#FBBC05"/>
<path fill-rule="evenodd" clip-rule="evenodd" d="M12.0003 22.0003C14.7003 22.0003 16.967 21.1114 18.6226 19.578L15.467 17.1336C14.6226 17.7225 13.4892 18.1336 12.0003 18.1336C9.3559 18.1336 7.11146 16.3891 6.31146 13.978L3.07812 16.4891C4.72257 19.7558 8.08924 22.0003 12.0003 22.0003V22.0003Z" fill="#34A853"/>
</svg>
