<svg xmlns="http://www.w3.org/2000/svg">
    <symbol id="icon-apple" viewBox="0 0 24 24">
        <path d="M12.1291 6.61538C13.0049 6.61538 14.1028 6.00509 14.7566 5.19135C15.3487 4.45391 15.7804 3.42403 15.7804 2.39415C15.7804 2.25429 15.7681 2.11443 15.7434 2C14.7689 2.03814 13.597 2.67387 12.8939 3.52575C12.3388 4.17419 11.8331 5.19135 11.8331 6.23395C11.8331 6.38652 11.8577 6.5391 11.8701 6.58996C11.9317 6.60267 12.0304 6.61538 12.1291 6.61538ZM9.04523 22C10.2418 22 10.7722 21.1736 12.2648 21.1736C13.7821 21.1736 14.1151 21.9746 15.4474 21.9746C16.7549 21.9746 17.6308 20.7285 18.4572 19.5079C19.3824 18.1093 19.7648 16.7362 19.7895 16.6726C19.7031 16.6472 17.199 15.5919 17.199 12.6294C17.199 10.061 19.1727 8.904 19.2837 8.815C17.9762 6.88239 15.9901 6.83153 15.4474 6.83153C13.9794 6.83153 12.7829 7.74698 12.0304 7.74698C11.2163 7.74698 10.1431 6.88239 8.87253 6.88239C6.45477 6.88239 4 8.94215 4 12.8328C4 15.2486 4.91283 17.8042 6.03536 19.4571C6.99753 20.8557 7.83635 22 9.04523 22Z" fill="black"/>
    </symbol>
    <symbol id="icon-vk" viewBox="0 0 24 24">
        <path fill-rule="evenodd" clip-rule="evenodd" d="M12.9808 17.1532C12.9808 17.1532 13.3418 17.1138 13.5267 16.9189C13.6959 16.7403 13.69 16.4033 13.69 16.4033C13.69 16.4033 13.6675 14.8295 14.4119 14.5971C15.1456 14.3686 16.0876 16.1191 17.0873 16.7922C17.8425 17.3011 18.4157 17.1897 18.4157 17.1897L21.0872 17.1532C21.0872 17.1532 22.4841 17.0687 21.8218 15.9904C21.767 15.902 21.4354 15.1925 19.8361 13.7349C18.1604 12.2091 18.3854 12.4559 20.4024 9.81631C21.6311 8.20894 22.1221 7.22762 21.9685 6.80801C21.8228 6.40665 20.9189 6.51323 20.9189 6.51323L17.9119 6.53147C17.9119 6.53147 17.6889 6.50171 17.5236 6.59869C17.3622 6.69375 17.2575 6.91555 17.2575 6.91555C17.2575 6.91555 16.7821 8.15901 16.1473 9.21715C14.8081 11.4486 14.273 11.5668 14.0539 11.4285C13.5443 11.1049 13.6714 10.1303 13.6714 9.43799C13.6714 7.27467 14.006 6.37304 13.0209 6.13971C12.6942 6.06193 12.4536 6.01104 11.6172 6.0024C10.5441 5.99184 9.63636 6.00624 9.12183 6.25301C8.77946 6.41721 8.51534 6.784 8.67675 6.80513C8.87532 6.83105 9.32529 6.92419 9.56397 7.24298C9.87211 7.6549 9.86135 8.57861 9.86135 8.57861C9.86135 8.57861 10.0384 11.1251 9.44757 11.441C9.04259 11.658 8.48698 11.2153 7.29259 9.19026C6.68122 8.15325 6.21951 7.00677 6.21951 7.00677C6.21951 7.00677 6.13049 6.79265 5.97104 6.67742C5.77834 6.53819 5.50933 6.49498 5.50933 6.49498L2.65201 6.51323C2.65201 6.51323 2.22258 6.52475 2.06509 6.70815C1.92521 6.87042 2.05433 7.20745 2.05433 7.20745C2.05433 7.20745 4.29147 12.3455 6.82501 14.9351C9.14824 17.3087 11.7855 17.1532 11.7855 17.1532H12.9808Z" fill="#2787F5"/>
    </symbol>
    <symbol id="icon-facebook" viewBox="0 0 24 24">
        <path fill-rule="evenodd" clip-rule="evenodd" d="M2 12C2 6.47715 6.47715 2 12 2C17.5228 2 22 6.47715 22 12C22 17.5228 17.5228 22 12 22C6.47715 22 2 17.5228 2 12Z" fill="white"/>
        <path d="M12 2C6.47715 2 2 6.47715 2 12C2 17.1072 5.8286 21.3202 10.7723 21.9254V14.4993H9V11.5698H10.7723V9.81099C10.7723 7.42112 11.773 6 14.6162 6H16.9832V8.92982H15.5037C14.3969 8.92982 14.3237 9.33922 14.3237 10.1033L14.3197 11.5695H17L16.6864 14.499H14.3197V21.7296C18.7239 20.6835 22 16.7243 22 12C22 6.47715 17.5228 2 12 2Z" fill="#1977F3"/>
    </symbol>
    <symbol id="icon-google" viewBox="0 0 24 24">
        <path fill-rule="evenodd" clip-rule="evenodd" d="M11.9997 5.86667C13.8775 5.86667 15.1442 6.67778 15.8664 7.35556L18.6886 4.6C16.9553 2.98889 14.6997 2 11.9997 2C8.08863 2 4.71085 4.24444 3.06641 7.51111L6.29974 10.0222C7.11085 7.61111 9.3553 5.86667 11.9997 5.86667V5.86667Z" fill="#EA4335"/>
        <path fill-rule="evenodd" clip-rule="evenodd" d="M21.6 12.2222C21.6 11.4 21.5333 10.8 21.3889 10.1777H12V13.8888H17.5111C17.4 14.8111 16.8 16.2 15.4667 17.1333L18.6222 19.5777C20.5111 17.8333 21.6 15.2666 21.6 12.2222V12.2222Z" fill="#4285F4"/>
        <path fill-rule="evenodd" clip-rule="evenodd" d="M6.31111 13.9779C6.1 13.3557 5.97778 12.689 5.97778 12.0001C5.97778 11.3112 6.1 10.6446 6.3 10.0223L3.06667 7.51123C2.38889 8.86679 2 10.389 2 12.0001C2 13.6112 2.38889 15.1335 3.06667 16.489L6.31111 13.9779V13.9779Z" fill="#FBBC05"/>
        <path fill-rule="evenodd" clip-rule="evenodd" d="M12.0003 22.0003C14.7003 22.0003 16.967 21.1114 18.6226 19.578L15.467 17.1336C14.6226 17.7225 13.4892 18.1336 12.0003 18.1336C9.3559 18.1336 7.11146 16.3891 6.31146 13.978L3.07812 16.4891C4.72257 19.7558 8.08924 22.0003 12.0003 22.0003V22.0003Z" fill="#34A853"/>
    </symbol>

</svg>
