<svg width="20" height="20" viewBox="0 0 20 20" fill="none" xmlns="http://www.w3.org/2000/svg">
<rect width="20" height="20" rx="4" fill="url(#paint0_linear_9054_26307)"/>
<path fill-rule="evenodd" clip-rule="evenodd" d="M4.96901 9.30494C8.10076 7.8937 10.1891 6.96333 11.234 6.51383C14.2174 5.23039 14.8373 5.00744 15.2413 5.00008C15.3302 4.99846 15.5289 5.02124 15.6576 5.12926C15.7663 5.22047 15.7962 5.34368 15.8105 5.43016C15.8248 5.51664 15.8426 5.71364 15.8285 5.86757C15.6668 7.6245 14.9673 11.8881 14.6114 13.8559C14.4608 14.6885 14.1643 14.9677 13.8772 14.995C13.2533 15.0544 12.7796 14.5686 12.1754 14.159C11.2299 13.5179 10.6957 13.1189 9.77795 12.4933C8.7173 11.7704 9.40488 11.3731 10.0093 10.7237C10.1675 10.5538 12.9162 7.96792 12.9694 7.73334C12.9761 7.704 12.9823 7.59464 12.9195 7.5369C12.8566 7.47915 12.7639 7.4989 12.697 7.5146C12.6022 7.53687 11.0917 8.56945 8.16566 10.6124C7.73692 10.9169 7.34859 11.0652 7.00065 11.0574C6.61708 11.0489 5.87924 10.8331 5.33073 10.6487C4.65796 10.4225 4.12326 10.3029 4.16982 9.91881C4.19407 9.71872 4.46047 9.5141 4.96901 9.30494Z" fill="white"/>
<defs>
<linearGradient id="paint0_linear_9054_26307" x1="10" y1="0" x2="10" y2="19.8517" gradientUnits="userSpaceOnUse">
<stop stop-color="#2AABEE"/>
<stop offset="1" stop-color="#229ED9"/>
</linearGradient>
</defs>
</svg>
