<svg width="39" height="45" viewBox="0 0 39 45" fill="none" xmlns="http://www.w3.org/2000/svg">
<path d="M38.9997 31.3792H34.8217C33.3401 31.3792 31.8585 30.7718 30.377 29.5569C29.488 28.8161 28.3769 27.6013 27.0435 25.9123L23.9322 21.9566C23.2506 21.038 22.1839 19.7342 20.732 18.0453C20.0208 17.3341 19.3986 16.9786 18.8652 16.9786H16.4206V26.4012C16.4206 27.9124 16.8799 28.9495 17.7985 29.5125C18.5393 29.9569 19.7097 30.1643 21.3098 30.1347V31.3792H5.88672V30.1347C7.42755 30.0458 8.37575 29.9569 8.73132 29.868C9.85731 29.631 10.5388 29.0976 10.7759 28.268C10.8944 27.8531 10.9537 27.2012 10.9537 26.3123V5.51136C10.9537 4.50391 10.9092 3.79277 10.8203 3.37793C10.6425 2.45937 9.97584 1.85194 8.82022 1.55563C8.37575 1.4371 7.39791 1.33339 5.88672 1.2445V0H23.4433C26.1693 0 28.5695 0.666698 30.6437 2.00009C33.0438 3.5409 34.2439 5.60026 34.2439 8.17815C34.2439 10.4597 33.3697 12.3858 31.6215 13.9562C30.0807 15.3489 28.125 16.2378 25.7545 16.623C26.5842 17.4527 28.9399 20.2528 32.8216 25.0234C33.9772 26.4457 34.8809 27.4531 35.5328 28.0457C36.6588 29.0828 37.8144 29.7791 38.9997 30.1347V31.3792ZM28.1102 8.48928C28.1102 3.65943 25.5619 1.2445 20.4653 1.2445C18.806 1.2445 17.7096 1.57044 17.1762 2.22232C16.6725 2.87421 16.4206 4.05945 16.4206 5.77804V15.7785H20.0208C25.4137 15.7785 28.1102 13.3488 28.1102 8.48928Z" fill="url(#paint0_linear)"/>
<path d="M13.5297 43.4955C9.14177 42.9995 5.92014 41.3199 3.86485 38.4564C1.84746 35.6976 1.08573 32.0658 1.57964 27.561C2.00843 23.6503 3.63969 20.5897 6.47343 18.3792C9.33154 16.1714 12.6986 15.2865 16.5746 15.7246C20.4994 16.1683 23.549 17.841 25.7235 20.743C27.9196 23.6724 28.7979 27.142 28.3582 31.1517C27.9267 35.0871 26.3104 38.2371 23.5091 40.6017C20.7322 42.969 17.4057 43.9336 13.5297 43.4955ZM12.7182 38.0664C15.3266 38.3613 17.7496 38.2092 19.9871 37.6101C22.6553 36.9094 24.6694 35.6461 26.0296 33.8202C26.8126 32.7561 27.2787 31.5433 27.428 30.182C27.7157 27.5584 26.8047 25.4007 24.6949 23.7088C22.9048 22.2536 20.6446 21.3717 17.9143 21.0631C15.2328 20.76 12.7151 20.8763 10.3611 21.4121C7.49789 22.0908 5.36319 23.3279 3.95701 25.1235C3.12523 26.1821 2.63878 27.355 2.49766 28.6421C2.37282 29.7806 2.51209 30.8739 2.91547 31.9218C3.60309 33.7535 4.94764 35.2211 6.94913 36.3243C8.60123 37.2378 10.5243 37.8185 12.7182 38.0664Z" fill="url(#paint1_linear)"/>
<defs>
<linearGradient id="paint0_linear" x1="22.4432" y1="0" x2="22.4432" y2="31.3792" gradientUnits="userSpaceOnUse">
<stop stop-color="white"/>
<stop offset="1" stop-color="white" stop-opacity="0.05"/>
</linearGradient>
<linearGradient id="paint1_linear" x1="28.3623" y1="31.1145" x2="1.5128" y2="28.1706" gradientUnits="userSpaceOnUse">
<stop stop-color="white"/>
<stop offset="1" stop-color="white" stop-opacity="0.05"/>
</linearGradient>
</defs>
</svg>
