<svg width="50" height="46" viewBox="0 0 50 46" fill="none" xmlns="http://www.w3.org/2000/svg">
<path d="M45.8769 7.18581H34.431L33.5417 3.62859C33.0818 1.78953 31.4368 0.505249 29.5415 0.505249H20.4584C18.5631 0.505249 16.9181 1.78962 16.4581 3.62869L15.5689 7.18581H4.12315C1.84971 7.18581 0 9.03542 0 11.309V41.3716C0 43.6451 1.84971 45.4947 4.12315 45.4947H45.8768C48.1503 45.4947 49.9999 43.645 49.9999 41.3716V11.309C50 9.03542 48.1503 7.18581 45.8769 7.18581ZM17.9771 4.00857C18.2625 2.86775 19.2829 2.07097 20.4585 2.07097H29.5416C30.7172 2.07097 31.7375 2.86775 32.023 4.00847L32.8172 7.18581H30.9879L30.3011 4.43855C30.2141 4.09001 29.9009 3.84558 29.5416 3.84558H20.4585C20.0993 3.84558 19.7861 4.09001 19.699 4.43855L19.0124 7.18581H17.1831L17.9771 4.00857ZM29.3739 7.18581H20.6261L21.0697 5.4113H28.9303L29.3739 7.18581ZM4.12315 8.75154H45.8768C46.6585 8.75154 47.3589 9.10447 47.8284 9.65886L42.7454 24.9078C42.2829 26.2953 40.9896 27.2275 39.527 27.2275H28.2881V25.5051C28.2881 24.613 27.5623 23.8872 26.6701 23.8872H23.3298C22.4376 23.8872 21.7118 24.613 21.7118 25.5051V27.2275H10.4729C9.01045 27.2275 7.71699 26.2953 7.25449 24.9079L2.17148 9.65886C2.64102 9.10447 3.34141 8.75154 4.12315 8.75154ZM23.2776 28.8977V25.5052C23.2776 25.4764 23.301 25.4531 23.3298 25.4531H26.6701C26.6989 25.4531 26.7223 25.4764 26.7223 25.5052V28.8977H23.2776ZM26.7224 30.4634V32.1858C26.7224 32.2146 26.699 32.238 26.6702 32.238H23.3299C23.3011 32.238 23.2777 32.2146 23.2777 32.1858V30.4634H26.7224ZM48.4343 41.3716C48.4343 42.7817 47.287 43.929 45.8769 43.929H4.12315C2.71299 43.929 1.56572 42.7817 1.56572 41.3716V12.793L5.76904 25.403C6.44502 27.4308 8.33535 28.7933 10.4729 28.7933H21.7119V32.1858C21.7119 33.078 22.4377 33.8038 23.3299 33.8038H26.6702C27.5624 33.8038 28.2882 33.078 28.2882 32.1858V28.7933H39.5271C41.6647 28.7933 43.555 27.4309 44.2311 25.403L48.4344 12.793V41.3716H48.4343Z" fill="black"/>
</svg>
