<svg width="44" height="44" viewBox="0 0 44 44" fill="none" xmlns="http://www.w3.org/2000/svg">
<g clip-path="url(#clip0)">
<path d="M6.86927 12.8913L10.91 5.48462C10.9687 5.37685 10.9994 5.25585 10.9994 5.13339V2.93339C10.9994 2.12455 11.6572 1.4667 12.4661 1.4667H35.9328V0H12.4661C10.8483 0 9.53281 1.31562 9.53281 2.9333V4.9463L5.58235 12.188C5.29119 12.7204 5.13505 13.3225 5.13281 13.9333V39.6C5.13281 42.0266 7.10619 44 9.53281 44H32.2661V42.5333H9.53273C7.91495 42.5333 6.59942 41.2177 6.59942 39.6V13.9362C6.60088 13.5725 6.69404 13.2118 6.86927 12.8913Z" fill="black"/>
<path d="M38.4175 12.1888L34.4662 4.94637V2.93329H32.9996V4.94629L29.0491 12.1733C28.7551 12.7108 28.5996 13.3195 28.5996 13.9333V40.3333C28.5996 42.3551 30.2445 44 32.2663 44H35.1996C37.2214 44 38.8663 42.3551 38.8663 40.3333V13.9304C38.8634 13.3232 38.7079 12.7211 38.4175 12.1888ZM37.3996 40.3333C37.3996 41.5462 36.4125 42.5333 35.1996 42.5333H32.2663C31.0534 42.5333 30.0663 41.5462 30.0663 40.3333V13.9333C30.0663 13.5644 30.1595 13.2 30.3361 12.8765L33.7322 6.66298L37.1298 12.8919C37.305 13.2117 37.3981 13.5724 37.3996 13.9332V40.3333Z" fill="black"/>
<path d="M33.7343 4.40002H10.2676V5.86672H33.7343V4.40002Z" fill="black"/>
<path d="M24.201 0H19.801C19.3962 0 19.0677 0.328539 19.0677 0.733305V4.97784L16.1981 11.4356C16.0969 11.6622 16.1182 11.9248 16.2531 12.133C16.3881 12.3412 16.6198 12.4667 16.8677 12.4667H21.2677C21.5574 12.4667 21.8199 12.2959 21.9379 12.0311L24.8712 5.43108C24.913 5.33723 24.9343 5.236 24.9343 5.1333V0.733305C24.9343 0.328539 24.6065 0 24.201 0ZM23.4677 4.97784L20.7917 11H17.9963L20.4713 5.43108C20.5131 5.33723 20.5344 5.236 20.5344 5.1333V1.4667H23.4677V4.97784Z" fill="black"/>
<path d="M21.6374 21.626C20.9334 20.922 19.9984 20.5348 19.0032 20.5348C18.0081 20.5348 17.0724 20.922 16.3691 21.626L13.5538 24.4413C12.1018 25.894 12.1018 28.2583 13.5538 29.7102C14.2798 30.4362 15.2339 30.7992 16.188 30.7992C17.1421 30.7992 18.0962 30.4362 18.8222 29.7102L21.6374 26.8942C22.3414 26.191 22.7286 25.256 22.7286 24.2601C22.7286 23.2643 22.3414 22.3293 21.6374 21.626ZM20.6005 25.8566L17.7851 28.6726C16.9045 29.5534 15.4722 29.5541 14.5908 28.6726C13.71 27.7919 13.71 26.3589 14.5908 25.4783L17.406 22.6623C18.2596 21.8086 19.7468 21.8086 20.6004 22.6623C21.0271 23.089 21.2618 23.656 21.2618 24.2595C21.2618 24.863 21.0272 25.4298 20.6005 25.8566Z" fill="black"/>
<path d="M20.7969 21.4852L19.9704 21.9018C18.5103 22.6322 17.4213 23.8869 16.9043 25.435C16.5113 26.6112 15.6833 27.5653 14.5709 28.1219L13.7422 28.5392L14.4022 29.8482L15.2286 29.4324C16.6887 28.702 17.7777 27.4472 18.2947 25.8992C18.6878 24.7229 19.5157 23.7688 20.6282 23.2122L21.4569 22.795L20.7969 21.4852Z" fill="black"/>
<path d="M34.2524 37.6149C33.9657 37.3282 33.5022 37.3282 33.2155 37.6149L29.5488 41.2816L30.5857 42.3185L33.734 39.1702L36.8822 42.3185L37.9191 41.2816L34.2524 37.6149Z" fill="black"/>
<path d="M35.9333 0C34.3156 0 33 1.31562 33 2.9333V38.1333H34.4667V2.9333C34.4667 2.12446 35.1245 1.46661 35.9334 1.46661C36.7423 1.46661 37.4 2.12446 37.4 2.9333V4.0333C37.4 4.23569 37.235 4.4 37.0333 4.4C36.8316 4.4 36.6666 4.23577 36.6666 4.0333V2.9333H35.2V4.0333C35.2 5.04384 36.0221 5.86661 37.0333 5.86661C38.0446 5.86661 38.8666 5.04384 38.8666 4.0333V2.9333C38.8667 1.31562 37.5511 0 35.9333 0Z" fill="black"/>
<path d="M26.3997 17.6H8.79971C8.39495 17.6 8.06641 17.9285 8.06641 18.3333V33C8.06641 33.4055 8.39495 33.7333 8.79971 33.7333H26.3997C26.8053 33.7333 27.133 33.4055 27.133 33V18.3333C27.133 17.9285 26.8053 17.6 26.3997 17.6ZM25.6664 32.2667H9.53302V19.0667H25.6663V32.2667H25.6664Z" fill="black"/>
</g>
<defs>
<clipPath id="clip0">
<rect width="44" height="44" fill="white"/>
</clipPath>
</defs>
</svg>
