<svg width="50" height="44" viewBox="0 0 50 44" fill="none" xmlns="http://www.w3.org/2000/svg">
<g clip-path="url(#clip0)">
<path d="M47.9379 36.0614H47.2426C47.2497 35.9758 47.2497 35.8899 47.2426 35.8043V3.41349C47.2426 2.41965 46.3194 1.614 45.1805 1.614H25.0304C23.8915 1.614 22.9682 2.41965 22.9682 3.41349V16.7811C21.0497 17.1873 19.3708 18.1981 18.2547 19.6192C16.8861 21.3399 16.463 23.502 17.0999 25.5215C17.9484 28.3596 18.0544 32.1231 16.2986 33.6861C15.2877 34.4679 13.8657 34.7011 12.5986 34.2927C11.2355 34.1044 10.0717 33.3321 9.49945 32.2362C7.62584 28.4624 12.304 21.3261 12.3158 21.2953C12.5986 20.9251 19.1149 12.0922 12.4572 6.89936C12.1861 6.65257 5.76401 0.729675 0.803077 1.30551C0.298735 1.36232 -0.0574277 1.76515 0.00767724 2.20526C0.0727822 2.64536 0.534409 2.95616 1.03875 2.89935C2.23097 2.83688 3.41935 3.0685 4.46781 3.56773L3.14803 4.95591C2.43276 5.7293 2.57152 6.86221 3.4578 7.48637C3.47223 7.49653 3.48681 7.50656 3.50154 7.51632L7.93222 10.6012C8.29648 10.8559 8.74986 10.9938 9.21664 10.9919H9.39339C9.93662 10.9384 10.433 10.6978 10.7721 10.3235L12.0565 8.91478C16.0394 13.357 10.8781 20.4315 10.7485 20.5446C10.5364 20.8634 5.58726 28.4213 7.80259 32.884C8.62156 34.4336 10.2682 35.5277 12.1979 35.8043C12.7923 35.93 13.4012 35.9956 14.0126 35.9997C15.3339 36.0344 16.613 35.5916 17.5477 34.776C19.9045 32.6269 19.7159 28.2465 18.7968 25.141C17.8192 22.2824 19.6732 19.2719 22.9446 18.4058V35.8043C22.9376 35.8899 22.9376 35.9758 22.9446 36.0614H22.3555C21.2169 36.0386 20.2727 36.8256 20.2468 37.8192C20.2463 37.8331 20.2462 37.847 20.2462 37.8609V40.5652C20.2459 41.5591 21.1688 42.365 22.3077 42.3653C22.3236 42.3653 22.3396 42.3651 22.3555 42.3647H47.9379C49.0768 42.3647 50 41.5591 50 40.5652V37.8609C50 36.8672 49.0768 36.0614 47.9379 36.0614ZM10.7014 7.95848L9.39339 9.36723C9.34346 9.42018 9.27129 9.45347 9.19307 9.45977C9.11736 9.46838 9.04077 9.44975 8.98096 9.40836L4.55029 6.32352C4.43805 6.22352 4.43805 6.06362 4.55029 5.96362L5.85828 4.54459C5.90822 4.49164 5.98039 4.45835 6.05861 4.45205C6.13432 4.44344 6.21091 4.46207 6.27071 4.50346L10.7014 7.5883C10.7631 7.6311 10.8015 7.69447 10.8074 7.76311C10.8067 7.83869 10.768 7.91015 10.7014 7.95848ZM24.7122 3.41349C24.7122 3.27145 24.844 3.15642 25.0068 3.15642H45.2041C45.3668 3.15642 45.4986 3.27145 45.4986 3.41349V35.8043C45.4986 35.9463 45.3668 36.0614 45.2041 36.0614H25.0304C24.8682 36.0727 24.7262 35.9672 24.7131 35.8256C24.7125 35.8186 24.7121 35.8114 24.7122 35.8043V3.41349ZM48.2796 40.5652C48.2796 40.7073 48.1478 40.8223 47.985 40.8223H22.3555C22.1927 40.8223 22.0609 40.7073 22.0609 40.5652V37.8609C22.0609 37.7188 22.1927 37.6038 22.3555 37.6038H47.9379C48.0984 37.5811 48.2498 37.6763 48.2758 37.8164C48.2786 37.831 48.2797 37.846 48.2796 37.8609V40.5652Z" fill="black"/>
<path d="M41.2095 5.60376H29.0016C27.8627 5.60376 26.9395 6.40942 26.9395 7.40325V18.0665C26.9395 19.0603 27.8627 19.866 29.0016 19.866H41.2095C42.3484 19.866 43.2717 19.0603 43.2717 18.0665V7.40325C43.2717 6.40955 42.3484 5.60376 41.2095 5.60376ZM41.5041 18.0768C41.4978 18.2147 41.3677 18.3237 41.2095 18.3236H29.0016C28.8388 18.3236 28.707 18.2085 28.707 18.0665V7.40325C28.707 7.26122 28.8388 7.14618 29.0016 7.14618H41.2095C41.3723 7.14618 41.5041 7.26122 41.5041 7.40325V18.0768Z" fill="black"/>
<path d="M39.8303 22.7761H30.4033C29.9152 22.7761 29.5195 23.1214 29.5195 23.5473C29.5195 23.9733 29.9152 24.3185 30.4033 24.3185H39.8303C40.3184 24.3185 40.714 23.9733 40.714 23.5473C40.714 23.1214 40.3184 22.7761 39.8303 22.7761Z" fill="black"/>
</g>
<defs>
<clipPath id="clip0">
<rect width="50" height="43.6315" fill="white"/>
</clipPath>
</defs>
</svg>
