<svg width="60" height="56" viewBox="0 0 60 56" fill="none" xmlns="http://www.w3.org/2000/svg">
<path d="M18.3502 18.805C18.5452 19 18.8012 19.098 19.0572 19.098C19.3132 19.098 19.5692 19 19.7642 18.805C20.1552 18.414 20.1552 17.782 19.7642 17.391C18.7492 16.375 18.7492 14.723 19.7642 13.707C20.6342 12.837 21.1142 11.681 21.1142 10.451C21.1142 9.22098 20.6352 8.06498 19.7642 7.19498C19.3732 6.80398 18.7412 6.80398 18.3502 7.19498C17.9592 7.58598 17.9592 8.21798 18.3502 8.60898C18.8422 9.10098 19.1142 9.75498 19.1142 10.451C19.1142 11.147 18.8432 11.801 18.3502 12.293C16.5552 14.088 16.5552 17.01 18.3502 18.805Z" fill="black"/>
<path d="M40.3502 18.805C40.5452 19 40.8012 19.098 41.0572 19.098C41.3132 19.098 41.5692 19 41.7642 18.805C42.1552 18.414 42.1552 17.782 41.7642 17.391C40.7492 16.375 40.7492 14.723 41.7642 13.707C42.6342 12.837 43.1142 11.681 43.1142 10.451C43.1142 9.22098 42.6352 8.06498 41.7642 7.19498C41.3732 6.80398 40.7412 6.80398 40.3502 7.19498C39.9592 7.58598 39.9592 8.21798 40.3502 8.60898C40.8422 9.10098 41.1142 9.75498 41.1142 10.451C41.1142 11.147 40.8432 11.801 40.3502 12.293C38.5552 14.088 38.5552 17.01 40.3502 18.805Z" fill="black"/>
<path d="M29.3502 12.805C29.5452 13 29.8012 13.098 30.0572 13.098C30.3132 13.098 30.5692 13 30.7642 12.805C31.1552 12.414 31.1552 11.782 30.7642 11.391C29.7492 10.375 29.7492 8.72298 30.7642 7.70698C31.6342 6.83698 32.1142 5.68098 32.1142 4.45098C32.1142 3.22098 31.6352 2.06498 30.7642 1.19498C30.3732 0.803983 29.7412 0.803983 29.3502 1.19498C28.9592 1.58598 28.9592 2.21798 29.3502 2.60898C29.8422 3.10098 30.1142 3.75498 30.1142 4.45098C30.1142 5.14698 29.8432 5.80098 29.3502 6.29298C27.5552 8.08798 27.5552 11.01 29.3502 12.805Z" fill="black"/>
<path d="M25.3453 26.61C25.4183 26.61 25.4923 26.602 25.5663 26.586C27.0043 26.262 28.4913 26.098 29.9873 26.098C29.9913 26.098 29.9953 26.098 30.0003 26.098C30.5523 26.098 31.0003 25.651 31.0003 25.099C31.0003 24.546 30.5533 24.098 30.0003 24.098C29.9963 24.098 29.9913 24.098 29.9863 24.098C28.3433 24.098 26.7083 24.279 25.1263 24.635C24.5873 24.756 24.2493 25.291 24.3703 25.83C24.4763 26.295 24.8883 26.61 25.3453 26.61Z" fill="black"/>
<path d="M9.82068 43.081C9.88168 43.093 9.94168 43.098 10.0007 43.098C10.4747 43.098 10.8957 42.76 10.9837 42.278C12.0227 36.58 15.4567 31.51 20.1697 28.718C20.6447 28.437 20.8017 27.823 20.5207 27.348C20.2387 26.873 19.6257 26.716 19.1507 26.997C13.9467 30.08 10.1587 35.658 9.01668 41.918C8.91668 42.462 9.27668 42.982 9.82068 43.081Z" fill="black"/>
<path d="M55.624 41.721C53.812 31.08 45.517 22.625 34.957 20.577C34.974 20.417 35 20.256 35 20.097C35 17.34 32.757 15.097 30 15.097C27.243 15.097 25 17.34 25 20.097C25 20.256 25.025 20.417 25.043 20.577C14.483 22.625 6.188 31.08 4.376 41.721C2.286 42.904 0 44.645 0 46.598C0 51.683 15.512 55.098 30 55.098C44.488 55.098 60 51.683 60 46.598C60 44.645 57.714 42.904 55.624 41.721ZM27.006 20.27C27.002 20.212 27 20.154 27 20.098C27 18.444 28.346 17.098 30 17.098C31.654 17.098 33 18.444 33 20.098C33 20.155 32.998 20.212 32.994 20.27C32.947 20.265 32.9 20.263 32.854 20.258C32.51 20.22 32.164 20.193 31.816 20.169C31.688 20.16 31.561 20.147 31.433 20.14C30.959 20.114 30.482 20.099 30.001 20.099C29.52 20.099 29.043 20.114 28.569 20.14C28.441 20.147 28.314 20.16 28.186 20.169C27.838 20.193 27.492 20.221 27.148 20.258C27.1 20.263 27.053 20.264 27.006 20.27ZM26.399 22.368C26.936 22.288 27.476 22.23 28.018 22.186C28.129 22.177 28.24 22.169 28.351 22.161C29.449 22.087 30.552 22.087 31.65 22.161C31.761 22.169 31.872 22.177 31.983 22.186C32.525 22.23 33.065 22.288 33.602 22.368C44.02 23.943 52.259 32.24 53.754 42.684C53.8 43.005 53.837 43.327 53.87 43.649C53.881 43.76 53.896 43.87 53.906 43.981C53.945 44.424 53.974 44.867 53.988 45.31C38.278 48.951 21.724 48.951 6.014 45.31C6.029 44.867 6.057 44.424 6.096 43.981C6.106 43.87 6.12 43.76 6.132 43.649C6.165 43.326 6.202 43.004 6.248 42.684C7.742 32.24 15.981 23.942 26.399 22.368ZM30 53.098C12.904 53.098 2 48.829 2 46.598C2 46.215 2.474 45.371 4.064 44.27C4.06 44.327 4.062 44.383 4.058 44.44C4.024 44.988 4 45.54 4 46.098V46.886L4.767 47.071C13.021 49.051 21.511 50.043 30 50.043C38.489 50.043 46.979 49.052 55.233 47.071L56 46.886V46.098C56 45.54 55.976 44.989 55.942 44.44C55.938 44.383 55.94 44.327 55.936 44.27C57.526 45.371 58 46.215 58 46.598C58 48.829 47.096 53.098 30 53.098Z" fill="black"/>
</svg>
