<svg width="45" height="45" viewBox="0 0 45 45" fill="none" xmlns="http://www.w3.org/2000/svg">
<path d="M36.5625 37.4414C36.0773 37.4414 35.6836 37.8352 35.6836 38.3203C35.6836 38.8055 36.0773 39.1992 36.5625 39.1992C37.0477 39.1992 37.4414 38.8055 37.4414 38.3203C37.4414 37.8352 37.0477 37.4414 36.5625 37.4414Z" fill="black"/>
<path d="M39.1992 4.16883V2.63672C39.1992 1.18283 38.0164 0 36.5625 0H8.4375C6.98361 0 5.80078 1.18283 5.80078 2.63672V4.16883C0.0679397 14.7565 0.000263672 14.4421 0 14.9404C0 14.9408 0 14.9411 0 14.9414V16.6992C0 18.2226 0.88084 19.6394 2.28516 20.4451V44.1211C2.28516 44.6064 2.67873 45 3.16406 45H41.8359C42.3213 45 42.7148 44.6064 42.7148 44.1211V20.4451C44.105 19.6401 45 18.2066 45 16.6992V14.9414C45 14.9411 45 14.9408 45 14.9404C44.9997 14.4367 44.8762 14.6532 39.1992 4.16883ZM42.6347 14.0625H37.196L34.2664 5.27344H37.8007L42.6347 14.0625ZM30.4102 15.8203H35.6836V16.6992C35.6836 18.1531 34.5008 19.3359 33.0469 19.3359C31.593 19.3359 30.4102 18.1531 30.4102 16.6992V15.8203ZM30.2758 14.0625L28.811 5.27344H32.4134L35.343 14.0625H30.2758ZM7.55859 2.63672C7.55859 2.15209 7.95287 1.75781 8.4375 1.75781H36.5625C37.0471 1.75781 37.4414 2.15209 37.4414 2.63672V3.51562C36.6045 3.51562 8.40199 3.51562 7.55859 3.51562V2.63672ZM28.6523 15.8203V16.6992C28.6523 18.1531 27.4695 19.3359 26.0156 19.3359C24.5617 19.3359 23.3789 18.1531 23.3789 16.6992V15.8203H28.6523ZM23.3789 14.0625V5.27344H27.0289L28.4938 14.0625H23.3789ZM16.5063 14.0625L17.9712 5.27344H21.6211V14.0625H16.5063ZM21.6211 15.8203V16.6992C21.6211 18.1531 20.4383 19.3359 18.9844 19.3359C17.5305 19.3359 16.3477 18.1531 16.3477 16.6992V15.8203H21.6211ZM9.65689 14.0625L12.5866 5.27344H16.189L14.7241 14.0625H9.65689ZM14.5898 15.8203V16.6992C14.5898 18.1531 13.407 19.3359 11.9531 19.3359C10.4992 19.3359 9.31641 18.1531 9.31641 16.6992V15.8203H14.5898ZM7.1993 5.27344H10.7336L7.80398 14.0625H2.36531L7.1993 5.27344ZM1.75781 16.6992V15.8203H7.55859V16.6992C7.55859 18.0792 6.17616 19.3359 4.6582 19.3359C4.27553 19.3359 3.87896 19.2529 3.50982 19.0949C2.4619 18.6492 1.75781 17.6864 1.75781 16.6992ZM18.1055 43.2422H9.31641V35.6836H18.1055V43.2422ZM18.1055 33.9258H9.31641V26.3672H18.1055V33.9258ZM40.957 43.2422H19.8633V25.4883C19.8633 25.0029 19.4697 24.6094 18.9844 24.6094H8.4375C7.95217 24.6094 7.55859 25.0029 7.55859 25.4883V43.2422H4.04297V21.0508C4.2467 21.0785 4.45192 21.0938 4.6582 21.0938C5.81493 21.0938 6.98423 20.6355 7.86604 19.8364C8.06106 19.6597 8.23667 19.4708 8.39426 19.2727C9.19354 20.375 10.4906 21.0938 11.9531 21.0938C13.3892 21.0938 14.6663 20.4013 15.4688 19.3329C16.2712 20.4013 17.5483 21.0938 18.9844 21.0938C20.4204 21.0938 21.6976 20.4013 22.5 19.3329C23.3024 20.4013 24.5796 21.0938 26.0156 21.0938C27.4517 21.0938 28.7288 20.4013 29.5312 19.3329C30.3337 20.4013 31.6108 21.0938 33.0469 21.0938C34.5094 21.0938 35.8065 20.375 36.6057 19.2727C36.7633 19.4708 36.9389 19.6596 37.134 19.8364C38.0158 20.6355 39.1851 21.0938 40.3418 21.0938C40.5476 21.0938 40.7529 21.079 40.957 21.0511V43.2422ZM43.2422 16.6992C43.2422 17.7142 42.5119 18.6881 41.4251 19.1228C41.0697 19.2643 40.7053 19.3359 40.3418 19.3359C38.8238 19.3359 37.4414 18.0792 37.4414 16.6992V15.8203H43.2422V16.6992Z" fill="black"/>
<path d="M38.3203 33.9258H37.4414V25.4883C37.4414 25.0029 37.0478 24.6094 36.5625 24.6094H26.0156C25.5303 24.6094 25.1367 25.0029 25.1367 25.4883V33.9258H24.2578C23.7725 33.9258 23.3789 34.3194 23.3789 34.8047C23.3789 35.29 23.7725 35.6836 24.2578 35.6836H38.3203C38.8056 35.6836 39.1992 35.29 39.1992 34.8047C39.1992 34.3194 38.8056 33.9258 38.3203 33.9258ZM35.6836 33.9258H26.8945V26.3672H35.6836V33.9258Z" fill="black"/>
<path d="M33.0469 37.4414H26.0156C25.5303 37.4414 25.1367 37.835 25.1367 38.3203C25.1367 38.8056 25.5303 39.1992 26.0156 39.1992H33.0469C33.5322 39.1992 33.9258 38.8056 33.9258 38.3203C33.9258 37.835 33.5322 37.4414 33.0469 37.4414Z" fill="black"/>
</svg>
