<svg xmlns="http://www.w3.org/2000/svg" width="203" height="31" viewBox="0 0 203 31">
  <defs>
    <style>
      .cls-1 {
        fill: #ea282d;
      }

      .cls-1, .cls-2 {
        fill-rule: evenodd;
      }

      .cls-2 {
        fill: #fefefe;
      }
    </style>
  </defs>
  <path class="cls-1" d="M6,0H203l-6,31H0Z"/>
  <path id="powerstop" class="cls-2" d="M23.045,17.949h4.008a7.955,7.955,0,0,0,3.132-.576,5.129,5.129,0,0,0,2.076-1.488A6.678,6.678,0,0,0,33.329,14a5.706,5.706,0,0,0,.348-1.932,4.27,4.27,0,0,0-1.3-3.156,4.7,4.7,0,0,0-3.456-1.284H21.893L18.365,23.637h3.408Zm1.608-7.32h3.456a2.053,2.053,0,0,1,1.44.5,1.676,1.676,0,0,1,.552,1.3,2.332,2.332,0,0,1-.792,1.8,2.916,2.916,0,0,1-2.04.72H23.693Zm26.34,10.56a9.183,9.183,0,0,0,2.676-6.672,6.577,6.577,0,0,0-2.232-5.184,8.182,8.182,0,0,0-5.616-1.968A8.941,8.941,0,0,0,39.2,10.089a9.121,9.121,0,0,0-2.688,6.66,6.6,6.6,0,0,0,2.232,5.208,8.214,8.214,0,0,0,5.64,1.968A8.882,8.882,0,0,0,50.993,21.189Zm-9.66-1.476a4.142,4.142,0,0,1-1.272-3.18,6.281,6.281,0,0,1,1.608-4.356A5.093,5.093,0,0,1,45.6,10.389a4.559,4.559,0,0,1,3.24,1.188,4.144,4.144,0,0,1,1.272,3.18,6.254,6.254,0,0,1-1.62,4.356A5.1,5.1,0,0,1,44.573,20.9,4.558,4.558,0,0,1,41.333,19.713ZM80.453,7.629H76.541L71.189,19.2,70.709,7.629H68.045L62.453,19.2,62.213,7.629H58.469l1.056,16.008h3.624l5.208-10.992,0.384,10.992h3.624ZM92.909,20.637h-7.9L85.8,17.013h7.728l0.672-3H86.477l0.744-3.384h7.9l0.672-3H84.461L80.933,23.637H92.261Zm15.168-2.928a5.4,5.4,0,0,0,3.276-1.9,5.545,5.545,0,0,0,1.284-3.672,4.086,4.086,0,0,0-1.464-3.264,5.193,5.193,0,0,0-3.48-1.248h-6.84L97.325,23.637h3.408l1.248-5.688h2.64l1.9,5.688h3.768Zm-5.424-2.76,0.96-4.32h3.432a2.078,2.078,0,0,1,1.416.528,1.689,1.689,0,0,1,.6,1.32,2.3,2.3,0,0,1-.756,1.788,2.982,2.982,0,0,1-2.076.684h-3.576Zm24.035,7.392a5.086,5.086,0,0,0,1.716-3.888,3.359,3.359,0,0,0-.8-2.244,5.456,5.456,0,0,0-1.956-1.464q-1.152-.516-2.3-0.912a11.693,11.693,0,0,1-1.956-.852,1.265,1.265,0,0,1-.8-1.008,1.426,1.426,0,0,1,.612-1.152,2.394,2.394,0,0,1,1.524-.48,6.918,6.918,0,0,1,2.6.528,5.655,5.655,0,0,1,2.172,1.512l2.112-2.4a7.034,7.034,0,0,0-2.748-1.908,9.545,9.545,0,0,0-3.612-.684,6.5,6.5,0,0,0-4.548,1.56A4.79,4.79,0,0,0,116.98,12.6a3.313,3.313,0,0,0,.8,2.232,5.417,5.417,0,0,0,1.944,1.44q1.14,0.5,2.28.912a11.784,11.784,0,0,1,1.944.876,1.307,1.307,0,0,1,.8,1.068,1.684,1.684,0,0,1-.612,1.26,2.55,2.55,0,0,1-1.788.564,7.227,7.227,0,0,1-3.1-.684,5.929,5.929,0,0,1-2.3-1.812l-2.112,2.5a7.115,7.115,0,0,0,2.976,2.16,10.934,10.934,0,0,0,4.272.816A6.509,6.509,0,0,0,126.688,22.341ZM141.94,10.629h4.68l0.648-3H134.5l-0.672,3h4.68l-2.856,13.008h3.432Zm21.636,10.56a9.183,9.183,0,0,0,2.676-6.672,6.577,6.577,0,0,0-2.232-5.184A8.182,8.182,0,0,0,158.4,7.365a8.938,8.938,0,0,0-6.624,2.724,9.122,9.122,0,0,0-2.688,6.66,6.6,6.6,0,0,0,2.232,5.208,8.214,8.214,0,0,0,5.64,1.968A8.883,8.883,0,0,0,163.576,21.189Zm-9.66-1.476a4.139,4.139,0,0,1-1.272-3.18,6.282,6.282,0,0,1,1.608-4.356,5.092,5.092,0,0,1,3.936-1.788,4.562,4.562,0,0,1,3.24,1.188,4.143,4.143,0,0,1,1.272,3.18,6.254,6.254,0,0,1-1.62,4.356,5.1,5.1,0,0,1-3.924,1.788A4.559,4.559,0,0,1,153.916,19.713Zm19.848-1.764h4.008a7.955,7.955,0,0,0,3.132-.576,5.134,5.134,0,0,0,2.076-1.488A6.676,6.676,0,0,0,184.048,14a5.726,5.726,0,0,0,.348-1.932,4.27,4.27,0,0,0-1.3-3.156,4.7,4.7,0,0,0-3.456-1.284h-7.032l-3.528,16.008h3.408Zm1.608-7.32h3.456a2.056,2.056,0,0,1,1.44.5,1.676,1.676,0,0,1,.552,1.3,2.332,2.332,0,0,1-.792,1.8,2.917,2.917,0,0,1-2.04.72h-3.576Z"/>
</svg>
