<svg width="512" height="512" viewBox="0 0 512 512" fill="none" xmlns="http://www.w3.org/2000/svg">
<g clip-path="url(#clip0_133_2707)">
<path d="M31.8 1.89999C23.7 4.49999 18.3 7.99999 12.3 14.2C6.6 20.3 4 24.9 1.6 32.9C0.2 37.9 0 58.8 0 256C0 453.2 0.2 474.1 1.6 479.1C4 487.1 6.6 491.7 12.3 497.8C18.4 504.1 23.8 507.5 32.1 510.1C37.8 511.9 42.2 512 96 512H153.8L155.3 503.7C156.1 499.2 160.3 475.4 164.6 450.8C171.9 408.8 172.5 406 174.5 406C177.7 406.1 303.9 428.6 304.6 429.3C304.9 429.6 302 448 298.1 470.2C294.2 492.4 291 510.9 291 511.3C291 511.7 332.1 512 382.4 512C469.1 512 474.1 511.9 479.9 510.1C488.2 507.5 493.6 504.1 499.7 497.8C505.4 491.7 508 487.1 510.4 479.1C511.8 474.1 512 453.2 512 255.9C512 45.5 511.9 38 510.1 32.1C507.5 23.8 504.1 18.4 497.8 12.3C491.7 6.59999 487.1 3.99999 479.1 1.59999C474.5 0.199992 467.4 -7.62939e-06 432.4 -7.62939e-06H391.2L388.2 12.7C386.5 19.8 365.7 109.6 341.9 212.5C318.1 315.4 298.6 399.6 298.4 399.8C298.2 400.2 189.8 381.1 189.2 380.6C188.9 380.3 233 10.5 234.4 2.19999L234.7 -7.62939e-06L136.1 0.0999924C43.5 0.0999924 37.2 0.199992 31.8 1.89999Z" fill="black"/>
</g>
<defs>
<clipPath id="clip0_133_2707">
<rect width="512" height="512" fill="white"/>
</clipPath>
</defs>
</svg>
