<svg width="73" height="57" viewBox="0 0 73 57" fill="none" xmlns="http://www.w3.org/2000/svg">
<path d="M65.6002 56.6001C67.2002 56.6001 68.6002 56.1001 69.8002 55.0001L49.4002 34.6001C48.9002 35.0001 48.4002 35.3001 48.0002 35.6001C46.5002 36.7001 45.2002 37.6001 44.3002 38.2001C43.3002 38.8001 42.1002 39.5001 40.5002 40.1001C38.9002 40.8001 37.4002 41.1001 36.1002 41.1001H36.0002C34.6002 41.1001 33.2002 40.8001 31.6002 40.1001C30.0002 39.4001 28.8002 38.8001 27.8002 38.2001C26.9002 37.6001 25.6002 36.7001 24.1002 35.6001C23.7002 35.3001 23.2002 34.9001 22.7002 34.6001L2.2002 55.0001C3.4002 56.1001 4.80018 56.6001 6.40018 56.6001H65.6002Z" fill="#1D1D1B"/>
<path d="M4.10001 21.7C2.60001 20.7 1.2 19.5 0 18.2V49.2L18 31.2C14.4 28.8 9.70001 25.6 4.10001 21.7Z" fill="#1D1D1B"/>
<path d="M68 21.7001C62.5 25.4001 57.9 28.6 54 31.3L72 49.3V18.3C70.8 19.5 69.5 20.7001 68 21.7001Z" fill="#1D1D1B"/>
<path d="M65.6 0H6.5C4.4 0 2.80001 0.700006 1.70001 2.10001C0.600012 3.50001 0 5.19999 0 7.29999C0 8.99999 0.700012 10.8 2.20001 12.8C3.70001 14.8 5.19999 16.3 6.89999 17.4C7.79999 18 10.6 20 15.1 23.1C17.6 24.8 19.7 26.3 21.6 27.6C23.2 28.7 24.5 29.6 25.7 30.4C25.8 30.5 26 30.6 26.3 30.8C26.6 31 27 31.3 27.4 31.6C28.3 32.2 29 32.7 29.6 33.1C30.2 33.5 30.9 33.9 31.7 34.4C32.5 34.9 33.3 35.2 34 35.5C34.7 35.7 35.4 35.9 36 35.9H36.1C36.7 35.9 37.4 35.8 38.1 35.5C38.8 35.3 39.6 34.9 40.4 34.4C41.2 33.9 41.9 33.5 42.5 33.1C43.1 32.7 43.8 32.2 44.7 31.6C45.1 31.3 45.5 31 45.8 30.8C46.1 30.6 46.3 30.5 46.4 30.4C47.3 29.8 48.6 28.8 50.5 27.6C53.8 25.3 58.7 21.9 65.2 17.4C67.2 16 68.8 14.4 70.1 12.5C71.4 10.6 72.1 8.49999 72.1 6.39999C72.1 4.59999 71.5 3.09999 70.2 1.89999C68.8 0.599994 67.3 0 65.6 0Z" fill="#1D1D1B"/>
</svg>
