<svg width="44" height="44" viewBox="0 0 44 44" fill="none" xmlns="http://www.w3.org/2000/svg">
<path d="M42.1223 22.0313C42.1223 19.2774 41.6216 16.7112 40.5576 14.2077C39.4936 11.7041 38.0541 9.5761 36.239 7.76102C34.4239 5.94594 32.2959 4.5064 29.7923 3.44239C27.2888 2.37838 24.7226 1.87767 21.9687 1.87767C20.5918 1.87767 19.1522 2.00285 17.6501 2.3158C15.6472 0.813663 13.4566 0 10.9531 0C7.94879 0 5.32006 1.06401 3.19204 3.19204C1.06402 5.32006 0 7.94879 0 10.9531C0 13.4566 0.751075 15.6472 2.3158 17.6501C2.00285 19.0896 1.87767 20.5292 1.87767 21.9687C1.87767 24.7226 2.37838 27.2888 3.44239 29.7923C4.5064 32.2959 5.94594 34.4239 7.76102 36.239C9.5761 38.054 11.7041 39.4936 14.2077 40.5576C16.7112 41.6216 19.2774 42.1223 22.0313 42.1223C23.4083 42.1223 24.8478 41.9971 26.3499 41.6842C28.3528 43.1863 30.5434 44 33.0469 44C36.0512 44 38.68 42.936 40.808 40.808C42.936 38.6799 44 36.0512 44 33.0469C44 30.5434 43.2489 28.3528 41.6842 26.3499C41.9346 24.8478 42.1223 23.4083 42.1223 22.0313ZM32.6088 30.5434C31.9829 31.67 31.1067 32.5462 30.1053 33.2347C29.0413 33.9232 27.8521 34.4239 26.6003 34.7368C25.3485 35.1124 23.9716 35.2376 22.5946 35.2376C19.4026 35.2376 16.5861 34.6117 14.2703 33.3599C11.9545 32.1081 10.7653 30.606 10.7653 28.8535C10.7653 27.9772 11.0156 27.2888 11.5164 26.7255C12.0171 26.1622 12.7055 25.8492 13.707 25.8492C14.2703 25.8492 14.771 25.9744 15.2717 26.2873C15.7724 26.6003 16.2105 26.9758 16.5861 27.4139C16.9616 27.8521 17.3997 28.2902 17.9004 28.7283C18.4011 29.1664 18.9644 29.542 19.7781 29.8549C20.5292 30.1679 21.4054 30.293 22.4068 30.293C23.6586 30.293 24.66 30.0427 25.4111 29.542C26.1622 29.0413 26.5377 28.4154 26.5377 27.7269C26.5377 26.9758 26.2248 26.4125 25.5989 26.037C25.1607 25.7866 24.0967 25.4111 22.4068 25.0356L18.2134 24.0341C17.0868 23.7838 16.0853 23.4708 15.2717 23.0953C14.458 22.7198 13.707 22.2817 12.9559 21.7184C12.2674 21.1551 11.7041 20.404 11.3286 19.5903C10.9531 18.7141 10.7653 17.7127 10.7653 16.5235C10.7653 15.1465 11.0782 13.8947 11.7041 12.8307C12.33 11.7667 13.2063 10.9531 14.2703 10.3272C15.3343 9.70128 16.4609 9.26315 17.7127 9.0128C18.9644 8.69985 20.2162 8.57469 21.468 8.57469C23.2831 8.57469 25.0356 8.82504 26.6629 9.26317C28.2902 9.70129 29.6672 10.3272 30.7312 11.2034C31.7952 12.0797 32.3585 13.0185 32.3585 14.0199C32.3585 14.8962 32.1081 15.5846 31.5448 16.2105C30.9815 16.8364 30.293 17.1494 29.4168 17.1494C28.9161 17.1494 28.478 17.0242 28.0398 16.8364C27.6017 16.5861 27.2262 16.3357 26.9132 16.0228C26.6003 15.7098 26.2247 15.3969 25.8492 15.0839C25.4737 14.771 24.973 14.5206 24.2845 14.2703C23.6586 14.0199 22.9075 13.9573 22.0939 13.9573C19.34 13.9573 17.963 14.7084 17.963 16.1479C17.963 16.4609 18.0256 16.7738 18.1508 17.0242C18.276 17.2745 18.4637 17.4623 18.6515 17.6501C18.8393 17.7753 19.0896 17.963 19.5278 18.0882C19.9033 18.2134 20.2788 18.3385 20.5292 18.4011C20.7795 18.4637 21.2176 18.5889 21.7809 18.7141L24.7852 19.4026C25.724 19.5903 26.5377 19.8407 27.2888 20.091C28.0398 20.3414 28.7909 20.6543 29.6671 21.0925C30.4808 21.5306 31.2319 21.9687 31.7326 22.4694C32.2959 22.9701 32.734 23.6586 33.1095 24.4097C33.4851 25.2233 33.6728 26.0996 33.6728 27.0384C33.5477 28.165 33.2347 29.4168 32.6088 30.5434Z" fill="black"/>
</svg>
