<svg width="75" height="75" viewBox="0 0 75 75" fill="none" xmlns="http://www.w3.org/2000/svg">
<rect width="75" height="75" rx="37.5" fill="#EEEEEE"/>
<path d="M75 37.5C75 16.8232 58.1768 0 37.5 0C16.8232 0 0 16.8232 0 37.5C0 48.4214 4.69636 58.2655 12.1718 65.1245L12.1364 65.1559L13.3527 66.1814C13.4318 66.2482 13.5177 66.3027 13.5968 66.3682C14.2432 66.9041 14.9127 67.4127 15.5945 67.905C15.8155 68.0645 16.0364 68.2241 16.2614 68.3795C16.9895 68.8814 17.7368 69.3573 18.5005 69.8086C18.6668 69.9068 18.8345 70.0023 19.0023 70.0977C19.8382 70.5736 20.6918 71.0223 21.5659 71.4341C21.63 71.4641 21.6955 71.4914 21.7595 71.5214C24.6082 72.8455 27.6491 73.8177 30.8291 74.3918C30.9123 74.4068 30.9955 74.4218 31.08 74.4368C32.0673 74.6073 33.0655 74.7436 34.0759 74.835C34.1986 74.8459 34.3214 74.8527 34.4455 74.8636C35.4518 74.9468 36.4691 75 37.5 75C38.5214 75 39.5291 74.9468 40.53 74.8664C40.6568 74.8555 40.7836 74.8486 40.9105 74.8377C41.9127 74.7464 42.9027 74.6141 43.8805 74.4464C43.965 74.4314 44.0509 74.4164 44.1355 74.4C47.2677 73.8382 50.265 72.8877 53.0768 71.5977C53.1805 71.55 53.2855 71.505 53.3891 71.4559C54.2305 71.0605 55.0527 70.6336 55.8586 70.1795C56.0591 70.0664 56.2582 69.9518 56.4573 69.8345C57.1909 69.4023 57.9123 68.9509 58.6132 68.4709C58.8655 68.2991 59.1123 68.1177 59.3618 67.9377C59.9605 67.5068 60.5482 67.0623 61.1195 66.5973C61.2464 66.495 61.3827 66.4064 61.5068 66.3014L62.7545 65.2595L62.7177 65.2282C70.2586 58.3664 75 48.4773 75 37.5ZM2.72727 37.5C2.72727 18.3259 18.3259 2.72727 37.5 2.72727C56.6741 2.72727 72.2727 18.3259 72.2727 37.5C72.2727 47.8323 67.7386 57.1214 60.5605 63.495C60.1595 63.2182 59.7559 62.97 59.3427 62.7627L47.7968 56.9905C46.7605 56.4723 46.1168 55.4305 46.1168 54.2727V50.2405C46.3841 49.9105 46.6664 49.5368 46.9582 49.1264C48.4527 47.0155 49.6514 44.6673 50.5255 42.1405C52.2532 41.3195 53.3686 39.5986 53.3686 37.6555V32.8214C53.3686 31.6391 52.935 30.4923 52.1591 29.5909V23.2268C52.23 22.5191 52.4809 18.525 49.5914 15.2305C47.0782 12.3614 43.0105 10.9091 37.5 10.9091C31.9895 10.9091 27.9218 12.3614 25.4086 15.2291C22.5191 18.5236 22.77 22.5177 22.8409 23.2255V29.5895C22.0664 30.4909 21.6314 31.6377 21.6314 32.82V37.6541C21.6314 39.1555 22.305 40.5559 23.4586 41.5009C24.5632 45.8277 26.8364 49.1032 27.6764 50.2132V54.1595C27.6764 55.2723 27.0695 56.295 26.0918 56.8295L15.3095 62.7109C14.9659 62.8977 14.625 63.1159 14.2841 63.36C7.19455 56.9891 2.72727 47.7573 2.72727 37.5ZM57.8986 65.6345C57.4214 65.9809 56.9359 66.3164 56.4436 66.6368C56.2173 66.7841 55.9923 66.9314 55.7618 67.0745C55.1182 67.4727 54.4636 67.8518 53.7955 68.2064C53.6482 68.2841 53.4995 68.3577 53.3509 68.4341C51.8155 69.2209 50.2268 69.8973 48.5945 70.4468C48.5373 70.4659 48.48 70.4864 48.4214 70.5055C47.5664 70.7891 46.7005 71.0414 45.825 71.2582C45.8223 71.2582 45.8195 71.2595 45.8168 71.2595C44.9332 71.4777 44.0386 71.6591 43.1386 71.8077C43.1141 71.8118 43.0895 71.8173 43.065 71.8214C42.2182 71.9591 41.3645 72.0586 40.5082 72.1336C40.3568 72.1473 40.2055 72.1568 40.0527 72.1677C39.2059 72.2318 38.355 72.2727 37.5 72.2727C36.6355 72.2727 35.7736 72.2305 34.9159 72.1664C34.7673 72.1555 34.6186 72.1459 34.4714 72.1323C33.6068 72.0559 32.7464 71.9536 31.8941 71.8145C31.8559 71.8077 31.8177 71.8009 31.7795 71.7941C29.9768 71.4927 28.2027 71.0495 26.475 70.47C26.4218 70.4523 26.3673 70.4332 26.3141 70.4155C25.4564 70.1236 24.6082 69.8005 23.775 69.4432C23.7695 69.4405 23.7627 69.4377 23.7573 69.435C22.9691 69.0955 22.1959 68.7191 21.4323 68.3223C21.3327 68.2705 21.2318 68.2214 21.1336 68.1682C20.4368 67.7959 19.755 67.3936 19.0827 66.9736C18.8836 66.8482 18.6859 66.7214 18.4895 66.5932C17.8705 66.1882 17.2595 65.7668 16.665 65.3209C16.6036 65.2745 16.545 65.2255 16.4836 65.1791C16.5273 65.1545 16.5709 65.13 16.6145 65.1055L27.3968 59.2241C29.2514 58.2123 30.4036 56.2718 30.4036 54.1595L30.4023 49.2477L30.0886 48.8686C30.0586 48.8345 27.1105 45.2482 25.9964 40.3923L25.8723 39.8523L25.4073 39.5509C24.7514 39.1268 24.3586 38.4177 24.3586 37.6527V32.8186C24.3586 32.1845 24.6273 31.5941 25.1182 31.1509L25.5682 30.7445V23.1491L25.5559 22.9705C25.5518 22.9377 25.1495 19.6582 27.4595 17.025C29.4314 14.7777 32.8105 13.6364 37.5 13.6364C42.1718 13.6364 45.54 14.7682 47.5173 16.9991C49.8245 19.605 49.4468 22.9459 49.4441 22.9732L49.4318 30.7473L49.8818 31.1536C50.3714 31.5955 50.6414 32.1873 50.6414 32.8214V37.6555C50.6414 38.6277 49.98 39.51 49.0309 39.8032L48.3532 40.0118L48.135 40.6868C47.3305 43.1864 46.185 45.495 44.7314 47.5486C44.3741 48.0532 44.0264 48.5005 43.7277 48.8427L43.3895 49.2286V54.2727C43.3895 56.4709 44.6114 58.4482 46.5777 59.43L58.1236 65.2023C58.1973 65.2391 58.2695 65.2773 58.3418 65.3155C58.1959 65.4259 58.0459 65.5282 57.8986 65.6345Z" fill="#CCCCCC"/>
</svg>
