<svg xmlns="http://www.w3.org/2000/svg">

	<symbol id="search" viewBox="0 0 24 24">
		<path d="M23.6351 21.8602L17.7187 15.9194C19.2399 14.1735 20.0734 11.9768 20.0734 9.68999C20.0734 4.34701 15.5708 0 10.0367 0C4.50255 0 0 4.34701 0 9.68999C0 15.033 4.50255 19.38 10.0367 19.38C12.1143 19.38 14.0941 18.775 15.7868 17.6265L21.7482 23.6124C21.9974 23.8622 22.3325 24 22.6916 24C23.0316 24 23.3541 23.8749 23.5989 23.6474C24.119 23.1641 24.1356 22.3628 23.6351 21.8602ZM10.0367 2.52782C14.1273 2.52782 17.4551 5.74069 17.4551 9.68999C17.4551 13.6393 14.1273 16.8522 10.0367 16.8522C5.94608 16.8522 2.61827 13.6393 2.61827 9.68999C2.61827 5.74069 5.94608 2.52782 10.0367 2.52782Z"/>
	</symbol>

	<symbol id="cart" viewBox="0 0 28 26">
		<path d="M1.03585 2.22375H4.00525L8.23497 18.6424C8.3558 19.1242 8.77014 19.4578 9.23627 19.4578H22.2361C22.6505 19.4578 23.013 19.1983 23.1856 18.7907L27.916 7.11599C28.0541 6.76392 28.0196 6.37476 27.8296 6.05971C27.6397 5.74466 27.3117 5.55937 26.9664 5.55937H12.6028C12.0331 5.55937 11.5669 6.05971 11.5669 6.67124C11.5669 7.28277 12.0331 7.78311 12.6028 7.78311H25.3782L21.5456 17.234H10.0132L5.78349 0.815395C5.66267 0.333562 5.24833 0 4.7822 0H1.03585C0.466131 0 0 0.500343 0 1.11187C0 1.7234 0.466131 2.22375 1.03585 2.22375Z" />
		<path d="M10.1038 26C11.3906 26 12.4372 24.9453 12.4372 23.6485C12.4372 22.3516 11.3906 21.2969 10.1038 21.2969C8.81707 21.2969 7.77051 22.3516 7.77051 23.6484C7.77051 24.9452 8.81707 26 10.1038 26Z" />
		<path d="M21.0496 25.9943C21.1011 25.9943 21.1698 25.9943 21.2214 25.9943C21.8401 25.9425 22.4072 25.6661 22.8197 25.1825C23.2321 24.7162 23.4212 24.1117 23.3868 23.4726C23.3009 22.1945 22.1838 21.2101 20.8949 21.2964C19.6059 21.3828 18.6435 22.5227 18.7295 23.8008C18.8153 25.0271 19.8293 25.9943 21.0496 25.9943Z" />
	</symbol>

	<symbol id="phone" viewBox="0 0 12 12">
		<path d="M5.0765 6.92229C6.26412 8.10893 7.64006 9.24456 8.18398 8.70074C8.96198 7.92291 9.44213 7.24483 11.1587 8.62424C12.8745 10.0029 11.5563 10.9225 10.8023 11.6756C9.93203 12.5457 6.68801 11.7221 3.48149 8.51697C0.275732 5.31111 -0.545778 2.06774 0.325248 1.19764C1.07924 0.44305 1.99452 -0.8741 3.37346 0.841346C4.75315 2.55679 4.07568 3.03685 3.29619 3.81544C2.75451 4.35925 3.88962 5.73491 5.0765 6.92229Z" />
	</symbol>
	<symbol id="mail" viewBox="0 0 14 10">
		<path d="M0.446446 1.07167C0.826001 1.29 6.08378 4.31667 6.27978 4.42917C6.47578 4.54167 6.72933 4.595 6.98444 4.595C7.23956 4.595 7.49311 4.54167 7.68911 4.42917C7.88511 4.31667 13.1429 1.29 13.5224 1.07167C13.9028 0.8525 14.2621 0 13.5644 0H0.405223C-0.292443 0 0.0668901 0.8525 0.446446 1.07167ZM13.699 2.9075C13.2673 3.14833 7.95356 6.115 7.68911 6.26333C7.42467 6.41167 7.23956 6.42917 6.98444 6.42917C6.72933 6.42917 6.54422 6.41167 6.27978 6.26333C6.01533 6.115 0.73189 3.1475 0.300223 2.90667C-0.00310982 2.73667 1.25693e-06 2.93583 1.25693e-06 3.08917C1.25693e-06 3.2425 1.25693e-06 9.16667 1.25693e-06 9.16667C1.25693e-06 9.51667 0.440223 10 0.777779 10H13.2222C13.5598 10 14 9.51667 14 9.16667C14 9.16667 14 3.24333 14 3.09C14 2.93667 14.0031 2.7375 13.699 2.9075Z" />
	</symbol>

	<symbol id="vk" viewBox="0 0 15 9">
		<path fill-rule="evenodd" clip-rule="evenodd" d="M7.08805 8.57476H7.95401C7.95401 8.57476 8.21559 8.54484 8.34913 8.39485C8.47205 8.25715 8.46812 7.99856 8.46812 7.99856C8.46812 7.99856 8.4512 6.78795 8.99049 6.60968C9.5221 6.43407 10.2048 7.77971 10.9283 8.29711C11.4755 8.68869 11.8912 8.60283 11.8912 8.60283L13.8259 8.57476C13.8259 8.57476 14.838 8.5098 14.3581 7.68074C14.3188 7.61292 14.0787 7.06745 12.9197 5.94659C11.7066 4.77348 11.869 4.96323 13.3303 2.93401C14.2203 1.6982 14.576 0.943721 14.4649 0.620579C14.3589 0.312804 13.7044 0.394154 13.7044 0.394154L11.526 0.408293C11.526 0.408293 11.3645 0.385342 11.2448 0.45993C11.1278 0.533082 11.0524 0.703568 11.0524 0.703568C11.0524 0.703568 10.7077 1.65988 10.2478 2.47317C9.27783 4.18929 8.88999 4.27986 8.73147 4.1733C8.3627 3.92495 8.45475 3.1756 8.45475 2.64324C8.45475 0.980196 8.69685 0.286782 7.98331 0.107281C7.74652 0.047652 7.57227 0.00830934 6.9667 0.00195715C6.18945 -0.00644415 5.53157 0.00441579 5.15907 0.194572C4.91126 0.321001 4.72009 0.602752 4.83652 0.61894C4.98049 0.639021 5.30657 0.710534 5.47945 0.955811C5.70268 1.27219 5.69481 1.98282 5.69481 1.98282C5.69481 1.98282 5.82304 3.94052 5.39527 4.18375C5.10164 4.35055 4.69885 4.00999 3.83407 2.45309C3.39096 1.65558 3.05642 0.774056 3.05642 0.774056C3.05642 0.774056 2.99191 0.609309 2.87685 0.521197C2.73721 0.41444 2.54211 0.380425 2.54211 0.380425L0.472111 0.394563C0.472111 0.394563 0.161365 0.40358 0.047294 0.544353C-0.0541902 0.669553 0.0392302 0.928558 0.0392302 0.928558C0.0392302 0.928558 1.65983 4.87881 3.4948 6.8695C5.17736 8.69463 7.08805 8.57476 7.08805 8.57476Z" />
	</symbol>

	<symbol id="inst" viewBox="0 0 14 14">
		<path d="M9.58592 0H3.65359C1.639 0 0 1.70771 0 3.80665V9.98737C0 12.0864 1.639 13.794 3.65359 13.794H9.58592C11.6007 13.794 13.2397 12.0863 13.2397 9.98737V3.80665C13.2397 1.70771 11.6007 0 9.58592 0ZM12.0651 9.98737C12.0651 11.4116 10.9529 12.5702 9.586 12.5702H3.65359C2.28673 12.5702 1.17469 11.4116 1.17469 9.98737V3.80665C1.17469 2.38255 2.28673 1.22387 3.65359 1.22387H9.58592C10.9529 1.22387 12.065 2.38255 12.065 3.80665V9.98737H12.0651Z" />
		<path d="M6.61954 3.34277C4.73839 3.34277 3.20801 4.93723 3.20801 6.89714C3.20801 8.85697 4.73839 10.4514 6.61954 10.4514C8.50068 10.4514 10.0311 8.85697 10.0311 6.89714C10.0311 4.93723 8.50068 3.34277 6.61954 3.34277ZM6.61954 9.2274C5.38619 9.2274 4.3827 8.18205 4.3827 6.89706C4.3827 5.612 5.38611 4.56656 6.61954 4.56656C7.85296 4.56656 8.85638 5.612 8.85638 6.89706C8.85638 8.18205 7.85288 9.2274 6.61954 9.2274Z" />
		<path d="M10.1744 2.30493C9.9481 2.30493 9.72577 2.40039 9.56594 2.56766C9.40532 2.7341 9.31299 2.96582 9.31299 3.20244C9.31299 3.43832 9.4054 3.66996 9.56594 3.83722C9.7257 4.00367 9.9481 4.09995 10.1744 4.09995C10.4015 4.09995 10.6232 4.00367 10.7837 3.83722C10.9442 3.66996 11.0359 3.43824 11.0359 3.20244C11.0359 2.96582 10.9442 2.7341 10.7837 2.56766C10.6239 2.40039 10.4015 2.30493 10.1744 2.30493Z" />
	</symbol>


	<symbol id="facebook" viewBox="0 0 7 15" >
		<path d="M6.3701 7.48555H4.40138V15H1.41861V7.48555H0V4.84468H1.41861V3.13573C1.41861 1.91365 1.97579 0 4.42793 0L6.63738 0.00963054V2.57305H5.03428C4.77133 2.57305 4.40158 2.70993 4.40158 3.2929V4.84714H6.63069L6.3701 7.48555Z" />
	</symbol>

	<symbol id="youtube" viewBox="0 0 18 13">
		<path d="M16.9026 1.18155C16.4238 0.321025 15.9042 0.162742 14.8461 0.10255C13.7891 0.0300961 11.1313 0 8.82865 0C6.52164 0 3.86267 0.0300961 2.80681 0.101435C1.75095 0.162742 1.23019 0.31991 0.746938 1.18155C0.25376 2.04096 0 3.52124 0 6.12733C0 6.12956 0 6.13068 0 6.13068C0 6.13291 0 6.13402 0 6.13402V6.13625C0 8.7312 0.25376 10.2226 0.746938 11.0731C1.23019 11.9336 1.74984 12.0897 2.80571 12.1622C3.86267 12.2246 6.52164 12.2614 8.82865 12.2614C11.1313 12.2614 13.7891 12.2246 14.8472 12.1633C15.9053 12.0908 16.4249 11.9348 16.9037 11.0742C17.4013 10.2237 17.6529 8.73231 17.6529 6.13737C17.6529 6.13737 17.6529 6.13402 17.6529 6.13179C17.6529 6.13179 17.6529 6.12956 17.6529 6.12845C17.6529 3.52124 17.4013 2.04096 16.9026 1.18155ZM6.61983 9.47468V2.78667L12.1364 6.13068L6.61983 9.47468Z" />
	</symbol>

	<symbol id="goods-line" viewBox="0 0 11 11">
		<rect width="11" height="1" />
		<rect y="5" width="11" height="1" />
		<rect y="10" width="11" height="1" />
	</symbol>

	<symbol id="goods-table" viewBox="0 0 11 11" >
		<rect width="5" height="5"/>
		<rect x="6" width="5" height="5"/>
		<rect y="6" width="5" height="5"/>
		<rect x="6" y="6" width="5" height="5"/>
	</symbol>

	<symbol id="load" viewBox="0 0 25 25">
		<g clip-path="url(#clip0)">
			<path d="M24.7176 13.8637C24.3381 13.4804 23.7198 13.4773 23.3365 13.8568L21.0939 16.0772V12.5C21.0939 9.68281 19.9968 7.03428 18.0048 5.04224C16.0128 3.0502 13.3642 1.95312 10.547 1.95312C8.81715 1.95312 7.11041 2.37895 5.59303 3.18696C5.59098 3.18804 5.58893 3.18911 5.58688 3.19019C5.58258 3.19248 5.57829 3.19478 5.57399 3.19712C5.57365 3.19727 5.57335 3.19746 5.57301 3.19761C5.56344 3.20273 5.55387 3.20786 5.54435 3.21304C5.53971 3.21553 5.53507 3.21807 5.53043 3.22056C5.52707 3.22236 5.5237 3.22422 5.52033 3.22603C5.46344 3.25688 5.4068 3.28828 5.35045 3.32026C5.34669 3.32236 5.34298 3.32451 5.33927 3.32671C5.10958 3.45742 4.8838 3.59727 4.66535 3.74429C4.21789 4.04541 4.09923 4.65229 4.40036 5.09971C4.58893 5.37993 4.89733 5.53115 5.21144 5.53115C5.39894 5.53115 5.58854 5.47725 5.75573 5.3647C5.99679 5.20249 6.24874 5.05098 6.5046 4.91431C7.74167 4.2542 9.13449 3.90625 10.547 3.90625C15.2857 3.90625 19.1408 7.76138 19.1408 12.5V16.1003L16.8933 13.9062C16.5073 13.5294 15.889 13.5369 15.5123 13.9229C15.1356 14.3087 15.143 14.927 15.529 15.3038L18.0542 17.769C18.6217 18.323 19.3646 18.5996 20.1075 18.5996C20.8572 18.5996 21.607 18.3177 22.1758 17.7545L24.7107 15.2448C25.094 14.8652 25.097 14.2469 24.7176 13.8637Z" />
			<path d="M1.05298 10.94C0.513428 10.9069 0.0518066 11.3176 0.0193359 11.8559C0.00654297 12.0689 0 12.2855 0 12.5003C4.88281e-05 12.6435 0.00297852 12.788 0.00864258 12.9299C0.0297852 13.4554 0.462451 13.8673 0.983789 13.8673C0.996973 13.8673 1.01021 13.867 1.02358 13.8665C1.56245 13.8449 1.98184 13.3905 1.96025 12.8515C1.95557 12.7354 1.95317 12.617 1.95312 12.4999C1.95312 12.3246 1.95845 12.1475 1.96895 11.9736C2.00142 11.4353 1.59136 10.9725 1.05298 10.94Z" />
			<path d="M3.22211 16.9974C3.06928 16.7492 2.92787 16.4907 2.80165 16.2291C2.56737 15.7433 1.98368 15.5393 1.49784 15.7738C1.01205 16.008 0.808192 16.5918 1.04252 17.0776C1.19755 17.399 1.37123 17.7165 1.55878 18.0212C1.74325 18.3209 2.06347 18.486 2.39135 18.486C2.56596 18.486 2.74271 18.4392 2.90233 18.3409C3.36166 18.0582 3.50482 17.4567 3.22211 16.9974Z" />
			<path d="M10.5471 21.0937C10.2548 21.0937 9.96001 21.0789 9.67099 21.0498C9.13506 20.9952 8.65542 21.3865 8.60122 21.9231C8.54697 22.4598 8.93799 22.9388 9.47466 22.993C9.82866 23.0288 10.1895 23.0469 10.5471 23.0469H10.5473C11.0867 23.0469 11.5238 22.6097 11.5238 22.0703C11.5238 21.531 11.0864 21.0937 10.5471 21.0937Z" />
			<path d="M6.35188 20.0022C6.09803 19.86 5.84842 19.7028 5.61014 19.5352C5.16888 19.225 4.55979 19.3311 4.24959 19.7724C3.93934 20.2135 4.04554 20.8227 4.4867 21.1329C4.77908 21.3385 5.08533 21.5313 5.3969 21.7059C5.54798 21.7906 5.7118 21.8309 5.87351 21.8309C6.21536 21.8309 6.54724 21.651 6.7263 21.3316C6.98992 20.8612 6.82239 20.266 6.35188 20.0022Z" />
			<path d="M3.02383 6.50365C2.57047 6.21171 1.96607 6.34242 1.67403 6.79589C1.48018 7.09682 1.29996 7.41078 1.13834 7.729C0.894048 8.2099 1.08589 8.7977 1.5667 9.04194C1.7084 9.11396 1.85943 9.14804 2.00821 9.14804C2.36417 9.14804 2.70738 8.95268 2.87964 8.61357C3.01129 8.35439 3.15811 8.09867 3.31607 7.85346C3.60806 7.39999 3.47725 6.7957 3.02383 6.50365Z" />
		</g>
		<defs>
			<clipPath id="clip0">
				<rect width="25" height="25" fill="white"/>
			</clipPath>
		</defs>
	</symbol>

	<symbol id="view" viewBox="0 0 13 9">
		<path d="M6.5 0.625366C4.01621 0.625366 1.76378 1.98427 0.101718 4.19149C-0.0339061 4.37232 -0.0339061 4.62496 0.101718 4.80579C1.76378 7.01567 4.01621 8.37457 6.5 8.37457C8.98379 8.37457 11.2362 7.01567 12.8983 4.80845C13.0339 4.62762 13.0339 4.37498 12.8983 4.19415C11.2362 1.98427 8.98379 0.625366 6.5 0.625366ZM6.67817 7.22841C5.02941 7.33213 3.66784 5.97322 3.77156 4.3218C3.85665 2.96023 4.96026 1.85662 6.32183 1.77153C7.97059 1.66781 9.33216 3.02672 9.22844 4.67814C9.14069 6.03705 8.03708 7.14066 6.67817 7.22841ZM6.59573 5.96791C5.70753 6.02375 4.97356 5.29244 5.03206 4.40424C5.07727 3.67027 5.67296 3.07724 6.40692 3.02938C7.29513 2.97353 8.0291 3.70484 7.97059 4.59305C7.92273 5.32967 7.32704 5.9227 6.59573 5.96791Z"/>
	</symbol>

	<symbol id="comments" viewBox="0 0 12 10">
		<path d="M7.08159 6.68385C7.80694 6.37805 8.37957 5.9618 8.79917 5.43494C9.21873 4.90819 9.42853 4.33456 9.42853 3.71402C9.42853 3.09346 9.21873 2.51978 8.79901 1.99302C8.37945 1.46625 7.80692 1.04995 7.08147 0.744079C6.35602 0.438254 5.56698 0.2854 4.71424 0.2854C3.86157 0.2854 3.07253 0.438348 2.34703 0.744079C1.62161 1.04993 1.04906 1.46622 0.629475 1.99302C0.209849 2.51988 0 3.09346 0 3.71405C0 4.24525 0.158718 4.74546 0.47566 5.2142C0.792579 5.68285 1.22787 6.07801 1.7814 6.39939C1.73679 6.50662 1.69103 6.60471 1.64415 6.69412C1.59724 6.78339 1.54149 6.86926 1.4767 6.95191C1.41197 7.03459 1.3618 7.09928 1.32605 7.146C1.29033 7.19286 1.23231 7.25886 1.1519 7.34353C1.07152 7.42837 1.02016 7.48417 0.997877 7.51088C0.997877 7.5064 0.988941 7.51651 0.971069 7.54107C0.953173 7.56563 0.943134 7.57672 0.94093 7.57463C0.938678 7.57222 0.929742 7.58338 0.914121 7.60794C0.8985 7.63252 0.890666 7.64478 0.890666 7.64478L0.873896 7.67816C0.867282 7.69165 0.862732 7.70483 0.860527 7.71832C0.858275 7.73161 0.857149 7.74623 0.857149 7.7618C0.857149 7.77737 0.859354 7.79182 0.863904 7.80529C0.872841 7.86324 0.8985 7.91003 0.940906 7.94592C0.983289 7.98157 1.029 7.99937 1.07816 7.99937H1.09826C1.32143 7.96813 1.51343 7.93243 1.67412 7.89221C2.36162 7.71372 2.98221 7.42788 3.53576 7.03506C3.93752 7.1065 4.33038 7.1422 4.71429 7.1422C5.56703 7.1425 6.35616 6.9897 7.08159 6.68385Z"/>
		<path d="M11.5247 6.93151C11.8417 6.46502 12.0001 5.96408 12.0001 5.4283C12.0001 4.87914 11.8325 4.36543 11.4978 3.8878C11.163 3.41022 10.7075 3.01283 10.1317 2.69586C10.2343 3.03065 10.2856 3.36993 10.2856 3.71375C10.2856 4.31191 10.1363 4.87888 9.83698 5.41465C9.53788 5.95026 9.1093 6.42344 8.55129 6.83422C8.03341 7.20922 7.44411 7.49707 6.78335 7.69803C6.12277 7.89885 5.43299 7.99938 4.71423 7.99938C4.58035 7.99938 4.38389 7.99054 4.125 7.97271C5.02228 8.56187 6.07589 8.8566 7.28565 8.8566C7.66963 8.8566 8.06245 8.82081 8.46427 8.74939C9.0178 9.14237 9.63841 9.42795 10.3259 9.60663C10.4866 9.64693 10.6786 9.68255 10.9018 9.71377C10.9553 9.71825 11.0045 9.70261 11.0491 9.66689C11.0938 9.63119 11.1228 9.58222 11.1362 9.51978C11.1341 9.49297 11.1362 9.47826 11.1429 9.47613C11.1495 9.47402 11.1483 9.45943 11.1395 9.43269C11.1307 9.40586 11.1262 9.39247 11.1262 9.39247L11.1095 9.35907C11.1048 9.35025 11.0973 9.33789 11.0861 9.32231C11.0749 9.30683 11.066 9.29551 11.0592 9.28884C11.0527 9.28218 11.0427 9.27095 11.0292 9.25544C11.0159 9.23996 11.0069 9.22983 11.0024 9.22535C10.9801 9.19854 10.9288 9.14277 10.8485 9.05791C10.768 8.97317 10.7101 8.90733 10.6744 8.86047C10.6387 8.81358 10.5884 8.7489 10.5237 8.66622C10.459 8.5837 10.4031 8.49774 10.3563 8.40843C10.3094 8.31916 10.2636 8.22091 10.219 8.11384C10.7726 7.79213 11.2078 7.39817 11.5247 6.93151Z" />
	</symbol>

	<symbol id="next-arrow" viewBox="0 0 25 8">
		<path d="M24.3536 4.35355C24.5488 4.15829 24.5488 3.84171 24.3536 3.64645L21.1716 0.464466C20.9763 0.269204 20.6597 0.269204 20.4645 0.464466C20.2692 0.659728 20.2692 0.976311 20.4645 1.17157L23.2929 4L20.4645 6.82843C20.2692 7.02369 20.2692 7.34027 20.4645 7.53553C20.6597 7.7308 20.9763 7.7308 21.1716 7.53553L24.3536 4.35355ZM0 4.5H24V3.5H0V4.5Z" />
	</symbol>


	<symbol id="availability" viewBox="0 0 12 10">
		<path d="M0.138462 5.07692C0.0461539 4.98462 0 4.84615 0 4.75385C0 4.66154 0.0461539 4.52308 0.138462 4.43077L0.784615 3.78462C0.969231 3.6 1.24615 3.6 1.43077 3.78462L1.47692 3.83077L4.01538 6.55385C4.10769 6.64615 4.24615 6.64615 4.33846 6.55385L10.5231 0.138462H10.5692V0.138462C10.7538 -0.0461538 11.0308 -0.0461538 11.2154 0.138462L11.8615 0.784615C12.0462 0.969231 12.0462 1.24615 11.8615 1.43077L4.47692 9.09231C4.38462 9.18462 4.29231 9.23077 4.15385 9.23077C4.01538 9.23077 3.92308 9.18462 3.83077 9.09231L0.230769 5.21538L0.138462 5.07692V5.07692Z" fill="#53BA22"/>
	</symbol>

	<symbol id="offer-toggles" viewBox="12 0 15 28">
		<rect x="13.6064" y="0.393463" width="19.2426" height="1.28284" transform="rotate(45 13.6064 0.393463)" />
		<rect x="12.6995" y="26.6996" width="19.2426" height="1.28284" transform="rotate(-45 12.6995 26.6996)" />
	</symbol>

	<symbol id="coffe-pot" viewBox="0 0 98 98">
		<g clip-path="url(#clip0)">
			<path d="M92.2523 46.8063C88.7539 41.2704 83.8745 36.7551 78.1024 33.7031V32.1554H75.2312V35.4676L76.0268 35.8639C87.8095 41.7385 95.1294 53.5593 95.1294 66.7133C95.1294 76.9409 90.6477 86.5307 82.815 93.1043H38.5424C30.7097 86.5307 26.2273 76.9409 26.2273 66.7133C26.2273 53.6707 33.4238 41.9396 45.0316 36.0149H60.6783V33.1438H46.1254V32.1554H43.2543V33.7031C37.4829 36.7551 32.6028 41.2704 29.1044 46.8063C25.3435 52.7578 23.3562 59.641 23.3562 66.7133C23.3562 77.9764 28.3724 88.5248 37.1188 95.6524L37.5143 95.9754H83.8423L84.2378 95.6524C92.9843 88.5248 97.9997 77.9764 97.9997 66.7133C98.0005 59.641 96.0131 52.7578 92.2523 46.8063Z" />
			<path d="M29.2711 58.2122C28.5219 60.9869 28.1421 63.8475 28.1421 66.7134C28.1421 75.8792 32.0383 84.6652 38.8332 90.8187L39.2437 91.1903H82.1136L82.5241 90.8187C89.3183 84.666 93.2152 75.8792 93.2152 66.7134C93.2152 63.8475 92.8354 60.9869 92.0862 58.2122L91.7999 57.1512H29.5575L29.2711 58.2122ZM31.7773 60.0223H89.58C90.0869 62.2183 90.3441 64.4636 90.3441 66.7134C90.3441 74.8878 86.9452 82.7302 80.9996 88.3192H40.3577C34.4122 82.7302 31.0132 74.8878 31.0132 66.7134C31.0132 64.4636 31.2697 62.2183 31.7773 60.0223Z" />
			<path d="M38.7121 30.1457V27.2746H37.6115V23.4741H34.7404V26.8417L20.2099 22.9695L10.164 60.462L6.96617 62.3088L3.51636 61.3847L16.4745 13.0253L23.3718 14.8735L23.1131 15.8395L24.5218 18.2792L34.6372 20.9896L37.0769 19.5817L37.3378 18.6052L38.7928 18.9836L39.5158 16.2044L35.3026 15.1091L34.611 17.6893L34.2319 17.9084L26.4134 15.8134L26.1943 15.4343L26.8889 12.8436L14.4438 9.50891L0 63.4146L7.37141 65.39L12.6291 62.3544L22.2413 26.4828L35.9875 30.1457H38.7121Z" />
			<path d="M41.1045 30.1457H80.2503V16.8018H77.5279L84.9666 2.29675L39.2727 9.81247L41.1045 17.7574V30.1457ZM77.3791 19.6729V27.2746H43.9756V19.6729H77.3791ZM79.8129 6.05386L74.3009 16.8018H43.8306L42.7584 12.149L79.8129 6.05386Z" />
			<path d="M85.7809 50.8968C84.0051 48.0856 81.789 45.6092 79.196 43.5352L80.989 41.2929C83.8324 43.5666 86.2617 46.2814 88.2086 49.3626L85.7809 50.8968ZM77.7358 42.4391C76.9911 41.9157 76.2143 41.4207 75.4262 40.9684L76.855 38.4778C77.7194 38.9743 78.5717 39.5171 79.3875 40.0906L77.7358 42.4391ZM73.812 40.107L71.2422 38.8255L72.523 36.2565L75.0928 37.5373L73.812 40.107Z" />
			<path d="M80.6601 85.9655L78.5928 83.9737C80.9293 81.5489 82.7237 78.7189 83.9267 75.5622L86.6102 76.5858C85.2681 80.1051 83.2665 83.2611 80.6601 85.9655ZM87.2599 74.6747L84.5099 73.8493C84.7694 72.9849 84.984 72.0974 85.1477 71.2114L87.971 71.7333C87.7885 72.721 87.5493 73.7109 87.2599 74.6747ZM88.2648 69.7363L85.4109 69.4222C85.5096 68.525 85.5597 67.6143 85.5597 66.7134H88.4308C88.4308 67.7183 88.3755 68.7359 88.2648 69.7363Z" />
			<path d="M74.9875 24.4588H62.3987V21.5869H74.9875V24.4588ZM60.4846 24.4588H57.6135V21.5869H60.4846V24.4588ZM55.6995 24.4588H52.8284V21.5869H55.6995V24.4588Z" />
		</g>
		<defs>
			<clipPath id="clip0">
				<rect width="98" height="98" fill="white"/>
			</clipPath>
		</defs>
	</symbol>

	<symbol id="link-arrow" viewBox="0 0 28 8">
		<path d="M27.3536 4.35355C27.5488 4.15829 27.5488 3.84171 27.3536 3.64645L24.1716 0.464466C23.9763 0.269204 23.6597 0.269204 23.4645 0.464466C23.2692 0.659728 23.2692 0.976311 23.4645 1.17157L26.2929 4L23.4645 6.82843C23.2692 7.02369 23.2692 7.34027 23.4645 7.53553C23.6597 7.7308 23.9763 7.7308 24.1716 7.53553L27.3536 4.35355ZM0 4.5H27V3.5H0V4.5Z" />
	</symbol>

	<symbol id="knowledge" viewBox="0 0 89 89">
		<g clip-path="url(#clip0)">
			<path d="M83.9489 13.6163H63.0895C62.4797 13.6163 61.8951 13.7222 61.3512 13.9158V5.21484C61.3512 2.33921 59.012 0 56.1364 0H41.5348C38.6592 0 36.32 2.33921 36.32 5.21484V44.959C33.6358 45.2014 31.0528 46.1493 28.842 47.7158C29.4938 45.3447 30.7486 43.1698 32.5344 41.3833C33.2135 40.7043 33.2135 39.6043 32.5344 38.9253C32.0068 38.397 31.2246 38.2816 30.5836 38.5742C30.1436 36.493 29.1122 34.5436 27.5552 32.9866C24.6748 30.1062 20.452 29.0218 16.5341 30.1578C15.9624 30.3235 15.5149 30.771 15.3485 31.3434C14.2132 35.2606 15.2969 39.4834 18.178 42.3645C20.2456 44.4328 23.0058 45.5715 25.8482 45.6306C25.5413 46.5051 25.3036 47.4055 25.1372 48.3249L24.9152 48.1517C22.0348 45.8967 18.436 44.7458 14.7822 44.9115C11.1278 45.0772 7.6485 46.5486 4.98404 49.0548C0.346362 53.4182 -1.10741 60.2919 1.3676 66.1586L2.5002 68.8441C4.75453 74.1893 7.63764 79.14 11.0687 83.559C11.2269 83.7634 11.3865 83.9671 11.5474 84.1702L12.5137 85.3863C14.3375 87.6827 17.0651 89 19.9971 89C22.4388 89 24.8201 88.0439 26.5856 86.3654C28.351 88.0439 30.7323 89 33.1734 89C34.9232 89 36.5977 88.5281 38.0535 87.6617C38.9987 88.5077 40.2365 89 41.5348 89H56.1364C57.4706 89 58.6895 88.4955 59.6129 87.6678C60.5364 88.4955 61.7545 89 63.0895 89H83.9489C86.8245 89 89.1637 86.6608 89.1637 83.7852V18.8312C89.1637 15.9562 86.8245 13.6163 83.9489 13.6163ZM63.0895 17.0929H83.9489C84.907 17.0929 85.6871 17.8731 85.6871 18.8312V23.2638H61.3512V18.8312C61.3512 17.8731 62.1307 17.0929 63.0895 17.0929ZM48.1864 49.0555C45.8669 46.8732 42.9288 45.4764 39.7965 45.0419V14.609H57.8746V74.393H48.0276C48.985 72.597 49.8684 70.746 50.6703 68.8441L51.8029 66.1586C54.2779 60.2919 52.8241 53.4182 48.1864 49.0555ZM41.5348 3.47656H56.1364C57.0945 3.47656 57.8746 4.25607 57.8746 5.21484V11.1325H39.7965V5.21484C39.7965 4.25607 40.576 3.47656 41.5348 3.47656ZM18.4727 33.282C20.8818 32.9085 23.3487 33.6969 25.0965 35.4453C26.845 37.1938 27.6326 39.6607 27.2598 42.0691C24.8514 42.4426 22.3845 41.6549 20.636 39.9058C18.8876 38.158 18.0999 35.6904 18.4727 33.282ZM33.1734 85.5234C31.5458 85.5234 29.961 84.8553 28.8243 83.6915C28.2302 83.0831 27.4357 82.7483 26.5856 82.7483C25.7355 82.7483 24.9403 83.0831 24.3469 83.6915C23.2102 84.856 21.6247 85.5234 19.9971 85.5234C18.1318 85.5234 16.3969 84.6855 15.2372 83.225L14.2709 82.0089C14.1182 81.816 13.9661 81.6218 13.8146 81.4276C10.5696 77.2476 7.84066 72.5597 5.7038 67.4928L4.5712 64.8073C2.65841 60.2729 3.7815 54.9602 7.36671 51.5876C11.6561 47.5522 18.1352 47.2582 22.7722 50.8889L25.2113 52.7989C25.529 53.2097 26.0261 53.4752 26.5856 53.4752C27.1451 53.4752 27.6421 53.2097 27.9599 52.7989L30.3989 50.8889C35.0359 47.2582 41.5151 47.5522 45.8045 51.5876C49.3897 54.9602 50.5128 60.2729 48.6 64.8073L47.4674 67.4928C46.4597 69.8823 45.319 72.1855 44.056 74.393H38.4643C37.5042 74.393 36.726 75.1712 36.726 76.1313C36.726 77.0914 37.5042 77.8696 38.4643 77.8696H41.9103C41.0982 79.0918 40.2481 80.2794 39.3565 81.4269C39.2051 81.6218 39.053 81.8153 38.9002 82.0082L37.934 83.225C36.7742 84.6855 35.0387 85.5234 33.1734 85.5234ZM56.1364 85.5234H41.5348C41.2401 85.5234 40.9604 85.4494 40.7125 85.3163L41.6231 84.1695C41.784 83.9671 41.9436 83.7641 42.1018 83.559C43.5073 81.7495 44.8192 79.8489 46.0353 77.8696H57.8746V83.7852C57.8746 84.7439 57.0945 85.5234 56.1364 85.5234ZM83.9489 85.5234H63.0895C62.1307 85.5234 61.3512 84.7439 61.3512 83.7852V26.7403H85.6871V75.876H72.4762C71.5161 75.876 70.7379 76.6541 70.7379 77.6143C70.7379 78.5744 71.5161 79.3525 72.4762 79.3525H85.6871V83.7852C85.6871 84.7439 84.907 85.5234 83.9489 85.5234Z" />
			<path d="M66.2183 75.876C65.7606 75.876 65.3125 76.062 64.9892 76.3852C64.666 76.7085 64.48 77.1573 64.48 77.6143C64.48 78.0712 64.666 78.5201 64.9892 78.8433C65.3125 79.1665 65.7606 79.3525 66.2183 79.3525C66.6752 79.3525 67.1241 79.1665 67.4473 78.8433C67.7705 78.5201 67.9565 78.0712 67.9565 77.6143C67.9565 77.1573 67.7705 76.7085 67.4473 76.3852C67.1241 76.062 66.6752 75.876 66.2183 75.876Z" />
			<path d="M67.3047 61.3905H79.7334C80.6935 61.3905 81.4717 60.6124 81.4717 59.6522C81.4717 58.6921 80.6935 57.9139 79.7334 57.9139H67.3047C66.3446 57.9139 65.5664 58.6921 65.5664 59.6522C65.5664 60.6124 66.3446 61.3905 67.3047 61.3905Z" />
			<path d="M67.3047 53.0468H79.7334C80.6935 53.0468 81.4717 52.2686 81.4717 51.3085C81.4717 50.3483 80.6935 49.5702 79.7334 49.5702H67.3047C66.3446 49.5702 65.5664 50.3483 65.5664 51.3085C65.5664 52.2686 66.3446 53.0468 67.3047 53.0468Z" />
			<path d="M67.3047 44.703H79.7334C80.6935 44.703 81.4717 43.9249 81.4717 42.9647C81.4717 42.0046 80.6935 41.2264 79.7334 41.2264H67.3047C66.3446 41.2264 65.5664 42.0046 65.5664 42.9647C65.5664 43.9249 66.3446 44.703 67.3047 44.703Z" />
		</g>
		<defs>
			<clipPath id="clip0">
				<rect width="89" height="89" fill="white"/>
			</clipPath>
		</defs>
	</symbol>

	<symbol id="coffe-cup" viewBox="0 0 90 90">
		<g clip-path="url(#clip0)">
			<path d="M79.4648 27.0003H10.4652C9.63707 27.0003 8.96484 26.3295 8.96484 25.5V13.5002C8.96484 12.6707 9.63707 11.9999 10.4652 11.9999H79.4648C80.2929 11.9999 80.9651 12.6707 80.9651 13.5002V25.5C80.9651 26.3295 80.2929 27.0003 79.4648 27.0003ZM11.9648 24.0004H77.9652V14.9998H11.9648V24.0004Z" />
			<path d="M71.9645 14.9998H17.9646C17.473 14.9998 17.0122 14.7588 16.7321 14.3536C16.4512 13.9499 16.3881 13.4342 16.5591 12.9721L20.4146 2.69096C21.0188 1.08284 22.5802 0 24.301 0H65.6288C67.3495 0 68.911 1.08284 69.5138 2.69371L73.3687 12.9735C73.541 13.4356 73.4765 13.9499 73.1963 14.355C72.9175 14.7588 72.4568 14.9998 71.9645 14.9998ZM20.1289 11.9998H69.8002L66.7041 3.74702C66.5379 3.30002 66.106 2.99995 65.6288 2.99995H24.301C23.8238 2.99995 23.3919 3.30002 23.225 3.74565L20.1289 11.9998Z" />
			<path d="M65.0555 90.0001H24.8737C22.7231 90.0001 20.9468 88.3844 20.7428 86.2427L14.9709 25.6428C14.9317 25.2226 15.0698 24.8037 15.3547 24.4906C15.6397 24.1782 16.042 24.0004 16.465 24.0004H73.4648C73.8878 24.0004 74.2895 24.1782 74.5745 24.4906C74.8581 24.8037 74.9981 25.2212 74.959 25.6428L69.187 86.2427C68.9831 88.3844 67.2068 90.0001 65.0555 90.0001ZM18.115 27.0003L23.7311 85.9592C23.786 86.5517 24.2784 87.0001 24.8737 87.0001H65.0541C65.6501 87.0001 66.1431 86.5517 66.1988 85.9592L71.8148 27.0003H18.115Z" />
			<path d="M69.1795 72.0003H20.7504C19.9765 72.0003 19.3297 71.4119 19.2562 70.6428L16.3991 40.6426C16.36 40.2224 16.498 39.8042 16.7829 39.4904C17.0679 39.1786 17.4696 39.0001 17.8926 39.0001H72.0353C72.4582 39.0001 72.8606 39.1786 73.1456 39.4904C73.4291 39.8042 73.5685 40.221 73.5294 40.6426L70.6716 70.6428C70.5981 71.4119 69.952 72.0003 69.1795 72.0003ZM22.1141 69.0004H67.8144L70.3852 42.0001H19.5426L22.1141 69.0004Z" />
			<path d="M44.965 65.9997C39.1752 65.9997 34.4648 61.2886 34.4648 55.5002C34.4648 49.7118 39.1752 45 44.965 45C50.7548 45 55.4652 49.7118 55.4652 55.5002C55.4652 61.2886 50.7548 65.9997 44.965 65.9997ZM44.965 48C40.8294 48 37.4648 51.3645 37.4648 55.5002C37.4648 59.6352 40.8294 62.9997 44.965 62.9997C49.1007 62.9997 52.4646 59.6352 52.4646 55.5002C52.4646 51.3645 49.1007 48 44.965 48Z" />
			<path d="M41.9652 56.9998C41.1371 56.9998 40.4648 56.3296 40.4648 55.5002C40.4648 53.0193 42.4843 50.9999 44.9651 50.9999C45.7932 50.9999 46.4647 51.6707 46.4647 52.5002C46.4647 53.3297 45.7932 53.9998 44.9651 53.9998C44.1384 53.9998 43.4648 54.6721 43.4648 55.5002C43.4648 56.3296 42.7933 56.9998 41.9652 56.9998Z" />
			<path d="M67.465 20.9997H10.4652C9.63707 20.9997 8.96484 20.3295 8.96484 19.5001C8.96484 18.6706 9.63707 17.9998 10.4652 17.9998H67.465C68.2931 17.9998 68.9646 18.6706 68.9646 19.5001C68.9646 20.3295 68.2931 20.9997 67.465 20.9997Z" />
			<path d="M79.4648 20.9997H73.4649C72.6368 20.9997 71.9646 20.3295 71.9646 19.5001C71.9646 18.6706 72.6368 17.9998 73.4649 17.9998H79.4648C80.2929 17.9998 80.9651 18.6706 80.9651 19.5001C80.9651 20.3295 80.2929 20.9997 79.4648 20.9997Z" />
			<path d="M52.4646 81.0002H28.4649C27.6368 81.0002 26.9646 80.3294 26.9646 79.4999C26.9646 78.6704 27.6368 78.0002 28.4649 78.0002H52.4646C53.2927 78.0002 53.9649 78.6704 53.9649 79.4999C53.9649 80.3294 53.2927 81.0002 52.4646 81.0002Z" />
			<path d="M61.4651 81.0002H58.4652C57.6371 81.0002 56.9648 80.3294 56.9648 79.4999C56.9648 78.6704 57.6371 78.0002 58.4652 78.0002H61.4651C62.2932 78.0002 62.9648 78.6704 62.9648 79.4999C62.9648 80.3294 62.2932 81.0002 61.4651 81.0002Z" />
		</g>
		<defs>
			<clipPath id="clip0">
				<rect width="90" height="90" fill="white"/>
			</clipPath>
		</defs>
	</symbol>





</svg>