<svg width="116" height="116" viewBox="0 0 116 116" fill="none" xmlns="http://www.w3.org/2000/svg">
<path d="M16.1875 10C16.1875 4.47715 20.6647 0 26.1875 0H78L99.8125 21.8082V106C99.8125 111.523 95.3353 116 89.8125 116H26.1875C20.6647 116 16.1875 111.523 16.1875 106V10Z" fill="#536CEE"/>
<path d="M40.9443 97.4937V103.06H38.2383V87.6597C38.8836 87.6597 39.5803 87.6524 40.3283 87.6377C41.0909 87.6231 41.8536 87.6157 42.6163 87.6157C43.7016 87.6157 44.6403 87.7551 45.4323 88.0337C46.2389 88.2977 46.8623 88.6717 47.3023 89.1557C47.7423 89.6251 48.0649 90.1457 48.2703 90.7177C48.4756 91.2751 48.5783 91.8911 48.5783 92.5657C48.5783 93.9591 48.0796 95.1397 47.0823 96.1077C46.0996 97.0758 44.7209 97.5598 42.9463 97.5598C42.0516 97.5598 41.3843 97.5377 40.9443 97.4937ZM42.8803 90.1458L40.9443 90.1897V94.9198C41.7216 94.9931 42.3596 95.0297 42.8583 95.0297C43.7236 95.0297 44.4129 94.8171 44.9263 94.3917C45.4543 93.9664 45.7183 93.3504 45.7183 92.5437C45.7183 90.9451 44.7723 90.1458 42.8803 90.1458Z" fill="#F6F6F6"/>
<path d="M53.117 103.06H52.809V87.6597H53.095C53.7403 87.6597 54.4223 87.6524 55.141 87.6377C56.5783 87.6084 57.3117 87.5938 57.341 87.5938C60.333 87.5938 62.5477 88.3564 63.985 89.8817C65.3197 91.3044 65.987 93.0791 65.987 95.2057C65.987 97.4937 65.217 99.3858 63.677 100.882C62.1517 102.363 59.981 103.104 57.165 103.104C56.5783 103.104 55.9623 103.096 55.317 103.082C54.6863 103.067 53.953 103.06 53.117 103.06ZM57.297 90.1238C56.725 90.1238 56.131 90.1457 55.515 90.1897V100.53C56.1897 100.559 56.769 100.574 57.253 100.574C59.0863 100.574 60.5237 100.09 61.565 99.1217C62.6063 98.1537 63.127 96.8484 63.127 95.2057C63.127 93.6364 62.6063 92.3971 61.565 91.4877C60.5383 90.5784 59.1157 90.1238 57.297 90.1238Z" fill="#F6F6F6"/>
<path d="M72.9216 103.06H70.2156V87.6597H79.0156V90.1897H72.9216V94.5457H78.3556V97.0758H72.9216V103.06Z" fill="#F6F6F6"/>
<path d="M77.9941 0L99.8123 21.8181H87.9941C82.4713 21.8181 77.9941 17.341 77.9941 11.8181V0Z" fill="#95A6FF"/>
</svg>
