<svg width="554" height="485" viewBox="0 0 554 485" fill="none" xmlns="http://www.w3.org/2000/svg">
<path fill-rule="evenodd" clip-rule="evenodd" d="M237.01 0.298384C298.871 -2.81275 359.019 18.5156 405.805 59.1046C456.32 102.928 510.509 161.959 499.364 227.899C488.612 291.515 403.466 303.13 356.997 347.886C312.346 390.891 297.617 467.547 237.01 480.583C170.123 494.971 97.8399 463.763 51.2611 413.649C5.93492 364.882 -4.33436 294.161 2.15113 227.899C8.00335 168.108 41.2386 117.079 84.3808 75.2698C126.696 34.2621 178.159 3.25815 237.01 0.298384Z" fill="#F1F7FC"/>
<path d="M134.384 299.927C134.384 367.871 217.129 394.31 268.629 405.459C320.129 416.609 407.758 415.83 437.443 390.005C467.128 364.181 454.408 342.968 471.525 324.522C496.577 297.524 557.442 287.63 552.223 242.437C542.607 159.155 434.607 164.349 328.033 168.038C221.459 171.727 134.384 214.461 134.384 299.927Z" fill="#DBDBDB"/>
<path d="M134.384 299.927C134.384 367.871 217.129 394.31 268.629 405.459C320.129 416.609 407.758 415.83 437.443 390.005C467.128 364.181 454.408 342.968 471.525 324.522C496.577 297.524 557.442 287.63 552.223 242.437C542.607 159.155 434.607 164.349 328.033 168.038C221.459 171.727 134.384 214.461 134.384 299.927Z" fill="url(#paint0_linear_2_4161)"/>
<path d="M224.537 149.583C224.537 135.488 235.963 124.061 250.059 124.061H440.911C455.006 124.061 466.433 135.488 466.433 149.583V312.91C466.433 315.01 466.174 317.101 465.662 319.136L453.615 367.03C451.31 376.196 444.127 383.338 434.947 385.591L347.275 407.107C344.477 407.794 341.582 408.001 338.715 407.722L247.582 398.836C234.508 397.561 224.537 386.57 224.537 373.434V149.583Z" fill="#F1F7FC" stroke="#BCDCFD" stroke-width="2.4307"/>
<rect x="306.403" y="149.896" width="104.04" height="12.2974" rx="3.40298" fill="#8DC1FF"/>
<rect x="431.251" y="149.896" width="10.0684" height="12.2974" rx="3.40298" fill="#BCDCFD"/>
<rect x="262.773" y="141.904" width="30.8765" height="28.2839" rx="14.142" fill="#BCDCFD"/>
<path d="M256.475 148.052L248.982 154.916C248.388 155.46 248.388 156.342 248.982 156.886L256.475 163.75" stroke="#BCDCFD" stroke-width="2.4307" stroke-linecap="round"/>
<mask id="mask0_2_4161" style="mask-type:alpha" maskUnits="userSpaceOnUse" x="134" y="168" width="420" height="247">
<path d="M134.384 299.929C134.384 343.94 217.616 392.939 268.629 405.461C319.643 417.983 404.553 419.828 437.443 390.007C470.333 360.186 453.217 334.669 470.333 316.223C495.385 289.225 563.034 299.929 552.223 242.439C536.705 159.907 433.416 168.748 328.033 168.04C222.65 167.332 134.384 214.463 134.384 299.929Z" fill="#DBDBDB"/>
</mask>
<g mask="url(#mask0_2_4161)">
<rect x="224.537" y="124.064" width="241.896" height="308.692" rx="28.4392" fill="#F1F7FC" stroke="#BCDCFD" stroke-width="2.4307"/>
</g>
<path d="M231.225 306.078H318.947C323.511 306.078 327.211 309.778 327.211 314.343V388.814C327.211 393.378 323.511 397.079 318.947 397.079H231.225V306.078Z" fill="#EBA8D3"/>
<path d="M231.225 306.078H318.947C323.511 306.078 327.211 309.778 327.211 314.343V388.814C327.211 393.378 323.511 397.079 318.947 397.079H231.225V306.078Z" fill="#BCDCFD"/>
<path d="M224.514 186.178H384.728C389.292 186.178 392.992 189.878 392.992 194.442V251.083C392.992 255.647 389.292 259.347 384.728 259.347H224.514V186.178Z" fill="#BCDCFD"/>
<path d="M462.799 228.604H317.352C312.788 228.604 309.088 232.305 309.088 236.869V336.55C309.088 341.114 312.788 344.814 317.352 344.814H462.799V228.604Z" fill="#BCDCFD"/>
<path d="M225.184 186.797C170.723 207.336 134.384 244.715 134.384 299.927C134.384 367.871 217.129 394.31 268.629 405.459C320.129 416.609 407.758 415.83 437.443 390.005C467.128 364.181 454.408 342.968 471.525 324.522C496.577 297.524 557.442 287.63 552.223 242.437C547.025 197.42 513.081 178.254 466.155 170.728" stroke="#BCDCFD" stroke-width="2.4307"/>
<path fill-rule="evenodd" clip-rule="evenodd" d="M211.114 296.237C206.55 296.237 202.85 299.937 202.85 304.502L202.85 364.786V405.557C202.85 408.083 205.841 409.415 207.718 407.725L230.469 387.238H315.406C319.971 387.238 323.671 383.538 323.671 378.973V304.502C323.671 299.937 319.971 296.237 315.406 296.237H211.114Z" fill="#EBA8D3"/>
<path fill-rule="evenodd" clip-rule="evenodd" d="M211.114 296.237C206.55 296.237 202.85 299.937 202.85 304.502L202.85 364.786V405.557C202.85 408.083 205.841 409.415 207.718 407.725L230.469 387.238H315.406C319.971 387.238 323.671 383.538 323.671 378.973V304.502C323.671 299.937 319.971 296.237 315.406 296.237H211.114Z" fill="url(#paint1_linear_2_4161)"/>
<path d="M202.85 304.502H204.065H202.85ZM202.85 364.786H201.634H202.85ZM207.718 407.725L208.532 408.628H208.532L207.718 407.725ZM230.469 387.238V386.022H230.002L229.656 386.335L230.469 387.238ZM204.065 304.502C204.065 300.609 207.221 297.453 211.114 297.453V295.022C205.878 295.022 201.634 299.266 201.634 304.502H204.065ZM204.065 364.786L204.065 304.502H201.634L201.634 364.786H204.065ZM204.065 405.557V364.786H201.634V405.557H204.065ZM206.905 406.822C205.81 407.808 204.065 407.031 204.065 405.557H201.634C201.634 409.135 205.873 411.022 208.532 408.628L206.905 406.822ZM229.656 386.335L206.905 406.822L208.532 408.628L231.282 388.141L229.656 386.335ZM315.406 386.022H230.469V388.453H315.406V386.022ZM322.455 378.973C322.455 382.866 319.299 386.022 315.406 386.022V388.453C320.642 388.453 324.886 384.209 324.886 378.973H322.455ZM322.455 304.502V378.973H324.886V304.502H322.455ZM315.406 297.453C319.299 297.453 322.455 300.609 322.455 304.502H324.886C324.886 299.266 320.642 295.022 315.406 295.022V297.453ZM211.114 297.453H315.406V295.022H211.114V297.453Z" fill="#BCDCFD"/>
<path fill-rule="evenodd" clip-rule="evenodd" d="M245.865 330.086C240.417 335.046 240.417 343.087 245.865 348.047L260.513 361.381L265.994 366.371C266.736 367.046 267.87 367.046 268.612 366.371L274.079 361.395C274.091 361.384 274.102 361.373 274.114 361.363L288.706 348.079C294.155 343.12 294.155 335.078 288.706 330.118C283.257 325.158 274.424 325.158 268.975 330.118L268.285 330.746C267.729 331.253 266.878 331.253 266.322 330.746L265.596 330.086C260.148 325.126 251.314 325.126 245.865 330.086Z" fill="#FFFCFC"/>
<rect x="291.636" y="371.867" width="25.5067" height="4.91894" rx="2.45947" fill="#A0CCFE"/>
<path fill-rule="evenodd" clip-rule="evenodd" d="M193.845 176.338C189.281 176.338 185.581 180.038 185.581 184.602V229.524L185.581 229.524V264.783C185.581 267.309 188.573 268.641 190.45 266.951L209.821 249.507H378.014C382.578 249.507 386.278 245.807 386.278 241.243V184.602C386.278 180.038 382.578 176.338 378.014 176.338H193.845Z" fill="url(#paint2_linear_2_4161)"/>
<rect x="243.122" y="197.243" width="108.739" height="12.2974" rx="3.40298" fill="#FFEFF9"/>
<rect x="243.122" y="215.691" width="114.109" height="12.2974" rx="3.40298" fill="#FFEFF9"/>
<path fill-rule="evenodd" clip-rule="evenodd" d="M499.506 213.235C504.07 213.235 507.77 216.935 507.77 221.5V307.027L507.922 307.003V342.262C507.922 344.788 504.93 346.12 503.053 344.43L483.682 326.986H315.337C310.773 326.986 307.073 323.286 307.073 318.721V221.5C307.073 216.935 310.773 213.235 315.337 213.235H499.506Z" fill="#FFFCFC"/>
<mask id="mask1_2_4161" style="mask-type:alpha" maskUnits="userSpaceOnUse" x="307" y="213" width="201" height="133">
<path fill-rule="evenodd" clip-rule="evenodd" d="M499.506 213.237C504.07 213.237 507.77 216.937 507.77 221.502V307.028L507.922 307.004V342.263C507.922 344.789 504.931 346.121 503.054 344.431L483.683 326.988H315.337C310.773 326.988 307.073 323.288 307.073 318.723V221.502C307.073 216.937 310.773 213.237 315.337 213.237H499.506Z" fill="#FFFCFC"/>
</mask>
<g mask="url(#mask1_2_4161)">
<path d="M482.21 192.329H565.312L518.196 350.35H435.094L482.21 192.329Z" fill="url(#paint3_linear_2_4161)"/>
<path d="M356.225 189.869L420.512 192.329L377.889 334.671L313.602 332.211L356.225 189.869Z" fill="url(#paint4_linear_2_4161)"/>
</g>
<path d="M509.448 298.7H508.233V298.018L508.815 297.662L509.448 298.7ZM504.588 345.698L505.398 344.792H505.398L504.588 345.698ZM485.366 328.521V327.305H485.83L486.176 327.615L485.366 328.521ZM510.664 298.7V343.523H508.233V298.7H510.664ZM503.778 346.604L484.556 329.427L486.176 327.615L505.398 344.792L503.778 346.604ZM485.366 329.736H448.702V327.305H485.366V329.736ZM508.815 297.662L512.842 295.203L514.109 297.277L510.082 299.737L508.815 297.662ZM510.664 343.523C510.664 347.093 506.441 348.983 503.778 346.604L505.398 344.792C506.494 345.771 508.233 344.993 508.233 343.523H510.664Z" fill="#BCDCFD"/>
<rect x="355.889" y="258.733" width="97.9993" height="12.2974" rx="3.40298" fill="#BCDCFD"/>
<rect x="355.889" y="277.181" width="81.8899" height="12.2974" rx="3.40298" fill="#A0CCFE"/>
<rect x="355.889" y="240.288" width="81.8899" height="12.2974" rx="3.40298" fill="#BCDCFD"/>
<rect x="441.469" y="277.795" width="34.9039" height="12.2974" rx="3.40298" fill="#BCDCFD"/>
<rect x="464.141" y="309.152" width="25.5067" height="4.91894" rx="2.45947" fill="#DDEDFC"/>
<rect x="441.32" y="240.288" width="48.3284" height="12.2974" rx="3.40298" fill="#A0CCFE"/>
<path fill-rule="evenodd" clip-rule="evenodd" d="M333.123 304.896C331.259 306.599 331.259 309.359 333.123 311.062L338.134 315.639L339.145 316.563C339.888 317.242 341.025 317.242 341.768 316.563L342.775 315.644C342.779 315.64 342.783 315.636 342.787 315.633L347.779 311.073C349.643 309.37 349.643 306.61 347.779 304.907C345.915 303.205 342.892 303.205 341.028 304.907C340.705 305.203 340.209 305.203 339.885 304.907L339.873 304.896C338.009 303.193 334.987 303.193 333.123 304.896Z" fill="#DDEDFC"/>
<path fill-rule="evenodd" clip-rule="evenodd" d="M196.637 152.323C206.462 154.379 215.714 157.899 222.985 161.388V164.091C215.724 160.514 206.231 156.814 196.139 154.702C182.678 151.886 168.349 151.937 156.808 158.637C145.381 165.272 140.936 177.655 145.091 189.146C149.213 200.545 161.949 211.407 185.586 214.706V217.16C161.171 213.838 147.352 202.548 142.805 189.972C138.234 177.33 143.187 163.735 155.588 156.535C167.876 149.401 182.913 149.452 196.637 152.323ZM386.093 209.439C411.318 206.709 438.712 206.461 469.695 214.408C494.619 220.801 512.808 236.928 516.083 254.116C517.531 261.713 516.094 269.608 510.942 277.118V281.177C518.048 272.398 520.223 262.856 518.471 253.661C514.95 235.188 495.718 218.573 470.299 212.054C439.068 204.043 411.423 204.272 386.093 206.992V209.439ZM306.888 278.308V275.752C257.092 259.477 220.167 263.781 199.825 278.616C187.577 287.548 181.401 300.279 182.175 314.438C182.858 326.948 188.956 340.446 200.835 353.353V349.708C190.432 337.74 185.213 325.494 184.602 314.305C183.876 301.016 189.635 289.056 201.257 280.58C220.808 266.322 257.113 261.87 306.888 278.308Z" fill="url(#paint5_linear_2_4161)"/>
<g clip-path="url(#clip0_2_4161)">
<rect x="319.642" y="225.528" width="29.534" height="27.0542" rx="13.5271" fill="#8EC2FF"/>
<path d="M336.089 243.482C334.891 242.715 334.582 242.603 335.569 238.917L336.392 235.031C336.429 234.856 336.295 234.691 336.117 234.691L330.028 234.691C329.899 234.691 329.787 234.778 329.756 234.903L326.7 246.884C326.694 246.907 326.691 246.932 326.692 246.955C326.711 247.405 327.081 247.628 327.534 247.731C327.845 247.802 330.592 247.977 330.907 248.027L331.472 248.117C331.513 248.124 331.556 248.121 331.596 248.109L335.336 246.999C339.817 246.19 337.048 244.097 336.089 243.482Z" fill="#FFD0B6"/>
<path d="M328.679 241.222L333.075 237.454L335.084 237.956L335.461 244.236C334.917 244.111 333.627 243.709 332.823 243.106C332.02 242.503 329.725 242.687 328.679 242.855V241.222Z" fill="#FDC0A7"/>
<path d="M335.587 227.531C337.722 228.285 338.692 230.122 339.716 232.932C340.74 235.742 341.426 239.867 340.06 242.543C339.239 244.151 339.473 243.357 338.845 244.487C338.217 245.618 336.414 244.974 335.198 244.488C333.419 243.775 332.703 240.561 332.799 239.869C332.894 239.178 334.408 238.767 332.799 238.169C331.722 237.769 331.106 238.588 328.935 241.495C328.899 241.543 328.879 241.605 328.878 241.666C328.857 245.246 327.636 246.912 324.503 246.189C319.428 244.574 320.212 241.223 320.978 239.001C321.039 238.825 321.252 238.76 321.417 238.846C323.752 240.063 326.126 236.873 325.233 235.98C323.223 233.971 324.457 229.619 326.168 227.908C327.549 226.527 329.889 226.891 330.58 226.986C331.271 227.082 332.94 226.597 335.587 227.531Z" fill="#232B7D"/>
<path d="M328.749 239.429C329.377 239.429 330.692 238.943 330.571 238.579C330.521 238.432 329.609 238.57 328.749 238.585C328.055 238.597 327.605 238.473 327.548 238.585C327.423 238.836 328.121 239.429 328.749 239.429Z" fill="white"/>
<path d="M321.418 255.312C318.055 254.051 319.367 251.326 322.301 248.792L324.181 249.431C324.37 252.381 323.611 256.135 321.418 255.312Z" fill="#232B7D"/>
<path d="M321.143 255.353C321.143 254.058 323.221 251.086 324.476 249.762L327.423 246.748L324.476 260.061C323.153 259.307 321.143 257.549 321.143 255.353Z" fill="#F3C3E2"/>
<path d="M328.763 241.63C327.565 241.63 326.512 239.336 326.266 237.727C326.145 236.94 326.023 236.27 326.206 235.594C326.262 235.42 326.387 235.056 326.387 235.056C326.387 235.056 326.155 234.353 326.144 233.72C326.134 233.154 327.038 232.716 327.663 232.091C328.392 231.362 329.608 229.903 329.608 229.903C329.608 229.903 329.495 231.198 330.094 232.334C330.823 233.72 331.552 234.036 332.698 234.475C334.11 235.017 334.573 235.004 334.707 235.946C334.833 236.825 335.02 238.23 334.079 239.337C332.531 241.158 330.186 241.63 328.763 241.63Z" fill="#FFD0B6"/>
<path d="M328.264 238.37C327.535 238.37 327.171 238.492 327.535 238.977C327.778 239.099 327.899 239.989 328.628 240.07C329.721 240.192 330.571 239.22 330.571 238.856C330.571 238.491 328.992 238.37 328.264 238.37Z" fill="#FDC0A7"/>
<path d="M328.749 239.672C329.478 239.672 330.637 239.02 330.571 238.822C330.542 238.735 329.609 238.842 328.749 238.857C328.056 238.869 327.605 238.715 327.549 238.827C327.423 239.079 328.121 239.672 328.749 239.672Z" fill="white"/>
<path d="M327.116 233.478C325.658 233.114 326.387 234.878 326.387 235.068C326.387 235.257 326.023 235.907 326.144 236.514C326.266 237.121 326.92 237.607 327.844 237.607C328.769 237.607 327.116 237.243 327.237 236.514C327.723 236.15 328.361 235.202 328.428 235.068C328.553 234.816 328.025 233.705 327.116 233.478Z" fill="url(#paint6_linear_2_4161)"/>
<path d="M330.688 234.479C331.384 234.326 331.964 234.633 332.196 234.941" stroke="#232B7D" stroke-width="0.281254" stroke-linecap="round"/>
<path d="M326.669 234.479C327.365 234.326 327.945 234.633 328.177 234.941" stroke="#232B7D" stroke-width="0.281254" stroke-linecap="round"/>
<path d="M328.126 233.351C327.908 233.569 326.158 234.03 325.935 233.37C325.831 233.062 326.391 232.767 326.954 232.688C327.388 232.627 327.829 232.736 327.943 232.807C328.205 232.969 328.229 233.25 328.126 233.351Z" fill="#232B7D"/>
<path d="M332.509 233.99C332.201 234.125 330.304 233.863 330.378 233.078C330.413 232.712 331.084 232.641 331.664 232.798C332.111 232.919 332.49 233.22 332.569 233.343C332.752 233.624 332.652 233.928 332.509 233.99Z" fill="#232B7D"/>
<path d="M331.685 234.815C331.685 235.023 331.516 235.192 331.308 235.192C331.1 235.192 330.931 235.023 330.931 234.815C330.931 234.607 331.1 234.438 331.308 234.438C331.516 234.438 331.685 234.607 331.685 234.815Z" fill="#232B7D"/>
<path d="M327.666 234.815C327.666 235.023 327.497 235.192 327.289 235.192C327.081 235.192 326.912 235.023 326.912 234.815C326.912 234.607 327.081 234.438 327.289 234.438C327.497 234.438 327.666 234.607 327.666 234.815Z" fill="#232B7D"/>
<path d="M328.302 234.817C327.8 236.199 327.185 236.49 327.298 236.827C327.423 237.204 327.967 237.329 328.177 237.455" stroke="#FDC0A7" stroke-width="0.281254" stroke-linecap="round"/>
</g>
<g clip-path="url(#clip1_2_4161)">
<rect width="29.534" height="27.0542" rx="13.5271" transform="matrix(-1 0 0 1 227.685 188.637)" fill="#E688C5"/>
<path d="M211.991 207.109C213.19 206.341 213.715 203.687 212.372 201.275L211.034 198.191C210.953 198.005 211.089 197.798 211.292 197.798L217.272 197.798C217.412 197.798 217.532 197.902 217.55 198.042L219.178 210.106C219.178 210.425 216.735 211.084 216.42 211.134L215.855 211.224C215.814 211.231 215.771 211.228 215.731 211.216L211.991 210.106C207.51 209.296 211.032 207.723 211.991 207.109Z" fill="#FFD0B6"/>
<path d="M218.648 204.328L214.252 200.561L212.243 201.063C212.243 201.063 212.858 203.881 212.858 204.921C212.858 205.961 211.866 207.343 211.866 207.343C212.41 207.217 213.7 206.815 214.504 206.212C215.307 205.609 217.602 205.794 218.648 205.961V204.328Z" fill="#FDC0A7"/>
<path d="M211.74 190.638C209.605 191.392 208.635 193.229 207.611 196.039C206.587 198.849 208.483 201.031 209.941 201.518C211.062 201.892 212.902 202.265 213.693 202.418C213.881 202.454 214.036 202.289 213.917 202.139C213.648 201.8 213.26 201.747 214.528 201.276C215.586 200.882 216.2 199.589 218.282 202.271C218.375 202.391 218.546 202.421 218.669 202.33C219.294 201.87 221.101 200.479 222.094 199.087C223.31 197.385 222.833 193.749 221.122 192.038C219.722 190.638 217.438 189.998 216.747 190.093C216.056 190.189 214.387 189.704 211.74 190.638Z" fill="#FFEFF9"/>
<path d="M218.578 202.535C217.95 202.535 216.635 202.049 216.756 201.685C216.806 201.537 217.718 201.675 218.578 201.69C219.271 201.702 219.722 201.578 219.778 201.69C219.904 201.941 219.206 202.535 218.578 202.535Z" fill="white"/>
<path d="M225.909 218.422C229.273 217.16 227.96 214.435 225.026 211.901L223.146 212.54C222.958 215.491 223.716 219.244 225.909 218.422Z" fill="#7D2343"/>
<path d="M226.184 218.46C226.184 217.166 224.106 214.194 222.85 212.87L219.904 209.855L222.85 223.168C224.174 222.415 226.184 220.657 226.184 218.46Z" fill="#F3C3E2"/>
<path d="M218.564 204.738C219.762 204.738 220.815 202.444 221.061 200.835C221.182 200.048 221.304 199.378 221.12 198.702C221.064 198.528 220.94 198.163 220.94 198.163C220.94 198.163 221.171 197.461 221.183 196.828C221.193 196.261 220.999 195.221 220.658 194.406C220.237 193.402 219.402 193.402 218.398 193.402L218.397 193.402C217.392 193.402 216.136 193.653 215.759 194.155C214.824 195.402 215.759 196.165 214.629 197.583C213.686 198.766 212.754 198.112 212.62 199.053C212.494 199.933 212.307 201.338 213.248 202.445C214.796 204.266 217.141 204.738 218.564 204.738Z" fill="#FFD0B6"/>
<path d="M219.178 201.274C219.906 201.274 220.156 201.598 219.792 202.084C219.549 202.205 219.42 202.652 218.691 202.733C217.599 202.854 216.747 202.125 216.747 201.761C216.747 201.396 218.449 201.274 219.178 201.274Z" fill="#E688C5"/>
<path d="M220.211 196.586C221.668 196.221 220.94 197.985 220.94 198.175C220.94 198.365 221.304 199.014 221.183 199.621C221.061 200.229 220.407 200.714 219.483 200.714C218.558 200.714 220.211 200.35 220.09 199.621C219.604 199.257 218.966 198.309 218.899 198.175C218.774 197.924 219.302 196.813 220.211 196.586Z" fill="url(#paint7_linear_2_4161)"/>
<path d="M216.638 197.587C215.943 197.433 215.363 197.741 215.131 198.048" stroke="#7D2343" stroke-width="0.281254" stroke-linecap="round"/>
<path d="M220.657 197.587C219.962 197.433 219.382 197.741 219.15 198.048" stroke="#7D2343" stroke-width="0.281254" stroke-linecap="round"/>
<path d="M219.2 196.461C219.419 196.678 221.169 197.139 221.392 196.479C221.496 196.171 220.936 195.876 220.373 195.797C219.939 195.737 219.498 195.846 219.384 195.916C219.122 196.079 219.098 196.359 219.2 196.461Z" fill="#7D2343"/>
<path d="M222.337 196.566C222.951 195.567 222.094 192.282 219.907 191.553C217.719 190.824 214.961 191.102 214.044 192.04C212.858 193.254 213.159 196.021 213.375 196.566C213.59 197.111 221.724 197.565 222.337 196.566Z" fill="url(#paint8_linear_2_4161)"/>
<path d="M222.337 196.566C222.951 195.567 222.094 192.282 219.907 191.553C217.719 190.824 214.961 191.102 214.044 192.04C212.858 193.254 213.159 196.021 213.375 196.566C213.59 197.111 221.724 197.565 222.337 196.566Z" fill="url(#paint9_linear_2_4161)"/>
<path d="M215.642 197.923C215.642 198.131 215.811 198.299 216.019 198.299C216.227 198.299 216.396 198.131 216.396 197.923C216.396 197.715 216.227 197.546 216.019 197.546C215.811 197.546 215.642 197.715 215.642 197.923Z" fill="#7D2343"/>
<path d="M219.661 197.923C219.661 198.131 219.83 198.299 220.038 198.299C220.246 198.299 220.415 198.131 220.415 197.923C220.415 197.715 220.246 197.546 220.038 197.546C219.83 197.546 219.661 197.715 219.661 197.923Z" fill="#7D2343"/>
<path d="M219.025 197.924C219.527 199.305 220.142 199.596 220.029 199.933C219.904 200.31 219.359 200.436 219.15 200.561" stroke="#FDC0A7" stroke-width="0.281254" stroke-linecap="round"/>
<path d="M216.018 208.326C214.803 208.082 211.643 206.867 208.969 206.624L208.726 208.082L210.427 210.27L217.962 212.458L225.255 210.027C224.687 209.46 223.31 208.18 222.338 207.596C221.122 206.867 217.233 208.569 216.018 208.326Z" fill="#FFD0B6"/>
</g>
<g clip-path="url(#clip2_2_4161)">
<rect width="29.534" height="27.0542" rx="13.5271" transform="matrix(-1 0 0 1 241.779 304.23)" fill="#E688C5"/>
<path d="M226.085 322.701C227.284 321.933 227.809 319.279 226.466 316.867L225.128 313.783C225.047 313.597 225.183 313.39 225.386 313.39L231.366 313.39C231.506 313.39 231.626 313.494 231.644 313.633L233.272 325.698C233.272 326.017 230.829 326.676 230.514 326.726L229.949 326.816C229.908 326.823 229.865 326.82 229.825 326.808L226.085 325.698C221.604 324.888 225.126 323.315 226.085 322.701Z" fill="#FFD0B6"/>
<path d="M232.742 319.92L228.346 316.152L226.337 316.655C226.337 316.655 226.952 319.473 226.952 320.513C226.952 321.553 225.96 322.934 225.96 322.934C226.504 322.809 227.794 322.407 228.598 321.804C229.401 321.201 231.696 321.385 232.742 321.553V319.92Z" fill="#FDC0A7"/>
<path d="M225.834 306.23C223.699 306.984 222.729 308.821 221.705 311.631C220.681 314.441 222.577 316.623 224.035 317.109C225.156 317.484 226.996 317.857 227.787 318.01C227.975 318.046 228.13 317.881 228.011 317.731C227.742 317.392 227.354 317.339 228.622 316.868C229.68 316.474 230.294 315.181 232.376 317.863C232.469 317.983 232.64 318.012 232.763 317.922C233.388 317.461 235.195 316.071 236.188 314.679C237.404 312.977 236.927 309.34 235.216 307.63C233.816 306.23 231.532 305.589 230.841 305.685C230.15 305.78 228.481 305.296 225.834 306.23Z" fill="#FFEFF9"/>
<path d="M232.672 318.126C232.044 318.126 230.729 317.641 230.85 317.276C230.899 317.129 231.812 317.267 232.672 317.282C233.365 317.294 233.816 317.17 233.872 317.282C233.998 317.533 233.3 318.126 232.672 318.126Z" fill="white"/>
<path d="M240.003 334.013C243.367 332.752 242.054 330.027 239.12 327.493L237.24 328.132C237.052 331.082 237.81 334.836 240.003 334.013Z" fill="#7D2343"/>
<path d="M240.278 334.052C240.278 332.758 238.2 329.786 236.944 328.462L233.998 325.447L236.944 338.76C238.268 338.007 240.278 336.248 240.278 334.052Z" fill="#F3C3E2"/>
<path d="M232.658 320.33C233.855 320.33 234.909 318.036 235.155 316.427C235.275 315.64 235.398 314.97 235.214 314.294C235.158 314.12 235.034 313.755 235.034 313.755C235.034 313.755 235.265 313.052 235.276 312.419C235.287 311.853 235.093 310.813 234.751 309.998C234.33 308.994 233.496 308.994 232.492 308.994L232.491 308.994C231.486 308.993 230.23 309.244 229.853 309.747C228.918 310.994 229.853 311.757 228.723 313.175C227.78 314.358 226.848 313.703 226.713 314.645C226.588 315.524 226.401 316.929 227.341 318.036C228.889 319.858 231.235 320.33 232.658 320.33Z" fill="#FFD0B6"/>
<path d="M233.272 316.866C234 316.866 234.25 317.19 233.886 317.676C233.643 317.797 233.514 318.244 232.785 318.325C231.693 318.446 230.841 317.717 230.841 317.352C230.841 316.988 232.543 316.866 233.272 316.866Z" fill="#E688C5"/>
<path d="M234.305 312.177C235.762 311.813 235.034 313.577 235.034 313.767C235.034 313.956 235.398 314.606 235.276 315.213C235.155 315.82 234.501 316.306 233.576 316.306C232.652 316.306 234.305 315.942 234.184 315.213C233.698 314.849 233.06 313.901 232.993 313.767C232.867 313.516 233.396 312.405 234.305 312.177Z" fill="url(#paint10_linear_2_4161)"/>
<path d="M230.732 313.18C230.037 313.026 229.457 313.333 229.225 313.641" stroke="#7D2343" stroke-width="0.281254" stroke-linecap="round"/>
<path d="M234.751 313.18C234.056 313.026 233.476 313.333 233.244 313.641" stroke="#7D2343" stroke-width="0.281254" stroke-linecap="round"/>
<path d="M233.294 312.053C233.513 312.27 235.263 312.731 235.486 312.071C235.59 311.763 235.03 311.468 234.467 311.389C234.033 311.328 233.592 311.437 233.478 311.508C233.216 311.671 233.192 311.951 233.294 312.053Z" fill="#7D2343"/>
<path d="M236.431 312.159C237.044 311.16 236.188 307.875 234.001 307.146C231.813 306.417 229.054 306.695 228.138 307.632C226.952 308.847 227.253 311.614 227.468 312.159C227.684 312.704 235.818 313.158 236.431 312.159Z" fill="url(#paint11_linear_2_4161)"/>
<path d="M229.736 313.515C229.736 313.724 229.905 313.892 230.113 313.892C230.321 313.892 230.49 313.724 230.49 313.515C230.49 313.307 230.321 313.139 230.113 313.139C229.905 313.139 229.736 313.307 229.736 313.515Z" fill="#7D2343"/>
<path d="M233.755 313.515C233.755 313.724 233.924 313.892 234.132 313.892C234.34 313.892 234.509 313.724 234.509 313.515C234.509 313.307 234.34 313.139 234.132 313.139C233.924 313.139 233.755 313.307 233.755 313.515Z" fill="#7D2343"/>
<path d="M233.119 313.516C233.621 314.897 234.236 315.188 234.123 315.525C233.998 315.902 233.453 316.028 233.244 316.153" stroke="#FDC0A7" stroke-width="0.281254" stroke-linecap="round"/>
<path d="M230.112 323.918C228.896 323.675 225.736 322.46 223.063 322.217L222.82 323.675L224.521 325.863L232.056 328.05L239.348 325.62C238.781 325.053 237.404 323.772 236.431 323.189C235.216 322.46 231.327 324.161 230.112 323.918Z" fill="#FFD0B6"/>
</g>
<defs>
<linearGradient id="paint0_linear_2_4161" x1="349.361" y1="405.377" x2="345.217" y2="180.938" gradientUnits="userSpaceOnUse">
<stop stop-color="#BCDCFD"/>
<stop offset="1" stop-color="#8BC0FF"/>
</linearGradient>
<linearGradient id="paint1_linear_2_4161" x1="263.27" y1="408.48" x2="267.403" y2="296.277" gradientUnits="userSpaceOnUse">
<stop stop-color="#81BBFF"/>
<stop offset="1" stop-color="#FF8FDC"/>
</linearGradient>
<linearGradient id="paint2_linear_2_4161" x1="286.265" y1="89.4699" x2="285.974" y2="267.706" gradientUnits="userSpaceOnUse">
<stop stop-color="#EBA8D3"/>
<stop offset="1" stop-color="#FFDCF3"/>
</linearGradient>
<linearGradient id="paint3_linear_2_4161" x1="500.203" y1="192.329" x2="500.203" y2="350.35" gradientUnits="userSpaceOnUse">
<stop stop-color="#F1F7FC" stop-opacity="0"/>
<stop offset="0.338591" stop-color="#F1F7FC"/>
</linearGradient>
<linearGradient id="paint4_linear_2_4161" x1="377.889" y1="192.329" x2="377.889" y2="334.67" gradientUnits="userSpaceOnUse">
<stop stop-color="#F1F7FC" stop-opacity="0"/>
<stop offset="0.338591" stop-color="#F1F7FC"/>
</linearGradient>
<linearGradient id="paint5_linear_2_4161" x1="388.637" y1="128.373" x2="388.637" y2="236.823" gradientUnits="userSpaceOnUse">
<stop stop-color="#6FA6E3"/>
<stop offset="1" stop-color="#E36EB9"/>
</linearGradient>
<linearGradient id="paint6_linear_2_4161" x1="327.359" y1="234.45" x2="327.283" y2="237.607" gradientUnits="userSpaceOnUse">
<stop stop-color="#FDC0A7"/>
<stop offset="1" stop-color="#FDC0A7" stop-opacity="0"/>
</linearGradient>
<linearGradient id="paint7_linear_2_4161" x1="219.968" y1="197.557" x2="220.044" y2="200.714" gradientUnits="userSpaceOnUse">
<stop stop-color="#FDC0A7"/>
<stop offset="1" stop-color="#FDC0A7" stop-opacity="0"/>
</linearGradient>
<linearGradient id="paint8_linear_2_4161" x1="211.399" y1="194.956" x2="227.442" y2="189.608" gradientUnits="userSpaceOnUse">
<stop offset="0.381594" stop-color="#7D2343"/>
<stop offset="1" stop-color="#F8C9E7"/>
</linearGradient>
<linearGradient id="paint9_linear_2_4161" x1="207.024" y1="196.657" x2="227.442" y2="189.608" gradientUnits="userSpaceOnUse">
<stop stop-color="#F8C9E7"/>
<stop offset="0.724008" stop-color="#FFEFF9"/>
</linearGradient>
<linearGradient id="paint10_linear_2_4161" x1="234.062" y1="313.149" x2="234.138" y2="316.306" gradientUnits="userSpaceOnUse">
<stop stop-color="#FDC0A7"/>
<stop offset="1" stop-color="#FDC0A7" stop-opacity="0"/>
</linearGradient>
<linearGradient id="paint11_linear_2_4161" x1="221.118" y1="312.25" x2="241.536" y2="305.201" gradientUnits="userSpaceOnUse">
<stop stop-color="#F8C9E7"/>
<stop offset="0.724008" stop-color="#FFEFF9"/>
</linearGradient>
<clipPath id="clip0_2_4161">
<rect x="319.642" y="225.528" width="29.534" height="27.0542" rx="13.5271" fill="white"/>
</clipPath>
<clipPath id="clip1_2_4161">
<rect width="29.534" height="27.0542" rx="13.5271" transform="matrix(-1 0 0 1 227.685 188.637)" fill="white"/>
</clipPath>
<clipPath id="clip2_2_4161">
<rect width="29.534" height="27.0542" rx="13.5271" transform="matrix(-1 0 0 1 241.779 304.23)" fill="white"/>
</clipPath>
</defs>
</svg>
