<svg width="308" height="245" viewBox="0 0 308 245" fill="none" xmlns="http://www.w3.org/2000/svg">
<g filter="url(#filter0_bii_2_1831)">
<rect width="304.991" height="174.905" rx="12.3216" transform="matrix(0.972997 0.230816 -0.058741 0.998273 10.2739 0)" fill="#F8D6EB"/>
<rect width="304.991" height="174.905" rx="12.3216" transform="matrix(0.972997 0.230816 -0.058741 0.998273 10.2739 0)" fill="url(#paint0_radial_2_1831)" fill-opacity="0.7"/>
</g>
<path d="M234.863 186.736C233.683 186.456 232.697 185.951 231.905 185.221C231.113 184.491 230.529 183.599 230.151 182.545C229.779 181.492 229.63 180.34 229.704 179.09C229.777 177.84 230.056 176.79 230.54 175.94C231.03 175.091 231.702 174.496 232.557 174.157C233.412 173.817 234.429 173.787 235.609 174.066C236.981 174.391 238.088 175.016 238.93 175.941C239.777 176.867 240.332 177.974 240.595 179.264L239.081 179.317C238.893 178.353 238.505 177.536 237.915 176.865C237.326 176.194 236.529 175.74 235.525 175.502C234.641 175.293 233.893 175.324 233.282 175.596C232.67 175.868 232.195 176.337 231.855 177.005C231.515 177.667 231.314 178.484 231.251 179.457C231.189 180.424 231.284 181.311 231.537 182.119C231.79 182.922 232.201 183.601 232.769 184.158C233.338 184.71 234.064 185.09 234.947 185.3C235.952 185.538 236.78 185.468 237.431 185.092C238.082 184.709 238.555 184.096 238.85 183.253L240.316 184.011C239.91 185.137 239.241 185.955 238.31 186.465C237.384 186.97 236.235 187.061 234.863 186.736ZM242.068 188.186L242.799 175.77L244.264 176.117L243.533 188.533L242.068 188.186ZM249.365 190.155C248.794 190.02 248.308 189.81 247.908 189.527C247.512 189.245 247.189 188.917 246.939 188.544C246.688 188.17 246.497 187.777 246.365 187.363C246.234 186.949 246.147 186.538 246.104 186.128C246.067 185.719 246.059 185.343 246.079 185L246.376 179.958L247.858 180.309L247.589 184.878C247.563 185.306 247.577 185.729 247.631 186.147C247.684 186.565 247.792 186.956 247.954 187.32C248.122 187.685 248.354 187.997 248.65 188.256C248.952 188.515 249.336 188.701 249.803 188.811C250.171 188.898 250.509 188.913 250.819 188.855C251.128 188.797 251.397 188.667 251.626 188.464C251.856 188.256 252.04 187.968 252.178 187.601C252.317 187.235 252.401 186.789 252.432 186.266L253.377 186.798C253.326 187.676 253.125 188.397 252.774 188.959C252.429 189.522 251.964 189.909 251.379 190.118C250.799 190.323 250.128 190.336 249.365 190.155ZM252.343 190.621L252.486 188.18L252.322 188.141L252.715 181.46L254.189 181.809L253.652 190.931L252.343 190.621ZM260.025 192.698C259.191 192.5 258.501 192.123 257.955 191.565C257.409 191.002 257.01 190.322 256.756 189.525C256.508 188.724 256.411 187.871 256.465 186.964C256.519 186.046 256.712 185.259 257.046 184.601C257.385 183.945 257.853 183.476 258.448 183.195C259.049 182.915 259.766 182.874 260.601 183.071C261.424 183.266 262.119 183.645 262.687 184.208C263.261 184.767 263.686 185.447 263.961 186.248C264.237 187.05 264.348 187.907 264.294 188.819C264.24 189.732 264.033 190.513 263.672 191.164C263.311 191.815 262.818 192.284 262.195 192.57C261.577 192.852 260.854 192.894 260.025 192.698ZM255.948 191.475L256.665 179.313L258.138 179.662L257.818 185.11L257.653 185.071L257.257 191.785L255.948 191.475ZM259.925 191.278C260.512 191.418 261.007 191.381 261.409 191.168C261.811 190.955 262.124 190.612 262.346 190.139C262.569 189.661 262.7 189.098 262.738 188.451C262.776 187.809 262.714 187.206 262.552 186.643C262.396 186.08 262.129 185.6 261.752 185.203C261.38 184.806 260.893 184.536 260.289 184.393C259.713 184.257 259.227 184.29 258.831 184.493C258.435 184.691 258.129 185.026 257.911 185.5C257.695 185.968 257.566 186.54 257.527 187.216C257.487 187.88 257.543 188.496 257.693 189.062C257.849 189.625 258.111 190.1 258.477 190.49C258.844 190.874 259.327 191.137 259.925 191.278ZM232.794 202.441C231.894 202.227 231.14 201.84 230.533 201.28C229.932 200.715 229.488 200.03 229.202 199.226C228.915 198.421 228.794 197.553 228.838 196.622C228.905 195.673 229.127 194.877 229.504 194.236C229.887 193.59 230.406 193.139 231.061 192.884C231.716 192.628 232.489 192.605 233.378 192.816C234.316 193.038 235.109 193.466 235.756 194.099C236.409 194.733 236.826 195.489 237.009 196.365L235.533 196.47C235.378 195.896 235.097 195.413 234.692 195.02C234.292 194.628 233.821 194.368 233.277 194.239C232.668 194.095 232.157 194.122 231.745 194.322C231.333 194.515 231.015 194.845 230.793 195.312C230.571 195.773 230.438 196.333 230.394 196.99C230.345 198.006 230.525 198.88 230.932 199.61C231.346 200.336 231.994 200.804 232.878 201.013C233.46 201.151 233.951 201.13 234.351 200.951C234.751 200.766 235.066 200.438 235.294 199.967L236.752 200.715C236.395 201.493 235.876 202.029 235.197 202.325C234.517 202.62 233.716 202.659 232.794 202.441ZM240.725 204.32C240.061 204.163 239.511 203.907 239.076 203.552C238.646 203.193 238.328 202.781 238.122 202.316C237.921 201.851 237.835 201.374 237.864 200.884C237.892 200.406 238.004 200.013 238.2 199.705C238.402 199.393 238.672 199.16 239.009 199.006C239.347 198.846 239.745 198.752 240.203 198.724C240.633 198.706 241.111 198.716 241.637 198.755C242.169 198.79 242.706 198.835 243.249 198.889C243.791 198.943 244.297 198.992 244.768 199.035L244.222 199.222C244.287 198.415 244.163 197.778 243.851 197.31C243.544 196.844 242.985 196.514 242.173 196.322C241.635 196.194 241.155 196.209 240.734 196.366C240.319 196.519 240.013 196.857 239.815 197.381L238.449 196.621C238.71 195.872 239.161 195.342 239.803 195.032C240.444 194.722 241.267 194.685 242.272 194.923C243.079 195.115 243.761 195.428 244.32 195.863C244.885 196.293 245.276 196.837 245.493 197.494C245.603 197.805 245.664 198.131 245.677 198.471C245.691 198.805 245.687 199.153 245.666 199.513L245.334 205.155L244.033 204.847L244.162 202.659L244.455 202.934C244.076 203.592 243.574 204.039 242.948 204.273C242.328 204.508 241.587 204.524 240.725 204.32ZM241.021 203.114C241.548 203.239 242.009 203.251 242.405 203.151C242.806 203.046 243.134 202.864 243.389 202.605C243.644 202.34 243.818 202.027 243.911 201.666C244.01 201.404 244.073 201.102 244.098 200.76C244.13 200.414 244.151 200.147 244.162 199.962L244.659 200.311C244.178 200.265 243.705 200.219 243.24 200.171C242.775 200.124 242.335 200.088 241.919 200.064C241.503 200.034 241.128 200.028 240.793 200.045C240.547 200.067 240.313 200.114 240.092 200.188C239.876 200.262 239.696 200.382 239.553 200.548C239.416 200.71 239.338 200.934 239.321 201.221C239.307 201.469 239.353 201.72 239.461 201.974C239.574 202.229 239.755 202.457 240.005 202.659C240.26 202.862 240.599 203.014 241.021 203.114ZM247.474 205.662L248.012 196.54L249.321 196.851L249.191 199.055L248.994 198.717C249.115 198.46 249.264 198.233 249.443 198.036C249.627 197.84 249.828 197.69 250.045 197.588C250.287 197.451 250.556 197.366 250.853 197.334C251.15 197.301 251.45 197.312 251.753 197.367C252.056 197.416 252.338 197.503 252.597 197.627L252.514 199.038C252.212 198.88 251.876 198.778 251.506 198.73C251.136 198.682 250.787 198.74 250.46 198.902C250.163 199.043 249.925 199.243 249.749 199.504C249.577 199.766 249.451 200.065 249.37 200.399C249.29 200.729 249.239 201.073 249.218 201.434L248.948 206.011L247.474 205.662ZM256.932 208.16C256.103 207.964 255.405 207.584 254.837 207.022C254.269 206.453 253.845 205.767 253.564 204.964C253.288 204.162 253.177 203.305 253.231 202.393C253.285 201.481 253.492 200.7 253.853 200.049C254.22 199.399 254.712 198.936 255.329 198.66C255.947 198.378 256.667 198.335 257.491 198.53C258.33 198.729 259.023 199.104 259.57 199.656C260.116 200.208 260.513 200.882 260.761 201.677C261.015 202.474 261.115 203.331 261.061 204.249C261.007 205.155 260.811 205.939 260.471 206.601C260.138 207.258 259.673 207.734 259.077 208.026C258.481 208.313 257.766 208.358 256.932 208.16ZM257.194 206.826C257.792 206.968 258.292 206.938 258.694 206.736C259.095 206.529 259.402 206.188 259.614 205.713C259.831 205.233 259.959 204.661 259.999 203.997C260.038 203.321 259.98 202.705 259.824 202.148C259.673 201.587 259.417 201.119 259.055 200.742C258.694 200.359 258.222 200.099 257.64 199.961C257.036 199.818 256.528 199.852 256.115 200.062C255.707 200.274 255.392 200.616 255.17 201.088C254.952 201.562 254.825 202.12 254.787 202.762C254.749 203.41 254.811 204.018 254.972 204.587C255.133 205.151 255.397 205.63 255.764 206.025C256.135 206.421 256.612 206.689 257.194 206.826ZM259.729 208.566L260.125 201.852L259.96 201.813L260.281 196.365L261.755 196.714L261.038 208.876L259.729 208.566ZM266.69 210.464C265.63 210.213 264.774 209.77 264.122 209.136C263.475 208.497 263.1 207.732 262.996 206.84L264.509 206.95C264.601 207.474 264.855 207.934 265.271 208.329C265.688 208.719 266.217 208.99 266.859 209.142C267.468 209.287 267.954 209.27 268.315 209.093C268.676 208.916 268.869 208.605 268.895 208.16C268.911 207.901 268.865 207.679 268.759 207.494C268.654 207.304 268.424 207.095 268.07 206.869C267.722 206.643 267.191 206.346 266.478 205.978C265.706 205.578 265.101 205.209 264.665 204.871C264.228 204.534 263.923 204.19 263.749 203.841C263.575 203.491 263.5 203.1 263.526 202.666C263.558 202.131 263.728 201.698 264.037 201.365C264.346 201.028 264.762 200.809 265.286 200.711C265.815 200.613 266.419 200.645 267.1 200.807C267.775 200.967 268.372 201.219 268.892 201.565C269.411 201.911 269.821 202.325 270.121 202.807C270.427 203.285 270.594 203.798 270.623 204.348L269.108 204.271C269.065 203.765 268.858 203.324 268.484 202.95C268.117 202.578 267.629 202.311 267.021 202.15C266.446 201.991 265.97 201.983 265.595 202.129C265.224 202.275 265.027 202.545 265.004 202.939C264.991 203.159 265.046 203.363 265.168 203.552C265.296 203.742 265.537 203.951 265.891 204.177C266.251 204.405 266.774 204.692 267.46 205.037C268.233 205.426 268.837 205.794 269.273 206.143C269.715 206.488 270.022 206.846 270.195 207.218C270.368 207.584 270.441 208.004 270.413 208.477C270.361 209.356 270.005 209.973 269.344 210.331C268.683 210.682 267.798 210.727 266.69 210.464Z" fill="url(#paint1_linear_2_1831)"/>
<path d="M26.6684 159.348C25.9 159.165 25.2244 158.826 24.6416 158.328C24.0645 157.826 23.6185 157.226 23.3034 156.529C22.9941 155.828 22.8626 155.083 22.9091 154.295L23.1718 149.835C23.2182 149.047 23.4326 148.384 23.8148 147.846C24.2026 147.31 24.706 146.936 25.3252 146.723C25.9498 146.511 26.6463 146.496 27.4147 146.678C28.1831 146.86 28.8588 147.2 29.4416 147.698C30.0244 148.196 30.4705 148.795 30.7798 149.497C31.0891 150.198 31.2205 150.943 31.1741 151.731L30.9114 156.191C30.8649 156.979 30.6506 157.642 30.2683 158.179C29.8864 158.711 29.3829 159.086 28.758 159.303C28.1333 159.515 27.4368 159.53 26.6684 159.348ZM26.7535 157.903C27.22 158.014 27.6494 157.999 28.0418 157.857C28.4341 157.716 28.7542 157.478 29.0021 157.143C29.2503 156.802 29.3884 156.395 29.4163 155.922L29.6894 151.285C29.7176 150.807 29.6306 150.346 29.4285 149.905C29.2263 149.463 28.9427 149.081 28.5776 148.761C28.2125 148.44 27.7967 148.225 27.3302 148.114C26.8691 148.005 26.4397 148.02 26.0419 148.16C25.6496 148.301 25.3295 148.539 25.0816 148.874C24.8336 149.21 24.6956 149.617 24.6674 150.095L24.3942 154.732C24.3664 155.205 24.4534 155.665 24.6552 156.113C24.8573 156.555 25.1409 156.936 25.506 157.257C25.8766 157.578 26.2925 157.794 26.7535 157.903ZM36.9755 161.79C36.2071 161.608 35.5315 161.268 34.9487 160.77C34.3716 160.268 33.9256 159.668 33.6105 158.971C33.3012 158.27 33.1697 157.525 33.2162 156.737L33.4789 152.277C33.5253 151.489 33.7397 150.826 34.1219 150.289C34.5097 149.753 35.0131 149.378 35.6323 149.165C36.2569 148.953 36.9534 148.939 37.7218 149.121C38.4902 149.303 39.1659 149.643 39.7487 150.14C40.3315 150.638 40.7776 151.238 41.0869 151.939C41.3962 152.641 41.5276 153.385 41.4812 154.174L41.2185 158.633C41.172 159.422 40.9577 160.084 40.5754 160.622C40.1935 161.154 39.69 161.528 39.0651 161.746C38.4404 161.957 37.7439 161.972 36.9755 161.79ZM37.0606 160.346C37.5271 160.456 37.9566 160.441 38.3489 160.3C38.7412 160.159 39.0613 159.92 39.3092 159.585C39.5574 159.244 39.6955 158.838 39.7234 158.365L39.9965 153.728C40.0247 153.249 39.9377 152.789 39.7356 152.347C39.5334 151.905 39.2498 151.524 38.8847 151.203C38.5196 150.883 38.1038 150.667 37.6373 150.557C37.1762 150.447 36.7468 150.463 36.349 150.602C35.9567 150.744 35.6366 150.982 35.3887 151.317C35.1407 151.652 35.0027 152.059 34.9745 152.538L34.7013 157.175C34.6735 157.648 34.7605 158.108 34.9623 158.555C35.1644 158.997 35.448 159.378 35.8132 159.699C36.1838 160.021 36.5996 160.236 37.0606 160.346ZM47.2826 164.232C46.5142 164.05 45.8386 163.71 45.2558 163.212C44.6787 162.71 44.2327 162.111 43.9176 161.414C43.6083 160.712 43.4768 159.968 43.5233 159.179L43.786 154.72C43.8324 153.931 44.0468 153.269 44.429 152.731C44.8168 152.195 45.3202 151.82 45.9394 151.607C46.564 151.396 47.2605 151.381 48.0289 151.563C48.7973 151.745 49.473 152.085 50.0558 152.583C50.6386 153.081 51.0847 153.68 51.394 154.382C51.7033 155.083 51.8347 155.828 51.7883 156.616L51.5256 161.076C51.4792 161.864 51.2648 162.527 50.8825 163.064C50.5006 163.596 49.9972 163.971 49.3722 164.188C48.7475 164.4 48.051 164.414 47.2826 164.232ZM47.3677 162.788C47.8342 162.899 48.2637 162.883 48.656 162.742C49.0483 162.601 49.3684 162.363 49.6163 162.028C49.8646 161.687 50.0026 161.28 50.0305 160.807L50.3036 156.17C50.3318 155.691 50.2448 155.231 50.0427 154.789C49.8406 154.347 49.5569 153.966 49.1918 153.646C48.8267 153.325 48.4109 153.109 47.9444 152.999C47.4833 152.89 47.0539 152.905 46.6561 153.045C46.2638 153.186 45.9437 153.424 45.6958 153.759C45.4479 154.094 45.3098 154.501 45.2816 154.98L45.0085 159.617C44.9806 160.09 45.0676 160.55 45.2694 160.998C45.4715 161.439 45.7551 161.821 46.1203 162.141C46.4909 162.463 46.9067 162.679 47.3677 162.788ZM55.67 165.963L56.2884 155.464L53.9757 156.321L54.0747 154.64L56.3864 153.8L57.8766 154.153L57.1601 166.316L55.67 165.963Z" fill="url(#paint2_linear_2_1831)"/>
<path d="M177.123 39.5676C175.58 46.3753 173.866 52.9709 172.801 59.9854C172.139 64.35 171.245 69.1727 172.138 73.8326C173.944 83.25 174.644 91.1998 168.836 98.046C162.703 105.277 150.238 104.802 141.315 104.705C130.912 104.591 123.984 109.251 120.011 119.098C116.767 127.138 114.189 138.345 104.387 138.509C90.2269 138.746 74.9788 130.092 63.7844 119.19C53.7221 109.391 41.8676 97.7288 28.5719 98.7016C23.5329 99.0702 18.3844 100.598 13.75 102.274C10.6007 103.413 7.00543 104.584 4.37552 106.666" stroke="url(#paint3_linear_2_1831)" stroke-width="1.15515" stroke-linecap="round"/>
<path d="M203.329 45.7785C206.27 50.0652 208.021 54.4543 210.527 58.8565C215.176 67.0268 219.495 75.1563 222.776 83.5817C229.232 100.164 229.173 117.494 224.48 132.197C216.632 156.786 185.805 166.41 167.326 182.607C162.048 187.233 160.755 195.278 162.64 202.639C163.601 206.39 164.894 210.705 167.11 214.236" stroke="url(#paint4_linear_2_1831)" stroke-width="1.15515" stroke-linecap="round"/>
<defs>
<filter id="filter0_bii_2_1831" x="-11.6205" y="-9.80505" width="330.269" height="264.61" filterUnits="userSpaceOnUse" color-interpolation-filters="sRGB">
<feFlood flood-opacity="0" result="BackgroundImageFix"/>
<feGaussianBlur in="BackgroundImageFix" stdDeviation="6.16082"/>
<feComposite in2="SourceAlpha" operator="in" result="effect1_backgroundBlur_2_1831"/>
<feBlend mode="normal" in="SourceGraphic" in2="effect1_backgroundBlur_2_1831" result="shape"/>
<feColorMatrix in="SourceAlpha" type="matrix" values="0 0 0 0 0 0 0 0 0 0 0 0 0 0 0 0 0 0 127 0" result="hardAlpha"/>
<feOffset dx="-1.54021" dy="-1.54021"/>
<feGaussianBlur stdDeviation="1.15515"/>
<feComposite in2="hardAlpha" operator="arithmetic" k2="-1" k3="1"/>
<feColorMatrix type="matrix" values="0 0 0 0 0 0 0 0 0 0 0 0 0 0 0 0 0 0 0.36 0"/>
<feBlend mode="normal" in2="shape" result="effect2_innerShadow_2_1831"/>
<feColorMatrix in="SourceAlpha" type="matrix" values="0 0 0 0 0 0 0 0 0 0 0 0 0 0 0 0 0 0 127 0" result="hardAlpha"/>
<feOffset dx="3.85052" dy="3.08041"/>
<feGaussianBlur stdDeviation="1.54021"/>
<feComposite in2="hardAlpha" operator="arithmetic" k2="-1" k3="1"/>
<feColorMatrix type="matrix" values="0 0 0 0 1 0 0 0 0 1 0 0 0 0 1 0 0 0 0.25 0"/>
<feBlend mode="normal" in2="effect2_innerShadow_2_1831" result="effect3_innerShadow_2_1831"/>
</filter>
<radialGradient id="paint0_radial_2_1831" cx="0" cy="0" r="1" gradientUnits="userSpaceOnUse" gradientTransform="translate(-8.06475e-08 174.905) rotate(-29.6834) scale(343.105 643.289)">
<stop stop-color="white"/>
<stop offset="1" stop-color="white" stop-opacity="0"/>
</radialGradient>
<linearGradient id="paint1_linear_2_1831" x1="228.95" y1="183.383" x2="287.26" y2="184.284" gradientUnits="userSpaceOnUse">
<stop stop-color="#4598FB"/>
<stop offset="1" stop-color="#D15EAE"/>
</linearGradient>
<linearGradient id="paint2_linear_2_1831" x1="21.8599" y1="152.265" x2="70.227" y2="153.073" gradientUnits="userSpaceOnUse">
<stop stop-color="#4598FB"/>
<stop offset="1" stop-color="#D15EAE"/>
</linearGradient>
<linearGradient id="paint3_linear_2_1831" x1="6.86422" y1="64.4187" x2="177.601" y2="69.9768" gradientUnits="userSpaceOnUse">
<stop stop-color="#4598FB"/>
<stop offset="1" stop-color="#D15EAE"/>
</linearGradient>
<linearGradient id="paint4_linear_2_1831" x1="165.38" y1="135.142" x2="227.392" y2="138.4" gradientUnits="userSpaceOnUse">
<stop stop-color="#4598FB"/>
<stop offset="1" stop-color="#D15EAE"/>
</linearGradient>
</defs>
</svg>
