<svg width="26" height="24" viewBox="0 0 26 24" fill="none" xmlns="http://www.w3.org/2000/svg">
<path d="M17.0521 23.7457C17.5121 23.7457 17.885 23.3728 17.885 22.9128C17.885 22.4528 17.5121 22.0799 17.0521 22.0799C16.5921 22.0799 16.2192 22.4528 16.2192 22.9128C16.2192 23.3728 16.5921 23.7457 17.0521 23.7457Z" fill="url(#paint0_linear_2_7631)"/>
<path d="M24.5001 0.693989C23.9856 0.252895 23.2917 0 22.5957 0C22.4535 0.000113244 22.3114 0.0101281 22.1706 0.0299683C20.8708 0.212287 19.631 0.658425 18.6799 1.28632C18.1279 1.6504 17.6232 1.81983 17.0914 1.81983C16.7114 1.81983 16.3103 1.7375 15.7911 1.55266C14.0267 0.924482 11.97 0.254577 9.88183 0.254577C9.05465 0.250924 8.23078 0.359361 7.43271 0.576926C4.90685 1.26867 3.37185 2.82581 2.87362 5.20519C2.37932 7.55993 3.11419 9.5548 4.99787 10.9744C5.04688 11.0114 5.08945 11.0467 5.13062 11.0806C5.30762 11.227 5.46053 11.3536 5.89603 11.4746C6.14248 11.5429 6.40825 11.4539 6.58945 11.2422C6.76085 11.0416 6.80706 10.7843 6.70988 10.57C6.53904 10.2003 6.34916 10.0217 6.12903 9.81386L6.08422 9.77185C4.57806 8.35166 4.11653 6.90348 4.63184 5.21444C5.16171 3.47807 6.40938 2.43652 8.34039 2.12006C8.87538 2.03306 9.41654 1.9895 9.95857 1.98983C12.2271 1.98983 14.2917 2.74151 15.8398 3.39685C15.8425 3.3979 15.8449 3.39949 15.8469 3.40152C15.8489 3.40354 15.8505 3.40595 15.8516 3.40861C15.8527 3.41127 15.8533 3.41412 15.8533 3.41701C15.8533 3.41989 15.8527 3.42275 15.8516 3.42541V3.42878C15.5911 4.05303 15.3354 4.67644 15.0879 5.27941L15.0823 5.29285C14.3099 7.17541 13.7077 8.67933 13.0938 10.3577L13.0835 10.3857C12.9154 10.8467 12.8314 11.078 12.6541 11.1761C12.4564 11.2856 12.0781 11.2881 11.3911 11.2926C9.65023 11.3043 8.07965 11.6023 6.58973 12.2036C5.37344 12.6943 4.19914 13.3989 3.00021 14.3573C2.00712 15.151 1.1633 16.1578 0.624463 17.1923C0.550247 17.3346 0.479392 17.4869 0.407697 17.6583C0.393414 17.6933 0.169646 18.2775 0.123996 18.4324C-0.106213 19.209 0.0360559 20.2693 0.136317 20.6337C0.351683 21.4156 0.728645 22.1239 1.1983 22.6277C2.07097 23.5642 3.15872 24 4.62568 24H4.63184C6.3402 23.9986 7.79651 23.4306 9.08478 22.2636C10.1347 21.3114 11.1012 19.9543 12.2215 17.8611C12.6259 17.1049 12.8821 16.3138 13.1532 15.4772C13.2568 15.1577 13.3638 14.8272 13.48 14.499C13.5641 14.2646 13.6299 14.0615 13.6946 13.8652C13.7755 13.619 13.8522 13.3866 13.9578 13.0976C13.9606 13.0912 13.9656 13.086 13.9719 13.0831C13.9782 13.0802 13.9854 13.0798 13.992 13.0819L14.0032 13.0836C14.3692 13.127 14.7073 13.169 15.0344 13.2093H15.0433C15.907 13.3163 16.6528 13.4087 17.3264 13.4588H17.3356C17.5952 13.4588 17.9268 13.4384 18.1887 13.2782L18.1996 13.272C18.2227 13.2603 18.2444 13.246 18.2643 13.2295C18.5292 13.0029 18.5323 12.6046 18.4603 12.4635L18.4323 12.41C18.2702 12.093 17.9215 11.9588 17.7283 11.9059C17.3043 11.7922 16.7579 11.7211 16.1252 11.6387H16.1218C15.9362 11.6146 15.744 11.5897 15.546 11.5623C15.322 11.5315 15.1783 11.5147 15.0618 11.5009C14.8382 11.4784 14.6168 11.4379 14.3998 11.3797C14.4026 11.3459 14.4115 11.3129 14.4261 11.2822L15.2007 9.36016C15.5679 8.5802 15.8986 7.76382 16.2185 6.97629C16.4425 6.42149 16.6562 5.8975 16.8814 5.38275C17.4457 4.09224 17.7215 4.15245 18.3912 4.2978C18.5458 4.33113 18.7508 4.38686 18.9678 4.44595C19.1779 4.50196 19.3946 4.5619 19.6013 4.61063C19.736 4.64255 19.8606 4.6728 19.978 4.70109C20.8075 4.90189 21.2646 5.01223 22.3103 5.04248H22.4111C23.5182 5.04248 24.3133 4.63611 24.6886 4.25579C25.121 3.8175 25.3633 3.15096 25.3532 2.427C25.34 1.77306 25.0384 1.15525 24.5001 0.693989ZM22.3691 1.75822C22.6436 1.75822 23.0276 1.83859 23.2673 2.01783C23.4423 2.14918 23.4941 2.21976 23.5093 2.25028C23.5767 2.38499 23.6171 2.54938 23.5964 2.61128L23.5938 2.62052C23.5504 2.7936 23.5185 2.89722 23.3642 3.0126C23.0749 3.22993 22.6954 3.368 22.375 3.3736H22.3014C21.7452 3.3736 21.0946 3.35596 20.486 3.22545C20.402 3.20725 20.3314 3.19577 20.262 3.18456C20.0971 3.1609 19.935 3.12141 19.7777 3.06665L19.6862 3.03865C19.6601 3.02549 19.636 3.0126 19.6111 2.99916C19.5495 2.96639 19.4862 2.93223 19.3971 2.8947C19.3497 2.86882 19.3062 2.83629 19.268 2.79808C19.2592 2.78067 19.2541 2.76158 19.2532 2.74207C19.2745 2.64601 19.864 2.31638 20.4701 2.17607C20.6636 2.13098 20.8593 2.07889 21.0489 2.02848C21.4631 1.91813 21.8914 1.80443 22.3168 1.76018C22.3347 1.7599 22.3588 1.7585 22.3691 1.75878V1.75822ZM1.83768 18.8878C2.01664 18.0294 2.31014 17.3984 2.78988 16.8417C3.8978 15.5534 4.84188 14.7692 5.94643 14.2133C7.15685 13.6047 8.60168 13.2541 10.6307 13.0766L11.4149 13.0205H11.4594C11.5899 13.0205 11.9498 13.0247 12.2313 13.0287C12.209 13.1893 12.1741 13.3479 12.1271 13.5031C12.1176 13.5372 12.1055 13.5725 12.0904 13.6115C12.052 13.7098 11.9862 13.9153 11.9027 14.1758C11.7596 14.6239 11.5633 15.2353 11.3874 15.6755C10.8142 17.1083 10.0992 18.748 8.87138 20.0766C8.21604 20.7858 7.56238 21.4562 6.77597 21.869C5.96716 22.2944 5.04548 22.4328 3.87567 22.3045C3.45559 22.2586 2.78512 21.9068 2.30314 21.2436C1.96343 20.7782 1.60803 19.9909 1.83768 18.8884V18.8878Z" fill="url(#paint1_linear_2_7631)"/>
<defs>
<linearGradient id="paint0_linear_2_7631" x1="4.69816e-08" y1="13.3333" x2="25.822" y2="12.8374" gradientUnits="userSpaceOnUse">
<stop stop-color="#4598FB"/>
<stop offset="1" stop-color="#D15EAE"/>
</linearGradient>
<linearGradient id="paint1_linear_2_7631" x1="4.69816e-08" y1="13.3333" x2="25.822" y2="12.8374" gradientUnits="userSpaceOnUse">
<stop stop-color="#4598FB"/>
<stop offset="1" stop-color="#D15EAE"/>
</linearGradient>
</defs>
</svg>
