<svg width="493" height="379" viewBox="0 0 493 379" fill="none" xmlns="http://www.w3.org/2000/svg">
<rect x="123.136" y="44.4481" width="257.753" height="234.976" rx="37.7109" fill="#F1F7FC" stroke="#BCDCFD" stroke-width="3.59151"/>
<path d="M33.5052 253.057C52.1667 189.746 106.38 138.788 187.871 104.4C234.54 94.1313 203.88 100.784 350.016 120.027C436.056 131.357 507.517 211.147 486.91 278.131C456.053 378.43 340.798 349.19 293.055 340.459C266.077 335.526 236.694 347.448 187.871 363.385C43.1178 410.635 13.7608 320.041 33.5052 253.057Z" fill="url(#paint0_linear_6937_8339)"/>
<mask id="mask0_6937_8339" style="mask-type:alpha" maskUnits="userSpaceOnUse" x="28" y="99" width="463" height="278">
<path d="M33.5052 252.707C52.1667 189.396 106.38 138.438 187.871 104.05C234.54 93.7816 203.88 100.434 350.016 119.677C436.056 131.007 507.517 210.797 486.91 277.782C456.053 378.08 340.798 348.84 293.055 340.11C266.077 335.176 236.694 347.098 187.871 363.035C43.1178 410.286 13.7608 319.692 33.5052 252.707Z" fill="#699FD4"/>
</mask>
<g mask="url(#mask0_6937_8339)">
<rect x="122.973" y="44.4481" width="257.753" height="434.14" rx="42.0207" fill="#F1F7FC" stroke="#BCDCFD" stroke-width="3.59151"/>
</g>
<path d="M122.255 139.614C77.1138 170.395 46.5816 208.693 33.5052 253.055C13.7608 320.04 43.1178 410.634 187.871 363.383C236.694 347.446 266.077 335.524 293.055 340.458C340.798 349.188 456.053 378.428 486.91 278.13C504.941 219.518 452.482 151.102 381.446 127.324" stroke="#BCDCFD" stroke-width="3.59151"/>
<path fill-rule="evenodd" clip-rule="evenodd" d="M371.417 7.48471C335.338 -2.9156 297.809 11.133 271.034 42.6538H266.366C293.959 8.67194 333.814 -7.09284 372.412 4.03372C411.757 15.3754 431.665 51.0968 423.208 89.2539C417.333 115.763 399.894 138.438 382.685 155.443V150.351C398.734 133.966 414.308 112.814 419.702 88.4768C427.759 52.1265 408.896 18.2886 371.417 7.48471ZM65.4819 157.192C84.8721 155.841 105.266 160.423 121.34 170.204V174.447C105.728 164.306 85.264 159.414 65.7315 160.775C41.7448 162.446 19.5814 173.498 9.5297 195.287C-0.593578 217.231 3.32987 236.278 13.0357 251.087C22.7996 265.985 38.4362 276.599 51.5849 281.322C53.0292 281.841 55.9393 282.475 60.2717 283.182C64.5557 283.882 70.1038 284.633 76.7356 285.412C89.9966 286.969 107.539 288.629 127.865 290.199C168.511 293.338 220.245 296.112 271.055 296.977C330.04 296.976 387.161 290.884 429.163 272.238C450.142 262.925 467.262 250.517 478.985 234.255C480.785 231.758 482.459 229.168 484.003 226.481C484.522 227.981 485.015 229.49 485.482 231.007C484.348 232.833 483.153 234.616 481.899 236.355C469.704 253.272 452.002 266.028 430.62 275.52C387.904 294.483 330.155 300.569 271.039 300.569H271.023L271.008 300.569C220.113 299.703 168.301 296.924 127.588 293.78C107.232 292.207 89.6398 290.543 76.3168 288.979C69.6566 288.197 64.0503 287.438 59.6931 286.727C55.3841 286.024 52.1661 285.347 50.3707 284.702C36.5951 279.754 20.2816 268.695 10.0318 253.056C-0.276011 237.328 -4.42979 216.973 6.26849 193.782C17.0384 170.437 40.6461 158.922 65.4819 157.192Z" fill="black"/>
<path fill-rule="evenodd" clip-rule="evenodd" d="M371.417 7.48471C335.338 -2.9156 297.809 11.133 271.034 42.6538H266.366C293.959 8.67194 333.814 -7.09284 372.412 4.03372C411.757 15.3754 431.665 51.0968 423.208 89.2539C417.333 115.763 399.894 138.438 382.685 155.443V150.351C398.734 133.966 414.308 112.814 419.702 88.4768C427.759 52.1265 408.896 18.2886 371.417 7.48471ZM65.4819 157.192C84.8721 155.841 105.266 160.423 121.34 170.204V174.447C105.728 164.306 85.264 159.414 65.7315 160.775C41.7448 162.446 19.5814 173.498 9.5297 195.287C-0.593578 217.231 3.32987 236.278 13.0357 251.087C22.7996 265.985 38.4362 276.599 51.5849 281.322C53.0292 281.841 55.9393 282.475 60.2717 283.182C64.5557 283.882 70.1038 284.633 76.7356 285.412C89.9966 286.969 107.539 288.629 127.865 290.199C168.511 293.338 220.245 296.112 271.055 296.977C330.04 296.976 387.161 290.884 429.163 272.238C450.142 262.925 467.262 250.517 478.985 234.255C480.785 231.758 482.459 229.168 484.003 226.481C484.522 227.981 485.015 229.49 485.482 231.007C484.348 232.833 483.153 234.616 481.899 236.355C469.704 253.272 452.002 266.028 430.62 275.52C387.904 294.483 330.155 300.569 271.039 300.569H271.023L271.008 300.569C220.113 299.703 168.301 296.924 127.588 293.78C107.232 292.207 89.6398 290.543 76.3168 288.979C69.6566 288.197 64.0503 287.438 59.6931 286.727C55.3841 286.024 52.1661 285.347 50.3707 284.702C36.5951 279.754 20.2816 268.695 10.0318 253.056C-0.276011 237.328 -4.42979 216.973 6.26849 193.782C17.0384 170.437 40.6461 158.922 65.4819 157.192Z" fill="url(#paint1_linear_6937_8339)"/>
<rect x="60.3115" y="266.178" width="69.644" height="48.7828" rx="7.18303" fill="#FFDCF3"/>
<path d="M109.388 287.104C111.786 288.486 111.786 291.947 109.388 293.329L87.1851 306.12C84.7908 307.499 81.8008 305.771 81.8008 303.007L81.8008 277.425C81.8008 274.662 84.7908 272.934 87.1851 274.313L109.388 287.104Z" fill="white"/>
<rect x="204.625" y="273.342" width="69.644" height="48.7828" rx="7.18303" fill="#BCDCFD"/>
<rect x="204.625" y="266.178" width="69.644" height="48.7828" rx="7.18303" fill="#FFDCF3"/>
<path d="M253.702 287.104C256.1 288.486 256.1 291.947 253.702 293.329L231.499 306.12C229.104 307.499 226.114 305.771 226.114 303.007L226.114 277.425C226.114 274.662 229.104 272.934 231.499 274.313L253.702 287.104Z" fill="white"/>
<rect x="282.885" y="273.342" width="69.644" height="48.7828" rx="7.18303" fill="#BCDCFD"/>
<rect x="282.885" y="266.178" width="69.644" height="48.7828" rx="7.18303" fill="#FFDCF3"/>
<path d="M331.961 287.104C334.359 288.486 334.359 291.947 331.961 293.329L309.758 306.12C307.364 307.499 304.374 305.771 304.374 303.007L304.374 277.425C304.374 274.662 307.364 272.934 309.758 274.313L331.961 287.104Z" fill="white"/>
<path d="M361.145 280.525C361.145 276.558 364.36 273.342 368.328 273.342H379.094V322.058H368.328C364.36 322.058 361.145 318.842 361.145 314.875V280.525Z" fill="#BCDCFD"/>
<rect x="361.145" y="266.178" width="69.644" height="48.7828" rx="7.18303" fill="#FFDCF3"/>
<path d="M410.221 287.104C412.619 288.486 412.619 291.947 410.221 293.329L388.018 306.12C385.624 307.499 382.634 305.771 382.634 303.007L382.634 277.425C382.634 274.662 385.624 272.934 388.018 274.313L410.221 287.104Z" fill="white"/>
<rect x="143.597" y="76.3252" width="127.8" height="14.3284" rx="5.02812" fill="#8DC1FF"/>
<rect x="325.246" y="75.6094" width="35.181" height="14.3284" rx="5.02812" fill="#BCDCFD"/>
<g clip-path="url(#clip0_6937_8339)">
<rect x="143.436" y="104.267" width="216.83" height="151.881" rx="7.18303" fill="#DDEDFC"/>
<path d="M417.63 124.739C435.979 107.878 512.012 34.5164 422.658 25.9726L326.792 30.1208L115.584 73.3803L80.7311 169.394L85.0558 169.394C101.981 157.728 141.442 192.379 173.047 201.238C220.455 214.527 273.641 217.779 304.856 203.752C361.602 178.253 376.592 162.45 417.63 124.739Z" fill="#BCDCFD"/>
<path d="M163.14 114.348C164.204 112.25 167.201 112.25 168.265 114.348L170.399 118.558C170.817 119.382 171.606 119.955 172.519 120.098L177.182 120.826C179.506 121.19 180.433 124.04 178.765 125.701L175.421 129.031C174.767 129.683 174.465 130.61 174.612 131.522L175.36 136.182C175.733 138.506 173.308 140.268 171.213 139.195L167.012 137.044C166.19 136.623 165.215 136.623 164.393 137.044L160.192 139.195C158.098 140.268 155.673 138.506 156.046 136.182L156.794 131.522C156.94 130.61 156.639 129.683 155.984 129.031L152.64 125.701C150.973 124.04 151.899 121.19 154.224 120.826L158.887 120.098C159.8 119.955 160.588 119.382 161.006 118.558L163.14 114.348Z" fill="#8DC1FF"/>
<path d="M279.554 217.655C282.732 211.775 282.302 208.714 289.61 206.162C289.61 206.162 293.11 198.413 292.391 193.026C291.673 187.639 288.174 182.458 279.554 179.944C276.544 179.066 274.885 178.507 269.498 177.071C264.11 175.634 260.984 170.001 258.723 169.888C254.075 169.654 243.123 178.148 238.611 178.148C231.204 178.148 229.82 184.554 227.983 197.333C226.339 208.769 233.927 220.862 233.726 228.953C233.139 252.492 230.048 262.365 231.812 266.705C233.223 270.176 234.315 273.778 233.139 275.31L259.085 292.4L278.019 298.464C281.967 287.488 297.667 279.106 292.443 265.88C290.427 260.774 283.688 249.081 280.272 247.823C277.5 246.802 273.448 228.953 279.554 217.655Z" fill="#FFD0B6"/>
<path d="M208.836 214.687C209.87 219.871 209.965 228.261 207.902 235.385L194.934 240.178C193.923 238.739 191.843 235.385 191.843 228.514C191.843 224.266 191.843 217.841 192.92 207.987C193.529 202.408 194.808 195.354 193.976 188.931L204.058 188.993C204.321 199.219 208.009 210.539 208.836 214.687Z" fill="#FFD0B6"/>
<path d="M222.246 180.669C227.674 177.253 246.339 177.99 246.339 177.99C242.846 184.686 238.387 187.064 236.981 192.187C235.576 197.309 223.494 219.484 220.024 223.863C216.554 228.241 211.326 237.322 210.762 238.892C210.312 240.148 202.056 231.261 198.159 228.596C202.279 223.864 216.818 184.084 222.246 180.669Z" fill="#FFD0B6"/>
<path d="M282.694 223.842C282.743 223.416 282.41 223.042 281.981 223.042H230.494C230.045 223.042 229.706 223.449 229.787 223.89L232.025 236.101C232.088 236.442 232.385 236.69 232.732 236.69H280.582C280.947 236.69 281.254 236.416 281.296 236.053L282.694 223.842Z" fill="#EBA8D3"/>
<path d="M282.694 258.619C282.743 259.045 282.41 259.419 281.981 259.419H230.494C230.045 259.419 229.706 259.012 229.787 258.571L232.025 246.36C232.088 246.019 232.385 245.771 232.732 245.771H280.582C280.947 245.771 281.254 246.045 281.296 246.408L282.694 258.619Z" fill="#EBA8D3"/>
<rect width="52.4361" height="8.61963" rx="0.718303" transform="matrix(-1 0 0 1 281.35 219.449)" fill="#F3C3E2"/>
<path d="M276.882 196.139L282.16 181.592C290.512 183.483 297.312 188.49 300.151 193.443C302.991 198.396 307.295 226.776 307.657 232.217C308.018 237.658 309.605 243.156 312.472 247.507C315.34 251.859 319.678 262.942 320.044 269.556C320.378 275.598 323.523 291.614 326.056 298.763L321.063 303.48C316.776 294.442 305.189 275.15 302.918 271.188C300.078 266.235 296.821 257.043 295.959 249.168C295.269 242.868 285.896 216.863 276.882 196.139Z" fill="#FFD0B6"/>
<path d="M225.322 208.407C225.322 210.701 230.492 223.018 231.999 228.071C238.577 225.613 241.847 222.745 251.303 222.745C259.203 222.745 267.548 225.613 272.892 228.071C274.537 222.472 279.98 212.34 279.98 210.046C279.98 207.752 275.241 186.969 269.211 176.864L265.511 175.635C266.881 181.643 260.429 195.904 259.114 197.543C257.469 199.591 240.845 200.411 238.789 197.543C237.145 195.249 243.174 181.37 244.545 175.635L240.434 176.864C234.678 186.422 225.322 206.113 225.322 208.407Z" fill="#F3C3E2"/>
<path d="M266.586 175.053C263.041 172.782 262.129 172.454 265.048 161.55L267.51 149.919C267.605 149.472 267.264 149.052 266.808 149.052L248.635 149.052C248.278 149.052 247.976 149.314 247.925 149.668L243.564 179.832C243.559 179.866 243.556 179.9 243.556 179.935C243.568 181.303 244.057 182.642 244.627 183.812C244.985 184.545 249.757 188.256 250.563 188.385L252.955 188.766C253.061 188.783 253.17 188.776 253.273 188.745L261.981 186.16C262.67 185.955 263.498 184.086 263.748 183.411C264.738 180.741 268.644 176.371 266.586 175.053Z" fill="#FFD0B6"/>
<path d="M244.67 168.367L257.671 157.224L263.614 158.709L264.728 177.282C263.119 176.911 259.305 175.722 256.928 173.939C254.551 172.156 247.765 172.701 244.67 173.196V168.367Z" fill="#FDC0A7"/>
<path d="M265.1 127.878C271.415 130.107 274.284 135.54 277.312 143.851C280.339 152.162 277.312 159.339 273.272 167.253C270.844 172.01 274.386 171.71 272.529 175.053C270.672 178.396 267.329 176.053 265.1 174.682C260.271 171.71 258.131 168.554 258.414 166.51C258.696 164.466 261.614 161.109 256.854 159.339C246.664 155.551 243.927 157.966 237.984 152.023C232.041 146.08 232.183 134.051 237.241 128.993C241.327 124.907 247.826 127.596 249.871 127.878C251.915 128.161 257.272 125.115 265.1 127.878Z" fill="#7D2343"/>
<path d="M244.878 163.063C246.735 163.063 250.624 161.626 250.265 160.549C250.12 160.113 247.421 160.522 244.878 160.566C242.827 160.601 241.493 160.234 241.327 160.566C240.956 161.308 243.021 163.063 244.878 163.063Z" fill="white"/>
<path d="M233.169 182.302C225.925 174.531 232.991 169.045 244.1 166.2L248.236 170.37C244.847 178.43 237.894 187.37 233.169 182.302Z" fill="#7D2343"/>
<path d="M228 194.877C218.474 190.174 223.141 182.542 232.523 175.949L237.867 178.385C237.551 187.122 234.212 197.945 228 194.877Z" fill="#7D2343"/>
<path d="M223.194 210.046C213.246 206.316 217.129 198.256 225.806 190.76L231.367 192.652C231.924 201.377 229.681 212.478 223.194 210.046Z" fill="#7D2343"/>
<path d="M226.478 223.68C215.955 225.14 215.528 216.204 219.586 205.479L225.376 204.493C230.023 211.899 233.34 222.727 226.478 223.68Z" fill="#7D2343"/>
<path d="M222.383 210.164C222.383 206.335 228.527 197.545 232.241 193.629L240.956 184.714L232.241 224.088C228.327 221.859 222.383 216.659 222.383 210.164Z" fill="#F3C3E2"/>
<path d="M244.92 169.581C241.377 169.581 238.261 162.798 237.533 158.038C237.177 155.712 236.815 153.729 237.358 151.731C237.524 151.215 237.893 150.137 237.893 150.137C237.893 150.137 237.208 148.059 237.174 146.187C237.144 144.512 237.718 141.435 238.728 139.025C239.973 136.055 242.441 136.054 245.411 136.054L245.414 136.054C248.385 136.054 252.1 136.796 253.214 138.282C255.981 141.971 253.214 144.226 256.557 148.421C259.345 151.919 262.103 149.984 262.501 152.769C262.872 155.369 263.426 159.525 260.643 162.799C256.064 168.187 249.128 169.581 244.92 169.581Z" fill="#FFD0B6"/>
<path d="M243.442 159.936C241.287 159.936 240.21 160.295 241.287 161.731C242.005 162.09 242.364 164.724 244.519 164.964C247.752 165.323 250.266 162.449 250.266 161.372C250.266 160.294 245.597 159.936 243.442 159.936Z" fill="#FDC0A7"/>
<path d="M244.878 163.781C247.033 163.781 250.461 161.854 250.265 161.267C250.18 161.012 247.421 161.327 244.878 161.371C242.827 161.407 241.493 160.952 241.327 161.284C240.956 162.027 243.021 163.781 244.878 163.781Z" fill="white"/>
<path d="M251.42 144.746C250.123 144.746 248.394 148.307 249.259 150.087C250.123 151.868 257.904 151.274 258.336 150.087C258.769 148.9 254.014 144.746 251.42 144.746Z" fill="#FDC0A7"/>
<path d="M250.103 150.135C250.361 150.925 254.654 150.814 255.131 150.135C255.608 149.455 253.756 147.98 251.899 147.98C250.103 147.98 249.846 149.345 250.103 150.135Z" fill="white"/>
<path d="M240.047 145.467C235.737 144.39 237.892 149.607 237.892 150.168C237.892 150.729 236.815 152.65 237.174 154.446C237.533 156.242 239.467 157.679 242.202 157.679C244.937 157.679 240.047 156.601 240.406 154.446C241.843 153.369 243.729 150.565 243.928 150.168C244.299 149.426 242.736 146.139 240.047 145.467Z" fill="url(#paint2_linear_6937_8339)"/>
<path d="M238.48 150.136C238.737 150.925 243.031 150.815 243.508 150.135C243.985 149.456 241.905 148.339 240.047 148.339C238.252 148.339 238.222 149.346 238.48 150.136Z" fill="white"/>
<path d="M266.586 144.118C264.729 143.004 263.243 145.603 263.243 147.832C263.243 150.062 264.803 152.885 266.586 153.776C268.815 154.891 268.444 145.233 266.586 144.118Z" fill="#FFD0B6"/>
<path d="M250.614 148.43C252.671 147.975 254.385 148.885 255.071 149.794" stroke="#7D2343" stroke-width="0.718303" stroke-linecap="round"/>
<path d="M238.727 148.43C240.784 147.974 242.499 148.885 243.185 149.794" stroke="#7D2343" stroke-width="0.718303" stroke-linecap="round"/>
<path d="M243.036 145.095C242.389 145.738 237.216 147.101 236.556 145.149C236.249 144.239 237.903 143.367 239.569 143.133C240.851 142.953 242.155 143.276 242.492 143.485C243.268 143.965 243.339 144.794 243.036 145.095Z" fill="#7D2343"/>
<path d="M255.997 146.983C255.088 147.38 249.478 146.607 249.696 144.284C249.798 143.201 251.783 142.993 253.5 143.457C254.821 143.814 255.942 144.705 256.177 145.067C256.717 145.9 256.422 146.797 255.997 146.983Z" fill="#7D2343"/>
<path d="M253.56 149.423C253.56 150.038 253.061 150.537 252.446 150.537C251.83 150.537 251.332 150.038 251.332 149.423C251.332 148.808 251.83 148.309 252.446 148.309C253.061 148.309 253.56 148.808 253.56 149.423Z" fill="#7D2343"/>
<path d="M241.674 149.423C241.674 150.038 241.175 150.537 240.56 150.537C239.944 150.537 239.445 150.038 239.445 149.423C239.445 148.808 239.944 148.309 240.56 148.309C241.175 148.309 241.674 148.808 241.674 149.423Z" fill="#7D2343"/>
<path d="M243.556 149.425C242.07 153.511 240.253 154.371 240.585 155.368C240.956 156.482 242.566 156.854 243.185 157.225" stroke="#FDC0A7" stroke-width="0.718303" stroke-linecap="round"/>
<path d="M207.45 189.689C206.546 191.522 204.074 193.676 202.95 194.524L203.232 183.091C203.547 184.08 205.096 177.14 206.429 175.707C207.496 174.562 208.82 174.814 209.349 175.084C209.267 176.01 208.687 178.14 208.473 179.615C207.918 183.442 208.579 187.399 207.45 189.689Z" fill="#FFD0B6"/>
<path d="M204.662 186.434C205.464 189.716 205.908 193.372 200.427 194.22C200.44 194.831 199.227 199.172 196.444 196.503C193.077 193.276 191.183 190.383 189.672 188.216C188.16 186.048 187.267 182.018 186.914 179.11C186.471 175.454 186.448 174.355 187.508 172.5C188.569 170.645 188.92 166.459 190.667 165.836C192.132 165.805 194.067 170.652 195.217 173.071C195.311 171.725 194.393 168.763 194.369 167.591C194.338 166.125 193.91 163.202 194.276 163.194C194.643 163.187 195.374 162.586 196.131 164.255C197.284 166.797 199.556 176.034 199.722 178.108C201.615 181 203.495 181.66 204.662 186.434Z" fill="#FFD0B6"/>
<path d="M278.866 209.394C278.866 209.394 279.599 215.373 271.001 218.646C262.403 221.92 257.801 216.63 257.801 216.63" stroke="#EBA8D3" stroke-width="2.15491" stroke-linecap="round"/>
<rect x="283.299" y="163.995" width="36.4563" height="108.116" transform="rotate(11.4587 283.299 163.995)" fill="#D9D9D9"/>
<rect x="283.299" y="163.995" width="36.4563" height="108.116" transform="rotate(11.4587 283.299 163.995)" fill="url(#paint3_linear_6937_8339)"/>
<rect x="283.299" y="163.995" width="36.4563" height="108.116" transform="rotate(11.4587 283.299 163.995)" fill="url(#paint4_linear_6937_8339)"/>
<ellipse cx="301.472" cy="166.865" rx="17.3587" ry="5.74642" transform="rotate(11.46 301.472 166.865)" fill="#F692DF"/>
<ellipse cx="301.472" cy="166.865" rx="17.3587" ry="5.74642" transform="rotate(11.46 301.472 166.865)" fill="url(#paint5_linear_6937_8339)"/>
<ellipse cx="301.472" cy="166.865" rx="17.3587" ry="5.74642" transform="rotate(11.46 301.472 166.865)" stroke="#82BBFF" stroke-width="2.15491"/>
<path d="M207.45 209.137C208.793 213.493 209.246 220.63 207.809 226.376" stroke="#EFBEA3" stroke-width="2.15491" stroke-linecap="round"/>
<path d="M170.893 237.149L351.187 237.149" stroke="#8DC1FF" stroke-width="3.59151" stroke-linecap="round"/>
<path d="M170.893 237.149L310.244 237.149" stroke="#8DC1FF" stroke-width="7.18303" stroke-linecap="round"/>
<circle cx="313.117" cy="237.152" r="7.54218" fill="#F3C3E2" stroke="#EBA8D3" stroke-width="3.59151"/>
<path d="M152.936 232.84L152.936 240.741" stroke="#8DC1FF" stroke-width="3.59151" stroke-linecap="round"/>
<path d="M158.682 232.84L158.682 240.741" stroke="#8DC1FF" stroke-width="3.59151" stroke-linecap="round"/>
</g>
<path d="M124.929 314.893H220.421V329.918C220.421 333.886 217.205 337.102 213.237 337.102H124.929V314.893Z" fill="#BCDCFD"/>
<rect x="105.902" y="250.054" width="110.57" height="75.2333" rx="8.97878" fill="#EBA8D3"/>
<rect x="105.902" y="250.054" width="110.57" height="75.2333" rx="8.97878" fill="url(#paint6_linear_6937_8339)"/>
<rect x="105.902" y="250.054" width="110.57" height="75.2333" rx="8.97878" stroke="#BCDCFD" stroke-width="3.59151"/>
<path d="M181.991 282.408C184.389 283.79 184.389 287.251 181.991 288.632L147.545 308.477C145.15 309.856 142.16 308.128 142.16 305.365L142.16 265.676C142.16 262.913 145.15 261.184 147.545 262.564L181.991 282.408Z" fill="white"/>
<defs>
<linearGradient id="paint0_linear_6937_8339" x1="250.414" y1="113.221" x2="258.993" y2="360.028" gradientUnits="userSpaceOnUse">
<stop stop-color="#BCDCFD"/>
<stop offset="1" stop-color="#8BC0FF"/>
</linearGradient>
<linearGradient id="paint1_linear_6937_8339" x1="270.654" y1="13.9171" x2="270.654" y2="296.658" gradientUnits="userSpaceOnUse">
<stop stop-color="#6FA6E3"/>
<stop offset="1" stop-color="#E36EB9"/>
</linearGradient>
<linearGradient id="paint2_linear_6937_8339" x1="240.765" y1="148.34" x2="240.541" y2="157.679" gradientUnits="userSpaceOnUse">
<stop stop-color="#FDC0A7"/>
<stop offset="1" stop-color="#FDC0A7" stop-opacity="0"/>
</linearGradient>
<linearGradient id="paint3_linear_6937_8339" x1="283.299" y1="224.06" x2="320.442" y2="223.832" gradientUnits="userSpaceOnUse">
<stop stop-color="#81BBFF"/>
<stop offset="1" stop-color="#FF8FDC"/>
</linearGradient>
<linearGradient id="paint4_linear_6937_8339" x1="322.956" y1="104.776" x2="272.141" y2="114.234" gradientUnits="userSpaceOnUse">
<stop stop-color="#87ADEF"/>
<stop offset="1" stop-color="#BCDCFD"/>
</linearGradient>
<linearGradient id="paint5_linear_6937_8339" x1="295.286" y1="157.278" x2="302.375" y2="170.537" gradientUnits="userSpaceOnUse">
<stop stop-color="#87ADEF"/>
<stop offset="1" stop-color="#BCDCFD"/>
</linearGradient>
<linearGradient id="paint6_linear_6937_8339" x1="164.418" y1="323.491" x2="166.213" y2="251.823" gradientUnits="userSpaceOnUse">
<stop stop-color="#81BBFF"/>
<stop offset="1" stop-color="#FF8FDC"/>
</linearGradient>
<clipPath id="clip0_6937_8339">
<rect x="143.436" y="104.267" width="216.83" height="151.881" rx="7.18303" fill="white"/>
</clipPath>
</defs>
</svg>
