<svg width="130" height="130" viewBox="0 0 130 130" fill="none" xmlns="http://www.w3.org/2000/svg">
<path d="M58.4365 129.622C45.6308 128.471 32.6299 126.154 22.3677 118.591C11.7837 110.79 3.37927 99.6745 0.624828 87.013C-2.03864 74.7697 4.48101 62.9985 7.63466 50.8666C10.8977 38.3138 10.3625 24.0275 19.4507 14.5909C28.7843 4.8995 42.9913 0.31176 56.6161 0.00733063C69.4882 -0.280268 80.2406 7.9694 92.053 12.9688C104.026 18.0361 119.348 18.8663 126.439 29.5584C133.528 40.2472 127.84 54.2235 127.857 66.9557C127.874 79.5883 132.842 93.0303 126.538 104.064C120.161 115.226 106.865 120.503 94.6419 125.09C83.0506 129.44 70.803 130.734 58.4365 129.622Z" fill="#FDF8DE"/>
</svg>
