<svg width="135" height="121" viewBox="0 0 135 121" fill="none" xmlns="http://www.w3.org/2000/svg">
<path d="M96.1295 3.01337C95.5844 2.38954 94.6368 2.3257 94.013 2.87079C93.3892 3.41588 93.3253 4.36348 93.8704 4.98731L96.1295 3.01337ZM112 78.5014L111.048 77.3423L112 78.5014ZM26.4869 97.895C25.8758 98.4543 25.8338 99.4031 26.3931 100.014L35.5077 109.973C36.067 110.584 37.0159 110.626 37.627 110.067C38.2381 109.507 38.2801 108.558 37.7208 107.947L29.6189 99.0952L38.4709 90.9934C39.082 90.434 39.124 89.4852 38.5647 88.8741C38.0054 88.263 37.0566 88.221 36.4455 88.7803L26.4869 97.895ZM95 4.00034C93.8704 4.98731 93.8703 4.98722 93.8704 4.98732C93.8707 4.98761 93.8709 4.9879 93.8715 4.98849C93.8725 4.98967 93.8742 4.99162 93.8766 4.99434C93.8813 4.9998 93.8887 5.00835 93.8988 5.01997C93.9189 5.0432 93.9496 5.07866 93.9903 5.12606C94.0717 5.22086 94.1934 5.36339 94.3517 5.5512C94.6684 5.92685 95.1317 6.48352 95.7128 7.2017C96.8752 8.63835 98.5079 10.7198 100.382 13.2903C104.133 18.4369 108.83 25.5169 112.654 33.288C116.487 41.0786 119.386 49.4514 119.657 57.2097C119.925 64.9037 117.617 71.9461 111.048 77.3423L112.952 79.6604C120.383 73.5565 122.949 65.5363 122.655 57.1051C122.363 48.7381 119.262 39.9232 115.346 31.9635C111.42 23.9844 106.617 16.7517 102.806 11.5232C100.898 8.90603 99.2341 6.78432 98.045 5.31468C97.4503 4.57972 96.9741 4.00746 96.6453 3.61747C96.4809 3.42246 96.3533 3.27299 96.2662 3.1715C96.2226 3.12075 96.1891 3.082 96.1662 3.05555C96.1547 3.04232 96.1459 3.03217 96.1398 3.02512C96.1367 3.0216 96.1343 3.01886 96.1326 3.0169C96.1318 3.01592 96.131 3.01503 96.1306 3.01455C96.13 3.01386 96.1295 3.01337 95 4.00034ZM111.048 77.3423C97.3914 88.5602 76.6283 93.6458 59.0599 95.8886C50.312 97.0053 42.4287 97.4089 36.7326 97.5331C33.8856 97.5951 31.5875 97.5873 30.004 97.5641C29.2124 97.5525 28.5995 97.5371 28.1862 97.5246C27.9796 97.5184 27.8228 97.5129 27.7186 97.509C27.6665 97.507 27.6275 97.5055 27.6019 97.5044C27.5891 97.5039 27.5797 97.5035 27.5737 97.5033C27.5707 97.5031 27.5685 97.5031 27.5672 97.503C27.5666 97.503 27.5663 97.503 27.5659 97.5029C27.5658 97.5029 27.5659 97.5029 27.4996 99.0015C27.4333 100.5 27.4338 100.5 27.4346 100.5C27.4351 100.5 27.4361 100.5 27.4371 100.5C27.4393 100.5 27.4423 100.5 27.4461 100.501C27.4538 100.501 27.4649 100.501 27.4794 100.502C27.5084 100.503 27.5509 100.505 27.6065 100.507C27.7178 100.511 27.8817 100.517 28.0957 100.523C28.5237 100.536 29.1521 100.552 29.9601 100.564C31.5759 100.587 33.9106 100.595 36.798 100.532C42.5708 100.407 50.5626 99.9977 59.4398 98.8644C77.1215 96.6072 98.6086 91.4427 112.952 79.6604L111.048 77.3423Z" fill="url(#paint0_linear)"/>
<defs>
<linearGradient id="paint0_linear" x1="105" y1="6.00025" x2="3.5" y2="114.502" gradientUnits="userSpaceOnUse">
<stop stop-color="white"/>
<stop offset="1" stop-color="#F94814"/>
</linearGradient>
</defs>
</svg>
