<svg width="130" height="130" viewBox="0 0 130 130" fill="none" xmlns="http://www.w3.org/2000/svg">
<path d="M71.5635 0.377867C84.3692 1.52948 97.3701 3.84582 107.632 11.4094C118.216 19.2101 126.621 30.3255 129.375 42.987C132.039 55.2303 125.519 67.0015 122.365 79.1334C119.102 91.6862 119.637 105.973 110.549 115.409C101.216 125.101 87.0087 129.688 73.3838 129.993C60.5118 130.28 49.7594 122.031 37.947 117.031C25.9738 111.964 10.6516 111.134 3.56063 100.442C-3.5281 89.7528 2.16004 75.7765 2.1431 63.0443C2.1263 50.4117 -2.84236 36.9697 3.46154 25.9363C9.8391 14.774 23.135 9.49713 35.3581 4.90984C46.9494 0.559663 59.197 -0.73424 71.5635 0.377867Z" fill="#F6EFFF"/>
</svg>
