<svg width="21" height="20" viewBox="0 0 21 20" fill="none" xmlns="http://www.w3.org/2000/svg">
<path d="M11.4342 2.49384L11.0123 4.25482C11.6099 3.01107 12.5592 2.07516 13.6492 1.25C12.8522 2.22287 12.1257 3.19583 11.6803 4.16871C12.4304 3.0603 13.4383 2.44461 14.575 2.0382C13.0632 3.45444 11.8631 4.97415 10.949 6.50121L10.2225 6.16872C10.3512 4.94953 10.7896 3.7008 11.4342 2.49384Z" fill="#ABCD03"/>
<path d="M9.49399 5.84495L10.8769 6.44782C10.8769 6.81735 10.8483 7.9444 11.0682 8.27689C13.3683 11.3896 12.9813 17.629 10.6024 17.789C6.9797 17.789 5.5981 15.203 5.5981 12.8261C5.5981 10.6586 8.0708 9.21779 9.54754 7.93706C9.92255 7.59222 9.85747 6.83015 9.49399 5.84495Z" fill="#FFFCDB"/>
<path d="M10.8774 6.42631L11.3758 6.69344C11.329 7.0382 11.3992 7.80186 11.7273 7.99878C13.1806 8.94702 14.5517 9.98153 15.0908 11.016C17.0129 14.6613 13.7431 18.0355 10.9187 17.7154C12.454 16.5207 12.8993 14.0701 12.3251 11.3977C12.0907 10.3508 11.7273 9.40258 11.0827 8.3312C10.8034 7.80527 10.9009 7.15302 10.8774 6.42631Z" fill="white"/>
<path d="M10.6373 6.33634L11.6686 6.4841C11.3639 7.54322 12.2664 8.28204 12.5593 8.45457C13.2156 8.83637 13.8484 9.23043 14.3524 9.71069C15.3018 10.622 15.8408 11.9028 15.8408 13.2574C15.8408 14.5997 15.2548 15.8928 14.2704 16.7548C13.3445 17.5677 12.0672 17.9125 10.8249 17.9125C10.0514 17.9125 9.35993 17.8756 8.60993 17.6169C6.89896 17.0135 5.62147 15.4741 5.51601 13.6268C5.42222 12.1859 5.72693 11.0899 6.79349 9.94457C7.34421 9.34116 8.45762 8.65149 9.21944 8.09732C9.59452 7.82633 9.99294 7.06274 9.23111 5.62197L9.38349 5.49879L10.5125 6.29339L9.55936 5.88062C9.64135 6.00377 9.86405 6.55794 9.91102 6.71805C10.0165 7.17369 9.9696 7.61714 9.87579 7.81406C9.39538 8.72541 8.57499 8.97171 7.97736 9.48893C6.92253 10.4002 5.77404 11.1268 5.90293 13.6268C5.96154 14.8582 6.8757 16.3607 8.24674 17.0627C9.02031 17.4569 9.91102 17.6169 10.8134 17.6661C11.622 17.7031 13.169 17.1981 14.0128 16.4592C14.9152 15.6712 15.4191 14.4766 15.4191 13.2574C15.4191 12.0258 14.9503 10.8559 14.0714 10.0308C13.5674 9.5505 12.7354 8.97171 12.2198 8.66376C11.7041 8.35589 11.0595 7.49384 11.2704 6.66875L10.6373 6.33634Z" fill="black"/>
<path d="M10.3208 8.15889C10.2153 8.72541 10.0981 9.74749 9.62939 10.1293C9.4301 10.2771 9.23082 10.4249 9.01994 10.5726C8.17613 11.1761 7.33225 11.7425 6.94565 13.1957C6.86359 13.5036 6.93398 13.8361 7.0043 14.144C7.21525 15.0307 7.81287 15.9913 8.28168 16.5578C8.28168 16.5824 8.37549 16.644 8.37549 16.6687C8.76223 17.149 8.87945 17.2844 10.3443 17.6292L10.3091 17.8016C9.43018 17.5554 8.70366 17.3337 8.24652 16.7795C8.24652 16.7672 8.16446 16.6809 8.16446 16.6809C7.67224 16.0897 7.07447 15.1046 6.85192 14.181C6.76985 13.8114 6.69961 13.5283 6.79327 13.1464C7.19169 11.644 8.05898 11.0528 8.93795 10.4248C9.13724 10.2894 9.3716 10.1661 9.55907 10.0061C9.92233 9.72288 10.1215 8.86075 10.3208 8.15889Z" fill="black"/>
<path d="M10.6958 10.4987C10.7076 11.1391 10.6481 11.4604 10.8004 11.9161C10.8941 12.1869 11.2108 12.5565 11.3046 12.9136C11.4335 13.394 11.5738 13.9235 11.562 14.2437C11.562 14.6132 11.54 15.3025 11.3877 16.0415C11.2716 16.6521 11.0038 17.1759 10.5537 17.473C10.0926 17.3732 9.55123 17.2029 9.2317 16.915C8.61059 16.3486 8.06046 15.4013 7.99014 14.5762C7.93157 13.8989 8.52838 12.9 9.36045 12.3951C10.0635 11.9641 10.2271 11.4729 10.3794 10.6847C10.1685 11.3743 9.97041 11.9525 9.29072 12.3218C8.30627 12.8637 7.80112 13.7733 7.84803 14.6353C7.91827 15.7437 8.34069 16.4947 9.17269 17.0982C9.52427 17.3568 10.1811 17.6301 10.5913 17.704V17.6476C10.9023 17.5864 11.305 17.0496 11.5057 16.3233C11.6815 15.6706 11.7508 14.8353 11.739 14.3056C11.7272 13.9978 11.598 13.331 11.3635 12.7276C11.2346 12.3951 11.0367 12.0627 10.9077 11.8287C10.7672 11.5945 10.7662 11.0898 10.6958 10.4987Z" fill="black"/>
<path d="M10.6257 12.9136C10.6374 13.3446 10.8022 13.8969 10.8724 14.4634C10.9311 14.8821 10.9057 15.3028 10.8939 15.6723C10.8823 16.1 10.7467 16.8663 10.5614 17.239C10.3866 17.1548 10.3183 17.0588 10.2047 16.9037C10.0641 16.6943 9.96871 16.4849 9.8749 16.2387C9.80458 16.0539 9.72245 15.8424 9.68721 15.5962C9.64031 15.2268 9.65346 14.6488 10.0519 14.0577C10.3566 13.5896 10.4264 13.5541 10.5319 13.0122C10.3911 13.4924 10.2862 13.5414 9.95799 13.9478C9.59481 14.3911 9.53432 15.0442 9.53432 15.5736C9.53432 15.7954 9.61845 16.0414 9.70058 16.2753C9.79431 16.5216 9.87475 16.767 10.0036 16.9516C10.1974 17.2511 10.4453 17.4213 10.5668 17.4532H10.5694C10.572 17.4538 10.575 17.4555 10.5775 17.456V17.4419C10.8048 17.1755 10.9417 16.9109 10.9877 16.6444C11.0464 16.3243 11.0598 16.0034 11.095 15.6216C11.1301 15.3014 11.1046 14.87 11.0226 14.4268C10.9055 13.8726 10.7078 13.3076 10.6257 12.9136Z" fill="black"/>
<path d="M10.6609 7.64153C10.6726 8.28182 10.7195 9.47651 10.8836 9.94441C10.9304 10.1044 11.364 10.8065 11.6687 11.6562C11.8796 12.2473 11.9265 12.7892 11.9617 12.9492C12.1023 13.6513 11.9265 14.8334 11.6921 15.9541C11.5749 16.5575 11.1764 17.3088 10.7194 17.6044L10.6257 17.7768C10.8836 17.7644 11.5163 17.1118 11.739 16.299C12.1141 14.9197 12.2664 14.2793 12.0906 12.7522C12.0672 12.6043 12.0087 12.0995 11.786 11.5576C11.4578 10.7325 10.989 9.94434 10.9305 9.78415C10.8249 9.52566 10.6843 8.40497 10.6609 7.64153Z" fill="black"/>
<path d="M10.8806 6.76576C10.8458 7.42385 10.8365 7.66621 10.9536 8.14647C11.0825 8.67603 11.7389 9.43954 12.0084 10.3139C12.5241 11.9888 12.3952 14.1809 12.0201 15.8926C11.8795 16.496 11.2114 17.3705 10.5434 17.6536L11.0357 17.7768C11.3052 17.7644 11.9966 17.0872 12.2662 16.3113C12.6997 15.0921 12.7819 13.639 12.606 12.1119C12.5942 11.9641 12.3598 10.6464 12.1373 10.0923C11.8208 9.26716 11.2582 8.52819 11.1996 8.36823C11.0943 8.09724 10.8628 7.53466 10.8806 6.76576Z" fill="black"/>
<path d="M10.8715 6.30278H10.5081V17.6662H10.8715V6.30278Z" fill="black"/>
</svg>
