<?xml version="1.0" encoding="utf-8"?>
<!-- Generator: Adobe Illustrator 19.0.0, SVG Export Plug-In . SVG Version: 6.00 Build 0)  -->
<svg version="1.1" id="Layer_1" xmlns="http://www.w3.org/2000/svg" xmlns:xlink="http://www.w3.org/1999/xlink" x="0px" y="0px"
	 viewBox="-180 376 249.8 41" style="enable-background:new -180 376 249.8 41;" xml:space="preserve">
<style type="text/css">
	.st0{fill:#00A5F1;}
	.st1{fill:#373B3C;}
	.st2{fill:#222526;}
	.st3{fill:#C8C8C8;}
	.st4{fill-rule:evenodd;clip-rule:evenodd;fill:#FAFAFA;}
</style>
<path id="Rounded_Rectangle_3" class="st0" d="M-179,376h56c0.6,0,1,0.4,1,1v38c0,0.6-0.4,1-1,1h-56c-0.6,0-1-0.4-1-1v-38
	C-180,376.4-179.6,376-179,376z"/>
<path id="Триуфм" class="st1" d="M-70.2,394.4c-0.3-0.1-0.7-0.3-1-0.3c-0.4-0.1-0.7-0.2-1.2-0.2v-14.3h3.6l1.3,3.4h0.6
	c0-0.3,0.1-0.7,0.1-1.1c0-0.4,0-0.8,0.1-1.2c0-0.4,0-0.8,0.1-1.2s0-0.8,0-1.1h-13.9c0,0.3,0,0.7,0,1.1c0,0.4,0,0.8,0.1,1.2
	c0,0.4,0.1,0.8,0.1,1.2s0.1,0.8,0.1,1.1h0.6l1.3-3.4h3.7v14.3c-0.4,0.1-0.8,0.1-1.2,0.2c-0.4,0.1-0.7,0.2-1.1,0.3v0.7h6.7V394.4
	L-70.2,394.4z M-60.3,399.3c-0.3-0.2-0.5-0.3-0.8-0.4c-0.2-0.1-0.5-0.1-0.8-0.2v-3.8c0.4,0.2,0.7,0.3,1.1,0.4
	c0.5,0.1,0.9,0.1,1.4,0.1c0.8,0,1.6-0.1,2.3-0.5c0.7-0.3,1.3-0.7,1.8-1.3c0.5-0.6,0.9-1.3,1.1-2.1c0.3-0.9,0.4-1.8,0.4-2.7
	c0.1-1.6-0.3-3.2-1.2-4.6c-0.8-1-2-1.5-3.3-1.4c-0.8,0-1.6,0.2-2.3,0.7c-0.6,0.5-1.1,1.2-1.3,2h0v-2.7h-0.6c-0.5,0.1-1,0.2-1.6,0.3
	c-0.5,0.1-1.1,0.3-1.6,0.5v0.6l1.6,0.2v14.2c-0.5,0.1-1.1,0.3-1.6,0.6v0.6h5.3L-60.3,399.3L-60.3,399.3z M-57.7,384.6
	c0.4,0.2,0.7,0.6,0.9,0.9c0.2,0.4,0.4,0.9,0.5,1.4c0.1,0.6,0.2,1.2,0.2,1.8c0,0.7-0.1,1.5-0.2,2.2c-0.1,0.6-0.4,1.2-0.7,1.7
	c-0.3,0.5-0.6,0.9-1.1,1.2c-0.4,0.3-0.9,0.4-1.4,0.4c-0.5,0-0.9,0-1.4-0.1c-0.3-0.1-0.7-0.2-1-0.4V387c0.1-0.8,0.5-1.5,1-2
	c0.5-0.5,1.2-0.8,1.9-0.7C-58.6,384.2-58.1,384.4-57.7,384.6L-57.7,384.6z M-51.4,383.7c0.5,0.3,1,0.5,1.6,0.6v9.6
	c-0.3,0.1-0.5,0.2-0.8,0.3c-0.3,0.1-0.5,0.2-0.8,0.3v0.6h3.3l5.1-8.1l0.9-1.8h0.1l-0.2,1.9v6.9c-0.5,0.1-1,0.3-1.4,0.6v0.6h5.1v-0.6
	c-0.2-0.1-0.5-0.2-0.7-0.3c-0.3-0.1-0.6-0.2-0.9-0.3v-9.6c0.6-0.1,1.1-0.3,1.6-0.6V383h-3.2l-5.1,8.2l-0.9,1.8H-48l0.3-2.2v-6.6
	c0.3-0.1,0.6-0.2,0.8-0.3c0.2-0.1,0.4-0.2,0.6-0.3V383h-5.1L-51.4,383.7L-51.4,383.7z M-31.2,395.1c-0.1,0.4-0.2,0.8-0.3,1
	c-0.1,0.3-0.2,0.5-0.3,0.7c-0.1,0.2-0.1,0.3-0.2,0.4c-0.1,0.1-0.2,0.3-0.3,0.4h-2.5l-0.3,0.6c0.1,0.3,0.2,0.7,0.3,1.1
	c0.1,0.3,0.3,0.7,0.5,1c0.4-0.1,0.8-0.2,1.2-0.4c0.4-0.2,0.8-0.5,1.1-0.8c0.4-0.5,0.8-1,1-1.5c0.4-0.8,0.8-1.6,1.1-2.5l3.7-10.8
	c0.5-0.1,0.9-0.3,1.4-0.6V383h-4.1v0.6c0.4,0.3,0.8,0.5,1.3,0.6l-2.3,7.1l-0.4,1.5h0l-0.5-1.5l-3.1-7.1c0.5-0.1,0.9-0.3,1.4-0.6
	v-0.6h-5v0.6c0.2,0.1,0.4,0.2,0.6,0.3c0.2,0.1,0.4,0.2,0.7,0.2L-31.2,395.1z M-13.5,399.3c-0.2-0.2-0.5-0.3-0.7-0.4
	c-0.3-0.1-0.6-0.2-0.9-0.2v-4.1c0.2,0.2,0.5,0.4,0.8,0.5c0.4,0.1,0.7,0.2,1.1,0.2c0.7,0,1.3-0.1,1.9-0.4c0.6-0.3,1.1-0.7,1.5-1.3
	c0.5-0.7,0.8-1.4,1-2.2c0.3-1,0.4-2.1,0.4-3.1c0.1-1.5-0.3-3-1.2-4.2c-0.8-0.9-2-1.4-3.2-1.4c-0.4,0-0.9,0.1-1.3,0.2
	c-0.4,0.1-0.7,0.4-1,0.7V377h-0.6c-0.5,0.1-1.1,0.2-1.7,0.3c-0.5,0.1-1.1,0.3-1.6,0.5v0.6l1.8,0.2v4.8c-0.2-0.3-0.4-0.5-0.7-0.6
	c-0.3-0.1-0.7-0.2-1.1-0.2c-1.4,0-2.7,0.6-3.5,1.6c-1,1.5-1.5,3.3-1.3,5.1c0,0.9,0.1,1.8,0.3,2.6c0.2,0.7,0.5,1.3,0.9,1.8
	c0.4,0.5,0.9,0.8,1.5,1.1c0.6,0.2,1.2,0.4,1.9,0.3c0.4,0,0.8-0.1,1.2-0.2c0.3-0.2,0.6-0.4,0.9-0.6v4.2c-0.6,0.1-1.1,0.3-1.6,0.6v0.6
	h5.2L-13.5,399.3L-13.5,399.3z M-19.9,393.9c-0.4-0.2-0.7-0.5-0.9-0.9c-0.3-0.5-0.5-1.1-0.6-1.7c-0.2-0.9-0.2-1.8-0.2-2.7
	c0-0.7,0.1-1.4,0.2-2.1c0.1-0.5,0.3-1,0.6-1.4c0.2-0.3,0.5-0.6,0.9-0.8c0.3-0.2,0.7-0.3,1.1-0.3c0.3,0,0.7,0,1,0.1
	c0.2,0.1,0.4,0.2,0.6,0.3v9.2c-0.2,0.2-0.5,0.4-0.8,0.4c-0.3,0.1-0.5,0.1-0.8,0.1C-19.2,394.2-19.5,394.1-19.9,393.9L-19.9,393.9z
	 M-12.3,384.3c0.4,0.2,0.7,0.5,0.9,0.9c0.3,0.5,0.4,1,0.5,1.6c0.1,0.8,0.2,1.6,0.2,2.5c0,0.8-0.1,1.5-0.2,2.3
	c-0.1,0.5-0.3,1.1-0.6,1.5c-0.2,0.4-0.5,0.7-0.9,0.9c-0.3,0.2-0.7,0.3-1.1,0.3c-0.3,0-0.6,0-0.9-0.1c-0.2-0.1-0.5-0.2-0.7-0.3v-9.2
	c0.2-0.2,0.5-0.3,0.8-0.4c0.3-0.1,0.6-0.1,0.9-0.1C-13,384-12.6,384.1-12.3,384.3L-12.3,384.3z M-2,394.5c-0.5-0.2-0.9-0.4-1.4-0.6
	l0.4-9.7h0.2L1,395.1h0.6l3.9-10.9h0.2l0.5,9.7c-0.4,0.1-0.6,0.2-0.9,0.3c-0.2,0.1-0.4,0.2-0.6,0.3v0.6h5.1v-0.6
	c-0.5-0.3-1-0.5-1.6-0.6l-0.5-9.6c0.3-0.1,0.6-0.1,0.9-0.2c0.2-0.1,0.5-0.2,0.7-0.3V383H4.9l-2.6,7l-0.5,1.7H1.7l-0.5-1.7l-2.5-7
	h-4.7v0.6c0.2,0.1,0.4,0.3,0.7,0.4c0.3,0.2,0.6,0.3,0.9,0.4l-0.4,9.4c-0.5,0.1-1.1,0.3-1.6,0.6v0.6H-2L-2,394.5L-2,394.5z"/>
<path id="туристическая_компания" class="st2" d="M-74.5,412.5v-5.1h2.1v-1h-5.4v1h2.1v5.1L-74.5,412.5
	L-74.5,412.5z M-71.7,414.6l0.1,0.1c0.1,0.1,0.3,0.1,0.4,0.2c0.2,0.1,0.4,0.1,0.6,0.1c0.4,0,0.8-0.1,1.2-0.4
	c0.4-0.3,0.6-0.6,0.8-1.1l2.9-7.2H-67l-1.5,4c-0.1,0.2-0.1,0.5-0.2,0.7h0l-0.2-0.7l-1.5-4h-1.3l2.5,6l-0.3,0.7
	c-0.1,0.5-0.6,0.9-1.1,0.9c-0.3,0-0.5-0.1-0.7-0.3L-71.7,414.6z M-63.2,414.9v-2.8c0-0.2,0-0.4,0-0.5h0c0.4,0.7,1.1,1.1,1.9,1
	c0.8,0,1.5-0.3,2-0.9c0.5-0.6,0.8-1.5,0.8-2.3c0-0.8-0.2-1.6-0.7-2.3c-0.5-0.6-1.2-0.9-1.9-0.9c-0.4,0-0.8,0.1-1.2,0.3
	c-0.4,0.2-0.6,0.5-0.8,0.8h0l0-0.5v-0.5h-1.1v8.5C-64.3,414.9-63.2,414.9-63.2,414.9z M-62.7,407.8c0.3-0.4,0.8-0.6,1.2-0.6
	c0.5,0,0.9,0.2,1.2,0.6c0.3,0.5,0.5,1,0.5,1.6c0,0.6-0.1,1.1-0.5,1.6c-0.3,0.4-0.8,0.6-1.2,0.6c-0.5,0-1-0.2-1.3-0.6
	c-0.3-0.4-0.5-1-0.5-1.5C-63.2,408.9-63.1,408.3-62.7,407.8L-62.7,407.8z M-55.7,412.5l2.6-3.6c0.3-0.5,0.5-0.8,0.5-0.8h0
	c0,0,0,0.1,0,0.3c0,0.2,0,0.4,0,0.5v3.6h1.1v-6.1h-1.1l-2.6,3.6c-0.2,0.3-0.4,0.5-0.5,0.8h0c0-0.3,0-0.5,0-0.8v-3.6h-1.1v6.1
	C-56.9,412.5-55.7,412.5-55.7,412.5z M-48.9,411.7c0.6,0.6,1.5,0.9,2.3,0.9c0.5,0,0.9-0.1,1.4-0.3c0.4-0.2,0.8-0.4,1.1-0.7l-0.5-0.9
	c-0.2,0.3-0.5,0.5-0.9,0.6c-0.3,0.1-0.7,0.2-1,0.2c-0.6,0-1.1-0.2-1.5-0.6c-0.4-0.4-0.6-1-0.6-1.6c0-0.6,0.2-1.1,0.6-1.5
	c0.4-0.4,0.9-0.6,1.5-0.6c0.6,0,1.2,0.2,1.7,0.7l0.6-0.8c-0.6-0.6-1.4-0.9-2.3-0.9c-0.9,0-1.7,0.3-2.3,0.9
	C-50.1,408.4-50.2,410.4-48.9,411.7L-48.9,411.7z M-40.1,412.5v-5.1h2.1v-1h-5.4v1h2.1v5.1L-40.1,412.5L-40.1,412.5z M-35.4,412.5
	l2.6-3.6c0.3-0.5,0.5-0.8,0.5-0.8h0c0,0,0,0.1,0,0.3c0,0.2,0,0.4,0,0.5v3.6h1.1v-6.1h-1.1l-2.6,3.6c-0.2,0.3-0.4,0.5-0.5,0.8h0
	c0-0.3,0-0.5,0-0.8v-3.6h-1.1v6.1H-35.4z M-25.8,409.9L-25.8,409.9l0,0.4v2.2h1.2v-6.1h-1.2v2.5c-0.4,0.3-0.9,0.4-1.3,0.4
	c-0.3,0-0.7-0.1-0.9-0.3c-0.2-0.2-0.3-0.5-0.3-0.8v-1.8h-1.1v2c0,0.5,0.2,1.1,0.5,1.5c0.4,0.4,1,0.5,1.5,0.5
	C-26.9,410.4-26.3,410.2-25.8,409.9L-25.8,409.9z M-22.1,411.7c0.6,0.6,1.5,0.9,2.3,0.9c0.4,0,0.9-0.1,1.3-0.2
	c0.4-0.1,0.8-0.4,1.1-0.6l-0.5-0.9c-0.5,0.5-1.1,0.7-1.8,0.7c-0.5,0-1-0.2-1.4-0.5c-0.4-0.4-0.6-0.9-0.6-1.5h4.4c0-0.2,0-0.3,0-0.5
	c0-0.7-0.2-1.5-0.7-2c-0.5-0.6-1.2-0.8-1.9-0.8c-0.8,0-1.6,0.3-2.2,0.9c-0.6,0.6-0.9,1.4-0.9,2.3C-23,410.3-22.7,411.1-22.1,411.7
	L-22.1,411.7z M-21.2,407.6c0.3-0.3,0.7-0.4,1.2-0.4c0.4,0,0.8,0.1,1,0.4c0.3,0.3,0.4,0.7,0.4,1.2h-3.3
	C-21.7,408.3-21.5,407.9-21.2,407.6L-21.2,407.6z M-15.2,411.7c0.6,0.6,1.5,0.9,2.3,0.9c0.5,0,0.9-0.1,1.4-0.3
	c0.4-0.2,0.8-0.4,1.1-0.7l-0.5-0.9c-0.2,0.3-0.5,0.5-0.9,0.6c-0.3,0.1-0.7,0.2-1,0.2c-0.6,0-1.1-0.2-1.5-0.6c-0.4-0.4-0.6-1-0.6-1.6
	c0-0.6,0.2-1.1,0.6-1.5c0.4-0.4,0.9-0.6,1.5-0.6c0.6,0,1.2,0.2,1.7,0.7l0.6-0.8c-0.6-0.6-1.4-0.9-2.3-0.9c-0.9,0-1.7,0.3-2.3,0.9
	C-16.4,408.4-16.4,410.4-15.2,411.7L-15.2,411.7z M-7.7,412.5v-2.6h0.9l1.8,2.6h1.4l-2.3-3.2v0l2-2.9h-1.3l-1.7,2.4h-0.9v-2.4h-1.2
	v6.1H-7.7L-7.7,412.5z M-2.4,412.1c0.4,0.3,0.9,0.5,1.4,0.5c0.4,0,0.8-0.1,1.2-0.3c0.3-0.2,0.6-0.5,0.8-0.9h0l0,0.5v0.6h1.1v-3.8
	c0-0.6-0.2-1.3-0.6-1.8c-0.5-0.4-1.1-0.7-1.8-0.6c-0.4,0-0.9,0.1-1.3,0.2c-0.4,0.1-0.7,0.3-1,0.5l0.5,0.9c0.5-0.4,1.1-0.6,1.7-0.6
	c0.6-0.1,1.2,0.4,1.3,1c0,0.1,0,0.2,0,0.3v0.1H0.6c-0.4,0-0.7,0-1.1,0.1c-0.4,0.1-0.8,0.1-1.1,0.3c-0.4,0.1-0.7,0.3-1,0.7
	c-0.3,0.3-0.4,0.7-0.4,1.1C-3,411.3-2.8,411.8-2.4,412.1L-2.4,412.1z M0.7,409.5H1v0.2c0,0.5-0.2,1-0.5,1.3
	c-0.3,0.4-0.7,0.6-1.2,0.6c-0.3,0-0.6-0.1-0.8-0.3c-0.2-0.2-0.3-0.4-0.3-0.7C-1.8,409.9-1,409.5,0.7,409.5L0.7,409.5L0.7,409.5z
	 M4.8,412.5l1.5-2.2h1v2.2h1.2v-6.1H6c-0.6,0-1.1,0.1-1.6,0.5c-0.7,0.7-0.8,1.8-0.2,2.5c0.2,0.3,0.6,0.5,0.9,0.6v0l-0.3,0.4l-1.4,2
	L4.8,412.5L4.8,412.5z M5.4,409.1c-0.2-0.2-0.4-0.5-0.4-0.8c0-0.6,0.4-1.1,1-1.1c0.1,0,0.2,0,0.3,0h1v2.2h-1
	C5.9,409.4,5.6,409.3,5.4,409.1L5.4,409.1z M14.9,412.5v-2.6h0.9l1.8,2.6h1.4l-2.3-3.2v0l2-2.9h-1.3l-1.7,2.4h-0.9v-2.4h-1.2v6.1
	H14.9L14.9,412.5z M20.5,411.7c1.3,1.2,3.3,1.2,4.6,0c0.6-0.6,1-1.4,0.9-2.3c0-0.9-0.3-1.7-0.9-2.3c-1.3-1.2-3.3-1.2-4.6,0
	C19.3,408.4,19.2,410.4,20.5,411.7C20.5,411.7,20.5,411.7,20.5,411.7L20.5,411.7z M21.4,407.9c0.8-0.8,2.1-0.8,3,0
	c0.4,0.4,0.6,1,0.6,1.5c0,0.6-0.2,1.1-0.6,1.6c-0.8,0.8-2.1,0.8-2.9,0c0,0,0,0,0,0c-0.4-0.4-0.6-1-0.6-1.6
	C20.7,408.8,20.9,408.3,21.4,407.9L21.4,407.9z M28.6,412.5l0.3-3.6l0-1h0l0.4,0.9l1.4,3h1l1.4-3c0.2-0.3,0.3-0.6,0.4-0.9h0l0,1
	l0.3,3.6H35l-0.5-6.1h-1.3l-1.6,3.4c-0.1,0.2-0.2,0.5-0.3,0.8h0l-0.3-0.8l-1.5-3.4H28l-0.5,6.1L28.6,412.5L28.6,412.5z M37.9,412.5
	v-5.1h3v5.1h1.2v-6.1h-5.3v6.1L37.9,412.5L37.9,412.5z M44.2,412.1c0.4,0.3,0.9,0.5,1.4,0.5c0.4,0,0.8-0.1,1.2-0.3
	c0.3-0.2,0.6-0.5,0.8-0.9h0l0,0.5v0.6h1.1v-3.8c0-0.6-0.2-1.3-0.6-1.8c-0.5-0.4-1.1-0.7-1.8-0.6c-0.4,0-0.9,0.1-1.3,0.2
	c-0.4,0.1-0.7,0.3-1,0.5l0.5,0.9c0.5-0.4,1.1-0.6,1.7-0.6c0.6-0.1,1.2,0.4,1.3,1c0,0.1,0,0.2,0,0.3v0.1h-0.3c-0.4,0-0.7,0-1.1,0.1
	c-0.4,0.1-0.8,0.1-1.1,0.3c-0.4,0.1-0.7,0.3-1,0.7c-0.3,0.3-0.4,0.7-0.4,1.1C43.6,411.3,43.8,411.8,44.2,412.1L44.2,412.1z
	 M47.2,409.5h0.3v0.2c0,0.5-0.2,1-0.5,1.3c-0.3,0.4-0.7,0.6-1.2,0.6c-0.3,0-0.6-0.1-0.8-0.3c-0.2-0.2-0.3-0.4-0.3-0.7
	C44.8,409.9,45.6,409.5,47.2,409.5L47.2,409.5L47.2,409.5z M51.8,412.5v-2.6h3.1v2.6H56v-6.1h-1.2v2.5h-3.1v-2.5h-1.2v6.1
	L51.8,412.5L51.8,412.5z M59.2,412.5l2.6-3.6c0.3-0.5,0.5-0.8,0.5-0.8h0c0,0,0,0.1,0,0.3c0,0.2,0,0.4,0,0.5v3.6h1.1v-6.1h-1.1
	l-2.6,3.6c-0.2,0.3-0.4,0.5-0.5,0.8h0c0-0.3,0-0.5,0-0.8v-3.6h-1.1v6.1L59.2,412.5L59.2,412.5z M66.2,412.5l1.5-2.2h1v2.2h1.2v-6.1
	h-2.4c-0.6,0-1.1,0.1-1.6,0.5c-0.7,0.7-0.8,1.8-0.2,2.5c0.2,0.3,0.6,0.5,0.9,0.6v0l-0.3,0.4l-1.4,2L66.2,412.5L66.2,412.5z
	 M66.8,409.1c-0.2-0.2-0.4-0.5-0.3-0.8c0-0.6,0.4-1.1,1-1.1c0.1,0,0.2,0,0.3,0h1v2.2h-1C67.3,409.4,67,409.3,66.8,409.1L66.8,409.1z
	"/>
<rect x="-102" y="379" class="st3" width="1" height="36"/>
<path class="st4" d="M-132.2,404c-0.3-0.7-0.9-1.4-1.6-1.8c-0.7-0.4-1.6-0.8-2.5-1c-3.1-0.7-5.9,0-8.8,0.8c-2.1,0.6-3.7-0.2-4-2.5
	c-0.1-1.1-0.2-2.1-0.2-3.2c-0.1-5.1-0.2-9.2,0-14.2c2.9,0.1,5.7-0.3,7.5,1.9c0.6,0.7,0.5,0.6,1.1,1.5c0.2,0.4,0.4,0.8,1,0.8
	c0.3-0.5,0-1.6,0-2.5c-0.1-0.9-0.2-1.9-0.3-2.6c-1.4,0-2.8,0.1-4,0.2c-3.7,0.1-7.5,0.1-11.2,0c-1,0-5.5-0.3-6.3-0.2
	c-0.2,0.4-0.8,4.7-0.6,5.3c0.8,0.1,0.4-0.1,0.8-0.9c1.7-3.4,4.4-3.4,7.7-3.5c0.2,0,0.7-0.1,0.9,0.1c0.1,0.4,0.4,5.7,0.4,6.5
	c0,4,0.1,10.1-0.8,13.2c-0.5,1.7-1.7,3.5-3.2,4.3c-0.6,0.3-1.1,0.5-1.8,0.7c-3.6,1.5-9.5,3.2-13.4,2c-0.7-0.2-1.4-0.6-2-1.1
	c-0.2-0.1-0.2-0.2-0.4-0.2c0.3,0.5,0.5,1.2,1.2,1.9c1.2,1.2,3,1.6,4.8,1.7c1.5,0,3-0.2,4.4-0.4c0.7-0.1,0.6,0,1.2,0.3
	c2.6,1.1,6.9-1.3,7.8-1.2c0.9,0.1,1,0.5,2.7,0c0.4-0.1,0.8-0.2,1.2-0.4c0.3-0.1,0.7-0.3,1.1-0.5c0.4-0.2,0.7-0.4,1-0.5
	c2.9-1.5,6-4,9.3-5.1c2.2-0.7,5.2-1.2,6.4,1.3c0.8,1.8-0.1,4.1-1.9,5c-1.2,0.6-2.9,0.7-3.9-0.2c-0.7-0.7-0.6-1.2-0.7-1.9
	c1.5,0.1,3.7,0.5,4.8-1.2c0.9-1.3-0.2-3.1-3.2-1.8c-0.8,0.4-1.8,1.4-2.1,2.2c-0.5,0-0.9-0.2-1.3-0.4c-0.1,0-0.2-0.1-0.3-0.1
	c-0.2-0.1-0.2-0.1-0.3-0.2c-0.9-0.5-0.5,1.1-0.7,1.7c-0.3,1.4-1.7,2.1-3.3,2.1c-1.5,0-1.8-0.2-3.2,0.2c-0.9,0.3-1.8,0.8-2.1,1.5
	c0.2-0.1,0.4-0.1,0.6-0.2c3.3-1.5,2.8-0.5,5.2-0.8c1-0.1,1.9-0.5,2.5-1.1c0.5-0.5,0.4-0.2,0.8-1c0.2-0.5,0.3-1.1,0.4-1.4l1.4,0.5
	c-0.1,1.1-0.3,1.8,0.3,2.7c1.4,2.1,4.8,1.3,6,0.1C-132,408.5-131.1,406.2-132.2,404z M-170.1,409.9c0.8,0,1.6,0.1,2.4,0
	c4.7-0.2,9.4-1.9,13.6-3.6c3.2-1.4,11.3-5,15-4.6c-0.5,0.2-1.5,0.3-2.1,0.5c-3.8,1-9.4,3.4-13,4.9
	C-157.4,408.3-167,412.3-170.1,409.9z M-162.1,410.5C-162.1,410.5-162.1,410.5-162.1,410.5c0.1,0,0.1,0,0.1-0.1c0,0,0.1,0,0.1,0
	c-0.3,0.1,0.3-0.1,0,0c0,0,0,0,0,0l1.5-0.3c1.5-0.4,3.2-1,4.5-1.5c3.9-1.6,14.2-6.8,17.6-6.7c-0.4,0.2-1.1,0.3-1.5,0.5
	c-4.5,1.5-8.6,3.6-12.8,5.6C-154.7,408.9-160.3,411.4-162.1,410.5z M-138.4,402.5c-0.1,0-0.2,0.1-0.3,0.1c-2.4,0.9-5,2.1-7.1,3.5
	c-1.4,0.9-5.7,3.6-8,3.4c2.5-1.3,5-2.6,7.5-3.9c1.6-0.8,6.3-3.2,8.2-3.3L-138.4,402.5z M-137.5,405.1c2.1-1.4,3.6,0.9,1.3,1.7
	c-0.8,0.3-1.9,0.1-2.7,0C-138.6,406-138,405.4-137.5,405.1z"/>
</svg>
