<?xml version="1.0" encoding="utf-8"?>
<!-- Generator: Adobe Illustrator 19.0.0, SVG Export Plug-In . SVG Version: 6.00 Build 0)  -->
<svg version="1.1" id="Layer_1" xmlns="http://www.w3.org/2000/svg" xmlns:xlink="http://www.w3.org/1999/xlink" x="0px" y="0px"
	 viewBox="-205 368 200.8 58" style="enable-background:new -205 368 200.8 58;" xml:space="preserve">
<style type="text/css">
	.st0{fill:#00A5F1;}
	.st1{fill:none;enable-background:new    ;}
	.st2{fill:#373B3C;}
	.st3{fill-rule:evenodd;clip-rule:evenodd;fill:#FAFAFA;}
</style>
<path id="Rounded_Rectangle_3" class="st0" d="M-203.9,368h62.8c0.6,0,1.1,0.5,1.1,1.1v55.8c0,0.6-0.5,1.1-1.1,1.1h-62.8
	c-0.6,0-1.1-0.5-1.1-1.1v-55.8C-205,368.5-204.5,368-203.9,368z"/>
<image style="display:none;overflow:visible;" width="47" height="34" xlink:href="D8829CF8.png"  transform="matrix(1 0 0 1 -197 380)">
</image>
<path class="st1" d="z"/>
<path id="Триуфм" class="st2" d="M-109.8,407.3c-0.4-0.2-0.9-0.3-1.4-0.4c-0.5-0.1-1-0.2-1.5-0.3v-19h4.8l1.7,4.6h0.8
	c0.1-0.4,0.1-0.9,0.1-1.5s0.1-1.1,0.1-1.7c0-0.6,0.1-1.1,0.1-1.6c0-0.5,0-1,0-1.4h-18.4c0,0.4,0,0.9,0,1.5s0,1.1,0.1,1.7
	c0,0.6,0.1,1.1,0.1,1.7s0.1,1,0.2,1.5h0.8l1.7-4.6h4.8v19c-0.5,0.1-1,0.2-1.5,0.3c-0.5,0.1-0.9,0.3-1.4,0.4v0.9h8.9L-109.8,407.3
	L-109.8,407.3z M-96.7,413.8c-0.3-0.2-0.7-0.4-1.1-0.5c-0.3-0.1-0.7-0.2-1-0.2V408c0.5,0.2,1,0.4,1.5,0.5c0.6,0.1,1.2,0.2,1.8,0.1
	c1,0,2.1-0.2,3.1-0.6c0.9-0.4,1.7-1,2.3-1.7c0.7-0.8,1.2-1.7,1.5-2.8c0.4-1.2,0.5-2.4,0.5-3.6c0-2.8-0.5-4.9-1.5-6.1
	c-1.1-1.3-2.7-2-4.4-1.9c-1.1,0-2.1,0.3-3,1c-0.8,0.7-1.4,1.6-1.8,2.6h0v-3.6h-0.8c-0.7,0.1-1.4,0.3-2.1,0.4
	c-0.7,0.2-1.4,0.4-2.1,0.7v0.8l2.1,0.3v19c-0.7,0.2-1.4,0.4-2.1,0.8v0.8h7C-96.7,414.6-96.7,413.8-96.7,413.8z M-93.2,394.3
	c0.5,0.3,0.9,0.7,1.2,1.3c0.3,0.6,0.5,1.2,0.7,1.9c0.1,0.8,0.2,1.6,0.2,2.4c0,1-0.1,2-0.3,2.9c-0.2,0.8-0.5,1.6-0.9,2.3
	c-0.3,0.6-0.8,1.1-1.4,1.5c-0.6,0.4-1.2,0.6-1.9,0.5c-0.6,0-1.2,0-1.9-0.2c-0.5-0.1-0.9-0.3-1.3-0.5v-9c0.2-1,0.6-1.9,1.3-2.7
	c0.6-0.7,1.5-1,2.5-1C-94.4,393.8-93.8,393.9-93.2,394.3L-93.2,394.3z M-85,393c0.6,0.4,1.3,0.7,2.1,0.8v12.8
	c-0.4,0.1-0.7,0.2-1,0.3c-0.4,0.1-0.7,0.3-1,0.4v0.8h4.3l6.7-10.8l1.2-2.4h0.2l-0.3,2.5v9.2c-0.7,0.2-1.3,0.4-1.9,0.8v0.8h6.7v-0.8
	c-0.3-0.2-0.6-0.3-0.9-0.4c-0.4-0.1-0.7-0.2-1.1-0.3v-12.8c0.7-0.1,1.4-0.4,2.1-0.8v-0.8h-4.3l-6.8,10.9l-1.2,2.4h-0.2l0.3-3v-8.8
	c0.4-0.1,0.7-0.2,1.1-0.4c0.3-0.1,0.5-0.2,0.8-0.4v-0.8H-85L-85,393L-85,393z M-58.3,408.2c-0.2,0.6-0.3,1-0.4,1.4
	c-0.1,0.4-0.2,0.7-0.3,0.9c-0.1,0.2-0.2,0.4-0.3,0.6c-0.1,0.2-0.2,0.3-0.3,0.5H-63l-0.4,0.8c0.1,0.4,0.3,0.9,0.5,1.4
	c0.2,0.5,0.4,0.9,0.6,1.3c0.5-0.1,1-0.3,1.5-0.5c0.5-0.3,1-0.6,1.4-1.1c0.5-0.6,1-1.3,1.4-2c0.6-1.1,1-2.2,1.4-3.3l4.9-14.4
	c0.6-0.2,1.2-0.4,1.8-0.8v-0.8h-5.4v0.8c0.5,0.4,1.1,0.6,1.7,0.8l-3,9.4l-0.5,2h-0.1l-0.6-2l-4-9.5c0.6-0.2,1.2-0.4,1.8-0.8v-0.8
	h-6.6v0.8c0.3,0.2,0.5,0.3,0.8,0.4c0.3,0.1,0.6,0.2,0.9,0.3L-58.3,408.2z M-35.1,413.8c-0.3-0.2-0.6-0.4-1-0.5
	c-0.4-0.1-0.7-0.2-1.1-0.3v-5.4c0.3,0.3,0.7,0.6,1.1,0.7c0.5,0.2,1,0.3,1.5,0.3c0.9,0,1.7-0.2,2.5-0.5c0.8-0.4,1.5-1,2-1.7
	c0.6-0.9,1-1.9,1.3-2.9c0.3-1.4,0.5-2.8,0.5-4.2c0-2.5-0.5-4.4-1.6-5.6c-1.1-1.2-2.6-1.9-4.3-1.8c-0.6,0-1.1,0.1-1.7,0.3
	c-0.5,0.2-0.9,0.5-1.3,0.9v-8.9H-38c-0.7,0.1-1.4,0.3-2.2,0.4c-0.7,0.2-1.4,0.4-2.1,0.7v0.8l2.4,0.3v6.5c-0.2-0.3-0.6-0.6-1-0.8
	c-0.5-0.2-0.9-0.3-1.4-0.3c-1.8-0.1-3.5,0.8-4.6,2.2c-1.2,1.5-1.7,3.7-1.7,6.8c0,1.2,0.1,2.4,0.4,3.5c0.2,0.9,0.7,1.7,1.2,2.4
	c0.5,0.6,1.2,1.1,1.9,1.4c0.8,0.3,1.6,0.5,2.5,0.5c0.5,0,1.1-0.1,1.6-0.3c0.4-0.2,0.8-0.5,1.2-0.9v5.6c-0.7,0.1-1.4,0.4-2.1,0.8v0.8
	h6.9L-35.1,413.8L-35.1,413.8z M-43.4,406.7c-0.5-0.3-0.9-0.7-1.2-1.2c-0.4-0.7-0.7-1.5-0.8-2.3c-0.2-1.2-0.3-2.4-0.3-3.6
	c0-0.9,0.1-1.9,0.3-2.8c0.1-0.7,0.4-1.3,0.8-1.9c0.6-0.9,1.6-1.4,2.6-1.4c0.4,0,0.9,0,1.3,0.1c0.3,0.1,0.6,0.2,0.8,0.4v12.3
	c-0.3,0.3-0.6,0.5-1,0.6c-0.4,0.1-0.7,0.1-1.1,0.1C-42.5,407-43,406.9-43.4,406.7L-43.4,406.7z M-33.4,393.8
	c0.5,0.3,0.9,0.7,1.1,1.1c0.3,0.7,0.6,1.4,0.7,2.1c0.2,1.1,0.3,2.2,0.2,3.3c0,1-0.1,2.1-0.3,3.1c-0.2,0.7-0.4,1.4-0.8,2
	c-0.3,0.5-0.7,0.9-1.2,1.1c-0.4,0.2-0.9,0.4-1.4,0.4c-0.4,0-0.8,0-1.2-0.1c-0.3-0.1-0.6-0.2-0.9-0.4v-12.3c0.3-0.3,0.6-0.4,1-0.5
	c0.4-0.1,0.8-0.1,1.2-0.1C-34.4,393.5-33.9,393.6-33.4,393.8L-33.4,393.8z M-19.9,407.4c-0.6-0.3-1.2-0.6-1.9-0.8l0.5-13h0.3
	l5.1,14.5h0.9l5.2-14.5h0.3l0.6,13c-0.5,0.1-0.8,0.3-1.1,0.4s-0.5,0.2-0.8,0.4v0.8h6.7v-0.8c-0.6-0.4-1.4-0.6-2.1-0.8L-7,393.8
	c0.4-0.1,0.8-0.2,1.2-0.3c0.3-0.1,0.6-0.3,0.9-0.4v-0.8h-6l-3.4,9.3l-0.7,2.2H-15l-0.6-2.2l-3.3-9.3H-25v0.8
	c0.3,0.2,0.6,0.4,0.9,0.5c0.4,0.2,0.8,0.4,1.2,0.5l-0.5,12.5c-0.7,0.2-1.4,0.4-2.1,0.8v0.8h5.6L-19.9,407.4L-19.9,407.4z"/>
<path class="st3" d="M-150.5,405.9c-0.4-0.8-1.1-1.6-1.8-2c-0.8-0.5-1.8-0.9-2.9-1.1c-3.5-0.8-6.8,0-10.1,1
	c-2.4,0.7-4.3-0.2-4.5-2.8c-0.1-1.2-0.2-2.4-0.2-3.6c-0.1-5.9-0.2-10.5,0.1-16.3c3.3,0.1,6.5-0.3,8.6,2.2c0.6,0.8,0.6,0.7,1.2,1.7
	c0.3,0.5,0.5,1,1.1,0.9c0.3-0.5,0-1.8,0-2.9c-0.1-1-0.3-2.2-0.3-3c-1.6,0-3.2,0.1-4.6,0.2c-4.3,0.1-8.6,0.1-12.8,0
	c-1.1,0-6.3-0.3-7.2-0.2c-0.2,0.4-0.9,5.4-0.7,6.1c0.9,0.1,0.5-0.2,0.9-1.1c1.9-3.9,5.1-3.9,8.8-4c0.2,0,0.8-0.1,1,0.1
	c0.2,0.4,0.4,6.5,0.4,7.4c0,4.5,0.1,11.6-1,15.1c-0.6,2-1.9,3.9-3.6,4.9c-0.7,0.4-1.3,0.5-2.1,0.8c-4.1,1.7-10.8,3.7-15.3,2.3
	c-0.8-0.3-1.7-0.7-2.3-1.3c-0.2-0.2-0.2-0.2-0.5-0.2c0.4,0.6,0.6,1.3,1.4,2.1c1.4,1.3,3.4,1.9,5.4,1.9c1.7,0.1,3.4-0.2,5-0.5
	c0.9-0.2,0.6,0,1.4,0.4c2.9,1.3,7.8-1.5,8.9-1.4c1,0.1,1.1,0.5,3.1,0c0.5-0.1,1-0.3,1.4-0.5c0.4-0.2,0.8-0.3,1.3-0.6
	c0.4-0.2,0.8-0.4,1.1-0.6c3.3-1.7,6.9-4.6,10.7-5.8c2.5-0.8,6-1.4,7.3,1.5c0.9,2-0.1,4.7-2.1,5.7c-1.4,0.7-3.3,0.8-4.5-0.3
	c-0.8-0.8-0.7-1.4-0.7-2.2c1.7,0.1,4.2,0.6,5.5-1.4c1-1.5-0.3-3.5-3.6-2.1c-1,0.4-2,1.6-2.4,2.5c-0.6-0.1-1-0.2-1.5-0.4
	c-0.1-0.1-0.2-0.1-0.3-0.1c-0.2-0.1-0.2-0.1-0.3-0.2c-1.1-0.5-0.6,1.2-0.8,1.9c-0.4,1.6-2,2.4-3.8,2.4c-1.7,0-2.1-0.3-3.7,0.2
	c-1,0.3-2,0.9-2.4,1.7c0.3-0.1,0.4-0.2,0.7-0.3c3.8-1.7,3.3-0.5,6-0.9c1.2-0.2,2.2-0.6,2.8-1.2c0.6-0.6,0.4-0.3,0.9-1.2
	c0.3-0.5,0.3-1.3,0.5-1.6l1.6,0.6c-0.2,1.3-0.3,2.1,0.4,3.1c1.6,2.4,5.5,1.5,6.9,0.1C-150.3,411.1-149.3,408.5-150.5,405.9z
	 M-193.9,412.7c0.9,0,1.8,0.1,2.7,0c5.4-0.2,10.8-2.1,15.6-4.2c3.7-1.6,12.9-5.7,17.2-5.3c-0.6,0.2-1.7,0.3-2.4,0.5
	c-4.4,1.1-10.7,3.9-14.8,5.6C-179.5,410.9-190.4,415.4-193.9,412.7z M-184.8,413.4C-184.8,413.4-184.7,413.4-184.8,413.4
	c0.1,0,0.1-0.1,0.1-0.1c0,0,0.1,0,0.1,0c-0.3,0.1,0.3-0.1,0,0c0,0,0,0,0,0l1.7-0.4c1.7-0.4,3.6-1.1,5.2-1.7
	c4.5-1.8,16.3-7.8,20.1-7.7c-0.4,0.2-1.3,0.4-1.8,0.6c-5.1,1.7-9.8,4.1-14.7,6.4C-176.3,411.5-182.7,414.4-184.8,413.4z
	 M-157.7,404.2c-0.1,0-0.2,0.1-0.3,0.1c-2.8,1-5.8,2.5-8.2,4c-1.6,1.1-6.5,4.1-9.1,3.9c2.9-1.5,5.7-2.9,8.6-4.4
	c1.8-0.9,7.2-3.6,9.4-3.8L-157.7,404.2z M-156.6,407.1c2.4-1.6,4.1,1.1,1.5,1.9c-0.9,0.3-2.2,0.1-3.1,0
	C-157.9,408.2-157.2,407.5-156.6,407.1z"/>
</svg>
