<?xml version="1.0" encoding="utf-8"?><svg xmlns="http://www.w3.org/2000/svg" xmlns:xlink="http://www.w3.org/1999/xlink"><symbol viewBox="0 0 24 25" id="bolt"><path d="M19.87 8.966a1 1 0 00-.87-.6h-4.58l1.27-4.74a1 1 0 00-.52-1.157 1 1 0 00-.44-.103h-7a1 1 0 00-1 .74l-2.68 10a1 1 0 00.524 1.159 1 1 0 00.446.1h3.87l-1.81 6.74a1 1 0 001.71.93l10.9-12a1 1 0 00.18-1.07zm-9.79 8.68l1.07-4a1 1 0 00-.52-1.157 1 1 0 00-.44-.103H6.35l2.14-8.02h4.93l-1.27 4.74a1 1 0 001 1.26h3.57l-6.64 7.28z"/></symbol><symbol viewBox="0 0 24 24" id="calendar"><path d="M12 19a1 1 0 100-2 1 1 0 000 2zm5 0a1 1 0 100-2 1 1 0 000 2zm0-4a1 1 0 100-2 1 1 0 000 2zm-5 0a1 1 0 100-2 1 1 0 000 2zm7-12h-1V2a1 1 0 00-2 0v1H8V2a1 1 0 00-2 0v1H5a3 3 0 00-3 3v14a3 3 0 003 3h14a3 3 0 003-3V6a3 3 0 00-3-3zm1 17a1 1 0 01-1 1H5a1 1 0 01-1-1v-9h16v9zm0-11H4V6a1 1 0 011-1h1v1a1 1 0 002 0V5h8v1a1 1 0 002 0V5h1a1 1 0 011 1v3zM7 15a1 1 0 100-2 1 1 0 000 2zm0 4a1 1 0 100-2 1 1 0 000 2z"/></symbol><symbol viewBox="0 0 20 20" id="cart"><path d="M17.5 13.333H5.834a.834.834 0 010-1.666h8.7a2.5 2.5 0 002.425-1.892l1.375-5.408a.833.833 0 00-.15-.717.834.834 0 00-.684-.317H5.634a2.5 2.5 0 00-2.35-1.666H2.5a.833.833 0 100 1.666h.784a.833.833 0 01.833.634l.05.4L5.609 10a2.502 2.502 0 10.225 5h.15a2.5 2.5 0 104.7 0h1.966a2.5 2.5 0 104.7 0h.15a.833.833 0 000-1.667zM16.434 5l-1.092 4.367a.833.833 0 01-.833.633H7.317l-1.25-5h10.367zm-8.1 11.667a.833.833 0 110-1.667.833.833 0 010 1.667zm6.666 0A.833.833 0 1115 15a.833.833 0 010 1.666z"/></symbol><symbol viewBox="0 0 20 20" id="check"><path fill-rule="evenodd" clip-rule="evenodd" d="M15.375 6.56a1 1 0 01-.036 1.415l-6.31 6a1 1 0 01-1.416-.037l-2.84-3a1 1 0 011.453-1.375l2.15 2.272 5.585-5.31a1 1 0 011.414.036z"/></symbol><symbol viewBox="0 0 16 16" id="check-circle"><path d="M9.814 5.86l-2.86 2.867-1.1-1.1a.667.667 0 10-.94.94l1.567 1.574a.668.668 0 00.94 0l3.333-3.334a.666.666 0 00-.47-1.14.667.667 0 00-.47.194zM8.001 1.335a6.667 6.667 0 100 13.333A6.667 6.667 0 008 1.334zm0 12A5.334 5.334 0 118 2.667a5.334 5.334 0 010 10.667z"/></symbol><symbol viewBox="0 0 16 17" id="dumbbell"><path d="M11.653 5.007L9.76 3.114a.667.667 0 10-.947.94l1.414 1.413-5.4 5.4-1.414-1.413a.667.667 0 10-.94.947l1.874 1.873 1.873 1.873a.667.667 0 10.947-.94l-1.394-1.393 5.4-5.4 1.414 1.413a.668.668 0 00.94-.946l-1.874-1.874zm-9.18 7.274a.67.67 0 10-.946.946l1.886 1.887a.667.667 0 00.474.193.668.668 0 00.473-1.14l-1.887-1.886zm12-8.227l-1.886-1.887a.669.669 0 10-.947.947L13.527 5a.666.666 0 001.092-.217.666.666 0 00-.146-.73z"/></symbol><symbol viewBox="0 0 24 24" id="exclamation-circle"><path d="M12 7a1 1 0 00-1 1v4a1 1 0 002 0V8a1 1 0 00-1-1zm.92 8.62a.758.758 0 00-.09-.18l-.12-.15a.999.999 0 00-1.09-.21 1.15 1.15 0 00-.33.21A1 1 0 0011 16c.002.13.029.26.08.38a.9.9 0 00.54.54.94.94 0 00.76 0 .9.9 0 00.54-.54c.051-.12.078-.25.08-.38a1.362 1.362 0 000-.2.639.639 0 00-.08-.18zM12 2a10 10 0 100 20 10 10 0 000-20zm0 18a8 8 0 110-16.001A8 8 0 0112 20z"/></symbol><symbol viewBox="0 0 24 24" id="eye"><path d="M21.92 11.6C19.9 6.91 16.1 4 12 4s-7.9 2.91-9.92 7.6a1 1 0 000 .8C4.1 17.09 7.9 20 12 20s7.9-2.91 9.92-7.6a1.001 1.001 0 000-.8zM12 18c-3.17 0-6.17-2.29-7.9-6C5.83 8.29 8.83 6 12 6s6.17 2.29 7.9 6c-1.73 3.71-4.73 6-7.9 6zm0-10a4 4 0 100 8 4 4 0 000-8zm0 6a2 2 0 110-4 2 2 0 010 4z"/></symbol><symbol viewBox="0 0 24 24" id="eye-slash"><path d="M10.94 6.08c.35-.054.705-.08 1.06-.08 3.18 0 6.17 2.29 7.91 6a15.23 15.23 0 01-.9 1.64 1 1 0 101.7 1.05 15.78 15.78 0 001.21-2.3 1.001 1.001 0 000-.79C19.9 6.91 16.1 4 12 4a7.77 7.77 0 00-1.4.12 1.015 1.015 0 10.34 2v-.04zM3.71 2.29a1.004 1.004 0 10-1.42 1.42l3.1 3.09a14.62 14.62 0 00-3.31 4.8 1 1 0 000 .8C4.1 17.09 7.9 20 12 20a9.26 9.26 0 005.05-1.54l3.24 3.25a1 1 0 001.42 0 1.002 1.002 0 000-1.42l-18-18zm6.36 9.19l2.45 2.45a2 2 0 01-2.45-2.45zM12 18c-3.18 0-6.17-2.29-7.9-6a12.09 12.09 0 012.7-3.79L8.57 10A4 4 0 0014 15.43L15.59 17A7.24 7.24 0 0112 18z"/></symbol><symbol viewBox="0 0 16 16" id="flash"><path d="M13.243 5.733a.667.667 0 00-.58-.4H9.61l.846-3.16a.667.667 0 00-.349-.772.667.667 0 00-.297-.068H5.143a.667.667 0 00-.667.494L2.69 8.493a.667.667 0 00.666.84h2.567l-1.207 4.494a.667.667 0 001.14.62l7.267-8a.667.667 0 00.12-.714zM6.716 11.52l.72-2.667a.667.667 0 00-.106-.593.667.667 0 00-.54-.26H4.23l1.426-5.333h3.287l-.847 3.16a.667.667 0 00.667.84h2.38L6.716 11.52z"/></symbol><symbol viewBox="0 0 24 24" id="graph"><path d="M6 13H2a1 1 0 00-1 1v8a1 1 0 001 1h4a1 1 0 001-1v-8a1 1 0 00-1-1zm-1 8H3v-6h2v6zM22 9h-4a1 1 0 00-1 1v12a1 1 0 001 1h4a1 1 0 001-1V10a1 1 0 00-1-1zm-1 12h-2V11h2v10zM14 1h-4a1 1 0 00-1 1v20a1 1 0 001 1h4a1 1 0 001-1V2a1 1 0 00-1-1zm-1 20h-2V3h2v18z"/></symbol><symbol viewBox="0 0 20 20" id="loader"><path d="M10 17.5c0 .46-.375.837-.833.791a8.334 8.334 0 119.124-9.124c.046.458-.331.832-.792.832-.46 0-.828-.374-.885-.83a6.664 6.664 0 00-6.615-5.836 6.667 6.667 0 00-.83 13.281c.456.057.83.425.83.885z"/></symbol><symbol viewBox="0 0 16 16" id="mail"><path d="M12.667 2.667H3.333a2 2 0 00-2 2v6.666a2 2 0 002 2h9.334a2 2 0 002-2V4.666a2 2 0 00-2-2zM12.393 4l-3.92 3.92a.667.667 0 01-.946 0L3.607 4h8.786zm.94 7.333a.667.667 0 01-.666.667H3.333a.667.667 0 01-.666-.667V4.94l3.92 3.92a2 2 0 002.826 0l3.92-3.92v6.393z"/></symbol><symbol viewBox="0 0 16 16" id="multiply"><path d="M8.94 8l4.2-4.193a.67.67 0 10-.947-.947L8 7.06l-4.193-4.2a.67.67 0 10-.947.947L7.06 8l-4.2 4.193a.667.667 0 00.217 1.093.666.666 0 00.73-.146L8 8.94l4.193 4.2a.666.666 0 00.947 0 .667.667 0 000-.947L8.94 8z"/></symbol><symbol viewBox="0 0 24 25" id="play"><path d="M18.54 9.366l-9.66-5.54a3.42 3.42 0 00-5.13 3v11.12a3.42 3.42 0 005.13 2.96l9.66-5.54a3.42 3.42 0 000-5.92v-.08zm-1 4.19l-9.66 5.62a1.44 1.44 0 01-1.42 0 1.42 1.42 0 01-.71-1.23V6.785a1.42 1.42 0 01.71-1.23 1.51 1.51 0 01.71-.19c.248.005.492.07.71.19l9.66 5.58a1.42 1.42 0 010 2.46v-.04z"/></symbol><symbol viewBox="0 0 16 17" id="signal"><path d="M9.333 6.64H6.666A.667.667 0 006 7.308v8a.667.667 0 00.667.667h2.666a.667.667 0 00.667-.667v-8a.667.667 0 00-.667-.666zm-.667 8H7.333V7.975h1.333v6.667zm6-13.333H12a.667.667 0 00-.667.667v13.333a.667.667 0 00.667.667h2.666a.667.667 0 00.667-.667V1.974a.667.667 0 00-.667-.667zM14 14.641h-1.334v-12H14v12zm-10-4H1.333a.667.667 0 00-.666.666v4a.667.667 0 00.666.667H4a.667.667 0 00.667-.667v-4A.667.667 0 004 10.641zm-.667 4H2v-2.667h1.333v2.667z"/><path d="M9.333 6.64H6.666A.667.667 0 006 7.308v8a.667.667 0 00.667.667h2.666a.667.667 0 00.667-.667v-8a.667.667 0 00-.667-.666zm-.667 8H7.333V7.975h1.333v6.667zm6-13.333H12a.667.667 0 00-.667.667v13.333a.667.667 0 00.667.667h2.666a.667.667 0 00.667-.667V1.974a.667.667 0 00-.667-.667zM14 14.641h-1.334v-12H14v12zm-10-4H1.333a.667.667 0 00-.666.666v4a.667.667 0 00.666.667H4a.667.667 0 00.667-.667v-4A.667.667 0 004 10.641zm-.667 4H2v-2.667h1.333v2.667z"/></symbol><symbol viewBox="0 0 24 24" id="target"><path fill-rule="evenodd" clip-rule="evenodd" d="M12 3a9 9 0 100 18 9 9 0 000-18zM1 12C1 5.925 5.925 1 12 1s11 4.925 11 11-4.925 11-11 11S1 18.075 1 12z"/><path fill-rule="evenodd" clip-rule="evenodd" d="M12 7a5 5 0 100 10 5 5 0 000-10zm-7 5a7 7 0 1114 0 7 7 0 01-14 0z"/><path fill-rule="evenodd" clip-rule="evenodd" d="M12 11a1 1 0 100 2 1 1 0 000-2zm-3 1a3 3 0 116 0 3 3 0 01-6 0z"/></symbol><symbol viewBox="0 0 25 24" id="user"><path d="M16.043 12.71a6 6 0 10-7.42 0 10 10 0 00-6.22 8.18 1.006 1.006 0 102 .22 8 8 0 0115.9 0 1 1 0 001 .89h.11a1 1 0 00.88-1.1 10 10 0 00-6.25-8.19zm-3.71-.71a4 4 0 110-8 4 4 0 010 8z"/></symbol><symbol viewBox="0 0 24 24" id="user-exclamation"><path d="M14.55 12.22a4.92 4.92 0 001.7-3.72 5 5 0 00-10 0A4.92 4.92 0 008 12.22a8 8 0 00-4.7 7.28 1 1 0 102 0 6 6 0 1112 0 1 1 0 102 0 8 8 0 00-4.75-7.28zm-3.3-.72a3 3 0 110-5.999 3 3 0 010 5.999zm8.5-5a1 1 0 00-1 1v2a1 1 0 102 0v-2a1 1 0 00-1-1zM19 11.79a1.05 1.05 0 00-.29.71.998.998 0 00.29.71c.098.088.21.16.33.21a.94.94 0 00.76 0 .9.9 0 00.54-.54.84.84 0 00.08-.38 1 1 0 00-1.71-.71z"/></symbol></svg>