<svg width="199" height="99" viewBox="0 0 199 99" fill="none" xmlns="http://www.w3.org/2000/svg">
<path d="M188.066 88.582L187.069 94.3" stroke="#A614FF" stroke-width="3" stroke-linecap="round"/>
<path d="M181.225 92.299C181.326 91.7187 182.773 91.4302 183.437 91.3131C184.021 91.2101 184.582 91.0161 185.141 90.8621C185.864 90.6628 186.666 90.57 187.115 90.0294C187.271 89.8414 187.166 89.5954 187.374 89.4044C187.586 89.2106 187.552 89.2358 187.282 89.287C186.828 89.3727 186.365 89.6247 186.037 89.8882C185.715 90.1461 185.317 90.4555 184.944 90.668C184.79 90.7559 184.78 90.8837 184.673 91.0065C184.507 91.1968 184.265 91.3287 184.155 91.5473" stroke="#A614FF" stroke-width="3" stroke-linecap="round"/>
<path d="M9.72266 6.62534C47.1437 5.67093 76.7851 20.4712 98.0451 31.5482C120.24 43.1125 140.659 56.7686 160.791 70.7636C166.796 74.938 172.646 79.178 177.759 84.1343C180.546 86.8358 183.219 89.6332 185.932 92.3865C186.171 92.6285 189.279 95.1657 187.177 94.9728C184.865 94.7608 182.663 93.8188 180.484 93.1511M188.134 89.1542C188.029 89.0468 187.933 89.9065 187.939 90.0243C187.956 90.325 187.953 90.6126 187.913 90.9081C187.853 91.3396 188.185 91.776 188.112 92.1976C188.067 92.4535 188.09 93.223 187.796 93.3038C187.538 93.3751 187.937 94.5099 187.902 94.7098" stroke="#A614FF" stroke-width="3" stroke-linecap="round"/>
</svg>
