<svg width="191" height="94" viewBox="0 0 191 94" fill="none" xmlns="http://www.w3.org/2000/svg">
<path d="M185.286 2.62526C147.865 1.67085 118.223 16.4711 96.9634 27.5481C74.7681 39.1124 54.3493 52.7685 34.2177 66.7635C28.2129 70.9379 22.3626 75.1779 17.2496 80.1343C14.4627 82.8358 11.7891 85.6331 9.07645 88.3864C8.83802 88.6284 5.72908 91.1656 7.83119 90.9728C10.1433 90.7607 12.3453 89.8187 14.5247 89.151" stroke="#A614FF" stroke-width="3" stroke-linecap="round"/>
<path d="M6.94141 84.582L7.93844 90.3" stroke="#A614FF" stroke-width="3" stroke-linecap="round"/>
<path d="M13.783 88.299C13.6818 87.7187 12.2348 87.4302 11.5709 87.3131C10.9866 87.2101 10.4257 87.0161 9.86668 86.8621C9.1434 86.6628 8.34201 86.57 7.8933 86.0294C7.73727 85.8414 7.8417 85.5954 7.63355 85.4044C7.42228 85.2106 7.45574 85.2358 7.72616 85.287C8.17937 85.3727 8.64257 85.6247 8.97124 85.8882C9.29296 86.1461 9.69121 86.4555 10.0637 86.668C10.2178 86.7559 10.2278 86.8837 10.3348 87.0065C10.5005 87.1968 10.7431 87.3287 10.8531 87.5473" stroke="#A614FF" stroke-width="3" stroke-linecap="round"/>
<path d="M6.87491 85.1541C6.97943 85.0467 7.07564 85.9064 7.06905 86.0243C7.05224 86.3249 7.05517 86.6125 7.09593 86.908C7.15546 87.3395 6.8232 87.7759 6.89672 88.1975C6.94134 88.4534 6.91875 89.2229 7.21211 89.3037C7.47091 89.375 7.64795 90.0738 7.68281 90.2738" stroke="#A614FF" stroke-width="3" stroke-linecap="round"/>
</svg>
