<svg width="189" height="94" viewBox="0 0 189 94" fill="none" xmlns="http://www.w3.org/2000/svg">
<path d="M184.286 2.62526C146.865 1.67085 117.223 16.4711 95.9634 27.5481C73.7681 39.1124 53.3493 52.7685 33.2177 66.7635C27.2129 70.9379 21.3626 75.1779 16.2496 80.1343C13.4627 82.8358 10.7891 85.6331 8.07645 88.3864C7.83802 88.6284 4.72908 91.1656 6.8312 90.9728C9.14327 90.7607 11.3453 89.8187 13.5247 89.151" stroke="#A614FF" stroke-width="3" stroke-linecap="round"/>
<path d="M5.94141 84.582L6.93844 90.3" stroke="#A614FF" stroke-width="3" stroke-linecap="round"/>
<path d="M12.783 88.299C12.6818 87.7187 11.2348 87.4302 10.5709 87.3131C9.98661 87.2101 9.42572 87.0161 8.86668 86.8621C8.1434 86.6628 7.34201 86.57 6.8933 86.0294C6.73727 85.8414 6.8417 85.5954 6.63355 85.4044C6.42228 85.2106 6.45574 85.2358 6.72616 85.287C7.17937 85.3727 7.64257 85.6247 7.97124 85.8882C8.29296 86.1461 8.69121 86.4555 9.06371 86.668C9.21784 86.7559 9.22784 86.8837 9.33476 87.0065C9.50052 87.1968 9.74313 87.3287 9.85314 87.5473" stroke="#A614FF" stroke-width="3" stroke-linecap="round"/>
<path d="M5.87491 85.1541C5.97943 85.0467 6.07564 85.9064 6.06905 86.0243C6.05224 86.3249 6.05517 86.6125 6.09593 86.908C6.15546 87.3395 5.8232 87.7759 5.89672 88.1975C5.94134 88.4534 5.91875 89.2229 6.21211 89.3037C6.47091 89.375 6.64795 90.0738 6.68281 90.2738" stroke="#A614FF" stroke-width="3" stroke-linecap="round"/>
</svg>
