<svg width="190" height="94" viewBox="0 0 190 94" fill="none" xmlns="http://www.w3.org/2000/svg">
<path d="M4.72192 2.62526C42.1429 1.67085 71.7844 16.4711 93.0444 27.5481C115.24 39.1124 135.659 52.7685 155.79 66.7635C161.795 70.9379 167.645 75.1779 172.758 80.1343C175.545 82.8358 178.219 85.6331 180.931 88.3864C181.17 88.6284 184.279 91.1656 182.177 90.9728C179.865 90.7607 177.662 89.8187 175.483 89.151" stroke="#A614FF" stroke-width="3" stroke-linecap="round"/>
<path d="M183.066 84.582L182.069 90.3" stroke="#A614FF" stroke-width="3" stroke-linecap="round"/>
<path d="M176.225 88.299C176.326 87.7187 177.773 87.4302 178.437 87.3131C179.021 87.2101 179.582 87.0161 180.141 86.8621C180.864 86.6628 181.666 86.57 182.115 86.0294C182.271 85.8414 182.166 85.5954 182.374 85.4044C182.586 85.2106 182.552 85.2358 182.282 85.287C181.828 85.3727 181.365 85.6247 181.037 85.8882C180.715 86.1461 180.317 86.4555 179.944 86.668C179.79 86.7559 179.78 86.8837 179.673 87.0065C179.507 87.1968 179.265 87.3287 179.155 87.5473" stroke="#A614FF" stroke-width="3" stroke-linecap="round"/>
<path d="M183.133 85.1541C183.028 85.0467 182.932 85.9064 182.939 86.0243C182.956 86.3249 182.953 86.6125 182.912 86.908C182.852 87.3395 183.185 87.7759 183.111 88.1975C183.066 88.4534 183.089 89.2229 182.796 89.3037C182.537 89.375 182.36 90.0738 182.325 90.2738" stroke="#A614FF" stroke-width="3" stroke-linecap="round"/>
</svg>
