<svg width="69" height="71" viewBox="0 0 69 71" fill="none" xmlns="http://www.w3.org/2000/svg">
<path d="M2.16905 26.0346C1.4713 24.4128 3.74669 29.1981 4.66319 30.707C7.84319 35.9427 11.1489 41.0074 13.9499 46.458C17.5839 53.5297 20.9063 60.7288 24.0472 68.029C25.47 71.3359 32.1745 66.4676 34.5481 65.4464C39.8018 63.186 44.5413 60.1518 49.7178 57.8311C55.2328 55.3586 60.8276 53.0511 66.38 50.6622C68.0621 49.9385 57.3099 26.4184 55.8692 23.0699C53.082 16.5916 50.5418 10.6459 46.5354 4.88985C45.2224 3.0036 44.6714 1.58395 42.3889 2.77292C36.2912 5.94937 30.5645 10.0073 24.2353 12.7305" stroke="#A614FF" stroke-width="3" stroke-linecap="round"/>
<path d="M15.1743 29.6928C18.4153 27.0472 22.6028 28.1297 26.2288 26.5696C28.3687 25.6489 28.9836 22.9874 30.7811 21.6173C32.8629 20.0305 34.8811 18.2539 37.4904 17.6723C39.4509 17.2352 41.2169 16.8552 43.0577 16.0632" stroke="#A614FF" stroke-width="3" stroke-linecap="round"/>
<path d="M26.6129 41.1003C23.5941 39.6871 30.9399 38.3394 31.3287 38.2851C33.641 37.9624 36.5601 38.2757 38.1098 36.1236C40.8124 32.3703 45.6097 33.5598 47.014 29.0569" stroke="#A614FF" stroke-width="3" stroke-linecap="round"/>
<path d="M36.0819 51.7228C37.7262 47.8991 41.5761 48.6442 45.0017 47.8549C46.4391 47.5237 47.7409 45.5457 48.8086 44.6143C50.9309 42.763 53.8538 41.8993 56.419 40.7956" stroke="#A614FF" stroke-width="3" stroke-linecap="round"/>
</svg>
