<svg width="71" height="94" viewBox="0 0 71 94" fill="none" xmlns="http://www.w3.org/2000/svg">
<path d="M57.6352 10.1267C60.1427 9.32274 53.5284 13.4239 51.4651 15.06C49.7519 16.4186 47.9556 17.7503 46.3866 19.2836" stroke="#A614FF" stroke-width="3" stroke-linecap="round"/>
<path d="M40.0832 2.03194C40.2265 7.84735 38.0375 13.0866 37.1057 18.7128" stroke="#A614FF" stroke-width="3" stroke-linecap="round"/>
<path d="M68.125 26.4982C63.1387 26.5582 58.9854 27.2906 54.1763 28.1952" stroke="#A614FF" stroke-width="3" stroke-linecap="round"/>
<path d="M3 29.7261C3 41.5929 6.39841 53.3891 8.26611 65.04C9.24931 71.1733 10.1976 77.3412 10.2487 83.5644C10.27 86.1682 10.4781 88.2621 9.13347 90.5032" stroke="#A614FF" stroke-width="2.42147" stroke-linecap="round"/>
<path d="M3.53516 27.9999C7.40406 30.0361 12.2766 29.974 16.5394 30.3092C20.1909 30.5964 23.9624 30.8249 27.6266 30.8249C30.4159 30.8249 33.439 31.1447 36.1802 30.668C37.0852 30.5106 38.0285 30.4214 38.9492 30.4214C40.6274 30.4214 37.828 32.966 37.6264 33.1455C33.0497 37.2216 26.6354 39.1785 21.1357 41.6991C19.3587 42.5136 17.2419 42.7242 15.6313 43.8516C15.0549 44.2551 14.0447 44.5819 15.2614 44.7036C17.1549 44.8929 19.0311 44.9502 20.9339 44.9502C25.6042 44.9502 30.1867 45.6444 34.835 45.9143C36.6303 46.0186 38.4343 46.1082 40.216 46.3627C41.0506 46.482 42.065 46.4129 42.8729 46.6654C43.243 46.7811 43.6264 46.6757 43.9827 46.7775C44.2722 46.8602 40.9946 48.0844 40.6756 48.1676C38.526 48.7284 36.3604 49.2533 34.2296 49.8828C31.7661 50.6107 29.2886 51.023 26.8082 51.6541C23.0657 52.6063 19.4186 54.091 15.6425 54.8379C11.8637 55.5854 8.01896 56.8558 4.14052 56.8558" stroke="#A614FF" stroke-width="2.42147" stroke-linecap="round"/>
</svg>
