<svg width="57" height="83" viewBox="0 0 57 83" fill="none" xmlns="http://www.w3.org/2000/svg">
<path d="M2.83789 5.63818C2.83789 20.3401 7.04824 34.9547 9.36216 49.3891C10.5802 56.9877 11.7552 64.6293 11.8184 72.3392C11.8448 75.5651 12.1027 78.1594 10.4367 80.9359" stroke="#A614FF" stroke-width="3" stroke-linecap="round"/>
<path d="M3.5 3.5C8.29324 6.02276 14.3299 5.94573 19.6111 6.36111C24.135 6.71692 28.8075 7 33.3472 7C36.8029 7 40.5483 7.39618 43.9444 6.80556C45.0657 6.61056 46.2343 6.5 47.375 6.5C49.4542 6.5 45.9859 9.65257 45.7361 9.875C40.066 14.9249 32.1192 17.3493 25.3056 20.4722C23.1041 21.4812 20.4815 21.7421 18.4861 23.1389C17.7719 23.6388 16.5204 24.0437 18.0278 24.1944C20.3737 24.429 22.6981 24.5 25.0556 24.5C30.8416 24.5 36.519 25.3601 42.2778 25.6944C44.5021 25.8236 46.7371 25.9347 48.9444 26.25C49.9784 26.3977 51.2352 26.3122 52.2361 26.625C52.6947 26.7683 53.1696 26.6377 53.6111 26.7639C53.9697 26.8664 49.9091 28.383 49.5139 28.4861C46.8507 29.1809 44.1676 29.8311 41.5278 30.6111C38.4758 31.5128 35.4063 32.0237 32.3333 32.8056C27.6967 33.9853 23.1782 35.8246 18.5 36.75C13.8183 37.676 9.05505 39.25 4.25 39.25" stroke="#A614FF" stroke-width="3" stroke-linecap="round"/>
</svg>
