<svg width="45" height="45" viewBox="0 0 45 45" fill="none" xmlns="http://www.w3.org/2000/svg">
<path d="M5.81385 13.2056C6.22461 12.5554 6.80122 11.8518 7.48454 11.5182C8.38985 11.0762 9.61938 10.3452 10.6572 10.3835C11.9968 10.4844 12.8457 10.8118 13.6241 11.9806C13.8634 12.34 17.2373 17.6798 17.4083 18.0961C18.0404 18.9073 18.1593 19.6955 17.339 20.3986C16.5658 21.0612 15.4884 21.4632 14.5176 21.749C13.8935 21.9327 12.1903 22.2329 12.129 23.0465C12.0328 24.3244 14.1624 30.513 19.8031 33.8751C20.3365 34.193 20.7002 34.2174 21.3174 34.2639C22.2348 34.333 23.4212 33.5382 24.1409 33.048C24.7321 32.6453 25.3629 32.3301 25.9086 31.8624C26.3463 31.4873 26.6706 31.0229 27.1262 30.6598C27.6577 30.2363 29.0938 30.2077 29.5746 30.7649C30.0416 31.3062 30.7259 31.6171 31.1751 32.2042C31.4655 32.5837 31.8546 32.8863 32.2259 33.2174C32.7174 33.6557 33.2679 34.2985 33.796 34.6544C34.1947 34.923 34.9529 35.3689 35.0958 35.8573C35.2691 36.4495 35.2181 36.6881 35.0994 37.274C28.5606 47.8867 15.4481 38.7483 14.2485 37.3579C12.1874 34.9691 1.75113 23.2295 5.56166 13.6261" stroke="#A614FF" stroke-width="2.0021" stroke-linecap="round"/>
<path d="M15.1426 6.60456C15.1426 4.87879 15.9587 3.36442 16.9332 2" stroke="#A614FF" stroke-width="2.0021" stroke-linecap="round"/>
<path d="M17.5723 8.52293C19.8454 7.58626 22.1543 6.76192 24.4791 5.96484" stroke="#A614FF" stroke-width="2.0021" stroke-linecap="round"/>
<path d="M18.7246 12.4883C20.8304 12.5106 22.9145 12.5855 24.9919 12.872" stroke="#A614FF" stroke-width="2.0021" stroke-linecap="round"/>
<path d="M32.0254 27.9202C32.3879 26.676 32.7837 25.4456 33.1765 24.2109" stroke="#A614FF" stroke-width="2.0021" stroke-linecap="round"/>
<path d="M35.3496 30.2215C36.4967 29.8915 37.6445 29.608 38.803 29.3262" stroke="#A614FF" stroke-width="2.0021" stroke-linecap="round"/>
<path d="M36.8848 33.4199C38.3731 33.792 39.8706 34.1399 41.3472 34.5568C41.6228 34.6347 42.032 34.6641 42.1288 34.9548" stroke="#A614FF" stroke-width="2.0021" stroke-linecap="round"/>
</svg>
