<svg width="320" height="69" viewBox="0 0 320 69" fill="none" xmlns="http://www.w3.org/2000/svg" preserveAspectRatio="none">
<path fill-rule="evenodd" clip-rule="evenodd" d="M286.97 14.5646C277.679 12.1544 267.76 11.3162 258.87 10.5709C212.115 6.65154 137.898 9.34891 91.2441 15.0142C90.4217 15.114 89.6741 14.5283 89.5743 13.7059C89.4744 12.8836 90.0601 12.1359 90.8825 12.0361C137.693 6.35169 212.12 3.64146 259.12 7.58142L259.128 7.58207C267.975 8.32368 278.147 9.17641 287.723 11.6608C297.308 14.1476 306.446 18.3045 313.135 25.7616C315.087 27.9375 316.92 30.7174 317.891 33.7506C318.868 36.8018 318.99 40.1836 317.375 43.4038C315.843 46.4611 313.085 48.5804 310.213 50.1389C307.501 51.6101 304.524 52.6656 302.087 53.5298C301.939 53.5822 301.793 53.634 301.649 53.685C282.669 60.4294 261.457 62.1863 241.6 63.8311C239.772 63.9825 237.956 64.1329 236.154 64.2862C195.25 67.7658 154.134 67.0536 113.261 64.0801C93.2549 62.6246 73.0686 60.652 53.5122 55.358C38.9314 51.4109 24.3307 45.9744 10.7611 39.2826C5.84308 36.8573 0.739502 32.2476 1.5715 24.3673C2.11492 19.2203 5.06089 15.9562 8.60801 13.8569C12.0924 11.7947 16.2407 10.8001 19.4322 10.1181C42.5213 5.18346 66.4226 4.57238 89.7641 4.38618C90.5925 4.37957 91.2694 5.04576 91.276 5.87416C91.2826 6.70256 90.6164 7.37947 89.788 7.38608C66.4452 7.57229 42.8189 8.18761 20.0592 13.0518C16.8682 13.7338 13.1566 14.651 10.136 16.4387C7.17808 18.1892 4.97399 20.7131 4.55492 24.6823C3.91362 30.7563 7.69531 34.4258 12.0879 36.592C25.4751 43.1938 39.893 48.5632 54.2961 52.4622C73.555 57.6757 93.4954 59.6342 113.479 61.088C154.245 64.0537 195.196 64.7596 235.9 61.297C237.691 61.1447 239.491 60.9953 241.298 60.8454C261.231 59.1917 282.053 57.4644 300.645 50.8582C300.774 50.8123 300.904 50.7663 301.035 50.7199C303.512 49.8408 306.285 48.8571 308.782 47.5021C311.414 46.0736 313.557 44.3266 314.693 42.0594C315.871 39.7111 315.837 37.1736 315.034 34.6652C314.225 32.1388 312.654 29.7188 310.902 27.7648C304.758 20.9163 296.253 16.9732 286.97 14.5646Z" fill="#A614FF"/>
</svg>
