<svg width="135" height="133" viewBox="0 0 135 133" fill="none" xmlns="http://www.w3.org/2000/svg">
<rect width="134" height="133" fill="url(#paint0_linear_343_59)"/>
<rect width="134" height="133" fill="url(#paint1_linear_343_59)"/>
<path d="M53.6381 127.656C53.6904 127.278 53.5464 126.913 53.2061 126.563C52.8641 126.219 52.3173 125.947 51.5659 125.745C50.9714 125.586 50.4507 125.516 50.0041 125.537C49.5509 125.555 49.2867 125.705 49.2113 125.986C49.115 126.345 49.4305 126.71 50.1577 127.08L52.451 128.283C53.7343 128.956 54.2524 129.753 54.0055 130.674C53.8287 131.334 53.3861 131.745 52.6778 131.905C51.9678 132.072 51.1391 132.028 50.1917 131.774C49.1789 131.503 48.3966 131.09 47.8448 130.536C47.2912 129.988 47.0681 129.358 47.1753 128.644L48.6318 128.972C48.6017 129.293 48.7514 129.609 49.0809 129.922C49.4021 130.239 49.8926 130.486 50.5525 130.663C51.0491 130.796 51.4759 130.837 51.8328 130.785C52.1814 130.739 52.3882 130.595 52.453 130.353C52.5475 130 52.2467 129.646 51.5504 129.292L49.4007 128.18C48.6753 127.803 48.1681 127.422 47.8793 127.037C47.5887 126.658 47.5117 126.213 47.6483 125.704C47.8339 125.011 48.2998 124.579 49.046 124.408C49.7839 124.242 50.7246 124.312 51.868 124.618C54.3051 125.271 55.3789 126.399 55.0893 128.003L53.6381 127.656Z" fill="#0E0E0E"/>
<path d="M37.836 121.966L36.4907 121.229C36.9646 120.556 37.6092 120.168 38.4245 120.065C39.2338 119.959 40.1748 120.164 41.2475 120.68C42.5276 121.296 43.3788 122.07 43.8013 123.002C44.2148 123.936 44.1766 124.913 43.6867 125.93C43.1998 126.942 42.4682 127.581 41.4919 127.847C40.5157 128.113 39.4059 127.947 38.1624 127.348C37.1567 126.864 36.4292 126.27 35.9798 125.566C35.5215 124.865 35.3866 124.147 35.5751 123.412L36.9906 123.98C36.9268 124.363 37.0568 124.755 37.3805 125.159C37.6953 125.566 38.1422 125.908 38.7212 126.187C39.5197 126.571 40.2337 126.671 40.8633 126.486C41.4867 126.298 41.9524 125.884 42.2604 125.244C42.5684 124.604 42.5923 123.977 42.3319 123.364C42.0715 122.751 41.5238 122.243 40.6887 121.841C40.0609 121.539 39.4977 121.407 38.999 121.445C38.4914 121.486 38.1037 121.66 37.836 121.966Z" fill="#0E0E0E"/>
<path d="M29.7412 113.603L30.2177 117.318L31.6923 118.413L33.3012 116.246L34.5721 117.19L30.3379 122.893L26.4194 119.983C25.7623 119.495 25.345 118.945 25.1675 118.333C24.9805 117.723 25.1068 117.121 25.5464 116.529C25.9537 115.981 26.436 115.694 26.9932 115.67C27.5411 115.647 28.1278 115.838 28.7534 116.244L28.12 112.399L29.7412 113.603ZM29.8232 120.931L30.9785 119.375L28.396 117.457C28.0865 117.227 27.7937 117.111 27.5177 117.108C27.2322 117.107 26.9987 117.228 26.8173 117.473C26.6318 117.723 26.5809 117.984 26.6648 118.257C26.7446 118.535 26.9366 118.787 27.2407 119.013L29.8232 120.931Z" fill="#0E0E0E"/>
<path d="M24.6548 110.315C24.702 111.352 24.3104 112.248 23.48 113.004C22.6497 113.76 21.7207 114.066 20.6932 113.922C19.6656 113.778 18.6692 113.176 17.7038 112.115C16.7383 111.055 16.2321 110.006 16.1849 108.97C16.1332 107.928 16.5226 107.03 17.3529 106.274C18.1833 105.518 19.1145 105.214 20.1466 105.363C21.1741 105.507 22.1706 106.109 23.136 107.17C24.1014 108.23 24.6077 109.279 24.6548 110.315ZM20.6198 112.424C21.291 112.509 21.8892 112.312 22.4144 111.833C22.9397 111.355 23.1918 110.778 23.1708 110.102C23.1453 109.421 22.8161 108.733 22.1831 108.037C21.5501 107.342 20.8958 106.95 20.22 106.861C19.5442 106.771 18.9437 106.966 18.4185 107.444C17.8933 107.922 17.6434 108.502 17.6689 109.183C17.6944 109.864 18.0237 110.552 18.6566 111.248C19.2896 111.943 19.944 112.335 20.6198 112.424Z" fill="#0E0E0E"/>
<path d="M18.0624 101.13L12.0269 104.874L11.1924 103.529L16.1243 100.469L13.6155 96.4255L14.7191 95.7408L18.0624 101.13Z" fill="#0E0E0E"/>
<path d="M13.1017 92.5467L6.53068 95.2429L5.92983 93.7784L11.2993 91.5753L9.49292 87.1727L10.6945 86.6797L13.1017 92.5467Z" fill="#0E0E0E"/>
<path d="M0.748692 76.8398L0.535118 75.497L8.97608 77.2778L9.19125 78.6306L0.748692 76.8398Z" fill="#0E0E0E"/>
<path d="M0.0546345 68.9809L0 67.6223L8.17389 70.3807L8.22894 71.7494L0.0546345 68.9809Z" fill="#0E0E0E"/>
<path d="M5.80548 57.3406C6.18619 57.3688 6.54055 57.202 6.86857 56.8401C7.18996 56.4769 7.42729 55.914 7.58057 55.1514C7.70187 54.5479 7.73818 54.0239 7.68952 53.5794C7.64219 53.1283 7.47594 52.8741 7.19077 52.8168C6.82602 52.7435 6.48211 53.0815 6.15903 53.8307L5.10412 56.1957C4.51384 57.5191 3.75116 58.0868 2.81608 57.8989C2.14626 57.7643 1.70887 57.3486 1.50391 56.652C1.29231 55.954 1.28315 55.1242 1.47642 54.1625C1.68302 53.1346 2.04529 52.3277 2.56322 51.7418C3.07453 51.1546 3.68966 50.8919 4.40863 50.9536L4.17441 52.4279C3.85205 52.4183 3.54545 52.5878 3.25459 52.9364C2.95843 53.2771 2.74304 53.7823 2.60841 54.4522C2.50711 54.9562 2.49344 55.3847 2.5674 55.7376C2.63605 56.0826 2.79307 56.2797 3.03845 56.3291C3.39657 56.401 3.73052 56.0783 4.0403 55.3609L5.01348 53.1451C5.34319 52.3972 5.69127 51.8668 6.05771 51.5541C6.41752 51.24 6.85607 51.135 7.37335 51.239C8.07633 51.3803 8.53691 51.8178 8.75511 52.5516C8.968 53.2775 8.95782 54.2207 8.72456 55.3813C8.22739 57.8549 7.16966 58.9982 5.55136 58.8109L5.80548 57.3406Z" fill="#0E0E0E"/>
<path d="M10.4804 41.2093L11.1311 39.8198C11.8326 40.25 12.2607 40.8687 12.4153 41.6759C12.5725 42.4767 12.4275 43.4289 11.9803 44.5323C11.4468 45.8488 10.7286 46.7475 9.82579 47.2282C8.91924 47.7002 7.94248 47.7241 6.89553 47.2998C5.85484 46.8781 5.17084 46.1885 4.84355 45.2311C4.51626 44.2737 4.61175 43.1555 5.13003 41.8766C5.54923 40.8422 6.09596 40.0784 6.77023 39.5853C7.44076 39.0833 8.14878 38.9031 8.89429 39.0447L8.41669 40.4934C8.03123 40.4539 7.64741 40.6086 7.26523 40.9573C6.87931 41.2973 6.56568 41.765 6.32432 42.3606C5.9915 43.1819 5.93738 43.9007 6.16195 44.5173C6.38907 45.1275 6.83176 45.566 7.49003 45.8328C8.14829 46.0996 8.77518 46.0836 9.37068 45.7848C9.96619 45.486 10.438 44.9072 10.786 44.0483C11.0477 43.4025 11.1439 42.8321 11.0745 42.3368C11.0014 41.8328 10.8034 41.4569 10.4804 41.2093Z" fill="#0E0E0E"/>
<path d="M18.3129 32.5998L14.6352 33.3113L13.6361 34.8523L15.9009 36.3205L15.0399 37.6487L9.07998 33.7851L11.7349 29.6898C12.1801 29.003 12.7025 28.5516 13.302 28.3356C13.8995 28.1103 14.5076 28.1982 15.1263 28.5993C15.6996 28.9709 16.016 29.434 16.0757 29.9887C16.1334 30.5339 15.9797 31.1316 15.6146 31.7817L19.4113 30.9055L18.3129 32.5998ZM11.0053 33.1468L12.6315 34.201L14.3812 31.5021C14.5909 31.1785 14.6884 30.8789 14.6736 30.6033C14.6568 30.3183 14.5207 30.0931 14.2653 29.9275C14.0042 29.7582 13.7401 29.7241 13.4731 29.8251C13.2004 29.9224 12.961 30.13 12.755 30.4478L11.0053 33.1468Z" fill="#0E0E0E"/>
<path d="M21.2712 27.3151C20.2397 27.4279 19.3205 27.094 18.5133 26.3133C17.7062 25.5326 17.3419 24.625 17.4204 23.5903C17.4988 22.5557 18.0366 21.523 19.0336 20.4923C20.0306 19.4615 21.0448 18.8897 22.0763 18.7769C23.1124 18.6592 24.034 18.9906 24.8411 19.7713C25.6483 20.552 26.0102 21.4621 25.9271 22.5016C25.8486 23.5362 25.3109 24.5689 24.3138 25.5997C23.3168 26.6304 22.3026 27.2022 21.2712 27.3151ZM18.9101 23.422C18.8687 24.0973 19.1033 24.6818 19.6138 25.1756C20.1244 25.6694 20.7163 25.8844 21.3898 25.8205C22.068 25.7518 22.7339 25.3796 23.3876 24.7038C24.0413 24.0279 24.3912 23.35 24.4373 22.6699C24.4834 21.9898 24.2512 21.4029 23.7407 20.9091C23.2301 20.4153 22.6358 20.2027 21.9576 20.2714C21.2795 20.3401 20.6135 20.7124 19.9598 21.3882C19.3061 22.064 18.9562 22.742 18.9101 23.422Z" fill="#0E0E0E"/>
<path d="M30.0199 20.1529L25.8998 14.3673L27.1892 13.4491L30.5558 18.1767L34.4322 15.4163L35.1856 16.4743L30.0199 20.1529Z" fill="#0E0E0E"/>
<path d="M38.2705 14.6574L35.1627 8.27074L36.586 7.57815L39.1255 12.797L43.4046 10.7148L43.9729 11.8826L38.2705 14.6574Z" fill="#0E0E0E"/>
<path d="M53.1617 1.33226L54.4882 1.03388L53.2468 9.57086L51.9104 9.87146L53.1617 1.33226Z" fill="#0E0E0E"/>
<path d="M60.9607 0.140759L62.313 0L60.0791 8.3325L58.7166 8.47431L60.9607 0.140759Z" fill="#0E0E0E"/>
<path d="M72.9425 5.14108C72.9385 5.52282 73.1275 5.86588 73.5095 6.17026C73.8923 6.46795 74.4692 6.66907 75.24 6.77364C75.85 6.85638 76.3752 6.85936 76.8157 6.78258C77.2629 6.70672 77.506 6.52467 77.5451 6.23643C77.5951 5.86777 77.236 5.546 76.4678 5.27113L74.0406 4.36846C72.6824 3.86339 72.0674 3.13828 72.1956 2.19315C72.2874 1.51614 72.6745 1.05325 73.3567 0.804478C74.0399 0.549001 74.8674 0.487184 75.8394 0.619027C76.8783 0.759962 77.7066 1.07028 78.3242 1.54998C78.9427 2.02298 79.2439 2.6202 79.228 3.34164L77.7418 3.20147C77.7309 2.87915 77.5423 2.58392 77.1759 2.31578C76.8171 2.04184 76.2992 1.85896 75.6222 1.76712C75.1128 1.69802 74.6843 1.71157 74.3367 1.80778C73.9968 1.8982 73.81 2.06741 73.7764 2.31543C73.7273 2.67739 74.0705 2.99018 74.8062 3.2538L77.0793 4.08437C77.8466 4.36594 78.398 4.67966 78.7333 5.02551C79.0696 5.36466 79.2023 5.79565 79.1314 6.31849C79.035 7.02902 78.6275 7.51645 77.909 7.78078C77.1982 8.03932 76.2562 8.08904 75.0832 7.92992C72.5829 7.59076 71.3749 6.60773 71.4591 4.98081L72.9425 5.14108Z" fill="#0E0E0E"/>
<path d="M89.3382 8.78267L90.7662 9.34384C90.3813 10.0712 89.791 10.5377 88.9953 10.7432C88.206 10.9509 87.2466 10.8667 86.1171 10.4905C84.7693 10.0416 83.8269 9.3819 83.2898 8.51141C82.7612 7.63665 82.6754 6.66338 83.0324 5.5916C83.3872 4.52624 84.032 3.79985 84.9667 3.41245C85.9014 3.02504 87.0233 3.04937 88.3326 3.48543C89.3915 3.83812 90.1884 4.33527 90.7234 4.97687C91.2669 5.61419 91.4916 6.30934 91.3977 7.06233L89.9216 6.67765C89.9365 6.29047 89.7578 5.91724 89.3855 5.55796C89.0218 5.1944 88.5351 4.91109 87.9254 4.70802C87.0846 4.42801 86.3637 4.41963 85.7627 4.68288C85.1681 4.94828 84.7586 5.41791 84.5341 6.09178C84.3097 6.76566 84.3655 7.39026 84.7015 7.9656C85.0374 8.54094 85.6451 8.97503 86.5243 9.26787C87.1853 9.48804 87.7608 9.54779 88.2506 9.44713C88.749 9.34219 89.1115 9.12071 89.3382 8.78267Z" fill="#0E0E0E"/>
<path d="M98.4273 16.0529L97.4839 12.4278L95.8825 11.5286L94.561 13.8819L93.1808 13.1069L96.6584 6.91384L100.914 9.30341C101.628 9.70416 102.111 10.1968 102.365 10.7814C102.628 11.3634 102.579 11.9759 102.218 12.6188C101.883 13.2145 101.441 13.5597 100.891 13.6545C100.351 13.7466 99.7445 13.6312 99.0725 13.3082L100.188 17.0415L98.4273 16.0529ZM97.4176 8.79474L96.4687 10.4846L99.2733 12.0594C99.6095 12.2482 99.9147 12.3265 100.189 12.2942C100.472 12.2593 100.688 12.1092 100.837 11.8438C100.99 11.5725 101.007 11.3068 100.889 11.0467C100.775 10.7808 100.552 10.555 100.222 10.3696L97.4176 8.79474Z" fill="#0E0E0E"/>
<path d="M103.889 18.6698C103.711 17.6476 103.986 16.7089 104.714 15.8539C105.442 14.9989 106.324 14.5777 107.362 14.5903C108.399 14.6029 109.464 15.074 110.556 16.0036C111.648 16.9332 112.283 17.9091 112.461 18.9313C112.645 19.9578 112.372 20.8987 111.644 21.7537C110.916 22.6087 110.031 23.0277 108.989 23.0107C107.951 22.9981 106.886 22.527 105.794 21.5974C104.702 20.6678 104.067 19.6919 103.889 18.6698ZM107.625 16.0664C106.948 16.0679 106.38 16.3391 105.919 16.88C105.459 17.4208 105.282 18.0252 105.388 18.6933C105.5 19.3657 105.914 20.0067 106.63 20.6162C107.346 21.2257 108.044 21.5318 108.726 21.5347C109.408 21.5375 109.979 21.2685 110.439 20.7276C110.899 20.1868 111.074 19.5802 110.962 18.9077C110.851 18.2353 110.437 17.5943 109.721 16.9848C109.005 16.3754 108.306 16.0692 107.625 16.0664Z" fill="#0E0E0E"/>
<path d="M111.592 26.9462L117.105 22.4672L118.103 23.6957L113.598 27.3556L116.599 31.0489L115.591 31.8679L111.592 26.9462Z" fill="#0E0E0E"/>
<path d="M117.6 34.8314L123.777 31.3245L124.558 32.701L119.511 35.5666L121.861 39.7049L120.732 40.3461L117.6 34.8314Z" fill="#0E0E0E"/>
<path d="M131.844 48.8466L132.226 50.1515L123.627 49.4545L123.242 48.1399L131.844 48.8466Z" fill="#0E0E0E"/>
<path d="M133.528 56.5543L133.754 57.895L125.297 56.1945L125.069 54.8438L133.528 56.5543Z" fill="#0E0E0E"/>
<path d="M129.298 68.8294C128.917 68.8497 128.587 69.06 128.307 69.4605C128.034 69.8615 127.87 70.45 127.815 71.2259C127.771 71.8399 127.801 72.3643 127.906 72.799C128.01 73.2404 128.207 73.4715 128.497 73.4923C128.868 73.5188 129.167 73.14 129.392 72.3558L130.139 69.8762C130.557 68.4887 131.242 67.8289 132.193 67.8969C132.874 67.9455 133.361 68.3024 133.652 68.9675C133.951 69.6331 134.065 70.455 133.995 71.4334C133.92 72.4792 133.663 73.3255 133.224 73.9723C132.791 74.6195 132.214 74.9581 131.493 74.988L131.539 73.4959C131.86 73.4646 132.142 73.2576 132.387 72.8749C132.637 72.4995 132.787 71.971 132.836 71.2895C132.872 70.7767 132.831 70.35 132.713 70.0092C132.602 69.6757 132.421 69.5001 132.171 69.4822C131.807 69.4562 131.516 69.8186 131.3 70.5695L130.615 72.8908C130.383 73.6744 130.105 74.2446 129.781 74.6012C129.464 74.9584 129.042 75.1181 128.516 75.0805C127.801 75.0294 127.289 74.6538 126.979 73.9535C126.676 73.2605 126.567 72.3235 126.651 71.1428C126.831 68.6261 127.735 67.358 129.364 67.3388L129.298 68.8294Z" fill="#0E0E0E"/>
<path d="M126.705 85.423L126.235 86.8838C125.485 86.5458 124.982 85.9864 124.726 85.2053C124.469 84.4308 124.492 83.468 124.796 82.3168C125.158 80.9433 125.757 79.9609 126.592 79.3696C127.431 78.7866 128.397 78.6392 129.489 78.9274C130.575 79.2139 131.341 79.8112 131.787 80.7195C132.233 81.6277 132.28 82.7489 131.928 84.0832C131.643 85.1624 131.197 85.9893 130.591 86.5639C129.989 87.1467 129.31 87.4152 128.552 87.3692L128.843 85.8717C129.23 85.862 129.591 85.6599 129.926 85.2656C130.266 84.8795 130.518 84.3758 130.682 83.7544C130.908 82.8976 130.87 82.1777 130.569 81.5946C130.267 81.018 129.772 80.6391 129.085 80.4579C128.399 80.2767 127.779 80.372 127.226 80.7438C126.673 81.1156 126.278 81.7496 126.042 82.6456C125.864 83.3193 125.841 83.8974 125.973 84.3798C126.109 84.8705 126.353 85.2183 126.705 85.423Z" fill="#0E0E0E"/>
<path d="M120.026 94.9554L123.584 93.7838L124.38 92.1286L121.947 90.9591L122.633 89.5325L129.035 92.61L126.92 97.0086C126.565 97.7463 126.104 98.2602 125.537 98.5504C124.973 98.8496 124.358 98.8395 123.694 98.52C123.078 98.224 122.706 97.8047 122.576 97.2621C122.45 96.7286 122.527 96.1162 122.806 95.4251L119.151 96.7752L120.026 94.9554ZM127.206 93.487L125.459 92.6473L124.065 95.5462C123.898 95.8937 123.84 96.2032 123.889 96.4748C123.942 96.7553 124.105 96.9615 124.38 97.0934C124.66 97.2282 124.926 97.2287 125.179 97.0947C125.437 96.9636 125.648 96.7273 125.812 96.3859L127.206 93.487Z" fill="#0E0E0E"/>
<path d="M117.761 100.572C118.77 100.33 119.724 100.545 120.624 101.217C121.523 101.889 122 102.743 122.053 103.779C122.106 104.815 121.704 105.908 120.845 107.057C119.987 108.205 119.053 108.901 118.044 109.144C117.032 109.392 116.075 109.18 115.176 108.508C114.276 107.835 113.802 106.979 113.753 105.937C113.7 104.901 114.102 103.808 114.96 102.659C115.819 101.511 116.752 100.815 117.761 100.572ZM120.597 104.135C120.552 103.46 120.245 102.91 119.676 102.485C119.107 102.06 118.493 101.921 117.833 102.07C117.169 102.224 116.556 102.678 115.993 103.431C115.43 104.184 115.169 104.901 115.209 105.581C115.25 106.262 115.554 106.814 116.123 107.24C116.692 107.665 117.309 107.8 117.973 107.646C118.637 107.492 119.25 107.039 119.813 106.285C120.376 105.532 120.637 104.815 120.597 104.135Z" fill="#0E0E0E"/>
<path d="M109.991 108.785L114.81 114.002L113.648 115.076L109.709 110.813L106.214 114.043L105.333 113.089L109.991 108.785Z" fill="#0E0E0E"/>
<path d="M102.503 115.282L106.395 121.223L105.07 122.091L101.89 117.236L97.9094 119.843L97.1977 118.757L102.503 115.282Z" fill="#0E0E0E"/>
<path d="M89.4198 130.386L88.1417 130.85L88.2915 122.225L89.5791 121.757L89.4198 130.386Z" fill="#0E0E0E"/>
<path d="M81.8345 132.556L80.5109 132.867L81.6712 124.319L83.0046 124.005L81.8345 132.556Z" fill="#0E0E0E"/>
<path d="M37.5059 66.1396L41.7899 61.8556L67.1879 87.2536L92.5858 61.8556L96.8699 66.1396L67.1879 95.8216L37.5059 66.1396Z" fill="#0E0E0E"/>
<path d="M70.2479 39.5176L70.2479 91.5376H64.1279L64.1279 39.5176L70.2479 39.5176Z" fill="#0E0E0E"/>
<defs>
<linearGradient id="paint0_linear_343_59" x1="67" y1="0" x2="67" y2="133" gradientUnits="userSpaceOnUse">
<stop stop-color="#BFFB14"/>
<stop offset="0.440625" stop-color="#BFFB14"/>
<stop offset="0.440725" stop-color="#10110E"/>
<stop offset="1" stop-color="#10110E"/>
</linearGradient>
<linearGradient id="paint1_linear_343_59" x1="67" y1="0" x2="67" y2="133" gradientUnits="userSpaceOnUse">
<stop stop-color="#BFFB14"/>
<stop offset="0.440625" stop-color="#BFFB14"/>
<stop offset="0.440725" stop-color="#10110E"/>
<stop offset="1" stop-color="#10110E"/>
</linearGradient>
</defs>
</svg>
