<svg width="421" height="278" viewBox="0 0 421 278" fill="none" xmlns="http://www.w3.org/2000/svg">
<path fill-rule="evenodd" clip-rule="evenodd" d="M116.585 82.3962C112.495 84.1635 109.996 87.7102 108.235 91.8291L108.231 91.8377L94.1724 123.585L128.087 108.883L129.178 108.411C135.873 104.856 138.82 96.7881 135.811 89.8437C132.644 82.5317 124.046 79.1727 116.585 82.3962ZM105.552 90.6719C107.447 86.2429 110.352 81.9082 115.424 79.7167C124.331 75.8685 134.668 79.8593 138.492 88.6855C142.132 97.0882 138.531 106.788 130.492 111.02L130.443 111.046L129.248 111.562L88.4739 129.237L105.552 90.6719Z" fill="#02221F"/>
<path fill-rule="evenodd" clip-rule="evenodd" d="M56.2896 91.2946C60.7159 91.805 64.133 94.4786 67.0088 97.9131L67.0148 97.9203L89.645 124.253L52.9294 119.975L51.7486 119.839C44.3121 118.369 39.1602 111.496 40.0343 103.979C40.9546 96.0633 48.2158 90.3637 56.2896 91.2946ZM69.2428 96.0304C66.1491 92.3376 62.1158 89.027 56.6268 88.3941C46.9884 87.2828 38.2444 94.0897 37.1334 103.644C36.0758 112.74 42.3252 120.986 51.2438 122.715L51.2987 122.726L52.5921 122.875L96.7335 128.018L69.2428 96.0304Z" fill="#02221F"/>
<path d="M20.5094 139.065C20.0969 136.27 22.0215 133.671 24.8081 133.259L159.772 113.341C162.558 112.93 165.152 114.862 165.564 117.658L184.764 247.755C185.177 250.55 183.252 253.149 180.466 253.561L45.5021 273.479C42.7155 273.89 40.122 271.958 39.7095 269.162L20.5094 139.065Z" fill="#FCC155"/>
<path fill-rule="evenodd" clip-rule="evenodd" d="M18.7318 139.575C18.2009 135.978 20.6895 132.631 24.2903 132.099L159.932 112.081C163.533 111.55 166.882 114.035 167.413 117.632L186.63 247.847C187.161 251.444 184.673 254.791 181.072 255.323L45.4303 275.341C41.8295 275.872 38.4801 273.387 37.9492 269.79L18.7318 139.575ZM24.7176 134.994C22.7171 135.289 21.3345 137.149 21.6295 139.147L40.8469 269.362C41.1419 271.361 43.0026 272.741 45.0031 272.446L180.645 252.428C182.645 252.133 184.028 250.273 183.733 248.275L164.515 118.06C164.22 116.061 162.36 114.681 160.359 114.976L24.7176 134.994Z" fill="#02221F"/>
<path d="M85.5522 123.677L98.8489 121.714L119.454 261.33L106.157 263.292L85.5522 123.677Z" fill="white"/>
<path d="M172.211 179.436L174.174 192.732L32.6111 213.624L30.6487 200.328L172.211 179.436Z" fill="white"/>
<path d="M6.35905 135.242C6.12246 133.638 7.22403 132.148 8.81947 131.913L173.481 107.611C175.077 107.376 176.562 108.485 176.799 110.088L181.026 138.733C181.263 140.336 180.161 141.826 178.566 142.062L13.9038 166.363C12.3083 166.599 10.8232 165.49 10.5866 163.887L6.35905 135.242Z" fill="#FCC155"/>
<path fill-rule="evenodd" clip-rule="evenodd" d="M173.91 110.514L9.24785 134.815L13.4754 163.46L178.137 139.159L173.91 110.514ZM8.81947 131.913C7.22403 132.148 6.12246 133.638 6.35905 135.242L10.5866 163.887C10.8232 165.49 12.3083 166.599 13.9038 166.363L178.566 142.062C180.161 141.826 181.263 140.336 181.026 138.733L176.799 110.088C176.562 108.485 175.077 107.376 173.481 107.611L8.81947 131.913Z" fill="#02221F"/>
<path d="M85.5532 123.685L98.8499 121.722L103.041 150.122L89.7445 152.084L85.5532 123.685Z" fill="white"/>
<path fill-rule="evenodd" clip-rule="evenodd" d="M356.014 20.6602C350.993 21.5164 347.258 24.7767 344.189 28.871L344.183 28.8796L319.989 60.3067L361.636 53.1543L362.976 52.9259C371.373 50.7892 376.827 42.6334 375.361 34.116C373.817 25.1476 365.173 19.0986 356.014 20.6602ZM341.522 26.8627C344.823 22.4603 349.222 18.4355 355.448 17.3738C366.382 15.5095 376.788 22.7293 378.651 33.5549C380.425 43.861 373.805 53.6509 363.731 56.175L363.669 56.1905L362.202 56.4407L312.131 65.0397L341.522 26.8627Z" fill="#02221F"/>
<path fill-rule="evenodd" clip-rule="evenodd" d="M286.628 14.248C291.407 16.0097 294.481 19.899 296.748 24.4864L296.753 24.496L314.779 59.824L275.147 45.1618L273.872 44.6918C266.008 41.0526 262.141 32.0357 265.143 23.9311C268.304 15.3974 277.91 11.0346 286.628 14.248ZM299.738 23.0008C297.299 18.068 293.713 13.3054 287.786 11.1208C277.379 7.28472 265.826 12.4756 262.011 22.7765C258.379 32.5832 263.094 43.4204 272.534 47.7475L272.592 47.7742L273.989 48.2889L321.636 65.9166L299.738 23.0008Z" fill="#02221F"/>
<path d="M233.975 57.5862C234.272 54.3732 237.112 52.0087 240.319 52.305L395.631 66.6551C398.838 66.9514 401.197 69.7962 400.9 73.0092L387.084 222.54C386.787 225.753 383.947 228.118 380.74 227.821L225.428 213.471C222.221 213.175 219.862 210.33 220.159 207.117L233.975 57.5862Z" fill="#FC525A"/>
<path fill-rule="evenodd" clip-rule="evenodd" d="M231.862 57.675C232.245 53.5403 235.913 50.4988 240.057 50.8817L396.149 65.3039C400.293 65.6867 403.342 69.3489 402.96 73.4837L389.132 223.15C388.75 227.285 385.081 230.326 380.937 229.944L224.845 215.521C220.701 215.139 217.652 211.476 218.034 207.342L231.862 57.675ZM239.75 54.2091C237.448 53.9964 235.409 55.6861 235.197 57.9831L221.369 207.65C221.156 209.947 222.85 211.981 225.153 212.194L381.245 226.616C383.547 226.829 385.585 225.139 385.797 222.842L399.626 73.1756C399.838 70.8785 398.144 68.8439 395.842 68.6312L239.75 54.2091Z" fill="#02221F"/>
<path d="M310.389 58.0801L325.69 59.4939L310.863 219.966L295.562 218.552L310.389 58.0801Z" fill="white"/>
<path d="M392.884 143.468L391.472 158.751L227.178 143.571L228.59 128.288L392.884 143.468Z" fill="white"/>
<path d="M219.288 49.5238C219.458 47.6812 221.085 46.325 222.921 46.4947L412.408 64.0024C414.244 64.1721 415.595 65.8033 415.424 67.6458L412.382 100.57C412.212 102.413 410.586 103.769 408.75 103.599L219.262 86.0916C217.426 85.9219 216.076 84.2907 216.246 82.4481L219.288 49.5238Z" fill="#FC525A"/>
<path fill-rule="evenodd" clip-rule="evenodd" d="M412.1 67.3387L222.612 49.8309L219.57 82.7553L409.058 100.263L412.1 67.3387ZM222.921 46.4947C221.085 46.325 219.458 47.6812 219.288 49.5238L216.246 82.4481C216.076 84.2907 217.426 85.9219 219.262 86.0916L408.75 103.599C410.586 103.769 412.212 102.413 412.382 100.57L415.424 67.6458C415.595 65.8033 414.244 64.1721 412.408 64.0024L222.921 46.4947Z" fill="#02221F"/>
<path d="M310.324 58.7744L325.626 60.1882L322.673 92.1436L307.372 90.7298L310.324 58.7744Z" fill="white"/>
</svg>
