<svg width="498" height="442" viewBox="0 0 498 442" fill="none" xmlns="http://www.w3.org/2000/svg">
<path fill-rule="evenodd" clip-rule="evenodd" d="M138.216 210.253C133.367 212.348 130.404 216.553 128.316 221.436L128.312 221.446L111.645 259.083L151.851 241.654L153.145 241.095C161.082 236.88 164.576 227.315 161.009 219.082C157.254 210.414 147.06 206.431 138.216 210.253ZM125.136 220.064C127.382 214.813 130.826 209.674 136.839 207.076C147.398 202.514 159.654 207.245 164.187 217.709C168.503 227.671 164.234 239.17 154.703 244.187L154.644 244.218L153.228 244.83L104.889 265.785L125.136 220.064Z" fill="#02221F"/>
<path fill-rule="evenodd" clip-rule="evenodd" d="M66.7329 220.802C71.9805 221.407 76.0316 224.577 79.441 228.648L79.4481 228.657L106.277 259.875L62.7493 254.803L61.3494 254.642C52.5332 252.899 46.4255 244.751 47.4617 235.839C48.5528 226.455 57.1612 219.698 66.7329 220.802ZM82.0894 226.416C78.4218 222.038 73.6401 218.114 67.1327 217.363C55.7061 216.046 45.3397 224.116 44.0226 235.443C42.7688 246.226 50.1777 256.003 60.7509 258.052L60.8161 258.065L62.3495 258.242L114.681 264.339L82.0894 226.416Z" fill="#02221F"/>
<path d="M24.3145 277.435C23.8254 274.121 26.1071 271.039 29.4107 270.552L189.415 246.938C192.718 246.45 195.793 248.742 196.282 252.056L219.044 406.29C219.533 409.604 217.252 412.686 213.948 413.173L53.9442 436.787C50.6405 437.275 47.5659 434.983 47.0768 431.669L24.3145 277.435Z" fill="#FCC155"/>
<path fill-rule="evenodd" clip-rule="evenodd" d="M22.2074 278.04C21.578 273.776 24.5284 269.808 28.7972 269.178L189.605 245.445C193.874 244.815 197.845 247.762 198.474 252.026L221.257 406.4C221.886 410.665 218.936 414.633 214.667 415.263L53.8594 438.996C49.5905 439.626 45.6197 436.679 44.9903 432.414L22.2074 278.04ZM29.3037 272.61C26.9321 272.96 25.293 275.164 25.6427 277.533L48.4256 431.907C48.7753 434.277 50.9813 435.914 53.3529 435.564L214.161 411.831C216.532 411.481 218.171 409.277 217.822 406.907L195.039 252.533C194.689 250.164 192.483 248.527 190.111 248.877L29.3037 272.61Z" fill="#02221F"/>
<path d="M101.425 259.191L117.189 256.865L141.616 422.384L125.853 424.71L101.425 259.191Z" fill="white"/>
<path d="M204.162 325.296L206.489 341.06L38.6617 365.828L36.3352 350.064L204.162 325.296Z" fill="white"/>
<path d="M7.53862 272.902C7.25814 271.002 8.56409 269.235 10.4555 268.955L205.668 240.146C207.559 239.866 209.32 241.181 209.6 243.081L214.612 277.041C214.893 278.942 213.587 280.709 211.695 280.988L16.4832 309.798C14.5917 310.077 12.831 308.763 12.5505 306.862L7.53862 272.902Z" fill="#FCC155"/>
<path fill-rule="evenodd" clip-rule="evenodd" d="M206.176 243.587L10.9634 272.397L15.9753 306.357L211.188 277.547L206.176 243.587ZM10.4555 268.955C8.56409 269.235 7.25814 271.002 7.53862 272.902L12.5505 306.862C12.831 308.763 14.5917 310.077 16.4832 309.798L211.695 280.988C213.587 280.709 214.893 278.942 214.612 277.041L209.6 243.081C209.32 241.181 207.559 239.866 205.668 240.146L10.4555 268.955Z" fill="#02221F"/>
<path d="M101.426 259.2L117.19 256.874L122.159 290.542L106.395 292.869L101.426 259.2Z" fill="white"/>
<path fill-rule="evenodd" clip-rule="evenodd" d="M422.067 24.4922C416.114 25.5073 411.687 29.3724 408.048 34.2264L408.041 34.2366L379.358 71.4945L428.732 63.015L430.32 62.7442C440.276 60.2111 446.741 50.5422 445.003 40.4445C443.173 29.8122 432.925 22.6408 422.067 24.4922ZM404.886 31.8454C408.8 26.6263 414.014 21.8547 421.396 20.5961C434.359 18.3859 446.695 26.9452 448.904 39.7793C451.007 51.9975 443.158 63.6038 431.216 66.5962L431.142 66.6146L429.403 66.9112L370.042 77.1056L404.886 31.8454Z" fill="#02221F"/>
<path fill-rule="evenodd" clip-rule="evenodd" d="M339.807 16.8913C345.473 18.9799 349.117 23.5908 351.804 29.0293L351.81 29.0407L373.181 70.9233L326.196 53.5407L324.685 52.9836C315.361 48.6691 310.777 37.9793 314.336 28.371C318.083 18.254 329.472 13.0818 339.807 16.8913ZM355.35 27.2681C352.458 21.4201 348.206 15.7739 341.18 13.184C328.842 8.63616 315.146 14.7901 310.623 27.0022C306.317 38.6283 311.906 51.4763 323.098 56.6062L323.167 56.6378L324.823 57.2481L381.31 78.1463L355.35 27.2681Z" fill="#02221F"/>
<path d="M277.385 68.27C277.737 64.4609 281.105 61.6578 284.906 62.0091L469.034 79.0216C472.836 79.3728 475.632 82.7455 475.28 86.5546L458.901 263.829C458.549 267.638 455.182 270.441 451.38 270.09L267.253 253.077C263.451 252.726 260.654 249.353 261.006 245.544L277.385 68.27Z" fill="#FC525A"/>
<path fill-rule="evenodd" clip-rule="evenodd" d="M274.881 68.3746C275.334 63.4728 279.683 59.867 284.596 60.3209L469.648 77.4188C474.561 77.8727 478.176 82.2144 477.723 87.1163L461.329 264.551C460.876 269.453 456.526 273.059 451.614 272.605L266.562 255.507C261.649 255.053 258.034 250.711 258.487 245.809L274.881 68.3746ZM284.231 64.2656C281.502 64.0134 279.086 66.0166 278.834 68.7399L262.44 246.175C262.188 248.898 264.197 251.31 266.926 251.562L451.978 268.66C454.708 268.912 457.124 266.909 457.376 264.186L473.77 86.751C474.021 84.0277 472.013 81.6157 469.284 81.3635L284.231 64.2656Z" fill="#02221F"/>
<path d="M367.976 68.8555L386.116 70.5316L368.538 260.776L350.398 259.1L367.976 68.8555Z" fill="white"/>
<path d="M465.777 170.086L464.103 188.204L269.328 170.208L271.002 152.09L465.777 170.086Z" fill="white"/>
<path d="M259.973 58.7111C260.175 56.5267 262.103 54.9189 264.28 55.12L488.924 75.8761C491.101 76.0772 492.702 78.011 492.5 80.1955L488.893 119.228C488.691 121.413 486.763 123.021 484.587 122.82L259.943 102.063C257.766 101.862 256.165 99.9285 256.367 97.7441L259.973 58.7111Z" fill="#FC525A"/>
<path fill-rule="evenodd" clip-rule="evenodd" d="M488.559 79.8313L263.915 59.0753L260.308 98.1082L484.952 118.864L488.559 79.8313ZM264.28 55.12C262.103 54.9189 260.175 56.5267 259.973 58.7111L256.367 97.7441C256.165 99.9285 257.766 101.862 259.943 102.063L484.587 122.82C486.763 123.021 488.691 121.413 488.893 119.228L492.5 80.1955C492.702 78.011 491.101 76.0772 488.924 75.8761L264.28 55.12Z" fill="#02221F"/>
<path d="M367.9 69.6787L386.04 71.3548L382.54 109.239L364.399 107.563L367.9 69.6787Z" fill="white"/>
</svg>
