<svg width="195" height="27" viewBox="0 0 195 27" fill="none" xmlns="http://www.w3.org/2000/svg">
<path fill-rule="evenodd" clip-rule="evenodd" d="M0.835245 2.49269C0.933742 1.57192 1.76715 0.904581 2.69672 1.00215C7.26538 1.48166 11.741 1.52989 16.4472 1.53851C21.3676 1.54753 26.3013 1.53987 31.2384 1.53221C37.6249 1.52229 44.017 1.51237 50.3932 1.53852C54.4779 1.55528 58.6143 1.92334 62.6644 2.28371C64.7491 2.46921 66.8109 2.65267 68.831 2.78515C73.4772 3.08982 78.1608 3.2895 82.8629 3.48996C92.1296 3.88502 101.468 4.28314 110.733 5.49405C116.706 6.27474 122.702 6.57691 128.764 6.83054C129.467 6.85993 130.171 6.88868 130.875 6.91746C136.23 7.1362 141.642 7.35725 147.052 7.88264C150.804 8.24695 154.647 8.52323 158.516 8.8014C164.169 9.20781 169.878 9.61825 175.44 10.3131C176.911 10.497 178.428 10.7128 179.927 10.926C181.062 11.0875 182.186 11.2475 183.272 11.3909C183.43 11.4118 183.793 11.4692 184.149 11.7011C184.35 11.8316 184.604 12.0535 184.777 12.4039C184.958 12.7716 184.985 13.1513 184.927 13.4746C184.829 14.0203 184.5 14.3566 184.407 14.4505C184.268 14.5907 184.126 14.6937 184.033 14.7571C183.689 14.9916 183.263 15.1749 183.267 15.1734C182.379 15.5683 181.478 15.8754 180.627 16.1492C180.379 16.2293 180.137 16.3056 179.901 16.3803C179.305 16.5688 178.741 16.7469 178.173 16.9494C177.093 17.3347 176.049 17.7775 174.953 18.2428C174.523 18.4249 174.086 18.6104 173.635 18.7973C172.075 19.4443 170.41 20.0807 168.639 20.4782C168.17 20.5837 167.698 20.6765 167.228 20.7602C169.035 20.8384 170.85 20.8746 172.685 20.9112C174.392 20.9453 176.116 20.9796 177.866 21.0485C183.373 21.2649 188.379 22.3547 193.56 23.6935C194.464 23.9272 195.006 24.843 194.77 25.7389C194.535 26.6349 193.61 27.1717 192.705 26.938C187.594 25.6173 182.869 24.6008 177.732 24.3989C176.124 24.3357 174.472 24.3023 172.799 24.2686C169.34 24.1987 165.79 24.127 162.343 23.7856C162.077 23.7592 161.795 23.7332 161.501 23.706C159.435 23.5153 156.757 23.268 154.631 22.453C154.548 22.421 154.386 22.3536 154.212 22.2309C154.078 22.1364 153.654 21.8146 153.52 21.195C153.356 20.4435 153.732 19.8891 153.979 19.6417C154.2 19.4205 154.429 19.3123 154.518 19.2726C154.827 19.1344 155.174 19.0893 155.288 19.0745L155.3 19.0729C155.652 19.0266 156.084 19.0038 156.324 19.0009C157.425 18.9878 158.315 18.8132 159.47 18.5868C159.735 18.5348 160.015 18.48 160.314 18.4238C161.453 18.2098 162.609 18.0511 163.716 17.8991C163.886 17.8757 164.055 17.8526 164.222 17.8294C165.5 17.6522 166.716 17.4719 167.891 17.2081C169.366 16.8769 170.812 16.3331 172.328 15.7042C172.721 15.5414 173.124 15.3707 173.533 15.1969C174.591 14.7478 175.698 14.2785 176.806 13.8743C176.214 13.7937 175.619 13.7152 175.016 13.6399C169.485 12.9488 163.994 12.5561 158.454 12.1599C154.577 11.8827 150.677 11.6038 146.722 11.2197C141.414 10.7042 136.103 10.4871 130.738 10.2678C130.033 10.239 129.328 10.2102 128.622 10.1806C122.556 9.92687 116.427 9.62039 110.29 8.81831C101.164 7.62559 92.0972 7.24027 82.9283 6.85062C78.1892 6.64923 73.423 6.44668 68.6074 6.13089C66.4139 5.98705 64.2698 5.79553 62.1494 5.60613C58.1991 5.25328 54.3311 4.90778 50.3792 4.89157C43.9996 4.8654 37.6356 4.87532 31.2659 4.88526C26.3309 4.89295 21.3926 4.90065 16.441 4.89158C11.7338 4.88295 7.10121 4.83627 2.34003 4.33655C1.41046 4.23899 0.736748 3.41346 0.835245 2.49269Z" fill="#FCC155"/>
</svg>
