<svg width="22" height="22" viewBox="0 0 22 22" fill="none" xmlns="http://www.w3.org/2000/svg">
<path fill-rule="evenodd" clip-rule="evenodd" d="M10.2765 1.05279C10.4173 0.982405 10.583 0.982405 10.7237 1.05279L20.7237 6.05279C20.8931 6.13748 21.0001 6.31061 21.0001 6.5C21.0001 6.68939 20.8931 6.86252 20.7237 6.94721L10.7237 11.9472C10.583 12.0176 10.4173 12.0176 10.2765 11.9472L0.276503 6.94721C0.107111 6.86252 0.000109524 6.68939 0.000109524 6.5C0.000109524 6.31061 0.107111 6.13748 0.276503 6.05279L10.2765 1.05279ZM1.61814 6.5L10.5001 10.941L19.3821 6.5L10.5001 2.05902L1.61814 6.5ZM0.0528959 11.2764C0.176391 11.0294 0.476727 10.9293 0.723716 11.0528L10.5001 15.941L20.2765 11.0528C20.5235 10.9293 20.8238 11.0294 20.9473 11.2764C21.0708 11.5234 20.9707 11.8237 20.7237 11.9472L10.7237 16.9472C10.583 17.0176 10.4173 17.0176 10.2765 16.9472L0.276503 11.9472C0.0295135 11.8237 -0.0705987 11.5234 0.0528959 11.2764ZM0.0528959 16.2764C0.176391 16.0294 0.476727 15.9293 0.723716 16.0528L10.5001 20.941L20.2765 16.0528C20.5235 15.9293 20.8238 16.0294 20.9473 16.2764C21.0708 16.5234 20.9707 16.8237 20.7237 16.9472L10.7237 21.9472C10.583 22.0176 10.4173 22.0176 10.2765 21.9472L0.276503 16.9472C0.0295135 16.8237 -0.0705987 16.5234 0.0528959 16.2764Z" fill="#343A40"/>
</svg>
