<svg width="22" height="22" viewBox="0 0 22 22" fill="none" xmlns="http://www.w3.org/2000/svg">
<path fill-rule="evenodd" clip-rule="evenodd" d="M7 0.5C7.27614 0.5 7.5 0.723858 7.5 1V2.5H14.5V1C14.5 0.723858 14.7239 0.5 15 0.5C15.2761 0.5 15.5 0.723858 15.5 1V2.5H18C19.3807 2.5 20.5 3.61929 20.5 5V19C20.5 20.3807 19.3807 21.5 18 21.5H4C2.61929 21.5 1.5 20.3807 1.5 19V5C1.5 3.61929 2.61929 2.5 4 2.5H6.5V1C6.5 0.723858 6.72386 0.5 7 0.5ZM6.5 3.5H4C3.17157 3.5 2.5 4.17157 2.5 5V8.5H19.5V5C19.5 4.17157 18.8284 3.5 18 3.5H15.5V5C15.5 5.27614 15.2761 5.5 15 5.5C14.7239 5.5 14.5 5.27614 14.5 5V3.5H7.5V5C7.5 5.27614 7.27614 5.5 7 5.5C6.72386 5.5 6.5 5.27614 6.5 5V3.5ZM19.5 9.5H2.5V19C2.5 19.8284 3.17157 20.5 4 20.5H18C18.8284 20.5 19.5 19.8284 19.5 19V9.5Z" fill="white"/>
</svg>
