<svg width="22" height="22" viewBox="0 0 22 22" fill="none" xmlns="http://www.w3.org/2000/svg">
<path fill-rule="evenodd" clip-rule="evenodd" d="M11 1.5C7.36424 1.5 4.5 4.16902 4.5 7.36364C4.5 10.5583 7.36424 13.2273 11 13.2273C12.2854 13.2273 13.4744 12.8937 14.4744 12.3212C14.5132 12.2896 14.557 12.2635 14.6048 12.2445C16.3597 11.1858 17.5 9.37933 17.5 7.36364C17.5 4.16902 14.6358 1.5 11 1.5ZM15.3328 12.966C17.2409 11.73 18.5 9.69574 18.5 7.36364C18.5 3.52918 15.0962 0.5 11 0.5C6.90378 0.5 3.5 3.52918 3.5 7.36364C3.5 9.69621 4.75957 11.7308 6.66838 12.9668L5.50525 20.9277C5.47786 21.1152 5.55879 21.3021 5.71428 21.4103C5.86976 21.5186 6.07309 21.5297 6.23943 21.4389L11 18.8423L15.7606 21.4389C15.9269 21.5297 16.1302 21.5186 16.2857 21.4103C16.4412 21.3021 16.5221 21.1153 16.4948 20.9278L15.3328 12.966ZM14.3976 13.4829C13.3737 13.9597 12.2174 14.2273 11 14.2273C9.78301 14.2273 8.62714 13.9599 7.6035 13.4835L6.63948 20.0816L10.7606 17.8338C10.9098 17.7524 11.0902 17.7524 11.2394 17.8338L15.3607 20.0817L14.3976 13.4829Z" fill="#343A40"/>
</svg>
