<svg width="120" height="120" viewBox="0 0 120 120" fill="none" xmlns="http://www.w3.org/2000/svg">
<path d="M5.22808 10.147C5.90932 7.72347 7.70485 5.86045 10.1198 5.1493C16.4871 3.27429 31.6629 0 60 0C89.1683 0 104.392 3.46918 110.418 5.31056C112.503 5.94769 114.103 7.48162 114.77 9.5573C116.63 15.346 120 29.9758 120 60C120 89.8033 116.68 104.438 114.812 110.314C114.127 112.467 112.448 114.049 110.281 114.689C104.048 116.531 88.5207 120 60 120C32.276 120 16.8293 116.722 10.2629 114.847C7.76547 114.134 5.88801 112.22 5.19023 109.718C3.32237 103.021 0 87.2758 0 60C0 32.539 3.36765 16.7657 5.22808 10.147Z" fill="#FEAD12"/>
</svg>
