<svg xmlns="http://www.w3.org/2000/svg">
    <symbol id="logo" viewBox="0 0 95 45">
        <path d="M10.9208 24.2537C10.7952 24.0442 10.8789 23.9621 10.5879 24.2537C10.2967 24.5451 10.4205 24.5032 10.3786 24.7964C10.3368 25.0879 10.6697 25.0879 10.6279 25.3812C10.586 25.6727 10.4605 25.7565 10.0439 25.8402C9.62722 25.924 9.75275 26.0078 9.41803 25.8402C9.08504 25.6727 9.08504 25.3812 9.08504 25.3812C9.08504 25.3812 8.75207 25.5487 8.62655 25.5487C8.50102 25.5487 8.37724 25.5068 8.37724 25.924C8.37724 26.3412 8.5446 26.2993 8.58644 26.5088C8.62829 26.7182 9.04495 26.6763 9.08679 27.0097C9.12863 27.3431 8.87759 27.7603 9.17047 27.9697C9.46161 28.1792 9.83817 27.7201 9.92011 27.9697C10.0038 28.2193 10.3368 27.7603 10.3368 27.7603L10.6279 27.1755L11.0864 26.9259C11.0864 26.9259 10.2531 27.0097 10.0857 26.884C9.91836 26.7583 9.91836 26.5088 9.91836 26.5088C9.91836 26.5088 10.8354 25.8821 10.919 26.0497C11.0027 26.2173 11.5031 26.0497 11.5031 26.0497V24.7982C11.5031 24.7982 11.0446 24.4631 10.9208 24.2537Z" />
        <path d="M20.7992 18.0067C20.7727 17.9979 20.7585 17.9926 20.7585 17.9926C20.7585 17.9926 20.7585 18.0492 20.7992 18.0067Z" />
        <path d="M17.547 24.9638C17.3378 25.0476 17.3378 24.8381 16.8374 24.7962C16.3372 24.7543 16.6282 25.0057 16.4627 25.0458C16.297 25.086 16.3372 25.2553 16.3372 25.2553L16.046 25.4647L15.7967 26.1752L15.3382 26.5085C15.3382 26.5085 15.0471 26.5504 14.8413 26.409C14.6357 26.2677 14.8379 26.2171 14.8413 26.1716C14.8449 26.1263 15.0053 26.0093 14.8379 25.5921C14.6705 25.175 15.3382 25.2587 15.3382 25.2587V24.9673L15.129 24.7998H14.8379C14.8379 24.7998 14.5467 24.9254 14.5049 24.9673C14.463 25.0092 13.9208 25.3006 13.797 25.5101C13.6715 25.7195 13.506 25.8435 13.3386 26.0111C13.1712 26.1786 13.3386 26.4282 13.3386 26.4282V26.6779L13.0056 26.9693H12.5889L12.3396 27.2608C12.3396 27.2608 12.0485 27.5104 12.0904 27.6361C12.1322 27.7618 12.0903 27.9276 12.4233 28.1371C12.4338 28.1441 12.4425 28.1492 12.4512 28.1545C12.554 28.069 12.9063 27.7775 13.0474 27.6361C13.2148 27.4685 13.2968 28.0952 13.3386 28.1371C13.3804 28.179 14.0481 27.8037 14.0481 27.8037C14.0481 27.8037 14.3392 27.8456 14.4892 27.6553C14.6391 27.4668 14.674 27.5942 14.8396 27.3848C15.007 27.1753 15.2145 27.3848 15.2145 27.3848L15.5892 27.2591L15.9222 27.6344L16.4784 28.0096C16.4784 28.0096 16.7991 28.2173 16.841 28.1352C16.8828 28.0515 17.2995 27.8438 17.2158 27.8019C17.1321 27.76 17.5487 27.8019 17.2158 27.3848C16.8828 26.9676 17.174 27.3429 17.1252 26.7651C17.1216 26.7162 17.2995 26.5923 17.2158 26.4247C17.1321 26.2571 17.5487 26.1752 17.5487 26.1752C17.5487 26.1752 18.1328 25.8837 18.2566 25.5276C18.3821 25.1732 18.2566 24.9638 18.2566 24.9638C18.2566 24.9638 17.7562 24.88 17.547 24.9638Z" />
        <path d="M23.2166 6.8915C23.2166 7.14109 23.7588 7.10095 23.7588 7.10095L24.0917 6.8915L23.6333 6.14095L23.4241 5.6819L23.6333 5.22284L23.8825 5.01339L24.0917 4.63812L24.3829 4.51245C24.3829 4.51245 24.7577 4.63812 24.674 4.26284C24.5903 3.88757 24.09 3.67812 24.09 3.67812C23.9645 3.72001 23.8407 3.88757 23.5059 4.09528C23.173 4.30473 23.0893 4.30474 22.922 4.59623C22.7546 4.88771 23.1312 4.92961 22.922 5.18095C22.7128 5.43055 22.9638 5.51434 22.8801 5.80758C22.7965 6.09906 22.7546 6.22473 22.8383 6.43419C22.9254 6.64015 23.2166 6.64015 23.2166 6.8915Z" />
        <path d="M20.258 20.3489C20.1325 20.2896 20.2546 20.1639 19.8815 20.1639C19.5085 20.1639 19.2452 20.122 19.1894 20.1639C19.1336 20.2058 19.3952 20.1168 18.9941 20.3489C18.5914 20.5811 18.8006 20.2477 18.5914 20.623C18.3822 20.9982 18.7588 20.8725 18.424 20.9563C18.0911 21.0401 17.9656 20.5811 17.6744 20.9563C17.3833 21.3316 17.2159 20.8306 17.0486 20.9563C16.8812 21.082 16.7713 20.8725 16.597 21.1658C16.4227 21.4573 16.6075 21.4678 16.2449 21.672C15.8823 21.8762 15.8823 21.761 15.6312 21.9652C15.3802 22.1694 14.756 21.7924 14.6723 21.96C14.5887 22.1275 13.4608 22.4121 13.337 22.5202C13.2132 22.6285 12.8383 22.9619 12.8383 22.9619C12.8383 22.9619 12.7635 23.4349 13.072 23.4907C13.3805 23.5466 13.7554 23.4209 13.9228 23.5885C14.0901 23.756 14.5085 23.4367 14.6532 23.6583C14.7979 23.88 15.1797 24.0545 15.2809 23.8416C15.3819 23.6286 15.4656 22.9619 15.4656 22.9619C15.4656 22.9619 15.9869 22.6495 15.9869 22.5238C15.9869 22.3981 15.9729 22.3911 16.2292 22.5202C16.4854 22.6495 16.9038 22.8572 16.9038 22.8572L16.9213 22.042L17.2387 21.9809L17.4268 21.672L17.657 22.5238C17.657 22.5238 17.6988 22.6076 17.8662 22.5238C18.0335 22.44 18.1992 21.7732 18.1992 21.7732C18.1992 21.7732 18.5322 21.2723 18.574 21.3142C18.6159 21.3561 18.9907 21.1885 19.0953 21.3351C19.1999 21.4818 19.3603 21.1047 19.552 21.3351C19.7438 21.5656 20.0332 21.6074 20.1587 21.6912C20.2842 21.775 20.3714 21.4538 20.5353 21.4469C20.7009 21.4399 20.8299 20.9616 20.8299 20.9616L20.5353 20.6858C20.53 20.684 20.3836 20.4083 20.258 20.3489Z" />
        <path d="M12.4496 28.153C12.4323 28.1686 12.4218 28.1773 12.4218 28.1773C12.4218 28.1773 12.7338 28.3345 12.4496 28.153Z" />
        <path d="M15.6714 18.9945C15.755 19.286 16.0043 19.0783 16.0043 19.3279C16.0043 19.5774 15.7951 19.6612 15.755 19.745C15.7132 19.8288 15.5458 20.1203 15.7132 20.1622C15.8806 20.2041 16.4227 19.8288 16.4227 19.8288C16.4227 19.8288 17.0486 19.6612 16.8394 19.5374C16.6302 19.4117 16.59 19.1621 16.59 18.9945C16.59 18.827 16.7992 18.1182 16.8394 18.3679C16.8812 18.6175 17.1724 18.4098 17.3816 18.3679C17.5908 18.326 17.8401 17.9926 17.8401 17.9926C17.8401 17.9926 17.8401 17.7012 17.5489 17.7012C17.2578 17.7012 16.8394 17.9926 16.8394 17.9926C16.8394 17.9926 16.672 17.8669 16.339 17.9507C16.0061 18.0345 16.0061 17.7012 15.7132 17.9926C15.4203 18.2841 15.422 18.4517 15.422 18.3679C15.422 18.2841 15.089 18.7851 15.2128 18.8688C15.3384 18.9526 15.5894 18.703 15.6714 18.9945Z" />
        <path d="M24.1752 9.14479C24.1752 9.14479 24.3425 9.27046 24.1752 9.43627C24.0078 9.60384 23.9259 9.39439 24.1752 9.72777C24.4245 10.0611 24.8429 10.1868 24.9249 10.3544C25.0086 10.5219 25.134 10.604 25.2996 10.6878C25.467 10.7715 25.8 10.4783 25.8 10.4783V10.2287C25.8 10.2287 25.6326 9.93722 25.8 9.72777C25.9673 9.51832 25.8 9.14304 25.8 9.14304C25.8 9.14304 26.0092 8.68399 25.8 8.68399C25.5908 8.68399 25.2578 8.6002 25.2996 8.68399C25.3415 8.76777 25.467 8.76777 25.2996 9.10116C25.1323 9.43453 25.2996 9.68588 25.2996 9.68588L25.1323 9.43627C25.1323 9.43627 24.883 9.1029 24.6738 9.14479C24.4646 9.18668 24.1752 9.14479 24.1752 9.14479Z" />
        <path d="M17.5474 4.26111C17.6729 4.42867 18.0059 4.05166 18.0059 4.26111C18.0059 4.47057 18.3388 3.92772 18.297 4.5526C18.2552 5.17922 18.7974 4.38503 18.1296 5.26125C17.462 6.13747 17.8386 5.80408 17.5457 6.17936C17.2545 6.55463 17.523 6.19682 17.1586 6.68904C16.7943 7.18125 16.9198 7.09747 16.545 7.30693C16.1701 7.51638 16.6705 7.13936 16.1701 7.51638C15.6698 7.8934 15.7535 7.68395 15.4205 7.89165C15.0875 8.10111 15.0962 7.34882 14.9045 7.89165C14.7127 8.43449 14.7127 7.89165 14.5453 8.18315C14.3779 8.47463 14.6291 7.93354 14.378 8.43274C14.1287 8.93369 14.6726 8.23028 14.3588 8.79057C14.045 9.35085 13.8777 8.8918 13.6284 9.30896C13.379 9.72613 13.2954 9.05937 13.0443 9.30896C12.795 9.55857 12.795 8.97558 12.5439 9.30896C12.2947 9.64235 12.7113 9.64234 12.2947 9.64234C11.878 9.64234 12.1274 9.89194 12.2947 10.1014C12.4621 10.3108 12.8787 10.1014 13.0443 10.4348C13.2117 10.7682 13.0443 10.3091 13.4192 10.6844C13.794 11.0596 13.5028 10.8101 13.794 10.9339C14.0851 11.0596 14.0032 10.3912 14.378 10.6844C14.7528 10.9758 14.3031 10.866 15.0911 10.7333C15.879 10.6006 15.7954 10.0159 15.6698 10.0159C15.5443 10.0159 14.7946 9.18155 15.2532 8.88831C15.7117 8.59682 16.0446 8.42925 16.0446 8.42925C16.0446 8.42925 16.3794 8.44322 16.4213 8.93719C16.4631 9.43114 16.6705 9.59871 16.7123 9.8902C16.7542 10.1817 16.6286 10.1817 16.9215 10.4331C17.2127 10.6826 17.4864 10.2986 17.8089 10.4907C18.1315 10.6826 18.548 10.4331 18.548 10.4331L18.7974 9.6406V8.72249C18.7974 8.72249 18.881 7.97194 19.0885 8.22155C19.2977 8.47114 19.3379 7.88816 19.5889 8.22155C19.8399 8.55492 20.0055 8.17966 20.0892 8.72249C20.1728 9.26533 20.2565 9.89194 20.2565 9.89194C20.2565 9.89194 20.2565 9.80816 20.4657 10.0176C20.6749 10.2271 20.6749 10.0176 20.8824 10.1014C21.0916 10.1852 21.2816 9.69296 21.6233 9.77151C21.789 9.80991 21.9511 9.78024 22.0749 9.7401C21.9041 9.34213 21.4647 8.55667 21.4647 8.55667L21.0498 8.21806L20.9225 7.88991C20.9225 7.88991 20.8389 7.51463 20.6732 7.55652C20.5059 7.59841 20.2565 7.18125 20.0473 7.34707C19.8381 7.51289 19.2977 7.05558 19.2559 7.34707C19.2141 7.63856 18.6718 7.17951 18.5463 7.59667C18.4208 8.01384 18.1296 7.76424 18.1296 8.13951C18.1296 8.51478 17.129 8.34897 17.1708 8.431C17.2127 8.51478 16.9215 8.22155 16.9215 8.22155C16.9215 8.22155 16.796 7.97194 16.9215 7.88816C17.047 7.80438 16.9215 7.471 17.1708 7.42911C17.4202 7.38722 17.5457 7.13762 17.5457 7.13762C17.5457 7.13762 17.835 6.89674 17.9693 6.7798C17.9065 6.85136 17.9867 6.85486 18.1279 6.67856C18.2953 6.46911 18.5446 6.42897 18.5446 6.21951C18.5446 6.01006 18.6074 5.58766 18.6074 5.58766C18.6074 5.58766 18.6091 5.551 18.6387 5.25951C18.6684 4.96802 19.045 5.12686 18.9822 5.02562C18.9195 4.92612 19.5435 4.21573 19.5854 4.04816C19.6272 3.8806 19.5854 3.17195 19.5854 3.33776C19.5854 3.50358 19.3239 3.19289 19.0589 3.2662C18.7939 3.33776 18.5446 2.87871 18.2517 3.25573C17.9606 3.631 18.1262 3.13005 17.835 3.5891C17.5439 4.04816 17.9187 3.5891 17.544 4.04816C17.4724 4.13718 17.4149 4.22096 17.3678 4.29776C17.4481 4.24016 17.5125 4.21398 17.5474 4.26111Z" />
        <path d="M14.0592 6.36629C14.0342 6.36095 14.0289 6.34492 14.0592 6.36629Z" />
        <path d="M17.3729 4.30114C17.2334 4.4146 17.0573 4.65197 16.9736 4.7724C17.1619 4.79859 17.1916 4.59961 17.3729 4.30114Z" />
        <path d="M22.3002 9.64576C22.3002 9.64576 22.2096 9.70162 22.0771 9.74525C22.1033 9.80635 22.1225 9.85871 22.1346 9.89711C22.2183 10.1886 22.3002 9.64576 22.3002 9.64576Z" />
        <path d="M12.0873 5.84758C12.0873 5.84758 12.0785 5.86341 12.0645 5.89155C12.068 5.96541 12.0873 5.84758 12.0873 5.84758Z" />
        <path d="M4.91699 17.2845C4.91904 17.2845 4.92108 17.2825 4.92313 17.2804C4.91494 17.2825 4.91084 17.2845 4.91699 17.2845Z" />
        <path d="M9.8785 16.5733C9.79481 16.24 9.50368 16.8649 9.33632 16.8649C9.28575 16.8649 9.21602 16.9103 9.14106 16.9748C8.96324 17.1215 8.74532 17.3658 8.62852 17.3658C8.46116 17.3658 8.29553 17.4496 8.12818 17.3658C7.96082 17.282 7.91897 17.1983 7.7952 16.8596C7.66967 16.521 7.75335 16.5716 7.7952 16.1702C7.83704 15.7687 7.83704 15.9869 7.7952 15.7373C7.75335 15.4877 8.0044 15.7373 8.12818 15.4039C8.25369 15.0705 8.54484 15.362 9.04518 15.1124C9.54552 14.8628 9.21253 14.8628 9.33632 14.4439C9.46009 14.025 9.41999 14.1944 9.42696 13.861C9.43394 13.5293 9.37816 13.6079 9.04518 13.0667C8.7122 12.5239 8.7122 13.0249 8.37747 12.7752C8.04449 12.5257 8.33563 12.9009 8.109 12.7892C7.88236 12.6793 7.66793 13.1505 7.29311 13.2762C6.91829 13.4019 7.04382 13.5677 7.04382 13.5677L7.1798 14.0704L7.66967 14.4457C7.66967 14.4457 7.54415 15.1141 7.29486 15.0304C7.04555 14.9466 7.08566 15.2398 6.93921 15.0479C6.79277 14.8576 6.4197 14.3619 6.4197 14.3619L6.75267 14.0704C6.75267 13.737 6.4197 14.3619 6.22793 14.0721C6.03616 13.7806 6.08672 14.5714 6.08672 14.5714V15.0722L6.21224 15.7408C6.21224 15.7408 6.21224 16.1161 6.07626 16.0114C5.94028 15.9066 5.79558 16.3657 5.67006 16.4006C5.54453 16.4355 5.29524 16.6571 5.16972 16.5733C5.04942 16.4931 4.96672 17.2263 4.92313 17.2804C4.98067 17.2629 5.37369 17.1808 5.67006 17.0324C6.00303 16.8649 5.9612 16.9067 6.21224 16.8649C6.46154 16.823 6.79626 16.7811 6.75442 16.8649C6.71258 16.9486 7.04555 17.1145 6.92178 17.282C6.79626 17.4496 6.87994 17.5736 6.75442 17.6992C6.6289 17.8249 6.42143 18.3677 6.42143 18.3677L6.43538 18.8564C6.43538 18.8564 6.96362 19.1602 7.38028 18.8686C7.79693 18.5771 7.67142 18.9524 7.79694 18.619C7.92246 18.2857 8.04624 18.3276 8.12992 18.16C8.2136 17.9925 8.71394 18.2438 9.04692 17.9925C9.3799 17.7428 9.50542 17.9925 9.88023 17.701C10.255 17.4094 10.0476 17.4915 9.88023 16.8666C9.71113 16.24 9.96218 16.9085 9.8785 16.5733Z" />
        <path d="M11.5448 12.4839C11.3775 12.5677 11.4193 12.1924 11.4193 12.1924C11.4193 12.1924 11.4193 11.9829 11.503 11.7752C11.5867 11.5658 11.6703 11.358 11.5448 11.358C11.4193 11.358 11.4193 11.3161 11.2118 11.358C11.0026 11.3999 11.0026 11.3161 10.8371 11.358C10.6697 11.3999 10.4622 11.5675 10.4622 11.5675C10.4622 11.5675 10.5877 11.7769 10.3367 12.0266C10.0874 12.2762 10.1693 11.9847 10.0874 12.2762C10.0054 12.5677 10.1711 12.5258 10.2129 12.6515L10.6714 12.8609C10.6714 12.8609 10.7551 12.9028 10.8388 13.0285C10.9225 13.1542 11.2555 13.2379 11.2555 13.2379L11.5047 13.0285L11.754 12.6951C11.754 12.6916 11.7122 12.4001 11.5448 12.4839Z" />
        <path d="M9.1066 10.2426C9.12591 10.262 9.14524 10.283 9.16455 10.3023C9.14524 10.2813 9.12767 10.262 9.1066 10.2426Z" />
        <path d="M43.3528 17.3679C43.3528 17.3679 43.3877 17.2753 43.5219 17.1112C43.4696 17.0903 43.4139 17.0658 43.3528 17.0344C42.7688 16.7412 43.3528 17.3679 43.3528 17.3679Z" />
        <path d="M33.8064 17.284C33.8064 17.284 34.3067 17.5755 34.5159 17.7012C34.7251 17.8268 34.6414 17.743 34.7653 17.4515C34.8908 17.16 35.0563 17.4096 35.0895 17.2997C35.1209 17.1897 35.391 17.1181 35.5166 16.8668C35.6421 16.6172 35.6839 16.9925 35.8217 17.0449C35.9594 17.0989 35.8094 17.4498 35.8094 17.4498C35.8094 17.4498 35.8094 17.4917 35.8931 17.6993C35.9768 17.9088 36.0186 17.949 36.4353 17.6993C36.852 17.4498 36.519 17.7831 36.7265 17.6993C36.9357 17.6156 36.8102 17.366 37.0595 17.2822C37.3087 17.1985 37.1432 17.0728 37.3506 16.8651C37.5598 16.6556 37.6836 17.0745 37.7254 17.0326C37.7673 16.9907 37.9346 17.4498 37.9346 17.4498L37.7254 18.1602V18.3697C37.7254 18.3697 38.0166 18.244 38.0584 18.1602C38.1003 18.0765 38.4751 17.284 38.5169 17.284C38.5588 17.284 38.4751 17.284 38.5169 16.8668C38.5588 16.4496 38.4333 16.1982 38.6006 16.1564C38.768 16.1145 37.6836 15.823 37.7254 15.823C37.7673 15.823 37.3506 15.7393 37.3506 15.7393C37.3506 15.7393 37.0177 16.0307 36.7248 16.1564C36.6027 16.2088 35.9751 16.406 35.9751 16.406C35.9751 16.406 35.6839 16.6154 35.5166 16.5735C35.3492 16.5317 35.1418 16.6573 34.9326 16.5735C34.7234 16.4898 34.5996 16.4479 34.5333 16.1477C34.4671 15.8457 34.0992 16.0744 33.8064 15.823C33.5152 15.5734 33.4734 15.8649 33.198 15.8422C32.9225 15.8195 32.9312 16.2001 32.8476 16.282C32.7639 16.3658 33.3897 16.5788 33.3897 16.5788L33.8064 16.5735V17.284Z" />
        <path d="M33.1402 14.362C32.931 14.2364 32.6818 13.9867 32.6818 13.9867C32.7237 13.9867 32.4116 13.8645 32.3174 13.8628C32.2233 13.8611 32.307 13.4858 32.0978 13.5695C31.8886 13.6533 31.4719 13.5259 31.4719 13.5259C31.4719 13.5259 31.1389 13.3601 30.8878 13.4858C30.6368 13.6114 30.5549 13.5695 30.5549 13.5695C30.5549 13.5695 30.4713 13.3199 30.3457 13.4439C30.2202 13.5678 30.0127 13.6533 29.929 13.8611C29.8454 14.0705 29.753 14.2782 29.6745 14.4668C29.596 14.6553 29.5629 14.7757 29.4758 14.924C29.3868 15.0723 29.4705 15.3639 29.4705 15.3639C29.4705 15.3639 29.6571 15.0759 30.0214 15.0532C30.3876 15.0305 30.5531 14.6953 30.5531 14.6953C30.5531 14.6953 30.928 14.4859 31.0953 14.5697C31.2627 14.6534 31.1232 14.6517 31.4841 14.6534C31.845 14.6553 32.1413 14.4318 32.3697 14.5836C32.5963 14.7372 32.9293 14.5697 32.9293 14.5697C32.9293 14.5697 33.3477 14.4877 33.1402 14.362Z" />
        <path d="M40.5595 26.0479C40.0174 26.0898 40.4759 26.0898 40.1011 26.4651C39.7263 26.8403 39.3915 27.2575 39.3915 27.2575H38.2235C38.2235 27.2575 37.9742 27.0899 37.6813 26.9659C37.3902 26.8403 36.4314 26.7565 36.4314 26.7565C36.4732 27.048 37.099 27.3412 37.3483 27.5909C37.5977 27.8405 37.6813 27.5071 37.9324 27.8003C38.1816 28.0918 38.2653 27.8003 38.6 28.0499C38.933 28.2995 39.1422 27.9243 39.4752 28.0499C39.8082 28.1756 40.1011 27.8003 40.1011 27.8003L40.5595 27.5909V26.3376C40.5595 26.3411 41.1018 26.006 40.5595 26.0479Z" />
        <path d="M36.4331 22.9602C36.3913 22.9602 36.4331 22.6268 36.4331 22.6268C36.4331 22.6268 36.0164 22.7944 36.1419 22.5011C36.2675 22.2096 36.3511 21.6667 36.4331 21.7907C36.5151 21.9146 36.7661 21.665 36.7661 21.665C36.7661 21.665 36.8498 21.5812 37.0573 21.665C37.2665 21.7488 37.8069 21.5393 37.7249 21.5393C37.643 21.5393 37.8086 21.4556 37.9341 21.665C38.0596 21.8745 38.3508 21.7907 38.3508 21.7907L38.5182 21.3316L38.0596 20.9563H37.3502C37.3502 20.9563 37.2298 20.9791 37.1444 20.8848C37.059 20.7906 36.9753 20.6649 36.7661 20.623C36.5569 20.5811 36.8498 20.4135 36.4331 20.7487C36.0164 21.0838 36.1838 20.8325 35.9746 21.1658C35.7654 21.4992 35.8839 21.4887 35.5335 21.4939C35.1832 21.4992 35.4743 21.2478 35.225 21.4992C34.9757 21.7488 34.7246 21.3316 34.9338 21.7907C35.143 22.2498 35.6016 22.2917 35.5179 22.5011C35.4342 22.7106 36.1438 22.4173 35.6434 22.8344C35.143 23.2516 35.143 22.6669 34.7682 22.9602C34.7212 22.9968 34.6863 23.0248 34.6636 23.0457C34.6758 23.0159 34.6549 22.9863 34.5171 23.002C34.1424 23.0439 34.0169 22.5849 33.8077 22.9602C33.5985 23.3354 33.7658 23.8364 33.7658 23.8364C33.7658 23.8364 34.2243 23.503 34.1824 23.9201C34.1406 24.3373 34.7665 24.1296 34.7246 24.2117C34.6828 24.2954 35.225 24.2117 35.225 24.2117L35.6835 23.9201L36.4331 23.5867C36.4331 23.5867 36.4732 22.9602 36.4331 22.9602Z" />
        <path d="M31.4711 18.703C31.3874 18.5354 31.5129 18.0346 31.3037 18.2021C31.0945 18.3697 31.0544 17.7849 31.0126 17.9927C30.9707 18.2021 30.8452 18.2841 30.8452 18.6192C30.8452 18.9526 30.8452 18.7868 30.8452 19.1202C30.8452 19.4536 30.8033 19.3698 30.7197 19.5374C30.636 19.7049 30.4286 18.9945 30.4286 18.9945L30.2612 18.8688C30.2612 18.8688 30.3031 19.0364 30.2612 19.1604C30.2194 19.286 30.3449 19.869 30.2612 20.1622C30.1776 20.4537 30.3449 20.2879 30.2612 20.4537C30.1776 20.6213 30.2612 20.5375 30.3031 20.7033C30.3449 20.8692 30.636 20.9529 30.8033 21.0785C30.9707 21.2042 31.3037 21.0785 31.3037 21.0785L31.4711 20.9111V20.3263C31.4711 20.3263 31.3037 19.8672 31.3037 19.7416C31.3037 19.6159 31.5129 19.1987 31.4711 19.1568C31.4292 19.1202 31.5548 18.8688 31.4711 18.703Z" />
        <path d="M31.8049 11.5239C31.6794 11.5658 31.4719 11.6914 31.4719 11.8991C31.4719 12.1085 31.8886 12.2325 32.0978 12.2325C32.307 12.2325 32.3471 12.3581 32.64 12.2325C32.9329 12.1068 33.0984 11.9409 33.1402 11.8991C33.1821 11.8572 33.0984 11.3563 33.1402 11.1486C33.1821 10.9391 32.6818 10.8989 32.6818 10.9391C32.6818 10.981 32.0978 10.9391 32.0978 10.9391C32.0978 10.9391 31.8484 10.6895 31.7229 10.6895C31.5974 10.6895 31.4737 11.1486 31.4737 11.1486C31.4737 11.1555 31.4737 11.1695 31.4737 11.1905C31.4737 11.2742 32.1413 11.3161 31.9321 11.5239C31.7212 11.7315 31.9304 11.482 31.8049 11.5239Z" />
        <path d="M43.8108 12.6917C44.0601 12.8174 44.1856 12.7336 44.1856 12.7336V12.5242C44.1856 12.5242 43.7271 12.0651 43.476 12.0232C43.2267 11.9813 42.0587 11.6479 41.8914 11.8556C41.724 12.0651 41.4747 12.4823 41.4747 12.4823C41.4747 12.4823 41.724 12.8157 41.8914 12.6917C42.0587 12.5661 42.1824 12.3165 42.4335 12.4823C42.6828 12.6499 42.8502 12.6917 43.1012 12.6499C43.3522 12.6097 43.5597 12.5678 43.8108 12.6917Z" />
        <path d="M47.1876 21.5412C46.9784 21.4574 46.8964 20.9564 46.7291 21.124C46.5617 21.2915 46.1869 21.124 46.1869 21.124L45.7285 21.5412C45.7285 21.5412 46.0614 21.7908 46.1869 21.7506C46.3124 21.7087 46.2706 21.6668 46.6036 21.7506C46.9366 21.8344 47.4369 21.9601 47.4369 21.9601C47.4369 21.9601 47.3951 21.6249 47.1876 21.5412Z" />
        <path d="M46.1872 17.6173L45.5613 17.0325L44.9773 16.783C44.9773 16.783 44.3933 16.4077 44.1858 16.4915C43.8494 16.7498 43.6439 16.9611 43.5219 17.1112C43.9595 17.2858 44.0812 17.1355 44.6025 17.2857C45.1865 17.4533 45.3939 17.3276 45.5613 17.4951C45.7287 17.6592 46.1872 17.6173 46.1872 17.6173Z" />
        <path d="M52.1024 22.5308L52.0954 22.4959C52.0466 22.2585 52.0187 21.9984 51.9873 21.7226C51.9717 21.5865 51.9577 21.4503 51.9385 21.3159C51.9176 21.1553 51.9089 20.9668 51.9001 20.7679C51.8758 20.2006 51.8443 19.4954 51.4747 18.8758C51.3301 18.6332 51.3126 18.3626 51.2934 17.9035C51.2847 17.7029 51.276 17.4969 51.2499 17.2734C51.1609 16.5177 51.0128 15.6467 50.3782 14.8543L50.3224 14.7845C50.1865 14.6151 50.0173 14.4039 49.9773 14.2888C49.3706 12.5031 48.4622 10.8589 47.2786 9.40144L47.1373 9.22689C46.1559 8.01554 45.0488 6.64885 43.2374 6.07459C43.0684 5.86689 42.8923 5.68012 42.7319 5.50907C42.3919 5.14601 42.0973 4.83357 42.0694 4.57524L41.454 3.68681L41.0983 3.50702C40.7775 3.3447 40.4916 3.19808 40.2023 3.0532C40.0785 2.98339 39.7891 2.81931 39.3917 2.84724C39.2888 2.85422 39.226 2.82455 38.8721 2.43182C38.6943 2.23459 38.4938 2.01291 38.248 1.82091C38.2288 1.80346 38.2079 1.78251 38.187 1.76332C37.9952 1.5783 37.5489 1.14367 36.8882 1.26236C36.4785 1.33567 36.0269 1.2327 35.5039 1.11226L35.3348 1.07386C34.8049 0.953421 34.3742 1.17858 34.1302 1.31648C33.6786 1.02324 33.1888 0.976113 32.8767 0.944695C32.786 0.935968 32.6535 0.922006 32.6013 0.908042C31.9492 0.550224 31.1421 0.822514 30.6435 1.19081L30.3523 1.01277C30.2356 1.00055 30.124 0.986587 30.0141 0.972623C29.7561 0.939459 29.4894 0.906295 29.2069 0.901058C29.1877 0.899313 29.1668 0.897569 29.1459 0.897569C28.996 0.890588 28.8618 0.888839 28.7328 0.894076C28.6787 0.895821 28.6229 0.899315 28.5671 0.902806C28.48 0.908042 28.3963 0.916766 28.3143 0.927239C28.2568 0.845203 28.1924 0.766656 28.1208 0.691602C27.3119 -0.147963 26.2206 -0.231742 25.4047 0.487386L25.4169 1.03546C25.4047 1.04768 25.3977 1.05291 25.3855 1.06513C25.0944 1.04244 24.8015 1.0564 24.5156 1.10178C24.397 1.08259 24.2594 1.04768 24.1146 1.01102C23.9908 0.979605 23.867 0.94993 23.7415 0.922003L22.4166 1.71793C22.4114 1.73888 22.4044 1.75808 22.3992 1.77554C22.3678 1.7703 22.3329 1.76332 22.2929 1.75459C22.0679 1.70746 21.8169 1.61321 21.5519 1.51197C21.3793 1.44738 21.2015 1.37932 21.0115 1.31823C20.3978 1.1175 19.7388 0.904548 19.0833 0.714294C18.6283 0.581639 18.2448 0.73175 18.0617 0.803314L18.0321 0.813786C17.0768 1.17509 16.5206 1.85931 16.0952 2.49292L15.2706 2.97117L15.1695 3.24346C14.9533 3.14223 14.7476 3.12651 14.6046 3.1335C14.4129 3.14398 14.1112 3.2068 13.8445 3.46513C13.7452 3.50179 13.651 3.55066 13.5603 3.6135L13.7644 3.14397C13.4959 3.02703 13.2047 2.96594 12.9118 2.97117C12.6643 2.85074 12.3784 2.82455 12.1012 2.89961C11.7979 2.9834 11.111 3.35866 10.921 3.99401C10.8808 4.12841 10.8477 4.26979 10.8181 4.43037L11.0256 4.46877L10.7937 5.41655C10.7885 5.40783 10.7815 5.38863 10.7798 5.3799C10.7798 5.3799 10.7832 5.39736 10.7798 5.43576C10.778 5.45496 10.7762 5.47242 10.7762 5.48987C10.1573 5.60158 9.77382 6.14964 9.51057 6.52492C9.4914 6.5511 9.4757 6.5738 9.46351 6.59125C9.25256 6.87227 9.17585 7.21089 9.2264 7.54078C8.83241 7.60362 8.53081 7.84798 8.32858 8.26689C8.23095 8.30529 8.1403 8.35765 8.05488 8.42049C7.87706 8.43794 7.72538 8.4938 7.60161 8.55837C7.23027 8.4938 6.84499 8.61075 6.57477 8.88304C6.16682 9.29148 6.16509 9.88492 6.29758 10.3737C5.96634 10.3352 5.62465 10.4277 5.33874 10.6477C5.20449 10.7507 5.07897 10.8868 4.97786 11.0439L4.28401 11.5012L4.24042 11.6025C4.09049 11.7648 3.89524 11.9917 3.76972 12.1994C3.39664 12.8226 3.59712 13.7302 3.95452 14.4092C3.93533 14.4336 3.9336 14.4354 3.91268 14.4615C3.70521 14.3952 3.46114 14.383 3.20661 14.4685C2.92245 14.2643 2.35761 13.9972 1.63237 14.3743L1.04661 15.1387C1.01523 15.2819 0.98733 15.425 0.962923 15.5663C0.821712 15.9416 0.687476 16.3169 0.556724 16.6835L0.405049 17.1094L0.680501 17.6348C0.56544 18.2404 0.481758 18.86 0.429458 19.478C0.413768 19.663 0.427714 19.8533 0.467812 20.0418C0.422484 20.2843 0.39285 20.5305 0.371929 20.78C0.099967 21.171 0.00233849 21.6894 0.0877627 22.3353C0.124373 22.6128 0.183647 22.8694 0.241178 23.1103L0.260353 23.1906C0.312653 23.4105 0.363208 23.6182 0.389359 23.8067C-0.210354 24.7108 -0.110979 25.7633 0.643892 26.4441C0.664812 26.4633 0.685729 26.4808 0.704905 26.5C0.750233 26.7286 0.825197 26.9538 0.928054 27.1684L1.34995 27.0812L1.19479 27.2522C1.35866 27.4024 1.47372 27.4792 1.59227 27.5577C1.64283 27.5909 1.70733 27.6345 1.79799 27.6973C2.05252 27.8771 2.30705 27.9469 2.518 27.9679C2.99044 28.3693 3.65117 28.4025 4.155 28.1791L4.49844 27.652C4.5734 27.6415 4.64662 27.6258 4.71636 27.6101C4.72856 27.6222 4.73902 27.6362 4.75122 27.6467C4.67626 27.7009 4.59781 27.7636 4.52285 27.8387L4.35548 28.0062L5.56711 29.5981C5.49389 29.5301 5.43113 29.4533 5.38406 29.366C5.47646 29.5335 5.58106 29.6609 5.69089 29.7587L5.71704 29.7936C5.71704 29.7936 5.70833 29.8006 5.69438 29.8058C5.54097 29.8634 5.42242 29.9647 5.77109 30.0188C5.90532 30.0398 6.02909 30.0362 6.14242 30.0188C6.18251 30.031 6.21912 30.0415 6.25574 30.0485C6.52422 30.106 6.78397 30.0764 7.03676 29.956C7.04025 29.9577 7.04199 29.9577 7.04547 29.9594C7.09777 30.0747 7.16053 30.1985 7.22678 30.3102V30.3121C7.28606 30.4429 7.36101 30.5425 7.4168 30.6157C7.63473 30.9072 8.01478 31.1533 8.50292 31.1131C8.73304 31.2179 8.94921 31.2354 9.13401 31.2144L9.37808 32.2181C9.5559 32.26 9.71629 32.2861 9.86796 32.2983C9.90632 32.307 9.94641 32.314 9.98302 32.3228C10.2253 32.3734 10.4345 32.41 10.642 32.438C11.1458 32.5061 11.6357 32.4694 12.089 32.3332C14.0398 33.3753 15.7552 33.1292 17.469 31.5618C17.6346 31.4099 17.8054 31.265 17.9833 31.122C18.4051 31.6316 19.1496 31.7555 19.6063 31.6665C20.0439 31.5809 20.4623 31.4553 20.8336 31.3471C20.9661 31.3086 21.0952 31.2703 21.2224 31.2337L21.6095 30.5616C21.6234 30.5616 21.6391 30.5616 21.653 30.5616C22.0139 30.5581 22.5543 30.5546 23.0163 30.2055C23.0895 30.244 23.1785 30.2998 23.2151 30.3225C23.3161 30.3853 23.4243 30.4464 23.5341 30.5057C23.6282 30.5581 23.7643 30.6332 23.834 30.6838C24.0118 31.1114 23.8095 31.8132 23.4173 32.0732C23.0111 32.3419 22.4131 32.7068 21.9267 32.7748C20.023 33.0384 18.1315 33.2392 16.1284 33.4503C15.377 33.5289 14.6186 33.6092 13.8515 33.6947L13.454 33.7942C12.3645 34.0647 12.3888 35.6234 13.4872 35.8591L13.9457 35.9568C15.3264 35.9934 16.8693 36.0371 18.4766 36.086C14.3675 36.7633 12.3714 37.7634 12.3714 39.4564C12.3714 39.5088 12.3731 39.5594 12.3767 39.5961C12.565 42.7275 18.9264 45 27.5037 45C36.7714 45 41.2954 41.7902 41.4837 41.654C41.9944 41.0553 41.8166 40.1355 41.1192 39.7706L40.795 39.6013C38.0057 39.6572 34.8607 39.5542 32.7581 39.3203C33.3073 39.1737 33.8757 39.0271 34.3812 38.8979C39.2783 37.6394 40.9728 37.1315 40.9728 35.6898C40.9728 34.7786 40.1691 34.2289 38.1067 33.7279C36.3268 33.295 33.7937 32.9826 30.776 32.8237C30.3941 32.6771 30.1954 32.4642 30.0647 32.0715C30.0403 31.9981 30.0141 31.9249 29.9897 31.8515C29.9078 31.6177 29.8223 31.375 29.8172 31.2249C29.8119 31.0957 29.8049 30.9665 29.798 30.8374C29.7439 29.9228 29.7875 29.7395 30.0961 29.5353C30.1013 29.5318 30.1082 29.5283 30.1135 29.5231L30.4587 29.647C30.4622 29.6592 30.4674 29.6732 30.4708 29.6837C30.5215 29.8443 30.5842 30.0432 30.694 30.244L31.7488 30.8287C31.7609 30.8287 31.7732 30.8269 31.7871 30.8269L31.8272 30.8846C32.1271 31.3122 32.5525 31.567 33.0284 31.6002C33.302 31.6211 33.5706 31.5652 33.8146 31.4413C34.1441 31.5879 34.4719 31.5949 34.6637 31.6002C34.6967 31.6002 34.7282 31.6019 34.7595 31.6037C34.8711 31.6089 34.9879 31.6089 35.103 31.6071C35.1692 31.6054 35.2634 31.6054 35.3122 31.6089C35.6208 31.7433 35.9346 31.9336 36.2657 32.1325C36.3547 32.1866 36.4436 32.2408 36.5326 32.2931C37.3885 32.801 38.2811 32.8342 39.1248 32.3926C39.6305 32.5951 40.0837 32.5776 40.4725 32.3368C40.5649 32.2791 40.6486 32.2128 40.7218 32.1378C41.3633 32.2983 42.031 32.1291 42.6115 31.6264C42.7528 31.5041 42.8748 31.3803 42.983 31.2703C43.0631 31.1882 43.1398 31.1097 43.2078 31.0486C44.6025 30.9404 45.8839 30.6681 47.0206 30.2353C47.7423 29.9611 48.6488 29.5161 49.2485 28.5055C49.3269 28.3728 49.3949 28.2349 49.4543 28.0918C50.3416 27.8526 50.964 27.2331 51.222 26.3185C51.3701 25.793 51.4521 25.2746 51.5288 24.7719C51.5567 24.5904 51.5846 24.4159 51.6142 24.2449C51.9873 23.9376 52.2837 23.4227 52.1024 22.5308ZM50.8838 23.4576C50.7932 23.4908 50.7425 23.7054 50.7165 23.8451C50.5804 24.5625 50.5124 25.2991 50.3154 25.9973C50.1586 26.5489 49.7994 26.9276 49.1282 27.0288C48.9643 27.0533 48.8197 27.2016 48.6767 27.3744C48.6314 27.5629 48.5599 27.7445 48.4571 27.9155C48.0717 28.5648 47.4842 28.9035 46.8008 29.1635C45.5892 29.6243 44.2712 29.8547 42.969 29.9298C42.894 29.9839 42.819 30.0415 42.7476 30.0973C42.4965 30.2928 42.2926 30.5494 42.0502 30.7589C41.5795 31.1673 41.1141 31.1429 40.6538 30.724C40.5683 30.6454 40.4324 30.6227 40.3208 30.5738C40.272 30.6908 40.1814 30.8078 40.1831 30.9246C40.1883 31.4082 40.0384 31.4971 39.5956 31.2686C39.4126 31.1743 39.0743 31.2075 38.8896 31.3192C38.3369 31.6508 37.8278 31.6246 37.2944 31.3086C36.8358 31.0363 36.3826 30.7431 35.8927 30.5372C35.6312 30.4272 35.3017 30.4778 35.0018 30.4621C34.6149 30.4412 34.1686 30.5232 34.2313 29.7849C34.165 29.8111 34.0988 29.8373 34.0343 29.8634C33.9087 30.0066 33.785 30.1515 33.656 30.2911C33.391 30.5721 33.1156 30.4778 32.9377 30.2265C32.5438 29.6627 32.5612 29.6505 31.8673 29.6889C31.6303 29.2578 31.686 28.3851 30.7812 28.9209C30.4831 28.1075 30.3732 28.1075 29.6532 28.5806C28.6159 29.263 28.8287 30.2911 28.8635 31.2598C28.8775 31.6526 29.0413 32.0436 29.1686 32.4257C29.4597 33.2985 30.0351 33.7209 30.7377 33.9426C37.7773 34.3021 40.0193 35.3564 40.0193 35.6845C40.0193 36.8645 29.7405 38.4948 29.7405 39.3587C29.7405 40.9541 40.999 40.7324 40.999 40.7324C40.999 40.7324 36.6911 43.862 27.685 43.862C18.787 43.862 13.8079 41.4917 13.6894 39.5245C13.6877 39.5019 13.6859 39.4774 13.6859 39.453C13.6859 36.3199 32.8244 36.2448 35.5614 35.7823C36.0723 35.4 14.1566 34.8188 14.1566 34.8188C16.946 34.5116 19.6133 34.2638 22.2631 33.8955C22.9465 33.8012 23.6299 33.4084 24.2227 33.0157C25.1241 32.4206 25.4867 31.0137 24.9846 30.0834C24.8084 29.7552 24.343 29.572 23.9926 29.3537C23.5272 29.0658 23.0896 28.8336 22.5264 29.2857C22.2789 29.4847 21.8029 29.3922 21.4333 29.4428C21.2695 29.4654 21.1074 29.5161 20.9452 29.5528C20.9819 29.6941 21.0184 29.8373 21.0952 30.1375C20.6157 30.2719 20.0997 30.4464 19.568 30.5494C19.3919 30.5844 19.0781 30.49 19.0135 30.3609C18.9473 30.23 19.0519 29.9245 19.1827 29.7988C19.4512 29.5371 19.5296 29.3224 19.1304 28.9576C18.3859 29.5353 17.5892 30.0764 16.8849 30.7187C15.4938 31.9894 14.2908 32.1762 12.6573 31.2476C12.5859 31.2075 12.5126 31.1673 12.4412 31.1307C12.3871 31.1237 12.333 31.115 12.2808 31.1044C11.8797 31.3139 11.43 31.3698 10.9732 31.3086C10.7762 31.2825 10.5862 31.2476 10.3927 31.2075C10.3282 31.1935 10.2637 31.1795 10.1974 31.1673C10.0737 31.1638 9.94292 31.1411 9.81914 31.1114C9.83832 31.0957 9.8575 31.0782 9.87842 31.0608C10.0039 31.0608 10.2532 30.8514 10.2532 30.8514H10.5444C10.5444 30.8514 10.6281 30.7676 10.8356 30.7676C11.0448 30.7676 11.0029 30.9771 11.2521 30.7257C11.5015 30.4761 11.4613 30.8933 11.7107 30.7257C11.96 30.5581 12.0855 30.7257 12.0855 30.7257H12.4185C12.4185 30.7257 12.8351 30.5581 12.8264 30.3033C12.8177 30.0467 12.7096 30.2666 12.6417 30.2719C12.5737 30.2772 12.2912 30.2247 12.4167 29.9751C12.5422 29.7256 11.9164 30.1846 11.4892 30.1323C11.0621 30.0798 10.9157 30.3102 10.5409 30.2683C10.1661 30.2265 10.1243 30.0589 9.62041 29.9996C9.11657 29.9402 9.29091 30.2265 9.02941 29.9996C8.7679 29.7726 8.62321 30.1008 8.49769 29.935C8.37217 29.7692 8.49769 29.935 8.37217 29.7256C8.24665 29.5161 8.12286 29.1827 8.12286 29.1827C8.12286 29.1827 7.70621 28.9331 7.66437 28.8493C7.62253 28.7655 7.08034 28.8493 6.9339 28.8319C6.78746 28.8144 6.70553 29.1007 6.54862 28.8161C6.39172 28.5317 6.20518 29.1007 6.00992 28.8161C5.81467 28.5317 5.33002 28.8074 5.33002 28.8074C5.33002 28.8074 5.33002 28.8074 5.49738 28.6399C5.66474 28.4723 6.03956 28.3483 6.12325 28.1389C6.20693 27.9294 6.20693 27.9294 6.20693 27.638C6.20693 27.3465 6.0814 27.3046 6.0814 27.1789C6.0814 27.0533 5.8321 27.0114 5.66474 26.7617C5.49738 26.5121 5.33175 26.7199 5.37359 26.4283C5.41543 26.1369 4.54028 26.6378 4.37292 26.5121C4.20556 26.3865 3.87257 26.6378 3.87257 26.6797C3.87257 26.7216 3.87432 27.1405 3.87432 27.1405C3.87432 27.1405 3.49776 27.3063 3.33214 26.9729C3.16477 26.6396 2.91547 26.9729 2.62782 26.7705C2.34016 26.568 2.28961 26.5558 2.1362 26.4144L2.12574 26.6762C2.0316 26.4808 1.97407 26.2696 1.96535 26.0374C1.96361 26.0007 1.96535 25.9658 1.96535 25.9292C1.83285 25.8227 1.70211 25.7145 1.57832 25.601C1.22268 25.2799 1.22617 24.8383 1.53126 24.4019C1.66201 24.2151 1.72303 23.9237 1.69339 23.695C1.65678 23.4088 1.5853 23.1259 1.51905 22.8449C1.46675 22.6251 1.4162 22.4051 1.38656 22.1834C1.33949 21.8326 1.33426 21.4608 1.63935 21.2776C1.64283 21.302 1.64457 21.3176 1.64457 21.3176V21.9862L1.51905 22.8467C1.5208 22.8485 2.43605 23.3214 2.54065 23.496C2.64526 23.6705 2.97824 23.7822 3.32168 23.6339C3.66512 23.4873 3.88129 23.5903 3.88129 23.5903C3.88129 23.5903 4.27006 23.9882 4.18986 24.1924C4.10967 24.3966 3.87606 24.6131 3.87606 24.6131L4.51936 25.0652C4.51936 25.0652 4.93777 24.7387 5.15394 24.5991C5.37012 24.4595 5.64557 24.1139 5.68741 23.4873C5.72925 22.8606 5.68741 23.4454 5.48518 22.8449C5.28295 22.2445 5.27074 22.7368 5.39452 22.1939C5.52005 21.6511 5.31084 21.7767 5.48518 21.6231C5.65777 21.4695 5.81293 21.3595 6.07268 21.3386C6.33245 21.3176 6.47889 21.4433 6.60441 21.3176C6.72993 21.192 6.89555 21.6511 6.93739 21.9862C6.97923 22.3213 7.06291 22.4034 6.93739 22.6128C6.81186 22.8223 6.68809 23.1976 6.61138 23.592C6.53641 23.9865 6.93565 23.9586 6.93565 23.9586C6.93565 23.9586 7.64519 23.9481 7.82127 23.8486C7.99734 23.7473 8.26931 23.8241 8.25711 23.8486C8.24316 23.873 8.46631 24.4647 8.46631 24.4647C8.46631 24.4647 9.06254 24.7842 9.14622 24.4508C9.2299 24.1174 8.97885 24.1592 8.95619 23.8486C8.93353 23.5397 9.02069 23.5327 9.18806 23.2814C9.35542 23.0317 9.2299 22.9061 9.60471 22.5308C9.97954 22.1555 10.0632 22.2811 10.1469 22.0298C10.2306 21.7803 10.8565 22.0298 10.8565 22.0298C10.8565 22.0298 11.7734 21.8622 12.0646 21.9879C12.3558 22.1136 12.2738 21.6965 12.5458 21.562C12.8194 21.4276 12.8142 20.8621 12.7637 20.7138C12.7114 20.5671 12.6068 20.3611 12.4063 19.9248C12.2058 19.4901 12.1483 19.567 12.0646 19.1917C11.9809 18.8164 11.5642 18.7745 11.6898 18.3992C11.8153 18.024 11.8571 18.1078 12.0646 18.3992C12.2738 18.6908 12.232 18.7745 12.6068 18.9002C12.9815 19.0259 12.856 18.7326 13.2326 18.8583C13.6074 18.984 13.4 18.2317 13.6911 17.9822C13.9823 17.7325 13.5656 17.6906 13.5238 17.4812C13.4819 17.2717 13.2744 17.1059 13.3146 16.8545C13.3564 16.6049 13.1054 16.2698 13.3146 16.0202C13.5238 15.7706 13.5639 15.7287 13.5639 15.7287L14.4844 16.0202L14.8348 16.3326L15.8755 16.1546C15.8755 16.1546 16.6269 15.7061 16.7106 15.748C16.7943 15.7899 17.211 15.9975 17.211 15.9975C17.211 15.9975 17.9205 16.0813 17.9833 16.1424C18.0478 16.2035 18.5864 15.9975 18.5864 15.9975L19.2054 15.4355C19.2054 15.4355 19.6709 14.9957 19.8782 15.0794C20.0874 15.1632 19.9201 14.746 19.7144 14.5924C19.5087 14.4388 19.5435 14.3795 19.5435 14.3795L19.7214 13.9816C19.7214 13.9816 20.6087 12.7615 20.3176 12.6794C20.0265 12.5956 19.8591 12.8889 19.5261 12.8051C19.1931 12.7213 19.1095 13.0547 19.1095 13.0547L18.8601 13.5138V14.0984L18.5691 14.6832C18.5691 14.6832 18.0269 15.0166 17.6642 14.9538C17.4341 14.9136 17.985 14.5173 17.8595 14.2241C17.734 13.9309 18.2762 13.4736 17.8595 13.306C17.4428 13.1385 17.6503 13.306 17.6503 13.306C17.6503 13.306 17.1499 13.9327 17.0662 14.0984C16.9826 14.266 16.8169 14.767 16.4822 14.6832C16.1493 14.5994 16.1075 14.6832 16.1075 14.6832C16.1075 14.6832 15.2322 14.5575 15.1486 14.3917C15.0649 14.2241 15.1067 14.1002 15.1067 14.1002C15.1067 14.1002 14.9394 13.3497 14.8574 13.5155C14.7737 13.6831 14.4826 13.5574 14.4826 13.5574V14.2258C14.4826 14.2258 14.2333 14.6849 13.9823 14.6011C13.733 14.5173 13.5656 14.5173 13.6074 14.3917C13.6493 14.266 13.3163 14.1002 13.3163 14.1002L13.067 13.5155L12.734 14.1002C12.734 14.1002 12.6922 14.643 12.6504 14.6849C12.6085 14.7268 12.1082 15.9784 12.143 16.0324C12.1779 16.0848 12.15 16.3134 12.15 16.3134C12.15 16.3134 12.2337 16.8981 11.6915 16.8563C11.1494 16.8144 11.233 16.8563 11.233 16.8563C11.233 16.8563 11.2016 16.9593 11.1528 17.1024C11.0429 17.4253 10.8477 17.9541 10.7327 17.9839C10.5653 18.0258 10.2741 17.9839 10.2027 18.0711C10.1312 18.1584 9.56636 18.7362 9.60646 18.9438C9.6483 19.1533 9.8976 19.2772 10.044 19.1865C10.1905 19.094 10.8146 19.3627 11.2312 19.4867C11.6479 19.6106 11.7054 20.1762 11.7054 20.1762L11.5486 20.7679L10.8268 20.9145C10.8268 20.9145 10.4398 20.7382 10.5218 20.78C10.6054 20.8219 10.1469 20.6544 9.91852 20.7679C9.69014 20.8796 9.89585 21.1571 9.89585 21.1571C9.89585 21.1571 9.43735 21.3246 9.18631 21.3246C8.93701 21.3246 9.01895 20.9913 9.01895 20.9913L8.65982 20.7696C8.65982 20.7696 8.30941 20.5322 8.35125 20.4485C8.39309 20.3647 7.89274 20.4066 7.6417 20.1988C7.39241 19.9894 7.39241 20.1988 7.39241 20.1988C7.39241 20.1988 7.22504 19.8235 6.9339 19.9894C6.64276 20.1552 6.40741 20.3611 6.40741 20.3611C6.40741 20.3611 6.18426 20.4886 6.11976 20.5706C6.05525 20.6509 5.93496 20.6579 5.39278 20.616C4.8506 20.5741 4.93428 20.616 4.93428 20.616C4.93428 20.616 4.18463 21.576 3.89175 21.7016C3.59886 21.8273 3.89175 21.9513 3.89175 22.2026C3.89175 22.2026 3.60061 22.7455 3.49601 22.8536C3.39316 22.9619 3.22405 22.9951 2.97475 22.8694C2.72545 22.7438 2.97475 22.7856 2.93989 22.5325C2.90502 22.2794 2.89107 22.2026 2.79867 21.7907C2.70628 21.3805 2.76555 21.576 2.76555 21.3246C2.76555 21.1693 2.0961 21.1274 1.65329 21.0872C1.67247 20.7207 1.72303 20.356 1.80496 19.9981C1.74569 19.8637 1.71605 19.7188 1.72825 19.5792C1.78404 18.9089 1.87993 18.2456 2.01591 17.5912C1.95489 17.5806 1.89561 17.5684 1.84331 17.5544C1.77707 17.537 1.70908 17.5178 1.64283 17.5004C1.83809 16.9558 2.02811 16.4112 2.23382 15.8701C2.25998 15.7078 2.28961 15.5472 2.32448 15.3884C2.44303 15.3272 2.57203 15.2714 2.74463 15.418C3.03577 15.6676 2.99393 15.5437 3.32865 15.6676C3.66163 15.7933 3.87084 15.2504 3.66163 15.7933C3.45243 16.3362 3.30599 16.1773 3.37921 16.5909C3.45243 17.0047 3.16129 16.7114 3.36874 17.0448C3.57794 17.3782 3.53611 17.7133 3.86909 17.7133C4.20207 17.7133 4.28575 17.4218 4.49496 17.4637C4.70416 17.5056 4.66232 16.879 4.66232 16.879L4.86628 16.5909C4.86628 16.5909 4.78609 16.4618 4.86977 16.2105C4.95345 15.9609 5.16092 15.7933 5.16092 15.7933V15.0829C5.16092 15.0829 5.16092 14.9991 5.16092 14.8734C5.16092 14.7477 5.78677 14.7059 5.37012 14.2468C4.95345 13.7878 4.78609 12.9953 4.91161 12.7859C5.03713 12.5764 5.37012 12.2431 5.37012 12.2431L5.49564 11.9516C5.49564 11.9516 5.96634 11.9516 6.07966 11.9516C5.91229 11.9516 6.16334 11.3668 6.41264 11.5344C6.66194 11.7019 6.62184 11.7438 6.91298 11.9097C7.20412 12.0755 7.66262 11.5763 7.66262 11.9097C7.66262 12.2431 7.87182 11.6182 8.12113 11.9516C8.37042 12.2849 8.37042 12.0354 8.62146 12.0354C8.87251 12.0354 9.03813 11.4925 9.03813 11.4925C9.03813 11.4925 8.20481 11.1591 8.12113 10.9496C8.03745 10.7402 7.70446 10.4069 7.66262 10.365C7.62078 10.3231 7.37148 9.44682 7.66262 9.73831C7.95376 10.0298 8.28849 9.44682 8.37217 9.57075C8.45585 9.69467 8.54301 9.38921 8.81148 9.75227C9.07996 10.1136 8.99629 9.98965 9.07997 10.1554C9.09392 10.1852 9.11135 10.2183 9.12878 10.2532C9.13924 10.2724 9.14795 10.2916 9.15841 10.3108C9.16016 10.3143 9.1619 10.3178 9.16365 10.3231C9.1619 10.3195 9.16016 10.3161 9.15841 10.3108C9.1497 10.2916 9.13924 10.2724 9.12878 10.2532C9.14273 10.2532 9.15668 10.255 9.17236 10.255C9.15842 10.255 9.14447 10.2532 9.12878 10.2532C8.95096 9.89539 8.64762 9.24259 9.03813 9.32114C9.45478 9.40493 9.49662 8.48682 9.62215 8.69452C9.74767 8.90397 9.85227 8.61423 10.1748 8.96681C10.4973 9.32114 11.8309 9.23736 11.7054 9.48697C11.5799 9.73656 12.0541 9.37351 12.401 9.30543C12.748 9.23736 12.83 8.82019 12.83 8.82019C12.83 8.82019 12.3034 8.75911 12.401 8.66485C12.4969 8.5706 12.232 8.48157 12.232 8.48157C12.232 8.48157 12.4987 7.90208 12.8317 7.86019C13.1647 7.8183 13.3739 7.35925 13.5813 7.56871C13.7905 7.77816 13.9143 7.35925 13.9143 7.35925C13.9143 7.35925 13.5394 6.31547 13.3302 6.52492C13.121 6.73438 12.9973 6.48303 12.6208 6.77452C12.2459 7.06601 12.2877 7.40114 11.8711 7.56696C11.4544 7.73452 11.2504 7.47619 11.0186 7.6263C10.7867 7.77641 10.4119 7.44303 10.5374 7.27547C10.6629 7.1079 11.0796 6.44114 11.247 6.64884C11.4144 6.85656 11.5799 6.52318 11.7054 6.4394C11.8083 6.37132 11.9949 6.02223 12.0593 5.8983C12.0576 5.85642 12.0611 5.74994 12.0785 5.52128C12.1082 5.11633 11.9774 4.88593 11.8606 4.72884C11.9374 4.69393 12.0175 4.66253 12.1029 4.63983C12.1221 4.53336 12.1466 4.42862 12.1762 4.32565C12.2197 4.18077 12.565 3.9748 12.5893 3.9975C12.6626 4.06557 12.734 4.11619 12.8055 4.15633C13.0234 4.08302 13.271 4.09699 13.4819 4.1895C13.522 4.17554 13.5622 4.15808 13.6005 4.14063C13.4576 4.61015 13.4576 4.29598 13.4576 4.77074C13.4576 5.27168 13.4576 4.81262 13.6249 5.06223C13.7923 5.31182 14.2925 5.27168 14.2089 5.06223C14.1252 4.85277 14.3414 4.39371 14.5454 4.56128C14.7511 4.72884 14.7145 3.92593 15.0038 4.45132C15.2933 4.97845 15.5426 4.7271 15.4606 5.22805C15.3787 5.72899 15.4188 6.10427 15.1276 6.18805C14.8365 6.27184 14.8365 6.10427 14.5436 6.18805C14.2525 6.27184 14.3762 6.02048 14.2107 6.27183C14.1461 6.36957 14.0869 6.3783 14.0573 6.37307C14.0816 6.39053 14.1304 6.43067 14.2107 6.52317C14.5018 6.85656 14.5924 6.54063 14.5471 6.69947C14.5018 6.8583 14.758 6.37306 14.5471 7.09568C14.3362 7.8183 14.4599 7.56697 14.5436 7.52507C14.6273 7.48318 15.0057 7.12361 15.0666 7.09568C15.1276 7.06601 15.2113 6.56506 15.4606 6.52492C15.71 6.48303 16.0447 5.52303 16.0447 5.6487C16.0447 5.77438 16.2121 5.18964 16.4194 5.27342C16.6286 5.35721 16.9198 4.85627 16.9198 4.85627C16.9198 4.85627 16.939 4.82834 16.9703 4.78296C16.9547 4.78121 16.939 4.77772 16.9198 4.77248C16.6286 4.6887 16.1702 4.22964 16.1702 4.4391C16.1702 4.37103 16.1702 4.27153 16.1702 4.27153L16.4194 3.60303L16.5049 3.37612C16.6618 3.4023 16.8152 3.44769 16.9582 3.51575C17.3818 2.85597 17.7967 2.18746 18.6056 1.88201C18.712 1.84186 18.8427 1.78077 18.9387 1.8087C19.5732 1.99372 20.2043 2.19619 20.8319 2.40215C21.2991 2.55575 21.7541 2.77045 22.2318 2.87169C23.1557 3.06717 23.4399 2.86469 23.677 2.0391C24.0327 2.11415 24.3779 2.2311 24.7266 2.25378C24.9741 2.20142 25.2251 2.18572 25.4745 2.20317C25.6104 2.18397 25.7499 2.16303 25.8946 2.14732C25.8911 2.18747 25.8876 2.22586 25.8823 2.26252C26.0567 2.30092 26.2276 2.35677 26.3949 2.42659C26.4019 2.35328 26.4072 2.27997 26.4141 2.20666C26.4385 1.96056 26.4542 1.71444 26.4751 1.46833L26.3235 1.3479C26.7436 0.977859 27.1742 1.1751 27.4775 1.48753C27.6972 1.71619 27.6954 1.96928 27.6083 2.20491C27.9046 2.14033 28.2045 2.09844 28.5062 2.07924C28.6038 2.06178 28.7049 2.04782 28.8164 2.04084C28.86 2.03735 28.9018 2.03561 28.9455 2.03386C29.0518 2.03037 29.1581 2.03212 29.2663 2.03736C29.2854 2.0391 29.3046 2.04084 29.3238 2.04259C29.6707 2.04608 30.0194 2.10892 30.4099 2.14906C30.8248 2.79139 30.8474 2.76695 31.3879 2.19793C31.5779 1.99895 32.0538 1.81044 32.2317 1.91167C32.779 2.22412 33.5619 1.89422 33.9681 2.5767C34.0029 2.63604 34.3603 2.52783 34.5573 2.46325C34.7996 2.38296 35.0576 2.14208 35.2599 2.18921C35.924 2.33932 36.5674 2.51386 37.2629 2.38819C37.3885 2.36549 37.5628 2.59764 37.7128 2.71634C38.3212 3.19459 38.6751 4.06208 39.6497 3.98877C39.7194 3.98354 39.7978 4.04288 39.8693 4.07779C40.2581 4.27328 40.6469 4.47052 41.1175 4.70965C41.2204 5.64521 42.1252 6.21947 42.6935 7.01191C42.7249 7.05729 42.7911 7.08871 42.8469 7.10441C44.545 7.54951 45.5526 8.87431 46.5743 10.131C47.6725 11.4838 48.5129 13.0023 49.0794 14.6675C49.1927 14.9991 49.4438 15.2959 49.6704 15.5769C50.108 16.1214 50.2195 16.7289 50.2998 17.4183C50.3782 18.0886 50.2683 18.7851 50.6781 19.471C50.9988 20.0086 50.9029 20.7975 50.9901 21.4748C51.0442 21.8937 51.0755 22.3196 51.1592 22.7332C51.2237 23.0422 51.297 23.311 50.8838 23.4576Z" />
        <path d="M44.1856 16.4898C43.9781 16.5735 44.8951 15.9486 44.1856 16.4898Z" />
        <path d="M34.5972 12.2744C34.5553 12.4 34.7524 12.4768 34.7524 12.4768L35.0975 12.4821H35.3469C35.3469 12.4821 35.3887 12.3145 35.3469 12.2325C35.305 12.1487 35.2214 11.9409 35.2214 11.9409V11.5658C35.2214 11.5658 34.7628 11.9602 34.5955 11.9515C34.4316 11.9409 34.639 12.1504 34.5972 12.2744Z" />
        <path d="M41.4226 19.9736C41.203 19.9509 40.7671 19.8707 40.5317 19.7939C40.2965 19.7171 40.2668 19.7869 40.089 19.9265L40.476 20.1639L40.2546 20.705C40.2546 20.705 40.5178 20.8324 40.741 20.8848C40.9624 20.9371 40.8525 20.9144 41.0199 20.7067C41.1873 20.4972 41.5621 20.7067 41.7643 20.705C41.9666 20.7032 41.8951 20.4134 41.9021 20.1639C41.9072 19.9126 41.6441 19.9964 41.4226 19.9736Z" />
        <path d="M23.2164 23.1259C23.3001 22.8344 23.1327 22.7506 23.2164 22.4155C23.3001 22.0804 22.716 22.2061 22.7997 22.0402C22.8834 21.8726 22.2993 21.9983 22.2993 22.0402L21.9246 22.2078L22.2993 22.4172C22.2993 22.4172 22.5085 22.7925 22.2993 23.1277C22.2 23.2865 21.8409 23.4192 21.5899 23.3773C21.3405 23.3354 21.5899 23.6688 21.5899 23.6688L21.9228 24.044C21.9228 24.044 22.2558 24.3774 22.2976 24.2535C22.3395 24.1278 22.8817 24.3372 23.0072 24.1278C23.1327 23.9183 23.1327 23.9183 23.2164 23.7107C23.3001 23.503 23.1344 23.4192 23.2164 23.1259Z" />
        <path d="M27.887 12.7334L26.6788 12.7753L25.551 13.9222L23.553 13.5678L21.5935 15.3621L22.4146 15.3342C22.4146 15.3342 22.2822 15.7583 22.4077 15.7164C22.5332 15.6745 23.0754 15.5488 23.2409 15.425C23.4083 15.2993 23.3246 14.924 23.5739 14.6744C23.8233 14.4249 23.8233 14.3829 23.8233 14.3829C23.8233 14.3829 24.5886 14.6028 24.6548 14.5959C24.674 14.65 24.8606 14.9781 24.8239 15.0497C24.7821 15.1335 25.1151 16.0096 25.1151 16.0096C25.1151 16.0096 25.2406 15.5507 25.3243 15.4267C25.408 15.3027 25.6294 14.5836 25.6294 14.5836L26.2413 14.2154C26.2413 14.2154 27.0746 14.5906 27.2542 14.4562C27.4338 14.3219 27.6586 13.8803 27.6586 13.8803L29.055 13.484L28.8877 12.7334H27.887Z" />
        <path d="M27.971 9.0959C27.896 9.03132 28.0792 8.62287 27.971 9.0959Z" />
        <path d="M26.4226 24.1685C26.4263 24.1685 26.428 24.1703 26.428 24.1703C26.428 24.1703 26.4352 24.1203 26.4226 24.1685Z" />
        <path d="M27.22 17.701C26.9289 17.6591 26.7197 17.701 26.7197 17.701C26.7197 17.701 26.5105 17.9925 26.2611 17.9506C26.0118 17.9087 25.8026 17.8668 25.5516 17.9925C25.3023 18.1181 25.3424 17.701 24.9676 17.9506C24.5928 18.2001 24.5928 18.0344 24.2581 18.3677C23.925 18.7011 23.674 19.3696 23.674 19.3696C23.674 19.3696 23.2573 19.3277 23.2992 19.7449C23.341 20.162 23.2573 20.3716 23.2992 20.5373C23.341 20.7049 23.4665 20.6211 23.5084 20.9126C23.5502 21.2041 23.7995 21.246 23.8832 21.4974C23.9669 21.747 24.2162 21.5811 24.2162 21.8308C24.2162 22.0803 24.6747 21.8308 24.6747 21.8308V20.5356C24.6747 20.5356 24.5911 20.368 24.6747 20.3261C24.7584 20.2842 25.0076 20.1586 25.0076 20.1586C25.0076 20.1586 25.2168 19.8252 25.2988 19.7414C25.3825 19.6576 25.9247 19.3661 25.7992 19.5319C25.6737 19.6978 25.7992 19.7414 25.7992 19.7414C25.7992 19.7414 25.5481 19.888 25.5481 20.1114C25.5481 20.1219 25.5481 20.1324 25.5481 20.1429C25.5481 20.148 25.5481 20.1533 25.5481 20.1586C25.59 20.4082 25.6736 20.8271 25.7975 20.9092C25.923 20.9929 26.2559 20.5339 26.2559 20.5339V19.2823L26.4232 18.8652L26.7144 18.6156L27.2148 18.3659C27.2148 18.3659 27.2566 18.0326 27.2148 17.9489C27.1782 17.8685 27.5111 17.7428 27.22 17.701Z" />
        <path d="M28.0113 9.10292C27.9938 9.10815 27.9797 9.10464 27.971 9.0959C27.971 9.0959 27.9694 9.09943 27.9694 9.10292C27.8439 9.64575 27.9276 9.3944 27.9694 9.72953C28.0113 10.0629 28.0949 10.1048 28.1786 10.2305C28.2623 10.3562 28.1368 10.3143 28.4697 10.44C28.8027 10.5656 29.0537 10.2305 29.0537 10.2305C29.0537 10.2305 28.9282 9.68764 28.8044 9.72953C28.6789 9.77142 28.4715 9.43804 28.4715 9.43804V9.10467L28.8044 8.85506L29.0537 8.64561V8.39601C29.0537 8.39601 28.1368 8.60547 28.0113 8.6875C27.8875 8.76954 28.1786 9.06103 28.0113 9.10292Z" />
        <path d="M26.1228 24.2011C26.067 24.3163 25.8438 24.4612 25.7236 24.353C25.6016 24.2448 25.3854 24.545 25.2616 24.545C25.1378 24.545 24.6776 24.9622 24.6776 24.9622V25.2956C24.6776 25.2956 24.6357 25.6289 24.6776 25.7545C24.7194 25.8803 24.9269 26.2974 24.9269 26.2974L25.3017 26.5889L25.2599 26.2974C25.2599 26.2974 25.1762 25.964 25.0925 25.964C25.0089 25.964 25.1344 25.7145 25.3418 25.2956C25.551 24.8784 25.6748 25.4212 25.884 24.9622C26.0932 24.5031 26.2588 24.8784 26.3547 24.4542C26.393 24.2797 26.4122 24.2011 26.4209 24.168C26.3913 24.1592 26.1734 24.0947 26.1228 24.2011Z" />
        <path d="M34.7228 10.5081C34.8902 10.7315 35.0627 10.9776 35.2266 10.9583C35.3904 10.9391 35.5997 10.981 35.8071 10.9391C36.0163 10.8972 35.9902 10.7576 36.4191 10.7436C36.848 10.7297 36.9317 11.0631 37.0572 10.9391C37.1827 10.8134 37.3064 10.8972 37.3482 10.7715C37.3901 10.6459 37.0572 10.145 37.0572 10.145C37.0572 10.1031 36.7992 9.99311 36.5742 9.90235C36.3493 9.81158 35.9989 9.75921 35.8193 9.7435C35.6398 9.72779 35.265 9.81157 35.0976 9.93725C34.9303 10.0629 34.8884 10.1048 34.7228 10.2707C34.5572 10.4382 34.5572 10.2828 34.7228 10.5081Z" />
        <path d="M37.3504 13.861C37.0174 13.9866 37.101 13.861 37.0592 13.861C37.0174 13.861 36.4333 14.4038 36.4333 14.4038L36.7611 14.5853L37.1829 14.4457H37.7251L37.9343 14.6952C37.9343 14.6952 37.9343 14.9867 38.0598 15.0705C38.1854 15.1543 38.5148 15.362 38.5148 15.362C38.5148 15.362 39.4772 15.1962 39.3516 14.8611C39.2261 14.5277 39.601 14.6114 39.2679 14.4439C38.935 14.2763 39.3098 14.4439 39.2679 14.2344C39.2261 14.025 38.6003 13.8592 38.6003 13.8592L38.0581 13.5677C38.0581 13.5677 37.6833 13.7353 37.3504 13.861Z" />
        <path d="M36.4333 7.85136C36.6007 7.60176 36.6826 8.01892 37.0592 8.14285C37.4339 8.26853 37.3921 8.26853 37.746 8.38373C38.1 8.50067 37.8925 8.22489 38.351 8.26678C38.8095 8.30867 38.2673 8.09921 38.3335 7.68554C38.3998 7.27187 38.1836 7.51449 38.0581 7.26488C37.9326 7.01529 37.5943 7.25092 37.5943 7.25092C37.5943 7.25092 37.1864 7.11304 37.1812 7.09907C37.1237 7.10954 36.4211 7.19682 36.4211 7.19682C36.4211 7.19682 36.1421 7.43245 36.1457 7.61398C36.1491 7.79725 36.1421 8.1411 36.1421 8.1411C36.1421 8.1411 36.2659 8.10096 36.4333 7.85136Z" />
        <path d="M22.0507 18.3679V17.6173L21.1756 17.1164C21.1756 17.1164 21.1756 17.2421 20.9664 17.7012C20.8792 17.8931 20.8289 17.9754 20.7992 18.0067C20.9282 18.0505 21.3203 18.195 21.4249 18.3696C21.5504 18.5773 22.0507 18.3679 22.0507 18.3679Z" />
        <path d="M61.2322 20.7748C61.018 20.272 60.9986 19.7885 60.9986 19.131V17.0424C60.9986 15.6307 60.6482 14.6058 59.5774 14.161C60.5314 13.7162 60.9791 12.8073 60.9791 11.4149V10.3512C60.9791 8.26267 60.0252 7.23773 57.806 7.23773H54.5745V20.7748H56.7158V15.2633H57.4556C58.4289 15.2633 58.8572 15.7274 58.8572 16.9845V19.1117C58.8572 20.214 58.9351 20.4267 59.0519 20.7748H61.2322ZM57.7476 9.17159C58.5068 9.17159 58.8377 9.59704 58.8377 10.564V11.8983C58.8377 12.9813 58.351 13.3294 57.5529 13.3294H56.7158V9.17159H57.7476Z" />
        <path d="M62.4069 20.7748H64.5483V7.23773H62.4069V20.7748Z" />
        <path d="M67.7102 7.23773H65.5494L67.6518 20.7748H70.8444L72.9469 7.23773H70.9807L69.3455 18.2801L67.7102 7.23773Z" />
        <path d="M76.0877 9.17159H79.7865V7.23773H73.9464V20.7748H79.7865V18.8409H76.0877V14.8765H79.0273V12.9426H76.0877V9.17159Z" />
        <path d="M87.7711 20.7748C87.557 20.272 87.5375 19.7885 87.5375 19.131V17.0424C87.5375 15.6307 87.1871 14.6058 86.1164 14.161C87.0702 13.7162 87.5181 12.8073 87.5181 11.4149V10.3512C87.5181 8.26267 86.5641 7.23773 84.3449 7.23773H81.1134V20.7748H83.2548V15.2633H83.9945C84.9678 15.2633 85.3961 15.7274 85.3961 16.9845V19.1117C85.3961 20.214 85.4739 20.4267 85.5908 20.7748H87.7711ZM84.2865 9.17159C85.0457 9.17159 85.3766 9.59704 85.3766 10.564V11.8983C85.3766 12.9813 84.89 13.3294 84.0918 13.3294H83.2548V9.17159H84.2865Z" />
        <path d="M88.6732 10.4866C88.6732 14.3543 92.8587 14.8765 92.8587 17.6613C92.8587 18.6282 92.4304 18.9763 91.749 18.9763C91.0677 18.9763 90.6394 18.6282 90.6394 17.6613V16.6944H88.6149V17.5259C88.6149 19.6918 89.705 20.9295 91.8074 20.9295C93.9098 20.9295 95 19.6918 95 17.5259C95 13.6582 90.8147 13.1361 90.8147 10.3512C90.8147 9.38432 91.2039 9.01688 91.8853 9.01688C92.5666 9.01688 92.956 9.38432 92.956 10.3512V10.9121H94.9805V10.4866C94.9805 8.32069 93.9098 7.08301 91.8269 7.08301C89.744 7.08301 88.6732 8.32069 88.6732 10.4866Z" />
        <path d="M60.6923 37.8166H63.5828L65.1272 24.2795H63.2264L62.098 35.0318L61.009 24.2795H58.9103L57.8611 34.9545L56.6929 24.2795H54.5745L56.1187 37.8166H59.1083L59.9003 30.6033L60.6923 37.8166Z" />
        <path d="M68.2252 27.393C68.2252 26.4261 68.6606 26.0586 69.3536 26.0586C70.0466 26.0586 70.4821 26.4261 70.4821 27.393V34.703C70.4821 35.67 70.0466 36.0374 69.3536 36.0374C68.6606 36.0374 68.2252 35.67 68.2252 34.703V27.393ZM66.0472 34.5676C66.0472 36.7336 67.2154 37.9713 69.3536 37.9713C71.4918 37.9713 72.66 36.7336 72.66 34.5676V27.5284C72.66 25.3624 71.4918 24.1247 69.3536 24.1247C67.2154 24.1247 66.0472 25.3624 66.0472 27.5284V34.5676Z" />
        <path d="M76.0749 27.393C76.0749 26.4261 76.5105 26.0586 77.2035 26.0586C77.8964 26.0586 78.332 26.4261 78.332 27.393V34.703C78.332 35.67 77.8964 36.0374 77.2035 36.0374C76.5105 36.0374 76.0749 35.67 76.0749 34.703V27.393ZM73.8971 34.5676C73.8971 36.7336 75.0653 37.9713 77.2035 37.9713C79.3417 37.9713 80.5098 36.7336 80.5098 34.5676V27.5284C80.5098 25.3624 79.3417 24.1247 77.2035 24.1247C75.0653 24.1247 73.8971 25.3624 73.8971 27.5284V34.5676Z" />
        <path d="M81.9251 37.8166H85.37C87.5479 37.8166 88.617 36.6369 88.617 34.471V27.6251C88.617 25.4592 87.5479 24.2795 85.37 24.2795H81.9251V37.8166ZM85.3304 26.2133C86.0234 26.2133 86.4392 26.5615 86.4392 27.5284V34.5676C86.4392 35.5346 86.0234 35.8827 85.3304 35.8827H84.103V26.2133H85.3304Z" />
    </symbol> 
</svg>
