<svg width="404" height="526" viewBox="0 0 404 526" fill="none" xmlns="http://www.w3.org/2000/svg">
<path d="M185.244 435.079C187.935 436.534 191.076 436.534 193.767 435.079C219.201 421.334 349.857 345.44 349.857 236.882V103.31C349.857 99.2587 347.344 95.6327 343.551 94.2103L192.918 37.723C190.718 36.898 188.294 36.8979 186.094 37.723L35.4607 94.2103C31.6677 95.6327 29.1548 99.2588 29.1548 103.31V236.882C29.1548 345.44 159.81 421.334 185.244 435.079Z" fill="url(#paint0_linear_92_23838)"/>
<path d="M185.261 471.542C187.957 472.988 191.055 472.988 193.75 471.542C221.768 456.505 379.012 366.349 379.012 236.882V77.7994C379.012 73.7484 376.499 70.1223 372.706 68.6999L192.918 1.27962C190.718 0.454593 188.294 0.454589 186.094 1.27961L6.30594 68.6999C2.51288 70.1223 0 73.7484 0 77.7994V236.882C0 366.349 157.244 456.505 185.261 471.542Z" fill="url(#paint1_linear_92_23838)"/>
<path d="M185.287 398.646C187.973 400.11 191.039 400.11 193.725 398.646C216.185 386.402 320.702 324.707 320.702 236.882V128.82C320.702 124.769 318.189 121.143 314.396 119.721L192.918 74.1665C190.718 73.3414 188.294 73.3414 186.094 74.1665L64.6155 119.721C60.8224 121.143 58.3096 124.769 58.3096 128.82V236.882C58.3096 324.707 162.826 386.402 185.287 398.646Z" fill="url(#paint2_linear_92_23838)"/>
<path d="M304.303 394.804C310.536 416.125 317.058 434.892 350.465 445.217C384.041 455.595 403.308 466.476 399.663 474.372C396.019 482.268 371.723 490.772 311.592 488.342C265.43 488.342 286.876 489.559 255.712 488.949" stroke="url(#paint3_linear_92_23838)" stroke-width="6.0739"/>
<path d="M285.474 315.236C285.474 315.236 293.37 354.716 298.837 375.975C304.303 397.234 309.394 417.385 332.85 424.566C362.613 433.677 393.954 440.115 388.123 456.15C382.292 472.186 331.028 482.673 306.125 485.913C271.504 490.416 243.564 488.949 216.231 488.342" stroke="url(#paint4_linear_92_23838)" stroke-width="6.0739"/>
<rect x="198.01" y="482.268" width="8.50346" height="3.64434" rx="1.82217" fill="#728FF4"/>
<rect x="198.01" y="490.772" width="8.50346" height="3.64434" rx="1.82217" fill="#728FF4"/>
<path d="M208.943 480.446C208.943 480.111 208.671 479.839 208.335 479.839H205.298C204.627 479.839 204.083 480.383 204.083 481.054V495.631C204.083 496.302 204.627 496.846 205.298 496.846H208.335C208.671 496.846 208.943 496.574 208.943 496.238C208.943 495.903 209.215 495.631 209.55 495.631C210.312 495.631 210.682 495.631 211.372 495.631C215.397 495.631 218.661 492.367 218.661 488.342C218.661 484.317 215.397 481.054 211.372 481.054C210.682 481.054 210.312 481.054 209.55 481.054C209.215 481.054 208.943 480.782 208.943 480.446Z" fill="#3B5CD2"/>
<path d="M137.999 253.069V239.561H108.553V234.702L137.222 185.042H148.398V230.037H156.464V239.561H148.398V253.069H137.999ZM121.478 230.037H137.999V200.299L121.478 230.037Z" fill="white"/>
<path d="M170.509 244.712C166.233 238.557 164.095 230.005 164.095 219.055C164.095 208.106 166.233 199.587 170.509 193.496C174.785 187.342 180.843 184.264 188.682 184.264C196.521 184.264 202.579 187.342 206.855 193.496C211.131 199.587 213.269 208.106 213.269 219.055C213.269 230.005 211.131 238.557 206.855 244.712C202.579 250.802 196.521 253.847 188.682 253.847C180.843 253.847 174.785 250.802 170.509 244.712ZM199.275 237.812C201.737 233.406 202.968 227.154 202.968 219.055C202.968 210.957 201.737 204.737 199.275 200.396C196.878 195.991 193.347 193.788 188.682 193.788C184.017 193.788 180.454 195.991 177.992 200.396C175.595 204.737 174.396 210.957 174.396 219.055C174.396 227.154 175.595 233.406 177.992 237.812C180.454 242.153 184.017 244.323 188.682 244.323C193.347 244.323 196.878 242.153 199.275 237.812Z" fill="white"/>
<path d="M251.79 253.069V239.561H222.344V234.702L251.012 185.042H262.188V230.037H270.254V239.561H262.188V253.069H251.79ZM235.269 230.037H251.79V200.299L235.269 230.037Z" fill="white"/>
<defs>
<linearGradient id="paint0_linear_92_23838" x1="129.374" y1="51.6281" x2="313.413" y2="422.136" gradientUnits="userSpaceOnUse">
<stop stop-color="#385AD1" stop-opacity="0.15"/>
<stop offset="1" stop-color="#738FF4" stop-opacity="0"/>
</linearGradient>
<linearGradient id="paint1_linear_92_23838" x1="140.307" y1="-219.875" x2="289.118" y2="487.127" gradientUnits="userSpaceOnUse">
<stop stop-color="#385AD1" stop-opacity="0.17"/>
<stop offset="1" stop-color="#738FF4" stop-opacity="0"/>
</linearGradient>
<linearGradient id="paint2_linear_92_23838" x1="58.3096" y1="116.012" x2="275.755" y2="348.642" gradientUnits="userSpaceOnUse">
<stop stop-color="#738FF4"/>
<stop offset="1" stop-color="#385AD1"/>
</linearGradient>
<linearGradient id="paint3_linear_92_23838" x1="437.929" y1="481.661" x2="210.159" y2="431.501" gradientUnits="userSpaceOnUse">
<stop stop-opacity="0"/>
<stop stop-opacity="0.107491"/>
<stop stop-opacity="0.14709"/>
<stop offset="0.118353" stop-opacity="0.1"/>
<stop offset="1" stop-opacity="0.2"/>
</linearGradient>
<linearGradient id="paint4_linear_92_23838" x1="262.393" y1="489.557" x2="333.42" y2="336.636" gradientUnits="userSpaceOnUse">
<stop stop-color="#738FF4"/>
<stop offset="1" stop-color="#385AD1"/>
</linearGradient>
</defs>
</svg>
