<svg width="109" height="82" viewBox="0 0 109 82" fill="none" xmlns="http://www.w3.org/2000/svg">
<path d="M44.6298 51.0933H4.96436V73.2275H44.6298V51.0933Z" fill="white"/>
<path d="M44.6294 73.4093H4.96393C4.94022 73.4093 4.91675 73.4046 4.8949 73.3954C4.87304 73.3863 4.85323 73.3728 4.83663 73.3559C4.82003 73.339 4.80698 73.3189 4.79823 73.2969C4.78948 73.2748 4.78521 73.2513 4.78568 73.2276V51.0934C4.78521 51.0697 4.78948 51.0461 4.79823 51.0241C4.80698 51.002 4.82003 50.982 4.83663 50.9651C4.85323 50.9481 4.87304 50.9347 4.8949 50.9255C4.91675 50.9163 4.94022 50.9116 4.96393 50.9116H44.6294C44.6531 50.9116 44.6766 50.9163 44.6984 50.9255C44.7203 50.9347 44.7401 50.9481 44.7567 50.9651C44.7733 50.982 44.7863 51.002 44.7951 51.0241C44.8038 51.0461 44.8081 51.0697 44.8076 51.0934V73.2276C44.8081 73.2513 44.8038 73.2748 44.7951 73.2969C44.7863 73.3189 44.7733 73.339 44.7567 73.3559C44.7401 73.3728 44.7203 73.3863 44.6984 73.3954C44.6766 73.4046 44.6531 73.4093 44.6294 73.4093V73.4093ZM5.13519 73.0598H44.4477V51.2716H5.14567L5.13519 73.0598Z" fill="#040047"/>
<path d="M17.1057 70.5644C15.5497 70.5644 14.0286 70.103 12.7348 69.2385C11.441 68.374 10.4326 67.1453 9.83715 65.7077C9.24169 64.2701 9.08589 62.6883 9.38945 61.1621C9.69302 59.636 10.4423 58.2342 11.5426 57.1339C12.6429 56.0336 14.0447 55.2843 15.5708 54.9808C17.0969 54.6772 18.6788 54.833 20.1164 55.4285C21.554 56.0239 22.7827 57.0323 23.6472 58.3261C24.5116 59.6199 24.9731 61.141 24.9731 62.697C24.9712 64.783 24.1417 66.783 22.6667 68.258C21.1917 69.733 19.1917 70.5625 17.1057 70.5644V70.5644ZM17.1057 55.1861C15.6188 55.1861 14.1653 55.627 12.929 56.4531C11.6927 57.2792 10.7291 58.4533 10.1601 59.827C9.59104 61.2007 9.44217 62.7123 9.73224 64.1706C10.0223 65.629 10.7383 66.9685 11.7897 68.0199C12.8411 69.0713 14.1807 69.7873 15.639 70.0774C17.0973 70.3675 18.6089 70.2186 19.9826 69.6496C21.3564 69.0806 22.5305 68.117 23.3566 66.8807C24.1826 65.6444 24.6236 64.1909 24.6236 62.704C24.6236 60.7095 23.8317 58.7965 22.422 57.3856C21.0124 55.9746 19.1002 55.181 17.1057 55.1791V55.1861Z" fill="#D1D3D4"/>
<path d="M22.0657 68.7469C22.0407 68.7466 22.016 68.7412 21.9931 68.731C21.9703 68.7208 21.9498 68.706 21.9329 68.6874L16.9769 62.8087C16.952 62.7768 16.9385 62.7374 16.9385 62.6969V55.0078C16.9385 54.9614 16.9569 54.917 16.9897 54.8842C17.0224 54.8514 17.0669 54.833 17.1132 54.833C17.1593 54.8339 17.2032 54.8526 17.2358 54.8852C17.2684 54.9178 17.2871 54.9617 17.288 55.0078V62.6375L22.2195 68.4603C22.2483 68.4965 22.2621 68.5424 22.2582 68.5885C22.2543 68.6346 22.233 68.6775 22.1985 68.7084C22.1801 68.7233 22.1588 68.7344 22.136 68.741C22.1132 68.7476 22.0893 68.7496 22.0657 68.7469V68.7469Z" fill="#D1D3D4"/>
<path d="M41.9177 57.3983H28.3359C28.2895 57.3983 28.2451 57.3799 28.2123 57.3471C28.1795 57.3144 28.1611 57.2699 28.1611 57.2236C28.1611 57.1772 28.1795 57.1328 28.2123 57.1C28.2451 57.0672 28.2895 57.0488 28.3359 57.0488H41.9177C41.964 57.0488 42.0085 57.0672 42.0413 57.1C42.074 57.1328 42.0925 57.1772 42.0925 57.2236C42.0925 57.2699 42.074 57.3144 42.0413 57.3471C42.0085 57.3799 41.964 57.3983 41.9177 57.3983Z" fill="#D1D3D4"/>
<path d="M41.9177 60.7431H28.3359C28.2895 60.7431 28.2451 60.7247 28.2123 60.6919C28.1795 60.6591 28.1611 60.6147 28.1611 60.5683C28.162 60.5222 28.1807 60.4783 28.2133 60.4457C28.2459 60.4132 28.2898 60.3944 28.3359 60.3936H41.9177C41.9638 60.3944 42.0077 60.4132 42.0403 60.4457C42.0729 60.4783 42.0916 60.5222 42.0925 60.5683C42.0925 60.6147 42.074 60.6591 42.0413 60.6919C42.0085 60.7247 41.964 60.7431 41.9177 60.7431Z" fill="#D1D3D4"/>
<path d="M41.9177 64.0914H28.3359C28.2898 64.0906 28.2459 64.0719 28.2133 64.0393C28.1807 64.0067 28.162 63.9628 28.1611 63.9167C28.1611 63.8703 28.1795 63.8259 28.2123 63.7931C28.2451 63.7604 28.2895 63.7419 28.3359 63.7419H41.9177C41.964 63.7419 42.0085 63.7604 42.0413 63.7931C42.074 63.8259 42.0925 63.8703 42.0925 63.9167C42.0916 63.9628 42.0729 64.0067 42.0403 64.0393C42.0077 64.0719 41.9638 64.0906 41.9177 64.0914V64.0914Z" fill="#D1D3D4"/>
<path d="M35.1268 67.4362H28.3359C28.2895 67.4362 28.2451 67.4178 28.2123 67.385C28.1795 67.3522 28.1611 67.3078 28.1611 67.2614C28.1611 67.2151 28.1795 67.1706 28.2123 67.1379C28.2451 67.1051 28.2895 67.0867 28.3359 67.0867H35.1268C35.1731 67.0867 35.2176 67.1051 35.2504 67.1379C35.2831 67.1706 35.3015 67.2151 35.3015 67.2614C35.3015 67.3078 35.2831 67.3522 35.2504 67.385C35.2176 67.4178 35.1731 67.4362 35.1268 67.4362Z" fill="#D1D3D4"/>
<path d="M44.5276 0.446289H0.199707V41.9082H44.5276V0.446289Z" fill="white"/>
<path d="M44.5281 42.0865H0.200255C0.17655 42.0865 0.153082 42.0818 0.131225 42.0726C0.109368 42.0634 0.0895599 42.05 0.0729615 42.0331C0.0563631 42.0161 0.0433077 41.9961 0.0345582 41.974C0.0258088 41.952 0.0215421 41.9285 0.0220069 41.9048V0.44981C0.0215421 0.426109 0.0258088 0.402554 0.0345582 0.380523C0.0433077 0.358492 0.0563631 0.338427 0.0729615 0.321503C0.0895599 0.30458 0.109368 0.291137 0.131225 0.281962C0.153082 0.272786 0.17655 0.268062 0.200255 0.268066H44.5281C44.5763 0.268066 44.6226 0.287215 44.6566 0.321298C44.6907 0.355382 44.7099 0.401609 44.7099 0.44981V41.9048C44.7099 41.953 44.6907 41.9992 44.6566 42.0333C44.6226 42.0673 44.5763 42.0865 44.5281 42.0865V42.0865ZM0.381998 41.737H44.3499V0.624563H0.381998V41.737Z" fill="#040047"/>
<path d="M41.131 38.8954H3.60102C3.55468 38.8954 3.51023 38.877 3.47745 38.8442C3.44468 38.8114 3.42627 38.767 3.42627 38.7206V6.19209C3.42627 6.14574 3.44468 6.10129 3.47745 6.06852C3.51023 6.03575 3.55468 6.01733 3.60102 6.01733C3.64737 6.01733 3.69182 6.03575 3.72459 6.06852C3.75736 6.10129 3.77578 6.14574 3.77578 6.19209V38.5459H41.131C41.1771 38.5468 41.221 38.5655 41.2536 38.5981C41.2862 38.6306 41.3049 38.6746 41.3058 38.7206C41.3058 38.767 41.2873 38.8114 41.2546 38.8442C41.2218 38.877 41.1774 38.8954 41.131 38.8954Z" fill="#D1D3D4"/>
<path d="M3.60095 38.8956C3.56478 38.8954 3.52949 38.8845 3.49959 38.8642C3.46241 38.8375 3.43719 38.7972 3.42934 38.7522C3.4215 38.7071 3.43166 38.6607 3.45765 38.623L16.4348 20.0712C16.4574 20.0384 16.4905 20.0143 16.5286 20.0028C16.5667 19.9914 16.6076 19.9933 16.6445 20.0083L27.6295 24.6078L38.272 10.1837C38.2998 10.1466 38.3412 10.1221 38.3871 10.1155C38.4098 10.1123 38.4329 10.1135 38.4551 10.1192C38.4774 10.1249 38.4983 10.135 38.5166 10.1487C38.535 10.1625 38.5504 10.1797 38.5621 10.1995C38.5738 10.2192 38.5815 10.2411 38.5848 10.2638C38.588 10.2865 38.5868 10.3097 38.5811 10.3319C38.5754 10.3541 38.5653 10.375 38.5516 10.3934L27.8287 24.9154C27.8052 24.947 27.7717 24.9697 27.7336 24.9798C27.6955 24.99 27.6552 24.987 27.619 24.9713L16.627 20.3718L3.73026 38.8222C3.71561 38.8434 3.69637 38.861 3.67399 38.8737C3.6516 38.8864 3.62663 38.8939 3.60095 38.8956Z" fill="#D1D3D4"/>
<path d="M96.832 41.9221L98.7823 36.3475C98.7823 36.3475 97.5765 33.499 97.8071 31.9018C98.0378 30.3045 98.7823 27.4281 99.4324 27.7077C100.082 27.9873 99.712 29.284 100.177 31.423C100.177 31.423 103.892 24.639 104.916 24.8243C105.94 25.0095 105.751 25.7959 105.472 26.2852C105.472 26.2852 106.587 25.3381 106.961 25.9881C107.066 26.1886 107.121 26.4117 107.121 26.6382C107.121 26.8647 107.066 27.0878 106.961 27.2883C106.961 27.2883 107.751 26.4041 108.027 27.0087C108.303 27.6133 107.796 28.3578 107.796 28.3578C107.796 28.3578 108.726 27.4735 108.817 28.2634C108.907 29.0533 101.711 44.5225 101.711 44.5225" fill="white"/>
<path d="M101.711 44.7043C101.684 44.7039 101.658 44.698 101.634 44.6868C101.613 44.677 101.593 44.6631 101.577 44.6458C101.561 44.6286 101.549 44.6083 101.541 44.5862C101.533 44.5641 101.529 44.5406 101.53 44.5171C101.531 44.4936 101.537 44.4705 101.547 44.4491C104.402 38.3118 108.649 28.9415 108.638 28.281C108.638 28.1936 108.603 28.1307 108.572 28.1202C108.46 28.0783 108.138 28.281 107.918 28.4697C107.885 28.4981 107.843 28.5137 107.8 28.5137C107.756 28.5137 107.714 28.4982 107.681 28.4698C107.648 28.4415 107.627 28.4023 107.62 28.3593C107.614 28.3163 107.623 28.2724 107.646 28.2355C107.646 28.2355 108.097 27.568 107.862 27.0682C107.82 26.9703 107.775 26.9633 107.758 26.9633C107.593 26.9389 107.261 27.2045 107.093 27.3897C107.064 27.4233 107.023 27.4447 106.978 27.4499C106.934 27.4551 106.889 27.4436 106.852 27.4177C106.817 27.3906 106.792 27.3516 106.783 27.308C106.774 27.2643 106.782 27.2189 106.803 27.18C106.894 27.007 106.942 26.8145 106.942 26.6191C106.942 26.4236 106.894 26.2311 106.803 26.0581C106.786 26.0241 106.761 25.9947 106.73 25.9723C106.699 25.9498 106.663 25.9349 106.625 25.9288C106.342 25.8799 105.839 26.1944 105.577 26.4076C105.544 26.4346 105.502 26.4493 105.46 26.4493C105.417 26.4493 105.375 26.4346 105.342 26.4076C105.31 26.3805 105.288 26.343 105.281 26.3016C105.273 26.2601 105.28 26.2173 105.3 26.1804C105.385 26.0572 105.442 25.9174 105.468 25.7703C105.494 25.6232 105.488 25.4723 105.451 25.3277C105.389 25.2268 105.303 25.1424 105.202 25.0816C105.1 25.0207 104.985 24.9853 104.867 24.9781H104.843C104.252 24.9781 102.047 28.3229 100.32 31.486C100.303 31.5184 100.276 31.5446 100.243 31.5612C100.21 31.5777 100.173 31.5837 100.137 31.5784C100.1 31.573 100.067 31.5566 100.04 31.5313C100.013 31.506 99.9952 31.473 99.988 31.437C99.832 30.6933 99.7362 29.9383 99.7014 29.1792C99.6525 28.3823 99.6105 27.9594 99.3519 27.8476C99.3519 27.8476 99.3274 27.8476 99.289 27.8476C98.8381 28.0992 98.223 30.1928 97.9748 31.8949C97.7511 33.4187 98.9255 36.2148 98.9395 36.2427C98.9553 36.2844 98.9553 36.3304 98.9395 36.3721L96.9892 41.9642C96.9735 42.0105 96.9399 42.0487 96.896 42.0703C96.8521 42.0919 96.8014 42.0952 96.755 42.0795C96.7087 42.0637 96.6705 42.0302 96.6489 41.9863C96.6272 41.9424 96.6239 41.8917 96.6397 41.8453L98.569 36.3336C98.3837 35.8897 97.3877 33.3698 97.6078 31.8599C97.7861 30.6262 98.3907 27.9489 99.1037 27.5505C99.1605 27.516 99.2246 27.4955 99.2908 27.4906C99.3571 27.4858 99.4235 27.4967 99.4847 27.5226C99.9635 27.7288 99.9985 28.2985 100.054 29.1652C100.085 29.7414 100.147 30.3154 100.24 30.8848C101.33 28.9206 103.941 24.4539 104.927 24.6321C105.102 24.6448 105.271 24.7014 105.419 24.7966C105.567 24.8919 105.688 25.0228 105.772 25.1774C105.855 25.3703 105.874 25.5843 105.828 25.789C106.075 25.6268 106.369 25.5506 106.664 25.5723C106.754 25.5874 106.84 25.623 106.914 25.6763C106.989 25.7296 107.05 25.7992 107.093 25.8799C107.245 26.1419 107.31 26.4454 107.279 26.7466C107.427 26.6412 107.608 26.5916 107.789 26.6068C107.874 26.6201 107.954 26.6556 108.021 26.7095C108.088 26.7635 108.139 26.8342 108.17 26.9144C108.29 27.202 108.304 27.5229 108.208 27.8196C108.35 27.7404 108.517 27.7203 108.673 27.7637C108.764 27.8022 108.841 27.8665 108.895 27.9485C108.949 28.0306 108.978 28.1268 108.977 28.2251C109.068 29.0254 103.057 41.9921 101.851 44.582C101.841 44.6134 101.823 44.6416 101.799 44.6632C101.774 44.6849 101.743 44.6991 101.711 44.7043Z" fill="#040047"/>
<path d="M60.9098 63.6545C60.9098 63.6545 56.0657 78.0892 55.6113 81.8289H88.444C88.444 81.8289 85.5361 68.9845 83.8794 64.2732L60.9098 63.6545Z" fill="#040047"/>
<path d="M88.4436 82.0002H55.611C55.5864 82.0004 55.562 81.9951 55.5397 81.9849C55.5173 81.9746 55.4975 81.9596 55.4816 81.9408C55.4652 81.9223 55.4527 81.9007 55.4449 81.8773C55.4371 81.8539 55.4341 81.8291 55.4362 81.8045C55.8906 78.0927 60.546 64.1894 60.7452 63.5987C60.7553 63.5634 60.777 63.5325 60.8068 63.5109C60.8366 63.4894 60.8727 63.4784 60.9095 63.4799V63.4799L83.8825 64.095C83.9174 64.0959 83.9511 64.1075 83.9792 64.1281C84.0073 64.1487 84.0284 64.1774 84.0398 64.2103C85.679 68.8797 88.5834 81.6577 88.6113 81.787C88.6165 81.8126 88.6159 81.839 88.6097 81.8643C88.6035 81.8896 88.5918 81.9133 88.5755 81.9336C88.5592 81.9539 88.5386 81.9704 88.5152 81.9819C88.4918 81.9935 88.4662 81.9997 88.4401 82.0002H88.4436ZM55.8102 81.6507H88.2269C87.8424 79.9731 85.277 68.8378 83.7567 64.4375L61.0388 63.8294C60.5704 65.2169 56.3624 77.89 55.8102 81.6507Z" fill="#040047"/>
<path d="M33.3403 49.7302C33.3403 49.7302 30.6211 45.7843 28.9015 43.9599C27.182 42.1355 21.2124 32.2305 22.5615 31.147C22.8656 30.9023 23.4947 31.7761 23.61 31.9054C24.1378 32.4681 25.2072 33.8801 25.707 34.4638C25.9762 34.7749 25.3261 35.3376 25.5952 35.6486C25.7979 35.8828 26.0635 36.0191 26.2558 36.2533C26.7045 36.7335 27.2361 37.1289 27.825 37.4206L29.8137 38.5635C29.4779 37.2933 29.2615 35.9945 29.1672 34.684C29.1241 34.3485 29.1467 34.0078 29.2336 33.6809C29.2799 33.5178 29.3693 33.3701 29.4922 33.2533C29.6152 33.1365 29.7673 33.0548 29.9326 33.0168C30.0947 33.0039 30.2576 33.032 30.406 33.0986C30.5544 33.1651 30.6837 33.2681 30.7819 33.3978C30.9731 33.6619 31.1217 33.9544 31.2222 34.2646C32.1729 36.7566 33.501 39.0563 34.5461 41.4889C35.3744 43.4042 36.1608 45.4628 37.3771 47.1788L33.3403 49.7302Z" fill="white"/>
<path d="M33.3436 49.9016C33.3138 49.9018 33.2845 49.8945 33.2582 49.8805C33.232 49.8665 33.2096 49.8461 33.1933 49.8212C33.1653 49.7827 30.4637 45.8648 28.7686 44.0718C27.0734 42.2788 22.0266 33.9361 22.1873 31.5909C22.1871 31.4791 22.2103 31.3684 22.2554 31.2661C22.3006 31.1637 22.3667 31.072 22.4495 30.9968C22.8444 30.6787 23.3792 31.3288 23.6693 31.6783C23.7042 31.7203 23.7287 31.7552 23.7461 31.7727C24.0642 32.1222 24.5535 32.7233 25.0288 33.3175C25.3504 33.7194 25.651 34.0969 25.8572 34.3346C26.0634 34.5722 25.9341 34.8763 25.8292 35.1175C25.7244 35.3586 25.6894 35.467 25.7453 35.5194C25.8374 35.6212 25.9392 35.7136 26.0494 35.7955C26.1774 35.8999 26.2945 36.017 26.3989 36.145C26.8334 36.6075 27.3471 36.9886 27.9158 37.2704L29.5584 38.1966C29.2781 37.049 29.0946 35.8799 29.0097 34.7015C28.9652 34.3411 28.9913 33.9755 29.0866 33.6251C29.137 33.433 29.2409 33.2592 29.3862 33.1239C29.5315 32.9886 29.7123 32.8973 29.9074 32.8607C30.1026 32.8241 30.3041 32.8437 30.4886 32.9171C30.673 32.9905 30.8329 33.1148 30.9495 33.2756C31.1487 33.5463 31.3033 33.8472 31.4073 34.1668C31.963 35.6242 32.6481 37.0188 33.3086 38.3609C33.7944 39.35 34.2977 40.3705 34.7416 41.4016C34.8639 41.6847 34.9828 41.9713 35.0911 42.2579C35.7901 43.9075 36.5136 45.6131 37.5377 47.0601C37.5515 47.0803 37.5611 47.1031 37.5659 47.1271C37.5707 47.1512 37.5706 47.1759 37.5656 47.1999C37.5618 47.2239 37.5526 47.2468 37.5387 47.2668C37.5248 47.2868 37.5065 47.3033 37.4852 47.3152L33.4345 49.8701C33.4073 49.888 33.376 49.8988 33.3436 49.9016V49.9016ZM22.6941 31.2729H22.6732C22.5866 31.3681 22.5413 31.4938 22.5473 31.6224C22.3971 33.8348 27.4579 42.16 29.0307 43.8306C30.558 45.4489 32.8752 48.7587 33.3925 49.4822L37.1392 47.123C36.1466 45.6795 35.4441 44.0194 34.7626 42.4082C34.6403 42.1216 34.5214 41.8385 34.4131 41.5554C33.9727 40.5348 33.4729 39.5142 32.9906 38.5286C32.323 37.1726 31.638 35.771 31.0823 34.3346C30.9902 34.0431 30.8522 33.7681 30.6734 33.5202C30.594 33.4116 30.488 33.3253 30.3655 33.2696C30.2431 33.2139 30.1084 33.1907 29.9743 33.2022C29.841 33.2338 29.7187 33.3009 29.6203 33.3962C29.5219 33.4915 29.451 33.6117 29.4151 33.7439C29.3351 34.0494 29.3149 34.3674 29.3557 34.6806C29.4506 35.9792 29.6659 37.2663 29.9988 38.5251C30.0075 38.5596 30.0059 38.5959 29.9942 38.6295C29.9825 38.6631 29.9611 38.6925 29.9329 38.7141C29.9046 38.7357 29.8706 38.7485 29.8351 38.7509C29.7996 38.7534 29.7642 38.7454 29.7332 38.7279L27.7445 37.585C27.1378 37.2809 26.5898 36.8714 26.1263 36.3757C26.0339 36.2708 25.9309 36.1759 25.8187 36.0926C25.6938 35.9962 25.5769 35.8899 25.4692 35.7745C25.263 35.5334 25.3923 35.2328 25.4972 34.9916C25.602 34.7505 25.637 34.6421 25.5811 34.5862C25.3714 34.345 25.0673 33.9641 24.7422 33.5587C24.2949 32.9994 23.7881 32.3634 23.4805 32.0383C23.4596 32.0173 23.4281 31.9754 23.3862 31.923C22.9178 31.3358 22.7466 31.2729 22.6941 31.2729V31.2729Z" fill="#040047"/>
<path d="M30.7401 42.6212L31.9844 41.8173L17.2038 19.6516L16.6655 20.0011L30.7401 42.6212Z" fill="#040047"/>
<path d="M30.7404 42.7926H30.702C30.6571 42.7822 30.6182 42.7546 30.5936 42.7157L16.519 20.0922C16.496 20.0533 16.4886 20.0071 16.4983 19.963C16.5081 19.9189 16.5342 19.8801 16.5714 19.8545L17.1097 19.505C17.1482 19.4797 17.1951 19.4706 17.2403 19.4798C17.2855 19.489 17.3252 19.5156 17.3508 19.5539L32.1314 41.7196C32.1564 41.7586 32.1649 41.8058 32.1551 41.851C32.1452 41.8962 32.1179 41.9357 32.079 41.9608L30.8348 42.7646C30.8065 42.7825 30.7738 42.7921 30.7404 42.7926V42.7926ZM16.9034 20.0537L30.7963 42.3907L31.7435 41.7825L17.1551 19.8929L16.9034 20.0537Z" fill="#040047"/>
<path d="M29.6391 42.2228C29.3445 42.0127 29.1138 41.7252 28.9726 41.3921C28.8313 41.059 28.785 40.6933 28.8387 40.3355C28.9589 39.6222 29.2255 38.9415 29.6216 38.3363C30.0208 37.7346 30.3294 37.0775 30.5373 36.386C30.6107 36.0715 30.6037 35.687 30.3276 35.5088C30.1958 35.4579 30.0524 35.4447 29.9136 35.4707C29.7747 35.4966 29.6458 35.5606 29.5412 35.6556C28.6115 36.3091 28.1991 37.473 27.8845 38.567L28.4123 36.6237C28.574 36.1222 28.6577 35.5988 28.6604 35.0719C28.6598 34.8087 28.5986 34.5492 28.4816 34.3135C28.3647 34.0777 28.195 33.872 27.9859 33.7123C27.8859 33.6359 27.762 33.5976 27.6364 33.604C27.4267 33.6249 27.2869 33.8311 27.196 34.0199C26.7477 34.9085 26.4838 35.8786 26.4201 36.8719L26.3747 33.7263C26.3916 33.4423 26.345 33.1582 26.2384 32.8945C26.1814 32.761 26.0821 32.65 25.9557 32.5786C25.8294 32.5072 25.6831 32.4794 25.5393 32.4995C25.1898 32.5729 25.05 32.9644 24.9766 33.3034C24.8548 33.8653 24.7869 34.4376 24.7739 35.0125" fill="white"/>
<path d="M29.6361 42.3905C29.6108 42.3962 29.5845 42.3962 29.5592 42.3905C29.2322 42.1661 28.9756 41.8535 28.8191 41.4892C28.6626 41.1248 28.6126 40.7235 28.6749 40.3319C28.7941 39.5927 29.0694 38.8874 29.4823 38.2628L29.5732 38.102C29.9234 37.561 30.1941 36.9725 30.377 36.3545C30.4364 36.0959 30.4365 35.7848 30.2477 35.6765C30.059 35.5681 29.7479 35.7499 29.6605 35.8128C28.7588 36.4454 28.3674 37.5988 28.0738 38.6088C28.06 38.6546 28.029 38.6933 27.9873 38.7168C27.9456 38.7402 27.8964 38.7466 27.8501 38.7347C27.8046 38.7216 27.7659 38.6913 27.7424 38.6501C27.7189 38.609 27.7124 38.5603 27.7243 38.5145L28.252 36.5677C28.4077 36.0853 28.4902 35.5822 28.4967 35.0753C28.4979 34.8397 28.4446 34.607 28.3409 34.3953C28.2372 34.1837 28.086 33.999 27.899 33.8555C27.838 33.8026 27.7596 33.774 27.6788 33.7752C27.581 33.7752 27.4866 33.8905 27.3818 34.0932C26.9439 34.9647 26.6871 35.9158 26.6268 36.8893C26.616 36.9272 26.5931 36.9606 26.5615 36.9844C26.53 37.0082 26.4916 37.0211 26.4521 37.0211C26.4126 37.0211 26.3742 37.0082 26.3426 36.9844C26.3111 36.9606 26.2882 36.9272 26.2773 36.8893L26.2284 33.7437C26.2448 33.4867 26.2055 33.2292 26.1131 32.9888C26.0729 32.8947 26.0047 32.8154 25.9177 32.7616C25.8308 32.7078 25.7293 32.6821 25.6272 32.6882C25.4315 32.7336 25.2777 32.9573 25.2043 33.3558C25.0844 33.9062 25.0165 34.4667 25.0016 35.0299C25.0012 35.0536 24.996 35.077 24.9864 35.0987C24.9768 35.1204 24.963 35.1399 24.9457 35.1562C24.9285 35.1725 24.9082 35.1851 24.8859 35.1935C24.8637 35.2018 24.8401 35.2056 24.8164 35.2046C24.793 35.2042 24.7699 35.1991 24.7484 35.1897C24.727 35.1804 24.7076 35.1669 24.6914 35.15C24.6751 35.1331 24.6624 35.1132 24.6539 35.0914C24.6453 35.0696 24.6412 35.0463 24.6416 35.0229C24.655 34.435 24.7252 33.8497 24.8513 33.2754C24.9702 32.7266 25.2008 32.4086 25.5504 32.3317C25.7312 32.3075 25.915 32.3424 26.0743 32.4312C26.2337 32.52 26.3601 32.658 26.4346 32.8245C26.5543 33.1131 26.6081 33.4247 26.5919 33.7367V35.0683C26.7157 34.6793 26.8699 34.3007 27.0532 33.9359C27.1005 33.8087 27.1786 33.6953 27.2804 33.6056C27.3823 33.5159 27.5047 33.4529 27.6369 33.4222C27.801 33.4152 27.9626 33.4645 28.0948 33.562C28.3273 33.7355 28.5172 33.9598 28.6498 34.2178C28.7825 34.4759 28.8544 34.7608 28.8602 35.0509C28.8665 35.4496 28.8171 35.8472 28.7134 36.2322C28.9207 35.9474 29.172 35.6972 29.4578 35.4912C29.5885 35.3735 29.7508 35.2965 29.9247 35.2698C30.0986 35.2431 30.2765 35.2678 30.4364 35.3409C30.737 35.5157 30.8489 35.9176 30.73 36.4139C30.5417 37.0661 30.2578 37.6868 29.8877 38.2558L29.7969 38.4131C29.4122 38.9953 29.1528 39.6511 29.0349 40.3389C28.9849 40.6614 29.0235 40.9915 29.1466 41.2938C29.2698 41.5961 29.4728 41.8592 29.7339 42.055C29.775 42.0797 29.8047 42.1196 29.8165 42.1661C29.8283 42.2126 29.8212 42.2618 29.7969 42.3031C29.7799 42.3304 29.7562 42.3527 29.728 42.368C29.6998 42.3834 29.6682 42.3911 29.6361 42.3905V42.3905Z" fill="#040047"/>
<path d="M86.8505 31.7341C86.8505 31.7341 89.6466 34.3974 90.377 35.5123C91.1075 36.6272 91.8065 50.1916 91.8065 50.1916L96.0286 39.972L103.113 42.7331C103.113 42.7331 98.7827 64.8254 94.2181 65.2902C89.6536 65.7551 80.832 57.1537 80.832 57.1537L86.8505 31.7341Z" fill="#FFE11B"/>
<path d="M66.1626 29.5078C66.1626 29.5078 58.0087 31.112 56.027 33.59C54.0453 36.068 60.0742 58.5378 60.1896 64.7311C60.1896 64.7311 74.2782 67.1951 83.8931 64.2697C83.8931 64.2697 87.2344 52.4214 88.0872 45.6096C88.94 38.7977 87.8425 32.8491 86.8499 31.7342C85.8573 30.6192 82.0512 29.8853 82.0512 29.8853C82.0512 29.8853 68.0255 29.8853 66.1626 29.5078Z" fill="#FFE11B"/>
<path d="M88.692 29.3261C88.8707 28.5321 88.9644 27.7213 88.9716 26.9075C88.9932 26.4226 88.9196 25.9382 88.7549 25.4815C88.1538 23.9892 86.1511 23.3146 85.8261 21.7383C85.5535 20.4137 86.0498 19.2498 85.7037 17.9706C85.3752 16.7509 85.0047 16.1707 85.1445 14.7028C85.3667 12.1031 84.9454 9.48876 83.9178 7.09052C82.9566 4.8362 81.597 3.80167 79.9509 2.09258C79.5622 1.71304 79.096 1.42211 78.5843 1.23978C74.226 -0.476291 69.4552 0.890279 67.2603 5.18921C66.0405 7.58332 65.5128 10.306 64.0868 12.5917C63.0907 14.1995 61.6402 15.6185 61.2698 17.4848C60.9377 19.124 61.5424 20.6793 61.1614 22.336C61.0492 22.8909 60.8359 23.4205 60.5323 23.8983C60.185 24.372 59.7799 24.8005 59.3265 25.174C58.2986 26.0344 57.3921 27.0303 56.6318 28.1343C56.3891 28.5177 56.1821 28.9225 56.0132 29.3436L88.692 29.3261Z" fill="white"/>
<path d="M88.6917 29.5078H56.0128C55.9836 29.5077 55.9548 29.5003 55.9292 29.4863C55.9035 29.4722 55.8818 29.452 55.866 29.4274C55.8489 29.4033 55.838 29.3754 55.8344 29.3461C55.8307 29.3169 55.8344 29.2871 55.8451 29.2596C56.0184 28.8284 56.2313 28.4142 56.4812 28.0224C57.2498 26.9049 58.1656 25.8962 59.2038 25.0236L59.2597 24.9712C59.6818 24.6234 60.0587 24.2242 60.3816 23.7828C60.6716 23.3222 60.8764 22.8131 60.9863 22.28C61.132 21.4724 61.1532 20.6474 61.0492 19.8334C60.9494 19.0315 60.9646 18.2194 61.0946 17.4218C61.3673 16.0797 62.1851 14.9543 62.975 13.8674C63.3035 13.42 63.639 12.9551 63.9326 12.4693C64.679 11.1653 65.2892 9.78803 65.7536 8.35913C66.1351 7.23889 66.5844 6.14291 67.0992 5.07727C69.2451 0.883195 73.9949 -0.787445 78.6329 1.04397C79.17 1.23377 79.6583 1.54057 80.0623 1.9422C80.3804 2.27073 80.688 2.5748 80.9815 2.8649C82.2118 4.08817 83.2743 5.14018 84.0642 6.99256C85.1029 9.41488 85.5302 12.0554 85.3084 14.6817C85.2222 15.5111 85.3324 16.3492 85.63 17.1282C85.7034 17.3624 85.7838 17.6141 85.8607 17.8972C86.007 18.5556 86.0366 19.2346 85.948 19.9033C85.8773 20.494 85.8903 21.0917 85.9865 21.6788C86.1473 22.4652 86.7694 23.0174 87.4264 23.6046C88.0066 24.1219 88.6113 24.6531 88.9048 25.3906C89.0755 25.869 89.1538 26.3754 89.1355 26.883C89.1274 27.7062 89.0325 28.5262 88.8524 29.3295C88.8519 29.3737 88.8352 29.4161 88.8057 29.449C88.7761 29.4818 88.7355 29.5027 88.6917 29.5078V29.5078ZM56.2854 29.1583H88.5484C88.7057 28.4229 88.7877 27.6734 88.793 26.9214C88.8107 26.4593 88.7408 25.9979 88.5868 25.5618C88.3247 24.9117 87.755 24.405 87.1888 23.9122C86.5177 23.3145 85.8222 22.6924 85.637 21.7907C85.5318 21.1716 85.5165 20.5407 85.5915 19.9173C85.6761 19.2885 85.6501 18.6498 85.5146 18.03C85.4412 17.7504 85.3644 17.5057 85.291 17.275C84.9763 16.4551 84.8566 15.5733 84.9414 14.6992C85.1603 12.1291 84.7426 9.5446 83.7252 7.17431C82.9632 5.38484 81.9776 4.40272 80.7229 3.16197C80.4258 2.86839 80.1183 2.56082 79.7967 2.22879C79.4257 1.86765 78.981 1.59104 78.4931 1.41794C74.0159 -0.329592 69.4548 1.24668 67.3962 5.27998C66.8891 6.33241 66.4456 7.41433 66.0681 8.51991C65.5961 9.97776 64.9754 11.3832 64.2157 12.714C63.9152 13.1963 63.5726 13.6681 63.2406 14.112C62.4402 15.2164 61.6783 16.258 61.4232 17.5232C61.3002 18.2887 61.2872 19.0678 61.3847 19.8369C61.4923 20.6837 61.4675 21.5421 61.3113 22.3813C61.1946 22.9574 60.9731 23.507 60.6578 24.003C60.3187 24.4706 59.9217 24.8934 59.4764 25.2613L59.4205 25.3102C58.4074 26.1623 57.5128 27.1461 56.7608 28.2356C56.5809 28.5268 56.4221 28.8305 56.2854 29.1443V29.1583Z" fill="#040047"/>
<path d="M78.2734 28.3053C78.2734 28.3053 79.3778 44.0052 73.8731 42.9531C66.5614 41.3943 69.8887 30.3709 69.8887 30.3709L70.0075 28.3088L70.2871 23.5136L70.5493 19.0329L78.2384 18.9456L78.5355 22.6049L78.6264 23.7932L78.2734 28.3053Z" fill="white"/>
<path d="M74.3863 43.1839C74.2034 43.1833 74.0208 43.1658 73.8411 43.1315C73.0572 42.9906 72.3129 42.6823 71.6591 42.2275C71.0053 41.7727 70.4572 41.1821 70.0525 40.4962C67.8646 36.7915 69.5701 30.8009 69.703 30.3361L70.36 19.0156C70.3627 18.9701 70.3827 18.9274 70.4158 18.8962C70.4489 18.8651 70.4928 18.8477 70.5383 18.8478L78.2274 18.7639C78.2727 18.7637 78.3165 18.7804 78.3501 18.8108C78.3837 18.8412 78.4048 18.8831 78.4092 18.9282L78.7936 23.7758L78.4441 28.3194C78.4895 28.9485 79.1816 39.7623 76.0535 42.5443C75.5964 42.957 75.0022 43.185 74.3863 43.1839V43.1839ZM70.72 19.2078L70.0664 30.392C70.0681 30.4059 70.0681 30.42 70.0664 30.4339C70.0664 30.4933 68.221 36.6901 70.3705 40.3285C70.7506 40.9695 71.2641 41.5213 71.8762 41.9464C72.4882 42.3716 73.1846 42.6601 73.918 42.7925C74.2547 42.8677 74.6047 42.8599 74.9377 42.7697C75.2708 42.6796 75.5769 42.5099 75.8298 42.2752C78.853 39.5875 78.1086 28.4417 78.1016 28.3299V28.3054L78.4511 23.7898L78.0701 19.1239L70.72 19.2078Z" fill="#040047"/>
<path d="M78.6225 23.7899C78.0167 24.8402 77.1576 25.7222 76.1235 26.3553C74.4809 27.4248 72.1601 28.3754 70.147 28.0469L70.2868 23.5033C71.7573 23.7024 73.248 23.7024 74.7185 23.5033C76.0152 23.36 77.3468 23.1992 78.5316 22.6121L78.6225 23.7899Z" fill="#040047"/>
<path d="M70.9683 28.2846C70.6839 28.2859 70.3998 28.2637 70.119 28.2182C70.0777 28.2106 70.0405 28.1885 70.0141 28.1558C69.9878 28.123 69.9742 28.0819 69.9757 28.0399L70.112 23.4963C70.1125 23.4715 70.1184 23.4471 70.1292 23.4248C70.1401 23.4024 70.1557 23.3827 70.1749 23.367C70.1937 23.3515 70.2155 23.34 70.239 23.3334C70.2625 23.3268 70.2871 23.3251 70.3112 23.3286C71.7664 23.5302 73.2424 23.5302 74.6975 23.3286C75.8998 23.1958 77.2629 23.042 78.4547 22.4548C78.4799 22.4411 78.5082 22.4338 78.5369 22.4338C78.5656 22.4338 78.5938 22.4411 78.619 22.4548C78.6431 22.4692 78.6635 22.4891 78.6787 22.5127C78.6939 22.5364 78.7033 22.5632 78.7064 22.5911L78.7937 23.7794C78.7968 23.8119 78.7908 23.8446 78.7763 23.8738C78.1601 24.9536 77.2798 25.8592 76.2179 26.5056C74.4599 27.6485 72.5481 28.2846 70.9683 28.2846ZM70.3287 27.8966C71.9574 28.1063 74.0754 27.4842 76.0291 26.2085C77.0242 25.6054 77.854 24.7647 78.4442 23.762L78.3778 22.8777C77.193 23.4055 75.8928 23.5488 74.736 23.6781C73.3166 23.8762 71.8775 23.8903 70.4545 23.72L70.3287 27.8966Z" fill="#040047"/>
<path d="M74.7113 24.5903H73.9214C72.1325 24.6099 70.409 23.9192 69.1287 22.6697C67.8484 21.4202 67.116 19.714 67.092 17.9252C67.0676 15.7932 67.6757 11.7284 67.6757 11.7284C67.6757 11.7284 70.8003 10.5856 73.2468 9.67335C77.357 8.11805 78.4615 5.89868 78.4615 5.89868C78.5901 7.3739 78.9145 8.82544 79.4261 10.2151C79.8665 11.2287 81.261 13.0356 81.261 13.0356C81.261 13.0356 81.3798 16.3664 81.3973 17.7574C81.416 19.5499 80.7222 21.2765 79.4685 22.5577C78.2148 23.8389 76.5037 24.57 74.7113 24.5903V24.5903Z" fill="white"/>
<path d="M73.8486 24.7789C72.0236 24.7772 70.2726 24.0572 68.9743 22.7746C67.676 21.492 66.9348 19.7499 66.9109 17.9251C66.8864 15.8001 67.4911 11.7388 67.4981 11.6969C67.5035 11.6646 67.5173 11.6344 67.5382 11.6092C67.559 11.584 67.5862 11.5649 67.6169 11.5536C67.6483 11.5536 70.7624 10.4247 73.181 9.50897C77.1759 7.9991 78.2873 5.84615 78.2978 5.82517C78.3078 5.7796 78.3354 5.73978 78.3744 5.71428C78.4135 5.68877 78.4611 5.67961 78.5068 5.68876C78.5526 5.69792 78.5929 5.72465 78.6192 5.76323C78.6455 5.8018 78.6556 5.84914 78.6473 5.89508C78.7771 7.34948 79.0967 8.78063 79.598 10.1521C80.0279 11.1307 81.3979 12.9132 81.4119 12.9481C81.4337 12.9788 81.4459 13.0153 81.4468 13.053C81.4468 13.0844 81.5692 16.4012 81.5832 17.7818C81.6009 19.6207 80.8885 21.3915 79.6023 22.7058C78.3162 24.0202 76.5612 24.7708 74.7223 24.7929H73.936L73.8486 24.7789ZM67.8406 11.8472C67.7462 12.5007 67.2499 16.0063 67.2709 17.9111C67.2929 19.642 67.9953 21.2947 69.2262 22.5118C70.4571 23.729 72.1175 24.4128 73.8486 24.4154H73.922H74.7084C76.4505 24.3942 78.1132 23.6834 79.3323 22.4388C80.5515 21.1941 81.2276 19.517 81.2127 17.7748C81.2127 16.4991 81.0938 13.5598 81.0799 13.1124C80.3904 12.2368 79.7809 11.301 79.2589 10.3163C78.7967 9.07652 78.4846 7.7858 78.3293 6.47176C77.7805 7.21621 76.3615 8.72608 73.3069 9.87945C71.1504 10.6623 68.3963 11.634 67.8406 11.8507V11.8472Z" fill="#040047"/>
<path d="M73.8866 17.7469C73.5959 17.7485 73.3053 17.7333 73.0163 17.7014C72.9493 17.6937 72.885 17.6703 72.8285 17.6333C72.7721 17.5963 72.7251 17.5466 72.6913 17.4882C72.1845 16.6634 73.4637 13.1054 73.7398 12.3994C73.7565 12.3531 73.7909 12.3153 73.8355 12.2943C73.88 12.2733 73.9311 12.2709 73.9775 12.2876C74.0238 12.3043 74.0616 12.3387 74.0826 12.3833C74.1036 12.4278 74.106 12.4789 74.0893 12.5253C73.5091 14.0945 72.6913 16.7753 73.0408 17.2995C73.0617 17.3345 73.0827 17.3415 73.1002 17.3415C73.7374 17.407 74.3799 17.3999 75.0155 17.3205C75.0632 17.3145 75.1113 17.3278 75.1493 17.3572C75.1873 17.3867 75.2121 17.4301 75.2182 17.4778C75.2242 17.525 75.2115 17.5726 75.1827 17.6105C75.1539 17.6484 75.1115 17.6735 75.0644 17.6805C74.6736 17.7269 74.2802 17.7491 73.8866 17.7469Z" fill="#040047"/>
<path d="M77.3411 14.7719C77.5978 14.7691 77.8003 14.2536 77.7933 13.6205C77.7863 12.9874 77.5726 12.4764 77.3159 12.4793C77.0592 12.4821 76.8567 12.9976 76.8637 13.6307C76.8706 14.2638 77.0844 14.7747 77.3411 14.7719Z" fill="#040047"/>
<path d="M71.1844 14.6264C71.4411 14.6236 71.6435 14.108 71.6366 13.475C71.6296 12.8419 71.4159 12.3309 71.1592 12.3338C70.9024 12.3366 70.7 12.8521 70.7069 13.4852C70.7139 14.1183 70.9277 14.6292 71.1844 14.6264Z" fill="#040047"/>
<path d="M70.1542 28.3056C68.6933 27.5227 66.3901 28.69 66.1664 29.5079C65.9427 30.3257 66.8479 43.1911 70.1542 45.1728C71.5872 46.0325 74.1631 42.9534 74.1631 42.9534C74.1631 42.9534 70.4758 41.3422 70.1542 28.3056Z" fill="white"/>
<path d="M70.7163 45.5047C70.4853 45.5083 70.2579 45.4478 70.0592 45.33C66.7389 43.3378 65.7253 30.434 65.991 29.4624C66.1098 29.0325 66.69 28.5432 67.4379 28.2147C68.4585 27.7778 69.5035 27.7498 70.234 28.1448C70.2617 28.16 70.285 28.1821 70.3016 28.2091C70.3181 28.2361 70.3274 28.2669 70.3283 28.2985C70.6464 41.0695 74.1974 42.7716 74.2323 42.7891C74.2578 42.7998 74.2804 42.8165 74.298 42.8378C74.3157 42.8591 74.3279 42.8843 74.3337 42.9114C74.3406 42.9385 74.3411 42.9669 74.335 42.9942C74.3289 43.0215 74.3165 43.0471 74.2987 43.0687C74.2079 43.184 72.2436 45.5047 70.7163 45.5047ZM69.0282 28.2251C68.5291 28.234 68.037 28.3433 67.5812 28.5467C66.9381 28.8228 66.4244 29.2457 66.3405 29.5568C66.1832 30.1195 67.0115 43.0792 70.2445 45.0189C71.244 45.6201 73.0964 43.8935 73.8863 42.9988C73.0894 42.4501 70.2724 39.7169 69.9753 28.4174C69.677 28.2864 69.354 28.2209 69.0282 28.2251Z" fill="#040047"/>
<path d="M78.273 28.3056C79.7339 27.5227 82.0372 28.69 82.2609 29.5079C82.4845 30.3257 81.5619 43.1911 78.273 45.1728C76.84 46.0325 74.2642 42.9534 74.2642 42.9534C74.2642 42.9534 77.9515 41.3422 78.273 28.3056Z" fill="white"/>
<path d="M77.7104 45.5046C76.1831 45.5046 74.2154 43.1838 74.1245 43.058C74.1067 43.0364 74.0943 43.0109 74.0882 42.9835C74.0822 42.9562 74.0826 42.9279 74.0895 42.9007C74.0953 42.8737 74.1075 42.8484 74.1252 42.8271C74.1428 42.8058 74.1654 42.7891 74.1909 42.7784C74.2258 42.7784 77.7803 40.9889 78.0949 28.2879C78.0959 28.2562 78.1051 28.2254 78.1216 28.1984C78.1382 28.1715 78.1615 28.1493 78.1893 28.1341C78.9232 27.7426 79.9682 27.7846 80.9853 28.204C81.7472 28.5325 82.3169 29.0218 82.4323 29.4517C82.6979 30.4234 81.6808 43.3271 78.364 45.3193C78.1674 45.4402 77.9412 45.5043 77.7104 45.5046V45.5046ZM74.5404 42.9986C75.3303 43.8933 77.1792 45.6199 78.1823 45.0187C81.4152 43.079 82.2435 30.1193 82.0897 29.5566C82.0024 29.2385 81.4886 28.8226 80.8455 28.5465C80.4764 28.3626 80.0736 28.2563 79.6618 28.2341C79.2501 28.2118 78.8381 28.2741 78.4514 28.4172C78.1403 39.7167 75.3443 42.4499 74.5404 42.9986Z" fill="#040047"/>
<path d="M70.5488 19.0295L78.238 18.9421C78.238 18.9421 77.0671 22.9999 74.1278 22.6015C71.1884 22.203 70.5488 19.0295 70.5488 19.0295Z" fill="white"/>
<path d="M74.5231 22.8182C74.3815 22.818 74.2402 22.8075 74.1002 22.7867C71.07 22.3778 70.378 19.1029 70.371 19.0715C70.3659 19.0451 70.3667 19.018 70.3733 18.992C70.38 18.966 70.3923 18.9419 70.4094 18.9212C70.4255 18.9004 70.4462 18.8836 70.4698 18.8721C70.4934 18.8606 70.5194 18.8546 70.5457 18.8548L78.2348 18.7709C78.2628 18.7683 78.291 18.7735 78.3163 18.7858C78.3415 18.7982 78.3629 18.8172 78.3781 18.8408C78.3951 18.8635 78.4068 18.8898 78.4122 18.9176C78.4177 18.9454 78.4168 18.9741 78.4096 19.0016C78.3956 19.033 77.2702 22.8182 74.5231 22.8182ZM70.7799 19.2043C70.9861 19.9033 71.8109 22.1087 74.1491 22.4232C76.4873 22.7378 77.6826 19.9767 77.9937 19.1274L70.7799 19.2043Z" fill="#040047"/>
<path d="M56.0128 33.5901L46.1008 49.7303L36.3635 44.0648L30.5757 47.6158C30.5757 47.6158 44.5734 66.2899 51.4272 63.1304C54.6112 61.6624 64.8063 46.0045 64.8063 46.0045L56.0128 33.5901Z" fill="#FFE11B"/>
<path d="M84.4557 62.3403H84.4033C84.3807 62.3335 84.3597 62.3223 84.3415 62.3074C84.3233 62.2925 84.3083 62.2741 84.2972 62.2533C84.2862 62.2325 84.2793 62.2097 84.2771 62.1862C84.2749 62.1628 84.2774 62.1391 84.2844 62.1166C84.3438 61.9104 90.3833 41.5727 87.5943 34.2016C87.5772 34.1566 87.5787 34.1067 87.5983 34.0628C87.618 34.0189 87.6542 33.9846 87.6991 33.9674C87.7441 33.9513 87.7936 33.9532 87.8373 33.9727C87.8809 33.9923 87.9153 34.0279 87.9333 34.0722C89.1216 37.2178 88.9294 42.9183 87.3531 51.0023C86.1822 57.0103 84.6444 62.1691 84.6269 62.218C84.6156 62.2542 84.5927 62.2858 84.5618 62.3078C84.5309 62.3299 84.4937 62.3413 84.4557 62.3403V62.3403Z" fill="#040047"/>
<path d="M60.0607 63.2981C60.0174 63.2985 59.9754 63.2831 59.9426 63.2548C59.9098 63.2265 59.8884 63.1873 59.8825 63.1443C59.858 62.9626 57.3905 45.0644 56.5656 41.0276C56.5606 41.0046 56.5602 40.9808 56.5645 40.9577C56.5689 40.9346 56.5778 40.9125 56.5909 40.893C56.6039 40.8734 56.6208 40.8566 56.6405 40.8437C56.6602 40.8308 56.6823 40.822 56.7054 40.8179C56.7286 40.8128 56.7526 40.8124 56.776 40.8167C56.7993 40.821 56.8216 40.8299 56.8415 40.8429C56.8613 40.8559 56.8784 40.8728 56.8916 40.8925C56.9049 40.9122 56.9141 40.9344 56.9186 40.9577C57.747 45.005 60.2145 62.9137 60.2389 63.0954C60.2449 63.1426 60.2322 63.1903 60.2035 63.2282C60.1747 63.2661 60.1322 63.2912 60.0852 63.2981H60.0607Z" fill="#040047"/>
<path d="M89.7687 55.2978C89.7467 55.3011 89.7243 55.3011 89.7023 55.2978C89.68 55.289 89.6597 55.2758 89.6425 55.259C89.6254 55.2421 89.6119 55.222 89.6028 55.1998C89.5936 55.1776 89.5891 55.1538 89.5894 55.1298C89.5897 55.1058 89.5948 55.0821 89.6045 55.0601L95.4377 40.9366C95.4445 40.9116 95.4566 40.8883 95.4731 40.8684C95.4896 40.8484 95.5102 40.8322 95.5335 40.8209C95.5568 40.8095 95.5822 40.8033 95.6081 40.8026C95.634 40.8018 95.6598 40.8067 95.6836 40.8167C95.7075 40.8268 95.729 40.8418 95.7465 40.8608C95.7641 40.8799 95.7775 40.9024 95.7856 40.927C95.7938 40.9516 95.7966 40.9777 95.7938 41.0034C95.7911 41.0292 95.7829 41.0541 95.7697 41.0764L89.9365 55.1999C89.921 55.2307 89.8969 55.2564 89.8671 55.2737C89.8373 55.2911 89.8032 55.2995 89.7687 55.2978V55.2978Z" fill="#040047"/>
<path d="M103.112 34.31C103.076 34.3102 103.041 34.2992 103.011 34.2786C102.981 34.258 102.958 34.2287 102.945 34.1946C102.246 32.4471 100.131 31.5978 100.11 31.5908C100.066 31.5729 100.03 31.5383 100.012 31.4945C99.9926 31.4507 99.9916 31.4012 100.009 31.3566C100.017 31.3344 100.03 31.3141 100.047 31.2969C100.063 31.2798 100.083 31.2661 100.105 31.2566C100.126 31.2472 100.15 31.2422 100.174 31.242C100.197 31.2417 100.221 31.2463 100.243 31.2553C100.334 31.2902 102.525 32.1675 103.28 34.0513C103.29 34.0733 103.295 34.0969 103.295 34.1208C103.295 34.1448 103.29 34.1684 103.28 34.1904C103.271 34.2123 103.257 34.2321 103.239 34.2485C103.222 34.2648 103.201 34.2774 103.179 34.2855C103.159 34.2988 103.136 34.3072 103.112 34.31V34.31Z" fill="#040047"/>
<path d="M103.113 30.5352C103.081 30.5359 103.049 30.5274 103.022 30.5107C102.98 30.4866 102.95 30.4469 102.937 30.4004C102.925 30.3539 102.931 30.3043 102.955 30.2626L105.318 26.1943C105.33 26.1741 105.346 26.1564 105.365 26.1423C105.383 26.1282 105.405 26.1179 105.427 26.1121C105.45 26.1062 105.474 26.1049 105.497 26.1082C105.52 26.1116 105.543 26.1194 105.563 26.1314C105.583 26.143 105.601 26.1586 105.616 26.1772C105.63 26.1958 105.641 26.2171 105.647 26.2399C105.653 26.2626 105.655 26.2864 105.652 26.3098C105.649 26.3332 105.641 26.3557 105.629 26.3761L103.27 30.4443C103.254 30.4719 103.231 30.4949 103.204 30.5108C103.176 30.5268 103.145 30.5352 103.113 30.5352V30.5352Z" fill="#040047"/>
<path d="M105.146 31.154C105.12 31.1585 105.093 31.1585 105.066 31.154C105.024 31.1323 104.992 31.0949 104.977 31.0498C104.962 31.0047 104.965 30.9555 104.986 30.9128L106.8 27.208C106.81 27.1868 106.824 27.1678 106.842 27.1522C106.86 27.1367 106.881 27.1248 106.903 27.1173C106.926 27.1098 106.949 27.1069 106.973 27.1087C106.997 27.1104 107.02 27.1169 107.041 27.1277C107.084 27.1488 107.116 27.1859 107.132 27.231C107.148 27.2762 107.145 27.3257 107.125 27.3688L105.314 31.0526C105.298 31.0835 105.274 31.1094 105.245 31.1273C105.215 31.1452 105.181 31.1545 105.146 31.154V31.154Z" fill="#040047"/>
<path d="M106.052 32.4856C106.029 32.4908 106.005 32.4908 105.982 32.4856C105.939 32.4657 105.905 32.4299 105.887 32.3856C105.87 32.3414 105.87 32.292 105.888 32.2479L107.635 28.2985C107.644 28.2768 107.658 28.2571 107.675 28.2408C107.692 28.2244 107.713 28.2116 107.735 28.2032C107.757 28.1947 107.781 28.1907 107.804 28.1915C107.828 28.1923 107.851 28.1977 107.873 28.2076C107.894 28.2167 107.914 28.2301 107.93 28.2469C107.946 28.2637 107.959 28.2836 107.968 28.3054C107.976 28.3273 107.98 28.3506 107.98 28.374C107.979 28.3975 107.973 28.4205 107.964 28.4418L106.216 32.3912C106.2 32.4205 106.176 32.4448 106.147 32.4615C106.118 32.4781 106.085 32.4865 106.052 32.4856V32.4856Z" fill="#040047"/>
<path d="M38.9951 13.3815C38.9549 13.3815 38.9158 13.3676 38.8846 13.3421C38.8534 13.3166 38.8319 13.2812 38.8239 13.2417L38.2612 10.4701L35.6119 10.8755C35.5666 10.8816 35.5207 10.8696 35.4841 10.8421C35.4475 10.8147 35.4231 10.774 35.4162 10.7287C35.4122 10.7062 35.4128 10.6831 35.4179 10.6608C35.4229 10.6385 35.4324 10.6175 35.4458 10.5989C35.4592 10.5803 35.4761 10.5646 35.4956 10.5527C35.5152 10.5408 35.5369 10.5329 35.5595 10.5295L38.373 10.0996C38.4178 10.0933 38.4632 10.1043 38.5002 10.1302C38.5372 10.1562 38.5629 10.1952 38.5722 10.2394L39.1699 13.1718C39.1781 13.2176 39.1681 13.2648 39.142 13.3034C39.1159 13.3419 39.0757 13.3687 39.0301 13.378L38.9951 13.3815Z" fill="#D1D3D4"/>
<path d="M19.9089 15.1884H12.7231C12.6767 15.1884 12.6323 15.17 12.5995 15.1372C12.5668 15.1044 12.5483 15.06 12.5483 15.0136C12.5483 14.9673 12.5668 14.9228 12.5995 14.8901C12.6323 14.8573 12.6767 14.8389 12.7231 14.8389H19.9089C19.955 14.8398 19.9989 14.8585 20.0315 14.891C20.0641 14.9236 20.0828 14.9676 20.0837 15.0136C20.0837 15.06 20.0653 15.1044 20.0325 15.1372C19.9997 15.17 19.9553 15.1884 19.9089 15.1884Z" fill="#D1D3D4"/>
<path d="M19.9089 12.6371H12.7231C12.6767 12.6371 12.6323 12.6187 12.5995 12.5859C12.5668 12.5531 12.5483 12.5087 12.5483 12.4624C12.5483 12.416 12.5668 12.3716 12.5995 12.3388C12.6323 12.306 12.6767 12.2876 12.7231 12.2876H19.9089C19.955 12.2885 19.9989 12.3072 20.0315 12.3398C20.0641 12.3724 20.0828 12.4163 20.0837 12.4624C20.0837 12.5087 20.0653 12.5531 20.0325 12.5859C19.9997 12.6187 19.9553 12.6371 19.9089 12.6371Z" fill="#D1D3D4"/>
<path d="M37.7615 29.5636H30.5756C30.5296 29.5627 30.4856 29.544 30.4531 29.5114C30.4205 29.4789 30.4018 29.4349 30.4009 29.3889C30.4009 29.3425 30.4193 29.2981 30.4521 29.2653C30.4848 29.2325 30.5293 29.2141 30.5756 29.2141H37.7615C37.8078 29.2141 37.8523 29.2325 37.885 29.2653C37.9178 29.2981 37.9362 29.3425 37.9362 29.3889C37.9362 29.4352 37.9178 29.4797 37.885 29.5124C37.8523 29.5452 37.8078 29.5636 37.7615 29.5636Z" fill="#D1D3D4"/>
<path d="M37.7615 27.0123H30.5756C30.5296 27.0115 30.4856 26.9928 30.4531 26.9602C30.4205 26.9276 30.4018 26.8837 30.4009 26.8376C30.4009 26.7912 30.4193 26.7468 30.4521 26.714C30.4848 26.6813 30.5293 26.6628 30.5756 26.6628H37.7615C37.8078 26.6628 37.8523 26.6813 37.885 26.714C37.9178 26.7468 37.9362 26.7912 37.9362 26.8376C37.9362 26.8839 37.9178 26.9284 37.885 26.9612C37.8523 26.9939 37.8078 27.0123 37.7615 27.0123Z" fill="#D1D3D4"/>
<path d="M35.322 3.05371H9.41309V4.24902H35.322V3.05371Z" fill="#D1D3D4"/>
</svg>
