<svg width="86" height="83" viewBox="0 0 86 83" fill="none" xmlns="http://www.w3.org/2000/svg">
<path d="M19.6885 72.3371C19.6885 72.3371 21.0107 61.5518 21.7706 59.1955C22.5306 56.8393 22.3155 34.2657 22.3397 34.0367C22.364 33.8077 10.1316 39.9048 9.06283 41.7197C7.99401 43.5346 10.7771 55.3714 9.99631 57.0822C9.21552 58.793 6.67188 66.2886 6.67188 66.2886L19.6885 72.3371Z" fill="white"/>
<path d="M19.6882 72.5106C19.663 72.5098 19.6382 72.5039 19.6153 72.4933L6.59517 66.4447C6.55571 66.4278 6.52412 66.3966 6.50674 66.3573C6.48936 66.318 6.48748 66.2736 6.50147 66.233C6.60558 65.9242 9.06247 58.7062 9.83632 57.0093C10.1833 56.2563 9.75303 53.14 9.33661 50.1279C8.83344 46.453 8.29556 42.6532 8.90978 41.6329C9.524 40.6127 13.0428 38.5757 15.9161 37.0176C16.86 36.5075 22.0548 33.766 22.388 33.8667C22.4263 33.8797 22.4591 33.9053 22.4812 33.9393C22.5032 33.9733 22.5131 34.0137 22.5094 34.054C22.5094 34.1061 22.5094 34.7168 22.5094 35.5566C22.5268 40.9181 22.5788 57.2279 21.9264 59.251C21.1838 61.5622 19.8721 72.2503 19.8443 72.3579C19.8372 72.3994 19.8161 72.4371 19.7845 72.4649C19.753 72.4927 19.7128 72.5088 19.6708 72.5106H19.6882ZM6.88319 66.1949L19.5459 72.0942C19.7472 70.4632 20.8993 61.3366 21.6002 59.1608C22.0201 57.856 22.211 49.9197 22.1659 35.5636C22.1659 34.8695 22.1659 34.4809 22.1659 34.2692C20.5557 34.9077 10.1625 40.1928 9.21169 41.8134C8.67381 42.7295 9.21169 46.6369 9.6871 50.0828C10.1452 53.4246 10.5408 56.3291 10.1556 57.1585C9.44419 58.7027 7.2545 65.1365 6.88319 66.1949Z" fill="#040047"/>
<path d="M19.494 81.8072L21.5865 67.8571L7.35526 60.8126L0.165039 81.1028L19.494 81.8072Z" fill="#040047"/>
<path d="M19.4942 81.9808L0.168743 81.2867C0.141457 81.2866 0.114599 81.2799 0.0904393 81.2672C0.0662798 81.2545 0.0455273 81.2362 0.0299351 81.2138C0.0148834 81.1911 0.00518908 81.1652 0.00158266 81.1382C-0.00202376 81.1111 0.000552484 81.0836 0.00911491 81.0577L7.19239 60.7571C7.20145 60.7344 7.21504 60.7137 7.23234 60.6964C7.24963 60.6791 7.27027 60.6655 7.29299 60.6564C7.31571 60.6473 7.34005 60.6429 7.36451 60.6435C7.38898 60.6442 7.41306 60.6497 7.4353 60.66L21.663 67.7044C21.6967 67.7198 21.7243 67.7458 21.7419 67.7784C21.7594 67.8109 21.7658 67.8483 21.7602 67.8849L19.6781 81.835C19.6705 81.8776 19.6477 81.9159 19.6138 81.9427C19.5799 81.9696 19.5374 81.9831 19.4942 81.9808ZM0.408184 80.9397L19.345 81.6337L21.3958 67.9612L7.45612 61.0556L0.408184 80.9397Z" fill="#040047"/>
<path d="M65.3696 7.07687H21.8674C20.6408 7.07687 19.6465 8.07121 19.6465 9.29779V66.8924C19.6465 68.119 20.6408 69.1133 21.8674 69.1133H65.3696C66.5962 69.1133 67.5905 68.119 67.5905 66.8924V9.29779C67.5905 8.07121 66.5962 7.07687 65.3696 7.07687Z" fill="white"/>
<path d="M65.3703 69.2903H21.8646C21.2304 69.2885 20.6228 69.0355 20.1747 68.5867C19.7266 68.138 19.4745 67.53 19.4736 66.8959V9.29085C19.4745 8.65669 19.7266 8.04871 20.1747 7.59997C20.6228 7.15123 21.2304 6.89826 21.8646 6.89642H65.3703C66.005 6.89734 66.6135 7.1499 67.0624 7.59875C67.5112 8.04759 67.7638 8.65609 67.7647 9.29085V66.8959C67.7638 67.5306 67.5112 68.1391 67.0624 68.588C66.6135 69.0368 66.005 69.2894 65.3703 69.2903ZM21.8646 7.25038C21.3222 7.2513 20.8023 7.46742 20.4191 7.85128C20.0359 8.23514 19.8207 8.75538 19.8207 9.29779V66.9028C19.8207 67.4452 20.0359 67.9655 20.4191 68.3493C20.8023 68.7332 21.3222 68.9493 21.8646 68.9502H65.3703C65.913 68.9493 66.4332 68.7333 66.817 68.3495C67.2007 67.9658 67.4167 67.4455 67.4177 66.9028V9.29779C67.4167 8.75506 67.2007 8.23483 66.817 7.85107C66.4332 7.4673 65.913 7.2513 65.3703 7.25038H21.8646Z" fill="#040047"/>
<path d="M64.652 10.8802H22.583V65.3169H64.652V10.8802Z" fill="white"/>
<path d="M64.6517 65.4904H22.5827C22.5367 65.4904 22.4925 65.4721 22.46 65.4396C22.4275 65.4071 22.4092 65.3629 22.4092 65.3169V10.8802C22.4092 10.8342 22.4275 10.79 22.46 10.7575C22.4925 10.7249 22.5367 10.7067 22.5827 10.7067H64.6517C64.6977 10.7067 64.7419 10.7249 64.7744 10.7575C64.8069 10.79 64.8252 10.8342 64.8252 10.8802V65.3169C64.8252 65.3629 64.8069 65.4071 64.7744 65.4396C64.7419 65.4721 64.6977 65.4904 64.6517 65.4904ZM22.7562 65.1434H64.4782V11.0537H22.7562V65.1434Z" fill="#040047"/>
<path d="M54.612 4.88718H48.5496C48.3271 3.73934 47.7122 2.70468 46.8102 1.96072C45.9082 1.21676 44.7755 0.809875 43.6063 0.809875C42.4371 0.809875 41.3043 1.21676 40.4024 1.96072C39.5004 2.70468 38.8855 3.73934 38.663 4.88718H32.6249C32.2399 4.88718 31.8706 5.0399 31.598 5.31182C31.3254 5.58375 31.1718 5.95269 31.1709 6.33772V11.3938C31.1718 11.7788 31.3254 12.1477 31.598 12.4197C31.8706 12.6916 32.2399 12.8443 32.6249 12.8443H54.612C54.9967 12.8443 55.3656 12.6915 55.6377 12.4195C55.9097 12.1474 56.0625 11.7785 56.0625 11.3938V6.33425C56.0616 5.95014 55.9084 5.58209 55.6364 5.31081C55.3645 5.03953 54.9961 4.88718 54.612 4.88718ZM43.6184 5.54652C43.363 5.5472 43.1131 5.47208 42.9003 5.33065C42.6876 5.18922 42.5216 4.98785 42.4233 4.75203C42.3251 4.51621 42.299 4.25654 42.3484 4.0059C42.3979 3.75526 42.5205 3.52492 42.7009 3.34403C42.8813 3.16315 43.1113 3.03986 43.3618 2.98977C43.6124 2.93967 43.8721 2.96504 44.1082 3.06264C44.3443 3.16024 44.5461 3.3257 44.6881 3.53806C44.8301 3.75042 44.9059 4.00014 44.9059 4.25561C44.905 4.5971 44.7691 4.92439 44.528 5.16619C44.2869 5.40798 43.9599 5.54469 43.6184 5.54652Z" fill="#FFE11B"/>
<path d="M38.792 28.297H28.6313C28.589 28.297 28.5484 28.2802 28.5184 28.2503C28.4885 28.2203 28.4717 28.1797 28.4717 28.1374V17.2792C28.4717 17.2369 28.4885 17.1963 28.5184 17.1663C28.5484 17.1364 28.589 17.1196 28.6313 17.1196H38.792C38.8341 17.1205 38.8741 17.1376 38.9039 17.1673C38.9336 17.197 38.9507 17.2371 38.9516 17.2792V28.1374C38.9507 28.1795 38.9336 28.2195 38.9039 28.2493C38.8741 28.279 38.8341 28.2961 38.792 28.297ZM28.7909 27.9743H38.6324V17.4388H28.7909V27.9743Z" fill="#D1D3D4"/>
<path d="M41.1731 19.9339C41.1198 20.0238 41.0582 20.1086 40.9892 20.1872L34.4236 26.7493C34.3904 26.8016 34.3445 26.8447 34.2902 26.8746C34.2359 26.9044 34.175 26.9201 34.113 26.9201C34.0511 26.9201 33.9901 26.9044 33.9358 26.8746C33.8815 26.8447 33.8356 26.8016 33.8024 26.7493L30.1102 22.9321C30.0602 22.8994 30.0195 22.8544 29.9921 22.8014C29.9646 22.7484 29.9512 22.6892 29.9533 22.6295C29.9554 22.5699 29.9729 22.5118 30.004 22.4608C30.0351 22.4099 30.0789 22.3678 30.131 22.3387L31.0575 21.5059C31.0898 21.4621 31.1319 21.4265 31.1804 21.402C31.2289 21.3775 31.2825 21.3647 31.3369 21.3647C31.3912 21.3647 31.4449 21.3775 31.4934 21.402C31.5419 21.4265 31.584 21.4621 31.6162 21.5059C32.3403 22.2485 33.0679 22.99 33.799 23.7303C33.8326 23.7825 33.8788 23.8256 33.9334 23.8553C33.988 23.8851 34.0491 23.9007 34.1113 23.9007C34.1735 23.9007 34.2346 23.8851 34.2892 23.8553C34.3438 23.8256 34.39 23.7825 34.4236 23.7303L39.5282 18.6673C39.5619 18.6172 39.6073 18.5761 39.6606 18.5477C39.7139 18.5193 39.7733 18.5045 39.8336 18.5045C39.894 18.5045 39.9534 18.5193 40.0066 18.5477C40.0599 18.5761 40.1054 18.6172 40.139 18.6673C40.427 18.9588 40.7151 19.2468 40.9996 19.5383C41.0636 19.6155 41.1227 19.6966 41.1766 19.7812L41.1731 19.9339Z" fill="#4F51FF"/>
<path d="M59.3692 21.1624H44.7771C44.7383 21.1567 44.7029 21.1372 44.6774 21.1076C44.6518 21.078 44.6377 21.0401 44.6377 21.001C44.6377 20.9618 44.6518 20.924 44.6774 20.8944C44.7029 20.8648 44.7383 20.8453 44.7771 20.8396H59.3692C59.4079 20.8453 59.4433 20.8648 59.4689 20.8944C59.4945 20.924 59.5085 20.9618 59.5085 21.001C59.5085 21.0401 59.4945 21.078 59.4689 21.1076C59.4433 21.1372 59.4079 21.1567 59.3692 21.1624Z" fill="#D1D3D4"/>
<path d="M55.4902 24.5735H44.7778C44.7355 24.5735 44.6949 24.5567 44.6649 24.5268C44.635 24.4968 44.6182 24.4562 44.6182 24.4139C44.6182 24.3716 44.635 24.331 44.6649 24.301C44.6949 24.2711 44.7355 24.2543 44.7778 24.2543H55.4902C55.5326 24.2543 55.5732 24.2711 55.6031 24.301C55.6331 24.331 55.6499 24.3716 55.6499 24.4139C55.6499 24.4562 55.6331 24.4968 55.6031 24.5268C55.5732 24.5567 55.5326 24.5735 55.4902 24.5735Z" fill="#D1D3D4"/>
<path d="M38.792 43.1216H28.6313C28.6103 43.1221 28.5893 43.1183 28.5697 43.1105C28.5501 43.1026 28.5323 43.0909 28.5174 43.0759C28.5025 43.061 28.4908 43.0432 28.4829 43.0237C28.475 43.0041 28.4712 42.9831 28.4717 42.962V32.1073C28.4717 32.065 28.4885 32.0244 28.5185 31.9944C28.5484 31.9645 28.589 31.9477 28.6313 31.9477H38.792C38.8341 31.9485 38.8742 31.9656 38.9039 31.9954C38.9337 32.0251 38.9508 32.0652 38.9517 32.1073V42.962C38.9517 43.0044 38.9349 43.045 38.9049 43.0749C38.875 43.1048 38.8344 43.1216 38.792 43.1216ZM28.791 42.8024H38.6324V32.2669H28.791V42.8024Z" fill="#D1D3D4"/>
<path d="M41.1731 34.762C41.1198 34.8519 41.0582 34.9367 40.9892 35.0153L34.4236 41.5705C34.3904 41.6228 34.3445 41.6659 34.2902 41.6957C34.2359 41.7256 34.175 41.7412 34.113 41.7412C34.0511 41.7412 33.9901 41.7256 33.9358 41.6957C33.8815 41.6659 33.8356 41.6228 33.8024 41.5705L30.1102 37.7533C30.0602 37.7206 30.0195 37.6756 29.9921 37.6226C29.9646 37.5696 29.9512 37.5104 29.9533 37.4507C29.9554 37.391 29.9729 37.3329 30.004 37.282C30.0351 37.231 30.0789 37.189 30.131 37.1599L31.0575 36.327C31.0898 36.2833 31.1319 36.2477 31.1804 36.2232C31.2289 36.1987 31.2825 36.1859 31.3369 36.1859C31.3912 36.1859 31.4449 36.1987 31.4934 36.2232C31.5419 36.2477 31.584 36.2833 31.6162 36.327C32.3403 37.0696 33.0679 37.8111 33.799 38.5514C33.8326 38.6037 33.8788 38.6467 33.9334 38.6765C33.988 38.7063 34.0491 38.7219 34.1113 38.7219C34.1735 38.7219 34.2346 38.7063 34.2892 38.6765C34.3438 38.6467 34.39 38.6037 34.4236 38.5514L39.5282 33.4954C39.5619 33.4453 39.6073 33.4042 39.6606 33.3758C39.7139 33.3474 39.7733 33.3326 39.8336 33.3326C39.894 33.3326 39.9534 33.3474 40.0066 33.3758C40.0599 33.4042 40.1054 33.4453 40.139 33.4954C40.427 33.7834 40.7151 34.0714 40.9996 34.3664C41.0636 34.4436 41.1227 34.5247 41.1766 34.6093L41.1731 34.762Z" fill="#4F51FF"/>
<path d="M59.3692 35.9904H44.7771C44.7383 35.9847 44.7029 35.9653 44.6774 35.9357C44.6518 35.906 44.6377 35.8682 44.6377 35.8291C44.6377 35.7899 44.6518 35.7521 44.6774 35.7225C44.7029 35.6928 44.7383 35.6734 44.7771 35.6677H59.3692C59.4079 35.6734 59.4433 35.6928 59.4689 35.7225C59.4945 35.7521 59.5085 35.7899 59.5085 35.8291C59.5085 35.8682 59.4945 35.906 59.4689 35.9357C59.4433 35.9653 59.4079 35.9847 59.3692 35.9904Z" fill="#D1D3D4"/>
<path d="M55.4902 39.4016H44.7778C44.7355 39.4016 44.6949 39.3848 44.6649 39.3548C44.635 39.3249 44.6182 39.2843 44.6182 39.242C44.6182 39.1996 44.635 39.159 44.6649 39.1291C44.6949 39.0992 44.7355 39.0823 44.7778 39.0823H55.4902C55.5326 39.0823 55.5732 39.0992 55.6031 39.1291C55.6331 39.159 55.6499 39.1996 55.6499 39.242C55.6499 39.2843 55.6331 39.3249 55.6031 39.3548C55.5732 39.3848 55.5326 39.4016 55.4902 39.4016Z" fill="#D1D3D4"/>
<path d="M38.792 57.8873H28.6313C28.589 57.8873 28.5484 57.8704 28.5184 57.8405C28.4885 57.8106 28.4717 57.77 28.4717 57.7276V46.8764C28.4717 46.834 28.4885 46.7934 28.5184 46.7635C28.5484 46.7336 28.589 46.7167 28.6313 46.7167H38.792C38.8341 46.7176 38.8741 46.7347 38.9039 46.7645C38.9336 46.7942 38.9507 46.8343 38.9516 46.8764V57.7346C38.949 57.7754 38.9312 57.8138 38.9016 57.842C38.872 57.8703 38.8329 57.8865 38.792 57.8873ZM28.7909 57.568H38.6324V47.0291H28.7909V57.568Z" fill="#D1D3D4"/>
<path d="M41.1731 49.5241C41.1198 49.6141 41.0582 49.6989 40.9892 49.7775L34.4236 56.3326C34.198 56.5582 34.0245 56.5617 33.8024 56.3326C32.5694 55.0625 31.3386 53.7901 30.1102 52.5154C30.0602 52.4828 30.0195 52.4377 29.9921 52.3847C29.9646 52.3317 29.9512 52.2725 29.9533 52.2129C29.9554 52.1532 29.9729 52.0951 30.004 52.0441C30.0351 51.9932 30.0789 51.9511 30.131 51.922L31.0575 51.0892C31.0898 51.0454 31.1319 51.0099 31.1804 50.9853C31.2289 50.9608 31.2825 50.948 31.3369 50.948C31.3912 50.948 31.4449 50.9608 31.4934 50.9853C31.5419 51.0099 31.584 51.0454 31.6162 51.0892L33.799 53.317C33.8326 53.3693 33.8788 53.4123 33.9334 53.4421C33.988 53.4719 34.0491 53.4875 34.1113 53.4875C34.1735 53.4875 34.2346 53.4719 34.2892 53.4421C34.3438 53.4123 34.39 53.3693 34.4236 53.317L39.5282 48.2645C39.5619 48.2144 39.6073 48.1733 39.6606 48.1449C39.7139 48.1165 39.7733 48.1017 39.8336 48.1017C39.894 48.1017 39.9534 48.1165 40.0066 48.1449C40.0599 48.1733 40.1054 48.2144 40.139 48.2645C40.427 48.556 40.7151 48.844 40.9996 49.1355C41.0636 49.2127 41.1227 49.2938 41.1766 49.3784L41.1731 49.5241Z" fill="#4F51FF"/>
<path d="M59.3699 50.7526H44.7778C44.7357 50.7517 44.6956 50.7346 44.6659 50.7048C44.6362 50.6751 44.619 50.635 44.6182 50.5929C44.6182 50.5506 44.635 50.51 44.6649 50.4801C44.6949 50.4501 44.7355 50.4333 44.7778 50.4333H59.3699C59.4122 50.4333 59.4528 50.4501 59.4828 50.4801C59.5127 50.51 59.5295 50.5506 59.5295 50.5929C59.5287 50.635 59.5115 50.6751 59.4818 50.7048C59.4521 50.7346 59.412 50.7517 59.3699 50.7526Z" fill="#D1D3D4"/>
<path d="M55.4902 54.1638H44.7778C44.7355 54.1638 44.6949 54.1469 44.6649 54.117C44.635 54.0871 44.6182 54.0465 44.6182 54.0041C44.619 53.9621 44.6362 53.922 44.6659 53.8922C44.6956 53.8625 44.7357 53.8454 44.7778 53.8445H55.4902C55.5323 53.8454 55.5724 53.8625 55.6021 53.8922C55.6319 53.922 55.649 53.9621 55.6499 54.0041C55.6499 54.0465 55.6331 54.0871 55.6031 54.117C55.5732 54.1469 55.5326 54.1638 55.4902 54.1638Z" fill="#D1D3D4"/>
<path d="M12.9941 44.7561C15.5517 41.98 18.5985 39.6653 21.7841 37.6283C22.5718 37.1217 23.422 36.6151 24.359 36.5873C25.2959 36.5595 26.3162 37.2258 26.3439 38.1628C26.3647 38.8984 25.8095 39.5092 25.3029 40.0297L18.4909 46.8764C19.3154 48.4387 19.6632 50.2086 19.4911 51.9667C19.319 53.7248 18.6346 55.3937 17.5227 56.7664" fill="white"/>
<path d="M17.5233 56.9399C17.4829 56.9411 17.4434 56.9275 17.4122 56.9017C17.3773 56.8715 17.3555 56.8288 17.3517 56.7828C17.3478 56.7367 17.362 56.691 17.3914 56.6554C18.4762 55.307 19.1437 53.6712 19.3119 51.9489C19.4802 50.2265 19.142 48.4925 18.3388 46.9597C18.3213 46.9267 18.3149 46.889 18.3205 46.8521C18.3261 46.8152 18.3435 46.7812 18.37 46.7549L25.1681 39.9256C25.6851 39.4051 26.1918 38.8429 26.171 38.1905C26.1467 37.3403 25.1924 36.7643 24.363 36.8024C23.5336 36.8406 22.6869 37.2883 21.8784 37.8088C18.1757 40.1755 15.3926 42.4311 13.1231 44.9088C13.0918 44.9428 13.0483 44.9631 13.002 44.965C12.9558 44.967 12.9108 44.9505 12.8767 44.9192C12.8426 44.8879 12.8224 44.8444 12.8205 44.7982C12.8185 44.752 12.835 44.7069 12.8663 44.6728C15.1566 42.1743 17.9605 39.9013 21.691 37.5138C22.5446 36.969 23.3914 36.4728 24.3561 36.4728C25.3208 36.4728 26.4868 37.1668 26.518 38.2079C26.5423 38.9991 25.987 39.6272 25.4145 40.1998L18.7066 46.8972C19.5256 48.4797 19.8635 50.2674 19.6785 52.0396C19.4935 53.8119 18.7937 55.4913 17.6656 56.8705C17.6487 56.8921 17.6271 56.9096 17.6024 56.9216C17.5778 56.9337 17.5507 56.9399 17.5233 56.9399Z" fill="#040047"/>
<path d="M72.5397 65.2926L64.1384 71.3099L48.4323 51.8943C48.4566 50.8532 47.7383 46.283 49.2895 47.036C50.8406 47.789 56.6254 54.3824 57.5797 54.5975C58.534 54.8127 60.7445 53.73 60.4114 51.5958C60.0783 49.4617 59.6757 45.87 57.5867 45.7208C54.4184 45.4953 51.4722 47.5982 50.2195 47.1089C48.9667 46.6196 47.9326 44.9574 49.9766 43.7289C52.3155 42.3409 57.3507 41.4386 61.3865 41.8759C65.4224 42.3131 68.4831 50.4333 68.7676 56.3812C69.8295 60.1637 71.8804 63.6096 72.5397 65.2926Z" fill="white"/>
<path d="M64.1375 71.4835C64.1114 71.4836 64.0856 71.4777 64.0621 71.4663C64.0386 71.4548 64.0181 71.4382 64.0021 71.4175L48.2996 52.0053C48.2723 51.9734 48.2575 51.9328 48.2579 51.8908C48.2579 51.6826 48.2371 51.3182 48.2059 50.8983C48.0705 49.0244 48.0011 47.3102 48.6396 46.8729C48.7484 46.8067 48.8732 46.7717 49.0005 46.7717C49.1278 46.7717 49.2527 46.8067 49.3614 46.8729C50.1873 47.2651 52.0821 49.1737 53.9178 51.0198C55.4585 52.571 57.2041 54.3269 57.617 54.424C58.03 54.5212 58.8975 54.2852 59.5152 53.7092C59.8023 53.4518 60.0194 53.1258 60.1462 52.7616C60.2731 52.3975 60.3055 52.0071 60.2405 51.6271L60.1745 51.2037C59.8622 49.1459 59.3903 46.0331 57.5754 45.9013C55.8784 45.7798 54.2197 46.3489 52.8906 46.807C51.7142 47.2095 50.7877 47.5288 50.1561 47.2893C49.7682 47.1544 49.4237 46.9176 49.1588 46.6038C48.8938 46.29 48.7181 45.9107 48.65 45.5057C48.6049 45.0025 48.7819 44.2599 49.8854 43.5971C52.3146 42.1361 57.4851 41.2963 61.403 41.7197C65.6539 42.1847 68.6522 50.5583 68.9402 56.3708C69.6655 58.9457 70.8592 61.3887 71.7337 63.1724C72.1397 63.9983 72.4902 64.7131 72.6984 65.2545C72.7119 65.2899 72.7134 65.3287 72.7028 65.365C72.6921 65.4014 72.6699 65.4332 72.6394 65.4557L64.2381 71.4765C64.206 71.4887 64.171 71.4912 64.1375 71.4835ZM48.6084 51.8353L64.1652 71.074L72.3236 65.2302C72.1154 64.7235 71.7892 64.0607 71.4179 63.3042C70.5365 61.5032 69.3358 59.0359 68.5967 56.4263C68.595 56.4137 68.595 56.4008 68.5967 56.3882C68.3294 50.8359 65.3833 42.4831 61.3717 42.0459C57.5129 41.626 52.443 42.445 50.0694 43.8712C49.3163 44.3258 48.9485 44.8706 49.0005 45.4536C49.0613 45.7945 49.2125 46.1129 49.4383 46.3754C49.6642 46.6379 49.9564 46.8349 50.2845 46.9458C50.7946 47.1367 51.7142 46.8243 52.7796 46.4565C54.1433 45.9915 55.8333 45.4154 57.6031 45.5334C59.6852 45.6861 60.1919 48.962 60.5215 51.1308L60.5875 51.5542C60.6619 51.9922 60.6245 52.4419 60.479 52.8617C60.3334 53.2814 60.0842 53.6577 59.7546 53.9556C59.1161 54.5524 58.1653 54.896 57.5441 54.7537C57.0548 54.6427 55.7535 53.3656 53.6749 51.2592C51.9398 49.5241 49.9861 47.5461 49.2192 47.1783C48.9762 47.0638 48.8721 47.1367 48.8374 47.1609C48.31 47.508 48.4696 49.7011 48.5564 50.8706C48.5806 51.2801 48.6049 51.6097 48.6084 51.8353Z" fill="#040047"/>
<path d="M43.1955 48.2714L43.553 51.1065L40.5582 50.5478L38.9619 50.2494L40.4333 49.5623L43.1955 48.2714Z" fill="white"/>
<path d="M43.5538 51.28H43.5225L38.9315 50.4229C38.8953 50.4164 38.8623 50.3983 38.8372 50.3714C38.8122 50.3445 38.7966 50.3102 38.7927 50.2737C38.7876 50.2372 38.7943 50.2 38.8118 50.1676C38.8292 50.1351 38.8566 50.1091 38.8898 50.0932L43.12 48.1187C43.1446 48.1059 43.172 48.0992 43.1998 48.0992C43.2276 48.0992 43.2549 48.1059 43.2796 48.1187C43.3033 48.1325 43.3234 48.1515 43.3385 48.1744C43.3535 48.1973 43.3631 48.2234 43.3664 48.2506L43.7134 51.0857C43.7153 51.11 43.7122 51.1344 43.7044 51.1574C43.6967 51.1805 43.6843 51.2017 43.6681 51.2199C43.6519 51.238 43.6322 51.2527 43.6101 51.2631C43.5881 51.2734 43.5642 51.2792 43.5399 51.28H43.5538ZM39.5283 50.1765L43.3455 50.8914L43.0471 48.5282L39.5283 50.1765Z" fill="#040047"/>
<path d="M65.5542 48.3165L43.5498 51.0926C43.3194 50.6593 43.1645 50.1899 43.0917 49.7046C43.0417 49.2177 43.0757 48.7259 43.1924 48.2506L65.1933 45.4744L65.5542 48.3165Z" fill="#FFE11B"/>
<path d="M43.553 51.28C43.5228 51.2799 43.4931 51.2718 43.4669 51.2565C43.4407 51.2413 43.419 51.2195 43.4038 51.1933C43.1607 50.7427 42.9986 50.2529 42.9249 49.7462C42.8715 49.2387 42.9055 48.7258 43.0256 48.2298C43.0339 48.196 43.0523 48.1657 43.0783 48.1427C43.1044 48.1197 43.1368 48.1053 43.1713 48.1014L65.1758 45.3079C65.2215 45.3038 65.2671 45.3173 65.3032 45.3457C65.3393 45.3741 65.3632 45.4152 65.3701 45.4606L65.7171 48.2957C65.7209 48.3183 65.7197 48.3415 65.7138 48.3637C65.7078 48.3858 65.6971 48.4064 65.6824 48.4241C65.6685 48.4417 65.6512 48.4563 65.6315 48.467C65.6118 48.4777 65.5902 48.4844 65.5679 48.4866L43.5669 51.28H43.553ZM43.3379 48.431C43.2476 48.8492 43.2242 49.2791 43.2685 49.7046C43.3308 50.1275 43.4608 50.5376 43.6537 50.9191L65.3631 48.1638L65.0474 45.6757L43.3379 48.431Z" fill="#040047"/>
<path d="M69.0774 47.8726L65.5591 48.319L65.1996 45.4857L68.718 45.0394C68.9261 45.013 69.1363 45.0703 69.3021 45.1989C69.468 45.3274 69.576 45.5165 69.6024 45.7247L69.7627 46.9881C69.7891 47.1963 69.7318 47.4064 69.6032 47.5723C69.4747 47.7382 69.2856 47.8462 69.0774 47.8726Z" fill="white"/>
<path d="M65.5542 48.49C65.5118 48.4896 65.4709 48.4739 65.4391 48.4459C65.4072 48.4179 65.3865 48.3794 65.3807 48.3373L65.0337 45.5022C65.0307 45.4796 65.0323 45.4566 65.0382 45.4345C65.0442 45.4125 65.0544 45.3919 65.0684 45.3738C65.0971 45.3384 65.1379 45.3149 65.1829 45.3079L68.7017 44.8637C68.9555 44.8322 69.2116 44.9025 69.4138 45.0592C69.616 45.2159 69.748 45.4463 69.7809 45.7L69.9405 46.9631C69.972 47.217 69.9017 47.473 69.745 47.6753C69.5883 47.8775 69.3579 48.0095 69.1042 48.0424L65.5854 48.4865L65.5542 48.49ZM65.3876 45.6306L65.7034 48.1222L69.0521 47.6988C69.2144 47.6763 69.3614 47.591 69.4614 47.4612C69.5614 47.3313 69.6063 47.1674 69.5866 47.0048L69.4269 45.7416C69.4167 45.6609 69.3905 45.583 69.35 45.5123C69.3096 45.4417 69.2555 45.3798 69.191 45.3301C69.1265 45.2805 69.0528 45.244 68.9742 45.223C68.8956 45.2019 68.8136 45.1965 68.7329 45.2072L65.3876 45.6306Z" fill="#040047"/>
<path d="M66.353 45.3346L65.9502 45.3857L66.3096 48.219L66.7124 48.1679L66.353 45.3346Z" fill="#040047"/>
<path d="M67.1528 45.2345L66.75 45.2856L67.1094 48.1189L67.5122 48.0678L67.1528 45.2345Z" fill="#040047"/>
<path d="M40.4333 49.5623L40.5582 50.5478L38.9619 50.2494L40.4333 49.5623Z" fill="#FFE11B"/>
<path d="M40.5687 50.7213H40.534L38.9412 50.4229C38.9051 50.4164 38.872 50.3983 38.847 50.3714C38.822 50.3445 38.8063 50.3102 38.8024 50.2737C38.7974 50.2372 38.8041 50.2 38.8215 50.1676C38.839 50.1351 38.8663 50.1091 38.8996 50.0932L40.3675 49.3992C40.3921 49.3864 40.4195 49.3798 40.4473 49.3798C40.4751 49.3798 40.5024 49.3864 40.5271 49.3992C40.5508 49.413 40.5709 49.4321 40.586 49.4549C40.6011 49.4778 40.6106 49.5039 40.6139 49.5311L40.7388 50.5131C40.7422 50.5376 40.7404 50.5625 40.7335 50.5862C40.7266 50.6099 40.7147 50.6318 40.6986 50.6505C40.6825 50.6693 40.6626 50.6843 40.6402 50.6948C40.6178 50.7052 40.5934 50.7107 40.5687 50.7109V50.7213ZM39.5277 50.1765L40.3571 50.3327L40.2946 49.8191L39.5277 50.1765Z" fill="#040047"/>
<path d="M49.2223 52.8728C49.2223 52.8728 47.0499 50.1765 46.4149 49.1806C45.3738 47.5565 47.9314 46.1199 48.844 46.8C49.4999 47.2824 52.8798 50.2702 53.56 50.9122" fill="white"/>
<path d="M49.2238 53.0464C49.1977 53.0465 49.1719 53.0406 49.1484 53.0292C49.1249 53.0178 49.1044 53.0011 49.0884 52.9804C49.0017 52.8729 46.9057 50.2668 46.2706 49.2708C46.0527 48.9381 45.9674 48.5357 46.0316 48.1432C46.0959 47.7506 46.305 47.3964 46.6176 47.1505C47.2596 46.5502 48.3527 46.2101 48.9774 46.6612C49.602 47.1124 53.0201 50.1314 53.7072 50.7873C53.7239 50.803 53.7372 50.8219 53.7466 50.8427C53.7559 50.8636 53.7611 50.8862 53.7617 50.909C53.7624 50.9319 53.7585 50.9547 53.7503 50.9761C53.7422 50.9975 53.7299 51.017 53.7142 51.0337C53.6985 51.0503 53.6796 51.0637 53.6587 51.073C53.6378 51.0824 53.6153 51.0875 53.5924 51.0882C53.5695 51.0888 53.5468 51.085 53.5254 51.0768C53.504 51.0686 53.4844 51.0563 53.4678 51.0406C52.7738 50.3882 49.4146 47.4143 48.7692 46.9423C48.3527 46.637 47.4401 46.8556 46.8536 47.4039C46.6074 47.6004 46.4427 47.8812 46.3914 48.192C46.3401 48.5029 46.4059 48.8217 46.576 49.0869C47.2006 50.0655 49.3522 52.7375 49.373 52.7653C49.3877 52.7827 49.3987 52.8029 49.4054 52.8246C49.4122 52.8464 49.4145 52.8692 49.4122 52.8919C49.41 52.9145 49.4032 52.9365 49.3923 52.9565C49.3813 52.9765 49.3665 52.9941 49.3487 53.0082C49.3315 53.0227 49.3116 53.0335 49.2901 53.0401C49.2686 53.0466 49.2461 53.0488 49.2238 53.0464Z" fill="#040047"/>
<path d="M71.0084 58.7548L59.123 67.7738L64.651 82.536L85.8296 81.4984L71.0084 58.7548Z" fill="#040047"/>
<path d="M64.6512 82.7095C64.6159 82.7097 64.5814 82.6992 64.5523 82.6794C64.5231 82.6595 64.5007 82.6313 64.4881 82.5984L58.9601 67.8363C58.9465 67.8017 58.9445 67.7637 58.9546 67.728C58.9646 67.6923 58.986 67.6609 59.0156 67.6385L70.901 58.616C70.9199 58.6014 70.9419 58.591 70.9652 58.5856C70.9886 58.5802 71.0128 58.5799 71.0363 58.5848C71.0596 58.5888 71.0819 58.5977 71.1016 58.6108C71.1213 58.624 71.1381 58.6411 71.1508 58.6611L85.9685 81.4047C85.986 81.4299 85.9965 81.4594 85.9986 81.49C86.0007 81.5207 85.9946 81.5513 85.9807 81.5787C85.9668 81.6061 85.9457 81.6293 85.9198 81.6457C85.8938 81.6621 85.8639 81.6711 85.8332 81.6719L64.665 82.7129L64.6512 82.7095ZM59.3314 67.8363L64.7691 82.359L85.5174 81.3422L70.9634 59.022L59.3314 67.8363Z" fill="#040047"/>
</svg>
