<svg width="100" height="70" viewBox="0 0 100 70" fill="none" xmlns="http://www.w3.org/2000/svg">
<path d="M49.8232 69.1216C61.3122 69.1216 70.6259 68.7279 70.6259 68.2422C70.6259 67.7565 61.3122 67.3628 49.8232 67.3628C38.3342 67.3628 29.0205 67.7565 29.0205 68.2422C29.0205 68.7279 38.3342 69.1216 49.8232 69.1216Z" fill="#E6E7E8"/>
<path d="M54.987 24.9665C54.9526 24.8955 54.9457 24.8144 54.9676 24.7387L63.9176 3.36718C63.9402 3.31262 63.9854 3.32546 64.0208 3.39928C71.4163 19.1767 92.5737 2.09946 99.9691 17.8769C100.002 17.9495 100.009 18.0311 99.9885 18.108L91.0385 39.4795C91.0159 39.534 90.9676 39.518 90.9353 39.4474C83.5431 23.6699 62.3824 40.744 54.987 24.9665Z" fill="white"/>
<path d="M99.9276 17.9764L90.9776 39.3479C83.579 23.5704 62.4247 40.6477 55.0293 24.8702L63.9793 3.49872C71.3747 19.273 92.5322 2.21495 99.9276 17.9764Z" fill="#040047"/>
<path d="M65.0913 10.874C64.0068 9.76204 63.125 8.47077 62.4854 7.05796L63.9786 3.49872C64.6168 4.9106 65.4976 6.20088 66.5814 7.3115L65.0913 10.874Z" fill="#FFE11B"/>
<path d="M66.8648 16.6701C65.6448 16.13 64.5368 15.3681 63.5977 14.4236L65.0909 10.8643C66.0296 11.8079 67.1364 12.5697 68.3549 13.1109L66.8648 16.6701Z" fill="#FFE11B"/>
<path d="M72.1151 14.1636C70.8193 13.9829 69.5541 13.6277 68.3545 13.1077L69.8478 9.54846C71.0466 10.067 72.3106 10.4211 73.6052 10.6011L72.1151 14.1636Z" fill="#FFE11B"/>
<path d="M74.7149 17.9893C73.3464 18.0071 71.9784 17.9246 70.6221 17.7421L72.1153 14.1797C73.4702 14.3675 74.8371 14.4554 76.2049 14.4429L74.7149 17.9893Z" fill="#FFE11B"/>
<path d="M80.4582 14.2984C79.0326 14.3626 77.6038 14.43 76.2041 14.4268L77.6974 10.8675C79.0971 10.8675 80.5227 10.8034 81.9514 10.736L80.4582 14.2984Z" fill="#FFE11B"/>
<path d="M83.2199 17.7421C81.8202 17.7421 80.3946 17.8063 78.9658 17.8705L80.4559 14.3081C81.8847 14.2439 83.3134 14.1797 84.7132 14.1797L83.2199 17.7421Z" fill="#FFE11B"/>
<path d="M88.8064 14.4364C87.4518 14.2461 86.0848 14.157 84.7168 14.17L86.2068 10.6076C87.5813 10.5938 88.9548 10.6828 90.3158 10.874L88.8064 14.4364Z" fill="#FFE11B"/>
<path d="M91.0741 19.0515C89.8744 18.5315 88.6093 18.1763 87.3135 17.9956L88.8067 14.4364C90.1052 14.6164 91.3727 14.9727 92.5738 15.4955L91.0741 19.0515Z" fill="#FFE11B"/>
<path d="M95.8307 17.7421C94.8946 16.7983 93.7899 16.0364 92.5732 15.4955L94.0633 11.933C95.2822 12.4752 96.3898 13.2368 97.3304 14.1796L95.8307 17.7421Z" fill="#FFE11B"/>
<path d="M96.9429 25.1013C96.3065 23.6877 95.4243 22.3969 94.3369 21.2885L95.8302 17.7421C96.9155 18.8516 97.7965 20.1421 98.433 21.5549L96.9429 25.1013Z" fill="#FFE11B"/>
<path d="M62.107 17.9957C61.0217 16.8855 60.1397 15.5952 59.501 14.1829L60.9943 10.6204C61.6308 12.0332 62.5117 13.3238 63.597 14.4332L62.107 17.9957Z" fill="#FFE11B"/>
<path d="M63.8684 23.7951C62.6506 23.2528 61.544 22.4912 60.6045 21.5485L62.0978 17.986C63.0358 18.9304 64.1427 19.6923 65.3617 20.2326L63.8684 23.7951Z" fill="#FFE11B"/>
<path d="M69.1327 21.2725C67.8367 21.0944 66.5713 20.7402 65.3721 20.2198L66.8653 16.6573C68.0624 17.1873 69.3265 17.5522 70.6227 17.7421L69.1327 21.2725Z" fill="#FFE11B"/>
<path d="M71.7292 25.1238C70.3612 25.1368 68.9942 25.0477 67.6396 24.8574L69.1329 21.2949C70.4875 21.4854 71.8545 21.5744 73.2225 21.5613L71.7292 25.1238Z" fill="#FFE11B"/>
<path d="M77.4767 21.4233C76.0512 21.4875 74.6224 21.5517 73.2227 21.5517L74.7159 17.9892C76.1157 17.9892 77.5412 17.925 78.97 17.8608L77.4767 21.4233Z" fill="#FFE11B"/>
<path d="M80.2394 24.8574C78.8397 24.8574 77.4109 24.9215 75.9854 24.9857L77.4754 21.4233C78.9042 21.3591 80.333 21.2917 81.7327 21.2949L80.2394 24.8574Z" fill="#FFE11B"/>
<path d="M85.823 21.5581C84.4681 21.3704 83.1012 21.2824 81.7334 21.2949L83.2202 17.7421C84.5881 17.7295 85.955 17.8175 87.3098 18.0053L85.823 21.5581Z" fill="#FFE11B"/>
<path d="M88.0897 26.1765C86.8904 25.6561 85.6251 25.3019 84.3291 25.1238L85.8224 21.5613C87.1181 21.7424 88.3832 22.0976 89.583 22.6172L88.0897 26.1765Z" fill="#FFE11B"/>
<path d="M92.8469 24.8477C91.9082 23.9041 90.8015 23.1423 89.583 22.6011L91.0731 19.0387C92.292 19.579 93.399 20.3409 94.337 21.2853L92.8469 24.8477Z" fill="#FFE11B"/>
<path d="M93.9605 32.223C93.3201 30.8116 92.4383 29.5215 91.3545 28.4102L92.8478 24.8478C93.9314 25.9561 94.8122 27.2443 95.4505 28.6541L93.9605 32.223Z" fill="#FFE11B"/>
<path d="M59.1245 25.1238C58.04 24.0131 57.1581 22.7229 56.5186 21.311L58.0118 17.7421C58.6483 19.1549 59.5293 20.4455 60.6146 21.5549L59.1245 25.1238Z" fill="#FFE11B"/>
<path d="M60.8958 30.9199C59.6779 30.3777 58.5713 29.616 57.6318 28.6734L59.1251 25.1109C60.064 26.0543 61.1707 26.816 62.389 27.3575L60.8958 30.9199Z" fill="#FFE11B"/>
<path d="M66.1493 28.4102C64.8542 28.2347 63.5891 27.8849 62.3887 27.3704L63.8787 23.8079C65.0781 24.3279 66.3434 24.6821 67.6393 24.8606L66.1493 28.4102Z" fill="#FFE11B"/>
<path d="M68.7449 32.239C67.3769 32.2504 66.01 32.1614 64.6553 31.9726L66.1486 28.4102C67.5031 28.6006 68.8702 28.6897 70.2381 28.6765L68.7449 32.239Z" fill="#FFE11B"/>
<path d="M74.4933 28.5482C73.0678 28.6124 71.639 28.6766 70.2393 28.6766L71.7293 25.1142C73.1323 25.1142 74.5578 25.05 75.9866 24.9858L74.4933 28.5482Z" fill="#FFE11B"/>
<path d="M77.257 31.9791C75.8573 31.9791 74.4285 32.0433 73.0029 32.1074L74.493 28.5482C75.9218 28.4808 77.3505 28.4166 78.7503 28.4166L77.257 31.9791Z" fill="#FFE11B"/>
<path d="M82.8386 28.683C81.4839 28.4942 80.117 28.4052 78.749 28.4166L80.2391 24.8574C81.6069 24.8448 82.9739 24.9328 84.3287 25.1206L82.8386 28.683Z" fill="#FFE11B"/>
<path d="M85.1073 33.2981C83.9075 32.7792 82.6424 32.425 81.3467 32.2454L82.84 28.683C84.1356 28.863 85.4006 29.2171 86.6006 29.7357L85.1073 33.2981Z" fill="#FFE11B"/>
<path d="M89.8645 31.9726C88.925 31.0299 87.8184 30.2683 86.6006 29.726L88.0906 26.1668C89.3091 26.708 90.4158 27.4698 91.3546 28.4134L89.8645 31.9726Z" fill="#FFE11B"/>
<path d="M90.9772 39.3479C90.3405 37.9367 89.462 36.6466 88.3809 35.5351L89.8741 31.9727C90.958 33.0833 91.8388 34.3736 92.4769 35.7854L90.9772 39.3479Z" fill="#FFE11B"/>
<path d="M64.6657 1.65977C64.6657 1.7923 64.6383 1.92341 64.585 2.0449L64.0174 3.39606L54.9706 24.9216L52.7839 30.1273L46.6173 44.8007L37.0287 67.6196C36.9849 67.7513 36.9142 67.8725 36.8211 67.9758C36.728 68.079 36.6145 68.162 36.4877 68.2195C36.3608 68.2771 36.2234 68.308 36.084 68.3103C35.9447 68.3126 35.8063 68.2862 35.6777 68.2328C35.549 68.1794 35.4328 68.1002 35.3364 68C35.2399 67.8999 35.1652 67.781 35.1171 67.6509C35.0689 67.5207 35.0483 67.3821 35.0564 67.2436C35.0646 67.1051 35.1014 66.9698 35.1646 66.8461L45.4337 42.4097L51.6358 27.6464L62.7208 1.26822C62.8153 1.06039 62.9778 0.890593 63.1817 0.786571C63.3857 0.682549 63.6191 0.650459 63.8438 0.695548C64.0685 0.740637 64.2712 0.860238 64.4187 1.0348C64.5662 1.20936 64.6499 1.42856 64.656 1.65656L64.6657 1.65977Z" fill="white"/>
<path d="M63.6522 0.648773C63.7854 0.648727 63.9172 0.676042 64.0393 0.729008C64.2241 0.805535 64.3821 0.934704 64.4934 1.10029C64.6048 1.26588 64.6644 1.46051 64.665 1.65974C64.665 1.79227 64.6376 1.92338 64.5843 2.04487L64.0167 3.39603L54.9699 24.9216L52.7832 30.1272L46.6166 44.8006L37.028 67.6196C36.9521 67.8039 36.8224 67.9614 36.6557 68.0718C36.489 68.1822 36.2929 68.2404 36.0927 68.239C35.9268 68.2378 35.7637 68.1962 35.6178 68.1176C35.4719 68.039 35.3476 67.926 35.2559 67.7885C35.1641 67.6509 35.1078 67.493 35.0917 67.3287C35.0757 67.1644 35.1004 66.9987 35.1638 66.8461L45.433 42.4096L51.6351 27.6463L62.7202 1.26819C62.7967 1.084 62.9264 0.926532 63.0929 0.815705C63.2594 0.704878 63.4552 0.645668 63.6555 0.645563L63.6522 0.648773ZM63.6555 0.353506C63.3971 0.351199 63.144 0.42614 62.9289 0.568623C62.7139 0.711106 62.5468 0.914566 62.4492 1.15265L51.3641 27.534L45.1588 42.2973L34.8929 66.7338C34.7611 67.0523 34.7609 67.4097 34.8926 67.7283C35.0243 68.0468 35.2771 68.3008 35.596 68.4348C35.7544 68.5007 35.9243 68.5345 36.0959 68.5342C36.3548 68.5372 36.6087 68.4626 36.8244 68.32C37.0401 68.1775 37.2077 67.9737 37.3054 67.7351L46.894 44.9162L53.0574 30.2588L55.2441 25.0531C55.2441 25.0531 55.2441 25.0531 55.2441 25.0307L64.2747 3.52761L64.8456 2.17645C64.9328 1.97909 64.9687 1.76304 64.95 1.54823C64.9312 1.33343 64.8583 1.12679 64.7381 0.947384C64.6179 0.76798 64.4543 0.62159 64.2622 0.521724C64.0702 0.421858 63.856 0.371732 63.6393 0.375972L63.6555 0.353506Z" fill="#040047"/>
<path d="M48.8879 39.4057L50.4134 35.7758C50.0747 35.2527 49.749 34.7199 49.4458 34.1711C49.4111 34.1392 49.3788 34.1049 49.3491 34.0684C49.2555 33.9561 49.1685 33.8373 49.0814 33.7218L48.0654 36.1224C48.388 37.2072 48.6556 38.3016 48.8879 39.4057Z" fill="#D1D3D4"/>
<path d="M45.014 24.9665C45.0484 24.8955 45.0553 24.8144 45.0334 24.7387L36.0834 3.36718C36.0608 3.31262 36.0157 3.32546 35.9802 3.39928C28.5847 19.1767 7.42729 2.09946 0.0318502 17.8769C-0.00106796 17.9495 -0.00790141 18.0311 0.0124984 18.108L8.96249 39.4795C8.98507 39.534 9.03345 39.518 9.0657 39.4474C16.4579 23.6699 37.6186 40.744 45.014 24.9665Z" fill="white"/>
<path d="M0.0742188 17.9764C7.46965 2.19891 28.6271 19.2601 36.0226 3.49872L44.9725 24.8702C37.5771 40.6477 16.4229 23.5864 9.02421 39.3479L0.0742188 17.9764Z" fill="#040047"/>
<path d="M34.909 10.874C35.9936 9.76204 36.8754 8.47077 37.515 7.05796L36.0217 3.49872C35.3836 4.9106 34.5028 6.20088 33.4189 7.3115L34.909 10.874Z" fill="#FFE11B"/>
<path d="M33.1356 16.6702C34.3555 16.13 35.4635 15.3681 36.4027 14.4236L34.9094 10.874C33.9707 11.8176 32.864 12.5794 31.6455 13.1206L33.1356 16.6702Z" fill="#FFE11B"/>
<path d="M27.8846 14.1636C29.1804 13.9829 30.4456 13.6277 31.6452 13.1077L30.1519 9.54846C28.9531 10.067 27.6891 10.4211 26.3945 10.6011L27.8846 14.1636Z" fill="#FFE11B"/>
<path d="M25.285 17.9893C26.6535 18.0071 28.0215 17.9246 29.3778 17.7421L27.8845 14.1797C26.5297 14.3675 25.1628 14.4554 23.7949 14.4429L25.285 17.9893Z" fill="#FFE11B"/>
<path d="M19.5411 14.2984C20.9667 14.3626 22.3955 14.43 23.7952 14.4268L22.3019 10.8675C20.9022 10.8675 19.4766 10.8034 18.0479 10.736L19.5411 14.2984Z" fill="#FFE11B"/>
<path d="M16.7804 17.7421C18.1801 17.7421 19.6057 17.8063 21.0345 17.8705L19.5444 14.3081C18.1156 14.2439 16.6869 14.1797 15.2871 14.1797L16.7804 17.7421Z" fill="#FFE11B"/>
<path d="M11.1945 14.4364C12.549 14.246 13.9161 14.157 15.284 14.17L13.794 10.6076C12.4249 10.5945 11.0568 10.6836 9.70117 10.874L11.1945 14.4364Z" fill="#FFE11B"/>
<path d="M8.92746 19.0515C10.1271 18.5315 11.3922 18.1763 12.6881 17.9956L11.1948 14.4364C9.89635 14.6164 8.62885 14.9727 7.42773 15.4955L8.92746 19.0515Z" fill="#FFE11B"/>
<path d="M4.17004 17.7421C5.10616 16.7983 6.21084 16.0365 7.42751 15.4955L5.94391 11.9266C4.72505 12.4688 3.61739 13.2304 2.67676 14.1732L4.17004 17.7421Z" fill="#FFE11B"/>
<path d="M3.05743 25.1013C3.6938 23.6877 4.576 22.3969 5.66341 21.2885L4.17013 17.7421C3.08487 18.8516 2.2039 20.1421 1.56738 21.5549L3.05743 25.1013Z" fill="#FFE11B"/>
<path d="M37.8934 17.9957C38.9787 16.8855 39.8606 15.5952 40.4993 14.1829L39.0061 10.6204C38.3696 12.0332 37.4886 13.3238 36.4033 14.4332L37.8934 17.9957Z" fill="#FFE11B"/>
<path d="M36.131 23.7951C37.3488 23.2528 38.4554 22.4912 39.3949 21.5485L37.9016 17.986C36.9636 18.9304 35.8567 19.6923 34.6377 20.2326L36.131 23.7951Z" fill="#FFE11B"/>
<path d="M30.868 21.2725C32.164 21.0944 33.4293 20.7402 34.6286 20.2198L33.1353 16.6573C31.9382 17.1873 30.6741 17.5522 29.3779 17.7421L30.868 21.2725Z" fill="#FFE11B"/>
<path d="M28.2716 25.1238C29.6396 25.1368 31.0066 25.0477 32.3612 24.8574L30.8679 21.2725C29.5133 21.4629 28.1463 21.552 26.7783 21.5388L28.2716 25.1238Z" fill="#FFE11B"/>
<path d="M22.5245 21.4233C23.9501 21.4875 25.3789 21.5517 26.7786 21.5517L25.2853 17.9892C23.8856 17.9892 22.46 17.925 21.0312 17.8608L22.5245 21.4233Z" fill="#FFE11B"/>
<path d="M19.7609 24.8574C21.1606 24.8574 22.5894 24.9215 24.0149 24.9857L22.5249 21.4233C21.0961 21.3591 19.6673 21.2917 18.2676 21.2949L19.7609 24.8574Z" fill="#FFE11B"/>
<path d="M14.1782 21.5581C15.5331 21.3704 16.9 21.2824 18.2678 21.2949L16.781 17.7421C15.4131 17.7295 14.0462 17.8175 12.6914 18.0053L14.1782 21.5581Z" fill="#FFE11B"/>
<path d="M11.9103 26.1765C13.1095 25.6561 14.3749 25.3019 15.6709 25.1238L14.1776 21.5613C12.8818 21.7424 11.6168 22.0976 10.417 22.6172L11.9103 26.1765Z" fill="#FFE11B"/>
<path d="M7.15314 24.8477C8.09186 23.9041 9.19862 23.1423 10.4171 22.6011L8.92701 19.0387C7.70805 19.579 6.60112 20.3409 5.66309 21.2853L7.15314 24.8477Z" fill="#FFE11B"/>
<path d="M6.04083 32.223C6.68121 30.8116 7.56296 29.5215 8.64681 28.4102L7.15353 24.8478C6.06992 25.9561 5.18911 27.2443 4.55078 28.6541L6.04083 32.223Z" fill="#FFE11B"/>
<path d="M40.8758 25.1238C41.9604 24.0131 42.8422 22.7229 43.4818 21.311L41.9885 17.7421C41.352 19.1549 40.471 20.4455 39.3857 21.5549L40.8758 25.1238Z" fill="#FFE11B"/>
<path d="M39.1056 30.92C40.3234 30.3778 41.43 29.6161 42.3695 28.6734L40.8762 25.1238C39.9373 26.0672 38.8306 26.8289 37.6123 27.3704L39.1056 30.92Z" fill="#FFE11B"/>
<path d="M33.8515 28.4102C35.1465 28.2347 36.4117 27.8849 37.6121 27.3703L36.1317 23.795C34.9323 24.315 33.667 24.6692 32.3711 24.8477L33.8515 28.4102Z" fill="#FFE11B"/>
<path d="M31.256 32.239C32.6239 32.2504 33.9908 32.1614 35.3456 31.9726L33.8523 28.4102C32.4977 28.6006 31.1307 28.6897 29.7627 28.6765L31.256 32.239Z" fill="#FFE11B"/>
<path d="M25.5079 28.5482C26.9335 28.6124 28.3622 28.6766 29.762 28.6766L28.2719 25.1237C26.869 25.1237 25.4434 25.0595 24.0146 24.9954L25.5079 28.5482Z" fill="#FFE11B"/>
<path d="M22.7433 31.9791C24.143 31.9791 25.5718 32.0433 26.9973 32.1074L25.5073 28.5482C24.0785 28.4808 22.6497 28.4166 21.25 28.4166L22.7433 31.9791Z" fill="#FFE11B"/>
<path d="M17.161 28.683C18.5157 28.4942 19.8826 28.4052 21.2505 28.4166L19.7605 24.8574C18.3926 24.8448 17.0257 24.9328 15.6709 25.1206L17.161 28.683Z" fill="#FFE11B"/>
<path d="M14.8937 33.2981C16.0934 32.7792 17.3586 32.425 18.6543 32.2454L17.161 28.683C15.8654 28.863 14.6003 29.2171 13.4004 29.7357L14.8937 33.2981Z" fill="#FFE11B"/>
<path d="M10.1365 31.9727C11.076 31.03 12.1826 30.2683 13.4005 29.7261L11.9104 26.1765C10.692 26.7176 9.5852 27.4794 8.64648 28.423L10.1365 31.9727Z" fill="#FFE11B"/>
<path d="M9.03929 39.3479C9.67108 37.9379 10.5441 36.6478 11.6195 35.5351L10.1262 31.9727C9.04237 33.0833 8.16158 34.3736 7.52344 35.7854L9.03929 39.3479Z" fill="#FFE11B"/>
<path d="M64.2942 68.1652C64.5413 68.061 64.7369 67.8639 64.8384 67.6168C64.9399 67.3697 64.9391 67.0926 64.8361 66.8461L37.283 1.26818C37.1777 1.02293 36.9794 0.828988 36.7311 0.728601C36.4828 0.628213 36.2047 0.629509 35.9574 0.732207C35.7098 0.835726 35.5134 1.03261 35.4113 1.2798C35.3092 1.52698 35.3095 1.80436 35.4124 2.05128L62.9687 67.6292C63.0739 67.8745 63.2723 68.0684 63.5205 68.1688C63.7688 68.2692 64.0469 68.2679 64.2942 68.1652Z" fill="white"/>
<path d="M36.3483 0.648737C36.5483 0.648578 36.7438 0.707314 36.9102 0.817543C37.0767 0.927773 37.2066 1.08456 37.2837 1.26815L64.8367 66.8461C64.9396 67.093 64.9399 67.3704 64.8378 67.6176C64.7356 67.8647 64.5393 68.0616 64.2917 68.1651C64.1677 68.2153 64.0352 68.2414 63.9014 68.2422C63.7015 68.2423 63.506 68.1836 63.3395 68.0734C63.1731 67.9631 63.0431 67.8063 62.9661 67.6227L35.413 2.04483C35.3122 1.79867 35.3129 1.52289 35.4149 1.27722C35.5169 1.03154 35.7121 0.83573 35.9581 0.732181C36.0821 0.682025 36.2145 0.655881 36.3483 0.655154V0.648737ZM36.3483 0.363098C36.1756 0.362413 36.0045 0.396246 35.8452 0.46259C35.5253 0.59585 35.2713 0.849692 35.1389 1.16866C35.0724 1.32615 35.0381 1.49528 35.0381 1.66612C35.0381 1.83696 35.0724 2.00608 35.1389 2.16358L62.6952 67.7415C62.7927 67.9796 62.9598 68.183 63.1749 68.3255C63.39 68.468 63.6431 68.5429 63.9014 68.5406C64.0741 68.5413 64.2452 68.5075 64.4046 68.4411C64.7245 68.3079 64.9784 68.054 65.1109 67.7351C65.1774 67.5776 65.2117 67.4085 65.2117 67.2376C65.2117 67.0668 65.1774 66.8977 65.1109 66.7402L37.5546 1.15582C37.457 0.917739 37.2899 0.714279 37.0749 0.571796C36.8598 0.429313 36.6067 0.354373 36.3483 0.35668V0.363098Z" fill="#040047"/>
<path d="M45.0143 25.1238C44.9799 25.1243 44.9464 25.1127 44.9198 25.0909C44.8933 25.0692 44.8753 25.0387 44.8692 25.005C44.8692 24.9665 44.7208 24.0903 46.5173 23.3522L47.3591 22.261C47.3827 22.2301 47.4177 22.2098 47.4563 22.2044C47.4949 22.199 47.5342 22.2089 47.5655 22.2321C47.5809 22.2437 47.5939 22.2583 47.6036 22.275C47.6133 22.2917 47.6195 22.3102 47.6219 22.3294C47.6244 22.3485 47.6229 22.3679 47.6176 22.3865C47.6123 22.4051 47.6034 22.4224 47.5913 22.4375L46.7237 23.5608C46.7087 23.5827 46.6873 23.5996 46.6624 23.6089C45.0788 24.2508 45.1595 24.9472 45.1595 24.9537C45.1627 24.9727 45.162 24.9921 45.1576 25.0108C45.1531 25.0296 45.1449 25.0473 45.1335 25.0628C45.1221 25.0784 45.1077 25.0915 45.0911 25.1014C45.0745 25.1113 45.0561 25.1178 45.0369 25.1206L45.0143 25.1238Z" fill="#040047"/>
<path d="M35.9806 3.54686C35.9479 3.54552 35.9164 3.53433 35.8903 3.51476C35.8598 3.49073 35.84 3.45574 35.8351 3.41732C35.8303 3.3789 35.8408 3.34013 35.8645 3.30936C36.1867 2.89786 36.6428 2.61078 37.1546 2.49738C37.4151 2.46465 37.679 2.52126 37.9028 2.65785L38.3221 1.69503C38.3377 1.65945 38.3667 1.63142 38.403 1.617C38.4392 1.60259 38.4796 1.60295 38.5156 1.618C38.5333 1.62565 38.5493 1.63673 38.5626 1.6506C38.576 1.66447 38.5864 1.68085 38.5933 1.69878C38.6002 1.71671 38.6035 1.73584 38.6029 1.75503C38.6023 1.77422 38.5978 1.7931 38.5898 1.81057L38.0996 2.92423C38.0913 2.94486 38.0783 2.96321 38.0614 2.97773C38.0446 2.99226 38.0245 3.00253 38.0028 3.00768C37.9808 3.01381 37.9576 3.01468 37.9352 3.01022C37.9128 3.00576 37.8917 2.99609 37.8738 2.982C37.78 2.90297 37.671 2.84396 37.5534 2.80863C37.4357 2.77329 37.3121 2.76239 37.19 2.7766C36.76 2.88389 36.3778 3.12993 36.1031 3.47625C36.09 3.49706 36.072 3.51437 36.0506 3.52667C36.0293 3.53898 36.0052 3.54591 35.9806 3.54686Z" fill="#040047"/>
<path d="M46.6082 23.6089C46.5734 23.6066 46.5406 23.5922 46.5155 23.5683C46.4904 23.5443 46.4745 23.5124 46.4706 23.4779C46.4668 23.4435 46.4752 23.4088 46.4945 23.38C46.5137 23.3511 46.5426 23.3299 46.5759 23.3201L48.0402 22.9991C48.076 22.9959 48.1118 23.0057 48.1409 23.0268C48.1701 23.0479 48.1905 23.0788 48.1984 23.1138C48.2062 23.1488 48.2011 23.1854 48.1839 23.2168C48.1666 23.2483 48.1385 23.2725 48.1047 23.2848L46.6404 23.6057L46.6082 23.6089Z" fill="#040047"/>
<path d="M39.3864 3.02695H37.9609C37.9215 3.02695 37.8838 3.0114 37.856 2.98371C37.8281 2.95603 37.8125 2.91848 37.8125 2.87932C37.8125 2.84017 37.8281 2.80262 37.856 2.77493C37.8838 2.74724 37.9215 2.73169 37.9609 2.73169H39.3864C39.4258 2.73169 39.4635 2.74724 39.4913 2.77493C39.5191 2.80262 39.5348 2.84017 39.5348 2.87932C39.5348 2.91848 39.5191 2.95603 39.4913 2.98371C39.4635 3.0114 39.4258 3.02695 39.3864 3.02695Z" fill="#040047"/>
<path d="M54.9701 25.0724C54.9373 25.072 54.9056 25.0607 54.8799 25.0403C54.8542 25.02 54.8361 24.9918 54.8282 24.9601C54.7399 24.6283 54.5252 24.3438 54.2295 24.167C53.9338 23.9902 53.5805 23.9351 53.2446 24.0133C53.2239 24.0157 53.2029 24.0138 53.1829 24.0077C53.1629 24.0017 53.1444 23.9915 53.1285 23.978L52.2577 23.2527C52.228 23.2272 52.2093 23.1912 52.2057 23.1523C52.2021 23.1134 52.2138 23.0746 52.2384 23.0441C52.2661 23.0174 52.3031 23.0025 52.3416 23.0025C52.3801 23.0025 52.4171 23.0174 52.4448 23.0441L53.2737 23.7277C53.6742 23.6604 54.0855 23.7441 54.4272 23.9626C54.769 24.181 55.0166 24.5183 55.1217 24.9087C55.1296 24.9465 55.1226 24.9859 55.1022 25.0188C55.0818 25.0516 55.0496 25.0754 55.0121 25.0853L54.9701 25.0724Z" fill="#040047"/>
<path d="M52.3459 24.1802C52.3096 24.179 52.275 24.1647 52.2486 24.1399C52.2222 24.1151 52.2059 24.0815 52.2027 24.0455C52.1995 24.0095 52.2097 23.9736 52.2314 23.9446C52.253 23.9156 52.2846 23.8955 52.3201 23.8881L53.1973 23.7212C53.2357 23.7155 53.2748 23.7246 53.3066 23.7467C53.3384 23.7688 53.3604 23.8022 53.3683 23.84C53.372 23.8587 53.372 23.878 53.3681 23.8968C53.3643 23.9155 53.3568 23.9333 53.346 23.9492C53.3352 23.965 53.3213 23.9785 53.3052 23.989C53.2891 23.9994 53.2711 24.0066 53.2522 24.0101L52.3749 24.177L52.3459 24.1802Z" fill="#040047"/>
<path d="M64.0174 3.54363C63.9952 3.54333 63.9734 3.53831 63.9534 3.5289C63.9333 3.51948 63.9156 3.5059 63.9013 3.48907C63.8819 3.46019 63.3788 2.87287 62.0565 3.02371C62.0284 3.03432 61.9974 3.03432 61.9694 3.02371L60.5438 2.24382C60.5145 2.22272 60.494 2.19168 60.486 2.15654C60.4781 2.12141 60.4833 2.0846 60.5008 2.05305C60.5182 2.02149 60.5467 1.99737 60.5807 1.98522C60.6148 1.97307 60.6521 1.97373 60.6858 1.98707L62.0726 2.74449C63.5304 2.59044 64.1077 3.29009 64.1335 3.32218C64.1575 3.35255 64.1685 3.39107 64.1643 3.42947C64.1601 3.46787 64.1409 3.50309 64.1109 3.52759C64.0823 3.54298 64.0495 3.54862 64.0174 3.54363Z" fill="#040047"/>
<path d="M60.6144 3.34146C60.5808 3.34202 60.5481 3.33072 60.5221 3.30956C60.4962 3.28841 60.4785 3.25877 60.4724 3.22592C60.4682 3.20738 60.4676 3.18817 60.4708 3.1694C60.474 3.15064 60.4809 3.13269 60.4911 3.11658C60.5013 3.10048 60.5145 3.08654 60.5302 3.07556C60.5458 3.06458 60.5634 3.05678 60.5821 3.05262L62.0077 2.73167C62.0462 2.72316 62.0865 2.73021 62.1197 2.75128C62.153 2.77235 62.1765 2.8057 62.1851 2.844C62.1936 2.88231 62.1865 2.92242 62.1653 2.95553C62.1442 2.98863 62.1107 3.01201 62.0722 3.02052L60.6466 3.34146H60.6144Z" fill="#040047"/>
</svg>
