<svg width="104" height="69" viewBox="0 0 104 69" fill="none" xmlns="http://www.w3.org/2000/svg">
<path d="M8.29403 63.2432C8.25011 63.2432 8.20798 63.2258 8.17693 63.1948C8.14587 63.1637 8.12842 63.1217 8.12842 63.0778V5.43709C8.12842 5.39323 8.14587 5.35117 8.17693 5.32016C8.20798 5.28915 8.25011 5.27173 8.29403 5.27173C8.33796 5.27173 8.38008 5.28915 8.41114 5.32016C8.4422 5.35117 8.45965 5.39323 8.45965 5.43709V63.0778C8.45965 63.1217 8.4422 63.1637 8.41114 63.1948C8.38008 63.2258 8.33796 63.2432 8.29403 63.2432Z" fill="#D1D3D4"/>
<path d="M30.7017 63.2432C30.6578 63.2432 30.6157 63.2258 30.5846 63.1948C30.5536 63.1637 30.5361 63.1217 30.5361 63.0778V5.43709C30.5361 5.39323 30.5536 5.35117 30.5846 5.32016C30.6157 5.28915 30.6578 5.27173 30.7017 5.27173C30.7457 5.27173 30.7878 5.28915 30.8189 5.32016C30.8499 5.35117 30.8674 5.39323 30.8674 5.43709V63.0778C30.8674 63.1217 30.8499 63.1637 30.8189 63.1948C30.7878 63.2258 30.7457 63.2432 30.7017 63.2432Z" fill="#D1D3D4"/>
<path d="M53.1095 63.2432C53.0655 63.2432 53.0234 63.2258 52.9924 63.1948C52.9613 63.1637 52.9438 63.1217 52.9438 63.0778V5.43709C52.9438 5.39323 52.9613 5.35117 52.9924 5.32016C53.0234 5.28915 53.0655 5.27173 53.1095 5.27173C53.1534 5.27173 53.1955 5.28915 53.2266 5.32016C53.2576 5.35117 53.2751 5.39323 53.2751 5.43709V63.0778C53.2751 63.1217 53.2576 63.1637 53.2266 63.1948C53.1955 63.2258 53.1534 63.2432 53.1095 63.2432Z" fill="#D1D3D4"/>
<path d="M75.5172 63.2432C75.4733 63.2432 75.4311 63.2258 75.4001 63.1948C75.369 63.1637 75.3516 63.1217 75.3516 63.0778V5.43709C75.3516 5.39323 75.369 5.35117 75.4001 5.32016C75.4311 5.28915 75.4733 5.27173 75.5172 5.27173C75.5611 5.27173 75.6032 5.28915 75.6343 5.32016C75.6653 5.35117 75.6828 5.39323 75.6828 5.43709V63.0778C75.6828 63.1217 75.6653 63.1637 75.6343 63.1948C75.6032 63.2258 75.5611 63.2432 75.5172 63.2432Z" fill="#D1D3D4"/>
<path d="M97.9259 63.2432C97.8819 63.2432 97.8398 63.2258 97.8088 63.1948C97.7777 63.1637 97.7603 63.1217 97.7603 63.0778V5.43709C97.7603 5.39323 97.7777 5.35117 97.8088 5.32016C97.8398 5.28915 97.8819 5.27173 97.9259 5.27173C97.9698 5.27173 98.0119 5.28915 98.043 5.32016C98.074 5.35117 98.0915 5.39323 98.0915 5.43709V63.0778C98.0915 63.1217 98.074 63.1637 98.043 63.1948C98.0119 63.2258 97.9698 63.2432 97.9259 63.2432Z" fill="#D1D3D4"/>
<path d="M97.9252 5.60244H8.29403C8.25011 5.60244 8.20798 5.58502 8.17693 5.55401C8.14587 5.523 8.12842 5.48094 8.12842 5.43709C8.12842 5.39323 8.14587 5.35117 8.17693 5.32016C8.20798 5.28915 8.25011 5.27173 8.29403 5.27173H97.9252C97.9692 5.27173 98.0113 5.28915 98.0423 5.32016C98.0734 5.35117 98.0909 5.39323 98.0909 5.43709C98.0909 5.48094 98.0734 5.523 98.0423 5.55401C98.0113 5.58502 97.9692 5.60244 97.9252 5.60244Z" fill="#D1D3D4"/>
<path d="M97.9252 24.6681H8.29403C8.25011 24.6681 8.20798 24.6507 8.17693 24.6197C8.14587 24.5887 8.12842 24.5466 8.12842 24.5028C8.12842 24.4589 8.14587 24.4168 8.17693 24.3858C8.20798 24.3548 8.25011 24.3374 8.29403 24.3374H97.9252C97.9692 24.3374 98.0113 24.3548 98.0423 24.3858C98.0734 24.4168 98.0909 24.4589 98.0909 24.5028C98.0909 24.5466 98.0734 24.5887 98.0423 24.6197C98.0113 24.6507 97.9692 24.6681 97.9252 24.6681Z" fill="#D1D3D4"/>
<path d="M97.9252 43.7174H8.29403C8.25011 43.7174 8.20798 43.7 8.17693 43.669C8.14587 43.638 8.12842 43.5959 8.12842 43.5521C8.12842 43.5082 8.14587 43.4662 8.17693 43.4351C8.20798 43.4041 8.25011 43.3867 8.29403 43.3867H97.9252C97.9692 43.3867 98.0113 43.4041 98.0423 43.4351C98.0734 43.4662 98.0909 43.5082 98.0909 43.5521C98.0909 43.5959 98.0734 43.638 98.0423 43.669C98.0113 43.7 97.9692 43.7174 97.9252 43.7174Z" fill="#D1D3D4"/>
<path d="M103.039 63.4084H0.165616C0.121692 63.4084 0.0795666 63.3909 0.0485076 63.3599C0.0174486 63.3289 0 63.2869 0 63.243C0 63.1991 0.0174486 63.1571 0.0485076 63.1261C0.0795666 63.0951 0.121692 63.0776 0.165616 63.0776H103.039C103.083 63.0776 103.126 63.0951 103.157 63.1261C103.188 63.1571 103.205 63.1991 103.205 63.243C103.205 63.2869 103.188 63.3289 103.157 63.3599C103.126 63.3909 103.083 63.4084 103.039 63.4084Z" fill="#D1D3D4"/>
<path d="M2.16943 63.2431H29.7345L90.2571 19.0592L94.5863 24.9923L101.655 0.724271L76.3487 0L80.6779 5.93307L2.16943 63.2431Z" fill="#FFE11B"/>
<path d="M14.0547 60.9844V65.0621C14.0547 66.6066 18.4733 67.86 23.9254 67.86C29.3774 67.86 33.7928 66.6066 33.7928 65.0621V60.9844H14.0547Z" fill="white"/>
<path d="M23.925 68.0252C18.2941 68.0252 13.8887 66.7222 13.8887 65.0487V60.9842C13.8887 60.9404 13.9061 60.8983 13.9372 60.8673C13.9682 60.8363 14.0104 60.8188 14.0543 60.8188H33.7924C33.8363 60.8188 33.8784 60.8363 33.9095 60.8673C33.9405 60.8983 33.958 60.9404 33.958 60.9842V65.062C33.958 66.7222 29.5526 68.0252 23.925 68.0252ZM14.2199 61.1496V65.062C14.2199 66.3319 18.1185 67.7077 23.925 67.7077C29.7315 67.7077 33.6267 66.3451 33.6267 65.062V61.1496H14.2199Z" fill="#040047"/>
<path d="M23.9254 63.7788C29.3768 63.7788 33.7961 62.5277 33.7961 60.9843C33.7961 59.4409 29.3768 58.1897 23.9254 58.1897C18.4739 58.1897 14.0547 59.4409 14.0547 60.9843C14.0547 62.5277 18.4739 63.7788 23.9254 63.7788Z" fill="#040047"/>
<path d="M23.9246 63.9276C18.2937 63.9276 13.9082 62.6345 13.9082 60.9843C13.9082 59.334 18.307 58.0442 23.9246 58.0442C29.5423 58.0442 33.9378 59.3373 33.9378 60.9843C33.9378 62.6312 29.539 63.9276 23.9246 63.9276ZM23.9246 58.3352C18.1082 58.3352 14.1997 59.7044 14.1997 60.981C14.1997 62.2575 18.1082 63.6267 23.9246 63.6267C29.7411 63.6267 33.6463 62.2575 33.6463 60.981C33.6463 59.7044 29.7411 58.3352 23.9246 58.3352Z" fill="#040047"/>
<path d="M16.3794 55.3953V59.473C16.3794 61.0175 20.798 62.2676 26.2468 62.2676C31.6955 62.2676 36.1175 61.0175 36.1175 59.473V55.3953H16.3794Z" fill="white"/>
<path d="M26.2469 62.4328C20.6159 62.4328 16.2139 61.1331 16.2139 59.4728V55.3951C16.2139 55.3512 16.2313 55.3092 16.2624 55.2782C16.2934 55.2472 16.3356 55.2297 16.3795 55.2297H36.1176C36.1615 55.2297 36.2036 55.2472 36.2347 55.2782C36.2657 55.3092 36.2832 55.3512 36.2832 55.3951V59.4728C36.2832 61.1331 31.8745 62.4328 26.2469 62.4328ZM16.5451 55.5605V59.4728C16.5451 60.7428 20.4437 62.1021 26.2469 62.1021C32.05 62.1021 35.9519 60.7428 35.9519 59.4728V55.5605H16.5451Z" fill="#040047"/>
<path d="M26.2467 58.1897C31.6981 58.1897 36.1174 56.9385 36.1174 55.3951C36.1174 53.8518 31.6981 52.6006 26.2467 52.6006C20.7952 52.6006 16.376 53.8518 16.376 55.3951C16.376 56.9385 20.7952 58.1897 26.2467 58.1897Z" fill="#040047"/>
<path d="M26.2465 58.3353C20.6156 58.3353 16.2334 57.0455 16.2334 55.3952C16.2334 53.7449 20.6321 52.4485 26.2465 52.4485C31.8609 52.4485 36.263 53.7383 36.263 55.3886C36.263 57.0388 31.8642 58.3353 26.2465 58.3353ZM26.2465 52.7461C20.4301 52.7461 16.5249 54.1153 16.5249 55.3919C16.5249 56.6684 20.4301 58.0376 26.2465 58.0376C32.0629 58.0376 35.9715 56.6684 35.9715 55.3919C35.9715 54.1153 32.0596 52.7461 26.2465 52.7461Z" fill="#040047"/>
<path d="M14.3589 49.1646V53.2423C14.3589 54.7867 18.7775 56.0369 24.2296 56.0369C29.6817 56.0369 34.1003 54.7867 34.1003 53.2423V49.1646H14.3589Z" fill="white"/>
<path d="M24.2297 56.2021C18.5987 56.2021 14.1934 54.9023 14.1934 53.2421V49.1644C14.1934 49.1205 14.2108 49.0785 14.2419 49.0475C14.2729 49.0164 14.3151 48.999 14.359 48.999H34.1004C34.1443 48.999 34.1864 49.0164 34.2175 49.0475C34.2485 49.0785 34.266 49.1205 34.266 49.1644V53.2421C34.266 54.9023 29.8573 56.2021 24.2297 56.2021ZM14.5246 49.3297V53.2421C14.5246 54.5121 18.4232 55.8713 24.2297 55.8713C30.0362 55.8713 33.9348 54.5121 33.9348 53.2421V49.3297H14.5246Z" fill="#040047"/>
<path d="M24.2296 51.959C29.681 51.959 34.1003 50.7078 34.1003 49.1644C34.1003 47.621 29.681 46.3699 24.2296 46.3699C18.7781 46.3699 14.3589 47.621 14.3589 49.1644C14.3589 50.7078 18.7781 51.959 24.2296 51.959Z" fill="white"/>
<path d="M24.2297 52.1178C18.5987 52.1178 14.1934 50.8181 14.1934 49.1413C14.1934 47.4646 18.6021 46.1814 24.2297 46.1814C29.8573 46.1814 34.266 47.4811 34.266 49.1413C34.266 50.8015 29.8573 52.1178 24.2297 52.1178ZM24.2297 46.5287C18.4232 46.5287 14.5246 47.8879 14.5246 49.1579C14.5246 50.4278 18.4232 51.8036 24.2297 51.8036C30.0362 51.8036 33.9348 50.4443 33.9348 49.1579C33.9348 47.8714 30.0328 46.5353 24.2297 46.5353V46.5287Z" fill="#040047"/>
<path d="M24.2296 51.0231C20.1356 51.0231 15.7832 50.3616 15.7832 49.1644C15.7832 47.9672 20.1356 47.3025 24.2296 47.3025C28.3236 47.3025 32.6727 47.9639 32.6727 49.1644C32.6727 50.3649 28.3236 51.0231 24.2296 51.0231ZM24.2296 47.6332C19.4466 47.6332 16.1144 48.4402 16.1144 49.1644C16.1144 49.8887 19.4466 50.6923 24.2296 50.6923C29.0126 50.6923 32.3415 49.8887 32.3415 49.1644C32.3415 48.4402 29.0093 47.6332 24.2296 47.6332Z" fill="#D1D3D4"/>
<path d="M40.8403 60.9612V65.0389C40.8403 66.5834 45.259 67.8368 50.711 67.8368C56.1631 67.8368 60.5817 66.5834 60.5817 65.0389V60.9612H40.8403Z" fill="white"/>
<path d="M50.7116 67.9923C45.0807 67.9923 40.6753 66.6893 40.6753 65.0159V60.9613C40.6761 60.9177 40.6939 60.8761 40.7247 60.8453C40.7556 60.8144 40.7973 60.7967 40.8409 60.7959H60.5823C60.626 60.7967 60.6676 60.8144 60.6985 60.8453C60.7294 60.8761 60.7471 60.9177 60.7479 60.9613V65.039C60.7479 66.6992 56.3392 67.9923 50.7116 67.9923ZM41.0032 61.1266V65.039C41.0032 66.3123 44.9051 67.6847 50.7083 67.6847C56.5115 67.6847 60.4134 66.3255 60.4134 65.039V61.1266H41.0032Z" fill="#040047"/>
<path d="M50.711 63.7556C56.1625 63.7556 60.5817 62.5045 60.5817 60.9611C60.5817 59.4177 56.1625 58.1665 50.711 58.1665C45.2596 58.1665 40.8403 59.4177 40.8403 60.9611C40.8403 62.5045 45.2596 63.7556 50.711 63.7556Z" fill="#040047"/>
<path d="M50.7113 63.9045C45.0803 63.9045 40.6948 62.6113 40.6948 60.9611C40.6948 59.3108 45.0936 58.021 50.7113 58.021C56.3289 58.021 60.7277 59.3141 60.7277 60.9611C60.7277 62.608 56.3289 63.9045 50.7113 63.9045ZM50.7113 58.312C44.8948 58.312 40.9863 59.6845 40.9863 60.9578C40.9863 62.231 44.8948 63.6035 50.7113 63.6035C56.5277 63.6035 60.4362 62.2343 60.4362 60.9578C60.4362 59.6812 56.5277 58.312 50.7113 58.312Z" fill="#040047"/>
<path d="M39.5557 56.1294V60.2071C39.5557 61.7516 43.9776 63.0017 49.4264 63.0017C54.8751 63.0017 59.297 61.7516 59.297 60.2071V56.1294H39.5557Z" fill="white"/>
<path d="M49.426 63.1671C43.795 63.1671 39.3896 61.8674 39.3896 60.2072V56.1295C39.3896 56.0856 39.4071 56.0436 39.4382 56.0125C39.4692 55.9815 39.5113 55.9641 39.5553 55.9641H59.2966C59.3406 55.9641 59.3827 55.9815 59.4138 56.0125C59.4448 56.0436 59.4623 56.0856 59.4623 56.1295V60.2072C59.4623 61.8674 55.0536 63.1671 49.426 63.1671ZM39.7209 56.2948V60.2072C39.7209 61.4772 43.6228 62.8364 49.426 62.8364C55.2291 62.8364 59.131 61.4772 59.131 60.2072V56.2948H39.7209Z" fill="#040047"/>
<path d="M49.4264 58.9238C54.8778 58.9238 59.297 57.6727 59.297 56.1293C59.297 54.5859 54.8778 53.3347 49.4264 53.3347C43.9749 53.3347 39.5557 54.5859 39.5557 56.1293C39.5557 57.6727 43.9749 58.9238 49.4264 58.9238Z" fill="#040047"/>
<path d="M49.4266 59.0628C43.7957 59.0628 39.4102 57.7697 39.4102 56.1227C39.4102 54.4757 43.8122 53.1826 49.4266 53.1826C55.041 53.1826 59.443 54.4724 59.443 56.1227C59.443 57.773 55.0443 59.0628 49.4266 59.0628ZM49.4266 53.4736C43.6102 53.4736 39.705 54.8428 39.705 56.1194C39.705 57.396 43.6102 58.7651 49.4266 58.7651C55.243 58.7651 59.1515 57.396 59.1515 56.1194C59.1515 54.8428 55.2463 53.4803 49.4266 53.4803V53.4736Z" fill="#040047"/>
<path d="M41.1494 50.2393V54.3203C41.1494 55.8614 45.568 57.1149 51.0168 57.1149C56.4655 57.1149 60.8875 55.8614 60.8875 54.3203V50.2393H41.1494Z" fill="white"/>
<path d="M51.0164 57.2803C45.3855 57.2803 40.9834 55.9773 40.9834 54.3038V50.2393C40.9834 50.1955 41.0008 50.1534 41.0319 50.1224C41.063 50.0914 41.1051 50.074 41.149 50.074H60.8771C60.9211 50.074 60.9632 50.0914 60.9943 50.1224C61.0253 50.1534 61.0428 50.1955 61.0428 50.2393V54.3204C61.0527 55.9773 56.644 57.2803 51.0164 57.2803ZM41.3146 50.4047V54.3204C41.3146 55.5903 45.2132 56.9661 51.0164 56.9661C56.8196 56.9661 60.7215 55.6069 60.7215 54.3204V50.4047H41.3146Z" fill="#040047"/>
<path d="M51.0167 53.0339C56.4681 53.0339 60.8874 51.7828 60.8874 50.2394C60.8874 48.696 56.4681 47.4448 51.0167 47.4448C45.5653 47.4448 41.146 48.696 41.146 50.2394C41.146 51.7828 45.5653 53.0339 51.0167 53.0339Z" fill="#040047"/>
<path d="M51.0161 53.1828C45.4017 53.1828 41.0029 51.8897 41.0029 50.2394C41.0029 48.5891 45.4017 47.2993 51.0161 47.2993C56.6304 47.2993 61.0325 48.5924 61.0325 50.2394C61.0325 51.8864 56.6337 53.1828 51.0161 53.1828ZM51.0161 47.5903C45.1996 47.5903 41.2944 48.9628 41.2944 50.2361C41.2944 51.5093 45.1996 52.8818 51.0161 52.8818C56.8325 52.8818 60.741 51.5127 60.741 50.2361C60.741 48.9595 56.8325 47.5903 51.0161 47.5903Z" fill="#040047"/>
<path d="M39.5557 44.3293V48.4071C39.5557 49.9515 43.9776 51.2017 49.4264 51.2017C54.8751 51.2017 59.297 49.9515 59.297 48.4071V44.3293H39.5557Z" fill="white"/>
<path d="M49.426 51.3671C43.795 51.3671 39.3896 50.0674 39.3896 48.4072V44.3294C39.3905 44.2858 39.4082 44.2443 39.4391 44.2134C39.47 44.1826 39.5116 44.1649 39.5553 44.1641H59.2966C59.3406 44.1641 59.3827 44.1815 59.4138 44.2125C59.4448 44.2435 59.4623 44.2856 59.4623 44.3294V48.4072C59.4623 50.0674 55.0536 51.3671 49.426 51.3671ZM39.7209 44.5113V48.4237C39.7209 49.6937 43.6228 51.0529 49.426 51.0529C55.2291 51.0529 59.131 49.6937 59.131 48.4237V44.5113H39.7209Z" fill="#040047"/>
<path d="M49.4264 47.124C54.8778 47.124 59.297 45.8729 59.297 44.3295C59.297 42.7861 54.8778 41.5349 49.4264 41.5349C43.9749 41.5349 39.5557 42.7861 39.5557 44.3295C39.5557 45.8729 43.9749 47.124 49.4264 47.124Z" fill="#040047"/>
<path d="M49.4266 47.2696C43.7957 47.2696 39.4102 45.9798 39.4102 44.3295C39.4102 42.6792 43.8122 41.3894 49.4266 41.3894C55.041 41.3894 59.443 42.6825 59.443 44.3295C59.443 45.9765 55.0443 47.2696 49.4266 47.2696ZM49.4266 41.6804C43.6102 41.6804 39.705 43.0496 39.705 44.3262C39.705 45.6027 43.6102 46.9719 49.4266 46.9719C55.243 46.9719 59.1515 45.6027 59.1515 44.3262C59.1515 43.0496 55.2463 41.6804 49.4266 41.6804Z" fill="#040047"/>
<path d="M42.7388 39.4976V43.5753C42.7388 45.1164 47.1574 46.3699 52.6095 46.3699C58.0615 46.3699 62.4768 45.1164 62.4768 43.5753V39.4976H42.7388Z" fill="white"/>
<path d="M52.5964 46.5353C46.9654 46.5353 42.5601 45.2356 42.5601 43.5588V39.4976C42.5601 39.4538 42.5775 39.4117 42.6086 39.3807C42.6396 39.3497 42.6818 39.3323 42.7257 39.3323H62.4637C62.5077 39.3323 62.5498 39.3497 62.5809 39.3807C62.6119 39.4117 62.6294 39.4538 62.6294 39.4976V43.5754C62.6426 45.2356 58.2273 46.5353 52.5964 46.5353ZM42.8913 39.663V43.5754C42.8913 44.8453 46.7899 46.2211 52.5964 46.2211C58.4029 46.2211 62.2981 44.8619 62.2981 43.5754V39.663H42.8913Z" fill="#040047"/>
<path d="M52.6095 42.2923C58.0609 42.2923 62.4802 41.0411 62.4802 39.4977C62.4802 37.9543 58.0609 36.7031 52.6095 36.7031C47.158 36.7031 42.7388 37.9543 42.7388 39.4977C42.7388 41.0411 47.158 42.2923 52.6095 42.2923Z" fill="#040047"/>
<path d="M52.596 42.4377C46.9651 42.4377 42.5796 41.1446 42.5796 39.4943C42.5796 37.844 46.9783 36.5542 52.596 36.5542C58.2137 36.5542 62.6092 37.8473 62.6092 39.4943C62.6092 41.1412 58.227 42.4377 52.596 42.4377ZM52.596 36.8452C46.7796 36.8452 42.8711 38.2177 42.8711 39.491C42.8711 40.7642 46.7796 42.1367 52.596 42.1367C58.4125 42.1367 62.3177 40.7642 62.3177 39.491C62.3177 38.2177 58.4257 36.8452 52.596 36.8452Z" fill="#040047"/>
<path d="M40.5728 34.6626V38.7403C40.5728 40.2848 44.9914 41.5349 50.4434 41.5349C55.8955 41.5349 60.3141 40.2848 60.3141 38.7403V34.6626H40.5728Z" fill="white"/>
<path d="M50.443 41.7001C44.8121 41.7001 40.4067 40.4004 40.4067 38.7402V34.6624C40.4067 34.6186 40.4242 34.5765 40.4552 34.5455C40.4863 34.5145 40.5284 34.4971 40.5724 34.4971H60.3137C60.3577 34.4971 60.3998 34.5145 60.4308 34.5455C60.4619 34.5765 60.4794 34.6186 60.4794 34.6624V38.7402C60.4794 40.4004 56.0707 41.7001 50.443 41.7001ZM40.738 34.8278V38.7402C40.738 40.0101 44.6366 41.3694 50.443 41.3694C56.2495 41.3694 60.1481 40.0101 60.1481 38.7402V34.8278H40.738Z" fill="#040047"/>
<path d="M50.4434 37.457C55.8949 37.457 60.3141 36.2059 60.3141 34.6625C60.3141 33.1191 55.8949 31.8679 50.4434 31.8679C44.992 31.8679 40.5728 33.1191 40.5728 34.6625C40.5728 36.2059 44.992 37.457 50.4434 37.457Z" fill="white"/>
<path d="M50.443 37.6225C44.8121 37.6225 40.4067 36.3228 40.4067 34.6626C40.4067 33.0024 44.8154 31.7026 50.443 31.7026C56.0707 31.7026 60.4794 33.0024 60.4794 34.6626C60.4794 36.3228 56.0707 37.6225 50.443 37.6225ZM50.443 32.0334C44.6366 32.0334 40.738 33.3926 40.738 34.6626C40.738 35.9325 44.6366 37.2918 50.443 37.2918C56.2495 37.2918 60.1481 35.9325 60.1481 34.6626C60.1481 33.3926 56.2396 32.0334 50.443 32.0334V32.0334Z" fill="#040047"/>
<path d="M50.4435 36.5211C46.3495 36.5211 41.9971 35.8597 41.9971 34.6625C41.9971 33.4653 46.3495 32.8005 50.4435 32.8005C54.5375 32.8005 58.8866 33.462 58.8866 34.6625C58.8866 35.863 54.5375 36.5211 50.4435 36.5211ZM50.4435 33.1313C45.6605 33.1313 42.3283 33.9382 42.3283 34.6625C42.3283 35.3868 45.6605 36.1904 50.4435 36.1904C55.2265 36.1904 58.5586 35.3868 58.5586 34.6625C58.5586 33.9382 55.2231 33.1313 50.4435 33.1313Z" fill="#D1D3D4"/>
<path d="M87.8655 60.9612V65.0389C87.8655 66.5834 83.4469 67.8368 77.9981 67.8368C72.5494 67.8368 68.1274 66.5834 68.1274 65.0389V60.9612H87.8655Z" fill="white"/>
<path d="M77.9987 67.9923C72.3678 67.9923 67.9624 66.6893 67.9624 65.0159V60.9613C67.9624 60.9174 67.9799 60.8753 68.0109 60.8443C68.042 60.8133 68.0841 60.7959 68.128 60.7959H87.8661C87.91 60.7959 87.9522 60.8133 87.9832 60.8443C88.0143 60.8753 88.0317 60.9174 88.0317 60.9613V65.039C88.0384 66.6992 83.623 67.9923 77.9987 67.9923ZM68.2936 61.1167V65.0291C68.2936 66.3023 72.1922 67.6748 77.9987 67.6748C83.8052 67.6748 87.7005 66.3156 87.7005 65.0291V61.1266L68.2936 61.1167Z" fill="#040047"/>
<path d="M77.9981 63.7556C83.4496 63.7556 87.8688 62.5045 87.8688 60.9611C87.8688 59.4177 83.4496 58.1665 77.9981 58.1665C72.5467 58.1665 68.1274 59.4177 68.1274 60.9611C68.1274 62.5045 72.5467 63.7556 77.9981 63.7556Z" fill="#040047"/>
<path d="M77.9984 63.9045C72.3674 63.9045 67.9819 62.6113 67.9819 60.9611C67.9819 59.3108 72.3807 58.021 77.9984 58.021C83.6161 58.021 88.0115 59.3141 88.0115 60.9611C88.0115 62.608 83.6128 63.9045 77.9984 63.9045ZM77.9984 58.312C72.1786 58.312 68.2734 59.6845 68.2734 60.9578C68.2734 62.231 72.1786 63.6035 77.9984 63.6035C83.8181 63.6035 87.72 62.2343 87.72 60.9578C87.72 59.6812 83.8148 58.312 77.9984 58.312Z" fill="#040047"/>
<path d="M89.1512 56.1294V60.2071C89.1512 61.7516 84.7325 63.0017 79.2805 63.0017C73.8284 63.0017 69.4131 61.7516 69.4131 60.2071V56.1294H89.1512Z" fill="white"/>
<path d="M79.2806 63.1671C73.6496 63.1671 69.2476 61.8674 69.2476 60.2072V56.1295C69.2476 56.0856 69.265 56.0436 69.2961 56.0125C69.3271 55.9815 69.3693 55.9641 69.4132 55.9641H89.1512C89.1952 55.9641 89.2373 55.9815 89.2684 56.0125C89.2994 56.0436 89.3169 56.0856 89.3169 56.1295V60.2072C89.3169 61.8674 84.9082 63.1671 79.2806 63.1671ZM69.5788 56.2948V60.2072C69.5788 61.4772 73.4774 62.8364 79.2806 62.8364C85.0837 62.8364 88.9856 61.4772 88.9856 60.2072V56.2948H69.5788Z" fill="#040047"/>
<path d="M79.2804 58.9238C84.7318 58.9238 89.1511 57.6727 89.1511 56.1293C89.1511 54.5859 84.7318 53.3347 79.2804 53.3347C73.8289 53.3347 69.4097 54.5859 69.4097 56.1293C69.4097 57.6727 73.8289 58.9238 79.2804 58.9238Z" fill="#040047"/>
<path d="M79.2802 59.0628C73.6658 59.0628 69.2671 57.7697 69.2671 56.1227C69.2671 54.4757 73.6658 53.1826 79.2802 53.1826C84.8946 53.1826 89.2966 54.4724 89.2966 56.1227C89.2966 57.773 84.8979 59.0628 79.2802 59.0628ZM79.2802 53.4736C73.4638 53.4736 69.5586 54.8428 69.5586 56.1194C69.5586 57.396 73.4638 58.7651 79.2802 58.7651C85.0966 58.7651 89.0052 57.396 89.0052 56.1194C89.0052 54.8428 85.0966 53.4803 79.2802 53.4803V53.4736Z" fill="#040047"/>
<path d="M87.5612 50.2393V54.3203C87.5612 55.8614 83.1426 57.1149 77.6905 57.1149C72.2385 57.1149 67.8198 55.8614 67.8198 54.3203V50.2393H87.5612Z" fill="white"/>
<path d="M77.6901 57.2803C72.0592 57.2803 67.6538 55.9773 67.6538 54.3038V50.2393C67.6547 50.1957 67.6724 50.1542 67.7033 50.1233C67.7341 50.0925 67.7758 50.0748 67.8194 50.074H87.5608C87.6047 50.074 87.6468 50.0914 87.6779 50.1224C87.709 50.1534 87.7264 50.1955 87.7264 50.2393V54.3204C87.7264 55.9773 83.3177 57.2803 77.6901 57.2803ZM67.985 50.4047V54.3204C67.985 55.5903 71.8869 56.9661 77.6901 56.9661C83.4933 56.9661 87.3952 55.6069 87.3952 54.3204V50.4047H67.985Z" fill="#040047"/>
<path d="M77.6905 53.0339C83.142 53.0339 87.5612 51.7828 87.5612 50.2394C87.5612 48.696 83.142 47.4448 77.6905 47.4448C72.2391 47.4448 67.8198 48.696 67.8198 50.2394C67.8198 51.7828 72.2391 53.0339 77.6905 53.0339Z" fill="#040047"/>
<path d="M77.6898 53.1828C72.0754 53.1828 67.6733 51.8897 67.6733 50.2394C67.6733 48.5891 72.0754 47.2993 77.6898 47.2993C83.3042 47.2993 87.7062 48.5924 87.7062 50.2394C87.7062 51.8864 83.3075 53.1828 77.6898 53.1828ZM77.6898 47.5903C71.8734 47.5903 67.9681 48.9628 67.9681 50.2361C67.9681 51.5093 71.8734 52.8818 77.6898 52.8818C83.5062 52.8818 87.4147 51.5127 87.4147 50.2361C87.4147 48.9595 83.5062 47.5903 77.6898 47.5903Z" fill="#040047"/>
<path d="M89.1512 44.3293V48.4071C89.1512 49.9515 84.7325 51.2017 79.2805 51.2017C73.8284 51.2017 69.4131 49.9515 69.4131 48.4071V44.3293H89.1512Z" fill="white"/>
<path d="M79.2806 51.3671C73.6496 51.3671 69.2476 50.0674 69.2476 48.4072V44.3294C69.2476 44.2856 69.265 44.2435 69.2961 44.2125C69.3271 44.1815 69.3693 44.1641 69.4132 44.1641H89.1512C89.1952 44.1641 89.2373 44.1815 89.2684 44.2125C89.2994 44.2435 89.3169 44.2856 89.3169 44.3294V48.4072C89.3169 50.0674 84.9082 51.3671 79.2806 51.3671ZM69.5788 44.5113V48.4237C69.5788 49.6937 73.4774 51.0529 79.2806 51.0529C85.0837 51.0529 88.9856 49.6937 88.9856 48.4237V44.5113H69.5788Z" fill="#040047"/>
<path d="M79.2804 47.124C84.7318 47.124 89.1511 45.8729 89.1511 44.3295C89.1511 42.7861 84.7318 41.5349 79.2804 41.5349C73.8289 41.5349 69.4097 42.7861 69.4097 44.3295C69.4097 45.8729 73.8289 47.124 79.2804 47.124Z" fill="#040047"/>
<path d="M79.2802 47.2696C73.6658 47.2696 69.2671 45.9798 69.2671 44.3295C69.2671 42.6792 73.6658 41.3894 79.2802 41.3894C84.8946 41.3894 89.2966 42.6825 89.2966 44.3295C89.2966 45.9765 84.8979 47.2696 79.2802 47.2696ZM79.2802 41.6804C73.4638 41.6804 69.5586 43.0496 69.5586 44.3262C69.5586 45.6027 73.4638 46.9719 79.2802 46.9719C85.0966 46.9719 89.0052 45.6027 89.0052 44.3262C89.0052 43.0496 85.0966 41.6804 79.2802 41.6804Z" fill="#040047"/>
<path d="M85.9719 39.4976V43.5753C85.9719 45.1164 81.5532 46.3699 76.1012 46.3699C70.6491 46.3699 66.2305 45.1164 66.2305 43.5753V39.4976H85.9719Z" fill="white"/>
<path d="M76.1135 46.5353C70.4825 46.5353 66.0771 45.2356 66.0771 43.5588V39.4976C66.0771 39.4538 66.0946 39.4117 66.1257 39.3807C66.1567 39.3497 66.1988 39.3323 66.2428 39.3323H85.9842C86.0281 39.3323 86.0702 39.3497 86.1013 39.3807C86.1323 39.4117 86.1498 39.4538 86.1498 39.4976V43.5754C86.1365 45.2356 81.7444 46.5353 76.1135 46.5353ZM66.4084 39.663V43.5754C66.4084 44.8453 70.307 46.2211 76.1135 46.2211C81.92 46.2211 85.8185 44.8619 85.8185 43.5754V39.663H66.4084Z" fill="#040047"/>
<path d="M76.1012 42.2923C81.5526 42.2923 85.9719 41.0411 85.9719 39.4977C85.9719 37.9543 81.5526 36.7031 76.1012 36.7031C70.6497 36.7031 66.2305 37.9543 66.2305 39.4977C66.2305 41.0411 70.6497 42.2923 76.1012 42.2923Z" fill="#040047"/>
<path d="M76.1141 42.4377C70.4832 42.4377 66.0977 41.1446 66.0977 39.4943C66.0977 37.844 70.4832 36.5542 76.1141 36.5542C81.745 36.5542 86.1305 37.8473 86.1305 39.4943C86.1305 41.1412 81.7185 42.4377 76.1141 42.4377ZM76.1141 36.8452C70.2977 36.8452 66.3891 38.2177 66.3891 39.491C66.3891 40.7642 70.2977 42.1367 76.1141 42.1367C81.9305 42.1367 85.8391 40.7642 85.8391 39.491C85.8391 38.2177 81.9173 36.8452 76.1141 36.8452Z" fill="#040047"/>
<path d="M88.1341 34.6626V38.7403C88.1341 40.2848 83.7154 41.5349 78.2667 41.5349C72.8179 41.5349 68.396 40.2848 68.396 38.7403V34.6626H88.1341Z" fill="white"/>
<path d="M78.2668 41.7001C72.6358 41.7001 68.2305 40.4004 68.2305 38.7402V34.6624C68.2305 34.6186 68.2479 34.5765 68.279 34.5455C68.31 34.5145 68.3522 34.4971 68.3961 34.4971H88.1342C88.1781 34.4971 88.2202 34.5145 88.2513 34.5455C88.2823 34.5765 88.2998 34.6186 88.2998 34.6624V38.7402C88.2998 40.4004 83.8944 41.7001 78.2668 41.7001ZM68.5617 34.8278V38.7402C68.5617 40.0101 72.4603 41.3694 78.2668 41.3694C84.0733 41.3694 87.9685 40.0101 87.9685 38.7402V34.8278H68.5617Z" fill="#040047"/>
<path d="M78.2667 37.457C83.7181 37.457 88.1374 36.2059 88.1374 34.6625C88.1374 33.1191 83.7181 31.8679 78.2667 31.8679C72.8153 31.8679 68.396 33.1191 68.396 34.6625C68.396 36.2059 72.8153 37.457 78.2667 37.457Z" fill="#040047"/>
<path d="M78.2674 37.6026C72.6365 37.6026 68.251 36.3128 68.251 34.6625C68.251 33.0122 72.6497 31.7224 78.2674 31.7224C83.8851 31.7224 88.2838 33.0122 88.2838 34.6625C88.2838 36.3128 83.8818 37.6026 78.2674 37.6026ZM78.2674 32.0134C72.451 32.0134 68.5425 33.3826 68.5425 34.6592C68.5425 35.9358 72.451 37.3049 78.2674 37.3049C84.0838 37.3049 87.989 35.9358 87.989 34.6592C87.989 33.3826 84.0838 32.0134 78.2674 32.0134Z" fill="#040047"/>
<path d="M88.4817 29.1858V33.2668C88.4817 34.8113 84.0631 36.0614 78.611 36.0614C73.159 36.0614 68.7437 34.8113 68.7437 33.2668V29.1858H88.4817Z" fill="white"/>
<path d="M78.6106 36.2235C72.9797 36.2235 68.5776 34.9238 68.5776 33.2636V29.1859C68.5776 29.142 68.5951 29.0999 68.6261 29.0689C68.6572 29.0379 68.6993 29.0205 68.7433 29.0205H88.4813C88.5252 29.0205 88.5674 29.0379 88.5984 29.0689C88.6295 29.0999 88.6469 29.142 88.6469 29.1859V33.2669C88.6469 34.9205 84.2383 36.2235 78.6106 36.2235ZM68.9089 29.3512V33.2669C68.9089 34.5369 72.8075 35.8961 78.6106 35.8961C84.4138 35.8961 88.3157 34.5369 88.3157 33.2669V29.3512H68.9089Z" fill="#040047"/>
<path d="M78.6114 31.9805C84.0629 31.9805 88.4821 30.7293 88.4821 29.1859C88.4821 27.6425 84.0629 26.3914 78.6114 26.3914C73.16 26.3914 68.7407 27.6425 68.7407 29.1859C68.7407 30.7293 73.16 31.9805 78.6114 31.9805Z" fill="#040047"/>
<path d="M78.6113 32.126C72.9803 32.126 68.5981 30.8362 68.5981 29.1859C68.5981 27.5356 72.9969 26.2458 78.6113 26.2458C84.2256 26.2458 88.6277 27.539 88.6277 29.1859C88.6277 30.8329 84.2289 32.126 78.6113 32.126ZM78.6113 26.5369C72.7948 26.5369 68.8896 27.906 68.8896 29.1826C68.8896 30.4592 72.7948 31.8284 78.6113 31.8284C84.4277 31.8284 88.3362 30.4592 88.3362 29.1826C88.3362 27.906 84.4277 26.5369 78.6113 26.5369Z" fill="#040047"/>
<path d="M86.5442 23.8481V27.9259C86.5442 29.4703 82.1256 30.7205 76.6735 30.7205C71.2215 30.7205 66.8062 29.4703 66.8062 27.9259V23.8481H86.5442Z" fill="white"/>
<path d="M76.6731 30.8856C71.0422 30.8856 66.6401 29.5859 66.6401 27.9092V23.848C66.6401 23.8041 66.6576 23.7621 66.6886 23.731C66.7197 23.7 66.7618 23.6826 66.8058 23.6826H86.5438C86.5878 23.6826 86.6299 23.7 86.661 23.731C86.692 23.7621 86.7095 23.8041 86.7095 23.848V27.9257C86.7128 29.5859 82.3008 30.8856 76.6731 30.8856ZM66.9714 24.0067V27.9191C66.9714 29.1891 70.87 30.5649 76.6731 30.5649C82.4763 30.5649 86.3782 29.2056 86.3782 27.9191V24.0067H66.9714Z" fill="#040047"/>
<path d="M76.6739 26.6426C82.1253 26.6426 86.5446 25.3914 86.5446 23.848C86.5446 22.3046 82.1253 21.0535 76.6739 21.0535C71.2225 21.0535 66.8032 22.3046 66.8032 23.848C66.8032 25.3914 71.2225 26.6426 76.6739 26.6426Z" fill="#040047"/>
<path d="M76.6738 26.7881C71.0594 26.7881 66.6606 25.4983 66.6606 23.848C66.6606 22.1978 71.0594 20.908 76.6738 20.908C82.2881 20.908 86.6902 22.2011 86.6902 23.848C86.6902 25.495 82.2915 26.7881 76.6738 26.7881ZM76.6738 21.199C70.8573 21.199 66.9521 22.5682 66.9521 23.8447C66.9521 25.1213 70.8573 26.4905 76.6738 26.4905C82.4902 26.4905 86.3987 25.1213 86.3987 23.8447C86.3987 22.5682 82.4935 21.199 76.6738 21.199V21.199Z" fill="#040047"/>
<path d="M89.1512 18.3845V22.4523C89.1512 23.9935 84.7325 25.2469 79.2805 25.2469C73.8284 25.2469 69.4131 23.9935 69.4131 22.4523V18.3845H89.1512Z" fill="white"/>
<path d="M79.2806 25.4123C73.6496 25.4123 69.2476 24.1126 69.2476 22.4359V18.3846C69.2476 18.3407 69.265 18.2987 69.2961 18.2677C69.3271 18.2367 69.3693 18.2192 69.4132 18.2192H89.1512C89.1952 18.2192 89.2373 18.2367 89.2684 18.2677C89.2994 18.2987 89.3169 18.3407 89.3169 18.3846V22.4524C89.3169 24.1126 84.9082 25.4123 79.2806 25.4123ZM69.5788 18.54V22.4524C69.5788 23.7224 73.4774 25.0982 79.2806 25.0982C85.0837 25.0982 88.9856 23.7389 88.9856 22.4524V18.54H69.5788Z" fill="#040047"/>
<path d="M79.2804 21.1692C84.7318 21.1692 89.1511 19.918 89.1511 18.3746C89.1511 16.8312 84.7318 15.5801 79.2804 15.5801C73.8289 15.5801 69.4097 16.8312 69.4097 18.3746C69.4097 19.918 73.8289 21.1692 79.2804 21.1692Z" fill="white"/>
<path d="M79.2806 21.3345C73.6496 21.3345 69.2476 20.0315 69.2476 18.358C69.2476 16.6846 73.6529 15.3816 79.2806 15.3816C84.9082 15.3816 89.3169 16.6846 89.3169 18.358C89.3169 20.0315 84.9082 21.3345 79.2806 21.3345ZM79.2806 15.7421C73.4774 15.7421 69.5788 17.1013 69.5788 18.3878C69.5788 19.6743 73.4774 21.0336 79.2806 21.0336C85.0837 21.0336 88.9856 19.6743 88.9856 18.3878C88.9856 17.1013 85.087 15.7388 79.2806 15.7388V15.7421Z" fill="#040047"/>
<path d="M79.28 20.2333C75.186 20.2333 70.8369 19.5718 70.8369 18.3746C70.8369 17.1774 75.186 16.5127 79.28 16.5127C83.374 16.5127 87.7264 17.1741 87.7264 18.3746C87.7264 19.5751 83.374 20.2333 79.28 20.2333ZM79.28 16.8434C74.5003 16.8434 71.1681 17.6504 71.1681 18.3746C71.1681 19.0989 74.5003 19.9025 79.28 19.9025C84.0597 19.9025 87.3952 19.0956 87.3952 18.3746C87.3952 17.6537 84.063 16.8434 79.28 16.8434Z" fill="#D1D3D4"/>
</svg>
