<svg width="98" height="84" viewBox="0 0 98 84" fill="none" xmlns="http://www.w3.org/2000/svg">
<path d="M36.2495 68.9121L97.8008 68.9121L97.8008 9.43726L36.2495 9.43726L36.2495 68.9121Z" fill="white"/>
<path d="M97.8009 69.115H36.2497C36.1969 69.115 36.1463 69.0941 36.109 69.0568C36.0717 69.0195 36.0508 68.9689 36.0508 68.9161V9.44126C36.0508 9.38851 36.0717 9.33792 36.109 9.30062C36.1463 9.26332 36.1969 9.24237 36.2497 9.24237H97.8009C97.8537 9.24237 97.9043 9.26332 97.9416 9.30062C97.9789 9.33792 97.9998 9.38851 97.9998 9.44126V68.9161C97.9998 68.9689 97.9789 69.0195 97.9416 69.0568C97.9043 69.0941 97.8537 69.115 97.8009 69.115ZM36.4486 68.7173H97.602V9.64014H36.4486V68.7173Z" fill="#040047"/>
<path d="M92.1924 21.1715H42.3356C42.2829 21.1715 42.2323 21.1506 42.195 21.1133C42.1577 21.076 42.1367 21.0254 42.1367 20.9727C42.1367 20.9199 42.1577 20.8693 42.195 20.832C42.2323 20.7947 42.2829 20.7738 42.3356 20.7738H92.1924C92.2451 20.7738 92.2957 20.7947 92.333 20.832C92.3703 20.8693 92.3912 20.9199 92.3912 20.9727C92.3912 21.0254 92.3703 21.076 92.333 21.1133C92.2957 21.1506 92.2451 21.1715 92.1924 21.1715Z" fill="#4F51FF"/>
<path d="M64.4279 33.9878H42.3356C42.2829 33.9878 42.2323 33.9668 42.195 33.9295C42.1577 33.8922 42.1367 33.8416 42.1367 33.7889C42.1367 33.7361 42.1577 33.6855 42.195 33.6482C42.2323 33.6109 42.2829 33.59 42.3356 33.59H64.4279C64.4806 33.59 64.5312 33.6109 64.5685 33.6482C64.6058 33.6855 64.6268 33.7361 64.6268 33.7889C64.6268 33.8416 64.6058 33.8922 64.5685 33.9295C64.5312 33.9668 64.4806 33.9878 64.4279 33.9878Z" fill="#4F51FF"/>
<path d="M67.9918 12.333L67.6298 14.6481C67.6298 14.6481 66.6672 15.2766 65.8876 14.5844L65.6211 12.1103L67.9918 12.333Z" fill="white"/>
<path d="M66.7427 15.1175C66.3784 15.1221 66.0259 14.9885 65.7562 14.7435C65.7197 14.7107 65.697 14.6652 65.6926 14.6163L65.4221 12.1421C65.4189 12.1131 65.4222 12.0838 65.4318 12.0562C65.4415 12.0287 65.4572 12.0037 65.4778 11.983C65.4977 11.9612 65.5225 11.9444 65.5502 11.9341C65.5778 11.9237 65.6075 11.92 65.6369 11.9233L68.0235 12.1461C68.0783 12.154 68.1281 12.1825 68.1627 12.2257C68.1792 12.2469 68.1913 12.2712 68.1981 12.2972C68.2049 12.3231 68.2064 12.3502 68.2025 12.3768L67.8405 14.6879C67.83 14.7426 67.7986 14.7911 67.753 14.8231C67.4506 15.0141 67.1004 15.1161 66.7427 15.1175ZM66.0784 14.493C66.2787 14.6319 66.515 14.7097 66.7587 14.7167C67.0023 14.7238 67.2428 14.6599 67.4507 14.5327L67.765 12.5439L65.8437 12.333L66.0784 14.493Z" fill="#040047"/>
<path d="M67.0252 13.1206C70.3512 13.1206 73.0475 11.4733 73.0475 9.44123C73.0475 7.40916 70.3512 5.76184 67.0252 5.76184C63.6992 5.76184 61.0029 7.40916 61.0029 9.44123C61.0029 11.4733 63.6992 13.1206 67.0252 13.1206Z" fill="white"/>
<path d="M67.0258 13.3195C63.597 13.3195 60.8047 11.5773 60.8047 9.44127C60.8047 7.30523 63.5891 5.56299 67.0258 5.56299C70.4626 5.56299 73.247 7.30125 73.247 9.44127C73.247 11.5813 70.4546 13.3195 67.0258 13.3195ZM67.0258 5.96076C63.8158 5.96076 61.2025 7.52003 61.2025 9.44127C61.2025 11.3625 63.8158 12.9218 67.0258 12.9218C70.2359 12.9218 72.8492 11.3585 72.8492 9.44127C72.8492 7.52401 70.2359 5.96872 67.0258 5.96872V5.96076Z" fill="#040047"/>
<path d="M69.8304 4.57252C69.8304 4.65207 69.6633 8.69343 69.6633 8.69343C69.6633 8.69343 68.7524 9.85493 66.7039 9.63218C64.6554 9.40942 64.4088 8.27975 64.4088 8.27975L64.2695 3.40704L69.8304 4.57252Z" fill="#040047"/>
<path d="M67.2169 9.86288C67.0387 9.86172 66.8608 9.8511 66.6838 9.83106C64.516 9.59637 64.2256 8.37124 64.2137 8.31953L64.0705 3.415C64.0692 3.38474 64.0751 3.3546 64.0875 3.32698C64.0999 3.29936 64.1186 3.27502 64.1421 3.25589C64.1645 3.23609 64.1915 3.22212 64.2207 3.21518C64.2498 3.20825 64.2802 3.20857 64.3091 3.21611L69.878 4.3776C69.9232 4.38606 69.964 4.41027 69.9932 4.44595C70.0223 4.48162 70.0378 4.52646 70.0371 4.57251C70.0371 4.65605 69.8859 8.2877 69.87 8.70139C69.8692 8.74375 69.8537 8.78452 69.8262 8.81674C69.4939 9.17088 69.0882 9.44802 68.6374 9.62874C68.1866 9.80945 67.7018 9.88937 67.2169 9.86288ZM64.4762 3.65366L64.6075 8.27179C64.6075 8.27179 64.866 9.2344 66.7236 9.43727C68.4221 9.62024 69.2773 8.82072 69.4682 8.61388C69.516 7.42056 69.6035 5.32828 69.6274 4.73162L64.4762 3.65366Z" fill="#040047"/>
<path d="M71.4431 3.85483C71.5659 2.39249 69.7808 1.04876 67.456 0.85354C65.1311 0.658316 63.1469 1.68552 63.0241 3.14786C62.9013 4.6102 64.6864 5.95391 67.0113 6.14914C69.3361 6.34436 71.3204 5.31716 71.4431 3.85483Z" fill="white"/>
<path d="M67.5743 6.36649C67.3808 6.36649 67.1858 6.35854 66.9896 6.34263C64.5592 6.13976 62.6897 4.69585 62.821 3.12863C62.9522 1.55743 65.0366 0.447645 67.4669 0.650509C68.5509 0.721648 69.5943 1.09053 70.4821 1.71654C71.2776 2.32513 71.6992 3.08885 71.6356 3.86849C71.572 4.64812 71.0389 5.32831 70.14 5.7937C69.3418 6.18404 68.4627 6.3803 67.5743 6.36649ZM63.2187 3.18432C63.1034 4.53276 64.8098 5.78177 67.0214 5.96872C68.0274 6.07473 69.0432 5.90131 69.957 5.46753C70.7287 5.06976 71.1861 4.49299 71.2378 3.87644C71.2895 3.25989 70.9395 2.60357 70.2434 2.07851C69.4162 1.49695 68.4443 1.15554 67.4351 1.09204C65.2235 0.909061 63.3301 1.85576 63.2187 3.20421V3.18432Z" fill="#040047"/>
<path d="M54.0422 24.0435L62.9961 31.1318L63.2387 31.5534L64.428 33.6178L62.1448 32.9337L61.6794 32.7944L52.7256 25.7022L54.0422 24.0435Z" fill="white"/>
<path d="M64.4277 33.8128C64.4093 33.8164 64.3904 33.8164 64.372 33.8128L61.6234 32.9894C61.599 32.9814 61.5761 32.9693 61.5558 32.9536L52.6019 25.8573C52.5609 25.8245 52.5346 25.7768 52.5286 25.7247C52.5227 25.6725 52.5376 25.6201 52.5701 25.5789L53.8867 23.9202C53.919 23.8786 53.9664 23.8515 54.0185 23.8448C54.0707 23.8381 54.1235 23.8523 54.1652 23.8844L63.119 30.9767C63.1381 30.9923 63.1542 31.0111 63.1667 31.0323L64.6027 33.5184C64.624 33.5517 64.6352 33.5903 64.6352 33.6298C64.6352 33.6693 64.624 33.7079 64.6027 33.7412C64.5811 33.7659 64.5541 33.7853 64.5237 33.7977C64.4933 33.8101 64.4604 33.8153 64.4277 33.8128ZM61.7745 32.6195L64.006 33.2877L62.8406 31.267L54.0896 24.3259L53.0236 25.6744L61.7745 32.6195Z" fill="#040047"/>
<path d="M50.6942 23.7408L51.6598 22.5216C51.7463 22.4124 51.8725 22.3421 52.0109 22.326C52.1492 22.31 52.2882 22.3495 52.3974 22.436L56.6506 25.8046L55.033 27.847L50.7798 24.4784C50.6706 24.3919 50.6003 24.2657 50.5842 24.1273C50.5681 23.989 50.6077 23.85 50.6942 23.7408Z" fill="#040047"/>
<path d="M55.041 28.0371C54.9966 28.038 54.9532 28.024 54.9177 27.9973L50.6655 24.6282C50.5897 24.57 50.5266 24.497 50.4801 24.4135C50.4336 24.3301 50.4046 24.238 50.3951 24.1429C50.3834 24.0485 50.3907 23.9526 50.4167 23.8611C50.4426 23.7695 50.4867 23.6841 50.5462 23.6099L51.5088 22.3887C51.6287 22.2383 51.8031 22.1411 51.9941 22.1182C52.0888 22.1073 52.1847 22.1154 52.2762 22.142C52.3678 22.1687 52.4531 22.2133 52.5271 22.2734L56.7833 25.6425C56.8034 25.6584 56.8202 25.6783 56.8325 25.7008C56.8448 25.7234 56.8524 25.7482 56.8549 25.7738C56.8582 25.7997 56.8565 25.8261 56.8496 25.8513C56.8428 25.8766 56.8311 25.9002 56.8151 25.9209L55.1962 27.9615C55.1781 27.9854 55.1546 28.0047 55.1276 28.0178C55.1007 28.031 55.071 28.0376 55.041 28.0371ZM52.0776 22.512H52.0418C51.9991 22.5157 51.9576 22.5282 51.9199 22.5488C51.8823 22.5693 51.8493 22.5974 51.8231 22.6314L50.8485 23.8684C50.7953 23.9365 50.7713 24.0229 50.7817 24.1087C50.7922 24.1944 50.8362 24.2726 50.9042 24.3259L55.0012 27.5717L56.3696 25.8414L52.2566 22.5836C52.2039 22.5398 52.1382 22.5146 52.0697 22.512H52.0776Z" fill="#040047"/>
<path d="M53.8787 28.5065C53.8339 28.5059 53.7905 28.4905 53.7554 28.4627C53.6639 28.3911 51.5318 26.7205 51.2494 26.4739C50.967 26.2272 50.6607 24.9146 50.5772 24.5288C50.5762 24.4806 50.5921 24.4336 50.6221 24.3959C50.6521 24.3582 50.6943 24.3322 50.7415 24.3223C50.7886 24.3124 50.8378 24.3192 50.8804 24.3417C50.923 24.3641 50.9565 24.4007 50.975 24.4452C51.0731 25.0461 51.2594 25.6291 51.5279 26.1755C51.7427 26.3744 53.2383 27.5558 54.002 28.1644C54.0238 28.1804 54.042 28.2007 54.0557 28.224C54.0693 28.2473 54.0781 28.2731 54.0815 28.2999C54.0848 28.3267 54.0827 28.3539 54.0752 28.3798C54.0677 28.4058 54.0549 28.4299 54.0378 28.4508C54.0168 28.4709 53.9918 28.4863 53.9643 28.4959C53.9369 28.5055 53.9077 28.5091 53.8787 28.5065Z" fill="#040047"/>
<path d="M35.502 56.7125C35.502 56.7125 42.0373 60.1493 45.9116 59.5447C49.8894 58.9201 56.5998 43.598 58.8631 40.1771C60.9395 37.0427 62.4431 33.8406 61.7907 29.9663C61.7292 29.4821 61.5676 29.0161 61.3163 28.5977C61.065 28.1793 60.7294 27.8177 60.3309 27.5359C59.9331 27.2973 59.4836 27.1103 59.3444 26.6926C59.2927 26.5375 59.2927 26.3705 59.233 26.2233C59.1491 26.0642 59.0137 25.9383 58.849 25.8661C58.6843 25.7938 58.5 25.7795 58.3261 25.8255C57.9847 25.9319 57.6782 26.1284 57.4391 26.3943C56.3691 27.4245 54.9809 29.0793 54.4439 30.4755C54.2626 31.0016 54.1386 31.5457 54.0739 32.0984C53.7836 33.9838 53.7676 35.8414 52.6778 37.4166C51.5879 38.9918 43.8631 47.6075 43.8631 47.6075L39.8138 45.6982" fill="white"/>
<path d="M44.9133 59.8151C41.0231 59.8151 35.6571 57.0307 35.4105 56.8915C35.3636 56.8672 35.3282 56.8253 35.3121 56.7749C35.2961 56.7246 35.3007 56.6699 35.325 56.623C35.3492 56.576 35.3912 56.5407 35.4415 56.5246C35.4919 56.5086 35.5465 56.5132 35.5935 56.5375C35.6611 56.5733 42.1169 59.9384 45.8799 59.3497C48.72 58.9042 53.1551 50.4237 56.0867 44.8151C57.1647 42.7586 58.0756 40.9806 58.7001 40.0657C60.5935 37.2018 62.28 34.0037 61.5958 30.0021C61.5401 29.5443 61.3892 29.1033 61.1529 28.7074C60.9166 28.3114 60.6 27.9693 60.2235 27.703L59.9968 27.5677C59.6273 27.4154 59.3271 27.1321 59.1535 26.7722C59.1308 26.6937 59.1122 26.614 59.0978 26.5335C59.0898 26.4604 59.0738 26.3884 59.0501 26.3187C58.9812 26.2064 58.8773 26.1199 58.7544 26.0724C58.6315 26.025 58.4964 26.0193 58.3699 26.0562C58.0633 26.1544 57.7886 26.3329 57.5744 26.5733C56.5481 27.5677 55.1599 29.2105 54.6309 30.5828C54.4536 31.0987 54.3322 31.6321 54.2689 32.1739C54.2132 32.5399 54.1694 32.9058 54.1217 33.2678C53.9308 34.8111 53.7478 36.263 52.8409 37.5717C51.7669 39.127 44.3246 47.4325 44.0103 47.7825C43.9813 47.8143 43.943 47.8361 43.9008 47.8447C43.8586 47.8533 43.8148 47.8482 43.7756 47.8302L39.7303 45.9209C39.7036 45.9121 39.6792 45.8977 39.6585 45.8788C39.6378 45.8598 39.6213 45.8367 39.6102 45.8109C39.5991 45.7851 39.5935 45.7573 39.594 45.7292C39.5944 45.7011 39.6007 45.6735 39.6126 45.648C39.6245 45.6226 39.6416 45.5999 39.6628 45.5816C39.6841 45.5632 39.709 45.5496 39.7359 45.5416C39.7628 45.5335 39.7911 45.5313 39.8189 45.535C39.8468 45.5386 39.8735 45.5482 39.8974 45.5629L43.8114 47.4086C44.7184 46.3943 51.5203 38.7849 52.5147 37.345C53.362 36.1198 53.541 34.7117 53.708 33.2201C53.7518 32.8541 53.7995 32.4842 53.8552 32.1143C53.9297 31.5451 54.063 30.9853 54.253 30.4436C54.8059 29.0156 56.2418 27.3171 57.2959 26.2948C57.5615 26.0032 57.901 25.7888 58.2784 25.6743C58.4962 25.6134 58.7284 25.63 58.9352 25.7215C59.142 25.8129 59.3106 25.9734 59.4121 26.1755C59.4493 26.2715 59.4747 26.3717 59.4876 26.4738C59.4971 26.5356 59.5104 26.5967 59.5274 26.6568C59.6149 26.9194 59.8934 27.0824 60.1917 27.2535C60.2713 27.3012 60.3548 27.345 60.4304 27.3967C60.8551 27.6913 61.2131 28.0719 61.4811 28.514C61.749 28.956 61.921 29.4495 61.9857 29.9623C62.6698 34.1111 60.8759 37.52 59.0262 40.3044C58.4336 41.2034 57.5067 42.9734 56.4367 45.018C53.2864 51.0403 48.9785 59.2861 45.9356 59.7594C45.5968 59.8046 45.255 59.8232 44.9133 59.8151Z" fill="#040047"/>
<path d="M16.2579 29.6163C13.6723 28.8446 12.3239 25.8573 11.6477 23.4707C10.88 20.7499 9.97704 18.5303 11.0669 15.6982C11.3215 15.0498 11.7193 14.3697 12.3915 14.1827C12.5635 14.1555 12.7284 14.0947 12.8768 14.0037C12.9917 13.8936 13.0777 13.7571 13.1274 13.6059C14.6906 9.92654 19.094 9.82312 22.4154 10.3442C24.3366 10.6465 26.8267 11.5375 27.4193 13.4946C28.5172 17.1262 27.5904 21.0761 25.5777 24.2145C23.6644 27.158 20.1003 30.7738 16.2579 29.6163Z" fill="white"/>
<path d="M17.7218 30.0339C17.2056 30.0343 16.6921 29.9579 16.1984 29.8072C13.5253 29.0116 12.1451 25.9369 11.4569 23.5065C11.3694 23.1962 11.2779 22.8939 11.1904 22.5916C10.4903 20.2248 9.88971 18.1803 10.8881 15.6107C11.2421 14.6958 11.7314 14.1469 12.34 13.9758L12.4713 13.944C12.5661 13.93 12.6569 13.8961 12.7378 13.8446C12.8166 13.7633 12.8764 13.6655 12.9128 13.5582V13.5184C14.5039 9.74356 18.9629 9.60035 22.4156 10.1413C23.7322 10.3482 26.8706 11.084 27.5866 13.4269C28.6287 16.8756 27.9486 20.8454 25.721 24.3139C23.8515 27.2336 20.8802 30.0339 17.7218 30.0339ZM16.3137 29.4373C19.8101 30.4874 23.2946 27.3728 25.3909 24.1071C27.5548 20.726 28.219 16.8796 27.1968 13.5264C26.5524 11.3983 23.593 10.7141 22.3479 10.5192C19.0385 9.99813 14.7903 10.1214 13.2747 13.6576C13.2153 13.8436 13.1084 14.0109 12.9645 14.1429C12.8371 14.2308 12.6917 14.2893 12.5389 14.314L12.4275 14.3418C11.9462 14.477 11.5444 14.9464 11.2342 15.738C10.2915 18.1803 10.8762 20.1652 11.5524 22.4643C11.6399 22.7666 11.7314 23.0729 11.8189 23.3832C12.4792 25.7181 13.8078 28.6616 16.2938 29.4134L16.3137 29.4373Z" fill="#040047"/>
<path d="M5.00154 51.7125C5.00154 51.7125 -0.0620999 66.5255 1.05166 70.722C2.16542 74.9185 16.0477 71.4141 16.0477 71.4141L12.5632 50.3521L5.00154 51.7125Z" fill="white"/>
<path d="M6.32939 72.9933C3.62454 72.9933 1.30553 72.4722 0.856047 70.7817C-0.257715 66.5772 4.60306 52.2694 4.8099 51.6608C4.82193 51.6272 4.84261 51.5974 4.86985 51.5743C4.89708 51.5513 4.92992 51.5358 4.96503 51.5295L12.5227 50.1691C12.5484 50.165 12.5746 50.166 12.5999 50.1722C12.6252 50.1783 12.649 50.1894 12.6699 50.2049C12.692 50.2191 12.7108 50.2378 12.7252 50.2597C12.7396 50.2816 12.7492 50.3063 12.7534 50.3322L16.2419 71.3942C16.2504 71.4436 16.24 71.4944 16.2127 71.5365C16.1854 71.5785 16.1433 71.6087 16.0947 71.621C15.7447 71.7085 10.5696 72.9933 6.32939 72.9933ZM5.13608 51.9114C4.67466 53.2797 0.191768 66.792 1.22598 70.6942C2.20847 74.4054 14.1933 71.6767 15.8043 71.2908L12.3795 50.6067L5.13608 51.9114Z" fill="#040047"/>
<path d="M39.9255 83.9758L37.1053 71.1476L8.95898 78.7053C8.95898 78.7053 9.01467 80.8095 9.09423 83.9758H39.9255Z" fill="#040047"/>
<path d="M27.9209 22.2774C27.9209 22.2774 30.6735 25.7181 30.2439 26.5256C29.8143 27.3331 28.0999 26.979 28.0999 26.979" fill="white"/>
<path d="M28.903 27.2416C28.6201 27.2397 28.3379 27.2131 28.0597 27.162C28.007 27.1515 27.9606 27.1204 27.9307 27.0756C27.9009 27.0309 27.8901 26.9761 27.9006 26.9233C27.9112 26.8706 27.9422 26.8242 27.987 26.7944C28.0317 26.7645 28.0865 26.7537 28.1393 26.7642C28.5728 26.8517 29.7701 26.9631 30.0685 26.4102C30.2952 25.9846 29.0502 23.9878 27.7654 22.3808C27.7322 22.3394 27.7165 22.2867 27.7217 22.2339C27.7269 22.1811 27.7526 22.1325 27.7932 22.0984C27.8354 22.0666 27.8882 22.0522 27.9407 22.0581C27.9933 22.064 28.0415 22.0898 28.0756 22.1302C28.549 22.7229 30.8879 25.7101 30.4185 26.5972C30.1401 27.1222 29.4599 27.2416 28.903 27.2416Z" fill="#040047"/>
<path d="M26.9622 17.4683C28.6209 18.586 28.4141 21.2869 28.5533 23.0371C28.7575 25.4741 28.9033 27.9138 28.9908 30.3561C29.0505 31.9034 25.0569 32.3012 24.3091 31.9034L25.5024 37.9416L16.819 35.4834L16.457 28.403C16.457 28.403 19.0982 28.1843 20.3711 24.8987C21.644 21.6131 21.1428 16.7881 21.1428 16.7881C21.1428 16.7881 25.3472 16.3744 26.9622 17.4683Z" fill="white"/>
<path d="M25.4937 38.1206H25.438L16.7546 35.6624C16.7149 35.6515 16.6797 35.6283 16.6539 35.5962C16.6282 35.564 16.6133 35.5245 16.6114 35.4834L16.2375 28.4229C16.2352 28.3717 16.2523 28.3214 16.2855 28.2823C16.3187 28.2432 16.3656 28.2181 16.4165 28.2121C16.5199 28.2121 18.9543 27.9575 20.1675 24.835C21.4086 21.6528 20.9312 16.8796 20.9233 16.8159C20.9195 16.7644 20.9351 16.7133 20.967 16.6727C21.0009 16.6313 21.0492 16.6043 21.1023 16.5972C21.2773 16.5972 25.4181 16.1994 27.0689 17.3132C28.5287 18.2957 28.6241 20.3879 28.6957 22.0864C28.6957 22.4166 28.7276 22.7348 28.7514 23.0252C28.9503 25.4555 29.0975 27.9178 29.189 30.3521C29.1855 30.5948 29.1144 30.8317 28.9837 31.0361C28.853 31.2406 28.6679 31.4046 28.4491 31.5096C27.4268 32.1501 25.4857 32.3609 24.5669 32.1938L25.6846 37.9058C25.6904 37.9398 25.6877 37.9747 25.6765 38.0074C25.6654 38.04 25.6463 38.0694 25.621 38.0928C25.5828 38.1158 25.538 38.1256 25.4937 38.1206ZM17.0012 35.3123L25.2351 37.6433L24.1174 31.9233C24.1113 31.8865 24.1155 31.8487 24.1295 31.814C24.1435 31.7794 24.1669 31.7493 24.1969 31.7271C24.2269 31.7049 24.2625 31.6914 24.2997 31.6881C24.3369 31.6849 24.3743 31.6919 24.4078 31.7085C24.893 31.9671 27.1484 31.8318 28.2423 31.1477C28.3973 31.0768 28.5304 30.9656 28.6277 30.8256C28.7249 30.6857 28.7828 30.5221 28.7952 30.3521C28.7077 27.9257 28.5605 25.4635 28.3576 23.0451C28.3338 22.7467 28.3179 22.4245 28.3019 22.0864C28.2343 20.4953 28.1428 18.5065 26.8501 17.6393C25.5573 16.7722 22.1842 16.9154 21.3409 16.979C21.4205 17.9416 21.683 22.0307 20.5454 24.9782C19.4237 27.8621 17.3035 28.4627 16.6512 28.582L17.0012 35.3123Z" fill="#040047"/>
<path d="M43.8757 45.7857C43.8757 45.7857 32.8097 39.8191 28.4541 36.4539C24.4127 33.3354 13.5893 31.4261 9.52809 37.1699C9.52809 37.1699 3.16373 49.0395 2.47559 55.543L7.3841 57.7387C7.35957 65.3463 7.7473 72.9496 8.54559 80.5152C18.466 82.2574 39.0149 74.3258 38.8399 74.2463L36.7437 58.7928L38.5615 60.197L43.8757 45.7857Z" fill="#FFE11B"/>
<path d="M28.7876 28.5264C28.7876 28.5264 26.401 28.5264 25.8242 25.3004L28.7876 28.5264Z" fill="white"/>
<path d="M28.7875 28.7253C28.7636 28.7253 26.2219 28.6855 25.6292 25.3362C25.6197 25.2835 25.6315 25.2291 25.6621 25.1851C25.6927 25.1411 25.7395 25.111 25.7923 25.1016C25.845 25.0921 25.8994 25.1039 25.9434 25.1345C25.9874 25.1651 26.0175 25.2119 26.0269 25.2646C26.5639 28.2798 28.704 28.3275 28.8114 28.3275C28.8641 28.3275 28.9147 28.3484 28.952 28.3857C28.9893 28.423 29.0102 28.4736 29.0102 28.5264C29.0104 28.5546 29.0046 28.5826 28.9932 28.6084C28.9817 28.6343 28.9649 28.6574 28.9438 28.6762C28.9227 28.695 28.8979 28.7091 28.8709 28.7176C28.844 28.726 28.8155 28.7287 28.7875 28.7253Z" fill="#040047"/>
<path d="M23.3932 24.2662C23.267 23.6697 22.9795 23.1194 22.5619 22.6751C22.2869 22.2864 21.9558 21.9405 21.5794 21.6489C21.3898 21.5044 21.1703 21.4044 20.9369 21.3562C20.7035 21.308 20.4622 21.3129 20.231 21.3704C20.0325 21.4403 19.851 21.5511 19.6981 21.6957C19.5453 21.8403 19.4246 22.0154 19.3439 22.2097C19.1896 22.603 19.1231 23.0252 19.149 23.4468C19.1932 24.3658 19.4781 25.257 19.9752 26.0312C20.4722 26.8054 21.164 27.4354 21.9812 27.8581L21.834 27.7268" fill="white"/>
<path d="M21.9817 28.0212C21.9515 28.0272 21.9205 28.0272 21.8903 28.0212C21.0435 27.5786 20.327 26.9228 19.8114 26.1184C19.2959 25.314 18.9992 24.3891 18.9507 23.4349C18.9211 22.9841 18.9946 22.5325 19.1655 22.1143C19.2551 21.8928 19.3914 21.6933 19.5651 21.5292C19.7387 21.3652 19.9457 21.2405 20.1719 21.1636C20.4318 21.0966 20.7036 21.0894 20.9668 21.1424C21.2299 21.1955 21.4777 21.3074 21.6914 21.4699C22.0855 21.7711 22.4316 22.1306 22.7176 22.5359C23.1631 23.0133 23.4663 23.6057 23.5927 24.2463C23.5953 24.2725 23.5928 24.2988 23.5852 24.324C23.5776 24.3491 23.5652 24.3725 23.5485 24.3928C23.5319 24.4131 23.5115 24.43 23.4883 24.4424C23.4652 24.4548 23.4398 24.4625 23.4137 24.4651C23.3876 24.4677 23.3612 24.4652 23.3361 24.4576C23.311 24.45 23.2876 24.4375 23.2673 24.4209C23.247 24.4043 23.2301 24.3838 23.2177 24.3607C23.2053 24.3376 23.1976 24.3122 23.195 24.2861C23.0711 23.722 22.7961 23.2022 22.3994 22.7825C22.1371 22.4091 21.8207 22.0766 21.4607 21.7961C21.2933 21.6674 21.0993 21.5777 20.8928 21.5337C20.6864 21.4896 20.4727 21.4923 20.2674 21.5415C20.0956 21.6038 19.9389 21.7016 19.8073 21.8283C19.6758 21.9551 19.5723 22.1081 19.5036 22.2774C19.3581 22.6408 19.2969 23.0325 19.3246 23.4229C19.367 24.2531 19.6121 25.0603 20.0385 25.7738C20.465 26.4874 21.0598 27.0855 21.7709 27.516C21.8009 27.5102 21.8318 27.5112 21.8614 27.5187C21.8909 27.5263 21.9185 27.5403 21.942 27.5598L22.0891 27.695C22.1254 27.7266 22.1487 27.7705 22.1546 27.8182C22.1605 27.8659 22.1485 27.9141 22.121 27.9536C22.1035 27.9736 22.0821 27.9899 22.0582 28.0015C22.0343 28.0131 22.0083 28.0198 21.9817 28.0212Z" fill="#040047"/>
<path d="M24.3128 31.8836C24.3128 31.8836 22.1847 31.4301 21.0908 30.0976C21.0908 30.0976 21.4886 33.3235 24.7463 34.1071L24.3128 31.8836Z" fill="#040047"/>
<path d="M24.7464 34.306H24.7026C21.3335 33.5104 20.8999 30.1612 20.8959 30.1294C20.8909 30.0868 20.8997 30.0438 20.921 30.0066C20.9424 29.9695 20.9752 29.9402 21.0146 29.9232C21.0539 29.9063 21.0977 29.9024 21.1394 29.9123C21.1811 29.9222 21.2185 29.9454 21.246 29.9782C22.2802 31.2392 24.3367 31.6926 24.3565 31.6966C24.3948 31.7049 24.4297 31.7245 24.4566 31.7529C24.4836 31.7812 24.5014 31.8171 24.5077 31.8557L24.9413 34.0753C24.9485 34.108 24.9472 34.142 24.9374 34.1741C24.9277 34.2061 24.9098 34.2351 24.8856 34.2583C24.847 34.2914 24.7972 34.3085 24.7464 34.306ZM21.4409 30.726C21.6502 31.4549 22.0392 32.1195 22.5723 32.6589C23.1054 33.1982 23.7654 33.595 24.4918 33.8128L24.1417 32.0307C23.1598 31.7926 22.2393 31.3493 21.4409 30.73V30.726Z" fill="#040047"/>
<path d="M38.5531 60.3959C38.5112 60.3962 38.4705 60.3822 38.4377 60.3561C38.3542 60.2964 30.0527 54.2264 26.787 50.8652C26.7687 50.8464 26.7543 50.8242 26.7446 50.7998C26.7349 50.7755 26.7301 50.7494 26.7305 50.7232C26.7309 50.697 26.7364 50.6711 26.7468 50.647C26.7571 50.6229 26.7722 50.6011 26.791 50.5828C26.8098 50.5645 26.832 50.5501 26.8564 50.5404C26.8807 50.5308 26.9068 50.526 26.933 50.5263C26.9592 50.5267 26.9851 50.5322 27.0092 50.5426C27.0333 50.553 27.0551 50.568 27.0734 50.5868C30.3152 53.9241 38.5889 59.9742 38.6724 60.0339C38.7144 60.0656 38.7424 60.1123 38.7506 60.1643C38.7587 60.2162 38.7464 60.2693 38.7162 60.3123C38.6979 60.3386 38.6735 60.3599 38.6451 60.3745C38.6166 60.389 38.585 60.3964 38.5531 60.3959Z" fill="#040047"/>
<path d="M26.9886 20.6954C27.0272 20.212 26.9054 19.808 26.7165 19.7929C26.5275 19.7778 26.343 20.1573 26.3044 20.6406C26.2657 21.1239 26.3875 21.528 26.5765 21.5431C26.7654 21.5582 26.9499 21.1787 26.9886 20.6954Z" fill="#040047"/>
<path d="M7.00171 55.722C6.97525 55.7215 6.94915 55.7158 6.92495 55.705C6.90075 55.6943 6.87893 55.6789 6.86078 55.6596C6.84263 55.6403 6.8285 55.6176 6.81923 55.5928C6.80997 55.568 6.80574 55.5417 6.8068 55.5152C6.8068 55.0339 7.20457 43.6894 8.74395 39.7237C8.76347 39.6746 8.80167 39.6353 8.85016 39.6144C8.89865 39.5935 8.95345 39.5928 9.00251 39.6123C9.05156 39.6318 9.09085 39.67 9.11174 39.7185C9.13263 39.767 9.1334 39.8218 9.11388 39.8708C7.58644 43.769 7.20855 55.4118 7.20457 55.5271C7.20252 55.5795 7.18024 55.6291 7.14242 55.6655C7.10459 55.7018 7.05416 55.7221 7.00171 55.722Z" fill="#040047"/>
</svg>
