<svg width="95" height="86" viewBox="0 0 95 86" fill="none" xmlns="http://www.w3.org/2000/svg">
<path d="M90.7702 43.041C90.7702 43.041 96.7321 43.7008 93.8267 54.8774L79.6572 53.1921C79.6572 53.1921 86.1795 41.7214 90.7702 43.041Z" fill="white"/>
<path d="M93.8152 55.0761L79.6417 53.3909C79.609 53.3872 79.5777 53.3755 79.5507 53.3568C79.5236 53.338 79.5017 53.3129 79.4867 53.2836C79.472 53.2539 79.4644 53.2213 79.4644 53.1882C79.4644 53.1551 79.472 53.1224 79.4867 53.0928C79.757 52.6198 86.1243 41.5267 90.8143 42.8463C91.3852 42.9582 91.9276 43.1841 92.409 43.5106C92.8905 43.837 93.3012 44.2573 93.6164 44.7461C95.087 46.8765 95.2261 50.3106 94.0139 54.929C94.0022 54.9724 93.9763 55.0105 93.9402 55.0372C93.9041 55.0639 93.86 55.0776 93.8152 55.0761ZM79.9835 53.0491L93.68 54.6786C95.0751 49.1778 94.2404 46.3757 93.2826 44.9925C92.9977 44.5475 92.6259 44.1647 92.1895 43.8669C91.7531 43.5691 91.261 43.3626 90.7428 43.2596H90.711C86.7006 42.0792 80.9851 51.344 79.9835 53.0491Z" fill="#040047"/>
<path d="M78.4819 64.8615C78.4819 64.8615 81.2243 65.259 83.8754 56.5705C86.5264 47.8821 84.8531 43.2516 90.7713 43.0569L72.047 40.6006C72.047 40.6006 67.8498 63.2916 78.4819 64.8615Z" fill="white"/>
<path d="M78.537 65.0641H78.4495C77.5062 64.9283 76.6016 64.5973 75.7934 64.0923C74.9852 63.5872 74.2911 62.9192 73.7555 62.1309C71.808 59.4083 70.8978 54.9448 71.0488 48.8676C71.1198 46.0809 71.3854 43.3025 71.8438 40.5528C71.8525 40.5023 71.8808 40.4574 71.9224 40.4276C71.9641 40.3979 72.0158 40.3857 72.0663 40.3938L90.7867 42.8501C90.8366 42.8561 90.8823 42.8807 90.9148 42.919C90.9472 42.9574 90.964 43.0066 90.9616 43.0568C90.9577 43.1064 90.9357 43.1528 90.8998 43.1873C90.8639 43.2217 90.8166 43.2418 90.7668 43.2436C86.7922 43.3867 86.3948 45.5608 85.5999 49.8971C85.2254 52.1691 84.7131 54.4163 84.0657 56.6261C81.6173 64.6468 79.0457 65.0641 78.537 65.0641ZM78.5052 64.6667C78.5648 64.6667 81.1523 64.8137 83.6722 56.5108C84.3174 54.3139 84.8297 52.0801 85.2064 49.8215C85.894 46.0258 86.3153 43.7007 89.181 43.0369L72.1975 40.8071C71.9074 42.544 69.8127 55.9464 74.0695 61.8964C74.5749 62.6419 75.2305 63.2735 75.9944 63.7506C76.7583 64.2276 77.6136 64.5397 78.5052 64.6667Z" fill="#040047"/>
<path d="M80.0591 5.84277C80.0591 5.84277 84.8087 6.63769 83.7117 13.6529C82.3643 22.242 75.6632 51.809 75.5002 58.4228C75.3373 65.0365 78.4812 64.8616 78.4812 64.8616L34.9911 60.3544C34.9911 60.3544 32.9481 58.6891 37.4156 41.6738C41.883 24.6585 45.9491 10.1234 48.3259 8.98271C50.7027 7.842 80.0591 5.84277 80.0591 5.84277Z" fill="white"/>
<path d="M78.462 65.0643C78.3566 65.0611 78.2516 65.0491 78.1481 65.0285L34.9918 60.5531C34.9537 60.5495 34.9177 60.5342 34.8885 60.5094C34.6659 60.3306 32.8694 58.2797 37.2415 41.6221C42.3488 22.1665 45.9856 9.88892 48.2591 8.79987C50.6438 7.67109 78.8635 5.72353 80.0559 5.64404H80.1036C80.1513 5.64404 85.0321 6.56615 83.9152 13.6807C83.4184 16.8604 82.23 22.6991 80.8508 29.4797C78.4859 41.0975 75.811 54.2653 75.7077 58.4267C75.6242 61.8171 76.431 63.3393 77.1226 64.019C77.4164 64.3238 77.7917 64.5377 78.2037 64.6351L78.5097 64.6669C78.5624 64.6669 78.613 64.6878 78.6503 64.7251C78.6875 64.7623 78.7085 64.8129 78.7085 64.8656C78.7085 64.9183 78.6875 64.9688 78.6503 65.0061C78.613 65.0434 78.5624 65.0643 78.5097 65.0643H78.462ZM35.0952 60.1636L77.0749 64.5158C76.9955 64.4541 76.9199 64.3878 76.8484 64.3171C75.7514 63.2519 75.2347 61.2646 75.3022 58.4148C75.4056 54.2216 78.0845 41.0339 80.4692 29.4002C81.8484 22.6434 83.0368 16.7729 83.5297 13.6211C84.5591 7.0749 80.4493 6.11702 80.0638 6.0415C79.0622 6.10907 50.7114 8.0765 48.426 9.16156C46.0412 10.2904 41.6016 26.5624 37.623 41.7215C35.8265 48.5618 34.8408 53.7407 34.7494 57.1191C34.662 59.3051 34.9918 60.0007 35.0952 60.1636Z" fill="#040047"/>
<path d="M44.9279 4.95641C44.9279 4.95641 40.0034 4.72588 38.8786 10.8945C38.2466 14.3563 31.4858 42.2461 31.4858 42.2461L63.9385 49.297C71.6293 49.6508 73.5212 13.8516 73.5212 13.8516C73.5212 13.8516 73.5013 5.85069 80.0435 5.85069C80.0594 5.84274 49.0576 4.10187 44.9279 4.95641Z" fill="white"/>
<path d="M64.066 49.4918H63.9467L31.4623 42.4329C31.4359 42.4287 31.4108 42.4187 31.3888 42.4036C31.3668 42.3885 31.3485 42.3686 31.3351 42.3454C31.3214 42.3231 31.3122 42.2982 31.3081 42.2723C31.304 42.2464 31.3051 42.2199 31.3113 42.1944C31.3788 41.9162 38.0681 14.2728 38.7001 10.8547C39.801 4.82124 44.5308 4.74174 44.9283 4.74969C49.1056 3.919 78.8117 5.57244 80.0756 5.64398C80.1012 5.645 80.1264 5.65106 80.1496 5.6618C80.1728 5.67255 80.1937 5.68777 80.2111 5.7066C80.2284 5.72542 80.2419 5.74749 80.2507 5.77153C80.2595 5.79556 80.2635 5.8211 80.2625 5.84668C80.2604 5.89838 80.2387 5.94734 80.2018 5.98354C80.1648 6.01975 80.1154 6.04046 80.0637 6.04144C79.3154 6.01679 78.5699 6.14507 77.8728 6.41844C77.1757 6.6918 76.5417 7.10449 76.0096 7.63128C73.76 9.8809 73.7401 13.8197 73.7401 13.8595C73.6606 15.3142 71.7648 49.4918 64.066 49.4918ZM31.7445 42.0871L64.0063 49.0983C67.0032 49.2493 69.5708 43.2079 71.4428 31.6697C72.8578 22.8739 73.3427 13.9191 73.3467 13.8317C73.3467 13.6727 73.3467 9.70205 75.7314 7.32921C76.3781 6.68078 77.1736 6.20046 78.0486 5.93015C71.1089 5.56449 48.4299 4.4357 44.9958 5.13523H44.9283C44.7335 5.13523 40.1587 4.99215 39.0856 10.9103C38.4934 14.1973 32.3526 39.5751 31.7445 42.0871V42.0871Z" fill="#040047"/>
<path d="M63.9536 49.2891C63.9536 49.2891 57.01 48.375 58.5839 40.5848L27.582 38.1125L30.245 46.6261L63.9536 49.2891Z" fill="white"/>
<path d="M63.9539 49.4719L30.2215 46.8249C30.1826 46.8206 30.1458 46.8052 30.1155 46.7806C30.0852 46.7559 30.0626 46.7229 30.0506 46.6857L27.3836 38.1682C27.3745 38.1371 27.373 38.1042 27.3793 38.0724C27.3855 38.0406 27.3992 38.0107 27.4194 37.9853C27.4397 37.9602 27.466 37.9404 27.4958 37.9279C27.5256 37.9155 27.5581 37.9106 27.5903 37.9138L58.5922 40.386C58.6481 40.3937 58.6991 40.4221 58.7353 40.4655C58.7517 40.4882 58.7633 40.514 58.7695 40.5413C58.7756 40.5686 58.7762 40.5969 58.771 40.6245C58.2822 43.0371 58.5763 44.9965 59.6415 46.5069C61.2075 48.7009 63.946 49.0904 63.9738 49.0944C64.0265 49.098 64.0756 49.1225 64.1102 49.1624C64.1449 49.2023 64.1623 49.2543 64.1586 49.307C64.1549 49.3597 64.1304 49.4088 64.0906 49.4434C64.0507 49.4781 63.9987 49.4955 63.946 49.4918L63.9539 49.4719ZM30.3964 46.4234L62.1216 48.9314C61.0125 48.46 60.0513 47.6979 59.3394 46.7255C58.2384 45.1833 57.9085 43.1762 58.3577 40.7636L27.8606 38.3431L30.3964 46.4234Z" fill="#040047"/>
<path d="M69.2484 57.8184L37.7338 55.1038C37.7077 55.1018 37.6822 55.0946 37.6589 55.0827C37.6355 55.0708 37.6147 55.0544 37.5977 55.0345C37.5807 55.0145 37.5679 54.9914 37.5598 54.9665C37.5518 54.9415 37.5488 54.9152 37.551 54.8891C37.5524 54.863 37.5592 54.8374 37.571 54.8139C37.5827 54.7905 37.5992 54.7697 37.6193 54.753C37.6395 54.7362 37.6629 54.7237 37.688 54.7164C37.7132 54.709 37.7396 54.707 37.7656 54.7103L69.2842 57.4249C69.3369 57.4276 69.3864 57.451 69.4218 57.4902C69.4572 57.5293 69.4756 57.5809 69.473 57.6336C69.4703 57.6863 69.4469 57.7358 69.4078 57.7712C69.3686 57.8066 69.317 57.825 69.2643 57.8224L69.2484 57.8184Z" fill="#D1D3D4"/>
<path d="M67.1856 53.5219L35.667 50.8072C35.6409 50.8049 35.6155 50.7974 35.5923 50.7852C35.5691 50.7731 35.5485 50.7565 35.5317 50.7363C35.4978 50.6957 35.4814 50.6433 35.4862 50.5906C35.4909 50.5379 35.5164 50.4892 35.557 50.4553C35.5976 50.4214 35.6501 50.405 35.7028 50.4097L67.1856 53.1244C67.238 53.1294 67.2863 53.1547 67.3204 53.1947C67.3545 53.2348 67.3718 53.2865 67.3684 53.339C67.3648 53.3863 67.3443 53.4307 67.3108 53.4642C67.2773 53.4978 67.2329 53.5182 67.1856 53.5219V53.5219Z" fill="#D1D3D4"/>
<path d="M45.2654 35.056L41.0364 34.6586C40.9839 34.6529 40.9355 34.6273 40.9013 34.587C40.8853 34.5663 40.8736 34.5427 40.8667 34.5175C40.8599 34.4922 40.8582 34.4659 40.8615 34.44L41.6803 27.8421C41.6863 27.7908 41.7121 27.7438 41.7521 27.7112C41.7922 27.6785 41.8434 27.6628 41.8949 27.6673L46.1239 28.0647C46.15 28.0671 46.1754 28.0747 46.1986 28.087C46.2218 28.0992 46.2423 28.116 46.259 28.1363C46.2912 28.1798 46.3067 28.2333 46.3028 28.2873L45.48 34.8812C45.474 34.9325 45.4482 34.9795 45.4082 35.0121C45.3681 35.0448 45.3169 35.0605 45.2654 35.056ZM41.259 34.2611L45.0905 34.6308L45.8616 28.4304L42.0301 28.0607L41.259 34.2611Z" fill="#D1D3D4"/>
<path d="M45.8299 30.497H45.81L41.585 30.0995C41.5586 30.0969 41.5329 30.0888 41.5097 30.0758C41.4864 30.0628 41.4661 30.0452 41.4499 30.024C41.4324 30.0041 41.4194 29.9807 41.4119 29.9553C41.4043 29.9299 41.4024 29.9032 41.4062 29.877L41.6606 27.838C41.6666 27.7866 41.6923 27.7397 41.7324 27.707C41.7725 27.6744 41.8237 27.6586 41.8752 27.6631L46.1042 28.0606C46.1303 28.063 46.1557 28.0705 46.1789 28.0828C46.2021 28.0951 46.2226 28.1118 46.2393 28.1321C46.2714 28.1756 46.287 28.2292 46.283 28.2831L46.0287 30.3181C46.0237 30.3673 46.0006 30.4129 45.9639 30.446C45.9271 30.4791 45.8794 30.4972 45.8299 30.497V30.497ZM41.8275 29.7021L45.659 30.0757L45.8617 28.4302L42.0302 28.0606L41.8275 29.7021Z" fill="#D1D3D4"/>
<path d="M51.5766 35.6681L47.3517 35.2706C47.2984 35.2643 47.2498 35.2372 47.2165 35.1951C47.199 35.1752 47.186 35.1518 47.1785 35.1264C47.1709 35.101 47.169 35.0743 47.1728 35.048L48.6474 23.1918C48.6498 23.1663 48.6574 23.1416 48.6696 23.1191C48.6818 23.0966 48.6984 23.0768 48.7184 23.0608C48.7385 23.0449 48.7615 23.0331 48.7862 23.0263C48.8108 23.0194 48.8366 23.0176 48.862 23.0209L53.091 23.4184C53.1435 23.4241 53.1919 23.4497 53.2261 23.4899C53.2424 23.5112 53.2543 23.5355 53.2611 23.5614C53.2679 23.5874 53.2695 23.6144 53.2659 23.6409L51.7953 35.4932C51.7883 35.5449 51.7617 35.5919 51.721 35.6244C51.6803 35.657 51.6286 35.6726 51.5766 35.6681V35.6681ZM47.5742 34.8732L51.4057 35.2468L52.8287 23.784L48.9971 23.4144L47.5742 34.8732Z" fill="#D1D3D4"/>
<path d="M52.7426 26.3039L48.5176 25.9065C48.4632 25.9003 48.4133 25.8732 48.3785 25.8309C48.3623 25.8104 48.3505 25.7867 48.3437 25.7615C48.3368 25.7362 48.3352 25.7098 48.3388 25.6839L48.6488 23.1918C48.6512 23.1663 48.6588 23.1416 48.671 23.1191C48.6832 23.0966 48.6998 23.0768 48.7198 23.0608C48.7399 23.0449 48.7629 23.0331 48.7876 23.0263C48.8122 23.0194 48.838 23.0176 48.8634 23.0209L53.0924 23.4184C53.1449 23.4241 53.1933 23.4497 53.2275 23.4899C53.2438 23.5112 53.2557 23.5355 53.2625 23.5614C53.2693 23.5874 53.271 23.6144 53.2673 23.6409L52.9572 26.129C52.9512 26.1804 52.9255 26.2273 52.8854 26.26C52.8453 26.2926 52.7941 26.3084 52.7426 26.3039ZM48.7362 25.509L52.5677 25.8826L52.8301 23.784L48.9985 23.4144L48.7362 25.509Z" fill="#D1D3D4"/>
<path d="M57.8931 36.2802H57.8732L53.6442 35.8827C53.6181 35.8798 53.5927 35.8717 53.5697 35.8588C53.5467 35.846 53.5265 35.8287 53.5102 35.808C53.494 35.7873 53.482 35.7636 53.475 35.7382C53.4679 35.7128 53.466 35.6863 53.4694 35.6602L56.3629 12.3611C56.3654 12.3354 56.3729 12.3105 56.385 12.2878C56.3972 12.2652 56.4137 12.2451 56.4337 12.2288C56.4537 12.2126 56.4766 12.2004 56.5013 12.1931C56.526 12.1858 56.5519 12.1834 56.5775 12.1862L60.8065 12.5836C60.8595 12.5907 60.9078 12.6177 60.9416 12.6591C60.9578 12.6797 60.9696 12.7034 60.9765 12.7286C60.9833 12.7539 60.985 12.7803 60.9814 12.8062L58.0878 36.1093C58.082 36.1567 58.0589 36.2003 58.023 36.2318C57.9871 36.2633 57.9409 36.2806 57.8931 36.2802V36.2802ZM53.8867 35.4853L57.7182 35.8589L60.564 12.9533L56.7325 12.5797L53.8867 35.4853Z" fill="#D1D3D4"/>
<path d="M60.4284 15.8309L56.1994 15.4334C56.1733 15.4305 56.1479 15.4223 56.1249 15.4095C56.1019 15.3967 56.0817 15.3794 56.0654 15.3587C56.0491 15.338 56.0371 15.3143 56.0301 15.2889C56.0231 15.2635 56.0212 15.237 56.0245 15.2108L56.3783 12.3611C56.3808 12.3354 56.3883 12.3105 56.4005 12.2878C56.4126 12.2652 56.4292 12.2451 56.4491 12.2288C56.4691 12.2126 56.4921 12.2004 56.5167 12.1931C56.5414 12.1858 56.5673 12.1834 56.5929 12.1862L60.8219 12.5836C60.8749 12.5907 60.9232 12.6177 60.957 12.6591C60.9732 12.6797 60.985 12.7034 60.9919 12.7286C60.9987 12.7539 61.0004 12.7803 60.9968 12.8062L60.643 15.656C60.6405 15.6816 60.633 15.7065 60.6209 15.7292C60.6087 15.7519 60.5922 15.772 60.5722 15.7882C60.5522 15.8045 60.5293 15.8166 60.5046 15.8239C60.4799 15.8313 60.454 15.8336 60.4284 15.8309V15.8309ZM56.422 15.036L60.2535 15.4096L60.5596 12.9533L56.728 12.5797L56.422 15.036Z" fill="#D1D3D4"/>
<path d="M64.2041 36.8962H64.1842L59.9592 36.4987C59.9327 36.4963 59.9069 36.4885 59.8835 36.4759C59.86 36.4633 59.8393 36.4461 59.8226 36.4253C59.8059 36.4046 59.7936 36.3807 59.7863 36.355C59.7791 36.3294 59.777 36.3026 59.7803 36.2762L60.7581 28.4064C60.7641 28.3554 60.79 28.3088 60.8302 28.2768C60.8704 28.2448 60.9216 28.2299 60.9727 28.2355L65.2017 28.633C65.2279 28.6359 65.2532 28.6441 65.2762 28.6569C65.2992 28.6697 65.3194 28.687 65.3357 28.7077C65.352 28.7284 65.364 28.7521 65.371 28.7775C65.378 28.8029 65.3799 28.8294 65.3766 28.8556L64.4028 36.7213C64.3961 36.7694 64.3724 36.8136 64.3359 36.8457C64.2995 36.8778 64.2527 36.8957 64.2041 36.8962V36.8962ZM60.2017 36.1013L64.0332 36.4749L64.9593 29.0146L61.1277 28.6409L60.2017 36.1013Z" fill="#D1D3D4"/>
<path d="M64.837 31.8007L60.6081 31.4033C60.5548 31.397 60.5062 31.3698 60.4729 31.3278C60.4413 31.2886 60.4256 31.2389 60.4292 31.1887L60.775 28.4064C60.781 28.3554 60.8069 28.3088 60.8471 28.2768C60.8873 28.2448 60.9385 28.2299 60.9896 28.2355L65.2186 28.633C65.2448 28.6359 65.2701 28.6441 65.2931 28.6569C65.3161 28.6697 65.3363 28.687 65.3526 28.7077C65.3689 28.7284 65.3809 28.7521 65.3879 28.7775C65.3949 28.8029 65.3968 28.8294 65.3935 28.8556L65.0517 31.6179C65.0466 31.6703 65.0214 31.7186 64.9814 31.7528C64.9413 31.7869 64.8896 31.8041 64.837 31.8007ZM60.8346 31.0058L64.6661 31.3794L64.9603 28.9947L61.1287 28.6211L60.8346 31.0058Z" fill="#D1D3D4"/>
<path d="M66.6246 37.1505H66.6048L39.2317 34.4955C39.2056 34.493 39.1802 34.4853 39.157 34.473C39.1338 34.4606 39.1133 34.4438 39.0967 34.4235C39.08 34.4031 39.0676 34.3797 39.0601 34.3545C39.0526 34.3294 39.0501 34.303 39.0528 34.2769C39.0548 34.2509 39.062 34.2256 39.0739 34.2024C39.0859 34.1793 39.1023 34.1587 39.1224 34.1421C39.1424 34.1254 39.1655 34.1129 39.1904 34.1053C39.2154 34.0978 39.2416 34.0953 39.2675 34.098L66.6445 36.753C66.6701 36.7555 66.695 36.763 66.7177 36.7752C66.7404 36.7874 66.7605 36.8039 66.7767 36.8239C66.793 36.8438 66.8051 36.8668 66.8125 36.8915C66.8198 36.9162 66.8222 36.9421 66.8194 36.9677C66.8155 37.0169 66.7933 37.0629 66.7573 37.0967C66.7213 37.1305 66.674 37.1497 66.6246 37.1505V37.1505Z" fill="#D1D3D4"/>
<path d="M70.8505 16.8445L64.0936 16.2324C64.0416 16.2273 63.9936 16.202 63.9601 16.1618C63.9266 16.1216 63.9103 16.0699 63.9148 16.0177C63.9168 15.9916 63.9239 15.9661 63.9358 15.9428C63.9477 15.9194 63.9641 15.8987 63.9841 15.8817C64.004 15.8647 64.0271 15.8518 64.0521 15.8438C64.077 15.8358 64.1033 15.8327 64.1294 15.8349L70.8862 16.451C70.9122 16.453 70.9375 16.4601 70.9607 16.4721C70.9838 16.484 71.0043 16.5005 71.021 16.5205C71.0377 16.5405 71.0502 16.5637 71.0578 16.5886C71.0653 16.6135 71.0678 16.6397 71.0651 16.6656C71.06 16.7177 71.0347 16.7656 70.9945 16.7991C70.9543 16.8326 70.9026 16.8489 70.8505 16.8445V16.8445Z" fill="#D1D3D4"/>
<path d="M70.7346 18.5096L63.9778 17.8936C63.9518 17.8916 63.9265 17.8844 63.9033 17.8725C63.8802 17.8606 63.8597 17.8441 63.843 17.8241C63.8263 17.8041 63.8138 17.7809 63.8063 17.756C63.7987 17.7311 63.7962 17.7049 63.7989 17.679C63.8009 17.653 63.8081 17.6277 63.82 17.6045C63.832 17.5814 63.8484 17.5608 63.8684 17.5442C63.8885 17.5275 63.9116 17.515 63.9365 17.5074C63.9615 17.4999 63.9877 17.4974 64.0136 17.5001L70.7704 18.1122C70.7963 18.1142 70.8217 18.1213 70.8448 18.1333C70.868 18.1452 70.8885 18.1617 70.9052 18.1817C70.9218 18.2017 70.9343 18.2249 70.9419 18.2498C70.9495 18.2747 70.952 18.3009 70.9492 18.3268C70.9472 18.3529 70.9401 18.3784 70.9282 18.4018C70.9163 18.4251 70.8999 18.4459 70.88 18.4629C70.86 18.4799 70.8369 18.4928 70.812 18.5008C70.787 18.5088 70.7607 18.5118 70.7346 18.5096Z" fill="#D1D3D4"/>
<path d="M70.6196 20.175L63.8628 19.5589C63.8367 19.5566 63.8113 19.5491 63.7881 19.5369C63.7649 19.5248 63.7443 19.5082 63.7275 19.4881C63.6936 19.4474 63.6772 19.395 63.682 19.3423C63.6867 19.2896 63.7122 19.2409 63.7528 19.207C63.7934 19.1731 63.8459 19.1567 63.8986 19.1614L70.6554 19.7735C70.707 19.7795 70.7544 19.8052 70.7877 19.8451C70.821 19.8851 70.8377 19.9363 70.8342 19.9882C70.8327 20.0146 70.826 20.0405 70.8143 20.0644C70.8026 20.0882 70.7863 20.1094 70.7663 20.1268C70.7463 20.1442 70.723 20.1574 70.6978 20.1657C70.6726 20.174 70.6461 20.1771 70.6196 20.175Z" fill="#D1D3D4"/>
<path d="M68.8545 21.6894L63.7591 21.2284C63.7329 21.2259 63.7075 21.2182 63.6843 21.2059C63.6612 21.1935 63.6407 21.1767 63.624 21.1564C63.6074 21.136 63.595 21.1126 63.5874 21.0875C63.5799 21.0623 63.5774 21.0359 63.5802 21.0098C63.5822 20.9838 63.5893 20.9585 63.6013 20.9353C63.6132 20.9122 63.6297 20.8916 63.6497 20.875C63.6697 20.8583 63.6929 20.8458 63.7178 20.8382C63.7427 20.8307 63.7689 20.8282 63.7948 20.8309L68.8903 21.292C68.9164 21.2944 68.9418 21.3021 68.965 21.3144C68.9882 21.3268 69.0086 21.3436 69.0253 21.364C69.0419 21.3843 69.0544 21.4077 69.0619 21.4329C69.0694 21.458 69.0719 21.4844 69.0691 21.5106C69.0671 21.5365 69.06 21.5619 69.048 21.585C69.0361 21.6082 69.0196 21.6287 68.9996 21.6454C68.9796 21.662 68.9564 21.6745 68.9315 21.6821C68.9066 21.6897 68.8804 21.6922 68.8545 21.6894V21.6894Z" fill="#D1D3D4"/>
<path d="M30.2218 38.9272C31.2737 36.8298 32.7157 34.9521 34.4706 33.3946C37.2926 30.9581 38.9818 29.1854 38.0954 28.7005C37.2091 28.2156 34.2758 30.2904 34.2758 30.2904L36.3228 21.6099C36.3228 21.6099 31.6089 25.3897 30.2218 28.1282C28.8346 30.8667 26.1001 36.6378 26.1001 36.6378L30.2218 38.9272Z" fill="white"/>
<path d="M30.2218 39.1379C30.1886 39.1376 30.1559 39.1294 30.1264 39.114L26.0008 36.8326C25.9567 36.8082 25.9236 36.7679 25.9081 36.7199C25.8926 36.6719 25.8959 36.6199 25.9173 36.5743C25.9451 36.5186 28.6717 30.7713 30.0469 28.0607C31.4221 25.35 36.0088 21.6337 36.1996 21.4787C36.2333 21.4548 36.2736 21.4419 36.3149 21.4419C36.3562 21.4419 36.3965 21.4548 36.4301 21.4787C36.465 21.5002 36.4922 21.5321 36.5079 21.5699C36.5236 21.6077 36.527 21.6495 36.5176 21.6894L34.5939 29.8492C35.512 29.2372 37.4119 28.1004 38.1949 28.5297C38.287 28.5751 38.3662 28.6429 38.4253 28.7269C38.4843 28.811 38.5213 28.9085 38.5327 29.0106C38.6122 29.7539 37.4715 31.0655 34.6058 33.5416C32.8752 35.0844 31.4512 36.9399 30.4086 39.0107C30.3973 39.0359 30.3808 39.0584 30.3603 39.0769C30.3398 39.0954 30.3156 39.1094 30.2894 39.118L30.2218 39.1379ZM26.3585 36.5743L30.1383 38.6649C31.199 36.6208 32.6241 34.7875 34.3435 33.2555C35.3014 32.4248 38.2227 29.9009 38.1313 29.0662C38.1282 29.0272 38.1143 28.9898 38.0911 28.9582C38.068 28.9266 38.0364 28.9021 38.0001 28.8874C37.4317 28.5813 35.4882 29.6823 34.3912 30.4772C34.358 30.5001 34.3187 30.5124 34.2784 30.5125C34.2381 30.5125 34.1987 30.5003 34.1655 30.4774C34.1323 30.4546 34.1068 30.4222 34.0925 30.3845C34.0781 30.3469 34.0756 30.3057 34.0851 30.2666L35.9969 22.1624C34.8045 23.1838 31.5016 26.0694 30.4007 28.2395C29.1566 30.672 26.8116 35.5925 26.3506 36.5623L26.3585 36.5743Z" fill="#040047"/>
<path d="M13.2705 24.094C12.2292 24.0463 11.1879 23.8674 9.97957 23.7641C8.85476 23.6687 7.40801 23.2474 7.38416 22.1226C7.36429 21.1567 8.52487 20.3658 8.27049 19.4318C8.18278 19.1818 8.04785 18.9511 7.87303 18.7521C6.26669 16.597 5.55622 13.9042 5.89034 11.2371C6.22446 8.57013 7.57726 6.13574 9.66558 4.44354C9.34761 4.55085 9.01374 4.23686 8.98195 3.90299C8.98203 3.5665 9.10988 3.2426 9.33966 2.99678C10.1346 2.03096 11.2912 1.47849 12.4677 1.09295C16.2237 -0.14315 20.3573 -0.00801325 24.149 1.09295C27.0704 1.94749 30.572 4.27263 30.1864 7.7981C30.0473 9.066 29.0537 10.3021 27.8017 10.3577C27.1498 14.1336 25.1705 16.7171 22.6824 19.4437C21.0113 21.3286 18.8986 22.7694 16.5337 23.6369C15.4869 24.0037 14.3778 24.1591 13.2705 24.094V24.094Z" fill="white"/>
<path d="M13.7268 24.3007H13.2618C12.6457 24.2729 12.0376 24.2013 11.3937 24.1218C10.9366 24.0702 10.4637 24.0145 9.96285 23.9708C8.24185 23.8238 7.20448 23.1361 7.18063 22.1345C7.21823 21.6425 7.3916 21.1706 7.68143 20.7713C7.94376 20.3301 8.19018 19.9127 8.07889 19.4914C8.00513 19.2844 7.89323 19.0929 7.749 18.927L7.71323 18.8754C6.12513 16.7405 5.39696 14.0869 5.67302 11.4405C5.94907 8.79405 7.2092 6.34787 9.20371 4.58669L9.15601 4.55887C9.04752 4.49002 8.95561 4.398 8.88689 4.28942C8.81817 4.18085 8.77434 4.0584 8.75855 3.93088C8.74672 3.54226 8.88968 3.16484 9.15601 2.88159C10.0423 1.77267 11.4176 1.22815 12.3794 0.894285C15.9566 -0.298095 20.1458 -0.298095 24.176 0.894285C27.5226 1.87601 30.7301 4.39193 30.3565 7.81009C30.2174 9.05811 29.2794 10.3817 27.9201 10.5367C27.2047 14.4437 25.0822 17.0391 22.7809 19.5709C21.0915 21.4686 18.9586 22.9187 16.5726 23.792C15.6602 24.1236 14.6976 24.2957 13.7268 24.3007V24.3007ZM13.2777 23.9032C14.3573 23.962 15.438 23.8067 16.4574 23.4462C18.7833 22.5992 20.8612 21.1853 22.5027 19.3325C25.2531 16.3078 26.9662 13.8714 27.5743 10.3499C27.5816 10.3048 27.6041 10.2636 27.6381 10.2332C27.6721 10.2029 27.7155 10.1851 27.7611 10.1829C28.9535 10.1313 29.8557 8.90311 29.975 7.79817C30.3247 4.61849 27.2683 2.23373 24.0806 1.30764C20.106 0.151035 16.0201 0.147061 12.5185 1.30764C11.6083 1.60971 10.3047 2.12641 9.48193 3.14788C9.28097 3.35268 9.16825 3.62806 9.16793 3.91498C9.17629 3.98123 9.1987 4.04493 9.23365 4.10182C9.26861 4.15871 9.31532 4.20748 9.37064 4.24487C9.40195 4.26709 9.43775 4.28217 9.47552 4.28903C9.5133 4.2959 9.55211 4.29439 9.58924 4.28462C9.6334 4.26941 9.6815 4.27023 9.72511 4.28695C9.76872 4.30366 9.80505 4.33521 9.82772 4.37604C9.84918 4.41736 9.85575 4.46481 9.84634 4.51041C9.83693 4.55601 9.81211 4.59698 9.77605 4.62643C7.73123 6.28686 6.40688 8.67301 6.07953 11.2867C5.75217 13.9003 6.44713 16.5394 8.01927 18.6528L8.05902 18.7005C8.23342 18.9072 8.36816 19.1444 8.45648 19.4C8.61546 19.9843 8.3134 20.493 8.01927 20.9899C7.77017 21.3272 7.61641 21.7253 7.57412 22.1425C7.59797 23.2951 9.42628 23.5416 9.9867 23.5893C10.5471 23.6369 10.9724 23.6886 11.4335 23.7443C12.0694 23.8198 12.6696 23.8913 13.2697 23.9191L13.2777 23.9032Z" fill="#040047"/>
<path d="M28.7909 15.8625C28.7909 15.8625 31.4817 20.2982 30.8577 21.1726C30.2337 22.047 28.2861 21.3753 28.2861 21.3753" fill="white"/>
<path d="M29.6938 21.8166C29.1934 21.8086 28.6973 21.7228 28.2232 21.5622C28.1739 21.5451 28.1333 21.5092 28.1103 21.4623C28.0872 21.4155 28.0835 21.3614 28.1 21.3118C28.118 21.2622 28.1547 21.2216 28.2022 21.1986C28.2497 21.1756 28.3043 21.172 28.3544 21.1886C28.8552 21.3595 30.2542 21.6735 30.6954 21.0575C31.073 20.5289 29.7097 17.7625 28.6207 15.966C28.607 15.9436 28.5978 15.9187 28.5938 15.8927C28.5898 15.8668 28.591 15.8403 28.5973 15.8148C28.6035 15.7893 28.6148 15.7653 28.6304 15.7442C28.6461 15.7231 28.6657 15.7052 28.6882 15.6918C28.7103 15.6782 28.7349 15.6691 28.7606 15.6651C28.7862 15.6612 28.8124 15.6624 28.8376 15.6687C28.8628 15.675 28.8864 15.6862 28.9072 15.7018C28.928 15.7174 28.9454 15.7369 28.9585 15.7593C29.4196 16.5185 31.6891 20.354 31.0174 21.288C30.8549 21.4753 30.65 21.621 30.4198 21.713C30.1895 21.8049 29.9406 21.8405 29.6938 21.8166Z" fill="#040047"/>
<path d="M28.401 10.1233C30.1618 11.6774 29.5139 14.7974 29.4185 16.8404C29.2887 19.7127 29.09 22.581 28.8223 25.4454C28.6554 27.2618 23.9376 27.1187 23.1267 26.5424L23.5878 33.7642L13.8262 29.5988L14.4581 23.6369C14.4581 23.6369 17.6696 23.784 19.6529 20.1433C21.6363 16.5025 21.6879 8.43408 21.6879 8.43408C21.6879 8.43408 26.68 8.60499 28.401 10.1233Z" fill="white"/>
<path d="M23.5877 33.9708C23.5615 33.9768 23.5344 33.9768 23.5082 33.9708L13.7466 29.7895C13.7078 29.7716 13.6755 29.7421 13.6541 29.7051C13.6328 29.6681 13.6234 29.6254 13.6273 29.5829L14.2633 23.6527C14.2692 23.6025 14.2937 23.5563 14.3319 23.5232C14.3702 23.4902 14.4194 23.4725 14.47 23.4739C14.5932 23.4739 17.5821 23.5653 19.478 20.0836C21.4176 16.5303 21.4891 8.55721 21.4891 8.4658C21.4903 8.41347 21.5116 8.36362 21.5487 8.32669C21.5674 8.30682 21.5903 8.29148 21.6158 8.28184C21.6413 8.27219 21.6686 8.2685 21.6958 8.27104C21.9025 8.27104 26.7753 8.4499 28.5321 9.99602C30.0703 11.3553 29.8636 13.7997 29.6966 15.7632C29.6649 16.1606 29.6331 16.5303 29.6172 16.8721C29.486 19.7378 29.2833 22.6352 29.021 25.485C28.9892 25.8388 28.7825 26.3356 27.9995 26.6774C26.6958 27.2776 24.3548 27.2219 23.3452 26.8722L23.7864 33.7602C23.7882 33.794 23.7815 33.8277 23.7669 33.8582C23.7524 33.8888 23.7304 33.9152 23.703 33.935C23.6689 33.9582 23.6288 33.9706 23.5877 33.9708V33.9708ZM14.0486 29.4636L23.377 33.4621L22.9359 26.5622C22.9333 26.5246 22.9415 26.487 22.9595 26.4539C22.9775 26.4209 23.0045 26.3936 23.0374 26.3752C23.0703 26.3569 23.1078 26.3483 23.1454 26.3504C23.183 26.3526 23.2192 26.3653 23.2499 26.3873C23.7824 26.7847 26.4534 26.9556 27.8445 26.3197C28.3334 26.0932 28.5997 25.7951 28.6394 25.4334C28.9017 22.5876 29.1044 19.698 29.2356 16.8403C29.2356 16.4905 29.2833 16.1129 29.3191 15.7155C29.4741 13.8395 29.6728 11.5064 28.2817 10.2782C26.827 8.99442 22.8444 8.71222 21.8985 8.66055C21.8786 9.97217 21.6759 16.8999 19.8436 20.2584C18.0988 23.4381 15.3881 23.8356 14.6766 23.8356L14.0486 29.4636Z" fill="#040047"/>
<path d="M28.8349 23.2991C28.8349 23.2991 26.5574 24.5829 25.4604 22.2339Z" fill="white"/>
<path d="M27.4676 23.8476C27.225 23.8501 26.9835 23.8139 26.7522 23.7403C26.4205 23.6207 26.1177 23.4325 25.8636 23.1881C25.6095 22.9436 25.4099 22.6482 25.2776 22.3213C25.257 22.2727 25.2558 22.2179 25.2743 22.1684C25.2928 22.1189 25.3295 22.0783 25.377 22.055C25.4004 22.0437 25.4259 22.0372 25.4519 22.0359C25.4779 22.0346 25.5038 22.0385 25.5283 22.0474C25.5527 22.0563 25.5752 22.07 25.5942 22.0877C25.6133 22.1054 25.6286 22.1267 25.6393 22.1504C25.7507 22.4245 25.9182 22.6721 26.1311 22.8775C26.344 23.0829 26.5976 23.2414 26.8754 23.3428C27.5047 23.4933 28.1672 23.41 28.7395 23.1083C28.7854 23.0826 28.8396 23.0761 28.8903 23.0902C28.9409 23.1044 28.9839 23.138 29.0098 23.1838C29.0345 23.2299 29.0404 23.2838 29.0264 23.3342C29.0123 23.3845 28.9793 23.4275 28.9343 23.4541C28.4826 23.6975 27.9805 23.8323 27.4676 23.8476V23.8476Z" fill="#040047"/>
<path d="M23.2106 17.4923C23.2106 16.7729 22.8489 16.1091 22.4792 15.505C22.2171 15.0031 21.8793 14.5447 21.4776 14.1456C21.2778 13.9493 21.0369 13.7997 20.7723 13.7077C20.5077 13.6156 20.226 13.5833 19.9474 13.6131C19.7053 13.6647 19.4768 13.7667 19.2768 13.9126C19.0769 14.0585 18.9099 14.2449 18.7868 14.4596C18.5525 14.8952 18.4169 15.3769 18.3894 15.8706C18.3019 16.9473 18.499 18.0281 18.9608 19.0047C19.4226 19.9813 20.1329 20.8194 21.0205 21.4351L20.8695 21.2562" fill="white"/>
<path d="M21.0168 21.6496C20.977 21.6489 20.9383 21.6365 20.9055 21.6139C19.989 20.9748 19.2558 20.1069 18.7788 19.0965C18.3019 18.0861 18.0978 16.9684 18.1869 15.8547C18.22 15.3285 18.3708 14.8164 18.6281 14.3562C18.7645 14.1156 18.9513 13.9073 19.1756 13.7454C19.3999 13.5835 19.6564 13.4719 19.9278 13.4182C20.2361 13.381 20.5488 13.4138 20.8427 13.5143C21.1366 13.6147 21.4039 13.7803 21.6249 13.9985C22.0416 14.4053 22.394 14.873 22.6702 15.3857C23.016 15.9699 23.4651 16.6973 23.4294 17.4962C23.4264 17.5482 23.4038 17.5972 23.3662 17.6333C23.3286 17.6694 23.2788 17.69 23.2267 17.6909C23.2006 17.6904 23.1748 17.6848 23.1509 17.6743C23.127 17.6638 23.1054 17.6487 23.0873 17.6299C23.0692 17.6111 23.055 17.5889 23.0455 17.5646C23.036 17.5403 23.0314 17.5143 23.0319 17.4882C23.0319 16.8006 22.6345 16.1289 22.3284 15.5884C22.0769 15.1123 21.7568 14.6757 21.3785 14.2926C21.2004 14.116 20.9855 13.981 20.7491 13.8971C20.5128 13.8133 20.2608 13.7828 20.0112 13.8077C19.7976 13.855 19.5962 13.9467 19.4202 14.0768C19.2443 14.2069 19.0976 14.3725 18.9897 14.5629C18.7594 14.97 18.6236 15.4237 18.5923 15.8904C18.5159 16.8708 18.6818 17.8549 19.0755 18.756C19.4692 19.6571 20.0786 20.4474 20.8499 21.0574C20.8823 21.0534 20.9153 21.0575 20.9458 21.0693C20.9763 21.0811 21.0034 21.1002 21.0247 21.125L21.1758 21.3038C21.2076 21.3401 21.2252 21.3867 21.2252 21.435C21.2252 21.4833 21.2076 21.5299 21.1758 21.5662C21.1573 21.5911 21.1333 21.6116 21.1058 21.6261C21.0783 21.6405 21.0479 21.6486 21.0168 21.6496V21.6496Z" fill="#040047"/>
<path d="M28.0471 14.6228C28.2709 14.6193 28.4452 14.1556 28.4363 13.5871C28.4273 13.0187 28.2386 12.5607 28.0147 12.5642C27.7909 12.5677 27.6166 13.0314 27.6255 13.5999C27.6345 14.1683 27.8232 14.6263 28.0471 14.6228Z" fill="#040047"/>
<path d="M0.968558 80.2232C0.968558 80.2232 -2.25484 43.5973 3.0592 36.1052C8.37324 28.6131 21.4219 27.4088 27.4593 32.2419C33.4967 37.075 38.0873 80.5531 38.0873 80.5531C38.0873 80.5531 18.119 93.0254 0.968558 80.2232Z" fill="#FFE11B"/>
<path d="M47.2227 27.4155L48.7143 26.9257L50.5434 32.4956C50.6046 32.6819 50.5892 32.8848 50.5008 33.0598C50.4123 33.2348 50.2579 33.3674 50.0717 33.4286L49.9848 33.4571C49.7985 33.5183 49.5956 33.503 49.4206 33.4145C49.2456 33.326 49.113 33.1717 49.0518 32.9854L47.2227 27.4155V27.4155Z" fill="white"/>
<path d="M49.7531 33.6887C49.5558 33.6865 49.364 33.623 49.2045 33.5069C49.0449 33.3908 48.9255 33.2279 48.8628 33.0408L47.0344 27.4764C47.0146 27.428 47.0146 27.3737 47.0344 27.3254C47.0458 27.3018 47.0619 27.2808 47.0817 27.2637C47.1016 27.2466 47.1247 27.2338 47.1497 27.226L48.6402 26.7331C48.6903 26.7179 48.7443 26.7226 48.791 26.7463C48.8376 26.77 48.8733 26.8109 48.8906 26.8603L50.7189 32.4248C50.7587 32.5422 50.7748 32.6663 50.7663 32.79C50.7578 32.9137 50.7249 33.0344 50.6695 33.1453C50.614 33.2562 50.5372 33.355 50.4433 33.436C50.3495 33.517 50.2405 33.5785 50.1227 33.6171V33.6171L50.0353 33.645C49.944 33.674 49.8488 33.6887 49.7531 33.6887V33.6887ZM47.4716 27.536L49.2403 32.9176C49.2855 33.0538 49.3827 33.1666 49.5106 33.2316C49.6345 33.2913 49.7762 33.3027 49.9081 33.2634L49.9955 33.2356C50.1315 33.1902 50.2439 33.0927 50.308 32.9645C50.3721 32.8363 50.3826 32.6879 50.3373 32.552L48.5726 27.1703L47.4716 27.536Z" fill="#040047"/>
<path d="M47.5381 21.796L45.1289 22.5872L46.9184 28.0362L49.3276 27.245L47.5381 21.796Z" fill="white"/>
<path d="M46.9143 28.2276C46.8723 28.2282 46.8312 28.2154 46.797 28.1911C46.7627 28.1668 46.737 28.1323 46.7235 28.0925L44.927 22.6433C44.9071 22.5949 44.9071 22.5407 44.927 22.4923C44.9384 22.4687 44.9545 22.4477 44.9743 22.4306C44.9941 22.4135 45.0173 22.4007 45.0423 22.3929L47.4509 21.598C47.4757 21.5894 47.5019 21.5858 47.5281 21.5876C47.5542 21.5894 47.5798 21.5964 47.6032 21.6083C47.6266 21.6202 47.6473 21.6366 47.6642 21.6567C47.681 21.6768 47.6936 21.7001 47.7013 21.7252L49.4899 27.1744C49.5097 27.2228 49.5097 27.277 49.4899 27.3254C49.4785 27.349 49.4624 27.37 49.4426 27.3871C49.4227 27.4042 49.3996 27.417 49.3746 27.4248L46.966 28.2197L46.9143 28.2276ZM45.3761 22.7069L47.0415 27.7785L49.0685 27.1108L47.4072 22.0471L45.3761 22.7069Z" fill="#040047"/>
<path d="M49.7153 31.2999L49.0054 31.533C48.5362 31.6871 48.2807 32.1924 48.4348 32.6617L50.9881 40.4368C51.1422 40.9061 51.6475 41.1616 52.1168 41.0075L52.8267 40.7743C53.296 40.6202 53.5514 40.1149 53.3973 39.6457L50.844 31.8705C50.6899 31.4012 50.1846 31.1458 49.7153 31.2999Z" fill="white"/>
<path d="M51.8437 41.2444C51.6132 41.2445 51.3886 41.1719 51.2016 41.0371C51.0147 40.9022 50.875 40.7119 50.8024 40.4932L48.2507 32.7189C48.2053 32.5824 48.1873 32.4383 48.1977 32.2949C48.2081 32.1514 48.2467 32.0114 48.3113 31.8829C48.376 31.7544 48.4653 31.64 48.5742 31.5461C48.6832 31.4521 48.8096 31.3807 48.9462 31.3357L49.6537 31.1052C49.9288 31.0148 50.2286 31.0372 50.4872 31.1676C50.7458 31.298 50.9421 31.5257 51.0329 31.8008L53.5886 39.579C53.6332 39.7155 53.6506 39.8595 53.6396 40.0027C53.6287 40.1459 53.5896 40.2855 53.5246 40.4136C53.4596 40.5417 53.3701 40.6557 53.261 40.7492C53.152 40.8426 53.0256 40.9137 52.889 40.9582L52.1815 41.1888C52.0729 41.2265 51.9587 41.2453 51.8437 41.2444V41.2444ZM49.9955 31.447C49.9212 31.4473 49.8474 31.4593 49.7769 31.4828L49.0694 31.7133C48.896 31.7729 48.7532 31.8986 48.672 32.0631C48.6303 32.144 48.6053 32.2325 48.5984 32.3234C48.5916 32.4142 48.6031 32.5054 48.6322 32.5917L51.1839 40.37C51.242 40.5449 51.3671 40.6896 51.5318 40.7723C51.6965 40.855 51.8873 40.869 52.0623 40.8112L52.7698 40.5806C52.9448 40.5225 53.0897 40.3975 53.1731 40.233C53.2565 40.0686 53.2715 39.8778 53.2149 39.7023L50.6593 31.9279C50.614 31.7885 50.5259 31.6669 50.4074 31.5805C50.2889 31.4941 50.1461 31.4474 49.9995 31.447H49.9955Z" fill="#040047"/>
<path d="M45.8735 27.5242C49.5899 27.5242 52.6025 24.5115 52.6025 20.7952C52.6025 17.0788 49.5899 14.0662 45.8735 14.0662C42.1572 14.0662 39.1445 17.0788 39.1445 20.7952C39.1445 24.5115 42.1572 27.5242 45.8735 27.5242Z" fill="white"/>
<path d="M45.869 27.7269C44.1206 27.7297 42.4353 27.0735 41.1491 25.8892C39.8629 24.7049 39.0702 23.0794 38.929 21.3367C38.7878 19.594 39.3085 17.8621 40.3872 16.4862C41.466 15.1102 43.0237 14.1913 44.7497 13.9126C46.4758 13.6339 48.2435 14.0159 49.7005 14.9824C51.1575 15.9488 52.1968 17.4289 52.6113 19.1275C53.0257 20.826 52.7849 22.6184 51.9368 24.1474C51.0887 25.6763 49.6956 26.8295 48.0351 27.3771C47.3359 27.6066 46.6049 27.7246 45.869 27.7269V27.7269ZM45.869 14.2609C44.8358 14.2617 43.8175 14.5075 42.8976 14.9782C41.9778 15.4488 41.1827 16.1308 40.5776 16.9683C39.9725 17.8058 39.5746 18.7748 39.4166 19.7959C39.2586 20.8169 39.3449 21.8609 39.6686 22.8421C40.0444 23.9855 40.7288 25.0027 41.6464 25.7816C42.5639 26.5605 43.6788 27.0706 44.868 27.2557C46.0573 27.4408 47.2745 27.2937 48.3854 26.8305C49.4962 26.3674 50.4575 25.6063 51.163 24.6312C51.8685 23.6561 52.2908 22.5051 52.3833 21.3051C52.4759 20.1051 52.2349 18.9029 51.6872 17.8313C51.1395 16.7596 50.3063 15.8601 49.2795 15.2322C48.2528 14.6042 47.0725 14.2722 45.869 14.2729V14.2609Z" fill="#040047"/>
<path d="M45.8733 26.2602C48.8916 26.2602 51.3384 23.8134 51.3384 20.7952C51.3384 17.7769 48.8916 15.3301 45.8733 15.3301C42.855 15.3301 40.4082 17.7769 40.4082 20.7952C40.4082 23.8134 42.855 26.2602 45.8733 26.2602Z" fill="white"/>
<path d="M45.8777 26.459C44.8338 26.4595 43.8102 26.1716 42.9197 25.6269C42.0292 25.0823 41.3065 24.3022 40.8315 23.3728C40.3564 22.4433 40.1475 21.4006 40.2277 20.3599C40.3079 19.3191 40.6742 18.3208 41.2861 17.4751C41.8979 16.6294 42.7316 15.9693 43.6951 15.5676C44.6585 15.1659 45.7142 15.0382 46.7456 15.1987C47.777 15.3592 48.744 15.8016 49.5399 16.4771C50.3357 17.1526 50.9293 18.0348 51.2553 19.0265V19.0265C51.5349 19.8769 51.6088 20.7815 51.4712 21.666C51.3335 22.5506 50.9882 23.3899 50.4634 24.1152C49.9387 24.8405 49.2495 25.431 48.4523 25.8384C47.6552 26.2458 46.7729 26.4585 45.8777 26.459V26.459ZM45.8777 15.5248C44.7641 15.5259 43.6796 15.8797 42.7796 16.5353C41.8795 17.191 41.2103 18.1148 40.8679 19.1744C40.5254 20.234 40.5274 21.3748 40.8735 22.4331C41.2195 23.4915 41.8919 24.4131 42.7942 25.0656C43.6965 25.7182 44.7823 26.0682 45.8958 26.0655C47.0093 26.0627 48.0933 25.7073 48.9924 25.0503C49.8914 24.3933 50.5593 23.4685 50.9001 22.4084C51.241 21.3483 51.2373 20.2075 50.8896 19.1497C50.5456 18.0911 49.8738 17.1694 48.9714 16.5177C48.069 15.8661 46.9828 15.5184 45.8697 15.5248H45.8777Z" fill="#040047"/>
<path d="M44.9272 43.7485L45.1935 41.7612C45.1935 41.6777 45.3287 35.5449 45.8573 35.072C46.3859 34.599 53.2461 29.6228 53.727 30.3024C54.2079 30.9821 53.2739 32.2619 53.2739 32.2619C53.2739 32.2619 54.8836 32.0989 54.7207 33.0568C54.5577 34.0147 53.5958 34.9885 53.5958 34.9885C53.5958 34.9885 54.5815 34.2651 54.7326 35.3104C54.7754 35.6133 54.7374 35.9222 54.6222 36.2057C54.507 36.4891 54.3188 36.737 54.0768 36.9241C54.0768 36.9241 55.5275 36.2802 55.2056 37.4845C54.8836 38.6888 51.3542 41.7533 51.3542 41.7533L50.9289 44.3765L44.9272 43.7485Z" fill="white"/>
<path d="M50.9176 44.5832L44.9557 43.9472H44.9319C44.753 43.9035 44.753 43.9035 44.9995 42.107L45.0472 41.7493C45.0472 41.7135 45.1505 35.5012 45.7785 34.9328C46.1759 34.5632 52.5035 29.9129 53.68 30.0481C53.7316 30.0508 53.782 30.065 53.8274 30.0898C53.8728 30.1146 53.9121 30.1492 53.9423 30.1911C54.3398 30.7516 53.9423 31.5902 53.676 32.0552C54.0706 32.0422 54.4564 32.1737 54.7611 32.4249C54.8411 32.5161 54.8992 32.6244 54.9309 32.7415C54.9626 32.8586 54.967 32.9814 54.9439 33.1005C54.8251 33.6323 54.5888 34.1307 54.2523 34.5592C54.3435 34.556 54.4343 34.5722 54.5186 34.6069C54.6468 34.6714 54.7551 34.7694 54.832 34.8904C54.909 35.0115 54.9518 35.1511 54.9558 35.2945C55.0232 35.7375 54.9302 36.1899 54.6935 36.5704C54.899 36.5386 55.1087 36.5885 55.2778 36.7095C55.3786 36.8214 55.4456 36.9596 55.4709 37.1081C55.4963 37.2565 55.4789 37.4091 55.4209 37.5481C55.1069 38.7405 52.0305 41.4591 51.5615 41.8685L51.1641 44.4202C51.1594 44.4475 51.1492 44.4735 51.134 44.4967C51.1189 44.5199 51.0992 44.5397 51.0761 44.555C51.053 44.5703 51.027 44.5806 50.9998 44.5855C50.9725 44.5903 50.9446 44.5895 50.9176 44.5832V44.5832ZM45.1664 43.5736L50.7507 44.1658L51.1482 41.7294C51.1537 41.6831 51.1764 41.6406 51.2118 41.6102C52.1816 40.7715 54.7492 38.3868 55.0035 37.4448C55.0592 37.2262 55.0552 37.0473 55.0035 37.0076C54.8604 36.8883 54.4193 37.0076 54.1609 37.1109C54.1163 37.131 54.0658 37.1335 54.0194 37.1181C53.973 37.1026 53.9341 37.0703 53.9105 37.0275C53.885 36.9851 53.877 36.9344 53.8881 36.8862C53.8992 36.838 53.9286 36.796 53.9701 36.7691C54.182 36.6039 54.3464 36.3857 54.4469 36.1365C54.5474 35.8874 54.5804 35.6161 54.5425 35.3502C54.5186 35.2031 54.4709 35.0243 54.3477 34.9726C54.153 34.8891 53.8191 35.0839 53.7158 35.1594C53.6754 35.1883 53.6257 35.2011 53.5764 35.1952C53.5272 35.1893 53.4819 35.1652 53.4495 35.1276C53.4162 35.0904 53.3978 35.0423 53.3978 34.9925C53.3978 34.9426 53.4162 34.8945 53.4495 34.8573C53.4495 34.8573 54.3755 33.9233 54.5226 33.033C54.5384 32.9745 54.5394 32.913 54.5255 32.854C54.5116 32.7951 54.4833 32.7405 54.4431 32.6951C54.1967 32.4328 53.5091 32.4368 53.2905 32.4567C53.2519 32.4604 53.2131 32.4531 53.1785 32.4355C53.144 32.4179 53.1153 32.3907 53.0957 32.3573C53.0742 32.3257 53.0627 32.2883 53.0627 32.25C53.0627 32.2117 53.0742 32.1743 53.0957 32.1427C53.3382 31.8168 53.8906 30.8708 53.5766 30.4177C52.8851 30.2031 46.6926 34.6029 46.0011 35.227C45.6036 35.6244 45.4009 40.7636 45.4009 41.7692C45.4009 41.7692 45.381 41.9281 45.3492 42.1666C45.3254 42.5362 45.2101 43.2358 45.1664 43.5736Z" fill="#040047"/>
<path d="M27.4594 32.2458C27.4594 32.2458 31.3227 34.5829 34.2162 39.9367C37.1097 45.2905 41.7044 62.4011 41.7044 62.4011L43.8864 41.6657L52.3325 43.5695C52.3325 43.5695 53.0558 73.7764 45.5756 77.1747C38.0954 80.573 18.9736 59.5434 18.9736 59.5434L27.4594 32.2458Z" fill="#FFE11B"/>
<path d="M11.7554 31.2801L12.7252 28.1401L25.3644 29.3603L26.0918 32.2459C26.0918 32.2459 19.4899 35.3858 11.7554 31.2801Z" fill="white"/>
<path d="M20.043 33.5735C17.1179 33.5678 14.2396 32.8387 11.6646 31.451C11.6239 31.4291 11.5921 31.3937 11.5747 31.3509C11.5573 31.3081 11.5553 31.2606 11.5692 31.2165L12.535 28.0766C12.5484 28.0333 12.5763 27.9959 12.6138 27.9706C12.6514 27.9453 12.6965 27.9336 12.7417 27.9375L25.3849 29.1617C25.4256 29.1652 25.4643 29.1812 25.4956 29.2075C25.5269 29.2339 25.5493 29.2692 25.5598 29.3087L26.2832 32.1943C26.2948 32.2386 26.2904 32.2857 26.2708 32.3271C26.2512 32.3686 26.2175 32.4017 26.1758 32.4208C24.229 33.2104 22.1437 33.6023 20.043 33.5735V33.5735ZM11.9945 31.1887C14.105 32.3194 16.432 32.9882 18.8208 33.1506C21.2097 33.313 23.6057 32.9653 25.8499 32.1307L25.1981 29.5472L12.8768 28.3548L11.9945 31.1887Z" fill="#040047"/>
<path d="M38.0876 75.9547C38.0506 75.9558 38.0143 75.9446 37.9843 75.9229C37.8531 75.8434 25.0867 67.6795 20.5914 46.4194C20.5856 46.3938 20.5848 46.3673 20.5893 46.3415C20.5937 46.3156 20.6032 46.2909 20.6173 46.2687C20.6313 46.2465 20.6496 46.2273 20.6711 46.2123C20.6926 46.1972 20.7168 46.1866 20.7425 46.1809C20.7945 46.1713 20.8483 46.182 20.8926 46.2109C20.937 46.2397 20.9686 46.2845 20.981 46.3359C25.4444 67.4331 38.0717 75.5095 38.1949 75.589C38.2309 75.6122 38.2585 75.6465 38.2734 75.6867C38.2883 75.7268 38.2899 75.7708 38.2778 75.8119C38.2657 75.853 38.2407 75.8891 38.2064 75.9149C38.1722 75.9406 38.1305 75.9545 38.0876 75.9547V75.9547Z" fill="#040047"/>
<path d="M46.3035 23.6925V24.4318C46.3035 24.4744 46.2869 24.5152 46.2572 24.5457C46.2275 24.5761 46.1871 24.5937 46.1445 24.5948H45.2582C45.2157 24.5937 45.1753 24.5761 45.1455 24.5457C45.1158 24.5152 45.0992 24.4744 45.0992 24.4318V23.7164C44.7548 23.6978 44.4128 23.6473 44.0778 23.5654C43.9983 23.5415 43.9227 23.4898 43.9227 23.4024V22.6075C43.9238 22.5667 43.9404 22.5278 43.9693 22.499C43.9981 22.4701 44.037 22.4535 44.0778 22.4525V22.4525C44.4077 22.4962 45.2185 22.5518 45.5961 22.5518C46.1525 22.5518 46.3194 22.3571 46.3194 21.9874C46.3194 21.7529 46.2081 21.6257 45.7908 21.3753L44.6819 20.7156C44.3961 20.5808 44.1551 20.3669 43.9874 20.0991C43.8197 19.8314 43.7324 19.5211 43.7359 19.2052C43.7359 18.4739 44.0817 17.8698 45.0953 17.6949V17.0033C45.0952 16.9607 45.1119 16.9199 45.1416 16.8894C45.1713 16.859 45.2117 16.8414 45.2542 16.8403H46.1406C46.1831 16.8414 46.2235 16.859 46.2532 16.8894C46.2829 16.9199 46.2996 16.9607 46.2996 17.0033V17.675C46.7002 17.6957 47.0988 17.7462 47.4919 17.826C47.5714 17.8499 47.643 17.8976 47.643 17.981V18.776C47.643 18.7948 47.6393 18.8134 47.6321 18.8307C47.6249 18.8481 47.6144 18.8639 47.6011 18.8771C47.5878 18.8904 47.572 18.901 47.5546 18.9082C47.5373 18.9153 47.5187 18.919 47.4999 18.919V18.919C46.9991 18.8714 46.3393 18.8316 45.7948 18.8316C45.3496 18.8316 45.1747 18.9588 45.1747 19.2569C45.1747 19.4596 45.2781 19.5868 45.7153 19.8213L46.7328 20.3738C47.5635 20.8269 47.8298 21.3555 47.8298 22.0073C47.8317 22.428 47.6761 22.8342 47.3937 23.1461C47.1112 23.4579 46.7224 23.6529 46.3035 23.6925V23.6925Z" fill="#E2E2E2"/>
<path d="M52.5986 13.1838L42.7853 12.3491C42.7569 12.3479 42.7292 12.3401 42.7043 12.3263C42.6795 12.3125 42.6582 12.2931 42.6422 12.2696C42.625 12.2465 42.6129 12.2201 42.6068 12.192C42.6006 12.1639 42.6005 12.1348 42.6064 12.1066L43.449 8.46989C43.4622 8.41939 43.4944 8.37592 43.5388 8.34853C43.5832 8.32114 43.6365 8.31193 43.6875 8.32283C43.7131 8.32847 43.7374 8.33912 43.7589 8.35419C43.7804 8.36925 43.7987 8.38842 43.8127 8.41059C43.8268 8.43277 43.8363 8.4575 43.8407 8.48337C43.8451 8.50923 43.8444 8.53572 43.8385 8.56131L43.0436 11.9755L52.6304 12.7704C52.6831 12.7704 52.7336 12.7913 52.7709 12.8286C52.8082 12.8659 52.8291 12.9164 52.8291 12.9691C52.8291 13.0218 52.8082 13.0724 52.7709 13.1097C52.7336 13.1469 52.6831 13.1679 52.6304 13.1679L52.5986 13.1838Z" fill="#D1D3D4"/>
<path d="M43.5327 12.0312C43.5019 12.0309 43.4716 12.0236 43.444 12.0098C43.4165 11.9961 43.3924 11.9762 43.3737 11.9517C43.3417 11.91 43.3274 11.8574 43.3341 11.8052C43.3408 11.7531 43.3679 11.7057 43.4095 11.6735C44.1703 11.0914 44.9848 10.583 45.842 10.1552C46.121 9.98316 46.4514 9.91426 46.776 9.96045C47.0926 10.0699 47.361 10.2864 47.5351 10.5725C47.6579 10.7692 47.8307 10.9297 48.0359 11.0376C48.1998 11.0657 48.3678 11.0606 48.5296 11.0223C48.6915 10.9841 48.8439 10.9135 48.9779 10.815C50.059 10.2426 51.2832 9.59478 52.0463 8.54946C52.0779 8.5073 52.125 8.47942 52.1772 8.47197C52.2294 8.46452 52.2824 8.47809 52.3245 8.50972C52.3664 8.54139 52.3944 8.58809 52.4026 8.64C52.4108 8.6919 52.3984 8.74494 52.3682 8.78794C51.5495 9.90083 50.2816 10.5725 49.1647 11.1727C48.984 11.302 48.7776 11.3909 48.5596 11.4334C48.3415 11.4759 48.1168 11.471 47.9008 11.4191C47.6213 11.2904 47.3852 11.0833 47.2211 10.8229C47.0542 10.6083 46.8992 10.4255 46.6846 10.3579C46.45 10.3363 46.2151 10.3937 46.0168 10.5209C45.1753 10.9342 44.3765 11.4295 43.6321 11.9994C43.6025 12.0189 43.5681 12.0299 43.5327 12.0312V12.0312Z" fill="#D1D3D4"/>
</svg>
