<svg width="73" height="94" viewBox="0 0 73 94" fill="none" xmlns="http://www.w3.org/2000/svg">
<path d="M28.2001 39.5457C28.2001 39.5457 17.1421 42.7931 15.0595 43.9984C7.51053 48.3811 1.42123 69.1333 1.27379 72.7493C1.12635 76.3653 8.09292 82.908 8.09292 82.908L17.4664 79.2846C17.4664 79.2846 12.8516 71.9347 14.3444 68.0423C15.9084 63.9936 17.7192 60.0446 19.7665 56.2176C19.7665 56.2176 17.9972 63.796 18.2295 66.6305C18.4617 69.4651 20.7101 82.919 20.7101 82.919H49.9845C49.9845 82.919 52.5941 71.9753 52.6863 65.2262C52.7785 58.4771 50.9723 55.4288 50.9723 55.4288C50.9723 55.4288 54.5219 60.9578 56.0848 67.5926C56.4534 69.196 53.4751 76.8445 53.4751 76.8445C53.4751 76.8445 61.7465 74.5592 65.2298 78.5843C67.0898 75.8292 68.0067 72.5456 67.8432 69.2255C67.5151 63.7849 57.6403 45.6608 56.0848 44.9752C51.7058 43.0511 45.259 39.9217 43.2169 40.1134C41.1749 40.305 28.2001 39.5457 28.2001 39.5457Z" fill="#FFE11B"/>
<path d="M36.2763 44.7393H34.0205V52.1703H36.2763V44.7393Z" fill="white"/>
<path d="M36.2649 52.3583H34.0091C33.9582 52.3583 33.9095 52.3381 33.8735 52.3022C33.8376 52.2662 33.8174 52.2175 33.8174 52.1666V44.7393C33.8174 44.6885 33.8376 44.6397 33.8735 44.6038C33.9095 44.5678 33.9582 44.5476 34.0091 44.5476H36.2649C36.2899 44.5476 36.3146 44.5526 36.3377 44.5623C36.3607 44.572 36.3816 44.5861 36.3991 44.604C36.4166 44.6218 36.4304 44.643 36.4396 44.6662C36.4489 44.6895 36.4534 44.7143 36.4529 44.7393V52.1666C36.4534 52.1916 36.4489 52.2165 36.4396 52.2397C36.4304 52.2629 36.4166 52.2841 36.3991 52.3019C36.3816 52.3198 36.3607 52.334 36.3377 52.3436C36.3146 52.3533 36.2899 52.3583 36.2649 52.3583ZM34.197 51.9897H36.0732V44.9273H34.197V51.9897Z" fill="#231F20"/>
<path d="M9.41666 82.5246H61.0356L69.9778 91.2273H0.470703L9.41666 82.5246Z" fill="white"/>
<path d="M69.9781 91.4153H0.470968C0.433236 91.4148 0.396447 91.4034 0.365049 91.3825C0.333652 91.3616 0.30899 91.332 0.294041 91.2973C0.279903 91.2625 0.27656 91.2241 0.284446 91.1873C0.292332 91.1505 0.311083 91.1169 0.338272 91.0909L9.28423 82.3882C9.31998 82.3543 9.36763 82.3358 9.41692 82.3366H61.0211C61.0702 82.3369 61.1174 82.3553 61.1538 82.3882L70.0961 91.0909C70.1232 91.1169 70.142 91.1505 70.1499 91.1873C70.1578 91.2241 70.1544 91.2625 70.1403 91.2973C70.1264 91.3298 70.104 91.3579 70.0755 91.3787C70.0469 91.3995 70.0133 91.4121 69.9781 91.4153ZM0.939093 91.0467H69.4989L60.9621 82.7052H9.49433L0.939093 91.0467Z" fill="#231F20"/>
<path d="M41.7434 84.3271H23.6377L24.0616 83.5088H41.4632L41.7434 84.3271Z" fill="#E6E7E8"/>
<path d="M45.7388 84.3271H43.2065L42.8711 83.5088H45.3039L45.7388 84.3271Z" fill="#E6E7E8"/>
<path d="M49.5347 84.3271H47.0024L46.5195 83.5088H48.956L49.5347 84.3271Z" fill="#E6E7E8"/>
<path d="M57.0768 84.3271H50.8032L50.1729 83.5088H56.2032L57.0768 84.3271Z" fill="#E6E7E8"/>
<path d="M57.1362 84.3271H54.6039L53.8262 83.5088H56.2589L57.1362 84.3271Z" fill="#E6E7E8"/>
<path d="M14.5106 84.3271H11.9746L12.8519 83.5088H15.2846L14.5106 84.3271Z" fill="#E6E7E8"/>
<path d="M18.3067 84.3271H15.7744L16.5042 83.5088H18.937L18.3067 84.3271Z" fill="#E6E7E8"/>
<path d="M22.1075 84.3271H19.5752L20.1539 83.5088H22.5904L22.1075 84.3271Z" fill="#E6E7E8"/>
<path d="M19.5493 85.8679H10.3232L11.3258 84.9316H20.1723L19.5493 85.8679Z" fill="#E6E7E8"/>
<path d="M23.5232 85.8679H20.8066L21.378 84.9316H23.984L23.5232 85.8679Z" fill="#E6E7E8"/>
<path d="M27.7398 85.8679H25.0195L25.4176 84.9316H28.0199L27.7398 85.8679Z" fill="#E6E7E8"/>
<path d="M31.9529 85.8679H29.2363L29.4575 84.9316H32.0598L31.9529 85.8679Z" fill="#E6E7E8"/>
<path d="M36.1695 85.8679H33.4492L33.4971 84.9316H36.0995L36.1695 85.8679Z" fill="#E6E7E8"/>
<path d="M40.3825 85.8679H37.6622L37.5332 84.9316H40.1392L40.3825 85.8679Z" fill="#E6E7E8"/>
<path d="M44.5958 85.8679H41.8792L41.5732 84.9316H44.1793L44.5958 85.8679Z" fill="#E6E7E8"/>
<path d="M48.8127 85.8679H46.0925L45.6133 84.9316H48.2193L48.8127 85.8679Z" fill="#E6E7E8"/>
<path d="M53.025 85.8679H50.3085L49.6523 84.9316H52.2584L53.025 85.8679Z" fill="#E6E7E8"/>
<path d="M16.3171 87.6519H13.3867L14.3303 86.5645H17.1317L16.3171 87.6519Z" fill="#E6E7E8"/>
<path d="M20.8647 87.6519H17.9307L18.6752 86.5645H21.4766L20.8647 87.6519Z" fill="#E6E7E8"/>
<path d="M25.4136 87.6519H22.4795L23.0176 86.5645H25.819L25.4136 87.6519Z" fill="#E6E7E8"/>
<path d="M29.9624 87.6519H27.0283L27.3637 86.5645H30.1651L29.9624 87.6519Z" fill="#E6E7E8"/>
<path d="M34.5075 87.6519H31.5771L31.7098 86.5645H34.5112L34.5075 87.6519Z" fill="#E6E7E8"/>
<path d="M39.0559 87.6519H36.1218L36.0518 86.5645H38.8568L39.0559 87.6519Z" fill="#E6E7E8"/>
<path d="M43.6043 87.6519H40.6702L40.3975 86.5645H43.1988L43.6043 87.6519Z" fill="#E6E7E8"/>
<path d="M48.1527 87.6519H45.2187L44.7432 86.5645H47.5445L48.1527 87.6519Z" fill="#E6E7E8"/>
<path d="M52.6973 87.6519H49.7669L49.085 86.5645H51.89L52.6973 87.6519Z" fill="#E6E7E8"/>
<path d="M17.7541 89.7418H14.5693L15.5351 88.4665H18.565L17.7541 89.7418Z" fill="#E6E7E8"/>
<path d="M22.6935 89.7418H19.5088L20.2349 88.4665H23.2648L22.6935 89.7418Z" fill="#E6E7E8"/>
<path d="M27.6293 89.7418H24.4482L24.9348 88.4665H27.9647L27.6293 89.7418Z" fill="#E6E7E8"/>
<path d="M32.5685 89.7418H29.3838L29.6344 88.4665H32.6643L32.5685 89.7418Z" fill="#E6E7E8"/>
<path d="M37.507 89.7418H34.3223L34.3333 88.4665H37.3632L37.507 89.7418Z" fill="#E6E7E8"/>
<path d="M42.4465 89.7418H39.2617L39.0332 88.4665H42.0631L42.4465 89.7418Z" fill="#E6E7E8"/>
<path d="M47.3826 89.7418H44.1978L43.7334 88.4665H46.7633L47.3826 89.7418Z" fill="#E6E7E8"/>
<path d="M52.3223 89.7418H49.1376L48.4336 88.4665H51.4635L52.3223 89.7418Z" fill="#E6E7E8"/>
<path d="M57.2612 89.7418H54.0764L53.1328 88.4665H56.1627L57.2612 89.7418Z" fill="#E6E7E8"/>
<path d="M62.6282 89.7418H58.592L57.4346 88.4665H61.2754L62.6282 89.7418Z" fill="#E6E7E8"/>
<path d="M60.6415 87.6519H54.3126L53.4316 86.5645H59.4767L60.6415 87.6519Z" fill="#E6E7E8"/>
<path d="M58.7284 85.8679H54.2978L53.4795 84.9316H57.7258L58.7284 85.8679Z" fill="#E6E7E8"/>
<path d="M11.3413 87.6519H8.40723L9.57201 86.5645H12.3771L11.3413 87.6519Z" fill="#E6E7E8"/>
<path d="M12.7822 89.7418H6.16211L7.53331 88.4665H13.8327L12.7822 89.7418Z" fill="#E6E7E8"/>
<path d="M47.4192 1.24438C53.6596 3.99046 56.3431 11.3109 57.7401 17.9826C58.4773 21.4437 59.4504 25.4762 62.6977 26.8806C66.2105 28.3956 70.1066 25.8338 72.7827 23.0988C70.995 26.4825 69.0967 30.0137 65.8788 32.1074C62.5945 34.26 58.4441 34.5696 54.5222 34.3853C52.1705 34.2747 49.7746 33.9909 47.6662 32.9478C41.1972 29.7336 39.9919 21.0235 35.2443 15.5793C31.3298 11.0897 29.3725 8.02665 34.555 3.55183C38.0199 0.584587 43.1508 -0.624425 47.4192 1.24438Z" fill="white"/>
<path d="M56.3911 34.6286C55.7313 34.6286 55.1047 34.6286 54.526 34.5807C52.3439 34.4775 49.8116 34.2121 47.5963 33.1063C43.6081 31.1416 41.5549 27.0465 39.5829 23.0582C38.3002 20.478 36.9732 17.8277 35.1265 15.712C32.9149 13.1723 31.094 10.8722 31.2673 8.45422C31.3815 6.79551 32.3989 5.19578 34.4594 3.41544C38.1675 0.215977 43.409 -0.723956 47.5042 1.0785C52.6056 3.32329 56.0225 8.84125 57.954 17.9494C58.7723 21.8197 59.7602 25.3988 62.8011 26.711C66.7415 28.414 71.0172 24.6653 72.6722 22.9734C72.7047 22.9408 72.7477 22.9207 72.7935 22.9166C72.8394 22.9126 72.8852 22.9249 72.9229 22.9513C72.9596 22.9786 72.9854 23.0181 72.9955 23.0627C73.0057 23.1073 72.9995 23.1541 72.9782 23.1946C71.2679 26.4309 69.3327 30.0985 66.0116 32.2769C63.026 34.2231 59.3658 34.6286 56.3911 34.6286ZM43.0404 0.551405C39.9728 0.578132 37.0148 1.69524 34.6953 3.70294C32.7159 5.41325 31.7465 6.93189 31.6322 8.49476C31.4737 10.7653 33.243 12.9991 35.3993 15.4724C37.2792 17.625 38.6172 20.3084 39.911 22.8997C41.9567 26.9985 43.8919 30.8689 47.7659 32.793C49.9185 33.8619 52.4029 34.1125 54.5444 34.2121C57.6776 34.3595 62.2482 34.2895 65.7905 31.9673C68.6803 30.0764 70.5123 26.9912 72.0567 24.0792C69.9962 25.9407 66.218 28.6093 62.6389 27.0465C59.1667 25.5463 58.2157 21.0125 57.5707 18.0157C55.6687 9.03292 52.3218 3.60342 47.342 1.42868C45.9843 0.841789 44.5195 0.543067 43.0404 0.551405Z" fill="#231F20"/>
<path d="M40.4083 7.84235C40.9803 8.04822 41.5018 8.37368 41.938 8.79702C42.4577 9.33887 42.6752 9.97286 43.3608 10.4484C44.0464 10.9239 44.7283 11.2224 45.3881 11.65C47.5813 13.0617 48.8972 15.6235 49.1036 18.2222C49.2259 20.1431 48.874 22.0646 48.0789 23.8175C47.4633 25.2293 47.1132 26.3977 45.9521 27.463C43.9341 29.2838 41.5536 30.6568 38.9671 31.4918C36.479 32.3212 33.2611 31.3997 30.891 30.456C29.5714 29.9289 28.2592 29.2102 27.463 28.038C27.3236 27.7972 27.1553 27.5744 26.9617 27.3745C26.7836 27.2299 26.5894 27.1062 26.383 27.0059C22.7707 25.0413 22.1957 20.9351 23.3789 17.367C24.0129 15.4613 24.7096 12.7521 26.4346 11.5542C27.1387 11.0639 27.9312 10.6953 28.5836 10.1387C29.0185 9.77013 29.3835 9.31675 29.8147 8.93709C31.6577 7.32631 34.8682 6.54487 37.2383 7.04617C38.3151 7.22375 39.3754 7.49005 40.4083 7.84235Z" fill="white"/>
<path d="M36.7929 32.0041C35.1158 32.0041 33.1069 31.5471 30.8179 30.6329C29.7453 30.2054 28.2156 29.4829 27.3051 28.1449L27.2056 27.9901C27.0259 27.6487 26.7344 27.3793 26.3799 27.2271L26.2952 27.1828C22.3106 25.0155 22.1374 20.5111 23.1989 17.3154L23.4127 16.6519C24.0062 14.8089 24.7434 12.5051 26.3283 11.4067C26.6048 11.2113 26.8997 11.0381 27.1872 10.8649C27.6345 10.6117 28.061 10.3233 28.4625 10.0023C28.68 9.81065 28.8901 9.59687 29.0892 9.38676C29.2882 9.17666 29.4762 8.98499 29.69 8.80069C31.533 7.17147 34.7988 6.34212 37.2795 6.86922L37.9135 6.99823C38.7918 7.14296 39.6553 7.36624 40.4937 7.66539C41.0922 7.87805 41.6369 8.21898 42.0897 8.66431C42.2819 8.88101 42.458 9.11138 42.6168 9.35359C42.8418 9.71668 43.1317 10.0353 43.472 10.2935C43.8272 10.5374 44.1964 10.7602 44.5778 10.9607C44.8764 11.1266 45.1897 11.2961 45.4845 11.4878C47.6114 12.859 49.0674 15.4355 49.2848 18.2074C49.4096 20.1598 49.0526 22.1129 48.2454 23.8949C48.1459 24.1234 48.0537 24.3483 47.9615 24.5658C47.4861 25.7047 47.0769 26.6852 46.0743 27.603C44.0319 29.4329 41.6285 30.8142 39.0193 31.6576C38.3006 31.8919 37.5488 32.0089 36.7929 32.0041ZM35.6871 7.09038C33.6193 7.09038 31.3524 7.82758 29.9443 9.08451C29.7453 9.26144 29.5536 9.45311 29.3693 9.65216C29.185 9.8512 28.9454 10.0908 28.7132 10.2898C28.2953 10.6282 27.8503 10.9315 27.3825 11.1966C27.1024 11.3662 26.8112 11.5394 26.5421 11.7274C25.0677 12.7521 24.3305 14.9821 23.7776 16.7735C23.7039 17.0057 23.6302 17.2269 23.5601 17.4407C22.5428 20.5001 22.6976 24.8127 26.4758 26.8548L26.5606 26.899C26.7508 26.9913 26.929 27.1064 27.0913 27.2418C27.2582 27.4028 27.4032 27.5849 27.5226 27.7836L27.6184 27.9311C28.2672 28.8821 29.3288 29.6303 30.9617 30.2791C34.3012 31.606 36.9735 31.9562 38.9087 31.3112C41.469 30.4814 43.8262 29.1226 45.8273 27.3229C46.7636 26.4641 47.1617 25.5168 47.6188 24.4183C47.7109 24.2008 47.8031 23.9723 47.9063 23.7401C48.6873 22.0157 49.0341 20.1262 48.9162 18.2369C48.7024 15.5793 47.3128 13.117 45.2855 11.8085C45.0017 11.6242 44.6957 11.4583 44.4009 11.2961C44.0116 11.0868 43.6338 10.8567 43.2693 10.6068C42.8959 10.3216 42.5763 9.97214 42.3256 9.57475C42.1658 9.34625 41.9883 9.13058 41.7949 8.9297C41.3759 8.52201 40.8726 8.21123 40.3204 8.01925C39.5081 7.73 38.6718 7.51291 37.8213 7.37051L37.18 7.2415C36.6877 7.13925 36.1862 7.0886 35.6834 7.09038H35.6871Z" fill="#231F20"/>
<path d="M40.2833 40.0728C40.2833 40.0728 37.2534 44.7836 35.1597 44.7393C33.0661 44.6951 30.707 40.3861 30.707 40.3861L30.8397 38.0824L31.1494 32.7266L31.4442 27.721L40.029 27.6252L40.3607 31.713L40.4639 33.0362L40.2833 40.0728Z" fill="white"/>
<path d="M35.1777 44.9273H35.1593C32.9477 44.8794 30.6402 40.6515 30.5444 40.4709C30.5269 40.4407 30.518 40.4063 30.5186 40.3714L31.2558 27.7062C31.2577 27.6583 31.2778 27.6129 31.3121 27.5793C31.3463 27.5457 31.3921 27.5265 31.4401 27.5256L40.0285 27.4298C40.0769 27.4297 40.1235 27.4478 40.1591 27.4806C40.1946 27.5134 40.2164 27.5585 40.2202 27.6067L40.6514 33.0215L40.4856 40.0765C40.4848 40.1106 40.4746 40.1437 40.4561 40.1723C40.3197 40.3677 37.3709 44.9273 35.1777 44.9273ZM30.8872 40.3382C31.1489 40.799 33.2941 44.5071 35.1519 44.5476H35.1814C37.0502 44.5476 39.7852 40.493 40.0948 40.0138L40.2607 33.0104L39.8442 27.7947L31.6133 27.8869L30.8872 40.3382Z" fill="#231F20"/>
<path d="M40.4533 33.0325C39.7773 34.2065 38.818 35.1924 37.663 35.9003C35.82 37.0945 33.0776 38.4436 30.8291 38.0787L31.1387 32.7229C32.7834 32.9398 34.4497 32.9336 36.0927 32.7045C37.5376 32.5423 39.0415 32.3654 40.3501 31.7093L40.4533 33.0325Z" fill="#231F20"/>
<path d="M31.6211 38.322C31.3458 38.3234 31.0709 38.3024 30.7991 38.2593C30.7545 38.252 30.7142 38.2283 30.6862 38.1929C30.6583 38.1574 30.6446 38.1127 30.648 38.0676L30.9576 32.7119C30.9581 32.6862 30.9644 32.661 30.9758 32.638C30.9873 32.6151 31.0037 32.595 31.0239 32.5792C31.0437 32.5627 31.0668 32.5506 31.0915 32.5437C31.1163 32.5367 31.1422 32.535 31.1677 32.5386C32.7942 32.7623 34.4436 32.7623 36.0701 32.5386C37.4155 32.3875 38.9378 32.2179 40.2685 31.5581C40.295 31.5436 40.3248 31.536 40.3551 31.536C40.3853 31.536 40.4151 31.5436 40.4417 31.5581C40.4671 31.5733 40.4887 31.5942 40.5047 31.6192C40.5206 31.6441 40.5306 31.6724 40.5338 31.7019L40.6334 33.0289C40.6421 33.0614 40.6421 33.0958 40.6334 33.1284C39.9473 34.337 38.9657 35.3516 37.7804 36.0772C36.3945 36.9434 33.9101 38.322 31.6211 38.322ZM31.0239 37.9202C33.3535 38.2114 36.1069 36.6927 37.5629 35.7491C38.6771 35.0685 39.6053 34.1225 40.2648 32.9957L40.1874 31.9894C38.8604 32.5828 37.4044 32.7266 36.1106 32.8888C34.5218 33.1082 32.9114 33.1231 31.3188 32.933L31.0239 37.9202Z" fill="#231F20"/>
<path d="M36.0815 33.9282H35.2042C33.2027 33.9499 31.2745 33.1757 29.8437 31.776C28.4129 30.3763 27.5965 28.4656 27.5742 26.4641C27.5447 24.0792 28.2266 19.5417 28.2266 19.5417C28.2266 19.5417 31.7099 18.2885 34.4449 17.2564C39.034 15.5314 40.2688 13.0396 40.2688 13.0396C40.4114 14.6887 40.7733 16.3113 41.3451 17.8646C41.839 18.9925 43.3945 21.0088 43.3945 21.0088C43.3945 21.0088 43.5272 24.7316 43.5457 26.2871C43.5583 27.2793 43.3752 28.2641 43.0067 29.1854C42.6383 30.1066 42.0918 30.9461 41.3984 31.6559C40.7051 32.3656 39.8786 32.9317 38.9663 33.3216C38.0539 33.7115 37.0736 33.9177 36.0815 33.9282Z" fill="white"/>
<path d="M35.1193 34.1273C33.0816 34.1274 31.126 33.3241 29.6769 31.8915C28.2277 30.4589 27.4019 28.5127 27.3787 26.4751C27.3528 24.105 28.0274 19.5675 28.0348 19.5233C28.039 19.4893 28.0526 19.4571 28.0741 19.4305C28.0956 19.4038 28.1241 19.3836 28.1564 19.3722C28.1933 19.3722 31.6729 18.1079 34.371 17.0869C38.8458 15.406 40.088 12.9917 40.0991 12.9659C40.1097 12.9178 40.1387 12.8758 40.1799 12.8489C40.2211 12.822 40.2713 12.8124 40.3195 12.822C40.3678 12.8317 40.4103 12.8599 40.438 12.9006C40.4657 12.9413 40.4764 12.9912 40.4677 13.0396C40.614 14.6655 40.9721 16.2652 41.5329 17.7983C42.0084 18.9041 43.5418 20.8871 43.5566 20.9056C43.5813 20.9373 43.5955 20.9759 43.5971 21.0161C43.5971 21.053 43.7298 24.7575 43.7482 26.2945C43.7699 28.3462 42.976 30.3226 41.5411 31.7893C40.1063 33.2559 38.1478 34.0929 36.0961 34.1162H35.2151L35.1193 34.1273ZM36.0813 33.7366C38.0295 33.7113 39.8884 32.9159 41.2518 31.5241C42.6152 30.1324 43.3723 28.2575 43.3575 26.3093C43.3391 24.8865 43.2248 21.5875 43.2064 21.1009C42.9594 20.7766 41.6325 19.0146 41.1717 17.9604C40.6517 16.564 40.3027 15.1097 40.1323 13.6294C39.5314 14.4514 37.9538 16.1543 34.5111 17.4555C32.0746 18.377 29.0042 19.4828 28.396 19.7039C28.2928 20.4153 27.7399 24.3483 27.762 26.4825C27.7872 28.421 28.575 30.2716 29.9548 31.6335C31.3346 32.9953 33.1953 33.7589 35.134 33.7587H35.2151L36.0813 33.7366Z" fill="#231F20"/>
<path d="M35.1597 26.2761C34.8371 26.2765 34.5147 26.2593 34.194 26.2245C34.1182 26.2173 34.0453 26.1921 33.9812 26.1511C33.9171 26.1101 33.8637 26.0544 33.8254 25.9886C33.2504 25.0523 34.8022 20.7987 34.9791 20.3195C34.9878 20.2953 35.0012 20.273 35.0185 20.254C35.0358 20.235 35.0567 20.2196 35.08 20.2086C35.1033 20.1977 35.1285 20.1914 35.1542 20.1902C35.1799 20.189 35.2055 20.1928 35.2297 20.2016C35.2539 20.2103 35.2762 20.2237 35.2952 20.241C35.3142 20.2583 35.3297 20.2792 35.3406 20.3024C35.3516 20.3257 35.3578 20.3509 35.3591 20.3766C35.3603 20.4023 35.3564 20.428 35.3477 20.4522C34.699 22.2031 33.7996 25.2035 34.1608 25.7895C34.1903 25.8375 34.2124 25.8448 34.2345 25.8448C34.9471 25.9141 35.6651 25.9067 36.3761 25.8227C36.4011 25.8186 36.4267 25.8195 36.4513 25.8254C36.4759 25.8314 36.4991 25.8423 36.5194 25.8574C36.5397 25.8726 36.5568 25.8917 36.5695 25.9136C36.5823 25.9355 36.5904 25.9598 36.5936 25.9849C36.5998 26.0352 36.5859 26.086 36.5548 26.1261C36.5237 26.1661 36.478 26.1923 36.4277 26.1987C36.0071 26.2508 35.5836 26.2767 35.1597 26.2761Z" fill="#231F20"/>
<path d="M39.0196 22.9642C39.3066 22.961 39.533 22.3842 39.5252 21.6758C39.5174 20.9674 39.2784 20.3957 38.9914 20.3989C38.7044 20.402 38.478 20.9789 38.4858 21.6872C38.4936 22.3956 38.7326 22.9673 39.0196 22.9642Z" fill="#231F20"/>
<path d="M32.1436 22.8039C32.4306 22.8008 32.657 22.224 32.6492 21.5156C32.6414 20.8072 32.4024 20.2355 32.1154 20.2386C31.8284 20.2418 31.602 20.8186 31.6098 21.527C31.6176 22.2354 31.8566 22.8071 32.1436 22.8039Z" fill="#231F20"/>
<path d="M40.5191 38.6611C40.5191 38.6611 44.0835 38.9191 44.2788 39.8443C44.4742 40.7695 43.4421 47.5481 42.1667 49.1036C40.8914 50.6591 35.4287 44.7393 35.4287 44.7393L40.5191 38.6611Z" fill="white"/>
<path d="M41.569 49.5569C39.6338 49.5569 35.4649 45.0637 35.3028 44.872C35.2719 44.8376 35.2549 44.7929 35.2549 44.7467C35.2549 44.7005 35.2719 44.6558 35.3028 44.6214L40.3968 38.5395C40.4152 38.5156 40.4395 38.4969 40.4673 38.4852C40.4951 38.4736 40.5254 38.4694 40.5553 38.4731C41.1746 38.5173 44.2708 38.7901 44.4883 39.8038C44.7058 40.8174 43.6479 47.6255 42.3357 49.2252C42.2495 49.3291 42.1413 49.4125 42.0189 49.4692C41.8965 49.526 41.7629 49.5547 41.628 49.5533L41.569 49.5569ZM35.6714 44.7356C36.9467 46.0958 40.1609 49.2141 41.5874 49.1589C41.6677 49.1616 41.7475 49.1462 41.821 49.1136C41.8944 49.081 41.9595 49.0322 42.0113 48.9709C43.235 47.4965 44.2856 40.799 44.0865 39.8664C43.9723 39.3393 42.0113 38.956 40.5959 38.8454L35.6714 44.7356Z" fill="#231F20"/>
<path d="M30.3682 38.4215C30.3682 38.4215 26.7965 38.51 26.5532 39.4241C26.3099 40.3382 27.025 47.1647 28.2266 48.7755C29.4283 50.3863 35.16 44.7393 35.16 44.7393L30.3682 38.4215Z" fill="white"/>
<path d="M28.8454 49.2547H28.7495C28.6136 49.2499 28.4806 49.2142 28.3605 49.1503C28.2404 49.0865 28.1365 48.9961 28.0566 48.8861C26.8217 47.2274 26.0956 40.3456 26.3536 39.3762C26.6116 38.4068 29.7226 38.2483 30.3456 38.2298C30.3754 38.2308 30.4048 38.2382 30.4315 38.2515C30.4582 38.2649 30.4817 38.2839 30.5004 38.3072L35.2922 44.6214C35.3223 44.6562 35.3388 44.7007 35.3388 44.7467C35.3388 44.7927 35.3223 44.8372 35.2922 44.872C35.0968 45.0563 30.81 49.2547 28.8454 49.2547ZM30.2571 38.6132C28.838 38.6611 26.8586 38.9486 26.7185 39.472C26.4789 40.3935 27.2125 47.1168 28.3625 48.6612C28.4117 48.7253 28.4747 48.7774 28.5468 48.8138C28.6189 48.8501 28.6983 48.8698 28.779 48.8713C30.1908 48.9819 33.5708 46.0147 34.8941 44.7172L30.2571 38.6132Z" fill="#231F20"/>
<path d="M31.4336 27.7173L40.0183 27.6215C40.0183 27.6215 38.7098 32.1516 35.4292 31.7093C32.1487 31.267 31.4336 27.7173 31.4336 27.7173Z" fill="white"/>
<path d="M35.8716 31.9304C35.715 31.9301 35.5586 31.919 35.4035 31.8972C32.0234 31.4402 31.253 27.791 31.2457 27.7542C31.2403 27.7264 31.2412 27.6978 31.2482 27.6704C31.2552 27.643 31.2682 27.6175 31.2862 27.5957C31.3035 27.5741 31.3254 27.5567 31.3503 27.5446C31.3751 27.5325 31.4023 27.526 31.43 27.5256L40.0184 27.4298C40.0479 27.4299 40.0769 27.437 40.1032 27.4505C40.1294 27.4639 40.1521 27.4833 40.1695 27.5072C40.1873 27.5305 40.1996 27.5575 40.2054 27.5863C40.2111 27.615 40.2102 27.6447 40.2027 27.6731C40.1879 27.721 38.9347 31.9304 35.8716 31.9304ZM31.6769 27.9053C31.9018 28.672 32.8196 31.1637 35.4514 31.5213C38.0832 31.8788 39.4286 28.731 39.753 27.8131L31.6769 27.9053Z" fill="#231F20"/>
<path d="M42.959 19.5528H43.8252C44.1793 19.5528 44.5299 19.6228 44.8569 19.7587C45.1839 19.8947 45.4808 20.094 45.7305 20.345C45.9802 20.5961 46.1778 20.8941 46.312 21.2218C46.4462 21.5495 46.5142 21.9005 46.5123 22.2546V27.4151C46.5123 27.7679 46.4428 28.1174 46.3078 28.4434C46.1727 28.7694 45.9748 29.0656 45.7253 29.3151C45.4757 29.5646 45.1795 29.7626 44.8535 29.8976C44.5275 30.0327 44.1781 30.1022 43.8252 30.1022H42.959V19.5528Z" fill="white"/>
<path d="M43.8255 30.2644H42.9593C42.9341 30.2644 42.9092 30.2594 42.8859 30.2498C42.8626 30.2401 42.8415 30.226 42.8237 30.2082C42.8059 30.1904 42.7918 30.1693 42.7822 30.146C42.7725 30.1228 42.7676 30.0979 42.7676 30.0727V19.5528C42.7676 19.5276 42.7725 19.5027 42.7822 19.4795C42.7918 19.4562 42.8059 19.4351 42.8237 19.4173C42.8415 19.3995 42.8626 19.3854 42.8859 19.3757C42.9092 19.3661 42.9341 19.3611 42.9593 19.3611H43.8255C44.5877 19.3621 45.3184 19.6653 45.8574 20.2043C46.3964 20.7433 46.6996 21.474 46.7006 22.2362V27.3966C46.6976 28.1576 46.3935 28.8864 45.8548 29.4238C45.316 29.9612 44.5864 30.2634 43.8255 30.2644ZM43.1509 29.8958H43.8255C44.4876 29.8948 45.1223 29.631 45.5902 29.1625C46.0581 28.6939 46.3209 28.0588 46.3209 27.3966V22.2546C46.3199 21.5931 46.0567 20.959 45.5889 20.4912C45.1211 20.0234 44.487 19.7602 43.8255 19.7592H43.1509V29.8958Z" fill="#231F20"/>
<path d="M28.2266 30.0727H27.3604C27.0062 30.0727 26.6556 30.0027 26.3286 29.8667C26.0016 29.7308 25.7048 29.5315 25.4551 29.2804C25.2053 29.0293 25.0077 28.7314 24.8735 28.4037C24.7394 28.0759 24.6713 27.7249 24.6732 27.3708V22.2104C24.6732 21.8575 24.7428 21.5081 24.8778 21.1821C25.0128 20.8561 25.2108 20.5599 25.4603 20.3103C25.7098 20.0608 26.006 19.8629 26.332 19.7278C26.6581 19.5928 27.0075 19.5233 27.3604 19.5233H28.2266V30.0727Z" fill="white"/>
<path d="M28.2267 30.2643H27.3604C26.5976 30.2634 25.8663 29.9596 25.3272 29.4199C24.7881 28.8801 24.4854 28.1484 24.4854 27.3856V22.2546C24.4863 21.4924 24.7896 20.7617 25.3285 20.2227C25.8675 19.6838 26.5982 19.3805 27.3604 19.3796H28.2267C28.2517 19.3795 28.2764 19.3845 28.2995 19.3942C28.3225 19.4039 28.3434 19.4181 28.3609 19.4359C28.3784 19.4538 28.3922 19.4749 28.4014 19.4982C28.4106 19.5214 28.4151 19.5462 28.4146 19.5712V30.0911C28.4109 30.1384 28.3895 30.1825 28.3546 30.2146C28.3198 30.2467 28.2741 30.2645 28.2267 30.2643ZM27.3604 19.7408C27.0313 19.7413 26.7055 19.8067 26.4018 19.9335C26.098 20.0602 25.8223 20.2457 25.5905 20.4793C25.3586 20.7128 25.1751 20.9899 25.0506 21.2946C24.9262 21.5993 24.8631 21.9255 24.865 22.2546V27.4151C24.865 28.0772 25.1278 28.7123 25.5957 29.1809C26.0636 29.6495 26.6983 29.9132 27.3604 29.9142H28.035V19.7408H27.3604Z" fill="#231F20"/>
<path d="M45.2045 21.3221C45.0579 21.3221 44.9172 21.2638 44.8135 21.1601C44.7099 21.0565 44.6516 20.9158 44.6516 20.7692V15.7931C44.6516 11.2187 40.7186 7.5106 35.8973 7.5106C31.076 7.5106 27.1283 11.2335 27.1283 15.8078V20.7802C27.1283 20.9269 27.07 21.0675 26.9664 21.1712C26.8627 21.2749 26.722 21.3331 26.5754 21.3331C26.4288 21.3331 26.2881 21.2749 26.1844 21.1712C26.0807 21.0675 26.0225 20.9269 26.0225 20.7802V15.7931C26.0078 10.6069 30.4383 6.4048 35.8973 6.4048C41.3563 6.4048 45.7721 10.6216 45.7721 15.8078V20.7802C45.7707 20.8532 45.7549 20.9251 45.7255 20.9919C45.6962 21.0587 45.6539 21.119 45.6011 21.1693C45.5484 21.2197 45.4861 21.2591 45.4181 21.2853C45.35 21.3116 45.2774 21.324 45.2045 21.3221Z" fill="#231F20"/>
<path d="M25.5762 29.5677C25.5264 29.5677 25.4785 29.5479 25.4433 29.5126C25.408 29.4774 25.3882 29.4296 25.3882 29.3797V22.2325C25.3801 22.204 25.3787 22.174 25.3841 22.1448C25.3895 22.1157 25.4016 22.0881 25.4195 22.0645C25.4374 22.0408 25.4605 22.0216 25.487 22.0083C25.5136 21.9951 25.5429 21.9882 25.5725 21.9882C25.6022 21.9882 25.6315 21.9951 25.658 22.0083C25.6846 22.0216 25.7077 22.0408 25.7256 22.0645C25.7434 22.0881 25.7555 22.1157 25.761 22.1448C25.7664 22.174 25.765 22.204 25.7568 22.2325V29.3797C25.7569 29.4283 25.7381 29.4751 25.7044 29.5101C25.6707 29.5452 25.6248 29.5658 25.5762 29.5677Z" fill="#231F20"/>
<path d="M45.2041 29.5677C45.1543 29.5677 45.1065 29.5479 45.0712 29.5126C45.036 29.4774 45.0162 29.4296 45.0162 29.3797V22.2325C45.008 22.204 45.0066 22.174 45.012 22.1448C45.0175 22.1157 45.0296 22.0881 45.0474 22.0645C45.0653 22.0408 45.0884 22.0216 45.115 22.0083C45.1415 21.9951 45.1708 21.9882 45.2005 21.9882C45.2301 21.9882 45.2594 21.9951 45.2859 22.0083C45.3125 22.0216 45.3356 22.0408 45.3535 22.0645C45.3713 22.0881 45.3835 22.1157 45.3889 22.1448C45.3943 22.174 45.3929 22.204 45.3848 22.2325V29.3797C45.3848 29.4283 45.366 29.4751 45.3323 29.5101C45.2987 29.5452 45.2527 29.5658 45.2041 29.5677Z" fill="#231F20"/>
<path d="M16.7958 74.2864C16.1875 73.5295 15.4214 72.9144 14.551 72.4839C12.3615 71.5108 9.75919 72.4839 7.86458 73.9583C6.97257 74.6476 6.12847 75.4807 5.76356 76.5385C5.15168 78.3336 6.02895 80.2946 7.1495 81.8243C7.59345 82.4948 8.18155 83.0577 8.87087 83.4719C9.7722 83.9019 10.7988 83.991 11.7607 83.7226C12.7133 83.4491 13.6174 83.0287 14.4404 82.4767C15.7379 81.6658 18.2481 80.3536 18.8636 78.8681C19.4792 77.3826 17.6694 75.289 16.7958 74.2864Z" fill="#4F51FF"/>
<path d="M10.5888 84.0617C9.96314 84.0708 9.34462 83.9278 8.78635 83.6452C8.07196 83.2179 7.46236 82.636 7.00232 81.9422C5.98498 80.5526 4.91235 78.4811 5.59058 76.4906C5.91126 75.5544 6.60055 74.7066 7.75427 73.8183C10.1059 72.0084 12.6751 71.4482 14.625 72.3181C15.522 72.7542 16.3113 73.3836 16.9361 74.1611C18.1193 75.5249 19.6269 77.5043 19.0335 78.9529C18.4842 80.2799 16.5675 81.4262 15.1668 82.2703L14.5365 82.6389C13.6972 83.2003 12.7758 83.6281 11.8052 83.9069C11.4076 84.008 10.9991 84.06 10.5888 84.0617ZM12.6567 72.2665C11.1823 72.2665 9.53461 72.8968 7.97912 74.1095C6.87331 74.9499 6.23563 75.7461 5.94075 76.6086C5.31044 78.4516 6.33147 80.4089 7.2972 81.7248C7.72462 82.3747 8.29278 82.9202 8.95959 83.3208C9.81927 83.7329 10.8002 83.8156 11.7167 83.553C12.6496 83.2852 13.5351 82.8735 14.3412 82.333L14.9789 81.9459C16.3353 81.135 18.1931 80.0255 18.6944 78.8091C19.2731 77.4121 17.3047 75.1489 16.656 74.3859C16.0681 73.6486 15.3241 73.0506 14.4776 72.6351C13.9081 72.3923 13.2941 72.2717 12.6751 72.2812L12.6567 72.2665Z" fill="#231F20"/>
<path d="M21.0718 81.1166C20.6148 82.1632 19.8886 83.0701 18.9671 83.7447C17.1241 85.079 15.5649 83.8737 13.6113 83.5493C13.6113 83.5493 11.0016 83.1144 9.40556 83.5493C8.48775 83.8 7.80952 82.4435 7.47409 81.8132C7.18746 81.304 7.01199 80.7398 6.95926 80.1578C6.90652 79.5758 6.97772 78.9893 7.16815 78.4368C7.90536 76.2989 10.1833 76.2953 12.089 76.0041C13.5044 75.7866 15.3179 76.3727 15.3179 76.3727C15.3179 76.3727 13.3938 73.3243 13.9025 72.8194C14.4112 72.3144 16.4422 72.237 17.1683 72.9631C18.1672 73.962 18.0861 75.7571 18.7054 77.0177C19.203 76.9661 20.4525 76.4832 20.9465 76.5938C21.5657 76.7339 22.2292 77.331 22.6936 77.7512C23.7752 78.7027 24.6432 79.8722 25.2407 81.1829C25.4634 81.5935 25.5788 82.0538 25.5761 82.5209C25.5691 82.7547 25.4893 82.9805 25.3479 83.1668C25.2065 83.3531 25.0106 83.4907 24.7873 83.5604C24.3302 83.6599 23.8879 83.3724 23.5267 83.0775C22.6541 82.3548 21.9068 81.493 21.3151 80.5268C21.234 80.7185 21.1529 80.9175 21.0718 81.1166Z" fill="white"/>
<path d="M17.1605 84.5483C16.4554 84.5092 15.7598 84.3664 15.0964 84.1244C14.6003 83.9618 14.0943 83.8312 13.5814 83.7336C13.4745 83.7152 10.9828 83.3134 9.45308 83.7336C8.43942 84.0064 7.74277 82.7089 7.36679 82.0123L7.30782 81.9017C7.00902 81.3694 6.82599 80.7801 6.77073 80.1722C6.71547 79.5643 6.78921 78.9516 6.98713 78.3742C7.65062 76.3985 9.60052 76.1441 11.3219 75.9156C11.5688 75.8861 11.8195 75.853 12.0591 75.8161C13.0091 75.7279 13.9672 75.8141 14.8863 76.0704C14.2338 74.9867 13.2681 73.1806 13.7546 72.694C14.0938 72.3549 14.8605 72.2407 15.4428 72.248C15.8114 72.248 16.7698 72.3218 17.2858 72.8378C17.9309 73.4828 18.1484 74.4154 18.3585 75.3185C18.4591 75.8288 18.6072 76.3286 18.8008 76.8113C18.9667 76.7818 19.1878 76.7192 19.4201 76.6565C20.0061 76.498 20.6143 76.3321 20.9756 76.4132C21.5948 76.5533 22.2325 77.1099 22.6969 77.519L22.8038 77.6112C23.9 78.5816 24.7792 79.7723 25.384 81.1055C25.6234 81.5449 25.7441 82.0391 25.7342 82.5394C25.7235 82.8133 25.6276 83.0771 25.4597 83.2938C25.2918 83.5106 25.0605 83.6695 24.7979 83.7484C24.2414 83.8737 23.7179 83.5088 23.3751 83.2287C22.582 82.5767 21.889 81.8116 21.3183 80.9581C21.2852 81.0429 21.252 81.1276 21.2151 81.2087C20.7482 82.2885 20.0012 83.2238 19.0515 83.9179C18.5056 84.3264 17.8423 84.5475 17.1605 84.5483ZM11.2002 83.166C12.016 83.1723 12.8303 83.2376 13.6367 83.3614C14.1674 83.4612 14.6908 83.5966 15.2033 83.7668C16.486 84.1612 17.5955 84.504 18.8487 83.5899C19.744 82.9362 20.4489 82.0558 20.8908 81.0392C20.9719 80.8475 21.0493 80.6706 21.1119 80.4531C21.122 80.4186 21.1421 80.388 21.1697 80.365C21.1972 80.342 21.231 80.3278 21.2667 80.3241C21.3033 80.3192 21.3404 80.3249 21.3738 80.3406C21.4071 80.3563 21.4352 80.3813 21.4547 80.4126C22.0393 81.3613 22.7766 82.207 23.6369 82.9154C23.9465 83.166 24.3483 83.4461 24.7427 83.3614C24.9257 83.2998 25.0852 83.1832 25.1993 83.0275C25.3135 82.8717 25.3767 82.6845 25.3803 82.4915C25.3812 82.0566 25.2735 81.6283 25.067 81.2456C24.4783 79.9605 23.6255 78.8139 22.5642 77.8803L22.4573 77.7844C22.0224 77.4158 21.4289 76.885 20.9018 76.7671C20.4345 76.7689 19.9709 76.8499 19.5306 77.0067C19.2658 77.0864 18.9962 77.1492 18.7234 77.1947C18.6843 77.1986 18.645 77.1905 18.6107 77.1714C18.5765 77.1522 18.5489 77.1231 18.5317 77.0878C18.2905 76.5435 18.1124 75.9733 18.0009 75.3885C17.7908 74.4965 17.5955 73.6561 17.0315 73.0921C16.5776 72.7475 16.0155 72.5763 15.4465 72.6093C14.8162 72.6093 14.2375 72.7383 14.0348 72.9447C13.8321 73.1511 14.4955 74.7103 15.476 76.2621C15.4976 76.2943 15.5091 76.3321 15.5091 76.3708C15.5091 76.4096 15.4976 76.4474 15.476 76.4796C15.452 76.5107 15.4187 76.5335 15.381 76.5447C15.3434 76.5559 15.3031 76.5551 15.2659 76.5422C15.2659 76.5422 13.4782 75.9783 12.1254 76.1736L11.3882 76.2768C9.70004 76.498 7.95655 76.7265 7.36679 78.4885C7.18486 79.0163 7.11707 79.5768 7.16791 80.1327C7.21874 80.6887 7.38704 81.2276 7.66167 81.7137L7.72065 81.8243C8.04502 82.4288 8.65321 83.5567 9.37198 83.3577C9.97089 83.217 10.5852 83.1526 11.2002 83.166Z" fill="#231F20"/>
<path d="M13.6365 75.676C13.6365 75.676 13.9424 83.4498 13.5738 84.2792C13.2052 85.1085 12.0736 85.1454 11.5833 84.7841C11.0931 84.4229 10.7245 80.4936 10.7245 80.4936C10.7245 80.4936 10.5218 84.0838 10.2527 84.5925C9.70716 85.6246 8.30648 85.6061 8.12218 82.086C8.12218 82.086 8.12218 84.8247 7.23385 84.8247C6.34552 84.8247 6.23863 84.0875 6.15017 82.8674C6.0617 81.6474 5.89583 79.5721 7.25597 77.8286C8.61611 76.0852 13.2089 75.4585 13.6365 75.676Z" fill="white"/>
<path d="M9.46049 85.3887C9.39963 85.3884 9.33901 85.3809 9.27988 85.3666C8.95182 85.2965 8.45052 84.9758 8.15564 83.7668C8.01189 84.4303 7.74281 85.0274 7.23414 85.0274C6.12833 85.0274 6.04724 84.0838 5.95878 82.8932C5.86294 81.6142 5.70813 79.5168 7.09038 77.7328C8.39892 76.0409 13.1244 75.2153 13.7252 75.5212C13.7552 75.5368 13.7805 75.5599 13.7986 75.5884C13.8167 75.6169 13.827 75.6497 13.8284 75.6834C13.8579 76.4833 14.1233 83.5235 13.7473 84.3713C13.6593 84.564 13.5286 84.7342 13.3651 84.8689C13.2016 85.0037 13.0097 85.0995 12.8037 85.1491C12.5798 85.2115 12.3452 85.226 12.1153 85.1917C11.8854 85.1574 11.6653 85.0751 11.4694 84.95C11.1708 84.7289 10.9349 83.5973 10.7727 82.5025C10.6842 83.4535 10.5663 84.4377 10.4041 84.7141C10.321 84.9003 10.1898 85.061 10.0239 85.1796C9.85804 85.2981 9.66355 85.3703 9.46049 85.3887ZM8.12247 81.9091C8.17085 81.9089 8.21749 81.9271 8.25304 81.9599C8.28859 81.9927 8.31042 82.0378 8.31414 82.086C8.41735 84.0838 8.92602 84.8984 9.36465 84.9979C9.62267 85.0532 9.89913 84.8689 10.1019 84.5151C10.3046 84.1612 10.4705 81.8648 10.5552 80.4936C10.5667 80.4536 10.5909 80.4184 10.6241 80.3933C10.6574 80.3682 10.6979 80.3546 10.7395 80.3546C10.7812 80.3546 10.8217 80.3682 10.855 80.3933C10.8882 80.4184 10.9124 80.4536 10.9238 80.4936C11.0971 82.3366 11.4436 84.445 11.7053 84.6367C11.8548 84.7287 12.0219 84.7884 12.1958 84.8119C12.3698 84.8354 12.5467 84.8222 12.7152 84.7731C12.8662 84.7383 13.0071 84.6694 13.1272 84.5716C13.2473 84.4738 13.3435 84.3498 13.4082 84.2091C13.6589 83.6378 13.5778 78.9455 13.4598 75.8382C12.6894 75.7755 8.60534 76.3985 7.40001 77.9614C6.10622 79.6385 6.25366 81.6474 6.34581 82.849C6.44533 84.1907 6.54117 84.6551 7.24151 84.6551C7.71701 84.6551 7.94185 83.1328 7.94185 82.1044C7.94136 82.0799 7.94577 82.0556 7.95481 82.0328C7.96385 82.01 7.97735 81.9892 7.99451 81.9717C8.01168 81.9542 8.03216 81.9403 8.05476 81.9308C8.07737 81.9213 8.10164 81.9164 8.12616 81.9164L8.12247 81.9091Z" fill="#231F20"/>
<path d="M15.097 82.7052H15.0527C15.0282 82.7001 15.0049 82.69 14.9844 82.6755C14.9639 82.6611 14.9465 82.6426 14.9334 82.6212C14.9203 82.5998 14.9117 82.5759 14.9081 82.5511C14.9046 82.5262 14.9061 82.5009 14.9127 82.4767C15.0948 81.6407 15.4908 80.8663 16.062 80.2292C16.6331 79.5922 17.3599 79.1143 18.1711 78.8423C18.2182 78.834 18.2668 78.8437 18.3071 78.8694C18.3475 78.895 18.3768 78.9349 18.3893 78.9811C18.4018 79.0273 18.3965 79.0765 18.3746 79.119C18.3526 79.1616 18.3155 79.1943 18.2706 79.2109C17.5246 79.4634 16.8569 79.9052 16.3329 80.4932C15.8088 81.0811 15.4465 81.7951 15.2813 82.5652C15.27 82.6054 15.2459 82.6409 15.2126 82.6662C15.1794 82.6915 15.1387 82.7052 15.097 82.7052Z" fill="#231F20"/>
<path d="M16.0812 72.4766C14.699 72.0158 13.8364 72.108 13.044 73.0774C12.758 73.4654 12.5491 73.9046 12.4284 74.3712C11.991 75.8032 11.7954 77.2981 11.8497 78.7944C11.8365 79.0779 11.8975 79.3599 12.0266 79.6127C12.1679 79.8115 12.3683 79.9605 12.5993 80.0386C12.8303 80.1167 13.0801 80.1199 13.313 80.0476C13.7769 79.8909 14.1795 79.5916 14.4631 79.1925C15.3956 78.0093 15.7163 76.4722 16.0075 74.9941" fill="white"/>
<path d="M12.9738 80.2762C12.7556 80.2836 12.5392 80.2346 12.3454 80.1339C12.1517 80.0332 11.9873 79.8841 11.868 79.7011C11.7265 79.4203 11.6569 79.1088 11.6653 78.7944C11.6099 77.2791 11.8092 75.7652 12.2551 74.3159C12.3821 73.8262 12.6023 73.3657 12.9038 72.9594C13.8327 71.8205 14.8721 71.8536 16.1475 72.2959C16.1953 72.3127 16.2346 72.3477 16.2567 72.3932C16.2788 72.4388 16.2819 72.4913 16.2655 72.5392C16.2576 72.5628 16.2451 72.5845 16.2287 72.6032C16.2124 72.6219 16.1925 72.6372 16.1703 72.6481C16.148 72.6591 16.1237 72.6655 16.099 72.6671C16.0742 72.6687 16.0493 72.6653 16.0259 72.6572C14.6399 72.1964 13.899 72.3365 13.1987 73.199C12.9288 73.5677 12.7312 73.9842 12.6163 74.4265C12.186 75.8358 11.9929 77.307 12.045 78.7796C12.0353 79.034 12.0871 79.2869 12.1961 79.5168C12.3168 79.6788 12.4849 79.7991 12.6771 79.8612C12.8693 79.9233 13.0761 79.924 13.2687 79.8633C13.6959 79.7208 14.0657 79.4442 14.3229 79.0745C15.2481 77.9024 15.5541 76.3358 15.8268 74.9572C15.8375 74.9079 15.8669 74.8646 15.9088 74.8364C15.9507 74.8082 16.0019 74.7974 16.0517 74.8061C16.0763 74.8109 16.0996 74.8206 16.1204 74.8346C16.1412 74.8486 16.159 74.8666 16.1727 74.8875C16.1864 74.9085 16.1959 74.9319 16.2004 74.9566C16.2049 74.9812 16.2045 75.0065 16.1991 75.031C15.919 76.4538 15.602 78.0646 14.6215 79.3104C14.3156 79.7447 13.8772 80.068 13.3719 80.2319C13.2417 80.264 13.1079 80.2788 12.9738 80.2762Z" fill="#231F20"/>
<path d="M54.5036 74.2864C55.1128 73.5304 55.8786 72.9154 56.7484 72.4839C58.9416 71.5108 61.5402 72.4839 63.4348 73.9583C64.3305 74.6476 65.1709 75.4807 65.5358 76.5385C66.1477 78.3336 65.2704 80.2946 64.1499 81.8243C63.707 82.4957 63.1187 83.0588 62.4285 83.4719C61.5273 83.9023 60.5006 83.9913 59.5387 83.7226C58.587 83.4497 57.6841 83.0293 56.8627 82.4767C55.5615 81.6658 53.0513 80.3536 52.4394 78.8681C51.8276 77.3826 53.6337 75.289 54.5036 74.2864Z" fill="#4F51FF"/>
<path d="M60.7154 84.0617C60.3041 84.061 59.8944 84.0103 59.4953 83.9106C58.525 83.631 57.6037 83.2033 56.764 82.6426L56.1374 82.274C54.7367 81.4336 52.82 80.2872 52.2707 78.9566C51.6736 77.5153 53.1812 75.5359 54.3681 74.1647C54.9917 73.3875 55.7797 72.7581 56.6755 72.3217C58.6291 71.4518 61.1983 72.0121 63.5499 73.8219C64.7037 74.7103 65.393 75.5581 65.71 76.4943C66.3919 78.4847 65.3192 80.5489 64.2982 81.9459C63.8393 82.6406 63.2295 83.2228 62.5142 83.6489C61.9567 83.9298 61.3395 84.0714 60.7154 84.0617ZM58.6475 72.2664C58.0139 72.2559 57.3854 72.3816 56.8045 72.635C55.958 73.0506 55.214 73.6486 54.6261 74.3859C53.9811 75.1231 52.0127 77.3937 52.5914 78.8091C53.0927 80.0255 54.9505 81.135 56.3069 81.9459L56.9409 82.3329C57.747 82.8735 58.6325 83.2852 59.5654 83.553C60.4831 83.8154 61.4652 83.7328 62.3262 83.3208C62.9922 82.9205 63.5592 82.3749 63.9849 81.7248C64.9543 80.4088 65.9753 78.4479 65.345 76.6086C65.0502 75.746 64.4014 74.9499 63.3067 74.1095C61.7659 72.9115 60.1183 72.2812 58.6475 72.2812V72.2664Z" fill="#231F20"/>
<path d="M50.2284 81.1166C50.6854 82.1632 51.4116 83.0701 52.3331 83.7447C54.1761 85.079 55.7353 83.8737 57.6889 83.5493C57.6889 83.5493 60.3022 83.1144 61.8983 83.5493C62.8124 83.8 63.4906 82.4435 63.8261 81.8132C64.1143 81.3046 64.2906 80.7403 64.3434 80.158C64.3962 79.5758 64.3241 78.989 64.132 78.4368C63.3948 76.2989 61.1205 76.2953 59.2112 76.0041C57.7958 75.7866 55.9822 76.3727 55.9822 76.3727C55.9822 76.3727 57.9063 73.3243 57.3977 72.8194C56.889 72.3144 54.858 72.237 54.1319 72.9631C53.1329 73.962 53.2177 75.7571 52.5948 77.0177C52.0972 76.9661 50.8476 76.4832 50.3537 76.5938C49.7344 76.7339 49.0746 77.331 48.6065 77.7512C47.5249 78.7027 46.6569 79.8722 46.0595 81.1829C45.8362 81.5932 45.7219 82.0539 45.7277 82.5209C45.7317 82.755 45.8099 82.9817 45.951 83.1685C46.0921 83.3553 46.2888 83.4925 46.5129 83.5604C46.9699 83.6599 47.4159 83.3724 47.7772 83.0775C48.6478 82.3528 49.3948 81.4913 49.9888 80.5268C50.0581 80.7275 50.1381 80.9244 50.2284 81.1166Z" fill="white"/>
<path d="M54.1396 84.5483C53.4463 84.5475 52.7726 84.3182 52.2228 83.8958C51.2721 83.2018 50.5239 82.2665 50.0555 81.1866C50.0186 81.1055 49.9854 81.0244 49.9522 80.936C49.3819 81.7886 48.6902 82.5535 47.8991 83.2065C47.5526 83.4867 47.0292 83.8479 46.4726 83.7263C46.2101 83.6474 45.9787 83.4885 45.8109 83.2717C45.643 83.055 45.5471 82.7912 45.5364 82.5173C45.5297 82.0174 45.6502 81.5239 45.8866 81.0834C46.4928 79.751 47.3718 78.5606 48.4668 77.5891L48.5737 77.4969C49.0418 77.0878 49.6795 76.5312 50.2987 76.3911C50.6673 76.31 51.2645 76.4759 51.8542 76.6344C52.0828 76.697 52.3039 76.7597 52.4698 76.7892C52.6634 76.3064 52.8115 75.8067 52.9121 75.2964C53.1259 74.3933 53.3434 73.4534 53.9847 72.8157C54.7588 72.0416 56.9041 72.0564 57.5196 72.6719C58.0062 73.1585 57.0368 74.9646 56.3843 76.0483C57.3092 75.7965 58.2725 75.7166 59.2263 75.8124C59.472 75.8493 59.7177 75.8824 59.9635 75.9119C61.6811 76.1405 63.6495 76.3948 64.2945 78.3705C64.4943 78.9476 64.569 79.5606 64.5137 80.1688C64.4585 80.7769 64.2744 81.3664 63.9738 81.898L63.9185 82.0086C63.5499 82.7052 62.8459 84.0027 61.8286 83.73C60.2915 83.3098 57.726 83.73 57.7002 83.73C57.1875 83.828 56.6815 83.9585 56.1853 84.1207C55.528 84.3626 54.8387 84.5066 54.1396 84.5483ZM50.0038 80.3167H50.026C50.062 80.3206 50.0962 80.3349 50.1243 80.3578C50.1524 80.3807 50.1733 80.4112 50.1845 80.4457C50.246 80.6455 50.3199 80.8412 50.4056 81.0318C50.8463 82.0492 51.5514 82.9299 52.4477 83.5825C53.6972 84.493 54.8067 84.1502 56.0931 83.7594C56.6042 83.5888 57.1264 83.4534 57.656 83.354C57.7666 83.3356 60.3284 82.9153 61.9465 83.354C62.6837 83.553 63.2735 82.4251 63.6015 81.8206L63.6605 81.71C63.9337 81.2233 64.1008 80.6844 64.151 80.1285C64.2012 79.5727 64.1333 79.0125 63.9517 78.4848C63.3656 76.7339 61.6185 76.5054 59.9303 76.2732L59.1931 76.17C57.8403 75.9598 56.071 76.5201 56.0526 76.5386C56.0154 76.5508 55.9753 76.5514 55.9377 76.5402C55.9001 76.529 55.8669 76.5066 55.8425 76.4759C55.82 76.4441 55.8078 76.4061 55.8078 76.3671C55.8078 76.3282 55.82 76.2902 55.8425 76.2584C56.823 74.7029 57.4975 73.1511 57.2837 72.941C56.8488 72.5061 54.9431 72.4286 54.287 73.0884C53.7193 73.6524 53.524 74.4928 53.3176 75.3811C53.2054 75.9674 53.026 76.5388 52.7831 77.0841C52.767 77.1194 52.7402 77.1488 52.7064 77.168C52.6727 77.1872 52.6337 77.1952 52.5951 77.191C52.321 77.1459 52.0501 77.0832 51.7842 77.003C51.3447 76.8484 50.8826 76.7674 50.4167 76.7634C49.8896 76.8814 49.2924 77.4011 48.8575 77.7807L48.7506 77.8766C47.6786 78.8028 46.8155 79.9461 46.2183 81.2308C46.0092 81.6127 45.9002 82.0413 45.9013 82.4767C45.9065 82.6694 45.9703 82.8559 46.0843 83.0113C46.1982 83.1667 46.3568 83.2837 46.539 83.3466C46.9334 83.4314 47.3352 83.1513 47.6448 82.9006C48.5062 82.1924 49.2447 81.3467 49.8306 80.3978C49.8497 80.3704 49.876 80.3487 49.9065 80.3351C49.937 80.3215 49.9707 80.3164 50.0038 80.3204V80.3167Z" fill="#231F20"/>
<path d="M57.6624 75.676C57.6624 75.676 57.3602 83.4498 57.7251 84.2792C58.09 85.1085 59.229 85.1454 59.7156 84.7841C60.2021 84.4229 60.5928 80.4936 60.5928 80.4936C60.5928 80.4936 60.7956 84.0838 61.0646 84.5925C61.6139 85.6246 63.0109 85.6061 63.1952 82.086C63.1952 82.086 63.1952 84.8247 64.0835 84.8247C64.9718 84.8247 65.0787 84.0875 65.1709 82.8674C65.263 81.6474 65.4252 79.5721 64.0651 77.8286C62.7049 76.0852 58.09 75.4585 57.6624 75.676Z" fill="white"/>
<path d="M61.8433 85.3886C61.6345 85.3719 61.4343 85.298 61.2646 85.1751C61.095 85.0523 60.9623 84.8851 60.8812 84.692C60.6785 83.971 60.561 83.2287 60.5311 82.4804C60.3689 83.5862 60.133 84.692 59.8307 84.9279C59.6351 85.0538 59.415 85.1366 59.185 85.171C58.9549 85.2053 58.7202 85.1903 58.4964 85.1269C58.2906 85.0768 58.0989 84.9808 57.9355 84.8462C57.7721 84.7115 57.6412 84.5416 57.5528 84.3492C57.1842 83.5014 57.4422 76.4611 57.4717 75.6613C57.4738 75.6273 57.4848 75.5944 57.5035 75.5659C57.5223 75.5375 57.5482 75.5144 57.5786 75.4991C58.1757 75.1931 62.9012 76.0188 64.2134 77.7107C65.5993 79.5021 65.4408 81.6031 65.3487 82.8711C65.2565 84.1391 65.1865 85.0274 64.0696 85.0274C63.561 85.0274 63.2919 84.4303 63.1518 83.7668C62.8533 84.9758 62.352 85.2965 62.0239 85.3665C61.9648 85.3813 61.9042 85.3888 61.8433 85.3886ZM60.5937 80.313C60.6417 80.3139 60.6875 80.3331 60.7218 80.3667C60.756 80.4003 60.7762 80.4457 60.778 80.4936C60.8554 81.8648 61.0471 84.1796 61.2314 84.5151C61.4157 84.8505 61.6995 85.0532 61.9686 84.9979C62.4072 84.8984 62.9122 84.0838 63.0191 82.086C63.0219 82.0381 63.043 81.993 63.0779 81.9601C63.1129 81.9273 63.1591 81.909 63.2071 81.9091C63.257 81.9091 63.3048 81.9289 63.34 81.9641C63.3753 81.9994 63.3951 82.0472 63.3951 82.097C63.3951 83.1254 63.6163 84.6478 64.0917 84.6478C64.7921 84.6478 64.8916 84.1833 64.9875 82.8637C65.0796 81.64 65.2307 79.6311 63.9332 77.954C62.7279 76.3911 58.6549 75.7645 57.8734 75.8308C57.7555 78.9381 57.6744 83.6304 57.9287 84.2018C57.9932 84.3426 58.0893 84.4667 58.2095 84.5645C58.3296 84.6623 58.4707 84.7312 58.6217 84.7657C58.7904 84.8136 58.9671 84.8263 59.1409 84.8028C59.3147 84.7793 59.4818 84.7203 59.6317 84.6293C59.8897 84.4377 60.2399 82.3293 60.4131 80.4863C60.4167 80.4402 60.4371 80.3972 60.4704 80.3652C60.5037 80.3333 60.5476 80.3147 60.5937 80.313Z" fill="#231F20"/>
<path d="M56.2031 82.7052C56.1603 82.7048 56.119 82.69 56.0856 82.6633C56.0522 82.6365 56.0287 82.5994 56.0188 82.5578C55.8536 81.7877 55.4912 81.0738 54.9672 80.4858C54.4432 79.8978 53.7755 79.456 53.0294 79.2035C52.983 79.1878 52.9444 79.1548 52.9215 79.1114C52.8987 79.0681 52.8933 79.0176 52.9065 78.9704C52.9197 78.9231 52.9505 78.8828 52.9926 78.8576C53.0347 78.8324 53.0848 78.8243 53.1326 78.8349C53.9434 79.1071 54.6695 79.5852 55.2401 80.2222C55.8106 80.8593 56.2059 81.6336 56.3874 82.4693C56.394 82.4936 56.3955 82.5189 56.3919 82.5437C56.3884 82.5686 56.3798 82.5924 56.3666 82.6138C56.3535 82.6352 56.3362 82.6537 56.3157 82.6681C56.2951 82.6826 56.2719 82.6927 56.2473 82.6979L56.2031 82.7052Z" fill="#231F20"/>
<path d="M55.2227 72.4766C56.6049 72.0158 57.4674 72.108 58.2562 73.0774C58.5436 73.4645 58.7527 73.904 58.8718 74.3712C59.3104 75.803 59.5072 77.2979 59.4542 78.7944C59.4638 79.0776 59.403 79.3587 59.2773 79.6127C59.1354 79.8118 58.9343 79.961 58.7027 80.0391C58.471 80.1172 58.2206 80.1202 57.9872 80.0476C57.5237 79.8901 57.1215 79.5909 56.8371 79.1925C55.9046 78.0093 55.5876 76.4722 55.2964 74.9941" fill="white"/>
<path d="M58.3302 80.2762C58.1982 80.2763 58.0669 80.259 57.9395 80.2246C57.4332 80.0626 56.9942 79.7389 56.6899 79.3031C55.7058 78.0572 55.3888 76.4464 55.1086 75.0236C55.0999 74.9739 55.1107 74.9226 55.1389 74.8807C55.1671 74.8388 55.2104 74.8094 55.2597 74.7988C55.2842 74.794 55.3094 74.7941 55.3338 74.7991C55.3582 74.8041 55.3814 74.814 55.402 74.828C55.4225 74.8421 55.4401 74.8601 55.4537 74.881C55.4672 74.9019 55.4765 74.9254 55.4809 74.9499C55.7537 76.3285 56.0633 77.8987 56.9885 79.0672C57.2444 79.4365 57.6129 79.7133 58.039 79.856C58.2322 79.9164 58.4394 79.9155 58.6321 79.8535C58.8248 79.7915 58.9936 79.6713 59.1153 79.5095C59.2249 79.2798 59.2755 79.0264 59.2628 78.7723C59.3169 77.2995 59.1238 75.828 58.6914 74.4191C58.5765 73.9769 58.3789 73.5604 58.109 73.1917C57.4087 72.3291 56.6678 72.1891 55.2819 72.6498C55.2584 72.6579 55.2335 72.6613 55.2088 72.6597C55.184 72.6582 55.1598 72.6517 55.1375 72.6408C55.1152 72.6298 55.0953 72.6145 55.079 72.5958C55.0626 72.5771 55.0502 72.5554 55.0423 72.5319C55.0342 72.5079 55.0309 72.4826 55.0327 72.4574C55.0344 72.4321 55.0412 72.4075 55.0525 72.3849C55.0638 72.3623 55.0794 72.3421 55.0986 72.3256C55.1177 72.3091 55.1399 72.2965 55.1639 72.2886C56.4393 71.8647 57.4787 71.8131 58.4039 72.9521C58.7079 73.3573 58.9295 73.8181 59.0563 74.3085C59.4992 75.7584 59.6973 77.272 59.6424 78.787C59.6559 79.1019 59.586 79.4147 59.4397 79.6938C59.3216 79.8792 59.157 80.0304 58.9624 80.1326C58.7678 80.2348 58.5498 80.2842 58.3302 80.2762Z" fill="#231F20"/>
<path d="M69.4581 93.5458H0.990432L0.470703 91.2273H69.9778L69.4581 93.5458Z" fill="white"/>
<path d="M69.458 93.7375H0.990317C0.947378 93.7376 0.905673 93.7231 0.872143 93.6963C0.838612 93.6695 0.815278 93.632 0.806017 93.59L0.282601 91.2679C0.277597 91.2397 0.278283 91.2109 0.284614 91.183C0.290945 91.1552 0.302795 91.1289 0.319463 91.1057C0.337935 91.0836 0.36106 91.0658 0.387187 91.0537C0.413313 91.0416 0.441793 91.0354 0.470588 91.0356H69.9777C70.0065 91.0354 70.035 91.0416 70.0611 91.0537C70.0873 91.0658 70.1104 91.0836 70.1288 91.1057C70.1463 91.1284 70.1587 91.1547 70.165 91.1827C70.1714 91.2107 70.1716 91.2398 70.1657 91.2679L69.6423 93.59C69.633 93.632 69.6097 93.6695 69.5762 93.6963C69.5426 93.7231 69.5009 93.7376 69.458 93.7375ZM1.14513 93.3689H69.3069L69.7418 91.4263H0.706493L1.14513 93.3689Z" fill="#231F20"/>
<path d="M27.9867 34.3558C27.6265 34.3761 27.2691 34.2819 26.9656 34.0867C25.4359 32.9809 26.339 28.6794 26.3796 28.4987C26.3846 28.4745 26.3944 28.4516 26.4084 28.4312C26.4224 28.4107 26.4402 28.3933 26.4609 28.3798C26.4816 28.3662 26.5048 28.3569 26.5291 28.3524C26.5534 28.3478 26.5784 28.3481 26.6026 28.3531C26.6268 28.3582 26.6497 28.368 26.6701 28.382C26.6906 28.3959 26.708 28.4138 26.7215 28.4345C26.7351 28.4552 26.7444 28.4784 26.7489 28.5027C26.7535 28.527 26.7532 28.552 26.7482 28.5762C26.4938 29.752 26.081 32.9809 27.1905 33.7882C28.3 34.5954 31.8754 32.8261 33.1581 32.0779C33.1997 32.0591 33.2468 32.0564 33.2902 32.0703C33.3337 32.0842 33.3704 32.1137 33.3934 32.1532C33.4163 32.1926 33.4238 32.2392 33.4144 32.2838C33.405 32.3285 33.3793 32.368 33.3424 32.3949C33.1729 32.4907 29.955 34.3558 27.9867 34.3558Z" fill="#231F20"/>
<path d="M35.5209 29.9646L33.2328 31.4358C32.8664 31.6714 32.7603 32.1595 32.9959 32.5259C33.2316 32.8923 33.7196 32.9984 34.086 32.7628L36.3742 31.2916C36.7406 31.056 36.8467 30.5679 36.611 30.2015C36.3754 29.835 35.8874 29.729 35.5209 29.9646Z" fill="#231F20"/>
<path d="M33.6627 33.0657C33.5921 33.0657 33.5217 33.0582 33.4526 33.0436C33.2645 33.0028 33.0927 32.9072 32.959 32.7688C32.8252 32.6304 32.7355 32.4555 32.7011 32.2661C32.6668 32.0767 32.6894 31.8814 32.7661 31.7049C32.8428 31.5283 32.9701 31.3785 33.1319 31.2743L35.421 29.7999C35.638 29.6601 35.9017 29.6123 36.154 29.6669C36.4063 29.7215 36.6266 29.8741 36.7664 30.0911C36.9061 30.3081 36.954 30.5718 36.8994 30.8241C36.8448 31.0764 36.6922 31.2967 36.4752 31.4365L34.1861 32.9109C34.0305 33.0123 33.8486 33.0662 33.6627 33.0657ZM35.9481 30.0174C35.8318 30.0173 35.7179 30.0506 35.62 30.1132L33.331 31.5876C33.1991 31.6717 33.1052 31.804 33.0693 31.9562C33.0512 32.0339 33.049 32.1145 33.063 32.1931C33.0769 32.2716 33.1066 32.3466 33.1504 32.4133C33.2335 32.5469 33.3659 32.6422 33.519 32.6787C33.597 32.6954 33.6775 32.6965 33.756 32.682C33.8344 32.6674 33.9092 32.6375 33.976 32.5939L36.2651 31.1195C36.3323 31.0768 36.3904 31.0212 36.436 30.9559C36.4816 30.8905 36.5137 30.8168 36.5305 30.7389C36.5473 30.6611 36.5484 30.5807 36.5339 30.5023C36.5193 30.424 36.4893 30.3494 36.4457 30.2828C36.3621 30.1503 36.2297 30.0563 36.0771 30.0211C36.0344 30.0146 35.9911 30.0134 35.9481 30.0174Z" fill="#231F20"/>
<path d="M38.2491 50.6701C38.6094 50.6701 38.9015 50.378 38.9015 50.0177C38.9015 49.6574 38.6094 49.3653 38.2491 49.3653C37.8888 49.3653 37.5967 49.6574 37.5967 50.0177C37.5967 50.378 37.8888 50.6701 38.2491 50.6701Z" fill="#231F20"/>
<path d="M18.9823 59.8114H18.9417C18.9172 59.807 18.8938 59.7977 18.8729 59.7842C18.852 59.7706 18.834 59.7531 18.8199 59.7325C18.8058 59.7119 18.796 59.6887 18.791 59.6643C18.7859 59.6399 18.7858 59.6147 18.7906 59.5903C18.8127 59.4576 18.9233 58.912 19.0855 58.1158C19.5905 55.6241 20.5267 50.9908 20.888 49.0261C20.8999 48.9799 20.9289 48.9399 20.9693 48.9143C21.0096 48.8887 21.0582 48.8794 21.1051 48.8884C21.152 48.8973 21.1938 48.9237 21.2219 48.9623C21.2501 49.0009 21.2624 49.0488 21.2566 49.0962C20.888 51.0645 19.9591 55.7015 19.4541 58.1933L19.1592 59.6677C19.1495 59.7077 19.127 59.7434 19.095 59.7694C19.0631 59.7954 19.0235 59.8101 18.9823 59.8114Z" fill="#231F20"/>
</svg>
