<svg width="54" height="100" viewBox="0 0 54 100" fill="none" xmlns="http://www.w3.org/2000/svg">
<path d="M3.95972 32.3476C4.50895 31.548 5.13397 30.8032 5.8261 30.1236C5.89921 30.0425 5.99259 29.9823 6.09666 29.9493C6.4039 29.8851 6.58274 30.2795 6.6286 30.5913C6.90415 32.5708 6.65101 34.588 5.89489 36.4381C5.21162 38.1027 4.71178 39.9232 3.0701 40.9275C2.83896 41.0971 2.55264 41.174 2.2676 41.143C2.10816 41.0938 1.96587 41.0005 1.85715 40.874C1.74842 40.7474 1.67769 40.5927 1.65312 40.4276C1.44218 39.3133 0.0252037 40.3864 0.309517 39.3087C0.726815 37.7037 1.79987 36.2913 2.52441 34.8239C2.94184 33.9646 3.42156 33.137 3.95972 32.3476V32.3476Z" fill="#E2E2E2"/>
<path d="M11.9255 0.229492L9.31162 18.4622L1.22705 59.041L3.98305 61.0266L44.4839 61.21L50.615 18.4622L53.0087 1.79321L50.9681 0.229492H11.9255Z" fill="#E2E2E2"/>
<path d="M44.4844 61.4393L3.98358 61.2558C3.9356 61.2546 3.88917 61.2385 3.8506 61.21L1.09918 59.2244C1.06318 59.1993 1.0353 59.1642 1.019 59.1235C1.0027 59.0827 0.998692 59.0381 1.00746 58.9951L9.07829 18.4209L11.6875 0.197328C11.6962 0.142636 11.724 0.0927983 11.766 0.0566897C11.808 0.020581 11.8615 0.000543987 11.9168 0.00014347H50.9594C51.0093 -0.00171732 51.0582 0.0145743 51.097 0.0459997L53.1376 1.60972C53.17 1.63462 53.1952 1.66773 53.2105 1.70562C53.2258 1.74352 53.2307 1.78482 53.2247 1.82525L44.7137 61.2421C44.705 61.2968 44.6772 61.3466 44.6352 61.3827C44.5932 61.4188 44.5398 61.4389 44.4844 61.4393ZM4.05695 60.7973L44.2872 60.9807L52.7616 1.89403L50.8906 0.458713H12.1232L9.53686 18.4988L1.47979 58.9401L4.05695 60.7973Z" fill="#040047"/>
<path d="M48.3533 18.4622H7.04541L9.65925 0.229492H50.9672L48.3533 18.4622Z" fill="#E2E2E2"/>
<path d="M48.354 18.6915H7.04607C7.01322 18.6912 6.98078 18.6842 6.9508 18.6708C6.92081 18.6573 6.89392 18.6379 6.87181 18.6136C6.85022 18.5887 6.83448 18.5593 6.82575 18.5276C6.81702 18.4958 6.81552 18.4625 6.82137 18.4301L9.43521 0.197429C9.44289 0.143119 9.46978 0.0933591 9.51101 0.0571805C9.55223 0.0210018 9.60507 0.000801353 9.65991 0.000244141H50.9678C51.0007 0.000534497 51.0331 0.00760747 51.0631 0.0210224C51.0931 0.0344373 51.12 0.0539038 51.1421 0.0782001C51.1626 0.103676 51.1777 0.133109 51.1864 0.164666C51.1951 0.196223 51.1972 0.229229 51.1925 0.261629L48.5787 18.4989C48.57 18.5524 48.5427 18.6011 48.5016 18.6363C48.4604 18.6716 48.4082 18.6911 48.354 18.6915V18.6915ZM7.31203 18.233H48.1522L50.7019 0.458813H9.86169L7.31203 18.233Z" fill="#040047"/>
<path d="M48.3542 18.4622H7.0463L1.22705 59.041H42.5304L48.3542 18.4622Z" fill="white"/>
<path d="M42.5527 59.2703H1.22645C1.1937 59.2695 1.16142 59.2621 1.13151 59.2488C1.1016 59.2354 1.07464 59.2162 1.0522 59.1923C1.03108 59.1671 1.01531 59.1378 1.00585 59.1063C0.996394 59.0747 0.993442 59.0416 0.99717 59.0089L6.821 18.4301C6.82867 18.3758 6.85557 18.326 6.89679 18.2898C6.93802 18.2537 6.99085 18.2335 7.0457 18.2329H48.3536C48.3862 18.2335 48.4182 18.2413 48.4475 18.2555C48.4768 18.2698 48.5027 18.2902 48.5233 18.3155C48.5457 18.3399 48.5623 18.3691 48.5718 18.4009C48.5813 18.4326 48.5836 18.4661 48.5783 18.4989L42.7591 59.0731C42.7513 59.1241 42.7268 59.1711 42.6895 59.2068C42.6521 59.2425 42.6041 59.2648 42.5527 59.2703ZM1.51535 58.8117H42.3555L48.1106 18.6915H7.24288L1.51535 58.8117Z" fill="#040047"/>
<path d="M45.0787 14.3213H11.5068L12.8734 4.7876H46.4452L45.0787 14.3213Z" fill="white"/>
<path d="M45.0796 14.5323H11.5078C11.4746 14.5311 11.4421 14.5232 11.4121 14.509C11.3821 14.4948 11.3554 14.4746 11.3335 14.4497C11.3131 14.4251 11.2981 14.3964 11.2894 14.3656C11.2807 14.3348 11.2785 14.3026 11.2831 14.2709L12.6588 4.73723C12.6655 4.68252 12.6922 4.63221 12.7336 4.59585C12.775 4.55949 12.8284 4.53963 12.8835 4.54005H46.4553C46.4882 4.54034 46.5206 4.54741 46.5506 4.56083C46.5806 4.57424 46.6075 4.59371 46.6296 4.618C46.6501 4.64348 46.6652 4.67291 46.6739 4.70447C46.6826 4.73602 46.6847 4.76903 46.68 4.80143L45.3043 14.3351C45.2967 14.3894 45.2698 14.4392 45.2285 14.4753C45.1873 14.5115 45.1345 14.5317 45.0796 14.5323ZM11.7738 14.0737H44.8779L46.1802 4.99861H13.0761L11.7738 14.0737Z" fill="#040047"/>
<path d="M15.1897 29.0046H10.4527C10.298 29.0093 10.1444 28.9792 10.0029 28.9167C9.86137 28.8542 9.73566 28.7608 9.63496 28.6434C9.53425 28.526 9.46112 28.3875 9.4209 28.2382C9.38068 28.0888 9.37441 27.9323 9.40254 27.7802L9.79232 25.0701C9.84743 24.7355 10.017 24.4305 10.2722 24.2072C10.5273 23.9839 10.8521 23.8561 11.191 23.8457H15.9555C16.1087 23.845 16.2602 23.8782 16.3991 23.943C16.538 24.0078 16.6607 24.1027 16.7585 24.2207C16.8563 24.3386 16.9267 24.4768 16.9647 24.6253C17.0027 24.7738 17.0073 24.9288 16.9781 25.0793L16.5883 27.7894C16.5321 28.1227 16.3619 28.426 16.1068 28.6477C15.8517 28.8693 15.5275 28.9955 15.1897 29.0046V29.0046Z" fill="#E6E7E8"/>
<path d="M24.0996 29.0047H19.3626C19.2081 29.0095 19.0545 28.9795 18.9132 28.917C18.7718 28.8545 18.6464 28.761 18.546 28.6434C18.4456 28.5259 18.3729 28.3873 18.3333 28.2379C18.2937 28.0885 18.2881 27.9322 18.3171 27.7803L18.7068 25.0794C18.7611 24.7485 18.9274 24.4464 19.1778 24.2235C19.4283 24.0006 19.7477 23.8705 20.0826 23.855H24.8242C24.9799 23.8482 25.1352 23.8767 25.2784 23.9383C25.4216 23.9998 25.5491 24.0929 25.6514 24.2106C25.7536 24.3283 25.828 24.4675 25.869 24.6179C25.9099 24.7684 25.9165 24.9261 25.888 25.0794L25.4983 27.7895C25.4421 28.1227 25.2719 28.4261 25.0167 28.6478C24.7616 28.8694 24.4374 28.9956 24.0996 29.0047V29.0047Z" fill="#E6E7E8"/>
<path d="M33.0093 29.0047H28.2723C28.1178 29.0095 27.9642 28.9796 27.8228 28.917C27.6815 28.8545 27.556 28.761 27.4556 28.6435C27.3553 28.5259 27.2826 28.3874 27.243 28.238C27.2034 28.0886 27.1978 27.9322 27.2267 27.7804L27.6119 25.0702C27.6679 24.736 27.8377 24.4315 28.0927 24.2083C28.3476 23.9852 28.6719 23.8571 29.0106 23.8458H33.7522C33.9073 23.8416 34.0615 23.8723 34.2032 23.9356C34.3449 23.999 34.4706 24.0933 34.5709 24.2117C34.6713 24.3301 34.7438 24.4696 34.783 24.6198C34.8223 24.7699 34.8273 24.927 34.7977 25.0794L34.4079 27.7895C34.3525 28.1232 34.1826 28.427 33.9273 28.6488C33.672 28.8707 33.3474 28.9965 33.0093 29.0047V29.0047Z" fill="#E6E7E8"/>
<path d="M41.9194 29.0047H37.1824C37.0282 29.0086 36.875 28.9781 36.7341 28.9153C36.5932 28.8525 36.4681 28.759 36.3679 28.6417C36.2677 28.5243 36.195 28.3861 36.155 28.2371C36.115 28.0881 36.1088 27.932 36.1369 27.7803L36.5267 25.0702C36.5802 24.739 36.7462 24.4364 36.9968 24.2133C37.2474 23.9903 37.5672 23.8605 37.9024 23.8458H42.644C42.8007 23.8387 42.9569 23.8673 43.1009 23.9294C43.245 23.9915 43.373 24.0855 43.4754 24.2042C43.5779 24.323 43.652 24.4635 43.6923 24.6151C43.7325 24.7666 43.7379 24.9254 43.7079 25.0793L43.3181 27.7895C43.2627 28.1231 43.0927 28.427 42.8375 28.6488C42.5822 28.8706 42.2575 28.9964 41.9194 29.0047Z" fill="#E6E7E8"/>
<path d="M14.3052 35.1678H9.56817C9.41394 35.1717 9.26077 35.1412 9.11985 35.0784C8.97893 35.0156 8.85381 34.9221 8.75362 34.8048C8.65343 34.6874 8.58071 34.5492 8.54074 34.4002C8.50078 34.2512 8.49459 34.0951 8.52263 33.9434L8.91241 31.2333C8.9659 30.9021 9.13193 30.5995 9.38253 30.3764C9.63313 30.1534 9.95297 30.0236 10.2881 30.0089H15.0389C15.1931 30.0049 15.3463 30.0355 15.4872 30.0983C15.6281 30.1611 15.7533 30.2546 15.8534 30.3719C15.9536 30.4892 16.0264 30.6275 16.0663 30.7765C16.1063 30.9255 16.1125 31.0815 16.0844 31.2333L15.6947 33.9434C15.6415 34.2772 15.4737 34.582 15.2201 34.8055C14.9665 35.029 14.643 35.1571 14.3052 35.1678V35.1678Z" fill="#E6E7E8"/>
<path d="M23.2194 35.1678H18.4778C18.3236 35.1717 18.1704 35.1412 18.0295 35.0784C17.8886 35.0156 17.7635 34.9221 17.6633 34.8048C17.5631 34.6874 17.4904 34.5492 17.4504 34.4002C17.4104 34.2512 17.4043 34.0951 17.4323 33.9434L17.8221 31.2333C17.8756 30.9021 18.0416 30.5995 18.2922 30.3764C18.5428 30.1534 18.8626 30.0236 19.1978 30.0089H23.9394C24.0936 30.0049 24.2468 30.0355 24.3877 30.0983C24.5286 30.1611 24.6538 30.2546 24.7539 30.3719C24.8541 30.4892 24.9269 30.6275 24.9668 30.7765C25.0068 30.9255 25.013 31.0815 24.9849 31.2333L24.5951 33.9434C24.5425 34.275 24.3767 34.5781 24.1259 34.8012C23.8752 35.0244 23.5549 35.1539 23.2194 35.1678V35.1678Z" fill="#E6E7E8"/>
<path d="M32.1291 35.1678H27.3875C27.2333 35.1717 27.0801 35.1412 26.9392 35.0784C26.7983 35.0156 26.6731 34.9221 26.573 34.8048C26.4728 34.6874 26.4 34.5492 26.3601 34.4002C26.3201 34.2512 26.3139 34.0951 26.342 33.9434L26.7318 31.2333C26.7852 30.9021 26.9513 30.5995 27.2019 30.3764C27.4525 30.1534 27.7723 30.0236 28.1075 30.0089H32.8491C33.0033 30.0049 33.1565 30.0355 33.2974 30.0983C33.4383 30.1611 33.5634 30.2546 33.6636 30.3719C33.7638 30.4892 33.8365 30.6275 33.8765 30.7765C33.9165 30.9255 33.9226 31.0815 33.8946 31.2333L33.5048 33.9434C33.4522 34.275 33.2864 34.5781 33.0356 34.8012C32.7848 35.0244 32.4645 35.1539 32.1291 35.1678V35.1678Z" fill="#E6E7E8"/>
<path d="M41.0388 35.1678H36.2972C36.1429 35.1717 35.9898 35.1412 35.8489 35.0784C35.7079 35.0156 35.5828 34.9221 35.4826 34.8048C35.3824 34.6874 35.3097 34.5492 35.2697 34.4002C35.2298 34.2512 35.2236 34.0951 35.2516 33.9434L35.6414 31.2333C35.6949 30.9021 35.8609 30.5995 36.1115 30.3764C36.3621 30.1534 36.682 30.0236 37.0171 30.0089H41.7587C41.913 30.0049 42.0661 30.0355 42.2071 30.0983C42.348 30.1611 42.4731 30.2546 42.5733 30.3719C42.6735 30.4892 42.7462 30.6275 42.7862 30.7765C42.8261 30.9255 42.8323 31.0815 42.8043 31.2333L42.4145 33.9434C42.3618 34.275 42.196 34.5781 41.9453 34.8012C41.6945 35.0244 41.3742 35.1539 41.0388 35.1678V35.1678Z" fill="#E6E7E8"/>
<path d="M13.4245 41.3311H8.68291C8.52868 41.3351 8.37552 41.3045 8.2346 41.2417C8.09368 41.1789 7.96856 41.0854 7.86837 40.9681C7.76818 40.8508 7.69545 40.7125 7.65549 40.5635C7.61552 40.4145 7.60934 40.2585 7.63738 40.1067L8.02716 37.3966C8.08064 37.0654 8.24668 36.7628 8.49728 36.5398C8.74788 36.3167 9.06772 36.1869 9.40287 36.1722H14.1445C14.2987 36.1683 14.4519 36.1988 14.5928 36.2616C14.7337 36.3244 14.8588 36.4179 14.959 36.5352C15.0592 36.6526 15.1319 36.7908 15.1719 36.9398C15.2119 37.0888 15.2181 37.2449 15.19 37.3966L14.8002 40.1067C14.7476 40.4383 14.5818 40.7414 14.331 40.9646C14.0802 41.1878 13.7599 41.3173 13.4245 41.3311V41.3311Z" fill="#E6E7E8"/>
<path d="M22.3342 41.3311H17.5926C17.4384 41.3351 17.2852 41.3045 17.1443 41.2417C17.0033 41.1789 16.8782 41.0854 16.778 40.9681C16.6778 40.8508 16.6051 40.7125 16.5652 40.5635C16.5252 40.4145 16.519 40.2585 16.547 40.1067L16.9368 37.3966C16.9911 37.0617 17.1605 36.7562 17.4158 36.5327C17.6711 36.3092 17.9963 36.1817 18.3355 36.1722H23.0725C23.2267 36.1683 23.3799 36.1988 23.5208 36.2616C23.6617 36.3244 23.7868 36.4179 23.887 36.5352C23.9872 36.6526 24.06 36.7908 24.0999 36.9398C24.1399 37.0888 24.1461 37.2449 24.118 37.3966L23.7282 40.1067C23.6749 40.4413 23.5065 40.7467 23.252 40.9703C22.9974 41.1938 22.6728 41.3214 22.3342 41.3311V41.3311Z" fill="#E6E7E8"/>
<path d="M31.2458 41.331H26.5042C26.35 41.335 26.1968 41.3044 26.0559 41.2416C25.915 41.1788 25.7898 41.0853 25.6897 40.968C25.5895 40.8507 25.5167 40.7125 25.4768 40.5634C25.4368 40.4144 25.4306 40.2584 25.4587 40.1067L25.8485 37.3965C25.9027 37.0616 26.0721 36.7561 26.3274 36.5326C26.5827 36.3091 26.9079 36.1816 27.2471 36.1721H32.007C32.1615 36.1673 32.3151 36.1973 32.4565 36.2598C32.5978 36.3224 32.7233 36.4159 32.8237 36.5334C32.924 36.6509 32.9967 36.7895 33.0363 36.9389C33.0759 37.0883 33.0815 37.2447 33.0526 37.3965L32.6674 40.1067C32.6115 40.445 32.4386 40.753 32.1787 40.9767C31.9189 41.2005 31.5887 41.3259 31.2458 41.331V41.331Z" fill="#E6E7E8"/>
<path d="M40.1555 41.331H35.4139C35.2596 41.335 35.1065 41.3044 34.9656 41.2416C34.8246 41.1788 34.6995 41.0853 34.5993 40.968C34.4991 40.8507 34.4264 40.7125 34.3864 40.5634C34.3465 40.4144 34.3403 40.2584 34.3683 40.1067L34.7581 37.3965C34.8132 37.062 34.9828 36.7569 35.238 36.5336C35.4931 36.3103 35.8179 36.1825 36.1568 36.1721H40.8938C41.0483 36.1673 41.2018 36.1973 41.3432 36.2598C41.4845 36.3224 41.61 36.4159 41.7104 36.5334C41.8108 36.6509 41.8834 36.7895 41.9231 36.9389C41.9627 37.0883 41.9682 37.2447 41.9393 37.3965L41.5541 40.1067C41.4998 40.4416 41.3305 40.7471 41.0752 40.9706C40.8199 41.1941 40.4946 41.3215 40.1555 41.331V41.331Z" fill="#E6E7E8"/>
<path d="M12.5393 47.4941H7.79766C7.64343 47.4981 7.49027 47.4675 7.34935 47.4047C7.20843 47.3419 7.0833 47.2484 6.98311 47.1311C6.88292 47.0138 6.8102 46.8755 6.77024 46.7265C6.73027 46.5775 6.72408 46.4215 6.75212 46.2697L7.14191 43.5596C7.19702 43.225 7.36663 42.92 7.62175 42.6967C7.87686 42.4734 8.20164 42.3456 8.54054 42.3352H13.2776C13.432 42.3304 13.5856 42.3604 13.727 42.4229C13.8683 42.4855 13.9938 42.5789 14.0942 42.6965C14.1945 42.814 14.2672 42.9526 14.3068 43.102C14.3465 43.2514 14.352 43.4078 14.3231 43.5596L13.9379 46.2697C13.8836 46.6047 13.7142 46.9102 13.459 47.1337C13.2037 47.3571 12.8784 47.4846 12.5393 47.4941V47.4941Z" fill="#E6E7E8"/>
<path d="M21.4581 47.4942H16.7073C16.5531 47.4981 16.3999 47.4676 16.259 47.4048C16.1181 47.3419 15.993 47.2485 15.8928 47.1311C15.7926 47.0138 15.7199 46.8756 15.6799 46.7266C15.6399 46.5776 15.6338 46.4215 15.6618 46.2698L16.0516 43.5597C16.1059 43.2288 16.2721 42.9267 16.5226 42.7038C16.773 42.4809 17.0924 42.3508 17.4273 42.3353H22.1643C22.3187 42.3315 22.4719 42.3621 22.613 42.4249C22.7541 42.4876 22.8794 42.581 22.98 42.6982C23.0805 42.8154 23.1537 42.9535 23.1942 43.1025C23.2348 43.2515 23.2417 43.4077 23.2144 43.5597L22.8246 46.2698C22.7715 46.5995 22.6068 46.901 22.3581 47.1238C22.1093 47.3467 21.7917 47.4774 21.4581 47.4942V47.4942Z" fill="#E6E7E8"/>
<path d="M30.3606 47.4941H25.6236C25.4689 47.4987 25.3153 47.4687 25.1738 47.4062C25.0323 47.3437 24.9066 47.2503 24.8059 47.1329C24.7052 47.0155 24.632 46.877 24.5918 46.7276C24.5516 46.5783 24.5453 46.4218 24.5734 46.2697L24.9632 43.5596C25.0183 43.225 25.1879 42.92 25.4431 42.6967C25.6982 42.4733 26.023 42.3456 26.3619 42.3352H31.0897C31.2443 42.3305 31.398 42.3606 31.5395 42.4231C31.681 42.4856 31.8067 42.579 31.9074 42.6964C32.0081 42.8138 32.0812 42.9523 32.1215 43.1016C32.1617 43.251 32.168 43.4075 32.1398 43.5596L31.75 46.2697C31.6961 46.6031 31.528 46.9075 31.2746 47.1308C31.0212 47.3541 30.6981 47.4825 30.3606 47.4941Z" fill="#E6E7E8"/>
<path d="M39.2702 47.4941H34.5332C34.3786 47.4987 34.2249 47.4687 34.0834 47.4062C33.9419 47.3437 33.8162 47.2503 33.7155 47.1329C33.6148 47.0155 33.5417 46.877 33.5015 46.7276C33.4612 46.5783 33.455 46.4218 33.4831 46.2697L33.8729 43.5596C33.928 43.225 34.0976 42.92 34.3527 42.6967C34.6078 42.4733 34.9326 42.3456 35.2715 42.3352H40.0085C40.1632 42.3305 40.3168 42.3606 40.4583 42.4231C40.5998 42.4856 40.7255 42.579 40.8262 42.6964C40.9269 42.8138 41.0001 42.9523 41.0403 43.1016C41.0805 43.251 41.0868 43.4075 41.0587 43.5596L40.6689 46.2697C40.6146 46.6046 40.4452 46.9101 40.1899 47.1336C39.9346 47.3571 39.6094 47.4846 39.2702 47.4941V47.4941Z" fill="#E6E7E8"/>
<path d="M21.3069 48.4985H7.65531C7.31641 48.5089 6.99164 48.6367 6.73652 48.86C6.4814 49.0833 6.31179 49.3884 6.25668 49.7229L5.86689 52.4331C5.83876 52.5852 5.84503 52.7416 5.88525 52.891C5.92547 53.0404 5.99862 53.1788 6.09932 53.2962C6.20002 53.4137 6.32572 53.507 6.46722 53.5695C6.60871 53.632 6.7624 53.6621 6.91701 53.6574H20.564C20.8992 53.6427 21.219 53.5129 21.4696 53.2899C21.7202 53.0669 21.8863 52.7642 21.9397 52.4331L22.3295 49.7229C22.3572 49.5731 22.3514 49.4191 22.3128 49.2718C22.2741 49.1244 22.2034 48.9875 22.1058 48.8706C22.0081 48.7537 21.8859 48.6597 21.7479 48.5954C21.6098 48.5311 21.4592 48.498 21.3069 48.4985V48.4985Z" fill="#E6E7E8"/>
<path d="M29.4753 53.6573H24.7383C24.5837 53.6619 24.43 53.6319 24.2885 53.5694C24.147 53.5069 24.0213 53.4135 23.9206 53.2961C23.8199 53.1787 23.7468 53.0402 23.7065 52.8908C23.6663 52.7415 23.66 52.585 23.6882 52.4329L24.078 49.7228C24.1323 49.3919 24.2985 49.0898 24.549 48.8669C24.7994 48.644 25.1188 48.5139 25.4537 48.4984H30.2182C30.3724 48.4944 30.5256 48.525 30.6665 48.5878C30.8074 48.6506 30.9326 48.7441 31.0328 48.8614C31.1329 48.9787 31.2057 49.117 31.2456 49.266C31.2856 49.415 31.2918 49.571 31.2637 49.7228L30.874 52.4329C30.8197 52.7678 30.6503 53.0733 30.395 53.2968C30.1397 53.5203 29.8145 53.6478 29.4753 53.6573V53.6573Z" fill="#E6E7E8"/>
<path d="M38.3848 53.6573H33.6478C33.4933 53.6621 33.3397 53.6321 33.1983 53.5696C33.057 53.507 32.9315 53.4136 32.8311 53.296C32.7308 53.1785 32.6581 53.0399 32.6185 52.8905C32.5788 52.7411 32.5733 52.5847 32.6022 52.4329L32.9874 49.7228C33.0433 49.3886 33.2132 49.0841 33.4681 48.8609C33.7231 48.6377 34.0474 48.5096 34.386 48.4984H39.1277C39.2819 48.4944 39.4351 48.525 39.576 48.5878C39.7169 48.6506 39.842 48.7441 39.9422 48.8614C40.0424 48.9787 40.1151 49.117 40.1551 49.266C40.195 49.415 40.2012 49.571 40.1732 49.7228L39.7834 52.4329C39.73 52.7682 39.5608 53.0742 39.3054 53.2979C39.0499 53.5215 38.7242 53.6487 38.3848 53.6573V53.6573Z" fill="#E6E7E8"/>
<path d="M40.64 6.7869H41.7635C41.9043 6.78113 42.0446 6.80792 42.1735 6.86518C42.3023 6.92244 42.4162 7.00864 42.5063 7.11707C42.599 7.224 42.6666 7.35039 42.7039 7.48691C42.7412 7.62343 42.7473 7.76659 42.7219 7.90581L42.3183 10.7123C42.2668 11.0181 42.1115 11.2969 41.8784 11.5015C41.6454 11.7062 41.3489 11.8242 41.0389 11.8358H39.9154C39.7745 11.8415 39.6342 11.8147 39.5054 11.7575C39.3766 11.7002 39.2627 11.614 39.1725 11.5056C39.08 11.3975 39.0124 11.2704 38.9744 11.1334C38.9363 10.9963 38.9288 10.8525 38.9524 10.7123L39.356 7.90581C39.4059 7.59518 39.5693 7.31412 39.8145 7.11707C40.0398 6.90937 40.3336 6.79184 40.64 6.7869V6.7869ZM41.6075 7.80951C41.6077 7.7469 41.5949 7.68494 41.5702 7.62743C41.5455 7.56992 41.5092 7.51809 41.4637 7.47512C41.4181 7.43216 41.3643 7.39898 41.3054 7.37762C41.2465 7.35626 41.184 7.34718 41.1215 7.35094C40.9662 7.35522 40.8172 7.41338 40.7001 7.51545C40.5829 7.61752 40.5049 7.75714 40.4795 7.9104L40.2043 9.81804L41.6075 7.80951ZM40.0759 10.7994C40.0717 10.9292 40.1176 11.0557 40.2043 11.1525C40.3018 11.2371 40.4286 11.28 40.5574 11.2717C40.7138 11.272 40.8646 11.213 40.9793 11.1066C41.0977 11.0059 41.1758 10.8659 41.1994 10.7123L41.4746 8.80919L40.0759 10.7994Z" fill="#E6E7E8"/>
<path d="M11.5766 26.2349C11.5766 26.2349 4.62014 33.9205 1.22672 37.6991C-0.199428 39.2949 -0.850602 42.9635 1.92374 42.9635C4.69809 42.9635 9.87992 38.3778 11.5537 36.6352C13.2275 34.8927 11.5766 26.2349 11.5766 26.2349Z" fill="#FFE11B"/>
<path d="M27.4287 89.6137L30.0471 95.7035L34.0229 94.4241L31.7989 88.3389L27.4287 89.6137Z" fill="white"/>
<path d="M30.048 95.9328C30.0031 95.9335 29.959 95.9208 29.9214 95.8963C29.8838 95.8718 29.8544 95.8366 29.837 95.7952L27.2186 89.7054C27.2063 89.6754 27.2004 89.6432 27.2012 89.6108C27.2021 89.5784 27.2096 89.5466 27.2234 89.5172C27.2372 89.4879 27.257 89.4618 27.2814 89.4405C27.3058 89.4192 27.3344 89.4032 27.3653 89.3936L31.7355 88.1188C31.7915 88.1025 31.8515 88.1081 31.9035 88.1345C31.9555 88.1609 31.9954 88.2061 32.0152 88.2609L34.2393 94.3461C34.2596 94.404 34.2596 94.4671 34.2393 94.525C34.2252 94.5523 34.2058 94.5766 34.1822 94.5963C34.1585 94.616 34.1312 94.6307 34.1017 94.6396L30.1259 95.9236C30.1009 95.9324 30.0743 95.9355 30.048 95.9328V95.9328ZM27.7551 89.7604L30.1718 95.4238L33.7211 94.2773L31.653 88.6186L27.7551 89.7604Z" fill="#040047"/>
<path d="M30.0479 95.6988C30.0479 95.6988 31.0108 98.9638 31.3364 98.9776C31.662 98.9914 39.5907 97.1892 39.2789 96.3362C38.967 95.4833 34.0236 94.4194 34.0236 94.4194L30.0479 95.6988Z" fill="#040047"/>
<path d="M31.3305 99.2115C31.17 99.2115 30.8398 99.2115 29.8309 95.7722C29.8217 95.7439 29.8182 95.7141 29.8205 95.6844C29.8229 95.6547 29.8312 95.6258 29.8449 95.5994C29.8585 95.5729 29.8773 95.5494 29.9001 95.5303C29.9229 95.5112 29.9493 95.4968 29.9777 95.4879L33.9535 94.2039C33.9927 94.1947 34.0335 94.1947 34.0727 94.2039C35.2604 94.4561 39.1582 95.3595 39.4976 96.2629C39.5205 96.3291 39.5262 96.4 39.5142 96.469C39.5022 96.538 39.4728 96.6028 39.4288 96.6573C38.7134 97.6478 31.7386 99.2115 31.3305 99.2115ZM30.3262 95.8548C30.5926 96.8507 30.9518 97.8195 31.3992 98.7483C32.3164 98.6429 38.6492 97.0883 39.0482 96.3913C38.7914 95.9327 36.2968 95.1486 34.0314 94.6579L30.3262 95.8548Z" fill="#040047"/>
<path d="M7.74301 86.8027L6.16553 93.241L10.1138 94.6122L12.0031 88.4169L7.74301 86.8027Z" fill="white"/>
<path d="M10.1128 94.8415C10.087 94.8459 10.0607 94.8459 10.0349 94.8415L6.09119 93.4658C6.03622 93.4488 5.99009 93.411 5.96266 93.3604C5.93524 93.3099 5.9287 93.2506 5.94444 93.1953L7.52192 86.7753C7.5297 86.7442 7.54393 86.715 7.56367 86.6898C7.58342 86.6645 7.60825 86.6436 7.63656 86.6285C7.66577 86.614 7.69795 86.6064 7.73057 86.6064C7.76319 86.6064 7.79537 86.614 7.82458 86.6285L12.0847 88.2427C12.138 88.2643 12.1815 88.3047 12.2069 88.3563C12.2322 88.4079 12.2377 88.4671 12.2223 88.5224L10.3284 94.7177C10.3195 94.7472 10.3047 94.7745 10.285 94.7982C10.2653 94.8218 10.2411 94.8412 10.2137 94.8553C10.1795 94.8571 10.1453 94.8525 10.1128 94.8415V94.8415ZM6.44428 93.0944L9.9661 94.3188L11.7224 88.5545L7.91171 87.11L6.44428 93.0944Z" fill="#040047"/>
<path d="M6.16609 93.241C6.16609 93.241 4.96923 96.4509 5.22144 96.6344C5.47365 96.8178 12.8979 100.188 13.1547 99.3078C13.4115 98.4274 10.1144 94.6121 10.1144 94.6121L6.16609 93.241Z" fill="#040047"/>
<path d="M12.8282 99.6793C11.1727 99.6793 5.34432 97.0241 5.07834 96.8132C4.95453 96.7123 4.69314 96.5014 5.94962 93.1447C5.97035 93.0886 6.01215 93.0428 6.06611 93.0171C6.12008 92.9914 6.18194 92.9878 6.23852 93.0071L10.1868 94.3828C10.2249 94.3958 10.2584 94.4197 10.2831 94.4516C11.0764 95.3687 13.6444 98.432 13.3739 99.3583C13.3537 99.4252 13.3164 99.4858 13.2658 99.534C13.2152 99.5823 13.1528 99.6165 13.085 99.6334C13.0023 99.6621 12.9156 99.6775 12.8282 99.6793V99.6793ZM5.4131 96.4693C6.19267 96.9279 12.2045 99.5142 12.9382 99.2207C13.0116 98.6979 11.4846 96.561 9.97587 94.8139L6.30731 93.5344C5.91887 94.488 5.61803 95.4749 5.40852 96.483L5.4131 96.4693Z" fill="#040047"/>
<path d="M24.8935 50.2043C24.8935 50.2043 32.116 79.9013 33.9136 91.205L28.4108 93.7638C28.4108 93.7638 20.4821 74.0454 17.7261 67.043C17.7261 67.043 15.2865 85.8994 12.2233 91.3472L6.21143 90.43C6.21143 90.43 9.04538 76.3061 9.53605 65.0895C10.0267 53.8729 9.87081 51.2591 9.87081 51.2591L24.8935 50.2043Z" fill="#040047"/>
<path d="M28.4073 93.993C28.3785 93.9978 28.349 93.9978 28.3202 93.993C28.2909 93.982 28.2643 93.9648 28.2421 93.9427C28.22 93.9205 28.2028 93.8939 28.1918 93.8646C28.1184 93.672 20.8088 75.476 17.8327 67.9601C17.3099 71.7753 15.1271 86.6559 12.4124 91.4709C12.3892 91.511 12.3546 91.5434 12.3129 91.5638C12.2713 91.5842 12.2245 91.5918 12.1785 91.5855L6.1667 90.6684C6.13557 90.6637 6.10571 90.6527 6.07892 90.6362C6.05213 90.6196 6.02895 90.5978 6.01079 90.5721C5.97784 90.5187 5.96484 90.4553 5.9741 90.3933C6.00161 90.2557 8.81265 76.1776 9.29414 65.0894C9.77564 54.0012 9.6289 51.3048 9.6289 51.2819C9.6264 51.252 9.62991 51.2219 9.63923 51.1934C9.64854 51.1649 9.66346 51.1385 9.68312 51.1159C9.70278 51.0932 9.72678 51.0748 9.75369 51.0615C9.78061 51.0483 9.8099 51.0406 9.83984 51.0388L24.8763 49.975C24.9308 49.9711 24.9849 49.9863 25.0293 50.0182C25.0737 50.05 25.1056 50.0964 25.1194 50.1492C25.1882 50.4473 32.3648 79.9837 34.1394 91.1682C34.1479 91.2173 34.14 91.2677 34.1167 91.3117C34.0935 91.3557 34.0563 91.3907 34.011 91.4113L28.5082 93.9747C28.4763 93.9881 28.4419 93.9943 28.4073 93.993V93.993ZM17.7226 66.809C17.7691 66.8093 17.8144 66.8235 17.8528 66.8496C17.8911 66.8757 17.9209 66.9127 17.9382 66.9558C20.5016 73.4583 27.6415 91.26 28.5265 93.4519L33.6625 91.0628C31.9199 80.2451 25.3303 52.9786 24.7158 50.4381L10.0921 51.4745C10.1196 52.3183 10.1608 55.7163 9.75271 65.1032C9.29414 75.421 6.8408 88.3435 6.46936 90.2465L12.0868 91.1132C15.0675 85.6104 17.475 67.2172 17.4979 67.0337C17.5038 66.9835 17.5265 66.9367 17.5623 66.9009C17.598 66.8651 17.6449 66.8424 17.6951 66.8366L17.7226 66.809Z" fill="#040047"/>
<path d="M35.2383 31.0406C35.2383 31.0406 36.9166 29.133 37.0726 28.9816C37.2285 28.8303 37.3615 27.4408 38.1639 27.0098C38.5205 26.7928 38.9112 26.6377 39.3195 26.5512C39.3195 26.5512 41.5528 24.4235 41.8554 24.7903C42.1581 25.1572 40.5944 26.8722 40.5944 26.8722C40.5944 26.8722 41.3831 28.1287 40.9612 29.2339C40.5393 30.339 39.9386 31.0681 39.2462 31.224C38.5537 31.38 36.7149 34.0947 36.7149 34.0947L35.2383 31.0406Z" fill="white"/>
<path d="M36.724 34.3011C36.6839 34.2989 36.6453 34.2858 36.6121 34.2631C36.579 34.2405 36.5527 34.2093 36.536 34.1727L35.0457 31.1324C35.0248 31.0918 35.0172 31.0457 35.0238 31.0005C35.0303 30.9553 35.0508 30.9133 35.0823 30.8802C35.252 30.683 36.7699 28.9588 36.9166 28.8029L37.0037 28.5048C37.1551 28.0004 37.4073 27.1291 38.0539 26.7989C38.4165 26.5943 38.8052 26.4401 39.2095 26.3404C39.8377 25.7442 41.2455 24.5061 41.7729 24.5061C41.8231 24.5077 41.8723 24.52 41.9174 24.5421C41.9625 24.5642 42.0023 24.5957 42.0342 24.6345C42.369 25.0472 41.6169 26.0607 40.8741 26.8907C41.0849 27.2514 41.2201 27.6513 41.2713 28.066C41.3226 28.4807 41.2888 28.9015 41.1721 29.3027C40.7136 30.5271 40.0578 31.2608 39.2966 31.4351C38.8747 31.5314 37.6457 33.1134 36.9074 34.1865C36.8887 34.2192 36.8621 34.2468 36.8301 34.2668C36.7981 34.2868 36.7617 34.2986 36.724 34.3011ZM35.5134 31.0912L36.7607 33.6408C37.3156 32.8475 38.572 31.1462 39.2049 30.9994C39.8377 30.8527 40.3513 30.2107 40.7548 29.1652C41.1309 28.1792 40.4155 27.0191 40.4063 27.0053C40.3811 26.9625 40.3701 26.9127 40.3751 26.8632C40.38 26.8138 40.4006 26.7671 40.4338 26.7302C40.9314 26.2269 41.3462 25.6481 41.6628 25.0151C40.8666 25.4934 40.1346 26.0713 39.4846 26.7348C39.4477 26.7683 39.4012 26.7892 39.3516 26.7944C38.9735 26.89 38.6129 27.0447 38.2831 27.2529C37.8017 27.5097 37.5861 28.248 37.4531 28.6883C37.4243 28.8725 37.3485 29.0462 37.233 29.1927C37.1275 29.2385 36.16 30.3299 35.5134 31.0682V31.0912Z" fill="#040047"/>
<path d="M14.0931 23.9742C13.2195 24.3199 12.268 24.4198 11.3417 24.2631C10.9231 24.2073 10.5322 24.023 10.2228 23.7357C10.0726 23.5891 9.9736 23.3979 9.94056 23.1906C9.90752 22.9833 9.94216 22.7708 10.0393 22.5847C9.80834 22.5977 9.57757 22.5554 9.36621 22.4613C9.15485 22.3672 8.96901 22.224 8.82413 22.0436C8.53596 21.6809 8.35206 21.2465 8.29219 20.7871C8.21467 20.4971 8.21319 20.192 8.28788 19.9012C8.36258 19.6105 8.51095 19.3439 8.71866 19.1271C8.26009 18.8932 7.76025 18.5952 7.64561 18.0953C7.60527 17.8416 7.6273 17.582 7.70981 17.3387C7.83463 16.8464 8.00662 16.3673 8.22341 15.908C8.33805 15.6649 8.51689 15.3898 8.78744 15.3898C8.60188 14.9382 8.54648 14.4437 8.62753 13.9623C8.70858 13.4809 8.92283 13.0318 9.24601 12.6659C9.56177 12.2961 9.99326 12.044 10.4704 11.9505C10.9797 11.9378 11.4892 11.97 11.9928 12.0468C12.2464 11.7222 12.5728 11.4618 12.9456 11.2865C13.3184 11.1113 13.7272 11.0261 14.1389 11.0379C14.4583 11.0879 14.7583 11.2228 15.0076 11.4285C15.2569 11.6342 15.4463 11.9032 15.5559 12.2073C16.1252 12.1214 16.7064 12.1637 17.2572 12.3311C17.5319 12.4143 17.7845 12.558 17.9964 12.7517C18.2082 12.9453 18.374 13.1839 18.4816 13.45C18.5819 13.7198 18.5889 14.0154 18.5017 14.2897C18.4144 14.5639 18.2378 14.8011 18.0001 14.9633C18.3321 15.0146 18.6338 15.1857 18.8484 15.4442C19.063 15.7027 19.1755 16.0308 19.1649 16.3665C19.1373 16.7001 19.0109 17.018 18.8018 17.2794C18.5927 17.5407 18.3104 17.7338 17.9909 17.8339C17.8985 17.8528 17.812 17.8937 17.7387 17.9532C17.6696 18.0472 17.6269 18.1581 17.6149 18.2742C17.514 18.6319 17.1838 18.7924 17.0234 19.095C16.8327 19.5527 16.6794 20.025 16.5648 20.5074C16.4172 20.9601 16.2442 21.4041 16.0466 21.8373C15.8868 22.3528 15.6716 22.8494 15.4046 23.3184C15.1249 23.7036 14.8085 23.6991 14.3866 23.855L14.0931 23.9742Z" fill="white"/>
<path d="M12.168 24.5749C11.8769 24.5743 11.5866 24.5451 11.3013 24.4877C10.835 24.4266 10.4 24.2195 10.0585 23.8962C9.92036 23.7525 9.81738 23.5788 9.7577 23.3886C9.69803 23.1985 9.68327 22.997 9.71461 22.8002C9.29888 22.7325 8.92131 22.5177 8.65074 22.1949C8.33424 21.7979 8.13137 21.3224 8.06376 20.8192C8.00037 20.5408 7.99327 20.2526 8.04288 19.9715C8.0925 19.6903 8.19782 19.4219 8.35266 19.1821C8.13555 19.0835 7.94166 18.9402 7.78363 18.7617C7.6256 18.5831 7.50699 18.3732 7.43552 18.1457C7.38604 17.8547 7.40647 17.556 7.49514 17.2744C7.62715 16.7715 7.80522 16.2819 8.02708 15.8116C8.11873 15.5787 8.27856 15.3789 8.48565 15.2384C8.34515 14.7722 8.32573 14.2779 8.42923 13.8021C8.53273 13.3263 8.75573 12.8848 9.0772 12.5191C9.43236 12.1069 9.91779 11.8286 10.4529 11.7303C10.9446 11.7117 11.4371 11.7347 11.9249 11.7991C12.2067 11.4712 12.5599 11.2123 12.9574 11.0422C13.3548 10.8721 13.786 10.7953 14.2178 10.8178C14.548 10.8688 14.8607 11 15.1285 11.1999C15.3963 11.3997 15.611 11.6622 15.754 11.9642C16.2997 11.9022 16.8524 11.9538 17.3773 12.1155C17.6874 12.2088 17.9723 12.3711 18.2106 12.5903C18.4488 12.8096 18.6343 13.08 18.753 13.3812C18.8392 13.6282 18.8629 13.8927 18.8221 14.1512C18.7813 14.4096 18.6772 14.6539 18.5191 14.8624C18.8009 15.0015 19.037 15.2183 19.1996 15.4873C19.3621 15.7562 19.4442 16.0661 19.4363 16.3802C19.4089 16.7619 19.2668 17.1263 19.0287 17.4258C18.7906 17.7253 18.4675 17.9459 18.1018 18.0586C18.047 18.0698 17.9943 18.09 17.9459 18.1182C17.9201 18.1635 17.903 18.2133 17.8955 18.265V18.3383C17.8202 18.563 17.6893 18.7649 17.5149 18.9253C17.4255 19.0088 17.3483 19.1045 17.2856 19.2096C17.152 19.5035 17.0506 19.811 16.9829 20.1267C16.9417 20.2918 16.9004 20.4523 16.8545 20.5853C16.7023 21.0526 16.5263 21.5117 16.3272 21.961C16.2538 22.1215 16.1988 22.2912 16.1392 22.4609C16.0352 22.8231 15.8809 23.1689 15.6806 23.4881C15.4731 23.7622 15.1704 23.9487 14.8322 24.0108L14.5571 24.1025L14.2315 24.2172C13.5694 24.4544 12.8713 24.5754 12.168 24.5749V24.5749ZM10.0402 22.3554C10.0794 22.3542 10.1182 22.3634 10.1528 22.3819C10.1874 22.4004 10.2166 22.4276 10.2374 22.4609C10.2611 22.4978 10.2737 22.5408 10.2737 22.5847C10.2737 22.6286 10.2611 22.6715 10.2374 22.7085C10.1686 22.8517 10.1467 23.0129 10.1746 23.1693C10.2026 23.3257 10.2791 23.4693 10.3933 23.5798C10.6706 23.8331 11.0201 23.9934 11.393 24.0383C12.2799 24.1833 13.1896 24.085 14.0252 23.754V23.754L14.337 23.644C14.447 23.6027 14.5479 23.5752 14.6442 23.5431C14.8835 23.5065 15.0999 23.3802 15.2495 23.19C15.4305 22.9057 15.5695 22.5968 15.6623 22.2728C15.7265 22.0894 15.7907 21.9106 15.864 21.7409C16.056 21.3143 16.2259 20.8781 16.373 20.434C16.4189 20.2918 16.4602 20.1405 16.5014 19.9754C16.5748 19.6306 16.6871 19.2952 16.8362 18.9757C16.9214 18.8331 17.0246 18.7021 17.1434 18.586C17.2616 18.4806 17.3528 18.3486 17.4094 18.2008V18.1366C17.4291 18.004 17.4864 17.8799 17.5745 17.7789C17.6645 17.6957 17.7755 17.6386 17.8955 17.6138C18.1748 17.5333 18.424 17.3718 18.6117 17.1499C18.7994 16.9279 18.9172 16.6553 18.9502 16.3665C18.9587 16.0906 18.8674 15.8209 18.693 15.6069C18.5186 15.3929 18.2729 15.2491 18.001 15.2017C17.9528 15.1968 17.9074 15.1767 17.8713 15.1444C17.8352 15.1121 17.8103 15.0692 17.8001 15.0218C17.7899 14.9745 17.795 14.9251 17.8146 14.8808C17.8342 14.8365 17.8673 14.7995 17.9092 14.7752C18.0989 14.6385 18.2387 14.4436 18.3074 14.2201C18.3762 13.9966 18.37 13.7568 18.2899 13.5371C18.1945 13.3029 18.0478 13.0931 17.8604 12.9233C17.6731 12.7534 17.45 12.6278 17.2076 12.5558C16.6889 12.4014 16.1427 12.3623 15.6072 12.4411C15.5556 12.4472 15.5034 12.4356 15.4592 12.4081C15.415 12.3806 15.3815 12.3389 15.3642 12.2898C15.2681 12.0238 15.1018 11.7888 14.8831 11.6096C14.6643 11.4304 14.4011 11.3137 14.1215 11.2718C13.7506 11.2646 13.3832 11.3437 13.0481 11.5029C12.7131 11.6621 12.4196 11.8969 12.1909 12.1889C12.1579 12.2331 12.1104 12.2643 12.0567 12.2769C12.003 12.2895 11.9466 12.2827 11.8974 12.2577C11.4406 12.2075 10.9813 12.183 10.5217 12.1843C10.0948 12.2696 9.70887 12.4957 9.42571 12.8263C9.1272 13.156 8.92623 13.5621 8.84525 13.9994C8.76427 14.4367 8.80647 14.8879 8.96714 15.3026C8.98411 15.3368 8.99295 15.3745 8.99295 15.4127C8.99295 15.4508 8.98411 15.4885 8.96714 15.5227C8.94603 15.5536 8.91808 15.5791 8.88547 15.5974C8.85286 15.6157 8.81648 15.6262 8.77914 15.6282C8.63239 15.6282 8.4994 15.8391 8.41686 16.018C8.20923 16.4606 8.04194 16.921 7.91702 17.3937C7.84511 17.6028 7.82466 17.8262 7.85741 18.0448C7.94912 18.4484 8.39852 18.7098 8.81123 18.9253C8.84532 18.9422 8.87456 18.9675 8.89622 18.9987C8.91788 19.03 8.93124 19.0663 8.93505 19.1041C8.93912 19.142 8.9337 19.1802 8.91929 19.2155C8.90488 19.2507 8.88193 19.2818 8.8525 19.3059C8.39393 19.6865 8.45355 20.4432 8.50399 20.7458C8.55775 21.1659 8.72412 21.5636 8.98549 21.8968C9.10642 22.0488 9.26188 22.1697 9.43895 22.2494C9.61602 22.3292 9.80958 22.3655 10.0035 22.3554H10.0402Z" fill="#040047"/>
<path d="M17.9517 18.2603C17.9517 18.2603 19.841 19.6635 19.7309 20.1404C19.6208 20.6173 18.7083 20.6632 18.7083 20.6632" fill="white"/>
<path d="M18.7081 20.8925C18.6493 20.8937 18.5923 20.8719 18.5494 20.8316C18.5065 20.7913 18.4812 20.7357 18.4788 20.677C18.4769 20.6468 18.4811 20.6166 18.4909 20.5881C18.5007 20.5596 18.5161 20.5333 18.5361 20.5107C18.5561 20.4881 18.5804 20.4697 18.6076 20.4565C18.6347 20.4433 18.6642 20.4357 18.6943 20.4339C19.0016 20.4339 19.4785 20.2963 19.5289 20.0854C19.5794 19.8745 18.7081 19.1178 17.8139 18.4437C17.7898 18.4257 17.7695 18.403 17.7542 18.3771C17.7388 18.3512 17.7287 18.3225 17.7245 18.2927C17.7202 18.2629 17.7219 18.2326 17.7293 18.2034C17.7368 18.1742 17.75 18.1468 17.768 18.1227C17.8045 18.0741 17.8588 18.0419 17.919 18.0333C17.9792 18.0247 18.0404 18.0404 18.089 18.0769C18.8411 18.6363 20.0838 19.6498 19.9508 20.1909C19.8041 20.8145 18.809 20.8879 18.6989 20.8925H18.7081Z" fill="#040047"/>
<path d="M16.0934 14.3672C16.2334 14.3918 16.361 14.4629 16.4556 14.569C16.8076 14.9276 17.0891 15.3492 17.2856 15.8117C17.7107 16.7039 18.0768 17.623 18.3816 18.5631C18.8188 19.7859 19.2269 21.0256 19.606 22.2821C19.8445 23.0754 17.8405 23.8229 17.4003 23.722L18.831 26.6798C18.831 26.6798 17.9597 27.2943 16.0796 27.1383C14.1995 26.9824 14.0252 26.5972 14.0252 26.5972L12.8696 23.002C12.8696 23.002 14.2041 22.5435 14.415 20.6588C14.3932 20.3283 14.4039 19.9966 14.4471 19.6682C14.5572 19.3289 14.8598 19.1546 14.9057 18.7511C14.9178 18.5649 14.8864 18.3785 14.814 18.2066C14.7415 18.0347 14.6301 17.882 14.4884 17.7606C14.4242 17.7102 14.3462 17.646 14.3646 17.5634C14.3772 17.5177 14.4046 17.4774 14.4425 17.4488C14.5337 17.3497 14.6042 17.2334 14.65 17.1068C14.6957 16.9801 14.7157 16.8456 14.7089 16.7111C14.7021 16.5767 14.6685 16.4449 14.6102 16.3235C14.5518 16.2021 14.4699 16.0936 14.3691 16.0043C14.8782 15.8163 15.0295 15.188 15.1074 14.6515C15.0845 14.8166 15.9191 14.3993 15.9329 14.3947C15.9849 14.3784 16.0389 14.3691 16.0934 14.3672Z" fill="white"/>
<path d="M16.6809 27.372C16.4837 27.372 16.2728 27.3721 16.0435 27.3445C14.2734 27.1932 13.8791 26.8493 13.8011 26.6613L12.6409 23.0477C12.6219 22.9918 12.6256 22.9306 12.6513 22.8773C12.6771 22.8241 12.7228 22.7832 12.7785 22.7634C12.829 22.7634 13.9845 22.3049 14.1542 20.6082C14.1634 20.4876 14.1634 20.3665 14.1542 20.2459C14.1327 20.0209 14.1529 19.794 14.2138 19.5764C14.2719 19.4256 14.3506 19.2836 14.4477 19.1545C14.5613 19.027 14.6305 18.8661 14.6449 18.6959C14.6554 18.5456 14.6301 18.3949 14.5711 18.2562C14.5121 18.1175 14.4211 17.9947 14.3055 17.898C14.2487 17.8685 14.2001 17.8253 14.1641 17.7723C14.1281 17.7193 14.106 17.6581 14.0996 17.5944C14.0932 17.5307 14.1028 17.4663 14.1276 17.4072C14.1523 17.3482 14.1914 17.2962 14.2413 17.256C14.3113 17.1802 14.3657 17.0913 14.4013 16.9945C14.4369 16.8976 14.453 16.7947 14.4487 16.6916C14.4445 16.5885 14.4199 16.4873 14.3765 16.3937C14.333 16.3001 14.2715 16.216 14.1955 16.1463C14.1643 16.1206 14.1402 16.0872 14.1258 16.0494C14.1113 16.0116 14.1069 15.9707 14.1129 15.9307C14.1189 15.8904 14.1357 15.8525 14.1615 15.821C14.1874 15.7895 14.2213 15.7656 14.2597 15.7519C14.6541 15.6097 14.7825 15.0503 14.8512 14.5826C14.8551 14.5525 14.8651 14.5235 14.8804 14.4973C14.8958 14.4712 14.9164 14.4484 14.9408 14.4304C14.9652 14.4124 14.993 14.3996 15.0226 14.3926C15.0521 14.3857 15.0827 14.3848 15.1126 14.39C15.1384 14.395 15.1632 14.4043 15.186 14.4175C15.3849 14.3505 15.5781 14.2677 15.7638 14.1698L15.8372 14.1423C15.9245 14.1146 16.0163 14.1037 16.1077 14.1102V14.1102C16.2979 14.136 16.4739 14.2248 16.6076 14.3624C16.9816 14.7407 17.2818 15.1855 17.4926 15.6739C17.8819 16.4893 18.2188 17.3287 18.5015 18.1869L18.5977 18.4575C19.0563 19.6818 19.4461 20.9383 19.8267 22.1856C19.8642 22.3317 19.8604 22.4853 19.8159 22.6294C19.7714 22.7735 19.6878 22.9024 19.5745 23.0019C19.0618 23.4745 18.4259 23.7925 17.7402 23.919L19.0196 26.565C19.0435 26.6133 19.0493 26.6686 19.0358 26.7208C19.0223 26.773 18.9906 26.8186 18.9463 26.8493C18.2579 27.2397 17.4708 27.4214 16.6809 27.372V27.372ZM14.2184 26.4549C14.2826 26.5099 14.6541 26.753 16.0848 26.8768C16.9136 26.9816 17.7554 26.871 18.529 26.5558L17.1945 23.8044C17.1752 23.7655 17.1673 23.7219 17.1717 23.6786C17.1762 23.6354 17.1929 23.5943 17.2198 23.5602C17.2467 23.5261 17.2827 23.5003 17.3237 23.4859C17.3647 23.4715 17.409 23.469 17.4513 23.4788C18.1144 23.416 18.7405 23.1447 19.2397 22.7038C19.3681 22.5617 19.4186 22.4378 19.3865 22.3324C19.0105 21.0897 18.5978 19.8423 18.1667 18.6225L18.0704 18.352C17.7925 17.5177 17.4632 16.7014 17.0845 15.9078C16.895 15.473 16.6294 15.0755 16.3003 14.7339C16.1811 14.6284 16.1306 14.5963 16.0756 14.5917C16.0206 14.5871 16.0756 14.5917 16.0756 14.5917C16.0422 14.5863 16.0081 14.5863 15.9747 14.5917C15.7534 14.7081 15.5215 14.8033 15.2823 14.876C15.238 15.3198 15.0363 15.7329 14.7137 16.0408C14.8376 16.2313 14.9089 16.4512 14.92 16.6782C14.9306 16.8381 14.9088 16.9984 14.8561 17.1497C14.8033 17.301 14.7205 17.4401 14.6128 17.5587V17.5587C14.7822 17.7026 14.9156 17.8841 15.0024 18.0887C15.0891 18.2933 15.1269 18.5154 15.1126 18.7372C15.0897 18.9836 14.9921 19.2172 14.8329 19.4067C14.7603 19.4985 14.7016 19.6005 14.6586 19.7094C14.6298 19.8763 14.6298 20.0469 14.6586 20.2138C14.6686 20.3665 14.6686 20.5197 14.6586 20.6724C14.6304 21.1708 14.4791 21.6546 14.2182 22.0803C13.9573 22.506 13.595 22.8604 13.1637 23.1119L14.2184 26.4549Z" fill="#040047"/>
<path d="M19.2438 21.3786C18.9306 21.5681 18.5601 21.6398 18.1988 21.581C17.8375 21.5222 17.5089 21.3366 17.272 21.0576" fill="white"/>
<path d="M18.4594 21.8326C18.2001 21.8312 17.9438 21.7758 17.707 21.67C17.4702 21.5642 17.2579 21.4103 17.0837 21.2181C17.0412 21.1744 17.0177 21.1155 17.0186 21.0544C17.0194 20.9933 17.0445 20.9351 17.0883 20.8926C17.1321 20.85 17.191 20.8266 17.252 20.8274C17.3131 20.8283 17.3713 20.8534 17.4139 20.8971C17.6123 21.1387 17.8907 21.3011 18.1987 21.355C18.5066 21.4088 18.8236 21.3505 19.0923 21.1906C19.1168 21.1734 19.1446 21.1612 19.1739 21.1549C19.2032 21.1485 19.2335 21.1481 19.263 21.1537C19.2925 21.1592 19.3206 21.1706 19.3456 21.1872C19.3706 21.2038 19.3921 21.2252 19.4087 21.2502C19.426 21.2752 19.4383 21.3033 19.4447 21.333C19.4511 21.3627 19.4515 21.3933 19.446 21.4232C19.4404 21.4531 19.429 21.4815 19.4124 21.5069C19.3957 21.5324 19.3742 21.5542 19.349 21.5712C19.0824 21.7391 18.7745 21.8295 18.4594 21.8326Z" fill="#040047"/>
<path d="M15.8829 19.9021C15.7368 19.609 15.5132 19.3616 15.2364 19.1867C15.0401 19.0237 14.8206 18.8908 14.5852 18.7923C14.4678 18.7437 14.3411 18.7218 14.2142 18.7281C14.0873 18.7345 13.9634 18.7689 13.8515 18.829C13.7589 18.8923 13.6808 18.9744 13.6223 19.0701C13.5638 19.1657 13.5263 19.2727 13.5121 19.3839C13.4828 19.6075 13.5047 19.8349 13.5763 20.0488C13.7239 20.5178 13.9923 20.9397 14.3545 21.2721C14.7167 21.6045 15.16 21.8358 15.6399 21.9427L15.5482 21.8923" fill="white"/>
<path d="M15.6389 22.1721H15.593C15.0734 22.0552 14.5937 21.8039 14.2018 21.4434C13.8098 21.0829 13.5195 20.6257 13.3598 20.1177C13.2755 19.8718 13.2488 19.6097 13.2818 19.3519C13.3031 19.2075 13.3551 19.0694 13.4342 18.9468C13.5133 18.8242 13.6177 18.72 13.7404 18.6411C13.8788 18.5626 14.0333 18.5165 14.1921 18.5061C14.3509 18.4958 14.5101 18.5216 14.6575 18.5815C14.9153 18.6856 15.1551 18.8295 15.3683 19.0079C15.6816 19.2066 15.9327 19.4895 16.0928 19.8242C16.1147 19.8814 16.113 19.9449 16.0881 20.0008C16.0631 20.0567 16.017 20.1004 15.9599 20.1223C15.9316 20.1331 15.9014 20.1383 15.8711 20.1374C15.8408 20.1366 15.811 20.1299 15.7833 20.1175C15.7274 20.0926 15.6837 20.0464 15.6618 19.9893C15.5319 19.7349 15.3334 19.522 15.0886 19.3748C14.9133 19.2238 14.7152 19.1015 14.5016 19.0125C14.4187 18.9723 14.3278 18.9515 14.2356 18.9515C14.1435 18.9515 14.0526 18.9723 13.9697 19.0125C13.9038 19.0571 13.8483 19.1155 13.8072 19.1835C13.766 19.2516 13.7401 19.3278 13.7312 19.4069C13.7106 19.597 13.7309 19.7893 13.7908 19.9709C13.9161 20.371 14.1368 20.7345 14.434 21.0302C14.7313 21.3258 15.096 21.5446 15.4967 21.6676C15.5471 21.6498 15.6022 21.6498 15.6526 21.6676L15.7443 21.7135C15.7936 21.7399 15.8319 21.7831 15.8521 21.8353C15.8722 21.8874 15.8731 21.9451 15.8544 21.9978C15.8424 22.0464 15.8149 22.0897 15.7759 22.1212C15.737 22.1527 15.6889 22.1705 15.6389 22.1721Z" fill="#040047"/>
<path d="M17.4006 23.7037C16.7354 23.7363 16.0749 23.5771 15.4976 23.2451C15.4976 23.2451 16.245 25.0794 18.0426 25.0473L17.4006 23.7037Z" fill="#040047"/>
<path d="M17.9783 25.2674C16.0936 25.2674 15.314 23.4056 15.2819 23.3231C15.2615 23.2775 15.2572 23.2264 15.2697 23.178C15.2822 23.1297 15.3108 23.0871 15.3507 23.0571C15.3904 23.0273 15.4386 23.0112 15.4883 23.0112C15.5379 23.0112 15.5861 23.0273 15.6258 23.0571C16.1596 23.3727 16.7714 23.5316 17.3913 23.5157C17.436 23.5126 17.4807 23.5232 17.5192 23.5461C17.5577 23.5691 17.5883 23.6033 17.6069 23.6441L18.2488 24.9372C18.2669 24.9711 18.2764 25.0089 18.2764 25.0473C18.2764 25.0857 18.2669 25.1235 18.2488 25.1573C18.2305 25.1911 18.2033 25.2191 18.1701 25.2385C18.137 25.2579 18.0992 25.2679 18.0608 25.2674H17.9783ZM16.0661 23.7679C16.2514 24.0348 16.4879 24.2622 16.7618 24.437C17.0358 24.6117 17.3417 24.7303 17.6619 24.7859L17.2583 23.9513C16.854 23.95 16.4521 23.8881 16.0661 23.7679V23.7679Z" fill="#040047"/>
<path d="M16.8294 18.0081C16.9258 17.9771 16.9398 17.7526 16.8607 17.5067C16.7815 17.2608 16.6392 17.0866 16.5428 17.1176C16.4463 17.1487 16.4323 17.3732 16.5115 17.6191C16.5906 17.865 16.7329 18.0392 16.8294 18.0081Z" fill="#040047"/>
<path d="M20.4646 25.3866C19.8913 24.9785 13.3567 23.3689 11.5775 26.235C9.79823 29.1011 7.74843 47.9712 8.85817 52.5523L25.7656 50.2044C25.7656 50.2044 23.6333 27.6245 20.4646 25.3866Z" fill="#FFE11B"/>
<path d="M19.6929 34.7414C19.6929 34.7414 23.1642 39.5885 27.5757 39.4097C31.9871 39.2308 38.7235 32.5907 38.7235 32.5907L36.1326 29.5413C36.1326 29.5413 32.0926 33.0906 29.6026 32.7512C26.1266 32.2606 21.3483 26.2441 21.3483 26.2441L19.6929 34.7414Z" fill="#FFE11B"/>
<path d="M27.5308 39.7536C25.7745 39.7536 23.8027 38.9969 21.7208 37.5112C20.2987 36.4789 18.9974 35.2898 17.8413 33.9664C17.8178 33.9442 17.7993 33.9173 17.7869 33.8875C17.7746 33.8576 17.7687 33.8255 17.7696 33.7932C17.7706 33.761 17.7783 33.7292 17.7923 33.7001C17.8064 33.6711 17.8264 33.6453 17.8511 33.6245C17.8758 33.6037 17.9047 33.5883 17.9357 33.5794C17.9668 33.5705 17.9993 33.5683 18.0313 33.5729C18.0633 33.5775 18.0939 33.5887 18.1212 33.606C18.1485 33.6232 18.1719 33.646 18.1898 33.6729C18.254 33.7463 24.4951 41.1018 29.5669 38.8823C34.8175 36.5894 37.3213 33.5629 37.3626 33.5354C37.3803 33.5086 37.4034 33.4859 37.4304 33.4687C37.4574 33.4514 37.4878 33.44 37.5195 33.4352C37.5512 33.4304 37.5835 33.4323 37.6144 33.4408C37.6454 33.4493 37.6742 33.4641 37.699 33.4844C37.7238 33.5047 37.7441 33.53 37.7585 33.5587C37.7729 33.5873 37.7812 33.6186 37.7828 33.6507C37.7844 33.6827 37.7792 33.7147 37.7676 33.7446C37.7561 33.7745 37.7384 33.8016 37.7157 33.8243C37.6148 33.9527 35.1247 36.9563 29.7641 39.2996C29.0597 39.6059 28.2989 39.7606 27.5308 39.7536V39.7536Z" fill="#040047"/>
<path d="M27.9147 32.2605C27.8816 32.2695 27.8468 32.2695 27.8138 32.2605C26.9517 31.8341 22.6182 28.459 21.5681 27.0053C21.1083 26.2738 20.3838 25.7481 19.5458 25.5379C19.4861 25.5288 19.4323 25.497 19.3955 25.4491C19.3588 25.4013 19.342 25.3411 19.3486 25.2811C19.3518 25.2491 19.3616 25.2181 19.3776 25.1901C19.3935 25.1622 19.4152 25.1379 19.4411 25.1189C19.4671 25.0998 19.4968 25.0865 19.5282 25.0797C19.5597 25.0728 19.5922 25.0727 19.6237 25.0793C20.5864 25.292 21.4256 25.8773 21.9578 26.7073C22.9667 28.083 27.2635 31.4351 28.0339 31.8203C28.061 31.8335 28.0853 31.8519 28.1053 31.8745C28.1253 31.8971 28.1406 31.9235 28.1504 31.952C28.1602 31.9806 28.1643 32.0108 28.1624 32.0409C28.1605 32.071 28.1527 32.1004 28.1394 32.1275C28.1194 32.1695 28.0873 32.2046 28.0473 32.2283C28.0073 32.252 27.9611 32.2632 27.9147 32.2605Z" fill="#040047"/>
<path d="M9.00933 48.0535C8.95258 48.0528 8.89802 48.0315 8.85584 47.9935C8.81365 47.9556 8.78672 47.9035 8.78004 47.8472C8.14722 41.4272 9.72469 30.4857 9.74303 30.3757C9.75155 30.3149 9.78387 30.2599 9.83289 30.223C9.88191 30.186 9.94361 30.17 10.0044 30.1785C10.0652 30.187 10.1202 30.2193 10.1572 30.2684C10.1941 30.3174 10.2101 30.3791 10.2016 30.4399C10.2016 30.5499 8.61496 41.4456 9.2432 47.8013C9.24636 47.8315 9.24352 47.8619 9.23484 47.891C9.22616 47.92 9.21181 47.947 9.19262 47.9705C9.17343 47.9939 9.14979 48.0133 9.12305 48.0276C9.09631 48.0419 9.06701 48.0507 9.03684 48.0535H9.00933Z" fill="#040047"/>
<path d="M44.4833 61.4392C44.4511 61.4388 44.4194 61.4317 44.3901 61.4183C44.3609 61.4048 44.3348 61.3854 44.3136 61.3612L42.3601 59.1922C42.3235 59.1466 42.3057 59.0888 42.3103 59.0305C42.3149 58.9722 42.3416 58.9179 42.385 58.8787C42.4283 58.8394 42.485 58.8182 42.5434 58.8194C42.6019 58.8206 42.6577 58.844 42.6994 58.8849L44.6529 61.0586C44.6749 61.0792 44.6923 61.104 44.7043 61.1316C44.7162 61.1592 44.7224 61.189 44.7224 61.2191C44.7224 61.2491 44.7162 61.2789 44.7043 61.3065C44.6923 61.3341 44.6749 61.359 44.6529 61.3796C44.6308 61.4014 44.6041 61.418 44.5748 61.4284C44.5454 61.4387 44.5142 61.4424 44.4833 61.4392Z" fill="#040047"/>
<path d="M2.60655 36.4014C2.57864 36.4019 2.55089 36.397 2.52491 36.3867C2.49893 36.3765 2.47525 36.3612 2.45522 36.3418C2.43329 36.3212 2.41581 36.2963 2.40386 36.2687C2.39191 36.2411 2.38574 36.2113 2.38574 36.1813C2.38574 36.1512 2.39191 36.1214 2.40386 36.0938C2.41581 36.0662 2.43329 36.0413 2.45522 36.0208L6.50897 31.5176C6.52854 31.4932 6.55289 31.4731 6.58051 31.4585C6.60814 31.4439 6.63846 31.4351 6.66961 31.4326C6.70076 31.4301 6.7321 31.4341 6.76168 31.4441C6.79126 31.4542 6.81848 31.4702 6.84164 31.4912C6.86481 31.5122 6.88345 31.5377 6.8964 31.5661C6.90936 31.5946 6.91636 31.6253 6.91699 31.6566C6.91761 31.6878 6.91184 31.7189 6.90003 31.7478C6.88823 31.7767 6.87063 31.803 6.84832 31.8248L2.79457 36.328C2.77112 36.354 2.7419 36.3742 2.70926 36.387C2.67661 36.3997 2.64144 36.4046 2.60655 36.4014Z" fill="#040047"/>
</svg>
