<svg xmlns="http://www.w3.org/2000/svg">
	<symbol id="arrow-next" viewBox="0 0 14 10" >
		<path d="M8.43436 1.19277C8.15182 0.915273 8.15182 0.478398 8.43436 0.200898C8.71691 -0.0672268 9.16173 -0.0672268 9.44427 0.200898L13.6767 4.35715C13.8078 4.4859 13.8886 4.66465 13.8886 4.86277C13.8886 5.0609 13.8078 5.23965 13.6767 5.36902L9.44427 9.52527C9.16173 9.80277 8.71691 9.80277 8.43436 9.52527C8.15182 9.24777 8.15182 8.8109 8.43436 8.5334L11.4647 5.56715L0.707 5.56715C0.313091 5.56777 -1.95964e-07 5.25027 -2.12874e-07 4.8634C-2.29785e-07 4.47652 0.313091 4.16902 0.707 4.16902L11.4641 4.16902L8.43436 1.19277Z" />
	</symbol>
</svg>
