<svg width="350" height="350" viewBox="0 0 350 350" fill="none" xmlns="http://www.w3.org/2000/svg">
<path fill-rule="evenodd" clip-rule="evenodd" d="M231.466 22.5548C224.646 24.3701 219.723 29.3573 215.657 35.9498L215.639 35.9786L185.833 82.9373L245.598 66.9565C257.157 62.81 263.709 50.6469 260.551 38.9406C257.216 26.5794 244.247 19.153 231.466 22.5548ZM206.609 30.3681C211.325 22.7321 218.128 15.138 228.706 12.3226C247.017 7.44912 265.926 18.052 270.823 36.2064C275.485 53.4897 265.703 71.1549 248.954 77.0142L248.762 77.0815L162.28 100.206L206.609 30.3681Z" fill="#02221F"/>
<path fill-rule="evenodd" clip-rule="evenodd" d="M120.051 22.5548C126.872 24.3701 131.795 29.3573 135.861 35.9498L135.878 35.9786L165.685 82.9373L105.92 66.9565C94.3602 62.81 87.809 50.6469 90.9669 38.9406C94.3012 26.5794 107.27 19.153 120.051 22.5548ZM144.908 30.3681C140.193 22.7321 133.39 15.138 122.812 12.3226C104.501 7.44912 85.5916 18.052 80.6943 36.2064C76.0322 53.4897 85.8152 71.1549 102.564 77.0142L102.756 77.0815L189.238 100.206L144.908 30.3681Z" fill="#02221F"/>
<path d="M44.1084 105.268C44.1084 95.0271 52.4389 86.7256 62.7152 86.7256H290.695C300.971 86.7256 309.302 95.0271 309.302 105.268V322.512C309.302 332.752 300.971 341.054 290.695 341.054H62.7152C52.4389 341.054 44.1084 332.752 44.1084 322.512V105.268Z" fill="#FC525A"/>
<path fill-rule="evenodd" clip-rule="evenodd" d="M38.792 105.267C38.792 92.101 49.5028 81.4277 62.715 81.4277H290.695C303.908 81.4277 314.618 92.101 314.618 105.267V322.512C314.618 335.679 303.908 346.351 290.695 346.351H62.715C49.5028 346.351 38.792 335.679 38.792 322.512V105.267ZM62.715 92.0232C55.3749 92.0232 49.4244 97.9529 49.4244 105.267V322.512C49.4244 329.825 55.3749 335.756 62.715 335.756H290.695C298.036 335.756 303.985 329.825 303.985 322.512V105.267C303.985 97.9529 298.036 92.0232 290.695 92.0232H62.715Z" fill="#02221F"/>
<path d="M163.538 84.1143H187.461V335.755H163.538V84.1143Z" fill="white"/>
<path d="M304.48 206.691V230.685H48.9307V206.691H304.48Z" fill="white"/>
<path d="M20 90.6247C20 84.7729 24.7603 80.0293 30.6325 80.0293H320.368C326.239 80.0293 331 84.7729 331 90.6247V131.697C331 137.548 326.239 142.292 320.368 142.292H30.6325C24.7603 142.292 20 137.548 20 131.697V90.6247Z" fill="#FC525A"/>
<path fill-rule="evenodd" clip-rule="evenodd" d="M320.368 90.6247H30.6325V131.697H320.368V90.6247ZM30.6325 80.0293C24.7603 80.0293 20 84.7729 20 90.6247V131.697C20 137.548 24.7603 142.292 30.6325 142.292H320.368C326.239 142.292 331 137.548 331 131.697V90.6247C331 84.7729 326.239 80.0293 320.368 80.0293H30.6325Z" fill="#02221F"/>
<path d="M163.538 89.125H187.647V132.313H163.538V89.125Z" fill="white"/>
</svg>
