<svg width="254" height="147" viewBox="0 0 254 147" fill="none" xmlns="http://www.w3.org/2000/svg">
<g clip-path="url(#clip0)">
<path d="M143.466 74.6583L139.351 68.8147C139.62 68.2222 139.759 67.5786 139.759 66.9275C139.759 66.2763 139.62 65.6327 139.351 65.0403C138.456 62.8816 136.849 60.3526 135.147 62.607C135.147 62.607 135.344 59.0114 132.696 60.0524C130.048 61.0934 125.603 64.325 125.457 65.5831C125.311 66.8412 136.398 81.2299 136.582 81.4982" fill="white"/>
<path d="M136.582 81.8109C136.53 81.811 136.478 81.7982 136.432 81.7737C136.385 81.7493 136.346 81.7138 136.316 81.6704L135.732 80.8913C126.207 68.3674 125.076 66.1066 125.146 65.5637C125.311 64.0757 130.036 60.7675 132.582 59.7712C132.885 59.6174 133.223 59.5448 133.562 59.5604C133.901 59.5761 134.231 59.6795 134.519 59.8606C134.795 60.1165 135.019 60.4248 135.177 60.7679C135.335 61.1109 135.424 61.4819 135.439 61.8596C135.61 61.7049 135.812 61.5881 136.031 61.5166C136.249 61.4451 136.481 61.4205 136.709 61.4445C137.979 61.6105 139.014 63.4371 139.637 64.9379C139.905 65.5454 140.05 66.2007 140.063 66.8652C140.076 67.5298 139.957 68.1903 139.713 68.8081L143.713 74.4984C143.742 74.532 143.763 74.5713 143.776 74.6136C143.789 74.656 143.793 74.7006 143.788 74.7445C143.782 74.7885 143.768 74.8308 143.745 74.8689C143.723 74.907 143.693 74.94 143.657 74.9657C143.621 74.9915 143.581 75.0095 143.538 75.0186C143.495 75.0277 143.45 75.0277 143.407 75.0186C143.364 75.0095 143.323 74.9915 143.287 74.9657C143.252 74.9399 143.222 74.9069 143.199 74.8688L139.065 68.9997C139.034 68.9487 139.018 68.8901 139.018 68.8304C139.018 68.7707 139.034 68.7122 139.065 68.6612C139.315 68.1119 139.444 67.5151 139.444 66.9113C139.444 66.3075 139.315 65.7107 139.065 65.1614C138.284 63.2838 137.402 62.147 136.64 62.0512C136.24 62.0001 135.82 62.2492 135.408 62.7984C135.367 62.8531 135.31 62.8932 135.245 62.9127C135.179 62.9323 135.11 62.9302 135.046 62.907C134.982 62.882 134.928 62.8379 134.891 62.7807C134.853 62.7235 134.834 62.6561 134.836 62.5877C134.836 62.1214 134.785 60.8122 134.15 60.3524C133.946 60.2383 133.717 60.1784 133.484 60.1784C133.25 60.1784 133.021 60.2383 132.817 60.3524C130.175 61.387 125.895 64.5866 125.781 65.6212C125.781 66.0491 127.184 68.5718 136.24 80.5081L136.875 81.3192C136.921 81.3906 136.937 81.4774 136.921 81.5609C136.904 81.6445 136.856 81.7182 136.786 81.7662C136.724 81.8023 136.653 81.818 136.582 81.8109Z" fill="#040047"/>
<path d="M229.095 147.432C228.759 144.686 228.289 141.352 227.648 137.661C225.882 127.5 222.218 125.469 222.218 125.469L181.451 122.665L179.026 147.432H229.095Z" fill="#040047"/>
<path d="M229.095 147.751H179.026C178.982 147.751 178.938 147.742 178.898 147.724C178.858 147.707 178.821 147.681 178.791 147.649C178.733 147.58 178.703 147.491 178.708 147.4L181.14 122.633C181.143 122.592 181.155 122.552 181.173 122.515C181.192 122.479 181.218 122.446 181.249 122.419C181.28 122.393 181.316 122.372 181.356 122.36C181.395 122.347 181.436 122.343 181.477 122.346L222.244 125.156C222.291 125.157 222.337 125.17 222.377 125.194C222.529 125.277 226.187 127.417 227.959 137.603C228.524 140.841 229.013 144.13 229.406 147.394C229.413 147.438 229.41 147.484 229.397 147.527C229.383 147.57 229.361 147.61 229.33 147.643C229.301 147.677 229.265 147.705 229.225 147.723C229.184 147.742 229.14 147.752 229.095 147.751ZM179.375 147.113H228.733C228.346 143.977 227.876 140.822 227.336 137.712C225.743 128.547 222.568 126.089 222.117 125.782L181.737 123.004L179.375 147.113Z" fill="#040047"/>
<path d="M211.658 37.0483C213.625 40.1106 214.6 43.7102 214.45 47.3526C214.3 50.9949 213.032 54.5011 210.82 57.3892C209.55 59.0624 207.867 59.9438 206.661 61.7447C205.296 63.814 204.121 66.0173 202.851 68.1312C200.946 71.2095 198.596 74.1856 195.345 75.7566C192.805 76.9701 189.941 77.2383 187.141 77.2064C183.267 77.1553 179.045 76.3634 176.517 73.4128C175.361 71.9928 174.6 70.289 174.314 68.4761C173.933 66.2791 174.098 64.0213 174.797 61.9044C175.432 60.0715 176.771 58.89 177.61 57.1657C178.543 55.1307 179.215 52.9847 179.61 50.7792C180.524 46.3087 180.74 41.6657 182.01 37.2526C182.645 35.011 183.617 32.7821 185.319 31.1919C187.02 29.6017 189.598 28.8097 191.738 29.7166C192.37 29.1774 193.063 28.7144 193.802 28.3371C194.628 28.1998 195.471 28.1998 196.298 28.3371C198.72 28.3704 201.115 28.86 203.359 29.7805C206.782 31.3201 209.671 33.8503 211.658 37.0483Z" fill="white"/>
<path d="M187.547 77.5003H187.09C182.048 77.4364 178.403 76.1272 176.251 73.6109C175.055 72.1534 174.27 70.4001 173.977 68.5337C173.585 66.2901 173.753 63.9837 174.466 61.8215C174.853 60.8088 175.39 59.8612 176.06 59.0114C176.526 58.3908 176.94 57.7329 177.298 57.0444C178.216 55.0366 178.879 52.9211 179.273 50.7474C179.635 48.9655 179.908 47.1262 180.143 45.3508C180.467 42.6018 180.98 39.8789 181.68 37.2017C182.493 34.3725 183.585 32.4054 185.071 31.0068C186.976 29.2633 189.56 28.631 191.618 29.4102C192.263 28.9073 192.952 28.4628 193.675 28.0818C194.317 27.9372 194.979 27.9091 195.631 27.9988C195.84 27.9988 196.05 28.0371 196.266 28.0435C198.722 28.0666 201.151 28.5608 203.422 29.4996C206.921 31.0551 209.874 33.6316 211.9 36.8951C213.909 40.0105 214.905 43.678 214.748 47.3883C214.591 51.0985 213.289 54.6676 211.023 57.6C210.437 58.3167 209.787 58.9773 209.08 59.5734C208.242 60.2562 207.5 61.0513 206.877 61.9364C206.089 63.1307 205.359 64.4016 204.648 65.6214C204.134 66.5092 203.6 67.4288 203.048 68.3165C201.511 70.8009 199.041 74.3006 195.428 76.0505C193.332 77.0277 190.818 77.5003 187.547 77.5003ZM189.757 29.6529C188.161 29.6953 186.634 30.322 185.465 31.4155C184.042 32.7375 183.02 34.6087 182.239 37.3358C181.547 39.9878 181.04 42.6852 180.721 45.4083C180.467 47.1965 180.207 49.0422 179.838 50.8431C179.432 53.0711 178.747 55.2384 177.8 57.2935C177.435 58.0119 177.011 58.6977 176.53 59.3435C175.893 60.1455 175.383 61.0417 175.019 62.0003C174.334 64.0695 174.173 66.2775 174.549 68.4251C174.824 70.1872 175.563 71.8433 176.689 73.2213C178.727 75.6035 182.232 76.8488 187.096 76.9127C190.5 76.951 193.065 76.504 195.167 75.4949C198.653 73.8089 201.054 70.3857 202.559 67.978C203.105 67.0967 203.632 66.1834 204.146 65.2957C204.857 64.0631 205.594 62.7922 206.394 61.5788C207.049 60.6568 207.822 59.8258 208.693 59.1072C209.385 58.529 210.023 57.8876 210.598 57.1913C212.779 54.3536 214.031 50.9054 214.183 47.3219C214.334 43.7384 213.377 40.1959 211.442 37.1825C209.464 34.0311 206.593 31.5468 203.2 30.0488C200.982 29.1354 198.612 28.6543 196.215 28.631L195.58 28.5799C194.995 28.4981 194.399 28.5197 193.821 28.6438C193.17 29.0042 192.544 29.4096 191.948 29.8572C191.917 29.928 191.86 29.9838 191.789 30.0125C191.717 30.0412 191.638 30.0405 191.567 30.0105C190.993 29.7716 190.378 29.65 189.757 29.6529Z" fill="#040047"/>
<path d="M182.245 63.4756C182.245 63.4756 175.533 73.6939 159.43 86.9778C156.89 83.5483 143.466 71.976 143.466 71.976L132.671 78.5349C132.671 78.5349 152.54 105.358 161.582 104.598C170.625 103.838 186.169 79.4865 186.169 79.4865L182.245 63.4756Z" fill="#4F51FF"/>
<path d="M225.374 124.773C225.374 124.773 191.84 130.521 179.737 123.566C179.737 123.566 178.784 113.086 177.375 109.056C176.6 106.852 176.575 107.976 175.552 105.863C173.883 102.531 173.038 98.8441 173.089 95.1141C173.184 90.3179 174.162 84.8958 175.178 80.2145C175.871 77.0285 176.873 73.9184 178.169 70.9286C179.673 67.4543 180.429 63.6544 183.979 62.5815C189.694 60.8571 195.409 60.8443 201.333 60.0269C204.197 59.6373 216.732 65.136 219.748 70.7689C222.765 76.4018 225.374 124.773 225.374 124.773Z" fill="#4F51FF"/>
<path d="M180.581 102.241C180.518 102.242 180.455 102.224 180.402 102.189C180.349 102.153 180.307 102.103 180.283 102.044C174.441 87.4504 179.331 69.5492 179.381 69.3703C179.405 69.2888 179.459 69.2198 179.533 69.1781C179.607 69.1363 179.693 69.1251 179.775 69.1468C179.815 69.1586 179.852 69.1781 179.885 69.2044C179.917 69.2306 179.944 69.2631 179.965 69.2998C179.985 69.3366 179.997 69.377 180.002 69.4187C180.006 69.4604 180.003 69.5025 179.991 69.5428C179.947 69.7152 175.114 87.4249 180.874 101.807C180.889 101.846 180.897 101.888 180.896 101.93C180.896 101.972 180.887 102.013 180.87 102.052C180.854 102.09 180.83 102.125 180.8 102.155C180.77 102.184 180.735 102.207 180.696 102.222L180.581 102.241Z" fill="#040047"/>
<path d="M200.711 70.8328C200.711 70.8328 193.618 86.2434 191.916 92.93C190.214 99.6166 186.201 110.812 186.201 110.812C186.201 110.812 182.391 86.9778 189.014 66.886L200.711 70.8328Z" fill="#040047"/>
<path d="M186.195 111.112C186.133 111.106 186.074 111.08 186.028 111.037C185.982 110.994 185.952 110.938 185.941 110.876C185.903 110.633 182.226 86.7413 188.767 66.8092C188.778 66.7735 188.796 66.7405 188.82 66.712C188.844 66.6835 188.873 66.6601 188.906 66.6431C188.976 66.6147 189.053 66.6147 189.122 66.6431L200.819 70.5708C200.857 70.5823 200.892 70.602 200.921 70.6284C200.951 70.6549 200.975 70.6875 200.99 70.7241C201.006 70.7603 201.014 70.7995 201.014 70.839C201.014 70.8786 201.006 70.9177 200.99 70.954C200.914 71.1073 193.891 86.4156 192.208 93.0001C190.526 99.5845 186.493 110.812 186.493 110.927C186.472 110.987 186.431 111.039 186.377 111.072C186.322 111.106 186.258 111.12 186.195 111.112ZM189.186 67.2626C183.61 84.5061 185.681 104.7 186.316 109.65C187.357 106.674 190.265 98.2434 191.643 92.8596C193.205 86.7286 199.346 73.1445 200.324 71.0051L189.186 67.2626Z" fill="#040047"/>
<path d="M188.976 60.8316L188.817 69.5235C188.817 69.5235 189.345 76.2996 193.65 75.6482C195.472 75.3697 197.218 74.7153 198.778 73.7262C200.337 72.7371 201.676 71.4346 202.711 69.9003L204.8 52.7335C204.889 52.0055 204.165 49.6616 205.302 43.4221C202.544 42.8703 199.948 41.6906 197.714 39.9734C196.825 39.3347 191.904 36.2245 192.494 34.9153C191.021 38.1788 189.433 41.6019 186.531 43.6839C186.098 43.9318 185.72 44.2666 185.42 44.6674C185.254 44.986 185.146 45.3322 185.103 45.6892C184.423 49.2657 183.604 52.7144 183.757 56.3866C183.972 61.1892 188.976 60.8316 188.976 60.8316Z" fill="white"/>
<path d="M193.078 75.9801C192.304 75.9874 191.552 75.7232 190.951 75.2329C188.862 73.566 188.544 69.7086 188.532 69.5425L188.684 61.1315C187.326 61.1543 186.002 60.7029 184.938 59.8542C184.472 59.4148 184.102 58.8832 183.851 58.293C183.599 57.7028 183.472 57.0667 183.477 56.4247C183.337 53.2315 183.922 50.2809 184.538 47.1452L184.823 45.6571C184.861 45.2168 185.008 44.793 185.251 44.4248C185.494 44.0565 185.825 43.7556 186.214 43.5496L186.366 43.441C189.275 41.3463 190.843 37.8592 192.227 34.7874C192.243 34.7521 192.266 34.7203 192.294 34.694C192.322 34.6677 192.355 34.6473 192.391 34.6342C192.427 34.6211 192.466 34.6155 192.504 34.6176C192.543 34.6198 192.58 34.6297 192.615 34.6469C192.65 34.662 192.681 34.6841 192.707 34.7118C192.733 34.7395 192.753 34.7724 192.767 34.8082C192.78 34.8441 192.785 34.8822 192.783 34.9204C192.781 34.9585 192.771 34.9958 192.754 35.03C192.488 35.624 194.024 37.0609 197.263 39.2962C197.536 39.4814 197.758 39.6347 197.898 39.7305C200.093 41.4274 202.649 42.5903 205.366 43.1281C205.403 43.1347 205.438 43.1489 205.47 43.1697C205.502 43.1906 205.529 43.2177 205.55 43.2494C205.572 43.2815 205.588 43.318 205.595 43.3565C205.603 43.395 205.603 43.4346 205.594 43.473C204.737 48.2245 204.959 50.7088 205.067 51.9031C205.103 52.1868 205.114 52.4732 205.099 52.7589C205.099 52.7589 205.099 52.9377 203.016 69.9321C203.01 69.9732 202.994 70.0124 202.972 70.0471C201.918 71.628 200.546 72.969 198.945 73.9833C197.343 74.9976 195.548 75.6626 193.675 75.9354C193.478 75.965 193.278 75.9799 193.078 75.9801ZM188.976 60.544C189.015 60.5422 189.054 60.5485 189.09 60.5626C189.126 60.5768 189.159 60.5983 189.187 60.626C189.214 60.6536 189.236 60.6868 189.25 60.7232C189.264 60.7597 189.27 60.7987 189.268 60.8378L189.11 69.5297C189.11 69.5297 189.421 73.2722 191.313 74.7794C191.632 75.0361 192.003 75.2203 192.4 75.3195C192.797 75.4187 193.21 75.4305 193.612 75.3542C195.381 75.0759 197.076 74.438 198.592 73.4795C200.109 72.5209 201.415 71.2618 202.432 69.7788C202.572 68.6356 204.502 52.7461 204.508 52.6695C204.516 52.4263 204.506 52.1829 204.477 51.9414C204.239 49.1647 204.404 46.368 204.965 43.639C202.269 43.0524 199.734 41.8749 197.542 40.1903C197.415 40.0945 197.199 39.9476 196.907 39.7624C194.621 38.1913 192.939 36.8821 192.354 35.8539C191.084 38.6703 189.433 41.9147 186.677 43.9009L186.519 44.0158C186.188 44.2285 185.901 44.504 185.674 44.8269C185.531 45.118 185.437 45.4309 185.395 45.7529C185.3 46.2511 185.204 46.7492 185.103 47.2474C184.468 50.3448 183.922 53.2698 184.055 56.3864C184.05 56.9495 184.16 57.5076 184.379 58.0262C184.597 58.5447 184.919 59.0126 185.325 59.4008C186.362 60.2051 187.649 60.6145 188.957 60.5568L188.976 60.544Z" fill="#040047"/>
<path d="M188.868 66.7582C191.153 66.4879 193.33 65.6277 195.186 64.2611C198.171 62.0194 198.228 59.2668 198.228 59.2668C198.228 59.2668 193.459 61.4638 188.976 60.8315L188.868 66.7582Z" fill="#040047"/>
<path d="M188.868 67.0393C188.833 67.0398 188.798 67.0333 188.765 67.0202C188.733 67.007 188.703 66.9875 188.678 66.9627C188.649 66.9356 188.627 66.9028 188.611 66.8666C188.596 66.8303 188.588 66.7913 188.589 66.7519L188.697 60.8317C188.697 60.7918 188.706 60.7525 188.722 60.7162C188.739 60.6799 188.762 60.6475 188.792 60.6209C188.823 60.5953 188.858 60.5764 188.896 60.5654C188.935 60.5544 188.975 60.5515 189.014 60.557C193.358 61.1957 198.063 59.0371 198.114 59.0115C198.154 58.988 198.2 58.9756 198.247 58.9756C198.294 58.9756 198.34 58.988 198.38 59.0115C198.421 59.0357 198.454 59.0704 198.476 59.112C198.499 59.1537 198.509 59.2006 198.507 59.2478C198.507 59.3692 198.412 62.1601 195.332 64.4656C193.435 65.868 191.207 66.7485 188.868 67.0202V67.0393ZM189.249 61.151L189.154 66.439C191.272 66.1288 193.284 65.3047 195.015 64.0377C196.477 63.0113 197.504 61.4708 197.892 59.7204C196.615 60.2377 192.907 61.5661 189.23 61.151H189.249Z" fill="#040047"/>
<path d="M193.745 43.9968C193.745 43.9968 189.827 48.2183 190.443 49.1635C191.059 50.1087 193.243 49.9043 193.243 49.9043" fill="white"/>
<path d="M192.729 50.2106C191.986 50.2106 190.71 50.0893 190.189 49.3165C189.522 48.2947 192.297 45.1206 193.516 43.805C193.543 43.7782 193.574 43.7568 193.608 43.7423C193.642 43.7277 193.679 43.7202 193.717 43.7202C193.754 43.7202 193.791 43.7277 193.825 43.7423C193.859 43.7568 193.891 43.7782 193.917 43.805C193.943 43.8306 193.964 43.8614 193.979 43.8954C193.993 43.9294 194 43.966 194 44.003C194 44.04 193.993 44.0766 193.979 44.1106C193.964 44.1446 193.943 44.1754 193.917 44.201C191.878 46.4043 190.38 48.6076 190.646 49.0164C191.078 49.655 192.628 49.655 193.186 49.655C193.223 49.6515 193.26 49.6553 193.295 49.6663C193.331 49.6773 193.363 49.6951 193.392 49.7189C193.42 49.7426 193.443 49.7718 193.46 49.8047C193.477 49.8376 193.488 49.8735 193.491 49.9105C193.496 49.9847 193.473 50.0581 193.426 50.1153C193.378 50.1725 193.311 50.209 193.237 50.217C193.205 50.1915 193.002 50.2106 192.729 50.2106Z" fill="#040047"/>
<path d="M189.094 45.5036C189.207 44.9437 189.06 44.4407 188.764 44.38C188.469 44.3194 188.137 44.724 188.024 45.2839C187.91 45.8438 188.057 46.3468 188.353 46.4074C188.648 46.4681 188.98 46.0634 189.094 45.5036Z" fill="#040047"/>
<path d="M197.973 46.1615C198.086 45.6015 197.939 45.0986 197.643 45.0381C197.347 44.9776 197.016 45.3825 196.903 45.9425C196.79 46.5024 196.937 47.0053 197.233 47.0658C197.528 47.1263 197.86 46.7214 197.973 46.1615Z" fill="#040047"/>
<path d="M202.343 47.1198C203.283 45.4976 205.569 45.2038 207.182 45.8425C207.715 46.0215 208.184 46.3555 208.528 46.8022C208.873 47.2489 209.078 47.7884 209.118 48.3524C209.149 49.0496 209.043 49.7461 208.807 50.4024C208.413 51.6234 207.805 52.7633 207.01 53.7681C206.642 54.2937 206.145 54.7158 205.569 54.9943C205.203 55.1465 204.799 55.1803 204.413 55.0911C204.028 55.0018 203.679 54.7938 203.416 54.4962" fill="white"/>
<path d="M204.851 55.4286C204.229 55.4119 203.639 55.1505 203.207 54.7005C203.162 54.645 203.139 54.575 203.142 54.5037C203.145 54.4324 203.173 54.3645 203.222 54.3129C203.271 54.2613 203.337 54.2293 203.408 54.2231C203.479 54.2169 203.549 54.2367 203.607 54.279C203.834 54.5305 204.131 54.7071 204.46 54.7857C204.788 54.8644 205.133 54.8413 205.448 54.7197C205.978 54.458 206.434 54.0672 206.775 53.5829C207.552 52.6008 208.148 51.4869 208.534 50.2938C208.753 49.6798 208.854 49.0298 208.833 48.3779C208.801 47.8657 208.617 47.3749 208.305 46.9694C207.992 46.5639 207.565 46.2624 207.08 46.1043C205.543 45.5295 203.441 45.8105 202.597 47.2794C202.557 47.3463 202.493 47.3946 202.418 47.4138C202.343 47.4329 202.263 47.4214 202.197 47.3816C202.164 47.3625 202.136 47.337 202.113 47.3067C202.09 47.2764 202.073 47.2418 202.064 47.205C202.054 47.1681 202.052 47.1298 202.058 47.0921C202.063 47.0545 202.076 47.0183 202.095 46.9856C203.099 45.2485 205.518 44.8973 207.283 45.5615C207.871 45.7579 208.387 46.1258 208.766 46.6183C209.144 47.1108 209.369 47.7055 209.41 48.3268C209.443 49.0612 209.331 49.7949 209.08 50.4854C208.677 51.744 208.051 52.9188 207.232 53.9533C206.833 54.5193 206.295 54.9723 205.67 55.2689C205.411 55.3777 205.132 55.432 204.851 55.4286Z" fill="#040047"/>
<path d="M174.835 54.2472C174.835 54.2472 175.343 57.0572 174.2 58.3856C173.057 59.714 169.012 60.3015 168.796 60.7294C168.58 61.1573 164.738 72.6721 164.116 73.3683C163.494 74.0644 160.744 73.1831 158.604 71.3693C158.604 71.3693 162.693 60.6975 162.814 59.7842C162.935 58.871 161.227 55.0902 161.138 53.3467L174.835 54.2472Z" fill="white"/>
<path d="M163.392 73.9236C162.059 73.9236 159.912 72.889 158.414 71.6117C158.363 71.5694 158.326 71.5123 158.309 71.4482C158.292 71.3841 158.295 71.3162 158.318 71.2541C159.957 66.9751 162.427 60.3971 162.509 59.7584C162.383 58.8604 162.148 57.9811 161.811 57.14C161.349 55.9282 161.021 54.6688 160.833 53.3847C160.829 53.3386 160.835 53.2922 160.852 53.249C160.868 53.2058 160.894 53.167 160.928 53.1357C160.96 53.1043 160.998 53.0801 161.039 53.0647C161.081 53.0493 161.125 53.043 161.17 53.0462L174.854 53.9467C174.925 53.9502 174.993 53.978 175.046 54.0257C175.099 54.0734 175.134 54.1379 175.146 54.2086C175.146 54.3299 175.667 57.1847 174.454 58.6152C173.685 59.5157 171.806 60.065 170.428 60.4673C169.959 60.5813 169.502 60.7395 169.063 60.9399C169.031 61.0229 168.624 62.2172 168.148 63.5584C166.059 69.5744 164.77 73.1381 164.338 73.5979C164.211 73.7138 164.061 73.8024 163.898 73.8584C163.736 73.9143 163.563 73.9365 163.392 73.9236ZM158.991 71.2668C161.17 73.0423 163.513 73.5724 163.894 73.1828C164.275 72.7932 166.497 66.3876 167.551 63.354C168.186 61.553 168.453 60.7547 168.523 60.6142C168.663 60.3396 169.075 60.2055 170.25 59.8606C171.552 59.4838 173.33 58.9601 173.971 58.2065C174.809 57.223 174.644 55.2623 174.555 54.5726L161.506 53.7168C161.728 54.8133 162.031 55.8914 162.414 56.942C162.903 58.4237 163.202 59.3625 163.138 59.8478C163.03 60.7036 159.677 69.4786 158.991 71.2668Z" fill="#040047"/>
<path d="M162.928 55.0836C163.384 55.6105 163.674 56.2619 163.76 56.9549C163.862 58.0342 162.649 60.4227 162.649 60.4227L159.474 58.6345L160.795 54.8984L162.928 55.0836Z" fill="#040047"/>
<path d="M162.649 60.7422C162.595 60.7432 162.542 60.7276 162.497 60.6975L159.29 58.9157C159.224 58.8781 159.174 58.8186 159.147 58.7474C159.12 58.6763 159.119 58.598 159.144 58.5261L160.465 54.79C160.487 54.7234 160.532 54.6663 160.59 54.6281C160.649 54.5898 160.719 54.5726 160.789 54.5793L162.954 54.7645C163.034 54.7718 163.108 54.8081 163.163 54.8667C163.664 55.4453 163.98 56.1617 164.072 56.9231C164.179 58.0663 163.062 60.3143 162.935 60.5634C162.894 60.6407 162.826 60.6999 162.744 60.7294L162.649 60.7422ZM159.836 58.4878L162.509 59.9758C162.884 59.1839 163.506 57.6895 163.443 56.9806C163.368 56.3984 163.135 55.8481 162.77 55.3904L160.979 55.2371L159.836 58.4878Z" fill="#040047"/>
<path d="M146.317 62.6069C146.317 62.6069 154.654 55.5052 159.772 55.1092C161.066 55.0199 162.365 55.0199 163.659 55.1092C166.713 55.2944 169.793 55.7479 171.914 55.7479C176.117 55.684 179.184 54.164 178.956 49.7574C178.765 45.9957 176.955 45.3954 173.171 44.5588C171.298 44.15 167.71 43.8116 164.281 43.0516C162.313 42.6709 160.411 42.0017 158.636 41.0654C154.591 38.7024 151.359 32.9993 151.359 32.9993L146.317 62.6069Z" fill="white"/>
<path d="M146.317 62.9262C146.261 62.9266 146.206 62.9111 146.158 62.8815C146.101 62.8492 146.056 62.7998 146.029 62.7402C146.001 62.6806 145.993 62.6138 146.006 62.5494L151.048 32.9545C151.057 32.8896 151.087 32.8294 151.133 32.7824C151.178 32.7354 151.237 32.704 151.302 32.6927C151.366 32.6817 151.433 32.6912 151.492 32.7198C151.551 32.7484 151.6 32.7947 151.632 32.8523C151.664 32.9034 154.87 38.5044 158.801 40.7971C160.545 41.711 162.416 42.3568 164.351 42.713C166.319 43.1473 168.307 43.4411 170.066 43.7029C171.336 43.8881 172.428 44.0478 173.241 44.2202C177.051 45.0696 179.077 45.6955 179.28 49.719C179.367 50.4883 179.295 51.2675 179.067 52.0073C178.84 52.7471 178.463 53.4314 177.959 54.0171C176.746 55.2944 174.72 55.9969 171.926 56.0416C170.4 56.0216 168.876 55.9171 167.361 55.7287C166.154 55.6073 164.903 55.486 163.652 55.4093C162.384 55.3247 161.111 55.3247 159.842 55.4093C154.883 55.7925 146.654 62.7602 146.571 62.8304C146.538 62.8636 146.498 62.8892 146.454 62.9057C146.41 62.9223 146.364 62.9292 146.317 62.9262ZM151.524 33.9061L146.774 61.815C148.87 60.1225 155.372 55.1283 159.747 54.7898C161.058 54.7006 162.373 54.7006 163.684 54.7898C164.954 54.8665 166.224 54.9942 167.405 55.1156C168.9 55.295 170.402 55.3973 171.907 55.4221C174.517 55.3838 176.397 54.7835 177.483 53.602C177.927 53.0777 178.259 52.4665 178.456 51.8071C178.654 51.1476 178.714 50.454 178.632 49.7701C178.454 46.2 176.803 45.6827 173.095 44.8653C172.314 44.6928 171.228 44.5332 169.977 44.3544C168.205 44.0925 166.199 43.7987 164.211 43.3581C162.218 42.9715 160.292 42.2915 158.496 41.3399C155.232 39.4559 152.553 35.541 151.524 33.9061Z" fill="#040047"/>
<path d="M162.929 55.0838C165.977 55.269 169.793 55.6713 171.907 55.7224C176.746 55.9076 178.937 54.7581 178.988 50.345C179.038 45.817 176.949 45.37 173.165 44.5333C171.291 44.1246 167.704 43.7861 164.275 43.0261C164.275 43.0261 165.665 45.3189 165.329 49.5276C165.168 51.5972 164.323 53.5531 162.929 55.0838Z" fill="#040047"/>
<path d="M172.803 56.0926H171.895C170.752 56.0479 169.113 55.9074 167.38 55.7669C165.875 55.6392 164.313 55.5051 162.935 55.422C162.874 55.4187 162.815 55.3977 162.765 55.3614C162.716 55.3252 162.677 55.2752 162.655 55.2177C162.634 55.1589 162.63 55.0951 162.643 55.034C162.657 54.9728 162.687 54.9168 162.732 54.8728C164.063 53.4032 164.875 51.5335 165.043 49.5529C165.367 45.5166 164.046 43.2622 164.033 43.243C164.001 43.1904 163.983 43.1295 163.983 43.0674C163.983 43.0053 164.001 42.9445 164.033 42.8918C164.07 42.84 164.12 42.8001 164.179 42.7774C164.238 42.7546 164.302 42.75 164.364 42.7641C166.332 43.1983 168.32 43.4921 170.079 43.754C171.349 43.9392 172.441 44.0988 173.254 44.2713C177.095 45.1207 179.381 45.6252 179.331 50.4023C179.331 52.4204 178.848 53.7871 177.895 54.7004C176.943 55.6136 175.26 56.0926 172.803 56.0926ZM163.595 54.8153C164.827 54.8984 166.135 55.0069 167.405 55.1155C169.132 55.2624 170.764 55.3965 171.895 55.4412C174.72 55.5434 176.416 55.173 177.407 54.2278C178.232 53.4422 178.619 52.216 178.645 50.3959C178.689 46.1361 176.829 45.7274 173.114 44.9099C172.288 44.7247 171.209 44.565 169.939 44.3862C168.358 44.1499 166.592 43.8945 164.814 43.5241C165.559 45.4577 165.833 47.5422 165.615 49.604C165.459 51.4995 164.757 53.3082 163.595 54.8089V54.8153Z" fill="#040047"/>
<path d="M143.313 63.5648C146.564 63.9864 149.943 59.4136 151.765 52.7079C152.228 50.9948 152.572 49.2513 152.794 47.4901C153.014 45.762 153.117 44.0209 153.105 42.2788C153.035 35.2983 150.902 29.972 147.631 29.5569C143.593 29.0332 139.345 36.2244 138.151 45.6061C136.957 54.9878 139.268 63.0475 143.313 63.5648Z" fill="#D1D3D4"/>
<path d="M147.218 29.5442C147.357 29.5453 147.495 29.556 147.631 29.5762C150.901 29.9913 153.035 35.324 153.105 42.298C153.117 44.0402 153.013 45.7812 152.794 47.5094C152.572 49.2706 152.228 51.0141 151.765 52.7271C150.019 59.1136 146.844 63.5841 143.726 63.5841C143.589 63.5939 143.451 63.5939 143.313 63.5841C139.268 63.0668 136.963 55.0326 138.151 45.6445C139.306 36.5821 143.307 29.5634 147.218 29.5634V29.5442ZM147.218 28.9248C142.894 28.9248 138.729 36.0776 137.522 45.5679C136.931 50.1917 137.16 54.6494 138.157 58.1173C139.205 61.7704 141.008 63.9354 143.237 64.2228C143.402 64.2323 143.567 64.2323 143.732 64.2228C147.111 64.2228 150.508 59.7522 152.381 52.8804C152.854 51.1405 153.204 49.3691 153.429 47.5796C153.653 45.8219 153.759 44.0509 153.746 42.2789C153.67 34.7492 151.244 29.3782 147.72 28.9248C147.556 28.9046 147.39 28.8939 147.225 28.8928L147.218 28.9248Z" fill="#040047"/>
<path d="M145.11 50.7091L151.765 52.7272C152.228 51.0142 152.572 49.2707 152.794 47.5094C153.014 45.7813 153.117 44.0403 153.105 42.2981L145.745 42.6941L145.11 50.7091Z" fill="white"/>
<path d="M147.314 46.8622C147.498 44.6514 146.818 42.7891 145.794 42.7026C144.77 42.6161 143.79 44.3382 143.606 46.549C143.421 48.7598 144.101 50.6221 145.125 50.7086C146.149 50.7951 147.129 49.073 147.314 46.8622Z" fill="#040047"/>
<path d="M145.18 51.0283H145.085C143.866 50.9261 143.072 48.9463 143.275 46.5577C143.343 45.5381 143.622 44.5439 144.094 43.6391C144.571 42.8025 145.18 42.3618 145.809 42.4193C146.438 42.4768 146.958 43.0005 147.288 43.9073C147.609 44.8775 147.719 45.9052 147.612 46.9218C147.415 49.2464 146.361 51.0283 145.18 51.0283ZM145.707 43.0132C145.358 43.0132 144.977 43.339 144.647 43.9201C144.215 44.7403 143.964 45.6442 143.91 46.5705C143.726 48.7419 144.412 50.3257 145.136 50.4024C145.86 50.479 146.8 49.0165 146.984 46.8451C147.079 45.9214 146.979 44.9878 146.692 44.1053C146.457 43.4667 146.114 43.0579 145.752 43.0324L145.707 43.0132Z" fill="#040047"/>
<path d="M176.181 55.0453H176.079C175.999 55.019 175.933 54.9619 175.895 54.8864C175.857 54.811 175.85 54.7234 175.876 54.643C176.956 51.3476 176.93 48.3012 175.8 46.0723C175.753 45.9965 175.723 45.9116 175.711 45.8233C175.709 45.7813 175.716 45.7395 175.73 45.7001C175.745 45.6607 175.767 45.6245 175.795 45.5937C175.823 45.5628 175.857 45.5379 175.895 45.5203C175.933 45.5027 175.974 45.4928 176.016 45.4912C176.086 45.4856 176.156 45.5049 176.214 45.5456C176.272 45.5864 176.314 45.6462 176.333 45.7147L176.365 45.7786C177.571 48.1607 177.635 51.3795 176.479 54.841C176.457 54.902 176.416 54.9545 176.363 54.9911C176.309 55.0278 176.246 55.0467 176.181 55.0453Z" fill="white"/>
<path d="M171.59 45.4975H171.545L166.827 44.8269C166.786 44.8222 166.745 44.8091 166.709 44.7885C166.673 44.7678 166.641 44.7399 166.615 44.7065C166.59 44.6731 166.571 44.6349 166.561 44.5941C166.55 44.5534 166.548 44.5109 166.554 44.4693C166.568 44.3857 166.614 44.3107 166.681 44.2596C166.748 44.2085 166.832 44.1853 166.916 44.1947L171.634 44.8716C171.676 44.8771 171.716 44.8909 171.753 44.9123C171.789 44.9336 171.821 44.9621 171.847 44.996C171.872 45.0299 171.891 45.0685 171.901 45.1097C171.911 45.1508 171.914 45.1936 171.907 45.2356C171.893 45.3095 171.853 45.3759 171.795 45.4236C171.737 45.4714 171.665 45.4975 171.59 45.4975Z" fill="white"/>
<path d="M171.641 46.4171H171.596L166.872 45.7401C166.79 45.7275 166.716 45.683 166.666 45.6161C166.616 45.5492 166.594 45.4654 166.605 45.3825C166.616 45.2987 166.66 45.2228 166.726 45.1713C166.793 45.1198 166.877 45.097 166.961 45.1079L171.685 45.7848C171.769 45.7908 171.848 45.8301 171.903 45.8942C171.958 45.9583 171.986 46.0418 171.98 46.1265C171.974 46.2112 171.935 46.2901 171.872 46.3458C171.808 46.4015 171.725 46.4294 171.641 46.4235V46.4171Z" fill="white"/>
<path d="M171.698 47.4838H171.653L166.929 46.8068C166.845 46.7949 166.769 46.7499 166.717 46.6817C166.666 46.6134 166.644 46.5275 166.656 46.4428C166.668 46.3581 166.712 46.2816 166.78 46.2301C166.848 46.1786 166.934 46.1563 167.018 46.1682L171.742 46.8451C171.826 46.8511 171.905 46.8904 171.96 46.9545C172.016 47.0185 172.043 47.1021 172.038 47.1868C172.032 47.2715 171.993 47.3503 171.929 47.406C171.865 47.4617 171.782 47.4897 171.698 47.4838Z" fill="white"/>
<path d="M170.955 70.6028L177.197 81.364L166.783 85.362C165.138 77.4938 165.887 72.8126 164.135 72.0781C161.633 71.0371 158.604 69.5235 158.617 66.9689C158.617 65.3851 158.75 63.7055 159.728 62.4537C159.877 62.2092 160.075 61.9991 160.311 61.8373C160.546 61.6755 160.813 61.5656 161.093 61.5149C161.416 61.5244 161.732 61.6051 162.02 61.7512C163.69 62.4282 166.618 63.846 166.783 63.814C167.519 63.648 168.053 63.3925 168.167 62.6389C169.882 64.8997 169.348 68.2271 170.955 70.6028Z" fill="white"/>
<path d="M166.783 85.7005C166.729 85.7015 166.676 85.6859 166.631 85.6558C166.59 85.6345 166.555 85.6045 166.528 85.5681C166.501 85.5317 166.481 85.4897 166.472 85.4451C165.925 82.7428 165.533 80.0113 165.297 77.264C165.03 74.5434 164.859 72.7424 164.027 72.3911C161.201 71.216 158.312 69.645 158.312 66.9563C158.312 65.283 158.464 63.5523 159.493 62.2431C159.608 62.0135 159.768 61.8096 159.963 61.6435C160.158 61.4774 160.385 61.3525 160.629 61.2762C160.873 61.1999 161.13 61.1738 161.384 61.1995C161.639 61.2252 161.885 61.3021 162.109 61.4256C162.929 61.7577 163.97 62.2303 164.891 62.6454C165.672 62.9967 166.548 63.399 166.796 63.4756C167.526 63.3032 167.812 63.0669 167.869 62.5879C167.876 62.5244 167.902 62.4647 167.944 62.4167C167.986 62.3688 168.042 62.3349 168.104 62.3197C168.165 62.3029 168.23 62.3049 168.29 62.3254C168.35 62.3459 168.402 62.3839 168.44 62.4346C169.361 63.6672 169.666 65.1808 169.958 66.6433C170.117 67.9944 170.549 69.2984 171.228 70.4752L177.47 81.23C177.489 81.2723 177.498 81.3179 177.498 81.3641C177.498 81.4103 177.489 81.456 177.47 81.4982C177.455 81.5414 177.43 81.5808 177.398 81.6138C177.367 81.6469 177.328 81.6728 177.286 81.6898L166.872 85.6878C166.843 85.6974 166.813 85.7018 166.783 85.7005ZM161.138 61.8152C160.904 61.8669 160.683 61.9661 160.489 62.1066C160.294 62.2472 160.131 62.4262 160.008 62.6326C159.099 63.7886 158.972 65.3916 158.966 66.9499C158.966 69.2618 161.652 70.6987 164.287 71.7972C165.481 72.2953 165.665 74.141 165.964 77.1938C166.172 79.7887 166.52 82.3705 167.005 84.9278L176.721 81.1981L170.676 70.7754C169.956 69.5396 169.49 68.1716 169.304 66.7519C169.146 65.5688 168.799 64.4192 168.275 63.3479C167.924 63.7791 167.422 64.0581 166.872 64.1271C166.713 64.1271 166.631 64.1271 164.643 63.2393C163.729 62.8242 162.694 62.358 161.925 62.0451C161.68 61.914 161.413 61.8296 161.138 61.796V61.8152Z" fill="#040047"/>
<path d="M203.429 79.5248C196.412 88.9768 189.725 98.9652 189.725 98.9652L176.53 77.6152L163.767 81.677C163.767 81.677 175.381 126.229 188.049 122.991C188.049 122.991 207.378 114.491 219.024 93.7347" fill="#4F51FF"/>
<path d="M186.76 123.464C174.479 123.464 163.9 83.5227 163.456 81.7601C163.434 81.6813 163.444 81.5972 163.483 81.5255C163.522 81.4539 163.587 81.4006 163.665 81.3769L176.41 77.3151C176.477 77.2916 176.55 77.2921 176.617 77.3165C176.684 77.341 176.741 77.3878 176.778 77.4492L189.732 98.3777C191.065 96.4042 197.028 87.6165 203.2 79.3141C203.225 79.2805 203.257 79.2522 203.293 79.2309C203.328 79.2095 203.368 79.1955 203.409 79.1895C203.451 79.1836 203.493 79.1859 203.533 79.1963C203.573 79.2067 203.611 79.225 203.645 79.2502C203.678 79.2753 203.706 79.3069 203.727 79.343C203.749 79.379 203.763 79.419 203.769 79.4605C203.774 79.502 203.772 79.5443 203.762 79.5849C203.751 79.6255 203.733 79.6637 203.708 79.6972C196.774 89.0343 190.081 99.0227 190.011 99.1249C189.982 99.1683 189.942 99.2037 189.895 99.2282C189.849 99.2527 189.797 99.2654 189.745 99.2654C189.691 99.2652 189.638 99.251 189.591 99.2242C189.544 99.1973 189.505 99.1587 189.478 99.1121L176.397 77.9793L164.148 81.8686C165.189 85.7005 176.276 125.641 187.967 122.659C188.113 122.595 207.29 113.98 218.751 93.5623C218.771 93.5233 218.797 93.4887 218.83 93.4606C218.863 93.4324 218.901 93.4112 218.942 93.3984C218.984 93.3856 219.027 93.3814 219.07 93.386C219.113 93.3906 219.154 93.404 219.192 93.4253C219.23 93.4466 219.262 93.4754 219.289 93.5099C219.315 93.5444 219.334 93.5839 219.344 93.626C219.355 93.6681 219.356 93.7119 219.35 93.7548C219.343 93.7976 219.327 93.8386 219.304 93.8752C207.734 114.484 188.367 123.176 188.189 123.253C187.723 123.384 187.243 123.455 186.76 123.464Z" fill="#040047"/>
<path d="M205.74 56.3227C204.261 57.6958 202.851 58.8007 201.771 60.5506C200.752 62.1883 200.067 64.0143 199.758 65.9216C199.514 67.1579 199.57 68.4354 199.924 69.6449C200.107 70.2458 200.427 70.7957 200.858 71.2511C201.289 71.7066 201.819 72.0553 202.406 72.2697C203.156 72.4452 203.939 72.4113 204.671 72.1715C205.403 71.9317 206.056 71.4953 206.559 70.9094C208.318 68.9935 208.75 66.1387 209.537 63.7566C210.465 60.9785 211.271 58.162 212.128 55.3647" fill="white"/>
<path d="M203.359 72.723C203.006 72.7246 202.654 72.6707 202.317 72.5634C201.683 72.3402 201.11 71.9693 200.646 71.4809C200.181 70.9925 199.838 70.4006 199.644 69.7533C199.274 68.5099 199.213 67.1941 199.466 65.9214C199.784 63.9746 200.481 62.1102 201.517 60.4355C202.414 59.094 203.504 57.8932 204.749 56.8718L205.537 56.1565C205.564 56.1246 205.597 56.0988 205.634 56.0808C205.671 56.0628 205.712 56.0529 205.754 56.0519C205.795 56.051 205.836 56.0588 205.874 56.0751C205.912 56.0913 205.947 56.1155 205.975 56.1461C206.003 56.1767 206.024 56.2129 206.037 56.2525C206.051 56.292 206.055 56.3338 206.051 56.3753C206.047 56.4167 206.034 56.4568 206.013 56.4929C205.992 56.5289 205.964 56.5601 205.931 56.5844C205.664 56.8335 205.397 57.0698 205.137 57.3061C203.932 58.2943 202.878 59.4539 202.006 60.7484C201.014 62.3563 200.346 64.1442 200.038 66.0108C199.798 67.1998 199.85 68.4297 200.19 69.5937C200.361 70.1508 200.657 70.6608 201.056 71.084C201.454 71.5071 201.945 71.832 202.489 72.0333C203.911 72.474 205.448 71.714 206.343 70.756C207.613 69.3701 208.191 67.3967 208.725 65.4935C208.896 64.8996 209.067 64.2801 209.258 63.7053C209.893 61.7894 210.496 59.7904 211.074 57.8681C211.328 57.0187 211.582 56.1693 211.842 55.3135C211.849 55.272 211.865 55.2324 211.888 55.1974C211.911 55.1624 211.941 55.1329 211.977 55.1107C212.012 55.0886 212.052 55.0743 212.094 55.069C212.135 55.0637 212.177 55.0674 212.217 55.0799C212.257 55.0923 212.294 55.1133 212.325 55.1413C212.357 55.1693 212.381 55.2037 212.398 55.2422C212.415 55.2807 212.423 55.3224 212.423 55.3644C212.422 55.4065 212.413 55.4479 212.395 55.4859C212.141 56.329 211.887 57.1784 211.627 58.0405C211.049 59.9565 210.452 61.949 209.81 63.8905C209.62 64.4525 209.455 65.0337 209.283 65.6532C208.731 67.6266 208.153 69.6703 206.743 71.152C206.313 71.6296 205.792 72.0149 205.211 72.2849C204.629 72.5548 203.999 72.7039 203.359 72.723Z" fill="#040047"/>
<path d="M188.868 52.7271H192.913C192.913 52.7271 192.45 59.4648 190.373 58.4749C188.297 57.485 188.868 52.7271 188.868 52.7271Z" fill="white"/>
<path d="M190.786 58.8326C190.601 58.8315 190.418 58.7878 190.253 58.7048C188.03 57.6128 188.563 52.8931 188.589 52.6888C188.598 52.6205 188.631 52.5577 188.683 52.512C188.734 52.4663 188.8 52.4406 188.868 52.4397H192.913C192.951 52.4395 192.989 52.4473 193.024 52.4627C193.059 52.4781 193.091 52.5007 193.116 52.5291C193.143 52.5583 193.163 52.5925 193.177 52.6299C193.19 52.6672 193.195 52.7068 193.193 52.7463C193.155 53.2636 192.799 57.8554 191.326 58.6857C191.163 58.7838 190.976 58.8347 190.786 58.8326ZM189.122 53.0081C189.046 53.9661 188.887 57.402 190.5 58.1939C190.583 58.2441 190.677 58.2706 190.773 58.2706C190.87 58.2706 190.964 58.2441 191.046 58.1939C192.005 57.6383 192.475 54.5025 192.608 53.0081H189.122Z" fill="#040047"/>
<path d="M134.462 71.0115C134.405 71.0111 134.35 70.9961 134.301 70.9682C134.252 70.9403 134.211 70.9002 134.182 70.8519C133.891 70.4255 133.691 69.9437 133.592 69.4362C133.494 68.9287 133.5 68.4063 133.611 67.9013C132.684 68.3803 131.566 68.7827 130.785 68.54C130.584 68.4792 130.401 68.3692 130.252 68.2199C130.104 68.0705 129.994 67.8865 129.934 67.6842C129.147 65.4234 134.379 62.658 135.014 62.3451C135.089 62.3089 135.175 62.3033 135.255 62.3295C135.334 62.3557 135.4 62.4116 135.439 62.4856C135.477 62.561 135.484 62.6484 135.457 62.7285C135.431 62.8087 135.374 62.8752 135.3 62.9135C133.217 63.98 130.086 66.1642 130.537 67.4734C130.567 67.5813 130.624 67.6799 130.701 67.7603C130.779 67.8406 130.875 67.9001 130.982 67.9333C131.801 68.1951 133.382 67.3649 134.373 66.739C134.559 66.5584 134.774 66.4095 135.008 66.2983C135.08 66.2666 135.161 66.2634 135.235 66.2895C135.309 66.3156 135.371 66.3689 135.408 66.4388C135.445 66.5073 135.456 66.5868 135.44 66.663C135.423 66.7391 135.38 66.8069 135.319 66.854C135.243 66.905 135.033 67.0583 134.728 67.2499C134.497 67.4654 134.322 67.7353 134.22 68.0354C134.122 68.4642 134.115 68.9092 134.2 69.3408C134.286 69.7724 134.461 70.1808 134.715 70.5389C134.757 70.6128 134.769 70.7003 134.748 70.7827C134.726 70.8651 134.674 70.9357 134.601 70.9796C134.557 70.9995 134.51 71.0104 134.462 71.0115Z" fill="#040047"/>
<path d="M133.801 35.8093C133.738 35.8112 133.676 35.7933 133.623 35.7582L120.923 27.4558C120.853 27.4078 120.805 27.3341 120.788 27.2505C120.771 27.1669 120.788 27.0801 120.834 27.0087C120.881 26.9387 120.953 26.8901 121.035 26.8733C121.117 26.8566 121.202 26.8731 121.272 26.9193L133.972 35.2217C134.043 35.2676 134.093 35.3397 134.111 35.4223C134.129 35.5049 134.113 35.5912 134.068 35.6624C134.038 35.7066 133.999 35.743 133.952 35.7686C133.906 35.7941 133.854 35.8081 133.801 35.8093Z" fill="#D1D3D4"/>
<path d="M130.912 45.4018H130.848L119.945 43.2304C119.862 43.2134 119.789 43.1645 119.742 43.0941C119.695 43.0236 119.676 42.9374 119.691 42.8536C119.708 42.7703 119.757 42.6969 119.827 42.6491C119.897 42.6014 119.983 42.5831 120.066 42.5982L130.969 44.7696C131.053 44.7772 131.131 44.8181 131.185 44.8834C131.239 44.9487 131.265 45.0329 131.258 45.1176C131.25 45.2023 131.21 45.2805 131.145 45.335C131.08 45.3895 130.996 45.4158 130.912 45.4082V45.4018Z" fill="#D1D3D4"/>
<path d="M124.155 58.807C124.08 58.8077 124.007 58.781 123.95 58.7316C123.893 58.6823 123.855 58.6138 123.844 58.5387C123.836 58.4975 123.836 58.455 123.845 58.4139C123.854 58.3728 123.871 58.3339 123.896 58.2998C123.92 58.2656 123.951 58.2369 123.987 58.2154C124.023 58.1939 124.063 58.18 124.105 58.1747L129.483 57.2359C129.524 57.2277 129.566 57.228 129.607 57.2369C129.648 57.2458 129.687 57.2631 129.721 57.2877C129.755 57.3122 129.783 57.3436 129.805 57.3797C129.826 57.4158 129.84 57.456 129.845 57.4977C129.853 57.5385 129.853 57.5806 129.845 57.6213C129.836 57.662 129.82 57.7006 129.796 57.7346C129.772 57.7687 129.742 57.7975 129.706 57.8194C129.671 57.8412 129.632 57.8557 129.591 57.8618L124.213 58.8006L124.155 58.807Z" fill="#D1D3D4"/>
<path d="M47.0917 121.056L44.558 147.432H89.7637L87.2618 115.953L47.0917 121.056Z" fill="#040047"/>
<path d="M89.7638 147.751H44.5582C44.5142 147.751 44.4707 147.742 44.4303 147.725C44.3899 147.707 44.3535 147.681 44.3232 147.649C44.2653 147.58 44.2358 147.491 44.2407 147.4L46.7807 121.024C46.7899 120.953 46.8223 120.887 46.8728 120.836C46.9234 120.785 46.9892 120.752 47.0601 120.743L87.2302 115.634C87.2731 115.628 87.3167 115.631 87.3582 115.643C87.3998 115.656 87.4383 115.676 87.4715 115.704C87.5046 115.732 87.5318 115.766 87.5514 115.804C87.5711 115.843 87.5828 115.885 87.5858 115.928L90.0877 147.407C90.0912 147.451 90.0856 147.495 90.0712 147.537C90.0569 147.578 90.034 147.617 90.0042 147.649C89.9743 147.682 89.9381 147.707 89.8979 147.725C89.8576 147.743 89.8141 147.752 89.7702 147.751H89.7638ZM44.9074 147.113H89.4209L86.9952 116.311L47.403 121.343L44.9074 147.113Z" fill="#040047"/>
<path d="M93.0721 60.3583L102.597 57.7526L97.9806 28.3749C97.9806 28.3749 93.3261 24.6899 93.688 23.0166C94.05 21.3434 96.5455 20.462 96.5455 20.462C96.5455 20.462 95.1168 16.5088 96.3106 16.1512C97.5044 15.7935 103.105 14.1139 103.931 15.5508C104.756 16.9878 107.741 23.2146 106.674 27.1487C106.674 27.1487 122.066 61.3418 115.983 66.0167C109.9 70.6916 91.7386 77.7039 91.7386 77.7039" fill="white"/>
<path d="M91.7641 78.075C91.6994 78.0764 91.6359 78.0574 91.5824 78.0208C91.5289 77.9842 91.4881 77.9317 91.4657 77.8706C91.4504 77.8313 91.443 77.7892 91.444 77.7469C91.445 77.7046 91.4543 77.663 91.4715 77.6244C91.4886 77.5857 91.5132 77.5509 91.5438 77.5219C91.5744 77.493 91.6105 77.4704 91.6498 77.4555C91.8276 77.3853 109.843 70.4304 115.818 65.813C117.469 64.5357 118.358 59.8991 113.335 44.9867C110.287 35.9754 106.445 27.4175 106.407 27.3345C106.379 27.2649 106.379 27.187 106.407 27.1174C107.436 23.343 104.502 17.1992 103.696 15.7622C103.347 15.1683 101.264 15.047 96.4314 16.5095C96.3984 16.5209 96.3682 16.5393 96.343 16.5636C96.3178 16.5878 96.2981 16.6173 96.2853 16.65C95.9615 17.2886 96.4758 19.3003 96.8759 20.4052C96.8932 20.4444 96.9021 20.4868 96.9021 20.5297C96.9021 20.5726 96.8932 20.6151 96.8759 20.6543C96.8578 20.6929 96.8322 20.7275 96.8005 20.7561C96.7689 20.7846 96.7319 20.8064 96.6917 20.8203C96.6917 20.8203 94.3549 21.625 94.0438 23.1003C93.8088 24.1796 96.4822 26.7661 98.2221 28.1456C98.2811 28.1969 98.3213 28.2666 98.3364 28.3436L102.959 57.7213C102.971 57.7996 102.954 57.8796 102.91 57.9457C102.867 58.0118 102.801 58.0593 102.724 58.079L93.1992 60.691C93.1588 60.7016 93.1167 60.704 93.0753 60.6982C93.0339 60.6923 92.9941 60.6783 92.9581 60.657C92.9221 60.6356 92.8907 60.6073 92.8656 60.5737C92.8405 60.5401 92.8222 60.5018 92.8119 60.4611C92.8004 60.4209 92.797 60.3787 92.8021 60.3371C92.8071 60.2955 92.8203 60.2554 92.8411 60.2191C92.8618 60.1827 92.8896 60.151 92.9227 60.1256C92.9559 60.1003 92.9938 60.0819 93.0341 60.0716L102.305 57.517L97.7458 28.5671C96.9457 27.9285 93.0722 24.6969 93.4405 22.9662C93.758 21.4845 95.4979 20.6223 96.2091 20.3286C95.9361 19.4983 95.282 17.3014 95.7519 16.3626C95.8021 16.2519 95.875 16.1531 95.9658 16.0727C96.0567 15.9924 96.1634 15.9323 96.279 15.8964C100.946 14.4849 103.632 14.3317 104.274 15.4429C105.328 17.2503 108.084 23.2536 107.08 27.1749C108.179 29.6336 122.32 61.6618 116.25 66.3175C110.179 70.9733 92.6214 77.7685 91.8721 78.0367C91.8386 78.0558 91.8021 78.0688 91.7641 78.075Z" fill="#040047"/>
<path d="M74.2507 57.4852C74.2507 57.4852 98.4823 57.351 99.6063 56.3931L106.928 74.0069C106.928 74.0069 80.5182 84.8192 73.4951 82.7117C65.9576 73.8409 74.2507 57.4852 74.2507 57.4852Z" fill="#FFE11B"/>
<path d="M79.2608 57.4465C77.9908 56.0798 55.5182 56.5524 49.3587 63.1944C43.1992 69.8363 43.8977 111.144 44.4692 123.866L90.9576 125.858C90.9576 125.858 86.4427 64.9953 79.2608 57.4465Z" fill="#FFE11B"/>
<path d="M90.9575 115.385C90.8808 115.384 90.8068 115.356 90.7486 115.306C90.6905 115.256 90.652 115.186 90.64 115.11C90.5765 114.682 83.9725 72.1356 83.1216 64.97C83.1126 64.8862 83.137 64.8023 83.1893 64.7365C83.2417 64.6707 83.3177 64.6283 83.401 64.6187C83.442 64.6124 83.4839 64.6147 83.524 64.6253C83.5642 64.6358 83.6018 64.6546 83.6345 64.6803C83.6672 64.706 83.6943 64.7382 83.7142 64.7748C83.7341 64.8114 83.7464 64.8518 83.7502 64.8933C84.6011 72.0462 91.2051 114.586 91.2686 115.014C91.2749 115.056 91.273 115.098 91.263 115.139C91.253 115.18 91.2351 115.218 91.2104 115.252C91.1856 115.286 91.1544 115.314 91.1186 115.336C91.0829 115.358 91.0432 115.372 91.0019 115.378L90.9575 115.385Z" fill="#040047"/>
<path d="M49.3588 63.2136L34.0362 86.8883L54.2673 96.7681C54.2673 96.7681 64.2559 77.398 61.1571 70.4686C58.0583 63.5393 49.3588 63.2136 49.3588 63.2136Z" fill="#FFE11B"/>
<path d="M68.5865 132.417L83.5217 98.8054L108.496 109.758L95.8026 139.787L68.5865 132.417Z" fill="white"/>
<path d="M95.8027 140.107H95.7201L68.504 132.737C68.4598 132.724 68.4188 132.703 68.3838 132.673C68.3488 132.643 68.3207 132.606 68.3014 132.564C68.2821 132.522 68.272 132.476 68.2719 132.43C68.2718 132.384 68.2817 132.338 68.3008 132.296L83.2297 98.6906C83.2632 98.6141 83.3252 98.5539 83.4024 98.5228C83.4795 98.4918 83.5657 98.4924 83.6424 98.5246L108.623 109.477C108.662 109.494 108.697 109.518 108.726 109.548C108.755 109.579 108.778 109.614 108.793 109.654C108.808 109.693 108.816 109.735 108.815 109.777C108.814 109.819 108.805 109.86 108.788 109.899L96.0884 139.915C96.0635 139.971 96.0234 140.018 95.9729 140.052C95.9224 140.086 95.8634 140.105 95.8027 140.107ZM69.0311 132.207L95.6185 139.404L108.084 109.924L83.6805 99.2271L69.0311 132.207Z" fill="#040047"/>
<path d="M65.5894 133.886L80.5182 100.274L105.499 111.227L92.8055 141.256L65.5894 133.886Z" fill="white"/>
<path d="M92.8055 141.576H92.7229L65.5068 134.206C65.4622 134.192 65.4207 134.17 65.3847 134.141C65.3488 134.111 65.319 134.075 65.2973 134.033C65.2783 133.991 65.2685 133.945 65.2685 133.899C65.2685 133.853 65.2783 133.807 65.2973 133.765L80.2261 100.159C80.2609 100.083 80.324 100.022 80.4022 99.9912C80.4805 99.9602 80.5676 99.961 80.6452 99.9934L105.626 110.946C105.665 110.963 105.699 110.987 105.728 111.017C105.758 111.048 105.781 111.083 105.796 111.122C105.811 111.162 105.819 111.203 105.818 111.246C105.817 111.288 105.808 111.329 105.791 111.368L93.0912 141.384C93.0656 141.439 93.0254 141.486 92.975 141.52C92.9246 141.554 92.866 141.573 92.8055 141.576ZM66.0402 133.676L92.634 140.873L105.093 111.393L80.6897 100.696L66.0402 133.676Z" fill="#040047"/>
<path d="M35.0522 87.3674C35.0522 87.3674 24.4477 104.751 24.8922 108.111C25.3367 111.47 50.4319 122.857 67.9452 121.656C67.9452 121.656 80.1944 124.077 82.5121 119.3C84.8299 114.523 82.2772 114.037 80.3404 113.316C78.4037 112.594 75.5525 111.4 75.5525 111.4L76.2574 109.126C74.9112 109.605 69.2724 112.766 69.2724 112.766L44.5582 103.123L50.5272 95.3314" fill="white"/>
<path d="M74.4095 122.595C72.236 122.574 70.0686 122.36 67.9325 121.956C60.3506 122.467 50.1525 120.615 39.9353 116.847C32.7344 114.21 24.9112 110.25 24.6064 108.11C24.1238 104.681 34.3473 87.8653 34.7664 87.1564C34.7879 87.1202 34.8164 87.0887 34.8501 87.0636C34.8839 87.0385 34.9222 87.0203 34.963 87.0103C35.0037 87.0002 35.046 86.9983 35.0875 87.0047C35.129 87.0112 35.1688 87.0259 35.2046 87.0479C35.2749 87.0938 35.3249 87.1654 35.3438 87.2476C35.3628 87.3298 35.3493 87.4162 35.3062 87.4885C32.3852 92.3423 24.8604 105.403 25.2351 108.053C25.6097 110.703 47.3648 121.465 65.1448 121.465C66.0846 121.465 67.0117 121.465 67.9325 121.369H68.015C68.1357 121.369 80.08 123.687 82.2327 119.185C83.0709 117.447 83.3122 116.196 82.9693 115.353C82.6264 114.51 81.6231 114.127 80.6579 113.788L80.2388 113.635C78.3338 112.926 75.4699 111.757 75.4445 111.719C75.369 111.691 75.3073 111.635 75.2728 111.562C75.2383 111.489 75.2338 111.405 75.2604 111.329L75.762 109.713C73.857 110.601 69.4501 113.047 69.412 113.073C69.3701 113.092 69.3246 113.102 69.2787 113.102C69.2327 113.102 69.1872 113.092 69.1453 113.073L44.4502 103.416C44.4041 103.399 44.3628 103.371 44.3297 103.334C44.2966 103.297 44.2726 103.253 44.2597 103.206C44.2472 103.158 44.2454 103.108 44.2541 103.059C44.2629 103.011 44.2821 102.965 44.3105 102.925L50.2795 95.1332C50.3327 95.072 50.4071 95.0336 50.4876 95.0257C50.568 95.0178 50.6484 95.0411 50.7124 95.0908C50.7763 95.1404 50.8191 95.2128 50.8318 95.293C50.8446 95.3733 50.8265 95.4555 50.7811 95.5227L45.0661 102.976L69.2152 112.447C70.0915 111.962 74.8921 109.305 76.1494 108.858C76.2046 108.839 76.2639 108.836 76.3209 108.848C76.3779 108.86 76.4305 108.888 76.4732 108.928C76.5164 108.969 76.547 109.021 76.5617 109.079C76.5763 109.136 76.5742 109.197 76.5558 109.254L75.9208 111.246C76.6764 111.553 78.8608 112.434 80.4293 113.015L80.8357 113.169C81.8834 113.539 83.0645 113.954 83.5281 115.084C83.9408 116.1 83.6932 117.524 82.7724 119.427C81.5786 121.963 77.8385 122.595 74.4095 122.595Z" fill="#040047"/>
<path d="M64.9352 55.205C62.1793 55.2497 59.6393 54.9496 57.1121 53.5381C56.008 53.0069 55.0958 52.143 54.5022 51.0666C54.2174 50.5252 54.1154 49.9053 54.2116 49.3005C54.3078 48.6956 54.597 48.1387 55.0356 47.7137C54.3901 47.5472 53.7932 47.2287 53.2942 46.7845C52.7951 46.3404 52.4082 45.7832 52.1654 45.1591C51.7018 43.8913 51.5856 42.5215 51.8289 41.1931C52.0829 39.4688 52.8766 37.6295 54.4895 36.9972C53.4544 35.9307 52.3305 34.6661 52.4639 33.1653C52.5849 32.4182 52.8857 31.7123 53.3401 31.1089C54.1269 29.8682 55.0284 28.7049 56.0325 27.6346C56.5659 27.0599 57.3025 26.4659 58.0518 26.6958C57.9572 25.2772 58.2591 23.8603 58.9234 22.6052C59.5878 21.3502 60.588 20.3072 61.811 19.5941C63.0123 18.8612 64.4226 18.5532 65.8179 18.7191C66.256 18.7702 70.0533 20.2583 69.9136 20.3541C71.6091 19.1151 74.8158 18.5595 76.7208 19.4983C77.5546 19.9247 78.2598 20.5677 78.7633 21.3605C79.2668 22.1532 79.5504 23.067 79.5847 24.0071C81.2228 24.2929 82.7802 24.9312 84.1503 25.8784C84.8306 26.359 85.3956 26.9862 85.8042 27.7143C86.2129 28.4424 86.4549 29.253 86.5125 30.087C86.5429 30.9242 86.2945 31.7476 85.8068 32.4267C85.3191 33.1058 84.6199 33.6018 83.8201 33.8359C84.676 34.2862 85.3406 35.0332 85.6908 35.9386C86.0411 36.8439 86.0533 37.8462 85.7251 38.7599C85.3501 39.6582 84.7171 40.4237 83.9072 40.9584C83.0973 41.4931 82.1473 41.7727 81.1785 41.7615C80.9097 41.7331 80.6379 41.7681 80.3848 41.8637C80.1128 42.0644 79.8946 42.33 79.7498 42.6364C79.1592 43.5369 78.1051 43.6774 77.3876 44.38C76.4351 45.3124 75.6731 46.7876 74.892 47.8797C74.076 48.9894 73.2028 50.0552 72.2758 51.073C71.2662 52.2098 70.4343 53.685 69.1897 54.5919C68.0785 55.403 67.2085 55.1092 65.9131 55.1603C65.5829 55.1922 65.2591 55.205 64.9352 55.205Z" fill="white"/>
<path d="M64.4081 55.5309C61.8172 55.6248 59.2469 55.0347 56.9532 53.8193C55.7922 53.2579 54.8336 52.3473 54.21 51.2136C53.952 50.6868 53.8378 50.1005 53.8791 49.5148C53.9204 48.929 54.1157 48.3648 54.4449 47.8799C53.8694 47.6357 53.3483 47.2783 52.9121 46.8286C52.4759 46.3789 52.1334 45.8461 51.9049 45.2614C51.4134 43.9427 51.2883 42.5142 51.543 41.1294C51.6954 40.1395 52.2224 37.8531 53.9877 36.876C52.9908 35.8222 52.0827 34.5896 52.178 33.1335C52.2982 32.3419 52.6052 31.5907 53.0733 30.943C53.8726 29.6868 54.7845 28.5068 55.7975 27.4176C56.2681 26.8205 56.9513 26.4311 57.7025 26.3319C57.6776 24.913 58.0307 23.5132 58.7253 22.2779C59.4198 21.0426 60.4304 20.0167 61.6522 19.3068C62.9134 18.5402 64.392 18.2167 65.8559 18.3872C67.2222 18.8238 68.5568 19.3551 69.85 19.9774C71.5963 18.8151 74.7903 18.2211 76.835 19.2174C77.682 19.6506 78.4045 20.2949 78.9336 21.0886C79.4627 21.8824 79.7808 22.7993 79.8577 23.7518C81.4561 24.0497 82.9721 24.69 84.3026 25.6294C85.024 26.1395 85.6222 26.806 86.053 27.5798C86.4839 28.3536 86.7364 29.2149 86.7918 30.0999C86.8126 30.8857 86.6135 31.6615 86.2172 32.339C85.8209 33.0165 85.2433 33.5684 84.5503 33.9318C85.2878 34.496 85.8275 35.2817 86.0912 36.175C86.3549 37.0684 86.329 38.023 86.0172 38.9005C85.6155 39.8494 84.9447 40.6583 84.0887 41.2262C83.2327 41.7941 82.2293 42.0959 81.2038 42.0937H81.0832C80.894 42.071 80.7022 42.0951 80.5244 42.164C80.3544 42.286 80.217 42.4484 80.1243 42.6366L80.01 42.8218C79.6361 43.3292 79.1371 43.7298 78.5623 43.9841C78.2141 44.1501 77.8912 44.3652 77.6034 44.6228C76.9622 45.3193 76.398 46.0838 75.9206 46.9027C75.6603 47.3179 75.4063 47.7202 75.1459 48.0778C74.3246 49.2047 73.4428 50.2856 72.5043 51.3158C72.1678 51.6926 71.8694 52.1077 71.5264 52.542C70.9265 53.4248 70.2013 54.2144 69.3738 54.8858C68.6196 55.4162 67.6956 55.644 66.783 55.5245C66.5163 55.5245 66.2305 55.5245 65.9194 55.5245C65.6082 55.5245 65.2844 55.5245 64.9352 55.5245H64.4017L64.4081 55.5309ZM57.6834 26.945C57.1023 27.035 56.5799 27.3517 56.2293 27.8264C55.2412 28.8847 54.3526 30.0328 53.575 31.2559C53.1646 31.8231 52.8927 32.4794 52.7812 33.1718C52.6606 34.513 53.721 35.7264 54.6862 36.7419C54.7238 36.7783 54.7512 36.8241 54.7657 36.8745C54.7801 36.9249 54.7812 36.9783 54.7688 37.0293C54.7592 37.0808 54.7367 37.1289 54.7033 37.1692C54.67 37.2094 54.6269 37.2404 54.5783 37.2592C52.7749 37.9617 52.2542 40.2544 52.1081 41.206C51.8684 42.4887 51.9781 43.8128 52.4256 45.0379C52.6544 45.6139 53.0161 46.1268 53.481 46.5344C53.9458 46.942 54.5005 47.2324 55.099 47.3817C55.1585 47.3952 55.2132 47.425 55.2569 47.4679C55.3006 47.5107 55.3317 47.5649 55.3467 47.6244C55.3586 47.6831 55.3543 47.7439 55.3341 47.8002C55.314 47.8566 55.2787 47.9062 55.2324 47.9437C54.8498 48.3244 54.5998 48.8192 54.5197 49.3543C54.4396 49.8895 54.5337 50.4364 54.7878 50.9134C55.3506 51.9303 56.2169 52.7435 57.2643 53.2381C59.6263 54.4664 62.2747 55.0291 64.9288 54.8667C65.2526 54.8667 65.5638 54.8667 65.9003 54.8667C66.2369 54.8667 66.5353 54.8667 66.8084 54.8667C67.578 54.987 68.3641 54.8064 69.0055 54.3621C69.7802 53.7264 70.4602 52.9823 71.0248 52.1524C71.3486 51.7245 71.6598 51.2839 72.0408 50.8751C72.9617 49.8574 73.8286 48.7915 74.6379 47.6819C74.8856 47.3306 75.1396 46.9347 75.3936 46.5323C75.8927 45.6695 76.487 44.8661 77.1652 44.1374C77.497 43.8394 77.869 43.59 78.2702 43.3966C78.7491 43.1896 79.1669 42.8619 79.483 42.445C79.5205 42.392 79.5545 42.3365 79.5846 42.2789C79.7283 41.989 79.9478 41.7439 80.2196 41.57C80.4897 41.4537 80.784 41.4054 81.0768 41.4295H81.1912C82.0893 41.4345 82.9688 41.1722 83.7191 40.6755C84.4694 40.1789 85.0568 39.4702 85.4076 38.6386C85.7067 37.7991 85.694 36.8791 85.372 36.0482C85.0499 35.2173 84.4401 34.5315 83.655 34.117C83.5707 34.1086 83.4933 34.0668 83.4397 34.0009C83.3862 33.935 83.3608 33.8505 83.3692 33.7658C83.3776 33.6811 83.4191 33.6032 83.4846 33.5493C83.5501 33.4954 83.6342 33.4699 83.7184 33.4784C84.4448 33.2601 85.0778 32.8041 85.5173 32.1828C85.9567 31.5616 86.1773 30.8105 86.1442 30.0489C86.0879 29.2632 85.8581 28.5 85.4714 27.815C85.0847 27.13 84.5509 26.5404 83.909 26.0892C82.5776 25.1638 81.06 24.5446 79.4639 24.2755C79.3945 24.2597 79.3323 24.2209 79.2873 24.1653C79.2424 24.1097 79.2174 24.0406 79.2163 23.9689C79.1851 23.0871 78.9195 22.2298 78.4471 21.4862C77.9747 20.7427 77.3128 20.1401 76.5302 19.7411C74.7014 18.8406 71.6026 19.4345 70.0532 20.5713C69.9846 20.6198 69.8998 20.6396 69.8169 20.6265C69.734 20.6134 69.6593 20.5684 69.6088 20.5011C68.3507 19.9114 67.0545 19.4078 65.7289 18.9939C64.4026 18.8399 63.0629 19.1318 61.9189 19.8241C60.7521 20.5109 59.7973 21.5095 59.1606 22.709C58.5239 23.9086 58.2302 25.2621 58.3121 26.6193C58.3177 26.672 58.3102 26.7253 58.2903 26.7744C58.2703 26.8234 58.2385 26.8667 58.1978 26.9003C58.1581 26.9342 58.1103 26.9573 58.0592 26.9674C58.0081 26.9774 57.9552 26.9741 57.9057 26.9578C57.8326 26.943 57.7578 26.9387 57.6834 26.945Z" fill="#040047"/>
<path d="M80.6452 42.9111C80.6452 42.9111 84.5949 48.4929 83.8583 49.7063C83.1217 50.9198 80.5118 50.2172 80.5118 50.2172" fill="white"/>
<path d="M82.0548 50.7026C81.5091 50.6962 80.9658 50.6277 80.4355 50.4982C80.3544 50.4744 80.2858 50.4197 80.2443 50.3457C80.2028 50.2717 80.1917 50.1844 80.2133 50.1023C80.2235 50.0617 80.2418 50.0236 80.267 49.9902C80.2922 49.9569 80.3238 49.9289 80.3599 49.9081C80.3961 49.8872 80.436 49.8739 80.4773 49.8689C80.5187 49.8638 80.5606 49.8672 80.6006 49.8787C81.2356 50.0512 83.0898 50.3322 83.5915 49.5083C83.9788 48.8697 82.2326 45.6764 80.4165 43.0644C80.3921 43.03 80.3747 42.9912 80.3654 42.9501C80.356 42.909 80.3548 42.8664 80.3619 42.8249C80.369 42.7833 80.3842 42.7436 80.4066 42.7079C80.4291 42.6723 80.4583 42.6415 80.4927 42.6173C80.5263 42.593 80.5644 42.5756 80.6048 42.5663C80.6451 42.557 80.6869 42.5558 80.7278 42.563C80.7686 42.5701 80.8075 42.5854 80.8424 42.6079C80.8773 42.6304 80.9073 42.6596 80.9308 42.694C81.8897 44.0415 84.944 48.5503 84.1566 49.8404C83.9084 50.1524 83.585 50.3954 83.2171 50.5463C82.8492 50.6972 82.4491 50.751 82.0548 50.7026Z" fill="#040047"/>
<path d="M79.0195 30.4383C79.3835 30.6279 79.6724 30.9365 79.8387 31.3133C80.4869 32.6246 80.8895 34.0448 81.0261 35.5028C81.3838 38.3562 81.564 41.2293 81.5659 44.1054C81.6675 47.8989 81.6802 51.6946 81.604 55.4924C81.5595 57.9001 75.3683 58.1683 74.2507 57.485L75.5207 66.9561C75.5207 66.9561 72.5743 67.8758 67.5006 65.7235C62.427 63.5713 62.3381 62.3834 62.3381 62.3834L62.3762 51.3987C62.3762 51.3987 66.4719 51.2901 68.7262 46.2895C69.0818 45.4976 69.1897 44.2714 69.6977 43.5817C70.3327 42.7386 71.2979 42.5343 71.7297 41.4486C71.9282 40.9435 72.0069 40.3988 71.9595 39.8578C71.9121 39.3168 71.7399 38.7944 71.4567 38.332C71.336 38.134 71.1836 37.8849 71.2916 37.6933C71.3743 37.5816 71.4865 37.4953 71.6154 37.4443C71.9547 37.2521 72.2526 36.9939 72.4917 36.6847C72.7308 36.3756 72.9063 36.0217 73.0079 35.6436C73.1096 35.2655 73.1354 34.8709 73.0838 34.4827C73.0323 34.0945 72.9044 33.7205 72.7076 33.3825C74.2761 33.325 75.2476 31.7156 75.9525 30.3042C75.7366 30.7449 78.4036 30.3042 78.448 30.3042C78.6456 30.3097 78.84 30.3553 79.0195 30.4383Z" fill="white"/>
<path d="M73.7426 67.4735C71.5504 67.4207 69.391 66.9256 67.3926 66.0173C62.3888 63.8906 62.0523 62.6325 62.0332 62.4026L62.0713 51.3987C62.0729 51.3156 62.106 51.2362 62.1638 51.1769C62.2217 51.1175 62.2999 51.0826 62.3825 51.0794C62.5412 51.0794 66.3068 50.9006 68.4467 46.1746C68.5869 45.8286 68.6995 45.472 68.7833 45.1081C68.9027 44.5032 69.1308 43.9254 69.4564 43.4029C69.7264 43.0616 70.0453 42.7624 70.4025 42.5151C70.8608 42.2377 71.2258 41.8283 71.4503 41.34C71.6312 40.8828 71.7031 40.3892 71.6601 39.899C71.6171 39.4088 71.4604 38.9355 71.2026 38.5172C71.0887 38.3853 71.0126 38.2246 70.9824 38.0525C70.9522 37.8804 70.969 37.7033 71.0312 37.5401C71.1298 37.3729 71.2821 37.2446 71.463 37.1761C71.776 37.0121 72.051 36.7833 72.2699 36.5048C72.4888 36.2264 72.6466 35.9045 72.733 35.5603C72.8314 35.2263 72.8591 34.8753 72.8143 34.5298C72.7694 34.1844 72.653 33.8523 72.4726 33.5549C72.4424 33.5076 72.4251 33.4531 72.4225 33.397C72.4199 33.3408 72.4322 33.2849 72.4579 33.235C72.4837 33.1851 72.5221 33.1429 72.5693 33.1128C72.6165 33.0826 72.6708 33.0655 72.7266 33.0632C74.1236 33.0121 75.0507 31.4857 75.7048 30.1637C75.7231 30.1259 75.7486 30.0921 75.7799 30.0643C75.8112 30.0364 75.8477 30.0151 75.8872 30.0014C75.9267 29.9878 75.9685 29.9821 76.0102 29.9848C76.0519 29.9874 76.0927 29.9983 76.1302 30.0168C76.1641 30.0321 76.1945 30.0541 76.2196 30.0815C76.2447 30.109 76.264 30.1413 76.2763 30.1765C76.9633 30.2051 77.6513 30.1559 78.3273 30.0296H78.4924C78.71 30.0336 78.9251 30.0768 79.1274 30.1573C79.5562 30.3725 79.899 30.7285 80.099 31.1664C80.7687 32.5104 81.1843 33.9678 81.3245 35.4645C81.6635 38.0543 81.8396 40.663 81.8516 43.2751V44.1118C81.9532 47.8989 81.9659 51.7308 81.8897 55.5116C81.863 55.8923 81.7295 56.2576 81.5047 56.565C81.2799 56.8725 80.973 57.1096 80.6197 57.2487C78.9877 58.1556 75.9905 58.3153 74.5808 57.9768L75.8 66.9178C75.8109 66.9918 75.7952 67.0672 75.7556 67.1305C75.7159 67.1937 75.6551 67.2406 75.5841 67.2627C74.9828 67.4173 74.3632 67.4882 73.7426 67.4735ZM62.6809 62.3643C62.6809 62.3643 63.1 63.4755 67.653 65.4042C71.7043 67.1286 74.3776 66.8412 75.1904 66.6815L73.9204 57.5042C73.9121 57.4446 73.9206 57.3839 73.9451 57.329C73.9695 57.2741 74.0089 57.2272 74.0587 57.1939C74.1085 57.1605 74.1666 57.1419 74.2264 57.1404C74.2862 57.1388 74.3452 57.1542 74.3967 57.1849C75.1269 57.6319 78.6067 57.6191 80.353 56.6548C80.5988 56.558 80.8139 56.3956 80.9749 56.1852C81.136 55.9749 81.2371 55.7243 81.2674 55.4605C81.3436 51.6925 81.3309 47.867 81.2293 44.0862V43.256C81.2169 40.6696 81.043 38.0865 80.7086 35.522C80.5759 34.1074 80.1886 32.7289 79.5656 31.4538C79.3179 31.0323 79.1528 30.8151 78.9306 30.7066C78.7874 30.6576 78.6373 30.6318 78.4861 30.6299H78.4289C77.668 30.7799 76.8898 30.8208 76.1175 30.7513C75.4825 32.0286 74.5745 33.3059 73.2537 33.5996C73.5181 34.2644 73.5582 34.9981 73.368 35.688C73.262 36.1129 73.0688 36.5107 72.8009 36.8561C72.533 37.2014 72.1962 37.4866 71.8122 37.6934C71.7446 37.7216 71.6806 37.7581 71.6217 37.8019C71.6217 37.8019 71.6217 37.9041 71.7805 38.1404C72.0887 38.6459 72.2761 39.2164 72.3279 39.8071C72.3797 40.3978 72.2944 40.9925 72.0789 41.5444C71.8081 42.1421 71.3658 42.6447 70.8089 42.9877C70.5008 43.1974 70.2248 43.4513 69.9898 43.7413C69.718 44.2034 69.5269 44.7089 69.4246 45.2358C69.3313 45.6328 69.206 46.0215 69.05 46.3981C67.0751 50.7665 63.7604 51.5073 62.7 51.6542L62.6619 62.3451L62.6809 62.3643Z" fill="#040047"/>
<path d="M71.1709 44.1884C71.0311 43.2473 70.6356 42.3632 70.0279 41.6338C69.63 41.0092 69.1421 40.4474 68.5801 39.967C68.299 39.7278 67.9688 39.554 67.6131 39.4579C67.2575 39.3619 66.8852 39.346 66.5227 39.4113C66.2103 39.5044 65.9207 39.6621 65.6724 39.8743C65.4242 40.0866 65.2228 40.3488 65.0813 40.6439C64.804 41.2436 64.665 41.8986 64.6749 42.5599C64.6609 43.9891 65.0216 45.3968 65.7205 46.6412C66.4195 47.8857 67.4321 48.9231 68.6563 49.6488L68.4404 49.4317" fill="white"/>
<path d="M68.6817 49.9361C68.6261 49.9332 68.5719 49.918 68.5229 49.8914C67.2532 49.1318 66.203 48.0513 65.4767 46.7574C64.7505 45.4634 64.3733 44.0009 64.3827 42.515C64.376 41.8109 64.528 41.1144 64.8272 40.4777C64.9856 40.1396 65.2144 39.8397 65.4982 39.5984C65.782 39.3571 66.114 39.18 66.4719 39.0791C66.882 39.0011 67.3045 39.0181 67.7072 39.1288C68.1099 39.2394 68.4822 39.4409 68.796 39.7178C69.3778 40.2201 69.8809 40.8079 70.2882 41.4613C70.9344 42.2392 71.3503 43.1841 71.4884 44.1883C71.4909 44.2299 71.4852 44.2716 71.4715 44.311C71.4578 44.3504 71.4365 44.3866 71.4087 44.4175C71.3808 44.4485 71.3472 44.4735 71.3096 44.4912C71.272 44.5088 71.2314 44.5188 71.1899 44.5204C71.1478 44.5248 71.1053 44.5204 71.065 44.5074C71.0247 44.4944 70.9876 44.4731 70.9559 44.4449C70.9242 44.4166 70.8988 44.3821 70.8811 44.3434C70.8635 44.3047 70.854 44.2628 70.8534 44.2202C70.715 43.3354 70.3396 42.5053 69.7675 41.8189C69.3972 41.2189 68.9391 40.6785 68.4086 40.2159C68.1663 40.0053 67.8806 39.8514 67.5721 39.7653C67.2635 39.6792 66.9398 39.6629 66.6243 39.7178C66.357 39.7994 66.1101 39.9372 65.8998 40.1222C65.6896 40.3072 65.521 40.5351 65.4051 40.7907C65.1508 41.3404 65.0228 41.9407 65.0304 42.547C65.0219 43.8365 65.3284 45.1084 65.9229 46.2509C66.5175 47.3934 67.382 48.3716 68.4404 49.0995C68.4886 49.0937 68.5376 49.0988 68.5837 49.1142C68.6298 49.1297 68.6719 49.1552 68.7071 49.1889L68.923 49.406C68.9726 49.4649 68.9999 49.5396 68.9999 49.6168C68.9999 49.694 68.9726 49.7687 68.923 49.8275C68.8926 49.8617 68.8554 49.889 68.8138 49.9077C68.7723 49.9264 68.7272 49.9361 68.6817 49.9361Z" fill="#040047"/>
<path d="M74.2507 57.4851C74.2507 57.4851 71.0059 56.5974 69.4374 54.4324C69.4374 54.4324 69.8502 60.1802 74.8286 61.7066L74.2507 57.4851Z" fill="#040047"/>
<path d="M74.8286 62.0258C74.7972 62.0318 74.7649 62.0318 74.7334 62.0258C69.6089 60.4803 69.1263 54.5345 69.12 54.477C69.1156 54.4073 69.1335 54.338 69.1713 54.2793C69.209 54.2207 69.2645 54.1758 69.3295 54.1513C69.3943 54.1265 69.4653 54.1237 69.5318 54.1433C69.5983 54.1629 69.6566 54.2038 69.6978 54.2598C71.1774 56.3099 74.3079 57.1912 74.3397 57.1976C74.3993 57.2136 74.4529 57.247 74.4936 57.2936C74.5343 57.3402 74.5603 57.3979 74.5683 57.4595L75.1398 61.6809C75.1485 61.7341 75.1431 61.7887 75.1242 61.8392C75.1052 61.8897 75.0734 61.9342 75.0318 61.9683C74.9716 62.0081 74.9006 62.0282 74.8286 62.0258ZM69.9328 55.4733C70.3011 57.0763 71.3806 60.0588 74.4413 61.2211L73.965 57.7213C72.4812 57.2597 71.1083 56.4943 69.9328 55.4733Z" fill="#040047"/>
<path d="M78.3239 39.814C78.3262 39.0662 78.0921 38.4593 77.801 38.4584C77.51 38.4575 77.2721 39.0629 77.2698 39.8106C77.2674 40.5584 77.5015 41.1653 77.7926 41.1662C78.0837 41.1671 78.3215 40.5617 78.3239 39.814Z" fill="#040047"/>
<path d="M80.5182 50.1852L76.2637 48.7227C76.2637 48.7227 75.1905 53.8638 77.2479 55.6264C79.3053 57.3891 80.4801 52.7014 80.5182 50.1852Z" fill="white"/>
<path d="M78.1051 56.3226C77.7007 56.3049 77.3168 56.1391 77.0256 55.8563C74.8476 53.9915 75.889 48.8312 75.9334 48.646C75.943 48.6014 75.9621 48.5594 75.9896 48.523C76.017 48.4865 76.052 48.4566 76.0922 48.4353C76.1319 48.4165 76.1753 48.4067 76.2192 48.4067C76.2631 48.4067 76.3064 48.4165 76.3462 48.4353L80.6006 49.8978C80.6642 49.9194 80.7194 49.9607 80.7582 50.0157C80.7969 50.0708 80.8174 50.1368 80.8165 50.2043C80.8165 51.7946 80.1815 55.5179 78.6322 56.2332C78.4648 56.3002 78.2851 56.3307 78.1051 56.3226ZM76.4922 49.1378C76.3017 50.3001 75.8572 54.0043 77.4384 55.371C77.9527 55.818 78.2702 55.6711 78.3718 55.6264C79.4068 55.1538 80.099 52.3502 80.1752 50.4023L76.4922 49.1378Z" fill="#040047"/>
<path d="M101.314 25.9485C101.236 25.9475 101.16 25.9178 101.102 25.8649C101.043 25.8121 101.006 25.7396 100.997 25.6611C100.794 23.8346 98.0505 24.0262 98.0187 24.0262C97.9447 24.033 97.8707 24.0129 97.8101 23.9695C97.7495 23.9262 97.7064 23.8625 97.6885 23.7899C97.67 23.717 97.6777 23.6398 97.7102 23.5721C97.7427 23.5043 97.798 23.4503 97.8663 23.4195C98.8569 22.9661 101.524 21.5419 101.975 20.3987C101.982 20.3736 101.982 20.3471 101.975 20.3221C101.752 19.9644 99.257 20.1943 96.6281 20.8266C96.5864 20.8362 96.5432 20.8375 96.501 20.8304C96.4588 20.8233 96.4184 20.8078 96.3822 20.785C96.3459 20.7622 96.3145 20.7324 96.2897 20.6973C96.2648 20.6623 96.2471 20.6226 96.2375 20.5807C96.2279 20.5388 96.2267 20.4954 96.2338 20.4529C96.2409 20.4105 96.2562 20.3699 96.2789 20.3334C96.3016 20.2969 96.3312 20.2653 96.3661 20.2404C96.4009 20.2154 96.4403 20.1976 96.482 20.1879C97.6885 19.8942 101.702 19.0128 102.457 19.8878C102.54 19.9878 102.592 20.1092 102.609 20.238C102.626 20.3668 102.607 20.4978 102.553 20.6158C102.127 21.6888 100.368 22.7936 99.1998 23.4323C100.286 23.6239 101.467 24.1986 101.619 25.5717C101.624 25.6137 101.62 25.6561 101.608 25.6966C101.596 25.737 101.576 25.7746 101.549 25.8073C101.523 25.84 101.49 25.867 101.453 25.8869C101.416 25.9067 101.375 25.919 101.333 25.923L101.314 25.9485Z" fill="#040047"/>
<path d="M51.7145 93.5623C51.6514 93.5642 51.5893 93.5463 51.5367 93.5112C51.4671 93.4644 51.4187 93.3918 51.402 93.3093C51.3854 93.2268 51.4018 93.1409 51.4478 93.0705C51.5494 92.9173 61.3093 78.0687 62.0523 72.1357C62.0561 72.0933 62.0686 72.0522 62.0888 72.0148C62.109 71.9773 62.1366 71.9445 62.1699 71.9182C62.2032 71.8919 62.2415 71.8727 62.2824 71.8618C62.3233 71.8509 62.366 71.8485 62.4079 71.8547C62.4905 71.8674 62.565 71.9117 62.6159 71.9783C62.6668 72.045 62.6901 72.1288 62.6809 72.2124C61.9189 78.2987 52.3812 92.8087 51.9748 93.4218C51.9473 93.4659 51.9088 93.5021 51.8631 93.5267C51.8175 93.5514 51.7663 93.5636 51.7145 93.5623Z" fill="#040047"/>
</g>
<defs>
<clipPath id="clip0">
<rect width="254" height="148" fill="white" transform="translate(0 -1)"/>
</clipPath>
</defs>
</svg>
