<svg width="254" height="148" viewBox="0 0 254 148" fill="none" xmlns="http://www.w3.org/2000/svg">
<path d="M70.5331 129.156L62.0961 138.977C62.0961 138.977 45.7684 129.871 46.3682 128.077C46.968 126.282 57.5776 128.991 57.5776 128.991L62.8425 122.21" fill="white"/>
<path d="M62.0959 139.307C62.037 139.308 61.9791 139.292 61.9293 139.261C56.951 136.486 45.435 129.824 46.0548 127.97C46.6746 126.116 54.6718 127.917 57.4509 128.632L62.5824 122.01C62.6374 121.943 62.7167 121.899 62.8036 121.888C62.8906 121.876 62.9784 121.899 63.0489 121.951C63.1186 122.005 63.164 122.083 63.1753 122.17C63.1865 122.257 63.1627 122.345 63.1089 122.414L57.8441 129.195C57.8044 129.247 57.7504 129.285 57.6888 129.307C57.6272 129.328 57.5607 129.331 57.4975 129.315C52.5192 128.043 46.9878 127.288 46.6813 128.189C46.5347 129.215 54.4786 134.347 62.0093 138.566L70.2798 128.937C70.3392 128.881 70.4173 128.849 70.4991 128.847C70.5809 128.844 70.6607 128.872 70.7234 128.924C70.786 128.977 70.827 129.05 70.8386 129.131C70.8502 129.211 70.8315 129.293 70.7862 129.361L62.3425 139.181C62.3142 139.22 62.2772 139.252 62.2343 139.274C62.1915 139.295 62.1441 139.307 62.0959 139.307Z" fill="#040047"/>
<path d="M97.6835 35.9375C96.7987 35.0777 95.6836 34.4892 94.4712 34.2423C93.4316 34.09 92.8585 34.527 91.9921 34.9045C91.6456 35.0568 91.6056 35.5667 91.239 35.719C90.8725 35.8713 90.1194 35.4938 89.6996 35.4806C88.5788 35.4182 87.4588 35.6148 86.4274 36.0548C85.396 36.4949 84.4813 37.1665 83.755 38.0168C82.8557 39.2675 82.1545 40.6477 81.6757 42.1092C79.1832 48.3604 75.3645 54.6381 69.16 57.3399C74.7648 61.3131 81.6157 63.8361 88.4867 63.4388C91.8437 63.2406 95.1166 62.3163 98.0767 60.7304C100.403 59.4788 104.628 56.8896 105.048 54.0156C105.441 51.3205 104.155 47.1883 103.302 44.6455C102.24 41.2986 100.301 38.293 97.6835 35.9375Z" fill="white"/>
<path d="M87.0742 63.7966C80.9896 63.7966 74.6185 61.6245 68.9672 57.5983C68.9204 57.5633 68.8836 57.5168 68.8602 57.4634C68.8369 57.4101 68.8278 57.3516 68.8339 57.2937C68.8396 57.2365 68.8605 57.1818 68.8944 57.1353C68.9284 57.0888 68.9742 57.052 69.0271 57.0288C74.1853 54.7906 78.2239 49.8638 81.3695 41.9836L81.5095 41.626C81.9785 40.2576 82.6526 38.9672 83.5088 37.7985C84.2665 36.9086 85.2221 36.2061 86.3001 35.7463C87.378 35.2866 88.5488 35.0824 89.72 35.1496C89.9465 35.1679 90.1702 35.2123 90.3864 35.2821C90.6194 35.3647 90.8654 35.4051 91.1128 35.4013C91.1861 35.4013 91.2528 35.2556 91.3261 35.1364C91.4288 34.9057 91.6074 34.7166 91.8326 34.6C91.9992 34.5272 92.1525 34.4477 92.2991 34.3749C92.9575 33.9749 93.7315 33.8048 94.4983 33.8915C95.7748 34.1598 96.9486 34.782 97.8838 35.686C100.541 38.0839 102.512 41.1389 103.595 44.5397C104.541 47.3474 105.748 51.3802 105.355 54.0688C104.941 56.8633 101.249 59.3664 98.217 61.0219C95.2133 62.6221 91.8958 63.5552 88.4937 63.7568C88.0272 63.7833 87.554 63.7966 87.0742 63.7966ZM69.8269 57.4195C75.6848 61.4524 82.2825 63.4787 88.4871 63.1211C91.7918 62.9342 95.0151 62.03 97.9304 60.4723C102.029 58.2672 104.442 55.9759 104.728 54.0026C105.101 51.4597 103.922 47.5196 103.002 44.7847C101.955 41.4933 100.049 38.5365 97.4773 36.2158C96.6398 35.3968 95.5862 34.8297 94.4383 34.5802C93.803 34.5101 93.1628 34.6597 92.6256 35.004C92.4723 35.0768 92.3124 35.1563 92.1391 35.2291C92.0476 35.3002 91.9764 35.3938 91.9325 35.5006C91.8171 35.7499 91.6129 35.948 91.3594 36.0569C90.9857 36.1246 90.6004 36.0879 90.2464 35.9509C90.07 35.8984 89.8894 35.8607 89.7066 35.8383C88.6364 35.7686 87.5645 35.947 86.5756 36.3596C85.5867 36.7722 84.7079 37.4076 84.0086 38.2156C83.1998 39.3303 82.5661 40.5606 82.1293 41.8644L81.9826 42.222C78.877 50.0095 74.8984 54.976 69.8269 57.4195Z" fill="#040047"/>
<path d="M86.1075 57.0423C87.2138 55.8835 83.2085 56.7841 82.8353 64.3861C82.5487 70.187 84.4347 79.6632 84.4347 79.6632L71.8924 90.0862L79.6431 92.2847C79.6431 92.2847 93.7782 82.0736 93.7715 81.3253C93.7648 80.577 86.1075 57.0423 86.1075 57.0423Z" fill="white"/>
<path d="M79.6434 92.5892C79.6149 92.5955 79.5853 92.5955 79.5568 92.5892L71.8061 90.3907C71.7531 90.3743 71.7054 90.3442 71.6679 90.3035C71.6304 90.2628 71.6045 90.2129 71.5928 90.1589C71.5834 90.1053 71.5883 90.0502 71.6071 89.9991C71.6258 89.948 71.6576 89.9026 71.6995 89.8675L84.1019 79.5637C83.8486 78.2393 82.2625 69.7233 82.5291 64.386C82.8023 58.8831 84.9949 56.5985 86.0145 56.3601C86.1109 56.3247 86.2165 56.3224 86.3143 56.3537C86.4122 56.3849 86.4966 56.4477 86.5543 56.5322C86.5985 56.6297 86.6119 56.7381 86.5929 56.8433C86.5738 56.9485 86.5232 57.0455 86.4477 57.1216C87.8406 61.3928 94.0451 80.5967 94.0784 81.3251C94.1117 82.0535 86.3277 87.828 79.8233 92.5296C79.7712 92.5679 79.7082 92.5887 79.6434 92.5892ZM72.5259 89.9404L79.5834 91.927C84.735 88.2054 92.8655 82.1529 93.4586 81.2589C93.252 80.1398 88.7936 66.2931 85.8146 57.1083C85.0349 57.6845 83.3754 59.6578 83.1488 64.3926C82.8689 70.0942 84.7283 79.5041 84.7483 79.6233C84.7577 79.6768 84.7528 79.732 84.7341 79.7831C84.7154 79.8342 84.6835 79.8796 84.6417 79.9146L72.5259 89.9404Z" fill="#040047"/>
<path d="M118.803 146.327C158.808 146.327 191.238 144.279 191.238 141.751C191.238 139.224 158.808 137.176 118.803 137.176C78.7982 137.176 46.368 139.224 46.368 141.751C46.368 144.279 78.7982 146.327 118.803 146.327Z" fill="#E2E2E2"/>
<path d="M108.187 50.7446C107.727 50.387 87.3407 51.6452 83.822 58.4063C80.3032 65.1674 92.9654 85.5566 92.9654 85.5566L118.75 77.8817C118.75 77.8817 120.589 60.3863 108.187 50.7446Z" fill="#FFE11B"/>
<path d="M189.618 110.35C192.95 125.58 181.888 136.659 181.888 136.659H103.988C103.988 136.659 92.9385 125.627 96.2506 110.35C99.5628 95.0725 123.041 86.7486 130.179 80.4842C137.316 74.2197 134.771 63.5715 123.548 55.4264C112.325 47.2813 97.1303 42.1161 97.5569 24.5214C97.8101 13.2639 106.74 5.93335 106.74 5.93335H179.162C179.162 5.93335 188.092 13.2176 188.345 24.5214C188.745 42.1161 173.55 47.2813 162.321 55.4264C151.092 63.5715 148.546 74.2197 155.69 80.4842C162.834 86.7486 186.306 95.1056 189.618 110.35Z" fill="white"/>
<path d="M181.888 136.963H103.988C103.905 136.963 103.826 136.929 103.768 136.871C103.662 136.758 92.6453 125.514 95.9575 110.283C98.3567 99.251 111.326 91.7019 120.796 86.1924C124.648 83.9541 127.966 82.0205 129.979 80.2326C131.273 79.1512 132.297 77.7867 132.971 76.246C133.646 74.7052 133.951 73.0302 133.864 71.3524C133.618 66.0548 129.792 60.3002 123.368 55.645C121.162 54.0424 118.75 52.526 116.417 51.0559C106.82 45.0232 96.9039 38.7787 97.2238 24.4883C97.477 13.2309 106.427 5.74798 106.521 5.67514C106.574 5.62835 106.643 5.60246 106.714 5.60229H179.162C179.233 5.60361 179.301 5.62936 179.355 5.67514C179.442 5.74798 188.392 13.2044 188.652 24.4883C188.972 38.7787 179.049 45.0166 169.452 51.0559C167.126 52.526 164.714 54.0424 162.501 55.645C156.083 60.2804 152.258 66.0283 152.011 71.3524C151.923 73.0298 152.228 74.7046 152.901 76.2453C153.574 77.7861 154.597 79.1509 155.89 80.2326C157.889 81.994 161.222 83.9276 165.074 86.1924C174.544 91.7019 187.519 99.251 189.918 110.283C193.25 125.514 182.214 136.771 182.101 136.871C182.074 136.9 182.041 136.924 182.004 136.94C181.967 136.956 181.928 136.964 181.888 136.963ZM104.115 136.354H181.754C182.774 135.275 192.417 124.6 189.325 110.409C186.979 99.6351 174.137 92.1721 164.767 86.7155C160.895 84.464 157.543 82.5172 155.49 80.7093C154.122 79.5677 153.041 78.1257 152.331 76.4971C151.62 74.8686 151.301 73.0982 151.398 71.3259C151.658 65.8164 155.57 59.9228 162.141 55.1549C164.374 53.5392 166.806 52.0161 169.132 50.5195C178.582 44.5597 188.352 38.4211 188.039 24.4751C187.806 14.0454 179.942 6.95319 179.049 6.18503H106.827C105.934 6.95319 98.0701 14.0454 97.8302 24.4751C97.517 38.4211 107.294 44.5729 116.744 50.5195C119.083 51.9896 121.502 53.5127 123.728 55.1549C130.299 59.9228 134.218 65.8164 134.471 71.3259C134.565 73.0933 134.245 74.8583 133.536 76.482C132.827 78.1057 131.749 79.5437 130.386 80.6829C128.326 82.4907 124.981 84.4375 121.109 86.689C111.732 92.1456 98.8965 99.6086 96.5507 110.383C93.4651 124.6 103.095 135.275 104.115 136.354Z" fill="#040047"/>
<path d="M119.896 47.3014C122.301 48.8179 124.794 50.3807 127.153 52.0958C132.728 55.9571 136.928 61.4748 139.149 67.8562C141.295 73.975 140.695 80.491 142.028 86.8151C142.045 87.058 142.118 87.2937 142.242 87.5039C142.366 87.714 142.536 87.893 142.741 88.0269C143.047 88.152 143.385 88.1803 143.708 88.1081C144.031 88.0358 144.324 87.8664 144.547 87.623C144.905 87.1598 145.118 86.6027 145.16 86.0204C146 80.948 145.96 76.1602 146.28 71.0215C146.693 64.4525 151.191 57.5523 158.689 52.1223C161.055 50.4072 163.54 48.8444 165.953 47.3279C171.378 43.911 192.61 28.826 178.495 24.3097C175.476 23.3495 172.111 23.6078 168.892 23.8859L118.429 28.2035C115.504 28.4551 112.518 28.72 109.846 29.7266C107.173 30.7331 104.827 32.627 104.354 35.0242C103.488 39.5404 115.95 44.838 119.896 47.3014Z" fill="#4F51FF"/>
<path d="M181.948 109.071C178.995 106.815 175.332 105.672 171.611 105.847C166.453 106.032 161.435 107.707 156.283 107.462C150.146 107.171 144.348 104.151 138.243 104.774C131.079 105.476 125.881 110.873 118.916 112.475C115.218 113.323 111.192 113.051 107.587 114.157C103.335 115.482 101.476 119.038 101.969 122.547C102.122 123.64 105.128 132.222 106.814 132.222H179.035C182.748 132.222 185.547 116.462 185.173 114.276C184.771 112.209 183.624 110.359 181.948 109.071Z" fill="#4F51FF"/>
<path d="M180.481 0.298096H105.387C103.82 0.298096 102.548 1.55961 102.548 3.11577C102.548 4.67193 103.82 5.93345 105.387 5.93345H180.481C182.049 5.93345 183.32 4.67193 183.32 3.11577C183.32 1.55961 182.049 0.298096 180.481 0.298096Z" fill="#040047"/>
<path d="M180.488 6.2247H105.374C104.544 6.2247 103.747 5.89679 103.16 5.31311C102.572 4.72944 102.242 3.9378 102.242 3.11235C102.242 2.28691 102.572 1.49527 103.16 0.911587C103.747 0.327908 104.544 3.479e-08 105.374 0H180.488C181.319 3.479e-08 182.116 0.327908 182.703 0.911587C183.291 1.49527 183.621 2.28691 183.621 3.11235C183.621 3.9378 183.291 4.72944 182.703 5.31311C182.116 5.89679 181.319 6.2247 180.488 6.2247ZM105.374 0.58936C105.03 0.571812 104.685 0.624146 104.361 0.743182C104.037 0.862218 103.741 1.04547 103.491 1.28178C103.24 1.5181 103.041 1.80254 102.905 2.1178C102.769 2.43307 102.698 2.77257 102.698 3.11566C102.698 3.45875 102.769 3.79825 102.905 4.11352C103.041 4.42879 103.24 4.71323 103.491 4.94954C103.741 5.18586 104.037 5.3691 104.361 5.48814C104.685 5.60718 105.03 5.65951 105.374 5.64196H180.488C181.14 5.6088 181.754 5.32816 182.204 4.85802C182.653 4.38789 182.904 3.76416 182.904 3.11566C182.904 2.46716 182.653 1.84344 182.204 1.3733C181.754 0.903163 181.14 0.622529 180.488 0.58936H105.374Z" fill="#040047"/>
<path d="M181.934 136.659H103.941C102.373 136.659 101.102 137.92 101.102 139.477C101.102 141.033 102.373 142.294 103.941 142.294H181.934C183.502 142.294 184.773 141.033 184.773 139.477C184.773 137.92 183.502 136.659 181.934 136.659Z" fill="#040047"/>
<path d="M181.934 142.592H103.961C103.13 142.592 102.334 142.264 101.746 141.681C101.159 141.097 100.829 140.305 100.829 139.48C100.829 138.655 101.159 137.863 101.746 137.279C102.334 136.696 103.13 136.368 103.961 136.368H181.934C182.765 136.368 183.562 136.696 184.149 137.279C184.736 137.863 185.066 138.655 185.066 139.48C185.066 140.305 184.736 141.097 184.149 141.681C183.562 142.264 182.765 142.592 181.934 142.592ZM103.961 136.95C103.286 136.95 102.638 137.217 102.161 137.691C101.684 138.166 101.415 138.809 101.415 139.48C101.415 140.151 101.684 140.794 102.161 141.269C102.638 141.743 103.286 142.01 103.961 142.01H181.934C182.609 142.01 183.257 141.743 183.734 141.269C184.212 140.794 184.48 140.151 184.48 139.48C184.48 138.809 184.212 138.166 183.734 137.691C183.257 137.217 182.609 136.95 181.934 136.95H103.961Z" fill="#040047"/>
<path d="M141.788 90.5295C139.629 90.5295 139.622 97.6284 141.788 97.6284C143.954 97.6284 143.954 90.5295 141.788 90.5295Z" fill="#4F51FF"/>
<path d="M145.567 97.6152C144.694 97.6152 144.694 100.125 145.567 100.125C146.44 100.125 146.446 97.6152 145.567 97.6152Z" fill="#4F51FF"/>
<path d="M140.229 40.6926C130.31 40.6081 120.452 39.1254 110.952 36.2889C110.914 36.2777 110.879 36.2589 110.848 36.2335C110.817 36.2082 110.792 36.1769 110.774 36.1416C110.756 36.1062 110.745 36.0676 110.743 36.028C110.74 35.9885 110.746 35.9488 110.759 35.9115C110.785 35.8352 110.84 35.7722 110.912 35.7363C110.985 35.7003 111.069 35.6942 111.146 35.7194C111.559 35.8585 152.944 49.2019 175.123 28.5809C175.183 28.5281 175.261 28.5005 175.341 28.504C175.421 28.5075 175.496 28.5418 175.551 28.5996C175.605 28.6574 175.635 28.7342 175.634 28.8136C175.632 28.893 175.6 28.9687 175.543 29.0246C165.76 38.1166 152.318 40.6926 140.229 40.6926Z" fill="#040047"/>
<path d="M130.892 120.753C123.106 120.753 115.36 119.638 107.894 117.442C107.853 117.432 107.814 117.413 107.78 117.388C107.747 117.362 107.719 117.33 107.698 117.293C107.678 117.256 107.666 117.215 107.662 117.174C107.658 117.132 107.663 117.089 107.676 117.05C107.69 117.01 107.711 116.973 107.739 116.942C107.768 116.91 107.802 116.885 107.841 116.868C107.88 116.851 107.921 116.842 107.964 116.841C108.006 116.841 108.048 116.849 108.087 116.865C108.307 116.945 130.799 124.262 151.125 116.865L175.23 108.091C175.269 108.072 175.311 108.062 175.354 108.06C175.398 108.058 175.44 108.066 175.481 108.082C175.521 108.098 175.557 108.122 175.587 108.153C175.617 108.184 175.64 108.221 175.654 108.261C175.669 108.301 175.675 108.344 175.672 108.387C175.668 108.43 175.656 108.472 175.636 108.509C175.615 108.547 175.587 108.58 175.552 108.606C175.518 108.632 175.479 108.651 175.437 108.661L151.359 117.422C144.784 119.708 137.858 120.836 130.892 120.753Z" fill="#040047"/>
<path d="M160.982 109.608H160.908C153.964 107.906 141.841 105.012 141.715 104.973C141.642 104.948 141.581 104.897 141.544 104.83C141.507 104.763 141.497 104.685 141.515 104.611C141.534 104.537 141.58 104.472 141.644 104.43C141.708 104.388 141.786 104.371 141.861 104.383C141.981 104.416 154.104 107.304 161.055 109.019C161.094 109.027 161.131 109.043 161.164 109.067C161.197 109.09 161.225 109.119 161.246 109.153C161.267 109.187 161.281 109.225 161.287 109.264C161.293 109.304 161.291 109.344 161.281 109.383C161.264 109.448 161.225 109.506 161.17 109.546C161.116 109.587 161.05 109.609 160.982 109.608Z" fill="#040047"/>
<path d="M98.0899 51.89L99.5294 56.3665C99.5294 56.3665 99.6027 58.5981 96.3638 58.8564C93.125 59.1146 92.0054 57.2075 92.0054 57.2075L89.6328 48.7644C89.6328 48.7644 93.5115 44.7515 91.2723 40.1558C92.2261 41.0741 93.4413 41.6785 94.7527 41.887C96.0642 42.0955 97.4085 41.898 98.6031 41.3212C99.3659 43.5106 99.9935 45.7442 100.482 48.0095C100.889 50.4398 98.0899 51.89 98.0899 51.89Z" fill="white"/>
<path d="M95.7644 59.2075C92.8321 59.2075 91.7658 57.4527 91.7191 57.3732C91.7165 57.3468 91.7165 57.3202 91.7191 57.2937L89.34 48.8573C89.3257 48.8019 89.3255 48.7438 89.3395 48.6883C89.3534 48.6328 89.3811 48.5816 89.4199 48.5394C89.4599 48.4997 93.112 44.6258 91.0061 40.3082C90.9734 40.2375 90.9669 40.1576 90.9876 40.0825C91.0084 40.0075 91.055 39.9421 91.1195 39.8979C91.1839 39.8536 91.2619 39.8333 91.3399 39.8405C91.4179 39.8478 91.4908 39.8821 91.5459 39.9374C92.4499 40.8114 93.6042 41.3858 94.8501 41.5814C96.096 41.7771 97.3722 41.5845 98.5035 41.03C98.5452 41.0105 98.5907 41.0004 98.6367 41.0004C98.6828 41.0004 98.7283 41.0105 98.77 41.03C98.815 41.0456 98.8556 41.0718 98.8881 41.1064C98.9206 41.141 98.9441 41.183 98.9566 41.2287C99.7319 43.4333 100.364 45.685 100.849 47.9699C101.216 50.1817 99.2365 51.612 98.5235 52.0491L99.8563 56.2739C99.8595 56.3026 99.8595 56.3314 99.8563 56.36C99.8563 56.36 99.8963 58.9095 96.3842 59.1876C96.1709 59.2009 95.9643 59.2075 95.7644 59.2075ZM92.3123 57.0686C92.4722 57.307 93.5585 58.744 96.3109 58.5254C99.0633 58.3069 99.1632 56.7044 99.1699 56.4196L97.7504 51.9961C97.7254 51.9218 97.7278 51.8411 97.7571 51.7683C97.7864 51.6956 97.8407 51.6355 97.9103 51.5988C97.9103 51.5988 100.489 50.228 100.13 48.0692C99.6797 45.9383 99.0965 43.8372 98.3835 41.7783C97.3528 42.2198 96.2265 42.3954 95.1092 42.2889C93.992 42.1824 92.9199 41.7972 91.9924 41.1691C93.092 44.9304 90.5862 48.1421 89.9931 48.8506L92.3123 57.0686Z" fill="#040047"/>
<path d="M90.9727 48.0625C90.7303 47.6899 90.3758 47.4026 89.9598 47.2414C89.5645 47.1118 89.1496 47.0513 88.7335 47.0626C88.5071 47.0397 88.2785 47.0715 88.0671 47.1553C87.9235 47.2254 87.7963 47.3246 87.6939 47.4467C87.4187 47.7061 87.2501 48.0576 87.2207 48.4334C87.227 48.7378 87.3094 49.036 87.4606 49.3009C87.5994 49.5997 87.7788 49.8782 87.9938 50.1286C88.2122 50.3758 88.4778 50.5774 88.7753 50.7217C89.0728 50.866 89.3962 50.9501 89.7266 50.9692C90.0571 50.9883 90.3881 50.942 90.7004 50.8329C91.0127 50.7239 91.3001 50.5542 91.5459 50.3339" fill="white"/>
<path d="M89.8662 51.3074H89.7063C89.3257 51.2899 88.9525 51.1964 88.609 51.0326C88.2656 50.8688 87.9588 50.6379 87.707 50.3538C87.4738 50.0809 87.2787 49.778 87.1272 49.4532C86.9551 49.14 86.8614 48.7902 86.8539 48.4334C86.8869 47.9774 87.0859 47.549 87.4137 47.2282C87.5484 47.0753 87.7112 46.9494 87.8936 46.8574C88.1542 46.7565 88.4345 46.7157 88.7133 46.7382C89.1659 46.7262 89.617 46.7934 90.0462 46.9368C90.5308 47.1234 90.9421 47.4601 91.2191 47.897C91.2432 47.9337 91.2597 47.9749 91.2674 48.018C91.2752 48.0612 91.274 48.1054 91.264 48.1481C91.2541 48.1908 91.2355 48.2311 91.2094 48.2665C91.1834 48.3018 91.1504 48.3316 91.1125 48.354C91.0369 48.3989 90.9468 48.413 90.861 48.3932C90.7752 48.3735 90.7005 48.3214 90.6526 48.248C90.4509 47.944 90.1567 47.712 89.8129 47.5858C89.451 47.472 89.0728 47.4183 88.6933 47.4269C88.5177 47.4074 88.34 47.4277 88.1735 47.4865C88.0702 47.5427 87.9776 47.6167 87.9002 47.705C87.6876 47.9121 87.5534 48.1858 87.5204 48.4798C87.5298 48.7292 87.6007 48.9725 87.727 49.1883C87.8519 49.4603 88.0133 49.7143 88.2068 49.9432C88.5938 50.3722 89.1344 50.6337 89.7129 50.6717C89.9986 50.6878 90.2847 50.6476 90.5547 50.5532C90.8246 50.4589 91.0731 50.3123 91.2857 50.122C91.3167 50.091 91.3535 50.0664 91.3942 50.0496C91.4348 50.0327 91.4783 50.0241 91.5223 50.0241C91.5663 50.0241 91.6098 50.0327 91.6505 50.0496C91.6911 50.0664 91.7279 50.091 91.7589 50.122C91.7899 50.1522 91.8146 50.1883 91.8314 50.2281C91.8482 50.2679 91.8569 50.3106 91.8569 50.3538C91.8569 50.397 91.8482 50.4397 91.8314 50.4795C91.8146 50.5193 91.7899 50.5554 91.7589 50.5856C91.2389 51.0494 90.565 51.3064 89.8662 51.3074Z" fill="#040047"/>
<path d="M95.5377 44.7385C95.5377 44.7385 97.9435 46.4735 97.7236 47.0099C97.5037 47.5463 96.3907 47.6721 96.3907 47.6721" fill="white"/>
<path d="M96.371 47.9897C96.2826 47.9941 96.1961 47.9634 96.1305 47.9044C96.0649 47.8454 96.0255 47.7629 96.0211 47.6751C96.0167 47.5873 96.0476 47.5014 96.1069 47.4362C96.1663 47.371 96.2493 47.3319 96.3377 47.3275C96.7309 47.2877 97.324 47.1089 97.4173 46.8838C96.8307 46.1521 96.1312 45.5174 95.3447 45.0031C95.2749 44.9516 95.2281 44.8749 95.2144 44.7895C95.2007 44.7041 95.2212 44.6168 95.2714 44.5462C95.2966 44.5102 95.3288 44.4796 95.3662 44.4563C95.4036 44.433 95.4454 44.4175 95.489 44.4107C95.5326 44.4039 95.5771 44.4059 95.6199 44.4167C95.6627 44.4275 95.7028 44.4467 95.7379 44.4734C97.4706 45.7249 98.2437 46.6189 98.0371 47.1222C97.7505 47.7844 96.6309 47.9499 96.411 47.9698L96.371 47.9897Z" fill="#040047"/>
<path d="M94.0772 44.7692C94.2666 44.6494 94.2824 44.3372 94.1125 44.0719C93.9425 43.8065 93.6512 43.6885 93.4618 43.8083C93.2724 43.9281 93.2566 44.2403 93.4265 44.5056C93.5965 44.771 93.8878 44.889 94.0772 44.7692Z" fill="#040047"/>
<path d="M96.6407 43.8368C96.8301 43.7171 96.8459 43.4049 96.676 43.1395C96.506 42.8742 96.2147 42.7561 96.0253 42.8759C95.8359 42.9957 95.8201 43.3079 95.99 43.5732C96.1599 43.8386 96.4513 43.9566 96.6407 43.8368Z" fill="#040047"/>
<path d="M98.4499 48.1489C98.4499 48.1489 95.2243 51.546 93.5382 48.1489H98.4499Z" fill="white"/>
<path d="M95.5576 50.003C95.4445 50.0129 95.3308 50.0129 95.2177 50.003C94.7684 49.9186 94.3485 49.7208 93.9984 49.4285C93.6483 49.1363 93.3797 48.7595 93.2184 48.3343C93.1812 48.255 93.1763 48.1644 93.2049 48.0817C93.2335 47.9989 93.2933 47.9304 93.3717 47.8906C93.4111 47.8714 93.4539 47.8601 93.4977 47.8573C93.5414 47.8546 93.5853 47.8605 93.6268 47.8746C93.6683 47.8888 93.7066 47.9109 93.7394 47.9398C93.7723 47.9687 93.799 48.0037 93.8182 48.0429C93.9336 48.369 94.1296 48.6612 94.388 48.8925C94.6465 49.1239 94.9593 49.2872 95.2977 49.3673C96.6306 49.5726 98.1767 47.9966 98.19 47.9833C98.221 47.9523 98.2579 47.9276 98.2985 47.9108C98.3391 47.894 98.3826 47.8854 98.4266 47.8854C98.4706 47.8854 98.5142 47.894 98.5548 47.9108C98.5954 47.9276 98.6322 47.9523 98.6632 47.9833C98.7247 48.0463 98.7591 48.1306 98.7591 48.2184C98.7591 48.3062 98.7247 48.3905 98.6632 48.4535C98.6299 48.4601 97.1437 50.003 95.5576 50.003Z" fill="#040047"/>
<path d="M98.0902 51.8901C98.0902 51.8901 95.7377 52.5523 94.4582 52.2676C94.4582 52.2676 96.1576 54.6714 98.91 54.5986L98.0902 51.8901Z" fill="#040047"/>
<path d="M98.7897 54.9297C95.964 54.9297 94.258 52.559 94.1847 52.4531C94.1462 52.3978 94.1256 52.3323 94.1255 52.2651C94.1255 52.198 94.146 52.1324 94.1843 52.0771C94.2226 52.0218 94.2769 51.9793 94.3401 51.9554C94.4032 51.9315 94.4722 51.9272 94.5379 51.9432C95.7175 52.2346 97.9767 51.5856 97.9967 51.579C98.0806 51.5541 98.171 51.5631 98.2484 51.604C98.3257 51.6449 98.3837 51.7144 98.4099 51.7975L99.2296 54.4993C99.2455 54.5481 99.2496 54.5999 99.2415 54.6505C99.2334 54.7012 99.2133 54.7492 99.1829 54.7906C99.1529 54.8318 99.1139 54.8656 99.0689 54.8897C99.0239 54.9138 98.9741 54.9274 98.923 54.9297H98.7897ZM95.2576 52.6782C96.1116 53.5546 97.2439 54.1113 98.4632 54.2543L97.87 52.2677C97.0195 52.4964 96.145 52.6253 95.2643 52.6517L95.2576 52.6782Z" fill="#040047"/>
<path d="M118.75 77.9084C118.75 77.9084 118.75 90.8347 117.237 96.2912C112.932 111.76 81.496 136.474 81.496 136.474L74.5317 129.6L93.6784 102.198L70.5331 129.13L62.8425 122.183L92.9653 85.5569L118.75 77.9084Z" fill="#040047"/>
<path d="M81.496 136.804C81.4093 136.804 81.3261 136.771 81.2627 136.712L74.2985 129.865C74.2427 129.81 74.2082 129.737 74.2009 129.66C74.1935 129.582 74.2139 129.505 74.2585 129.441L89.6198 107.449L70.7864 129.368C70.7582 129.403 70.7228 129.432 70.6826 129.452C70.6424 129.473 70.5982 129.485 70.5531 129.487C70.5093 129.49 70.4653 129.484 70.4239 129.469C70.3826 129.455 70.3449 129.431 70.3132 129.401L62.6225 122.455C62.5634 122.393 62.5305 122.311 62.5305 122.226C62.5305 122.141 62.5634 122.059 62.6225 121.998L92.7121 85.3712C92.7535 85.3207 92.8092 85.2838 92.872 85.2652L118.656 77.5903C118.706 77.5773 118.758 77.5754 118.809 77.5845C118.86 77.5937 118.908 77.6137 118.95 77.6432C118.99 77.6748 119.023 77.7149 119.046 77.7607C119.069 77.8065 119.082 77.8569 119.083 77.9081C119.083 78.4379 119.083 90.9403 117.557 96.3836C115.757 102.853 109.173 111.614 97.9836 122.421C89.6731 130.454 81.7825 136.672 81.7026 136.732C81.6437 136.778 81.571 136.804 81.496 136.804ZM74.9649 129.6L81.516 136.043C84.3816 133.752 112.885 110.707 116.917 96.2114C118.25 91.4237 118.397 80.6761 118.417 78.3319L93.1586 85.8943L63.3023 122.203L70.5064 128.712L93.4252 102.039C93.4797 101.974 93.5576 101.933 93.6423 101.924C93.7269 101.915 93.8116 101.94 93.8783 101.992C93.9462 102.043 93.9914 102.117 94.0039 102.201C94.0164 102.284 93.9952 102.368 93.945 102.436L74.9649 129.6Z" fill="#040047"/>
<path d="M74.5316 129.6L69.5333 135.116C69.5333 135.116 61.3428 132.381 61.7027 133.924C62.0626 135.467 72.7255 144.075 73.2653 144.254C73.8052 144.433 81.4958 136.447 81.4958 136.447" fill="white"/>
<path d="M73.259 144.612H73.1657C72.4993 144.393 61.7764 135.718 61.3832 134.017C61.352 133.906 61.3524 133.79 61.3841 133.68C61.4159 133.57 61.4779 133.471 61.5631 133.394C62.4761 132.573 67.561 134.142 69.4337 134.719L74.2854 129.368C74.346 129.309 74.4271 129.275 74.512 129.273C74.597 129.272 74.6794 129.302 74.7424 129.359C74.8053 129.416 74.8442 129.494 74.8509 129.578C74.8576 129.662 74.8317 129.746 74.7785 129.812L69.7802 135.321C69.7369 135.369 69.6803 135.403 69.6176 135.42C69.5548 135.436 69.4886 135.434 69.427 135.414C65.8016 134.202 62.4028 133.493 62.0096 133.851C62.3428 135.175 72.0994 143.122 73.3057 143.89C74.0854 143.453 77.9174 139.672 81.2563 136.208C81.2867 136.178 81.323 136.153 81.363 136.136C81.4031 136.12 81.4461 136.111 81.4895 136.111C81.533 136.111 81.576 136.12 81.616 136.136C81.6561 136.153 81.6924 136.178 81.7228 136.208C81.754 136.239 81.7788 136.276 81.7957 136.316C81.8126 136.357 81.8213 136.4 81.8213 136.444C81.8213 136.487 81.8126 136.531 81.7957 136.571C81.7788 136.611 81.754 136.648 81.7228 136.679C74.7519 143.963 73.5989 144.612 73.259 144.612Z" fill="#040047"/>
<path d="M82.3021 132.189C82.2587 132.189 82.2157 132.18 82.1765 132.162C82.1372 132.144 82.1027 132.117 82.0755 132.083C82.0497 132.054 82.03 132.021 82.0177 131.984C82.0054 131.948 82.0006 131.909 82.0037 131.871C82.0068 131.832 82.0178 131.795 82.0358 131.761C82.0539 131.727 82.0787 131.697 82.1088 131.672C82.3687 131.454 108.006 109.707 113.105 97.4366C118.156 85.2851 115.497 80.4378 115.471 80.3915C115.432 80.3239 115.421 80.2437 115.442 80.1685C115.463 80.0934 115.512 80.0295 115.581 79.9908C115.649 79.9522 115.729 79.942 115.805 79.9625C115.88 79.983 115.945 80.0325 115.984 80.1001C116.097 80.2988 118.836 85.1924 113.651 97.6617C108.466 110.131 82.7486 131.898 82.4887 132.096C82.4404 132.149 82.3738 132.182 82.3021 132.189Z" fill="white"/>
<path d="M95.5379 91.7813C95.4638 91.7798 95.3928 91.7515 95.338 91.7019C95.3102 91.6753 95.288 91.6434 95.2729 91.6082C95.2578 91.5729 95.25 91.5349 95.25 91.4966C95.25 91.4583 95.2578 91.4203 95.2729 91.385C95.288 91.3498 95.3102 91.3179 95.338 91.2913L101.789 84.2984C101.83 84.2554 101.883 84.2255 101.941 84.2126C101.999 84.1996 102.06 84.2041 102.116 84.2256C102.171 84.2469 102.218 84.2843 102.251 84.3327C102.284 84.3812 102.302 84.4385 102.302 84.4971V89.702C102.302 89.7793 102.271 89.8534 102.216 89.9081C102.161 89.9627 102.087 89.9934 102.009 89.9934C101.931 89.9934 101.857 89.9627 101.802 89.9081C101.747 89.8534 101.716 89.7793 101.716 89.702V85.2322L95.7712 91.6688C95.7426 91.703 95.707 91.7308 95.6668 91.7502C95.6266 91.7696 95.5826 91.7802 95.5379 91.7813Z" fill="white"/>
<path d="M89.1596 95.2315L97.7366 85.5833H76.464L65.048 96.8274L89.1596 95.2315Z" fill="white"/>
<path d="M65.0482 97.1516C64.9891 97.1518 64.9313 97.135 64.8817 97.1032C64.832 97.0715 64.7926 97.0262 64.7683 96.9728C64.743 96.9171 64.7352 96.855 64.7459 96.7948C64.7566 96.7346 64.7853 96.6789 64.8282 96.6351L76.2509 85.3776C76.3088 85.3236 76.3848 85.293 76.4642 85.2915H97.7368C97.796 85.2906 97.8542 85.307 97.904 85.3388C97.9538 85.3707 97.993 85.4164 98.0167 85.4703C98.0386 85.5237 98.0459 85.5818 98.0377 85.6389C98.0295 85.6959 98.0061 85.7497 97.9701 85.7948L89.3797 95.4365C89.3264 95.495 89.2523 95.5306 89.1731 95.5358L65.0682 97.1516H65.0482ZM76.5908 85.8942L65.8412 96.4894L89.0132 94.9597L97.0637 85.8942H76.5908Z" fill="#040047"/>
<path d="M105.048 54.0159C105.048 54.0159 110.286 74.9085 108.833 75.5707C107.38 76.2329 89.2267 81.994 88.2204 82.4311C87.2141 82.8681 84.7683 84.6296 84.3218 85.5832C83.8752 86.5367 83.4687 90.3179 84.3218 90.0729C85.5692 89.7832 86.7977 89.4183 88.0005 88.9803C88.6669 88.6359 89.6332 86.6427 89.6332 86.6427C89.6332 86.6427 89.5133 88.5697 90.4263 88.1591C91.3393 87.7486 92.9654 85.5832 92.9654 85.5832C92.9654 85.5832 115.857 84.8084 118.083 80.2458C120.309 75.6832 119.09 65.8296 115.418 58.3004C111.746 50.7712 105.374 49.407 105.048 54.0159Z" fill="white"/>
<path d="M84.2486 90.3909C84.1677 90.3897 84.0881 90.3707 84.0155 90.3352C83.9428 90.2997 83.8791 90.2486 83.8288 90.1856C83.209 89.4638 83.6688 86.2588 84.0487 85.4509C84.5352 84.4112 87.0277 82.6299 88.1006 82.1399C88.5538 81.9412 92.2125 80.7493 96.4577 79.3653C101.789 77.6237 107.907 75.6437 108.707 75.2728C109.373 74.4848 107.207 63.8697 104.748 54.0823C104.745 54.0493 104.745 54.016 104.748 53.983C104.861 52.4003 105.675 51.3342 106.981 51.1024C109.38 50.6455 113.132 52.9169 115.691 58.1549C119.416 65.7835 120.616 75.7496 118.357 80.3652C116.098 84.9807 95.2648 85.782 93.1255 85.8615C92.7457 86.3581 91.4195 88.0335 90.5531 88.4242C90.4381 88.4851 90.3088 88.5142 90.1787 88.5083C90.0485 88.5025 89.9223 88.462 89.8134 88.3911C89.5978 88.2129 89.4535 87.9639 89.4068 87.6892C89.1097 88.2952 88.6765 88.8253 88.1406 89.2387C87.2162 89.6027 86.2648 89.8949 85.2949 90.1128C84.9417 90.2055 84.6285 90.285 84.4086 90.3512C84.3571 90.371 84.3034 90.3843 84.2486 90.3909ZM105.355 53.9698C105.488 54.5061 106.721 59.4727 107.78 64.4591C110.086 75.2993 109.36 75.637 108.967 75.8158C108.134 76.1999 102.029 78.1865 96.6443 79.9347C92.5924 81.2592 88.767 82.4975 88.3472 82.6829C87.3142 83.1398 85.015 84.8615 84.5952 85.6827C84.1753 86.5038 83.9287 89.4639 84.2953 89.7751C84.5693 89.6646 84.8525 89.5782 85.1416 89.5168C86.0662 89.3038 86.9747 89.0273 87.8607 88.6891C88.2806 88.4705 89.0003 87.219 89.3535 86.4839C89.385 86.4223 89.4367 86.3731 89.5 86.3445C89.5633 86.3159 89.6346 86.3096 89.702 86.3265C89.7695 86.3435 89.8291 86.3827 89.8711 86.4378C89.9132 86.4929 89.9351 86.5605 89.9333 86.6296C89.8745 87.0601 89.9538 87.498 90.1599 87.8812C90.1932 87.8812 90.2532 87.8812 90.3065 87.8812C90.973 87.57 92.3058 85.9807 92.7257 85.3913C92.7526 85.3548 92.7877 85.325 92.8281 85.3043C92.8686 85.2837 92.9134 85.2726 92.9589 85.2721C93.0122 85.2721 98.7369 85.0734 104.655 84.3185C114.438 83.0736 117.211 81.3386 117.81 80.1069C119.99 75.637 118.79 65.9093 115.145 58.4198C112.745 53.5195 109.207 51.3011 107.101 51.705C106.074 51.9037 105.461 52.7116 105.375 53.9962L105.355 53.9698Z" fill="#040047"/>
<path d="M89.1599 95.2316C88.3468 94.0728 77.7505 76.6899 77.7505 76.6899L52.7858 79.1268L65.0482 96.8408L89.1599 95.2316Z" fill="white"/>
<path d="M65.0483 97.1518C64.9986 97.1513 64.9497 97.139 64.9056 97.116C64.8616 97.0929 64.8237 97.0598 64.7951 97.0193L52.5394 79.2723C52.5137 79.2268 52.5002 79.1755 52.5002 79.1233C52.5002 79.0711 52.5137 79.0198 52.5394 78.9743C52.5617 78.9261 52.5961 78.8843 52.6392 78.853C52.6824 78.8217 52.7329 78.8019 52.7859 78.7955L77.7439 76.3652C77.8011 76.3579 77.8592 76.3672 77.9112 76.3919C77.9632 76.4165 78.0069 76.4555 78.0372 76.5043C78.1438 76.6831 88.6402 93.907 89.4332 95.046C89.4608 95.092 89.4753 95.1447 89.4753 95.1983C89.4753 95.2519 89.4608 95.3045 89.4332 95.3506C89.41 95.3988 89.3743 95.4402 89.3298 95.4704C89.2854 95.5006 89.2337 95.5187 89.18 95.5227L65.0683 97.1518H65.0483ZM53.3324 79.365L65.195 96.516L88.6202 94.9665C86.8474 92.1852 78.6236 78.7425 77.584 76.9943L53.3324 79.365Z" fill="#040047"/>
<path d="M73.7251 87.7288C73.3471 86.9248 72.7719 86.228 72.0524 85.7024C71.6076 85.3412 71.0695 85.1117 70.4996 85.0402C70.2153 85.0131 69.9288 85.0598 69.6683 85.1759C69.4077 85.292 69.182 85.4735 69.0134 85.7024C68.7876 86.0907 68.7007 86.5435 68.7668 86.9871C68.8112 87.5111 68.9694 88.0192 69.2306 88.4765C69.4918 88.9338 69.8497 89.3294 70.2796 89.6359C71.8058 90.6557 74.8447 90.0928 73.7251 87.7288Z" fill="white"/>
<path d="M71.9992 90.4173C71.3304 90.425 70.6742 90.2361 70.1132 89.8743C69.6457 89.5484 69.2559 89.1245 68.9715 88.6324C68.687 88.1404 68.5148 87.5923 68.4671 87.0268C68.3886 86.5157 68.4923 85.9933 68.7603 85.5501C68.9599 85.277 69.2279 85.0606 69.5377 84.9224C69.8475 84.7841 70.1884 84.7289 70.5264 84.7621C71.1519 84.8285 71.7457 85.0696 72.2391 85.4574C72.9947 86.0147 73.5992 86.7496 73.9985 87.5963C74.5983 88.8677 74.0785 89.5829 73.7119 89.8809C73.2206 90.2511 72.6153 90.4407 71.9992 90.4173ZM70.3664 85.3581C70.1545 85.3521 69.9441 85.3964 69.7529 85.4874C69.5616 85.5784 69.395 85.7134 69.2668 85.8812C69.0796 86.2107 69.0092 86.5932 69.0669 86.9672C69.1086 87.4447 69.2541 87.9076 69.4934 88.3237C69.7328 88.7399 70.0602 89.0995 70.453 89.3776C70.8767 89.6557 71.3714 89.8078 71.8791 89.816C72.3867 89.8242 72.8862 89.6882 73.3187 89.424C73.7319 89.073 73.7719 88.5432 73.452 87.8546C73.0929 87.0985 72.5501 86.4431 71.8726 85.9474C71.4746 85.6237 70.9908 85.4213 70.4797 85.3647L70.3664 85.3581Z" fill="#040047"/>
<path d="M70.5598 86.7554C70.8475 87.1543 71.1144 87.5676 71.3595 87.9937L71.8927 86.7554" fill="white"/>
<path d="M71.3862 88.298C71.3332 88.2977 71.2812 88.2835 71.2356 88.2567C71.1899 88.2299 71.1522 88.1916 71.1263 88.1457C70.8397 87.6689 70.4599 87.106 70.3932 86.9868C70.3591 86.9571 70.332 86.9204 70.3136 86.8793C70.2952 86.8381 70.2859 86.7935 70.2866 86.7484C70.2866 86.6694 70.3182 86.5936 70.3744 86.5377C70.4307 86.4818 70.507 86.4504 70.5865 86.4504C70.7598 86.4504 70.8064 86.4504 71.3396 87.3312L71.6395 86.669C71.6704 86.5944 71.7299 86.535 71.8049 86.504C71.8799 86.473 71.9642 86.4728 72.0393 86.5034C72.1132 86.5355 72.1714 86.5951 72.2013 86.6695C72.2313 86.7438 72.2305 86.8269 72.1993 86.9007L71.6661 88.1457C71.643 88.1965 71.6068 88.2405 71.5612 88.273C71.5155 88.3056 71.4621 88.3256 71.4062 88.3311L71.3862 88.298Z" fill="#040047"/>
</svg>
