<svg width="131" height="23" viewBox="0 0 131 23" fill="none" xmlns="http://www.w3.org/2000/svg">
<g clip-path="url(#clip0_384_69991)">
<g clip-path="url(#clip1_384_69991)">
<path d="M19.0405 6.31588C19.4857 6.31588 19.8466 5.96665 19.8466 5.53587C19.8466 5.10508 19.4857 4.75586 19.0405 4.75586C18.5953 4.75586 18.2344 5.10508 18.2344 5.53587C18.2344 5.96665 18.5953 6.31588 19.0405 6.31588Z" fill="#060048"/>
<path d="M3.96647 14.5411C3.621 14.4842 3.45203 14.7964 3.36587 15.125C3.02737 16.416 2.60299 18.0618 2.22433 19.4891C2.0983 19.9642 2.08325 20.1221 1.931 20.5578C1.90981 20.6183 1.81724 20.8298 1.77235 20.8773C1.41768 21.2518 0.759356 21.1058 0.622729 20.6153C0.598192 20.5265 0.624957 20.2313 0.648379 20.1531C1.19349 18.3262 1.28969 17.536 1.70794 15.8362C1.92264 14.9636 2.65596 13.7587 0.871444 13.5159C0.234036 13.4292 0.258015 12.1938 1.23392 12.3017C1.57187 12.339 2.01716 12.554 2.40502 12.4636C2.6423 12.4096 2.80653 11.6067 2.87345 11.3795C3.5446 9.10342 4.23973 6.66734 5.01432 4.25959C5.01572 4.25527 5.01739 4.25095 5.01878 4.24663C5.24185 3.59613 6.29192 3.75532 6.32036 4.43982C6.3256 4.53818 6.31621 4.63677 6.29248 4.73256C5.68379 7.08716 4.99843 9.42342 4.26761 11.7376C3.91043 12.8683 3.74201 13.2512 5.14146 13.511C9.23638 14.2713 11.467 13.7587 13.2493 11.2408C15.1426 8.56651 14.3722 4.96486 11.5579 3.15689C8.68262 1.30979 5.72144 1.68994 2.77475 2.98637C2.14682 3.26265 1.57828 3.69812 0.941152 3.93906C0.84804 3.97203 0.749115 3.98689 0.650054 3.98276C0.217865 3.97521 -0.0835535 3.56672 0.0207294 3.16066C0.0764957 2.94643 0.336088 2.70712 0.453755 2.64263C1.92292 1.83699 3.49079 1.07263 5.19528 0.675202C9.63762 -0.360856 13.7953 1.76981 15.2332 5.58056C16.9324 10.0863 13.5535 15.0899 8.62491 15.2696C7.16857 15.3236 5.56557 14.8045 3.96647 14.5411Z" fill="#060048"/>
<path d="M92.7655 3.04606e-07C92.6316 -6.04099e-05 92.4979 0.00895523 92.3654 0.026981C91.0958 0.199388 89.886 0.620554 88.9589 1.21197C88.3809 1.5808 87.8491 1.75158 87.2859 1.75158C86.8874 1.75158 86.4709 1.67064 85.9352 1.48501C84.1917 0.884425 82.1601 0.243903 80.1077 0.243903C79.2989 0.2408 78.4935 0.343814 77.7133 0.550133C75.2638 1.19767 73.7768 2.6576 73.2936 4.88566C72.8159 7.08863 73.5256 8.95435 75.3458 10.2818C75.5967 10.4642 75.6821 10.6018 76.1839 10.7367C76.5687 10.84 76.951 10.4164 76.7974 10.0892C76.6301 9.73841 76.4396 9.57949 76.2118 9.3712C74.661 7.95606 74.1872 6.50828 74.7206 4.81578C75.2683 3.07823 76.5554 2.03677 78.5459 1.72218C79.0875 1.63676 79.6353 1.59399 80.1841 1.59429C82.4724 1.59429 84.5481 2.32493 86.1006 2.9614C86.1238 2.97035 86.145 2.98368 86.1628 3.00061C86.1807 3.01755 86.1949 3.03774 86.2046 3.06003C86.2144 3.08233 86.2194 3.10626 86.2195 3.13046C86.2196 3.15466 86.2147 3.17863 86.2051 3.20099L86.2035 3.20476C85.9433 3.80859 85.6896 4.40675 85.4378 4.99979C84.7128 6.71063 84.091 8.20509 83.4617 9.87331C83.0881 10.8635 83.0992 10.8716 81.6103 10.8813C77.9534 10.9048 75.4339 12.1939 73.3597 13.7982C72.3888 14.5491 71.5643 15.5007 71.0381 16.4779C70.9595 16.6239 70.8912 16.7693 70.8284 16.9145C70.8123 16.9522 70.665 17.2887 70.6076 17.4271C70.3614 18.0226 69.5255 18.5063 68.75 19.0103C68.719 19.0305 68.6827 19.0416 68.6453 19.0421C68.608 19.0426 68.5713 19.0326 68.5397 19.0133C68.5081 18.994 68.483 18.9662 68.4675 18.9333C68.452 18.9005 68.4467 18.8639 68.4522 18.8282C68.4595 18.7842 68.4656 18.74 68.4704 18.6955C68.5378 18.0827 68.4294 17.4692 68.1475 16.871C67.8488 16.2381 67.3715 15.6569 66.7285 15.1443C66.3967 14.8793 66.0454 14.6443 65.6734 14.3953C65.4119 14.2204 65.1414 14.0394 64.8807 13.8484L64.7558 13.7588C64.3032 13.4283 63.8356 13.0867 63.4257 12.6839C63.0976 12.3601 62.9266 11.9775 62.9317 11.5752C62.9367 11.1662 63.1305 10.7618 63.4773 10.4361C63.8841 10.0543 64.5628 9.81881 65.3394 9.78859C65.3935 9.78643 65.4473 9.78535 65.5008 9.78535C66.2127 9.78535 67.026 9.82501 67.3271 10.2869C67.396 10.393 67.4412 10.656 67.4222 10.7801C67.3759 11.0826 67.1222 11.2928 67.0282 11.3691C66.5509 11.7549 66.7536 12.2576 66.9825 12.4373C67.094 12.525 67.2834 12.5382 67.4286 12.5182C67.6238 12.4912 67.807 12.365 68.0404 12.1351C68.6817 11.5029 68.9402 10.717 68.7305 10.033C68.5306 9.38199 67.9584 9.01074 67.0971 8.72717C66.8317 8.63975 66.4934 8.55207 65.9787 8.55207C65.3294 8.54806 64.682 8.62118 64.0512 8.7698C62.9952 9.0102 62.3818 9.63075 62.0444 10.2187C61.6365 10.9261 61.5255 11.6168 61.7146 12.2714C61.9097 12.9491 62.4278 13.6091 63.2523 14.2334C63.6496 14.5345 64.0721 14.8251 64.4808 15.1062C65.0335 15.4864 65.6051 15.8797 66.1371 16.3128C66.8367 16.8821 67.2084 17.5434 67.2123 18.2257C67.2164 18.9191 66.8414 19.5993 66.1279 20.1934C65.4583 20.7538 64.6319 21.1093 63.7534 21.2149C63.5134 21.2449 63.2717 21.2598 63.0298 21.2594C62.4911 21.2594 61.9069 21.1909 61.2628 21.0525C60.413 20.8701 59.804 20.4519 59.5015 19.8427C59.3381 19.5132 59.2146 19.1339 59.3063 18.7397C59.705 16.9965 60.433 16.0988 60.7646 15.2967C60.9876 14.7571 60.8482 14.5458 60.5973 14.4063C60.4724 14.337 60.0117 14.1905 59.6905 14.7401C59.6866 14.7468 59.6819 14.753 59.678 14.76C59.6133 14.8801 59.0015 16.0125 58.4043 17.1182C58.4043 17.1182 57.3628 19.5596 54.9841 19.9938C54.0127 20.171 52.9896 20.3334 52.0065 20.2201C50.8103 20.0825 49.8623 19.8834 49.2767 19.2089C49.0046 18.8954 48.8267 18.6369 48.7957 17.8747C48.7933 17.8085 48.8052 17.7424 48.8306 17.6809C48.856 17.6193 48.8945 17.5636 48.9435 17.5173C48.9924 17.4709 49.0509 17.435 49.115 17.4117C49.1792 17.3885 49.2477 17.3785 49.316 17.3823C49.5366 17.3944 49.7535 17.4042 49.9705 17.406C52.5522 17.4284 54.9749 16.9625 56.8813 15.138C58.0189 14.0491 58.4506 12.4964 57.8926 11.0607C57.3455 9.65342 56.1064 8.74228 54.5188 8.52454C52.6475 8.26769 50.8086 8.90524 49.4719 10.2243C47.4122 12.2571 46.6535 14.7223 47.1018 17.5361C47.2535 18.4912 47.1105 19.1506 46.2653 19.6406C45.3148 20.1942 44.2893 20.423 43.2927 19.8494C42.9127 19.6309 42.5137 19.1115 42.4872 18.7351C42.4175 17.7519 42.6143 17.1791 42.9473 15.8903C43.4213 14.0556 43.8953 12.6494 44.3135 10.9528C44.4529 10.3862 44.6202 9.87358 44.7998 9.29646C44.8508 9.13269 45.0206 9.02908 45.1941 8.99563C45.6282 8.91226 46.318 9.0102 46.6557 9.0102C46.9934 9.0102 47.2374 8.87529 47.2691 8.65945C47.297 8.47058 47.2206 8.29251 46.9345 8.1738C46.7394 8.09285 46.3769 8.09285 46.1259 8.06587C45.94 8.04591 45.401 8.06587 45.401 7.87701C45.401 7.38839 45.619 6.87117 45.5683 6.60892C45.4846 6.17723 44.7597 6.01534 44.4529 6.36609C44.2809 6.56278 44.1278 7.17794 44.0347 7.41834C43.9352 7.67546 43.8116 7.82305 43.3555 7.78446C42.8895 7.74507 42.3455 7.7019 42.1944 7.71512C41.581 7.76909 41.6089 8.47058 42.055 8.60549C42.2276 8.65783 42.8402 8.7296 43.223 8.83267C43.2846 8.84892 43.337 8.88802 43.3689 8.94148C43.4008 8.99493 43.4096 9.05842 43.3934 9.11812C43.3479 9.28891 43.2877 9.59649 43.2598 9.69766C42.4381 12.6993 41.7263 15.1059 40.9408 18.0771C40.6341 19.2372 40.2588 19.5961 39.686 19.8848C39.1563 20.1511 38.2782 20.1729 37.8458 19.8848C37.4336 19.6101 37.2109 19.0184 37.1487 18.4278C37.1066 18.0277 37.4426 16.9042 37.5669 16.4852C38.2754 14.0963 39.0484 12.1818 39.6975 9.77834C39.7071 9.7388 39.7123 9.69836 39.7128 9.65773C39.7315 9.07198 38.9764 8.78221 38.5604 9.20823C38.4934 9.27552 38.4347 9.35002 38.3853 9.43028C38.2384 9.67473 38.1435 9.9583 38.0669 10.2521C38.0503 10.3167 38.0166 10.3759 37.9692 10.424C37.9217 10.4722 37.8621 10.5075 37.7963 10.5266C37.7304 10.5456 37.6606 10.5478 37.5936 10.5327C37.5267 10.5177 37.4649 10.4861 37.4144 10.441C34.2513 7.62177 30.4963 8.28253 28.2966 12.0852C27.3243 13.7666 26.9206 15.5657 27.0617 17.501C27.2011 19.4255 25.082 20.7802 23.264 19.9379C22.9104 19.7741 22.2925 19.1503 22.2845 18.8317C22.2566 17.7438 22.3915 16.793 22.6918 15.761C23.8275 11.8583 23.9404 11.3465 25.1547 7.46474C25.2588 7.13207 25.3867 6.78348 25.3831 6.45324C25.3795 6.12299 25.0583 5.92523 24.8497 5.88098C24.6266 5.83322 24.3604 5.84806 24.1406 6.1605C23.9574 6.42059 23.8986 6.71603 23.806 7.00715C22.5215 11.0812 22.6118 11.1293 21.3635 15.1893C21.1404 15.9178 20.837 17.8307 20.8058 18.5889C20.7501 19.9379 19.734 20.4041 18.1117 20.3426C16.6339 20.2887 15.9151 19.4115 16.1109 17.838C16.175 17.3235 16.344 16.8176 16.5012 16.3179C17.1832 14.1479 17.8742 12.059 18.4937 9.87358C18.5604 9.63804 18.6295 9.29754 18.5216 9.0102C18.4101 8.71341 17.9082 8.55153 17.6294 8.79435C17.4214 8.97566 17.2836 9.33397 17.2111 9.54981C16.3771 12.0385 15.7573 14.051 15.0084 16.5648C14.8491 17.0993 14.7111 18.0487 14.7234 18.6094C14.756 20.0887 15.6578 21.1456 17.1467 21.5619C18.7082 21.9982 20.0053 21.4723 21.2204 20.6424C21.2884 20.5959 21.3695 20.571 21.4527 20.571C21.5359 20.571 21.617 20.5959 21.685 20.6424C23.8493 22.1306 25.8418 21.6331 27.7114 20.1837C27.7849 20.1267 27.8766 20.0961 27.9708 20.0973C28.065 20.0985 28.1558 20.1313 28.2277 20.1902C30.4841 22.0354 32.3584 22.0022 35.4631 20.1163C35.6134 20.0251 35.8435 20.0453 35.9731 20.1624C37.7855 21.7974 38.9845 21.8271 41.3992 20.504C41.4598 20.4709 41.528 20.4531 41.5975 20.4521C41.6671 20.4511 41.7358 20.467 41.7974 20.4983C44.4167 21.8284 45.1631 21.7278 47.9141 20.1575C47.9845 20.1172 48.0653 20.0972 48.1471 20.1C48.2288 20.1029 48.308 20.1283 48.3753 20.1735C50.9924 21.9353 53.1327 21.9167 55.7208 21.2095C56.6967 20.9427 57.4947 20.5002 58.1374 19.905C58.2795 20.3227 58.4996 20.7117 58.7868 21.0525C59.2143 21.5522 59.7884 21.918 60.4938 22.1403C61.305 22.3959 62.1111 22.5245 62.8968 22.5245C63.034 22.5245 63.1705 22.5206 63.3064 22.5127C64.2547 22.4567 65.1802 22.2079 66.0225 21.7826C66.1321 21.7286 66.634 21.5581 66.716 21.5265C67.0037 21.4151 68.8524 20.7136 70.2275 19.575C70.44 19.3991 70.4804 19.3805 70.5649 19.677C70.7467 20.3151 71.0813 21.0069 71.5832 21.5292C72.4841 22.4647 73.5908 22.8011 74.879 22.8003C78.4146 22.7973 80.3943 20.396 82.2856 16.9714C82.8385 15.9699 83.1207 14.8696 83.5284 13.7547C83.7115 13.2543 83.8128 12.9111 84.0052 12.4022C84.0216 12.3603 84.0529 12.3255 84.0935 12.3039C84.134 12.2823 84.1812 12.2754 84.2266 12.2843C85.5524 12.437 86.6094 12.5811 87.5246 12.6461C87.7214 12.6461 88.0496 12.6361 88.2863 12.4958C88.3055 12.4867 88.3238 12.476 88.341 12.4637C88.5362 12.3018 88.5417 12.0096 88.4955 11.9241C88.4863 11.9068 88.4771 11.8896 88.4676 11.8723C88.3376 11.6271 88.0432 11.5148 87.872 11.4706C87.3372 11.3305 86.5791 11.2563 85.72 11.1417C85.0059 11.0464 85.0787 11.0861 84.521 10.9528C84.4031 10.9258 84.424 10.7505 84.4758 10.6439L85.246 8.79435C85.8594 7.5322 86.3666 6.18559 86.919 4.9631C87.5223 3.62836 87.867 3.66802 88.6112 3.82451C88.9179 3.88873 89.3997 4.03064 89.8188 4.12669C90.8784 4.36952 91.3103 4.50442 92.4802 4.53815L92.5781 4.53977C93.3588 4.53977 94.2355 4.31124 94.7251 3.82991C95.159 3.40442 95.3472 2.78602 95.3385 2.18408C95.3218 0.950258 94.117 3.04606e-07 92.7655 3.04606e-07ZM36.9245 13.7858C36.315 15.9 36.2871 16.5246 34.666 18.7502C33.651 20.1435 31.7845 20.3405 30.372 19.7215C28.7985 19.0322 28.5191 17.8458 28.4012 16.4617C28.3991 16.4387 28.3991 16.4156 28.4012 16.3927C28.5983 14.2633 29.3428 12.3995 31.0551 10.9919C32.1983 10.0522 33.5194 9.65908 34.9849 10.2241C36.4318 10.7817 37.2836 12.5401 36.9245 13.7858ZM48.5855 14.6141C48.97 13.0033 49.6038 12.0285 50.3642 11.3845C51.1112 10.7515 52.1038 10.3196 53.1009 10.057C54.6066 9.66097 56.0083 10.3681 56.5263 11.6543C57.0101 12.8552 56.4014 14.1209 54.9978 14.895C53.2913 15.836 51.4943 16.2534 49.3124 15.9499C48.6633 15.8595 48.4377 15.2325 48.5855 14.6141ZM82.6132 12.3914C82.5996 12.539 82.5525 12.719 82.5017 12.8908C82.4897 12.9313 82.4758 12.9718 82.4599 13.0101C82.3598 13.2594 82.0375 14.3273 81.7595 14.9999C81.1181 16.5526 80.4124 18.0441 79.2221 19.2898C77.7956 20.7829 76.6702 21.7594 74.1072 21.4877C73.2283 21.3943 71.4717 20.1532 71.9348 18.0018C72.1375 17.0602 72.4755 16.4569 72.9191 15.958C74.9571 13.6663 76.7586 12.6208 80.8404 12.2749L81.6212 12.2209C81.663 12.2174 82.4504 12.2282 82.4504 12.2282C82.4726 12.227 82.4948 12.2305 82.5155 12.2383C82.5362 12.2462 82.5549 12.2583 82.5704 12.2738C82.5858 12.2893 82.5977 12.3078 82.605 12.3281C82.6124 12.3484 82.6152 12.37 82.6132 12.3914ZM93.9224 2.40236C93.8741 2.5896 93.8256 2.73017 93.6321 2.87074C93.3017 3.11033 92.8873 3.24524 92.548 3.2509H92.4733C91.8621 3.2509 91.2238 3.2277 90.6307 3.1044C90.3829 3.05259 90.2435 3.05745 89.9128 2.94791L89.8079 2.91688C89.7109 2.8702 89.6406 2.82649 89.5174 2.77658C89.4448 2.74118 89.3793 2.69359 89.3239 2.63601C89.2835 2.5813 89.2662 2.51378 89.2754 2.44715C89.3239 2.21295 90.1255 1.88541 90.6137 1.77614C91.2247 1.63881 91.8406 1.43537 92.473 1.37143C92.4917 1.36954 92.5218 1.36792 92.5405 1.36792C92.8369 1.36792 93.2629 1.45237 93.5359 1.65014C93.6516 1.73378 93.7779 1.83738 93.8264 1.93128C93.875 2.02517 93.9709 2.26179 93.9224 2.40236Z" fill="#060048"/>
<path d="M95.7581 20.9383C96.3871 21.5823 97.1592 22.027 98.0311 22.2231C98.3602 22.2973 98.697 22.3347 99.0349 22.3348C100.138 22.3348 101.242 21.9371 102.223 21.172C102.723 20.7781 103.162 20.3178 103.528 19.8046C103.53 19.8024 103.532 19.801 103.535 19.8005C104.218 19.691 105.81 19.3365 106.918 18.2988C106.919 18.297 106.922 18.2958 106.924 18.2953C106.927 18.2948 106.929 18.295 106.932 18.2958C106.934 18.2966 106.936 18.2981 106.938 18.3001C106.94 18.3021 106.941 18.3044 106.941 18.3069C107.005 19.0483 107.063 19.9287 107.205 20.8039C107.208 20.8244 107.212 20.8447 107.217 20.8649C107.401 21.6743 108.107 21.8729 108.734 21.3106C108.792 21.2597 108.844 21.2022 108.888 21.1393C110.341 19.0286 111.588 17.2039 112.217 16.2671C112.385 16.0186 113.543 14.2814 113.85 13.9306C113.853 13.9282 113.856 13.9264 113.859 13.9256C113.862 13.9247 113.866 13.9248 113.869 13.9258C113.872 13.9268 113.875 13.9287 113.877 13.9312C113.879 13.9338 113.88 13.9368 113.881 13.9401C114.183 16.3535 114.522 18.1525 114.831 20.3423C114.887 20.7335 115.003 21.2769 115.17 21.6538C115.218 21.7475 115.218 21.7475 115.258 21.8384C115.302 21.9582 115.403 22.0855 115.509 22.1737C115.648 22.2893 115.826 22.3528 116.009 22.3526C116.121 22.3527 116.231 22.3294 116.332 22.2843C116.433 22.2392 116.523 22.1734 116.595 22.0915C116.8 21.86 121.566 16.4093 122.302 10.7401C122.303 10.7366 122.305 10.7333 122.307 10.7309C122.31 10.7284 122.314 10.727 122.317 10.7269C125.431 10.619 129.613 8.50318 130.829 7.03057C130.9 6.94519 130.95 6.84583 130.977 6.73953C131.003 6.63324 131.005 6.52261 130.982 6.41547C130.96 6.30833 130.913 6.20731 130.846 6.11955C130.778 6.0318 130.692 5.95945 130.592 5.90764C130.262 5.73253 129.852 5.83047 129.614 6.11269C128.722 7.17357 125.29 8.99557 122.625 9.2179C122.623 9.21811 122.621 9.21785 122.619 9.21712C122.617 9.21639 122.615 9.21522 122.613 9.2137C122.613 9.2137 122.611 9.21032 122.61 9.20829C122.609 9.20626 122.609 9.20411 122.609 9.20198C122.731 8.26278 122.382 7.34894 121.852 6.58107C121.267 5.7328 119.814 4.96601 118.773 5.5925C118.184 5.94703 117.401 6.88353 118.773 9.17527C119.08 9.6879 119.664 10.2982 120.757 10.5783C120.761 10.5793 120.764 10.5815 120.766 10.5847C120.768 10.5878 120.769 10.5915 120.769 10.5953C120.245 14.5042 117.524 18.4466 116.178 20.1912L116.092 19.9006C115.961 19.0861 115.864 18.5929 115.807 18.0333C115.639 16.3939 115.444 14.7573 115.196 13.1277L115.053 12.1863C114.96 11.5725 114.238 11.2215 113.717 11.5833C113.594 11.674 113.481 11.776 113.378 11.8879C113.137 12.1453 112.976 12.4653 112.78 12.7594C111.421 14.798 110.062 16.8364 108.561 19.0885C108.469 18.6455 108.441 18.5154 108.407 18.333C107.919 15.7159 107.917 13.0338 107.604 10.3916C107.599 10.3522 107.59 10.3135 107.576 10.2761C107.362 9.65552 106.418 9.74186 106.302 10.387C106.295 10.4255 106.292 10.4646 106.292 10.5038C106.301 11.6343 106.504 12.7621 106.541 13.8936L106.719 15.8589C106.717 15.87 106.713 15.88 106.712 15.891C106.573 17.215 105.397 17.8908 104.419 18.2286C104.417 18.2296 104.414 18.2297 104.411 18.2291C104.408 18.2285 104.406 18.2271 104.404 18.2251C104.402 18.2231 104.4 18.2206 104.4 18.2178C104.399 18.2151 104.4 18.2123 104.401 18.2097C104.542 17.8583 104.658 17.4977 104.746 17.1305C105.576 13.677 103.913 10.3403 101.038 9.69357C98.4095 9.10215 95.6677 10.9668 94.5836 13.9328C94.5669 13.9675 94.5534 14.0036 94.5432 14.0407C94.4595 14.2835 94.3817 14.5304 94.3201 14.7864C93.925 16.4323 94.0756 18.1018 94.7439 19.49C94.812 19.6316 94.8884 19.7649 94.967 19.8971C94.9022 19.8971 94.8378 19.9062 94.7757 19.9241C92.2663 20.6688 90.5623 20.6593 89.8435 19.8971C88.988 18.9881 89.5594 17.0102 89.851 16.3241L92.9078 7.72937C93.021 7.411 92.88 7.05108 92.5635 6.90916C92.4778 6.87009 92.3846 6.84893 92.29 6.84706C92.1953 6.84518 92.1013 6.86263 92.014 6.89827C91.9268 6.93391 91.8483 6.98694 91.7837 7.0539C91.719 7.12086 91.6697 7.20025 91.6389 7.28689L88.5988 15.8425C88.4722 16.146 87.2922 19.1158 88.8456 20.7713C89.471 21.4374 90.4198 21.7696 91.6818 21.7696C92.8733 21.7737 94.0558 21.5702 95.1728 21.169C95.4388 21.0737 95.5885 21.0174 95.7115 20.9499L95.7581 20.9383ZM103.435 16.8348C103.348 17.1936 103.23 17.5448 103.083 17.8846L103.085 17.8862C103.085 17.8862 103.041 17.9904 102.96 18.1561C102.938 18.1995 102.917 18.2429 102.895 18.2858C102.512 19.0372 101.617 20.1065 100.394 20.7365C100.39 20.7389 100.384 20.7365 100.379 20.7365C99.7063 21.0203 99.0067 21.1005 98.3364 20.9494C97.3256 20.7222 96.485 20.0072 95.9694 18.9363C95.6925 18.3611 95.5291 17.7222 95.4778 17.0523V17.0504C95.4221 16.5917 95.4695 14.5781 96.2078 13.4253C97.0722 11.8523 98.5678 10.8867 100.04 10.8867C100.274 10.8865 100.507 10.9124 100.734 10.9638C102.886 11.4495 104.097 14.0828 103.435 16.8362V16.8348ZM121.117 8.63432C121.048 8.88846 120.799 9.05493 120.564 8.92327C120.358 8.80833 120.245 8.65643 120.108 8.4279C119.436 7.30416 119.578 6.91348 119.587 6.85979C119.624 6.61696 119.849 6.57001 119.963 6.57001C120.124 6.57001 120.319 6.62155 120.454 6.74809C120.795 7.06646 120.934 7.2823 121.077 7.69241C121.186 7.99614 121.2 8.32436 121.117 8.63565V8.63432Z" fill="#060048"/>
</g>
</g>
<defs>
<clipPath id="clip0_384_69991">
<rect width="131" height="23" fill="white"/>
</clipPath>
<clipPath id="clip1_384_69991">
<rect width="131" height="23" fill="white"/>
</clipPath>
</defs>
</svg>
