<svg width="100" height="22" viewBox="0 0 100 22" fill="none" xmlns="http://www.w3.org/2000/svg">
<path d="M58.4514 0.451448C58.8894 0.451489 59.3084 0.535698 59.7082 0.704378C60.0892 0.873168 60.404 1.12656 60.6516 1.46414C60.8992 1.80161 61.0319 2.17672 61.051 2.58914C61.0701 3.00154 60.9659 3.38628 60.7375 3.74246C60.528 4.08004 60.2606 4.36214 59.9368 4.58719C59.5749 4.83087 59.1653 4.97157 58.7082 5.00907C58.2511 5.02782 57.8129 4.99912 57.3938 4.9241C57.0319 4.86784 56.6698 4.79326 56.3079 4.6995C55.9459 4.58697 55.5838 4.46456 55.2219 4.33328C55.1077 4.31453 54.9934 4.28678 54.8791 4.2493C54.7839 4.19305 54.6882 4.15575 54.593 4.137C54.574 4.1557 54.5458 4.18381 54.508 4.22098C54.489 4.25849 54.4695 4.28719 54.4504 4.30594L54.3362 4.44657C54.2982 4.50262 54.2505 4.55848 54.1936 4.61453C54.1556 4.67068 54.1174 4.72733 54.0793 4.78348C53.8698 5.08355 53.6693 5.39337 53.4788 5.71219C53.2884 6.03081 53.1174 6.34963 52.9651 6.66825C52.927 6.74326 52.8787 6.82838 52.8215 6.92215C52.7835 7.01577 52.7453 7.10016 52.7073 7.17508C52.6883 7.21246 52.6696 7.25 52.6506 7.28739C52.6506 7.32486 52.6403 7.36222 52.6213 7.39969C52.6023 7.41843 52.593 7.43759 52.593 7.45633V7.48465C52.5952 7.48249 52.5969 7.47973 52.5989 7.47782C52.5901 7.49262 52.5784 7.51329 52.5647 7.54032C52.5266 7.61534 52.4906 7.69303 52.4573 7.77274L52.2717 8.26492C52.2384 8.34469 52.2024 8.42228 52.1643 8.49735C52.0691 8.79726 51.9641 9.10643 51.8498 9.42508C51.7546 9.74386 51.6599 10.0538 51.5647 10.3538C52.0028 10.3913 52.4318 10.4573 52.8508 10.5511C53.2888 10.6261 53.7171 10.7294 54.136 10.8606C54.3455 10.9356 54.4978 11.0667 54.593 11.2542C54.7073 11.423 54.7454 11.6104 54.7073 11.8167C54.6501 12.0042 54.5174 12.1639 54.3079 12.2952C54.0983 12.4077 53.8978 12.4354 53.7073 12.3792C53.4597 12.3042 53.1931 12.2296 52.9075 12.1546C52.6408 12.0796 52.3641 12.0231 52.0784 11.9856C52.0404 11.967 52.0021 11.9573 51.9641 11.9573H51.7932C51.7361 11.9386 51.6692 11.929 51.593 11.929C51.5359 11.9103 51.469 11.9007 51.3928 11.9007H51.2219C51.1838 11.8819 51.1355 11.8733 51.0784 11.8733C51.0593 12.0045 51.0212 12.1357 50.9641 12.2669C50.926 12.3793 50.8879 12.501 50.8498 12.6321C50.4879 13.8324 50.06 15.043 49.5647 16.262C49.0694 17.4622 48.3731 18.5314 47.4778 19.469C46.9637 19.9938 46.3829 20.4341 45.7356 20.7903C45.0879 21.1466 44.3824 21.3723 43.6204 21.4661C42.9538 21.5411 42.2777 21.475 41.592 21.2688C40.9062 21.0625 40.3251 20.7154 39.8489 20.2278C39.6941 20.0594 39.5563 19.8782 39.4329 19.6858C39.3431 19.8135 39.2466 19.9381 39.1428 20.0589C38.7428 20.5277 38.247 20.9121 37.6565 21.2122C37.3138 21.3809 36.9523 21.5034 36.5715 21.5784C36.2097 21.6721 35.8474 21.719 35.4856 21.719C35.2761 21.719 35.0662 21.6999 34.8567 21.6624C34.6471 21.6436 34.4466 21.6063 34.2561 21.5501C33.7801 21.4188 33.3518 21.1939 32.9709 20.8753C32.6038 20.5681 32.3166 20.2168 32.1086 19.8225C31.7671 20.3225 31.3388 20.7368 30.8225 21.0647C30.4224 21.3085 29.9936 21.4682 29.5364 21.5432C29.0794 21.6182 28.6223 21.6086 28.1653 21.5149C27.7462 21.4399 27.3554 21.2802 26.9934 21.0364C26.6505 20.7926 26.3646 20.4923 26.136 20.136C26.0789 20.0611 26.0221 19.9767 25.9651 19.8831C25.9079 19.7706 25.8699 19.6673 25.8508 19.5735C25.8318 19.4986 25.8029 19.4238 25.7649 19.3489C25.7458 19.2551 25.7263 19.17 25.7073 19.095C25.6883 18.9827 25.6696 18.8704 25.6506 18.7581C25.6506 18.6456 25.6599 18.5327 25.6789 18.4202C25.698 18.289 25.7166 18.1578 25.7356 18.0266C25.7737 17.8767 25.8127 17.736 25.8508 17.6048C25.927 17.3047 26.0124 16.9949 26.1077 16.6761C26.2029 16.3573 26.2976 16.0474 26.3928 15.7473C26.4309 15.5787 26.4793 15.4102 26.5364 15.2415C26.5935 15.0541 26.6409 14.876 26.6789 14.7073C26.698 14.6323 26.7175 14.5472 26.7366 14.4534C26.7556 14.3598 26.7742 14.2754 26.7932 14.2005V14.0882C26.8122 14.0508 26.8215 14.0132 26.8215 13.9759V13.9475V13.9192C26.8406 13.9005 26.8508 13.8813 26.8508 13.8626V13.6663C26.8699 13.5913 26.8791 13.5253 26.8791 13.469C26.8982 13.319 26.9075 13.1688 26.9075 13.0188C26.9075 12.8501 26.8982 12.6999 26.8791 12.5686V12.3723C26.8791 12.2973 26.8699 12.2218 26.8508 12.1468V12.0628C26.8508 12.0449 26.8469 12.029 26.845 12.0149C26.8406 12.0029 26.8338 11.9899 26.8215 11.9778V11.8938C26.8025 11.7627 26.7746 11.6314 26.7366 11.5003C26.6985 11.369 26.6604 11.237 26.6223 11.1057C26.6033 11.0683 26.5837 11.0309 26.5647 10.9934C26.5647 10.9372 26.5554 10.8903 26.5364 10.8528C26.5363 10.8341 26.5271 10.8149 26.508 10.7962C26.508 10.7589 26.4977 10.7309 26.4788 10.7122C26.4598 10.6935 26.441 10.6654 26.4221 10.6282C26.4221 10.5907 26.4119 10.562 26.3928 10.5432C26.3738 10.4871 26.3459 10.4305 26.3079 10.3743C26.2699 10.3182 26.2316 10.2624 26.1936 10.2063C26.1745 10.1876 26.155 10.1684 26.136 10.1497C26.136 10.1122 26.1267 10.0835 26.1077 10.0647V10.093C26.1076 10.0746 26.098 10.0649 26.0793 10.0647H26.1077C26.0887 10.0461 26.069 10.0374 26.05 10.0374H26.0793C26.0603 10.0186 26.0408 10.0091 26.0217 10.0091V9.98075C26.0217 9.98075 26.0311 9.99038 26.05 10.0091C25.993 9.93415 25.9269 9.86801 25.8508 9.8118C25.7746 9.73678 25.6975 9.66221 25.6213 9.58719C25.6023 9.56853 25.5837 9.5589 25.5647 9.55887C25.5456 9.54012 25.5261 9.52098 25.5071 9.50223C25.4881 9.48377 25.4598 9.47495 25.4221 9.47489C25.4031 9.45613 25.3835 9.437 25.3645 9.41825C25.3074 9.3995 25.2507 9.37075 25.1936 9.33328C25.1364 9.29578 25.0881 9.26805 25.05 9.2493H24.9934V9.22098C24.9554 9.20228 24.9171 9.19272 24.8791 9.19266C24.8411 9.17395 24.8123 9.16536 24.7932 9.16532C24.7171 9.14658 24.6408 9.12741 24.5647 9.10867C24.5075 9.08992 24.4407 9.07079 24.3645 9.05203C24.3454 9.0334 24.3165 9.02469 24.2786 9.02469H24.1077C24.0315 9.00594 23.9451 8.99637 23.8498 8.99637H23.1926C23.1737 9.0149 23.1549 9.0246 23.136 9.02469H23.0217C22.9838 9.02469 22.9548 9.03345 22.9358 9.05203C22.8024 9.07079 22.6687 9.09949 22.5354 9.137C22.4022 9.17446 22.2691 9.22145 22.136 9.27762C22.136 9.27762 22.1257 9.27762 22.1067 9.27762C22.1051 9.27913 22.0957 9.28884 22.0784 9.30594H22.0217C22.0027 9.32464 21.9737 9.3429 21.9358 9.3616C21.8977 9.3616 21.8689 9.37121 21.8498 9.38992C21.7737 9.40867 21.7068 9.44601 21.6496 9.50223C21.5925 9.53974 21.5257 9.578 21.4495 9.61551C21.3924 9.63431 21.3356 9.6717 21.2786 9.72782C21.2214 9.76532 21.1638 9.80261 21.1067 9.84012C21.0876 9.85885 21.0588 9.87804 21.0207 9.89676C20.9831 9.91534 20.9548 9.93385 20.9358 9.95242C20.9167 9.95242 20.9065 9.96202 20.9065 9.98075C20.9052 9.98204 20.8958 9.9917 20.8782 10.0091C20.7639 10.0841 20.6496 10.1778 20.5354 10.2903C20.4211 10.4028 20.3162 10.5157 20.2209 10.6282C20.164 10.6842 20.107 10.7401 20.05 10.7962C20.0119 10.8524 19.9636 10.9089 19.9065 10.9651C19.8875 10.9838 19.8689 11.003 19.8498 11.0218C19.8498 11.0218 19.8396 11.0313 19.8205 11.0501V11.0784L19.7922 11.1057C19.7732 11.1245 19.7639 11.1436 19.7639 11.1624C19.7639 11.1624 19.7546 11.172 19.7356 11.1907C19.6594 11.3032 19.573 11.4247 19.4778 11.5559C19.3825 11.6872 19.2971 11.8192 19.2209 11.9505C19.1448 12.0817 19.0686 12.2224 18.9924 12.3723C18.9163 12.5223 18.8493 12.663 18.7922 12.7942C18.7734 12.8128 18.764 12.8313 18.7639 12.8499C18.7639 12.8686 18.7545 12.8878 18.7356 12.9065V12.9348L18.7063 12.9632C18.7061 12.9818 18.6968 13.0002 18.678 13.0188V13.0755C18.6684 13.113 18.6561 13.1503 18.6418 13.1878L18.5422 13.4124C18.5279 13.45 18.5157 13.488 18.5061 13.5257C18.4872 13.5445 18.4684 13.5821 18.4495 13.638C18.4494 13.6752 18.4399 13.7032 18.4211 13.722C18.4021 13.7782 18.3826 13.8347 18.3635 13.8909C18.3635 13.9471 18.3542 14.0036 18.3352 14.0598C18.3161 14.1161 18.2966 14.1725 18.2776 14.2288C18.2776 14.2663 18.2683 14.3132 18.2493 14.3694C18.1159 14.782 17.9822 15.2038 17.8489 15.635C17.7346 16.0476 17.6204 16.4607 17.5061 16.8733C17.4109 17.1732 17.3161 17.4825 17.2209 17.8011C17.1257 18.1199 17.0301 18.4297 16.9348 18.7298C16.9348 18.7485 16.9255 18.786 16.9065 18.8421C16.9065 18.8796 16.8972 18.9083 16.8782 18.927C16.8401 19.0489 16.8041 19.1683 16.7707 19.2854L16.5852 19.9749C16.5519 20.092 16.5159 20.2115 16.4778 20.3333C16.4683 20.3707 16.4559 20.4103 16.4416 20.4524L16.342 20.72C16.3278 20.7621 16.3154 20.8017 16.3059 20.8391C16.2678 21.0267 16.1731 21.1682 16.0207 21.262C15.8683 21.3558 15.7059 21.4026 15.5344 21.4026H15.4202C15.3821 21.4026 15.3439 21.393 15.3059 21.3743C15.1155 21.3368 14.9631 21.2239 14.8489 21.0364C14.7346 20.8302 14.7058 20.6331 14.7629 20.4456V20.4173C14.8391 20.1736 14.9153 19.9295 14.9914 19.6858C15.0676 19.4235 15.1438 19.1706 15.22 18.927C15.3724 18.4019 15.5256 17.8856 15.678 17.3792C15.8303 16.8729 15.9826 16.3573 16.135 15.8323C16.3064 15.2509 16.4772 14.66 16.6487 14.0598C16.8392 13.441 17.0202 12.8405 17.1916 12.2591C17.325 11.7715 17.468 11.2837 17.6204 10.7962C17.7917 10.29 17.945 9.79341 18.0784 9.30594C18.1355 9.11847 18.1921 8.92133 18.2493 8.71512C18.3064 8.49007 18.3733 8.28352 18.4495 8.09598C18.5066 7.88969 18.6208 7.73955 18.7922 7.64578C18.9827 7.55201 19.1833 7.52429 19.3928 7.5618C19.5831 7.59942 19.7356 7.72092 19.8498 7.92703C19.9641 8.11453 19.9919 8.30204 19.9348 8.48953V8.51785C19.9158 8.59286 19.8972 8.65886 19.8782 8.71512C19.8592 8.77127 19.8396 8.83659 19.8205 8.91141C19.8387 8.89351 19.849 8.88488 19.8498 8.88407C19.8689 8.86532 19.8782 8.84617 19.8782 8.82742C20.4116 8.41483 20.9927 8.08686 21.6213 7.84305C22.269 7.59926 22.9356 7.47686 23.6213 7.47684C23.8118 7.47684 23.9929 7.48641 24.1643 7.50516C24.3547 7.5239 24.5452 7.55167 24.7356 7.58914C25.3642 7.70166 25.9361 7.94559 26.4504 8.32059C26.9648 8.69566 27.3741 9.15565 27.6789 9.6995C27.9837 10.2621 28.1936 10.8626 28.3079 11.5003C28.4221 12.1191 28.4602 12.7475 28.4221 13.385C28.4031 13.6475 28.3743 13.9193 28.3362 14.2005C28.2981 14.4816 28.2507 14.7535 28.1936 15.0159V15.0725C28.1936 15.0725 28.1842 15.0822 28.1653 15.1009V15.1848C28.1272 15.3349 28.0789 15.4946 28.0217 15.6634C27.9836 15.8134 27.9363 15.9635 27.8791 16.1136C27.7648 16.4699 27.6507 16.8266 27.5364 17.1829C27.4412 17.5391 27.3454 17.8951 27.2502 18.2513C27.2312 18.3075 27.2126 18.3735 27.1936 18.4485C27.1936 18.5234 27.2029 18.4948 27.2219 18.3636V18.8421C27.2409 18.8794 27.2502 18.917 27.2502 18.9544C27.2693 18.9919 27.2888 19.0302 27.3079 19.0677C27.2907 19.0508 27.2813 19.041 27.2795 19.0393V19.0677C27.2982 19.0862 27.3078 19.1048 27.3079 19.1233V19.095C27.3079 19.095 27.3172 19.1047 27.3362 19.1233H27.3079C27.3268 19.1234 27.3361 19.133 27.3362 19.1516V19.1233C27.3552 19.1796 27.3747 19.236 27.3938 19.2923C27.4317 19.3296 27.4597 19.3672 27.4788 19.4046C27.4978 19.4233 27.5173 19.452 27.5364 19.4895C27.5552 19.5081 27.5741 19.5266 27.593 19.5452C27.6121 19.564 27.6408 19.5927 27.6789 19.6302C27.7169 19.6488 27.7458 19.6671 27.7649 19.6858V19.7141C27.7839 19.7141 27.8035 19.7237 27.8225 19.7425C27.8605 19.7612 27.8988 19.7804 27.9368 19.7991C27.9744 19.8177 28.0028 19.8362 28.0217 19.8548C28.0313 19.8642 28.0436 19.8737 28.0579 19.8831L28.1575 19.9397C28.1717 19.9491 28.1841 19.9577 28.1936 19.9671H28.2219C28.241 19.9671 28.2605 19.9766 28.2795 19.9954C28.3366 20.0141 28.3934 20.0333 28.4504 20.052C28.5076 20.052 28.5559 20.0616 28.594 20.0804H28.7082C28.7652 20.0804 28.8035 20.09 28.8225 20.1087H28.9368C28.9937 20.1086 29.0413 20.099 29.0793 20.0804H29.2795C29.3366 20.0616 29.384 20.0424 29.4221 20.0237C29.4602 20.005 29.4983 19.9954 29.5364 19.9954C29.5933 19.9767 29.6409 19.9584 29.6789 19.9397H29.7082C29.7272 19.9211 29.7459 19.9115 29.7649 19.9114C29.822 19.8927 29.8796 19.864 29.9368 19.8264C30.0128 19.7703 30.0799 19.7233 30.137 19.6858C30.1558 19.6673 30.1747 19.6487 30.1936 19.6302C30.2126 19.6114 30.2322 19.5923 30.2512 19.5735C30.2701 19.555 30.289 19.5453 30.3079 19.5452C30.3269 19.5265 30.3464 19.5083 30.3655 19.4895C30.4035 19.4521 30.4417 19.4147 30.4797 19.3772C30.5369 19.321 30.5842 19.2827 30.6223 19.2639C30.6412 19.2453 30.6505 19.2269 30.6506 19.2083C30.6697 19.1895 30.6892 19.1704 30.7082 19.1516C30.6892 19.1704 30.6799 19.1704 30.6799 19.1516C30.6989 19.133 30.7176 19.1137 30.7366 19.095C30.7746 19.0388 30.8128 18.9918 30.8508 18.9544C30.8889 18.8982 30.9177 18.8512 30.9368 18.8138C31.0128 18.7014 31.0799 18.5892 31.137 18.4768C31.2132 18.3456 31.28 18.2136 31.3371 18.0823V18.055C31.3562 18.0362 31.3655 18.0171 31.3655 17.9983C31.3845 17.9609 31.3938 17.9234 31.3938 17.886C31.4128 17.8485 31.4324 17.8198 31.4514 17.8011C31.4704 17.7262 31.489 17.6513 31.508 17.5764C31.5461 17.4828 31.685 17.2582 31.7043 17.1829C31.7492 17.0724 31.7906 16.9892 31.8508 16.9192C31.8901 16.7132 31.939 16.5029 31.9993 16.2893L34.5989 7.73758C34.656 7.55004 34.7804 7.40948 34.9709 7.31571C35.1614 7.22199 35.3518 7.20287 35.5422 7.25907C35.7327 7.31533 35.8757 7.43773 35.9709 7.62528C36.0852 7.81277 36.114 8.00028 36.0569 8.18778L33.428 16.7112C33.1803 17.6114 33.1608 18.3621 33.3704 18.9622C33.5989 19.5435 34.0372 19.9279 34.6848 20.1155C35.0468 20.2093 35.4283 20.237 35.8284 20.1995C36.2472 20.162 36.6375 20.0499 36.9993 19.8626C37.3993 19.675 37.7335 19.4216 38.0002 19.1028C38.2858 18.7842 38.4855 18.4185 38.5998 18.0061C38.6389 17.878 38.7105 17.7731 38.8118 17.6888C38.8073 17.5507 38.8096 17.4127 38.8196 17.2747C38.8767 16.6934 39.0105 16.1492 39.22 15.6429C39.4485 15.1178 39.7438 14.63 40.1057 14.18C40.2771 13.9925 40.4582 13.8049 40.6487 13.6175C40.8392 13.4299 41.0397 13.2607 41.2493 13.1106C41.4968 12.9232 41.7542 12.7356 42.0207 12.5481C42.3064 12.3607 42.5916 12.1913 42.8772 12.0413C43.4487 11.7412 44.04 11.4792 44.6496 11.2542C45.2592 11.0292 45.8785 10.8513 46.5071 10.72C47.0594 10.5888 47.6212 10.4854 48.1926 10.4104C48.7641 10.3354 49.336 10.2886 49.9075 10.2698C49.9836 10.0824 50.0496 9.88515 50.1067 9.67899C50.1638 9.47279 50.2307 9.27563 50.3069 9.08817C50.6117 8.13169 50.983 7.17453 51.4211 6.21805C51.8592 5.26176 52.3932 4.38081 53.0217 3.5745C52.6789 3.44324 52.3362 3.32079 51.9934 3.20828C51.6505 3.077 51.307 2.96417 50.9641 2.87039C50.6214 2.75795 50.2692 2.66412 49.9075 2.58914C49.5456 2.49539 49.1834 2.42079 48.8215 2.36453C48.8025 2.34579 48.7737 2.33622 48.7356 2.33621H48.5354C48.4973 2.31751 48.4592 2.30789 48.4211 2.30789C48.345 2.28918 48.2594 2.28057 48.1643 2.28055H47.9065C47.7161 2.26182 47.5349 2.25223 47.3635 2.25223C47.1923 2.25224 47.0211 2.26183 46.8498 2.28055C46.8117 2.28055 46.7634 2.28914 46.7063 2.30789H46.592C46.516 2.32661 46.4778 2.33621 46.4778 2.33621C46.4968 2.31746 46.5163 2.30789 46.5354 2.30789H46.4778C46.4016 2.32663 46.3161 2.3458 46.2209 2.36453C46.1447 2.38329 46.0686 2.40242 45.9924 2.42117C45.9163 2.4399 45.8306 2.45811 45.7356 2.47684C45.6594 2.49559 45.5823 2.51472 45.5061 2.53348C45.4681 2.55216 45.4205 2.57046 45.3635 2.58914C45.3255 2.58917 45.2966 2.59873 45.2776 2.61746C45.2586 2.6361 45.2305 2.64572 45.1926 2.64578C45.1736 2.64578 45.1541 2.65535 45.135 2.6741C45.154 2.65537 45.1447 2.6554 45.1067 2.6741C45.0687 2.69279 45.0398 2.71108 45.0207 2.72977C45.0017 2.72977 44.9822 2.73934 44.9631 2.75809H44.9348C44.8967 2.77684 44.8493 2.80557 44.7922 2.84305C44.7542 2.86176 44.716 2.88 44.678 2.89871C44.6208 2.91747 44.554 2.95573 44.4778 3.012C44.4207 3.04945 44.363 3.08685 44.3059 3.1243C44.287 3.14287 44.2681 3.16139 44.2493 3.17996C44.2302 3.17996 44.2107 3.18953 44.1916 3.20828C44.1726 3.22704 44.1447 3.25583 44.1067 3.29325C44.0687 3.31195 44.0398 3.33021 44.0207 3.34891C43.9636 3.40517 43.906 3.46159 43.8489 3.51785C43.7918 3.57405 43.7351 3.6306 43.678 3.6868C43.659 3.70551 43.6394 3.72375 43.6204 3.74246L43.5637 3.7991C43.5447 3.87412 43.5251 3.91141 43.5061 3.91141C43.5062 3.89288 43.5157 3.87428 43.5344 3.85575C43.5156 3.87432 43.4966 3.89284 43.4778 3.91141C43.4778 3.93012 43.4684 3.94934 43.4495 3.96805C43.4114 4.04307 43.363 4.10905 43.3059 4.16532C43.268 4.2214 43.2399 4.28691 43.2209 4.3616C43.2019 4.399 43.1729 4.43651 43.135 4.47391C43.116 4.51142 43.0964 4.54968 43.0774 4.58719C43.0773 4.60579 43.0679 4.62425 43.0491 4.64285V4.6995C43.03 4.77442 43.0012 4.84918 42.9631 4.9241C42.9441 4.98035 42.9255 5.04639 42.9065 5.12137C42.8875 5.19633 42.8679 5.28062 42.8489 5.3743C42.8298 5.44932 42.8113 5.52487 42.7922 5.59989C42.8112 5.58123 42.8112 5.60908 42.7922 5.68387V5.65555C42.7922 5.6743 42.782 5.68387 42.7629 5.68387H42.7922C42.7732 5.70258 42.763 5.74012 42.7629 5.79617V6.47196C42.763 6.50938 42.7732 6.54683 42.7922 6.58426V6.69657C42.8113 6.8278 42.8494 6.96847 42.9065 7.11844C42.9527 7.2398 42.9989 7.36134 43.0452 7.4827C43.0466 7.49084 43.0467 7.50141 43.0491 7.51297C43.0681 7.58777 43.0877 7.63487 43.1067 7.6536C43.1256 7.67234 43.1444 7.70037 43.1633 7.73758C43.1824 7.77507 43.2019 7.81239 43.2209 7.84989C43.259 7.9249 43.2971 7.99089 43.3352 8.04715C43.3922 8.10336 43.4397 8.1695 43.4778 8.24442C43.4966 8.26303 43.506 8.28147 43.5061 8.30008C43.5061 8.30008 43.5155 8.30979 43.5344 8.3284C43.5534 8.3471 43.573 8.37503 43.592 8.41239C43.6301 8.44989 43.6589 8.47859 43.678 8.49735C43.716 8.55354 43.7635 8.6101 43.8205 8.66629C43.8777 8.7225 43.9353 8.76944 43.9924 8.80692C44.0114 8.82563 44.0396 8.85374 44.0774 8.8909C44.1154 8.92835 44.1536 8.95711 44.1916 8.97586V8.9827C44.1822 8.97809 44.1728 8.97586 44.1633 8.97586C44.1823 8.97586 44.1915 8.98469 44.1916 9.00321V8.9827L44.2209 9.00321C44.2548 9.01989 44.2656 9.02776 44.2541 9.02957C44.3164 9.07734 44.3726 9.12439 44.4211 9.17215C44.4972 9.20961 44.5735 9.247 44.6496 9.28446C44.84 9.37822 44.9543 9.53802 44.9924 9.76297C45.0496 9.96924 45.0207 10.1663 44.9065 10.3538C44.8113 10.5412 44.6496 10.6637 44.4211 10.72C44.2116 10.7575 44.011 10.7288 43.8205 10.635C43.5158 10.4475 43.2298 10.2409 42.9631 10.0159C42.6965 9.77217 42.4485 9.50042 42.22 9.20047C41.7819 8.61914 41.4773 7.97165 41.3059 7.25907C41.1536 6.54655 41.1443 5.84345 41.2776 5.14969C41.4109 4.41827 41.6969 3.74319 42.135 3.1243C42.5731 2.50547 43.106 2.00816 43.7346 1.63309C44.3823 1.23925 45.0878 0.976284 45.8498 0.845003C46.6116 0.713794 47.3639 0.666895 48.1067 0.704378C48.8687 0.76064 49.6215 0.89261 50.3645 1.09891C51.1263 1.28642 51.8692 1.50164 52.593 1.74539C52.8596 1.83912 53.1263 1.94251 53.3928 2.05496C53.6595 2.14874 53.9176 2.23288 54.1653 2.30789C54.2984 2.17686 54.4409 2.055 54.593 1.94266C54.7454 1.83013 54.8986 1.7173 55.051 1.60477C55.3748 1.39855 55.7175 1.211 56.0793 1.04227C56.4603 0.854758 56.8317 0.714165 57.1936 0.620394C57.6127 0.507866 58.0323 0.451448 58.4514 0.451448ZM62.8655 0.677034C63.0559 0.564552 63.2556 0.535897 63.4651 0.592073C63.6556 0.648335 63.7985 0.770739 63.8938 0.958284C64.008 1.14576 64.0369 1.34289 63.9797 1.5491L59.4358 16.4026C59.1692 17.3214 59.1413 18.0905 59.3508 18.7093C59.5795 19.3092 60.027 19.7034 60.6936 19.8909C61.0555 19.9846 61.4464 20.0124 61.8655 19.9749C62.3035 19.9373 62.7038 19.8245 63.0657 19.637C63.4845 19.4495 63.8274 19.1873 64.094 18.8499C64.3797 18.5123 64.5895 18.1365 64.7229 17.7239C64.7706 17.5677 64.8658 17.4459 65.0061 17.3548C64.9391 16.92 64.9045 16.4901 64.9045 16.0647C64.9236 15.3708 65.009 14.6862 65.1614 14.011C65.3328 13.3359 65.5622 12.6798 65.8479 12.0423C65.9812 11.7047 66.1427 11.3757 66.3332 11.0569C66.5426 10.7383 66.6556 10.5482 66.884 10.2483C66.9221 10.1733 67.0666 9.9882 67.1047 9.93192C67.1619 9.87565 67.2195 9.81924 67.2766 9.76297H67.3049C67.4382 9.59424 67.5813 9.43444 67.7336 9.28446C67.8859 9.13454 68.0384 8.99377 68.1907 8.86258C68.743 8.43133 69.3429 8.08409 69.9905 7.82157C70.6572 7.55903 71.3433 7.42803 72.0481 7.42801C72.2385 7.42801 72.4196 7.43759 72.5911 7.45633C72.7814 7.47507 72.972 7.50285 73.1623 7.54032C73.7909 7.65283 74.3629 7.89676 74.8772 8.27176C75.3915 8.64684 75.8009 9.10681 76.1057 9.65067C76.4105 10.2133 76.611 10.8138 76.7063 11.4514C76.8205 12.0702 76.8679 12.6987 76.8489 13.3362C76.8107 13.9737 76.7058 14.6022 76.5344 15.221C76.382 15.821 76.1824 16.4026 75.9348 16.9651C76.0109 16.9464 76.0872 16.9272 76.1633 16.9085C76.2395 16.871 76.3157 16.8432 76.3918 16.8245H76.4202C76.4392 16.8057 76.4587 16.7962 76.4778 16.7962C76.4967 16.7775 76.5155 16.7679 76.5344 16.7679C76.5725 16.7491 76.6013 16.73 76.6204 16.7112C76.6584 16.6925 76.6966 16.6743 76.7346 16.6555C76.7917 16.6368 76.8391 16.6176 76.8772 16.5989C76.9152 16.5802 76.9534 16.5523 76.9914 16.5149C77.0486 16.4774 77.0867 16.4487 77.1057 16.43C77.1248 16.4112 77.1443 16.4026 77.1633 16.4026C77.1823 16.3839 77.201 16.3647 77.22 16.346H77.2493C77.3063 16.3085 77.3631 16.2615 77.4202 16.2054C77.4773 16.1491 77.5349 16.0927 77.592 16.0364C77.6491 15.9802 77.7058 15.9237 77.7629 15.8675C77.8201 15.8112 77.8684 15.7548 77.9065 15.6985C77.9252 15.6799 77.9347 15.6614 77.9348 15.6429C77.9539 15.6241 77.9631 15.605 77.9631 15.5862C77.9822 15.5675 78.0017 15.5397 78.0207 15.5022C78.0588 15.4647 78.0876 15.436 78.1067 15.4173C78.1447 15.3424 78.1829 15.2771 78.2209 15.221C78.259 15.1647 78.2868 15.0987 78.3059 15.0237C78.3249 15.005 78.3445 14.9771 78.3635 14.9397C78.3826 14.8835 78.4011 14.8452 78.4202 14.8264C78.4582 14.7142 78.4964 14.6114 78.5344 14.5179C78.5725 14.4054 78.6013 14.2924 78.6204 14.18C78.6394 14.1049 78.6589 14.039 78.678 13.9827C78.697 13.9078 78.7063 13.8329 78.7063 13.7581H78.7346V13.7298C78.7537 13.5235 78.8298 13.3542 78.9631 13.2229C79.0357 13.1413 79.1231 13.0801 79.2239 13.0374C79.2052 12.8453 79.1879 12.6542 79.1692 12.4641C79.1311 11.9766 79.0828 11.4888 79.0256 11.0013C78.9875 10.4949 78.9495 9.99765 78.9114 9.51004C78.8923 9.30374 78.8738 9.0972 78.8547 8.8909C78.8357 8.68466 78.8162 8.478 78.7971 8.27176C78.7782 8.0658 78.8545 7.89705 79.0256 7.7659C79.1969 7.61598 79.3783 7.53181 79.5686 7.51297C79.7971 7.51297 79.9782 7.5972 80.1116 7.7659C80.2448 7.91581 80.321 8.0844 80.3401 8.27176V8.30008C80.3591 8.54388 80.3786 8.79729 80.3977 9.05985C80.4358 9.30366 80.4646 9.54748 80.4836 9.79129C80.5217 10.3163 80.5598 10.8319 80.5979 11.3382C80.655 11.8445 80.7024 12.3513 80.7405 12.8577C80.7976 13.4578 80.8552 14.0584 80.9123 14.6585C80.9695 15.2583 81.0261 15.8489 81.0832 16.43C81.1023 16.73 81.1218 17.0399 81.1409 17.3587C81.179 17.6775 81.2077 17.9873 81.2268 18.2874C81.4363 17.9686 81.6452 17.6396 81.8547 17.302C82.0833 16.9645 82.3024 16.6269 82.512 16.2893C82.8357 15.8019 83.1599 15.3053 83.4836 14.7991C83.8265 14.2928 84.1598 13.7859 84.4836 13.2796C84.7312 12.8671 84.9885 12.4547 85.2551 12.0423C85.5409 11.6109 85.8175 11.1883 86.0842 10.7757C86.1984 10.607 86.3128 10.4385 86.427 10.2698C86.5413 10.0823 86.6462 9.90344 86.7414 9.73465C86.8366 9.60357 86.9603 9.50963 87.1125 9.4534C87.284 9.37838 87.4557 9.36023 87.6272 9.39774C87.7034 9.41649 87.7795 9.45381 87.8557 9.51004C87.9319 9.54755 87.9895 9.5944 88.0276 9.65067C88.0846 9.7256 88.1228 9.80996 88.1418 9.9036C88.1609 9.97861 88.1794 10.0542 88.1985 10.1292C88.2175 10.3353 88.2371 10.5508 88.2561 10.7757C88.2942 11.0007 88.323 11.2168 88.342 11.4231C88.3992 11.8544 88.4465 12.2954 88.4846 12.7454C88.5417 13.1766 88.5984 13.6081 88.6555 14.0393C88.7127 14.5269 88.7702 15.0242 88.8274 15.5305C88.8845 16.0367 88.9514 16.5429 89.0276 17.0491C89.0466 17.3866 89.0754 17.7243 89.1135 18.0618C89.1707 18.3993 89.218 18.737 89.2561 19.0745C89.3322 18.9996 89.4178 18.9248 89.5129 18.8499C89.6082 18.7561 89.6945 18.672 89.7707 18.597C90.2469 18.1469 90.7037 17.6964 91.1418 17.2464C91.599 16.7775 92.0372 16.308 92.4563 15.8391C92.4731 15.8226 92.4827 15.8137 92.4846 15.8118C92.5037 15.793 92.5232 15.7739 92.5422 15.7552C92.1803 15.2113 91.8944 14.6299 91.6848 14.011C91.4943 13.3734 91.3709 12.7356 91.3137 12.0979C91.2375 11.2916 91.2849 10.4853 91.4563 9.67899C91.6277 8.85379 92.0083 8.14046 92.5989 7.54032C93.018 7.12772 93.5332 6.82845 94.1428 6.6409C94.7523 6.43471 95.3429 6.44323 95.9143 6.66825C96.2 6.78077 96.4572 6.94049 96.6858 7.14676C96.9333 7.33424 97.1237 7.56871 97.2571 7.84989C97.3904 8.14996 97.4758 8.46934 97.5139 8.80692C97.571 9.12567 97.5813 9.45379 97.5432 9.79129C97.467 10.504 97.2757 11.1982 96.9709 11.8733C96.6852 12.5296 96.3519 13.1581 95.9709 13.7581C95.7424 14.0956 95.5047 14.4333 95.2571 14.7708C95.0285 15.1083 94.7899 15.4268 94.5422 15.7268C94.5612 15.7456 94.5902 15.783 94.6282 15.8391C94.6471 15.8578 94.6658 15.8749 94.6848 15.8889L94.7424 15.9241C94.7615 15.9241 94.7707 15.9337 94.7707 15.9524H94.8C94.8 15.9602 94.7966 15.9655 94.7932 15.97C94.8102 15.9826 94.8311 15.9955 94.8567 16.0081C94.8948 16.0268 94.9236 16.046 94.9426 16.0647C94.9996 16.0834 95.0566 16.1114 95.1135 16.1487C95.1707 16.1862 95.2282 16.2245 95.2854 16.262C95.3043 16.262 95.3231 16.2709 95.342 16.2893C95.38 16.2893 95.4089 16.2991 95.428 16.3177H95.4573C95.4585 16.3189 95.4679 16.3285 95.4856 16.346C95.5426 16.3647 95.5995 16.3839 95.6565 16.4026C95.7136 16.4214 95.7712 16.4395 95.8284 16.4583C95.8474 16.4583 95.8762 16.4679 95.9143 16.4866H96.0569C96.0853 16.4959 96.1113 16.5034 96.135 16.5081C96.1494 16.5128 96.1615 16.5149 96.1711 16.5149C96.1771 16.5149 96.1785 16.5138 96.175 16.512C96.1836 16.5128 96.1917 16.5149 96.1995 16.5149H96.5715C96.5905 16.4963 96.6092 16.4867 96.6282 16.4866H96.7424C96.7996 16.4679 96.8479 16.4487 96.886 16.43H96.9709C97.0089 16.4113 97.0378 16.393 97.0569 16.3743H97.0852C97.1232 16.3556 97.1615 16.3364 97.1995 16.3177C97.2566 16.2802 97.3142 16.2524 97.3713 16.2337C97.3904 16.2149 97.4099 16.1958 97.4289 16.177C97.4666 16.1585 97.4949 16.1399 97.5139 16.1214C97.5711 16.0839 97.6194 16.0456 97.6575 16.0081C97.7145 15.952 97.762 15.9049 97.8 15.8675C97.8189 15.8489 97.8378 15.8304 97.8567 15.8118C97.8664 15.8022 97.8763 15.7921 97.886 15.7825C97.8863 15.7643 97.8955 15.7552 97.9143 15.7552C97.9333 15.7364 97.9426 15.7173 97.9426 15.6985C97.9806 15.6424 98.0189 15.5866 98.0569 15.5305C98.114 15.4556 98.1521 15.3895 98.1711 15.3333C98.1902 15.2958 98.2097 15.2584 98.2288 15.221C98.2478 15.1835 98.2663 15.1452 98.2854 15.1077C98.3044 15.089 98.3147 15.0804 98.3147 15.0804C98.3147 15.0616 98.324 15.0425 98.343 15.0237V14.9954C98.3619 14.9768 98.3713 14.9671 98.3713 14.9671V14.9114C98.3904 14.8927 98.3996 14.8735 98.3996 14.8548C98.4187 14.8173 98.4289 14.78 98.4289 14.7425C98.448 14.6863 98.4666 14.6393 98.4856 14.6018C98.5618 14.4143 98.6862 14.2737 98.8577 14.18C99.0481 14.0676 99.2385 14.0388 99.4289 14.095C99.6194 14.1325 99.7717 14.2549 99.886 14.4612C100 14.6487 100.029 14.8362 99.9719 15.0237C99.9148 15.2111 99.8479 15.3892 99.7717 15.5579C99.6955 15.7267 99.6194 15.8959 99.5432 16.0647C99.2384 16.6273 98.8095 17.0959 98.2571 17.471C97.7047 17.8273 97.1048 18.0147 96.4573 18.0335C95.9239 18.0522 95.3994 17.9585 94.885 17.7522C94.3898 17.5272 93.9422 17.246 93.5422 16.9085C93.4661 16.9834 93.3898 17.0677 93.3137 17.1614C93.2375 17.2552 93.1614 17.3403 93.0852 17.4153C92.6662 17.8841 92.2278 18.3432 91.7707 18.7932C91.3326 19.2246 90.8749 19.6558 90.3987 20.0872C90.2082 20.256 90.0086 20.4348 89.7991 20.6223C89.6087 20.791 89.4182 20.9595 89.2278 21.1282C89.0945 21.2219 88.9514 21.288 88.7991 21.3255C88.6658 21.363 88.5227 21.3534 88.3704 21.2972C88.218 21.2222 88.1038 21.1283 88.0276 21.0159C87.9514 20.8847 87.9031 20.744 87.884 20.594C87.884 20.594 87.884 20.5845 87.884 20.5657C87.865 20.3594 87.8372 20.1528 87.7991 19.9466C87.78 19.7217 87.7605 19.5062 87.7414 19.3001C87.6843 18.8689 87.6277 18.4373 87.5705 18.0061C87.5325 17.5561 87.4841 17.1151 87.427 16.6839C87.3698 16.1775 87.3132 15.6802 87.2561 15.1927C87.1989 14.6863 87.1414 14.1795 87.0842 13.6731C87.0747 13.5608 87.0623 13.4485 87.0481 13.3362L86.9485 12.6604C86.9342 12.5481 86.9228 12.4358 86.9133 12.3235C86.6847 12.6798 86.4554 13.0356 86.2268 13.3919C86.0173 13.7294 85.7981 14.067 85.5696 14.4046C85.2457 14.9109 84.9217 15.4177 84.5979 15.9241C84.2741 16.4304 83.95 16.9364 83.6262 17.4427C83.3595 17.8553 83.0838 18.2779 82.7981 18.7093C82.5315 19.1217 82.2649 19.5341 81.9983 19.9466C81.903 20.1154 81.7981 20.2846 81.6838 20.4534C81.5696 20.6221 81.4553 20.8001 81.3411 20.9876C81.2458 21.1189 81.1121 21.2221 80.9407 21.2972C80.7884 21.3534 80.6266 21.3629 80.4553 21.3255C80.284 21.288 80.1502 21.2036 80.0549 21.0725C79.9788 20.9226 79.9314 20.7627 79.9123 20.594V20.5657C79.8933 20.3219 79.8645 20.0781 79.8264 19.8343C79.8074 19.5717 79.7878 19.3183 79.7688 19.0745C79.7307 18.5683 79.6833 18.0621 79.6262 17.5559C79.5716 17.0543 79.5257 16.561 79.4885 16.0764C79.3492 16.3092 79.1942 16.5308 79.0207 16.7395C78.754 17.0771 78.4393 17.3774 78.0774 17.6399C77.7156 17.8836 77.3254 18.0903 76.9065 18.2591C76.6018 18.3903 76.2776 18.4936 75.9348 18.5686C75.611 18.6249 75.2869 18.6622 74.9631 18.6809C74.7155 19.0373 74.4388 19.3748 74.134 19.6936C73.8293 19.9936 73.4959 20.2653 73.134 20.5091C72.5816 20.9029 71.9624 21.185 71.2766 21.3538C70.61 21.5225 69.9432 21.5694 69.2766 21.4944C68.9147 21.4757 68.5619 21.4192 68.219 21.3255C67.8761 21.2129 67.5521 21.0628 67.2473 20.8753C66.9616 20.7253 66.7044 20.5378 66.4758 20.3128C66.2473 20.0878 66.0383 19.8437 65.8479 19.5813C65.787 19.4962 65.7294 19.4089 65.675 19.3206C65.5603 19.4988 65.4346 19.6708 65.2942 19.8343C64.8751 20.3031 64.3608 20.6875 63.7512 20.9876C63.3894 21.1751 63.0178 21.3157 62.637 21.4095C62.256 21.4845 61.8837 21.5218 61.5217 21.5218C61.3123 21.5217 61.0929 21.5132 60.8645 21.4944C60.6551 21.4569 60.4552 21.41 60.2649 21.3538C59.7696 21.2225 59.3221 20.9968 58.9221 20.678C58.5411 20.3592 58.2459 19.9748 58.0364 19.5247C57.8078 19.0558 57.6936 18.5213 57.6936 17.9212C57.6746 17.3211 57.7599 16.6736 57.9504 15.9798V15.9524L62.4934 1.09891C62.5505 0.911365 62.675 0.770808 62.8655 0.677034ZM4.63695 0.319612C4.82735 0.357175 4.97973 0.479607 5.09399 0.685823C5.22721 0.873277 5.25605 1.06087 5.17992 1.24832C5.10372 1.45462 5.02761 1.67073 4.95141 1.89578C4.87525 2.10197 4.79807 2.30777 4.72192 2.51395C4.41713 3.39535 4.10336 4.27707 3.77953 5.15848C3.45568 6.03994 3.15122 6.93112 2.86547 7.83133C2.73216 8.28131 2.59839 8.74053 2.46508 9.20926C2.33174 9.65934 2.21755 10.1098 2.12231 10.5598C2.06517 10.8036 2.00757 11.038 1.95043 11.263C1.91233 11.488 1.87427 11.7137 1.83617 11.9388C1.81715 12.0511 1.79855 12.1729 1.77953 12.304C1.76048 12.4165 1.74097 12.5294 1.72192 12.6419V12.7259C1.72192 12.7446 1.71265 12.7637 1.69359 12.7825V12.8382C1.69359 12.8943 1.68425 12.951 1.66527 13.0071V13.1761C1.62718 13.5886 1.58813 14.0104 1.55004 14.4417C1.53099 14.873 1.54124 15.2957 1.57934 15.7083V15.8489C1.57937 15.905 1.58864 15.9425 1.60766 15.9612V16.0452C1.62671 16.1202 1.64622 16.2053 1.66527 16.2991C1.6843 16.3927 1.70289 16.4771 1.72192 16.552C1.74095 16.627 1.76049 16.7113 1.77953 16.805C1.81762 16.88 1.84545 16.9555 1.86449 17.0305C1.88349 17.068 1.89379 17.115 1.89379 17.1712C1.91277 17.2085 1.93145 17.2461 1.95043 17.2835C1.96932 17.3021 1.97859 17.3205 1.97875 17.3391C1.97875 17.3391 1.97875 17.3489 1.97875 17.3675C1.99777 17.4049 2.01735 17.4519 2.03637 17.5081C2.05542 17.5456 2.07396 17.5839 2.09301 17.6214C2.11206 17.6401 2.13158 17.6774 2.15063 17.7337C2.16953 17.7709 2.18836 17.7989 2.20727 17.8177C2.24537 17.8927 2.2844 17.9682 2.3225 18.0432C2.3795 18.1181 2.42705 18.193 2.46508 18.2679C2.48412 18.2866 2.51295 18.3239 2.55102 18.3802C2.58905 18.4176 2.61693 18.4464 2.63598 18.4651V18.4934L2.66527 18.5208C2.66527 18.5208 2.66527 18.5305 2.66527 18.5491C2.68411 18.5492 2.69359 18.5588 2.69359 18.5774C2.69359 18.5774 2.6929 18.5774 2.69164 18.5774C2.7397 18.6272 2.78812 18.6833 2.83617 18.7464C2.89332 18.8026 2.9509 18.8591 3.00805 18.9153C3.04605 18.9341 3.0843 18.9619 3.12231 18.9993C3.16039 19.0368 3.1892 19.0655 3.20824 19.0843C3.22697 19.1028 3.23652 19.1213 3.23656 19.1399C3.25552 19.14 3.27425 19.1496 3.2932 19.1682C3.31225 19.1682 3.3225 19.1778 3.3225 19.1966C3.34134 19.1967 3.35082 19.2062 3.35082 19.2249H3.37914C3.39815 19.2436 3.41775 19.2618 3.43676 19.2805C3.45568 19.2806 3.47447 19.2903 3.4934 19.3089C3.51245 19.3276 3.54124 19.3468 3.57934 19.3655C3.61735 19.3842 3.65559 19.4025 3.69359 19.4212C3.7317 19.4399 3.76975 19.4686 3.80785 19.5061C3.84586 19.5248 3.8841 19.5431 3.92211 19.5618C3.94116 19.5618 3.96068 19.5714 3.97973 19.5901H4.03637C4.11243 19.6088 4.18882 19.6367 4.26488 19.6741C4.34098 19.7116 4.41731 19.7403 4.4934 19.7591C4.60757 19.7778 4.71269 19.796 4.80785 19.8147C4.9221 19.8335 5.02709 19.8526 5.12231 19.8714C5.14136 19.8714 5.15063 19.8809 5.15063 19.8997H5.26488C5.3029 19.8997 5.34113 19.9093 5.37914 19.928H6.17992C6.23698 19.9093 6.28444 19.8997 6.3225 19.8997H6.38012C6.39903 19.8996 6.41784 19.89 6.43676 19.8714C6.51293 19.8526 6.5891 19.8335 6.66527 19.8147C6.76052 19.796 6.84689 19.7778 6.92309 19.7591C6.96109 19.7404 6.99934 19.7307 7.03734 19.7307C7.09429 19.712 7.13259 19.6928 7.1516 19.6741H7.20824C7.24632 19.6554 7.27514 19.6468 7.29418 19.6468C7.31169 19.6295 7.32108 19.6198 7.3225 19.6184H7.38012C7.39914 19.5997 7.40844 19.5901 7.40844 19.5901C7.42748 19.5714 7.44701 19.5618 7.46606 19.5618C7.504 19.5431 7.54237 19.5248 7.58031 19.5061C7.61835 19.4874 7.65653 19.4682 7.69457 19.4495C7.77047 19.4121 7.83681 19.3746 7.89379 19.3372C7.96999 19.2809 8.04708 19.2341 8.12328 19.1966C8.14233 19.1778 8.17021 19.149 8.20824 19.1116C8.26517 19.0742 8.30338 19.0464 8.3225 19.0276H8.3518C8.3708 19.0089 8.38944 18.9897 8.40844 18.971C8.46557 18.9147 8.52319 18.8583 8.58031 18.802C8.65635 18.7459 8.72346 18.6902 8.78051 18.6341C8.91385 18.5028 9.03731 18.3708 9.1516 18.2395C9.28483 18.1084 9.40848 17.9772 9.5227 17.846C9.56067 17.8273 9.59898 17.7993 9.63695 17.762C9.67505 17.7057 9.70384 17.6675 9.72289 17.6487C9.73957 17.6323 9.74919 17.6234 9.75121 17.6214C9.75121 17.6026 9.76146 17.5835 9.78051 17.5647C9.7995 17.5274 9.82758 17.4898 9.86547 17.4524C9.90357 17.3962 9.93236 17.3579 9.95141 17.3391C10.0275 17.2268 10.0945 17.1242 10.1516 17.0305C10.2088 16.918 10.2756 16.8052 10.3518 16.6927C10.4851 16.4489 10.6188 16.1955 10.7522 15.9329C10.8855 15.6704 11.009 15.4168 11.1233 15.1731V15.1458C11.1233 15.1271 11.1326 15.1079 11.1516 15.0891C11.1706 15.0517 11.1799 15.0143 11.1799 14.9768C11.199 14.9393 11.2185 14.9106 11.2375 14.8919C11.2471 14.8544 11.2594 14.8171 11.2737 14.7796L11.3733 14.555C11.3876 14.5173 11.3999 14.4793 11.4094 14.4417C11.4665 14.2732 11.5233 14.1139 11.5803 13.9641C11.6375 13.7954 11.695 13.6357 11.7522 13.4856C11.9998 12.7917 12.2282 12.0975 12.4377 11.4036C12.6663 10.7099 12.8762 10.0163 13.0666 9.32254C13.2762 8.59125 13.4758 7.8595 13.6663 7.12821C13.8567 6.39691 14.0471 5.66516 14.2375 4.93387C14.409 4.27746 14.5807 3.62055 14.7522 2.96414C14.9236 2.28907 15.1047 1.6234 15.2952 0.967073C15.3523 0.760894 15.4759 0.610661 15.6663 0.516878C15.8568 0.423106 16.048 0.395386 16.2385 0.432894C16.4479 0.470488 16.6004 0.591962 16.6955 0.798128C16.8098 0.985565 16.8385 1.17319 16.7815 1.36063C16.7434 1.51066 16.6951 1.67035 16.6379 1.83914C16.5998 1.98913 16.5618 2.13935 16.5237 2.28934C16.3332 2.9831 16.1521 3.68621 15.9807 4.39871C15.8093 5.11138 15.6282 5.81515 15.4377 6.50907C15.2473 7.25904 15.0476 8.00909 14.8381 8.75907C14.6286 9.50924 14.4095 10.2599 14.1809 11.01C13.9904 11.6852 13.7806 12.3698 13.552 13.0638C13.3234 13.7389 13.0755 14.4045 12.8088 15.0608C12.5802 15.6047 12.3333 16.1583 12.0666 16.721C11.819 17.2648 11.5228 17.7803 11.1799 18.2679C10.7227 18.8679 10.1991 19.4312 9.60863 19.9563C9.0372 20.4626 8.38906 20.8471 7.66527 21.1097C7.30346 21.2409 6.93187 21.3347 6.55102 21.3909C6.17016 21.4284 5.7893 21.437 5.40844 21.4182C4.98935 21.3995 4.56044 21.3345 4.12231 21.222C3.68415 21.1094 3.28406 20.9497 2.92211 20.7434C2.23633 20.3496 1.66446 19.8246 1.20727 19.1682C0.769154 18.5119 0.455374 17.8176 0.264884 17.0862C0.169658 16.7112 0.102785 16.3362 0.0646886 15.9612C0.00753828 15.5674 -0.0119787 15.1734 0.00707145 14.7796C0.0261216 14.292 0.0549099 13.8043 0.093009 13.3167C0.150157 12.8103 0.217008 12.3131 0.293204 11.8255C0.445588 10.8692 0.655472 9.93176 0.922111 9.01297C1.18881 8.07527 1.47474 7.14676 1.77953 6.22782C2.08433 5.3276 2.39806 4.43642 2.72192 3.55496C3.06477 2.65487 3.38883 1.75486 3.69359 0.854769C3.76972 0.667415 3.89351 0.526667 4.06469 0.432894C4.23614 0.320368 4.4274 0.282104 4.63695 0.319612ZM66.676 14.2639C66.676 14.3013 66.6666 14.3389 66.6477 14.3763C66.6286 14.4513 66.6091 14.5268 66.5901 14.6018C66.5901 14.6581 66.5808 14.7241 66.5618 14.7991C66.5617 14.8365 66.5524 14.8837 66.5334 14.9397V15.052C66.5334 15.0706 66.5238 15.0891 66.5051 15.1077C66.5051 15.1077 66.5051 15.1174 66.5051 15.136C66.4861 15.4172 66.4665 15.6986 66.4475 15.9798C66.4475 16.2611 66.4568 16.5432 66.4758 16.8245V16.9368C66.4817 16.9484 66.4854 16.9604 66.4895 16.972C66.4987 17.0163 66.5051 17.0513 66.5051 17.0774C66.5241 17.1524 66.5334 17.2185 66.5334 17.2747C66.5524 17.3308 66.5711 17.3963 66.5901 17.471C66.6091 17.5835 66.6379 17.6963 66.676 17.8089C66.7141 17.9214 66.7522 18.0247 66.7903 18.1184C66.8093 18.1372 66.8186 18.165 66.8186 18.2024C66.8376 18.2212 66.8479 18.2403 66.8479 18.2591C66.8667 18.2778 66.8762 18.3058 66.8762 18.343C66.8952 18.3805 66.9138 18.4093 66.9329 18.428C66.9519 18.4842 66.9807 18.5407 67.0188 18.597C67.0759 18.6532 67.114 18.7001 67.133 18.7376C67.1521 18.7563 67.1716 18.7841 67.1907 18.8216C67.2097 18.8403 67.2283 18.8595 67.2473 18.8782H67.219C67.2203 18.8795 67.2299 18.8885 67.2473 18.9055V18.9339H67.2766C67.3147 18.9714 67.3528 19.0183 67.3909 19.0745C67.4479 19.1119 67.4954 19.1494 67.5334 19.1868C67.5525 19.2056 67.5813 19.2343 67.6194 19.2718C67.6574 19.3092 67.6863 19.337 67.7053 19.3557C67.7243 19.3745 67.7429 19.3937 67.762 19.4124C67.781 19.4311 67.8005 19.4407 67.8196 19.4407C67.8386 19.4593 67.8669 19.4778 67.9045 19.4964C67.9426 19.5151 67.9714 19.5343 67.9905 19.553C68.0474 19.5717 68.095 19.5997 68.133 19.637C68.1902 19.6745 68.2478 19.7032 68.3049 19.722C68.3145 19.722 68.3216 19.7241 68.3264 19.7288L68.3332 19.7503V19.7249C68.3574 19.7286 68.3769 19.7365 68.3909 19.7503C68.4099 19.7689 68.4389 19.7873 68.4768 19.8059H68.5618C68.638 19.8247 68.7048 19.8534 68.762 19.8909C68.8381 19.9096 68.9144 19.9278 68.9905 19.9466C69.0285 19.9466 69.0667 19.9562 69.1047 19.9749H69.2766C69.429 19.9936 69.5813 20.0128 69.7336 20.0315C69.9049 20.0315 70.0667 20.0219 70.219 20.0032H70.4192C70.4382 19.9845 70.4485 19.9749 70.4485 19.9749H70.5051C70.5813 19.9561 70.6482 19.9466 70.7053 19.9466C70.7815 19.9278 70.8484 19.9096 70.9055 19.8909C70.9816 19.8722 71.0486 19.853 71.1057 19.8343C71.1818 19.7968 71.2581 19.769 71.3342 19.7503H71.3625C71.3814 19.7317 71.4003 19.7221 71.4192 19.722C71.4382 19.7032 71.4577 19.6936 71.4768 19.6936C71.5149 19.6749 71.5437 19.6557 71.5627 19.637C71.6959 19.5808 71.8197 19.5156 71.9338 19.4407C72.0672 19.3657 72.2009 19.2901 72.3342 19.2151C72.3531 19.1965 72.3625 19.1868 72.3625 19.1868C72.3815 19.1681 72.4012 19.1498 72.4202 19.1311H72.4485V19.1028C72.4675 19.0841 72.4768 19.0745 72.4768 19.0745C72.4958 19.0745 72.5154 19.0649 72.5344 19.0462C72.5914 18.9901 72.6483 18.943 72.7053 18.9055C72.7624 18.8494 72.8201 18.7938 72.8772 18.7376C72.8961 18.7189 72.9149 18.7094 72.9338 18.7093C72.9529 18.6905 72.9724 18.6714 72.9914 18.6526C72.1151 18.5588 71.2481 18.3523 70.3909 18.0335C69.5527 17.6959 68.8193 17.2082 68.1907 16.5706C67.8478 16.2143 67.5525 15.8298 67.3049 15.4173C67.0573 15.0047 66.867 14.5734 66.7336 14.1233C66.7146 14.1608 66.695 14.2078 66.676 14.2639ZM49.4211 11.8733C49.288 11.8733 49.1548 11.882 49.0217 11.9007C48.8884 11.9007 48.7546 11.9102 48.6213 11.929C48.5833 11.929 48.5357 11.9386 48.4788 11.9573H48.2786C48.2024 11.976 48.1262 11.9952 48.05 12.0139C47.9929 12.0139 47.9353 12.0225 47.8782 12.0413C47.7259 12.06 47.5641 12.0888 47.3928 12.1263C47.2404 12.1638 47.0872 12.1915 46.9348 12.2102C46.6301 12.2852 46.3254 12.3704 46.0207 12.4641C45.7351 12.5392 45.4397 12.6329 45.135 12.7454C45.0589 12.7641 44.9826 12.7919 44.9065 12.8294C44.8566 12.8621 44.799 12.8861 44.7346 12.9046V12.886C44.7345 12.9046 44.7252 12.9143 44.7063 12.9143C44.6782 12.9281 44.6569 12.9398 44.6418 12.9485L44.6496 12.9417C44.6461 12.9451 44.6411 12.948 44.637 12.9514C44.6246 12.9588 44.6181 12.9639 44.6164 12.9671C44.6014 12.9772 44.5843 12.9882 44.5637 12.9983C44.5256 12.9983 44.4968 13.0079 44.4778 13.0266C44.3445 13.0829 44.2014 13.1479 44.0491 13.2229C43.9157 13.2792 43.782 13.3452 43.6487 13.4202C43.5155 13.4951 43.3824 13.5699 43.2493 13.6448C43.135 13.7198 43.0105 13.7954 42.8772 13.8704C42.8202 13.9078 42.7539 13.9549 42.678 14.011C42.6209 14.0485 42.5539 14.0859 42.4778 14.1233C42.4587 14.1421 42.4299 14.1708 42.3918 14.2083C42.3538 14.227 42.3249 14.2452 42.3059 14.2639C42.3207 14.2494 42.336 14.2418 42.3508 14.2386C42.3358 14.2487 42.3117 14.2671 42.2776 14.2923C42.1824 14.3673 42.0774 14.4515 41.9631 14.5452C41.8488 14.639 41.7532 14.7327 41.677 14.8264C41.62 14.8639 41.5631 14.911 41.5061 14.9671C41.468 15.0046 41.4299 15.0428 41.3918 15.0804C41.3728 15.0991 41.3532 15.1269 41.3342 15.1643C41.3152 15.183 41.2966 15.2023 41.2776 15.221C41.2014 15.3147 41.1345 15.4181 41.0774 15.5305C41.0203 15.6242 40.9626 15.7181 40.9055 15.8118C40.8675 15.8679 40.8292 15.9333 40.7913 16.0081C40.7722 16.0643 40.7536 16.1208 40.7346 16.177H40.7063C40.7063 16.1958 40.696 16.2245 40.677 16.262C40.6768 16.2806 40.6675 16.2991 40.6487 16.3177C40.6296 16.4302 40.6008 16.543 40.5627 16.6555C40.5247 16.7678 40.4968 16.8802 40.4778 16.9925C40.4587 17.0112 40.4485 17.0399 40.4485 17.0774V17.1057C40.4484 17.1244 40.439 17.1428 40.4202 17.1614V17.9778C40.4392 18.0715 40.4587 18.1654 40.4778 18.2591C40.5158 18.3527 40.554 18.4371 40.592 18.512V18.5686C40.6107 18.5872 40.6203 18.6058 40.6204 18.6243C40.6394 18.6431 40.6487 18.6622 40.6487 18.6809C40.6677 18.6997 40.6872 18.7188 40.7063 18.7376C40.7253 18.775 40.744 18.8222 40.7629 18.8782C40.801 18.9157 40.8298 18.9531 40.8489 18.9905C40.8679 18.9905 40.8772 19.0001 40.8772 19.0188C40.8783 19.0199 40.8879 19.0289 40.9055 19.0462C40.9246 19.0649 40.9441 19.0841 40.9631 19.1028C40.9822 19.1215 41.0007 19.1407 41.0198 19.1595C41.0388 19.1969 41.0677 19.2343 41.1057 19.2718C41.1629 19.3093 41.2112 19.337 41.2493 19.3557V19.3841C41.2682 19.3842 41.287 19.3938 41.3059 19.4124C41.3249 19.4311 41.3445 19.4503 41.3635 19.469C41.4012 19.4691 41.4295 19.4779 41.4485 19.4964C41.5056 19.5151 41.5632 19.5534 41.6204 19.6097C41.6489 19.6284 41.6777 19.6444 41.7063 19.6585L41.7922 19.6936L41.8274 19.7005C41.8341 19.7027 41.8411 19.706 41.8489 19.7093V19.6936C41.8673 19.7118 41.8766 19.7213 41.8772 19.722C41.9152 19.7406 41.9535 19.7589 41.9914 19.7776C42.0294 19.7776 42.0677 19.7873 42.1057 19.8059C42.1818 19.8247 42.2582 19.8439 42.3342 19.8626C42.4104 19.8626 42.4875 19.8721 42.5637 19.8909C42.5823 19.891 42.5919 19.8999 42.592 19.9182H42.9065C42.9826 19.937 43.0682 19.9466 43.1633 19.9466C43.2584 19.9278 43.3441 19.9183 43.4202 19.9182H43.4495C43.4499 19.9026 43.4771 19.8952 43.5315 19.8929C43.5274 19.8969 43.519 19.9055 43.5061 19.9182H43.5344C43.5345 19.8998 43.5448 19.8909 43.5637 19.8909H43.678C43.7161 19.8722 43.7541 19.8626 43.7922 19.8626C43.8684 19.8438 43.9446 19.8247 44.0207 19.8059C44.0969 19.7872 44.1731 19.769 44.2493 19.7503C44.3063 19.7316 44.3538 19.7124 44.3918 19.6936C44.449 19.6749 44.4973 19.6557 44.5354 19.637H44.5637C44.5826 19.6185 44.6015 19.6098 44.6204 19.6097C44.6965 19.5722 44.7727 19.5338 44.8489 19.4964C44.9251 19.4589 45.0022 19.4216 45.0784 19.3841C45.1543 19.3467 45.2206 19.3091 45.2776 19.2718C45.3537 19.2156 45.43 19.159 45.5061 19.1028C45.5251 19.0841 45.5447 19.0649 45.5637 19.0462C45.6017 19.0274 45.6306 19.0092 45.6496 18.9905H45.678C45.678 18.9718 45.6874 18.9623 45.7063 18.9622C45.8205 18.8685 45.9348 18.7651 46.0491 18.6526C46.1634 18.5401 46.2785 18.4368 46.3928 18.343C46.4309 18.2869 46.4784 18.2302 46.5354 18.1741C46.5924 18.118 46.64 18.0526 46.678 17.9778C46.697 17.9591 46.7165 17.9399 46.7356 17.9212C46.7545 17.8839 46.7733 17.8559 46.7922 17.8372H46.8205C46.8396 17.8184 46.8498 17.7993 46.8498 17.7805C47.0403 17.5368 47.2112 17.2833 47.3635 17.0208C47.5349 16.7583 47.6882 16.4962 47.8215 16.2337C47.8976 16.1025 47.9636 15.9617 48.0207 15.8118C48.0778 15.6619 48.1448 15.5211 48.2209 15.3899C48.2253 15.3726 48.2293 15.3573 48.2327 15.345C48.2289 15.35 48.226 15.3566 48.2209 15.3616V15.3333C48.2302 15.3242 48.2367 15.3165 48.2414 15.3118C48.2462 15.2977 48.2502 15.2957 48.2502 15.305C48.2692 15.2676 48.2785 15.23 48.2786 15.1927C48.2975 15.1553 48.3162 15.1177 48.3352 15.0804C48.3542 15.0241 48.3738 14.9676 48.3928 14.9114C48.4309 14.8364 48.4597 14.7608 48.4788 14.6858C48.593 14.4047 48.697 14.1232 48.7922 13.8421C48.9065 13.5608 49.0022 13.2701 49.0784 12.97C49.1355 12.7825 49.1931 12.6046 49.2502 12.4358C49.3073 12.2484 49.364 12.0607 49.4211 11.8733ZM43.5315 19.8929C43.5327 19.8917 43.534 19.8913 43.5344 19.8909H43.5637L43.5315 19.8929ZM68.3332 19.7249L68.3049 19.722H68.3332V19.7249ZM9.75121 17.6214C9.73259 17.6396 9.72304 17.6396 9.72289 17.6214L9.75121 17.593V17.6214ZM71.5911 8.94754C71.572 8.96622 71.5524 8.97586 71.5334 8.97586H71.4192C71.3815 8.97593 71.3532 8.98475 71.3342 9.00321C71.2009 9.02196 71.0672 9.05066 70.9338 9.08817C70.8005 9.12567 70.6668 9.17254 70.5334 9.22879C70.5145 9.22891 70.4957 9.23847 70.4768 9.25711C70.4768 9.25711 70.4862 9.24746 70.5051 9.22879C70.4861 9.22882 70.4675 9.23841 70.4485 9.25711C70.4295 9.27582 70.4005 9.29406 70.3625 9.31278C70.3245 9.31278 70.2957 9.32236 70.2766 9.3411C70.2005 9.35984 70.1242 9.39721 70.0481 9.4534C69.9909 9.49091 69.9334 9.52917 69.8762 9.56668C69.8192 9.58547 69.7529 9.62295 69.677 9.67899C69.6198 9.71649 69.5623 9.75379 69.5051 9.79129C69.4861 9.81005 69.4573 9.82918 69.4192 9.84793C69.4003 9.8665 69.3814 9.88503 69.3625 9.9036C69.3435 9.92235 69.324 9.93192 69.3049 9.93192V9.96024C69.1717 10.0352 69.0481 10.129 68.9338 10.2415C68.8386 10.354 68.7337 10.4669 68.6194 10.5794C68.5814 10.6354 68.5337 10.6913 68.4768 10.7473C68.4197 10.8036 68.3713 10.86 68.3332 10.9163C68.3143 10.935 68.2956 10.9445 68.2766 10.9446C68.2766 10.9446 68.2766 10.9542 68.2766 10.9729C68.2577 10.9915 68.2475 11.01 68.2473 11.0286C68.247 11.0289 68.2377 11.0385 68.219 11.0569C68.219 11.0757 68.2097 11.0948 68.1907 11.1136V11.1419C68.1895 11.143 68.1801 11.1527 68.1623 11.1702C68.1433 11.2638 68.1144 11.3666 68.0764 11.4788C68.0574 11.5725 68.0378 11.6759 68.0188 11.7884C68.0188 11.7884 68.0188 11.798 68.0188 11.8167C68.0188 11.8354 68.0094 11.8633 67.9905 11.9007V12.8294C68.0095 12.8669 68.0188 12.8956 68.0188 12.9143V13.0266C68.028 13.0357 68.0321 13.0336 68.0325 13.0208C68.0507 13.129 68.0742 13.2433 68.1047 13.3636C68.1428 13.5136 68.1809 13.6551 68.219 13.7864C68.238 13.8052 68.2473 13.8426 68.2473 13.8987C68.2664 13.9362 68.2859 13.9735 68.3049 14.011C68.3049 14.0297 68.3143 14.0577 68.3332 14.095C68.3523 14.1325 68.3625 14.1612 68.3625 14.18C68.3815 14.2174 68.4002 14.2645 68.4192 14.3206C68.4573 14.3581 68.4861 14.405 68.5051 14.4612C68.5432 14.5362 68.5813 14.6023 68.6194 14.6585C68.6763 14.7146 68.7239 14.78 68.762 14.8548C68.781 14.8922 68.8006 14.9296 68.8196 14.9671C68.8577 15.0046 68.8855 15.0428 68.9045 15.0804V15.1077C68.9235 15.1077 68.9337 15.1174 68.9338 15.136C69.0481 15.2673 69.1623 15.3993 69.2766 15.5305C69.4099 15.643 69.5437 15.755 69.677 15.8675C69.696 15.8861 69.7053 15.8958 69.7053 15.8958C69.7243 15.8959 69.743 15.9055 69.762 15.9241C69.781 15.9429 69.7913 15.9524 69.7913 15.9524C69.81 15.971 69.8195 15.9895 69.8196 16.0081C69.8385 16.008 69.8386 15.9985 69.8196 15.9798C69.8386 15.9985 69.8674 16.0177 69.9055 16.0364C69.9434 16.0551 69.9715 16.0744 69.9905 16.093C70.0666 16.1493 70.1428 16.2058 70.219 16.262C70.3142 16.2995 70.4006 16.3368 70.4768 16.3743C70.5529 16.4118 70.6292 16.4587 70.7053 16.5149C70.7814 16.5524 70.8577 16.5802 70.9338 16.5989C70.9529 16.6177 70.9724 16.6272 70.9914 16.6272C71.0103 16.6274 71.0292 16.6369 71.0481 16.6555C71.0671 16.6555 71.0867 16.6651 71.1057 16.6839C71.1433 16.6839 71.1717 16.6928 71.1907 16.7112C71.2288 16.73 71.2771 16.7491 71.3342 16.7679C71.3912 16.7679 71.4481 16.7775 71.5051 16.7962C71.6003 16.8337 71.7053 16.871 71.8196 16.9085C71.9338 16.946 72.0575 16.9747 72.1907 16.9934C72.305 17.0122 72.4201 17.0399 72.5344 17.0774C72.6676 17.0961 72.8007 17.1057 72.9338 17.1057H72.9631C72.9821 17.1242 73.0104 17.134 73.0481 17.1341H73.1623C73.2385 17.1528 73.3054 17.1614 73.3625 17.1614H73.5627C73.6388 17.1801 73.7245 17.1897 73.8196 17.1897H74.1057C74.1628 17.1148 74.2102 17.0305 74.2483 16.9368C74.3054 16.8243 74.3537 16.7306 74.3918 16.6555C74.4299 16.5805 74.468 16.5145 74.5061 16.4583C74.5441 16.3835 74.572 16.3085 74.5911 16.2337V16.2054H74.6204V16.1487C74.6392 16.13 74.6487 16.102 74.6487 16.0647C74.6676 16.0274 74.6863 15.9898 74.7053 15.9524C74.7624 15.8025 74.8149 15.6522 74.8625 15.5022L75.1204 14.6018C75.1585 14.4518 75.1914 14.3017 75.22 14.1516V14.0393C75.2389 13.9835 75.2481 13.9459 75.2483 13.927V13.8421C75.2673 13.8046 75.2673 13.795 75.2483 13.8138C75.2673 13.739 75.2775 13.6736 75.2776 13.6175C75.2776 13.5424 75.2868 13.4765 75.3059 13.4202V12.97C75.3249 12.8013 75.3249 12.6511 75.3059 12.5198V12.3235C75.3059 12.2485 75.2966 12.173 75.2776 12.0979C75.2776 12.0704 75.2702 12.0333 75.26 11.9856C75.2563 11.9771 75.2533 11.9671 75.2483 11.9573V11.845C75.2293 11.7139 75.2014 11.5826 75.1633 11.4514C75.1252 11.3202 75.0872 11.1882 75.0491 11.0569C75.03 11.0194 75.0105 10.9821 74.9914 10.9446C74.9914 10.8884 74.9821 10.8415 74.9631 10.804C74.9441 10.7852 74.9246 10.7661 74.9055 10.7473V10.6634C74.8866 10.6447 74.8678 10.6166 74.8489 10.5794C74.8489 10.542 74.8395 10.5132 74.8205 10.4944C74.7824 10.4382 74.7434 10.3817 74.7053 10.3255C74.6674 10.2693 74.6394 10.2127 74.6204 10.1565C74.6013 10.1378 74.5818 10.1196 74.5627 10.1009C74.5532 10.082 74.544 10.0652 74.5344 10.0511C74.525 10.0465 74.5155 10.0443 74.5061 10.0442V10.0159C74.506 9.99742 74.4957 9.98856 74.4768 9.98856H74.5061C74.487 9.9698 74.4675 9.95067 74.4485 9.93192C74.4295 9.91325 74.4387 9.93235 74.4768 9.98856C74.4006 9.91354 74.3245 9.83799 74.2483 9.76297C74.1912 9.68803 74.1242 9.6133 74.0481 9.53836C74.0291 9.51968 74.0104 9.51006 73.9914 9.51004C73.9724 9.49129 73.9529 9.47216 73.9338 9.4534C73.9148 9.43493 73.8866 9.42514 73.8489 9.42508C73.8109 9.40637 73.782 9.38812 73.7629 9.36942C73.7249 9.35067 73.6775 9.32193 73.6204 9.28446C73.5632 9.24695 73.5056 9.21923 73.4485 9.20047H73.4202C73.4201 9.18173 73.4099 9.17215 73.3909 9.17215C73.3719 9.15367 73.3436 9.14388 73.3059 9.14383C73.2679 9.12511 73.239 9.11652 73.22 9.11649C73.1438 9.09775 73.0676 9.07859 72.9914 9.05985C72.9343 9.04109 72.8675 9.02196 72.7913 9.00321H72.7053C72.6673 8.98455 72.6291 8.97586 72.5911 8.97586H72.5344C72.4582 8.95711 72.3719 8.94754 72.2766 8.94754H71.5911ZM66.4758 16.9085C66.4758 16.8336 66.4861 16.8804 66.5051 17.0491C66.5051 17.0232 66.4986 16.9979 66.4895 16.972C66.4855 16.9526 66.4816 16.9312 66.4758 16.9085ZM96.0852 16.4866C96.1375 16.4995 96.1676 16.508 96.175 16.512C96.1626 16.5108 96.1491 16.5109 96.135 16.5081C96.1208 16.5034 96.1041 16.4959 96.0852 16.4866ZM97.886 15.7825C97.8863 15.7643 97.8955 15.7552 97.9143 15.7552C97.905 15.7644 97.8953 15.7733 97.886 15.7825ZM94.6565 8.07547C94.5995 8.0755 94.5426 8.0851 94.4856 8.10379C94.4666 8.12251 94.4376 8.14074 94.3996 8.15946C94.3615 8.15946 94.3328 8.16902 94.3137 8.18778C94.2757 8.20649 94.2281 8.23439 94.1711 8.27176C94.114 8.30927 94.0564 8.33797 93.9993 8.35672C93.9803 8.37535 93.9709 8.38504 93.9709 8.38504C93.9697 8.38629 93.96 8.39523 93.9426 8.41239C93.9236 8.43114 93.9041 8.45027 93.885 8.46903C93.866 8.46908 93.8473 8.47872 93.8284 8.49735C93.7903 8.53486 93.742 8.58171 93.6848 8.63797C93.6278 8.69416 93.5803 8.75072 93.5422 8.80692C93.5232 8.80693 93.5139 8.8165 93.5139 8.83524C93.5044 8.84461 93.4951 8.85635 93.4856 8.87039V8.8909C93.4806 8.8909 93.4782 8.88728 93.4758 8.88602C93.4696 8.89623 93.4625 8.90703 93.4563 8.91922C93.4374 8.95646 93.4186 8.98447 93.3996 9.00321C93.3615 9.07822 93.3132 9.14421 93.2561 9.20047C93.218 9.2567 93.1902 9.32279 93.1711 9.39774C93.1522 9.41639 93.1419 9.43475 93.1418 9.4534C93.1411 9.45409 93.1318 9.46369 93.1135 9.48172C93.1135 9.51912 93.1041 9.55662 93.0852 9.59403C93.0852 9.63154 93.0759 9.6698 93.0569 9.70731C93.0378 9.78225 93.009 9.86659 92.9709 9.96024C92.9519 10.0352 92.9323 10.1099 92.9133 10.1848C92.8943 10.2411 92.885 10.2976 92.885 10.3538C92.885 10.3913 92.8757 10.4382 92.8567 10.4944V10.5794C92.8376 10.7855 92.8181 11.001 92.7991 11.2259C92.7991 11.4322 92.8093 11.6387 92.8284 11.845C92.8474 11.9012 92.8567 11.9578 92.8567 12.0139V12.2669C92.8756 12.2669 92.885 12.2765 92.885 12.2952V12.3509C92.904 12.4258 92.9133 12.5198 92.9133 12.6321C92.9324 12.7259 92.9519 12.811 92.9709 12.886C93.009 13.0734 93.0564 13.2515 93.1135 13.4202C93.1706 13.5889 93.2376 13.767 93.3137 13.9544V14.011C93.3327 14.011 93.342 14.0206 93.342 14.0393C93.3611 14.0768 93.3806 14.1141 93.3996 14.1516C93.4186 14.189 93.4373 14.2266 93.4563 14.2639C93.4753 14.3015 93.4949 14.3397 93.5139 14.3772C93.5329 14.4146 93.5516 14.4522 93.5705 14.4895C93.5705 14.4895 93.5705 14.4799 93.5705 14.4612C93.5896 14.4425 93.6185 14.4146 93.6565 14.3772C93.6946 14.3397 93.7234 14.3015 93.7424 14.2639C93.9519 13.9827 94.1516 13.6919 94.342 13.3919C94.5516 13.0918 94.7521 12.7916 94.9426 12.4915C95.0187 12.3603 95.095 12.2195 95.1711 12.0696C95.2472 11.901 95.3235 11.7419 95.3996 11.5921C95.4187 11.5733 95.4382 11.5446 95.4573 11.5071C95.4763 11.451 95.4949 11.4039 95.5139 11.3665C95.5329 11.3478 95.5422 11.3382 95.5422 11.3382V11.2825C95.5613 11.2075 95.5901 11.1415 95.6282 11.0852C95.6663 11.0102 95.6951 10.9442 95.7141 10.888C95.7711 10.7382 95.8186 10.5885 95.8567 10.4388C95.8948 10.2887 95.9328 10.1472 95.9709 10.0159V9.9036C95.99 9.86612 95.9993 9.82877 95.9993 9.79129V9.73465C96.0182 9.6786 96.0285 9.62273 96.0286 9.56668V8.91922C96.0096 8.90054 95.9993 8.87254 95.9993 8.83524C95.9993 8.77897 95.99 8.74071 95.9709 8.72196C95.9522 8.70338 95.9427 8.68486 95.9426 8.66629C95.9426 8.62878 95.9333 8.60009 95.9143 8.58133C95.8953 8.56258 95.8757 8.53484 95.8567 8.49735C95.8567 8.45984 95.8474 8.43114 95.8284 8.41239C95.8282 8.39404 95.8187 8.38515 95.8 8.38504C95.8 8.38504 95.7898 8.37548 95.7707 8.35672C95.7517 8.33804 95.7237 8.31876 95.6858 8.30008C95.6668 8.26262 95.6472 8.23484 95.6282 8.2161C95.6093 8.19748 95.5904 8.18791 95.5715 8.18778C95.5525 8.16902 95.533 8.14989 95.5139 8.13114C95.4951 8.11268 95.4761 8.10394 95.4573 8.10379C95.4383 8.10379 95.4187 8.09416 95.3996 8.07547C95.3616 8.05675 95.3141 8.04718 95.2571 8.04715C95.219 8.04715 95.1808 8.03752 95.1428 8.01883H94.8284C94.7712 8.03759 94.7136 8.05672 94.6565 8.07547ZM42.3635 14.2356C42.3593 14.2356 42.355 14.2376 42.3508 14.2386C42.3691 14.2262 42.3736 14.2256 42.3635 14.2356ZM44.6204 12.97C44.6088 12.9699 44.6163 12.9633 44.6418 12.9485C44.6347 12.9556 44.6275 12.9629 44.6204 12.97ZM44.7346 12.9143H44.7063C44.716 12.9119 44.7252 12.9073 44.7346 12.9046V12.9143ZM92.8567 12.2386C92.8756 12.2386 92.885 12.2482 92.885 12.2669V12.2952C92.885 12.2764 92.8757 12.2573 92.8567 12.2386ZM43.0774 7.56864C43.0665 7.54005 43.056 7.51129 43.0452 7.4827C43.0346 7.42485 43.044 7.45375 43.0774 7.56864ZM52.6213 7.45633C52.62 7.45765 52.6123 7.4646 52.5989 7.47782C52.6144 7.45166 52.6213 7.44438 52.6213 7.45633ZM36.5998 3.34891C36.8283 3.34896 37.0095 3.42451 37.1428 3.5745C37.295 3.72446 37.3713 3.90253 37.3713 4.10867C37.3903 4.31483 37.314 4.49289 37.1428 4.64285C36.9714 4.79283 36.7903 4.86838 36.5998 4.86844C36.3903 4.86844 36.2093 4.79289 36.0569 4.64285C35.9236 4.49285 35.8474 4.31491 35.8284 4.10867C35.8284 3.90242 35.9045 3.72451 36.0569 3.5745C36.2283 3.42446 36.4093 3.34891 36.5998 3.34891ZM58.3371 1.99832C58.2992 1.99832 58.2608 2.00803 58.2229 2.02664H58.1086C58.0896 2.04536 58.0607 2.05493 58.0227 2.05496H57.9368C57.9177 2.05496 57.8889 2.06453 57.8508 2.08328H57.7942C57.7561 2.10204 57.7078 2.1116 57.6506 2.1116C57.6126 2.11166 57.565 2.12027 57.508 2.13895C57.4319 2.15769 57.3464 2.18644 57.2512 2.22391C57.1752 2.26135 57.0988 2.28914 57.0227 2.30789C57.0227 2.32665 57.0125 2.33621 56.9934 2.33621H56.9651C56.9462 2.35483 56.9274 2.3644 56.9084 2.36453C56.9084 2.36453 56.8982 2.3741 56.8791 2.39285C56.8411 2.41154 56.7935 2.42983 56.7366 2.44852C56.6985 2.46727 56.6604 2.48641 56.6223 2.50516C56.5461 2.54265 56.47 2.58955 56.3938 2.64578C56.3176 2.68327 56.2414 2.7302 56.1653 2.78641C56.1272 2.80516 56.0789 2.83288 56.0217 2.87039C55.9837 2.88911 55.9455 2.90831 55.9075 2.92703C56.0599 2.9833 56.2223 3.03972 56.3938 3.09598C56.5651 3.13345 56.7269 3.17081 56.8791 3.20828C56.9744 3.22704 57.07 3.25574 57.1653 3.29325C57.2605 3.31199 57.3562 3.33016 57.4514 3.34891C57.4895 3.36762 57.537 3.38684 57.594 3.40555H57.7366C57.7556 3.40555 57.7751 3.41512 57.7942 3.43387H57.8791C57.9744 3.45262 58.07 3.46121 58.1653 3.46121H58.5657V3.43387H58.594C58.6321 3.41512 58.6702 3.40555 58.7082 3.40555C58.7653 3.40555 58.8128 3.3959 58.8508 3.37723H58.8801C58.8991 3.35864 58.9178 3.34894 58.9368 3.34891C58.9558 3.33018 58.9847 3.31197 59.0227 3.29325C59.0608 3.27449 59.0989 3.25536 59.137 3.2366V3.23075C59.1211 3.24185 59.1019 3.25382 59.0793 3.26492C59.0636 3.26469 59.0829 3.25065 59.137 3.22293V3.20828C59.1463 3.19907 59.1559 3.19245 59.1653 3.18778V3.20828C59.1843 3.18956 59.2039 3.17135 59.2229 3.15262C59.261 3.11511 59.2898 3.08641 59.3088 3.06766V3.03934C59.3264 3.02208 59.336 3.01315 59.3371 3.012C59.3371 3.012 59.3465 3.00232 59.3655 2.98367V2.92703C59.3845 2.90829 59.404 2.88914 59.4231 2.87039V2.84305C59.4421 2.82434 59.4514 2.81473 59.4514 2.81473V2.75809C59.4515 2.73936 59.4608 2.71137 59.4797 2.6741V2.5618C59.4797 2.52429 59.4705 2.51472 59.4514 2.53348C59.439 2.53348 59.4359 2.54093 59.4397 2.55692C59.4352 2.54943 59.4307 2.54097 59.4231 2.53348V2.44852C59.423 2.43 59.4127 2.42117 59.3938 2.42117C59.3938 2.42117 59.3938 2.41145 59.3938 2.39285L59.4231 2.42117C59.4231 2.40242 59.4128 2.39285 59.3938 2.39285L59.3088 2.30789C59.3087 2.28925 59.2985 2.27087 59.2795 2.25223C59.2605 2.23348 59.2317 2.22391 59.1936 2.22391C59.1557 2.20521 59.1276 2.18596 59.1086 2.16727C59.0896 2.14851 59.0701 2.13895 59.051 2.13895C59.0509 2.12055 59.0415 2.11164 59.0227 2.1116C59.0227 2.1116 59.0133 2.10188 58.9944 2.08328C59.0054 2.09419 59.0122 2.10558 59.0168 2.11649C59.0093 2.11348 59.0019 2.11165 58.9944 2.1116C58.9944 2.09285 58.9841 2.08328 58.9651 2.08328H58.8801C58.8611 2.06453 58.8416 2.05496 58.8225 2.05496H58.7659C58.7468 2.03621 58.7273 2.02664 58.7082 2.02664H58.594C58.5559 2.02664 58.5178 2.01708 58.4797 1.99832H58.3371ZM58.9368 3.34891C58.9177 3.34894 58.8888 3.35851 58.8508 3.37723C58.927 3.33974 58.9557 3.3302 58.9368 3.34891ZM59.1653 3.18778V3.17996H59.1936C59.1841 3.18004 59.1748 3.18305 59.1653 3.18778ZM59.4397 2.55692C59.4464 2.56794 59.4513 2.57812 59.4514 2.58914C59.4449 2.57623 59.4417 2.56537 59.4397 2.55692ZM59.0168 2.11649C59.0281 2.12096 59.0398 2.12793 59.051 2.13895H59.0227C59.0226 2.13134 59.02 2.12409 59.0168 2.11649Z" fill="url(#paint0_linear_1_7846)"/>
<defs>
<linearGradient id="paint0_linear_1_7846" x1="0" y1="11.0123" x2="100" y2="11.0123" gradientUnits="userSpaceOnUse">
<stop stop-color="#4797FA"/>
<stop offset="1" stop-color="#CF5FAF"/>
</linearGradient>
</defs>
</svg>
