<svg width="48" height="48" viewBox="0 0 48 48" fill="none" xmlns="http://www.w3.org/2000/svg">
<path d="M48 24C48 37.2548 37.2548 48 24 48C10.7452 48 0 37.2548 0 24C0 10.7452 10.7452 0 24 0C37.2548 0 48 10.7452 48 24Z" fill="white"/>
<path d="M24 0C10.7475 0 0 10.7471 0 24C0 26.6488 0.429375 29.1966 1.22213 31.5804H8.4V11.3874L24 26.9874L39.5996 11.3874V31.5802H46.7775C47.5708 29.1964 48 26.6488 48 24C47.9998 10.7467 37.2531 0 24 0Z" fill="#FF751A"/>
<path d="M13.6044 23.7658V36.4718H3.49181C7.70494 43.3836 15.3139 47.9993 23.9993 47.9993C32.6846 47.9993 40.2943 43.3836 44.5069 36.4718H34.3944V23.7656L23.9994 34.1604L13.6044 23.7658Z" fill="#4C4C4C"/>
</svg>
