<svg xmlns="http://www.w3.org/2000/svg">
	
	<symbol id="icon-phone" viewBox="0 0 10 17">
		<path d="M8.23725 0H0.884684C0.396877 0 0 0.382279 0 0.851965V16.1486C0 16.6177 0.396589 17 0.884684 17H8.23725C8.72535 17 9.12194 16.6177 9.12194 16.1486V0.851677C9.12194 0.381991 8.72531 0 8.23725 0ZM3.27748 1.32395H5.84445V1.50398H3.27748C3.27748 1.50402 3.27748 1.32395 3.27748 1.32395ZM4.5611 16.1083C4.28812 16.1083 4.06628 15.8864 4.06628 15.6137C4.06628 15.3413 4.28812 15.1198 4.5611 15.1198C4.83407 15.1198 5.05591 15.3417 5.05591 15.6137C5.05591 15.8865 4.83407 16.1083 4.5611 16.1083ZM8.5181 14.2571H0.604987V2.529H8.5181V14.2571Z" />
	</symbol>

	<symbol id="icon-time" viewBox="0 0 26 20">
		<path d="M23.228 0H19.2456C18.8992 0 18.6181 0.281133 18.6181 0.62754C18.6181 0.97427 18.8992 1.2554 19.2456 1.2554H23.228C24.0078 1.2554 24.6421 1.88973 24.6421 2.66947V12.2493C24.6421 13.029 24.0078 13.6634 23.228 13.6634H8.55129C8.38487 13.6634 8.22524 13.7296 8.10729 13.8472L4.49231 17.4622V14.2912C4.49231 13.9445 4.2115 13.6634 3.86477 13.6634H2.66947C1.88973 13.6634 1.2554 13.029 1.2554 12.2493V2.66947C1.2554 1.88973 1.88973 1.2554 2.66947 1.2554H17.1533C17.5 1.2554 17.7812 0.97427 17.7812 0.62754C17.7812 0.281133 17.5 0 17.1533 0H2.66947C1.19756 0 0 1.19756 0 2.66947V12.2493C0 13.7212 1.19756 14.9188 2.66947 14.9188H3.23723V18.9774C3.23723 19.2314 3.39007 19.4602 3.62468 19.5575C3.70223 19.5895 3.78366 19.6053 3.86477 19.6053C4.02796 19.6053 4.18856 19.5413 4.30876 19.4214L8.81109 14.9188H23.228C24.6999 14.9188 25.8975 13.7212 25.8975 12.2493V2.66947C25.8975 1.19756 24.6999 0 23.228 0Z" />
		<path d="M6.23259 8.05106C6.97678 7.54179 7.90323 6.90747 7.90323 5.823C7.90323 5.30856 7.6948 4.87006 7.30089 4.555C6.95255 4.27613 6.47236 4.11617 5.98345 4.11617C5.08059 4.11617 4.12118 4.67133 4.12118 5.69989C4.12118 6.15358 4.31216 6.37428 4.7051 6.37428C5.14845 6.37428 5.38757 6.12805 5.38757 5.89668C5.38757 5.51279 5.60763 5.29241 5.99153 5.29241C6.4436 5.29241 6.60388 5.60036 6.60388 5.86372C6.60388 6.35134 6.02901 6.77336 5.42021 7.22027C4.73321 7.72437 4.02295 8.24592 4.02295 8.92839V9.72332C4.02295 9.96988 4.35902 10.1272 4.59039 10.1272H7.5077C7.71839 10.1272 7.90323 9.85807 7.90323 9.55108C7.90323 9.25315 7.71839 8.99173 7.5077 8.99173H5.37109V8.92839C5.37109 8.6408 5.7705 8.36774 6.23259 8.05106Z" />
		<path d="M11.3756 10.1269C11.8218 10.1269 12.0251 9.91785 12.0251 9.72332V8.86506H12.367C12.5709 8.86506 12.7709 8.56777 12.7709 8.26466C12.7709 7.85201 12.5615 7.66426 12.367 7.66426H12.0251V7.10103C12.0251 6.91878 11.8551 6.7055 11.3756 6.7055C10.896 6.7055 10.7261 6.91845 10.7261 7.10103V7.66426H10.0488L11.4916 4.76989C11.5136 4.71915 11.5336 4.66487 11.5336 4.60993C11.5336 4.47615 11.448 4.34787 11.2922 4.24866C11.1652 4.1682 11.0053 4.11617 10.8841 4.11617C10.6456 4.11617 10.4533 4.23444 10.3422 4.44965L8.44921 8.16125C8.39105 8.26789 8.38232 8.36419 8.38232 8.41201C8.38232 8.68313 8.55811 8.86506 8.81921 8.86506H10.7261V9.723C10.7261 9.91785 10.9293 10.1269 11.3756 10.1269Z" />
		<path d="M16.2742 3.99111L13.3983 9.89878C13.3715 9.95242 13.356 10.0106 13.356 10.0591C13.356 10.2739 13.5447 10.504 13.8255 10.504C13.9903 10.504 14.1457 10.4171 14.2036 10.2933L17.0879 4.38535C17.116 4.32912 17.1218 4.26708 17.1218 4.22507C17.1218 3.9588 16.8666 3.7801 16.6278 3.7801C16.4662 3.7801 16.3373 3.85701 16.2742 3.99111Z" />
		<path d="M18.4718 6.19397C18.8285 6.19397 19.1297 6.00913 19.1297 5.79004V5.25137H20.5754V5.81169L18.5609 9.30033C18.5206 9.37336 18.5025 9.44057 18.5025 9.51845C18.5025 9.90589 18.9355 10.176 19.3242 10.176C19.509 10.176 19.6302 10.1182 19.6939 9.99831L21.6114 6.32743C21.6731 6.21174 21.8748 5.81266 21.8748 5.54413V4.51978C21.8748 4.34366 21.5994 4.11617 21.307 4.11617H18.3981C18.1118 4.11617 17.8303 4.3162 17.8303 4.51978V5.79004C17.8303 6.01269 18.1182 6.19397 18.4718 6.19397Z" />
	</symbol>

	<symbol id="icon-place" viewBox="0 0 10 14" >
		<path d="M4.99998 0C2.32322 0 0.145508 2.17771 0.145508 4.85447C0.145508 5.94937 0.913567 7.75384 2.42833 10.2178C3.5358 12.0192 4.65895 13.5395 4.67016 13.5546L4.99998 14L5.3298 13.5546C5.34101 13.5395 6.46416 12.0192 7.57163 10.2178C9.08639 7.75384 9.85445 5.94937 9.85445 4.85447C9.85445 2.17771 7.67674 0 4.99998 0ZM4.99998 7.55524C3.46928 7.55524 2.22399 6.30993 2.22399 4.77925C2.22399 3.24855 3.4693 2.00326 4.99998 2.00326C6.53066 2.00326 7.77597 3.24857 7.77597 4.77925C7.77597 6.30993 6.53068 7.55524 4.99998 7.55524Z" />
	</symbol>

	<symbol id="icon-check" viewBox="0 0 18 18" >
		<path d="M8.99995 0C4.03741 0 0 4.03731 0 8.99995C0 13.9626 4.03741 18 8.99995 18C13.9625 18 17.9999 13.9626 17.9999 8.99995C17.9999 4.03731 13.9626 0 8.99995 0ZM14.1679 7.47979L8.51367 13.134C8.27325 13.3744 7.95367 13.5067 7.6137 13.5067C7.27374 13.5067 6.95415 13.3744 6.71374 13.134L3.83202 10.2523C3.5916 10.0119 3.45919 9.69228 3.45919 9.35231C3.45919 9.01226 3.5916 8.69267 3.83202 8.45225C4.07234 8.21184 4.39193 8.07942 4.73199 8.07942C5.07195 8.07942 5.39163 8.21184 5.63196 8.45235L7.61361 10.4339L12.3678 5.67976C12.6082 5.43934 12.9278 5.30702 13.2677 5.30702C13.6077 5.30702 13.9273 5.43934 14.1677 5.67976C14.6641 6.17618 14.6641 6.98355 14.1679 7.47979Z" />
	</symbol>

	<symbol id="icon-play" viewBox="0 0 14 19">
		<path d="M13.7451 9.0094L0.91175 0.10301C0.732666 -0.0204921 0.501666 -0.0341483 0.310333 0.0685721C0.119583 0.171292 0 0.373171 0 0.593455V18.4062C0 18.6265 0.119584 18.8284 0.310917 18.9311C0.396084 18.9774 0.49 19 0.583333 19C0.69825 19 0.813166 18.965 0.91175 18.8967L13.7451 9.99029C13.9043 9.87985 14 9.69638 14 9.49985C14 9.30331 13.9043 9.11984 13.7451 9.0094Z" />
	</symbol>

</svg>