<svg xmlns="http://www.w3.org/2000/svg">

	<symbol id="cart" viewBox="0 0 28 24">
		<rect width="27.5002" height="24.0002" fill="black" fill-opacity="0"/>
		<path d="M27.3801 3.20946C27.2735 3.07722 27.11 2.99995 26.9369 3H5.5626C5.25196 2.99995 5.00005 3.24408 5 3.54534C5 3.582 5.0038 3.61862 5.01139 3.65457L7.26133 14.564C7.31823 14.8469 7.59218 15.038 7.88679 15.0004L24.7612 12.8185C24.99 12.7888 25.1769 12.6266 25.2326 12.4094L27.4825 3.68182C27.526 3.51752 27.4881 3.34288 27.3801 3.20946Z" fill="#FFA857"/>
		<rect width="23.6244" height="24.0002" fill="black" fill-opacity="0"/>
		<path d="M20.8121 24.0006C22.3654 24.0006 23.6245 22.7795 23.6245 21.2732C23.6245 19.767 22.3654 18.5459 20.8121 18.5459C19.2589 18.5459 17.9998 19.767 17.9998 21.2732C17.9998 22.7795 19.2589 24.0006 20.8121 24.0006Z" fill="#EC6D26"/>
		<path d="M9.56239 24.0006C11.1156 24.0006 12.3748 22.7795 12.3748 21.2732C12.3748 19.767 11.1156 18.5459 9.56239 18.5459C8.00915 18.5459 6.75 19.767 6.75 21.2732C6.75 22.7795 8.00915 24.0006 9.56239 24.0006Z" fill="#EC6D26"/>
		<path d="M10.0785 17.4551H23.0617C23.3723 17.4551 23.6242 17.2109 23.6242 16.9096C23.6242 16.6084 23.3723 16.3641 23.0617 16.3641H10.0785C8.73868 16.3614 7.58574 15.4449 7.32013 14.1713L4.4886 0.436361C4.43513 0.182359 4.20468 -5.11274e-05 3.93738 1.07496e-08H0.562498C0.251851 1.07496e-08 0 0.244184 0 0.545439C0 0.846694 0.251851 1.09093 0.562498 1.09093H3.47613L6.21765 14.3852C6.58915 16.168 8.20292 17.4512 10.0785 17.4551Z" fill="#EC6D26"/>
	</symbol>

	<symbol id="filter" viewBox="0 0 22 22">
		<path d="M2.12411 21.2028C2.12411 21.6393 2.46549 21.981 2.90169 21.981C3.33789 21.981 3.67926 21.6393 3.67926 21.2028V5.78947C4.93097 5.4478 5.86027 4.30889 5.86027 2.94219C5.86027 1.32873 4.55167 0 2.92065 0C1.28964 0 0 1.32873 0 2.94219C0 4.28991 0.910333 5.42882 2.14308 5.77049V21.2028H2.12411ZM1.51722 2.94219C1.51722 2.18292 2.14308 1.55651 2.90169 1.55651C3.6603 1.55651 4.28615 2.18292 4.28615 2.94219C4.28615 3.70147 3.6603 4.32787 2.90169 4.32787C2.14308 4.32787 1.51722 3.70147 1.51722 2.94219Z"/>
		<path d="M10.9808 0C10.5446 0 10.2033 0.341674 10.2033 0.778257V8.78861C8.97051 9.13029 8.06018 10.2692 8.06018 11.6169C8.06018 12.9646 8.97051 14.1035 10.2033 14.4452V21.2217C10.2033 21.6583 10.5446 22 10.9808 22C11.417 22 11.7584 21.6583 11.7584 21.2217V14.4452C13.0101 14.1035 13.9394 12.9646 13.9394 11.5979C13.9394 10.2312 13.0101 9.09232 11.7584 8.75065V0.778257C11.7584 0.341674 11.417 0 10.9808 0ZM12.4032 11.6169C12.4032 12.3762 11.7774 13.0026 11.0188 13.0026C10.2602 13.0026 9.6343 12.3762 9.6343 11.6169C9.6343 10.8576 10.2602 10.2312 11.0188 10.2312C11.7774 10.2312 12.4032 10.8387 12.4032 11.6169Z" />
		<path d="M19.8377 16.2105V0.778257C19.8377 0.341674 19.4963 0 19.0601 0C18.6239 0 18.2825 0.341674 18.2825 0.778257V16.2105C17.0308 16.5522 16.1205 17.6911 16.1205 19.0388C16.1205 20.6523 17.4291 21.981 19.0601 21.981C20.6911 21.981 21.9997 20.6713 21.9997 19.0388C22.0187 17.6911 21.0894 16.5522 19.8377 16.2105ZM19.0791 20.4245C18.3205 20.4245 17.6946 19.7981 17.6946 19.0388C17.6946 18.2796 18.3205 17.6532 19.0791 17.6532C19.8377 17.6532 20.4635 18.2796 20.4635 19.0388C20.4635 19.7981 19.8377 20.4245 19.0791 20.4245Z"/>
	</symbol>

	<symbol id="m-menu-phone" viewBox="0 0 20 22">
		<path fill-rule="evenodd" clip-rule="evenodd" d="M0.094078 4.33268C0.094078 3.15822 0.77343 2.7178 2.0642 1.39653C2.60768 0.882702 3.28703 0.222067 3.89845 0.295471L7.29521 5.72736C7.22727 6.68161 6.54792 7.19543 5.9365 7.48905C4.44193 9.03053 11.2354 16.8847 12.798 15.4167C13.0697 14.756 13.5452 14.0954 14.4963 14.022L19.2518 18.1326C19.3197 18.7932 18.6404 19.4539 18.0969 20.0411C16.8061 21.289 16.3306 22.023 15.2436 21.9496C9.87675 22.9039 -1.12876 10.0582 0.094078 4.33268ZM10.3523 0.0018553C16.3306 0.368875 20.067 4.6997 19.9991 11.1592C19.9991 12.5539 17.961 12.4071 17.961 11.4529C18.0969 5.94757 15.0398 2.42418 9.94468 2.13057C9.06152 2.05716 9.06152 -0.0715486 10.3523 0.0018553ZM10.0806 6.5348C9.19739 6.5348 9.06152 4.47949 10.2844 4.47949C13.817 4.5529 15.9909 7.12203 15.855 10.939C15.7871 12.2603 13.8849 11.9667 13.9529 11.0124C14.0208 8.14968 12.73 6.68161 10.0806 6.5348Z" fill="#EC6D26"/>
	</symbol>

	<symbol id="m-menu-search" viewBox="0 0 22 22">
		<path d="M21.702 20.0965L17.5962 16.0333C20.7122 12.1531 20.4189 6.4426 16.863 2.89185C14.9934 1.02496 12.5373 0 9.89787 0C7.25844 0 4.76564 1.02496 2.89604 2.89185C1.02645 4.75874 0 7.21131 0 9.88353C0 12.5557 1.02645 15.0083 2.89604 16.8752C4.76564 18.7055 7.22178 19.7671 9.89787 19.7671C12.1341 19.7671 14.3336 18.9983 16.0565 17.6073L20.1257 21.6705C20.3456 21.8902 20.6022 22 20.8955 22C21.1888 22 21.482 21.8902 21.6653 21.6705C22.1052 21.2313 22.1052 20.5358 21.702 20.0965ZM17.5962 9.88353C17.5962 11.9334 16.7897 13.8735 15.3234 15.3012C13.857 16.7288 11.9508 17.5707 9.89787 17.5707C7.84498 17.5707 5.90206 16.7654 4.47237 15.3012C3.04268 13.8369 2.19953 11.9334 2.19953 9.88353C2.19953 7.83361 3.00602 5.89351 4.47237 4.46589C5.93872 3.03827 7.80832 2.19634 9.89787 2.19634C11.9508 2.19634 13.8937 3.00166 15.3234 4.46589C16.7531 5.93012 17.5962 7.79701 17.5962 9.88353Z" fill="#EC6D26"/>
	</symbol>

	<symbol id="arrow-slider" viewBox="0 0 36 8">
		<path d="M35.3536 4.35355C35.5488 4.15829 35.5488 3.84171 35.3536 3.64645L32.1716 0.464466C31.9763 0.269204 31.6597 0.269204 31.4645 0.464466C31.2692 0.659728 31.2692 0.976311 31.4645 1.17157L34.2929 4L31.4645 6.82843C31.2692 7.02369 31.2692 7.34027 31.4645 7.53553C31.6597 7.7308 31.9763 7.7308 32.1716 7.53553L35.3536 4.35355ZM0 4.5H35V3.5H0V4.5Z" fill="white"/>
	</symbol>

	<symbol id="cart-button" viewBox="0 0 23 20">
		<path fill-rule="evenodd" clip-rule="evenodd" d="M1 1H4.91845C5.53836 1 6.03331 1.45597 6.19409 1.96641L6.1969 1.97542L6.92475 4.76909H20.673C21.526 4.76909 22.1848 5.52967 21.9531 6.32631L20.583 11.9279C20.4608 12.4921 19.8907 12.9229 19.2996 12.9229H9.24086C8.61759 12.9229 8.08011 12.5371 7.95724 11.9279L5.4177 2.17937C5.33393 1.92509 5.10456 1.76922 4.91845 1.76922H1V1ZM7.12514 5.53831L8.74423 11.7533L8.74731 11.7653L8.74959 11.7773C8.79337 12.0064 8.97983 12.1537 9.24086 12.1537H19.2996C19.514 12.1537 19.7497 11.9726 19.7922 11.7706L19.7934 11.7645L19.7948 11.7589L21.1683 6.14339L21.1706 6.134L21.1733 6.12499C21.2564 5.84818 21.0284 5.53831 20.673 5.53831H7.12514Z" fill="white"/>
		<path fill-rule="evenodd" clip-rule="evenodd" d="M7.50382 17C7.50382 15.8953 8.4443 14.9999 9.60444 14.9999C10.7646 14.9999 11.705 15.8953 11.705 17C11.705 18.1046 10.7646 19 9.60444 19C8.4443 19 7.50382 18.1046 7.50382 17ZM9.60444 15.7691C8.8905 15.7691 8.31175 16.3201 8.31175 17C8.31175 17.6798 8.8905 18.2308 9.60444 18.2308C10.3184 18.2308 10.8971 17.6798 10.8971 17C10.8971 16.3201 10.3184 15.7691 9.60444 15.7691Z" fill="white"/>
		<path fill-rule="evenodd" clip-rule="evenodd" d="M19.3804 14.9999C18.2202 14.9999 17.2797 15.8953 17.2797 17C17.2797 18.1046 18.2202 19 19.3804 19C20.5405 19 21.481 18.1046 21.481 17C21.481 15.8953 20.5405 14.9999 19.3804 14.9999ZM18.0877 17C18.0877 16.3201 18.6664 15.7691 19.3804 15.7691C20.0943 15.7691 20.673 16.3201 20.673 17C20.673 17.6798 20.0943 18.2308 19.3804 18.2308C18.6664 18.2308 18.0877 17.6798 18.0877 17Z" fill="white"/>
		<path fill-rule="evenodd" clip-rule="evenodd" d="M1 1H4.91845C5.53836 1 6.03331 1.45597 6.19409 1.96641L6.1969 1.97542L6.92475 4.76909H20.673C21.526 4.76909 22.1848 5.52967 21.9531 6.32631L20.583 11.9279C20.4608 12.4921 19.8907 12.9229 19.2996 12.9229H9.24086C8.61759 12.9229 8.08011 12.5371 7.95724 11.9279L5.4177 2.17937C5.33393 1.92509 5.10456 1.76922 4.91845 1.76922H1V1ZM7.12514 5.53831L8.74423 11.7533L8.74731 11.7653L8.74959 11.7773C8.79337 12.0064 8.97983 12.1537 9.24086 12.1537H19.2996C19.514 12.1537 19.7497 11.9726 19.7922 11.7706L19.7934 11.7645L19.7948 11.7589L21.1683 6.14339L21.1706 6.134L21.1733 6.12499C21.2564 5.84818 21.0284 5.53831 20.673 5.53831H7.12514Z" stroke="white" stroke-miterlimit="10"/>
		<path fill-rule="evenodd" clip-rule="evenodd" d="M7.50382 17C7.50382 15.8953 8.4443 14.9999 9.60444 14.9999C10.7646 14.9999 11.705 15.8953 11.705 17C11.705 18.1046 10.7646 19 9.60444 19C8.4443 19 7.50382 18.1046 7.50382 17ZM9.60444 15.7691C8.8905 15.7691 8.31175 16.3201 8.31175 17C8.31175 17.6798 8.8905 18.2308 9.60444 18.2308C10.3184 18.2308 10.8971 17.6798 10.8971 17C10.8971 16.3201 10.3184 15.7691 9.60444 15.7691Z" stroke="white" stroke-miterlimit="10"/>
		<path fill-rule="evenodd" clip-rule="evenodd" d="M19.3804 14.9999C18.2202 14.9999 17.2797 15.8953 17.2797 17C17.2797 18.1046 18.2202 19 19.3804 19C20.5405 19 21.481 18.1046 21.481 17C21.481 15.8953 20.5405 14.9999 19.3804 14.9999ZM18.0877 17C18.0877 16.3201 18.6664 15.7691 19.3804 15.7691C20.0943 15.7691 20.673 16.3201 20.673 17C20.673 17.6798 20.0943 18.2308 19.3804 18.2308C18.6664 18.2308 18.0877 17.6798 18.0877 17Z" stroke="white" stroke-miterlimit="10"/>
	</symbol>

	<symbol id="good-tab" viewBox="0 0 22 19">
		<path d="M10.9805 19C10.4014 19 9.86867 18.7719 9.47491 18.3842L1.94712 10.9712C-0.577586 8.5078 -0.647073 4.47059 1.73866 1.98439C2.96627 0.707083 4.63396 0 6.44063 0C8.15465 0 9.77602 0.638655 10.9805 1.82473C12.1849 0.638655 13.8063 0 15.5203 0C17.2575 0 18.8789 0.661465 20.1065 1.87035C22.6312 4.35654 22.6312 8.39376 20.1065 10.9028L12.486 18.3842C12.0923 18.7947 11.5595 19 10.9805 19ZM6.44063 2.509C5.352 2.509 4.33285 2.94238 3.59165 3.71789C2.13242 5.22329 2.20191 7.70948 3.73063 9.21489L10.9805 16.3541L18.323 9.12365C19.8517 7.61825 19.8517 5.13205 18.323 3.62665C17.5818 2.89676 16.5858 2.48619 15.5203 2.48619C14.4548 2.48619 13.482 2.89676 12.7408 3.62665L11.8838 4.4934C11.3974 4.97239 10.5867 4.97239 10.1003 4.4934L9.24329 3.64946C8.47893 2.91957 7.5061 2.509 6.44063 2.509Z"/>
	</symbol>

	<symbol id="print" viewBox="0 0 18 17">
		<path d="M4.5 0H13.5V2.42857H4.5V0ZM16.875 3.64286H1.125C0.50616 3.64286 0 4.18919 0 4.85714V10.9286C0 11.5965 0.50616 12.1429 1.125 12.1429H4.5V17H13.5V12.1429H16.875C17.4938 12.1429 18 11.5965 18 10.9286V4.85714C18 4.18919 17.4938 3.64286 16.875 3.64286ZM2.25 7.28571C1.62864 7.28571 1.125 6.7421 1.125 6.07143C1.125 5.40075 1.62864 4.85714 2.25 4.85714C2.87136 4.85714 3.375 5.40075 3.375 6.07143C3.375 6.7421 2.87136 7.28571 2.25 7.28571ZM12.375 15.7857H5.625V9.71429H12.375V15.7857Z" fill="#EC6D26"/>
	</symbol>

	<symbol id="feedback" viewBox="0 0 20 19">
		<path d="M10 0C15.4217 0 20 3.60168 20 8.27401C20 10.7172 18.6538 12.723 16.7045 14.1719L18.1818 17.7503C18.2529 17.9222 18.269 18.1118 18.2281 18.2932C18.1872 18.4746 18.0911 18.6391 17.953 18.7643C17.8149 18.8894 17.6414 18.9692 17.4562 18.9927C17.2709 19.0163 17.0829 18.9824 16.9176 18.8959L11.946 16.2368C11.399 16.36 10.7737 16.548 10 16.548C4.57827 16.548 0 12.9464 0 8.27401C0 3.60168 4.57827 0 10 0ZM10 1.81038C5.378 1.81038 1.81818 4.80257 1.81818 8.27401C1.81818 11.7455 5.378 14.7376 10 14.7376C10.516 14.7376 11.1905 14.5377 11.9318 14.3982C12.1362 14.3625 12.3467 14.3974 12.5284 14.4972L15.5398 16.1096L14.7585 14.2285C14.6776 14.0338 14.6673 13.8171 14.7295 13.6158C14.7918 13.4144 14.9226 13.2409 15.0995 13.1253C17.0492 11.8888 18.1818 10.2859 18.1818 8.27401C18.1818 4.80257 14.622 1.81038 10 1.81038Z" fill="white"/>
	</symbol>

	<symbol id="compare" viewBox="0 0 19 20">
		<path d="M18.9541 9.02024L16.2391 1.87738C16.1431 1.62714 15.8818 1.42857 15.6087 1.42857H11.4111C11.1301 0.599048 10.3837 0 9.5 0C8.61627 0 7.86987 0.599048 7.58887 1.42857H3.39126C3.11636 1.42857 2.85391 1.63048 2.76093 1.87738L0.0459287 9.02024C0.0205887 9.08714 0.00022625 9.32452 0 9.31238C0.0142537 11.269 1.52877 12.8571 3.39126 12.8571C5.25374 12.8571 6.76826 11.269 6.78251 9.31262C6.78297 9.24262 6.74563 9.04429 6.73658 9.02048L4.39399 2.85714H7.58887C7.79385 3.46238 8.24635 3.93833 8.82125 4.15405V15.7143H6.10625C4.98338 15.7143 4.07001 16.6755 4.07001 17.8571V19.2857C4.07001 19.6802 4.37363 20 4.74875 20H14.2512C14.6264 20 14.93 19.6802 14.93 19.2857V17.8571C14.93 16.6755 14.0166 15.7143 12.8937 15.7143H10.1787V4.15405C10.7539 3.93833 11.2061 3.46214 11.4111 2.85714H14.606L12.2634 9.02024C12.2381 9.08714 12.2177 9.32452 12.2175 9.31238C12.2317 11.269 13.7463 12.8571 15.6087 12.8571C17.4712 12.8571 18.9857 11.269 19 9.31262C19.0004 9.24262 18.9631 9.04405 18.9541 9.02024ZM13.5725 17.8571V18.5714H5.4275V17.8571C5.4275 17.4633 5.73181 17.1429 6.10625 17.1429H12.8937C13.2682 17.1429 13.5725 17.4633 13.5725 17.8571ZM17.321 8.57143H13.8965L15.6087 4.06595L17.321 8.57143ZM3.39126 4.06595L5.10351 8.57143H1.679L3.39126 4.06595ZM3.39126 11.4286C2.50639 11.4286 1.7514 10.8314 1.47108 10H5.31166C5.03111 10.8314 4.27612 11.4286 3.39126 11.4286ZM9.5 2.85714C9.12555 2.85714 8.82125 2.53667 8.82125 2.14286C8.82125 1.74905 9.12555 1.42857 9.5 1.42857C9.87444 1.42857 10.1787 1.74905 10.1787 2.14286C10.1787 2.53667 9.87444 2.85714 9.5 2.85714ZM15.6087 11.4286C14.7239 11.4286 13.9689 10.8314 13.6886 10H17.5291C17.2486 10.8314 16.4936 11.4286 15.6087 11.4286Z"/>
	</symbol>

	<symbol id="layout-list" viewBox="0 0 12 12">
		<path d="M0 0H2V2H0V0Z" fill="#C4C4C4"/>
		<path d="M0 5H2V7H0V5Z" fill="#C4C4C4"/>
		<path d="M0 10H2V12H0V10Z" fill="#C4C4C4"/>
		<path d="M5 0H7V2H5V0Z" fill="#C4C4C4"/>
		<path d="M5 5H7V7H5V5Z" fill="#C4C4C4"/>
		<path d="M5 10H7V12H5V10Z" fill="#C4C4C4"/>
		<path d="M10 0H12V2H10V0Z" fill="#C4C4C4"/>
		<path d="M10 5H12V7H10V5Z" fill="#C4C4C4"/>
		<path d="M10 10H12V12H10V10Z" fill="#C4C4C4"/>
	</symbol>

	<svg id="layout-table" viewBox="0 0 15 12" >
		<path d="M0 0H2V2H0V0Z" fill="#C4C4C4"/>
		<path d="M0 5H2V7H0V5Z" fill="#C4C4C4"/>
		<path d="M0 10H2V12H0V10Z" fill="#C4C4C4"/>
		<path d="M5 0H15V2H5V0Z" fill="#C4C4C4"/>
		<path d="M5 5H15V7H5V5Z" fill="#C4C4C4"/>
		<path d="M5 10H15V12H5V10Z" fill="#C4C4C4"/>
	</svg>

	

</svg>