<svg xmlns="http://www.w3.org/2000/svg">

	<symbol id="cart" viewBox="0 0 28 24">
		<rect width="27.5002" height="24.0002" fill="black" fill-opacity="0"/>
		<path d="M27.3801 3.20946C27.2735 3.07722 27.11 2.99995 26.9369 3H5.5626C5.25196 2.99995 5.00005 3.24408 5 3.54534C5 3.582 5.0038 3.61862 5.01139 3.65457L7.26133 14.564C7.31823 14.8469 7.59218 15.038 7.88679 15.0004L24.7612 12.8185C24.99 12.7888 25.1769 12.6266 25.2326 12.4094L27.4825 3.68182C27.526 3.51752 27.4881 3.34288 27.3801 3.20946Z" fill="#FFA857"/>
		<rect width="23.6244" height="24.0002" fill="black" fill-opacity="0"/>
		<path d="M20.8121 24.0006C22.3654 24.0006 23.6245 22.7795 23.6245 21.2732C23.6245 19.767 22.3654 18.5459 20.8121 18.5459C19.2589 18.5459 17.9998 19.767 17.9998 21.2732C17.9998 22.7795 19.2589 24.0006 20.8121 24.0006Z" fill="#EC6D26"/>
		<path d="M9.56239 24.0006C11.1156 24.0006 12.3748 22.7795 12.3748 21.2732C12.3748 19.767 11.1156 18.5459 9.56239 18.5459C8.00915 18.5459 6.75 19.767 6.75 21.2732C6.75 22.7795 8.00915 24.0006 9.56239 24.0006Z" fill="#EC6D26"/>
		<path d="M10.0785 17.4551H23.0617C23.3723 17.4551 23.6242 17.2109 23.6242 16.9096C23.6242 16.6084 23.3723 16.3641 23.0617 16.3641H10.0785C8.73868 16.3614 7.58574 15.4449 7.32013 14.1713L4.4886 0.436361C4.43513 0.182359 4.20468 -5.11274e-05 3.93738 1.07496e-08H0.562498C0.251851 1.07496e-08 0 0.244184 0 0.545439C0 0.846694 0.251851 1.09093 0.562498 1.09093H3.47613L6.21765 14.3852C6.58915 16.168 8.20292 17.4512 10.0785 17.4551Z" fill="#EC6D26"/>
	</symbol>

	

</svg>