<svg width="39" height="39" viewBox="0 0 39 39" fill="none" xmlns="http://www.w3.org/2000/svg">
<path d="M27.1293 31.2H21.2793V26C21.2793 24.2051 19.8241 22.75 18.0293 22.75H14.1293V19.1815L22.9563 12.8765C23.0993 12.7753 23.1954 12.6206 23.2227 12.4475C23.2487 12.275 23.2041 12.0993 23.0993 11.96L21.1493 9.36C20.9391 9.08066 20.5457 9.01745 20.2588 9.217L13.5963 13.8255C14.7744 11.6059 13.93 8.85146 11.7104 7.67341C9.49085 6.49529 6.73639 7.33964 5.55835 9.55922C4.61106 11.3439 4.95418 13.5394 6.40075 14.95H5.67925C5.49587 14.9504 5.3211 15.0283 5.19825 15.1645L0.999251 19.8315C-0.153605 21.1195 -0.0964867 23.0846 1.12925 24.3035L4.56775 27.7615C4.70287 27.8968 4.89072 27.9657 5.08125 27.95C5.27422 27.9351 5.45053 27.8351 5.56225 27.677L6.32925 26.5915V38.35C6.32925 38.7089 6.62029 39 6.97925 39H10.8793C11.2382 39 11.5293 38.7089 11.5293 38.35V27.95H16.0793V31.2H14.1293C13.7703 31.2 13.4793 31.491 13.4793 31.85V38.35C13.4793 38.7089 13.7703 39 14.1293 39H27.1293C27.4882 39 27.7793 38.7089 27.7793 38.35V31.85C27.7793 31.491 27.4883 31.2 27.1293 31.2ZM6.32925 11.7C6.32925 9.90511 7.78436 8.45 9.57925 8.45C11.3741 8.45 12.8293 9.90511 12.8293 11.7C12.8293 13.4949 11.3741 14.95 9.57925 14.95C7.78436 14.95 6.32925 13.4949 6.32925 11.7ZM11.1263 16.25L10.2293 18.044L9.33225 16.25H11.1263ZM6.32925 23.2115L5.28925 22.1L6.32925 21.06V23.2115ZM10.8793 26.65C10.5203 26.65 10.2293 26.941 10.2293 27.3V37.7H7.62925V19.5C7.62795 19.2376 7.46895 19.0017 7.22625 18.902C6.98421 18.8002 6.70471 18.8541 6.51775 19.0385L3.91775 21.6385C3.67002 21.8913 3.67002 22.2957 3.91775 22.5485L6.04325 24.765L4.94475 26.299L2.03275 23.4C1.29021 22.6652 1.25868 21.4757 1.96125 20.7025L5.97175 16.25H7.87625L9.65075 19.7925C9.81447 20.112 10.2061 20.2383 10.5257 20.0746C10.647 20.0124 10.7457 19.9138 10.8078 19.7925L12.6863 16.042L20.4863 10.6405L21.6628 12.207L13.1023 18.3235C12.9318 18.4448 12.8302 18.6408 12.8293 18.85V23.4C12.8293 23.7589 13.1203 24.05 13.4793 24.05H18.0293C19.1062 24.05 19.9793 24.923 19.9793 26V31.2H17.3793V27.3C17.3793 26.941 17.0882 26.65 16.7293 26.65H10.8793ZM26.4793 37.7H14.7793V32.5H26.4793V37.7Z" fill="#1B4CC8"/>
<path d="M38.1791 5.2C35.6662 5.2 33.6291 3.1629 33.6291 0.65C33.6291 0.291037 33.3381 0 32.9791 0C32.6202 0 32.3291 0.291037 32.3291 0.65C32.3291 3.1629 30.292 5.2 27.7792 5.2C27.4202 5.2 27.1292 5.49104 27.1292 5.85C27.1292 6.20896 27.4202 6.5 27.7792 6.5C30.292 6.5 32.3291 8.5371 32.3291 11.05C32.3291 11.409 32.6202 11.7 32.9791 11.7C33.3381 11.7 33.6291 11.409 33.6291 11.05C33.6291 8.5371 35.6662 6.5 38.1791 6.5C38.5381 6.5 38.8291 6.20896 38.8291 5.85C38.8291 5.49104 38.5382 5.2 38.1791 5.2ZM32.9791 8.372C32.4188 7.29138 31.5379 6.41046 30.4571 5.85C31.5378 5.28954 32.4187 4.40863 32.9791 3.328C33.5396 4.40863 34.4205 5.28954 35.5012 5.85C34.4205 6.41046 33.5396 7.29138 32.9791 8.372Z" fill="#1B4CC8"/>
<path d="M22.016 16.3745L20.2444 17.6736L21.0131 18.7219L22.7847 17.4228L22.016 16.3745Z" fill="#1B4CC8"/>
<path d="M29.9965 10.5249L23.4985 15.2932L24.2676 16.3413L30.7656 11.573L29.9965 10.5249Z" fill="#1B4CC8"/>
<path d="M27.415 7.2577L23.5159 9.8573L24.237 10.9389L28.1361 8.3393L27.415 7.2577Z" fill="#1B4CC8"/>
</svg>
