<svg width="39" height="39" viewBox="0 0 39 39" fill="none" xmlns="http://www.w3.org/2000/svg">
<path d="M14.2999 24.7C12.1491 24.7 10.3999 26.4491 10.3999 28.6C10.3999 30.7508 12.1491 32.5 14.2999 32.5C16.4508 32.5 18.1999 30.7508 18.1999 28.6C18.1999 26.4491 16.4508 24.7 14.2999 24.7ZM14.2999 31.2C12.866 31.2 11.6999 30.0339 11.6999 28.6C11.6999 27.1661 12.866 26 14.2999 26C15.7338 26 16.8999 27.1661 16.8999 28.6C16.8999 30.0339 15.7338 31.2 14.2999 31.2Z" fill="#1B4CC8"/>
<path d="M14.2999 6.5C12.1491 6.5 10.3999 8.24915 10.3999 10.4C10.3999 12.5509 12.1491 14.3 14.2999 14.3C16.4508 14.3 18.1999 12.5509 18.1999 10.4C18.1999 8.24915 16.4508 6.5 14.2999 6.5ZM14.2999 13C12.866 13 11.6999 11.8339 11.6999 10.4C11.6999 8.9661 12.866 7.8 14.2999 7.8C15.7338 7.8 16.8999 8.9661 16.8999 10.4C16.8999 11.8339 15.7338 13 14.2999 13Z" fill="#1B4CC8"/>
<path d="M3.9 24.7C1.74915 24.7 0 26.4491 0 28.6C0 30.7508 1.74915 32.5 3.9 32.5C6.05085 32.5 7.8 30.7508 7.8 28.6C7.8 26.4491 6.05085 24.7 3.9 24.7ZM3.9 31.2C2.4661 31.2 1.3 30.0339 1.3 28.6C1.3 27.1661 2.4661 26 3.9 26C5.3339 26 6.5 27.1661 6.5 28.6C6.5 30.0339 5.3339 31.2 3.9 31.2Z" fill="#1B4CC8"/>
<path d="M3.9 6.5C1.74915 6.5 0 8.24915 0 10.4C0 12.5509 1.74915 14.3 3.9 14.3C6.05085 14.3 7.8 12.5509 7.8 10.4C7.8 8.24915 6.05085 6.5 3.9 6.5ZM3.9 13C2.4661 13 1.3 11.8339 1.3 10.4C1.3 8.9661 2.4661 7.8 3.9 7.8C5.3339 7.8 6.5 8.9661 6.5 10.4C6.5 11.8339 5.3339 13 3.9 13Z" fill="#1B4CC8"/>
<path d="M24.7 15.6C22.5492 15.6 20.8 17.3491 20.8 19.5C20.8 21.6508 22.5492 23.4 24.7 23.4C26.8509 23.4 28.6 21.6508 28.6 19.5C28.6 17.3491 26.8509 15.6 24.7 15.6ZM24.7 22.1C23.2661 22.1 22.1 20.9339 22.1 19.5C22.1 18.0661 23.2661 16.9 24.7 16.9C26.1339 16.9 27.3 18.0661 27.3 19.5C27.3 20.9339 26.1339 22.1 24.7 22.1Z" fill="#1B4CC8"/>
<path d="M24.7 24.7C22.5492 24.7 20.8 26.4491 20.8 28.6C20.8 30.7508 22.5492 32.5 24.7 32.5C26.8509 32.5 28.6 30.7508 28.6 28.6C28.6 26.4491 26.8509 24.7 24.7 24.7ZM24.7 31.2C23.2661 31.2 22.1 30.0339 22.1 28.6C22.1 27.1661 23.2661 26 24.7 26C26.1339 26 27.3 27.1661 27.3 28.6C27.3 30.0339 26.1339 31.2 24.7 31.2Z" fill="#1B4CC8"/>
<path d="M37.05 20.6778V12.35V7.8V7.15C37.05 6.92965 36.9388 6.7249 36.7542 6.60465C36.5696 6.48505 36.3369 6.46685 36.1361 6.5559L30.2861 9.1559C30.0508 9.26055 29.9 9.4926 29.9 9.75C29.9 10.0074 30.0508 10.2394 30.2861 10.3441L35.75 12.7725V20.2085C35.5381 20.1727 35.3216 20.15 35.1 20.15C34.2829 20.15 33.5244 20.4035 32.8971 20.8351L28.0605 12.3702C28.4011 11.791 28.6 11.1189 28.6 10.4C28.6 8.24915 26.8508 6.5 24.7 6.5C22.5491 6.5 20.8 8.24915 20.8 10.4C20.8 11.0474 20.9612 11.6571 21.2414 12.1946L16.2136 16.1051C15.6474 15.7852 14.9955 15.6 14.3 15.6C12.3714 15.6 10.7698 17.0085 10.4585 18.85H7.7415C7.4308 17.0085 5.8292 15.6 3.9 15.6C1.74915 15.6 0 17.3491 0 19.5C0 21.6508 1.74915 23.4 3.9 23.4C5.82855 23.4 7.43015 21.9914 7.7415 20.15H10.4591C10.7698 21.9914 12.3714 23.4 14.3006 23.4C16.4515 23.4 18.2006 21.6508 18.2006 19.5C18.2006 18.525 17.8386 17.6345 17.2451 16.95L22.0266 13.2314C22.7246 13.8918 23.6645 14.3 24.7 14.3C25.6334 14.3 26.4907 13.9698 27.1628 13.4205L31.9351 21.7724L31.9436 21.7672C31.4782 22.41 31.2 23.1972 31.2 24.05C31.2 26.2008 32.9492 27.95 35.1 27.95C37.2508 27.95 39 26.2008 39 24.05C39 22.6102 38.2135 21.3531 37.05 20.6778ZM3.9 22.1C2.4661 22.1 1.3 20.9339 1.3 19.5C1.3 18.0661 2.4661 16.9 3.9 16.9C5.3339 16.9 6.5 18.0661 6.5 19.5C6.5 20.9339 5.3339 22.1 3.9 22.1ZM14.3 22.1C12.8661 22.1 11.7 20.9339 11.7 19.5C11.7 18.0661 12.8661 16.9 14.3 16.9C15.7339 16.9 16.9 18.0661 16.9 19.5C16.9 20.9339 15.7339 22.1 14.3 22.1ZM24.7 13C23.2661 13 22.1 11.8339 22.1 10.4C22.1 8.9661 23.2661 7.8 24.7 7.8C26.1339 7.8 27.3 8.9661 27.3 10.4C27.3 11.8339 26.1339 13 24.7 13ZM32.1503 9.75L35.75 8.15035V11.3496L32.1503 9.75ZM35.1 26.65C33.6661 26.65 32.5 25.4839 32.5 24.05C32.5 22.6161 33.6661 21.45 35.1 21.45C35.3256 21.45 35.5407 21.4877 35.75 21.5423V24.05H37.05V22.3483C37.4497 22.8053 37.7 23.3961 37.7 24.05C37.7 25.4839 36.5339 26.65 35.1 26.65Z" fill="#1B4CC8"/>
<path d="M33.1501 29.25H31.8501V30.55H33.1501V29.25Z" fill="#1B4CC8"/>
<path d="M35.75 29.25H34.45V30.55H35.75V29.25Z" fill="#1B4CC8"/>
<path d="M38.3501 29.25H37.05V30.55H38.3501V29.25Z" fill="#1B4CC8"/>
</svg>
