<svg width="39" height="37" viewBox="0 0 39 37" fill="none" xmlns="http://www.w3.org/2000/svg">
<path d="M37.2684 21.3673C36.4816 20.6244 35.6838 20.3117 35.5289 20.2555L32.8999 19.1601L31.0586 17.945V17.3269C32.4338 16.6077 33.4353 15.269 33.6896 13.683C34.8449 13.5294 35.7395 12.5382 35.7395 11.3415C35.7395 10.7273 35.5038 10.1673 35.1184 9.7467V7.4815C35.1184 3.83676 32.1532 0.871536 28.5085 0.871536H28.0089C25.0083 0.871536 22.3906 2.88659 21.6216 5.77822C21.0446 5.62207 20.4384 5.53714 19.8126 5.53714H19.2863C18.6272 5.53714 17.9901 5.63159 17.3857 5.8042C16.6257 2.89839 14.0009 0.87146 10.9911 0.87146H10.4916C6.84686 0.87146 3.88164 3.83668 3.88164 7.48143V9.7467C3.49621 10.1673 3.26054 10.7273 3.26054 11.3415C3.26054 12.5382 4.1551 13.5295 5.3104 13.683C5.56458 15.269 6.56617 16.6077 7.94137 17.3269V17.945L6.10015 19.16L3.47108 20.2555C3.31622 20.3116 2.51847 20.6243 1.73162 21.3673C0.941637 22.1132 0 23.4544 0 25.6077V29.3503C0 29.6904 0.275742 29.967 0.615773 29.967H8.34836C8.23365 30.4453 8.16555 30.9773 8.16555 31.5682V35.5118C8.16555 35.852 8.44129 36.1285 8.78132 36.1285H16.0977H17.7163H21.4064H21.408H22.9023H23.2495C23.5897 36.1285 23.8653 35.8529 23.8653 35.5128C23.8653 35.1726 23.5897 34.897 23.2495 34.897H22.9023H21.9308L21.1873 30.2877L21.478 29.5135L21.9172 29.8369C22.024 29.9156 22.1522 29.9568 22.2822 29.9568C22.3315 29.9568 22.3809 29.9508 22.4296 29.9389C22.607 29.8951 22.756 29.7747 22.8359 29.6103L24.5083 26.1729L26.7396 27.1027C26.753 27.1083 26.7666 27.1134 26.7804 27.118C26.8086 27.1275 29.6029 28.1066 29.6029 31.5682V34.897H27.0483V31.3887C27.0483 31.0485 26.7727 30.773 26.4326 30.773C26.0924 30.773 25.8168 31.0485 25.8168 31.3887V34.897H25.1654C24.8253 34.897 24.5497 35.1726 24.5497 35.5128C24.5497 35.8529 24.8253 36.1285 25.1654 36.1285H30.2188C30.5589 36.1285 30.8345 35.8451 30.8345 35.505V31.568C30.8345 30.9771 30.7664 30.4451 30.6517 29.9668H38.3844C38.7246 29.9668 39.0002 29.6838 39.0002 29.3437V25.6075C39 23.4544 38.0584 22.1132 37.2684 21.3673ZM32.5219 12.8877C32.5219 14.9696 30.8281 16.6633 28.7464 16.6633H27.7936C27.6606 16.6633 27.5279 16.6552 27.3961 16.6415C27.3976 16.6065 27.3987 16.5713 27.3987 16.536C27.3987 15.8929 27.1501 15.3071 26.7443 14.8687V12.4686C26.7443 11.3731 26.4878 10.3366 26.0332 9.41467C27.3837 9.08797 28.9682 8.4629 30.1945 7.26434C30.5753 8.07694 31.2865 9.13535 32.5218 9.60388V12.8877H32.5219ZM29.827 17.7761V19.0348L28.2447 20.6773L26.7119 19.1841C26.7121 19.1773 26.7129 19.1707 26.7129 19.1639V18.2369C26.7129 18.2367 26.7129 18.2365 26.7129 18.2362V18.2361C26.8307 18.1136 26.936 17.979 27.0264 17.8342C27.2797 17.8732 27.5362 17.8948 27.7936 17.8948H28.7464C29.1174 17.8949 29.4787 17.8531 29.827 17.7761ZM26.1672 16.5361C26.1672 16.8468 26.0499 17.1298 25.8587 17.3461C25.744 17.3944 25.6472 17.4765 25.5803 17.5798C25.495 17.6322 25.4035 17.6757 25.3061 17.706V15.3663C25.8044 15.5217 26.1672 15.9873 26.1672 16.5361ZM34.5079 11.3414C34.5079 11.8331 34.1921 12.2512 33.7534 12.4069V10.2759C34.1923 10.4316 34.5079 10.8498 34.5079 11.3414ZM22.7992 6.13928C23.4094 3.76272 25.5516 2.10301 28.0089 2.10301H28.5084C31.4741 2.10301 33.8868 4.51575 33.8868 7.48143V9.03465C33.8371 9.02368 33.7873 9.0137 33.7364 9.00593C33.6833 8.78145 33.507 8.60047 33.2742 8.54753C31.5504 8.1554 31.0202 5.95532 31.0154 5.93476C30.962 5.69878 30.7752 5.51596 30.5381 5.46752C30.3011 5.41915 30.0576 5.51391 29.9158 5.70997C28.7612 7.30623 26.8362 8.00252 25.351 8.30606C24.6787 7.41401 23.7963 6.68916 22.778 6.20517C22.7862 6.18361 22.7934 6.16183 22.7992 6.13928ZM19.2864 6.76846H19.8125V6.76861C22.9556 6.76861 25.5128 9.3257 25.5128 12.4688V14.147C25.4411 14.1299 25.3684 14.1157 25.2944 14.105C25.2928 14.097 25.2907 14.0892 25.2888 14.0812C25.2864 14.0708 25.2839 14.0605 25.2809 14.0503C25.2779 14.0402 25.2744 14.0305 25.271 14.0206C25.268 14.012 25.265 14.0034 25.2616 13.9949C25.2574 13.9844 25.2527 13.9743 25.2479 13.9643C25.2443 13.9565 25.2408 13.9487 25.2367 13.9411C25.2316 13.9312 25.2261 13.9217 25.2204 13.9122C25.2159 13.9045 25.2116 13.897 25.2067 13.8896C25.2011 13.8809 25.195 13.8726 25.1889 13.8641C25.1833 13.8563 25.1775 13.8485 25.1716 13.8409C25.1657 13.8336 25.1596 13.8265 25.1532 13.8193C25.1462 13.8113 25.1392 13.8034 25.1318 13.7958C25.1258 13.7896 25.1196 13.7838 25.1133 13.7779C25.105 13.7701 25.0968 13.7623 25.0881 13.7549C25.0818 13.7496 25.0752 13.7446 25.0687 13.7394C25.0598 13.7324 25.0506 13.7254 25.0412 13.7189C25.034 13.7138 25.0264 13.7092 25.0189 13.7044C25.0098 13.6987 25.0007 13.6929 24.9912 13.6876C24.9824 13.6826 24.9731 13.6781 24.9639 13.6735C24.9554 13.6693 24.9471 13.6651 24.9384 13.6613C24.9272 13.6563 24.9158 13.652 24.9042 13.6478C24.897 13.645 24.8898 13.6422 24.8825 13.6398C24.8694 13.6355 24.8561 13.632 24.8427 13.6286C24.8375 13.6273 24.8324 13.6254 24.8272 13.6242C22.99 13.2062 22.4273 10.8683 22.4222 10.8464C22.3688 10.6104 22.182 10.4276 21.945 10.3792C21.7079 10.3306 21.4645 10.4255 21.3227 10.6215C19.1826 13.5802 14.5061 13.6089 14.4353 13.6089C14.434 13.609 14.4334 13.6089 14.4324 13.6089C14.4112 13.6089 14.3902 13.61 14.3695 13.6121C14.3646 13.6126 14.3601 13.6136 14.3552 13.6143C14.3395 13.6162 14.3237 13.6183 14.3085 13.6214C14.3028 13.6226 14.2972 13.6244 14.2916 13.6258C14.2775 13.629 14.2633 13.6323 14.2495 13.6365C14.2422 13.6388 14.2352 13.6418 14.228 13.6443C14.2163 13.6485 14.2045 13.6523 14.1932 13.6571C14.184 13.6609 14.1754 13.6655 14.1666 13.6699C14.1575 13.6742 14.1483 13.6782 14.1395 13.6829C14.1304 13.6878 14.122 13.6935 14.1132 13.6988C14.1051 13.7038 14.0967 13.7083 14.0888 13.7137C14.0802 13.7195 14.0721 13.726 14.0639 13.7322C14.0565 13.7378 14.0486 13.7431 14.0415 13.749C14.0336 13.7555 14.0264 13.7626 14.0188 13.7694C14.0118 13.7758 14.0044 13.7819 13.9977 13.7885C13.9907 13.7955 13.9844 13.8031 13.9778 13.8104C13.9711 13.8176 13.9642 13.8246 13.958 13.8322C13.9518 13.8396 13.9463 13.8476 13.9405 13.8553C13.9345 13.8634 13.9281 13.8711 13.9225 13.8795C13.9171 13.8873 13.9126 13.8957 13.9075 13.9039C13.9022 13.9126 13.8966 13.9211 13.8916 13.9301C13.887 13.9385 13.8832 13.9474 13.879 13.9561C13.8746 13.9653 13.8697 13.9743 13.8656 13.9838C13.8618 13.9927 13.8589 14.002 13.8555 14.0111C13.8519 14.0208 13.848 14.0303 13.8448 14.0403C13.8419 14.0497 13.8398 14.0593 13.8374 14.0688C13.8348 14.079 13.8317 14.0889 13.8296 14.0992C13.8292 14.1011 13.8289 14.103 13.8285 14.1049C13.7464 14.1167 13.6656 14.1325 13.5863 14.1523V12.4686C13.5863 9.32555 16.1434 6.76846 19.2864 6.76846ZM19.5356 26.42L17.8859 24.8133C17.8866 24.8018 17.8877 24.7904 17.8877 24.7788V23.8017C17.8877 23.8011 17.8877 23.8006 17.8877 23.8002V23.2747C18.2647 23.3611 18.6565 23.4084 19.0595 23.4084H20.0634C20.4542 23.4084 20.8348 23.364 21.2014 23.2826C21.2126 23.2822 21.2238 23.2815 21.2351 23.2809V24.6558L19.5356 26.42ZM20.4472 28.755L20.1267 29.6086H18.9793L18.6171 28.744L19.5247 28.076L20.4472 28.755ZM11.2616 23.7163H10.2153L9.9271 22.9488L10.7649 22.3324L11.5878 22.938L11.2616 23.7163ZM11.343 26.1633C10.9876 26.3438 10.4822 26.6499 9.97973 27.1243C9.97273 27.1309 9.96579 27.1378 9.95879 27.1444L10.3131 24.9479H11.1469L11.343 26.1633ZM10.7553 20.6774L9.173 19.0349V17.7762C9.52126 17.8531 9.88262 17.895 10.2537 17.895H11.2065C11.5018 17.895 11.7964 17.869 12.0857 17.8179C12.1464 17.9167 12.2136 18.0108 12.2871 18.0997V18.2355C12.2871 18.2362 12.2871 18.2368 12.2871 18.2375V19.1641C12.2871 19.1708 12.288 19.1775 12.2881 19.1842L10.7553 20.6774ZM13.3326 19.886C13.4756 19.7469 13.5357 19.5551 13.5137 19.3712L14.0545 19.7281C14.1133 19.916 14.1834 20.0988 14.2621 20.2769L13.1515 22.5598L11.6913 21.485L13.3326 19.886ZM12.9554 16.5361C12.9554 15.9872 13.3182 15.5215 13.8165 15.3662V17.706C13.3182 17.5507 12.9554 17.0849 12.9554 16.5361ZM12.6083 23.689L13.0169 23.9895C13.1237 24.0682 13.2518 24.1094 13.3819 24.1094C13.4311 24.1094 13.4806 24.1035 13.5293 24.0915C13.7067 24.0477 13.8557 23.9274 13.9355 23.763L15.0293 21.5146C15.4768 22.0521 16.03 22.4981 16.656 22.8224V23.4634L14.682 24.7661C14.6552 24.7732 14.6286 24.7816 14.6025 24.7924L12.5101 25.6643L12.3073 24.4077L12.6083 23.689ZM16.6746 24.9268C16.6239 25.132 16.6797 25.3577 16.8421 25.5159L18.5994 27.2278L16.9975 28.4068L15.6375 25.6112L16.6746 24.9268ZM20.0634 22.1767H19.0596C16.8478 22.1767 15.0482 20.3773 15.0482 18.1654V14.8139C16.3692 14.7181 19.4941 14.2723 21.5998 12.1843C21.9954 13.0446 22.7487 14.1879 24.0748 14.6817V18.1654H24.0747C24.0747 20.3773 22.2752 22.1767 20.0634 22.1767ZM5.24649 12.4069C4.80774 12.2512 4.49208 11.8331 4.49208 11.3414C4.49208 10.8498 4.80766 10.4317 5.24649 10.2759V12.4069ZM5.87864 8.53199C5.87773 8.53199 5.87689 8.53199 5.8759 8.53199C5.87361 8.53199 5.8714 8.53229 5.86912 8.53229C5.86683 8.53229 5.86462 8.53199 5.86234 8.53199C5.57121 8.53199 5.32792 8.73423 5.2637 9.00585C5.2129 9.01362 5.16285 9.0236 5.11319 9.03457V7.48135C5.11319 4.51568 7.52593 2.10293 10.4916 2.10293H10.9911C13.4484 2.10293 15.5907 3.76272 16.2008 6.1392C16.2103 6.17615 16.2233 6.21111 16.2388 6.24462C15.4279 6.64331 14.706 7.19586 14.1109 7.86404C13.4012 7.12426 13.154 6.09259 13.1518 6.08276C13.0983 5.84678 12.9116 5.66397 12.6745 5.61552C12.4376 5.56715 12.194 5.66183 12.0522 5.8579C10.1367 8.50586 5.94019 8.53191 5.87872 8.53191C5.87864 8.53199 5.87864 8.53199 5.87864 8.53199ZM6.47811 12.8877V9.73703C7.68955 9.64471 10.4411 9.23323 12.3336 7.40449C12.555 7.86762 12.8877 8.40829 13.369 8.8622C12.7259 9.91352 12.3545 11.1485 12.3545 12.4686V14.8945C11.9627 15.3299 11.7238 15.9054 11.7238 16.5359C11.7238 16.5662 11.7251 16.5962 11.7261 16.6262C11.5544 16.6499 11.3807 16.6632 11.2064 16.6632H10.2536C8.17187 16.6633 6.47811 14.9696 6.47811 12.8877ZM7.95539 19.4113C7.97847 19.5202 8.03065 19.6244 8.1136 19.7104L9.82952 21.4916L8.37807 22.5597L7.11575 19.9653L7.95539 19.4113ZM8.45455 28.7354H4.8248V25.4373C4.8248 25.0972 4.54906 24.8216 4.20903 24.8216C3.869 24.8216 3.59326 25.0972 3.59326 25.4373V28.7354H1.23155V25.6077C1.23155 22.3737 3.78323 21.4506 3.88896 21.4139C3.90267 21.4092 3.9163 21.4042 3.92971 21.3986L6.01994 20.5277L7.59403 23.7632C7.67401 23.9276 7.82285 24.048 8.00026 24.0918C8.04901 24.1037 8.09844 24.1097 8.14765 24.1097C8.27775 24.1097 8.40587 24.0685 8.51266 23.9898L8.89619 23.7075L9.15456 24.3956L8.45455 28.7354ZM17.1918 34.8971H16.0976H13.1833V34.897V31.3887C13.1833 31.0485 12.9076 30.773 12.5675 30.773C12.2274 30.773 11.9517 31.0486 11.9517 31.3887V34.897H9.3971V31.5682C9.3971 28.1358 12.1071 27.157 12.2197 27.118C12.2334 27.1134 12.2471 27.1083 12.2605 27.1027L14.5329 26.1557L16.2135 29.6103C16.2935 29.7747 16.4423 29.8951 16.6197 29.9389C16.6685 29.9508 16.7179 29.9568 16.7671 29.9568C16.8972 29.9568 17.0254 29.9156 17.1321 29.8369L17.5963 29.4953L17.9334 30.3001L17.1918 34.8971ZM18.4394 34.897L19.0939 30.8401H20.0289L20.6833 34.897H18.4394ZM22.0518 28.4068L21.5665 28.0496C21.5652 28.0485 21.5638 28.0476 21.5624 28.0465L20.4601 27.2352L22.2944 25.3312C22.3896 25.2324 22.4445 25.1099 22.4609 24.9835L23.4118 25.6109L22.0518 28.4068ZM26.4901 25.6645L24.4241 24.8034L22.4687 23.5132C22.468 23.5128 22.4674 23.5124 22.4668 23.512V22.8226C23.0571 22.5168 23.5817 22.1025 24.0149 21.6055L25.0647 23.7632C25.1446 23.9275 25.2935 24.0479 25.4709 24.0917C25.5196 24.1037 25.5691 24.1096 25.6184 24.1096C25.7484 24.1096 25.8766 24.0684 25.9833 23.9897L26.3918 23.6891L26.6929 24.4079L26.4901 25.6645ZM25.8485 22.5597L24.8015 20.4075C24.9201 20.158 25.0187 19.8974 25.097 19.6282L25.4863 19.3712C25.4643 19.5551 25.5245 19.7468 25.6674 19.886L27.3088 21.485L25.8485 22.5597ZM29.0203 27.1243C28.5178 26.6499 28.0124 26.3437 27.657 26.1632L27.8532 24.9479H28.6869L29.0412 27.1444C29.0342 27.1377 29.0272 27.1309 29.0203 27.1243ZM28.7847 23.7163H27.7384L27.4123 22.9379L28.2352 22.3324L29.073 22.9489L28.7847 23.7163ZM29.1703 21.4916L30.8862 19.7104C30.9692 19.6243 31.0215 19.5202 31.0445 19.4112L31.8839 19.9652L30.6218 22.5597L29.1703 21.4916ZM35.4067 28.7354V25.4373C35.4067 25.0972 35.1311 24.8216 34.791 24.8216C34.4508 24.8216 34.1752 25.0972 34.1752 25.4373V28.7354H30.5453L29.8453 24.3956L30.1036 23.7075L30.4872 23.9898C30.594 24.0685 30.7221 24.1097 30.8521 24.1097C30.9014 24.1097 30.9508 24.1037 30.9996 24.0918C31.177 24.048 31.326 23.9276 31.4058 23.7632L32.9799 20.5277L35.0701 21.3986C35.0835 21.4041 35.0972 21.4092 35.1109 21.4139C35.1374 21.4227 37.7683 22.3445 37.7683 25.6077V28.7354H35.4067Z" fill="#1B4CC8"/>
</svg>
