<svg width="39" height="39" viewBox="0 0 39 39" fill="none" xmlns="http://www.w3.org/2000/svg">
<g clip-path="url(#clip0)">
<path d="M9.75018 1.30024C9.42583 1.30024 9.09954 1.34379 8.77519 1.43024C7.8119 0.516991 6.5314 0.000244141 5.20021 0.000244141C2.33308 0.000244141 0.000244141 2.33308 0.000244141 5.20021C0.000244141 5.55966 0.290792 5.85021 0.65024 5.85021H13.0002C13.3596 5.85021 13.6502 5.55966 13.6502 5.20021C13.6502 3.04938 11.901 1.30024 9.75018 1.30024ZM1.35419 4.55087V4.55022C1.66488 2.70813 3.27102 1.30024 5.20021 1.30024C6.30455 1.30024 7.36405 1.77603 8.10634 2.60608C8.28574 2.80758 8.57174 2.87648 8.82329 2.78028C10.3742 2.18553 11.9062 3.14818 12.2683 4.55087H1.35419Z" fill="#1B4CC8"/>
<path d="M11.05 7.15015H9.75V8.45014H11.05V7.15015Z" fill="#1B4CC8"/>
<path d="M13.6501 7.15015H12.3501V8.45014H13.6501V7.15015Z" fill="#1B4CC8"/>
<path d="M16.2499 7.15015H14.95V8.45014H16.2499V7.15015Z" fill="#1B4CC8"/>
<path d="M30.55 19.3014C30.55 18.3434 29.8642 17.5348 28.9204 17.3781L26.7689 17.0193L27.1823 14.9504H32.5V18.8503H33.8V14.3004V11.7004V6.25213L38.6405 3.83154C38.8608 3.72169 38.9999 3.4968 38.9999 3.25045C38.9999 3.0041 38.8608 2.7792 38.6405 2.6687L33.4405 0.0687168C33.2384 -0.0313825 32.9992 -0.0216326 32.8081 0.0973167C32.617 0.216266 32.5 0.424915 32.5 0.650463V5.85043V11.0504H27.599C28.2191 10.3595 28.6 9.45011 28.6 8.45041C28.6 6.29958 26.8508 4.55044 24.7 4.55044C22.5492 4.55044 20.8 6.29958 20.8 8.45041C20.8 9.61781 21.3181 10.6643 22.1332 11.3793L16.5335 16.357L12.898 18.1744L11.0338 17.8637C11.8392 17.1487 12.3501 16.1093 12.3501 14.9504C12.3501 12.7995 10.6009 11.0504 8.45011 11.0504C6.29927 11.0504 4.55013 12.7995 4.55013 14.9504C4.55013 16.1366 5.08443 17.1994 5.92293 17.915C5.91383 17.9332 5.90083 17.9475 5.89368 17.9664L3.87869 23.2053C3.51014 24.1654 3.60959 25.2164 4.15234 26.0894C4.25569 26.2558 4.37594 26.4059 4.50333 26.5483L2.73405 29.4973L0.190611 32.0407C-0.0635371 32.2949 -0.0635371 32.7057 0.190611 32.9598L2.1406 34.9098C2.26735 35.0365 2.43375 35.1002 2.60015 35.1002C2.76655 35.1002 2.93294 35.0365 3.05969 34.9098L6.30967 31.6598C6.34022 31.6293 6.36752 31.5961 6.39092 31.561L8.88756 27.8157L9.7501 27.8937V30.5503H9.10011C8.74066 30.5503 8.45011 30.8408 8.45011 31.2003V35.8828L0.503909 37.7165C0.208811 37.7847 0.000162504 38.0473 0.000162504 38.3502V39.0002H1.30015V38.8676L9.24636 37.034C9.54145 36.9657 9.7501 36.7031 9.7501 36.4002V31.8503H10.4001H13.6501H19.5C19.684 31.8503 19.8601 31.7723 19.983 31.6351L25.6393 25.3503H26.65H29.9H38.9999V24.0503H30.55V19.3014ZM33.8 1.70216L36.8965 3.25045L33.8 4.79874V1.70216ZM22.1 8.45041C22.1 7.01652 23.2661 5.85043 24.7 5.85043C26.1339 5.85043 27.3 7.01652 27.3 8.45041C27.3 9.88431 26.1339 11.0504 24.7 11.0504C23.2661 11.0504 22.1 9.88431 22.1 8.45041ZM21.1835 13.9624L20.1949 16.5325L18.3586 17.917L17.7542 17.0102L21.1835 13.9624ZM5.85013 14.9504C5.85013 13.5165 7.01622 12.3504 8.45011 12.3504C9.884 12.3504 11.0501 13.5165 11.0501 14.9504C11.0501 16.3843 9.884 17.5504 8.45011 17.5504C7.01622 17.5504 5.85013 16.3843 5.85013 14.9504ZM5.34508 30.7862L2.60015 33.5312L1.56925 32.5003L3.70969 30.3598C3.74739 30.3221 3.77989 30.2805 3.80719 30.235L5.55243 27.3263C5.88328 27.4777 6.24142 27.5752 6.61712 27.6097L7.41402 27.6818L5.34508 30.7862ZM13.0001 30.5503H11.0501V27.3003C11.0501 26.9636 10.7933 26.6835 10.4592 26.6529L6.73542 26.3143C6.12117 26.2584 5.58233 25.9262 5.25603 25.4023C4.93038 24.8784 4.87058 24.2486 5.09223 23.6727L6.94667 18.8503H9.04616L12.8935 19.4912C13.0293 19.5133 13.1684 19.4925 13.2906 19.4314L16.6771 17.7382L17.2725 18.6313L13.4772 20.8003H10.4001C10.1017 20.8003 9.8424 21.0031 9.7696 21.293L9.11961 23.893C9.07541 24.0692 9.10661 24.2551 9.20671 24.4065C9.3055 24.558 9.4641 24.662 9.6435 24.6912L12.4573 25.1605C12.7713 25.2125 13.0001 25.4823 13.0001 25.8014V30.5503ZM26 24.0503H25.35C25.1661 24.0503 24.9899 24.1283 24.8671 24.2655L19.2108 30.5503H14.3001V25.8014C14.3001 24.8433 13.6143 24.0347 12.6705 23.8781L10.5509 23.5245L10.9077 22.1003H13.6501C13.7632 22.1003 13.8743 22.0704 13.9725 22.0145L18.5224 19.4145C18.5322 19.4087 18.538 19.3983 18.5478 19.3924C18.5614 19.3833 18.5777 19.3794 18.5913 19.3697L19.9492 18.346C20.0135 18.7795 20.1617 19.202 20.4022 19.5894C20.5056 19.7558 20.6258 19.9059 20.7532 20.0483L18.9839 22.9973L16.4405 25.5408C16.1864 25.7949 16.1864 26.2057 16.4405 26.4599L18.3905 28.4098C18.5172 28.5366 18.6836 28.6003 18.85 28.6003C19.0164 28.6003 19.1828 28.5366 19.3096 28.4098L22.5596 25.1599C22.5901 25.1293 22.6174 25.0962 22.6408 25.0611L25.1375 21.3158L26 21.3938V24.0503ZM21.8023 20.8263C22.1332 20.9778 22.4913 21.0753 22.867 21.1097L23.6639 21.1819L21.5943 24.2863L18.85 27.0312L17.8192 26.0003L19.9596 23.8599C19.9973 23.8222 20.0298 23.7806 20.0571 23.7351L21.8023 20.8263ZM29.25 24.0503H27.3V20.8003C27.3 20.4636 27.0432 20.1835 26.7091 20.1529L22.9853 19.8143C22.3711 19.7584 21.8322 19.4262 21.5059 18.9023C21.1803 18.3785 21.1205 17.7486 21.3421 17.1727L23.1966 12.3504H32.5V13.6504H26.65C26.3399 13.6504 26.0734 13.8694 26.013 14.173L25.363 17.423C25.3286 17.5959 25.3656 17.7746 25.4651 17.9202C25.5652 18.0652 25.7199 18.1627 25.8934 18.1919L28.7072 18.6612C29.0212 18.7125 29.25 18.9823 29.25 19.3014V24.0503Z" fill="#1B4CC8"/>
</g>
<defs>
<clipPath id="clip0">
<rect width="39" height="39" fill="white"/>
</clipPath>
</defs>
</svg>
