<svg width="39" height="39" viewBox="0 0 39 39" fill="none" xmlns="http://www.w3.org/2000/svg">
<g clip-path="url(#clip0)">
<path d="M37.0499 28.0347C36.7518 23.5901 33.0546 20.1403 28.6 20.1503H0.650477C0.291521 20.1503 0.000488281 20.4413 0.000488281 20.8003C0.0053632 24.9614 3.03886 28.4995 7.15037 29.1397V39H8.45035V29.2502H33.7999V36.4C33.7999 37.836 34.964 39 36.3999 39H38.3498C38.7088 39 38.9998 38.709 38.9998 38.35V30.5501C38.9989 29.3653 38.1971 28.3308 37.0499 28.0347ZM8.45035 27.9502C4.74208 27.9655 1.63757 25.1432 1.30047 21.4503H28.6C32.3083 21.4349 35.4128 24.2573 35.7499 27.9502H8.45035ZM37.6999 37.7H36.3999C35.6819 37.7 35.0999 37.118 35.0999 36.4V29.2502H36.3999C37.1179 29.2502 37.6999 29.8321 37.6999 30.5501V37.7Z" fill="#1B4CC8"/>
<path d="M14.95 33.8C13.247 33.8 11.661 34.8335 10.4976 36.7055L11.6025 37.3945C11.9661 36.7839 12.4401 36.2461 13 35.8085C13 36.8855 13.873 37.7585 14.95 37.7585C16.0269 37.7585 16.9 36.8855 16.9 35.8085C17.4623 36.2455 17.9384 36.7833 18.3039 37.3945L19.4089 36.7055C18.2389 34.8335 16.653 33.8 14.95 33.8ZM14.95 36.4C14.591 36.4 14.3 36.109 14.3 35.75C14.3 35.3911 14.591 35.1 14.95 35.1C15.3089 35.1 15.6 35.3911 15.6 35.75C15.6 36.109 15.3089 36.4 14.95 36.4Z" fill="#1B4CC8"/>
<path d="M26.6497 33.8C24.9467 33.8 23.3607 34.8335 22.1973 36.7055L23.3022 37.3945C23.6658 36.7839 24.1398 36.2461 24.6997 35.8085C24.6997 36.8855 25.5727 37.7585 26.6497 37.7585C27.7266 37.7585 28.5997 36.8855 28.5997 35.8085C29.162 36.2455 29.6381 36.7833 30.0036 37.3945L31.1086 36.7055C29.9386 34.8335 28.3527 33.8 26.6497 33.8ZM26.6497 36.4C26.2907 36.4 25.9997 36.109 25.9997 35.75C25.9997 35.3911 26.2907 35.1 26.6497 35.1C27.0086 35.1 27.2997 35.3911 27.2997 35.75C27.2997 36.109 27.0086 36.4 26.6497 36.4Z" fill="#1B4CC8"/>
<path d="M10.6406 1.34611L7.39068 0.0461289C7.23622 -0.0153763 7.06414 -0.0153763 6.90968 0.0461289L3.65974 1.34611C3.41225 1.44466 3.25 1.68426 3.25024 1.9506V4.55055H4.55022V2.39259L7.15018 1.35261L9.75014 2.39259V4.18006L6.81869 5.94153C6.62125 6.05853 6.50027 6.27099 6.50019 6.50052V9.10048H7.80017V6.87102L10.7316 5.10954C10.9291 4.99247 11.05 4.78008 11.0501 4.55055V1.9506C11.0504 1.68418 10.8881 1.44466 10.6406 1.34611Z" fill="#1B4CC8"/>
<path d="M7.80022 10.4004H6.50024V11.7004H7.80022V10.4004Z" fill="#1B4CC8"/>
<path d="M22.9905 1.34611L19.7405 0.0461289C19.5861 -0.0153763 19.414 -0.0153763 19.2595 0.0461289L16.0096 1.34611C15.7621 1.44466 15.5999 1.68426 15.6001 1.9506V4.55055H16.9001V2.39259L19.5 1.35261L22.1 2.39259V4.18006L19.1685 5.94153C18.9711 6.05853 18.8501 6.27099 18.85 6.50052V9.10048H20.15V6.87102L23.0815 5.10954C23.2789 4.99247 23.3999 4.78008 23.3999 4.55055V1.9506C23.4002 1.68418 23.2379 1.44466 22.9905 1.34611Z" fill="#1B4CC8"/>
<path d="M20.1501 10.4004H18.8501V11.7004H20.1501V10.4004Z" fill="#1B4CC8"/>
<path d="M35.3403 1.34611L32.0904 0.0461289C31.9359 -0.0153763 31.7638 -0.0153763 31.6094 0.0461289L28.3594 1.34611C28.112 1.44466 27.9497 1.68426 27.95 1.9506V4.55055H29.2499V2.39259L31.8499 1.35261L34.4498 2.39259V4.18006L31.5184 5.94153C31.321 6.05861 31.2 6.27099 31.1999 6.50052V9.10048H32.4999V6.87102L35.4313 5.10954C35.6288 4.99247 35.7497 4.78008 35.7498 4.55055V1.9506C35.7501 1.68418 35.5878 1.44466 35.3403 1.34611Z" fill="#1B4CC8"/>
<path d="M32.4999 10.4004H31.2V11.7004H32.4999V10.4004Z" fill="#1B4CC8"/>
</g>
<defs>
<clipPath id="clip0">
<rect width="39" height="39" fill="white"/>
</clipPath>
</defs>
</svg>
