<svg width="39" height="39" viewBox="0 0 39 39" fill="none" xmlns="http://www.w3.org/2000/svg">
<path d="M19.4998 0C10.1385 0 4.5498 5.8318 4.5498 15.6C4.5498 26.1866 18.4819 38.3305 19.0754 38.842C19.1969 38.9473 19.3484 39 19.4998 39C19.6513 39 19.8027 38.9473 19.9243 38.842C20.5177 38.3305 34.4498 26.1866 34.4498 15.6C34.4498 5.8318 28.8611 0 19.4998 0ZM19.4998 37.4783C17.1475 35.3398 5.8498 24.5966 5.8498 15.6C5.8498 6.6456 10.953 1.3 19.4998 1.3C28.0467 1.3 33.1498 6.6456 33.1498 15.6C33.1498 24.5966 21.8522 35.3398 19.4998 37.4783Z" fill="#1B4CC8"/>
<path d="M19.5002 3.25C13.4071 3.25 8.4502 8.2069 8.4502 14.3C8.4502 20.3931 13.4071 25.35 19.5002 25.35C25.5933 25.35 30.5502 20.3931 30.5502 14.3C30.5502 8.2069 25.5933 3.25 19.5002 3.25ZM19.5002 24.05C14.124 24.05 9.7502 19.6761 9.7502 14.3C9.7502 8.92385 14.124 4.55 19.5002 4.55C24.8763 4.55 29.2502 8.92385 29.2502 14.3C29.2502 19.6761 24.8763 24.05 19.5002 24.05Z" fill="#1B4CC8"/>
<path d="M25.35 9.75002H22.1V8.45002C22.1 7.73307 21.5169 7.15002 20.8 7.15002H18.2C17.483 7.15002 16.9 7.73307 16.9 8.45002V9.75002H13.65C13.2912 9.75002 13 10.0412 13 10.4V11.7V18.2C13 18.5588 13.2912 18.85 13.65 18.85H25.35C25.7088 18.85 26 18.5588 26 18.2V11.7V10.4C26 10.0412 25.7088 9.75002 25.35 9.75002ZM18.2 8.45002H20.8V9.75002H18.2V8.45002ZM24.7 17.55H14.3V14.2831C14.8447 14.6959 15.5155 14.95 16.25 14.95H18.85V15.6H20.15V14.95H22.75C23.4845 14.95 24.1553 14.6959 24.7 14.2831V17.55ZM24.7 11.7C24.7 12.7751 23.8251 13.65 22.75 13.65H16.25C15.1749 13.65 14.3 12.7751 14.3 11.7V11.05H17.55H21.45H24.7V11.7Z" fill="#1B4CC8"/>
<path d="M17.55 20.15H16.25V21.45H17.55V20.15Z" fill="#1B4CC8"/>
<path d="M20.1501 20.15H18.8501V21.45H20.1501V20.15Z" fill="#1B4CC8"/>
<path d="M22.7502 20.15H21.4502V21.45H22.7502V20.15Z" fill="#1B4CC8"/>
<path d="M28.6 35.75H27.3V37.05H28.6V35.75Z" fill="#1B4CC8"/>
<path d="M31.1999 35.75H29.8999V37.05H31.1999V35.75Z" fill="#1B4CC8"/>
<path d="M33.8 35.75H32.5V37.05H33.8V35.75Z" fill="#1B4CC8"/>
<path d="M6.5002 35.75H5.2002V37.05H6.5002V35.75Z" fill="#1B4CC8"/>
<path d="M9.0998 35.75H7.7998V37.05H9.0998V35.75Z" fill="#1B4CC8"/>
<path d="M11.6999 35.75H10.3999V37.05H11.6999V35.75Z" fill="#1B4CC8"/>
</svg>
