<svg width="39" height="39" viewBox="0 0 39 39" fill="none" xmlns="http://www.w3.org/2000/svg">
<g clip-path="url(#clip0)">
<path d="M38.8154 15.4153C38.3281 14.1884 36.9384 13.5888 35.7115 14.0761C35.6484 14.1012 35.5863 14.1289 35.5256 14.1593L33.7531 15.0468L30.1344 10.2227C30.0896 10.1631 30.0352 10.1115 29.9732 10.0701L26.0255 7.43829C25.9462 7.38541 25.8564 7.35037 25.7623 7.33565L17.2089 6.01975C17.0021 5.98792 16.7926 6.05635 16.6444 6.20398L11.7393 11.0906C10.9156 11.9113 10.913 13.2444 11.7337 14.0681C11.7356 14.07 11.7374 14.0719 11.7393 14.0737C12.525 14.8541 13.7799 14.8955 14.6153 14.1685L18.5899 10.6905L22.1166 11.6985L19.165 18.184L14.637 24.6523L9.25491 29.4955C8.27473 30.3374 8.16263 31.8146 9.00456 32.7948C9.8465 33.7749 11.3237 33.887 12.3039 33.0451L18.2333 28.1894L21.7777 24.645L26.2728 28.017L25.2728 34.9966C25.1791 35.6493 25.3736 36.3105 25.8057 36.8086C26.2496 37.3163 26.894 37.6033 27.5684 37.5935C28.6855 37.5951 29.6456 36.8014 29.8541 35.7039L31.574 26.5294C31.6167 26.3009 31.5356 26.0668 31.3608 25.9136L26.4327 21.6053L28.5303 15.8377L32.403 20.2637C32.5925 20.48 32.9005 20.5483 33.1636 20.4322L37.6061 18.4675C38.774 17.9501 39.3121 16.5923 38.8154 15.4153ZM37.0738 17.2628L33.0741 19.0314L28.7869 14.1316C28.5475 13.8583 28.1318 13.8308 27.8584 14.0702C27.775 14.1432 27.7115 14.2361 27.6736 14.3402L25.0418 21.5777C24.949 21.8328 25.0225 22.1187 25.2267 22.2975L30.2081 26.6564L28.5553 35.4618C28.4567 35.9488 28.0209 36.2936 27.5243 36.2776C26.9945 36.2775 26.5651 35.8479 26.5652 35.3181C26.5652 35.2729 26.5684 35.2276 26.5748 35.1828L27.6276 27.8177C27.6617 27.5798 27.5633 27.3421 27.371 27.1979L22.1074 23.2502C21.8454 23.0538 21.4789 23.0799 21.2474 23.3114L17.3484 27.215L11.4676 32.0266C11.0328 32.3869 10.3882 32.3265 10.0279 31.8916C9.6765 31.4675 9.7242 30.8411 10.1359 30.4752L15.5732 25.5813C15.6104 25.548 15.6435 25.5105 15.6719 25.4695L20.2776 18.8899C20.3009 18.857 20.3208 18.822 20.3375 18.7853L23.6272 11.5479C23.7776 11.217 23.6313 10.827 23.3004 10.6766C23.2709 10.6632 23.2405 10.6521 23.2094 10.6432L18.6038 9.32727C18.3889 9.26501 18.1571 9.31683 17.9892 9.46478L13.7454 13.1783C13.4264 13.4764 12.926 13.4595 12.6279 13.1404C12.3298 12.8214 12.3467 12.321 12.6657 12.0229L17.3372 7.37052L25.4175 8.61405L29.1474 11.1024L33.0294 16.2759C33.22 16.5304 33.5653 16.612 33.8498 16.47L36.1138 15.335C36.3801 15.201 36.6905 15.185 36.9692 15.2909C37.2674 15.4074 37.5004 15.6474 37.608 15.9489C37.8128 16.4593 37.5766 17.0402 37.0738 17.2628Z" fill="#1B4CC8"/>
<path d="M12.5011 5.35388H3.94775V6.66979H12.5011V5.35388Z" fill="#1B4CC8"/>
<path d="M2.63182 5.35388H1.31592V6.66979H2.63182V5.35388Z" fill="#1B4CC8"/>
<path d="M7.89549 10.6176H6.57959V11.9335H7.89549V10.6176Z" fill="#1B4CC8"/>
<path d="M5.26361 10.6176H0V11.9335H5.26361V10.6176Z" fill="#1B4CC8"/>
<path d="M9.86931 15.8811H3.28979V17.197H9.86931V15.8811Z" fill="#1B4CC8"/>
<path d="M12.5011 21.1448H1.31592V22.4607H12.5011V21.1448Z" fill="#1B4CC8"/>
<path d="M7.89545 26.4083H2.63184V27.7242H7.89545V26.4083Z" fill="#1B4CC8"/>
<path d="M1.3159 26.4083H0V27.7242H1.3159V26.4083Z" fill="#1B4CC8"/>
<path d="M5.92158 31.672H1.31592V32.9879H5.92158V31.672Z" fill="#1B4CC8"/>
<path d="M32.8976 1.40613H29.9368C27.9382 1.40613 26.3181 3.02625 26.3181 5.02486C26.3181 7.02347 27.9382 8.6436 29.9368 8.6436C31.9355 8.6436 33.5556 7.02347 33.5556 5.02486V2.06408C33.5556 1.70073 33.261 1.40613 32.8976 1.40613ZM32.2397 5.02486C32.2446 6.29158 31.2218 7.32251 29.9551 7.32745C29.2448 7.33024 28.5732 7.00373 28.1367 6.44341C29.2319 5.36075 30.7 4.73824 32.2397 4.70378V5.02486ZM32.2397 3.38788C30.5544 3.41856 28.9312 4.02897 27.6432 5.11632C27.6432 5.08539 27.634 5.05644 27.634 5.02486C27.634 3.75304 28.665 2.72203 29.9368 2.72203H32.2397V3.38788Z" fill="#1B4CC8"/>
</g>
<defs>
<clipPath id="clip0">
<rect width="39" height="39" fill="white"/>
</clipPath>
</defs>
</svg>
