<svg width="39" height="39" viewBox="0 0 39 39" fill="none" xmlns="http://www.w3.org/2000/svg">
<path d="M31.8496 24.6998H26.1426C25.7858 24.304 25.2736 24.0498 24.6996 24.0498C24.1985 24.0498 23.7455 24.2455 23.3997 24.5568C23.0539 24.2448 22.6008 24.0498 22.0997 24.0498C21.5985 24.0498 21.1455 24.2455 20.7997 24.5568C20.4539 24.2448 20.0008 24.0498 19.4997 24.0498C18.9986 24.0498 18.5455 24.2455 18.1997 24.5568C17.8539 24.2448 17.4009 24.0498 16.8997 24.0498C16.3258 24.0498 15.8143 24.304 15.4568 24.6998H4.54989C4.1911 24.6998 3.8999 24.991 3.8999 25.3498V29.8997C3.8999 31.6918 5.35783 33.1497 7.14986 33.1497H12.3498V36.3997C12.3498 36.5719 12.418 36.7376 12.5402 36.8592L13.6498 37.9687V38.9996H14.9498V37.6996C14.9498 37.5274 14.8815 37.3616 14.7593 37.2401L13.6498 36.1306V28.6816C14.7697 28.9709 15.5998 29.9901 15.5998 31.1997V34.4497H16.8997V33.1497H25.3496V38.9996H26.6496V33.1497H34.4495C34.8083 33.1497 35.0995 32.8585 35.0995 32.4997V27.9498C35.0995 26.1577 33.6416 24.6998 31.8496 24.6998ZM14.9498 27.8276C14.3752 27.4941 13.7102 27.2998 12.9998 27.2998C12.641 27.2998 12.3498 27.591 12.3498 27.9498V31.8497H7.14986C6.07477 31.8497 5.19989 30.9748 5.19989 29.8997V25.9998H14.9498V27.8276ZM24.0496 25.9998C24.0496 25.6416 24.3415 25.3498 24.6996 25.3498C25.0578 25.3498 25.3496 25.6416 25.3496 25.9998V28.5997C25.3496 28.9579 25.0578 29.2497 24.6996 29.2497C24.3415 29.2497 24.0496 28.9579 24.0496 28.5997V25.9998ZM21.4497 25.9998C21.4497 25.6416 21.7415 25.3498 22.0997 25.3498C22.4578 25.3498 22.7497 25.6416 22.7497 25.9998V28.5997C22.7497 28.9579 22.4578 29.2497 22.0997 29.2497C21.7415 29.2497 21.4497 28.9579 21.4497 28.5997V25.9998ZM18.8497 25.9998C18.8497 25.6416 19.1416 25.3498 19.4997 25.3498C19.8579 25.3498 20.1497 25.6416 20.1497 25.9998V28.5997C20.1497 28.9579 19.8579 29.2497 19.4997 29.2497C19.1416 29.2497 18.8497 28.9579 18.8497 28.5997V25.9998ZM16.2497 28.5997V25.9998C16.2497 25.6416 16.5416 25.3498 16.8997 25.3498C17.2579 25.3498 17.5497 25.6416 17.5497 25.9998V28.5997C17.5497 28.9579 17.2579 29.2497 16.8997 29.2497C16.5416 29.2497 16.2497 28.9579 16.2497 28.5997ZM33.7995 31.8497H16.8997V31.1997C16.8997 30.9755 16.8763 30.7577 16.8399 30.5439C16.8601 30.5445 16.8796 30.5497 16.8997 30.5497C17.4009 30.5497 17.8539 30.3541 18.1997 30.0427C18.5455 30.3547 18.9986 30.5497 19.4997 30.5497C20.0008 30.5497 20.4539 30.3541 20.7997 30.0427C21.1455 30.3547 21.5985 30.5497 22.0997 30.5497C22.6008 30.5497 23.0539 30.3541 23.3997 30.0427C23.7455 30.3547 24.1985 30.5497 24.6996 30.5497C25.7747 30.5497 26.6496 29.6748 26.6496 28.5997V25.9998H31.8496C32.9246 25.9998 33.7995 26.8747 33.7995 27.9498V31.8497Z" fill="#1B4CC8"/>
<path d="M38.9313 18.5586L37.6995 16.0964V6.36476L38.512 6.15481C38.7993 6.08006 38.9995 5.82137 38.9995 5.52497C38.9995 5.22858 38.7993 4.96988 38.512 4.89578L19.6623 0.020841C19.5557 -0.0064587 19.4432 -0.0064587 19.3366 0.020841L0.486844 4.89578C0.200197 4.96988 0 5.22858 0 5.52497C0 5.82137 0.200197 6.08007 0.487494 6.15416L9.09989 8.38169V17.5498C9.09989 17.8482 9.30268 18.1082 9.59193 18.1803L13.7194 19.2118C13.6375 19.3769 13.6264 19.5719 13.6992 19.7481C13.8 19.9912 14.0372 20.1498 14.2998 20.1498H15.5998V21.4498C15.5998 21.7124 15.7584 21.9496 16.0009 22.0504C16.0814 22.0835 16.1659 22.0998 16.2498 22.0998C16.4188 22.0998 16.5852 22.0335 16.7093 21.9093L19.4998 19.1189L22.2902 21.9093C22.4143 22.0335 22.5807 22.0998 22.7497 22.0998C22.8336 22.0998 22.9181 22.0835 22.9987 22.0504C23.2411 21.9496 23.3997 21.7124 23.3997 21.4498V20.1498H24.6997C24.9623 20.1498 25.1995 19.9912 25.3003 19.7487C25.3731 19.5719 25.362 19.3776 25.2801 19.2125L29.4076 18.181C29.6968 18.1082 29.8996 17.8482 29.8996 17.5498V8.38169L36.3995 6.70081V16.0964L35.1678 18.5593C35.0762 18.7426 35.0762 18.9577 35.1678 19.141L36.4678 21.741C36.5783 21.9607 36.8032 22.0998 37.0495 22.0998C37.2959 22.0998 37.5208 21.9607 37.6313 21.7403L38.9313 19.1403C39.0229 18.9571 39.0229 18.7419 38.9313 18.5586ZM16.8998 19.8807V19.4998C16.8998 19.141 16.6086 18.8498 16.2498 18.8498H15.8689L17.0304 17.6883C17.3502 18.0659 17.7448 18.376 18.2037 18.5768L16.8998 19.8807ZM17.5498 15.5998C17.5498 14.5248 18.4247 13.6499 19.4998 13.6499C20.5748 13.6499 21.4497 14.5248 21.4497 15.5998C21.4497 16.6749 20.5748 17.5498 19.4998 17.5498C18.4247 17.5498 17.5498 16.6749 17.5498 15.5998ZM22.7497 18.8498C22.3909 18.8498 22.0997 19.141 22.0997 19.4998V19.8807L20.7958 18.5768C21.2547 18.376 21.6493 18.0659 21.9691 17.6883L23.1306 18.8498H22.7497ZM28.5996 17.0422L24.2492 18.1296L22.61 16.4903C22.6919 16.2056 22.7497 15.9112 22.7497 15.5998C22.7497 13.8078 21.2918 12.3499 19.4998 12.3499C17.7077 12.3499 16.2498 13.8078 16.2498 15.5998C16.2498 15.9112 16.3076 16.2056 16.3895 16.491L14.7503 18.1303L10.3999 17.0422V8.71773L19.3373 11.0291C19.3906 11.0428 19.4452 11.0499 19.4998 11.0499C19.5544 11.0499 19.609 11.0428 19.6623 11.0291L28.5996 8.71773V17.0422ZM19.4998 9.72847L3.24606 5.52497L19.4998 1.32147L35.7535 5.52497L19.4998 9.72847ZM37.0495 19.9964L36.4762 18.8498L37.0495 17.7032L37.6228 18.8498L37.0495 19.9964Z" fill="#1B4CC8"/>
<path d="M5.19989 22.0999H3.8999V23.3998H5.19989V22.0999Z" fill="#1B4CC8"/>
<path d="M7.79998 22.0999H6.5V23.3998H7.79998V22.0999Z" fill="#1B4CC8"/>
<path d="M10.3998 22.0999H9.09985V23.3998H10.3998V22.0999Z" fill="#1B4CC8"/>
</svg>
