<svg width="39" height="39" viewBox="0 0 39 39" fill="none" xmlns="http://www.w3.org/2000/svg">
<path d="M33.6091 6.0398L27.7604 0.1911C27.6427 0.0728 27.4802 0 27.3002 0H8.4502C6.65815 0 5.2002 1.45795 5.2002 3.25V31.2C5.2002 32.9921 6.65815 34.45 8.4502 34.45H15.6002V39H16.9002V34.45H26.6502C27.009 34.45 27.3002 34.1595 27.3002 33.8V30.55C27.3002 29.341 28.1302 28.3211 29.2502 28.0325V33.8V39H30.5502V34.45C32.3422 34.45 33.8002 32.9921 33.8002 31.2V6.5C33.8002 6.31995 33.7274 6.15745 33.6091 6.0398ZM27.9502 2.2191L31.5811 5.85H27.9502V2.2191ZM32.5002 31.2C32.5002 32.2751 31.6253 33.15 30.5502 33.15V27.3C30.5502 26.9405 30.259 26.65 29.9002 26.65C27.7493 26.65 26.0002 28.3991 26.0002 30.55V33.15H8.4502C7.3751 33.15 6.5002 32.2751 6.5002 31.2V3.25C6.5002 2.1749 7.3751 1.3 8.4502 1.3H26.6502V6.5C26.6502 6.85945 26.9414 7.15 27.3002 7.15H32.5002V31.2Z" fill="#1B4CC8"/>
<path d="M18.2002 3.90002H9.1002C8.7414 3.90002 8.4502 4.19057 8.4502 4.55002V13.65C8.4502 14.0095 8.7414 14.3 9.1002 14.3H11.7002H15.6002H18.2002C18.559 14.3 18.8502 14.0095 18.8502 13.65V4.55002C18.8502 4.19057 18.559 3.90002 18.2002 3.90002ZM14.9502 13H12.3502V11.7C12.3502 10.9831 12.9332 10.4 13.6502 10.4C14.3671 10.4 14.9502 10.9831 14.9502 11.7V13ZM13.0002 8.45002C13.0002 8.09122 13.292 7.80002 13.6502 7.80002C14.0083 7.80002 14.3002 8.09122 14.3002 8.45002C14.3002 8.80882 14.0083 9.10002 13.6502 9.10002C13.292 9.10002 13.0002 8.80882 13.0002 8.45002ZM17.5502 13H16.2502V11.7C16.2502 10.8479 15.8329 10.0978 15.1978 9.62327C15.4468 9.29567 15.6002 8.89202 15.6002 8.45002C15.6002 7.37492 14.7253 6.50002 13.6502 6.50002C12.5751 6.50002 11.7002 7.37492 11.7002 8.45002C11.7002 8.89202 11.8536 9.29567 12.1025 9.62327C11.4675 10.0978 11.0502 10.8479 11.0502 11.7V13H9.7502V5.20002H17.5502V13Z" fill="#1B4CC8"/>
<path d="M23.3999 5.84998H20.1499V7.14998H23.3999V5.84998Z" fill="#1B4CC8"/>
<path d="M24.0499 8.44995H20.1499V9.74995H24.0499V8.44995Z" fill="#1B4CC8"/>
<path d="M28.6001 8.44995H25.3501V9.74995H28.6001V8.44995Z" fill="#1B4CC8"/>
<path d="M28.5999 11.05H20.1499V12.35H28.5999V11.05Z" fill="#1B4CC8"/>
<path d="M16.9002 16.25H11.7002V17.55H16.9002V16.25Z" fill="#1B4CC8"/>
<path d="M22.1002 16.25H18.2002V17.55H22.1002V16.25Z" fill="#1B4CC8"/>
<path d="M29.8999 16.25H23.3999V17.55H29.8999V16.25Z" fill="#1B4CC8"/>
<path d="M14.3001 18.85H9.1001V20.15H14.3001V18.85Z" fill="#1B4CC8"/>
<path d="M26.0001 18.85H15.6001V20.15H26.0001V18.85Z" fill="#1B4CC8"/>
<path d="M29.9 18.85H27.3V20.15H29.9V18.85Z" fill="#1B4CC8"/>
<path d="M11.7001 21.45H9.1001V22.75H11.7001V21.45Z" fill="#1B4CC8"/>
<path d="M20.8 21.45H13V22.75H20.8V21.45Z" fill="#1B4CC8"/>
<path d="M29.9001 21.45H22.1001V22.75H29.9001V21.45Z" fill="#1B4CC8"/>
<path d="M11.7001 24.05H9.1001V25.35H11.7001V24.05Z" fill="#1B4CC8"/>
<path d="M20.8 24.05H13V25.35H20.8V24.05Z" fill="#1B4CC8"/>
<path d="M29.9001 24.05H22.1001V25.35H29.9001V24.05Z" fill="#1B4CC8"/>
<path d="M14.9501 26.65H9.1001V27.95H14.9501V26.65Z" fill="#1B4CC8"/>
<path d="M25.35 26.65H16.25V27.95H25.35V26.65Z" fill="#1B4CC8"/>
<path d="M11.7001 29.25H9.1001V30.55H11.7001V29.25Z" fill="#1B4CC8"/>
<path d="M24.05 29.25H13V30.55H24.05V29.25Z" fill="#1B4CC8"/>
</svg>
