<svg width="39" height="39" viewBox="0 0 39 39" fill="none" xmlns="http://www.w3.org/2000/svg">
<g clip-path="url(#clip0)">
<path d="M30.55 31.2V33.5309L28.1008 31.0817C29.2663 28.9549 29.9 26.6597 29.9 24.3087V24.05H31.2V22.75H29.9V16.9C29.9 16.5412 29.6095 16.25 29.25 16.25H24.7V12.35C24.7 11.9912 24.4095 11.7 24.05 11.7H22.1V9.75C22.1 4.37385 17.7262 0 12.35 0C6.97385 0 2.6 4.37385 2.6 9.75V11.7H0.65C0.29055 11.7 0 11.9912 0 12.35V16.9V20.15V23.4V26.65V29.9V31.85C0 33.642 1.45795 35.1 3.25 35.1H13.9523C15.4128 36.5495 17.1717 37.8443 19.1945 38.9233C19.2901 38.9746 19.3947 39 19.5 39C19.6053 39 19.71 38.9746 19.8062 38.9233C23.0867 37.1735 25.673 34.8575 27.4099 32.2283L29.6309 34.45H27.3V35.75H31.2C31.5595 35.75 31.85 35.4588 31.85 35.1V31.2H30.55ZM3.9 9.75C3.9 5.0908 7.6908 1.3 12.35 1.3C17.0092 1.3 20.8 5.0908 20.8 9.75V11.7H18.85V9.75C18.85 6.1659 15.9341 3.25 12.35 3.25C8.7659 3.25 5.85 6.1659 5.85 9.75V11.7H3.9V9.75ZM17.55 9.75V11.7H7.15V9.75C7.15 6.88285 9.48285 4.55 12.35 4.55C15.2172 4.55 17.55 6.88285 17.55 9.75ZM1.3 17.55H5.2V19.5H1.3V17.55ZM1.3 20.8H5.2V22.75H1.3V20.8ZM1.3 24.05H5.2V26H1.3V24.05ZM1.3 27.3H5.2V29.25H1.3V27.3ZM3.25 33.8C2.1749 33.8 1.3 32.9251 1.3 31.85V30.55H5.85C6.20945 30.55 6.5 30.2588 6.5 29.9V26.65V23.4V20.15V16.9C6.5 16.5412 6.20945 16.25 5.85 16.25H1.3V13H23.4V16.25H9.75C9.39055 16.25 9.1 16.5412 9.1 16.9V24.3087C9.1 27.703 10.4097 30.9835 12.7634 33.8H3.25ZM19.5 37.6103C13.795 34.4591 10.4 29.508 10.4 24.3087V17.55H28.6V22.75H27.3V19.5C27.3 19.1412 27.0095 18.85 26.65 18.85H12.35C11.9906 18.85 11.7 19.1412 11.7 19.5V23.0555C11.7 28.3172 14.5698 33.1513 19.1887 35.6707C19.2855 35.7233 19.3928 35.75 19.5 35.75C19.6073 35.75 19.7145 35.7233 19.8114 35.6707C22.1845 34.3765 24.0916 32.4681 25.389 30.2081L26.4693 31.2884C24.9048 33.748 22.5336 35.9352 19.5 37.6103ZM19.5 22.75C19.2374 22.75 18.9995 22.9086 18.8994 23.151C18.7987 23.3941 18.8546 23.6736 19.0405 23.8596L24.4322 29.2513C23.3064 31.341 21.6203 33.122 19.5 34.3545C15.4811 32.019 13 27.7225 13 23.0562V20.15H26V22.75H19.5ZM25.9591 24.05C25.8544 25.426 25.5359 26.7592 25.0257 28.0059L21.0691 24.05H25.9591ZM27.1427 30.1229L26.0104 28.9907C26.7098 27.4495 27.146 25.7816 27.2656 24.0493H28.6V24.3087C28.6 26.3139 28.0904 28.2808 27.1427 30.1229Z" fill="#1B4CC8"/>
<path d="M33.8 22.75H32.5V24.05H33.8V22.75Z" fill="#1B4CC8"/>
<path d="M36.4001 22.75H35.1001V24.05H36.4001V22.75Z" fill="#1B4CC8"/>
<path d="M39 22.75H37.7V24.05H39V22.75Z" fill="#1B4CC8"/>
<path d="M36.4001 5.19995H35.1001V6.49995H36.4001V5.19995Z" fill="#1B4CC8"/>
<path d="M39 5.19995H37.7V6.49995H39V5.19995Z" fill="#1B4CC8"/>
<path d="M37.7001 11.7H30.1692L31.6597 10.2095L30.7406 9.29041L28.1406 11.8904C27.8864 12.1446 27.8864 12.5554 28.1406 12.8095L30.7406 15.4095L31.6597 14.4904L30.1692 13H37.7001V11.7Z" fill="#1B4CC8"/>
<path d="M39.0001 17.5501H33.4192L34.9097 16.0596L33.9906 15.1405L31.3906 17.7405C31.1364 17.9947 31.1364 18.4055 31.3906 18.6596L33.9906 21.2596L34.9097 20.3405L33.4192 18.8501H39.0001V17.5501Z" fill="#1B4CC8"/>
<path d="M33.8 5.19996H26.2691L27.7595 3.70951L26.8404 2.79041L24.2404 5.39041C23.9863 5.64456 23.9863 6.05536 24.2404 6.30951L26.8404 8.90951L27.7595 7.99041L26.2691 6.49996H33.8V5.19996Z" fill="#1B4CC8"/>
</g>
<defs>
<clipPath id="clip0">
<rect width="39" height="39" fill="white"/>
</clipPath>
</defs>
</svg>
