<svg width="39" height="39" viewBox="0 0 39 39" fill="none" xmlns="http://www.w3.org/2000/svg">
<path d="M38.371 0H0.629032C0.281649 0 0 0.281649 0 0.629032V38.371C0 38.7183 0.281649 39 0.629032 39H38.371C38.7183 39 39 38.7183 39 38.371V0.629032C39 0.281649 38.7183 0 38.371 0ZM13.8387 1.25806H25.1613V12.5806H20.129V6.91935C20.129 6.57197 19.8474 6.29032 19.5 6.29032H13.8387V1.25806ZM25.1613 13.8387V18.871H19.5C19.1526 18.871 18.871 19.1526 18.871 19.5V25.1613H7.54839V20.129H13.2097C13.5571 20.129 13.8387 19.8474 13.8387 19.5V13.8387H25.1613ZM1.25806 1.25806H12.5806V6.91935C12.5806 7.26674 12.8623 7.54839 13.2097 7.54839H18.871V12.5806H7.54839V6.91935C7.54839 6.57197 7.26674 6.29032 6.91935 6.29032H1.25806V1.25806ZM1.25806 7.54839H6.29032V13.2097C6.29032 13.5571 6.57197 13.8387 6.91935 13.8387H12.5806V18.871H6.91935C6.57197 18.871 6.29032 19.1526 6.29032 19.5V25.1613H1.25806V7.54839ZM12.5806 37.7419H1.25806V26.4194H6.29032V32.0806C6.29032 32.428 6.57197 32.7097 6.91935 32.7097H12.5806V37.7419ZM18.871 32.0806V37.7419H13.8387V32.0806C13.8387 31.7333 13.5571 31.4516 13.2097 31.4516H7.54839V26.4194H25.1613V31.4516H19.5C19.1526 31.4516 18.871 31.7333 18.871 32.0806ZM37.7419 37.7419H20.129V32.7097H37.7419V37.7419ZM37.7419 31.4516H26.4194V25.7903C26.4194 25.4429 26.1377 25.1613 25.7903 25.1613H20.129V20.129H31.4516V25.7903C31.4516 26.1377 31.7333 26.4194 32.0806 26.4194H37.7419V31.4516ZM37.7419 25.1613H32.7097V7.54839H37.7419V25.1613ZM37.7419 6.29032H32.0806C31.7333 6.29032 31.4516 6.57197 31.4516 6.91935V18.871H26.4194V1.25806H37.7419V6.29032Z" fill="#1B4CC8"/>
<path d="M36.4839 35.2258H35.2258V36.4839H36.4839V35.2258Z" fill="#1B4CC8"/>
<path d="M33.9678 35.2258H32.7097V36.4839H33.9678V35.2258Z" fill="#1B4CC8"/>
<path d="M31.4517 35.2258H30.1936V36.4839H31.4517V35.2258Z" fill="#1B4CC8"/>
</svg>
