<svg width="39" height="39" viewBox="0 0 39 39" fill="none" xmlns="http://www.w3.org/2000/svg">
<path d="M19.3141 20.3228C19.3129 20.3215 19.3116 20.3203 19.3104 20.3191L17.8155 18.8306C17.929 18.5587 17.9886 18.2674 17.991 17.9727C17.9897 17.6942 17.9435 17.4176 17.8545 17.1537L16.6195 17.5567C16.6648 17.6909 16.6889 17.8312 16.691 17.9727C16.6881 18.0606 16.675 18.1478 16.652 18.2327C16.5733 18.2656 16.5008 18.3117 16.4376 18.3692L12.7328 22.0805H9.39846C10.8392 20.4794 10.7093 18.0137 9.10825 16.573C7.50723 15.1323 5.04152 15.2622 3.60079 16.8632C2.26618 18.3463 2.26618 20.5974 3.60079 22.0805H3.24981C1.45502 22.0805 0 23.5355 0 25.3303V29.88C0 30.2389 0.291021 30.53 0.649963 30.53H2.59985V38.3295C2.59985 38.6885 2.89087 38.9795 3.24981 38.9795H9.74944C10.1084 38.9795 10.3994 38.6885 10.3994 38.3295V25.9802H14.2992C14.4719 25.9812 14.638 25.9134 14.7606 25.7917L19.3104 21.242C19.5653 20.9892 19.567 20.5776 19.3141 20.3228ZM6.49963 16.8807C7.93547 16.8807 9.09948 18.0447 9.09948 19.4805C9.09948 20.9164 7.93547 22.0804 6.49963 22.0804C5.06378 22.0804 3.89978 20.9164 3.89978 19.4805C3.89978 18.0447 5.06378 16.8807 6.49963 16.8807ZM14.0327 24.6802H9.74944C9.3905 24.6802 9.09948 24.9712 9.09948 25.3302V37.6795H7.14959V30.5299H5.84966V37.6795H3.89978V25.3302H2.59985V29.23H1.29993V25.3302C1.29993 24.2533 2.17291 23.3803 3.24981 23.3803H12.9993C13.172 23.3813 13.338 23.3134 13.4607 23.1918L16.899 19.747L17.9325 20.7805L14.0327 24.6802Z" fill="#1B4CC8"/>
<path d="M38.9196 0.209119L38.8481 0.137623C38.8155 0.107887 38.7781 0.0837574 38.7376 0.0661272L38.6531 0.0206299H38.5231H38.3867L14.3381 1.97052C14.0853 1.99026 13.8671 2.15519 13.7791 2.39299C13.6893 2.6321 13.7478 2.90159 13.9286 3.08195L18.8488 8.04766V14.9308C18.8385 15.2329 19.0378 15.5023 19.3298 15.5807H19.4988C19.6262 15.5797 19.7505 15.5413 19.8563 15.4702L23.2751 13.1954L26.1154 17.2511C26.2366 17.4259 26.4357 17.5303 26.6484 17.5306C26.8576 17.5296 27.0535 17.4281 27.1748 17.2576L38.8741 1.00857C38.8953 0.973637 38.9127 0.93667 38.9261 0.898079C38.9563 0.858593 38.9805 0.814802 38.9976 0.768086C38.9976 0.729089 38.9976 0.690091 38.9976 0.651093C39.0007 0.612177 39.0007 0.573016 38.9976 0.5341C38.9976 0.5341 38.9976 0.5341 38.9976 0.488603C38.9976 0.443105 38.9976 0.443105 38.9976 0.417107C39.0005 0.393383 39.0005 0.369334 38.9976 0.345611V0.313113C38.9776 0.27444 38.9511 0.239261 38.9196 0.209119ZM19.6288 7.04672L15.729 3.14695L33.7979 1.65203L28.1303 3.79691L19.6288 7.04672ZM20.1487 8.22965L31.7635 3.82291L21.7671 9.82206C21.6703 9.87852 21.5896 9.9592 21.5332 10.056L20.1487 12.4804V8.22965ZM21.4487 12.8639L22.1766 11.5965L22.5471 12.1294L21.4487 12.8639ZM26.6484 15.7562L23.0216 10.5565L35.9688 2.75697L26.6484 15.7562Z" fill="#1B4CC8"/>
<path d="M13.3371 4.62891C12.9404 4.88036 12.5645 5.16285 12.2126 5.47386L13.0381 6.4813C13.3364 6.2101 13.6535 5.96035 13.987 5.73384L13.3371 4.62891Z" fill="#1B4CC8"/>
<path d="M16.7236 15.5676C16.4119 15.3303 16.0711 15.1338 15.7097 14.9827L15.1897 16.1721C15.4534 16.284 15.7024 16.428 15.9307 16.6011C15.9892 16.641 16.0437 16.6868 16.0931 16.7376L16.9966 15.8016C16.9102 15.7183 16.8191 15.6402 16.7236 15.5676Z" fill="#1B4CC8"/>
<path d="M13.7401 14.3393L13.1941 14.1638L12.7651 15.3922L13.3761 15.5872L14.0261 15.7757L14.39 14.5278L13.7401 14.3393Z" fill="#1B4CC8"/>
<path d="M11.1987 13.1108L11.1337 13.0588L10.2822 14.0403L10.3732 14.1183C10.716 14.4008 11.0887 14.6449 11.4847 14.8462L12.0826 13.6958C11.7693 13.5305 11.4732 13.3346 11.1987 13.1108Z" fill="#1B4CC8"/>
<path d="M10.0353 11.252L8.73535 11.4469C8.81554 11.9615 8.99907 12.4545 9.27482 12.8964L10.3992 12.2269C10.2125 11.9303 10.0886 11.5985 10.0353 11.252Z" fill="#1B4CC8"/>
<path d="M11.1858 6.40332C10.8933 6.6958 10.6334 6.98829 10.4319 7.23527L10.2759 7.43026L11.2963 8.23621L11.4588 8.05422C11.6408 7.83324 11.8683 7.57975 12.1088 7.31327L11.1858 6.40332Z" fill="#1B4CC8"/>
<path d="M9.48923 8.57422C9.22713 8.9906 9.02369 9.44119 8.88477 9.91314L10.1327 10.2706C10.2406 9.90225 10.398 9.55022 10.6007 9.22418L9.48923 8.57422Z" fill="#1B4CC8"/>
<path d="M31.1981 19.4805H29.8982V20.7804H31.1981V19.4805Z" fill="#1B4CC8"/>
<path d="M28.5983 22.0804H27.2983V23.3804H28.5983V22.0804Z" fill="#1B4CC8"/>
<path d="M25.9984 24.6803H24.6985V25.9802H25.9984V24.6803Z" fill="#1B4CC8"/>
<path d="M28.5983 24.6803H27.2983V25.9802H28.5983V24.6803Z" fill="#1B4CC8"/>
<path d="M28.5983 27.2802H27.2983V28.5801H28.5983V27.2802Z" fill="#1B4CC8"/>
<path d="M25.9984 27.2802H24.6985V28.5801H25.9984V27.2802Z" fill="#1B4CC8"/>
<path d="M23.3986 27.2802H22.0986V28.5801H23.3986V27.2802Z" fill="#1B4CC8"/>
<path d="M28.5983 29.88H27.2983V31.1799H28.5983V29.88Z" fill="#1B4CC8"/>
<path d="M28.5983 32.4797H27.2983V33.7797H28.5983V32.4797Z" fill="#1B4CC8"/>
<path d="M28.5983 35.0796H27.2983V36.3795H28.5983V35.0796Z" fill="#1B4CC8"/>
<path d="M28.5983 37.6794H27.2983V38.9794H28.5983V37.6794Z" fill="#1B4CC8"/>
<path d="M31.1981 24.6803H29.8982V25.9802H31.1981V24.6803Z" fill="#1B4CC8"/>
<path d="M31.1981 27.2802H29.8982V28.5801H31.1981V27.2802Z" fill="#1B4CC8"/>
<path d="M31.1981 29.88H29.8982V31.1799H31.1981V29.88Z" fill="#1B4CC8"/>
<path d="M31.1981 32.4797H29.8982V33.7797H31.1981V32.4797Z" fill="#1B4CC8"/>
<path d="M31.1981 35.0796H29.8982V36.3795H31.1981V35.0796Z" fill="#1B4CC8"/>
<path d="M31.1981 37.6794H29.8982V38.9794H31.1981V37.6794Z" fill="#1B4CC8"/>
<path d="M33.798 24.6803H32.498V25.9802H33.798V24.6803Z" fill="#1B4CC8"/>
<path d="M33.798 27.2802H32.498V28.5801H33.798V27.2802Z" fill="#1B4CC8"/>
<path d="M36.3978 27.2802H35.0979V28.5801H36.3978V27.2802Z" fill="#1B4CC8"/>
<path d="M38.9977 27.2802H37.6978V28.5801H38.9977V27.2802Z" fill="#1B4CC8"/>
<path d="M33.798 29.88H32.498V31.1799H33.798V29.88Z" fill="#1B4CC8"/>
<path d="M33.798 32.4797H32.498V33.7797H33.798V32.4797Z" fill="#1B4CC8"/>
<path d="M33.798 35.0796H32.498V36.3795H33.798V35.0796Z" fill="#1B4CC8"/>
<path d="M33.798 37.6794H32.498V38.9794H33.798V37.6794Z" fill="#1B4CC8"/>
<path d="M36.3978 24.6803H35.0979V25.9802H36.3978V24.6803Z" fill="#1B4CC8"/>
<path d="M31.1981 22.0804H29.8982V23.3804H31.1981V22.0804Z" fill="#1B4CC8"/>
<path d="M33.798 22.0804H32.498V23.3804H33.798V22.0804Z" fill="#1B4CC8"/>
</svg>
