<svg width="39" height="39" viewBox="0 0 39 39" fill="none" xmlns="http://www.w3.org/2000/svg">
<path d="M34.6515 33.8C35.7039 33.1006 36.4 31.9059 36.4 30.55C36.4 28.3991 34.6509 26.65 32.5 26.65C31.1441 26.65 29.9494 27.3461 29.25 28.3985C28.7859 27.7004 28.1028 27.1622 27.3 26.8775V24.7H28.6V23.4H27.3V19.5H28.6V18.2H26.65H24.7H19.9667C20.0077 18.1668 20.0545 18.1434 20.0941 18.1083L23.8323 14.7855C23.9662 14.6666 24.0448 14.4982 24.05 14.3188C24.0552 14.1401 23.9863 13.9665 23.8602 13.8404L21.9102 11.8904C21.6762 11.6564 21.3025 11.635 21.0444 11.8423L18.3183 14.0231L15.6 10.3993C14.9897 9.58553 14.0173 9.09998 13 9.09998H5.85C4.05795 9.09998 2.6 10.5579 2.6 12.35V16.25C2.6 16.9845 2.85415 17.6553 3.2669 18.2H0.65C0.2912 18.2 0 18.4905 0 18.85V33.8H1.3V24.7H26V26.65C24.6441 26.65 23.4494 27.3461 22.75 28.3985C22.0506 27.3455 20.8559 26.65 19.5 26.65C18.1441 26.65 16.9494 27.3461 16.25 28.3985C15.5506 27.3455 14.3559 26.65 13 26.65C11.6441 26.65 10.4494 27.3461 9.75 28.3985C9.0506 27.3455 7.8559 26.65 6.5 26.65C4.34915 26.65 2.6 28.3991 2.6 30.55C2.6 31.9059 3.29615 33.1006 4.3485 33.8C3.29615 34.4994 2.6 35.6941 2.6 37.05V39H3.9V37.05C3.9 35.6161 5.0661 34.45 6.5 34.45C7.9339 34.45 9.1 35.6161 9.1 37.05V39H10.4V37.05C10.4 35.6161 11.5661 34.45 13 34.45C14.4339 34.45 15.6 35.6161 15.6 37.05V39H16.9V37.05C16.9 35.6161 18.0661 34.45 19.5 34.45C20.9339 34.45 22.1 35.6161 22.1 37.05V39H23.4V37.05C23.4 35.6161 24.5661 34.45 26 34.45C27.4339 34.45 28.6 35.6161 28.6 37.05V39H29.9V37.05C29.9 35.6161 31.0661 34.45 32.5 34.45C33.9339 34.45 35.1 35.6161 35.1 37.05V39H36.4V37.05C36.4 35.6941 35.7039 34.4994 34.6515 33.8ZM10.5521 10.4L9.75 11.737L8.9479 10.4H10.5521ZM3.9 12.35C3.9 11.2749 4.7749 10.4 5.85 10.4H7.4321L9.19295 13.3347C9.30995 13.5297 9.52185 13.65 9.75 13.65C9.97815 13.65 10.1901 13.5297 10.3071 13.3347L12.0679 10.4H13C13.6104 10.4 14.1941 10.6912 14.56 11.1793L17.68 15.3393C17.7853 15.4804 17.9433 15.572 18.1181 15.5948C18.293 15.6156 18.4685 15.5675 18.6056 15.4576L21.4013 13.221L22.4523 14.272L19.2296 17.1372C18.8175 17.5032 18.2904 17.6754 17.7392 17.6195C17.1899 17.5643 16.7057 17.2906 16.3742 16.8493L14.17 13.91C14.0023 13.6857 13.7105 13.5934 13.4446 13.6831C13.1788 13.7722 13 14.0198 13 14.3V18.2H10.4V16.25C10.4 15.8905 10.1088 15.6 9.75 15.6H6.5V13H5.2V16.25C5.2 16.6094 5.4912 16.9 5.85 16.9H9.1V18.2H5.85C4.7749 18.2 3.9 17.3251 3.9 16.25V12.35ZM15.901 18.2H14.3V16.25L15.3348 17.6293C15.4973 17.847 15.6923 18.0323 15.901 18.2ZM1.3 23.4V19.5H5.85H9.75H24.7H26V23.4H1.3ZM6.5 33.15C5.0661 33.15 3.9 31.9839 3.9 30.55C3.9 29.1161 5.0661 27.95 6.5 27.95C7.9339 27.95 9.1 29.1161 9.1 30.55C9.1 31.9839 7.9339 33.15 6.5 33.15ZM9.75 34.8985C9.46075 34.463 9.087 34.0892 8.6515 33.8C9.087 33.5107 9.46075 33.137 9.75 32.7015C10.0393 33.137 10.413 33.5107 10.8485 33.8C10.413 34.0892 10.0393 34.463 9.75 34.8985ZM13 33.15C11.5661 33.15 10.4 31.9839 10.4 30.55C10.4 29.1161 11.5661 27.95 13 27.95C14.4339 27.95 15.6 29.1161 15.6 30.55C15.6 31.9839 14.4339 33.15 13 33.15ZM16.25 34.8985C15.9608 34.463 15.587 34.0892 15.1515 33.8C15.587 33.5107 15.9608 33.137 16.25 32.7015C16.5393 33.137 16.913 33.5107 17.3485 33.8C16.913 34.0892 16.5393 34.463 16.25 34.8985ZM19.5 33.15C18.0661 33.15 16.9 31.9839 16.9 30.55C16.9 29.1161 18.0661 27.95 19.5 27.95C20.9339 27.95 22.1 29.1161 22.1 30.55C22.1 31.9839 20.9339 33.15 19.5 33.15ZM22.75 34.8985C22.4608 34.463 22.087 34.0892 21.6515 33.8C22.087 33.5107 22.4608 33.137 22.75 32.7015C23.0393 33.137 23.413 33.5107 23.8485 33.8C23.413 34.0892 23.0393 34.463 22.75 34.8985ZM26 33.15C24.5661 33.15 23.4 31.9839 23.4 30.55C23.4 29.1161 24.5661 27.95 26 27.95C27.4339 27.95 28.6 29.1161 28.6 30.55C28.6 31.9839 27.4339 33.15 26 33.15ZM29.25 34.8985C28.9608 34.463 28.587 34.0892 28.1515 33.8C28.587 33.5107 28.9608 33.137 29.25 32.7015C29.5393 33.137 29.913 33.5107 30.3485 33.8C29.913 34.0892 29.5393 34.463 29.25 34.8985ZM32.5 33.15C31.0661 33.15 29.9 31.9839 29.9 30.55C29.9 29.1161 31.0661 27.95 32.5 27.95C33.9339 27.95 35.1 29.1161 35.1 30.55C35.1 31.9839 33.9339 33.15 32.5 33.15Z" fill="#1B4CC8"/>
<path d="M24.6999 20.8H23.3999V22.1H24.6999V20.8Z" fill="#1B4CC8"/>
<path d="M22.0998 20.8H20.7998V22.1H22.0998V20.8Z" fill="#1B4CC8"/>
<path d="M19.5002 20.8H18.2002V22.1H19.5002V20.8Z" fill="#1B4CC8"/>
<path d="M9.7501 0C7.59925 0 5.8501 1.74915 5.8501 3.9C5.8501 6.05085 7.59925 7.8 9.7501 7.8C11.9009 7.8 13.6501 6.05085 13.6501 3.9C13.6501 1.74915 11.9009 0 9.7501 0ZM9.7501 6.5C8.3162 6.5 7.1501 5.3339 7.1501 3.9C7.1501 2.4661 8.3162 1.3 9.7501 1.3C11.184 1.3 12.3501 2.4661 12.3501 3.9C12.3501 5.3339 11.184 6.5 9.7501 6.5Z" fill="#1B4CC8"/>
<path d="M37.0499 4.55002C36.6398 4.55002 36.2595 4.67872 35.9456 4.89582L31.8265 2.83597C31.8356 2.75797 31.8499 2.68062 31.8499 2.60002C31.8499 1.52492 30.975 0.650024 29.8999 0.650024C28.8248 0.650024 27.9499 1.52492 27.9499 2.60002C27.9499 3.10507 28.1475 3.56137 28.4634 3.90782L26.2827 7.17862C26.1897 7.16497 26.0968 7.15002 25.9999 7.15002C25.2147 7.15002 24.54 7.61932 24.2313 8.29012L20.7837 7.30538C20.7882 7.25273 20.7999 7.20332 20.7999 7.15002C20.7999 6.07492 19.925 5.20002 18.8499 5.20002C17.7748 5.20002 16.8999 6.07492 16.8999 7.15002C16.8999 8.22512 17.7748 9.10003 18.8499 9.10003C19.3985 9.10003 19.8932 8.87057 20.2481 8.50462L24.1273 9.61287C24.3535 10.4384 25.1029 11.05 25.9999 11.05C27.075 11.05 27.9499 10.1751 27.9499 9.10003C27.9499 8.59497 27.7523 8.13867 27.4364 7.79222L29.6172 4.52142C29.7101 4.53507 29.8031 4.55002 29.8999 4.55002C30.4245 4.55002 30.899 4.33942 31.25 4.00142L35.1831 5.96832C35.1344 6.13862 35.0999 6.31477 35.0999 6.50002C35.0999 7.57512 35.9748 8.45002 37.0499 8.45002C38.125 8.45002 38.9999 7.57512 38.9999 6.50002C38.9999 5.42492 38.125 4.55002 37.0499 4.55002ZM18.8499 7.80002C18.4918 7.80002 18.1999 7.50882 18.1999 7.15002C18.1999 6.79122 18.4918 6.50002 18.8499 6.50002C19.2081 6.50002 19.4999 6.79122 19.4999 7.15002C19.4999 7.50882 19.2081 7.80002 18.8499 7.80002ZM25.9999 9.75002C25.6418 9.75002 25.3499 9.45883 25.3499 9.10003C25.3499 8.74123 25.6418 8.45002 25.9999 8.45002C26.3581 8.45002 26.6499 8.74123 26.6499 9.10003C26.6499 9.45883 26.3581 9.75002 25.9999 9.75002ZM29.8999 3.25002C29.5418 3.25002 29.2499 2.95882 29.2499 2.60002C29.2499 2.24122 29.5418 1.95002 29.8999 1.95002C30.2581 1.95002 30.5499 2.24122 30.5499 2.60002C30.5499 2.95882 30.2581 3.25002 29.8999 3.25002ZM37.0499 7.15002C36.6918 7.15002 36.3999 6.85882 36.3999 6.50002C36.3999 6.14122 36.6918 5.85002 37.0499 5.85002C37.4081 5.85002 37.6999 6.14122 37.6999 6.50002C37.6999 6.85882 37.4081 7.15002 37.0499 7.15002Z" fill="#1B4CC8"/>
<path d="M37.6999 10.4H36.3999V11.7H37.6999V10.4Z" fill="#1B4CC8"/>
<path d="M35.1 10.4H33.8V11.7H35.1V10.4Z" fill="#1B4CC8"/>
<path d="M32.5 10.4H31.2V11.7H32.5V10.4Z" fill="#1B4CC8"/>
</svg>
