<svg width="39" height="39" viewBox="0 0 39 39" fill="none" xmlns="http://www.w3.org/2000/svg">
<g clip-path="url(#clip0)">
<path d="M7.1499 26H5.8499C5.8499 27.0751 4.975 27.95 3.8999 27.95V29.25C4.975 29.25 5.8499 30.1249 5.8499 31.2H7.1499C7.1499 30.1249 8.0248 29.25 9.0999 29.25V27.95C8.0248 27.95 7.1499 27.0751 7.1499 26ZM6.4999 29.2701C6.3101 29.0147 6.0852 28.7898 5.82975 28.6C6.0852 28.4102 6.3101 28.1853 6.4999 27.9299C6.6897 28.1853 6.9146 28.4102 7.17005 28.6C6.9146 28.7898 6.6897 29.0147 6.4999 29.2701Z" fill="#1B4CC8"/>
<path d="M37.7001 28.6V11.05C37.7001 4.9569 32.7425 0 26.6481 0H26.3251C20.0532 0 14.9501 5.10315 14.9501 11.375V16.25C14.9501 16.6088 15.2413 16.9 15.6001 16.9H17.5501V18.2C17.5501 18.5588 17.8413 18.85 18.2001 18.85H20.0389C19.7705 19.6066 19.0477 20.15 18.2001 20.15C17.8413 20.15 17.5501 20.4412 17.5501 20.8V21.45C17.5501 23.242 19.008 24.7 20.8001 24.7H27.3001V28.6H18.8501C13.4739 28.6 9.1001 32.9739 9.1001 38.35V39H10.4001V38.35C10.4001 33.6908 14.1909 29.9 18.8501 29.9H27.5731L32.5859 38.6724C32.7022 38.8758 32.918 39 33.1501 39C33.1624 39 33.1748 39 33.1871 38.9993C33.4335 38.9851 33.6499 38.833 33.7474 38.6068L37.4784 29.9H39.0001V28.6H37.7001ZM33.0669 36.894L29.07 29.9H36.064L33.0669 36.894ZM36.4001 28.6H28.6001V24.05C28.6001 23.6912 28.3089 23.4 27.9501 23.4H20.8001C19.725 23.4 18.8501 22.5251 18.8501 21.45V21.3843C20.3314 21.0827 21.4501 19.7691 21.4501 18.2C21.4501 17.8412 21.1589 17.55 20.8001 17.55H18.8501V16.25C18.8501 15.8912 18.5589 15.6 18.2001 15.6H16.2501V11.375C16.2501 5.81945 20.7695 1.3 26.3251 1.3H26.6481C32.0256 1.3 36.4001 5.67385 36.4001 11.05V28.6Z" fill="#1B4CC8"/>
<path d="M16.107 20.3938L13.65 17.3219V10.4C13.65 8.60797 12.1921 7.15002 10.4 7.15002H3.25C1.45795 7.15002 0 8.60797 0 10.4V18.2C0 19.9921 1.45795 21.45 3.25 21.45H15.6C15.8496 21.45 16.0778 21.307 16.1856 21.0815C16.2942 20.8566 16.2637 20.5888 16.107 20.3938ZM3.25 20.15C2.1749 20.15 1.3 19.2751 1.3 18.2V10.4C1.3 9.32492 2.1749 8.45002 3.25 8.45002H10.4C11.4751 8.45002 12.35 9.32492 12.35 10.4V17.55C12.35 17.6976 12.4001 17.8406 12.4924 17.9563L14.2474 20.15H3.25Z" fill="#1B4CC8"/>
<path d="M6.8251 10.4C4.4955 10.4 2.6001 12.1492 2.6001 14.3C2.6001 16.4509 4.4955 18.2 6.8251 18.2C9.1547 18.2 11.0501 16.4509 11.0501 14.3C11.0501 12.1492 9.1547 10.4 6.8251 10.4ZM4.0041 14.95H5.2209C5.2482 15.4128 5.31255 16.018 5.45685 16.5841C4.7451 16.2455 4.21145 15.6592 4.0041 14.95ZM5.2209 13.65H4.0041C4.21145 12.9409 4.7451 12.3546 5.45685 12.0159C5.31255 12.5814 5.2482 13.1872 5.2209 13.65ZM6.8251 16.6134C6.70095 16.2741 6.57485 15.7008 6.5248 14.95H7.1254C7.07535 15.7008 6.94925 16.2741 6.8251 16.6134ZM6.5248 13.65C6.57485 12.8993 6.70095 12.326 6.8251 11.9867C6.94925 12.326 7.07535 12.8993 7.1254 13.65H6.5248ZM8.19335 16.5841C8.33765 16.0186 8.402 15.4128 8.4293 14.95H9.6461C9.43875 15.6592 8.9051 16.2455 8.19335 16.5841ZM8.4293 13.65C8.402 13.1872 8.33765 12.5821 8.19335 12.0159C8.9051 12.3546 9.43875 12.9409 9.6461 13.65H8.4293Z" fill="#1B4CC8"/>
<path d="M24.0501 10.4C24.0501 11.4751 23.1752 12.35 22.1001 12.35C21.025 12.35 20.1501 11.4751 20.1501 10.4H18.8501C18.8501 12.1921 20.308 13.65 22.1001 13.65C23.8921 13.65 25.3501 12.1921 25.3501 10.4H24.0501Z" fill="#1B4CC8"/>
<path d="M26.6501 31.2H25.3501V32.5H26.6501V31.2Z" fill="#1B4CC8"/>
<path d="M24.05 31.2H22.75V32.5H24.05V31.2Z" fill="#1B4CC8"/>
<path d="M21.4499 31.2H20.1499V32.5H21.4499V31.2Z" fill="#1B4CC8"/>
</g>
<defs>
<clipPath id="clip0">
<rect width="39" height="39" fill="white"/>
</clipPath>
</defs>
</svg>
