<svg width="39" height="39" viewBox="0 0 39 39" fill="none" xmlns="http://www.w3.org/2000/svg">
<path d="M4.87701 10.6051C3.82614 10.6051 2.97095 11.4603 2.97095 12.5112C2.97095 13.562 3.82614 14.4172 4.87701 14.4172C5.92789 14.4172 6.78308 13.562 6.78308 12.5112C6.78308 11.4603 5.92789 10.6051 4.87701 10.6051ZM4.87701 13.1465C4.52693 13.1465 4.24166 12.8612 4.24166 12.5112C4.24166 12.1611 4.52693 11.8758 4.87701 11.8758C5.2271 11.8758 5.51237 12.1611 5.51237 12.5112C5.51237 12.8612 5.2271 13.1465 4.87701 13.1465Z" fill="#1B4CC8"/>
<path d="M39 16.1371L38.1016 15.2387L29.0097 24.3306C28.9754 24.2918 28.948 24.248 28.9112 24.2105L23.5653 18.8646L24.3868 18.0431L23.4884 17.1447L21.6021 19.0311C20.5912 20.0413 19.0263 20.1811 17.8617 19.4498L22.4789 14.8689C22.4795 14.8683 22.4795 14.8676 22.4801 14.867L34.5519 2.79524L33.6535 1.89685L22.0316 13.5188L21.2101 12.6973C21.0912 12.5778 20.9292 12.5111 20.7609 12.5111H18.4825L17.3979 11.4265L8.50296 2.53157L7.60456 3.42996L13.5089 9.33432L5.38273 17.4605L0.859 13.3135L0 14.2507L7.41841 21.0503V22.6768C7.41841 22.8451 7.48512 23.0072 7.60456 23.126L10.3525 25.8739C10.1015 26.2125 9.95983 26.6179 9.95983 27.0474C9.95983 28.1173 10.8125 28.9859 11.8729 29.0233C11.9097 30.0602 12.742 30.8926 13.7789 30.9294C13.8158 31.9663 14.6481 32.7986 15.685 32.8355C15.7225 33.8959 16.5917 34.7485 17.661 34.7485C17.931 34.7485 18.1928 34.6932 18.4342 34.591L18.4825 34.6392C18.9622 35.1196 19.6007 35.3839 20.2799 35.3839C20.9591 35.3839 21.597 35.1196 22.0767 34.6392L28.9112 27.8047C29.3915 27.3244 29.6558 26.6865 29.6558 26.0079C29.6558 25.8453 29.6387 25.6852 29.6088 25.5282L39 16.1371ZM6.32051 18.3201L14.4073 10.2327L16.0503 11.8757L8.0347 19.8914L6.32051 18.3201ZM12.4466 27.5512C12.3119 27.6853 12.1334 27.7596 11.9428 27.7596C11.5501 27.7596 11.2305 27.44 11.2305 27.0474C11.2305 26.8568 11.3049 26.6782 11.4389 26.5435L14.462 23.5205C14.5966 23.3865 14.7752 23.3121 14.9658 23.3121C15.3584 23.3121 15.678 23.6317 15.678 24.0244C15.678 24.215 15.6037 24.3935 15.4696 24.5282L12.4466 27.5512ZM14.3527 29.4573C14.218 29.5913 14.0394 29.6657 13.8488 29.6657C13.4562 29.6657 13.1366 29.3461 13.1366 28.9534C13.1366 28.7628 13.2109 28.5843 13.345 28.4496L16.368 25.4266C16.5027 25.2925 16.6812 25.2182 16.8719 25.2182C17.2645 25.2182 17.5841 25.5378 17.5841 25.9304C17.5841 26.121 17.5098 26.2996 17.3757 26.4343L14.3527 29.4573ZM16.2587 31.3633C16.124 31.4974 15.9455 31.5717 15.7549 31.5717C15.3623 31.5717 15.0427 31.2522 15.0427 30.8595C15.0427 30.6689 15.117 30.4904 15.2511 30.3557L18.2741 27.3327C18.4088 27.1986 18.5873 27.1243 18.7779 27.1243C19.1706 27.1243 19.4902 27.4438 19.4902 27.8365C19.4902 28.0271 19.4158 28.2056 19.2818 28.3403L16.2587 31.3633ZM18.1648 33.2694C18.0301 33.4035 17.8516 33.4778 17.661 33.4778C17.2683 33.4778 16.9487 33.1582 16.9487 32.7656C16.9487 32.575 17.0231 32.3964 17.1571 32.2617L20.1801 29.2387C20.3148 29.1047 20.4934 29.0303 20.684 29.0303C21.0766 29.0303 21.3962 29.3499 21.3962 29.7426C21.3962 29.9332 21.3219 30.1117 21.1878 30.2464L18.1648 33.2694ZM28.0128 26.9063L21.1783 33.7408C20.7164 34.2028 19.9285 34.2155 19.4419 33.7898L22.0868 31.1448C22.4604 30.7706 22.6669 30.2724 22.6669 29.7426C22.6669 28.6726 21.8143 27.8041 20.7539 27.7666C20.717 26.7297 19.8847 25.8974 18.8478 25.8605C18.811 24.8236 17.9786 23.9913 16.9417 23.9545C16.9043 22.8941 16.0351 22.0414 14.9658 22.0414C14.4359 22.0414 13.9378 22.2479 13.5636 22.6221L11.2305 24.9552L8.68912 22.4137V21.0337L16.9487 12.7741L17.7702 13.5956C17.8891 13.7151 18.0511 13.7818 18.2194 13.7818H20.4978L21.1313 14.4153L16.4614 19.0489C16.3413 19.1683 16.2733 19.3316 16.274 19.5013C16.2746 19.6709 16.3426 19.8336 16.4633 19.9524C18.1337 21.5979 20.8428 21.5878 22.5005 19.9289L22.6669 19.763L28.0128 25.1089C28.253 25.3491 28.3851 25.668 28.3851 26.0079C28.3851 26.3479 28.253 26.6662 28.0128 26.9063Z" fill="#1B4CC8"/>
<path d="M4.43048 27.7208L3.31543 28.3308C3.52446 28.7126 3.75065 29.0932 3.98764 29.4611L5.0563 28.7736C4.8352 28.4305 4.6249 28.0766 4.43048 27.7208Z" fill="#1B4CC8"/>
<path d="M13.4962 35.5782L13.0508 36.7683C13.458 36.9207 13.878 37.0605 14.2999 37.1838L14.657 35.9645C14.2649 35.8495 13.8748 35.7199 13.4962 35.5782Z" fill="#1B4CC8"/>
<path d="M9.20886 33.2332L8.4458 34.2497C8.79524 34.5121 9.1593 34.765 9.52654 35.0013L10.214 33.9327C9.87217 33.7122 9.53352 33.4771 9.20886 33.2332Z" fill="#1B4CC8"/>
<path d="M11.2681 34.5598L10.6582 35.6742C11.0407 35.8833 11.4365 36.0821 11.8349 36.2645L12.3641 35.1094C11.9931 34.9391 11.6246 34.7542 11.2681 34.5598Z" fill="#1B4CC8"/>
<path d="M7.35801 31.6283L6.45898 32.5261C6.76777 32.8355 7.0918 33.1373 7.42155 33.4232L8.2545 32.4632C7.94699 32.1969 7.64583 31.9155 7.35801 31.6283Z" fill="#1B4CC8"/>
<path d="M5.75387 29.7781L4.7373 30.5405C5.00034 30.8912 5.27799 31.2356 5.56263 31.5641L6.52266 30.7311C6.25835 30.4255 5.99976 30.1046 5.75387 29.7781Z" fill="#1B4CC8"/>
<path d="M2.37886 20.7269L1.11133 20.8171C1.14183 21.2524 1.18884 21.692 1.25047 22.1247L2.50847 21.9455C2.45129 21.5421 2.40745 21.1323 2.37886 20.7269Z" fill="#1B4CC8"/>
<path d="M1.11132 18.1874C1.08019 18.6194 1.06494 19.061 1.06494 19.5V19.5019L2.33565 19.5C2.33565 19.0909 2.35026 18.6791 2.37886 18.2776L1.11132 18.1874Z" fill="#1B4CC8"/>
<path d="M2.72439 23.1495L1.48291 23.4196C1.57567 23.8472 1.68495 24.276 1.80758 24.6941L3.02682 24.337C2.91309 23.9475 2.81144 23.5479 2.72439 23.1495Z" fill="#1B4CC8"/>
<path d="M3.41331 25.4978L2.22266 25.9426C2.37514 26.3504 2.54415 26.759 2.72586 27.1561L3.88157 26.6281C3.71257 26.2577 3.555 25.8777 3.41331 25.4978Z" fill="#1B4CC8"/>
<path d="M35.0988 26.6274C34.9285 26.9985 34.7436 27.367 34.5486 27.7234L35.6636 28.3334C35.8727 27.9509 36.0715 27.5551 36.2539 27.1567L35.0988 26.6274Z" fill="#1B4CC8"/>
<path d="M33.9228 28.7769C33.7017 29.1199 33.466 29.458 33.2227 29.7826L34.2392 30.5457C34.501 30.1975 34.7539 29.8335 34.9915 29.4649L33.9228 28.7769Z" fill="#1B4CC8"/>
<path d="M32.4525 30.7356C32.1863 31.0431 31.9055 31.3449 31.6177 31.6321L32.5154 32.5311C32.8249 32.2223 33.1266 31.8983 33.4126 31.5685L32.4525 30.7356Z" fill="#1B4CC8"/>
<path d="M35.9547 24.3337C35.8397 24.7245 35.71 25.1152 35.5684 25.4952L36.7584 25.9399C36.9115 25.5314 37.0506 25.1108 37.1739 24.6908L35.9547 24.3337Z" fill="#1B4CC8"/>
<path d="M36.4725 21.9423C36.4147 22.3463 36.3416 22.7517 36.2559 23.1475L37.498 23.4163C37.5901 22.9912 37.6683 22.556 37.7299 22.1214L36.4725 21.9423Z" fill="#1B4CC8"/>
<path d="M30.7205 32.4677C30.4143 32.7332 30.0934 32.9918 29.7668 33.2371L30.5293 34.2536C30.8793 33.9912 31.2237 33.7136 31.5528 33.4283L30.7205 32.4677Z" fill="#1B4CC8"/>
<path d="M15.8437 36.267L15.575 37.5085C16 37.6006 16.4352 37.6787 16.8698 37.7404L17.049 36.483C16.6449 36.4252 16.2395 36.3521 15.8437 36.267Z" fill="#1B4CC8"/>
<path d="M36.6446 19.5C36.6446 19.9085 36.6306 20.3209 36.6021 20.7243L37.8696 20.8139C37.9001 20.38 37.9153 19.9378 37.9153 19.5H36.6446Z" fill="#1B4CC8"/>
<path d="M21.9342 36.4818C21.5314 36.539 21.1216 36.5828 20.7156 36.6114L20.8058 37.879C21.241 37.8485 21.6807 37.8014 22.1134 37.7398L21.9342 36.4818Z" fill="#1B4CC8"/>
<path d="M19.4904 36.6546C19.0818 36.6546 18.6708 36.6407 18.2673 36.6121L18.1777 37.8796C18.611 37.9101 19.0533 37.9253 19.491 37.9253L19.4904 36.6546Z" fill="#1B4CC8"/>
<path d="M28.7624 33.9353C28.4218 34.1545 28.0679 34.3648 27.7102 34.5605L28.3201 35.6755C28.7039 35.4652 29.0838 35.2397 29.4498 35.004L28.7624 33.9353Z" fill="#1B4CC8"/>
<path d="M26.617 35.1088C26.2466 35.2778 25.8666 35.436 25.4873 35.577L25.9314 36.7677C26.3393 36.6152 26.7478 36.4462 27.1449 36.2645L26.617 35.1088Z" fill="#1B4CC8"/>
<path d="M24.3259 35.964C23.9364 36.0777 23.5374 36.1794 23.1384 36.2664L23.4085 37.5079C23.836 37.4151 24.2649 37.3059 24.683 37.1832L24.3259 35.964Z" fill="#1B4CC8"/>
<path d="M26.9015 2.68591L26.3418 3.82701C26.6944 3.99983 27.0572 4.19488 27.42 4.40645L28.0604 3.30856C27.671 3.08174 27.2809 2.87207 26.9015 2.68591Z" fill="#1B4CC8"/>
<path d="M19.4902 1.07471L19.2246 1.07661L19.243 2.34732L19.4902 2.34542C19.8257 2.34542 20.1535 2.35304 20.4737 2.36829L20.5334 1.09885C20.1935 1.08297 19.8466 1.07471 19.4902 1.07471Z" fill="#1B4CC8"/>
<path d="M24.4358 1.72461L24.0793 2.94449C24.4637 3.05695 24.85 3.18847 25.2274 3.33587L25.6906 2.15284C25.2783 1.99146 24.8564 1.84787 24.4358 1.72461Z" fill="#1B4CC8"/>
<path d="M21.843 1.20496L21.6956 2.46677C22.106 2.51506 22.5114 2.57859 22.9002 2.65611L23.148 1.40954C22.7267 1.32567 22.2877 1.25706 21.843 1.20496Z" fill="#1B4CC8"/>
<path d="M12.8004 2.32642C12.3932 2.48525 11.9872 2.66061 11.5933 2.84804L12.1378 3.99613C12.505 3.82204 12.8837 3.65812 13.263 3.51008L12.8004 2.32642Z" fill="#1B4CC8"/>
<path d="M15.3133 1.55054C14.887 1.64965 14.4594 1.76465 14.0432 1.89363L14.4187 3.10779C14.8056 2.98771 15.2034 2.88033 15.6005 2.78821L15.3133 1.55054Z" fill="#1B4CC8"/>
<path d="M17.9113 1.14136C17.4748 1.17884 17.0351 1.23158 16.605 1.29956L16.8032 2.55502C17.2028 2.49149 17.612 2.44193 18.0186 2.40762L17.9113 1.14136Z" fill="#1B4CC8"/>
</svg>
