<svg width="39" height="39" viewBox="0 0 39 39" fill="none" xmlns="http://www.w3.org/2000/svg">
<path d="M38.35 21.45H31.85C31.4912 21.45 31.2 21.7405 31.2 22.1V22.75H26.1371C25.493 22.75 24.8696 22.9385 24.3347 23.296L19.303 26.65H14.1232C13.2022 26.65 12.3468 27.1076 11.8345 27.8759C11.399 28.5304 11.2749 29.3338 11.4647 30.08L3.45085 27.5749C2.9107 27.3721 2.3114 27.3604 1.729 27.5554C0.69485 27.8999 0 28.8639 0 29.9552C0 30.9731 0.6058 31.8877 1.54375 32.2835L15.7189 38.2811C16.8467 38.7582 18.0394 39 19.264 39H19.4291C20.4081 39 21.3766 38.8433 22.319 38.5287L31.2 35.371V36.4C31.2 36.7594 31.4912 37.05 31.85 37.05H38.35C38.7088 37.05 39 36.7594 39 36.4V22.1C39 21.7405 38.7088 21.45 38.35 21.45ZM31.2 33.991L21.8959 37.2996C21.0977 37.5654 20.2683 37.7 19.4291 37.7H19.264C18.2149 37.7 17.1918 37.4926 16.2253 37.0837L2.0501 31.0862C1.59445 30.8932 1.3 30.4492 1.3 29.9539C1.3 29.4242 1.638 28.9555 2.17425 28.7768C2.4401 28.6884 2.7313 28.6929 3.02835 28.8034L12.3916 31.731C12.4 31.7395 12.4111 31.7453 12.4202 31.7538C12.6652 31.9839 12.9473 32.1678 13.258 32.2939C13.271 32.2991 13.284 32.303 13.297 32.3082C13.4316 32.3609 13.5707 32.4012 13.7137 32.4324C13.7475 32.4395 13.7806 32.4473 13.8151 32.4538C13.973 32.4811 14.1329 32.5 14.2974 32.5H24.05V31.2H14.2974C14.1752 31.2 14.0575 31.1792 13.9431 31.1506C13.9015 31.1402 13.8612 31.1252 13.8209 31.1109C13.7501 31.0862 13.6812 31.0556 13.6156 31.0205C13.5739 30.9978 13.5317 30.9764 13.492 30.9497C13.4179 30.8997 13.3497 30.8418 13.2853 30.7788C13.2658 30.7593 13.2424 30.7443 13.2236 30.7235C13.1371 30.6273 13.0611 30.5194 13.0013 30.3992L12.8264 30.0495C12.5944 29.5854 12.6288 29.029 12.9174 28.5961C13.1872 28.1911 13.6376 27.95 14.1238 27.95H19.5C19.628 27.95 19.7542 27.9116 19.8608 27.8408L25.0562 24.3776C25.3766 24.1631 25.7504 24.05 26.1371 24.05H31.2V33.991ZM37.7 35.75H32.5V22.75H37.7V35.75Z" fill="#1B4CC8"/>
<path d="M33.8 12.35C32.3661 12.35 31.2 13.5161 31.2 14.95C31.2 16.3839 32.3661 17.55 33.8 17.55C35.2339 17.55 36.4 16.3839 36.4 14.95C36.4 13.5161 35.2339 12.35 33.8 12.35ZM33.8 16.25C33.083 16.25 32.5 15.6669 32.5 14.95C32.5 14.233 33.083 13.65 33.8 13.65C34.5169 13.65 35.1 14.233 35.1 14.95C35.1 15.6669 34.5169 16.25 33.8 16.25Z" fill="#1B4CC8"/>
<path d="M24.7001 3.25C23.2662 3.25 22.1001 4.4161 22.1001 5.85C22.1001 7.2839 23.2662 8.45 24.7001 8.45C26.134 8.45 27.3001 7.2839 27.3001 5.85C27.3001 4.4161 26.134 3.25 24.7001 3.25ZM24.7001 7.15C23.9831 7.15 23.4001 6.56695 23.4001 5.85C23.4001 5.13305 23.9831 4.55 24.7001 4.55C25.417 4.55 26.0001 5.13305 26.0001 5.85C26.0001 6.56695 25.417 7.15 24.7001 7.15Z" fill="#1B4CC8"/>
<path d="M35.2878 3.44264L22.29 16.4404L23.2093 17.3597L36.207 4.36187L35.2878 3.44264Z" fill="#1B4CC8"/>
<path d="M10.4 0C4.6657 0 0 4.6657 0 10.4C0 16.1343 4.6657 20.8 10.4 20.8C16.1343 20.8 20.8 16.1343 20.8 10.4C20.8 4.6657 16.1343 0 10.4 0ZM10.4 19.5C5.382 19.5 1.3 15.418 1.3 10.4C1.3 5.382 5.382 1.3 10.4 1.3C15.418 1.3 19.5 5.382 19.5 10.4C19.5 15.418 15.418 19.5 10.4 19.5Z" fill="#1B4CC8"/>
<path d="M14.0563 12.4923L11.05 10.0873V5.29228C12.168 5.58283 13 6.59163 13 7.79998H14.3C14.3 5.87143 12.8915 4.26983 11.05 3.95848V2.59998H9.75V3.95848C7.90855 4.26918 6.5 5.87078 6.5 7.79998C6.5 7.99758 6.5897 8.18413 6.74375 8.30763L9.75 10.7126V15.5077C8.632 15.2171 7.8 14.2083 7.8 13H6.5C6.5 14.9285 7.90855 16.5301 9.75 16.8415V18.2H11.05V16.8415C12.8915 16.5308 14.3 14.9292 14.3 13C14.3 12.8024 14.2103 12.6158 14.0563 12.4923ZM9.75 9.04733L7.8169 7.50098C7.9404 6.42718 8.72495 5.55878 9.75 5.29293V9.04733ZM11.05 15.507V11.7526L12.9831 13.299C12.8596 14.3728 12.0751 15.2412 11.05 15.507Z" fill="#1B4CC8"/>
<path d="M3.9001 20.15H2.6001V21.45H3.9001V20.15Z" fill="#1B4CC8"/>
<path d="M3.9001 22.75H2.6001V25.35H3.9001V22.75Z" fill="#1B4CC8"/>
<path d="M18.1999 20.15H16.8999V21.45H18.1999V20.15Z" fill="#1B4CC8"/>
<path d="M18.1999 22.75H16.8999V25.35H18.1999V22.75Z" fill="#1B4CC8"/>
<path d="M11.05 22.1H9.75V23.4H11.05V22.1Z" fill="#1B4CC8"/>
<path d="M11.05 24.7H9.75V26.65H11.05V24.7Z" fill="#1B4CC8"/>
</svg>
