<svg width="39" height="39" viewBox="0 0 39 39" fill="none" xmlns="http://www.w3.org/2000/svg">
<g clip-path="url(#clip0)">
<path d="M16.25 22.1H9.399C10.8398 20.4989 10.7099 18.033 9.10878 16.5922C7.50766 15.1514 5.04181 15.2813 3.601 16.8825C2.26631 18.3656 2.26631 20.6169 3.601 22.1H3.25C1.45511 22.1 0 23.5551 0 25.35V29.9C0 30.259 0.291037 30.55 0.65 30.55H2.6V38.35C2.6 38.709 2.89104 39 3.25 39H9.75C10.109 39 10.4 38.709 10.4 38.35V26H16.25C16.609 26 16.9 25.709 16.9 25.35V22.75C16.9 22.391 16.609 22.1 16.25 22.1ZM6.5 16.9C7.93593 16.9 9.1 18.0641 9.1 19.5C9.1 20.9359 7.93593 22.1 6.5 22.1C5.06407 22.1 3.9 20.9359 3.9 19.5C3.9 18.0641 5.06407 16.9 6.5 16.9ZM15.6 24.7H9.75C9.39104 24.7 9.1 24.991 9.1 25.35V37.7H7.15V30.55H5.85V37.7H3.9V25.35H2.6V29.25H1.3V25.35C1.3 24.273 2.17303 23.4 3.25 23.4H15.6V24.7Z" fill="#1B4CC8"/>
<path d="M35.75 22.1H35.399C36.8398 20.4989 36.7099 18.033 35.1088 16.5922C33.5077 15.1514 31.0418 15.2813 29.601 16.8825C28.2663 18.3656 28.2663 20.6169 29.601 22.1H29.25C27.4551 22.1 26 23.5551 26 25.35V29.9C26 30.259 26.291 30.55 26.65 30.55H28.6V38.35C28.6 38.709 28.891 39 29.25 39H35.75C36.109 39 36.4 38.709 36.4 38.35V30.55H38.35C38.709 30.55 39 30.259 39 29.9V25.35C39 23.5551 37.5449 22.1 35.75 22.1ZM32.5 16.9C33.9359 16.9 35.1 18.0641 35.1 19.5C35.1 20.9359 33.9359 22.1 32.5 22.1C31.0641 22.1 29.9 20.9359 29.9 19.5C29.9 18.0641 31.0641 16.9 32.5 16.9ZM37.7 29.25H36.4V25.35H35.1V37.7H33.15V30.55H31.85V37.7H29.9V25.35H28.6V29.25H27.3V25.35C27.3 24.273 28.173 23.4 29.25 23.4H35.75C36.827 23.4 37.7 24.273 37.7 25.35V29.25Z" fill="#1B4CC8"/>
<path d="M35.1 0H3.9C3.54104 0 3.25 0.291037 3.25 0.65V12.35C3.25 12.709 3.54104 13 3.9 13H11.05V16.25C11.0513 16.5124 11.2103 16.7483 11.453 16.848C11.5301 16.8844 11.6148 16.9022 11.7 16.9C11.8727 16.901 12.0388 16.8331 12.1615 16.7115L15.8665 13H23.1335L26.8385 16.7115C26.9612 16.8331 27.1273 16.901 27.3 16.9C27.3852 16.9022 27.4699 16.8844 27.547 16.848C27.7897 16.7483 27.9487 16.5124 27.95 16.25V13H35.1C35.459 13 35.75 12.709 35.75 12.35V0.65C35.75 0.291037 35.459 0 35.1 0ZM19.9875 7.8C19.7501 7.53074 19.3393 7.50498 19.07 7.74247C18.9304 7.86565 18.8502 8.04277 18.85 8.229V11.7H15.6C15.4273 11.699 15.2612 11.7669 15.1385 11.8885L12.35 14.6835V12.35C12.35 11.991 12.059 11.7 11.7 11.7H4.55V1.3H18.85V4.797C18.8505 5.15596 19.1419 5.44659 19.5009 5.44611C19.6871 5.44586 19.8643 5.36567 19.9875 5.22608C20.3547 4.80049 20.8878 4.55406 21.45 4.55008C22.527 4.55008 23.4 5.42311 23.4 6.50008C23.4 7.57705 22.527 8.45008 21.45 8.45008C20.892 8.4526 20.3595 8.21592 19.9875 7.8ZM34.45 11.7H27.3C26.941 11.7 26.65 11.991 26.65 12.35V14.6835L23.8615 11.8885C23.7388 11.7669 23.5727 11.699 23.4 11.7H20.15V9.4705C20.559 9.65356 21.0019 9.74878 21.45 9.75C23.2449 9.75 24.7 8.29489 24.7 6.5C24.7 4.70511 23.2449 3.25 21.45 3.25C21.0019 3.25122 20.559 3.34644 20.15 3.5295V1.3H34.45V11.7Z" fill="#1B4CC8"/>
<path d="M16.9 3.25H6.5V4.55H16.9V3.25Z" fill="#1B4CC8"/>
<path d="M16.9 5.84998H6.5V7.14998H16.9V5.84998Z" fill="#1B4CC8"/>
<path d="M16.9 8.44995H6.5V9.74995H16.9V8.44995Z" fill="#1B4CC8"/>
<path d="M32.4999 3.25H26.6499V4.55H32.4999V3.25Z" fill="#1B4CC8"/>
<path d="M32.4999 5.84998H26.6499V7.14998H32.4999V5.84998Z" fill="#1B4CC8"/>
<path d="M32.4999 8.44995H26.6499V9.74995H32.4999V8.44995Z" fill="#1B4CC8"/>
</g>
<defs>
<clipPath id="clip0">
<rect width="39" height="39" fill="white"/>
</clipPath>
</defs>
</svg>
