<svg width="1397" height="1358" viewBox="0 0 1397 1358" fill="none" xmlns="http://www.w3.org/2000/svg">
<g filter="url(#filter0_f_164:5427)">
<path d="M698.5 15L722.745 663.154L1244.61 277.992L752.979 701.066L1379.49 868.931L742.189 748.341L1001.57 1342.83L698.5 769.38L395.432 1342.83L654.811 748.341L17.5129 868.931L644.021 701.066L152.391 277.992L674.255 663.154L698.5 15Z" fill="url(#paint0_radial_164:5427)"/>
</g>
<g filter="url(#filter1_f_164:5427)">
<path d="M893.935 348.006L705.099 710.035L1107.2 639.047L706.416 717.13L1012.62 987.245L701.69 722.584L681.423 1130.4L694.48 722.289L363 960.713L690.215 716.469L297.134 605.962L692.106 709.505L533.422 333.281L698.73 706.642L893.935 348.006Z" fill="url(#paint1_radial_164:5427)"/>
</g>
<g style="mix-blend-mode:screen" filter="url(#filter2_f_164:5427)">
<rect x="489.203" y="520.729" width="418.32" height="385.541" rx="123.5" fill="white"/>
</g>
<defs>
<filter id="filter0_f_164:5427" x="2.51288" y="0" width="1391.97" height="1357.83" filterUnits="userSpaceOnUse" color-interpolation-filters="sRGB">
<feFlood flood-opacity="0" result="BackgroundImageFix"/>
<feBlend mode="normal" in="SourceGraphic" in2="BackgroundImageFix" result="shape"/>
<feGaussianBlur stdDeviation="7.5" result="effect1_foregroundBlur_164:5427"/>
</filter>
<filter id="filter1_f_164:5427" x="294.134" y="330.281" width="816.066" height="803.118" filterUnits="userSpaceOnUse" color-interpolation-filters="sRGB">
<feFlood flood-opacity="0" result="BackgroundImageFix"/>
<feBlend mode="normal" in="SourceGraphic" in2="BackgroundImageFix" result="shape"/>
<feGaussianBlur stdDeviation="1.5" result="effect1_foregroundBlur_164:5427"/>
</filter>
<filter id="filter2_f_164:5427" x="391.203" y="422.729" width="614.32" height="581.541" filterUnits="userSpaceOnUse" color-interpolation-filters="sRGB">
<feFlood flood-opacity="0" result="BackgroundImageFix"/>
<feBlend mode="normal" in="SourceGraphic" in2="BackgroundImageFix" result="shape"/>
<feGaussianBlur stdDeviation="49" result="effect1_foregroundBlur_164:5427"/>
</filter>
<radialGradient id="paint0_radial_164:5427" cx="0" cy="0" r="1" gradientUnits="userSpaceOnUse" gradientTransform="translate(698.5 713.5) rotate(90) scale(698.5)">
<stop stop-color="white"/>
<stop offset="0.5" stop-color="white" stop-opacity="0.07"/>
<stop offset="0.71875" stop-color="white" stop-opacity="0"/>
</radialGradient>
<radialGradient id="paint1_radial_164:5427" cx="0" cy="0" r="1" gradientUnits="userSpaceOnUse" gradientTransform="translate(698.391 714.951) rotate(118.053) scale(415.796)">
<stop stop-color="white"/>
<stop offset="0.5" stop-color="white" stop-opacity="0.07"/>
<stop offset="0.71875" stop-color="white" stop-opacity="0"/>
</radialGradient>
</defs>
</svg>
