<?xml version="1.0" encoding="utf-8"?><svg xmlns="http://www.w3.org/2000/svg" xmlns:xlink="http://www.w3.org/1999/xlink"><symbol viewBox="0 0 24 24" id="angle-down"><path d="M17 9.17a1 1 0 00-1.41 0L12 12.71 8.46 9.17a1 1 0 10-1.41 1.42l4.24 4.24a1.002 1.002 0 001.42 0L17 10.59a1.002 1.002 0 000-1.42z"/></symbol><symbol viewBox="0 0 20 20" id="angle-right"><path d="M12.95 9.408L8.233 4.7A.833.833 0 107.05 5.875l4.125 4.167-4.125 4.125a.833.833 0 00.27 1.36.834.834 0 00.913-.184l4.717-4.71a.833.833 0 000-1.225z" fill-opacity=".4"/></symbol><symbol viewBox="0 0 21 20" id="arrow-right"><path fill-rule="evenodd" clip-rule="evenodd" d="M11.646 3.554a.833.833 0 011.177.049l5.374 5.833a.833.833 0 010 1.13l-5.374 5.833a.833.833 0 01-1.226-1.13l4.086-4.435H3.417a.833.833 0 110-1.667h12.266l-4.085-4.435a.833.833 0 01.048-1.178z"/></symbol><symbol viewBox="0 0 25 25" id="bell"><path d="M18.5 13.555v-3.18a6 6 0 00-5-5.91v-1.09a1 1 0 00-2 0v1.09a6 6 0 00-5 5.91v3.18a3 3 0 00-2 2.82v2a1 1 0 001 1h3.14a4 4 0 007.72 0h3.14a1 1 0 001-1v-2a3 3 0 00-2-2.82zm-10-3.18a4 4 0 118 0v3h-8v-3zm4 10a2.002 2.002 0 01-1.72-1h3.44a2 2 0 01-1.72 1zm6-3h-12v-1a1 1 0 011-1h10a1 1 0 011 1v1z"/></symbol><symbol viewBox="0 0 24 24" id="calendar"><path d="M12 19a1 1 0 100-2 1 1 0 000 2zm5 0a1 1 0 100-2 1 1 0 000 2zm0-4a1 1 0 100-2 1 1 0 000 2zm-5 0a1 1 0 100-2 1 1 0 000 2zm7-12h-1V2a1 1 0 00-2 0v1H8V2a1 1 0 00-2 0v1H5a3 3 0 00-3 3v14a3 3 0 003 3h14a3 3 0 003-3V6a3 3 0 00-3-3zm1 17a1 1 0 01-1 1H5a1 1 0 01-1-1v-9h16v9zm0-11H4V6a1 1 0 011-1h1v1a1 1 0 002 0V5h8v1a1 1 0 002 0V5h1a1 1 0 011 1v3zM7 15a1 1 0 100-2 1 1 0 000 2zm0 4a1 1 0 100-2 1 1 0 000 2z"/></symbol><symbol viewBox="0 0 20 20" id="card"><path d="M15.833 4.167H4.167a2.5 2.5 0 00-2.5 2.5v7.5a2.5 2.5 0 002.5 2.5h11.666a2.5 2.5 0 002.5-2.5v-7.5a2.5 2.5 0 00-2.5-2.5zm.834 10a.833.833 0 01-.834.833H4.167a.833.833 0 01-.834-.833v-5h13.334v5zm0-6.667H3.333v-.833a.833.833 0 01.834-.834h11.666a.833.833 0 01.834.834V7.5z"/></symbol><symbol viewBox="0 0 24 24" id="catalog"><path fill-rule="evenodd" clip-rule="evenodd" d="M4 4v5h5V4H4zM3 2h7a1 1 0 011 1v7a1 1 0 01-1 1H3a1 1 0 01-1-1V3a1 1 0 011-1zM4 15v5h5v-5H4zm-1-2h7a1 1 0 011 1v7a1 1 0 01-1 1H3a1 1 0 01-1-1v-7a1 1 0 011-1zM15 4v5h5V4h-5zm-1-2h7a1 1 0 011 1v7a1 1 0 01-1 1h-7a1 1 0 01-1-1V3a1 1 0 011-1zM15 15v5h5v-5h-5zm-1-2h7a1 1 0 011 1v7a1 1 0 01-1 1h-7a1 1 0 01-1-1v-7a1 1 0 011-1z"/></symbol><symbol viewBox="0 0 20 20" id="check"><path fill-rule="evenodd" clip-rule="evenodd" d="M15.375 6.56a1 1 0 01-.036 1.415l-6.31 6a1 1 0 01-1.416-.037l-2.84-3a1 1 0 011.453-1.375l2.15 2.272 5.585-5.31a1 1 0 011.414.036z"/></symbol><symbol viewBox="0 0 16 16" id="check-circle"><path d="M9.814 5.86l-2.86 2.867-1.1-1.1a.667.667 0 10-.94.94l1.567 1.574a.668.668 0 00.94 0l3.333-3.334a.666.666 0 00-.47-1.14.667.667 0 00-.47.194zM8.001 1.335a6.667 6.667 0 100 13.333A6.667 6.667 0 008 1.334zm0 12A5.334 5.334 0 118 2.667a5.334 5.334 0 010 10.667z"/></symbol><symbol viewBox="0 0 24 24" id="clipboard-notes"><path d="M13 14H9a1 1 0 000 2h4a1 1 0 000-2zm4-10h-1.18A3 3 0 0013 2h-2a3 3 0 00-2.82 2H7a3 3 0 00-3 3v12a3 3 0 003 3h10a3 3 0 003-3V7a3 3 0 00-3-3zm-7 1a1 1 0 011-1h2a1 1 0 011 1v1h-4V5zm8 14a1 1 0 01-1 1H7a1 1 0 01-1-1V7a1 1 0 011-1h1v1a1 1 0 001 1h6a1 1 0 001-1V6h1a1 1 0 011 1v12zm-3-9H9a1 1 0 000 2h6a1 1 0 000-2z"/></symbol><symbol viewBox="0 0 24 24" id="clock"><path d="M12 2a10 10 0 100 20 10 10 0 000-20zm0 18a8 8 0 110-16.001A8 8 0 0112 20zm0-14a1 1 0 00-1 1v4H9a1 1 0 000 2h3a1 1 0 001-1V7a1 1 0 00-1-1z"/></symbol><symbol viewBox="0 0 24 24" id="comment-check"><path d="M13.29 7.13a1 1 0 000 1.42l1.92 1.92a1.002 1.002 0 001.42 0l4.08-4.08A1 1 0 1019.29 5l-3.37 3.35-1.21-1.22a1 1 0 00-1.42 0zm6.62 3.51a1 1 0 00-.91 1.08c.005.093.005.187 0 .28a7 7 0 01-7 7H6.41l.64-.63a1 1 0 000-1.41 7 7 0 013.48-11.81 7.14 7.14 0 012.8 0 1.02 1.02 0 00.4-2 9.15 9.15 0 00-3.61 0A9.05 9.05 0 003 12a9 9 0 002 5.62l-1.71 1.67a1 1 0 00-.21 1.09A1 1 0 004 21h8a9 9 0 009-9v-.44a1 1 0 00-1.09-.92z"/></symbol><symbol viewBox="0 0 20 20" id="comment-question"><path d="M12.308 4.892a.833.833 0 001.134-.309A.833.833 0 0115 5a.834.834 0 01-.833.833.833.833 0 000 1.667A2.5 2.5 0 1012 3.75a.833.833 0 00.308 1.142zm3.584 5.941a.833.833 0 00-.934.717 5.834 5.834 0 01-5.791 5.117H4.508l.542-.542a.833.833 0 000-1.175A5.833 5.833 0 019.167 5a.833.833 0 000-1.667 7.5 7.5 0 00-5.834 12.175l-1.425 1.4a.833.833 0 00-.175.909.834.834 0 00.767.516h6.667a7.5 7.5 0 007.441-6.558.835.835 0 00-.716-.942zm-1.409-2.441A.833.833 0 0014 8.333l-.15.05-.15.075-.125.109a.836.836 0 00-.175.266.7.7 0 00-.067.334.832.832 0 00.059.325.834.834 0 00.455.446A.833.833 0 0015 9.167a.7.7 0 00-.067-.317.892.892 0 00-.45-.45v-.008z"/></symbol><symbol viewBox="0 0 25 24" id="crosshairs"><path d="M21.667 11h-1.07a8 8 0 00-6.93-6.93V3a1 1 0 10-2 0v1.07A8 8 0 004.737 11h-1.07a1 1 0 000 2h1.07a8 8 0 006.93 6.93V21a1 1 0 002 0v-1.07a8 8 0 006.93-6.93h1.07a1 1 0 000-2zm-9 7a6 6 0 110-12 6 6 0 010 12zm0-9a3 3 0 100 6 3 3 0 000-6zm0 4a1 1 0 110-2 1 1 0 010 2z"/></symbol><symbol viewBox="0 0 24 24" id="external-link"><path d="M18 10.82a1 1 0 00-1 1V19a1 1 0 01-1 1H5a1 1 0 01-1-1V8a1 1 0 011-1h7.18a1 1 0 100-2H5a3 3 0 00-3 3v11a3 3 0 003 3h11a3 3 0 003-3v-7.18a1 1 0 00-1-1zm3.92-8.2a1 1 0 00-.54-.54A1 1 0 0021 2h-6a1 1 0 100 2h3.59L8.29 14.29a1 1 0 00.325 1.639 1 1 0 001.095-.219L20 5.41V9a1 1 0 002 0V3a1.001 1.001 0 00-.08-.38z"/></symbol><symbol viewBox="0 0 16 16" id="flash"><path d="M13.243 5.733a.667.667 0 00-.58-.4H9.61l.846-3.16a.667.667 0 00-.349-.772.667.667 0 00-.297-.068H5.143a.667.667 0 00-.667.494L2.69 8.493a.667.667 0 00.666.84h2.567l-1.207 4.494a.667.667 0 001.14.62l7.267-8a.667.667 0 00.12-.714zM6.716 11.52l.72-2.667a.667.667 0 00-.106-.593.667.667 0 00-.54-.26H4.23l1.426-5.333h3.287l-.847 3.16a.667.667 0 00.667.84h2.38L6.716 11.52z"/></symbol><symbol viewBox="0 0 24 24" id="gift"><path d="M18 7h-.35A3.45 3.45 0 0018 5.5a3.49 3.49 0 00-6-2.44A3.49 3.49 0 006 5.5 3.45 3.45 0 006.35 7H6a3 3 0 00-3 3v2a1 1 0 001 1h1v6a3 3 0 003 3h8a3 3 0 003-3v-6h1a1 1 0 001-1v-2a3 3 0 00-3-3zm-7 13H8a1 1 0 01-1-1v-6h4v7zm0-9H5v-1a1 1 0 011-1h5v2zm0-4H9.5A1.5 1.5 0 1111 5.5V7zm2-1.5A1.5 1.5 0 1114.5 7H13V5.5zM17 19a1 1 0 01-1 1h-3v-7h4v6zm2-8h-6V9h5a1 1 0 011 1v1z"/></symbol><symbol viewBox="0 0 24 24" id="graph"><path d="M6 13H2a1 1 0 00-1 1v8a1 1 0 001 1h4a1 1 0 001-1v-8a1 1 0 00-1-1zm-1 8H3v-6h2v6zM22 9h-4a1 1 0 00-1 1v12a1 1 0 001 1h4a1 1 0 001-1V10a1 1 0 00-1-1zm-1 12h-2V11h2v10zM14 1h-4a1 1 0 00-1 1v20a1 1 0 001 1h4a1 1 0 001-1V2a1 1 0 00-1-1zm-1 20h-2V3h2v18z"/></symbol><symbol viewBox="0 0 24 24" id="layers"><path d="M21 2H9a1 1 0 00-1 1v4H6a1 1 0 00-1 1v4H3a1 1 0 00-1 1v8a1 1 0 001 1h8a1 1 0 001-1v-2h4a1 1 0 001-1v-2h4a1 1 0 001-1V3a1 1 0 00-1-1zM10 20H4v-6h6v6zm5-3h-3v-4a1 1 0 00-1-1H7V9h8v8zm5-3h-3V8a1 1 0 00-1-1h-6V4h10v10z"/></symbol><symbol viewBox="0 0 20 20" id="loader"><path d="M10 17.5c0 .46-.375.837-.833.791a8.334 8.334 0 119.124-9.124c.046.458-.331.832-.792.832-.46 0-.828-.374-.885-.83a6.664 6.664 0 00-6.615-5.836 6.667 6.667 0 00-.83 13.281c.456.057.83.425.83.885z"/></symbol><symbol viewBox="0 0 16 16" id="mail"><path d="M12.667 2.667H3.333a2 2 0 00-2 2v6.666a2 2 0 002 2h9.334a2 2 0 002-2V4.666a2 2 0 00-2-2zM12.393 4l-3.92 3.92a.667.667 0 01-.946 0L3.607 4h8.786zm.94 7.333a.667.667 0 01-.666.667H3.333a.667.667 0 01-.666-.667V4.94l3.92 3.92a2 2 0 002.826 0l3.92-3.92v6.393z"/></symbol><symbol viewBox="0 0 16 16" id="multiply"><path d="M8.94 8l4.2-4.193a.67.67 0 10-.947-.947L8 7.06l-4.193-4.2a.67.67 0 10-.947.947L7.06 8l-4.2 4.193a.667.667 0 00.217 1.093.666.666 0 00.73-.146L8 8.94l4.193 4.2a.666.666 0 00.947 0 .667.667 0 000-.947L8.94 8z"/></symbol><symbol viewBox="0 0 24 24" id="star"><path d="M22 9.67a1 1 0 00-.86-.67l-5.69-.83L12.9 3a1 1 0 00-1.8 0L8.55 8.16 2.86 9a1 1 0 00-.81.68 1 1 0 00.25 1l4.13 4-1 5.68a1 1 0 001.45 1.07L12 18.76l5.1 2.68c.14.08.299.12.46.12a1 1 0 00.59-.19.999.999 0 00.4-1l-1-5.68 4.13-4A1 1 0 0022 9.67zm-6.15 4a1.001 1.001 0 00-.29.89l.72 4.19-3.76-2a1 1 0 00-.94 0l-3.76 2 .72-4.19a1 1 0 00-.29-.89l-3-3 4.21-.61a1 1 0 00.76-.55L12 5.7l1.88 3.82a1 1 0 00.76.55l4.21.61-3 2.99z"/></symbol><symbol viewBox="0 0 16 16" id="telegram"><path fill-rule="evenodd" clip-rule="evenodd" d="M2.825 7.094a516.827 516.827 0 016.444-2.87c3.069-1.32 3.706-1.55 4.122-1.557.091-.002.296.021.428.132.112.094.142.221.157.31.015.089.033.292.019.45-.167 1.807-.886 6.192-1.252 8.216-.155.857-.46 1.144-.755 1.172-.642.061-1.13-.438-1.75-.86-.973-.66-1.523-1.07-2.467-1.713-1.09-.744-.383-1.152.238-1.82.163-.175 2.99-2.835 3.045-3.076.007-.03.013-.143-.052-.202-.064-.06-.16-.04-.228-.023-.098.023-1.651 1.085-4.661 3.186-.441.313-.84.466-1.198.458-.395-.009-1.154-.23-1.718-.42-.692-.233-1.242-.356-1.194-.751.025-.206.299-.416.822-.632z"/></symbol><symbol viewBox="0 0 25 24" id="user"><path d="M16.043 12.71a6 6 0 10-7.42 0 10 10 0 00-6.22 8.18 1.006 1.006 0 102 .22 8 8 0 0115.9 0 1 1 0 001 .89h.11a1 1 0 00.88-1.1 10 10 0 00-6.25-8.19zm-3.71-.71a4 4 0 110-8 4 4 0 010 8z"/></symbol><symbol viewBox="0 0 24 24" id="user-check"><path d="M13.3 12.22A4.92 4.92 0 0015 8.5a5 5 0 00-10 0 4.92 4.92 0 001.7 3.72A8 8 0 002 19.5a1 1 0 102 0 6 6 0 1112 0 1 1 0 002 0 8 8 0 00-4.7-7.28zM10 11.5a3 3 0 110-6 3 3 0 010 6zm11.71-2.37a1 1 0 00-1.42 0l-2 2-.62-.63a1.002 1.002 0 00-1.71.705 1 1 0 00.29.705l1.34 1.34a1 1 0 001.41 0l2.67-2.67a1 1 0 00.04-1.45z"/></symbol></svg>