<svg width="49" height="32" viewBox="0 0 49 32" fill="none" xmlns="http://www.w3.org/2000/svg">
<g clip-path="url(#clip0_88_28956)">
<path d="M48.5 27.0769C48.5 28.3826 47.9381 29.6348 46.9379 30.5581C45.9377 31.4813 44.5812 32 43.1667 32H32.5V0H43.1667C44.5812 0 45.9377 0.51868 46.9379 1.44194C47.9381 2.36519 48.5 3.6174 48.5 4.92308V27.0769Z" fill="#ED2939"/>
<path d="M5.83333 0C4.41885 0 3.06229 0.51868 2.0621 1.44194C1.0619 2.36519 0.5 3.6174 0.5 4.92308L0.5 27.0769C0.5 28.3826 1.0619 29.6348 2.0621 30.5581C3.06229 31.4813 4.41885 32 5.83333 32H16.5V0H5.83333Z" fill="#002495"/>
<path d="M16.5 0H32.5V32H16.5V0Z" fill="#EEEEEE"/>
</g>
<defs>
<clipPath id="clip0_88_28956">
<rect width="48" height="32" fill="white" transform="translate(0.5)"/>
</clipPath>
</defs>
</svg>
