<svg width="49" height="32" viewBox="0 0 49 32" fill="none" xmlns="http://www.w3.org/2000/svg">
<g clip-path="url(#clip0_90_28981)">
<path d="M0.5 26C0.5 27.3261 1.0619 28.5979 2.0621 29.5355C3.06229 30.4732 4.41885 31 5.83333 31H43.1667C44.5812 31 45.9377 30.4732 46.9379 29.5355C47.9381 28.5979 48.5 27.3261 48.5 26V21H0.5V26Z" fill="#FFCD05"/>
<path d="M0.5 11H48.5V21H0.5V11Z" fill="#ED1F24"/>
<path d="M43.1667 1H5.83333C4.41885 1 3.06229 1.46825 2.0621 2.30175C1.0619 3.13524 0.5 4.2657 0.5 5.44444L0.5 11H48.5V5.44444C48.5 4.2657 47.9381 3.13524 46.9379 2.30175C45.9377 1.46825 44.5812 1 43.1667 1Z" fill="#141414"/>
</g>
<defs>
<clipPath id="clip0_90_28981">
<rect width="48" height="32" fill="white" transform="translate(0.5)"/>
</clipPath>
</defs>
</svg>
