<svg width="269" height="140" viewBox="0 0 269 140" fill="none" xmlns="http://www.w3.org/2000/svg">
<path d="M54.0404 18.6281V83.3054H61.0705V100.178H54.0404V117.6H29.3432V100.178H0V83.3054L21.335 18.6281H54.0404ZM29.3432 83.3054V41.1857L18.4618 83.3054H29.3432Z" fill="#742DDB"/>
<path d="M124.525 52.1282V85.1394C124.525 92.6382 124.118 98.0993 123.303 101.523C122.488 104.946 120.796 108.145 118.229 111.12C115.661 114.095 112.564 116.235 108.937 117.539C105.31 118.843 101.254 119.495 96.7714 119.495C90.862 119.495 85.9511 118.823 82.0387 117.478C78.1263 116.092 75.0086 113.953 72.6856 111.059C70.3626 108.166 68.712 105.129 67.7339 101.951C66.7558 98.731 66.2667 93.6367 66.2667 86.6676V52.1282C66.2667 43.04 67.0411 36.234 68.5897 31.7103C70.1792 27.1865 73.2969 23.5594 77.9429 20.8288C82.6297 18.0983 88.2945 16.733 94.9375 16.733C100.358 16.733 105.208 17.6907 109.487 19.6062C113.766 21.4809 116.965 23.7835 119.085 26.5141C121.204 29.2446 122.63 32.3216 123.364 35.745C124.138 39.1683 124.525 44.6294 124.525 52.1282ZM99.828 43.8143C99.828 38.557 99.5631 35.2763 99.0333 33.9721C98.5443 32.6272 97.3624 31.9548 95.4877 31.9548C93.6537 31.9548 92.4311 32.668 91.8198 34.0944C91.2492 35.4801 90.9639 38.72 90.9639 43.8143V92.1084C90.9639 97.8547 91.2288 101.319 91.7587 102.501C92.3292 103.683 93.5315 104.274 95.3654 104.274C97.1994 104.274 98.4016 103.581 98.9722 102.195C99.5428 100.809 99.828 97.6917 99.828 92.8419V43.8143Z" fill="#742DDB"/>
<path d="M183.762 18.6281V83.3054H190.792V100.178H183.762V117.6H159.065V100.178H129.721V83.3054L151.056 18.6281H183.762ZM159.065 83.3054V41.1857L148.183 83.3054H159.065Z" fill="#742DDB"/>
<path d="M247.165 112.612L213.985 106.635L209.266 134.023L242.447 140L247.165 112.612Z" fill="#742DDB"/>
<path d="M218.057 100.334L245.444 105.269L268.066 5.77091L229.915 0L218.057 100.334Z" fill="#742DDB"/>
</svg>
