<svg width="71" height="30" viewBox="0 0 71 30" fill="none" xmlns="http://www.w3.org/2000/svg">
<path d="M5.02034 29.674C4.62787 29.6775 4.22825 29.6705 3.84648 29.6563C3.52536 29.6456 3.1079 29.5605 2.83673 29.3725C2.4728 29.1207 2.25872 28.7021 2.12314 28.2978C1.90906 27.6594 1.86981 26.9571 1.8591 26.2832C1.85554 25.6908 2.02323 24.4672 1.61291 23.9812C1.22043 23.513 0.392659 23.4776 0.0822434 22.9243C-0.188924 22.4419 0.267779 22.0553 0.62101 21.736C0.931426 21.4558 1.37029 21.2288 1.60221 20.8777C1.84126 20.5124 1.78774 20.3067 1.78418 19.8349C1.76277 16.8307 1.65216 13.83 1.55582 10.8293C1.55939 10.2938 1.58794 9.77592 1.79131 9.27226C1.95187 8.87501 2.19093 8.50259 2.49064 8.20465C2.7511 7.94572 3.14715 7.70808 3.48968 7.59103C3.86788 7.46335 4.26036 7.41724 4.66355 7.39595C4.8919 7.39595 5.00607 7.39595 5.23442 7.39595C5.63761 7.38886 6.04079 7.46689 6.39759 7.58394C6.7972 7.71518 7.12189 7.91025 7.44658 8.19046C7.7677 8.46357 8.02103 8.85373 8.20656 9.24743C8.43491 9.74045 8.49914 10.2583 8.53839 10.7939C8.60618 12.9965 8.67397 15.2027 8.72035 17.4053C7.91755 17.4124 7.11476 17.423 6.31196 17.4301C6.26914 15.3268 6.20135 13.2235 6.13356 11.1202C6.10145 10.6591 6.08004 10.1625 5.8053 9.77947C5.6162 9.51345 5.37358 9.37867 5.11311 9.38222C5.02748 9.38222 4.98466 9.38222 4.89903 9.38222C4.635 9.38222 4.39951 9.51345 4.22825 9.76883C3.96779 10.1554 3.97135 10.7017 3.98563 11.1663C4.07839 14.0464 4.1783 16.9265 4.19971 19.8065C4.20327 20.2712 4.2675 20.5053 4.01774 20.8635C3.82507 21.1402 3.48611 21.3494 3.23635 21.5729C2.90096 21.8708 2.2944 22.2929 2.44782 22.8214C2.60838 23.3676 3.55747 23.5485 3.93567 23.9245C4.39238 24.3785 4.24966 25.2581 4.27463 25.8753C4.27107 26.4428 4.29247 27.1025 4.55294 27.6133C4.73491 27.9679 4.96326 28.1382 5.22729 28.1346C5.31292 28.1346 5.35574 28.1346 5.44137 28.1346C5.70183 28.1346 5.94089 27.9608 6.12285 27.6097C6.38689 27.1025 6.41543 26.4499 6.41186 25.8788C6.39402 25.4426 6.43327 24.8857 6.34764 24.4494C6.25487 23.9706 5.95516 23.8216 5.56625 23.5769C4.66711 23.0129 4.28177 22.7079 5.10598 21.8176C5.91948 21.8105 6.73298 21.8034 7.54648 21.7963C6.65092 22.7788 7.21109 23.0378 8.11379 23.6585C8.96654 24.2508 8.80598 25.322 8.81669 26.2832C8.79885 26.9642 8.7596 27.6665 8.52411 28.2872C8.37069 28.6951 8.17445 29.1065 7.78911 29.3725C7.5108 29.564 7.08264 29.6456 6.75796 29.6563C6.38332 29.6705 5.98727 29.6775 5.60193 29.674C5.36287 29.674 5.2487 29.674 5.02034 29.674Z" fill="#404040"/>
<path d="M17.3855 17.309C17.3748 17.8765 17.357 18.4653 17.0537 18.9583C16.8539 19.2847 16.547 19.5542 16.1795 19.6784C16.5542 19.7706 16.8539 20.065 17.0644 20.3416C17.3784 20.7531 16.5435 21.5015 16.283 21.7427C15.6372 22.484 15.6657 22.8528 16.4293 23.4274C16.6755 23.6119 17.0465 23.775 17.2035 24.0588C17.3962 24.4028 17.3534 24.9278 17.4033 25.3037C17.5032 26.5168 17.3891 27.7546 17.571 28.9606C17.6638 29.56 17.7459 29.6274 17.8172 29.6522C17.0216 29.6522 16.2223 29.6522 15.4267 29.6522C15.1091 29.4252 15.1377 28.9464 15.1127 28.6023C15.0306 27.5205 15.0984 26.3926 15.0164 25.2931C14.8986 24.3532 14.9058 24.0304 14.1065 23.4842C13.4036 23.0053 13.1681 22.6436 13.7069 21.9129C13.789 21.8313 15.127 20.4587 14.1636 20.5722C13.7354 20.5793 13.3109 20.5828 12.8827 20.5899C12.4438 21.0794 10.9203 22.0583 11.2628 22.8848C11.5162 23.4913 12.4724 23.548 12.7543 24.1439C13.0433 24.7504 12.9148 25.8712 12.9184 26.5097C12.9219 27.556 12.9148 28.6059 12.9112 29.6522C12.112 29.6522 11.3128 29.6522 10.5136 29.6522C10.5243 28.3966 10.5492 27.1375 10.5278 25.8819C10.5207 25.4846 10.5207 25.0413 10.4493 24.644C10.3387 24.0304 10.1996 23.8956 9.6608 23.5445C9.08992 23.1756 8.51905 22.8422 8.95434 22.1435C9.26119 21.6504 9.84991 21.3525 10.221 20.9091C10.5421 20.5261 10.4814 20.2139 10.4779 19.7245C10.4458 15.6704 10.2781 11.6198 10.1817 7.56927C11.4519 7.56572 12.7221 7.56217 13.9923 7.55863C14.8237 7.55508 15.6158 7.85302 16.2366 8.39924C16.9716 9.04832 17.1821 9.96697 17.2392 10.9033C17.2927 13.0421 17.3498 15.1738 17.3855 17.309ZM14.1529 18.8413C14.945 18.8377 14.9985 17.763 14.9807 17.2026C14.945 15.227 14.8879 13.2514 14.8344 11.2793C14.8023 10.8218 14.7773 10.3465 14.5133 9.96342C14.3242 9.68676 14.0744 9.54843 13.789 9.55198C13.4072 9.55553 13.0254 9.55553 12.6436 9.55907C12.7293 12.6591 12.8292 15.759 12.8684 18.859C13.3002 18.8519 13.7247 18.8484 14.1529 18.8413Z" fill="#404040"/>
<path d="M22.1016 22.1686C21.6056 22.8531 22.5368 23.339 22.9436 23.7008C23.3825 24.091 23.4039 24.4776 23.4681 25.0309C23.6429 26.5525 23.5502 28.1203 23.5537 29.6525C22.7581 29.6525 21.9624 29.6525 21.1703 29.6525C21.1703 28.1167 21.2524 26.549 21.0882 25.0203C21.0276 24.4599 21.0062 24.0839 20.5566 23.7008C20.1534 23.3568 19.1829 22.8708 19.6825 22.1863C19.9429 21.4805 20.7707 21.0903 20.7564 20.271C20.7457 19.6609 20.5209 18.9693 20.4068 18.3734C20.1998 17.2774 19.9893 16.185 19.7752 15.0925C19.2793 12.5778 18.7655 10.0666 18.2695 7.54827C19.0652 7.54472 19.8573 7.54472 20.6529 7.54117C21.1989 10.7937 21.7733 14.0391 22.3049 17.2916C22.3335 17.2916 22.3477 17.2916 22.3763 17.2916C22.8116 14.0391 23.2076 10.783 23.6394 7.53053C24.435 7.52698 25.2271 7.52698 26.0228 7.52344C25.616 10.0311 25.2307 12.5387 24.8311 15.0464C24.6455 16.2098 24.46 17.3696 24.2673 18.533C24.1746 19.0899 24.1639 19.817 23.9605 20.3455C23.6536 21.1258 22.6689 21.6152 22.1016 22.1686Z" fill="#404040"/>
<path d="M31.1042 7.50589C31.9284 7.50234 32.7169 7.79319 33.3378 8.33586C34.0656 8.97431 34.2619 9.88586 34.3083 10.808C34.3404 13.415 34.376 16.022 34.3868 18.629C34.3939 19.5653 34.1762 20.335 33.3056 20.7784C32.5064 21.1863 31.5894 21.353 30.6939 21.3636C30.1801 21.3672 29.6699 21.3742 29.1561 21.3778C28.5531 21.9595 28.0215 22.4844 28.678 23.2257C29.1703 23.779 29.5628 23.8748 29.6734 24.6622C29.9054 26.3044 29.8233 27.9892 29.8304 29.6492C29.0348 29.6492 28.2391 29.6492 27.4434 29.6492C27.4363 28.4006 27.4399 27.1521 27.4185 25.9036C27.4113 25.5064 27.3685 25.1269 27.2972 24.7332C27.1865 24.1054 27.1045 23.9635 26.6335 23.5272C26.1161 23.0448 25.6951 22.7114 26.1304 22.0127C26.448 21.5055 27.0081 21.2359 27.2972 20.6968C27.5077 20.3031 27.4684 19.9555 27.4684 19.5157C27.4506 15.5148 27.3507 11.5139 27.29 7.51299C28.5638 7.51653 29.834 7.51299 31.1042 7.50589ZM31.907 11.1769C31.882 10.7265 31.8642 10.2583 31.6037 9.87876C31.4182 9.6092 31.172 9.47087 30.8866 9.47087C30.5083 9.47442 30.1301 9.47442 29.7484 9.47796C29.8019 12.8475 29.8661 16.2135 29.8768 19.5831C30.3014 19.5795 30.7224 19.5724 31.147 19.5689C31.9284 19.5653 31.9962 18.5119 31.9855 17.9515C31.9712 15.6921 31.9391 13.4328 31.907 11.1769Z" fill="#404040"/>
<path d="M42.6618 9.38921C41.8662 9.39276 41.0741 9.39631 40.2784 9.39985C40.2927 11.3932 40.3141 13.3866 40.3248 15.3799C40.3319 16.2205 40.3355 17.0611 40.3355 17.9018C40.3391 18.675 40.439 19.5617 40.2891 20.3207C40.1143 21.211 38.9904 21.5657 38.9012 22.4489C38.8227 23.2044 39.6576 23.4633 39.9359 24.045C40.2356 24.6763 40.2035 25.7191 40.207 26.3966C40.2177 27.4819 40.2392 28.5708 40.2534 29.6562C39.4578 29.6562 38.6621 29.6562 37.8664 29.6562C37.8557 28.5708 37.8343 27.4819 37.8236 26.3966C37.8165 25.7191 37.8593 24.6657 37.5525 24.0379C37.2706 23.4633 36.4107 23.215 36.4821 22.4595C36.5606 21.5905 37.6952 21.2181 37.8878 20.3491C38.0555 19.6007 37.9414 18.6963 37.9378 17.9266C37.9342 17.086 37.9307 16.2418 37.9235 15.4012C37.9093 13.4043 37.8843 11.4074 37.8664 9.41049C37.0743 9.41404 36.2787 9.41759 35.4866 9.42114C35.4795 8.77915 35.4723 8.13361 35.4688 7.49163C37.8629 7.48453 40.257 7.47744 42.6511 7.4668C42.6547 8.10878 42.6583 8.75077 42.6618 9.38921Z" fill="#404040"/>
<path d="M47.0409 29.675C46.652 29.6786 46.2524 29.6715 45.8742 29.6538C45.5531 29.6396 45.132 29.5473 44.8644 29.3487C44.4791 29.065 44.2829 28.6429 44.1187 28.2208C43.8833 27.6143 43.8333 26.9226 43.8083 26.2665C43.8048 25.4791 43.7834 24.4469 43.3552 23.773C42.9948 23.2055 42.3454 22.9359 42.6487 22.1734C42.8271 21.73 43.2374 21.5207 43.5122 21.166C43.7405 20.8681 43.9011 20.5808 43.9582 20.1835C44.0652 19.4032 43.9617 18.5413 43.9582 17.7504C43.951 14.3205 43.9225 10.8942 43.9082 7.46438C44.7146 7.46084 45.5174 7.46084 46.3238 7.45729C46.3345 10.8233 46.3559 14.1893 46.3594 17.5553C46.3594 18.3001 46.363 19.045 46.3594 19.7934C46.3559 20.1658 46.3202 20.6801 46.1061 21.01C45.8456 21.4108 45.3212 21.5917 45.1106 22.0705C44.8252 22.716 45.1321 23.0743 45.5495 23.5637C46.0918 24.1951 46.1668 25.1244 46.1917 25.9402C46.1989 26.4615 46.2417 27.0681 46.4986 27.5363C46.6948 27.8909 46.9232 28.0647 47.1836 28.0647C47.2693 28.0647 47.3121 28.0647 47.3977 28.0647C47.6582 28.0647 47.8901 27.8839 48.0614 27.5327C48.2897 27.0645 48.329 26.4686 48.3218 25.9437C48.2969 25.135 48.2112 24.1951 47.6867 23.5637C47.2728 23.0672 46.9838 22.7018 47.2728 22.0599C47.4869 21.581 48.0221 21.3966 48.2754 20.9922C48.4753 20.6695 48.4967 20.1339 48.4967 19.7721C48.5002 19.0273 48.5002 18.2824 48.5002 17.5411C48.5002 14.1787 48.4824 10.8197 48.4753 7.45729C49.2816 7.45374 50.088 7.45374 50.8944 7.4502C50.8979 10.8623 50.9122 14.2709 50.9122 17.683C50.9122 18.4846 50.9729 19.3075 50.9086 20.102C50.8765 20.524 50.7873 20.7759 50.5554 21.1022C50.2878 21.4746 49.8632 21.6839 49.6741 22.1379C49.3601 22.904 49.9488 23.1807 50.2842 23.7836C50.666 24.4682 50.716 25.4897 50.7231 26.2736C50.7374 26.9226 50.6803 27.6214 50.4769 28.2173C50.3378 28.6358 50.1558 29.065 49.7776 29.3523C49.51 29.5544 49.0782 29.6467 48.7571 29.6573C48.3825 29.6715 47.99 29.6786 47.6082 29.6786C47.3799 29.675 47.2693 29.675 47.0409 29.675Z" fill="#404040"/>
<path d="M57.1359 16.8595C57.1359 14.8484 57.1359 12.8338 57.1359 10.8227C57.1181 10.3793 57.1145 9.90049 56.8505 9.53516C56.6685 9.27979 56.433 9.1521 56.169 9.1521C56.0833 9.1521 56.0405 9.1521 55.9549 9.1521C55.6909 9.1521 55.4518 9.27979 55.2734 9.52452C55.0058 9.88985 54.988 10.4183 54.988 10.8688C54.988 11.8655 54.988 12.8621 54.9915 13.8588C54.9915 14.8378 55.1985 15.8309 55.7051 16.6715C55.9335 17.0546 56.0156 17.1007 57.2751 18.9699C57.482 19.2785 57.6889 19.5906 57.796 20.0517C57.9351 20.644 57.7924 20.9668 57.8103 21.4669C57.8245 21.9174 57.9744 22.5558 58.5809 23.3255C59.2053 24.1164 59.3481 25.2692 59.3623 26.2659C59.3802 26.9114 59.3338 27.603 59.1483 28.1989C59.0162 28.6245 58.8414 29.0608 58.4525 29.3446C58.1813 29.5432 57.7532 29.639 57.4249 29.6531C57.0396 29.6709 56.64 29.6744 56.2475 29.6744C56.0477 29.6744 55.9478 29.6744 55.748 29.6744C55.3555 29.6744 54.9559 29.6709 54.5705 29.6531C54.2316 29.639 53.7998 29.5396 53.5108 29.3446C53.1005 29.0679 52.89 28.6423 52.7152 28.2096C52.4761 27.6172 52.4047 26.9185 52.3905 26.2694C52.3833 25.4714 52.3191 24.3328 51.8588 23.6589C51.238 22.7509 51.0668 22.3785 51.866 21.4208C52.6117 21.4137 53.361 21.4066 54.1067 21.3995C53.4038 22.2472 53.3324 22.687 53.9782 23.5489C54.4278 24.1519 54.5705 25.1876 54.5955 25.9466C54.6062 26.4609 54.6954 27.0746 54.9452 27.5144C55.0843 27.7626 55.4233 28.0535 55.7408 28.0429C55.8122 28.0429 55.8479 28.0429 55.9192 28.0429C56.2261 28.0429 56.4901 27.862 56.6685 27.5108C56.9004 27.0568 56.9468 26.468 56.9361 25.9502C56.9861 25.3898 56.7327 23.9639 56.3474 23.5702C55.8764 23.0169 55.4625 22.3643 55.566 21.6017C55.6338 21.1016 55.9085 20.9845 55.6409 20.5163C55.4197 20.1226 55.1271 19.7609 54.856 19.4026C54.2922 18.6613 53.7677 17.8952 53.2896 17.1007C52.7687 16.2317 52.6046 15.2492 52.576 14.249C52.576 13.0147 52.5724 11.7803 52.5689 10.546C52.5903 10.0246 52.6367 9.52807 52.8507 9.04569C53.0256 8.65553 53.2789 8.27956 53.6 8.01709C53.9033 7.76881 54.2494 7.5489 54.6347 7.42476C55.0165 7.30062 55.409 7.25806 55.8157 7.23678C55.9585 7.23678 56.0298 7.23678 56.1725 7.23678C56.5436 7.22968 56.9682 7.30771 57.3143 7.41767C57.6996 7.53826 58.0457 7.75462 58.3526 7.99936C58.6701 8.25828 58.9199 8.6307 59.084 9.01732C59.2874 9.49615 59.3302 9.99271 59.3516 10.507C59.3516 12.6174 59.3516 14.7243 59.3516 16.8347C58.6166 16.8453 57.8745 16.8524 57.1359 16.8595Z" fill="#404040"/>
<path d="M66.9815 0.206055C68.0427 0.206055 68.9372 0.559797 69.6649 1.26728C70.4027 1.97477 70.7716 2.88439 70.7716 3.99615C70.7716 5.10791 70.4027 6.01754 69.6649 6.72502C68.9372 7.43251 68.0427 7.78625 66.9815 7.78625C65.9102 7.78625 65.0107 7.43251 64.283 6.72502C63.5553 6.01754 63.1914 5.10791 63.1914 3.99615C63.1914 2.88439 63.5553 1.97477 64.283 1.26728C65.0107 0.559797 65.9102 0.206055 66.9815 0.206055ZM66.9815 7.16467C67.881 7.16467 68.6239 6.86652 69.2101 6.27021C69.8064 5.66379 70.1045 4.90577 70.1045 3.99615C70.1045 3.08653 69.8064 2.33356 69.2101 1.73725C68.6239 1.13084 67.881 0.827631 66.9815 0.827631C66.0719 0.827631 65.324 1.13084 64.7378 1.73725C64.1516 2.33356 63.8585 3.08653 63.8585 3.99615C63.8585 4.90577 64.1516 5.66379 64.7378 6.27021C65.324 6.86652 66.0719 7.16467 66.9815 7.16467ZM68.3308 3.17749C68.3308 3.85465 68.0832 4.23366 67.5879 4.31452L68.4521 5.90636H67.694L66.9512 4.34484H66.5115V5.90636H65.8445V1.97982H67.2241C67.5374 1.97982 67.8002 2.08089 68.0124 2.28303C68.2247 2.48517 68.3308 2.78332 68.3308 3.17749ZM67.1179 3.82939C67.4818 3.82939 67.6637 3.61209 67.6637 3.17749C67.6637 2.753 67.4868 2.54075 67.1331 2.54075H66.5115V3.82939H67.1179Z" fill="#404040"/>
</svg>
