<svg width="93" height="40" viewBox="0 0 93 40" fill="none" xmlns="http://www.w3.org/2000/svg">
<path d="M6.57712 39.1155C6.06294 39.1201 5.5394 39.1108 5.03924 39.0922C4.61855 39.0783 4.07164 38.9668 3.71639 38.7205C3.2396 38.3906 2.95913 37.8423 2.78151 37.3125C2.50104 36.4761 2.44962 35.556 2.4356 34.6732C2.43093 33.8972 2.65062 32.294 2.11307 31.6574C1.59888 31.044 0.51442 30.9976 0.107747 30.2727C-0.247508 29.6407 0.350816 29.1342 0.813582 28.716C1.22025 28.3489 1.79521 28.0515 2.09904 27.5915C2.41223 27.1129 2.34211 26.8434 2.33744 26.2253C2.30939 22.2895 2.16448 18.3584 2.03828 14.4272C2.04295 13.7256 2.08035 13.0471 2.34679 12.3873C2.55713 11.8668 2.87032 11.3789 3.26297 10.9886C3.6042 10.6494 4.12306 10.3381 4.5718 10.1847C5.06729 10.0174 5.58147 9.95702 6.10968 9.92914C6.40884 9.92914 6.55842 9.92914 6.85759 9.92914C7.38579 9.91985 7.914 10.0221 8.38144 10.1754C8.90497 10.3474 9.33035 10.6029 9.75572 10.97C10.1764 11.3278 10.5083 11.839 10.7514 12.3548C11.0505 13.0007 11.1347 13.6791 11.1861 14.3807C11.2749 17.2664 11.3637 20.1567 11.4245 23.0423C10.3727 23.0516 9.321 23.0655 8.26926 23.0748C8.21316 20.3193 8.12435 17.5638 8.03554 14.8082C7.99347 14.2042 7.96542 13.5536 7.60549 13.0518C7.35775 12.7033 7.03989 12.5267 6.69866 12.5313C6.58647 12.5313 6.53038 12.5313 6.41819 12.5313C6.07229 12.5313 5.76378 12.7033 5.5394 13.0378C5.19817 13.5443 5.20285 14.2599 5.22154 14.8687C5.34308 18.6418 5.47396 22.415 5.50201 26.1882C5.50668 26.7969 5.59082 27.1036 5.26361 27.5729C5.0112 27.9354 4.56713 28.2095 4.23992 28.5023C3.80053 28.8926 3.00588 29.4456 3.20688 30.1379C3.41722 30.8535 4.66062 31.0905 5.1561 31.5831C5.75443 32.1779 5.56745 33.3302 5.60017 34.1388C5.5955 34.8823 5.62354 35.7466 5.96478 36.4157C6.20317 36.8804 6.50233 37.1034 6.84824 37.0988C6.96042 37.0988 7.01652 37.0988 7.1287 37.0988C7.46993 37.0988 7.78312 36.8711 8.02151 36.4111C8.36742 35.7466 8.40481 34.8916 8.40014 34.1434C8.37677 33.5719 8.42819 32.8423 8.316 32.2708C8.19447 31.6435 7.80182 31.4483 7.29231 31.1277C6.11436 30.3888 5.60952 29.9892 6.68931 28.8229C7.75507 28.8136 8.82084 28.8043 9.8866 28.795C8.71332 30.0822 9.44721 30.4214 10.6298 31.2346C11.747 32.0106 11.5367 33.4139 11.5507 34.6732C11.5273 35.5653 11.4759 36.4854 11.1674 37.2986C10.9664 37.833 10.7093 38.372 10.2045 38.7205C9.83986 38.9714 9.27893 39.0783 8.85356 39.0922C8.36274 39.1108 7.84389 39.1201 7.33905 39.1155C7.02586 39.1155 6.87628 39.1155 6.57712 39.1155Z" fill="white"/>
<path d="M22.7741 22.9175C22.7601 23.661 22.7367 24.4324 22.3394 25.0783C22.0777 25.5058 21.6757 25.8589 21.1942 26.0216C21.685 26.1424 22.0777 26.5281 22.3534 26.8905C22.7648 27.4295 21.671 28.41 21.3297 28.726C20.4837 29.6971 20.5211 30.1804 21.5214 30.9332C21.8439 31.1748 22.3301 31.3886 22.5357 31.7603C22.7882 32.211 22.7321 32.8988 22.7975 33.3913C22.9284 34.9805 22.7788 36.6022 23.0172 38.1821C23.1387 38.9674 23.2463 39.0557 23.3397 39.0883C22.2973 39.0883 21.2503 39.0883 20.2079 39.0883C19.7919 38.7909 19.8293 38.1636 19.7965 37.7128C19.689 36.2956 19.7778 34.8179 19.6703 33.3774C19.5161 32.146 19.5254 31.7231 18.4784 31.0075C17.5575 30.3802 17.249 29.9063 17.9548 28.949C18.0623 28.8421 19.8152 27.0438 18.5532 27.1925C17.9922 27.2018 17.436 27.2065 16.875 27.2158C16.3001 27.857 14.3041 29.1395 14.7529 30.2222C15.0847 31.0168 16.3375 31.0912 16.7068 31.8718C17.0854 32.6664 16.9171 34.1348 16.9218 34.9712C16.9265 36.342 16.9171 37.7175 16.9124 39.0883C15.8654 39.0883 14.8183 39.0883 13.7712 39.0883C13.7853 37.4433 13.818 35.7937 13.7899 34.1487C13.7806 33.6283 13.7806 33.0475 13.6871 32.527C13.5422 31.7231 13.3599 31.5466 12.6541 31.0865C11.9061 30.6033 11.1582 30.1665 11.7285 29.2511C12.1305 28.6052 12.9018 28.2148 13.3879 27.634C13.8086 27.1321 13.7292 26.7232 13.7245 26.082C13.6824 20.7707 13.4627 15.4641 13.3365 10.1575C15.0006 10.1529 16.6647 10.1482 18.3288 10.1436C19.4179 10.1389 20.4556 10.5292 21.269 11.2448C22.2319 12.0952 22.5077 13.2987 22.5825 14.5255C22.6526 17.3275 22.7274 20.1202 22.7741 22.9175ZM18.5391 24.9249C19.5768 24.9203 19.647 23.5123 19.6236 22.7781C19.5768 20.1899 19.5021 17.6016 19.4319 15.018C19.3899 14.4186 19.3571 13.7959 19.0112 13.2941C18.7635 12.9316 18.4363 12.7504 18.0623 12.755C17.5622 12.7597 17.062 12.7597 16.5619 12.7643C16.674 16.8256 16.8049 20.8869 16.8563 24.9482C17.4219 24.9389 17.9782 24.9342 18.5391 24.9249Z" fill="white"/>
<path d="M28.9578 29.2831C28.3081 30.18 29.5281 30.8166 30.061 31.2905C30.6359 31.8017 30.664 32.3082 30.7481 33.0331C30.9772 35.0265 30.8556 37.0804 30.8603 39.0878C29.8179 39.0878 28.7755 39.0878 27.7378 39.0878C27.7378 37.0758 27.8453 35.0219 27.6303 33.0191C27.5508 32.2849 27.5228 31.7924 26.9338 31.2905C26.4056 30.8398 25.1341 30.2032 25.7886 29.3064C26.1298 28.3817 27.2143 27.8705 27.1956 26.7971C27.1815 25.9979 26.8871 25.0918 26.7375 24.3111C26.4664 22.8752 26.1906 21.444 25.9101 20.0128C25.2604 16.7183 24.5872 13.4284 23.9375 10.1292C24.9799 10.1245 26.0176 10.1245 27.06 10.1199C27.7752 14.381 28.5278 18.6328 29.2243 22.8938C29.2616 22.8938 29.2803 22.8938 29.3177 22.8938C29.888 18.6328 30.4069 14.367 30.9725 10.1059C32.0149 10.1013 33.0526 10.1013 34.095 10.0966C33.5621 13.3819 33.0573 16.6672 32.5337 19.9524C32.2907 21.4766 32.0476 22.9961 31.7952 24.5202C31.6736 25.2497 31.6596 26.2023 31.3932 26.8947C30.9912 27.917 29.701 28.5582 28.9578 29.2831Z" fill="white"/>
<path d="M40.7477 10.074C41.8274 10.0694 42.8605 10.4504 43.6738 11.1614C44.6274 11.9978 44.8845 13.192 44.9453 14.4002C44.9873 17.8156 45.0341 21.2309 45.0481 24.6463C45.0575 25.873 44.7723 26.8814 43.6318 27.4622C42.5847 27.9966 41.3834 28.215 40.2101 28.229C39.537 28.2336 38.8685 28.2429 38.1954 28.2475C37.4055 29.0096 36.709 29.6973 37.5691 30.6685C38.2141 31.3934 38.7283 31.5189 38.8732 32.5504C39.177 34.7019 39.0695 36.9091 39.0789 39.0838C38.0365 39.0838 36.9941 39.0838 35.9517 39.0838C35.9424 37.4481 35.947 35.8125 35.919 34.1768C35.9096 33.6564 35.8535 33.1592 35.7601 32.6434C35.6152 31.8209 35.5076 31.635 34.8906 31.0635C34.2128 30.4315 33.6613 29.9947 34.2315 29.0793C34.6476 28.4148 35.3814 28.0617 35.7601 27.3554C36.0359 26.8396 35.9844 26.3842 35.9844 25.808C35.9611 20.5664 35.8302 15.3249 35.7507 10.0833C37.4195 10.088 39.0836 10.0833 40.7477 10.074ZM41.7994 14.8834C41.7667 14.2933 41.7433 13.6799 41.4021 13.1827C41.159 12.8296 40.8365 12.6484 40.4625 12.6484C39.967 12.653 39.4715 12.653 38.9714 12.6576C39.0415 17.0721 39.1256 21.4819 39.1397 25.8963C39.6959 25.8916 40.2475 25.8823 40.8037 25.8777C41.8274 25.873 41.9162 24.493 41.9022 23.7588C41.8835 20.7988 41.8415 17.8388 41.7994 14.8834Z" fill="white"/>
<path d="M55.8924 12.5409C54.85 12.5455 53.8122 12.5501 52.7698 12.5548C52.7885 15.1663 52.8166 17.7778 52.8306 20.3892C52.84 21.4905 52.8446 22.5918 52.8446 23.6931C52.8493 24.7061 52.9802 25.8678 52.7839 26.8622C52.5548 28.0285 51.0824 28.4932 50.9655 29.6502C50.8627 30.64 51.9565 30.9792 52.3211 31.7413C52.7138 32.5684 52.6717 33.9346 52.6764 34.8221C52.6904 36.244 52.7184 37.6706 52.7371 39.0925C51.6947 39.0925 50.6523 39.0925 49.61 39.0925C49.5959 37.6706 49.5679 36.244 49.5539 34.8221C49.5445 33.9346 49.6006 32.5545 49.1986 31.732C48.8293 30.9792 47.7028 30.6539 47.7963 29.6642C47.8991 28.5257 49.3856 28.0378 49.638 26.8994C49.8577 25.9189 49.7081 24.734 49.7034 23.7256C49.6988 22.6243 49.6941 21.5184 49.6847 20.4171C49.666 17.801 49.6333 15.1849 49.61 12.5687C48.5722 12.5734 47.5298 12.578 46.4921 12.5827C46.4828 11.7416 46.4734 10.8959 46.4688 10.0548C49.6053 10.0455 52.7418 10.0362 55.8783 10.0223C55.883 10.8634 55.8877 11.7044 55.8924 12.5409Z" fill="white"/>
<path d="M61.6284 39.1163C61.1189 39.1209 60.5954 39.1116 60.0999 39.0884C59.6792 39.0698 59.1276 38.949 58.777 38.6888C58.2722 38.317 58.0151 37.7641 57.8001 37.2111C57.4916 36.4165 57.4261 35.5104 57.3934 34.6507C57.3887 33.6192 57.3607 32.267 56.7997 31.3841C56.3276 30.6406 55.4769 30.2874 55.8742 29.2884C56.1079 28.7075 56.6455 28.4334 57.0054 27.9687C57.3046 27.5784 57.5149 27.202 57.5897 26.6815C57.73 25.6593 57.5944 24.5301 57.5897 23.4939C57.5804 19.0004 57.543 14.5117 57.5243 10.0183C58.5807 10.0136 59.6324 10.0136 60.6889 10.009C60.7029 14.4187 60.7309 18.8285 60.7356 23.2383C60.7356 24.2141 60.7403 25.1899 60.7356 26.1704C60.7309 26.6583 60.6842 27.3321 60.4037 27.7642C60.0625 28.2893 59.3753 28.5263 59.0996 29.1536C58.7256 29.9993 59.1276 30.4687 59.6745 31.1099C60.385 31.937 60.4832 33.1545 60.5159 34.2232C60.5252 34.9063 60.5813 35.7009 60.9179 36.3143C61.175 36.779 61.4741 37.0067 61.8154 37.0067C61.9276 37.0067 61.9837 37.0067 62.0958 37.0067C62.4371 37.0067 62.7409 36.7697 62.9653 36.3096C63.2644 35.6963 63.3159 34.9156 63.3065 34.2279C63.2738 33.1684 63.1616 31.937 62.4745 31.1099C61.9322 30.4594 61.5536 29.9807 61.9322 29.1397C62.2127 28.5124 62.9139 28.2707 63.2457 27.741C63.5075 27.3182 63.5356 26.6165 63.5356 26.1425C63.5402 25.1667 63.5402 24.1909 63.5402 23.2197C63.5402 18.8146 63.5169 14.4141 63.5075 10.009C64.5639 10.0043 65.6203 10.0043 66.6768 9.99966C66.6814 14.4699 66.7001 18.9354 66.7001 23.4056C66.7001 24.4557 66.7796 25.5338 66.6955 26.5747C66.6534 27.1276 66.5365 27.4576 66.2327 27.8851C65.8821 28.373 65.3259 28.6471 65.0781 29.2419C64.6668 30.2456 65.438 30.6081 65.8774 31.398C66.3776 32.2948 66.443 33.6331 66.4524 34.66C66.4711 35.5104 66.3963 36.4258 66.1299 37.2065C65.9476 37.7548 65.7092 38.317 65.2137 38.6934C64.8631 38.9583 64.2975 39.0791 63.8768 39.0931C63.386 39.1116 62.8718 39.1209 62.3716 39.1209C62.0725 39.1163 61.9276 39.1163 61.6284 39.1163Z" fill="white"/>
<path d="M74.8568 22.3273C74.8568 19.6926 74.8568 17.0532 74.8568 14.4185C74.8334 13.8377 74.8287 13.2103 74.4828 12.7317C74.2444 12.3972 73.9359 12.2299 73.59 12.2299C73.4778 12.2299 73.4217 12.2299 73.3096 12.2299C72.9637 12.2299 72.6505 12.3972 72.4167 12.7178C72.0662 13.1964 72.0428 13.8888 72.0428 14.4789C72.0428 15.7846 72.0428 17.0904 72.0475 18.3961C72.0475 19.6786 72.3186 20.9797 72.9823 22.081C73.2815 22.5829 73.389 22.6433 75.0391 25.0921C75.3102 25.4964 75.5813 25.9053 75.7215 26.5094C75.9039 27.2854 75.7169 27.7082 75.7402 28.3634C75.7589 28.9536 75.9553 29.79 76.7499 30.7983C77.5679 31.8346 77.7549 33.3448 77.7736 34.6505C77.797 35.4962 77.7362 36.4023 77.4931 37.183C77.3202 37.7406 77.0912 38.3122 76.5816 38.6839C76.2264 38.9441 75.6655 39.0696 75.2354 39.0882C74.7306 39.1114 74.207 39.116 73.6929 39.116C73.4311 39.116 73.3002 39.116 73.0384 39.116C72.5243 39.116 72.0007 39.1114 71.4959 39.0882C71.0518 39.0696 70.4862 38.9395 70.1076 38.6839C69.57 38.3214 69.2942 37.7638 69.0652 37.1969C68.752 36.4209 68.6585 35.5055 68.6398 34.6552C68.6305 33.6096 68.5463 32.118 67.9433 31.2351C67.13 30.0456 66.9056 29.5577 67.9527 28.303C68.9296 28.2937 69.9113 28.2844 70.8882 28.2751C69.9674 29.3857 69.8739 29.9619 70.7199 31.0911C71.3089 31.881 71.4959 33.2379 71.5286 34.2323C71.5426 34.9061 71.6595 35.71 71.9867 36.2862C72.169 36.6114 72.6131 36.9925 73.0291 36.9785C73.1226 36.9785 73.1693 36.9785 73.2628 36.9785C73.6648 36.9785 74.0107 36.7415 74.2444 36.2815C74.5483 35.6867 74.609 34.9154 74.595 34.2369C74.6605 33.5028 74.3286 31.6348 73.8237 31.119C73.2067 30.3941 72.6645 29.5391 72.8 28.54C72.8889 27.8848 73.2488 27.7315 72.8982 27.1181C72.6084 26.6023 72.2251 26.1283 71.8698 25.659C71.1313 24.6878 70.4441 23.6841 69.8178 22.6433C69.1353 21.5048 68.9203 20.2177 68.8829 18.9073C68.8829 17.2902 68.8782 15.6731 68.8735 14.056C68.9016 13.373 68.9624 12.7224 69.2428 12.0905C69.4719 11.5793 69.8038 11.0868 70.2245 10.7429C70.6218 10.4176 71.0752 10.1295 71.58 9.9669C72.0802 9.80426 72.5944 9.7485 73.1273 9.72062C73.3142 9.72062 73.4077 9.72062 73.5947 9.72062C74.0808 9.71132 74.6371 9.81355 75.0905 9.9576C75.5953 10.1156 76.0488 10.399 76.4508 10.7197C76.8668 11.0589 77.194 11.5468 77.409 12.0533C77.6754 12.6806 77.7315 13.3312 77.7596 14.0049C77.7596 16.7698 77.7596 19.5299 77.7596 22.2948C76.7967 22.3087 75.8244 22.318 74.8568 22.3273Z" fill="white"/>
<path d="M87.7546 0.858215C89.1449 0.858215 90.3168 1.32166 91.2702 2.24856C92.2368 3.17546 92.7201 4.36718 92.7201 5.82373C92.7201 7.28028 92.2368 8.47201 91.2702 9.3989C90.3168 10.3258 89.1449 10.7892 87.7546 10.7892C86.351 10.7892 85.1725 10.3258 84.2191 9.3989C83.2658 8.47201 82.7891 7.28028 82.7891 5.82373C82.7891 4.36718 83.2658 3.17546 84.2191 2.24856C85.1725 1.32166 86.351 0.858215 87.7546 0.858215ZM87.7546 9.97491C88.9331 9.97491 89.9063 9.58428 90.6743 8.80304C91.4555 8.00856 91.8462 7.01546 91.8462 5.82373C91.8462 4.63201 91.4555 3.64553 90.6743 2.86428C89.9063 2.0698 88.9331 1.67256 87.7546 1.67256C86.5629 1.67256 85.583 2.0698 84.815 2.86428C84.047 3.64553 83.663 4.63201 83.663 5.82373C83.663 7.01546 84.047 8.00856 84.815 8.80304C85.583 9.58428 86.5629 9.97491 87.7546 9.97491ZM89.5223 4.75118C89.5223 5.63835 89.1979 6.1349 88.5491 6.24084L89.6812 8.32635H88.6881L87.7149 6.28056H87.1389V8.32635H86.2649V3.18208H88.0724C88.4829 3.18208 88.8271 3.31449 89.1052 3.57932C89.3833 3.84415 89.5223 4.23477 89.5223 4.75118ZM87.9333 5.60525C88.41 5.60525 88.6484 5.32056 88.6484 4.75118C88.6484 4.19504 88.4166 3.91697 87.9532 3.91697H87.1389V5.60525H87.9333Z" fill="white"/>
</svg>
