<svg width="48" height="48" viewBox="0 0 48 48" fill="none" xmlns="http://www.w3.org/2000/svg">
<path d="M0 3H0.082C0.062 3.02 0.02 3.062 0 3.082V3Z" fill="#FF0707"/>
<path d="M2.362 8.40399C7.446 8.33399 12.536 8.33599 17.62 8.40399C17.618 8.73399 17.618 9.06399 17.618 9.39399C16.59 9.46799 15.506 9.32799 14.532 9.73999C13.756 9.99599 14.124 11.006 14.026 11.618C11.344 12.608 9.286 14.986 8.54 17.73L8.484 17.88C7.398 15.508 6.538 13.02 5.216 10.762C4.654 9.75999 3.45 9.53599 2.42 9.33199C2.4 9.02199 2.38 8.71399 2.362 8.40399Z" fill="#D4BEF4"/>
<path d="M25.764 8.40397C29.254 8.33797 32.752 8.32797 36.242 8.40797C36.392 9.07197 36.018 9.51597 35.374 9.61997C34.016 10.048 33.006 11.144 32.36 12.374C31.228 14.088 30.53 16.032 29.648 17.876C28.888 19.636 27.98 21.338 27.374 23.162C27.23 23.59 26.996 23.98 26.734 24.346C25.896 25.42 25.504 26.74 24.928 27.954C24.324 29.352 23.56 30.686 23.148 32.16C22.03 35.022 20.666 37.792 19.412 40.598C19.236 41.198 18.344 41.192 18.21 40.572C16.872 37.504 15.574 34.416 14.242 31.348C14.266 27.5 14.232 23.65 14.25 19.802C14.21 18.588 15.006 17.566 15.982 16.938C17.644 20.482 19.06 24.134 20.75 27.666C21.034 28.602 21.31 29.562 21.85 30.388C22.326 30.462 22.362 29.828 22.568 29.53C23.874 26.344 25.452 23.272 26.672 20.052C27.84 17.358 29.466 14.758 29.896 11.814C29.78 9.75397 27.45 9.30397 25.784 9.37397C25.776 9.04997 25.768 8.72797 25.764 8.40397Z" fill="#D4BEF4"/>
<path d="M14.026 11.618C16.048 10.89 18.312 10.72 20.368 11.424C24.03 12.582 26.664 16.216 26.672 20.052C25.452 23.272 23.874 26.344 22.568 29.53C22.362 29.828 22.326 30.462 21.85 30.388C21.31 29.562 21.034 28.602 20.75 27.666C20.848 25.444 20.768 23.22 20.814 20.998C20.824 19.798 20.762 18.44 19.866 17.532C18.896 16.472 17.234 16.312 15.982 16.938C15.006 17.566 14.21 18.588 14.25 19.802C14.232 23.65 14.266 27.5 14.242 31.348C14.214 31.626 14.178 31.902 14.138 32.178C12.166 32.224 10.192 32.216 8.21997 32.178C8.14997 28.52 8.24797 24.86 8.17197 21.202C8.14397 20.034 8.37197 18.88 8.53997 17.73C9.28597 14.986 11.344 12.608 14.026 11.618Z" fill="#742DDB"/>
<path d="M32.36 12.374C36.418 10.974 40.76 11.39 44.97 11.434C45.032 13.414 45.014 15.398 44.978 17.38C42.122 17.442 39.264 17.376 36.408 17.4C35.154 17.442 33.778 18.054 33.284 19.28C32.516 21.244 32.522 23.754 34.036 25.368C35.06 26.45 36.66 26.152 37.996 26.176C40.32 26.21 42.648 26.096 44.97 26.234C45.032 28.214 45.014 30.198 44.978 32.178C42.588 32.248 40.196 32.156 37.804 32.224C35.13 32.278 32.292 31.588 30.336 29.662C28.514 28.012 27.47 25.608 27.374 23.162C27.98 21.338 28.888 19.636 29.648 17.876C30.53 16.032 31.228 14.088 32.36 12.374Z" fill="#742DDB"/>
<path d="M24.9279 27.954C25.5039 26.74 25.8959 25.42 26.7339 24.346C26.8939 26.948 26.8579 29.566 26.7659 32.17C25.5619 32.234 24.3519 32.23 23.1479 32.16C23.5599 30.686 24.3239 29.352 24.9279 27.954Z" fill="#742DDB"/>
<path d="M24.18 34.98C31.126 34.94 38.074 34.94 45.018 34.98C45.068 36.392 45.068 37.806 45.018 39.218C38.074 39.26 31.126 39.262 24.182 39.218C24.132 37.806 24.132 36.392 24.18 34.98Z" fill="#742DDB"/>
</svg>
