<svg width="16" height="16" viewBox="0 0 16 16" fill="none" xmlns="http://www.w3.org/2000/svg">
<g clip-path="url(#clip0)">
<path d="M14.619 13.4953L13.4744 11.5873C12.9457 10.7067 12.6664 9.698 12.6664 8.67134V7C12.6664 4.89 11.2584 3.10534 9.33302 2.53V1.33334C9.33302 0.598 8.73502 0 7.99968 0C7.26433 0 6.66633 0.598 6.66633 1.33334V2.53C4.74102 3.10534 3.33302 4.89 3.33302 7V8.67134C3.33302 9.698 3.05368 10.706 2.52568 11.5867L1.38102 13.4947C1.31902 13.598 1.31768 13.726 1.37702 13.8307C1.43637 13.9353 1.54637 14 1.66637 14H14.333C14.453 14 14.5637 13.9354 14.623 13.8314C14.6824 13.7273 14.6804 13.598 14.619 13.4953Z" fill="white"/>
<path d="M5.90051 14.6665C6.27651 15.4518 7.07251 15.9998 7.99983 15.9998C8.92714 15.9998 9.72317 15.4518 10.0992 14.6665H5.90051Z" fill="white"/>
</g>
<defs>
<clipPath id="clip0">
<rect width="16" height="16" fill="white"/>
</clipPath>
</defs>
</svg>
