<svg width="112" height="112" viewBox="0 0 112 112" fill="none" xmlns="http://www.w3.org/2000/svg">
<path d="M65.4031 86.9949C66.9402 86.3248 67.5797 85.3437 68.0418 84.7664C72.1905 79.5846 63.3387 64.2039 50.7013 55.304C37.3075 43.6414 22.5601 39.6673 18.4115 44.8492C17.6994 45.7386 17.1414 46.95 16.909 48.3172L9.03397 93.6258C8.76054 99.1492 10.8716 101.248 11.9281 102.273C13.8425 104.132 17.5652 105.712 21.448 104.345C36.4324 98.575 50.4701 93.5051 65.4031 86.9949Z" fill="url(#paint0_linear_8855_1607)"/>
<path d="M65.4031 86.9949C66.9402 86.3248 67.5797 85.3437 68.0418 84.7664C72.1905 79.5846 63.3387 64.2039 50.7013 55.304C37.3075 43.6414 22.5601 39.6673 18.4115 44.8492C17.6994 45.7386 17.1414 46.95 16.909 48.3172L9.03397 93.6258C8.76054 99.1492 10.8716 101.248 11.9281 102.273C13.8425 104.132 17.5652 105.712 21.448 104.345C36.4324 98.575 50.4701 93.5051 65.4031 86.9949Z" fill="url(#paint1_linear_8855_1607)"/>
<path d="M65.4031 86.9949C66.9402 86.3248 67.5797 85.3437 68.0418 84.7664C72.1905 79.5846 63.3387 64.2039 50.7013 55.304C37.3075 43.6414 22.5601 39.6673 18.4115 44.8492C17.6994 45.7386 17.1414 46.95 16.909 48.3172L9.03397 93.6258C8.76054 99.1492 10.8716 101.248 11.9281 102.273C13.8425 104.132 17.5652 105.712 21.448 104.345C36.4324 98.575 50.4701 93.5051 65.4031 86.9949Z" fill="url(#paint2_linear_8855_1607)"/>
<path d="M65.4031 86.9949C66.9402 86.3248 67.5797 85.3437 68.0418 84.7664C72.1905 79.5846 63.3387 64.2039 50.7013 55.304C37.3075 43.6414 22.5601 39.6673 18.4115 44.8492C17.6994 45.7386 17.1414 46.95 16.909 48.3172L9.03397 93.6258C8.76054 99.1492 10.8716 101.248 11.9281 102.273C13.8425 104.132 17.5652 105.712 21.448 104.345C36.4324 98.575 50.4701 93.5051 65.4031 86.9949Z" fill="url(#paint3_linear_8855_1607)"/>
<path d="M65.4031 86.9949C66.9402 86.3248 67.5797 85.3437 68.0418 84.7664C72.1905 79.5846 63.3387 64.2039 50.7013 55.304C37.3075 43.6414 22.5601 39.6673 18.4115 44.8492C17.6994 45.7386 17.1414 46.95 16.909 48.3172L9.03397 93.6258C8.76054 99.1492 10.8716 101.248 11.9281 102.273C13.8425 104.132 17.5652 105.712 21.448 104.345C36.4324 98.575 50.4701 93.5051 65.4031 86.9949Z" fill="url(#paint4_radial_8855_1607)"/>
<ellipse cx="43.9413" cy="63.6549" rx="28.4558" ry="10.2037" transform="rotate(39.7456 43.9413 63.6549)" fill="url(#paint5_linear_8855_1607)"/>
<ellipse cx="43.9413" cy="63.6549" rx="28.4558" ry="10.2037" transform="rotate(39.7456 43.9413 63.6549)" fill="url(#paint6_radial_8855_1607)"/>
<ellipse cx="43.9413" cy="63.6549" rx="28.4558" ry="10.2037" transform="rotate(39.7456 43.9413 63.6549)" fill="url(#paint7_radial_8855_1607)"/>
<circle cx="52.3457" cy="56" r="4.21094" fill="url(#paint8_radial_8855_1607)"/>
<circle cx="52.3457" cy="56" r="4.21094" fill="url(#paint9_radial_8855_1607)"/>
<circle cx="86.9082" cy="80.1719" r="4.21094" fill="url(#paint10_radial_8855_1607)"/>
<circle cx="86.9082" cy="80.1719" r="4.21094" fill="url(#paint11_radial_8855_1607)"/>
<circle cx="86.9082" cy="80.1719" r="4.21094" fill="url(#paint12_radial_8855_1607)"/>
<circle cx="83.3809" cy="24.5547" r="4.21094" fill="url(#paint13_radial_8855_1607)"/>
<circle cx="83.3809" cy="24.5547" r="4.21094" fill="url(#paint14_radial_8855_1607)"/>
<circle cx="34.9688" cy="11.7852" r="4.21094" fill="url(#paint15_radial_8855_1607)"/>
<circle cx="34.9688" cy="11.7852" r="4.21094" fill="url(#paint16_radial_8855_1607)"/>
<circle cx="34.9688" cy="11.7852" r="4.21094" fill="url(#paint17_radial_8855_1607)"/>
<circle cx="17.25" cy="28.3828" r="4.21094" fill="url(#paint18_radial_8855_1607)"/>
<circle cx="17.25" cy="28.3828" r="4.21094" fill="url(#paint19_radial_8855_1607)"/>
<path fill-rule="evenodd" clip-rule="evenodd" d="M66.8651 7.28885C68.6994 7.37462 70.1169 8.93117 70.0312 10.7655C69.9131 13.2911 69.4534 17.4983 68.3563 21.9923C67.4393 25.7487 66.0274 29.9151 63.8534 33.4871C64.3791 36.2738 64.3932 39.562 63.8162 43.301C63.5361 45.1159 61.8378 46.36 60.0229 46.0799C58.208 45.7998 56.9639 44.1015 57.244 42.2866C57.3731 41.4501 57.4646 40.6667 57.5235 39.9335C56.8782 40.27 56.2171 40.5338 55.5424 40.7223C52.9065 41.4588 50.3784 40.9484 48.4009 39.631C44.644 37.1283 42.9117 31.6516 45.8197 27.1741C48.5861 22.9147 54.3518 21.7567 58.7361 24.7871C59.2416 25.1366 59.7164 25.5303 60.1587 25.9671C60.8583 24.1982 61.4333 22.3106 61.896 20.4152C62.8801 16.384 63.2879 12.6052 63.3884 10.4549C63.4742 8.62059 65.0307 7.20309 66.8651 7.28885ZM56.5501 32.2806C56.0453 31.2295 55.4458 30.5968 54.9549 30.2575C53.5833 29.3095 52.0756 29.751 51.3967 30.7963C50.6687 31.9172 51.0537 33.4078 52.0877 34.0966C52.5057 34.3751 53.0416 34.5164 53.7529 34.3176C54.3965 34.1378 55.3816 33.6155 56.5501 32.2806Z" fill="url(#paint20_linear_8855_1607)"/>
<path fill-rule="evenodd" clip-rule="evenodd" d="M66.8651 7.28885C68.6994 7.37462 70.1169 8.93117 70.0312 10.7655C69.9131 13.2911 69.4534 17.4983 68.3563 21.9923C67.4393 25.7487 66.0274 29.9151 63.8534 33.4871C64.3791 36.2738 64.3932 39.562 63.8162 43.301C63.5361 45.1159 61.8378 46.36 60.0229 46.0799C58.208 45.7998 56.9639 44.1015 57.244 42.2866C57.3731 41.4501 57.4646 40.6667 57.5235 39.9335C56.8782 40.27 56.2171 40.5338 55.5424 40.7223C52.9065 41.4588 50.3784 40.9484 48.4009 39.631C44.644 37.1283 42.9117 31.6516 45.8197 27.1741C48.5861 22.9147 54.3518 21.7567 58.7361 24.7871C59.2416 25.1366 59.7164 25.5303 60.1587 25.9671C60.8583 24.1982 61.4333 22.3106 61.896 20.4152C62.8801 16.384 63.2879 12.6052 63.3884 10.4549C63.4742 8.62059 65.0307 7.20309 66.8651 7.28885ZM56.5501 32.2806C56.0453 31.2295 55.4458 30.5968 54.9549 30.2575C53.5833 29.3095 52.0756 29.751 51.3967 30.7963C50.6687 31.9172 51.0537 33.4078 52.0877 34.0966C52.5057 34.3751 53.0416 34.5164 53.7529 34.3176C54.3965 34.1378 55.3816 33.6155 56.5501 32.2806Z" fill="url(#paint21_radial_8855_1607)"/>
<path fill-rule="evenodd" clip-rule="evenodd" d="M66.8651 7.28885C68.6994 7.37462 70.1169 8.93117 70.0312 10.7655C69.9131 13.2911 69.4534 17.4983 68.3563 21.9923C67.4393 25.7487 66.0274 29.9151 63.8534 33.4871C64.3791 36.2738 64.3932 39.562 63.8162 43.301C63.5361 45.1159 61.8378 46.36 60.0229 46.0799C58.208 45.7998 56.9639 44.1015 57.244 42.2866C57.3731 41.4501 57.4646 40.6667 57.5235 39.9335C56.8782 40.27 56.2171 40.5338 55.5424 40.7223C52.9065 41.4588 50.3784 40.9484 48.4009 39.631C44.644 37.1283 42.9117 31.6516 45.8197 27.1741C48.5861 22.9147 54.3518 21.7567 58.7361 24.7871C59.2416 25.1366 59.7164 25.5303 60.1587 25.9671C60.8583 24.1982 61.4333 22.3106 61.896 20.4152C62.8801 16.384 63.2879 12.6052 63.3884 10.4549C63.4742 8.62059 65.0307 7.20309 66.8651 7.28885ZM56.5501 32.2806C56.0453 31.2295 55.4458 30.5968 54.9549 30.2575C53.5833 29.3095 52.0756 29.751 51.3967 30.7963C50.6687 31.9172 51.0537 33.4078 52.0877 34.0966C52.5057 34.3751 53.0416 34.5164 53.7529 34.3176C54.3965 34.1378 55.3816 33.6155 56.5501 32.2806Z" fill="url(#paint22_radial_8855_1607)"/>
<path fill-rule="evenodd" clip-rule="evenodd" d="M66.8651 7.28885C68.6994 7.37462 70.1169 8.93117 70.0312 10.7655C69.9131 13.2911 69.4534 17.4983 68.3563 21.9923C67.4393 25.7487 66.0274 29.9151 63.8534 33.4871C64.3791 36.2738 64.3932 39.562 63.8162 43.301C63.5361 45.1159 61.8378 46.36 60.0229 46.0799C58.208 45.7998 56.9639 44.1015 57.244 42.2866C57.3731 41.4501 57.4646 40.6667 57.5235 39.9335C56.8782 40.27 56.2171 40.5338 55.5424 40.7223C52.9065 41.4588 50.3784 40.9484 48.4009 39.631C44.644 37.1283 42.9117 31.6516 45.8197 27.1741C48.5861 22.9147 54.3518 21.7567 58.7361 24.7871C59.2416 25.1366 59.7164 25.5303 60.1587 25.9671C60.8583 24.1982 61.4333 22.3106 61.896 20.4152C62.8801 16.384 63.2879 12.6052 63.3884 10.4549C63.4742 8.62059 65.0307 7.20309 66.8651 7.28885ZM56.5501 32.2806C56.0453 31.2295 55.4458 30.5968 54.9549 30.2575C53.5833 29.3095 52.0756 29.751 51.3967 30.7963C50.6687 31.9172 51.0537 33.4078 52.0877 34.0966C52.5057 34.3751 53.0416 34.5164 53.7529 34.3176C54.3965 34.1378 55.3816 33.6155 56.5501 32.2806Z" fill="url(#paint23_radial_8855_1607)"/>
<path d="M55.8341 91.0312C46.7132 90.3975 40.3159 87.6676 29.9515 79.1045C21.0355 71.7381 16.609 65.2031 15.1316 58.5391L13.4199 68.387C14.1195 72.2412 17.1273 77.6279 23.0882 83.0147C30.8845 90.0599 38.6468 95.0459 46.3232 94.8274C49.4826 93.5936 52.6465 92.3357 55.8341 91.0312Z" fill="url(#paint24_radial_8855_1607)"/>
<path d="M36.5989 98.5708C32.2153 98.8152 26.2869 95.2389 20.1346 90.1256C14.8846 85.5865 12.2949 80.6551 11.7499 77.9941L10.0117 87.9948C10.4417 89.6854 11.7511 91.9832 15.5408 95.8678C19.7786 100.212 24.0402 101.902 26.571 102.383C28.3667 101.698 30.1516 101.02 31.929 100.346C33.4907 99.7527 35.0466 99.1619 36.5989 98.5708Z" fill="url(#paint25_radial_8855_1607)"/>
<path fill-rule="evenodd" clip-rule="evenodd" d="M97.6618 45.8813C85.0693 43.4213 77.6284 49.1902 75.2698 51.7775C73.9025 53.2775 71.5781 53.385 70.0781 52.0176C68.5782 50.6503 68.4707 48.3259 69.838 46.8259C73.4951 42.8143 83.3901 35.6043 99.071 38.6676C101.063 39.0568 102.362 40.9871 101.973 42.9791C101.584 44.971 99.6538 46.2704 97.6618 45.8813Z" fill="url(#paint26_radial_8855_1607)"/>
<path fill-rule="evenodd" clip-rule="evenodd" d="M97.6618 45.8813C85.0693 43.4213 77.6284 49.1902 75.2698 51.7775C73.9025 53.2775 71.5781 53.385 70.0781 52.0176C68.5782 50.6503 68.4707 48.3259 69.838 46.8259C73.4951 42.8143 83.3901 35.6043 99.071 38.6676C101.063 39.0568 102.362 40.9871 101.973 42.9791C101.584 44.971 99.6538 46.2704 97.6618 45.8813Z" fill="url(#paint27_radial_8855_1607)"/>
<path d="M44.9922 28.7397C45.2071 28.2084 45.4787 27.6841 45.8107 27.1729C48.5771 22.9135 54.3428 21.7554 58.7271 24.7858C59.2326 25.1353 59.7074 25.529 60.1497 25.9658C60.2927 25.6044 60.4304 25.238 60.563 24.8676C60.5696 24.89 60.576 24.9123 60.5824 24.9345C59.6818 27.7714 57.6608 30.8082 56.5382 32.2734C56.0341 31.2258 55.4359 30.5949 54.9459 30.2562C53.5743 29.3082 52.0666 29.7497 51.3877 30.795C51.3613 30.8357 51.3363 30.8768 51.3128 30.9184L44.9922 28.7397Z" fill="url(#paint28_radial_8855_1607)"/>
<path d="M44.9922 28.7397C45.2071 28.2084 45.4787 27.6841 45.8107 27.1729C48.5771 22.9135 54.3428 21.7554 58.7271 24.7858C59.2326 25.1353 59.7074 25.529 60.1497 25.9658C60.2927 25.6044 60.4304 25.238 60.563 24.8676C60.5696 24.89 60.576 24.9123 60.5824 24.9345C59.6818 27.7714 57.6608 30.8082 56.5382 32.2734C56.0341 31.2258 55.4359 30.5949 54.9459 30.2562C53.5743 29.3082 52.0666 29.7497 51.3877 30.795C51.3613 30.8357 51.3363 30.8768 51.3128 30.9184L44.9922 28.7397Z" fill="url(#paint29_radial_8855_1607)"/>
<path fill-rule="evenodd" clip-rule="evenodd" d="M48.4447 79.1219C46.0499 77.7978 43.5537 76.1942 41.043 74.3428C44.8452 69.6298 51.6373 63.4484 60.4931 58.9845C75.0441 51.6497 91.088 55.6307 97.6254 58.2224C99.8716 59.1128 100.971 61.6556 100.08 63.9018C99.1897 66.1479 96.647 67.247 94.4008 66.3565C88.7976 64.1353 75.6948 61.1205 64.4316 66.798C57.0028 70.5426 51.4792 75.577 48.4447 79.1219Z" fill="url(#paint30_linear_8855_1607)"/>
<path fill-rule="evenodd" clip-rule="evenodd" d="M48.4447 79.1219C46.0499 77.7978 43.5537 76.1942 41.043 74.3428C44.8452 69.6298 51.6373 63.4484 60.4931 58.9845C75.0441 51.6497 91.088 55.6307 97.6254 58.2224C99.8716 59.1128 100.971 61.6556 100.08 63.9018C99.1897 66.1479 96.647 67.247 94.4008 66.3565C88.7976 64.1353 75.6948 61.1205 64.4316 66.798C57.0028 70.5426 51.4792 75.577 48.4447 79.1219Z" fill="url(#paint31_radial_8855_1607)"/>
<path fill-rule="evenodd" clip-rule="evenodd" d="M48.4447 79.1219C46.0499 77.7978 43.5537 76.1942 41.043 74.3428C44.8452 69.6298 51.6373 63.4484 60.4931 58.9845C75.0441 51.6497 91.088 55.6307 97.6254 58.2224C99.8716 59.1128 100.971 61.6556 100.08 63.9018C99.1897 66.1479 96.647 67.247 94.4008 66.3565C88.7976 64.1353 75.6948 61.1205 64.4316 66.798C57.0028 70.5426 51.4792 75.577 48.4447 79.1219Z" fill="url(#paint32_radial_8855_1607)"/>
<path fill-rule="evenodd" clip-rule="evenodd" d="M48.4447 79.1219C46.0499 77.7978 43.5537 76.1942 41.043 74.3428C44.8452 69.6298 51.6373 63.4484 60.4931 58.9845C75.0441 51.6497 91.088 55.6307 97.6254 58.2224C99.8716 59.1128 100.971 61.6556 100.08 63.9018C99.1897 66.1479 96.647 67.247 94.4008 66.3565C88.7976 64.1353 75.6948 61.1205 64.4316 66.798C57.0028 70.5426 51.4792 75.577 48.4447 79.1219Z" fill="url(#paint33_radial_8855_1607)"/>
<path fill-rule="evenodd" clip-rule="evenodd" d="M35.6714 23.2876C34.4965 21.1762 31.8325 20.417 29.7211 21.5919C27.6097 22.7668 26.8506 25.4308 28.0254 27.5422C29.7996 30.7305 31.9841 35.2315 32.2637 41.027C32.5073 46.0778 31.318 52.4838 26.4824 60.1679C28.1555 62.3822 30.176 64.6769 32.4871 66.9559C39.3047 57.0387 41.3677 48.1561 41.0035 40.6054C40.6268 32.7975 37.6707 26.8805 35.6714 23.2876Z" fill="url(#paint34_radial_8855_1607)"/>
<path fill-rule="evenodd" clip-rule="evenodd" d="M35.6714 23.2876C34.4965 21.1762 31.8325 20.417 29.7211 21.5919C27.6097 22.7668 26.8506 25.4308 28.0254 27.5422C29.7996 30.7305 31.9841 35.2315 32.2637 41.027C32.5073 46.0778 31.318 52.4838 26.4824 60.1679C28.1555 62.3822 30.176 64.6769 32.4871 66.9559C39.3047 57.0387 41.3677 48.1561 41.0035 40.6054C40.6268 32.7975 37.6707 26.8805 35.6714 23.2876Z" fill="url(#paint35_radial_8855_1607)"/>
<path d="M63.8447 33.4883C64.3699 36.2743 64.3837 39.5615 63.8069 43.2992C63.5268 45.114 61.8285 46.3582 60.0136 46.0781C58.1987 45.798 56.9546 44.0997 57.2347 42.2848C57.3636 41.4498 57.455 40.6678 57.5139 39.9357C60.9507 37.7779 63.2198 34.9068 63.8447 33.4883Z" fill="#44B6FF"/>
<path d="M63.8447 33.4883C64.3699 36.2743 64.3837 39.5615 63.8069 43.2992C63.5268 45.114 61.8285 46.3582 60.0136 46.0781C58.1987 45.798 56.9546 44.0997 57.2347 42.2848C57.3636 41.4498 57.455 40.6678 57.5139 39.9357C60.9507 37.7779 63.2198 34.9068 63.8447 33.4883Z" fill="url(#paint36_radial_8855_1607)"/>
<defs>
<linearGradient id="paint0_linear_8855_1607" x1="14.7762" y1="69.9461" x2="42.9949" y2="94.4461" gradientUnits="userSpaceOnUse">
<stop stop-color="#B3843C"/>
<stop offset="1" stop-color="#F17A61"/>
</linearGradient>
<linearGradient id="paint1_linear_8855_1607" x1="11.658" y1="73.7377" x2="19.9168" y2="75.4149" gradientUnits="userSpaceOnUse">
<stop stop-color="#B1853B"/>
<stop offset="1" stop-color="#B1853B" stop-opacity="0"/>
</linearGradient>
<linearGradient id="paint2_linear_8855_1607" x1="69.0758" y1="83.3992" x2="55.1355" y2="85.6961" gradientUnits="userSpaceOnUse">
<stop stop-color="#F9C26C"/>
<stop offset="1" stop-color="#F9C26C" stop-opacity="0"/>
</linearGradient>
<linearGradient id="paint3_linear_8855_1607" x1="39.0428" y1="43.368" x2="30.0887" y2="58.5711" gradientUnits="userSpaceOnUse">
<stop stop-color="#E6BF69"/>
<stop offset="1" stop-color="#E6BF69" stop-opacity="0"/>
</linearGradient>
<radialGradient id="paint4_radial_8855_1607" cx="0" cy="0" r="1" gradientUnits="userSpaceOnUse" gradientTransform="translate(44.1113 62.6723) rotate(-49.3383) scale(15.2366 35.7071)">
<stop stop-color="#F5BD55" stop-opacity="0"/>
<stop offset="0.836376" stop-color="#FCCB57"/>
<stop offset="1" stop-color="#FCCB57" stop-opacity="0"/>
</radialGradient>
<linearGradient id="paint5_linear_8855_1607" x1="18.0164" y1="62.5271" x2="75.6961" y2="65.3463" gradientUnits="userSpaceOnUse">
<stop stop-color="#F3AB2C"/>
<stop offset="1" stop-color="#B57F1E"/>
</linearGradient>
<radialGradient id="paint6_radial_8855_1607" cx="0" cy="0" r="1" gradientUnits="userSpaceOnUse" gradientTransform="translate(29.588 71.8239) rotate(-109.125) scale(22.6713 6.34996)">
<stop offset="0.423414" stop-color="#CA851E"/>
<stop offset="1" stop-color="#CA851E" stop-opacity="0"/>
</radialGradient>
<radialGradient id="paint7_radial_8855_1607" cx="0" cy="0" r="1" gradientUnits="userSpaceOnUse" gradientTransform="translate(53.3245 72.1428) rotate(-73.0972) scale(22.7834 13.3422)">
<stop stop-color="#BC7F28"/>
<stop offset="1" stop-color="#BC7F28" stop-opacity="0"/>
</radialGradient>
<radialGradient id="paint8_radial_8855_1607" cx="0" cy="0" r="1" gradientUnits="userSpaceOnUse" gradientTransform="translate(54.2051 54.8516) rotate(138.668) scale(6.04489)">
<stop stop-color="#5AC0FF"/>
<stop offset="1" stop-color="#3279B6"/>
</radialGradient>
<radialGradient id="paint9_radial_8855_1607" cx="0" cy="0" r="1" gradientUnits="userSpaceOnUse" gradientTransform="translate(53.1741 55.4198) rotate(160.051) scale(6.07035 6.65387)">
<stop offset="0.534713" stop-color="#3A619E" stop-opacity="0"/>
<stop offset="1" stop-color="#3A619E"/>
</radialGradient>
<radialGradient id="paint10_radial_8855_1607" cx="0" cy="0" r="1" gradientUnits="userSpaceOnUse" gradientTransform="translate(89.3482 78.3924) rotate(134.569) scale(6.92135)">
<stop stop-color="#FDD46C"/>
<stop offset="1" stop-color="#F09C53"/>
</radialGradient>
<radialGradient id="paint11_radial_8855_1607" cx="0" cy="0" r="1" gradientUnits="userSpaceOnUse" gradientTransform="translate(87.6923 78.0244) rotate(100.827) scale(6.8559)">
<stop offset="0.792052" stop-color="#E76260" stop-opacity="0"/>
<stop offset="0.964251" stop-color="#E76260"/>
</radialGradient>
<radialGradient id="paint12_radial_8855_1607" cx="0" cy="0" r="1" gradientUnits="userSpaceOnUse" gradientTransform="translate(88.9173 80.8667) rotate(-147.558) scale(6.943 8.17633)">
<stop offset="0.482355" stop-color="#AA885A" stop-opacity="0"/>
<stop offset="0.90682" stop-color="#AA885A"/>
</radialGradient>
<radialGradient id="paint13_radial_8855_1607" cx="0" cy="0" r="1" gradientUnits="userSpaceOnUse" gradientTransform="translate(86.3964 22.9161) rotate(132.387) scale(7.21042)">
<stop stop-color="#FF46AA"/>
<stop offset="1" stop-color="#E3189D"/>
</radialGradient>
<radialGradient id="paint14_radial_8855_1607" cx="0" cy="0" r="1" gradientUnits="userSpaceOnUse" gradientTransform="translate(85.1582 25.3203) rotate(-173.29) scale(6.5527 8.76955)">
<stop offset="0.522105" stop-color="#B63173" stop-opacity="0"/>
<stop offset="1" stop-color="#B63173"/>
</radialGradient>
<radialGradient id="paint15_radial_8855_1607" cx="0" cy="0" r="1" gradientUnits="userSpaceOnUse" gradientTransform="translate(37.7279 10.0996) rotate(139.574) scale(6.44413)">
<stop stop-color="#FFF46F"/>
<stop offset="1" stop-color="#EFB93C"/>
</radialGradient>
<radialGradient id="paint16_radial_8855_1607" cx="0" cy="0" r="1" gradientUnits="userSpaceOnUse" gradientTransform="translate(36.8062 11.1033) rotate(-178.519) scale(6.70123 6.38041)">
<stop offset="0.558644" stop-color="#AA904B" stop-opacity="0"/>
<stop offset="0.943632" stop-color="#AA904B"/>
</radialGradient>
<radialGradient id="paint17_radial_8855_1607" cx="0" cy="0" r="1" gradientUnits="userSpaceOnUse" gradientTransform="translate(36.0498 9.40625) rotate(102.339) scale(7.16552)">
<stop offset="0.771901" stop-color="#C47072" stop-opacity="0"/>
<stop offset="1" stop-color="#C47072"/>
</radialGradient>
<radialGradient id="paint18_radial_8855_1607" cx="0" cy="0" r="1" gradientUnits="userSpaceOnUse" gradientTransform="translate(20.2655 26.7442) rotate(132.387) scale(7.21042)">
<stop stop-color="#FF46AA"/>
<stop offset="1" stop-color="#E3189D"/>
</radialGradient>
<radialGradient id="paint19_radial_8855_1607" cx="0" cy="0" r="1" gradientUnits="userSpaceOnUse" gradientTransform="translate(19.0273 29.1484) rotate(-173.29) scale(6.5527 8.76955)">
<stop offset="0.522105" stop-color="#B63173" stop-opacity="0"/>
<stop offset="1" stop-color="#B63173"/>
</radialGradient>
<linearGradient id="paint20_linear_8855_1607" x1="66.7189" y1="7.28516" x2="51.0324" y2="44.881" gradientUnits="userSpaceOnUse">
<stop stop-color="#20B2EE"/>
<stop offset="1" stop-color="#2689DA"/>
</linearGradient>
<radialGradient id="paint21_radial_8855_1607" cx="0" cy="0" r="1" gradientUnits="userSpaceOnUse" gradientTransform="translate(63.2759 19.4981) rotate(128.217) scale(27.1623 16.6145)">
<stop offset="0.80204" stop-color="#4274D2" stop-opacity="0"/>
<stop offset="0.950917" stop-color="#4274D2"/>
</radialGradient>
<radialGradient id="paint22_radial_8855_1607" cx="0" cy="0" r="1" gradientUnits="userSpaceOnUse" gradientTransform="translate(61.9171 16.3524) rotate(12.0948) scale(3.91503 13.143)">
<stop stop-color="#4D8EC0"/>
<stop offset="1" stop-color="#4D8EC0" stop-opacity="0"/>
</radialGradient>
<radialGradient id="paint23_radial_8855_1607" cx="0" cy="0" r="1" gradientUnits="userSpaceOnUse" gradientTransform="translate(69.6828 7.87583) rotate(141.953) scale(4.79164 4.308)">
<stop stop-color="#5ADEFF"/>
<stop offset="1" stop-color="#5ADEFF" stop-opacity="0"/>
</radialGradient>
<radialGradient id="paint24_radial_8855_1607" cx="0" cy="0" r="1" gradientUnits="userSpaceOnUse" gradientTransform="translate(39.2757 87.7725) rotate(133.21) scale(14.8565 32.5273)">
<stop stop-color="#3365FF"/>
<stop offset="1" stop-color="#356DB9"/>
</radialGradient>
<radialGradient id="paint25_radial_8855_1607" cx="0" cy="0" r="1" gradientUnits="userSpaceOnUse" gradientTransform="translate(25.9315 98.0553) rotate(131.598) scale(9.1706 23.1978)">
<stop stop-color="#3365FF"/>
<stop offset="1" stop-color="#356DB9"/>
</radialGradient>
<radialGradient id="paint26_radial_8855_1607" cx="0" cy="0" r="1" gradientUnits="userSpaceOnUse" gradientTransform="translate(96.3703 41.6182) rotate(168.283) scale(15.0799 5.62596)">
<stop stop-color="#FF3BA9"/>
<stop offset="1" stop-color="#F422A7"/>
</radialGradient>
<radialGradient id="paint27_radial_8855_1607" cx="0" cy="0" r="1" gradientUnits="userSpaceOnUse" gradientTransform="translate(85.4605 53.6495) rotate(-127.355) scale(15.5484 27.7105)">
<stop offset="0.752144" stop-color="#B8306F" stop-opacity="0"/>
<stop offset="1" stop-color="#B8306F"/>
</radialGradient>
<radialGradient id="paint28_radial_8855_1607" cx="0" cy="0" r="1" gradientUnits="userSpaceOnUse" gradientTransform="translate(59.593 32.6943) rotate(-131.325) scale(10.3066 7.70424)">
<stop stop-color="#336BAF"/>
<stop offset="1" stop-color="#336BAF" stop-opacity="0"/>
</radialGradient>
<radialGradient id="paint29_radial_8855_1607" cx="0" cy="0" r="1" gradientUnits="userSpaceOnUse" gradientTransform="translate(60.5824 26.0851) rotate(-127.657) scale(6.49288 2.63063)">
<stop stop-color="#49A4D4"/>
<stop offset="1" stop-color="#49A4D4" stop-opacity="0"/>
</radialGradient>
<linearGradient id="paint30_linear_8855_1607" x1="50.5753" y1="75.9326" x2="97.5072" y2="63.6332" gradientUnits="userSpaceOnUse">
<stop stop-color="#3797E2"/>
<stop offset="1" stop-color="#37AEFF"/>
</linearGradient>
<radialGradient id="paint31_radial_8855_1607" cx="0" cy="0" r="1" gradientUnits="userSpaceOnUse" gradientTransform="translate(67.9352 83.6066) rotate(-129.838) scale(27.9301 70.0126)">
<stop offset="0.622552" stop-color="#526579" stop-opacity="0"/>
<stop offset="0.962126" stop-color="#526579"/>
</radialGradient>
<radialGradient id="paint32_radial_8855_1607" cx="0" cy="0" r="1" gradientUnits="userSpaceOnUse" gradientTransform="translate(83.6218 68.5328) rotate(94.3987) scale(9.58722 19.2752)">
<stop offset="0.396078" stop-color="#6972FF"/>
<stop offset="1" stop-color="#6972FF" stop-opacity="0"/>
</radialGradient>
<radialGradient id="paint33_radial_8855_1607" cx="0" cy="0" r="1" gradientUnits="userSpaceOnUse" gradientTransform="translate(97.8377 60.4751) rotate(-68.8186) scale(2.62861 2.07296)">
<stop stop-color="#55BFFF"/>
<stop offset="1" stop-color="#55BFFF" stop-opacity="0"/>
</radialGradient>
<radialGradient id="paint34_radial_8855_1607" cx="0" cy="0" r="1" gradientUnits="userSpaceOnUse" gradientTransform="translate(37.9528 22.5277) rotate(99.4229) scale(25.5914 9.58757)">
<stop stop-color="#FF3AAA"/>
<stop offset="1" stop-color="#FD2F89"/>
</radialGradient>
<radialGradient id="paint35_radial_8855_1607" cx="0" cy="0" r="1" gradientUnits="userSpaceOnUse" gradientTransform="translate(24.5914 48.9172) rotate(31.1757) scale(16.8296 52.816)">
<stop offset="0.803698" stop-color="#DB2C6E" stop-opacity="0"/>
<stop offset="1" stop-color="#DB2C6E"/>
</radialGradient>
<radialGradient id="paint36_radial_8855_1607" cx="0" cy="0" r="1" gradientUnits="userSpaceOnUse" gradientTransform="translate(62.4523 39.8029) rotate(98.0559) scale(12.3808 6.89048)">
<stop stop-color="#4AB5F8"/>
<stop offset="1" stop-color="#4AB5F8" stop-opacity="0"/>
</radialGradient>
</defs>
</svg>
