<svg width="1920" height="1895" viewBox="0 0 1920 1895" fill="none" xmlns="http://www.w3.org/2000/svg">
<mask id="mask0_0_325" style="mask-type:alpha" maskUnits="userSpaceOnUse" x="0" y="0" width="1920" height="1895">
<rect width="1920" height="1895" fill="#EDF7F6"/>
</mask>
<g mask="url(#mask0_0_325)">
<path d="M1245.43 752.793C1245.43 752.793 1183.89 927.795 985.77 967.974C787.651 1008.15 688.907 827.744 689.396 732.915C689.884 638.085 805.744 552.339 955.504 547.712C1105.26 543.085 1302.17 533.512 1295.18 599.455C1288.2 665.399 1245.43 752.793 1245.43 752.793Z" stroke="#DEE9E8" stroke-width="1.5" stroke-miterlimit="10"/>
<path d="M1212.65 753.295C1212.65 753.295 1158.56 905.898 985.76 940.737C812.964 975.576 727.505 818.049 727.516 735.243C727.528 652.438 828.757 577.694 959.94 573.498C1090.03 569.391 1261.74 561.879 1256.2 618.988C1250.61 677.191 1212.65 753.295 1212.65 753.295Z" stroke="#DEE9E8" stroke-width="1.5" stroke-miterlimit="10"/>
<path d="M1184.26 753.438C1184.26 753.438 1137.47 886.921 986.671 917.782C835.869 948.642 760.54 810.987 761.212 739.023C760.79 667.148 849.623 602.135 963.323 598.28C1077.02 594.424 1226.87 587.612 1222.68 638.073C1217.45 687.53 1184.26 753.438 1184.26 753.438Z" stroke="#DEE9E8" stroke-width="1.5" stroke-miterlimit="10"/>
<path d="M1150.39 754.031C1150.39 754.031 1112.18 863.931 987.842 888.269C863.459 913.699 802.467 799.93 802.619 741.083C802.771 682.236 875.879 628.315 968.811 625.069C1062.84 621.734 1185.34 616.069 1181.5 657.785C1177.67 699.501 1150.39 754.031 1150.39 754.031Z" stroke="#DEE9E8" stroke-width="1.5" stroke-miterlimit="10"/>
<path d="M1106.71 754.337C1106.71 754.337 1078.43 834.007 988.178 852.287C897.925 870.567 853.157 788.157 852.702 744.612C852.247 701.068 906.212 661.788 973.951 660.604C1041.73 658.326 1132.52 654.167 1129.16 683.859C1125.75 714.645 1106.71 754.337 1106.71 754.337Z" stroke="#DEE9E8" stroke-width="1.5" stroke-miterlimit="10"/>
<path d="M1346.61 679.142C1346.61 679.142 1279.52 994.059 1094.64 1058.21C909.767 1122.37 615.81 1018.95 586.909 839.359C558.008 659.771 640.887 497.187 832.933 499.996C1026.07 502.715 1119.84 505.938 1182.28 500.83C1244.71 495.722 1375.33 505.736 1346.61 679.142Z" stroke="#DEE9E8" stroke-width="1.5" stroke-miterlimit="10"/>
<path d="M1393.62 787.517C1393.62 787.517 1335.98 1056.99 1142.35 1149.1C948.722 1241.21 795.047 1096.89 658.019 1055.8C520.991 1014.72 467.461 822.982 528.607 657.818C589.753 492.654 661.06 429.074 905.553 430.86C1150.05 432.647 1386.21 424.219 1403.04 550.317C1419.87 676.416 1393.62 787.517 1393.62 787.517Z" stroke="#DEE9E8" stroke-width="1.5" stroke-miterlimit="10"/>
<path d="M1458.06 622.083C1458.06 622.083 1484.4 866.163 1443.39 991.546C1402.39 1116.93 1235.73 1272.2 1021.98 1238.48C808.234 1204.76 715.769 1168.75 632.12 1158.16C548.515 1146.48 382.412 1040.22 419.58 736.469C456.748 432.716 587.552 355.552 838.747 353.522C1089.94 351.491 1300.48 356.056 1374.98 404.436C1449.49 452.817 1458.06 622.083 1458.06 622.083Z" stroke="#DEE9E8" stroke-width="1.5" stroke-miterlimit="10"/>
<path d="M1509.85 527.414C1509.85 527.414 1678.15 963.622 1524.48 1176.67C1370.81 1389.72 1136.05 1390.4 920.98 1335C704.815 1279.69 574.457 1263.12 474.41 1225.54C374.364 1187.97 249.56 921.436 299.33 685.294C349.1 449.151 500.162 301.689 788.372 274.839C1076.58 247.989 1302.33 281.816 1364.61 308.317C1425.78 334.908 1496.04 490.411 1509.85 527.414Z" stroke="#DEE9E8" stroke-width="1.5" stroke-miterlimit="10"/>
<path d="M1508.82 360.8C1508.82 360.8 1666.32 518.971 1709.02 818.367C1751.73 1117.76 1516.48 1460.6 1162.33 1471.06C808.167 1481.51 805.76 1377.11 620.286 1373.77C434.813 1370.42 328.748 1291.94 238.496 1090.13C148.244 888.324 140.666 446.593 561.675 292.298C982.684 138.002 1417.92 175.39 1508.82 360.8Z" stroke="#DEE9E8" stroke-width="1.5" stroke-miterlimit="10"/>
<path d="M1586.67 325.013C1586.67 325.013 1868.84 642.951 1854.7 916.49C1840.57 1190.03 1727.73 1474.91 1373.42 1544.22C1019.1 1613.52 949.49 1524.43 741.806 1530.52C534.121 1536.62 236.119 1397.57 173.956 1203.27C111.793 1008.98 64.4685 550.886 355.596 367.995C646.768 184.01 1000.83 148.503 1180.47 133.805C1360.11 119.107 1548.14 278.048 1586.67 325.013Z" stroke="#DEE9E8" stroke-width="1.5" stroke-miterlimit="10"/>
<path d="M1571.71 151.912C1571.71 151.912 1910.64 415.087 1999.1 854.557C2087.56 1294.03 1682.25 1602.84 1331.87 1628.24C981.482 1653.64 804.978 1616.88 654.914 1629.15C504.85 1641.43 -23.0692 1463.45 0.836565 971.204C23.647 479.048 269.335 175.667 832.252 104.55C1394.12 32.4299 1532.65 118.063 1571.71 151.912Z" stroke="#DEE9E8" stroke-width="1.5" stroke-miterlimit="10"/>
<path d="M1593.23 77.1518C1593.23 77.1518 1877.8 252.164 1981.9 462.643C2086.04 672.029 2219.71 1072.94 1908.27 1410.02C1596.82 1747.11 1068.72 1656.31 813.805 1669.54C558.89 1682.77 -53.674 1519.34 -63.8545 1033.15C-74.035 546.965 54.0152 264.104 487.789 145.808C921.562 27.5125 1511.41 20.6538 1593.23 77.1518Z" stroke="#DEE9E8" stroke-width="1.5" stroke-miterlimit="10"/>
<path d="M-391.211 450.888C-391.211 450.888 -374.79 202.221 -32.8855 115.411C310.071 29.6055 800.509 -58.4615 1062.82 -203.041C1325.13 -347.621 2005.14 -617.897 2276.55 -469.047C2547.95 -320.196 2638.45 398.029 2515.94 843.866C2393.43 1289.7 2133.89 1667.22 1733.61 1849.23C1333.34 2031.25 1043.33 2268.53 766.648 2197.46C488.915 2125.4 43.2373 1718.42 -124.893 1470.69C-293.024 1222.96 -260.455 1035.08 -357.333 807.663C-454.168 579.157 -391.211 450.888 -391.211 450.888Z" stroke="#DEE9E8" stroke-width="1.5" stroke-miterlimit="10"/>
<path d="M-438.713 437.343C-438.713 437.343 -421.945 179.93 -67.948 91.042C286.048 2.15377 792.961 -88.3508 1064.21 -238.02C1335.46 -387.689 2037.63 -666.315 2317.58 -512.717C2597.54 -359.118 2691.46 382.796 2563.97 844.295C2436.51 1304.7 2168.82 1694.87 1756.32 1882.24C1342.73 2069.7 1043.65 2315.35 757.245 2241.81C470.879 2167.19 9.33525 1747.35 -163.925 1491.32C-338.281 1235.38 -304.4 1041.94 -403.121 805.961C-503.991 569.07 -438.713 437.343 -438.713 437.343Z" stroke="#DEE9E8" stroke-width="1.5" stroke-miterlimit="10"/>
<path d="M-484.024 423.617C-484.024 423.617 -466.952 158.553 -103.011 66.6722C262.026 -25.2985 784.318 -118.151 1063.41 -272.819C1342.5 -427.488 2066.83 -714.466 2355.34 -556.119C2643.84 -397.772 2741.23 366.739 2609.93 841.623C2478.62 1316.51 2202.83 1718.23 1777.01 1911.05C1351.2 2103.88 1043.06 2357.89 746.919 2281.88C451.878 2205.79 -23.2986 1771.81 -202.827 1508.67C-382.356 1245.52 -347.119 1045.43 -449.918 802.163C-551.666 559.895 -484.024 423.617 -484.024 423.617Z" stroke="#DEE9E8" stroke-width="1.5" stroke-miterlimit="10"/>
<path d="M-532.577 409.067C-532.577 409.067 -515.158 135.259 -139.124 41.299C236.953 -53.754 775.718 -149.044 1063.7 -307.708C1351.68 -466.373 2098.23 -762.795 2395.28 -599.699C2692.33 -436.604 2793.15 351.596 2657.99 840.959C2522.84 1330.32 2238.9 1744.7 1799.72 1944.06C1360.55 2143.42 1042.29 2404.8 738.612 2326.14C433.842 2247.57 -55.0099 1800.55 -240.764 1529.2C-425.422 1257.76 -389.924 1051.12 -495.75 801.555C-602.584 549.898 -532.577 409.067 -532.577 409.067Z" stroke="#DEE9E8" stroke-width="1.5" stroke-miterlimit="10"/>
<path d="M-321.12 527.958C-321.12 527.958 -265.851 235.8 -12.0962 169.277C241.659 102.754 942.917 -42.8745 1288.42 -220.41C1633.93 -397.945 2141.64 -453.65 2303.77 -219.591C2464.84 13.4648 2562.44 855.315 2200.63 1361.04C1838.82 1866.77 1585.51 1839.56 1297.83 1990.57C1009.06 2141.68 496.724 2038.69 216.498 1754.37C-63.7271 1470.05 -162.98 1219.95 -226.9 1014.9C-290.82 809.848 -336.12 713.317 -321.12 527.958Z" stroke="#DEE9E8" stroke-width="1.5" stroke-miterlimit="10"/>
<path d="M-241.159 521.415C-241.159 521.415 -262.793 323.801 29.2451 227.997C320.231 131.19 714.257 106.578 1041.07 -40.0102C1366.78 -186.509 1942.66 -281.566 2187.42 -39.0149C2432.18 203.536 2377.89 1213.62 1856.25 1620.2C1334.57 2027.88 787.872 2020.31 536.461 1917.77C285.006 1816.31 47.6092 1470.74 -103.267 1200.9C-254.142 931.053 -241.159 521.415 -241.159 521.415Z" stroke="#DEE9E8" stroke-width="1.5" stroke-miterlimit="10"/>
<path d="M-115.561 575.422C-115.561 575.422 -12.9753 273.944 237.407 209.876C487.789 145.809 895.848 42.6912 1201.46 -65.1188C1507.08 -172.929 1918.65 -34.457 2124.86 326.739C2332.16 687.846 2206.81 1370.34 1591.1 1671.31C975.385 1972.28 454.592 1752.32 200.438 1581.35C-53.7171 1410.39 -81.4567 1064.01 -112.224 931.426C-143.077 801.028 -115.561 575.422 -115.561 575.422Z" stroke="#DEE9E8" stroke-width="1.5" stroke-miterlimit="10"/>
</g>
</svg>
