<svg width="360" height="2147" viewBox="0 0 360 2147" fill="none" xmlns="http://www.w3.org/2000/svg">
<mask id="mask0_0_1649" style="mask-type:alpha" maskUnits="userSpaceOnUse" x="0" y="0" width="360" height="2147">
<rect width="360" height="2147" fill="#EDF7F6"/>
</mask>
<g mask="url(#mask0_0_1649)">
<path d="M666.275 752.793C666.275 752.793 604.739 927.795 406.62 967.974C208.5 1008.15 109.757 827.744 110.245 732.915C110.734 638.085 226.593 552.339 376.354 547.712C526.114 543.085 723.018 533.512 716.034 599.455C709.049 665.399 666.275 752.793 666.275 752.793Z" stroke="#DEE9E8" stroke-width="1.5" stroke-miterlimit="10"/>
<path d="M633.501 753.295C633.501 753.295 579.405 905.898 406.609 940.737C233.813 975.576 148.355 818.049 148.366 735.243C148.377 652.438 249.606 577.694 380.789 573.498C510.877 569.391 682.587 561.879 677.045 618.988C671.459 677.191 633.501 753.295 633.501 753.295Z" stroke="#DEE9E8" stroke-width="1.5" stroke-miterlimit="10"/>
<path d="M605.109 753.438C605.109 753.438 558.322 886.921 407.52 917.782C256.718 948.642 181.389 810.987 182.062 739.023C181.639 667.148 270.472 602.135 384.173 598.28C497.873 594.424 647.72 587.612 643.533 638.073C638.295 687.53 605.109 753.438 605.109 753.438Z" stroke="#DEE9E8" stroke-width="1.5" stroke-miterlimit="10"/>
<path d="M571.239 754.031C571.239 754.031 533.031 863.931 408.692 888.269C284.309 913.699 223.317 799.93 223.469 741.083C223.621 682.236 296.728 628.315 389.66 625.069C483.687 621.734 606.194 616.069 602.354 657.785C598.515 699.501 571.239 754.031 571.239 754.031Z" stroke="#DEE9E8" stroke-width="1.5" stroke-miterlimit="10"/>
<path d="M527.555 754.337C527.555 754.337 499.281 834.007 409.028 852.287C318.775 870.567 274.007 788.157 273.551 744.612C273.096 701.068 327.062 661.788 394.8 660.604C462.582 658.326 553.368 654.167 550.005 683.859C546.6 714.645 527.555 754.337 527.555 754.337Z" stroke="#DEE9E8" stroke-width="1.5" stroke-miterlimit="10"/>
<path d="M767.461 679.142C767.461 679.142 700.371 994.059 515.494 1058.21C330.616 1122.37 36.6597 1018.95 7.7586 839.359C-21.1425 659.771 61.7369 497.187 253.782 499.996C446.923 502.715 540.69 505.938 603.126 500.83C665.561 495.722 796.18 505.736 767.461 679.142Z" stroke="#DEE9E8" stroke-width="1.5" stroke-miterlimit="10"/>
<path d="M814.474 787.517C814.474 787.517 756.831 1056.99 563.201 1149.1C369.571 1241.21 215.897 1096.89 78.8687 1055.8C-58.1593 1014.72 -111.69 822.982 -50.5437 657.818C10.6023 492.654 81.9095 429.074 326.402 430.86C570.895 432.647 807.059 424.219 823.889 550.317C840.72 676.416 814.474 787.517 814.474 787.517Z" stroke="#DEE9E8" stroke-width="1.5" stroke-miterlimit="10"/>
<path d="M878.906 622.083C878.906 622.083 905.247 866.163 864.241 991.546C823.235 1116.93 656.577 1272.2 442.83 1238.48C229.083 1204.76 136.618 1168.75 52.9697 1158.16C-30.6354 1146.48 -196.739 1040.22 -159.571 736.469C-122.402 432.716 8.40127 355.552 259.596 353.522C510.791 351.491 721.328 356.056 795.834 404.436C870.34 452.817 878.906 622.083 878.906 622.083Z" stroke="#DEE9E8" stroke-width="1.5" stroke-miterlimit="10"/>
<path d="M930.703 527.414C930.703 527.414 1099 963.622 945.329 1176.67C791.663 1389.72 556.899 1390.4 341.829 1335C125.664 1279.69 -4.69387 1263.12 -104.74 1225.54C-204.786 1187.97 -329.59 921.436 -279.82 685.294C-230.051 449.151 -78.9879 301.689 209.222 274.839C497.431 247.989 723.183 281.816 785.455 308.317C846.633 334.908 916.887 490.411 930.703 527.414Z" stroke="#DEE9E8" stroke-width="1.5" stroke-miterlimit="10"/>
<path d="M929.673 360.8C929.673 360.8 1087.17 518.971 1129.87 818.367C1172.58 1117.76 937.334 1460.6 583.175 1471.06C229.016 1481.51 226.609 1377.11 41.1359 1373.77C-144.338 1370.42 -250.402 1291.94 -340.654 1090.13C-430.906 888.324 -438.484 446.593 -17.4751 292.298C403.534 138.002 838.771 175.39 929.673 360.8Z" stroke="#DEE9E8" stroke-width="1.5" stroke-miterlimit="10"/>
<path d="M1007.52 325.013C1007.52 325.013 1289.69 642.951 1275.55 916.49C1261.42 1190.03 1148.58 1474.91 794.265 1544.22C439.954 1613.52 370.34 1524.43 162.655 1530.52C-45.0289 1536.62 -343.031 1397.57 -405.194 1203.27C-467.357 1008.98 -514.682 550.886 -223.554 367.995C67.6173 184.01 421.678 148.503 601.317 133.805C780.956 119.107 968.988 278.048 1007.52 325.013Z" stroke="#DEE9E8" stroke-width="1.5" stroke-miterlimit="10"/>
<path d="M992.555 151.912C992.555 151.912 1331.49 415.087 1419.95 854.557C1508.41 1294.03 1103.1 1602.84 752.717 1628.24C402.332 1653.64 225.828 1616.88 75.7635 1629.15C-74.3007 1641.43 -602.22 1463.45 -578.314 971.204C-555.503 479.048 -309.816 175.667 253.101 104.55C814.967 32.4299 953.502 118.063 992.555 151.912Z" stroke="#DEE9E8" stroke-width="1.5" stroke-miterlimit="10"/>
<path d="M1014.08 77.1518C1014.08 77.1518 1298.65 252.164 1402.75 462.643C1506.89 672.029 1640.56 1072.94 1329.12 1410.02C1017.67 1747.11 489.57 1656.31 234.655 1669.54C-20.2603 1682.77 -632.824 1519.34 -643.005 1033.15C-653.185 546.965 -525.135 264.104 -91.3617 145.808C342.412 27.5125 932.257 20.6538 1014.08 77.1518Z" stroke="#DEE9E8" stroke-width="1.5" stroke-miterlimit="10"/>
<path d="M-970.361 450.888C-970.361 450.888 -953.94 202.221 -612.036 115.411C-269.08 29.6055 221.359 -58.4615 483.671 -203.041C745.983 -347.621 1425.99 -617.897 1697.4 -469.047C1968.8 -320.196 2059.3 398.029 1936.79 843.866C1814.28 1289.7 1554.74 1667.22 1154.46 1849.23C754.189 2031.25 464.178 2268.53 187.497 2197.46C-90.2352 2125.4 -535.913 1718.42 -704.044 1470.69C-872.174 1222.96 -839.605 1035.08 -936.483 807.663C-1033.32 579.157 -970.361 450.888 -970.361 450.888Z" stroke="#DEE9E8" stroke-width="1.5" stroke-miterlimit="10"/>
<path d="M-1017.86 437.343C-1017.86 437.343 -1001.09 179.93 -647.098 91.042C-293.102 2.15377 213.811 -88.3508 485.059 -238.02C756.308 -387.689 1458.48 -666.315 1738.43 -512.717C2018.39 -359.118 2112.31 382.796 1984.82 844.295C1857.36 1304.7 1589.67 1694.87 1177.17 1882.24C763.581 2069.7 464.503 2315.35 178.094 2241.81C-108.271 2167.19 -569.815 1747.35 -743.075 1491.32C-917.431 1235.38 -883.55 1041.94 -982.272 805.961C-1083.14 569.07 -1017.86 437.343 -1017.86 437.343Z" stroke="#DEE9E8" stroke-width="1.5" stroke-miterlimit="10"/>
<path d="M-1063.17 423.617C-1063.17 423.617 -1046.1 158.553 -682.161 66.6722C-317.124 -25.2985 205.168 -118.151 484.257 -272.819C763.347 -427.488 1487.68 -714.466 1776.19 -556.119C2064.69 -397.772 2162.08 366.739 2030.78 841.623C1899.47 1316.51 1623.68 1718.23 1197.86 1911.05C772.05 2103.88 463.906 2357.89 167.769 2281.88C-127.272 2205.79 -602.449 1771.81 -781.978 1508.67C-961.506 1245.52 -926.269 1045.43 -1029.07 802.163C-1130.82 559.895 -1063.17 423.617 -1063.17 423.617Z" stroke="#DEE9E8" stroke-width="1.5" stroke-miterlimit="10"/>
<path d="M-1111.73 409.067C-1111.73 409.067 -1094.31 135.259 -718.275 41.299C-342.197 -53.754 196.567 -149.044 484.55 -307.708C772.533 -466.373 1519.08 -762.795 1816.13 -599.699C2113.18 -436.604 2214 351.596 2078.84 840.959C1943.69 1330.32 1659.75 1744.7 1220.57 1944.06C781.399 2143.42 463.135 2404.8 159.461 2326.14C-145.308 2247.57 -634.16 1800.55 -819.914 1529.2C-1004.57 1257.76 -969.075 1051.12 -1074.9 801.555C-1181.73 549.898 -1111.73 409.067 -1111.73 409.067Z" stroke="#DEE9E8" stroke-width="1.5" stroke-miterlimit="10"/>
<path d="M-900.27 527.958C-900.27 527.958 -845.001 235.8 -591.247 169.277C-337.492 102.754 363.767 -42.8745 709.272 -220.41C1054.78 -397.945 1562.49 -453.65 1724.61 -219.591C1885.69 13.4648 1983.29 855.315 1621.48 1361.04C1259.67 1866.77 1006.36 1839.56 718.682 1990.57C429.908 2141.68 -82.4263 2038.69 -362.652 1754.37C-642.878 1470.05 -742.13 1219.95 -806.05 1014.9C-869.97 809.848 -915.27 713.317 -900.27 527.958Z" stroke="#DEE9E8" stroke-width="1.5" stroke-miterlimit="10"/>
<path d="M-820.309 521.415C-820.309 521.415 -841.944 323.801 -549.905 227.997C-258.919 131.19 135.107 106.578 461.915 -40.0102C787.628 -186.509 1363.5 -281.566 1608.27 -39.0149C1853.03 203.536 1798.74 1213.62 1277.1 1620.2C755.415 2027.88 208.722 2020.31 -42.6894 1917.77C-294.144 1816.31 -531.541 1470.74 -682.417 1200.9C-833.293 931.053 -820.309 521.415 -820.309 521.415Z" stroke="#DEE9E8" stroke-width="1.5" stroke-miterlimit="10"/>
<path d="M-694.712 575.422C-694.712 575.422 -592.126 273.944 -341.744 209.876C-91.3617 145.809 316.698 42.6912 622.314 -65.1188C927.931 -172.929 1339.5 -34.457 1545.71 326.739C1753.01 687.846 1627.66 1370.34 1011.95 1671.31C396.235 1972.28 -124.558 1752.32 -378.713 1581.35C-632.867 1410.39 -660.607 1064.01 -691.374 931.426C-722.227 801.028 -694.712 575.422 -694.712 575.422Z" stroke="#DEE9E8" stroke-width="1.5" stroke-miterlimit="10"/>
</g>
</svg>
