<svg width="614" height="749" viewBox="0 0 614 749" fill="none" xmlns="http://www.w3.org/2000/svg">
<mask id="mask0_0_247" style="mask-type:alpha" maskUnits="userSpaceOnUse" x="0" y="0" width="625" height="749">
<rect y="0.679688" width="625" height="748" rx="6" fill="#EDF7F6"/>
</mask>
<g mask="url(#mask0_0_247)">
<path d="M368.945 340.559C368.945 340.559 301.836 372.585 234.382 327.683C166.928 282.78 190.234 203.703 217.305 177.017C244.376 150.331 301.502 158.981 345.179 200.206C388.856 241.431 447.274 294.646 426.57 311.316C405.865 327.986 368.945 340.559 368.945 340.559Z" stroke="#DEE9E8" stroke-width="1.5" stroke-miterlimit="10"/>
<path d="M359.531 331.393C359.531 331.393 300.888 359.196 242.114 319.975C183.341 280.754 203.906 211.923 227.427 188.503C250.948 165.083 300.811 172.69 339.111 208.76C377.075 244.545 427.781 291.187 409.993 305.768C391.883 320.645 359.531 331.393 359.531 331.393Z" stroke="#DEE9E8" stroke-width="1.5" stroke-miterlimit="10"/>
<path d="M351.459 323.369C351.459 323.369 300.314 347.84 248.892 313.74C197.469 279.641 215.256 219.307 235.885 199.142C256.179 178.69 299.772 185.529 333.029 216.731C366.287 247.933 410.609 288.564 395.094 301.649C379.565 314.151 351.459 323.369 351.459 323.369Z" stroke="#DEE9E8" stroke-width="1.5" stroke-miterlimit="10"/>
<path d="M341.71 313.918C341.71 313.918 299.689 334.154 257.605 305.725C215.198 277.592 230.257 228.088 247.013 211.484C263.769 194.881 299.763 200.392 326.973 225.868C354.518 251.629 390.781 284.82 377.847 295.53C364.913 306.239 341.71 313.918 341.71 313.918Z" stroke="#DEE9E8" stroke-width="1.5" stroke-miterlimit="10"/>
<path d="M329.266 301.598C329.266 301.598 298.641 316.104 267.919 295.642C237.198 275.18 247.939 239.154 260.177 226.707C272.416 214.26 298.837 218.476 318.335 237.379C338.155 255.986 365.017 280.593 355.633 288.038C345.927 295.779 329.266 301.598 329.266 301.598Z" stroke="#DEE9E8" stroke-width="1.5" stroke-miterlimit="10"/>
<path d="M418.485 348.463C418.485 348.463 310.068 418.49 239.55 384.131C169.032 349.771 115.254 237.029 158.083 178.02C200.912 119.011 270.533 96.5594 324.059 151.897C377.921 207.52 403.53 235.063 422.642 251.35C441.754 267.638 475.858 307.568 418.485 348.463Z" stroke="#DEE9E8" stroke-width="1.5" stroke-miterlimit="10"/>
<path d="M401.004 392.471C401.004 392.471 308.165 452.326 227.233 423.389C146.3 394.451 143.818 309.982 116.725 259.443C89.6326 208.903 128.945 139.463 193.15 110.109C257.355 80.7543 295.584 83.0214 364.237 152.965C432.889 222.909 502.087 287.598 471.035 328.048C439.983 368.498 401.004 392.471 401.004 392.471Z" stroke="#DEE9E8" stroke-width="1.5" stroke-miterlimit="10"/>
<path d="M466.215 363.974C466.215 363.974 404.345 440.499 357.136 464.32C309.926 488.141 218.683 484.731 167.797 414.487C116.91 344.242 100.983 307.793 80.3288 281.041C59.9969 253.992 43.1893 176.759 139.972 101.392C236.755 26.0249 295.671 41.347 367.304 112.115C438.937 182.882 497.196 243.968 504.531 278.814C511.866 313.66 466.215 363.974 466.215 363.974Z" stroke="#DEE9E8" stroke-width="1.5" stroke-miterlimit="10"/>
<path d="M507.754 351.906C507.754 351.906 431.472 523.094 327.496 539.716C223.521 556.338 156.917 489.857 111.815 413.103C66.377 336.064 34.2089 294.353 16.5802 255.31C-1.04844 216.267 39.3454 105.427 120.491 52.7636C201.637 0.100515 286.249 1.291 375.401 75.5506C464.553 149.81 518.805 223.495 528.894 248.677C538.647 273.574 514.355 337.515 507.754 351.906Z" stroke="#DEE9E8" stroke-width="1.5" stroke-miterlimit="10"/>
<path d="M554.783 304.483C554.783 304.483 554.411 393.954 481.46 490.774C408.509 587.594 244.594 617.762 141.443 520.135C38.2922 422.507 67.2616 392.292 15.7467 338.669C-35.7681 285.046 -43.4806 232.721 -11.6952 150.003C20.0901 67.2853 143.403 -59.8203 306.316 16.1049C469.23 92.0301 581.728 226.218 554.783 304.483Z" stroke="#DEE9E8" stroke-width="1.5" stroke-miterlimit="10"/>
<path d="M586.968 316.469C586.968 316.469 576.488 486.543 494.801 559.906C413.115 633.269 300.284 681.806 180.377 600.782C60.4691 519.757 66.0806 474.784 5.60074 417.524C-54.8792 360.264 -99.6847 236.296 -62.0861 163.679C-24.4874 91.0621 92.2283 -51.9597 226.524 -21.0113C361.142 9.64025 471.38 100.154 526.369 147.015C581.359 193.877 589.407 292.24 586.968 316.469Z" stroke="#DEE9E8" stroke-width="1.5" stroke-miterlimit="10"/>
<path d="M631.897 263.253C631.897 263.253 653.027 433.958 553.236 583.396C453.444 732.834 251.088 705.078 144.76 612.75C38.4317 520.421 -1.05437 459.892 -46.9905 420.745C-92.9267 381.599 -191.712 181.318 -45.1464 48.8646C101.084 -83.8745 256.746 -99.9146 436.177 39.843C615.597 179.018 630.464 242.587 631.897 263.253Z" stroke="#DEE9E8" stroke-width="1.5" stroke-miterlimit="10"/>
<path d="M659.22 248.22C659.22 248.22 690.01 378.545 659.679 467.65C629.671 556.457 553.618 707.825 369.783 714.725C185.948 721.626 62.3511 545.953 -13.5149 477.296C-89.3809 408.64 -216.243 188.436 -81.0398 48.0152C54.1632 -92.4055 170.721 -136.051 327.021 -46.3176C483.32 43.4162 652.119 208.999 659.22 248.22Z" stroke="#DEE9E8" stroke-width="1.5" stroke-miterlimit="10"/>
<path d="M-8.27046 -209.664C-8.27046 -209.664 66.999 -275.342 188.369 -202.793C309.752 -129.662 473.495 -15.2838 588.759 18.3181C704.022 51.92 973.137 168.595 1007.64 287.783C1042.14 406.972 863.751 635.841 702.474 727.162C541.197 818.483 360.56 851.557 195.639 789.362C30.7179 727.167 -118.708 711.92 -176.791 613.238C-234.886 513.974 -245.371 272.275 -222.572 154.447C-199.773 36.6199 -137.199 -7.27773 -100.015 -99.121C-62.5087 -191.261 -8.27046 -209.664 -8.27046 -209.664Z" stroke="#DEE9E8" stroke-width="1.5" stroke-miterlimit="10"/>
<path d="M-17.8602 -226.987C-17.8602 -226.987 59.991 -295.04 185.372 -219.645C310.753 -144.25 479.849 -25.8824 599.086 8.8179C718.322 43.5182 996.08 164.127 1031.65 287.086C1067.22 410.045 883.073 646.588 715.936 740.922C549.123 834.96 362.589 869.299 192.688 805.149C22.453 740.713 -131.914 725.258 -192.047 623.113C-251.856 520.672 -263.175 270.828 -239.471 149.196C-216.102 27.2795 -151.579 -17.8169 -112.484 -112.607C-73.7374 -208.265 -17.8602 -226.987 -17.8602 -226.987Z" stroke="#DEE9E8" stroke-width="1.5" stroke-miterlimit="10"/>
<path d="M-26.7793 -243.739C-26.7793 -243.739 53.3308 -313.869 182.375 -236.497C311.755 -158.838 485.868 -36.7668 608.742 -1.25379C731.616 34.2592 1018.02 158.801 1054.65 285.53C1091.29 412.26 901.711 656.18 729.696 753.22C557.681 850.26 365.573 885.567 190.358 819.176C15.1435 752.784 -144.165 737.122 -206.347 631.515C-268.194 526.194 -279.353 268.478 -255.402 143.055C-231.45 17.6309 -164.656 -28.961 -124.643 -126.972C-84.6179 -224.4 -26.7793 -243.739 -26.7793 -243.739Z" stroke="#DEE9E8" stroke-width="1.5" stroke-miterlimit="10"/>
<path d="M-36.3814 -261.644C-36.3814 -261.644 46.3106 -334.15 179.366 -253.93C312.744 -174.008 492.209 -47.9481 618.734 -11.0398C745.259 25.8685 1040.62 154.047 1078.33 284.547C1116.03 415.047 920.698 666.641 743.481 766.683C566.265 866.725 368.26 903.299 187.408 834.962C6.55597 766.626 -157.707 750.173 -221.268 641.676C-285.164 532.893 -296.487 267.603 -271.966 138.09C-247.109 8.86205 -178.378 -39.5111 -137.435 -140.161C-96.1816 -241.689 -36.3814 -261.644 -36.3814 -261.644Z" stroke="#DEE9E8" stroke-width="1.5" stroke-miterlimit="10"/>
<path d="M-10.3322 -167.957C-10.3322 -167.957 88.278 -234.903 178.951 -181.652C269.625 -128.4 509.352 29.5706 657.508 77.4781C805.664 125.386 965.103 253.825 944.488 366.078C923.86 477.749 712.374 743.605 466.396 783.905C220.418 824.204 156.492 744.563 32.2263 705.577C-92.3749 666.305 -208.05 491.663 -206.568 331.65C-205.086 171.636 -162.131 72.7015 -121.976 -3.45552C-81.8209 -79.6125 -67.2191 -119.784 -10.3322 -167.957Z" stroke="#DEE9E8" stroke-width="1.5" stroke-miterlimit="10"/>
<path d="M14.1448 -147.098C14.1448 -147.098 64.1496 -209.142 173.969 -153.3C283.775 -98.0407 402.224 6.9047 536.302 58.2561C670.044 109.322 859.941 245.988 860.291 384.114C860.64 522.24 558.41 792.547 295.377 759.406C32.0214 726.562 -120.474 569.155 -162.467 468.744C-204.782 368.63 -173.79 203.454 -139.83 84.272C-105.869 -34.91 14.1448 -147.098 14.1448 -147.098Z" stroke="#DEE9E8" stroke-width="1.5" stroke-miterlimit="10"/>
<path d="M34.3344 -96.1497C34.3344 -96.1497 148.976 -152.294 237.998 -99.3058C327.02 -46.3175 471.736 40.4068 588.805 96.7087C705.875 153.011 782.97 309.071 738.717 469.809C694.799 630.832 465.503 788.291 205.856 698.558C-53.7911 608.825 -138.636 398.692 -161.974 278.148C-185.312 157.605 -94.783 51.7448 -65.8305 5.50207C-37.5235 -40.1469 34.3344 -96.1497 34.3344 -96.1497Z" stroke="#DEE9E8" stroke-width="1.5" stroke-miterlimit="10"/>
</g>
</svg>
