<svg width="1290" height="340" viewBox="0 0 1290 340" fill="none" xmlns="http://www.w3.org/2000/svg">
<mask id="mask0_153_506" style="mask-type:alpha" maskUnits="userSpaceOnUse" x="0" y="0" width="1290" height="340">
<rect width="1290" height="340" fill="#F8F8F8"/>
</mask>
<g mask="url(#mask0_153_506)">
<path d="M-12.02 378.483C-12.02 378.483 -44.4863 393.977 -77.1194 372.254C-109.752 350.531 -98.4771 312.275 -85.3808 299.364C-72.2844 286.454 -44.6476 290.639 -23.5174 310.583C-2.3872 330.527 25.8743 356.271 15.8578 364.336C5.8414 372.4 -12.02 378.483 -12.02 378.483Z" stroke="#457C75" stroke-miterlimit="10"/>
<path d="M-16.5741 374.049C-16.5741 374.049 -44.9446 387.499 -73.3784 368.525C-101.812 349.551 -91.8629 316.251 -80.484 304.921C-69.105 293.591 -44.9821 297.271 -26.4534 314.721C-8.08686 332.033 16.4437 354.598 7.83848 361.652C-0.92286 368.849 -16.5741 374.049 -16.5741 374.049Z" stroke="#457C75" stroke-miterlimit="10"/>
<path d="M-20.4793 370.167C-20.4793 370.167 -45.2224 382.005 -70.0997 365.509C-94.9769 349.012 -86.3719 319.824 -76.392 310.068C-66.5743 300.174 -45.4848 303.483 -29.3953 318.577C-13.3059 333.672 8.13653 353.329 0.630284 359.659C-6.88205 365.707 -20.4793 370.167 -20.4793 370.167Z" stroke="#457C75" stroke-miterlimit="10"/>
<path d="M-25.1957 365.594C-25.1957 365.594 -45.5246 375.384 -65.8843 361.631C-86.4001 348.021 -79.115 324.071 -71.0086 316.039C-62.9022 308.007 -45.4888 310.673 -32.3253 322.997C-18.9995 335.46 -1.45626 351.517 -7.71349 356.699C-13.9707 361.88 -25.1957 365.594 -25.1957 365.594Z" stroke="#457C75" stroke-miterlimit="10"/>
<path d="M-31.2158 359.634C-31.2158 359.634 -46.0317 366.652 -60.8944 356.753C-75.7571 346.854 -70.5604 329.425 -64.6398 323.403C-58.7192 317.382 -45.9369 319.421 -36.5043 328.567C-26.9155 337.568 -13.9201 349.473 -18.46 353.074C-23.1559 356.819 -31.2158 359.634 -31.2158 359.634Z" stroke="#457C75" stroke-miterlimit="10"/>
<path d="M11.9467 382.307C11.9467 382.307 -40.5039 416.185 -74.619 399.562C-108.734 382.94 -134.751 328.397 -114.031 299.85C-93.3112 271.302 -59.6302 260.44 -33.7349 287.212C-7.67748 314.121 4.7115 327.446 13.9576 335.325C23.2037 343.205 39.7028 362.522 11.9467 382.307Z" stroke="#457C75" stroke-miterlimit="10"/>
<path d="M3.48979 403.597C3.48979 403.597 -41.4241 432.554 -80.5779 418.555C-119.732 404.555 -120.933 363.691 -134.039 339.24C-147.146 314.79 -128.128 281.196 -97.0663 266.995C-66.0051 252.794 -47.5109 253.891 -14.2979 287.729C18.9152 321.566 52.3918 352.862 37.3693 372.431C22.3467 391.999 3.48979 403.597 3.48979 403.597Z" stroke="#457C75" stroke-miterlimit="10"/>
<path d="M35.0376 389.811C35.0376 389.811 5.10602 426.832 -17.7332 438.356C-40.5723 449.881 -84.714 448.231 -109.332 414.248C-133.95 380.265 -141.655 362.631 -151.647 349.689C-161.484 336.603 -169.615 299.239 -122.793 262.778C-75.9712 226.317 -47.4686 233.73 -12.8139 267.966C21.8408 302.202 50.0253 331.754 53.5739 348.612C57.1224 365.47 35.0376 389.811 35.0376 389.811Z" stroke="#457C75" stroke-miterlimit="10"/>
<path d="M55.1335 383.972C55.1335 383.972 18.2294 466.79 -32.0721 474.832C-82.3737 482.873 -114.595 450.711 -136.415 413.579C-158.397 376.308 -173.959 356.129 -182.488 337.241C-191.016 318.353 -171.474 264.73 -132.218 239.253C-92.9608 213.775 -52.0269 214.351 -8.89662 250.277C34.2336 286.202 60.4797 321.849 65.3603 334.032C70.0788 346.077 58.327 377.01 55.1335 383.972Z" stroke="#457C75" stroke-miterlimit="10"/>
<path d="M77.8852 361.03C77.8852 361.03 77.7052 404.315 42.4127 451.155C7.12012 497.994 -72.1786 512.589 -122.081 465.359C-171.984 418.128 -157.969 403.511 -182.891 377.569C-207.813 351.627 -211.544 326.313 -196.167 286.296C-180.79 246.278 -121.133 184.787 -42.3186 221.518C36.496 258.249 90.9205 323.167 77.8852 361.03Z" stroke="#457C75" stroke-miterlimit="10"/>
<path d="M93.4556 366.829C93.4556 366.829 88.3854 449.108 48.8671 484.599C9.34882 520.091 -45.2369 543.572 -103.246 504.374C-161.255 465.176 -158.54 443.419 -187.799 415.717C-217.059 388.016 -238.735 328.042 -220.545 292.912C-202.356 257.781 -145.891 188.589 -80.9209 203.562C-15.7951 218.39 37.5363 262.179 64.1391 284.85C90.742 307.521 94.6355 355.107 93.4556 366.829Z" stroke="#457C75" stroke-miterlimit="10"/>
<path d="M115.192 341.084C115.192 341.084 125.414 423.668 77.1365 495.963C28.8592 568.259 -69.0372 554.831 -120.477 510.164C-171.916 465.497 -191.019 436.214 -213.242 417.276C-235.465 398.337 -283.256 301.445 -212.35 237.366C-141.606 173.15 -66.3001 165.39 20.5058 233.002C107.306 300.332 114.498 331.086 115.192 341.084Z" stroke="#457C75" stroke-miterlimit="10"/>
<path d="M128.41 333.811C128.41 333.811 143.305 396.86 128.632 439.967C114.114 482.931 77.3217 556.16 -11.6145 559.498C-100.551 562.836 -160.345 477.849 -197.047 444.634C-233.75 411.42 -295.123 304.889 -229.715 236.956C-164.306 169.023 -107.917 147.907 -32.3023 191.319C43.3128 234.731 124.975 314.836 128.41 333.811Z" stroke="#457C75" stroke-miterlimit="10"/>
<path d="M-194.51 112.295C-194.51 112.295 -158.096 80.5212 -99.3794 115.619C-40.6566 150.998 38.5596 206.333 94.3219 222.589C150.084 238.845 280.277 295.29 296.967 352.951C313.658 410.613 227.358 521.335 149.335 565.515C71.3123 609.694 -16.0766 625.695 -95.8624 595.606C-175.648 565.517 -247.938 558.141 -276.037 510.4C-304.143 462.378 -309.215 345.448 -298.185 288.446C-287.156 231.443 -256.883 210.206 -238.894 165.774C-220.75 121.198 -194.51 112.295 -194.51 112.295Z" stroke="#457C75" stroke-miterlimit="10"/>
<path d="M-199.149 103.914C-199.149 103.914 -161.486 70.9917 -100.829 107.466C-40.1722 143.941 41.6335 201.205 99.3179 217.993C157.002 234.78 291.377 293.128 308.584 352.614C325.791 412.099 236.706 526.534 155.848 572.172C75.1467 617.665 -15.0952 634.278 -97.2898 603.243C-179.647 572.07 -254.327 564.593 -283.418 515.178C-312.353 465.619 -317.828 344.748 -306.361 285.905C-295.055 226.924 -263.84 205.107 -244.927 159.25C-226.182 112.972 -199.149 103.914 -199.149 103.914Z" stroke="#457C75" stroke-miterlimit="10"/>
<path d="M-203.464 95.8103C-203.464 95.8103 -164.709 61.8823 -102.279 99.3139C-39.6877 136.884 44.5451 195.94 103.99 213.12C163.434 230.301 301.989 290.552 319.713 351.861C337.438 413.171 245.723 531.175 162.505 578.121C79.2871 625.067 -13.6514 642.148 -98.4171 610.029C-183.183 577.91 -260.253 570.333 -290.336 519.242C-320.256 468.29 -325.655 343.612 -314.068 282.934C-302.481 222.256 -270.166 199.716 -250.809 152.3C-231.446 105.166 -203.464 95.8103 -203.464 95.8103Z" stroke="#457C75" stroke-miterlimit="10"/>
<path d="M-208.11 87.148C-208.11 87.148 -168.105 52.0711 -103.735 90.8796C-39.2091 129.545 47.6129 190.53 108.823 208.386C170.034 226.241 312.926 288.252 331.167 351.385C349.409 414.519 254.908 536.236 169.174 584.634C83.4399 633.033 -12.3516 650.726 -99.8445 617.667C-187.337 584.607 -266.805 576.647 -297.554 524.158C-328.466 471.531 -333.944 343.188 -322.081 280.532C-310.056 218.014 -276.805 194.612 -256.997 145.919C-237.04 96.8016 -208.11 87.148 -208.11 87.148Z" stroke="#457C75" stroke-miterlimit="10"/>
<path d="M-195.508 132.472C-195.508 132.472 -147.802 100.085 -103.935 125.847C-60.0693 151.609 55.9063 228.032 127.582 251.209C199.257 274.386 276.391 336.523 266.417 390.829C256.438 444.853 154.125 573.47 35.1249 592.966C-83.8749 612.462 -114.801 573.933 -174.919 555.072C-235.198 536.073 -291.16 451.585 -290.443 374.173C-289.726 296.761 -268.945 248.898 -249.519 212.055C-230.092 175.212 -223.028 155.777 -195.508 132.472Z" stroke="#457C75" stroke-miterlimit="10"/>
<path d="M-183.666 142.563C-183.666 142.563 -159.475 112.548 -106.346 139.563C-53.2238 166.296 4.07984 217.067 68.9442 241.91C133.646 266.615 225.515 332.731 225.684 399.554C225.853 466.377 79.6398 597.147 -47.6109 581.114C-175.018 565.225 -248.792 489.074 -269.108 440.497C-289.579 392.063 -274.585 312.154 -258.156 254.496C-241.727 196.838 -183.666 142.563 -183.666 142.563Z" stroke="#457C75" stroke-miterlimit="10"/>
<path d="M-173.899 167.211C-173.899 167.211 -118.437 140.05 -75.3697 165.684C-32.3024 191.319 37.7083 233.275 94.3446 260.513C150.981 287.75 188.278 363.25 166.869 441.012C145.622 518.912 34.693 595.088 -90.9196 551.677C-216.532 508.265 -257.579 406.607 -268.869 348.29C-280.16 289.973 -236.363 238.76 -222.357 216.388C-208.662 194.304 -173.899 167.211 -173.899 167.211Z" stroke="#457C75" stroke-miterlimit="10"/>
<path d="M1309.67 -32.0854C1309.67 -32.0854 1270.06 -72.6326 1248.31 -59.48C1226.56 -46.5875 1210.15 50.9544 1237.47 62.1743C1264.78 73.3942 1366.54 36.1368 1362.61 12.3854C1358.66 -11.6262 1321.09 -21.6181 1309.67 -32.0854Z" stroke="#457C75" stroke-miterlimit="10"/>
<path d="M1304.08 -25.8655C1304.08 -25.8655 1270.34 -60.401 1251.93 -49.2616C1233.37 -38.2496 1219.42 44.7978 1242.73 54.3982C1265.88 63.8711 1352.63 32.2238 1349.22 11.9778C1345.8 -8.52846 1313.99 -16.933 1304.08 -25.8655Z" stroke="#457C75" stroke-miterlimit="10"/>
<path d="M1300.21 -21.4992C1300.21 -21.4992 1270.54 -51.8127 1254.3 -42.1447C1238.06 -32.4767 1225.79 40.5164 1246.13 48.869C1266.46 57.2215 1342.71 29.4099 1339.65 11.5008C1336.89 -6.15339 1308.92 -13.5864 1300.21 -21.4992Z" stroke="#457C75" stroke-miterlimit="10"/>
<path d="M1294.05 -14.4878C1294.05 -14.4878 1271.01 -37.8921 1258.39 -30.5029C1245.78 -22.8536 1236.21 33.5577 1252.1 40.1686C1267.84 46.652 1326.88 25.1412 1324.65 11.2526C1322.41 -2.636 1300.67 -8.35935 1294.05 -14.4878Z" stroke="#457C75" stroke-miterlimit="10"/>
<path d="M1288.75 -8.5335C1288.75 -8.5335 1271.28 -26.4412 1261.71 -20.5395C1252.14 -14.898 1244.91 28.1925 1256.93 33.0511C1268.96 37.9097 1313.71 21.6052 1312.15 11.0891C1310.43 0.445635 1293.86 -3.9398 1288.75 -8.5335Z" stroke="#457C75" stroke-miterlimit="10"/>
<path d="M1326.45 -44.1064C1326.45 -44.1064 1309.25 -50.3029 1294.5 -71.2541C1279.75 -92.2054 1238.19 -108.894 1216.14 -64.6234C1194.09 -20.3523 1214.43 51.2673 1213.67 69.2458C1212.91 87.2243 1238.34 86.8926 1268 78.9335C1297.66 70.9744 1369.22 50.1475 1387.23 40.7077C1405.24 31.2679 1428.56 3.63673 1326.45 -44.1064Z" stroke="#457C75" stroke-miterlimit="10"/>
<path d="M1339.35 -51.761C1339.35 -51.761 1332.92 -56.4608 1319.2 -77.3006C1305.48 -98.4007 1269.61 -142.401 1240.19 -124.032C1210.77 -105.662 1191.76 -75.8967 1192.27 -35.42C1192.62 4.92921 1200.95 40.8375 1199.44 64.2972C1197.93 87.757 1198.15 109.883 1224.93 104.58C1251.71 99.277 1313.7 77.7128 1344.14 71.6922C1374.44 65.8044 1430.31 40.8363 1439.14 22.0603C1447.96 3.28435 1408.04 -31.6595 1389.29 -34.8338C1370.7 -37.8806 1347.64 -42.9293 1339.35 -51.761Z" stroke="#457C75" stroke-miterlimit="10"/>
<path d="M1346.55 -58.4008C1346.55 -58.4008 1335.46 -73.6907 1323.26 -98.854C1311.06 -124.017 1274.61 -161.107 1241.1 -148.001C1207.59 -134.895 1182.3 -103.583 1180.14 -51.0816C1177.98 1.41986 1194.25 30.8052 1189.38 55.4975C1184.67 80.3172 1173.65 118.66 1193.82 119.726C1213.99 120.791 1320.55 81.7539 1351.94 78.3198C1383.47 75.0131 1447.89 63.4284 1464.06 25.3826C1480.23 -12.6631 1421.32 -42.3151 1393.75 -45.3292C1366.19 -48.3433 1355.49 -53.356 1346.55 -58.4008Z" stroke="#457C75" stroke-miterlimit="10"/>
<path d="M1349.91 -65.7518C1349.91 -65.7518 1342.36 -73.9463 1338.3 -96.7841C1334.39 -119.755 1296.19 -175.168 1255.88 -170.14C1215.56 -165.111 1174.11 -139.364 1165.3 -94.8127C1156.49 -50.2614 1188.29 27.5288 1178 71.5862C1167.7 115.644 1160.42 137.516 1175.15 138.81C1189.89 140.365 1317.59 93.2636 1356.28 87.8742C1394.82 82.3574 1466.42 63.3522 1483.61 37.6549C1500.94 11.8248 1472.95 -41.0402 1421.57 -50.521C1370.77 -60.0125 1366.55 -51.8647 1349.91 -65.7518Z" stroke="#457C75" stroke-miterlimit="10"/>
<path d="M1364.76 -72.0098C1364.76 -72.0098 1354.85 -74.5635 1352.29 -96.1268C1349.87 -117.823 1338.94 -164.359 1287.88 -184.78C1236.83 -205.202 1183.05 -159.834 1168.13 -130.924C1153.22 -102.013 1155.78 -29.9406 1162.8 -0.256901C1169.96 29.5542 1165.96 59.8285 1158.19 92.5144C1150.58 125.328 1140.61 158.444 1168.4 158.33C1196.34 158.343 1294.55 114.25 1352.83 104.079C1410.97 94.0406 1459.62 93.5472 1491.97 55.7282C1524.32 17.9093 1496.66 -39.7784 1462.95 -53.8763C1429.39 -68.1071 1388.62 -57.6028 1364.76 -72.0098Z" stroke="#457C75" stroke-miterlimit="10"/>
<path d="M1364.76 -72.0098C1364.76 -72.0098 1354.85 -74.5635 1352.29 -96.1268C1349.87 -117.823 1338.94 -164.359 1287.88 -184.78C1236.83 -205.202 1183.05 -159.834 1168.13 -130.924C1153.22 -102.013 1155.78 -29.9406 1162.8 -0.256901C1169.96 29.5542 1165.96 59.8285 1158.19 92.5144C1150.58 125.328 1140.61 158.444 1168.4 158.33C1196.34 158.343 1294.55 114.25 1352.83 104.079C1410.97 94.0406 1459.62 93.5472 1491.97 55.7282C1524.32 17.9093 1496.66 -39.7784 1462.95 -53.8763C1429.39 -68.1071 1388.62 -57.6028 1364.76 -72.0098Z" stroke="#457C75" stroke-miterlimit="10"/>
<path d="M1374.68 -75.3144C1374.68 -75.3144 1361.8 -85.4948 1359.95 -114.101C1358.41 -142.712 1325.64 -198.615 1256.91 -201.662C1188.18 -204.709 1146.44 -140.684 1139.9 -112.316C1133.35 -83.9481 1152.01 -15.2919 1155.79 21.0895C1159.58 57.4709 1145.4 104.854 1135.21 128.601C1125.03 152.348 1144.93 186.094 1175.2 178.645C1205.46 171.195 1305.6 114.961 1367.53 110.191C1429.46 105.421 1489.9 92.9971 1516.69 50.4623C1543.49 7.92756 1514.26 -35.0213 1486.87 -55.743C1459.49 -76.4646 1409.73 -60.3296 1374.68 -75.3144Z" stroke="#457C75" stroke-miterlimit="10"/>
<path d="M1382.46 -81.9648C1382.46 -81.9648 1368.54 -92.7771 1366.79 -123.598C1364.9 -154.286 1329.99 -214.055 1256.4 -217.404C1182.8 -220.754 1137.95 -151.985 1130.86 -121.525C1123.78 -91.0641 1143.72 -17.4846 1147.87 21.4939C1152.01 60.4725 1136.73 111.52 1125.85 136.712C1114.97 162.164 1136.25 198.358 1168.71 190.479C1201.01 182.471 1308.7 122.195 1374.9 117.217C1441.23 112.106 1506.06 98.8219 1534.99 53.2543C1563.92 7.6866 1532.27 -38.3425 1502.93 -60.7211C1473.3 -83.0943 1420.04 -65.8542 1382.46 -81.9648Z" stroke="#457C75" stroke-miterlimit="10"/>
<path d="M1382.46 -81.9648C1382.46 -81.9648 1368.54 -92.7771 1366.79 -123.598C1364.9 -154.286 1329.99 -214.055 1256.4 -217.404C1182.8 -220.754 1137.95 -151.985 1130.86 -121.525C1123.78 -91.0641 1143.72 -17.4846 1147.87 21.4939C1152.01 60.4725 1136.73 111.52 1125.85 136.712C1114.97 162.164 1136.25 198.358 1168.71 190.479C1201.01 182.471 1308.7 122.195 1374.9 117.217C1441.23 112.106 1506.06 98.8219 1534.99 53.2543C1563.92 7.6866 1532.27 -38.3425 1502.93 -60.7211C1473.3 -83.0943 1420.04 -65.8542 1382.46 -81.9648Z" stroke="#457C75" stroke-miterlimit="10"/>
<path d="M1397.47 -100.332C1397.47 -100.332 1383.14 -115.824 1385.12 -132.002C1387.1 -148.18 1354.47 -217.233 1281.98 -230.106C1209.49 -242.978 1129.22 -198.171 1111.12 -129.367C1093.17 -60.4368 1137.26 1.76907 1116.68 64.8895C1096.09 128.01 1083.08 181.75 1132.63 200.897C1182.19 220.045 1209.67 206.918 1267.75 175.401C1325.82 143.884 1368.39 141.028 1418.34 139.339C1468.29 137.651 1545.02 86.2677 1559.68 40.0482C1574.33 -6.1714 1549.05 -56.482 1508.75 -82.3065C1468.61 -107.743 1416.28 -81.7982 1397.47 -100.332Z" stroke="#457C75" stroke-miterlimit="10"/>
<path d="M1414.89 -122.779C1414.89 -122.779 1409.17 -128.403 1399.62 -159.473C1390.08 -190.542 1340.69 -247.054 1257.38 -244.629C1174.07 -242.205 1075.45 -171.418 1086.94 -75.6845C1098.43 20.0488 1100.93 45.1281 1089.38 92.2025C1077.83 139.277 1089.05 185.547 1137.86 210.436C1186.66 235.325 1277.68 185.114 1329.85 171.539C1382.02 157.964 1486.07 162.192 1541.67 93.8791C1597.42 25.6937 1574.37 -42.3619 1523.28 -83.2213C1472.2 -124.081 1437.19 -105.61 1414.89 -122.779Z" stroke="#457C75" stroke-miterlimit="10"/>
<path d="M1441.08 -153.327C1441.08 -153.327 1431.18 -161.739 1399.32 -204.119C1367.46 -246.499 1262.1 -288.325 1151.56 -217.452C1041.03 -146.579 1075.65 -42.9346 1075.3 5.23805C1074.95 53.4107 1040.6 156.876 1095.48 202.744C1150.36 248.611 1195.39 262.894 1257.54 235.859C1319.69 208.825 1339.8 188.412 1397.34 184.502C1454.88 180.593 1540.82 145.706 1575.21 69.577C1609.61 -6.55191 1587.24 -102.348 1441.08 -153.327Z" stroke="#457C75" stroke-miterlimit="10"/>
</g>
</svg>
