<svg width="134" height="20" viewBox="0 0 134 20" fill="none" xmlns="http://www.w3.org/2000/svg">
<path d="M2.49419 1.3839H15.8382C16.3502 1.3839 16.7262 1.4479 16.9662 1.5759C17.2062 1.6879 17.3662 1.8719 17.4462 2.1279C17.5262 2.3839 17.5662 2.7199 17.5662 3.1359C17.5662 3.5519 17.5262 3.8879 17.4462 4.1439C17.3662 4.3839 17.2302 4.5519 17.0382 4.6479C16.7502 4.7919 16.3422 4.8639 15.8142 4.8639H11.2302V16.9359C11.2302 17.3039 11.2142 17.5759 11.1822 17.7519C11.1662 17.9279 11.0942 18.1359 10.9662 18.3759C10.8542 18.5999 10.6462 18.7599 10.3422 18.8559C10.0382 18.9519 9.63819 18.9999 9.14219 18.9999C8.64619 18.9999 8.24619 18.9519 7.94219 18.8559C7.65419 18.7599 7.44619 18.5999 7.31819 18.3759C7.20619 18.1359 7.13419 17.9279 7.10219 17.7519C7.08619 17.5599 7.07819 17.2799 7.07819 16.9119V4.8639H2.47019C1.95819 4.8639 1.58219 4.8079 1.34219 4.6959C1.10219 4.5679 0.942187 4.3759 0.862188 4.1199C0.782187 3.8639 0.742188 3.5279 0.742188 3.1119C0.742188 2.6959 0.782187 2.3679 0.862188 2.1279C0.942187 1.8719 1.07819 1.6959 1.27019 1.5999C1.55819 1.4559 1.96619 1.3839 2.49419 1.3839Z" fill="#16141F"/>
<path d="M26.3369 12.6639L29.5289 15.3039C29.9289 15.6399 30.1769 15.8959 30.2729 16.0719C30.3849 16.2479 30.4409 16.4159 30.4409 16.5759C30.4409 16.9599 30.1929 17.4799 29.6969 18.1359C29.1529 18.8079 28.6729 19.1439 28.2569 19.1439C27.9049 19.1439 27.4169 18.9119 26.7929 18.4479L26.5529 18.2799C26.1849 17.9759 25.6169 17.4479 24.8489 16.6959C24.0809 15.9279 23.4969 15.3839 23.0969 15.0639V16.9119C23.0969 17.2799 23.0809 17.5599 23.0489 17.7519C23.0329 17.9279 22.9609 18.1359 22.8329 18.3759C22.6249 18.7919 22.0089 18.9999 20.9849 18.9999C19.9769 18.9999 19.3609 18.7839 19.1369 18.3519C19.0249 18.1119 18.9529 17.9039 18.9209 17.7279C18.9049 17.5359 18.8969 17.2559 18.8969 16.8879V2.5119C18.8969 2.1439 18.9049 1.8719 18.9209 1.6959C18.9529 1.5039 19.0249 1.2879 19.1369 1.0479C19.3609 0.615902 19.9849 0.399902 21.0089 0.399902C21.7769 0.399902 22.3209 0.535902 22.6409 0.807902C22.9129 1.0319 23.0569 1.3839 23.0729 1.8639C23.0889 2.0079 23.0969 2.2319 23.0969 2.5359V10.1439C23.3849 9.9039 23.8169 9.4959 24.3929 8.9199C24.9849 8.3439 25.4249 7.9359 25.7129 7.6959L26.0009 7.5039C26.5609 7.0719 27.0409 6.8559 27.4409 6.8559C27.8409 6.8559 28.2969 7.1839 28.8089 7.8399C29.3369 8.4799 29.6009 8.9839 29.6009 9.3519C29.6009 9.7199 29.3049 10.1519 28.7129 10.6479L26.3369 12.6639Z" fill="#16141F"/>
<path d="M39.2455 7.6959C39.3415 6.7999 39.9735 6.3519 41.1415 6.3519C41.7655 6.3519 42.2295 6.3999 42.5335 6.4959C42.8375 6.5919 43.0455 6.7599 43.1575 6.9999C43.2855 7.2399 43.3575 7.4559 43.3735 7.6479C43.4055 7.8239 43.4215 8.0959 43.4215 8.4639V16.8639C43.4215 17.2319 43.4055 17.5119 43.3735 17.7039C43.3575 17.8799 43.2935 18.0879 43.1815 18.3279C42.9575 18.7439 42.4055 18.9519 41.5255 18.9519C40.6615 18.9519 40.0775 18.8479 39.7735 18.6399C39.4855 18.4159 39.3175 18.0959 39.2695 17.6799C38.6775 18.5279 37.6855 18.9519 36.2935 18.9519C34.9175 18.9519 33.6375 18.3199 32.4535 17.0559C31.2695 15.7919 30.6775 14.3279 30.6775 12.6639C30.6775 10.9839 31.2695 9.5199 32.4535 8.2719C33.6535 7.0079 34.9655 6.3759 36.3895 6.3759C36.9335 6.3759 37.4295 6.4719 37.8775 6.6639C38.3255 6.8559 38.6375 7.0399 38.8135 7.2159C38.9895 7.3759 39.1335 7.5359 39.2455 7.6959ZM34.8775 12.6879C34.8775 13.2159 35.0855 13.6959 35.5015 14.1279C35.9175 14.5439 36.4215 14.7519 37.0135 14.7519C37.6055 14.7519 38.0935 14.5359 38.4775 14.1039C38.8775 13.6719 39.0775 13.1999 39.0775 12.6879C39.0775 12.1599 38.8855 11.6719 38.5015 11.2239C38.1335 10.7759 37.6295 10.5519 36.9895 10.5519C36.3655 10.5519 35.8535 10.7759 35.4535 11.2239C35.0695 11.6719 34.8775 12.1599 34.8775 12.6879Z" fill="#16141F"/>
<path d="M52.3664 6.3519C53.9664 6.3519 55.2944 6.9679 56.3504 8.1999C57.4224 9.4159 57.9584 10.9039 57.9584 12.6639V16.8879C57.9584 17.2559 57.9424 17.5359 57.9104 17.7279C57.8944 17.9039 57.8304 18.1039 57.7184 18.3279C57.4944 18.7599 56.8704 18.9759 55.8464 18.9759C54.7104 18.9759 54.0544 18.6799 53.8784 18.0879C53.7824 17.8159 53.7344 17.4079 53.7344 16.8639V12.6399C53.7344 11.9839 53.5424 11.4719 53.1584 11.1039C52.7904 10.7359 52.2864 10.5519 51.6464 10.5519C51.0224 10.5519 50.5104 10.7439 50.1104 11.1279C49.7264 11.5119 49.5344 12.0159 49.5344 12.6399V16.8879C49.5344 17.2559 49.5184 17.5359 49.4864 17.7279C49.4704 17.9039 49.3984 18.1039 49.2704 18.3279C49.0624 18.7599 48.4464 18.9759 47.4224 18.9759C46.4144 18.9759 45.7984 18.7599 45.5744 18.3279C45.4624 18.0879 45.3904 17.8799 45.3584 17.7039C45.3424 17.5119 45.3344 17.2319 45.3344 16.8639V8.3679C45.3344 8.0159 45.3424 7.7519 45.3584 7.5759C45.3904 7.3839 45.4704 7.1759 45.5984 6.9519C45.8224 6.5519 46.4384 6.3519 47.4464 6.3519C48.4224 6.3519 49.0224 6.5359 49.2464 6.9039C49.4064 7.1759 49.4864 7.5039 49.4864 7.8879C49.5504 7.7759 49.6944 7.6159 49.9184 7.4079C50.1424 7.1999 50.3584 7.0319 50.5664 6.9039C51.1104 6.5359 51.7104 6.3519 52.3664 6.3519Z" fill="#16141F"/>
<path d="M72.0811 11.1759C72.0811 12.1519 71.8331 12.8799 71.3371 13.3599C70.8571 13.8239 70.3211 14.0559 69.7291 14.0559H64.0411C64.0411 14.5039 64.3051 14.8799 64.8331 15.1839C65.3611 15.4879 65.8891 15.6399 66.4171 15.6399C67.3451 15.6399 68.0731 15.5439 68.6011 15.3519L68.8651 15.2559C69.2491 15.0799 69.5691 14.9919 69.8251 14.9919C70.3371 14.9919 70.7771 15.3519 71.1451 16.0719C71.3531 16.5039 71.4571 16.8719 71.4571 17.1759C71.4571 18.5999 69.7531 19.3119 66.3451 19.3119C65.1611 19.3119 64.1051 19.1119 63.1771 18.7119C62.2651 18.2959 61.5531 17.7519 61.0411 17.0799C60.0331 15.7839 59.5291 14.3359 59.5291 12.7359C59.5291 10.7199 60.1771 9.1119 61.4731 7.9119C62.7851 6.6959 64.4171 6.0879 66.3691 6.0879C68.5931 6.0879 70.2251 6.8719 71.2651 8.4399C71.8091 9.2719 72.0811 10.1839 72.0811 11.1759ZM67.0171 11.8719C67.6251 11.8719 67.9291 11.6159 67.9291 11.1039C67.9291 10.7359 67.7851 10.4399 67.4971 10.2159C67.2251 9.9919 66.8251 9.8799 66.2971 9.8799C65.7851 9.8799 65.2731 10.0959 64.7611 10.5279C64.2491 10.9439 63.9931 11.3919 63.9931 11.8719H67.0171Z" fill="#16141F"/>
<path d="M82.2389 6.4959C82.5429 6.5919 82.7909 6.7599 82.9829 6.9999C83.1909 7.2239 83.2949 7.5919 83.2949 8.1039C83.2949 8.6159 83.1429 9.1759 82.8389 9.7839C82.5349 10.3919 82.0949 10.6959 81.5189 10.6959C81.2309 10.6959 80.9509 10.6319 80.6789 10.5039C80.4229 10.3759 80.0789 10.3119 79.6469 10.3119C79.2149 10.3119 78.8069 10.4639 78.4229 10.7679C78.0549 11.0719 77.8709 11.4399 77.8709 11.8719V16.9119C77.8709 17.2799 77.8549 17.5599 77.8229 17.7519C77.8069 17.9279 77.7349 18.1359 77.6069 18.3759C77.3669 18.7919 76.7429 18.9999 75.7349 18.9999C74.9669 18.9999 74.4149 18.8639 74.0789 18.5919C73.8229 18.3679 73.6789 18.0239 73.6469 17.5599C73.6469 17.3999 73.6469 17.1679 73.6469 16.8639V8.4399C73.6469 8.0719 73.6549 7.7999 73.6709 7.6239C73.7029 7.4319 73.7749 7.2239 73.8869 6.9999C74.1109 6.5679 74.7349 6.3519 75.7589 6.3519C76.7189 6.3519 77.3189 6.5359 77.5589 6.9039C77.7349 7.1599 77.8229 7.4239 77.8229 7.6959C77.9029 7.5839 78.0149 7.4479 78.1589 7.2879C78.3189 7.1279 78.6469 6.9119 79.1429 6.6399C79.6389 6.3679 80.0709 6.2319 80.4389 6.2319C80.8229 6.2319 81.1429 6.2559 81.3989 6.3039C81.6549 6.3359 81.9349 6.3999 82.2389 6.4959Z" fill="#16141F"/>
<path d="M85.945 15.0399C86.217 15.3119 86.353 15.8719 86.353 16.7199V16.8159C86.353 17.1999 86.337 17.4879 86.305 17.6799C86.289 17.8559 86.209 18.0719 86.065 18.3279C85.825 18.7919 85.217 19.0239 84.241 19.0239C83.281 19.0239 82.641 18.8719 82.321 18.5679C82.017 18.2639 81.865 17.6879 81.865 16.8399V16.7439C81.865 16.3759 81.873 16.0959 81.889 15.9039C81.921 15.7119 82.001 15.4959 82.129 15.2559C82.369 14.7759 82.969 14.5359 83.929 14.5359C84.905 14.5359 85.577 14.7039 85.945 15.0399Z" fill="#16141F"/>
<path d="M91.8803 12.6879C91.8803 13.3599 92.1043 13.8879 92.5523 14.2719C93.0003 14.6399 93.4723 14.8239 93.9683 14.8239C94.4803 14.8239 94.9523 14.6799 95.3843 14.3919C95.8323 14.0879 96.1923 13.9359 96.4643 13.9359C96.9443 13.9359 97.5283 14.3599 98.2163 15.2079C98.5843 15.6719 98.7683 16.0879 98.7683 16.4559C98.7683 17.0639 98.3283 17.6319 97.4483 18.1599C96.5363 18.7999 95.4163 19.1199 94.0883 19.1199C92.6003 19.1199 91.1683 18.5839 89.7923 17.5119C89.1363 16.9999 88.6003 16.3199 88.1843 15.4719C87.7683 14.6079 87.5603 13.6639 87.5603 12.6399C87.5603 11.5999 87.7683 10.6639 88.1843 9.8319C88.6003 8.9839 89.1363 8.3039 89.7923 7.7919C91.1203 6.7359 92.5363 6.2079 94.0403 6.2079C94.6483 6.2079 95.2403 6.2959 95.8163 6.4719C96.3923 6.6319 96.8163 6.7919 97.0883 6.9519L97.4723 7.1919C97.7603 7.3839 97.9843 7.5359 98.1443 7.6479C98.5603 7.9679 98.7683 8.3359 98.7683 8.7519C98.7683 9.1519 98.6003 9.6079 98.2643 10.1199C97.6883 10.9999 97.1363 11.4399 96.6083 11.4399C96.3043 11.4399 95.8723 11.2639 95.3123 10.9119C95.0243 10.6399 94.6083 10.5039 94.0643 10.5039C93.5363 10.5039 93.0403 10.6959 92.5763 11.0799C92.1123 11.4639 91.8803 11.9999 91.8803 12.6879Z" fill="#16141F"/>
<path d="M99.9587 12.6879C99.9587 10.7679 100.631 9.1839 101.975 7.9359C103.319 6.6879 104.855 6.0639 106.583 6.0639C108.311 6.0639 109.839 6.6879 111.167 7.9359C112.495 9.1679 113.159 10.7439 113.159 12.6639C113.159 13.9919 112.815 15.1759 112.127 16.2159C111.439 17.2399 110.599 17.9999 109.607 18.4959C108.631 18.9759 107.615 19.2159 106.559 19.2159C105.503 19.2159 104.479 18.9599 103.487 18.4479C102.495 17.9199 101.655 17.1519 100.967 16.1439C100.295 15.1199 99.9587 13.9679 99.9587 12.6879ZM104.975 14.4159C105.487 14.7999 106.007 14.9919 106.535 14.9919C107.063 14.9919 107.591 14.7919 108.119 14.3919C108.647 13.9919 108.911 13.3999 108.911 12.6159C108.911 11.8319 108.663 11.2479 108.167 10.8639C107.671 10.4799 107.135 10.2879 106.559 10.2879C105.983 10.2879 105.447 10.4879 104.951 10.8879C104.455 11.2879 104.207 11.8799 104.207 12.6639C104.207 13.4319 104.463 14.0159 104.975 14.4159Z" fill="#16141F"/>
<path d="M118.837 8.0319C119.589 6.8959 120.493 6.3279 121.549 6.3279C123.181 6.3279 124.397 7.0239 125.197 8.4159C125.373 8.1759 125.581 7.9279 125.821 7.6719C126.077 7.3999 126.477 7.1119 127.021 6.8079C127.565 6.4879 128.125 6.3279 128.701 6.3279C129.981 6.3279 131.053 6.8239 131.917 7.8159C132.781 8.7919 133.213 10.4159 133.213 12.6879V16.8879C133.213 17.2559 133.197 17.5359 133.165 17.7279C133.149 17.9039 133.077 18.1119 132.949 18.3519C132.741 18.7839 132.125 18.9999 131.101 18.9999C130.093 18.9999 129.477 18.7759 129.253 18.3279C129.141 18.0879 129.069 17.8799 129.037 17.7039C129.021 17.5119 129.013 17.2319 129.013 16.8639V12.6639C129.013 11.2719 128.517 10.5759 127.525 10.5759C126.965 10.5759 126.581 10.7599 126.373 11.1279C126.181 11.4959 126.085 12.0159 126.085 12.6879V16.8879C126.085 17.2719 126.069 17.5519 126.037 17.7279C126.021 17.9039 125.949 18.1119 125.821 18.3519C125.597 18.7839 124.973 18.9999 123.949 18.9999C122.941 18.9999 122.325 18.7759 122.101 18.3279C121.989 18.0879 121.917 17.8799 121.885 17.7039C121.869 17.5119 121.861 17.2319 121.861 16.8639V12.6639C121.861 11.2719 121.365 10.5759 120.373 10.5759C119.413 10.5759 118.933 11.2719 118.933 12.6639V16.9119C118.933 17.2799 118.917 17.5599 118.885 17.7519C118.869 17.9279 118.797 18.1359 118.669 18.3759C118.429 18.7919 117.805 18.9999 116.797 18.9999C115.789 18.9999 115.173 18.7839 114.949 18.3519C114.837 18.1119 114.765 17.9039 114.733 17.7279C114.717 17.5519 114.709 17.2719 114.709 16.8879V8.4399C114.709 8.0719 114.717 7.7999 114.733 7.6239C114.765 7.4319 114.845 7.2239 114.973 6.9999C115.213 6.5679 115.781 6.3519 116.677 6.3519C117.573 6.3519 118.157 6.4959 118.429 6.7839C118.701 7.0719 118.837 7.4879 118.837 8.0319Z" fill="#16141F"/>
</svg>
