<svg width="32" height="32" viewBox="0 0 32 32" fill="none" xmlns="http://www.w3.org/2000/svg">
<g clip-path="url(#clip0_11202_339)">
<g clip-path="url(#clip1_11202_339)">
<path fill-rule="evenodd" clip-rule="evenodd" d="M27.64 9.49366L27.4533 9.16033C27.2125 8.75725 26.8729 8.42223 26.4667 8.18699L17.52 3.02699C17.1149 2.79199 16.6551 2.66782 16.1867 2.66699H15.8C15.3316 2.66782 14.8717 2.79199 14.4667 3.02699L5.52 8.20033C5.11596 8.43401 4.78035 8.76962 4.54667 9.17366L4.36 9.50699C4.125 9.91211 4.00083 10.372 4 10.8403V21.1737C4.00083 21.6421 4.125 22.1019 4.36 22.507L4.54667 22.8403C4.78639 23.2397 5.12065 23.5739 5.52 23.8137L14.48 28.9737C14.8831 29.2135 15.3443 29.3381 15.8133 29.3337H16.1867C16.6551 29.3329 17.1149 29.2087 17.52 28.9737L26.4667 23.8003C26.8747 23.5719 27.2116 23.235 27.44 22.827L27.64 22.4937C27.8721 22.0874 27.9961 21.6283 28 21.1603V10.827C27.9992 10.3586 27.8751 9.89878 27.64 9.49366ZM15.8 5.33366H16.1867L24 9.84033L16 14.4537L8 9.84033L15.8 5.33366ZM17.3333 26.0003L25.1333 21.4937L25.3333 21.1603V12.147L17.3333 16.7737V26.0003Z" fill="url(#paint0_linear_11202_339)"/>
</g>
</g>
<defs>
<linearGradient id="paint0_linear_11202_339" x1="4" y1="17.4819" x2="28.446" y2="17.0818" gradientUnits="userSpaceOnUse">
<stop stop-color="#4598FB"/>
<stop offset="1" stop-color="#D15EAE"/>
</linearGradient>
<clipPath id="clip0_11202_339">
<rect width="32" height="32" fill="white"/>
</clipPath>
<clipPath id="clip1_11202_339">
<rect width="32" height="32" fill="white"/>
</clipPath>
</defs>
</svg>
