<svg width="16" height="17" viewBox="0 0 16 17" fill="currentColor" xmlns="http://www.w3.org/2000/svg">
<path d="M12.6668 3.30733H11.3335V2.64067C11.3335 2.46385 11.2633 2.29429 11.1382 2.16926C11.0132 2.04424 10.8436 1.974 10.6668 1.974C10.49 1.974 10.3204 2.04424 10.1954 2.16926C10.0704 2.29429 10.0002 2.46385 10.0002 2.64067V3.30733H6.00016V2.64067C6.00016 2.46385 5.92992 2.29429 5.8049 2.16926C5.67988 2.04424 5.51031 1.974 5.3335 1.974C5.15669 1.974 4.98712 2.04424 4.86209 2.16926C4.73707 2.29429 4.66683 2.46385 4.66683 2.64067V3.30733H3.3335C2.80306 3.30733 2.29436 3.51805 1.91928 3.89312C1.54421 4.26819 1.3335 4.7769 1.3335 5.30733V13.3073C1.3335 13.8378 1.54421 14.3465 1.91928 14.7215C2.29436 15.0966 2.80306 15.3073 3.3335 15.3073H12.6668C13.1973 15.3073 13.706 15.0966 14.081 14.7215C14.4561 14.3465 14.6668 13.8378 14.6668 13.3073V5.30733C14.6668 4.7769 14.4561 4.26819 14.081 3.89312C13.706 3.51805 13.1973 3.30733 12.6668 3.30733V3.30733ZM13.3335 13.3073C13.3335 13.4841 13.2633 13.6537 13.1382 13.7787C13.0132 13.9038 12.8436 13.974 12.6668 13.974H3.3335C3.15669 13.974 2.98712 13.9038 2.86209 13.7787C2.73707 13.6537 2.66683 13.4841 2.66683 13.3073V8.64067H13.3335V13.3073ZM13.3335 7.30733H2.66683V5.30733C2.66683 5.13052 2.73707 4.96095 2.86209 4.83593C2.98712 4.7109 3.15669 4.64067 3.3335 4.64067H4.66683V5.30733C4.66683 5.48414 4.73707 5.65371 4.86209 5.77874C4.98712 5.90376 5.15669 5.974 5.3335 5.974C5.51031 5.974 5.67988 5.90376 5.8049 5.77874C5.92992 5.65371 6.00016 5.48414 6.00016 5.30733V4.64067H10.0002V5.30733C10.0002 5.48414 10.0704 5.65371 10.1954 5.77874C10.3204 5.90376 10.49 5.974 10.6668 5.974C10.8436 5.974 11.0132 5.90376 11.1382 5.77874C11.2633 5.65371 11.3335 5.48414 11.3335 5.30733V4.64067H12.6668C12.8436 4.64067 13.0132 4.7109 13.1382 4.83593C13.2633 4.96095 13.3335 5.13052 13.3335 5.30733V7.30733Z" />
<path d="M12.6668 3.30733H11.3335V2.64067C11.3335 2.46385 11.2633 2.29429 11.1382 2.16926C11.0132 2.04424 10.8436 1.974 10.6668 1.974C10.49 1.974 10.3204 2.04424 10.1954 2.16926C10.0704 2.29429 10.0002 2.46385 10.0002 2.64067V3.30733H6.00016V2.64067C6.00016 2.46385 5.92992 2.29429 5.8049 2.16926C5.67988 2.04424 5.51031 1.974 5.3335 1.974C5.15669 1.974 4.98712 2.04424 4.86209 2.16926C4.73707 2.29429 4.66683 2.46385 4.66683 2.64067V3.30733H3.3335C2.80306 3.30733 2.29436 3.51805 1.91928 3.89312C1.54421 4.26819 1.3335 4.7769 1.3335 5.30733V13.3073C1.3335 13.8378 1.54421 14.3465 1.91928 14.7215C2.29436 15.0966 2.80306 15.3073 3.3335 15.3073H12.6668C13.1973 15.3073 13.706 15.0966 14.081 14.7215C14.4561 14.3465 14.6668 13.8378 14.6668 13.3073V5.30733C14.6668 4.7769 14.4561 4.26819 14.081 3.89312C13.706 3.51805 13.1973 3.30733 12.6668 3.30733V3.30733ZM13.3335 13.3073C13.3335 13.4841 13.2633 13.6537 13.1382 13.7787C13.0132 13.9038 12.8436 13.974 12.6668 13.974H3.3335C3.15669 13.974 2.98712 13.9038 2.86209 13.7787C2.73707 13.6537 2.66683 13.4841 2.66683 13.3073V8.64067H13.3335V13.3073ZM13.3335 7.30733H2.66683V5.30733C2.66683 5.13052 2.73707 4.96095 2.86209 4.83593C2.98712 4.7109 3.15669 4.64067 3.3335 4.64067H4.66683V5.30733C4.66683 5.48414 4.73707 5.65371 4.86209 5.77874C4.98712 5.90376 5.15669 5.974 5.3335 5.974C5.51031 5.974 5.67988 5.90376 5.8049 5.77874C5.92992 5.65371 6.00016 5.48414 6.00016 5.30733V4.64067H10.0002V5.30733C10.0002 5.48414 10.0704 5.65371 10.1954 5.77874C10.3204 5.90376 10.49 5.974 10.6668 5.974C10.8436 5.974 11.0132 5.90376 11.1382 5.77874C11.2633 5.65371 11.3335 5.48414 11.3335 5.30733V4.64067H12.6668C12.8436 4.64067 13.0132 4.7109 13.1382 4.83593C13.2633 4.96095 13.3335 5.13052 13.3335 5.30733V7.30733Z" />
</svg>
