<svg width="16" height="16" viewBox="0 0 16 16" fill="none" xmlns="http://www.w3.org/2000/svg">
<path fill-rule="evenodd" clip-rule="evenodd" d="M2 0C0.895431 0 0 0.895431 0 2V14C0 15.1046 0.895431 16 2 16H14C15.1046 16 16 15.1046 16 14V2C16 0.895431 15.1046 0 14 0H2ZM12.2657 4C12.4555 4 12.6373 4.08334 12.7709 4.23151C12.9169 4.37968 13 4.58824 13 4.80676C13 5.02528 12.9169 5.23384 12.7709 5.38201L6.9647 11.7685C6.8311 11.9167 6.64923 12 6.45951 12C6.26978 12 6.08791 11.9167 5.95431 11.7685L3.22196 8.76309C3.03512 8.56456 2.95876 8.27147 3.02164 7.99423C3.08453 7.71698 3.27711 7.49769 3.52684 7.41897C3.77657 7.34025 4.04552 7.41406 4.23236 7.61259L6.45951 10.0701L11.7605 4.23151C11.8941 4.08334 12.076 4 12.2657 4Z" fill="#333333"/>
</svg>
