<svg width="16" height="17" viewBox="0 0 16 17" fill="currentColor" xmlns="http://www.w3.org/2000/svg">
<path d="M11.6533 5.00725L9.75996 3.11392C9.69799 3.05143 9.62425 3.00184 9.54301 2.96799C9.46177 2.93415 9.37464 2.91672 9.28663 2.91672C9.19862 2.91672 9.11148 2.93415 9.03024 2.96799C8.949 3.00184 8.87527 3.05143 8.81329 3.11392C8.68913 3.23883 8.61943 3.4078 8.61943 3.58392C8.61943 3.76004 8.68913 3.92901 8.81329 4.05392L10.2266 5.46725L4.82663 10.8673L3.41329 9.45392C3.28839 9.32975 3.11942 9.26006 2.94329 9.26006C2.76717 9.26006 2.5982 9.32975 2.47329 9.45392C2.41081 9.51589 2.36121 9.58963 2.32737 9.67087C2.29352 9.75211 2.2761 9.83924 2.2761 9.92725C2.2761 10.0153 2.29352 10.1024 2.32737 10.1836C2.36121 10.2649 2.41081 10.3386 2.47329 10.4006L4.34663 12.2739L6.21996 14.1473C6.2817 14.2102 6.35533 14.2604 6.43658 14.2947C6.51783 14.329 6.60509 14.3469 6.69329 14.3473C6.82571 14.348 6.95536 14.3093 7.0657 14.2361C7.17605 14.1629 7.2621 14.0585 7.31287 13.9362C7.36365 13.8139 7.37686 13.6793 7.35081 13.5495C7.32477 13.4196 7.26065 13.3005 7.16663 13.2073L5.77329 11.8139L11.1733 6.41392L12.5866 7.82725C12.6488 7.88897 12.7225 7.93785 12.8035 7.97108C12.8846 8.00432 12.9714 8.02127 13.059 8.02096C13.1466 8.02065 13.2333 8.00309 13.3141 7.96928C13.3949 7.93547 13.4682 7.88608 13.53 7.82392C13.5917 7.76176 13.6406 7.68805 13.6738 7.60701C13.707 7.52596 13.724 7.43916 13.7237 7.35156C13.7234 7.26396 13.7058 7.17729 13.672 7.09648C13.6382 7.01567 13.5888 6.94231 13.5266 6.88059L11.6533 5.00725ZM2.47329 12.2806C2.34776 12.155 2.1775 12.0845 1.99996 12.0845C1.82243 12.0845 1.65216 12.155 1.52663 12.2806C1.40109 12.4061 1.33057 12.5764 1.33057 12.7539C1.33057 12.9315 1.40109 13.1017 1.52663 13.2273L3.41329 15.1139C3.47559 15.1757 3.54947 15.2246 3.63069 15.2578C3.71191 15.2909 3.79889 15.3078 3.88663 15.3073C3.97437 15.3078 4.06134 15.2909 4.14257 15.2578C4.22379 15.2246 4.29767 15.1757 4.35996 15.1139C4.42245 15.0519 4.47204 14.9782 4.50589 14.897C4.53973 14.8157 4.55716 14.7286 4.55716 14.6406C4.55716 14.5526 4.53973 14.4654 4.50589 14.3842C4.47204 14.303 4.42245 14.2292 4.35996 14.1673L2.47329 12.2806ZM14.4733 4.05392L12.5866 2.16725C12.5245 2.10509 12.4507 2.05579 12.3695 2.02215C12.2882 1.98851 12.2012 1.97119 12.1133 1.97119C12.0254 1.97119 11.9383 1.98851 11.8571 2.02215C11.7759 2.05579 11.7021 2.10509 11.64 2.16725C11.5778 2.22941 11.5285 2.3032 11.4949 2.38442C11.4612 2.46563 11.4439 2.55268 11.4439 2.64059C11.4439 2.72849 11.4612 2.81554 11.4949 2.89675C11.5285 2.97797 11.5778 3.05176 11.64 3.11392L13.5266 5.00059C13.5886 5.06307 13.6623 5.11267 13.7436 5.14651C13.8248 5.18036 13.912 5.19778 14 5.19778C14.088 5.19778 14.1751 5.18036 14.2563 5.14651C14.3376 5.11267 14.4113 5.06307 14.4733 5.00059C14.5358 4.93861 14.5854 4.86488 14.6192 4.78364C14.6531 4.7024 14.6705 4.61526 14.6705 4.52725C14.6705 4.43924 14.6531 4.35211 14.6192 4.27087C14.5854 4.18963 14.5358 4.11589 14.4733 4.05392V4.05392Z" />
</svg>
