<svg width="15" height="14" viewBox="0 0 15 14" fill="none" xmlns="http://www.w3.org/2000/svg">
<path d="M12.8132 2.03178C12.5004 1.70468 12.1291 1.44519 11.7203 1.26816C11.3116 1.09112 10.8735 1 10.4311 1C9.98869 1 9.5506 1.09112 9.14188 1.26816C8.73315 1.44519 8.3618 1.70468 8.04903 2.03178L7.39993 2.71032L6.75083 2.03178C6.11907 1.37136 5.26221 1.00034 4.36876 1.00034C3.47531 1.00034 2.61845 1.37136 1.98669 2.03178C1.35492 2.6922 1 3.58792 1 4.52189C1 5.45586 1.35492 6.35159 1.98669 7.012L2.63579 7.69054L7.39993 12.6708L12.1641 7.69054L12.8132 7.012C13.1261 6.68505 13.3743 6.29686 13.5437 5.8696C13.713 5.44233 13.8002 4.98438 13.8002 4.52189C13.8002 4.0594 13.713 3.60145 13.5437 3.17419C13.3743 2.74693 13.1261 2.35873 12.8132 2.03178V2.03178Z" stroke="white" stroke-width="1.33335" stroke-linecap="round" stroke-linejoin="round"/>
</svg>
