<svg width="16" height="16" viewBox="0 0 16 16" fill="none" xmlns="http://www.w3.org/2000/svg">
<path d="M8.3263 0.252038C8.41431 0.47423 8.34148 0.636962 8.19126 0.810647C6.91519 2.30184 6.30673 3.90099 6.56316 5.95392C6.88332 8.5107 8.74812 10.5402 11.1759 11.116C12.5738 11.4487 13.9435 11.2547 15.2848 10.5339C15.6581 10.3336 16.1345 10.609 15.9646 11.0706C15.4714 12.421 14.4457 13.6837 13.3638 14.4629C11.2507 15.9849 8.97066 16.3766 6.52371 15.6381C3.88507 14.8416 1.82453 12.5696 1.20243 9.76404C0.213126 5.2983 2.94888 1.04692 7.25051 0.0783525C7.4943 0.0241085 7.73353 -0.0019704 7.96821 0.000115906C8.04542 0.000651718 8.12072 0.0249027 8.1845 0.0697739C8.24829 0.114645 8.29765 0.178101 8.3263 0.252038Z" fill="#495057"/>
</svg>
