<svg width="40" height="40" viewBox="0 0 40 40" fill="none" xmlns="http://www.w3.org/2000/svg">
<mask id="mask0_4067_4040" style="mask-type:alpha" maskUnits="userSpaceOnUse" x="0" y="0" width="40" height="40">
<circle cx="20" cy="20" r="18.6622" fill="#C4C4C4" stroke="url(#paint0_linear_4067_4040)" stroke-width="2.67559"/>
</mask>
<g mask="url(#mask0_4067_4040)">
<circle cx="20" cy="20" r="20" fill="white"/>
<path d="M30 31V28.4444C30 27.0889 29.4732 25.7889 28.5355 24.8303C27.5979 23.8718 26.3261 23.3333 25 23.3333H15C13.6739 23.3333 12.4021 23.8718 11.4645 24.8303C10.5268 25.7889 10 27.0889 10 28.4444V31M25 13.1111C25 15.9339 22.7614 18.2222 20 18.2222C17.2386 18.2222 15 15.9339 15 13.1111C15 10.2883 17.2386 8 20 8C22.7614 8 25 10.2883 25 13.1111Z" stroke="#78798D" stroke-width="1.5" stroke-linecap="round" stroke-linejoin="round"/>
<circle cx="20" cy="20" r="20" stroke="#78798D" stroke-width="2"/>
</g>
<defs>
<linearGradient id="paint0_linear_4067_4040" x1="-1.34615" y1="9.03846" x2="42.1154" y2="41.5385" gradientUnits="userSpaceOnUse">
<stop offset="0" stop-color="#FC82E7"/>
<stop offset="1" stop-color="#F9F9F9" stop-opacity="0"/>
</linearGradient>
</defs>
</svg>
