<svg width="381" height="246" viewBox="0 0 381 246" fill="none" xmlns="http://www.w3.org/2000/svg">
<path d="M368.473 147.37C341.787 191.868 307.883 205.218 273.66 219.875C239.438 234.533 146.87 236.246 116.014 229.822C45.6055 215.164 -19.1924 169.358 8.57816 115.698C36.3487 62.0389 136.774 98.3249 174.079 104.704C195.159 108.309 209.508 91.721 244.008 72.577C347.435 15.1853 403.736 88.572 368.473 147.37Z" fill="#DBDBDB"/>
<path d="M368.473 147.37C341.787 191.868 307.883 205.218 273.66 219.875C239.438 234.533 146.87 236.246 116.014 229.822C45.6055 215.164 -19.1924 169.358 8.57816 115.698C36.3487 62.0389 136.774 98.3249 174.079 104.704C195.159 108.309 209.508 91.721 244.008 72.577C347.435 15.1853 403.736 88.572 368.473 147.37Z" fill="url(#paint0_linear_5441_2386)"/>
<rect x="88.5858" y="1.31435" width="201.591" height="196.834" rx="27.5193" fill="#FFEFF9" stroke="#F3C3E2" stroke-width="2.62088"/>
<mask id="mask0_5441_2386" style="mask-type:alpha" maskUnits="userSpaceOnUse" x="2" y="51" width="377" height="183">
<path d="M368.473 147.369C341.787 191.867 307.883 205.217 273.66 219.875C239.438 234.532 146.87 236.245 116.014 229.821C45.6055 215.163 -19.1924 169.357 8.57816 115.697C36.3487 62.0379 136.774 98.3239 174.079 104.703C195.159 108.308 209.508 91.72 244.008 72.576C347.435 15.1843 403.736 88.571 368.473 147.369Z" fill="#DBDBDB"/>
</mask>
<g mask="url(#mask0_5441_2386)">
<rect x="251.654" y="74.3398" width="71.2496" height="64.3909" rx="32.1955" fill="#EBA8D3"/>
<rect x="88.5858" y="12.83" width="201.591" height="250.755" rx="30.6643" fill="#FFEFF9" stroke="#F3C3E2" stroke-width="2.62088"/>
</g>
<g clip-path="url(#clip0_5441_2386)">
<rect x="104.667" y="40.3125" width="169.428" height="110.983" rx="5.24177" fill="#EBA8D3"/>
<path d="M157.085 98.758C186.963 101.641 226.276 100.593 273.455 57.0859L271.885 154.738L99.9495 158.252V64.9486C105.096 69.8143 127.207 95.875 157.085 98.758Z" fill="#FFEFF9"/>
<path d="M179.896 66.2401C178.523 65.4552 177.301 60.6093 175.326 56.1535C175.077 55.5905 175.987 54.8866 176.44 55.3047L185.537 63.7165C185.649 63.8201 185.71 63.9674 185.705 64.1199L185.21 78.145C185.208 78.1888 185.212 78.2326 185.222 78.2755L187.989 90.9248C188.069 91.2918 187.75 91.6172 187.386 91.5244C186.122 91.2021 184.108 90.5385 182.426 89.5073C179.812 87.9056 180.739 82.7632 180.571 80.8243C180.402 78.8854 181.667 67.2518 179.896 66.2401Z" fill="#FBB497"/>
<path d="M189.403 73.6012L187.741 73.8387C187.458 73.8792 187.259 74.139 187.295 74.4227L187.817 78.6029C187.889 79.1766 188.7 79.2287 188.845 78.6688L189.985 74.2511C190.078 73.889 189.773 73.5483 189.403 73.6012Z" fill="#FBB497"/>
<path d="M190.94 68.2652C190.559 68.0364 189.833 65.5318 188.637 64.3069C188.435 64.1002 188.107 64.1562 187.94 64.3915L185.694 67.5494C185.6 67.6818 185.573 67.8497 185.619 68.0053C186.586 71.237 187.69 75.9653 187.821 75.768C187.99 75.5151 192.036 75.768 192.626 75.2622C193.216 74.7564 192.458 71.7215 192.458 71.3C192.458 70.8785 193.638 70.1198 193.469 69.6983C193.301 69.2768 191.362 68.5181 190.94 68.2652Z" fill="#FFD0B6"/>
<path d="M178.379 69.2772C178.628 65.7158 180.829 64.5955 183.545 64.1576C183.64 64.1423 183.729 64.1022 183.803 64.0413C184.694 63.3157 186.207 62.3265 187.737 62.4488C189.844 62.6173 191.025 64.3034 190.94 64.725C190.856 65.1465 186.557 68.4342 186.557 68.5185C186.557 68.5853 185.508 72.9074 184.969 75.1185C184.96 75.1591 184.956 75.1994 184.951 75.2409C184.905 75.619 184.442 76.2537 182.847 76.1899C180.74 76.1056 178.126 72.9022 178.379 69.2772Z" fill="#232B7D"/>
<path d="M175.935 69.1918C177.353 68.0884 179.288 68.9009 180.154 70.1137C180.264 70.2678 180.44 70.4161 180.511 70.5918C180.614 70.8471 180.697 71.3608 180.655 72.311C180.571 74.2499 178.548 75.093 177.452 74.9243C176.356 74.7557 176.778 72.9011 176.778 72.311C176.778 71.7209 174.417 70.3721 175.935 69.1918Z" fill="#232B7D"/>
<path d="M179.981 107.465C181.052 106.08 183.87 105.077 185.406 104.675C185.595 104.626 185.794 104.691 185.921 104.839L193.889 114.056C194.107 114.308 194.039 114.696 193.747 114.856C190.12 116.838 183.274 120.5 180.909 121.459C177.79 122.723 169.275 124.747 165.987 124.747C162.7 124.747 149.717 126.18 147.61 126.77C145.502 127.36 143.395 128.962 142.383 129.215C141.637 129.401 140.928 126.782 140.602 125.139C140.556 124.907 140.675 124.677 140.889 124.576C144.4 122.916 151.354 119.731 153.764 119.014C156.883 118.087 161.857 119.183 163.374 119.014C164.891 118.846 167.083 116.822 169.95 115.221C172.121 114.007 175.775 112.748 177.588 112.189C177.765 112.134 177.9 111.99 177.95 111.811C178.239 110.767 178.942 108.811 179.981 107.465Z" fill="url(#paint1_linear_5441_2386)"/>
<path d="M136.819 126.348C138.047 125.918 140.207 125.642 141.39 125.532C141.585 125.514 141.773 125.61 141.876 125.777L143.275 128.042C143.396 128.238 143.372 128.487 143.24 128.675C141.73 130.821 141.981 135.007 143.394 135.2C145.249 135.452 146.007 135.031 146.007 135.705C146.007 137.054 144.321 136.886 141.877 136.886C139.426 136.886 138.336 136.633 137.83 135.452C137.721 135.198 137.599 133.969 137.072 132.586C136.623 131.409 135.857 130.081 135.47 129.383C134.627 127.865 135.133 126.938 136.819 126.348Z" fill="#FFD0B6"/>
<path d="M186.219 100.13C185.882 95.4936 181.835 88.5808 182.341 82.8483C182.341 82.483 182.51 80.6228 184.196 79.8135C186.303 78.8019 189.591 79.5606 191.362 80.8251C193.132 82.0896 198.949 95.4936 199.033 97.0953C199.099 98.3406 195.295 107.808 193.223 112.777C193.122 113.018 192.859 113.147 192.606 113.08L181.61 110.162C181.203 110.055 181.078 109.533 181.378 109.239C183.436 107.229 186.459 103.425 186.219 100.13Z" fill="#FFD0B6"/>
<path d="M181.667 113.282C179.136 108.096 183.872 104.779 185.445 102.787C185.609 102.579 185.893 102.49 186.137 102.595C188.939 103.8 194.869 105.704 199.286 104.936C205.103 103.925 209.149 105.021 213.533 105.021C217.916 105.021 217.916 110.584 218.507 112.861C218.965 114.627 221.576 124.261 222.937 129.273C223.007 129.529 222.874 129.796 222.628 129.896L218.11 131.729C217.73 131.883 217.306 131.558 217.314 131.148C217.323 130.741 217.308 130.247 217.242 129.721C217.073 128.372 212.184 120.111 211.425 117.919C210.667 115.727 211.762 111.933 209.739 111.849C207.716 111.765 204.934 115.647 199.707 116.991C196.757 117.75 185.123 120.363 181.667 113.282Z" fill="#BCDCFD"/>
<path d="M198.774 96.7583H185.591C185.363 96.7583 185.161 96.6109 185.09 96.3937C183.974 92.9865 181.751 87.5617 181.751 85.0404C181.751 84.1024 182.133 82.0673 182.578 80.7784C182.727 80.3491 183.137 80.4535 183.161 80.907C183.356 84.4765 183.69 88.4047 185.207 90.6043C186.392 92.3225 189.591 92.7961 190.434 91.6159C191.025 90.7885 189.911 84.3119 188.795 80.2641C188.66 79.7743 189.23 79.3591 189.645 79.6531L196.011 84.1716C196.112 84.2427 196.184 84.3467 196.215 84.4655L199.281 96.1005C199.369 96.4329 199.118 96.7583 198.774 96.7583Z" fill="#BCDCFD"/>
<path d="M182.763 73.5755C182.575 76.2151 183.055 80.9142 183.371 83.3614C183.407 83.6407 183.659 83.8384 183.94 83.8108L188.892 83.3225C189.184 83.2938 189.395 83.0329 189.362 82.7416C189.097 80.3789 188.664 75.9472 188.664 73.5755C188.664 71.0128 187.091 64.471 186.051 61.6047C185.039 59.3286 178.379 53.2589 177.621 52.4159C176.862 51.5729 176.019 48.2008 174.249 46.852C172.478 45.5032 170.118 45.0816 169.612 46.1776C169.261 46.9393 169.774 48.138 170.192 48.8448C170.296 49.0209 170.299 49.2397 170.235 49.4342C170.122 49.7814 170.074 50.2844 170.371 50.7299C170.877 51.4886 172.141 53.3432 172.9 53.5961C173.659 53.849 173.911 53.2589 174.839 54.0176C175.766 54.7763 177.705 57.2211 178.042 58.2327C178.379 59.2443 179.56 61.9419 179.897 62.2792C180.234 62.6164 181.924 64.5552 182.004 64.9768C182.342 66.6628 182.965 70.743 182.763 73.5755Z" fill="#FFD0B6"/>
<path d="M217.748 136.211C217.107 135.62 217.924 134 217.627 131.572C217.602 131.368 217.689 131.165 217.86 131.051L221.199 128.824C221.436 128.666 221.756 128.726 221.917 128.961C222.331 129.567 222.868 130.381 222.975 130.648C223.143 131.069 225.588 131.912 226.178 132.249C226.768 132.587 229.213 134.61 229.719 134.863C230.224 135.116 230.646 134.694 231.236 134.863C231.826 135.031 232.501 135.959 231.826 136.38C231.439 136.622 227.173 136.479 223.396 136.38C220.586 136.306 218.675 137.067 217.748 136.211Z" fill="#FFD0B6"/>
<path d="M198.443 85.4621C198.133 84.4701 194.646 82.6227 192.062 81.4945C191.629 81.3053 191.209 81.7503 191.409 82.1786L196.322 92.6871C196.529 93.1287 197.186 93.0771 197.336 92.6134C198.209 89.916 199.168 87.7826 198.443 85.4621Z" fill="#BCDCFD"/>
</g>
<rect x="72.1279" y="161.242" width="99.8617" height="10.4701" rx="3.66924" fill="#A0CCFE"/>
<rect x="180.967" y="161.242" width="26.929" height="10.4701" rx="3.66924" fill="#BCDCFD"/>
<rect x="72.1279" y="176.947" width="83.5921" height="10.4701" rx="3.66924" fill="#BCDCFD"/>
<rect x="72.1279" y="192.652" width="129.035" height="10.4701" rx="3.66924" fill="#BCDCFD"/>
<path d="M251.655 106.537C251.655 88.7562 266.07 74.3418 283.851 74.3418H288.683V138.733H283.851C266.07 138.733 251.655 124.318 251.655 106.537Z" fill="#F3C3E2"/>
<rect x="172.551" y="176.947" width="89.2023" height="10.4701" rx="3.66924" fill="#A0CCFE"/>
<rect x="217.993" y="161.242" width="83.5921" height="10.4701" rx="3.66924" fill="#BCDCFD"/>
<path d="M323.278 92.6642C323.278 109.493 308.629 123.287 290.366 123.287C272.102 123.287 257.454 109.493 257.454 92.6642C257.454 75.8354 272.102 62.0409 290.366 62.0409C308.629 62.0409 323.278 75.8354 323.278 92.6642Z" fill="#8DC1FF"/>
<path d="M323.278 92.6642C323.278 109.493 308.629 123.287 290.366 123.287C272.102 123.287 257.454 109.493 257.454 92.6642C257.454 75.8354 272.102 62.0409 290.366 62.0409C308.629 62.0409 323.278 75.8354 323.278 92.6642Z" fill="url(#paint2_linear_5441_2386)"/>
<path d="M323.278 92.6642C323.278 109.493 308.629 123.287 290.366 123.287C272.102 123.287 257.454 109.493 257.454 92.6642C257.454 75.8354 272.102 62.0409 290.366 62.0409C308.629 62.0409 323.278 75.8354 323.278 92.6642Z" stroke="#F3C3E2" stroke-width="2.62088"/>
<path d="M288.968 85.7501H292.029C292.215 85.7501 292.365 85.5995 292.365 85.4138V80.4283C292.365 79.171 293.768 78.4221 294.813 79.1215L310.847 89.8549C311.78 90.4788 311.777 91.8503 310.843 92.4712L294.808 103.13C293.763 103.825 292.365 103.075 292.365 101.82V97.2965C292.365 97.007 292.131 96.7724 291.841 96.7724H289.963C282.894 96.7724 276.1 99.5131 271.01 104.418L270.659 104.757C270.475 104.934 270.169 104.804 270.169 104.549C270.169 94.1665 278.585 85.7501 288.968 85.7501Z" fill="white"/>
<path d="M88.6778 87.7766C55.108 84.4466 22.5921 88.6199 8.57815 115.698C-19.1924 169.358 45.6055 215.164 116.014 229.822C146.87 236.246 239.438 234.533 273.66 219.875C307.883 205.218 341.787 191.868 368.473 147.37C394.414 104.115 370.802 52.9654 315.33 51.7939C298.948 51.7939 291.861 53.5636 290.365 54.4484" stroke="#DBDBDB" stroke-width="2.62088"/>
<path d="M88.6778 87.7766C55.108 84.4466 22.5921 88.6199 8.57815 115.698C-19.1924 169.358 45.6055 215.164 116.014 229.822C146.87 236.246 239.438 234.533 273.66 219.875C307.883 205.218 341.787 191.868 368.473 147.37C394.414 104.115 370.802 52.9654 315.33 51.7939C298.948 51.7939 291.861 53.5636 290.365 54.4484" stroke="#F3C3E2" stroke-width="2.62088"/>
<rect x="104.793" y="216.211" width="169.989" height="28.7927" rx="14.3963" fill="#BCDCFD"/>
<rect x="104.793" y="216.211" width="169.989" height="28.7927" rx="14.3963" fill="url(#paint3_linear_5441_2386)"/>
<rect x="117.009" y="224.586" width="78.5429" height="12.0406" rx="6.02029" fill="#BCDCFD"/>
<rect x="122.059" y="23.0381" width="23.5629" height="10.4701" rx="3.66924" fill="#F3C3E2"/>
<rect x="156.281" y="23.0381" width="78.5429" height="10.4701" rx="3.66924" fill="#F7D3EA"/>
<path d="M115.672 21.4668L109.66 27.0769C109.025 27.6694 109.025 28.6301 109.66 29.2226L115.672 34.8327" stroke="#F8D6EB" stroke-width="2.62088" stroke-linecap="round"/>
<path fill-rule="evenodd" clip-rule="evenodd" d="M22.8233 42.8304C32.6289 33.443 46.5719 29.0877 59.4186 29.5951C71.0641 30.0551 81.5508 34.4858 87.2759 42.4724V38.3257C80.697 31.1781 70.4046 27.4061 59.5221 26.9762C46.0711 26.4449 31.4023 30.9889 21.0109 40.9372C10.6778 50.8297 5.459 62.8536 5.45898 75.3739C5.45897 87.8811 10.6652 100.752 20.935 112.377C31.2327 124.034 44.2463 132.895 68.9935 138.613C93.6649 144.314 130.053 146.905 187.157 146.061C224.82 145.504 260.102 143.895 286.506 142.381C311.429 140.952 334.434 156.886 339.838 180.767L342.065 178.82C335.805 154.343 311.955 138.297 286.356 139.765C259.977 141.277 224.734 142.884 187.119 143.44C130.056 144.284 93.9313 141.686 69.5835 136.06C45.3115 130.451 32.7985 121.848 22.8992 110.642C12.972 99.4043 8.07985 87.1299 8.07987 75.3739C8.07988 63.631 12.9596 52.2735 22.8233 42.8304Z" fill="url(#paint4_linear_5441_2386)"/>
<rect x="77.1758" y="130.877" width="24.9654" height="23.2959" rx="2.91573" fill="#EBA8D3"/>
<path d="M81.0369 138.63C80.7623 138.63 80.5293 138.721 80.3379 138.904C80.1465 139.082 80.0508 139.298 80.0508 139.55V146.428C80.0508 146.684 80.1465 146.902 80.3379 147.08C80.5293 147.259 80.7623 147.348 81.0369 147.348C81.3074 147.348 81.5383 147.259 81.7297 147.08C81.9211 146.902 82.0168 146.684 82.0168 146.428V140.464H86.1985V146.428C86.1985 146.684 86.2942 146.902 86.4856 147.08C86.677 147.259 86.908 147.348 87.1784 147.348C87.4489 147.348 87.6819 147.259 87.8774 147.08C88.0688 146.902 88.1645 146.684 88.1645 146.428V139.55C88.1645 139.298 88.0688 139.082 87.8774 138.904C87.6819 138.721 87.4489 138.63 87.1784 138.63H81.0369Z" fill="#FFEFF9"/>
<path d="M91.1182 147.348C91.3886 147.348 91.6196 147.259 91.811 147.08C92.0024 146.902 92.0981 146.684 92.0981 146.428V143.906H96.2798V146.428C96.2798 146.684 96.3755 146.902 96.5669 147.08C96.7583 147.259 96.9892 147.348 97.2597 147.348C97.5301 147.348 97.7631 147.259 97.9587 147.08C98.1501 146.902 98.2458 146.684 98.2458 146.428V139.55C98.2458 139.298 98.1501 139.082 97.9587 138.904C97.7631 138.721 97.5301 138.63 97.2597 138.63C96.9892 138.63 96.7583 138.721 96.5669 138.904C96.3755 139.082 96.2798 139.298 96.2798 139.55V142.072H92.0981V139.55C92.0981 139.298 92.0024 139.082 91.811 138.904C91.6196 138.721 91.3886 138.63 91.1182 138.63C90.8436 138.63 90.6105 138.721 90.4191 138.904C90.2277 139.082 90.132 139.298 90.132 139.55V146.428C90.132 146.684 90.2277 146.902 90.4191 147.08C90.6105 147.259 90.8436 147.348 91.1182 147.348Z" fill="#FFEFF9"/>
<rect width="24.9654" height="23.2959" rx="2.91573" transform="matrix(-1 0 0 1 299.061 130.877)" fill="#F8D9ED"/>
<path d="M280.704 143.906H284.025C284.262 143.906 284.464 143.986 284.63 144.145C284.801 144.3 284.886 144.489 284.886 144.71C284.886 144.931 284.801 145.122 284.63 145.281C284.464 145.436 284.262 145.514 284.025 145.514H280.704V143.906ZM280.704 140.464H282.795C283.032 140.464 283.234 140.544 283.401 140.703C283.571 140.859 283.656 141.047 283.656 141.268C283.656 141.489 283.571 141.68 283.401 141.839C283.234 141.994 283.032 142.072 282.795 142.072H280.704V140.464ZM284.025 147.348C284.803 147.348 285.469 147.09 286.022 146.574C286.575 146.057 286.852 145.436 286.852 144.71C286.852 144.217 286.713 143.759 286.434 143.336C286.168 142.928 285.808 142.612 285.354 142.386C285.533 142.033 285.622 141.66 285.622 141.268C285.622 140.542 285.346 139.921 284.792 139.404C284.239 138.888 283.573 138.63 282.795 138.63H279.724C279.45 138.63 279.217 138.721 279.025 138.904C278.834 139.082 278.738 139.298 278.738 139.55V146.428C278.738 146.684 278.834 146.902 279.025 147.08C279.217 147.259 279.45 147.348 279.724 147.348H284.025Z" fill="#EBA8D3"/>
<path d="M292.495 147.348C293.785 147.348 294.886 146.923 295.797 146.073C295.988 145.894 296.084 145.677 296.084 145.421C296.084 145.168 295.988 144.953 295.797 144.774C295.605 144.596 295.375 144.506 295.104 144.506C294.829 144.506 294.596 144.596 294.405 144.774C293.877 145.267 293.24 145.514 292.495 145.514C291.75 145.514 291.114 145.267 290.585 144.774C290.057 144.281 289.793 143.687 289.793 142.992C289.793 142.293 290.057 141.697 290.585 141.204C291.114 140.711 291.75 140.464 292.495 140.464C293.24 140.464 293.877 140.711 294.405 141.204C294.596 141.387 294.829 141.478 295.104 141.478C295.375 141.478 295.605 141.387 295.797 141.204C295.988 141.025 296.084 140.81 296.084 140.558C296.084 140.305 295.988 140.09 295.797 139.911C294.886 139.057 293.785 138.63 292.495 138.63C291.205 138.63 290.105 139.057 289.194 139.911C288.282 140.758 287.827 141.785 287.827 142.992C287.827 144.196 288.282 145.223 289.194 146.073C290.105 146.923 291.205 147.348 292.495 147.348Z" fill="#EBA8D3"/>
<rect x="109.997" y="130.877" width="24.9654" height="23.2959" rx="2.91573" fill="#EBA8D3"/>
<path d="M116.233 143.906H119.553C119.79 143.906 119.992 143.986 120.158 144.145C120.329 144.3 120.414 144.489 120.414 144.71C120.414 144.931 120.329 145.122 120.158 145.281C119.992 145.436 119.79 145.514 119.553 145.514H116.233V143.906ZM116.233 140.464H118.323C118.561 140.464 118.762 140.544 118.929 140.703C119.099 140.859 119.185 141.047 119.185 141.268C119.185 141.489 119.099 141.68 118.929 141.839C118.762 141.994 118.561 142.072 118.323 142.072H116.233V140.464ZM119.553 147.348C120.331 147.348 120.997 147.09 121.55 146.574C122.104 146.057 122.38 145.436 122.38 144.71C122.38 144.217 122.241 143.759 121.962 143.336C121.696 142.928 121.336 142.612 120.882 142.386C121.061 142.033 121.151 141.66 121.151 141.268C121.151 140.542 120.874 139.921 120.321 139.404C119.767 138.888 119.102 138.63 118.323 138.63H115.253C114.978 138.63 114.745 138.721 114.554 138.904C114.362 139.082 114.267 139.298 114.267 139.55V146.428C114.267 146.684 114.362 146.902 114.554 147.08C114.745 147.259 114.978 147.348 115.253 147.348H119.553Z" fill="#FFEFF9"/>
<path d="M126.176 140.464V146.428C126.176 146.684 126.272 146.902 126.463 147.08C126.659 147.259 126.892 147.348 127.162 147.348C127.433 147.348 127.664 147.259 127.855 147.08C128.046 146.902 128.142 146.684 128.142 146.428V140.464H130.233C130.503 140.464 130.736 140.375 130.932 140.197C131.123 140.018 131.219 139.802 131.219 139.55C131.219 139.298 131.123 139.082 130.932 138.904C130.736 138.721 130.503 138.63 130.233 138.63H124.091C123.817 138.63 123.584 138.721 123.392 138.904C123.201 139.082 123.105 139.298 123.105 139.55C123.105 139.802 123.201 140.018 123.392 140.197C123.584 140.375 123.817 140.464 124.091 140.464H126.176Z" fill="#FFEFF9"/>
<rect width="24.9654" height="23.2959" rx="2.91573" transform="matrix(-1 0 0 1 266.24 130.877)" fill="#F8D9ED"/>
<path d="M249.442 147.211C250.732 147.211 251.832 146.786 252.744 145.935C252.935 145.757 253.031 145.539 253.031 145.283C253.031 145.031 252.935 144.815 252.744 144.636C252.552 144.458 252.321 144.369 252.051 144.369C251.776 144.369 251.543 144.458 251.352 144.636C250.823 145.13 250.187 145.376 249.442 145.376C248.697 145.376 248.061 145.13 247.532 144.636C247.004 144.143 246.739 143.549 246.739 142.854C246.739 142.155 247.004 141.559 247.532 141.066C248.061 140.573 248.697 140.327 249.442 140.327C250.187 140.327 250.823 140.573 251.352 141.066C251.543 141.249 251.776 141.34 252.051 141.34C252.321 141.34 252.552 141.249 252.744 141.066C252.935 140.888 253.031 140.672 253.031 140.42C253.031 140.168 252.935 139.952 252.744 139.773C251.832 138.919 250.732 138.492 249.442 138.492C248.152 138.492 247.052 138.919 246.14 139.773C245.229 140.62 244.773 141.647 244.773 142.854C244.773 144.058 245.229 145.085 246.14 145.935C247.052 146.786 248.152 147.211 249.442 147.211Z" fill="#EBA8D3"/>
<path d="M259.647 143.769C259.884 143.769 260.086 143.848 260.252 144.007C260.423 144.163 260.508 144.351 260.508 144.572C260.508 144.794 260.423 144.984 260.252 145.143C260.086 145.298 259.884 145.376 259.647 145.376H256.326V143.769H259.647ZM260.258 140.327C260.529 140.327 260.762 140.237 260.957 140.059C261.149 139.88 261.245 139.665 261.245 139.412C261.245 139.16 261.149 138.945 260.957 138.766C260.762 138.583 260.529 138.492 260.258 138.492H255.346C255.072 138.492 254.839 138.583 254.647 138.766C254.456 138.945 254.36 139.16 254.36 139.412V146.29C254.36 146.547 254.456 146.764 254.647 146.943C254.839 147.121 255.072 147.211 255.346 147.211H259.647C260.425 147.211 261.091 146.952 261.644 146.436C262.197 145.92 262.474 145.298 262.474 144.572C262.474 143.846 262.197 143.225 261.644 142.709C261.091 142.192 260.425 141.934 259.647 141.934H256.326V140.327H260.258Z" fill="#EBA8D3"/>
<rect x="142.816" y="130.877" width="24.9654" height="23.2959" rx="2.91573" fill="#EBA8D3"/>
<path d="M151.298 147.348C152.588 147.348 153.689 146.923 154.6 146.073C154.791 145.894 154.887 145.677 154.887 145.421C154.887 145.168 154.791 144.953 154.6 144.774C154.409 144.596 154.178 144.506 153.907 144.506C153.633 144.506 153.4 144.596 153.208 144.774C152.68 145.267 152.043 145.514 151.298 145.514C150.554 145.514 149.917 145.267 149.389 144.774C148.86 144.281 148.596 143.687 148.596 142.992C148.596 142.293 148.86 141.697 149.389 141.204C149.917 140.711 150.554 140.464 151.298 140.464C152.043 140.464 152.68 140.711 153.208 141.204C153.4 141.387 153.633 141.478 153.907 141.478C154.178 141.478 154.409 141.387 154.6 141.204C154.791 141.025 154.887 140.81 154.887 140.558C154.887 140.305 154.791 140.09 154.6 139.911C153.689 139.057 152.588 138.63 151.298 138.63C150.009 138.63 148.908 139.057 147.997 139.911C147.086 140.758 146.63 141.785 146.63 142.992C146.63 144.196 147.086 145.223 147.997 146.073C148.908 146.923 150.009 147.348 151.298 147.348Z" fill="#FFEFF9"/>
<path d="M162.365 141.845C162.365 142.221 162.219 142.546 161.928 142.817C161.641 143.085 161.293 143.219 160.885 143.219H158.183V140.464H160.885C161.293 140.464 161.641 140.6 161.928 140.872C162.219 141.14 162.365 141.464 162.365 141.845ZM157.203 147.348C157.473 147.348 157.704 147.259 157.896 147.08C158.087 146.902 158.183 146.684 158.183 146.428V145.054H160.885C161.834 145.054 162.645 144.739 163.319 144.11C163.994 143.485 164.331 142.73 164.331 141.845C164.331 140.959 163.994 140.202 163.319 139.573C162.645 138.944 161.834 138.63 160.885 138.63H157.203C156.928 138.63 156.695 138.721 156.504 138.904C156.313 139.082 156.217 139.298 156.217 139.55V146.428C156.217 146.684 156.313 146.902 156.504 147.08C156.695 147.259 156.928 147.348 157.203 147.348Z" fill="#FFEFF9"/>
<rect width="24.9654" height="23.2959" rx="2.91573" transform="matrix(-1 0 0 1 233.421 130.877)" fill="#EBA8D3"/>
<path d="M213.391 138.63C213.117 138.63 212.884 138.721 212.692 138.904C212.501 139.082 212.405 139.298 212.405 139.55V146.428C212.405 146.684 212.501 146.902 212.692 147.08C212.884 147.259 213.117 147.348 213.391 147.348C213.662 147.348 213.893 147.259 214.084 147.08C214.276 146.902 214.371 146.684 214.371 146.428V140.464H218.553V146.428C218.553 146.684 218.649 146.902 218.84 147.08C219.032 147.259 219.262 147.348 219.533 147.348C219.803 147.348 220.036 147.259 220.232 147.08C220.423 146.902 220.519 146.684 220.519 146.428V139.55C220.519 139.298 220.423 139.082 220.232 138.904C220.036 138.721 219.803 138.63 219.533 138.63H213.391Z" fill="#FFEFF9"/>
<path d="M224.815 140.464V146.428C224.815 146.684 224.91 146.902 225.102 147.08C225.297 147.259 225.53 147.348 225.801 147.348C226.071 147.348 226.302 147.259 226.493 147.08C226.685 146.902 226.781 146.684 226.781 146.428V140.464H228.871C229.142 140.464 229.375 140.375 229.57 140.197C229.762 140.018 229.858 139.802 229.858 139.55C229.858 139.298 229.762 139.082 229.57 138.904C229.375 138.721 229.142 138.63 228.871 138.63H222.73C222.455 138.63 222.222 138.721 222.031 138.904C221.84 139.082 221.744 139.298 221.744 139.55C221.744 139.802 221.84 140.018 222.031 140.197C222.222 140.375 222.455 140.464 222.73 140.464H224.815Z" fill="#FFEFF9"/>
<rect x="175.636" y="130.877" width="24.9654" height="23.2959" rx="2.91573" fill="#EBA8D3"/>
<path d="M187.526 139.55C187.526 139.298 187.43 139.082 187.239 138.904C187.043 138.721 186.81 138.63 186.54 138.63C186.269 138.63 186.038 138.721 185.847 138.904C185.656 139.082 185.56 139.298 185.56 139.55V143.219H183.469C182.891 143.219 182.398 143.029 181.99 142.648C181.582 142.268 181.378 141.808 181.378 141.268V139.55C181.378 139.298 181.282 139.082 181.091 138.904C180.9 138.721 180.669 138.63 180.398 138.63C180.124 138.63 179.891 138.721 179.699 138.904C179.508 139.082 179.412 139.298 179.412 139.55V141.268C179.412 142.313 179.809 143.206 180.604 143.947C181.395 144.685 182.35 145.054 183.469 145.054H185.56V146.428C185.56 146.684 185.656 146.902 185.847 147.08C186.038 147.259 186.269 147.348 186.54 147.348C186.81 147.348 187.043 147.259 187.239 147.08C187.43 146.902 187.526 146.684 187.526 146.428V139.55Z" fill="#FFEFF9"/>
<path d="M191.815 140.464V146.428C191.815 146.684 191.91 146.902 192.102 147.08C192.297 147.259 192.53 147.348 192.801 147.348C193.071 147.348 193.302 147.259 193.494 147.08C193.685 146.902 193.781 146.684 193.781 146.428V140.464H195.872C196.142 140.464 196.375 140.375 196.571 140.197C196.762 140.018 196.858 139.802 196.858 139.55C196.858 139.298 196.762 139.082 196.571 138.904C196.375 138.721 196.142 138.63 195.872 138.63H189.73C189.455 138.63 189.222 138.721 189.031 138.904C188.84 139.082 188.744 139.298 188.744 139.55C188.744 139.802 188.84 140.018 189.031 140.197C189.222 140.375 189.455 140.464 189.73 140.464H191.815Z" fill="#FFEFF9"/>
<defs>
<linearGradient id="paint0_linear_5441_2386" x1="257.826" y1="268.299" x2="306.224" y2="40.0716" gradientUnits="userSpaceOnUse">
<stop offset="0" stop-color="#EBA8D3"/>
<stop offset="0.395883" stop-color="#F3C3E2"/>
<stop offset="0.724008" stop-color="#F8D6EB"/>
<stop offset="1" stop-color="#FFEFF9"/>
</linearGradient>
<linearGradient id="paint1_linear_5441_2386" x1="199.033" y1="91.1104" x2="167.42" y2="129.224" gradientUnits="userSpaceOnUse">
<stop offset="0" stop-color="#87ADEF"/>
<stop offset="1" stop-color="#BCDCFD"/>
</linearGradient>
<linearGradient id="paint2_linear_5441_2386" x1="293.732" y1="124.598" x2="294.709" y2="60.7283" gradientUnits="userSpaceOnUse">
<stop offset="0" stop-color="#81BBFF"/>
<stop offset="1" stop-color="#FF8FDC"/>
</linearGradient>
<linearGradient id="paint3_linear_5441_2386" x1="104.667" y1="235.057" x2="274.528" y2="253.776" gradientUnits="userSpaceOnUse">
<stop offset="0" stop-color="#8BC0FF"/>
<stop offset="1" stop-color="#BCDCFD"/>
</linearGradient>
<linearGradient id="paint4_linear_5441_2386" x1="208.526" y1="5.15629" x2="208.526" y2="88.2369" gradientUnits="userSpaceOnUse">
<stop offset="0" stop-color="#6FA6E3"/>
<stop offset="1" stop-color="#E36EB9"/>
</linearGradient>
<clipPath id="clip0_5441_2386">
<rect x="104.667" y="40.3125" width="169.428" height="110.983" rx="5.24177" fill="white"/>
</clipPath>
</defs>
</svg>
