<svg width="374" height="344" viewBox="0 0 374 344" fill="none" xmlns="http://www.w3.org/2000/svg">
<ellipse cx="187" cy="194.051" rx="186.5" ry="149.949" fill="url(#paint0_linear_5455_3660)"/>
<rect width="52.4918" height="37.3841" rx="7.35848" transform="matrix(0.866218 0.499666 -0.500335 0.865832 287.735 68.3574)" fill="#F3C3E2"/>
<path d="M308.862 99.7189C309.712 101.19 308.649 103.03 306.948 103.03L293.099 103.03C291.399 103.03 290.337 101.191 291.188 99.72L298.112 87.7367C298.962 86.2655 301.087 86.2649 301.937 87.7356L308.862 99.7189Z" fill="#F1F7FC"/>
<ellipse cx="187" cy="315.701" rx="174.729" ry="28.2992" fill="url(#paint1_linear_5455_3660)"/>
<rect width="52.4918" height="37.3841" rx="7.35848" transform="matrix(0.866218 -0.499666 0.500335 0.865832 21.835 104.144)" fill="#A8CAF8"/>
<path d="M59.5821 101.546C61.2824 101.546 62.3455 103.385 61.4954 104.857L54.5707 116.84C53.7208 118.31 51.5962 118.31 50.746 116.839L43.8213 104.855C42.9712 103.384 44.0329 101.546 45.7327 101.546L59.5821 101.546Z" fill="white"/>
<rect width="68.8345" height="49.0072" rx="7.35848" transform="matrix(0.965984 -0.258604 0.259035 0.965868 54.2061 48.6711)" fill="#87ADEF"/>
<path d="M101.578 57.8254C104.315 58.5583 105.233 61.9795 103.229 63.9817L92.3124 74.8884C90.3096 76.8895 86.8903 75.9723 86.1568 73.2372L82.1611 58.3384C81.4276 55.6033 83.9297 53.1008 86.6657 53.8333L101.578 57.8254Z" fill="#FFF6FC"/>
<rect width="68.8345" height="49.0072" rx="7.35848" transform="matrix(0.965984 0.258604 -0.259035 0.965868 230.962 27.931)" fill="#EBA8D3"/>
<path d="M267.406 59.5239C269.41 61.5261 268.492 64.9474 265.755 65.6802L250.843 69.6724C248.107 70.4048 245.605 67.9024 246.338 65.1673L250.334 50.2684C251.067 47.5334 254.487 46.6161 256.489 48.6172L267.406 59.5239Z" fill="#F1F7FC"/>
<rect x="124.098" width="103.962" height="74.0076" rx="7.35848" fill="#F3C3E2"/>
<rect x="124.098" width="103.962" height="74.0076" rx="7.35848" fill="url(#paint2_linear_5455_3660)"/>
<path d="M192.439 33.4811C194.893 34.897 194.893 38.4394 192.439 39.8552L166.613 54.7524C164.16 56.1673 161.095 54.3971 161.095 51.5654L161.095 21.7709C161.095 18.9393 164.16 17.169 166.613 18.5839L192.439 33.4811Z" fill="#FFFCFC"/>
<rect opacity="0.4" x="129.248" y="3.67529" width="93.4339" height="66.154" rx="6.62263" fill="url(#paint3_linear_5455_3660)"/>
<path d="M158.225 202.505C151.795 196.274 142.676 192.712 132.844 189.307L145.351 166.12C145.351 166.12 155.365 165.752 165.582 155.462C175.8 145.172 185.446 152.465 191.7 152.154C197.953 151.843 204.776 149.49 210.46 147.377C219.97 143.842 219.107 160.469 221.578 177.513C223.79 192.766 229.85 207.257 226.646 217.573C216.714 249.548 231.594 262.136 229.22 267.924C227.322 272.554 225.852 277.358 227.434 279.401L183.699 303.572L158.225 311.659C152.914 297.02 140.622 284.464 147.649 266.823C150.361 260.015 166.137 243.14 170.732 241.462C174.462 240.1 170.364 214.265 158.225 202.505Z" fill="#FFD0B6"/>
<path d="M231.142 101.804C234.366 109.487 239.7 120.19 248.063 128.265L264.248 127.353C264.171 124.705 263.459 117.885 260.202 109.154C257.849 102.846 252.492 92.3029 242.177 82.325C235.793 76.1484 233.732 70.4801 227.463 58.8036L216.616 63.9537C224.98 77.842 228.562 95.657 231.142 101.804Z" fill="#FFD0B6"/>
<path d="M197.13 159.716L202.877 191.622C211.575 183.953 217.629 178.909 220.523 172.882C223.417 166.855 239.602 153.624 245.856 147.009C252.109 140.393 261.737 129.371 263.88 127.897C265.594 126.719 250.464 120.608 244.854 116.942C239.38 124.46 226.151 132.445 197.13 159.716Z" fill="#FFD0B6"/>
<path d="M171.918 192.581C168.975 186.333 154.997 187.436 151.687 197.359C151.687 197.726 153.232 198.339 156.469 201.034C160.883 204.709 166.401 215 168.24 219.043C170.079 223.085 171.918 233.743 171.918 237.419C171.918 240.359 168.24 244.769 166.401 246.607C171.428 248.199 182.218 249.841 185.161 243.667C188.839 235.949 174.861 198.829 171.918 192.581Z" fill="#FBB497"/>
<path d="M243.281 143.333C235.556 149.581 217.532 158.034 212.014 165.752L223.049 174.572V169.427C224.521 166.487 227.464 164.649 228.935 163.179C231.878 160.239 246.001 147.231 249.903 143.333C253.213 140.025 258.24 133.287 264.249 127.53C255.911 134.267 249.461 138.335 243.281 143.333Z" fill="#FBB497"/>
<path fill-rule="evenodd" clip-rule="evenodd" d="M211.535 273.887C225.7 269.79 241.165 265.426 249.532 263.373C266.749 259.15 293.879 259.15 302.748 263.373C311.617 267.597 322.573 276.572 311.095 288.187C299.618 299.802 249.532 310.361 225.532 311.417C219.346 311.689 213.749 311.751 208.839 311.502C208.756 311.964 208.673 312.386 208.59 312.767C206.458 322.524 113.06 315.662 92.2669 306.989C71.4739 298.316 60.2937 291.636 63.4926 279.168C66.6916 266.701 93.8824 261.822 116.808 263.449C132.394 264.554 141.596 267.432 156.697 272.154C159.366 272.989 162.22 273.881 165.325 274.832C183.922 280.523 207.07 275.045 211.535 273.887Z" fill="#BCDCFD"/>
<path fill-rule="evenodd" clip-rule="evenodd" d="M211.535 273.887C225.7 269.79 241.165 265.426 249.532 263.373C266.749 259.15 293.879 259.15 302.748 263.373C311.617 267.597 322.573 276.572 311.095 288.187C299.618 299.802 249.532 310.361 225.532 311.417C219.346 311.689 213.749 311.751 208.839 311.502C208.756 311.964 208.673 312.386 208.59 312.767C206.458 322.524 113.06 315.662 92.2669 306.989C71.4739 298.316 60.2937 291.636 63.4926 279.168C66.6916 266.701 93.8824 261.822 116.808 263.449C132.394 264.554 141.596 267.432 156.697 272.154C159.366 272.989 162.22 273.881 165.325 274.832C183.922 280.523 207.07 275.045 211.535 273.887Z" fill="url(#paint4_linear_5455_3660)"/>
<path d="M120.059 277.24C114.146 275.141 92.7834 275.075 85.6522 277.24C78.5211 279.404 67.0357 282.457 67.3735 289.834C67.7113 297.212 84.6886 307.461 98.4515 311.659C112.214 315.857 165.577 321.495 189.949 323.419L199.792 311.659C195.133 312.009 183.953 303.595 177.159 303.595C148.784 303.595 125.973 279.339 120.059 277.24Z" fill="#FBB497"/>
<path d="M244.712 285.104C256.662 276.818 267.948 270.853 287.778 274.559C294.256 276.314 308.053 280.851 309.312 285.616C311.102 292.396 288.53 305.984 271.497 311.942C255.624 317.495 224.229 321.42 214.775 322.473C207.989 323.229 185.889 325.632 178.536 326.158C171.162 326.686 148.844 326.685 145.598 326.685L145.449 326.685C142.823 326.685 137.045 330.897 135.995 331.424C134.945 331.95 132.844 329.844 132.844 326.685C132.844 323.526 142.823 316.681 147.549 314.048C152.276 311.416 163.831 314.048 166.457 312.995C169.083 311.942 176.436 299.832 181.688 299.306C185.889 298.885 191.841 304.746 194.292 307.73C195.868 307.73 201.015 307.204 208.998 305.097C218.977 302.465 236.366 290.891 244.712 285.104Z" fill="#FFD0B6"/>
<rect x="170.447" y="236.684" width="53.7061" height="9.55557" rx="0.735848" fill="#87ADEF"/>
<path fill-rule="evenodd" clip-rule="evenodd" d="M137.211 270.245C141.225 264.635 149.498 254.983 155.283 250.649C160.791 246.521 166.945 242.715 170.425 241.039C170.665 240.923 170.933 240.956 171.143 241.093H225.625V242.631C225.813 242.695 225.972 242.814 226.062 242.994C227.738 246.319 229.703 250.553 231.405 254.691C233.874 260.694 234.453 264.615 234.821 267.187C235.091 269.078 220.453 272.161 206.395 275.122C201.38 276.178 196.439 277.218 192.276 278.184C192.191 278.203 192.106 278.207 192.02 278.196L137.717 271.38C137.171 271.311 136.891 270.693 137.211 270.245Z" fill="#BCDCFD"/>
<path fill-rule="evenodd" clip-rule="evenodd" d="M137.211 270.245C141.225 264.635 149.498 254.983 155.283 250.649C160.791 246.521 166.945 242.715 170.425 241.039C170.665 240.923 170.933 240.956 171.143 241.093H225.625V242.631C225.813 242.695 225.972 242.814 226.062 242.994C227.738 246.319 229.703 250.553 231.405 254.691C233.874 260.694 234.453 264.615 234.821 267.187C235.091 269.078 220.453 272.161 206.395 275.122C201.38 276.178 196.439 277.218 192.276 278.184C192.191 278.203 192.106 278.207 192.02 278.196L137.717 271.38C137.171 271.311 136.891 270.693 137.211 270.245Z" fill="url(#paint5_linear_5455_3660)"/>
<path d="M181.114 259.47C179.6 254.092 183.812 244.402 185.161 240.359H171.918C166.4 242.931 156.1 249.179 151.318 253.59C147.165 257.42 141.386 264.125 139.547 266.82C132.803 265.35 119.242 262.704 116.005 262.41C111.958 262.043 72.9663 262.778 65.6094 274.538C59.7238 283.947 64.1379 291.812 70.0235 295.487C68.5521 293.282 65.6094 289.239 72.9663 282.256C78.3872 277.111 105.337 275.396 116.005 276.743C119.806 274.906 130.498 271.525 142.858 272.701C158.308 274.171 176.289 277.536 188.839 278.581C197.667 279.316 213.362 274.906 216.06 273.068C204.657 273.068 184.425 271.231 181.114 259.47Z" fill="#87ADEF"/>
<path d="M161.798 184.09L152.79 163.914C141.522 165.921 133.263 171.446 129.165 177.88C125.068 184.314 120.005 208.319 119.185 215.557C118.366 222.795 115.907 230.033 111.81 235.662C107.712 241.292 101.234 255.813 100.337 264.615C99.5176 272.657 94.3275 293.834 90.5033 303.217L98.6103 310.994C104.893 299.198 121.556 274.172 124.834 269.025C128.931 262.592 133.848 250.528 135.487 240.073C136.798 231.709 148.481 211.186 161.798 184.09Z" fill="#FFD0B6"/>
<path d="M167.52 205.093C167.511 204.681 167.843 204.342 168.256 204.342H227.033C227.463 204.342 227.801 204.709 227.766 205.138L226.381 222.042C226.349 222.424 226.03 222.718 225.647 222.718H168.614C168.213 222.718 167.887 222.398 167.878 221.997L167.52 205.093Z" fill="#87ADEF"/>
<path d="M114.622 110.44C130.562 109.197 135.488 112.85 136.336 122.049C137.184 131.248 135.797 138.485 120.804 141.141C97.8244 145.212 97.7021 111.76 114.622 110.44Z" fill="#232B7D"/>
<path d="M162.722 162.443C165.908 158.271 165.169 153.227 156.821 145.238C156.777 145.195 156.736 145.146 156.704 145.094L148.763 132.383C148.518 131.991 148.69 131.473 149.122 131.307L168.542 123.813C168.632 123.778 168.728 123.762 168.825 123.764L189.251 124.25C189.554 124.257 189.823 124.448 189.914 124.736C190.755 127.394 191.18 131.953 188.335 134.159C180.295 140.395 183.07 149.411 189.753 152.156C192.636 153.34 194.198 153.896 195.376 154.062C196.031 154.155 196.519 154.958 196.138 155.499L184.319 172.279C184.192 172.458 183.992 172.572 183.773 172.589L149.936 175.181C149.195 175.238 148.838 174.277 149.434 173.833C153.715 170.64 160.575 165.256 162.722 162.443Z" fill="#FFD0B6"/>
<path d="M173.307 162.814C176.617 159.506 168.892 147.011 182.871 143.335L185.446 135.25L181.031 133.412L166.317 131.575L156.753 137.455V146.643C159.083 149.216 163.742 154.729 163.742 156.199C163.742 158.036 157.941 162.814 150.132 164.284C139.55 166.276 131.105 174.106 134.766 172.734C137.709 171.632 151.603 169.797 155.65 169.797C159.696 169.797 169.996 166.122 173.307 162.814Z" fill="#FBB497"/>
<path d="M138.36 100.334C129.901 102.748 123.648 109.152 123.648 120.179C123.648 131.207 127.471 140.493 136.155 143.333C143.879 145.86 146.116 144.096 150.133 145.17C153.727 146.131 156.754 147.743 160.68 151.354C161.492 152.101 161.637 150.017 160.433 147.743C159.228 145.469 157.856 141.192 162.681 137.088C173.01 128.301 167.878 110.463 171.188 104.139C174.498 97.8153 171.607 88.2049 162.681 88.2053C156.693 88.2055 156.823 96.1898 154.547 97.3929C152.271 98.5961 148.32 97.4911 138.36 100.334Z" fill="#232B7D"/>
<path d="M181.742 112.281C177.984 112.204 174.172 95.7685 159.303 102.136C159.096 102.225 158.926 102.409 158.92 102.634C158.867 104.386 161.379 106.834 162.409 108.78C163.785 111.378 161.547 114.225 159.271 115.428C156.995 116.631 161.865 120.748 160.431 122.754C158.996 124.76 155.878 122.016 152.706 124.959C150.303 127.189 150.589 131.101 155.878 134.093C161.168 137.084 162.024 134.854 163.741 135.25C168.523 136.352 167.42 138.925 174.409 140.027C181.079 141.08 198.026 134.488 199.423 130.839C200.82 127.19 192.793 120.575 191.78 119.448C190.767 118.32 192.107 112.207 190.922 110.754C189.736 109.302 185.528 112.358 181.742 112.281Z" fill="#FFD0B6"/>
<path d="M195.461 123.853C194.726 124.956 190.312 124.956 189.208 124.221C190.557 123.118 193.52 121.001 194.358 121.28C195.461 121.648 196.197 122.751 195.461 123.853Z" fill="#D894C0"/>
<path d="M179.147 112.566C180.011 114.298 174.919 118.092 172.655 117.238C168.976 115.033 172.314 108.11 174.126 107.682C175.938 107.255 178.445 111.162 179.147 112.566Z" fill="#FBB497"/>
<path d="M174.493 116.136C174.125 115.768 175.229 112.461 175.965 111.358C177.068 111.358 177.804 112.828 177.804 113.931C177.804 115.033 174.861 116.503 174.493 116.136Z" fill="white"/>
<path d="M175.965 110.991C174.861 112.093 174.125 114.666 174.493 116.136" stroke="#232B7D" stroke-width="2.20754" stroke-linecap="round"/>
<path d="M175.116 107.745C175.381 109.191 171.835 114.324 170.75 114.523C169.236 114.427 171.232 106.962 172.252 106.401C173.271 105.841 174.851 106.299 175.116 107.745Z" fill="#232B7D"/>
<path d="M193.254 118.341C192.15 118.341 189.943 122.384 188.84 124.603C191.783 124.236 194.725 122.016 195.093 120.561C195.295 119.764 194.726 118.341 193.254 118.341Z" fill="#C483AD"/>
<path d="M69.8304 306.332C75.9396 305.503 85.9103 303.51 94.0401 302.241C93.8136 304.14 98.7657 304.992 98.3937 307.486C98.1494 309.124 97.1931 312.753 94.2066 316.907C91.2202 321.061 78.602 321.075 72.7648 320.981L60.5821 321.419C47.0239 323.46 39.2222 321.009 39.5429 319.402C39.8636 317.795 47.5193 316.753 53.3523 313.397C62.0128 308.414 61.4168 307.474 69.8304 306.332Z" fill="#FFD0B6"/>
<path d="M76.4996 314.835L86.1313 308.827L100.013 306.758C99.6454 309.405 98.1208 315.547 94.9658 318.944C91.022 323.191 79.4763 322.137 75.7622 322.258C73.9521 322.317 58.89 324.117 58.4226 320.985C58.0486 318.48 68.2675 315.91 76.4996 314.835Z" fill="#FFD0B6"/>
<path d="M58.0654 320.235C63.2247 317.906 62.9337 316.685 73.0427 315.926L82.4998 311.719" stroke="#FDC0A7" stroke-width="2.20754" stroke-linecap="round"/>
<path d="M208.043 62.0753C210.484 63.522 214.994 64.1548 216.944 64.2904C218.988 64.5147 224.358 62.6377 226.994 61.8946C229.629 61.1515 228.887 59.9173 228.886 58.518C228.885 57.1187 228.49 46.3746 227.828 43.4116C227.25 40.8243 218.268 41.0324 218.268 41.0324L210.626 41.9012C210.626 41.9012 210.825 50.153 207.952 51.2092C206.599 51.7065 201.273 45.6996 198.636 45.0432C196.527 44.5182 195.177 45.8145 194.765 46.5282C195.563 47.5428 197.852 49.5812 199.218 51.1343C202.765 55.1648 204.993 60.2669 208.043 62.0753Z" fill="#FFD0B6"/>
<path d="M227.78 43.0464C228.331 45.0942 228.25 47.5913 228.253 50.3902C220.425 46.1015 210.368 46.1356 210.368 46.1356C210.368 46.1356 210.55 37.9779 210.374 33.1892C209.232 31.0993 208.612 27.4709 208.797 24.8843C209.01 21.9172 210.111 21.3326 211.037 22.7552C212.383 24.8218 214.204 27.9453 215.001 31.5536C215.878 35.5228 215.703 37.8297 217.253 38.3249C224.937 40.7805 226.87 39.6721 227.78 43.0464Z" fill="#FFD0B6"/>
<path d="M225.478 45.5283C223.92 50.7163 216.341 51.7401 211.359 50.6367C211.061 50.5709 210.845 50.3195 210.81 50.0172L210.056 43.3949C209.864 41.7124 211.13 40.2152 212.823 40.123L215.958 39.9521" stroke="#FDC0A7" stroke-width="2.20754" stroke-linecap="round"/>
<path fill-rule="evenodd" clip-rule="evenodd" d="M165.295 213.971L161.457 207.07C161.288 206.765 161.355 206.385 161.617 206.156C163.532 204.485 166.59 201.582 166.767 196.991C167.128 187.614 166.701 175.405 155.56 163.838C155.233 163.499 155.29 162.939 155.688 162.687L158.6 160.835C158.822 160.694 159.103 160.682 159.336 160.805C162.982 162.724 166.48 164.736 170.256 166.907C174.328 169.248 178.722 171.775 183.973 174.573C195.009 180.453 200.526 178.983 206.044 177.145C211.562 175.308 211.562 171.632 208.251 167.957C207.626 167.263 207.027 166.583 206.405 165.875C203.855 162.976 200.914 159.632 194.171 153.118C193.747 152.708 193.949 151.987 194.526 151.863L197.939 151.133C198.177 151.082 198.43 151.157 198.606 151.325C210.897 163.027 217.134 166.925 222.365 170.194C224.086 171.269 225.697 172.276 227.379 173.47C233.082 177.519 236.576 180.085 237.311 186.701C237.7 190.198 235.027 195.014 232.422 199.709C230.889 202.472 229.379 205.192 228.529 207.578C228.452 207.796 228.186 208.035 227.83 208.259V217.572C227.83 217.978 227.5 218.308 227.094 218.308H166.031C165.625 218.308 165.295 217.978 165.295 217.572V213.971Z" fill="#BCDCFD"/>
<path fill-rule="evenodd" clip-rule="evenodd" d="M165.295 213.971L161.457 207.07C161.288 206.765 161.355 206.385 161.617 206.156C163.532 204.485 166.59 201.582 166.767 196.991C167.128 187.614 166.701 175.405 155.56 163.838C155.233 163.499 155.29 162.939 155.688 162.687L158.6 160.835C158.822 160.694 159.103 160.682 159.336 160.805C162.982 162.724 166.48 164.736 170.256 166.907C174.328 169.248 178.722 171.775 183.973 174.573C195.009 180.453 200.526 178.983 206.044 177.145C211.562 175.308 211.562 171.632 208.251 167.957C207.626 167.263 207.027 166.583 206.405 165.875C203.855 162.976 200.914 159.632 194.171 153.118C193.747 152.708 193.949 151.987 194.526 151.863L197.939 151.133C198.177 151.082 198.43 151.157 198.606 151.325C210.897 163.027 217.134 166.925 222.365 170.194C224.086 171.269 225.697 172.276 227.379 173.47C233.082 177.519 236.576 180.085 237.311 186.701C237.7 190.198 235.027 195.014 232.422 199.709C230.889 202.472 229.379 205.192 228.529 207.578C228.452 207.796 228.186 208.035 227.83 208.259V217.572C227.83 217.978 227.5 218.308 227.094 218.308H166.031C165.625 218.308 165.295 217.978 165.295 217.572V213.971Z" fill="url(#paint6_linear_5455_3660)"/>
<path d="M178.539 194.786C178.539 194.786 180.01 203.239 192.15 203.974C204.289 204.709 207.967 195.521 207.967 195.521" stroke="#87ADEF" stroke-width="2.20754" stroke-linecap="round"/>
<path d="M176.333 200.666C175.138 197.881 171.918 192.213 166.768 188.906C166.768 191.111 167.136 195.889 165.665 200.299C164.733 203.092 162.545 204.827 161.346 205.796C161.074 206.016 161.008 206.398 161.182 206.702L165.297 213.897V217.572C165.297 217.978 165.626 218.307 166.033 218.307H181.115C180.011 213.162 177.436 203.239 176.333 200.666Z" fill="#87ADEF"/>
<path d="M177.893 111.941C178.374 112.784 178.602 113.507 178.142 113.924C177.514 114.493 176.708 114.382 176.102 113.715C175.497 113.048 175.159 111.755 175.787 111.186C176.415 110.616 177.287 111.274 177.893 111.941Z" fill="#232B7D"/>
<path fill-rule="evenodd" clip-rule="evenodd" d="M234.257 72.0115L232.019 67.5377C232.021 67.5382 232.024 67.5387 232.026 67.5392C233.349 67.7909 235.138 68.273 236.949 69.2034C238.764 70.1365 240.64 71.5412 242.059 73.648C243.488 75.7692 244.385 78.4996 244.385 81.9572C244.385 88.9105 240.068 94.5413 235.845 100.049L235.79 100.12L235.701 100.236C231.364 105.893 226.902 111.713 225.215 119.468C224.164 124.298 225.01 129.127 226.714 133.516C225.767 134.308 224.781 135.135 223.754 136.001C221.565 130.852 220.277 124.855 221.619 118.685C223.483 110.121 228.381 103.735 232.625 98.2023L232.871 97.8813C237.295 92.1104 240.706 87.4694 240.706 81.9572C240.706 79.1672 239.993 77.1658 239.008 75.7036C238.013 74.2271 236.67 73.1968 235.267 72.4759C234.93 72.3027 234.592 72.1486 234.257 72.0115ZM237.109 155.358C238.04 154.5 238.954 153.657 239.833 152.841L242.681 157.078C266.647 192.724 253.117 241.348 214.183 259.493C187.665 271.851 156.257 266.398 135.456 245.824L134.531 244.908C134.873 243.456 135.167 242.012 135.402 240.595L138.044 243.208C157.75 262.7 187.506 267.866 212.629 256.158C249.514 238.968 262.333 192.901 239.628 159.13L237.098 155.368L237.109 155.359L237.109 155.358ZM115.548 229.143C116.101 227.906 116.596 226.633 117.032 225.334C101.843 209.472 78.9671 203.266 57.6819 209.535C25.855 218.91 7.98781 252.65 18.1192 284.244L24.4976 304.135L28.0011 303.011L21.6227 283.121C12.1223 253.494 28.8767 221.856 58.7214 213.065C79.2369 207.022 101.328 213.338 115.548 229.143Z" fill="url(#paint7_linear_5455_3660)"/>
<defs>
<linearGradient id="paint0_linear_5455_3660" x1="177.068" y1="108.786" x2="186.982" y2="344.001" gradientUnits="userSpaceOnUse">
<stop offset="0" stop-color="#F1F7FC"/>
<stop offset="1" stop-color="#F1F7FC" stop-opacity="0"/>
</linearGradient>
<linearGradient id="paint1_linear_5455_3660" x1="187.368" y1="244.401" x2="187.001" y2="344" gradientUnits="userSpaceOnUse">
<stop offset="0" stop-color="#F1F7FC" stop-opacity="0"/>
<stop offset="0.536508" stop-color="#F1F7FC"/>
</linearGradient>
<linearGradient id="paint2_linear_5455_3660" x1="124.098" y1="41.1153" x2="229.951" y2="38.4118" gradientUnits="userSpaceOnUse">
<stop offset="0" stop-color="#FF8FDC"/>
<stop offset="1" stop-color="#81BBFF"/>
</linearGradient>
<linearGradient id="paint3_linear_5455_3660" x1="175.965" y1="3.67529" x2="175.965" y2="69.8293" gradientUnits="userSpaceOnUse">
<stop offset="0" stop-color="#FFFCFC"/>
<stop offset="1" stop-color="#FFFCFC" stop-opacity="0"/>
</linearGradient>
<linearGradient id="paint4_linear_5455_3660" x1="62.0407" y1="308.806" x2="107.066" y2="209.447" gradientUnits="userSpaceOnUse">
<stop offset="0" stop-color="#87ADEF"/>
<stop offset="1" stop-color="#BCDCFD"/>
</linearGradient>
<linearGradient id="paint5_linear_5455_3660" x1="136.724" y1="272.531" x2="189.103" y2="206.977" gradientUnits="userSpaceOnUse">
<stop offset="0" stop-color="#87ADEF"/>
<stop offset="1" stop-color="#BCDCFD"/>
</linearGradient>
<linearGradient id="paint6_linear_5455_3660" x1="152.421" y1="246.607" x2="196.14" y2="177.111" gradientUnits="userSpaceOnUse">
<stop offset="0" stop-color="#87ADEF"/>
<stop offset="1" stop-color="#BCDCFD"/>
</linearGradient>
<linearGradient id="paint7_linear_5455_3660" x1="164.272" y1="73.3834" x2="59.6346" y2="294.393" gradientUnits="userSpaceOnUse">
<stop offset="0.0365079" stop-color="#87ADEF"/>
<stop offset="0.137312" stop-color="#6FA6E3"/>
<stop offset="1" stop-color="#E36EB9"/>
</linearGradient>
</defs>
</svg>
