<svg width="24" height="24" viewBox="0 0 24 24" fill="none" xmlns="http://www.w3.org/2000/svg">
<path fill-rule="evenodd" clip-rule="evenodd" d="M24 12C24 18.6274 18.6274 24 12 24C5.37264 24 0 18.6274 0 12C0 5.37264 5.37264 0 12 0C18.6274 0 24 5.37264 24 12Z" fill="black" fill-opacity="0.85"/>
<path fill-rule="evenodd" clip-rule="evenodd" d="M15.0219 4.07983C14.3321 4.07983 13.6829 4.25623 13.1168 4.56631L12.4604 5.01655C11.5933 5.74735 11.041 6.84055 11.041 8.06071V18.9181H11.7646V15.4129L13.2865 14.4709V13.6868L11.7646 14.689V8.06119C11.7646 7.01143 12.511 6.02215 13.0918 5.52751C13.5677 5.12191 14.5371 4.80415 15.0219 4.80415V4.80367H17.1934V4.07983H15.0219Z" fill="white"/>
<path fill-rule="evenodd" clip-rule="evenodd" d="M11.8425 12.1764C10.5374 13.2052 9.05705 14.1936 8.16305 14.8286V8.83507C8.16305 6.77203 9.77489 4.92307 11.5408 4.92307C13.3403 4.92307 14.4964 6.40771 14.4964 7.45627C14.4964 9.46219 13.1243 11.166 11.8425 12.1764ZM7.43945 8.82067V19.0375H8.16305V15.515C8.93849 14.981 10.7368 13.81 11.8425 12.9604C13.1462 11.9589 15.1751 10.4505 15.1795 7.48987C15.143 6.33883 14.2077 4.31659 11.5408 4.31995C9.30977 4.32259 7.43945 6.22603 7.43945 8.82067Z" fill="white"/>
<path fill-rule="evenodd" clip-rule="evenodd" d="M15.5996 18.9641H17.2885V18.2402H15.5996V18.9641Z" fill="white"/>
</svg>
