<svg width="19" height="18" viewBox="0 0 19 18" fill="none" xmlns="http://www.w3.org/2000/svg">
<path d="M12.7789 17.8093C13.1236 17.8093 13.4031 17.5296 13.4031 17.1846C13.4031 16.8396 13.1236 16.5599 12.7789 16.5599C12.4342 16.5599 12.1547 16.8396 12.1547 17.1846C12.1547 17.5296 12.4342 17.8093 12.7789 17.8093Z" fill="black"/>
<path d="M18.3605 0.520491C17.9749 0.189671 17.4549 0 16.9333 0C16.8267 8.49327e-05 16.7203 0.00759611 16.6147 0.0224762C15.6407 0.159215 14.7115 0.493819 13.9988 0.964739C13.5851 1.2378 13.2069 1.36487 12.8084 1.36487C12.5236 1.36487 12.223 1.30312 11.8339 1.16449C10.5117 0.693362 8.97034 0.190933 7.40549 0.190933C6.78559 0.188193 6.16818 0.26952 5.57011 0.432694C3.67722 0.951505 2.52688 2.11935 2.1535 3.90389C1.78307 5.66995 2.33379 7.1661 3.74543 8.23082C3.78216 8.25854 3.81406 8.28501 3.84491 8.31042C3.97755 8.42028 4.09215 8.51522 4.41851 8.60596C4.6032 8.65721 4.80237 8.59041 4.93816 8.43162C5.06661 8.28123 5.10124 8.0882 5.02841 7.92751C4.90039 7.65025 4.75809 7.51624 4.59312 7.36039L4.55954 7.32889C3.43082 6.26375 3.08494 5.17761 3.47112 3.91083C3.86821 2.60855 4.80321 1.82739 6.25032 1.59004C6.65125 1.52479 7.0568 1.49212 7.46299 1.49237C9.163 1.49237 10.7102 2.05613 11.8704 2.54763C11.8724 2.54843 11.8742 2.54962 11.8757 2.55114C11.8773 2.55265 11.8785 2.55447 11.8792 2.55646C11.8801 2.55846 11.8805 2.56059 11.8805 2.56276C11.8805 2.56492 11.8801 2.56706 11.8792 2.56906V2.57158C11.6841 3.03977 11.4924 3.50733 11.3069 3.95955L11.3027 3.96964C10.7239 5.38156 10.2726 6.5095 9.81258 7.7683L9.80481 7.7893C9.67889 8.13503 9.61592 8.30853 9.48307 8.38205C9.3349 8.46418 9.05135 8.46607 8.53652 8.46943C7.23192 8.47825 6.05492 8.70173 4.93837 9.1527C4.02688 9.5207 3.14686 10.0492 2.24837 10.7679C1.50414 11.3632 0.87178 12.1183 0.467975 12.8942C0.412357 13.0009 0.359259 13.1152 0.30553 13.2437C0.294826 13.27 0.127133 13.7082 0.0929233 13.8243C-0.0795963 14.4068 0.0270204 15.202 0.102157 15.4753C0.263553 16.0617 0.546049 16.5929 0.898015 16.9708C1.55199 17.6732 2.36716 18 3.4665 18H3.47112C4.75137 17.9989 5.84274 17.573 6.80818 16.6977C7.59501 15.9836 8.3193 14.9657 9.15881 13.3958C9.46187 12.8287 9.65391 12.2353 9.85707 11.6079C9.93473 11.3683 10.0149 11.1204 10.102 10.8742C10.165 10.6984 10.2143 10.5461 10.2628 10.3989C10.3234 10.2143 10.3809 10.0399 10.4601 9.82317C10.4621 9.81838 10.4659 9.81452 10.4706 9.81235C10.4753 9.81017 10.4807 9.80984 10.4857 9.8114L10.4941 9.81266C10.7684 9.84522 11.0217 9.87673 11.2668 9.90697H11.2735C11.9208 9.98721 12.4797 10.0565 12.9845 10.0941H12.9914C13.1859 10.0941 13.4344 10.0788 13.6307 9.95864L13.6389 9.95402C13.6562 9.94525 13.6724 9.93454 13.6873 9.9221C13.8859 9.75217 13.8882 9.45348 13.8343 9.34762L13.8133 9.30751C13.6918 9.06973 13.4305 8.96912 13.2856 8.92943C12.9679 8.84415 12.5584 8.79079 12.0843 8.72904H12.0818C11.9426 8.71098 11.7987 8.69228 11.6503 8.6717C11.4824 8.64859 11.3747 8.63599 11.2874 8.6257C11.1198 8.60883 10.9539 8.57841 10.7912 8.53475C10.7934 8.5094 10.8001 8.48464 10.811 8.46165L11.3915 7.02012C11.6666 6.43515 11.9145 5.82286 12.1542 5.23222C12.3221 4.81612 12.4822 4.42313 12.651 4.03706C13.0739 3.06918 13.2806 3.11434 13.7824 3.22335C13.8983 3.24835 14.0519 3.29014 14.2146 3.33446C14.372 3.37647 14.5344 3.42142 14.6893 3.45797C14.7903 3.48191 14.8836 3.5046 14.9716 3.52581C15.5932 3.67642 15.9358 3.75917 16.7194 3.78186H16.795C17.6247 3.78186 18.2205 3.47708 18.5017 3.19184C18.8258 2.86312 19.0073 2.36322 18.9998 1.82025C18.9899 1.3298 18.7639 0.866435 18.3605 0.520491ZM16.7635 1.31866C16.9692 1.31866 17.257 1.37894 17.4366 1.51337C17.5678 1.61188 17.6066 1.66482 17.6179 1.68771C17.6685 1.78874 17.6987 1.91204 17.6832 1.95846L17.6813 1.96539C17.6488 2.0952 17.6249 2.17291 17.5092 2.25945C17.2924 2.42245 17.008 2.526 16.7679 2.5302H16.7127C16.2959 2.5302 15.8084 2.51697 15.3523 2.41909C15.2893 2.40544 15.2365 2.39683 15.1844 2.38842C15.0609 2.37067 14.9394 2.34106 14.8215 2.29999L14.7529 2.27899C14.7334 2.26911 14.7153 2.25945 14.6966 2.24937C14.6505 2.2248 14.603 2.19917 14.5363 2.17102C14.5008 2.15162 14.4682 2.12722 14.4395 2.09856C14.4329 2.0855 14.4291 2.07118 14.4284 2.05655C14.4444 1.98451 14.8862 1.73728 15.3403 1.63205C15.4854 1.59823 15.6321 1.55917 15.7742 1.52136C16.0846 1.4386 16.4055 1.35332 16.7243 1.32013C16.7377 1.31992 16.7558 1.31887 16.7635 1.31908V1.31866ZM1.37717 14.1658C1.51128 13.5221 1.73123 13.0488 2.09075 12.6313C2.92103 11.665 3.62852 11.0769 4.45628 10.66C5.36338 10.2036 6.44614 9.94058 7.9667 9.80741L8.55436 9.7654H8.58773C8.68553 9.7654 8.95523 9.76856 9.16615 9.7715C9.14944 9.89196 9.12334 10.0109 9.08808 10.1273C9.08094 10.1529 9.07192 10.1794 9.06059 10.2086C9.03183 10.2823 8.98251 10.4365 8.91997 10.6318C8.81272 10.9679 8.6656 11.4264 8.53379 11.7566C8.10417 12.8312 7.56835 14.061 6.64825 15.0575C6.15714 15.5893 5.66728 16.0922 5.07794 16.4018C4.47181 16.7208 3.78111 16.8246 2.90445 16.7284C2.58963 16.6939 2.08718 16.4301 1.72598 15.9327C1.4714 15.5836 1.20507 14.9932 1.37717 14.1663V14.1658Z" fill="black"/>
</svg>
