<svg width="114" height="104" viewBox="0 0 114 104" fill="none" xmlns="http://www.w3.org/2000/svg">
<path fill-rule="evenodd" clip-rule="evenodd" d="M10.4976 26.1248C6.21044 18.5794 9.66233 12.0298 14.8337 9.11794C18.1086 7.27393 22.1912 7.45032 26.0087 7.61524C29.7265 7.77586 33.1927 7.92561 35.4164 6.18771C39.9235 2.66531 53.3711 13.5501 45.0743 20.606C43.4465 21.9904 40.9923 22.0517 38.1883 22.1218C34.9129 22.2036 31.1602 22.2974 27.6898 24.5257C21.2484 28.6617 12.961 30.4605 10.4976 26.1248ZM1.6093 72.2046C4.46794 82.2837 15.4785 103.226 36.4411 103.226C39.3459 103.226 42.5103 103.4 45.833 103.584C60.4342 104.39 78.0941 105.365 90.2243 92.4263C94.4806 87.8863 94.4403 83.1692 94.3967 78.0576C94.3426 71.7258 94.2834 64.7887 102.379 56.833C117.01 42.4548 118.725 22.2103 101.012 19.2735C94.47 18.1888 85.8962 24.624 77.0706 31.2482C68.6293 37.5839 59.9576 44.0926 52.6128 44.3599C46.2434 44.5917 40.7505 42.2676 35.4225 40.0132C28.1831 36.9502 21.248 34.0158 12.8318 37.7966C-1.77855 44.36 -1.24935 62.1256 1.6093 72.2046Z" fill="url(#paint0_linear_4670_2633)"/>
<path d="M48.5287 27.7309C48.7955 27.6648 49.5079 28.5713 50.2696 29.4914C50.3636 29.6079 50.906 27.8659 51.193 28.2677C51.4516 28.6326 50.8332 30.0653 51.193 30.5247C51.4051 30.8346 51.6887 31.1015 52.0285 31.3118C53.3414 32.2249 53.9733 32.5541 55.7379 32.9679C57.5025 33.3817 63.4235 34.8685 63.7504 34.5289C64.0768 34.1894 66.3612 30.0901 67.1996 28.2086C68.0378 26.3271 69.8457 22.5871 71.5952 21.5836C73.3446 20.58 74.8631 20.6706 75.7189 21.0771C78.2343 22.2724 78.1088 24.7282 76.4294 26.5394C75.3846 27.6657 74.1372 28.257 72.6205 30.9302C71.1039 33.6034 69.2318 34.763 68.4878 36.3834C67.7441 38.0037 66.4494 39.7359 65.1214 39.991C63.7934 40.2461 61.5646 39.6684 59.354 38.5544C57.1434 37.4405 54.65 35.8356 52.9664 34.8525C51.6446 34.0811 49.115 33.0461 48.4983 32.6529C47.6398 32.0996 46.0267 30.7292 46.2886 30.5765C46.7754 30.2966 47.807 31.3795 48.0837 31.1372C48.3603 30.895 45.7046 29.268 46.0851 28.8781C46.4661 28.4882 48.3699 30.1343 48.6756 30.1842C48.9813 30.2341 46.8399 28.3501 47.3011 28.0438C47.6987 27.7679 49.1142 29.2745 49.3524 29.4327C49.3437 29.4154 48.0371 27.8562 48.5287 27.7309Z" fill="#FED0BA"/>
<path d="M79.1879 23.8226L77.494 21.1758H72.4121V27.1046H77.494L79.1879 23.8226Z" fill="#FED0BA"/>
<path d="M78.1971 96.207C78.3447 97.2988 78.2433 97.7772 78.7752 98.5899C79.0977 99.0822 79.2968 99.6758 79.3467 100.262C79.3467 100.262 78.4221 100.616 77.413 101.004C76.4596 101.368 74.0722 101.908 73.6017 101.851C73.4171 101.828 73.8866 102.128 73.8662 101.533C73.8345 100.611 73.9288 99.4518 73.9288 99.4518C74.003 98.5376 73.9648 97.6178 73.815 96.7129C75.7646 96.8909 78.1971 96.207 78.1971 96.207Z" fill="#F1BCA3"/>
<path d="M75.4961 97.6504C75.5207 98.3652 75.4561 98.8771 75.8836 99.8896C76.0209 100.218 76.3641 100.703 76.4609 101.319C76.4609 101.319 75.8836 101.53 74.3224 101.954C73.0278 102.227 72.6285 102.377 70.7228 102.801C69.3192 103.029 68.7325 103.204 67.1378 103.436C66.5092 103.542 64.8998 103.648 64.8998 103.648C64.5064 103.53 64.2595 103.139 64.2595 102.886C64.2595 102.211 66.2399 101.942 67.1378 101.681C67.9374 101.451 68.6416 100.994 69.8532 100.58C71.0648 100.166 71.5476 99.5522 71.563 98.4174C71.5783 97.2821 71.523 97.4236 71.523 97.4236L75.4961 97.6504Z" fill="#FED0BA"/>
<path d="M77.6007 63.5898C77.6007 63.5898 76.5859 70.5277 76.7428 72.8252C76.8996 75.1227 78.5387 77.2697 79.086 79.5733C79.6334 81.8765 79.0461 87.094 78.8124 89.3145C78.5787 91.5354 78.2619 95.0657 78.2342 96.5013C76.8196 97.4211 74.6332 96.9153 74.6332 96.9153L72.7881 69.0925C72.7881 69.0925 77.5239 63.7862 77.6007 63.5898Z" fill="#F1BCA3"/>
<path d="M79.3462 40.793C79.3462 40.793 78.9956 42.8572 79.7275 44.0133C73.3435 46.7157 69.9454 43.9489 69.9454 43.9489C69.9454 43.9489 70.0623 42.078 70.0223 40.9862C75.6498 41.3388 79.3462 40.793 79.3462 40.793Z" fill="#FED0BA"/>
<path d="M79.8158 44.0459C79.8158 44.0459 82.6112 46.9537 82.6143 51.8918C82.6143 56.0876 79.2931 59.3729 79.2931 59.3729C79.2931 59.3729 78.4105 62.5227 77.1005 65.7953C76.5316 67.2096 74.3697 71.0098 74.6403 73.1567C74.7949 74.3899 75.7108 76.1475 76.1113 78.875C76.3642 80.5975 76.4116 82.7068 75.9319 85.3151C74.6926 92.0541 75.569 95.8299 75.4768 97.8357C73.2873 98.9797 71.5375 97.888 71.5283 97.679C71.5222 97.5408 69.6918 86.8591 68.4441 78.875C67.8102 74.819 67.3267 71.4592 67.3091 70.5314C67.2569 67.7768 69.9415 43.9414 69.9415 43.9414C69.9415 43.9414 75.1231 45.3923 79.8158 44.0459Z" fill="url(#paint1_linear_4670_2633)"/>
<path d="M75.4817 97.9321C74.7194 98.525 72.8702 98.3909 71.9879 98.1438C71.9526 98.1438 71.6491 97.8897 71.5644 97.7203C71.4586 97.5086 69.9763 89.0388 69.8705 88.1919C69.7858 87.5143 68.9176 81.9807 68.4941 79.2986C71.2892 79.6374 74.6347 78.4516 75.9052 77.8164C76.1169 78.4516 76.3287 80.9926 76.3287 81.8395C76.3287 82.6865 75.6934 87.6625 75.3758 89.3565C75.0582 91.0504 75.5876 97.5086 75.4817 97.9321Z" fill="#FED0BA"/>
<path d="M70.021 40.9803C71.5217 42.7837 79.4188 41.2532 79.4126 41.201C79.1666 38.7198 79.3849 35.4071 79.9385 30.8491C77.4253 27.6846 75.587 25.5678 74.3173 24.1902C72.7097 22.4459 72.0138 21.8867 72.0138 21.8867C72.8351 24.1902 70.7654 23.3987 69.8566 24.9868C69.2651 26.0205 68.7875 27.1062 68.8033 27.8862C68.8586 30.8216 69.7258 31.7049 69.7873 33.9288" fill="url(#paint2_linear_4670_2633)"/>
<path d="M72.2003 22.1278C71.9462 22.2972 70.1877 24.6688 70.3995 25.0922C70.6113 25.5157 71.5651 25.9392 71.5651 25.9392L74.3178 26.3627L74.7413 24.3511L75.0589 22.3396L73.6825 21.3867C73.2943 21.5632 72.4544 21.9584 72.2003 22.1278Z" fill="#FED0BA"/>
<path d="M72.7287 25.4095C71.5429 25.7482 70.3289 25.2683 69.8701 24.986L72.411 27.6328L77.5988 26.574C83.9511 24.4566 79.2927 21.4922 77.5988 21.4922C75.3755 21.4922 74.2109 24.986 72.7287 25.4095Z" fill="#FFDCF3"/>
<path d="M77.716 12.7031C77.2701 14.4668 76.8919 17.1567 77.716 21.3649C73.2631 22.3403 71.8732 22.144 71.8732 22.144C71.8732 22.144 74.8905 19.0636 74.423 15.2449C78.5561 12.9844 77.716 12.7031 77.716 12.7031Z" fill="#FED0BA"/>
<path d="M79.9766 10.9323C79.9766 10.9323 79.0971 16.2631 74.4228 17.3336C74.4874 15.5239 74.4689 14.9197 74.4689 14.9197L79.9274 9.74219L79.9766 10.9323Z" fill="#F1BCA3"/>
<path d="M76.0107 3.38603C73.0138 2.94987 70.6111 5.71186 71.4581 7.08894L74.5284 10.9015C75.8577 12.5734 77.1148 12.768 77.0468 13.4692C76.7517 16.5108 77.5537 16.2642 78.2788 17.4636C79.0038 18.6631 77.4929 20.212 78.2788 20.6433C78.8962 20.8268 79.6372 20.8025 80.2968 20.6433C81.512 20.3499 82.4512 19.5983 81.8336 18.8435C81.4269 18.3463 80.2455 18.2082 80.0338 16.4084C79.7899 14.3354 82.0013 12.4879 82.243 9.43476C82.4847 6.38166 79.7568 3.93122 76.0107 3.38603Z" fill="#68341E"/>
<path d="M71.9862 7.92004C71.3282 9.38976 70.2758 12.1874 70.4117 14.5167C70.5689 17.2189 73.1718 16.9477 74.408 16.2853C76.7817 15.022 77.2773 14.1655 77.8714 12.8098C78.62 13.1764 79.9254 11.3555 78.937 10.4312C78.4975 10.0152 77.8714 10.3849 77.8714 10.3849C77.2461 9.04108 76.2542 7.97404 75.05 7.35006C72.94 6.19154 72.3965 7.0019 71.9862 7.92004Z" fill="#FED0BA"/>
<path d="M93.3135 29.9691C94.669 31.9885 94.4975 34.7028 94.0538 35.0529C93.4606 35.1568 90.8326 34.5766 89.5219 32.3791C88.2111 30.1819 88.6515 27.7544 89.0564 27.2911C89.7555 26.9347 91.9769 27.9742 93.3135 29.9691Z" fill="#272B7B"/>
<path d="M58.6765 46.9342L89.0632 27.2925C88.8628 28.1155 88.8278 28.9699 88.9611 29.8059C89.0945 30.642 89.3929 31.4427 89.8389 32.1611C90.2849 32.8795 90.8699 33.5011 91.5595 33.9901C92.2487 34.4788 93.0288 34.8246 93.854 35.0074L94.0549 35.0519L63.6667 54.6968L63.4685 54.6298C61.8946 54.1164 60.5519 53.0645 59.6755 51.6584C58.7992 50.2519 58.4451 48.5807 58.6753 46.937L58.6765 46.9342Z" fill="url(#paint3_linear_4670_2633)"/>
<path d="M89.5564 37.9081C88.2406 37.5871 86.8347 36.5875 85.7838 35.0838C84.6381 33.4432 84.199 31.6096 84.4816 30.1968M69.6729 50.8702C68.3543 50.5479 66.9494 49.5454 65.8987 48.0418C64.7544 46.4052 64.3126 44.5704 64.5991 43.1559" stroke="#272B7B" stroke-width="0.248439" stroke-miterlimit="10" stroke-linecap="round"/>
<path d="M78.9563 22.2013C81.637 22.7159 81.909 27.362 81.1342 30.0108C80.3595 32.6597 80.1289 33.81 80.0806 35.0058C80.0085 36.8641 79.3845 38.7909 79.2502 40.0256C79.086 41.5172 79.3127 43.0794 78.6226 45.1281C77.9326 47.1768 74.4754 53.8365 74.2891 55.8525C74.162 57.2406 74.1123 58.0497 73.9741 59.5543C73.8359 61.0589 73.6034 62.5038 73.187 62.4024C72.7706 62.3014 73.0845 59.9742 73.0879 59.7409C73.0913 59.508 72.5185 63.6202 71.8343 63.3276C71.1498 63.0355 72.6255 58.875 72.3985 59.1356C72.2754 59.2779 71.444 63.6964 70.6765 63.2402C69.9701 62.8311 71.8071 58.8235 71.719 58.5244C71.719 58.5244 70.4968 62.2161 69.8923 61.8054C69.2881 61.3947 71.137 57.8806 71.1883 57.6144C71.2991 57.0243 69.8028 58.9903 69.4977 58.078C69.0107 56.6165 71.016 57.2131 71.9333 53.9132C72.8222 50.7413 72.9941 47.7554 73.649 45.347C74.3039 42.939 74.8993 42.153 74.7304 40.5459C74.5615 38.9389 74.3362 38.11 74.7741 33.7964C75.1647 29.9669 74.8507 29.5022 74.8835 27.2506C74.9163 24.999 76.1287 21.657 78.9563 22.2013Z" fill="#FED0BA"/>
<ellipse cx="79.0882" cy="17.0067" rx="1.40545" ry="0.490851" transform="rotate(-18.5425 79.0882 17.0067)" fill="#68341E"/>
<path d="M77.811 76.3357C77.3875 76.7592 76.1877 77.0768 75.6937 77.1827C75.5878 76.7239 75.3972 75.7005 75.0584 74.8535C74.6349 73.7948 74.5291 72.7361 74.6349 71.995C74.7246 71.3661 75.2701 69.8775 75.5877 69.0305C75.8418 68.353 76.8935 66.1367 77.3875 65.1133C77.3875 65.1133 76.8582 69.9834 76.7523 70.9362C76.6464 71.8891 76.964 73.6889 77.1758 74.43C77.3815 75.1498 77.9169 76.2298 77.811 76.3357Z" fill="url(#paint4_linear_4670_2633)"/>
<path d="M71.2646 10.0156C71.3578 9.21718 72.222 7.96923 72.6229 7.09282L73.0463 6.88102L74.0335 9.66734L75.7921 12.3604C75.6458 13.3523 75.2752 14.6014 75.058 14.9276C74.7864 15.3354 74.4422 16.4347 72.3053 15.9861C71.5556 15.8287 71.0555 15.481 70.7433 15.0335C70.6678 14.9253 72.1994 14.2924 70.5489 14.6927C70.6113 14.3983 70.4196 14.3615 70.3808 14.1865C70.23 13.5057 70.3291 12.7458 70.5489 12.0964C70.2536 11.8794 69.6779 11.3744 69.7378 11.0895C69.8125 10.7333 71.1711 10.4608 71.2646 10.0156Z" fill="#FED0BA"/>
<ellipse rx="0.321307" ry="0.642614" transform="matrix(-0.978667 -0.205453 -0.205453 0.978667 72.2625 10.1332)" fill="#5C2C15"/>
<path d="M32.453 96.5547C32.3054 97.6464 32.4068 98.1248 31.8749 98.9375C31.0447 100.205 31.032 102.144 32.2788 102.907L32.8425 103.013C34.2188 103.119 36.0775 103.283 36.548 103.225C37.0185 103.166 36.7213 99.7994 36.7213 99.7994C36.6471 98.8853 36.6853 97.9655 36.8351 97.0605C34.8855 97.2385 32.453 96.5547 32.453 96.5547Z" fill="#F1BCA3"/>
<path d="M35.1544 98.002C35.1297 98.7167 35.1943 99.2286 34.7668 100.241C34.5248 100.82 33.8939 102.217 34.4675 103.121C34.4675 103.121 35.3825 103.227 36.1236 103.227C37.6058 103.227 37.7117 103.227 39.4056 103.227C40.9937 103.333 41.4172 103.333 43.0053 103.439C43.9581 103.502 46.2284 103.545 46.2284 103.545C46.3318 103.458 46.391 103.357 46.391 103.238C46.391 102.563 44.4106 102.293 43.5126 102.032C42.7131 101.802 42.0089 101.345 40.7973 100.931C39.5856 100.517 39.1028 99.9038 39.0875 98.769C39.0721 97.6337 39.1274 97.7752 39.1274 97.7752L35.1544 98.002Z" fill="#FED0BA"/>
<path d="M33.0487 63.7188C33.0487 63.7188 34.0635 70.6566 33.9066 72.9541C33.7498 75.2516 32.1107 77.3986 31.5634 79.7022C31.016 82.0054 31.6033 87.2229 31.837 89.4434C32.0708 91.6643 32.3875 95.1946 32.4152 96.6302C33.8298 97.55 36.0162 97.0442 36.0162 97.0442L37.8613 69.2214C37.8613 69.2214 33.1255 63.9151 33.0487 63.7188Z" fill="url(#paint5_linear_4670_2633)"/>
<path d="M31.3032 40.9219C31.3032 40.9219 31.6538 42.9861 30.9219 44.1422C37.3059 46.8446 40.704 44.0778 40.704 44.0778C40.704 44.0778 40.5872 42.2069 40.6271 41.1151C34.9996 41.4677 31.3032 40.9219 31.3032 40.9219Z" fill="#FED0BA"/>
<path d="M30.8336 44.1709C30.8336 44.1709 28.0382 47.0787 28.0352 52.0168C28.0352 56.2126 31.3563 59.4979 31.3563 59.4979C31.3563 59.4979 32.2389 62.6477 33.549 65.9203C34.1179 67.3346 36.2797 71.1348 36.0091 73.2817C35.7569 75.2937 33.4782 78.7017 34.7175 85.4401C35.9568 92.1791 35.0804 95.9549 35.1726 97.9607C37.3622 99.1047 39.1119 98.013 39.1211 97.804C39.1304 97.5955 43.288 73.4106 43.3403 70.6564C43.3925 67.9018 40.7079 44.0664 40.7079 44.0664C40.7079 44.0664 35.5263 45.5173 30.8336 44.1709Z" fill="url(#paint6_linear_4670_2633)"/>
<path d="M40.6294 41.1053C39.1287 42.9087 31.2316 41.3782 31.2378 41.326C31.4838 38.8448 31.2654 35.5321 30.7119 30.9741C35.5676 23.0795 38.6366 22.0117 38.6366 22.0117C38.7535 22.0884 41.8871 26.0329 41.8471 28.0112C41.7917 30.9466 40.9246 31.8299 40.8631 34.0538" fill="url(#paint7_linear_4670_2633)"/>
<path fill-rule="evenodd" clip-rule="evenodd" d="M35.3161 2.92795C35.1805 1.96791 34.7082 0.662998 33.1943 0.133328C32.1023 -0.249343 31.4264 0.258538 30.6892 0.81236C30.1975 1.18185 29.6785 1.5718 28.9906 1.73137C27.9604 1.96756 25.7278 2.5227 25.8078 4.79859C25.86 6.26564 26.9075 7.01926 27.7656 7.39176C27.2152 8.33801 26.9314 9.58149 27.3745 11.001C28.6753 15.1877 33.9984 15.4147 33.9984 15.4147L39.6721 8.42449C39.6721 8.42449 41.1051 6.63936 38.8541 4.13037C37.9951 3.18365 36.6967 2.74699 35.3161 2.92795Z" fill="url(#paint8_linear_4670_2633)"/>
<path d="M32.9341 12.8323C33.38 14.5959 33.7582 17.2858 32.9341 21.4941C37.3869 22.4695 38.7769 22.2731 38.7769 22.2731C38.7769 22.2731 36.0529 18.1127 36.5203 14.294C32.3873 12.0335 32.9341 12.8323 32.9341 12.8323Z" fill="#FED0BA"/>
<path d="M33.2145 14.5119C33.5319 16.2059 33.2143 16.1982 36.6507 17.1273C36.5861 15.3177 36.6046 14.7135 36.6046 14.7135C36.6046 14.7135 34.4324 7.61909 33.768 10.481C33.3092 12.4568 32.8971 12.818 33.2145 14.5119Z" fill="#F1BCA3"/>
<path d="M39.7562 8.13364C40.5158 9.59674 41.7305 12.3818 41.5736 14.7006C41.3922 17.3906 38.3877 17.1206 36.9609 16.4612C34.2209 15.2036 33.6489 14.3509 32.9632 13.0013C32.0991 13.3663 30.5922 11.5536 31.7331 10.6335C32.2405 10.2194 32.9632 10.5874 32.9632 10.5874C33.6849 9.24963 34.8298 8.1874 36.2198 7.56622C38.6553 6.41293 39.2826 7.21964 39.7562 8.13364Z" fill="#FED0BA"/>
<path d="M38.7903 48.8611C38.7775 48.5863 37.764 48.1651 36.7249 47.7006C36.594 47.6442 37.4535 45.9233 37.0122 45.7642C36.6119 45.6216 36.0526 47.3261 35.5395 47.1138C35.2015 47 34.8831 46.8051 34.6004 46.5402C33.4176 45.5454 32.948 45.0348 32.0936 43.4631C31.2392 41.8914 28.2834 36.6458 28.5015 36.2346C28.7196 35.8237 31.8037 32.4516 33.2765 31.1053C34.7492 29.759 37.6383 26.9472 38.0693 24.981C38.5004 23.0148 38.0052 21.5856 37.4048 20.8827C35.6395 18.817 33.4535 19.6459 32.2732 21.778C31.5394 23.1043 31.3444 24.4704 29.3405 26.6952C27.3367 28.9201 26.7979 31.0489 25.5355 32.2295C24.2731 33.4097 23.0595 35.1503 23.1904 36.4967C23.3212 37.843 24.4502 39.8124 26.0589 41.6095C27.6676 43.4066 29.7972 45.3332 31.1443 46.663C32.2014 47.7072 33.8255 49.8328 34.3489 50.3105C35.0827 50.9735 36.7608 52.1241 36.8275 51.829C36.9481 51.2817 35.6883 50.6055 35.832 50.2705C35.9757 49.9354 38.1694 52.0111 38.4183 51.534C38.6671 51.0563 36.6607 49.7067 36.5324 49.4281C36.4041 49.1496 38.6902 50.6582 38.8416 50.1279C38.9828 49.6672 37.2354 48.7453 37.0276 48.5627C37.0456 48.566 38.8109 49.3684 38.7903 48.8611Z" fill="#FED0BA"/>
<path d="M40.3575 10.6094C40.2642 9.81093 39.4 8.56298 38.9991 7.68657L38.5757 7.47477L37.5885 10.2611L35.83 12.9542C35.9763 13.946 36.3469 15.1952 36.5641 15.5214C36.8356 15.9292 37.1799 17.0284 39.3168 16.5798C41.4536 16.1312 41.5627 14.1366 41.0732 12.6901C41.3685 12.4732 41.9441 11.9681 41.8843 11.6832C41.8096 11.3271 40.4509 11.0545 40.3575 10.6094Z" fill="#FED0BA"/>
<ellipse cx="39.3586" cy="10.727" rx="0.321307" ry="0.642614" transform="rotate(-11.856 39.3586 10.727)" fill="#5C2C15"/>
<path d="M72.7444 8.62223C72.9463 8.76888 73.3666 9.16677 73.4329 9.58504" stroke="#5C2C15" stroke-width="0.211744" stroke-linecap="round"/>
<path d="M38.4258 9.95244C38.4964 9.70541 38.7222 9.19017 39.061 9.10547" stroke="#5C2C15" stroke-width="0.211744" stroke-linecap="round"/>
<path d="M40.5415 14.5079C40.2925 14.5714 39.7292 14.3778 39.4853 14.1278" stroke="#5C2C15" stroke-width="0.211744" stroke-linecap="round"/>
<path d="M71.1437 13.7599C71.6623 13.8649 72.3806 13.7783 72.6957 13.6336C73.0107 13.4888 72.3404 14.1226 72.0923 14.2957C71.8444 14.4688 71.5608 14.5843 71.2624 14.6339" stroke="#5C2C15" stroke-width="0.211744" stroke-linecap="round"/>
<path d="M38.426 7.59238C37.4097 9.70982 36.2027 11.0092 33.0266 10.5858L31.4385 7.41191L33.6618 5.61209C35.4616 5.32976 39.4424 5.47494 38.426 7.59238Z" fill="#FFF0BC"/>
<path d="M73.3019 7.34914C74.2348 9.43383 75.3427 10.7132 78.2581 10.2962L79.7158 7.17146L77.675 5.39947C76.023 5.12152 72.369 5.26445 73.3019 7.34914Z" fill="#68341E"/>
<path fill-rule="evenodd" clip-rule="evenodd" d="M18.795 22.0715C17.3823 18.377 17.6566 13.623 20.4839 7.48828L21.0608 7.75416C18.2769 13.7947 18.0572 18.3634 19.3884 21.8446C20.7208 25.3291 23.6335 27.7944 27.264 29.569L26.9851 30.1397C23.2755 28.3265 20.2065 25.7628 18.795 22.0715ZM40.4629 35.4469C38.1905 34.6307 34.1935 33.1106 32.363 32.0338L32.6851 31.4863C34.4542 32.5269 38.3905 34.0276 40.6777 34.849C44.4481 36.2032 47.2433 37.5781 49.1034 38.9949C50.9614 40.4101 51.9345 41.9059 51.9425 43.5024C51.9505 45.0898 51.0024 46.6641 49.2911 48.2365C47.5743 49.8139 45.0428 51.4331 41.7741 53.1111L41.484 52.546C44.732 50.8786 47.2057 49.29 48.8613 47.7687C50.5225 46.2424 51.3139 44.8271 51.3073 43.5056C51.3007 42.1932 50.5049 40.8609 48.7185 39.5002C46.9342 38.1411 44.2094 36.7924 40.4629 35.4469ZM87.5005 58.0374C85.9994 57.5054 83.8618 57.2587 81.0756 57.4341L81.0357 56.8001C83.8696 56.6217 86.1015 56.8676 87.7127 57.4386C89.3225 58.0092 90.3573 58.9233 90.6915 60.1036C91.0246 61.28 90.6308 62.6135 89.628 63.9557C88.6227 65.3011 86.978 66.6964 84.7105 68.0303C80.4157 70.5566 75.6667 72.4463 71.521 74.0959C70.4301 74.53 69.3809 74.9474 68.3929 75.3555C66.0103 76.3394 63.9937 77.2639 62.5748 78.2325C61.1448 79.2086 60.4106 80.1689 60.4106 81.2022C60.4106 82.6558 61.2564 83.7751 62.8849 84.7256C64.5219 85.6811 66.8909 86.428 69.8026 87.1378L69.6521 87.7549C66.7361 87.0441 64.288 86.2801 62.5647 85.2742C60.8329 84.2634 59.7754 82.9709 59.7754 81.2022C59.7754 79.8362 60.7484 78.7101 62.2167 77.7078C63.696 76.698 65.7687 75.752 68.1504 74.7684C69.1529 74.3543 70.2122 73.9328 71.3099 73.4959C75.4518 71.8476 80.1402 69.9817 84.3884 67.4827C86.612 66.1748 88.1811 64.8308 89.1191 63.5755C90.0595 62.3169 90.3384 61.188 90.0803 60.2767C89.8233 59.3691 89.0029 58.5698 87.5005 58.0374ZM26.5869 58.0284C27.5261 57.7779 28.9697 57.3927 29.6813 57.1823L29.8614 57.7915C29.1407 58.0046 27.6864 58.3926 26.7491 58.6426C26.6057 58.6809 26.4744 58.7159 26.3597 58.7466C23.0742 59.6253 20.8064 60.7527 19.4919 61.8963C18.1736 63.0432 17.883 64.1294 18.3008 65.003C18.7429 65.9274 20.0426 66.7899 22.3317 67.2922C24.5998 67.7899 27.7608 67.9149 31.7881 67.4411C43.3188 66.0845 51.6041 63.827 60.9213 61.2883C63.2492 60.654 65.6414 60.0022 68.1648 59.3425L68.3255 59.957C65.8134 60.6138 63.4281 61.2638 61.1041 61.8971C51.7807 64.4376 43.4439 66.7094 31.8623 68.0719C27.7904 68.551 24.5541 68.4302 22.1956 67.9127C19.8582 67.3998 18.302 66.4777 17.7277 65.2771C17.1292 64.0257 17.6617 62.6466 19.075 61.417C20.492 60.1842 22.864 59.0239 26.1956 58.1329C26.3113 58.102 26.4432 58.0668 26.5869 58.0284ZM90.3478 92.6239C86.3331 91.4617 82.4471 90.5178 78.7661 89.7331L78.8986 89.1118C82.5919 89.8992 86.4929 90.8467 90.5244 92.0137L90.3478 92.6239Z" fill="url(#paint9_linear_4670_2633)"/>
<defs>
<linearGradient id="paint0_linear_4670_2633" x1="47.0034" y1="8.35355" x2="51.2907" y2="104.588" gradientUnits="userSpaceOnUse">
<stop offset="0" stop-color="#EDF6FF"/>
<stop offset="1" stop-color="#D9EAFF"/>
</linearGradient>
<linearGradient id="paint1_linear_4670_2633" x1="89.523" y1="36.3145" x2="75.0186" y2="69.9818" gradientUnits="userSpaceOnUse">
<stop offset="0" stop-color="#FFB3E4"/>
<stop offset="1" stop-color="#FFE0F4"/>
</linearGradient>
<linearGradient id="paint2_linear_4670_2633" x1="72.1608" y1="26.6807" x2="74.9135" y2="40.9734" gradientUnits="userSpaceOnUse">
<stop offset="0" stop-color="#FFDCF3"/>
<stop offset="1" stop-color="#FFBEE8"/>
</linearGradient>
<linearGradient id="paint3_linear_4670_2633" x1="70.9649" y1="57.8151" x2="84.1123" y2="24.5073" gradientUnits="userSpaceOnUse">
<stop offset="0" stop-color="#81BBFF"/>
<stop offset="1" stop-color="#FF8FDC"/>
</linearGradient>
<linearGradient id="paint4_linear_4670_2633" x1="73.1136" y1="69.6658" x2="80.7364" y2="74.9594" gradientUnits="userSpaceOnUse">
<stop offset="0" stop-color="#FFB5E5"/>
<stop offset="1" stop-color="#FFD0EE"/>
</linearGradient>
<linearGradient id="paint5_linear_4670_2633" x1="35.9514" y1="73.8998" x2="29.9167" y2="88.616" gradientUnits="userSpaceOnUse">
<stop offset="0" stop-color="#A3CCFF"/>
<stop offset="1" stop-color="#BAD9FF"/>
</linearGradient>
<linearGradient id="paint6_linear_4670_2633" x1="31.0817" y1="53.7818" x2="53.7326" y2="61.9309" gradientUnits="userSpaceOnUse">
<stop offset="0.245342" stop-color="#B4D6FF"/>
<stop offset="0.99963" stop-color="#D1E4FF"/>
</linearGradient>
<linearGradient id="paint7_linear_4670_2633" x1="29.4938" y1="40.0191" x2="41.7749" y2="35.6783" gradientUnits="userSpaceOnUse">
<stop offset="0" stop-color="#B4D5FF"/>
<stop offset="1" stop-color="#D1E6FF"/>
</linearGradient>
<linearGradient id="paint8_linear_4670_2633" x1="27.0595" y1="5.08197" x2="34.4704" y2="7.62271" gradientUnits="userSpaceOnUse">
<stop offset="0" stop-color="#FFF0BC"/>
<stop offset="1" stop-color="#FFF0BC"/>
</linearGradient>
<linearGradient id="paint9_linear_4670_2633" x1="9.32081" y1="58.6824" x2="92.0849" y2="57.0673" gradientUnits="userSpaceOnUse">
<stop offset="0" stop-color="#4598FB"/>
<stop offset="1" stop-color="#D15EAE"/>
</linearGradient>
</defs>
</svg>
