<svg width="110" height="20" viewBox="0 0 110 20" fill="none" xmlns="http://www.w3.org/2000/svg">
<path d="M15.9869 5.5409C16.3607 5.5409 16.6638 5.23457 16.6638 4.85669C16.6638 4.47881 16.3607 4.17248 15.9869 4.17248C15.6131 4.17248 15.31 4.47881 15.31 4.85669C15.31 5.23457 15.6131 5.5409 15.9869 5.5409Z" fill="url(#paint0_linear_4015_1254)"/>
<path d="M3.33063 12.7553C3.04053 12.7054 2.89865 12.9792 2.8263 13.2674C2.54206 14.3999 2.18571 15.8436 1.86776 17.0956C1.76193 17.5124 1.74929 17.6508 1.62145 18.033C1.60366 18.086 1.52593 18.2716 1.48823 18.3132C1.19042 18.6417 0.637627 18.5137 0.522902 18.0834C0.502298 18.0056 0.524773 17.7467 0.54444 17.678C1.00217 16.0755 1.08295 15.3823 1.43415 13.8913C1.61443 13.1259 2.2302 12.069 0.731747 11.856C0.196518 11.78 0.216654 10.6963 1.03612 10.7909C1.31989 10.8236 1.6938 11.0122 2.01948 10.9329C2.21873 10.8856 2.35663 10.1813 2.41282 9.982C2.97638 7.98545 3.56008 5.84857 4.2105 3.73653C4.21167 3.73274 4.21307 3.72895 4.21424 3.72516C4.40155 3.15455 5.28329 3.29419 5.30718 3.89462C5.31158 3.98091 5.30369 4.06739 5.28376 4.15141C4.77265 6.21682 4.19715 8.26614 3.58349 10.2961C3.28357 11.2879 3.14215 11.6238 4.31726 11.8517C7.75574 12.5186 9.62881 12.069 11.1254 9.86035C12.7152 7.51448 12.0682 4.35518 9.70514 2.76926C7.29075 1.14902 4.80426 1.48248 2.32994 2.61968C1.80267 2.86203 1.32527 3.24402 0.79028 3.45536C0.712095 3.48429 0.629028 3.49732 0.545847 3.4937C0.18294 3.48708 -0.0701594 3.12876 0.0174064 2.77257C0.064233 2.58465 0.282212 2.37473 0.381016 2.31817C1.61466 1.61147 2.9312 0.940984 4.36245 0.59237C8.09266 -0.316442 11.5838 1.55254 12.7912 4.89526C14.2181 8.84764 11.3808 13.2367 7.24229 13.3943C6.01941 13.4416 4.67338 12.9863 3.33063 12.7553Z" fill="url(#paint1_linear_4015_1254)"/>
<path d="M77.8945 2.67194e-07C77.7821 -5.29904e-05 77.6698 0.00785537 77.5585 0.0236672C76.4925 0.174899 75.4766 0.544339 74.6981 1.06312C74.2128 1.38665 73.7663 1.53646 73.2933 1.53646C72.9587 1.53646 72.609 1.46546 72.1592 1.30263C70.6952 0.775801 68.9893 0.213948 67.2658 0.213948C66.5867 0.211225 65.9104 0.301588 65.2553 0.482567C63.1984 1.05057 61.9498 2.3312 61.5441 4.28561C61.143 6.21802 61.7389 7.85459 63.2673 9.019C63.478 9.17899 63.5496 9.29969 63.9711 9.41803C64.2942 9.50867 64.6152 9.1371 64.4862 8.85002C64.3457 8.54235 64.1858 8.40295 63.9945 8.22024C62.6923 6.97891 62.2945 5.70894 62.7424 4.22432C63.2022 2.70016 64.283 1.78662 65.9544 1.51066C66.4092 1.43573 66.8692 1.39822 67.33 1.39848C69.2515 1.39848 70.9944 2.03938 72.298 2.59769C72.3175 2.60554 72.3353 2.61723 72.3503 2.63208C72.3653 2.64694 72.3772 2.66465 72.3854 2.68421C72.3936 2.70376 72.3978 2.72476 72.3979 2.74598C72.398 2.76721 72.3939 2.78824 72.3858 2.80785L72.3844 2.81116C72.166 3.34083 71.9529 3.86552 71.7415 4.38572C71.1327 5.88645 70.6106 7.19736 70.0822 8.66069C69.7685 9.52926 69.7778 9.53636 68.5275 9.54488C65.4569 9.56547 63.3413 10.6963 61.5995 12.1035C60.7843 12.7622 60.092 13.5969 59.6502 14.4541C59.5841 14.5822 59.5268 14.7097 59.4741 14.8371C59.4605 14.8702 59.3369 15.1653 59.2887 15.2867C59.0819 15.8091 58.38 16.2334 57.7289 16.6755C57.7029 16.6932 57.6723 16.7029 57.6409 16.7034C57.6096 16.7038 57.5788 16.6951 57.5522 16.6781C57.5257 16.6612 57.5047 16.6368 57.4916 16.608C57.4786 16.5792 57.4741 16.5471 57.4788 16.5158C57.4849 16.4772 57.49 16.4384 57.494 16.3993C57.5507 15.8618 57.4596 15.3236 57.2229 14.7989C56.9721 14.2437 56.5713 13.7339 56.0314 13.2843C55.7528 13.0519 55.4578 12.8457 55.1454 12.6273C54.9258 12.4739 54.6987 12.3151 54.4798 12.1475L54.3749 12.069C53.9949 11.779 53.6023 11.4794 53.2581 11.1261C52.9825 10.8421 52.839 10.5065 52.8432 10.1536C52.8474 9.7948 53.0101 9.44004 53.3014 9.15438C53.643 8.81949 54.2129 8.61288 54.8649 8.58637C54.9104 8.58448 54.9556 8.58353 55.0005 8.58353C55.5982 8.58353 56.2812 8.61832 56.5341 9.0235C56.5919 9.11651 56.6298 9.34726 56.6139 9.45613C56.575 9.72144 56.362 9.90581 56.2831 9.97278C55.8822 10.3112 56.0525 10.7521 56.2447 10.9098C56.3383 10.9867 56.4973 10.9983 56.6193 10.9808C56.7832 10.9571 56.937 10.8463 57.133 10.6447C57.6715 10.0902 57.8885 9.40075 57.7125 8.80079C57.5446 8.22971 57.0642 7.90405 56.3409 7.65531C56.118 7.57863 55.834 7.50172 55.4018 7.50172C54.8566 7.4982 54.313 7.56234 53.7832 7.69271C52.8966 7.90358 52.3815 8.44792 52.0982 8.96362C51.7557 9.58417 51.6625 10.19 51.8212 10.7642C51.9851 11.3587 52.4201 11.9376 53.1125 12.4853C53.4461 12.7494 53.8008 13.0043 54.144 13.2509C54.6081 13.5844 55.0881 13.9294 55.5348 14.3093C56.1222 14.8087 56.4343 15.3887 56.4376 15.9873C56.4411 16.5955 56.1262 17.1922 55.5271 17.7133C54.9648 18.2048 54.2709 18.5167 53.5332 18.6093C53.3317 18.6357 53.1288 18.6487 52.9256 18.6484C52.4733 18.6484 51.9828 18.5883 51.4419 18.4669C50.7283 18.3069 50.2169 17.94 49.9629 17.4056C49.8257 17.1167 49.722 16.7839 49.799 16.4381C50.1338 14.909 50.7451 14.1216 51.0235 13.418C51.2108 12.9446 51.0938 12.7593 50.883 12.637C50.7781 12.5761 50.3914 12.4476 50.1216 12.9297C50.1184 12.9356 50.1144 12.9411 50.1111 12.9472C50.0568 13.0526 49.5431 14.0459 49.0416 15.0157C49.0416 15.0157 48.1671 17.1574 46.1697 17.5382C45.354 17.6937 44.495 17.8361 43.6694 17.7367C42.665 17.616 41.8689 17.4414 41.3772 16.8497C41.1487 16.5747 40.9993 16.348 40.9734 15.6794C40.9713 15.6213 40.9813 15.5633 41.0026 15.5094C41.024 15.4554 41.0563 15.4065 41.0974 15.3658C41.1385 15.3252 41.1876 15.2936 41.2415 15.2732C41.2953 15.2529 41.3528 15.2441 41.4102 15.2474C41.5954 15.2581 41.7776 15.2666 41.9598 15.2683C44.1276 15.2879 46.162 14.8792 47.7627 13.2788C48.718 12.3236 49.0805 10.9616 48.6119 9.70227C48.1526 8.4678 47.1121 7.66857 45.7789 7.47757C44.2077 7.25226 42.6636 7.81151 41.5411 8.96859C39.8116 10.7517 39.1745 12.9141 39.551 15.3823C39.6784 16.2201 39.5583 16.7986 38.8486 17.2284C38.0504 17.714 37.1893 17.9147 36.3525 17.4115C36.0334 17.2198 35.6983 16.7643 35.6761 16.4341C35.6176 15.5717 35.7829 15.0692 36.0624 13.9387C36.4604 12.3293 36.8585 11.0958 37.2097 9.6076C37.3267 9.11059 37.4672 8.66092 37.618 8.15469C37.6608 8.01103 37.8034 7.92015 37.9491 7.8908C38.3136 7.81767 38.8928 7.90358 39.1764 7.90358C39.4599 7.90358 39.6648 7.78525 39.6915 7.59591C39.7149 7.43024 39.6507 7.27404 39.4105 7.1699C39.2466 7.0989 38.9422 7.0989 38.7315 7.07524C38.5754 7.05772 38.1228 7.07524 38.1228 6.90957C38.1228 6.48096 38.3059 6.02726 38.2633 5.79722C38.193 5.41855 37.5843 5.27655 37.3267 5.58422C37.1823 5.75675 37.0537 6.29636 36.9755 6.50723C36.8919 6.73278 36.7882 6.86223 36.4052 6.82839C36.0139 6.79383 35.5572 6.75597 35.4303 6.76757C34.9152 6.8149 34.9386 7.43024 35.3132 7.54857C35.4581 7.59449 35.9725 7.65744 36.294 7.74785C36.3456 7.76211 36.3897 7.79641 36.4165 7.8433C36.4432 7.89019 36.4506 7.94588 36.437 7.99825C36.3989 8.14806 36.3483 8.41786 36.3249 8.50661C35.6349 11.1396 35.0371 13.2507 34.3776 15.8569C34.12 16.8745 33.8049 17.1893 33.324 17.4425C32.8791 17.6761 32.1418 17.6953 31.7787 17.4425C31.4327 17.2016 31.2456 16.6826 31.1934 16.1645C31.158 15.8136 31.4402 14.8281 31.5446 14.4605C32.1395 12.365 32.7885 10.6856 33.3336 8.57738C33.3417 8.5427 33.346 8.50722 33.3465 8.47159C33.3622 7.95778 32.7281 7.70359 32.3788 8.07729C32.3226 8.13631 32.2732 8.20167 32.2318 8.27207C32.1084 8.4865 32.0288 8.73524 31.9644 8.99297C31.9505 9.04959 31.9222 9.10156 31.8823 9.14378C31.8425 9.18599 31.7925 9.21698 31.7372 9.2337C31.6819 9.25043 31.6232 9.2523 31.567 9.23913C31.5108 9.22597 31.4589 9.19823 31.4165 9.15864C28.7605 6.68568 25.6074 7.26528 23.7604 10.6009C22.9439 12.0758 22.6049 13.6539 22.7234 15.3516C22.8404 17.0397 21.061 18.2281 19.5345 17.4892C19.2376 17.3455 18.7188 16.7983 18.712 16.5188C18.6886 15.5646 18.8019 14.7305 19.054 13.8253C20.0077 10.4019 20.1025 9.9529 21.1221 6.54794C21.2095 6.25612 21.3169 5.95035 21.3139 5.66066C21.3109 5.37098 21.0411 5.1975 20.866 5.15869C20.6787 5.1168 20.4551 5.12981 20.2706 5.40388C20.1168 5.63203 20.0674 5.89118 19.9896 6.14654C18.911 9.72026 18.9868 9.76238 17.9386 13.3238C17.7513 13.9628 17.4966 15.6408 17.4704 16.3058C17.4235 17.4892 16.5704 17.8981 15.2082 17.8442C13.9673 17.7968 13.3637 17.0274 13.528 15.6472C13.5819 15.1958 13.7238 14.7521 13.8558 14.3138C14.4285 12.4102 15.0087 10.5779 15.5289 8.66092C15.5849 8.45431 15.643 8.15563 15.5523 7.90358C15.4587 7.64324 15.0373 7.50124 14.8031 7.71424C14.6285 7.87329 14.5128 8.18758 14.4519 8.37692C13.7516 10.56 13.2311 12.3253 12.6023 14.5303C12.4686 14.9992 12.3527 15.832 12.363 16.3238C12.3904 17.6215 13.1476 18.5485 14.3978 18.9137C15.709 19.2964 16.7982 18.8351 17.8185 18.1071C17.8756 18.0664 17.9437 18.0445 18.0136 18.0445C18.0834 18.0445 18.1515 18.0664 18.2086 18.1071C20.0259 19.4126 21.699 18.9762 23.2689 17.7048C23.3306 17.6548 23.4076 17.628 23.4867 17.629C23.5658 17.63 23.6421 17.6588 23.7025 17.7105C25.5971 19.329 27.171 19.2999 29.778 17.6456C29.9042 17.5656 30.0974 17.5834 30.2063 17.6861C31.7281 19.1203 32.7349 19.1463 34.7625 17.9857C34.8134 17.9567 34.8706 17.9411 34.9291 17.9402C34.9875 17.9393 35.0451 17.9533 35.0968 17.9807C37.2963 19.1475 37.9231 19.0592 40.233 17.6818C40.2921 17.6464 40.36 17.6289 40.4287 17.6314C40.4973 17.6339 40.5638 17.6562 40.6203 17.6958C42.8179 19.2412 44.6151 19.2249 46.7883 18.6046C47.6077 18.3705 48.2778 17.9824 48.8175 17.4603C48.9368 17.8267 49.1216 18.1679 49.3628 18.4669C49.7217 18.9052 50.2038 19.2261 50.7962 19.4211C51.4773 19.6452 52.1542 19.7581 52.8139 19.7581C52.9291 19.7581 53.0438 19.7547 53.1579 19.7477C53.9542 19.6986 54.7313 19.4804 55.4386 19.1073C55.5306 19.0599 55.952 18.9104 56.0209 18.8827C56.2625 18.7849 57.8148 18.1696 58.9695 17.1708C59.1479 17.0165 59.1819 17.0002 59.2528 17.2603C59.4055 17.82 59.6864 18.4269 60.1079 18.885C60.8644 19.7056 61.7936 20.0007 62.8753 20C65.8441 19.9974 67.5065 17.891 69.0946 14.887C69.5589 14.0085 69.7959 13.0433 70.1382 12.0654C70.292 11.6264 70.377 11.3253 70.5385 10.879C70.5523 10.8423 70.5786 10.8117 70.6127 10.7928C70.6467 10.7738 70.6863 10.7677 70.7244 10.7756C71.8377 10.9095 72.7253 11.0359 73.4938 11.0929C73.659 11.0929 73.9346 11.0842 74.1334 10.9611C74.1495 10.9531 74.1649 10.9437 74.1793 10.933C74.3432 10.7909 74.3479 10.5346 74.309 10.4596C74.3013 10.4445 74.2935 10.4293 74.2856 10.4142C74.1765 10.199 73.9292 10.1006 73.7855 10.0618C73.3364 9.93894 72.6998 9.87385 71.9784 9.77327C71.3788 9.68972 71.4399 9.72452 70.9717 9.6076C70.8726 9.58393 70.8902 9.4301 70.9337 9.33661L71.5804 7.71424C72.0955 6.6071 72.5214 5.42589 72.9852 4.35354C73.4919 3.18273 73.7813 3.21752 74.4062 3.35479C74.6637 3.41112 75.0683 3.53561 75.4202 3.61986C76.3099 3.83286 76.6726 3.9512 77.655 3.98078L77.7372 3.9822C78.3927 3.9822 79.1289 3.78174 79.54 3.35952C79.9043 2.9863 80.0624 2.44385 80.0551 1.91584C80.0411 0.833549 79.0294 2.67194e-07 77.8945 2.67194e-07ZM31.0051 12.0926C30.4933 13.9472 30.4699 14.4951 29.1087 16.4474C28.2564 17.6695 26.6891 17.8423 25.503 17.2994C24.1818 16.6947 23.9472 15.654 23.8482 14.4399C23.8464 14.4198 23.8464 14.3995 23.8482 14.3793C24.0137 12.5115 24.6388 10.8766 26.0766 9.64192C27.0366 8.8176 28.1459 8.47277 29.3765 8.96836C30.5914 9.45755 31.3067 10.9999 31.0051 12.0926ZM40.7968 12.8192C41.1197 11.4063 41.6519 10.5512 42.2904 9.98627C42.9176 9.43105 43.7511 9.05214 44.5884 8.82186C45.8527 8.47443 47.0297 9.09474 47.4647 10.2229C47.8709 11.2764 47.3598 12.3866 46.1812 13.0656C44.7483 13.8911 43.2393 14.2572 41.4072 13.991C40.8621 13.9117 40.6727 13.3617 40.7968 12.8192ZM69.3697 10.8695C69.3583 10.999 69.3187 11.1568 69.2761 11.3076C69.266 11.3431 69.2543 11.3786 69.241 11.4122C69.1569 11.6309 68.8862 12.5676 68.6528 13.1576C68.1143 14.5197 67.5217 15.828 66.5222 16.9207C65.3244 18.2304 64.3794 19.0869 62.2273 18.8486C61.4893 18.7667 60.0142 17.678 60.4031 15.7908C60.5733 14.9649 60.8571 14.4357 61.2296 13.9981C62.9409 11.9878 64.4536 11.0707 67.8811 10.7673L68.5367 10.7199C68.5718 10.7169 69.233 10.7263 69.233 10.7263C69.2516 10.7253 69.2703 10.7284 69.2877 10.7353C69.3051 10.7422 69.3208 10.7528 69.3337 10.7663C69.3467 10.7799 69.3566 10.7962 69.3628 10.814C69.3691 10.8318 69.3714 10.8507 69.3697 10.8695ZM78.8659 2.1073C78.8254 2.27155 78.7847 2.39486 78.6222 2.51816C78.3447 2.72832 77.9968 2.84666 77.7119 2.85163H77.6491C77.1359 2.85163 76.6 2.83128 76.102 2.72312C75.8938 2.67768 75.7768 2.68194 75.4991 2.58585L75.4111 2.55863C75.3296 2.51769 75.2706 2.47935 75.1671 2.43556C75.1061 2.40452 75.0511 2.36277 75.0046 2.31226C74.9707 2.26427 74.9561 2.20504 74.9639 2.14659C75.0046 1.94116 75.6777 1.65385 76.0877 1.55799C76.6007 1.43753 77.1179 1.25908 77.6489 1.20299C77.6646 1.20133 77.6899 1.19991 77.7056 1.19991C77.9545 1.19991 78.3122 1.27399 78.5414 1.44747C78.6386 1.52084 78.7447 1.61172 78.7854 1.69408C78.8261 1.77644 78.9067 1.984 78.8659 2.1073Z" fill="url(#paint2_linear_4015_1254)"/>
<path d="M80.4091 18.3665C80.9373 18.9315 81.5856 19.3215 82.3178 19.4935C82.5941 19.5586 82.8769 19.5915 83.1607 19.5915C84.0867 19.5915 85.0138 19.2427 85.838 18.5715C86.2575 18.226 86.6264 17.8222 86.9337 17.372C86.9351 17.3701 86.9371 17.3689 86.9393 17.3685C87.513 17.2724 88.8494 16.9614 89.7798 16.0512C89.7814 16.0497 89.7833 16.0486 89.7854 16.0481C89.7875 16.0477 89.7897 16.0478 89.7918 16.0486C89.7938 16.0493 89.7956 16.0506 89.7969 16.0523C89.7982 16.0541 89.799 16.0561 89.7993 16.0583C89.8536 16.7087 89.9016 17.4809 90.021 18.2487C90.0238 18.2666 90.0271 18.2844 90.0308 18.3021C90.1854 19.0122 90.7782 19.1863 91.3052 18.6931C91.354 18.6484 91.3973 18.598 91.4342 18.5428C92.6548 16.6914 93.7016 15.0908 94.23 14.2691C94.3705 14.0511 95.3433 12.5272 95.6013 12.2195C95.6032 12.2174 95.6056 12.2158 95.6084 12.2151C95.6111 12.2144 95.614 12.2144 95.6166 12.2153C95.6193 12.2162 95.6217 12.2178 95.6235 12.22C95.6252 12.2223 95.6263 12.2249 95.6266 12.2278C95.8809 14.3448 96.1651 15.9229 96.4248 17.8437C96.4716 18.1869 96.5692 18.6635 96.7095 18.9942C96.75 19.0763 96.75 19.0763 96.7832 19.1561C96.8198 19.2611 96.905 19.3728 96.9939 19.4502C97.1109 19.5516 97.2599 19.6073 97.414 19.6071C97.5075 19.6072 97.5999 19.5868 97.6847 19.5472C97.7696 19.5077 97.845 19.45 97.9057 19.378C98.0778 19.175 102.08 14.3938 102.698 9.42088C102.699 9.41776 102.7 9.41487 102.702 9.41274C102.705 9.41061 102.708 9.40938 102.711 9.40929C105.326 9.31462 108.837 7.45866 109.858 6.16691C109.917 6.09201 109.96 6.00486 109.982 5.91162C110.004 5.81838 110.006 5.72134 109.987 5.62736C109.968 5.53338 109.929 5.44476 109.872 5.36778C109.816 5.29081 109.743 5.22735 109.659 5.1819C109.382 5.0283 109.038 5.11421 108.838 5.36176C108.089 6.29235 105.207 7.89058 102.969 8.08559C102.968 8.08578 102.966 8.08555 102.964 8.08491C102.962 8.08428 102.961 8.08325 102.959 8.08191C102.958 8.08057 102.957 8.07895 102.956 8.07717C102.956 8.07539 102.956 8.0735 102.956 8.07163C103.058 7.24778 102.765 6.44618 102.32 5.77262C101.829 5.02853 100.609 4.35592 99.7349 4.90546C99.2404 5.21645 98.5828 6.03793 99.7349 8.0482C99.9925 8.49787 100.483 9.03322 101.401 9.27888C101.404 9.27977 101.406 9.28176 101.408 9.28449C101.41 9.28723 101.411 9.29053 101.41 9.29379C100.971 12.7227 98.6856 16.1809 97.5561 17.7112L97.4835 17.4563C97.3737 16.7418 97.292 16.3092 97.244 15.8183C97.1035 14.3803 96.9396 12.9447 96.7312 11.5152L96.6111 10.6894C96.5327 10.151 95.927 9.8431 95.4896 10.1605C95.3863 10.2401 95.2908 10.3296 95.2045 10.4277C95.0019 10.6535 94.8671 10.9341 94.7025 11.1921C93.5616 12.9804 92.4204 14.7684 91.1596 16.7439C91.0828 16.3553 91.0591 16.2412 91.0308 16.0812C90.6206 13.7855 90.619 11.4328 90.3565 9.11511C90.3523 9.0806 90.3444 9.04665 90.3331 9.01381C90.1528 8.46947 89.36 8.54521 89.2631 9.11108C89.2572 9.14491 89.2543 9.17921 89.2544 9.21356C89.2622 10.2052 89.4326 11.1945 89.4635 12.1871L89.6129 13.911C89.6115 13.9207 89.6082 13.9294 89.6073 13.9391C89.4902 15.1005 88.5029 15.6933 87.682 15.9896C87.6797 15.9905 87.6773 15.9906 87.675 15.9901C87.6726 15.9895 87.6705 15.9883 87.6688 15.9865C87.6672 15.9848 87.666 15.9826 87.6656 15.9802C87.6652 15.9778 87.6654 15.9753 87.6663 15.9731C87.785 15.6648 87.882 15.3485 87.9566 15.0264C88.6534 11.997 87.2568 9.07014 84.8427 8.50284C82.6355 7.98406 80.3333 9.61969 79.423 12.2214C79.4089 12.2519 79.3976 12.2836 79.389 12.3161C79.3188 12.5291 79.2534 12.7456 79.2017 12.9702C78.8699 14.4139 78.9964 15.8784 79.5576 17.0961C79.6147 17.2203 79.6789 17.3372 79.7449 17.4532C79.6905 17.4532 79.6364 17.4611 79.5843 17.4769C77.4771 18.1301 76.0463 18.1218 75.4427 17.4532C74.7244 16.6559 75.2041 14.9208 75.449 14.319L78.0158 6.77989C78.1109 6.50062 77.9924 6.1849 77.7267 6.06041C77.6547 6.02615 77.5765 6.00758 77.497 6.00594C77.4175 6.00429 77.3385 6.0196 77.2653 6.05086C77.192 6.08212 77.1261 6.12864 77.0718 6.18737C77.0176 6.24611 76.9761 6.31575 76.9503 6.39175L74.3975 13.8965C74.2912 14.1628 73.3004 16.7678 74.6047 18.22C75.1299 18.8044 75.9266 19.0957 76.9863 19.0957C77.9868 19.0993 78.9797 18.9208 79.9177 18.5689C80.141 18.4853 80.2668 18.4359 80.37 18.3767L80.4091 18.3665ZM86.8555 14.767C86.7826 15.0818 86.6837 15.3898 86.56 15.6879L86.5617 15.6893C86.5617 15.6893 86.5245 15.7807 86.4566 15.926C86.4385 15.9641 86.4205 16.0022 86.402 16.0398C86.0805 16.6989 85.329 17.6369 84.3023 18.1895C84.2985 18.1916 84.2939 18.1895 84.2896 18.1895C83.7244 18.4385 83.137 18.5088 82.5742 18.3762C81.7254 18.1769 81.0195 17.5498 80.5866 16.6104C80.3541 16.1059 80.2169 15.5454 80.1738 14.9578V14.9561C80.127 14.5538 80.1668 12.7875 80.7868 11.7762C81.5126 10.3964 82.7685 9.5494 84.0045 9.5494C84.2008 9.54928 84.3965 9.57199 84.5877 9.61708C86.3943 10.0431 87.4111 12.353 86.8555 14.7682V14.767ZM101.703 7.57368C101.645 7.79662 101.436 7.94265 101.238 7.82715C101.066 7.72633 100.971 7.59309 100.856 7.39263C100.291 6.4069 100.411 6.0642 100.418 6.0171C100.45 5.8041 100.638 5.76292 100.734 5.76292C100.869 5.76292 101.033 5.80812 101.147 5.91912C101.432 6.19839 101.549 6.38773 101.67 6.74747C101.761 7.01389 101.773 7.3018 101.703 7.57486V7.57368Z" fill="url(#paint3_linear_4015_1254)"/>
<defs>
<linearGradient id="paint0_linear_4015_1254" x1="2.03837e-07" y1="11.1111" x2="110.964" y2="0.0146693" gradientUnits="userSpaceOnUse">
<stop offset="0" stop-color="#4598FB"/>
<stop offset="1" stop-color="#D15EAE"/>
</linearGradient>
<linearGradient id="paint1_linear_4015_1254" x1="2.03837e-07" y1="11.1111" x2="110.964" y2="0.0146693" gradientUnits="userSpaceOnUse">
<stop offset="0" stop-color="#4598FB"/>
<stop offset="1" stop-color="#D15EAE"/>
</linearGradient>
<linearGradient id="paint2_linear_4015_1254" x1="2.03837e-07" y1="11.1111" x2="110.964" y2="0.0146693" gradientUnits="userSpaceOnUse">
<stop offset="0" stop-color="#4598FB"/>
<stop offset="1" stop-color="#D15EAE"/>
</linearGradient>
<linearGradient id="paint3_linear_4015_1254" x1="2.03837e-07" y1="11.1111" x2="110.964" y2="0.0146693" gradientUnits="userSpaceOnUse">
<stop offset="0" stop-color="#4598FB"/>
<stop offset="1" stop-color="#D15EAE"/>
</linearGradient>
</defs>
</svg>
