<svg width="23" height="21" viewBox="0 0 23 21" fill="none" xmlns="http://www.w3.org/2000/svg">
<path d="M14.9206 20.7775C15.3231 20.7775 15.6494 20.4512 15.6494 20.0487C15.6494 19.6462 15.3231 19.3199 14.9206 19.3199C14.5181 19.3199 14.1918 19.6462 14.1918 20.0487C14.1918 20.4512 14.5181 20.7775 14.9206 20.7775Z" fill="url(#paint0_linear_4344_768)"/>
<path d="M21.4376 0.60724C20.9874 0.221283 20.3802 0 19.7712 0C19.6468 9.90882e-05 19.5225 0.00886213 19.3993 0.0262223C18.262 0.185751 17.1771 0.576122 16.3449 1.12553C15.8619 1.4441 15.4203 1.59235 14.955 1.59235C14.6224 1.59235 14.2715 1.52031 13.8172 1.35857C12.2734 0.808922 10.4737 0.222755 8.6466 0.222755C7.92282 0.219559 7.20193 0.314441 6.50362 0.50481C4.2935 1.11009 2.95037 2.47258 2.51442 4.55454C2.0819 6.61494 2.72492 8.36045 4.37314 9.60262C4.41602 9.63497 4.45327 9.66584 4.48929 9.69549C4.64417 9.82366 4.77797 9.93442 5.15902 10.0403C5.37467 10.1001 5.60722 10.0222 5.76577 9.83689C5.91574 9.66143 5.95618 9.43623 5.87114 9.24876C5.72166 8.9253 5.55552 8.76895 5.3629 8.58712L5.3237 8.55037C4.00581 7.30771 3.60196 6.04054 4.05286 4.56263C4.51649 3.04331 5.6082 2.13196 7.29784 1.85505C7.76596 1.77892 8.23948 1.74081 8.71375 1.7411C10.6987 1.7411 12.5052 2.39882 13.8598 2.97224C13.8622 2.97316 13.8643 2.97456 13.8661 2.97633C13.8678 2.9781 13.8692 2.98021 13.8701 2.98254C13.8711 2.98487 13.8716 2.98736 13.8716 2.98988C13.8716 2.99241 13.8711 2.99491 13.8701 2.99724V3.00018C13.6422 3.5464 13.4185 4.09188 13.2019 4.61948L13.197 4.63124C12.5211 6.27848 11.9943 7.59442 11.4571 9.06301L11.448 9.08752C11.301 9.49088 11.2275 9.69329 11.0724 9.77906C10.8994 9.87487 10.5683 9.87708 9.96719 9.881C8.44395 9.89129 7.06969 10.152 5.76602 10.6782C4.70176 11.1075 3.67425 11.724 2.62518 12.5626C1.75623 13.2571 1.01789 14.138 0.546405 15.0433C0.481466 15.1678 0.419468 15.3011 0.356735 15.451C0.344237 15.4817 0.14844 15.9928 0.108497 16.1284C-0.0929362 16.8079 0.0315489 17.7357 0.119278 18.0545C0.307723 18.7387 0.637564 19.3584 1.04852 19.7992C1.8121 20.6187 2.76388 21 4.04747 21H4.05286C5.54767 20.9988 6.82195 20.5018 7.94919 19.4807C8.86789 18.6475 9.71356 17.46 10.6938 15.6285C11.0476 14.9668 11.2718 14.2745 11.5091 13.5426C11.5997 13.263 11.6933 12.9738 11.795 12.6866C11.8685 12.4815 11.9261 12.3038 11.9827 12.132C12.0536 11.9166 12.1207 11.7133 12.2131 11.4604C12.2155 11.4548 12.2199 11.4503 12.2254 11.4477C12.2309 11.4452 12.2372 11.4448 12.243 11.4466L12.2528 11.4481C12.5731 11.4861 12.8689 11.5228 13.1551 11.5581H13.1629C13.9187 11.6517 14.5712 11.7326 15.1606 11.7765H15.1687C15.3958 11.7765 15.686 11.7586 15.9151 11.6184L15.9247 11.613C15.9449 11.6028 15.9639 11.5903 15.9813 11.5758C16.2131 11.3775 16.2158 11.0291 16.1528 10.9056L16.1283 10.8588C15.9864 10.5814 15.6813 10.464 15.5122 10.4177C15.1412 10.3182 14.6631 10.2559 14.1096 10.1839H14.1066C13.9441 10.1628 13.776 10.141 13.6028 10.117C13.4067 10.09 13.281 10.0753 13.1791 10.0633C12.9834 10.0436 12.7897 10.0082 12.5998 9.95721C12.6023 9.92763 12.6101 9.89875 12.6228 9.87193L13.3006 8.19014C13.6219 7.50767 13.9113 6.79334 14.1912 6.10425C14.3872 5.61881 14.5742 5.16031 14.7712 4.70991C15.265 3.58071 15.5063 3.63339 16.0923 3.76058C16.2275 3.78974 16.4069 3.8385 16.5968 3.8902C16.7806 3.93921 16.9703 3.99166 17.1511 4.0343C17.269 4.06223 17.3781 4.0887 17.4807 4.11345C18.2066 4.28915 18.6065 4.3857 19.5215 4.41217H19.6098C20.5784 4.41217 21.2741 4.0566 21.6025 3.72382C21.9809 3.34031 22.1928 2.75709 22.184 2.12363C22.1725 1.55143 21.9086 1.01084 21.4376 0.60724ZM19.573 1.53844C19.8131 1.53844 20.1491 1.60877 20.3589 1.7656C20.512 1.88053 20.5574 1.94229 20.5706 1.969C20.6297 2.08687 20.6649 2.23071 20.6468 2.28487L20.6446 2.29296C20.6066 2.4444 20.5787 2.53507 20.4437 2.63603C20.1905 2.82619 19.8585 2.947 19.5781 2.9519H19.5137C19.027 2.9519 18.4578 2.93647 17.9253 2.82227C17.8517 2.80634 17.79 2.7963 17.7292 2.78649C17.585 2.76579 17.4431 2.73123 17.3055 2.68332L17.2254 2.65882C17.2026 2.6473 17.1815 2.63603 17.1597 2.62427C17.1058 2.5956 17.0504 2.5657 16.9725 2.53286C16.931 2.51022 16.893 2.48175 16.8595 2.44832C16.8518 2.43309 16.8474 2.41638 16.8465 2.39931C16.8652 2.31526 17.381 2.02683 17.9113 1.90406C18.0806 1.86461 18.2519 1.81903 18.4178 1.77492C18.7802 1.67837 19.1549 1.57887 19.5272 1.54016C19.5429 1.53991 19.5639 1.53868 19.573 1.53893V1.53844ZM1.60797 16.5268C1.76456 15.7757 2.02137 15.2236 2.44115 14.7365C3.41057 13.6092 4.23664 12.9231 5.20313 12.4366C6.26225 11.9041 7.52647 11.5973 9.30187 11.442L9.98802 11.393H10.027C10.1412 11.393 10.4561 11.3966 10.7023 11.4001C10.6828 11.5406 10.6524 11.6794 10.6112 11.8152C10.6029 11.8451 10.5923 11.876 10.5791 11.91C10.5455 11.996 10.4879 12.1759 10.4149 12.4038C10.2897 12.7959 10.1179 13.3308 9.964 13.7161C9.46238 14.9698 8.83677 16.4045 7.76246 17.5671C7.18903 18.1875 6.61708 18.7742 5.92897 19.1354C5.22126 19.5076 4.4148 19.6287 3.39122 19.5165C3.02364 19.4763 2.43698 19.1685 2.01525 18.5882C1.718 18.1809 1.40703 17.4921 1.60797 16.5273V16.5268Z" fill="url(#paint1_linear_4344_768)"/>
<defs>
<linearGradient id="paint0_linear_4344_768" x1="4.11089e-08" y1="11.6667" x2="22.5942" y2="11.2327" gradientUnits="userSpaceOnUse">
<stop offset="0" stop-color="#4598FB"/>
<stop offset="1" stop-color="#D15EAE"/>
</linearGradient>
<linearGradient id="paint1_linear_4344_768" x1="4.11089e-08" y1="11.6667" x2="22.5942" y2="11.2327" gradientUnits="userSpaceOnUse">
<stop offset="0" stop-color="#4598FB"/>
<stop offset="1" stop-color="#D15EAE"/>
</linearGradient>
</defs>
</svg>
