<svg width="24" height="24" viewBox="0 0 24 24" fill="none" xmlns="http://www.w3.org/2000/svg">
<path d="M14.5508 12.22C15.0844 11.7581 15.5123 11.1869 15.8057 10.545C16.099 9.90316 16.2508 9.20571 16.2508 8.5C16.2508 7.17392 15.724 5.90215 14.7863 4.96447C13.8486 4.02678 12.5769 3.5 11.2508 3.5C9.9247 3.5 8.65293 4.02678 7.71525 4.96447C6.77757 5.90215 6.25078 7.17392 6.25078 8.5C6.25695 9.20958 6.41655 9.90944 6.71862 10.5515C7.02068 11.1937 7.45807 11.7628 8.00078 12.22C6.60092 12.8539 5.41325 13.8775 4.57976 15.1685C3.74628 16.4596 3.30225 17.9633 3.30078 19.5C3.30078 19.7652 3.40614 20.0196 3.59367 20.2071C3.78121 20.3946 4.03557 20.5 4.30078 20.5C4.566 20.5 4.82035 20.3946 5.00789 20.2071C5.19542 20.0196 5.30078 19.7652 5.30078 19.5C5.30078 17.9087 5.93292 16.3826 7.05814 15.2574C8.18336 14.1321 9.70948 13.5 11.3008 13.5C12.8921 13.5 14.4182 14.1321 15.5434 15.2574C16.6686 16.3826 17.3008 17.9087 17.3008 19.5C17.3008 19.7652 17.4061 20.0196 17.5937 20.2071C17.7812 20.3946 18.0356 20.5 18.3008 20.5C18.566 20.5 18.8204 20.3946 19.0079 20.2071C19.1954 20.0196 19.3008 19.7652 19.3008 19.5C19.295 17.9578 18.8435 16.4502 18.0008 15.1586C17.1581 13.867 15.96 12.8465 14.5508 12.22ZM11.2508 11.5C10.6574 11.5 10.0774 11.3241 9.58407 10.9944C9.09072 10.6648 8.7062 10.1962 8.47914 9.64805C8.25208 9.09987 8.19267 8.49667 8.30842 7.91473C8.42418 7.33279 8.7099 6.79824 9.12946 6.37868C9.54902 5.95912 10.0836 5.6734 10.6655 5.55764C11.2475 5.44189 11.8507 5.5013 12.3988 5.72836C12.947 5.95542 13.4155 6.33994 13.7452 6.83329C14.0748 7.32664 14.2508 7.90666 14.2508 8.5C14.2508 9.29565 13.9347 10.0587 13.3721 10.6213C12.8095 11.1839 12.0464 11.5 11.2508 11.5ZM19.7508 6.5C19.4856 6.5 19.2312 6.60536 19.0437 6.79289C18.8561 6.98043 18.7508 7.23478 18.7508 7.5V9.5C18.7508 9.76522 18.8561 10.0196 19.0437 10.2071C19.2312 10.3946 19.4856 10.5 19.7508 10.5C20.016 10.5 20.2704 10.3946 20.4579 10.2071C20.6454 10.0196 20.7508 9.76522 20.7508 9.5V7.5C20.7508 7.23478 20.6454 6.98043 20.4579 6.79289C20.2704 6.60536 20.016 6.5 19.7508 6.5ZM19.0008 11.79C18.818 11.9816 18.7145 12.2352 18.7108 12.5C18.71 12.6316 18.7352 12.7621 18.785 12.8839C18.8348 13.0057 18.9081 13.1166 19.0008 13.21C19.098 13.2983 19.2096 13.3694 19.3308 13.42C19.4505 13.4729 19.5799 13.5002 19.7108 13.5002C19.8417 13.5002 19.9711 13.4729 20.0908 13.42C20.2149 13.3751 20.3276 13.3034 20.4209 13.2101C20.5142 13.1168 20.5859 13.0041 20.6308 12.88C20.6868 12.7613 20.7142 12.6312 20.7108 12.5C20.7119 12.3014 20.6539 12.1069 20.5441 11.9414C20.4343 11.7759 20.2777 11.6468 20.0943 11.5706C19.9108 11.4945 19.7088 11.4747 19.5141 11.5137C19.3194 11.5528 19.1407 11.649 19.0008 11.79Z" fill="#4697FA"/>
</svg>
