<svg width="18" height="18" viewBox="0 0 18 18" fill="none" xmlns="http://www.w3.org/2000/svg">
<path fill-rule="evenodd" clip-rule="evenodd" d="M12.7498 6.87825C12.4573 6.58746 11.9848 6.58746 11.6923 6.87825L8.99978 9.53325L6.34478 6.87825C6.05225 6.58746 5.57981 6.58746 5.28728 6.87825C5.14529 7.01908 5.06543 7.21077 5.06543 7.41075C5.06543 7.61073 5.14529 7.80243 5.28728 7.94325L8.46728 11.1233C8.6081 11.2652 8.7998 11.3451 8.99978 11.3451C9.19976 11.3451 9.39145 11.2652 9.53228 11.1233L12.7498 7.94325C12.8918 7.80243 12.9716 7.61073 12.9716 7.41075C12.9716 7.21077 12.8918 7.01908 12.7498 6.87825Z" fill="#1A202C"/>
</svg>
