<svg width="106" height="106" viewBox="0 0 106 106" fill="none" xmlns="http://www.w3.org/2000/svg">
<g filter="url(#filter0_ii_347:15139)">
<circle cx="53" cy="53" r="53" fill="url(#paint0_linear_347:15139)"/>
</g>
<mask id="mask0_347:15139" style="mask-type:alpha" maskUnits="userSpaceOnUse" x="0" y="0" width="106" height="106">
<circle cx="53" cy="53" r="53" fill="url(#paint1_linear_347:15139)"/>
</mask>
<g mask="url(#mask0_347:15139)">
<path fill-rule="evenodd" clip-rule="evenodd" d="M30.8702 4.05186C37.6291 0.99174 45.1274 -0.707397 52.9982 -0.707397C60.8689 -0.707397 68.3672 0.991738 75.1261 4.05185L67.6477 20.5694C63.1918 18.5519 58.2389 17.4242 52.9982 17.4242C47.7574 17.4242 42.8045 18.5519 38.3486 20.5694L30.8702 4.05186ZM101.936 30.862C104.996 37.6209 106.696 45.1193 106.696 52.99C106.696 60.8607 104.996 68.359 101.936 75.1179L85.4188 67.6395C87.4362 63.1837 88.5639 58.2308 88.5639 52.99C88.5639 47.7492 87.4362 42.7963 85.4188 38.3404L101.936 30.862ZM-0.699219 52.99C-0.699219 45.1193 0.999917 37.6209 4.06003 30.862L20.5775 38.3404C18.5601 42.7963 17.4324 47.7492 17.4324 52.99C17.4324 58.2308 18.5601 63.1837 20.5775 67.6395L4.06004 75.1179C0.999919 68.3591 -0.699219 60.8607 -0.699219 52.99ZM52.9982 106.687C45.1274 106.687 37.6291 104.988 30.8702 101.928L38.3486 85.4106C42.8045 87.428 47.7574 88.5558 52.9982 88.5558C58.2389 88.5558 63.1918 87.428 67.6477 85.4106L75.1261 101.928C68.3672 104.988 60.8689 106.687 52.9982 106.687Z" fill="url(#paint2_linear_347:15139)"/>
</g>
<circle cx="53.0014" cy="52.9936" r="36.2632" fill="url(#paint3_linear_347:15139)"/>
<path fill-rule="evenodd" clip-rule="evenodd" d="M47.5559 17.8406C49.3314 17.5678 51.1491 17.4265 52.9984 17.4265C54.8477 17.4265 56.6654 17.5678 58.4409 17.8406C59.5829 18.0161 60.3665 19.0841 60.191 20.2262C60.0156 21.3682 58.9475 22.1518 57.8055 21.9763C56.2395 21.7357 54.6342 21.6107 52.9984 21.6107C51.3626 21.6107 49.7573 21.7357 48.1913 21.9763C47.0493 22.1518 45.9812 21.3682 45.8058 20.2262C45.6303 19.0841 46.4139 18.0161 47.5559 17.8406ZM71.0798 24.74C71.7629 23.8081 73.0721 23.6064 74.004 24.2895C76.9463 26.4462 79.5445 29.0444 81.7013 31.9867C82.3843 32.9186 82.1826 34.2278 81.2507 34.9109C80.3188 35.594 79.0096 35.3923 78.3265 34.4604C76.4224 31.8626 74.1281 29.5683 71.5303 27.6642C70.5984 26.9811 70.3967 25.6719 71.0798 24.74ZM34.917 24.74C35.6001 25.6719 35.3984 26.9811 34.4665 27.6642C31.8687 29.5683 29.5744 31.8626 27.6703 34.4604C26.9872 35.3923 25.678 35.594 24.7461 34.9109C23.8142 34.2279 23.6125 32.9187 24.2956 31.9867C26.4523 29.0444 29.0505 26.4462 31.9928 24.2895C32.9247 23.6064 34.2339 23.8081 34.917 24.74ZM85.7646 45.7997C86.9066 45.6242 87.9746 46.4078 88.1501 47.5498C88.4229 49.3253 88.5642 51.143 88.5642 52.9923C88.5642 54.8416 88.4229 56.6593 88.1501 58.4348C87.9746 59.5768 86.9066 60.3604 85.7646 60.1849C84.6225 60.0095 83.839 58.9414 84.0144 57.7994C84.255 56.2334 84.38 54.6281 84.38 52.9923C84.38 51.3565 84.255 49.7512 84.0144 48.1852C83.839 47.0432 84.6225 45.9751 85.7646 45.7997ZM20.2323 45.7997C21.3743 45.9751 22.1579 47.0432 21.9824 48.1852C21.7418 49.7512 21.6168 51.3565 21.6168 52.9923C21.6168 54.6281 21.7418 56.2334 21.9824 57.7994C22.1579 58.9414 21.3743 60.0095 20.2323 60.1849C19.0902 60.3604 18.0222 59.5768 17.8467 58.4348C17.5739 56.6593 17.4326 54.8416 17.4326 52.9923C17.4326 51.143 17.5739 49.3253 17.8467 47.5498C18.0222 46.4078 19.0902 45.6242 20.2323 45.7997ZM81.2507 71.0737C82.1826 71.7568 82.3843 73.066 81.7013 73.9979C79.5445 76.9402 76.9463 79.5384 74.004 81.6952C73.0721 82.3782 71.7629 82.1765 71.0798 81.2446C70.3967 80.3127 70.5984 79.0035 71.5303 78.3204C74.1281 76.4163 76.4224 74.122 78.3265 71.5242C79.0096 70.5923 80.3188 70.3906 81.2507 71.0737ZM24.7461 71.0737C25.678 70.3906 26.9872 70.5923 27.6703 71.5242C29.5744 74.122 31.8687 76.4163 34.4665 78.3204C35.3984 79.0035 35.6001 80.3127 34.917 81.2446C34.234 82.1765 32.9248 82.3782 31.9929 81.6952C29.0505 79.5384 26.4523 76.9402 24.2956 73.9979C23.6125 73.066 23.8142 71.7568 24.7461 71.0737ZM60.1911 85.7585C60.3665 86.9005 59.5829 87.9685 58.4409 88.144C56.6654 88.4168 54.8477 88.5581 52.9984 88.5581C51.1491 88.5581 49.3314 88.4168 47.5559 88.144C46.4139 87.9685 45.6303 86.9005 45.8058 85.7585C45.9812 84.6164 47.0493 83.8328 48.1913 84.0083C49.7573 84.2489 51.3626 84.3739 52.9984 84.3739C54.6343 84.3739 56.2395 84.2489 57.8055 84.0083C58.9476 83.8328 60.0156 84.6164 60.1911 85.7585Z" fill="url(#paint4_linear_347:15139)"/>
<circle cx="53.0037" cy="53.0006" r="32.0789" fill="url(#paint5_linear_347:15139)"/>
<defs>
<filter id="filter0_ii_347:15139" x="0" y="-3" width="106" height="112" filterUnits="userSpaceOnUse" color-interpolation-filters="sRGB">
<feFlood flood-opacity="0" result="BackgroundImageFix"/>
<feBlend mode="normal" in="SourceGraphic" in2="BackgroundImageFix" result="shape"/>
<feColorMatrix in="SourceAlpha" type="matrix" values="0 0 0 0 0 0 0 0 0 0 0 0 0 0 0 0 0 0 127 0" result="hardAlpha"/>
<feOffset dy="-3"/>
<feGaussianBlur stdDeviation="3"/>
<feComposite in2="hardAlpha" operator="arithmetic" k2="-1" k3="1"/>
<feColorMatrix type="matrix" values="0 0 0 0 0 0 0 0 0 0 0 0 0 0 0 0 0 0 0.5 0"/>
<feBlend mode="normal" in2="shape" result="effect1_innerShadow_347:15139"/>
<feColorMatrix in="SourceAlpha" type="matrix" values="0 0 0 0 0 0 0 0 0 0 0 0 0 0 0 0 0 0 127 0" result="hardAlpha"/>
<feOffset dy="3"/>
<feGaussianBlur stdDeviation="3"/>
<feComposite in2="hardAlpha" operator="arithmetic" k2="-1" k3="1"/>
<feColorMatrix type="matrix" values="0 0 0 0 0.945833 0 0 0 0 0.264045 0 0 0 0 0.298349 0 0 0 1 0"/>
<feBlend mode="normal" in2="effect1_innerShadow_347:15139" result="effect2_innerShadow_347:15139"/>
</filter>
<linearGradient id="paint0_linear_347:15139" x1="53" y1="0" x2="53" y2="106" gradientUnits="userSpaceOnUse">
<stop stop-color="#8F000E"/>
<stop offset="1" stop-color="#C5252D"/>
</linearGradient>
<linearGradient id="paint1_linear_347:15139" x1="53" y1="0" x2="53" y2="106" gradientUnits="userSpaceOnUse">
<stop stop-color="#8F000E"/>
<stop offset="1" stop-color="#C5252D"/>
</linearGradient>
<linearGradient id="paint2_linear_347:15139" x1="52.9982" y1="8.35839" x2="52.9982" y2="97.6216" gradientUnits="userSpaceOnUse">
<stop stop-color="#F2F2F2"/>
<stop offset="1" stop-color="#E2E2E2"/>
</linearGradient>
<linearGradient id="paint3_linear_347:15139" x1="53.0014" y1="16.7305" x2="53.0014" y2="89.2568" gradientUnits="userSpaceOnUse">
<stop stop-color="#600009"/>
<stop offset="1" stop-color="#AB0E16"/>
</linearGradient>
<linearGradient id="paint4_linear_347:15139" x1="52.9984" y1="19.5186" x2="52.9984" y2="86.466" gradientUnits="userSpaceOnUse">
<stop stop-color="#C2C2C2"/>
<stop offset="1" stop-color="#F2F2F2"/>
</linearGradient>
<linearGradient id="paint5_linear_347:15139" x1="53.0037" y1="20.9216" x2="53.0037" y2="85.0795" gradientUnits="userSpaceOnUse">
<stop stop-color="#8F000E"/>
<stop offset="1" stop-color="#C5252D"/>
</linearGradient>
</defs>
</svg>
