<svg width="64" height="64" viewBox="0 0 64 64" fill="none" xmlns="http://www.w3.org/2000/svg">
<g clip-path="url(#clip0_1826_433)">
<path fill-rule="evenodd" clip-rule="evenodd" d="M62.9826 17.7269H46.2732V1.01758H17.726V17.7269H1.0166V46.2742H17.726V62.9836H46.2732V46.2742H62.9826V17.7269Z" fill="#FBF9FC" stroke="#E7B117" stroke-width="3.19547" stroke-miterlimit="10"/>
<path d="M32.4214 56.3428C46.087 56.3428 57.1651 45.2647 57.1651 31.5992C57.1651 17.9336 46.087 6.85547 32.4214 6.85547C18.7559 6.85547 7.67773 17.9336 7.67773 31.5992C7.67773 45.2647 18.7559 56.3428 32.4214 56.3428Z" fill="#FBF9FC" stroke="#E7B117" stroke-width="3.19547" stroke-miterlimit="10"/>
<path fill-rule="evenodd" clip-rule="evenodd" d="M22.6084 40.2029H25.0594L27.9985 26.4835L27.9172 21.6426H26.6154L22.6084 40.2029Z" fill="#536CEF" stroke="#536CEF" stroke-width="1.1983" stroke-miterlimit="10"/>
<path fill-rule="evenodd" clip-rule="evenodd" d="M32.5954 40.2029H31.9852L27.9782 26.4835L27.5205 21.6426H28.9748L32.5954 34.4772V40.2029Z" fill="#536CEF" stroke="#536CEF" stroke-width="1.1983" stroke-miterlimit="10"/>
<path fill-rule="evenodd" clip-rule="evenodd" d="M42.2573 40.2029H39.7962L36.8672 26.4835L36.9384 21.6426H38.2503L42.2573 40.2029Z" fill="#536CEF" stroke="#536CEF" stroke-width="1.1983" stroke-miterlimit="10"/>
<path fill-rule="evenodd" clip-rule="evenodd" d="M32.2695 40.2029H32.8696L36.8766 26.4835L37.3342 21.6426H35.8799L32.2695 34.4772V40.2029Z" fill="#536CEF" stroke="#536CEF" stroke-width="1.1983" stroke-miterlimit="10"/>
<path d="M26.2382 49.3954C25.9534 49.1717 25.6788 49.0191 25.3941 48.9174C25.1093 48.8157 24.8144 48.7649 24.5093 48.7547C23.8991 48.7242 23.2278 48.8462 22.5871 48.9988C21.9464 49.1615 21.3362 49.3446 20.8786 49.5073C20.4209 49.6598 20.126 49.7717 20.126 49.7717C20.126 49.7717 20.4107 49.9446 20.8786 50.1378C21.3464 50.3311 21.9871 50.565 22.6888 50.687C23.3906 50.8091 24.1533 50.8294 24.8144 50.6362C25.4754 50.4531 26.0348 50.0463 26.228 49.4056L26.2382 49.3954Z" fill="#E7B117"/>
<path d="M24.2757 46.5574C24.5198 47.1167 24.8859 47.6659 25.3639 48.0219C25.5978 48.1948 25.8623 48.327 26.147 48.388C26.4318 48.4388 26.7369 48.4287 27.0318 48.3066C27.042 47.6354 26.8589 47.1066 26.5742 46.6387C26.2894 46.1811 25.8826 45.7743 25.4555 45.4387C25.0385 45.0929 24.6012 44.8081 24.2757 44.6047C23.9503 44.4013 23.7266 44.2793 23.7266 44.2793C23.7266 44.2793 23.7266 44.3505 23.7367 44.4827C23.7469 44.6047 23.7672 44.7878 23.8079 45.0014C23.8791 45.4285 24.0215 46.0082 24.2656 46.5676L24.2757 46.5574Z" fill="#E7B117"/>
<path d="M19.6699 48.0521C20.3106 48.0216 20.8802 47.7776 21.2768 47.2385C20.9615 46.669 20.4734 46.3639 19.8937 46.1809C19.314 46.008 18.6427 45.9571 17.9817 45.9368C17.3206 45.9164 16.6596 45.9368 16.1714 45.9368C15.6629 45.9469 15.3477 45.9469 15.3477 45.9469C15.3477 45.9469 15.4087 46.0181 15.5205 46.13C15.6324 46.2317 15.8053 46.3944 16.0087 46.5673C16.4257 46.9131 17.0155 47.3097 17.6664 47.6047C18.3173 47.8996 19.0292 48.0827 19.6699 48.0521Z" fill="#E7B117"/>
<path d="M20.89 45.519C21.2562 45.9767 21.7647 46.2818 22.3952 46.2513C22.6495 45.6309 22.6088 45.0512 22.4359 44.502C22.263 43.963 21.9579 43.4647 21.6426 43.0376C21.3274 42.6104 21.0121 42.2443 20.7782 41.9799C20.6663 41.8477 20.5646 41.746 20.4934 41.6646C20.4324 41.5934 20.3917 41.5527 20.3917 41.5527C20.3917 41.5527 20.3714 41.6138 20.3409 41.7358C20.3103 41.8578 20.2697 42.0206 20.2392 42.2341C20.168 42.6511 20.1375 43.2308 20.2392 43.8308C20.3307 44.4309 20.5443 45.0411 20.9104 45.5089L20.89 45.519Z" fill="#E7B117"/>
<path d="M13.0377 40.923C12.5801 40.7806 12.2852 40.6992 12.2852 40.6992C12.2852 40.6992 12.3157 40.7704 12.3665 40.9026C12.4275 41.0247 12.5191 41.2077 12.6411 41.4111C12.7631 41.6145 12.9055 41.8586 13.0682 42.1129C13.1496 42.2349 13.2411 42.3671 13.3327 42.4993L13.4039 42.601L13.4954 42.7231C13.5564 42.8044 13.6276 42.8858 13.6886 42.9671C14.2175 43.5977 14.8785 44.0858 15.5192 44.2892C16.1599 44.4926 16.7905 44.4316 17.3295 44.0248C17.1769 43.3841 16.821 42.9468 16.3328 42.5705C16.2108 42.4688 16.0786 42.3874 15.9464 42.2959C15.8142 42.2044 15.6718 42.123 15.5294 42.0315C15.387 41.94 15.2345 41.8586 15.0819 41.7671C14.9395 41.6857 14.7972 41.6145 14.6548 41.5535C14.0751 41.2789 13.4852 41.0755 13.0276 40.923H13.0377Z" fill="#E7B117"/>
<path d="M17.4929 42.0615C17.6658 42.6107 18.0624 43.0684 18.6726 43.2108C19.0998 42.6921 19.232 42.1327 19.2625 41.5937C19.293 41.0547 19.2218 40.5564 19.171 40.1292C19.1506 39.9462 19.0794 39.6411 19.0082 39.4072C18.937 39.1631 18.8659 38.9393 18.7947 38.7563C18.7235 38.5732 18.6624 38.4207 18.6218 38.319C18.5811 38.2173 18.5608 38.1562 18.5608 38.1562C18.5608 38.1562 18.5201 38.2173 18.4489 38.3291C18.3777 38.441 18.2862 38.5936 18.1845 38.7868C17.9811 39.1733 17.737 39.7123 17.5743 40.3021C17.5336 40.4547 17.4929 40.6072 17.4624 40.7598C17.4319 40.9022 17.4115 41.0547 17.4014 41.1971C17.4014 41.3496 17.4014 41.492 17.4115 41.6446C17.4217 41.7971 17.4624 41.9293 17.5031 42.0717L17.4929 42.0615Z" fill="#E7B117"/>
<path d="M12.347 38.6751C12.4487 38.8073 12.5708 38.9192 12.703 39.0209C12.825 39.1226 12.9572 39.2243 13.0894 39.3057C13.6183 39.6413 14.2081 39.7837 14.8489 39.6006C14.8997 39.2853 14.8794 38.9904 14.798 38.7158C14.7573 38.5836 14.6963 38.4514 14.6251 38.3294C14.5539 38.2073 14.4726 38.0853 14.3912 37.9632C14.0454 37.4852 13.5166 37.0683 12.9776 36.7022C12.4589 36.3259 11.9097 36.0106 11.4927 35.7767C11.0656 35.5428 10.791 35.4004 10.791 35.4004C10.791 35.4004 10.8012 35.4817 10.8419 35.6241C10.8825 35.7563 10.9334 35.9597 11.0148 36.1835C11.1775 36.6513 11.391 37.2717 11.7673 37.8412C11.9402 38.126 12.1436 38.4107 12.3572 38.665L12.347 38.6751Z" fill="#E7B117"/>
<path d="M15.8044 38.4209C15.9264 38.6751 16.1095 38.8989 16.3637 39.0717C16.9434 38.7361 17.279 38.2378 17.4519 37.6988C17.4926 37.5666 17.5333 37.4242 17.5536 37.2818C17.5638 37.2106 17.574 37.1394 17.5841 37.0784C17.5841 37.0072 17.6045 36.936 17.6147 36.8649C17.6553 36.5801 17.6553 36.2953 17.6553 36.0207C17.6147 35.4716 17.5841 34.9631 17.513 34.5868C17.4824 34.4037 17.4418 34.241 17.4214 34.1393C17.4011 34.0274 17.3909 33.9766 17.3909 33.9766C17.3909 33.9766 17.3401 34.0274 17.2485 34.1189C17.157 34.2105 17.035 34.3427 16.9028 34.5054C16.6282 34.841 16.2926 35.319 16.018 35.8682C15.7535 36.4174 15.5908 37.0276 15.5908 37.6174C15.5908 37.77 15.6112 37.9022 15.6518 38.0446C15.6824 38.187 15.7332 38.309 15.7942 38.4412L15.8044 38.4209Z" fill="#E7B117"/>
<path d="M11.2281 33.408C11.3094 33.5504 11.3908 33.6927 11.4925 33.8249C11.5942 33.9572 11.7061 34.0792 11.8179 34.1911C12.2756 34.6385 12.8248 34.8928 13.4858 34.8216C13.5977 34.5165 13.6282 34.2317 13.5977 33.947C13.5773 33.8046 13.5468 33.6724 13.5062 33.53C13.4655 33.3876 13.4146 33.2554 13.3536 33.1232C13.2316 32.8588 13.0587 32.5944 12.8654 32.3401C12.7637 32.2181 12.662 32.0859 12.5603 31.9638C12.4586 31.8418 12.3569 31.7198 12.2451 31.5977C11.8078 31.1197 11.3298 30.6824 10.9942 30.357C10.6484 30.0315 10.4043 29.8281 10.4043 29.8281C10.4043 29.8281 10.4043 30.1637 10.4246 30.6621C10.445 30.9061 10.4958 31.2011 10.5467 31.5062C10.5772 31.6587 10.6077 31.8215 10.6484 31.9842C10.6891 32.1469 10.7297 32.3096 10.7908 32.4723C10.9128 32.7978 11.045 33.113 11.2077 33.408H11.2281Z" fill="#E7B117"/>
<path d="M15.0721 34.4665C15.7027 34.2529 16.1298 33.8258 16.4044 33.3478C16.4756 33.2257 16.5366 33.1037 16.5875 32.9715C16.6485 32.8393 16.6993 32.7172 16.7502 32.585C16.8417 32.3206 16.9129 32.0562 16.9536 31.7918C17.0045 31.5273 17.0553 31.2832 17.0858 31.0392C17.096 30.9273 17.1062 30.8053 17.1163 30.7036C17.1163 30.6019 17.1265 30.5002 17.1367 30.4086C17.1773 30.0425 17.1672 29.8086 17.1672 29.8086C17.1672 29.8086 16.9231 29.9408 16.5671 30.1951C16.4858 30.2561 16.3841 30.3273 16.2925 30.4086C16.1908 30.49 16.0891 30.5713 15.9976 30.6629C15.8044 30.8459 15.601 31.0595 15.4078 31.2934C15.3162 31.4155 15.2247 31.5375 15.1332 31.6595C15.0925 31.7206 15.0518 31.7917 15.0111 31.8528C14.9704 31.9138 14.9399 31.985 14.9094 32.0562C14.7772 32.3206 14.6755 32.6054 14.6247 32.8901C14.6043 33.0325 14.584 33.1749 14.584 33.3173C14.584 33.4596 14.6145 33.5918 14.645 33.7241C14.7162 33.9885 14.8586 34.2427 15.0721 34.4665Z" fill="#E7B117"/>
<path d="M12.7733 26.4713C12.6207 26.1865 12.4682 25.912 12.3156 25.6475C12.1529 25.3831 12.0105 25.1492 11.8885 24.956C11.6342 24.5593 11.4614 24.2949 11.4614 24.2949C11.4614 24.2949 11.3698 24.6102 11.2681 25.0984C11.2274 25.3424 11.1969 25.6374 11.1766 25.9526C11.1664 26.1052 11.1562 26.2679 11.1562 26.4408C11.1562 26.6035 11.1664 26.7764 11.1766 26.9493C11.2071 27.2951 11.2478 27.6409 11.3393 27.9663C11.441 28.2917 11.5631 28.607 11.7258 28.8714C12.041 29.4104 12.5495 29.7867 13.2004 29.8783C13.2818 29.7461 13.353 29.6138 13.3937 29.4715C13.4445 29.3393 13.4852 29.1969 13.5055 29.0647C13.5564 28.7901 13.5259 28.5053 13.4648 28.2104C13.414 27.9256 13.3225 27.6307 13.2004 27.3358C13.0784 27.0408 12.9258 26.7459 12.7835 26.4611L12.7733 26.4713Z" fill="#E7B117"/>
<path d="M16.3431 28.9945C16.5465 28.8013 16.7092 28.5775 16.8516 28.3538C17.0041 28.1301 17.1465 27.8961 17.2584 27.6622C17.3194 27.5504 17.3601 27.4283 17.4109 27.3165C17.4618 27.2046 17.5126 27.0927 17.5533 26.991C17.6448 26.7774 17.7058 26.574 17.7669 26.4113C17.8991 26.0757 17.9499 25.8418 17.9499 25.8418C17.9499 25.8418 17.6753 25.9028 17.2787 26.0554C16.8617 26.2079 16.3736 26.452 15.8752 26.808C15.7532 26.8995 15.6312 26.991 15.5193 27.0927C15.4074 27.1944 15.3057 27.2961 15.204 27.408C15.0108 27.6317 14.8277 27.8758 14.7159 28.1402C14.604 28.4046 14.543 28.6691 14.543 28.9437C14.543 29.0759 14.5531 29.2182 14.5938 29.3505C14.6447 29.4827 14.6955 29.625 14.787 29.7573C15.4583 29.6962 15.9363 29.3911 16.3431 29.0047V28.9945Z" fill="#E7B117"/>
<path d="M14.411 24.723C14.5025 24.6112 14.5737 24.4891 14.6246 24.3569C14.6754 24.2247 14.7161 24.0925 14.7466 23.9603C14.7771 23.8179 14.7873 23.6755 14.7974 23.5331C14.8178 23.2484 14.7974 22.9331 14.7466 22.6178C14.6957 22.3026 14.6449 21.9873 14.5635 21.672C14.4008 21.0415 14.2279 20.4516 14.0754 20.0041C13.9228 19.5566 13.8109 19.2617 13.8109 19.2617C13.8109 19.2617 13.7703 19.3329 13.6991 19.4549C13.6279 19.577 13.5465 19.76 13.4448 19.9838C13.2313 20.4211 13.0177 21.0618 12.8855 21.7229C12.8346 22.0585 12.7939 22.4043 12.7939 22.7399C12.7939 22.9026 12.8041 23.0755 12.8346 23.2382C12.855 23.4009 12.8956 23.5636 12.9363 23.706C13.0279 24.0111 13.1499 24.2755 13.3533 24.5095C13.5465 24.7434 13.8008 24.9264 14.1059 25.0586C14.2279 24.9569 14.3194 24.8349 14.4008 24.723H14.411Z" fill="#E7B117"/>
<path d="M19.6483 22.3221C19.7093 22.2305 19.7296 22.1797 19.7296 22.1797C19.7296 22.1797 19.6584 22.1797 19.5364 22.1797C19.4143 22.1797 19.2313 22.2 19.0279 22.2204C18.8143 22.2509 18.5702 22.2916 18.3058 22.3526C18.1736 22.3831 18.0312 22.4136 17.899 22.4543C17.7668 22.495 17.6244 22.5458 17.482 22.5967C17.2075 22.7085 16.9227 22.8407 16.6786 23.0035C16.4345 23.1662 16.2108 23.3594 16.0277 23.5832C15.9362 23.695 15.865 23.8069 15.7938 23.9289C15.7328 24.051 15.6819 24.1832 15.6514 24.3154C15.6209 24.4476 15.6006 24.5798 15.6006 24.7222C15.6006 24.8646 15.6311 25.007 15.6819 25.1595C16.0074 25.2104 16.3125 25.2002 16.5871 25.1392C16.8617 25.0781 17.1363 24.9764 17.3702 24.8341C17.4922 24.7629 17.6041 24.6917 17.716 24.6103C17.777 24.5696 17.8177 24.529 17.8685 24.4781C17.9194 24.4374 17.9804 24.3968 18.0312 24.3459C18.2448 24.1628 18.4279 23.9696 18.5906 23.7764C18.7635 23.5832 18.9262 23.3899 19.0584 23.1967C19.0889 23.1458 19.1194 23.1052 19.1499 23.0543C19.1804 23.0136 19.2109 22.9628 19.2516 22.9221C19.3126 22.8407 19.3737 22.7594 19.4143 22.678C19.516 22.5255 19.5872 22.3933 19.6483 22.3017V22.3221Z" fill="#E7B117"/>
<path d="M16.2114 20.6545C16.4962 20.5122 16.7098 20.3189 16.8725 20.0952C17.0454 19.8816 17.1674 19.6274 17.2386 19.3426C17.4115 18.7934 17.442 18.1324 17.4318 17.5018C17.4318 17.3391 17.4318 17.1764 17.4115 17.0238C17.4115 16.8713 17.3911 16.7187 17.381 16.5764C17.3606 16.2814 17.3301 16.0068 17.2996 15.7729C17.2488 15.3153 17.1979 15 17.1979 15C17.1979 15 17.1471 15.061 17.0555 15.1627C16.964 15.2644 16.8318 15.417 16.6996 15.6102C16.5572 15.8034 16.3945 16.0272 16.2318 16.2916C16.0792 16.556 15.9165 16.8408 15.7944 17.1459C15.6724 17.4611 15.5504 17.7764 15.4792 18.1019C15.408 18.4273 15.3775 18.7527 15.3876 19.0578C15.4283 19.6884 15.6724 20.2477 16.2013 20.6444L16.2114 20.6545Z" fill="#E7B117"/>
<path d="M20.8489 20.32C21.0625 20.1674 21.2659 20.0047 21.4388 19.8521C21.6219 19.6996 21.7846 19.5572 21.9066 19.425C22.0388 19.2928 22.1507 19.1911 22.2219 19.1097C22.2931 19.0385 22.3338 18.9877 22.3338 18.9877C22.3338 18.9877 22.0592 18.9267 21.632 18.886C21.4185 18.8656 21.1744 18.8555 20.8998 18.8555C20.6252 18.8555 20.3303 18.8758 20.0353 18.9267C19.4455 19.0182 18.8455 19.2114 18.3878 19.5572C18.1641 19.7301 17.981 19.9335 17.8488 20.1776C17.7267 20.4217 17.6657 20.6962 17.6759 21.0013C18.2861 21.2658 18.8658 21.2454 19.3946 21.0929C19.6692 21.0217 19.9235 20.9098 20.1574 20.7776C20.4015 20.6454 20.6354 20.503 20.8388 20.3403L20.8489 20.32Z" fill="#E7B117"/>
<path d="M19.67 45.4188C21.4192 46.8731 23.5447 47.8596 25.6398 48.7037C27.3483 49.3953 29.5451 50.5242 31.7825 51.5818C29.779 52.2022 27.7958 52.7209 26.1991 52.9853C25.9855 53.0158 27.0636 54.1142 27.267 54.0532C29.1179 53.4938 30.9994 52.8226 32.8503 52.07C34.8742 52.9853 36.8675 53.7786 38.515 54.0532C38.7184 54.0837 39.3693 52.9853 39.1557 52.9548C37.5997 52.6904 35.7895 52.2327 33.908 51.6429C37.0099 50.3411 39.9998 48.8664 42.583 47.463C45.39 45.9375 47.4952 43.7713 48.8783 40.883C50.1597 38.2082 51.0648 35.2589 51.1971 32.2995C51.3801 28.1908 49.997 24.1634 47.8613 20.7056C47.2307 19.6886 46.5392 18.6818 45.7561 17.7461C45.8273 17.4817 45.8374 17.2275 45.7866 16.9936C45.7357 16.7088 45.6239 16.4342 45.451 16.1901C45.1255 15.6918 44.5967 15.2952 44.0577 14.9901C43.5187 14.6951 42.9492 14.5019 42.5322 14.4002C42.3186 14.3494 42.1457 14.3188 42.0237 14.2985C41.9627 14.2985 41.9118 14.2883 41.8813 14.2883C41.8508 14.2883 41.8406 14.2883 41.8406 14.2883C41.8406 14.2883 41.8406 14.2985 41.861 14.329C41.8813 14.3595 41.8915 14.4002 41.922 14.4511C41.9728 14.5629 42.0542 14.7155 42.1559 14.8985C42.3593 15.2748 42.6339 15.763 42.9492 16.2308C43.1119 16.4749 43.2949 16.6986 43.478 16.9122C43.5695 17.0241 43.6712 17.1258 43.7729 17.2173C43.8746 17.319 43.9763 17.4004 44.0984 17.4817C44.3221 17.6343 44.5662 17.7665 44.8306 17.8275C45.034 17.8784 45.2476 17.8987 45.4815 17.8885C46.9765 19.6479 48.1969 21.7023 49.1224 23.7566C50.3021 26.3703 50.9326 29.2281 50.8716 32.1062C50.8004 35.2386 49.7529 38.4218 48.3494 41.2084C47.2511 43.3746 45.6646 45.1442 43.6204 46.4561C41.7999 47.6359 39.7965 48.5207 37.8133 49.3749C36.3285 50.0156 34.5589 50.6767 32.769 51.2666C28.9349 49.9851 24.9177 48.2562 22.1413 46.6799C20.687 45.8663 19.375 44.8594 18.2868 43.5882C17.1986 42.3169 16.4156 40.8118 15.785 39.2761C14.5951 36.3573 13.8324 33.3368 14.0154 30.1739C14.229 26.4822 15.6833 22.943 17.7071 19.8818C18.2258 19.0988 18.7852 18.3157 19.3954 17.5733C19.6191 17.5834 19.8225 17.5631 20.0157 17.5122C20.2802 17.441 20.5242 17.319 20.748 17.1664C20.8599 17.0851 20.9616 17.0037 21.0633 16.902C21.165 16.8105 21.2667 16.7088 21.3582 16.5969C21.5514 16.3834 21.7243 16.1494 21.887 15.9054C22.2125 15.4274 22.4871 14.9392 22.6803 14.5731C22.782 14.39 22.8634 14.2273 22.9142 14.1256C22.9447 14.0748 22.9651 14.0341 22.9752 14.0036C22.9854 13.9731 22.9956 13.9629 22.9956 13.9629C22.9956 13.9629 22.9854 13.9629 22.9549 13.9629C22.9244 13.9629 22.8735 13.9629 22.8125 13.9832C22.6905 14.0036 22.5176 14.0341 22.304 14.0849C21.887 14.1866 21.3175 14.3697 20.7785 14.6748C20.2395 14.9697 19.7106 15.3765 19.3852 15.8749C19.2123 16.1189 19.1004 16.3935 19.0598 16.6681C19.0089 16.902 19.0191 17.1563 19.0903 17.4105C17.6665 19.1089 16.4867 21.0616 15.5714 23.0142C14.4426 25.4347 13.7612 28.0484 13.6595 30.7129C13.5476 33.7843 14.3815 36.7234 15.5308 39.5303C16.4562 41.7983 17.7783 43.8526 19.67 45.4188Z" fill="#E7B117"/>
<path d="M42.1251 50.9921C42.8268 50.8701 43.4676 50.6463 43.9354 50.4429C44.4032 50.2395 44.688 50.0768 44.688 50.0768C44.688 50.0768 44.393 49.9548 43.9354 49.8022C43.4777 49.6497 42.8777 49.4564 42.2268 49.2937C41.5861 49.1412 40.9149 49.0191 40.3047 49.0496C39.9996 49.0598 39.7046 49.1208 39.4199 49.2123C39.1351 49.314 38.8707 49.4666 38.5859 49.6903C38.769 50.3311 39.3385 50.7379 39.9894 50.9209C40.6505 51.1141 41.4132 51.0938 42.1149 50.9718L42.1251 50.9921Z" fill="#E7B117"/>
<path d="M38.6773 48.6927C38.9621 48.6418 39.2265 48.5096 39.4604 48.3266C39.9384 47.9706 40.2944 47.4214 40.5486 46.8621C40.8029 46.3027 40.9351 45.723 41.0063 45.2959C41.0368 45.0823 41.0571 44.8993 41.0775 44.7772C41.0876 44.6552 41.0876 44.584 41.0876 44.584C41.0876 44.584 40.8639 44.706 40.5385 44.9094C40.213 45.1128 39.7859 45.3976 39.3587 45.7434C38.9418 46.0891 38.5248 46.4858 38.24 46.9434C37.9553 47.4113 37.7722 47.9401 37.7926 48.6113C38.0875 48.7334 38.3926 48.7537 38.6773 48.6927Z" fill="#E7B117"/>
<path d="M46.8541 46.2532C46.193 46.2735 45.5116 46.3244 44.932 46.4973C44.3523 46.6803 43.8743 46.9854 43.5488 47.5549C43.9455 48.094 44.515 48.338 45.1557 48.3685C45.7964 48.3991 46.5083 48.216 47.1592 47.9211C47.8101 47.6261 48.3999 47.2295 48.8169 46.8837C49.0305 46.7108 49.1932 46.5583 49.3051 46.4464C49.4169 46.3345 49.478 46.2634 49.478 46.2634C49.478 46.2634 49.1627 46.2634 48.6542 46.2532C48.1559 46.2532 47.505 46.2328 46.8439 46.2532H46.8541Z" fill="#E7B117"/>
<path d="M42.4399 46.5673C43.0704 46.5978 43.5789 46.2927 43.945 45.835C44.301 45.3672 44.5247 44.757 44.6163 44.157C44.7078 43.557 44.6773 42.9773 44.6061 42.5603C44.5756 42.3467 44.5349 42.184 44.5044 42.062C44.4739 41.9399 44.4535 41.8789 44.4535 41.8789C44.4535 41.8789 44.4129 41.9196 44.3518 41.9908C44.2807 42.062 44.1891 42.1637 44.0671 42.306C43.8332 42.5705 43.5179 42.9366 43.2026 43.3637C42.8874 43.7909 42.5823 44.2892 42.4094 44.8282C42.2365 45.3672 42.1958 45.9571 42.45 46.5775L42.4399 46.5673Z" fill="#E7B117"/>
<path d="M51.135 43.2738C51.2062 43.1924 51.2672 43.1111 51.3282 43.0297L51.4198 42.9077L51.491 42.806C51.5825 42.6737 51.674 42.5415 51.7554 42.4195C51.9181 42.1652 52.0707 41.9212 52.1825 41.7178C52.2944 41.5042 52.3859 41.3313 52.4469 41.2093C52.508 41.0872 52.5385 41.0059 52.5385 41.0059C52.5385 41.0059 52.2435 41.0872 51.7859 41.2296C51.3384 41.372 50.7384 41.5856 50.1689 41.85C50.0265 41.9212 49.8841 41.9924 49.7417 42.0635C49.5892 42.1449 49.4366 42.2364 49.2942 42.328C49.1519 42.4195 49.0095 42.5009 48.8773 42.5924C48.7451 42.6839 48.6128 42.7653 48.4908 42.867C48.0026 43.2433 47.6467 43.6806 47.4941 44.3213C48.0332 44.7179 48.6535 44.7891 49.3044 44.5857C49.9451 44.3823 50.6062 43.8941 51.135 43.2636V43.2738Z" fill="#E7B117"/>
<path d="M47.2598 40.599C47.0869 39.999 46.8428 39.4701 46.6496 39.0837C46.5479 38.8904 46.4564 38.7379 46.3852 38.626C46.314 38.5141 46.2733 38.4531 46.2733 38.4531C46.2733 38.4531 46.253 38.5141 46.2123 38.6158C46.1716 38.7175 46.1004 38.8701 46.0394 39.0532C45.9682 39.2362 45.897 39.46 45.8258 39.704C45.7547 39.9379 45.6835 40.243 45.6631 40.4261C45.6021 40.8533 45.5411 41.3618 45.5716 41.8906C45.6021 42.4296 45.7343 42.989 46.1615 43.5076C46.7717 43.3652 47.1683 42.9178 47.3412 42.3584C47.3819 42.216 47.4124 42.0737 47.4327 41.9313C47.4429 41.7787 47.453 41.6363 47.4327 41.4838C47.4225 41.3312 47.4022 41.1889 47.3717 41.0465C47.3412 40.8939 47.3005 40.7414 47.2598 40.5888V40.599Z" fill="#E7B117"/>
<path d="M54.0031 35.9405C54.0336 35.7982 54.0539 35.7168 54.0539 35.7168C54.0539 35.7168 53.7895 35.8592 53.3624 36.0931C52.9454 36.327 52.3962 36.6423 51.8775 37.0186C51.3385 37.3847 50.8097 37.8017 50.4639 38.2796C50.3825 38.4017 50.291 38.5237 50.2198 38.6458C50.1486 38.7678 50.0876 38.9 50.0469 39.0322C49.9656 39.3068 49.9351 39.5916 49.9961 39.917C50.6368 40.1001 51.2267 39.9577 51.7555 39.6221C51.8877 39.5407 52.0199 39.439 52.142 39.3373C52.264 39.2356 52.386 39.1136 52.4979 38.9915C52.7115 38.7373 52.9149 38.4627 53.0878 38.1678C53.4539 37.5983 53.6776 36.9779 53.8404 36.5101C53.9217 36.2762 53.9726 36.0829 54.0132 35.9405H54.0031Z" fill="#E7B117"/>
<path d="M48.4705 39.387C48.7247 39.2141 48.9078 38.9802 49.0298 38.7361C49.0908 38.6141 49.1417 38.4819 49.1722 38.3395C49.2027 38.1971 49.2332 38.0649 49.2332 37.9124C49.2332 37.3225 49.0705 36.7123 48.8061 36.1631C48.5315 35.6139 48.1857 35.1359 47.9213 34.8003C47.7891 34.6376 47.667 34.5054 47.5755 34.4139C47.484 34.3223 47.4331 34.2715 47.4331 34.2715C47.4331 34.2715 47.423 34.3325 47.4026 34.4444C47.3823 34.5562 47.3416 34.7088 47.3111 34.8919C47.2399 35.2681 47.2094 35.7766 47.1687 36.3258C47.1585 36.6004 47.1687 36.8852 47.2094 37.1699C47.2196 37.2411 47.2297 37.3123 47.2399 37.3835C47.2399 37.4547 47.2602 37.5259 47.2704 37.5971C47.2907 37.7395 47.3314 37.8717 47.3721 38.0141C47.545 38.5531 47.8806 39.0514 48.4603 39.387H48.4705Z" fill="#E7B117"/>
<path d="M52.5796 31.9137C52.4677 32.0358 52.366 32.1578 52.2643 32.2798C52.1626 32.4019 52.0609 32.5341 51.9592 32.6561C51.766 32.9104 51.5931 33.1748 51.471 33.4392C51.41 33.5714 51.3592 33.7138 51.3185 33.846C51.2676 33.9782 51.2371 34.1206 51.227 34.263C51.1965 34.5477 51.227 34.8325 51.3388 35.1376C51.9999 35.1986 52.5491 34.9444 53.0067 34.5071C53.1186 34.3952 53.2305 34.2732 53.3322 34.1409C53.4339 34.0087 53.5152 33.8664 53.5966 33.724C53.7593 33.429 53.9017 33.1036 54.0136 32.7883C54.0746 32.6256 54.1153 32.4629 54.1559 32.3002C54.1966 32.1375 54.2271 31.9849 54.2576 31.8222C54.3187 31.5171 54.3695 31.2221 54.3797 30.9781C54.4102 30.4797 54.4 30.1543 54.4 30.1543C54.4 30.1543 54.1559 30.3577 53.8102 30.6831C53.4745 31.0086 52.9965 31.4459 52.5694 31.9239L52.5796 31.9137Z" fill="#E7B117"/>
<path d="M50.1897 34.0385C50.2304 33.9063 50.2507 33.7639 50.2609 33.6317C50.2609 33.4893 50.2406 33.3469 50.2202 33.2046C50.1694 32.9198 50.0677 32.635 49.9355 32.3706C49.905 32.2994 49.8643 32.2384 49.8338 32.1672C49.7931 32.1062 49.7524 32.035 49.7117 31.974C49.6202 31.852 49.5287 31.7197 49.4371 31.6079C49.2439 31.374 49.0507 31.1604 48.8473 30.9773C48.7558 30.8858 48.6541 30.8044 48.5524 30.7231C48.4507 30.6417 48.3591 30.5705 48.2778 30.5095C47.9218 30.2553 47.6777 30.123 47.6777 30.123C47.6777 30.123 47.6777 30.3671 47.7082 30.7231C47.7286 30.8146 47.7286 30.9163 47.7286 31.018C47.7286 31.1197 47.7489 31.2417 47.7591 31.3536C47.7896 31.5875 47.8405 31.8418 47.8913 32.1062C47.932 32.3706 48.0032 32.635 48.0947 32.8995C48.1456 33.0317 48.1964 33.1639 48.2574 33.2859C48.3083 33.408 48.3693 33.5402 48.4405 33.6622C48.7151 34.1402 49.1422 34.5673 49.7728 34.7809C49.9863 34.5572 50.1287 34.3131 50.1999 34.0385H50.1897Z" fill="#E7B117"/>
<path d="M51.3692 28.5268C51.298 28.8115 51.2878 29.0963 51.3285 29.3811C51.3488 29.5235 51.3895 29.6557 51.4404 29.7879C51.4912 29.9201 51.5522 30.0625 51.6336 30.1947C52.2946 30.1031 52.8031 29.7269 53.1082 29.1878C53.271 28.9133 53.393 28.6081 53.4947 28.2827C53.5862 27.9573 53.6269 27.6115 53.6574 27.2657C53.6676 27.0928 53.6778 26.9199 53.6778 26.7572C53.6778 26.5945 53.6676 26.4318 53.6574 26.269C53.6371 25.9538 53.5964 25.6588 53.5659 25.4148C53.4642 24.9266 53.3727 24.6113 53.3727 24.6113C53.3727 24.6113 53.1896 24.8757 52.9455 25.2724C52.8235 25.4656 52.6811 25.7097 52.5184 25.9639C52.3658 26.2182 52.2031 26.503 52.0607 26.7877C51.9183 27.0725 51.7658 27.3674 51.6438 27.6623C51.5217 27.9573 51.4302 28.2522 51.3692 28.537V28.5268Z" fill="#E7B117"/>
<path d="M50.1085 28.4453C49.9865 28.1809 49.8136 27.9368 49.6102 27.7131C49.5085 27.6012 49.4068 27.4893 49.2949 27.3876C49.183 27.2859 49.061 27.1944 48.9389 27.1029C48.4406 26.7571 47.9525 26.5028 47.5355 26.3503C47.1388 26.1977 46.8643 26.1367 46.8643 26.1367C46.8643 26.1367 46.9253 26.3706 47.0575 26.7062C47.1185 26.8791 47.1795 27.0825 47.2711 27.2961C47.3117 27.3978 47.3626 27.5097 47.4134 27.6215C47.4643 27.7334 47.5151 27.8555 47.566 27.9673C47.6779 28.2012 47.8101 28.4351 47.9728 28.6589C48.1152 28.8826 48.2779 29.1064 48.4813 29.2996C48.8881 29.6861 49.3661 29.9912 50.0373 30.0522C50.1187 29.92 50.1797 29.7878 50.2204 29.6555C50.261 29.5132 50.2712 29.381 50.2814 29.2487C50.2814 28.9742 50.2204 28.6996 50.1085 28.4453Z" fill="#E7B117"/>
<path d="M51.0236 19.5781C51.0236 19.5781 50.9117 19.8629 50.7592 20.3205C50.6066 20.768 50.4337 21.368 50.271 21.9986C50.1896 22.3139 50.1388 22.6291 50.0879 22.9444C50.0371 23.2597 50.0168 23.5648 50.0371 23.8597C50.0473 24.0021 50.0574 24.1445 50.0879 24.2868C50.1185 24.4292 50.1591 24.5614 50.21 24.6835C50.2608 24.8055 50.332 24.9276 50.4236 25.0496C50.5049 25.1716 50.6066 25.2835 50.7185 25.3852C51.0338 25.253 51.2778 25.0699 51.4711 24.836C51.6745 24.6021 51.7965 24.3377 51.888 24.0326C51.9389 23.88 51.9694 23.7275 51.9897 23.5648C52.0101 23.4021 52.0304 23.2292 52.0304 23.0664C52.0304 22.7308 51.9897 22.3851 51.9389 22.0494C51.8067 21.3884 51.5931 20.7578 51.3795 20.3104C51.2778 20.0866 51.1863 19.9036 51.1253 19.7815C51.0541 19.6595 51.0134 19.5883 51.0134 19.5883L51.0236 19.5781Z" fill="#E7B117"/>
<path d="M49.0413 24.2645C48.9803 24.1424 48.9091 24.0204 48.8074 23.9187C48.6243 23.7051 48.4006 23.5119 48.1565 23.339C47.9124 23.1763 47.6276 23.0441 47.353 22.9322C47.2107 22.8813 47.0785 22.8305 46.9361 22.7898C46.8039 22.7491 46.6615 22.7085 46.5293 22.6881C46.2649 22.6271 46.0208 22.5864 45.8072 22.5661C45.5936 22.5356 45.4207 22.5254 45.2987 22.5254C45.1665 22.5254 45.1055 22.5254 45.1055 22.5254C45.1055 22.5254 45.136 22.5762 45.197 22.6678C45.2478 22.7593 45.319 22.8915 45.4309 23.0441C45.4818 23.1153 45.5326 23.1966 45.5936 23.2881C45.6241 23.3288 45.6547 23.3797 45.6953 23.4204C45.7258 23.4712 45.7564 23.5119 45.7869 23.5627C45.9191 23.756 46.0818 23.9492 46.2547 24.1424C46.4174 24.3458 46.6005 24.5391 46.814 24.7119C46.8649 24.7526 46.9259 24.8035 46.9768 24.8442C47.0276 24.8848 47.0785 24.9255 47.1395 24.9764C47.2513 25.0577 47.3632 25.1289 47.4853 25.2001C47.7192 25.3425 47.9938 25.4442 48.2683 25.5052C48.5429 25.5662 48.848 25.5866 49.1735 25.5256C49.2142 25.3832 49.2447 25.2306 49.2548 25.0882C49.2548 24.9459 49.2345 24.8136 49.204 24.6814C49.1735 24.5492 49.1226 24.417 49.0616 24.295L49.0413 24.2645Z" fill="#E7B117"/>
<path d="M48.6232 20.9709C49.152 20.5743 49.3961 20.015 49.4368 19.3844C49.4571 19.0793 49.4164 18.7539 49.3452 18.4183C49.274 18.0928 49.1622 17.7776 49.03 17.4623C48.8977 17.1572 48.735 16.8724 48.5825 16.608C48.4299 16.3436 48.257 16.1198 48.1248 15.9266C47.9824 15.7334 47.8502 15.5808 47.7587 15.4791C47.6672 15.3774 47.6163 15.3164 47.6163 15.3164C47.6163 15.3164 47.5655 15.6215 47.5146 16.0893C47.4841 16.3232 47.4638 16.5978 47.4333 16.8928C47.4231 17.0351 47.4129 17.1877 47.4129 17.3402C47.4129 17.4928 47.3926 17.6555 47.3926 17.8182C47.3926 18.4488 47.4129 19.1098 47.5858 19.659C47.6672 19.9438 47.779 20.198 47.9519 20.4116C48.1147 20.6353 48.3282 20.8286 48.613 20.9709H48.6232Z" fill="#E7B117"/>
<path d="M46.4362 19.8619C45.9786 19.5263 45.3785 19.3229 44.7887 19.2313C44.4937 19.1805 44.1988 19.1703 43.9242 19.1602C43.6496 19.1602 43.4055 19.1602 43.192 19.1907C42.7648 19.2313 42.4902 19.2924 42.4902 19.2924C42.4902 19.2924 42.5309 19.3432 42.6021 19.4144C42.6733 19.4958 42.7852 19.5975 42.9174 19.7297C43.0496 19.8619 43.2123 20.0043 43.3954 20.1568C43.5683 20.3094 43.7717 20.4721 43.9852 20.6246C44.1988 20.7874 44.4327 20.9297 44.6666 21.062C44.9005 21.1942 45.1548 21.306 45.4294 21.3772C45.9582 21.5298 46.5379 21.5603 47.1481 21.2857C47.1583 20.9806 47.0973 20.706 46.9752 20.4619C46.843 20.228 46.6599 20.0246 46.4362 19.8415V19.8619Z" fill="#E7B117"/>
<path fill-rule="evenodd" clip-rule="evenodd" d="M30.743 13.1388C30.2345 12.9252 29.6955 12.7625 29.1361 12.7523C28.4446 12.7421 27.7937 12.9557 27.3462 13.5049C26.8174 14.1558 26.7665 15.0609 26.9699 15.844C27.1021 16.3627 27.3462 16.861 27.6513 17.3085C27.8242 17.3085 28.0073 17.3186 28.17 17.3695C28.3836 17.4305 28.587 17.5526 28.7497 17.7051C29.3802 17.1254 30.4888 17.0949 31.1091 17.7051C31.16 17.6644 31.2007 17.6237 31.2515 17.5932L30.7328 13.1388H30.743Z" fill="#E7B117"/>
<path fill-rule="evenodd" clip-rule="evenodd" d="M26.421 13.3431C26.1871 13.3431 26.004 13.5261 26.004 13.7601C26.004 13.994 26.1871 14.177 26.421 14.177C26.6549 14.177 26.838 13.9838 26.838 13.7601C26.838 13.5363 26.6549 13.3431 26.421 13.3431ZM30.306 18.601C30.1941 18.662 30.0517 18.6824 29.9297 18.6824C29.8076 18.6824 29.6653 18.662 29.5534 18.601C29.472 18.5603 29.3805 18.4891 29.3805 18.3874C29.3805 18.2857 29.4619 18.2145 29.5534 18.1739C29.6653 18.1128 29.8076 18.0925 29.9297 18.0925C30.0517 18.0925 30.1941 18.1128 30.306 18.1739C30.3873 18.2145 30.4789 18.2857 30.4789 18.3874C30.4789 18.4891 30.3975 18.5603 30.306 18.601ZM28.0584 18.601H28.0482C27.8855 18.5807 27.7126 18.4586 27.6923 18.2857C27.6923 18.2145 27.7024 18.1535 27.7431 18.1027V18.0823H27.7736C27.9262 18.0925 28.2415 18.1738 28.2415 18.3773C28.2415 18.479 28.1601 18.5501 28.0686 18.5908L28.0584 18.601ZM32.045 18.1739C32.1569 18.1128 32.2993 18.0925 32.4213 18.0925V17.5331C32.4213 17.5331 32.3908 17.5331 32.3705 17.5331C32.3501 17.5331 32.34 17.5331 32.3196 17.5331C32.2993 17.5331 32.2891 17.5331 32.2688 17.5331C31.923 17.5535 31.5467 17.6653 31.2925 17.8891C31.2823 17.8891 31.2721 17.9094 31.262 17.9196C31.262 17.9196 31.2416 17.9399 31.2314 17.9501C31.2314 17.9501 31.2111 17.9704 31.2009 17.9806C31.2009 17.9908 31.1806 18.001 31.1704 18.0111C31.1704 18.0213 31.1501 18.0315 31.1501 18.0416C31.1501 18.0518 31.1297 18.062 31.1297 18.0722L31.0992 18.1128L31.0687 18.0722C31.0687 18.0722 31.0484 18.0518 31.0484 18.0416C30.8246 17.7264 30.4687 17.5636 30.0924 17.5331C30.0822 17.5331 30.0619 17.5331 30.0517 17.5331C30.0517 17.5331 30.0212 17.5331 30.011 17.5331C30.011 17.5331 29.9805 17.5331 29.9704 17.5331C29.9704 17.5331 29.9399 17.5331 29.9297 17.5331C29.9195 17.5331 29.8992 17.5331 29.889 17.5331C29.8788 17.5331 29.8585 17.5331 29.8483 17.5331C29.8382 17.5331 29.8178 17.5331 29.8076 17.5331C29.7975 17.5331 29.7771 17.5331 29.767 17.5331C29.7568 17.5331 29.7364 17.5331 29.7263 17.5331C29.7161 17.5331 29.6958 17.5331 29.6856 17.5331C29.6754 17.5331 29.6551 17.5331 29.6449 17.5331C29.6347 17.5331 29.6144 17.5331 29.6042 17.5331C29.5941 17.5331 29.5737 17.5331 29.5636 17.5331C29.5534 17.5331 29.533 17.5331 29.5229 17.5433C29.5127 17.5433 29.4924 17.5433 29.4822 17.5535C29.472 17.5535 29.4517 17.5535 29.4415 17.5636C29.1771 17.6552 28.9432 17.8077 28.7805 18.0315L28.75 18.0722L28.7194 18.0315C28.6076 17.8484 28.4245 17.706 28.2211 17.6145H28.2008H28.1804H28.1601H28.1398C28.1398 17.6145 28.1194 17.6145 28.1092 17.6145C28.1092 17.6145 28.0889 17.6145 28.0787 17.6145C28.0787 17.6145 28.0584 17.6145 28.0482 17.6145C28.0482 17.6145 28.0279 17.6145 28.0177 17.6145C27.9669 17.6043 27.9058 17.5942 27.855 17.584C27.855 17.584 27.8347 17.584 27.8245 17.584C27.8245 17.584 27.8041 17.584 27.794 17.584C27.794 17.584 27.7736 17.584 27.7635 17.584C27.7635 17.584 27.7431 17.584 27.733 17.584C27.733 17.584 27.7126 17.584 27.7024 17.584C27.7024 17.584 27.6821 17.584 27.6719 17.584C27.6719 17.584 27.6516 17.584 27.6414 17.584C27.499 17.584 27.3465 17.6247 27.2143 17.6857C27.377 17.7874 27.5194 17.9196 27.6414 18.062L27.6618 18.0823V18.1027C27.6109 18.1637 27.5906 18.245 27.6007 18.3162C27.6211 18.5298 27.8245 18.6722 28.0177 18.6925H28.0584V18.7129C28.1398 18.8756 28.2008 19.0485 28.2415 19.2315H32.4112V18.7027C32.2891 18.7027 32.1467 18.6824 32.0349 18.6213C31.9535 18.5807 31.862 18.5095 31.862 18.4078C31.862 18.3061 31.9433 18.2349 32.0349 18.1942L32.045 18.1739ZM31.4552 11.4718H32.279V10.648H32.3095C32.3095 10.648 32.3807 10.648 32.4213 10.648V8.64453H31.9637C32.1773 8.9598 32.2078 9.0615 32.2078 9.47847V9.50898H32.1773C31.801 9.50898 31.6993 9.45813 31.4247 9.27507V10.1802C31.6993 9.98698 31.8111 9.94629 32.1773 9.94629H32.2078V10.5565H32.1773C31.6688 10.6785 31.3026 11.126 31.3026 11.6447C31.3026 12.2549 31.801 12.7532 32.4112 12.7532V11.7871H31.445V11.7566C31.445 11.7566 31.4348 11.6752 31.4348 11.6447C31.4348 11.6142 31.4348 11.5633 31.4348 11.5328V11.5023L31.4552 11.4718ZM31.384 12.5193L30.9569 12.6922L31.506 17.4518C31.7806 17.3297 32.1061 17.2687 32.4213 17.2687V13.0075C32.0145 13.0075 31.6382 12.8346 31.3738 12.5295L31.384 12.5193ZM27.0821 12.4074C26.8482 12.4074 26.6651 12.6007 26.6651 12.8244C26.6651 13.0482 26.8482 13.2414 27.0821 13.2414C27.316 13.2414 27.5092 13.0583 27.5092 12.8244C27.5092 12.5905 27.316 12.4074 27.0821 12.4074ZM28.0381 11.9803C27.8448 11.9803 27.6821 12.143 27.6821 12.3363C27.6821 12.5295 27.8347 12.6922 28.0381 12.6922C28.2415 12.6922 28.394 12.5295 28.394 12.3363C28.394 12.143 28.2313 11.9803 28.0381 11.9803ZM28.9839 11.9396C28.8211 11.9396 28.6889 12.0718 28.6889 12.2346C28.6889 12.3973 28.8211 12.5295 28.9839 12.5295C29.1466 12.5295 29.2788 12.3973 29.2788 12.2346C29.2788 12.0718 29.1466 11.9396 28.9839 11.9396ZM29.8076 12.0922C29.6653 12.0922 29.5534 12.204 29.5534 12.3464C29.5534 12.4888 29.6653 12.6007 29.8076 12.6007C29.95 12.6007 30.0619 12.4888 30.0619 12.3464C30.0619 12.204 29.95 12.0922 29.8076 12.0922ZM30.4992 12.3871C30.3873 12.3871 30.2958 12.4786 30.2958 12.5905C30.2958 12.7024 30.3873 12.7939 30.4992 12.7939C30.6111 12.7939 30.7026 12.7024 30.7026 12.5905C30.7026 12.4786 30.6111 12.3871 30.4992 12.3871ZM26.6041 14.7262C26.5634 14.533 26.3702 14.4109 26.1769 14.4618C25.9837 14.5025 25.8617 14.6957 25.9023 14.8889C25.943 15.0822 26.1363 15.2042 26.3295 15.1534C26.5227 15.1127 26.6448 14.9194 26.6041 14.7262ZM26.6651 15.672C26.6244 15.5195 26.4719 15.4178 26.3092 15.4483C26.1566 15.4788 26.0447 15.6415 26.0854 15.8042C26.1159 15.9568 26.2786 16.0585 26.4312 16.028C26.5939 15.9975 26.6956 15.8347 26.6549 15.672H26.6651ZM26.899 16.4653C26.8685 16.3229 26.7261 16.2415 26.5939 16.2721C26.4617 16.3026 26.3702 16.4449 26.4007 16.5772C26.4312 16.7195 26.5736 16.8009 26.7058 16.7704C26.8482 16.7399 26.9295 16.5975 26.899 16.4653ZM27.2245 17.106C27.2041 16.9941 27.0922 16.9229 26.9804 16.9534C26.8685 16.9738 26.7973 17.0857 26.8278 17.1975C26.8482 17.3094 26.96 17.3806 27.0719 17.3501C27.1838 17.3297 27.255 17.2179 27.2245 17.106Z" fill="#E7B117"/>
<path fill-rule="evenodd" clip-rule="evenodd" d="M33.5294 11.6244C33.5294 12.2346 33.0311 12.7329 32.4209 12.7329V11.7667H33.3871V11.7362C33.3871 11.7362 33.3972 11.6549 33.3972 11.6244C33.3972 11.5938 33.3972 11.543 33.3972 11.5125V11.482H32.5734V10.6582H32.5429C32.5429 10.6582 32.4616 10.648 32.4209 10.648V8.64453H32.8786C32.665 8.9598 32.6345 9.0615 32.6345 9.47847V9.50898H32.665C33.0413 9.50898 33.143 9.45813 33.4176 9.27507V10.1802C33.143 9.98698 33.0311 9.94629 32.665 9.94629H32.6345V10.5565H32.665C33.1735 10.6785 33.5396 11.126 33.5396 11.6447L33.5294 11.6244Z" fill="#E7B117"/>
<path fill-rule="evenodd" clip-rule="evenodd" d="M33.8854 12.692L33.3362 17.4516C33.0616 17.3296 32.7362 17.2685 32.4209 17.2685V13.0073C32.8277 13.0073 33.204 12.8344 33.4684 12.5293L33.8956 12.7022L33.8854 12.692Z" fill="#E7B117"/>
<path fill-rule="evenodd" clip-rule="evenodd" d="M34.5572 12.5901C34.5572 12.702 34.4657 12.7935 34.3538 12.7935C34.2419 12.7935 34.1504 12.702 34.1504 12.5901C34.1504 12.4782 34.2419 12.3867 34.3538 12.3867C34.4657 12.3867 34.5572 12.4782 34.5572 12.5901Z" fill="#E7B117"/>
<path fill-rule="evenodd" clip-rule="evenodd" d="M35.2995 12.3558C35.2995 12.4982 35.1876 12.6101 35.0453 12.6101C34.9029 12.6101 34.791 12.4982 34.791 12.3558C34.791 12.2134 34.9029 12.1016 35.0453 12.1016C35.1876 12.1016 35.2995 12.2134 35.2995 12.3558Z" fill="#E7B117"/>
<path fill-rule="evenodd" clip-rule="evenodd" d="M36.1641 12.2344C36.1641 12.3971 36.0319 12.5293 35.8692 12.5293C35.7064 12.5293 35.5742 12.3971 35.5742 12.2344C35.5742 12.0717 35.7064 11.9395 35.8692 11.9395C36.0319 11.9395 36.1641 12.0717 36.1641 12.2344Z" fill="#E7B117"/>
<path fill-rule="evenodd" clip-rule="evenodd" d="M37.1601 12.3267C37.1601 12.5199 36.9974 12.6826 36.8042 12.6826C36.611 12.6826 36.4482 12.5199 36.4482 12.3267C36.4482 12.1334 36.611 11.9707 36.8042 11.9707C36.9974 11.9707 37.1601 12.1334 37.1601 12.3267Z" fill="#E7B117"/>
<path fill-rule="evenodd" clip-rule="evenodd" d="M37.1713 18.2963C37.1509 18.4692 36.9781 18.5912 36.8153 18.6116H36.8052C36.7238 18.5709 36.6323 18.4997 36.6323 18.398C36.6323 18.1946 36.9475 18.1132 37.1001 18.1031H37.1204L37.1306 18.1132C37.1713 18.1641 37.1916 18.2353 37.1815 18.2963H37.1713ZM35.3 18.6014C35.1881 18.6624 35.0457 18.6828 34.9237 18.6828C34.8017 18.6828 34.6593 18.6624 34.5474 18.6014C34.4661 18.5607 34.3745 18.4895 34.3745 18.3878C34.3745 18.2861 34.4559 18.2149 34.5474 18.1743C34.6593 18.1132 34.8017 18.0929 34.9237 18.0929C35.0457 18.0929 35.1881 18.1132 35.3 18.1743C35.3814 18.2149 35.4729 18.2861 35.4729 18.3878C35.4729 18.4895 35.3915 18.5607 35.3 18.6014ZM37.6289 17.6657C37.5069 17.6149 37.3645 17.5844 37.2323 17.5742C37.2323 17.5742 37.212 17.5742 37.2018 17.5742C37.2018 17.5742 37.1814 17.5742 37.1713 17.5742C37.1713 17.5742 37.1509 17.5742 37.1408 17.5742C37.1408 17.5742 37.1204 17.5742 37.1103 17.5742C37.1103 17.5742 37.0899 17.5742 37.0797 17.5742C37.0797 17.5742 37.0594 17.5742 37.0492 17.5742C36.8052 17.5844 36.5712 17.6657 36.378 17.8081C36.2763 17.8895 36.195 17.981 36.1339 18.0827L36.1034 18.1234L36.0729 18.0827C35.9102 17.859 35.6763 17.7064 35.4119 17.6149C35.4017 17.6149 35.3814 17.6149 35.3712 17.6047C35.361 17.6047 35.3407 17.6047 35.3305 17.5946C35.3203 17.5946 35.3 17.5946 35.2898 17.5844C35.2797 17.5844 35.2593 17.5844 35.2491 17.5844C35.239 17.5844 35.2186 17.5844 35.2085 17.5844C35.1983 17.5844 35.178 17.5844 35.1678 17.5844C35.1576 17.5844 35.1373 17.5844 35.1271 17.5844C35.1169 17.5844 35.0966 17.5844 35.0864 17.5844C35.0763 17.5844 35.0559 17.5844 35.0457 17.5844C35.0356 17.5844 35.0152 17.5844 35.0051 17.5844C35.0051 17.5844 34.9746 17.5844 34.9644 17.5844C34.9644 17.5844 34.9339 17.5844 34.9237 17.5844C34.9237 17.5844 34.8932 17.5844 34.883 17.5844C34.8729 17.5844 34.8525 17.5844 34.8423 17.5844C34.8322 17.5844 34.8118 17.5844 34.8017 17.5844C34.8017 17.5844 34.7712 17.5844 34.761 17.5844C34.3745 17.6149 33.9982 17.798 33.7745 18.1234L33.744 18.1641L33.7135 18.1234C33.4694 17.7674 32.9812 17.6047 32.5744 17.5844C32.5541 17.5844 32.5439 17.5844 32.5236 17.5844C32.5236 17.5844 32.4931 17.5844 32.4727 17.5844C32.4727 17.5844 32.4422 17.5844 32.4219 17.5844V18.1437C32.5439 18.1437 32.6863 18.1641 32.7982 18.2251C32.8795 18.2658 32.9711 18.337 32.9711 18.4387C32.9711 18.5404 32.8897 18.6116 32.7982 18.6522C32.6863 18.7133 32.5439 18.7336 32.4219 18.7336V19.2624H36.5916C36.6323 19.0896 36.6933 18.9167 36.7746 18.7438V18.7234H36.8153C37.0086 18.6929 37.212 18.5505 37.2323 18.3471C37.2323 18.276 37.2221 18.1946 37.1815 18.1336V18.1132V18.0929C37.3035 17.9505 37.4459 17.8183 37.6086 17.7166L37.6289 17.6657Z" fill="#E7B117"/>
<path fill-rule="evenodd" clip-rule="evenodd" d="M37.8724 15.844C37.7402 16.3627 37.4961 16.861 37.191 17.3085C37.0181 17.3085 36.8351 17.3186 36.6723 17.3695C36.4588 17.4305 36.2554 17.5526 36.0927 17.7051C35.4621 17.1254 34.3536 17.0949 33.7332 17.7051C33.6823 17.6644 33.6417 17.6237 33.5908 17.5932L34.1095 13.1388C34.618 12.9252 35.157 12.7625 35.7164 12.7523C36.4079 12.7421 37.0588 12.9557 37.5063 13.5049C38.0351 14.1558 38.086 15.0609 37.8826 15.844H37.8724Z" fill="#E7B117"/>
<path fill-rule="evenodd" clip-rule="evenodd" d="M38.0258 17.1984C38.0054 17.3103 37.8936 17.3815 37.7817 17.351C37.6698 17.3306 37.5986 17.2188 37.6292 17.1069C37.6495 16.995 37.7614 16.9238 37.8732 16.9544C37.9851 16.9747 38.0563 17.0866 38.0258 17.1984Z" fill="#E7B117"/>
<path fill-rule="evenodd" clip-rule="evenodd" d="M38.1875 12.8349C38.1875 13.0689 38.0044 13.2519 37.7705 13.2519C37.5366 13.2519 37.3535 13.0689 37.3535 12.8349C37.3535 12.601 37.5366 12.418 37.7705 12.418C38.0044 12.418 38.1875 12.601 38.1875 12.8349Z" fill="#E7B117"/>
<path fill-rule="evenodd" clip-rule="evenodd" d="M38.4627 16.5771C38.4322 16.7195 38.2898 16.8008 38.1576 16.7703C38.0152 16.7398 37.9339 16.5974 37.9644 16.4652C37.9949 16.3229 38.1373 16.2415 38.2695 16.272C38.4119 16.3025 38.4932 16.4449 38.4627 16.5771Z" fill="#E7B117"/>
<path fill-rule="evenodd" clip-rule="evenodd" d="M38.8486 13.7705C38.8486 14.0044 38.6655 14.1875 38.4316 14.1875C38.1977 14.1875 38.0146 14.0044 38.0146 13.7705C38.0146 13.5366 38.1977 13.3535 38.4316 13.3535C38.6655 13.3535 38.8486 13.5366 38.8486 13.7705Z" fill="#E7B117"/>
<path fill-rule="evenodd" clip-rule="evenodd" d="M38.758 15.8047C38.7274 15.9573 38.5647 16.059 38.402 16.0285C38.2495 15.998 38.1478 15.8352 38.1783 15.6725C38.2088 15.52 38.3715 15.4183 38.5342 15.4488C38.6868 15.4793 38.7885 15.642 38.758 15.8047Z" fill="#E7B117"/>
<path fill-rule="evenodd" clip-rule="evenodd" d="M38.9404 14.8782C38.8998 15.0714 38.7065 15.1934 38.5133 15.1426C38.3201 15.1019 38.198 14.9087 38.2489 14.7154C38.2895 14.5222 38.4828 14.4002 38.676 14.451C38.8692 14.4917 38.9913 14.6849 38.9404 14.8782Z" fill="#E7B117"/>
</g>
<defs>
<clipPath id="clip0_1826_433">
<rect width="64" height="64" fill="white"/>
</clipPath>
</defs>
</svg>
