<svg width="72" height="72" viewBox="0 0 72 72" fill="none" xmlns="http://www.w3.org/2000/svg">
<path d="M6.18341 59.0594L21.4717 34.0424C24.9552 35.763 28.7272 36.8268 32.612 37.1788V72H38.391V48.7656C45.6916 48.2295 52.0871 45.8211 55.718 44.1669L64.8196 59.0608L69.752 56.0472L54.5329 31.143L54.5385 31.1402L39.2142 6.07666L35.5015 0L31.7888 6.07666L16.4645 31.1402L16.4701 31.143L1.25098 56.0458L6.18341 59.0594ZM38.391 15.8124L46.512 29.1015C43.9604 30.2993 41.2007 31.0478 38.391 31.3512V15.8124ZM24.491 29.1015L32.612 15.8124V31.3526C29.8022 31.0478 27.0426 30.2979 24.491 29.1015ZM38.391 42.9683V37.1788C42.2758 36.8247 46.0478 35.763 49.5313 34.0424L52.6768 39.19C49.5256 40.5628 44.2595 42.4611 38.391 42.9683Z" fill="#EEE2FA"/>
</svg>
