<svg width="72" height="72" viewBox="0 0 72 72" fill="none" xmlns="http://www.w3.org/2000/svg">
<g opacity="0.4" clip-path="url(#clip0)">
<path d="M36.3533 6.64856V0.70752C28.0299 0.70752 20.9125 6.65001 19.4244 14.8385L16.0513 33.3832H8.13333V39.3243H14.9715L11.7914 56.8073C10.8174 62.1689 6.15637 66.059 0.707031 66.059V72C9.03043 72 16.1478 66.0575 17.636 57.869L21.009 39.3243H27.4417V33.3832H22.0888L25.2689 15.9003C26.2429 10.5387 30.9039 6.64856 36.3533 6.64856Z" fill="#AA70E4"/>
<path d="M39.3238 18.5306L36.9472 16.748C36.7412 17.0229 31.8975 23.6283 31.8975 36.3538C31.8975 49.0793 36.7412 55.6846 36.9472 55.9595L41.6989 52.3943C41.6619 52.3443 37.8385 46.9493 37.8385 36.3538C37.8385 25.7611 41.6749 20.3488 41.7134 20.2937L39.3238 18.5306Z" fill="#AA70E4"/>
<path d="M62.1966 20.3133C62.2351 20.3633 66.0585 25.7582 66.0585 36.3538C66.0585 46.9464 62.222 52.3588 62.1836 52.4139L64.5732 54.1769L66.9498 55.9595C67.1579 55.6832 71.9995 49.0793 71.9995 36.3538C71.9995 23.6283 67.1557 17.0229 66.9498 16.748L62.1966 20.3133Z" fill="#AA70E4"/>
<path d="M54.7454 27.1794L51.2063 32.0464L47.6672 27.1794L42.8633 30.675L47.533 37.0962L42.8633 43.5173L47.6672 47.0129L51.2063 42.1459L54.7454 47.0129L59.5493 43.5173L54.8795 37.0962L59.5493 30.675L54.7454 27.1794Z" fill="#AA70E4"/>
</g>
<defs>
<clipPath id="clip0">
<rect width="71.2922" height="71.2925" fill="white" transform="translate(0.707031 0.70752)"/>
</clipPath>
</defs>
</svg>
