<svg width="72" height="72" viewBox="0 0 72 72" fill="none" xmlns="http://www.w3.org/2000/svg">
<g clip-path="url(#clip0)">
<path d="M21.6458 60.8621C21.2632 61.1839 21.2631 61.1838 21.263 61.1836L21.2627 61.1833L21.2618 61.1822L21.2591 61.179L21.2502 61.1682C21.2426 61.159 21.232 61.146 21.2185 61.1293C21.1915 61.0958 21.1531 61.0474 21.1055 60.9853C21.0103 60.8613 20.8779 60.6822 20.7254 60.4579C20.4214 60.0106 20.0334 59.3773 19.7032 58.6378C19.0534 57.183 18.5705 55.1843 19.5996 53.402C19.6174 53.371 19.6364 53.3418 19.6561 53.3143L18.4173 52.5991C17.5309 52.9818 16.8199 53.5541 16.3724 54.3293C15.805 55.3119 15.6186 56.5707 15.6902 57.954C15.7616 59.3325 16.0869 60.7896 16.4964 62.13C16.905 63.468 17.3925 64.6738 17.7784 65.546C17.9712 65.9816 18.1381 66.3329 18.2564 66.5743C18.2716 66.6052 18.2859 66.6344 18.2994 66.6616C18.3292 66.6599 18.3611 66.6579 18.3948 66.6558C18.6621 66.639 19.0483 66.61 19.5205 66.5615C20.4658 66.4643 21.7501 66.2891 23.1105 65.9779C24.4735 65.666 25.8963 65.2212 27.1269 64.5913C28.3612 63.9595 29.3635 63.1613 29.9401 62.1626C30.3877 61.3873 30.5287 60.4883 30.4199 59.5288L29.1773 58.8114C29.1633 58.8421 29.1475 58.8731 29.1296 58.9041C28.1006 60.6865 26.1282 61.2676 24.5434 61.4323C23.7378 61.5161 22.9955 61.4967 22.456 61.4571C22.1856 61.4372 21.9643 61.412 21.8092 61.3916C21.7317 61.3814 21.6706 61.3724 21.6281 61.3658C21.6069 61.3625 21.5902 61.3598 21.5785 61.3578L21.5647 61.3555L21.5606 61.3547L21.5592 61.3545L21.5588 61.3544C21.5586 61.3544 21.5584 61.3544 21.6458 60.8621ZM21.6458 60.8621L21.2632 61.1839L21.3799 61.3227L21.5584 61.3544L21.6458 60.8621ZM21.7219 28.1404L21.9845 28.1043L22.102 27.8667C22.1461 27.7776 22.1888 27.6901 22.2308 27.6041C22.3747 27.3092 22.5102 27.0317 22.6659 26.7619C28.6039 16.477 36.4557 11.1201 42.8172 8.33114C45.9999 6.93582 48.8106 6.183 50.8223 5.77928C51.8279 5.57745 52.6333 5.463 53.1847 5.39913C53.3929 5.37501 53.5649 5.35811 53.6978 5.34643C53.7541 5.46733 53.8255 5.62473 53.9087 5.81711C54.1291 6.32663 54.4327 7.08129 54.7607 8.05313C55.4169 9.99717 56.1703 12.8077 56.5533 16.2616C57.3187 23.1654 56.6054 32.6437 50.6674 42.9285C50.5116 43.1984 50.3389 43.4545 50.1554 43.7267C50.102 43.806 50.0477 43.8866 49.9925 43.9693L49.8456 44.1899L49.9456 44.4353C50.6273 46.1072 51.5571 48.6414 52.0789 51.1597C52.3398 52.4187 52.4955 53.6586 52.4725 54.776C52.4494 55.8974 52.247 56.8593 51.8244 57.5913C51.2544 58.5785 50.265 59.6936 49.0705 60.8242C47.8822 61.949 46.5169 63.0651 45.2205 64.0555C43.9251 65.0452 42.704 65.9051 41.8067 66.5177C41.4823 66.7391 41.2004 66.9281 40.9729 67.079L38.6645 53.7134L38.526 52.9115L37.8733 53.3974L33.1821 56.8897L19.3179 48.8852L19.9967 43.0764L20.0911 42.2681L19.3274 42.5491L6.59824 47.2328C6.61519 46.9603 6.63791 46.6217 6.6675 46.2301C6.74935 45.1466 6.88356 43.6592 7.09292 42.0425C7.30244 40.4246 7.58633 38.6842 7.96629 37.0926C8.34818 35.4929 8.81919 34.0785 9.38915 33.0913C9.81177 32.3593 10.5435 31.7031 11.5032 31.1223C12.4594 30.5438 13.611 30.0586 14.8318 29.655C17.2736 28.8478 19.9331 28.386 21.7219 28.1404ZM47.2443 28.6354C48.8652 25.8279 47.7972 22.2189 44.9167 20.5558C42.0361 18.8927 38.3767 19.7723 36.7557 22.5798C35.1348 25.3874 36.2028 28.9963 39.0833 30.6594C41.9639 32.3225 45.6233 31.4429 47.2443 28.6354Z" stroke="#05947C"/>
</g>
<defs>
<clipPath id="clip0">
<rect width="72" height="72" fill="white"/>
</clipPath>
</defs>
</svg>
