<svg width="72" height="72" viewBox="0 0 72 72" fill="none" xmlns="http://www.w3.org/2000/svg">
<path d="M36 0C16.1492 0 0 16.1506 0 36C0 55.8494 16.1492 72 36 72C55.8508 72 72 55.8494 72 36C72 16.1506 55.8508 0 36 0ZM36 6C48.342 6 58.9592 13.4956 63.5596 24.1692C57.0601 20.3489 47.2983 18 36 18C24.7017 18 14.9399 20.3489 8.44043 24.1692C13.0408 13.4956 23.658 6 36 6ZM36 48C18.8298 48 6 41.6638 6 36C6 30.3362 18.8298 24 36 24C53.1702 24 66 30.3362 66 36C66 41.6638 53.1702 48 36 48ZM36 66C23.658 66 13.0408 58.5044 8.44043 47.8308C14.9399 51.6511 24.7017 54 36 54C47.2983 54 57.0601 51.6511 63.5596 47.8308C58.9592 58.5044 48.342 66 36 66Z" fill="#DDC6F4"/>
</svg>
