<svg width="72" height="72" viewBox="0 0 72 72" fill="none" xmlns="http://www.w3.org/2000/svg">
<g clip-path="url(#clip0)">
<path d="M18.7261 71.492L18.7121 71.4917L18.6981 71.4922C18.598 71.4956 18.4985 71.4676 18.4133 71.4109L18.3952 71.3988L18.3761 71.3884C18.2586 71.324 18.1635 71.2212 18.107 71.0943C18.0505 70.9674 18.0363 70.8245 18.0671 70.6881L18.0672 70.6881L18.0688 70.6805L23.4822 44.9193L23.5571 44.5629L23.2434 44.3778L0.843178 31.1651L0.841354 31.164C0.721644 31.0941 0.62518 30.9867 0.567094 30.8558C0.508963 30.7248 0.492733 30.5779 0.521166 30.4365C0.549593 30.295 0.620881 30.1676 0.72335 30.0717C0.824833 29.9768 0.951829 29.9174 1.08624 29.9004L26.8652 27.1967L27.2325 27.1581L27.3088 26.7967L32.7455 1.03547L32.7455 1.03548L32.7466 1.02999C32.7743 0.89144 32.8444 0.766911 32.9453 0.673902C33.0457 0.581389 33.1712 0.524695 33.3034 0.510471C33.4408 0.497426 33.5792 0.527502 33.7003 0.597484C33.8206 0.667041 33.9186 0.773077 33.9798 0.902533L44.4772 24.9734L44.6257 25.314L44.9953 25.2752L70.7734 22.5716C70.7742 22.5715 70.7749 22.5714 70.7757 22.5713C70.911 22.5591 71.0472 22.5902 71.1653 22.6611C71.2843 22.7325 71.3796 22.8412 71.4362 22.9729C71.4928 23.1047 71.5073 23.2518 71.4771 23.393C71.447 23.534 71.3742 23.6605 71.2705 23.7551L71.2703 23.7553L51.9968 41.3564L51.7288 41.6012L51.8739 41.934L62.3739 66.0111L62.3764 66.0164C62.4341 66.1448 62.4501 66.2893 62.4213 66.4282C62.3925 66.567 62.321 66.6914 62.2188 66.7838L62.2153 66.787C62.1107 66.8834 61.9796 66.9423 61.8416 66.9565C61.7037 66.9708 61.5643 66.9399 61.4437 66.8675L61.4398 66.8652L39.0163 53.6762L38.6936 53.4864L38.417 53.7387L19.1435 71.3161L19.136 71.3229L19.1288 71.33C19.0748 71.3834 19.0113 71.425 18.9422 71.4526C18.8732 71.4802 18.7998 71.4936 18.7261 71.492Z" stroke="#05947C" stroke-width="1.015"/>
</g>
<defs>
<clipPath id="clip0">
<rect width="72" height="72" fill="white"/>
</clipPath>
</defs>
</svg>
