<svg width="72" height="72" viewBox="0 0 72 72" fill="none" xmlns="http://www.w3.org/2000/svg">
<path d="M26.9821 5.71627C27.493 4.40595 27.8305 3.2694 28.0525 2.36439C29.79 8.43484 33.0474 13.977 37.5326 18.4574C42.0881 23.0082 47.7375 26.2912 53.9217 28.0009C47.7431 29.7148 42.0998 32.9995 37.5496 37.5496C32.9986 42.1006 29.7136 47.745 28 53.925C26.2864 47.745 23.0014 42.1006 18.4504 37.5496C13.9777 33.0769 8.44868 29.827 2.39324 28.0898C5.69231 27.2953 11.9676 24.9984 18.4539 18.4505C23.1484 13.7114 25.6521 9.12722 26.9821 5.71627Z" stroke="#05947C"/>
<path d="M59.8369 50.5564C59.9106 50.3676 59.976 50.1869 60.0342 50.0151C60.8393 52.3037 62.1499 54.3913 63.8782 56.1178C65.6395 57.8772 67.7754 59.2025 70.1164 60.0008C67.7778 60.8006 65.6444 62.1263 63.8853 63.8854C62.1257 65.645 60.7997 67.7793 60 70.1187C59.2003 67.7793 57.8743 65.645 56.1147 63.8854C54.3928 62.1635 52.3123 60.8569 50.0319 60.0523C51.5761 59.5336 53.8192 58.4334 56.1171 56.1137C58.1598 54.0517 59.2537 52.0521 59.8369 50.5564Z" stroke="#05947C" stroke-width="1.015"/>
</svg>
