<svg xmlns="http://www.w3.org/2000/svg">

	<symbol id="phone" viewBox="0 0 18 18">

	  <path d="M1455.59,37.243l-2.78-2.787a1.443,1.443,0,0,0-2.04.039l-1.4,1.4c-0.09-.049-0.18-0.1-0.27-0.154a13.752,13.752,0,0,1-3.37-2.442,13.918,13.918,0,0,1-2.44-3.383q-0.075-.141-0.15-0.271l0.94-.941,0.46-.464a1.46,1.46,0,0,0,.04-2.049l-2.78-2.788a1.453,1.453,0,0,0-2.05.039l-0.78.79,0.02,0.021a4.512,4.512,0,0,0-.64,1.142,4.651,4.651,0,0,0-.29,1.158c-0.37,3.05,1.02,5.838,4.8,9.622,5.21,5.229,9.41,4.834,9.59,4.815a4.589,4.589,0,0,0,1.16-.292,4.522,4.522,0,0,0,1.14-.644l0.01,0.015,0.8-.779A1.452,1.452,0,0,0,1455.59,37.243Z" transform="translate(-1438 -23)"/>
	</symbol>

	<symbol id="more-arrow" viewBox="0 0 12 10">

	  <path d="M0.674,5.944l-0.019,0h8.03L6.161,8.478a0.667,0.667,0,0,0,0,.935L6.554,9.807a0.656,0.656,0,0,0,.928,0l4.327-4.341a0.665,0.665,0,0,0,0-.934L7.482,0.192a0.656,0.656,0,0,0-.928,0l-0.393.394a0.653,0.653,0,0,0-.191.465,0.634,0.634,0,0,0,.191.457L8.714,4.06H0.666A0.681,0.681,0,0,0,0,4.735V5.293A0.668,0.668,0,0,0,.674,5.944Z"/>
	</symbol>

	<symbol id="vk" viewBox="0 0 20 11">
	  <path d="M19.893,9.935a1.288,1.288,0,0,0-.068-0.125,10.091,10.091,0,0,0-1.989-2.219l-0.021-.02-0.01-.01-0.011-.01h-0.01q-0.666-.613-0.843-0.824A0.752,0.752,0,0,1,16.8,5.913,7.564,7.564,0,0,1,17.732,4.6q0.427-.532.677-0.853,1.8-2.31,1.562-2.952l-0.062-.1A0.617,0.617,0,0,0,19.586.527,1.693,1.693,0,0,0,18.92.5l-3,.02a0.4,0.4,0,0,0-.208.005l-0.135.03-0.052.025-0.041.03a0.453,0.453,0,0,0-.115.105,0.69,0.69,0,0,0-.1.176,16.118,16.118,0,0,1-1.114,2.259q-0.385.623-.708,1.08A5.221,5.221,0,0,1,12.9,4.9a3.753,3.753,0,0,1-.4.347,0.39,0.39,0,0,1-.271.11l-0.177-.04a0.676,0.676,0,0,1-.234-0.246,1.072,1.072,0,0,1-.12-0.392q-0.031-.236-0.037-0.407t0.005-.482c0.007-.208.011-0.348,0.011-0.422q0-.382.016-0.828t0.026-.708q0.01-.261.01-0.552A2.251,2.251,0,0,0,11.7.828,1.528,1.528,0,0,0,11.59.506,0.548,0.548,0,0,0,11.376.265,1.226,1.226,0,0,0,11.028.13,7.166,7.166,0,0,0,9.622,0,7.072,7.072,0,0,0,7.133.24a1.394,1.394,0,0,0-.4.3Q6.55,0.763,6.686.782a1.29,1.29,0,0,1,.885.432L7.633,1.335a1.874,1.874,0,0,1,.146.462,4.5,4.5,0,0,1,.094.733,7.534,7.534,0,0,1,0,1.255q-0.052.522-.1,0.813a1.586,1.586,0,0,1-.141.472,1.959,1.959,0,0,1-.125.221,0.174,0.174,0,0,1-.052.05,0.8,0.8,0,0,1-.281.051,0.674,0.674,0,0,1-.354-0.141,2.468,2.468,0,0,1-.432-0.387,5.161,5.161,0,0,1-.505-0.688A11.857,11.857,0,0,1,5.3,3.132L5.134,2.841Q4.978,2.56,4.707,2.022T4.229,0.983A0.666,0.666,0,0,0,3.979.662l-0.052-.03A0.73,0.73,0,0,0,3.76.546,1.137,1.137,0,0,0,3.521.481L0.668,0.5A0.742,0.742,0,0,0,.074.692l-0.042.06A0.315,0.315,0,0,0,0,.913a0.776,0.776,0,0,0,.063.271Q0.688,2.6,1.422,3.915T2.7,6.034q0.541,0.8,1.1,1.516T4.546,8.464q0.182,0.2.286,0.3l0.26,0.241a6.135,6.135,0,0,0,.734.578Q6.311,9.92,6.9,10.246a5.936,5.936,0,0,0,1.369.532,4.9,4.9,0,0,0,1.52.166h1.2a0.844,0.844,0,0,0,.552-0.221l0.041-.05a0.651,0.651,0,0,0,.078-0.185,0.989,0.989,0,0,0,.037-0.276,3.193,3.193,0,0,1,.067-0.778,1.993,1.993,0,0,1,.177-0.522,1.29,1.29,0,0,1,.224-0.3,0.882,0.882,0,0,1,.177-0.146,0.614,0.614,0,0,1,.083-0.035,0.677,0.677,0,0,1,.588.156,3.393,3.393,0,0,1,.635.582q0.3,0.347.713,0.778a4.864,4.864,0,0,0,.729.643l0.208,0.12a2.594,2.594,0,0,0,.542.221,1.207,1.207,0,0,0,.583.05l2.665-.04a1.246,1.246,0,0,0,.614-0.126,0.5,0.5,0,0,0,.26-0.276,0.75,0.75,0,0,0,.005-0.342A1.209,1.209,0,0,0,19.893,9.935Z"/>
	</symbol>


	<symbol id="inst" viewBox="0 0 15 15">
 
	  <path id="Forma_1" data-name="Forma 1" class="cls-1" d="M13.5,0H1.5A1.5,1.5,0,0,0,0,1.5v12A1.5,1.5,0,0,0,1.5,15h12A1.5,1.5,0,0,0,15,13.5V1.5A1.5,1.5,0,0,0,13.5,0Zm-6,4.5a3,3,0,1,1-3,3A3.009,3.009,0,0,1,7.5,4.5Zm-5.625,9A0.354,0.354,0,0,1,1.5,13.125V6.75H3.075A2.552,2.552,0,0,0,3,7.5a4.5,4.5,0,0,0,9,0,2.547,2.547,0,0,0-.075-0.75H13.5v6.375a0.354,0.354,0,0,1-.375.375H1.875ZM13.5,3.375a0.354,0.354,0,0,1-.375.375h-1.5a0.354,0.354,0,0,1-.375-0.375v-1.5A0.354,0.354,0,0,1,11.625,1.5h1.5a0.354,0.354,0,0,1,.375.375v1.5Z"/>
	</symbol>

	<symbol id="facebook" viewBox="0 0 8 15">

	  <path id="Forma_1" data-name="Forma 1" class="cls-1" d="M7.7,0L5.78,0A3.394,3.394,0,0,0,2.231,3.691v1.7H0.3A0.3,0.3,0,0,0,0,5.7V8.165a0.3,0.3,0,0,0,.3.306H2.231v6.223a0.3,0.3,0,0,0,.3.306H5.05a0.3,0.3,0,0,0,.3-0.306V8.471H7.607a0.3,0.3,0,0,0,.3-0.306V5.7a0.308,0.308,0,0,0-.088-0.216,0.3,0.3,0,0,0-.213-0.09H5.352V3.95A0.864,0.864,0,0,1,6.406,2.9H7.7A0.3,0.3,0,0,0,8,2.6V0.309A0.3,0.3,0,0,0,7.7,0Z"/>
	</symbol>

	<symbol id="ok" viewBox="0 0 357.75 511.875">
	  <path id="Forma_1" data-name="Forma 1" class="cls-1" d="M179,0C108.488,0,51.145,57.393,51.145,127.966S108.488,255.932,179,255.932s127.854-57.393,127.854-127.966S249.512,0,179,0Zm0,191.949a63.983,63.983,0,1,1,63.927-63.983A64.02,64.02,0,0,1,179,191.949Zm169.535,60.432a31.91,31.91,0,0,0-45.2,0c-68.53,68.59-180.083,68.59-248.645,0A31.984,31.984,0,0,0,9.5,297.649a238.179,238.179,0,0,0,142.143,68.4L60.51,457.255a31.973,31.973,0,1,0,45.2,45.237L179,429.135l73.292,73.357a31.973,31.973,0,1,0,45.2-45.237l-91.128-91.208a238.178,238.178,0,0,0,142.142-68.4A32.043,32.043,0,0,0,348.535,252.381Z" transform="translate(-0.125)"/>
	</symbol>

	<symbol id="qualified" viewBox="0 0 38 28">
	  <path d="M37.021,8.052L19.678,0.142a1.642,1.642,0,0,0-1.366,0L0.969,8.052A1.66,1.66,0,0,0,0,9.524,1.73,1.73,0,0,0,.975,11.04l1.5,0.731v5.861a1.033,1.033,0,1,0,2.065,0v-4.8l2.478,1.342v7.111a1.451,1.451,0,0,0,.228.793A14.169,14.169,0,0,0,18.768,28,13.806,13.806,0,0,0,30.33,22.044a1.472,1.472,0,0,0,.23-0.761V14.409l6.547-3.369A1.663,1.663,0,0,0,37.021,8.052ZM27.669,20.828a11.163,11.163,0,0,1-8.88,4.265,11.338,11.338,0,0,1-8.88-4.282V15.656l8.342,4.284a1.632,1.632,0,0,0,.748.182,1.709,1.709,0,0,0,.767-0.182l7.9-4.048v4.936ZM19,16.6L5.455,9.651,19,3.475l13.54,6.176ZM4.526,20.065a1.668,1.668,0,0,1,0,2.348,1.649,1.649,0,0,1-2.337,0,1.668,1.668,0,0,1,0-2.348A1.649,1.649,0,0,1,4.526,20.065Z"/>
	</symbol>

	<symbol id="geography" viewBox="0 0 37 37">
	  <path d="M18.5,0A18.5,18.5,0,1,0,37,18.5,18.521,18.521,0,0,0,18.5,0Zm1.477,33.71c-0.09.009-.271,0.014-0.271,0.021V25.018c2.011-.021,4-0.1,5.7-0.2A23.1,23.1,0,0,1,19.977,33.71Zm-2.954,0a23.1,23.1,0,0,1-5.428-8.9c1.707,0.109,3.687.188,5.7,0.21V33.73C17.293,33.723,17.112,33.718,17.023,33.71ZM3.217,18.5a15.294,15.294,0,0,1,.3-2.993c0.881-.153,2.577-0.416,4.963-0.649a22.058,22.058,0,0,0-.3,3.642,22.935,22.935,0,0,0,.29,3.63C6.11,21.9,4.4,21.639,3.513,21.489A15.3,15.3,0,0,1,3.217,18.5Zm7.368,0a19.35,19.35,0,0,1,.393-3.852c1.84-.13,3.9-0.227,6.316-0.252V22.6c-2.413-.027-4.475-0.128-6.335-0.262A20.125,20.125,0,0,1,10.585,18.5ZM19.959,3.289a24.272,24.272,0,0,1,5.412,8.9c-1.7-.108-3.654-0.185-5.665-0.208V3.269C19.706,3.276,19.875,3.281,19.959,3.289Zm-2.666-.019v8.713c-2.011.021-3.972,0.1-5.657,0.2a24.463,24.463,0,0,1,5.407-8.894C17.126,3.28,17.293,3.276,17.293,3.269ZM19.706,22.6V14.4c2.413,0.026,4.464.127,6.32,0.261a19.467,19.467,0,0,1,.389,3.843,20.124,20.124,0,0,1-.375,3.851C24.2,22.482,22.119,22.579,19.706,22.6Zm8.819-7.735c2.359,0.232,4.07.492,4.962,0.642a15.264,15.264,0,0,1,0,5.982c-0.879.153-2.572,0.415-4.95,0.648a22.932,22.932,0,0,0,.292-3.642A22.056,22.056,0,0,0,28.525,14.87Zm4.208-1.923c-1.139-.169-2.754-0.378-4.767-0.558A25.739,25.739,0,0,0,23.888,4.2,15.361,15.361,0,0,1,32.733,12.946ZM13.111,4.2a25.735,25.735,0,0,0-4.075,8.175c-2.029.18-3.633,0.389-4.767,0.56A15.36,15.36,0,0,1,13.111,4.2ZM4.267,24.054C5.4,24.223,7,24.43,9,24.609a24.774,24.774,0,0,0,4.017,8.153A15.36,15.36,0,0,1,4.267,24.054Zm19.714,8.708a24.771,24.771,0,0,0,4.014-8.141c2.014-.179,3.607-0.386,4.734-0.557A15.361,15.361,0,0,1,23.981,32.762Z"/>
	</symbol>

	<symbol id="list" viewBox="0 0 34 35">

	  <path d="M442.279,711.557V695.819H418.816v29.362h10.793a1.41,1.41,0,0,1,0,2.819h-12.2A1.412,1.412,0,0,1,416,726.591V694.409A1.413,1.413,0,0,1,417.408,693h26.279a1.412,1.412,0,0,1,1.407,1.409v17.148A1.408,1.408,0,1,1,442.279,711.557Zm7.25,3.43a1.41,1.41,0,0,0-1.994.117l-7.72,8.6-3.871-3.735A1.412,1.412,0,0,0,434,722.01l4.928,4.745a1.383,1.383,0,0,0,.985.4h0.047a1.406,1.406,0,0,0,.985-0.469l8.682-9.678A1.419,1.419,0,0,0,449.529,714.987Zm-12.412-13.766h-12.67a1.41,1.41,0,0,0,0,2.819h12.67A1.41,1.41,0,0,0,437.117,701.221Zm1.408,9.162a1.413,1.413,0,0,0-1.408-1.41h-12.67a1.41,1.41,0,0,0,0,2.819h12.67A1.413,1.413,0,0,0,438.525,710.383Zm-14.078,6.107a1.41,1.41,0,0,0,0,2.819H428.2a1.41,1.41,0,0,0,0-2.819h-3.754Z" transform="translate(-416 -693)"/>
	</symbol>

	<symbol id="visa" viewBox="0 0 34 40">
	  <path d="M29.938,0.01V0H0V40H29.938V39.916a4.24,4.24,0,0,0,3.992-4.194L34,4.21A4.242,4.242,0,0,0,29.938.01ZM27.371,37.474H2.566V2.526H27.371V37.474Zm3.992-1.754a1.691,1.691,0,0,1-1.426,1.656V2.547a1.69,1.69,0,0,1,1.5,1.66ZM10.8,28.316h8.233v2.526H10.8V28.316Zm0,3.79h8.233v2.526H10.8V32.106Zm4.17-6.538A10.347,10.347,0,0,0,25.383,15.314,10.341,10.341,0,0,0,15.21,5.066c-0.038,0-.075-0.006-0.114-0.006l-0.041,0-0.087,0A10.347,10.347,0,0,0,4.553,15.314,10.347,10.347,0,0,0,14.968,25.567ZM15.1,23.029c-0.515-.148-1.756-2.3-1.974-6.452H17.07C16.853,20.729,15.611,22.882,15.1,23.029ZM22.7,14.051H19.641a19.271,19.271,0,0,0-1.025-5.573A7.748,7.748,0,0,1,22.7,14.051Zm-3.062,2.526H22.7a7.745,7.745,0,0,1-4.09,5.574A19.25,19.25,0,0,0,19.641,16.577ZM15.072,7.592H15.1c0.517,0.157,1.754,2.309,1.969,6.457H13.122C13.338,9.895,14.577,7.742,15.072,7.592Zm-3.442.738a19.01,19.01,0,0,0-1.078,5.72H7.234A7.754,7.754,0,0,1,11.631,8.331Zm-1.078,8.247A18.971,18.971,0,0,0,11.635,22.3a7.754,7.754,0,0,1-4.4-5.722h3.319Z"/>
	</symbol>

	<symbol id="free" viewBox="0 0 40 40">
	  <path d="M39.21,0.791C38.26-.161,36.618-0.255,34.46.52a11.494,11.494,0,0,0-3.785,2.172l-5.98,5.992L5.009,5.587,0,10.605l16.367,6.423-5.255,5.265-7.459.438L0.077,26.315l8.094,3.913L5.9,32.5l1.659,1.663,2.265-2.269L13.737,40l3.576-3.583,0.437-7.473,5.343-5.354,6.409,16.4,5.009-5.019L31.42,15.247l5.893-5.9A11.524,11.524,0,0,0,39.481,5.55C40.254,3.389,40.161,1.743,39.21.791ZM4.2,9.727L5.824,8.1l16.817,2.647-4.464,4.472ZM32.008,34.151l-1.628,1.632L24.9,21.776,29.367,17.3ZM37.272,4.757a9.556,9.556,0,0,1-1.618,2.923L15.459,27.914l-0.437,7.473L14.413,36l-2.828-5.864,2.04-2.044-1.659-1.663-2.037,2.04L4.073,25.636l0.608-.61,7.459-.438L32.334,4.355a9.532,9.532,0,0,1,2.918-1.622c1.42-.51,2.173-0.406,2.3-0.28S37.781,3.334,37.272,4.757Z"/>
	</symbol>

	<symbol id="ruble" viewBox="0 0 12 20">
	  <path d="M6.9,10.3A5.152,5.152,0,0,0,6.9,0H2.7A0.9,0.9,0,0,0,1.8.91h0V12.121H0.9a0.909,0.909,0,0,0,0,1.818H1.8v5.152a0.9,0.9,0,1,0,1.8,0V13.939H6.9a0.909,0.909,0,0,0,0-1.818H3.6V10.3H6.9Zm0-8.484H6.929A3.334,3.334,0,0,1,6.9,8.485H3.6V1.819H6.9Z"/>
	</symbol>

	<symbol id="date" viewBox="0 0 22 21">
	  <path d="M0.777,21H21.223A0.781,0.781,0,0,0,22,20.2V2.29a0.781,0.781,0,0,0-.777-0.8H17.376V0.8a0.777,0.777,0,1,0-1.554,0V1.487H6.31V0.8A0.777,0.777,0,1,0,4.756.8V1.487H0.777A0.781,0.781,0,0,0,0,2.29V20.217A0.789,0.789,0,0,0,.777,21ZM1.554,3.092h3.2V3.523a0.777,0.777,0,1,0,1.554,0V3.092h9.512V3.523a0.777,0.777,0,1,0,1.554,0V3.092h3.089V5.167H1.554V3.092Zm0,3.679H20.446V19.415H1.554V6.772ZM16.6,10.451H5.419a0.8,0.8,0,0,0,0,1.6H16.6A0.8,0.8,0,0,0,16.6,10.451Zm-5.59,3.875H5.419a0.8,0.8,0,0,0,0,1.6h5.59A0.8,0.8,0,0,0,11.009,14.326Z"/>
	</symbol>


	<symbol id="mail" viewBox="0 0 18 14">
	  <path d="M1022.73,800.315c0.23,0.159.91,0.631,2.06,1.417s2.02,1.391,2.63,1.815c0.07,0.046.21,0.147,0.43,0.3s0.39,0.282.54,0.378,0.32,0.2.52,0.323a2.962,2.962,0,0,0,.58.269,1.632,1.632,0,0,0,.5.089h0.02a1.632,1.632,0,0,0,.5-0.089,2.962,2.962,0,0,0,.58-0.269c0.2-.119.38-0.227,0.52-0.323s0.33-.222.54-0.378,0.36-.257.43-0.3c0.62-.425,2.18-1.5,4.7-3.232a4.788,4.788,0,0,0,1.23-1.224,2.593,2.593,0,0,0,.49-1.5,1.511,1.511,0,0,0-.48-1.124,1.555,1.555,0,0,0-1.13-.468h-14.78a1.426,1.426,0,0,0-1.19.517,1.985,1.985,0,0,0-.42,1.293,2.293,2.293,0,0,0,.55,1.358A4.939,4.939,0,0,0,1022.73,800.315Zm15.27,1.064q-3.3,2.208-5.01,3.431-0.57.419-.93,0.651a5.323,5.323,0,0,1-.95.478,2.889,2.889,0,0,1-1.1.243h-0.02a2.976,2.976,0,0,1-1.11-.243,5.545,5.545,0,0,1-.94-0.478q-0.36-.232-0.93-0.651c-0.91-.656-2.57-1.8-5-3.431a5.226,5.226,0,0,1-1.01-.865v7.9a1.541,1.541,0,0,0,.47,1.124,1.577,1.577,0,0,0,1.14.468h14.78a1.577,1.577,0,0,0,1.14-.468,1.541,1.541,0,0,0,.47-1.124v-7.9A5.648,5.648,0,0,1,1038,801.379Z" transform="translate(-1021 -796)"/>
	</symbol>

	<symbol id="place" viewBox="0 0 11 18">
	  <path d="M1030.5,903a5.562,5.562,0,0,0-5.5,5.625,5.742,5.742,0,0,0,.5,2.351l4.19,9.3a0.815,0.815,0,0,0,1.62,0l4.19-9.3a5.742,5.742,0,0,0,.5-2.351A5.562,5.562,0,0,0,1030.5,903Zm0,9a3.376,3.376,0,1,1,3.3-3.375A3.34,3.34,0,0,1,1030.5,912Z" transform="translate(-1025 -903)"/>
	</symbol>

	<symbol id="clock" viewBox="0 0 18 18">
	  <path class="cls-1" d="M1213,1283a9,9,0,1,0,9,9A9,9,0,0,0,1213,1283Zm3.89,10.71H1213a0.623,0.623,0,0,1-.62-0.62v-6.36a0.62,0.62,0,0,1,1.24,0v5.74h3.27A0.62,0.62,0,1,1,1216.89,1293.71Z" transform="translate(-1204 -1283)"/>
	</symbol>

	<symbol id="one" viewBox="0 0 38 38">
	  <path d="M36.61,0H1.39A1.39,1.39,0,0,0,0,1.39V36.61A1.39,1.39,0,0,0,1.39,38H36.61A1.39,1.39,0,0,0,38,36.61V1.39A1.39,1.39,0,0,0,36.61,0ZM35.22,35.22H2.78V2.78H35.219V35.22h0ZM15.557,10.639c-3.076,0-5.46,1.426-5.46,5.26V21.8c0,3.833,2.385,5.26,5.46,5.26s5.483-1.426,5.483-5.26V15.9C21.039,12.065,18.632,10.639,15.557,10.639ZM17.563,21.8c0,1.538-.758,2.229-2.006,2.229s-1.983-.691-1.983-2.229V15.9c0-1.538.736-2.229,1.983-2.229s2.006,0.691,2.006,2.229V21.8ZM25.452,10.75L22.51,12.533a1.331,1.331,0,0,0-.646,1.181A1.278,1.278,0,0,0,22.956,15.1a1.013,1.013,0,0,0,.557-0.178l0.646-.4V25.861c0,0.713.869,1.07,1.738,1.07s1.738-.357,1.738-1.07V11.686C27.636,10.776,26.116,10.335,25.452,10.75Z"/>
	</symbol>


	<symbol id="few" viewBox="0 0 40 35">
	  <path d="M27.608,2.273V0H24.784V2.273H15.216V0H12.392V2.273H0V35H40V2.273H27.608ZM12.392,5V7.273h2.823V5h9.569V6.818h2.823V5h9.569V9.545H2.824V5h9.569ZM2.824,32.273v-20H37.177v20H2.824Zm6.353-8.182h4.706v4.545H9.176V24.091Zm8.471,0h4.706v4.545H17.647V24.091Zm8.471,0h4.706v4.545H26.118V24.091Zm-8.471-8.182h4.706v4.545H17.647V15.909Zm8.471,0h4.706v4.545H26.118V15.909Zm-16.941,0h4.706v4.545H9.176V15.909Z"/>
	</symbol>






</svg>