<?xml version="1.0" encoding="utf-8"?><svg xmlns="http://www.w3.org/2000/svg" xmlns:xlink="http://www.w3.org/1999/xlink"><symbol viewBox="0 0 20 20" id="icon-arrow"><path d="M12.95 9.408L8.233 4.7A.833.833 0 107.05 5.875l4.125 4.167-4.125 4.125a.833.833 0 00.27 1.359c.102.043.211.065.322.066a.834.834 0 00.591-.25l4.717-4.709a.833.833 0 000-1.225z"/></symbol><symbol viewBox="0 0 13 12" id="icon-clock"><path d="M6.164 1c-.996 0-1.968.293-2.796.843a5.007 5.007 0 00-1.853 2.244 4.971 4.971 0 001.09 5.449 5.06 5.06 0 005.483 1.084 5.024 5.024 0 002.259-1.842 4.978 4.978 0 00-.626-6.314A5.034 5.034 0 006.164 1zm0 9a4.043 4.043 0 01-2.237-.674A4.006 4.006 0 012.445 7.53a3.977 3.977 0 01.872-4.36 4.049 4.049 0 014.387-.867A4.02 4.02 0 019.51 3.778a3.982 3.982 0 01-.5 5.05A4.038 4.038 0 016.164 10zm1.56-3.685L6.666 5.71V3.5a.498.498 0 00-.503-.5.505.505 0 00-.504.5v2.56a.324.324 0 00.026.1c.01.03.023.058.04.085a.43.43 0 00.05.08l.08.065.046.045 1.308.75a.506.506 0 00.252.065.505.505 0 00.49-.37.497.497 0 00-.239-.565h.01z"/></symbol><symbol viewBox="0 0 24 24" id="icon-close"><path d="M13.41 12l4.3-4.29a1.004 1.004 0 10-1.42-1.42L12 10.59l-4.29-4.3a1.004 1.004 0 00-1.42 1.42l4.3 4.29-4.3 4.29a1 1 0 000 1.42.998.998 0 001.42 0l4.29-4.3 4.29 4.3a.998.998 0 001.42 0 .997.997 0 00.219-1.095.998.998 0 00-.22-.325L13.41 12z"/></symbol><symbol viewBox="0 0 34 34" id="icon-eye"><path d="M31.053 16.433C28.191 9.79 22.808 5.666 17 5.666c-5.809 0-11.192 4.123-14.054 10.767a1.416 1.416 0 000 1.134C5.808 24.21 11.191 28.333 17 28.333c5.808 0 11.191-4.122 14.053-10.766a1.416 1.416 0 000-1.134zM17 25.5c-4.491 0-8.741-3.244-11.192-8.5 2.45-5.256 6.7-8.5 11.192-8.5 4.49 0 8.74 3.244 11.191 8.5-2.45 5.256-6.7 8.5-11.191 8.5zm0-14.167a5.666 5.666 0 100 11.333 5.666 5.666 0 000-11.333zm0 8.5a2.834 2.834 0 110-5.667 2.834 2.834 0 010 5.667z"/></symbol><symbol viewBox="0 0 13 12" id="icon-image"><path d="M9.686 1H2.642c-.4 0-.785.158-1.068.44a1.495 1.495 0 00-.442 1.06v7c0 .398.16.78.442 1.06.283.282.667.44 1.068.44h7.044c.082-.001.165-.01.246-.025l.151-.035H10.143l.187-.07.065-.035c.05-.03.106-.055.156-.09a1.9 1.9 0 00.191-.16l.035-.045c.05-.05.095-.103.136-.16l.046-.065c.035-.056.065-.114.09-.175a.507.507 0 00.035-.075c.025-.06.04-.125.06-.19V9.8c.03-.098.046-.198.051-.3v-7c0-.398-.16-.78-.442-1.06A1.514 1.514 0 009.686 1zm-7.044 9a.505.505 0 01-.504-.5V7.345l1.656-1.65a.503.503 0 01.714 0L8.835 10H2.642zm7.547-.5a.498.498 0 01-.036.18.499.499 0 01-.085.13L7.376 7.135l.443-.44a.504.504 0 01.714 0l1.656 1.65V9.5zm0-2.57L9.243 6a1.555 1.555 0 00-2.134 0l-.442.44L5.217 5a1.555 1.555 0 00-2.133 0l-.946.93V2.5a.498.498 0 01.504-.5h7.044a.505.505 0 01.503.5v4.43z"/></symbol><symbol viewBox="0 0 20 20" id="icon-inst"><path d="M10 0C7.284 0 6.944.017 5.878.061 4.813.11 4.088.276 3.452.524a4.912 4.912 0 00-1.774 1.154 4.893 4.893 0 00-1.151 1.77C.28 4.086.11 4.814.06 5.879.013 6.943 0 7.283 0 10s.013 3.056.061 4.122c.049 1.065.219 1.79.466 2.426a4.893 4.893 0 001.151 1.77 4.914 4.914 0 001.774 1.155c.636.247 1.361.417 2.426.466 1.066.048 1.406.058 4.122.058s3.056-.016 4.123-.058c1.064-.049 1.792-.219 2.428-.466a4.902 4.902 0 001.77-1.155 4.893 4.893 0 001.152-1.77c.247-.636.417-1.361.466-2.426.049-1.066.061-1.406.061-4.122s-.012-3.056-.061-4.123c-.049-1.064-.219-1.792-.466-2.428a4.893 4.893 0 00-1.151-1.77 4.9 4.9 0 00-1.77-1.155C15.914.276 15.186.11 14.121.06 13.056.013 12.716 0 10 0zm0 1.8c2.67 0 2.985.017 4.04.059.975.044 1.507.21 1.859.346.467.181.799.397 1.148.747.35.35.566.682.748 1.149.137.352.301.884.346 1.859.048 1.054.058 1.37.058 4.04s-.011 2.985-.058 4.04c-.045.975-.21 1.503-.346 1.856a3.102 3.102 0 01-.748 1.151c-.35.35-.681.566-1.148.747-.352.137-.884.3-1.86.344-1.053.048-1.369.058-4.039.058s-2.986-.016-4.04-.058c-.975-.044-1.503-.207-1.856-.344a3.105 3.105 0 01-1.151-.747 3.105 3.105 0 01-.748-1.151c-.137-.353-.298-.882-.343-1.857-.048-1.054-.058-1.37-.058-4.04s.011-2.985.058-4.04c.045-.974.206-1.506.343-1.858.182-.467.398-.799.748-1.149s.684-.566 1.151-.747c.353-.136.881-.302 1.856-.346C7.015 1.81 7.33 1.8 10 1.8zm5.338 1.66a1.201 1.201 0 10.001 2.403 1.201 1.201 0 000-2.402zM10 4.865a5.135 5.135 0 10.003 10.27A5.135 5.135 0 0010 4.863zm0 1.804a3.332 3.332 0 110 6.663 3.332 3.332 0 010-6.663z"/></symbol><symbol viewBox="0 0 15 9" id="icon-vk"><path fill-rule="evenodd" clip-rule="evenodd" d="M8.199 8.328s.27-.03.408-.175c.126-.134.122-.385.122-.385s-.017-1.175.539-1.349c.547-.17 1.25 1.137 1.997 1.64.564.38.992.296.992.296l1.995-.027s1.043-.063.548-.869c-.04-.065-.288-.595-1.482-1.684-1.252-1.139-1.084-.955.423-2.925.917-1.2 1.284-1.933 1.169-2.247-.109-.3-.784-.22-.784-.22l-2.245.014s-.167-.022-.29.05a.622.622 0 00-.199.237s-.355.928-.829 1.718c-1 1.666-1.4 1.755-1.563 1.651-.38-.241-.285-.969-.285-1.486 0-1.615.25-2.288-.486-2.463C7.985.046 7.805.008 7.181.002 6.38-.006 5.7.005 5.318.189c-.256.123-.453.396-.333.412.149.02.485.09.663.327.23.308.222.997.222.997s.132 1.902-.31 2.138c-.302.162-.716-.169-1.608-1.68C3.495 1.607 3.15.751 3.15.751s-.067-.16-.186-.246C2.821.402 2.62.37 2.62.37L.487.383S.167.392.049.53C-.056.649.04.902.04.902s1.67 3.836 3.562 5.77c1.734 1.772 3.703 1.656 3.703 1.656H8.2z"/></symbol><symbol viewBox="0 0 16 16" id="icon-whats"><path d="M11.617 9.765c.139.067.232.112.272.178.05.083.05.48-.116.942-.166.463-.96.886-1.343.942a2.74 2.74 0 01-1.254-.078c-.29-.091-.66-.213-1.135-.418C6.175 10.53 4.914 8.73 4.676 8.39L4.64 8.34l-.002-.002c-.105-.14-.811-1.077-.811-2.047 0-.913.45-1.39.658-1.611a5.05 5.05 0 00.039-.042.733.733 0 01.53-.248c.133 0 .266.002.382.007h.044c.116 0 .261 0 .404.34l.22.531c.17.415.36.874.393.94.05.1.083.215.017.347l-.028.057c-.05.101-.086.176-.171.274l-.102.122a3.286 3.286 0 01-.197.225c-.1.099-.203.206-.087.404.116.199.516.847 1.107 1.373.637.564 1.19.803 1.47.924.054.024.099.043.131.059.2.1.315.082.432-.05.116-.132.497-.578.63-.776.132-.199.265-.166.448-.1.182.067 1.16.546 1.36.645l.109.053z"/><path fill-rule="evenodd" clip-rule="evenodd" d="M8.034 15.863H8.03a7.99 7.99 0 01-3.807-.965L0 16l1.13-4.108A7.885 7.885 0 01.067 7.928C.069 3.557 3.642 0 8.033 0c2.132 0 4.132.827 5.636 2.325A7.861 7.861 0 0116 7.935c-.002 4.37-3.574 7.926-7.966 7.928zm-3.615-2.4l.242.142c1.017.6 2.182.918 3.37.919h.003c3.65 0 6.62-2.956 6.621-6.59 0-1.761-.687-3.417-1.937-4.662a6.593 6.593 0 00-4.682-1.933c-3.652 0-6.622 2.956-6.624 6.59a6.55 6.55 0 001.012 3.506l.158.25-.669 2.432 2.506-.655z"/></symbol></svg>