<svg width="19" height="18" viewBox="0 0 19 18" fill="none" xmlns="http://www.w3.org/2000/svg">
<path d="M14.2814 3.11625C13.6852 3.11625 13.2014 3.59944 13.2014 4.19588C13.2014 4.79213 13.6852 5.27588 14.2814 5.27588C14.8777 5.27588 15.3614 4.79213 15.3614 4.19588C15.3614 3.59963 14.8777 3.11625 14.2814 3.11625Z" fill="#71708F"/>
<path fill-rule="evenodd" clip-rule="evenodd" d="M4.85544 9C4.85544 6.44756 6.92487 4.37813 9.47731 4.37813C12.0297 4.37813 14.0984 6.44756 14.0984 9C14.0984 11.5524 12.0298 13.6209 9.47731 13.6209C6.92487 13.6209 4.85544 11.5524 4.85544 9ZM12.4773 9C12.4773 7.34306 11.1341 6 9.47731 6C7.82038 6 6.47731 7.34306 6.47731 9C6.47731 10.6568 7.82038 12 9.47731 12C11.1341 12 12.4773 10.6568 12.4773 9Z" fill="#71708F"/>
<path fill-rule="evenodd" clip-rule="evenodd" d="M5.76631 0.0543748C6.72631 0.0106874 7.03306 0 9.47731 0H9.4745C11.9195 0 12.2251 0.0106874 13.1851 0.0543748C14.1432 0.0982499 14.7976 0.249937 15.3714 0.4725C15.9639 0.702188 16.4645 1.00969 16.9651 1.51031C17.4658 2.01056 17.7732 2.51269 18.0039 3.10462C18.2251 3.67688 18.377 4.33087 18.422 5.289C18.4651 6.249 18.4764 6.55575 18.4764 9C18.4764 11.4442 18.4651 11.7502 18.422 12.7103C18.377 13.668 18.2251 14.3222 18.0039 14.8946C17.7732 15.4864 17.4658 15.9885 16.9651 16.4887C16.4651 16.9894 15.9637 17.2976 15.3719 17.5275C14.7993 17.7501 14.1446 17.9018 13.1864 17.9456C12.2264 17.9893 11.9206 18 9.47619 18C7.03213 18 6.72556 17.9893 5.76556 17.9456C4.80763 17.9018 4.15344 17.7501 3.58081 17.5275C2.98925 17.2976 2.48713 16.9894 1.98706 16.4887C1.48663 15.9885 1.17913 15.4864 0.949062 14.8944C0.726688 14.3222 0.575 13.6682 0.530937 12.7101C0.487438 11.7501 0.476562 11.4442 0.476562 9C0.476562 6.55575 0.487813 6.24881 0.53075 5.28881C0.573875 4.33106 0.72575 3.67688 0.948875 3.10444C1.1795 2.51269 1.487 2.01056 1.98763 1.51031C2.48788 1.00988 2.99 0.702375 3.58194 0.4725C4.15419 0.249937 4.80819 0.0982499 5.76631 0.0543748ZM8.66994 1.62188C8.82671 1.62163 8.99535 1.62171 9.17735 1.62179L9.47731 1.62188C11.8803 1.62188 12.1651 1.6305 13.1141 1.67363C13.9916 1.71375 14.4678 1.86038 14.7851 1.98356C15.2051 2.14669 15.5045 2.34169 15.8193 2.65669C16.1343 2.97169 16.3293 3.27169 16.4928 3.69169C16.616 4.00856 16.7628 4.48481 16.8027 5.36231C16.8459 6.31106 16.8552 6.59606 16.8552 8.99794C16.8552 11.3998 16.8459 11.6848 16.8027 12.6336C16.7626 13.5111 16.616 13.9873 16.4928 14.3042C16.3297 14.7242 16.1343 15.0233 15.8193 15.3381C15.5043 15.6531 15.2053 15.8481 14.7851 16.0112C14.4682 16.1349 13.9916 16.2812 13.1141 16.3213C12.1653 16.3644 11.8803 16.3738 9.47731 16.3738C7.07412 16.3738 6.78931 16.3644 5.84056 16.3213C4.96306 16.2808 4.48681 16.1342 4.16938 16.011C3.74938 15.8479 3.44938 15.6529 3.13438 15.3379C2.81938 15.0229 2.62438 14.7236 2.46088 14.3034C2.33769 13.9866 2.19088 13.5103 2.15094 12.6328C2.10781 11.6841 2.09919 11.3991 2.09919 8.99569C2.09919 6.59231 2.10781 6.30881 2.15094 5.36006C2.19106 4.48256 2.33769 4.00631 2.46088 3.68906C2.624 3.26906 2.81938 2.96906 3.13438 2.65406C3.44938 2.33906 3.74938 2.14406 4.16938 1.98056C4.48663 1.85681 4.96306 1.71056 5.84056 1.67025C6.67081 1.63275 6.99256 1.6215 8.66994 1.61963V1.62188Z" fill="#71708F"/>
</svg>
