<svg width="24" height="24" viewBox="0 0 24 24" fill="none" xmlns="http://www.w3.org/2000/svg">
<path fill-rule="evenodd" clip-rule="evenodd" d="M12.0574 10.2857V14.4H18.8957C18.6201 16.1657 16.8287 19.5771 12.0574 19.5771C7.94067 19.5771 4.58182 16.1829 4.58182 12C4.58182 7.81714 7.94067 4.42286 12.0574 4.42286C14.4 4.42286 15.9675 5.41714 16.8632 6.27429L20.1359 3.13714C18.0344 1.18286 15.3129 0 12.0574 0C5.39139 0 0 5.36571 0 12C0 18.6343 5.39139 24 12.0574 24C19.0163 24 23.6325 19.1314 23.6325 12.2743C23.6325 11.4857 23.5464 10.8857 23.4431 10.2857H12.0574Z" fill="white"/>
</svg>
