<svg xmlns="http://www.w3.org/2000/svg">
    <symbol id="icon-phone" viewBox="0 0 24 24" >
        <path d="M19.44 13C19.22 13 18.99 12.93 18.77 12.88C18.3245 12.7818 17.8866 12.6515 17.46 12.49C16.9961 12.3212 16.4861 12.33 16.0283 12.5146C15.5704 12.6992 15.1971 13.0466 14.98 13.49L14.76 13.94C13.786 13.3982 12.891 12.7252 12.1 11.94C11.3147 11.149 10.6418 10.254 10.1 9.27999L10.52 8.99999C10.9633 8.78291 11.3108 8.40952 11.4954 7.95168C11.68 7.49384 11.6888 6.9839 11.52 6.51999C11.3612 6.09241 11.2309 5.65479 11.13 5.20999C11.08 4.98999 11.04 4.75999 11.01 4.52999C10.8885 3.82561 10.5196 3.18773 9.9696 2.73123C9.4196 2.27473 8.72467 2.0296 8.00998 2.03999H5.00998C4.57901 2.03594 4.15223 2.1248 3.75869 2.30052C3.36515 2.47624 3.01409 2.73469 2.72941 3.05827C2.44473 3.38186 2.23311 3.76298 2.10897 4.1757C1.98482 4.58842 1.95106 5.02305 2.00998 5.44999C2.54272 9.63937 4.45601 13.5319 7.44763 16.5126C10.4393 19.4934 14.3387 21.3925 18.53 21.91H18.91C19.6474 21.9111 20.3594 21.6405 20.91 21.15C21.2263 20.867 21.4791 20.5202 21.6514 20.1323C21.8238 19.7444 21.9119 19.3244 21.91 18.9V15.9C21.8977 15.2054 21.6448 14.5365 21.1943 14.0077C20.7439 13.4788 20.1238 13.1226 19.44 13ZM19.94 19C19.9398 19.142 19.9094 19.2823 19.8508 19.4116C19.7921 19.5409 19.7066 19.6563 19.6 19.75C19.4886 19.847 19.358 19.9194 19.2167 19.9625C19.0754 20.0056 18.9266 20.0183 18.78 20C15.0349 19.5198 11.5562 17.8065 8.89269 15.1303C6.22917 12.4541 4.53239 8.96733 4.06998 5.21999C4.05406 5.07351 4.06801 4.92532 4.11098 4.78438C4.15395 4.64344 4.22505 4.51268 4.31998 4.39999C4.41369 4.29332 4.52904 4.20783 4.65836 4.14921C4.78767 4.09058 4.92799 4.06017 5.06998 4.05999H8.06998C8.30253 4.05482 8.5296 4.13087 8.71212 4.27506C8.89464 4.41925 9.02119 4.62256 9.06998 4.84999C9.10998 5.12332 9.15998 5.39332 9.21998 5.65999C9.3355 6.18713 9.48924 6.70517 9.67998 7.20999L8.27998 7.85999C8.16028 7.91491 8.0526 7.99294 7.96314 8.08959C7.87367 8.18623 7.80418 8.2996 7.75865 8.42318C7.71312 8.54677 7.69245 8.67812 7.69783 8.80971C7.7032 8.9413 7.73452 9.07054 7.78998 9.18999C9.22918 12.2727 11.7072 14.7508 14.79 16.19C15.0334 16.29 15.3065 16.29 15.55 16.19C15.6747 16.1454 15.7893 16.0764 15.8871 15.9872C15.985 15.8979 16.0641 15.7901 16.12 15.67L16.74 14.27C17.2569 14.4549 17.7846 14.6085 18.32 14.73C18.5866 14.79 18.8566 14.84 19.13 14.88C19.3574 14.9288 19.5607 15.0553 19.7049 15.2378C19.8491 15.4204 19.9252 15.6474 19.92 15.88L19.94 19Z" />
    </symbol>
    <symbol id="icon-cart" viewBox="0 0 24 24">
        <path d="M21 16H7C6.73478 16 6.48043 15.8946 6.29289 15.7071C6.10536 15.5196 6 15.2652 6 15C6 14.7348 6.10536 14.4804 6.29289 14.2929C6.48043 14.1054 6.73478 14 7 14H17.44C18.1087 14 18.7582 13.7767 19.2854 13.3654C19.8126 12.9542 20.1873 12.3786 20.35 11.73L22 5.24C22.0375 5.09241 22.0407 4.93821 22.0095 4.78917C21.9783 4.64013 21.9135 4.50018 21.82 4.38C21.7227 4.25673 21.5978 4.1581 21.4554 4.09208C21.3129 4.02606 21.1569 3.99452 21 4H6.76C6.55369 3.41645 6.17193 2.911 5.66707 2.55294C5.1622 2.19488 4.55894 2.00174 3.94 2H3C2.73478 2 2.48043 2.10536 2.29289 2.29289C2.10536 2.48043 2 2.73478 2 3C2 3.26522 2.10536 3.51957 2.29289 3.70711C2.48043 3.89464 2.73478 4 3 4H3.94C4.16843 3.99334 4.39226 4.06513 4.57421 4.20341C4.75615 4.34169 4.88525 4.53812 4.94 4.76L5 5.24L6.73 12C5.93435 12.0358 5.18551 12.3862 4.64822 12.9741C4.11093 13.5621 3.8292 14.3394 3.865 15.135C3.9008 15.9306 4.25121 16.6795 4.83914 17.2168C5.42707 17.7541 6.20435 18.0358 7 18H7.18C7.01554 18.4531 6.96269 18.9392 7.02593 19.4171C7.08917 19.895 7.26665 20.3506 7.54332 20.7454C7.81999 21.1401 8.18772 21.4624 8.61535 21.6849C9.04299 21.9074 9.51795 22.0235 10 22.0235C10.4821 22.0235 10.957 21.9074 11.3846 21.6849C11.8123 21.4624 12.18 21.1401 12.4567 20.7454C12.7334 20.3506 12.9108 19.895 12.9741 19.4171C13.0373 18.9392 12.9845 18.4531 12.82 18H15.18C15.0155 18.4531 14.9627 18.9392 15.0259 19.4171C15.0892 19.895 15.2666 20.3506 15.5433 20.7454C15.82 21.1401 16.1877 21.4624 16.6154 21.6849C17.043 21.9074 17.5179 22.0235 18 22.0235C18.4821 22.0235 18.957 21.9074 19.3846 21.6849C19.8123 21.4624 20.18 21.1401 20.4567 20.7454C20.7334 20.3506 20.9108 19.895 20.9741 19.4171C21.0373 18.9392 20.9845 18.4531 20.82 18H21C21.2652 18 21.5196 17.8946 21.7071 17.7071C21.8946 17.5196 22 17.2652 22 17C22 16.7348 21.8946 16.4804 21.7071 16.2929C21.5196 16.1054 21.2652 16 21 16ZM19.72 6L18.41 11.24C18.3552 11.4619 18.2262 11.6583 18.0442 11.7966C17.8623 11.9349 17.6384 12.0067 17.41 12H8.78L7.28 6H19.72ZM10 20C9.80222 20 9.60888 19.9414 9.44443 19.8315C9.27998 19.7216 9.15181 19.5654 9.07612 19.3827C9.00043 19.2 8.98063 18.9989 9.01921 18.8049C9.0578 18.6109 9.15304 18.4327 9.29289 18.2929C9.43275 18.153 9.61093 18.0578 9.80491 18.0192C9.99889 17.9806 10.2 18.0004 10.3827 18.0761C10.5654 18.1518 10.7216 18.28 10.8315 18.4444C10.9414 18.6089 11 18.8022 11 19C11 19.2652 10.8946 19.5196 10.7071 19.7071C10.5196 19.8946 10.2652 20 10 20ZM18 20C17.8022 20 17.6089 19.9414 17.4444 19.8315C17.28 19.7216 17.1518 19.5654 17.0761 19.3827C17.0004 19.2 16.9806 18.9989 17.0192 18.8049C17.0578 18.6109 17.153 18.4327 17.2929 18.2929C17.4327 18.153 17.6109 18.0578 17.8049 18.0192C17.9989 17.9806 18.2 18.0004 18.3827 18.0761C18.5654 18.1518 18.7216 18.28 18.8315 18.4444C18.9414 18.6089 19 18.8022 19 19C19 19.2652 18.8946 19.5196 18.7071 19.7071C18.5196 19.8946 18.2652 20 18 20Z" />
    </symbol>
    <symbol id="icon-user" viewBox="0 0 24 24" >
        <path d="M15.71 12.7099C16.6904 11.9385 17.406 10.8808 17.7572 9.68382C18.1085 8.48684 18.0779 7.21015 17.6698 6.03135C17.2617 4.85255 16.4963 3.83027 15.4801 3.10674C14.4639 2.3832 13.2474 1.99438 12 1.99438C10.7525 1.99438 9.53611 2.3832 8.51993 3.10674C7.50374 3.83027 6.73834 4.85255 6.33021 6.03135C5.92208 7.21015 5.89151 8.48684 6.24276 9.68382C6.59401 10.8808 7.3096 11.9385 8.29 12.7099C6.61007 13.3829 5.14428 14.4992 4.04889 15.9398C2.95349 17.3804 2.26956 19.0912 2.07 20.8899C2.05555 21.0212 2.06711 21.1541 2.10402 21.2809C2.14093 21.4078 2.20246 21.5261 2.28511 21.6292C2.45202 21.8374 2.69478 21.9707 2.96 21.9999C3.22521 22.0291 3.49116 21.9517 3.69932 21.7848C3.90749 21.6179 4.04082 21.3751 4.07 21.1099C4.28958 19.1551 5.22168 17.3497 6.68822 16.0387C8.15475 14.7277 10.0529 14.0029 12.02 14.0029C13.9871 14.0029 15.8852 14.7277 17.3518 16.0387C18.8183 17.3497 19.7504 19.1551 19.97 21.1099C19.9972 21.3556 20.1144 21.5825 20.2991 21.7469C20.4838 21.9113 20.7228 22.0014 20.97 21.9999H21.08C21.3421 21.9697 21.5817 21.8372 21.7466 21.6311C21.9114 21.4251 21.9881 21.1622 21.96 20.8999C21.7595 19.0961 21.0719 17.3809 19.9708 15.9381C18.8698 14.4953 17.3969 13.3794 15.71 12.7099ZM12 11.9999C11.2089 11.9999 10.4355 11.7653 9.77772 11.3258C9.11992 10.8862 8.60723 10.2615 8.30448 9.53061C8.00173 8.79971 7.92251 7.99544 8.07686 7.21952C8.2312 6.4436 8.61216 5.73086 9.17157 5.17145C9.73098 4.61204 10.4437 4.23108 11.2196 4.07674C11.9956 3.9224 12.7998 4.00161 13.5307 4.30436C14.2616 4.60711 14.8863 5.1198 15.3259 5.7776C15.7654 6.4354 16 7.20876 16 7.99988C16 9.06075 15.5786 10.0782 14.8284 10.8283C14.0783 11.5785 13.0609 11.9999 12 11.9999Z" />
    </symbol>
    <symbol id="icon-menu" viewBox="0 0 24 24">
        <path d="M3 8H21C21.2652 8 21.5196 7.89464 21.7071 7.70711C21.8946 7.51957 22 7.26522 22 7C22 6.73478 21.8946 6.48043 21.7071 6.29289C21.5196 6.10536 21.2652 6 21 6H3C2.73478 6 2.48043 6.10536 2.29289 6.29289C2.10536 6.48043 2 6.73478 2 7C2 7.26522 2.10536 7.51957 2.29289 7.70711C2.48043 7.89464 2.73478 8 3 8ZM21 16H3C2.73478 16 2.48043 16.1054 2.29289 16.2929C2.10536 16.4804 2 16.7348 2 17C2 17.2652 2.10536 17.5196 2.29289 17.7071C2.48043 17.8946 2.73478 18 3 18H21C21.2652 18 21.5196 17.8946 21.7071 17.7071C21.8946 17.5196 22 17.2652 22 17C22 16.7348 21.8946 16.4804 21.7071 16.2929C21.5196 16.1054 21.2652 16 21 16ZM21 11H3C2.73478 11 2.48043 11.1054 2.29289 11.2929C2.10536 11.4804 2 11.7348 2 12C2 12.2652 2.10536 12.5196 2.29289 12.7071C2.48043 12.8946 2.73478 13 3 13H21C21.2652 13 21.5196 12.8946 21.7071 12.7071C21.8946 12.5196 22 12.2652 22 12C22 11.7348 21.8946 11.4804 21.7071 11.2929C21.5196 11.1054 21.2652 11 21 11Z" />
    </symbol>
    <symbol id="icon-telegram" viewBox="0 0 19 16">
        <path fill-rule="evenodd" clip-rule="evenodd" d="M7.24674 14.1828C7.66056 14.1828 7.84339 13.9935 8.07437 13.769L10.2814 11.6229L7.52841 9.96284" />
        <path fill-rule="evenodd" clip-rule="evenodd" d="M7.52841 9.96284L14.1989 14.8917C14.9601 15.3117 15.5095 15.0942 15.6991 14.185L18.4144 1.38935C18.6924 0.27478 17.9896 -0.230737 17.2613 0.0998741L1.317 6.24794C0.22865 6.68447 0.234995 7.29167 1.11862 7.56222L5.21029 8.8393L14.683 2.8631C15.1301 2.59193 15.5406 2.73772 15.2037 3.03669" />
    </symbol>
    <symbol id="icon-instagram" viewBox="0 0 19 18" >
        <path d="M14.2814 3.11625C13.6852 3.11625 13.2014 3.59944 13.2014 4.19588C13.2014 4.79213 13.6852 5.27588 14.2814 5.27588C14.8777 5.27588 15.3614 4.79213 15.3614 4.19588C15.3614 3.59963 14.8777 3.11625 14.2814 3.11625Z" />
        <path fill-rule="evenodd" clip-rule="evenodd" d="M4.85544 9C4.85544 6.44756 6.92487 4.37813 9.47731 4.37813C12.0297 4.37813 14.0984 6.44756 14.0984 9C14.0984 11.5524 12.0298 13.6209 9.47731 13.6209C6.92487 13.6209 4.85544 11.5524 4.85544 9ZM12.4773 9C12.4773 7.34306 11.1341 6 9.47731 6C7.82038 6 6.47731 7.34306 6.47731 9C6.47731 10.6568 7.82038 12 9.47731 12C11.1341 12 12.4773 10.6568 12.4773 9Z" />
        <path fill-rule="evenodd" clip-rule="evenodd" d="M5.76631 0.0543748C6.72631 0.0106874 7.03306 0 9.47731 0H9.4745C11.9195 0 12.2251 0.0106874 13.1851 0.0543748C14.1432 0.0982499 14.7976 0.249937 15.3714 0.4725C15.9639 0.702188 16.4645 1.00969 16.9651 1.51031C17.4658 2.01056 17.7732 2.51269 18.0039 3.10462C18.2251 3.67688 18.377 4.33087 18.422 5.289C18.4651 6.249 18.4764 6.55575 18.4764 9C18.4764 11.4442 18.4651 11.7502 18.422 12.7103C18.377 13.668 18.2251 14.3222 18.0039 14.8946C17.7732 15.4864 17.4658 15.9885 16.9651 16.4887C16.4651 16.9894 15.9637 17.2976 15.3719 17.5275C14.7993 17.7501 14.1446 17.9018 13.1864 17.9456C12.2264 17.9893 11.9206 18 9.47619 18C7.03213 18 6.72556 17.9893 5.76556 17.9456C4.80763 17.9018 4.15344 17.7501 3.58081 17.5275C2.98925 17.2976 2.48713 16.9894 1.98706 16.4887C1.48663 15.9885 1.17913 15.4864 0.949062 14.8944C0.726688 14.3222 0.575 13.6682 0.530937 12.7101C0.487438 11.7501 0.476562 11.4442 0.476562 9C0.476562 6.55575 0.487813 6.24881 0.53075 5.28881C0.573875 4.33106 0.72575 3.67688 0.948875 3.10444C1.1795 2.51269 1.487 2.01056 1.98763 1.51031C2.48788 1.00988 2.99 0.702375 3.58194 0.4725C4.15419 0.249937 4.80819 0.0982499 5.76631 0.0543748ZM8.66994 1.62188C8.82671 1.62163 8.99535 1.62171 9.17735 1.62179L9.47731 1.62188C11.8803 1.62188 12.1651 1.6305 13.1141 1.67363C13.9916 1.71375 14.4678 1.86038 14.7851 1.98356C15.2051 2.14669 15.5045 2.34169 15.8193 2.65669C16.1343 2.97169 16.3293 3.27169 16.4928 3.69169C16.616 4.00856 16.7628 4.48481 16.8027 5.36231C16.8459 6.31106 16.8552 6.59606 16.8552 8.99794C16.8552 11.3998 16.8459 11.6848 16.8027 12.6336C16.7626 13.5111 16.616 13.9873 16.4928 14.3042C16.3297 14.7242 16.1343 15.0233 15.8193 15.3381C15.5043 15.6531 15.2053 15.8481 14.7851 16.0112C14.4682 16.1349 13.9916 16.2812 13.1141 16.3213C12.1653 16.3644 11.8803 16.3738 9.47731 16.3738C7.07412 16.3738 6.78931 16.3644 5.84056 16.3213C4.96306 16.2808 4.48681 16.1342 4.16938 16.011C3.74938 15.8479 3.44938 15.6529 3.13438 15.3379C2.81938 15.0229 2.62438 14.7236 2.46088 14.3034C2.33769 13.9866 2.19088 13.5103 2.15094 12.6328C2.10781 11.6841 2.09919 11.3991 2.09919 8.99569C2.09919 6.59231 2.10781 6.30881 2.15094 5.36006C2.19106 4.48256 2.33769 4.00631 2.46088 3.68906C2.624 3.26906 2.81938 2.96906 3.13438 2.65406C3.44938 2.33906 3.74938 2.14406 4.16938 1.98056C4.48663 1.85681 4.96306 1.71056 5.84056 1.67025C6.67081 1.63275 6.99256 1.6215 8.66994 1.61963V1.62188Z" />
    </symbol>
    <symbol id="icon-facebook" viewBox="0 0 9 18">
        <path fill-rule="evenodd" clip-rule="evenodd" d="M6.06139 18V8.99895H8.54607L8.87535 5.89713H6.06139L6.06561 4.34465C6.06561 3.53565 6.14247 3.10216 7.30443 3.10216H8.85776V0H6.37272C3.38779 0 2.33717 1.50471 2.33717 4.03517V5.89748H0.476562V8.9993H2.33717V18H6.06139Z" />
    </symbol>
    <symbol id="icon-vk" viewBox="0 0 19 11">
        <path fill-rule="evenodd" clip-rule="evenodd" d="M10.3593 10.0379C10.3593 10.0379 10.6842 10.0024 10.8506 9.82701C11.0029 9.66627 10.9976 9.36295 10.9976 9.36295C10.9976 9.36295 10.9773 7.94656 11.6473 7.73743C12.3076 7.53175 13.1554 9.10715 14.0551 9.71294C14.7348 10.171 15.2507 10.0707 15.2507 10.0707L17.655 10.0379C17.655 10.0379 18.9122 9.96182 18.3162 8.99135C18.2669 8.91184 17.9684 8.27322 16.529 6.96139C15.0209 5.58821 15.2234 5.81031 17.0388 3.43468C18.1445 1.98804 18.5865 1.10485 18.4482 0.727208C18.3171 0.365981 17.5036 0.461905 17.5036 0.461905L14.7973 0.478325C14.7973 0.478325 14.5966 0.451535 14.4478 0.538817C14.3025 0.624371 14.2083 0.823996 14.2083 0.823996C14.2083 0.823996 13.7805 1.94311 13.2091 2.89543C12.0039 4.90378 11.5223 5.01008 11.3251 4.88564C10.8664 4.59441 10.9809 3.71727 10.9809 3.09419C10.9809 1.1472 11.2819 0.335735 10.3954 0.12574C10.1014 0.0557413 9.88478 0.00993981 9.13206 0.0021622C8.16628 -0.00734376 7.34929 0.00561891 6.88621 0.227713C6.57807 0.375487 6.34037 0.705604 6.48563 0.724616C6.66435 0.747948 7.06933 0.831774 7.28414 1.11868C7.56146 1.48941 7.55178 2.32075 7.55178 2.32075C7.55178 2.32075 7.71112 4.61256 7.17937 4.89687C6.8149 5.09217 6.31484 4.69379 5.2399 2.87124C4.68966 1.93792 4.27412 0.906093 4.27412 0.906093C4.27412 0.906093 4.194 0.713381 4.0505 0.60968C3.87707 0.484374 3.63496 0.445486 3.63496 0.445486L1.06337 0.461905C1.06337 0.461905 0.676883 0.472275 0.535142 0.637334C0.409247 0.78338 0.525457 1.08671 0.525457 1.08671C0.525457 1.08671 2.53889 5.71093 4.81907 8.04162C6.90998 10.1779 9.28348 10.0379 9.28348 10.0379H10.3593Z" />
    </symbol>
    <symbol id="icon-ok" viewBox="0 0 15 24">
        <path fill-rule="evenodd" clip-rule="evenodd" d="M9.84074 6.19361C9.84074 4.77954 8.64915 3.62969 7.18424 3.62969C5.72047 3.62969 4.52773 4.77954 4.52773 6.19361C4.52773 7.60656 5.72047 8.75716 7.18424 8.75716C8.64915 8.75716 9.84074 7.60656 9.84074 6.19361ZM13.5998 6.19358C13.5998 9.60795 10.723 12.3853 7.18389 12.3853C3.64559 12.3853 0.767969 9.60795 0.767969 6.19358C0.767969 2.77811 3.64559 0 7.18389 0C10.723 0 13.5998 2.77811 13.5998 6.19358ZM13.5216 15.9503C12.3615 16.6536 11.1019 17.1524 9.79596 17.4396L13.3826 20.9021C14.1174 21.6099 14.1174 22.7594 13.3826 23.4679C12.6486 24.1764 11.459 24.1764 10.7257 23.4679L7.19934 20.0654L3.67602 23.4679C3.30864 23.8218 2.82724 23.9989 2.34584 23.9989C1.86522 23.9989 1.38459 23.8218 1.01721 23.4679C0.283213 22.7594 0.283213 21.6107 1.01644 20.9021L4.60349 17.4396C3.2975 17.1524 2.03797 16.6529 0.877855 15.9503C-9.68007e-05 15.416 -0.263828 14.2965 0.289355 13.4483C0.841002 12.599 2.00111 12.3433 2.8806 12.8776C5.50716 14.4725 8.89075 14.4729 11.5189 12.8776C12.3983 12.3433 13.5581 12.599 14.1109 13.4483C14.664 14.2958 14.3995 15.416 13.5216 15.9503Z" />
    </symbol>
    <symbol id="icon-google" viewBox="0 0 24 24" >
        <path fill-rule="evenodd" clip-rule="evenodd" d="M12.0574 10.2857V14.4H18.8957C18.6201 16.1657 16.8287 19.5771 12.0574 19.5771C7.94067 19.5771 4.58182 16.1829 4.58182 12C4.58182 7.81714 7.94067 4.42286 12.0574 4.42286C14.4 4.42286 15.9675 5.41714 16.8632 6.27429L20.1359 3.13714C18.0344 1.18286 15.3129 0 12.0574 0C5.39139 0 0 5.36571 0 12C0 18.6343 5.39139 24 12.0574 24C19.0163 24 23.6325 19.1314 23.6325 12.2743C23.6325 11.4857 23.5464 10.8857 23.4431 10.2857H12.0574Z" />
    </symbol>

    <symbol id="icon-mail" viewBox="0 0 24 24">
        <path d="M19 4H5C4.20435 4 3.44129 4.31607 2.87868 4.87868C2.31607 5.44129 2 6.20435 2 7V17C2 17.7956 2.31607 18.5587 2.87868 19.1213C3.44129 19.6839 4.20435 20 5 20H19C19.7957 20 20.5587 19.6839 21.1213 19.1213C21.6839 18.5587 22 17.7956 22 17V7C22 6.20435 21.6839 5.44129 21.1213 4.87868C20.5587 4.31607 19.7957 4 19 4ZM5 6H19C19.2652 6 19.5196 6.10536 19.7071 6.29289C19.8946 6.48043 20 6.73478 20 7L12 11.88L4 7C4 6.73478 4.10536 6.48043 4.29289 6.29289C4.48043 6.10536 4.73478 6 5 6ZM20 17C20 17.2652 19.8946 17.5196 19.7071 17.7071C19.5196 17.8946 19.2652 18 19 18H5C4.73478 18 4.48043 17.8946 4.29289 17.7071C4.10536 17.5196 4 17.2652 4 17V9.28L11.48 13.85C11.632 13.9378 11.8045 13.984 11.98 13.984C12.1555 13.984 12.328 13.9378 12.48 13.85L20 9.28V17Z" />
    </symbol>
    <symbol id="icon-bars" viewBox="0 0 24 24">
        <path d="M3 8H21C21.2652 8 21.5196 7.89464 21.7071 7.70711C21.8946 7.51957 22 7.26522 22 7C22 6.73478 21.8946 6.48043 21.7071 6.29289C21.5196 6.10536 21.2652 6 21 6H3C2.73478 6 2.48043 6.10536 2.29289 6.29289C2.10536 6.48043 2 6.73478 2 7C2 7.26522 2.10536 7.51957 2.29289 7.70711C2.48043 7.89464 2.73478 8 3 8ZM21 16H3C2.73478 16 2.48043 16.1054 2.29289 16.2929C2.10536 16.4804 2 16.7348 2 17C2 17.2652 2.10536 17.5196 2.29289 17.7071C2.48043 17.8946 2.73478 18 3 18H21C21.2652 18 21.5196 17.8946 21.7071 17.7071C21.8946 17.5196 22 17.2652 22 17C22 16.7348 21.8946 16.4804 21.7071 16.2929C21.5196 16.1054 21.2652 16 21 16ZM21 11H3C2.73478 11 2.48043 11.1054 2.29289 11.2929C2.10536 11.4804 2 11.7348 2 12C2 12.2652 2.10536 12.5196 2.29289 12.7071C2.48043 12.8946 2.73478 13 3 13H21C21.2652 13 21.5196 12.8946 21.7071 12.7071C21.8946 12.5196 22 12.2652 22 12C22 11.7348 21.8946 11.4804 21.7071 11.2929C21.5196 11.1054 21.2652 11 21 11Z"/>
    </symbol>
    <symbol id="icon-arrow-down" viewBox="0 0 24 24">
        <path d="M16.9997 9.1697C16.8123 8.98345 16.5589 8.87891 16.2947 8.87891C16.0305 8.87891 15.7771 8.98345 15.5897 9.1697L11.9997 12.7097L8.4597 9.1697C8.27234 8.98345 8.01889 8.87891 7.7547 8.87891C7.49052 8.87891 7.23707 8.98345 7.0497 9.1697C6.95598 9.26266 6.88158 9.37326 6.83081 9.49512C6.78004 9.61698 6.75391 9.74769 6.75391 9.8797C6.75391 10.0117 6.78004 10.1424 6.83081 10.2643C6.88158 10.3861 6.95598 10.4967 7.0497 10.5897L11.2897 14.8297C11.3827 14.9234 11.4933 14.9978 11.6151 15.0486C11.737 15.0994 11.8677 15.1255 11.9997 15.1255C12.1317 15.1255 12.2624 15.0994 12.3843 15.0486C12.5061 14.9978 12.6167 14.9234 12.7097 14.8297L16.9997 10.5897C17.0934 10.4967 17.1678 10.3861 17.2186 10.2643C17.2694 10.1424 17.2955 10.0117 17.2955 9.8797C17.2955 9.74769 17.2694 9.61698 17.2186 9.49512C17.1678 9.37326 17.0934 9.26266 16.9997 9.1697Z" />
    </symbol>
    <symbol id="icon-terminal" viewBox="0 0 24 25">
        <path d="M11 12.399V17.499C11 17.7642 11.1054 18.0186 11.2929 18.2061C11.4804 18.3936 11.7348 18.499 12 18.499C12.2652 18.499 12.5196 18.3936 12.7071 18.2061C12.8946 18.0186 13 17.7642 13 17.499V12.399C14.214 12.1512 15.2928 11.4614 16.0272 10.4634C16.7616 9.46539 17.0992 8.23026 16.9747 6.99746C16.8501 5.76465 16.2723 4.62201 15.3532 3.79104C14.434 2.96008 13.2391 2.5 12 2.5C10.7609 2.5 9.56598 2.96008 8.64685 3.79104C7.72771 4.62201 7.14986 5.76465 7.02532 6.99746C6.90078 8.23026 7.23843 9.46539 7.9728 10.4634C8.70718 11.4614 9.78596 12.1512 11 12.399ZM12 4.49898C12.5933 4.49898 13.1734 4.67493 13.6667 5.00457C14.1601 5.33422 14.5446 5.80275 14.7716 6.35093C14.9987 6.89911 15.0581 7.50231 14.9424 8.08425C14.8266 8.66619 14.5409 9.20074 14.1213 9.6203C13.7018 10.0399 13.1672 10.3256 12.5853 10.4413C12.0033 10.5571 11.4001 10.4977 10.8519 10.2706C10.3038 10.0436 9.83524 9.65904 9.50559 9.16569C9.17595 8.67234 9 8.09232 9 7.49898C9 6.70333 9.31607 5.94027 9.87868 5.37766C10.4413 4.81505 11.2044 4.49898 12 4.49898ZM16.21 14.919C16.0787 14.8914 15.9432 14.89 15.8113 14.9147C15.6795 14.9395 15.5537 14.99 15.4414 15.0634C15.329 15.1367 15.2322 15.2315 15.1565 15.3423C15.0808 15.4531 15.0276 15.5777 15 15.709C14.9724 15.8403 14.971 15.9758 14.9958 16.1076C15.0205 16.2395 15.071 16.3652 15.1444 16.4776C15.2178 16.59 15.3125 16.6868 15.4233 16.7625C15.5341 16.8382 15.6587 16.8914 15.79 16.919C18.06 17.369 19 18.179 19 18.499C19 19.079 16.55 20.499 12 20.499C7.45 20.499 5 19.079 5 18.499C5 18.179 5.94 17.369 8.21 16.879C8.34132 16.8514 8.46593 16.7982 8.5767 16.7225C8.68747 16.6468 8.78224 16.55 8.8556 16.4376C8.92896 16.3252 8.97947 16.1995 9.00424 16.0676C9.02902 15.9358 9.02758 15.8003 9 15.669C8.97242 15.5377 8.91925 15.4131 8.84352 15.3023C8.76778 15.1915 8.67097 15.0967 8.55861 15.0234C8.44626 14.95 8.32055 14.8995 8.18867 14.8747C8.05679 14.85 7.92132 14.8514 7.79 14.879C4.75 15.579 3 16.889 3 18.499C3 21.129 7.53 22.499 12 22.499C16.47 22.499 21 21.129 21 18.499C21 16.889 19.25 15.579 16.21 14.919Z" />
    </symbol>
    <symbol id="icon-home" viewBox="0 0 24 24">
        <path d="M20.0001 8.00001L14.0001 2.74001C13.4501 2.24805 12.738 1.97607 12.0001 1.97607C11.2622 1.97607 10.5501 2.24805 10.0001 2.74001L4.00009 8.00001C3.68246 8.28408 3.42899 8.63256 3.25657 9.02225C3.08414 9.41194 2.99671 9.83389 3.00009 10.26V19C3.00009 19.7957 3.31617 20.5587 3.87877 21.1213C4.44138 21.6839 5.20445 22 6.00009 22H18.0001C18.7957 22 19.5588 21.6839 20.1214 21.1213C20.684 20.5587 21.0001 19.7957 21.0001 19V10.25C21.0021 9.82557 20.9139 9.40555 20.7416 9.01769C20.5692 8.62983 20.3165 8.28296 20.0001 8.00001ZM14.0001 20H10.0001V15C10.0001 14.7348 10.1055 14.4804 10.293 14.2929C10.4805 14.1054 10.7349 14 11.0001 14H13.0001C13.2653 14 13.5197 14.1054 13.7072 14.2929C13.8947 14.4804 14.0001 14.7348 14.0001 15V20ZM19.0001 19C19.0001 19.2652 18.8947 19.5196 18.7072 19.7071C18.5197 19.8946 18.2653 20 18.0001 20H16.0001V15C16.0001 14.2044 15.684 13.4413 15.1214 12.8787C14.5588 12.3161 13.7957 12 13.0001 12H11.0001C10.2044 12 9.44138 12.3161 8.87877 12.8787C8.31616 13.4413 8.00009 14.2044 8.00009 15V20H6.00009C5.73488 20 5.48052 19.8946 5.29299 19.7071C5.10545 19.5196 5.00009 19.2652 5.00009 19V10.25C5.00027 10.108 5.03069 9.9677 5.08931 9.83839C5.14794 9.70907 5.23343 9.59372 5.3401 9.50001L11.3401 4.25001C11.5226 4.08969 11.7572 4.00127 12.0001 4.00127C12.243 4.00127 12.4776 4.08969 12.6601 4.25001L18.6601 9.50001C18.7668 9.59372 18.8523 9.70907 18.9109 9.83839C18.9695 9.9677 18.9999 10.108 19.0001 10.25V19Z" />
    </symbol>
    <symbol id="icon-book" viewBox="0 0 24 24">
        <path d="M21.17 2.06C20.4532 1.93653 19.7274 1.87298 19 1.87C16.5184 1.86796 14.0885 2.57957 12 3.92C9.90617 2.59717 7.47667 1.90303 5.00002 1.92C4.27267 1.92298 3.54683 1.98653 2.83002 2.11C2.59523 2.15048 2.3826 2.27346 2.23044 2.45679C2.07827 2.64013 1.99656 2.87177 2.00002 3.11V15.11C1.99788 15.2569 2.02815 15.4025 2.08867 15.5364C2.1492 15.6703 2.23849 15.7893 2.3502 15.8847C2.4619 15.9802 2.59328 16.0499 2.73498 16.0888C2.87668 16.1278 3.02522 16.135 3.17002 16.11C4.60304 15.8619 6.07123 15.9031 7.48809 16.2311C8.90495 16.5591 10.2418 17.1674 11.42 18.02L11.54 18.09H11.65C11.7609 18.1362 11.8799 18.16 12 18.16C12.1202 18.16 12.2391 18.1362 12.35 18.09H12.46L12.58 18.02C13.75 17.1483 15.083 16.5203 16.5002 16.1734C17.9173 15.8264 19.3897 15.7674 20.83 16C20.9748 16.025 21.1234 16.0178 21.2651 15.9788C21.4068 15.9399 21.5381 15.8702 21.6498 15.7747C21.7616 15.6793 21.8508 15.5603 21.9114 15.4264C21.9719 15.2925 22.0022 15.1469 22 15V3C21.9896 2.77215 21.9016 2.55471 21.7507 2.38374C21.5997 2.21276 21.3948 2.09854 21.17 2.06ZM11 15.35C9.14991 14.3767 7.09054 13.8687 5.00002 13.87C4.67002 13.87 4.34002 13.87 4.00002 13.87V3.87C4.33308 3.8508 4.66697 3.8508 5.00002 3.87C7.13341 3.86764 9.22024 4.49369 11 5.67V15.35ZM20 13.91C19.66 13.91 19.33 13.91 19 13.91C16.9095 13.9087 14.8501 14.4167 13 15.39V5.67C14.7798 4.49369 16.8666 3.86764 19 3.87C19.3331 3.8508 19.667 3.8508 20 3.87V13.91ZM21.17 18.06C20.4532 17.9365 19.7274 17.873 19 17.87C16.5184 17.868 14.0885 18.5796 12 19.92C9.91154 18.5796 7.48166 17.868 5.00002 17.87C4.27267 17.873 3.54683 17.9365 2.83002 18.06C2.69985 18.0807 2.57505 18.1268 2.46279 18.1959C2.35053 18.265 2.25302 18.3555 2.17589 18.4624C2.09876 18.5693 2.04351 18.6903 2.01333 18.8186C1.98315 18.9469 1.97862 19.0799 2.00002 19.21C2.05084 19.4697 2.20251 19.6986 2.42181 19.8467C2.64111 19.9948 2.91016 20.0499 3.17002 20C4.60304 19.7519 6.07123 19.7931 7.48809 20.1211C8.90495 20.4491 10.2418 21.0574 11.42 21.91C11.5894 22.0306 11.7921 22.0954 12 22.0954C12.2079 22.0954 12.4107 22.0306 12.58 21.91C13.7582 21.0574 15.0951 20.4491 16.512 20.1211C17.9288 19.7931 19.397 19.7519 20.83 20C21.0899 20.0499 21.3589 19.9948 21.5782 19.8467C21.7975 19.6986 21.9492 19.4697 22 19.21C22.0214 19.0799 22.0169 18.9469 21.9867 18.8186C21.9565 18.6903 21.9013 18.5693 21.8242 18.4624C21.747 18.3555 21.6495 18.265 21.5373 18.1959C21.425 18.1268 21.3002 18.0807 21.17 18.06Z" />
    </symbol>
    <symbol id="icon-clock" viewBox="0 0 24 24">
        <path d="M15 11H13V7C13 6.73478 12.8946 6.48043 12.7071 6.29289C12.5196 6.10536 12.2652 6 12 6C11.7348 6 11.4804 6.10536 11.2929 6.29289C11.1054 6.48043 11 6.73478 11 7V12C11 12.2652 11.1054 12.5196 11.2929 12.7071C11.4804 12.8946 11.7348 13 12 13H15C15.2652 13 15.5196 12.8946 15.7071 12.7071C15.8946 12.5196 16 12.2652 16 12C16 11.7348 15.8946 11.4804 15.7071 11.2929C15.5196 11.1054 15.2652 11 15 11ZM12 2C10.0222 2 8.08879 2.58649 6.4443 3.6853C4.79981 4.78412 3.51809 6.3459 2.76121 8.17317C2.00433 10.0004 1.8063 12.0111 2.19215 13.9509C2.578 15.8907 3.53041 17.6725 4.92894 19.0711C6.32746 20.4696 8.10929 21.422 10.0491 21.8079C11.9889 22.1937 13.9996 21.9957 15.8268 21.2388C17.6541 20.4819 19.2159 19.2002 20.3147 17.5557C21.4135 15.9112 22 13.9778 22 12C22 10.6868 21.7413 9.38642 21.2388 8.17317C20.7363 6.95991 19.9997 5.85752 19.0711 4.92893C18.1425 4.00035 17.0401 3.26375 15.8268 2.7612C14.6136 2.25866 13.3132 2 12 2ZM12 20C10.4178 20 8.87104 19.5308 7.55544 18.6518C6.23985 17.7727 5.21447 16.5233 4.60897 15.0615C4.00347 13.5997 3.84504 11.9911 4.15372 10.4393C4.4624 8.88743 5.22433 7.46197 6.34315 6.34315C7.46197 5.22433 8.88743 4.4624 10.4393 4.15372C11.9911 3.84504 13.5997 4.00346 15.0615 4.60896C16.5233 5.21447 17.7727 6.23984 18.6518 7.55544C19.5308 8.87103 20 10.4177 20 12C20 14.1217 19.1572 16.1566 17.6569 17.6569C16.1566 19.1571 14.1217 20 12 20Z" />
    </symbol>

    <symbol  id="icon-book-2" viewBox="0 0 24 24">
        <path d="M15 6H9C8.73478 6 8.48043 6.10536 8.29289 6.29289C8.10536 6.48043 8 6.73478 8 7V11C8 11.2652 8.10536 11.5196 8.29289 11.7071C8.48043 11.8946 8.73478 12 9 12H15C15.2652 12 15.5196 11.8946 15.7071 11.7071C15.8946 11.5196 16 11.2652 16 11V7C16 6.73478 15.8946 6.48043 15.7071 6.29289C15.5196 6.10536 15.2652 6 15 6ZM14 10H10V8H14V10ZM17 2H5C4.73478 2 4.48043 2.10536 4.29289 2.29289C4.10536 2.48043 4 2.73478 4 3V21C4 21.2652 4.10536 21.5196 4.29289 21.7071C4.48043 21.8946 4.73478 22 5 22H17C17.7956 22 18.5587 21.6839 19.1213 21.1213C19.6839 20.5587 20 19.7956 20 19V5C20 4.20435 19.6839 3.44129 19.1213 2.87868C18.5587 2.31607 17.7956 2 17 2ZM18 19C18 19.2652 17.8946 19.5196 17.7071 19.7071C17.5196 19.8946 17.2652 20 17 20H6V4H17C17.2652 4 17.5196 4.10536 17.7071 4.29289C17.8946 4.48043 18 4.73478 18 5V19Z" />
    </symbol>
    <symbol id="icon-box" viewBox="0 0 24 24">
        <path d="M20.49 7.52002C20.4843 7.49366 20.4843 7.46638 20.49 7.44002C20.4852 7.41694 20.4852 7.3931 20.49 7.37002V7.28002L20.43 7.13002C20.4056 7.08909 20.3753 7.05202 20.34 7.02002L20.25 6.94002H20.2L16.26 4.45002L12.54 2.15002C12.4539 2.08175 12.3555 2.03081 12.25 2.00002H12.17C12.0806 1.9851 11.9894 1.9851 11.9 2.00002H11.8C11.6838 2.02571 11.5725 2.06959 11.47 2.13002L4.00001 6.78002L3.91001 6.85002L3.82001 6.93002L3.72001 7.00002L3.67001 7.06002L3.61001 7.21002V7.30002V7.36002C3.60029 7.42633 3.60029 7.49371 3.61001 7.56002V16.29C3.60967 16.46 3.65264 16.6272 3.73488 16.7759C3.81711 16.9246 3.93589 17.0499 4.08001 17.14L11.58 21.78L11.73 21.84H11.81C11.9792 21.8937 12.1608 21.8937 12.33 21.84H12.41L12.56 21.78L20 17.21C20.1441 17.1199 20.2629 16.9946 20.3451 16.8459C20.4274 16.6972 20.4703 16.53 20.47 16.36V7.63002C20.47 7.63002 20.49 7.56002 20.49 7.52002ZM12 4.17002L13.78 5.27002L8.19001 8.73002L6.40001 7.63002L12 4.17002ZM11 19.17L5.50001 15.81V9.42002L11 12.82V19.17ZM12 11.06L10.09 9.91002L15.68 6.44002L17.6 7.63002L12 11.06ZM18.5 15.78L13 19.2V12.82L18.5 9.42002V15.78Z" />
    </symbol>
    <symbol id="icon-money" viewBox="0 0 24 24">
        <path d="M10.46 6.00002L11 5.41002V9.00002C11 9.26523 11.1054 9.51959 11.2929 9.70713C11.4804 9.89466 11.7348 10 12 10C12.2652 10 12.5196 9.89466 12.7071 9.70713C12.8946 9.51959 13 9.26523 13 9.00002V5.41002L13.54 5.96002C13.6308 6.06254 13.7416 6.14533 13.8657 6.20325C13.9898 6.26117 14.1244 6.29299 14.2613 6.29675C14.3982 6.3005 14.5344 6.27609 14.6615 6.22505C14.7885 6.17401 14.9038 6.09742 15 6.00002C15.0937 5.90706 15.1681 5.79645 15.2189 5.6746C15.2697 5.55274 15.2958 5.42203 15.2958 5.29002C15.2958 5.15801 15.2697 5.0273 15.2189 4.90544C15.1681 4.78358 15.0937 4.67298 15 4.58002L12.71 2.29002C12.6149 2.19898 12.5028 2.12761 12.38 2.08002C12.1365 1.98 11.8635 1.98 11.62 2.08002C11.4972 2.12761 11.3851 2.19898 11.29 2.29002L9 4.54002C8.80639 4.73363 8.69762 4.99622 8.69762 5.27002C8.69762 5.54382 8.80639 5.80641 9 6.00002C9.19361 6.19363 9.4562 6.30239 9.73 6.30239C10.0038 6.30239 10.2664 6.19363 10.46 6.00002ZM12 12C11.4067 12 10.8266 12.176 10.3333 12.5056C9.83994 12.8353 9.45542 13.3038 9.22836 13.852C9.0013 14.4001 8.94189 15.0033 9.05764 15.5853C9.1734 16.1672 9.45912 16.7018 9.87868 17.1213C10.2982 17.5409 10.8328 17.8266 11.4147 17.9424C11.9967 18.0581 12.5999 17.9987 13.1481 17.7717C13.6962 17.5446 14.1648 17.1601 14.4944 16.6667C14.8241 16.1734 15 15.5934 15 15C15 14.2044 14.6839 13.4413 14.1213 12.8787C13.5587 12.3161 12.7956 12 12 12ZM12 16C11.8022 16 11.6089 15.9414 11.4444 15.8315C11.28 15.7216 11.1518 15.5654 11.0761 15.3827C11.0004 15.2 10.9806 14.9989 11.0192 14.8049C11.0578 14.6109 11.153 14.4328 11.2929 14.2929C11.4327 14.1531 11.6109 14.0578 11.8049 14.0192C11.9989 13.9806 12.2 14.0005 12.3827 14.0761C12.5654 14.1518 12.7216 14.28 12.8315 14.4444C12.9414 14.6089 13 14.8022 13 15C13 15.2652 12.8946 15.5196 12.7071 15.7071C12.5196 15.8947 12.2652 16 12 16ZM5 15C5 15.1978 5.05865 15.3911 5.16853 15.5556C5.27841 15.72 5.43459 15.8482 5.61732 15.9239C5.80004 15.9996 6.00111 16.0194 6.19509 15.9808C6.38907 15.9422 6.56725 15.847 6.70711 15.7071C6.84696 15.5673 6.9422 15.3891 6.98079 15.1951C7.01937 15.0011 6.99957 14.8001 6.92388 14.6173C6.84819 14.4346 6.72002 14.2784 6.55557 14.1685C6.39112 14.0587 6.19778 14 6 14C5.73478 14 5.48043 14.1054 5.29289 14.2929C5.10536 14.4804 5 14.7348 5 15ZM19 15C19 14.8022 18.9414 14.6089 18.8315 14.4444C18.7216 14.28 18.5654 14.1518 18.3827 14.0761C18.2 14.0005 17.9989 13.9806 17.8049 14.0192C17.6109 14.0578 17.4327 14.1531 17.2929 14.2929C17.153 14.4328 17.0578 14.6109 17.0192 14.8049C16.9806 14.9989 17.0004 15.2 17.0761 15.3827C17.1518 15.5654 17.28 15.7216 17.4444 15.8315C17.6089 15.9414 17.8022 16 18 16C18.2652 16 18.5196 15.8947 18.7071 15.7071C18.8946 15.5196 19 15.2652 19 15ZM20 8.00002H16C15.7348 8.00002 15.4804 8.10538 15.2929 8.29291C15.1054 8.48045 15 8.7348 15 9.00002C15 9.26523 15.1054 9.51959 15.2929 9.70713C15.4804 9.89466 15.7348 10 16 10H20C20.2652 10 20.5196 10.1054 20.7071 10.2929C20.8946 10.4804 21 10.7348 21 11V19C21 19.2652 20.8946 19.5196 20.7071 19.7071C20.5196 19.8947 20.2652 20 20 20H4C3.73478 20 3.48043 19.8947 3.29289 19.7071C3.10536 19.5196 3 19.2652 3 19V11C3 10.7348 3.10536 10.4804 3.29289 10.2929C3.48043 10.1054 3.73478 10 4 10H8C8.26522 10 8.51957 9.89466 8.70711 9.70713C8.89464 9.51959 9 9.26523 9 9.00002C9 8.7348 8.89464 8.48045 8.70711 8.29291C8.51957 8.10538 8.26522 8.00002 8 8.00002H4C3.20435 8.00002 2.44129 8.31609 1.87868 8.8787C1.31607 9.44131 1 10.2044 1 11V19C1 19.7957 1.31607 20.5587 1.87868 21.1213C2.44129 21.6839 3.20435 22 4 22H20C20.7956 22 21.5587 21.6839 22.1213 21.1213C22.6839 20.5587 23 19.7957 23 19V11C23 10.2044 22.6839 9.44131 22.1213 8.8787C21.5587 8.31609 20.7956 8.00002 20 8.00002Z" />
    </symbol>

    <symbol id="icon-place" viewBox="0 0 30 30">
        <path d="M15 2.5C12.3478 2.5 9.8043 3.55357 7.92893 5.42893C6.05357 7.3043 5 9.84784 5 12.5C5 19.25 13.8125 26.875 14.1875 27.2C14.4139 27.3937 14.7021 27.5001 15 27.5001C15.2979 27.5001 15.5861 27.3937 15.8125 27.2C16.25 26.875 25 19.25 25 12.5C25 9.84784 23.9464 7.3043 22.0711 5.42893C20.1957 3.55357 17.6522 2.5 15 2.5ZM15 24.5625C12.3375 22.0625 7.5 16.675 7.5 12.5C7.5 10.5109 8.29018 8.60322 9.6967 7.1967C11.1032 5.79018 13.0109 5 15 5C16.9891 5 18.8968 5.79018 20.3033 7.1967C21.7098 8.60322 22.5 10.5109 22.5 12.5C22.5 16.675 17.6625 22.075 15 24.5625ZM15 7.5C14.0111 7.5 13.0444 7.79324 12.2221 8.34265C11.3999 8.89206 10.759 9.67295 10.3806 10.5866C10.0022 11.5002 9.90315 12.5055 10.0961 13.4755C10.289 14.4454 10.7652 15.3363 11.4645 16.0355C12.1637 16.7348 13.0546 17.211 14.0245 17.4039C14.9945 17.5969 15.9998 17.4978 16.9134 17.1194C17.827 16.741 18.6079 16.1001 19.1573 15.2779C19.7068 14.4556 20 13.4889 20 12.5C20 11.1739 19.4732 9.90215 18.5355 8.96447C17.5979 8.02678 16.3261 7.5 15 7.5ZM15 15C14.5055 15 14.0222 14.8534 13.6111 14.5787C13.2 14.304 12.8795 13.9135 12.6903 13.4567C12.5011 12.9999 12.4516 12.4972 12.548 12.0123C12.6445 11.5273 12.8826 11.0819 13.2322 10.7322C13.5819 10.3826 14.0273 10.1445 14.5123 10.048C14.9972 9.95157 15.4999 10.0011 15.9567 10.1903C16.4135 10.3795 16.804 10.7 17.0787 11.1111C17.3534 11.5222 17.5 12.0055 17.5 12.5C17.5 13.163 17.2366 13.7989 16.7678 14.2678C16.2989 14.7366 15.663 15 15 15Z" />
    </symbol>
    <symbol id="icon-delete" viewBox="0 0 24 24">
        <path d="M20 6H16V5C16 4.20435 15.6839 3.44129 15.1213 2.87868C14.5587 2.31607 13.7956 2 13 2H11C10.2044 2 9.44129 2.31607 8.87868 2.87868C8.31607 3.44129 8 4.20435 8 5V6H4C3.73478 6 3.48043 6.10536 3.29289 6.29289C3.10536 6.48043 3 6.73478 3 7C3 7.26522 3.10536 7.51957 3.29289 7.70711C3.48043 7.89464 3.73478 8 4 8H5V19C5 19.7956 5.31607 20.5587 5.87868 21.1213C6.44129 21.6839 7.20435 22 8 22H16C16.7956 22 17.5587 21.6839 18.1213 21.1213C18.6839 20.5587 19 19.7956 19 19V8H20C20.2652 8 20.5196 7.89464 20.7071 7.70711C20.8946 7.51957 21 7.26522 21 7C21 6.73478 20.8946 6.48043 20.7071 6.29289C20.5196 6.10536 20.2652 6 20 6ZM10 5C10 4.73478 10.1054 4.48043 10.2929 4.29289C10.4804 4.10536 10.7348 4 11 4H13C13.2652 4 13.5196 4.10536 13.7071 4.29289C13.8946 4.48043 14 4.73478 14 5V6H10V5ZM17 19C17 19.2652 16.8946 19.5196 16.7071 19.7071C16.5196 19.8946 16.2652 20 16 20H8C7.73478 20 7.48043 19.8946 7.29289 19.7071C7.10536 19.5196 7 19.2652 7 19V8H17V19Z" />
    </symbol>

    <symbol id="icon-place-2" viewBox="0 0 25 25">
        <path d="M20.96 10.2092C20.8196 8.74808 20.3032 7.34825 19.4612 6.14598C18.6191 4.94372 17.4801 3.98 16.155 3.34866C14.8299 2.71732 13.3639 2.43989 11.8997 2.54337C10.4356 2.64685 9.02314 3.12773 7.8 3.93917C6.7492 4.64181 5.86706 5.56846 5.21695 6.65256C4.56684 7.73665 4.1649 8.95127 4.04 10.2092C3.91749 11.4588 4.07468 12.7201 4.50017 13.9014C4.92567 15.0828 5.6088 16.1546 6.5 17.0392L11.8 22.3492C11.893 22.4429 12.0036 22.5173 12.1254 22.5681C12.2473 22.6188 12.378 22.645 12.51 22.645C12.642 22.645 12.7727 22.6188 12.8946 22.5681C13.0164 22.5173 13.127 22.4429 13.22 22.3492L18.5 17.0392C19.3912 16.1546 20.0743 15.0828 20.4998 13.9014C20.9253 12.7201 21.0825 11.4588 20.96 10.2092ZM17.1 15.6292L12.5 20.2292L7.9 15.6292C7.22209 14.9512 6.70281 14.1315 6.37947 13.2289C6.05614 12.3264 5.93679 11.3634 6.03 10.4092C6.12382 9.44027 6.43177 8.50433 6.93157 7.66901C7.43138 6.83369 8.11056 6.11987 8.92 5.57917C9.98095 4.8744 11.2263 4.49846 12.5 4.49846C13.7737 4.49846 15.0191 4.8744 16.08 5.57917C16.887 6.11778 17.5647 6.82845 18.0644 7.6601C18.564 8.49176 18.8733 9.42377 18.97 10.3892C19.0663 11.3466 18.9484 12.3134 18.625 13.2197C18.3016 14.126 17.7807 14.949 17.1 15.6292ZM12.5 6.57917C11.61 6.57917 10.74 6.84309 9.99994 7.33755C9.25992 7.83202 8.68314 8.53482 8.34255 9.35709C8.00195 10.1794 7.91284 11.0842 8.08647 11.9571C8.2601 12.83 8.68869 13.6318 9.31802 14.2611C9.94736 14.8905 10.7492 15.3191 11.6221 15.4927C12.495 15.6663 13.3998 15.5772 14.2221 15.2366C15.0443 14.896 15.7471 14.3193 16.2416 13.5792C16.7361 12.8392 17 11.9692 17 11.0792C16.9974 9.8865 16.5224 8.74345 15.6791 7.9001C14.8357 7.05676 13.6927 6.58181 12.5 6.57917ZM12.5 13.5792C12.0055 13.5792 11.5222 13.4325 11.1111 13.1578C10.7 12.8831 10.3795 12.4927 10.1903 12.0359C10.0011 11.5791 9.95158 11.0764 10.048 10.5914C10.1445 10.1065 10.3826 9.66103 10.7322 9.3114C11.0819 8.96177 11.5273 8.72367 12.0123 8.6272C12.4972 8.53074 12.9999 8.58025 13.4567 8.76947C13.9135 8.95869 14.304 9.27912 14.5787 9.69024C14.8534 10.1014 15 10.5847 15 11.0792C15 11.7422 14.7366 12.3781 14.2678 12.8469C13.7989 13.3158 13.163 13.5792 12.5 13.5792Z" />
    </symbol>
    <symbol id="icon-comments" viewBox="0 0 24 25">
        <path d="M19 2.5791H5C4.20435 2.5791 3.44129 2.89517 2.87868 3.45778C2.31607 4.02039 2 4.78345 2 5.5791V15.5791C2 16.3748 2.31607 17.1378 2.87868 17.7004C3.44129 18.263 4.20435 18.5791 5 18.5791H16.59L20.29 22.2891C20.3834 22.3818 20.4943 22.4551 20.6161 22.5049C20.7379 22.5546 20.8684 22.5799 21 22.5791C21.1312 22.5825 21.2613 22.5551 21.38 22.4991C21.5626 22.4241 21.7189 22.2967 21.8293 22.133C21.9396 21.9692 21.999 21.7765 22 21.5791V5.5791C22 4.78345 21.6839 4.02039 21.1213 3.45778C20.5587 2.89517 19.7956 2.5791 19 2.5791ZM20 19.1691L17.71 16.8691C17.6166 16.7764 17.5057 16.7031 17.3839 16.6533C17.2621 16.6036 17.1316 16.5783 17 16.5791H5C4.73478 16.5791 4.48043 16.4737 4.29289 16.2862C4.10536 16.0987 4 15.8443 4 15.5791V5.5791C4 5.31388 4.10536 5.05953 4.29289 4.87199C4.48043 4.68446 4.73478 4.5791 5 4.5791H19C19.2652 4.5791 19.5196 4.68446 19.7071 4.87199C19.8946 5.05953 20 5.31388 20 5.5791V19.1691Z" />
    </symbol>
    <symbol id="icon-close" viewBox="0 0 28 28">
        <path d="M15.644 14.0009L20.6606 8.99587C20.8803 8.77618 21.0037 8.47822 21.0037 8.16753C21.0037 7.85685 20.8803 7.55889 20.6606 7.3392C20.4409 7.11951 20.143 6.99609 19.8323 6.99609C19.5216 6.99609 19.2236 7.11951 19.004 7.3392L13.999 12.3559L8.99395 7.3392C8.77426 7.11951 8.4763 6.99609 8.16562 6.99609C7.85493 6.99609 7.55697 7.11951 7.33729 7.3392C7.1176 7.55889 6.99418 7.85685 6.99418 8.16753C6.99418 8.47822 7.1176 8.77618 7.33729 8.99587L12.354 14.0009L7.33729 19.0059C7.22794 19.1143 7.14114 19.2434 7.08191 19.3855C7.02268 19.5277 6.99219 19.6802 6.99219 19.8342C6.99219 19.9882 7.02268 20.1407 7.08191 20.2829C7.14114 20.425 7.22794 20.5541 7.33729 20.6625C7.44574 20.7719 7.57478 20.8587 7.71695 20.9179C7.85912 20.9771 8.01161 21.0076 8.16562 21.0076C8.31963 21.0076 8.47212 20.9771 8.61429 20.9179C8.75646 20.8587 8.8855 20.7719 8.99395 20.6625L13.999 15.6459L19.004 20.6625C19.1124 20.7719 19.2414 20.8587 19.3836 20.9179C19.5258 20.9771 19.6783 21.0076 19.8323 21.0076C19.9863 21.0076 20.1388 20.9771 20.281 20.9179C20.4231 20.8587 20.5522 20.7719 20.6606 20.6625C20.77 20.5541 20.8568 20.425 20.916 20.2829C20.9752 20.1407 21.0057 19.9882 21.0057 19.8342C21.0057 19.6802 20.9752 19.5277 20.916 19.3855C20.8568 19.2434 20.77 19.1143 20.6606 19.0059L15.644 14.0009Z"/>
    </symbol>
    <symbol id="icon-check" viewBox="0 0 30 30" >
        <path d="M23.0515 9.25217C22.94 9.1397 22.8073 9.05043 22.661 8.9895C22.5148 8.92858 22.358 8.89722 22.1996 8.89722C22.0411 8.89722 21.8843 8.92858 21.7381 8.9895C21.5918 9.05043 21.4591 9.1397 21.3476 9.25217L12.4076 18.2042L8.65155 14.4362C8.53572 14.3243 8.39899 14.2363 8.24917 14.1773C8.09934 14.1182 7.93935 14.0893 7.77834 14.0921C7.61732 14.0948 7.45843 14.1293 7.31073 14.1935C7.16304 14.2577 7.02944 14.3503 6.91755 14.4662C6.80566 14.582 6.71769 14.7187 6.65864 14.8686C6.5996 15.0184 6.57064 15.1784 6.57343 15.3394C6.57621 15.5004 6.61068 15.6593 6.67488 15.807C6.73907 15.9547 6.83172 16.0883 6.94755 16.2002L11.5556 20.8082C11.6671 20.9206 11.7998 21.0099 11.9461 21.0708C12.0923 21.1318 12.2491 21.1631 12.4076 21.1631C12.566 21.1631 12.7228 21.1318 12.869 21.0708C13.0153 21.0099 13.148 20.9206 13.2596 20.8082L23.0515 11.0162C23.1734 10.9038 23.2706 10.7674 23.3371 10.6156C23.4035 10.4638 23.4379 10.2999 23.4379 10.1342C23.4379 9.96845 23.4035 9.80453 23.3371 9.65273C23.2706 9.50093 23.1734 9.36455 23.0515 9.25217Z" />
    </symbol>
    <symbol id="icon-heart" viewBox="0 0 24 24">
        <g class="heart__border">
            <path d="M20.1603 4.99992C19.1002 3.93713 17.6951 3.28846 16.1986 3.17109C14.7021 3.05372 13.213 3.47539 12.0003 4.35992C10.7279 3.41356 9.14427 2.98443 7.5682 3.15896C5.99212 3.33348 4.54072 4.0987 3.50625 5.30051C2.47178 6.50231 1.9311 8.05144 1.99308 9.63594C2.05506 11.2204 2.71509 12.7226 3.84028 13.8399L10.0503 20.0599C10.5703 20.5717 11.2707 20.8585 12.0003 20.8585C12.7299 20.8585 13.4303 20.5717 13.9503 20.0599L20.1603 13.8399C21.3279 12.6652 21.9832 11.0762 21.9832 9.41992C21.9832 7.76365 21.3279 6.17465 20.1603 4.99992ZM18.7503 12.4599L12.5403 18.6699C12.4696 18.7413 12.3855 18.7979 12.2928 18.8366C12.2001 18.8752 12.1007 18.8951 12.0003 18.8951C11.8999 18.8951 11.8004 18.8752 11.7077 18.8366C11.615 18.7979 11.5309 18.7413 11.4603 18.6699L5.25028 12.4299C4.46603 11.6283 4.02689 10.5514 4.02689 9.42992C4.02689 8.30846 4.46603 7.23158 5.25028 6.42992C6.04943 5.64091 7.12725 5.19849 8.25028 5.19849C9.3733 5.19849 10.4511 5.64091 11.2503 6.42992C11.3432 6.52365 11.4538 6.59804 11.5757 6.64881C11.6976 6.69958 11.8283 6.72572 11.9603 6.72572C12.0923 6.72572 12.223 6.69958 12.3449 6.64881C12.4667 6.59804 12.5773 6.52365 12.6703 6.42992C13.4694 5.64091 14.5472 5.19849 15.6703 5.19849C16.7933 5.19849 17.8711 5.64091 18.6703 6.42992C19.4653 7.22107 19.9189 8.29211 19.9338 9.41361C19.9488 10.5351 19.5239 11.6179 18.7503 12.4299V12.4599Z" />
        </g>
        <g class="heart__fill">
            <path d="M20.1603 4.99992C19.1002 3.93713 17.6951 3.28846 16.1986 3.17109C14.7021 3.05372 13.213 3.47539 12.0003 4.35992C10.7279 3.41356 9.14427 2.98443 7.5682 3.15896C5.99212 3.33348 4.54072 4.0987 3.50625 5.30051C2.47178 6.50231 1.9311 8.05144 1.99308 9.63594C2.05506 11.2204 2.71509 12.7226 3.84028 13.8399L10.0503 20.0599C10.5703 20.5717 11.2707 20.8585 12.0003 20.8585C12.7299 20.8585 13.4303 20.5717 13.9503 20.0599L20.1603 13.8399C21.3279 12.6652 21.9832 11.0762 21.9832 9.41992C21.9832 7.76365 21.3279 6.17465 20.1603 4.99992Z" />
        </g>
    </symbol>
    <symbol id="icon-heart-header" viewBox="0 0 24 24" >
        <path d="M20.1603 5.00017C19.1002 3.93737 17.6951 3.28871 16.1986 3.17134C14.7021 3.05397 13.213 3.47563 12.0003 4.36017C10.7279 3.4138 9.14427 2.98468 7.5682 3.1592C5.99212 3.33373 4.54072 4.09894 3.50625 5.30075C2.47178 6.50256 1.9311 8.05169 1.99308 9.63618C2.05506 11.2207 2.71509 12.7228 3.84028 13.8402L10.0503 20.0602C10.5703 20.5719 11.2707 20.8588 12.0003 20.8588C12.7299 20.8588 13.4303 20.5719 13.9503 20.0602L20.1603 13.8402C21.3279 12.6654 21.9832 11.0764 21.9832 9.42017C21.9832 7.76389 21.3279 6.1749 20.1603 5.00017ZM18.7503 12.4602L12.5403 18.6702C12.4696 18.7415 12.3855 18.7982 12.2928 18.8368C12.2001 18.8755 12.1007 18.8954 12.0003 18.8954C11.8999 18.8954 11.8004 18.8755 11.7077 18.8368C11.615 18.7982 11.5309 18.7415 11.4603 18.6702L5.25028 12.4302C4.46603 11.6285 4.02689 10.5516 4.02689 9.43017C4.02689 8.3087 4.46603 7.23182 5.25028 6.43017C6.04943 5.64115 7.12725 5.19873 8.25028 5.19873C9.3733 5.19873 10.4511 5.64115 11.2503 6.43017C11.3432 6.52389 11.4538 6.59829 11.5757 6.64906C11.6976 6.69983 11.8283 6.72596 11.9603 6.72596C12.0923 6.72596 12.223 6.69983 12.3449 6.64906C12.4667 6.59829 12.5773 6.52389 12.6703 6.43017C13.4694 5.64115 14.5472 5.19873 15.6703 5.19873C16.7933 5.19873 17.8711 5.64115 18.6703 6.43017C19.4653 7.22132 19.9189 8.29236 19.9338 9.41385C19.9488 10.5353 19.5239 11.6181 18.7503 12.4302V12.4602Z" />
    </symbol>
    <symbol id="icon-edit" viewBox="0 0 24 24">
     <path d="M22 7.24002C22.0008 7.10841 21.9756 6.97795 21.9258 6.85611C21.876 6.73427 21.8027 6.62346 21.71 6.53002L17.47 2.29002C17.3766 2.19734 17.2658 2.12401 17.1439 2.07425C17.0221 2.02448 16.8916 1.99926 16.76 2.00002C16.6284 1.99926 16.4979 2.02448 16.3761 2.07425C16.2543 2.12401 16.1435 2.19734 16.05 2.29002L13.22 5.12002L2.29002 16.05C2.19734 16.1435 2.12401 16.2543 2.07425 16.3761C2.02448 16.4979 1.99926 16.6284 2.00002 16.76V21C2.00002 21.2652 2.10537 21.5196 2.29291 21.7071C2.48045 21.8947 2.7348 22 3.00002 22H7.24002C7.37994 22.0076 7.51991 21.9857 7.65084 21.9358C7.78176 21.8858 7.90073 21.8089 8.00002 21.71L18.87 10.78L21.71 8.00002C21.8013 7.9031 21.8757 7.79155 21.93 7.67002C21.9397 7.59031 21.9397 7.50973 21.93 7.43002C21.9347 7.38347 21.9347 7.33657 21.93 7.29002L22 7.24002ZM6.83002 20H4.00002V17.17L13.93 7.24002L16.76 10.07L6.83002 20ZM18.17 8.66002L15.34 5.83002L16.76 4.42002L19.58 7.24002L18.17 8.66002Z" />
    </symbol>
    <symbol id="icon-dots" viewBox="0 0 24 24" >
        <path d="M12 10C11.6044 10 11.2178 10.1173 10.8889 10.3371C10.56 10.5568 10.3036 10.8692 10.1522 11.2346C10.0009 11.6001 9.96126 12.0022 10.0384 12.3902C10.1156 12.7781 10.3061 13.1345 10.5858 13.4142C10.8655 13.6939 11.2219 13.8844 11.6098 13.9616C11.9978 14.0387 12.3999 13.9991 12.7654 13.8478C13.1308 13.6964 13.4432 13.44 13.6629 13.1111C13.8827 12.7822 14 12.3956 14 12C14 11.4696 13.7893 10.9609 13.4142 10.5858C13.0391 10.2107 12.5304 10 12 10ZM5 10C4.60444 10 4.21776 10.1173 3.88886 10.3371C3.55996 10.5568 3.30362 10.8692 3.15224 11.2346C3.00087 11.6001 2.96126 12.0022 3.03843 12.3902C3.1156 12.7781 3.30608 13.1345 3.58579 13.4142C3.86549 13.6939 4.22186 13.8844 4.60982 13.9616C4.99778 14.0387 5.39992 13.9991 5.76537 13.8478C6.13082 13.6964 6.44318 13.44 6.66294 13.1111C6.8827 12.7822 7 12.3956 7 12C7 11.4696 6.78929 10.9609 6.41421 10.5858C6.03914 10.2107 5.53043 10 5 10ZM19 10C18.6044 10 18.2178 10.1173 17.8889 10.3371C17.56 10.5568 17.3036 10.8692 17.1522 11.2346C17.0009 11.6001 16.9613 12.0022 17.0384 12.3902C17.1156 12.7781 17.3061 13.1345 17.5858 13.4142C17.8655 13.6939 18.2219 13.8844 18.6098 13.9616C18.9978 14.0387 19.3999 13.9991 19.7654 13.8478C20.1308 13.6964 20.4432 13.44 20.6629 13.1111C20.8827 12.7822 21 12.3956 21 12C21 11.4696 20.7893 10.9609 20.4142 10.5858C20.0391 10.2107 19.5304 10 19 10Z" />
    </symbol>
    <symbol id="icon-filter" viewBox="0 0 20 20" >
        <path d="M15.8337 1.66602H4.16699C3.50395 1.66602 2.86807 1.92941 2.39923 2.39825C1.93038 2.86709 1.66699 3.50297 1.66699 4.16602V5.14102C1.66687 5.48514 1.7378 5.82557 1.87533 6.14102V6.19102C1.99306 6.45849 2.15982 6.70157 2.36699 6.90768L7.50033 12.0077V17.4993C7.50004 17.641 7.53586 17.7803 7.60439 17.9043C7.67291 18.0282 7.7719 18.1326 7.89199 18.2077C8.02461 18.2899 8.17764 18.3332 8.33366 18.3327C8.46411 18.3319 8.59256 18.3005 8.70866 18.241L12.042 16.5743C12.1794 16.5051 12.295 16.3991 12.3759 16.2682C12.4568 16.1373 12.4999 15.9866 12.5003 15.8327V12.0077L17.6003 6.90768C17.8075 6.70157 17.9743 6.45849 18.092 6.19102V6.14102C18.241 5.82804 18.3233 5.4875 18.3337 5.14102V4.16602C18.3337 3.50297 18.0703 2.86709 17.6014 2.39825C17.1326 1.92941 16.4967 1.66602 15.8337 1.66602ZM11.0753 11.0743C10.9981 11.1522 10.937 11.2446 10.8955 11.3461C10.854 11.4476 10.833 11.5563 10.8337 11.666V15.316L9.16699 16.1493V11.666C9.16763 11.5563 9.14661 11.4476 9.10513 11.3461C9.06366 11.2446 9.00256 11.1522 8.92533 11.0743L4.50866 6.66602H15.492L11.0753 11.0743ZM16.667 4.99935H3.33366V4.16602C3.33366 3.945 3.42146 3.73304 3.57774 3.57676C3.73402 3.42048 3.94598 3.33268 4.16699 3.33268H15.8337C16.0547 3.33268 16.2666 3.42048 16.4229 3.57676C16.5792 3.73304 16.667 3.945 16.667 4.16602V4.99935Z" />
    </symbol>


</svg>
