<svg width="24" height="25" viewBox="0 0 24 25" fill="none" xmlns="http://www.w3.org/2000/svg">
<path d="M19 2.5791H5C4.20435 2.5791 3.44129 2.89517 2.87868 3.45778C2.31607 4.02039 2 4.78345 2 5.5791V15.5791C2 16.3748 2.31607 17.1378 2.87868 17.7004C3.44129 18.263 4.20435 18.5791 5 18.5791H16.59L20.29 22.2891C20.3834 22.3818 20.4943 22.4551 20.6161 22.5049C20.7379 22.5546 20.8684 22.5799 21 22.5791C21.1312 22.5825 21.2613 22.5551 21.38 22.4991C21.5626 22.4241 21.7189 22.2967 21.8293 22.133C21.9396 21.9692 21.999 21.7765 22 21.5791V5.5791C22 4.78345 21.6839 4.02039 21.1213 3.45778C20.5587 2.89517 19.7956 2.5791 19 2.5791ZM20 19.1691L17.71 16.8691C17.6166 16.7764 17.5057 16.7031 17.3839 16.6533C17.2621 16.6036 17.1316 16.5783 17 16.5791H5C4.73478 16.5791 4.48043 16.4737 4.29289 16.2862C4.10536 16.0987 4 15.8443 4 15.5791V5.5791C4 5.31388 4.10536 5.05953 4.29289 4.87199C4.48043 4.68446 4.73478 4.5791 5 4.5791H19C19.2652 4.5791 19.5196 4.68446 19.7071 4.87199C19.8946 5.05953 20 5.31388 20 5.5791V19.1691Z" fill="#16141F"/>
</svg>
