<svg width="20" height="20" viewBox="0 0 20 20" fill="none" xmlns="http://www.w3.org/2000/svg">
<path d="M9.1165 5.06674C9.4088 5.02193 9.70411 4.99965 9.99983 5.00007C12.6498 5.00007 15.1415 6.90841 16.5915 10.0001C16.3697 10.4706 16.1193 10.927 15.8415 11.3667C15.7533 11.5032 15.707 11.6626 15.7082 11.8251C15.71 12.0069 15.7713 12.1832 15.8827 12.327C15.9941 12.4707 16.1495 12.5741 16.3251 12.6213C16.5008 12.6685 16.687 12.657 16.8555 12.5885C17.024 12.5199 17.1654 12.3982 17.2582 12.2417C17.6464 11.6317 17.9837 10.9906 18.2665 10.3251C18.3112 10.2211 18.3343 10.1091 18.3343 9.99591C18.3343 9.88272 18.3112 9.77072 18.2665 9.66674C16.5832 5.75841 13.4165 3.33341 9.99983 3.33341C9.60872 3.33144 9.21823 3.36491 8.83316 3.43341C8.72373 3.45201 8.61903 3.49199 8.52504 3.55105C8.43106 3.61012 8.34963 3.68712 8.2854 3.77766C8.22117 3.8682 8.17541 3.9705 8.15072 4.07872C8.12603 4.18694 8.12289 4.29897 8.1415 4.40841C8.1601 4.51784 8.20008 4.62254 8.25914 4.71653C8.31821 4.81051 8.39521 4.89194 8.48575 4.95617C8.57628 5.0204 8.67859 5.06616 8.78681 5.09085C8.89503 5.11554 9.00706 5.11868 9.1165 5.10007V5.06674ZM3.0915 1.90841C3.0138 1.83071 2.92156 1.76907 2.82004 1.72702C2.71852 1.68497 2.60971 1.66333 2.49983 1.66333C2.38995 1.66333 2.28114 1.68497 2.17962 1.72702C2.0781 1.76907 1.98586 1.83071 1.90816 1.90841C1.75124 2.06533 1.66309 2.27816 1.66309 2.50007C1.66309 2.72199 1.75124 2.93482 1.90816 3.09174L4.4915 5.66674C3.31281 6.80135 2.37471 8.16173 1.73316 9.66674C1.68728 9.77188 1.66359 9.88536 1.66359 10.0001C1.66359 10.1148 1.68728 10.2283 1.73316 10.3334C3.4165 14.2417 6.58316 16.6667 9.99983 16.6667C11.4974 16.6564 12.9596 16.2105 14.2082 15.3834L16.9082 18.0917C16.9856 18.1698 17.0778 18.2318 17.1793 18.2742C17.2809 18.3165 17.3898 18.3382 17.4998 18.3382C17.6098 18.3382 17.7188 18.3165 17.8203 18.2742C17.9219 18.2318 18.014 18.1698 18.0915 18.0917C18.1696 18.0143 18.2316 17.9221 18.2739 17.8206C18.3162 17.719 18.338 17.6101 18.338 17.5001C18.338 17.3901 18.3162 17.2811 18.2739 17.1796C18.2316 17.078 18.1696 16.9859 18.0915 16.9084L3.0915 1.90841ZM8.3915 9.56674L10.4332 11.6084C10.2923 11.6488 10.1463 11.6684 9.99983 11.6667C9.5578 11.6667 9.13388 11.4911 8.82132 11.1786C8.50876 10.866 8.33316 10.4421 8.33316 10.0001C8.33146 9.85356 8.35111 9.70758 8.3915 9.56674ZM9.99983 15.0001C7.34983 15.0001 4.85816 13.0917 3.4165 10.0001C3.9549 8.81153 4.71906 7.73889 5.6665 6.84174L7.1415 8.33341C6.79503 8.96574 6.66295 9.69336 6.76505 10.4071C6.86714 11.1209 7.19793 11.7823 7.70777 12.2921C8.21761 12.802 8.87902 13.1328 9.59278 13.2349C10.3065 13.337 11.0342 13.2049 11.6665 12.8584L12.9915 14.1667C12.0841 14.7008 11.0527 14.9881 9.99983 15.0001Z" fill="#16141F"/>
</svg>
