<svg width="20" height="20" viewBox="0 0 20 20" fill="none" xmlns="http://www.w3.org/2000/svg">
<path d="M15.8337 1.66602H4.16699C3.50395 1.66602 2.86807 1.92941 2.39923 2.39825C1.93038 2.86709 1.66699 3.50297 1.66699 4.16602V5.14102C1.66687 5.48514 1.7378 5.82557 1.87533 6.14102V6.19102C1.99306 6.45849 2.15982 6.70157 2.36699 6.90768L7.50033 12.0077V17.4993C7.50004 17.641 7.53586 17.7803 7.60439 17.9043C7.67291 18.0282 7.7719 18.1326 7.89199 18.2077C8.02461 18.2899 8.17764 18.3332 8.33366 18.3327C8.46411 18.3319 8.59256 18.3005 8.70866 18.241L12.042 16.5743C12.1794 16.5051 12.295 16.3991 12.3759 16.2682C12.4568 16.1373 12.4999 15.9866 12.5003 15.8327V12.0077L17.6003 6.90768C17.8075 6.70157 17.9743 6.45849 18.092 6.19102V6.14102C18.241 5.82804 18.3233 5.4875 18.3337 5.14102V4.16602C18.3337 3.50297 18.0703 2.86709 17.6014 2.39825C17.1326 1.92941 16.4967 1.66602 15.8337 1.66602ZM11.0753 11.0743C10.9981 11.1522 10.937 11.2446 10.8955 11.3461C10.854 11.4476 10.833 11.5563 10.8337 11.666V15.316L9.16699 16.1493V11.666C9.16763 11.5563 9.14661 11.4476 9.10513 11.3461C9.06366 11.2446 9.00256 11.1522 8.92533 11.0743L4.50866 6.66602H15.492L11.0753 11.0743ZM16.667 4.99935H3.33366V4.16602C3.33366 3.945 3.42146 3.73304 3.57774 3.57676C3.73402 3.42048 3.94598 3.33268 4.16699 3.33268H15.8337C16.0547 3.33268 16.2666 3.42048 16.4229 3.57676C16.5792 3.73304 16.667 3.945 16.667 4.16602V4.99935Z" fill="black"/>
</svg>
