<svg width="25" height="25" viewBox="0 0 25 25" fill="none" xmlns="http://www.w3.org/2000/svg">
<path d="M20.96 10.2092C20.8196 8.74808 20.3032 7.34825 19.4612 6.14598C18.6191 4.94372 17.4801 3.98 16.155 3.34866C14.8299 2.71732 13.3639 2.43989 11.8997 2.54337C10.4356 2.64685 9.02314 3.12773 7.8 3.93917C6.7492 4.64181 5.86706 5.56846 5.21695 6.65256C4.56684 7.73665 4.1649 8.95127 4.04 10.2092C3.91749 11.4588 4.07468 12.7201 4.50017 13.9014C4.92567 15.0828 5.6088 16.1546 6.5 17.0392L11.8 22.3492C11.893 22.4429 12.0036 22.5173 12.1254 22.5681C12.2473 22.6188 12.378 22.645 12.51 22.645C12.642 22.645 12.7727 22.6188 12.8946 22.5681C13.0164 22.5173 13.127 22.4429 13.22 22.3492L18.5 17.0392C19.3912 16.1546 20.0743 15.0828 20.4998 13.9014C20.9253 12.7201 21.0825 11.4588 20.96 10.2092ZM17.1 15.6292L12.5 20.2292L7.9 15.6292C7.22209 14.9512 6.70281 14.1315 6.37947 13.2289C6.05614 12.3264 5.93679 11.3634 6.03 10.4092C6.12382 9.44027 6.43177 8.50433 6.93157 7.66901C7.43138 6.83369 8.11056 6.11987 8.92 5.57917C9.98095 4.8744 11.2263 4.49846 12.5 4.49846C13.7737 4.49846 15.0191 4.8744 16.08 5.57917C16.887 6.11778 17.5647 6.82845 18.0644 7.6601C18.564 8.49176 18.8733 9.42377 18.97 10.3892C19.0663 11.3466 18.9484 12.3134 18.625 13.2197C18.3016 14.126 17.7807 14.949 17.1 15.6292ZM12.5 6.57917C11.61 6.57917 10.74 6.84309 9.99994 7.33755C9.25992 7.83202 8.68314 8.53482 8.34255 9.35709C8.00195 10.1794 7.91284 11.0842 8.08647 11.9571C8.2601 12.83 8.68869 13.6318 9.31802 14.2611C9.94736 14.8905 10.7492 15.3191 11.6221 15.4927C12.495 15.6663 13.3998 15.5772 14.2221 15.2366C15.0443 14.896 15.7471 14.3193 16.2416 13.5792C16.7361 12.8392 17 11.9692 17 11.0792C16.9974 9.8865 16.5224 8.74345 15.6791 7.9001C14.8357 7.05676 13.6927 6.58181 12.5 6.57917ZM12.5 13.5792C12.0055 13.5792 11.5222 13.4325 11.1111 13.1578C10.7 12.8831 10.3795 12.4927 10.1903 12.0359C10.0011 11.5791 9.95158 11.0764 10.048 10.5914C10.1445 10.1065 10.3826 9.66103 10.7322 9.3114C11.0819 8.96177 11.5273 8.72367 12.0123 8.6272C12.4972 8.53074 12.9999 8.58025 13.4567 8.76947C13.9135 8.95869 14.304 9.27912 14.5787 9.69024C14.8534 10.1014 15 10.5847 15 11.0792C15 11.7422 14.7366 12.3781 14.2678 12.8469C13.7989 13.3158 13.163 13.5792 12.5 13.5792Z" fill="#7968F8"/>
</svg>
