<svg width="24" height="25" viewBox="0 0 24 25" fill="none" xmlns="http://www.w3.org/2000/svg">
<path d="M11 12.399V17.499C11 17.7642 11.1054 18.0186 11.2929 18.2061C11.4804 18.3936 11.7348 18.499 12 18.499C12.2652 18.499 12.5196 18.3936 12.7071 18.2061C12.8946 18.0186 13 17.7642 13 17.499V12.399C14.214 12.1512 15.2928 11.4614 16.0272 10.4634C16.7616 9.46539 17.0992 8.23026 16.9747 6.99746C16.8501 5.76465 16.2723 4.62201 15.3532 3.79104C14.434 2.96008 13.2391 2.5 12 2.5C10.7609 2.5 9.56598 2.96008 8.64685 3.79104C7.72771 4.62201 7.14986 5.76465 7.02532 6.99746C6.90078 8.23026 7.23843 9.46539 7.9728 10.4634C8.70718 11.4614 9.78596 12.1512 11 12.399ZM12 4.49898C12.5933 4.49898 13.1734 4.67493 13.6667 5.00457C14.1601 5.33422 14.5446 5.80275 14.7716 6.35093C14.9987 6.89911 15.0581 7.50231 14.9424 8.08425C14.8266 8.66619 14.5409 9.20074 14.1213 9.6203C13.7018 10.0399 13.1672 10.3256 12.5853 10.4413C12.0033 10.5571 11.4001 10.4977 10.8519 10.2706C10.3038 10.0436 9.83524 9.65904 9.50559 9.16569C9.17595 8.67234 9 8.09232 9 7.49898C9 6.70333 9.31607 5.94027 9.87868 5.37766C10.4413 4.81505 11.2044 4.49898 12 4.49898ZM16.21 14.919C16.0787 14.8914 15.9432 14.89 15.8113 14.9147C15.6795 14.9395 15.5537 14.99 15.4414 15.0634C15.329 15.1367 15.2322 15.2315 15.1565 15.3423C15.0808 15.4531 15.0276 15.5777 15 15.709C14.9724 15.8403 14.971 15.9758 14.9958 16.1076C15.0205 16.2395 15.071 16.3652 15.1444 16.4776C15.2178 16.59 15.3125 16.6868 15.4233 16.7625C15.5341 16.8382 15.6587 16.8914 15.79 16.919C18.06 17.369 19 18.179 19 18.499C19 19.079 16.55 20.499 12 20.499C7.45 20.499 5 19.079 5 18.499C5 18.179 5.94 17.369 8.21 16.879C8.34132 16.8514 8.46593 16.7982 8.5767 16.7225C8.68747 16.6468 8.78224 16.55 8.8556 16.4376C8.92896 16.3252 8.97947 16.1995 9.00424 16.0676C9.02902 15.9358 9.02758 15.8003 9 15.669C8.97242 15.5377 8.91925 15.4131 8.84352 15.3023C8.76778 15.1915 8.67097 15.0967 8.55861 15.0234C8.44626 14.95 8.32055 14.8995 8.18867 14.8747C8.05679 14.85 7.92132 14.8514 7.79 14.879C4.75 15.579 3 16.889 3 18.499C3 21.129 7.53 22.499 12 22.499C16.47 22.499 21 21.129 21 18.499C21 16.889 19.25 15.579 16.21 14.919Z" fill="#16141F"/>
</svg>
