<svg width="28" height="28" viewBox="0 0 28 28" fill="none" xmlns="http://www.w3.org/2000/svg">
<path d="M15.644 14.0009L20.6606 8.99587C20.8803 8.77618 21.0037 8.47822 21.0037 8.16753C21.0037 7.85685 20.8803 7.55889 20.6606 7.3392C20.4409 7.11951 20.143 6.99609 19.8323 6.99609C19.5216 6.99609 19.2236 7.11951 19.004 7.3392L13.999 12.3559L8.99395 7.3392C8.77426 7.11951 8.4763 6.99609 8.16562 6.99609C7.85493 6.99609 7.55697 7.11951 7.33729 7.3392C7.1176 7.55889 6.99418 7.85685 6.99418 8.16753C6.99418 8.47822 7.1176 8.77618 7.33729 8.99587L12.354 14.0009L7.33729 19.0059C7.22794 19.1143 7.14114 19.2434 7.08191 19.3855C7.02268 19.5277 6.99219 19.6802 6.99219 19.8342C6.99219 19.9882 7.02268 20.1407 7.08191 20.2829C7.14114 20.425 7.22794 20.5541 7.33729 20.6625C7.44574 20.7719 7.57478 20.8587 7.71695 20.9179C7.85912 20.9771 8.01161 21.0076 8.16562 21.0076C8.31963 21.0076 8.47212 20.9771 8.61429 20.9179C8.75646 20.8587 8.8855 20.7719 8.99395 20.6625L13.999 15.6459L19.004 20.6625C19.1124 20.7719 19.2414 20.8587 19.3836 20.9179C19.5258 20.9771 19.6783 21.0076 19.8323 21.0076C19.9863 21.0076 20.1388 20.9771 20.281 20.9179C20.4231 20.8587 20.5522 20.7719 20.6606 20.6625C20.77 20.5541 20.8568 20.425 20.916 20.2829C20.9752 20.1407 21.0057 19.9882 21.0057 19.8342C21.0057 19.6802 20.9752 19.5277 20.916 19.3855C20.8568 19.2434 20.77 19.1143 20.6606 19.0059L15.644 14.0009Z" fill="#C5C1D7"/>
</svg>
