<svg width="19" height="11" viewBox="0 0 19 11" fill="none" xmlns="http://www.w3.org/2000/svg">
<path fill-rule="evenodd" clip-rule="evenodd" d="M10.3593 10.0379C10.3593 10.0379 10.6842 10.0024 10.8506 9.82701C11.0029 9.66627 10.9976 9.36295 10.9976 9.36295C10.9976 9.36295 10.9773 7.94656 11.6473 7.73743C12.3076 7.53175 13.1554 9.10715 14.0551 9.71294C14.7348 10.171 15.2507 10.0707 15.2507 10.0707L17.655 10.0379C17.655 10.0379 18.9122 9.96182 18.3162 8.99135C18.2669 8.91184 17.9684 8.27322 16.529 6.96139C15.0209 5.58821 15.2234 5.81031 17.0388 3.43468C18.1445 1.98804 18.5865 1.10485 18.4482 0.727208C18.3171 0.365981 17.5036 0.461905 17.5036 0.461905L14.7973 0.478325C14.7973 0.478325 14.5966 0.451535 14.4478 0.538817C14.3025 0.624371 14.2083 0.823996 14.2083 0.823996C14.2083 0.823996 13.7805 1.94311 13.2091 2.89543C12.0039 4.90378 11.5223 5.01008 11.3251 4.88564C10.8664 4.59441 10.9809 3.71727 10.9809 3.09419C10.9809 1.1472 11.2819 0.335735 10.3954 0.12574C10.1014 0.0557413 9.88478 0.00993981 9.13206 0.0021622C8.16628 -0.00734376 7.34929 0.00561891 6.88621 0.227713C6.57807 0.375487 6.34037 0.705604 6.48563 0.724616C6.66435 0.747948 7.06933 0.831774 7.28414 1.11868C7.56146 1.48941 7.55178 2.32075 7.55178 2.32075C7.55178 2.32075 7.71112 4.61256 7.17937 4.89687C6.8149 5.09217 6.31484 4.69379 5.2399 2.87124C4.68966 1.93792 4.27412 0.906093 4.27412 0.906093C4.27412 0.906093 4.194 0.713381 4.0505 0.60968C3.87707 0.484374 3.63496 0.445486 3.63496 0.445486L1.06337 0.461905C1.06337 0.461905 0.676883 0.472275 0.535142 0.637334C0.409247 0.78338 0.525457 1.08671 0.525457 1.08671C0.525457 1.08671 2.53889 5.71093 4.81907 8.04162C6.90998 10.1779 9.28348 10.0379 9.28348 10.0379H10.3593Z" fill="#71708F"/>
</svg>
