<svg width="512" height="512" viewBox="0 0 512 512" fill="none" xmlns="http://www.w3.org/2000/svg">
<rect width="512" height="511.995" rx="48" fill="url(#paint0_linear_997_34539)"/>
<path d="M188.083 399.697V117.578H291.991C294.436 117.578 297.579 117.708 301.421 117.969C305.263 118.1 308.814 118.492 312.074 119.145C326.627 121.627 338.618 127.047 348.049 135.406C357.595 143.765 364.639 154.345 369.18 167.144C373.836 179.814 376.165 193.92 376.165 209.462C376.165 224.874 373.836 238.98 369.18 251.78C364.523 264.45 357.421 274.964 347.874 283.323C338.444 291.682 326.51 297.102 312.074 299.584C308.814 300.106 305.205 300.498 301.247 300.759C297.405 301.021 294.319 301.151 291.991 301.151H230.17V399.697H188.083ZM230.17 257.07H290.245C292.573 257.07 295.193 256.939 298.103 256.678C301.014 256.417 303.691 255.895 306.136 255.111C313.122 253.152 318.594 249.691 322.552 244.727C326.627 239.764 329.479 234.148 331.109 227.879C332.855 221.609 333.729 215.47 333.729 209.462C333.729 203.454 332.855 197.316 331.109 191.046C329.479 184.646 326.627 178.965 322.552 174.002C318.594 169.038 313.122 165.577 306.136 163.618C303.691 162.834 301.014 162.377 298.103 162.247C295.193 161.985 292.573 161.855 290.245 161.855H230.17V257.07Z" fill="white"/>
<defs>
<linearGradient id="paint0_linear_997_34539" x1="256" y1="0" x2="256" y2="511.995" gradientUnits="userSpaceOnUse">
<stop stop-color="#935CE9"/>
<stop offset="1" stop-color="#785AEB"/>
</linearGradient>
</defs>
</svg>
