<svg width="20" height="20" viewBox="0 0 20 20" fill="none" xmlns="http://www.w3.org/2000/svg">
<path d="M17.5013 13.3334H5.83464C5.61362 13.3334 5.40166 13.2456 5.24538 13.0893C5.0891 12.9331 5.0013 12.7211 5.0013 12.5001C5.0013 12.2791 5.0891 12.0671 5.24538 11.9108C5.40166 11.7545 5.61362 11.6667 5.83464 11.6667H14.5346C15.0918 11.6668 15.6331 11.4807 16.0724 11.1379C16.5118 10.7952 16.824 10.3155 16.9596 9.77508L18.3346 4.36675C18.3658 4.24375 18.3686 4.11526 18.3426 3.99106C18.3166 3.86686 18.2626 3.75023 18.1846 3.65008C18.1036 3.54736 17.9995 3.46516 17.8808 3.41015C17.7621 3.35513 17.6321 3.32885 17.5013 3.33341H5.63464C5.46271 2.84712 5.14458 2.42591 4.72386 2.12753C4.30314 1.82915 3.80042 1.6682 3.28464 1.66675H2.5013C2.28029 1.66675 2.06833 1.75455 1.91205 1.91083C1.75577 2.06711 1.66797 2.27907 1.66797 2.50008C1.66797 2.7211 1.75577 2.93306 1.91205 3.08934C2.06833 3.24562 2.28029 3.33341 2.5013 3.33341H3.28464C3.475 3.32787 3.66152 3.38769 3.81314 3.50293C3.96476 3.61816 4.07234 3.78185 4.11797 3.96675L4.16797 4.36675L5.60964 10.0001C4.94659 10.0299 4.32256 10.3219 3.87482 10.8119C3.42708 11.3018 3.1923 11.9495 3.22214 12.6126C3.25197 13.2756 3.54398 13.8997 4.03392 14.3474C4.52386 14.7951 5.17159 15.0299 5.83464 15.0001H5.98464C5.84758 15.3777 5.80354 15.7828 5.85624 16.181C5.90895 16.5792 6.05684 16.9589 6.2874 17.2879C6.51796 17.6168 6.8244 17.8854 7.18076 18.0708C7.53713 18.2562 7.93292 18.353 8.33464 18.353C8.73635 18.353 9.13214 18.2562 9.48851 18.0708C9.84487 17.8854 10.1513 17.6168 10.3819 17.2879C10.6124 16.9589 10.7603 16.5792 10.813 16.181C10.8657 15.7828 10.8217 15.3777 10.6846 15.0001H12.6513C12.5142 15.3777 12.4702 15.7828 12.5229 16.181C12.5756 16.5792 12.7235 16.9589 12.9541 17.2879C13.1846 17.6168 13.4911 17.8854 13.8474 18.0708C14.2038 18.2562 14.5996 18.353 15.0013 18.353C15.403 18.353 15.7988 18.2562 16.1552 18.0708C16.5115 17.8854 16.818 17.6168 17.0485 17.2879C17.2791 16.9589 17.427 16.5792 17.4797 16.181C17.5324 15.7828 17.4884 15.3777 17.3513 15.0001H17.5013C17.7223 15.0001 17.9343 14.9123 18.0906 14.756C18.2468 14.5997 18.3346 14.3878 18.3346 14.1667C18.3346 13.9457 18.2468 13.7338 18.0906 13.5775C17.9343 13.4212 17.7223 13.3334 17.5013 13.3334ZM16.4346 5.00008L15.343 9.36675C15.2973 9.55165 15.1898 9.71534 15.0381 9.83057C14.8865 9.9458 14.7 10.0056 14.5096 10.0001H7.31797L6.06797 5.00008H16.4346ZM8.33464 16.6667C8.16982 16.6667 8.0087 16.6179 7.87166 16.5263C7.73462 16.4347 7.62781 16.3046 7.56474 16.1523C7.50166 16 7.48516 15.8325 7.51731 15.6708C7.54947 15.5092 7.62884 15.3607 7.74538 15.2442C7.86192 15.1276 8.01041 15.0482 8.17206 15.0161C8.33371 14.9839 8.50127 15.0004 8.65354 15.0635C8.80581 15.1266 8.93596 15.2334 9.02753 15.3704C9.11909 15.5075 9.16797 15.6686 9.16797 15.8334C9.16797 16.0544 9.08017 16.2664 8.92389 16.4227C8.76761 16.579 8.55565 16.6667 8.33464 16.6667ZM15.0013 16.6667C14.8365 16.6667 14.6754 16.6179 14.5383 16.5263C14.4013 16.4347 14.2945 16.3046 14.2314 16.1523C14.1683 16 14.1518 15.8325 14.184 15.6708C14.2161 15.5092 14.2955 15.3607 14.412 15.2442C14.5286 15.1276 14.6771 15.0482 14.8387 15.0161C15.0004 14.9839 15.1679 15.0004 15.3202 15.0635C15.4725 15.1266 15.6026 15.2334 15.6942 15.3704C15.7858 15.5075 15.8346 15.6686 15.8346 15.8334C15.8346 16.0544 15.7468 16.2664 15.5906 16.4227C15.4343 16.579 15.2223 16.6667 15.0013 16.6667Z" fill="black"/>
</svg>
