<svg width="20" height="20" viewBox="0 0 20 20" fill="none" xmlns="http://www.w3.org/2000/svg">
<path d="M8.67145 11.2619L9.02542 11.6158L9.37897 11.2615L12.9525 7.67959C12.9527 7.67939 12.9529 7.67918 12.9531 7.67898C13.0155 7.61728 13.0997 7.58266 13.1875 7.58266C13.2756 7.58266 13.36 7.61751 13.4225 7.67959L13.4229 7.67999C13.4541 7.71098 13.4789 7.74785 13.4959 7.78846L13.9574 7.59618L13.4959 7.78847C13.5128 7.82908 13.5215 7.87265 13.5215 7.91666C13.5215 7.96066 13.5128 8.00423 13.4959 8.04485L13.9574 8.23714L13.4959 8.04485C13.4789 8.08547 13.4541 8.12233 13.4229 8.15332L13.4214 8.15477L9.25623 12.32C9.25605 12.3202 9.25587 12.3204 9.25568 12.3205C9.19365 12.3818 9.11009 12.4163 9.0229 12.4167L9.02212 12.4167C8.97825 12.4169 8.93476 12.4085 8.89414 12.3919C8.85391 12.3755 8.81729 12.3514 8.78633 12.3209C8.78603 12.3206 8.78574 12.3203 8.78545 12.32L6.82931 10.3555L6.8153 10.3415L6.80023 10.3286C6.76534 10.2987 6.737 10.2619 6.71699 10.2205C6.69698 10.1792 6.68574 10.1341 6.68397 10.0882C6.68219 10.0423 6.68993 9.99655 6.70669 9.95378C6.72344 9.911 6.74886 9.87215 6.78135 9.83967C6.81383 9.80718 6.85268 9.78176 6.89546 9.76501C6.93823 9.74825 6.98401 9.74051 7.02992 9.74229C7.07582 9.74406 7.12087 9.7553 7.16222 9.77531C7.20358 9.79532 7.24035 9.82366 7.27023 9.85855L7.28279 9.87322L7.29645 9.88688L8.67145 11.2619ZM5.98137 3.48681C7.26956 2.62607 8.78405 2.16666 10.3333 2.16666C11.362 2.16666 12.3806 2.36927 13.331 2.76293C14.2814 3.1566 15.1449 3.73359 15.8723 4.46099C16.5997 5.18838 17.1767 6.05192 17.5704 7.0023C17.9641 7.95269 18.1667 8.9713 18.1667 9.99999C18.1667 11.5493 17.7073 13.0638 16.8465 14.352C15.9858 15.6401 14.7624 16.6442 13.331 17.237C11.8997 17.8299 10.3246 17.9851 8.80513 17.6828C7.28561 17.3806 5.88985 16.6345 4.79433 15.539C3.69882 14.4435 2.95277 13.0477 2.65052 11.5282C2.34827 10.0087 2.50339 8.43366 3.09628 7.0023C3.68917 5.57095 4.69319 4.34755 5.98137 3.48681ZM6.35175 15.9589C7.5303 16.7463 8.9159 17.1667 10.3333 17.1667C12.2341 17.1667 14.0569 16.4116 15.4009 15.0676C16.7449 13.7236 17.5 11.9007 17.5 9.99999C17.5 8.58256 17.0797 7.19696 16.2922 6.0184C15.5047 4.83985 14.3854 3.92128 13.0759 3.37885C11.7664 2.83643 10.3254 2.6945 8.93519 2.97103C7.54499 3.24756 6.26801 3.93012 5.26574 4.93239C4.26346 5.93467 3.5809 7.21165 3.30438 8.60184C3.02785 9.99204 3.16977 11.433 3.7122 12.7426C4.25463 14.0521 5.1732 15.1714 6.35175 15.9589Z" stroke="#EE77BC"/>
</svg>
