<svg width="380" height="263" viewBox="0 0 380 263" fill="none" xmlns="http://www.w3.org/2000/svg">
<path d="M2 159.335C2 220.467 76.4511 244.256 122.789 254.288C169.127 264.32 247.972 263.619 274.681 240.383C301.391 217.147 289.946 198.061 305.346 181.464C327.887 157.172 382.651 148.27 377.956 107.607C369.304 32.6729 272.129 37.3466 176.238 40.6658C80.347 43.9851 2 82.435 2 159.335Z" fill="#DBDBDB"/>
<path d="M2 159.335C2 220.467 76.4511 244.256 122.789 254.288C169.127 264.32 247.972 263.619 274.681 240.383C301.391 217.147 289.946 198.061 305.346 181.464C327.887 157.172 382.651 148.27 377.956 107.607C369.304 32.6729 272.129 37.3466 176.238 40.6658C80.347 43.9851 2 82.435 2 159.335Z" fill="url(#paint0_linear_5441_2385)"/>
<path d="M83.3535 29.2848C83.3535 13.848 95.8675 1.33392 111.304 1.33392H272.577C288.014 1.33392 300.528 13.8479 300.528 29.2847V170.369C300.528 172.668 300.244 174.958 299.683 177.187L289.769 216.602C287.244 226.641 279.377 234.462 269.324 236.929L194.36 255.327C191.295 256.079 188.126 256.307 184.985 256.001L108.592 248.552C94.2735 247.156 83.3535 235.119 83.3535 220.733V29.2848Z" fill="#F1F7FC" stroke="#BCDCFD" stroke-width="2.66198"/>
<rect x="156.776" y="24.3428" width="93.6115" height="11.0647" rx="3.72678" fill="#8DC1FF"/>
<rect x="269.11" y="24.3428" width="9.05918" height="11.0647" rx="3.72678" fill="#BCDCFD"/>
<rect x="117.52" y="17.1514" width="27.7815" height="25.4488" rx="12.7244" fill="#BCDCFD"/>
<path d="M111.854 22.6826L105.321 28.6663C104.671 29.2621 104.671 30.2281 105.321 30.824L111.854 36.8076" stroke="#BCDCFD" stroke-width="2.66198" stroke-linecap="round"/>
<mask id="mask0_5441_2385" style="mask-type:alpha" maskUnits="userSpaceOnUse" x="2" y="40" width="377" height="223">
<path d="M2 159.336C2 198.935 76.8892 243.022 122.789 254.289C168.689 265.556 245.088 267.216 274.681 240.384C304.275 213.553 288.874 190.593 304.275 173.996C326.816 149.704 387.683 159.336 377.956 107.608C363.993 33.3496 271.058 41.3036 176.238 40.667C81.4188 40.0303 2 82.4361 2 159.336Z" fill="#DBDBDB"/>
</mask>
<g mask="url(#mask0_5441_2385)">
<rect x="83.3535" y="1.33685" width="217.174" height="277.275" rx="31.1452" fill="#F1F7FC" stroke="#BCDCFD" stroke-width="2.66198"/>
</g>
<path d="M89.1348 164.868H166.448C171.447 164.868 175.499 168.92 175.499 173.919V237.696C175.499 242.695 171.447 246.747 166.448 246.747H89.1348V164.868Z" fill="#EBA8D3"/>
<path d="M89.1348 164.868H166.448C171.447 164.868 175.499 168.92 175.499 173.919V237.696C175.499 242.695 171.447 246.747 166.448 246.747H89.1348V164.868Z" fill="#BCDCFD"/>
<path d="M83.0957 56.9863H225.635C230.634 56.9863 234.686 61.0385 234.686 66.0371V113.77C234.686 118.769 230.634 122.821 225.635 122.821H83.0957V56.9863Z" fill="#BCDCFD"/>
<path d="M297.496 95.1611H168.243C163.245 95.1611 159.193 99.2133 159.193 104.212V190.672C159.193 195.67 163.245 199.722 168.243 199.722H297.496V95.1611Z" fill="#BCDCFD"/>
<path d="M83.6985 57.544C34.6971 76.0242 2 109.656 2 159.335C2 220.467 76.4512 244.256 122.789 254.288C169.127 264.32 247.972 263.619 274.681 240.383C301.391 217.147 289.946 198.061 305.346 181.464C327.887 157.172 382.651 148.27 377.956 107.607C373.279 67.1021 342.738 49.8573 300.515 43.0857" stroke="#BCDCFD" stroke-width="2.66198"/>
<path fill-rule="evenodd" clip-rule="evenodd" d="M72.6543 156.014C67.6557 156.014 63.6035 160.066 63.6035 165.064V217.691V228.842V253.096C63.6035 255.862 66.88 257.32 68.9355 255.469L88.4545 237.892H163.263C168.261 237.892 172.314 233.84 172.314 228.842V165.064C172.314 160.066 168.262 156.014 163.263 156.014H72.6543Z" fill="#EBA8D3"/>
<path fill-rule="evenodd" clip-rule="evenodd" d="M72.6543 156.014C67.6557 156.014 63.6035 160.066 63.6035 165.064V217.691V228.842V253.096C63.6035 255.862 66.88 257.32 68.9355 255.469L88.4545 237.892H163.263C168.261 237.892 172.314 233.84 172.314 228.842V165.064C172.314 160.066 168.262 156.014 163.263 156.014H72.6543Z" fill="url(#paint1_linear_5441_2385)"/>
<path d="M68.9355 255.469L69.8262 256.458H69.8262L68.9355 255.469ZM88.4545 237.892V236.561H87.9435L87.5638 236.903L88.4545 237.892ZM64.9345 165.064C64.9345 160.801 68.3908 157.345 72.6543 157.345V154.683C66.9206 154.683 62.2725 159.331 62.2725 165.064H64.9345ZM64.9345 217.691V165.064H62.2725V217.691H64.9345ZM64.9345 228.842V217.691H62.2725V228.842H64.9345ZM64.9345 253.096V228.842H62.2725V253.096H64.9345ZM68.0448 254.48C66.8458 255.56 64.9345 254.709 64.9345 253.096H62.2725C62.2725 257.014 66.9143 259.081 69.8262 256.458L68.0448 254.48ZM87.5638 236.903L68.0448 254.48L69.8262 256.458L89.3451 238.881L87.5638 236.903ZM163.263 236.561H88.4545V239.223H163.263V236.561ZM170.983 228.842C170.983 233.105 167.526 236.561 163.263 236.561V239.223C168.997 239.223 173.645 234.575 173.645 228.842H170.983ZM170.983 165.064V228.842H173.645V165.064H170.983ZM163.263 157.345C167.526 157.345 170.983 160.801 170.983 165.064H173.645C173.645 159.331 168.997 154.683 163.263 154.683V157.345ZM72.6543 157.345H163.263V154.683H72.6543V157.345Z" fill="#BCDCFD"/>
<path fill-rule="evenodd" clip-rule="evenodd" d="M102.307 186.47C97.4043 190.933 97.4043 198.168 102.307 202.631L115.486 214.628L120.162 218.885C120.975 219.624 122.217 219.624 123.029 218.885L127.692 214.64C127.703 214.631 127.713 214.621 127.724 214.611L140.853 202.66C145.755 198.197 145.755 190.962 140.853 186.499C135.951 182.036 128.002 182.036 123.1 186.499L122.671 186.889C122.061 187.444 121.13 187.444 120.52 186.889L120.06 186.47C115.157 182.007 107.209 182.007 102.307 186.47Z" fill="#FFFCFC"/>
<rect x="143.489" y="224.062" width="22.9499" height="4.42587" rx="2.21294" fill="#A0CCFE"/>
<path fill-rule="evenodd" clip-rule="evenodd" d="M57.1162 48.1338C52.1176 48.1338 48.0654 52.1859 48.0654 57.1845V95.9883V104.918V126.433C48.0654 129.199 51.3419 130.658 53.3974 128.807L69.8749 113.969H219.594C224.593 113.969 228.645 109.916 228.645 104.918V57.1845C228.645 52.1859 224.593 48.1338 219.594 48.1338H57.1162Z" fill="url(#paint2_linear_5441_2385)"/>
<rect x="99.8389" y="66.9434" width="97.8391" height="11.0647" rx="3.72678" fill="#FFEFF9"/>
<rect x="99.8389" y="83.542" width="102.671" height="11.0647" rx="3.72678" fill="#FFEFF9"/>
<path fill-rule="evenodd" clip-rule="evenodd" d="M328.908 81.332C333.906 81.332 337.959 85.3842 337.959 90.3828V165.721L338.096 165.7V196.145C338.096 198.911 334.819 200.37 332.764 198.519L316.286 183.68H166.43C161.431 183.68 157.379 179.628 157.379 174.63V90.3828C157.379 85.3842 161.431 81.332 166.43 81.332H328.908Z" fill="#FFFCFC"/>
<mask id="mask1_5441_2385" style="mask-type:alpha" maskUnits="userSpaceOnUse" x="157" y="81" width="182" height="119">
<path fill-rule="evenodd" clip-rule="evenodd" d="M328.908 81.333C333.906 81.333 337.959 85.3852 337.959 90.3837V165.722L338.096 165.701V196.146C338.096 198.912 334.819 200.371 332.764 198.52L316.286 183.681H166.43C161.431 183.681 157.379 179.629 157.379 174.631V90.3837C157.379 85.3852 161.431 81.333 166.43 81.333H328.908Z" fill="#FFFCFC"/>
</mask>
<g mask="url(#mask1_5441_2385)">
<path d="M314.961 62.5215H389.733L347.34 204.703H272.567L314.961 62.5215Z" fill="url(#paint3_linear_5441_2385)"/>
<path d="M201.604 60.3086L259.447 62.5215L221.097 190.595L163.254 188.382L201.604 60.3086Z" fill="url(#paint4_linear_5441_2385)"/>
</g>
<path d="M339.469 158.23H338.138V157.483L338.775 157.094L339.469 158.23ZM334.146 199.668L333.259 200.66L334.146 199.668ZM317.801 185.061V183.73H318.309L318.688 184.069L317.801 185.061ZM340.8 158.23V197.286H338.138V158.23H340.8ZM333.259 200.66L316.914 186.054L318.688 184.069L335.033 198.676L333.259 200.66ZM317.801 186.392H284.812V183.73H317.801V186.392ZM338.775 157.094L342.399 154.881L343.786 157.153L340.163 159.365L338.775 157.094ZM340.8 197.286C340.8 201.196 336.175 203.266 333.259 200.66L335.033 198.676C336.234 199.748 338.138 198.896 338.138 197.286H340.8Z" fill="#BCDCFD"/>
<rect x="201.302" y="122.27" width="88.176" height="11.0647" rx="3.72678" fill="#BCDCFD"/>
<rect x="201.302" y="138.867" width="73.6813" height="11.0647" rx="3.72678" fill="#A0CCFE"/>
<rect x="201.302" y="105.673" width="73.6813" height="11.0647" rx="3.72678" fill="#BCDCFD"/>
<rect x="278.304" y="139.421" width="31.4052" height="11.0647" rx="3.72678" fill="#BCDCFD"/>
<rect x="298.703" y="167.635" width="22.9499" height="4.42587" rx="2.21294" fill="#DDEDFC"/>
<rect x="278.169" y="105.673" width="43.4841" height="11.0647" rx="3.72678" fill="#A0CCFE"/>
<path fill-rule="evenodd" clip-rule="evenodd" d="M180.817 163.804C179.14 165.336 179.14 167.82 180.817 169.352L185.326 173.47L185.98 174.068C186.793 174.811 188.039 174.811 188.853 174.068L189.502 173.475C189.506 173.471 189.509 173.468 189.513 173.465L194.004 169.362C195.681 167.83 195.681 165.346 194.004 163.814C192.327 162.282 189.608 162.282 187.931 163.814C187.639 164.08 187.193 164.08 186.902 163.814L186.891 163.804C185.214 162.272 182.495 162.272 180.817 163.804Z" fill="#DDEDFC"/>
<path fill-rule="evenodd" clip-rule="evenodd" d="M58.0622 26.2929C66.8769 28.137 75.1794 31.2881 81.7205 34.4184V37.3783C75.1895 34.1518 66.6239 30.8037 57.5171 28.8985C45.4315 26.3702 32.6075 26.4258 22.2967 32.4119C12.11 38.3259 8.16035 49.3492 11.8581 59.5761C15.5253 69.7185 26.8792 79.4495 48.0707 82.4153V85.1024C26.0278 82.1119 13.4877 71.9119 9.35473 60.4812C5.20121 48.9938 9.70678 36.6431 20.9602 30.1098C32.0894 23.6485 45.688 23.7042 58.0622 26.2929ZM228.479 78.1545C251.166 75.6973 275.788 75.4726 303.642 82.6169C326.019 88.3564 342.282 102.819 345.206 118.159C346.478 124.833 345.255 131.767 340.813 138.388V142.838C347.395 134.826 349.426 126.086 347.821 117.661C344.629 100.914 327.222 85.9167 304.304 80.0383C276.179 72.8247 251.28 73.0288 228.479 75.4755V78.1545ZM157.214 140.132V137.332C112.406 122.705 79.122 126.563 60.7423 139.967C49.6607 148.049 44.0632 159.578 44.7639 172.403C45.3861 183.789 50.9607 196.054 61.7907 207.754V203.762C52.5764 193.09 47.965 182.196 47.4219 172.258C46.7732 160.386 51.9146 149.699 62.3108 142.118C79.8239 129.346 112.429 125.325 157.214 140.132Z" fill="url(#paint5_linear_5441_2385)"/>
<g clip-path="url(#clip0_5441_2385)">
<rect x="168.688" y="92.3926" width="26.5736" height="24.3423" rx="12.1712" fill="#8EC2FF"/>
<path d="M186.701 112.055C185.388 111.215 185.051 111.093 186.131 107.055L187.032 102.799C187.073 102.608 186.927 102.428 186.731 102.428L180.063 102.428C179.922 102.428 179.799 102.523 179.765 102.66L176.418 115.781C176.412 115.806 176.408 115.833 176.409 115.859C176.43 116.351 176.836 116.595 177.332 116.708C177.673 116.786 180.68 116.978 181.026 117.033L181.644 117.132C181.69 117.139 181.736 117.136 181.78 117.123L185.876 115.907C190.783 115.02 187.751 112.728 186.701 112.055Z" fill="#FFD0B6"/>
<path d="M178.586 109.579L183.4 105.453L185.601 106.003L186.013 112.881C185.417 112.743 184.005 112.303 183.125 111.643C182.245 110.982 179.732 111.184 178.586 111.368V109.579Z" fill="#FDC0A7"/>
<path d="M186.151 94.586C188.49 95.4112 189.552 97.4229 190.673 100.5C191.794 103.578 192.546 108.095 191.05 111.026C190.151 112.787 190.406 111.917 189.719 113.155C189.031 114.393 187.057 113.689 185.726 113.156C183.777 112.375 182.993 108.855 183.098 108.098C183.202 107.341 184.86 106.891 183.098 106.236C181.919 105.797 181.244 106.694 178.867 109.878C178.827 109.931 178.805 109.998 178.804 110.065C178.781 113.986 177.443 115.811 174.013 115.019C168.454 113.25 169.313 109.58 170.152 107.147C170.219 106.954 170.452 106.883 170.632 106.977C173.19 108.309 175.79 104.817 174.812 103.839C172.611 101.638 173.962 96.8716 175.835 94.9987C177.348 93.4857 179.911 93.8844 180.668 93.9889C181.425 94.0935 183.253 93.5629 186.151 94.586Z" fill="#232B7D"/>
<path d="M178.663 107.616C179.351 107.616 180.791 107.084 180.658 106.685C180.604 106.524 179.605 106.675 178.663 106.691C177.903 106.705 177.41 106.569 177.348 106.691C177.211 106.966 177.975 107.616 178.663 107.616Z" fill="white"/>
<path d="M170.333 125.055C170.333 123.637 172.608 120.382 173.983 118.932L177.21 115.631L173.983 130.211C172.534 129.385 170.333 127.46 170.333 125.055Z" fill="#F3C3E2"/>
<path d="M178.678 110.026C177.366 110.026 176.212 107.514 175.943 105.752C175.811 104.89 175.677 104.156 175.878 103.416C175.939 103.225 176.076 102.826 176.076 102.826C176.076 102.826 175.822 102.057 175.81 101.363C175.799 100.743 176.789 100.264 177.473 99.5798C178.272 98.7812 179.603 97.1839 179.603 97.1839C179.603 97.1839 179.48 98.6012 180.135 99.846C180.934 101.363 181.732 101.71 182.987 102.191C184.534 102.784 185.04 102.77 185.188 103.801C185.325 104.764 185.53 106.302 184.5 107.515C182.805 109.51 180.236 110.026 178.678 110.026Z" fill="#FFD0B6"/>
<path d="M178.131 106.456C177.333 106.456 176.934 106.589 177.333 107.121C177.599 107.254 177.732 108.229 178.53 108.318C179.727 108.451 180.658 107.387 180.658 106.988C180.658 106.589 178.929 106.456 178.131 106.456Z" fill="#FDC0A7"/>
<path d="M178.663 107.882C179.461 107.882 180.73 107.168 180.658 106.951C180.626 106.856 179.605 106.973 178.663 106.99C177.904 107.003 177.41 106.834 177.348 106.957C177.211 107.232 177.975 107.882 178.663 107.882Z" fill="white"/>
<path d="M176.874 101.099C175.278 100.7 176.076 102.632 176.076 102.84C176.076 103.047 175.677 103.759 175.81 104.424C175.943 105.089 176.659 105.621 177.672 105.621C178.685 105.621 176.874 105.222 177.007 104.424C177.539 104.025 178.238 102.987 178.311 102.84C178.449 102.565 177.87 101.348 176.874 101.099Z" fill="url(#paint6_linear_5441_2385)"/>
<path d="M180.787 102.196C181.549 102.028 182.184 102.365 182.438 102.702" stroke="#232B7D" stroke-width="0.308015" stroke-linecap="round"/>
<path d="M176.386 102.196C177.148 102.028 177.782 102.365 178.036 102.702" stroke="#232B7D" stroke-width="0.308015" stroke-linecap="round"/>
<path d="M177.981 100.96C177.741 101.199 175.826 101.703 175.582 100.98C175.468 100.643 176.08 100.32 176.697 100.234C177.172 100.167 177.655 100.287 177.78 100.364C178.067 100.542 178.093 100.849 177.981 100.96Z" fill="#232B7D"/>
<path d="M182.78 101.66C182.443 101.807 180.366 101.521 180.447 100.661C180.484 100.26 181.219 100.182 181.855 100.354C182.344 100.487 182.759 100.817 182.846 100.951C183.046 101.259 182.937 101.591 182.78 101.66Z" fill="#232B7D"/>
<path d="M181.878 102.564C181.878 102.792 181.693 102.977 181.465 102.977C181.237 102.977 181.053 102.792 181.053 102.564C181.053 102.336 181.237 102.151 181.465 102.151C181.693 102.151 181.878 102.336 181.878 102.564Z" fill="#232B7D"/>
<path d="M177.477 102.564C177.477 102.792 177.292 102.977 177.064 102.977C176.836 102.977 176.651 102.792 176.651 102.564C176.651 102.336 176.836 102.151 177.064 102.151C177.292 102.151 177.477 102.336 177.477 102.564Z" fill="#232B7D"/>
<path d="M178.174 102.564C177.623 104.077 176.95 104.396 177.073 104.765C177.211 105.178 177.807 105.315 178.036 105.453" stroke="#FDC0A7" stroke-width="0.308015" stroke-linecap="round"/>
</g>
<g clip-path="url(#clip1_5441_2385)">
<rect width="26.5736" height="24.3423" rx="12.1712" transform="matrix(-1 0 0 1 85.9492 59.1992)" fill="#E688C5"/>
<path d="M68.7625 79.4287C70.0752 78.5878 70.65 75.6809 69.1791 73.0399L67.7139 69.6622C67.6257 69.4588 67.7748 69.2316 67.9965 69.2316L74.5452 69.2317C74.6994 69.2317 74.8298 69.3457 74.8504 69.4985L76.6327 82.7106C76.6327 83.0605 73.958 83.7819 73.6125 83.8369L72.994 83.9355C72.9485 83.9427 72.902 83.9397 72.8578 83.9266L68.7625 82.7106C63.8552 81.8242 67.7123 80.1013 68.7625 79.4287Z" fill="#FFD0B6"/>
<path d="M76.0527 76.3841L71.2387 72.2578L69.038 72.808C69.038 72.808 69.7117 75.8943 69.7115 77.0333C69.7114 78.1722 68.6253 79.6852 68.6253 79.6852C69.2214 79.5477 70.6335 79.1075 71.5138 78.4473C72.3941 77.7871 74.9065 77.9888 76.0527 78.1722V76.3841Z" fill="#FDC0A7"/>
<path d="M68.4871 61.3916C66.1488 62.2168 65.0866 64.2285 63.9654 67.306C62.8442 70.3834 64.9197 72.7733 66.517 73.3061C67.7451 73.7158 69.7602 74.1248 70.6258 74.292C70.8316 74.3318 71.0011 74.1513 70.871 73.9869C70.577 73.6156 70.1523 73.5573 71.5406 73.0412C72.6995 72.6103 73.3714 71.1937 75.6517 74.1313C75.7538 74.2628 75.9411 74.2949 76.0751 74.1962C76.7602 73.6915 78.7385 72.1684 79.8268 70.6444C81.1578 68.7806 80.6351 64.7977 78.7621 62.9247C77.2288 61.3916 74.7273 60.69 73.9703 60.7945C73.2134 60.8991 71.3858 60.3685 68.4871 61.3916Z" fill="#FFEFF9"/>
<path d="M75.9757 74.4187C75.288 74.4187 73.8479 73.8868 73.9809 73.4879C74.0347 73.3264 75.0341 73.4778 75.9757 73.4941C76.7352 73.5073 77.229 73.3713 77.2904 73.4941C77.428 73.7691 76.6634 74.4187 75.9757 74.4187Z" fill="white"/>
<path d="M84.3047 91.8603C84.3047 90.4424 82.0298 87.1877 80.6544 85.7376L77.4275 82.4365L80.6544 97.0162C82.104 96.191 84.3047 94.2653 84.3047 91.8603Z" fill="#F3C3E2"/>
<path d="M75.9604 76.8314C77.2723 76.8314 78.4259 74.3196 78.6956 72.5572C78.8274 71.6957 78.9615 70.9614 78.7604 70.2217C78.6989 70.0305 78.5626 69.6315 78.5626 69.6315C78.5626 69.6315 78.8161 68.8619 78.8285 68.1686C78.8396 67.5485 78.6272 66.4091 78.2533 65.5169C77.7924 64.4169 76.8785 64.4168 75.7787 64.4168L75.7776 64.4168C74.6773 64.4167 73.3017 64.6916 72.8891 65.2418C71.8646 66.6078 72.8892 67.4427 71.6513 68.996C70.619 70.2913 69.5979 69.5748 69.4505 70.6061C69.313 71.5689 69.108 73.1077 70.1383 74.32C71.8338 76.3149 74.4021 76.8314 75.9604 76.8314Z" fill="#FFD0B6"/>
<path d="M76.6322 73.0391C77.4301 73.0391 77.7037 73.3935 77.3048 73.9255C77.0389 74.0583 76.8977 74.5476 76.0998 74.6363C74.9029 74.7692 73.9702 73.9704 73.9702 73.5715C73.9702 73.1725 75.8343 73.039 76.6322 73.0391Z" fill="#E688C5"/>
<path d="M77.7644 67.9037C79.3603 67.5048 78.5623 69.4367 78.5623 69.6443C78.5624 69.852 78.9613 70.5634 78.8283 71.2284C78.6953 71.8935 77.9792 72.4253 76.9665 72.4253C75.9538 72.4253 77.7644 72.0264 77.6314 71.2284C77.0995 70.8295 76.4011 69.7915 76.3275 69.6444C76.19 69.3693 76.7688 68.1526 77.7644 67.9037Z" fill="url(#paint7_linear_5441_2385)"/>
<path d="M73.8516 69.0009C73.0898 68.8324 72.455 69.1693 72.201 69.5062" stroke="#7D2343" stroke-width="0.308015" stroke-linecap="round"/>
<path d="M78.2529 69.0009C77.4911 68.8323 76.8563 69.1693 76.6024 69.5062" stroke="#7D2343" stroke-width="0.308015" stroke-linecap="round"/>
<path d="M76.6575 67.7671C76.8972 68.0052 78.8128 68.5101 79.0571 67.7871C79.171 67.45 78.5585 67.1271 77.9413 67.0405C77.4666 66.9739 76.9838 67.0934 76.8589 67.1708C76.5718 67.3488 76.5454 67.6557 76.6575 67.7671Z" fill="#7D2343"/>
<path d="M80.0931 67.8826C80.7646 66.7883 79.8269 63.1909 77.4312 62.3928C75.0354 61.5946 72.0143 61.8987 71.0111 62.9255C69.7114 64.2556 70.0413 67.2857 70.2775 67.8826C70.5138 68.4795 79.4217 68.9769 80.0931 67.8826Z" fill="url(#paint8_linear_5441_2385)"/>
<path d="M80.0931 67.8826C80.7646 66.7883 79.8269 63.1909 77.4312 62.3928C75.0354 61.5946 72.0143 61.8987 71.0111 62.9255C69.7114 64.2556 70.0413 67.2857 70.2775 67.8826C70.5138 68.4795 79.4217 68.9769 80.0931 67.8826Z" fill="url(#paint9_linear_5441_2385)"/>
<path d="M72.7607 69.3687C72.7607 69.5966 72.9454 69.7813 73.1733 69.7813C73.4012 69.7813 73.5859 69.5966 73.5859 69.3687C73.5859 69.1408 73.4012 68.9561 73.1733 68.9561C72.9454 68.9561 72.7607 69.1408 72.7607 69.3687Z" fill="#7D2343"/>
<path d="M77.162 69.3687C77.162 69.5966 77.3468 69.7813 77.5747 69.7813C77.8026 69.7813 77.9873 69.5966 77.9873 69.3687C77.9873 69.1408 77.8026 68.9561 77.5747 68.9561C77.3468 68.9561 77.162 69.1408 77.162 69.3687Z" fill="#7D2343"/>
<path d="M76.465 69.3701C77.0152 70.8831 77.6883 71.2018 77.5654 71.5708C77.4279 71.9835 76.8318 72.121 76.6026 72.2586" stroke="#FDC0A7" stroke-width="0.308015" stroke-linecap="round"/>
<path d="M73.1725 80.7618C71.8415 80.4957 68.3809 79.1646 65.4527 78.8984L65.1865 80.4956L67.0499 82.8914L75.3021 85.2872L83.288 82.6252C82.6669 82.0041 81.1584 80.6021 80.0936 79.9632C78.7626 79.1646 74.5035 81.028 73.1725 80.7618Z" fill="#FFD0B6"/>
</g>
<g clip-path="url(#clip2_5441_2385)">
<rect width="26.5736" height="24.3423" rx="12.1712" transform="matrix(-1 0 0 1 98.6299 163.206)" fill="#E688C5"/>
<path d="M81.4431 183.435C82.7559 182.594 83.3307 179.687 81.8598 177.046L80.3946 173.668C80.3063 173.465 80.4554 173.237 80.6771 173.237L87.2258 173.238C87.38 173.238 87.5105 173.352 87.5311 173.504L89.3134 186.716C89.3134 187.066 86.6387 187.788 86.2932 187.843L85.6746 187.941C85.6292 187.949 85.5826 187.946 85.5385 187.932L81.4431 186.716C76.5358 185.83 80.3929 184.107 81.4431 183.435Z" fill="#FFD0B6"/>
<path d="M88.7334 180.39L83.9193 176.264L81.7186 176.814C81.7186 176.814 82.3923 179.9 82.3922 181.039C82.3921 182.178 81.306 183.691 81.306 183.691C81.902 183.554 83.3141 183.113 84.1944 182.453C85.0747 181.793 87.5872 181.995 88.7334 182.178V180.39Z" fill="#FDC0A7"/>
<path d="M81.1678 165.397C78.8294 166.223 77.7672 168.234 76.646 171.312C75.5249 174.389 77.6004 176.779 79.1976 177.312C80.4258 177.722 82.4408 178.131 83.3065 178.298C83.5123 178.338 83.6818 178.157 83.5517 177.993C83.2576 177.621 82.8329 177.563 84.2212 177.047C85.3802 176.616 86.052 175.2 88.3324 178.137C88.4344 178.269 88.6217 178.301 88.7557 178.202C89.4408 177.697 91.4192 176.174 92.5075 174.65C93.8384 172.786 93.3158 168.804 91.4427 166.931C89.9095 165.397 87.4079 164.696 86.651 164.8C85.8941 164.905 84.0665 164.374 81.1678 165.397Z" fill="#FFEFF9"/>
<path d="M88.6564 178.425C87.9687 178.425 86.5285 177.893 86.6615 177.494C86.7154 177.332 87.7147 177.484 88.6564 177.5C89.4159 177.513 89.9097 177.377 89.9711 177.5C90.1087 177.775 89.3441 178.425 88.6564 178.425Z" fill="white"/>
<path d="M96.9854 195.866C96.9853 194.448 94.7105 191.194 93.3351 189.743L90.1081 186.442L93.3351 201.022C94.7846 200.197 96.9854 198.271 96.9854 195.866Z" fill="#F3C3E2"/>
<path d="M88.6411 180.837C89.953 180.837 91.1066 178.325 91.3762 176.563C91.508 175.702 91.6422 174.967 91.441 174.228C91.3796 174.036 91.2432 173.637 91.2432 173.637C91.2432 173.637 91.4968 172.868 91.5092 172.174C91.5203 171.554 91.3079 170.415 90.934 169.523C90.473 168.423 89.5592 168.423 88.4594 168.423L88.4583 168.423C87.358 168.423 85.9824 168.697 85.5698 169.248C84.5452 170.614 85.5699 171.449 84.332 173.002C83.2997 174.297 82.2785 173.581 82.1312 174.612C81.9937 175.575 81.7887 177.114 82.819 178.326C84.5145 180.321 87.0827 180.837 88.6411 180.837Z" fill="#FFD0B6"/>
<path d="M89.3128 177.045C90.1108 177.045 90.3844 177.399 89.9854 177.931C89.7196 178.064 89.5784 178.553 88.7804 178.642C87.5835 178.775 86.6508 177.976 86.6508 177.577C86.6508 177.178 88.5149 177.045 89.3128 177.045Z" fill="#E688C5"/>
<path d="M90.4451 171.91C92.0409 171.511 91.243 173.443 91.243 173.65C91.243 173.858 91.642 174.569 91.509 175.234C91.376 175.899 90.6599 176.431 89.6471 176.431C88.6344 176.431 90.4451 176.032 90.3121 175.234C89.7801 174.835 89.0817 173.797 89.0082 173.65C88.8707 173.375 89.4495 172.158 90.4451 171.91Z" fill="url(#paint10_linear_5441_2385)"/>
<path d="M86.5322 173.007C85.7704 172.838 85.1356 173.175 84.8817 173.512" stroke="#7D2343" stroke-width="0.308015" stroke-linecap="round"/>
<path d="M90.9336 173.007C90.1718 172.838 89.537 173.175 89.2831 173.512" stroke="#7D2343" stroke-width="0.308015" stroke-linecap="round"/>
<path d="M89.3382 171.773C89.5778 172.011 91.4935 172.516 91.7378 171.793C91.8516 171.456 91.2391 171.133 90.622 171.046C90.1472 170.98 89.6645 171.099 89.5396 171.177C89.2524 171.355 89.2261 171.662 89.3382 171.773Z" fill="#7D2343"/>
<path d="M92.7738 171.888C93.4452 170.794 92.5076 167.197 90.1118 166.399C87.716 165.6 84.6949 165.905 83.6917 166.931C82.3921 168.261 82.7219 171.292 82.9582 171.888C83.1945 172.485 92.1024 172.983 92.7738 171.888Z" fill="url(#paint11_linear_5441_2385)"/>
<path d="M85.4413 173.375C85.4413 173.602 85.6261 173.787 85.854 173.787C86.0819 173.787 86.2666 173.602 86.2666 173.375C86.2666 173.147 86.0819 172.962 85.854 172.962C85.6261 172.962 85.4413 173.147 85.4413 173.375Z" fill="#7D2343"/>
<path d="M89.8427 173.375C89.8427 173.602 90.0274 173.787 90.2553 173.787C90.4832 173.787 90.668 173.602 90.668 173.375C90.668 173.147 90.4832 172.962 90.2553 172.962C90.0274 172.962 89.8427 173.147 89.8427 173.375Z" fill="#7D2343"/>
<path d="M89.1457 173.376C89.6959 174.889 90.369 175.208 90.246 175.577C90.1086 175.989 89.5125 176.127 89.2833 176.264" stroke="#FDC0A7" stroke-width="0.308015" stroke-linecap="round"/>
<path d="M85.8522 184.768C84.5211 184.502 81.0606 183.17 78.1324 182.904L77.8662 184.501L79.7296 186.897L87.9817 189.293L95.9677 186.631C95.3466 186.01 93.8381 184.608 92.7733 183.969C91.4423 183.17 87.1832 185.034 85.8522 184.768Z" fill="#FFD0B6"/>
</g>
<defs>
<linearGradient id="paint0_linear_5441_2385" x1="195.428" y1="254.214" x2="191.7" y2="52.2726" gradientUnits="userSpaceOnUse">
<stop offset="0" stop-color="#BCDCFD"/>
<stop offset="1" stop-color="#8BC0FF"/>
</linearGradient>
<linearGradient id="paint1_linear_5441_2385" x1="117.967" y1="256.296" x2="121.635" y2="156.047" gradientUnits="userSpaceOnUse">
<stop offset="0" stop-color="#81BBFF"/>
<stop offset="1" stop-color="#FF8FDC"/>
</linearGradient>
<linearGradient id="paint2_linear_5441_2385" x1="138.657" y1="-29.3523" x2="138.4" y2="129.634" gradientUnits="userSpaceOnUse">
<stop offset="0" stop-color="#EBA8D3"/>
<stop offset="1" stop-color="#FFDCF3"/>
</linearGradient>
<linearGradient id="paint3_linear_5441_2385" x1="331.15" y1="62.5215" x2="331.15" y2="204.703" gradientUnits="userSpaceOnUse">
<stop offset="0" stop-color="#F1F7FC" stop-opacity="0"/>
<stop offset="0.338591" stop-color="#F1F7FC"/>
</linearGradient>
<linearGradient id="paint4_linear_5441_2385" x1="221.097" y1="62.5215" x2="221.097" y2="190.595" gradientUnits="userSpaceOnUse">
<stop offset="0" stop-color="#F1F7FC" stop-opacity="0"/>
<stop offset="0.338591" stop-color="#F1F7FC"/>
</linearGradient>
<linearGradient id="paint5_linear_5441_2385" x1="230.841" y1="4.67449" x2="230.841" y2="102.568" gradientUnits="userSpaceOnUse">
<stop offset="0" stop-color="#6FA6E3"/>
<stop offset="1" stop-color="#E36EB9"/>
</linearGradient>
<linearGradient id="paint6_linear_5441_2385" x1="177.14" y1="102.163" x2="177.057" y2="105.621" gradientUnits="userSpaceOnUse">
<stop offset="0" stop-color="#FDC0A7"/>
<stop offset="1" stop-color="#FDC0A7" stop-opacity="0"/>
</linearGradient>
<linearGradient id="paint7_linear_5441_2385" x1="77.4984" y1="68.9675" x2="77.5815" y2="72.4253" gradientUnits="userSpaceOnUse">
<stop offset="0" stop-color="#FDC0A7"/>
<stop offset="1" stop-color="#FDC0A7" stop-opacity="0"/>
</linearGradient>
<linearGradient id="paint8_linear_5441_2385" x1="68.1142" y1="66.1194" x2="85.6833" y2="60.263" gradientUnits="userSpaceOnUse">
<stop offset="0.381594" stop-color="#7D2343"/>
<stop offset="1" stop-color="#F8C9E7"/>
</linearGradient>
<linearGradient id="paint9_linear_5441_2385" x1="63.3227" y1="67.9822" x2="85.6833" y2="60.263" gradientUnits="userSpaceOnUse">
<stop offset="0" stop-color="#F8C9E7"/>
<stop offset="0.724008" stop-color="#FFEFF9"/>
</linearGradient>
<linearGradient id="paint10_linear_5441_2385" x1="90.1791" y1="172.973" x2="90.2621" y2="176.431" gradientUnits="userSpaceOnUse">
<stop offset="0" stop-color="#FDC0A7"/>
<stop offset="1" stop-color="#FDC0A7" stop-opacity="0"/>
</linearGradient>
<linearGradient id="paint11_linear_5441_2385" x1="76.0034" y1="171.988" x2="98.364" y2="164.269" gradientUnits="userSpaceOnUse">
<stop offset="0" stop-color="#F8C9E7"/>
<stop offset="0.724008" stop-color="#FFEFF9"/>
</linearGradient>
<clipPath id="clip0_5441_2385">
<rect x="168.688" y="92.3926" width="26.5736" height="24.3423" rx="12.1712" fill="white"/>
</clipPath>
<clipPath id="clip1_5441_2385">
<rect width="26.5736" height="24.3423" rx="12.1712" transform="matrix(-1 0 0 1 85.9492 59.1992)" fill="white"/>
</clipPath>
<clipPath id="clip2_5441_2385">
<rect width="26.5736" height="24.3423" rx="12.1712" transform="matrix(-1 0 0 1 98.6299 163.206)" fill="white"/>
</clipPath>
</defs>
</svg>
