<svg xmlns="http://www.w3.org/2000/svg" width="80" height="80" viewBox="0 0 81 80" fill="none"><rect id="backgroundrect3" width="100%" height="100%" x="0" y="0" fill="none" stroke="none"/>


<defs>
<linearGradient id="paint0_linear_3673_695" x1="0" y1="0.5555555399727855" x2="1.0184886476018424" y2="0.5354620176407087">
<stop offset="0" stop-color="#4598FB"/>
<stop offset="1" stop-color="#D15EAE"/>
</linearGradient>
</defs>
<g class="currentLayer" style=""><title>Layer 1</title><rect width="80" height="80" rx="40" fill="#E9F4FF" id="svg_1c"/><path fill-rule="evenodd" clip-rule="evenodd" d="M40.0068 17.478V17.4688C39.9462 17.4688 39.8859 17.4696 39.8261 17.4711C39.7656 17.4695 39.7046 17.4688 39.6433 17.4688V17.4781C36.629 17.6341 34.8584 19.7356 34.8037 22.0384C34.7718 23.3815 35.322 24.6929 36.4019 25.6435C33.5171 26.4581 31.4191 27.9359 29.9494 29.652C28.0114 31.9151 27.2089 34.5418 27.0753 36.4786L27.0729 36.513V36.5475V46.6715C27.0729 47.8142 26.6621 49.2708 26.0337 50.7818C25.4142 52.2715 24.6229 53.7213 23.9493 54.8193C23.274 55.9202 24.0229 57.434 25.396 57.434H37.2862C32.5931 61.7006 23.1111 68.5173 11.5078 69.8823L11.7415 71.8686C24.9958 70.3093 35.5071 62.0294 39.8402 57.7727C43.917 61.8866 54.3283 70.2678 67.9413 71.8693L68.175 69.883C56.2667 68.482 46.856 61.6012 42.3672 57.4341H54.2541C55.6272 57.4341 56.3762 55.9202 55.7008 54.8194C55.0272 53.7213 54.2359 52.2715 53.6164 50.7818C52.988 49.2709 52.5772 47.8143 52.5772 46.6716V36.5475V36.5131L52.5748 36.4787C52.4412 34.5419 51.6387 31.9152 49.7007 29.6521C48.231 27.9359 46.1329 26.4581 43.2481 25.6435C44.3278 24.6932 44.878 23.3821 44.8464 22.0394C44.7922 19.7362 43.0216 17.6341 40.0068 17.478ZM39.8258 19.472C37.7602 19.545 36.8324 20.8543 36.8032 22.0859C36.7745 23.2927 37.6128 24.7184 39.8249 25.0336C42.0369 24.7186 42.8754 23.2931 42.847 22.0864C42.818 20.8549 41.8906 19.5456 39.8258 19.472ZM39.8248 27.0486C39.796 27.0516 39.7671 27.0545 39.7381 27.0573C35.6651 27.4452 33.0752 29.0767 31.4686 30.9529C29.8529 32.8396 29.1875 35.0266 29.0729 36.583V46.6715C29.0729 48.2118 28.5412 49.9609 27.8804 51.5497C27.2906 52.9679 26.5653 54.3348 25.914 55.434H39.6433V55.4341H53.7362C53.0848 54.3348 52.3595 52.9679 51.7697 51.5498C51.1089 49.9609 50.5772 48.2118 50.5772 46.6716V36.5831C50.4626 35.0267 49.7973 32.8397 48.1816 30.9529C46.5749 29.0767 43.985 27.4453 39.912 27.0574C39.8828 27.0546 39.8538 27.0516 39.8248 27.0486ZM26.5523 24.4626C26.8488 24.9286 26.7115 25.5467 26.2455 25.8432C22.1814 28.4294 20.8539 32.7974 20.7052 34.5826C20.6593 35.1329 20.176 35.5419 19.6256 35.4961C19.0752 35.4502 18.6662 34.9668 18.7121 34.4165C18.8967 32.2016 20.4359 27.1696 25.1718 24.1559C25.6377 23.8593 26.2558 23.9967 26.5523 24.4626ZM53.1718 25.8432C52.7058 25.5467 52.5685 24.9286 52.865 24.4626C53.1615 23.9967 53.7796 23.8593 54.2455 24.1559C58.9814 27.1696 60.5206 32.2016 60.7052 34.4165C60.751 34.9668 60.3421 35.4502 59.7917 35.4961C59.2413 35.5419 58.758 35.1329 58.7121 34.5826C58.5633 32.7974 57.2359 28.4294 53.1718 25.8432Z" fill="url(#paint0_linear_3673_695)" id="svg_2c"/><path fill="#ffffff" fill-opacity="1" stroke="#ffffff" stroke-opacity="1" stroke-width="1" stroke-dasharray="none" stroke-linejoin="round" stroke-linecap="butt" stroke-dashoffset="" fill-rule="nonzero" opacity="1" marker-start="" marker-mid="" marker-end="" id="svg_3c" d="M 69.96077920016337 66.96612691592478 C 69.96077920016337 66.96612691592478 60.33511114368219 76.59179497240596 60.32085561497326 76.57754010695187 C 60.33511114368219 76.59179497240596 68.35650119074984 78.08912111452526 68.34224598930481 78.07486631016043 C 68.35650119074984 78.08912111452526 73.91799829005008 69.10516426180949 73.90374331550802 69.0909090909091 C 73.91799829005008 69.10516426180949 69.96077920016337 66.96612691592478 69.96077920016337 66.96612691592478 z" style="color: rgb(0, 0, 0);"/><path fill="#ffffff" fill-opacity="1" stroke="#ffffff" stroke-opacity="1" stroke-width="1" stroke-dasharray="none" stroke-linejoin="round" stroke-linecap="butt" stroke-dashoffset="" fill-rule="nonzero" opacity="1" marker-start="" marker-mid="" marker-end="" id="svg_5b" d="M 17.340460491399586 73.81104642275585 C 17.23350862410535 73.81104642275585 6.859177496564524 65.04099330462854 6.8449197860962565 65.02673796791444 C 6.859177496564524 65.04099330462854 1.5115841318527536 73.16933521899043 1.4973262032085561 73.15508021390374 C 1.5115841318527536 73.16933521899043 9.63992604621464 77.76826551264256 9.625668449197862 77.75401069518716 C 9.63992604621464 77.76826551264256 17.44741235869382 73.81104642275585 17.340460491399586 73.81104642275585 z" style="color: rgb(0, 0, 0);"/></g></svg>
