<svg width="28" height="28" viewBox="0 0 28 28" fill="none" xmlns="http://www.w3.org/2000/svg">
<path fill-rule="evenodd" clip-rule="evenodd" d="M14 4.5C8.75329 4.5 4.5 8.75329 4.5 14C4.5 19.2467 8.75329 23.5 14 23.5C19.2467 23.5 23.5 19.2467 23.5 14C23.5 8.75329 19.2467 4.5 14 4.5ZM3.5 14C3.5 8.20101 8.20101 3.5 14 3.5C19.799 3.5 24.5 8.20101 24.5 14C24.5 19.799 19.799 24.5 14 24.5C8.20101 24.5 3.5 19.799 3.5 14ZM14 7.5C14.2761 7.5 14.5 7.72386 14.5 8V13.691L18.2236 15.5528C18.4706 15.6763 18.5707 15.9766 18.4472 16.2236C18.3237 16.4706 18.0234 16.5707 17.7764 16.4472L13.7764 14.4472C13.607 14.3625 13.5 14.1894 13.5 14V8C13.5 7.72386 13.7239 7.5 14 7.5Z" fill="#6C757D"/>
</svg>
