<svg width="33" height="31" viewBox="0 0 33 31" fill="none" xmlns="http://www.w3.org/2000/svg">
<path d="M2.88168 4.76336C3.9209 4.76336 4.76336 3.9209 4.76336 2.88168C4.76336 1.84246 3.9209 1 2.88168 1C1.84246 1 1 1.84246 1 2.88168C1 3.9209 1.84246 4.76336 2.88168 4.76336Z" stroke="#78798D" stroke-width="1.99237" stroke-miterlimit="10"/>
<path d="M8.30542 2.7312H31.8995" stroke="#78798D" stroke-width="1.99237" stroke-miterlimit="10" stroke-linecap="round"/>
<path d="M2.88168 17.3816C3.9209 17.3816 4.76336 16.5391 4.76336 15.5C4.76336 14.4608 3.9209 13.6183 2.88168 13.6183C1.84246 13.6183 1 14.4608 1 15.5C1 16.5391 1.84246 17.3816 2.88168 17.3816Z" stroke="#78798D" stroke-width="1.99237" stroke-miterlimit="10"/>
<path d="M8.39819 15.5H31.9923" stroke="#78798D" stroke-width="1.99237" stroke-miterlimit="10" stroke-linecap="round"/>
<path d="M2.88168 30.0001C3.9209 30.0001 4.76336 29.1575 4.76336 28.1184C4.76336 27.0792 3.9209 26.2367 2.88168 26.2367C1.84246 26.2367 1 27.0792 1 28.1184C1 29.1575 1.84246 30.0001 2.88168 30.0001Z" stroke="#78798D" stroke-width="1.99237" stroke-miterlimit="10"/>
<path d="M8.39819 28.2997H31.9923" stroke="#78798D" stroke-width="1.99237" stroke-miterlimit="10" stroke-linecap="round"/>
</svg>
