<svg width="325" height="360" viewBox="0 0 325 360" fill="none" xmlns="http://www.w3.org/2000/svg">
<ellipse cx="163" cy="197.88" rx="162" ry="162.119" fill="#E9F4FF"/>
<path d="M120.104 89.896C77.1975 97.1192 91.6951 121.749 60.6138 147.592C29.5326 173.434 11.5798 191.996 7.30957 227.307C3.90319 255.459 24.2845 353.891 111.001 319.549C184.547 290.428 234.242 334.833 260.67 307.933C297.154 270.784 249.872 258.208 293.854 211.21C326.809 175.989 308.685 137.465 291.849 121.286C267.923 98.2905 243.108 110.996 204.057 112.102C167.695 113.095 147.126 85.349 120.104 89.896Z" fill="#A8AAFB"/>
<path d="M310.558 156.375C313.745 172.383 314.584 194.028 299.508 213.624C284.155 233.585 282.231 234.041 284.26 253.172C286.289 272.304 286.159 296.064 263.235 312.714C263.235 312.714 233.401 340.29 198.661 323.688C181.605 315.553 158.778 309.216 124.119 320.434C88.1977 332.041 73.1135 325.315 73.1135 325.315L310.558 156.375ZM32.0982 175.28C32.0982 175.28 1.82384 200.439 1.00891 246.047C0.438461 278.502 27.3636 314.374 54.5169 321.565L32.0982 175.28Z" stroke="#A8AAFB" stroke-width="0.800226" stroke-miterlimit="10" stroke-linecap="round"/>
<path d="M65.4601 289.824C65.0689 292.719 65.3378 293.988 63.9281 296.143C61.5485 299.78 61.7033 305.499 65.8757 307.101C68.402 308.068 74.954 307.06 76.2008 306.906C77.4477 306.751 76.7712 298.429 76.7712 298.429C76.5745 296.005 76.6758 293.566 77.0728 291.166C71.9062 291.638 65.4601 289.824 65.4601 289.824Z" fill="#E1A487"/>
<path d="M72.6232 293.656C72.5579 295.552 72.7291 296.91 71.5963 299.595C70.7162 301.702 67.8966 307.891 74.0411 309.184C77.4719 309.908 80.1857 308.046 84.4314 308.77C88.1508 309.376 91.9173 309.648 95.6855 309.583C98.5867 309.534 102.4 309.095 102.4 307.542C102.4 305.752 97.1523 305.037 94.7728 304.345C92.6539 303.734 90.7878 302.522 87.577 301.424C84.3662 300.327 83.0868 298.7 83.046 295.69C83.0053 292.68 83.1519 293.055 83.1519 293.055L72.6232 293.656Z" fill="#FFC5AA"/>
<path d="M67.044 203.329C67.044 203.329 69.7333 221.728 69.3177 227.821C68.902 233.914 64.5584 239.608 63.1079 245.717C61.6573 251.825 63.2138 265.661 63.8332 271.55C64.4525 277.44 65.2919 286.802 65.3652 290.609C69.1139 293.049 74.908 291.707 74.908 291.707L79.7975 217.922C79.7975 217.922 67.2477 203.85 67.044 203.329Z" fill="#272B7B"/>
<path d="M62.4187 142.875C62.4187 142.875 63.3478 148.349 61.4082 151.415C78.3261 158.582 87.331 151.244 87.331 151.244C87.331 151.244 87.0214 146.283 87.1273 143.388C72.2142 144.323 62.4187 142.875 62.4187 142.875Z" fill="#FFC5AA"/>
<path d="M61.1737 151.496C61.1737 151.496 53.766 159.207 53.7578 172.303C53.7578 183.43 62.559 192.143 62.559 192.143C62.559 192.143 64.8979 200.496 68.3695 209.175C69.8771 212.925 75.606 223.003 74.8888 228.697C74.2206 234.033 68.182 243.07 71.4662 260.941C74.7503 278.812 72.4278 288.825 72.6723 294.145C78.4746 297.179 83.1114 294.283 83.1359 293.729C83.1603 293.176 94.1782 229.039 94.3167 221.735C94.4552 214.43 87.3409 151.219 87.3409 151.219C87.3409 151.219 73.6094 155.066 61.1737 151.496Z" fill="#353AA8"/>
<path d="M87.131 143.363C83.1541 148.145 62.2268 144.086 62.2432 143.948C62.8951 137.368 62.3165 128.583 60.8496 116.495C75.9421 97.4774 81.8503 92.7271 81.8503 92.7271C82.16 92.9305 90.464 103.391 90.3581 108.638C90.2114 116.422 87.9134 118.764 87.7504 124.662" fill="#F461DB"/>
<path d="M73.1302 45.1088C73.1302 45.1088 74.1163 37.0478 67.4258 34.7051C62.6014 33.0132 60.8411 37.8857 56.2857 38.9431C53.5557 39.5695 47.6393 41.0417 47.8512 47.0773C48.0875 53.7148 56.0005 54.8454 56.0005 54.8454L73.1302 45.1088Z" fill="#471597"/>
<path d="M84.5932 56.6928C84.5932 56.6928 88.3907 51.9587 82.4254 45.3049C79.1658 41.7096 73.5183 40.8881 68.262 43.6781C65.3691 45.1992 63.5355 48.3553 59.2082 48.884C56.1197 49.2582 49.4291 55.2693 52.0043 63.5255C55.4514 74.6287 69.5578 75.2306 69.5578 75.2306L84.5932 56.6928Z" fill="#611CCF"/>
<path d="M66.7393 68.3807C67.9208 73.0578 68.9232 80.1915 66.7393 91.3516C78.5394 93.9383 82.2228 93.4176 82.2228 93.4176C82.2228 93.4176 80.4951 82.6724 81.7338 72.5454C70.7812 66.5505 66.7393 68.3807 66.7393 68.3807Z" fill="#FFC5AA"/>
<path d="M66.7393 68.3806C66.7393 68.3806 69.0699 82.5179 81.4567 85.3567C81.2856 80.5576 81.3346 78.9551 81.3346 78.9551L66.8696 65.2246L66.7393 68.3806Z" fill="#E1A487"/>
<path d="M84.8169 55.9191C86.8298 59.7992 90.0488 67.185 89.6331 73.3344C89.1523 80.4682 81.1905 79.7523 77.4092 78.0035C70.1482 74.6684 68.6325 72.4072 66.8153 68.828C64.5253 69.796 60.5322 64.9887 63.5555 62.5485C64.9001 61.4504 66.8153 62.4265 66.8153 62.4265C68.7277 58.8786 71.762 56.0617 75.4453 54.4143C81.8996 51.3558 83.5619 53.4952 84.8169 55.9191Z" fill="#FFC5AA"/>
<path d="M80.4873 63.8743C80.636 63.9653 80.7945 64.0391 80.96 64.0941C81.2658 64.2027 81.5903 64.2496 81.9146 64.2318C82.2388 64.2139 82.5562 64.1318 82.8483 63.9902C83.1404 63.8486 83.4012 63.6502 83.6158 63.4068C83.8302 63.1635 83.9939 62.8797 84.0975 62.5724C84.2561 62.0887 84.2561 61.5671 84.0975 61.0835" stroke="#3F3B3F" stroke-width="0.800226" stroke-miterlimit="10" stroke-linecap="round"/>
<path d="M83.8633 72.8071C85.4931 74.1171 87.3919 74.1008 88.3944 73.2952" stroke="#E1A487" stroke-width="0.800226" stroke-miterlimit="10" stroke-linecap="round"/>
<path d="M80.3749 71.4235C81.8107 71.4235 82.9746 70.2618 82.9746 68.8288C82.9746 67.3957 81.8107 66.2339 80.3749 66.2339C78.9392 66.2339 77.7754 67.3957 77.7754 68.8288C77.7754 70.2618 78.9392 71.4235 80.3749 71.4235Z" fill="#E1A487"/>
<path d="M82.4296 57.4165C81.2479 57.8626 80.1887 58.5816 79.3389 59.5148C78.4891 60.4479 77.8726 61.5686 77.54 62.7851" stroke="#471597" stroke-width="0.800226" stroke-miterlimit="10" stroke-linecap="round"/>
<path d="M67.7577 47.2396L65.8996 49.2163L71.0744 46.2716L67.7577 47.2396ZM59.3557 46.8899C64.8646 45.7999 68.6052 40.0572 72.8265 40.9682C72.8265 38.2677 72.8265 34.6479 67.2931 33.7044C60.9286 32.6225 60.7737 38.1782 55.6397 38.5849C52.8444 38.8127 47.3601 39.8701 46.9852 46.0032C46.7896 49.1918 49.6418 51.9331 50.8316 52.6733C51.7932 51.1197 52.9749 48.1913 59.3557 46.8899Z" fill="#611CCF"/>
<path d="M61.8032 37.6169C61.8032 37.6169 65.4948 40.1548 64.2479 43.0669L61.8032 37.6169ZM73.5217 44.3033C73.5217 44.3033 79.1529 44.4904 81.2391 50.8107L73.5217 44.3033ZM55.4549 58.8472C56.2698 67.7948 63.2536 69.4217 63.2536 69.4217L55.4549 58.8472ZM60.3118 51.5752C60.3118 51.5752 58.9835 57.5864 61.7787 61.4013L60.3118 51.5752ZM67.801 46.89C69.203 46.8926 70.5639 47.3633 71.667 48.2271C72.7701 49.0908 73.552 50.298 73.8884 51.6566L67.801 46.89ZM64.7532 51.3557C64.1745 52.7791 64.3293 56.5452 66.8312 59.9209L64.7532 51.3557ZM51.8447 41.0496C50.6568 42.2474 49.9849 43.8614 49.9728 45.5468C49.9606 47.2322 50.609 48.8556 51.7795 50.0705L51.8447 41.0496ZM65.1525 35.1768C65.4459 35.1768 68.0781 35.2825 70.5717 38.7558L65.1525 35.1768ZM56.5713 40.3176C56.5713 40.3176 54.1266 43.0506 58.0626 45.3444L56.5713 40.3176Z" stroke="#471597" stroke-width="0.800226" stroke-miterlimit="10" stroke-linecap="round"/>
<path d="M85.419 158.321C85.3783 157.647 82.1594 156.614 78.8589 155.474C78.4433 155.336 81.1733 151.114 79.7716 150.724C78.5003 150.374 76.7238 154.555 75.094 154.035C74.0207 153.755 73.0091 153.277 72.1113 152.627C68.3545 150.187 66.8632 148.935 64.1496 145.079C61.4358 141.223 52.0479 128.355 52.7405 127.346C53.4332 126.338 63.2287 118.066 67.9064 114.763C72.584 111.46 81.76 104.563 83.1291 99.7389C84.4982 94.9155 82.9254 91.4095 81.0184 89.6852C75.4118 84.6176 68.4686 86.6511 64.72 91.8814C62.3892 95.1351 61.7699 98.4863 55.4053 103.944C49.0408 109.402 47.3295 114.625 43.3201 117.521C39.3106 120.416 35.456 124.686 35.8717 127.989C36.2872 131.292 39.8729 136.123 44.9825 140.532C50.092 144.94 56.8559 149.666 61.1343 152.929C64.4918 155.49 69.6503 160.705 71.3127 161.877C73.6434 163.503 78.973 166.326 79.1848 165.602C79.5679 164.259 75.5666 162.6 76.023 161.778C76.4794 160.957 83.4469 166.049 84.2374 164.878C85.0278 163.706 78.6552 160.396 78.2477 159.712C77.8402 159.029 85.1012 162.73 85.582 161.429C86.0303 160.299 80.4806 158.037 79.8206 157.589C79.8775 157.597 85.4843 159.565 85.419 158.321Z" fill="#FFC5AA"/>
<path d="M77.2059 152.855C77.2059 152.855 78.738 150.187 79.7729 150.724C80.6694 151.196 79.8137 152.855 79.8137 152.855H77.2059ZM65.2102 91.084C67.1823 88.8959 70.8739 86.4475 75.2011 86.7647C79.9847 87.1145 84.744 90.5797 83.3505 97.876L65.2102 91.084ZM61.3066 141.076C61.3066 141.076 67.2312 151.447 74.8996 153.823L61.3066 141.076Z" stroke="#E1A487" stroke-width="0.800226" stroke-miterlimit="10" stroke-linecap="round"/>
<path d="M270.376 207.727C270.376 207.727 272.902 220.1 273.44 225.42C273.977 230.739 272.624 232.342 273.969 234.734C275.314 237.124 279.673 240.988 280.236 251.766C280.798 262.545 279.698 276.511 279.168 281.432C278.639 286.353 278.663 293.136 280.383 295.927C282.102 298.717 283.699 302.581 282.771 304.712C281.841 306.843 279.698 307.64 277.302 307.502C274.907 307.363 271.036 306.338 264.508 307.502C257.981 308.665 249.448 307.892 248.91 306.559L248.674 302.784C250.439 302.495 252.186 302.104 253.905 301.613C255.968 301.011 259.611 299.864 263.627 298.807C267.645 297.749 269.169 296.447 268.517 293.926C267.866 291.405 260.369 245.121 258.25 242.046C256.13 238.972 254.916 238.849 254.517 233.912C254.117 228.974 255.984 206.378 255.984 206.378L270.376 207.727Z" fill="#FFC5AA"/>
<path d="M260.108 211.992C260.108 211.992 259.178 227.683 258.241 231.945C257.304 236.207 255.316 239.924 255.845 242.055C256.375 244.187 257.475 248.97 256.375 253.631C255.275 258.292 248.91 286.624 248.649 291.674C248.389 296.726 249.317 297.791 249.978 300.857C250.638 303.925 250.981 307.316 248.21 308.993C246.4 310.098 242.383 310.766 237.118 309.18C232.791 307.877 226.207 309.863 220.176 310.563C215.36 311.124 210.812 308.935 209.485 307.528C207.855 305.795 210.185 304.128 215.189 304.176C219.182 304.176 224.968 301.874 228.92 301.094C234.339 300.029 234.999 300.63 236.393 297.369C238.275 292.984 237.73 284.069 237.208 274.886C236.687 265.702 238.544 245.887 237.208 241.894C235.871 237.899 234.413 234.182 234.543 231.123C234.674 228.065 235.211 214.359 235.211 214.359L260.108 211.992Z" fill="#FFC5AA"/>
<path d="M270.373 207.729L272.28 217.482L259.763 216.319L260.105 209.243L270.373 207.729Z" fill="#E1A487"/>
<path d="M264.342 177.763C264.342 177.763 268.93 191.135 270.046 196.919C271.163 202.701 275.482 205.101 275.083 207.298C274.684 209.494 271.489 211.365 267.187 210.991C262.884 210.616 260.789 211.991 260.789 211.991L264.342 177.763Z" fill="#272B7B"/>
<path d="M260.103 211.992L259.483 222.868L235.068 219.581L235.183 214.383L260.103 211.992Z" fill="#E1A487"/>
<path d="M260.009 213.422C260.009 213.422 259.153 224.575 258.534 230.252C257.915 235.929 255.779 237.955 255.779 240.875C255.779 242.306 256.17 243.454 256.595 245.796" stroke="#E1A487" stroke-width="0.800226" stroke-miterlimit="10" stroke-linecap="round"/>
<path d="M262.804 152.821C262.804 152.821 265.551 156.945 266.463 168.382C267.279 178.395 264.402 185.122 263.612 192.329C262.878 198.999 262.593 205.482 264.344 212.664C264.899 214.941 263.53 215.657 260.408 215.365C257.288 215.072 245.739 215.56 241.617 216.658C237.493 217.756 230.924 217.472 230.818 216.056C230.712 214.641 234.217 189.815 232.522 181.835C230.826 173.856 228.724 159.19 229.222 154.301C240.117 155.61 262.804 152.821 262.804 152.821Z" fill="#353AA8"/>
<path d="M243.612 85.4056C243.612 85.4056 244.354 80.94 235.153 73.9445C231.225 70.9593 226.247 69.6904 222.546 63.4596C220.053 59.2542 217.722 56.8709 213.582 52.6167C209.443 48.3626 191.579 23.3336 189.461 18.5589C187.342 13.7841 185.517 9.40789 185.385 5.39774C185.166 0.0535729 183.332 -0.16605 180.056 0.0535735C177.75 0.208123 172.054 0.6067 171.304 1.94884C170.75 2.94934 171.769 5.12118 171.769 5.12118C171.769 5.12118 169.633 3.25845 168.305 4.0556C166.977 4.85274 168.501 8.12268 170.57 10.1725C173.505 13.1008 177.636 15.6306 179.901 17.8918C182.167 20.1532 187.366 29.3366 189.232 34.6564C191.896 42.0303 195.009 49.2345 198.555 56.2282C202.157 63.1261 211.887 73.7006 218.016 81.6476C224.144 89.5947 232.815 100.104 234.143 102.797C242.251 90.6603 243.612 85.4056 243.612 85.4056Z" fill="#FFC5AA"/>
<path d="M292.828 156.573C289.291 161.965 282.486 164.341 281.175 163.617C280.311 162.275 279.023 155.255 283.041 149.789C287.058 144.323 293.439 142.899 294.987 143.412C296.577 144.753 296.324 151.253 292.828 156.573Z" fill="#353AA8"/>
<path d="M257.708 83.1678C257.708 83.1678 247.384 83.8022 242.714 80.939C240.008 81.4351 236.194 83.7371 234.051 89.3823C230.163 99.6883 232.731 100.941 232.918 104.618C233.22 110.507 230.522 121.585 229.716 127.166C228.908 132.746 230.115 139.366 228.42 145.825C226.724 152.284 226.521 155.708 227.719 155.903C228.917 156.098 263.576 155.302 264.204 153.805C264.831 152.309 263.258 143.28 262.883 135.723C262.508 128.166 264.342 102.324 264.342 102.324L257.708 83.1678Z" fill="#611CCF"/>
<path d="M243.982 43.0426C243.982 43.0426 236.59 38.3653 240.208 31.4675C243.118 25.9119 249.058 25.4158 256.156 31.1097C261.527 35.4126 267.843 33.2734 272.088 34.9735C276.334 36.6734 279.015 41.3832 274.223 47.2235C269.293 53.2347 269.489 54.6826 268.209 62.5727C267.126 69.2509 257.249 68.657 257.199 68.6733C257.151 68.6896 255.406 58.4731 255.406 58.1884C255.406 57.9037 257.64 46.8005 257.64 46.8005L243.982 43.0426Z" fill="#353AA8"/>
<path d="M261.97 57.0024C261.839 57.2708 257.707 73.4985 259.704 83.4142C244.448 88.1319 241.669 83.5523 241.58 82.8121C241.384 81.1853 244.065 73.6205 245.842 67.5849C258.775 59.8656 261.97 57.0024 261.97 57.0024Z" fill="#FFC5AA"/>
<path d="M261.516 58.8306C261.516 58.8306 258.045 76.5225 243.49 75.1802L245.585 67.5098L261.516 58.8306Z" fill="#E1A487"/>
<path d="M215.76 89.3887L294.995 143.424C292.779 143.782 290.656 144.576 288.752 145.763C286.847 146.95 285.199 148.504 283.903 150.333C282.608 152.163 281.692 154.233 281.207 156.422C280.723 158.609 280.681 160.872 281.084 163.077L281.182 163.614L201.938 109.578L201.898 109.025C201.532 104.649 202.719 100.285 205.251 96.6949C207.785 93.1051 211.501 90.5188 215.752 89.3887H215.76Z" fill="#7363FF"/>
<path d="M244.793 41.7656C244.793 41.7656 231.893 61.0356 238.004 67.9009C244.117 74.7661 255.68 66.4692 258.451 63.1342C261.222 59.7992 261.515 58.8312 261.515 58.8312C261.515 58.8312 265.24 57.3915 265.671 54.1703C266.136 50.6726 262.216 49.2898 260.937 52.1612C260.121 53.9263 260.081 54.8373 259.502 54.8373C259.205 54.8086 258.914 54.7345 258.639 54.6177C258.39 54.5192 258.184 54.3339 258.061 54.0961C257.939 53.8583 257.906 53.5841 257.97 53.3244C258.403 51.5917 259.347 47.842 259.6 46.817C247.499 43.1079 244.793 41.7656 244.793 41.7656ZM261.043 82.282C270.268 83.5429 271.433 95.8499 268.907 102.902C266.381 109.955 265.647 113.013 265.541 116.185C265.386 121.115 263.341 126.247 262.942 129.526C262.453 133.486 263.309 137.619 261.043 143.077C258.777 148.535 247.246 166.325 246.708 171.677C246.341 175.361 246.211 177.509 245.811 181.503C245.412 185.497 244.687 189.337 243.253 189.084C241.819 188.832 242.78 182.65 242.78 182.032C242.78 181.414 241.02 192.338 238.657 191.589C236.293 190.841 241.15 179.754 240.384 180.454C239.969 180.836 237.336 192.582 234.68 191.402C232.235 190.344 238.339 179.649 238.021 178.859C238.021 178.859 234.012 188.694 231.917 187.628C229.823 186.563 235.992 177.175 236.155 176.467C236.506 174.898 231.469 180.168 230.377 177.761C228.633 173.906 235.544 175.41 238.527 166.626C241.419 158.183 241.859 150.26 243.986 143.85C246.114 137.44 248.117 135.333 247.458 131.079C246.798 126.825 245.983 124.637 247.271 113.184C248.42 103.016 247.319 101.796 247.319 95.8255C247.319 89.8549 251.313 80.9481 261.043 82.282Z" fill="#FFC5AA"/>
<path d="M179.145 7.95276C179.145 7.95276 176.888 8.76618 175.518 8.00157C174.079 7.3073 172.795 6.32757 171.746 5.12207L179.145 7.95276ZM265.617 84.162C265.112 83.8692 256.93 78.6714 249.946 87.1228L265.617 84.162Z" stroke="#E1A487" stroke-width="0.800226" stroke-miterlimit="10" stroke-linecap="round"/>
<path d="M244.139 46.6211C246.253 47.55 248.285 48.6576 250.21 49.9317" stroke="#353AA8" stroke-width="0.800226" stroke-miterlimit="10" stroke-linecap="round"/>
<path d="M246.601 53.2194C246.451 53.3024 246.296 53.3757 246.137 53.4391C245.83 53.5489 245.504 53.5964 245.178 53.5787C244.853 53.5609 244.535 53.4783 244.242 53.3358C243.947 53.1932 243.687 52.9937 243.472 52.7487C243.256 52.5037 243.094 52.2184 242.991 51.9094C242.819 51.43 242.804 50.9084 242.951 50.4204" stroke="#3F3B3F" stroke-width="0.800226" stroke-miterlimit="10" stroke-linecap="round"/>
<path d="M236.859 58.8306C238.952 59.8755 241.301 60.3071 243.631 60.0751C242.692 61.0267 241.552 61.7565 240.294 62.2111C239.036 62.6657 237.693 62.8336 236.361 62.7025C236.321 62.1446 236.321 61.5846 236.361 61.0268C236.458 60.2809 236.624 59.5456 236.859 58.8306Z" fill="#FCFCFC"/>
<path d="M269.576 155.563C269.006 152.017 270 147.552 272.591 143.435C275.419 138.946 279.445 135.985 283.186 135.22L269.576 155.563ZM217.461 120.318C216.892 116.764 217.894 112.298 220.485 108.182C223.304 103.7 227.33 100.731 231.079 99.9746L217.461 120.318Z" stroke="#353AA8" stroke-width="0.800226" stroke-miterlimit="10" stroke-linecap="round"/>
<path d="M255.397 38.1197C258.242 38.8762 260.612 39.2423 262.258 38.1197H255.397ZM269.748 37.0054C273.007 38.1686 272.136 43.0165 271.06 44.8386L269.748 37.0054ZM265.714 58.2763C264.728 60.2567 264.252 62.4513 264.329 64.6616L265.714 58.2763ZM264.508 42.374C264.29 44.9531 264.703 47.5469 265.714 49.9306L264.508 42.374ZM242.962 32.1167C241.935 35.9398 243.898 39.1528 246.605 40.0882L242.962 32.1167ZM251.591 32.6048C253.292 34.3507 255.432 35.6091 257.785 36.2489L251.591 32.6048Z" stroke="#272B7B" stroke-width="0.800226" stroke-miterlimit="10" stroke-linecap="round"/>
<path d="M240.077 82.7065C239.822 83.3185 239.776 83.9969 239.945 84.6376C240.115 85.2783 240.49 85.8458 241.013 86.253C242.954 87.8799 246.172 87.8066 248.747 87.3756" stroke="#510D9C" stroke-width="0.800226" stroke-miterlimit="10" stroke-linecap="round"/>
</svg>
