<svg xmlns="http://www.w3.org/2000/svg" width="81" height="80" viewBox="0 0 81 80" fill="none"><rect id="backgroundrect2" width="100%" height="100%" x="0" y="0" fill="none" stroke="none"/>


<defs>
<linearGradient id="paint0_linear_3674_711" x1="0" y1="0.5555551678967544" x2="1.0184280328860045" y2="0.5320479005709784">
<stop offset="0" stop-color="#4598FB"/>
<stop offset="1" stop-color="#D15EAE"/>
</linearGradient>
</defs>
<g class="currentLayer" style=""><title>Layer 1</title><rect x="0.09179689735174179" width="80" height="80" rx="40" fill="#E9F4FF" id="svg_1b"/><path fill-rule="evenodd" clip-rule="evenodd" d="M40.2714 26.1903C39.4814 25.0439 38.2716 23.9295 36.5596 23.1478C33.6916 21.8383 29.5239 21.5082 23.7152 23.3238L23.6782 23.3354L23.6423 23.3498C23.2524 23.5056 22.866 23.6675 22.4778 23.8301L22.4778 23.8301L22.4777 23.8302C21.7054 24.1538 20.9259 24.4803 20.0976 24.7684C18.8765 25.1932 17.6725 25.4857 16.5076 25.4857H15.5076V26.4857V57.3982V58.6181L16.7038 58.3788C18.9149 57.9365 24.1777 56.7783 27.4204 55.6972C30.8946 54.5389 34.8853 54.5612 38.3518 57.1718C33.7655 61.4153 24.1315 68.4892 12.2871 69.8827L12.5208 71.869C25.7762 70.3095 36.2882 62.0283 40.6207 57.7719C44.6969 61.8856 55.1087 70.2677 68.7224 71.8693L68.9561 69.883C56.6142 68.431 46.9551 61.0928 42.6776 56.99C44.2569 55.7698 45.8156 55.0772 47.3442 54.7819C49.1508 54.4328 50.9807 54.626 52.8367 55.2468C56.0796 56.3314 61.3426 57.4933 63.5537 57.937L64.7504 58.1772V56.9566V25.9447V24.9447H63.7504C62.5861 24.9447 61.3824 24.6513 60.1614 24.2253C59.3332 23.9363 58.5537 23.6087 57.7814 23.2841C57.3932 23.1209 57.0067 22.9585 56.6168 22.8021L56.5808 22.7876L56.5438 22.776C50.725 20.9514 46.6387 21.3928 43.8598 22.8437C42.1562 23.7333 41.0044 24.9713 40.2714 26.1903ZM41.3498 28.6485V28.6944L41.3498 55.4892C43.1802 54.0519 45.0568 53.1868 46.9648 52.8182C49.1708 52.392 51.3534 52.6418 53.4711 53.3501C56.1111 54.2331 60.2176 55.1879 62.7504 55.7278V26.891C61.6186 26.7723 60.5223 26.4695 59.5025 26.1136C58.6175 25.8048 57.7326 25.4333 56.9283 25.0956L56.9283 25.0955L56.9282 25.0955L56.9276 25.0952C56.5695 24.9449 56.2273 24.8012 55.9083 24.6728C50.4454 22.9671 46.9513 23.4858 44.7855 24.6166C42.7154 25.6975 41.7122 27.4126 41.3498 28.6485ZM39.3498 55.4219L39.3498 28.8248C39.017 27.6467 37.9545 25.9833 35.729 24.9672C33.4437 23.9238 29.8223 23.5173 24.3488 25.2212C24.0295 25.3493 23.6871 25.4927 23.3287 25.6427L23.3286 25.6427L23.3286 25.6427C22.5244 25.9793 21.6396 26.3496 20.7546 26.6574C19.735 27.0121 18.639 27.3138 17.5076 27.4322V56.1702C20.0404 55.632 24.1475 54.6802 26.7879 53.7999C30.647 52.5132 35.2839 52.4724 39.3498 55.4219Z" fill="url(#paint0_linear_3674_711)" id="svg_2b"/><path fill="#ffffff" fill-opacity="1" stroke="#ffffff" stroke-opacity="1" stroke-width="1" stroke-dasharray="none" stroke-linejoin="round" stroke-linecap="butt" stroke-dashoffset="" fill-rule="nonzero" opacity="1" marker-start="" marker-mid="" marker-end="" id="svg_3b" d="M 63.6427769253995 72.67022650495066 C 63.6427769253995 72.67022650495066 74.55186738941151 63.47236591764642 74.54545454545455 63.42245989304813 C 74.55186738941151 63.47236591764642 78.40213461200398 70.10338168988902 78.3957219251337 70.05347593582889 C 78.40213461200398 70.10338168988902 67.27914041340351 77.80391613507396 67.27272727272728 77.75401069518716 C 67.27914041340351 77.80391613507396 63.6427769253995 72.67022650495066 63.6427769253995 72.67022650495066 z" style="color: rgb(0, 0, 0);"/><path fill="#ffffff" fill-opacity="1" stroke="#ffffff" stroke-opacity="1" stroke-width="1" stroke-dasharray="none" stroke-linejoin="round" stroke-linecap="butt" stroke-dashoffset="" fill-rule="nonzero" opacity="1" marker-start="" marker-mid="" marker-end="" id="svg_5a" d="M 16.583955315935956 72.77717837224489 C 16.583955315935956 72.77717837224489 7.386094728631721 64.96969205976572 7.379679144385027 64.91978609625669 C 7.386094728631721 64.96969205976572 3.5358275060392472 71.38680409741984 3.5294117647058827 71.33689839572193 C 3.5358275060392472 71.38680409741984 12.519784358755018 76.94830119672008 12.51336898395722 76.89839572192514 C 12.519784358755018 76.94830119672008 16.583955315935956 72.77717837224489 16.583955315935956 72.77717837224489 z" style="color: rgb(0, 0, 0);"/></g></svg>
