<svg width="34" height="34" viewBox="0 0 34 34" fill="none" xmlns="http://www.w3.org/2000/svg">
<path d="M17 33C25.8366 33 33 25.8366 33 17C33 8.16344 25.8366 1 17 1C8.16344 1 1 8.16344 1 17C1 25.8366 8.16344 33 17 33Z" stroke="#6C757D" stroke-linecap="round" stroke-linejoin="round"/>
<path d="M17 26.6C22.3019 26.6 26.6 22.3019 26.6 17C26.6 11.6981 22.3019 7.4 17 7.4C11.6981 7.4 7.4 11.6981 7.4 17C7.4 22.3019 11.6981 26.6 17 26.6Z" stroke="#6C757D" stroke-linecap="round" stroke-linejoin="round"/>
<path d="M17 20.2C18.7673 20.2 20.2 18.7673 20.2 17C20.2 15.2327 18.7673 13.8 17 13.8C15.2327 13.8 13.8 15.2327 13.8 17C13.8 18.7673 15.2327 20.2 17 20.2Z" stroke="#6C757D" stroke-linecap="round" stroke-linejoin="round"/>
</svg>
