<svg width="18" height="18" viewBox="0 0 18 18" fill="none" xmlns="http://www.w3.org/2000/svg">
<path d="M0.5 1.19763H3.5L5.51 11.0066C5.57858 11.3439 5.76643 11.6468 6.04066 11.8624C6.31489 12.0781 6.65802 12.1926 7.01 12.186H14.3C14.652 12.1926 14.9951 12.0781 15.2693 11.8624C15.5436 11.6468 15.7314 11.3439 15.8 11.0066L17 4.86042H4.25M7.25 15.8488C7.25 16.2534 6.91421 16.5814 6.5 16.5814C6.08579 16.5814 5.75 16.2534 5.75 15.8488C5.75 15.4442 6.08579 15.1162 6.5 15.1162C6.91421 15.1162 7.25 15.4442 7.25 15.8488ZM15.5 15.8488C15.5 16.2534 15.1642 16.5814 14.75 16.5814C14.3358 16.5814 14 16.2534 14 15.8488C14 15.4442 14.3358 15.1162 14.75 15.1162C15.1642 15.1162 15.5 15.4442 15.5 15.8488Z" stroke="#333333" stroke-linecap="round" stroke-linejoin="round"/>
</svg>
