<svg width="16" height="16" viewBox="0 0 16 16" fill="none" xmlns="http://www.w3.org/2000/svg">
<path d="M8.05823 0.00297105L7.9435 0.00257056C7.53679 0.00115088 7.20594 0.329701 7.20452 0.736408L7.20136 1.64358C7.19994 2.05029 7.52849 2.38114 7.93519 2.38256L8.04992 2.38296C8.45663 2.38438 8.78748 2.05583 8.7889 1.64912L8.79207 0.74195C8.79349 0.335243 8.46494 0.00439073 8.05823 0.00297105Z" fill="#495057"/>
<path d="M4.01256 2.89188L3.41079 2.28996C3.11751 1.9966 2.64201 1.9966 2.34873 2.28996L2.29025 2.34845C1.99697 2.64181 1.99697 3.11743 2.29025 3.41078L2.89202 4.01271C3.1853 4.30607 3.6608 4.30607 3.95409 4.01271L4.01256 3.95422C4.30585 3.66086 4.30585 3.18524 4.01256 2.89188Z" fill="#495057"/>
<path d="M7.99728 12.384C10.4213 12.384 12.3864 10.4184 12.3864 7.99377C12.3864 5.5691 10.4213 3.60352 7.99728 3.60352C5.57323 3.60352 3.60815 5.5691 3.60815 7.99377C3.60815 10.4184 5.57323 12.384 7.99728 12.384Z" fill="#495057"/>
<path d="M1.65047 7.20789L0.740628 7.20471C0.334658 7.2033 0.0044057 7.53125 0.00298895 7.93722L0.00258857 8.05195C0.00117182 8.45792 0.329127 8.78818 0.735098 8.78959L1.64494 8.79277C2.05091 8.79419 2.38116 8.46623 2.38257 8.06026L2.38298 7.94553C2.38439 7.53956 2.05644 7.20931 1.65047 7.20789Z" fill="#495057"/>
<path d="M15.2374 7.19496L14.3304 7.2108C13.9245 7.21789 13.6011 7.55269 13.6082 7.9586L13.6103 8.07865C13.6174 8.48456 13.9522 8.80787 14.3581 8.80078L15.2651 8.78495C15.6711 8.77786 15.9944 8.44306 15.9873 8.03715L15.9852 7.9171C15.9781 7.51119 15.6433 7.18788 15.2374 7.19496Z" fill="#495057"/>
<path d="M4.01586 12.0323L3.96116 11.9776C3.66996 11.6863 3.19784 11.6863 2.90664 11.9776L2.27657 12.6078C1.98537 12.8991 1.98537 13.3713 2.27657 13.6626L2.33128 13.7173C2.62248 14.0086 3.0946 14.0086 3.3858 13.7173L4.01586 13.0871C4.30706 12.7958 4.30706 12.3236 4.01586 12.0323Z" fill="#495057"/>
<path d="M13.697 12.5813L13.0952 11.9794C12.8019 11.6861 12.3264 11.6861 12.0331 11.9794L11.9765 12.036C11.6832 12.3294 11.6832 12.805 11.9765 13.0984L12.5783 13.7003C12.8716 13.9936 13.3471 13.9936 13.6404 13.7003L13.697 13.6437C13.9902 13.3503 13.9902 12.8747 13.697 12.5813Z" fill="#495057"/>
<path d="M8.06679 13.6124L7.94939 13.6112C7.54344 13.607 7.21091 13.9326 7.20666 14.3386L7.19713 15.2483C7.19288 15.6543 7.51853 15.9868 7.92448 15.9911L8.04187 15.9923C8.44782 15.9966 8.78035 15.6709 8.7846 15.265L8.79413 14.3552C8.79838 13.9492 8.47274 13.6167 8.06679 13.6124Z" fill="#495057"/>
<path d="M12.5953 2.28883L11.9663 2.90496C11.6716 3.19368 11.6666 3.66674 11.9553 3.96157L12.0113 4.01877C12.2999 4.3136 12.7728 4.31855 13.0676 4.02983L13.6966 3.4137C13.9914 3.12498 13.9963 2.65192 13.7077 2.35709L13.6517 2.29989C13.363 2.00506 12.8901 2.00011 12.5953 2.28883Z" fill="#495057"/>
</svg>
