<svg width="378" height="346" viewBox="0 0 378 346" fill="none" xmlns="http://www.w3.org/2000/svg">
<path fill-rule="evenodd" clip-rule="evenodd" d="M34.8504 86.7344C20.6169 61.6835 32.0773 39.9387 49.2464 30.2712C60.1191 24.149 73.6736 24.7346 86.3477 25.2822C98.6909 25.8154 110.199 26.3126 117.582 20.5427C132.545 8.84822 177.192 44.9861 149.646 68.4118C144.242 73.008 136.094 73.2116 126.784 73.4442C115.91 73.716 103.451 74.0273 91.9291 81.4255C70.5434 95.1571 43.0291 101.129 34.8504 86.7344ZM5.34292 239.721C14.8337 273.184 51.3891 342.712 120.986 342.712C130.63 342.712 141.135 343.292 152.167 343.901C200.644 346.578 259.275 349.815 299.548 306.858C313.678 291.785 313.545 276.124 313.4 259.153C313.221 238.131 313.024 215.1 339.901 188.687C388.476 140.95 394.171 73.7381 335.363 63.9878C313.643 60.3866 285.178 81.7516 255.877 103.744C227.851 124.779 199.061 146.388 174.676 147.276C153.529 148.045 135.293 140.329 117.604 132.845C93.5689 122.675 70.5441 112.933 42.602 125.485C-5.90485 147.276 -4.14787 206.258 5.34292 239.721Z" fill="url(#paint0_linear_3922_733)"/>
<path d="M161.117 92.0681C162.003 91.8484 164.368 94.8582 166.897 97.9131C167.209 98.2997 169.01 92.5164 169.962 93.8503C170.821 95.0618 168.768 99.8184 169.962 101.343C170.667 102.372 171.608 103.258 172.736 103.957C177.095 106.988 179.193 108.081 185.052 109.455C190.91 110.829 210.568 115.765 211.653 114.638C212.737 113.51 220.321 99.9007 223.105 93.654C225.888 87.4075 231.89 74.9904 237.698 71.6587C243.507 68.3268 248.548 68.6276 251.389 69.977C259.74 73.9455 259.324 82.0991 253.748 88.1122C250.279 91.8515 246.138 93.8146 241.103 102.69C236.067 111.565 229.852 115.415 227.382 120.795C224.913 126.174 220.614 131.925 216.205 132.772C211.796 133.619 204.396 131.701 197.057 128.003C189.718 124.304 181.44 118.976 175.85 115.712C171.462 113.151 163.064 109.715 161.016 108.409C158.166 106.572 152.81 102.022 153.68 101.516C155.296 100.586 158.721 104.182 159.639 103.377C160.558 102.573 151.741 97.1713 153.004 95.8769C154.269 94.5821 160.59 100.047 161.605 100.213C162.62 100.379 155.51 94.1236 157.041 93.1067C158.361 92.1909 163.061 97.1929 163.851 97.718C163.823 97.6608 159.485 92.484 161.117 92.0681Z" fill="#FED0BA"/>
<path d="M262.904 79.0873L257.28 70.2998H240.408V89.9837H257.28L262.904 79.0873Z" fill="#FED0BA"/>
<path d="M259.619 319.405C260.109 323.029 259.772 324.618 261.538 327.316C262.609 328.951 263.27 330.921 263.436 332.869C263.436 332.869 260.366 334.044 257.016 335.329C253.851 336.54 245.924 338.334 244.362 338.141C243.749 338.065 245.308 339.064 245.24 337.087C245.135 334.025 245.448 330.177 245.448 330.177C245.694 327.142 245.568 324.089 245.07 321.084C251.543 321.675 259.619 319.405 259.619 319.405Z" fill="#F1BCA3"/>
<path d="M250.648 324.205C250.73 326.578 250.516 328.278 251.935 331.639C252.39 332.73 253.53 334.341 253.852 336.384C253.852 336.384 251.935 337.087 246.752 338.493C242.453 339.399 241.128 339.899 234.801 341.305C230.141 342.064 228.193 342.643 222.898 343.414C220.811 343.766 215.468 344.117 215.468 344.117C214.162 343.725 213.342 342.429 213.342 341.588C213.342 339.348 219.917 338.452 222.898 337.587C225.553 336.822 227.891 335.305 231.914 333.93C235.936 332.556 237.539 330.519 237.59 326.752C237.641 322.983 237.457 323.452 237.457 323.452L250.648 324.205Z" fill="#FED0BA"/>
<path d="M257.637 211.122C257.637 211.122 254.268 234.155 254.789 241.783C255.309 249.411 260.751 256.539 262.568 264.187C264.386 271.834 262.436 289.156 261.66 296.528C260.884 303.902 259.832 315.622 259.74 320.389C255.044 323.442 247.785 321.763 247.785 321.763L241.659 229.391C241.659 229.391 257.382 211.773 257.637 211.122Z" fill="#F1BCA3"/>
<path d="M263.431 135.439C263.431 135.439 262.267 142.293 264.697 146.131C243.502 155.103 232.22 145.917 232.22 145.917C232.22 145.917 232.608 139.706 232.476 136.081C251.159 137.252 263.431 135.439 263.431 135.439Z" fill="#FED0BA"/>
<path d="M264.992 146.233C264.992 146.233 274.273 155.887 274.283 172.281C274.283 186.212 263.257 197.119 263.257 197.119C263.257 197.119 260.327 207.576 255.977 218.441C254.088 223.137 246.911 235.754 247.81 242.882C248.323 246.976 251.363 252.811 252.693 261.866C253.533 267.585 253.69 274.588 252.098 283.248C247.983 305.621 250.893 318.157 250.587 324.817C243.317 328.615 237.508 324.99 237.477 324.296C237.457 323.837 231.38 288.374 227.238 261.866C225.133 248.4 223.528 237.246 223.47 234.165C223.296 225.02 232.209 145.886 232.209 145.886C232.209 145.886 249.412 150.703 264.992 146.233Z" fill="url(#paint1_linear_3922_733)"/>
<path d="M250.601 325.136C248.07 327.104 241.931 326.659 239.002 325.839C238.885 325.839 237.877 324.995 237.596 324.433C237.244 323.73 232.323 295.61 231.972 292.798C231.691 290.548 228.808 272.177 227.402 263.272C236.682 264.397 247.789 260.46 252.007 258.351C252.71 260.46 253.413 268.896 253.413 271.708C253.413 274.52 251.304 291.04 250.25 296.664C249.195 302.288 250.953 323.73 250.601 325.136Z" fill="#FED0BA"/>
<path d="M232.47 136.052C237.453 142.04 263.671 136.959 263.651 136.785C262.834 128.547 263.559 117.549 265.396 102.416C257.053 91.9104 250.949 84.8824 246.734 80.3087C241.397 74.5176 239.086 72.6611 239.086 72.6611C241.813 80.3087 234.941 77.6809 231.924 82.9534C229.961 86.3855 228.375 89.99 228.427 92.5797C228.611 102.325 231.49 105.258 231.694 112.641" fill="url(#paint2_linear_3922_733)"/>
<path d="M239.707 73.4629C238.864 74.0253 233.025 81.8989 233.729 83.3049C234.432 84.7109 237.598 86.1169 237.598 86.1169L246.737 87.5229L248.143 80.8444L249.198 74.1659L244.628 71.0024C243.34 71.5883 240.551 72.9005 239.707 73.4629Z" fill="#FED0BA"/>
<path d="M241.461 84.3594C237.524 85.4842 233.494 83.8908 231.971 82.9534L240.407 91.7409L257.63 88.2259C278.72 81.196 263.254 71.354 257.63 71.354C250.249 71.354 246.382 82.9534 241.461 84.3594Z" fill="#FFDCF3"/>
<path d="M258.019 42.1772C256.539 48.0325 255.283 56.9633 258.019 70.9348C243.235 74.1731 238.621 73.5213 238.621 73.5213C238.621 73.5213 248.638 63.2941 247.086 50.616C260.808 43.1109 258.019 42.1772 258.019 42.1772Z" fill="#FED0BA"/>
<path d="M265.523 36.289C265.523 36.289 262.604 53.9875 247.085 57.5415C247.299 51.5334 247.238 49.5273 247.238 49.5273L265.36 32.3379L265.523 36.289Z" fill="#F1BCA3"/>
<path d="M252.357 11.2476C242.408 9.79951 234.431 18.9694 237.243 23.5414L247.436 36.1991C251.85 41.75 256.023 42.396 255.797 44.7241C254.818 54.8222 257.481 54.0035 259.888 57.9857C262.295 61.9679 257.278 67.1103 259.888 68.5423C261.938 69.1514 264.398 69.0709 266.587 68.5423C270.622 67.5682 273.74 65.073 271.69 62.5668C270.339 60.9162 266.417 60.4578 265.714 54.4823C264.905 47.5997 272.247 41.466 273.049 31.3296C273.851 21.1932 264.795 13.0576 252.357 11.2476Z" fill="#68341E"/>
<path d="M238.995 26.2899C236.811 31.1694 233.317 40.4576 233.768 48.191C234.29 57.1623 242.931 56.2621 247.036 54.0628C254.917 49.8687 256.562 47.0249 258.534 42.5239C261.02 43.7412 265.354 37.6956 262.072 34.6269C260.613 33.246 258.534 34.4735 258.534 34.4735C256.458 30.0118 253.165 26.4692 249.167 24.3975C242.162 20.5512 240.357 23.2416 238.995 26.2899Z" fill="#FED0BA"/>
<path d="M309.805 99.5017C314.305 106.206 313.735 115.218 312.262 116.38C310.293 116.725 301.568 114.799 297.216 107.503C292.864 100.208 294.327 92.1487 295.671 90.6106C297.992 89.4274 305.367 92.8785 309.805 99.5017Z" fill="#272B7B"/>
<path d="M194.808 155.822L295.693 90.6113C295.028 93.3437 294.912 96.1803 295.355 98.9561C295.797 101.732 296.788 104.39 298.269 106.775C299.749 109.16 301.692 111.224 303.981 112.847C306.269 114.47 308.859 115.618 311.599 116.225L312.266 116.373L211.376 181.594L210.718 181.372C205.493 179.667 201.035 176.175 198.125 171.507C195.216 166.837 194.04 161.289 194.804 155.832L194.808 155.822Z" fill="url(#paint3_linear_3922_733)"/>
<path d="M297.331 125.857C292.962 124.791 288.294 121.472 284.805 116.48C281.001 111.033 279.544 104.946 280.482 100.255M231.317 168.891C226.939 167.821 222.274 164.493 218.786 159.501C214.987 154.067 213.52 147.976 214.471 143.28" stroke="#272B7B" stroke-width="0.824825" stroke-miterlimit="10" stroke-linecap="round"/>
<path d="M262.139 73.7154C271.039 75.4239 271.942 90.8491 269.369 99.6432C266.797 108.437 266.032 112.256 265.872 116.227C265.632 122.396 263.56 128.793 263.114 132.893C262.569 137.845 263.322 143.031 261.031 149.833C258.74 156.635 247.262 178.745 246.644 185.438C246.222 190.047 246.056 192.733 245.598 197.729C245.139 202.724 244.367 207.521 242.985 207.184C241.602 206.849 242.644 199.123 242.656 198.348C242.667 197.575 240.765 211.227 238.493 210.256C236.221 209.286 241.12 195.473 240.367 196.338C239.958 196.811 237.198 211.48 234.649 209.966C232.304 208.607 238.403 195.302 238.111 194.309C238.111 194.309 234.053 206.566 232.046 205.202C230.04 203.839 236.178 192.172 236.349 191.288C236.717 189.329 231.749 195.856 230.736 192.827C229.119 187.975 235.777 189.955 238.822 179C241.773 168.469 242.344 158.556 244.518 150.56C246.693 142.565 248.669 139.956 248.108 134.62C247.548 129.285 246.8 126.533 248.254 112.212C249.55 99.4975 248.508 97.9544 248.617 90.4792C248.726 83.0038 252.751 71.9083 262.139 73.7154Z" fill="#FED0BA"/>
<ellipse cx="262.573" cy="56.4577" rx="4.66613" ry="1.62964" transform="rotate(-18.5425 262.573 56.4577)" fill="#68341E"/>
<path d="M258.334 253.43C256.928 254.836 252.944 255.891 251.304 256.242C250.953 254.719 250.32 251.321 249.195 248.509C247.789 244.994 247.438 241.479 247.789 239.019C248.087 236.931 249.898 231.989 250.952 229.177C251.796 226.927 255.288 219.569 256.928 216.171C256.928 216.171 255.17 232.34 254.819 235.504C254.467 238.667 255.522 244.643 256.225 247.103C256.908 249.493 258.685 253.079 258.334 253.43Z" fill="url(#paint4_linear_3922_733)"/>
<path d="M236.6 33.2533C236.91 30.6024 239.779 26.4592 241.11 23.5495L242.516 22.8463L245.793 32.097L251.631 41.0382C251.146 44.3311 249.915 48.4782 249.194 49.5613C248.293 50.9152 247.15 54.5647 240.055 53.0753C237.566 52.5528 235.906 51.3986 234.869 49.9128C234.619 49.5536 239.704 47.4523 234.224 48.7812C234.431 47.8038 233.795 47.6818 233.666 47.1008C233.165 44.8404 233.494 42.3175 234.224 40.1614C233.244 39.4412 231.332 37.7644 231.531 36.8184C231.779 35.6361 236.29 34.7313 236.6 33.2533Z" fill="#FED0BA"/>
<ellipse rx="1.06675" ry="2.1335" transform="matrix(-0.978667 -0.205453 -0.205453 0.978667 239.914 33.6384)" fill="#5C2C15"/>
<path d="M107.743 320.566C107.252 324.191 107.589 325.779 105.823 328.478C103.067 332.686 103.025 339.123 107.164 341.656L109.036 342.008C113.605 342.359 119.776 342.903 121.338 342.711C122.9 342.517 121.913 331.339 121.913 331.339C121.667 328.304 121.794 325.25 122.291 322.246C115.818 322.837 107.743 320.566 107.743 320.566Z" fill="#F1BCA3"/>
<path d="M116.714 325.364C116.632 327.737 116.847 329.437 115.427 332.798C114.624 334.721 112.529 339.359 114.433 342.359C114.433 342.359 117.471 342.711 119.932 342.711C124.853 342.711 125.204 342.711 130.828 342.711C136.101 343.062 137.507 343.062 142.779 343.414C145.943 343.625 153.48 343.765 153.48 343.765C153.823 343.478 154.02 343.141 154.02 342.747C154.02 340.507 147.445 339.611 144.464 338.745C141.809 337.981 139.471 336.463 135.448 335.089C131.426 333.714 129.823 331.678 129.772 327.91C129.721 324.141 129.905 324.611 129.905 324.611L116.714 325.364Z" fill="#FED0BA"/>
<path d="M109.724 211.544C109.724 211.544 113.093 234.578 112.573 242.206C112.052 249.834 106.61 256.962 104.793 264.61C102.976 272.257 104.926 289.579 105.701 296.951C106.477 304.325 107.529 316.045 107.621 320.812C112.317 323.865 119.576 322.186 119.576 322.186L125.702 229.813C125.702 229.813 109.979 212.196 109.724 211.544Z" fill="url(#paint5_linear_3922_733)"/>
<path d="M103.93 135.859C103.93 135.859 105.094 142.713 102.664 146.551C123.859 155.523 135.141 146.337 135.141 146.337C135.141 146.337 134.753 140.126 134.886 136.501C116.202 137.672 103.93 135.859 103.93 135.859Z" fill="#FED0BA"/>
<path d="M102.369 146.653C102.369 146.653 93.0884 156.307 93.0781 172.701C93.0781 186.632 104.105 197.539 104.105 197.539C104.105 197.539 107.035 207.996 111.384 218.861C113.273 223.557 120.45 236.174 119.552 243.301C118.715 249.981 111.149 261.296 115.264 283.668C119.378 306.041 116.469 318.577 116.775 325.237C124.044 329.035 129.853 325.41 129.884 324.716C129.915 324.024 143.718 243.729 143.892 234.585C144.065 225.44 135.152 146.306 135.152 146.306C135.152 146.306 117.949 151.123 102.369 146.653Z" fill="url(#paint6_linear_3922_733)"/>
<path d="M134.891 136.473C129.909 142.46 103.69 137.379 103.711 137.206C104.528 128.968 103.803 117.97 101.965 102.837C118.086 76.6267 128.275 73.0815 128.275 73.0815C128.663 73.3362 139.067 86.4319 138.934 93.0001C138.75 102.746 135.871 105.678 135.667 113.062" fill="url(#paint7_linear_3922_733)"/>
<path fill-rule="evenodd" clip-rule="evenodd" d="M117.248 9.7199C116.798 6.53264 115.23 2.20099 110.204 0.442653C106.579 -0.827828 104.335 0.858355 101.887 2.69706C100.255 3.9238 98.5317 5.21842 96.2478 5.74819C92.8275 6.53236 85.4153 8.37545 85.6808 15.9315C85.8543 20.8025 89.3326 23.3045 92.1817 24.5412C90.3548 27.6826 89.4131 31.8104 90.8839 36.5223C95.2025 50.4226 112.875 51.1761 112.875 51.1761L131.712 27.9684C131.712 27.9684 136.47 22.0417 128.996 13.7118C126.144 10.5682 121.833 9.11853 117.248 9.7199Z" fill="url(#paint8_linear_3922_733)"/>
<path d="M109.343 42.5988C110.823 48.454 112.079 57.3848 109.343 71.3563C124.127 74.5946 128.741 73.9428 128.741 73.9428C128.741 73.9428 119.698 60.13 121.25 47.4518C107.528 39.9468 109.343 42.5988 109.343 42.5988Z" fill="#FED0BA"/>
<path d="M110.272 48.1793C111.326 53.8033 110.272 53.7778 121.68 56.8625C121.466 50.8544 121.527 48.8483 121.527 48.8483C121.527 48.8483 114.316 25.2948 112.11 34.7965C110.587 41.3561 109.218 42.5553 110.272 48.1793Z" fill="#F1BCA3"/>
<path d="M131.991 26.9974C134.513 31.8549 138.546 41.1013 138.025 48.7998C137.423 57.7307 127.448 56.8345 122.711 54.6451C113.614 50.4699 111.715 47.639 109.438 43.1583C106.569 44.3701 101.566 38.3517 105.354 35.2968C107.039 33.9222 109.438 35.1441 109.438 35.1441C111.834 30.7025 115.636 27.1759 120.25 25.1136C128.336 21.2846 130.419 23.9629 131.991 26.9974Z" fill="#FED0BA"/>
<path d="M128.785 162.223C128.743 161.311 125.378 159.912 121.928 158.37C121.494 158.183 124.347 152.47 122.882 151.941C121.553 151.468 119.696 157.127 117.993 156.422C116.871 156.044 115.813 155.397 114.875 154.518C110.948 151.215 109.389 149.52 106.552 144.302C103.716 139.083 93.9023 121.668 94.6263 120.303C95.3504 118.939 105.59 107.743 110.479 103.273C115.369 98.8038 124.961 89.4685 126.392 82.9405C127.823 76.4126 126.179 71.6678 124.185 69.3341C118.325 62.4758 111.067 65.2278 107.149 72.3063C104.712 76.7097 104.065 81.2452 97.4119 88.6319C90.759 96.0186 88.9701 103.086 84.7791 107.006C80.588 110.924 76.5587 116.703 76.9932 121.173C77.4275 125.643 81.1757 132.181 86.5168 138.148C91.8579 144.114 98.9282 150.51 103.4 154.926C106.91 158.392 112.302 165.449 114.04 167.035C116.476 169.236 122.047 173.056 122.269 172.077C122.669 170.26 118.487 168.015 118.964 166.902C119.441 165.79 126.724 172.681 127.55 171.097C128.377 169.511 121.715 165.031 121.289 164.106C120.863 163.181 128.453 168.19 128.956 166.429C129.424 164.899 123.623 161.839 122.933 161.233C122.993 161.244 128.854 163.907 128.785 162.223Z" fill="#FED0BA"/>
<path d="M133.986 35.225C133.676 32.5741 130.807 28.4309 129.476 25.5212L128.07 24.818L124.793 34.0686L118.955 43.0098C119.44 46.3028 120.671 50.4499 121.392 51.533C122.293 52.8869 123.436 56.5364 130.531 55.047C137.625 53.5577 137.987 46.9356 136.362 42.1331C137.342 41.4129 139.254 39.736 139.055 38.7901C138.807 37.6077 134.296 36.7029 133.986 35.225Z" fill="#FED0BA"/>
<ellipse cx="130.672" cy="35.61" rx="1.06675" ry="2.1335" transform="rotate(-11.856 130.672 35.61)" fill="#5C2C15"/>
<path d="M241.511 28.6213C242.182 29.1082 243.577 30.4292 243.797 31.8178" stroke="#5C2C15" stroke-width="0.702997" stroke-linecap="round"/>
<path d="M127.576 33.041C127.811 32.2208 128.56 30.5102 129.685 30.229" stroke="#5C2C15" stroke-width="0.702997" stroke-linecap="round"/>
<path d="M134.598 48.1632C133.772 48.3741 131.901 47.7313 131.091 46.9015" stroke="#5C2C15" stroke-width="0.702997" stroke-linecap="round"/>
<path d="M236.198 45.6804C237.92 46.0291 240.305 45.7418 241.351 45.2611C242.397 44.7805 240.172 46.8846 239.348 47.4594C238.525 48.034 237.583 48.4177 236.592 48.5823" stroke="#5C2C15" stroke-width="0.702997" stroke-linecap="round"/>
<path d="M127.576 25.2116C124.201 32.2416 120.194 36.5557 109.649 35.1498L104.377 24.6125L111.758 18.637C117.734 17.6997 130.95 18.1817 127.576 25.2116Z" fill="#FFF0BC"/>
<path d="M243.366 24.4013C246.463 31.3225 250.141 35.5699 259.821 34.1857L264.66 23.8114L257.885 17.9283C252.4 17.0055 240.268 17.48 243.366 24.4013Z" fill="#68341E"/>
<path fill-rule="evenodd" clip-rule="evenodd" d="M62.399 73.2835C57.7087 61.0176 58.6192 45.2343 68.006 24.8667L69.9214 25.7494C60.6788 45.8041 59.9493 60.9723 64.3689 72.5303C68.7925 84.099 78.4629 92.2837 90.5163 98.1753L89.5902 100.07C77.2742 94.0501 67.0851 85.5387 62.399 73.2835ZM134.337 117.69C126.793 114.98 113.522 109.934 107.445 106.359L108.514 104.541C114.388 107.996 127.456 112.978 135.05 115.705C147.568 120.201 156.848 124.766 163.024 129.47C169.192 134.168 172.423 139.134 172.45 144.435C172.476 149.705 169.328 154.932 163.647 160.152C157.947 165.389 149.542 170.765 138.69 176.336L137.727 174.46C148.51 168.924 156.723 163.65 162.22 158.599C167.735 153.532 170.363 148.833 170.341 144.445C170.319 140.088 167.677 135.665 161.746 131.147C155.822 126.635 146.775 122.157 134.337 117.69ZM290.503 192.691C285.52 190.925 278.423 190.106 269.173 190.688L269.04 188.583C278.449 187.991 285.858 188.808 291.208 190.703C296.553 192.598 299.988 195.633 301.098 199.551C302.204 203.457 300.896 207.884 297.567 212.34C294.229 216.807 288.769 221.44 281.24 225.868C266.982 234.256 251.215 240.529 237.451 246.006C233.829 247.447 230.346 248.833 227.065 250.188C219.155 253.455 212.46 256.524 207.749 259.74C203.002 262.98 200.564 266.169 200.564 269.599C200.564 274.425 203.372 278.141 208.779 281.297C214.214 284.469 222.079 286.949 231.746 289.306L231.246 291.355C221.565 288.995 213.437 286.458 207.716 283.118C201.966 279.763 198.455 275.471 198.455 269.599C198.455 265.064 201.685 261.325 206.56 257.998C211.472 254.645 218.353 251.504 226.26 248.239C229.589 246.864 233.106 245.465 236.75 244.014C250.501 238.542 266.067 232.347 280.171 224.05C287.553 219.708 292.763 215.246 295.877 211.078C298.999 206.899 299.925 203.152 299.068 200.126C298.215 197.113 295.491 194.459 290.503 192.691ZM88.2683 192.662C91.3864 191.83 96.1791 190.551 98.5418 189.853L99.1397 191.875C96.7468 192.582 91.9186 193.871 88.8067 194.701C88.3307 194.828 87.8948 194.944 87.5139 195.046C76.6061 197.963 69.0767 201.706 64.7127 205.503C60.3359 209.311 59.3709 212.917 60.7581 215.817C62.2259 218.886 66.5408 221.75 74.1409 223.418C81.6711 225.07 92.1656 225.485 105.536 223.912C143.818 219.408 171.326 211.913 202.259 203.484C209.988 201.379 217.931 199.215 226.308 197.024L226.842 199.065C218.501 201.245 210.582 203.403 202.866 205.506C171.912 213.94 144.234 221.483 105.783 226.006C92.2639 227.597 81.5192 227.196 73.6889 225.478C65.9286 223.775 60.762 220.713 58.8555 216.727C56.8685 212.573 58.6364 207.994 63.3284 203.912C68.0331 199.819 75.9082 195.967 86.969 193.009C87.3531 192.906 87.7911 192.789 88.2683 192.662ZM299.956 307.52C286.627 303.661 273.726 300.527 261.505 297.922L261.945 295.859C274.207 298.474 287.158 301.619 300.543 305.494L299.956 307.52Z" fill="url(#paint9_linear_3922_733)"/>
<defs>
<linearGradient id="paint0_linear_3922_733" x1="156.053" y1="27.7333" x2="170.287" y2="347.233" gradientUnits="userSpaceOnUse">
<stop offset="0" stop-color="#EDF6FF"/>
<stop offset="1" stop-color="#D9EAFF"/>
</linearGradient>
<linearGradient id="paint1_linear_3922_733" x1="297.221" y1="120.564" x2="249.065" y2="232.341" gradientUnits="userSpaceOnUse">
<stop offset="0" stop-color="#FFB3E4"/>
<stop offset="1" stop-color="#FFE0F4"/>
</linearGradient>
<linearGradient id="paint2_linear_3922_733" x1="239.574" y1="88.5774" x2="248.713" y2="136.03" gradientUnits="userSpaceOnUse">
<stop offset="0" stop-color="#FFDCF3"/>
<stop offset="1" stop-color="#FFBEE8"/>
</linearGradient>
<linearGradient id="paint3_linear_3922_733" x1="235.606" y1="191.947" x2="279.256" y2="81.3645" gradientUnits="userSpaceOnUse">
<stop offset="0" stop-color="#81BBFF"/>
<stop offset="1" stop-color="#FF8FDC"/>
</linearGradient>
<linearGradient id="paint4_linear_3922_733" x1="242.738" y1="231.286" x2="268.046" y2="248.861" gradientUnits="userSpaceOnUse">
<stop offset="0" stop-color="#FFB5E5"/>
<stop offset="1" stop-color="#FFD0EE"/>
</linearGradient>
<linearGradient id="paint5_linear_3922_733" x1="119.361" y1="245.346" x2="99.326" y2="294.204" gradientUnits="userSpaceOnUse">
<stop offset="0" stop-color="#A3CCFF"/>
<stop offset="1" stop-color="#BAD9FF"/>
</linearGradient>
<linearGradient id="paint6_linear_3922_733" x1="103.193" y1="178.561" x2="178.394" y2="205.616" gradientUnits="userSpaceOnUse">
<stop offset="0.245342" stop-color="#B4D6FF"/>
<stop offset="0.99963" stop-color="#D1E4FF"/>
</linearGradient>
<linearGradient id="paint7_linear_3922_733" x1="97.9206" y1="132.866" x2="138.694" y2="118.455" gradientUnits="userSpaceOnUse">
<stop offset="0" stop-color="#B4D5FF"/>
<stop offset="1" stop-color="#D1E6FF"/>
</linearGradient>
<linearGradient id="paint8_linear_3922_733" x1="89.8369" y1="16.8719" x2="114.442" y2="25.3079" gradientUnits="userSpaceOnUse">
<stop offset="0" stop-color="#FFF0BC"/>
<stop offset="1" stop-color="#FFF0BC"/>
</linearGradient>
<linearGradient id="paint9_linear_3922_733" x1="30.9442" y1="194.833" x2="305.724" y2="189.471" gradientUnits="userSpaceOnUse">
<stop offset="0" stop-color="#4598FB"/>
<stop offset="1" stop-color="#D15EAE"/>
</linearGradient>
</defs>
</svg>
