<svg width="80" height="80" viewBox="0 0 80 80" fill="none" xmlns="http://www.w3.org/2000/svg">
<circle cx="40" cy="40" r="40" fill="#E9F4FF"/>
<mask id="mask0_3274_12074" style="mask-type:alpha" maskUnits="userSpaceOnUse" x="0" y="0" width="80" height="80">
<circle cx="40" cy="40" r="40" fill="#E9F4FF"/>
</mask>
<g mask="url(#mask0_3274_12074)">
<path d="M53.0524 28.9452C53.0524 26.9117 51.5443 25.2632 49.6839 25.2632C47.8236 25.2632 46.3155 26.9117 46.3155 28.9452V51.8969C46.3155 53.9305 47.8236 55.579 49.6839 55.579C51.5443 55.579 53.0524 53.9305 53.0524 51.8969V28.9452Z" fill="#E9F4FF"/>
<path d="M59.7892 32.3654C59.7892 30.3033 58.2811 28.6316 56.4208 28.6316C54.5605 28.6316 53.0524 30.3033 53.0524 32.3654V48.4767C53.0524 50.5389 54.5605 52.2106 56.4208 52.2106C58.2811 52.2106 59.7892 50.5389 59.7892 48.4767V32.3654Z" fill="#E9F4FF"/>
<path d="M26.9471 51.8969C26.9471 53.9305 28.6437 55.579 30.7366 55.579C32.8295 55.579 34.526 53.9305 34.526 51.8969V28.9452C34.526 26.9117 32.8295 25.2632 30.7366 25.2632C28.6437 25.2632 26.9471 26.9117 26.9471 28.9452V51.8969Z" fill="#E9F4FF"/>
<path d="M19.3681 48.4767C19.3681 50.5389 21.0648 52.2106 23.1576 52.2106C25.2505 52.2106 26.9471 50.5389 26.9471 48.4767V32.3654C26.9471 30.3033 25.2505 28.6316 23.1576 28.6316C21.0648 28.6316 19.3681 30.3033 19.3681 32.3654V48.4767Z" fill="#E9F4FF"/>
<path d="M58.7587 40.2636C58.368 40.8327 58.5125 41.6109 59.0816 42.0017C59.6508 42.3924 60.4289 42.2478 60.8197 41.6787L58.7587 40.2636ZM59.8168 40.931L58.7863 40.2234L58.7863 40.2235L59.8168 40.931ZM64.7402 36.7531L64.9854 37.9788L64.7402 36.7531ZM66.8574 38.7563L68.0498 38.3811V38.3811L66.8574 38.7563ZM71.2058 43.1047L71.0927 44.3495H71.0927L71.2058 43.1047ZM80.7349 41.3763C81.2932 40.9702 81.4167 40.1885 81.0107 39.6301C80.6046 39.0718 79.8229 38.9483 79.2645 39.3544L80.7349 41.3763ZM18.3374 42.7792C18.7279 43.3485 19.506 43.4934 20.0753 43.1029C20.6445 42.7124 20.7894 41.9343 20.3989 41.365L18.3374 42.7792ZM19.3356 42.0246L18.3048 42.7317L18.3048 42.7317L19.3356 42.0246ZM13.5234 37.0873L13.7688 35.8617H13.7688L13.5234 37.0873ZM11.024 39.4546L12.2165 39.8294L11.024 39.4546ZM5.89062 44.5934L6.0039 45.8382L6.0039 45.8382L5.89062 44.5934ZM0.589986 42.5619C-0.0630535 42.338 -0.773958 42.6859 -0.997863 43.3389C-1.22177 43.9919 -0.873886 44.7028 -0.220846 44.9267L0.589986 42.5619ZM34.526 41.6711H46.3155V39.1711H34.526V41.6711ZM49.6839 26.5132C50.7515 26.5132 51.8023 27.495 51.8023 28.9452H54.3024C54.3024 26.3284 52.337 24.0132 49.6839 24.0132V26.5132ZM51.8023 28.9452V51.8969H54.3024V28.9452H51.8023ZM51.8023 51.8969C51.8023 53.3472 50.7515 54.329 49.6839 54.329V56.829C52.337 56.829 54.3024 54.5138 54.3024 51.8969H51.8023ZM49.6839 54.329C48.6164 54.329 47.5655 53.3472 47.5655 51.8969H45.0655C45.0655 54.5138 47.0308 56.829 49.6839 56.829V54.329ZM47.5655 51.8969V28.9452H45.0655V51.8969H47.5655ZM47.5655 28.9452C47.5655 27.495 48.6164 26.5132 49.6839 26.5132V24.0132C47.0308 24.0132 45.0655 26.3284 45.0655 28.9452H47.5655ZM56.4208 29.8816C57.4728 29.8816 58.5392 30.8694 58.5392 32.3654H61.0392C61.0392 29.7372 59.0895 27.3816 56.4208 27.3816V29.8816ZM58.5392 32.3654V48.4767H61.0392V32.3654H58.5392ZM58.5392 48.4767C58.5392 49.9727 57.4728 50.9606 56.4208 50.9606V53.4606C59.0895 53.4606 61.0392 51.105 61.0392 48.4767H58.5392ZM56.4208 50.9606C55.3688 50.9606 54.3024 49.9727 54.3024 48.4767H51.8023C51.8023 51.105 53.7521 53.4606 56.4208 53.4606V50.9606ZM54.3024 48.4767V32.3654H51.8023V48.4767H54.3024ZM54.3024 32.3654C54.3024 30.8694 55.3688 29.8816 56.4208 29.8816V27.3816C53.7521 27.3816 51.8023 29.7372 51.8023 32.3654H54.3024ZM30.7366 54.329C29.2999 54.329 28.1971 53.2065 28.1971 51.8969H25.6971C25.6971 54.6545 27.9875 56.829 30.7366 56.829V54.329ZM28.1971 51.8969V28.9452H25.6971V51.8969H28.1971ZM28.1971 28.9452C28.1971 27.6357 29.2999 26.5132 30.7366 26.5132V24.0132C27.9875 24.0132 25.6971 26.1877 25.6971 28.9452H28.1971ZM30.7366 26.5132C32.1732 26.5132 33.276 27.6357 33.276 28.9452H35.776C35.776 26.1877 33.4857 24.0132 30.7366 24.0132V26.5132ZM33.276 28.9452V51.8969H35.776V28.9452H33.276ZM33.276 51.8969C33.276 53.2065 32.1732 54.329 30.7366 54.329V56.829C33.4857 56.829 35.776 54.6545 35.776 51.8969H33.276ZM23.1576 50.9606C21.7376 50.9606 20.6181 49.8311 20.6181 48.4767H18.1181C18.1181 51.2466 20.3919 53.4606 23.1576 53.4606V50.9606ZM20.6181 48.4767V32.3654H18.1181V48.4767H20.6181ZM20.6181 32.3654C20.6181 31.011 21.7376 29.8816 23.1576 29.8816V27.3816C20.3919 27.3816 18.1181 29.5956 18.1181 32.3654H20.6181ZM23.1576 29.8816C24.5776 29.8816 25.6971 31.011 25.6971 32.3654H28.1971C28.1971 29.5956 25.9233 27.3816 23.1576 27.3816V29.8816ZM25.6971 32.3654V48.4767H28.1971V32.3654H25.6971ZM25.6971 48.4767C25.6971 49.8311 24.5776 50.9606 23.1576 50.9606V53.4606C25.9233 53.4606 28.1971 51.2466 28.1971 48.4767H25.6971ZM60.8197 41.6787L60.8473 41.6385L58.7863 40.2235L58.7587 40.2636L60.8197 41.6787ZM60.8472 41.6386C62.175 39.7051 63.1766 38.3405 64.9854 37.9788L64.4951 35.5273C61.5408 36.1182 60.0126 38.4377 58.7863 40.2234L60.8472 41.6386ZM64.9854 37.9788C65.0026 37.9753 65.0144 37.9742 65.0213 37.9739C65.0281 37.9735 65.0314 37.9739 65.0318 37.9739C65.0323 37.974 65.0317 37.9739 65.0308 37.9737C65.0299 37.9734 65.0302 37.9734 65.032 37.9742C65.0393 37.9774 65.0901 38.0027 65.1734 38.1027C65.3572 38.3231 65.5282 38.6965 65.665 39.1314L68.0498 38.3811C67.8824 37.8491 67.5934 37.1012 67.0938 36.5019C66.5553 35.8559 65.6737 35.2916 64.4951 35.5273L64.9854 37.9788ZM65.665 39.1314C66.0437 40.3351 66.5096 41.5773 67.3421 42.545C68.23 43.5771 69.4434 44.1996 71.0927 44.3495L71.319 41.8598C70.2413 41.7618 69.6548 41.3999 69.2373 40.9146C68.7645 40.365 68.4197 39.557 68.0498 38.3811L65.665 39.1314ZM71.0927 44.3495C74.2069 44.6327 78.1189 43.2787 80.7349 41.3763L79.2645 39.3544C77.0179 40.9882 73.6959 42.0759 71.319 41.8598L71.0927 44.3495ZM20.3989 41.365L20.3663 41.3175L18.3048 42.7317L18.3374 42.7792L20.3989 41.365ZM20.3664 41.3175C18.9098 39.1941 17.1533 36.5393 13.7688 35.8617L13.278 38.313C15.5164 38.7612 16.7464 40.4599 18.3048 42.7317L20.3664 41.3175ZM13.7688 35.8617C12.4814 35.6039 11.5178 36.2161 10.9179 36.9365C10.3568 37.6103 10.0263 38.4601 9.8315 39.0798L12.2165 39.8294C12.3808 39.3065 12.5935 38.8312 12.839 38.5363C12.9533 38.3991 13.0401 38.3435 13.0889 38.3221C13.1218 38.3077 13.171 38.2916 13.278 38.313L13.7688 35.8617ZM9.8315 39.0798C9.39397 40.472 8.97589 41.4665 8.38509 42.1539C7.84969 42.777 7.10082 43.2281 5.77733 43.3485L6.0039 45.8382C7.89969 45.6657 9.27563 44.9534 10.2812 43.7833C11.2313 42.6777 11.7703 41.2493 12.2165 39.8294L9.8315 39.0798ZM5.77733 43.3485C4.27205 43.4855 2.42878 43.1923 0.589986 42.5619L-0.220846 44.9267C1.83787 45.6326 4.0456 46.0164 6.0039 45.8382L5.77733 43.3485Z" fill="url(#paint0_linear_3274_12074)"/>
</g>
<defs>
<linearGradient id="paint0_linear_3274_12074" x1="40.0921" y1="25.2632" x2="40.0921" y2="55.579" gradientUnits="userSpaceOnUse">
<stop offset="0" stop-color="#71A5E2"/>
<stop offset="1" stop-color="#E36EB9"/>
</linearGradient>
</defs>
</svg>
