<svg width="32" height="32" viewBox="0 0 32 32" fill="none" xmlns="http://www.w3.org/2000/svg">
<path fill-rule="evenodd" clip-rule="evenodd" d="M30.2222 16C30.2222 23.8547 23.8547 30.2222 16 30.2222C8.14528 30.2222 1.77778 23.8547 1.77778 16C1.77778 8.14528 8.14528 1.77778 16 1.77778C23.8547 1.77778 30.2222 8.14528 30.2222 16ZM32 16C32 24.8366 24.8366 32 16 32C7.16344 32 0 24.8366 0 16C0 7.16344 7.16344 0 16 0C24.8366 0 32 7.16344 32 16ZM16.1244 20.9974L25.2605 11.2522L23.96 10.033L14.8239 19.7782C14.6672 19.9453 14.4083 19.9638 14.2294 19.8207L8.53824 15.2678L7.42465 16.6598L13.1158 21.2127C14.0212 21.937 15.3313 21.8432 16.1244 20.9974Z" fill="url(#paint0_linear_4606_4674)"/>
<defs>
<linearGradient id="paint0_linear_4606_4674" x1="3.34169e-08" y1="15.8532" x2="32" y2="15.8532" gradientUnits="userSpaceOnUse">
<stop offset="0" stop-color="#EE59C1"/>
<stop offset="1" stop-color="#64A6F9"/>
</linearGradient>
</defs>
</svg>
