<svg width="28" height="28" viewBox="0 0 28 28" fill="none" xmlns="http://www.w3.org/2000/svg">
<path fill-rule="evenodd" clip-rule="evenodd" d="M13.7764 3.55279C13.9172 3.4824 14.0828 3.4824 14.2236 3.55279L24.2236 8.55279C24.393 8.63748 24.5 8.81061 24.5 9C24.5 9.18939 24.393 9.36252 24.2236 9.44721L14.2236 14.4472C14.0828 14.5176 13.9172 14.5176 13.7764 14.4472L3.7764 9.44721C3.607 9.36252 3.5 9.18939 3.5 9C3.5 8.81061 3.607 8.63748 3.7764 8.55279L13.7764 3.55279ZM5.11804 9L14 13.441L22.882 9L14 4.55902L5.11804 9ZM3.55279 13.7764C3.67628 13.5294 3.97662 13.4293 4.22361 13.5528L14 18.441L23.7764 13.5528C24.0234 13.4293 24.3237 13.5294 24.4472 13.7764C24.5707 14.0234 24.4706 14.3237 24.2236 14.4472L14.2236 19.4472C14.0828 19.5176 13.9172 19.5176 13.7764 19.4472L3.7764 14.4472C3.52941 14.3237 3.42929 14.0234 3.55279 13.7764ZM3.55279 18.7764C3.67628 18.5294 3.97662 18.4293 4.22361 18.5528L14 23.441L23.7764 18.5528C24.0234 18.4293 24.3237 18.5294 24.4472 18.7764C24.5707 19.0234 24.4706 19.3237 24.2236 19.4472L14.2236 24.4472C14.0828 24.5176 13.9172 24.5176 13.7764 24.4472L3.7764 19.4472C3.52941 19.3237 3.42929 19.0234 3.55279 18.7764Z" fill="#999999"/>
</svg>
