<svg width="121" height="115" viewBox="0 0 121 115" fill="none" xmlns="http://www.w3.org/2000/svg">
<g clip-path="url(#clip0_3558_694)">
<path d="M57.4998 108.867C87.5625 108.867 111.933 84.4961 111.933 54.4334C111.933 24.3707 87.5625 0 57.4998 0C27.4371 0 3.06641 24.3707 3.06641 54.4334C3.06641 84.4961 27.4371 108.867 57.4998 108.867Z" fill="#FFEFF9"/>
<path d="M114.133 14.2667C117.52 14.2667 120.266 11.5207 120.266 8.13334C120.266 4.74599 117.52 2 114.133 2C110.746 2 108 4.74599 108 8.13334C108 11.5207 110.746 14.2667 114.133 14.2667Z" fill="#BCDDFD"/>
<path d="M95.8333 99.6666C97.9504 99.6666 99.6666 97.9504 99.6666 95.8333C99.6666 93.7162 97.9504 92 95.8333 92C93.7162 92 92 93.7162 92 95.8333C92 97.9504 93.7162 99.6666 95.8333 99.6666Z" fill="#BCDDFD"/>
<path d="M85.0998 99.6703C86.3701 99.6703 87.3998 98.6406 87.3998 97.3703C87.3998 96.1 86.3701 95.0703 85.0998 95.0703C83.8296 95.0703 82.7998 96.1 82.7998 97.3703C82.7998 98.6406 83.8296 99.6703 85.0998 99.6703Z" fill="white"/>
<path d="M97.3664 87.3969C98.6367 87.3969 99.6664 86.3672 99.6664 85.0969C99.6664 83.8266 98.6367 82.7969 97.3664 82.7969C96.0962 82.7969 95.0664 83.8266 95.0664 85.0969C95.0664 86.3672 96.0962 87.3969 97.3664 87.3969Z" fill="white"/>
<path d="M19.9331 115.001C23.3205 115.001 26.0665 112.255 26.0665 108.868C26.0665 105.481 23.3205 102.735 19.9331 102.735C16.5458 102.735 13.7998 105.481 13.7998 108.868C13.7998 112.255 16.5458 115.001 19.9331 115.001Z" fill="#BCDDFD"/>
<path d="M3.06667 29.1334C4.76034 29.1334 6.13334 27.7604 6.13334 26.0667C6.13334 24.373 4.76034 23 3.06667 23C1.37299 23 0 24.373 0 26.0667C0 27.7604 1.37299 29.1334 3.06667 29.1334Z" fill="#BCDDFD"/>
<path d="M35.2669 115.001C36.9606 115.001 38.3336 113.628 38.3336 111.934C38.3336 110.24 36.9606 108.867 35.2669 108.867C33.5732 108.867 32.2002 110.24 32.2002 111.934C32.2002 113.628 33.5732 115.001 35.2669 115.001Z" fill="#BCDDFD"/>
<path d="M76 29.5H39C38.1716 29.5 37.5 30.1716 37.5 31V85C37.5 85.8284 38.1716 86.5 39 86.5H76C76.8284 86.5 77.5 85.8284 77.5 85V31C77.5 30.1716 76.8284 29.5 76 29.5Z" fill="#48BED8" stroke="#643352"/>
<path d="M69.5 43H45.5C45.2239 43 45 43.2239 45 43.5C45 43.7761 45.2239 44 45.5 44H69.5C69.7761 44 70 43.7761 70 43.5C70 43.2239 69.7761 43 69.5 43Z" fill="#643352"/>
<path d="M69.5 48H45.5C45.2239 48 45 48.2239 45 48.5C45 48.7761 45.2239 49 45.5 49H69.5C69.7761 49 70 48.7761 70 48.5C70 48.2239 69.7761 48 69.5 48Z" fill="#643352"/>
<path d="M69.5 53H45.5C45.2239 53 45 53.2239 45 53.5C45 53.7761 45.2239 54 45.5 54H69.5C69.7761 54 70 53.7761 70 53.5C70 53.2239 69.7761 53 69.5 53Z" fill="#643352"/>
<path d="M69.5 58H45.5C45.2239 58 45 58.2239 45 58.5C45 58.7761 45.2239 59 45.5 59H69.5C69.7761 59 70 58.7761 70 58.5C70 58.2239 69.7761 58 69.5 58Z" fill="#643352"/>
<path d="M69.5 63H45.5C45.2239 63 45 63.2239 45 63.5C45 63.7761 45.2239 64 45.5 64H69.5C69.7761 64 70 63.7761 70 63.5C70 63.2239 69.7761 63 69.5 63Z" fill="#643352"/>
<path d="M69.5 68H45.5C45.2239 68 45 68.2239 45 68.5C45 68.7761 45.2239 69 45.5 69H69.5C69.7761 69 70 68.7761 70 68.5C70 68.2239 69.7761 68 69.5 68Z" fill="#643352"/>
<path d="M48 29H44V30H48V29Z" fill="#48BED8"/>
<path d="M54 29H50V30H54V29Z" fill="#48BED8"/>
<path d="M60 29H56V30H60V29Z" fill="#48BED8"/>
<path d="M66 29H62V30H66V29Z" fill="#48BED8"/>
<path d="M72 29H68V30H72V29Z" fill="#48BED8"/>
<path d="M47 26H45V32H47V26Z" fill="#643352"/>
<path d="M48 32H44V35H48V32Z" fill="#643352"/>
<path d="M53 26H51V32H53V26Z" fill="#643352"/>
<path d="M54 32H50V35H54V32Z" fill="#643352"/>
<path d="M59 26H57V32H59V26Z" fill="#643352"/>
<path d="M60 32H56V35H60V32Z" fill="#643352"/>
<path d="M65 26H63V32H65V26Z" fill="#643352"/>
<path d="M66 32H62V35H66V32Z" fill="#643352"/>
<path d="M71 26H69V32H71V26Z" fill="#643352"/>
<path d="M72 32H68V35H72V32Z" fill="#643352"/>
</g>
<defs>
<clipPath id="clip0_3558_694">
<rect width="121" height="115" fill="white"/>
</clipPath>
</defs>
</svg>
