<svg width="24" height="24" viewBox="0 0 24 24" fill="none" xmlns="http://www.w3.org/2000/svg">
<path fill-rule="evenodd" clip-rule="evenodd" d="M12 22.6C14.1782 22.6 16.203 21.943 17.887 20.8163C17.8392 20.6741 17.7893 20.5228 17.7375 20.3656L17.7375 20.3655L17.7374 20.3652C17.6517 20.1052 17.5608 19.8292 17.4653 19.5523C17.1722 18.7028 16.8033 17.7368 16.3194 16.8267C15.3342 14.9743 13.9906 13.5616 12.0328 13.5616C12.0244 13.5616 12.016 13.5616 12.0077 13.5615C11.9993 13.5616 11.9909 13.5616 11.9826 13.5616C10.0247 13.5616 8.68115 14.9743 7.69597 16.8267C7.21199 17.7368 6.84317 18.7028 6.55004 19.5523C6.4545 19.8292 6.36356 20.1053 6.27787 20.3654L6.27784 20.3655L6.27783 20.3655C6.22502 20.5258 6.17421 20.68 6.12555 20.8247C7.80702 21.9462 9.82716 22.6 12 22.6ZM4.95107 19.9167C2.7722 17.9753 1.4 15.1479 1.4 12C1.4 6.14578 6.14578 1.4 12 1.4C17.8542 1.4 22.6 6.14578 22.6 12C22.6 15.1422 21.2328 17.9651 19.0608 19.9062C18.9817 19.6658 18.8922 19.3955 18.7887 19.0957C18.4864 18.2195 18.0898 17.1741 17.5554 16.1694C16.8635 14.8684 15.8887 13.5443 14.5148 12.7908C15.8632 11.8786 16.6829 10.2781 16.6829 8.658C16.6829 6.18951 14.8795 3.87136 12.0328 3.84441V3.84417C12.0244 3.84417 12.016 3.84419 12.0077 3.84423C11.9993 3.84419 11.9909 3.84417 11.9826 3.84417V3.84441C9.13582 3.87136 7.33247 6.18951 7.33247 8.658C7.33247 10.2781 8.15216 11.8786 9.50049 12.7908C8.12658 13.5443 7.1518 14.8684 6.4599 16.1694C5.92554 17.1741 5.52894 18.2195 5.2266 19.0957C5.12165 19.3999 5.03099 19.6737 4.95107 19.9167ZM12.0077 12.1615C13.8824 12.1468 15.2829 10.4849 15.2829 8.658C15.2829 6.83894 13.9841 5.25753 12.0077 5.24426C10.0312 5.25753 8.73247 6.83894 8.73247 8.658C8.73247 10.4849 10.1329 12.1468 12.0077 12.1615ZM12 24C18.6274 24 24 18.6274 24 12C24 5.37258 18.6274 0 12 0C5.37258 0 0 5.37258 0 12C0 18.6274 5.37258 24 12 24Z" fill="url(#paint0_linear_3178_5167)"/>
<defs>
<linearGradient id="paint0_linear_3178_5167" x1="4.44735e-08" y1="13.3333" x2="24.4444" y2="12.8889" gradientUnits="userSpaceOnUse">
<stop offset="0" stop-color="#4598FB"/>
<stop offset="1" stop-color="#D15EAE"/>
</linearGradient>
</defs>
</svg>
