<svg width="146" height="146" viewBox="0 0 146 146" fill="none" xmlns="http://www.w3.org/2000/svg">
<path d="M46.9284 67.786V46.9289C46.9284 40.0143 49.6752 33.3829 54.5646 28.4936C59.4539 23.6042 66.0853 20.8574 72.9999 20.8574C79.9144 20.8574 86.5458 23.6042 91.4351 28.4936C96.3245 33.3829 99.0713 40.0143 99.0713 46.9289V67.786M36.4999 67.786H109.5C115.259 67.786 119.928 72.455 119.928 78.2146V114.715C119.928 120.474 115.259 125.143 109.5 125.143H36.4999C30.7403 125.143 26.0713 120.474 26.0713 114.715V78.2146C26.0713 72.455 30.7403 67.786 36.4999 67.786Z" stroke="white" stroke-width="2.97959" stroke-linecap="round" stroke-linejoin="round"/>
</svg>
