<svg width="21" height="22" viewBox="0 0 21 22" fill="none" xmlns="http://www.w3.org/2000/svg">
<path d="M1.5 2.59375H4.5L6.51 12.5409C6.57858 12.8829 6.76643 13.1901 7.04066 13.4088C7.31489 13.6274 7.65802 13.7436 8.01 13.7369H15.3C15.652 13.7436 15.9951 13.6274 16.2693 13.4088C16.5436 13.1901 16.7314 12.8829 16.8 12.5409L18 6.30813H5.25M8.25 17.4513C8.25 17.8615 7.91421 18.1941 7.5 18.1941C7.08579 18.1941 6.75 17.8615 6.75 17.4513C6.75 17.041 7.08579 16.7084 7.5 16.7084C7.91421 16.7084 8.25 17.041 8.25 17.4513ZM16.5 17.4513C16.5 17.8615 16.1642 18.1941 15.75 18.1941C15.3358 18.1941 15 17.8615 15 17.4513C15 17.041 15.3358 16.7084 15.75 16.7084C16.1642 16.7084 16.5 17.041 16.5 17.4513Z" stroke="#333333" stroke-linecap="round" stroke-linejoin="round"/>
</svg>
