<svg width="18" height="18" viewBox="0 0 18 18" fill="none" xmlns="http://www.w3.org/2000/svg">
<mask id="path-1-inside-1_1668:4430" fill="white">
<path d="M7.1625 0.838983V7.2839H0.825V0.838983H7.1625ZM7.9875 0H0V8.12288H7.9875V0Z"/>
</mask>
<path d="M7.1625 0.838983H8.1625V-0.161017H7.1625V0.838983ZM7.1625 7.2839V8.2839H8.1625V7.2839H7.1625ZM0.825 7.2839H-0.175V8.2839H0.825V7.2839ZM0.825 0.838983V-0.161017H-0.175V0.838983H0.825ZM7.9875 0H8.9875V-1H7.9875V0ZM0 0V-1H-1V0H0ZM0 8.12288H-1V9.12288H0V8.12288ZM7.9875 8.12288V9.12288H8.9875V8.12288H7.9875ZM6.1625 0.838983V7.2839H8.1625V0.838983H6.1625ZM7.1625 6.2839H0.825V8.2839H7.1625V6.2839ZM1.825 7.2839V0.838983H-0.175V7.2839H1.825ZM0.825 1.83898H7.1625V-0.161017H0.825V1.83898ZM7.9875 -1H0V1H7.9875V-1ZM-1 0V8.12288H1V0H-1ZM0 9.12288H7.9875V7.12288H0V9.12288ZM8.9875 8.12288V0H6.9875V8.12288H8.9875Z" fill="#333333" mask="url(#path-1-inside-1_1668:4430)"/>
<mask id="path-3-inside-2_1668:4430" fill="white">
<path d="M17.175 0.838983V7.2839H10.8375V0.838983H17.175ZM18 0H10.0125V8.12288H18V0Z"/>
</mask>
<path d="M17.175 0.838983H18.175V-0.161017H17.175V0.838983ZM17.175 7.2839V8.2839H18.175V7.2839H17.175ZM10.8375 7.2839H9.83748V8.2839H10.8375V7.2839ZM10.8375 0.838983V-0.161017H9.83748V0.838983H10.8375ZM18 0H19V-1H18V0ZM10.0125 0V-1H9.01248V0H10.0125ZM10.0125 8.12288H9.01248V9.12288H10.0125V8.12288ZM18 8.12288V9.12288H19V8.12288H18ZM16.175 0.838983V7.2839H18.175V0.838983H16.175ZM17.175 6.2839H10.8375V8.2839H17.175V6.2839ZM11.8375 7.2839V0.838983H9.83748V7.2839H11.8375ZM10.8375 1.83898H17.175V-0.161017H10.8375V1.83898ZM18 -1H10.0125V1H18V-1ZM9.01248 0V8.12288H11.0125V0H9.01248ZM10.0125 9.12288H18V7.12288H10.0125V9.12288ZM19 8.12288V0H17V8.12288H19Z" fill="#333333" mask="url(#path-3-inside-2_1668:4430)"/>
<mask id="path-5-inside-3_1668:4430" fill="white">
<path d="M7.1625 10.6779V17.161H0.825V10.6779H7.1625ZM7.9875 9.87708H0V18H7.9875V9.87708Z"/>
</mask>
<path d="M7.1625 10.6779H8.1625V9.67792H7.1625V10.6779ZM7.1625 17.161V18.161H8.1625V17.161H7.1625ZM0.825 17.161H-0.175V18.161H0.825V17.161ZM0.825 10.6779V9.67792H-0.175V10.6779H0.825ZM7.9875 9.87708H8.9875V8.87708H7.9875V9.87708ZM0 9.87708V8.87708H-1V9.87708H0ZM0 18H-1V19H0V18ZM7.9875 18V19H8.9875V18H7.9875ZM6.1625 10.6779V17.161H8.1625V10.6779H6.1625ZM7.1625 16.161H0.825V18.161H7.1625V16.161ZM1.825 17.161V10.6779H-0.175V17.161H1.825ZM0.825 11.6779H7.1625V9.67792H0.825V11.6779ZM7.9875 8.87708H0V10.8771H7.9875V8.87708ZM-1 9.87708V18H1V9.87708H-1ZM0 19H7.9875V17H0V19ZM8.9875 18V9.87708H6.9875V18H8.9875Z" fill="#333333" mask="url(#path-5-inside-3_1668:4430)"/>
<mask id="path-7-inside-4_1668:4430" fill="white">
<path d="M17.175 10.6779V17.161H10.8375V10.6779H17.175ZM18 9.87708H10.0125V18H18V9.87708Z"/>
</mask>
<path d="M17.175 10.6779H18.175V9.67792H17.175V10.6779ZM17.175 17.161V18.161H18.175V17.161H17.175ZM10.8375 17.161H9.83748V18.161H10.8375V17.161ZM10.8375 10.6779V9.67792H9.83748V10.6779H10.8375ZM18 9.87708H19V8.87708H18V9.87708ZM10.0125 9.87708V8.87708H9.01248V9.87708H10.0125ZM10.0125 18H9.01248V19H10.0125V18ZM18 18V19H19V18H18ZM16.175 10.6779V17.161H18.175V10.6779H16.175ZM17.175 16.161H10.8375V18.161H17.175V16.161ZM11.8375 17.161V10.6779H9.83748V17.161H11.8375ZM10.8375 11.6779H17.175V9.67792H10.8375V11.6779ZM18 8.87708H10.0125V10.8771H18V8.87708ZM9.01248 9.87708V18H11.0125V9.87708H9.01248ZM10.0125 19H18V17H10.0125V19ZM19 18V9.87708H17V18H19Z" fill="#333333" mask="url(#path-7-inside-4_1668:4430)"/>
</svg>
