<svg width="31" height="35" viewBox="0 0 31 35" fill="none" xmlns="http://www.w3.org/2000/svg">
<path d="M28.5776 15.8373L3.22465 1.1992C2.99924 1.06881 2.74346 1.00012 2.48306 1C2.22264 0.999884 1.96681 1.06837 1.74129 1.19857C1.51576 1.32874 1.32851 1.51606 1.19838 1.74161C1.06826 1.96716 0.999815 2.22301 1 2.48343V31.7558C0.999815 32.0163 1.06826 32.272 1.19838 32.4977C1.32851 32.7232 1.51576 32.9104 1.74129 33.0406C1.96681 33.1707 2.22264 33.2394 2.48306 33.2392C2.74346 33.2392 2.99924 33.1705 3.22465 33.0401L28.5776 18.4019C28.8026 18.2719 28.9896 18.0849 29.1196 17.8599C29.2497 17.6349 29.3182 17.3794 29.3182 17.1196C29.3182 16.8598 29.2497 16.6043 29.1196 16.3793C28.9896 16.1542 28.8026 15.9672 28.5776 15.8373Z" stroke="#78798D" stroke-width="1.82017" stroke-miterlimit="10"/>
<path d="M1.00195 17.1191H8.50915" stroke="#78798D" stroke-width="1.82017" stroke-miterlimit="10" stroke-linecap="round"/>
</svg>
