<svg width="121" height="115" viewBox="0 0 121 115" fill="none" xmlns="http://www.w3.org/2000/svg">
<circle cx="57.4998" cy="54.4334" r="54.4334" fill="#FFEFF9"/>
<circle cx="114.133" cy="8.13334" r="6.13334" fill="#BCDDFD"/>
<circle cx="95.8333" cy="95.8333" r="3.83334" fill="#BCDDFD"/>
<circle cx="85.0998" cy="97.3703" r="2.3" fill="white"/>
<circle cx="97.3664" cy="85.0969" r="2.3" fill="white"/>
<circle cx="19.9331" cy="108.868" r="6.13334" fill="#BCDDFD"/>
<circle cx="3.06667" cy="26.0667" r="3.06667" fill="#BCDDFD"/>
<circle cx="35.2669" cy="111.934" r="3.06667" fill="#BCDDFD"/>
<path d="M24.5 39C24.5 38.1716 25.1716 37.5 26 37.5H62.5C63.3284 37.5 64 38.1716 64 39V74C64 74.8284 63.3284 75.5 62.5 75.5H26C25.1716 75.5 24.5 74.8284 24.5 74V39Z" fill="#FDDBBC" stroke="#643352"/>
<rect x="24.5" y="18.5" width="40" height="49" rx="1.5" fill="#48BED8" stroke="#643352"/>
<rect x="28" y="32" width="1" height="32" rx="0.5" fill="#643352"/>
<rect x="28" y="26" width="1" height="4" rx="0.5" fill="#643352"/>
<rect x="28" y="22" width="1" height="2" rx="0.5" fill="#643352"/>
<path d="M49.5 53C49.5 52.1716 50.1716 51.5 51 51.5H87.5C88.3284 51.5 89 52.1716 89 53V88C89 88.8284 88.3284 89.5 87.5 89.5H51C50.1716 89.5 49.5 88.8284 49.5 88V53Z" fill="#FDDBBC" stroke="#643352"/>
<rect x="49.5" y="32.5" width="40" height="49" rx="1.5" fill="#C94A5A" stroke="#643352"/>
<rect x="53" y="46" width="1" height="32" rx="0.5" fill="#643352"/>
<rect x="53" y="40" width="1" height="4" rx="0.5" fill="#643352"/>
<rect x="53" y="36" width="1" height="2" rx="0.5" fill="#643352"/>
<rect x="60.5" y="44.5" width="21" height="11" rx="1.5" stroke="#643352"/>
</svg>
