<svg width="64" height="65" viewBox="0 0 64 65" fill="none" xmlns="http://www.w3.org/2000/svg">
<path fill-rule="evenodd" clip-rule="evenodd" d="M49.2203 45.4599C51.9391 41.8531 53.551 37.3648 53.551 32.5C53.551 20.5977 43.9023 10.949 32 10.949C20.0977 10.949 10.449 20.5977 10.449 32.5C10.449 37.3735 12.0667 41.8692 14.7944 45.4794C14.1112 41.5733 14.0214 37.8252 14.0214 35.7027C14.0214 34.5335 14.1929 32.9963 15.3269 31.7778C16.4683 30.5513 18.3267 29.9172 21.0542 29.9172H21.0783H21.1024H21.1265H21.1507H21.1748H21.199H21.2232H21.2474H21.2717H21.2959H21.3202H21.3445H21.3688H21.3931H21.4174H21.4418H21.4661H21.4905H21.5149H21.5393H21.5637H21.5881H21.6126H21.6371H21.6615H21.686H21.7105H21.735H21.7596H21.7841H21.8087H21.8333H21.8578H21.8824H21.907H21.9317H21.9563H21.9809H22.0056H22.0303H22.0549H22.0796H22.1043H22.129H22.1538H22.1785H22.2032H22.228H22.2528H22.2775H22.3023H22.3271H22.3519H22.3767H22.4015H22.4264H22.4512H22.4761H22.5009H22.5258H22.5506H22.5755H22.6004H22.6253H22.6502H22.6751H22.6968C22.8341 28.3562 23.1784 26.6879 23.8472 25.1691C24.4761 23.7411 25.4135 22.3979 26.7824 21.4271C28.1076 20.4872 29.7637 19.9489 31.7718 19.9551C33.7799 19.9489 35.4359 20.4872 36.7611 21.4271C38.13 22.3979 39.0674 23.7411 39.6963 25.1691C40.3652 26.6879 40.7094 28.3562 40.8467 29.9172H40.8571H40.8828H40.9085H40.9342H40.9599H40.9856H41.0113H41.037H41.0627H41.0884H41.1141H41.1398H41.1655H41.1911H41.2168H41.2425H41.2681H41.2938H41.3195H41.3451H41.3707H41.3964H41.422H41.4476H41.4732H41.4988H41.5244H41.55H41.5756H41.6012H41.6268H41.6524H41.6779H41.7035H41.729H41.7545H41.7801H41.8056H41.8311H41.8566H41.8821H41.9076H41.933H41.9585H41.984H42.0094H42.0348H42.0603H42.0857H42.1111H42.1365H42.1618H42.1872H42.2126H42.2379H42.2632H42.2886H42.3139H42.3392H42.3645H42.3897H42.415H42.4403H42.4655H42.4907H42.5159H42.5411H42.5663H42.5915H42.6166H42.6418H42.6669H42.692H42.7171H42.7422H42.7672H42.7923H42.8173H42.8423H42.8673H42.8923H42.9173H42.9422H42.9672H42.9921H43.017H43.0419H43.0668H43.0916H43.1165H43.1413H43.1661H43.1908H43.2156H43.2404C46.0293 29.9172 47.9223 30.5473 49.0871 31.766C50.2519 32.9848 50.4301 34.5276 50.4301 35.7027C50.4301 37.8865 50.0569 41.6065 49.2203 45.4599ZM40.9045 32.3662H40.9085H40.9342H40.9599H40.9856H41.0113H41.037H41.0627H41.0884H41.1141H41.1398H41.1655H41.1911H41.2168H41.2425H41.2681H41.2938H41.3195H41.3451H41.3707H41.3964H41.422H41.4476H41.4732H41.4988H41.5244H41.55H41.5756H41.6012H41.6268H41.6524H41.6779H41.7035H41.729H41.7545H41.7801H41.8056H41.8311H41.8566H41.8821H41.9076H41.933H41.9585H41.984H42.0094H42.0348H42.0603H42.0857H42.1111H42.1365H42.1618H42.1872H42.2126H42.2379H42.2632H42.2886H42.3139H42.3392H42.3645H42.3897H42.415H42.4403H42.4655H42.4907H42.5159H42.5411H42.5663H42.5915H42.6166H42.6418H42.6669H42.692H42.7171H42.7422H42.7672H42.7923H42.8173H42.8423H42.8673H42.8923H42.9173H42.9422H42.9672H42.9921H43.017H43.0419H43.0668H43.0916H43.1165H43.1413H43.1661H43.1908H43.2156H43.2404C45.7285 32.3662 46.818 32.9363 47.3167 33.4581C47.8152 33.9797 47.9812 34.7173 47.9812 35.7027C47.9812 38.4613 47.3119 44.1178 45.7453 49.035L45.8012 49.0528C42.0626 52.1733 37.2506 54.051 32 54.051C26.7201 54.051 21.8837 52.1523 18.1363 49.0005C16.6427 44.1556 16.4704 38.5545 16.4704 35.7027C16.4704 34.7114 16.6339 33.9681 17.1196 33.4462C17.5978 32.9324 18.6435 32.3662 21.0542 32.3662H21.0783H21.1024H21.1265H21.1507H21.1748H21.199H21.2232H21.2474H21.2717H21.2959H21.3202H21.3445H21.3688H21.3931H21.4174H21.4418H21.4661H21.4905H21.5149H21.5393H21.5637H21.5881H21.6126H21.6371H21.6615H21.686H21.7105H21.735H21.7596H21.7841H21.8087H21.8333H21.8578H21.8824H21.907H21.9317H21.9563H21.9809H22.0056H22.0303H22.0549H22.0796H22.1043H22.129H22.1538H22.1785H22.2032H22.228H22.2528H22.2775H22.3023H22.3271H22.3519H22.3767H22.4015H22.4264H22.4512H22.4761H22.5009H22.5258H22.5506H22.5755H22.6004H22.6253H22.639C22.6561 32.7835 22.6864 33.1775 22.7266 33.5407L25.1607 33.2711C25.1293 32.9875 25.1053 32.6843 25.0902 32.3662H25.099H25.1238H25.1485H25.1733H25.1981H25.2228H25.2476H25.2723H25.2971H25.3218H25.3465H25.3712H25.3958H25.4205H25.4452H25.4698H25.4945H25.5191H25.5437H25.5683H25.5929H25.6175H25.642H25.6666H25.6911H25.7156H25.7402H25.7646H25.7891H25.8136H25.8381H25.8625H25.8869H25.9113H25.9357H25.9601H25.9845H26.0088H26.0332H26.0575H26.0818H26.1061H26.1303H26.1546H26.1788H26.2031H26.2273H26.2514H26.2756H26.2998H26.3239H26.348H26.3721H26.3962H26.4203H26.4443H26.4683H26.4924H26.5163H26.5403H26.5643H26.5882H26.6121H26.636H26.6599H26.6837H26.7076H26.7314H26.7552H26.7789H26.8027H26.8264H26.8501H26.8738H26.8975H26.9211H26.9448H26.9684H26.9919H27.0155H27.039H27.0625H27.086H27.1095H27.1329H27.1563H27.1797H27.2031H27.2264H27.2498H27.2731H27.2963H27.3196H27.3428H27.366H27.3892H27.4123H27.4355H27.4586H27.4816H27.5047H27.5277H27.5507H27.5737H27.5966H27.6195H27.6424H27.6653H27.6881H27.7109H27.7337H27.7564H27.7792H27.8019H27.8245H27.8472H27.8698H27.8924H27.9149H27.9374H27.9599H27.9824H28.0048H28.0272H28.0496H28.072H28.0943H28.1166H28.1388H28.161H28.1832H28.2054H28.2275H28.2496H28.2717H28.2937H28.3157H28.3377H28.3596H28.3815H28.4034H28.4253H28.4471H28.4688H28.4906H28.5123H28.534H28.5556H28.5772H28.5988H28.6203H28.6418H28.6633H28.6847H28.7061H28.7275H28.7488H28.7701H28.7914H28.8126H28.8338H28.8549H28.876H28.8971H28.9182H28.9392H28.9601H28.9811H29.002H29.0228H29.0436H29.0644H29.0852H29.1059H29.1265H29.1472H29.1677H29.1883H29.2088H29.2293H29.2497H29.2701H29.2905H29.3108H29.331H29.3513H29.3715H29.3916H29.4117H29.4318H29.4518H29.4718H29.4918H29.5117H29.5315H29.5514H29.5711H29.5909H29.6106H29.6302H29.6498H29.6694H29.6889H29.7084H29.7278H29.7472H29.7666H29.7859H29.8052H29.8244H29.8436H29.8627H29.8818H29.9008H29.9198H29.9388H29.9577H29.9765H29.9953H30.0141H30.0328H30.0515H30.0701H30.0887H30.1073H30.1257H30.1442H30.1626H30.1809H30.1992H30.2175H30.2357H30.2538H30.272H30.29H30.308H30.326H30.3439H30.3618H30.3796H30.3974H30.4151H30.4327H30.4504H30.4679H30.4854H30.5029H30.5203H30.5377H30.555H30.5723H30.5895H30.6066H30.6237H30.6408H30.6578H30.6748H30.6917H30.7085H30.7253H30.7421H30.7587H30.7754H30.792H30.8085H30.825H30.8414H30.8578H30.8741H30.8903H30.9065H30.9227H30.9388H30.9548H30.9708H30.9868H31.0026H31.0185H31.0342H31.0499H31.0656H31.0812H31.0967H31.1122H31.1276H31.143H31.1583H31.1736H31.1888H31.2039H31.219H31.234H31.249H31.2639H31.2788H31.2935H31.3083H31.323H31.3376H31.3521H31.3666H31.3811H31.3954H31.4098H31.424H31.4382H31.4523H31.4664H31.4804H31.4944H31.5083H31.5221H31.5359H31.5496H31.5632H31.5768H31.5903H31.6038H31.6172H31.6305H31.6438H31.657H31.6702H31.6833H31.6963H31.7092H31.7221H31.735H31.7477H31.7604H31.773H31.7856H31.7981H31.8106H31.8229H31.8353H31.8475H31.8597H31.8718H31.8838H31.8958H31.9077H31.9196H31.9314H31.9431H31.9547H31.9663H31.9778H31.9893H31.9981H32.0006H32.0097H32.0215H32.0333H32.0452H32.0572H32.0692H32.0813H32.0935H32.1057H32.118H32.1304H32.1428H32.1553H32.1679H32.1806H32.1933H32.2061H32.2189H32.2318H32.2448H32.2578H32.2709H32.2841H32.2974H32.3107H32.324H32.3375H32.351H32.3645H32.3782H32.3919H32.4056H32.4194H32.4333H32.4473H32.4613H32.4754H32.4895H32.5037H32.518H32.5323H32.5467H32.5612H32.5757H32.5903H32.6049H32.6196H32.6344H32.6492H32.6641H32.6791H32.6941H32.7091H32.7243H32.7395H32.7547H32.77H32.7854H32.8008H32.8163H32.8319H32.8475H32.8631H32.8789H32.8947H32.9105H32.9264H32.9424H32.9584H32.9745H32.9906H33.0068H33.023H33.0393H33.0557H33.0721H33.0886H33.1051H33.1217H33.1384H33.1551H33.1718H33.1886H33.2055H33.2224H33.2394H33.2564H33.2735H33.2907H33.3079H33.3251H33.3424H33.3598H33.3772H33.3947H33.4122H33.4297H33.4474H33.465H33.4828H33.5006H33.5184H33.5363H33.5542H33.5722H33.5903H33.6083H33.6265H33.6447H33.6629H33.6812H33.6996H33.718H33.7364H33.7549H33.7735H33.7921H33.8107H33.8294H33.8482H33.867H33.8858H33.9047H33.9236H33.9426H33.9617H33.9807H33.9999H34.0191H34.0383H34.0576H34.0769H34.0963H34.1157H34.1351H34.1546H34.1742H34.1938H34.2134H34.2331H34.2529H34.2727H34.2925H34.3124H34.3323H34.3522H34.3723H34.3923H34.4124H34.4325H34.4527H34.473H34.4932H34.5135H34.5339H34.5543H34.5747H34.5952H34.6158H34.6363H34.6569H34.6776H34.6983H34.719H34.7398H34.7606H34.7815H34.8024H34.8234H34.8443H34.8654H34.8864H34.9075H34.9287H34.9499H34.9711H34.9923H35.0136H35.035H35.0564H35.0778H35.0992H35.1207H35.1423H35.1638H35.1855H35.2071H35.2288H35.2505H35.2723H35.2941H35.3159H35.3378H35.3597H35.3816H35.4036H35.4256H35.4477H35.4697H35.4919H35.514H35.5362H35.5584H35.5807H35.603H35.6253H35.6477H35.6701H35.6925H35.715H35.7375H35.76H35.7826H35.8052H35.8278H35.8505H35.8732H35.8959H35.9187H35.9414H35.9643H35.9871H36.01H36.0329H36.0559H36.0789H36.1019H36.1249H36.148H36.1711H36.1942H36.2174H36.2406H36.2638H36.287H36.3103H36.3336H36.357H36.3803H36.4037H36.4272H36.4506H36.4741H36.4976H36.5211H36.5447H36.5683H36.5919H36.6155H36.6392H36.6629H36.6866H36.7104H36.7341H36.7579H36.7818H36.8056H36.8295H36.8534H36.8773H36.9013H36.9253H36.9493H36.9733H36.9973H37.0214H37.0455H37.0696H37.0938H37.118H37.1421H37.1664H37.1906H37.2149H37.2391H37.2635H37.2878H37.3121H37.3365H37.3609H37.3853H37.4097H37.4342H37.4587H37.4832H37.5077H37.5322H37.5568H37.5814H37.606H37.6306H37.6552H37.6799H37.7046H37.7293H37.754H37.7787H37.8035H37.8282H37.853H37.8778H37.9026H37.9275H37.9523H37.9772H38.0021H38.027H38.052H38.0769H38.1019H38.1268H38.1518H38.1768H38.2019H38.2269H38.252H38.277H38.3021H38.3272H38.3523H38.3775H38.4026H38.4278H38.4529H38.4533C38.4383 32.6843 38.4142 32.9875 38.3828 33.2711L40.8169 33.5407C40.8571 33.1775 40.8875 32.7835 40.9045 32.3662ZM38.3869 29.9172C38.2579 28.6468 37.9708 27.3273 37.4551 26.1562C36.9562 25.0235 36.2654 24.0779 35.3443 23.4246C34.5093 22.8324 33.4191 22.4329 31.9671 22.4055L31.9671 22.407C31.9013 22.4053 31.8362 22.4043 31.7718 22.404C31.7073 22.4043 31.6422 22.4053 31.5764 22.407L31.5764 22.4055C30.1244 22.4329 29.0342 22.8324 28.1992 23.4246C27.2782 24.0779 26.5873 25.0235 26.0885 26.1562C25.5727 27.3273 25.2856 28.6468 25.1567 29.9172H25.1733H25.1981H25.2228H25.2476H25.2723H25.2971H25.3218H25.3465H25.3712H25.3958H25.4205H25.4452H25.4698H25.4945H25.5191H25.5437H25.5683H25.5929H25.6175H25.642H25.6666H25.6911H25.7156H25.7402H25.7646H25.7891H25.8136H25.8381H25.8625H25.8869H25.9113H25.9357H25.9601H25.9845H26.0088H26.0332H26.0575H26.0818H26.1061H26.1303H26.1546H26.1788H26.2031H26.2273H26.2514H26.2756H26.2998H26.3239H26.348H26.3721H26.3962H26.4203H26.4443H26.4683H26.4924H26.5163H26.5403H26.5643H26.5882H26.6121H26.636H26.6599H26.6837H26.7076H26.7314H26.7552H26.7789H26.8027H26.8264H26.8501H26.8738H26.8975H26.9211H26.9448H26.9684H26.9919H27.0155H27.039H27.0625H27.086H27.1095H27.1329H27.1563H27.1797H27.2031H27.2264H27.2498H27.2731H27.2963H27.3196H27.3428H27.366H27.3892H27.4123H27.4355H27.4586H27.4816H27.5047H27.5277H27.5507H27.5737H27.5966H27.6195H27.6424H27.6653H27.6881H27.7109H27.7337H27.7564H27.7792H27.8019H27.8245H27.8472H27.8698H27.8924H27.9149H27.9374H27.9599H27.9824H28.0048H28.0272H28.0496H28.072H28.0943H28.1166H28.1388H28.161H28.1832H28.2054H28.2275H28.2496H28.2717H28.2937H28.3157H28.3377H28.3596H28.3815H28.4034H28.4253H28.4471H28.4688H28.4906H28.5123H28.534H28.5556H28.5772H28.5988H28.6203H28.6418H28.6633H28.6847H28.7061H28.7275H28.7488H28.7701H28.7914H28.8126H28.8338H28.8549H28.876H28.8971H28.9182H28.9392H28.9601H28.9811H29.002H29.0228H29.0436H29.0644H29.0852H29.1059H29.1265H29.1472H29.1677H29.1883H29.2088H29.2293H29.2497H29.2701H29.2905H29.3108H29.331H29.3513H29.3715H29.3916H29.4117H29.4318H29.4518H29.4718H29.4918H29.5117H29.5315H29.5514H29.5711H29.5909H29.6106H29.6302H29.6498H29.6694H29.6889H29.7084H29.7278H29.7472H29.7666H29.7859H29.8052H29.8244H29.8436H29.8627H29.8818H29.9008H29.9198H29.9388H29.9577H29.9765H29.9953H30.0141H30.0328H30.0515H30.0701H30.0887H30.1073H30.1257H30.1442H30.1626H30.1809H30.1992H30.2175H30.2357H30.2538H30.272H30.29H30.308H30.326H30.3439H30.3618H30.3796H30.3974H30.4151H30.4327H30.4504H30.4679H30.4854H30.5029H30.5203H30.5377H30.555H30.5723H30.5895H30.6066H30.6237H30.6408H30.6578H30.6748H30.6917H30.7085H30.7253H30.7421H30.7587H30.7754H30.792H30.8085H30.825H30.8414H30.8578H30.8741H30.8903H30.9065H30.9227H30.9388H30.9548H30.9708H30.9868H31.0026H31.0185H31.0342H31.0499H31.0656H31.0812H31.0967H31.1122H31.1276H31.143H31.1583H31.1736H31.1888H31.2039H31.219H31.234H31.249H31.2639H31.2788H31.2935H31.3083H31.323H31.3376H31.3521H31.3666H31.3811H31.3954H31.4098H31.424H31.4382H31.4523H31.4664H31.4804H31.4944H31.5083H31.5221H31.5359H31.5496H31.5632H31.5768H31.5903H31.6038H31.6172H31.6305H31.6438H31.657H31.6702H31.6833H31.6963H31.7092H31.7221H31.735H31.7477H31.7604H31.773H31.7856H31.7981H31.8106H31.8229H31.8353H31.8475H31.8597H31.8718H31.8838H31.8958H31.9077H31.9196H31.9314H31.9431H31.9547H31.9663H31.9778H31.9893H31.9981H32.0006H32.0097H32.0215H32.0333H32.0452H32.0572H32.0692H32.0813H32.0935H32.1057H32.118H32.1304H32.1428H32.1553H32.1679H32.1806H32.1933H32.2061H32.2189H32.2318H32.2448H32.2578H32.2709H32.2841H32.2974H32.3107H32.324H32.3375H32.351H32.3645H32.3782H32.3919H32.4056H32.4194H32.4333H32.4473H32.4613H32.4754H32.4895H32.5037H32.518H32.5323H32.5467H32.5612H32.5757H32.5903H32.6049H32.6196H32.6344H32.6492H32.6641H32.6791H32.6941H32.7091H32.7243H32.7395H32.7547H32.77H32.7854H32.8008H32.8163H32.8319H32.8475H32.8631H32.8789H32.8947H32.9105H32.9264H32.9424H32.9584H32.9745H32.9906H33.0068H33.023H33.0393H33.0557H33.0721H33.0886H33.1051H33.1217H33.1384H33.1551H33.1718H33.1886H33.2055H33.2224H33.2394H33.2564H33.2735H33.2907H33.3079H33.3251H33.3424H33.3598H33.3772H33.3947H33.4122H33.4297H33.4474H33.465H33.4828H33.5006H33.5184H33.5363H33.5542H33.5722H33.5903H33.6083H33.6265H33.6447H33.6629H33.6812H33.6996H33.718H33.7364H33.7549H33.7735H33.7921H33.8107H33.8294H33.8482H33.867H33.8858H33.9047H33.9236H33.9426H33.9617H33.9807H33.9999H34.0191H34.0383H34.0576H34.0769H34.0963H34.1157H34.1351H34.1546H34.1742H34.1938H34.2134H34.2331H34.2529H34.2727H34.2925H34.3124H34.3323H34.3522H34.3723H34.3923H34.4124H34.4325H34.4527H34.473H34.4932H34.5135H34.5339H34.5543H34.5747H34.5952H34.6158H34.6363H34.6569H34.6776H34.6983H34.719H34.7398H34.7606H34.7815H34.8024H34.8234H34.8443H34.8654H34.8864H34.9075H34.9287H34.9499H34.9711H34.9923H35.0136H35.035H35.0564H35.0778H35.0992H35.1207H35.1423H35.1638H35.1855H35.2071H35.2288H35.2505H35.2723H35.2941H35.3159H35.3378H35.3597H35.3816H35.4036H35.4256H35.4477H35.4697H35.4919H35.514H35.5362H35.5584H35.5807H35.603H35.6253H35.6477H35.6701H35.6925H35.715H35.7375H35.76H35.7826H35.8052H35.8278H35.8505H35.8732H35.8959H35.9187H35.9414H35.9643H35.9871H36.01H36.0329H36.0559H36.0789H36.1019H36.1249H36.148H36.1711H36.1942H36.2174H36.2406H36.2638H36.287H36.3103H36.3336H36.357H36.3803H36.4037H36.4272H36.4506H36.4741H36.4976H36.5211H36.5447H36.5683H36.5919H36.6155H36.6392H36.6629H36.6866H36.7104H36.7341H36.7579H36.7818H36.8056H36.8295H36.8534H36.8773H36.9013H36.9253H36.9493H36.9733H36.9973H37.0214H37.0455H37.0696H37.0938H37.118H37.1421H37.1664H37.1906H37.2149H37.2391H37.2635H37.2878H37.3121H37.3365H37.3609H37.3853H37.4097H37.4342H37.4587H37.4832H37.5077H37.5322H37.5568H37.5814H37.606H37.6306H37.6552H37.6799H37.7046H37.7293H37.754H37.7787H37.8035H37.8282H37.853H37.8778H37.9026H37.9275H37.9523H37.9772H38.0021H38.027H38.052H38.0769H38.1019H38.1268H38.1518H38.1768H38.2019H38.2269H38.252H38.277H38.3021H38.3272H38.3523H38.3775H38.3869ZM32 56.5C45.2548 56.5 56 45.7548 56 32.5C56 19.2452 45.2548 8.5 32 8.5C18.7452 8.5 8 19.2452 8 32.5C8 45.7548 18.7452 56.5 32 56.5Z" fill="url(#paint0_linear_5655_2849)"/>
<defs>
<linearGradient id="paint0_linear_5655_2849" x1="8" y1="35.1667" x2="56.8889" y2="34.2778" gradientUnits="userSpaceOnUse">
<stop offset="0" stop-color="#4598FB"/>
<stop offset="1" stop-color="#D15EAE"/>
</linearGradient>
</defs>
</svg>
