<svg width="379" height="291" viewBox="0 0 379 291" fill="none" xmlns="http://www.w3.org/2000/svg">
<rect x="94.6449" y="33.7797" width="198.116" height="180.608" rx="28.9856" fill="#F1F7FC" stroke="#BCDCFD" stroke-width="2.76053"/>
<path d="M25.753 194.122C40.0967 145.459 81.7667 106.292 144.403 79.8601C180.273 71.9673 156.708 77.0808 269.032 91.8716C335.164 100.58 390.091 161.909 374.252 213.395C350.534 290.487 261.946 268.012 225.25 261.302C204.514 257.51 181.929 266.673 144.403 278.923C33.1415 315.241 10.5769 245.608 25.753 194.122Z" fill="#699FD4"/>
<mask id="mask0_5429_519" style="mask-type:alpha" maskUnits="userSpaceOnUse" x="21" y="75" width="357" height="214">
<path d="M25.753 193.853C40.0967 145.191 81.7667 106.023 144.403 79.5915C180.273 71.6988 156.708 76.8122 269.032 91.603C335.164 100.311 390.091 161.64 374.252 213.126C350.534 290.218 261.946 267.744 225.25 261.033C204.514 257.241 181.929 266.405 144.403 278.654C33.1415 314.972 10.5769 245.339 25.753 193.853Z" fill="#699FD4"/>
</mask>
<g mask="url(#mask0_5429_519)">
<rect x="94.5209" y="33.7797" width="198.116" height="333.691" rx="32.2982" fill="#F1F7FC" stroke="#BCDCFD" stroke-width="2.76053"/>
</g>
<path d="M93.9685 106.927C59.2717 130.586 35.8038 160.022 25.753 194.12C10.5769 245.607 33.1415 315.24 144.403 278.922C181.929 266.672 204.514 257.509 225.25 261.301C261.946 268.011 350.534 290.486 374.252 213.394C388.111 168.343 347.79 115.757 293.189 97.4805" stroke="#BCDCFD" stroke-width="2.76053"/>
<path fill-rule="evenodd" clip-rule="evenodd" d="M285.481 5.36864C257.75 -2.6253 228.904 8.17276 208.324 32.4003H204.736C225.945 6.28111 256.578 -5.83604 286.246 2.71611C316.487 11.4336 331.79 38.8901 325.289 68.2186C320.773 88.5944 307.369 106.023 294.142 119.093V115.18C306.478 102.586 318.448 86.3275 322.594 67.6213C328.787 39.6815 314.289 13.6728 285.481 5.36864ZM50.3311 120.438C65.235 119.399 80.9105 122.921 93.2652 130.439V133.7C81.2653 125.905 65.5362 122.145 50.523 123.191C32.0862 124.476 15.0508 132.971 7.32478 149.718C-0.45624 166.585 2.55942 181.225 10.0196 192.608C17.5244 204.059 29.5431 212.217 39.6495 215.847C40.7596 216.246 42.9965 216.734 46.3264 217.277C49.6192 217.815 53.8837 218.392 58.981 218.991C69.1738 220.187 82.6572 221.463 98.2802 222.67C129.522 225.083 169.286 227.216 208.339 227.88C253.677 227.88 297.582 223.197 329.866 208.865C345.991 201.706 359.15 192.17 368.161 179.67C369.544 177.751 370.831 175.76 372.017 173.695C372.416 174.848 372.795 176.008 373.154 177.174C372.283 178.577 371.364 179.947 370.4 181.285C361.027 194.287 347.421 204.092 330.986 211.388C298.154 225.963 253.766 230.641 208.328 230.641H208.316L208.304 230.641C169.184 229.975 129.36 227.839 98.0676 225.422C82.4215 224.214 68.8996 222.935 58.6591 221.732C53.5399 221.131 49.2308 220.548 45.8817 220.002C42.5697 219.461 40.0963 218.941 38.7163 218.445C28.128 214.642 15.589 206.142 7.71074 194.121C-0.21215 182.032 -3.40486 166.387 4.81812 148.562C13.0961 130.618 31.2417 121.768 50.3311 120.438Z" fill="black"/>
<path fill-rule="evenodd" clip-rule="evenodd" d="M285.481 5.36864C257.75 -2.6253 228.904 8.17276 208.324 32.4003H204.736C225.945 6.28111 256.578 -5.83604 286.246 2.71611C316.487 11.4336 331.79 38.8901 325.289 68.2186C320.773 88.5944 307.369 106.023 294.142 119.093V115.18C306.478 102.586 318.448 86.3275 322.594 67.6213C328.787 39.6815 314.289 13.6728 285.481 5.36864ZM50.3311 120.438C65.235 119.399 80.9105 122.921 93.2652 130.439V133.7C81.2653 125.905 65.5362 122.145 50.523 123.191C32.0862 124.476 15.0508 132.971 7.32478 149.718C-0.45624 166.585 2.55942 181.225 10.0196 192.608C17.5244 204.059 29.5431 212.217 39.6495 215.847C40.7596 216.246 42.9965 216.734 46.3264 217.277C49.6192 217.815 53.8837 218.392 58.981 218.991C69.1738 220.187 82.6572 221.463 98.2802 222.67C129.522 225.083 169.286 227.216 208.339 227.88C253.677 227.88 297.582 223.197 329.866 208.865C345.991 201.706 359.15 192.17 368.161 179.67C369.544 177.751 370.831 175.76 372.017 173.695C372.416 174.848 372.795 176.008 373.154 177.174C372.283 178.577 371.364 179.947 370.4 181.285C361.027 194.287 347.421 204.092 330.986 211.388C298.154 225.963 253.766 230.641 208.328 230.641H208.316L208.304 230.641C169.184 229.975 129.36 227.839 98.0676 225.422C82.4215 224.214 68.8996 222.935 58.6591 221.732C53.5399 221.131 49.2308 220.548 45.8817 220.002C42.5697 219.461 40.0963 218.941 38.7163 218.445C28.128 214.642 15.589 206.142 7.71074 194.121C-0.21215 182.032 -3.40486 166.387 4.81812 148.562C13.0961 130.618 31.2417 121.768 50.3311 120.438Z" fill="#699FD4"/>
<rect x="46.3564" y="204.207" width="53.5303" height="37.4958" rx="5.52107" fill="#FFDCF3"/>
<path d="M84.0784 220.292C85.9217 221.354 85.9217 224.014 84.0784 225.076L67.0126 234.907C65.1722 235.968 62.874 234.639 62.874 232.515L62.874 212.852C62.874 210.729 65.1722 209.4 67.0126 210.46L84.0784 220.292Z" fill="white"/>
<rect x="157.28" y="209.714" width="53.5303" height="37.4958" rx="5.52107" fill="#BCDCFD"/>
<rect x="157.28" y="204.207" width="53.5303" height="37.4958" rx="5.52107" fill="#FFDCF3"/>
<path d="M195.002 220.292C196.846 221.354 196.846 224.014 195.002 225.076L177.936 234.907C176.096 235.968 173.798 234.639 173.798 232.515L173.798 212.852C173.798 210.729 176.096 209.4 177.936 210.46L195.002 220.292Z" fill="white"/>
<rect x="217.433" y="209.714" width="53.5303" height="37.4958" rx="5.52107" fill="#BCDCFD"/>
<rect x="217.433" y="204.207" width="53.5303" height="37.4958" rx="5.52107" fill="#FFDCF3"/>
<path d="M255.154 220.292C256.997 221.354 256.997 224.014 255.154 225.076L238.088 234.907C236.247 235.968 233.949 234.639 233.949 232.515L233.949 212.852C233.949 210.729 236.247 209.4 238.088 210.46L255.154 220.292Z" fill="white"/>
<path d="M277.585 215.235C277.585 212.186 280.057 209.714 283.106 209.714H291.381V247.159H283.106C280.057 247.159 277.585 244.687 277.585 241.638V215.235Z" fill="#BCDCFD"/>
<rect x="277.585" y="204.207" width="53.5303" height="37.4958" rx="5.52107" fill="#FFDCF3"/>
<path d="M315.307 220.292C317.15 221.354 317.15 224.014 315.307 225.076L298.241 234.907C296.401 235.968 294.103 234.639 294.103 232.515L294.103 212.852C294.103 210.729 296.401 209.4 298.241 210.46L315.307 220.292Z" fill="white"/>
<rect x="110.373" y="58.2812" width="98.2308" height="11.0132" rx="3.86475" fill="#8DC1FF"/>
<rect x="249.992" y="57.7314" width="27.0411" height="11.0132" rx="3.86475" fill="#BCDCFD"/>
<g clip-path="#699FD4">
<rect x="110.248" y="79.7578" width="166.661" height="116.739" rx="5.52107" fill="#DDEDFC"/>
<path d="M321.002 95.493C335.105 82.5332 393.546 26.1453 324.866 19.5784L251.181 22.7668L88.8406 56.0172L62.0521 129.816L65.3762 129.816C78.385 120.849 108.716 147.483 133.009 154.292C169.448 164.506 210.328 167.006 234.321 156.225C277.937 136.625 289.458 124.479 321.002 95.493Z" fill="#BCDCFD"/>
<path d="M125.393 87.5068C126.211 85.8936 128.515 85.8936 129.333 87.5068L130.973 90.7424C131.294 91.3758 131.9 91.8161 132.602 91.9258L136.186 92.4859C137.973 92.7651 138.685 94.9564 137.404 96.2326L134.833 98.7924C134.33 99.2935 134.098 100.006 134.211 100.707L134.786 104.289C135.072 106.075 133.208 107.429 131.599 106.605L128.37 104.951C127.738 104.627 126.989 104.627 126.357 104.951L123.128 106.605C121.518 107.429 119.654 106.075 119.941 104.289L120.515 100.707C120.628 100.006 120.396 99.2935 119.893 98.7924L117.323 96.2326C116.041 94.9564 116.753 92.7651 118.54 92.4859L122.124 91.9258C122.826 91.8161 123.432 91.3758 123.753 90.7424L125.393 87.5068Z" fill="#8DC1FF"/>
<path d="M214.872 166.91C217.315 162.391 216.984 160.038 222.602 158.076C222.602 158.076 225.292 152.121 224.739 147.98C224.187 143.839 221.497 139.857 214.872 137.924C212.559 137.25 211.283 136.82 207.143 135.716C203.002 134.612 200.599 130.282 198.861 130.195C195.288 130.016 186.87 136.544 183.402 136.544C177.709 136.544 176.645 141.468 175.233 151.29C173.97 160.08 179.802 169.375 179.647 175.594C179.197 193.687 176.82 201.276 178.176 204.611C179.261 207.28 180.1 210.048 179.197 211.225L199.139 224.362L213.692 229.022C216.727 220.586 228.794 214.144 224.779 203.977C223.23 200.053 218.05 191.065 215.424 190.098C213.294 189.314 210.179 175.594 214.872 166.91Z" fill="#FFD0B6"/>
<path d="M160.516 164.628C161.311 168.613 161.383 175.062 159.798 180.538L149.83 184.222C149.053 183.116 147.454 180.538 147.454 175.257C147.454 171.992 147.454 167.053 148.282 159.479C148.751 155.191 149.733 149.769 149.094 144.832L156.843 144.88C157.046 152.739 159.88 161.441 160.516 164.628Z" fill="#FFD0B6"/>
<path d="M170.823 138.482C174.995 135.857 189.342 136.423 189.342 136.423C186.657 141.57 183.23 143.398 182.15 147.335C181.069 151.272 171.783 168.316 169.116 171.682C166.449 175.047 162.43 182.027 161.997 183.234C161.651 184.199 155.305 177.368 152.31 175.32C155.476 171.683 166.651 141.107 170.823 138.482Z" fill="#FFD0B6"/>
<path d="M217.286 171.667C217.324 171.339 217.067 171.052 216.737 171.052H177.163C176.818 171.052 176.558 171.364 176.62 171.703L178.34 181.089C178.388 181.351 178.617 181.542 178.883 181.542H215.662C215.943 181.542 216.179 181.331 216.211 181.053L217.286 171.667Z" fill="#EBA8D3"/>
<path d="M217.286 198.397C217.324 198.724 217.067 199.012 216.737 199.012H177.163C176.818 199.012 176.558 198.699 176.62 198.36L178.34 188.974C178.388 188.712 178.617 188.522 178.883 188.522H215.662C215.943 188.522 216.179 188.732 216.211 189.011L217.286 198.397Z" fill="#EBA8D3"/>
<rect width="40.3038" height="6.62528" rx="0.552107" transform="matrix(-1 0 0 1 216.252 168.29)" fill="#F3C3E2"/>
<path d="M212.818 150.373L216.875 139.192C223.294 140.646 228.521 144.494 230.704 148.301C232.886 152.108 236.194 173.922 236.472 178.104C236.75 182.286 237.97 186.511 240.174 189.856C242.378 193.201 245.713 201.72 245.993 206.803C246.25 211.448 248.667 223.758 250.614 229.253L246.777 232.879C243.482 225.932 234.576 211.104 232.83 208.058C230.647 204.251 228.144 197.186 227.481 191.133C226.95 186.291 219.746 166.302 212.818 150.373Z" fill="#FFD0B6"/>
<path d="M173.188 159.803C173.188 161.566 177.162 171.034 178.321 174.917C183.376 173.028 185.89 170.824 193.158 170.824C199.23 170.824 205.644 173.028 209.752 174.917C211.016 170.614 215.2 162.826 215.2 161.063C215.2 159.299 211.557 143.325 206.923 135.558L204.079 134.613C205.132 139.231 200.172 150.193 199.161 151.453C197.897 153.027 185.12 153.657 183.54 151.453C182.276 149.689 186.91 139.022 187.963 134.613L184.804 135.558C180.38 142.905 173.188 158.04 173.188 159.803Z" fill="#F3C3E2"/>
<path d="M204.905 134.166C202.18 132.42 201.478 132.168 203.722 123.787L205.615 114.847C205.687 114.504 205.426 114.181 205.075 114.181L191.107 114.181C190.833 114.181 190.6 114.382 190.561 114.654L187.209 137.839C187.205 137.865 187.203 137.891 187.203 137.918C187.212 138.97 187.588 139.999 188.026 140.898C188.301 141.461 191.969 144.314 192.589 144.412L194.427 144.705C194.509 144.718 194.592 144.713 194.671 144.69L201.364 142.702C201.895 142.545 202.531 141.109 202.723 140.59C203.484 138.538 206.486 135.179 204.905 134.166Z" fill="#FFD0B6"/>
<path d="M188.059 129.026L198.051 120.461L202.62 121.603L203.476 135.878C202.239 135.593 199.308 134.679 197.48 133.309C195.653 131.938 190.438 132.357 188.059 132.738V129.026Z" fill="#FDC0A7"/>
<path d="M203.762 97.9047C208.616 99.6178 210.821 103.794 213.148 110.182C215.476 116.57 213.148 122.086 210.044 128.169C208.177 131.825 210.9 131.595 209.473 134.165C208.045 136.734 205.476 134.933 203.762 133.879C200.051 131.595 198.406 129.169 198.623 127.598C198.84 126.027 201.083 123.447 197.424 122.087C189.592 119.175 187.488 121.031 182.92 116.463C178.352 111.895 178.461 102.649 182.349 98.7614C185.49 95.6208 190.485 97.6878 192.057 97.9049C193.628 98.1219 197.745 95.7811 203.762 97.9047Z" fill="#7D2343"/>
<path d="M188.219 124.95C189.646 124.95 192.636 123.846 192.36 123.017C192.248 122.682 190.173 122.997 188.219 123.03C186.642 123.058 185.617 122.775 185.49 123.03C185.204 123.601 186.791 124.95 188.219 124.95Z" fill="white"/>
<path d="M179.219 139.737C173.651 133.764 179.082 129.548 187.621 127.361L190.8 130.566C188.195 136.761 182.851 143.632 179.219 139.737Z" fill="#7D2343"/>
<path d="M175.245 149.403C167.923 145.788 171.51 139.922 178.722 134.854L182.829 136.727C182.586 143.443 180.02 151.761 175.245 149.403Z" fill="#7D2343"/>
<path d="M171.551 161.062C163.906 158.195 166.889 152.001 173.56 146.239L177.834 147.693C178.261 154.399 176.538 162.932 171.551 161.062Z" fill="#7D2343"/>
<path d="M174.075 171.541C165.987 172.664 165.659 165.795 168.778 157.552L173.229 156.793C176.8 162.486 179.35 170.809 174.075 171.541Z" fill="#7D2343"/>
<path d="M170.929 161.152C170.929 158.209 175.651 151.453 178.506 148.443L185.204 141.591L178.506 171.855C175.497 170.142 170.929 166.145 170.929 161.152Z" fill="#F3C3E2"/>
<path d="M188.25 129.959C185.527 129.959 183.132 124.745 182.573 121.087C182.299 119.299 182.02 117.775 182.438 116.239C182.566 115.842 182.849 115.014 182.849 115.014C182.849 115.014 182.322 113.417 182.297 111.978C182.274 110.69 182.714 108.325 183.491 106.473C184.447 104.19 186.344 104.19 188.627 104.19L188.63 104.19C190.913 104.189 193.769 104.76 194.625 105.902C196.752 108.738 194.625 110.471 197.195 113.695C199.338 116.384 201.457 114.896 201.763 117.037C202.049 119.036 202.474 122.23 200.335 124.746C196.816 128.887 191.485 129.959 188.25 129.959Z" fill="#FFD0B6"/>
<path d="M187.115 122.546C185.459 122.546 184.631 122.822 185.459 123.926C186.01 124.202 186.287 126.227 187.943 126.411C190.428 126.687 192.36 124.478 192.36 123.65C192.36 122.822 188.771 122.546 187.115 122.546Z" fill="#FDC0A7"/>
<path d="M188.219 125.501C189.875 125.501 192.51 124.02 192.36 123.569C192.294 123.373 190.174 123.615 188.219 123.649C186.643 123.676 185.617 123.327 185.49 123.582C185.204 124.153 186.791 125.501 188.219 125.501Z" fill="white"/>
<path d="M193.247 110.871C192.251 110.871 190.922 113.608 191.586 114.976C192.251 116.345 198.231 115.889 198.563 114.976C198.896 114.064 195.241 110.871 193.247 110.871Z" fill="#FDC0A7"/>
<path d="M192.235 115.013C192.433 115.62 195.733 115.535 196.1 115.013C196.466 114.49 195.043 113.356 193.615 113.356C192.235 113.356 192.037 114.406 192.235 115.013Z" fill="white"/>
<path d="M184.506 111.425C181.193 110.597 182.85 114.607 182.85 115.038C182.85 115.469 182.021 116.946 182.298 118.326C182.574 119.707 184.06 120.811 186.162 120.811C188.264 120.811 184.506 119.982 184.782 118.326C185.886 117.498 187.336 115.343 187.489 115.038C187.774 114.467 186.573 111.941 184.506 111.425Z" fill="#699FD4"/>
<path d="M183.301 115.013C183.499 115.62 186.798 115.535 187.165 115.013C187.532 114.49 185.933 113.633 184.506 113.633C183.125 113.632 183.103 114.406 183.301 115.013Z" fill="white"/>
<path d="M204.905 110.388C203.477 109.531 202.335 111.529 202.335 113.242C202.335 114.956 203.534 117.126 204.905 117.811C206.618 118.668 206.332 111.244 204.905 110.388Z" fill="#FFD0B6"/>
<path d="M192.627 113.702C194.208 113.353 195.526 114.052 196.053 114.751" stroke="#7D2343" stroke-width="0.552107" stroke-linecap="round"/>
<path d="M183.491 113.702C185.072 113.353 186.39 114.052 186.917 114.751" stroke="#7D2343" stroke-width="0.552107" stroke-linecap="round"/>
<path d="M186.803 111.138C186.306 111.633 182.329 112.681 181.822 111.18C181.586 110.48 182.857 109.81 184.138 109.63C185.124 109.492 186.126 109.74 186.385 109.901C186.981 110.27 187.036 110.907 186.803 111.138Z" fill="#7D2343"/>
<path d="M196.765 112.59C196.066 112.896 191.754 112.301 191.922 110.516C192 109.684 193.526 109.523 194.846 109.88C195.861 110.154 196.723 110.84 196.903 111.118C197.319 111.758 197.092 112.447 196.765 112.59Z" fill="#7D2343"/>
<path d="M194.893 114.466C194.893 114.939 194.509 115.322 194.036 115.322C193.563 115.322 193.18 114.939 193.18 114.466C193.18 113.993 193.563 113.609 194.036 113.609C194.509 113.609 194.893 113.993 194.893 114.466Z" fill="#7D2343"/>
<path d="M185.756 114.466C185.756 114.939 185.373 115.322 184.899 115.322C184.426 115.322 184.043 114.939 184.043 114.466C184.043 113.993 184.426 113.609 184.899 113.609C185.373 113.609 185.756 113.993 185.756 114.466Z" fill="#7D2343"/>
<path d="M187.202 114.467C186.06 117.607 184.663 118.269 184.918 119.035C185.204 119.891 186.441 120.177 186.917 120.463" stroke="#FDC0A7" stroke-width="0.552107" stroke-linecap="round"/>
<path d="M159.452 145.415C158.757 146.823 156.857 148.479 155.993 149.131L156.21 140.343C156.452 141.103 157.643 135.769 158.667 134.668C159.487 133.787 160.505 133.981 160.912 134.189C160.848 134.9 160.403 136.538 160.238 137.671C159.812 140.613 160.32 143.655 159.452 145.415Z" fill="#FFD0B6"/>
<path d="M157.309 142.913C157.925 145.435 158.266 148.245 154.054 148.897C154.064 149.367 153.131 152.703 150.992 150.652C148.404 148.171 146.949 145.948 145.787 144.282C144.625 142.616 143.938 139.518 143.667 137.284C143.326 134.473 143.308 133.629 144.124 132.203C144.939 130.777 145.209 127.56 146.551 127.081C147.678 127.057 149.165 130.782 150.049 132.642C150.121 131.607 149.416 129.33 149.397 128.429C149.373 127.303 149.044 125.056 149.326 125.05C149.607 125.044 150.17 124.583 150.752 125.865C151.638 127.819 153.384 134.919 153.511 136.513C154.967 138.736 156.412 139.243 157.309 142.913Z" fill="#FFD0B6"/>
<path d="M214.344 160.561C214.344 160.561 214.907 165.157 208.298 167.673C201.69 170.189 198.153 166.123 198.153 166.123" stroke="#EBA8D3" stroke-width="1.65632" stroke-linecap="round"/>
<rect x="217.751" y="125.666" width="28.0213" height="83.1011" transform="rotate(11.4587 217.751 125.666)" fill="#D9D9D9"/>
<rect x="217.751" y="125.666" width="28.0213" height="83.1011" transform="rotate(11.4587 217.751 125.666)" fill="#699FD4"/>
<rect x="217.751" y="125.666" width="28.0213" height="83.1011" transform="rotate(11.4587 217.751 125.666)" fill="#699FD4"/>
<ellipse cx="231.718" cy="127.871" rx="13.3424" ry="4.41685" transform="rotate(11.46 231.718 127.871)" fill="#F692DF"/>
<ellipse cx="231.718" cy="127.871" rx="13.3424" ry="4.41685" transform="rotate(11.46 231.718 127.871)" fill="url(#paint5_linear_5429_519)"/>
<ellipse cx="231.718" cy="127.871" rx="13.3424" ry="4.41685" transform="rotate(11.46 231.718 127.871)" stroke="#82BBFF" stroke-width="1.65632"/>
<path d="M159.451 160.363C160.483 163.712 160.831 169.197 159.727 173.614" stroke="#EFBEA3" stroke-width="1.65632" stroke-linecap="round"/>
<path d="M131.353 181.895L269.931 181.895" stroke="#8DC1FF" stroke-width="2.76053" stroke-linecap="round"/>
<path d="M131.353 181.895L238.461 181.895" stroke="#8DC1FF" stroke-width="5.52107" stroke-linecap="round"/>
<circle cx="240.67" cy="181.897" r="5.79712" fill="#F3C3E2" stroke="#EBA8D3" stroke-width="2.76053"/>
<path d="M117.55 178.583L117.55 184.656" stroke="#8DC1FF" stroke-width="2.76053" stroke-linecap="round"/>
<path d="M121.967 178.583L121.967 184.656" stroke="#8DC1FF" stroke-width="2.76053" stroke-linecap="round"/>
</g>
<path d="M96.0234 241.651H169.421V253.201C169.421 256.25 166.949 258.722 163.9 258.722H96.0234V241.651Z" fill="#BCDCFD"/>
<rect x="81.399" y="191.814" width="84.9874" height="57.8263" rx="6.90133" fill="#EBA8D3"/>
<rect x="81.399" y="191.814" width="84.9874" height="57.8263" rx="6.90133" fill="#699FD4"/>
<rect x="81.399" y="191.814" width="84.9874" height="57.8263" rx="6.90133" stroke="#BCDCFD" stroke-width="2.76053"/>
<path d="M139.883 216.682C141.726 217.744 141.726 220.404 139.883 221.466L113.407 236.719C111.566 237.779 109.268 236.451 109.268 234.327L109.268 203.821C109.268 201.697 111.566 200.369 113.407 201.429L139.883 216.682Z" fill="white"/>
<defs>
<linearGradient id="paint0_linear_5429_519" x1="192.475" y1="86.6403" x2="199.069" y2="276.343" gradientUnits="userSpaceOnUse">
<stop offset="0" stop-color="#BCDCFD"/>
<stop offset="1" stop-color="#8BC0FF"/>
</linearGradient>
<linearGradient id="paint1_linear_5429_519" x1="208.032" y1="10.3127" x2="208.032" y2="227.635" gradientUnits="userSpaceOnUse">
<stop offset="0" stop-color="#6FA6E3"/>
<stop offset="1" stop-color="#E36EB9"/>
</linearGradient>
<linearGradient id="paint2_linear_5429_519" x1="185.058" y1="113.633" x2="184.886" y2="120.811" gradientUnits="userSpaceOnUse">
<stop offset="0" stop-color="#FDC0A7"/>
<stop offset="1" stop-color="#FDC0A7" stop-opacity="0"/>
</linearGradient>
<linearGradient id="paint3_linear_5429_519" x1="217.751" y1="171.833" x2="246.3" y2="171.658" gradientUnits="userSpaceOnUse">
<stop offset="0" stop-color="#81BBFF"/>
<stop offset="1" stop-color="#FF8FDC"/>
</linearGradient>
<linearGradient id="paint4_linear_5429_519" x1="248.232" y1="80.1487" x2="209.175" y2="87.4185" gradientUnits="userSpaceOnUse">
<stop offset="0" stop-color="#87ADEF"/>
<stop offset="1" stop-color="#BCDCFD"/>
</linearGradient>
<linearGradient id="paint5_linear_5429_519" x1="226.964" y1="120.502" x2="232.413" y2="130.694" gradientUnits="userSpaceOnUse">
<stop offset="0" stop-color="#87ADEF"/>
<stop offset="1" stop-color="#BCDCFD"/>
</linearGradient>
<linearGradient id="paint6_linear_5429_519" x1="126.376" y1="248.26" x2="127.756" y2="193.174" gradientUnits="userSpaceOnUse">
<stop offset="0" stop-color="#81BBFF"/>
<stop offset="1" stop-color="#FF8FDC"/>
</linearGradient>
<clipPath id="clip0_5429_519">
<rect x="110.248" y="79.7578" width="166.661" height="116.739" rx="5.52107" fill="white"/>
</clipPath>
</defs>
</svg>
