<svg width="24" height="24" viewBox="0 0 24 24" fill="none" xmlns="http://www.w3.org/2000/svg">
<circle cx="12" cy="12" r="12" fill="url(#paint0_linear_3179_5366)"/>
<path d="M6.65521 10.2122L7.52851 15.7771C7.58392 16.1301 7.88814 16.3903 8.24555 16.3903H16.3394C16.6757 16.3903 16.9623 16.1464 17.0161 15.8144L17.922 10.2196C18.0132 9.65619 17.4162 9.23457 16.9157 9.50899L14.8858 10.622C14.8058 10.6659 14.7054 10.6347 14.6643 10.5533L12.9046 7.06641C12.6512 6.56421 11.9341 6.56421 11.6806 7.06641L9.92095 10.5533C9.87985 10.6347 9.77941 10.6659 9.69941 10.622L7.662 9.50485C7.16289 9.23118 6.56696 9.64986 6.65521 10.2122Z" fill="white"/>
<defs>
<linearGradient id="paint0_linear_3179_5366" x1="2.50627e-08" y1="11.8899" x2="24" y2="11.8899" gradientUnits="userSpaceOnUse">
<stop offset="0" stop-color="#F185D0"/>
<stop offset="1" stop-color="#83B8FB"/>
</linearGradient>
</defs>
</svg>
