<svg width="32" height="32" viewBox="0 0 32 32" fill="none" xmlns="http://www.w3.org/2000/svg">
<path fill-rule="evenodd" clip-rule="evenodd" d="M27.64 9.49317L27.4533 9.15984C27.2125 8.75676 26.8729 8.42174 26.4667 8.1865L17.52 3.0265C17.1149 2.7915 16.6551 2.66733 16.1867 2.6665H15.8C15.3316 2.66733 14.8717 2.7915 14.4667 3.0265L5.52 8.19984C5.11596 8.43352 4.78035 8.76913 4.54667 9.17317L4.36 9.5065C4.125 9.91162 4.00083 10.3715 4 10.8398V21.1732C4.00083 21.6416 4.125 22.1014 4.36 22.5065L4.54667 22.8398C4.78639 23.2392 5.12065 23.5734 5.52 23.8132L14.48 28.9732C14.8831 29.213 15.3443 29.3376 15.8133 29.3332H16.1867C16.6551 29.3324 17.1149 29.2082 17.52 28.9732L26.4667 23.7998C26.8747 23.5714 27.2116 23.2345 27.44 22.8265L27.64 22.4932C27.8721 22.0869 27.9961 21.6278 28 21.1598V10.8265C27.9992 10.3582 27.8751 9.89829 27.64 9.49317ZM15.8 5.33317H16.1867L24 9.83984L16 14.4532L8 9.83984L15.8 5.33317ZM17.3333 25.9998L25.1333 21.4932L25.3333 21.1598V12.1465L17.3333 16.7732V25.9998Z" fill="url(#paint0_linear_7225_5638)"/>
<defs>
<linearGradient id="paint0_linear_7225_5638" x1="4" y1="17.4814" x2="28.446" y2="17.0813" gradientUnits="userSpaceOnUse">
<stop stop-color="#4598FB"/>
<stop offset="1" stop-color="#D15EAE"/>
</linearGradient>
</defs>
</svg>
