<svg width="16" height="17" viewBox="0 0 16 17" fill="none" xmlns="http://www.w3.org/2000/svg">
<path d="M9.33317 6.64058H6.6665C6.48969 6.64058 6.32012 6.71082 6.1951 6.83585C6.07007 6.96087 5.99984 7.13044 5.99984 7.30725V15.3073C5.99984 15.4841 6.07007 15.6536 6.1951 15.7787C6.32012 15.9037 6.48969 15.9739 6.6665 15.9739H9.33317C9.50998 15.9739 9.67955 15.9037 9.80457 15.7787C9.9296 15.6536 9.99984 15.4841 9.99984 15.3073V7.30725C9.99984 7.13044 9.9296 6.96087 9.80457 6.83585C9.67955 6.71082 9.50998 6.64058 9.33317 6.64058ZM8.6665 14.6406H7.33317V7.97392H8.6665V14.6406ZM14.6665 1.30725H11.9998C11.823 1.30725 11.6535 1.37749 11.5284 1.50251C11.4034 1.62754 11.3332 1.79711 11.3332 1.97392V15.3073C11.3332 15.4841 11.4034 15.6536 11.5284 15.7787C11.6535 15.9037 11.823 15.9739 11.9998 15.9739H14.6665C14.8433 15.9739 15.0129 15.9037 15.1379 15.7787C15.2629 15.6536 15.3332 15.4841 15.3332 15.3073V1.97392C15.3332 1.79711 15.2629 1.62754 15.1379 1.50251C15.0129 1.37749 14.8433 1.30725 14.6665 1.30725ZM13.9998 14.6406H12.6665V2.64058H13.9998V14.6406ZM3.99984 10.6406H1.33317C1.15636 10.6406 0.98679 10.7108 0.861766 10.8358C0.736742 10.9609 0.666504 11.1304 0.666504 11.3073V15.3073C0.666504 15.4841 0.736742 15.6536 0.861766 15.7787C0.98679 15.9037 1.15636 15.9739 1.33317 15.9739H3.99984C4.17665 15.9739 4.34622 15.9037 4.47124 15.7787C4.59627 15.6536 4.6665 15.4841 4.6665 15.3073V11.3073C4.6665 11.1304 4.59627 10.9609 4.47124 10.8358C4.34622 10.7108 4.17665 10.6406 3.99984 10.6406ZM3.33317 14.6406H1.99984V11.9739H3.33317V14.6406Z" fill="black"/>
<path d="M9.33317 6.64058H6.6665C6.48969 6.64058 6.32012 6.71082 6.1951 6.83585C6.07007 6.96087 5.99984 7.13044 5.99984 7.30725V15.3073C5.99984 15.4841 6.07007 15.6536 6.1951 15.7787C6.32012 15.9037 6.48969 15.9739 6.6665 15.9739H9.33317C9.50998 15.9739 9.67955 15.9037 9.80457 15.7787C9.9296 15.6536 9.99984 15.4841 9.99984 15.3073V7.30725C9.99984 7.13044 9.9296 6.96087 9.80457 6.83585C9.67955 6.71082 9.50998 6.64058 9.33317 6.64058ZM8.6665 14.6406H7.33317V7.97392H8.6665V14.6406ZM14.6665 1.30725H11.9998C11.823 1.30725 11.6535 1.37749 11.5284 1.50251C11.4034 1.62754 11.3332 1.79711 11.3332 1.97392V15.3073C11.3332 15.4841 11.4034 15.6536 11.5284 15.7787C11.6535 15.9037 11.823 15.9739 11.9998 15.9739H14.6665C14.8433 15.9739 15.0129 15.9037 15.1379 15.7787C15.2629 15.6536 15.3332 15.4841 15.3332 15.3073V1.97392C15.3332 1.79711 15.2629 1.62754 15.1379 1.50251C15.0129 1.37749 14.8433 1.30725 14.6665 1.30725ZM13.9998 14.6406H12.6665V2.64058H13.9998V14.6406ZM3.99984 10.6406H1.33317C1.15636 10.6406 0.98679 10.7108 0.861766 10.8358C0.736742 10.9609 0.666504 11.1304 0.666504 11.3073V15.3073C0.666504 15.4841 0.736742 15.6536 0.861766 15.7787C0.98679 15.9037 1.15636 15.9739 1.33317 15.9739H3.99984C4.17665 15.9739 4.34622 15.9037 4.47124 15.7787C4.59627 15.6536 4.6665 15.4841 4.6665 15.3073V11.3073C4.6665 11.1304 4.59627 10.9609 4.47124 10.8358C4.34622 10.7108 4.17665 10.6406 3.99984 10.6406ZM3.33317 14.6406H1.99984V11.9739H3.33317V14.6406Z" fill="#9A9DA1"/>
</svg>
