<svg width="190" height="190" viewBox="0 0 190 190" fill="none" xmlns="http://www.w3.org/2000/svg">
<path fill-rule="evenodd" clip-rule="evenodd" d="M12.9492 95C12.9492 49.6846 49.6846 12.9492 95 12.9492C140.315 12.9492 177.051 49.6846 177.051 95C177.051 140.315 140.315 177.051 95 177.051C49.6846 177.051 12.9492 140.315 12.9492 95ZM95 0C42.5329 0 0 42.5329 0 95C0 147.467 42.5329 190 95 190C147.467 190 190 147.467 190 95C190 42.5329 147.467 0 95 0ZM96.68 128.016L151.8 67.328L143.584 59.8656L90.1403 118.707L56.6187 92.298L49.7499 101.017L85.2303 128.969C88.7052 131.707 93.7057 131.29 96.68 128.016Z" fill="url(#paint0_linear_4606_4787)"/>
<defs>
<linearGradient id="paint0_linear_4606_4787" x1="1.98413e-07" y1="94.1284" x2="190" y2="94.1284" gradientUnits="userSpaceOnUse">
<stop offset="0" stop-color="#F185D0"/>
<stop offset="1" stop-color="#83B8FB"/>
</linearGradient>
</defs>
</svg>
