<svg width="335" height="100" viewBox="0 0 335 100" fill="none" xmlns="http://www.w3.org/2000/svg">
<path d="M19.8 58.9511C22.7552 58.8859 24.9388 58.8207 26.3508 58.7554V68H0.295522V58.7554C3.84179 58.8859 6.51791 58.9511 8.32388 58.9511V42.0761C7.14179 44.6522 4.72836 46.3152 1.08358 47.0652C0.985075 43.2174 0.623881 39.712 0 36.5489C2.62687 36.1902 4.44926 35.75 5.46717 35.2283C6.51791 34.6739 7.32239 34.0707 7.8806 33.4185C8.47164 32.7663 8.86567 32.3261 9.06269 32.0978V32H19.8V58.9511Z" fill="#02221F"/>
<path d="M65.1669 49.8043L79.549 68H65.3147L58.2222 58.413L51.0804 68H36.846L51.2281 49.8043L37.3386 32.4891H51.5729L58.2222 41.2935L64.8222 32.4891H79.0565L65.1669 49.8043Z" fill="#02221F"/>
<path d="M104.515 32.538C111.049 32.538 115.597 33.6957 118.158 36.0109C120.719 38.2935 122 41.5217 122 45.6957C122 48.5652 121.491 51.0109 120.473 53.0326C119.455 55.0217 117.666 56.587 115.104 57.7283C112.543 58.837 109.013 59.3913 104.515 59.3913H94.2701V68H82.1537C82.4164 61.6739 82.5477 55.7554 82.5477 50.2446C82.5477 44.7337 82.4164 38.8152 82.1537 32.4891H94.2701V32.538H104.515ZM101.067 49.9511C103.793 49.9511 105.828 49.8533 107.175 49.6576C108.554 49.4293 109.506 49.038 110.031 48.4837C110.59 47.9293 110.869 47.1141 110.869 46.038C110.869 44.962 110.606 44.163 110.081 43.6413C109.588 43.087 108.652 42.712 107.273 42.5163C105.927 42.3207 103.858 42.2228 101.067 42.2228H94.2701V49.9511H101.067Z" fill="#02221F"/>
<path d="M190 49.5422H159V41H190V49.5422ZM190 60H159V51.4578H190V60Z" fill="#02221F"/>
<path fill-rule="evenodd" clip-rule="evenodd" d="M238.432 12.4989C241.11 7.80507 247.085 6.17531 251.778 8.85868L324.69 50.5528C329.383 53.2362 331.016 59.2165 328.337 63.9103L324.966 69.818C321.842 68.907 318.364 70.2491 316.654 73.2462C314.944 76.2434 315.555 79.9239 317.926 82.1555L314.667 87.8682C311.988 92.562 306.013 94.1918 301.32 91.5084L228.408 49.8143C223.715 47.1309 222.083 41.1506 224.761 36.4568L228.021 30.744C231.145 31.6548 234.623 30.3128 236.333 27.3157C238.043 24.3185 237.432 20.638 235.061 18.4065L238.432 12.4989Z" fill="#FCC155"/>
<path fill-rule="evenodd" clip-rule="evenodd" d="M326.302 72.9365L324.186 72.3198C322.303 71.7709 320.152 72.5755 319.082 74.4509C318.011 76.3262 318.412 78.5905 319.841 79.9352L321.446 81.4462L317.094 89.0729C313.651 95.1078 305.968 97.2032 299.935 93.7531L227.022 52.059C220.989 48.609 218.89 40.9199 222.333 34.885L226.685 27.2583L228.801 27.875C230.684 28.4239 232.835 27.6193 233.905 25.7439C234.976 23.8686 234.575 21.6043 233.146 20.2596L231.541 18.7486L236.004 10.9271C239.448 4.89224 247.13 2.79682 253.163 6.24688L326.076 47.941C332.109 51.391 334.209 59.0801 330.765 65.115L326.302 72.9365ZM251.778 8.67513C247.085 5.99175 241.11 7.62152 238.432 12.3153L235.061 18.2229C237.432 20.4545 238.043 24.135 236.333 27.1321C234.623 30.1292 231.145 31.4713 228.021 30.5604L224.761 36.2732C222.083 40.967 223.715 46.9474 228.408 49.6308L301.32 91.3249C306.013 94.0082 311.988 92.3785 314.667 87.6847L317.926 81.9719C315.555 79.7404 314.944 76.0598 316.654 73.0627C318.364 70.0655 321.842 68.7235 324.966 69.6344L328.337 63.7268C331.016 59.033 329.383 53.0526 324.69 50.3692L251.778 8.67513Z" fill="#02221F"/>
<path fill-rule="evenodd" clip-rule="evenodd" d="M286.967 83.1669L310.533 40.7215L312.972 42.0538L289.406 84.4991L286.967 83.1669Z" fill="#02221F"/>
</svg>
