<svg width="145" height="15" viewBox="0 0 145 15" fill="none" xmlns="http://www.w3.org/2000/svg">
<path fill-rule="evenodd" clip-rule="evenodd" d="M137.481 0.413254C137.492 0.405691 137.494 0.405548 137.482 0.412606C137.482 0.412819 137.482 0.413035 137.481 0.413254ZM131.258 2.64408C129.98 2.7361 128.714 2.86415 127.439 3.00072C127.135 3.03333 126.829 3.06646 126.523 3.0997C124.357 3.33486 122.146 3.57485 119.848 3.66964C113.657 3.92504 107.476 4.12205 101.301 4.31883C92.614 4.59569 83.9403 4.87212 75.2725 5.31016C65.4769 5.8052 55.4806 5.91117 45.7109 5.91117H25.4161C23.2276 5.91117 20.9112 5.82928 18.5929 5.74733C16.7759 5.6831 14.9578 5.61883 13.1994 5.59392C9.10488 5.53592 5.09762 5.67921 1.35083 6.45602C0.742386 6.58217 0.14797 6.1859 0.0231619 5.57094C-0.101646 4.95597 0.290415 4.35518 0.898855 4.22904C4.88422 3.40276 9.08274 3.26203 13.2309 3.32078C15.1202 3.34754 16.9554 3.41338 18.7613 3.47817C21.0091 3.55881 23.2115 3.63781 25.4161 3.63781H45.7109C55.4683 3.63781 65.4206 3.53184 75.1602 3.03964C83.8329 2.60135 92.5585 2.32307 101.273 2.04513C107.447 1.84823 113.616 1.6515 119.757 1.39817C121.974 1.30668 124.107 1.07537 126.279 0.839716C126.586 0.806443 126.893 0.773083 127.202 0.740018C129.683 0.474265 132.223 0.229596 134.914 0.229596C135.125 0.229596 135.509 0.194512 136.008 0.143667C136.065 0.13782 136.124 0.131805 136.183 0.125705C136.602 0.0825799 137.063 0.0352422 137.437 0.0133309C137.646 0.00108584 137.875 -0.00636175 138.074 0.00740451C138.168 0.0139095 138.311 0.0283835 138.462 0.072481C138.538 0.0947591 138.657 0.13605 138.784 0.214877C138.91 0.292427 139.105 0.445442 139.234 0.714351C139.548 1.37025 139.159 1.89739 139.051 2.02444C138.912 2.18568 138.753 2.29149 138.662 2.3483C138.457 2.47566 138.184 2.6028 137.871 2.73291C136.113 3.46474 134.293 4.05152 132.524 4.62211C132.061 4.77148 131.601 4.91975 131.147 5.06922C128.929 5.79873 126.801 6.56836 124.805 7.66632C124.419 7.87864 123.958 8.10982 123.484 8.3473C123.334 8.42224 123.183 8.4978 123.033 8.57359C122.391 8.89804 121.729 9.24239 121.107 9.61558C119.866 10.3602 119.013 11.0893 118.678 11.7782C118.843 11.8569 119.127 11.9483 119.557 12.0202C120.495 12.1773 121.599 12.1668 122.275 12.1604C122.39 12.1593 122.494 12.1584 122.581 12.1584C124.153 12.1584 125.88 12.0114 127.717 11.8301C128.076 11.7947 128.44 11.7579 128.807 11.7207C130.299 11.5698 131.846 11.4132 133.378 11.3183C137.172 11.083 141.123 11.2014 144.378 12.8464C144.934 13.1271 145.159 13.8099 144.881 14.3714C144.603 14.9329 143.928 15.1605 143.372 14.8797C140.684 13.5214 137.252 13.3557 133.516 13.5873C132.032 13.6794 130.539 13.8303 129.051 13.9808C128.679 14.0185 128.307 14.0561 127.935 14.0927C126.096 14.2742 124.273 14.4317 122.581 14.4317C122.518 14.4317 122.436 14.4327 122.338 14.4338C121.692 14.4413 120.347 14.4568 119.189 14.263C118.547 14.1554 117.764 13.9561 117.187 13.5112C116.876 13.2711 116.576 12.9216 116.44 12.4383C116.302 11.9508 116.37 11.4671 116.544 11.0358C117.143 9.54996 118.637 8.45388 119.959 7.66054C120.654 7.24392 121.375 6.86984 122.028 6.54C122.197 6.45437 122.361 6.3726 122.517 6.2941C122.979 6.06244 123.385 5.85924 123.73 5.66958C125.916 4.46668 128.209 3.64497 130.451 2.90749C130.721 2.81851 130.99 2.73089 131.258 2.64408Z" fill="#5DC68D"/>
</svg>
