<?xml version="1.0" encoding="utf-8"?><svg xmlns="http://www.w3.org/2000/svg" xmlns:xlink="http://www.w3.org/1999/xlink"><symbol viewBox="0 0 24 24" id="icon-anonym"><path fill-rule="evenodd" clip-rule="evenodd" d="M.5 12v-1.92h23V12H.5z"/><path fill-rule="evenodd" clip-rule="evenodd" d="M7.553 3.38a1.58 1.58 0 00-1.599 1.404v.002l-.557 5.254h13.206l-.557-5.254v-.002a1.58 1.58 0 00-1.599-1.404h-.02c-.24 0-.477.056-.69.165l-.006.003-.005.002a8.39 8.39 0 01-7.452 0l-.005-.002-.005-.003a1.51 1.51 0 00-.691-.165h-.02zm.024-1.92a3.5 3.5 0 00-3.531 3.115v.002l-.783 7.383h17.474l-.783-7.383v-.002a3.5 3.5 0 00-3.531-3.115 3.43 3.43 0 00-1.554.372 6.47 6.47 0 01-5.738 0 3.43 3.43 0 00-1.554-.372zM6.73 15.84a2.39 2.39 0 100 4.78 2.39 2.39 0 000-4.78zm-4.31 2.39a4.31 4.31 0 118.62 0 4.31 4.31 0 01-8.62 0zM17.27 15.84a2.39 2.39 0 100 4.78 2.39 2.39 0 000-4.78zm-4.31 2.39a4.31 4.31 0 118.62 0 4.31 4.31 0 01-8.62 0z"/><path fill-rule="evenodd" clip-rule="evenodd" d="M12 17.75a.96.96 0 00-.96.96H9.12a2.88 2.88 0 115.76 0h-1.92a.96.96 0 00-.96-.96zM4.33 16.79H1.46v-1.92h2.87v1.92zM22.54 16.79h-2.87v-1.92h2.87v1.92z"/></symbol><symbol viewBox="0 0 20 20" id="icon-api"><path fill-rule="evenodd" clip-rule="evenodd" d="M10 .835a2.5 2.5 0 00-1.249.334L6.087 2.69a.833.833 0 00-.46.263L2.92 4.501l-.003.002a2.5 2.5 0 00-.78.707.834.834 0 00-.209.346 2.5 2.5 0 00-.261 1.11v6.668a2.5 2.5 0 001.25 2.163l.003.002 2.708 1.547c.119.133.28.228.462.264l2.66 1.52h.002c.264.153.553.255.852.303a.83.83 0 00.793 0c.299-.048.588-.15.852-.302l.001-.001 2.66-1.52a.832.832 0 00.463-.264l2.707-1.547.004-.002a2.5 2.5 0 001.25-2.163v-3.32-3.348a2.5 2.5 0 00-.263-1.113.835.835 0 00-.205-.341 2.5 2.5 0 00-.782-.709l-2.71-1.549a.832.832 0 00-.462-.263L11.25 1.17l-.001-.001A2.5 2.5 0 009.999.835zm2.033 2.703l-1.617-.925a.833.833 0 00-.833 0l-.004.002-1.614.922L10 4.713l2.034-1.175zm-5.743.957L4.198 5.69 10 9.046 15.8 5.69l-2.092-1.195-3.292 1.902a.833.833 0 01-.833 0L6.29 4.495zm6.626 11.463l-2.083 1.19V10.49l5.833-3.374v2.404l-3.334 1.926a.833.833 0 00-.416.722v3.791zm-3.75 1.19V10.49L3.333 7.115v2.404l3.333 1.926a.833.833 0 01.417.722v3.791l2.083 1.19zm-5.833-3.815v-1.889l2.083 1.204v2.358l-1.667-.953h-.001a.834.834 0 01-.415-.72zm11.25 1.673l1.666-.953h.002a.834.834 0 00.415-.72v-1.889l-2.083 1.204v2.358z"/></symbol><symbol viewBox="0 0 20 20" id="icon-check"><path fill-rule="evenodd" clip-rule="evenodd" d="M15.946 4.32l-8.354 8.062-2.216-2.368c-.409-.385-1.05-.409-1.517-.082-.455.338-.583.933-.303 1.412l2.625 4.27c.256.396.7.641 1.201.641.479 0 .934-.245 1.19-.641.42-.549 8.435-10.104 8.435-10.104 1.05-1.073-.221-2.018-1.061-1.201v.011z"/></symbol><symbol viewBox="0 0 20 20" id="icon-chevron-down"><path fill-rule="evenodd" clip-rule="evenodd" d="M4.411 6.911a.833.833 0 011.179 0l4.41 4.41 4.411-4.41A.833.833 0 1115.59 8.09l-5 5a.833.833 0 01-1.179 0l-5-5a.833.833 0 010-1.179z"/></symbol><symbol viewBox="0 0 16 16" id="icon-chevron-right"><path fill-rule="evenodd" clip-rule="evenodd" d="M5.529 12.471a.667.667 0 010-.942L9.057 8 5.53 4.471a.667.667 0 11.943-.942l4 4c.26.26.26.682 0 .942l-4 4a.667.667 0 01-.943 0z"/></symbol><symbol viewBox="0 0 24 24" id="icon-close"><path d="M13.41 12l6.3-6.29a1.004 1.004 0 00-1.42-1.42L12 10.59l-6.29-6.3a1.004 1.004 0 10-1.42 1.42l6.3 6.29-6.3 6.29a.999.999 0 000 1.42 1 1 0 001.42 0l6.29-6.3 6.29 6.3a1.002 1.002 0 001.639-.325 1 1 0 00-.219-1.095L13.41 12z"/></symbol><symbol viewBox="0 0 24 24" id="icon-copy"><path fill-rule="evenodd" clip-rule="evenodd" d="M11 10a1 1 0 00-1 1v9a1 1 0 001 1h9a1 1 0 001-1v-9a1 1 0 00-1-1h-9zm-3 1a3 3 0 013-3h9a3 3 0 013 3v9a3 3 0 01-3 3h-9a3 3 0 01-3-3v-9z"/><path fill-rule="evenodd" clip-rule="evenodd" d="M4 3a1 1 0 00-1 1v9a1 1 0 001 1h1a1 1 0 110 2H4a3 3 0 01-3-3V4a3 3 0 013-3h9a3 3 0 013 3v1a1 1 0 11-2 0V4a1 1 0 00-1-1H4z"/></symbol><symbol viewBox="0 0 25 24" id="icon-delete"><path d="M10.5 18a1 1 0 001-1v-6a1 1 0 00-2 0v6a1 1 0 001 1zm10-12h-4V5a3 3 0 00-3-3h-2a3 3 0 00-3 3v1h-4a1 1 0 000 2h1v11a3 3 0 003 3h8a3 3 0 003-3V8h1a1 1 0 100-2zm-10-1a1 1 0 011-1h2a1 1 0 011 1v1h-4V5zm7 14a1 1 0 01-1 1h-8a1 1 0 01-1-1V8h10v11zm-3-1a1 1 0 001-1v-6a1 1 0 00-2 0v6a1 1 0 001 1z"/></symbol><symbol viewBox="0 0 24 24" id="icon-eye-close"><path d="M10.94 6.08c.35-.054.705-.08 1.06-.08 3.18 0 6.17 2.29 7.91 6a15.23 15.23 0 01-.9 1.64 1 1 0 101.7 1.05 15.78 15.78 0 001.21-2.3 1.001 1.001 0 000-.79C19.9 6.91 16.1 4 12 4a7.77 7.77 0 00-1.4.12 1.015 1.015 0 10.34 2v-.04zM3.71 2.29a1.004 1.004 0 10-1.42 1.42l3.1 3.09a14.62 14.62 0 00-3.31 4.8 1 1 0 000 .8C4.1 17.09 7.9 20 12 20a9.26 9.26 0 005.05-1.54l3.24 3.25a1 1 0 001.42 0 1.002 1.002 0 000-1.42l-18-18zm6.36 9.19l2.45 2.45a2 2 0 01-2.45-2.45zM12 18c-3.18 0-6.17-2.29-7.9-6a12.09 12.09 0 012.7-3.79L8.57 10A4 4 0 0014 15.43L15.59 17A7.24 7.24 0 0112 18z"/></symbol><symbol viewBox="0 0 24 24" id="icon-flash"><path d="M19.865 8.6a1 1 0 00-.87-.6h-4.58l1.27-4.74a1 1 0 00-.525-1.159 1 1 0 00-.445-.1h-7a1 1 0 00-1 .74l-2.68 10a1 1 0 001 1.26h3.85l-1.81 6.74a1 1 0 001.71.93l10.9-12a1 1 0 00.18-1.07zm-9.79 8.68l1.08-4a1 1 0 00-.16-.89 1.002 1.002 0 00-.81-.39h-3.84l2.14-8h4.93l-1.27 4.74a.999.999 0 001 1.26h3.57l-6.64 7.28z"/></symbol><symbol viewBox="0 0 25 24" id="icon-http"><path d="M23.5 16.25v-12a2 2 0 00-2-2h-18a2 2 0 00-2 2v12a1 1 0 00-1 1v3a2 2 0 002 2h20a2 2 0 002-2v-3a1 1 0 00-1-1zm-20-12h18v12h-6a1 1 0 00-.707.293l-.707.707h-3.172l-.707-.707a1 1 0 00-.707-.293h-6v-12zm19 16h-20v-2h6.586l.707.707a1 1 0 00.707.293h4a1 1 0 00.707-.293l.707-.707H22.5v2z"/><path d="M8.31 8.457a.38.38 0 00-.378.379v1.138H6.413V8.836a.379.379 0 10-.757 0v3.035a.38.38 0 00.757 0v-1.138h1.518v1.138a.38.38 0 00.758 0V8.836a.38.38 0 00-.378-.38zM9.828 9.216h.759v2.655a.38.38 0 00.758 0V9.216h.759a.38.38 0 000-.76H9.828a.38.38 0 000 .76zM13.62 9.216h.76v2.655a.38.38 0 00.757 0V9.216h.76a.38.38 0 000-.76H13.62a.38.38 0 000 .76zM17.414 12.25a.38.38 0 00.38-.38v-.947h.473a1.234 1.234 0 000-2.466h-.853a.38.38 0 00-.38.379v3.035c0 .209.17.379.38.379zm.38-3.034h.473a.474.474 0 110 .948h-.474v-.948z"/></symbol><symbol viewBox="0 0 24 24" id="icon-jabber"><g clip-path="url(#lclip0_89_1693)"><path d="M12.094 11.803c0-.263-.047-.549-.196-.77-.298-.44-.937-.58-1.382-.303-.225.141-.35.387-.42.639-.14.5-.077 1.071.021 1.574.032.16.064.322.108.48.016.056.023.14.06.187.062.082.216.106.31.09.283-.049.213-.527.203-.73-.022-.476-.159-.938-.027-1.411.056-.2.165-.426.362-.513.178-.079.357.018.428.196.114.289.085.622.157.923.024.102.051.203.096.298.013.028.03.085.069.082.091-.009.221-.166.29-.224.222-.188.45-.39.706-.529.12-.066.317-.172.44-.06a.457.457 0 01.08.098c.143.232 0 .413-.094.633-.121.286-.246.569-.422.824-.15.22-.358.412-.478.651a.784.784 0 00-.09.498c.026.14.132.226.272.193.105-.025.176-.117.236-.202.106-.152.205-.31.311-.461.205-.295.446-.57.618-.887a2.61 2.61 0 00.308-1.249c0-.355-.126-.898-.53-.973a.695.695 0 00-.237.007 1.027 1.027 0 00-.274.09c-.229.115-.427.285-.598.478-.106.12-.2.272-.327.371z"/><path d="M11.715 3.013c-.318.042-.641.038-.96.089-.613.097-1.2.292-1.773.527a9.505 9.505 0 00-.617.282c-.075.038-.19.068-.25.128-.032.03-.03.104-.033.146-.01.118-.025.235-.036.353-.043.454-.073.921-.01 1.375.02.147.065.413.24.44.27.044.48-.297.613-.485.31-.44.661-.85 1.169-1.046.597-.231 1.28-.286 1.913-.33 1.772-.125 3.71.207 5.016 1.548.186.19.362.393.511.615.585.87.894 1.857 1.043 2.895.07.488.118.98.01 1.466-.188.842-.681 1.575-1.247 2.199a9.879 9.879 0 01-1.278 1.164c-.253.195-.537.361-.776.575a3.194 3.194 0 00-.676.885c-.467.885-.592 1.951-.455 2.94.029.203.054.406.099.606.013.06.015.163.053.212.07.091.263.141.37.147.113.005.188-.083.216-.187.047-.177.019-.373-.009-.552-.056-.365-.107-.733-.091-1.104a2.82 2.82 0 01.75-1.818c.47-.505 1.104-.796 1.639-1.218 1.076-.852 2.041-2.002 2.412-3.37.132-.489.176-1.007.115-1.51-.076-.637-.303-1.274-.517-1.873-.651-1.828-1.77-3.567-3.544-4.403-.705-.332-1.442-.483-2.204-.592a11.126 11.126 0 00-1.076-.1c-.2-.008-.418-.031-.617-.004z"/><path d="M8.938 14.847c-.346.05-.447.335-.383.657.082.41.397.724.709.97a4.33 4.33 0 002.839.93c.392-.018.82-.084 1.18-.256.194-.091.396-.421.133-.563a.426.426 0 00-.123-.038c-.115-.02-.244.03-.353.063-.192.057-.384.115-.582.147a2.308 2.308 0 01-1.719-.4c-.396-.29-.716-.674-1.018-1.062-.184-.236-.35-.497-.683-.448zM8.488 16.855c-.088.012-.189.009-.264.066-.157.118.016.357.099.465.24.312.555.572.87.8a5.63 5.63 0 002.945 1.082c.308.022.621 0 .926-.053.11-.019.25-.027.352-.077.291-.14.207-.704-.053-.83-.113-.054-.295.018-.414.035-.281.04-.563.045-.846.038a4.766 4.766 0 01-2.178-.623 4.087 4.087 0 01-.705-.52c-.133-.12-.27-.316-.441-.376a.72.72 0 00-.29-.006zM8.665 18.548a.464.464 0 00-.303.177c-.057.065-.11.125-.143.208-.18.456.3.887.63 1.103.37.24.772.418 1.182.568.925.338 2.01.554 2.971.252.285-.09.568-.254.775-.476.117-.125.198-.314-.017-.394-.127-.047-.281.073-.397.12a3.27 3.27 0 01-.846.235c-.385.048-.731-.039-1.102-.134-.317-.081-.637-.163-.943-.28-.261-.1-.521-.218-.75-.384-.068-.05-.15-.094-.206-.159-.183-.211-.32-.459-.517-.66-.084-.086-.205-.191-.334-.176z"/></g><defs><clipPath id="lclip0_89_1693"><path transform="translate(8 3)" d="M0 0h11.7v18H0z"/></clipPath></defs></symbol><symbol viewBox="0 0 20 20" id="icon-link"><path d="M10.092 12.825l-3.234 3.233a2.1 2.1 0 01-2.916 0 2.058 2.058 0 010-2.916l3.233-3.234a.837.837 0 10-1.183-1.183l-3.234 3.242a3.733 3.733 0 005.275 5.275l3.242-3.234a.836.836 0 10-1.183-1.183zm7.15-10.067a3.742 3.742 0 00-5.275 0L8.725 5.992a.837.837 0 101.183 1.183l3.234-3.233a2.1 2.1 0 012.916 0 2.06 2.06 0 010 2.916l-3.233 3.234a.832.832 0 000 1.183.834.834 0 001.183 0l3.234-3.242a3.742 3.742 0 000-5.275zm-9.884 9.884a.834.834 0 00.592.241.833.833 0 00.592-.241l4.1-4.1a.837.837 0 00-1.184-1.184l-4.1 4.1a.834.834 0 000 1.184z"/></symbol><symbol viewBox="0 0 20 20" id="icon-money"><path d="M5 9.167a.833.833 0 100 1.666.833.833 0 000-1.666zm10 0a.833.833 0 100 1.666.833.833 0 000-1.666zm1.667-5H3.333a2.5 2.5 0 00-2.5 2.5v6.666a2.5 2.5 0 002.5 2.5h13.334a2.5 2.5 0 002.5-2.5V6.667a2.5 2.5 0 00-2.5-2.5zm.833 9.166a.833.833 0 01-.833.834H3.333a.833.833 0 01-.833-.834V6.667a.833.833 0 01.833-.834h13.334a.833.833 0 01.833.834v6.666zM10 7.5a2.5 2.5 0 100 5 2.5 2.5 0 000-5zm0 3.333a.834.834 0 110-1.667.834.834 0 010 1.667z"/></symbol><symbol viewBox="0 0 20 20" id="icon-moon"><path d="M18.033 10.833a.833.833 0 00-.875-.116c-.881.403-1.84.61-2.808.608a6.792 6.792 0 01-6.784-6.75 7.159 7.159 0 01.209-1.667.833.833 0 00-1.109-.941 8.45 8.45 0 1011.667 9.741.833.833 0 00-.3-.875zm-7.917 5.575A6.784 6.784 0 015.9 4.35v.225a8.458 8.458 0 0010.2 8.267 6.759 6.759 0 01-5.984 3.6v-.034z"/></symbol><symbol viewBox="0 0 33 32" id="icon-person"><path d="M21.447 16.947a8 8 0 10-9.894 0A13.333 13.333 0 003.26 27.853a1.341 1.341 0 102.667.294 10.667 10.667 0 0121.2 0 1.333 1.333 0 001.333 1.186h.147a1.333 1.333 0 001.173-1.466 13.333 13.333 0 00-8.333-10.92zM16.5 16a5.333 5.333 0 110-10.665A5.333 5.333 0 0116.5 16z"/></symbol><symbol viewBox="0 0 24 24" id="icon-protocol"><path d="M17 6.06a3 3 0 00-1.15 5.77A2 2 0 0114 13.06h-4a3.909 3.909 0 00-2 .56V7.88a3 3 0 10-2 0v8.36a3 3 0 102.16.05A2 2 0 0110 15.06h4a4 4 0 003.91-3.16A3 3 0 0017 6.06zm-10-2a1 1 0 110 2 1 1 0 010-2zm0 16a1 1 0 110-2.001 1 1 0 010 2.001zm10-10a1 1 0 110-2 1 1 0 010 2z"/></symbol><symbol viewBox="0 0 24 24" id="icon-qr"><path d="M8 21H4a1 1 0 01-1-1v-4a1 1 0 10-2 0v4a3 3 0 003 3h4a1 1 0 000-2zm14-6a1 1 0 00-1 1v4a1 1 0 01-1 1h-4a1 1 0 000 2h4a3 3 0 003-3v-4a1 1 0 00-1-1zM20 1h-4a1 1 0 100 2h4a1 1 0 011 1v4a1 1 0 002 0V4a3 3 0 00-3-3zM2 9a1 1 0 001-1V4a1 1 0 011-1h4a1 1 0 000-2H4a3 3 0 00-3 3v4a1 1 0 001 1zm8-4H6a1 1 0 00-1 1v4a1 1 0 001 1h4a1 1 0 001-1V6a1 1 0 00-1-1zM9 9H7V7h2v2zm5 2h4a1 1 0 001-1V6a1 1 0 00-1-1h-4a1 1 0 00-1 1v4a1 1 0 001 1zm1-4h2v2h-2V7zm-5 6H6a1 1 0 00-1 1v4a1 1 0 001 1h4a1 1 0 001-1v-4a1 1 0 00-1-1zm-1 4H7v-2h2v2zm5-1a1 1 0 001-1 1 1 0 000-2h-1a1 1 0 00-1 1v1a1 1 0 001 1zm4-3a1 1 0 00-1 1v3a1 1 0 000 2h1a1 1 0 001-1v-4a1 1 0 00-1-1zm-4 4a1 1 0 100 2 1 1 0 000-2z"/></symbol><symbol viewBox="0 0 24 24" id="icon-server"><path d="M11 13a1 1 0 100 2 1 1 0 000-2zm-4 0a1 1 0 100 2 1 1 0 000-2zm15-9a3 3 0 00-3-3H5a3 3 0 00-3 3v4a3 3 0 00.78 2A3 3 0 002 12v4a3 3 0 003 3h6v2H3a1 1 0 000 2h18a1 1 0 000-2h-8v-2h6a3 3 0 003-3v-4a3 3 0 00-.78-2A3 3 0 0022 8V4zm-2 12a1 1 0 01-1 1H5a1 1 0 01-1-1v-4a1 1 0 011-1h14a1 1 0 011 1v4zm0-8a1 1 0 01-1 1H5a1 1 0 01-1-1V4a1 1 0 011-1h14a1 1 0 011 1v4zm-9-3a1 1 0 100 2 1 1 0 000-2zM7 5a1 1 0 100 2 1 1 0 000-2z"/></symbol><symbol viewBox="0 0 24 24" id="icon-setting"><path d="M19.9 12.66a1 1 0 010-1.32l1.28-1.44a1 1 0 00.12-1.17l-2-3.46a1 1 0 00-1.07-.48l-1.88.38a1 1 0 01-1.15-.66l-.61-1.83a1 1 0 00-.95-.68h-4a1 1 0 00-1 .68l-.56 1.83a1 1 0 01-1.15.66L5 4.79a1 1 0 00-1 .48L2 8.73a1 1 0 00.1 1.17l1.27 1.44a1 1 0 010 1.32L2.1 14.1a1 1 0 00-.1 1.17l2 3.46a1 1 0 001.07.48l1.88-.38a1 1 0 011.15.66l.61 1.83a1 1 0 001 .68h4a1 1 0 00.95-.68l.61-1.83a1 1 0 011.15-.66l1.88.38a1 1 0 001.07-.48l2-3.46a1 1 0 00-.12-1.17l-1.35-1.44zM18.41 14l.8.9-1.28 2.22-1.18-.24a3 3 0 00-3.45 2L12.92 20h-2.56L10 18.86a3 3 0 00-3.45-2l-1.18.24-1.3-2.21.8-.9a3 3 0 000-4l-.8-.9 1.28-2.2 1.18.24a3 3 0 003.45-2L10.36 4h2.56l.38 1.14a3 3 0 003.45 2l1.18-.24 1.28 2.22-.8.9a3 3 0 000 3.98zm-6.77-6a4 4 0 100 8 4 4 0 000-8zm0 6a2 2 0 110-3.999 2 2 0 010 4z"/></symbol><symbol viewBox="0 0 24 24" id="icon-shield"><path d="M19.63 3.65a1 1 0 00-.84-.2 8 8 0 01-6.22-1.27 1 1 0 00-1.14 0 8 8 0 01-6.22 1.27A1 1 0 004 4.43v7.45a9 9 0 003.77 7.33l3.65 2.6a1 1 0 001.16 0l3.65-2.6A9 9 0 0020 11.88V4.43a1 1 0 00-.37-.78zM18 11.88a7 7 0 01-2.93 5.7L12 19.77l-3.07-2.19A7 7 0 016 11.88v-6.3a10 10 0 006-1.39 10 10 0 006 1.39v6.3z"/></symbol><symbol viewBox="0 0 24 24" id="icon-telegram"><path fill-rule="evenodd" clip-rule="evenodd" d="M3.232 11.47c4.831-2.11 8.047-3.513 9.662-4.193C17.49 5.347 18.456 5.014 19.078 5c.138 0 .441.028.648.194.166.14.207.32.235.458.028.14.055.43.028.653-.249 2.638-1.326 9.038-1.878 11.98-.234 1.25-.69 1.667-1.131 1.708-.966.084-1.698-.638-2.623-1.249-1.463-.958-2.277-1.555-3.699-2.499-1.642-1.083-.58-1.68.359-2.652.248-.25 4.486-4.137 4.569-4.484.013-.041.013-.208-.083-.291-.097-.084-.235-.056-.345-.028-.152.028-2.47 1.583-6.984 4.65-.663.459-1.256.681-1.795.667-.593-.014-1.725-.333-2.58-.61-1.036-.334-1.864-.514-1.795-1.098.041-.305.455-.61 1.228-.93z"/></symbol><symbol viewBox="0 0 24 24" id="icon-tox"><path fill-rule="evenodd" clip-rule="evenodd" d="M12.121 2a4.972 4.972 0 014.973 4.972v2.873h2.155c.549 0 .994.445.994.995v10.166c0 .549-.445.994-.994.994H4.994A.994.994 0 014 21.006V10.84c0-.55.445-.995.994-.995H7.15V6.972A4.972 4.972 0 0112.121 2zm.79 8.03c-.252.06-.517.091-.79.091-1.8 0-3.26-1.385-3.26-3.093 0-1.71 1.46-3.094 3.26-3.094 1.504 0 2.77.965 3.146 2.279.69 2.079-1.195 4.472-3.035 5.566.332-.497.608-1.05.663-1.713l.016-.036zm1.365 8.71c0-1.263-.6-2.09-1.584-2.425a1.603 1.603 0 10-1.14 0c-.985.336-1.585 1.162-1.585 2.425 0 .442.387.774.829.774h2.652c.441 0 .828-.332.828-.774z"/></symbol><symbol viewBox="0 0 20 20" id="icon-wallet"><path d="M15.833 5.833H15V5a2.5 2.5 0 00-2.5-2.5H4.167a2.5 2.5 0 00-2.5 2.5v10a2.5 2.5 0 002.5 2.5h11.666a2.5 2.5 0 002.5-2.5V8.333a2.5 2.5 0 00-2.5-2.5zM4.167 4.167H12.5a.833.833 0 01.833.833v.833H4.167a.833.833 0 110-1.666zm12.5 8.333h-.834a.833.833 0 010-1.667h.834V12.5zm0-3.333h-.834a2.5 2.5 0 000 5h.834V15a.833.833 0 01-.834.833H4.167A.834.834 0 013.333 15V7.358a2.5 2.5 0 00.834.142h11.666a.833.833 0 01.834.833v.834z"/></symbol><symbol viewBox="0 0 32 32" id="icon-web"><path fill-rule="evenodd" clip-rule="evenodd" d="M14.228 5.128c-.418 1.36-1.276 4.336-1.756 7.268 1.245.201 2.461.33 3.528.33 1.067 0 2.283-.129 3.528-.33-.48-2.932-1.338-5.908-1.756-7.268a11.1 11.1 0 00-3.544 0zm5.565.529c.46 1.588 1.095 4.004 1.492 6.415a61.627 61.627 0 004.506-1.122 11.054 11.054 0 00-5.998-5.293zm6.69 6.952a63.49 63.49 0 01-4.954 1.236c.08.74.127 1.468.127 2.155 0 1.003-.1 2.095-.258 3.193a63.811 63.811 0 005.474-1.42 11.108 11.108 0 00-.39-5.164zm-.14 7.184a61.936 61.936 0 01-5.264 1.286 61.936 61.936 0 01-1.286 5.265 11.048 11.048 0 006.55-6.55zm-8.57 7.08c.33-1.08.942-3.183 1.42-5.475-1.098.158-2.19.258-3.193.258-1.003 0-2.095-.1-3.192-.258a63.743 63.743 0 001.42 5.474 11.108 11.108 0 003.544 0zm-5.566-.53a61.898 61.898 0 01-1.285-5.264 61.931 61.931 0 01-5.265-1.286 11.048 11.048 0 006.55 6.55zm-7.08-8.57c1.08.33 3.183.942 5.475 1.42-.157-1.098-.258-2.19-.258-3.193 0-.687.048-1.415.127-2.155a63.503 63.503 0 01-4.953-1.236 11.1 11.1 0 00-.39 5.163zM6.21 10.95c1.174.338 2.791.769 4.506 1.122.397-2.411 1.032-4.827 1.491-6.415A11.054 11.054 0 006.21 10.95zm6.023 3.217c-.066.643-.103 1.26-.103 1.833 0 1.07.13 2.29.331 3.539 1.25.202 2.47.331 3.54.331 1.069 0 2.288-.129 3.538-.331.202-1.25.331-2.47.331-3.539 0-.572-.037-1.19-.103-1.833-1.29.207-2.59.345-3.767.345s-2.477-.139-3.767-.345zm1.12-10.692A12.85 12.85 0 0116 3.2c.907 0 1.793.095 2.648.275a12.822 12.822 0 019.208 7.692c.609 1.492.944 3.125.944 4.833 0 .907-.094 1.793-.274 2.648a12.815 12.815 0 01-9.878 9.878c-.855.18-1.74.274-2.648.274-.907 0-1.793-.094-2.648-.274a12.815 12.815 0 01-9.877-9.878A12.85 12.85 0 013.2 16c0-1.71.336-3.343.946-4.837a12.822 12.822 0 019.206-7.688z"/></symbol></svg>