<svg width="32" height="32" viewBox="0 0 32 32" fill="none" xmlns="http://www.w3.org/2000/svg">
<g clip-path="url(#clip0)">
<path d="M30.2248 16.4146C30.096 16.1511 30.096 15.849 30.2248 15.5857L31.4183 13.1441C32.0828 11.7847 31.5563 10.1644 30.2196 9.45519L27.819 8.18144C27.56 8.04407 27.3825 7.79957 27.3318 7.51089L26.8623 4.83409C26.6008 3.34372 25.2222 2.34223 23.7243 2.55416L21.0335 2.93479C20.7431 2.97579 20.4559 2.88241 20.2452 2.6786L18.292 0.789113C17.2045 -0.263006 15.5007 -0.263069 14.4132 0.789113L12.46 2.67879C12.2492 2.88266 11.9621 2.97585 11.6717 2.93498L8.98089 2.55435C7.48246 2.34229 6.10435 3.34391 5.84291 4.83428L5.37341 7.51095C5.32273 7.7997 5.14516 8.04413 4.88623 8.18157L2.48562 9.45531C1.149 10.1644 0.622503 11.7849 1.287 13.1443L2.48043 15.5858C2.60918 15.8492 2.60918 16.1513 2.48043 16.4147L1.28694 18.8562C0.62244 20.2156 1.14894 21.8359 2.48555 22.5451L4.88617 23.8189C5.14516 23.9562 5.32273 24.2007 5.37341 24.4894L5.84291 27.1662C6.08091 28.5229 7.24428 29.4744 8.58133 29.4743C8.71302 29.4743 8.84664 29.4651 8.98095 29.4461L11.6718 29.0654C11.9619 29.0243 12.2493 29.1178 12.4601 29.3216L14.4132 31.2111C14.9571 31.7372 15.6547 32.0002 16.3526 32.0002C17.0503 32.0001 17.7483 31.7371 18.292 31.2111L20.2452 29.3216C20.4559 29.1178 20.7432 29.0247 21.0335 29.0654L23.7243 29.4461C25.2229 29.6581 26.6008 28.6565 26.8623 27.1661L27.3318 24.4895C27.3825 24.2007 27.5601 23.9563 27.819 23.8189L30.2196 22.5451C31.5563 21.836 32.0828 20.2156 31.4183 18.8561L30.2248 16.4146ZM12.6613 7.69482C14.527 7.69482 16.045 9.21275 16.045 11.0785C16.045 12.9442 14.527 14.4622 12.6613 14.4622C10.7956 14.4622 9.27764 12.9442 9.27764 11.0785C9.27764 9.21275 10.7956 7.69482 12.6613 7.69482ZM10.9148 22.7429C10.7346 22.923 10.4984 23.0132 10.2623 23.0132C10.0262 23.0132 9.78995 22.9231 9.60983 22.7429C9.24945 22.3825 9.24945 21.7982 9.60983 21.4378L21.7903 9.25731C22.1506 8.89694 22.735 8.89694 23.0954 9.25731C23.4557 9.61769 23.4557 10.202 23.0954 10.5624L10.9148 22.7429ZM20.0438 24.3055C18.178 24.3055 16.6601 22.7875 16.6601 20.9218C16.6601 19.0561 18.178 17.5381 20.0438 17.5381C21.9095 17.5381 23.4274 19.0561 23.4274 20.9218C23.4274 22.7875 21.9095 24.3055 20.0438 24.3055Z" fill="#EDFF20"/>
<path d="M19.6904 19.3835C18.8423 19.3835 18.1523 20.0735 18.1523 20.9215C18.1523 21.7696 18.8423 22.4595 19.6904 22.4595C20.5385 22.4595 21.2284 21.7696 21.2284 20.9215C21.2284 20.0735 20.5385 19.3835 19.6904 19.3835Z" fill="#EDFF20"/>
<path d="M12.3095 9.54034C11.4614 9.54034 10.7715 10.2303 10.7715 11.0783C10.7715 11.9264 11.4614 12.6164 12.3095 12.6164C13.1575 12.6164 13.8475 11.9265 13.8475 11.0783C13.8475 10.2303 13.1575 9.54034 12.3095 9.54034Z" fill="#EDFF20"/>
</g>
<defs>
<clipPath id="clip0">
<rect width="32" height="32" fill="white"/>
</clipPath>
</defs>
</svg>
