<svg width="130" height="130" viewBox="0 0 130 130" fill="none" xmlns="http://www.w3.org/2000/svg">
<path d="M71.5635 0.376891C84.3693 1.5285 97.3702 3.84484 107.632 11.4084C118.216 19.2092 126.621 30.3245 129.375 42.986C132.039 55.2293 125.519 67.0006 122.365 79.1325C119.102 91.6853 119.637 105.972 110.549 115.408C101.216 125.1 87.0087 129.687 73.3839 129.992C60.5118 130.279 49.7594 122.03 37.947 117.03C25.9739 111.963 10.6516 111.133 3.56066 100.441C-3.52807 89.7519 2.16007 75.7755 2.14313 63.0434C2.12633 50.4107 -2.84233 36.9687 3.46157 25.9353C9.83914 14.773 23.135 9.49615 35.3581 4.90887C46.9494 0.558687 59.197 -0.735216 71.5635 0.376891Z" fill="#FFEFEF"/>
</svg>
