<svg width="294" height="79" viewBox="0 0 294 79" fill="none" xmlns="http://www.w3.org/2000/svg">
<path fill-rule="evenodd" clip-rule="evenodd" d="M192.095 26.553V25.7915L178.075 39.5192V48.2429L186.206 56.0682H207.654V47.1458H192.095V36.164H207.654V26.5553H192.095V26.553ZM220.259 27.1931L219.465 26.4162L210.176 35.5151V21.3369L218.308 13.2379H285.455V22.8467H273.68V56.0682H259.382V33.9102L270.165 23.35L270.167 23.3479L269.373 22.5708L259.382 32.3562V22.8446H224.057V30.2569H248.166V33.2171L235.272 45.8457L235.271 45.8479L235.272 45.8502L236.065 46.625L248.166 34.7711V48.2408L239.757 56.066H210.179V47.1437H233.589V39.5922H210.179V37.0646L220.259 27.1931ZM192.095 24.2375V22.8467H207.654V13.2379H186.206L178.075 21.3369V37.9675L192.095 24.2375ZM167.773 56.0682H145.344L137.635 48.2429V33.8904L151.793 20.0257V47.1458H161.326V13.2379H175.345V39.8901L168.137 46.9494L168.135 46.9516L168.929 47.7286L175.345 41.4441V48.2473L172.473 51.2164L172.471 51.2185L167.773 56.0682ZM151.793 18.4717V13.2357H137.635V32.3364L151.793 18.4717ZM94.2871 31.3452L95.0809 32.1244L89.0586 38.0359V50.799L98.7284 60.28H111.623L120.616 69.0941H136.733L126.553 58.949L134.696 50.799V36.5039L123.582 47.413L122.788 46.6338L134.696 34.9455V18.2024L124.686 8.39046H98.7284L89.0586 18.2024V36.4775L94.2871 31.3452ZM67.0115 25.5928L67.8053 26.3697L67.8032 26.3721L56.5592 37.3847V48.2452L64.6908 56.0705H86.1375V47.1481H70.5781V36.1663H86.1375V26.5574H70.5781V22.8512H86.1375V13.2423H64.6908L56.5592 21.3413V35.8351L67.0115 25.5928ZM45.7694 47.4107L44.9756 46.6315L53.755 38.0138V18.2841L43.822 8.39046H8.54525V43.3226L18.2713 33.7757L19.0651 34.5549L8.54525 44.8812V60.7147H43.822L53.755 51.1545V39.5745L45.7694 47.4107ZM181.639 8.97984V7.05498H158.088H132.238L127.293 2.20752H96.0591L91.2804 7.05498H62.0507L56.685 12.3991L46.4531 2.20752H2.24414V66.8933H46.3901L56.6648 57.0042L62.1137 62.249H91.827L96.1198 66.4584H109.014L118.007 75.2727H151.771L135.382 58.9378L137.41 56.9071L142.672 62.2467H170.476L176.82 55.6886L183.634 62.2467H242.264L253.082 52.181V62.2467H279.974V29.0253H291.749V7.05498H215.67L213.948 8.77015V7.05498H183.571L181.639 8.97984Z" fill="#02221F"/>
<path d="M117.564 20.0298H105.857V49.4677H117.564V20.0298Z" fill="#02221F"/>
<path d="M36.6305 20.1294H25.3281V49.8124H36.6305V20.1294Z" fill="#02221F"/>
<path fill-rule="evenodd" clip-rule="evenodd" d="M0 0H47.3978L56.6874 9.25566L61.111 4.84966H90.3294L95.108 0.00220955H128.226L133.171 4.84966H294V31.2349H282.225V64.4563H250.837V57.3176L243.165 64.4563H182.716L176.879 58.8384L171.443 64.4563H144.078L157.145 77.4799H117.081L108.088 68.6658H95.1936L90.9006 64.4563H61.1986L56.6672 60.0966L47.3122 69.1007H0V0ZM62.1161 62.251L56.6672 57.0062L46.3924 66.8955H2.24654V2.20961H46.4554L56.6874 12.4012L62.0531 7.05707H91.2828L96.0614 2.20961H127.295L132.24 7.05707H181.639V8.98193L183.571 7.05707H213.95V8.77224L215.672 7.05707H291.751V29.0273H279.976V62.2489H253.086V52.1832L242.267 62.2489H183.636L176.822 55.6906L170.478 62.2489H142.674L137.412 56.9091L135.384 58.94L151.773 75.2747H118.01L109.017 66.4606H96.1223L91.8294 62.251H62.1161Z" fill="white"/>
<path fill-rule="evenodd" clip-rule="evenodd" d="M10.7942 45.7925V58.505H42.9047L51.5063 50.225V44.9008L45.7697 50.5318L41.7959 46.6313L51.5063 37.0998V19.1889L42.8822 10.5977H10.7964V37.9916L18.2737 30.6519L22.2472 34.5524L10.7942 45.7925ZM38.8794 52.0197V17.9218H23.0794V52.0197H38.8794Z" fill="url(#paint0_linear_96_983)"/>
<path d="M68.3271 23.7627V20.6393H83.8866V15.4453H65.6286L58.8059 22.2419V30.5087L67.0095 22.4737L68.3271 23.7627Z" fill="url(#paint1_linear_96_983)"/>
<path d="M83.889 49.3534H68.3295V33.9567H83.889V28.7627H68.5477L58.8081 38.3009V47.3181L65.6085 53.8631H83.889V49.3534Z" fill="url(#paint2_linear_96_983)"/>
<path d="M91.31 38.9498L98.2631 32.1244L94.2895 28.224L91.31 31.1489V19.0942L99.6844 10.5957H123.758L132.449 19.1163V34.0295L119.811 46.4352V17.8227H103.606V51.6756H119.811V46.8281L123.585 50.532L132.449 41.8305V49.8964L123.4 58.9511L131.361 66.8846H121.545L112.552 58.0703H99.6575L91.3054 49.8831V38.9498H91.31Z" fill="url(#paint3_linear_96_983)"/>
<path d="M149.545 17.5554L139.884 27.0163V15.4429H149.545V17.5554Z" fill="url(#paint4_linear_96_983)"/>
<path d="M139.884 34.8065V47.3512L146.3 53.8608H166.809L170.838 49.6932L170.841 49.6911L170.845 49.6867L173.094 47.3621V46.7617L168.927 50.8433L164.951 46.9494L166.548 45.3821L173.096 38.9696V15.4453H163.575V49.3533H149.545V25.3456L139.884 34.8065Z" fill="url(#paint5_linear_96_983)"/>
<path d="M194.344 20.6393V20.4715L194.172 20.6393H189.845V23.3236L180.324 32.6477V22.2419L187.146 15.4453H205.405V20.6393H194.344Z" fill="url(#paint6_linear_96_983)"/>
<path d="M180.326 40.4354V47.3159L187.126 53.8608H205.407V49.3534H189.847V33.9567H205.407V28.7627H192.247L180.326 40.4354Z" fill="url(#paint7_linear_96_983)"/>
<path d="M221.808 25.5884V20.6393H261.631V27.0364L269.373 19.4539L271.431 21.4694V20.6393H283.206V15.4453H219.248L212.425 22.2419V30.1952L219.465 23.2993L221.808 25.5884Z" fill="url(#paint8_linear_96_983)"/>
<path d="M235.838 42.1791L245.752 32.4688H221.808V28.7979L213.035 37.389H235.838V42.1791Z" fill="url(#paint9_linear_96_983)"/>
<path d="M235.662 49.3531L236.063 49.7459L245.916 40.0952V47.2958L238.858 53.8628H212.425V49.3552H235.662V49.3531Z" fill="url(#paint10_linear_96_983)"/>
<path d="M271.431 25.2285L261.631 34.8264V53.8608H271.431V25.2285Z" fill="url(#paint11_linear_96_983)"/>
<path fill-rule="evenodd" clip-rule="evenodd" d="M25.3281 20.1292H36.6305V49.8122H25.3281V20.1292ZM105.857 20.0297V49.4677H117.565V20.0297H105.857ZM38.8794 52.0195V17.9217H23.0794V52.0195H38.8794ZM236.063 49.7459L235.662 49.353V49.3551H212.425V53.8628H238.858L245.916 47.2957V40.0952L236.063 49.7459ZM261.631 34.8261L271.431 25.2281V53.8604H261.631V34.8261ZM221.808 20.639V25.5881L219.465 23.299L212.425 30.1949V22.2416L219.248 15.445H283.206V20.639H271.431V21.4691L269.373 19.4536L261.631 27.0361V20.639H221.808ZM245.752 32.4686L235.838 42.1788V37.3887H213.035L221.808 28.7976V32.4686H245.752ZM210.179 56.0678V47.1456H233.587V39.594H210.176V37.0666L220.259 27.1927L219.465 26.4158L210.176 35.5147V21.3365L218.308 13.2376H285.455V22.8464H273.68V56.0678H259.382V33.9099L270.163 23.352L270.165 23.3497L270.167 23.3476L269.377 22.5728L269.373 22.5705L269.371 22.5728L269.369 22.5749L259.381 32.3582V22.8464H224.053V30.2589H248.165V33.2191L235.271 45.8475L235.269 45.8498L235.271 45.852L236.063 46.6267L236.082 46.6069L248.167 34.7731V48.2426L239.757 56.0678H210.179ZM194.344 20.4712V20.639H205.405V15.445H187.146L180.324 22.2416V32.6474L189.845 23.3233V20.639H194.172L194.344 20.4712ZM192.097 24.2393L178.077 37.9672V21.3388L186.209 13.2398H207.656V22.8487H192.097V24.2393ZM180.326 47.3156V40.4351L192.247 28.7623H205.407V33.9563H189.847V49.353H205.407V53.8604H187.126L180.326 47.3156ZM186.209 56.0678L178.077 48.2426V39.5212L192.097 25.7933V26.555H207.656V36.1637H192.097V47.1456H207.656V56.0678H186.209ZM139.884 27.0162L149.544 17.5553V15.4428H139.884V27.0162ZM151.793 18.4736L137.635 32.3383V13.2376H151.793V18.4736ZM139.884 47.3508V34.8062L149.544 25.3453V49.353H163.575V15.445H173.096V38.9693L166.548 45.3818L164.951 46.9491L168.927 50.843L173.094 46.7614V47.3618L170.845 49.6863L170.841 49.6908L170.838 49.6929L166.809 53.8604H146.3L139.884 47.3508ZM145.344 56.0678L137.635 48.2426H137.633V33.89L151.791 20.0253V47.1456H161.324V13.2376H175.343V39.8832L168.135 46.9425L168.133 46.9447L168.927 47.7218L175.343 41.4393V48.2426L172.471 51.2116L172.469 51.2137L167.773 56.0678H145.344ZM98.263 32.1241L91.3099 38.9495H91.3053V49.8827L99.6574 58.07H112.552L121.545 66.8843H131.361L123.4 58.9507L132.449 49.896V41.8301L123.584 50.5317L119.811 46.8277V51.6752H103.606V17.8224H119.811V46.4348L132.449 34.0291V19.1159L123.758 10.5953H99.6843L91.3099 19.0938V31.1485L94.2895 28.2236L98.263 32.1241ZM89.061 50.7989V38.0356L95.0832 32.1241L94.2895 31.3449L89.061 36.4772V18.202L98.7309 8.39014H124.689L134.698 18.202V34.9451L122.791 46.6335L123.584 47.4127L134.698 36.5036V50.7989L126.555 58.9486L136.735 69.0938H120.618L111.626 60.2797H98.7309L89.061 50.7989ZM68.3271 20.639V23.7624L67.0095 22.4734L58.8059 30.5084V22.2416L65.6286 15.445H83.8866V20.639H68.3271ZM68.3294 49.353H83.8889V53.8628H65.6084L58.808 47.3177V38.3005L68.5476 28.7623H83.8889V33.9563H68.3294V49.353ZM70.5761 36.1637V47.1456V47.1499H86.1376V56.0722H64.6909L56.5593 48.247V37.3866L67.8033 26.3738L67.8056 26.3717L67.0118 25.5946L67.0095 25.5969L56.557 35.8326V21.3388L64.6886 13.2398H86.1353V22.8487H70.5761V26.555H86.1353V36.1637H70.5761ZM10.7942 58.5049V45.7924L22.2472 34.5523L18.2737 30.6518L10.7965 37.9915V10.5975H42.8822L51.5063 19.1888V37.0997L41.7959 46.6312L45.7697 50.5317L51.5063 44.9007V50.2249L42.9047 58.5049H10.7942ZM43.8222 60.7122H8.54541V44.8808L19.0652 34.5546L18.2714 33.7754L8.54541 43.3224V8.39014H43.8222L53.7551 18.2837V38.0134L44.9759 46.6312L45.7697 47.4104L53.7551 39.5718V51.1521L43.8222 60.7122Z" fill="white"/>
<defs>
<linearGradient id="paint0_linear_96_983" x1="147.071" y1="13.9066" x2="147.003" y2="77.4798" gradientUnits="userSpaceOnUse">
<stop stop-color="white"/>
<stop offset="1" stop-color="#D2D2D2"/>
</linearGradient>
<linearGradient id="paint1_linear_96_983" x1="147.071" y1="13.9068" x2="147.003" y2="77.48" gradientUnits="userSpaceOnUse">
<stop stop-color="white"/>
<stop offset="1" stop-color="#D2D2D2"/>
</linearGradient>
<linearGradient id="paint2_linear_96_983" x1="147.071" y1="13.9068" x2="147.003" y2="77.4801" gradientUnits="userSpaceOnUse">
<stop stop-color="white"/>
<stop offset="1" stop-color="#D2D2D2"/>
</linearGradient>
<linearGradient id="paint3_linear_96_983" x1="147.071" y1="13.9068" x2="147.003" y2="77.4801" gradientUnits="userSpaceOnUse">
<stop stop-color="white"/>
<stop offset="1" stop-color="#D2D2D2"/>
</linearGradient>
<linearGradient id="paint4_linear_96_983" x1="147.071" y1="13.9065" x2="147.003" y2="77.4798" gradientUnits="userSpaceOnUse">
<stop stop-color="white"/>
<stop offset="1" stop-color="#D2D2D2"/>
</linearGradient>
<linearGradient id="paint5_linear_96_983" x1="147.071" y1="13.9068" x2="147.003" y2="77.48" gradientUnits="userSpaceOnUse">
<stop stop-color="white"/>
<stop offset="1" stop-color="#D2D2D2"/>
</linearGradient>
<linearGradient id="paint6_linear_96_983" x1="147.071" y1="13.9068" x2="147.003" y2="77.48" gradientUnits="userSpaceOnUse">
<stop stop-color="white"/>
<stop offset="1" stop-color="#D2D2D2"/>
</linearGradient>
<linearGradient id="paint7_linear_96_983" x1="147.071" y1="13.9068" x2="147.003" y2="77.4801" gradientUnits="userSpaceOnUse">
<stop stop-color="white"/>
<stop offset="1" stop-color="#D2D2D2"/>
</linearGradient>
<linearGradient id="paint8_linear_96_983" x1="147.071" y1="13.9068" x2="147.003" y2="77.48" gradientUnits="userSpaceOnUse">
<stop stop-color="white"/>
<stop offset="1" stop-color="#D2D2D2"/>
</linearGradient>
<linearGradient id="paint9_linear_96_983" x1="147.071" y1="13.9067" x2="147.002" y2="77.48" gradientUnits="userSpaceOnUse">
<stop stop-color="white"/>
<stop offset="1" stop-color="#D2D2D2"/>
</linearGradient>
<linearGradient id="paint10_linear_96_983" x1="147.071" y1="13.9065" x2="147.003" y2="77.4797" gradientUnits="userSpaceOnUse">
<stop stop-color="white"/>
<stop offset="1" stop-color="#D2D2D2"/>
</linearGradient>
<linearGradient id="paint11_linear_96_983" x1="147.071" y1="13.9068" x2="147.003" y2="77.4801" gradientUnits="userSpaceOnUse">
<stop stop-color="white"/>
<stop offset="1" stop-color="#D2D2D2"/>
</linearGradient>
</defs>
</svg>
