<svg width="436" height="76" viewBox="0 0 436 76" fill="none" xmlns="http://www.w3.org/2000/svg">
<path d="M101.911 27.5908H89.3064V20.1623H123.641V27.5908H111.055V59.6759H101.911V27.5908ZM133.993 33.2984C135.058 31.8156 136.516 30.6618 138.201 29.968C140.163 29.1846 142.26 28.7996 144.371 28.8351V36.9693C143.396 36.8951 142.736 36.8579 142.403 36.8579C139.886 36.8579 137.915 37.5719 136.492 38.9998C135.069 40.4277 134.355 42.5366 134.351 45.3264V59.6759H125.584V29.287H133.969L133.993 33.2984ZM178.668 29.287V59.6759H170.339V56.0606C169.19 57.3707 167.768 58.4123 166.175 59.1125C164.513 59.7977 162.733 60.1428 160.937 60.1278C156.963 60.1278 153.813 58.9784 151.485 56.6797C149.157 54.381 147.993 50.9742 147.993 46.4593V29.287H156.772V45.1902C156.772 50.0848 158.818 52.5321 162.911 52.5321C163.85 52.5725 164.788 52.4124 165.661 52.0624C166.534 51.7124 167.323 51.1804 167.976 50.5016C169.255 49.1109 169.893 47.0474 169.889 44.3112V29.287H178.668ZM195.326 60.1278C192.841 60.1305 190.365 59.827 187.954 59.224C185.926 58.7443 183.987 57.944 182.21 56.853L185.091 50.5264C186.615 51.4681 188.264 52.1892 189.99 52.6683C191.823 53.1878 193.718 53.4544 195.623 53.4607C199.324 53.4607 201.175 52.5383 201.175 50.6935C201.175 49.8269 200.669 49.2078 199.658 48.8364C198.137 48.3527 196.569 48.0311 194.981 47.8769C192.909 47.5864 190.86 47.1521 188.848 46.5769C187.239 46.0917 185.783 45.1958 184.622 43.9769C183.462 42.7388 182.882 40.9704 182.882 38.6717C182.852 36.8437 183.424 35.0569 184.511 33.5894C185.765 31.9876 187.443 30.7732 189.354 30.0856C191.77 29.211 194.326 28.7913 196.894 28.8475C199.035 28.8485 201.169 29.0956 203.255 29.5841C205.111 29.9301 206.9 30.5784 208.548 31.5032L205.642 37.7617C202.98 36.2541 199.969 35.475 196.912 35.5022C195.061 35.5022 193.63 35.7622 192.692 36.2946C192.286 36.462 191.936 36.7417 191.682 37.1013C191.429 37.4608 191.283 37.8852 191.261 38.325C191.257 38.7772 191.404 39.2177 191.679 39.5758C191.954 39.9339 192.341 40.1888 192.778 40.2998C194.356 40.8072 195.978 41.1678 197.622 41.3769C199.683 41.6879 201.721 42.1345 203.723 42.7141C205.301 43.1627 206.723 44.0412 207.832 45.2521C208.996 46.4902 209.578 48.2236 209.578 50.4521C209.61 52.2739 209.025 54.0526 207.919 55.4973C206.623 57.0816 204.915 58.2733 202.983 58.9392C200.52 59.7834 197.928 60.1857 195.326 60.1278ZM232.844 58.1902C231.876 58.8768 230.788 59.3745 229.636 59.6573C228.345 59.9655 227.021 60.1172 225.694 60.1092C222.091 60.1092 219.296 59.1868 217.309 57.3421C215.322 55.4973 214.346 52.7859 214.378 49.2078V36.7403H209.708V29.968H214.378V22.5394H223.164V29.968H230.703V36.7403H223.164V49.1212C223.095 50.2032 223.437 51.2713 224.12 52.1111C224.495 52.4644 224.938 52.7372 225.422 52.9129C225.906 53.0885 226.42 53.1633 226.934 53.1326C228.21 53.1693 229.461 52.7698 230.481 51.9997L232.844 58.1902ZM310.515 20.119L297.626 59.6759H287.829L279.191 32.9022L270.233 59.6759H260.472L247.516 20.1375H256.974L265.865 47.9264L275.168 20.1375H283.615L292.616 48.1493L301.797 20.1375L310.515 20.119ZM323.261 28.7856C327.95 28.7856 331.553 29.9143 334.071 32.1718C336.588 34.4292 337.844 37.8009 337.84 42.2869V59.6202H329.622V55.8935C327.977 58.7163 324.892 60.1278 320.368 60.1278C318.28 60.1754 316.207 59.77 314.291 58.9392C312.709 58.2434 311.36 57.1068 310.404 55.6645C309.514 54.2468 309.061 52.5973 309.102 50.9226C309.052 49.6385 309.313 48.3614 309.862 47.2004C310.411 46.0394 311.232 45.0289 312.255 44.2555C314.393 42.6336 317.684 41.8247 322.126 41.8288H329.104C329.104 39.9098 328.524 38.4365 327.364 37.4212C326.204 36.406 324.403 35.8427 322.058 35.8427C320.432 35.8439 318.818 36.1094 317.277 36.6289C315.849 37.0592 314.513 37.7496 313.334 38.6655L310.181 32.4751C311.984 31.2405 313.983 30.3236 316.092 29.7637C318.44 29.1308 320.861 28.8185 323.292 28.8351M322.613 54.2159C324.012 54.2415 325.393 53.8909 326.611 53.2007C327.768 52.4889 328.641 51.3942 329.079 50.1054V47.0102H323.058C319.455 47.0102 317.653 48.1967 317.653 50.5697C317.637 51.0927 317.747 51.6117 317.972 52.0835C318.198 52.5552 318.533 52.9659 318.949 53.2811C320.04 53.9728 321.318 54.308 322.607 54.2407M344.102 17.7666H352.907V59.6759H344.102V17.7666ZM359.342 17.7666H368.121V59.6759H359.342V17.7666ZM404.251 44.5712C404.251 44.6826 404.195 45.475 404.084 46.9421H381.17C381.537 48.7519 382.584 50.3503 384.094 51.4054C385.791 52.5407 387.8 53.1124 389.838 53.0397C391.256 53.0678 392.667 52.8392 394.003 52.365C395.283 51.8584 396.451 51.1032 397.439 50.1426L402.11 55.2249C399.26 58.5017 395.095 60.1401 389.616 60.1401C386.483 60.2009 383.379 59.5246 380.553 58.1654C378.044 56.919 375.935 54.988 374.47 52.594C373.026 50.1514 372.287 47.3547 372.335 44.5155C372.292 41.7037 373.011 38.9329 374.414 36.4989C375.799 34.1413 377.806 32.2132 380.214 30.9275C382.73 29.6099 385.523 28.912 388.362 28.8916C391.201 28.8711 394.003 29.5287 396.539 30.8099C398.918 32.0738 400.874 34.0112 402.165 36.3812C403.579 38.8748 404.299 41.7032 404.251 44.5712ZM388.543 35.5022C386.724 35.4434 384.945 36.0457 383.533 37.1984C382.159 38.3751 381.277 40.0287 381.065 41.8288H395.983C395.76 40.0479 394.88 38.4156 393.516 37.2541C392.142 36.0788 390.384 35.4548 388.58 35.5022M427.942 58.1902C426.974 58.8756 425.885 59.3732 424.734 59.6573C423.445 59.9652 422.123 60.1169 420.798 60.1092C417.191 60.1092 414.394 59.1868 412.407 57.3421C410.421 55.4973 409.444 52.7859 409.477 49.2078V36.7403H404.806V29.968H409.477V22.5394H418.262V29.968H425.802V36.7403H418.262V49.1212C418.194 50.2032 418.535 51.2713 419.219 52.1111C419.591 52.4602 420.03 52.7301 420.51 52.9046C420.989 53.079 421.498 53.1545 422.007 53.1264C423.291 53.1696 424.551 52.7721 425.579 51.9997L427.942 58.1902Z" fill="#02221F"/>
<path fill-rule="evenodd" clip-rule="evenodd" d="M61.5056 13.6188C62.3838 13.6221 63.225 13.9744 63.8448 14.5986C64.4646 15.2229 64.8126 16.0681 64.8126 16.9492V16.9926C64.6522 26.5073 64.2882 33.7872 63.5787 39.5505C62.8692 45.3138 61.9067 49.5976 60.3951 53.0643C59.4692 55.2073 58.2023 57.1852 56.6439 58.9204C54.6587 60.9763 52.3848 62.7302 49.8943 64.1266C48.8331 64.7456 47.7349 65.3956 46.575 66.0518C44.1071 67.457 41.3924 69.0046 38.3138 71.0722C37.7687 71.4467 37.1235 71.6471 36.4629 71.6471C35.8022 71.6471 35.157 71.4467 34.6119 71.0722C31.4839 68.9861 28.7384 67.4199 26.2458 66.0023L24.6787 65.0799C21.7605 63.3899 19.126 61.7742 16.8432 59.428C15.2344 57.7978 13.9194 55.9002 12.9563 53.8195C11.5249 50.8543 10.5501 47.2638 9.84062 42.6148C8.87815 36.3934 8.40308 28.2654 8.22416 16.9988C8.21466 16.5598 8.29273 16.1234 8.45378 15.7152C8.61483 15.3069 8.85561 14.9351 9.16196 14.6216C9.78466 13.9881 10.632 13.6275 11.5188 13.6188H12.8885C17.1085 13.6188 26.4124 13.2164 34.4824 6.92693C35.0645 6.47815 35.7781 6.23486 36.5122 6.23486C37.2463 6.23486 37.9599 6.47815 38.542 6.92693C46.5626 13.2164 55.9036 13.6374 60.136 13.6188M54.1082 50.9409C55.1385 48.8052 56.0023 45.8462 56.6501 41.6058C57.4336 36.5234 57.884 29.6273 58.1308 20.2426C53.1951 20.1002 44.6377 19.1407 36.5369 13.6436C28.4052 19.1221 19.8787 20.0754 14.943 20.2426C15.0725 27.9992 15.4242 34.0472 15.9795 38.7767C16.5964 44.1748 17.5219 47.8271 18.6509 50.4024C19.2744 51.8777 20.1399 53.2378 21.2114 54.4262C22.7623 56.0186 24.5374 57.3742 26.4803 58.4499C27.4242 59.0195 28.4669 59.6137 29.5651 60.2575C31.5826 61.4028 33.8839 62.7337 36.469 64.3556C38.9986 62.7399 41.2752 61.4399 43.2557 60.3009L45.0387 59.3104C47.8398 57.7009 49.9066 56.3576 51.449 54.7976C52.547 53.6699 53.4498 52.3665 54.1205 50.9409" fill="#02221F"/>
</svg>
