<svg width="48" height="48" viewBox="0 0 48 48" fill="none" xmlns="http://www.w3.org/2000/svg">
<g clip-path="url(#clip0_412_21286)">
<path fill-rule="evenodd" clip-rule="evenodd" d="M47.823 26.9294C46.3781 38.8025 36.2632 48 24 48C10.7452 48 0 37.2548 0 24C0 24.0001 0 23.9999 0 24C0 26.6488 0.429375 29.1966 1.22213 31.5804H8.4V11.3874L24 26.9874L39.5996 11.3874V31.5802H46.7775C47.2738 30.089 47.6276 28.5336 47.823 26.9294ZM23.9998 34.1604L13.6048 23.7658V36.4718H3.49219C7.70531 43.3836 15.3146 48 24 48C32.6854 48 40.2947 43.3836 44.5072 36.4718H34.3948V23.7656L23.9998 34.1604Z" fill="white"/>
<path d="M24 0C10.7452 0 9.98311e-05 10.7453 0 24C0 10.7471 10.7475 0 24 0C23.9999 0 24.0001 0 24 0Z" fill="white"/>
<path d="M23.9996 0C10.7471 0 0 10.7469 0 23.9998C0 26.6486 0.429375 29.1966 1.22213 31.5804H8.4V11.3874L24 26.9874L39.5996 11.3874V31.5802H46.7775C47.5708 29.1964 48.0002 26.6484 48.0002 23.9996C48 10.7464 37.2527 0 23.9996 0Z" fill="#FF6600"/>
<path d="M20.4129 30.5741L13.6048 23.7658V36.4718H3.49219C7.70531 43.3836 15.3143 47.9993 23.9996 47.9993C32.685 47.9993 40.2947 43.3836 44.5072 36.4718H34.3948V23.7656L27.5867 30.5737L23.9998 34.1604L20.4133 30.5739L20.4129 30.5741Z" fill="#4C4C4C"/>
</g>
<defs>
<clipPath id="clip0_412_21286">
<rect width="48" height="48" fill="white"/>
</clipPath>
</defs>
</svg>
