<svg width="48" height="48" viewBox="0 0 48 48" fill="none" xmlns="http://www.w3.org/2000/svg">
<g clip-path="url(#clip0_73_26661)">
<path d="M23.9996 0C10.7471 0 0 10.7469 0 23.9998C0 26.6486 0.429375 29.1966 1.22213 31.5804H8.4V11.3874L24 26.9874L39.5996 11.3874V31.5802H46.7775C47.5708 29.1964 48.0002 26.6484 48.0002 23.9996C48 10.7464 37.2527 0 23.9996 0Z" fill="#FF6600"/>
<path d="M20.4124 30.5741L13.6043 23.7658V36.4718H3.4917C7.70482 43.3836 15.3138 47.9993 23.9991 47.9993C32.6845 47.9993 40.2942 43.3836 44.5068 36.4718H34.3943V23.7656L27.5862 30.5737L23.9993 34.1604L20.4128 30.5739L20.4124 30.5741Z" fill="#4C4C4C"/>
</g>
<defs>
<clipPath id="clip0_73_26661">
<rect width="48" height="48" fill="white"/>
</clipPath>
</defs>
</svg>
