<svg width="25" height="25" viewBox="0 0 25 25" fill="none" xmlns="http://www.w3.org/2000/svg">
<path d="M24.5 12C24.5 18.6 19.1 23.9 12.5 23.9C10.4 23.9 8.40001 23.4 6.70001 22.4L0 24.5L2.20001 18.1C1.10001 16.3 0.5 14.2 0.5 11.9C0.5 5.29999 5.9 0 12.5 0C19.1 0 24.5 5.4 24.5 12ZM12.5 1.89999C6.9 1.89999 2.39999 6.39999 2.39999 11.9C2.39999 14.1 3.09999 16.1 4.29999 17.8L3 21.5L6.89999 20.3C8.49999 21.4 10.4 22 12.5 22C18.1 22 22.6 17.5 22.6 12C22.6 6.4 18.1 1.89999 12.5 1.89999ZM18.6 14.7C18.5 14.6 18.3 14.5 18 14.4C17.7 14.3 16.3 13.5 16 13.4C15.7 13.3 15.5 13.3 15.3 13.5C15.1 13.8 14.5 14.4 14.4 14.6C14.2 14.8 14.1 14.8 13.8 14.7C13.5 14.6 12.6 14.2 11.4 13.2C10.5 12.4 9.89999 11.5 9.79999 11.2C9.59999 10.9 9.79999 10.8 9.89999 10.6C9.99999 10.5 10.2 10.3 10.3 10.1C10.4 9.90001 10.5 9.80001 10.6 9.60001C10.7 9.40001 10.7 9.20001 10.6 9.10001C10.5 9.00001 9.90001 7.49999 9.70001 6.89999C9.50001 6.29999 9.2 6.39999 9 6.39999C8.8 6.39999 8.59999 6.39999 8.39999 6.39999C8.19999 6.39999 7.90001 6.49999 7.60001 6.79999C7.30001 7.09999 6.60001 7.80001 6.60001 9.20001C6.60001 10.6 7.69999 12 7.79999 12.2C7.89999 12.4 9.79999 15.5 12.8 16.6C15.8 17.8 15.8 17.4 16.3 17.3C16.8 17.2 18 16.6 18.3 15.9C18.6 15.4 18.6 14.8 18.6 14.7Z" fill="black"/>
</svg>
