<svg width="70" height="22" viewBox="0 0 70 22" fill="none" xmlns="http://www.w3.org/2000/svg">
<path fill-rule="evenodd" clip-rule="evenodd" d="M17.5007 21.832H11.4427L6.89987 4.76399C6.68425 3.97886 6.22642 3.28476 5.55298 2.95763C3.87232 2.13552 2.02034 1.48124 0 1.15126V0.494141H9.75906C11.106 0.494141 12.1161 1.48124 12.2845 2.62765L14.6415 14.9394L20.6967 0.494141H26.5864L17.5007 21.832ZM29.953 21.832H24.2317L28.9429 0.494141H34.6642L29.953 21.832ZM42.0667 6.40296C42.235 5.25378 43.2452 4.5967 44.4237 4.5967C46.2757 4.43172 48.2931 4.76169 49.9767 5.5809L50.9869 0.98704C49.3033 0.329961 47.4513 0 45.7706 0C40.2177 0 36.177 2.95543 36.177 7.05719C36.177 10.1776 39.0391 11.816 41.0595 12.8031C43.2452 13.7873 44.087 14.4444 43.9187 15.4285C43.9187 16.9048 42.235 17.5619 40.5544 17.5619C38.534 17.5619 36.5137 17.0698 34.6647 16.2478L33.6545 20.8445C35.6749 21.6637 37.8606 21.9936 39.8809 21.9936C46.1074 22.1558 49.9767 19.2032 49.9767 14.7715C49.9767 9.19057 42.0667 8.86345 42.0667 6.40296ZM69.9994 21.832L65.4566 0.494141H60.5771C59.5669 0.494141 58.5568 1.15126 58.22 2.13552L49.8079 21.832H55.6976L56.8731 18.7143H64.1097L64.7832 21.832H69.9994ZM61.4194 6.23438L63.1001 14.2773H58.3889L61.4194 6.23438Z" fill="#172B85"/>
</svg>
