<svg width="49" height="16" fill="none" xmlns="http://www.w3.org/2000/svg"><path fill-rule="evenodd" clip-rule="evenodd" d="M12.25 15.516H8.01L4.83 3.385c-.151-.558-.471-1.052-.943-1.284C2.711 1.516 1.414 1.05 0 .817V.35h6.831c.943 0 1.65.701 1.768 1.516l1.65 8.751L14.488.35h4.122l-6.36 15.166zm8.718 0h-4.006L20.26.35h4.005l-3.297 15.166zm8.479-10.965c.118-.816.825-1.284 1.65-1.284 1.296-.117 2.708.118 3.887.7L35.69.702A10.138 10.138 0 0032.039 0c-3.887 0-6.715 2.1-6.715 5.016 0 2.219 2.003 3.383 3.418 4.085 1.53.7 2.119 1.166 2.001 1.866 0 1.05-1.178 1.517-2.355 1.517-1.414 0-2.828-.35-4.123-.935l-.707 3.268c1.415.582 2.945.817 4.359.817 4.358.115 7.067-1.984 7.067-5.134 0-3.967-5.537-4.2-5.537-5.949zM49 15.516L45.82.35h-3.416c-.707 0-1.414.467-1.65 1.166l-5.888 14h4.123l.823-2.216h5.065l.472 2.216h3.65zM42.994 4.434l1.176 5.716h-3.298l2.122-5.716z" fill="#172B85"/></svg>