<svg width="86" height="108" viewBox="0 0 86 108" fill="none" xmlns="http://www.w3.org/2000/svg">
<path d="M26.2857 26.2222H59.7143M59.7143 81.7778V65.1111M43 81.7778H43.0557M26.2857 81.7778H26.3414M26.2857 65.1111H26.3414M43 65.1111H43.0557M59.7143 48.4444H59.77M43 48.4444H43.0557M26.2857 48.4444H26.3414M15.1429 104H70.8571C73.8124 104 76.6466 102.829 78.7363 100.746C80.826 98.6619 82 95.8357 82 92.8889V15.1111C82 12.1643 80.826 9.33811 78.7363 7.25437C76.6466 5.17063 73.8124 4 70.8571 4H15.1429C12.1876 4 9.35336 5.17063 7.26367 7.25437C5.17398 9.33811 4 12.1643 4 15.1111V92.8889C4 95.8357 5.17398 98.6619 7.26367 100.746C9.35336 102.829 12.1876 104 15.1429 104Z" stroke="white" stroke-width="8" stroke-linecap="round" stroke-linejoin="round"/>
</svg>
