<svg width="592" height="460" viewBox="0 0 592 460" fill="none" xmlns="http://www.w3.org/2000/svg">
<path d="M296 396.667C296 396.667 429.334 330 429.334 230V113.333L296 63.3333L162.667 113.333V230C162.667 330 296 396.667 296 396.667Z" fill="url(#paint0_radial_57_22319)" fill-opacity="0.6" stroke="#DEE3F4" stroke-width="4" stroke-linecap="round" stroke-linejoin="round"/>
<path d="M296 355C296 355 396 305 396 230V142.5L296 105L196 142.5V230C196 305 296 355 296 355Z" fill="url(#paint1_radial_57_22319)" fill-opacity="0.6" stroke="#DEE3F4" stroke-width="4" stroke-linecap="round" stroke-linejoin="round"/>
<path d="M296 313.333C296 313.333 362.666 280 362.666 230V171.667L296 146.667L229.333 171.667V230C229.333 280 296 313.333 296 313.333Z" fill="url(#paint2_radial_57_22319)" fill-opacity="0.6" stroke="#DEE3F4" stroke-width="4" stroke-linecap="round" stroke-linejoin="round"/>
<path d="M296 271.667C296 271.667 329.334 255 329.334 230V200.833L296 188.333L262.667 200.833V230C262.667 255 296 271.667 296 271.667Z" fill="#DEE3F4" stroke="#DEE3F4" stroke-linecap="round" stroke-linejoin="round"/>
<line x1="268.697" y1="205.518" x2="162.697" y2="114.518" stroke="#DEE3F4" stroke-width="4"/>
<line x1="325.691" y1="203.488" x2="429.691" y2="113.488" stroke="#DEE3F4" stroke-width="4"/>
<line x1="296" y1="204" x2="296" y2="63" stroke="#DEE3F4" stroke-width="4"/>
<line x1="296" y1="397" x2="296" y2="256" stroke="#DEE3F4" stroke-width="4"/>
<defs>
<radialGradient id="paint0_radial_57_22319" cx="0" cy="0" r="1" gradientUnits="userSpaceOnUse" gradientTransform="translate(296 230) rotate(90) scale(166.667 133.333)">
<stop stop-color="#DEE3F4" stop-opacity="0"/>
<stop offset="1" stop-color="#DEE3F4" stop-opacity="0.24"/>
</radialGradient>
<radialGradient id="paint1_radial_57_22319" cx="0" cy="0" r="1" gradientUnits="userSpaceOnUse" gradientTransform="translate(296 230) rotate(90) scale(125 100)">
<stop stop-color="#DEE3F4" stop-opacity="0"/>
<stop offset="1" stop-color="#DEE3F4" stop-opacity="0.24"/>
</radialGradient>
<radialGradient id="paint2_radial_57_22319" cx="0" cy="0" r="1" gradientUnits="userSpaceOnUse" gradientTransform="translate(296 230) rotate(90) scale(83.3333 66.6667)">
<stop stop-color="#DEE3F4" stop-opacity="0"/>
<stop offset="1" stop-color="#DEE3F4" stop-opacity="0.24"/>
</radialGradient>
</defs>
</svg>
