<svg width="592" height="460" viewBox="0 0 592 460" fill="none" xmlns="http://www.w3.org/2000/svg">
<rect x="47" y="132" width="499" height="194" rx="8" fill="white"/>
<path d="M275.233 176V162H285.653V176H283.453V164.06H277.453V176H275.233Z" fill="#191B1F"/>
<path d="M288.646 176V165.92H290.766V172.72L294.926 165.92H297.066V176H294.966V169.2L290.806 176H288.646Z" fill="#191B1F"/>
<path d="M299.955 176V165.92H302.075V169.72H306.135V165.92H308.235V176H306.135V171.54H302.075V176H299.955Z" fill="#191B1F"/>
<path d="M311.127 176V165.92H317.767V167.76H313.247V176H311.127Z" fill="#191B1F"/>
<path d="M74.4561 229L71.4961 217.8H73.3681L75.4321 226.44L77.6721 218.984H79.2241L81.4641 226.44L83.5281 217.8H85.4001L82.4401 229H80.6321L78.4401 221.864L76.2641 229H74.4561Z" fill="#191B1F"/>
<path d="M86.7221 229V220.936H88.4181V229H86.7221ZM86.7541 219.432C86.5408 219.208 86.4341 218.936 86.4341 218.616C86.4341 218.296 86.5408 218.029 86.7541 217.816C86.9674 217.592 87.2394 217.48 87.5701 217.48C87.9008 217.48 88.1728 217.592 88.3861 217.816C88.6101 218.029 88.7221 218.296 88.7221 218.616C88.7221 218.936 88.6101 219.208 88.3861 219.432C88.1728 219.645 87.9008 219.752 87.5701 219.752C87.2394 219.752 86.9674 219.645 86.7541 219.432Z" fill="#191B1F"/>
<path d="M90.6752 229V220.936H92.3712V222.28C92.9152 221.299 93.7099 220.808 94.7552 220.808C95.0646 220.808 95.4112 220.872 95.7952 221L95.4752 222.568C95.2086 222.408 94.8992 222.328 94.5472 222.328C93.8859 222.328 93.3579 222.648 92.9632 223.288C92.5686 223.917 92.3712 224.84 92.3712 226.056V229H90.6752Z" fill="#191B1F"/>
<path d="M103.793 224.712V225.416H98.049C98.1236 226.12 98.3476 226.669 98.721 227.064C99.0943 227.459 99.5796 227.656 100.177 227.656C100.657 227.656 101.062 227.549 101.393 227.336C101.724 227.112 102.022 226.755 102.289 226.264L103.681 226.808C103.329 227.597 102.86 228.184 102.273 228.568C101.697 228.941 100.972 229.128 100.097 229.128C98.913 229.128 97.985 228.723 97.313 227.912C96.6516 227.091 96.321 226.109 96.321 224.968C96.321 223.827 96.6516 222.851 97.313 222.04C97.985 221.219 98.913 220.808 100.097 220.808C101.249 220.808 102.15 221.192 102.801 221.96C103.462 222.728 103.793 223.645 103.793 224.712ZM98.129 224.04H102.065C101.969 223.496 101.75 223.069 101.409 222.76C101.078 222.44 100.641 222.28 100.097 222.28C99.6063 222.28 99.185 222.435 98.833 222.744C98.4916 223.043 98.257 223.475 98.129 224.04Z" fill="#191B1F"/>
<path d="M105.26 223.4C105.26 221.629 105.761 220.232 106.764 219.208C107.767 218.184 108.999 217.672 110.46 217.672C111.612 217.672 112.583 217.981 113.372 218.6C114.172 219.208 114.721 220.051 115.02 221.128L113.372 221.56C112.817 220.067 111.847 219.32 110.46 219.32C109.436 219.32 108.615 219.677 107.996 220.392C107.377 221.107 107.068 222.109 107.068 223.4C107.068 224.712 107.372 225.72 107.98 226.424C108.588 227.128 109.404 227.48 110.428 227.48C111.26 227.48 111.911 227.245 112.38 226.776C112.86 226.296 113.127 225.656 113.18 224.856H110.956V223.352H114.908V229H113.42L113.244 227.64C112.647 228.632 111.681 229.128 110.348 229.128C108.919 229.149 107.708 228.643 106.716 227.608C105.724 226.573 105.239 225.171 105.26 223.4Z" fill="#191B1F"/>
<path d="M117.128 226.632V220.936H118.824V226.168C118.824 227.16 119.256 227.656 120.12 227.656C120.718 227.656 121.214 227.347 121.608 226.728C122.003 226.109 122.2 225.283 122.2 224.248V220.936H123.88V229H122.2V227.592C121.528 228.616 120.664 229.128 119.608 229.128C118.851 229.128 118.248 228.909 117.8 228.472C117.352 228.035 117.128 227.421 117.128 226.632Z" fill="#191B1F"/>
<path d="M125.775 226.68C125.775 225.859 126.084 225.213 126.703 224.744C127.322 224.275 128.164 224.04 129.231 224.04H130.639V223.688C130.639 223.219 130.5 222.867 130.223 222.632C129.946 222.397 129.572 222.28 129.103 222.28C128.314 222.28 127.796 222.643 127.551 223.368L126.079 223.032C126.207 222.371 126.548 221.837 127.103 221.432C127.658 221.016 128.324 220.808 129.103 220.808C130.116 220.808 130.906 221.085 131.471 221.64C132.036 222.195 132.319 222.989 132.319 224.024V229H130.959L130.735 227.912C130.148 228.723 129.316 229.128 128.239 229.128C127.503 229.128 126.906 228.915 126.447 228.488C125.999 228.051 125.775 227.448 125.775 226.68ZM130.639 225.624V225.416H129.295C128.122 225.416 127.535 225.832 127.535 226.664C127.535 226.963 127.636 227.203 127.839 227.384C128.042 227.565 128.308 227.656 128.639 227.656C129.162 227.656 129.626 227.475 130.031 227.112C130.436 226.739 130.639 226.243 130.639 225.624Z" fill="#191B1F"/>
<path d="M134.41 229V220.936H136.106V222.28C136.65 221.299 137.444 220.808 138.49 220.808C138.799 220.808 139.146 220.872 139.53 221L139.21 222.568C138.943 222.408 138.634 222.328 138.282 222.328C137.62 222.328 137.092 222.648 136.698 223.288C136.303 223.917 136.106 224.84 136.106 226.056V229H134.41Z" fill="#191B1F"/>
<path d="M140.983 227.992C140.365 227.235 140.055 226.227 140.055 224.968C140.055 223.709 140.365 222.707 140.983 221.96C141.602 221.192 142.471 220.808 143.591 220.808C144.061 220.808 144.493 220.899 144.887 221.08C145.282 221.251 145.597 221.485 145.831 221.784V221.304V217.672H147.527V229H145.831V228.552V228.072C145.661 228.371 145.367 228.621 144.951 228.824C144.546 229.027 144.093 229.128 143.591 229.128C142.482 229.128 141.613 228.749 140.983 227.992ZM145.415 226.936C145.799 226.445 145.991 225.789 145.991 224.968C145.991 224.147 145.799 223.496 145.415 223.016C145.042 222.525 144.541 222.28 143.911 222.28C143.293 222.28 142.786 222.525 142.391 223.016C142.007 223.507 141.815 224.157 141.815 224.968C141.815 225.779 142.007 226.429 142.391 226.92C142.786 227.411 143.293 227.656 143.911 227.656C144.541 227.656 145.042 227.416 145.415 226.936Z" fill="#191B1F"/>
<path d="M80.1511 275.4C80.1297 273.629 80.6151 272.227 81.6071 271.192C82.6097 270.157 83.8471 269.651 85.3191 269.672C86.7911 269.651 88.0231 270.157 89.0151 271.192C90.0177 272.227 90.5084 273.629 90.4871 275.4C90.5084 277.171 90.0177 278.573 89.0151 279.608C88.0231 280.643 86.7911 281.149 85.3191 281.128C83.8471 281.149 82.6097 280.643 81.6071 279.608C80.6151 278.573 80.1297 277.171 80.1511 275.4ZM87.7351 278.424C88.3644 277.72 88.6791 276.712 88.6791 275.4C88.6791 274.088 88.3644 273.08 87.7351 272.376C87.1057 271.672 86.3004 271.32 85.3191 271.32C84.3377 271.32 83.5324 271.672 82.9031 272.376C82.2737 273.08 81.9591 274.088 81.9591 275.4C81.9591 276.712 82.2737 277.72 82.9031 278.424C83.5324 279.128 84.3377 279.48 85.3191 279.48C86.3004 279.48 87.1057 279.128 87.7351 278.424Z" fill="#191B1F"/>
<path d="M92.4101 284.264V272.936H94.1061V273.384V273.864C94.2767 273.576 94.5594 273.331 94.9541 273.128C95.3487 272.915 95.7754 272.808 96.2341 272.808C97.3967 272.808 98.2927 273.181 98.9221 273.928C99.5621 274.675 99.8821 275.688 99.8821 276.968C99.8821 278.248 99.5621 279.261 98.9221 280.008C98.2927 280.755 97.3967 281.128 96.2341 281.128C95.8181 281.128 95.4074 281.037 95.0021 280.856C94.6074 280.664 94.3087 280.424 94.1061 280.136V280.616V284.264H92.4101ZM97.5461 278.936C97.9301 278.445 98.1221 277.789 98.1221 276.968C98.1221 276.147 97.9301 275.496 97.5461 275.016C97.1621 274.525 96.6554 274.28 96.0261 274.28C95.4074 274.28 94.9061 274.525 94.5221 275.016C94.1381 275.496 93.9461 276.147 93.9461 276.968C93.9461 277.789 94.1381 278.445 94.5221 278.936C94.9061 279.416 95.4074 279.656 96.0261 279.656C96.6554 279.656 97.1621 279.416 97.5461 278.936Z" fill="#191B1F"/>
<path d="M108.762 276.712V277.416H103.018C103.093 278.12 103.317 278.669 103.69 279.064C104.064 279.459 104.549 279.656 105.146 279.656C105.626 279.656 106.032 279.549 106.362 279.336C106.693 279.112 106.992 278.755 107.258 278.264L108.65 278.808C108.298 279.597 107.829 280.184 107.242 280.568C106.666 280.941 105.941 281.128 105.066 281.128C103.882 281.128 102.954 280.723 102.282 279.912C101.621 279.091 101.29 278.109 101.29 276.968C101.29 275.827 101.621 274.851 102.282 274.04C102.954 273.219 103.882 272.808 105.066 272.808C106.218 272.808 107.12 273.192 107.77 273.96C108.432 274.728 108.762 275.645 108.762 276.712ZM103.098 276.04H107.034C106.938 275.496 106.72 275.069 106.378 274.76C106.048 274.44 105.61 274.28 105.066 274.28C104.576 274.28 104.154 274.435 103.802 274.744C103.461 275.043 103.226 275.475 103.098 276.04Z" fill="#191B1F"/>
<path d="M110.613 281V272.936H112.309V274.344C112.608 273.864 112.981 273.491 113.429 273.224C113.888 272.947 114.373 272.808 114.885 272.808C115.643 272.808 116.245 273.027 116.693 273.464C117.141 273.901 117.365 274.515 117.365 275.304V281H115.685V275.752C115.685 274.771 115.248 274.28 114.373 274.28C113.797 274.28 113.307 274.589 112.901 275.208C112.507 275.827 112.309 276.653 112.309 277.688V281H110.613Z" fill="#191B1F"/>
<path d="M122.508 281L118.7 269.8H120.636L123.404 278.504L126.188 269.8H128.124L124.316 281H122.508Z" fill="#191B1F"/>
<path d="M129.633 281V269.8H133.729C134.806 269.8 135.644 270.099 136.241 270.696C136.849 271.293 137.153 272.099 137.153 273.112C137.153 274.125 136.849 274.931 136.241 275.528C135.644 276.125 134.806 276.424 133.729 276.424H131.409V281H129.633ZM131.409 274.776H133.681C134.79 274.776 135.345 274.221 135.345 273.112C135.345 272.003 134.79 271.448 133.681 271.448H131.409V274.776Z" fill="#191B1F"/>
<path d="M139.07 281V269.8H140.974L145.518 277.832V269.8H147.294V281H145.39L140.846 272.984V281H139.07Z" fill="#191B1F"/>
<line x1="161.5" y1="206" x2="161.5" y2="294" stroke="#EBEBEB"/>
<line x1="191.5" y1="206" x2="191.5" y2="294" stroke="#EBEBEB"/>
<line x1="221.5" y1="206" x2="221.5" y2="294" stroke="#EBEBEB"/>
<line x1="251.5" y1="206" x2="251.5" y2="294" stroke="#EBEBEB"/>
<line x1="281.5" y1="206" x2="281.5" y2="294" stroke="#EBEBEB"/>
<line x1="311.5" y1="206" x2="311.5" y2="294" stroke="#EBEBEB"/>
<line x1="341.5" y1="206" x2="341.5" y2="294" stroke="#EBEBEB"/>
<line x1="371.5" y1="206" x2="371.5" y2="294" stroke="#EBEBEB"/>
<line x1="401.5" y1="206" x2="401.5" y2="294" stroke="#EBEBEB"/>
<line x1="431.5" y1="206" x2="431.5" y2="294" stroke="#EBEBEB"/>
<line x1="461.5" y1="206" x2="461.5" y2="294" stroke="#EBEBEB"/>
<line x1="491.5" y1="206" x2="491.5" y2="294" stroke="#EBEBEB"/>
<line x1="521.5" y1="206" x2="521.5" y2="294" stroke="#EBEBEB"/>
<path d="M161 206H253C254.105 206 255 206.895 255 208V240C255 241.105 254.105 242 253 242H161V206Z" fill="#4169F4"/>
<path d="M161 258H517C518.105 258 519 258.895 519 260V292C519 293.105 518.105 294 517 294H161V258Z" fill="#EBEFFF"/>
<path d="M177.068 227.624C176.364 226.611 176.012 225.203 176.012 223.4C176.012 221.597 176.364 220.195 177.068 219.192C177.772 218.179 178.769 217.672 180.06 217.672C181.35 217.672 182.348 218.179 183.052 219.192C183.756 220.195 184.108 221.597 184.108 223.4C184.108 225.203 183.756 226.611 183.052 227.624C182.348 228.627 181.35 229.128 180.06 229.128C178.769 229.128 177.772 228.627 177.068 227.624ZM181.804 226.488C182.209 225.763 182.412 224.733 182.412 223.4C182.412 222.067 182.209 221.043 181.804 220.328C181.409 219.603 180.828 219.24 180.06 219.24C179.292 219.24 178.705 219.603 178.3 220.328C177.905 221.043 177.708 222.067 177.708 223.4C177.708 224.733 177.905 225.763 178.3 226.488C178.705 227.203 179.292 227.56 180.06 227.56C180.828 227.56 181.409 227.203 181.804 226.488Z" fill="white"/>
<path d="M186.178 228.744C185.954 228.52 185.842 228.237 185.842 227.896C185.842 227.555 185.948 227.272 186.162 227.048C186.386 226.824 186.668 226.712 187.01 226.712C187.351 226.712 187.634 226.824 187.858 227.048C188.092 227.272 188.21 227.555 188.21 227.896C188.21 228.237 188.092 228.52 187.858 228.744C187.634 228.968 187.351 229.08 187.01 229.08C186.679 229.08 186.402 228.968 186.178 228.744Z" fill="white"/>
<path d="M194.622 229V226.776H189.774V225.976L194.494 217.8H196.334V225.208H197.662V226.776H196.334V229H194.622ZM191.902 225.208H194.622V220.312L191.902 225.208Z" fill="white"/>
<path d="M199.974 227.624C199.27 226.611 198.918 225.203 198.918 223.4C198.918 221.597 199.27 220.195 199.974 219.192C200.678 218.179 201.675 217.672 202.966 217.672C204.257 217.672 205.254 218.179 205.958 219.192C206.662 220.195 207.014 221.597 207.014 223.4C207.014 225.203 206.662 226.611 205.958 227.624C205.254 228.627 204.257 229.128 202.966 229.128C201.675 229.128 200.678 228.627 199.974 227.624ZM204.71 226.488C205.115 225.763 205.318 224.733 205.318 223.4C205.318 222.067 205.115 221.043 204.71 220.328C204.315 219.603 203.734 219.24 202.966 219.24C202.198 219.24 201.611 219.603 201.206 220.328C200.811 221.043 200.614 222.067 200.614 223.4C200.614 224.733 200.811 225.763 201.206 226.488C201.611 227.203 202.198 227.56 202.966 227.56C203.734 227.56 204.315 227.203 204.71 226.488Z" fill="white"/>
<path d="M208.384 225.912L210.032 225.688C210.288 226.936 210.954 227.56 212.032 227.56C212.65 227.56 213.136 227.373 213.488 227C213.85 226.616 214.032 226.099 214.032 225.448C214.032 224.755 213.856 224.221 213.504 223.848C213.152 223.464 212.666 223.272 212.048 223.272C211.696 223.272 211.37 223.357 211.072 223.528L210.368 222.552L212.704 219.368H208.912V217.8H215.168V218.376L212.416 222.072C212.65 222.051 212.794 222.04 212.848 222.04C213.701 222.04 214.394 222.355 214.928 222.984C215.472 223.603 215.744 224.419 215.744 225.432C215.744 226.541 215.397 227.437 214.704 228.12C214.021 228.792 213.13 229.128 212.032 229.128C211.04 229.128 210.208 228.835 209.536 228.248C208.864 227.651 208.48 226.872 208.384 225.912Z" fill="white"/>
<path d="M221.582 229V220.936H223.278V222.344C223.886 221.32 224.68 220.808 225.662 220.808C226.835 220.808 227.582 221.373 227.902 222.504C228.19 221.981 228.552 221.571 228.99 221.272C229.438 220.963 229.912 220.808 230.414 220.808C231.182 220.808 231.768 221.027 232.174 221.464C232.579 221.901 232.782 222.525 232.782 223.336V229H231.102V223.608C231.102 222.723 230.723 222.28 229.966 222.28C229.4 222.28 228.936 222.589 228.574 223.208C228.211 223.816 228.03 224.659 228.03 225.736V229H226.35V223.608C226.35 222.723 225.971 222.28 225.214 222.28C224.638 222.28 224.168 222.6 223.806 223.24C223.454 223.869 223.278 224.744 223.278 225.864V229H221.582Z" fill="white"/>
<path d="M234.413 226.936L235.773 226.216C236.103 227.176 236.685 227.656 237.517 227.656C237.837 227.656 238.093 227.571 238.285 227.4C238.487 227.229 238.589 226.989 238.589 226.68C238.589 226.413 238.455 226.184 238.189 225.992C237.922 225.8 237.49 225.587 236.893 225.352C236.231 225.107 235.741 224.803 235.421 224.44C235.101 224.077 234.941 223.603 234.941 223.016C234.941 222.387 235.175 221.864 235.645 221.448C236.114 221.021 236.701 220.808 237.405 220.808C238.525 220.808 239.335 221.24 239.837 222.104L238.797 223.048C238.455 222.536 237.997 222.28 237.421 222.28C237.165 222.28 236.951 222.355 236.781 222.504C236.61 222.643 236.525 222.824 236.525 223.048C236.525 223.283 236.642 223.491 236.877 223.672C237.122 223.853 237.57 224.067 238.221 224.312C239.533 224.771 240.189 225.528 240.189 226.584C240.189 227.352 239.943 227.971 239.453 228.44C238.962 228.899 238.317 229.128 237.517 229.128C236.717 229.128 236.045 228.925 235.501 228.52C234.957 228.104 234.594 227.576 234.413 226.936Z" fill="white"/>
<path d="M314.034 281V272.248L311.986 273.496V271.64L315.058 269.8H315.746V281H314.034Z" fill="#4169F4"/>
<path d="M318.326 280.744C318.102 280.52 317.99 280.237 317.99 279.896C317.99 279.555 318.096 279.272 318.31 279.048C318.534 278.824 318.816 278.712 319.158 278.712C319.499 278.712 319.782 278.824 320.006 279.048C320.24 279.272 320.358 279.555 320.358 279.896C320.358 280.237 320.24 280.52 320.006 280.744C319.782 280.968 319.499 281.08 319.158 281.08C318.827 281.08 318.55 280.968 318.326 280.744Z" fill="#4169F4"/>
<path d="M321.938 278.072L323.554 277.768C323.756 278.963 324.386 279.56 325.442 279.56C326.05 279.56 326.514 279.363 326.834 278.968C327.154 278.573 327.314 278.019 327.314 277.304C327.314 276.589 327.148 276.04 326.818 275.656C326.487 275.272 326.018 275.08 325.41 275.08C324.578 275.08 323.868 275.469 323.282 276.248L322.178 276.024L322.786 269.8H328.386V271.368H324.21L323.922 274.104C324.412 273.752 324.999 273.576 325.682 273.576C326.748 273.576 327.575 273.907 328.162 274.568C328.748 275.229 329.042 276.141 329.042 277.304C329.042 278.435 328.711 279.357 328.05 280.072C327.388 280.776 326.519 281.128 325.442 281.128C324.482 281.128 323.682 280.856 323.042 280.312C322.412 279.757 322.044 279.011 321.938 278.072Z" fill="#4169F4"/>
<path d="M335.082 281V278.776H330.234V277.976L334.954 269.8H336.794V277.208H338.122V278.776H336.794V281H335.082ZM332.362 277.208H335.082V272.312L332.362 277.208Z" fill="#4169F4"/>
<path d="M341.362 281V272.248L339.314 273.496V271.64L342.386 269.8H343.074V281H341.362Z" fill="#4169F4"/>
<path d="M349.542 281V272.936H351.238V274.344C351.846 273.32 352.641 272.808 353.622 272.808C354.796 272.808 355.542 273.373 355.862 274.504C356.15 273.981 356.513 273.571 356.95 273.272C357.398 272.963 357.873 272.808 358.374 272.808C359.142 272.808 359.729 273.027 360.134 273.464C360.54 273.901 360.742 274.525 360.742 275.336V281H359.062V275.608C359.062 274.723 358.684 274.28 357.926 274.28C357.361 274.28 356.897 274.589 356.534 275.208C356.172 275.816 355.99 276.659 355.99 277.736V281H354.31V275.608C354.31 274.723 353.932 274.28 353.174 274.28C352.598 274.28 352.129 274.6 351.766 275.24C351.414 275.869 351.238 276.744 351.238 277.864V281H349.542Z" fill="#4169F4"/>
<path d="M362.373 278.936L363.733 278.216C364.064 279.176 364.645 279.656 365.477 279.656C365.797 279.656 366.053 279.571 366.245 279.4C366.448 279.229 366.549 278.989 366.549 278.68C366.549 278.413 366.416 278.184 366.149 277.992C365.883 277.8 365.451 277.587 364.853 277.352C364.192 277.107 363.701 276.803 363.381 276.44C363.061 276.077 362.901 275.603 362.901 275.016C362.901 274.387 363.136 273.864 363.605 273.448C364.075 273.021 364.661 272.808 365.365 272.808C366.485 272.808 367.296 273.24 367.797 274.104L366.757 275.048C366.416 274.536 365.957 274.28 365.381 274.28C365.125 274.28 364.912 274.355 364.741 274.504C364.571 274.643 364.485 274.824 364.485 275.048C364.485 275.283 364.603 275.491 364.837 275.672C365.083 275.853 365.531 276.067 366.181 276.312C367.493 276.771 368.149 277.528 368.149 278.584C368.149 279.352 367.904 279.971 367.413 280.44C366.923 280.899 366.277 281.128 365.477 281.128C364.677 281.128 364.005 280.925 363.461 280.52C362.917 280.104 362.555 279.576 362.373 278.936Z" fill="#4169F4"/>
</svg>
