<svg width="592" height="461" viewBox="0 0 592 461" fill="none" xmlns="http://www.w3.org/2000/svg">
<g clip-path="url(#clip0_118_23723)">
<rect width="592" height="461" rx="10" fill="#4169F4"/>
<path d="M295.394 324.185L295.961 325.886L297.943 325.035L299.641 327.445L301.482 328.437L302.331 331.697L301.623 334.816L303.039 338.643L306.295 340.769L306.437 343.179L304.03 344.454L303.889 347.431L300.774 351.825L299.5 351.258L299.217 349.274L294.828 346.155L293.837 341.903L293.979 335.666L294.687 332.973L293.412 331.555L292.705 328.579L295.394 324.185Z" fill="#ECECEC" stroke="black" stroke-width="0.467222" stroke-linecap="round" stroke-linejoin="round"/>
<path d="M497.557 359.622L495.008 359.905L491.044 354.661L490.761 353.243H487.505L484.815 350.833L483.4 350.975L480.002 348.424L474.056 346.156L473.915 341.762L472.074 338.643L481.984 337.226L483.966 339.494L487.08 341.053L486.089 343.321L490.62 346.439L489.062 349.416L492.743 351.826L496.282 353.243L497.557 359.622Z" fill="#ECECEC" stroke="black" stroke-width="0.467222" stroke-linecap="round" stroke-linejoin="round"/>
<path d="M270.763 271.455L270.338 272.589L271.329 275.565L271.046 279.251H267.082L268.639 281.235L266.799 286.905L265.525 288.464L259.296 288.606L255.898 290.732L249.952 290.024L239.618 287.614L237.777 284.637L230.84 286.196L230.133 287.897L225.744 286.622L222.063 286.338L218.807 284.637L219.798 282.511L219.515 280.952L221.497 280.526L225.319 282.936L226.169 280.526L232.398 280.952L237.353 279.393L240.75 279.676L243.157 281.519L243.723 279.96L242.307 274.148L244.714 273.014L246.979 268.903L252.359 271.88L256.04 268.194L258.446 267.486L264.109 270.179L267.365 269.754L270.763 271.455Z" fill="#ECECEC" stroke="black" stroke-width="0.467222" stroke-linecap="round" stroke-linejoin="round"/>
<path d="M495.007 359.905L489.628 358.63L485.098 354.519L483.399 350.975L484.815 350.833L487.504 353.243H490.76L491.043 354.661L495.007 359.905Z" fill="#ECECEC" stroke="black" stroke-width="0.467222" stroke-linecap="round" stroke-linejoin="round"/>
<path d="M503.923 335.808L507.462 332.123L512.417 336.8L517.514 343.321L521.053 343.746L523.743 346.156L517.797 346.864L517.938 353.952L517.372 357.07L514.965 359.196L516.098 363.59L514.257 364.158L508.736 359.338L510.435 354.944L507.745 352.251L505.056 352.959L497.552 359.622L496.278 353.243L492.739 351.825L489.058 349.416L490.616 346.439L486.085 343.321L487.076 341.053L483.962 339.493L481.98 337.225L483.537 335.666L489.483 338.359L493.589 338.785L494.438 337.792L489.766 332.831L491.465 331.697L493.589 331.981L499.676 337.367L503.074 338.076L503.923 335.808Z" fill="#ECECEC" stroke="black" stroke-width="0.467222" stroke-linecap="round" stroke-linejoin="round"/>
<path d="M194.172 252.035L193.605 257.988L191.765 258.272L191.199 263.233L184.97 259.122L181.43 259.831L176.476 255.721L173.078 252.177L169.963 252.035L168.831 248.917L174.352 247.216L179.448 247.924L185.819 246.082L190.208 249.909L194.172 252.035Z" fill="#ECECEC" stroke="black" stroke-width="0.467222" stroke-linecap="round" stroke-linejoin="round"/>
<path d="M358.538 315.113L355.282 318.799L353.442 325.177L356.414 330.28L349.902 329.146L342.824 331.981L343.249 336.517L336.736 337.368L331.215 334.107L325.553 336.659L320.173 336.375L319.04 330.422L315.077 327.445L316.067 326.311L315.218 325.177L316.067 322.342L318.616 319.507L314.652 315.68L313.661 312.278L315.218 310.294L317.766 313.979L320.456 313.412L326.119 314.688L336.878 315.255L340.134 312.987L348.487 310.861L354.149 314.121L358.538 315.113Z" fill="#ECECEC" stroke="black" stroke-width="0.467222" stroke-linecap="round" stroke-linejoin="round"/>
<path d="M288.318 304.765L291.007 304.623L289.45 308.592L293.272 312.136L292.565 316.247L291.007 316.672L289.733 317.522L287.468 319.649L286.902 324.61L280.106 321.208L277.134 317.381L274.161 315.396L270.621 311.994L268.781 309.301L264.959 305.049L266.091 301.363L268.923 303.489L270.338 301.505L273.594 301.363L279.965 302.922L284.92 302.781L288.318 304.765Z" fill="#ECECEC" stroke="black" stroke-width="0.467222" stroke-linecap="round" stroke-linejoin="round"/>
<path d="M425.232 222.939L419.711 222.655L418.579 223.506L420.702 226.34L423.533 232.01L417.729 232.436L415.889 234.42L416.313 238.814L413.34 237.964L407.253 238.389L405.13 236.263L402.723 237.822L400.033 236.546L394.512 236.405L386.442 234.278L379.506 233.57L374.126 233.853L370.728 236.121L367.472 236.546L366.765 232.577L364.075 228.608L368.039 226.766L367.472 223.364L365.066 220.104L364.216 216.276H370.87L377.665 213.016L378.373 208.197L383.47 205.362L382.054 201.535L385.876 200.117L392.388 196.857L399.891 198.983L401.166 201.109L404.563 200.117L411.359 202.102L412.916 206.212L411.925 208.48L417.304 214.15L420.277 215.709V217.269L425.091 218.828L427.497 221.096L425.232 222.939Z" fill="#ECECEC" stroke="black" stroke-width="0.467222" stroke-linecap="round" stroke-linejoin="round"/>
<path d="M219.513 280.952L219.796 282.511L218.805 284.637L222.061 286.338L225.742 286.622L225.317 290.165L222.345 291.724L216.965 290.59L215.549 294.134L212.152 294.418L210.878 293L207.055 296.119L203.516 296.544L200.401 294.559L197.853 290.732L194.456 292.15V288.039L199.552 283.078L199.269 280.81L202.525 281.66L204.365 280.101H210.311L211.727 278.258L219.513 280.952Z" fill="#ECECEC" stroke="black" stroke-width="0.467222" stroke-linecap="round" stroke-linejoin="round"/>
<path d="M255.334 249.342L258.873 252.177L264.111 252.886L263.828 255.295L267.792 257.138L268.641 254.87L273.455 255.862L274.446 258.697L279.684 259.123L283.365 263.517H281.241L280.25 265.076L278.693 265.501L278.41 267.486L277.135 267.911L276.994 268.761L274.729 269.612L271.614 269.47L270.765 271.455L267.367 269.754L264.111 270.179L258.449 267.486L256.042 268.194L252.361 271.88L246.982 268.903L242.734 265.218L239.054 263.091L238.063 259.264L236.647 256.713L241.46 254.87L243.867 252.602L248.822 250.901L250.379 249.2L252.219 250.192L255.334 249.342Z" fill="#ECECEC" stroke="black" stroke-width="0.467222" stroke-linecap="round" stroke-linejoin="round"/>
<path d="M247.116 226.237L249.098 230.631L247.399 233.041L250.089 236.017L252.212 240.695L251.929 243.813L255.326 249.342L252.212 250.192L250.372 249.2L248.814 250.901L243.859 252.602L241.453 254.87L236.64 256.713L238.055 259.264L239.046 263.091L242.727 265.217L246.974 268.903L244.709 273.013L242.302 274.147L243.718 279.959L243.152 281.518L240.745 279.676L237.347 279.392L232.392 280.951L226.163 280.526L225.314 282.936L221.492 280.526L219.51 280.951L211.724 278.258L210.308 280.101H204.362L204.928 273.722L208.326 267.769L198.133 266.068L194.735 263.8L195.018 259.973L193.603 257.988L194.169 252.035L192.612 242.821H196.717L198.416 239.561L199.69 231.623L198.416 228.646L199.549 226.804L205.211 226.379L206.627 228.221L211.016 223.969L209.175 220.709L208.609 215.889L213.847 217.023L217.953 215.747L218.377 219.008L225.314 220.992L225.456 224.111L232.109 222.41L235.79 220.142L243.718 223.544L247.116 226.237Z" fill="#ECECEC" stroke="black" stroke-width="0.467222" stroke-linecap="round" stroke-linejoin="round"/>
<path d="M236.078 210.361L232.681 217.307L225.319 212.346L224.045 208.802L233.672 205.967L236.078 210.361Z" fill="#ECECEC" stroke="black" stroke-width="0.467222" stroke-linecap="round" stroke-linejoin="round"/>
<path d="M217.956 215.748L213.851 217.023L208.612 215.889L205.64 211.07L205.073 202.423L205.923 200.014L207.763 197.462L213.426 197.037L215.691 194.627L220.787 192.218V196.612L219.089 199.447L220.08 201.715L223.76 202.99L222.345 206.251L220.363 205.4L215.974 211.495L217.956 215.748Z" fill="#ECECEC" stroke="black" stroke-width="0.467222" stroke-linecap="round" stroke-linejoin="round"/>
<path d="M214.701 376.064L213.285 380.742L214.701 389.389L213.144 396.901L208.613 402.004L209.463 408.808L215.833 414.336L215.975 416.462L220.788 420.148L224.469 436.449L227.159 444.528L227.725 448.781L226.593 456.152L227.159 460.404L226.309 465.365L227.159 471.035L224.044 474.862L228.858 481.525L229.141 485.352L232.114 490.455L235.653 488.754L242.024 493.006L245.563 498.676L218.948 516.111L196.297 533.971L185.255 537.94L176.477 538.932L176.336 533.121L172.655 531.562L167.7 529.01L165.86 524.758L139.386 504.913L113.055 485.068L84.0332 462.956L84.1747 461.255L84.3164 460.688L84.4579 449.915L97.0575 443.111L104.702 441.694L111.073 439.284L114.046 434.748L123.106 431.204L123.531 424.4L127.919 423.55L131.459 420.29L141.51 418.73L142.926 415.187L140.944 413.202L138.254 403.563L137.829 398.035L135.139 392.224L142.359 387.262L150.57 385.703L155.242 382.018L162.462 379.183L175.203 377.624L187.661 376.915L191.484 378.191L198.42 374.647L206.49 374.505L209.604 376.631L214.701 376.064Z" fill="#ECECEC" stroke="black" stroke-width="0.467222" stroke-linecap="round" stroke-linejoin="round"/>
<path d="M414.451 428.228L419.973 441.552L420.963 443.82L419.123 447.505L418.132 454.309L416.433 459.129L414.735 460.688L411.903 457.711L408.081 453.742L401.427 440.701L400.719 441.552L404.683 451.049L410.204 460.263L417.141 474.437L420.397 479.399L423.229 484.501L430.873 494.566L429.458 496.125L430.024 502.078L439.651 510.3L441.208 512.142H409.921H379.484H347.914L346.499 478.548L344.658 446.23L341.827 438.859L343.384 433.331L341.968 429.362L344.375 424.967L354.568 424.826L362.213 427.235L369.999 429.929L373.68 431.346L379.343 428.511L382.315 425.96L388.969 425.109L394.49 426.243L397.039 430.779L398.596 427.802L404.825 429.929L410.912 430.496L414.451 428.228Z" fill="#ECECEC" stroke="black" stroke-width="0.467222" stroke-linecap="round" stroke-linejoin="round"/>
<path d="M331.782 177.617L333.057 179.035L329.376 183.854L332.774 191.792L330.508 194.485L325.129 194.344L318.9 191.225L315.927 190.233L310.547 191.651L310.406 186.689L308.282 187.823L303.611 184.847L302.195 180.027L309.981 177.617L317.909 176.484L325.129 177.759L331.782 177.617Z" fill="#ECECEC" stroke="black" stroke-width="0.467222" stroke-linecap="round" stroke-linejoin="round"/>
<path d="M318.191 100.365L318.757 105.751L329.092 110.996L324.986 116.95L334.188 125.88L331.781 132.684L338.718 138.637L337.444 144.023L347.92 149.552L346.646 153.662L341.833 158.482L330.507 168.971L319.182 169.68L308.422 172.656L298.371 174.499L293.841 169.963L287.187 167.27L287.329 159.049L283.082 151.678L285.347 146.858L290.019 141.897L302.477 133.109L306.157 131.408L304.883 128.006L295.681 124.32L293.133 121.202L290.585 109.153L280.392 103.909L271.898 100.082L275.012 98.0971L282.232 102.066L289.736 101.783L296.389 103.625L301.203 100.223L302.76 94.5534L311.112 92.002L319.323 94.9787L318.191 100.365Z" fill="#ECECEC" stroke="black" stroke-width="0.467222" stroke-linecap="round" stroke-linejoin="round"/>
<path d="M109.515 225.245L104.56 223.544L100.313 223.686L102.012 219.008L100.738 214.472L106.4 214.047L113.337 219.433L109.515 225.245Z" fill="#ECECEC" stroke="black" stroke-width="0.467222" stroke-linecap="round" stroke-linejoin="round"/>
<path d="M132.029 184.563L124.809 193.777L131.462 192.643H138.682L136.842 199.588L130.755 207.243L137.691 207.668L138.116 208.66L144.062 218.724L148.592 220.142L152.698 230.064L154.68 233.466L163.032 235.025L162.183 240.695L158.785 243.247L161.475 247.783L155.246 252.319L146.044 252.177L134.152 254.728L131.038 252.886L126.366 256.996L119.995 256.004L114.899 259.406L111.36 257.705L121.694 248.491L127.923 246.507L117.164 245.09L115.324 241.546L122.544 238.853L119.004 234.175L120.42 228.505L130.471 229.356L131.604 224.253L127.215 219.008L127.074 218.866L119.004 217.307L117.447 215.039L119.995 211.212L117.872 208.802L114.191 212.913L114.05 204.55L110.935 200.297L113.625 191.509L119.004 184.705L124.101 185.272L132.029 184.563Z" fill="#ECECEC" stroke="black" stroke-width="0.467222" stroke-linecap="round" stroke-linejoin="round"/>
<path d="M476.179 324.043L483.399 325.886L486.372 329.571L491.468 331.698L489.769 332.832L494.441 337.793L493.592 338.785L489.486 338.36L483.54 335.666L481.983 337.226L472.073 338.643L464.145 334.107L456.359 334.533L456.784 330.705L453.811 324.61L448.998 321.208L444.751 320.216L441.636 317.523L442.202 316.389L448.715 317.948L459.615 319.366L470.374 323.76L472.073 325.461L476.179 324.043Z" fill="#ECECEC" stroke="black" stroke-width="0.467222" stroke-linecap="round" stroke-linejoin="round"/>
<path d="M330.361 387.404L334.75 390.523L340.554 389.956L346.217 390.523V392.224L350.181 391.09L349.473 393.783L338.714 394.492L338.572 393.074L329.229 391.231L330.361 387.404Z" fill="#ECECEC" stroke="black" stroke-width="0.467222" stroke-linecap="round" stroke-linejoin="round"/>
<path d="M343.388 341.053L338.858 340.769L335.035 339.919L326.258 342.187L331.921 347.29L328.382 348.849H324.276L319.888 344.171L318.613 346.156L320.879 351.542L324.984 355.794L322.294 357.779L326.824 361.89L330.788 364.583L331.355 369.686L324.276 367.276L326.824 371.954L322.153 372.804L325.692 380.884L320.737 381.026L314.225 377.057L310.827 369.827L308.987 363.732L305.731 359.622L301.484 354.377L300.776 351.826L303.89 347.431L304.032 344.455L306.439 343.179L306.297 340.769L311.11 340.06L313.659 338.076L317.622 338.218L318.755 336.659L320.171 336.375L325.55 336.659L331.213 334.107L336.734 337.367L343.246 336.517L342.822 331.981L346.644 334.391L345.087 340.06L343.388 341.053Z" fill="#ECECEC" stroke="black" stroke-width="0.467222" stroke-linecap="round" stroke-linejoin="round"/>
<path d="M286.194 295.268L288.317 298.812L290.724 301.363L288.317 304.765L284.919 302.781L279.965 302.923L273.594 301.363L270.338 301.505L268.922 303.49L266.091 301.363L264.958 305.049L268.781 309.301L270.621 311.994L274.16 315.396L277.133 317.381L280.106 321.208L286.901 324.61L286.194 326.027L279.115 322.767L274.585 319.507L267.79 316.814L261.136 310.293L262.552 309.585L259.013 305.758L258.588 302.781L253.916 301.363L251.934 305.191L249.669 302.214V299.095L249.811 298.954L254.907 299.237L256.04 297.82L258.588 299.237L261.419 299.379L261.278 296.969L263.684 295.977L264.109 292.433L269.63 290.024L271.895 291.158L277.558 294.985L283.645 296.686L286.194 295.268Z" fill="#ECECEC" stroke="black" stroke-width="0.467222" stroke-linecap="round" stroke-linejoin="round"/>
<path d="M306.998 273.014L311.245 275.423L311.953 277.833L307.848 279.676L305.158 285.629L301.477 291.724L295.956 293.425L291.426 293L286.188 295.268L283.639 296.686L277.552 294.985L271.889 291.157L269.624 290.023L267.925 287.047L266.793 286.905L268.633 281.235L267.076 279.251H271.04L271.323 275.565L275.145 277.975L277.835 278.825L283.639 277.833L284.064 275.99L286.754 275.707L290.01 274.431L290.86 274.998L294.116 273.864L295.531 271.738L297.796 271.171L305.583 273.864L306.998 273.014Z" fill="#ECECEC" stroke="black" stroke-width="0.467222" stroke-linecap="round" stroke-linejoin="round"/>
<path d="M109.516 225.245L110.507 231.482L104.986 239.278L92.5282 244.381L82.9016 243.105L88.989 234.033L86.016 225.245L95.5011 218.441L100.739 214.472L102.013 219.008L100.315 223.686L104.562 223.544L109.516 225.245Z" fill="#ECECEC" stroke="black" stroke-width="0.467222" stroke-linecap="round" stroke-linejoin="round"/>
<path d="M495.007 359.905L497.555 359.622L505.058 352.96L507.748 352.251L510.438 354.944L508.739 359.338L514.26 364.158L516.101 363.591L519.64 370.395L527.143 372.237L533.23 376.773L544.131 378.332L555.457 375.923L555.74 373.796L561.969 372.095L566.216 366.851L571.312 367.134L574.144 365.433L579.665 366.284L589.008 370.962L595.096 371.954L605.43 379.892L611.093 380.317L613.5 387.83L612.65 399.169L611.942 405.831L615.482 407.249L613.217 412.21L617.039 419.439L618.738 425.251L624.825 426.81L626.382 432.622L620.861 440.843L625.391 445.663L629.355 451.191L637.425 455.16L638.84 463.098L642.663 464.657L643.937 468.767L633.319 473.587L631.762 484.076L616.756 481.383L607.979 479.257L599.06 478.123L594.388 466.925L590.424 465.366L584.62 466.925L577.4 471.319L567.49 468.342L558.854 461.255L551.068 458.703L544.839 450.057L537.477 438.008L533.513 439.426L528.275 436.449L525.869 439.993L520.914 435.173L520.206 430.354H517.799L518.083 423.692L513.128 416.888L503.076 411.785L496.564 403.138L497.272 396.051L500.528 392.932L499.254 387.688L493.874 384.853L487.221 374.08L481.841 366.851L482.832 364.016L478.727 353.668L483.398 350.975L485.097 354.519L489.627 358.629L495.007 359.905Z" fill="#ECECEC" stroke="black" stroke-width="0.467222" stroke-linecap="round" stroke-linejoin="round"/>
<path d="M487.221 374.08L493.875 384.853L499.255 387.688L500.529 392.932L497.273 396.051L496.565 403.138L503.077 411.785L513.129 416.888L518.083 423.692L517.8 430.354H520.207L520.915 435.173L525.87 439.993L521.198 439.567L515.96 438.717L511.288 447.505L496.848 446.797L473.065 428.511L460.89 422.132L451.263 419.581L446.875 408.525L462.447 399.028L463.863 388.113L462.164 381.451L465.986 379.183L468.959 373.513L471.932 372.095L480.851 373.371L483.824 375.639L487.221 374.08Z" fill="#ECECEC" stroke="black" stroke-width="0.467222" stroke-linecap="round" stroke-linejoin="round"/>
<path d="M64.3613 120.777L62.3794 125.88L68.6083 131.266L59.9727 137.361L41.4272 142.889L35.9061 144.449L27.9782 143.173L11.1316 140.622L17.9269 137.078L5.18575 133.251L16.3697 131.691L16.5112 129.282L4.05322 127.439L9.14965 122.194L18.4932 121.06L26.9873 126.447L36.8971 122.194L44.117 124.321L54.4515 120.21L64.3613 120.777Z" fill="#ECECEC" stroke="black" stroke-width="0.467222" stroke-linecap="round" stroke-linejoin="round"/>
<path d="M424.366 409.517L424.933 413.202L424.083 414.619H424.225L423.234 417.454L420.261 416.32L419.27 422.274L421.393 423.266L419.553 424.542L419.411 426.952L422.951 425.818L423.517 429.361L420.969 443.82L419.978 441.552L414.457 428.227L416.439 425.251L415.872 424.684L417.429 420.431L418.279 413.627L419.128 411.218H419.27H421.818L422.384 409.658L424.366 409.517Z" fill="#ECECEC" stroke="black" stroke-width="0.467222" stroke-linecap="round" stroke-linejoin="round"/>
<path d="M267.365 364.441L264.958 371.67L266.233 374.364L264.958 379.041L259.013 375.639L255.19 374.647L244.573 370.111L245.28 365.433L254.058 366.284L261.702 365.292L267.365 364.441Z" fill="#ECECEC" stroke="black" stroke-width="0.467222" stroke-linecap="round" stroke-linejoin="round"/>
<path d="M219.229 337.509L223.9 343.887L223.334 355.936L219.936 355.369L216.963 358.346L214.132 355.936L213.424 345.021L211.584 339.919L215.689 340.344L219.229 337.509Z" fill="#ECECEC" stroke="black" stroke-width="0.467222" stroke-linecap="round" stroke-linejoin="round"/>
<path d="M249.955 290.024L249.388 294.418L251.37 298.245L245.566 296.828L240.045 300.088L240.611 304.482L239.903 307.034L242.593 311.57L249.671 316.105L253.777 323.618L262.413 330.847L268.075 330.705L270.057 332.69L268.075 334.533L274.871 337.793L280.533 340.486L287.187 345.305L288.037 346.865L286.904 350.125L282.515 345.872L276.003 344.455L273.313 350.267L278.835 353.669L278.268 358.346L275.295 358.913L271.756 366.709L268.642 367.418L268.5 364.583L269.774 359.764L271.331 357.779L268.075 352.535L265.527 347.999L262.413 346.865L259.864 343.037L255.051 341.337L251.653 337.651L246.274 337.084L240.186 333.115L233.25 327.162L228.012 322.059L225.322 313.129L221.641 312.136L215.695 309.16L212.439 310.294L208.334 314.546L205.361 315.113L206.068 311.286L202.104 310.152L199.981 303.206L202.388 300.513L200.264 297.111L200.406 294.56L203.52 296.544L207.059 296.119L210.882 293.001L212.156 294.418L215.553 294.135L216.969 290.591L222.349 291.725L225.322 290.166L225.746 286.622L230.135 287.898L230.843 286.197L237.78 284.637L239.62 287.614L249.955 290.024Z" fill="#ECECEC" stroke="black" stroke-width="0.467222" stroke-linecap="round" stroke-linejoin="round"/>
<path d="M451.258 419.581L449.984 420.998L435.261 425.534L443.755 434.748L441.49 436.165L440.499 439.284L434.695 440.559L433.137 443.82L430.164 446.655L421.387 445.095L420.962 443.82L423.511 429.361L422.944 425.818L423.794 423.124L423.228 417.455L424.219 414.62L433.137 418.305L446.869 408.524L451.258 419.581Z" fill="#ECECEC" stroke="black" stroke-width="0.467222" stroke-linecap="round" stroke-linejoin="round"/>
<path d="M649.741 228.505L655.97 228.08L668.994 219.858L667.862 222.693L679.754 229.356L705.661 251.468L707.218 246.932L719.11 251.893L727.887 249.625L732.559 251.185L738.363 256.288L744.026 257.989L748.697 261.816L757.191 260.54L763.42 265.926L760.731 271.88L755.351 272.73L758.89 281.519L756.625 285.629L741.336 282.653L742.751 298.67L739.92 300.655L727.037 304.198L739.495 319.791L735.39 322.059L737.797 327.303L732.842 325.886L728.028 322.626L716.844 321.775L704.669 321.492L702.404 322.484L690.796 318.657L687.257 320.641L687.965 325.886L674.94 322.767L670.552 324.043L670.127 328.012L666.446 329.713L658.801 335.95L657.527 342.47H654.696L651.44 338.218L641.955 337.934L638.416 330.563L634.735 330.422L632.611 321.35L621.852 314.829L609.677 315.538L601.608 316.814L592.264 308.734L585.469 305.332L572.445 298.954L570.887 298.245L553.899 303.49L562.677 336.659L558.996 337.084L552.2 329.996L546.679 327.445L538.751 329.288L536.203 332.406L535.354 330.138L536.203 326.453L534.08 323.334L524.878 320.216L519.64 312.136L515.109 309.868L514.26 306.892L521.48 307.742L520.064 301.222L525.869 299.804L532.522 301.08L531.532 292.433L528.842 286.905L521.763 287.33L515.109 285.204L507.89 289.031L501.66 291.016L497.697 289.457L497.413 284.921L491.326 278.967L486.23 279.251L478.726 273.297L481.133 266.493L478.585 264.793L481.699 255.012L490.193 260.115L489.344 253.736L500.811 244.239L511.57 243.956L528.558 250.051L537.902 253.594L544.131 249.909L555.032 249.767L565.366 254.303L566.499 251.61L576.409 252.035L576.692 247.925L563.384 241.829L568.339 237.577L566.216 235.309L571.879 233.041L564.658 227.088L566.64 224.111L590.707 221.134L593.114 219.008L608.545 215.748L612.933 212.204L625.816 214.047L632.045 222.977L638.132 220.851L648.184 223.827L649.741 228.505Z" fill="#ECECEC" stroke="black" stroke-width="0.467222" stroke-linecap="round" stroke-linejoin="round"/>
<path d="M521.196 439.567L523.319 443.536L522.895 445.662L526.292 452.466L520.771 452.75L518.365 448.356L511.286 447.505L515.958 438.717L521.196 439.567Z" fill="#ECECEC" stroke="black" stroke-width="0.467222" stroke-linecap="round" stroke-linejoin="round"/>
<path d="M424.366 409.517L422.384 409.659L421.818 411.218H419.27L421.11 403.705L424.225 397.326V397.043L427.764 397.468L429.463 401.012L425.64 404.556L424.366 409.517Z" fill="#ECECEC" stroke="black" stroke-width="0.467222" stroke-linecap="round" stroke-linejoin="round"/>
<path d="M344.378 424.967L341.971 429.361L343.387 433.33L341.83 438.859L344.661 446.229L346.502 478.548L347.917 512.142L348.625 530.286H339.565V534.113L307.57 516.678L275.717 499.243L267.931 504.204L262.552 507.606L258.021 502.645L245.563 498.676L242.024 493.006L235.654 488.754L232.114 490.455L229.141 485.352L228.858 481.525L224.045 474.862L227.16 471.035L226.31 465.365L227.16 460.404L226.593 456.152L227.726 448.781L227.16 444.528L224.47 436.449L228.15 434.464L228.717 430.495L227.867 426.81L232.964 423.266L235.229 420.29L238.91 417.738L239.051 410.792L248.112 413.911L251.368 413.06L257.738 414.62L268.073 418.73L272.037 426.81L278.974 428.511L290.016 432.338L298.51 436.874L302.049 434.464L305.588 430.354L303.323 423.408L305.447 418.872L310.685 414.62L315.923 413.486L326.399 415.328L329.23 419.297L332.062 419.439L334.61 420.998L342.254 421.991L344.378 424.967Z" fill="#ECECEC" stroke="black" stroke-width="0.467222" stroke-linecap="round" stroke-linejoin="round"/>
<path d="M328.098 210.219L329.514 214.047L324.417 216.882L323.709 221.701L316.914 224.961H310.26L308.278 222.268L304.739 221.276L303.89 219.15L304.173 216.74L301.058 215.464L293.838 213.905L291.432 206.676L298.652 204.124L309.836 204.691L316.206 203.841L317.48 205.542L321.019 206.109L328.098 210.219Z" fill="#ECECEC" stroke="black" stroke-width="0.467222" stroke-linecap="round" stroke-linejoin="round"/>
<path d="M194.741 263.8L192.759 263.942L191.202 263.233L191.768 258.272L193.609 257.988L195.024 259.973L194.741 263.8Z" fill="#ECECEC" stroke="black" stroke-width="0.467222" stroke-linecap="round" stroke-linejoin="round"/>
<path d="M330.501 194.486L334.04 196.328L335.455 200.439L338.428 205.542L331.916 208.802L328.094 210.22L321.015 206.109L317.476 205.542L316.202 203.841L309.831 204.692L298.648 204.125L291.428 206.676L290.72 200.297L293.126 194.911L298.931 192.076L305.16 198.455L310.398 198.171L310.539 191.651L315.919 190.233L318.892 191.226L325.121 194.344L330.501 194.486Z" fill="#ECECEC" stroke="black" stroke-width="0.467222" stroke-linecap="round" stroke-linejoin="round"/>
<path d="M135.138 392.223L137.828 398.035L138.253 403.563L140.943 413.202L142.925 415.186L141.509 418.73L131.458 420.289L127.918 423.55L123.53 424.4L123.105 431.204L114.045 434.748L111.072 439.284L104.701 441.693L97.0566 443.111L84.457 449.915L84.3154 460.687H83.0413L83.1828 465.507L78.3696 465.79L75.8213 467.917H72.2821L69.4508 466.641L62.9386 467.633L60.2488 474.72L57.7005 475.429L53.8783 486.911L42.6943 496.691L39.863 509.307L36.4653 513.418L35.4744 516.678L17.7783 517.387H17.6367L18.0614 513.134L21.1759 510.724L23.8658 505.905L23.4411 502.787L26.2724 496.408L30.8026 490.596L33.4924 489.179L35.7574 483.934L36.0406 478.973L39.0136 473.445L44.3932 470.043L49.4896 460.829L49.6312 460.687L53.7366 457.144L60.9567 456.152L67.1856 449.915L71.1495 447.505L77.8033 439.851L76.1044 428.652L79.2189 420.715L80.4931 415.895L85.5895 409.8L93.2342 405.689L99.0385 401.862L104.277 392.507L106.825 386.837L112.346 386.979L116.735 390.806L123.955 390.239L131.741 392.223H135.138Z" fill="#ECECEC" stroke="black" stroke-width="0.467222" stroke-linecap="round" stroke-linejoin="round"/>
<path d="M354.004 299.095L352.163 294.984L352.447 291.157L351.597 287.33L346.784 281.944L343.953 278.258L341.404 275.707L339.139 274.715L340.696 273.439L345.226 272.588L350.889 275.282L353.721 275.707L357.402 278.117L357.26 281.093L360.091 282.511L361.649 286.196L364.48 288.464L364.197 289.882L365.612 290.732L363.772 291.441L359.525 291.157L358.675 289.882L357.26 290.59L358.109 292.15L356.552 295.126L355.703 298.103L354.004 299.095Z" fill="#ECECEC" stroke="black" stroke-width="0.467222" stroke-linecap="round" stroke-linejoin="round"/>
<path d="M320.17 336.375L318.754 336.658L317.622 338.218L313.658 338.076L311.11 340.06L306.296 340.769L303.04 338.643L301.625 334.816L302.332 331.697L303.323 331.839L303.465 329.996L307.57 328.579L309.269 328.153L311.676 327.728L315.074 327.445L319.037 330.421L320.17 336.375Z" fill="#ECECEC" stroke="black" stroke-width="0.467222" stroke-linecap="round" stroke-linejoin="round"/>
<path d="M299.076 323.05L297.944 325.035L295.962 325.885L295.395 324.184L292.705 328.579L293.413 331.555L291.856 330.847L289.45 327.87L286.193 326.027L286.901 324.61L287.468 319.648L289.733 317.522L291.007 316.672L292.989 318.231L294.263 319.507L296.669 320.499L299.642 322.342L299.076 323.05Z" fill="#ECECEC" stroke="black" stroke-width="0.467222" stroke-linecap="round" stroke-linejoin="round"/>
<path d="M331.777 96.6796L322.717 99.6563L318.187 100.365L319.32 94.9786L311.109 92.0019L302.756 94.5534L301.199 100.223L296.385 103.625L289.732 101.783L282.229 102.066L275.009 98.0971L271.894 100.082L268.213 100.365L268.355 105.468L257.03 104.192L256.18 108.586H250.517L247.261 114.115L242.448 122.761L234.379 133.959L236.927 136.794L235.086 139.913L228.999 139.771L225.601 147.425L227.017 158.34L231.406 162.451L230.273 172.231L225.46 177.901L222.912 182.72L218.24 177.618L206.065 187.256L197.429 189.241L188.227 184.988L185.679 176.058L182.848 156.922L188.51 151.678L204.508 144.732L215.975 136.369L226.168 125.313L238.767 110.146L247.828 104.334L262.409 94.6951L274.442 91.2932L283.927 91.7184L291.289 85.4815L301.765 85.765L311.675 84.3475L331.07 89.8757L324.133 91.8602L331.777 96.6796Z" fill="#ECECEC" stroke="black" stroke-width="0.467222" stroke-linecap="round" stroke-linejoin="round"/>
<path d="M279.254 36.7206L268.495 39.4139L258.868 37.8546L261.983 36.1537L258.302 34.0274L268.636 32.7517L271.326 35.1614L279.254 36.7206Z" fill="#ECECEC" stroke="black" stroke-width="0.467222" stroke-linecap="round" stroke-linejoin="round"/>
<path d="M243.01 24.6717L260.847 29.4912L248.672 32.0426L246.974 36.8621L242.727 38.1378L241.452 43.8077L235.223 44.0912L223.19 39.9805L227.437 37.5708L219.368 35.5863L208.467 30.0582L203.937 25.097L217.103 22.829L220.359 24.9552H227.437L228.853 22.829L236.214 22.5455L243.01 24.6717Z" fill="#ECECEC" stroke="black" stroke-width="0.467222" stroke-linecap="round" stroke-linejoin="round"/>
<path d="M277.564 20.4195L288.04 22.5457L281.811 25.9476L267.513 26.6564L252.365 25.5224L250.949 23.8214H243.729L237.642 20.9864L252.506 19.2855L260.151 20.7029L264.54 18.8602L277.564 20.4195Z" fill="#ECECEC" stroke="black" stroke-width="0.467222" stroke-linecap="round" stroke-linejoin="round"/>
<path d="M283.931 220.425L292.283 221.418L304.741 221.276L308.28 222.268L310.262 224.961L311.112 228.789L313.519 232.049L314.085 235.451L310.121 237.293L312.811 241.262L313.519 245.231L318.049 252.886L317.624 255.295L314.368 256.288L308.988 263.658L311.253 267.627L309.696 267.06L302.618 263.658L297.663 264.934L294.265 264.084L290.301 265.926L286.479 262.808L283.789 264.084L283.365 263.517L279.684 259.123L274.446 258.697L273.455 255.862L268.641 254.87L267.792 257.138L263.828 255.295L264.111 252.886L258.873 252.177L255.334 249.342L251.936 243.814L252.219 240.695L250.096 236.018L247.406 233.041L249.105 230.631L247.123 226.237L251.512 223.686L261.563 219.717L269.774 216.882L276.569 218.299L277.419 220.425H283.931Z" fill="#ECECEC" stroke="black" stroke-width="0.467222" stroke-linecap="round" stroke-linejoin="round"/>
<path d="M423.234 417.455L423.8 423.125L422.951 425.818L419.411 426.952L419.553 424.542L421.393 423.266L419.27 422.274L420.261 416.321L423.234 417.455Z" fill="#ECECEC" stroke="black" stroke-width="0.467222" stroke-linecap="round" stroke-linejoin="round"/>
<path d="M339.141 274.715L341.406 275.707L343.954 278.259L346.785 281.944L351.599 287.33L352.448 291.158L352.165 294.985L354.005 299.095L357.403 300.796L360.659 299.237L364.057 300.796L364.623 303.206L361.367 305.049L359.102 304.198L358.536 315.113L354.147 314.121L348.484 310.861L340.132 312.987L336.876 315.255L326.116 314.688L320.454 313.412L317.764 313.979L315.216 310.293L313.8 308.734L315.216 307.175L313.375 306.183L311.252 308.167L306.863 305.474L305.872 301.789L301.342 299.804L300.209 296.827L295.962 293.426L301.484 291.725L305.164 285.629L307.854 279.676L311.96 277.833L314.791 275.849L319.321 276.841H323.851L327.391 279.109L329.656 277.692L334.752 276.841L336.168 274.715H339.141Z" fill="#ECECEC" stroke="black" stroke-width="0.467222" stroke-linecap="round" stroke-linejoin="round"/>
<path d="M84.3158 460.688L84.1742 461.255L84.0327 462.956L83.7495 476.847L58.2672 476.28L57.9841 499.668L50.6225 500.377L48.499 505.055L49.7731 518.237H19.0528L17.2124 521.214L17.6371 517.387H17.7787L35.4748 516.678L36.4657 513.418L39.8633 509.307L42.6947 496.692L53.8786 486.911L57.7009 475.43L60.2492 474.721L62.939 467.633L69.4512 466.641L72.2825 467.917H75.8217L78.3699 465.791L83.1832 465.507L83.0417 460.688H84.3158Z" fill="#ECECEC" stroke="black" stroke-width="0.467222" stroke-linecap="round" stroke-linejoin="round"/>
<path d="M511.284 447.505L518.362 448.356L520.769 452.75L526.29 452.467L530.112 460.404L534.218 462.389L535.917 465.649L541.579 469.476L542.57 473.162L542.004 476.28L543.278 479.257L545.826 481.808L547.101 484.785L548.516 487.053L551.064 488.896L553.188 488.187L555.028 491.731L555.453 493.715L559.275 503.07L583.201 507.606L584.616 505.622L588.863 512.142L585.182 530.286L562.107 539.358L539.597 542.902L532.519 547.012L527.564 556.509L523.883 558.069L521.76 555.092L518.787 555.517L511.001 554.525L509.443 553.674L500.383 553.816L498.26 554.667L494.862 552.399L493.021 556.793L494.154 560.62L490.756 563.597L489.482 559.628L486.934 556.935L486.226 553.249L481.837 549.989L477.166 542.335L474.476 534.964L468.672 528.727L465.133 527.168L459.328 518.521L458.054 512.284V506.898L452.958 496.692L448.994 493.148L444.747 491.305L441.774 486.061L442.057 484.076L439.509 479.257L437.102 477.272L433.563 470.469L428.183 463.239L423.794 457.002H419.972L420.68 452.041L420.822 448.781L421.388 445.096L430.165 446.655L433.138 443.82L434.695 440.56L440.5 439.284L441.49 436.166L443.756 434.748L435.262 425.534L449.985 420.999L451.259 419.581L460.885 422.133L473.06 428.511L496.844 446.797L511.284 447.505Z" fill="#ECECEC" stroke="black" stroke-width="0.467222" stroke-linecap="round" stroke-linejoin="round"/>
<path d="M315.215 310.293L313.658 312.278L314.649 315.68L318.613 319.507L316.064 322.342L315.215 325.177L316.064 326.311L315.073 327.445L311.676 327.728L309.269 328.154L308.844 327.445L309.694 326.453L310.26 324.185L309.269 324.326L307.712 322.626L306.438 322.2L305.305 320.783L303.889 320.216L302.757 318.94L301.483 319.507L300.775 322.484L299.076 323.051L299.642 322.342L296.669 320.499L294.263 319.507L292.989 318.231L291.007 316.672L292.564 316.247L293.272 312.136L289.45 308.592L291.007 304.624L288.317 304.765L290.723 301.363L288.317 298.812L286.193 295.268L291.431 293L295.962 293.425L300.209 296.827L301.341 299.804L305.871 301.789L306.862 305.474L311.251 308.167L313.374 306.183L315.215 307.175L313.799 308.734L315.215 310.293Z" fill="#ECECEC" stroke="black" stroke-width="0.467222" stroke-linecap="round" stroke-linejoin="round"/>
<path d="M309.699 267.06L308 269.47L307.009 273.014L305.593 273.864L297.807 271.171L295.542 271.738L294.126 273.864L290.87 274.998L290.021 274.431L286.765 275.707L284.075 275.99L283.65 277.833L277.846 278.825L275.156 277.975L271.334 275.565L270.343 272.588L270.767 271.454L271.617 269.47L274.731 269.612L276.996 268.761L277.138 267.911L278.412 267.486L278.695 265.501L280.253 265.076L281.243 263.517H283.367L283.792 264.084L286.481 262.808L290.304 265.926L294.268 264.084L297.665 264.934L302.62 263.658L309.699 267.06Z" fill="#ECECEC" stroke="black" stroke-width="0.467222" stroke-linecap="round" stroke-linejoin="round"/>
<path d="M269.631 290.023L264.109 292.433L263.685 295.977L261.278 296.969L261.42 299.379L258.588 299.237L256.04 297.819L254.907 299.237L249.811 298.953L251.368 298.245L249.386 294.418L249.953 290.023L255.898 290.732L259.296 288.606L265.525 288.464L266.799 286.905L267.932 287.047L269.631 290.023Z" fill="#ECECEC" stroke="black" stroke-width="0.467222" stroke-linecap="round" stroke-linejoin="round"/>
<path d="M295.675 124.321L285.765 126.588L280.81 132.117L282.651 137.078L273.874 143.456L262.831 150.544L259.858 162.025L265.096 167.837L271.892 172.515L267.22 181.87L260.708 183.855L259.858 198.029L256.886 206.109L248.816 205.258L245.702 212.062L237.915 212.488L235.226 204.408L228.855 194.627L222.909 182.721L225.457 177.901L230.271 172.231L231.403 162.451L227.015 158.34L225.599 147.425L228.997 139.771L235.084 139.913L236.924 136.794L234.376 133.959L242.446 122.761L247.259 114.115L250.515 108.587H256.178L257.027 104.192L268.353 105.468L268.211 100.365L271.892 100.082L280.386 103.909L290.579 109.154L293.127 121.202L295.675 124.321Z" fill="#ECECEC" stroke="black" stroke-width="0.467222" stroke-linecap="round" stroke-linejoin="round"/>
<path d="M446.872 408.525L433.14 418.305L424.222 414.62H424.08L424.929 413.202L424.363 409.517L425.637 404.556L429.459 401.012L427.761 397.468L424.222 397.043L422.664 390.097L424.08 386.27L425.92 384.286L427.619 382.301L427.336 377.34L430.026 379.041L437.954 376.49L442.201 378.191H448.43L456.499 374.789L460.605 374.93L468.957 373.513L465.984 379.183L462.162 381.451L463.861 388.113L462.445 399.028L446.872 408.525Z" fill="#ECECEC" stroke="black" stroke-width="0.467222" stroke-linecap="round" stroke-linejoin="round"/>
<path d="M649.741 372.379L647.476 372.095L643.37 369.686L642.946 372.804L637 374.647L637.283 381.876L633.602 384.711L627.939 385.987L627.373 390.097L621.852 391.373L613.499 387.829L611.093 380.317L605.43 379.891L595.096 371.954L589.008 370.961L579.665 366.284L574.144 365.433L571.312 367.134L566.216 366.851L561.969 372.095L555.74 373.796L553.05 367.418L552.2 357.921L545.688 354.802L546.254 348.707L541.3 348.14L541.158 340.486L548.661 342.754L554.465 339.919L547.812 334.39L544.414 329.288L539.034 331.556L539.884 338.218L536.203 332.406L538.751 329.288L546.679 327.445L552.2 329.996L558.996 337.084L562.677 336.658L571.029 336.517L568.622 331.981L574.002 328.862L578.815 323.618L589.999 328.437L592.689 335.524L595.945 337.367L603.731 336.942L606.704 338.643L612.792 347.998L622.843 354.235L628.789 358.488L637.708 362.882L648.608 366.851L649.741 372.379Z" fill="#ECECEC" stroke="black" stroke-width="0.467222" stroke-linecap="round" stroke-linejoin="round"/>
<path d="M239.051 410.793L238.909 417.738L235.229 420.29L232.964 423.266L227.867 426.81L228.717 430.496L228.15 434.464L224.47 436.449L220.789 420.148L215.975 416.463L215.834 414.336L209.463 408.808L208.614 402.004L213.144 396.901L214.701 389.389L213.286 380.742L214.701 376.064L222.771 372.521L228.009 373.513V378.191L234.238 374.789L234.804 376.49L231.265 381.026L231.406 385.136L234.096 387.404L233.388 395.342L228.433 399.878L230.132 404.839L234.096 404.981L236.078 409.375L239.051 410.793Z" fill="#ECECEC" stroke="black" stroke-width="0.467222" stroke-linecap="round" stroke-linejoin="round"/>
<path d="M456.352 334.532L464.139 334.107L472.067 338.643L473.907 341.761L474.048 346.156L479.994 348.424L483.392 350.975L478.72 353.668L482.826 364.016L481.835 366.851L487.214 374.08L483.817 375.639L480.844 373.371L471.925 372.095L468.952 373.513L460.599 374.93L456.494 374.789L448.425 378.191H442.196L437.948 376.49L430.021 379.041L427.331 377.34L427.614 382.301L425.915 384.286L424.075 386.27L420.819 382.159L423.226 378.758L418.695 379.608L412.183 377.482L407.653 382.726L396.328 383.719L389.674 378.899L381.604 378.616L380.189 382.301L375.092 383.435L367.448 378.616L359.237 378.758L353.857 369.686L347.911 364.725L350.742 357.637L345.646 353.243L352.866 344.596L364.191 344.313L366.456 337.367L380.613 338.643L388.541 332.831L396.752 330.28L408.785 329.996L422.659 336.375L433.843 339.919L442.054 338.501L448.566 339.352L456.352 334.532Z" fill="#ECECEC" stroke="black" stroke-width="0.467222" stroke-linecap="round" stroke-linejoin="round"/>
<path d="M343.388 341.053L345.087 340.06L346.644 334.39L342.822 331.981L349.9 329.146L356.412 330.28L357.686 333.823L364.482 336.658L363.49 338.926L354.713 339.352L351.882 342.187L346.361 347.006L343.529 342.895L343.388 341.053Z" fill="#ECECEC" stroke="black" stroke-width="0.467222" stroke-linecap="round" stroke-linejoin="round"/>
<path d="M393.361 248.492L396.617 252.319L396.758 254.02L406.243 257.138L411.34 255.721L416.436 259.831L420.542 259.69L431.443 262.525L432.009 265.218L430.168 269.754L432.717 274.715L432.292 277.692L425.497 278.259L422.382 280.81L422.948 284.637L417.427 285.346L413.18 288.323L406.668 288.748L401.005 292.15L402.421 297.678L406.385 299.804L413.605 299.237L412.756 302.498L405.111 304.057L396.192 309.16L391.803 307.317L392.794 303.206L384.442 300.513L385.433 298.812L391.945 295.835L389.538 293.851L378.071 291.583L376.939 288.181L370.568 289.315L368.728 294.276L364.056 300.797L360.658 299.237L357.402 300.797L354.005 299.096L355.703 298.103L356.553 295.127L358.11 292.15L357.261 290.591L358.676 289.882L359.526 291.158L363.773 291.441L365.613 290.732L364.198 289.882L364.481 288.465L361.649 286.197L360.092 282.511L357.261 281.094L357.402 278.117L353.721 275.707L350.89 275.282L345.227 272.589L340.697 273.439L339.14 274.715H336.167L334.751 276.841L329.655 277.692L327.39 279.109L323.851 276.841H319.32L314.79 275.849L311.959 277.833L311.251 275.424L307.004 273.014L307.995 269.47L309.694 267.061L311.251 267.628L308.986 263.659L314.366 256.288L317.622 255.296L318.046 252.886L313.516 245.231L316.772 244.806L320.17 242.538L325.549 242.255L332.486 242.964L340.556 245.09L346.077 245.231L348.767 246.507L351.173 244.948L353.297 247.074L359.384 246.649L362.357 247.499L361.932 243.105L363.773 241.121L369.577 240.696L372.125 240.979L373.541 238.995L375.665 239.42L382.601 238.569L387.981 243.531L386.707 245.373L387.84 248.066L393.361 248.492Z" fill="#ECECEC" stroke="black" stroke-width="0.467222" stroke-linecap="round" stroke-linejoin="round"/>
<path d="M670.129 328.012L672.536 328.862L668.289 334.674L674.801 338.076L679.331 335.808L689.524 340.627L682.021 347.148L676.217 346.297L673.244 346.439L671.404 344.029L671.687 339.777L662.485 341.903L661.777 347.715L659.654 352.676L653.424 352.251L652.575 356.22L658.521 358.346L661.919 365.15L660.078 374.363L653.991 372.379H649.744L648.611 366.851L637.71 362.882L628.792 358.488L622.846 354.235L612.794 347.998L606.707 338.643L603.734 336.942L595.948 337.367L592.692 335.524L590.002 328.437L578.818 323.618L574.005 328.862L568.625 331.981L571.032 336.517L562.679 336.658L553.902 303.489L570.89 298.245L572.447 298.953L585.472 305.332L592.267 308.734L601.61 316.814L609.68 315.538L621.855 314.829L632.614 321.35L634.737 330.421L638.418 330.563L641.957 337.934L651.442 338.218L654.699 342.47H657.53L658.804 335.95L666.449 329.713L670.129 328.012Z" fill="#ECECEC" stroke="black" stroke-width="0.467222" stroke-linecap="round" stroke-linejoin="round"/>
<path d="M309.268 328.154L307.569 328.579L303.464 329.996L303.322 331.839L302.331 331.697L301.482 328.437L299.642 327.445L297.943 325.035L299.075 323.051L300.774 322.484L301.482 319.507L302.756 318.94L303.889 320.216L305.304 320.783L306.437 322.2L307.711 322.625L309.268 324.326L310.259 324.185L309.693 326.453L308.844 327.445L309.268 328.154Z" fill="#ECECEC" stroke="black" stroke-width="0.467222" stroke-linecap="round" stroke-linejoin="round"/>
<path d="M194.176 252.035L190.213 249.909L185.824 246.082L179.453 247.924L174.357 247.216L177.896 244.806L183.559 232.049L192.761 228.363L198.424 228.647L199.698 231.623L198.424 239.561L196.725 242.822H192.619L194.176 252.035Z" fill="#ECECEC" stroke="black" stroke-width="0.467222" stroke-linecap="round" stroke-linejoin="round"/>
<path d="M95.6445 374.788L92.53 377.056L88.5661 375.781L84.7437 376.773L86.0178 369.685L85.5931 364.157L82.1955 363.307L80.6382 359.905L81.346 353.951L84.4605 350.691L85.1684 347.006L86.8672 341.619V337.792L85.5931 334.532L85.3099 331.414L87.9998 329.146L91.1143 327.87L92.8131 332.264H97.0602L98.3342 331.13L102.723 331.414L104.563 335.949L101.166 338.359L100.741 345.447L99.6084 346.722L99.1837 351.116L95.9275 351.825L98.7589 357.212L96.4939 363.165L99.0421 365.858L97.9095 368.268L95.0782 371.67L95.6445 374.788Z" fill="#ECECEC" stroke="black" stroke-width="0.467222" stroke-linecap="round" stroke-linejoin="round"/>
<path d="M304.737 221.276L292.279 221.418L283.926 220.426L284.917 216.74L293.836 213.905L301.056 215.464L304.17 216.74L303.887 219.15L304.737 221.276Z" fill="#ECECEC" stroke="black" stroke-width="0.467222" stroke-linecap="round" stroke-linejoin="round"/>
<path d="M480.568 87.8913L477.453 88.4583L458.342 87.466L455.086 84.2059L443.902 82.2214L441.07 78.1107L446.025 76.5515L443.76 72.5825L451.405 66.3456L445.742 65.4952L455.227 59.1165L451.688 55.8563L461.314 52.1709L475.896 47.635L492.46 46.3592L499.538 43.8078L509.023 42.9573L514.969 45.6505L513.129 47.7767L496.99 51.3204L482.975 54.5806L470.658 61.3845L466.694 68.4719L462.022 75.5592L466.411 81.6544L480.568 87.8913Z" fill="#ECECEC" stroke="black" stroke-width="0.467222" stroke-linecap="round" stroke-linejoin="round"/>
<path d="M625.811 214.047L612.928 212.204L608.54 215.748L593.109 219.008L590.702 221.134L566.635 224.111L564.653 227.087L571.873 233.041L566.211 235.309L568.334 237.577L563.379 241.829L576.687 247.924L576.404 252.035L566.494 251.61L565.361 254.303L555.027 249.767L544.126 249.909L537.897 253.594L528.553 250.05L511.565 243.955L500.806 244.239L489.339 253.736L490.188 260.115L481.694 255.012L478.58 264.792L481.128 266.493L478.721 273.297L486.225 279.251L491.321 278.967L497.408 284.92L497.692 289.456L501.655 291.016L499.674 296.26L493.161 297.678L488.065 306.891L496.559 315.538L497.125 321.491L507.46 332.122L503.921 335.808L503.071 338.076L499.674 337.367L493.586 331.981L491.463 331.697L486.366 329.571L483.393 325.885L476.173 324.043L472.068 325.46L470.369 323.759L459.61 319.365L448.709 317.948L442.197 316.388L441.631 317.522L430.871 309.868L422.094 306.466L414.874 301.221L419.971 299.804L424.501 292.433L419.829 288.889L429.597 285.204L429.031 283.219L422.943 284.637L422.377 280.81L425.492 278.258L432.287 277.691L432.712 274.715L430.163 269.753L432.004 265.217L431.438 262.524L420.537 259.689L416.431 259.831L411.335 255.72L406.238 257.138L396.753 254.019L396.612 252.318L393.356 248.491L387.835 248.066L386.702 245.373L387.976 243.53L382.596 238.569L375.66 239.419L373.536 238.994L372.12 240.979L369.572 240.695L366.741 235.025L364.617 232.19L365.75 231.34L371.271 231.623L373.536 229.781L371.129 227.513L366.316 225.953V224.394L363.343 222.835L357.964 217.165L358.955 214.897L357.397 210.786L350.602 208.802L347.204 209.794L345.93 207.668L338.427 205.542L335.454 200.439L334.039 196.328L330.499 194.485L332.764 191.792L329.367 183.854L333.048 179.035L331.773 177.617L338.144 172.94L330.499 168.971L341.825 158.481L346.638 153.662L347.912 149.551L337.436 144.023L338.71 138.637L331.773 132.683L334.18 125.879L324.978 116.949L329.084 110.996L318.749 105.751L318.183 100.365L322.713 99.6562L331.773 96.6795L337.012 93.9862L347.912 98.5222L364.476 100.365L389.533 109.153L395.338 112.839L397.461 118.083L392.223 122.194L383.021 124.32L354.424 118.367L350.319 119.359L361.786 125.171L363.202 128.856L365.891 137.078L374.527 139.487L379.907 141.613L379.624 137.645L374.81 134.243L377.783 131.124L394.205 136.227L398.735 134.243L392.648 128.289L404.115 120.635L409.919 121.06L416.431 123.753L417.989 118.367L411.335 113.689L412.467 109.011L406.38 104.192L423.793 106.744L428.889 110.996L421.669 111.988L423.368 116.382L429.172 119.076L437.667 117.375L437.1 112.413L448.001 108.586L465.555 102.066L470.086 102.349L466.547 107.027L474.191 107.878L477.164 105.184L488.065 105.043L495.143 101.782L504.204 106.46L508.168 101.357L499.674 96.9629L501.372 94.4115L519.776 96.6795L529.12 99.0892L555.451 107.878L557.009 103.909L548.656 99.7979L547.524 98.2387L540.021 97.3882L539.737 93.8445L533.084 87.8911L531.526 85.4814L537.614 78.8192L536.764 72.0154L539.879 70.5979L556.018 72.5823L560.123 76.693L558.849 82.6464L564.087 85.0561L569.467 90.3008L574.846 100.79L584.331 105.468L585.039 110.712L580.084 121.769L587.587 122.903L588.295 120.068L593.675 118.083L592.967 114.256L595.657 110.429L589.428 106.035L588.862 100.932L582.066 100.365L577.961 96.1125L577.394 88.4581L565.786 82.3629L572.44 77.4018L567.202 72.1571L569.891 72.0154L575.837 75.9843L578.81 83.2134L585.889 84.6309L579.376 79.2445L586.596 76.2678L598.064 75.8425L611.654 80.095L601.886 73.9998L594.949 66.2037L603.302 64.7862L616.751 65.0697L627.793 64.0775L619.865 60.392L621.705 55.7144L627.651 55.4309L634.588 52.0289L625.811 214.047Z" fill="#ECECEC"/>
<path d="M632.04 222.977L625.811 214.047M625.811 214.047L612.928 212.204L608.54 215.748L593.109 219.008L590.702 221.134L566.635 224.111L564.653 227.087L571.873 233.041L566.211 235.309L568.334 237.577L563.379 241.829L576.687 247.924L576.404 252.035L566.494 251.61L565.361 254.303L555.027 249.767L544.126 249.909L537.897 253.594L528.553 250.05L511.565 243.955L500.806 244.239L489.339 253.736L490.188 260.115L481.694 255.012L478.58 264.792L481.128 266.493L478.721 273.297L486.225 279.251L491.321 278.967L497.408 284.92L497.692 289.456L501.655 291.016L499.674 296.26L493.161 297.678L488.065 306.891L496.559 315.538L497.125 321.491L507.46 332.122L503.921 335.808L503.071 338.076L499.674 337.367L493.586 331.981L491.463 331.697L486.366 329.571L483.393 325.885L476.173 324.043L472.068 325.46L470.369 323.759L459.61 319.365L448.709 317.948L442.197 316.388L441.631 317.522L430.871 309.868L422.094 306.466L414.874 301.221L419.971 299.804L424.501 292.433L419.829 288.889L429.597 285.204L429.031 283.219L422.943 284.637L422.377 280.81L425.492 278.258L432.287 277.691L432.712 274.715L430.163 269.753L432.004 265.217L431.438 262.524L420.537 259.689L416.431 259.831L411.335 255.72L406.238 257.138L396.753 254.019L396.612 252.318L393.356 248.491L387.835 248.066L386.702 245.373L387.976 243.53L382.596 238.569L375.66 239.419L373.536 238.994L372.12 240.979L369.572 240.695L366.741 235.025L364.617 232.19L365.75 231.34L371.271 231.623L373.536 229.781L371.129 227.513L366.316 225.953V224.394L363.343 222.835L357.964 217.165L358.955 214.897L357.397 210.786L350.602 208.802L347.204 209.794L345.93 207.668L338.427 205.542L335.454 200.439L334.039 196.328L330.499 194.485L332.764 191.792L329.367 183.854L333.048 179.035L331.773 177.617L338.144 172.94L330.499 168.971L341.825 158.481L346.638 153.662L347.912 149.551L337.436 144.023L338.71 138.637L331.773 132.683L334.18 125.879L324.978 116.949L329.084 110.996L318.749 105.751L318.183 100.365L322.713 99.6562L331.773 96.6795L337.012 93.9862L347.912 98.5222L364.476 100.365L389.533 109.153L395.338 112.839L397.461 118.083L392.223 122.194L383.021 124.32L354.424 118.367L350.319 119.359L361.786 125.171L363.202 128.856L365.891 137.078L374.527 139.487L379.907 141.613L379.624 137.645L374.81 134.243L377.783 131.124L394.205 136.227L398.735 134.243L392.648 128.289L404.115 120.635L409.919 121.06L416.431 123.753L417.989 118.367L411.335 113.689L412.467 109.011L406.38 104.192L423.793 106.744L428.889 110.996L421.669 111.988L423.368 116.382L429.172 119.076L437.667 117.375L437.1 112.413L448.001 108.586L465.555 102.066L470.086 102.349L466.547 107.027L474.191 107.878L477.164 105.184L488.065 105.043L495.143 101.782L504.204 106.46L508.168 101.357L499.674 96.9629L501.372 94.4115L519.776 96.6795L529.12 99.0892L555.451 107.878L557.009 103.909L548.656 99.7979L547.524 98.2387L540.021 97.3882L539.737 93.8445L533.084 87.8911L531.526 85.4814L537.614 78.8192L536.764 72.0154L539.879 70.5979L556.018 72.5823L560.123 76.693L558.849 82.6464L564.087 85.0561L569.467 90.3008L574.846 100.79L584.331 105.468L585.039 110.712L580.084 121.769L587.587 122.903L588.295 120.068L593.675 118.083L592.967 114.256L595.657 110.429L589.428 106.035L588.862 100.932L582.066 100.365L577.961 96.1125L577.394 88.4581L565.786 82.3629L572.44 77.4018L567.202 72.1571L569.891 72.0154L575.837 75.9843L578.81 83.2134L585.889 84.6309L579.376 79.2445L586.596 76.2678L598.064 75.8425L611.654 80.095L601.886 73.9998L594.949 66.2037L603.302 64.7862L616.751 65.0697L627.793 64.0775L619.865 60.392L621.705 55.7144L627.651 55.4309L634.588 52.0289L625.811 214.047Z" stroke="black" stroke-width="0.467222" stroke-linecap="round" stroke-linejoin="round"/>
<g filter="url(#filter0_dd_118_23723)">
<path d="M255.809 155.183C255.809 150.023 259.992 145.839 265.153 145.839H337.85C343.011 145.839 347.195 150.023 347.195 155.183V197.022C347.195 202.183 343.011 206.366 337.85 206.366H265.153C259.992 206.366 255.809 202.183 255.809 197.022V155.183Z" fill="#101828"/>
<path d="M275.591 185.802L282.543 168.926H274.498V166.179H286.075V167.356L278.562 185.802H275.591Z" fill="white"/>
<path d="M295.905 185.802V171.673H298.876V174.14C299.942 172.346 301.334 171.449 303.053 171.449C305.109 171.449 306.417 172.44 306.978 174.421C307.482 173.505 308.118 172.785 308.884 172.262C309.669 171.72 310.501 171.449 311.379 171.449C312.725 171.449 313.753 171.832 314.463 172.598C315.173 173.365 315.528 174.458 315.528 175.878V185.802H312.585V176.355C312.585 174.804 311.921 174.028 310.594 174.028C309.604 174.028 308.791 174.57 308.155 175.654C307.52 176.719 307.202 178.196 307.202 180.083V185.802H304.259V176.355C304.259 174.804 303.595 174.028 302.268 174.028C301.259 174.028 300.437 174.589 299.801 175.71C299.185 176.813 298.876 178.345 298.876 180.308V185.802H295.905Z" fill="white"/>
<path d="M318.386 182.186L320.769 180.924C321.348 182.606 322.366 183.447 323.824 183.447C324.385 183.447 324.833 183.298 325.17 182.999C325.525 182.7 325.702 182.279 325.702 181.737C325.702 181.27 325.469 180.868 325.002 180.532C324.534 180.195 323.777 179.822 322.731 179.411C321.572 178.981 320.712 178.448 320.152 177.813C319.591 177.177 319.311 176.346 319.311 175.318C319.311 174.215 319.722 173.299 320.544 172.57C321.367 171.823 322.394 171.449 323.628 171.449C325.59 171.449 327.011 172.206 327.889 173.72L326.067 175.374C325.469 174.477 324.665 174.028 323.656 174.028C323.207 174.028 322.834 174.159 322.535 174.421C322.236 174.664 322.086 174.981 322.086 175.374C322.086 175.785 322.292 176.149 322.703 176.467C323.133 176.785 323.918 177.159 325.058 177.588C327.356 178.392 328.506 179.719 328.506 181.569C328.506 182.915 328.076 183.999 327.216 184.821C326.357 185.625 325.226 186.026 323.824 186.026C322.423 186.026 321.245 185.671 320.292 184.961C319.339 184.232 318.703 183.307 318.386 182.186Z" fill="white"/>
<path d="M315.684 200.492C317.766 200.492 318.808 203.008 317.336 204.48L303.154 218.662C302.241 219.575 300.762 219.575 299.85 218.662L285.667 204.48C284.195 203.008 285.238 200.492 287.319 200.492H315.684Z" fill="#101828"/>
</g>
<path d="M404.122 19.5689L398.034 20.2776L393.929 20.8446V21.8368L388.832 22.8291L382.462 21.4116L384.019 19.4271L372.977 19.2854L381.895 18.1514H389.257L391.38 19.7106L393.221 18.2931L397.185 17.3009L405.396 18.5766L404.122 19.5689Z" fill="#ECECEC" stroke="black" stroke-width="0.467222" stroke-linecap="round" stroke-linejoin="round"/>
<path d="M137.688 317.664L140.52 321.066L153.969 325.177L156.659 323.192L164.87 327.303L173.222 326.169L173.788 331.414L166.852 337.367L157.508 339.352L156.8 342.328L152.27 347.29L149.439 354.66L152.27 359.905L148.023 363.874L146.324 369.827L140.661 371.67L135.423 378.616L125.797 378.758L118.718 378.616L113.905 381.734L110.932 385.136L107.251 384.427L104.561 381.309L102.579 376.206L95.6427 374.789L95.0763 371.67L97.9077 368.268L99.0402 365.859L96.492 363.165L98.7571 357.212L95.9257 351.826L99.1819 351.117L99.6066 346.723L100.739 345.447L101.164 338.359L104.561 335.95L102.721 331.414L98.3324 331.13L97.0583 332.264H92.8113L91.1124 327.87L87.9979 329.146L85.3081 331.414L86.0159 325.035L83.1846 321.208L93.6607 314.688L102.438 316.247H112.206L119.851 317.806L125.938 317.239L137.688 317.664Z" fill="#ECECEC" stroke="black" stroke-width="0.467222" stroke-linecap="round" stroke-linejoin="round"/>
<path d="M221.355 329.004L219.231 335.95L215.834 334.107L213.993 328.154L215.267 324.752L219.797 321.35L221.355 329.004Z" fill="#ECECEC" stroke="black" stroke-width="0.467222" stroke-linecap="round" stroke-linejoin="round"/>
<path d="M191.202 263.233L192.759 263.942L194.741 263.8L198.139 266.068L208.332 267.769L204.934 273.722L204.368 280.101L202.527 281.66L199.271 280.81L199.554 283.078L194.458 288.039V292.15L197.856 290.732L200.404 294.559L200.262 297.111L202.386 300.513L199.979 303.206L202.103 310.152L206.067 311.286L205.359 315.113L198.988 320.216L184.548 317.806L174.072 320.783L173.223 326.169L164.87 327.303L156.659 323.192L153.969 325.177L140.52 321.066L137.689 317.664L141.511 312.278L142.927 294.418L135.707 285.062L130.469 280.526L119.71 277.124L119.144 270.604L128.345 268.761L140.096 271.029L137.972 260.965L144.626 264.792L160.765 257.988L162.888 250.759L168.834 248.917L169.967 252.035L173.081 252.177L176.479 255.721L181.434 259.831L184.973 259.122L191.202 263.233Z" fill="#ECECEC" stroke="black" stroke-width="0.467222" stroke-linecap="round" stroke-linejoin="round"/>
<path d="M408.926 393.216L409.068 393.5L409.492 394.067L408.926 393.925H408.502L407.936 394.208L407.511 393.783V393.358L407.936 393.216L408.219 393.358L408.926 393.216Z" fill="#ECECEC" stroke="black" stroke-width="0.467222" stroke-linecap="round" stroke-linejoin="round"/>
<path d="M406.526 393.925V394.067L406.243 394.35L406.102 395.201L405.96 395.484H405.536L405.252 395.768L404.544 396.051L404.261 396.193L403.412 396.618L402.846 396.476L402.138 396.618L401.713 397.185L401.43 396.76L401.005 396.902H400.722L400.297 396.476L399.731 396.902H399.023L398.315 396.618L397.608 396.476L397.041 396.051L396.617 395.201L396.192 394.775L395.909 393.783L395.626 393.358L395.767 392.933L396.475 393.358L397.041 393.216L397.324 392.791L397.466 392.366L397.891 392.224L398.174 392.366L398.457 392.082H398.74L398.882 392.649L399.59 392.933L399.731 393.216H400.581L401.43 392.508L401.996 392.649L402.421 392.366L402.846 392.508L403.412 392.791L403.695 392.366H404.12L404.544 392.933V393.783L404.969 393.5L405.394 393.783L405.536 393.642L406.526 393.925Z" fill="#ECECEC" stroke="black" stroke-width="0.467222" stroke-linecap="round" stroke-linejoin="round"/>
<path d="M107.96 159.757L108.526 160.041H108.95L109.092 160.324V160.891L109.375 161.317L109.233 161.6L108.385 161.033L108.102 160.466L107.819 160.183L107.536 159.757H107.96Z" fill="#ECECEC" stroke="black" stroke-width="0.467222" stroke-linecap="round" stroke-linejoin="round"/>
<path d="M108.38 157.49L109.512 157.773L109.795 158.057L109.653 158.623L109.512 158.765L108.946 158.057L108.238 157.915L107.956 157.348L108.38 157.49Z" fill="#ECECEC" stroke="black" stroke-width="0.467222" stroke-linecap="round" stroke-linejoin="round"/>
<path d="M106.575 155.562L106.689 155.788H107.113V156.214H106.547L106.264 156.497L105.414 156.214L105.131 156.072L104.848 155.647L105.556 155.505L105.698 155.363L106.486 155.495L106.122 155.222L106.405 154.088L107.113 154.229L107.538 154.938V155.08L108.387 155.363L108.812 156.072L109.237 156.355L109.095 157.206L108.387 156.639L108.104 156.355L107.821 156.214L107.68 155.93L107.396 155.647H106.689L106.575 155.562Z" fill="#ECECEC" stroke="black" stroke-width="0.467222" stroke-linecap="round" stroke-linejoin="round"/>
<path d="M111.783 154.652L111.501 154.37L111.924 154.088L111.783 154.652Z" fill="#ECECEC" stroke="black" stroke-width="0.467222" stroke-linecap="round" stroke-linejoin="round"/>
<path d="M108.386 155.363L107.819 155.08L107.395 154.654L107.253 154.229L107.395 154.087L107.961 153.946H108.386L109.235 154.513L109.094 154.796L109.235 155.08L110.085 155.363V155.647L109.518 156.072L108.386 155.363Z" fill="#ECECEC" stroke="black" stroke-width="0.467222" stroke-linecap="round" stroke-linejoin="round"/>
<path d="M111.501 154.513L111.076 155.08L110.652 154.796H110.228L110.511 154.371L110.369 153.804L110.511 153.662L110.794 154.229L111.501 154.513Z" fill="#ECECEC" stroke="black" stroke-width="0.467222" stroke-linecap="round" stroke-linejoin="round"/>
<path d="M110.223 154.511H109.94L109.658 153.945L109.799 153.521L110.082 154.087L110.223 154.511Z" fill="#ECECEC" stroke="black" stroke-width="0.467222" stroke-linecap="round" stroke-linejoin="round"/>
<path d="M261.277 386.129L260.994 386.554L260.287 386.27L259.579 385.845V385.136L259.438 384.995H260.287L260.853 385.42L261.136 385.703L261.277 386.129Z" fill="#ECECEC" stroke="black" stroke-width="0.467222" stroke-linecap="round" stroke-linejoin="round"/>
<path d="M259.008 384.568L258.302 384.427V384.144L258.867 384.002L259.431 384.427L259.008 384.568Z" fill="#ECECEC" stroke="black" stroke-width="0.467222" stroke-linecap="round" stroke-linejoin="round"/>
<path d="M12.8229 459.412L12.3984 460.121L11.8327 460.83L11.4083 460.263H10.8425L10.5596 459.979L10.8425 459.554L11.4083 459.696L11.9741 459.129L12.3984 458.845L12.6813 458.987L12.8229 459.412Z" fill="#ECECEC" stroke="black" stroke-width="0.467222" stroke-linecap="round" stroke-linejoin="round"/>
<path d="M32.0715 456.152V456.861L32.3546 457.427L32.0715 458.42L32.213 458.845L31.6468 459.412L30.939 459.695L30.6558 459.979L29.8064 459.695L29.0986 458.987L28.8154 458.42V457.569L29.6648 457.002L29.8064 456.294V456.01L30.6558 456.152H31.2221L31.6468 456.294L32.0715 456.152Z" fill="#ECECEC" stroke="black" stroke-width="0.467222" stroke-linecap="round" stroke-linejoin="round"/>
<path d="M18.0609 457.286H17.7781L17.3536 457.002L17.0708 456.577L17.2122 456.01L17.3536 455.585H17.7781H18.2024L18.9097 456.152L19.0511 456.577L18.3438 457.286H18.0609Z" fill="#ECECEC" stroke="black" stroke-width="0.467222" stroke-linecap="round" stroke-linejoin="round"/>
<path d="M26.6993 452.325V452.608L25.8498 453.033L25.2836 453.742L24.8589 454.026V454.593L24.2926 455.585L24.151 456.152L23.4432 457.002L23.3016 457.286H23.0184L22.1691 457.569L22.0275 457.428L21.8859 456.861L21.4612 456.294L21.3197 456.01L21.0365 455.585V455.16L20.4702 454.309L21.1781 453.884L21.6027 454.167L22.4522 453.884H23.0184L23.7263 453.6L24.4341 453.033V452.75L25.2836 452.325H26.1329L26.5576 452.183L26.6993 452.325Z" fill="#ECECEC" stroke="black" stroke-width="0.467222" stroke-linecap="round" stroke-linejoin="round"/>
<path d="M41.1412 456.294L40.7164 456.861L40.1502 457.002L39.7255 456.861H39.1592V456.577H39.5839L40.4333 456.294L40.9996 455.868L41.4242 455.443L41.5659 454.734L41.7074 454.309L41.9905 453.6L42.4152 453.033L42.8399 452.183L43.1231 451.049L43.4062 450.765L43.9725 450.624L44.3972 451.049L44.5388 451.758L44.3972 452.466L44.2556 453.175V453.884L44.1141 454.026L43.6894 455.018L43.2647 455.443L42.4152 455.585L41.4242 456.01L41.1412 456.294Z" fill="#ECECEC" stroke="black" stroke-width="0.467222" stroke-linecap="round" stroke-linejoin="round"/>
<path d="M13.3889 449.915L13.8133 449.773L14.0962 450.199L14.3791 450.907L14.0962 451.333L14.2377 451.9L13.3889 453.317L13.2475 453.175L13.106 452.608L12.5402 451.333L12.3987 450.907L12.2573 450.624L12.5402 450.057L12.9646 449.773L13.3889 449.915Z" fill="#ECECEC" stroke="black" stroke-width="0.467222" stroke-linecap="round" stroke-linejoin="round"/>
<path d="M47.5071 447.08V447.647L47.224 448.355L46.233 449.064L45.5251 449.206L44.9588 449.915L44.251 449.631V449.489L44.5341 448.922V448.355L44.8173 447.93L45.242 447.647H45.6667L46.0914 447.221H46.7993L46.9408 447.08L47.224 446.371L47.5071 446.229L47.7902 446.513L47.5071 447.08Z" fill="#ECECEC" stroke="black" stroke-width="0.467222" stroke-linecap="round" stroke-linejoin="round"/>
<circle cx="406.626" cy="198.401" r="10.5125" fill="#4169F4" fill-opacity="0.2"/>
<circle cx="406.626" cy="198.401" r="5.84028" fill="#4169F4"/>
<circle cx="217.401" cy="256.804" r="10.5125" fill="#4169F4" fill-opacity="0.2"/>
<circle cx="217.401" cy="256.804" r="5.84028" fill="#4169F4"/>
<line x1="215.893" y1="256.855" x2="407.454" y2="198.452" stroke="#4169F4" stroke-width="2.33611"/>
</g>
<defs>
<filter id="filter0_dd_118_23723" x="227.775" y="145.839" width="147.453" height="130.611" filterUnits="userSpaceOnUse" color-interpolation-filters="sRGB">
<feFlood flood-opacity="0" result="BackgroundImageFix"/>
<feColorMatrix in="SourceAlpha" type="matrix" values="0 0 0 0 0 0 0 0 0 0 0 0 0 0 0 0 0 0 127 0" result="hardAlpha"/>
<feMorphology radius="4.67222" operator="erode" in="SourceAlpha" result="effect1_dropShadow_118_23723"/>
<feOffset dy="9.34444"/>
<feGaussianBlur stdDeviation="7.00833"/>
<feColorMatrix type="matrix" values="0 0 0 0 0.0627451 0 0 0 0 0.0941176 0 0 0 0 0.156863 0 0 0 0.03 0"/>
<feBlend mode="normal" in2="BackgroundImageFix" result="effect1_dropShadow_118_23723"/>
<feColorMatrix in="SourceAlpha" type="matrix" values="0 0 0 0 0 0 0 0 0 0 0 0 0 0 0 0 0 0 127 0" result="hardAlpha"/>
<feMorphology radius="9.34444" operator="erode" in="SourceAlpha" result="effect2_dropShadow_118_23723"/>
<feOffset dy="28.0333"/>
<feGaussianBlur stdDeviation="18.6889"/>
<feColorMatrix type="matrix" values="0 0 0 0 0.0627451 0 0 0 0 0.0941176 0 0 0 0 0.156863 0 0 0 0.08 0"/>
<feBlend mode="normal" in2="effect1_dropShadow_118_23723" result="effect2_dropShadow_118_23723"/>
<feBlend mode="normal" in="SourceGraphic" in2="effect2_dropShadow_118_23723" result="shape"/>
</filter>
<clipPath id="clip0_118_23723">
<rect width="592" height="461" rx="10" fill="white"/>
</clipPath>
</defs>
</svg>
