<?xml version="1.0" encoding="utf-8"?><svg xmlns="http://www.w3.org/2000/svg" xmlns:xlink="http://www.w3.org/1999/xlink"><symbol viewBox="0 0 24 24" id="icon-telegram"><path fill-rule="evenodd" clip-rule="evenodd" d="M17.67 20.349c.292.206.668.258 1.004.131.335-.128.582-.414.656-.762.788-3.703 2.7-13.076 3.417-16.444a.708.708 0 00-.236-.688.726.726 0 00-.723-.127c-3.802 1.408-15.51 5.8-20.296 7.572a.75.75 0 00-.492.724c.011.321.227.6.538.693 2.146.642 4.964 1.535 4.964 1.535s1.316 3.976 2.003 5.998a.794.794 0 00.546.522.786.786 0 00.736-.187l2.807-2.65s3.239 2.374 5.076 3.683zM7.687 12.48l1.522 5.021.338-3.18 9.236-8.33a.252.252 0 00.03-.34.258.258 0 00-.341-.059L7.687 12.481z"/></symbol><symbol viewBox="0 0 24 24" id="icon-youtube"><path d="M19.247 19H4.18C2.424 19 1 17.629 1 15.937v-8.06c0-1.692 1.424-3.063 3.18-3.063h15.067c1.756 0 3.18 1.371 3.18 3.063v8.06c0 1.692-1.424 3.063-3.18 3.063zM9.37 8.683v6.448l5.692-3.224L9.37 8.683z"/></symbol></svg>