<?xml version="1.0" encoding="utf-8"?><svg xmlns="http://www.w3.org/2000/svg" xmlns:xlink="http://www.w3.org/1999/xlink"><symbol viewBox="0 0 1000 1000" id="icon-arrowheads"><path d="M263 953.001h-84.1v-924.8h83.3v83.2h83.9v84.2h84.3v83.7h84.2v84.6H599v84.2h83.5v84.2h-83.4v84.3h-83.7v84.2h-84.3v84.1h-23c-17.4 0-34.9.3-52.3-.2-7.3-.2-9.7 1.9-9.5 9.4.4 24.6.2 49.2.2 74.7h-83.4c-.1 28.3-.1 55.7-.1 84.2zM516.5 110.801h-85v-82.7h83.8v11.3c.3 23.9.7 47.8 1 71.6l.2-.2zM683.9 278.701c17.3.4 34.6.8 51.9 1.1 10.1.2 20.2 0 31.8 0 0 6.6-.1 12.4 0 18.1.4 21.8.9 43.7 1.3 65.5l.2-.2h-85v-84.8l-.2.3zM768.8 617.301c-.4 11.4-1.1 22.7-1.2 34.1-.2 16-.1 32-.1 49.7h-12.1c-23.9.3-47.7.7-71.6 1.1l.2.2v-84.9h85l-.2-.2zM516.2 869.701c-.3 19.3-.7 38.6-1 57.9-.1 8.1 0 16.3 0 25.2h-83.7v-82.8h84.9l-.2-.3z"/><path d="M516.2 111.101h82.6c0 13 .2 24.7 0 36.3-.3 16.6-.8 33.3-1.2 49.9l.2-.2c-22.6-.3-45.2-.7-67.9-1-4.5-.1-9 0-14.8 0 0-20-.1-38.9.1-57.9.1-9.1.8-18.2 1.2-27.4.1 0-.2.3-.2.3zM684.1 278.401c-9.4.4-18.8 1.2-28.2 1.3-18.6.2-37.2.1-58 .1v-82.7s-.2.2-.3.2c14-.4 28-.9 42-1.1 14.1-.2 28.1 0 44.2 0v82.6c.1-.1.3-.4.3-.4zM850.2 449.701c-13-.4-26-1-38.9-1.2-14-.2-28 0-42.8 0-.3-3.5-.8-6.3-.8-9-.1-22.6-.1-45.1 0-67.7 0-2.8.9-5.6 1.5-8.5 0 0-.2.2-.2.1 22.9.2 45.8.5 68.7.7h13.8c0 22.6.1 44.5-.1 66.3 0 6.5-.9 13-1.3 19.4l.1-.1zM850.1 449.901c8.8-.5 17.5-1.2 26.3-1.3 19.3-.2 38.7-.1 58.7-.1v83.9c-18.6 0-37.1.2-55.7-.1-9.8-.1-19.5-.9-29.3-1.3l.2.2c.4-23.4.8-46.7 1.1-70.1 0-3.8-.7-7.6-1.1-11.4-.1 0-.2.2-.2.2zM769 617.501c-.5-5.4-1.4-10.9-1.4-16.3-.2-22.5-.1-45-.1-68.8 13.6 0 26.3.1 38.9 0 14.6-.2 29.3-.7 43.9-1.1l-.2-.2c.4 10.1 1.2 20.2 1.3 30.2.2 18 .1 36 .1 56h-82.6c-.1 0 .1.2.1.2zM683.8 702.101v82.8c-19.2 0-37.1.2-55-.1-10.4-.1-20.8-.9-31.2-1.4l.2.2c.3-18.3.8-36.7 1-55 .1-8.8 0-17.6 0-27.6 20 0 38.9-.1 57.9.1 9.1.1 18.2.8 27.4 1.2l-.3-.2zM516.4 869.901c-.4-11.7-1.1-23.5-1.2-35.2-.2-16.1-.1-32.1-.1-49.8 4.5 0 8.2.1 12 0l70.6-1.2-.2-.2c.4 12.7 1 25.4 1.2 38.2.2 15.4.1 30.8.1 48h-82.7c.1 0 .3.2.3.2z"/></symbol><symbol viewBox="0 0 1000 1000" id="icon-chat"><path d="M520.7 853.3v59H400.2V792.4H38.9v-703c2.9-.2 5.8-.4 8.7-.4h909.2c2.1 0 4.2.1 6.3.2v702.5c-3 .2-6 .6-9 .6H581.8v-59.9H902V149.6H99.2v582.1h361.3v121.9H521l-.3-.3z"/><path d="M359.9 511.7h-59.6V329.4h59.6l-.2-.3v182.8l.2-.2zM661.3 329.5h59.8v182.3h-59.8l.2.2V329.3l-.2.2z"/><path d="M359.9 329.5v-59.1h120.8v59l.3-.2c-20.7.3-41.3.7-62 .7-19.8 0-39.5-.5-59.3-.7l.2.3zM540.5 329.4v-59h120.8v59.1l.2-.2c-29.4.3-58.7.6-88.1.7-11.1 0-22.1-.5-33.2-.8l.3.2zM481 571.2H359.9v-59.5l-.2.3c2.4-.3 4.7-.8 7.1-.8 35.7-.1 71.4 0 107.1 0 2 0 4 .4 6.8.8v59.6l.3-.4zM661.3 511.7v59.5H540.2l.3.3v-60.4c34 0 66.4-.1 98.7 0 7.4 0 14.9.5 22.3.8l-.2-.2zM520.9 853.6v-60.7h59.6v60.4h-59.8l.2.3z"/><path d="M480.7 329.4h59.8l-.3-.2v60.7h-59.3v-60.7l-.2.2zM540.2 571.2v59.7H481v-59.7l-.3.3h59.8l-.3-.3z"/></symbol><symbol viewBox="0 0 1000 1000" id="icon-hat"><path d="M120.7 880.9c22-.3 44-.7 66-.9 14-.1 28 0 43.2 0V771.9H284v107.4h108.4V772.2h54.2v107.2h108.3V772.1h54.6v107.4h108.3V772h54.4v108h95c4.8 0 9.5.5 14.3.8l-.3-.3v53H121v-52.9c-.1 0-.3.3-.3.3zM881 663.2h-54.3v-61.8c0-66.6 0-133.3.1-199.9 0-3.8.8-7.6 1.2-11.3l-.1.2c8.1.6 16.2 1.4 24.3 1.7 9.2.3 18.4.1 28.7.1v271.4c-.2-.1.1-.4.1-.4zM121.8 663.8l-.3-198.4v-72.5h53.4v270.5h-53.4l.3.4zM391 120.2c.5-10.7 1.1-21.4 1.5-32.1.2-6.6 0-13.3 0-20.5h217.1c0 12.2-.2 24.5.1 36.7.1 5.3 1 10.5 1.5 15.8l.2-.1c-19.1.3-38.2.8-57.2.9-51.3.1-102.6.1-153.8.1-3.2 0-6.3-.6-9.5-.9l.1.1zM121.4 663.5c0 69 0 138-.1 206.9 0 3.5-.4 7-.7 10.4l.2-.3h-53V663.6h53.8c.2.2-.2-.1-.2-.1z"/><path d="M881.3 880.8c-.2-28-.6-56-.6-83.9 0-44.5.1-89.1.2-133.6l-.3.3h53.3v217H881c.1-.1.3.2.3.2zM231.4 284.4c-.5 19-1.1 38-1.3 57-.2 16.5 0 33 0 50.1h-53.8v-107h55.4l-.3-.1zM827.8 390.2c-6.5.7-13.1 1.8-19.6 1.9-11.7.3-23.4.1-36.1.1v-27.8c0-23.3.1-46.5-.1-69.8 0-3.4-.9-6.7-1.4-10.1l-.2.1h56.1c0 16.9-.1 33.7 0 50.5.2 18.4.7 36.8 1 55.2.2 0 .3-.1.3-.1z"/><path d="M231.6 284.6c-.5-2.1-1.5-4.2-1.5-6.3-.1-32.4-.1-64.8 0-97.3 0-1.5.4-3.1.8-5.9 13.6 0 27.2.1 40.8-.1 4-.1 8-.9 12-1.4l-.2-.2v111h-52.1l.2.2zM718.3 173.8c11.7.4 23.3 1 35 1.3 6 .2 11.9 0 18.8 0v44c0 18.4.1 36.9-.1 55.3 0 3.4-1 6.7-1.5 10.1 0 0 .2-.1.1-.1h-50.5c-1.3-1.9-2-2.4-2-2.9l.3-108.1-.1.4z"/><path d="M390.8 120c.8 17.9 1.6 35.8 2.5 54.5-4.7.3-7.8.6-10.9.6-29.6 0-59.2.1-88.8 0-3.4 0-6.7-1-10.1-1.6l.2.2v-53.4h107.4l-.3-.3zM718.6 173.5c-1.1.5-2.3 1.4-3.4 1.4-34.6.1-69.3.1-103.8.1v-55s-.2.1-.1.1c20.6.3 41.2.6 61.9.8 14.6.1 29.1 0 45.2 0v52.9c-.1 0 .2-.3.2-.3zM446.5 664v52.8h-53.3V664h53.3zM555.6 716.7v-52.6h53.3v52.6h-53.3zM230.5 716.8V664h53.2v52.8h-53.2zM771.6 664.2v52.4h-53.2v-52.4h53.2z"/></symbol><symbol viewBox="0 0 1000 1000" id="icon-heart"><path d="M339.2 794.7v-83c0-15.1-4.7-19.9-19.6-19.9H206.9v-18.1-109.4c0-14.9-4.8-19.6-19.9-19.6H75.2V235.8h67.6c15.1 0 19.9-4.7 20-19.6v-58.8-9.8h66.8c17.4 0 21.5-4.1 21.5-21.8V74.7h88.3v52.1c0 16.4 4.4 20.8 20.6 20.8h67.7v39.3c0 14.6 4.8 19.5 19 19.6 36.5 0 72.9.1 109.4 0 13.6 0 18.6-5.1 18.7-19 .1-12.8 0-25.7 0-39.8h22.1c16.2 0 32.5.1 48.7 0 12-.1 17.3-5.5 17.4-17.5.2-18.1.2-36.1.3-54.2 0-.2.3-.5.8-1.3h87.2v51.7c0 17 4.2 21.3 20.9 21.3h67.3v38.7c0 10.7-.1 21.4 0 32.2.1 12 5.5 17.3 17.6 17.3 23.2.1 46.4 0 70.2 0v308.9H818.6c-19.9 0-23.2 3.4-23.2 23.7v123.4H682.3c-14.4 0-19.2 4.9-19.2 19.3v83.6h-98.7c-13.9 0-18.9 5-19 18.7-.1 34.3 0 68.6 0 102.9v10.3h-88.3V917 814.1c0-14.4-4.9-19.3-19.3-19.3-32.7-.2-65.1-.1-98.6-.1z"/></symbol><symbol viewBox="0 0 1000 1000" id="icon-mobile-phone"><path d="M742.2 871.999c0 18.3.1 36.6.1 55h-483c0-18.3.1-36.6.1-55l-.3.2c3.3-.2 6.6-.7 9.9-.7h463.5c3.3 0 6.6.5 9.9.7l-.2-.2z"/><path d="M259.4 871.999h-54.5v-742.7h54.5l-.2-.3c.2 3.6.5 7.2.5 10.8v721.6c0 3.6-.3 7.2-.5 10.8l.2-.2zM742.2 129.399h54.5v742.7h-54.6l.3.2c-.2-3.6-.5-7.2-.5-10.8v-721.6c0-3.6.3-7.2.5-10.8l-.2.3z"/><path d="M259.4 129.399v-54.5h482.9v54.5l.2-.3c-3.3.2-6.6.7-9.9.7H269.1c-3.3 0-6.6-.5-9.9-.7-.1 0 .2.3.2.3zM685.5 703.999H316.1v-517.7h369.4v517.7zm-55.1-462.3H371.5v406.5h258.9v-406.5zM537.1 815.199h-72.8v-54.5h72.8v54.5z"/></symbol><symbol viewBox="0 0 208 208" id="icon-monster"><path fill-rule="evenodd" clip-rule="evenodd" d="M80.093 18.374c-7.015 1.217-10.679 2.43-18.795 6.224-4.144 1.936-9.205 9.155-9.205 13.13 0 2.77-.437 3.138-5.705 4.82-4.836 1.542-6.349 2.657-9.932 7.32-14.694 19.116-21.05 47.956-15.426 69.999 4.574 17.929 8.674 25.875 20.561 39.853 3.906 4.592 16.834 14.289 23.581 17.687 10.424 5.249 22.83 8.537 34.67 9.185 7.232.397 10.251.93 10.251 1.812 0 .687.712 1.522 1.582 1.856 3.711 1.424 7.112.477 11.601-3.232 4.415-3.649 4.926-3.817 10.263-3.374 6.492.538 9.554-1.301 9.554-5.741 0-2.433.28-2.612 3.497-2.236 6.078.709 8.467-.474 10.574-5.239 1.315-2.972 2.715-4.551 4.412-4.977 2.438-.612 4.336-4.46 3.149-6.381-.307-.495-.103-2.545.452-4.555.957-3.466 4.793-6.658 8-6.658 4.183 0 11.801-15.81 14.841-30.799 1.526-7.525 1.331-23.854-.383-32-1.906-9.062-5.602-18.76-10.025-26.307-3.23-5.51-3.466-6.416-2.544-9.735 1.803-6.494 1.508-7.159-3.181-7.159-3.921 0-4.653-.477-10.75-7.008-7.327-7.85-9.962-8.686-14.655-4.649l-2.724 2.343-2.932-3.34c-3.219-3.666-13.245-8.864-21.166-10.973-6.432-1.713-29.371-1.636-39.565.134zm35.556 6.864c8.31 1.784 16.701 5.94 19.907 9.858 1.471 1.8 3.315 4.06 4.097 5.021 2.07 2.55 4.913 2.151 8.765-1.23l3.395-2.98 4.207 4.988c2.314 2.745 5.55 5.684 7.191 6.533 2.273 1.175 2.835 2.013 2.358 3.514-.425 1.34.707 4.083 3.527 8.547 12.459 19.728 15.689 39.906 9.915 61.949-2.382 9.096-7.368 19.429-9.375 19.429-2.655 0-8.606 4.222-10.145 7.197-.84 1.626-1.844 4.807-2.231 7.07-.605 3.548-1.139 4.228-3.871 4.936-3.438.891-4.844 3.494-3.75 6.943.602 1.897.406 2.059-1.682 1.396-6.082-1.931-8.578-1.789-10.241.585-.893 1.275-1.623 3.525-1.623 5 0 2.546-.201 2.656-3.94 2.154-5.341-.716-8.399.2-12.403 3.715-3.38 2.968-3.38 2.968-5.216.939-1.547-1.71-2.632-1.938-6.889-1.447-7.18.827-21.642-1.689-31.361-5.457-22.092-8.566-39.014-26.565-46.24-49.186-7.215-22.583-3.781-45.126 10.182-66.845 4.525-7.039 5.001-7.375 13.367-9.417 3.85-.94 8.013-2.366 9.25-3.169 2.93-1.9 3.041-6.746.2-8.736-1.963-1.376-1.975-1.51-.273-3.212 7.169-7.17 36.37-11.64 52.879-8.095zM81.704 58.4c-2.008 2.008-2.983 7.474-2.344 13.142 1.075 9.542 8.389 11.03 10.769 2.192 2.735-10.157-3.059-20.7-8.425-15.334zm38.496.583c-3.616 3.882-3.862 13.304-.486 18.635 3.065 4.84 8.278 1.327 9.12-6.147 1.263-11.198-3.465-18.036-8.634-12.488zM81.536 88.333c-2.048 2.048-2.443 3.414-2.443 8.441 0 7.119 1.502 10.93 4.615 11.711 3.01.756 4.124-.057 5.9-4.309 2.692-6.442.863-15.885-3.38-17.455-1.743-.644-2.798-.282-4.692 1.612zm39.962-1.437c-3.246 1.227-5.083 8.978-3.521 14.862 1.53 5.764 3.212 7.553 6.36 6.763 3.189-.801 4.756-4.513 4.756-11.267 0-8.13-2.928-12.123-7.595-10.358zm31.595 11.471c0 .935.946 1.5 2.512 1.5 2.389 0 2.48.207 1.866 4.25-1.805 11.882-6.932 22.108-15.378 30.669-21.452 21.745-54.534 21.747-76 .005-8.063-8.167-12.607-16.847-14.835-28.336-1.581-8.15-1.796-8.582-4.268-8.585-2.529-.003-2.591.147-2.171 5.247 1.924 23.366 18.136 43.549 41.274 51.387 7.833 2.653 28.236 2.639 36-.024 19.469-6.68 33.681-21.308 39.388-40.545.887-2.987 1.612-7.149 1.612-9.25 0-3.576.19-3.818 3-3.818 2.333 0 3-.444 3-2 0-1.833-.667-2-8-2-6.444 0-8 .292-8 1.5z"/></symbol><symbol viewBox="0 0 1000 1000" id="icon-note"><path d="M724 977H35V44.2h690.1v263.3c8.6 0 16.2-.1 23.7 0 12.7.3 25.4.8 38 1.2l-.1-.2v59.6h59.9V429H907v61.3h-61v60.5h-60.2v61h-60.9V965c-.2 4.2-.6 8.1-.9 12zM419.4 672.7v-61h62.4v-61.1h60.5v-60.5h61.2v-61.3h59.9V104.5h-10.3c-182 0-363.9.1-545.9-.2-9.2 0-11.6 2.2-11.6 11.5.3 263.1.3 526.1 0 789.2 0 9.5 2.7 11.4 11.7 11.4 182-.3 363.9-.2 545.9-.2h10.3V734H603v60.9h-61.4v-61.5h-60.2v-60.7h-62zM968.3 428.3h-60.2V308h60.2v120.3z"/><path d="M786.8 308.9v-61.6h120v60.4H796.4c-3.3 0-6.5.7-9.8 1 .1 0 .2.2.2.2zM419.7 672.5c.2 26.7.5 53.3.7 80 .1 13.6 0 27.2 0 42.2h121.4v59.8H177.7v-59.6h181.4V672.5h60.6zM177.4 245.8v-59.5h404.9v59.5H177.4zM177.5 388v-59.7h404.8V388H177.5z"/></symbol><symbol viewBox="0 0 1000 1000" id="icon-notes"><path d="M160.4 891.7H77.9V112.2h82.5l-.3-.4c.5 5.1 1.4 10.2 1.4 15.4.1 249.9.1 499.7 0 749.6 0 5.1-.9 10.2-1.4 15.4l.3-.5zM841.5 891.8V978h-681v-86.3l-.3.4c5.6-.2 11.2-.4 16.9-.4 159.7 0 319.4-.1 479.1 0 61.9 0 123.8.3 185.7.4l-.4-.3zM841.6 283.8h82.5v608h-82.6l.4.3c-.5-5.1-1.4-10.2-1.4-15.4-.1-192.7-.1-385.3 0-578 0-5.1.9-10.3 1.4-15.4l-.3.5zM160.4 112.2l1.2-67.3c.1-6 0-12 0-18.9h508.1v86.1l.4-.3c-5.2.1-10.4.4-15.5.4-97.8 0-195.5.1-293.3 0-67-.1-134.1-.3-201.1-.4l.2.4zM669.8 112.2h85.8v85.9l.4-.4h-85.8v-85.8l-.4.3z"/><path d="M755.6 198.1h86v85.7l.3-.4H756v-85.7l-.4.4zM246.7 718.2v-85.3h508.1v85.3H246.7zM247.5 460.1h507.1v83.2H247.5v-83.2zM247.1 371.2v-85.9h337.8v85.9H247.1z"/></symbol><symbol viewBox="0 0 1000 1000" id="icon-notice"><path d="M911.2 391.6c18.6 0 37.2-.1 55.8-.1v132c-18.6 0-37.2-.1-55.8-.1l.2.2c-.2-3.3-.7-6.7-.7-10-.1-36.5-.1-73.1 0-109.6 0-4.2.5-8.4.7-12.6l-.2.2zM269.9 937.9c0-18.6.1-37.2.1-55.8l-.3.2c19.4-.3 38.7-.7 58.1-.7 18.5 0 37 .4 55.5.7l-.2-.2c0 18.6.1 37.2.1 55.8H269.9z"/><path d="M270 882.1h-55.8V618.4h-56.7v-57h-56.3V354.5h55.6V298h57v-56.9h291.5c3.4 0 6.8-.2 10.1-.3v56.8H365v320.3h150.7v55.6l.2-.2c-14.6.3-29.2.7-43.8.9-10.4.1-20.8 0-32.3 0v207.9h-56.6l.2.2V674.8H270.1v98.5l-.3 109 .2-.2zM797.7 127.4h56v207.7h57.4v56.5l.2-.3h-56.9v132.2h56.9l-.2-.2v56.6h-57v208h-55.8l.2.1c-.3-2.5-.9-4.9-.9-7.4V130.7c0-1.1.1-2.2.1-3.3z"/><path d="M515.7 673.5c22.2.2 44.4.5 66.7.7 14.9.1 29.8 0 45.2 0v56H515.9v-56.9l-.2.2zM684.3 127.6V72.3h113.6v55.3H684.3zM515.1 241v-56h113.6v56H515.1zM684.2 787.7l114.4.3s-.2-.2-.2-.1c-.3 14.6-.5 29.1-.8 43.7-.1 3.6 0 7.2 0 11.4H684.4v-55.6l-.2.3z"/><path d="M628.5 185.1v-57.8h56v57.8h-56zM684.4 787.4h-55.8v-56h55.6v56.2c0 .1.2-.2.2-.2z"/></symbol><symbol viewBox="0 0 1000 1000" id="icon-play"><path d="M257.3 53H338v80.8h81.2v81.5h81.6v81.1h81.4v81.9H664v81.5h80.7v81.3h-80.2v81.7h-81.8v81.8h-81.6v81.1h-81.5v81.5h-81.1v81.1h-81.3c.1-298.4.1-596.4.1-895.3z"/></symbol><symbol viewBox="0 0 22 22" id="icon-preview"><path d="M13 0v2h5.563L6.28 14.281 7.72 15.72 20 3.438V9h2V0h-9zM0 4v18h18V9l-2 2v9H2V6h9l2-2H0z"/></symbol><symbol viewBox="0 0 1000 1000" id="icon-smile"><path d="M969 677.9c-20.1 0-40.2-.1-60.3-.1l.2.2c-.3-3-.7-6-.7-9V321.4c0-3 .5-6 .7-9l-.2.2c20.1 0 40.2-.1 60.3-.1v365.4zM683.8 902.7c0 20.1.1 40.2.1 60.3H318.4c0-20.1.1-40.2.1-60.3l-.2.2c3-.3 6-.7 9-.7h347.6c3 0 6 .5 9 .7l-.1-.2zM318.6 87.7V28h365.2v59.7l.2-.2c-3 .3-6 .7-9 .7H327.4c-3 0-6-.5-9-.7l.2.2zM93.7 677.8H34V312.6h59.7l-.2-.2c.3 3 .7 6 .7 9V669c0 3-.5 6-.7 9l.2-.2z"/><path d="M216.3 150V87.7h102.4l-.2-.2v62.2H216.1l.2.3zM683.8 87.7l90.3.6h12.1V150l.2-.3H684V87.5l-.2.2zM93.7 312.6l.6-90.3v-12.1H156l-.3-.2v102.4H93.5l.2.2zM846.4 210.3h62.3v102.4l.2-.2h-62.2V210.1l-.3.2zM156 780.2H93.7V677.8l-.2.2h62.2v102.4l.3-.2zM318.6 902.7l-90.3-.6h-12.1v-61.7l-.2.3h102.4v62.2l.2-.2z"/><path d="M156 210.3V150h60.3l-.2-.3V210h-60.3l.2.3zM786.2 150h60.3v60.3l.3-.2h-60.3v-60.3l-.3.2zM216.3 840.4H156v-60.3l-.3.2H216v60.3l.3-.2zM908.7 677.8l-.6 90.3v12.1h-61.7l.3.2V678h62.2c-.1 0-.2-.2-.2-.2zM786.2 840.4v62.3H683.8l.2.2v-62.2h102.4l-.2-.3z"/><path d="M846.4 780.2v60.3h-60.3l.2.3v-60.3h60.3l-.2-.3zM378.2 515.1H257.7v-243h120.5v243zM624 272.1h120.8v242.7H624V272.1zM663.1 717.2v62.3H339.4v-62.3l-.2.2c3.2.5 6.4 1.4 9.6 1.4 101.6.1 203.2.1 304.8 0 3.2 0 6.4-.9 9.6-1.4l-.1-.2zM339.3 717.2c-5.9.6-11.9 1.5-17.8 1.6-14.2.2-28.5.1-43.3.1v-121h60.4v22.8l.6 96.7.1-.2zM663.2 717.4l.6-105.9v-14h60.4v121.3c-6.2 0-12.4.2-18.6 0-14.2-.4-28.3-1.1-42.5-1.6l.1.2z"/></symbol><symbol viewBox="0 0 1000 1000" id="icon-starry-night"><path d="M973.9 823c-27.6-.1-55.2-.1-82.8-.2l.4.3v-60.7l-.4.3c27.6-.1 55.2-.1 82.8-.2V823zM484.6 966c.1-27.6.1-55.2.2-82.8l-.3.4h60.7l-.3-.4c.1 27.6.1 55.2.2 82.8h-60.5zM382.1 88.1V28.2h305.8v59.9l.2-.2c-3 .3-6 .7-9 .7H390.9c-3 0-6-.5-9.1-.8l.3.3zM687.9 619.5v60.1H382.1v-60.1l-.3.2c3.3-.1 6.7-.4 10-.4H679c3 0 6.1.2 9.1.4l-.2-.2zM259.2 496.7h-59.9V211.1h59.9l-.2-.3c.3 3 .9 6 .9 9v268.1c0 3-.6 6-.9 9l.2-.2z"/><path d="M687.9 88.2c18 .2 36 .5 54 .5 5 0 7.9.8 7.9 6.9-.2 37.3-.1 74.5-.2 111.8 0 .9-.4 1.7-.8 3.1-1.6.2-3.4.6-5.1.6H549.5c-1.5 0-3-.3-4.6-.4l.3.3v-61h142.9V88l-.2.2zM544.9 497h204.2v122.6h-61.2l.3.2v-61.9H545.3v-61.1l-.4.2zM484.5 273.2v163.3l.2-.3h-60.8V273.4h60.9l-.3-.2zM118.3 762.8c-.4-14.6-.8-29.2-1-43.8-.2-12.5 0-24.9 0-38.1h61.2v81.8l.3-.3h-60.7c-.1 0 .2.4.2.4zM831.1 762.8v-81.9h60.5c.2 3 .6 5.9.6 8.8.1 21.3.1 42.7 0 64 0 3-.7 6-1.1 9l.4-.3h-60.7l.3.4zM118.4 822.9H36.3v-60.1h82l-.4-.4v60.7l.5-.2z"/><path d="M178.4 822.9v81.2h-61.2c0-11.8-.1-23.3 0-34.8.2-15.5.7-30.9 1.1-46.4l-.4.3h60.7l-.2-.3zM484.8 883.2c-12.1.4-24.3.9-36.4 1.1-14.9.2-29.8 0-45.2 0v-61.2h81.6l-.3-.3v60.7l.3-.3zM544.9 823.2h81.8v60.5c-3 .2-5.9.6-8.9.6-21.3.1-42.7.1-64 0-3 0-6-.7-9-1.1l.3.4v-60.7l-.2.3zM891.1 822.9c.4 17.9.8 35.8 1.1 53.7.1 9.1 0 18.1 0 27.7H831v-81.4l-.3.3h60.7c.2 0-.3-.3-.3-.3z"/><path d="M484.7 823.2v-80.8h60.2v80.8l.3-.3h-60.7l.2.3zM178.4 762.8h80.8v60.1h-80.8l.3.3v-60.7l-.3.3zM831.1 822.9h-80.8v-60.1h80.8l-.3-.3v60.7l.3-.3zM321.7 150.7V88.2h60.4l-.3-.2v62.4h-60.4l.3.3z"/><path d="M259.2 211.1v-60.4h62.5l-.3-.3v60.4H259l.2.3zM544.9 210.7v62.5h-60.4l.3.2V211h60.5l-.4-.3zM321.7 557.1h-62.5v-60.4l-.2.3h62.4v60.5l.3-.4z"/><path d="M382.1 619.5h-60.4V557l-.3.4h60.4v62.4l.3-.3zM484.5 436.6h60.4V497l.3-.3h-60.5v-60.4l-.2.3z"/></symbol><symbol viewBox="0 0 24 24" id="icon-telegram"><path fill-rule="evenodd" clip-rule="evenodd" d="M17.67 20.349c.292.206.668.258 1.004.131.335-.128.582-.414.656-.762.788-3.703 2.7-13.076 3.417-16.444a.708.708 0 00-.236-.688.726.726 0 00-.723-.127c-3.802 1.408-15.51 5.8-20.296 7.572a.75.75 0 00-.492.724c.011.321.227.6.538.693 2.146.642 4.964 1.535 4.964 1.535s1.316 3.976 2.003 5.998a.794.794 0 00.546.522.786.786 0 00.736-.187l2.807-2.65s3.239 2.374 5.076 3.683zM7.687 12.48l1.522 5.021.338-3.18 9.236-8.33a.252.252 0 00.03-.34.258.258 0 00-.341-.059L7.687 12.481z"/></symbol><symbol viewBox="0 0 1000 1000" id="icon-thunder"><path d="M396.8 976H274.2c-.2-4-.7-8-.7-12V657.6v-12.5H108.9V396.8h61.6V210.6h61.7V25.8h660.5v123.6h-61.4v61.8h-61.8v62.3H707v62.1h-61.8v61.8h-61v62.2h184.7v144.6h-61.6v61.7h-61.8v61.9h-62.1v62.6h-62.2v61.7h-61.7V914h-62.6c-.1 21.4-.1 41.7-.1 62z"/></symbol><symbol viewBox="0 0 1000 1000" id="icon-trophy"><path d="M972 417.8h-61.3V234.5H726.1V91.4H275.3V234H91v184H29.9V173.3h183.5V29.8h574v143.1h184.5c.1 81.7.1 163.3.1 244.9zM213.4 972V849.4h61.7v60.4h450.8v-60.4h62V972H213.4zM336.9 664.5h122.5v183.6H276.1v-60.2h121.3v-61.4h-60.2v-62.3l-.3.3zM664.1 664.2v61.6h-60.2v61.5h121.4v60.9H542V664.4h122.4l-.3-.2zM152.9 480.3h121.8v122.4h-61v-60.9h-60.6v-61.7l-.2.2zM848.1 480.1v61.4h-60.3v61.1h-61V480.3h121.6l-.3-.2z"/><path d="M153 296.3h121.7v121.8h-60.8v-60.7h-60.8c-.1-20.7-.1-40.5-.1-61.1zM726.5 296.3h121.7v60.5h-60.1v61h-61.5c-.1-40.3-.1-80.3-.1-121.5zM153.2 480H91.3v-60.7h61.6v61l.3-.3zM848.4 480.3v-61.1h61.4V480h-61.7c0 .1.3.3.3.3zM337.1 664.2H276V604h60.8v60.4c.1.1.3-.2.3-.2zM664.4 664.5v-60.8h60.9v60.5h-61.2l.3.3z"/></symbol><symbol viewBox="0 0 1000 1000" id="icon-users"><path d="M853 928H148.5c-.2-1.6-.7-3.3-.7-4.9V803.8c0-1.8.6-3.6 1-6.2h55V742h55.5v-55.7h110.8v-55.6h-55.2v-55.9h-56.3v-55.9h-54.5V240.1h54.8v-55.5h56.3v-55.9h55.4V73.9h260.5v55.5h55.4V185h55.7v55.4h55v279h-55.3V575h-55.6v55.9h-55v55.9h111.2v55.7h55.4v55.6h55.5v114.2c.3 5.2-.1 10.4-.4 15.7z"/></symbol><symbol viewBox="0 0 1000 1000" id="icon-visible"><path d="M395.8 255.7v-70.3h210.3v70.3l.3-.3h-211l.4.3zM606.2 745.3v70.3H395.9v-70.3l-.3.3h211l-.4-.3z"/><path d="M256.1 324.2v-68.6h139.7l-.3-.3V325c-25.8 0-50.1.1-74.4 0-21.8-.1-43.5-.6-65.3-.9l.3.1zM606.2 255.7h139.7v68.6l.3-.2c-1.7.3-3.5.9-5.2.9H611.2c-1.3 0-2.7-.5-4.7-.9v-68.7l-.3.3zM395.8 745.3H256.1v-68.6l-.3.2c1.7-.3 3.5-.9 5.2-.9h129.8c1.3 0 2.7.5 4.7.9v68.7l.3-.3zM745.9 676.8v68.6H606.2l.3.3V676c25.8 0 50.1-.1 74.4 0 21.8.1 43.5.6 65.3.9l-.3-.1zM185.1 395.3v-71h71l-.3-.2v71h-71l.3.2z"/><path d="M745.9 324.2h71v71l.3-.3h-71v-71l-.3.3zM256.1 676.8h-71v-71l-.3.3h71v71l.3-.3zM816.9 605.7v71h-71l.3.2v-71h71l-.3-.2zM116.5 466.4v-71.1h68.6l-.3-.3v70.9h-68.7l.4.5zM816.8 395.3h68.6v71.1l.4-.4h-68.7v-70.9l-.3.2z"/><path d="M116.6 534.6H46v-68.3h70.5l-.4-.4V535l.5-.4zM885.5 466.4H956v68.3h-70.6l.5.4V466l-.4.4z"/><path d="M185.1 605.7h-68.6v-71.1l-.5.4h68.7v71l.4-.3zM885.4 534.6v71.1h-68.6l.3.3v-70.9h68.7l-.4-.5zM395.8 466.4v-71h71l-.4-.3v71h-71l.4.3zM535.1 395.3h71v71l.3-.4h-71v-71l-.3.4zM466.9 605.7h-71v-71l-.3.4h71v71l.3-.4zM606.1 534.6v71h-71l.4.3v-71h71l-.4-.3z"/><path d="M466.9 395.3v-69.4h68.3v69.4l.4-.3h-69l.3.3zM395.8 534.6h-69.4v-68.3h69.4l-.3-.4v69l.3-.3zM606.1 466.4h69.4v68.3h-69.4l.3.4v-69l-.3.3zM535.1 605.7v69.4h-68.3v-69.4l-.4.3h69l-.3-.3z"/></symbol><symbol viewBox="0 0 1000 1000" id="icon-www"><path d="M664 903.9c0 19.7.1 39.4.1 59.1H345.5c0-19.7.1-39.4.1-59.1l-.2.2h58.9v-61.2h61.2v59.8h79.2v-59.8h60.6v61.2h58.9l-.2-.2zM963 664.1c-19.7 0-39.4-.1-59.1-.1l.2.2c-.3-3.5-.7-7.1-.7-10.6V496.5v-11.2H843v-60.5h60.4v-12.5c.2-22.3.5-44.6.8-67l-.2.2c19.7 0 39.4-.1 59.1-.1-.1 106.3-.1 212.5-.1 318.7zM345.7 105.8V47.3H664v58.5l.2-.2h-58.9v61.2h-61.2V107h-79.2v59.8h-60.6v-61.2h-58.9l.3.2zM105.8 664H47.3V345.7h58.5l-.2-.2v79.7h61.2v60.2h-60.4V653.7c0 3.5-.5 7.1-.7 10.6-.1-.1.1-.3.1-.3z"/><path d="M225.8 166.7v-60.4H336c3.3 0 6.5-.4 9.8-.6l-.2-.2.3 61.2-120.2-.3.1.3zM664 105.8l107.2.6H784v60.4l.2-.3-120.2.3.3-61.2-.3.2zM842.9 225.8h60.4V336c0 3.3.4 6.5.6 9.8l.2-.2h-60.9V225.7l-.3.1zM105.8 345.7l.6-107.2v-12.8h60.4l-.3-.2v119.9h-60.9l.2.3zM166.7 783.9h-60.4v-11-99.2c0-3.3-.4-6.5-.6-9.8l-.2.2h60.9V784l.3-.1zM345.7 903.9l-107.2-.6h-12.8v-60.4l-.2.3 120.2-.3-.3 61.2.3-.2z"/><path d="M166.7 225.8v-59h59l-.2-.3v59h-59l.2.3zM783.9 166.7h59v59l.3-.2h-59v-59l-.3.2zM225.8 842.9h-59v-59l-.3.2h59v59l.3-.2zM903.9 664l-.6 107.2V784h-60.4l.3.2V664.3h60.9l-.2-.3zM783.9 842.9v60.4H673.7c-3.3 0-6.5.4-9.8.6l.2.2-.3-61.2 120.2.3-.1-.3z"/><path d="M842.9 783.9v59h-59l.2.3v-59h59l-.2-.3zM166.5 485h118.9V286.4h60.3v257.4H664V286.4h59.7V485h119.5v59H724.4v179.2H664V605H345.7v118.2h-59.8V544.6H166.5V485z"/><path d="M345.4 843.2V723c15.7.3 31.4.6 47.2.8 3.8.1 7.6 0 12.1 0v119.3c-19.7.1-39.5.1-59.3.1zM664.2 723v120.2h-59.3V723h59.3zM605 166.5h59.3v120.2c-15.7-.3-31.4-.6-47.2-.8-3.8-.1-7.6 0-12.1 0V166.5zM345.4 286.7V166.5h59.3v120.2h-59.3z"/></symbol><symbol viewBox="0 0 24 24" id="icon-youtube"><path d="M19.247 19H4.18C2.424 19 1 17.629 1 15.937v-8.06c0-1.692 1.424-3.063 3.18-3.063h15.067c1.756 0 3.18 1.371 3.18 3.063v8.06c0 1.692-1.424 3.063-3.18 3.063zM9.37 8.683v6.448l5.692-3.224L9.37 8.683z"/></symbol></svg>