<svg width="24" height="28" viewBox="0 0 24 28" fill="none" xmlns="http://www.w3.org/2000/svg">
<mask id="mask0" mask-type="alpha" maskUnits="userSpaceOnUse" x="0" y="0" width="24" height="28">
<rect width="24" height="28" fill="#C4C4C4"/>
</mask>
<g mask="url(#mask0)">
<path d="M22.9887 4.284L21.1887 6.084C19.3407 4.116 16.8807 3.132 13.8087 3.132C10.6407 3.132 8.08466 4.212 6.14066 6.372C4.19666 8.532 3.22466 11.16 3.22466 14.256C3.22466 17.328 4.19666 19.944 6.14066 22.104C8.08466 24.264 10.6407 25.344 13.8087 25.344C16.7127 25.344 19.0047 24.792 20.6847 23.688V15.948H14.7447V13.68H23.2767V25.164C20.5167 26.82 17.3487 27.648 13.7727 27.648C9.93266 27.648 6.75266 26.388 4.23266 23.868C1.73666 21.324 0.488656 18.12 0.488656 14.256C0.488656 10.392 1.74866 7.2 4.26866 4.68C6.78866 2.136 9.95666 0.864 13.7727 0.864C17.5887 0.864 20.6607 2.004 22.9887 4.284Z" fill="white"/>
</g>
</svg>
