<svg width="99" height="27" viewBox="0 0 99 27" fill="none" xmlns="http://www.w3.org/2000/svg">
<path d="M10.486 20.1267H5.09354V4.61611H0V0H15.9263V4.61611H10.4979V20.1267H10.486Z" fill="white"/>
<path d="M25.3001 20.1267H18.0305L14.1685 6.03921H18.9989L20.2903 11.5642C20.8044 13.7407 20.8283 13.8244 21.1392 15.2116C21.2946 15.8454 21.4381 16.5032 21.5577 17.1729H21.6533C22.0718 15.0322 22.4664 13.1547 22.8012 11.5642L23.9729 6.03921H28.7436L25.3001 20.1267Z" fill="white"/>
<path d="M42.219 7.21118C43.2114 8.23964 43.582 9.62686 43.582 12.4611C43.582 18.9787 42.4103 20.2702 36.5276 20.2702C33.0243 20.2702 31.2188 19.6364 30.3101 18.0937C29.6406 16.9457 29.521 16.0368 29.521 12.6046C29.521 9.47139 29.8797 8.16788 31.0036 7.13942C32.1156 6.14684 33.383 5.87179 36.8265 5.87179C39.9352 5.88375 41.2266 6.2186 42.219 7.21118ZM34.1363 12.8557C34.1363 16.2401 34.495 16.838 36.5515 16.838C38.6081 16.838 38.9668 16.2401 38.9668 12.7362C38.9668 9.86604 38.5722 9.29201 36.5874 9.29201C34.5667 9.29201 34.1363 9.90192 34.1363 12.8557Z" fill="white"/>
<path d="M55.4668 21.0595C55.132 22.6022 54.5581 24.0492 54.1038 24.6471C53.1353 25.855 51.7483 26.3333 49.1537 26.3333C48.7591 26.3333 48.6994 26.3333 47.982 26.2975H47.7428V23.1284C48.1015 23.1642 48.3167 23.1642 48.4722 23.1642C50.1341 23.1642 50.8276 22.351 50.9711 20.1147H48.4363L44.2754 6.02725H49.1059L50.5287 11.7555L51.8918 17.4599H51.9516C52.3103 15.6182 52.6809 13.7168 53.0635 11.7555L54.2353 6.02725H58.9462L55.4668 21.0595Z" fill="white"/>
<path d="M78.1843 20.1267H72.7799V12.2219H65.7853V20.1267H60.3809V0H65.7853V7.60581H72.7799V0H78.1843V20.1267Z" fill="white"/>
<path d="M81.4368 0H91.5999C94.4934 0 95.7967 0.275055 96.9685 1.17197C98.2598 2.14063 98.75 3.55177 98.75 6.26642C98.75 9.19634 98.3913 10.5477 97.3869 11.337C96.8728 11.7555 96.3945 11.9349 94.9478 12.3056V12.5209C97.4467 12.6405 98.5946 13.8842 98.5946 16.4434V20.1267H93.1065V17.436C93.1065 15.4747 92.5325 14.7811 90.8466 14.7811H86.8292V20.1267H81.4248V0H81.4368ZM91.1216 10.2248C92.9032 10.2248 93.238 9.74644 93.238 7.03179C93.238 5.03467 92.8434 4.61611 90.8586 4.61611H86.8412V10.2248H91.1216Z" fill="white"/>
</svg>
