<svg width="99" height="27" viewBox="0 0 99 27" fill="none" xmlns="http://www.w3.org/2000/svg">
<path d="M10.486 20.1267H5.09354V4.61611H0V0H15.9263V4.61611H10.4979V20.1267H10.486Z" fill="url(#paint0_linear)"/>
<path d="M25.3001 20.1266H18.0305L14.1685 6.03906H18.9989L20.2903 11.564C20.8044 13.7405 20.8283 13.8243 21.1392 15.2115C21.2946 15.8453 21.4381 16.503 21.5577 17.1727H21.6533C22.0718 15.0321 22.4664 13.1546 22.8012 11.564L23.9729 6.03906H28.7436L25.3001 20.1266Z" fill="url(#paint1_linear)"/>
<path d="M42.219 7.21097C43.2114 8.23943 43.582 9.62665 43.582 12.4609C43.582 18.9785 42.4103 20.27 36.5276 20.27C33.0243 20.27 31.2188 19.6362 30.3101 18.0935C29.6406 16.9455 29.521 16.0366 29.521 12.6044C29.521 9.47119 29.8797 8.16768 31.0036 7.13922C32.1156 6.14664 33.383 5.87158 36.8265 5.87158C39.9352 5.88354 41.2266 6.21839 42.219 7.21097ZM34.1363 12.8555C34.1363 16.2399 34.495 16.8378 36.5515 16.8378C38.6081 16.8378 38.9668 16.2399 38.9668 12.736C38.9668 9.86583 38.5722 9.29181 36.5874 9.29181C34.5667 9.29181 34.1363 9.90171 34.1363 12.8555Z" fill="url(#paint2_linear)"/>
<path d="M55.4668 21.0596C55.132 22.6023 54.5581 24.0493 54.1038 24.6472C53.1353 25.8551 51.7483 26.3334 49.1537 26.3334C48.7591 26.3334 48.6994 26.3334 47.982 26.2976H47.7428V23.1285C48.1015 23.1643 48.3167 23.1643 48.4722 23.1643C50.1341 23.1643 50.8276 22.3511 50.9711 20.1148H48.4363L44.2754 6.02734H49.1059L50.5287 11.7556L51.8918 17.46H51.9516C52.3103 15.6183 52.6809 13.7169 53.0635 11.7556L54.2353 6.02734H58.9462L55.4668 21.0596Z" fill="url(#paint3_linear)"/>
<path d="M78.1843 20.1267H72.7799V12.2219H65.7853V20.1267H60.3809V0H65.7853V7.60581H72.7799V0H78.1843V20.1267Z" fill="url(#paint4_linear)"/>
<path d="M81.4368 0H91.5999C94.4934 0 95.7967 0.275055 96.9685 1.17197C98.2598 2.14063 98.75 3.55177 98.75 6.26642C98.75 9.19634 98.3913 10.5477 97.3869 11.337C96.8728 11.7555 96.3945 11.9349 94.9478 12.3056V12.5209C97.4467 12.6405 98.5946 13.8842 98.5946 16.4434V20.1267H93.1065V17.436C93.1065 15.4747 92.5325 14.7811 90.8466 14.7811H86.8292V20.1267H81.4248V0H81.4368ZM91.1216 10.2248C92.9032 10.2248 93.238 9.74644 93.238 7.03179C93.238 5.03467 92.8434 4.61611 90.8586 4.61611H86.8412V10.2248H91.1216Z" fill="url(#paint5_linear)"/>
<defs>
<linearGradient id="paint0_linear" x1="7.96313" y1="0" x2="7.96313" y2="20.1267" gradientUnits="userSpaceOnUse">
<stop stop-color="#1B3885"/>
<stop offset="1" stop-color="#28489A"/>
</linearGradient>
<linearGradient id="paint1_linear" x1="21.456" y1="6.03906" x2="21.456" y2="20.1266" gradientUnits="userSpaceOnUse">
<stop stop-color="#1B3885"/>
<stop offset="1" stop-color="#28489A"/>
</linearGradient>
<linearGradient id="paint2_linear" x1="36.5515" y1="5.87158" x2="36.5515" y2="20.27" gradientUnits="userSpaceOnUse">
<stop stop-color="#1B3885"/>
<stop offset="1" stop-color="#28489A"/>
</linearGradient>
<linearGradient id="paint3_linear" x1="51.6108" y1="6.02734" x2="51.6108" y2="26.3334" gradientUnits="userSpaceOnUse">
<stop stop-color="#1B3885"/>
<stop offset="1" stop-color="#28489A"/>
</linearGradient>
<linearGradient id="paint4_linear" x1="69.2826" y1="0" x2="69.2826" y2="20.1267" gradientUnits="userSpaceOnUse">
<stop stop-color="#1B3885"/>
<stop offset="1" stop-color="#28489A"/>
</linearGradient>
<linearGradient id="paint5_linear" x1="90.0874" y1="0" x2="90.0874" y2="20.1267" gradientUnits="userSpaceOnUse">
<stop stop-color="#1B3885"/>
<stop offset="1" stop-color="#28489A"/>
</linearGradient>
</defs>
</svg>
