<svg width="48" height="48" viewBox="0 0 48 48" fill="none" xmlns="http://www.w3.org/2000/svg">
<g clip-path="url(#clip0_213_30298)">
<path fill-rule="evenodd" clip-rule="evenodd" d="M24 48C10.7445 48 0 37.2555 0 24C0 10.7445 10.7445 0 24 0C37.2555 0 48 10.7445 48 24C48 37.2555 37.2555 48 24 48ZM15.6405 28.821L13.878 36H33.1905L34.5 30.6435H22.917L24.189 25.419L26.3295 24.5625L27.3495 20.4375L25.2345 21.294L27.513 12H19.8195L16.698 24.6435L14.532 25.5135L13.5 29.652L15.6405 28.821Z" fill="#3763A8"/>
<path d="M15.6405 28.821L13.878 36H33.1905L34.5 30.6435H22.917L24.189 25.419L26.3295 24.5625L27.3495 20.4375L25.2345 21.294L27.513 12H19.8195L16.698 24.6435L14.532 25.5135L13.5 29.652L15.6405 28.821Z" fill="white"/>
</g>
<defs>
<clipPath id="clip0_213_30298">
<rect width="48" height="48" fill="white"/>
</clipPath>
</defs>
</svg>
