<svg width="48" height="48" viewBox="0 0 48 48" fill="none" xmlns="http://www.w3.org/2000/svg">
<g clip-path="url(#clip0_213_30304)">
<path d="M23.9996 0C10.7471 0 0 10.7469 0 23.9998C0 26.6486 0.429375 29.1966 1.22213 31.5804H8.4V11.3874L24 26.9874L39.5996 11.3874V31.5802H46.7775C47.5708 29.1964 48.0002 26.6484 48.0002 23.9996C48 10.7464 37.2527 0 23.9996 0Z" fill="#FF751A"/>
<path d="M8.4 31.5805H1.23931C1.82911 33.3161 2.61719 34.9543 3.57703 36.4718H13.6048V23.7658L23.9998 34.1605L34.3948 23.7656V36.4718H44.423C45.3828 34.9543 46.171 33.316 46.7608 31.5803H39.5996V11.3875L24 26.9875L8.4 11.3875V31.5805Z" fill="white"/>
<path d="M20.4129 30.5741L13.6048 23.7658V36.4718H3.49219C7.70531 43.3836 15.3143 47.9993 23.9996 47.9993C32.685 47.9993 40.2947 43.3836 44.5072 36.4718H34.3948V23.7656L27.5867 30.5737L23.9998 34.1604L20.4133 30.5739L20.4129 30.5741Z" fill="#4C4C4C"/>
</g>
<defs>
<clipPath id="clip0_213_30304">
<rect width="48" height="48" fill="white"/>
</clipPath>
</defs>
</svg>
