<svg xmlns="http://www.w3.org/2000/svg">
    <symbol id="icon-search" viewBox="0 0 18 18">
        <path d="M16.2747 15.2171L13.4939 12.4571C14.5733 11.1104 15.0961 9.40104 14.9546 7.68054C14.8132 5.96004 14.0183 4.35915 12.7335 3.20705C11.4486 2.05494 9.77146 1.43919 8.04682 1.48641C6.32218 1.53364 4.68117 2.24023 3.46121 3.46092C2.24125 4.6816 1.53507 6.32359 1.48788 8.04925C1.44069 9.77492 2.05607 11.4531 3.20749 12.7387C4.35891 14.0243 5.95884 14.8197 7.67832 14.9612C9.3978 15.1027 11.1061 14.5796 12.452 13.4996L15.2104 16.2596C15.28 16.3299 15.3629 16.3857 15.4543 16.4237C15.5456 16.4618 15.6436 16.4814 15.7426 16.4814C15.8415 16.4814 15.9395 16.4618 16.0308 16.4237C16.1222 16.3857 16.2051 16.3299 16.2747 16.2596C16.4098 16.1197 16.4854 15.9328 16.4854 15.7383C16.4854 15.5438 16.4098 15.3569 16.2747 15.2171V15.2171ZM8.24701 13.4996C7.20927 13.4996 6.19484 13.1917 5.332 12.6148C4.46915 12.0379 3.79665 11.218 3.39952 10.2587C3.0024 9.29934 2.89849 8.24374 3.10094 7.22534C3.3034 6.20694 3.80311 5.27148 4.5369 4.53725C5.27069 3.80303 6.2056 3.30301 7.22339 3.10044C8.24119 2.89787 9.29616 3.00183 10.2549 3.39919C11.2136 3.79655 12.0331 4.46946 12.6096 5.33282C13.1862 6.19618 13.4939 7.21121 13.4939 8.24956C13.4939 9.64195 12.9411 10.9773 11.9571 11.9619C10.9731 12.9464 9.63857 13.4996 8.24701 13.4996V13.4996Z" />
    </symbol>
    <symbol id="icon-check" viewBox="0 0 14 14">
        <path d="M10.9141 4.20575C10.8599 4.15108 10.7953 4.10768 10.7243 4.07807C10.6532 4.04845 10.5769 4.0332 10.4999 4.0332C10.4229 4.0332 10.3467 4.04845 10.2756 4.07807C10.2045 4.10768 10.14 4.15108 10.0858 4.20575L5.73993 8.55742L3.9141 6.72575C3.85779 6.67136 3.79133 6.6286 3.71849 6.59989C3.64566 6.57119 3.56789 6.55712 3.48962 6.55847C3.41135 6.55982 3.33411 6.57658 3.26231 6.60779C3.19052 6.63899 3.12557 6.68403 3.07118 6.74034C3.01679 6.79664 2.97402 6.86311 2.94532 6.93594C2.91662 7.00877 2.90254 7.08654 2.9039 7.16481C2.90525 7.24309 2.92201 7.32032 2.95321 7.39212C2.98442 7.46392 3.02946 7.52886 3.08576 7.58325L5.32576 9.82325C5.37999 9.87793 5.44451 9.92132 5.51559 9.95094C5.58668 9.98055 5.66292 9.9958 5.73993 9.9958C5.81694 9.9958 5.89318 9.98055 5.96427 9.95094C6.03535 9.92132 6.09987 9.87793 6.1541 9.82325L10.9141 5.06325C10.9733 5.00863 11.0206 4.94233 11.0529 4.86854C11.0852 4.79475 11.1019 4.71506 11.1019 4.6345C11.1019 4.55394 11.0852 4.47426 11.0529 4.40047C11.0206 4.32667 10.9733 4.26038 10.9141 4.20575Z"/>
    </symbol>
    <symbol id="icon-telegram" viewBox="0 0 19 16">
        <path fill-rule="evenodd" clip-rule="evenodd" d="M7.24674 14.1828C7.66056 14.1828 7.84339 13.9935 8.07437 13.769L10.2814 11.6229L7.52841 9.96284" />
        <path fill-rule="evenodd" clip-rule="evenodd" d="M7.52841 9.96284L14.1989 14.8917C14.9601 15.3117 15.5095 15.0942 15.6991 14.185L18.4144 1.38935C18.6924 0.27478 17.9896 -0.230737 17.2613 0.0998741L1.317 6.24794C0.22865 6.68447 0.234995 7.29167 1.11862 7.56222L5.21029 8.8393L14.683 2.8631C15.1301 2.59193 15.5406 2.73772 15.2037 3.03669" />
    </symbol>
    <symbol id="icon-instagram" viewBox="0 0 19 18" >
        <path d="M14.2814 3.11625C13.6852 3.11625 13.2014 3.59944 13.2014 4.19588C13.2014 4.79213 13.6852 5.27588 14.2814 5.27588C14.8777 5.27588 15.3614 4.79213 15.3614 4.19588C15.3614 3.59963 14.8777 3.11625 14.2814 3.11625Z" />
        <path fill-rule="evenodd" clip-rule="evenodd" d="M4.85544 9C4.85544 6.44756 6.92487 4.37813 9.47731 4.37813C12.0297 4.37813 14.0984 6.44756 14.0984 9C14.0984 11.5524 12.0298 13.6209 9.47731 13.6209C6.92487 13.6209 4.85544 11.5524 4.85544 9ZM12.4773 9C12.4773 7.34306 11.1341 6 9.47731 6C7.82038 6 6.47731 7.34306 6.47731 9C6.47731 10.6568 7.82038 12 9.47731 12C11.1341 12 12.4773 10.6568 12.4773 9Z" />
        <path fill-rule="evenodd" clip-rule="evenodd" d="M5.76631 0.0543748C6.72631 0.0106874 7.03306 0 9.47731 0H9.4745C11.9195 0 12.2251 0.0106874 13.1851 0.0543748C14.1432 0.0982499 14.7976 0.249937 15.3714 0.4725C15.9639 0.702188 16.4645 1.00969 16.9651 1.51031C17.4658 2.01056 17.7732 2.51269 18.0039 3.10462C18.2251 3.67688 18.377 4.33087 18.422 5.289C18.4651 6.249 18.4764 6.55575 18.4764 9C18.4764 11.4442 18.4651 11.7502 18.422 12.7103C18.377 13.668 18.2251 14.3222 18.0039 14.8946C17.7732 15.4864 17.4658 15.9885 16.9651 16.4887C16.4651 16.9894 15.9637 17.2976 15.3719 17.5275C14.7993 17.7501 14.1446 17.9018 13.1864 17.9456C12.2264 17.9893 11.9206 18 9.47619 18C7.03213 18 6.72556 17.9893 5.76556 17.9456C4.80763 17.9018 4.15344 17.7501 3.58081 17.5275C2.98925 17.2976 2.48713 16.9894 1.98706 16.4887C1.48663 15.9885 1.17913 15.4864 0.949062 14.8944C0.726688 14.3222 0.575 13.6682 0.530937 12.7101C0.487438 11.7501 0.476562 11.4442 0.476562 9C0.476562 6.55575 0.487813 6.24881 0.53075 5.28881C0.573875 4.33106 0.72575 3.67688 0.948875 3.10444C1.1795 2.51269 1.487 2.01056 1.98763 1.51031C2.48788 1.00988 2.99 0.702375 3.58194 0.4725C4.15419 0.249937 4.80819 0.0982499 5.76631 0.0543748ZM8.66994 1.62188C8.82671 1.62163 8.99535 1.62171 9.17735 1.62179L9.47731 1.62188C11.8803 1.62188 12.1651 1.6305 13.1141 1.67363C13.9916 1.71375 14.4678 1.86038 14.7851 1.98356C15.2051 2.14669 15.5045 2.34169 15.8193 2.65669C16.1343 2.97169 16.3293 3.27169 16.4928 3.69169C16.616 4.00856 16.7628 4.48481 16.8027 5.36231C16.8459 6.31106 16.8552 6.59606 16.8552 8.99794C16.8552 11.3998 16.8459 11.6848 16.8027 12.6336C16.7626 13.5111 16.616 13.9873 16.4928 14.3042C16.3297 14.7242 16.1343 15.0233 15.8193 15.3381C15.5043 15.6531 15.2053 15.8481 14.7851 16.0112C14.4682 16.1349 13.9916 16.2812 13.1141 16.3213C12.1653 16.3644 11.8803 16.3738 9.47731 16.3738C7.07412 16.3738 6.78931 16.3644 5.84056 16.3213C4.96306 16.2808 4.48681 16.1342 4.16938 16.011C3.74938 15.8479 3.44938 15.6529 3.13438 15.3379C2.81938 15.0229 2.62438 14.7236 2.46088 14.3034C2.33769 13.9866 2.19088 13.5103 2.15094 12.6328C2.10781 11.6841 2.09919 11.3991 2.09919 8.99569C2.09919 6.59231 2.10781 6.30881 2.15094 5.36006C2.19106 4.48256 2.33769 4.00631 2.46088 3.68906C2.624 3.26906 2.81938 2.96906 3.13438 2.65406C3.44938 2.33906 3.74938 2.14406 4.16938 1.98056C4.48663 1.85681 4.96306 1.71056 5.84056 1.67025C6.67081 1.63275 6.99256 1.6215 8.66994 1.61963V1.62188Z" />
    </symbol>
    <symbol id="icon-facebook" viewBox="0 0 9 18">
        <path fill-rule="evenodd" clip-rule="evenodd" d="M6.06139 18V8.99895H8.54607L8.87535 5.89713H6.06139L6.06561 4.34465C6.06561 3.53565 6.14247 3.10216 7.30443 3.10216H8.85776V0H6.37272C3.38779 0 2.33717 1.50471 2.33717 4.03517V5.89748H0.476562V8.9993H2.33717V18H6.06139Z" />
    </symbol>
    <symbol id="icon-vk" viewBox="0 0 19 11">
        <path fill-rule="evenodd" clip-rule="evenodd" d="M10.3593 10.0379C10.3593 10.0379 10.6842 10.0024 10.8506 9.82701C11.0029 9.66627 10.9976 9.36295 10.9976 9.36295C10.9976 9.36295 10.9773 7.94656 11.6473 7.73743C12.3076 7.53175 13.1554 9.10715 14.0551 9.71294C14.7348 10.171 15.2507 10.0707 15.2507 10.0707L17.655 10.0379C17.655 10.0379 18.9122 9.96182 18.3162 8.99135C18.2669 8.91184 17.9684 8.27322 16.529 6.96139C15.0209 5.58821 15.2234 5.81031 17.0388 3.43468C18.1445 1.98804 18.5865 1.10485 18.4482 0.727208C18.3171 0.365981 17.5036 0.461905 17.5036 0.461905L14.7973 0.478325C14.7973 0.478325 14.5966 0.451535 14.4478 0.538817C14.3025 0.624371 14.2083 0.823996 14.2083 0.823996C14.2083 0.823996 13.7805 1.94311 13.2091 2.89543C12.0039 4.90378 11.5223 5.01008 11.3251 4.88564C10.8664 4.59441 10.9809 3.71727 10.9809 3.09419C10.9809 1.1472 11.2819 0.335735 10.3954 0.12574C10.1014 0.0557413 9.88478 0.00993981 9.13206 0.0021622C8.16628 -0.00734376 7.34929 0.00561891 6.88621 0.227713C6.57807 0.375487 6.34037 0.705604 6.48563 0.724616C6.66435 0.747948 7.06933 0.831774 7.28414 1.11868C7.56146 1.48941 7.55178 2.32075 7.55178 2.32075C7.55178 2.32075 7.71112 4.61256 7.17937 4.89687C6.8149 5.09217 6.31484 4.69379 5.2399 2.87124C4.68966 1.93792 4.27412 0.906093 4.27412 0.906093C4.27412 0.906093 4.194 0.713381 4.0505 0.60968C3.87707 0.484374 3.63496 0.445486 3.63496 0.445486L1.06337 0.461905C1.06337 0.461905 0.676883 0.472275 0.535142 0.637334C0.409247 0.78338 0.525457 1.08671 0.525457 1.08671C0.525457 1.08671 2.53889 5.71093 4.81907 8.04162C6.90998 10.1779 9.28348 10.0379 9.28348 10.0379H10.3593Z" />
    </symbol>
    <symbol id="icon-ok" viewBox="0 0 15 24">
        <path fill-rule="evenodd" clip-rule="evenodd" d="M9.84074 6.19361C9.84074 4.77954 8.64915 3.62969 7.18424 3.62969C5.72047 3.62969 4.52773 4.77954 4.52773 6.19361C4.52773 7.60656 5.72047 8.75716 7.18424 8.75716C8.64915 8.75716 9.84074 7.60656 9.84074 6.19361ZM13.5998 6.19358C13.5998 9.60795 10.723 12.3853 7.18389 12.3853C3.64559 12.3853 0.767969 9.60795 0.767969 6.19358C0.767969 2.77811 3.64559 0 7.18389 0C10.723 0 13.5998 2.77811 13.5998 6.19358ZM13.5216 15.9503C12.3615 16.6536 11.1019 17.1524 9.79596 17.4396L13.3826 20.9021C14.1174 21.6099 14.1174 22.7594 13.3826 23.4679C12.6486 24.1764 11.459 24.1764 10.7257 23.4679L7.19934 20.0654L3.67602 23.4679C3.30864 23.8218 2.82724 23.9989 2.34584 23.9989C1.86522 23.9989 1.38459 23.8218 1.01721 23.4679C0.283213 22.7594 0.283213 21.6107 1.01644 20.9021L4.60349 17.4396C3.2975 17.1524 2.03797 16.6529 0.877855 15.9503C-9.68007e-05 15.416 -0.263828 14.2965 0.289355 13.4483C0.841002 12.599 2.00111 12.3433 2.8806 12.8776C5.50716 14.4725 8.89075 14.4729 11.5189 12.8776C12.3983 12.3433 13.5581 12.599 14.1109 13.4483C14.664 14.2958 14.3995 15.416 13.5216 15.9503Z" />
    </symbol>
    <symbol id="icon-google" viewBox="0 0 24 24" >
        <path fill-rule="evenodd" clip-rule="evenodd" d="M12.0574 10.2857V14.4H18.8957C18.6201 16.1657 16.8287 19.5771 12.0574 19.5771C7.94067 19.5771 4.58182 16.1829 4.58182 12C4.58182 7.81714 7.94067 4.42286 12.0574 4.42286C14.4 4.42286 15.9675 5.41714 16.8632 6.27429L20.1359 3.13714C18.0344 1.18286 15.3129 0 12.0574 0C5.39139 0 0 5.36571 0 12C0 18.6343 5.39139 24 12.0574 24C19.0163 24 23.6325 19.1314 23.6325 12.2743C23.6325 11.4857 23.5464 10.8857 23.4431 10.2857H12.0574Z" />
    </symbol>
    <symbol id="icon-ok" viewBox="0 0 12 18" >
        <path fill-rule="evenodd" clip-rule="evenodd" d="M8.04616 13.0802C9.02565 12.8649 9.9703 12.4908 10.8404 11.9633C11.4988 11.5625 11.6972 10.7224 11.2823 10.0868C10.8677 9.44977 9.99794 9.258 9.33832 9.65876C7.36726 10.8552 4.82958 10.8549 2.85966 9.65876C2.20005 9.258 1.32997 9.44977 0.916234 10.0868C0.501349 10.7229 0.699146 11.5625 1.35761 11.9633C2.22769 12.4902 3.17234 12.8649 4.15182 13.0802L1.46155 15.6771C0.911627 16.2085 0.911627 17.0701 1.46212 17.6015C1.73766 17.8669 2.09813 17.9997 2.45859 17.9997C2.81964 17.9997 3.18069 17.8669 3.45622 17.6015L6.0987 15.0496L8.74349 17.6015C9.29341 18.1328 10.1857 18.1328 10.7362 17.6015C11.2872 17.0701 11.2872 16.208 10.7362 15.6771L8.04616 13.0802Z"/>
        <path fill-rule="evenodd" clip-rule="evenodd" d="M6.08712 9.28895C8.74141 9.28895 10.899 7.20593 10.899 4.64517C10.899 2.08357 8.74141 0 6.08712 0C3.4334 0 1.27519 2.08357 1.27519 4.64517C1.27519 7.20593 3.4334 9.28895 6.08712 9.28895ZM6.08709 2.72226C7.18577 2.72226 8.07946 3.58464 8.07946 4.64519C8.07946 5.7049 7.18577 6.56785 6.08709 6.56785C4.98926 6.56785 4.09471 5.7049 4.09471 4.64519C4.09471 3.58464 4.98926 2.72226 6.08709 2.72226Z" />
    </symbol>
    <symbol id="icon-twitter" viewBox="0 0 19 15" >
        <path d="M9.47826 4.60039L9.43925 3.957C9.32219 2.28944 10.3497 0.766319 11.9754 0.175451C12.5737 -0.0346347 13.5882 -0.0608953 14.2515 0.12293C14.5116 0.201713 15.0058 0.46432 15.357 0.700666L15.9943 1.13397L16.6966 0.910752C17.0868 0.792579 17.607 0.595624 17.8411 0.46432C18.0622 0.346146 18.2573 0.280495 18.2573 0.319885C18.2573 0.543101 17.7761 1.30466 17.3729 1.72484C16.8266 2.3157 16.9827 2.36822 18.0882 1.97431C18.7515 1.7511 18.7645 1.7511 18.6345 2.00057C18.5564 2.13188 18.1533 2.59144 17.7241 3.01161C16.9957 3.73378 16.9567 3.81256 16.9567 4.41656C16.9567 5.34882 16.5145 7.29211 16.0723 8.35567C15.2529 10.3515 13.4971 12.413 11.7413 13.4503C9.27017 14.9077 5.97965 15.2754 3.20938 14.4219C2.28595 14.133 0.699219 13.3977 0.699219 13.2664C0.699219 13.227 1.18044 13.1745 1.76571 13.1614C2.98827 13.1351 4.21084 12.7937 5.25132 12.1897L5.95364 11.7696L5.14727 11.4938C4.00274 11.0999 2.97527 10.1939 2.71515 9.34045C2.63711 9.06471 2.66312 9.05158 3.39146 9.05158L4.14581 9.03845L3.50851 8.73645C2.75417 8.35567 2.06485 7.71228 1.72669 7.05577C1.47958 6.58307 1.16743 5.38821 1.25848 5.29629C1.28449 5.2569 1.55761 5.33569 1.86976 5.44073C2.76717 5.76899 2.88423 5.69021 2.36399 5.13873C1.38854 4.14082 1.0894 2.65709 1.55761 1.25214L1.77872 0.621884L2.63711 1.47536C4.39292 3.19544 6.46087 4.2196 8.82796 4.5216L9.47826 4.60039Z" />
    </symbol>
    <symbol id="icon-video" viewBox="0 0 32 32" >
        <path d="M21.3333 13.6932L14.6666 9.83984C14.2614 9.6059 13.8018 9.48269 13.334 9.48257C12.8661 9.48245 12.4065 9.60543 12.0011 9.83915C11.5958 10.0729 11.2592 10.4091 11.0249 10.8141C10.7907 11.2191 10.6671 11.6786 10.6666 12.1465V19.8532C10.6671 20.3208 10.7906 20.7801 11.0246 21.185C11.2586 21.5898 11.595 21.926 12 22.1598C12.4053 22.3939 12.8652 22.5171 13.3333 22.5171C13.8014 22.5171 14.2612 22.3939 14.6666 22.1598L21.3333 18.3065C21.7374 18.0721 22.0728 17.7356 22.306 17.3308C22.5392 16.926 22.6619 16.467 22.6619 15.9998C22.6619 15.5327 22.5392 15.0737 22.306 14.6689C22.0728 14.264 21.7374 13.9276 21.3333 13.6932ZM20 15.9998L13.3333 19.8532V12.1465L20 15.9998ZM16 2.6665C13.3629 2.6665 10.785 3.44849 8.59236 4.91358C6.39971 6.37866 4.69074 8.46104 3.68157 10.8974C2.6724 13.3337 2.40836 16.0146 2.92283 18.601C3.4373 21.1875 4.70717 23.5632 6.57188 25.4279C8.43658 27.2926 10.8123 28.5625 13.3988 29.077C15.9852 29.5914 18.6661 29.3274 21.1024 28.3182C23.5388 27.3091 25.6211 25.6001 27.0862 23.4074C28.5513 21.2148 29.3333 18.6369 29.3333 15.9998C29.3333 14.2489 28.9884 12.5151 28.3184 10.8974C27.6483 9.27972 26.6662 7.80986 25.4281 6.57175C24.1899 5.33363 22.7201 4.35151 21.1024 3.68144C19.4847 3.01138 17.7509 2.6665 16 2.6665ZM16 26.6665C13.8903 26.6665 11.828 26.0409 10.0739 24.8688C8.31976 23.6968 6.95259 22.0309 6.14525 20.0818C5.33792 18.1327 5.12668 15.988 5.53826 13.9189C5.94983 11.8497 6.96573 9.94913 8.45749 8.45737C9.94925 6.96561 11.8499 5.9497 13.919 5.53813C15.9881 5.12655 18.1328 5.33779 20.0819 6.14512C22.031 6.95246 23.6969 8.31963 24.869 10.0738C26.041 11.8279 26.6666 13.8902 26.6666 15.9998C26.6666 18.8288 25.5428 21.5419 23.5424 23.5423C21.5421 25.5427 18.8289 26.6665 16 26.6665Z"/>
    </symbol>
    <symbol id="icon-article" viewBox="0 0 32 32">
        <path d="M28.2266 2.7465C27.2709 2.58188 26.3031 2.49714 25.3333 2.49317C22.0244 2.49046 18.7846 3.43927 16 5.2265C13.2081 3.46273 9.96882 2.53721 6.66662 2.55984C5.69681 2.56381 4.72902 2.64855 3.77328 2.81317C3.46023 2.86714 3.17672 3.03111 2.97383 3.27556C2.77094 3.52001 2.662 3.82886 2.66662 4.1465V20.1465C2.66376 20.3424 2.70412 20.5365 2.78482 20.7151C2.86552 20.8936 2.98457 21.0522 3.13351 21.1795C3.28246 21.3068 3.45763 21.3997 3.64656 21.4516C3.83549 21.5035 4.03354 21.5132 4.22662 21.4798C6.13731 21.149 8.09489 21.2039 9.98404 21.6413C11.8732 22.0786 13.6557 22.8896 15.2266 24.0265L15.3866 24.1198H15.5333C15.6812 24.1814 15.8398 24.2132 16 24.2132C16.1601 24.2132 16.3187 24.1814 16.4666 24.1198H16.6133L16.7733 24.0265C18.3332 22.8642 20.1106 22.027 22.0001 21.5643C23.8897 21.1017 25.8528 21.0231 27.7733 21.3332C27.9664 21.3665 28.1644 21.3569 28.3533 21.305C28.5423 21.253 28.7174 21.1601 28.8664 21.0328C29.0153 20.9055 29.1344 20.747 29.2151 20.5684C29.2958 20.3899 29.3361 20.1957 29.3333 19.9998V3.99984C29.3194 3.69604 29.2021 3.40612 29.0008 3.17815C28.7995 2.95019 28.5264 2.79789 28.2266 2.7465ZM14.6666 20.4665C12.1998 19.1688 9.45397 18.4915 6.66662 18.4932C6.22662 18.4932 5.78662 18.4932 5.33328 18.4932V5.15984C5.77736 5.13424 6.22254 5.13424 6.66662 5.15984C9.51113 5.15669 12.2936 5.99142 14.6666 7.55984V20.4665ZM26.6666 18.5465C26.2133 18.5465 25.7733 18.5465 25.3333 18.5465C22.5459 18.5448 19.8001 19.2221 17.3333 20.5198V7.55984C19.7063 5.99142 22.4888 5.15669 25.3333 5.15984C25.7774 5.13424 26.2225 5.13424 26.6666 5.15984V18.5465ZM28.2266 24.0798C27.2709 23.9152 26.3031 23.8305 25.3333 23.8265C22.0244 23.8238 18.7846 24.7726 16 26.5598C13.2153 24.7726 9.97546 23.8238 6.66662 23.8265C5.69681 23.8305 4.72902 23.9152 3.77328 24.0798C3.59972 24.1074 3.43331 24.169 3.28363 24.261C3.13395 24.3531 3.00395 24.4739 2.90111 24.6164C2.79826 24.7589 2.7246 24.9203 2.68436 25.0914C2.64411 25.2624 2.63808 25.4398 2.66662 25.6132C2.73437 25.9594 2.9366 26.2647 3.229 26.4621C3.5214 26.6596 3.88014 26.733 4.22662 26.6665C6.13731 26.3357 8.09489 26.3906 9.98404 26.8279C11.8732 27.2653 13.6557 28.0763 15.2266 29.2132C15.4524 29.3739 15.7227 29.4603 16 29.4603C16.2772 29.4603 16.5475 29.3739 16.7733 29.2132C18.3442 28.0763 20.1267 27.2653 22.0159 26.8279C23.905 26.3906 25.8626 26.3357 27.7733 26.6665C28.1198 26.733 28.4785 26.6596 28.7709 26.4621C29.0633 26.2647 29.2655 25.9594 29.3333 25.6132C29.3618 25.4398 29.3558 25.2624 29.3155 25.0914C29.2753 24.9203 29.2016 24.7589 29.0988 24.6164C28.9959 24.4739 28.8659 24.3531 28.7163 24.261C28.5666 24.169 28.4002 24.1074 28.2266 24.0798Z" />
    </symbol>
    <symbol id="icon-book" viewBox="0 0 32 32">
        <path d="M20.0002 7.99984H12.0002C11.6465 7.99984 11.3074 8.14031 11.0574 8.39036C10.8073 8.64041 10.6668 8.97955 10.6668 9.33317V14.6665C10.6668 15.0201 10.8073 15.3593 11.0574 15.6093C11.3074 15.8594 11.6465 15.9998 12.0002 15.9998H20.0002C20.3538 15.9998 20.6929 15.8594 20.943 15.6093C21.193 15.3593 21.3335 15.0201 21.3335 14.6665V9.33317C21.3335 8.97955 21.193 8.64041 20.943 8.39036C20.6929 8.14031 20.3538 7.99984 20.0002 7.99984ZM18.6668 13.3332H13.3335V10.6665H18.6668V13.3332ZM22.6668 2.6665H6.66683C6.31321 2.6665 5.97407 2.80698 5.72402 3.05703C5.47397 3.30708 5.3335 3.64622 5.3335 3.99984V27.9998C5.3335 28.3535 5.47397 28.6926 5.72402 28.9426C5.97407 29.1927 6.31321 29.3332 6.66683 29.3332H22.6668C23.7277 29.3332 24.7451 28.9117 25.4953 28.1616C26.2454 27.4115 26.6668 26.394 26.6668 25.3332V6.6665C26.6668 5.60564 26.2454 4.58822 25.4953 3.83808C24.7451 3.08793 23.7277 2.6665 22.6668 2.6665ZM24.0002 25.3332C24.0002 25.6868 23.8597 26.0259 23.6096 26.276C23.3596 26.526 23.0204 26.6665 22.6668 26.6665H8.00016V5.33317H22.6668C23.0204 5.33317 23.3596 5.47365 23.6096 5.7237C23.8597 5.97374 24.0002 6.31288 24.0002 6.6665V25.3332Z" />
    </symbol>
    <symbol id="icon-burger" viewBox="0 0 24 24" >
        <path d="M3 18H21M3 12H21M3 6H21" stroke="black" stroke-width="2" stroke-linejoin="round"/>
    </symbol>
    <symbol id="icon-arrow" viewBox="0 0 24 24">
        <path d="M16.9997 9.17019C16.8123 8.98394 16.5589 8.87939 16.2947 8.87939C16.0305 8.87939 15.7771 8.98394 15.5897 9.17019L11.9997 12.7102L8.4597 9.17019C8.27234 8.98394 8.01889 8.87939 7.7547 8.87939C7.49052 8.87939 7.23707 8.98394 7.0497 9.17019C6.95598 9.26315 6.88158 9.37375 6.83081 9.49561C6.78004 9.61747 6.75391 9.74818 6.75391 9.88019C6.75391 10.0122 6.78004 10.1429 6.83081 10.2648C6.88158 10.3866 6.95598 10.4972 7.0497 10.5902L11.2897 14.8302C11.3827 14.9239 11.4933 14.9983 11.6151 15.0491C11.737 15.0998 11.8677 15.126 11.9997 15.126C12.1317 15.126 12.2624 15.0998 12.3843 15.0491C12.5061 14.9983 12.6167 14.9239 12.7097 14.8302L16.9997 10.5902C17.0934 10.4972 17.1678 10.3866 17.2186 10.2648C17.2694 10.1429 17.2955 10.0122 17.2955 9.88019C17.2955 9.74818 17.2694 9.61747 17.2186 9.49561C17.1678 9.37375 17.0934 9.26315 16.9997 9.17019Z" />
    </symbol>
    <symbol id="icon-download" viewBox="0 0 16 16" >
        <path d="M5.52667 8.8587C5.46418 8.92067 5.41459 8.99441 5.38074 9.07565C5.34689 9.15689 5.32947 9.24402 5.32947 9.33203C5.32947 9.42004 5.34689 9.50718 5.38074 9.58842C5.41459 9.66966 5.46418 9.74339 5.52667 9.80537L7.52667 11.8054C7.58864 11.8679 7.66238 11.9174 7.74362 11.9513C7.82486 11.9851 7.91199 12.0026 8 12.0026C8.08801 12.0026 8.17515 11.9851 8.25638 11.9513C8.33762 11.9174 8.41136 11.8679 8.47333 11.8054L10.4733 9.80537C10.5989 9.67983 10.6694 9.50957 10.6694 9.33203C10.6694 9.1545 10.5989 8.98423 10.4733 8.8587C10.3478 8.73316 10.1775 8.66264 10 8.66264C9.82247 8.66264 9.6522 8.73316 9.52667 8.8587L8.66667 9.72537V1.9987C8.66667 1.82189 8.59643 1.65232 8.4714 1.52729C8.34638 1.40227 8.17681 1.33203 8 1.33203C7.82319 1.33203 7.65362 1.40227 7.5286 1.52729C7.40357 1.65232 7.33333 1.82189 7.33333 1.9987V9.72537L6.47333 8.8587C6.41136 8.79621 6.33762 8.74662 6.25638 8.71277C6.17515 8.67893 6.08801 8.6615 6 8.6615C5.91199 8.6615 5.82486 8.67893 5.74362 8.71277C5.66238 8.74662 5.58864 8.79621 5.52667 8.8587ZM12 5.9987H10.6667C10.4899 5.9987 10.3203 6.06894 10.1953 6.19396C10.0702 6.31898 10 6.48855 10 6.66537C10 6.84218 10.0702 7.01175 10.1953 7.13677C10.3203 7.26179 10.4899 7.33203 10.6667 7.33203H12C12.1768 7.33203 12.3464 7.40227 12.4714 7.52729C12.5964 7.65232 12.6667 7.82189 12.6667 7.9987V12.6654C12.6667 12.8422 12.5964 13.0117 12.4714 13.1368C12.3464 13.2618 12.1768 13.332 12 13.332H4C3.82319 13.332 3.65362 13.2618 3.5286 13.1368C3.40357 13.0117 3.33333 12.8422 3.33333 12.6654V7.9987C3.33333 7.82189 3.40357 7.65232 3.5286 7.52729C3.65362 7.40227 3.82319 7.33203 4 7.33203H5.33333C5.51014 7.33203 5.67971 7.26179 5.80474 7.13677C5.92976 7.01175 6 6.84218 6 6.66537C6 6.48855 5.92976 6.31898 5.80474 6.19396C5.67971 6.06894 5.51014 5.9987 5.33333 5.9987H4C3.46957 5.9987 2.96086 6.20941 2.58579 6.58448C2.21071 6.95956 2 7.46827 2 7.9987V12.6654C2 13.1958 2.21071 13.7045 2.58579 14.0796C2.96086 14.4547 3.46957 14.6654 4 14.6654H12C12.5304 14.6654 13.0391 14.4547 13.4142 14.0796C13.7893 13.7045 14 13.1958 14 12.6654V7.9987C14 7.46827 13.7893 6.95956 13.4142 6.58448C13.0391 6.20941 12.5304 5.9987 12 5.9987Z" />
    </symbol>


</svg>
