<svg width="952" height="69" viewBox="0 0 952 69" fill="none" xmlns="http://www.w3.org/2000/svg">
<g clip-path="url(#clip0_204_1368)">
<path d="M99.0782 41.0521C98.9213 40.2716 98.5385 39.5542 97.9765 38.9919C97.2303 38.2452 96.2208 37.8242 95.1664 37.8242C94.1119 37.8242 93.1025 38.2452 92.3563 38.9919C91.7942 39.5542 91.4114 40.2716 91.2545 41.0521C91.0976 41.8325 91.1733 42.6427 91.4725 43.3801C91.7717 44.1177 92.2815 44.7506 92.9391 45.1969C93.5968 45.6433 94.3721 45.8825 95.1664 45.8825C95.9607 45.8825 96.736 45.6433 97.3937 45.1969C98.0513 44.7506 98.5611 44.1177 98.8603 43.3801C99.1594 42.6427 99.2351 41.8325 99.0782 41.0521Z" fill="#FC525A" stroke="#02221F" stroke-width="2"/>
<path d="M103.377 45.6019C103.007 45.2025 102.559 44.8832 102.061 44.6645C101.562 44.4453 101.023 44.332 100.478 44.332C99.9328 44.332 99.3939 44.4453 98.8945 44.6645C98.3964 44.8832 97.9487 45.2025 97.5785 45.6019C97.0429 46.1733 96.6855 46.8896 96.5487 47.6618C96.4116 48.4352 96.5016 49.2326 96.8079 49.9555C97.1142 50.6786 97.6242 51.2968 98.2764 51.7321C98.9288 52.1675 99.6942 52.4003 100.478 52.4003C101.262 52.4003 102.027 52.1675 102.679 51.7321C103.332 51.2968 103.842 50.6786 104.148 49.9555C104.454 49.2326 104.544 48.4352 104.407 47.6618C104.27 46.8896 103.913 46.1733 103.377 45.6019Z" fill="#FC525A" stroke="#02221F" stroke-width="2"/>
<path d="M99.4813 40.7252L99.4813 40.7252L99.4819 40.7322C99.5769 41.7828 100.074 42.7569 100.872 43.4447C101.671 44.1328 102.706 44.4789 103.756 44.4054L103.686 43.4079L103.763 44.4049C104.554 44.3438 105.309 44.0462 105.93 43.5515C106.552 43.0569 107.012 42.388 107.256 41.6308C107.499 40.8737 107.515 40.0608 107.301 39.2948C107.087 38.5287 106.653 37.8422 106.051 37.3236C105.449 36.8049 104.707 36.4776 103.919 36.3853C103.131 36.2929 102.334 36.4399 101.629 36.8065C100.925 37.1731 100.346 37.7421 99.9647 38.4397C99.5832 39.1371 99.4153 39.9324 99.4813 40.7252Z" fill="#FC525A" stroke="#02221F" stroke-width="2"/>
<path d="M73.6214 48.7998L73.7715 50.2697L75.0803 49.5839C80.3074 46.8448 83.602 45.4914 85.5679 44.8243C86.5499 44.4911 87.1935 44.3315 87.5754 44.2555C87.766 44.2176 87.8897 44.2008 87.9564 44.1935C87.9834 44.1906 88.0008 44.1892 88.0094 44.1887H89.9775L88.795 42.5932C86.3263 39.2624 84.8851 35.2652 84.6544 31.1046L84.5642 29.4781L83.1547 30.2947C81.2217 31.4145 79.0296 31.9894 76.8056 31.9615C76.0458 31.7881 75.1919 31.0438 74.4508 29.8442C73.7096 28.6445 73.2337 27.2286 73.141 26.1772L72.9669 24.2032L71.4824 25.516C69.2801 27.4635 66.9087 27.7101 64.8368 27.2856C62.7205 26.8521 60.9541 25.7185 60.1555 24.9965L58.632 26.2605C59.9818 28.4648 61.1212 30.4724 61.5974 32.5147C62.0593 34.4957 61.9014 36.5369 60.5513 38.842L59.5021 40.6333L61.5568 40.3372C64.3593 39.9333 67.1799 40.0677 69.3697 41.2483C71.4877 42.3901 73.1931 44.6082 73.6214 48.7998Z" fill="#5DC68D" stroke="#02221F" stroke-width="2"/>
<path d="M63.5815 29.2715C70.4251 34.0884 77.5968 38.4087 85.0429 42.2001C77.0951 39.4136 69.7923 35.0143 63.5815 29.2715Z" fill="#02221F"/>
<path d="M81.9883 26.904L80.9379 27.9103L82.2537 28.5306C87.5795 31.0414 90.6723 32.8404 92.4199 33.997C93.293 34.5748 93.825 34.9888 94.1292 35.2471C94.2811 35.3761 94.3751 35.4653 94.4256 35.5157C94.449 35.539 94.463 35.5539 94.4689 35.5604L95.6817 37.0339L96.1954 35.1807C97.3057 31.1753 99.5759 27.6008 102.711 24.9177L103.955 23.8526L102.439 23.2324C100.383 22.3914 98.5816 21.0157 97.2168 19.2435C96.8951 18.521 96.9695 17.3938 97.4566 16.0794C97.9454 14.7603 98.7603 13.504 99.5157 12.7487L100.823 11.4414L99.0135 11.0627C96.1216 10.4576 94.4675 8.69946 93.5288 6.77886C92.5715 4.82008 92.381 2.72299 92.4573 1.64166L90.5174 1.23675C89.6716 3.61913 88.8016 5.76162 87.4919 7.40032C86.219 8.993 84.5143 10.1289 81.9051 10.4567L79.8441 10.7156L81.332 12.1651C83.2639 14.0473 84.8707 16.367 85.287 18.8547C85.6905 21.2655 85.006 24.0131 81.9883 26.904Z" fill="#5DC68D" stroke="#02221F" stroke-width="2"/>
<path d="M91.0478 6.88281C91.4917 15.3074 92.5131 23.6906 94.1044 31.9718C91.4201 23.9043 90.3802 15.3691 91.0478 6.88281V6.88281Z" fill="#02221F"/>
<path d="M1.42406 57.486L1.01618 58.8978L2.47911 58.7591C6.59487 58.3691 9.07609 59.6548 10.6109 61.5577C12.1989 63.5264 12.8929 66.3036 13.0713 69.0665L13.2049 71.1349L14.7408 69.7431C16.7055 67.9626 18.6687 67.4157 20.6817 67.4962C22.7563 67.5792 24.917 68.3285 27.2502 69.2515L28.2356 67.535C27.3882 66.8699 25.9669 65.3263 25.1471 63.2988C24.3423 61.3084 24.1262 58.8904 25.5642 56.3203L26.4704 54.7007L24.6194 54.8346C23.5774 54.91 22.1123 54.68 20.806 54.1661C19.5012 53.6527 18.6161 52.9619 18.3002 52.2788C17.8434 50.0913 17.9749 47.8191 18.6815 45.7L19.1948 44.1606L17.589 44.3941C13.5259 44.9849 9.3807 44.3293 5.68803 42.5111L3.95683 41.6586L4.25631 43.5503C4.25722 43.5591 4.25912 43.5797 4.2611 43.6132C4.26535 43.6851 4.26988 43.8157 4.26579 44.0165C4.25759 44.4188 4.21494 45.097 4.06891 46.1426C3.77661 48.2357 3.07374 51.7762 1.42406 57.486Z" fill="#5DC68D" stroke="#02221F" stroke-width="2"/>
<path d="M23.3256 65.1389C17.3617 59.247 11.813 52.9392 6.72021 46.2617C10.9325 53.6302 16.5824 60.053 23.3256 65.1389V65.1389Z" fill="#02221F"/>
<path d="M16.389 45.8001C12.4213 45.8015 8.47559 45.2022 4.68287 44.0221C4.4109 43.936 4.18334 43.7449 4.04946 43.4902C3.91557 43.2355 3.88613 42.9377 3.96749 42.6612C4.00684 42.5206 4.07404 42.3897 4.165 42.2763C4.25597 42.1629 4.36878 42.0695 4.49658 42.0017C4.62437 41.934 4.76446 41.8933 4.9083 41.8821C5.05214 41.8709 5.19672 41.8896 5.33321 41.9368C14.4982 44.7526 24.3746 43.9689 32.9945 39.7418C41.5813 35.4723 48.2619 28.0808 51.7027 19.0428C51.7531 18.9067 51.8298 18.7822 51.9282 18.6763C52.0265 18.5705 52.1447 18.4855 52.2758 18.4263C52.4069 18.3671 52.5483 18.3348 52.6918 18.3314C52.8353 18.3279 52.978 18.3534 53.1118 18.4063C53.2453 18.455 53.3679 18.5304 53.4723 18.6279C53.5766 18.7255 53.6605 18.8432 53.7192 18.9742C53.7778 19.1052 53.8098 19.2467 53.8135 19.3905C53.8171 19.5342 53.7923 19.6772 53.7404 19.8111C50.1032 29.3943 43.0268 37.2338 33.9266 41.7612C28.4597 44.4389 22.462 45.8201 16.389 45.8001V45.8001Z" fill="#02221F"/>
<path d="M8.36769 44.3525C7.17686 44.3575 5.98768 44.262 4.81249 44.0672C4.53126 44.0138 4.28229 43.85 4.11985 43.6116C3.95741 43.3731 3.89469 43.0792 3.94536 42.7941C3.96614 42.6498 4.01567 42.5113 4.09096 42.3869C4.16625 42.2626 4.26572 42.1551 4.38333 42.0709C4.50093 41.9868 4.63421 41.9277 4.77507 41.8973C4.91592 41.8669 5.06141 41.8658 5.20269 41.8941C11.7061 43.0794 19.2718 40.2918 23.8025 37.5041C29.0349 34.2974 32.9694 29.3098 34.9017 23.434C34.991 23.1576 35.185 22.9284 35.441 22.7967C35.6971 22.665 35.9943 22.6416 36.2674 22.7316C36.537 22.8268 36.7598 23.0239 36.8891 23.2817C37.0184 23.5395 37.0442 23.8379 36.9611 24.1145C34.8788 30.5262 30.6047 35.9747 24.9081 39.4796C19.8904 42.4944 14.1995 44.171 8.36769 44.3525V44.3525Z" fill="#02221F"/>
<path d="M25.5584 48.0833C18.3724 48.1222 11.2492 46.7274 4.59564 43.9786C4.46325 43.9257 4.34271 43.8464 4.24118 43.7454C4.13965 43.6444 4.0592 43.5238 4.0046 43.3907C3.95001 43.2577 3.92238 43.1148 3.92337 42.9707C3.92435 42.8266 3.95392 42.6842 4.01033 42.5519C4.12063 42.285 4.33056 42.073 4.59444 41.962C4.85832 41.851 5.15481 41.85 5.41941 41.9592C18.8633 47.3583 33.8627 47.2006 47.1931 41.5202C47.4582 41.4168 47.7524 41.4206 48.0148 41.531C48.2772 41.6413 48.4875 41.8497 48.6022 42.1129C48.6586 42.2452 48.6882 42.3876 48.6891 42.5317C48.6901 42.6758 48.6625 42.8187 48.6079 42.9517C48.5533 43.0848 48.4729 43.2054 48.3713 43.3064C48.2698 43.4074 48.1493 43.4867 48.0169 43.5396C40.9033 46.5503 33.2683 48.095 25.5584 48.0833V48.0833Z" fill="#02221F"/>
<path d="M48.5387 46.5339C49.3143 46.6913 50.1185 46.6125 50.8491 46.3079C51.336 46.1081 51.7782 45.8129 52.1505 45.44C52.5236 45.0662 52.819 44.6218 53.0202 44.1329C53.2213 43.6441 53.3244 43.12 53.3238 42.5912C53.3232 42.0635 53.2194 41.541 53.018 41.0535C52.7193 40.319 52.2116 39.6885 51.557 39.243C50.9012 38.7968 50.1281 38.5567 49.3356 38.5547C48.5431 38.5527 47.7688 38.7888 47.1108 39.2318C46.453 39.6746 45.9416 40.3038 45.6393 41.0382C45.3372 41.7725 45.2571 42.5804 45.4088 43.3601C45.5604 44.1399 45.9374 44.8582 46.494 45.4236C47.0506 45.9892 47.762 46.3762 48.5387 46.5339Z" fill="#FC525A" stroke="#02221F" stroke-width="2"/>
<path d="M51.9479 23.3893C52.7263 23.5422 53.5319 23.4576 54.262 23.1466C55.2362 22.7318 56.0048 21.9451 56.4038 20.9624C56.8026 19.98 56.8012 18.8784 56.3999 17.8971C56.0991 17.1614 55.5885 16.5306 54.9309 16.0863C54.2731 15.6418 53.4985 15.4043 52.7053 15.4053C51.9121 15.4063 51.1381 15.6458 50.4814 16.0919C49.825 16.538 49.3159 17.17 49.0169 17.9064C48.7179 18.6428 48.6418 19.4517 48.7976 20.2313C48.9534 21.0109 49.3347 21.7278 49.8949 22.2905C50.4552 22.8533 51.1695 23.2364 51.9479 23.3893Z" fill="#FC525A" stroke="#02221F" stroke-width="2"/>
<path d="M36.0199 27.6872C36.7892 27.8478 37.5881 27.7743 38.3156 27.4766C38.8039 27.2767 39.2473 26.981 39.6205 26.6072C39.9935 26.2334 40.2889 25.7891 40.4901 25.3002C40.6913 24.8113 40.7944 24.2873 40.7938 23.7584C40.7932 23.2296 40.6889 22.7058 40.4866 22.2174C40.1853 21.49 39.6775 20.867 39.0251 20.4282C38.3725 19.9894 37.6051 19.7549 36.8193 19.7559C36.0336 19.7568 35.2666 19.993 34.6151 20.4334C33.9637 20.8736 33.4573 21.4978 33.1577 22.2259C32.8581 22.9539 32.778 23.7546 32.927 24.5279C33.076 25.3012 33.4477 26.0143 33.9975 26.5769C34.5473 27.1396 35.2507 27.5266 36.0199 27.6872Z" fill="#FC525A" stroke="#02221F" stroke-width="2"/>
<path d="M61.869 57.7301L64.8807 57.6005L62.3886 55.9043C57.1415 52.3329 52.2986 49.5674 45.6655 50.3603L43.3397 50.6383L45.1492 52.1257C49.8582 55.9966 55.8051 57.9909 61.869 57.7301Z" fill="#5DC68D" stroke="#02221F" stroke-width="2"/>
<path d="M68.8005 50.8825L71.5696 50.2839L69.0383 49.0116C65.0239 46.9938 60.414 46.5467 56.0931 47.7569L53.3658 48.5207L55.9681 49.6386C60.0172 51.3781 64.4981 51.8126 68.8005 50.8825Z" fill="#5DC68D" stroke="#02221F" stroke-width="2"/>
<path d="M15.7036 29.149L17.2175 27.7424L15.175 27.4281C12.2533 26.9785 9.26713 27.273 6.48652 28.2847C3.70597 29.2963 1.21942 30.9928 -0.749224 33.2197L-2.12005 34.7705L-0.0532397 34.8806C2.81846 35.0338 5.69127 34.6055 8.39701 33.6211C11.1027 32.6367 13.5866 31.1161 15.7036 29.149Z" fill="#5DC68D" stroke="#02221F" stroke-width="2"/>
<path d="M204.193 40.3378C204.001 39.8438 203.714 39.3921 203.349 39.0089C202.611 38.2347 201.597 37.7865 200.529 37.7672C199.461 37.748 198.432 38.1593 197.667 38.9067C196.902 39.6537 196.464 40.675 196.445 41.7451C196.427 42.8151 196.828 43.8513 197.566 44.6251C197.931 45.0084 198.368 45.3157 198.852 45.529C199.336 45.7423 199.857 45.8572 200.386 45.8667C200.914 45.8763 201.439 45.7802 201.931 45.5845C202.422 45.3887 202.87 45.0972 203.248 44.7272C203.627 44.3573 203.929 43.9161 204.138 43.4292C204.348 42.9424 204.46 42.419 204.469 41.8889C204.479 41.3588 204.385 40.8318 204.193 40.3378Z" fill="#FC525A" stroke="#02221F" stroke-width="2"/>
<path d="M209.741 47.6614C209.605 46.8905 209.248 46.1753 208.714 45.6043C208.346 45.2017 207.899 44.8794 207.401 44.6583C206.9 44.4362 206.359 44.3213 205.812 44.3213C205.265 44.3213 204.723 44.4362 204.223 44.6583C203.725 44.8794 203.278 45.2017 202.91 45.6044C202.376 46.1753 202.019 46.8905 201.883 47.6614C201.746 48.4348 201.836 49.2321 202.142 49.9551C202.448 50.6782 202.958 51.2964 203.61 51.7316C204.263 52.167 205.028 52.3999 205.812 52.3999C206.596 52.3999 207.361 52.167 208.013 51.7316C208.666 51.2963 209.176 50.6782 209.482 49.9551C209.788 49.2321 209.878 48.4348 209.741 47.6614Z" fill="#FC525A" stroke="#02221F" stroke-width="2"/>
<path d="M209.119 44.4051L209.119 44.4052L209.126 44.4045C209.915 44.3378 210.666 44.0356 211.284 43.5378C211.901 43.0402 212.357 42.3698 212.596 41.6126C212.835 40.8555 212.847 40.044 212.63 39.2801C212.413 38.5162 211.977 37.8327 211.375 37.3169C210.772 36.801 210.031 36.4765 209.244 36.3862C208.457 36.2958 207.661 36.444 206.959 36.811C206.256 37.1779 205.679 37.7465 205.298 38.443C204.917 39.1394 204.75 39.9334 204.815 40.7248L204.815 40.7248L204.816 40.7319C204.911 41.7879 205.412 42.7666 206.216 43.4552C207.021 44.1442 208.064 44.4866 209.119 44.4051Z" fill="#FC525A" stroke="#02221F" stroke-width="2"/>
<path d="M178.932 48.7902L179.07 50.2755L180.391 49.5843C185.629 46.8453 188.934 45.4918 190.908 44.8247C191.894 44.4915 192.541 44.3318 192.926 44.2557C193.118 44.2177 193.242 44.2009 193.31 44.1936C193.338 44.1906 193.356 44.1892 193.364 44.1887H195.345L194.147 42.5893C191.663 39.2709 190.22 35.271 190.01 31.1094L189.927 29.4784L188.512 30.2934C186.57 31.4117 184.371 31.9867 182.14 31.9614C181.39 31.7878 180.536 31.044 179.795 29.8442C179.053 28.6436 178.58 27.2308 178.497 26.186L178.339 24.1942L176.839 25.5145C174.625 27.464 172.252 27.71 170.181 27.2856C168.066 26.8522 166.298 25.7188 165.485 24.9926L163.966 26.2605C165.316 28.4663 166.461 30.4736 166.939 32.5159C167.403 34.4957 167.246 36.5353 165.886 38.8392L164.824 40.6394L166.892 40.3368C169.648 39.9338 172.487 40.0669 174.695 41.2496C176.829 42.3927 178.546 44.6092 178.932 48.7902Z" fill="#5DC68D" stroke="#02221F" stroke-width="2"/>
<path d="M168.916 29.2715C175.765 34.0791 182.936 38.3991 190.377 42.2001C182.432 39.4085 175.13 35.0098 168.916 29.2715V29.2715Z" fill="#02221F"/>
<path d="M187.344 26.904L186.294 27.9103L187.609 28.5306C192.935 31.0414 196.028 32.8404 197.776 33.997C198.649 34.5748 199.181 34.9888 199.485 35.2471C199.637 35.3761 199.731 35.4653 199.781 35.5157C199.805 35.539 199.819 35.5538 199.825 35.5604L201.043 37.0411L201.552 35.1769C202.646 31.171 204.909 27.5955 208.044 24.9184L209.289 23.8548L207.774 23.2329C205.723 22.391 203.928 21.014 202.57 19.2411C202.24 18.5199 202.309 17.3936 202.794 16.0778C203.28 14.7599 204.094 13.504 204.85 12.7487L206.157 11.4414L204.347 11.0627C201.456 10.4576 199.801 8.69946 198.863 6.77887C197.905 4.82008 197.715 2.72299 197.791 1.64166L195.853 1.23119C195.007 3.57265 194.142 5.69325 192.835 7.32187C191.565 8.90414 189.86 10.0408 187.24 10.3688L185.199 10.6241L186.66 12.0714C188.607 14.0006 190.221 16.3436 190.64 18.8441C191.046 21.2662 190.361 24.0135 187.344 26.904Z" fill="#5DC68D" stroke="#02221F" stroke-width="2"/>
<path d="M196.426 6.88281C196.855 15.3064 197.862 23.6895 199.439 31.9718C196.77 23.9011 195.745 15.3661 196.426 6.88281V6.88281Z" fill="#02221F"/>
<path d="M106.758 57.486L106.35 58.8974L107.812 58.7592C111.941 58.3689 114.42 59.6558 115.943 61.5554C117.518 63.5211 118.192 66.2952 118.339 69.0552L118.451 71.1554L120.009 69.7431C121.973 67.963 123.942 67.4156 125.958 67.4962C128.035 67.5792 130.196 68.3285 132.517 69.2509L133.504 67.535C132.658 66.8708 131.242 65.3278 130.424 63.2998C129.621 61.3085 129.405 58.8888 130.834 56.3178L131.733 54.7012L129.888 54.8346C128.846 54.91 127.381 54.68 126.075 54.1661C124.773 53.654 123.889 52.9652 123.571 52.2837C123.137 50.0679 123.282 47.775 123.994 45.6332L124.506 44.0898L122.898 44.3287C118.84 44.9314 114.696 44.2979 110.993 42.5079L109.256 41.6679L109.569 43.5571C109.57 43.566 109.572 43.5862 109.574 43.619C109.579 43.6905 109.584 43.8206 109.581 44.021C109.575 44.4225 109.535 45.1 109.391 46.1451C109.104 48.2371 108.407 51.7767 106.758 57.486Z" fill="#5DC68D" stroke="#02221F" stroke-width="2"/>
<path d="M128.681 65.1389C122.705 59.253 117.148 52.9447 112.054 46.2617C116.274 53.6312 121.931 60.0539 128.681 65.1389V65.1389Z" fill="#02221F"/>
<path d="M121.744 45.8008C117.769 45.8041 113.816 45.2048 110.016 44.0228C109.744 43.9367 109.516 43.7456 109.382 43.4909C109.249 43.2362 109.219 42.9384 109.301 42.6619C109.34 42.5214 109.407 42.3904 109.498 42.277C109.589 42.1637 109.702 42.0702 109.83 42.0024C109.957 41.9347 110.097 41.894 110.241 41.8828C110.385 41.8716 110.53 41.8903 110.666 41.9375C119.831 44.7555 129.708 43.9718 138.327 39.7425C146.915 35.4669 153.6 28.0784 157.057 19.0435C157.095 18.8937 157.163 18.7536 157.258 18.6323C157.352 18.511 157.471 18.4113 157.606 18.3397C157.741 18.2681 157.89 18.2263 158.042 18.2169C158.195 18.2075 158.347 18.2308 158.49 18.2852C158.633 18.3396 158.763 18.424 158.871 18.5327C158.98 18.6415 159.064 18.7722 159.119 18.9163C159.174 19.0604 159.199 19.2147 159.191 19.369C159.183 19.5233 159.143 19.6742 159.073 19.8118C155.44 29.3901 148.372 37.2283 139.281 41.7619C133.814 44.4396 127.817 45.8209 121.744 45.8008V45.8008Z" fill="#02221F"/>
<path d="M113.702 44.3523C112.511 44.3562 111.322 44.2608 110.146 44.067C109.865 44.0136 109.616 43.8498 109.454 43.6113C109.291 43.3728 109.229 43.079 109.279 42.7938C109.3 42.6495 109.35 42.511 109.425 42.3867C109.5 42.2624 109.6 42.1549 109.717 42.0707C109.835 41.9865 109.968 41.9275 110.109 41.8971C110.25 41.8667 110.395 41.8656 110.537 41.8939C117.04 43.0792 124.627 40.2915 129.136 37.5039C134.374 34.303 138.31 29.3133 140.236 23.4338C140.325 23.1427 140.524 22.8994 140.791 22.7574C141.057 22.6154 141.368 22.5863 141.656 22.6765C141.943 22.7668 142.183 22.9689 142.324 23.2386C142.464 23.5082 142.493 23.8232 142.403 24.1143C140.328 30.5234 136.062 35.972 130.372 39.4794C125.316 42.5147 119.578 44.192 113.702 44.3523V44.3523Z" fill="#02221F"/>
<path d="M130.892 48.0833C123.706 48.1222 116.583 46.7274 109.93 43.9786C109.797 43.9257 109.677 43.8464 109.575 43.7454C109.474 43.6444 109.393 43.5238 109.339 43.3907C109.284 43.2577 109.256 43.1148 109.257 42.9707C109.258 42.8266 109.288 42.6842 109.344 42.5519C109.459 42.2887 109.669 42.0803 109.932 41.97C110.194 41.8596 110.488 41.8558 110.753 41.9592C124.197 47.3583 139.197 47.2006 152.527 41.5202C152.792 41.4168 153.086 41.4206 153.349 41.531C153.611 41.6413 153.821 41.8497 153.936 42.1129C153.993 42.2438 154.024 42.385 154.026 42.5281C154.029 42.6711 154.003 42.8133 153.95 42.9462C153.898 43.079 153.82 43.2 153.721 43.3019C153.621 43.4038 153.503 43.4846 153.373 43.5396C146.251 46.5503 138.609 48.0949 130.892 48.0833V48.0833Z" fill="#02221F"/>
<path d="M153.9 46.5466C154.678 46.6995 155.484 46.6148 156.214 46.3039C157.188 45.889 157.957 45.1023 158.356 44.1196C158.755 43.1372 158.753 42.0357 158.352 41.0543C158.051 40.3186 157.541 39.6878 156.883 39.2435C156.225 38.799 155.451 38.5615 154.657 38.5625C153.864 38.5635 153.09 38.803 152.434 39.2491C151.777 39.6952 151.268 40.3272 150.969 41.0637C150.67 41.8 150.594 42.609 150.75 43.3885C150.906 44.1681 151.287 44.8851 151.847 45.4477C152.407 46.0105 153.122 46.3937 153.9 46.5466Z" fill="#FC525A" stroke="#02221F" stroke-width="2"/>
<path d="M157.276 23.3757C158.053 23.5333 158.858 23.454 159.59 23.1483C160.569 22.7389 161.344 21.9545 161.749 20.9712C162.154 19.9882 162.156 18.8836 161.757 17.8986C161.458 17.1627 160.95 16.531 160.294 16.0848C159.639 15.6386 158.865 15.3985 158.073 15.3965C157.28 15.3945 156.506 15.6306 155.848 16.0736C155.19 16.5164 154.679 17.1456 154.377 17.88C154.074 18.6143 153.994 19.4222 154.146 20.2019C154.298 20.9816 154.675 21.7 155.231 22.2654C155.788 22.831 156.499 23.218 157.276 23.3757Z" fill="#FC525A" stroke="#02221F" stroke-width="2"/>
<path d="M138.45 25.2426L138.456 25.2619L138.464 25.281C138.866 26.2657 139.638 27.0527 140.616 27.4653C141.595 27.8782 142.696 27.881 143.676 27.4731L143.292 26.5498L143.685 27.4696C144.657 27.0549 145.426 26.2714 145.829 25.2919C146.232 24.3128 146.239 23.2133 145.847 22.2294L145.839 22.207L145.829 22.185C145.4 21.2417 144.626 20.4992 143.664 20.1167C142.703 19.7341 141.632 19.7429 140.677 20.1411C139.722 20.5392 138.96 21.2942 138.546 22.2443C138.133 23.194 138.098 24.268 138.45 25.2426Z" fill="#FC525A" stroke="#02221F" stroke-width="2"/>
<path d="M167.226 57.73L170.242 57.5976L167.743 55.9032C162.476 52.3334 157.676 49.5676 151 50.3602L148.672 50.6366L150.483 52.1257C155.198 56.0018 161.154 57.9966 167.226 57.73Z" fill="#5DC68D" stroke="#02221F" stroke-width="2"/>
<path d="M161.472 47.7574L158.733 48.5196L161.346 49.6399C165.382 51.3699 169.845 51.8043 174.133 50.8839L173.923 49.9061L174.372 49.0122C170.37 47.0061 165.779 46.5591 161.472 47.7574Z" fill="#5DC68D" stroke="#02221F" stroke-width="2"/>
<path d="M121.038 29.1485L122.553 27.7406L120.508 27.4274C117.587 26.98 114.602 27.2755 111.822 28.2869C109.042 29.2983 106.555 30.9935 104.585 33.2187L103.212 34.7698L105.281 34.8801C108.152 35.0332 111.025 34.6049 113.731 33.6205C116.437 32.6361 118.921 31.1156 121.038 29.1485Z" fill="#5DC68D" stroke="#02221F" stroke-width="2"/>
<path d="M309.768 41.0521C309.611 40.2716 309.228 39.5542 308.666 38.9919C307.92 38.2452 306.911 37.8242 305.856 37.8242C304.802 37.8242 303.792 38.2452 303.046 38.9919C302.484 39.5543 302.101 40.2716 301.944 41.0521C301.788 41.8325 301.863 42.6427 302.162 43.3801C302.462 44.1177 302.971 44.7505 303.629 45.1969C304.287 45.6433 305.062 45.8825 305.856 45.8825C306.651 45.8825 307.426 45.6433 308.084 45.1969C308.741 44.7506 309.251 44.1177 309.55 43.3801C309.849 42.6427 309.925 41.8325 309.768 41.0521Z" fill="#FC525A" stroke="#02221F" stroke-width="2"/>
<path d="M314.012 51.2572L314.012 51.2572L314.019 51.2508C314.392 50.8793 314.688 50.4369 314.89 49.9497C315.092 49.4626 315.195 48.9401 315.195 48.4127C315.195 47.8853 315.092 47.3629 314.89 46.8757C314.691 46.3953 314.4 45.9585 314.034 45.5902C313.683 45.2124 313.261 44.907 312.792 44.6917C312.317 44.4734 311.803 44.3524 311.28 44.3359C310.757 44.3195 310.237 44.408 309.749 44.596C309.261 44.7841 308.815 45.0678 308.437 45.4302L308.437 45.4301L308.431 45.4366C307.666 46.1836 307.228 47.2049 307.21 48.275C307.191 49.345 307.592 50.3812 308.33 51.155C309.068 51.9292 310.082 52.3774 311.15 52.3966C312.218 52.4159 313.247 52.0046 314.012 51.2572Z" fill="#FC525A" stroke="#02221F" stroke-width="2"/>
<path d="M310.127 40.7252L310.127 40.7252L310.128 40.7322C310.223 41.7828 310.72 42.7569 311.518 43.4447C312.317 44.1328 313.352 44.4789 314.402 44.4054L314.332 43.4079L314.409 44.4049C315.2 44.3438 315.955 44.0462 316.576 43.5515C317.198 43.0569 317.658 42.388 317.902 41.6308C318.145 40.8737 318.161 40.0608 317.947 39.2948C317.733 38.5287 317.299 37.8422 316.697 37.3236C316.095 36.8049 315.353 36.4777 314.565 36.3853C313.777 36.2929 312.98 36.4399 312.275 36.8065C311.571 37.1731 310.992 37.7421 310.611 38.4397C310.229 39.1371 310.061 39.9325 310.127 40.7252Z" fill="#FC525A" stroke="#02221F" stroke-width="2"/>
<path d="M284.31 48.795L284.454 50.2733L285.77 49.5839C290.997 46.8448 294.292 45.4914 296.257 44.8243C297.239 44.4911 297.883 44.3315 298.265 44.2555C298.455 44.2176 298.579 44.2008 298.646 44.1935C298.673 44.1906 298.69 44.1892 298.699 44.1887H300.657L299.487 42.5965C297.039 39.2658 295.633 35.2669 295.453 31.1165L295.381 29.4712L293.954 30.2936C292.019 31.4092 289.827 31.9841 287.602 31.9613C286.843 31.7875 285.989 31.0433 285.249 29.8442C284.507 28.6445 284.032 27.2286 283.939 26.1772L283.765 24.2085L282.282 25.5145C280.068 27.4641 277.695 27.7099 275.627 27.2857C273.514 26.8523 271.753 25.7192 270.953 24.9965L269.43 26.2605C270.78 28.4648 271.919 30.4724 272.395 32.5147C272.857 34.4957 272.699 36.5369 271.349 38.842L270.293 40.6459L272.36 40.3364C275.045 39.9343 277.851 40.0664 280.049 41.2487C282.176 42.3929 283.903 44.6127 284.31 48.795Z" fill="#5DC68D" stroke="#02221F" stroke-width="2"/>
<path d="M274.25 29.2715C281.099 34.0791 288.27 38.3991 295.711 42.2001C287.768 39.4035 280.467 35.0054 274.25 29.2715V29.2715Z" fill="#02221F"/>
<path d="M292.678 26.904L291.628 27.9103L292.944 28.5306C298.269 31.0414 301.362 32.8404 303.11 33.997C303.983 34.5748 304.515 34.9888 304.819 35.2471C304.971 35.3761 305.065 35.4653 305.116 35.5157C305.139 35.539 305.153 35.5538 305.159 35.5603L306.37 37.0322L306.885 35.1816C307.998 31.1812 310.26 27.608 313.382 24.9152L314.611 23.8545L313.111 23.2339C311.061 22.3864 309.266 21.0097 307.904 19.2401C307.576 18.5211 307.648 17.3972 308.138 16.0809C308.629 14.7627 309.449 13.5054 310.206 12.7487L311.513 11.4414L309.703 11.0627C306.812 10.4576 305.157 8.69946 304.219 6.77887C303.261 4.82008 303.071 2.72299 303.147 1.64166L301.207 1.23675C300.362 3.61912 299.492 5.76162 298.182 7.40032C296.909 8.993 295.204 10.1289 292.595 10.4567L290.534 10.7156L292.022 12.1651C293.954 14.0473 295.561 16.367 295.977 18.8547C296.38 21.2655 295.696 24.0131 292.678 26.904ZM305.162 35.5635C305.163 35.5645 305.162 35.5643 305.161 35.5627L305.162 35.5635Z" fill="#5DC68D" stroke="#02221F" stroke-width="2"/>
<path d="M301.781 6.88281C302.214 15.3084 303.236 23.6923 304.838 31.9718C302.143 23.9067 301.102 15.3693 301.781 6.88281V6.88281Z" fill="#02221F"/>
<path d="M212.113 57.4877L211.708 58.8975L213.168 58.7591C217.284 58.369 219.764 59.6553 221.29 61.556C222.869 63.5222 223.548 66.2967 223.695 69.0552L223.806 71.1487L225.363 69.7447C227.339 67.9628 229.309 67.4156 231.325 67.4962C233.402 67.5793 235.563 68.3285 237.896 69.2515L238.877 67.5317C238.023 66.8685 236.602 65.3268 235.785 63.2998C234.983 61.3103 234.771 58.8916 236.21 56.3203L237.116 54.7007L235.265 54.8346C234.223 54.91 232.752 54.68 231.44 54.1656C230.131 53.6528 229.244 52.9637 228.926 52.2836C228.492 50.0679 228.638 47.775 229.349 45.6332L229.862 44.0898L228.253 44.3287C224.195 44.9314 220.051 44.2979 216.349 42.5079L214.627 41.6754L214.924 43.5504C214.925 43.5592 214.926 43.5799 214.928 43.6136C214.933 43.6857 214.937 43.8163 214.933 44.0173C214.926 44.4198 214.883 45.0981 214.739 46.1438C214.449 48.2372 213.751 51.7778 212.113 57.4877Z" fill="#5DC68D" stroke="#02221F" stroke-width="2"/>
<path d="M234.124 65.1389C228.16 59.247 222.611 52.9392 217.518 46.2617C221.723 53.6353 227.374 60.0594 234.124 65.1389V65.1389Z" fill="#02221F"/>
<path d="M227.078 45.8001C223.11 45.8032 219.164 45.2039 215.372 44.0221C215.236 43.982 215.109 43.9147 214.998 43.8241C214.888 43.7335 214.797 43.6214 214.731 43.4946C214.664 43.3677 214.623 43.2286 214.61 43.0855C214.598 42.9423 214.613 42.798 214.657 42.6612C214.693 42.5215 214.758 42.3909 214.847 42.2777C214.936 42.1644 215.047 42.0709 215.173 42.003C215.299 41.935 215.438 41.8941 215.58 41.8827C215.722 41.8713 215.866 41.8897 216.001 41.9368C225.165 44.7548 235.043 43.9711 243.662 39.7418C252.222 35.4557 258.876 28.067 262.305 19.0428C262.355 18.9067 262.432 18.7822 262.531 18.6763C262.629 18.5705 262.747 18.4855 262.878 18.4263C263.009 18.3671 263.151 18.3348 263.294 18.3314C263.438 18.3279 263.58 18.3534 263.714 18.4063C263.977 18.5142 264.188 18.7201 264.305 18.9816C264.422 19.243 264.436 19.54 264.343 19.8111C260.7 29.3909 253.625 37.2285 244.529 41.7612C239.088 44.4259 233.122 45.8068 227.078 45.8001V45.8001Z" fill="#02221F"/>
<path d="M219.057 44.352C217.866 44.3578 216.677 44.2624 215.502 44.0666C215.219 44.0131 214.968 43.8502 214.802 43.6125C214.636 43.3748 214.568 43.0811 214.613 42.7935C214.634 42.6492 214.683 42.5107 214.758 42.3864C214.834 42.2621 214.933 42.1546 215.051 42.0704C215.168 41.9862 215.302 41.9271 215.443 41.8967C215.583 41.8663 215.729 41.8653 215.87 41.8936C222.374 43.0789 229.961 40.2912 234.47 37.5035C239.713 34.3086 243.65 29.3167 245.569 23.4335C245.663 23.1605 245.858 22.9349 246.112 22.804C246.367 22.6731 246.662 22.6469 246.935 22.7311C247.072 22.7733 247.199 22.843 247.308 22.9361C247.418 23.0292 247.508 23.1438 247.573 23.2729C247.637 23.4021 247.676 23.5431 247.685 23.6876C247.695 23.8322 247.676 23.9772 247.629 24.1139C245.56 30.5268 241.292 35.9776 235.597 39.4791C230.58 42.4938 224.889 44.1704 219.057 44.352V44.352Z" fill="#02221F"/>
<path d="M236.291 48.0835C229.106 48.1184 221.983 46.7238 215.329 43.9788C215.065 43.8672 214.856 43.6546 214.746 43.3874C214.636 43.1202 214.635 42.82 214.743 42.5521C214.862 42.2873 215.077 42.0785 215.343 41.9683C215.608 41.8582 215.906 41.855 216.174 41.9594C229.61 47.3596 244.603 47.2019 257.926 41.5204C258.194 41.416 258.492 41.4192 258.758 41.5293C259.023 41.6395 259.238 41.8483 259.357 42.1131C259.413 42.2454 259.443 42.3878 259.444 42.5319C259.445 42.676 259.417 42.8189 259.363 42.952C259.308 43.085 259.227 43.2057 259.126 43.3067C259.024 43.4076 258.904 43.4869 258.772 43.5398C251.65 46.5506 244.008 48.0952 236.291 48.0835V48.0835Z" fill="#02221F"/>
<path d="M259.228 46.5339C260.004 46.6915 260.81 46.6122 261.541 46.3065C262.521 45.8972 263.296 45.1127 263.701 44.1294C264.105 43.1464 264.108 42.0418 263.708 41.0568C263.41 40.3209 262.901 39.6892 262.246 39.243C261.59 38.7968 260.817 38.5567 260.025 38.5547C259.232 38.5527 258.458 38.7888 257.8 39.2318C257.142 39.6746 256.631 40.3038 256.328 41.0382C256.026 41.7725 255.946 42.5804 256.098 43.3601C256.249 44.1398 256.626 44.8582 257.183 45.4236C257.74 45.9892 258.451 46.3762 259.228 46.5339Z" fill="#FC525A" stroke="#02221F" stroke-width="2"/>
<path d="M262.545 23.3757C263.32 23.5331 264.124 23.4543 264.855 23.1497C265.342 22.9499 265.784 22.6547 266.156 22.2818C266.529 21.908 266.825 21.4636 267.026 20.9747C267.227 20.4859 267.33 19.9619 267.33 19.433C267.329 18.9053 267.225 18.3828 267.024 17.8953C266.725 17.1608 266.217 16.5303 265.563 16.0848C264.907 15.6386 264.134 15.3985 263.341 15.3965C262.549 15.3945 261.775 15.6306 261.117 16.0736C260.459 16.5164 259.947 17.1456 259.645 17.88C259.343 18.6143 259.263 19.4222 259.415 20.2019C259.566 20.9816 259.943 21.7 260.5 22.2654C261.056 22.831 261.768 23.218 262.545 23.3757Z" fill="#FC525A" stroke="#02221F" stroke-width="2"/>
<path d="M251.178 22.2241L251.178 22.2241L251.176 22.2174C250.874 21.4899 250.366 20.867 249.714 20.4282C249.062 19.9894 248.294 19.7549 247.508 19.7559C246.723 19.7568 245.956 19.993 245.304 20.4334C244.653 20.8736 244.146 21.4978 243.847 22.2259C243.547 22.9539 243.467 23.7546 243.616 24.5279C243.765 25.3012 244.137 26.0144 244.686 26.5769C245.236 27.1396 245.94 27.5266 246.709 27.6872C247.478 27.8478 248.277 27.7743 249.005 27.4766L248.626 26.5511L249.011 27.4737C249.991 27.0644 250.766 26.28 251.171 25.2966C251.575 24.3137 251.578 23.2091 251.178 22.2241Z" fill="#FC525A" stroke="#02221F" stroke-width="2"/>
<path d="M272.562 57.7299L275.567 57.5911L273.077 55.9032C267.811 52.3339 263.011 49.5674 256.355 50.3602L254.038 50.6362L255.836 52.1237C260.537 56.013 266.493 58.0103 272.562 57.7299Z" fill="#5DC68D" stroke="#02221F" stroke-width="2"/>
<path d="M279.488 50.8838L282.285 50.2853L279.725 49.0107C275.714 47.0145 271.122 46.5682 266.809 47.7565L264.052 48.516L266.681 49.6401C270.724 51.3686 275.194 51.8028 279.488 50.8838Z" fill="#5DC68D" stroke="#02221F" stroke-width="2"/>
<path d="M226.393 29.149L227.907 27.7424L225.864 27.4281C222.943 26.9785 219.957 27.273 217.176 28.2847C214.395 29.2963 211.909 30.9928 209.94 33.2197L208.569 34.7705L210.636 34.8806C213.508 35.0338 216.381 34.6055 219.086 33.6211C221.792 32.6367 224.276 31.1161 226.393 29.149Z" fill="#5DC68D" stroke="#02221F" stroke-width="2"/>
<path d="M415.102 41.0521C414.945 40.2716 414.562 39.5542 414 38.9919C413.254 38.2452 412.245 37.8242 411.19 37.8242C410.136 37.8242 409.126 38.2452 408.38 38.9919C407.818 39.5542 407.435 40.2716 407.278 41.0521C407.122 41.8325 407.197 42.6427 407.496 43.3801C407.796 44.1177 408.305 44.7505 408.963 45.1969C409.621 45.6433 410.396 45.8825 411.19 45.8825C411.985 45.8825 412.76 45.6433 413.418 45.1969C414.075 44.7505 414.585 44.1177 414.884 43.3801C415.183 42.6427 415.259 41.8325 415.102 41.0521Z" fill="#FC525A" stroke="#02221F" stroke-width="2"/>
<path d="M420.47 47.6408C420.317 46.8627 419.939 46.1463 419.383 45.5826C419.015 45.2057 418.576 44.9056 418.091 44.7004C417.605 44.4947 417.083 44.3887 416.556 44.3887C416.028 44.3887 415.506 44.4947 415.02 44.7004C414.536 44.9056 414.097 45.2057 413.728 45.5826C413.172 46.1462 412.794 46.8626 412.641 47.6408C412.487 48.4201 412.565 49.2282 412.866 49.9633C413.166 50.6984 413.676 51.3289 414.332 51.7734C414.989 52.218 415.763 52.4561 416.556 52.4561C417.348 52.4561 418.122 52.218 418.779 51.7734C419.435 51.3289 419.945 50.6984 420.246 49.9633C420.546 49.2282 420.624 48.4201 420.47 47.6408Z" fill="#FC525A" stroke="#02221F" stroke-width="2"/>
<path d="M415.505 40.7252L415.505 40.7252L415.505 40.7322C415.6 41.7828 416.098 42.7569 416.896 43.4447C417.694 44.1328 418.729 44.4789 419.779 44.4054L419.71 43.4079L419.787 44.4049C420.578 44.3438 421.332 44.0462 421.954 43.5515C422.575 43.0569 423.036 42.388 423.279 41.6308C423.522 40.8737 423.538 40.0608 423.324 39.2948C423.11 38.5287 422.676 37.8422 422.074 37.3236C421.473 36.8049 420.731 36.4777 419.943 36.3853C419.154 36.2929 418.357 36.4399 417.653 36.8065C416.949 37.1731 416.37 37.7421 415.988 38.4397C415.607 39.1371 415.439 39.9325 415.505 40.7252Z" fill="#FC525A" stroke="#02221F" stroke-width="2"/>
<path d="M389.644 48.7926L389.784 50.2751L391.103 49.5839C396.33 46.8448 399.625 45.4914 401.591 44.8243C402.573 44.4911 403.216 44.3315 403.598 44.2555C403.789 44.2176 403.913 44.2008 403.979 44.1935C404.006 44.1906 404.024 44.1892 404.032 44.1887H405.979L404.823 42.6001C402.392 39.2601 400.994 35.2629 400.808 31.1152L400.734 29.4731L399.31 30.2934C397.368 31.4119 395.168 31.9869 392.936 31.9614C392.177 31.7878 391.323 31.0436 390.582 29.8442C389.841 28.6445 389.365 27.2286 389.272 26.1772L389.098 24.2032L387.614 25.516C385.411 27.4635 383.04 27.7101 380.968 27.2856C378.852 26.8521 377.085 25.7185 376.287 24.9965L374.763 26.2605C376.113 28.4648 377.253 30.4724 377.729 32.5147C378.191 34.4957 378.033 36.5369 376.683 38.842L375.627 40.6446L377.693 40.3364C380.39 39.9342 383.201 40.0666 385.399 41.2487C387.525 42.3923 389.247 44.6108 389.644 48.7926Z" fill="#5DC68D" stroke="#02221F" stroke-width="2"/>
<path d="M379.605 29.2715C386.452 34.0836 393.623 38.4037 401.067 42.2001C393.119 39.4136 385.816 35.0143 379.605 29.2715Z" fill="#02221F"/>
<path d="M398.032 26.9052L396.985 27.9115L398.299 28.5306C403.624 31.0413 406.711 32.8401 408.453 33.9962C409.323 34.5738 409.852 34.9874 410.154 35.2452C410.304 35.3739 410.397 35.4628 410.447 35.5128C410.47 35.5353 410.483 35.5498 410.489 35.5563L411.701 37.0471L412.219 35.1807C413.329 31.1753 415.599 27.6008 418.734 24.9177L419.978 23.8526L418.462 23.2324C416.407 22.3914 414.605 21.0157 413.24 19.2435C412.919 18.521 412.993 17.3938 413.48 16.0794C413.969 14.7603 414.784 13.504 415.539 12.7487L416.847 11.4414L415.037 11.0627C412.145 10.4576 410.491 8.69946 409.552 6.77887C408.595 4.82008 408.404 2.72299 408.481 1.64166L406.541 1.23675C405.695 3.61912 404.825 5.76162 403.515 7.40032C402.242 8.993 400.538 10.1289 397.929 10.4567L395.868 10.7156L397.355 12.1651C399.287 14.0472 400.894 16.3673 401.313 18.8557C401.719 21.2674 401.039 24.0149 398.032 26.9052Z" fill="#5DC68D" stroke="#02221F" stroke-width="2"/>
<path d="M407.115 6.88281C407.555 15.3089 408.584 23.6928 410.193 31.9718C407.502 23.9056 406.455 15.3705 407.115 6.88281V6.88281Z" fill="#02221F"/>
<path d="M317.447 57.486L317.04 58.8978L318.503 58.7591C322.618 58.3691 325.099 59.6544 326.64 61.5657C328.234 63.5438 328.939 66.3389 329.139 69.1391L329.285 71.1889L330.808 69.8089C332.772 68.0284 334.735 67.4815 336.749 67.5621C338.823 67.6451 340.984 68.3943 343.317 69.3174L344.302 67.6009C343.456 66.9367 342.04 65.3937 341.222 63.3656C340.42 61.3743 340.204 58.9546 341.632 56.3836L342.531 54.767L340.686 54.9004C339.644 54.9758 338.179 54.7459 336.873 54.2319C335.569 53.7189 334.684 53.0286 334.368 52.3458C333.913 50.1357 334.058 47.8414 334.789 45.7077L335.321 44.153L333.696 44.3946C329.606 45.0026 325.429 44.3466 321.712 42.5115L319.98 41.6562L320.28 43.5503C320.281 43.5591 320.283 43.5797 320.285 43.6132C320.289 43.6851 320.293 43.8157 320.289 44.0165C320.281 44.4188 320.238 45.097 320.092 46.1426C319.8 48.2357 319.097 51.7762 317.447 57.486Z" fill="#5DC68D" stroke="#02221F" stroke-width="2"/>
<path d="M339.349 65.1389C333.385 59.247 327.836 52.9392 322.744 46.2617C326.956 53.6302 332.606 60.053 339.349 65.1389V65.1389Z" fill="#02221F"/>
<path d="M332.412 45.8001C328.444 45.8015 324.499 45.2023 320.706 44.0221C320.434 43.936 320.206 43.7449 320.072 43.4902C319.939 43.2355 319.909 42.9377 319.99 42.6612C320.03 42.5206 320.097 42.3897 320.188 42.2763C320.279 42.163 320.392 42.0695 320.52 42.0017C320.647 41.934 320.787 41.8933 320.931 41.8821C321.075 41.8709 321.22 41.8896 321.356 41.9368C330.521 44.7548 340.398 43.9711 349.017 39.7418C357.604 35.4723 364.285 28.0808 367.726 19.0428C367.776 18.9067 367.853 18.7822 367.951 18.6763C368.049 18.5705 368.168 18.4855 368.299 18.4263C368.43 18.3671 368.571 18.3348 368.715 18.3314C368.858 18.3279 369.001 18.3534 369.135 18.4063C369.268 18.455 369.391 18.5304 369.495 18.6279C369.6 18.7255 369.684 18.8432 369.742 18.9742C369.801 19.1052 369.833 19.2467 369.836 19.3905C369.84 19.5342 369.815 19.6772 369.763 19.8111C366.122 29.3847 359.057 37.2206 349.971 41.7612C344.496 44.4371 338.492 45.8181 332.412 45.8001V45.8001Z" fill="#02221F"/>
<path d="M324.391 44.3525C323.2 44.3565 322.011 44.261 320.836 44.0672C320.555 44.0138 320.306 43.85 320.143 43.6116C319.981 43.3731 319.918 43.0792 319.969 42.7941C319.99 42.6498 320.039 42.5113 320.114 42.387C320.19 42.2626 320.289 42.1551 320.407 42.0709C320.524 41.9868 320.658 41.9277 320.798 41.8973C320.939 41.8669 321.085 41.8658 321.226 41.8941C327.73 43.0575 335.295 40.2698 339.826 37.5041C345.063 34.3033 349 29.3135 350.925 23.434C351.014 23.1576 351.208 22.9284 351.464 22.7967C351.72 22.665 352.018 22.6416 352.291 22.7316C352.56 22.8268 352.783 23.0239 352.913 23.2817C353.042 23.5395 353.068 23.8379 352.985 24.1145C350.907 30.529 346.632 35.9792 340.932 39.4796C335.914 42.4944 330.223 44.171 324.391 44.3525V44.3525Z" fill="#02221F"/>
<path d="M341.582 48.0833C334.396 48.1222 327.273 46.7274 320.619 43.9786C320.487 43.9257 320.366 43.8464 320.265 43.7454C320.163 43.6444 320.083 43.5238 320.028 43.3907C319.973 43.2577 319.946 43.1148 319.947 42.9707C319.948 42.8266 319.977 42.6842 320.034 42.5519C320.148 42.2887 320.359 42.0803 320.621 41.97C320.883 41.8596 321.178 41.8558 321.443 41.9592C334.887 47.3583 349.886 47.2006 363.217 41.5202C363.482 41.4168 363.776 41.4206 364.038 41.531C364.301 41.6413 364.511 41.8497 364.626 42.1129C364.683 42.2438 364.713 42.385 364.716 42.5281C364.718 42.6711 364.692 42.8133 364.64 42.9462C364.587 43.079 364.509 43.2 364.41 43.3019C364.311 43.4038 364.192 43.4846 364.062 43.5396C356.94 46.5487 349.299 48.0932 341.582 48.0833V48.0833Z" fill="#02221F"/>
<path d="M364.562 46.5339C365.337 46.6913 366.141 46.6125 366.872 46.3079C367.359 46.1081 367.801 45.8129 368.173 45.44C368.547 45.0662 368.842 44.6218 369.043 44.1329C369.244 43.644 369.347 43.12 369.347 42.5912C369.346 42.0635 369.242 41.541 369.041 41.0535C368.742 40.319 368.234 39.6885 367.58 39.243C366.924 38.7968 366.151 38.5567 365.359 38.5547C364.566 38.5527 363.792 38.7888 363.134 39.2318C362.476 39.6746 361.965 40.3038 361.662 41.0382C361.36 41.7725 361.28 42.5804 361.432 43.3601C361.583 44.1398 361.96 44.8582 362.517 45.4236C363.074 45.9892 363.785 46.3762 364.562 46.5339Z" fill="#FC525A" stroke="#02221F" stroke-width="2"/>
<path d="M367.971 23.3893C368.75 23.5422 369.555 23.4576 370.285 23.1466C371.26 22.7318 372.028 21.9451 372.427 20.9624C372.826 19.98 372.825 18.8784 372.423 17.8971C372.123 17.1614 371.612 16.5306 370.954 16.0863C370.297 15.6418 369.522 15.4043 368.729 15.4053C367.935 15.4063 367.162 15.6458 366.505 16.0919C365.848 16.538 365.339 17.17 365.04 17.9064C364.741 18.6428 364.665 19.4517 364.821 20.2313C364.977 21.0109 365.358 21.7278 365.918 22.2905C366.479 22.8533 367.193 23.2364 367.971 23.3893Z" fill="#FC525A" stroke="#02221F" stroke-width="2"/>
<path d="M349.117 25.1757L349.132 25.23L349.154 25.2822C349.555 26.2668 350.327 27.0539 351.306 27.4665C352.284 27.8794 353.385 27.8822 354.366 27.4743L353.982 26.551L354.392 27.4629C355.35 27.0317 356.099 26.2382 356.481 25.2573C356.863 24.2768 356.85 23.1841 356.443 22.2135L356.421 22.1615L356.394 22.1123C355.917 21.2595 355.147 20.6101 354.225 20.2906C353.304 19.971 352.298 20.0049 351.4 20.3854C350.501 20.7658 349.776 21.465 349.356 22.3474C348.937 23.2294 348.852 24.2354 349.117 25.1757Z" fill="#FC525A" stroke="#02221F" stroke-width="2"/>
<path d="M377.892 57.7301L380.904 57.6005L378.412 55.9043C373.165 52.3331 368.344 49.5675 361.689 50.3602L359.362 50.6374L361.172 52.1257C365.881 55.9966 371.828 57.9909 377.892 57.7301Z" fill="#5DC68D" stroke="#02221F" stroke-width="2"/>
<path d="M372.162 47.7574L369.422 48.5196L372.036 49.6399C376.071 51.3699 380.535 51.8043 384.823 50.8839L384.613 49.9061L385.061 49.0122C381.06 47.0061 376.468 46.5591 372.162 47.7574Z" fill="#5DC68D" stroke="#02221F" stroke-width="2"/>
<path d="M315.274 33.2197L313.903 34.7705L315.97 34.8806C318.842 35.0338 321.715 34.6055 324.42 33.6211C327.126 32.6367 329.61 31.1161 331.727 29.149L331.046 28.4165L331.198 27.4281C328.277 26.9785 325.291 27.273 322.51 28.2847C319.729 29.2963 317.243 30.9928 315.274 33.2197Z" fill="#5DC68D" stroke="#02221F" stroke-width="2"/>
<path d="M520.216 40.3378C520.024 39.8438 519.738 39.3921 519.373 39.0089C518.635 38.2347 517.621 37.7865 516.553 37.7672C515.484 37.748 514.455 38.1593 513.69 38.9067C512.926 39.6537 512.488 40.675 512.469 41.7451C512.45 42.8151 512.852 43.8513 513.589 44.6251C513.954 45.0083 514.391 45.3157 514.875 45.529C515.359 45.7423 515.881 45.8572 516.409 45.8667C516.938 45.8763 517.463 45.7803 517.954 45.5845C518.445 45.3887 518.893 45.0972 519.272 44.7272C519.65 44.3573 519.953 43.9161 520.162 43.4292C520.371 42.9424 520.483 42.419 520.493 41.8889C520.502 41.3588 520.408 40.8318 520.216 40.3378Z" fill="#FC525A" stroke="#02221F" stroke-width="2"/>
<path d="M525.812 47.6368C525.656 46.8586 525.275 46.1433 524.716 45.5817C524.35 45.2062 523.913 44.9071 523.431 44.7024C522.947 44.4967 522.426 44.3906 521.9 44.3906C521.374 44.3906 520.854 44.4967 520.369 44.7024C519.887 44.9071 519.451 45.2062 519.085 45.5817C518.526 46.1433 518.145 46.8587 517.988 47.6368C517.832 48.4172 517.907 49.2274 518.206 49.9648C518.506 50.7024 519.015 51.3352 519.673 51.7816C520.331 52.228 521.106 52.4671 521.9 52.4671C522.695 52.4671 523.47 52.228 524.128 51.7816C524.785 51.3352 525.295 50.7024 525.594 49.9648C525.893 49.2274 525.969 48.4172 525.812 47.6368Z" fill="#FC525A" stroke="#02221F" stroke-width="2"/>
<path d="M520.839 40.7248L520.839 40.7248L520.839 40.7319C520.934 41.7879 521.436 42.7666 522.24 43.4552C523.045 44.1442 524.087 44.4866 525.142 44.4051L525.065 43.4081L525.149 44.4045C525.939 44.3378 526.69 44.0356 527.307 43.5378C527.924 43.0402 528.38 42.3698 528.62 41.6126C528.858 40.8554 528.87 40.0439 528.654 39.2801C528.437 38.5162 528.001 37.8327 527.398 37.3169C526.796 36.801 526.054 36.4765 525.267 36.3862C524.48 36.2958 523.685 36.444 522.982 36.811C522.279 37.1779 521.702 37.7465 521.321 38.443C520.941 39.1394 520.773 39.9334 520.839 40.7248Z" fill="#FC525A" stroke="#02221F" stroke-width="2"/>
<path d="M494.999 48.7944L495.143 50.2741L496.46 49.5829C501.675 46.8445 504.984 45.4915 506.968 44.8247C507.959 44.4915 508.613 44.3318 509.002 44.2556C509.197 44.2176 509.324 44.2006 509.394 44.1932C509.424 44.19 509.443 44.1887 509.452 44.1881H511.432L510.236 42.589C507.739 39.2531 506.297 35.2295 506.098 31.0462L506.021 29.4091L504.6 30.227C502.658 31.3453 500.459 31.9203 498.228 31.895C497.478 31.7214 496.625 30.9776 495.883 29.7778C495.142 28.5772 494.668 27.1644 494.585 26.1196L494.427 24.1278L492.928 25.4481C490.714 27.3976 488.341 27.6436 486.27 27.2192C484.154 26.7858 482.386 25.6524 481.573 24.9261L480.054 26.1941C481.405 28.3999 482.549 30.4071 483.028 32.4495C483.492 34.4293 483.334 36.4689 481.975 38.7728L480.926 40.5506L482.971 40.2718C485.695 39.9005 488.52 40.0477 490.729 41.2394C492.866 42.3921 494.593 44.613 494.999 48.7944Z" fill="#5DC68D" stroke="#02221F" stroke-width="2"/>
<path d="M484.939 29.2715C491.788 34.0791 498.959 38.3991 506.4 42.2001C498.457 39.4035 491.156 35.0054 484.939 29.2715V29.2715Z" fill="#02221F"/>
<path d="M503.367 26.9039L502.317 27.9103L503.633 28.5306C508.959 31.0413 512.051 32.8403 513.799 33.9969C514.672 34.5747 515.204 34.9887 515.508 35.247C515.66 35.376 515.754 35.4652 515.805 35.5156C515.828 35.5389 515.842 35.5537 515.848 35.5602L517.063 37.037L517.575 35.1789C518.677 31.1754 520.94 27.6009 524.069 24.9169L525.309 23.8532L523.797 23.2328C521.746 22.3909 519.951 21.0139 518.594 19.241C518.263 18.5198 518.332 17.3935 518.817 16.0777C519.303 14.7598 520.118 13.5039 520.873 12.7486L522.155 11.4667L520.387 11.0661C517.545 10.4223 515.882 8.6412 514.926 6.6992C513.952 4.72254 513.739 2.62457 513.815 1.55377L511.873 1.15268C511.039 3.53361 510.174 5.675 508.866 7.31243C507.594 8.90394 505.884 10.0407 503.263 10.3687L501.223 10.6241L502.683 12.0713C504.631 14.0005 506.244 16.3435 506.663 18.844C507.07 21.2661 506.385 24.0134 503.367 26.9039Z" fill="#5DC68D" stroke="#02221F" stroke-width="2"/>
<path d="M512.47 6.88281C512.904 15.3084 513.925 23.6923 515.527 31.9718C512.832 23.9067 511.792 15.3693 512.47 6.88281V6.88281Z" fill="#02221F"/>
<path d="M422.781 57.486L422.373 58.8974L423.836 58.7592C427.964 58.3689 430.443 59.6557 431.969 61.556C433.548 63.5225 434.227 66.2975 434.384 69.059L434.504 71.1485L436.054 69.7431C438.019 67.963 439.987 67.4156 442.003 67.4962C444.081 67.5792 446.241 68.3285 448.562 69.2509L449.549 67.535C448.703 66.8708 447.287 65.3281 446.472 63.3008C445.672 61.3106 445.461 58.8916 446.899 56.3203L447.805 54.702L445.955 54.8345C444.901 54.9101 443.43 54.6797 442.122 54.1659C440.818 53.6538 439.934 52.965 439.616 52.2837C439.182 50.0679 439.327 47.775 440.039 45.6332L440.552 44.0898L438.943 44.3287C434.885 44.9314 430.741 44.2979 427.038 42.5079L425.316 41.6753L425.613 43.5503C425.614 43.5591 425.616 43.5797 425.618 43.6132C425.622 43.6851 425.627 43.8157 425.623 44.0165C425.615 44.4188 425.572 45.097 425.426 46.1426C425.134 48.2357 424.431 51.7762 422.781 57.486Z" fill="#5DC68D" stroke="#02221F" stroke-width="2"/>
<path d="M444.704 65.1389C438.728 59.253 433.171 52.9447 428.077 46.2617C432.297 53.6312 437.954 60.0539 444.704 65.1389V65.1389Z" fill="#02221F"/>
<path d="M437.768 45.8006C433.793 45.804 429.839 45.2047 426.04 44.0227C425.893 43.9896 425.755 43.926 425.634 43.8359C425.513 43.7459 425.411 43.6313 425.336 43.4995C425.261 43.3677 425.214 43.2215 425.198 43.0703C425.182 42.919 425.196 42.766 425.242 42.6209C425.287 42.4758 425.362 42.3419 425.461 42.2275C425.56 42.1132 425.681 42.0209 425.817 41.9567C425.954 41.8924 426.102 41.8575 426.252 41.8542C426.402 41.8509 426.551 41.8792 426.69 41.9374C435.855 44.7554 445.732 43.9716 454.351 39.7424C462.938 35.4668 469.624 28.0783 473.081 19.0434C473.202 18.8032 473.407 18.6166 473.655 18.5193C473.904 18.4219 474.179 18.4206 474.428 18.5156C474.677 18.6107 474.883 18.7953 475.007 19.0344C475.13 19.2734 475.162 19.5501 475.097 19.8116C471.471 29.3946 464.401 37.2353 455.305 41.7618C449.838 44.4395 443.84 45.8207 437.768 45.8006V45.8006Z" fill="#02221F"/>
<path d="M429.725 44.352C428.534 44.3559 427.345 44.2605 426.169 44.0666C425.888 44.0133 425.639 43.8495 425.477 43.611C425.314 43.3725 425.252 43.0787 425.302 42.7935C425.323 42.6492 425.373 42.5107 425.448 42.3864C425.523 42.2621 425.623 42.1546 425.74 42.0704C425.858 41.9862 425.991 41.9271 426.132 41.8967C426.273 41.8663 426.418 41.8653 426.56 41.8936C433.063 43.0789 440.65 40.2912 445.159 37.5035C450.397 34.3027 454.333 29.3129 456.259 23.4335C456.353 23.1605 456.547 22.9349 456.802 22.804C457.056 22.6731 457.351 22.6469 457.624 22.7311C457.897 22.8215 458.124 23.0179 458.254 23.2772C458.384 23.5365 458.407 23.8374 458.318 24.1139C456.25 30.5268 451.982 35.9776 446.287 39.479C441.262 42.4965 435.564 44.1732 429.725 44.352V44.352Z" fill="#02221F"/>
<path d="M446.916 48.0835C439.73 48.1207 432.607 46.726 425.953 43.9788C425.821 43.9259 425.7 43.8466 425.599 43.7457C425.497 43.6447 425.417 43.524 425.362 43.391C425.307 43.2579 425.28 43.115 425.281 42.9709C425.282 42.8268 425.311 42.6844 425.368 42.5521C425.482 42.2889 425.693 42.0805 425.955 41.9702C426.217 41.8598 426.512 41.856 426.777 41.9594C440.221 47.3585 455.22 47.2009 468.551 41.5204C468.819 41.416 469.116 41.4192 469.382 41.5293C469.648 41.6395 469.862 41.8483 469.981 42.1131C470.083 42.3815 470.08 42.6794 469.971 42.9451C469.862 43.2107 469.656 43.4237 469.396 43.5398C462.275 46.5506 454.633 48.0952 446.916 48.0835Z" fill="#02221F"/>
<path d="M469.923 46.5466C470.701 46.6995 471.507 46.6148 472.237 46.3039C473.211 45.889 473.98 45.1023 474.379 44.1196C474.778 43.1372 474.776 42.0356 474.375 41.0543C474.074 40.3186 473.564 39.6879 472.906 39.2435C472.248 38.799 471.474 38.5615 470.68 38.5625C469.887 38.5635 469.113 38.803 468.457 39.2491C467.8 39.6952 467.291 40.3272 466.992 41.0637C466.693 41.8 466.617 42.609 466.773 43.3885C466.929 44.1681 467.31 44.8851 467.87 45.4477C468.43 46.0105 469.145 46.3937 469.923 46.5466Z" fill="#FC525A" stroke="#02221F" stroke-width="2"/>
<path d="M473.299 23.3757C474.076 23.5333 474.882 23.454 475.613 23.1483C476.593 22.739 477.368 21.9545 477.773 20.9712C478.177 19.9882 478.18 18.8836 477.78 17.8986C477.482 17.1627 476.973 16.531 476.318 16.0848C475.662 15.6386 474.889 15.3985 474.096 15.3965C473.304 15.3945 472.53 15.6306 471.872 16.0736C471.214 16.5164 470.702 17.1456 470.4 17.88C470.098 18.6143 470.018 19.4222 470.17 20.2019C470.321 20.9816 470.698 21.7 471.255 22.2654C471.811 22.8309 472.523 23.218 473.299 23.3757Z" fill="#FC525A" stroke="#02221F" stroke-width="2"/>
<path d="M454.472 25.2426L454.479 25.2619L454.487 25.281C454.889 26.2657 455.661 27.0527 456.639 27.4653C457.618 27.8782 458.719 27.881 459.699 27.4731L459.315 26.5498L459.701 27.4725C460.68 27.0631 461.456 26.2787 461.86 25.2954C462.265 24.3124 462.267 23.2078 461.868 22.2228L461.86 22.2037L461.852 22.185C461.423 21.2417 460.649 20.4992 459.687 20.1167C458.726 19.7341 457.655 19.7429 456.7 20.1411C455.745 20.5392 454.983 21.2942 454.569 22.2443C454.156 23.194 454.121 24.268 454.472 25.2426Z" fill="#FC525A" stroke="#02221F" stroke-width="2"/>
<path d="M483.249 57.73L486.266 57.5976L483.766 55.9032C478.499 52.3334 473.7 49.5676 467.024 50.3602L464.695 50.6366L466.507 52.1257C471.221 56.0018 477.177 57.9966 483.249 57.73Z" fill="#5DC68D" stroke="#02221F" stroke-width="2"/>
<path d="M477.474 47.7574L474.735 48.5196L477.348 49.6399C481.384 51.3699 485.847 51.8043 490.135 50.8839L489.925 49.9061L490.373 49.0122C486.372 47.0061 481.781 46.5591 477.474 47.7574Z" fill="#5DC68D" stroke="#02221F" stroke-width="2"/>
<path d="M420.609 33.2187L419.237 34.768L421.303 34.88C424.176 35.0358 427.049 34.6086 429.756 33.624C432.462 32.6394 434.946 31.1173 437.062 29.1479L436.38 28.4159L436.532 27.4274C433.61 26.98 430.625 27.2755 427.845 28.2869C425.065 29.2983 422.578 30.9935 420.609 33.2187Z" fill="#5DC68D" stroke="#02221F" stroke-width="2"/>
<path d="M625.55 40.3378C625.358 39.8438 625.071 39.3921 624.706 39.0089C623.968 38.2347 622.954 37.7865 621.886 37.7672C620.818 37.748 619.788 38.1593 619.024 38.9067C618.259 39.6537 617.821 40.675 617.802 41.7451C617.784 42.8151 618.185 43.8513 618.923 44.6251C619.288 45.0083 619.725 45.3157 620.209 45.529C620.693 45.7423 621.214 45.8572 621.743 45.8667C622.271 45.8763 622.796 45.7802 623.288 45.5845C623.779 45.3887 624.226 45.0972 624.605 44.7272C624.984 44.3573 625.286 43.9161 625.495 43.4292C625.705 42.9424 625.817 42.419 625.826 41.8889C625.836 41.3588 625.742 40.8318 625.55 40.3378Z" fill="#FC525A" stroke="#02221F" stroke-width="2"/>
<path d="M630.036 51.2572L630.036 51.2572L630.042 51.2508C630.416 50.8792 630.711 50.4368 630.913 49.9497C631.115 49.4627 631.219 48.9402 631.219 48.4127C631.219 47.8853 631.115 47.3628 630.913 46.8757C630.714 46.3954 630.424 45.9585 630.058 45.5902C629.706 45.2124 629.284 44.907 628.815 44.6917C628.34 44.4734 627.826 44.3524 627.304 44.3359C626.781 44.3195 626.261 44.408 625.772 44.596C625.284 44.7841 624.839 45.0678 624.461 45.4302L624.461 45.4301L624.454 45.4366C624.076 45.8066 623.773 46.2478 623.564 46.7347C623.355 47.2215 623.242 47.7449 623.233 48.275C623.224 48.805 623.318 49.3321 623.51 49.8261C623.702 50.3201 623.988 50.7718 624.353 51.155C624.719 51.5383 625.155 51.8456 625.639 52.0589C626.123 52.2722 626.645 52.3871 627.173 52.3966C627.702 52.4062 628.227 52.3102 628.718 52.1144C629.21 51.9187 629.657 51.6272 630.036 51.2572Z" fill="#FC525A" stroke="#02221F" stroke-width="2"/>
<path d="M626.194 40.7252L626.194 40.7252L626.195 40.7322C626.29 41.7828 626.787 42.7569 627.585 43.4447C628.383 44.1328 629.419 44.4789 630.469 44.4054L630.399 43.4079L630.476 44.4049C631.267 44.3438 632.021 44.0462 632.643 43.5515C633.265 43.0569 633.725 42.3881 633.969 41.6308C634.212 40.8737 634.228 40.0608 634.014 39.2948C633.8 38.5286 633.366 37.8422 632.764 37.3236C632.162 36.8049 631.42 36.4776 630.632 36.3853C629.844 36.2929 629.047 36.4399 628.342 36.8065C627.638 37.1731 627.059 37.7421 626.678 38.4397C626.296 39.1371 626.128 39.9325 626.194 40.7252Z" fill="#FC525A" stroke="#02221F" stroke-width="2"/>
<path d="M600.334 48.7926L600.474 50.2751L601.793 49.5839C607.02 46.8448 610.315 45.4914 612.281 44.8243C613.263 44.4911 613.906 44.3315 614.288 44.2555C614.479 44.2176 614.603 44.2008 614.669 44.1935C614.696 44.1906 614.714 44.1892 614.722 44.1887H616.674L615.512 42.5987C613.073 39.2611 611.668 35.2637 611.476 31.1138L611.4 29.4721L609.977 30.294C608.043 31.4113 605.851 31.9862 603.626 31.9614C602.867 31.7877 602.013 31.0435 601.272 29.8442C600.531 28.6445 600.055 27.2286 599.962 26.1772L599.788 24.2032L598.304 25.516C596.101 27.4635 593.73 27.7101 591.658 27.2856C589.542 26.8521 587.775 25.7185 586.977 24.9965L585.453 26.2605C586.803 28.4648 587.943 30.4725 588.419 32.5147C588.881 34.4957 588.723 36.5369 587.373 38.842L586.317 40.6446L588.383 40.3364C591.08 39.9342 593.891 40.0666 596.089 41.2487C598.215 42.3923 599.937 44.6108 600.334 48.7926Z" fill="#5DC68D" stroke="#02221F" stroke-width="2"/>
<path d="M590.294 29.2715C597.138 34.0884 604.31 38.4087 611.756 42.2001C603.808 39.4136 596.505 35.0143 590.294 29.2715V29.2715Z" fill="#02221F"/>
<path d="M608.701 26.904L607.651 27.9103L608.967 28.5306C614.292 31.0414 617.385 32.8404 619.133 33.997C620.006 34.5748 620.538 34.9888 620.842 35.2471C620.994 35.3761 621.088 35.4653 621.139 35.5157C621.162 35.539 621.176 35.5538 621.182 35.5603L622.393 37.0321L622.908 35.1816C624.021 31.1812 626.283 27.608 629.405 24.9152L630.634 23.8545L629.134 23.2339C627.084 22.3864 625.289 21.0097 623.927 19.2401C623.599 18.5211 623.671 17.3972 624.161 16.0809C624.652 14.7627 625.472 13.5053 626.229 12.7487L627.536 11.4414L625.726 11.0627C622.835 10.4576 621.18 8.69946 620.242 6.77887C619.284 4.82009 619.094 2.72299 619.17 1.64166L617.23 1.23675C616.385 3.61912 615.514 5.76162 614.205 7.40032C612.932 8.993 611.227 10.1289 608.618 10.4567L606.557 10.7156L608.045 12.1651C609.977 14.0473 611.584 16.367 612 18.8547C612.403 21.2655 611.719 24.013 608.701 26.904Z" fill="#5DC68D" stroke="#02221F" stroke-width="2"/>
<path d="M617.826 6.88281C618.259 15.3084 619.28 23.6923 620.882 31.9718C618.198 23.9043 617.158 15.3691 617.826 6.88281V6.88281Z" fill="#02221F"/>
<path d="M528.136 57.4877L527.732 58.8975L529.192 58.7591C533.308 58.369 535.788 59.6551 537.317 61.5566C538.899 63.5236 539.583 66.299 539.74 69.059L539.859 71.1485L541.41 69.7431C543.375 67.9626 545.338 67.4157 547.351 67.4962C549.426 67.5792 551.586 68.3285 553.92 69.2515L554.901 67.5317C554.046 66.8685 552.626 65.3268 551.809 63.2998C551.007 61.3103 550.795 58.8916 552.234 56.3203L553.14 54.7007L551.289 54.8346C550.247 54.91 548.782 54.6801 547.472 54.1659C546.17 53.6545 545.277 52.9651 544.949 52.2788C544.513 50.0657 544.666 47.7744 545.392 45.6401L545.922 44.0846L544.297 44.329C540.24 44.9392 536.095 44.3055 532.396 42.5087L530.687 41.6785L530.968 43.5435C530.969 43.5523 530.971 43.5733 530.973 43.6077C530.977 43.6803 530.981 43.8114 530.976 44.0127C530.966 44.416 530.921 45.0951 530.774 46.1414C530.479 48.2358 529.776 51.7773 528.136 57.4877Z" fill="#5DC68D" stroke="#02221F" stroke-width="2"/>
<path d="M550.038 65.1389C544.074 59.247 538.525 52.9392 533.433 46.2617C537.645 53.6302 543.295 60.053 550.038 65.1389V65.1389Z" fill="#02221F"/>
<path d="M543.101 45.8001C539.134 45.8032 535.188 45.2039 531.395 44.0221C531.123 43.936 530.896 43.7449 530.762 43.4902C530.628 43.2355 530.599 42.9377 530.68 42.6612C530.717 42.5215 530.782 42.3909 530.87 42.2777C530.959 42.1644 531.07 42.0709 531.196 42.003C531.322 41.935 531.461 41.8941 531.603 41.8827C531.746 41.8713 531.889 41.8897 532.024 41.9368C541.196 44.754 551.08 43.9704 559.707 39.7418C568.288 35.4653 574.967 28.0762 578.415 19.0428C578.466 18.9067 578.542 18.7822 578.641 18.6763C578.739 18.5705 578.857 18.4855 578.988 18.4263C579.119 18.3671 579.261 18.3348 579.404 18.3314C579.548 18.3279 579.69 18.3534 579.824 18.4063C579.958 18.455 580.08 18.5304 580.185 18.6279C580.289 18.7255 580.373 18.8432 580.432 18.9742C580.49 19.1052 580.522 19.2467 580.526 19.3905C580.53 19.5342 580.505 19.6772 580.453 19.8111C576.816 29.3943 569.739 37.2338 560.639 41.7612C555.172 44.4389 549.174 45.8201 543.101 45.8001Z" fill="#02221F"/>
<path d="M535.08 44.352C533.889 44.3578 532.7 44.2624 531.525 44.0666C531.243 44.0131 530.992 43.8502 530.826 43.6125C530.66 43.3748 530.592 43.0811 530.636 42.7935C530.66 42.6506 530.711 42.5137 530.787 42.3909C530.863 42.2682 530.963 42.1619 531.08 42.0782C531.197 41.9945 531.329 41.9351 531.468 41.9034C531.608 41.8717 531.753 41.8684 531.894 41.8936C538.397 43.0569 545.984 40.2693 550.515 37.5035C555.747 34.3017 559.676 29.3114 561.593 23.4335C561.687 23.1605 561.881 22.9349 562.136 22.804C562.39 22.6731 562.685 22.6469 562.958 22.7311C563.095 22.7733 563.222 22.843 563.332 22.9361C563.441 23.0292 563.531 23.1438 563.596 23.2729C563.661 23.4021 563.699 23.5431 563.709 23.6876C563.718 23.8322 563.699 23.9772 563.652 24.1139C561.577 30.5231 557.31 35.9717 551.621 39.4791C546.603 42.4938 540.912 44.1704 535.08 44.352V44.352Z" fill="#02221F"/>
<path d="M552.271 48.0835C545.085 48.1224 537.962 46.7276 531.309 43.9788C531.176 43.9256 531.055 43.8465 530.953 43.7459C530.851 43.6454 530.769 43.5254 530.713 43.3929C530.657 43.2604 530.627 43.1179 530.625 42.9736C530.623 42.8294 530.649 42.6861 530.702 42.5521C530.821 42.2873 531.035 42.0785 531.301 41.9683C531.567 41.8582 531.864 41.855 532.132 41.9594C545.569 47.3596 560.562 47.2019 573.884 41.5204C574.153 41.416 574.45 41.4192 574.716 41.5293C574.982 41.6395 575.196 41.8483 575.315 42.1131C575.372 42.2454 575.401 42.3878 575.402 42.5319C575.403 42.676 575.376 42.8189 575.321 42.952C575.266 43.085 575.186 43.2057 575.084 43.3067C574.983 43.4076 574.862 43.4869 574.73 43.5398C567.616 46.5483 559.981 48.0928 552.271 48.0835V48.0835Z" fill="#02221F"/>
<path d="M575.251 46.5339C576.028 46.6915 576.833 46.6122 577.565 46.3065C578.544 45.8971 579.32 45.1127 579.724 44.1294C580.129 43.1464 580.131 42.0418 579.732 41.0568C579.433 40.3209 578.925 39.6892 578.269 39.243C577.614 38.7968 576.841 38.5567 576.048 38.5547C575.255 38.5527 574.481 38.7888 573.823 39.2318C573.165 39.6746 572.654 40.3038 572.352 41.0382C572.05 41.7725 571.969 42.5803 572.121 43.3601C572.273 44.1399 572.65 44.8582 573.206 45.4236C573.763 45.9892 574.474 46.3762 575.251 46.5339Z" fill="#FC525A" stroke="#02221F" stroke-width="2"/>
<path d="M578.633 23.3757C579.409 23.5331 580.213 23.4542 580.944 23.1497C581.431 22.9499 581.873 22.6547 582.245 22.2818C582.618 21.908 582.914 21.4636 583.115 20.9747C583.316 20.4858 583.419 19.9618 583.419 19.433C583.418 18.9053 583.314 18.3827 583.113 17.8952C582.814 17.1608 582.306 16.5303 581.652 16.0848C580.996 15.6386 580.223 15.3985 579.43 15.3965C578.638 15.3945 577.863 15.6306 577.206 16.0736C576.548 16.5164 576.036 17.1456 575.734 17.88C575.432 18.6143 575.352 19.4222 575.503 20.2019C575.655 20.9816 576.032 21.7 576.589 22.2654C577.145 22.831 577.857 23.218 578.633 23.3757Z" fill="#FC525A" stroke="#02221F" stroke-width="2"/>
<path d="M562.733 27.6872C563.502 27.8478 564.301 27.7743 565.029 27.4766C565.517 27.2767 565.96 26.981 566.333 26.6072C566.706 26.2334 567.002 25.789 567.203 25.3002C567.404 24.8113 567.507 24.2873 567.507 23.7584C567.506 23.2296 567.402 22.7058 567.2 22.2174C566.898 21.4899 566.39 20.867 565.738 20.4282C565.085 19.9894 564.318 19.7549 563.532 19.7559C562.746 19.7568 561.98 19.993 561.328 20.4334C560.677 20.8736 560.17 21.4977 559.871 22.2259C559.571 22.9539 559.491 23.7546 559.64 24.5279C559.789 25.3012 560.161 26.0143 560.71 26.5769C561.26 27.1397 561.964 27.5266 562.733 27.6872Z" fill="#FC525A" stroke="#02221F" stroke-width="2"/>
<path d="M588.584 57.73L591.593 57.5931L589.1 55.9032C583.835 52.3344 579.078 49.5677 572.38 50.3601L570.057 50.6349L571.86 52.1242C576.563 56.0093 582.517 58.0059 588.584 57.73Z" fill="#5DC68D" stroke="#02221F" stroke-width="2"/>
<path d="M582.832 47.7565L580.075 48.516L582.705 49.6401C586.748 51.3686 591.217 51.8028 595.512 50.8838L595.302 49.9059L595.748 49.0107C591.738 47.0145 587.145 46.5682 582.832 47.7565Z" fill="#5DC68D" stroke="#02221F" stroke-width="2"/>
<path d="M526.029 33.2193L524.651 34.7764L526.728 34.8809C529.588 35.0247 532.448 34.5918 535.141 33.6077C537.835 32.6235 540.307 31.1079 542.416 29.1493L541.736 28.4165L541.884 27.4277C538.973 26.9902 536.001 27.2907 533.234 28.3019C530.466 29.3131 527.991 31.0031 526.029 33.2193Z" fill="#5DC68D" stroke="#02221F" stroke-width="2"/>
<path d="M724.405 38.9904L724.405 38.9904L724.4 38.9955C723.842 39.5595 723.463 40.2769 723.31 41.0563C723.156 41.8355 723.234 42.6436 723.534 43.3787C723.835 44.1139 724.345 44.7444 725.001 45.1888C725.658 45.6334 726.432 45.8716 727.224 45.8716C728.017 45.8716 728.791 45.6334 729.448 45.1888C730.104 44.7443 730.614 44.1139 730.915 43.3787C731.215 42.6437 731.293 41.8356 731.139 41.0563C730.986 40.2769 730.607 39.5595 730.049 38.9955L729.338 39.6987L730.044 38.9904C729.294 38.2432 728.282 37.8223 727.224 37.8223C726.167 37.8223 725.155 38.2432 724.405 38.9904Z" fill="#FC525A" stroke="#02221F" stroke-width="2"/>
<path d="M735.424 45.6019C735.054 45.2025 734.606 44.8832 734.108 44.6645C733.609 44.4453 733.07 44.332 732.525 44.332C731.98 44.332 731.441 44.4453 730.941 44.6645C730.443 44.8832 729.996 45.2025 729.625 45.6019C729.09 46.1733 728.732 46.8896 728.596 47.6618C728.459 48.4352 728.548 49.2326 728.855 49.9555C729.161 50.6786 729.671 51.2968 730.323 51.7321C730.976 52.1675 731.741 52.4003 732.525 52.4003C733.308 52.4003 734.074 52.1675 734.726 51.7321C735.378 51.2968 735.888 50.6786 736.195 49.9555C736.501 49.2326 736.591 48.4352 736.454 47.6618C736.317 46.8896 735.96 46.1733 735.424 45.6019Z" fill="#FC525A" stroke="#02221F" stroke-width="2"/>
<path d="M735.81 44.4049C736.601 44.3438 737.356 44.0462 737.977 43.5515C738.599 43.0569 739.059 42.3881 739.303 41.6308C739.546 40.8737 739.562 40.0608 739.348 39.2948C739.134 38.5286 738.7 37.8422 738.098 37.3236C737.496 36.8049 736.754 36.4776 735.966 36.3853C735.178 36.2929 734.381 36.4399 733.676 36.8065C732.972 37.1731 732.393 37.7421 732.012 38.4397C731.63 39.1371 731.462 39.9325 731.528 40.7252C731.616 41.7805 732.113 42.7609 732.914 43.4514C733.715 44.1423 734.756 44.4863 735.81 44.4049Z" fill="#FC525A" stroke="#02221F" stroke-width="2"/>
<path d="M705.711 48.7974L705.858 50.2742L707.172 49.5831C712.377 46.8443 715.665 45.4912 717.631 44.8243C718.612 44.4912 719.257 44.3316 719.64 44.2556C719.831 44.2177 719.956 44.2009 720.023 44.1936C720.051 44.1906 720.069 44.1892 720.077 44.1887H722.058L720.86 42.5893C718.375 39.2709 716.933 35.271 716.723 31.1094L716.64 29.4784L715.225 30.2934C713.283 31.4119 711.083 31.9869 708.852 31.9614C708.092 31.7878 707.238 31.0437 706.501 29.8455C705.762 28.6463 705.293 27.2331 705.21 26.186L705.052 24.1942L703.552 25.5145C701.338 27.464 698.965 27.71 696.894 27.2856C694.779 26.8522 693.01 25.7188 692.198 24.9926L690.678 26.2605C692.028 28.4648 693.168 30.4725 693.644 32.5147C694.106 34.4957 693.948 36.5369 692.598 38.842L691.546 40.6382L693.605 40.3368C696.36 39.9338 699.2 40.0666 701.417 41.2502C703.562 42.3953 705.294 44.6151 705.711 48.7974Z" fill="#5DC68D" stroke="#02221F" stroke-width="2"/>
<path d="M695.629 29.2715C702.478 34.0791 709.649 38.3991 717.09 42.2001C709.145 39.4085 701.843 35.0098 695.629 29.2715V29.2715Z" fill="#02221F"/>
<path d="M714.056 26.9052L713.009 27.9115L714.322 28.5306C719.648 31.0413 722.735 32.8401 724.476 33.9962C725.347 34.5738 725.875 34.9874 726.177 35.2452C726.328 35.3739 726.421 35.4628 726.47 35.5128C726.493 35.5353 726.506 35.5498 726.512 35.5563L727.725 37.0471L728.242 35.1807C729.353 31.1753 731.623 27.6008 734.758 24.9177L736.002 23.8526L734.486 23.2324C732.43 22.3914 730.629 21.0157 729.264 19.2435C728.942 18.521 729.016 17.3938 729.503 16.0794C729.992 14.7603 730.807 13.504 731.563 12.7487L732.865 11.4467L731.064 11.0634C728.227 10.4598 726.569 8.70285 725.614 6.77429C724.642 4.80996 724.429 2.71289 724.504 1.64166L722.564 1.23675C721.719 3.61912 720.848 5.76162 719.539 7.40032C718.266 8.993 716.561 10.1289 713.952 10.4567L711.884 10.7165L713.381 12.167C715.322 14.0481 716.928 16.3675 717.345 18.8547C717.748 21.2661 717.063 24.0141 714.056 26.9052Z" fill="#5DC68D" stroke="#02221F" stroke-width="2"/>
<path d="M723.138 6.88281C723.589 15.3079 724.618 23.6911 726.216 31.9718C723.525 23.9056 722.478 15.3705 723.138 6.88281V6.88281Z" fill="#02221F"/>
<path d="M633.47 57.486L633.063 58.8974L634.525 58.7592C638.653 58.3689 641.133 59.6557 642.659 61.556C644.238 63.5225 644.917 66.2975 645.074 69.059L645.193 71.1485L646.744 69.7431C648.708 67.963 650.676 67.4156 652.693 67.4962C654.77 67.5792 656.931 68.3285 659.252 69.2509L660.239 67.535C659.392 66.8708 657.976 65.3278 657.159 63.2998C656.356 61.3085 656.14 58.8888 657.569 56.3178L658.467 54.7012L656.622 54.8346C655.58 54.91 654.115 54.68 652.809 54.1661C651.505 53.653 650.62 52.9627 650.304 52.28C649.849 50.0698 649.995 47.7755 650.725 45.6418L651.258 44.0873L649.632 44.3287C645.574 44.9314 641.43 44.2979 637.728 42.5079L636.006 41.6754L636.303 43.5502C636.304 43.5591 636.306 43.5797 636.308 43.6132C636.312 43.6851 636.316 43.8157 636.312 44.0165C636.304 44.4188 636.261 45.097 636.115 46.1426C635.823 48.2357 635.12 51.7762 633.47 57.486Z" fill="#5DC68D" stroke="#02221F" stroke-width="2"/>
<path d="M655.373 65.1389C649.409 59.247 643.86 52.9392 638.767 46.2617C642.986 53.6255 648.635 60.0472 655.373 65.1389V65.1389Z" fill="#02221F"/>
<path d="M648.435 45.8008C644.468 45.8022 640.522 45.203 636.729 44.0228C636.457 43.9367 636.23 43.7456 636.096 43.4909C635.962 43.2362 635.933 42.9384 636.014 42.6619C636.053 42.5214 636.12 42.3904 636.211 42.277C636.302 42.1637 636.415 42.0702 636.543 42.0025C636.671 41.9347 636.811 41.894 636.955 41.8828C637.098 41.8716 637.243 41.8903 637.38 41.9375C646.544 44.7555 656.421 43.9718 665.041 39.7425C673.628 35.4669 680.314 28.0784 683.771 19.0435C683.808 18.8937 683.876 18.7536 683.971 18.6323C684.065 18.511 684.184 18.4113 684.319 18.3397C684.455 18.2681 684.603 18.2263 684.756 18.2169C684.908 18.2075 685.061 18.2308 685.203 18.2852C685.346 18.3396 685.476 18.424 685.584 18.5327C685.693 18.6415 685.777 18.7722 685.832 18.9163C685.888 19.0604 685.912 19.2147 685.904 19.369C685.896 19.5233 685.856 19.6742 685.787 19.8118C682.146 29.3854 675.08 37.2213 665.995 41.7619C660.52 44.44 654.515 45.8211 648.435 45.8008V45.8008Z" fill="#02221F"/>
<path d="M640.415 44.3515C639.224 44.3555 638.035 44.26 636.859 44.0662C636.578 44.0128 636.329 43.849 636.167 43.6105C636.004 43.3721 635.942 43.0782 635.992 42.7931C636.013 42.6488 636.063 42.5103 636.138 42.3859C636.213 42.2616 636.313 42.1541 636.43 42.0699C636.548 41.9858 636.681 41.9267 636.822 41.8963C636.963 41.8659 637.108 41.8648 637.25 41.8931C643.753 43.0565 651.319 40.2688 655.849 37.5031C661.087 34.3022 665.023 29.3125 666.949 23.433C666.989 23.2911 667.056 23.1588 667.148 23.0441C667.24 22.9293 667.353 22.8345 667.482 22.7652C667.611 22.6959 667.752 22.6536 667.897 22.6408C668.042 22.6281 668.188 22.6451 668.327 22.6909C668.466 22.7366 668.594 22.8103 668.703 22.9073C668.813 23.0043 668.903 23.1228 668.966 23.2556C669.03 23.3884 669.066 23.5328 669.073 23.6802C669.081 23.8276 669.058 23.975 669.008 24.1135C666.926 30.5252 662.652 35.9737 656.955 39.4786C651.938 42.496 646.247 44.1728 640.415 44.3515V44.3515Z" fill="#02221F"/>
<path d="M657.605 48.0833C650.419 48.1222 643.296 46.7274 636.643 43.9786C636.51 43.9257 636.39 43.8464 636.288 43.7454C636.187 43.6444 636.106 43.5238 636.051 43.3907C635.997 43.2577 635.969 43.1148 635.97 42.9707C635.971 42.8266 636.001 42.6842 636.057 42.5519C636.172 42.2887 636.382 42.0803 636.645 41.97C636.907 41.8596 637.201 41.8558 637.466 41.9592C650.91 47.3583 665.91 47.2006 679.24 41.5202C679.505 41.4168 679.799 41.4206 680.062 41.531C680.324 41.6413 680.534 41.8497 680.649 42.1129C680.706 42.2438 680.737 42.385 680.739 42.5281C680.742 42.6711 680.716 42.8133 680.663 42.9462C680.611 43.079 680.533 43.2 680.434 43.3019C680.334 43.4038 680.216 43.4846 680.085 43.5396C672.964 46.5487 665.322 48.0932 657.605 48.0833V48.0833Z" fill="#02221F"/>
<path d="M680.585 46.5339C681.361 46.6913 682.165 46.6125 682.895 46.3079C683.382 46.1081 683.825 45.8129 684.197 45.44C684.57 45.0662 684.865 44.6218 685.067 44.1329C685.268 43.644 685.371 43.12 685.37 42.5912C685.37 42.0635 685.266 41.5409 685.064 41.0534C684.766 40.319 684.258 39.6885 683.603 39.243C682.948 38.7968 682.174 38.5567 681.382 38.5547C680.589 38.5527 679.815 38.7888 679.157 39.2318C678.499 39.6746 677.988 40.3038 677.686 41.0382C677.384 41.7725 677.304 42.5804 677.455 43.3601C677.607 44.1398 677.984 44.8582 678.54 45.4236C679.097 45.9892 679.808 46.3762 680.585 46.5339Z" fill="#FC525A" stroke="#02221F" stroke-width="2"/>
<path d="M683.988 23.3757C684.765 23.5333 685.571 23.454 686.302 23.1483C687.282 22.7389 688.057 21.9545 688.461 20.9712C688.866 19.9882 688.869 18.8836 688.469 17.8986C688.171 17.1627 687.662 16.531 687.007 16.0848C686.351 15.6386 685.578 15.3985 684.785 15.3965C683.993 15.3945 683.219 15.6306 682.561 16.0736C681.903 16.5164 681.391 17.1455 681.089 17.88C680.787 18.6143 680.707 19.4222 680.858 20.2019C681.01 20.9817 681.387 21.7 681.944 22.2654C682.5 22.831 683.212 23.218 683.988 23.3757Z" fill="#FC525A" stroke="#02221F" stroke-width="2"/>
<path d="M670.005 26.5505L670.39 27.4738C669.409 27.8816 668.308 27.8788 667.329 27.466C666.352 27.0535 665.579 26.2666 665.178 25.2822L670.005 26.5505ZM670.005 26.5505L670.397 27.4705C671.371 27.0556 672.14 26.2689 672.539 25.2862C672.938 24.304 672.937 23.2027 672.535 22.2215C672.134 21.2391 671.363 20.4543 670.386 20.0439C669.409 19.6333 668.31 19.6325 667.332 20.0417C666.355 20.4507 665.582 21.2344 665.18 22.2162C664.778 23.1975 664.777 24.2997 665.177 25.2817L670.005 26.5505Z" fill="#FC525A" stroke="#02221F" stroke-width="2"/>
<path d="M693.916 57.7301L696.928 57.6005L694.436 55.9043C689.189 52.3331 684.368 49.5675 677.713 50.3602L675.386 50.6374L677.196 52.1257C681.905 55.9966 687.852 57.9909 693.916 57.7301Z" fill="#5DC68D" stroke="#02221F" stroke-width="2"/>
<path d="M688.185 47.7574L685.446 48.5196L688.059 49.6399C692.095 51.3699 696.558 51.8043 700.846 50.8839L700.636 49.9061L701.084 49.0122C697.083 47.0061 692.492 46.5591 688.185 47.7574Z" fill="#5DC68D" stroke="#02221F" stroke-width="2"/>
<path d="M631.298 33.2197L629.927 34.7705L631.994 34.8806C634.865 35.0338 637.738 34.6055 640.444 33.6211C643.15 32.6367 645.633 31.1161 647.75 29.149L647.07 28.4165L647.222 27.4281C644.3 26.9785 641.314 27.273 638.533 28.2847C635.753 29.2963 633.266 30.9928 631.298 33.2197Z" fill="#5DC68D" stroke="#02221F" stroke-width="2"/>
<path d="M836.175 40.3378C835.983 39.8438 835.696 39.3921 835.331 39.0089C834.593 38.2347 833.579 37.7865 832.511 37.7672C831.443 37.748 830.413 38.1593 829.649 38.9067C828.884 39.6537 828.446 40.675 828.427 41.7451C828.409 42.8151 828.81 43.8513 829.548 44.6251C829.913 45.0083 830.35 45.3157 830.834 45.529C831.318 45.7423 831.839 45.8572 832.368 45.8667C832.896 45.8763 833.421 45.7802 833.913 45.5845C834.404 45.3887 834.851 45.0972 835.23 44.7272C835.609 44.3573 835.911 43.9161 836.12 43.4292C836.33 42.9424 836.442 42.419 836.451 41.8889C836.461 41.3588 836.367 40.8318 836.175 40.3378Z" fill="#FC525A" stroke="#02221F" stroke-width="2"/>
<path d="M841.836 47.6373C841.679 46.858 841.297 46.1416 840.736 45.5796C840.369 45.2071 839.932 44.9107 839.449 44.7081C838.966 44.5051 838.448 44.4004 837.924 44.4004C837.4 44.4004 836.881 44.5051 836.398 44.7081C835.916 44.9107 835.479 45.2071 835.111 45.5796C834.55 46.1416 834.169 46.858 834.012 47.6373C833.855 48.4177 833.931 49.2278 834.23 49.9653C834.529 50.7029 835.039 51.3357 835.696 51.7821C836.354 52.2285 837.129 52.4677 837.924 52.4677C838.718 52.4677 839.493 52.2285 840.151 51.7821C840.809 51.3357 841.318 50.7029 841.618 49.9653C841.917 49.2278 841.992 48.4177 841.836 47.6373Z" fill="#FC525A" stroke="#02221F" stroke-width="2"/>
<path d="M836.906 40.7252L836.906 40.7252L836.906 40.7322C837.001 41.7828 837.499 42.7569 838.297 43.4447C839.095 44.1328 840.13 44.4789 841.18 44.4054L841.111 43.4079L841.188 44.4049C841.979 44.3438 842.733 44.0462 843.355 43.5515C843.976 43.0569 844.437 42.3881 844.68 41.6308C844.923 40.8736 844.939 40.0608 844.725 39.2948C844.511 38.5287 844.077 37.8423 843.475 37.3236C842.874 36.8049 842.132 36.4776 841.344 36.3853C840.555 36.2929 839.758 36.4399 839.054 36.8065C838.35 37.1731 837.771 37.7421 837.389 38.4397C837.008 39.137 836.84 39.9324 836.906 40.7252Z" fill="#FC525A" stroke="#02221F" stroke-width="2"/>
<path d="M811.023 48.795L811.167 50.2747L812.483 49.5835C817.699 46.8446 820.993 45.4914 822.961 44.8244C823.945 44.4913 824.59 44.3317 824.974 44.2557C825.165 44.2177 825.29 44.2009 825.357 44.1936C825.385 44.1906 825.402 44.1892 825.411 44.1887H827.369L826.199 42.5965C823.752 39.2658 822.346 35.2669 822.165 31.1165L822.094 29.4712L820.667 30.2936C818.731 31.4092 816.539 31.9841 814.315 31.9613C813.555 31.7875 812.702 31.0433 811.961 29.8442C811.22 28.6445 810.744 27.2286 810.651 26.1772L810.478 24.2085L808.994 25.5145C806.78 27.464 804.408 27.71 802.336 27.2856C800.221 26.8522 798.453 25.7188 797.64 24.9926L796.123 26.2635C797.483 28.467 798.627 30.474 799.102 32.5147C799.564 34.4937 799.402 36.5339 798.042 38.8392L796.976 40.6458L799.05 40.3364C801.747 39.9343 804.559 40.0665 806.759 41.2489C808.889 42.3931 810.616 44.6128 811.023 48.795Z" fill="#5DC68D" stroke="#02221F" stroke-width="2"/>
<path d="M800.962 29.2715C807.812 34.0791 814.983 38.3991 822.424 42.2001C814.481 39.4035 807.18 35.0054 800.962 29.2715V29.2715Z" fill="#02221F"/>
<path d="M819.39 26.904L818.34 27.9103L819.656 28.5306C824.982 31.0414 828.074 32.8404 829.822 33.997C830.695 34.5748 831.227 34.9888 831.531 35.2471C831.683 35.3761 831.777 35.4653 831.828 35.5157C831.851 35.539 831.865 35.5538 831.871 35.5603L833.082 37.0321L833.597 35.1816C834.71 31.1812 836.972 27.608 840.094 24.9152L841.327 23.8514L839.821 23.2329C837.769 22.391 835.974 21.014 834.617 19.2411C834.287 18.5202 834.355 17.3941 834.842 16.0794C835.33 14.7622 836.149 13.5075 836.913 12.753L838.239 11.4442L836.416 11.0627C833.524 10.4576 831.869 8.69946 830.928 6.77795C829.968 4.81887 829.771 2.7196 829.838 1.6329L827.896 1.24057C827.062 3.6215 826.197 5.76289 824.889 7.40032C823.617 8.99183 821.907 10.1286 819.286 10.4566L817.216 10.7156L818.714 12.167C820.656 14.0489 822.268 16.3686 822.686 18.8557C823.092 21.2658 822.408 24.013 819.39 26.904Z" fill="#5DC68D" stroke="#02221F" stroke-width="2"/>
<path d="M828.494 6.88281C828.927 15.3084 829.948 23.6923 831.551 31.9718C828.855 23.9067 827.815 15.3693 828.494 6.88281V6.88281Z" fill="#02221F"/>
<path d="M738.825 57.4877L738.421 58.8975L739.881 58.7591C743.997 58.3691 746.471 59.6551 747.995 61.5554C749.571 63.5221 750.25 66.2975 750.408 69.059L750.526 71.1418L752.076 69.7447C754.052 67.9627 756.022 67.4157 758.035 67.4962C760.109 67.5792 762.264 68.3282 764.586 69.2509L765.572 67.535C764.726 66.8708 763.31 65.3281 762.496 63.3008C761.696 61.3106 761.484 58.8916 762.923 56.3203L763.828 54.702L761.979 54.8345C760.924 54.9101 759.453 54.6797 758.145 54.1659C756.841 53.6538 755.957 52.965 755.639 52.2837C755.205 50.0679 755.35 47.775 756.062 45.6332L756.575 44.0898L754.966 44.3287C750.908 44.9314 746.764 44.2979 743.062 42.5079L741.34 41.6754L741.636 43.5504C741.637 43.5592 741.639 43.5799 741.641 43.6136C741.646 43.6857 741.65 43.8163 741.646 44.0173C741.638 44.4198 741.596 45.0981 741.452 46.1438C741.162 48.2372 740.464 51.7778 738.825 57.4877Z" fill="#5DC68D" stroke="#02221F" stroke-width="2"/>
<path d="M760.728 65.1389C754.757 59.2473 749.201 52.9395 744.101 46.2617C748.321 53.6312 753.978 60.0539 760.728 65.1389V65.1389Z" fill="#02221F"/>
<path d="M753.791 45.8008C749.823 45.8055 745.877 45.2062 742.085 44.0228C741.841 43.915 741.645 43.7203 741.534 43.4759C741.423 43.2314 741.405 42.9542 741.482 42.6968C741.56 42.4395 741.728 42.2199 741.955 42.08C742.182 41.94 742.452 41.8893 742.713 41.9375C751.878 44.7555 761.755 43.9718 770.375 39.7425C778.954 35.4625 785.631 28.0746 789.083 19.0435C789.12 18.8937 789.188 18.7536 789.283 18.6323C789.377 18.511 789.496 18.4113 789.632 18.3397C789.767 18.2681 789.915 18.2263 790.068 18.2169C790.22 18.2075 790.373 18.2308 790.515 18.2852C790.658 18.3396 790.788 18.424 790.896 18.5327C791.005 18.6415 791.089 18.7722 791.145 18.9163C791.2 19.0604 791.224 19.2147 791.216 19.369C791.208 19.5233 791.168 19.6742 791.099 19.8118C787.478 29.3982 780.407 37.2407 771.307 41.7619C765.846 44.4364 759.856 45.8175 753.791 45.8008V45.8008Z" fill="#02221F"/>
<path d="M745.727 44.352C744.543 44.3569 743.361 44.2615 742.193 44.0666C741.906 44.0172 741.649 43.8541 741.481 43.6133C741.312 43.3724 741.245 43.0736 741.293 42.7826C741.342 42.4915 741.503 42.232 741.741 42.0611C741.979 41.8903 742.274 41.8221 742.562 41.8716C749.065 43.035 756.652 40.2473 761.161 37.4816C766.403 34.2901 770.347 29.3083 772.282 23.4335C772.376 23.1605 772.571 22.9349 772.826 22.804C773.08 22.6731 773.375 22.6469 773.648 22.7311C773.921 22.8215 774.147 23.0179 774.277 23.2772C774.407 23.5365 774.431 23.8374 774.342 24.1139C772.267 30.5231 768 35.9717 762.31 39.4791C757.28 42.5001 751.573 44.1769 745.727 44.352V44.352Z" fill="#02221F"/>
<path d="M762.939 48.0835C755.753 48.1207 748.63 46.726 741.976 43.9788C741.712 43.8672 741.503 43.6546 741.393 43.3874C741.284 43.1202 741.283 42.82 741.391 42.5521C741.505 42.2889 741.716 42.0805 741.978 41.9702C742.241 41.8598 742.535 41.856 742.8 41.9594C756.244 47.3585 771.243 47.2009 784.574 41.5204C784.842 41.416 785.139 41.4192 785.405 41.5293C785.671 41.6395 785.885 41.8483 786.004 42.1131C786.106 42.3815 786.103 42.6794 785.994 42.9451C785.885 43.2107 785.679 43.4237 785.419 43.5398C778.298 46.5506 770.656 48.0952 762.939 48.0835V48.0835Z" fill="#02221F"/>
<path d="M785.941 46.5339C786.717 46.6915 787.523 46.6122 788.254 46.3065C789.234 45.8971 790.009 45.1127 790.414 44.1294C790.818 43.1464 790.821 42.0418 790.421 41.0568C790.123 40.3209 789.614 39.6892 788.959 39.243C788.303 38.7968 787.53 38.5567 786.737 38.5547C785.945 38.5527 785.171 38.7888 784.513 39.2318C783.855 39.6746 783.343 40.3038 783.041 41.0382C782.739 41.7725 782.659 42.5803 782.811 43.3601C782.962 44.1399 783.339 44.8582 783.896 45.4236C784.453 45.9892 785.164 46.3762 785.941 46.5339Z" fill="#FC525A" stroke="#02221F" stroke-width="2"/>
<path d="M788.685 22.8757C789.553 23.3258 790.555 23.4396 791.502 23.1944C792.051 23.0521 792.563 22.7933 793.005 22.4361C793.447 22.0789 793.808 21.6314 794.064 21.1239C794.321 20.6164 794.468 20.0601 794.496 19.4917C794.524 18.9233 794.432 18.3551 794.227 17.8248C794.021 17.2943 793.706 16.8132 793.302 16.4136C792.898 16.0141 792.414 15.7053 791.882 15.5084C791.349 15.3116 790.781 15.2315 790.215 15.2736C789.649 15.3158 789.099 15.4792 788.602 15.7526C787.745 16.2231 787.09 16.9927 786.758 17.9138C786.426 18.8346 786.438 19.8461 786.792 20.7589C787.145 21.6719 787.818 22.4258 788.685 22.8757Z" fill="#FC525A" stroke="#02221F" stroke-width="2"/>
<path d="M770.496 25.2426L770.503 25.2619L770.511 25.281C770.912 26.2657 771.685 27.0527 772.663 27.4653C773.642 27.8782 774.743 27.881 775.723 27.4731L775.339 26.5498L775.725 27.4725C776.704 27.0631 777.479 26.2787 777.884 25.2954C778.289 24.3124 778.291 23.2078 777.892 22.2228L777.884 22.2037L777.875 22.185C777.447 21.2417 776.673 20.4992 775.711 20.1167C774.75 19.7341 773.679 19.7429 772.724 20.1411C771.769 20.5392 771.007 21.2942 770.593 22.2443C770.18 23.194 770.145 24.268 770.496 25.2426Z" fill="#FC525A" stroke="#02221F" stroke-width="2"/>
<path d="M799.271 57.73L802.288 57.5976L799.789 55.9032C794.522 52.3334 789.722 49.5676 783.046 50.3602L780.718 50.6366L782.529 52.1257C787.244 56.0018 793.2 57.9966 799.271 57.73Z" fill="#5DC68D" stroke="#02221F" stroke-width="2"/>
<path d="M793.519 47.7574L790.78 48.5196L793.393 49.6399C797.429 51.3699 801.892 51.8043 806.18 50.8839L805.97 49.9061L806.418 49.0122C802.417 47.0061 797.826 46.5591 793.519 47.7574Z" fill="#5DC68D" stroke="#02221F" stroke-width="2"/>
<path d="M736.653 33.2197L735.282 34.7713L737.35 34.8807C740.221 35.0325 743.093 34.6036 745.799 33.6193C748.504 32.635 750.988 31.1153 753.106 29.1493L752.425 28.4165L752.577 27.4281C749.656 26.9785 746.669 27.273 743.889 28.2847C741.108 29.2963 738.622 30.9928 736.653 33.2197Z" fill="#5DC68D" stroke="#02221F" stroke-width="2"/>
<path d="M941.815 41.0521C941.658 40.2716 941.275 39.5543 940.713 38.9919C939.967 38.2452 938.957 37.8242 937.903 37.8242C936.848 37.8242 935.839 38.2452 935.093 38.9919C934.531 39.5543 934.148 40.2716 933.991 41.0521C933.834 41.8325 933.91 42.6427 934.209 43.3801C934.508 44.1177 935.018 44.7506 935.675 45.1969C936.333 45.6433 937.108 45.8825 937.903 45.8825C938.697 45.8825 939.472 45.6433 940.13 45.1969C940.788 44.7505 941.297 44.1177 941.597 43.3801C941.896 42.6427 941.971 41.8325 941.815 41.0521Z" fill="#FC525A" stroke="#02221F" stroke-width="2"/>
<path d="M946.114 45.6019C945.743 45.2024 945.296 44.8832 944.798 44.6645C944.298 44.4453 943.759 44.332 943.214 44.332C942.669 44.332 942.13 44.4453 941.631 44.6645C941.133 44.8832 940.685 45.2025 940.315 45.6019C939.779 46.1733 939.422 46.8896 939.285 47.6618C939.148 48.4352 939.238 49.2326 939.544 49.9555C939.851 50.6786 940.361 51.2968 941.013 51.7321C941.665 52.1675 942.431 52.4003 943.214 52.4003C943.998 52.4003 944.763 52.1675 945.416 51.7321C946.068 51.2968 946.578 50.6786 946.884 49.9555C947.191 49.2326 947.28 48.4352 947.143 47.6618C947.007 46.8896 946.649 46.1733 946.114 45.6019Z" fill="#FC525A" stroke="#02221F" stroke-width="2"/>
<path d="M946.492 44.4054L946.492 44.4055L946.499 44.4049C947.29 44.3438 948.044 44.0462 948.666 43.5515C949.287 43.0569 949.748 42.3881 949.991 41.6308C950.235 40.8737 950.251 40.0608 950.037 39.2948C949.823 38.5286 949.388 37.8422 948.787 37.3236C948.185 36.8049 947.443 36.4776 946.655 36.3853C945.867 36.2929 945.07 36.4399 944.365 36.8065C943.661 37.1731 943.082 37.7421 942.701 38.4397C942.319 39.1371 942.151 39.9325 942.217 40.7252L942.217 40.7252L942.218 40.7322C942.313 41.7828 942.81 42.7569 943.608 43.4447C944.406 44.1328 945.441 44.4789 946.492 44.4054Z" fill="#FC525A" stroke="#02221F" stroke-width="2"/>
<path d="M916.357 48.795L916.501 50.276L917.818 49.5831C923.022 46.8445 926.316 45.4914 928.287 44.8246C929.271 44.4915 929.918 44.3319 930.304 44.2558C930.496 44.2178 930.621 44.201 930.689 44.1937C930.718 44.1906 930.736 44.1892 930.745 44.1887H932.691L931.536 42.6004C929.104 39.2575 927.7 35.2612 927.499 31.1117L927.42 29.474L926 30.294C924.066 31.4113 921.874 31.9862 919.649 31.9614C918.89 31.7877 918.036 31.0435 917.295 29.8442C916.554 28.6445 916.078 27.2286 915.985 26.1772L915.811 24.2032L914.327 25.516C912.124 27.4635 909.753 27.7101 907.681 27.2856C905.565 26.8521 903.798 25.7185 903 24.9965L901.476 26.2605C902.826 28.4648 903.965 30.4725 904.442 32.5147C904.904 34.4957 904.746 36.5369 903.396 38.842L902.34 40.6446L904.406 40.3364C907.103 39.9342 909.909 40.0666 912.103 41.2485C914.227 42.3921 915.95 44.6114 916.357 48.795Z" fill="#5DC68D" stroke="#02221F" stroke-width="2"/>
<path d="M906.318 29.2715C913.162 34.0884 920.334 38.4087 927.78 42.2001C919.832 39.4136 912.529 35.0143 906.318 29.2715V29.2715Z" fill="#02221F"/>
<path d="M924.725 26.904L923.674 27.9103L924.99 28.5306C930.316 31.0414 933.409 32.8404 935.156 33.997C936.029 34.5748 936.561 34.9887 936.866 35.2471C937.017 35.3761 937.111 35.4653 937.162 35.5157C937.185 35.5389 937.199 35.5538 937.205 35.5603L938.418 37.0339L938.932 35.1807C940.042 31.1753 942.312 27.6008 945.447 24.9177L946.691 23.8526L945.175 23.2324C943.118 22.3909 941.316 21.014 939.951 19.2401C939.622 18.5212 939.694 17.3972 940.184 16.0809C940.675 14.7627 941.495 13.5053 942.252 12.7487L943.559 11.4414L941.75 11.0627C938.858 10.4576 937.204 8.69946 936.265 6.77887C935.308 4.82009 935.117 2.72299 935.194 1.64166L933.254 1.23675C932.408 3.61912 931.538 5.76162 930.228 7.40032C928.955 8.993 927.251 10.1289 924.641 10.4567L922.58 10.7156L924.068 12.1651C926 14.0473 927.607 16.367 928.023 18.8547C928.427 21.2655 927.742 24.0131 924.725 26.904Z" fill="#5DC68D" stroke="#02221F" stroke-width="2"/>
<path d="M933.828 6.88281C934.272 15.3074 935.293 23.6906 936.884 31.9718C934.2 23.9043 933.16 15.3691 933.828 6.88281V6.88281Z" fill="#02221F"/>
<path d="M844.16 57.486L843.753 58.8978L845.215 58.7591C849.332 58.369 851.812 59.6551 853.341 61.5566C854.923 63.5236 855.607 66.299 855.764 69.059L855.883 71.1485L857.434 69.7431C859.398 67.9626 861.362 67.4157 863.375 67.4962C865.449 67.5792 867.61 68.3285 869.943 69.2515L870.929 67.535C870.081 66.8699 868.66 65.3263 867.84 63.2988C867.035 61.3084 866.819 58.8904 868.257 56.3203L869.163 54.7007L867.312 54.8346C866.27 54.91 864.805 54.68 863.499 54.1661C862.195 53.653 861.31 52.9627 860.994 52.28C860.539 50.0698 860.685 47.7755 861.415 45.6418L861.949 44.0841L860.32 44.329C856.263 44.9392 852.119 44.3056 848.42 42.5087L846.695 41.6711L846.993 43.5502C846.994 43.5591 846.995 43.5797 846.997 43.6132C847.002 43.6851 847.006 43.8157 847.002 44.0165C846.994 44.4188 846.951 45.097 846.805 46.1426C846.513 48.2357 845.81 51.7762 844.16 57.486Z" fill="#5DC68D" stroke="#02221F" stroke-width="2"/>
<path d="M866.061 65.1389C860.098 59.247 854.549 52.9392 849.456 46.2617C853.668 53.6302 859.318 60.053 866.061 65.1389V65.1389Z" fill="#02221F"/>
<path d="M859.125 45.8001C855.157 45.8032 851.211 45.2039 847.419 44.0221C847.147 43.936 846.919 43.7449 846.785 43.4902C846.651 43.2355 846.622 42.9377 846.703 42.6612C846.74 42.5215 846.805 42.3909 846.894 42.2777C846.983 42.1644 847.094 42.0709 847.22 42.003C847.346 41.935 847.484 41.8941 847.627 41.8827C847.769 41.8713 847.912 41.8897 848.047 41.9368C857.22 44.754 867.103 43.9704 875.73 39.7418C884.317 35.4723 890.998 28.0808 894.439 19.0428C894.489 18.9067 894.566 18.7822 894.664 18.6763C894.762 18.5705 894.881 18.4855 895.012 18.4263C895.143 18.3671 895.284 18.3348 895.428 18.3314C895.571 18.3279 895.714 18.3534 895.848 18.4063C895.981 18.455 896.104 18.5304 896.208 18.6279C896.312 18.7255 896.396 18.8432 896.455 18.9742C896.514 19.1052 896.546 19.2467 896.549 19.3905C896.553 19.5342 896.528 19.6772 896.476 19.8111C892.828 29.3874 885.755 37.2232 876.662 41.7612C871.196 44.4389 865.198 45.8201 859.125 45.8001V45.8001Z" fill="#02221F"/>
<path d="M851.104 44.3523C849.935 44.3536 848.768 44.2582 847.614 44.067C847.331 44.0134 847.081 43.8505 846.915 43.6128C846.749 43.3752 846.681 43.0814 846.725 42.7938C846.749 42.6509 846.8 42.514 846.876 42.3913C846.952 42.2685 847.052 42.1622 847.169 42.0785C847.286 41.9948 847.418 41.9354 847.557 41.9038C847.697 41.8721 847.842 41.8687 847.983 41.8939C854.486 43.0572 862.073 40.2696 866.604 37.5039C871.811 34.2902 875.716 29.3013 877.616 23.4338C877.706 23.1427 877.905 22.8994 878.172 22.7574C878.438 22.6154 878.749 22.5863 879.036 22.6765C879.324 22.7668 879.564 22.9689 879.704 23.2386C879.845 23.5082 879.873 23.8232 879.784 24.1143C877.702 30.5259 873.428 35.9745 867.731 39.4794C862.688 42.5084 856.965 44.1855 851.104 44.3523V44.3523Z" fill="#02221F"/>
<path d="M868.294 48.0835C861.108 48.1224 853.985 46.7276 847.332 43.9788C847.199 43.9256 847.078 43.8465 846.976 43.7459C846.874 43.6454 846.792 43.5254 846.736 43.3929C846.68 43.2604 846.649 43.1179 846.648 42.9736C846.646 42.8294 846.672 42.6861 846.725 42.5521C846.844 42.2873 847.058 42.0785 847.324 41.9683C847.59 41.8582 847.887 41.855 848.155 41.9594C861.592 47.3596 876.585 47.2019 889.907 41.5204C890.176 41.416 890.473 41.4192 890.739 41.5293C891.005 41.6395 891.219 41.8483 891.338 42.1131C891.395 42.2454 891.424 42.3878 891.425 42.5319C891.426 42.676 891.398 42.8189 891.344 42.952C891.289 43.085 891.209 43.2057 891.107 43.3067C891.006 43.4076 890.885 43.4869 890.753 43.5398C883.639 46.5505 876.004 48.0952 868.294 48.0835Z" fill="#02221F"/>
<path d="M891.21 46.5339C891.985 46.6913 892.789 46.6125 893.52 46.3079C894.007 46.1081 894.449 45.8129 894.821 45.44C895.195 45.0662 895.49 44.6218 895.691 44.1329C895.892 43.644 895.995 43.12 895.995 42.5912C895.994 42.0635 895.89 41.5409 895.689 41.0534C895.39 40.319 894.882 39.6885 894.228 39.243C893.572 38.7968 892.799 38.5567 892.006 38.5547C891.214 38.5527 890.44 38.7888 889.782 39.2318C889.124 39.6746 888.613 40.3038 888.31 41.0382C888.008 41.7725 887.928 42.5803 888.08 43.3601C888.231 44.1399 888.608 44.8582 889.165 45.4236C889.722 45.9892 890.433 46.3762 891.21 46.5339Z" fill="#FC525A" stroke="#02221F" stroke-width="2"/>
<path d="M894.684 23.3893C895.462 23.5422 896.268 23.4576 896.998 23.1466C897.972 22.7318 898.741 21.9451 899.14 20.9624C899.538 19.98 899.537 18.8784 899.136 17.8971C898.835 17.1614 898.324 16.5306 897.667 16.0863C897.009 15.6418 896.234 15.4043 895.441 15.4053C894.648 15.4063 893.874 15.6458 893.217 16.0919C892.561 16.538 892.052 17.17 891.753 17.9064C891.454 18.6428 891.378 19.4517 891.533 20.2313C891.689 21.0109 892.07 21.7278 892.631 22.2905C893.191 22.8533 893.905 23.2364 894.684 23.3893Z" fill="#FC525A" stroke="#02221F" stroke-width="2"/>
<path d="M878.756 27.6872C879.526 27.8478 880.324 27.7743 881.052 27.4766C881.54 27.2767 881.984 26.981 882.357 26.6072C882.73 26.2334 883.025 25.789 883.226 25.3002C883.428 24.8113 883.531 24.2873 883.53 23.7584C883.53 23.2296 883.425 22.7058 883.223 22.2174C882.922 21.4899 882.414 20.867 881.761 20.4282C881.109 19.9894 880.341 19.7549 879.556 19.7559C878.77 19.7568 878.003 19.993 877.351 20.4334C876.7 20.8736 876.194 21.4977 875.894 22.2259C875.594 22.9539 875.514 23.7546 875.663 24.5279C875.812 25.3012 876.184 26.0143 876.734 26.5769C877.284 27.1397 877.987 27.5266 878.756 27.6872Z" fill="#FC525A" stroke="#02221F" stroke-width="2"/>
<path d="M904.608 57.73L907.616 57.5931L905.123 55.9032C899.857 52.3339 895.057 49.5674 888.402 50.3602L886.083 50.6365L887.884 52.1242C892.587 56.0093 898.54 58.0059 904.608 57.73Z" fill="#5DC68D" stroke="#02221F" stroke-width="2"/>
<path d="M898.875 47.7574L896.135 48.5196L898.749 49.6399C902.784 51.3699 907.248 51.8043 911.536 50.8839L911.326 49.9061L911.774 49.0122C907.773 47.0061 903.181 46.5591 898.875 47.7574Z" fill="#5DC68D" stroke="#02221F" stroke-width="2"/>
<path d="M841.987 33.2197L840.616 34.7705L842.683 34.8806C845.554 35.0338 848.427 34.6055 851.133 33.6211C853.839 32.6367 856.322 31.1161 858.439 29.149L857.759 28.4165L857.911 27.4281C854.989 26.9785 852.003 27.273 849.222 28.2847C846.442 29.2963 843.955 30.9928 841.987 33.2197Z" fill="#5DC68D" stroke="#02221F" stroke-width="2"/>
</g>
<defs>
<clipPath id="clip0_204_1368">
<rect width="952" height="69" fill="white"/>
</clipPath>
</defs>
</svg>
