<svg width="1973" height="142" viewBox="0 0 1973 142" fill="none" xmlns="http://www.w3.org/2000/svg">
<g clip-path="url(#clip0_206_466)">
<path d="M212.63 84.4923C212.307 82.8957 211.521 81.4294 210.369 80.2807C208.839 78.7557 206.771 77.8975 204.613 77.8975C202.454 77.8975 200.386 78.7557 198.856 80.2807C197.704 81.4294 196.918 82.8957 196.596 84.4923C196.274 86.0888 196.429 87.746 197.043 89.2541C197.657 90.7623 198.704 92.0551 200.051 92.9663C201.399 93.8775 202.987 94.3652 204.613 94.3652C206.239 94.3652 207.826 93.8775 209.174 92.9663C210.522 92.0551 211.568 90.7623 212.182 89.2541C212.796 87.7461 212.952 86.0888 212.63 84.4923Z" fill="#FC525A" stroke="#02221F" stroke-width="4"/>
<path d="M223.638 98.0935C223.357 96.5137 222.623 95.0495 221.525 93.8822C220.766 93.0662 219.848 92.4145 218.828 91.9683C217.805 91.5211 216.701 91.29 215.586 91.29C214.47 91.29 213.366 91.5211 212.343 91.9683C211.323 92.4145 210.405 93.0662 209.646 93.8822C208.548 95.0495 207.814 96.5138 207.533 98.0935C207.252 99.6756 207.436 101.307 208.065 102.785C208.694 104.264 209.74 105.526 211.077 106.415C212.414 107.304 213.981 107.778 215.586 107.778C217.19 107.778 218.757 107.304 220.094 106.415C221.431 105.526 222.477 104.264 223.106 102.785C223.735 101.307 223.919 99.6757 223.638 98.0935Z" fill="#FC525A" stroke="#02221F" stroke-width="4"/>
<path d="M213.592 83.8055L213.592 83.8055L213.594 83.8195C213.789 85.969 214.811 87.9602 216.446 89.3648C218.083 90.7699 220.203 91.4755 222.353 91.3257L222.214 89.3305L222.367 91.3246C223.987 91.2001 225.532 90.5931 226.806 89.5831C228.08 88.5732 229.025 87.2065 229.525 85.6578C230.024 84.1092 230.056 82.4464 229.617 80.8795C229.178 79.3125 228.287 77.9098 227.053 76.8507C225.82 75.7915 224.3 75.124 222.686 74.9357C221.073 74.7473 219.441 75.0469 217.998 75.795C216.555 76.5431 215.368 77.705 214.585 79.131C213.802 80.5568 213.457 82.1836 213.592 83.8055Z" fill="#FC525A" stroke="#02221F" stroke-width="4"/>
<path d="M160.165 100.422L160.466 103.355L163.08 101.991C173.882 96.3525 180.692 93.5655 184.758 92.1912C186.789 91.5046 188.121 91.1753 188.914 91.0181C189.31 90.9397 189.568 90.9048 189.708 90.8896C189.767 90.8832 189.805 90.8803 189.823 90.8792H193.769L191.393 87.6853C186.286 80.8215 183.305 72.5853 182.828 64.0133L182.647 60.7673L179.831 62.3922C175.825 64.7041 171.28 65.8908 166.67 65.8319C165.07 65.4718 163.29 63.9194 161.755 61.4442C160.22 58.9688 159.234 56.0471 159.042 53.8746L158.693 49.9377L155.727 52.5502C151.159 56.5745 146.236 57.0851 141.936 56.2077C137.549 55.3124 133.889 52.9728 132.232 51.4806L129.19 54.0141C131.979 58.5503 134.337 62.6888 135.323 66.9011C136.28 70.9898 135.953 75.2039 133.156 79.9602L131.048 83.5445L135.164 82.9536C140.961 82.1215 146.807 82.3964 151.35 84.8364C155.749 87.1988 159.279 91.7832 160.165 100.422Z" fill="#5DC68D" stroke="#02221F" stroke-width="4"/>
<path d="M139.359 60.2393C153.497 70.1523 168.314 79.0434 183.698 86.846C167.278 81.1113 152.19 72.0578 139.359 60.2393Z" fill="#02221F"/>
<path d="M177.435 55.4046L175.322 57.4206L177.966 58.6619C188.971 63.8298 195.363 67.5337 198.977 69.9162C200.783 71.1064 201.884 71.96 202.515 72.4936C202.83 72.76 203.025 72.9447 203.131 73.0498C203.181 73.0997 203.211 73.1313 203.223 73.1447L205.646 76.0773L206.674 72.3851C208.971 64.1324 213.666 56.7662 220.153 51.2362L222.655 49.1029L219.61 47.8621C215.348 46.1257 211.616 43.2854 208.789 39.6274C208.113 38.1217 208.272 35.7835 209.281 33.0709C210.293 30.3499 211.981 27.7571 213.548 26.1959L216.177 23.578L212.545 22.8209C206.544 21.5701 203.113 17.935 201.168 13.9712C199.186 9.93034 198.791 5.60536 198.949 3.37273L195.07 2.56006C193.323 7.46262 191.523 11.8799 188.811 15.2607C186.172 18.5496 182.635 20.8976 177.224 21.5747L173.089 22.0921L176.079 24.9944C180.076 28.8727 183.404 33.657 184.267 38.7919C185.103 43.7715 183.682 49.443 177.435 55.4046Z" fill="#5DC68D" stroke="#02221F" stroke-width="4"/>
<path d="M196.103 14.1631C197.021 31.5006 199.131 48.753 202.418 65.7956C196.873 49.1927 194.724 31.6276 196.103 14.1631V14.1631Z" fill="#02221F"/>
<path d="M11.0057 118.317L10.1864 121.142L13.1145 120.865C21.6396 120.06 26.7896 122.714 29.9754 126.649C33.2667 130.714 34.7018 136.442 35.0706 142.132L35.338 146.257L38.4066 143.487C42.4788 139.811 46.5528 138.679 50.7306 138.846C55.0305 139.017 59.5047 140.563 64.3247 142.463L66.29 139.027C64.5317 137.652 61.5886 134.467 59.8909 130.285C58.2235 126.177 57.7752 121.184 60.7556 115.878L62.5763 112.637L58.8681 112.904C56.7026 113.06 53.6647 112.584 50.9579 111.523C48.2524 110.463 46.4036 109.031 45.7438 107.603C44.7968 103.09 45.0685 98.403 46.5319 94.0315L47.5629 90.9517L44.3487 91.4173C35.9395 92.6353 27.3608 91.2836 19.7191 87.5354L16.258 85.8378L16.8587 89.6169C16.8606 89.6351 16.8646 89.6785 16.8689 89.7499C16.8777 89.8994 16.8871 90.1695 16.8786 90.5839C16.8617 91.4142 16.7733 92.8118 16.4714 94.9654C15.8671 99.276 14.4143 106.565 11.0057 118.317Z" fill="#5DC68D" stroke="#02221F" stroke-width="4"/>
<path d="M56.1903 134.052C43.869 121.926 32.4054 108.945 21.8838 95.2031C30.5862 110.367 42.2588 123.585 56.1903 134.052V134.052Z" fill="#02221F"/>
<path d="M41.8587 94.255C33.6614 94.2581 25.5097 93.0247 17.674 90.596C17.1121 90.4189 16.642 90.0256 16.3654 89.5015C16.0888 88.9773 16.0279 88.3644 16.196 87.7953C16.2773 87.5061 16.4161 87.2366 16.6041 87.0033C16.792 86.77 17.0251 86.5777 17.2891 86.4382C17.5531 86.2987 17.8425 86.2149 18.1397 86.192C18.4369 86.169 18.7356 86.2073 19.0176 86.3046C37.9523 92.0995 58.3566 90.4866 76.1652 81.7873C93.9053 73.0009 107.707 57.7893 114.816 39.1894C114.92 38.9094 115.078 38.653 115.282 38.4352C115.485 38.2174 115.729 38.0425 116 37.9206C116.271 37.7987 116.563 37.7323 116.859 37.7252C117.156 37.7182 117.451 37.7706 117.727 37.8794C118.003 37.9797 118.256 38.1348 118.472 38.3356C118.687 38.5363 118.861 38.7787 118.982 39.0482C119.103 39.3177 119.169 39.609 119.177 39.9048C119.184 40.2006 119.133 40.495 119.026 40.7704C111.512 60.4925 96.8917 76.6259 78.091 85.9432C66.7963 91.4538 54.4053 94.2964 41.8587 94.255V94.255Z" fill="#02221F"/>
<path d="M25.2876 91.2731C22.8273 91.2833 20.3705 91.0868 17.9426 90.6859C17.3616 90.5761 16.8472 90.239 16.5116 89.7482C16.176 89.2574 16.0464 88.6526 16.1511 88.0659C16.1941 87.7689 16.2964 87.4838 16.4519 87.228C16.6075 86.9722 16.813 86.7509 17.056 86.5777C17.2989 86.4044 17.5743 86.2828 17.8653 86.2203C18.1563 86.1577 18.4569 86.1555 18.7488 86.2138C32.1847 88.6531 47.8152 82.9162 57.1756 77.1792C67.9856 70.5799 76.1141 60.3155 80.1063 48.2235C80.2907 47.6546 80.6915 47.1829 81.2205 46.9119C81.7495 46.6408 82.3636 46.5927 82.9278 46.7779C83.4848 46.9738 83.9451 47.3795 84.2122 47.91C84.4794 48.4404 84.5327 49.0546 84.361 49.6238C80.0589 62.8189 71.2288 74.0319 59.4597 81.2448C49.0933 87.4491 37.3359 90.8995 25.2876 91.2731V91.2731Z" fill="#02221F"/>
<path d="M60.8032 98.9518C45.9571 99.0318 31.2408 96.1614 17.4947 90.5045C17.2212 90.3956 16.9721 90.2324 16.7624 90.0246C16.5526 89.8168 16.3864 89.5685 16.2736 89.2946C16.1608 89.0208 16.1037 88.7268 16.1058 88.4302C16.1078 88.1337 16.1689 87.8405 16.2854 87.5683C16.5133 87.019 16.947 86.5827 17.4922 86.3543C18.0374 86.1259 18.6499 86.1238 19.1966 86.3486C46.9715 97.4597 77.9599 97.1353 105.5 85.4451C106.048 85.2322 106.656 85.2402 107.198 85.4673C107.74 85.6944 108.174 86.1232 108.411 86.6648C108.528 86.9371 108.589 87.2302 108.591 87.5268C108.593 87.8234 108.536 88.1173 108.423 88.3912C108.31 88.6651 108.144 88.9133 107.934 89.1211C107.725 89.329 107.476 89.4922 107.202 89.601C92.5055 95.7969 76.7319 98.9758 60.8032 98.9518V98.9518Z" fill="#02221F"/>
<path d="M108.294 95.7068C109.882 96.0279 111.528 95.8672 113.025 95.2458C114.022 94.8381 114.929 94.2356 115.692 93.4739C116.457 92.7105 117.063 91.8024 117.476 90.8028C117.889 89.8031 118.101 88.7314 118.1 87.6495C118.098 86.57 117.885 85.5011 117.472 84.5044C116.858 83.0023 115.817 81.7144 114.475 80.8049C113.131 79.894 111.548 79.4045 109.926 79.4004C108.303 79.3963 106.718 79.8778 105.369 80.782C104.021 81.686 102.972 82.9712 102.352 84.473C101.731 85.9746 101.567 87.6272 101.878 89.2222C102.19 90.8173 102.964 92.2856 104.105 93.4406C105.246 94.5957 106.704 95.3853 108.294 95.7068Z" fill="#FC525A" stroke="#02221F" stroke-width="4"/>
<path d="M115.337 48.0752C116.931 48.387 118.58 48.2144 120.076 47.5801C122.071 46.7336 123.648 45.1274 124.467 43.1178C125.286 41.1087 125.283 38.8553 124.459 36.8483C123.841 35.3438 122.794 34.0554 121.446 33.1483C120.098 32.241 118.512 31.7567 116.888 31.7588C115.264 31.7609 113.679 32.2492 112.334 33.1598C110.988 34.0704 109.944 35.3614 109.33 36.8674C108.716 38.3733 108.56 40.028 108.88 41.6227C109.2 43.2175 109.982 44.6829 111.131 45.8323C112.28 46.9818 113.744 47.7634 115.337 48.0752Z" fill="#FC525A" stroke="#02221F" stroke-width="4"/>
<path d="M82.4311 56.9199C84.0061 57.2474 85.6417 57.0977 87.1315 56.4903C88.1316 56.0826 89.0403 55.4791 89.8053 54.7156C90.5703 53.9522 91.1765 53.0441 91.5894 52.0445C92.0024 51.0448 92.2141 49.9731 92.2129 48.8912C92.2117 47.8093 91.9974 46.738 91.5822 45.7393C90.9638 44.2519 89.9219 42.9794 88.585 42.0838C87.2479 41.188 85.6762 40.7101 84.0678 40.7119C82.4593 40.7138 80.8888 41.1954 79.5538 42.0942C78.2189 42.9929 77.18 44.2678 76.5649 45.7567C75.9499 47.2454 75.7854 48.8833 76.0913 50.4651C76.3972 52.047 77.1605 53.5046 78.2877 54.6538C79.4151 55.8031 80.8563 56.5925 82.4311 56.9199Z" fill="#FC525A" stroke="#02221F" stroke-width="4"/>
<path d="M135.817 118.748L141.86 118.489L136.853 115.095C126.014 107.745 116.028 102.068 102.353 103.697L97.6855 104.252L101.322 107.23C111.038 115.186 123.308 119.284 135.817 118.748Z" fill="#5DC68D" stroke="#02221F" stroke-width="4"/>
<path d="M150.125 104.657L155.685 103.459L150.6 100.913C142.322 96.7685 132.817 95.8503 123.907 98.3358L118.43 99.8639L123.658 102.101C132.01 105.675 141.252 106.568 150.125 104.657Z" fill="#5DC68D" stroke="#02221F" stroke-width="4"/>
<path d="M40.3956 59.9457L43.4385 57.1292L39.3401 56.501C33.3162 55.5777 27.1593 56.1825 21.4259 58.2603C15.6926 60.338 10.5646 63.8229 6.50411 68.3984L3.74898 71.503L7.89393 71.7231C13.8168 72.0377 19.7422 71.1578 25.3231 69.1352C30.9041 67.1126 36.028 63.9882 40.3956 59.9457Z" fill="#5DC68D" stroke="#02221F" stroke-width="4"/>
<path d="M429.796 83.0304C429.402 82.0202 428.814 81.097 428.065 80.3141C426.552 78.7327 424.474 77.8189 422.288 77.7796C420.101 77.7404 417.992 78.5789 416.424 80.1054C414.856 81.6314 413.957 83.7193 413.918 85.9088C413.88 88.0983 414.705 90.2168 416.217 91.7977C416.966 92.5807 417.862 93.2081 418.853 93.6433C419.845 94.0785 420.912 94.3128 421.994 94.3322C423.076 94.3516 424.151 94.1559 425.158 93.7565C426.164 93.3571 427.081 92.7621 427.858 92.0064C428.634 91.2507 429.254 90.3491 429.684 89.3536C430.114 88.3581 430.344 87.2875 430.364 86.203C430.383 85.1185 430.19 84.0405 429.796 83.0304Z" fill="#FC525A" stroke="#02221F" stroke-width="4"/>
<path d="M441.256 98.0932C440.975 96.516 440.243 95.054 439.147 93.8876C438.393 93.0649 437.477 92.407 436.457 91.956C435.431 91.5028 434.324 91.2686 433.203 91.2686C432.083 91.2686 430.975 91.5028 429.949 91.956C428.929 92.407 428.013 93.065 427.259 93.8876C426.163 95.054 425.431 96.516 425.15 98.0932C424.869 99.6754 425.054 101.306 425.683 102.785C426.312 104.263 427.358 105.526 428.694 106.415C430.031 107.303 431.599 107.778 433.203 107.778C434.807 107.778 436.375 107.303 437.712 106.415C439.048 105.526 440.094 104.263 440.723 102.785C441.352 101.306 441.537 99.6754 441.256 98.0932Z" fill="#FC525A" stroke="#02221F" stroke-width="4"/>
<path d="M440.03 91.325L440.037 91.3244L440.044 91.3238C441.66 91.1877 443.198 90.5713 444.464 89.5551C445.729 88.5389 446.665 87.1691 447.156 85.6204C447.646 84.0719 447.671 82.4118 447.226 80.8495C446.781 79.287 445.885 77.8901 444.651 76.8369C443.416 75.7835 441.897 75.1216 440.285 74.9374C438.674 74.7531 437.045 75.0552 435.606 75.8041C434.166 76.5529 432.982 77.7139 432.201 79.1378C431.42 80.5615 431.075 82.1855 431.21 83.8046L431.21 83.8117L431.211 83.8188C431.406 85.9794 432.436 87.9799 434.085 89.3862C435.734 90.793 437.87 91.4911 440.03 91.325Z" fill="#FC525A" stroke="#02221F" stroke-width="4"/>
<path d="M377.736 100.402L378.012 103.367L380.652 101.991C391.475 96.3534 398.307 93.5663 402.39 92.1919C404.429 91.5054 405.769 91.1758 406.567 91.0185C406.965 90.94 407.225 90.9051 407.367 90.8898C407.428 90.8832 407.466 90.8803 407.485 90.8792H411.456L409.05 87.6775C403.909 80.8391 400.926 72.5972 400.491 64.023L400.326 60.7679L397.498 62.3896C393.473 64.6985 388.914 65.8854 384.288 65.8317C382.709 65.4712 380.931 63.9197 379.395 61.4442C377.859 58.9671 376.878 56.0516 376.706 53.8921L376.389 49.9197L373.393 52.5473C368.8 56.5754 363.874 57.0848 359.576 56.2077C355.191 55.3128 351.528 52.9734 349.841 51.4728L346.808 54.0141C349.598 58.5533 351.967 62.691 352.958 66.9033C353.92 70.9897 353.593 75.2005 350.777 79.9547L348.643 83.5567L352.786 82.953C358.486 82.1224 364.369 82.3948 368.95 84.839C373.383 87.204 376.937 91.7852 377.736 100.402Z" fill="#5DC68D" stroke="#02221F" stroke-width="4"/>
<path d="M356.977 60.2393C371.127 70.1332 385.943 79.0235 401.315 86.846C384.9 81.101 369.815 72.0486 356.977 60.2393V60.2393Z" fill="#02221F"/>
<path d="M395.097 55.4046L392.985 57.4206L395.628 58.6619C406.633 63.8298 413.026 67.5337 416.64 69.9162C418.445 71.1064 419.547 71.96 420.177 72.4936C420.492 72.76 420.688 72.9447 420.794 73.0498C420.844 73.0997 420.874 73.1313 420.886 73.1447L423.321 76.0916L424.338 72.3775C426.6 64.1237 431.283 56.7552 437.769 51.2375L440.273 49.1073L437.23 47.863C432.978 46.1248 429.258 43.2819 426.448 39.6226C425.753 38.1195 425.9 35.7831 426.905 33.0678C427.912 30.3492 429.598 27.7571 431.166 26.1959L433.794 23.578L430.163 22.8209C424.162 21.5701 420.731 17.935 418.786 13.9712C416.803 9.93034 416.409 5.60536 416.567 3.37273L412.692 2.54891C410.943 7.3671 409.155 11.7394 406.448 15.0993C403.815 18.3668 400.277 20.7164 394.842 21.3939L390.749 21.9042L393.685 24.802C397.712 28.7768 401.055 33.6089 401.924 38.77C402.766 43.7728 401.344 49.4439 395.097 55.4046Z" fill="#5DC68D" stroke="#02221F" stroke-width="4"/>
<path d="M413.811 14.1631C414.698 31.4985 416.778 48.7508 420.036 65.7956C414.522 49.1862 412.404 31.6214 413.811 14.1631V14.1631Z" fill="#02221F"/>
<path d="M228.623 118.317L227.804 121.141L230.732 120.865C239.282 120.06 244.428 122.716 247.589 126.644C250.856 130.703 252.249 136.425 252.553 142.109L252.776 146.298L255.89 143.487C259.961 139.812 264.046 138.679 268.231 138.846C272.536 139.017 277.011 140.564 281.805 142.462L283.773 139.027C282.017 137.654 279.085 134.47 277.392 130.287C275.729 126.177 275.28 121.181 278.242 115.873L280.047 112.638L276.351 112.904C274.186 113.06 271.148 112.584 268.441 111.523C265.742 110.466 263.895 109.037 263.232 107.612C262.331 103.042 262.632 98.3122 264.106 93.8939L265.135 90.8063L261.916 91.2826C253.517 92.5252 244.941 91.219 237.279 87.5291L233.805 85.8561L234.434 89.6307C234.436 89.6489 234.44 89.6917 234.444 89.7616C234.454 89.9102 234.465 90.1794 234.458 90.593C234.445 91.4217 234.362 92.8179 234.066 94.9703C233.473 99.2787 232.032 106.566 228.623 118.317Z" fill="#5DC68D" stroke="#02221F" stroke-width="4"/>
<path d="M273.853 134.052C261.505 121.939 250.026 108.957 239.501 95.2031C248.22 110.369 259.908 123.587 273.853 134.052V134.052Z" fill="#02221F"/>
<path d="M259.521 94.2544C251.309 94.2613 243.142 93.028 235.291 90.5954C234.73 90.4183 234.259 90.0251 233.983 89.5009C233.706 88.9767 233.645 88.3638 233.813 87.7947C233.895 87.5055 234.034 87.236 234.222 87.0027C234.409 86.7694 234.643 86.5771 234.907 86.4376C235.171 86.2981 235.46 86.2143 235.757 86.1914C236.054 86.1684 236.353 86.2067 236.635 86.304C255.569 92.1034 275.975 90.4904 293.783 81.7867C311.523 72.9876 325.336 57.7823 332.478 39.1888C332.555 38.8805 332.696 38.5921 332.892 38.3425C333.087 38.0929 333.332 37.8877 333.612 37.7404C333.891 37.5931 334.198 37.5069 334.513 37.4876C334.828 37.4682 335.143 37.5161 335.438 37.6281C335.733 37.7402 336.001 37.9137 336.225 38.1376C336.449 38.3614 336.624 38.6304 336.738 38.927C336.851 39.2235 336.902 39.541 336.886 39.8586C336.869 40.1761 336.787 40.4867 336.643 40.7698C329.136 60.4817 314.534 76.6126 295.753 85.9426C284.459 91.4532 272.068 94.2958 259.521 94.2544V94.2544Z" fill="#02221F"/>
<path d="M242.905 91.2737C240.445 91.2818 237.988 91.0854 235.56 90.6865C234.979 90.5767 234.465 90.2396 234.129 89.7488C233.794 89.258 233.664 88.6533 233.769 88.0665C233.812 87.7695 233.914 87.4844 234.07 87.2286C234.225 86.9728 234.431 86.7515 234.674 86.5783C234.917 86.405 235.192 86.2835 235.483 86.2209C235.774 86.1583 236.075 86.1561 236.366 86.2144C249.802 88.6537 265.478 82.9168 274.793 77.1798C285.614 70.5926 293.746 60.3238 297.724 48.2241C297.908 47.625 298.321 47.1243 298.871 46.8321C299.421 46.5398 300.064 46.4799 300.657 46.6656C301.251 46.8513 301.748 47.2674 302.038 47.8223C302.327 48.3771 302.387 49.0254 302.203 49.6244C297.915 62.8143 289.101 74.0274 277.346 81.2454C266.9 87.492 255.045 90.9438 242.905 91.2737V91.2737Z" fill="#02221F"/>
<path d="M278.421 98.9518C263.575 99.0318 248.858 96.1614 235.112 90.5045C234.839 90.3956 234.59 90.2324 234.38 90.0246C234.17 89.8168 234.004 89.5685 233.891 89.2946C233.778 89.0208 233.721 88.7268 233.723 88.4302C233.725 88.1337 233.787 87.8405 233.903 87.5683C234.14 87.0266 234.575 86.5978 235.117 86.3707C235.659 86.1436 236.267 86.1357 236.814 86.3486C264.589 97.4597 295.578 97.1353 323.118 85.4451C323.666 85.2322 324.273 85.2402 324.815 85.4673C325.357 85.6944 325.792 86.1232 326.029 86.6648C326.147 86.9343 326.21 87.2248 326.215 87.5193C326.22 87.8137 326.167 88.1063 326.058 88.3797C325.95 88.6532 325.789 88.902 325.584 89.1118C325.379 89.3215 325.134 89.4878 324.865 89.601C310.152 95.797 294.364 98.9758 278.421 98.9518V98.9518Z" fill="#02221F"/>
<path d="M325.968 95.7324C327.562 96.0442 329.211 95.8716 330.706 95.2373C332.702 94.3909 334.278 92.7847 335.098 90.7751C335.916 88.766 335.914 86.5126 335.09 84.5055C334.472 83.001 333.424 81.7126 332.077 80.8055C330.729 79.8983 329.143 79.414 327.519 79.416C325.895 79.4181 324.31 79.9064 322.964 80.8171C321.619 81.7276 320.575 83.0186 319.961 84.5246C319.347 86.0305 319.191 87.6853 319.511 89.28C319.831 90.8747 320.613 92.3401 321.762 93.4895C322.911 94.639 324.375 95.4206 325.968 95.7324Z" fill="#FC525A" stroke="#02221F" stroke-width="4"/>
<path d="M332.943 48.0486C334.533 48.3702 336.182 48.2085 337.681 47.5848C339.687 46.7497 341.277 45.1481 342.108 43.1373C342.938 41.1269 342.944 38.8674 342.123 36.8529C341.51 35.3479 340.467 34.0575 339.124 33.1467C337.78 32.2358 336.197 31.7463 334.575 31.7422C332.952 31.7381 331.367 32.2196 330.018 33.1237C328.67 34.0278 327.621 35.313 327 36.8148C326.38 38.3165 326.216 39.969 326.527 41.564C326.839 43.159 327.613 44.6274 328.754 45.7824C329.895 46.9375 331.353 47.7271 332.943 48.0486Z" fill="#FC525A" stroke="#02221F" stroke-width="4"/>
<path d="M294.097 51.9304L294.111 51.9692L294.126 52.0073C294.95 54.021 296.535 55.6278 298.538 56.4697C300.542 57.3118 302.796 57.3175 304.804 56.4855L304.039 54.6378L304.821 56.4787C306.813 55.6325 308.39 54.0327 309.218 52.0297C310.045 50.0272 310.058 47.7779 309.255 45.7655L309.238 45.7206L309.217 45.6766C308.337 43.7477 306.749 42.2319 304.781 41.4516C302.812 40.6711 300.619 40.689 298.663 41.5014C296.707 42.3136 295.144 43.8549 294.295 45.7977C293.446 47.7401 293.375 49.937 294.097 51.9304Z" fill="#FC525A" stroke="#02221F" stroke-width="4"/>
<path d="M353.481 118.748L359.535 118.483L354.513 115.092C343.633 107.746 333.736 102.069 319.972 103.696L315.299 104.249L318.94 107.23C328.668 115.197 340.956 119.296 353.481 118.748Z" fill="#5DC68D" stroke="#02221F" stroke-width="4"/>
<path d="M341.618 98.3355L336.116 99.8603L341.367 102.102C349.691 105.657 358.897 106.549 367.74 104.658L367.322 102.702L368.216 100.913C359.965 96.7922 350.498 95.8744 341.618 98.3355Z" fill="#5DC68D" stroke="#02221F" stroke-width="4"/>
<path d="M258.013 59.9455L261.059 57.1265L256.956 56.5006C250.933 55.5817 244.778 56.1885 239.046 58.2659C233.314 60.3432 228.186 63.8254 224.123 68.3972L221.363 71.5026L225.512 71.7229C231.435 72.0375 237.36 71.1575 242.941 69.135C248.522 67.1124 253.646 63.988 258.013 59.9455Z" fill="#5DC68D" stroke="#02221F" stroke-width="4"/>
<path d="M647.91 84.4923C647.588 82.8957 646.802 81.4294 645.649 80.2807C644.119 78.7557 642.051 77.8975 639.893 77.8975C637.735 77.8975 635.667 78.7557 634.137 80.2807C632.984 81.4295 632.198 82.8958 631.876 84.4923C631.554 86.0888 631.709 87.7461 632.324 89.2541C632.938 90.7623 633.984 92.0551 635.331 92.9663C636.679 93.8775 638.267 94.3652 639.893 94.3652C641.519 94.3652 643.107 93.8775 644.454 92.9663C645.802 92.0552 646.848 90.7624 647.462 89.2541C648.076 87.7461 648.232 86.0888 647.91 84.4923Z" fill="#FC525A" stroke="#02221F" stroke-width="4"/>
<path d="M656.694 105.446L656.701 105.44L656.707 105.433C657.473 104.674 658.08 103.77 658.494 102.774C658.908 101.778 659.121 100.71 659.121 99.6309C659.121 98.5521 658.908 97.4835 658.494 96.4875C658.086 95.5049 657.489 94.6119 656.738 93.8596C656.017 93.0875 655.152 92.4639 654.192 92.0246C653.218 91.5793 652.166 91.3324 651.096 91.2989C650.026 91.2653 648.961 91.4458 647.961 91.8294C646.962 92.213 646.049 92.792 645.274 93.532L645.267 93.5384L645.261 93.5449C643.693 95.0708 642.794 97.1588 642.755 99.3483C642.716 101.538 643.541 103.656 645.054 105.237C646.567 106.819 648.644 107.732 650.831 107.772C653.017 107.811 655.126 106.972 656.694 105.446Z" fill="#FC525A" stroke="#02221F" stroke-width="4"/>
<path d="M648.783 83.8055L648.783 83.8055L648.784 83.8195C648.979 85.969 650.001 87.9602 651.637 89.3648C653.273 90.7699 655.393 91.4755 657.543 91.3257L657.404 89.3305L657.558 91.3246C659.178 91.2001 660.722 90.5931 661.996 89.5831C663.27 88.5732 664.216 87.2064 664.715 85.6578C665.215 84.1092 665.247 82.4464 664.808 80.8795C664.369 79.3125 663.477 77.9098 662.244 76.8507C661.011 75.7915 659.491 75.1241 657.877 74.9357C656.263 74.7473 654.631 75.0469 653.188 75.795C651.746 76.5431 650.559 77.705 649.775 79.131C648.992 80.5568 648.647 82.1837 648.783 83.8055Z" fill="#FC525A" stroke="#02221F" stroke-width="4"/>
<path d="M595.445 100.412L595.733 103.362L598.361 101.991C609.162 96.3525 615.972 93.5655 620.038 92.1912C622.069 91.5046 623.402 91.1753 624.194 91.0181C624.59 90.9397 624.848 90.9048 624.988 90.8896C625.047 90.8832 625.085 90.8803 625.103 90.8792H629.029L626.678 87.6918C621.614 80.8281 618.707 72.5882 618.333 64.0372L618.19 60.7534L615.339 62.39C611.327 64.6934 606.783 65.88 602.172 65.8314C600.572 65.4706 598.794 63.9184 597.259 61.4442C595.724 58.9688 594.738 56.0471 594.546 53.8746L594.198 49.9482L591.235 52.5473C586.642 56.5756 581.716 57.0847 577.424 56.2078C573.044 55.3129 569.395 52.9742 567.737 51.4806L564.694 54.0141C567.483 58.5503 569.841 62.6888 570.827 66.9011C571.784 70.9898 571.457 75.2039 568.66 79.9602L566.538 83.5697L570.679 82.952C576.234 82.1236 582.05 82.3939 586.61 84.8373C591.027 87.2042 594.603 91.7922 595.445 100.412Z" fill="#5DC68D" stroke="#02221F" stroke-width="4"/>
<path d="M574.594 60.2393C588.745 70.1332 603.56 79.0235 618.933 86.846C602.522 81.0907 587.439 72.0395 574.594 60.2393V60.2393Z" fill="#02221F"/>
<path d="M612.715 55.4046L610.603 57.4206L613.246 58.6619C624.251 63.8298 630.644 67.5337 634.258 69.9162C636.063 71.1064 637.164 71.96 637.795 72.4936C638.11 72.76 638.306 72.9447 638.411 73.0498C638.462 73.0998 638.491 73.1314 638.504 73.1448L640.924 76.0739L641.954 72.387C644.256 64.1446 648.935 56.7812 655.394 51.2311L657.866 49.1066L654.852 47.865C650.605 46.1153 646.885 43.273 644.064 39.6206C643.374 38.122 643.528 35.7903 644.543 33.074C645.56 30.3547 647.258 27.7599 648.829 26.1959L651.457 23.578L647.825 22.8209C641.825 21.5701 638.393 17.935 636.449 13.9712C634.466 9.93034 634.071 5.60536 634.23 3.37273L630.351 2.56006C628.604 7.46262 626.803 11.8799 624.091 15.2607C621.452 18.5496 617.915 20.8976 612.504 21.5747L608.369 22.0921L611.36 24.9944C615.356 28.8727 618.684 33.657 619.547 38.7919C620.384 43.7715 618.962 49.443 612.715 55.4046Z" fill="#5DC68D" stroke="#02221F" stroke-width="4"/>
<path d="M631.473 14.1631C632.368 31.5026 634.478 48.7565 637.788 65.7956C632.22 49.1978 630.071 31.6281 631.473 14.1631V14.1631Z" fill="#02221F"/>
<path d="M446.285 118.32L445.472 121.141L448.395 120.865C456.921 120.06 462.068 122.715 465.236 126.645C468.508 130.705 469.912 136.428 470.215 142.109L470.438 146.285L473.549 143.49C477.644 139.812 481.731 138.679 485.916 138.846C490.221 139.017 494.695 140.564 499.515 142.463L501.472 139.02C499.699 137.649 496.758 134.468 495.065 130.287C493.404 126.181 492.964 121.187 495.946 115.878L497.767 112.637L494.059 112.904C491.893 113.06 488.843 112.584 486.124 111.523C483.411 110.463 481.557 109.034 480.894 107.612C479.993 103.042 480.294 98.3121 481.768 93.8939L482.798 90.8063L479.578 91.2826C471.179 92.5252 462.603 91.219 454.941 87.5291L451.499 85.8711L452.094 89.6171C452.096 89.6353 452.1 89.679 452.104 89.7507C452.113 89.9005 452.123 90.1708 452.115 90.5855C452.098 91.4161 452.011 92.8141 451.712 94.9678C451.113 99.2789 449.671 106.568 446.285 118.32Z" fill="#5DC68D" stroke="#02221F" stroke-width="4"/>
<path d="M491.694 134.052C479.373 121.926 467.909 108.945 457.388 95.2031C466.076 110.378 477.751 123.598 491.694 134.052V134.052Z" fill="#02221F"/>
<path d="M477.139 94.255C468.941 94.2615 460.789 93.0281 452.954 90.596C452.672 90.5135 452.41 90.375 452.183 90.1885C451.955 90.002 451.767 89.7715 451.629 89.5104C451.491 89.2493 451.407 88.963 451.38 88.6684C451.354 88.3739 451.387 88.077 451.476 87.7953C451.552 87.5078 451.686 87.2391 451.87 87.0061C452.053 86.773 452.283 86.5806 452.543 86.4407C452.804 86.3009 453.09 86.2166 453.384 86.1932C453.678 86.1698 453.974 86.2077 454.253 86.3046C473.187 92.104 493.593 90.491 511.4 81.7873C529.085 72.9666 542.833 57.7609 549.917 39.1894C550.021 38.9094 550.179 38.653 550.383 38.4352C550.586 38.2174 550.83 38.0425 551.101 37.9206C551.372 37.7987 551.664 37.7323 551.96 37.7252C552.257 37.7182 552.552 37.7706 552.828 37.8794C553.371 38.1015 553.808 38.5253 554.05 39.0633C554.291 39.6014 554.319 40.2125 554.127 40.7704C546.601 60.4854 531.985 76.615 513.192 85.9432C501.952 91.4271 489.625 94.269 477.139 94.255V94.255Z" fill="#02221F"/>
<path d="M460.568 91.2737C458.107 91.2857 455.65 91.0892 453.223 90.6864C452.639 90.5761 452.121 90.2409 451.778 89.7518C451.435 89.2627 451.295 88.6582 451.386 88.0664C451.429 87.7694 451.532 87.4843 451.687 87.2285C451.843 86.9727 452.048 86.7514 452.291 86.5782C452.534 86.405 452.809 86.2834 453.1 86.2208C453.391 86.1583 453.692 86.156 453.984 86.2143C467.42 88.6536 483.095 82.9167 492.411 77.1797C503.242 70.6047 511.377 60.3315 515.341 48.224C515.536 47.6622 515.938 47.1979 516.464 46.9285C516.99 46.659 517.599 46.6053 518.163 46.7785C518.446 46.8653 518.708 47.0088 518.934 47.2004C519.161 47.392 519.347 47.6278 519.48 47.8936C519.614 48.1593 519.693 48.4496 519.713 48.747C519.733 49.0445 519.693 49.3429 519.596 49.6243C515.323 62.8219 506.505 74.0395 494.74 81.2453C484.373 87.4496 472.616 90.9 460.568 91.2737V91.2737Z" fill="#02221F"/>
<path d="M496.173 98.9523C481.328 99.0241 466.613 96.154 452.864 90.505C452.32 90.2752 451.887 89.8377 451.661 89.2878C451.434 88.738 451.432 88.1201 451.655 87.5688C451.901 87.0238 452.344 86.5941 452.893 86.3674C453.443 86.1407 454.057 86.1342 454.611 86.3491C482.37 97.4624 513.346 97.138 540.87 85.4457C541.424 85.2307 542.038 85.2373 542.588 85.464C543.137 85.6906 543.58 86.1204 543.826 86.6653C543.942 86.9376 544.003 87.2307 544.005 87.5273C544.008 87.8239 543.95 88.1178 543.838 88.3917C543.725 88.6656 543.559 88.9138 543.349 89.1217C543.139 89.3295 542.89 89.4927 542.617 89.6015C527.904 95.7975 512.116 98.9763 496.173 98.9523V98.9523Z" fill="#02221F"/>
<path d="M543.574 95.7068C545.165 96.0284 546.814 95.8667 548.312 95.243C550.318 94.4079 551.908 92.8063 552.739 90.7955C553.569 88.7851 553.575 86.5256 552.754 84.5111C552.141 83.0062 551.099 81.7157 549.755 80.8049C548.411 79.894 546.828 79.4045 545.206 79.4004C543.583 79.3963 541.998 79.8778 540.649 80.782C539.301 81.6859 538.252 82.9711 537.632 84.473C537.011 85.9747 536.847 87.6272 537.158 89.2222C537.47 90.8172 538.244 92.2856 539.385 93.4406C540.526 94.5957 541.984 95.3853 543.574 95.7068Z" fill="#FC525A" stroke="#02221F" stroke-width="4"/>
<path d="M550.426 48.0486C552.014 48.3697 553.661 48.209 555.157 47.5876C556.155 47.1799 557.061 46.5774 557.824 45.8157C558.589 45.0523 559.195 44.1442 559.608 43.1445C560.021 42.1449 560.233 41.0732 560.232 39.9913C560.231 38.9118 560.017 37.8428 559.604 36.846C558.991 35.3441 557.949 34.0561 556.607 33.1467C555.264 32.2358 553.68 31.7463 552.058 31.7422C550.436 31.7381 548.85 32.2196 547.502 33.1237C546.154 34.0277 545.104 35.3129 544.484 36.8148C543.864 38.3165 543.699 39.969 544.011 41.564C544.322 43.159 545.096 44.6274 546.237 45.7824C547.379 46.9375 548.836 47.7271 550.426 48.0486Z" fill="#FC525A" stroke="#02221F" stroke-width="4"/>
<path d="M526.868 45.7528L526.865 45.746L526.862 45.7393C526.244 44.2519 525.202 42.9793 523.865 42.0838C522.528 41.188 520.956 40.7101 519.348 40.7119C517.739 40.7138 516.169 41.1954 514.834 42.0942C513.499 42.9929 512.46 44.2678 511.845 45.7567C511.23 47.2454 511.065 48.8833 511.371 50.4651C511.677 52.047 512.441 53.5046 513.568 54.6538C514.695 55.8031 516.136 56.5925 517.711 56.9199C519.286 57.2474 520.922 57.0977 522.412 56.4903L521.657 54.6383L522.425 56.4847C524.431 55.6496 526.021 54.048 526.852 52.0372C527.683 50.0269 527.688 47.7673 526.868 45.7528Z" fill="#FC525A" stroke="#02221F" stroke-width="4"/>
<path d="M571.103 118.748L577.133 118.47L572.13 115.092C561.252 107.747 551.354 102.068 537.633 103.697L532.984 104.248L536.597 107.226C546.298 115.22 558.584 119.324 571.103 118.748Z" fill="#5DC68D" stroke="#02221F" stroke-width="4"/>
<path d="M585.402 104.658L591.017 103.461L585.873 100.911C577.604 96.8101 568.133 95.8936 559.24 98.3344L553.704 99.8538L558.986 102.103C567.325 105.655 576.544 106.547 585.402 104.658Z" fill="#5DC68D" stroke="#02221F" stroke-width="4"/>
<path d="M475.676 59.9457L478.719 57.1292L474.62 56.501C468.596 55.5777 462.439 56.1825 456.706 58.2603C450.973 60.3381 445.845 63.8229 441.784 68.3984L439.029 71.503L443.174 71.7231C449.097 72.0377 455.022 71.1578 460.603 69.1352C466.184 67.1126 471.308 63.9882 475.676 59.9457Z" fill="#5DC68D" stroke="#02221F" stroke-width="4"/>
<path d="M865.527 84.4923C865.205 82.8957 864.419 81.4294 863.267 80.2807C861.737 78.7557 859.669 77.8975 857.511 77.8975C855.352 77.8975 853.284 78.7558 851.754 80.2807C850.602 81.4294 849.816 82.8957 849.494 84.4923C849.172 86.0888 849.327 87.7461 849.941 89.2541C850.555 90.7623 851.601 92.0551 852.949 92.9663C854.297 93.8775 855.885 94.3652 857.511 94.3652C859.137 94.3652 860.724 93.8775 862.072 92.9663C863.42 92.0551 864.466 90.7623 865.08 89.2541C865.694 87.7461 865.85 86.0888 865.527 84.4923Z" fill="#FC525A" stroke="#02221F" stroke-width="4"/>
<path d="M876.618 98.0518C876.303 96.4599 875.527 94.9955 874.386 93.8442C873.631 93.0742 872.731 92.4618 871.739 92.0431C870.743 91.6235 869.675 91.4072 868.595 91.4072C867.515 91.4072 866.447 91.6235 865.452 92.0431C864.459 92.4618 863.559 93.0742 862.804 93.8442C861.663 94.9955 860.887 96.46 860.572 98.0518C860.257 99.646 860.417 101.299 861.034 102.802C861.65 104.306 862.696 105.593 864.042 106.501C865.388 107.408 866.973 107.894 868.595 107.894C870.217 107.894 871.802 107.408 873.148 106.501C874.494 105.593 875.54 104.306 876.157 102.802C876.773 101.299 876.934 99.646 876.618 98.0518Z" fill="#FC525A" stroke="#02221F" stroke-width="4"/>
<path d="M866.49 83.8055L866.49 83.8055L866.491 83.8195C866.687 85.969 867.708 87.9602 869.344 89.3648C870.981 90.7699 873.101 91.4755 875.251 91.3257L875.112 89.3305L875.265 91.3246C876.885 91.2001 878.43 90.5931 879.704 89.5831C880.978 88.5732 881.923 87.2064 882.423 85.6578C882.922 84.1092 882.954 82.4464 882.515 80.8795C882.076 79.3125 881.185 77.9098 879.951 76.8507C878.718 75.7915 877.198 75.1241 875.584 74.9357C873.971 74.7473 872.338 75.0469 870.896 75.795C869.453 76.5431 868.266 77.705 867.483 79.131C866.699 80.5568 866.355 82.1837 866.49 83.8055Z" fill="#FC525A" stroke="#02221F" stroke-width="4"/>
<path d="M813.062 100.407L813.344 103.366L815.978 101.991C826.779 96.3525 833.59 93.5655 837.655 92.1912C839.687 91.5046 841.019 91.1753 841.812 91.0181C842.208 90.9397 842.465 90.9048 842.605 90.8896C842.665 90.8832 842.703 90.8803 842.721 90.8792H846.625L844.301 87.6991C839.271 80.8162 836.38 72.58 835.996 64.0346L835.848 60.7573L833.002 62.3896C828.977 64.6989 824.417 65.8858 819.791 65.8317C818.191 65.4712 816.412 63.9189 814.877 61.4442C813.342 58.9688 812.356 56.0471 812.163 53.8746L811.815 49.9377L808.849 52.5502C804.281 56.5745 799.357 57.0851 795.058 56.2077C790.671 55.3124 787.011 52.9728 785.354 51.4806L782.312 54.0141C785.1 58.5503 787.459 62.6888 788.445 66.9011C789.402 70.9898 789.075 75.2039 786.278 79.9602L784.157 83.5671L788.296 82.9522C793.875 82.1233 799.702 82.3942 804.261 84.8373C808.676 87.203 812.241 91.7884 813.062 100.407Z" fill="#5DC68D" stroke="#02221F" stroke-width="4"/>
<path d="M792.257 60.2393C806.401 70.1425 821.217 79.0332 836.595 86.846C820.175 81.1113 805.088 72.0578 792.257 60.2393Z" fill="#02221F"/>
<path d="M830.375 55.407L828.27 57.4229L830.908 58.6619C841.913 63.8297 848.293 67.533 851.895 69.9146C853.694 71.1044 854.789 71.9572 855.415 72.4898C855.728 72.7556 855.921 72.9397 856.025 73.0439C856.073 73.0924 856.102 73.1233 856.114 73.1367L858.537 76.1036L859.572 72.3851C861.868 64.1324 866.564 56.7662 873.05 51.2362L875.552 49.1029L872.507 47.8621C868.246 46.1257 864.514 43.2853 861.687 39.6274C861.011 38.1217 861.169 35.7835 862.179 33.0709C863.191 30.3499 864.879 27.7571 866.446 26.1959L869.074 23.578L865.443 22.8209C859.442 21.5701 856.011 17.935 854.066 13.9712C852.083 9.93034 851.689 5.60536 851.847 3.37273L847.968 2.56006C846.221 7.46262 844.421 11.8799 841.708 15.2607C839.07 18.5496 835.532 20.8976 830.122 21.5747L825.986 22.0921L828.977 24.9944C832.973 28.8726 836.302 33.6575 837.17 38.7938C838.012 43.7753 836.6 49.4467 830.375 55.407Z" fill="#5DC68D" stroke="#02221F" stroke-width="4"/>
<path d="M849.091 14.1631C850.001 31.5037 852.126 48.7576 855.45 65.7956C849.891 49.1956 847.727 31.6306 849.091 14.1631V14.1631Z" fill="#02221F"/>
<path d="M663.903 118.317L663.084 121.142L666.012 120.865C674.536 120.061 679.686 122.714 682.884 126.665C686.188 130.749 687.646 136.514 688.059 142.281L688.352 146.369L691.394 143.623C695.466 139.947 699.54 138.815 703.718 138.981C708.018 139.153 712.492 140.699 717.312 142.598L719.277 139.162C717.521 137.789 714.589 134.606 712.896 130.422C711.233 126.313 710.784 121.317 713.746 116.009L715.551 112.773L711.855 113.04C709.69 113.196 706.652 112.72 703.945 111.659C701.241 110.599 699.393 109.168 698.732 107.74C697.79 103.181 698.09 98.4486 699.604 94.0468L700.673 90.9364L697.419 91.4182C688.954 92.6716 680.311 91.3191 672.619 87.5363L669.155 85.833L669.756 89.6169C669.758 89.6351 669.762 89.6785 669.767 89.7499C669.775 89.8995 669.785 90.1695 669.776 90.5839C669.759 91.4142 669.671 92.8118 669.369 94.9654C668.765 99.276 667.312 106.565 663.903 118.317Z" fill="#5DC68D" stroke="#02221F" stroke-width="4"/>
<path d="M709.088 134.052C696.767 121.926 685.303 108.945 674.782 95.2031C683.484 110.367 695.157 123.585 709.088 134.052V134.052Z" fill="#02221F"/>
<path d="M694.756 94.255C686.559 94.2581 678.407 93.0248 670.572 90.596C670.01 90.4189 669.54 90.0256 669.263 89.5015C668.986 88.9773 668.926 88.3644 669.094 87.7953C669.175 87.5061 669.314 87.2366 669.502 87.0033C669.69 86.77 669.923 86.5777 670.187 86.4382C670.451 86.2987 670.74 86.2149 671.037 86.192C671.335 86.169 671.633 86.2073 671.915 86.3046C690.85 92.104 711.255 90.491 729.063 81.7873C746.803 73.0009 760.605 57.7893 767.714 39.1894C767.818 38.9094 767.976 38.653 768.179 38.4352C768.383 38.2174 768.627 38.0425 768.898 37.9206C769.169 37.7987 769.461 37.7323 769.757 37.7252C770.054 37.7182 770.349 37.7706 770.625 37.8794C770.901 37.9797 771.154 38.1348 771.37 38.3356C771.585 38.5363 771.759 38.7787 771.88 39.0482C772.001 39.3177 772.067 39.609 772.075 39.9048C772.082 40.2006 772.031 40.495 771.924 40.7704C764.401 60.4727 749.804 76.5988 731.033 85.9432C719.722 91.45 707.317 94.2922 694.756 94.255V94.255Z" fill="#02221F"/>
<path d="M678.185 91.2731C675.725 91.2812 673.268 91.0848 670.84 90.6859C670.259 90.5761 669.745 90.239 669.409 89.7482C669.074 89.2574 668.944 88.6526 669.049 88.0659C669.092 87.7689 669.194 87.4838 669.35 87.228C669.505 86.9722 669.711 86.7509 669.954 86.5777C670.197 86.4044 670.472 86.2828 670.763 86.2203C671.054 86.1577 671.355 86.1555 671.646 86.2138C685.082 88.6079 700.713 82.871 710.073 77.1792C720.894 70.592 729.026 60.3232 733.004 48.2235C733.188 47.6546 733.589 47.1829 734.118 46.9119C734.647 46.6408 735.261 46.5927 735.825 46.7779C736.382 46.9738 736.843 47.3795 737.11 47.91C737.377 48.4404 737.43 49.0546 737.259 49.6238C732.967 62.8246 724.134 74.041 712.357 81.2448C701.991 87.4491 690.234 90.8995 678.185 91.2731V91.2731Z" fill="#02221F"/>
<path d="M713.701 98.9518C698.855 99.0318 684.138 96.1614 670.392 90.5045C670.119 90.3956 669.87 90.2324 669.66 90.0246C669.45 89.8168 669.284 89.5685 669.171 89.2946C669.058 89.0208 669.001 88.7268 669.003 88.4302C669.006 88.1337 669.067 87.8405 669.183 87.5683C669.42 87.0266 669.855 86.5978 670.397 86.3707C670.939 86.1436 671.547 86.1357 672.094 86.3486C699.869 97.4597 730.858 97.1353 758.398 85.4451C758.946 85.2322 759.553 85.2402 760.095 85.4673C760.637 85.6944 761.072 86.1232 761.309 86.6648C761.427 86.9343 761.49 87.2248 761.495 87.5193C761.5 87.8137 761.447 88.1063 761.338 88.3797C761.23 88.6532 761.069 88.902 760.864 89.1118C760.659 89.3215 760.414 89.4878 760.145 89.601C745.431 95.7935 729.644 98.9721 713.701 98.9518V98.9518Z" fill="#02221F"/>
<path d="M761.192 95.7068C762.78 96.0279 764.426 95.8672 765.922 95.2458C766.92 94.8382 767.826 94.2357 768.589 93.4739C769.354 92.7105 769.961 91.8024 770.374 90.8028C770.786 89.8031 770.998 88.7313 770.997 87.6495C770.996 86.57 770.782 85.501 770.369 84.5042C769.756 83.0022 768.714 81.7143 767.372 80.8049C766.029 79.894 764.446 79.4045 762.823 79.4004C761.201 79.3963 759.615 79.8778 758.267 80.782C756.919 81.6859 755.869 82.9711 755.249 84.473C754.629 85.9747 754.464 87.6272 754.776 89.2222C755.087 90.8172 755.861 92.2856 757.002 93.4406C758.144 94.5957 759.601 95.3853 761.192 95.7068Z" fill="#FC525A" stroke="#02221F" stroke-width="4"/>
<path d="M768.235 48.0752C769.829 48.387 771.478 48.2144 772.974 47.5801C774.969 46.7336 776.546 45.1274 777.365 43.1178C778.184 41.1087 778.181 38.8553 777.357 36.8483C776.739 35.3439 775.692 34.0554 774.344 33.1483C772.996 32.241 771.41 31.7567 769.786 31.7588C768.162 31.7609 766.577 32.2492 765.232 33.1598C763.886 34.0704 762.842 35.3614 762.228 36.8674C761.614 38.3732 761.458 40.028 761.778 41.6227C762.098 43.2175 762.88 44.6829 764.029 45.8323C765.178 46.9818 766.642 47.7634 768.235 48.0752Z" fill="#FC525A" stroke="#02221F" stroke-width="4"/>
<path d="M729.333 51.7942L729.364 51.903L729.406 52.0077C730.23 54.0213 731.815 55.6282 733.819 56.4701C735.822 57.3122 738.077 57.3179 740.085 56.4859L739.319 54.6383L740.137 56.4633C742.1 55.5834 743.637 53.9634 744.421 51.9574C745.205 49.9519 745.177 47.7167 744.342 45.7318L744.299 45.6276L744.243 45.5289C743.266 43.7857 741.686 42.4603 739.799 41.8086C737.912 41.1568 735.852 41.2257 734.013 42.002C732.173 42.778 730.685 44.2055 729.824 46.0095C728.964 47.8131 728.789 49.8708 729.333 51.7942Z" fill="#FC525A" stroke="#02221F" stroke-width="4"/>
<path d="M788.715 118.748L794.758 118.489L789.751 115.095C778.912 107.746 768.971 102.069 755.251 103.697L750.581 104.251L754.22 107.23C763.936 115.186 776.205 119.284 788.715 118.748Z" fill="#5DC68D" stroke="#02221F" stroke-width="4"/>
<path d="M776.898 98.3355L771.397 99.8603L776.647 102.102C784.971 105.657 794.177 106.549 803.02 104.658L802.602 102.702L803.496 100.913C795.245 96.7922 785.778 95.8744 776.898 98.3355Z" fill="#5DC68D" stroke="#02221F" stroke-width="4"/>
<path d="M659.402 68.3984L656.647 71.503L660.792 71.7231C666.715 72.0377 672.64 71.1578 678.221 69.1352C683.802 67.1126 688.926 63.9882 693.293 59.9457L691.935 58.4779L692.238 56.501C686.214 55.5777 680.057 56.1825 674.324 58.2603C668.59 60.338 663.462 63.8229 659.402 68.3984Z" fill="#5DC68D" stroke="#02221F" stroke-width="4"/>
<path d="M1082.69 83.0304C1082.3 82.0202 1081.71 81.097 1080.96 80.3141C1079.45 78.7327 1077.37 77.8189 1075.19 77.7796C1073 77.7404 1070.89 78.5789 1069.32 80.1054C1067.75 81.6314 1066.85 83.7193 1066.82 85.9088C1066.78 88.0983 1067.6 90.2168 1069.11 91.7977C1069.86 92.5806 1070.76 93.2081 1071.75 93.6433C1072.74 94.0785 1073.81 94.3128 1074.89 94.3322C1075.97 94.3516 1077.05 94.1559 1078.06 93.7565C1079.06 93.3571 1079.98 92.7621 1080.76 92.0064C1081.53 91.2508 1082.15 90.3492 1082.58 89.3536C1083.01 88.358 1083.24 87.2875 1083.26 86.203C1083.28 85.1185 1083.09 84.0405 1082.69 83.0304Z" fill="#FC525A" stroke="#02221F" stroke-width="4"/>
<path d="M1092 93.8423C1091.25 93.0752 1090.36 92.4647 1089.37 92.047C1088.38 91.6275 1087.31 91.4111 1086.24 91.4111C1085.16 91.4111 1084.09 91.6275 1083.1 92.047C1082.11 92.4647 1081.22 93.0752 1080.47 93.8423C1079.32 94.9895 1078.54 96.4518 1078.22 98.0436C1077.9 99.6401 1078.05 101.297 1078.67 102.805C1079.28 104.314 1080.33 105.606 1081.67 106.518C1083.02 107.429 1084.61 107.916 1086.24 107.916C1087.86 107.916 1089.45 107.429 1090.8 106.518C1092.14 105.606 1093.19 104.314 1093.8 102.805C1094.42 101.297 1094.57 99.6401 1094.25 98.0436C1093.93 96.4518 1093.15 94.9895 1092 93.8423Z" fill="#FC525A" stroke="#02221F" stroke-width="4"/>
<path d="M1084.11 83.8046L1084.11 83.8117L1084.11 83.8188C1084.3 85.9794 1085.33 87.9799 1086.98 89.3862C1088.63 90.793 1090.77 91.4911 1092.93 91.325L1092.77 89.3309L1092.94 91.3238C1094.56 91.1877 1096.1 90.5713 1097.36 89.5551C1098.63 88.5389 1099.56 87.1692 1100.05 85.6204C1100.54 84.0718 1100.57 82.4118 1100.12 80.8495C1099.68 79.287 1098.78 77.8901 1097.55 76.8369C1096.31 75.7835 1094.79 75.1216 1093.18 74.9374C1091.57 74.7531 1089.94 75.0552 1088.5 75.8041C1087.06 76.5529 1085.88 77.7139 1085.1 79.1378C1084.32 80.5615 1083.97 82.1855 1084.11 83.8046Z" fill="#FC525A" stroke="#02221F" stroke-width="4"/>
<path d="M1030.72 100.412L1031.01 103.365L1033.64 101.99C1044.42 96.3528 1051.26 93.5666 1055.36 92.1927C1057.41 91.5064 1058.77 91.1768 1059.57 91.0192C1059.98 90.9406 1060.24 90.9054 1060.39 90.8899C1060.46 90.883 1060.5 90.88 1060.51 90.8789H1064.49L1062.08 87.6777C1056.92 80.8033 1053.93 72.5126 1053.52 63.8937L1053.37 60.6263L1050.53 62.2539C1046.51 64.5628 1041.95 65.7497 1037.32 65.6959C1035.74 65.3355 1033.96 63.784 1032.43 61.3084C1030.89 58.8313 1029.91 55.9158 1029.74 53.7564L1029.42 49.7839L1026.43 52.4116C1021.83 56.4397 1016.91 56.9491 1012.61 56.072C1008.22 55.177 1004.56 52.8377 1002.87 51.337L999.84 53.8784C1002.63 58.4176 1005 62.5553 1005.99 66.7676C1006.95 70.8539 1006.62 75.0648 1003.81 79.8189L1001.7 83.3762L1005.8 82.82C1011.43 82.0549 1017.29 82.3565 1021.87 84.819C1026.31 87.2035 1029.88 91.7938 1030.72 100.412Z" fill="#5DC68D" stroke="#02221F" stroke-width="4"/>
<path d="M1009.87 60.2393C1024.02 70.1332 1038.84 79.0235 1054.21 86.846C1037.8 81.0907 1022.72 72.0395 1009.87 60.2393V60.2393Z" fill="#02221F"/>
<path d="M1048 55.4047L1045.88 57.4207L1048.53 58.6619C1059.53 63.8299 1065.92 67.5337 1069.54 69.9162C1071.34 71.1065 1072.44 71.96 1073.08 72.4936C1073.39 72.76 1073.59 72.9448 1073.69 73.0498C1073.74 73.0997 1073.77 73.1313 1073.78 73.1447L1076.21 76.0838L1077.24 72.3817C1079.51 64.1329 1084.2 56.7667 1090.67 51.2347L1093.16 49.1043L1090.13 47.8631C1085.88 46.1248 1082.16 43.2819 1079.35 39.6226C1078.65 38.1195 1078.8 35.7831 1079.8 33.0678C1080.81 30.3492 1082.5 27.7572 1084.06 26.1959L1086.64 23.6287L1083.09 22.8279C1077.19 21.4971 1073.75 17.8149 1071.76 13.8076C1069.75 9.73029 1069.31 5.40355 1069.46 3.19206L1065.58 2.38705C1063.86 7.28671 1062.07 11.7018 1059.36 15.08C1056.72 18.3666 1053.18 20.7163 1047.74 21.3939L1043.65 21.9042L1046.58 24.802C1050.61 28.7769 1053.95 33.6089 1054.82 38.77C1055.66 43.7729 1054.24 49.444 1048 55.4047Z" fill="#5DC68D" stroke="#02221F" stroke-width="4"/>
<path d="M1066.75 14.1631C1067.65 31.5026 1069.76 48.7565 1073.07 65.7956C1067.5 49.1978 1065.35 31.6281 1066.75 14.1631V14.1631Z" fill="#02221F"/>
<path d="M881.521 118.317L880.702 121.141L883.629 120.865C892.18 120.06 897.326 122.716 900.494 126.645C903.766 130.706 905.17 136.43 905.495 142.117L905.734 146.284L908.832 143.487C912.904 139.812 916.988 138.679 921.173 138.846C925.478 139.017 929.953 140.564 934.748 142.462L936.716 139.027C934.96 137.654 932.028 134.471 930.341 130.289C928.684 126.181 928.244 121.187 931.226 115.878L933.045 112.639L929.34 112.904C927.149 113.06 924.099 112.584 921.388 111.523C918.684 110.465 916.838 109.037 916.174 107.612C915.274 103.042 915.574 98.3122 917.048 93.8939L918.078 90.8063L914.858 91.2826C906.459 92.5252 897.883 91.219 890.221 87.5291L886.779 85.8711L887.374 89.6169C887.376 89.6351 887.38 89.6785 887.384 89.7499C887.393 89.8995 887.402 90.1695 887.394 90.5839C887.377 91.4142 887.289 92.8118 886.987 94.9654C886.382 99.276 884.93 106.565 881.521 118.317Z" fill="#5DC68D" stroke="#02221F" stroke-width="4"/>
<path d="M926.75 134.052C914.403 121.939 902.923 108.957 892.399 95.2031C901.118 110.369 912.805 123.587 926.75 134.052V134.052Z" fill="#02221F"/>
<path d="M912.419 94.2545C904.206 94.2613 896.039 93.028 888.189 90.5955C887.886 90.5274 887.601 90.3965 887.35 90.2112C887.1 90.0258 886.891 89.79 886.736 89.5188C886.581 89.2475 886.484 88.9467 886.45 88.6354C886.416 88.3242 886.447 88.0093 886.541 87.7107C886.634 87.4121 886.788 87.1364 886.993 86.9011C887.198 86.6658 887.449 86.4759 887.73 86.3437C888.011 86.2114 888.317 86.1396 888.627 86.1327C888.938 86.1259 889.246 86.1843 889.533 86.304C908.467 92.1034 928.873 90.4904 946.68 81.7868C964.421 72.9877 978.234 57.7824 985.376 39.1888C985.626 38.6945 986.049 38.3105 986.562 38.1102C987.075 37.9099 987.644 37.9072 988.159 38.1028C988.674 38.2983 989.1 38.6783 989.354 39.1703C989.609 39.6622 989.676 40.2317 989.541 40.7699C982.049 60.4912 967.443 76.6272 948.651 85.9427C937.356 91.4533 924.965 94.2958 912.419 94.2545V94.2545Z" fill="#02221F"/>
<path d="M895.803 91.2736C893.343 91.2817 890.886 91.0853 888.458 90.6864C887.877 90.5766 887.363 90.2395 887.027 89.7487C886.691 89.2579 886.562 88.6532 886.667 88.0664C886.709 87.7694 886.812 87.4843 886.967 87.2285C887.123 86.9727 887.328 86.7514 887.571 86.5782C887.814 86.4049 888.09 86.2834 888.381 86.2208C888.672 86.1582 888.972 86.156 889.264 86.2143C902.7 88.6536 918.375 82.9167 927.691 77.1797C938.511 70.5925 946.644 60.3237 950.622 48.224C950.816 47.6622 951.218 47.1979 951.744 46.9285C952.27 46.659 952.879 46.6053 953.443 46.7785C954.007 46.9645 954.475 47.3687 954.744 47.9023C955.012 48.4359 955.06 49.0553 954.876 49.6243C950.603 62.8219 941.785 74.0394 930.02 81.2453C919.639 87.4551 907.866 90.9056 895.803 91.2736V91.2736Z" fill="#02221F"/>
<path d="M931.319 98.9523C916.473 99.0288 901.757 96.1586 888.01 90.505C887.737 90.3961 887.488 90.2329 887.278 90.0251C887.068 89.8173 886.902 89.569 886.789 89.2952C886.676 89.0213 886.619 88.7273 886.621 88.4308C886.623 88.1342 886.684 87.8411 886.801 87.5688C887.038 87.0272 887.472 86.5983 888.014 86.3712C888.556 86.1441 889.164 86.1362 889.712 86.3491C917.487 97.4602 948.475 97.1358 976.016 85.4457C976.57 85.2307 977.184 85.2373 977.733 85.464C978.283 85.6906 978.726 86.1204 978.971 86.6653C979.183 87.2177 979.175 87.8309 978.949 88.3776C978.724 88.9243 978.299 89.3626 977.762 89.6015C963.05 95.7975 947.262 98.9763 931.319 98.9523Z" fill="#02221F"/>
<path d="M978.866 95.7324C980.459 96.0442 982.109 95.8716 983.604 95.2373C985.599 94.3909 987.176 92.7847 987.995 90.7751C988.814 88.7659 988.811 86.5125 987.987 84.5055C987.37 83.0011 986.322 81.7127 984.975 80.8055C983.627 79.8983 982.04 79.414 980.417 79.416C978.793 79.4181 977.208 79.9064 975.862 80.8171C974.517 81.7276 973.472 83.0187 972.859 84.5246C972.245 86.0305 972.088 87.6852 972.408 89.28C972.728 90.8747 973.511 92.3401 974.66 93.4895C975.809 94.639 977.272 95.4206 978.866 95.7324Z" fill="#FC525A" stroke="#02221F" stroke-width="4"/>
<path d="M985.841 48.0486C987.431 48.3702 989.08 48.2085 990.578 47.5848C992.584 46.7497 994.175 45.1482 995.005 43.1373C995.836 41.1269 995.841 38.8673 995.021 36.8529C994.408 35.348 993.365 34.0575 992.022 33.1467C990.678 32.2358 989.095 31.7463 987.472 31.7422C985.85 31.7381 984.264 32.2196 982.916 33.1237C981.568 34.0278 980.519 35.313 979.898 36.8148C979.278 38.3165 979.113 39.969 979.425 41.564C979.736 43.159 980.51 44.6274 981.652 45.7824C982.793 46.9375 984.25 47.7271 985.841 48.0486Z" fill="#FC525A" stroke="#02221F" stroke-width="4"/>
<path d="M946.994 51.9304L947.008 51.9692L947.024 52.0073C947.848 54.0209 949.433 55.6278 951.436 56.4697C953.44 57.3118 955.694 57.3175 957.702 56.4855L956.937 54.6378L957.705 56.4842C959.711 55.6491 961.302 54.0476 962.132 52.0368C962.963 50.0264 962.968 47.7669 962.148 45.7523L962.132 45.7141L962.115 45.6766C961.235 43.7477 959.647 42.2319 957.679 41.4516C955.71 40.6711 953.517 40.689 951.561 41.5014C949.605 42.3136 948.042 43.8549 947.193 45.7977C946.344 47.7401 946.273 49.937 946.994 51.9304Z" fill="#FC525A" stroke="#02221F" stroke-width="4"/>
<path d="M1006.38 118.748L1012.43 118.483L1007.41 115.092C996.53 107.746 986.634 102.069 972.87 103.696L968.197 104.249L971.837 107.23C981.566 115.197 993.854 119.296 1006.38 118.748Z" fill="#5DC68D" stroke="#02221F" stroke-width="4"/>
<path d="M994.471 98.3355L988.97 99.8603L994.22 102.102C1002.54 105.657 1011.75 106.549 1020.59 104.658L1020.18 102.702L1021.07 100.913C1012.82 96.7922 1003.35 95.8744 994.471 98.3355Z" fill="#5DC68D" stroke="#02221F" stroke-width="4"/>
<path d="M877.02 68.3972L874.264 71.499L878.408 71.7228C884.331 72.0427 890.259 71.1652 895.841 69.1422C901.423 67.1191 906.547 63.9916 910.912 59.9443L909.552 58.4777L909.854 56.5006C903.831 55.5817 897.676 56.1885 891.943 58.2659C886.211 60.3432 881.083 63.8254 877.02 68.3972Z" fill="#5DC68D" stroke="#02221F" stroke-width="4"/>
<path d="M1300.31 83.0304C1299.92 82.0201 1299.33 81.097 1298.58 80.3141C1297.07 78.7327 1294.99 77.8189 1292.8 77.7796C1290.62 77.7404 1288.51 78.5789 1286.94 80.1054C1285.37 81.6314 1284.47 83.7193 1284.43 85.9088C1284.39 88.0983 1285.22 90.2168 1286.73 91.7977C1287.48 92.5806 1288.38 93.2081 1289.37 93.6433C1290.36 94.0785 1291.43 94.3128 1292.51 94.3322C1293.59 94.3516 1294.67 94.1559 1295.67 93.7565C1296.68 93.3571 1297.6 92.7621 1298.37 92.0064C1299.15 91.2508 1299.77 90.3492 1300.2 89.3536C1300.63 88.358 1300.86 87.2875 1300.88 86.203C1300.9 85.1186 1300.71 84.0406 1300.31 83.0304Z" fill="#FC525A" stroke="#02221F" stroke-width="4"/>
<path d="M1309.59 105.446L1309.6 105.44L1309.61 105.433C1310.37 104.674 1310.98 103.77 1311.39 102.774C1311.81 101.778 1312.02 100.71 1312.02 99.6309C1312.02 98.5519 1311.81 97.4834 1311.39 96.4875C1310.98 95.505 1310.39 94.612 1309.64 93.8596C1308.91 93.0875 1308.05 92.4639 1307.09 92.0246C1306.12 91.5792 1305.06 91.3324 1303.99 91.2989C1302.92 91.2653 1301.86 91.4458 1300.86 91.8294C1299.86 92.213 1298.95 92.7919 1298.17 93.532L1298.17 93.5384L1298.16 93.5449C1297.38 94.3006 1296.76 95.2022 1296.33 96.1978C1295.9 97.1933 1295.67 98.2638 1295.65 99.3483C1295.63 100.433 1295.83 101.511 1296.22 102.521C1296.61 103.531 1297.2 104.454 1297.95 105.237C1298.7 106.02 1299.6 106.648 1300.59 107.083C1301.58 107.518 1302.65 107.752 1303.73 107.772C1304.81 107.791 1305.89 107.595 1306.89 107.196C1307.9 106.797 1308.82 106.202 1309.59 105.446Z" fill="#FC525A" stroke="#02221F" stroke-width="4"/>
<path d="M1301.77 83.8055L1301.77 83.8055L1301.77 83.8195C1301.97 85.969 1302.99 87.9602 1304.62 89.3648C1306.26 90.7699 1308.38 91.4755 1310.53 91.3257L1310.39 89.3305L1310.54 91.3246C1312.16 91.2001 1313.71 90.5931 1314.98 89.5831C1316.26 88.5733 1317.2 87.2065 1317.7 85.6578C1318.2 84.1093 1318.23 82.4464 1317.8 80.8795C1317.36 79.3124 1316.46 77.9098 1315.23 76.8507C1314 75.7915 1312.48 75.124 1310.86 74.9357C1309.25 74.7473 1307.62 75.0469 1306.18 75.795C1304.73 76.5431 1303.55 77.705 1302.76 79.131C1301.98 80.5568 1301.63 82.1837 1301.77 83.8055Z" fill="#FC525A" stroke="#02221F" stroke-width="4"/>
<path d="M1248.34 100.407L1248.62 103.366L1251.26 101.991C1262.06 96.3525 1268.87 93.5655 1272.94 92.1912C1274.97 91.5046 1276.3 91.1753 1277.09 91.0181C1277.49 90.9397 1277.75 90.9048 1277.89 90.8896C1277.94 90.8832 1277.98 90.8803 1278 90.8792H1281.91L1279.58 87.6963C1274.53 80.8183 1271.63 72.5817 1271.23 64.0318L1271.08 60.7552L1268.24 62.3909C1264.23 64.6977 1259.68 65.8843 1255.07 65.8316C1253.47 65.4711 1251.69 63.9188 1250.16 61.4442C1248.62 58.9688 1247.64 56.0471 1247.44 53.8746L1247.09 49.9377L1244.13 52.5502C1239.56 56.5745 1234.64 57.0851 1230.34 56.2077C1225.95 55.3124 1222.29 52.9728 1220.63 51.4806L1217.59 54.0141C1220.38 58.5503 1222.74 62.6888 1223.73 66.9011C1224.68 70.9898 1224.35 75.2039 1221.56 79.9602L1219.44 83.5671L1223.58 82.9522C1229.16 82.1233 1234.98 82.3942 1239.54 84.8373C1243.96 87.203 1247.52 91.7884 1248.34 100.407Z" fill="#5DC68D" stroke="#02221F" stroke-width="4"/>
<path d="M1227.54 60.2393C1241.68 70.1523 1256.49 79.0434 1271.88 86.846C1255.46 81.1113 1240.37 72.0578 1227.54 60.2393V60.2393Z" fill="#02221F"/>
<path d="M1265.61 55.4046L1263.5 57.4206L1266.14 58.6619C1277.15 63.8298 1283.54 67.5337 1287.15 69.9162C1288.96 71.1064 1290.06 71.96 1290.69 72.4936C1291.01 72.76 1291.2 72.9447 1291.31 73.0498C1291.36 73.0997 1291.39 73.1313 1291.4 73.1447L1293.82 76.0738L1294.85 72.387C1297.15 64.1446 1301.83 56.7812 1308.29 51.2311L1310.76 49.1066L1307.75 47.865C1303.5 46.1153 1299.78 43.273 1296.96 39.6206C1296.27 38.122 1296.42 35.7902 1297.44 33.074C1298.46 30.3547 1300.16 27.7599 1301.73 26.1959L1304.35 23.578L1300.72 22.8209C1294.72 21.5701 1291.29 17.935 1289.35 13.9712C1287.36 9.93034 1286.97 5.60536 1287.13 3.37273L1283.25 2.56006C1281.5 7.46262 1279.7 11.8799 1276.99 15.2607C1274.35 18.5496 1270.81 20.8976 1265.4 21.5747L1261.27 22.0921L1264.26 24.9944C1268.25 28.8727 1271.58 33.657 1272.44 38.7919C1273.28 43.7715 1271.86 49.443 1265.61 55.4046Z" fill="#5DC68D" stroke="#02221F" stroke-width="4"/>
<path d="M1284.42 14.1631C1285.31 31.5026 1287.42 48.7565 1290.73 65.7956C1285.18 49.1927 1283.04 31.6276 1284.42 14.1631V14.1631Z" fill="#02221F"/>
<path d="M1099.18 118.32L1098.37 121.141L1101.29 120.865C1109.82 120.06 1114.97 122.715 1118.14 126.646C1121.42 130.708 1122.83 136.433 1123.16 142.117L1123.4 146.284L1126.49 143.487C1130.57 139.811 1134.64 138.679 1138.82 138.846C1143.12 139.017 1147.59 140.563 1152.41 142.463L1154.37 139.02C1152.6 137.649 1149.66 134.468 1147.96 130.287C1146.3 126.181 1145.86 121.187 1148.84 115.878L1150.66 112.637L1146.96 112.904C1144.79 113.06 1141.75 112.584 1139.04 111.523C1136.34 110.467 1134.47 109.037 1133.79 107.603C1132.89 103.038 1133.2 98.3107 1134.71 93.9078L1135.77 90.7958L1132.52 91.2832C1124.12 92.5413 1115.54 91.2347 1107.89 87.5307L1104.47 85.8775L1105.03 89.6032C1105.04 89.6215 1105.04 89.6658 1105.04 89.739C1105.05 89.8898 1105.06 90.1609 1105.05 90.5764C1105.03 91.4086 1104.94 92.808 1104.63 94.9629C1104.02 99.2761 1102.57 106.567 1099.18 118.32Z" fill="#5DC68D" stroke="#02221F" stroke-width="4"/>
<path d="M1144.37 134.052C1132.05 121.926 1120.58 108.945 1110.06 95.2031C1118.76 110.367 1130.44 123.585 1144.37 134.052V134.052Z" fill="#02221F"/>
<path d="M1130.04 94.255C1121.84 94.2615 1113.69 93.0281 1105.85 90.596C1105.29 90.4189 1104.82 90.0256 1104.54 89.5015C1104.27 88.9773 1104.21 88.3644 1104.37 87.7953C1104.45 87.5078 1104.58 87.2391 1104.77 87.0061C1104.95 86.773 1105.18 86.5806 1105.44 86.4407C1105.7 86.3009 1105.99 86.2166 1106.28 86.1932C1106.58 86.1698 1106.87 86.2077 1107.15 86.3046C1126.1 92.1023 1146.52 90.4895 1164.34 81.7873C1182.07 72.9864 1195.87 57.7798 1202.99 39.1894C1203.1 38.9094 1203.26 38.653 1203.46 38.4352C1203.66 38.2174 1203.91 38.0425 1204.18 37.9206C1204.45 37.7987 1204.74 37.7323 1205.04 37.7252C1205.33 37.7182 1205.63 37.7706 1205.9 37.8794C1206.18 37.9797 1206.43 38.1348 1206.65 38.3356C1206.87 38.5363 1207.04 38.7787 1207.16 39.0482C1207.28 39.3177 1207.35 39.609 1207.35 39.9048C1207.36 40.2006 1207.31 40.495 1207.2 40.7704C1199.69 60.4925 1185.07 76.6259 1166.27 85.9432C1154.97 91.4538 1142.58 94.2964 1130.04 94.255Z" fill="#02221F"/>
<path d="M1113.47 91.2737C1111.01 91.2857 1108.55 91.0892 1106.12 90.6864C1105.54 90.5761 1105.02 90.2409 1104.68 89.7518C1104.33 89.2627 1104.19 88.6582 1104.28 88.0664C1104.33 87.7721 1104.44 87.4906 1104.6 87.2379C1104.75 86.9852 1104.96 86.7665 1105.2 86.5943C1105.44 86.4221 1105.71 86.2998 1106 86.2346C1106.29 86.1694 1106.59 86.1625 1106.88 86.2143C1120.32 88.6085 1135.99 82.8715 1145.35 77.1797C1156.16 70.5905 1164.28 60.3205 1168.24 48.224C1168.43 47.6622 1168.84 47.1979 1169.36 46.9285C1169.89 46.659 1170.5 46.6053 1171.06 46.7785C1171.34 46.8653 1171.61 47.0088 1171.83 47.2004C1172.06 47.392 1172.24 47.6278 1172.38 47.8936C1172.51 48.1593 1172.59 48.4496 1172.61 48.747C1172.63 49.0445 1172.59 49.3429 1172.49 49.6243C1168.21 62.8142 1159.39 74.0273 1147.64 81.2453C1137.27 87.4496 1125.51 90.9 1113.47 91.2737V91.2737Z" fill="#02221F"/>
<path d="M1148.98 98.9523C1134.14 99.0324 1119.42 96.162 1105.67 90.505C1105.4 90.3955 1105.15 90.2326 1104.94 90.0257C1104.73 89.8188 1104.56 89.5719 1104.44 89.2992C1104.33 89.0265 1104.26 88.7332 1104.26 88.4363C1104.26 88.1394 1104.31 87.8446 1104.42 87.5688C1104.66 87.0238 1105.11 86.5941 1105.66 86.3674C1106.21 86.1407 1106.82 86.1342 1107.37 86.3491C1135.13 97.4624 1166.11 97.138 1193.63 85.4457C1194.19 85.2307 1194.8 85.2373 1195.35 85.464C1195.9 85.6906 1196.34 86.1204 1196.59 86.6653C1196.71 86.9376 1196.77 87.2307 1196.77 87.5273C1196.77 87.8239 1196.71 88.1178 1196.6 88.3917C1196.49 88.6656 1196.32 88.9138 1196.11 89.1217C1195.9 89.3295 1195.65 89.4927 1195.38 89.6015C1180.68 95.7928 1164.91 98.9715 1148.98 98.9523V98.9523Z" fill="#02221F"/>
<path d="M1196.47 95.7068C1198.06 96.0284 1199.71 95.8667 1201.21 95.243C1203.22 94.4078 1204.81 92.8063 1205.64 90.7955C1206.47 88.7852 1206.47 86.5256 1205.65 84.5111C1205.04 83.0062 1204 81.7157 1202.65 80.8049C1201.31 79.894 1199.73 79.4045 1198.1 79.4004C1196.48 79.3963 1194.89 79.8778 1193.55 80.782C1192.2 81.686 1191.15 82.9712 1190.53 84.473C1189.91 85.9745 1189.74 87.627 1190.06 89.2222C1190.37 90.8173 1191.14 92.2857 1192.28 93.4406C1193.42 94.5957 1194.88 95.3853 1196.47 95.7068Z" fill="#FC525A" stroke="#02221F" stroke-width="4"/>
<path d="M1203.46 48.0486C1205.05 48.3697 1206.69 48.209 1208.19 47.5876C1209.19 47.1799 1210.09 46.5774 1210.86 45.8157C1211.62 45.0523 1212.23 44.1442 1212.64 43.1445C1213.05 42.1449 1213.26 41.0731 1213.26 39.9913C1213.26 38.9118 1213.05 37.8429 1212.64 36.8462C1212.02 35.3442 1210.98 34.0562 1209.64 33.1467C1208.3 32.2358 1206.71 31.7463 1205.09 31.7422C1203.47 31.7381 1201.88 32.2196 1200.53 33.1237C1199.19 34.0278 1198.14 35.313 1197.52 36.8148C1196.9 38.3165 1196.73 39.969 1197.04 41.564C1197.35 43.159 1198.13 44.6274 1199.27 45.7824C1200.41 46.9375 1201.87 47.7271 1203.46 48.0486Z" fill="#FC525A" stroke="#02221F" stroke-width="4"/>
<path d="M1170.61 56.9199C1172.18 57.2474 1173.82 57.0977 1175.31 56.4903C1176.31 56.0826 1177.22 55.4791 1177.98 54.7156C1178.75 53.9522 1179.35 53.0441 1179.77 52.0445C1180.18 51.0448 1180.39 49.973 1180.39 48.8912C1180.39 47.8093 1180.18 46.738 1179.76 45.7393C1179.14 44.2519 1178.1 42.9793 1176.76 42.0838C1175.43 41.188 1173.85 40.7101 1172.25 40.7119C1170.64 40.7138 1169.07 41.1954 1167.73 42.0942C1166.4 42.9929 1165.36 44.2678 1164.74 45.7567C1164.13 47.2454 1163.96 48.8833 1164.27 50.4651C1164.57 52.047 1165.34 53.5046 1166.47 54.6538C1167.59 55.8031 1169.03 56.5925 1170.61 56.9199Z" fill="#FC525A" stroke="#02221F" stroke-width="4"/>
<path d="M1224 118.748L1230.04 118.474L1225.03 115.092C1214.15 107.748 1204.34 102.069 1190.53 103.696L1185.87 104.246L1189.5 107.227C1199.2 115.212 1211.48 119.315 1224 118.748Z" fill="#5DC68D" stroke="#02221F" stroke-width="4"/>
<path d="M1212.14 98.3344L1206.6 99.8538L1211.88 102.103C1220.22 105.655 1229.44 106.547 1238.3 104.658L1237.88 102.702L1238.77 100.911C1230.5 96.8101 1221.03 95.8936 1212.14 98.3344Z" fill="#5DC68D" stroke="#02221F" stroke-width="4"/>
<path d="M1094.82 68.397L1092.05 71.5145L1096.21 71.7231C1102.11 72.0186 1108.01 71.1293 1113.57 69.1072C1119.12 67.0851 1124.22 63.9707 1128.57 59.9456L1127.21 58.4776L1127.51 56.4996C1121.51 55.6011 1115.38 56.2182 1109.67 58.2952C1103.97 60.3721 1098.86 63.8436 1094.82 68.397Z" fill="#5DC68D" stroke="#02221F" stroke-width="4"/>
<path d="M1504.65 80.2779L1504.65 80.2829L1504.64 80.288C1503.5 81.4402 1502.72 82.9066 1502.41 84.5008C1502.09 86.095 1502.25 87.7479 1502.87 89.2512C1503.49 90.7546 1504.53 92.0424 1505.88 92.9498C1507.22 93.8573 1508.81 94.3428 1510.43 94.3428C1512.05 94.3428 1513.64 93.8573 1514.98 92.9498C1516.33 92.0424 1517.38 90.7545 1517.99 89.2512C1518.61 87.748 1518.77 86.0951 1518.45 84.5008C1518.14 82.9065 1517.36 81.4401 1516.22 80.288L1514.8 81.6973L1516.21 80.2779C1514.67 78.7519 1512.59 77.8936 1510.43 77.8936C1508.27 77.8936 1506.19 78.7519 1504.65 80.2779Z" fill="#FC525A" stroke="#02221F" stroke-width="4"/>
<path d="M1529.43 98.0935C1529.15 96.5138 1528.42 95.0495 1527.32 93.8822C1526.56 93.0662 1525.64 92.4145 1524.62 91.9683C1523.6 91.5211 1522.5 91.29 1521.38 91.29C1520.26 91.29 1519.16 91.5211 1518.14 91.9683C1517.12 92.4145 1516.2 93.0662 1515.44 93.8822C1514.34 95.0495 1513.61 96.5138 1513.33 98.0935C1513.05 99.6756 1513.23 101.307 1513.86 102.785C1514.49 104.264 1515.54 105.526 1516.87 106.415C1518.21 107.304 1519.78 107.778 1521.38 107.778C1522.98 107.778 1524.55 107.304 1525.89 106.415C1527.23 105.526 1528.27 104.264 1528.9 102.785C1529.53 101.307 1529.71 99.6756 1529.43 98.0935Z" fill="#FC525A" stroke="#02221F" stroke-width="4"/>
<path d="M1528.16 91.3246C1529.78 91.2001 1531.33 90.5931 1532.6 89.5831C1533.88 88.5733 1534.82 87.2065 1535.32 85.6578C1535.82 84.1093 1535.85 82.4464 1535.41 80.8795C1534.97 79.3124 1534.08 77.9098 1532.85 76.8507C1531.62 75.7915 1530.1 75.124 1528.48 74.9357C1526.87 74.7473 1525.24 75.0469 1523.79 75.795C1522.35 76.5431 1521.16 77.705 1520.38 79.131C1519.6 80.5568 1519.25 82.1837 1519.39 83.8054C1519.57 85.9647 1520.59 87.9686 1522.23 89.3787C1523.87 90.7894 1526.01 91.4905 1528.16 91.3246Z" fill="#FC525A" stroke="#02221F" stroke-width="4"/>
<path d="M1466.05 100.417L1466.35 103.364L1468.97 101.989C1479.72 96.3515 1486.52 93.5651 1490.59 92.1912C1492.62 91.5048 1493.95 91.1755 1494.75 91.0184C1495.14 90.9399 1495.4 90.905 1495.55 90.8898C1495.61 90.8832 1495.64 90.8803 1495.66 90.8792H1499.63L1497.23 87.6775C1492.09 80.8391 1489.1 72.5972 1488.67 64.023L1488.5 60.7679L1485.68 62.3896C1481.65 64.6989 1477.09 65.8858 1472.46 65.8317C1470.86 65.4713 1469.09 63.9192 1467.56 61.4467C1466.03 58.9725 1465.06 56.0561 1464.88 53.8921L1464.57 49.9197L1461.57 52.5473C1456.98 56.5754 1452.05 57.0848 1447.75 56.2077C1443.37 55.3128 1439.71 52.9734 1438.02 51.4728L1434.99 54.0141C1437.77 58.5503 1440.13 62.6888 1441.12 66.9011C1442.08 70.9898 1441.75 75.2039 1438.95 79.9602L1436.84 83.5543L1440.96 82.953C1446.66 82.1226 1452.55 82.3943 1457.15 84.8403C1461.6 87.209 1465.19 91.7972 1466.05 100.417Z" fill="#5DC68D" stroke="#02221F" stroke-width="4"/>
<path d="M1445.15 60.2393C1459.31 70.1332 1474.12 79.0235 1489.49 86.846C1473.08 81.101 1457.99 72.0486 1445.15 60.2393V60.2393Z" fill="#02221F"/>
<path d="M1483.27 55.407L1481.17 57.4229L1483.81 58.6619C1494.81 63.8297 1501.19 67.533 1504.79 69.9146C1506.59 71.1044 1507.69 71.9572 1508.31 72.4898C1508.63 72.7556 1508.82 72.9397 1508.92 73.0439C1508.97 73.0924 1509 73.1232 1509.01 73.1367L1511.43 76.1036L1512.47 72.3851C1514.77 64.1324 1519.46 56.7662 1525.95 51.2362L1528.45 49.1029L1525.41 47.8621C1521.14 46.1257 1517.41 43.2853 1514.58 39.6274C1513.91 38.1217 1514.07 35.7835 1515.08 33.0709C1516.09 30.3499 1517.78 27.7571 1519.34 26.1959L1521.96 23.5885L1518.35 22.8223C1512.46 21.5745 1509.02 17.9418 1507.04 13.962C1505.03 9.91001 1504.59 5.58507 1504.74 3.37273L1500.87 2.56006C1499.12 7.46262 1497.32 11.8799 1494.61 15.2607C1491.97 18.5496 1488.43 20.8976 1483.02 21.5747L1478.87 22.0939L1481.88 24.9982C1485.89 28.8743 1489.22 33.6578 1490.08 38.7919C1490.92 43.7726 1489.5 49.4451 1483.27 55.407Z" fill="#5DC68D" stroke="#02221F" stroke-width="4"/>
<path d="M1501.99 14.1631C1502.92 31.5017 1505.05 48.754 1508.35 65.7956C1502.79 49.1956 1500.62 31.6306 1501.99 14.1631V14.1631Z" fill="#02221F"/>
<path d="M1316.8 118.317L1315.98 121.141L1318.91 120.865C1327.46 120.06 1332.61 122.716 1335.77 126.645C1339.05 130.706 1340.45 136.43 1340.78 142.117L1341.01 146.284L1344.11 143.487C1348.18 139.812 1352.27 138.679 1356.45 138.846C1360.76 139.017 1365.23 140.564 1370.03 142.462L1372 139.027C1370.24 137.654 1367.31 134.47 1365.61 130.287C1363.95 126.177 1363.5 121.181 1366.46 115.873L1368.27 112.638L1364.57 112.904C1362.41 113.06 1359.37 112.584 1356.66 111.523C1353.96 110.464 1352.11 109.032 1351.45 107.605C1350.51 103.046 1350.81 98.3131 1352.32 93.9113L1353.39 90.8013L1350.14 91.2826C1341.74 92.5252 1333.16 91.219 1325.5 87.5291L1322.06 85.8711L1322.65 89.6169C1322.66 89.6351 1322.66 89.6785 1322.66 89.7499C1322.67 89.8994 1322.68 90.1695 1322.67 90.5839C1322.66 91.4142 1322.57 92.8118 1322.27 94.9654C1321.66 99.276 1320.21 106.565 1316.8 118.317Z" fill="#5DC68D" stroke="#02221F" stroke-width="4"/>
<path d="M1361.99 134.052C1349.66 121.926 1338.2 108.945 1327.68 95.2031C1336.4 110.358 1348.07 123.573 1361.99 134.052V134.052Z" fill="#02221F"/>
<path d="M1347.65 94.2544C1339.46 94.2575 1331.31 93.0242 1323.47 90.5954C1322.91 90.4183 1322.44 90.0251 1322.16 89.5009C1321.88 88.9767 1321.82 88.3638 1321.99 87.7947C1322.07 87.5055 1322.21 87.236 1322.4 87.0027C1322.59 86.7694 1322.82 86.5771 1323.08 86.4376C1323.35 86.2981 1323.64 86.2143 1323.94 86.1914C1324.23 86.1684 1324.53 86.2067 1324.81 86.304C1343.75 92.1034 1364.15 90.4904 1381.96 81.7867C1399.7 72.9876 1413.51 57.7823 1420.66 39.1888C1420.73 38.8805 1420.87 38.5921 1421.07 38.3425C1421.26 38.0929 1421.51 37.8877 1421.79 37.7404C1422.07 37.5931 1422.38 37.5069 1422.69 37.4876C1423.01 37.4682 1423.32 37.5161 1423.62 37.6281C1423.91 37.7402 1424.18 37.9137 1424.4 38.1376C1424.63 38.3614 1424.8 38.6304 1424.92 38.927C1425.03 39.2235 1425.08 39.541 1425.06 39.8586C1425.05 40.1761 1424.96 40.4867 1424.82 40.7698C1417.3 60.4721 1402.7 76.5982 1383.93 85.9426C1372.62 91.4539 1360.22 94.2963 1347.65 94.2544V94.2544Z" fill="#02221F"/>
<path d="M1331.08 91.2734C1328.62 91.2815 1326.17 91.0851 1323.74 90.6862C1323.16 90.5764 1322.64 90.2393 1322.31 89.7485C1321.97 89.2577 1321.84 88.6529 1321.95 88.0662C1321.99 87.7692 1322.09 87.4841 1322.25 87.2283C1322.4 86.9725 1322.61 86.7512 1322.85 86.578C1323.09 86.4047 1323.37 86.2831 1323.66 86.2206C1323.95 86.158 1324.25 86.1558 1324.54 86.2141C1337.98 88.6082 1353.61 82.8713 1362.97 77.1795C1373.79 70.5923 1381.92 60.3235 1385.9 48.2238C1385.98 47.9317 1386.12 47.6594 1386.31 47.4233C1386.5 47.1871 1386.74 46.9919 1387 46.8493C1387.27 46.7067 1387.56 46.6197 1387.86 46.5934C1388.16 46.5672 1388.46 46.6022 1388.75 46.6964C1389.04 46.7906 1389.3 46.9421 1389.53 47.1418C1389.75 47.3415 1389.94 47.5853 1390.07 47.8586C1390.2 48.1319 1390.28 48.4291 1390.29 48.7325C1390.31 49.0359 1390.26 49.3391 1390.16 49.6241C1385.85 62.8192 1377.02 74.0322 1365.26 81.2451C1354.89 87.4548 1343.13 90.9057 1331.08 91.2734V91.2734Z" fill="#02221F"/>
<path d="M1366.6 98.9518C1351.75 99.0318 1337.04 96.1614 1323.29 90.5045C1323.02 90.3956 1322.77 90.2324 1322.56 90.0246C1322.35 89.8168 1322.18 89.5685 1322.07 89.2946C1321.96 89.0208 1321.9 88.7268 1321.9 88.4302C1321.9 88.1337 1321.96 87.8405 1322.08 87.5683C1322.32 87.0266 1322.75 86.5978 1323.29 86.3707C1323.84 86.1436 1324.44 86.1357 1324.99 86.3486C1352.77 97.4597 1383.76 97.1353 1411.3 85.4451C1411.84 85.2322 1412.45 85.2402 1412.99 85.4673C1413.54 85.6944 1413.97 86.1232 1414.21 86.6648C1414.32 86.9343 1414.39 87.2248 1414.39 87.5193C1414.4 87.8137 1414.34 88.1063 1414.24 88.3797C1414.13 88.6532 1413.97 88.902 1413.76 89.1118C1413.56 89.3215 1413.31 89.4878 1413.04 89.601C1398.33 95.7935 1382.54 98.9721 1366.6 98.9518V98.9518Z" fill="#02221F"/>
<path d="M1414.09 95.7068C1415.68 96.0279 1417.32 95.8672 1418.82 95.2458C1419.82 94.8382 1420.72 94.2357 1421.49 93.4739C1422.25 92.7105 1422.86 91.8024 1423.27 90.8028C1423.68 89.8031 1423.9 88.7313 1423.89 87.6495C1423.89 86.57 1423.68 85.5011 1423.27 84.5044C1422.65 83.0024 1421.61 81.7144 1420.27 80.8049C1418.93 79.894 1417.34 79.4045 1415.72 79.4004C1414.1 79.3963 1412.51 79.8778 1411.16 80.782C1409.82 81.686 1408.77 82.9712 1408.15 84.473C1407.53 85.9747 1407.36 87.6272 1407.67 89.2222C1407.99 90.8172 1408.76 92.2856 1409.9 93.4406C1411.04 94.5957 1412.5 95.3853 1414.09 95.7068Z" fill="#FC525A" stroke="#02221F" stroke-width="4"/>
<path d="M1421.12 48.0486C1422.71 48.3702 1424.36 48.2085 1425.86 47.5848C1427.86 46.7496 1429.45 45.1481 1430.29 43.1373C1431.12 41.127 1431.12 38.8674 1430.3 36.8529C1429.69 35.348 1428.65 34.0575 1427.3 33.1467C1425.96 32.2358 1424.37 31.7463 1422.75 31.7422C1421.13 31.7381 1419.54 32.2196 1418.2 33.1237C1416.85 34.0277 1415.8 35.3129 1415.18 36.8148C1414.56 38.3165 1414.39 39.969 1414.7 41.564C1415.02 43.1591 1415.79 44.6275 1416.93 45.7824C1418.07 46.9375 1419.53 47.7271 1421.12 48.0486Z" fill="#FC525A" stroke="#02221F" stroke-width="4"/>
<path d="M1392.22 54.6382L1392.98 56.4859C1390.97 57.3179 1388.72 57.3122 1386.72 56.4701C1384.71 55.6284 1383.13 54.0219 1382.3 52.0087L1392.22 54.6382ZM1392.22 54.6382L1393 56.4794C1394.99 55.633 1396.57 54.0268 1397.39 52.0172C1398.21 50.008 1398.21 47.7546 1397.38 45.7476C1396.56 43.7392 1394.97 42.1375 1392.97 41.3003C1390.97 40.4627 1388.72 40.4611 1386.72 41.2958C1384.72 42.1303 1383.14 43.7301 1382.31 45.738C1381.48 47.7448 1381.48 49.9994 1382.3 52.0077L1392.22 54.6382Z" fill="#FC525A" stroke="#02221F" stroke-width="4"/>
<path d="M1441.61 118.748L1447.66 118.489L1442.65 115.095C1431.81 107.746 1421.87 102.069 1408.15 103.697L1403.48 104.251L1407.12 107.23C1416.83 115.186 1429.1 119.284 1441.61 118.748Z" fill="#5DC68D" stroke="#02221F" stroke-width="4"/>
<path d="M1429.8 98.3355L1424.29 99.8603L1429.54 102.102C1437.87 105.657 1447.07 106.549 1455.92 104.658L1455.5 102.702L1456.39 100.913C1448.14 96.7922 1438.68 95.8744 1429.8 98.3355Z" fill="#5DC68D" stroke="#02221F" stroke-width="4"/>
<path d="M1312.3 68.3984L1309.54 71.503L1313.69 71.7231C1319.61 72.0377 1325.54 71.1578 1331.12 69.1352C1336.7 67.1126 1341.82 63.9882 1346.19 59.9457L1344.83 58.4779L1345.14 56.501C1339.11 55.5777 1332.95 56.1825 1327.22 58.2603C1321.49 60.3381 1316.36 63.8229 1312.3 68.3984Z" fill="#5DC68D" stroke="#02221F" stroke-width="4"/>
<path d="M1735.46 83.0304C1735.06 82.0201 1734.47 81.097 1733.73 80.3141C1732.21 78.7327 1730.14 77.8189 1727.95 77.7796C1725.76 77.7404 1723.65 78.5789 1722.09 80.1054C1720.52 81.6314 1719.62 83.7193 1719.58 85.9088C1719.54 88.0983 1720.37 90.2168 1721.88 91.7977C1722.63 92.5806 1723.52 93.2081 1724.51 93.6433C1725.51 94.0785 1726.57 94.3128 1727.66 94.3322C1728.74 94.3516 1729.81 94.1559 1730.82 93.7565C1731.83 93.3571 1732.74 92.7621 1733.52 92.0064C1734.3 91.2508 1734.92 90.3492 1735.35 89.3536C1735.77 88.358 1736.01 87.2875 1736.02 86.203C1736.04 85.1186 1735.85 84.0406 1735.46 83.0304Z" fill="#FC525A" stroke="#02221F" stroke-width="4"/>
<path d="M1744.89 93.8375C1744.14 93.0765 1743.24 92.4717 1742.26 92.0584C1741.27 91.6441 1740.21 91.4307 1739.13 91.4307C1738.06 91.4307 1737 91.6441 1736.01 92.0584C1735.02 92.4717 1734.13 93.0766 1733.37 93.8376C1732.22 94.9856 1731.44 96.4499 1731.12 98.0441C1730.79 99.6405 1730.95 101.298 1731.56 102.806C1732.18 104.314 1733.22 105.607 1734.57 106.518C1735.92 107.429 1737.51 107.917 1739.13 107.917C1740.76 107.917 1742.35 107.429 1743.69 106.518C1745.04 105.607 1746.09 104.314 1746.7 102.806C1747.32 101.298 1747.47 99.6405 1747.15 98.0441C1746.83 96.4499 1746.04 94.9855 1744.89 93.8375Z" fill="#FC525A" stroke="#02221F" stroke-width="4"/>
<path d="M1737.09 83.8055L1737.09 83.8055L1737.1 83.8195C1737.29 85.969 1738.31 87.9602 1739.95 89.3648C1741.59 90.77 1743.71 91.4755 1745.86 91.3257L1745.72 89.3305L1745.87 91.3246C1747.49 91.2001 1749.03 90.5931 1750.31 89.5831C1751.58 88.5733 1752.53 87.2065 1753.03 85.6578C1753.53 84.1091 1753.56 82.4463 1753.12 80.8795C1752.68 79.3126 1751.79 77.9098 1750.56 76.8507C1749.32 75.7915 1747.8 75.124 1746.19 74.9357C1744.58 74.7473 1742.94 75.0469 1741.5 75.795C1740.06 76.5431 1738.87 77.705 1738.09 79.131C1737.3 80.5567 1736.96 82.1835 1737.09 83.8055Z" fill="#FC525A" stroke="#02221F" stroke-width="4"/>
<path d="M1683.62 100.412L1683.91 103.365L1686.54 101.99C1697.32 96.3521 1704.13 93.5655 1708.2 92.1914C1710.23 91.505 1711.57 91.1756 1712.36 91.0184C1712.76 90.94 1713.02 90.905 1713.16 90.8898C1713.22 90.8832 1713.26 90.8803 1713.28 90.8792H1717.21L1714.86 87.6918C1709.79 80.8281 1706.88 72.5882 1706.51 64.0372L1706.37 60.7534L1703.52 62.39C1699.51 64.6934 1694.96 65.88 1690.35 65.8314C1688.75 65.4706 1686.97 63.9184 1685.44 61.4442C1683.9 58.9688 1682.92 56.0471 1682.72 53.8746L1682.38 49.9482L1679.41 52.5473C1674.82 56.5754 1669.89 57.0848 1665.6 56.2077C1661.21 55.3128 1657.55 52.9734 1655.86 51.4728L1652.83 54.0203C1655.64 58.5547 1658.01 62.692 1658.99 66.901C1659.95 70.9857 1659.61 75.1978 1656.8 79.9547L1654.66 83.5696L1658.81 82.9522C1664.39 82.1234 1670.22 82.394 1674.78 84.8377C1679.2 87.2047 1682.78 91.7924 1683.62 100.412Z" fill="#5DC68D" stroke="#02221F" stroke-width="4"/>
<path d="M1662.77 60.2393C1676.92 70.1332 1691.74 79.0235 1707.11 86.846C1690.7 81.0907 1675.62 72.0395 1662.77 60.2393V60.2393Z" fill="#02221F"/>
<path d="M1700.89 55.4046L1698.78 57.4206L1701.42 58.6619C1712.43 63.8298 1718.82 67.5337 1722.44 69.9162C1724.24 71.1064 1725.34 71.96 1725.97 72.4936C1726.29 72.76 1726.48 72.9447 1726.59 73.0498C1726.64 73.0997 1726.67 73.1313 1726.68 73.1447L1729.1 76.0738L1730.13 72.387C1732.43 64.1446 1737.11 56.7812 1743.57 51.2311L1746.05 49.1004L1743.02 47.863C1738.77 46.1248 1735.05 43.2819 1732.24 39.6226C1731.55 38.12 1731.7 35.7841 1732.7 33.0709C1733.72 30.3537 1735.41 27.7642 1737 26.2046L1739.66 23.5836L1736 22.8209C1730 21.5702 1726.57 17.935 1724.62 13.9693C1722.63 9.9279 1722.22 5.59854 1722.36 3.35514L1718.48 2.56771C1716.76 7.46737 1714.97 11.8825 1712.26 15.2607C1709.62 18.5473 1706.07 20.897 1700.64 21.5746L1696.49 22.0922L1699.5 24.9982C1703.51 28.876 1706.85 33.6601 1707.72 38.7938C1708.56 43.772 1707.14 49.4428 1700.89 55.4046Z" fill="#5DC68D" stroke="#02221F" stroke-width="4"/>
<path d="M1719.65 14.1631C1720.55 31.5026 1722.66 48.7565 1725.97 65.7956C1720.4 49.1978 1718.25 31.6281 1719.65 14.1631V14.1631Z" fill="#02221F"/>
<path d="M1534.46 118.32L1533.65 121.141L1536.57 120.865C1545.1 120.06 1550.23 122.715 1553.4 126.644C1556.66 130.705 1558.07 136.43 1558.39 142.117L1558.63 146.271L1561.73 143.49C1565.82 139.811 1569.91 138.679 1574.09 138.846C1578.39 139.017 1582.85 140.563 1587.65 142.462L1589.61 139.027C1587.86 137.654 1584.93 134.471 1583.24 130.289C1581.58 126.181 1581.14 121.187 1584.12 115.878L1585.94 112.639L1582.24 112.904C1580.05 113.06 1577 112.584 1574.29 111.523C1571.58 110.465 1569.74 109.037 1569.07 107.612C1568.17 103.042 1568.47 98.3122 1569.95 93.8939L1570.98 90.8063L1567.76 91.2826C1559.36 92.5252 1550.78 91.219 1543.12 87.5291L1539.68 85.8711L1540.27 89.6171C1540.27 89.6353 1540.28 89.679 1540.28 89.7507C1540.29 89.9005 1540.3 90.1708 1540.29 90.5855C1540.28 91.4161 1540.19 92.8141 1539.89 94.9678C1539.29 99.2789 1537.85 106.568 1534.46 118.32Z" fill="#5DC68D" stroke="#02221F" stroke-width="4"/>
<path d="M1579.65 134.052C1567.31 121.927 1555.83 108.946 1545.3 95.2031C1554.02 110.369 1565.7 123.587 1579.65 134.052V134.052Z" fill="#02221F"/>
<path d="M1565.32 94.2544C1557.12 94.2643 1548.97 93.0308 1541.13 90.5954C1540.63 90.3735 1540.22 89.973 1539.99 89.4699C1539.77 88.9668 1539.73 88.3962 1539.89 87.8666C1540.05 87.337 1540.4 86.8852 1540.86 86.5971C1541.33 86.309 1541.89 86.2047 1542.43 86.304C1561.36 92.1034 1581.77 90.4904 1599.58 81.7867C1617.3 72.9786 1631.1 57.7745 1638.23 39.1888C1638.31 38.8805 1638.45 38.5921 1638.64 38.3425C1638.84 38.0929 1639.08 37.8877 1639.36 37.7404C1639.64 37.5931 1639.95 37.5069 1640.26 37.4876C1640.58 37.4682 1640.89 37.5161 1641.19 37.6281C1641.48 37.7402 1641.75 37.9137 1641.98 38.1376C1642.2 38.3614 1642.37 38.6304 1642.49 38.927C1642.6 39.2235 1642.65 39.541 1642.64 39.8586C1642.62 40.1761 1642.54 40.4867 1642.39 40.7698C1634.91 60.4984 1620.3 76.6381 1601.5 85.9426C1590.22 91.4465 1577.85 94.2889 1565.32 94.2544V94.2544Z" fill="#02221F"/>
<path d="M1548.66 91.2737C1546.21 91.2838 1543.77 91.0873 1541.36 90.6864C1540.76 90.5846 1540.23 90.2489 1539.88 89.7534C1539.54 89.2578 1539.4 88.6428 1539.5 88.0438C1539.6 87.4448 1539.93 86.9107 1540.42 86.5592C1540.91 86.2076 1541.52 86.0673 1542.12 86.1691C1555.55 88.5633 1571.23 82.8263 1580.54 77.1346C1591.37 70.5666 1599.52 60.3141 1603.52 48.224C1603.71 47.6622 1604.12 47.1979 1604.64 46.9285C1605.17 46.659 1605.78 46.6053 1606.34 46.7785C1606.9 46.9645 1607.37 47.3687 1607.64 47.9023C1607.91 48.4359 1607.96 49.0553 1607.77 49.6243C1603.49 62.8142 1594.67 74.0273 1582.92 81.2453C1572.52 87.4624 1560.73 90.9132 1548.66 91.2737V91.2737Z" fill="#02221F"/>
<path d="M1584.22 98.9523C1569.37 99.0288 1554.65 96.1586 1540.91 90.505C1540.36 90.2752 1539.93 89.8377 1539.7 89.2878C1539.48 88.738 1539.48 88.1201 1539.7 87.5688C1539.94 87.0272 1540.37 86.5983 1540.91 86.3712C1541.45 86.1441 1542.06 86.1362 1542.61 86.3491C1570.38 97.4602 1601.37 97.1358 1628.91 85.4457C1629.47 85.2307 1630.08 85.2373 1630.63 85.464C1631.18 85.6906 1631.62 86.1204 1631.87 86.6653C1632.08 87.2177 1632.07 87.8309 1631.85 88.3776C1631.62 88.9243 1631.2 89.3626 1630.66 89.6015C1615.95 95.7975 1600.16 98.9763 1584.22 98.9523V98.9523Z" fill="#02221F"/>
<path d="M1631.75 95.7068C1633.34 96.0284 1634.99 95.8667 1636.49 95.243C1638.5 94.4078 1640.09 92.8063 1640.92 90.7955C1641.75 88.7852 1641.75 86.5256 1640.93 84.5111C1640.32 83.0062 1639.28 81.7157 1637.93 80.8049C1636.59 79.894 1635.01 79.4045 1633.38 79.4004C1631.76 79.3963 1630.18 79.8778 1628.83 80.782C1627.48 81.686 1626.43 82.9712 1625.81 84.473C1625.19 85.9745 1625.02 87.627 1625.34 89.2222C1625.65 90.8173 1626.42 92.2857 1627.56 93.4406C1628.7 94.5957 1630.16 95.3853 1631.75 95.7068Z" fill="#FC525A" stroke="#02221F" stroke-width="4"/>
<path d="M1637.44 47.0252C1639.22 47.9437 1641.27 48.1755 1643.21 47.6755C1644.33 47.3851 1645.38 46.8572 1646.29 46.1278C1647.19 45.3984 1647.93 44.4842 1648.46 43.4466C1648.99 42.4091 1649.29 41.2713 1649.35 40.1085C1649.4 38.9457 1649.22 37.7836 1648.79 36.699C1648.37 35.6143 1647.73 34.631 1646.9 33.815C1646.07 32.9989 1645.08 32.3686 1643.99 31.9671C1642.9 31.5655 1641.73 31.4021 1640.57 31.4881C1639.42 31.5741 1638.29 31.9074 1637.27 32.4653C1635.51 33.4255 1634.17 34.9973 1633.49 36.8811C1632.81 38.7644 1632.83 40.8335 1633.56 42.7003C1634.28 44.5675 1635.66 46.107 1637.44 47.0252Z" fill="#FC525A" stroke="#02221F" stroke-width="4"/>
<path d="M1599.89 51.9304L1599.91 51.9692L1599.92 52.0073C1600.75 54.021 1602.33 55.6278 1604.33 56.4697C1606.34 57.3118 1608.59 57.3175 1610.6 56.4855L1609.83 54.6378L1610.6 56.4842C1612.61 55.6491 1614.2 54.0476 1615.03 52.0368C1615.86 50.0264 1615.87 47.7669 1615.05 45.7523L1615.03 45.7141L1615.01 45.6766C1614.13 43.7477 1612.54 42.2319 1610.58 41.4516C1608.61 40.6711 1606.41 40.689 1604.46 41.5014C1602.5 42.3136 1600.94 43.855 1600.09 45.7977C1599.24 47.74 1599.17 49.9369 1599.89 51.9304Z" fill="#FC525A" stroke="#02221F" stroke-width="4"/>
<path d="M1659.28 118.748L1665.33 118.483L1660.31 115.092C1649.43 107.746 1639.53 102.069 1625.77 103.696L1621.09 104.249L1624.73 107.23C1634.46 115.197 1646.75 119.296 1659.28 118.748Z" fill="#5DC68D" stroke="#02221F" stroke-width="4"/>
<path d="M1647.41 98.3355L1641.91 99.8603L1647.16 102.102C1655.49 105.657 1664.69 106.549 1673.54 104.658L1673.12 102.702L1674.01 100.913C1665.76 96.7922 1656.29 95.8744 1647.41 98.3355Z" fill="#5DC68D" stroke="#02221F" stroke-width="4"/>
<path d="M1529.96 68.3984L1527.21 71.5048L1531.35 71.7232C1537.28 72.0351 1543.2 71.1539 1548.78 69.1316C1554.36 67.1093 1559.48 63.9864 1563.85 59.9463L1562.49 58.4779L1562.8 56.501C1556.77 55.5777 1550.62 56.1825 1544.88 58.2603C1539.15 60.3381 1534.02 63.8229 1529.96 68.3984Z" fill="#5DC68D" stroke="#02221F" stroke-width="4"/>
<path d="M1953.71 84.4923C1953.38 82.8958 1952.6 81.4295 1951.44 80.2807C1949.91 78.7557 1947.85 77.8975 1945.69 77.8975C1943.53 77.8975 1941.46 78.7557 1939.93 80.2807C1938.78 81.4295 1937.99 82.8958 1937.67 84.4923C1937.35 86.0888 1937.5 87.746 1938.12 89.2541C1938.73 90.7624 1939.78 92.0552 1941.13 92.9663C1942.47 93.8775 1944.06 94.3652 1945.69 94.3652C1947.31 94.3652 1948.9 93.8775 1950.25 92.9663C1951.6 92.0551 1952.64 90.7623 1953.26 89.2541C1953.87 87.746 1954.03 86.0888 1953.71 84.4923Z" fill="#FC525A" stroke="#02221F" stroke-width="4"/>
<path d="M1964.71 98.0935C1964.43 96.5138 1963.7 95.0495 1962.6 93.8822C1961.84 93.0661 1960.92 92.4145 1959.9 91.9683C1958.88 91.5211 1957.78 91.29 1956.66 91.29C1955.55 91.29 1954.44 91.5211 1953.42 91.9683C1952.4 92.4145 1951.48 93.0662 1950.72 93.8822C1949.62 95.0495 1948.89 96.5138 1948.61 98.0935C1948.33 99.6756 1948.51 101.307 1949.14 102.785C1949.77 104.264 1950.82 105.526 1952.15 106.415C1953.49 107.304 1955.06 107.778 1956.66 107.778C1958.27 107.778 1959.83 107.304 1961.17 106.415C1962.51 105.526 1963.55 104.264 1964.18 102.785C1964.81 101.307 1964.99 99.6756 1964.71 98.0935Z" fill="#FC525A" stroke="#02221F" stroke-width="4"/>
<path d="M1963.43 91.3257L1963.44 91.3252L1963.44 91.3246C1965.06 91.2001 1966.61 90.5931 1967.88 89.5831C1969.16 88.5733 1970.1 87.2065 1970.6 85.6578C1971.1 84.1093 1971.13 82.4464 1970.69 80.8795C1970.25 79.3124 1969.36 77.9098 1968.13 76.8507C1966.9 75.7915 1965.38 75.124 1963.76 74.9357C1962.15 74.7473 1960.52 75.0469 1959.07 75.795C1957.63 76.5431 1956.44 77.705 1955.66 79.131C1954.88 80.5568 1954.53 82.1837 1954.67 83.8055L1954.67 83.8055L1954.67 83.8195C1954.86 85.969 1955.89 87.9602 1957.52 89.3648C1959.16 90.7699 1961.28 91.4755 1963.43 91.3257Z" fill="#FC525A" stroke="#02221F" stroke-width="4"/>
<path d="M1901.24 100.412L1901.53 103.368L1904.16 101.989C1914.91 96.3518 1921.72 93.5655 1925.8 92.1917C1927.83 91.5054 1929.17 91.176 1929.97 91.0187C1930.37 90.9402 1930.63 90.9052 1930.78 90.8899C1930.84 90.8832 1930.88 90.8803 1930.9 90.8792H1934.8L1932.48 87.6997C1927.45 80.8109 1924.54 72.5767 1924.13 64.0276L1923.97 60.7591L1921.13 62.3909C1917.12 64.6977 1912.58 65.8843 1907.97 65.8316C1906.37 65.4711 1904.59 63.9188 1903.05 61.4442C1901.52 58.9688 1900.53 56.0471 1900.34 53.8746L1899.99 49.9377L1897.03 52.5502C1892.46 56.5745 1887.54 57.0851 1883.24 56.2077C1878.85 55.3124 1875.19 52.9728 1873.53 51.4806L1870.49 54.0141C1873.28 58.5503 1875.64 62.6888 1876.62 66.9011C1877.58 70.9898 1877.25 75.2039 1874.46 79.9602L1872.33 83.5671L1876.47 82.9522C1882.05 82.1233 1887.87 82.3943 1892.42 84.8369C1896.83 87.2027 1900.4 91.7897 1901.24 100.412Z" fill="#5DC68D" stroke="#02221F" stroke-width="4"/>
<path d="M1880.43 60.2393C1894.57 70.1523 1909.39 79.0434 1924.77 86.846C1908.35 81.1113 1893.27 72.0578 1880.43 60.2393V60.2393Z" fill="#02221F"/>
<path d="M1918.51 55.4046L1916.4 57.4206L1919.04 58.6619C1930.05 63.8298 1936.44 67.5337 1940.05 69.9162C1941.86 71.1064 1942.96 71.9599 1943.59 72.4936C1943.91 72.76 1944.1 72.9447 1944.21 73.0497C1944.26 73.0997 1944.29 73.1313 1944.3 73.1447L1946.72 76.0774L1947.75 72.3851C1950.05 64.1324 1954.74 56.7662 1961.23 51.2362L1963.73 49.1029L1960.69 47.8621C1956.42 46.1246 1952.69 43.2819 1949.86 39.6207C1949.17 38.1221 1949.32 35.7903 1950.34 33.074C1951.36 30.3547 1953.05 27.7599 1954.62 26.1959L1957.25 23.578L1953.62 22.8209C1947.62 21.5701 1944.19 17.935 1942.24 13.9712C1940.26 9.93034 1939.87 5.60536 1940.02 3.37273L1936.15 2.56006C1934.4 7.46262 1932.6 11.8799 1929.89 15.2607C1927.25 18.5496 1923.71 20.8976 1918.3 21.5747L1914.16 22.0921L1917.15 24.9944C1921.15 28.8728 1924.48 33.657 1925.34 38.792C1926.18 43.7715 1924.76 49.443 1918.51 55.4046Z" fill="#5DC68D" stroke="#02221F" stroke-width="4"/>
<path d="M1937.27 14.1631C1938.19 31.5006 1940.3 48.753 1943.58 65.7956C1938.04 49.1927 1935.89 31.6276 1937.27 14.1631V14.1631Z" fill="#02221F"/>
<path d="M1752.08 118.317L1751.26 121.142L1754.19 120.865C1762.72 120.06 1767.86 122.715 1771.04 126.646C1774.32 130.708 1775.73 136.433 1776.06 142.117L1776.29 146.284L1779.39 143.487C1783.46 139.811 1787.54 138.679 1791.72 138.846C1796.02 139.017 1800.49 140.563 1805.31 142.463L1807.28 139.027C1805.52 137.652 1802.57 134.467 1800.88 130.285C1799.21 126.177 1798.76 121.184 1801.74 115.878L1803.56 112.637L1799.85 112.904C1797.69 113.06 1794.65 112.584 1791.94 111.523C1789.24 110.464 1787.39 109.032 1786.73 107.605C1785.79 103.046 1786.09 98.3131 1787.6 93.9113L1788.67 90.7948L1785.41 91.2832C1777.02 92.5413 1768.44 91.2347 1760.79 87.5307L1757.34 85.8626L1757.93 89.6169C1757.94 89.6351 1757.94 89.6785 1757.94 89.7499C1757.95 89.8994 1757.96 90.1695 1757.95 90.5839C1757.94 91.4142 1757.85 92.8118 1757.55 94.9654C1756.94 99.276 1755.49 106.565 1752.08 118.317Z" fill="#5DC68D" stroke="#02221F" stroke-width="4"/>
<path d="M1797.27 134.052C1784.94 121.926 1773.48 108.945 1762.96 95.2031C1771.66 110.367 1783.33 123.585 1797.27 134.052V134.052Z" fill="#02221F"/>
<path d="M1782.93 94.255C1774.74 94.2615 1766.58 93.0281 1758.75 90.596C1758.19 90.4189 1757.72 90.0256 1757.44 89.5015C1757.16 88.9773 1757.1 88.3644 1757.27 87.7953C1757.35 87.5078 1757.48 87.2391 1757.67 87.0061C1757.85 86.773 1758.08 86.5806 1758.34 86.4407C1758.6 86.3009 1758.89 86.2166 1759.18 86.1932C1759.47 86.1698 1759.77 86.2077 1760.05 86.3046C1779 92.1023 1799.42 90.4895 1817.24 81.7873C1834.98 73.0009 1848.78 57.7893 1855.89 39.1894C1856 38.9094 1856.15 38.653 1856.36 38.4352C1856.56 38.2174 1856.8 38.0425 1857.08 37.9206C1857.35 37.7987 1857.64 37.7323 1857.93 37.7252C1858.23 37.7182 1858.53 37.7706 1858.8 37.8794C1859.08 37.9797 1859.33 38.1348 1859.55 38.3356C1859.76 38.5363 1859.94 38.7787 1860.06 39.0482C1860.18 39.3177 1860.24 39.609 1860.25 39.9048C1860.26 40.2006 1860.21 40.495 1860.1 40.7704C1852.56 60.4782 1837.95 76.6042 1819.17 85.9432C1807.87 91.4538 1795.48 94.2964 1782.93 94.255V94.255Z" fill="#02221F"/>
<path d="M1766.36 91.2737C1763.95 91.2764 1761.54 91.08 1759.15 90.6865C1758.57 90.5762 1758.05 90.241 1757.71 89.7519C1757.37 89.2628 1757.22 88.6583 1757.32 88.0665C1757.37 87.7722 1757.47 87.4906 1757.63 87.238C1757.79 86.9853 1757.99 86.7665 1758.23 86.5943C1758.47 86.4221 1758.75 86.2999 1759.04 86.2347C1759.32 86.1695 1759.62 86.1626 1759.91 86.2144C1773.35 88.6085 1789.03 82.8716 1798.39 77.1798C1809.14 70.5662 1817.21 60.2992 1821.14 48.2241C1821.32 47.625 1821.73 47.1243 1822.28 46.8321C1822.83 46.5398 1823.48 46.4799 1824.07 46.6656C1824.66 46.8513 1825.16 47.2674 1825.45 47.8223C1825.74 48.3771 1825.8 49.0254 1825.62 49.6244C1821.31 62.8195 1812.48 74.0325 1800.71 81.2454C1790.3 87.479 1778.47 90.9305 1766.36 91.2737V91.2737Z" fill="#02221F"/>
<path d="M1801.88 98.9523C1787.03 99.0324 1772.32 96.162 1758.57 90.505C1758.3 90.3955 1758.05 90.2326 1757.84 90.0257C1757.62 89.8188 1757.46 89.5719 1757.34 89.2992C1757.22 89.0265 1757.16 88.7332 1757.16 88.4363C1757.15 88.1394 1757.21 87.8446 1757.32 87.5688C1757.56 87.0238 1758 86.5941 1758.55 86.3674C1759.1 86.1407 1759.72 86.1342 1760.27 86.3491C1788.03 97.4624 1819.01 97.138 1846.53 85.4457C1847.08 85.2307 1847.7 85.2373 1848.25 85.464C1848.8 85.6906 1849.24 86.1204 1849.49 86.6653C1849.6 86.9376 1849.66 87.2307 1849.67 87.5273C1849.67 87.8239 1849.61 88.1178 1849.5 88.3917C1849.39 88.6656 1849.22 88.9138 1849.01 89.1217C1848.8 89.3295 1848.55 89.4927 1848.28 89.6015C1833.58 95.7975 1817.81 98.9763 1801.88 98.9523Z" fill="#02221F"/>
<path d="M1849.24 95.7068C1850.82 96.0279 1852.47 95.8672 1853.97 95.2458C1854.96 94.8382 1855.87 94.2357 1856.63 93.4739C1857.4 92.7105 1858 91.8024 1858.42 90.8028C1858.83 89.8031 1859.04 88.7313 1859.04 87.6495C1859.04 86.57 1858.83 85.5011 1858.41 84.5044C1857.8 83.0024 1856.76 81.7144 1855.42 80.8049C1854.07 79.894 1852.49 79.4045 1850.87 79.4004C1849.24 79.3963 1847.66 79.8778 1846.31 80.782C1844.96 81.686 1843.91 82.9712 1843.29 84.473C1842.67 85.9745 1842.51 87.627 1842.82 89.2222C1843.13 90.8173 1843.9 92.2857 1845.05 93.4406C1846.19 94.5957 1847.64 95.3853 1849.24 95.7068Z" fill="#FC525A" stroke="#02221F" stroke-width="4"/>
<path d="M1856.41 48.0752C1858.01 48.387 1859.66 48.2144 1861.15 47.5801C1863.15 46.7336 1864.72 45.1275 1865.54 43.1178C1866.36 41.1087 1866.36 38.8553 1865.53 36.8483C1864.92 35.3439 1863.87 34.0554 1862.52 33.1483C1861.17 32.241 1859.59 31.7567 1857.96 31.7588C1856.34 31.7609 1854.75 32.2492 1853.41 33.1598C1852.06 34.0704 1851.02 35.3614 1850.41 36.8674C1849.79 38.3732 1849.63 40.028 1849.96 41.6227C1850.28 43.2175 1851.06 44.6829 1852.21 45.8323C1853.36 46.9818 1854.82 47.7634 1856.41 48.0752Z" fill="#FC525A" stroke="#02221F" stroke-width="4"/>
<path d="M1823.51 56.9199C1825.08 57.2474 1826.72 57.0977 1828.21 56.4903C1829.21 56.0826 1830.12 55.4791 1830.88 54.7156C1831.65 53.9522 1832.25 53.0441 1832.66 52.0445C1833.08 51.0448 1833.29 49.973 1833.29 48.8912C1833.29 47.8093 1833.07 46.738 1832.66 45.7393C1832.04 44.2519 1831 42.9793 1829.66 42.0838C1828.32 41.188 1826.75 40.7101 1825.14 40.7119C1823.53 40.7138 1821.96 41.1954 1820.63 42.0942C1819.29 42.9929 1818.26 44.2678 1817.64 45.7567C1817.03 47.2454 1816.86 48.8833 1817.17 50.4651C1817.47 52.047 1818.24 53.5046 1819.36 54.6538C1820.49 55.8031 1821.93 56.5925 1823.51 56.9199Z" fill="#FC525A" stroke="#02221F" stroke-width="4"/>
<path d="M1876.9 118.748L1882.93 118.474L1877.93 115.092C1867.05 107.747 1857.15 102.068 1843.43 103.697L1838.77 104.249L1842.39 107.227C1852.1 115.212 1864.38 119.315 1876.9 118.748Z" fill="#5DC68D" stroke="#02221F" stroke-width="4"/>
<path d="M1865.08 98.3355L1859.57 99.8603L1864.82 102.102C1873.15 105.657 1882.35 106.549 1891.2 104.658L1890.78 102.702L1891.67 100.913C1883.42 96.7922 1873.96 95.8744 1865.08 98.3355Z" fill="#5DC68D" stroke="#02221F" stroke-width="4"/>
<path d="M1747.58 68.3984L1744.82 71.503L1748.97 71.7231C1754.89 72.0377 1760.82 71.1578 1766.4 69.1352C1771.98 67.1126 1777.1 63.9882 1781.47 59.9457L1780.11 58.4779L1780.42 56.501C1774.39 55.5777 1768.23 56.1825 1762.5 58.2603C1756.77 60.3381 1751.64 63.8229 1747.58 68.3984Z" fill="#5DC68D" stroke="#02221F" stroke-width="4"/>
</g>
<defs>
<clipPath id="clip0_206_466">
<rect width="1973" height="142" fill="white"/>
</clipPath>
</defs>
</svg>
