<svg width="1408" height="102" viewBox="0 0 1408 102" fill="none" xmlns="http://www.w3.org/2000/svg">
<g clip-path="url(#clip0_206_965)">
<path d="M146.984 60.5812C146.732 59.3272 146.117 58.1741 145.213 57.2696C144.013 56.0686 142.388 55.3906 140.69 55.3906C138.992 55.3906 137.367 56.0686 136.167 57.2696C135.263 58.1741 134.648 59.3272 134.395 60.5812C134.143 61.835 134.265 63.1366 134.746 64.3216C135.227 65.5069 136.046 66.5247 137.104 67.2428C138.163 67.9612 139.411 68.3463 140.69 68.3463C141.969 68.3463 143.217 67.9612 144.276 67.2428C145.334 66.5247 146.153 65.5069 146.634 64.3216C147.115 63.1366 147.237 61.835 146.984 60.5812Z" fill="#FC525A" stroke="#02221F" stroke-width="4"/>
<path d="M154.864 70.3637C154.644 69.1236 154.07 67.9727 153.21 67.054C152.614 66.4118 151.894 65.8982 151.092 65.5463C150.288 65.1933 149.42 65.0107 148.542 65.0107C147.664 65.0107 146.795 65.1933 145.991 65.5463C145.19 65.8982 144.469 66.4118 143.874 67.054C143.013 67.9727 142.439 69.1237 142.219 70.3637C141.999 71.6062 142.144 72.8872 142.636 74.0491C143.128 75.2111 143.948 76.2053 144.998 76.9057C146.047 77.6063 147.28 77.9812 148.542 77.9812C149.804 77.9812 151.036 77.6063 152.086 76.9057C153.135 76.2053 153.955 75.2111 154.448 74.0491C154.94 72.8873 155.084 71.6063 154.864 70.3637Z" fill="#FC525A" stroke="#02221F" stroke-width="4"/>
<path d="M146.549 60.2449L146.549 60.2449L146.55 60.2589C146.702 61.9458 147.501 63.5111 148.784 64.6169C150.068 65.7235 151.734 66.2807 153.424 66.1625L153.285 64.1673L153.439 66.1614C154.713 66.0631 155.927 65.5838 156.927 64.7879C157.927 63.9923 158.667 62.9167 159.058 61.7C159.449 60.4835 159.475 59.1775 159.131 57.9468C158.787 56.7158 158.089 55.6122 157.121 54.778C156.153 53.9435 154.959 53.4166 153.69 53.2679C152.421 53.1191 151.137 53.3558 150.003 53.9459C148.87 54.5359 147.939 55.4513 147.326 56.5725C146.712 57.6935 146.443 58.9714 146.549 60.2449Z" fill="#FC525A" stroke="#02221F" stroke-width="4"/>
<path d="M108.319 72.1899L108.619 75.1297L111.237 73.7581C118.949 69.7172 123.794 67.7289 126.667 66.7541C128.101 66.2674 129.03 66.038 129.569 65.9309C129.837 65.8775 130.005 65.8552 130.087 65.8463C130.105 65.8442 130.119 65.8429 130.129 65.8421H134.054L131.689 62.6512C128.1 57.8098 126.005 51.9989 125.669 45.9498L125.489 42.6969L122.67 44.33C119.911 45.9285 116.784 46.7537 113.61 46.7244C112.703 46.4922 111.561 45.5464 110.508 43.8413C109.448 42.1261 108.776 40.1103 108.647 38.649L108.299 34.701L105.33 37.3264C102.22 40.0763 98.8913 40.4235 95.956 39.8222C92.9319 39.2026 90.4027 37.5768 89.2804 36.5623L86.2336 39.0903C88.232 42.3538 89.8719 45.2553 90.5543 48.1818C91.2081 50.9856 90.9913 53.8655 89.0657 57.1528L86.9672 60.7354L91.0767 60.1432C95.172 59.5531 99.2102 59.7646 102.305 61.433C105.256 63.0239 107.7 66.1315 108.319 72.1899Z" fill="#5DC68D" stroke="#02221F" stroke-width="4"/>
<path d="M93.9963 43.2705C104.113 50.3911 114.716 56.7777 125.724 62.3824C113.974 58.2631 103.178 51.7599 93.9963 43.2705Z" fill="#02221F"/>
<path d="M120.847 39.3929L118.746 41.4056L121.378 42.6462C129.236 46.3507 133.785 48.9981 136.341 50.69C137.618 51.535 138.388 52.1346 138.819 52.5007C139.034 52.6833 139.162 52.8058 139.226 52.8695C139.245 52.8884 139.258 52.902 139.266 52.9103L141.686 55.8504L142.713 52.1442C144.327 46.3226 147.627 41.1282 152.182 37.2298L154.671 35.0996L151.638 33.8592C148.705 32.6592 146.131 30.7012 144.174 28.1788C143.809 27.2937 143.873 25.8151 144.564 23.9494C145.264 22.0627 146.43 20.2716 147.488 19.2133L150.103 16.5988L146.484 15.8414C142.396 14.9861 140.069 12.5149 138.737 9.79031C137.368 6.98935 137.098 3.98335 137.205 2.46203L133.325 1.65218C132.075 5.17435 130.812 8.26543 128.937 10.6123C127.134 12.8672 124.734 14.472 121.02 14.9385L116.897 15.4563L119.873 18.3555C122.691 21.1006 124.98 24.4345 125.57 27.9569C126.134 31.3254 125.203 35.22 120.847 39.3929Z" fill="#5DC68D" stroke="#02221F" stroke-width="4"/>
<path d="M134.601 10.1738C135.257 22.6276 136.767 35.0201 139.12 47.262C135.151 35.336 133.614 22.7187 134.601 10.1738V10.1738Z" fill="#02221F"/>
<path d="M1.60374 84.8329L0.787931 87.6564L3.71383 87.3791C9.64979 86.8166 13.1365 88.6666 15.2803 91.3243C17.5303 94.1136 18.5424 98.0932 18.8031 102.13L19.0702 106.267L22.1419 103.483C24.9405 100.947 27.7077 100.183 30.5536 100.297C33.5225 100.415 36.6423 101.49 40.0931 102.855L42.0637 99.4223C40.8723 98.4871 38.8326 96.276 37.6595 93.3749C36.5163 90.5479 36.2142 87.1434 38.2477 83.5092L40.0602 80.2701L36.3581 80.5378C34.9073 80.6427 32.8195 80.3203 30.9492 79.5844C29.0935 78.8544 27.9548 77.922 27.5517 77.112C26.9105 73.9875 27.1035 70.7451 28.1123 67.72L29.139 64.6411L25.9272 65.1081C20.0251 65.9663 14.0036 65.0141 8.63892 62.3727L5.17655 60.6679L5.77415 64.4424C5.77515 64.454 5.77666 64.4733 5.77828 64.5007C5.78367 64.592 5.79021 64.7711 5.78442 65.0556C5.7728 65.6259 5.71187 66.6075 5.49827 68.137C5.07058 71.1994 4.03801 76.4079 1.60374 84.8329Z" fill="#5DC68D" stroke="#02221F" stroke-width="4"/>
<path d="M34.4835 96.2901C25.6667 87.5804 17.4637 78.2558 9.93481 68.3848C16.162 79.2773 24.5145 88.772 34.4835 96.2901V96.2901Z" fill="#02221F"/>
<path d="M24.2282 67.704C18.3625 67.7062 12.5294 66.8203 6.92239 65.0757C6.52032 64.9485 6.18391 64.666 5.98598 64.2895C5.78805 63.913 5.74452 63.4727 5.86481 63.0639C5.92298 62.8562 6.02233 62.6626 6.1568 62.495C6.29128 62.3274 6.45806 62.1893 6.64698 62.0891C6.8359 61.9889 7.043 61.9287 7.25565 61.9122C7.4683 61.8957 7.68203 61.9233 7.88383 61.9931C21.433 66.1557 36.0336 64.9971 48.7769 58.7483C61.4711 52.437 71.3474 41.5103 76.4341 28.1498C76.5087 27.9487 76.622 27.7645 76.7675 27.6081C76.9129 27.4516 77.0876 27.326 77.2814 27.2384C77.4752 27.1509 77.6842 27.1032 77.8964 27.0981C78.1085 27.093 78.3196 27.1307 78.5172 27.2088C78.7147 27.2809 78.896 27.3923 79.0502 27.5365C79.2044 27.6807 79.3286 27.8548 79.4152 28.0484C79.5018 28.242 79.5493 28.4512 79.5547 28.6637C79.5601 28.8762 79.5233 29.0876 79.4466 29.2855C74.0696 43.4521 63.6081 55.0408 50.1549 61.7336C42.0728 65.6919 33.2062 67.7337 24.2282 67.704V67.704Z" fill="#02221F"/>
<path d="M12.3705 65.5625C10.61 65.5698 8.85198 65.4287 7.11462 65.1407C6.69888 65.0618 6.3308 64.8197 6.09066 64.4671C5.85052 64.1146 5.7578 63.6802 5.83271 63.2587C5.86342 63.0454 5.93666 62.8406 6.04796 62.6568C6.15926 62.4731 6.30632 62.3141 6.48017 62.1897C6.65403 62.0653 6.85107 61.9779 7.0593 61.933C7.26754 61.8881 7.48262 61.8865 7.69149 61.9283C17.3058 63.6805 28.4905 59.5596 35.1885 55.4387C42.9238 50.6983 48.7404 43.3254 51.597 34.6395C51.729 34.2309 52.0158 33.8921 52.3943 33.6974C52.7729 33.5027 53.2123 33.4681 53.616 33.6012C54.0146 33.7419 54.344 34.0333 54.5351 34.4143C54.7263 34.7954 54.7644 35.2365 54.6416 35.6454C51.5632 45.1235 45.2446 53.1779 36.823 58.359C29.4051 62.8156 20.9919 65.2941 12.3705 65.5625V65.5625Z" fill="#02221F"/>
<path d="M37.7844 71.0783C27.161 71.1358 16.6305 69.074 6.79419 65.0105C6.59847 64.9323 6.42028 64.8151 6.27018 64.6658C6.12008 64.5165 6.00114 64.3382 5.92043 64.1415C5.83972 63.9447 5.79888 63.7336 5.80033 63.5206C5.80179 63.3075 5.84551 63.097 5.9289 62.9014C6.09196 62.5068 6.4023 62.1934 6.79241 62.0294C7.18252 61.8653 7.62084 61.8638 8.01201 62.0253C27.8869 70.0065 50.0612 69.7735 69.7682 61.3763C70.1601 61.2234 70.5951 61.2291 70.9829 61.3922C71.3708 61.5553 71.6817 61.8634 71.8513 62.2524C71.9347 62.448 71.9784 62.6586 71.9798 62.8716C71.9813 63.0846 71.9405 63.2958 71.8597 63.4925C71.779 63.6893 71.6601 63.8676 71.51 64.0168C71.3599 64.1661 71.1817 64.2834 70.986 64.3616C60.4696 68.8121 49.1825 71.0955 37.7844 71.0783V71.0783Z" fill="#02221F"/>
<path d="M71.6532 69.2991C72.9016 69.5524 74.1959 69.4257 75.3717 68.9359C76.1554 68.6141 76.8669 68.139 77.4655 67.5393C78.0659 66.9379 78.541 66.2231 78.8644 65.4371C79.1879 64.6512 79.3536 63.8088 79.3527 62.9588C79.3517 62.1112 79.185 61.2717 78.8616 60.4884C78.3814 59.3086 77.5653 58.2952 76.5124 57.5786C75.4572 56.8606 74.2126 56.474 72.9363 56.4707C71.66 56.4675 70.4135 56.8478 69.3547 57.5605C68.2962 58.2731 67.474 59.2849 66.9883 60.4652C66.5026 61.6452 66.3741 62.9431 66.6177 64.1957C66.8614 65.4485 67.4672 66.6032 68.3623 67.5125C69.2577 68.4221 70.4025 69.0453 71.6532 69.2991Z" fill="#FC525A" stroke="#02221F" stroke-width="4"/>
<path d="M76.6966 35.0852C77.9501 35.3314 79.2472 35.1951 80.4225 34.6946C81.9908 34.0267 83.2266 32.7611 83.8678 31.1819C84.5087 29.6034 84.5065 27.8336 83.8617 26.2568C83.3782 25.0745 82.5572 24.0601 81.499 23.3451C80.4406 22.6299 79.1936 22.2474 77.9162 22.249C76.6388 22.2507 75.3928 22.6363 74.3361 23.3542C73.2798 24.0719 72.4614 25.0883 71.9808 26.2718C71.5004 27.4551 71.3781 28.7548 71.6284 30.0072C71.8788 31.2597 72.4914 32.4121 73.3925 33.3171C74.2938 34.2223 75.4433 34.8391 76.6966 35.0852Z" fill="#FC525A" stroke="#02221F" stroke-width="4"/>
<path d="M53.1433 41.4377C54.3826 41.6964 55.6695 41.578 56.8412 41.0985C57.6276 40.7767 58.3414 40.3006 58.9418 39.6991C59.5422 39.0977 60.0173 38.3829 60.3407 37.5969C60.6642 36.811 60.8299 35.9687 60.829 35.1187C60.828 34.2687 60.6603 33.4267 60.3351 32.6415C59.8507 31.472 59.0339 30.4696 57.9836 29.7634C56.933 29.0569 55.697 28.6792 54.431 28.6807C53.1651 28.6821 51.9299 29.0627 50.881 29.7716C49.8323 30.4803 49.0178 31.4845 48.5361 32.6552C48.0544 33.8256 47.9257 35.1126 48.1652 36.3554C48.4046 37.5984 49.0023 38.7452 49.8869 39.6504C50.7716 40.5558 51.9041 41.179 53.1433 41.4377Z" fill="#FC525A" stroke="#02221F" stroke-width="4"/>
<path d="M91.4864 85.8611L97.5102 85.602L92.5257 82.2096C84.7567 76.922 77.4571 72.7309 67.4477 73.9273L62.7958 74.4834L66.4151 77.4583C73.4754 83.2616 82.3928 86.2524 91.4864 85.8611Z" fill="#5DC68D" stroke="#02221F" stroke-width="4"/>
<path d="M101.822 75.7262L107.36 74.529L102.298 71.9843C96.2469 68.9433 89.2982 68.2692 82.7851 70.0932L77.3302 71.6209L82.5351 73.8568C88.6206 76.4709 95.3554 77.1241 101.822 75.7262Z" fill="#5DC68D" stroke="#02221F" stroke-width="4"/>
<path d="M23.5705 43.47L26.5984 40.6566L22.5133 40.0281C18.1072 39.3501 13.604 39.7942 9.41104 41.3196C5.21817 42.845 1.46927 45.4028 -1.49841 48.7597L-4.24028 51.8611L-0.106473 52.0815C4.20906 52.3116 8.52617 51.668 12.592 50.1888C16.6578 48.7097 20.3899 46.4251 23.5705 43.47Z" fill="#5DC68D" stroke="#02221F" stroke-width="4"/>
<path d="M302.355 59.4393C302.046 58.6458 301.586 57.9199 300.999 57.3038C299.812 56.0591 298.181 55.3377 296.462 55.3067C294.742 55.2757 293.086 55.9379 291.856 57.1396C290.627 58.3405 289.924 59.9813 289.894 61.6994C289.863 63.4176 290.508 65.0822 291.694 66.326C292.281 66.9422 292.984 67.4366 293.762 67.7797C294.541 68.1229 295.38 68.3078 296.231 68.3231C297.082 68.3385 297.927 68.184 298.717 67.869C299.508 67.554 300.228 67.0851 300.837 66.4903C301.445 65.8955 301.931 65.1864 302.267 64.4043C302.603 63.6223 302.784 62.7817 302.799 61.9304C302.814 61.0791 302.663 60.2327 302.355 59.4393Z" fill="#FC525A" stroke="#02221F" stroke-width="4"/>
<path d="M310.584 70.3643C310.365 69.1268 309.793 67.9781 308.935 67.0603C308.343 66.4131 307.624 65.8948 306.823 65.5391C306.016 65.1813 305.144 64.9961 304.262 64.9961C303.38 64.9961 302.508 65.1813 301.701 65.5391C300.9 65.8948 300.181 66.4132 299.589 67.0603C298.731 67.9781 298.159 69.1268 297.94 70.3643C297.719 71.6068 297.864 72.8878 298.356 74.0496C298.848 75.2117 299.668 76.2059 300.718 76.9063C301.768 77.6069 303 77.9818 304.262 77.9818C305.524 77.9818 306.756 77.6069 307.806 76.9063C308.856 76.2058 309.675 75.2117 310.168 74.0496C310.66 72.8879 310.805 71.6069 310.584 70.3643Z" fill="#FC525A" stroke="#02221F" stroke-width="4"/>
<path d="M309.191 66.1617L309.198 66.1612L309.206 66.1606C310.477 66.0531 311.686 65.5665 312.679 64.7657C313.672 63.9651 314.405 62.8872 314.789 61.6705C315.173 60.454 315.192 59.1503 314.844 57.923C314.496 56.6956 313.795 55.5966 312.826 54.767C311.856 53.9371 310.663 53.4146 309.395 53.2691C308.128 53.1236 306.847 53.3623 305.716 53.953C304.585 54.5435 303.657 55.4581 303.045 56.5777C302.433 57.697 302.164 58.9728 302.269 60.2442L302.269 60.2512L302.27 60.2583C302.422 61.9538 303.228 63.5265 304.521 64.6337C305.815 65.7416 307.493 66.2929 309.191 66.1617Z" fill="#FC525A" stroke="#02221F" stroke-width="4"/>
<path d="M264.006 72.1707L264.28 75.1413L266.924 73.7589C274.651 69.7181 279.512 67.7298 282.397 66.7549C283.837 66.2681 284.772 66.0386 285.314 65.9313C285.584 65.8778 285.753 65.8554 285.836 65.8464C285.856 65.8443 285.87 65.8429 285.88 65.8421H289.831L287.436 62.6433C283.825 57.8214 281.729 52.0083 281.423 45.9595L281.257 42.6976L278.427 44.3274C275.654 45.9241 272.517 46.7497 269.332 46.7242C268.439 46.4915 267.298 45.5463 266.244 43.8413C265.184 42.1244 264.516 40.1147 264.401 38.6664L264.085 34.683L261.086 37.3235C257.958 40.0772 254.626 40.4233 251.692 39.8222C248.67 39.203 246.137 37.5775 244.992 36.5544L241.954 39.0903C243.954 42.3568 245.601 45.2575 246.287 48.184C246.944 50.9856 246.728 53.8622 244.789 57.1474L242.665 60.7477L246.801 60.1426C250.825 59.554 254.891 59.763 258.014 61.4356C260.99 63.0291 263.447 66.1335 264.006 72.1707Z" fill="#5DC68D" stroke="#02221F" stroke-width="4"/>
<path d="M249.717 43.2705C259.843 50.3774 270.444 56.7634 281.444 62.3824C269.698 58.2557 258.903 51.7533 249.717 43.2705V43.2705Z" fill="#02221F"/>
<path d="M276.599 39.3929L274.498 41.4056L277.13 42.6462C284.988 46.3507 289.537 48.9981 292.094 50.69C293.37 51.535 294.14 52.1346 294.571 52.5007C294.786 52.6833 294.915 52.8058 294.978 52.8695C294.997 52.8884 295.011 52.902 295.018 52.9103L297.45 55.8647L298.468 52.1366C300.057 46.3152 303.347 41.1201 307.9 37.2312L310.391 35.104L307.361 33.8601C304.434 32.6586 301.868 30.698 299.921 28.1736C299.545 27.2919 299.601 25.8153 300.29 23.9463C300.985 22.062 302.15 20.2716 303.208 19.2133L305.823 16.5988L302.204 15.8414C298.116 14.9861 295.789 12.5149 294.457 9.79031C293.088 6.98935 292.818 3.98335 292.925 2.46203L289.049 1.64105C287.797 5.1043 286.544 8.16305 284.671 10.4955C282.874 12.7353 280.473 14.3416 276.741 14.8086L272.66 15.3193L275.582 18.2139C278.424 21.0301 280.724 24.3991 281.318 27.9412C281.886 31.3267 280.954 35.2209 276.599 39.3929Z" fill="#5DC68D" stroke="#02221F" stroke-width="4"/>
<path d="M290.386 10.1738C291.021 22.626 292.509 35.0186 294.84 47.262C290.894 35.3313 289.379 22.7143 290.386 10.1738V10.1738Z" fill="#02221F"/>
<path d="M157.324 84.8329L156.509 87.6557L159.434 87.3791C165.389 86.8162 168.872 88.6685 170.997 91.3197C173.228 94.103 174.212 98.0765 174.426 102.108L174.649 106.308L177.766 103.483C180.564 100.948 183.339 100.183 186.19 100.297C189.162 100.415 192.283 101.49 195.714 102.854L197.688 99.4223C196.499 98.489 194.467 96.279 193.297 93.3768C192.156 90.548 191.854 87.1403 193.875 83.5042L195.672 80.271L191.982 80.5378C190.532 80.6427 188.444 80.3203 186.574 79.5844C184.725 78.8571 183.588 77.929 183.181 77.1211C182.571 73.9542 182.785 70.6801 183.801 67.6206L184.827 64.5338L181.61 65.0117C175.714 65.8872 169.694 64.967 164.314 62.3664L160.839 60.6864L161.464 64.4559C161.466 64.4673 161.467 64.486 161.469 64.5124C161.475 64.6027 161.482 64.7809 161.478 65.0646C161.469 65.6334 161.412 66.6136 161.202 68.1419C160.782 71.2021 159.758 76.4089 157.324 84.8329Z" fill="#5DC68D" stroke="#02221F" stroke-width="4"/>
<path d="M190.236 96.2901C181.4 87.5892 173.186 78.264 165.655 68.3848C171.894 79.2788 180.257 88.7732 190.236 96.2901V96.2901Z" fill="#02221F"/>
<path d="M179.98 67.704C174.104 67.7089 168.26 66.823 162.643 65.0757C162.241 64.9484 161.904 64.666 161.706 64.2895C161.508 63.913 161.465 63.4727 161.585 63.0639C161.643 62.8562 161.743 62.6626 161.877 62.495C162.011 62.3274 162.178 62.1893 162.367 62.0891C162.556 61.9889 162.763 61.9287 162.976 61.9122C163.189 61.8957 163.402 61.9233 163.604 61.9931C177.153 66.1589 191.755 65.0002 204.497 58.7483C217.192 52.4279 227.076 41.5057 232.186 28.1498C232.242 27.9283 232.342 27.7212 232.482 27.5419C232.622 27.3626 232.798 27.2152 232.998 27.1094C233.198 27.0036 233.417 26.9417 233.642 26.9278C233.868 26.9139 234.093 26.9483 234.304 27.0288C234.516 27.1092 234.708 27.2339 234.868 27.3947C235.028 27.5555 235.153 27.7487 235.234 27.9617C235.316 28.1748 235.352 28.4028 235.34 28.6309C235.329 28.859 235.27 29.0821 235.167 29.2855C229.795 43.4447 219.346 55.0317 205.907 61.7335C197.825 65.6919 188.958 67.7337 179.98 67.704V67.704Z" fill="#02221F"/>
<path d="M168.091 65.563C166.331 65.5688 164.573 65.4277 162.835 65.1411C162.419 65.0623 162.051 64.8201 161.811 64.4676C161.571 64.115 161.478 63.6806 161.553 63.2592C161.584 63.0458 161.657 62.8411 161.768 62.6573C161.88 62.4735 162.027 62.3146 162.201 62.1902C162.374 62.0657 162.572 61.9784 162.78 61.9335C162.988 61.8885 163.203 61.8869 163.412 61.9288C173.026 63.681 184.243 59.5601 190.909 55.4392C198.652 50.7075 204.471 43.3313 207.317 34.64C207.449 34.2097 207.744 33.85 208.138 33.6401C208.532 33.4301 208.992 33.3871 209.417 33.5205C209.842 33.6539 210.197 33.9528 210.404 34.3513C210.612 34.7499 210.654 35.2156 210.522 35.6459C207.454 45.1203 201.147 53.1748 192.736 58.3595C185.261 62.8465 176.778 65.326 168.091 65.563V65.563Z" fill="#02221F"/>
<path d="M193.505 71.0783C182.882 71.1358 172.351 69.074 162.515 65.0105C162.319 64.9323 162.141 64.8151 161.991 64.6658C161.841 64.5165 161.722 64.3382 161.641 64.1415C161.56 63.9447 161.519 63.7336 161.521 63.5206C161.522 63.3075 161.566 63.097 161.649 62.9014C161.819 62.5123 162.13 62.2043 162.518 62.0412C162.906 61.8781 163.341 61.8724 163.732 62.0253C183.607 70.0065 205.782 69.7735 225.489 61.3763C225.881 61.2234 226.316 61.2291 226.703 61.3922C227.091 61.5553 227.402 61.8634 227.572 62.2524C227.656 62.446 227.701 62.6547 227.705 62.8662C227.709 63.0777 227.67 63.2878 227.593 63.4843C227.515 63.6807 227.4 63.8595 227.253 64.0101C227.106 64.1607 226.931 64.2802 226.739 64.3616C216.211 68.8122 204.913 71.0955 193.505 71.0783V71.0783Z" fill="#02221F"/>
<path d="M227.418 69.3186C228.671 69.5648 229.968 69.4285 231.143 68.928C232.712 68.2601 233.948 66.9945 234.589 65.4153C235.23 63.8368 235.228 62.0671 234.583 60.4902C234.099 59.3079 233.278 58.2935 232.22 57.5785C231.162 56.8633 229.915 56.4808 228.637 56.4824C227.36 56.4841 226.114 56.8697 225.057 57.5876C224.001 58.3053 223.182 59.3217 222.702 60.5052C222.221 61.6885 222.099 62.9882 222.349 64.2406C222.6 65.4931 223.212 66.6455 224.113 67.5505C225.015 68.4557 226.164 69.0725 227.418 69.3186Z" fill="#FC525A" stroke="#02221F" stroke-width="4"/>
<path d="M232.405 35.0657C233.656 35.3195 234.953 35.1918 236.13 34.6996C237.707 34.0407 238.953 32.7787 239.604 31.1985C240.254 29.619 240.258 27.8444 239.616 26.2617C239.136 25.079 238.319 24.0631 237.264 23.3453C236.209 22.6272 234.964 22.2406 233.688 22.2373C232.412 22.2341 231.165 22.6144 230.106 23.3271C229.048 24.0397 228.226 25.0515 227.74 26.2318C227.254 27.4118 227.126 28.7097 227.369 29.9623C227.613 31.215 228.219 32.3698 229.114 33.2791C230.009 34.1887 231.154 34.8119 232.405 35.0657Z" fill="#FC525A" stroke="#02221F" stroke-width="4"/>
<path d="M204.186 37.4919L204.2 37.5306L204.216 37.5687C204.861 39.151 206.103 40.4173 207.677 41.0815C209.253 41.7461 211.026 41.7506 212.604 41.094L211.836 39.2473L212.621 41.0871C214.186 40.4198 215.421 39.1598 216.069 37.5865C216.716 36.0139 216.726 34.2482 216.098 32.6679L216.08 32.6231L216.061 32.5791C215.371 31.0631 214.127 29.8685 212.579 29.2528C211.031 28.6368 209.306 28.6509 207.769 29.2921C206.232 29.9329 205.006 31.1475 204.341 32.6744C203.677 34.2006 203.622 35.926 204.186 37.4919Z" fill="#FC525A" stroke="#02221F" stroke-width="4"/>
<path d="M247.241 85.8611L253.275 85.5962L248.275 82.2074C240.478 76.923 233.243 72.7314 223.17 73.9272L218.513 74.48L222.135 77.4582C229.205 83.2695 238.136 86.2607 247.241 85.8611Z" fill="#5DC68D" stroke="#02221F" stroke-width="4"/>
<path d="M238.573 70.0926L233.094 71.617L238.321 73.8576C244.386 76.4574 251.095 77.1103 257.539 75.727L257.12 73.7716L258.016 71.9837C251.985 68.9602 245.064 68.2864 238.573 70.0926Z" fill="#5DC68D" stroke="#02221F" stroke-width="4"/>
<path d="M179.291 43.4697L182.322 40.6538L178.232 40.0275C173.827 39.3529 169.325 39.7985 165.133 41.3235C160.941 42.8485 157.192 45.4043 154.223 48.7583L151.477 51.8606L155.614 52.0812C159.93 52.3113 164.247 51.6677 168.312 50.1885C172.378 48.7094 176.11 46.4248 179.291 43.4697Z" fill="#5DC68D" stroke="#02221F" stroke-width="4"/>
<path d="M458.457 60.5812C458.205 59.3272 457.59 58.174 456.686 57.2696C455.486 56.0686 453.861 55.3906 452.163 55.3906C450.465 55.3906 448.84 56.0686 447.64 57.2696C446.736 58.1741 446.12 59.3273 445.868 60.5812C445.616 61.835 445.738 63.1366 446.219 64.3216C446.699 65.5068 447.519 66.5246 448.577 67.2428C449.636 67.9612 450.884 68.3463 452.163 68.3463C453.442 68.3463 454.69 67.9612 455.748 67.2428C456.807 66.5247 457.626 65.5069 458.107 64.3216C458.588 63.1366 458.709 61.835 458.457 60.5812Z" fill="#FC525A" stroke="#02221F" stroke-width="4"/>
<path d="M464.585 76.1439L464.592 76.1375L464.598 76.1311C465.199 75.5331 465.675 74.8212 466 74.0376C466.324 73.2541 466.491 72.4139 466.491 71.5659C466.491 70.7179 466.324 69.8777 466 69.0941C465.681 68.324 465.215 67.6232 464.629 67.0316C464.064 66.4263 463.387 65.9366 462.634 65.591C461.868 65.2394 461.04 65.0443 460.198 65.0178C459.355 64.9913 458.517 65.1339 457.73 65.4369C456.944 65.7399 456.226 66.1969 455.618 66.7802L455.611 66.7867L455.604 66.7932C454.375 67.9941 453.672 69.6349 453.642 71.353C453.612 73.0712 454.257 74.7357 455.442 75.9796C456.629 77.2243 458.26 77.9457 459.979 77.9767C461.699 78.0077 463.355 77.3456 464.585 76.1439Z" fill="#FC525A" stroke="#02221F" stroke-width="4"/>
<path d="M457.957 60.2449L457.957 60.2449L457.959 60.2589C458.111 61.9458 458.91 63.5111 460.193 64.6169C461.477 65.7235 463.142 66.2807 464.833 66.1625L464.694 64.1673L464.847 66.1614C466.122 66.0631 467.336 65.5838 468.336 64.7879C469.336 63.9923 470.076 62.9167 470.467 61.7C470.858 60.4835 470.883 59.1775 470.54 57.9468C470.196 56.7158 469.498 55.6122 468.53 54.778C467.562 53.9435 466.368 53.4166 465.099 53.2679C463.829 53.1191 462.546 53.3558 461.412 53.9459C460.279 54.5359 459.348 55.4513 458.734 56.5725C458.121 57.6935 457.851 58.9715 457.957 60.2449Z" fill="#FC525A" stroke="#02221F" stroke-width="4"/>
<path d="M419.791 72.1803L420.079 75.1368L422.71 73.7581C430.422 69.7172 435.267 67.7289 438.14 66.7541C439.574 66.2674 440.504 66.038 441.042 65.9309C441.31 65.8775 441.478 65.8552 441.56 65.8463C441.578 65.8442 441.592 65.8429 441.602 65.8421H445.507L443.167 62.6577C439.61 57.8178 437.566 52.0061 437.304 45.9737L437.161 42.6831L434.307 44.3278C431.543 45.9206 428.416 46.7459 425.242 46.7239C424.335 46.491 423.194 45.5452 422.141 43.8413C421.081 42.1261 420.41 40.1103 420.281 38.649L419.934 34.7116L416.967 37.3235C413.839 40.0774 410.507 40.4231 407.578 39.8223C404.559 39.2031 402.038 37.5783 400.914 36.5623L397.867 39.0903C399.865 42.3538 401.505 45.2553 402.188 48.1818C402.841 50.9856 402.625 53.8655 400.699 57.1528L398.586 60.7607L402.721 60.1417C406.638 59.5552 410.656 59.7621 413.764 61.4339C416.73 63.0293 419.203 66.1405 419.791 72.1803Z" fill="#5DC68D" stroke="#02221F" stroke-width="4"/>
<path d="M405.437 43.2705C415.563 50.3774 426.164 56.7634 437.164 62.3824C425.422 58.2483 414.628 51.7467 405.437 43.2705V43.2705Z" fill="#02221F"/>
<path d="M432.32 39.3929L430.219 41.4056L432.851 42.6462C440.709 46.3507 445.258 48.9981 447.814 50.69C449.091 51.535 449.86 52.1346 450.292 52.5007C450.507 52.6833 450.635 52.8058 450.699 52.8695C450.718 52.8884 450.731 52.902 450.739 52.9103L453.156 55.8469L454.186 52.1461C455.804 46.3309 459.092 41.1378 463.628 37.2247L466.088 35.1033L463.086 33.8621C460.161 32.6524 457.595 30.6918 455.641 28.1717C455.269 27.2943 455.328 25.8221 456.024 23.9525C456.726 22.0675 457.9 20.2744 458.961 19.2133L461.576 16.5988L457.957 15.8414C453.869 14.9861 451.542 12.5149 450.21 9.79031C448.841 6.98935 448.57 3.98335 448.678 2.46203L444.798 1.65218C443.548 5.17435 442.285 8.26543 440.409 10.6123C438.607 12.8672 436.207 14.472 432.493 14.9385L428.37 15.4563L431.346 18.3555C434.164 21.1006 436.453 24.4345 437.043 27.9569C437.607 31.3254 436.676 35.22 432.32 39.3929Z" fill="#5DC68D" stroke="#02221F" stroke-width="4"/>
<path d="M446.138 10.1738C446.778 22.629 448.288 35.0226 450.657 47.262C446.672 35.3396 445.135 22.7191 446.138 10.1738V10.1738Z" fill="#02221F"/>
<path d="M313.076 84.8362L312.266 87.6559L315.187 87.3791C321.124 86.8165 324.608 88.6674 326.738 91.3208C328.974 94.1052 329.964 98.0795 330.179 102.108L330.401 106.294L333.515 103.487C336.331 100.948 339.108 100.183 341.959 100.297C344.931 100.416 348.051 101.49 351.502 102.855L353.464 99.4157C352.264 98.4843 350.226 96.277 349.057 93.3768C347.918 90.5517 347.622 87.1459 349.657 83.5092L351.469 80.2701L347.767 80.5378C346.316 80.6428 344.219 80.3202 342.34 79.5835C340.481 78.8549 339.339 77.926 338.933 77.1208C338.324 73.954 338.537 70.68 339.554 67.6206L340.579 64.5338L337.362 65.0117C331.467 65.8872 325.446 64.967 320.067 62.3664L316.623 60.7014L317.215 64.4427C317.216 64.4543 317.218 64.4738 317.219 64.5016C317.225 64.593 317.231 64.7724 317.226 65.0571C317.215 65.6278 317.154 66.6098 316.943 68.1394C316.519 71.2023 315.494 76.4111 313.076 84.8362Z" fill="#5DC68D" stroke="#02221F" stroke-width="4"/>
<path d="M346.117 96.2901C337.3 87.5804 329.097 78.2558 321.568 68.3848C327.785 79.2848 336.139 88.7814 346.117 96.2901V96.2901Z" fill="#02221F"/>
<path d="M335.701 67.704C329.835 67.7086 324.002 66.8227 318.395 65.0757C318.194 65.0165 318.006 64.9169 317.843 64.783C317.68 64.6491 317.545 64.4834 317.447 64.2959C317.348 64.1083 317.288 63.9027 317.269 63.6911C317.25 63.4795 317.274 63.2663 317.338 63.0639C317.392 62.8574 317.488 62.6644 317.619 62.497C317.751 62.3296 317.915 62.1914 318.101 62.0909C318.287 61.9905 318.492 61.93 318.703 61.9131C318.913 61.8963 319.125 61.9236 319.324 61.9932C332.873 66.1589 347.475 65.0003 360.218 58.7483C372.872 52.4123 382.71 41.4899 387.779 28.1498C387.853 27.9487 387.967 27.7645 388.112 27.6081C388.257 27.4516 388.432 27.326 388.626 27.2384C388.82 27.1509 389.029 27.1032 389.241 27.0981C389.453 27.093 389.664 27.1307 389.862 27.2088C390.25 27.3683 390.563 27.6728 390.736 28.0593C390.909 28.4457 390.929 28.8847 390.791 29.2855C385.406 43.4469 374.947 55.033 361.499 61.7336C353.456 65.6727 344.636 67.714 335.701 67.704V67.704Z" fill="#02221F"/>
<path d="M323.843 65.5623C322.083 65.5709 320.325 65.4298 318.587 65.1404C318.17 65.0612 317.799 64.8205 317.554 64.4691C317.308 64.1178 317.208 63.6836 317.273 63.2585C317.304 63.0451 317.377 62.8404 317.489 62.6566C317.6 62.4728 317.747 62.3139 317.921 62.1895C318.095 62.065 318.292 61.9777 318.5 61.9328C318.708 61.8878 318.923 61.8862 319.132 61.9281C328.747 63.6803 339.963 59.5594 346.629 55.4385C354.38 50.7156 360.201 43.3362 363.038 34.6393C363.177 34.2357 363.465 33.9023 363.841 33.7087C364.217 33.5152 364.653 33.4766 365.057 33.6009C365.259 33.6633 365.447 33.7664 365.609 33.904C365.771 34.0417 365.904 34.211 366 34.4019C366.095 34.5928 366.152 34.8014 366.166 35.015C366.18 35.2286 366.152 35.443 366.082 35.6452C363.025 45.1251 356.715 53.1828 348.296 58.3588C340.878 62.8154 332.465 65.2939 323.843 65.5623V65.5623Z" fill="#02221F"/>
<path d="M349.321 71.0791C338.698 71.1307 328.169 69.0691 318.331 65.0113C317.941 64.8462 317.632 64.532 317.47 64.137C317.308 63.742 317.306 63.2982 317.466 62.9022C317.642 62.5107 317.959 62.2021 318.352 62.0392C318.745 61.8764 319.184 61.8717 319.581 62.0261C339.444 70.0089 361.61 69.7759 381.305 61.3771C381.701 61.2227 382.141 61.2274 382.534 61.3903C382.927 61.5531 383.244 61.8618 383.42 62.2532C383.504 62.4488 383.547 62.6594 383.549 62.8724C383.55 63.0854 383.509 63.2966 383.429 63.4933C383.348 63.69 383.229 63.8683 383.079 64.0176C382.929 64.1669 382.751 64.2841 382.555 64.3623C372.027 68.813 360.73 71.0963 349.321 71.0791V71.0791Z" fill="#02221F"/>
<path d="M383.126 69.2991C384.377 69.5529 385.674 69.4252 386.851 68.933C388.428 68.2741 389.675 67.0121 390.325 65.4319C390.975 63.8524 390.979 62.0778 390.337 60.4951C389.857 59.3125 389.04 58.2965 387.985 57.5786C386.93 56.8606 385.686 56.474 384.409 56.4707C383.133 56.4675 381.886 56.8478 380.828 57.5605C379.769 58.2731 378.947 59.2849 378.461 60.4652C377.976 61.6452 377.847 62.9431 378.091 64.1957C378.334 65.4485 378.94 66.6032 379.835 67.5125C380.731 68.4221 381.875 69.0453 383.126 69.2991Z" fill="#FC525A" stroke="#02221F" stroke-width="4"/>
<path d="M388.029 35.0657C389.278 35.3191 390.572 35.1923 391.748 34.7024C392.532 34.3806 393.243 33.9056 393.842 33.3059C394.442 32.7045 394.917 31.9897 395.24 31.2037C395.564 30.4178 395.73 29.5755 395.729 28.7254C395.728 27.8779 395.561 27.0383 395.238 26.255C394.757 25.0752 393.941 24.0618 392.888 23.3453C391.833 22.6272 390.589 22.2406 389.312 22.2373C388.036 22.2341 386.79 22.6144 385.731 23.3271C384.672 24.0397 383.85 25.0515 383.364 26.2318C382.879 27.4118 382.75 28.7097 382.994 29.9623C383.237 31.215 383.843 32.3698 384.738 33.2791C385.634 34.1887 386.778 34.8119 388.029 35.0657Z" fill="#FC525A" stroke="#02221F" stroke-width="4"/>
<path d="M371.814 32.6549L371.811 32.6482L371.808 32.6415C371.324 31.472 370.507 30.4696 369.456 29.7634C368.406 29.0569 367.17 28.6792 365.904 28.6807C364.638 28.6821 363.403 29.0627 362.354 29.7716C361.305 30.4803 360.491 31.4845 360.009 32.6552C359.527 33.8255 359.399 35.1126 359.638 36.3554C359.878 37.5984 360.475 38.7452 361.36 39.6504C362.245 40.5558 363.377 41.179 364.616 41.4377C365.855 41.6964 367.142 41.578 368.314 41.0985L367.557 39.2475L368.328 41.0928C369.905 40.4339 371.151 39.1719 371.801 37.5917C372.451 36.0122 372.456 34.2376 371.814 32.6549Z" fill="#FC525A" stroke="#02221F" stroke-width="4"/>
<path d="M402.966 85.8609L408.976 85.5832L403.995 82.2074C396.2 76.924 388.964 72.7311 378.921 73.9273L374.287 74.4793L377.883 77.4543C384.933 83.2858 393.864 86.2813 402.966 85.8609Z" fill="#5DC68D" stroke="#02221F" stroke-width="4"/>
<path d="M413.291 75.7271L418.884 74.5301L413.763 71.9809C407.72 68.9728 400.798 68.3002 394.298 70.091L388.784 71.6101L394.043 73.8582C400.119 76.4557 406.836 77.1083 413.291 75.7271Z" fill="#5DC68D" stroke="#02221F" stroke-width="4"/>
<path d="M335.043 43.47L338.071 40.6566L333.986 40.0281C329.58 39.3501 325.077 39.7942 320.884 41.3196C316.691 42.845 312.942 45.4028 309.974 48.7597L307.233 51.8611L311.366 52.0815C315.682 52.3116 319.999 51.668 324.065 50.1888C328.131 48.7097 331.863 46.4251 335.043 43.47Z" fill="#5DC68D" stroke="#02221F" stroke-width="4"/>
<path d="M614.178 60.5812C613.926 59.3272 613.31 58.174 612.407 57.2696C611.206 56.0686 609.581 55.3906 607.883 55.3906C606.185 55.3906 604.56 56.0686 603.36 57.2696C602.456 58.174 601.841 59.3272 601.589 60.5812C601.337 61.835 601.458 63.1366 601.939 64.3216C602.42 65.5068 603.239 66.5246 604.298 67.2428C605.356 67.9612 606.604 68.3463 607.883 68.3463C609.162 68.3463 610.411 67.9612 611.469 67.2428C612.527 66.5246 613.347 65.5068 613.828 64.3216C614.308 63.1366 614.43 61.835 614.178 60.5812Z" fill="#FC525A" stroke="#02221F" stroke-width="4"/>
<path d="M622.114 70.324C621.868 69.0743 621.261 67.9231 620.367 67.0168C619.774 66.4107 619.068 65.928 618.288 65.5978C617.505 65.2666 616.665 65.0957 615.815 65.0957C614.965 65.0957 614.125 65.2666 613.342 65.5978C612.562 65.928 611.856 66.4107 611.263 67.0168C610.369 67.9231 609.762 69.0743 609.516 70.324C609.269 71.576 609.394 72.8743 609.877 74.0555C610.36 75.237 611.179 76.2509 612.236 76.9661C613.293 77.6815 614.539 78.0649 615.815 78.0649C617.091 78.0649 618.337 77.6815 619.394 76.9661C620.45 76.2509 621.27 75.237 621.753 74.0555C622.236 72.8743 622.361 71.576 622.114 70.324Z" fill="#FC525A" stroke="#02221F" stroke-width="4"/>
<path d="M613.742 60.2449L613.742 60.2449L613.743 60.2589C613.896 61.9458 614.695 63.5111 615.978 64.6169C617.261 65.7235 618.927 66.2807 620.618 66.1625L620.478 64.1673L620.632 66.1614C621.906 66.0631 623.12 65.5838 624.12 64.7879C625.12 63.9923 625.861 62.9167 626.252 61.7C626.643 60.4835 626.668 59.1775 626.324 57.9468C625.981 56.7158 625.283 55.6122 624.315 54.778C623.347 53.9435 622.153 53.4166 620.883 53.2679C619.614 53.1191 618.33 53.3558 617.197 53.9459C616.063 54.5359 615.132 55.4514 614.519 56.5725C613.906 57.6935 613.636 58.9715 613.742 60.2449Z" fill="#FC525A" stroke="#02221F" stroke-width="4"/>
<path d="M575.511 72.1755L575.792 75.1404L578.43 73.7581C586.142 69.7172 590.987 67.7289 593.86 66.7541C595.294 66.2674 596.224 66.038 596.762 65.9309C597.03 65.8775 597.198 65.8552 597.28 65.8463C597.298 65.8442 597.312 65.8429 597.322 65.8421H601.205L598.892 62.665C595.359 57.8107 593.326 52.0006 593.056 45.9711L592.909 42.6869L590.06 44.3274C587.286 45.9245 584.148 46.7501 580.963 46.7242C580.056 46.4916 578.914 45.5458 577.861 43.8413C576.802 42.1261 576.13 40.1103 576.001 38.649L575.653 34.701L572.684 37.3264C569.574 40.0763 566.245 40.4235 563.309 39.8222C560.285 39.2026 557.756 37.5768 556.634 36.5623L553.587 39.0903C555.586 42.3538 557.225 45.2553 557.908 48.1818C558.562 50.9856 558.345 53.8655 556.419 57.1528L554.307 60.7581L558.44 60.1418C562.375 59.555 566.401 59.7624 569.508 61.4339C572.472 63.0281 574.938 66.1367 575.511 72.1755Z" fill="#5DC68D" stroke="#02221F" stroke-width="4"/>
<path d="M561.19 43.2705C571.311 50.3841 581.913 56.7704 592.917 62.3824C581.167 58.2631 570.371 51.7599 561.19 43.2705Z" fill="#02221F"/>
<path d="M588.07 39.3952L585.976 41.4078L588.603 42.6462C596.461 46.3505 601.001 48.9975 603.548 50.6885C604.821 51.533 605.585 52.1319 606.012 52.4968C606.225 52.6789 606.352 52.8007 606.415 52.8636C606.433 52.8815 606.445 52.8944 606.453 52.9026L608.872 55.8767L609.907 52.1442C611.521 46.3226 614.82 41.1282 619.375 37.2298L621.864 35.0996L618.832 33.8592C615.898 32.6592 613.324 30.7012 611.367 28.1788C611.002 27.2938 611.066 25.8151 611.757 23.9494C612.457 22.0627 613.623 20.2716 614.681 19.2133L617.296 16.5988L613.677 15.8414C609.589 14.9861 607.262 12.5149 605.93 9.79031C604.561 6.98935 604.291 3.98335 604.398 2.46203L600.518 1.65218C599.268 5.17435 598.005 8.26543 596.13 10.6123C594.327 12.8672 591.927 14.472 588.213 14.9385L584.091 15.4563L587.067 18.3555C589.884 21.1004 592.174 24.435 592.767 27.9587C593.335 31.3292 592.41 35.2237 588.07 39.3952Z" fill="#5DC68D" stroke="#02221F" stroke-width="4"/>
<path d="M601.858 10.1738C602.509 22.6297 604.03 35.0234 606.409 47.262C602.431 35.338 600.883 22.7209 601.858 10.1738V10.1738Z" fill="#02221F"/>
<path d="M468.797 84.8329L467.981 87.6564L470.907 87.3791C476.842 86.8167 480.329 88.6658 482.481 91.336C484.741 94.1397 485.769 98.1467 486.061 102.241L486.354 106.34L489.399 103.581C492.198 101.045 494.965 100.28 497.811 100.394C500.78 100.513 503.9 101.588 507.351 102.953L509.321 99.5197C508.132 98.5863 506.1 96.3764 504.93 93.4742C503.789 90.6454 503.487 87.2376 505.508 83.6015L507.305 80.3683L503.616 80.6352C502.165 80.7401 500.077 80.4176 498.207 79.6818C496.353 78.9524 495.214 78.021 494.81 77.2115C494.172 74.0548 494.386 70.7811 495.429 67.7353L496.494 64.6258L493.242 65.1091C487.301 65.9922 481.234 65.0394 475.834 62.3736L472.369 60.6631L472.967 64.4424C472.968 64.454 472.97 64.4733 472.972 64.5008C472.977 64.592 472.984 64.7711 472.978 65.0556C472.966 65.626 472.905 66.6076 472.692 68.137C472.264 71.1994 471.231 76.4079 468.797 84.8329Z" fill="#5DC68D" stroke="#02221F" stroke-width="4"/>
<path d="M501.677 96.2901C492.86 87.5804 484.657 78.2558 477.128 68.3848C483.355 79.2773 491.708 88.772 501.677 96.2901V96.2901Z" fill="#02221F"/>
<path d="M491.422 67.704C485.556 67.7062 479.723 66.8203 474.116 65.0757C473.714 64.9485 473.377 64.666 473.179 64.2895C472.981 63.913 472.938 63.4727 473.058 63.0639C473.116 62.8562 473.216 62.6626 473.35 62.495C473.485 62.3274 473.651 62.1893 473.84 62.0891C474.029 61.9889 474.236 61.9287 474.449 61.9122C474.662 61.8957 474.875 61.9233 475.077 61.9932C488.626 66.1589 503.228 65.0003 515.97 58.7483C528.664 52.437 538.541 41.5103 543.628 28.1498C543.702 27.9487 543.815 27.7645 543.961 27.6081C544.106 27.4516 544.281 27.326 544.475 27.2384C544.669 27.1509 544.878 27.1032 545.09 27.0981C545.302 27.093 545.513 27.1307 545.711 27.2088C545.908 27.2809 546.089 27.3923 546.244 27.5365C546.398 27.6807 546.522 27.8548 546.609 28.0484C546.695 28.242 546.743 28.4512 546.748 28.6637C546.753 28.8762 546.717 29.0876 546.64 29.2855C541.257 43.4379 530.812 55.0214 517.38 61.7336C509.286 65.6891 500.409 67.7307 491.422 67.704V67.704Z" fill="#02221F"/>
<path d="M479.564 65.5625C477.803 65.5683 476.045 65.4272 474.308 65.1407C473.892 65.0618 473.524 64.8197 473.284 64.4671C473.044 64.1146 472.951 63.6802 473.026 63.2587C473.057 63.0454 473.13 62.8406 473.241 62.6568C473.353 62.4731 473.5 62.3141 473.674 62.1897C473.847 62.0653 474.044 61.9779 474.253 61.933C474.461 61.8881 474.676 61.8865 474.885 61.9283C484.499 63.6481 495.684 59.5272 502.382 55.4387C510.125 50.707 515.944 43.3309 518.79 34.6395C518.922 34.2309 519.209 33.8921 519.588 33.6974C519.966 33.5027 520.406 33.4681 520.809 33.6012C521.208 33.7419 521.537 34.0333 521.728 34.4143C521.92 34.7954 521.958 35.2365 521.835 35.6454C518.764 45.1277 512.444 53.1845 504.016 58.359C496.598 62.8156 488.185 65.2941 479.564 65.5625V65.5625Z" fill="#02221F"/>
<path d="M504.978 71.0783C494.354 71.1358 483.824 69.074 473.988 65.0105C473.792 64.9323 473.614 64.8151 473.464 64.6658C473.313 64.5165 473.194 64.3382 473.114 64.1415C473.033 63.9447 472.992 63.7336 472.994 63.5206C472.995 63.3075 473.039 63.097 473.122 62.9014C473.292 62.5123 473.603 62.2043 473.991 62.0412C474.378 61.8781 474.813 61.8724 475.205 62.0253C495.08 70.0065 517.255 69.7735 536.962 61.3763C537.353 61.2234 537.788 61.2291 538.176 61.3922C538.564 61.5553 538.875 61.8634 539.045 62.2524C539.129 62.446 539.174 62.6547 539.178 62.8662C539.181 63.0777 539.143 63.2878 539.066 63.4843C538.988 63.6807 538.873 63.8595 538.726 64.0101C538.579 64.1607 538.404 64.2802 538.211 64.3616C527.683 68.8097 516.386 71.0929 504.978 71.0783V71.0783Z" fill="#02221F"/>
<path d="M538.846 69.2991C540.095 69.5524 541.389 69.4257 542.565 68.9359C543.349 68.6141 544.06 68.1391 544.659 67.5393C545.259 66.9379 545.734 66.2231 546.058 65.4371C546.381 64.6511 546.547 63.8088 546.546 62.9588C546.545 62.1113 546.378 61.2717 546.055 60.4884C545.574 59.3086 544.758 58.2952 543.705 57.5786C542.65 56.8606 541.406 56.474 540.129 56.4707C538.853 56.4675 537.607 56.8478 536.548 57.5605C535.489 58.2731 534.667 59.2849 534.181 60.4652C533.696 61.6452 533.567 62.9431 533.811 64.1957C534.055 65.4485 534.66 66.6032 535.555 67.5125C536.451 68.4222 537.596 69.0453 538.846 69.2991Z" fill="#FC525A" stroke="#02221F" stroke-width="4"/>
<path d="M543.89 35.0852C545.143 35.3314 546.44 35.1951 547.616 34.6946C549.184 34.0267 550.42 32.761 551.061 31.1819C551.702 29.6034 551.7 27.8336 551.055 26.2568C550.571 25.0745 549.75 24.0601 548.692 23.3451C547.634 22.6299 546.387 22.2474 545.109 22.249C543.832 22.2507 542.586 22.6364 541.529 23.3542C540.473 24.0719 539.654 25.0883 539.174 26.2718C538.694 27.4551 538.571 28.7547 538.822 30.0072C539.072 31.2597 539.685 32.4121 540.586 33.3171C541.487 34.2223 542.636 34.8391 543.89 35.0852Z" fill="#FC525A" stroke="#02221F" stroke-width="4"/>
<path d="M515.615 37.3553L515.646 37.4639L515.688 37.5683C516.333 39.1506 517.576 40.4168 519.15 41.0811C520.726 41.7457 522.498 41.7502 524.077 41.0936L523.309 39.2469L524.13 41.0708C525.672 40.3767 526.877 39.1003 527.491 37.524C528.105 35.9485 528.083 34.193 527.429 32.6334L527.386 32.5294L527.331 32.4309C526.564 31.0596 525.325 30.0141 523.84 29.4995C522.356 28.9848 520.735 29.0393 519.288 29.6522C517.842 30.2648 516.674 31.3903 516 32.8089C515.326 34.227 515.19 35.844 515.615 37.3553Z" fill="#FC525A" stroke="#02221F" stroke-width="4"/>
<path d="M558.68 85.8611L564.704 85.602L559.719 82.2096C551.951 76.9225 544.683 72.7312 534.642 73.9273L529.987 74.4817L533.608 77.4583C540.669 83.2616 549.586 86.2523 558.68 85.8611Z" fill="#5DC68D" stroke="#02221F" stroke-width="4"/>
<path d="M550.045 70.0926L544.566 71.617L549.794 73.8576C555.859 76.4574 562.567 77.1103 569.012 75.727L568.592 73.7716L569.489 71.9837C563.458 68.9602 556.537 68.2864 550.045 70.0926Z" fill="#5DC68D" stroke="#02221F" stroke-width="4"/>
<path d="M465.695 48.7597L462.953 51.8611L467.087 52.0815C471.402 52.3116 475.72 51.668 479.785 50.1888C483.851 48.7097 487.583 46.4251 490.764 43.47L489.403 42.0048L489.707 40.0281C485.301 39.3501 480.797 39.7942 476.604 41.3196C472.412 42.845 468.663 45.4028 465.695 48.7597Z" fill="#5DC68D" stroke="#02221F" stroke-width="4"/>
<path d="M769.548 59.4393C769.24 58.6458 768.779 57.9199 768.192 57.3038C767.006 56.0591 765.374 55.3377 763.655 55.3067C761.936 55.2757 760.279 55.9379 759.049 57.1396C757.82 58.3405 757.117 59.9813 757.087 61.6994C757.057 63.4176 757.702 65.0822 758.887 66.326C759.474 66.9422 760.177 67.4365 760.956 67.7797C761.735 68.1229 762.573 68.3078 763.424 68.3231C764.275 68.3385 765.12 68.184 765.911 67.869C766.701 67.554 767.421 67.0851 768.03 66.4903C768.639 65.8955 769.124 65.1865 769.461 64.4043C769.797 63.6222 769.977 62.7816 769.992 61.9304C770.007 61.0791 769.856 60.2327 769.548 59.4393Z" fill="#FC525A" stroke="#02221F" stroke-width="4"/>
<path d="M777.846 70.3152C777.595 69.066 776.983 67.9169 776.085 67.014C775.497 66.4104 774.794 65.9294 774.019 65.6C773.238 65.2687 772.399 65.0977 771.552 65.0977C770.704 65.0977 769.865 65.2687 769.085 65.6C768.309 65.9294 767.606 66.4104 767.018 67.014C766.12 67.9169 765.508 69.066 765.257 70.3152C765.005 71.569 765.127 72.8706 765.607 74.0556C766.088 75.2409 766.908 76.2587 767.966 76.9768C769.024 77.6952 770.272 78.0803 771.552 78.0803C772.831 78.0803 774.079 77.6952 775.137 76.9768C776.195 76.2587 777.015 75.2409 777.496 74.0556C777.977 72.8706 778.098 71.569 777.846 70.3152Z" fill="#FC525A" stroke="#02221F" stroke-width="4"/>
<path d="M769.462 60.2442L769.463 60.2512L769.463 60.2583C769.616 61.9538 770.421 63.5265 771.715 64.6337C773.009 65.7416 774.686 66.2929 776.385 66.1617L776.231 64.1677L776.399 66.1606C777.67 66.0531 778.879 65.5664 779.872 64.7657C780.865 63.9651 781.598 62.8872 781.982 61.6705C782.366 60.454 782.385 59.1502 782.037 57.923C781.689 56.6956 780.988 55.5966 780.019 54.767C779.05 53.9371 777.856 53.4146 776.589 53.2691C775.321 53.1236 774.04 53.3623 772.909 53.953C771.779 54.5435 770.85 55.4581 770.238 56.5777C769.626 57.697 769.357 58.9728 769.462 60.2442Z" fill="#FC525A" stroke="#02221F" stroke-width="4"/>
<path d="M731.264 72.1809L731.552 75.1402L734.184 73.758C741.877 69.7184 746.744 67.731 749.643 66.7566C751.091 66.27 752.034 66.0404 752.584 65.9329C752.859 65.8793 753.032 65.8566 753.118 65.8474C753.14 65.8451 753.156 65.8436 753.167 65.8428H757.119L754.725 62.6444C751.098 57.7971 749 51.9496 748.712 45.8692L748.557 42.595L745.716 44.2307C742.943 45.8274 739.806 46.653 736.622 46.6275C735.728 46.3949 734.587 45.4496 733.534 43.7446C732.473 42.0277 731.806 40.018 731.691 38.5697L731.375 34.5863L728.375 37.2269C725.248 39.9806 721.916 40.3266 718.982 39.7255C715.959 39.1063 713.427 37.4808 712.281 36.4577L709.243 38.9937C711.244 42.2602 712.891 45.1608 713.577 48.0873C714.233 50.8889 714.017 53.7655 712.079 57.0507L709.981 60.6062L714.071 60.0487C718.049 59.5065 722.097 59.7351 725.222 61.4212C728.203 63.0295 730.676 66.143 731.264 72.1809Z" fill="#5DC68D" stroke="#02221F" stroke-width="4"/>
<path d="M716.91 43.2705C727.036 50.3774 737.637 56.7634 748.637 62.3824C736.894 58.2483 726.101 51.7467 716.91 43.2705V43.2705Z" fill="#02221F"/>
<path d="M743.793 39.3928L741.692 41.4055L744.323 42.6461C752.182 46.3506 756.73 48.998 759.287 50.6899C760.564 51.5349 761.333 52.1345 761.764 52.5006C761.979 52.6832 762.108 52.8057 762.172 52.8694C762.191 52.8883 762.204 52.9019 762.212 52.9103L764.637 55.8567L765.66 52.1407C767.262 46.322 770.551 41.1279 775.097 37.2283L777.577 35.1008L774.554 33.86C771.627 32.6585 769.061 30.6979 767.115 28.1735C766.739 27.2918 766.794 25.8152 767.483 23.9462C768.178 22.0619 769.343 20.2715 770.402 19.2133L772.966 16.6494L769.429 15.8483C765.413 14.9385 763.069 12.4328 761.708 9.67114C760.314 6.84015 760.013 3.83241 760.118 2.33215L756.236 1.52993C755.003 5.04922 753.748 8.13809 751.874 10.4825C750.074 12.735 747.667 14.3414 743.934 14.8085L739.853 15.3192L742.775 18.2138C745.618 21.03 747.918 24.399 748.512 27.9411C749.079 31.3267 748.148 35.2208 743.793 39.3928Z" fill="#5DC68D" stroke="#02221F" stroke-width="4"/>
<path d="M757.611 10.1738C758.251 22.629 759.761 35.0226 762.129 47.262C758.145 35.3396 756.608 22.7191 757.611 10.1738V10.1738Z" fill="#02221F"/>
<path d="M624.518 84.8329L623.702 87.6557L626.627 87.3791C632.582 86.8162 636.065 88.6683 638.195 91.3208C640.431 94.1058 641.422 98.081 641.652 102.115L641.89 106.294L644.992 103.483C647.789 100.948 650.564 100.183 653.415 100.297C656.388 100.415 659.508 101.49 662.94 102.854L664.913 99.4223C663.724 98.489 661.693 96.2796 660.527 93.3788C659.391 90.5523 659.095 87.1459 661.129 83.5092L662.941 80.2725L659.241 80.5377C657.772 80.643 655.675 80.3195 653.802 79.584C651.95 78.8567 650.813 77.9286 650.406 77.1211C649.797 73.9542 650.01 70.6801 651.027 67.6206L652.052 64.5338L648.835 65.0117C642.94 65.8872 636.919 64.967 631.54 62.3664L628.096 60.7014L628.688 64.4424C628.689 64.454 628.69 64.4733 628.692 64.5008C628.697 64.592 628.704 64.7711 628.698 65.0556C628.687 65.626 628.626 66.6076 628.412 68.137C627.984 71.1994 626.952 76.4079 624.518 84.8329Z" fill="#5DC68D" stroke="#02221F" stroke-width="4"/>
<path d="M657.429 96.2901C648.594 87.5892 640.379 78.264 632.849 68.3848C639.087 79.2788 647.451 88.7732 657.429 96.2901V96.2901Z" fill="#02221F"/>
<path d="M647.174 67.7039C641.297 67.7089 635.453 66.8229 629.836 65.0756C629.619 65.0267 629.415 64.9327 629.236 64.7996C629.057 64.6664 628.907 64.4971 628.796 64.3022C628.685 64.1074 628.616 63.8913 628.591 63.6677C628.567 63.4441 628.59 63.2179 628.656 63.0035C628.723 62.789 628.834 62.591 628.98 62.4219C629.127 62.2529 629.306 62.1165 629.507 62.0215C629.709 61.9265 629.927 61.8749 630.15 61.87C630.372 61.8651 630.592 61.907 630.797 61.9931C644.346 66.1588 658.948 65.0002 671.691 58.7483C684.385 52.4278 694.269 41.5057 699.38 28.1497C699.559 27.7947 699.861 27.5189 700.228 27.375C700.596 27.2311 701.003 27.2291 701.371 27.3696C701.74 27.51 702.044 27.783 702.227 28.1364C702.409 28.4898 702.457 28.8988 702.36 29.2854C696.999 43.4515 686.548 55.0421 673.101 61.7335C665.019 65.6918 656.152 67.7336 647.174 67.7039V67.7039Z" fill="#02221F"/>
<path d="M635.284 65.5623C633.524 65.5681 631.766 65.427 630.028 65.1404C629.613 65.0616 629.245 64.8194 629.004 64.4669C628.764 64.1143 628.672 63.68 628.747 63.2585C628.777 63.0451 628.85 62.8404 628.962 62.6566C629.073 62.4728 629.22 62.3139 629.394 62.1895C629.568 62.065 629.765 61.9777 629.973 61.9328C630.181 61.8878 630.396 61.8862 630.605 61.9281C640.22 63.6803 651.436 59.5594 658.102 55.4385C665.845 50.7068 671.664 43.3307 674.511 34.6393C674.65 34.2357 674.938 33.9023 675.314 33.7087C675.69 33.5152 676.126 33.4766 676.53 33.6009C676.933 33.7346 677.268 34.0249 677.46 34.4082C677.653 34.7915 677.687 35.2364 677.555 35.6452C674.498 45.1251 668.188 53.1828 659.769 58.3588C652.341 62.8194 643.916 65.2979 635.284 65.5623V65.5623Z" fill="#02221F"/>
<path d="M660.698 71.0791C650.075 71.1341 639.545 69.0723 629.708 65.0113C629.512 64.9331 629.334 64.8159 629.184 64.6666C629.034 64.5173 628.915 64.339 628.834 64.1423C628.753 63.9455 628.712 63.7344 628.714 63.5214C628.715 63.3083 628.759 63.0978 628.842 62.9022C629.012 62.5131 629.323 62.2051 629.711 62.042C630.099 61.8789 630.534 61.8732 630.926 62.0261C650.8 70.0073 672.975 69.7743 692.682 61.3771C693.078 61.2227 693.518 61.2274 693.911 61.3903C694.304 61.5531 694.621 61.8618 694.797 62.2532C694.948 62.65 694.942 63.0904 694.781 63.4831C694.62 63.8758 694.316 64.1907 693.932 64.3623C683.404 68.813 672.106 71.0963 660.698 71.0791Z" fill="#02221F"/>
<path d="M694.611 69.3186C695.864 69.5648 697.161 69.4285 698.337 68.928C699.905 68.2601 701.141 66.9944 701.782 65.4153C702.423 63.8368 702.421 62.067 701.776 60.4902C701.292 59.3079 700.471 58.2935 699.413 57.5785C698.355 56.8633 697.108 56.4808 695.83 56.4824C694.553 56.4841 693.307 56.8697 692.25 57.5876C691.194 58.3053 690.375 59.3217 689.895 60.5052C689.414 61.6885 689.292 62.9881 689.542 64.2406C689.793 65.4931 690.405 66.6455 691.307 67.5505C692.208 68.4557 693.357 69.0725 694.611 69.3186Z" fill="#FC525A" stroke="#02221F" stroke-width="4"/>
<path d="M699.598 35.0657C700.849 35.3195 702.146 35.1918 703.324 34.6996C704.9 34.0407 706.147 32.7787 706.797 31.1985C707.447 29.619 707.452 27.8444 706.809 26.2617C706.33 25.079 705.512 24.0631 704.457 23.3453C703.402 22.6272 702.158 22.2406 700.881 22.2373C699.605 22.2341 698.359 22.6144 697.3 23.3271C696.241 24.0397 695.419 25.0515 694.933 26.2318C694.448 27.4118 694.319 28.7097 694.563 29.9623C694.806 31.215 695.412 32.3698 696.307 33.2791C697.203 34.1887 698.348 34.8119 699.598 35.0657Z" fill="#FC525A" stroke="#02221F" stroke-width="4"/>
<path d="M671.379 37.4919L671.393 37.5306L671.409 37.5687C672.054 39.151 673.296 40.4172 674.87 41.0815C676.446 41.7461 678.219 41.7506 679.797 41.094L679.029 39.2473L679.8 41.0927C681.377 40.4338 682.624 39.1717 683.274 37.5916C683.924 36.0121 683.928 34.2375 683.286 32.6548L683.271 32.6166L683.254 32.5791C682.565 31.0631 681.32 29.8684 679.772 29.2528C678.224 28.6368 676.5 28.6509 674.962 29.2921C673.425 29.9329 672.199 31.1475 671.535 32.6744C670.87 34.2006 670.815 35.926 671.379 37.4919Z" fill="#FC525A" stroke="#02221F" stroke-width="4"/>
<path d="M714.434 85.8611L720.468 85.5962L715.468 82.2074C707.671 76.923 700.436 72.7314 690.363 73.9272L685.706 74.48L689.329 77.4582C696.398 83.2695 705.329 86.2608 714.434 85.8611Z" fill="#5DC68D" stroke="#02221F" stroke-width="4"/>
<path d="M705.734 70.0926L700.255 71.617L705.482 73.8576C711.547 76.4574 718.256 77.1103 724.701 75.727L724.281 73.7716L725.177 71.9837C719.146 68.9602 712.226 68.2864 705.734 70.0926Z" fill="#5DC68D" stroke="#02221F" stroke-width="4"/>
<path d="M621.416 48.7583L618.673 51.8571L622.805 52.0811C627.122 52.3151 631.441 51.6732 635.507 50.1937C639.574 48.7142 643.307 46.4272 646.485 43.4685L645.123 42.0045L645.425 40.0275C641.02 39.3529 636.518 39.7985 632.326 41.3235C628.134 42.8485 624.385 45.4043 621.416 48.7583Z" fill="#5DC68D" stroke="#02221F" stroke-width="4"/>
<path d="M925.268 59.4393C924.96 58.6457 924.499 57.9199 923.912 57.3038C922.726 56.0591 921.095 55.3377 919.375 55.3067C917.656 55.2757 915.999 55.9379 914.769 57.1396C913.54 58.3405 912.837 59.9813 912.807 61.6994C912.777 63.4176 913.422 65.0822 914.607 66.326C915.194 66.9422 915.897 67.4365 916.676 67.7797C917.455 68.1229 918.294 68.3078 919.144 68.3231C919.995 68.3385 920.84 68.184 921.631 67.869C922.421 67.554 923.141 67.0851 923.75 66.4903C924.359 65.8955 924.845 65.1865 925.181 64.4043C925.517 63.6222 925.697 62.7816 925.712 61.9304C925.727 61.0792 925.577 60.2328 925.268 59.4393Z" fill="#FC525A" stroke="#02221F" stroke-width="4"/>
<path d="M931.778 76.1439L931.785 76.1375L931.791 76.1311C932.392 75.533 932.868 74.8211 933.193 74.0376C933.517 73.2542 933.684 72.414 933.684 71.5659C933.684 70.7177 933.517 69.8776 933.193 69.0941C932.874 68.3241 932.409 67.6232 931.822 67.0316C931.257 66.4263 930.58 65.9366 929.827 65.591C929.061 65.2394 928.233 65.0443 927.391 65.0178C926.549 64.9913 925.71 65.1339 924.924 65.4369C924.137 65.7398 923.42 66.1968 922.811 66.7802L922.804 66.7867L922.798 66.7932C922.189 67.3879 921.703 68.097 921.367 68.8791C921.031 69.6612 920.85 70.5018 920.835 71.353C920.821 72.2042 920.971 73.0506 921.28 73.8442C921.588 74.6378 922.048 75.3636 922.636 75.9796C923.223 76.5957 923.925 77.0901 924.704 77.4333C925.483 77.7765 926.322 77.9614 927.173 77.9767C928.024 77.9921 928.869 77.8375 929.659 77.5226C930.45 77.2076 931.17 76.7387 931.778 76.1439Z" fill="#FC525A" stroke="#02221F" stroke-width="4"/>
<path d="M925.215 60.2449L925.215 60.2449L925.216 60.2589C925.369 61.9458 926.168 63.5111 927.451 64.6169C928.734 65.7235 930.4 66.2807 932.091 66.1625L931.951 64.1673L932.105 66.1614C933.379 66.0631 934.593 65.5838 935.593 64.7879C936.593 63.9923 937.334 62.9168 937.725 61.7C938.116 60.4835 938.141 59.1776 937.797 57.9468C937.454 56.7158 936.755 55.6122 935.788 54.778C934.82 53.9435 933.625 53.4166 932.356 53.2679C931.087 53.1191 929.803 53.3558 928.67 53.9459C927.536 54.5359 926.605 55.4514 925.992 56.5725C925.378 57.6935 925.109 58.9715 925.215 60.2449Z" fill="#FC525A" stroke="#02221F" stroke-width="4"/>
<path d="M886.984 72.1755L887.265 75.1404L889.903 73.7581C897.615 69.7172 902.46 67.7289 905.333 66.7541C906.767 66.2674 907.697 66.038 908.235 65.9309C908.503 65.8775 908.671 65.8552 908.753 65.8463C908.771 65.8442 908.785 65.8429 908.795 65.8421H912.687L910.363 62.6621C906.819 57.8114 904.776 52.0009 904.497 45.9682L904.345 42.6849L901.499 44.3286C898.737 45.9238 895.61 46.749 892.436 46.7241C891.528 46.4915 890.387 45.5457 889.334 43.8413C888.275 42.1261 887.603 40.1103 887.474 38.649L887.126 34.701L884.157 37.3264C881.047 40.0763 877.718 40.4235 874.782 39.8222C871.758 39.2026 869.229 37.5768 868.107 36.5623L865.06 39.0903C867.058 42.3538 868.698 45.2553 869.381 48.1818C870.035 50.9856 869.818 53.8655 867.892 57.1528L865.78 60.7581L869.913 60.1418C873.848 59.555 877.874 59.7624 880.981 61.4339C883.945 63.0281 886.411 66.1367 886.984 72.1755Z" fill="#5DC68D" stroke="#02221F" stroke-width="4"/>
<path d="M872.662 43.2705C882.779 50.3911 893.382 56.7777 904.39 62.3824C892.64 58.2631 881.844 51.7599 872.662 43.2705V43.2705Z" fill="#02221F"/>
<path d="M899.513 39.3929L897.412 41.4056L900.044 42.6462C907.902 46.3507 912.451 48.9981 915.007 50.69C916.284 51.535 917.054 52.1346 917.485 52.5007C917.7 52.6833 917.828 52.8058 917.892 52.8695C917.911 52.8884 917.924 52.902 917.932 52.9103L920.349 55.8468L921.379 52.1461C922.997 46.3309 926.285 41.1378 930.822 37.2247L933.281 35.1033L930.28 33.8621C927.354 32.6524 924.788 30.6918 922.835 28.1717C922.462 27.2943 922.521 25.8221 923.217 23.9524C923.919 22.0675 925.093 20.2744 926.154 19.2133L928.769 16.5988L925.15 15.8414C921.062 14.9861 918.735 12.5149 917.403 9.79031C916.034 6.98936 915.764 3.98336 915.871 2.46203L911.991 1.65218C910.741 5.17435 909.478 8.26543 907.603 10.6123C905.8 12.8672 903.4 14.472 899.686 14.9385L895.563 15.4563L898.539 18.3555C901.357 21.1006 903.646 24.4345 904.236 27.9569C904.8 31.3254 903.869 35.22 899.513 39.3929Z" fill="#5DC68D" stroke="#02221F" stroke-width="4"/>
<path d="M913.363 10.1738C914.003 22.629 915.513 35.0226 917.882 47.262C913.913 35.336 912.376 22.7187 913.363 10.1738V10.1738Z" fill="#02221F"/>
<path d="M780.269 84.8362L779.46 87.6559L782.38 87.3791C788.317 86.8165 791.802 88.6672 793.937 91.322C796.177 94.108 797.175 98.0841 797.404 102.115L797.642 106.294L800.744 103.483C803.543 100.947 806.31 100.183 809.156 100.297C812.125 100.415 815.244 101.49 818.695 102.855L820.657 99.4157C819.458 98.4843 817.42 96.277 816.25 93.3768C815.111 90.5517 814.815 87.1459 816.85 83.5092L818.662 80.2701L814.96 80.5378C813.51 80.6427 811.422 80.3204 809.546 79.584C807.698 78.8582 806.546 77.9287 806.124 77.1111C805.514 73.9503 805.737 70.681 806.775 67.6345L807.834 64.5234L804.584 65.0122C798.691 65.8986 792.67 64.9782 787.296 62.368L783.877 60.7078L784.439 64.4291C784.44 64.4409 784.441 64.461 784.443 64.4899C784.448 64.5823 784.453 64.7625 784.446 65.0481C784.432 65.6204 784.369 66.6038 784.153 68.1346C783.721 71.1996 782.688 76.4101 780.269 84.8362Z" fill="#5DC68D" stroke="#02221F" stroke-width="4"/>
<path d="M813.15 96.2901C804.333 87.5804 796.13 78.2558 788.601 68.3848C794.828 79.2773 803.181 88.772 813.15 96.2901V96.2901Z" fill="#02221F"/>
<path d="M802.894 67.704C797.029 67.7086 791.195 66.8227 785.589 65.0757C785.187 64.9485 784.85 64.666 784.652 64.2895C784.454 63.913 784.411 63.4727 784.531 63.0639C784.586 62.8574 784.681 62.6644 784.813 62.497C784.944 62.3296 785.108 62.1914 785.295 62.0909C785.481 61.9905 785.686 61.93 785.896 61.9131C786.107 61.8963 786.318 61.9236 786.518 61.9931C800.078 66.1577 814.689 64.9992 827.443 58.7483C840.13 52.4266 850.003 41.5035 855.1 28.1498C855.175 27.9487 855.288 27.7645 855.434 27.6081C855.579 27.4516 855.754 27.326 855.948 27.2384C856.141 27.1509 856.35 27.1032 856.563 27.0981C856.775 27.093 856.986 27.1307 857.183 27.2088C857.381 27.2809 857.562 27.3923 857.716 27.5365C857.871 27.6807 857.995 27.8548 858.081 28.0484C858.168 28.242 858.215 28.4512 858.221 28.6637C858.226 28.8762 858.19 29.0876 858.113 29.2855C852.736 43.4521 842.274 55.0408 828.821 61.7336C820.739 65.6919 811.872 67.7337 802.894 67.704Z" fill="#02221F"/>
<path d="M791.037 65.5623C789.276 65.5709 787.518 65.4298 785.781 65.1404C785.363 65.0612 784.992 64.8205 784.747 64.4691C784.502 64.1178 784.401 63.6836 784.467 63.2585C784.502 63.0471 784.578 62.8448 784.69 62.6633C784.803 62.4818 784.95 62.3247 785.122 62.201C785.295 62.0773 785.491 61.9895 785.697 61.9427C785.904 61.8958 786.117 61.8909 786.326 61.9281C795.94 63.6478 807.157 59.5269 813.855 55.4385C821.589 50.7053 827.398 43.3283 830.231 34.6393C830.37 34.2357 830.658 33.9023 831.034 33.7087C831.411 33.5152 831.846 33.4766 832.25 33.6009C832.452 33.6633 832.64 33.7664 832.802 33.904C832.964 34.0417 833.097 34.211 833.193 34.4019C833.289 34.5928 833.345 34.8014 833.36 35.015C833.374 35.2286 833.345 35.443 833.276 35.6452C830.208 45.1196 823.901 53.1741 815.489 58.3588C808.071 62.8154 799.658 65.2939 791.037 65.5623V65.5623Z" fill="#02221F"/>
<path d="M816.451 71.0791C805.827 71.1366 795.297 69.0748 785.46 65.0113C785.265 64.9326 785.086 64.8156 784.935 64.667C784.784 64.5184 784.663 64.3411 784.58 64.1452C784.496 63.9493 784.452 63.7386 784.449 63.5254C784.446 63.3121 784.485 63.1003 784.563 62.9022C784.739 62.5107 785.056 62.2021 785.449 62.0392C785.842 61.8764 786.282 61.8717 786.678 62.0261C806.542 70.0089 828.707 69.7759 848.402 61.3771C848.799 61.2227 849.238 61.2274 849.632 61.3903C850.025 61.5531 850.342 61.8618 850.518 62.2532C850.601 62.4488 850.645 62.6594 850.646 62.8724C850.647 63.0854 850.607 63.2966 850.526 63.4933C850.445 63.69 850.326 63.8683 850.176 64.0176C850.026 64.1669 849.848 64.2841 849.652 64.3623C839.135 68.8096 827.848 71.0929 816.451 71.0791V71.0791Z" fill="#02221F"/>
<path d="M850.319 69.2991C851.57 69.5529 852.867 69.4252 854.044 68.933C855.621 68.2741 856.868 67.0121 857.518 65.4319C858.168 63.8525 858.172 62.0778 857.53 60.4951C857.05 59.3125 856.233 58.2966 855.178 57.5786C854.123 56.8606 852.878 56.474 851.602 56.4707C850.326 56.4675 849.079 56.8478 848.021 57.5605C846.962 58.2731 846.14 59.2849 845.654 60.4652C845.169 61.6451 845.04 62.943 845.283 64.1957C845.527 65.4485 846.133 66.6032 847.028 67.5125C847.924 68.4222 849.068 69.0453 850.319 69.2991Z" fill="#FC525A" stroke="#02221F" stroke-width="4"/>
<path d="M855.319 35.0657C856.567 35.3191 857.861 35.1923 859.037 34.7024C859.821 34.3807 860.532 33.9056 861.131 33.3059C861.731 32.7045 862.206 31.9897 862.53 31.2037C862.853 30.4177 863.019 29.5754 863.018 28.7254C863.017 27.8779 862.85 27.0383 862.527 26.255C862.047 25.0753 861.231 24.0618 860.178 23.3453C859.123 22.6272 857.878 22.2406 856.602 22.2373C855.325 22.2341 854.079 22.6144 853.02 23.3271C851.962 24.0397 851.139 25.0515 850.654 26.2318C850.168 27.4118 850.04 28.7097 850.283 29.9623C850.527 31.215 851.133 32.3697 852.028 33.2791C852.923 34.1888 854.068 34.8119 855.319 35.0657Z" fill="#FC525A" stroke="#02221F" stroke-width="4"/>
<path d="M831.809 41.4377C833.049 41.6964 834.336 41.578 835.507 41.0985C836.294 40.7767 837.007 40.3006 837.608 39.6991C838.208 39.0977 838.683 38.3829 839.007 37.5969C839.33 36.8109 839.496 35.9686 839.495 35.1187C839.494 34.2687 839.326 33.4267 839.001 32.6415C838.517 31.472 837.7 30.4696 836.65 29.7634C835.599 29.0569 834.363 28.6792 833.097 28.6807C831.831 28.6821 830.596 29.0627 829.547 29.7716C828.498 30.4803 827.684 31.4845 827.202 32.6552C826.72 33.8255 826.592 35.1126 826.831 36.3554C827.071 37.5984 827.668 38.7452 828.553 39.6504C829.438 40.5559 830.57 41.179 831.809 41.4377Z" fill="#FC525A" stroke="#02221F" stroke-width="4"/>
<path d="M870.157 85.8609L876.175 85.5872L871.189 82.2074C863.395 76.925 856.222 72.7315 846.116 73.9271L841.471 74.4765L845.077 77.4552C852.129 83.2804 861.057 86.2748 870.157 85.8609Z" fill="#5DC68D" stroke="#02221F" stroke-width="4"/>
<path d="M861.491 70.091L855.978 71.6101L861.236 73.8582C867.312 76.4557 874.029 77.1083 880.484 75.7271L880.065 73.7714L880.957 71.9809C874.913 68.9729 867.991 68.3002 861.491 70.091Z" fill="#5DC68D" stroke="#02221F" stroke-width="4"/>
<path d="M777.265 48.7594L774.508 51.8738L778.662 52.0826C782.96 52.2987 787.258 51.6483 791.305 50.1695C795.353 48.6907 799.068 46.4135 802.236 43.4711L800.875 42.0056L801.172 40.0278C796.783 39.3681 792.3 39.8212 788.127 41.346C783.954 42.8708 780.222 45.4188 777.265 48.7594Z" fill="#5DC68D" stroke="#02221F" stroke-width="4"/>
<path d="M1070.56 57.2666L1070.55 57.2717L1070.55 57.2768C1069.65 58.1839 1069.04 59.3372 1068.79 60.5892C1068.55 61.8411 1068.67 63.1394 1069.15 64.3207C1069.64 65.5022 1070.46 66.5161 1071.51 67.2312C1072.57 67.9467 1073.82 68.3301 1075.09 68.3301C1076.37 68.3301 1077.61 67.9467 1078.67 67.2312C1079.73 66.516 1080.55 65.5021 1081.03 64.3207C1081.51 63.1395 1081.64 61.8413 1081.39 60.5892C1081.15 59.3371 1080.54 58.1838 1079.64 57.2768L1078.22 58.6834L1079.63 57.2666C1078.42 56.0654 1076.79 55.3877 1075.09 55.3877C1073.39 55.3877 1071.76 56.0654 1070.56 57.2666Z" fill="#FC525A" stroke="#02221F" stroke-width="4"/>
<path d="M1089.25 70.3637C1089.03 69.1237 1088.46 67.9727 1087.6 67.054C1087 66.4118 1086.28 65.8982 1085.48 65.5463C1084.67 65.1933 1083.81 65.0107 1082.93 65.0107C1082.05 65.0107 1081.18 65.1933 1080.38 65.5463C1079.58 65.8982 1078.86 66.4118 1078.26 67.054C1077.4 67.9727 1076.83 69.1237 1076.61 70.3637C1076.39 71.6062 1076.53 72.8872 1077.02 74.0491C1077.51 75.2111 1078.33 76.2053 1079.38 76.9057C1080.43 77.6063 1081.67 77.9812 1082.93 77.9812C1084.19 77.9812 1085.42 77.6063 1086.47 76.9057C1087.52 76.2053 1088.34 75.2111 1088.83 74.0491C1089.33 72.8872 1089.47 71.6062 1089.25 70.3637Z" fill="#FC525A" stroke="#02221F" stroke-width="4"/>
<path d="M1087.83 66.1614C1089.1 66.0631 1090.31 65.5838 1091.31 64.7879C1092.31 63.9923 1093.05 62.9168 1093.44 61.7C1093.84 60.4835 1093.86 59.1776 1093.52 57.9468C1093.17 56.7158 1092.48 55.6122 1091.51 54.778C1090.54 53.9435 1089.35 53.4166 1088.08 53.2679C1086.81 53.1191 1085.52 53.3558 1084.39 53.9459C1083.26 54.5359 1082.33 55.4514 1081.71 56.5725C1081.1 57.6935 1080.83 58.9715 1080.94 60.2449C1081.08 61.9402 1081.87 63.5162 1083.16 64.6269C1084.45 65.7383 1086.13 66.2924 1087.83 66.1614Z" fill="#FC525A" stroke="#02221F" stroke-width="4"/>
<path d="M1042.77 72.1851L1043.06 75.1386L1045.69 73.7565C1053.37 69.7162 1058.21 67.7285 1061.08 66.7541C1062.51 66.2676 1063.44 66.0382 1063.98 65.9311C1064.25 65.8777 1064.42 65.8553 1064.5 65.8464C1064.52 65.8443 1064.54 65.8429 1064.55 65.8421H1068.5L1066.1 62.6433C1062.49 57.8214 1060.39 52.0083 1060.09 45.9595L1059.92 42.6976L1057.09 44.3274C1054.32 45.9245 1051.18 46.7501 1048 46.7242C1047.09 46.4917 1045.95 45.5461 1044.9 43.8438C1043.84 42.1298 1043.18 40.1192 1043.07 38.6664L1042.75 34.683L1039.75 37.3235C1036.62 40.0772 1033.29 40.4233 1030.36 39.8222C1027.34 39.203 1024.8 37.5775 1023.66 36.5544L1020.62 39.0903C1022.62 42.3538 1024.26 45.2553 1024.94 48.1818C1025.59 50.9856 1025.38 53.8655 1023.45 57.1528L1021.35 60.7453L1025.47 60.1426C1029.49 59.5542 1033.56 59.7625 1036.69 61.4369C1039.69 63.0341 1042.17 66.1454 1042.77 72.1851Z" fill="#5DC68D" stroke="#02221F" stroke-width="4"/>
<path d="M1028.38 43.2705C1038.51 50.3774 1049.11 56.7634 1060.11 62.3824C1048.36 58.2557 1037.57 51.7533 1028.38 43.2705V43.2705Z" fill="#02221F"/>
<path d="M1055.26 39.3952L1053.17 41.4078L1055.8 42.6462C1063.65 46.3505 1068.19 48.9975 1070.74 50.6885C1072.01 51.533 1072.78 52.1319 1073.21 52.4968C1073.42 52.6789 1073.55 52.8007 1073.61 52.8636C1073.63 52.8815 1073.64 52.8944 1073.65 52.9026L1076.07 55.8768L1077.1 52.1442C1078.71 46.3226 1082.01 41.1282 1086.57 37.2298L1089.06 35.0996L1086.03 33.8592C1083.09 32.6592 1080.52 30.7012 1078.56 28.1788C1078.2 27.2938 1078.26 25.8151 1078.95 23.9494C1079.65 22.0627 1080.82 20.2716 1081.87 19.2133L1084.48 16.6094L1080.88 15.8428C1076.87 14.9905 1074.54 12.5217 1073.18 9.78115C1071.79 6.9691 1071.49 3.96314 1071.59 2.46203L1067.71 1.65218C1066.46 5.17435 1065.2 8.26543 1063.32 10.6123C1061.52 12.8672 1059.12 14.472 1055.41 14.9385L1051.27 15.4581L1054.26 18.3593C1057.09 21.1022 1059.38 24.4353 1059.97 27.9569C1060.54 31.3265 1059.6 35.2221 1055.26 39.3952Z" fill="#5DC68D" stroke="#02221F" stroke-width="4"/>
<path d="M1069.05 10.1738C1069.72 22.6283 1071.24 35.0209 1073.6 47.262C1069.62 35.338 1068.08 22.7209 1069.05 10.1738V10.1738Z" fill="#02221F"/>
<path d="M935.99 84.8329L935.175 87.6557L938.1 87.3791C944.055 86.8162 947.538 88.6683 949.668 91.3208C951.904 94.1058 952.895 98.081 953.125 102.115L953.363 106.294L956.465 103.483C959.262 100.948 962.037 100.183 964.888 100.297C967.861 100.415 970.981 101.49 974.413 102.854L976.386 99.4223C975.197 98.489 973.165 96.279 971.995 93.3768C970.854 90.548 970.552 87.1402 972.573 83.5042L974.37 80.271L970.681 80.5378C969.23 80.6427 967.142 80.3203 965.272 79.5844C963.418 78.855 962.279 77.9237 961.875 77.1142C961.238 73.9575 961.451 70.6837 962.494 67.638L963.559 64.5289L960.308 65.0117C954.412 65.8872 948.392 64.967 943.013 62.3664L939.569 60.7014L940.161 64.4424C940.162 64.454 940.163 64.4733 940.165 64.5007C940.17 64.5919 940.177 64.771 940.171 65.0556C940.16 65.6259 940.099 66.6075 939.885 68.137C939.457 71.1994 938.425 76.4079 935.99 84.8329Z" fill="#5DC68D" stroke="#02221F" stroke-width="4"/>
<path d="M968.87 96.2901C960.053 87.5804 951.85 78.2558 944.322 68.3848C950.558 79.2704 958.909 88.7633 968.87 96.2901V96.2901Z" fill="#02221F"/>
<path d="M958.615 67.704C952.749 67.7062 946.916 66.8203 941.309 65.0757C940.907 64.9484 940.57 64.666 940.372 64.2895C940.174 63.913 940.131 63.4727 940.251 63.0639C940.309 62.8562 940.409 62.6626 940.543 62.495C940.678 62.3274 940.845 62.1893 941.033 62.0891C941.222 61.9889 941.429 61.9287 941.642 61.9122C941.855 61.8957 942.068 61.9233 942.27 61.9931C955.819 66.1589 970.421 65.0002 983.163 58.7483C995.858 52.4279 1005.74 41.5057 1010.85 28.1498C1010.91 27.9283 1011.01 27.7212 1011.15 27.5419C1011.29 27.3626 1011.46 27.2152 1011.66 27.1094C1011.86 27.0036 1012.08 26.9417 1012.31 26.9278C1012.53 26.9139 1012.76 26.9483 1012.97 27.0288C1013.18 27.1092 1013.37 27.2339 1013.53 27.3947C1013.69 27.5555 1013.82 27.7487 1013.9 27.9617C1013.98 28.1748 1014.02 28.4028 1014.01 28.6309C1013.99 28.859 1013.94 29.0821 1013.83 29.2855C1008.45 43.4379 998.005 55.0213 984.573 61.7336C976.48 65.6924 967.603 67.7341 958.615 67.704V67.704Z" fill="#02221F"/>
<path d="M946.757 65.5631C944.997 65.5688 943.239 65.4278 941.501 65.1412C941.086 65.0623 940.717 64.8202 940.477 64.4677C940.237 64.1151 940.145 63.6807 940.219 63.2592C940.25 63.0459 940.323 62.8412 940.435 62.6574C940.546 62.4736 940.693 62.3147 940.867 62.1903C941.041 62.0658 941.238 61.9785 941.446 61.9336C941.654 61.8886 941.869 61.887 942.078 61.9289C951.693 63.6486 962.877 59.5277 969.575 55.4393C977.318 50.7076 983.137 43.3314 985.984 34.6401C986.043 34.4303 986.143 34.2347 986.279 34.0651C986.414 33.8954 986.582 33.7552 986.772 33.6528C986.963 33.5504 987.171 33.4879 987.386 33.469C987.601 33.4501 987.817 33.4753 988.022 33.5429C988.226 33.6106 988.416 33.7194 988.578 33.8629C988.74 34.0063 988.873 34.1814 988.967 34.3778C989.061 34.5741 989.114 34.7876 989.125 35.0055C989.136 35.2234 989.103 35.4412 989.028 35.646C985.95 45.1241 979.631 53.1785 971.21 58.3596C963.793 62.8201 955.379 65.2989 946.757 65.5631V65.5631Z" fill="#02221F"/>
<path d="M972.171 71.0783C961.548 71.1358 951.017 69.074 941.181 65.0105C940.985 64.9323 940.807 64.8151 940.657 64.6658C940.507 64.5165 940.388 64.3382 940.307 64.1415C940.226 63.9447 940.185 63.7336 940.187 63.5206C940.188 63.3075 940.232 63.097 940.315 62.9014C940.485 62.5123 940.796 62.2043 941.184 62.0412C941.572 61.8781 942.007 61.8724 942.399 62.0253C962.273 70.0065 984.448 69.7735 1004.15 61.3763C1004.55 61.2234 1004.98 61.2291 1005.37 61.3922C1005.76 61.5553 1006.07 61.8634 1006.24 62.2524C1006.32 62.446 1006.37 62.6547 1006.37 62.8662C1006.37 63.0777 1006.34 63.2878 1006.26 63.4843C1006.18 63.6807 1006.07 63.8595 1005.92 64.0101C1005.77 64.1607 1005.6 64.2802 1005.4 64.3616C994.876 68.8097 983.579 71.0929 972.171 71.0783V71.0783Z" fill="#02221F"/>
<path d="M1006.04 69.2991C1007.29 69.5524 1008.58 69.4257 1009.76 68.9359C1010.54 68.6141 1011.25 68.1391 1011.85 67.5393C1012.45 66.9379 1012.93 66.2231 1013.25 65.4371C1013.57 64.6511 1013.74 63.8088 1013.74 62.9588C1013.74 62.1113 1013.57 61.2717 1013.25 60.4884C1012.77 59.3086 1011.95 58.2952 1010.9 57.5786C1009.84 56.8606 1008.6 56.474 1007.32 56.4707C1006.05 56.4675 1004.8 56.8478 1003.74 57.5605C1002.68 58.2731 1001.86 59.2849 1001.37 60.4652C1000.89 61.6452 1000.76 62.9431 1001 64.1957C1001.25 65.4484 1001.85 66.6031 1002.75 67.5125C1003.64 68.4222 1004.79 69.0453 1006.04 69.2991Z" fill="#FC525A" stroke="#02221F" stroke-width="4"/>
<path d="M1011.07 35.0657C1012.32 35.3195 1013.62 35.1918 1014.8 34.6996C1016.37 34.0407 1017.62 32.7787 1018.27 31.1985C1018.92 29.6191 1018.92 27.8444 1018.28 26.2617C1017.8 25.0791 1016.99 24.0632 1015.93 23.3453C1014.88 22.6272 1013.63 22.2406 1012.35 22.2373C1011.08 22.2341 1009.83 22.6144 1008.77 23.3271C1007.71 24.0396 1006.89 25.0514 1006.41 26.2318C1005.92 27.4118 1005.79 28.7097 1006.04 29.9623C1006.28 31.2151 1006.89 32.3698 1007.78 33.2791C1008.68 34.1888 1009.82 34.8119 1011.07 35.0657Z" fill="#FC525A" stroke="#02221F" stroke-width="4"/>
<path d="M991.27 41.0933C989.692 41.7499 987.919 41.7454 986.343 41.0808C984.769 40.4167 983.527 39.151 982.882 37.569L991.27 41.0933ZM991.27 41.0933L990.502 39.2466M991.27 41.0933L990.502 39.2466M990.502 39.2466L991.286 41.0867C992.854 40.4189 994.09 39.1533 994.731 37.5741C995.372 35.9959 995.37 34.2265 994.725 32.65L990.502 39.2466ZM982.886 32.6416C982.239 34.2187 982.238 35.9898 982.882 37.568L994.725 32.649C994.08 31.0704 992.839 29.8079 991.267 29.1472C989.693 28.486 987.924 28.4847 986.349 29.1437C984.776 29.8023 983.533 31.0634 982.886 32.6416Z" fill="#FC525A" stroke="#02221F" stroke-width="4"/>
<path d="M1025.87 85.8611L1031.9 85.602L1026.91 82.2096C1019.14 76.9225 1011.88 72.7312 1001.83 73.9273L997.18 74.4817L1000.8 77.4583C1007.86 83.2616 1016.78 86.2524 1025.87 85.8611Z" fill="#5DC68D" stroke="#02221F" stroke-width="4"/>
<path d="M1017.24 70.0926L1011.76 71.617L1016.99 73.8576C1023.05 76.4574 1029.76 77.1103 1036.21 75.727L1035.79 73.7716L1036.68 71.9837C1030.65 68.9602 1023.73 68.2864 1017.24 70.0926Z" fill="#5DC68D" stroke="#02221F" stroke-width="4"/>
<path d="M932.888 48.7597L930.146 51.8611L934.28 52.0815C938.596 52.3116 942.913 51.668 946.979 50.1888C951.045 48.7097 954.777 46.4251 957.957 43.47L956.596 42.0048L956.9 40.0281C952.494 39.3501 947.991 39.7942 943.798 41.3196C939.605 42.845 935.856 45.4028 932.888 48.7597Z" fill="#5DC68D" stroke="#02221F" stroke-width="4"/>
<path d="M1236.65 59.4393C1236.34 58.6457 1235.88 57.9199 1235.29 57.3038C1234.1 56.0591 1232.47 55.3377 1230.75 55.3067C1229.03 55.2757 1227.38 55.9379 1226.15 57.1396C1224.92 58.3405 1224.21 59.9813 1224.18 61.6994C1224.15 63.4176 1224.8 65.0822 1225.98 66.326C1226.57 66.9422 1227.27 67.4365 1228.05 67.7797C1228.83 68.1229 1229.67 68.3078 1230.52 68.3231C1231.37 68.3385 1232.22 68.184 1233.01 67.869C1233.8 67.554 1234.52 67.0851 1235.13 66.4903C1235.74 65.8955 1236.22 65.1865 1236.56 64.4043C1236.89 63.6222 1237.07 62.7816 1237.09 61.9304C1237.1 61.0792 1236.95 60.2328 1236.65 59.4393Z" fill="#FC525A" stroke="#02221F" stroke-width="4"/>
<path d="M1245.04 70.3162C1244.79 69.0646 1244.17 67.9135 1243.27 67.0097C1242.68 66.4107 1241.98 65.934 1241.2 65.6079C1240.42 65.2809 1239.59 65.1123 1238.74 65.1123C1237.9 65.1123 1237.07 65.2809 1236.29 65.6079C1235.51 65.934 1234.81 66.4107 1234.22 67.0097C1233.32 67.9135 1232.7 69.0646 1232.45 70.3162C1232.2 71.5699 1232.32 72.8715 1232.8 74.0566C1233.28 75.2418 1234.1 76.2596 1235.16 76.9778C1236.22 77.6962 1237.47 78.0813 1238.74 78.0813C1240.02 78.0813 1241.27 77.6962 1242.33 76.9778C1243.39 76.2596 1244.21 75.2418 1244.69 74.0566C1245.17 72.8715 1245.29 71.5699 1245.04 70.3162Z" fill="#FC525A" stroke="#02221F" stroke-width="4"/>
<path d="M1236.72 60.2449L1236.72 60.2449L1236.72 60.2589C1236.87 61.9458 1237.67 63.5111 1238.96 64.6169C1240.24 65.7235 1241.9 66.2807 1243.6 66.1625L1243.46 64.1673L1243.61 66.1614C1244.88 66.0631 1246.1 65.5838 1247.1 64.7879C1248.1 63.9923 1248.84 62.9168 1249.23 61.7C1249.62 60.4834 1249.65 59.1775 1249.3 57.9468C1248.96 56.7159 1248.26 55.6123 1247.29 54.778C1246.32 53.9435 1245.13 53.4166 1243.86 53.2679C1242.59 53.1191 1241.31 53.3558 1240.17 53.9459C1239.04 54.5359 1238.11 55.4514 1237.5 56.5725C1236.88 57.6934 1236.61 58.9713 1236.72 60.2449Z" fill="#FC525A" stroke="#02221F" stroke-width="4"/>
<path d="M1198.46 72.1803L1198.75 75.1395L1201.38 73.7573C1209.07 69.7168 1213.92 67.7289 1216.79 66.7544C1218.23 66.2677 1219.16 66.0383 1219.7 65.9312C1219.97 65.8777 1220.14 65.8554 1220.22 65.8464C1220.24 65.8443 1220.26 65.8429 1220.27 65.8421H1224.17L1221.83 62.6577C1218.28 57.8178 1216.23 52.0061 1215.97 45.9737L1215.83 42.6831L1212.97 44.3278C1210.21 45.9206 1207.08 46.7459 1203.91 46.7239C1203 46.491 1201.86 45.5452 1200.81 43.8413C1199.75 42.1261 1199.08 40.1103 1198.95 38.649L1198.6 34.7116L1195.63 37.3235C1192.51 40.0772 1189.17 40.4233 1186.24 39.8222C1183.22 39.203 1180.68 37.5775 1179.54 36.5544L1176.5 39.0964C1178.52 42.3582 1180.16 45.2585 1180.85 48.1818C1181.5 50.9816 1181.28 53.8594 1179.34 57.1474L1177.2 60.7606L1181.35 60.1418C1185.29 59.555 1189.31 59.7622 1192.43 61.4343C1195.4 63.0298 1197.87 66.1407 1198.46 72.1803Z" fill="#5DC68D" stroke="#02221F" stroke-width="4"/>
<path d="M1184.1 43.2705C1194.23 50.3774 1204.83 56.7634 1215.83 62.3824C1204.09 58.2483 1193.29 51.7467 1184.1 43.2705V43.2705Z" fill="#02221F"/>
<path d="M1210.99 39.3929L1208.88 41.4056L1211.52 42.6462C1219.38 46.3507 1223.92 48.9981 1226.48 50.69C1227.76 51.535 1228.53 52.1346 1228.96 52.5007C1229.17 52.6833 1229.3 52.8058 1229.37 52.8695C1229.38 52.8884 1229.4 52.902 1229.41 52.9104L1231.82 55.8468L1232.85 52.1461C1234.47 46.3309 1237.76 41.1378 1242.29 37.2247L1244.76 35.097L1241.75 33.8601C1238.82 32.6586 1236.25 30.698 1234.31 28.1736C1233.93 27.2925 1233.99 25.8164 1234.68 23.9494C1235.38 22.0665 1236.55 20.2787 1237.62 19.2221L1240.27 16.6044L1236.62 15.8414C1232.54 14.9862 1230.21 12.5149 1228.87 9.78847C1227.5 6.98691 1227.22 3.97656 1227.31 2.44451L1223.43 1.65981C1222.2 5.17909 1220.94 8.26797 1219.07 10.6123C1217.27 12.8649 1214.86 14.4713 1211.13 14.9384L1206.99 15.4564L1209.98 18.3593C1212.82 21.1039 1215.11 24.4376 1215.71 27.9587C1216.27 31.3259 1215.34 35.2198 1210.99 39.3929Z" fill="#5DC68D" stroke="#02221F" stroke-width="4"/>
<path d="M1224.8 10.1738C1225.44 22.629 1226.95 35.0226 1229.32 47.262C1225.34 35.3396 1223.8 22.7191 1224.8 10.1738V10.1738Z" fill="#02221F"/>
<path d="M1091.74 84.8362L1090.93 87.6559L1093.85 87.3791C1099.79 86.8165 1103.27 88.6671 1105.39 91.3197C1107.62 94.105 1108.62 98.081 1108.85 102.115L1109.08 106.281L1112.18 103.487C1115 100.948 1117.77 100.183 1120.62 100.297C1123.59 100.415 1126.7 101.49 1130.13 102.854L1132.11 99.4223C1130.92 98.489 1128.89 96.2796 1127.72 93.3788C1126.58 90.5523 1126.29 87.1459 1128.32 83.5092L1130.13 80.2725L1126.43 80.5377C1124.97 80.643 1122.87 80.3195 1121 79.584C1119.14 78.8567 1118.01 77.9285 1117.6 77.1211C1116.99 73.9542 1117.2 70.6801 1118.22 67.6206L1119.25 64.5338L1116.03 65.0117C1110.13 65.8872 1104.11 64.967 1098.73 62.3664L1095.29 60.7014L1095.88 64.4427C1095.88 64.4543 1095.88 64.4738 1095.89 64.5016C1095.89 64.593 1095.9 64.7724 1095.89 65.0571C1095.88 65.6278 1095.82 66.6098 1095.61 68.1394C1095.19 71.2023 1094.16 76.4111 1091.74 84.8362Z" fill="#5DC68D" stroke="#02221F" stroke-width="4"/>
<path d="M1124.62 96.2901C1115.8 87.5809 1107.58 78.2563 1100.04 68.3848C1106.28 79.2788 1114.64 88.7732 1124.62 96.2901V96.2901Z" fill="#02221F"/>
<path d="M1114.37 67.704C1108.5 67.7111 1102.67 66.8251 1097.06 65.0757C1096.7 64.9163 1096.41 64.6286 1096.25 64.2672C1096.08 63.9058 1096.06 63.496 1096.17 63.1156C1096.29 62.7351 1096.53 62.4106 1096.87 62.2037C1097.21 61.9967 1097.6 61.9218 1097.99 61.9931C1111.54 66.1589 1126.14 65.0002 1138.88 58.7483C1151.57 52.4214 1161.44 41.5001 1166.54 28.1498C1166.6 27.9283 1166.7 27.7212 1166.84 27.5419C1166.98 27.3626 1167.15 27.2152 1167.35 27.1094C1167.55 27.0036 1167.77 26.9417 1168 26.9278C1168.22 26.9139 1168.45 26.9483 1168.66 27.0288C1168.87 27.1092 1169.06 27.2339 1169.22 27.3947C1169.38 27.5555 1169.51 27.7487 1169.59 27.9617C1169.67 28.1748 1169.71 28.4028 1169.69 28.6309C1169.68 28.859 1169.62 29.0821 1169.52 29.2855C1164.17 43.4567 1153.71 55.05 1140.26 61.7335C1132.19 65.6871 1123.33 67.7288 1114.37 67.704V67.704Z" fill="#02221F"/>
<path d="M1102.45 65.5623C1100.7 65.5696 1098.95 65.4285 1097.22 65.1405C1096.8 65.0673 1096.42 64.8262 1096.17 64.4702C1095.92 64.1143 1095.82 63.6725 1095.89 63.2422C1095.96 62.812 1096.2 62.4284 1096.55 62.1758C1096.91 61.9233 1097.34 61.8225 1097.77 61.8956C1107.38 63.6154 1118.6 59.4945 1125.26 55.406C1133.01 50.6882 1138.84 43.3237 1141.7 34.6393C1141.84 34.2357 1142.13 33.9023 1142.51 33.7087C1142.88 33.5152 1143.32 33.4766 1143.72 33.6009C1144.13 33.7346 1144.46 34.0249 1144.65 34.4082C1144.85 34.7915 1144.88 35.2364 1144.75 35.6452C1141.68 45.1196 1135.37 53.1741 1126.96 58.3588C1119.52 62.8246 1111.09 65.3034 1102.45 65.5623V65.5623Z" fill="#02221F"/>
<path d="M1127.89 71.0791C1117.27 71.1341 1106.74 69.0723 1096.9 65.0113C1096.51 64.8462 1096.2 64.532 1096.04 64.137C1095.88 63.742 1095.88 63.2982 1096.04 62.9022C1096.21 62.5131 1096.52 62.2051 1096.9 62.042C1097.29 61.8789 1097.73 61.8732 1098.12 62.0261C1117.99 70.0073 1140.17 69.7743 1159.87 61.3771C1160.27 61.2227 1160.71 61.2274 1161.1 61.3903C1161.5 61.5531 1161.81 61.8618 1161.99 62.2532C1162.14 62.65 1162.14 63.0904 1161.97 63.4831C1161.81 63.8758 1161.51 64.1907 1161.12 64.3623C1150.6 68.813 1139.3 71.0963 1127.89 71.0791V71.0791Z" fill="#02221F"/>
<path d="M1161.79 69.2991C1163.04 69.5529 1164.34 69.4252 1165.52 68.933C1167.09 68.2741 1168.34 67.0121 1168.99 65.4319C1169.64 63.8525 1169.65 62.0778 1169 60.4951C1168.52 59.3125 1167.71 58.2966 1166.65 57.5786C1165.6 56.8606 1164.35 56.474 1163.07 56.4707C1161.8 56.4675 1160.55 56.8478 1159.49 57.5605C1158.43 58.2731 1157.61 59.2849 1157.13 60.4652C1156.64 61.6451 1156.51 62.943 1156.76 64.1957C1157 65.4485 1157.61 66.6032 1158.5 67.5125C1159.4 68.4222 1160.54 69.0453 1161.79 69.2991Z" fill="#FC525A" stroke="#02221F" stroke-width="4"/>
<path d="M1165.71 34.278C1167.11 35.0025 1168.72 35.1858 1170.25 34.7911C1171.13 34.5619 1171.96 34.1454 1172.67 33.5706C1173.38 32.996 1173.96 32.2764 1174.37 31.4606C1174.78 30.645 1175.02 29.7511 1175.06 28.838C1175.11 27.9248 1174.96 27.012 1174.63 26.1597C1174.3 25.3073 1173.8 24.5338 1173.15 23.8912C1172.5 23.2486 1171.72 22.7516 1170.86 22.4347C1170 22.1178 1169.09 21.9888 1168.18 22.0567C1167.27 22.1246 1166.38 22.3877 1165.58 22.8276C1164.2 23.5849 1163.15 24.8227 1162.61 26.3028C1162.08 27.7824 1162.1 29.4074 1162.67 30.874C1163.24 32.3412 1164.32 33.5538 1165.71 34.278Z" fill="#FC525A" stroke="#02221F" stroke-width="4"/>
<path d="M1138.57 37.4919L1138.59 37.5306L1138.6 37.5687C1139.25 39.1511 1140.49 40.4173 1142.06 41.0815C1143.64 41.7461 1145.41 41.7506 1146.99 41.094L1146.22 39.2473L1146.99 41.0927C1148.57 40.4338 1149.82 39.1717 1150.47 37.5916C1151.12 36.0121 1151.12 34.2375 1150.48 32.6548L1150.46 32.6166L1150.45 32.5791C1149.76 31.0631 1148.51 29.8685 1146.97 29.2528C1145.42 28.6368 1143.69 28.6509 1142.16 29.2921C1140.62 29.9329 1139.39 31.1476 1138.73 32.6744C1138.06 34.2005 1138.01 35.9259 1138.57 37.4919Z" fill="#FC525A" stroke="#02221F" stroke-width="4"/>
<path d="M1181.63 85.8611L1187.66 85.5962L1182.66 82.2074C1174.86 76.923 1167.63 72.7314 1157.56 73.9272L1152.9 74.48L1156.52 77.4582C1163.59 83.2695 1172.52 86.2607 1181.63 85.8611Z" fill="#5DC68D" stroke="#02221F" stroke-width="4"/>
<path d="M1172.96 70.0926L1167.48 71.617L1172.71 73.8576C1178.77 76.4574 1185.48 77.1103 1191.93 75.727L1191.51 73.7716L1192.4 71.9837C1186.37 68.9602 1179.45 68.2864 1172.96 70.0926Z" fill="#5DC68D" stroke="#02221F" stroke-width="4"/>
<path d="M1088.64 48.7597L1085.9 51.8629L1090.03 52.0816C1094.35 52.3097 1098.66 51.6652 1102.73 50.1863C1106.8 48.7073 1110.53 46.4239 1113.71 43.4706L1112.35 42.0048L1112.65 40.0281C1108.25 39.3501 1103.74 39.7942 1099.55 41.3196C1095.36 42.845 1091.61 45.4028 1088.64 48.7597Z" fill="#5DC68D" stroke="#02221F" stroke-width="4"/>
<path d="M1392.84 60.5812C1392.59 59.3273 1391.98 58.1741 1391.07 57.2696C1389.87 56.0686 1388.25 55.3906 1386.55 55.3906C1384.85 55.3906 1383.23 56.0686 1382.03 57.2696C1381.12 58.1741 1380.51 59.3273 1380.26 60.5812C1380 61.8349 1380.12 63.1365 1380.61 64.3216C1381.09 65.5069 1381.91 66.5247 1382.96 67.2428C1384.02 67.9611 1385.27 68.3463 1386.55 68.3463C1387.83 68.3463 1389.08 67.9612 1390.14 67.2428C1391.19 66.5246 1392.01 65.5068 1392.49 64.3216C1392.97 63.1365 1393.1 61.8349 1392.84 60.5812Z" fill="#FC525A" stroke="#02221F" stroke-width="4"/>
<path d="M1400.72 70.3637C1400.5 69.1237 1399.93 67.9727 1399.07 67.054C1398.47 66.4117 1397.75 65.8982 1396.95 65.5463C1396.15 65.1933 1395.28 65.0107 1394.4 65.0107C1393.52 65.0107 1392.65 65.1933 1391.85 65.5463C1391.05 65.8982 1390.33 66.4118 1389.73 67.054C1388.87 67.9727 1388.3 69.1237 1388.08 70.3637C1387.86 71.6062 1388 72.8872 1388.5 74.0491C1388.99 75.2111 1389.81 76.2053 1390.86 76.9057C1391.91 77.6063 1393.14 77.9812 1394.4 77.9812C1395.66 77.9812 1396.9 77.6063 1397.95 76.9057C1398.99 76.2053 1399.81 75.2111 1400.31 74.0491C1400.8 72.8872 1400.94 71.6062 1400.72 70.3637Z" fill="#FC525A" stroke="#02221F" stroke-width="4"/>
<path d="M1399.28 66.1625L1399.29 66.1619L1399.3 66.1614C1400.57 66.0631 1401.79 65.5838 1402.79 64.7879C1403.79 63.9923 1404.53 62.9168 1404.92 61.7C1405.31 60.4835 1405.33 59.1776 1404.99 57.9468C1404.65 56.7158 1403.95 55.6122 1402.98 54.778C1402.01 53.9435 1400.82 53.4166 1399.55 53.2679C1398.28 53.1191 1397 53.3558 1395.86 53.9459C1394.73 54.5359 1393.8 55.4514 1393.19 56.5725C1392.57 57.6935 1392.3 58.9715 1392.41 60.2449L1392.41 60.2449L1392.41 60.2589C1392.56 61.9458 1393.36 63.5111 1394.64 64.6169C1395.93 65.7235 1397.59 66.2807 1399.28 66.1625Z" fill="#FC525A" stroke="#02221F" stroke-width="4"/>
<path d="M1354.18 72.1803L1354.47 75.1422L1357.1 73.7565C1364.78 69.7165 1369.62 67.729 1372.5 66.7546C1373.94 66.2681 1374.87 66.0387 1375.42 65.9315C1375.69 65.878 1375.86 65.8555 1375.94 65.8465C1375.96 65.8443 1375.98 65.843 1375.99 65.8421H1379.87L1377.56 62.6655C1374.02 57.8065 1371.98 51.997 1371.69 45.964L1371.53 42.6888L1368.69 44.3286C1365.93 45.9238 1362.8 46.749 1359.63 46.7241C1358.72 46.4915 1357.58 45.5457 1356.53 43.8413C1355.47 42.1261 1354.8 40.1103 1354.67 38.649L1354.32 34.701L1351.35 37.3264C1348.24 40.0763 1344.91 40.4235 1341.98 39.8222C1338.95 39.2026 1336.42 37.5768 1335.3 36.5623L1332.25 39.0903C1334.25 42.3538 1335.89 45.2553 1336.57 48.1818C1337.23 50.9856 1337.01 53.8655 1335.09 57.1528L1332.97 60.7581L1337.11 60.1418C1341.04 59.555 1345.06 59.7625 1348.16 61.4334C1351.12 63.0278 1353.59 66.138 1354.18 72.1803Z" fill="#5DC68D" stroke="#02221F" stroke-width="4"/>
<path d="M1339.86 43.2705C1349.97 50.3911 1360.58 56.7777 1371.58 62.3824C1359.83 58.2631 1349.04 51.7599 1339.86 43.2705V43.2705Z" fill="#02221F"/>
<path d="M1366.71 39.3929L1364.61 41.4056L1367.24 42.6462C1375.1 46.3507 1379.64 48.9981 1382.2 50.69C1383.48 51.535 1384.25 52.1346 1384.68 52.5007C1384.89 52.6833 1385.02 52.8058 1385.09 52.8695C1385.1 52.8884 1385.12 52.902 1385.13 52.9103L1387.55 55.8504L1388.57 52.1442C1390.19 46.3226 1393.49 41.1282 1398.04 37.2298L1400.53 35.0996L1397.5 33.8592C1394.56 32.6581 1391.99 30.6976 1390.03 28.1718C1389.66 27.2943 1389.71 25.8221 1390.41 23.9524C1391.11 22.0675 1392.29 20.2744 1393.35 19.2133L1395.96 16.5988L1392.34 15.8414C1388.26 14.9861 1385.93 12.5149 1384.6 9.79031C1383.23 6.98936 1382.96 3.98336 1383.06 2.46203L1379.18 1.65218C1377.93 5.17435 1376.67 8.26543 1374.8 10.6123C1372.99 12.8672 1370.59 14.472 1366.88 14.9385L1362.76 15.4563L1365.73 18.3555C1368.55 21.1006 1370.84 24.4345 1371.43 27.9569C1371.99 31.3254 1371.06 35.22 1366.71 39.3929Z" fill="#5DC68D" stroke="#02221F" stroke-width="4"/>
<path d="M1380.52 10.1738C1381.18 22.6276 1382.69 35.0201 1385.04 47.262C1381.07 35.336 1379.54 22.7187 1380.52 10.1738V10.1738Z" fill="#02221F"/>
<path d="M1247.46 84.8329L1246.65 87.6564L1249.57 87.3791C1255.51 86.8165 1259 88.6672 1261.13 91.322C1263.37 94.108 1264.37 98.0841 1264.6 102.115L1264.84 106.294L1267.94 103.483C1270.74 100.947 1273.5 100.183 1276.35 100.297C1279.32 100.415 1282.44 101.49 1285.89 102.855L1287.86 99.4223C1286.67 98.4871 1284.63 96.276 1283.45 93.3749C1282.31 90.5479 1282.01 87.1434 1284.04 83.5092L1285.86 80.2701L1282.15 80.5378C1280.7 80.6427 1278.62 80.3203 1276.74 79.5844C1274.89 78.855 1273.75 77.9237 1273.35 77.1142C1272.71 73.9575 1272.92 70.6837 1273.97 67.638L1275.03 64.5224L1271.78 65.0122C1265.88 65.8986 1259.86 64.9782 1254.49 62.368L1251.04 60.6929L1251.63 64.4424C1251.63 64.454 1251.64 64.4733 1251.64 64.5007C1251.64 64.5919 1251.65 64.771 1251.64 65.0556C1251.63 65.6259 1251.57 66.6075 1251.36 68.137C1250.93 71.1994 1249.9 76.4079 1247.46 84.8329Z" fill="#5DC68D" stroke="#02221F" stroke-width="4"/>
<path d="M1280.34 96.2901C1271.53 87.5804 1263.32 78.2558 1255.79 68.3848C1262.02 79.2773 1270.37 88.772 1280.34 96.2901V96.2901Z" fill="#02221F"/>
<path d="M1270.09 67.704C1264.22 67.7086 1258.39 66.8227 1252.78 65.0757C1252.38 64.9485 1252.04 64.666 1251.85 64.2895C1251.65 63.913 1251.6 63.4727 1251.72 63.0639C1251.78 62.8574 1251.87 62.6644 1252.01 62.497C1252.14 62.3296 1252.3 62.1914 1252.49 62.0909C1252.67 61.9905 1252.88 61.93 1253.09 61.9131C1253.3 61.8963 1253.51 61.9236 1253.71 61.9931C1267.27 66.1577 1281.88 64.9992 1294.64 58.7483C1307.33 52.437 1317.21 41.5103 1322.29 28.1498C1322.37 27.9487 1322.48 27.7645 1322.63 27.6081C1322.77 27.4516 1322.95 27.326 1323.14 27.2384C1323.33 27.1509 1323.54 27.1032 1323.76 27.0981C1323.97 27.093 1324.18 27.1307 1324.38 27.2088C1324.57 27.2809 1324.76 27.3923 1324.91 27.5365C1325.06 27.6807 1325.19 27.8548 1325.27 28.0484C1325.36 28.242 1325.41 28.4512 1325.41 28.6637C1325.42 28.8762 1325.38 29.0876 1325.31 29.2855C1319.91 43.4418 1309.46 55.0252 1296.01 61.7336C1287.93 65.6919 1279.07 67.7337 1270.09 67.704V67.704Z" fill="#02221F"/>
<path d="M1258.23 65.563C1256.5 65.5649 1254.78 65.4238 1253.07 65.1411C1252.65 65.0619 1252.28 64.8211 1252.04 64.4698C1251.79 64.1185 1251.69 63.6842 1251.76 63.2591C1251.79 63.0478 1251.87 62.8455 1251.98 62.664C1252.09 62.4825 1252.24 62.3254 1252.41 62.2017C1252.58 62.078 1252.78 61.9902 1252.99 61.9434C1253.19 61.8965 1253.41 61.8916 1253.61 61.9288C1263.23 63.6485 1274.45 59.5276 1281.14 55.4392C1288.84 50.6886 1294.62 43.3137 1297.42 34.64C1297.56 34.2097 1297.85 33.85 1298.24 33.6401C1298.64 33.4301 1299.1 33.3871 1299.52 33.5205C1299.95 33.6539 1300.3 33.9528 1300.51 34.3513C1300.72 34.7499 1300.76 35.2156 1300.63 35.6459C1297.55 45.124 1291.23 53.1784 1282.81 58.3595C1275.35 62.8372 1266.89 65.3164 1258.23 65.563V65.563Z" fill="#02221F"/>
<path d="M1283.64 71.0791C1273.02 71.1366 1262.49 69.0748 1252.65 65.0113C1252.46 64.9326 1252.28 64.8156 1252.13 64.667C1251.98 64.5184 1251.86 64.3411 1251.77 64.1452C1251.69 63.9493 1251.65 63.7386 1251.64 63.5254C1251.64 63.3121 1251.68 63.1003 1251.76 62.9022C1251.93 62.5107 1252.25 62.2021 1252.64 62.0392C1253.04 61.8764 1253.47 61.8717 1253.87 62.0261C1273.73 70.0089 1295.9 69.7759 1315.6 61.3771C1315.99 61.2227 1316.43 61.2274 1316.82 61.3903C1317.22 61.5531 1317.53 61.8618 1317.71 62.2532C1317.79 62.4488 1317.84 62.6594 1317.84 62.8724C1317.84 63.0854 1317.8 63.2966 1317.72 63.4933C1317.64 63.69 1317.52 63.8683 1317.37 64.0176C1317.22 64.1669 1317.04 64.2841 1316.85 64.3623C1306.33 68.8129 1295.04 71.0963 1283.64 71.0791Z" fill="#02221F"/>
<path d="M1317.42 69.2991C1318.66 69.5524 1319.96 69.4257 1321.13 68.9359C1321.92 68.6141 1322.63 68.1391 1323.23 67.5393C1323.83 66.9379 1324.3 66.2231 1324.63 65.4371C1324.95 64.6511 1325.12 63.8088 1325.12 62.9588C1325.11 62.1113 1324.95 61.2717 1324.62 60.4884C1324.14 59.3086 1323.33 58.2952 1322.28 57.5786C1321.22 56.8606 1319.98 56.474 1318.7 56.4707C1317.42 56.4675 1316.18 56.8478 1315.12 57.5605C1314.06 58.2731 1313.24 59.2849 1312.75 60.4652C1312.27 61.6451 1312.14 62.943 1312.38 64.1957C1312.62 65.4485 1313.23 66.6032 1314.13 67.5125C1315.02 68.4222 1316.17 69.0453 1317.42 69.2991Z" fill="#FC525A" stroke="#02221F" stroke-width="4"/>
<path d="M1322.56 35.0852C1323.81 35.3314 1325.11 35.1951 1326.28 34.6946C1327.85 34.0267 1329.09 32.7611 1329.73 31.1819C1330.37 29.6034 1330.37 27.8336 1329.72 26.2568C1329.24 25.0745 1328.42 24.0601 1327.36 23.3451C1326.3 22.6299 1325.05 22.2474 1323.78 22.249C1322.5 22.2507 1321.25 22.6364 1320.2 23.3542C1319.14 24.0719 1318.32 25.0883 1317.84 26.2718C1317.36 27.4551 1317.24 28.7547 1317.49 30.0072C1317.74 31.2596 1318.35 32.4121 1319.25 33.3171C1320.15 34.2223 1321.3 34.8391 1322.56 35.0852Z" fill="#FC525A" stroke="#02221F" stroke-width="4"/>
<path d="M1299 41.4377C1300.24 41.6964 1301.53 41.578 1302.7 41.0985C1303.49 40.7767 1304.2 40.3006 1304.8 39.6991C1305.4 39.0977 1305.88 38.3829 1306.2 37.5969C1306.52 36.8109 1306.69 35.9686 1306.69 35.1187C1306.69 34.2687 1306.52 33.4267 1306.19 32.6415C1305.71 31.472 1304.89 30.4696 1303.84 29.7634C1302.79 29.0569 1301.56 28.6792 1300.29 28.6807C1299.02 28.6821 1297.79 29.0627 1296.74 29.7716C1295.69 30.4803 1294.88 31.4845 1294.4 32.6552C1293.91 33.8255 1293.79 35.1126 1294.02 36.3554C1294.26 37.5984 1294.86 38.7452 1295.75 39.6504C1296.63 40.5559 1297.76 41.179 1299 41.4377Z" fill="#FC525A" stroke="#02221F" stroke-width="4"/>
<path d="M1337.35 85.8609L1343.37 85.5872L1338.38 82.2074C1330.59 76.924 1323.35 72.7311 1313.31 73.9273L1308.67 74.4798L1312.27 77.4552C1319.32 83.2804 1328.25 86.2748 1337.35 85.8609Z" fill="#5DC68D" stroke="#02221F" stroke-width="4"/>
<path d="M1328.71 70.0926L1323.23 71.617L1328.46 73.8576C1334.52 76.4574 1341.23 77.1103 1347.68 75.727L1347.26 73.7716L1348.16 71.9837C1342.12 68.9602 1335.2 68.2864 1328.71 70.0926Z" fill="#5DC68D" stroke="#02221F" stroke-width="4"/>
<path d="M1244.36 48.7597L1241.62 51.8611L1245.75 52.0815C1250.07 52.3116 1254.39 51.668 1258.45 50.1888C1262.52 48.7097 1266.25 46.4251 1269.43 43.47L1268.07 42.0048L1268.37 40.0281C1263.97 39.3501 1259.46 39.7942 1255.27 41.3196C1251.08 42.845 1247.33 45.4028 1244.36 48.7597Z" fill="#5DC68D" stroke="#02221F" stroke-width="4"/>
</g>
<path d="M19.4543 51.4141H1128.35" stroke="#02221F" stroke-width="3"/>
<defs>
<clipPath id="clip0_206_965">
<rect width="1408" height="102" fill="white"/>
</clipPath>
</defs>
</svg>
