<svg width="1705" height="123" viewBox="0 0 1705 123" fill="none" xmlns="http://www.w3.org/2000/svg">
<g clip-path="url(#clip0_206_798)">
<path d="M177.627 73.1339C177.337 71.6991 176.631 70.3814 175.594 69.349C174.218 67.9785 172.358 67.207 170.417 67.207C168.476 67.207 166.616 67.9785 165.24 69.349C164.204 70.3814 163.497 71.6991 163.207 73.1339C162.918 74.5686 163.057 76.0578 163.61 77.4131C164.162 78.7685 165.103 79.9304 166.315 80.7492C167.527 81.5682 168.955 82.0065 170.417 82.0065C171.88 82.0065 173.308 81.5682 174.52 80.7492C175.732 79.9304 176.672 78.7685 177.225 77.4131C177.777 76.0579 177.917 74.5686 177.627 73.1339Z" fill="#FC525A" stroke="#02221F" stroke-width="4"/>
<path d="M187.17 84.9213C186.918 83.5019 186.258 82.1862 185.27 81.1373C184.588 80.404 183.762 79.8184 182.845 79.4174C181.925 79.0153 180.932 78.8076 179.928 78.8076C178.925 78.8076 177.932 79.0153 177.012 79.4174C176.094 79.8184 175.269 80.404 174.586 81.1372C173.599 82.1862 172.939 83.5019 172.686 84.9213C172.433 86.3431 172.599 87.8087 173.165 89.1373C173.73 90.4661 174.671 91.6009 175.873 92.3996C177.076 93.1983 178.486 93.625 179.928 93.625C181.371 93.625 182.781 93.1983 183.983 92.3996C185.185 91.6009 186.126 90.4661 186.692 89.1373C187.257 87.8087 187.423 86.3431 187.17 84.9213Z" fill="#FC525A" stroke="#02221F" stroke-width="4"/>
<path d="M177.935 72.6152L177.935 72.6152L177.936 72.6293C178.112 74.5605 179.03 76.3496 180.501 77.6117C181.973 78.8743 183.879 79.5084 185.812 79.3738L185.673 77.3786L185.827 79.3727C187.284 79.2608 188.673 78.7152 189.819 77.8075C190.964 76.8999 191.814 75.6716 192.264 74.2798C192.713 72.8882 192.742 71.3939 192.347 69.9858C191.952 68.5776 191.151 67.317 190.041 66.3652C188.932 65.4132 187.565 64.8133 186.114 64.644C184.662 64.4747 183.195 64.7439 181.897 65.4164C180.599 66.0887 179.532 67.133 178.827 68.4145C178.123 69.6958 177.813 71.1578 177.935 72.6152Z" fill="#FC525A" stroke="#02221F" stroke-width="4"/>
<path d="M131.627 87.0116L131.928 89.944L134.541 88.5806C143.896 83.7011 149.785 81.2933 153.293 80.1086C155.044 79.5169 156.188 79.2349 156.862 79.1014C157.198 79.0348 157.414 79.0059 157.527 78.9936C157.566 78.9894 157.592 78.9872 157.607 78.9861H161.551L159.172 75.7917C154.777 69.8886 152.212 62.8049 151.801 55.4324L151.62 52.1875L148.805 53.8111C145.382 55.7851 141.5 56.8006 137.561 56.7554C136.286 56.4558 134.806 55.1907 133.496 53.0804C132.184 50.9662 131.346 48.4753 131.183 46.6415L130.835 42.7065L127.87 45.3168C123.984 48.737 119.807 49.1708 116.145 48.4239C112.395 47.6592 109.265 45.6579 107.858 44.3923L104.817 46.9268C107.235 50.8586 109.257 54.4091 110.1 58.01C110.915 61.4871 110.639 65.0663 108.252 69.1244L106.143 72.7089L110.259 72.1183C115.26 71.401 120.26 71.6456 124.126 73.7203C127.846 75.7173 130.866 79.6007 131.627 87.0116Z" fill="#5DC68D" stroke="#02221F" stroke-width="4"/>
<path d="M113.857 52.1797C126.112 60.7663 138.955 68.4678 152.289 75.2264C138.056 70.259 124.979 62.4169 113.857 52.1797Z" fill="#02221F"/>
<path d="M146.677 47.7971L144.562 49.8136L147.207 51.0549C156.739 55.5278 162.268 58.7301 165.386 60.7847C166.944 61.811 167.89 62.5441 168.427 62.9982C168.695 63.2249 168.859 63.3801 168.946 63.4656C168.98 63.5002 169.002 63.5231 169.013 63.5344L171.433 66.4615L172.46 62.7716C174.437 55.6745 178.478 49.3399 184.059 44.5844L186.563 42.4507L183.516 41.2098C179.876 39.7275 176.686 37.3054 174.268 34.1864C173.74 32.9783 173.852 31.0508 174.713 28.7394C175.578 26.4151 177.021 24.2032 178.35 22.8806L180.98 20.2621L177.347 19.5052C172.241 18.4415 169.327 15.3575 167.671 11.9832C165.976 8.53182 165.64 4.83413 165.774 2.9402L161.895 2.12705C160.381 6.37377 158.833 10.1609 156.513 13.0505C154.267 15.8484 151.262 17.8447 146.644 18.4221L142.507 18.9395L145.5 21.8424C148.945 25.1829 151.785 29.278 152.519 33.6458C153.227 37.8578 152.038 42.6845 146.677 47.7971Z" fill="#5DC68D" stroke="#02221F" stroke-width="4"/>
<path d="M163.042 12.2686C163.837 27.2863 165.666 42.2302 168.515 56.9925C163.708 42.6111 161.846 27.3962 163.042 12.2686V12.2686Z" fill="#02221F"/>
<path d="M2.34928 102.411L1.52941 105.235L4.45787 104.959C11.7722 104.269 16.1437 106.543 18.8407 109.871C21.6432 113.33 22.8798 118.227 23.1979 123.131L23.4654 127.255L26.5334 124.487C30.0088 121.352 33.4714 120.393 37.0268 120.535C40.7041 120.681 44.5444 122.004 48.723 123.65L50.6873 120.213C49.1946 119.046 46.6753 116.324 45.2239 112.751C43.8029 109.252 43.4233 105.016 45.9587 100.505L47.7808 97.2628L44.0716 97.5298C42.24 97.6617 39.6465 97.2585 37.3311 96.3516C35.0217 95.4471 33.5078 94.2513 32.9693 93.119C32.1659 89.2666 32.4007 85.2663 33.6506 81.5348L34.6823 78.4548L31.4677 78.9201C24.2318 79.9675 16.85 78.8052 10.2745 75.5821L6.81365 73.8857L7.41392 77.6601C7.41543 77.6756 7.4182 77.7073 7.42113 77.7566C7.42835 77.8783 7.43639 78.105 7.42918 78.4577C7.41472 79.1643 7.33926 80.3641 7.07876 82.221C6.55726 85.9385 5.30144 92.2388 2.34928 102.411Z" fill="#5DC68D" stroke="#02221F" stroke-width="4"/>
<path d="M41.7699 116.115C31.0902 105.613 21.1539 94.3682 12.0342 82.4648C19.5771 95.6 29.6946 107.049 41.7699 116.115V116.115Z" fill="#02221F"/>
<path d="M29.3473 81.6432C22.2421 81.6459 15.1765 80.5776 8.38481 78.4738C7.89778 78.3204 7.49029 77.9798 7.25054 77.5257C7.01079 77.0717 6.95806 76.5408 7.10377 76.0479C7.17422 75.7973 7.29456 75.5639 7.45745 75.3618C7.62034 75.1597 7.82236 74.9932 8.0512 74.8723C8.28004 74.7515 8.5309 74.6789 8.78848 74.659C9.04606 74.6391 9.30496 74.6723 9.54939 74.7566C25.9614 79.7761 43.6471 78.3791 59.083 70.8438C74.4595 63.233 86.4227 50.0568 92.5842 33.9455C92.6745 33.703 92.8118 33.4809 92.988 33.2923C93.1641 33.1036 93.3757 32.9521 93.6105 32.8465C93.8452 32.7409 94.0984 32.6834 94.3554 32.6773C94.6124 32.6712 94.868 32.7166 95.1074 32.8108C95.3467 32.8977 95.5662 33.0321 95.753 33.206C95.9398 33.3799 96.0902 33.5898 96.1951 33.8232C96.3001 34.0567 96.3575 34.309 96.3641 34.5653C96.3706 34.8215 96.3261 35.0764 96.2332 35.315C89.7201 52.3983 77.0481 66.373 60.7522 74.4436C50.9624 79.2169 40.2223 81.6791 29.3473 81.6432V81.6432Z" fill="#02221F"/>
<path d="M14.9845 79.0606C12.8521 79.0693 10.7226 78.8992 8.61814 78.5519C8.11455 78.4568 7.6687 78.1648 7.37781 77.7397C7.08693 77.3145 6.97462 76.7907 7.06536 76.2824C7.10256 76.0252 7.19127 75.7783 7.32609 75.5567C7.46091 75.3351 7.63904 75.1434 7.84963 74.9934C8.06023 74.8433 8.29889 74.738 8.55113 74.6838C8.80336 74.6296 9.0639 74.6277 9.31689 74.6782C20.9627 76.7911 34.5107 71.8218 42.624 66.8525C51.9937 61.1361 59.0393 52.2452 62.4995 41.7711C62.6594 41.2783 63.0068 40.8697 63.4653 40.635C63.9239 40.4002 64.4561 40.3585 64.9451 40.5189C65.4279 40.6886 65.8269 41.04 66.0584 41.4995C66.29 41.959 66.3362 42.491 66.1874 42.984C62.4585 54.4136 54.8048 64.1262 44.6038 70.374C35.6185 75.7482 25.4276 78.7369 14.9845 79.0606V79.0606Z" fill="#02221F"/>
<path d="M45.7682 85.7118C32.9001 85.7812 20.1445 83.2948 8.22978 78.3948C7.99271 78.3005 7.77686 78.1591 7.59505 77.9791C7.41323 77.7991 7.26917 77.5841 7.1714 77.3468C7.07363 77.1096 7.02416 76.855 7.02592 76.5981C7.02769 76.3412 7.08065 76.0873 7.18166 75.8514C7.37917 75.3757 7.75509 74.9977 8.22763 74.7999C8.70017 74.602 9.2311 74.6003 9.70492 74.795C33.7793 84.4194 60.639 84.1384 84.51 74.0124C84.9847 73.828 85.5116 73.8349 85.9814 74.0316C86.4512 74.2283 86.8279 74.5997 87.0332 75.0689C87.1343 75.3047 87.1872 75.5586 87.189 75.8155C87.1907 76.0724 87.1413 76.327 87.0435 76.5643C86.9457 76.8015 86.8017 77.0165 86.6198 77.1965C86.438 77.3766 86.2222 77.5179 85.9851 77.6122C73.2467 82.9791 59.5746 85.7326 45.7682 85.7118V85.7118Z" fill="#02221F"/>
<path d="M86.8789 83.1633C88.3069 83.4519 89.7874 83.3075 91.1331 82.7492C92.03 82.3827 92.845 81.8412 93.5313 81.1567C94.2195 80.4705 94.7647 79.6542 95.1361 78.7557C95.5075 77.8572 95.698 76.8938 95.6969 75.9214C95.6958 74.9514 95.504 73.9909 95.1324 73.0952C94.5809 71.7457 93.6441 70.5884 92.4378 69.7712C91.2294 68.9525 89.8054 68.5125 88.3463 68.5088C86.8871 68.5051 85.461 68.9379 84.2484 69.7505C83.036 70.563 82.0924 71.718 81.5345 73.0677C80.9766 74.4171 80.8287 75.9022 81.1088 77.3355C81.3889 78.7689 82.0849 80.0885 83.1112 81.1265C84.1377 82.1647 85.4486 82.8744 86.8789 83.1633Z" fill="#FC525A" stroke="#02221F" stroke-width="4"/>
<path d="M92.9853 41.9057C94.4186 42.1859 95.9021 42.0308 97.2469 41.4607C99.0414 40.6999 100.459 39.2564 101.196 37.4504C101.932 35.6449 101.93 33.6199 101.189 31.8162C100.633 30.4642 99.6913 29.3063 98.4793 28.491C97.2672 27.6756 95.8404 27.2403 94.38 27.2422C92.9196 27.244 91.494 27.683 90.2839 28.5014C89.074 29.3198 88.1347 30.4801 87.5827 31.8334C87.0308 33.1867 86.8901 34.6738 87.1778 36.1068C87.4656 37.54 88.1694 38.8569 89.2025 39.8898C90.2358 40.923 91.5521 41.6254 92.9853 41.9057Z" fill="#FC525A" stroke="#02221F" stroke-width="4"/>
<path d="M64.4601 49.5661C65.8769 49.8605 67.3482 49.7259 68.6884 49.1798C69.588 48.8133 70.4054 48.2708 71.0936 47.5845C71.7817 46.8983 72.3269 46.082 72.6983 45.1835C73.0697 44.285 73.2602 43.3216 73.2591 42.3492C73.258 41.3768 73.0653 40.4139 72.6918 39.5162C72.1356 38.1793 71.1984 37.0354 69.9958 36.2303C68.7931 35.4251 67.3793 34.9954 65.9324 34.9971C64.4855 34.9988 63.0727 35.4317 61.8718 36.2397C60.6711 37.0476 59.7366 38.1936 59.1834 39.5319C58.6302 40.87 58.4822 42.3422 58.7574 43.7639C59.0325 45.1858 59.719 46.496 60.7329 47.5289C61.747 48.5621 63.0435 49.2717 64.4601 49.5661Z" fill="#FC525A" stroke="#02221F" stroke-width="4"/>
<path d="M110.799 103.127L116.846 102.868L111.835 99.4732C102.433 93.103 93.7067 88.1338 81.7505 89.5565L77.0808 90.1122L80.7202 93.0903C89.1925 100.023 99.891 103.594 110.799 103.127Z" fill="#5DC68D" stroke="#02221F" stroke-width="4"/>
<path d="M123.246 90.9148L128.809 89.7175L123.72 87.171C116.486 83.5513 108.179 82.7494 100.394 84.9201L94.9126 86.4482L100.144 88.6855C107.434 91.8029 115.5 92.5816 123.246 90.9148Z" fill="#5DC68D" stroke="#02221F" stroke-width="4"/>
<path d="M28.2599 52.1216L31.3055 49.3045L27.2047 48.6764C21.9395 47.8699 16.558 48.3982 11.5467 50.2131C6.53556 52.028 2.05351 55.0719 -1.49546 59.0683L-4.25287 62.1734L-0.105998 62.3935C5.06328 62.6679 10.2347 61.9004 15.1055 60.1364C19.9763 58.3723 24.4482 55.6473 28.2599 52.1216Z" fill="#5DC68D" stroke="#02221F" stroke-width="4"/>
<path d="M365.847 71.8227C365.492 70.9151 364.964 70.0856 364.29 69.3822C362.93 67.9611 361.062 67.14 359.096 67.1047C357.129 67.0694 355.233 67.823 353.823 69.1946C352.413 70.5658 351.605 72.4418 351.57 74.409C351.535 76.3762 352.277 78.2797 353.637 79.7002C354.31 80.4037 355.116 80.9674 356.007 81.3585C356.899 81.7496 357.858 81.9601 358.832 81.9776C359.805 81.9951 360.771 81.8191 361.676 81.4602C362.581 81.1013 363.406 80.5667 364.104 79.8877C364.802 79.2086 365.36 78.3985 365.746 77.504C366.132 76.6096 366.34 75.6477 366.357 74.6733C366.374 73.6989 366.201 72.7304 365.847 71.8227Z" fill="#FC525A" stroke="#02221F" stroke-width="4"/>
<path d="M375.794 84.9211C375.542 83.5043 374.884 82.1908 373.899 81.1427C373.22 80.4036 372.397 79.8125 371.479 79.4072C370.557 78.9997 369.56 78.7891 368.552 78.7891C367.544 78.7891 366.547 78.9997 365.625 79.4072C364.707 79.8125 363.883 80.4037 363.205 81.1427C362.22 82.1908 361.562 83.5043 361.31 84.9211C361.057 86.3429 361.223 87.8085 361.788 89.1371C362.354 90.4659 363.295 91.6008 364.497 92.3994C365.699 93.1981 367.109 93.6248 368.552 93.6248C369.995 93.6248 371.405 93.1981 372.607 92.3994C373.809 91.6007 374.75 90.4659 375.315 89.1371C375.881 87.8086 376.047 86.3429 375.794 84.9211Z" fill="#FC525A" stroke="#02221F" stroke-width="4"/>
<path d="M374.489 79.3725L374.497 79.372L374.504 79.3714C375.957 79.249 377.341 78.6951 378.479 77.7817C379.617 76.8685 380.458 75.6374 380.9 74.2457C381.341 72.854 381.363 71.3622 380.963 69.9582C380.562 68.5541 379.757 67.2987 378.647 66.3522C377.536 65.4055 376.17 64.8105 374.721 64.6449C373.271 64.4794 371.806 64.7509 370.512 65.424C369.217 66.0969 368.153 67.1404 367.45 68.42C366.748 69.6995 366.438 71.1588 366.559 72.6139L366.559 72.621L366.56 72.6281C366.735 74.5693 367.662 76.3668 369.144 77.6304C370.627 78.8945 372.547 79.5219 374.489 79.3725Z" fill="#FC525A" stroke="#02221F" stroke-width="4"/>
<path d="M320.21 86.9923L320.485 89.9556L323.125 88.5814C332.498 83.702 338.407 81.2942 341.928 80.1094C343.687 79.5176 344.837 79.2354 345.516 79.1018C345.854 79.0352 346.072 79.0061 346.186 78.9938C346.227 78.9894 346.254 78.9872 346.269 78.9861H350.237L347.829 75.7839C343.406 69.9033 340.839 62.8156 340.464 55.4421L340.299 52.1882L337.472 53.8085C334.033 55.7801 330.138 56.7959 326.186 56.7552C324.929 56.4551 323.449 55.191 322.139 53.0804C320.826 50.9645 319.992 48.4798 319.847 46.659L319.531 42.6885L316.535 45.3139C312.629 48.7379 308.448 49.1705 304.788 48.4239C301.04 47.6596 297.906 45.6585 296.473 44.3845L293.441 46.9268C295.861 50.8616 297.891 54.4113 298.739 58.0123C299.557 61.4871 299.282 65.063 296.878 69.1189L294.743 72.7212L298.887 72.1177C303.802 71.4019 308.836 71.6441 312.735 73.7229C316.485 75.7224 319.524 79.6027 320.21 86.9923Z" fill="#5DC68D" stroke="#02221F" stroke-width="4"/>
<path d="M302.481 52.1797C314.746 60.7498 327.588 68.4506 340.912 75.2264C326.684 70.2501 313.609 62.4089 302.481 52.1797V52.1797Z" fill="#02221F"/>
<path d="M335.34 47.7971L333.225 49.8136L335.87 51.0549C345.401 55.5278 350.931 58.7301 354.049 60.7847C355.607 61.811 356.553 62.5441 357.09 62.9982C357.358 63.2249 357.522 63.3801 357.608 63.4656C357.643 63.5002 357.665 63.5231 357.676 63.5344L360.107 66.4757L361.125 62.764C363.072 55.6664 367.101 49.3303 372.681 44.5858L375.187 42.455L372.142 41.2107C368.511 39.7267 365.331 37.3021 362.926 34.1814C362.384 32.9763 362.486 31.0506 363.343 28.7363C364.203 26.4144 365.645 24.2032 366.974 22.8806L369.604 20.2621L365.971 19.5052C360.865 18.4415 357.951 15.3575 356.295 11.9832C354.6 8.53182 354.264 4.83413 354.398 2.9402L350.523 2.11589C349.007 6.29034 347.47 10.0385 345.154 12.9103C342.913 15.6898 339.908 17.6876 335.269 18.2655L331.174 18.7758L334.112 21.6741C337.585 25.0991 340.438 29.2359 341.177 33.6268C341.89 37.8592 340.7 42.6854 335.34 47.7971Z" fill="#5DC68D" stroke="#02221F" stroke-width="4"/>
<path d="M351.743 12.2686C352.512 27.2845 354.315 42.2284 357.139 56.9925C352.359 42.6055 350.524 27.3909 351.743 12.2686V12.2686Z" fill="#02221F"/>
<path d="M190.973 102.411L190.154 105.235L193.081 104.959C200.418 104.269 204.786 106.545 207.461 109.867C210.241 113.319 211.442 118.21 211.704 123.108L211.928 127.295L215.041 124.487C218.515 121.352 221.987 120.393 225.549 120.535C229.231 120.681 233.072 122.004 237.228 123.649L239.195 120.213C237.705 119.048 235.194 116.327 233.747 112.753C232.329 109.252 231.95 105.012 234.469 100.5L236.276 97.2637L232.579 97.5298C230.748 97.6617 228.154 97.2585 225.839 96.3516C223.536 95.4497 222.024 94.258 221.482 93.1286C220.718 89.2255 220.977 85.1877 222.237 81.4153L223.267 78.3275L220.047 78.8036C212.82 79.8722 205.44 78.7489 198.847 75.5758L195.373 73.904L196.001 77.6738C196.003 77.6893 196.006 77.7203 196.009 77.7684C196.017 77.8891 196.026 78.1149 196.02 78.4668C196.009 79.1717 195.938 80.3701 195.683 82.2259C195.171 85.9412 193.925 92.2398 190.973 102.411Z" fill="#5DC68D" stroke="#02221F" stroke-width="4"/>
<path d="M230.432 116.115C219.73 105.623 209.78 94.378 200.658 82.4648C208.215 95.6017 218.345 107.051 230.432 116.115V116.115Z" fill="#02221F"/>
<path d="M218.01 81.6437C210.892 81.6496 203.813 80.5813 197.009 78.4742C196.522 78.3208 196.114 77.9802 195.875 77.5262C195.635 77.0721 195.582 76.5412 195.728 76.0483C195.798 75.7978 195.919 75.5643 196.081 75.3622C196.244 75.1601 196.446 74.9936 196.675 74.8727C196.904 74.7519 197.155 74.6794 197.413 74.6595C197.67 74.6396 197.929 74.6728 198.173 74.757C214.585 79.7804 232.272 78.3833 247.707 70.8442C263.084 63.2224 275.056 50.0516 281.247 33.946C281.314 33.6789 281.436 33.4291 281.605 33.2129C281.775 32.9967 281.987 32.819 282.23 32.6914C282.472 32.5638 282.738 32.4891 283.011 32.4724C283.284 32.4556 283.557 32.4971 283.813 32.5941C284.068 32.6911 284.301 32.8415 284.495 33.0354C284.689 33.2293 284.84 33.4623 284.939 33.7192C285.038 33.976 285.081 34.251 285.067 34.5261C285.053 34.8012 284.982 35.0702 284.857 35.3155C278.35 52.3898 265.694 66.3624 249.415 74.444C239.625 79.2173 228.885 81.6795 218.01 81.6437V81.6437Z" fill="#02221F"/>
<path d="M203.608 79.0604C201.476 79.0674 199.346 78.8972 197.242 78.5517C196.738 78.4566 196.292 78.1646 196.001 77.7395C195.71 77.3144 195.598 76.7905 195.689 76.2823C195.726 76.025 195.815 75.7781 195.95 75.5565C196.084 75.3349 196.263 75.1432 196.473 74.9932C196.684 74.8431 196.922 74.7378 197.175 74.6836C197.427 74.6294 197.687 74.6275 197.94 74.678C209.586 76.7909 223.173 71.8216 231.248 66.8523C240.626 61.1464 247.675 52.2517 251.123 41.7709C251.283 41.252 251.64 40.8183 252.117 40.5651C252.594 40.312 253.151 40.2601 253.666 40.421C254.181 40.5818 254.611 40.9422 254.862 41.4228C255.113 41.9035 255.165 42.465 255.005 42.9839C251.289 54.4089 243.649 64.1217 233.46 70.3739C224.406 75.7846 214.13 78.7746 203.608 79.0604V79.0604Z" fill="#02221F"/>
<path d="M234.392 85.7118C221.524 85.7812 208.768 83.2948 196.853 78.3948C196.616 78.3005 196.4 78.1591 196.219 77.9791C196.037 77.7991 195.893 77.5841 195.795 77.3468C195.697 77.1096 195.648 76.855 195.649 76.5981C195.651 76.3412 195.704 76.0873 195.805 75.8514C196.011 75.3823 196.387 75.0109 196.857 74.8141C197.327 74.6174 197.854 74.6106 198.328 74.795C222.403 84.4194 249.263 84.1384 273.134 74.0124C273.608 73.828 274.135 73.8349 274.605 74.0316C275.075 74.2283 275.451 74.5997 275.657 75.0689C275.759 75.3023 275.814 75.5539 275.818 75.809C275.823 76.0641 275.776 76.3175 275.682 76.5543C275.588 76.7912 275.448 77.0068 275.271 77.1884C275.093 77.3701 274.881 77.5142 274.647 77.6122C261.895 82.9792 248.211 85.7326 234.392 85.7118V85.7118Z" fill="#02221F"/>
<path d="M275.553 83.1859C276.987 83.4662 278.47 83.3111 279.815 82.741C281.609 81.9802 283.027 80.5366 283.764 78.7307C284.5 76.9252 284.498 74.9002 283.757 73.0965C283.201 71.7445 282.259 70.5866 281.047 69.7713C279.835 68.9559 278.408 68.5206 276.948 68.5225C275.488 68.5243 274.062 68.9632 272.852 69.7817C271.642 70.6 270.703 71.7603 270.151 73.1137C269.599 74.467 269.458 75.954 269.746 77.3871C270.033 78.8202 270.737 80.1372 271.77 81.1701C272.804 82.2032 274.12 82.9057 275.553 83.1859Z" fill="#FC525A" stroke="#02221F" stroke-width="4"/>
<path d="M281.597 41.8821C283.027 42.1711 284.511 42.0258 285.858 41.4652C287.662 40.7146 289.092 39.2752 289.839 37.4681C290.586 35.6615 290.591 33.631 289.853 31.8206C289.302 30.4682 288.364 29.3085 287.156 28.4899C285.948 27.6712 284.524 27.2312 283.065 27.2276C281.605 27.2239 280.179 27.6566 278.967 28.4693C277.754 29.2817 276.811 30.4368 276.253 31.7864C275.695 33.1359 275.547 34.621 275.827 36.0543C276.107 37.4877 276.803 38.8073 277.829 39.8453C278.856 40.8834 280.167 41.5931 281.597 41.8821Z" fill="#FC525A" stroke="#02221F" stroke-width="4"/>
<path d="M247.728 45.0734L247.742 45.1122L247.758 45.1504C248.499 46.96 249.924 48.4041 251.726 49.1608C253.528 49.9177 255.555 49.9228 257.361 49.175L256.596 47.3271L257.378 49.1682C259.169 48.4078 260.587 46.9702 261.331 45.1706C262.075 43.3714 262.087 41.3505 261.365 39.5424L261.347 39.4974L261.327 39.4534C260.536 37.72 259.108 36.3576 257.337 35.6563C255.566 34.9548 253.594 34.9709 251.835 35.7011C250.076 36.4311 248.67 37.8163 247.907 39.5623C247.143 41.3078 247.08 43.2821 247.728 45.0734Z" fill="#FC525A" stroke="#02221F" stroke-width="4"/>
<path d="M299.463 103.127L305.52 102.862L300.494 99.4711C291.058 93.104 282.409 88.1343 270.376 89.5563L265.701 90.1088L269.344 93.0902C277.827 100.033 288.541 103.604 299.463 103.127Z" fill="#5DC68D" stroke="#02221F" stroke-width="4"/>
<path d="M289.098 84.92L283.593 86.4448L288.847 88.6869C296.112 91.7872 304.147 92.5656 311.866 90.9162L311.448 88.9603L312.341 87.1708C305.131 83.5721 296.858 82.7706 289.098 84.92Z" fill="#5DC68D" stroke="#02221F" stroke-width="4"/>
<path d="M216.883 52.1208L219.932 49.3012L215.827 48.6754C210.562 47.8728 205.182 48.4028 200.172 50.2173C195.162 52.0318 190.68 55.0734 187.129 59.0665L184.367 62.1725L188.518 62.3928C193.687 62.6671 198.858 61.8996 203.729 60.1356C208.6 58.3715 213.072 55.6465 216.883 52.1208Z" fill="#5DC68D" stroke="#02221F" stroke-width="4"/>
<path d="M554.914 73.1339C554.624 71.6991 553.917 70.3814 552.881 69.349C551.505 67.9785 549.645 67.207 547.704 67.207C545.763 67.207 543.903 67.9785 542.527 69.349C541.49 70.3814 540.784 71.6992 540.494 73.1339C540.204 74.5686 540.344 76.0579 540.896 77.4131C541.449 78.7685 542.389 79.9303 543.601 80.7492C544.813 81.5682 546.241 82.0065 547.704 82.0065C549.166 82.0065 550.594 81.5682 551.806 80.7492C553.018 79.9304 553.959 78.7685 554.511 77.4131C555.063 76.0579 555.203 74.5686 554.914 73.1339Z" fill="#FC525A" stroke="#02221F" stroke-width="4"/>
<path d="M562.452 91.5289L562.458 91.5225L562.465 91.5161C563.153 90.834 563.7 90.0212 564.072 89.1258C564.445 88.2303 564.636 87.2696 564.636 86.2997C564.636 85.3299 564.445 84.3692 564.072 83.4737C563.705 82.5917 563.17 81.79 562.496 81.1143C561.847 80.4216 561.07 79.862 560.208 79.4676C559.332 79.0672 558.385 78.8452 557.422 78.8151C556.46 78.7849 555.501 78.9472 554.602 79.2921C553.703 79.637 552.881 80.1576 552.184 80.8229L552.177 80.8294L552.171 80.8359C550.761 82.207 549.952 84.083 549.918 86.0502C549.883 88.0174 550.625 89.9209 551.985 91.3414C553.345 92.7624 555.213 93.5835 557.179 93.6188C559.145 93.6541 561.042 92.9005 562.452 91.5289Z" fill="#FC525A" stroke="#02221F" stroke-width="4"/>
<path d="M555.144 72.6152L555.144 72.6152L555.145 72.6293C555.32 74.5605 556.239 76.3496 557.71 77.6117C559.181 78.8743 561.087 79.5084 563.021 79.3738L562.882 77.3786L563.035 79.3727C564.492 79.2608 565.881 78.7152 567.027 77.8075C568.173 76.8999 569.023 75.6715 569.472 74.2798C569.921 72.8881 569.95 71.3939 569.556 69.9858C569.161 68.5776 568.359 67.317 567.25 66.3652C566.141 65.4132 564.774 64.8133 563.322 64.644C561.871 64.4747 560.403 64.7439 559.105 65.4164C557.808 66.0887 556.74 67.133 556.036 68.4145C555.332 69.6959 555.022 71.1578 555.144 72.6152Z" fill="#FC525A" stroke="#02221F" stroke-width="4"/>
<path d="M508.912 87.0019L509.201 89.9511L511.828 88.5806C521.182 83.7011 527.072 81.2933 530.579 80.1086C532.331 79.5169 533.475 79.2349 534.148 79.1014C534.484 79.0348 534.7 79.0059 534.813 78.9936C534.852 78.9894 534.879 78.9872 534.893 78.9861H538.817L536.463 75.7982C532.106 69.8958 529.604 62.81 529.283 55.4564L529.139 52.1737L526.289 53.8089C522.861 55.7757 518.98 56.7912 515.04 56.7549C513.765 56.4545 512.286 55.1897 510.977 53.0804C509.665 50.9662 508.826 48.4753 508.664 46.6415L508.316 42.717L505.353 45.3139C501.447 48.7381 497.266 49.1703 493.611 48.424C489.868 47.6597 486.747 45.6593 485.339 44.3923L482.297 46.9268C484.716 50.8586 486.737 54.4091 487.581 58.01C488.395 61.4871 488.12 65.0663 485.732 69.1244L483.608 72.7341L487.751 72.1168C492.539 71.4031 497.514 71.6432 501.394 73.7212C505.132 75.7227 508.19 79.6097 508.912 87.0019Z" fill="#5DC68D" stroke="#02221F" stroke-width="4"/>
<path d="M491.105 52.1797C503.37 60.7498 516.212 68.4506 529.536 75.2264C515.312 70.2411 502.238 62.401 491.105 52.1797V52.1797Z" fill="#02221F"/>
<path d="M523.964 47.7971L521.849 49.8136L524.494 51.0549C534.025 55.5278 539.554 58.7301 542.673 60.7847C544.231 61.811 545.177 62.5441 545.714 62.9982C545.982 63.2249 546.146 63.3801 546.232 63.4656C546.267 63.5001 546.289 63.523 546.299 63.5344L548.716 66.458L549.746 62.7735C551.728 55.6848 555.755 49.3523 561.313 44.5794L563.787 42.4544L560.771 41.2127C557.142 39.7188 553.963 37.2944 551.549 34.1795C551.011 32.9787 551.118 31.0576 551.984 28.7425C552.853 26.42 554.305 24.206 555.636 22.8806L558.267 20.2621L554.633 19.5052C549.527 18.4415 546.614 15.3575 544.957 11.9832C543.263 8.53182 542.926 4.83413 543.061 2.9402L539.182 2.12705C537.667 6.37377 536.12 10.1609 533.8 13.0505C531.553 15.8484 528.549 17.8447 523.931 18.4221L519.794 18.9395L522.787 21.8424C526.231 25.1829 529.071 29.278 529.806 33.6458C530.514 37.8579 529.325 42.6845 523.964 47.7971Z" fill="#5DC68D" stroke="#02221F" stroke-width="4"/>
<path d="M540.406 12.2686C541.181 27.288 543.01 42.2333 545.879 56.9925C541.053 42.6155 539.191 27.3967 540.406 12.2686V12.2686Z" fill="#02221F"/>
<path d="M379.634 102.414L378.821 105.235L381.744 104.959C389.06 104.269 393.428 106.544 396.109 109.868C398.895 113.322 400.105 118.213 400.366 123.108L400.589 127.282L403.699 124.49C407.195 121.352 410.67 120.393 414.231 120.535C417.913 120.681 421.753 122.004 425.932 123.65L427.887 120.206C426.383 119.044 423.865 116.325 422.419 112.753C421.003 109.256 420.63 105.018 423.167 100.505L424.989 97.2628L421.28 97.5298C419.448 97.6617 416.844 97.2583 414.518 96.3507C412.203 95.4474 410.685 94.255 410.144 93.1284C409.38 89.2254 409.64 85.1877 410.899 81.4153L411.929 78.3275L408.709 78.8036C401.482 79.8722 394.102 78.7489 387.509 75.5758L384.066 73.919L384.661 77.6603C384.663 77.6759 384.666 77.7078 384.669 77.7575C384.676 77.8794 384.684 78.1064 384.677 78.4592C384.663 79.1662 384.589 80.3663 384.331 82.2235C383.814 85.9414 382.567 92.242 379.634 102.414Z" fill="#5DC68D" stroke="#02221F" stroke-width="4"/>
<path d="M419.25 116.115C408.57 105.613 398.634 94.3682 389.514 82.4648C397.045 95.609 407.164 107.061 419.25 116.115V116.115Z" fill="#02221F"/>
<path d="M406.633 81.6432C399.528 81.6488 392.462 80.5805 385.671 78.4738C385.427 78.4024 385.2 78.2824 385.002 78.1208C384.805 77.9593 384.642 77.7596 384.522 77.5334C384.403 77.3073 384.33 77.0593 384.307 76.8042C384.284 76.549 384.312 76.2918 384.39 76.0479C384.456 75.7988 384.572 75.5661 384.731 75.3642C384.89 75.1623 385.089 74.9957 385.315 74.8745C385.54 74.7534 385.789 74.6804 386.044 74.6601C386.299 74.6399 386.555 74.6727 386.797 74.7566C403.208 79.78 420.896 78.3828 436.33 70.8438C451.658 63.2033 463.575 50.0322 469.715 33.9455C469.805 33.703 469.943 33.4809 470.119 33.2923C470.295 33.1036 470.507 32.9521 470.741 32.8465C470.976 32.7409 471.229 32.6834 471.486 32.6773C471.743 32.6712 471.999 32.7166 472.238 32.8108C472.709 33.0032 473.088 33.3703 473.297 33.8363C473.507 34.3024 473.531 34.8317 473.364 35.315C466.841 52.3921 454.172 66.3635 437.883 74.4436C428.14 79.1937 417.456 81.6553 406.633 81.6432V81.6432Z" fill="#02221F"/>
<path d="M392.27 79.0606C390.138 79.071 388.008 78.9009 385.904 78.552C385.398 78.4564 384.949 78.1661 384.652 77.7424C384.355 77.3188 384.233 76.7951 384.312 76.2825C384.35 76.0253 384.438 75.7783 384.573 75.5567C384.708 75.3351 384.886 75.1435 385.097 74.9934C385.307 74.8434 385.546 74.7381 385.798 74.6839C386.05 74.6297 386.311 74.6278 386.564 74.6782C398.21 76.7912 411.796 71.8218 419.871 66.8525C429.259 61.1572 436.311 52.2586 439.746 41.7711C439.915 41.2845 440.263 40.8824 440.719 40.649C441.175 40.4156 441.703 40.369 442.192 40.519C442.437 40.5942 442.665 40.7185 442.861 40.8845C443.057 41.0505 443.218 41.2547 443.334 41.4849C443.45 41.7151 443.519 41.9666 443.536 42.2242C443.553 42.4818 443.519 42.7403 443.434 42.9841C439.731 54.4158 432.088 64.1324 421.89 70.3741C412.904 75.7482 402.713 78.737 392.27 79.0606V79.0606Z" fill="#02221F"/>
<path d="M423.132 85.713C410.265 85.7752 397.51 83.2891 385.594 78.396C385.122 78.1969 384.747 77.818 384.55 77.3417C384.354 76.8654 384.352 76.3302 384.545 75.8526C384.759 75.3806 385.142 75.0083 385.619 74.812C386.095 74.6156 386.627 74.61 387.108 74.7961C411.168 84.4225 438.017 84.1415 461.874 74.0136C462.354 73.8274 462.887 73.8331 463.363 74.0294C463.839 74.2258 464.223 74.598 464.436 75.07C464.537 75.3059 464.59 75.5598 464.592 75.8167C464.593 76.0736 464.544 76.3282 464.446 76.5654C464.348 76.8027 464.204 77.0177 464.022 77.1977C463.841 77.3777 463.625 77.5191 463.388 77.6134C450.636 82.9803 436.951 85.7338 423.132 85.713V85.713Z" fill="#02221F"/>
<path d="M464.165 83.1633C465.595 83.4523 467.078 83.307 468.426 82.7464C470.23 81.9958 471.66 80.5565 472.407 78.7494C473.154 76.9428 473.159 74.9122 472.421 73.1019C471.87 71.7495 470.932 70.5897 469.724 69.7712C468.515 68.9525 467.092 68.5125 465.632 68.5088C464.173 68.5051 462.747 68.9379 461.535 69.7505C460.322 70.563 459.379 71.718 458.821 73.0677C458.263 74.4172 458.115 75.9022 458.395 77.3355C458.675 78.7689 459.371 80.0885 460.397 81.1265C461.424 82.1647 462.735 82.8744 464.165 83.1633Z" fill="#FC525A" stroke="#02221F" stroke-width="4"/>
<path d="M470.104 41.8821C471.532 42.1706 473.013 42.0262 474.359 41.468C475.255 41.1015 476.071 40.56 476.757 39.8755C477.445 39.1892 477.99 38.3729 478.362 37.4744C478.733 36.5759 478.924 35.6126 478.922 34.6402C478.921 33.6702 478.73 32.7097 478.358 31.8139C477.806 30.4644 476.87 29.3071 475.663 28.4899C474.455 27.6712 473.031 27.2312 471.572 27.2276C470.113 27.2239 468.687 27.6566 467.474 28.4693C466.262 29.2817 465.318 30.4368 464.76 31.7864C464.202 33.1359 464.054 34.621 464.334 36.0543C464.614 37.4877 465.31 38.8073 466.337 39.8453C467.363 40.8834 468.674 41.5931 470.104 41.8821Z" fill="#FC525A" stroke="#02221F" stroke-width="4"/>
<path d="M449.984 39.5297L449.981 39.523L449.978 39.5162C449.422 38.1792 448.485 37.0354 447.282 36.2303C446.08 35.4251 444.666 34.9954 443.219 34.9971C441.772 34.9988 440.359 35.4317 439.158 36.2397C437.958 37.0476 437.023 38.1936 436.47 39.5319C435.917 40.87 435.769 42.3422 436.044 43.7639C436.319 45.1858 437.006 46.496 438.02 47.5289C439.034 48.5621 440.33 49.2717 441.747 49.5661C443.163 49.8605 444.635 49.7259 445.975 49.1798L445.22 47.3277L445.989 49.1742C447.793 48.4236 449.223 46.9843 449.97 45.1772C450.717 43.3706 450.722 41.34 449.984 39.5297Z" fill="#FC525A" stroke="#02221F" stroke-width="4"/>
<path d="M488.091 103.127L494.125 102.849L489.118 99.4711C479.683 93.105 471.033 88.1339 459.037 89.5564L454.385 90.1081L458.002 93.0863C466.46 100.052 477.175 103.629 488.091 103.127Z" fill="#5DC68D" stroke="#02221F" stroke-width="4"/>
<path d="M500.527 90.9164L506.147 89.7193L500.999 87.1682C493.773 83.5875 485.497 82.7872 477.726 84.9186L472.186 86.438L477.472 88.6876C484.751 91.7853 492.796 92.5633 500.527 90.9164Z" fill="#5DC68D" stroke="#02221F" stroke-width="4"/>
<path d="M405.546 52.1216L408.592 49.3045L404.491 48.6764C399.226 47.8699 393.844 48.3982 388.833 50.2131C383.822 52.028 379.34 55.0719 375.791 59.0683L373.033 62.1734L377.18 62.3935C382.349 62.6679 387.521 61.9004 392.392 60.1364C397.262 58.3723 401.734 55.6473 405.546 52.1216Z" fill="#5DC68D" stroke="#02221F" stroke-width="4"/>
<path d="M743.537 73.1339C743.247 71.6991 742.541 70.3814 741.504 69.349C740.128 67.9785 738.268 67.207 736.327 67.207C734.386 67.207 732.526 67.9785 731.15 69.349C730.114 70.3814 729.407 71.6991 729.117 73.1339C728.828 74.5686 728.968 76.0579 729.52 77.4131C730.072 78.7685 731.013 79.9303 732.225 80.7492C733.437 81.5682 734.865 82.0065 736.327 82.0065C737.79 82.0065 739.218 81.5682 740.43 80.7492C741.642 79.9303 742.582 78.7685 743.135 77.4131C743.687 76.0579 743.827 74.5686 743.537 73.1339Z" fill="#FC525A" stroke="#02221F" stroke-width="4"/>
<path d="M753.15 84.8801C752.867 83.4499 752.17 82.134 751.144 81.0994C750.465 80.4075 749.655 79.8571 748.762 79.4808C747.867 79.1036 746.906 78.9092 745.935 78.9092C744.963 78.9092 744.002 79.1036 743.107 79.4808C742.214 79.8571 741.405 80.4074 740.726 81.0994C739.7 82.134 739.002 83.4498 738.719 84.8801C738.436 86.3127 738.58 87.7982 739.134 89.149C739.689 90.5001 740.63 91.6575 741.84 92.473C743.051 93.2886 744.476 93.725 745.935 93.725C747.394 93.725 748.819 93.2886 750.029 92.473C751.24 91.6575 752.181 90.5001 752.735 89.149C753.29 87.7982 753.434 86.3127 753.15 84.8801Z" fill="#FC525A" stroke="#02221F" stroke-width="4"/>
<path d="M743.845 72.6152L743.845 72.6152L743.846 72.6293C744.022 74.5605 744.941 76.3496 746.411 77.6117C747.883 78.8743 749.789 79.5084 751.722 79.3738L751.584 77.3786L751.737 79.3727C753.194 79.2608 754.583 78.7152 755.729 77.8075C756.874 76.8999 757.725 75.6715 758.174 74.2798C758.623 72.8881 758.652 71.3939 758.257 69.9858C757.862 68.5776 757.061 67.317 755.952 66.3652C754.842 65.4132 753.475 64.8133 752.024 64.644C750.573 64.4747 749.105 64.7439 747.807 65.4164C746.509 66.0887 745.442 67.133 744.738 68.4145C744.033 69.6959 743.723 71.1578 743.845 72.6152Z" fill="#FC525A" stroke="#02221F" stroke-width="4"/>
<path d="M697.535 86.9971L697.817 89.9547L700.451 88.5806C709.805 83.7011 715.695 81.2933 719.202 80.1086C720.954 79.5169 722.098 79.2349 722.772 79.1014C723.108 79.0348 723.324 79.0059 723.437 78.9936C723.476 78.9894 723.502 78.9872 723.517 78.9861H727.418L725.092 75.8056C720.764 69.8863 718.276 62.803 717.945 55.4537L717.798 52.1775L714.952 53.8085C711.512 55.7805 707.617 56.7963 703.664 56.7551C702.39 56.4551 700.909 55.1902 699.6 53.0804C698.288 50.9662 697.45 48.4753 697.287 46.6415L696.939 42.7065L693.974 45.3168C690.088 48.737 685.911 49.1708 682.249 48.4239C678.499 47.6592 675.369 45.6579 673.962 44.3923L670.921 46.9268C673.339 50.8586 675.361 54.4091 676.204 58.01C677.019 61.4871 676.743 65.0663 674.356 69.1244L672.233 72.7315L676.373 72.1169C681.183 71.4028 686.167 71.6435 690.047 73.7212C693.782 75.7215 696.831 79.6059 697.535 86.9971Z" fill="#5DC68D" stroke="#02221F" stroke-width="4"/>
<path d="M679.768 52.1797C692.028 60.7578 704.87 68.4589 718.199 75.2264C703.966 70.259 690.889 62.4169 679.768 52.1797Z" fill="#02221F"/>
<path d="M712.623 47.7994L710.516 49.8158L713.156 51.0549C722.687 55.5277 728.206 58.7294 731.314 60.7832C732.866 61.809 733.806 62.5413 734.339 62.9944C734.605 63.2205 734.767 63.3751 734.852 63.4597C734.885 63.493 734.906 63.5152 734.916 63.5265L737.336 66.4877L738.371 62.7716C740.347 55.6745 744.388 49.3399 749.969 44.5844L752.473 42.4507L749.426 41.2098C745.786 39.7275 742.597 37.3054 740.178 34.1864C739.65 32.9783 739.763 31.0508 740.623 28.7394C741.488 26.4151 742.931 24.2032 744.26 22.8806L746.891 20.2621L743.257 19.5052C738.151 18.4415 735.237 15.3575 733.581 11.9832C731.886 8.53182 731.55 4.83413 731.684 2.9402L727.805 2.12705C726.291 6.37377 724.743 10.1609 722.423 13.0505C720.177 15.8484 717.172 17.8447 712.555 18.4221L708.417 18.9395L711.41 21.8424C714.855 25.1827 717.696 29.2785 718.434 33.6477C719.147 37.8617 717.965 42.6882 712.623 47.7994Z" fill="#5DC68D" stroke="#02221F" stroke-width="4"/>
<path d="M729.029 12.2686C729.818 27.2889 731.66 42.2342 734.541 56.9925C729.722 42.6136 727.847 27.3989 729.029 12.2686V12.2686Z" fill="#02221F"/>
<path d="M568.259 102.411L567.44 105.235L570.368 104.959C577.681 104.269 582.053 106.542 584.76 109.886C587.574 113.361 588.83 118.291 589.187 123.262L589.479 127.348L592.521 124.604C595.997 121.469 599.459 120.51 603.015 120.652C606.692 120.799 610.532 122.122 614.711 123.767L616.675 120.33C615.185 119.166 612.674 116.444 611.227 112.87C609.81 109.37 609.43 105.13 611.949 100.617L613.756 97.3811L610.059 97.6472C608.228 97.7791 605.634 97.3759 603.319 96.469C601.011 95.5651 599.498 94.3703 598.958 93.2387C598.159 89.3464 598.418 85.3073 599.711 81.5501L600.781 78.4395L597.527 78.921C590.243 79.9989 582.805 78.8358 576.186 75.583L572.723 73.8809L573.324 77.6601C573.326 77.6756 573.328 77.7073 573.331 77.7566C573.338 77.8784 573.347 78.105 573.339 78.4577C573.325 79.1643 573.249 80.3641 572.989 82.221C572.467 85.9385 571.212 92.2388 568.259 102.411Z" fill="#5DC68D" stroke="#02221F" stroke-width="4"/>
<path d="M607.679 116.115C597 105.613 587.064 94.3682 577.944 82.4648C585.487 95.6 595.604 107.049 607.679 116.115V116.115Z" fill="#02221F"/>
<path d="M595.257 81.6432C588.152 81.6459 581.087 80.5776 574.295 78.4738C573.808 78.3204 573.4 77.9798 573.161 77.5257C572.921 77.0717 572.868 76.5408 573.014 76.0479C573.084 75.7973 573.205 75.5639 573.368 75.3618C573.53 75.1597 573.733 74.9932 573.961 74.8723C574.19 74.7515 574.441 74.6789 574.699 74.659C574.956 74.6392 575.215 74.6724 575.46 74.7566C591.871 79.78 609.558 78.3828 624.993 70.8438C640.37 63.233 652.333 50.0568 658.494 33.9455C658.585 33.703 658.722 33.4809 658.898 33.2923C659.074 33.1036 659.286 32.9521 659.521 32.8465C659.755 32.7409 660.009 32.6834 660.266 32.6773C660.523 32.6712 660.778 32.7166 661.018 32.8108C661.257 32.8977 661.476 33.0321 661.663 33.206C661.85 33.3799 662 33.5898 662.105 33.8232C662.21 34.0567 662.268 34.309 662.274 34.5653C662.281 34.8215 662.236 35.0764 662.143 35.315C655.623 52.3811 642.971 66.3495 626.701 74.4436C616.896 79.2136 606.144 81.6754 595.257 81.6432V81.6432Z" fill="#02221F"/>
<path d="M580.894 79.0606C578.762 79.0675 576.632 78.8974 574.528 78.5519C574.024 78.4568 573.578 78.1648 573.287 77.7397C572.997 77.3145 572.884 76.7907 572.975 76.2824C573.012 76.0252 573.101 75.7783 573.236 75.5567C573.371 75.3351 573.549 75.1434 573.759 74.9934C573.97 74.8433 574.209 74.738 574.461 74.6838C574.713 74.6296 574.974 74.6277 575.227 74.6782C586.872 76.752 600.42 71.7826 608.534 66.8525C617.912 61.1466 624.961 52.2518 628.409 41.7711C628.569 41.2783 628.916 40.8697 629.375 40.635C629.833 40.4002 630.366 40.3585 630.855 40.5189C631.338 40.6886 631.737 41.04 631.968 41.4995C632.2 41.959 632.246 42.491 632.097 42.984C628.377 54.4185 620.721 64.1341 610.513 70.374C601.528 75.7482 591.337 78.7369 580.894 79.0606V79.0606Z" fill="#02221F"/>
<path d="M611.678 85.7118C598.81 85.7812 586.054 83.2948 574.139 78.3948C573.902 78.3005 573.687 78.1591 573.505 77.9791C573.323 77.7991 573.179 77.5841 573.081 77.3468C572.983 77.1096 572.934 76.855 572.936 76.5981C572.937 76.3412 572.99 76.0873 573.091 75.8514C573.297 75.3823 573.673 75.0109 574.143 74.8141C574.613 74.6174 575.14 74.6106 575.615 74.795C599.689 84.4194 626.549 84.1384 650.42 74.0124C650.894 73.828 651.421 73.8349 651.891 74.0316C652.361 74.2283 652.738 74.5997 652.943 75.0689C653.045 75.3023 653.1 75.5539 653.104 75.809C653.109 76.0641 653.062 76.3175 652.968 76.5543C652.874 76.7912 652.735 77.0068 652.557 77.1884C652.379 77.3701 652.167 77.5142 651.934 77.6122C639.181 82.9762 625.497 85.7295 611.678 85.7118V85.7118Z" fill="#02221F"/>
<path d="M652.789 83.1633C654.217 83.4519 655.697 83.3075 657.043 82.7492C657.94 82.3827 658.755 81.8413 659.441 81.1567C660.129 80.4705 660.674 79.6542 661.046 78.7557C661.417 77.8572 661.608 76.8938 661.607 75.9214C661.605 74.9514 661.414 73.9909 661.042 73.0952C660.491 71.7456 659.554 70.5884 658.347 69.7712C657.139 68.9525 655.715 68.5125 654.256 68.5088C652.797 68.5051 651.371 68.9379 650.158 69.7505C648.946 70.563 648.002 71.718 647.444 73.0677C646.886 74.4172 646.738 75.9022 647.018 77.3355C647.299 78.7689 647.995 80.0885 649.021 81.1265C650.047 82.1647 651.358 82.8744 652.789 83.1633Z" fill="#FC525A" stroke="#02221F" stroke-width="4"/>
<path d="M658.895 41.9057C660.329 42.1859 661.812 42.0308 663.157 41.4607C664.952 40.6999 666.369 39.2563 667.106 37.4504C667.842 35.6449 667.84 33.6199 667.099 31.8162C666.544 30.4643 665.602 29.3063 664.39 28.491C663.177 27.6756 661.751 27.2403 660.29 27.2422C658.83 27.244 657.404 27.683 656.194 28.5014C654.984 29.3198 654.045 30.4801 653.493 31.8334C652.941 33.1867 652.8 34.6737 653.088 36.1068C653.376 37.54 654.08 38.8569 655.113 39.8898C656.146 40.923 657.462 41.6254 658.895 41.9057Z" fill="#FC525A" stroke="#02221F" stroke-width="4"/>
<path d="M624.971 44.9377L625.001 45.0466L625.044 45.1514C625.785 46.9609 627.21 48.4051 629.012 49.1618C630.814 49.9187 632.842 49.9238 634.648 49.176L633.883 47.3281L634.7 49.1534C636.466 48.3626 637.848 46.9066 638.553 45.1039C639.258 43.3016 639.233 41.293 638.482 39.5092L638.438 39.4049L638.383 39.3063C637.504 37.7394 636.083 36.5479 634.385 35.962C632.688 35.3761 630.835 35.4381 629.18 36.1359C627.526 36.8335 626.186 38.1167 625.412 39.7382C624.639 41.3594 624.482 43.2089 624.971 44.9377Z" fill="#FC525A" stroke="#02221F" stroke-width="4"/>
<path d="M676.708 103.127L682.755 102.868L677.745 99.4732C668.344 93.1035 659.656 88.134 647.661 89.5564L642.988 90.1105L646.63 93.0903C655.102 100.023 665.801 103.594 676.708 103.127Z" fill="#5DC68D" stroke="#02221F" stroke-width="4"/>
<path d="M666.384 84.92L660.879 86.4448L666.133 88.6869C673.398 91.7872 681.433 92.5656 689.152 90.9162L688.734 88.9603L689.628 87.1708C682.417 83.5721 674.144 82.7706 666.384 84.92Z" fill="#5DC68D" stroke="#02221F" stroke-width="4"/>
<path d="M564.415 59.0683L561.657 62.1734L565.804 62.3935C570.973 62.6679 576.145 61.9004 581.016 60.1364C585.886 58.3723 590.358 55.6473 594.17 52.1216L592.812 50.6533L593.115 48.6764C587.85 47.8699 582.468 48.3982 577.457 50.2131C572.446 52.028 567.964 55.0719 564.415 59.0683Z" fill="#5DC68D" stroke="#02221F" stroke-width="4"/>
<path d="M931.756 71.8227C931.402 70.9151 930.873 70.0856 930.2 69.3822C928.839 67.9611 926.971 67.14 925.005 67.1047C923.039 67.0694 921.143 67.823 919.733 69.1946C918.323 70.5658 917.514 72.4418 917.48 74.409C917.445 76.3762 918.187 78.2797 919.547 79.7002C920.22 80.4036 921.025 80.9674 921.917 81.3585C922.808 81.7496 923.768 81.9601 924.741 81.9776C925.714 81.9951 926.681 81.8192 927.586 81.4602C928.491 81.1013 929.316 80.5667 930.014 79.8877C930.712 79.2087 931.27 78.3986 931.656 77.504C932.042 76.6095 932.249 75.6477 932.267 74.6733C932.284 73.6989 932.111 72.7304 931.756 71.8227Z" fill="#FC525A" stroke="#02221F" stroke-width="4"/>
<path d="M941.788 84.8715C941.499 83.4415 940.796 82.1278 939.765 81.097C939.09 80.4078 938.286 79.8592 937.398 79.4839C936.505 79.1066 935.547 78.9121 934.578 78.9121C933.609 78.9121 932.65 79.1066 931.758 79.4839C930.87 79.8592 930.065 80.4077 929.391 81.097C928.36 82.1278 927.657 83.4415 927.368 84.8715C927.078 86.3062 927.218 87.7955 927.77 89.1507C928.323 90.5062 929.263 91.668 930.475 92.4869C931.687 93.3059 933.115 93.7441 934.578 93.7441C936.04 93.7441 937.468 93.3059 938.68 92.4869C939.892 91.668 940.833 90.5062 941.385 89.1507C941.938 87.7955 942.077 86.3062 941.788 84.8715Z" fill="#FC525A" stroke="#02221F" stroke-width="4"/>
<path d="M932.468 72.6139L932.469 72.621L932.47 72.6281C932.645 74.5693 933.571 76.3668 935.054 77.6304C936.537 78.8945 938.457 79.5219 940.399 79.3725L940.246 77.3784L940.413 79.3714C941.867 79.249 943.25 78.695 944.388 77.7817C945.526 76.8685 946.368 75.6374 946.809 74.2457C947.25 72.854 947.272 71.3622 946.872 69.9582C946.472 68.5541 945.667 67.2987 944.556 66.3522C943.446 65.4055 942.08 64.8105 940.63 64.6449C939.181 64.4794 937.716 64.7509 936.422 65.424C935.127 66.0969 934.062 67.1403 933.36 68.42C932.657 69.6995 932.348 71.1588 932.468 72.6139Z" fill="#FC525A" stroke="#02221F" stroke-width="4"/>
<path d="M886.198 87.0021L886.487 89.954L889.115 88.58C898.447 83.7018 904.364 81.2949 907.903 80.1106C909.671 79.519 910.833 79.2368 911.52 79.1029C911.864 79.0361 912.086 79.0069 912.204 78.9943C912.248 78.9896 912.278 78.9873 912.293 78.9863H916.262L913.855 75.7845C909.412 69.873 906.844 62.7433 906.491 55.3314L906.335 52.0651L903.498 53.6913C900.059 55.6629 896.165 56.6787 892.212 56.638C890.955 56.3379 889.475 55.0738 888.166 52.9632C886.852 50.8473 886.019 48.3626 885.873 46.5419L885.557 42.5713L882.562 45.1968C878.655 48.6208 874.475 49.0533 870.814 48.3067C867.066 47.5424 863.932 45.5413 862.5 44.2673L859.467 46.8096C861.887 50.7444 863.917 54.2942 864.765 57.8951C865.583 61.3699 865.309 64.9458 862.905 69.0017L860.796 72.5593L864.894 72.0032C869.753 71.3439 874.763 71.6107 878.663 73.7056C882.419 75.7224 885.476 79.6117 886.198 87.0021Z" fill="#5DC68D" stroke="#02221F" stroke-width="4"/>
<path d="M868.391 52.1797C880.656 60.7498 893.497 68.4506 906.822 75.2264C892.598 70.2411 879.524 62.401 868.391 52.1797V52.1797Z" fill="#02221F"/>
<path d="M901.249 47.7973L899.135 49.8139L901.78 51.0552C911.311 55.5281 916.84 58.7303 919.959 60.785C921.517 61.8113 922.462 62.5444 923 62.9985C923.268 63.2252 923.432 63.3804 923.518 63.4659C923.553 63.5004 923.575 63.5233 923.585 63.5347L926.011 66.4681L927.034 62.7685C928.996 55.6748 933.024 49.3403 938.594 44.5833L941.09 42.4522L938.052 41.211C934.42 39.727 931.241 37.3023 928.836 34.1817C928.293 32.9765 928.395 31.0508 929.253 28.7365C930.113 26.4147 931.555 24.2035 932.883 22.8809L935.463 20.3131L931.912 19.5124C926.895 18.3808 923.964 15.2558 922.274 11.841C920.55 8.35617 920.175 4.65673 920.308 2.78395L916.426 1.97846C914.932 6.22227 913.394 10.0072 911.076 12.8943C908.831 15.6898 905.818 17.6878 901.179 18.2658L897.083 18.776L900.022 21.6744C903.494 25.0993 906.347 29.2362 907.087 33.6271C907.8 37.8595 906.609 42.6857 901.249 47.7973Z" fill="#5DC68D" stroke="#02221F" stroke-width="4"/>
<path d="M917.692 12.2686C918.467 27.288 920.296 42.2333 923.165 56.9925C918.339 42.6155 916.477 27.3967 917.692 12.2686V12.2686Z" fill="#02221F"/>
<path d="M756.883 102.411L756.063 105.235L758.991 104.959C766.328 104.269 770.696 106.544 773.376 109.868C776.163 113.322 777.372 118.215 777.653 123.116L777.891 127.282L780.989 124.487C784.464 121.352 787.936 120.393 791.497 120.535C795.179 120.681 799.02 122.004 803.176 123.649L805.143 120.213C803.653 119.048 801.143 116.328 799.701 112.755C798.289 109.257 797.917 105.018 800.454 100.505L802.274 97.2653L798.568 97.5298C796.714 97.662 794.11 97.2577 791.791 96.3511C789.484 95.4493 787.972 94.2576 787.43 93.1286C786.666 89.2255 786.926 85.1877 788.185 81.4153L789.216 78.3275L785.995 78.8036C778.768 79.8722 771.388 78.7489 764.795 75.5758L761.353 73.919L761.948 77.6601C761.949 77.6756 761.952 77.7073 761.955 77.7566C761.962 77.8784 761.97 78.105 761.963 78.4577C761.948 79.1643 761.873 80.3641 761.612 82.221C761.091 85.9385 759.835 92.2388 756.883 102.411Z" fill="#5DC68D" stroke="#02221F" stroke-width="4"/>
<path d="M796.342 116.115C785.639 105.623 775.689 94.378 766.567 82.4648C774.124 95.6017 784.255 107.051 796.342 116.115V116.115Z" fill="#02221F"/>
<path d="M783.92 81.6427C776.802 81.6487 769.723 80.5804 762.918 78.4733C762.656 78.4144 762.408 78.301 762.191 78.1404C761.975 77.9799 761.793 77.7757 761.659 77.5407C761.524 77.3057 761.44 77.0452 761.411 76.7756C761.382 76.5059 761.408 76.2332 761.489 75.9746C761.571 75.7159 761.704 75.4771 761.882 75.2733C762.059 75.0694 762.277 74.905 762.52 74.7904C762.764 74.6759 763.029 74.6136 763.298 74.6077C763.567 74.6018 763.834 74.6524 764.083 74.7561C780.495 79.7795 798.182 78.3823 813.617 70.8433C828.994 63.2215 840.966 50.0507 847.157 33.945C847.374 33.5169 847.74 33.1843 848.185 33.0107C848.629 32.8372 849.122 32.8349 849.569 33.0043C850.015 33.1737 850.384 33.5028 850.605 33.929C850.826 34.3551 850.884 34.8483 850.767 35.3145C844.273 52.3971 831.613 66.3741 815.325 74.4431C805.535 79.2164 794.795 81.6786 783.92 81.6427V81.6427Z" fill="#02221F"/>
<path d="M769.518 79.0606C767.385 79.0676 765.256 78.8975 763.151 78.5519C762.648 78.4568 762.202 78.1649 761.911 77.7397C761.62 77.3146 761.508 76.7908 761.599 76.2825C761.636 76.0253 761.724 75.7783 761.859 75.5567C761.994 75.3351 762.172 75.1435 762.383 74.9934C762.593 74.8434 762.832 74.7381 763.084 74.6839C763.337 74.6297 763.597 74.6278 763.85 74.6782C775.496 76.7912 789.083 71.8218 797.157 66.8525C806.536 61.1467 813.585 52.2519 817.033 41.7711C817.201 41.2845 817.55 40.8824 818.006 40.649C818.461 40.4156 818.989 40.369 819.478 40.519C819.967 40.6802 820.373 41.0303 820.605 41.4925C820.838 41.9547 820.88 42.4912 820.721 42.9841C817.017 54.4158 809.374 64.1324 799.176 70.3741C790.178 75.753 779.974 78.7418 769.518 79.0606V79.0606Z" fill="#02221F"/>
<path d="M800.302 85.713C787.434 85.7793 774.679 83.2931 762.763 78.396C762.526 78.3017 762.311 78.1603 762.129 77.9803C761.947 77.8003 761.803 77.5852 761.705 77.348C761.607 77.1108 761.558 76.8561 761.56 76.5993C761.561 76.3424 761.614 76.0885 761.715 75.8526C761.921 75.3835 762.297 75.012 762.767 74.8153C763.237 74.6186 763.764 74.6117 764.239 74.7961C788.313 84.4206 815.173 84.1396 839.044 74.0136C839.524 73.8274 840.056 73.8331 840.533 74.0294C841.009 74.2258 841.393 74.598 841.606 75.07C841.789 75.5485 841.782 76.0796 841.587 76.5532C841.392 77.0267 841.023 77.4064 840.558 77.6134C827.806 82.9803 814.121 85.7338 800.302 85.713Z" fill="#02221F"/>
<path d="M841.463 83.1859C842.896 83.4662 844.38 83.3111 845.724 82.741C847.519 81.9802 848.937 80.5366 849.673 78.7307C850.41 76.9252 850.407 74.9002 849.666 73.0965C849.111 71.7446 848.169 70.5866 846.957 69.7713C845.745 68.9559 844.318 68.5206 842.858 68.5225C841.397 68.5243 839.972 68.9632 838.761 69.7817C837.551 70.6 836.612 71.7603 836.06 73.1137C835.508 74.4669 835.368 75.954 835.655 77.3871C835.943 78.8202 836.647 80.1372 837.68 81.1701C838.713 82.2032 840.03 82.9057 841.463 83.1859Z" fill="#FC525A" stroke="#02221F" stroke-width="4"/>
<path d="M847.507 41.8821C848.938 42.1711 850.421 42.0258 851.768 41.4652C853.572 40.7146 855.003 39.2752 855.75 37.4681C856.496 35.6615 856.501 33.6309 855.764 31.8206C855.212 30.4682 854.275 29.3085 853.066 28.4899C851.858 27.6712 850.434 27.2312 848.975 27.2276C847.515 27.2239 846.089 27.6567 844.877 28.4693C843.664 29.2817 842.721 30.4368 842.163 31.7864C841.605 33.1359 841.457 34.621 841.737 36.0543C842.017 37.4877 842.713 38.8073 843.74 39.8453C844.766 40.8834 846.077 41.5931 847.507 41.8821Z" fill="#FC525A" stroke="#02221F" stroke-width="4"/>
<path d="M813.638 45.0734L813.652 45.1122L813.668 45.1504C814.409 46.9599 815.834 48.4041 817.636 49.1608C819.438 49.9177 821.466 49.9228 823.272 49.175L822.506 47.3272L823.275 49.1737C825.079 48.4231 826.509 46.9838 827.256 45.1767C828.003 43.3701 828.008 41.3396 827.27 39.5292L827.254 39.491L827.237 39.4534C826.446 37.72 825.018 36.3576 823.247 35.6563C821.476 34.9548 819.504 34.9709 817.745 35.7011C815.986 36.4311 814.58 37.8164 813.817 39.5623C813.054 41.3078 812.99 43.282 813.638 45.0734Z" fill="#FC525A" stroke="#02221F" stroke-width="4"/>
<path d="M865.373 103.127L871.43 102.862L866.404 99.4711C856.968 93.104 848.319 88.1343 836.285 89.5563L831.61 90.1088L835.253 93.0902C843.736 100.033 854.451 103.604 865.373 103.127Z" fill="#5DC68D" stroke="#02221F" stroke-width="4"/>
<path d="M854.969 84.92L849.464 86.4448L854.718 88.6869C861.983 91.7872 870.018 92.5656 877.737 90.9162L877.319 88.9603L878.213 87.1708C871.002 83.5721 862.729 82.7706 854.969 84.92Z" fill="#5DC68D" stroke="#02221F" stroke-width="4"/>
<path d="M753.039 59.0665L750.28 62.1689L754.426 62.3927C759.596 62.6717 764.769 61.9063 769.641 60.1418C774.513 58.3774 778.985 55.6496 782.795 52.1196L781.436 50.6526L781.737 48.6754C776.472 47.8728 771.092 48.4028 766.082 50.2173C761.072 52.0318 756.59 55.0734 753.039 59.0665Z" fill="#5DC68D" stroke="#02221F" stroke-width="4"/>
<path d="M1120.38 71.8227C1120.03 70.915 1119.5 70.0856 1118.82 69.3822C1117.46 67.9611 1115.59 67.14 1113.63 67.1047C1111.66 67.0694 1109.77 67.823 1108.36 69.1946C1106.95 70.5658 1106.14 72.4418 1106.1 74.409C1106.07 76.3762 1106.81 78.2797 1108.17 79.7001C1108.84 80.4036 1109.65 80.9674 1110.54 81.3585C1111.43 81.7496 1112.39 81.9601 1113.36 81.9776C1114.34 81.9951 1115.3 81.8191 1116.21 81.4602C1117.11 81.1014 1117.94 80.5667 1118.64 79.8877C1119.34 79.2087 1119.89 78.3986 1120.28 77.504C1120.67 76.6095 1120.87 75.6477 1120.89 74.6733C1120.91 73.699 1120.73 72.7305 1120.38 71.8227Z" fill="#FC525A" stroke="#02221F" stroke-width="4"/>
<path d="M1128.36 91.5289L1128.37 91.5225L1128.37 91.5161C1129.06 90.8339 1129.61 90.0211 1129.98 89.1258C1130.35 88.2304 1130.55 87.2697 1130.55 86.2997C1130.55 85.3297 1130.35 84.3691 1129.98 83.4737C1129.62 82.5918 1129.08 81.7901 1128.41 81.1143C1127.76 80.4216 1126.98 79.862 1126.12 79.4676C1125.24 79.0672 1124.29 78.8452 1123.33 78.8151C1122.37 78.7849 1121.41 78.9472 1120.51 79.2921C1119.61 79.637 1118.79 80.1575 1118.09 80.8229L1118.09 80.8294L1118.08 80.8359C1117.38 81.5148 1116.82 82.3249 1116.44 83.2195C1116.05 84.114 1115.85 85.0758 1115.83 86.0502C1115.81 87.0245 1115.98 87.9931 1116.34 88.9008C1116.69 89.8085 1117.22 90.6379 1117.89 91.3414C1118.57 92.0449 1119.37 92.6086 1120.26 92.9997C1121.16 93.3908 1122.12 93.6013 1123.09 93.6188C1124.06 93.6363 1125.03 93.4604 1125.93 93.1014C1126.84 92.7426 1127.66 92.2079 1128.36 91.5289Z" fill="#FC525A" stroke="#02221F" stroke-width="4"/>
<path d="M1121.13 72.6152L1121.13 72.6152L1121.13 72.6293C1121.31 74.5605 1122.23 76.3496 1123.7 77.6117C1125.17 78.8743 1127.08 79.5084 1129.01 79.3738L1128.87 77.3786L1129.02 79.3727C1130.48 79.2608 1131.87 78.7152 1133.01 77.8075C1134.16 76.8999 1135.01 75.6716 1135.46 74.2798C1135.91 72.8882 1135.94 71.3939 1135.54 69.9858C1135.15 68.5776 1134.35 67.317 1133.24 66.3652C1132.13 65.4132 1130.76 64.8133 1129.31 64.644C1127.86 64.4747 1126.39 64.7439 1125.09 65.4164C1123.8 66.0887 1122.73 67.133 1122.02 68.4145C1121.32 69.6959 1121.01 71.1578 1121.13 72.6152Z" fill="#FC525A" stroke="#02221F" stroke-width="4"/>
<path d="M1074.82 86.9971L1075.1 89.9547L1077.74 88.5806C1087.09 83.7011 1092.98 81.2933 1096.49 80.1086C1098.24 79.5169 1099.38 79.2349 1100.06 79.1014C1100.39 79.0348 1100.61 79.0059 1100.72 78.9936C1100.76 78.9894 1100.79 78.9872 1100.8 78.9861H1104.71L1102.38 75.8027C1098.03 69.8877 1095.53 62.8041 1095.19 55.4509L1095.04 52.1755L1092.2 53.8098C1088.77 55.7795 1084.89 56.795 1080.95 56.7551C1079.68 56.455 1078.2 55.1901 1076.89 53.0804C1075.57 50.9662 1074.74 48.4753 1074.57 46.6415L1074.22 42.7065L1071.26 45.3168C1067.37 48.737 1063.2 49.1708 1059.53 48.4239C1055.79 47.6592 1052.65 45.6579 1051.25 44.3923L1048.21 46.9268C1050.63 50.8586 1052.65 54.4091 1053.49 58.01C1054.3 61.4871 1054.03 65.0663 1051.64 69.1244L1049.52 72.7315L1053.66 72.1169C1058.47 71.4028 1063.45 71.6435 1067.33 73.7212C1071.07 75.7215 1074.12 79.6059 1074.82 86.9971Z" fill="#5DC68D" stroke="#02221F" stroke-width="4"/>
<path d="M1057.05 52.1797C1069.31 60.7663 1082.15 68.4678 1095.48 75.2264C1081.25 70.259 1068.18 62.4169 1057.05 52.1797V52.1797Z" fill="#02221F"/>
<path d="M1089.87 47.7971L1087.76 49.8136L1090.4 51.0549C1099.93 55.5278 1105.46 58.7301 1108.58 60.7847C1110.14 61.811 1111.09 62.5441 1111.62 62.9982C1111.89 63.2249 1112.06 63.3801 1112.14 63.4656C1112.18 63.5001 1112.2 63.523 1112.21 63.5344L1114.63 66.4579L1115.66 62.7735C1117.64 55.6848 1121.66 49.3523 1127.22 44.5794L1129.7 42.4544L1126.68 41.2127C1123.05 39.7188 1119.87 37.2944 1117.46 34.1795C1116.92 32.9787 1117.03 31.0576 1117.89 28.7425C1118.76 26.42 1120.21 24.206 1121.55 22.8806L1124.18 20.2621L1120.54 19.5052C1115.44 18.4415 1112.52 15.3575 1110.87 11.9832C1109.17 8.53182 1108.84 4.83414 1108.97 2.9402L1105.09 2.12705C1103.58 6.37377 1102.03 10.1609 1099.71 13.0505C1097.46 15.8484 1094.46 17.8447 1089.84 18.4221L1085.7 18.9395L1088.7 21.8424C1092.14 25.1829 1094.98 29.278 1095.72 33.6458C1096.42 37.8578 1095.23 42.6845 1089.87 47.7971Z" fill="#5DC68D" stroke="#02221F" stroke-width="4"/>
<path d="M1106.35 12.2686C1107.13 27.288 1108.96 42.2333 1111.83 56.9925C1107.02 42.6111 1105.16 27.3962 1106.35 12.2686V12.2686Z" fill="#02221F"/>
<path d="M945.545 102.414L944.731 105.235L947.654 104.959C954.969 104.269 959.339 106.543 962.025 109.869C964.817 113.325 966.035 118.218 966.316 123.116L966.554 127.282L969.652 124.487C973.127 121.352 976.59 120.393 980.145 120.535C983.823 120.681 987.663 122.004 991.842 123.65L993.797 120.206C992.293 119.044 989.775 116.325 988.329 112.753C986.913 109.256 986.54 105.018 989.077 100.505L990.899 97.2628L987.19 97.5298C985.359 97.6617 982.765 97.2586 980.444 96.3511C978.14 95.4507 976.612 94.2578 976.051 93.1187C975.285 89.2213 975.558 85.1874 976.843 81.4292L977.907 78.3171L974.654 78.8042C967.429 79.886 960.048 78.7625 953.461 75.5774L950.045 73.9254L950.608 77.6466C950.61 77.6622 950.612 77.6948 950.615 77.7458C950.622 77.8686 950.629 78.0965 950.62 78.4501C950.603 79.1587 950.524 80.3603 950.261 82.2186C949.734 85.9386 948.478 92.241 945.545 102.414Z" fill="#5DC68D" stroke="#02221F" stroke-width="4"/>
<path d="M984.966 116.115C974.286 105.613 964.35 94.3682 955.23 82.4648C962.773 95.6 972.89 107.049 984.966 116.115V116.115Z" fill="#02221F"/>
<path d="M972.544 81.6432C965.438 81.6488 958.372 80.5805 951.581 78.4738C951.094 78.3204 950.687 77.9798 950.447 77.5257C950.207 77.0717 950.154 76.5408 950.3 76.0479C950.366 75.7988 950.482 75.5661 950.641 75.3642C950.8 75.1623 950.999 74.9957 951.225 74.8745C951.451 74.7534 951.699 74.6804 951.954 74.6601C952.209 74.6399 952.465 74.6727 952.707 74.7566C969.132 79.7786 986.83 78.3816 1002.28 70.8438C1017.65 63.2204 1029.61 50.0485 1035.78 33.9455C1035.87 33.703 1036.01 33.4809 1036.18 33.2923C1036.36 33.1036 1036.57 32.9521 1036.81 32.8465C1037.04 32.7409 1037.29 32.6834 1037.55 32.6773C1037.81 32.6712 1038.06 32.7166 1038.3 32.8108C1038.54 32.8977 1038.76 33.0321 1038.95 33.206C1039.14 33.3799 1039.29 33.5898 1039.39 33.8232C1039.5 34.0567 1039.55 34.309 1039.56 34.5653C1039.57 34.8215 1039.52 35.0764 1039.43 35.315C1032.92 52.3983 1020.24 66.373 1003.95 74.4436C994.159 79.2169 983.419 81.6791 972.544 81.6432Z" fill="#02221F"/>
<path d="M958.18 79.0606C956.048 79.071 953.918 78.9009 951.814 78.552C951.308 78.4564 950.859 78.1661 950.562 77.7424C950.265 77.3188 950.143 76.7951 950.222 76.2825C950.265 76.0276 950.357 75.7837 950.493 75.5649C950.629 75.346 950.807 75.1565 951.016 75.0073C951.226 74.8582 951.462 74.7523 951.713 74.6958C951.963 74.6393 952.222 74.6333 952.474 74.6782C964.12 76.752 977.707 71.7827 985.82 66.8525C995.189 61.1449 1002.22 52.2491 1005.66 41.7711C1005.82 41.2845 1006.17 40.8824 1006.63 40.649C1007.09 40.4156 1007.61 40.369 1008.1 40.519C1008.35 40.5942 1008.57 40.7185 1008.77 40.8845C1008.97 41.0505 1009.13 41.2547 1009.24 41.4849C1009.36 41.7151 1009.43 41.9666 1009.45 42.2242C1009.46 42.4818 1009.43 42.7403 1009.34 42.9841C1005.63 54.4091 997.988 64.1219 987.8 70.3741C978.814 75.7482 968.624 78.737 958.18 79.0606V79.0606Z" fill="#02221F"/>
<path d="M988.964 85.713C976.096 85.7823 963.34 83.296 951.426 78.396C951.189 78.3011 950.972 78.16 950.789 77.9808C950.606 77.8016 950.46 77.5877 950.359 77.3515C950.258 77.1152 950.204 76.8613 950.201 76.6041C950.197 76.3469 950.244 76.0915 950.339 75.8526C950.552 75.3806 950.936 75.0083 951.412 74.812C951.888 74.6156 952.421 74.61 952.901 74.7961C976.962 84.4225 1003.81 84.1415 1027.67 74.0136C1028.15 73.8274 1028.68 73.8331 1029.16 74.0294C1029.63 74.2258 1030.02 74.598 1030.23 75.07C1030.33 75.3059 1030.38 75.5598 1030.38 75.8167C1030.39 76.0736 1030.34 76.3282 1030.24 76.5654C1030.14 76.8027 1030 77.0177 1029.82 77.1977C1029.63 77.3777 1029.42 77.5191 1029.18 77.6134C1016.44 82.9762 1002.77 85.7296 988.964 85.713V85.713Z" fill="#02221F"/>
<path d="M1030.07 83.1633C1031.51 83.4523 1032.99 83.307 1034.34 82.7464C1036.14 81.9958 1037.57 80.5565 1038.32 78.7494C1039.06 76.9428 1039.07 74.9123 1038.33 73.1019C1037.78 71.7495 1036.84 70.5897 1035.63 69.7712C1034.43 68.9524 1033 68.5125 1031.54 68.5088C1030.08 68.5051 1028.66 68.9379 1027.44 69.7505C1026.23 70.563 1025.29 71.718 1024.73 73.0677C1024.17 74.417 1024.02 75.9021 1024.3 77.3355C1024.58 78.769 1025.28 80.0886 1026.31 81.1265C1027.33 82.1647 1028.64 82.8744 1030.07 83.1633Z" fill="#FC525A" stroke="#02221F" stroke-width="4"/>
<path d="M1036.13 41.8821C1037.56 42.1706 1039.04 42.0262 1040.38 41.468C1041.28 41.1016 1042.1 40.56 1042.78 39.8755C1043.47 39.1892 1044.02 38.3729 1044.39 37.4744C1044.76 36.5759 1044.95 35.6125 1044.95 34.6402C1044.95 33.6701 1044.76 32.7096 1044.38 31.8138C1043.83 30.4644 1042.9 29.3071 1041.69 28.4899C1040.48 27.6712 1039.06 27.2312 1037.6 27.2276C1036.14 27.2239 1034.71 27.6567 1033.5 28.4693C1032.29 29.2817 1031.34 30.4368 1030.79 31.7864C1030.23 33.1359 1030.08 34.621 1030.36 36.0543C1030.64 37.4876 1031.34 38.8072 1032.36 39.8453C1033.39 40.8834 1034.7 41.5931 1036.13 41.8821Z" fill="#FC525A" stroke="#02221F" stroke-width="4"/>
<path d="M1007.66 49.5661C1009.07 49.8605 1010.54 49.7259 1011.88 49.1798C1012.78 48.8133 1013.6 48.2708 1014.29 47.5845C1014.98 46.8983 1015.52 46.082 1015.89 45.1835C1016.27 44.285 1016.46 43.3216 1016.46 42.3492C1016.45 41.3768 1016.26 40.4139 1015.89 39.5162C1015.33 38.1792 1014.39 37.0354 1013.19 36.2303C1011.99 35.4251 1010.58 34.9954 1009.13 34.9971C1007.68 34.9988 1006.27 35.4318 1005.07 36.2397C1003.87 37.0476 1002.93 38.1936 1002.38 39.5319C1001.83 40.87 1001.68 42.3422 1001.95 43.7639C1002.23 45.1857 1002.92 46.4959 1003.93 47.5289C1004.94 48.5621 1006.24 49.2717 1007.66 49.5661Z" fill="#FC525A" stroke="#02221F" stroke-width="4"/>
<path d="M1054 103.127L1060.04 102.853L1055.03 99.4711C1045.59 93.106 1037.02 88.1344 1024.95 89.5562L1020.29 90.1053L1023.91 93.0872C1032.37 100.046 1043.08 103.621 1054 103.127Z" fill="#5DC68D" stroke="#02221F" stroke-width="4"/>
<path d="M1043.64 84.9186L1038.1 86.438L1043.38 88.6876C1050.66 91.7853 1058.71 92.5633 1066.44 90.9164L1066.02 88.9603L1066.91 87.1682C1059.68 83.5875 1051.41 82.7872 1043.64 84.9186Z" fill="#5DC68D" stroke="#02221F" stroke-width="4"/>
<path d="M941.818 59.0674L939.045 62.1854L943.213 62.3939C948.362 62.6516 953.51 61.876 958.358 60.1124C963.207 58.3488 967.659 55.6325 971.456 52.1219L970.098 50.6534L970.394 48.6754C965.148 47.8906 959.791 48.4296 954.804 50.2438C949.816 52.058 945.355 55.0902 941.818 59.0674Z" fill="#5DC68D" stroke="#02221F" stroke-width="4"/>
<path d="M1297.06 69.3457L1297.06 69.3507L1297.05 69.3558C1296.02 70.3912 1295.32 71.7091 1295.04 73.1418C1294.76 74.5743 1294.9 76.0597 1295.46 77.4107C1296.01 78.7618 1296.95 79.9191 1298.16 80.7346C1299.37 81.5503 1300.8 81.9866 1302.26 81.9866C1303.72 81.9866 1305.14 81.5503 1306.35 80.7346C1307.56 79.9191 1308.5 78.7617 1309.06 77.4107C1309.61 76.0598 1309.76 74.5744 1309.47 73.1418C1309.19 71.709 1308.49 70.3911 1307.46 69.3558L1306.04 70.7655L1307.45 69.3457C1306.07 67.9744 1304.2 67.2031 1302.26 67.2031C1300.31 67.2031 1298.45 67.9744 1297.06 69.3457Z" fill="#FC525A" stroke="#02221F" stroke-width="4"/>
<path d="M1318.99 84.9213C1318.74 83.502 1318.08 82.1863 1317.09 81.1373C1316.41 80.404 1315.58 79.8184 1314.66 79.4174C1313.74 79.0153 1312.75 78.8076 1311.75 78.8076C1310.74 78.8076 1309.75 79.0153 1308.83 79.4174C1307.91 79.8184 1307.09 80.404 1306.41 81.1372C1305.42 82.1862 1304.76 83.5019 1304.51 84.9213C1304.25 86.3431 1304.42 87.8087 1304.98 89.1373C1305.55 90.4661 1306.49 91.6009 1307.69 92.3996C1308.89 93.1983 1310.3 93.625 1311.75 93.625C1313.19 93.625 1314.6 93.1983 1315.8 92.3996C1317 91.6009 1317.95 90.4661 1318.51 89.1373C1319.08 87.8087 1319.24 86.3431 1318.99 84.9213Z" fill="#FC525A" stroke="#02221F" stroke-width="4"/>
<path d="M1317.65 79.3727C1319.1 79.2608 1320.49 78.7152 1321.64 77.8075C1322.78 76.8999 1323.63 75.6716 1324.08 74.2798C1324.53 72.8882 1324.56 71.3939 1324.17 69.9858C1323.77 68.5776 1322.97 67.317 1321.86 66.3652C1320.75 65.4132 1319.38 64.8133 1317.93 64.644C1316.48 64.4747 1315.01 64.7439 1313.72 65.4164C1312.42 66.0887 1311.35 67.133 1310.65 68.4145C1309.94 69.6959 1309.63 71.1578 1309.75 72.6152C1309.92 74.5555 1310.83 76.3564 1312.31 77.6238C1313.79 78.8916 1315.71 79.5218 1317.65 79.3727Z" fill="#FC525A" stroke="#02221F" stroke-width="4"/>
<path d="M1263.52 87.0067L1263.82 89.9529L1266.44 88.579C1275.76 83.7001 1281.64 81.2929 1285.14 80.1086C1286.89 79.5171 1288.04 79.2351 1288.71 79.1017C1289.05 79.035 1289.27 79.006 1289.38 78.9937C1289.42 78.9894 1289.45 78.9872 1289.47 78.9861H1293.43L1291.03 75.7839C1286.6 69.9033 1284.04 62.8156 1283.66 55.4421L1283.49 52.1882L1280.67 53.8085C1277.23 55.7805 1273.33 56.7963 1269.38 56.7551C1268.11 56.4552 1266.63 55.1905 1265.32 53.083C1264.02 50.9699 1263.19 48.4843 1263.04 46.659L1262.73 42.6885L1259.73 45.3139C1255.82 48.7379 1251.64 49.1705 1247.98 48.4239C1244.24 47.6596 1241.1 45.6585 1239.67 44.3845L1236.64 46.9268C1239.06 50.8586 1241.08 54.4091 1241.92 58.01C1242.73 61.4871 1242.46 65.0663 1240.07 69.1244L1237.96 72.7188L1242.08 72.1177C1247 71.4021 1252.03 71.6435 1255.95 73.7242C1259.72 75.7275 1262.78 79.6147 1263.52 87.0067Z" fill="#5DC68D" stroke="#02221F" stroke-width="4"/>
<path d="M1245.68 52.1797C1257.94 60.7498 1270.78 68.4506 1284.11 75.2264C1269.88 70.2501 1256.8 62.4089 1245.68 52.1797V52.1797Z" fill="#02221F"/>
<path d="M1278.53 47.7994L1276.43 49.8158L1279.07 51.0549C1288.6 55.5277 1294.12 58.7294 1297.22 60.7832C1298.78 61.809 1299.72 62.5413 1300.25 62.9944C1300.51 63.2205 1300.68 63.3751 1300.76 63.4597C1300.79 63.493 1300.82 63.5152 1300.83 63.5265L1303.25 66.4877L1304.28 62.7716C1306.26 55.6745 1310.3 49.3399 1315.88 44.5844L1318.38 42.4507L1315.34 41.2098C1311.7 39.7275 1308.51 37.3054 1306.09 34.1864C1305.56 32.9783 1305.67 31.0508 1306.53 28.7394C1307.4 26.4151 1308.84 24.2032 1310.17 22.8806L1312.79 20.2727L1309.17 19.5066C1304.17 18.4459 1301.24 15.3643 1299.56 11.974C1297.84 8.51148 1297.46 4.81384 1297.59 2.9402L1293.72 2.12705C1292.2 6.37377 1290.65 10.1609 1288.33 13.0505C1286.09 15.8484 1283.08 17.8447 1278.46 18.4221L1274.31 18.9413L1277.32 21.8461C1280.78 25.1844 1283.62 29.2789 1284.36 33.6458C1285.07 37.859 1283.88 42.6866 1278.53 47.7994Z" fill="#5DC68D" stroke="#02221F" stroke-width="4"/>
<path d="M1294.94 12.2686C1295.75 27.2872 1297.59 42.2311 1300.45 56.9925C1295.63 42.6136 1293.76 27.3989 1294.94 12.2686V12.2686Z" fill="#02221F"/>
<path d="M1134.17 102.411L1133.35 105.235L1136.28 104.959C1143.61 104.269 1147.98 106.544 1150.66 109.868C1153.45 113.322 1154.66 118.215 1154.94 123.116L1155.18 127.282L1158.28 124.487C1161.75 121.352 1165.22 120.393 1168.78 120.535C1172.47 120.681 1176.31 122.004 1180.46 123.649L1182.43 120.213C1180.94 119.048 1178.43 116.327 1176.98 112.753C1175.56 109.252 1175.18 105.012 1177.7 100.5L1179.51 97.2637L1175.81 97.5298C1173.98 97.6617 1171.39 97.2585 1169.07 96.3516C1166.77 95.4477 1165.25 94.2529 1164.71 93.1213C1163.91 89.2291 1164.17 85.1899 1165.47 81.4327L1166.54 78.3226L1163.28 78.8036C1156.05 79.8722 1148.67 78.7489 1142.08 75.5758L1138.64 73.919L1139.23 77.6601C1139.24 77.6756 1139.24 77.7073 1139.24 77.7566C1139.25 77.8783 1139.26 78.105 1139.25 78.4577C1139.23 79.1642 1139.16 80.3641 1138.9 82.221C1138.38 85.9385 1137.12 92.2388 1134.17 102.411Z" fill="#5DC68D" stroke="#02221F" stroke-width="4"/>
<path d="M1173.59 116.115C1162.91 105.613 1152.97 94.3682 1143.85 82.4648C1151.41 95.5916 1161.52 107.039 1173.59 116.115V116.115Z" fill="#02221F"/>
<path d="M1161.17 81.6437C1154.06 81.6463 1147 80.578 1140.2 78.4742C1139.72 78.3208 1139.31 77.9802 1139.07 77.5262C1138.83 77.0721 1138.78 76.5412 1138.92 76.0483C1138.99 75.7978 1139.11 75.5643 1139.28 75.3622C1139.44 75.1601 1139.64 74.9936 1139.87 74.8727C1140.1 74.7519 1140.35 74.6794 1140.61 74.6595C1140.87 74.6396 1141.12 74.6728 1141.37 74.757C1157.78 79.7804 1175.47 78.3833 1190.9 70.8442C1206.28 63.2224 1218.25 50.0516 1224.44 33.946C1224.51 33.6789 1224.63 33.4291 1224.8 33.2129C1224.97 32.9967 1225.18 32.819 1225.43 32.6914C1225.67 32.5638 1225.93 32.4891 1226.21 32.4724C1226.48 32.4556 1226.75 32.4971 1227.01 32.5941C1227.26 32.6911 1227.5 32.8415 1227.69 33.0354C1227.88 33.2293 1228.04 33.4623 1228.13 33.7192C1228.23 33.976 1228.28 34.251 1228.26 34.5261C1228.25 34.8012 1228.18 35.0702 1228.05 35.3155C1221.53 52.3815 1208.88 66.3499 1192.61 74.444C1182.81 79.2179 1172.05 81.6799 1161.17 81.6437V81.6437Z" fill="#02221F"/>
<path d="M1146.8 79.0606C1144.67 79.0676 1142.54 78.8974 1140.44 78.5519C1139.93 78.4568 1139.49 78.1648 1139.2 77.7397C1138.91 77.3146 1138.79 76.7907 1138.89 76.2825C1138.92 76.0252 1139.01 75.7783 1139.15 75.5567C1139.28 75.3351 1139.46 75.1434 1139.67 74.9934C1139.88 74.8433 1140.12 74.738 1140.37 74.6838C1140.62 74.6296 1140.88 74.6277 1141.14 74.6782C1152.78 76.752 1166.33 71.7827 1174.44 66.8525C1183.82 61.1466 1190.87 52.2519 1194.32 41.7711C1194.39 41.5181 1194.51 41.2823 1194.68 41.0777C1194.84 40.8732 1195.04 40.7041 1195.27 40.5806C1195.51 40.4571 1195.76 40.3817 1196.02 40.3589C1196.28 40.3361 1196.54 40.3665 1196.79 40.4481C1197.04 40.5297 1197.27 40.6609 1197.46 40.8339C1197.66 41.0069 1197.82 41.218 1197.93 41.4548C1198.05 41.6915 1198.11 41.949 1198.12 42.2118C1198.14 42.4745 1198.1 42.7372 1198.01 42.9841C1194.28 54.4136 1186.62 64.1263 1176.42 70.3741C1167.44 75.7529 1157.25 78.742 1146.8 79.0606V79.0606Z" fill="#02221F"/>
<path d="M1177.59 85.7118C1164.72 85.7812 1151.96 83.2948 1140.05 78.3948C1139.81 78.3005 1139.6 78.1591 1139.41 77.9791C1139.23 77.7991 1139.09 77.5841 1138.99 77.3468C1138.89 77.1096 1138.84 76.855 1138.85 76.5981C1138.85 76.3412 1138.9 76.0873 1139 75.8514C1139.21 75.3823 1139.58 75.0109 1140.05 74.8141C1140.52 74.6174 1141.05 74.6106 1141.52 74.795C1165.6 84.4194 1192.46 84.1384 1216.33 74.0124C1216.8 73.828 1217.33 73.8349 1217.8 74.0316C1218.27 74.2283 1218.65 74.5997 1218.85 75.0689C1218.96 75.3023 1219.01 75.5539 1219.01 75.809C1219.02 76.0641 1218.97 76.3175 1218.88 76.5543C1218.78 76.7912 1218.64 77.0068 1218.47 77.1884C1218.29 77.3701 1218.08 77.5142 1217.84 77.6122C1205.09 82.9762 1191.41 85.7295 1177.59 85.7118V85.7118Z" fill="#02221F"/>
<path d="M1218.7 83.1633C1220.13 83.4519 1221.61 83.3075 1222.95 82.7492C1223.85 82.3827 1224.66 81.8413 1225.35 81.1567C1226.04 80.4705 1226.58 79.6542 1226.96 78.7557C1227.33 77.8572 1227.52 76.8938 1227.52 75.9214C1227.52 74.9514 1227.32 73.9908 1226.95 73.095C1226.4 71.7456 1225.46 70.5884 1224.26 69.7712C1223.05 68.9524 1221.63 68.5125 1220.17 68.5088C1218.71 68.5051 1217.28 68.9379 1216.07 69.7505C1214.86 70.563 1213.91 71.718 1213.35 73.0677C1212.8 74.4172 1212.65 75.9022 1212.93 77.3355C1213.21 78.7689 1213.9 80.0885 1214.93 81.1265C1215.96 82.1647 1217.27 82.8744 1218.7 83.1633Z" fill="#FC525A" stroke="#02221F" stroke-width="4"/>
<path d="M1224.79 41.8821C1226.22 42.1711 1227.71 42.0257 1229.05 41.4652C1230.86 40.7146 1232.29 39.2752 1233.04 37.4681C1233.78 35.6616 1233.79 33.631 1233.05 31.8206C1232.5 30.4683 1231.56 29.3085 1230.35 28.4899C1229.14 27.6712 1227.72 27.2312 1226.26 27.2276C1224.8 27.2239 1223.38 27.6567 1222.16 28.4693C1220.95 29.2817 1220.01 30.4367 1219.45 31.7864C1218.89 33.1359 1218.74 34.621 1219.02 36.0543C1219.3 37.4877 1220 38.8073 1221.03 39.8453C1222.05 40.8834 1223.36 41.5931 1224.79 41.8821Z" fill="#FC525A" stroke="#02221F" stroke-width="4"/>
<path d="M1199.79 47.327L1200.56 49.1749C1198.75 49.9227 1196.72 49.9175 1194.92 49.1606C1193.12 48.4041 1191.7 46.9604 1190.95 45.1513L1199.79 47.327ZM1199.79 47.327L1200.57 49.1684C1202.37 48.4076 1203.79 46.9641 1204.52 45.1581C1205.26 43.3529 1205.26 41.3283 1204.52 39.525L1199.79 47.327ZM1190.96 39.5154C1190.22 41.319 1190.21 43.3453 1190.95 45.1502L1204.52 39.5239C1203.77 37.7189 1202.35 36.2792 1200.55 35.5267C1198.75 34.7738 1196.73 34.7723 1194.93 35.5227C1193.13 36.2728 1191.7 37.7108 1190.96 39.5154Z" fill="#FC525A" stroke="#02221F" stroke-width="4"/>
<path d="M1242.62 103.127L1248.66 102.868L1243.65 99.4732C1234.25 93.1035 1225.57 88.134 1213.57 89.5564L1208.9 90.1105L1212.54 93.0903C1221.01 100.023 1231.71 103.594 1242.62 103.127Z" fill="#5DC68D" stroke="#02221F" stroke-width="4"/>
<path d="M1232.29 84.92L1226.79 86.4448L1232.04 88.6869C1239.31 91.7872 1247.34 92.5656 1255.06 90.9162L1254.64 88.9603L1255.54 87.1708C1248.33 83.5721 1240.05 82.7706 1232.29 84.92Z" fill="#5DC68D" stroke="#02221F" stroke-width="4"/>
<path d="M1130.32 59.0683L1127.57 62.1734L1131.71 62.3935C1136.88 62.6679 1142.05 61.9004 1146.93 60.1364C1151.8 58.3723 1156.27 55.6473 1160.08 52.1216L1158.72 50.6533L1159.02 48.6764C1153.76 47.8699 1148.38 48.3982 1143.37 50.2131C1138.36 52.028 1133.87 55.0719 1130.32 59.0683Z" fill="#5DC68D" stroke="#02221F" stroke-width="4"/>
<path d="M1497.55 71.8227C1497.2 70.915 1496.67 70.0856 1495.99 69.3822C1494.63 67.9611 1492.76 67.14 1490.8 67.1047C1488.83 67.0694 1486.94 67.823 1485.53 69.1946C1484.12 70.5658 1483.31 72.4418 1483.27 74.409C1483.24 76.3762 1483.98 78.2797 1485.34 79.7001C1486.01 80.4036 1486.82 80.9674 1487.71 81.3585C1488.6 81.7496 1489.56 81.9601 1490.53 81.9776C1491.51 81.9951 1492.47 81.8191 1493.38 81.4602C1494.28 81.1014 1495.11 80.5667 1495.81 79.8877C1496.51 79.2087 1497.06 78.3986 1497.45 77.504C1497.84 76.6095 1498.04 75.6477 1498.06 74.6733C1498.08 73.699 1497.9 72.7305 1497.55 71.8227Z" fill="#FC525A" stroke="#02221F" stroke-width="4"/>
<path d="M1507.7 84.8717C1507.41 83.4393 1506.7 82.1235 1505.67 81.0918C1504.99 80.408 1504.19 79.8645 1503.3 79.493C1502.41 79.1206 1501.45 78.9287 1500.49 78.9287C1499.52 78.9287 1498.57 79.1206 1497.68 79.493C1496.79 79.8645 1495.98 80.408 1495.31 81.0919C1494.27 82.1235 1493.57 83.4393 1493.28 84.8717C1492.99 86.3063 1493.13 87.7955 1493.68 89.1508C1494.23 90.5062 1495.17 91.6681 1496.39 92.487C1497.6 93.306 1499.03 93.7443 1500.49 93.7443C1501.95 93.7443 1503.38 93.306 1504.59 92.487C1505.8 91.6681 1506.74 90.5062 1507.3 89.1508C1507.85 87.7955 1507.99 86.3063 1507.7 84.8717Z" fill="#FC525A" stroke="#02221F" stroke-width="4"/>
<path d="M1498.46 72.6152L1498.46 72.6152L1498.46 72.6293C1498.63 74.5605 1499.55 76.3496 1501.02 77.6117C1502.49 78.8743 1504.4 79.5084 1506.33 79.3738L1506.19 77.3786L1506.35 79.3727C1507.8 79.2608 1509.19 78.7152 1510.34 77.8075C1511.49 76.8999 1512.34 75.6716 1512.78 74.2798C1513.23 72.8881 1513.26 71.3938 1512.87 69.9858C1512.47 68.5777 1511.67 67.317 1510.56 66.3652C1509.45 65.4132 1508.09 64.8133 1506.63 64.644C1505.18 64.4747 1503.72 64.7439 1502.42 65.4164C1501.12 66.0887 1500.05 67.133 1499.35 68.4145C1498.64 69.6957 1498.33 71.1576 1498.46 72.6152Z" fill="#FC525A" stroke="#02221F" stroke-width="4"/>
<path d="M1452.11 87.0019L1452.4 89.9538L1455.03 88.5798C1464.36 83.7008 1470.25 81.2933 1473.76 80.1088C1475.51 79.5172 1476.66 79.2352 1477.34 79.1017C1477.67 79.0351 1477.89 79.0061 1478.01 78.9937C1478.05 78.9894 1478.07 78.9872 1478.09 78.9861H1482.01L1479.66 75.7982C1475.3 69.8958 1472.8 62.8099 1472.48 55.4564L1472.34 52.1737L1469.49 53.8089C1466.06 55.7757 1462.18 56.7912 1458.24 56.7549C1456.96 56.4545 1455.48 55.1897 1454.17 53.0804C1452.86 50.9662 1452.02 48.4753 1451.86 46.6415L1451.51 42.717L1448.55 45.3139C1444.64 48.7379 1440.46 49.1705 1436.8 48.4239C1433.05 47.6596 1429.92 45.6585 1428.49 44.3845L1425.46 46.9329C1427.9 50.8629 1429.92 54.4123 1430.77 58.01C1431.58 61.483 1431.3 65.0602 1428.89 69.1189L1426.75 72.734L1430.91 72.1169C1435.72 71.4029 1440.7 71.6433 1444.59 73.7216C1448.33 75.7232 1451.39 79.6099 1452.11 87.0019Z" fill="#5DC68D" stroke="#02221F" stroke-width="4"/>
<path d="M1434.3 52.1797C1446.57 60.7498 1459.41 68.4506 1472.73 75.2264C1458.51 70.2411 1445.43 62.401 1434.3 52.1797V52.1797Z" fill="#02221F"/>
<path d="M1467.16 47.7971L1465.04 49.8136L1467.69 51.0549C1477.22 55.5278 1482.75 58.7301 1485.87 60.7847C1487.43 61.811 1488.37 62.5441 1488.91 62.9982C1489.18 63.2249 1489.34 63.3801 1489.43 63.4656C1489.46 63.5001 1489.48 63.523 1489.5 63.5344L1491.91 66.4579L1492.94 62.7735C1494.92 55.6848 1498.95 49.3523 1504.51 44.5794L1506.99 42.4481L1503.96 41.2107C1500.33 39.7267 1497.15 37.3021 1494.75 34.1814C1494.2 32.9768 1494.31 31.0516 1495.17 28.7394C1496.03 26.419 1497.48 24.2103 1498.82 22.8894L1501.49 20.2678L1497.83 19.5052C1492.72 18.4416 1489.81 15.3575 1488.15 11.9814C1486.45 8.52938 1486.1 4.82731 1486.22 2.9226L1482.34 2.13471C1480.84 6.37852 1479.3 10.1634 1476.99 13.0505C1474.74 15.8461 1471.73 17.8441 1467.09 18.422L1462.93 18.9396L1465.95 21.8461C1469.41 25.1862 1472.26 29.2811 1473 33.6477C1473.71 37.8584 1472.52 42.6843 1467.16 47.7971Z" fill="#5DC68D" stroke="#02221F" stroke-width="4"/>
<path d="M1483.6 12.2686C1484.38 27.288 1486.21 42.2333 1489.07 56.9925C1484.25 42.6155 1482.39 27.3967 1483.6 12.2686V12.2686Z" fill="#02221F"/>
<path d="M1322.83 102.414L1322.02 105.235L1324.94 104.959C1332.26 104.269 1336.61 106.543 1339.29 109.867C1342.07 113.321 1343.28 118.215 1343.56 123.116L1343.8 127.268L1346.9 124.49C1350.39 121.352 1353.87 120.393 1357.42 120.535C1361.1 120.681 1364.93 122.004 1369.09 123.649L1371.05 120.213C1369.56 119.048 1367.05 116.328 1365.61 112.755C1364.2 109.257 1363.83 105.018 1366.36 100.505L1368.18 97.2653L1364.48 97.5298C1362.62 97.662 1360.02 97.2577 1357.7 96.3511C1355.39 95.4493 1353.88 94.2576 1353.34 93.1286C1352.58 89.2255 1352.84 85.1877 1354.09 81.4153L1355.13 78.3275L1351.91 78.8036C1344.68 79.8722 1337.3 78.7489 1330.71 75.5758L1327.26 73.919L1327.86 77.6603C1327.86 77.6759 1327.86 77.7078 1327.86 77.7575C1327.87 77.8794 1327.88 78.1064 1327.87 78.4592C1327.86 79.1662 1327.79 80.3663 1327.53 82.2235C1327.01 85.9414 1325.76 92.242 1322.83 102.414Z" fill="#5DC68D" stroke="#02221F" stroke-width="4"/>
<path d="M1362.25 116.115C1351.56 105.613 1341.61 94.3687 1332.48 82.4648C1340.03 95.6017 1350.16 107.051 1362.25 116.115V116.115Z" fill="#02221F"/>
<path d="M1349.83 81.6437C1342.72 81.6522 1335.66 80.5838 1328.87 78.4742C1328.43 78.282 1328.08 77.9351 1327.88 77.4993C1327.68 77.0635 1327.65 76.5693 1327.79 76.1105C1327.93 75.6518 1328.23 75.2605 1328.64 75.0109C1329.04 74.7614 1329.52 74.671 1329.99 74.757C1346.4 79.7804 1364.09 78.3833 1379.53 70.8442C1394.89 63.2146 1406.85 50.0448 1413.03 33.946C1413.09 33.6789 1413.22 33.4291 1413.39 33.2129C1413.56 32.9967 1413.77 32.819 1414.01 32.6914C1414.25 32.5638 1414.52 32.4891 1414.79 32.4724C1415.06 32.4556 1415.34 32.4971 1415.59 32.5941C1415.85 32.6911 1416.08 32.8415 1416.28 33.0354C1416.47 33.2293 1416.62 33.4623 1416.72 33.7192C1416.82 33.976 1416.86 34.251 1416.85 34.5261C1416.83 34.8012 1416.76 35.0702 1416.64 35.3155C1410.15 52.4043 1397.49 66.3845 1381.2 74.444C1371.42 79.2115 1360.69 81.6735 1349.83 81.6437V81.6437Z" fill="#02221F"/>
<path d="M1335.39 79.0606C1333.27 79.0694 1331.15 78.8993 1329.06 78.552C1328.55 78.4637 1328.09 78.173 1327.79 77.7438C1327.48 77.3145 1327.36 76.7818 1327.45 76.2629C1327.54 75.7441 1327.83 75.2815 1328.25 74.9769C1328.68 74.6724 1329.21 74.5509 1329.72 74.6391C1341.37 76.7129 1354.95 71.7436 1363.03 66.8134C1372.41 61.1242 1379.48 52.2436 1382.94 41.7711C1383.11 41.2845 1383.46 40.8824 1383.92 40.649C1384.37 40.4156 1384.9 40.369 1385.39 40.519C1385.88 40.6802 1386.28 41.0303 1386.52 41.4925C1386.75 41.9547 1386.79 42.4912 1386.63 42.9841C1382.91 54.4091 1375.27 64.1219 1365.09 70.3741C1356.08 75.7593 1345.86 78.7484 1335.39 79.0606V79.0606Z" fill="#02221F"/>
<path d="M1366.21 85.713C1353.34 85.7793 1340.59 83.2931 1328.67 78.396C1328.2 78.1969 1327.83 77.818 1327.63 77.3417C1327.43 76.8654 1327.43 76.3302 1327.63 75.8526C1327.83 75.3835 1328.21 75.012 1328.68 74.8153C1329.15 74.6186 1329.67 74.6117 1330.15 74.7961C1354.22 84.4206 1381.08 84.1396 1404.95 74.0136C1405.43 73.8274 1405.97 73.8331 1406.44 74.0294C1406.92 74.2258 1407.3 74.598 1407.52 75.07C1407.7 75.5485 1407.69 76.0796 1407.5 76.5532C1407.3 77.0267 1406.93 77.4064 1406.47 77.6134C1393.72 82.9803 1380.03 85.7338 1366.21 85.713V85.713Z" fill="#02221F"/>
<path d="M1407.36 83.1633C1408.79 83.4523 1410.27 83.307 1411.62 82.7464C1413.43 81.9958 1414.86 80.5565 1415.6 78.7494C1416.35 76.9428 1416.36 74.9123 1415.62 73.1019C1415.07 71.7495 1414.13 70.5897 1412.92 69.7712C1411.71 68.9524 1410.29 68.5125 1408.83 68.5088C1407.37 68.5051 1405.94 68.9379 1404.73 69.7505C1403.52 70.563 1402.57 71.718 1402.02 73.0677C1401.46 74.417 1401.31 75.9021 1401.59 77.3355C1401.87 78.769 1402.57 80.0886 1403.59 81.1265C1404.62 82.1647 1405.93 82.8744 1407.36 83.1633Z" fill="#FC525A" stroke="#02221F" stroke-width="4"/>
<path d="M1412.22 40.9704C1413.82 41.7959 1415.67 42.0043 1417.41 41.5549C1418.42 41.2939 1419.37 40.8194 1420.18 40.1638C1420.99 39.5083 1421.66 38.6868 1422.13 37.7542C1422.61 36.8219 1422.88 35.7994 1422.93 34.7545C1422.98 33.7095 1422.81 32.6652 1422.43 31.6905C1422.05 30.7157 1421.47 29.832 1420.73 29.0986C1419.98 28.3652 1419.09 27.7988 1418.11 27.4378C1417.13 27.0769 1416.08 26.9301 1415.04 27.0073C1414 27.0846 1412.99 27.3842 1412.07 27.8856C1410.49 28.7486 1409.28 30.1612 1408.67 31.8541C1408.06 33.5466 1408.08 35.406 1408.73 37.0836C1409.38 38.7615 1410.62 40.1452 1412.22 40.9704Z" fill="#FC525A" stroke="#02221F" stroke-width="4"/>
<path d="M1379.55 45.0734L1379.56 45.1122L1379.58 45.1504C1380.32 46.96 1381.74 48.4041 1383.55 49.1608C1385.35 49.9177 1387.38 49.9228 1389.18 49.175L1388.42 47.3272L1389.18 49.1737C1390.99 48.4231 1392.42 46.9838 1393.17 45.1767C1393.91 43.3701 1393.92 41.3396 1393.18 39.5292L1393.16 39.491L1393.15 39.4534C1392.36 37.72 1390.93 36.3576 1389.16 35.6563C1387.39 34.9548 1385.41 34.9709 1383.65 35.7011C1381.9 36.4311 1380.49 37.8164 1379.73 39.5623C1378.96 41.3077 1378.9 43.282 1379.55 45.0734Z" fill="#FC525A" stroke="#02221F" stroke-width="4"/>
<path d="M1431.28 103.127L1437.34 102.862L1432.31 99.4711C1422.88 93.104 1414.23 88.1343 1402.19 89.5563L1397.52 90.1088L1401.16 93.0902C1409.65 100.033 1420.36 103.604 1431.28 103.127Z" fill="#5DC68D" stroke="#02221F" stroke-width="4"/>
<path d="M1420.92 84.92L1415.41 86.4448L1420.67 88.6869C1427.93 91.7872 1435.97 92.5656 1443.69 90.9162L1443.27 88.9603L1444.16 87.1708C1436.95 83.5721 1428.68 82.7706 1420.92 84.92Z" fill="#5DC68D" stroke="#02221F" stroke-width="4"/>
<path d="M1318.99 59.0683L1316.23 62.1752L1320.38 62.3936C1325.55 62.6656 1330.72 61.8971 1335.59 60.1333C1340.46 58.3694 1344.93 55.6458 1348.74 52.1222L1347.38 50.6533L1347.69 48.6764C1342.42 47.8699 1337.04 48.3982 1332.03 50.2131C1327.02 52.028 1322.54 55.0719 1318.99 59.0683Z" fill="#5DC68D" stroke="#02221F" stroke-width="4"/>
<path d="M1686.73 73.1339C1686.44 71.6992 1685.74 70.3814 1684.7 69.349C1683.32 67.9785 1681.46 67.207 1679.52 67.207C1677.58 67.207 1675.72 67.9785 1674.35 69.349C1673.31 70.3814 1672.6 71.6992 1672.31 73.1339C1672.02 74.5685 1672.16 76.0578 1672.72 77.4131C1673.27 78.7686 1674.21 79.9304 1675.42 80.7492C1676.63 81.5682 1678.06 82.0065 1679.52 82.0065C1680.99 82.0065 1682.41 81.5682 1683.63 80.7492C1684.84 79.9303 1685.78 78.7685 1686.33 77.4131C1686.88 76.0578 1687.02 74.5685 1686.73 73.1339Z" fill="#FC525A" stroke="#02221F" stroke-width="4"/>
<path d="M1696.28 84.9213C1696.02 83.502 1695.36 82.1863 1694.38 81.1373C1693.69 80.4039 1692.87 79.8183 1691.95 79.4174C1691.03 79.0153 1690.04 78.8076 1689.03 78.8076C1688.03 78.8076 1687.04 79.0153 1686.12 79.4174C1685.2 79.8184 1684.37 80.404 1683.69 81.1372C1682.7 82.1862 1682.04 83.5019 1681.79 84.9213C1681.54 86.3431 1681.7 87.8087 1682.27 89.1373C1682.84 90.4661 1683.78 91.6009 1684.98 92.3996C1686.18 93.1983 1687.59 93.625 1689.03 93.625C1690.48 93.625 1691.89 93.1983 1693.09 92.3996C1694.29 91.6009 1695.23 90.4661 1695.8 89.1373C1696.36 87.8087 1696.53 86.3431 1696.28 84.9213Z" fill="#FC525A" stroke="#02221F" stroke-width="4"/>
<path d="M1694.92 79.3738L1694.93 79.3733L1694.93 79.3727C1696.39 79.2608 1697.78 78.7152 1698.92 77.8075C1700.07 76.8999 1700.92 75.6716 1701.37 74.2798C1701.82 72.8882 1701.85 71.3939 1701.45 69.9858C1701.06 68.5776 1700.26 67.317 1699.15 66.3652C1698.04 65.4132 1696.67 64.8133 1695.22 64.644C1693.77 64.4747 1692.3 64.7439 1691 65.4164C1689.71 66.0887 1688.64 67.133 1687.93 68.4145C1687.23 69.6959 1686.92 71.1578 1687.04 72.6152L1687.04 72.6152L1687.04 72.6293C1687.22 74.5605 1688.14 76.3496 1689.61 77.6117C1691.08 78.8743 1692.98 79.5084 1694.92 79.3738Z" fill="#FC525A" stroke="#02221F" stroke-width="4"/>
<path d="M1640.73 87.0019L1641.02 89.9565L1643.65 88.579C1652.96 83.7004 1658.85 81.2934 1662.37 80.1091C1664.12 79.5176 1665.27 79.2356 1665.95 79.102C1666.29 79.0353 1666.51 79.0062 1666.63 78.9939C1666.67 78.9894 1666.7 78.9872 1666.71 78.9861H1670.61L1668.29 75.8061C1663.96 69.8815 1661.46 62.7996 1661.1 55.4467L1660.94 52.1794L1658.11 53.8098C1654.68 55.7795 1650.8 56.795 1646.86 56.7551C1645.59 56.455 1644.11 55.1901 1642.8 53.0804C1641.48 50.9662 1640.65 48.4753 1640.48 46.6415L1640.13 42.7065L1637.17 45.3168C1633.28 48.737 1629.11 49.1708 1625.44 48.4239C1621.7 47.6592 1618.56 45.6579 1617.16 44.3923L1614.12 46.9268C1616.54 50.8586 1618.56 54.4091 1619.4 58.01C1620.21 61.4871 1619.94 65.0663 1617.55 69.1244L1615.43 72.7315L1619.57 72.1169C1624.38 71.4028 1629.35 71.6436 1633.23 73.7208C1636.96 75.7212 1640.01 79.6072 1640.73 87.0019Z" fill="#5DC68D" stroke="#02221F" stroke-width="4"/>
<path d="M1622.96 52.1797C1635.22 60.7663 1648.06 68.4678 1661.39 75.2264C1647.16 70.259 1634.09 62.4169 1622.96 52.1797V52.1797Z" fill="#02221F"/>
<path d="M1655.78 47.7971L1653.67 49.8136L1656.31 51.0549C1665.84 55.5278 1671.37 58.7301 1674.49 60.7847C1676.05 61.811 1677 62.5441 1677.53 62.9982C1677.8 63.2249 1677.97 63.3801 1678.05 63.4656C1678.09 63.5001 1678.11 63.523 1678.12 63.5344L1680.54 66.4615L1681.57 62.7716C1683.54 55.6745 1687.58 49.3399 1693.16 44.5844L1695.67 42.4507L1692.62 41.2098C1688.98 39.7264 1685.79 37.3018 1683.37 34.1795C1682.83 32.9788 1682.94 31.0576 1683.8 28.7425C1684.67 26.42 1686.12 24.206 1687.46 22.8806L1690.09 20.2621L1686.45 19.5052C1681.35 18.4415 1678.43 15.3575 1676.78 11.9832C1675.08 8.53182 1674.75 4.83414 1674.88 2.9402L1671 2.12705C1669.49 6.37377 1667.94 10.1609 1665.62 13.0505C1663.37 15.8484 1660.37 17.8447 1655.75 18.4221L1651.61 18.9395L1654.61 21.8424C1658.05 25.1829 1660.89 29.278 1661.63 33.6458C1662.33 37.8579 1661.14 42.6845 1655.78 47.7971Z" fill="#5DC68D" stroke="#02221F" stroke-width="4"/>
<path d="M1672.23 12.2686C1673.02 27.2863 1674.85 42.2302 1677.7 56.9925C1672.89 42.6111 1671.03 27.3962 1672.23 12.2686V12.2686Z" fill="#02221F"/>
<path d="M1511.46 102.411L1510.64 105.235L1513.56 104.959C1520.88 104.269 1525.25 106.543 1527.94 109.869C1530.73 113.325 1531.94 118.218 1532.23 123.116L1532.46 127.282L1535.56 124.487C1539.04 121.352 1542.5 120.393 1546.06 120.535C1549.73 120.681 1553.57 122.004 1557.75 123.65L1559.72 120.213C1558.22 119.046 1555.7 116.324 1554.25 112.751C1552.83 109.252 1552.45 105.016 1554.99 100.505L1556.81 97.2628L1553.1 97.5298C1551.27 97.6617 1548.67 97.2585 1546.36 96.3516C1544.05 95.4477 1542.54 94.2529 1542 93.1213C1541.2 89.2291 1541.46 85.1899 1542.75 81.4327L1543.82 78.3161L1540.56 78.8042C1533.34 79.886 1525.96 78.7625 1519.37 75.5774L1515.92 73.9105L1516.52 77.6601C1516.52 77.6756 1516.52 77.7073 1516.53 77.7566C1516.53 77.8783 1516.54 78.105 1516.54 78.4577C1516.52 79.1642 1516.45 80.3641 1516.18 82.221C1515.66 85.9385 1514.41 92.2388 1511.46 102.411Z" fill="#5DC68D" stroke="#02221F" stroke-width="4"/>
<path d="M1550.88 116.115C1540.2 105.613 1530.26 94.3682 1521.14 82.4648C1528.68 95.6 1538.8 107.049 1550.88 116.115V116.115Z" fill="#02221F"/>
<path d="M1538.45 81.6432C1531.35 81.6488 1524.28 80.5805 1517.49 78.4738C1517 78.3204 1516.6 77.9798 1516.36 77.5257C1516.12 77.0717 1516.06 76.5408 1516.21 76.0479C1516.28 75.7988 1516.39 75.5661 1516.55 75.3642C1516.71 75.1623 1516.91 74.9957 1517.13 74.8745C1517.36 74.7534 1517.61 74.6804 1517.86 74.6601C1518.12 74.6399 1518.37 74.6727 1518.62 74.7566C1535.04 79.7786 1552.74 78.3816 1568.19 70.8438C1583.57 63.233 1595.53 50.0568 1601.69 33.9455C1601.78 33.703 1601.92 33.4809 1602.09 33.2923C1602.27 33.1036 1602.48 32.9521 1602.72 32.8465C1602.95 32.7409 1603.2 32.6834 1603.46 32.6773C1603.72 32.6712 1603.97 32.7166 1604.21 32.8108C1604.45 32.8977 1604.67 33.0321 1604.86 33.206C1605.05 33.3799 1605.2 33.5898 1605.3 33.8232C1605.41 34.0567 1605.46 34.309 1605.47 34.5653C1605.48 34.8215 1605.43 35.0764 1605.34 35.315C1598.81 52.3859 1586.14 66.3541 1569.86 74.4436C1560.07 79.2169 1549.33 81.6791 1538.45 81.6432V81.6432Z" fill="#02221F"/>
<path d="M1524.09 79.0604C1522 79.0627 1519.91 78.8926 1517.84 78.5517C1517.33 78.4562 1516.89 78.1658 1516.59 77.7422C1516.29 77.3185 1516.17 76.7949 1516.25 76.2823C1516.29 76.0274 1516.38 75.7835 1516.52 75.5646C1516.66 75.3457 1516.83 75.1563 1517.04 75.0071C1517.25 74.8579 1517.49 74.7521 1517.74 74.6956C1517.99 74.6391 1518.25 74.6331 1518.5 74.678C1530.15 76.7518 1543.73 71.7825 1551.85 66.8523C1561.17 61.1236 1568.16 52.2304 1571.57 41.7709C1571.73 41.252 1572.08 40.8183 1572.56 40.5651C1573.04 40.312 1573.59 40.2601 1574.11 40.421C1574.62 40.5818 1575.05 40.9422 1575.31 41.4228C1575.56 41.9035 1575.61 42.465 1575.45 42.9839C1571.72 54.4134 1564.07 64.1261 1553.86 70.3738C1544.83 75.7734 1534.59 78.7631 1524.09 79.0604V79.0604Z" fill="#02221F"/>
<path d="M1554.87 85.713C1542.01 85.7823 1529.25 83.296 1517.34 78.396C1517.1 78.3011 1516.88 78.16 1516.7 77.9808C1516.52 77.8016 1516.37 77.5877 1516.27 77.3515C1516.17 77.1152 1516.11 76.8613 1516.11 76.6041C1516.11 76.3469 1516.15 76.0915 1516.25 75.8526C1516.46 75.3806 1516.85 75.0083 1517.32 74.812C1517.8 74.6156 1518.33 74.61 1518.81 74.7961C1542.87 84.4225 1569.72 84.1415 1593.58 74.0136C1594.06 73.8274 1594.59 73.8331 1595.07 74.0294C1595.54 74.2258 1595.93 74.598 1596.14 75.07C1596.24 75.3059 1596.29 75.5598 1596.29 75.8167C1596.3 76.0736 1596.25 76.3282 1596.15 76.5654C1596.05 76.8027 1595.91 77.0177 1595.73 77.1977C1595.54 77.3777 1595.33 77.5191 1595.09 77.6134C1582.35 82.9803 1568.68 85.7338 1554.87 85.713Z" fill="#02221F"/>
<path d="M1595.87 83.1633C1597.3 83.4519 1598.78 83.3075 1600.12 82.7492C1601.02 82.3827 1601.83 81.8413 1602.52 81.1567C1603.21 80.4705 1603.75 79.6542 1604.13 78.7557C1604.5 77.8572 1604.69 76.8938 1604.69 75.9214C1604.69 74.9514 1604.49 73.9909 1604.12 73.0952C1603.57 71.7457 1602.63 70.5884 1601.43 69.7712C1600.22 68.9524 1598.79 68.5125 1597.34 68.5088C1595.88 68.5051 1594.45 68.9379 1593.24 69.7505C1592.03 70.563 1591.08 71.718 1590.52 73.0677C1589.97 74.417 1589.82 75.9021 1590.1 77.3355C1590.38 78.769 1591.07 80.0886 1592.1 81.1265C1593.13 82.1647 1594.44 82.8744 1595.87 83.1633Z" fill="#FC525A" stroke="#02221F" stroke-width="4"/>
<path d="M1602.09 41.9057C1603.52 42.1859 1605.01 42.0308 1606.35 41.4607C1608.15 40.6999 1609.57 39.2564 1610.3 37.4504C1611.04 35.6448 1611.04 33.6198 1610.29 31.8162C1609.74 30.4643 1608.8 29.3063 1607.59 28.491C1606.37 27.6756 1604.95 27.2403 1603.49 27.2422C1602.03 27.244 1600.6 27.683 1599.39 28.5014C1598.18 29.3198 1597.24 30.4801 1596.69 31.8334C1596.14 33.1867 1596 34.6737 1596.28 36.1068C1596.57 37.5399 1597.28 38.8568 1598.31 39.8898C1599.34 40.923 1600.66 41.6254 1602.09 41.9057Z" fill="#FC525A" stroke="#02221F" stroke-width="4"/>
<path d="M1573.57 49.5661C1574.98 49.8605 1576.45 49.7259 1577.79 49.1798C1578.69 48.8133 1579.51 48.2708 1580.2 47.5845C1580.89 46.8983 1581.43 46.082 1581.8 45.1835C1582.18 44.285 1582.37 43.3216 1582.37 42.3492C1582.36 41.3768 1582.17 40.4139 1581.8 39.5162C1581.24 38.1792 1580.3 37.0354 1579.1 36.2303C1577.9 35.4251 1576.49 34.9954 1575.04 34.9971C1573.59 34.9988 1572.18 35.4318 1570.98 36.2397C1569.78 37.0476 1568.84 38.1936 1568.29 39.5319C1567.74 40.87 1567.59 42.3422 1567.86 43.7639C1568.14 45.1857 1568.82 46.4959 1569.84 47.5289C1570.85 48.5621 1572.15 49.2717 1573.57 49.5661Z" fill="#FC525A" stroke="#02221F" stroke-width="4"/>
<path d="M1619.91 103.127L1625.95 102.853L1620.94 99.4711C1611.5 93.105 1602.85 88.1339 1590.86 89.5564L1586.2 90.1086L1589.82 93.0872C1598.28 100.046 1608.99 103.621 1619.91 103.127Z" fill="#5DC68D" stroke="#02221F" stroke-width="4"/>
<path d="M1609.58 84.92L1604.08 86.4448L1609.33 88.6869C1616.59 91.7872 1624.63 92.5656 1632.35 90.9162L1631.93 88.9603L1632.82 87.1708C1625.61 83.5721 1617.34 82.7706 1609.58 84.92Z" fill="#5DC68D" stroke="#02221F" stroke-width="4"/>
<path d="M1507.61 59.0683L1504.85 62.1734L1509 62.3935C1514.17 62.6679 1519.34 61.9004 1524.21 60.1364C1529.08 58.3723 1533.55 55.6473 1537.37 52.1216L1536.01 50.6533L1536.31 48.6764C1531.05 47.8699 1525.66 48.3982 1520.65 50.2131C1515.64 52.028 1511.16 55.0719 1507.61 59.0683Z" fill="#5DC68D" stroke="#02221F" stroke-width="4"/>
</g>
<path d="M23.5576 62H1366.36" stroke="#02221F" stroke-width="3.5"/>
<defs>
<clipPath id="clip0_206_798">
<rect width="1705" height="123" fill="white"/>
</clipPath>
</defs>
</svg>
