<svg width="81" height="593" viewBox="0 0 81 593" fill="none" xmlns="http://www.w3.org/2000/svg">
<path d="M2.10294e-05 42.5241C2.16659e-05 27.9628 3.08573 17.2351 9.25716 10.3411C15.4286 3.44702 24.2357 -2.48125e-06 35.6786 -1.98106e-06C47.1857 -1.47807e-06 56.2822 3.44703 62.9679 10.3411C69.6536 17.2351 72.9964 27.9628 72.9964 42.5241C72.9964 62.8841 66.0214 76.5111 52.0714 83.4052C50.0786 77.6064 47.0893 70.809 43.1036 63.0129C46.7036 61.1444 49.3714 58.1807 51.1072 54.1215C52.8429 50.1268 53.7107 46.0355 53.7107 41.8475C53.7107 35.6622 52.0714 31.0554 48.7929 28.0272C45.5786 24.999 41.5929 23.4849 36.8357 23.4849C31.6929 23.4849 27.4822 25.0956 24.2036 28.3172C20.9893 31.6031 19.3822 36.5965 19.3822 43.2972C19.3822 48.6449 20.25 52.8974 21.9857 56.0544C23.7857 59.2115 26.6143 61.531 30.4714 63.0129C27.6429 68.2962 24.4607 75.0614 20.925 83.3085C13.1464 80.087 7.71431 74.707 4.6286 67.1687C1.54288 59.6303 2.06407e-05 51.4155 2.10294e-05 42.5241Z" fill="#FCEFDE"/>
<path d="M1.74582e-05 124.224C1.79398e-05 113.207 2.50716 105.088 7.52145 99.8696C12.6 94.7152 19.2536 92.138 27.4822 92.138C35.5179 92.138 42.0429 94.7152 47.0571 99.8696C52.0714 105.088 54.5786 113.207 54.5786 124.224C54.5786 131.634 53.3571 137.819 50.9143 142.78C48.5357 147.806 45.2893 151.511 41.175 153.895C37.125 156.278 32.5607 157.47 27.4821 157.47C19.1893 157.47 12.5357 154.7 7.52145 149.159C2.50716 143.682 1.69709e-05 135.371 1.74582e-05 124.224ZM16.3929 124.611C16.3929 128.799 17.3893 131.924 19.3821 133.986C21.375 136.047 24.0429 137.078 27.3857 137.078C30.5357 137.078 33.1072 136.047 35.1 133.986C37.1571 131.924 38.1857 128.799 38.1857 124.611C38.1857 120.423 37.1893 117.362 35.1964 115.43C33.2036 113.497 30.6 112.53 27.3857 112.53C24.0429 112.53 21.375 113.497 19.3821 115.43C17.3893 117.362 16.3929 120.423 16.3929 124.611Z" fill="#FCEFDE"/>
<path d="M39.5357 188.912C35.6786 188.848 29.7643 188.815 21.7929 188.815C12.2143 188.815 5.27144 188.88 0.964294 189.009L0.964295 166.2L11.8607 166.297C23.8179 166.426 33.0429 166.49 39.5357 166.49C45.7071 166.49 54.45 166.426 65.7643 166.297L76.1786 166.2L76.1786 189.009C67.05 188.88 59.5929 188.815 53.8071 188.815C47.3786 188.815 42.6214 188.848 39.5357 188.912Z" fill="#FCEFDE"/>
<path d="M39.5357 221.424C35.6786 221.36 29.7643 221.327 21.7929 221.327C12.2143 221.327 5.27144 221.392 0.964292 221.521L0.964293 198.712L11.8607 198.809C23.8179 198.938 33.0429 199.002 39.5357 199.002C45.7071 199.002 54.45 198.938 65.7643 198.809L76.1786 198.712L76.1786 221.521C67.05 221.392 59.5929 221.327 53.8071 221.327C47.3786 221.327 42.6214 221.36 39.5357 221.424Z" fill="#FCEFDE"/>
<path d="M25.0714 282.35L25.0714 250.844C22.2429 251.359 19.9286 252.615 18.1286 254.613C16.3929 256.675 15.525 259.574 15.525 263.311C15.525 266.017 16.0393 268.562 17.0679 270.946C18.1607 273.33 19.6714 275.231 21.6 276.648C19.4786 280.965 17.1964 286.699 14.7536 293.851C10.2536 291.854 6.65357 288.213 3.95358 282.93C1.31786 277.711 1.10476e-05 270.881 1.14165e-05 262.441C1.18953e-05 251.488 2.50715 243.37 7.52144 238.086C12.6 232.868 19.2536 230.258 27.4821 230.258C35.5179 230.258 42.0429 232.868 47.0571 238.086C52.0714 243.305 54.5786 251.424 54.5786 262.441C54.5786 269.013 53.4857 274.715 51.3 279.547C49.1143 284.38 46.0607 288.084 42.1393 290.662C38.2821 293.239 33.8464 294.527 28.8321 294.527C27.1607 294.527 25.9071 294.463 25.0714 294.334L25.0714 282.35ZM40.0179 263.794C40.0179 260.573 39.4071 257.931 38.1857 255.869C36.9643 253.807 35.2929 252.358 33.1714 251.52L33.1714 274.329C35.2286 273.555 36.8679 272.299 38.0893 270.559C39.375 268.82 40.0179 266.565 40.0179 263.794Z" fill="#FCEFDE"/>
<path d="M27.2893 322.807C24.0107 322.936 21.375 323.967 19.3821 325.9C17.3893 327.897 16.3929 330.828 16.3929 334.694C16.3929 336.82 16.7786 338.721 17.55 340.396C18.3857 342.072 19.6072 343.618 21.2143 345.035C19.0929 350.512 17.2607 356.923 15.7179 364.268C10.7679 362.142 6.91072 358.534 4.14644 353.443C1.38215 348.418 7.94421e-06 341.878 8.29625e-06 333.824C8.76658e-06 323.065 2.50715 315.107 7.52144 309.953C12.5357 304.799 19.125 302.221 27.2893 302.221C35.4536 302.221 42.0429 304.799 47.0571 309.953C52.0714 315.107 54.5786 323.065 54.5786 333.824C54.5786 341.878 53.1964 348.418 50.4321 353.443C47.6679 358.534 43.8107 362.142 38.8607 364.268C37.6393 358.534 35.8071 352.123 33.3643 345.035C34.9714 343.618 36.1607 342.072 36.9321 340.396C37.7678 338.721 38.1857 336.82 38.1857 334.694C38.1857 330.828 37.1893 327.897 35.1964 325.9C33.2036 323.967 30.5679 322.936 27.2893 322.807Z" fill="#FCEFDE"/>
<path d="M36.3536 417.233C36.7393 411.305 37.0286 405.893 37.2214 400.996L27 400.9C23.5286 400.9 20.7964 401.641 18.8036 403.122C16.875 404.669 15.9107 407.375 15.9107 411.241C15.9107 412.723 16.0393 414.14 16.2964 415.493C13.9179 415.235 11.5071 415.106 9.06429 415.106C7.90715 415.106 5.27144 415.171 1.15715 415.3C0.642865 412.465 0.321431 410.081 0.192853 408.148C0.0642828 406.215 5.2418e-06 403.702 5.37698e-06 400.61C5.70649e-06 393.071 1.79999 387.724 5.4 384.566C9.06428 381.474 14.1429 379.927 20.6357 379.927L36.9321 380.024C36.8036 376.996 36.6107 373.839 36.3536 370.553L53.4214 370.553C53.4214 373.903 54.4821 376.738 56.6036 379.058C58.725 381.377 61.2643 382.762 64.2214 383.213L64.2214 409.501C59.7214 406.215 56.1214 402.575 53.4214 398.58L53.4214 417.233L36.3536 417.233Z" fill="#FCEFDE"/>
<path d="M59.3036 437.885C59.3036 433.826 60.3 430.798 62.2928 428.801C64.2857 426.868 66.8893 425.901 70.1036 425.901C73.2536 425.901 75.8571 426.868 77.9143 428.801C79.9714 430.798 81 433.826 81 437.885C81 441.751 79.9393 444.715 77.8178 446.777C75.7607 448.839 73.1893 449.869 70.1036 449.869C66.8893 449.869 64.2857 448.871 62.2928 446.873C60.3 444.876 59.3036 441.88 59.3036 437.885ZM0.964283 426.674C11.3143 427.125 19.8643 427.351 26.6143 427.351C34.65 427.351 43.65 427.093 53.6143 426.578L53.6143 449.773C44.0357 449.257 35.0357 449 26.6143 449C19.5429 449 10.9929 449.225 0.964282 449.676L0.964283 426.674Z" fill="#FCEFDE"/>
<path d="M1.40023e-06 491.587C1.88182e-06 480.57 2.50714 472.451 7.52143 467.232C12.6 462.078 19.2536 459.501 27.4821 459.501C35.5178 459.501 42.0428 462.078 47.0571 467.232C52.0714 472.451 54.5786 480.57 54.5786 491.587C54.5786 498.997 53.3571 505.182 50.9143 510.143C48.5357 515.169 45.2893 518.873 41.175 521.257C37.125 523.641 32.5607 524.833 27.4821 524.833C19.1893 524.833 12.5357 522.063 7.52143 516.522C2.50714 511.045 9.13001e-07 502.734 1.40023e-06 491.587ZM16.3928 491.974C16.3928 496.162 17.3893 499.287 19.3821 501.348C21.375 503.41 24.0429 504.441 27.3857 504.441C30.5357 504.441 33.1071 503.41 35.1 501.348C37.1571 499.287 38.1857 496.162 38.1857 491.974C38.1857 487.786 37.1893 484.725 35.1964 482.792C33.2036 480.859 30.6 479.893 27.3857 479.893C24.0429 479.893 21.375 480.859 19.3821 482.792C17.3893 484.725 16.3928 487.786 16.3928 491.974Z" fill="#FCEFDE"/>
<path d="M0.964277 571.255C10.4143 571.641 19.125 571.835 27.0964 571.835C29.925 571.835 32.175 571.126 33.8464 569.708C35.5178 568.355 36.3536 566.616 36.3536 564.49C36.3536 562.363 35.3893 560.559 33.4607 559.077C31.5964 557.596 29.025 556.726 25.7464 556.468C20.8607 556.339 17.3893 556.275 15.3321 556.275C10.9607 556.275 6.17142 556.404 0.964278 556.661L0.964279 533.563C10.2214 534.078 18.9643 534.336 27.1928 534.336C35.4214 534.336 44.2286 534.078 53.6143 533.563C53.4214 537.815 53.325 541.069 53.325 543.324C53.325 545.708 53.4214 548.962 53.6143 553.085L39.4393 555.888C44.5821 557.37 48.375 559.69 50.8178 562.847C53.325 566.004 54.5786 569.676 54.5786 573.864C54.5786 577.73 53.7107 581.08 51.975 583.915C50.3036 586.75 48.0214 588.876 45.1286 590.294C42.2357 591.776 38.9893 592.517 35.3893 592.517L21.5036 592.517C12.9536 592.517 6.10714 592.678 0.964276 593L0.964277 571.255Z" fill="#FCEFDE"/>
</svg>
