<svg width="1238" height="169" viewBox="0 0 1238 169" fill="none" xmlns="http://www.w3.org/2000/svg">
<path d="M88.7771 169C58.3776 169 35.9816 162.562 21.589 149.686C7.19632 136.81 0 118.434 0 94.5595C0 70.5508 7.19632 51.5718 21.589 37.6226C35.9816 23.6734 58.3776 16.6988 88.7771 16.6988C131.282 16.6988 159.731 31.2516 174.124 60.3571C162.018 64.5151 147.827 70.752 131.551 79.0679C127.651 71.5567 121.463 65.9905 112.989 62.369C104.649 58.7476 96.1079 56.9369 87.3647 56.9369C74.4517 56.9369 64.8341 60.3571 58.5121 67.1976C52.1901 73.904 49.0291 82.2198 49.0291 92.1452C49.0291 102.875 52.3919 111.661 59.1174 118.501C65.9775 125.208 76.4021 128.561 90.3912 128.561C101.556 128.561 110.433 126.75 117.024 123.129C123.615 119.373 128.458 113.471 131.551 105.424C142.581 111.325 156.705 117.965 173.922 125.342C167.197 141.571 155.965 152.905 140.227 159.343C124.49 165.781 107.34 169 88.7771 169Z" fill="#FCEFDE"/>
<path d="M259.342 169C236.34 169 219.392 163.769 208.497 153.307C197.736 142.711 192.356 128.829 192.356 111.661C192.356 94.8949 197.736 81.281 208.497 70.8191C219.392 60.3571 236.34 55.1262 259.342 55.1262C274.811 55.1262 287.724 57.6746 298.081 62.7714C308.573 67.7341 316.307 74.5075 321.284 83.0917C326.261 91.5417 328.749 101.065 328.749 111.661C328.749 128.963 322.965 142.845 311.397 153.307C299.964 163.769 282.612 169 259.342 169ZM260.149 134.798C268.892 134.798 275.416 132.719 279.72 128.561C284.025 124.403 286.177 118.837 286.177 111.862C286.177 105.29 284.025 99.9246 279.72 95.7667C275.416 91.4746 268.892 89.3286 260.149 89.3286C251.406 89.3286 245.016 91.4076 240.981 95.5655C236.946 99.7234 234.928 105.156 234.928 111.862C234.928 118.837 236.946 124.403 240.981 128.561C245.016 132.719 251.406 134.798 260.149 134.798Z" fill="#FCEFDE"/>
<path d="M394.39 86.5119C394.255 94.5595 394.188 106.899 394.188 123.531C394.188 143.516 394.322 158.002 394.591 166.988H346.975L347.176 144.254C347.445 119.306 347.58 100.059 347.58 86.5119C347.58 73.6357 347.445 55.3944 347.176 31.7881L346.975 10.0595H394.591C394.322 29.1056 394.188 44.6643 394.188 56.7357C394.188 70.1484 394.255 80.0738 394.39 86.5119Z" fill="#FCEFDE"/>
<path d="M462.265 86.5119C462.13 94.5595 462.063 106.899 462.063 123.531C462.063 143.516 462.198 158.002 462.467 166.988H414.85L415.052 144.254C415.321 119.306 415.455 100.059 415.455 86.5119C415.455 73.6357 415.321 55.3944 415.052 31.7881L414.85 10.0595H462.467C462.198 29.1056 462.063 44.6643 462.063 56.7357C462.063 70.1484 462.13 80.0738 462.265 86.5119Z" fill="#FCEFDE"/>
<path d="M589.459 116.69H523.684C524.76 122.592 527.383 127.421 531.553 131.176C535.857 134.798 541.91 136.608 549.711 136.608C555.361 136.608 560.674 135.535 565.651 133.389C570.628 131.109 574.596 127.957 577.555 123.933C586.567 128.36 598.539 133.121 613.47 138.218C609.3 147.607 601.7 155.118 590.67 160.751C579.775 166.25 565.517 169 547.896 169C525.029 169 508.08 163.769 497.051 153.307C486.155 142.711 480.708 128.829 480.708 111.661C480.708 94.8949 486.155 81.281 497.051 70.8191C507.946 60.3571 524.894 55.1262 547.896 55.1262C561.616 55.1262 573.52 57.4063 583.608 61.9667C593.697 66.527 601.431 72.898 606.811 81.0798C612.192 89.1274 614.882 98.3821 614.882 108.844C614.882 112.331 614.747 114.947 614.478 116.69H589.459ZM550.72 85.506C543.995 85.506 538.48 86.7802 534.176 89.3286C529.871 91.877 526.845 95.3643 525.096 99.7905H572.713C571.099 95.4984 568.476 92.0782 564.844 89.5298C561.212 86.8472 556.504 85.506 550.72 85.506Z" fill="#FCEFDE"/>
<path d="M673.921 112.063C674.19 118.904 676.342 124.403 680.377 128.561C684.547 132.719 690.667 134.798 698.738 134.798C703.177 134.798 707.145 133.993 710.642 132.383C714.139 130.64 717.368 128.091 720.327 124.738C731.76 129.164 745.144 132.987 760.478 136.206C756.039 146.534 748.507 154.581 737.88 160.349C727.389 166.116 713.736 169 696.922 169C674.459 169 657.847 163.769 647.086 153.307C636.325 142.845 630.944 129.097 630.944 112.063C630.944 95.029 636.325 81.281 647.086 70.8191C657.847 60.3571 674.459 55.1262 696.922 55.1262C713.736 55.1262 727.389 58.0099 737.88 63.7774C748.507 69.5448 756.039 77.5925 760.478 87.9202C748.507 90.4687 735.123 94.2913 720.327 99.3881C717.368 96.0349 714.139 93.5536 710.642 91.9441C707.145 90.2004 703.177 89.3286 698.738 89.3286C690.667 89.3286 684.547 91.4076 680.377 95.5655C676.342 99.7234 674.19 105.223 673.921 112.063Z" fill="#FCEFDE"/>
<path d="M871.052 93.1512C858.677 92.3464 847.378 91.7429 837.156 91.3405L836.954 112.667C836.954 119.91 838.501 125.61 841.594 129.768C844.823 133.792 850.472 135.804 858.543 135.804C861.637 135.804 864.596 135.535 867.42 134.999C866.882 139.962 866.613 144.991 866.613 150.088C866.613 152.502 866.748 158.002 867.017 166.586C861.099 167.659 856.122 168.329 852.086 168.598C848.051 168.866 842.805 169 836.349 169C820.611 169 809.446 165.244 802.855 157.733C796.399 150.088 793.171 139.492 793.171 125.945L793.372 91.9441C787.05 92.2123 780.459 92.6147 773.599 93.1512V57.5405C780.594 57.5405 786.512 55.3274 791.355 50.9012C796.197 46.475 799.089 41.177 800.031 35.0071H854.911C848.051 44.396 840.451 51.9071 832.111 57.5405H871.052V93.1512Z" fill="#FCEFDE"/>
<path d="M914.169 45.2679C905.695 45.2679 899.373 43.1889 895.203 39.0309C891.167 34.873 889.15 29.4409 889.15 22.7345C889.15 16.1623 891.167 10.7302 895.203 6.43809C899.373 2.14603 905.695 0 914.169 0C922.239 0 928.427 2.21309 932.731 6.63928C937.036 10.9313 939.188 16.2964 939.188 22.7345C939.188 29.4409 937.103 34.873 932.933 39.0309C928.763 43.1889 922.508 45.2679 914.169 45.2679ZM890.764 166.988C891.705 145.394 892.176 127.555 892.176 113.471C892.176 96.7056 891.638 77.9278 890.562 57.1381H938.986C937.91 77.123 937.372 95.9008 937.372 113.471C937.372 128.225 937.843 146.064 938.784 166.988H890.764Z" fill="#FCEFDE"/>
<path d="M1026.28 169C1003.28 169 986.332 163.769 975.436 153.307C964.675 142.711 959.295 128.829 959.295 111.661C959.295 94.8949 964.675 81.281 975.436 70.8191C986.332 60.3571 1003.28 55.1262 1026.28 55.1262C1041.75 55.1262 1054.66 57.6746 1065.02 62.7714C1075.51 67.7341 1083.25 74.5075 1088.22 83.0917C1093.2 91.5417 1095.69 101.065 1095.69 111.661C1095.69 128.963 1089.9 142.845 1078.34 153.307C1066.9 163.769 1049.55 169 1026.28 169ZM1027.09 134.798C1035.83 134.798 1042.36 132.719 1046.66 128.561C1050.96 124.403 1053.12 118.837 1053.12 111.862C1053.12 105.29 1050.96 99.9246 1046.66 95.7667C1042.36 91.4746 1035.83 89.3286 1027.09 89.3286C1018.35 89.3286 1011.96 91.4076 1007.92 95.5655C1003.89 99.7234 1001.87 105.156 1001.87 111.862C1001.87 118.837 1003.89 124.403 1007.92 128.561C1011.96 132.719 1018.35 134.798 1027.09 134.798Z" fill="#FCEFDE"/>
<path d="M1192.6 166.988C1193.41 147.271 1193.81 129.097 1193.81 112.465C1193.81 106.564 1192.33 101.869 1189.37 98.3821C1186.55 94.8948 1182.92 93.1512 1178.48 93.1512C1174.04 93.1512 1170.27 95.1631 1167.18 99.1869C1164.09 103.077 1162.27 108.442 1161.73 115.282C1161.46 125.476 1161.33 132.719 1161.33 137.011C1161.33 146.131 1161.6 156.124 1162.14 166.988H1113.91C1114.99 147.674 1115.53 129.433 1115.53 112.264C1115.53 95.096 1114.99 76.7206 1113.91 57.1381C1122.79 57.5405 1129.58 57.7417 1134.29 57.7417C1139.27 57.7417 1146.06 57.5405 1154.67 57.1381L1160.52 86.7131C1163.62 75.9829 1168.46 68.0695 1175.05 62.9726C1181.64 57.7417 1189.31 55.1262 1198.05 55.1262C1206.12 55.1262 1213.12 56.9369 1219.03 60.5583C1224.95 64.0456 1229.39 68.8071 1232.35 74.8429C1235.44 80.8786 1236.99 87.652 1236.99 95.1631V124.135C1236.99 141.973 1237.33 156.258 1238 166.988H1192.6Z" fill="#FCEFDE"/>
</svg>
