<svg width="102" height="617" viewBox="0 0 102 617" fill="none" xmlns="http://www.w3.org/2000/svg">
<path d="M0.50003 58.9051C0.500031 38.9058 4.76951 24.1718 13.3085 14.7031C21.8474 5.23435 34.0333 0.499997 49.8659 0.499998C65.7875 0.499998 78.3736 5.23436 87.6242 14.7031C96.8747 24.1718 101.5 38.9058 101.5 58.9051C101.5 86.8688 91.8492 105.585 72.5476 115.054C69.7902 107.089 65.6541 97.7534 60.1394 87.0458C65.1204 84.4795 68.8118 80.4088 71.2133 74.8338C73.6149 69.3473 74.8157 63.728 74.8157 57.976C74.8157 49.4807 72.5476 43.1534 68.0112 38.9943C63.5639 34.8351 58.0491 32.7556 51.467 32.7556C44.3512 32.7556 38.5251 34.9679 33.9888 39.3925C29.5414 43.9056 27.3177 50.7638 27.3177 59.967C27.3177 67.3119 28.5185 73.1525 30.9201 77.4886C33.4106 81.8247 37.3243 85.0105 42.6612 87.0458C38.7475 94.3022 34.3446 103.594 29.4525 114.921C18.6898 110.496 11.1737 103.107 6.90425 92.7536C2.63476 82.3999 0.500029 71.1171 0.50003 58.9051Z" fill="#F2CF9F"/>
<path d="M66.4102 237.619C58.6717 237.619 52.1341 235.717 46.7972 231.912C41.4604 228.195 37.5912 221.779 35.1896 212.665C33.7664 213.726 32.6546 214.479 31.854 214.921L1.83424 236.425L1.83424 200.32C9.12794 196.426 19.4459 190.276 32.788 181.869L32.788 162.356L1.83424 162.356L1.83424 131.03C19.0901 131.738 35.2341 132.092 50.2662 132.092C65.2983 132.092 81.4423 131.738 98.6981 131.03L98.6981 162.356L98.5647 162.356L98.5647 189.568C98.5647 207.443 95.6739 219.921 89.8923 227C84.1107 234.08 76.2834 237.619 66.4102 237.619ZM72.9478 162.356L57.7378 162.356L57.7378 180.276C57.7378 187.798 57.9602 193.462 58.4049 197.267C58.9386 201.161 59.7391 203.86 60.8065 205.364C61.8738 206.868 63.4304 207.62 65.4762 207.62C67.4331 207.62 68.9452 206.913 70.0126 205.497C71.0799 204.081 71.836 201.426 72.2807 197.532C72.7255 193.639 72.9478 187.887 72.9478 180.276L72.9478 162.356Z" fill="#F2CF9F"/>
<path d="M26.2503 284.85C26.4282 318.477 26.9174 342.857 27.718 357.989C24.0711 357.369 20.2909 356.971 16.3772 356.794C12.5524 356.706 7.70477 356.661 1.83423 356.661L1.83423 253.523C19.0901 254.231 35.2341 254.585 50.2662 254.585C65.2983 254.585 81.4423 254.231 98.6981 253.523L98.6981 356.661L74.5489 356.661L74.5489 284.85L61.7404 284.85C61.6515 289.097 61.607 295.38 61.607 303.699C61.607 317.769 61.8738 332.326 62.4075 347.37L39.4591 347.37C39.9927 332.326 40.2596 317.769 40.2596 303.699C40.2596 295.38 40.2151 289.097 40.1262 284.85L26.2503 284.85Z" fill="#F2CF9F"/>
<path d="M38.2583 462.903L98.6981 469.806L98.6981 502.194L1.83422 484.407L1.83423 443.656L55.8699 434.63L1.83423 424.144L1.83423 385.118L98.6981 367.331L98.6981 399.72L39.0588 406.489L98.6981 417.108L98.6981 452.55L38.2583 462.903Z" fill="#F2CF9F"/>
<path d="M50.9333 584.244C51.5559 587.43 51.8672 590.572 51.8672 593.669C51.8672 599.067 50.9333 603.447 49.0654 606.81C47.2864 610.261 44.9738 612.739 42.1275 614.243C39.3701 615.748 36.4793 616.5 33.4551 616.5C26.4282 616.5 20.4243 614.199 15.4432 609.598C10.5511 604.996 6.81528 598.757 4.2358 590.881C1.74527 583.005 0.500007 574.245 0.500008 564.599C0.500009 536.635 10.2842 518.539 29.8527 510.309L31.7206 517.742C33.0548 523.229 34.3001 527.875 35.4564 531.68C36.7017 535.573 38.0804 538.98 39.5925 541.901C35.1451 543.671 31.943 546.193 29.9861 549.467C28.1182 552.83 27.1843 557.431 27.1843 563.272C27.1843 569.466 27.8959 574.51 29.319 578.404C30.7422 582.298 32.8769 584.244 35.7232 584.244C37.2354 584.244 38.3917 583.492 39.1922 581.988C39.9927 580.483 40.5264 578.094 40.7933 574.82C41.149 571.546 41.3269 566.944 41.3269 561.015L41.3269 550.927L64.6757 550.927L64.6757 557.033C64.6757 563.758 64.9425 569.245 65.4762 573.493C66.0988 577.74 67.3886 579.864 69.3454 579.864C71.5691 579.864 73.3481 578.714 74.6823 576.413C76.1054 574.2 76.817 570.705 76.817 565.926C76.817 559.732 75.5273 554.688 72.9478 550.794C70.3683 546.989 66.6325 544.025 61.7404 541.901C65.5652 532.432 68.2781 522.344 69.8791 511.636C79.4855 515.884 86.9126 522.388 92.1605 531.149C97.4084 539.998 100.032 551.369 100.032 565.263C100.032 574.289 98.8315 582.386 96.43 589.554C94.1173 596.81 90.8707 602.474 86.6902 606.545C82.5097 610.704 77.8399 612.783 72.681 612.783C69.6567 612.783 66.9438 612.075 64.5423 610.659C62.2296 609.244 59.917 606.456 57.6043 602.297C55.3807 598.138 53.157 592.12 50.9333 584.244Z" fill="#F2CF9F"/>
</svg>
