<svg width="1144" height="186" viewBox="0 0 1144 186" fill="none" xmlns="http://www.w3.org/2000/svg">
<path d="M108.467 186C71.3251 186 43.9619 178.137 26.3771 162.412C8.79238 146.687 0 124.246 0 95.0885C0 65.7675 8.79238 42.5892 26.3771 25.5535C43.9619 8.51784 71.3251 0 108.467 0C160.399 0 195.158 17.7728 212.743 53.3184C197.952 58.3963 180.613 66.0132 160.728 76.1691C155.962 66.996 148.402 60.1982 138.049 55.7754C127.859 51.3527 117.423 49.1413 106.741 49.1413C90.9641 49.1413 79.2135 53.3184 71.4894 61.6724C63.7653 69.8626 59.9032 80.0185 59.9032 92.14C59.9032 105.244 64.0118 115.974 72.229 124.328C80.6105 132.518 93.3471 136.613 110.439 136.613C124.079 136.613 134.926 134.402 142.979 129.979C151.032 125.392 156.948 118.185 160.728 108.357C174.204 115.564 191.46 123.672 212.496 132.682C204.279 152.502 190.556 166.343 171.328 174.206C152.1 182.069 131.146 186 108.467 186Z" fill="#F2CF9F"/>
<path d="M440.365 64.6209C440.365 78.8719 436.831 90.9115 429.765 100.74C422.862 110.568 410.947 117.694 394.02 122.116C395.992 124.737 397.389 126.785 398.211 128.259L438.146 183.543H371.094C363.863 170.111 352.441 151.11 336.828 126.539H300.591V183.543H242.413C243.728 151.765 244.385 122.034 244.385 94.3514C244.385 66.6684 243.728 36.9379 242.413 5.15985H300.591V5.40555H351.126C384.324 5.40555 407.496 10.7292 420.644 21.3765C433.791 32.0238 440.365 46.4386 440.365 64.6209ZM300.591 52.5812V80.5918H333.87C347.839 80.5918 358.357 80.1823 365.424 79.3633C372.655 78.3805 377.668 76.9062 380.462 74.9406C383.255 72.9749 384.652 70.1083 384.652 66.3408C384.652 62.7371 383.338 59.9524 380.708 57.9868C378.079 56.0211 373.148 54.6288 365.917 53.8098C358.686 52.9908 348.004 52.5812 333.87 52.5812H300.591Z" fill="#F2CF9F"/>
<path d="M528.078 138.579C590.528 138.251 635.805 137.35 663.908 135.876C662.757 142.592 662.018 149.553 661.689 156.761C661.525 163.804 661.443 172.732 661.443 183.543H469.9C471.215 151.765 471.872 122.034 471.872 94.3514C471.872 66.6684 471.215 36.9379 469.9 5.15985H661.443V49.6328H528.078V73.2206C535.966 73.3844 547.635 73.4663 563.083 73.4663C589.214 73.4663 616.248 72.9749 644.187 71.9921V114.254C616.248 113.271 589.214 112.779 563.083 112.779C547.635 112.779 535.966 112.861 528.078 113.025V138.579Z" fill="#F2CF9F"/>
<path d="M858.749 116.465L871.568 5.15985H931.718L898.685 183.543H823.004L806.241 84.0317L786.767 183.543H714.291L681.258 5.15985H741.408L753.98 114.991L773.701 5.15985H839.521L858.749 116.465Z" fill="#F2CF9F"/>
<path d="M1084.1 93.1229C1090.01 91.9762 1095.85 91.4029 1101.6 91.4029C1111.62 91.4029 1119.76 93.1228 1126 96.5628C1132.41 99.8388 1137.02 104.098 1139.81 109.34C1142.6 114.417 1144 119.741 1144 125.31C1144 138.251 1139.73 149.308 1131.18 158.481C1122.64 167.49 1111.05 174.37 1096.42 179.12C1081.8 183.707 1065.53 186 1047.61 186C995.68 186 962.072 167.982 946.788 131.945L960.593 128.505C970.782 126.048 979.41 123.754 986.477 121.625C993.708 119.332 1000.04 116.793 1005.46 114.008C1008.75 122.198 1013.43 128.095 1019.51 131.699C1025.75 135.139 1034.3 136.859 1045.15 136.859C1056.65 136.859 1066.02 135.548 1073.25 132.927C1080.48 130.306 1084.1 126.375 1084.1 121.133C1084.1 118.349 1082.7 116.219 1079.91 114.745C1077.11 113.271 1072.67 112.288 1066.59 111.797C1060.51 111.141 1051.97 110.814 1040.96 110.814H1022.22V67.8151H1033.56C1046.05 67.8151 1056.24 67.3236 1064.13 66.3408C1072.02 65.1942 1075.96 62.819 1075.96 59.2153C1075.96 55.1202 1073.83 51.8441 1069.55 49.3871C1065.44 46.7662 1058.95 45.4557 1050.08 45.4557C1038.57 45.4557 1029.21 47.8309 1021.98 52.5812C1014.91 57.3316 1009.4 64.2114 1005.46 73.2206C987.874 66.177 969.139 61.181 949.253 58.2325C957.142 40.5416 969.221 26.8639 985.491 17.1995C1001.93 7.535 1023.04 2.70277 1048.85 2.70277C1065.61 2.70277 1080.65 4.91413 1093.96 9.33685C1107.43 13.5958 1117.95 19.5746 1125.51 27.2734C1133.24 34.9723 1137.1 43.572 1137.1 53.0727C1137.1 58.642 1135.78 63.638 1133.15 68.0608C1130.52 72.3197 1125.35 76.5786 1117.62 80.8375C1109.9 84.9326 1098.72 89.0277 1084.1 93.1229Z" fill="#F2CF9F"/>
</svg>
