<svg width="1809" height="768" viewBox="0 0 1809 768" fill="none" xmlns="http://www.w3.org/2000/svg">
<path d="M1739.95 300L1723.43 317.387" stroke="white" stroke-width="3"/>
<path d="M1740.39 316.952L1723 300.435" stroke="white" stroke-width="3"/>
<path d="M1739.95 658L1723.43 675.387" stroke="white" stroke-width="3"/>
<path d="M1740.39 674.952L1723 658.435" stroke="white" stroke-width="3"/>
<path d="M378.952 402L362.435 419.387" stroke="white" stroke-width="3"/>
<path d="M379.387 418.952L362 402.435" stroke="white" stroke-width="3"/>
<path d="M127.952 731L111.435 748.387" stroke="white" stroke-width="3"/>
<path d="M128.387 747.952L111 731.435" stroke="white" stroke-width="3"/>
<path d="M1303.95 451L1287.43 468.387" stroke="white" stroke-width="3"/>
<path d="M1304.39 467.952L1287 451.435" stroke="white" stroke-width="3"/>
<path d="M1460.5 286V384" stroke="white" stroke-width="3"/>
<path d="M1508 335L1413 335" stroke="white" stroke-width="3"/>
<path d="M1480.9 313.767L1439.21 355.344" stroke="white" stroke-width="3"/>
<path d="M1439.21 313.767L1480.9 355.344" stroke="white" stroke-width="3"/>
<path d="M476.5 182V280" stroke="white" stroke-width="3"/>
<path d="M524 231L429 231" stroke="white" stroke-width="3"/>
<path d="M496.902 209.767L455.207 251.344" stroke="white" stroke-width="3"/>
<path d="M455.207 209.767L496.902 251.344" stroke="white" stroke-width="3"/>
<path d="M83.4221 512V616.322" stroke="white" stroke-width="3"/>
<path d="M133.844 564.161L33 564.161" stroke="white" stroke-width="3"/>
<path d="M105.079 541.558L60.8192 585.818" stroke="white" stroke-width="3"/>
<path d="M60.8191 541.558L105.079 585.818" stroke="white" stroke-width="3"/>
<path d="M127.603 142V188.765" stroke="white" stroke-width="3"/>
<path d="M150.206 165.382L105 165.382" stroke="white" stroke-width="3"/>
<path d="M137.312 155.25L117.471 175.091" stroke="white" stroke-width="3"/>
<path d="M117.471 155.25L137.311 175.091" stroke="white" stroke-width="3"/>
<path d="M872.5 64V111" stroke="white" stroke-width="3"/>
<path d="M895 87.5L850 87.5" stroke="white" stroke-width="3"/>
<path d="M882.164 77.3167L862.414 97.2571" stroke="white" stroke-width="3"/>
<path d="M862.414 77.3167L882.164 97.2571" stroke="white" stroke-width="3"/>
<path d="M1785.6 519V565.765" stroke="white" stroke-width="3"/>
<path d="M1808.21 542.382L1763 542.382" stroke="white" stroke-width="3"/>
<path d="M1795.31 532.25L1775.47 552.091" stroke="white" stroke-width="3"/>
<path d="M1775.47 532.25L1795.31 552.091" stroke="white" stroke-width="3"/>
<circle cx="1113" cy="137" r="18" stroke="white" stroke-width="3"/>
<circle cx="341" cy="627" r="18" stroke="white" stroke-width="3"/>
<ellipse cx="536" cy="491.5" rx="8" ry="7.5" stroke="white" stroke-width="3"/>
<ellipse cx="713" cy="172.5" rx="8" ry="7.5" stroke="white" stroke-width="3"/>
<ellipse cx="10" cy="30.5" rx="8" ry="7.5" stroke="white" stroke-width="3"/>
<ellipse cx="1550" cy="174.5" rx="8" ry="7.5" stroke="white" stroke-width="3"/>
<ellipse cx="1405" cy="696.5" rx="8" ry="7.5" stroke="white" stroke-width="3"/>
<ellipse cx="10" cy="401.5" rx="8" ry="7.5" stroke="white" stroke-width="3"/>
<circle cx="1550" cy="556" r="8" fill="white"/>
<circle cx="1755" cy="109" r="8" fill="white"/>
<circle cx="286" cy="233" r="8" fill="white"/>
<circle cx="456" cy="712" r="8" fill="white"/>
</svg>
