<svg width="1718" height="656" viewBox="0 0 1718 656" fill="none" xmlns="http://www.w3.org/2000/svg">
<path d="M1700.95 187L1684.43 204.387" stroke="white" stroke-width="3"/>
<path d="M1701.39 203.952L1684 187.435" stroke="white" stroke-width="3"/>
<path d="M1709.95 594L1693.43 611.387" stroke="white" stroke-width="3"/>
<path d="M1710.39 610.952L1693 594.435" stroke="white" stroke-width="3"/>
<path d="M348.952 338L332.435 355.387" stroke="white" stroke-width="3"/>
<path d="M349.387 354.952L332 338.435" stroke="white" stroke-width="3"/>
<path d="M18.9522 602L2.43457 619.387" stroke="white" stroke-width="3"/>
<path d="M19.387 618.952L2.00003 602.435" stroke="white" stroke-width="3"/>
<path d="M1273.95 387L1257.43 404.387" stroke="white" stroke-width="3"/>
<path d="M1274.39 403.952L1257 387.435" stroke="white" stroke-width="3"/>
<path d="M1430.37 222V320" stroke="white" stroke-width="3"/>
<path d="M1477.73 271L1383 271" stroke="white" stroke-width="3"/>
<path d="M1450.71 249.767L1409.13 291.344" stroke="white" stroke-width="3"/>
<path d="M1409.13 249.767L1450.71 291.344" stroke="white" stroke-width="3"/>
<path d="M446.367 118V216" stroke="white" stroke-width="3"/>
<path d="M493.733 167L399 167" stroke="white" stroke-width="3"/>
<path d="M466.711 145.767L425.134 187.344" stroke="white" stroke-width="3"/>
<path d="M425.133 145.767L466.711 187.344" stroke="white" stroke-width="3"/>
<path d="M172.422 416V520.322" stroke="white" stroke-width="3"/>
<path d="M222.844 468.161L122 468.161" stroke="white" stroke-width="3"/>
<path d="M194.079 445.558L149.819 489.818" stroke="white" stroke-width="3"/>
<path d="M149.819 445.558L194.079 489.818" stroke="white" stroke-width="3"/>
<path d="M74.603 123V169.765" stroke="white" stroke-width="3"/>
<path d="M97.2061 146.382L52 146.382" stroke="white" stroke-width="3"/>
<path d="M84.3113 136.25L64.4706 156.091" stroke="white" stroke-width="3"/>
<path d="M64.4707 136.25L84.3114 156.091" stroke="white" stroke-width="3"/>
<path d="M842.603 0V46.7649" stroke="white" stroke-width="3"/>
<path d="M865.206 23.3823L820 23.3823" stroke="white" stroke-width="3"/>
<path d="M852.311 13.25L832.471 33.0907" stroke="white" stroke-width="3"/>
<path d="M832.471 13.25L852.311 33.0907" stroke="white" stroke-width="3"/>
<path d="M1633.6 373V419.765" stroke="white" stroke-width="3"/>
<path d="M1656.21 396.382L1611 396.382" stroke="white" stroke-width="3"/>
<path d="M1643.31 386.25L1623.47 406.091" stroke="white" stroke-width="3"/>
<path d="M1623.47 386.25L1643.31 406.091" stroke="white" stroke-width="3"/>
<circle cx="1083" cy="73" r="18" stroke="white" stroke-width="3"/>
<circle cx="311" cy="563" r="18" stroke="white" stroke-width="3"/>
<ellipse cx="506" cy="427.5" rx="8" ry="7.5" stroke="white" stroke-width="3"/>
<ellipse cx="683" cy="108.5" rx="8" ry="7.5" stroke="white" stroke-width="3"/>
<ellipse cx="11" cy="15.5" rx="8" ry="7.5" stroke="white" stroke-width="3"/>
<ellipse cx="1520" cy="110.5" rx="8" ry="7.5" stroke="white" stroke-width="3"/>
<ellipse cx="1375" cy="632.5" rx="8" ry="7.5" stroke="white" stroke-width="3"/>
<ellipse cx="44" cy="362.5" rx="8" ry="7.5" stroke="white" stroke-width="3"/>
<circle cx="1520" cy="492" r="8" fill="white"/>
<circle cx="1710" cy="23" r="8" fill="white"/>
<circle cx="256" cy="169" r="8" fill="white"/>
<circle cx="426" cy="648" r="8" fill="white"/>
</svg>
