<svg width="1809" height="729" viewBox="0 0 1809 729" fill="none" xmlns="http://www.w3.org/2000/svg">
<path d="M1739.95 279L1723.43 296.387" stroke="white" stroke-width="3"/>
<path d="M1740.39 295.952L1723 279.435" stroke="white" stroke-width="3"/>
<path d="M1739.95 637L1723.43 654.387" stroke="white" stroke-width="3"/>
<path d="M1740.39 653.952L1723 637.435" stroke="white" stroke-width="3"/>
<path d="M348.952 320L332.435 337.387" stroke="white" stroke-width="3"/>
<path d="M349.387 336.952L332 320.435" stroke="white" stroke-width="3"/>
<path d="M127.952 710L111.435 727.387" stroke="white" stroke-width="3"/>
<path d="M128.387 726.952L111 710.435" stroke="white" stroke-width="3"/>
<path d="M1340.95 422L1324.43 439.387" stroke="white" stroke-width="3"/>
<path d="M1341.39 438.952L1324 422.435" stroke="white" stroke-width="3"/>
<path d="M1512.42 277V381.322" stroke="white" stroke-width="3"/>
<path d="M1562.84 329.161L1462 329.161" stroke="white" stroke-width="3"/>
<path d="M1534.08 306.558L1489.82 350.818" stroke="white" stroke-width="3"/>
<path d="M1489.82 306.558L1534.08 350.818" stroke="white" stroke-width="3"/>
<path d="M454.422 108V212.322" stroke="white" stroke-width="3"/>
<path d="M504.844 160.161L404 160.161" stroke="white" stroke-width="3"/>
<path d="M476.079 137.558L431.819 181.818" stroke="white" stroke-width="3"/>
<path d="M431.819 137.558L476.079 181.818" stroke="white" stroke-width="3"/>
<path d="M83.4221 491V595.322" stroke="white" stroke-width="3"/>
<path d="M133.844 543.161L33 543.161" stroke="white" stroke-width="3"/>
<path d="M105.079 520.558L60.8191 564.818" stroke="white" stroke-width="3"/>
<path d="M60.8191 520.558L105.079 564.818" stroke="white" stroke-width="3"/>
<path d="M127.603 121V167.765" stroke="white" stroke-width="3"/>
<path d="M150.206 144.382L105 144.382" stroke="white" stroke-width="3"/>
<path d="M137.311 134.25L117.471 154.091" stroke="white" stroke-width="3"/>
<path d="M117.471 134.25L137.311 154.091" stroke="white" stroke-width="3"/>
<path d="M872.603 43V89.7649" stroke="white" stroke-width="3"/>
<path d="M895.206 66.3823L850 66.3823" stroke="white" stroke-width="3"/>
<path d="M882.311 56.25L862.471 76.0907" stroke="white" stroke-width="3"/>
<path d="M862.471 56.25L882.311 76.0907" stroke="white" stroke-width="3"/>
<path d="M1785.6 498V544.765" stroke="white" stroke-width="3"/>
<path d="M1808.21 521.382L1763 521.382" stroke="white" stroke-width="3"/>
<path d="M1795.31 511.25L1775.47 531.091" stroke="white" stroke-width="3"/>
<path d="M1775.47 511.25L1795.31 531.091" stroke="white" stroke-width="3"/>
<circle cx="1171" cy="88" r="20" stroke="white" stroke-width="3"/>
<circle cx="323" cy="617" r="20" stroke="white" stroke-width="3"/>
<ellipse cx="476" cy="431.5" rx="8" ry="7.5" stroke="white" stroke-width="3"/>
<ellipse cx="10" cy="9.5" rx="8" ry="7.5" stroke="white" stroke-width="3"/>
<ellipse cx="1550" cy="153.5" rx="8" ry="7.5" stroke="white" stroke-width="3"/>
<ellipse cx="1363" cy="698.5" rx="8" ry="7.5" stroke="white" stroke-width="3"/>
<ellipse cx="10" cy="380.5" rx="8" ry="7.5" stroke="white" stroke-width="3"/>
<circle cx="1583" cy="574" r="8" fill="white"/>
<circle cx="1755" cy="88" r="8" fill="white"/>
<circle cx="252" cy="184" r="8" fill="white"/>
<circle cx="456" cy="691" r="8" fill="white"/>
</svg>
