<svg width="3657" height="160" viewBox="0 0 3657 160" fill="none" xmlns="http://www.w3.org/2000/svg">
<path d="M0 140.557C4.5844 133.671 8.35978 127.257 11.3262 121.316C14.4274 115.376 17.3937 108.489 20.2253 100.658C29.7986 106.194 40.9225 110.515 53.597 113.62C66.2715 116.726 78.0696 118.278 88.9913 118.278C100.183 118.278 108.07 117.333 112.655 115.443C117.239 113.418 119.531 111.257 119.531 108.962C119.531 100.726 106.992 96.6076 81.9124 96.6076C54.406 96.6076 34.4504 93.7722 22.0456 88.1013C9.64072 82.2954 3.4383 72.9789 3.4383 60.1519C3.4383 41.9241 10.9891 28.4895 26.0906 19.8481C41.1922 11.2067 60.8107 6.88607 84.9462 6.88607C98.9691 6.88607 113.329 8.70886 128.026 12.3544C142.858 15.865 156.207 20.7257 168.072 26.9367C164.162 35.8481 160.049 46.7173 155.735 59.5443C154.926 62.2447 154.251 64.27 153.712 65.6203C146.836 60.0844 136.453 55.4937 122.565 51.8481C108.677 48.0675 96.4072 46.1772 85.7552 46.1772C72.9459 46.1772 64.3164 47.0549 59.8668 48.8101C55.4173 50.4304 53.1925 52.8608 53.1925 56.1013C53.1925 59.3418 56.2263 61.9747 62.2939 64C68.4963 65.8903 77.3954 66.8354 88.9913 66.8354C117.576 66.8354 138.341 70.1435 151.285 76.7595C164.229 83.2405 170.701 93.2321 170.701 106.734C170.701 125.637 163.825 139.274 150.072 147.646C136.318 155.882 115.486 160 87.5755 160C72.6088 160 57.3724 158.38 41.8663 155.139C26.3603 151.764 12.4048 146.903 0 140.557Z" fill="white"/>
<path d="M269.771 157.975C270.58 138.127 270.984 119.831 270.984 103.089C270.984 97.1477 269.501 92.422 266.535 88.9114C263.703 85.4008 260.062 83.6456 255.613 83.6456C250.894 83.6456 246.849 85.9409 243.478 90.5317C240.242 95.1224 238.624 101.401 238.624 109.367L238.421 108.962C238.421 130.97 238.691 147.308 239.23 157.975H190.892C191.971 138.532 192.51 112.203 192.51 78.9873C192.51 45.7721 191.971 19.443 190.892 0H239.028L239.23 62.3797L239.028 73.1139C242.264 63.6624 247.051 56.7089 253.388 52.2532C259.86 47.6624 267.141 45.3671 275.231 45.3671C283.321 45.3671 290.333 47.1899 296.266 50.8354C302.198 54.346 306.648 59.1392 309.614 65.2152C312.716 71.2911 314.266 78.1097 314.266 85.6709V114.835C314.266 132.793 314.603 147.173 315.277 157.975H269.771Z" fill="white"/>
<path d="M414.445 157.975C415.254 138.127 415.658 119.831 415.658 103.089C415.658 97.1477 414.175 92.422 411.208 88.9114C408.377 85.4008 404.736 83.6456 400.287 83.6456C395.568 83.6456 391.523 85.9409 388.152 90.5317C384.916 95.1224 383.298 101.401 383.298 109.367L383.095 108.962C383.095 130.97 383.365 147.308 383.904 157.975H335.566C336.645 138.532 337.184 112.203 337.184 78.9873C337.184 45.7721 336.645 19.443 335.566 0H383.702L383.904 62.3797L383.702 73.1139C386.938 63.6624 391.725 56.7089 398.062 52.2532C404.534 47.6624 411.815 45.3671 419.905 45.3671C427.995 45.3671 435.007 47.1899 440.94 50.8354C446.872 54.346 451.322 59.1392 454.288 65.2152C457.39 71.2911 458.94 78.1097 458.94 85.6709V114.835C458.94 132.793 459.277 147.173 459.951 157.975H414.445Z" fill="white"/>
<path d="M559.118 157.975C559.927 138.127 560.332 119.831 560.332 103.089C560.332 97.1477 558.849 92.422 555.882 88.9114C553.051 85.4008 549.41 83.6456 544.961 83.6456C540.242 83.6456 536.197 85.9409 532.826 90.5317C529.59 95.1224 527.972 101.401 527.972 109.367L527.769 108.962C527.769 130.97 528.039 147.308 528.578 157.975H480.24C481.319 138.532 481.858 112.203 481.858 78.9873C481.858 45.7721 481.319 19.443 480.24 0H528.376L528.578 62.3797L528.376 73.1139C531.612 63.6624 536.399 56.7089 542.736 52.2532C549.208 47.6624 556.489 45.3671 564.579 45.3671C572.669 45.3671 579.681 47.1899 585.614 50.8354C591.546 54.346 595.996 59.1392 598.962 65.2152C602.064 71.2911 603.614 78.1097 603.614 85.6709V114.835C603.614 132.793 603.951 147.173 604.625 157.975H559.118Z" fill="white"/>
<path d="M703.793 157.975C704.602 138.127 705.006 119.831 705.006 103.089C705.006 97.1477 703.523 92.422 700.556 88.9114C697.725 85.4008 694.084 83.6456 689.635 83.6456C684.916 83.6456 680.871 85.9409 677.5 90.5317C674.264 95.1224 672.646 101.401 672.646 109.367L672.443 108.962C672.443 130.97 672.713 147.308 673.252 157.975H624.914C625.993 138.532 626.532 112.203 626.532 78.9873C626.532 45.7721 625.993 19.443 624.914 0H673.05L673.252 62.3797L673.05 73.1139C676.286 63.6624 681.073 56.7089 687.41 52.2532C693.882 47.6624 701.163 45.3671 709.253 45.3671C717.343 45.3671 724.355 47.1899 730.288 50.8354C736.22 54.346 740.67 59.1392 743.636 65.2152C746.737 71.2911 748.288 78.1097 748.288 85.6709V114.835C748.288 132.793 748.625 147.173 749.299 157.975H703.793Z" fill="white"/>
<path d="M854.534 108.759H767.565V69.2658H854.534V108.759Z" fill="white"/>
<path d="M872.784 140.557C877.369 133.671 881.144 127.257 884.11 121.316C887.212 115.376 890.178 108.489 893.01 100.658C902.583 106.194 913.707 110.515 926.381 113.62C939.056 116.726 950.854 118.278 961.776 118.278C972.967 118.278 980.855 117.333 985.439 115.443C990.023 113.418 992.316 111.257 992.316 108.962C992.316 100.726 979.776 96.6076 954.697 96.6076C927.19 96.6076 907.235 93.7722 894.83 88.1013C882.425 82.2954 876.223 72.9789 876.223 60.1519C876.223 41.9241 883.773 28.4895 898.875 19.8481C913.976 11.2067 933.595 6.88607 957.73 6.88607C971.753 6.88607 986.113 8.70886 1000.81 12.3544C1015.64 15.865 1028.99 20.7257 1040.86 26.9367C1036.95 35.8481 1032.83 46.7173 1028.52 59.5443C1027.71 62.2447 1027.04 64.27 1026.5 65.6203C1019.62 60.0844 1009.24 55.4937 995.349 51.8481C981.461 48.0675 969.191 46.1772 958.539 46.1772C945.73 46.1772 937.101 47.0549 932.651 48.8101C928.202 50.4304 925.977 52.8608 925.977 56.1013C925.977 59.3418 929.011 61.9747 935.078 64C941.281 65.8903 950.18 66.8354 961.776 66.8354C990.361 66.8354 1011.13 70.1435 1024.07 76.7595C1037.01 83.2405 1043.49 93.2321 1043.49 106.734C1043.49 125.637 1036.61 139.274 1022.86 147.646C1009.1 155.882 988.271 160 960.36 160C945.393 160 930.157 158.38 914.651 155.139C899.145 151.764 885.189 146.903 872.784 140.557Z" fill="white"/>
<path d="M1142.55 157.975C1143.36 138.127 1143.77 119.831 1143.77 103.089C1143.77 97.1477 1142.29 92.422 1139.32 88.9114C1136.49 85.4008 1132.85 83.6456 1128.4 83.6456C1123.68 83.6456 1119.63 85.9409 1116.26 90.5317C1113.03 95.1224 1111.41 101.401 1111.41 109.367L1111.21 108.962C1111.21 130.97 1111.48 147.308 1112.01 157.975H1063.68C1064.75 138.532 1065.29 112.203 1065.29 78.9873C1065.29 45.7721 1064.75 19.443 1063.68 0H1111.81L1112.01 62.3797L1111.81 73.1139C1115.05 63.6624 1119.84 56.7089 1126.17 52.2532C1132.64 47.6624 1139.93 45.3671 1148.02 45.3671C1156.11 45.3671 1163.12 47.1899 1169.05 50.8354C1174.98 54.346 1179.43 59.1392 1182.4 65.2152C1185.5 71.2911 1187.05 78.1097 1187.05 85.6709V114.835C1187.05 132.793 1187.39 147.173 1188.06 157.975H1142.55Z" fill="white"/>
<path d="M1287.23 157.975C1288.04 138.127 1288.44 119.831 1288.44 103.089C1288.44 97.1477 1286.96 92.422 1283.99 88.9114C1281.16 85.4008 1277.52 83.6456 1273.07 83.6456C1268.35 83.6456 1264.31 85.9409 1260.94 90.5317C1257.7 95.1224 1256.08 101.401 1256.08 109.367L1255.88 108.962C1255.88 130.97 1256.15 147.308 1256.69 157.975H1208.35C1209.43 138.532 1209.97 112.203 1209.97 78.9873C1209.97 45.7721 1209.43 19.443 1208.35 0H1256.49L1256.69 62.3797L1256.49 73.1139C1259.72 63.6624 1264.51 56.7089 1270.85 52.2532C1277.32 47.6624 1284.6 45.3671 1292.69 45.3671C1300.78 45.3671 1307.79 47.1899 1313.72 50.8354C1319.66 54.346 1324.11 59.1392 1327.07 65.2152C1330.17 71.2911 1331.72 78.1097 1331.72 85.6709V114.835C1331.72 132.793 1332.06 147.173 1332.74 157.975H1287.23Z" fill="white"/>
<path d="M1431.9 157.975C1432.71 138.127 1433.12 119.831 1433.12 103.089C1433.12 97.1477 1431.63 92.422 1428.67 88.9114C1425.84 85.4008 1422.19 83.6456 1417.75 83.6456C1413.03 83.6456 1408.98 85.9409 1405.61 90.5317C1402.37 95.1224 1400.76 101.401 1400.76 109.367L1400.55 108.962C1400.55 130.97 1400.82 147.308 1401.36 157.975H1353.02C1354.1 138.532 1354.64 112.203 1354.64 78.9873C1354.64 45.7721 1354.1 19.443 1353.02 0H1401.16L1401.36 62.3797L1401.16 73.1139C1404.4 63.6624 1409.18 56.7089 1415.52 52.2532C1421.99 47.6624 1429.27 45.3671 1437.36 45.3671C1445.45 45.3671 1452.47 47.1899 1458.4 50.8354C1464.33 54.346 1468.78 59.1392 1471.75 65.2152C1474.85 71.2911 1476.4 78.1097 1476.4 85.6709V114.835C1476.4 132.793 1476.74 147.173 1477.41 157.975H1431.9Z" fill="white"/>
<path d="M1576.58 157.975C1577.39 138.127 1577.79 119.831 1577.79 103.089C1577.79 97.1477 1576.31 92.422 1573.34 88.9114C1570.51 85.4008 1566.87 83.6456 1562.42 83.6456C1557.7 83.6456 1553.65 85.9409 1550.28 90.5317C1547.05 95.1224 1545.43 101.401 1545.43 109.367L1545.23 108.962C1545.23 130.97 1545.5 147.308 1546.04 157.975H1497.7C1498.78 138.532 1499.32 112.203 1499.32 78.9873C1499.32 45.7721 1498.78 19.443 1497.7 0H1545.83L1546.04 62.3797L1545.83 73.1139C1549.07 63.6624 1553.86 56.7089 1560.19 52.2532C1566.67 47.6624 1573.95 45.3671 1582.04 45.3671C1590.13 45.3671 1597.14 47.1899 1603.07 50.8354C1609 54.346 1613.45 59.1392 1616.42 65.2152C1619.52 71.2911 1621.07 78.1097 1621.07 85.6709V114.835C1621.07 132.793 1621.41 147.173 1622.08 157.975H1576.58Z" fill="white"/>
<path d="M1727.32 108.759H1640.35V69.2658H1727.32V108.759Z" fill="white"/>
<path d="M1745.57 140.557C1750.15 133.671 1753.93 127.257 1756.89 121.316C1760 115.376 1762.96 108.489 1765.79 100.658C1775.37 106.194 1786.49 110.515 1799.17 113.62C1811.84 116.726 1823.64 118.278 1834.56 118.278C1845.75 118.278 1853.64 117.333 1858.22 115.443C1862.81 113.418 1865.1 111.257 1865.1 108.962C1865.1 100.726 1852.56 96.6076 1827.48 96.6076C1799.97 96.6076 1780.02 93.7722 1767.61 88.1013C1755.21 82.2954 1749.01 72.9789 1749.01 60.1519C1749.01 41.9241 1756.56 28.4895 1771.66 19.8481C1786.76 11.2067 1806.38 6.88607 1830.51 6.88607C1844.54 6.88607 1858.9 8.70886 1873.59 12.3544C1888.43 15.865 1901.78 20.7257 1913.64 26.9367C1909.73 35.8481 1905.62 46.7173 1901.3 59.5443C1900.49 62.2447 1899.82 64.27 1899.28 65.6203C1892.4 60.0844 1882.02 55.4937 1868.13 51.8481C1854.25 48.0675 1841.98 46.1772 1831.32 46.1772C1818.51 46.1772 1809.88 47.0549 1805.44 48.8101C1800.99 50.4304 1798.76 52.8608 1798.76 56.1013C1798.76 59.3418 1801.79 61.9747 1807.86 64C1814.06 65.8903 1822.96 66.8354 1834.56 66.8354C1863.14 66.8354 1883.91 70.1435 1896.85 76.7595C1909.8 83.2405 1916.27 93.2321 1916.27 106.734C1916.27 125.637 1909.39 139.274 1895.64 147.646C1881.89 155.882 1861.05 160 1833.14 160C1818.18 160 1802.94 158.38 1787.43 155.139C1771.93 151.764 1757.97 146.903 1745.57 140.557Z" fill="white"/>
<path d="M2015.34 157.975C2016.15 138.127 2016.55 119.831 2016.55 103.089C2016.55 97.1477 2015.07 92.422 2012.1 88.9114C2009.27 85.4008 2005.63 83.6456 2001.18 83.6456C1996.46 83.6456 1992.42 85.9409 1989.05 90.5317C1985.81 95.1224 1984.19 101.401 1984.19 109.367L1983.99 108.962C1983.99 130.97 1984.26 147.308 1984.8 157.975H1936.46C1937.54 138.532 1938.08 112.203 1938.08 78.9873C1938.08 45.7721 1937.54 19.443 1936.46 0H1984.6L1984.8 62.3797L1984.6 73.1139C1987.83 63.6624 1992.62 56.7089 1998.96 52.2532C2005.43 47.6624 2012.71 45.3671 2020.8 45.3671C2028.89 45.3671 2035.9 47.1899 2041.83 50.8354C2047.77 54.346 2052.22 59.1392 2055.18 65.2152C2058.28 71.2911 2059.83 78.1097 2059.83 85.6709V114.835C2059.83 132.793 2060.17 147.173 2060.85 157.975H2015.34Z" fill="white"/>
<path d="M2160.01 157.975C2160.82 138.127 2161.23 119.831 2161.23 103.089C2161.23 97.1477 2159.74 92.422 2156.78 88.9114C2153.95 85.4008 2150.3 83.6456 2145.86 83.6456C2141.14 83.6456 2137.09 85.9409 2133.72 90.5317C2130.48 95.1224 2128.87 101.401 2128.87 109.367L2128.66 108.962C2128.66 130.97 2128.93 147.308 2129.47 157.975H2081.13C2082.21 138.532 2082.75 112.203 2082.75 78.9873C2082.75 45.7721 2082.21 19.443 2081.13 0H2129.27L2129.47 62.3797L2129.27 73.1139C2132.51 63.6624 2137.29 56.7089 2143.63 52.2532C2150.1 47.6624 2157.38 45.3671 2165.47 45.3671C2173.56 45.3671 2180.58 47.1899 2186.51 50.8354C2192.44 54.346 2196.89 59.1392 2199.86 65.2152C2202.96 71.2911 2204.51 78.1097 2204.51 85.6709V114.835C2204.51 132.793 2204.85 147.173 2205.52 157.975H2160.01Z" fill="white"/>
<path d="M2304.69 157.975C2305.5 138.127 2305.9 119.831 2305.9 103.089C2305.9 97.1477 2304.42 92.422 2301.45 88.9114C2298.62 85.4008 2294.98 83.6456 2290.53 83.6456C2285.81 83.6456 2281.76 85.9409 2278.39 90.5317C2275.16 95.1224 2273.54 101.401 2273.54 109.367L2273.34 108.962C2273.34 130.97 2273.61 147.308 2274.15 157.975H2225.81C2226.89 138.532 2227.43 112.203 2227.43 78.9873C2227.43 45.7721 2226.89 19.443 2225.81 0H2273.94L2274.15 62.3797L2273.94 73.1139C2277.18 63.6624 2281.97 56.7089 2288.3 52.2532C2294.78 47.6624 2302.06 45.3671 2310.15 45.3671C2318.24 45.3671 2325.25 47.1899 2331.18 50.8354C2337.11 54.346 2341.56 59.1392 2344.53 65.2152C2347.63 71.2911 2349.18 78.1097 2349.18 85.6709V114.835C2349.18 132.793 2349.52 147.173 2350.19 157.975H2304.69Z" fill="white"/>
<path d="M2449.36 157.975C2450.17 138.127 2450.57 119.831 2450.57 103.089C2450.57 97.1477 2449.09 92.422 2446.12 88.9114C2443.29 85.4008 2439.65 83.6456 2435.2 83.6456C2430.48 83.6456 2426.44 85.9409 2423.07 90.5317C2419.83 95.1224 2418.21 101.401 2418.21 109.367L2418.01 108.962C2418.01 130.97 2418.28 147.308 2418.82 157.975H2370.48C2371.56 138.532 2372.1 112.203 2372.1 78.9873C2372.1 45.7721 2371.56 19.443 2370.48 0H2418.62L2418.82 62.3797L2418.62 73.1139C2421.85 63.6624 2426.64 56.7089 2432.98 52.2532C2439.45 47.6624 2446.73 45.3671 2454.82 45.3671C2462.91 45.3671 2469.92 47.1899 2475.86 50.8354C2481.79 54.346 2486.24 59.1392 2489.2 65.2152C2492.31 71.2911 2493.86 78.1097 2493.86 85.6709V114.835C2493.86 132.793 2494.19 147.173 2494.87 157.975H2449.36Z" fill="white"/>
<path d="M2594.03 157.975C2594.84 138.127 2595.25 119.831 2595.25 103.089C2595.25 97.1477 2593.77 92.422 2590.8 88.9114C2587.97 85.4008 2584.33 83.6456 2579.88 83.6456C2575.16 83.6456 2571.11 85.9409 2567.74 90.5317C2564.51 95.1224 2562.89 101.401 2562.89 109.367L2562.69 108.962C2562.69 130.97 2562.96 147.308 2563.49 157.975H2515.16C2516.24 138.532 2516.77 112.203 2516.77 78.9873C2516.77 45.7721 2516.24 19.443 2515.16 0H2563.29L2563.49 62.3797L2563.29 73.1139C2566.53 63.6624 2571.32 56.7089 2577.65 52.2532C2584.12 47.6624 2591.41 45.3671 2599.5 45.3671C2607.59 45.3671 2614.6 47.1899 2620.53 50.8354C2626.46 54.346 2630.91 59.1392 2633.88 65.2152C2636.98 71.2911 2638.53 78.1097 2638.53 85.6709V114.835C2638.53 132.793 2638.87 147.173 2639.54 157.975H2594.03Z" fill="white"/>
<path d="M2744.78 108.759H2657.81V69.2658H2744.78V108.759Z" fill="white"/>
<path d="M2763.03 140.557C2767.61 133.671 2771.39 127.257 2774.35 121.316C2777.45 115.376 2780.42 108.489 2783.25 100.658C2792.83 106.194 2803.95 110.515 2816.62 113.62C2829.3 116.726 2841.1 118.278 2852.02 118.278C2863.21 118.278 2871.1 117.333 2875.68 115.443C2880.27 113.418 2882.56 111.257 2882.56 108.962C2882.56 100.726 2870.02 96.6076 2844.94 96.6076C2817.43 96.6076 2797.48 93.7722 2785.07 88.1013C2772.67 82.2954 2766.47 72.9789 2766.47 60.1519C2766.47 41.9241 2774.02 28.4895 2789.12 19.8481C2804.22 11.2067 2823.84 6.88607 2847.97 6.88607C2862 6.88607 2876.36 8.70886 2891.05 12.3544C2905.88 15.865 2919.23 20.7257 2931.1 26.9367C2927.19 35.8481 2923.08 46.7173 2918.76 59.5443C2917.95 62.2447 2917.28 64.27 2916.74 65.6203C2909.86 60.0844 2899.48 55.4937 2885.59 51.8481C2871.7 48.0675 2859.43 46.1772 2848.78 46.1772C2835.97 46.1772 2827.34 47.0549 2822.89 48.8101C2818.44 50.4304 2816.22 52.8608 2816.22 56.1013C2816.22 59.3418 2819.25 61.9747 2825.32 64C2831.52 65.8903 2840.42 66.8354 2852.02 66.8354C2880.6 66.8354 2901.37 70.1435 2914.31 76.7595C2927.26 83.2405 2933.73 93.2321 2933.73 106.734C2933.73 125.637 2926.85 139.274 2913.1 147.646C2899.34 155.882 2878.51 160 2850.6 160C2835.64 160 2820.4 158.38 2804.89 155.139C2789.39 151.764 2775.43 146.903 2763.03 140.557Z" fill="white"/>
<path d="M3032.8 157.975C3033.61 138.127 3034.01 119.831 3034.01 103.089C3034.01 97.1477 3032.53 92.422 3029.56 88.9114C3026.73 85.4008 3023.09 83.6456 3018.64 83.6456C3013.92 83.6456 3009.88 85.9409 3006.5 90.5317C3003.27 95.1224 3001.65 101.401 3001.65 109.367L3001.45 108.962C3001.45 130.97 3001.72 147.308 3002.26 157.975H2953.92C2955 138.532 2955.54 112.203 2955.54 78.9873C2955.54 45.7721 2955 19.443 2953.92 0H3002.05L3002.26 62.3797L3002.05 73.1139C3005.29 63.6624 3010.08 56.7089 3016.41 52.2532C3022.89 47.6624 3030.17 45.3671 3038.26 45.3671C3046.35 45.3671 3053.36 47.1899 3059.29 50.8354C3065.23 54.346 3069.67 59.1392 3072.64 65.2152C3075.74 71.2911 3077.29 78.1097 3077.29 85.6709V114.835C3077.29 132.793 3077.63 147.173 3078.3 157.975H3032.8Z" fill="white"/>
<path d="M3177.47 157.975C3178.28 138.127 3178.68 119.831 3178.68 103.089C3178.68 97.1477 3177.2 92.422 3174.24 88.9114C3171.4 85.4008 3167.76 83.6456 3163.31 83.6456C3158.59 83.6456 3154.55 85.9409 3151.18 90.5317C3147.94 95.1224 3146.32 101.401 3146.32 109.367L3146.12 108.962C3146.12 130.97 3146.39 147.308 3146.93 157.975H3098.59C3099.67 138.532 3100.21 112.203 3100.21 78.9873C3100.21 45.7721 3099.67 19.443 3098.59 0H3146.73L3146.93 62.3797L3146.73 73.1139C3149.97 63.6624 3154.75 56.7089 3161.09 52.2532C3167.56 47.6624 3174.84 45.3671 3182.93 45.3671C3191.02 45.3671 3198.03 47.1899 3203.97 50.8354C3209.9 54.346 3214.35 59.1392 3217.31 65.2152C3220.42 71.2911 3221.97 78.1097 3221.97 85.6709V114.835C3221.97 132.793 3222.3 147.173 3222.98 157.975H3177.47Z" fill="white"/>
<path d="M3322.15 157.975C3322.95 138.127 3323.36 119.831 3323.36 103.089C3323.36 97.1477 3321.88 92.422 3318.91 88.9114C3316.08 85.4008 3312.44 83.6456 3307.99 83.6456C3303.27 83.6456 3299.22 85.9409 3295.85 90.5317C3292.62 95.1224 3291 101.401 3291 109.367L3290.8 108.962C3290.8 130.97 3291.07 147.308 3291.61 157.975H3243.27C3244.35 138.532 3244.88 112.203 3244.88 78.9873C3244.88 45.7721 3244.35 19.443 3243.27 0H3291.4L3291.61 62.3797L3291.4 73.1139C3294.64 63.6624 3299.43 56.7089 3305.76 52.2532C3312.23 47.6624 3319.52 45.3671 3327.61 45.3671C3335.7 45.3671 3342.71 47.1899 3348.64 50.8354C3354.57 54.346 3359.02 59.1392 3361.99 65.2152C3365.09 71.2911 3366.64 78.1097 3366.64 85.6709V114.835C3366.64 132.793 3366.98 147.173 3367.65 157.975H3322.15Z" fill="white"/>
<path d="M3466.82 157.975C3467.63 138.127 3468.03 119.831 3468.03 103.089C3468.03 97.1477 3466.55 92.422 3463.58 88.9114C3460.75 85.4008 3457.11 83.6456 3452.66 83.6456C3447.94 83.6456 3443.9 85.9409 3440.53 90.5317C3437.29 95.1224 3435.67 101.401 3435.67 109.367L3435.47 108.962C3435.47 130.97 3435.74 147.308 3436.28 157.975H3387.94C3389.02 138.532 3389.56 112.203 3389.56 78.9873C3389.56 45.7721 3389.02 19.443 3387.94 0H3436.08L3436.28 62.3797L3436.08 73.1139C3439.31 63.6624 3444.1 56.7089 3450.44 52.2532C3456.91 47.6624 3464.19 45.3671 3472.28 45.3671C3480.37 45.3671 3487.38 47.1899 3493.31 50.8354C3499.25 54.346 3503.7 59.1392 3506.66 65.2152C3509.76 71.2911 3511.31 78.1097 3511.31 85.6709V114.835C3511.31 132.793 3511.65 147.173 3512.33 157.975H3466.82Z" fill="white"/>
<path d="M3611.49 157.975C3612.3 138.127 3612.71 119.831 3612.71 103.089C3612.71 97.1477 3611.22 92.422 3608.26 88.9114C3605.43 85.4008 3601.79 83.6456 3597.34 83.6456C3592.62 83.6456 3588.57 85.9409 3585.2 90.5317C3581.96 95.1224 3580.35 101.401 3580.35 109.367L3580.14 108.962C3580.14 130.97 3580.41 147.308 3580.95 157.975H3532.61C3533.69 138.532 3534.23 112.203 3534.23 78.9873C3534.23 45.7721 3533.69 19.443 3532.61 0H3580.75L3580.95 62.3797L3580.75 73.1139C3583.99 63.6624 3588.77 56.7089 3595.11 52.2532C3601.58 47.6624 3608.86 45.3671 3616.95 45.3671C3625.04 45.3671 3632.06 47.1899 3637.99 50.8354C3643.92 54.346 3648.37 59.1392 3651.34 65.2152C3654.44 71.2911 3655.99 78.1097 3655.99 85.6709V114.835C3655.99 132.793 3656.33 147.173 3657 157.975H3611.49Z" fill="white"/>
</svg>
