<svg width="2528" height="234" viewBox="0 0 2528 234" fill="none" xmlns="http://www.w3.org/2000/svg">
<path d="M0 93.9975C3.06128 89.3924 5.58233 85.1034 7.56316 81.1304C9.63403 77.1574 11.6149 72.5523 13.5056 67.3152C19.8983 71.0173 27.3264 73.9068 35.79 75.9835C44.2535 78.0603 52.1318 79.0987 59.4248 79.0987C66.898 79.0987 72.1652 78.4667 75.2264 77.2025C78.2877 75.8481 79.8184 74.4034 79.8184 72.8684C79.8184 67.3603 71.4449 64.6063 54.6979 64.6063C36.3302 64.6063 23.0046 62.7101 14.7212 58.9177C6.43769 55.035 2.29596 48.8046 2.29596 40.2266C2.29596 28.0367 7.33807 19.0523 17.4223 13.2734C27.5065 7.49451 40.607 4.60506 56.7237 4.60506C66.0876 4.60506 75.6766 5.82405 85.4907 8.26202C95.3949 10.6097 104.309 13.8603 112.232 18.0139C109.621 23.9734 106.875 31.2422 103.993 39.8203C103.453 41.6262 103.003 42.9806 102.643 43.8835C98.051 40.1814 91.1181 37.1114 81.8442 34.6734C72.5703 32.1451 64.3769 30.881 57.2639 30.881C48.7104 30.881 42.948 31.4679 39.9767 32.6418C37.0055 33.7253 35.5198 35.3506 35.5198 37.5177C35.5198 39.6848 37.5457 41.4456 41.5974 42.8C45.7391 44.0641 51.6816 44.6962 59.4248 44.6962C78.5128 44.6962 92.3786 46.9084 101.022 51.3329C109.666 55.6671 113.988 62.3489 113.988 71.3785C113.988 84.0198 109.396 93.1397 100.212 98.738C91.028 104.246 77.1172 107 58.4794 107C48.4853 107 38.311 105.916 27.9567 103.749C17.6024 101.492 8.28346 98.2414 0 93.9975Z" fill="white"/>
<path d="M180.142 105.646C180.682 92.3722 180.952 80.1371 180.952 68.9405C180.952 64.9675 179.962 61.8072 177.981 59.4595C176.09 57.1118 173.659 55.938 170.688 55.938C167.537 55.938 164.836 57.473 162.585 60.543C160.424 63.6131 159.343 67.8118 159.343 73.1392L159.208 72.8684C159.208 87.5865 159.388 98.5122 159.749 105.646H127.47C128.19 92.643 128.551 75.0354 128.551 52.8228C128.551 30.6101 128.19 13.0025 127.47 0H159.614L159.749 41.7165L159.614 48.8949C161.774 42.5743 164.971 37.9241 169.203 34.9443C173.524 31.8743 178.386 30.3392 183.789 30.3392C189.191 30.3392 193.873 31.5582 197.834 33.9962C201.796 36.3439 204.767 39.5494 206.748 43.6127C208.819 47.6759 209.855 52.2359 209.855 57.2924V76.7962C209.855 88.8055 210.08 98.4219 210.53 105.646H180.142Z" fill="white"/>
<path d="M276.75 105.646C277.29 92.3722 277.56 80.1371 277.56 68.9405C277.56 64.9675 276.57 61.8072 274.589 59.4595C272.698 57.1118 270.267 55.938 267.296 55.938C264.144 55.938 261.443 57.473 259.192 60.543C257.031 63.6131 255.951 67.8118 255.951 73.1392L255.816 72.8684C255.816 87.5865 255.996 98.5122 256.356 105.646H224.078C224.798 92.643 225.158 75.0354 225.158 52.8228C225.158 30.6101 224.798 13.0025 224.078 0H256.221L256.356 41.7165L256.221 48.8949C258.382 42.5743 261.578 37.9241 265.81 34.9443C270.132 31.8743 274.994 30.3392 280.396 30.3392C285.798 30.3392 290.48 31.5582 294.442 33.9962C298.404 36.3439 301.375 39.5494 303.356 43.6127C305.427 47.6759 306.462 52.2359 306.462 57.2924V76.7962C306.462 88.8055 306.687 98.4219 307.137 105.646H276.75Z" fill="white"/>
<path d="M373.357 105.646C373.897 92.3722 374.168 80.1371 374.168 68.9405C374.168 64.9675 373.177 61.8072 371.196 59.4595C369.306 57.1118 366.875 55.938 363.903 55.938C360.752 55.938 358.051 57.473 355.8 60.543C353.639 63.6131 352.559 67.8118 352.559 73.1392L352.423 72.8684C352.423 87.5865 352.604 98.5122 352.964 105.646H320.685C321.406 92.643 321.766 75.0354 321.766 52.8228C321.766 30.6101 321.406 13.0025 320.685 0H352.829L352.964 41.7165L352.829 48.8949C354.99 42.5743 358.186 37.9241 362.418 34.9443C366.739 31.8743 371.602 30.3392 377.004 30.3392C382.406 30.3392 387.088 31.5582 391.05 33.9962C395.011 36.3439 397.983 39.5494 399.963 43.6127C402.034 47.6759 403.07 52.2359 403.07 57.2924V76.7962C403.07 88.8055 403.295 98.4219 403.745 105.646H373.357Z" fill="white"/>
<path d="M469.965 105.646C470.505 92.3722 470.775 80.1371 470.775 68.9405C470.775 64.9675 469.785 61.8072 467.804 59.4595C465.913 57.1118 463.482 55.938 460.511 55.938C457.36 55.938 454.658 57.473 452.407 60.543C450.247 63.6131 449.166 67.8118 449.166 73.1392L449.031 72.8684C449.031 87.5865 449.211 98.5122 449.571 105.646H417.293C418.013 92.643 418.373 75.0354 418.373 52.8228C418.373 30.6101 418.013 13.0025 417.293 0H449.436L449.571 41.7165L449.436 48.8949C451.597 42.5743 454.793 37.9241 459.025 34.9443C463.347 31.8743 468.209 30.3392 473.611 30.3392C479.014 30.3392 483.696 31.5582 487.657 33.9962C491.619 36.3439 494.59 39.5494 496.571 43.6127C498.642 47.6759 499.677 52.2359 499.677 57.2924V76.7962C499.677 88.8055 499.902 98.4219 500.352 105.646H469.965Z" fill="white"/>
<path d="M570.624 72.7329H512.55V46.3215H570.624V72.7329Z" fill="white"/>
<path d="M582.811 93.9975C585.872 89.3924 588.393 85.1034 590.374 81.1304C592.445 77.1574 594.426 72.5523 596.316 67.3152C602.709 71.0173 610.137 73.9068 618.601 75.9835C627.064 78.0603 634.943 79.0987 642.236 79.0987C649.709 79.0987 654.976 78.4667 658.037 77.2025C661.099 75.8481 662.629 74.4034 662.629 72.8684C662.629 67.3603 654.256 64.6063 637.509 64.6063C619.141 64.6063 605.815 62.7101 597.532 58.9177C589.248 55.035 585.107 48.8046 585.107 40.2266C585.107 28.0367 590.149 19.0523 600.233 13.2734C610.317 7.49451 623.418 4.60506 639.535 4.60506C648.898 4.60506 658.487 5.82405 668.302 8.26202C678.206 10.6097 687.119 13.8603 695.043 18.0139C692.432 23.9734 689.685 31.2422 686.804 39.8203C686.264 41.6262 685.814 42.9806 685.454 43.8835C680.862 40.1814 673.929 37.1114 664.655 34.6734C655.381 32.1451 647.188 30.881 640.075 30.881C631.521 30.881 625.759 31.4679 622.788 32.6418C619.816 33.7253 618.331 35.3506 618.331 37.5177C618.331 39.6848 620.356 41.4456 624.408 42.8C628.55 44.0641 634.492 44.6962 642.236 44.6962C661.324 44.6962 675.189 46.9084 683.833 51.3329C692.477 55.6671 696.798 62.3489 696.798 71.3785C696.798 84.0198 692.206 93.1397 683.023 98.738C673.839 104.246 659.928 107 641.29 107C631.296 107 621.122 105.916 610.768 103.749C600.413 101.492 591.094 98.2414 582.811 93.9975Z" fill="white"/>
<path d="M762.953 105.646C763.493 92.3722 763.763 80.1371 763.763 68.9405C763.763 64.9675 762.773 61.8072 760.792 59.4595C758.901 57.1118 756.47 55.938 753.499 55.938C750.348 55.938 747.646 57.473 745.395 60.543C743.235 63.6131 742.154 67.8118 742.154 73.1392L742.019 72.8684C742.019 87.5865 742.199 98.5122 742.559 105.646H710.281C711.001 92.643 711.361 75.0354 711.361 52.8228C711.361 30.6101 711.001 13.0025 710.281 0H742.424L742.559 41.7165L742.424 48.8949C744.585 42.5743 747.782 37.9241 752.013 34.9443C756.335 31.8743 761.197 30.3392 766.599 30.3392C772.002 30.3392 776.684 31.5582 780.645 33.9962C784.607 36.3439 787.578 39.5494 789.559 43.6127C791.63 47.6759 792.665 52.2359 792.665 57.2924V76.7962C792.665 88.8055 792.89 98.4219 793.341 105.646H762.953Z" fill="white"/>
<path d="M859.56 105.646C860.101 92.3722 860.371 80.1371 860.371 68.9405C860.371 64.9675 859.38 61.8072 857.4 59.4595C855.509 57.1118 853.078 55.938 850.106 55.938C846.955 55.938 844.254 57.473 842.003 60.543C839.842 63.6131 838.762 67.8118 838.762 73.1392L838.627 72.8684C838.627 87.5865 838.807 98.5122 839.167 105.646H806.888C807.609 92.643 807.969 75.0354 807.969 52.8228C807.969 30.6101 807.609 13.0025 806.888 0H839.032L839.167 41.7165L839.032 48.8949C841.193 42.5743 844.389 37.9241 848.621 34.9443C852.943 31.8743 857.805 30.3392 863.207 30.3392C868.609 30.3392 873.291 31.5582 877.253 33.9962C881.214 36.3439 884.186 39.5494 886.167 43.6127C888.237 47.6759 889.273 52.2359 889.273 57.2924V76.7962C889.273 88.8055 889.498 98.4219 889.948 105.646H859.56Z" fill="white"/>
<path d="M956.168 105.646C956.708 92.3722 956.978 80.1371 956.978 68.9405C956.978 64.9675 955.988 61.8072 954.007 59.4595C952.116 57.1118 949.685 55.938 946.714 55.938C943.563 55.938 940.862 57.473 938.611 60.543C936.45 63.6131 935.369 67.8118 935.369 73.1392L935.234 72.8684C935.234 87.5865 935.414 98.5122 935.775 105.646H903.496C904.216 92.643 904.576 75.0354 904.576 52.8228C904.576 30.6101 904.216 13.0025 903.496 0H935.639L935.775 41.7165L935.639 48.8949C937.8 42.5743 940.997 37.9241 945.229 34.9443C949.55 31.8743 954.412 30.3392 959.815 30.3392C965.217 30.3392 969.899 31.5582 973.86 33.9962C977.822 36.3439 980.793 39.5494 982.774 43.6127C984.845 47.6759 985.88 52.2359 985.88 57.2924V76.7962C985.88 88.8055 986.106 98.4219 986.556 105.646H956.168Z" fill="white"/>
<path d="M1052.78 105.646C1053.32 92.3722 1053.59 80.1371 1053.59 68.9405C1053.59 64.9675 1052.6 61.8072 1050.61 59.4595C1048.72 57.1118 1046.29 55.938 1043.32 55.938C1040.17 55.938 1037.47 57.473 1035.22 60.543C1033.06 63.6131 1031.98 67.8118 1031.98 73.1392L1031.84 72.8684C1031.84 87.5865 1032.02 98.5122 1032.38 105.646H1000.1C1000.82 92.643 1001.18 75.0354 1001.18 52.8228C1001.18 30.6101 1000.82 13.0025 1000.1 0H1032.25L1032.38 41.7165L1032.25 48.8949C1034.41 42.5743 1037.6 37.9241 1041.84 34.9443C1046.16 31.8743 1051.02 30.3392 1056.42 30.3392C1061.82 30.3392 1066.51 31.5582 1070.47 33.9962C1074.43 36.3439 1077.4 39.5494 1079.38 43.6127C1081.45 47.6759 1082.49 52.2359 1082.49 57.2924V76.7962C1082.49 88.8055 1082.71 98.4219 1083.16 105.646H1052.78Z" fill="white"/>
<path d="M1153.43 72.7329H1095.36V46.3215H1153.43V72.7329Z" fill="white"/>
<path d="M1165.62 93.9975C1168.68 89.3924 1171.2 85.1034 1173.18 81.1304C1175.26 77.1574 1177.24 72.5523 1179.13 67.3152C1185.52 71.0173 1192.95 73.9068 1201.41 75.9835C1209.88 78.0603 1217.75 79.0987 1225.05 79.0987C1232.52 79.0987 1237.79 78.4667 1240.85 77.2025C1243.91 75.8481 1245.44 74.4034 1245.44 72.8684C1245.44 67.3603 1237.07 64.6063 1220.32 64.6063C1201.95 64.6063 1188.63 62.7101 1180.34 58.9177C1172.06 55.035 1167.92 48.8046 1167.92 40.2266C1167.92 28.0367 1172.96 19.0523 1183.04 13.2734C1193.13 7.49451 1206.23 4.60506 1222.35 4.60506C1231.71 4.60506 1241.3 5.82405 1251.11 8.26202C1261.02 10.6097 1269.93 13.8603 1277.85 18.0139C1275.24 23.9734 1272.5 31.2422 1269.61 39.8203C1269.07 41.6262 1268.62 42.9806 1268.26 43.8835C1263.67 40.1814 1256.74 37.1114 1247.47 34.6734C1238.19 32.1451 1230 30.881 1222.89 30.881C1214.33 30.881 1208.57 31.4679 1205.6 32.6418C1202.63 33.7253 1201.14 35.3506 1201.14 37.5177C1201.14 39.6848 1203.17 41.4456 1207.22 42.8C1211.36 44.0641 1217.3 44.6962 1225.05 44.6962C1244.13 44.6962 1258 46.9084 1266.64 51.3329C1275.29 55.6671 1279.61 62.3489 1279.61 71.3785C1279.61 84.0198 1275.02 93.1397 1265.83 98.738C1256.65 104.246 1242.74 107 1224.1 107C1214.11 107 1203.93 105.916 1193.58 103.749C1183.22 101.492 1173.9 98.2414 1165.62 93.9975Z" fill="white"/>
<path d="M1345.76 105.646C1346.3 92.3722 1346.57 80.1371 1346.57 68.9405C1346.57 64.9675 1345.58 61.8072 1343.6 59.4595C1341.71 57.1118 1339.28 55.938 1336.31 55.938C1333.16 55.938 1330.46 57.473 1328.21 60.543C1326.05 63.6131 1324.96 67.8118 1324.96 73.1392L1324.83 72.8684C1324.83 87.5865 1325.01 98.5122 1325.37 105.646H1293.09C1293.81 92.643 1294.17 75.0354 1294.17 52.8228C1294.17 30.6101 1293.81 13.0025 1293.09 0H1325.24L1325.37 41.7165L1325.24 48.8949C1327.4 42.5743 1330.59 37.9241 1334.82 34.9443C1339.15 31.8743 1344.01 30.3392 1349.41 30.3392C1354.81 30.3392 1359.49 31.5582 1363.46 33.9962C1367.42 36.3439 1370.39 39.5494 1372.37 43.6127C1374.44 47.6759 1375.48 52.2359 1375.48 57.2924V76.7962C1375.48 88.8055 1375.7 98.4219 1376.15 105.646H1345.76Z" fill="white"/>
<path d="M1442.37 105.646C1442.91 92.3722 1443.18 80.1371 1443.18 68.9405C1443.18 64.9675 1442.19 61.8072 1440.21 59.4595C1438.32 57.1118 1435.89 55.938 1432.92 55.938C1429.77 55.938 1427.06 57.473 1424.81 60.543C1422.65 63.6131 1421.57 67.8118 1421.57 73.1392L1421.44 72.8684C1421.44 87.5865 1421.62 98.5122 1421.98 105.646H1389.7C1390.42 92.643 1390.78 75.0354 1390.78 52.8228C1390.78 30.6101 1390.42 13.0025 1389.7 0H1421.84L1421.98 41.7165L1421.84 48.8949C1424 42.5743 1427.2 37.9241 1431.43 34.9443C1435.75 31.8743 1440.62 30.3392 1446.02 30.3392C1451.42 30.3392 1456.1 31.5582 1460.06 33.9962C1464.03 36.3439 1467 39.5494 1468.98 43.6127C1471.05 47.6759 1472.08 52.2359 1472.08 57.2924V76.7962C1472.08 88.8055 1472.31 98.4219 1472.76 105.646H1442.37Z" fill="white"/>
<path d="M1538.98 105.646C1539.52 92.3722 1539.79 80.1371 1539.79 68.9405C1539.79 64.9675 1538.8 61.8072 1536.82 59.4595C1534.93 57.1118 1532.5 55.938 1529.52 55.938C1526.37 55.938 1523.67 57.473 1521.42 60.543C1519.26 63.6131 1518.18 67.8118 1518.18 73.1392L1518.05 72.8684C1518.05 87.5865 1518.23 98.5122 1518.59 105.646H1486.31C1487.03 92.643 1487.39 75.0354 1487.39 52.8228C1487.39 30.6101 1487.03 13.0025 1486.31 0H1518.45L1518.59 41.7165L1518.45 48.8949C1520.61 42.5743 1523.81 37.9241 1528.04 34.9443C1532.36 31.8743 1537.22 30.3392 1542.63 30.3392C1548.03 30.3392 1552.71 31.5582 1556.67 33.9962C1560.63 36.3439 1563.6 39.5494 1565.58 43.6127C1567.66 47.6759 1568.69 52.2359 1568.69 57.2924V76.7962C1568.69 88.8055 1568.92 98.4219 1569.37 105.646H1538.98Z" fill="white"/>
<path d="M1635.59 105.646C1636.13 92.3722 1636.4 80.1371 1636.4 68.9405C1636.4 64.9675 1635.41 61.8072 1633.43 59.4595C1631.53 57.1118 1629.1 55.938 1626.13 55.938C1622.98 55.938 1620.28 57.473 1618.03 60.543C1615.87 63.6131 1614.79 67.8118 1614.79 73.1392L1614.65 72.8684C1614.65 87.5865 1614.83 98.5122 1615.19 105.646H1582.91C1583.63 92.643 1583.99 75.0354 1583.99 52.8228C1583.99 30.6101 1583.63 13.0025 1582.91 0H1615.06L1615.19 41.7165L1615.06 48.8949C1617.22 42.5743 1620.42 37.9241 1624.65 34.9443C1628.97 31.8743 1633.83 30.3392 1639.23 30.3392C1644.63 30.3392 1649.32 31.5582 1653.28 33.9962C1657.24 36.3439 1660.21 39.5494 1662.19 43.6127C1664.26 47.6759 1665.3 52.2359 1665.3 57.2924V76.7962C1665.3 88.8055 1665.52 98.4219 1665.97 105.646H1635.59Z" fill="white"/>
<path d="M1732.19 105.646C1732.73 92.3722 1733 80.1371 1733 68.9405C1733 64.9675 1732.01 61.8072 1730.03 59.4595C1728.14 57.1118 1725.71 55.938 1722.74 55.938C1719.59 55.938 1716.89 57.473 1714.64 60.543C1712.48 63.6131 1711.4 67.8118 1711.4 73.1392L1711.26 72.8684C1711.26 87.5865 1711.44 98.5122 1711.8 105.646H1679.52C1680.24 92.643 1680.6 75.0354 1680.6 52.8228C1680.6 30.6101 1680.24 13.0025 1679.52 0H1711.67L1711.8 41.7165L1711.67 48.8949C1713.83 42.5743 1717.02 37.9241 1721.25 34.9443C1725.58 31.8743 1730.44 30.3392 1735.84 30.3392C1741.24 30.3392 1745.92 31.5582 1749.89 33.9962C1753.85 36.3439 1756.82 39.5494 1758.8 43.6127C1760.87 47.6759 1761.91 52.2359 1761.91 57.2924V76.7962C1761.91 88.8055 1762.13 98.4219 1762.58 105.646H1732.19Z" fill="white"/>
<path d="M1832.85 72.7329H1774.78V46.3215H1832.85V72.7329Z" fill="white"/>
<path d="M1845.04 93.9975C1848.1 89.3924 1850.62 85.1034 1852.6 81.1304C1854.67 77.1574 1856.65 72.5523 1858.55 67.3152C1864.94 71.0173 1872.37 73.9068 1880.83 75.9835C1889.29 78.0603 1897.17 79.0987 1904.46 79.0987C1911.94 79.0987 1917.2 78.4667 1920.27 77.2025C1923.33 75.8481 1924.86 74.4034 1924.86 72.8684C1924.86 67.3603 1916.48 64.6063 1899.74 64.6063C1881.37 64.6063 1868.04 62.7101 1859.76 58.9177C1851.48 55.035 1847.34 48.8046 1847.34 40.2266C1847.34 28.0367 1852.38 19.0523 1862.46 13.2734C1872.55 7.49451 1885.65 4.60506 1901.76 4.60506C1911.13 4.60506 1920.72 5.82405 1930.53 8.26202C1940.43 10.6097 1949.35 13.8603 1957.27 18.0139C1954.66 23.9734 1951.91 31.2422 1949.03 39.8203C1948.49 41.6262 1948.04 42.9806 1947.68 43.8835C1943.09 40.1814 1936.16 37.1114 1926.88 34.6734C1917.61 32.1451 1909.42 30.881 1902.3 30.881C1893.75 30.881 1887.99 31.4679 1885.02 32.6418C1882.05 33.7253 1880.56 35.3506 1880.56 37.5177C1880.56 39.6848 1882.59 41.4456 1886.64 42.8C1890.78 44.0641 1896.72 44.6962 1904.46 44.6962C1923.55 44.6962 1937.42 46.9084 1946.06 51.3329C1954.71 55.6671 1959.03 62.3489 1959.03 71.3785C1959.03 84.0198 1954.44 93.1397 1945.25 98.738C1936.07 104.246 1922.16 107 1903.52 107C1893.53 107 1883.35 105.916 1873 103.749C1862.64 101.492 1853.32 98.2414 1845.04 93.9975Z" fill="white"/>
<path d="M2025.18 105.646C2025.72 92.3722 2025.99 80.1371 2025.99 68.9405C2025.99 64.9675 2025 61.8072 2023.02 59.4595C2021.13 57.1118 2018.7 55.938 2015.73 55.938C2012.58 55.938 2009.88 57.473 2007.62 60.543C2005.46 63.6131 2004.38 67.8118 2004.38 73.1392L2004.25 72.8684C2004.25 87.5865 2004.43 98.5122 2004.79 105.646H1972.51C1973.23 92.643 1973.59 75.0354 1973.59 52.8228C1973.59 30.6101 1973.23 13.0025 1972.51 0H2004.65L2004.79 41.7165L2004.65 48.8949C2006.81 42.5743 2010.01 37.9241 2014.24 34.9443C2018.56 31.8743 2023.43 30.3392 2028.83 30.3392C2034.23 30.3392 2038.91 31.5582 2042.87 33.9962C2046.84 36.3439 2049.81 39.5494 2051.79 43.6127C2053.86 47.6759 2054.89 52.2359 2054.89 57.2924V76.7962C2054.89 88.8055 2055.12 98.4219 2055.57 105.646H2025.18Z" fill="white"/>
<path d="M2121.79 105.646C2122.33 92.3722 2122.6 80.1371 2122.6 68.9405C2122.6 64.9675 2121.61 61.8072 2119.63 59.4595C2117.74 57.1118 2115.31 55.938 2112.34 55.938C2109.18 55.938 2106.48 57.473 2104.23 60.543C2102.07 63.6131 2100.99 67.8118 2100.99 73.1392L2100.86 72.8684C2100.86 87.5865 2101.04 98.5122 2101.4 105.646H2069.12C2069.84 92.643 2070.2 75.0354 2070.2 52.8228C2070.2 30.6101 2069.84 13.0025 2069.12 0H2101.26L2101.4 41.7165L2101.26 48.8949C2103.42 42.5743 2106.62 37.9241 2110.85 34.9443C2115.17 31.8743 2120.03 30.3392 2125.44 30.3392C2130.84 30.3392 2135.52 31.5582 2139.48 33.9962C2143.44 36.3439 2146.41 39.5494 2148.4 43.6127C2150.47 47.6759 2151.5 52.2359 2151.5 57.2924V76.7962C2151.5 88.8055 2151.73 98.4219 2152.18 105.646H2121.79Z" fill="white"/>
<path d="M2218.4 105.646C2218.94 92.3722 2219.21 80.1371 2219.21 68.9405C2219.21 64.9675 2218.22 61.8072 2216.24 59.4595C2214.35 57.1118 2211.91 55.938 2208.94 55.938C2205.79 55.938 2203.09 57.473 2200.84 60.543C2198.68 63.6131 2197.6 67.8118 2197.6 73.1392L2197.46 72.8684C2197.46 87.5865 2197.64 98.5122 2198 105.646H2165.73C2166.45 92.643 2166.81 75.0354 2166.81 52.8228C2166.81 30.6101 2166.45 13.0025 2165.73 0H2197.87L2198 41.7165L2197.87 48.8949C2200.03 42.5743 2203.23 37.9241 2207.46 34.9443C2211.78 31.8743 2216.64 30.3392 2222.04 30.3392C2227.45 30.3392 2232.13 31.5582 2236.09 33.9962C2240.05 36.3439 2243.02 39.5494 2245 43.6127C2247.07 47.6759 2248.11 52.2359 2248.11 57.2924V76.7962C2248.11 88.8055 2248.33 98.4219 2248.78 105.646H2218.4Z" fill="white"/>
<path d="M2315 105.646C2315.55 92.3722 2315.81 80.1371 2315.81 68.9405C2315.81 64.9675 2314.82 61.8072 2312.84 59.4595C2310.95 57.1118 2308.52 55.938 2305.55 55.938C2302.4 55.938 2299.7 57.473 2297.45 60.543C2295.29 63.6131 2294.21 67.8118 2294.21 73.1392L2294.07 72.8684C2294.07 87.5865 2294.25 98.5122 2294.61 105.646H2262.33C2263.05 92.643 2263.41 75.0354 2263.41 52.8228C2263.41 30.6101 2263.05 13.0025 2262.33 0H2294.48L2294.61 41.7165L2294.48 48.8949C2296.64 42.5743 2299.83 37.9241 2304.07 34.9443C2308.39 31.8743 2313.25 30.3392 2318.65 30.3392C2324.05 30.3392 2328.74 31.5582 2332.7 33.9962C2336.66 36.3439 2339.63 39.5494 2341.61 43.6127C2343.68 47.6759 2344.72 52.2359 2344.72 57.2924V76.7962C2344.72 88.8055 2344.94 98.4219 2345.39 105.646H2315Z" fill="white"/>
<path d="M2411.61 105.646C2412.15 92.3722 2412.42 80.1371 2412.42 68.9405C2412.42 64.9675 2411.43 61.8072 2409.45 59.4595C2407.56 57.1118 2405.13 55.938 2402.16 55.938C2399.01 55.938 2396.31 57.473 2394.05 60.543C2391.89 63.6131 2390.81 67.8118 2390.81 73.1392L2390.68 72.8684C2390.68 87.5865 2390.86 98.5122 2391.22 105.646H2358.94C2359.66 92.643 2360.02 75.0354 2360.02 52.8228C2360.02 30.6101 2359.66 13.0025 2358.94 0H2391.08L2391.22 41.7165L2391.08 48.8949C2393.24 42.5743 2396.44 37.9241 2400.67 34.9443C2404.99 31.8743 2409.86 30.3392 2415.26 30.3392C2420.66 30.3392 2425.34 31.5582 2429.3 33.9962C2433.27 36.3439 2436.24 39.5494 2438.22 43.6127C2440.29 47.6759 2441.32 52.2359 2441.32 57.2924V76.7962C2441.32 88.8055 2441.55 98.4219 2442 105.646H2411.61Z" fill="white"/>
<path d="M86 220.997C89.0613 216.392 91.5823 212.103 93.5632 208.13C95.634 204.157 97.6149 199.552 99.5056 194.315C105.898 198.017 113.326 200.907 121.79 202.984C130.253 205.06 138.132 206.099 145.425 206.099C152.898 206.099 158.165 205.467 161.226 204.203C164.288 202.848 165.818 201.403 165.818 199.868C165.818 194.36 157.445 191.606 140.698 191.606C122.33 191.606 109.005 189.71 100.721 185.918C92.4377 182.035 88.296 175.805 88.296 167.227C88.296 155.037 93.3381 146.052 103.422 140.273C113.506 134.495 126.607 131.605 142.724 131.605C152.088 131.605 161.677 132.824 171.491 135.262C181.395 137.61 190.309 140.86 198.232 145.014C195.621 150.973 192.875 158.242 189.993 166.82C189.453 168.626 189.003 169.981 188.643 170.884C184.051 167.181 177.118 164.111 167.844 161.673C158.57 159.145 150.377 157.881 143.264 157.881C134.71 157.881 128.948 158.468 125.977 159.642C123.005 160.725 121.52 162.351 121.52 164.518C121.52 166.685 123.546 168.446 127.597 169.8C131.739 171.064 137.682 171.696 145.425 171.696C164.513 171.696 178.379 173.908 187.022 178.333C195.666 182.667 199.988 189.349 199.988 198.378C199.988 211.02 195.396 220.14 186.212 225.738C177.028 231.246 163.117 234 144.479 234C134.485 234 124.311 232.916 113.957 230.749C103.602 228.492 94.2835 225.241 86 220.997Z" fill="white"/>
<path d="M266.142 232.646C266.682 219.372 266.952 207.137 266.952 195.941C266.952 191.968 265.962 188.807 263.981 186.459C262.09 184.112 259.659 182.938 256.688 182.938C253.537 182.938 250.836 184.473 248.585 187.543C246.424 190.613 245.343 194.812 245.343 200.139L245.208 199.868C245.208 214.586 245.388 225.512 245.749 232.646H213.47C214.19 219.643 214.551 202.035 214.551 179.823C214.551 157.61 214.19 140.003 213.47 127H245.614L245.749 168.716L245.614 175.895C247.774 169.574 250.971 164.924 255.203 161.944C259.524 158.874 264.386 157.339 269.789 157.339C275.191 157.339 279.873 158.558 283.834 160.996C287.796 163.344 290.767 166.549 292.748 170.613C294.819 174.676 295.855 179.236 295.855 184.292V203.796C295.855 215.805 296.08 225.422 296.53 232.646H266.142Z" fill="white"/>
<path d="M362.75 232.646C363.29 219.372 363.56 207.137 363.56 195.941C363.56 191.968 362.57 188.807 360.589 186.459C358.698 184.112 356.267 182.938 353.296 182.938C350.144 182.938 347.443 184.473 345.192 187.543C343.031 190.613 341.951 194.812 341.951 200.139L341.816 199.868C341.816 214.586 341.996 225.512 342.356 232.646H310.078C310.798 219.643 311.158 202.035 311.158 179.823C311.158 157.61 310.798 140.003 310.078 127H342.221L342.356 168.716L342.221 175.895C344.382 169.574 347.578 164.924 351.81 161.944C356.132 158.874 360.994 157.339 366.396 157.339C371.798 157.339 376.48 158.558 380.442 160.996C384.404 163.344 387.375 166.549 389.356 170.613C391.427 174.676 392.462 179.236 392.462 184.292V203.796C392.462 215.805 392.687 225.422 393.137 232.646H362.75Z" fill="white"/>
<path d="M459.357 232.646C459.897 219.372 460.168 207.137 460.168 195.941C460.168 191.968 459.177 188.807 457.196 186.459C455.306 184.112 452.875 182.938 449.903 182.938C446.752 182.938 444.051 184.473 441.8 187.543C439.639 190.613 438.559 194.812 438.559 200.139L438.423 199.868C438.423 214.586 438.604 225.512 438.964 232.646H406.685C407.406 219.643 407.766 202.035 407.766 179.823C407.766 157.61 407.406 140.003 406.685 127H438.829L438.964 168.716L438.829 175.895C440.99 169.574 444.186 164.924 448.418 161.944C452.739 158.874 457.602 157.339 463.004 157.339C468.406 157.339 473.088 158.558 477.05 160.996C481.011 163.344 483.983 166.549 485.963 170.613C488.034 174.676 489.07 179.236 489.07 184.292V203.796C489.07 215.805 489.295 225.422 489.745 232.646H459.357Z" fill="white"/>
<path d="M555.965 232.646C556.505 219.372 556.775 207.137 556.775 195.941C556.775 191.968 555.785 188.807 553.804 186.459C551.913 184.112 549.482 182.938 546.511 182.938C543.36 182.938 540.658 184.473 538.407 187.543C536.247 190.613 535.166 194.812 535.166 200.139L535.031 199.868C535.031 214.586 535.211 225.512 535.571 232.646H503.293C504.013 219.643 504.373 202.035 504.373 179.823C504.373 157.61 504.013 140.003 503.293 127H535.436L535.571 168.716L535.436 175.895C537.597 169.574 540.793 164.924 545.025 161.944C549.347 158.874 554.209 157.339 559.611 157.339C565.014 157.339 569.696 158.558 573.657 160.996C577.619 163.344 580.59 166.549 582.571 170.613C584.642 174.676 585.677 179.236 585.677 184.292V203.796C585.677 215.805 585.902 225.422 586.352 232.646H555.965Z" fill="white"/>
<path d="M656.624 199.733H598.55V173.322H656.624V199.733Z" fill="white"/>
<path d="M668.811 220.997C671.872 216.392 674.393 212.103 676.374 208.13C678.445 204.157 680.426 199.552 682.316 194.315C688.709 198.017 696.137 200.907 704.601 202.984C713.064 205.06 720.943 206.099 728.236 206.099C735.709 206.099 740.976 205.467 744.037 204.203C747.099 202.848 748.629 201.403 748.629 199.868C748.629 194.36 740.256 191.606 723.509 191.606C705.141 191.606 691.815 189.71 683.532 185.918C675.248 182.035 671.107 175.805 671.107 167.227C671.107 155.037 676.149 146.052 686.233 140.273C696.317 134.495 709.418 131.605 725.535 131.605C734.898 131.605 744.487 132.824 754.302 135.262C764.206 137.61 773.119 140.86 781.043 145.014C778.432 150.973 775.685 158.242 772.804 166.82C772.264 168.626 771.814 169.981 771.454 170.884C766.862 167.181 759.929 164.111 750.655 161.673C741.381 159.145 733.188 157.881 726.075 157.881C717.521 157.881 711.759 158.468 708.788 159.642C705.816 160.725 704.331 162.351 704.331 164.518C704.331 166.685 706.356 168.446 710.408 169.8C714.55 171.064 720.492 171.696 728.236 171.696C747.324 171.696 761.189 173.908 769.833 178.333C778.477 182.667 782.798 189.349 782.798 198.378C782.798 211.02 778.206 220.14 769.023 225.738C759.839 231.246 745.928 234 727.29 234C717.296 234 707.122 232.916 696.768 230.749C686.413 228.492 677.094 225.241 668.811 220.997Z" fill="white"/>
<path d="M848.953 232.646C849.493 219.372 849.763 207.137 849.763 195.941C849.763 191.968 848.773 188.807 846.792 186.459C844.901 184.112 842.47 182.938 839.499 182.938C836.348 182.938 833.646 184.473 831.395 187.543C829.235 190.613 828.154 194.812 828.154 200.139L828.019 199.868C828.019 214.586 828.199 225.512 828.559 232.646H796.281C797.001 219.643 797.361 202.035 797.361 179.823C797.361 157.61 797.001 140.003 796.281 127H828.424L828.559 168.716L828.424 175.895C830.585 169.574 833.782 164.924 838.013 161.944C842.335 158.874 847.197 157.339 852.599 157.339C858.002 157.339 862.684 158.558 866.645 160.996C870.607 163.344 873.578 166.549 875.559 170.613C877.63 174.676 878.665 179.236 878.665 184.292V203.796C878.665 215.805 878.89 225.422 879.341 232.646H848.953Z" fill="white"/>
<path d="M945.56 232.646C946.101 219.372 946.371 207.137 946.371 195.941C946.371 191.968 945.38 188.807 943.4 186.459C941.509 184.112 939.078 182.938 936.106 182.938C932.955 182.938 930.254 184.473 928.003 187.543C925.842 190.613 924.762 194.812 924.762 200.139L924.627 199.868C924.627 214.586 924.807 225.512 925.167 232.646H892.888C893.609 219.643 893.969 202.035 893.969 179.823C893.969 157.61 893.609 140.003 892.888 127H925.032L925.167 168.716L925.032 175.895C927.193 169.574 930.389 164.924 934.621 161.944C938.943 158.874 943.805 157.339 949.207 157.339C954.609 157.339 959.291 158.558 963.253 160.996C967.214 163.344 970.186 166.549 972.167 170.613C974.237 174.676 975.273 179.236 975.273 184.292V203.796C975.273 215.805 975.498 225.422 975.948 232.646H945.56Z" fill="white"/>
<path d="M1042.17 232.646C1042.71 219.372 1042.98 207.137 1042.98 195.941C1042.98 191.968 1041.99 188.807 1040.01 186.459C1038.12 184.112 1035.69 182.938 1032.71 182.938C1029.56 182.938 1026.86 184.473 1024.61 187.543C1022.45 190.613 1021.37 194.812 1021.37 200.139L1021.23 199.868C1021.23 214.586 1021.41 225.512 1021.77 232.646H989.496C990.216 219.643 990.576 202.035 990.576 179.823C990.576 157.61 990.216 140.003 989.496 127H1021.64L1021.77 168.716L1021.64 175.895C1023.8 169.574 1027 164.924 1031.23 161.944C1035.55 158.874 1040.41 157.339 1045.81 157.339C1051.22 157.339 1055.9 158.558 1059.86 160.996C1063.82 163.344 1066.79 166.549 1068.77 170.613C1070.84 174.676 1071.88 179.236 1071.88 184.292V203.796C1071.88 215.805 1072.11 225.422 1072.56 232.646H1042.17Z" fill="white"/>
<path d="M1138.78 232.646C1139.32 219.372 1139.59 207.137 1139.59 195.941C1139.59 191.968 1138.6 188.807 1136.61 186.459C1134.72 184.112 1132.29 182.938 1129.32 182.938C1126.17 182.938 1123.47 184.473 1121.22 187.543C1119.06 190.613 1117.98 194.812 1117.98 200.139L1117.84 199.868C1117.84 214.586 1118.02 225.512 1118.38 232.646H1086.1C1086.82 219.643 1087.18 202.035 1087.18 179.823C1087.18 157.61 1086.82 140.003 1086.1 127H1118.25L1118.38 168.716L1118.25 175.895C1120.41 169.574 1123.6 164.924 1127.84 161.944C1132.16 158.874 1137.02 157.339 1142.42 157.339C1147.82 157.339 1152.51 158.558 1156.47 160.996C1160.43 163.344 1163.4 166.549 1165.38 170.613C1167.45 174.676 1168.49 179.236 1168.49 184.292V203.796C1168.49 215.805 1168.71 225.422 1169.16 232.646H1138.78Z" fill="white"/>
<path d="M1239.43 199.733H1181.36V173.322H1239.43V199.733Z" fill="white"/>
<path d="M1251.62 220.997C1254.68 216.392 1257.2 212.103 1259.18 208.13C1261.26 204.157 1263.24 199.552 1265.13 194.315C1271.52 198.017 1278.95 200.907 1287.41 202.984C1295.88 205.06 1303.75 206.099 1311.05 206.099C1318.52 206.099 1323.79 205.467 1326.85 204.203C1329.91 202.848 1331.44 201.403 1331.44 199.868C1331.44 194.36 1323.07 191.606 1306.32 191.606C1287.95 191.606 1274.63 189.71 1266.34 185.918C1258.06 182.035 1253.92 175.805 1253.92 167.227C1253.92 155.037 1258.96 146.052 1269.04 140.273C1279.13 134.495 1292.23 131.605 1308.35 131.605C1317.71 131.605 1327.3 132.824 1337.11 135.262C1347.02 137.61 1355.93 140.86 1363.85 145.014C1361.24 150.973 1358.5 158.242 1355.61 166.82C1355.07 168.626 1354.62 169.981 1354.26 170.884C1349.67 167.181 1342.74 164.111 1333.47 161.673C1324.19 159.145 1316 157.881 1308.89 157.881C1300.33 157.881 1294.57 158.468 1291.6 159.642C1288.63 160.725 1287.14 162.351 1287.14 164.518C1287.14 166.685 1289.17 168.446 1293.22 169.8C1297.36 171.064 1303.3 171.696 1311.05 171.696C1330.13 171.696 1344 173.908 1352.64 178.333C1361.29 182.667 1365.61 189.349 1365.61 198.378C1365.61 211.02 1361.02 220.14 1351.83 225.738C1342.65 231.246 1328.74 234 1310.1 234C1300.11 234 1289.93 232.916 1279.58 230.749C1269.22 228.492 1259.9 225.241 1251.62 220.997Z" fill="white"/>
<path d="M1431.76 232.646C1432.3 219.372 1432.57 207.137 1432.57 195.941C1432.57 191.968 1431.58 188.807 1429.6 186.459C1427.71 184.112 1425.28 182.938 1422.31 182.938C1419.16 182.938 1416.46 184.473 1414.21 187.543C1412.05 190.613 1410.96 194.812 1410.96 200.139L1410.83 199.868C1410.83 214.586 1411.01 225.512 1411.37 232.646H1379.09C1379.81 219.643 1380.17 202.035 1380.17 179.823C1380.17 157.61 1379.81 140.003 1379.09 127H1411.24L1411.37 168.716L1411.24 175.895C1413.4 169.574 1416.59 164.924 1420.82 161.944C1425.15 158.874 1430.01 157.339 1435.41 157.339C1440.81 157.339 1445.49 158.558 1449.46 160.996C1453.42 163.344 1456.39 166.549 1458.37 170.613C1460.44 174.676 1461.48 179.236 1461.48 184.292V203.796C1461.48 215.805 1461.7 225.422 1462.15 232.646H1431.76Z" fill="white"/>
<path d="M1528.37 232.646C1528.91 219.372 1529.18 207.137 1529.18 195.941C1529.18 191.968 1528.19 188.807 1526.21 186.459C1524.32 184.112 1521.89 182.938 1518.92 182.938C1515.77 182.938 1513.06 184.473 1510.81 187.543C1508.65 190.613 1507.57 194.812 1507.57 200.139L1507.44 199.868C1507.44 214.586 1507.62 225.512 1507.98 232.646H1475.7C1476.42 219.643 1476.78 202.035 1476.78 179.823C1476.78 157.61 1476.42 140.003 1475.7 127H1507.84L1507.98 168.716L1507.84 175.895C1510 169.574 1513.2 164.924 1517.43 161.944C1521.75 158.874 1526.62 157.339 1532.02 157.339C1537.42 157.339 1542.1 158.558 1546.06 160.996C1550.03 163.344 1553 166.549 1554.98 170.613C1557.05 174.676 1558.08 179.236 1558.08 184.292V203.796C1558.08 215.805 1558.31 225.422 1558.76 232.646H1528.37Z" fill="white"/>
<path d="M1624.98 232.646C1625.52 219.372 1625.79 207.137 1625.79 195.941C1625.79 191.968 1624.8 188.807 1622.82 186.459C1620.93 184.112 1618.5 182.938 1615.52 182.938C1612.37 182.938 1609.67 184.473 1607.42 187.543C1605.26 190.613 1604.18 194.812 1604.18 200.139L1604.05 199.868C1604.05 214.586 1604.23 225.512 1604.59 232.646H1572.31C1573.03 219.643 1573.39 202.035 1573.39 179.823C1573.39 157.61 1573.03 140.003 1572.31 127H1604.45L1604.59 168.716L1604.45 175.895C1606.61 169.574 1609.81 164.924 1614.04 161.944C1618.36 158.874 1623.22 157.339 1628.63 157.339C1634.03 157.339 1638.71 158.558 1642.67 160.996C1646.63 163.344 1649.6 166.549 1651.58 170.613C1653.66 174.676 1654.69 179.236 1654.69 184.292V203.796C1654.69 215.805 1654.92 225.422 1655.37 232.646H1624.98Z" fill="white"/>
<path d="M1721.59 232.646C1722.13 219.372 1722.4 207.137 1722.4 195.941C1722.4 191.968 1721.41 188.807 1719.43 186.459C1717.53 184.112 1715.1 182.938 1712.13 182.938C1708.98 182.938 1706.28 184.473 1704.03 187.543C1701.87 190.613 1700.79 194.812 1700.79 200.139L1700.65 199.868C1700.65 214.586 1700.83 225.512 1701.19 232.646H1668.91C1669.63 219.643 1669.99 202.035 1669.99 179.823C1669.99 157.61 1669.63 140.003 1668.91 127H1701.06L1701.19 168.716L1701.06 175.895C1703.22 169.574 1706.42 164.924 1710.65 161.944C1714.97 158.874 1719.83 157.339 1725.23 157.339C1730.63 157.339 1735.32 158.558 1739.28 160.996C1743.24 163.344 1746.21 166.549 1748.19 170.613C1750.26 174.676 1751.3 179.236 1751.3 184.292V203.796C1751.3 215.805 1751.52 225.422 1751.97 232.646H1721.59Z" fill="white"/>
<path d="M1818.19 232.646C1818.73 219.372 1819 207.137 1819 195.941C1819 191.968 1818.01 188.807 1816.03 186.459C1814.14 184.112 1811.71 182.938 1808.74 182.938C1805.59 182.938 1802.89 184.473 1800.64 187.543C1798.48 190.613 1797.4 194.812 1797.4 200.139L1797.26 199.868C1797.26 214.586 1797.44 225.512 1797.8 232.646H1765.52C1766.24 219.643 1766.6 202.035 1766.6 179.823C1766.6 157.61 1766.24 140.003 1765.52 127H1797.67L1797.8 168.716L1797.67 175.895C1799.83 169.574 1803.02 164.924 1807.25 161.944C1811.58 158.874 1816.44 157.339 1821.84 157.339C1827.24 157.339 1831.92 158.558 1835.89 160.996C1839.85 163.344 1842.82 166.549 1844.8 170.613C1846.87 174.676 1847.91 179.236 1847.91 184.292V203.796C1847.91 215.805 1848.13 225.422 1848.58 232.646H1818.19Z" fill="white"/>
<path d="M1918.85 199.733H1860.78V173.322H1918.85V199.733Z" fill="white"/>
<path d="M1931.04 220.997C1934.1 216.392 1936.62 212.103 1938.6 208.13C1940.67 204.157 1942.65 199.552 1944.55 194.315C1950.94 198.017 1958.37 200.907 1966.83 202.984C1975.29 205.06 1983.17 206.099 1990.46 206.099C1997.94 206.099 2003.2 205.467 2006.27 204.203C2009.33 202.848 2010.86 201.403 2010.86 199.868C2010.86 194.36 2002.48 191.606 1985.74 191.606C1967.37 191.606 1954.04 189.71 1945.76 185.918C1937.48 182.035 1933.34 175.805 1933.34 167.227C1933.34 155.037 1938.38 146.052 1948.46 140.273C1958.55 134.495 1971.65 131.605 1987.76 131.605C1997.13 131.605 2006.72 132.824 2016.53 135.262C2026.43 137.61 2035.35 140.86 2043.27 145.014C2040.66 150.973 2037.91 158.242 2035.03 166.82C2034.49 168.626 2034.04 169.981 2033.68 170.884C2029.09 167.181 2022.16 164.111 2012.88 161.673C2003.61 159.145 1995.42 157.881 1988.3 157.881C1979.75 157.881 1973.99 158.468 1971.02 159.642C1968.05 160.725 1966.56 162.351 1966.56 164.518C1966.56 166.685 1968.59 168.446 1972.64 169.8C1976.78 171.064 1982.72 171.696 1990.46 171.696C2009.55 171.696 2023.42 173.908 2032.06 178.333C2040.71 182.667 2045.03 189.349 2045.03 198.378C2045.03 211.02 2040.44 220.14 2031.25 225.738C2022.07 231.246 2008.16 234 1989.52 234C1979.53 234 1969.35 232.916 1959 230.749C1948.64 228.492 1939.32 225.241 1931.04 220.997Z" fill="white"/>
<path d="M2111.18 232.646C2111.72 219.372 2111.99 207.137 2111.99 195.941C2111.99 191.968 2111 188.807 2109.02 186.459C2107.13 184.112 2104.7 182.938 2101.73 182.938C2098.58 182.938 2095.88 184.473 2093.62 187.543C2091.46 190.613 2090.38 194.812 2090.38 200.139L2090.25 199.868C2090.25 214.586 2090.43 225.512 2090.79 232.646H2058.51C2059.23 219.643 2059.59 202.035 2059.59 179.823C2059.59 157.61 2059.23 140.003 2058.51 127H2090.65L2090.79 168.716L2090.65 175.895C2092.81 169.574 2096.01 164.924 2100.24 161.944C2104.56 158.874 2109.43 157.339 2114.83 157.339C2120.23 157.339 2124.91 158.558 2128.87 160.996C2132.84 163.344 2135.81 166.549 2137.79 170.613C2139.86 174.676 2140.89 179.236 2140.89 184.292V203.796C2140.89 215.805 2141.12 225.422 2141.57 232.646H2111.18Z" fill="white"/>
<path d="M2207.79 232.646C2208.33 219.372 2208.6 207.137 2208.6 195.941C2208.6 191.968 2207.61 188.807 2205.63 186.459C2203.74 184.112 2201.31 182.938 2198.34 182.938C2195.18 182.938 2192.48 184.473 2190.23 187.543C2188.07 190.613 2186.99 194.812 2186.99 200.139L2186.86 199.868C2186.86 214.586 2187.04 225.512 2187.4 232.646H2155.12C2155.84 219.643 2156.2 202.035 2156.2 179.823C2156.2 157.61 2155.84 140.003 2155.12 127H2187.26L2187.4 168.716L2187.26 175.895C2189.42 169.574 2192.62 164.924 2196.85 161.944C2201.17 158.874 2206.03 157.339 2211.44 157.339C2216.84 157.339 2221.52 158.558 2225.48 160.996C2229.44 163.344 2232.41 166.549 2234.4 170.613C2236.47 174.676 2237.5 179.236 2237.5 184.292V203.796C2237.5 215.805 2237.73 225.422 2238.18 232.646H2207.79Z" fill="white"/>
<path d="M2304.4 232.646C2304.94 219.372 2305.21 207.137 2305.21 195.941C2305.21 191.968 2304.22 188.807 2302.24 186.459C2300.35 184.112 2297.91 182.938 2294.94 182.938C2291.79 182.938 2289.09 184.473 2286.84 187.543C2284.68 190.613 2283.6 194.812 2283.6 200.139L2283.46 199.868C2283.46 214.586 2283.64 225.512 2284 232.646H2251.73C2252.45 219.643 2252.81 202.035 2252.81 179.823C2252.81 157.61 2252.45 140.003 2251.73 127H2283.87L2284 168.716L2283.87 175.895C2286.03 169.574 2289.23 164.924 2293.46 161.944C2297.78 158.874 2302.64 157.339 2308.04 157.339C2313.45 157.339 2318.13 158.558 2322.09 160.996C2326.05 163.344 2329.02 166.549 2331 170.613C2333.07 174.676 2334.11 179.236 2334.11 184.292V203.796C2334.11 215.805 2334.33 225.422 2334.78 232.646H2304.4Z" fill="white"/>
<path d="M2401 232.646C2401.55 219.372 2401.81 207.137 2401.81 195.941C2401.81 191.968 2400.82 188.807 2398.84 186.459C2396.95 184.112 2394.52 182.938 2391.55 182.938C2388.4 182.938 2385.7 184.473 2383.45 187.543C2381.29 190.613 2380.21 194.812 2380.21 200.139L2380.07 199.868C2380.07 214.586 2380.25 225.512 2380.61 232.646H2348.33C2349.05 219.643 2349.41 202.035 2349.41 179.823C2349.41 157.61 2349.05 140.003 2348.33 127H2380.48L2380.61 168.716L2380.48 175.895C2382.64 169.574 2385.83 164.924 2390.07 161.944C2394.39 158.874 2399.25 157.339 2404.65 157.339C2410.05 157.339 2414.74 158.558 2418.7 160.996C2422.66 163.344 2425.63 166.549 2427.61 170.613C2429.68 174.676 2430.72 179.236 2430.72 184.292V203.796C2430.72 215.805 2430.94 225.422 2431.39 232.646H2401Z" fill="white"/>
<path d="M2497.61 232.646C2498.15 219.372 2498.42 207.137 2498.42 195.941C2498.42 191.968 2497.43 188.807 2495.45 186.459C2493.56 184.112 2491.13 182.938 2488.16 182.938C2485.01 182.938 2482.31 184.473 2480.05 187.543C2477.89 190.613 2476.81 194.812 2476.81 200.139L2476.68 199.868C2476.68 214.586 2476.86 225.512 2477.22 232.646H2444.94C2445.66 219.643 2446.02 202.035 2446.02 179.823C2446.02 157.61 2445.66 140.003 2444.94 127H2477.08L2477.22 168.716L2477.08 175.895C2479.24 169.574 2482.44 164.924 2486.67 161.944C2490.99 158.874 2495.86 157.339 2501.26 157.339C2506.66 157.339 2511.34 158.558 2515.3 160.996C2519.27 163.344 2522.24 166.549 2524.22 170.613C2526.29 174.676 2527.32 179.236 2527.32 184.292V203.796C2527.32 215.805 2527.55 225.422 2528 232.646H2497.61Z" fill="white"/>
</svg>
