<svg width="768" height="160" viewBox="0 0 768 160" fill="none" xmlns="http://www.w3.org/2000/svg">
<path d="M-387 140.557C-382.416 133.671 -378.64 127.257 -375.674 121.316C-372.573 115.376 -369.606 108.489 -366.775 100.658C-357.201 106.194 -346.078 110.515 -333.403 113.62C-320.728 116.726 -308.93 118.278 -298.009 118.278C-286.817 118.278 -278.93 117.333 -274.345 115.443C-269.761 113.418 -267.469 111.257 -267.469 108.962C-267.469 100.726 -280.008 96.6076 -305.088 96.6076C-332.594 96.6076 -352.55 93.7722 -364.954 88.1013C-377.359 82.2954 -383.562 72.9789 -383.562 60.1519C-383.562 41.9241 -376.011 28.4895 -360.909 19.8481C-345.808 11.2067 -326.189 6.88607 -302.054 6.88607C-288.031 6.88607 -273.671 8.70886 -258.974 12.3544C-244.142 15.865 -230.793 20.7257 -218.928 26.9367C-222.838 35.8481 -226.951 46.7173 -231.265 59.5443C-232.074 62.2447 -232.748 64.27 -233.288 65.6203C-240.164 60.0844 -250.547 55.4937 -264.435 51.8481C-278.323 48.0675 -290.593 46.1772 -301.245 46.1772C-314.054 46.1772 -322.684 47.0549 -327.133 48.8101C-331.583 50.4304 -333.807 52.8608 -333.807 56.1013C-333.807 59.3418 -330.774 61.9747 -324.706 64C-318.504 65.8903 -309.605 66.8354 -298.009 66.8354C-269.424 66.8354 -248.659 70.1435 -235.715 76.7595C-222.771 83.2405 -216.299 93.2321 -216.299 106.734C-216.299 125.637 -223.175 139.274 -236.928 147.646C-250.682 155.882 -271.514 160 -299.425 160C-314.391 160 -329.628 158.38 -345.134 155.139C-360.64 151.764 -374.595 146.903 -387 140.557Z" fill="white"/>
<path d="M-117.229 157.975C-116.42 138.127 -116.016 119.831 -116.016 103.089C-116.016 97.1477 -117.499 92.4219 -120.465 88.9114C-123.297 85.4009 -126.938 83.6456 -131.387 83.6456C-136.106 83.6456 -140.151 85.9409 -143.522 90.5317C-146.758 95.1224 -148.376 101.401 -148.376 109.367L-148.579 108.962C-148.579 130.97 -148.309 147.308 -147.77 157.975H-196.108C-195.029 138.532 -194.49 112.203 -194.49 78.9873C-194.49 45.7721 -195.029 19.443 -196.108 0H-147.972L-147.77 62.3797L-147.972 73.1139C-144.736 63.6624 -139.949 56.7089 -133.612 52.2532C-127.14 47.6624 -119.859 45.3671 -111.769 45.3671C-103.679 45.3671 -96.6671 47.1899 -90.7343 50.8354C-84.8016 54.346 -80.352 59.1392 -77.3857 65.2152C-74.2844 71.2911 -72.7338 78.1097 -72.7338 85.6709V114.835C-72.7338 132.793 -72.3967 147.173 -71.7226 157.975H-117.229Z" fill="white"/>
<path d="M27.4445 157.975C28.2535 138.127 28.6581 119.831 28.6581 103.089C28.6581 97.1477 27.1749 92.4219 24.2085 88.9114C21.377 85.4009 17.7364 83.6456 13.2868 83.6456C8.5676 83.6456 4.52252 85.9409 1.15164 90.5317C-2.0844 95.1224 -3.70239 101.401 -3.70239 109.367L-3.90466 108.962C-3.90466 130.97 -3.63501 147.308 -3.09567 157.975H-51.4341C-50.3554 138.532 -49.8161 112.203 -49.8161 78.9873C-49.8161 45.7721 -50.3554 19.443 -51.4341 0H-3.29791L-3.09567 62.3797L-3.29791 73.1139C-0.0618684 63.6624 4.72479 56.7089 11.062 52.2532C17.5341 47.6624 24.8153 45.3671 32.9054 45.3671C40.9955 45.3671 48.0069 47.1899 53.9397 50.8354C59.8724 54.346 64.322 59.1392 67.2883 65.2152C70.3895 71.2911 71.9401 78.1097 71.9401 85.6709V114.835C71.9401 132.793 72.2772 147.173 72.9514 157.975H27.4445Z" fill="white"/>
<path d="M172.118 157.975C172.927 138.127 173.332 119.831 173.332 103.089C173.332 97.1477 171.849 92.4219 168.882 88.9114C166.051 85.4009 162.41 83.6456 157.961 83.6456C153.242 83.6456 149.197 85.9409 145.826 90.5317C142.59 95.1224 140.972 101.401 140.972 109.367L140.769 108.962C140.769 130.97 141.039 147.308 141.578 157.975H93.2399C94.3186 138.532 94.8579 112.203 94.8579 78.9873C94.8579 45.7721 94.3186 19.443 93.2399 0H141.376L141.578 62.3797L141.376 73.1139C144.612 63.6624 149.399 56.7089 155.736 52.2532C162.208 47.6624 169.489 45.3671 177.579 45.3671C185.67 45.3671 192.681 47.1899 198.614 50.8354C204.546 54.346 208.996 59.1392 211.962 65.2152C215.064 71.2911 216.614 78.1097 216.614 85.6709V114.835C216.614 132.793 216.951 147.173 217.625 157.975H172.118Z" fill="white"/>
<path d="M316.793 157.975C317.602 138.127 318.006 119.831 318.006 103.089C318.006 97.1477 316.523 92.4219 313.556 88.9114C310.725 85.4009 307.084 83.6456 302.635 83.6456C297.916 83.6456 293.871 85.9409 290.5 90.5317C287.264 95.1224 285.646 101.401 285.646 109.367L285.443 108.962C285.443 130.97 285.713 147.308 286.252 157.975H237.914C238.993 138.532 239.532 112.203 239.532 78.9873C239.532 45.7721 238.993 19.443 237.914 0H286.05L286.252 62.3797L286.05 73.1139C289.286 63.6624 294.073 56.7089 300.41 52.2532C306.882 47.6624 314.163 45.3671 322.253 45.3671C330.343 45.3671 337.355 47.1899 343.288 50.8354C349.22 54.346 353.67 59.1392 356.636 65.2152C359.738 71.2911 361.288 78.1097 361.288 85.6709V114.835C361.288 132.793 361.625 147.173 362.299 157.975H316.793Z" fill="white"/>
<path d="M467.534 108.759H380.565V69.2658H467.534V108.759Z" fill="white"/>
<path d="M485.784 140.557C490.369 133.671 494.144 127.257 497.11 121.316C500.212 115.376 503.178 108.489 506.01 100.658C515.583 106.194 526.707 110.515 539.381 113.62C552.056 116.726 563.854 118.278 574.776 118.278C585.967 118.278 593.855 117.333 598.439 115.443C603.023 113.418 605.316 111.257 605.316 108.962C605.316 100.726 592.776 96.6076 567.697 96.6076C540.19 96.6076 520.235 93.7722 507.83 88.1013C495.425 82.2954 489.223 72.9789 489.223 60.1519C489.223 41.9241 496.773 28.4895 511.875 19.8481C526.976 11.2067 546.595 6.88607 570.73 6.88607C584.753 6.88607 599.113 8.70886 613.81 12.3544C628.642 15.865 641.991 20.7257 653.856 26.9367C649.946 35.8481 645.834 46.7173 641.519 59.5443C640.71 62.2447 640.036 64.27 639.496 65.6203C632.62 60.0844 622.237 55.4937 608.349 51.8481C594.461 48.0675 582.191 46.1772 571.539 46.1772C558.73 46.1772 550.101 47.0549 545.651 48.8101C541.202 50.4304 538.977 52.8608 538.977 56.1013C538.977 59.3418 542.011 61.9747 548.078 64C554.281 65.8903 563.18 66.8354 574.776 66.8354C603.361 66.8354 624.125 70.1435 637.069 76.7595C650.014 83.2405 656.486 93.2321 656.486 106.734C656.486 125.637 649.609 139.274 635.856 147.646C622.103 155.882 601.271 160 573.36 160C558.393 160 543.157 158.38 527.651 155.139C512.145 151.764 498.189 146.903 485.784 140.557Z" fill="white"/>
<path d="M755.555 157.975C756.364 138.127 756.768 119.831 756.768 103.089C756.768 97.1477 755.285 92.4219 752.319 88.9114C749.487 85.4009 745.847 83.6456 741.397 83.6456C736.678 83.6456 732.633 85.9409 729.262 90.5317C726.026 95.1224 724.408 101.401 724.408 109.367L724.206 108.962C724.206 130.97 724.475 147.308 725.015 157.975H676.676C677.755 138.532 678.294 112.203 678.294 78.9873C678.294 45.7721 677.755 19.443 676.676 0H724.812L725.015 62.3797L724.812 73.1139C728.048 63.6624 732.835 56.7089 739.172 52.2532C745.644 47.6624 752.926 45.3671 761.016 45.3671C769.106 45.3671 776.117 47.1899 782.05 50.8354C787.983 54.346 792.432 59.1392 795.399 65.2152C798.5 71.2911 800.05 78.1097 800.05 85.6709V114.835C800.05 132.793 800.387 147.173 801.062 157.975H755.555Z" fill="white"/>
<path d="M900.229 157.975C901.038 138.127 901.442 119.831 901.442 103.089C901.442 97.1477 899.959 92.4219 896.993 88.9114C894.161 85.4009 890.521 83.6456 886.071 83.6456C881.352 83.6456 877.307 85.9409 873.936 90.5317C870.7 95.1224 869.082 101.401 869.082 109.367L868.88 108.962C868.88 130.97 869.149 147.308 869.689 157.975H821.35C822.429 138.532 822.968 112.203 822.968 78.9873C822.968 45.7721 822.429 19.443 821.35 0H869.486L869.689 62.3797L869.486 73.1139C872.722 63.6624 877.509 56.7089 883.846 52.2532C890.318 47.6624 897.6 45.3671 905.69 45.3671C913.78 45.3671 920.791 47.1899 926.724 50.8354C932.657 54.346 937.106 59.1392 940.073 65.2152C943.174 71.2911 944.724 78.1097 944.724 85.6709V114.835C944.724 132.793 945.062 147.173 945.736 157.975H900.229Z" fill="white"/>
<path d="M1044.9 157.975C1045.71 138.127 1046.12 119.831 1046.12 103.089C1046.12 97.1477 1044.63 92.4219 1041.67 88.9114C1038.84 85.4009 1035.19 83.6456 1030.75 83.6456C1026.03 83.6456 1021.98 85.9409 1018.61 90.5317C1015.37 95.1224 1013.76 101.401 1013.76 109.367L1013.55 108.962C1013.55 130.97 1013.82 147.308 1014.36 157.975H966.024C967.103 138.532 967.642 112.203 967.642 78.9873C967.642 45.7721 967.103 19.443 966.024 0H1014.16L1014.36 62.3797L1014.16 73.1139C1017.4 63.6624 1022.18 56.7089 1028.52 52.2532C1034.99 47.6624 1042.27 45.3671 1050.36 45.3671C1058.45 45.3671 1065.47 47.1899 1071.4 50.8354C1077.33 54.346 1081.78 59.1392 1084.75 65.2152C1087.85 71.2911 1089.4 78.1097 1089.4 85.6709V114.835C1089.4 132.793 1089.74 147.173 1090.41 157.975H1044.9Z" fill="white"/>
<path d="M1189.58 157.975C1190.39 138.127 1190.79 119.831 1190.79 103.089C1190.79 97.1477 1189.31 92.4219 1186.34 88.9114C1183.51 85.4009 1179.87 83.6456 1175.42 83.6456C1170.7 83.6456 1166.65 85.9409 1163.28 90.5317C1160.05 95.1224 1158.43 101.401 1158.43 109.367L1158.23 108.962C1158.23 130.97 1158.5 147.308 1159.04 157.975H1110.7C1111.78 138.532 1112.32 112.203 1112.32 78.9873C1112.32 45.7721 1111.78 19.443 1110.7 0H1158.83L1159.04 62.3797L1158.83 73.1139C1162.07 63.6624 1166.86 56.7089 1173.19 52.2532C1179.67 47.6624 1186.95 45.3671 1195.04 45.3671C1203.13 45.3671 1210.14 47.1899 1216.07 50.8354C1222 54.346 1226.45 59.1392 1229.42 65.2152C1232.52 71.2911 1234.07 78.1097 1234.07 85.6709V114.835C1234.07 132.793 1234.41 147.173 1235.08 157.975H1189.58Z" fill="white"/>
<path d="M1340.32 108.759H1253.35V69.2658H1340.32V108.759Z" fill="white"/>
<path d="M1358.57 140.557C1363.15 133.671 1366.93 127.257 1369.89 121.316C1373 115.376 1375.96 108.489 1378.79 100.658C1388.37 106.194 1399.49 110.515 1412.17 113.62C1424.84 116.726 1436.64 118.278 1447.56 118.278C1458.75 118.278 1466.64 117.333 1471.22 115.443C1475.81 113.418 1478.1 111.257 1478.1 108.962C1478.1 100.726 1465.56 96.6076 1440.48 96.6076C1412.97 96.6076 1393.02 93.7722 1380.61 88.1013C1368.21 82.2954 1362.01 72.9789 1362.01 60.1519C1362.01 41.9241 1369.56 28.4895 1384.66 19.8481C1399.76 11.2067 1419.38 6.88607 1443.51 6.88607C1457.54 6.88607 1471.9 8.70886 1486.59 12.3544C1501.43 15.865 1514.78 20.7257 1526.64 26.9367C1522.73 35.8481 1518.62 46.7173 1514.3 59.5443C1513.49 62.2447 1512.82 64.27 1512.28 65.6203C1505.4 60.0844 1495.02 55.4937 1481.13 51.8481C1467.25 48.0675 1454.98 46.1772 1444.32 46.1772C1431.51 46.1772 1422.88 47.0549 1418.44 48.8101C1413.99 50.4304 1411.76 52.8608 1411.76 56.1013C1411.76 59.3418 1414.79 61.9747 1420.86 64C1427.06 65.8903 1435.96 66.8354 1447.56 66.8354C1476.14 66.8354 1496.91 70.1435 1509.85 76.7595C1522.8 83.2405 1529.27 93.2321 1529.27 106.734C1529.27 125.637 1522.39 139.274 1508.64 147.646C1494.89 155.882 1474.05 160 1446.14 160C1431.18 160 1415.94 158.38 1400.43 155.139C1384.93 151.764 1370.97 146.903 1358.57 140.557Z" fill="white"/>
<path d="M1628.34 157.975C1629.15 138.127 1629.55 119.831 1629.55 103.089C1629.55 97.1477 1628.07 92.4219 1625.1 88.9114C1622.27 85.4009 1618.63 83.6456 1614.18 83.6456C1609.46 83.6456 1605.42 85.9409 1602.05 90.5317C1598.81 95.1224 1597.19 101.401 1597.19 109.367L1596.99 108.962C1596.99 130.97 1597.26 147.308 1597.8 157.975H1549.46C1550.54 138.532 1551.08 112.203 1551.08 78.9873C1551.08 45.7721 1550.54 19.443 1549.46 0H1597.6L1597.8 62.3797L1597.6 73.1139C1600.83 63.6624 1605.62 56.7089 1611.96 52.2532C1618.43 47.6624 1625.71 45.3671 1633.8 45.3671C1641.89 45.3671 1648.9 47.1899 1654.83 50.8354C1660.77 54.346 1665.22 59.1392 1668.18 65.2152C1671.28 71.2911 1672.83 78.1097 1672.83 85.6709V114.835C1672.83 132.793 1673.17 147.173 1673.85 157.975H1628.34Z" fill="white"/>
<path d="M1773.01 157.975C1773.82 138.127 1774.23 119.831 1774.23 103.089C1774.23 97.1477 1772.74 92.4219 1769.78 88.9114C1766.95 85.4009 1763.3 83.6456 1758.86 83.6456C1754.14 83.6456 1750.09 85.9409 1746.72 90.5317C1743.48 95.1224 1741.87 101.401 1741.87 109.367L1741.66 108.962C1741.66 130.97 1741.93 147.308 1742.47 157.975H1694.13C1695.21 138.532 1695.75 112.203 1695.75 78.9873C1695.75 45.7721 1695.21 19.443 1694.13 0H1742.27L1742.47 62.3797L1742.27 73.1139C1745.51 63.6624 1750.29 56.7089 1756.63 52.2532C1763.1 47.6624 1770.38 45.3671 1778.47 45.3671C1786.56 45.3671 1793.58 47.1899 1799.51 50.8354C1805.44 54.346 1809.89 59.1392 1812.86 65.2152C1815.96 71.2911 1817.51 78.1097 1817.51 85.6709V114.835C1817.51 132.793 1817.85 147.173 1818.52 157.975H1773.01Z" fill="white"/>
<path d="M1917.69 157.975C1918.5 138.127 1918.9 119.831 1918.9 103.089C1918.9 97.1477 1917.42 92.4219 1914.45 88.9114C1911.62 85.4009 1907.98 83.6456 1903.53 83.6456C1898.81 83.6456 1894.76 85.9409 1891.39 90.5317C1888.16 95.1224 1886.54 101.401 1886.54 109.367L1886.34 108.962C1886.34 130.97 1886.61 147.308 1887.15 157.975H1838.81C1839.89 138.532 1840.43 112.203 1840.43 78.9873C1840.43 45.7721 1839.89 19.443 1838.81 0H1886.94L1887.15 62.3797L1886.94 73.1139C1890.18 63.6624 1894.97 56.7089 1901.3 52.2532C1907.78 47.6624 1915.06 45.3671 1923.15 45.3671C1931.24 45.3671 1938.25 47.1899 1944.18 50.8354C1950.11 54.346 1954.56 59.1392 1957.53 65.2152C1960.63 71.2911 1962.18 78.1097 1962.18 85.6709V114.835C1962.18 132.793 1962.52 147.173 1963.19 157.975H1917.69Z" fill="white"/>
<path d="M2062.36 157.975C2063.17 138.127 2063.57 119.831 2063.57 103.089C2063.57 97.1477 2062.09 92.4219 2059.12 88.9114C2056.29 85.4009 2052.65 83.6456 2048.2 83.6456C2043.48 83.6456 2039.44 85.9409 2036.07 90.5317C2032.83 95.1224 2031.21 101.401 2031.21 109.367L2031.01 108.962C2031.01 130.97 2031.28 147.308 2031.82 157.975H1983.48C1984.56 138.532 1985.1 112.203 1985.1 78.9873C1985.1 45.7721 1984.56 19.443 1983.48 0H2031.62L2031.82 62.3797L2031.62 73.1139C2034.85 63.6624 2039.64 56.7089 2045.98 52.2532C2052.45 47.6624 2059.73 45.3671 2067.82 45.3671C2075.91 45.3671 2082.92 47.1899 2088.86 50.8354C2094.79 54.346 2099.24 59.1392 2102.2 65.2152C2105.31 71.2911 2106.86 78.1097 2106.86 85.6709V114.835C2106.86 132.793 2107.19 147.173 2107.87 157.975H2062.36Z" fill="white"/>
<path d="M2207.03 157.975C2207.84 138.127 2208.25 119.831 2208.25 103.089C2208.25 97.1477 2206.77 92.4219 2203.8 88.9114C2200.97 85.4009 2197.33 83.6456 2192.88 83.6456C2188.16 83.6456 2184.11 85.9409 2180.74 90.5317C2177.51 95.1224 2175.89 101.401 2175.89 109.367L2175.69 108.962C2175.69 130.97 2175.96 147.308 2176.49 157.975H2128.16C2129.24 138.532 2129.77 112.203 2129.77 78.9873C2129.77 45.7721 2129.24 19.443 2128.16 0H2176.29L2176.49 62.3797L2176.29 73.1139C2179.53 63.6624 2184.32 56.7089 2190.65 52.2532C2197.12 47.6624 2204.41 45.3671 2212.5 45.3671C2220.59 45.3671 2227.6 47.1899 2233.53 50.8354C2239.46 54.346 2243.91 59.1392 2246.88 65.2152C2249.98 71.2911 2251.53 78.1097 2251.53 85.6709V114.835C2251.53 132.793 2251.87 147.173 2252.54 157.975H2207.03Z" fill="white"/>
<path d="M2357.78 108.759H2270.81V69.2658H2357.78V108.759Z" fill="white"/>
<path d="M2376.03 140.557C2380.61 133.671 2384.39 127.257 2387.35 121.316C2390.45 115.376 2393.42 108.489 2396.25 100.658C2405.83 106.194 2416.95 110.515 2429.62 113.62C2442.3 116.726 2454.1 118.278 2465.02 118.278C2476.21 118.278 2484.1 117.333 2488.68 115.443C2493.27 113.418 2495.56 111.257 2495.56 108.962C2495.56 100.726 2483.02 96.6076 2457.94 96.6076C2430.43 96.6076 2410.48 93.7722 2398.07 88.1013C2385.67 82.2954 2379.47 72.9789 2379.47 60.1519C2379.47 41.9241 2387.02 28.4895 2402.12 19.8481C2417.22 11.2067 2436.84 6.88607 2460.97 6.88607C2475 6.88607 2489.36 8.70886 2504.05 12.3544C2518.88 15.865 2532.23 20.7257 2544.1 26.9367C2540.19 35.8481 2536.08 46.7173 2531.76 59.5443C2530.95 62.2447 2530.28 64.27 2529.74 65.6203C2522.86 60.0844 2512.48 55.4937 2498.59 51.8481C2484.7 48.0675 2472.43 46.1772 2461.78 46.1772C2448.97 46.1772 2440.34 47.0549 2435.89 48.8101C2431.44 50.4304 2429.22 52.8608 2429.22 56.1013C2429.22 59.3418 2432.25 61.9747 2438.32 64C2444.52 65.8903 2453.42 66.8354 2465.02 66.8354C2493.6 66.8354 2514.37 70.1435 2527.31 76.7595C2540.26 83.2405 2546.73 93.2321 2546.73 106.734C2546.73 125.637 2539.85 139.274 2526.1 147.646C2512.34 155.882 2491.51 160 2463.6 160C2448.64 160 2433.4 158.38 2417.89 155.139C2402.39 151.764 2388.43 146.903 2376.03 140.557Z" fill="white"/>
<path d="M2645.8 157.975C2646.61 138.127 2647.01 119.831 2647.01 103.089C2647.01 97.1477 2645.53 92.4219 2642.56 88.9114C2639.73 85.4009 2636.09 83.6456 2631.64 83.6456C2626.92 83.6456 2622.88 85.9409 2619.5 90.5317C2616.27 95.1224 2614.65 101.401 2614.65 109.367L2614.45 108.962C2614.45 130.97 2614.72 147.308 2615.26 157.975H2566.92C2568 138.532 2568.54 112.203 2568.54 78.9873C2568.54 45.7721 2568 19.443 2566.92 0H2615.05L2615.26 62.3797L2615.05 73.1139C2618.29 63.6624 2623.08 56.7089 2629.41 52.2532C2635.89 47.6624 2643.17 45.3671 2651.26 45.3671C2659.35 45.3671 2666.36 47.1899 2672.29 50.8354C2678.23 54.346 2682.67 59.1392 2685.64 65.2152C2688.74 71.2911 2690.29 78.1097 2690.29 85.6709V114.835C2690.29 132.793 2690.63 147.173 2691.3 157.975H2645.8Z" fill="white"/>
<path d="M2790.47 157.975C2791.28 138.127 2791.68 119.831 2791.68 103.089C2791.68 97.1477 2790.2 92.4219 2787.24 88.9114C2784.4 85.4009 2780.76 83.6456 2776.31 83.6456C2771.59 83.6456 2767.55 85.9409 2764.18 90.5317C2760.94 95.1224 2759.32 101.401 2759.32 109.367L2759.12 108.962C2759.12 130.97 2759.39 147.308 2759.93 157.975H2711.59C2712.67 138.532 2713.21 112.203 2713.21 78.9873C2713.21 45.7721 2712.67 19.443 2711.59 0H2759.73L2759.93 62.3797L2759.73 73.1139C2762.97 63.6624 2767.75 56.7089 2774.09 52.2532C2780.56 47.6624 2787.84 45.3671 2795.93 45.3671C2804.02 45.3671 2811.03 47.1899 2816.97 50.8354C2822.9 54.346 2827.35 59.1392 2830.31 65.2152C2833.42 71.2911 2834.97 78.1097 2834.97 85.6709V114.835C2834.97 132.793 2835.3 147.173 2835.98 157.975H2790.47Z" fill="white"/>
<path d="M2935.15 157.975C2935.95 138.127 2936.36 119.831 2936.36 103.089C2936.36 97.1477 2934.88 92.4219 2931.91 88.9114C2929.08 85.4009 2925.44 83.6456 2920.99 83.6456C2916.27 83.6456 2912.22 85.9409 2908.85 90.5317C2905.62 95.1224 2904 101.401 2904 109.367L2903.8 108.962C2903.8 130.97 2904.07 147.308 2904.61 157.975H2856.27C2857.35 138.532 2857.88 112.203 2857.88 78.9873C2857.88 45.7721 2857.35 19.443 2856.27 0H2904.4L2904.61 62.3797L2904.4 73.1139C2907.64 63.6624 2912.43 56.7089 2918.76 52.2532C2925.23 47.6624 2932.52 45.3671 2940.61 45.3671C2948.7 45.3671 2955.71 47.1899 2961.64 50.8354C2967.57 54.346 2972.02 59.1392 2974.99 65.2152C2978.09 71.2911 2979.64 78.1097 2979.64 85.6709V114.835C2979.64 132.793 2979.98 147.173 2980.65 157.975H2935.15Z" fill="white"/>
<path d="M3079.82 157.975C3080.63 138.127 3081.03 119.831 3081.03 103.089C3081.03 97.1477 3079.55 92.4219 3076.58 88.9114C3073.75 85.4009 3070.11 83.6456 3065.66 83.6456C3060.94 83.6456 3056.9 85.9409 3053.53 90.5317C3050.29 95.1224 3048.67 101.401 3048.67 109.367L3048.47 108.962C3048.47 130.97 3048.74 147.308 3049.28 157.975H3000.94C3002.02 138.532 3002.56 112.203 3002.56 78.9873C3002.56 45.7721 3002.02 19.443 3000.94 0H3049.08L3049.28 62.3797L3049.08 73.1139C3052.31 63.6624 3057.1 56.7089 3063.44 52.2532C3069.91 47.6624 3077.19 45.3671 3085.28 45.3671C3093.37 45.3671 3100.38 47.1899 3106.31 50.8354C3112.25 54.346 3116.7 59.1392 3119.66 65.2152C3122.76 71.2911 3124.31 78.1097 3124.31 85.6709V114.835C3124.31 132.793 3124.65 147.173 3125.33 157.975H3079.82Z" fill="white"/>
<path d="M3224.49 157.975C3225.3 138.127 3225.71 119.831 3225.71 103.089C3225.71 97.1477 3224.22 92.4219 3221.26 88.9114C3218.43 85.4009 3214.79 83.6456 3210.34 83.6456C3205.62 83.6456 3201.57 85.9409 3198.2 90.5317C3194.96 95.1224 3193.35 101.401 3193.35 109.367L3193.14 108.962C3193.14 130.97 3193.41 147.308 3193.95 157.975H3145.61C3146.69 138.532 3147.23 112.203 3147.23 78.9873C3147.23 45.7721 3146.69 19.443 3145.61 0H3193.75L3193.95 62.3797L3193.75 73.1139C3196.99 63.6624 3201.77 56.7089 3208.11 52.2532C3214.58 47.6624 3221.86 45.3671 3229.95 45.3671C3238.04 45.3671 3245.06 47.1899 3250.99 50.8354C3256.92 54.346 3261.37 59.1392 3264.34 65.2152C3267.44 71.2911 3268.99 78.1097 3268.99 85.6709V114.835C3268.99 132.793 3269.33 147.173 3270 157.975H3224.49Z" fill="white"/>
</svg>
