<svg width="124" height="100" viewBox="0 0 124 100" fill="none" xmlns="http://www.w3.org/2000/svg">
<path d="M73.0447 63.3218C74.2059 63.3218 75.1472 62.3274 75.1472 61.1008C75.1472 59.8741 74.2059 58.8797 73.0447 58.8797C71.8836 58.8797 70.9422 59.8741 70.9422 61.1008C70.9422 62.3274 71.8836 63.3218 73.0447 63.3218Z" fill="url(#paint0_linear_8855_1147)"/>
<path d="M91.8458 1.85064C90.5472 0.674386 88.7953 0 87.0385 0C86.6795 0.000301983 86.3209 0.0270084 85.9654 0.0799155C82.6844 0.566099 79.5547 1.7558 77.1539 3.43018C75.7604 4.40106 74.4865 4.85287 73.144 4.85287C72.1847 4.85287 71.1723 4.63332 69.8616 4.14042C65.4078 2.46529 60.2159 0.678871 54.9448 0.678871C52.8567 0.669132 50.777 0.958295 48.7625 1.53847C42.3864 3.38313 38.5116 7.53548 37.2539 13.8805C36.0061 20.1598 37.8612 25.4795 42.6162 29.2651C42.7399 29.3637 42.8473 29.4578 42.9513 29.5482C43.3981 29.9388 43.7841 30.2763 44.8834 30.599C45.5055 30.7812 46.1764 30.5437 46.6338 29.9791C47.0665 29.4444 47.1831 28.758 46.9378 28.1867C46.5066 27.2009 46.0272 26.7244 45.4716 26.1703L45.3585 26.0583C41.5564 22.2711 40.3914 18.4093 41.6922 13.9052C43.0297 9.27484 46.1792 6.4974 51.0537 5.65349C52.4042 5.42148 53.7703 5.30533 55.1385 5.3062C60.8649 5.3062 66.0765 7.31068 69.9846 9.05825C69.9913 9.06107 69.9974 9.06531 70.0025 9.07071C70.0076 9.0761 70.0116 9.08254 70.0143 9.08963C70.0171 9.09673 70.0185 9.10433 70.0185 9.11202C70.0185 9.11971 70.0171 9.12733 70.0143 9.13443V9.1434C69.3568 10.8081 68.7114 12.4705 68.0864 14.0784L68.0723 14.1143C66.1225 19.1344 64.6025 23.1449 63.0529 27.6206L63.0267 27.6953C62.6026 28.9246 62.3905 29.5414 61.943 29.8028C61.4439 30.0948 60.4888 30.1016 58.7546 30.1135C54.3601 30.1449 50.3955 30.9395 46.6345 32.5429C43.5642 33.8514 40.5999 35.7304 37.5735 38.286C35.0666 40.4025 32.9365 43.0874 31.5763 45.8462C31.389 46.2255 31.2101 46.6318 31.0292 47.0889C30.9931 47.1822 30.4282 48.7401 30.313 49.1531C29.7319 51.224 30.091 54.0515 30.3441 55.0231C30.8878 57.1083 31.8393 58.997 33.0249 60.3406C35.2278 62.8379 37.9736 64 41.6766 64H41.6922C46.0046 63.9963 49.6808 62.4817 52.9328 59.3697C55.5832 56.8305 58.0229 53.2113 60.8507 47.6296C61.8716 45.6131 62.5184 43.5034 63.2028 41.2726C63.4643 40.4205 63.7344 39.5392 64.0278 38.6639C64.2399 38.0388 64.406 37.4974 64.5693 36.9739C64.7736 36.3174 64.9673 35.6975 65.2339 34.9268C65.2408 34.9098 65.2534 34.8961 65.2694 34.8883C65.2853 34.8806 65.3034 34.8794 65.3201 34.885L65.3484 34.8895C66.2724 35.0052 67.1257 35.1173 67.9514 35.2248H67.974C70.1543 35.5101 72.0369 35.7565 73.7371 35.8902H73.7605C74.4158 35.8902 75.2529 35.8357 75.9139 35.4085L75.9414 35.3921C75.9997 35.3609 76.0545 35.3228 76.1047 35.2786C76.7735 34.6744 76.7813 33.6124 76.5996 33.236L76.5289 33.0934C76.1196 32.2479 75.2394 31.8902 74.7516 31.7491C73.6813 31.4459 72.302 31.2562 70.705 31.0366H70.6965C70.2278 30.9724 69.7428 30.9059 69.243 30.8327C68.6774 30.7506 68.3148 30.7058 68.0207 30.6692C67.4563 30.6092 66.8974 30.501 66.3494 30.3458C66.3567 30.2556 66.3792 30.1676 66.4159 30.0859L68.3713 24.9604C69.2982 22.8805 70.1331 20.7035 70.9404 18.6034C71.506 17.124 72.0454 15.7267 72.6138 14.354C74.0383 10.9126 74.7346 11.0732 76.425 11.4608C76.8152 11.5497 77.3327 11.6983 77.8806 11.8559C78.4108 12.0052 78.958 12.1651 79.4798 12.295C79.8198 12.3801 80.1344 12.4608 80.4306 12.5362C82.5246 13.0717 83.6784 13.3659 86.3181 13.4466H86.5727C89.3673 13.4466 91.3743 12.363 92.3216 11.3488C93.4132 10.18 94.0247 8.40255 93.9992 6.472C93.966 4.72817 93.2046 3.08066 91.8458 1.85064ZM86.4666 4.68857C87.1594 4.68857 88.1287 4.90292 88.7338 5.38088C89.1757 5.73114 89.3065 5.91935 89.3446 6.00075C89.515 6.35998 89.6168 6.79835 89.5645 6.9634L89.5581 6.98805C89.4486 7.44959 89.368 7.72592 88.9784 8.03361C88.2481 8.61315 87.2902 8.98134 86.4814 8.99628H86.2955C84.8915 8.99628 83.2492 8.94923 81.713 8.60121C81.5009 8.55266 81.3228 8.52205 81.1475 8.49217C80.7314 8.42906 80.3221 8.32376 79.9251 8.17774L79.694 8.10306C79.6282 8.06796 79.5674 8.03361 79.5045 7.99776C79.349 7.91039 79.1892 7.81927 78.9644 7.7192C78.8447 7.6502 78.7349 7.56343 78.6385 7.46155C78.6161 7.41512 78.6033 7.36421 78.601 7.31218C78.6547 7.05602 80.1429 6.17701 81.6727 5.80285C82.1612 5.68261 82.6554 5.5437 83.134 5.40927C84.1796 5.11502 85.2605 4.81181 86.3344 4.69381C86.3797 4.69306 86.4404 4.68932 86.4666 4.69007V4.68857ZM34.6389 50.3674C35.0906 48.0784 35.8315 46.3958 37.0425 44.9111C39.8392 41.4757 42.2224 39.3846 45.0106 37.9022C48.0661 36.2793 51.7133 35.3443 56.8352 34.8708L58.8147 34.7214H58.9271C59.2565 34.7214 60.165 34.7326 60.8755 34.7431C60.8192 35.1714 60.7312 35.5944 60.6125 36.0082C60.5884 36.0993 60.558 36.1934 60.5199 36.2972C60.423 36.5594 60.2569 37.1075 60.0462 37.8021C59.685 38.997 59.1894 40.6273 58.7454 41.8013C57.2983 45.6221 55.4934 49.9948 52.3941 53.5377C50.7398 55.4287 49.0898 57.2166 47.1046 58.3174C45.063 59.4518 42.7364 59.8208 39.7834 59.4787C38.723 59.3562 37.0305 58.4182 35.8138 56.6497C34.9563 55.4085 34.0592 53.3092 34.6389 50.3689V50.3674Z" fill="url(#paint1_linear_8855_1147)"/>
<path d="M8.73398 96V81.6H14.424C14.564 81.6 14.7307 81.6067 14.924 81.62C15.1173 81.6267 15.304 81.6467 15.484 81.68C16.264 81.8 16.9173 82.0667 17.444 82.48C17.9773 82.8933 18.3773 83.4167 18.644 84.05C18.9107 84.6767 19.044 85.3733 19.044 86.14C19.044 86.9 18.9073 87.5967 18.634 88.23C18.3673 88.8567 17.9673 89.38 17.434 89.8C16.9073 90.2133 16.2573 90.48 15.484 90.6C15.304 90.6267 15.1173 90.6467 14.924 90.66C14.7307 90.6733 14.564 90.68 14.424 90.68H10.514V96H8.73398ZM10.514 88.99H14.364C14.4907 88.99 14.634 88.9833 14.794 88.97C14.9607 88.9567 15.1173 88.9333 15.264 88.9C15.724 88.7933 16.0973 88.6 16.384 88.32C16.6773 88.0333 16.8907 87.7 17.024 87.32C17.1573 86.9333 17.224 86.54 17.224 86.14C17.224 85.74 17.1573 85.35 17.024 84.97C16.8907 84.5833 16.6773 84.2467 16.384 83.96C16.0973 83.6733 15.724 83.48 15.264 83.38C15.1173 83.34 14.9607 83.3167 14.794 83.31C14.634 83.2967 14.4907 83.29 14.364 83.29H10.514V88.99ZM21.3887 83.29V81.45H23.1687V83.29H21.3887ZM21.3887 96V85.2H23.1687V96H21.3887ZM26.5191 96V81.3H28.2991V96H26.5191ZM34.5196 96.3C33.7129 96.3 33.0363 96.1533 32.4896 95.86C31.9496 95.56 31.5396 95.1667 31.2596 94.68C30.9863 94.1933 30.8496 93.66 30.8496 93.08C30.8496 92.5133 30.9563 92.0233 31.1696 91.61C31.3896 91.19 31.6963 90.8433 32.0896 90.57C32.4829 90.29 32.9529 90.07 33.4996 89.91C34.0129 89.77 34.5863 89.65 35.2196 89.55C35.8596 89.4433 36.5063 89.3467 37.1596 89.26C37.8129 89.1733 38.4229 89.09 38.9896 89.01L38.3496 89.38C38.3696 88.42 38.1763 87.71 37.7696 87.25C37.3696 86.79 36.6763 86.56 35.6896 86.56C35.0363 86.56 34.4629 86.71 33.9696 87.01C33.4829 87.3033 33.1396 87.7833 32.9396 88.45L31.2496 87.94C31.5096 86.9933 32.0129 86.25 32.7596 85.71C33.5063 85.17 34.4896 84.9 35.7096 84.9C36.6896 84.9 37.5296 85.0767 38.2296 85.43C38.9363 85.7767 39.4429 86.3033 39.7496 87.01C39.9029 87.3433 39.9996 87.7067 40.0396 88.1C40.0796 88.4867 40.0996 88.8933 40.0996 89.32V96H38.5196V93.41L38.8896 93.65C38.4829 94.5233 37.9129 95.1833 37.1796 95.63C36.4529 96.0767 35.5663 96.3 34.5196 96.3ZM34.7896 94.81C35.4296 94.81 35.9829 94.6967 36.4496 94.47C36.9229 94.2367 37.3029 93.9333 37.5896 93.56C37.8763 93.18 38.0629 92.7667 38.1496 92.32C38.2496 91.9867 38.3029 91.6167 38.3096 91.21C38.3229 90.7967 38.3296 90.48 38.3296 90.26L38.9496 90.53C38.3696 90.61 37.7996 90.6867 37.2396 90.76C36.6796 90.8333 36.1496 90.9133 35.6496 91C35.1496 91.08 34.6996 91.1767 34.2996 91.29C34.0063 91.3833 33.7296 91.5033 33.4696 91.65C33.2163 91.7967 33.0096 91.9867 32.8496 92.22C32.6963 92.4467 32.6196 92.73 32.6196 93.07C32.6196 93.3633 32.6929 93.6433 32.8396 93.91C32.9929 94.1767 33.2263 94.3933 33.5396 94.56C33.8596 94.7267 34.2763 94.81 34.7896 94.81ZM48.8796 96C48.2396 96.1267 47.6063 96.1767 46.9796 96.15C46.3596 96.13 45.8063 96.0067 45.3196 95.78C44.8329 95.5467 44.4629 95.1867 44.2096 94.7C43.9963 94.2733 43.8796 93.8433 43.8596 93.41C43.8463 92.97 43.8396 92.4733 43.8396 91.92V82.2H45.6196V91.84C45.6196 92.28 45.6229 92.6567 45.6296 92.97C45.6429 93.2833 45.7129 93.5533 45.8396 93.78C46.0796 94.2067 46.4596 94.4567 46.9796 94.53C47.5063 94.6033 48.1396 94.5833 48.8796 94.47V96ZM41.6496 86.67V85.2H48.8796V86.67H41.6496ZM55.453 96.3C54.393 96.3 53.4664 96.0667 52.673 95.6C51.8864 95.1267 51.273 94.47 50.833 93.63C50.393 92.7833 50.173 91.7967 50.173 90.67C50.173 89.49 50.3897 88.47 50.823 87.61C51.2564 86.7433 51.8597 86.0767 52.633 85.61C53.413 85.1367 54.3264 84.9 55.373 84.9C56.4597 84.9 57.383 85.15 58.143 85.65C58.9097 86.15 59.483 86.8633 59.863 87.79C60.2497 88.7167 60.4164 89.82 60.363 91.1H58.563V90.46C58.543 89.1333 58.273 88.1433 57.753 87.49C57.233 86.83 56.4597 86.5 55.433 86.5C54.333 86.5 53.4964 86.8533 52.923 87.56C52.3497 88.2667 52.063 89.28 52.063 90.6C52.063 91.8733 52.3497 92.86 52.923 93.56C53.4964 94.26 54.313 94.61 55.373 94.61C56.0864 94.61 56.7064 94.4467 57.233 94.12C57.7597 93.7933 58.173 93.3233 58.473 92.71L60.183 93.3C59.763 94.2533 59.1297 94.9933 58.283 95.52C57.443 96.04 56.4997 96.3 55.453 96.3ZM51.463 91.1V89.67H59.443V91.1H51.463ZM66.8195 96.29C65.5328 96.29 64.4761 96.01 63.6495 95.45C62.8295 94.8833 62.3261 94.0933 62.1395 93.08L63.9595 92.79C64.1061 93.3767 64.4428 93.8433 64.9695 94.19C65.4961 94.53 66.1495 94.7 66.9295 94.7C67.6695 94.7 68.2495 94.5467 68.6695 94.24C69.0895 93.9333 69.2995 93.5167 69.2995 92.99C69.2995 92.6833 69.2295 92.4367 69.0895 92.25C68.9495 92.0567 68.6595 91.8767 68.2195 91.71C67.7861 91.5433 67.1295 91.3433 66.2495 91.11C65.2961 90.8567 64.5461 90.5933 63.9995 90.32C63.4528 90.0467 63.0628 89.73 62.8295 89.37C62.5961 89.01 62.4795 88.5733 62.4795 88.06C62.4795 87.4267 62.6528 86.8733 62.9995 86.4C63.3461 85.92 63.8295 85.55 64.4495 85.29C65.0761 85.03 65.8028 84.9 66.6295 84.9C67.4495 84.9 68.1828 85.03 68.8295 85.29C69.4761 85.55 69.9961 85.92 70.3895 86.4C70.7895 86.8733 71.0261 87.4267 71.0995 88.06L69.2795 88.39C69.1928 87.81 68.9128 87.3533 68.4395 87.02C67.9728 86.6867 67.3695 86.51 66.6295 86.49C65.9295 86.4633 65.3595 86.5867 64.9195 86.86C64.4861 87.1333 64.2695 87.5033 64.2695 87.97C64.2695 88.23 64.3495 88.4533 64.5095 88.64C64.6761 88.8267 64.9795 89.0033 65.4195 89.17C65.8661 89.3367 66.5128 89.5267 67.3595 89.74C68.3128 89.98 69.0628 90.2433 69.6095 90.53C70.1628 90.81 70.5561 91.1433 70.7895 91.53C71.0228 91.91 71.1395 92.38 71.1395 92.94C71.1395 93.98 70.7561 94.8 69.9895 95.4C69.2228 95.9933 68.1661 96.29 66.8195 96.29ZM83.0388 86.67V85.2H85.9388V86.67H83.0388ZM78.6788 96V84.61C78.6788 84.33 78.6922 84.0467 78.7188 83.76C78.7455 83.4667 78.8055 83.1833 78.8988 82.91C78.9922 82.63 79.1455 82.3733 79.3588 82.14C79.6055 81.8667 79.8755 81.6733 80.1688 81.56C80.4622 81.44 80.7588 81.3667 81.0588 81.34C81.3655 81.3133 81.6555 81.3 81.9288 81.3H83.2988V82.78H82.0288C81.5022 82.78 81.1088 82.91 80.8488 83.17C80.5888 83.4233 80.4588 83.81 80.4588 84.33V96H78.6788ZM76.8488 86.67V85.2H83.2988V86.67H76.8488ZM85.7888 96V81.3H87.5688V96H85.7888ZM95.309 96.3C94.2356 96.3 93.309 96.0567 92.529 95.57C91.7556 95.0833 91.159 94.41 90.739 93.55C90.319 92.69 90.109 91.7033 90.109 90.59C90.109 89.4567 90.3223 88.4633 90.749 87.61C91.1756 86.7567 91.779 86.0933 92.559 85.62C93.339 85.14 94.2556 84.9 95.309 84.9C96.389 84.9 97.319 85.1433 98.099 85.63C98.879 86.11 99.4757 86.78 99.889 87.64C100.309 88.4933 100.519 89.4767 100.519 90.59C100.519 91.7167 100.309 92.71 99.889 93.57C99.469 94.4233 98.869 95.0933 98.089 95.58C97.309 96.06 96.3823 96.3 95.309 96.3ZM95.309 94.61C96.429 94.61 97.2623 94.2367 97.809 93.49C98.3556 92.7433 98.629 91.7767 98.629 90.59C98.629 89.37 98.3523 88.4 97.799 87.68C97.2456 86.9533 96.4156 86.59 95.309 86.59C94.5556 86.59 93.9356 86.76 93.449 87.1C92.9623 87.44 92.599 87.91 92.359 88.51C92.119 89.11 91.999 89.8033 91.999 90.59C91.999 91.8033 92.279 92.7767 92.839 93.51C93.399 94.2433 94.2223 94.61 95.309 94.61ZM104.78 96L101.48 85.19L103.25 85.2L105.66 93.1L108.09 85.2H109.66L112.08 93.1L114.5 85.2H116.26L112.96 96H111.48L108.87 87.79L106.26 96H104.78Z" fill="#060048"/>
<defs>
<linearGradient id="paint0_linear_8855_1147" x1="30" y1="35.5556" x2="95.1852" y2="34.3704" gradientUnits="userSpaceOnUse">
<stop stop-color="#4598FB"/>
<stop offset="1" stop-color="#D15EAE"/>
</linearGradient>
<linearGradient id="paint1_linear_8855_1147" x1="30" y1="35.5556" x2="95.1852" y2="34.3704" gradientUnits="userSpaceOnUse">
<stop stop-color="#4598FB"/>
<stop offset="1" stop-color="#D15EAE"/>
</linearGradient>
</defs>
</svg>
