<svg width="175" height="32" viewBox="0 0 175 32" fill="none" xmlns="http://www.w3.org/2000/svg">
<g clip-path="url(#clip0_561_23252)">
<path d="M28 0H4C1.79086 0 0 1.79086 0 4V28C0 30.2091 1.79086 32 4 32H28C30.2091 32 32 30.2091 32 28V4C32 1.79086 30.2091 0 28 0Z" fill="#4169F4"/>
<path fill-rule="evenodd" clip-rule="evenodd" d="M16 5C11.5702 5 9.09533 6.54933 7.94234 7.59296C7.2263 8.24108 7 9.13961 7 9.90833V16C7 18.5751 8.27689 20.7594 9.75258 22.4299C11.2336 24.1063 12.9974 25.3609 14.1707 26.0984C15.2955 26.8053 16.7045 26.8053 17.8293 26.0984C19.0026 25.3609 20.7664 24.1063 22.2474 22.4299C23.7231 20.7594 25 18.5751 25 16V9.90833C25 9.13961 24.7737 8.24108 24.0577 7.59296C22.9047 6.54933 20.4298 5 16 5ZM9.28449 9.07574C10.0843 8.35175 12.0856 7 16 7C19.9144 7 21.9157 8.35175 22.7155 9.07574C22.8777 9.22254 23 9.4925 23 9.90833V14.1437C22.9671 14.1794 22.9294 14.2189 22.8866 14.2616C22.658 14.4903 22.2843 14.8132 21.7355 15.1425C20.6456 15.7965 18.8243 16.5 16 16.5C13.1757 16.5 11.3544 15.7965 10.2645 15.1425C9.71567 14.8132 9.34202 14.4903 9.11336 14.2616C9.07058 14.2189 9.03286 14.1794 9 14.1437V9.90833C9 9.49249 9.12231 9.22254 9.28449 9.07574ZM9.04802 16.7419C9.25537 18.3465 10.115 19.8193 11.2515 21.1057C12.5557 22.5821 14.1432 23.7189 15.235 24.405C15.7092 24.7031 16.2908 24.7031 16.765 24.405C17.8568 23.7189 19.4443 22.5821 20.7485 21.1057C21.885 19.8193 22.7446 18.3465 22.952 16.7419C22.8911 16.7804 22.8287 16.819 22.7645 16.8575C21.3544 17.7035 19.1757 18.5 16 18.5C12.8243 18.5 10.6456 17.7035 9.2355 16.8575C9.17134 16.819 9.10886 16.7804 9.04802 16.7419Z" fill="white"/>
<path d="M137.046 24L131.334 7.19995H134.238L138.39 20.256L142.566 7.19995H145.47L139.758 24H137.046Z" fill="white"/>
<path d="M147.734 24V7.19995H153.878C155.494 7.19995 156.75 7.64795 157.646 8.54395C158.558 9.43995 159.014 10.648 159.014 12.168C159.014 13.688 158.558 14.896 157.646 15.792C156.75 16.688 155.494 17.136 153.878 17.136H150.398V24H147.734ZM150.398 14.664H153.806C155.47 14.664 156.302 13.832 156.302 12.168C156.302 10.504 155.47 9.67195 153.806 9.67195H150.398V14.664Z" fill="white"/>
<path d="M161.89 24V7.19995H164.746L171.562 19.248V7.19995H174.226V24H171.37L164.554 11.976V24H161.89Z" fill="white"/>
<path d="M44 23.9521L49.784 7.1521H52.4L58.208 23.9521H55.352L54.008 19.7521H48.2L46.832 23.9521H44ZM48.968 17.2801H53.216L51.104 10.6801L48.968 17.2801Z" fill="#4169F4"/>
<path d="M60.1829 23.9521V11.8561H62.7268V13.9681C63.1748 13.2481 63.7348 12.6881 64.4068 12.2881C65.0948 11.8721 65.8228 11.6641 66.5908 11.6641C67.7268 11.6641 68.6308 11.9921 69.3028 12.6481C69.9748 13.3041 70.3109 14.2241 70.3109 15.4081V23.9521H67.7909V16.0801C67.7909 14.6081 67.1349 13.8721 65.8229 13.8721C64.9589 13.8721 64.2229 14.3361 63.6148 15.2641C63.0228 16.1921 62.7268 17.4321 62.7268 18.9841V23.9521H60.1829Z" fill="#4169F4"/>
<path d="M74.7365 22.3681C73.6485 21.1681 73.1045 19.6801 73.1045 17.9041C73.1045 16.1281 73.6485 14.6481 74.7365 13.4641C75.8405 12.2641 77.2965 11.6641 79.1045 11.6641C80.9125 11.6641 82.3605 12.2641 83.4485 13.4641C84.5525 14.6481 85.1045 16.1281 85.1045 17.9041C85.1045 19.6801 84.5525 21.1681 83.4485 22.3681C82.3605 23.5521 80.9125 24.1441 79.1045 24.1441C77.2965 24.1441 75.8405 23.5521 74.7365 22.3681ZM81.5525 20.7601C82.1445 19.9761 82.4405 19.0241 82.4405 17.9041C82.4405 16.7841 82.1445 15.8321 81.5525 15.0481C80.9605 14.2641 80.1445 13.8721 79.1045 13.8721C78.0485 13.8721 77.2245 14.2641 76.6325 15.0481C76.0405 15.8321 75.7445 16.7841 75.7445 17.9041C75.7445 19.0241 76.0405 19.9761 76.6325 20.7601C77.2245 21.5441 78.0485 21.9361 79.1045 21.9361C80.1445 21.9361 80.9605 21.5441 81.5525 20.7601Z" fill="#4169F4"/>
<path d="M87.886 23.9521V11.8561H90.43V13.9681C90.878 13.2481 91.438 12.6881 92.11 12.2881C92.798 11.8721 93.526 11.6641 94.294 11.6641C95.43 11.6641 96.334 11.9921 97.006 12.6481C97.678 13.3041 98.014 14.2241 98.014 15.4081V23.9521H95.494V16.0801C95.494 14.6081 94.838 13.8721 93.526 13.8721C92.662 13.8721 91.926 14.3361 91.318 15.2641C90.726 16.1921 90.43 17.4321 90.43 18.9841V23.9521H87.886Z" fill="#4169F4"/>
<path d="M107.901 11.8562H110.445L104.277 28.8482H101.829L103.797 23.3522L99.4292 11.8562H101.997L104.997 19.9682L107.901 11.8562Z" fill="#4169F4"/>
<path d="M112.284 23.9521V11.8561H114.828V13.9681C115.74 12.4321 116.932 11.6641 118.404 11.6641C120.164 11.6641 121.284 12.5121 121.764 14.2081C122.196 13.4241 122.74 12.8081 123.396 12.3601C124.068 11.8961 124.78 11.6641 125.532 11.6641C126.684 11.6641 127.564 11.9921 128.172 12.6481C128.78 13.3041 129.084 14.2401 129.084 15.4561V23.9521H126.564V15.8641C126.564 14.5361 125.996 13.8721 124.86 13.8721C124.012 13.8721 123.316 14.3361 122.772 15.2641C122.228 16.1761 121.956 17.4401 121.956 19.0561V23.9521H119.436V15.8641C119.436 14.5361 118.868 13.8721 117.732 13.8721C116.868 13.8721 116.164 14.3521 115.62 15.3121C115.092 16.2561 114.828 17.5681 114.828 19.2481V23.9521H112.284Z" fill="#4169F4"/>
</g>
<defs>
<clipPath id="clip0_561_23252">
<rect width="175" height="32" fill="white"/>
</clipPath>
</defs>
</svg>
