<svg width="36" height="36" viewBox="0 0 36 36" fill="none" xmlns="http://www.w3.org/2000/svg">
<path d="M18.0669 9.04725H27.9652C29.2991 9.03599 30.3752 7.95459 30.3752 6.62538C30.3752 2.81799 25.8242 0.880495 23.1003 3.51639L18.0669 8.39679V9.04725Z" fill="#DE2236"/>
<path d="M18.0669 9.04725H27.9652C29.2991 9.03599 30.3752 7.95459 30.3752 6.62538C30.3752 2.81799 25.8242 0.880495 23.1003 3.51639L18.0669 8.39679V9.04725Z" fill="url(#paint0_radial_698_1909)"/>
<path d="M18.0669 9.04725H27.9652C29.2991 9.03599 30.3752 7.95459 30.3752 6.62538C30.3752 2.81799 25.8242 0.880495 23.1003 3.51639L18.0669 8.39679V9.04725Z" fill="url(#paint1_radial_698_1909)"/>
<path d="M18.0669 9.04725H27.9652C29.2991 9.03599 30.3752 7.95459 30.3752 6.62538C30.3752 2.81799 25.8242 0.880495 23.1003 3.51639L18.0669 8.39679V9.04725Z" fill="url(#paint2_linear_698_1909)"/>
<path d="M18.0669 9.04725H27.9652C29.2991 9.03599 30.3752 7.95459 30.3752 6.62538C30.3752 2.81799 25.8242 0.880495 23.1003 3.51639L18.0669 8.39679V9.04725Z" fill="url(#paint3_radial_698_1909)"/>
<path d="M18.0669 9.04725H27.9652C29.2991 9.03599 30.3752 7.95459 30.3752 6.62538C30.3752 2.81799 25.8242 0.880495 23.1003 3.51639L18.0669 8.39679V9.04725Z" fill="url(#paint4_radial_698_1909)"/>
<path d="M18.0669 9.04725H27.9652C29.2991 9.03599 30.3752 7.95459 30.3752 6.62538C30.3752 2.81799 25.8242 0.880495 23.1003 3.51639L18.0669 8.39679V9.04725Z" fill="url(#paint5_linear_698_1909)"/>
<path d="M18.0669 9.04725H27.9652C29.2991 9.03599 30.3752 7.95459 30.3752 6.62538C30.3752 2.81799 25.8242 0.880495 23.1003 3.51639L18.0669 8.39679V9.04725Z" fill="url(#paint6_radial_698_1909)" fill-opacity="0.8"/>
<path d="M18.0669 9.04725H8.16859C6.8347 9.03599 5.75862 7.95459 5.75862 6.62538C5.75862 2.81799 10.3096 0.880495 13.0334 3.51639L18.0669 8.39679V9.04725Z" fill="url(#paint7_linear_698_1909)"/>
<path d="M18.0669 9.04725H8.16859C6.8347 9.03599 5.75862 7.95459 5.75862 6.62538C5.75862 2.81799 10.3096 0.880495 13.0334 3.51639L18.0669 8.39679V9.04725Z" fill="url(#paint8_linear_698_1909)"/>
<path d="M18.0669 9.04725H8.16859C6.8347 9.03599 5.75862 7.95459 5.75862 6.62538C5.75862 2.81799 10.3096 0.880495 13.0334 3.51639L18.0669 8.39679V9.04725Z" fill="url(#paint9_radial_698_1909)"/>
<path d="M18.0669 9.04725H8.16859C6.8347 9.03599 5.75862 7.95459 5.75862 6.62538C5.75862 2.81799 10.3096 0.880495 13.0334 3.51639L18.0669 8.39679V9.04725Z" fill="url(#paint10_radial_698_1909)"/>
<path d="M18.0669 9.04725H8.16859C6.8347 9.03599 5.75862 7.95459 5.75862 6.62538C5.75862 2.81799 10.3096 0.880495 13.0334 3.51639L18.0669 8.39679V9.04725Z" fill="url(#paint11_radial_698_1909)" fill-opacity="0.8"/>
<path d="M18.0669 9.04725H8.16859C6.8347 9.03599 5.75862 7.95459 5.75862 6.62538C5.75862 2.81799 10.3096 0.880495 13.0334 3.51639L18.0669 8.39679V9.04725Z" fill="url(#paint12_radial_698_1909)" fill-opacity="0.7"/>
<path d="M18.0669 9.04725H8.16859C6.8347 9.03599 5.75862 7.95459 5.75862 6.62538C5.75862 2.81799 10.3096 0.880495 13.0334 3.51639L18.0669 8.39679V9.04725Z" fill="url(#paint13_radial_698_1909)"/>
<path d="M18.0669 9.04725H8.16859C6.8347 9.03599 5.75862 7.95459 5.75862 6.62538C5.75862 2.81799 10.3096 0.880495 13.0334 3.51639L18.0669 8.39679V9.04725Z" fill="url(#paint14_radial_698_1909)" fill-opacity="0.6"/>
<path d="M18.0669 9.04725H8.16859C6.8347 9.03599 5.75862 7.95459 5.75862 6.62538C5.75862 2.81799 10.3096 0.880495 13.0334 3.51639L18.0669 8.39679V9.04725Z" fill="url(#paint15_radial_698_1909)" fill-opacity="0.6"/>
<path d="M27.9991 33.7969H8.0009C6.68345 33.7969 5.625 32.7512 5.625 31.4497V16.9219H30.375V31.4497C30.375 32.7401 29.3166 33.7969 27.9991 33.7969Z" fill="url(#paint16_linear_698_1909)"/>
<path d="M27.9991 33.7969H8.0009C6.68345 33.7969 5.625 32.7512 5.625 31.4497V16.9219H30.375V31.4497C30.375 32.7401 29.3166 33.7969 27.9991 33.7969Z" fill="url(#paint17_linear_698_1909)"/>
<path d="M27.9991 33.7969H8.0009C6.68345 33.7969 5.625 32.7512 5.625 31.4497V16.9219H30.375V31.4497C30.375 32.7401 29.3166 33.7969 27.9991 33.7969Z" fill="url(#paint18_linear_698_1909)"/>
<path d="M27.9991 33.7969H8.0009C6.68345 33.7969 5.625 32.7512 5.625 31.4497V16.9219H30.375V31.4497C30.375 32.7401 29.3166 33.7969 27.9991 33.7969Z" fill="url(#paint19_radial_698_1909)"/>
<path d="M27.9991 33.7969H8.0009C6.68345 33.7969 5.625 32.7512 5.625 31.4497V16.9219H30.375V31.4497C30.375 32.7401 29.3166 33.7969 27.9991 33.7969Z" fill="url(#paint20_radial_698_1909)"/>
<path d="M27.9991 33.7969H8.0009C6.68345 33.7969 5.625 32.7512 5.625 31.4497V16.9219H30.375V31.4497C30.375 32.7401 29.3166 33.7969 27.9991 33.7969Z" fill="url(#paint21_linear_698_1909)"/>
<path d="M27.9991 33.7969H8.0009C6.68345 33.7969 5.625 32.7512 5.625 31.4497V16.9219H30.375V31.4497C30.375 32.7401 29.3166 33.7969 27.9991 33.7969Z" fill="url(#paint22_linear_698_1909)"/>
<path d="M27.9991 33.7969H8.0009C6.68345 33.7969 5.625 32.7512 5.625 31.4497V16.9219H30.375V31.4497C30.375 32.7401 29.3166 33.7969 27.9991 33.7969Z" fill="url(#paint23_radial_698_1909)"/>
<path d="M27.9991 33.7969H8.0009C6.68345 33.7969 5.625 32.7512 5.625 31.4497V16.9219H30.375V31.4497C30.375 32.7401 29.3166 33.7969 27.9991 33.7969Z" fill="url(#paint24_radial_698_1909)"/>
<path d="M31.1192 9.04688H4.88076C4.04922 9.04688 3.375 9.72284 3.375 10.5565V15.4122C3.375 16.2459 4.04922 16.9219 4.88076 16.9219H31.1192C31.9508 16.9219 32.625 16.2459 32.625 15.4122V10.5565C32.625 9.72284 31.9508 9.04688 31.1192 9.04688Z" fill="url(#paint25_linear_698_1909)"/>
<path d="M31.1192 9.04688H4.88076C4.04922 9.04688 3.375 9.72284 3.375 10.5565V15.4122C3.375 16.2459 4.04922 16.9219 4.88076 16.9219H31.1192C31.9508 16.9219 32.625 16.2459 32.625 15.4122V10.5565C32.625 9.72284 31.9508 9.04688 31.1192 9.04688Z" fill="url(#paint26_linear_698_1909)"/>
<path d="M31.1192 9.04688H4.88076C4.04922 9.04688 3.375 9.72284 3.375 10.5565V15.4122C3.375 16.2459 4.04922 16.9219 4.88076 16.9219H31.1192C31.9508 16.9219 32.625 16.2459 32.625 15.4122V10.5565C32.625 9.72284 31.9508 9.04688 31.1192 9.04688Z" fill="url(#paint27_radial_698_1909)" fill-opacity="0.8"/>
<path d="M31.1192 9.04688H4.88076C4.04922 9.04688 3.375 9.72284 3.375 10.5565V15.4122C3.375 16.2459 4.04922 16.9219 4.88076 16.9219H31.1192C31.9508 16.9219 32.625 16.2459 32.625 15.4122V10.5565C32.625 9.72284 31.9508 9.04688 31.1192 9.04688Z" fill="url(#paint28_radial_698_1909)" fill-opacity="0.3"/>
<path d="M31.1192 9.04688H4.88076C4.04922 9.04688 3.375 9.72284 3.375 10.5565V15.4122C3.375 16.2459 4.04922 16.9219 4.88076 16.9219H31.1192C31.9508 16.9219 32.625 16.2459 32.625 15.4122V10.5565C32.625 9.72284 31.9508 9.04688 31.1192 9.04688Z" fill="url(#paint29_radial_698_1909)" fill-opacity="0.6"/>
<path d="M31.1192 9.04688H4.88076C4.04922 9.04688 3.375 9.72284 3.375 10.5565V15.4122C3.375 16.2459 4.04922 16.9219 4.88076 16.9219H31.1192C31.9508 16.9219 32.625 16.2459 32.625 15.4122V10.5565C32.625 9.72284 31.9508 9.04688 31.1192 9.04688Z" fill="url(#paint30_linear_698_1909)"/>
<path d="M31.1192 9.04688H4.88076C4.04922 9.04688 3.375 9.72284 3.375 10.5565V15.4122C3.375 16.2459 4.04922 16.9219 4.88076 16.9219H31.1192C31.9508 16.9219 32.625 16.2459 32.625 15.4122V10.5565C32.625 9.72284 31.9508 9.04688 31.1192 9.04688Z" fill="url(#paint31_radial_698_1909)"/>
<path d="M31.1192 9.04688H4.88076C4.04922 9.04688 3.375 9.72284 3.375 10.5565V15.4122C3.375 16.2459 4.04922 16.9219 4.88076 16.9219H31.1192C31.9508 16.9219 32.625 16.2459 32.625 15.4122V10.5565C32.625 9.72284 31.9508 9.04688 31.1192 9.04688Z" fill="url(#paint32_linear_698_1909)"/>
<path d="M31.1192 9.04688H4.88076C4.04922 9.04688 3.375 9.72284 3.375 10.5565V15.4122C3.375 16.2459 4.04922 16.9219 4.88076 16.9219H31.1192C31.9508 16.9219 32.625 16.2459 32.625 15.4122V10.5565C32.625 9.72284 31.9508 9.04688 31.1192 9.04688Z" fill="url(#paint33_radial_698_1909)"/>
<path d="M18.0055 3.42188C16.1373 3.42188 14.625 4.96214 14.625 6.86482V33.7969H21.3749V6.86482C21.3861 4.96214 19.8737 3.42188 18.0055 3.42188Z" fill="url(#paint34_linear_698_1909)"/>
<path d="M18.0055 3.42188C16.1373 3.42188 14.625 4.96214 14.625 6.86482V33.7969H21.3749V6.86482C21.3861 4.96214 19.8737 3.42188 18.0055 3.42188Z" fill="url(#paint35_linear_698_1909)"/>
<path d="M18.0055 3.42188C16.1373 3.42188 14.625 4.96214 14.625 6.86482V33.7969H21.3749V6.86482C21.3861 4.96214 19.8737 3.42188 18.0055 3.42188Z" fill="url(#paint36_radial_698_1909)"/>
<path d="M18.0055 3.42188C16.1373 3.42188 14.625 4.96214 14.625 6.86482V33.7969H21.3749V6.86482C21.3861 4.96214 19.8737 3.42188 18.0055 3.42188Z" fill="url(#paint37_radial_698_1909)"/>
<path d="M18.0055 3.42188C16.1373 3.42188 14.625 4.96214 14.625 6.86482V33.7969H21.3749V6.86482C21.3861 4.96214 19.8737 3.42188 18.0055 3.42188Z" fill="url(#paint38_linear_698_1909)"/>
<path d="M18.0055 3.42188C16.1373 3.42188 14.625 4.96214 14.625 6.86482V33.7969H21.3749V6.86482C21.3861 4.96214 19.8737 3.42188 18.0055 3.42188Z" fill="url(#paint39_radial_698_1909)"/>
<path d="M18.0055 3.42188C16.1373 3.42188 14.625 4.96214 14.625 6.86482V33.7969H21.3749V6.86482C21.3861 4.96214 19.8737 3.42188 18.0055 3.42188Z" fill="url(#paint40_radial_698_1909)"/>
<path d="M18.0055 3.42188C16.1373 3.42188 14.625 4.96214 14.625 6.86482V33.7969H21.3749V6.86482C21.3861 4.96214 19.8737 3.42188 18.0055 3.42188Z" fill="url(#paint41_linear_698_1909)"/>
<defs>
<radialGradient id="paint0_radial_698_1909" cx="0" cy="0" r="1" gradientUnits="userSpaceOnUse" gradientTransform="translate(29.8171 4.66733) rotate(161.323) scale(4.49519 9.68304)">
<stop stop-color="#FB5157" stop-opacity="0.35"/>
<stop offset="0.760014" stop-color="#FB5157" stop-opacity="0.155599"/>
<stop offset="1" stop-color="#FB5157" stop-opacity="0"/>
</radialGradient>
<radialGradient id="paint1_radial_698_1909" cx="0" cy="0" r="1" gradientUnits="userSpaceOnUse" gradientTransform="translate(24.067 7.76826) rotate(-30.6716) scale(6.46319 6.1702)">
<stop stop-color="#FB5157" stop-opacity="0"/>
<stop offset="0.785828" stop-color="#FB5157" stop-opacity="0"/>
<stop offset="0.817688" stop-color="#FB5157" stop-opacity="0.153978"/>
<stop offset="0.841351" stop-color="#FB5157" stop-opacity="0.327228"/>
<stop offset="0.876786" stop-color="#FB5157" stop-opacity="0.68"/>
<stop offset="0.907275" stop-color="#FB5157" stop-opacity="0.867629"/>
<stop offset="0.926291" stop-color="#FB5157" stop-opacity="0.86"/>
<stop offset="0.957593" stop-color="#FB5157" stop-opacity="0.682713"/>
<stop offset="1" stop-color="#FB5157" stop-opacity="0"/>
</radialGradient>
<linearGradient id="paint2_linear_698_1909" x1="25.5489" y1="9.58711" x2="25.5489" y2="7.49733" gradientUnits="userSpaceOnUse">
<stop offset="0.281039" stop-color="#CE280A"/>
<stop offset="0.773458" stop-color="#CE280A" stop-opacity="0.223506"/>
<stop offset="1" stop-color="#CE280A" stop-opacity="0"/>
</linearGradient>
<radialGradient id="paint3_radial_698_1909" cx="0" cy="0" r="1" gradientUnits="userSpaceOnUse" gradientTransform="translate(30.0233 8.69904) rotate(-132.522) scale(1.89147 8.04351)">
<stop stop-color="#DE2236"/>
<stop offset="0.499788" stop-color="#DE2236"/>
<stop offset="0.782723" stop-color="#DE2236" stop-opacity="0.222514"/>
<stop offset="1" stop-color="#DE2236" stop-opacity="0"/>
</radialGradient>
<radialGradient id="paint4_radial_698_1909" cx="0" cy="0" r="1" gradientUnits="userSpaceOnUse" gradientTransform="translate(25.649 1.61785) rotate(69.6521) scale(2.38106 10.1255)">
<stop stop-color="#DE2236"/>
<stop offset="0.499788" stop-color="#DE2236"/>
<stop offset="0.780931" stop-color="#DE2236" stop-opacity="0.222514"/>
<stop offset="1" stop-color="#DE2236" stop-opacity="0"/>
</radialGradient>
<linearGradient id="paint5_linear_698_1909" x1="22.3214" y1="4.11543" x2="23.3595" y2="5.30846" gradientUnits="userSpaceOnUse">
<stop stop-color="#B23C3E"/>
<stop offset="0.692708" stop-color="#B23C3E" stop-opacity="0.259759"/>
<stop offset="1" stop-color="#B23C3E" stop-opacity="0"/>
</linearGradient>
<radialGradient id="paint6_radial_698_1909" cx="0" cy="0" r="1" gradientUnits="userSpaceOnUse" gradientTransform="translate(26.5866 9.26295) rotate(-78.9407) scale(6.83492 6.95524)">
<stop stop-color="#B23C3E" stop-opacity="0"/>
<stop offset="0.831316" stop-color="#B23C3E" stop-opacity="0"/>
<stop offset="0.877061" stop-color="#B23C3E" stop-opacity="0.259759"/>
<stop offset="0.936366" stop-color="#B23C3E" stop-opacity="0.626319"/>
<stop offset="1" stop-color="#B23C3E"/>
</radialGradient>
<linearGradient id="paint7_linear_698_1909" x1="13.8809" y1="3.75313" x2="11.9128" y2="9.04725" gradientUnits="userSpaceOnUse">
<stop stop-color="#DF2332"/>
<stop offset="1" stop-color="#D9213B"/>
</linearGradient>
<linearGradient id="paint8_linear_698_1909" x1="10.5849" y1="9.58711" x2="10.5849" y2="7.49733" gradientUnits="userSpaceOnUse">
<stop offset="0.175365" stop-color="#CE280A"/>
<stop offset="0.776867" stop-color="#CE280A" stop-opacity="0.211088"/>
<stop offset="1" stop-color="#CE280A" stop-opacity="0"/>
</linearGradient>
<radialGradient id="paint9_radial_698_1909" cx="0" cy="0" r="1" gradientUnits="userSpaceOnUse" gradientTransform="translate(15.2306 9.36942) rotate(-173.603) scale(2.89146 7.60508)">
<stop offset="0.150943" stop-color="#BD1123"/>
<stop offset="1" stop-color="#BD1123" stop-opacity="0"/>
</radialGradient>
<radialGradient id="paint10_radial_698_1909" cx="0" cy="0" r="1" gradientUnits="userSpaceOnUse" gradientTransform="translate(6.83727 8.79552) rotate(-57.1306) scale(1.75532 8.30988)">
<stop stop-color="#B23C3E"/>
<stop offset="0.664656" stop-color="#B23C3E" stop-opacity="0.326073"/>
<stop offset="1" stop-color="#B23C3E" stop-opacity="0"/>
</radialGradient>
<radialGradient id="paint11_radial_698_1909" cx="0" cy="0" r="1" gradientUnits="userSpaceOnUse" gradientTransform="translate(13.6111 8.71362) rotate(-141.705) scale(8.24134 6.41697)">
<stop stop-color="#B23C3E" stop-opacity="0"/>
<stop offset="0.831316" stop-color="#B23C3E" stop-opacity="0"/>
<stop offset="0.879941" stop-color="#B23C3E" stop-opacity="0.259759"/>
<stop offset="0.936366" stop-color="#B23C3E" stop-opacity="0.626319"/>
<stop offset="1" stop-color="#B23C3E"/>
</radialGradient>
<radialGradient id="paint12_radial_698_1909" cx="0" cy="0" r="1" gradientUnits="userSpaceOnUse" gradientTransform="translate(13.745 5.03464) rotate(125.49) scale(2.82403 6.31036)">
<stop stop-color="#FB5157" stop-opacity="0.73"/>
<stop offset="0.177703" stop-color="#FB5157" stop-opacity="0.68"/>
<stop offset="0.490193" stop-color="#FB5157" stop-opacity="0.303009"/>
<stop offset="0.722196" stop-color="#FB5157" stop-opacity="0.04"/>
<stop offset="1" stop-color="#FB5157" stop-opacity="0"/>
</radialGradient>
<radialGradient id="paint13_radial_698_1909" cx="0" cy="0" r="1" gradientUnits="userSpaceOnUse" gradientTransform="translate(13.7171 5.10818) rotate(128.157) scale(0.97993 6.48003)">
<stop stop-color="#FB5157" stop-opacity="0.95"/>
<stop offset="0.202351" stop-color="#FB5157" stop-opacity="0.79"/>
<stop offset="0.490193" stop-color="#FB5157" stop-opacity="0.303009"/>
<stop offset="0.722196" stop-color="#FB5157" stop-opacity="0.04"/>
<stop offset="1" stop-color="#FB5157" stop-opacity="0"/>
</radialGradient>
<radialGradient id="paint14_radial_698_1909" cx="0" cy="0" r="1" gradientUnits="userSpaceOnUse" gradientTransform="translate(11.6517 3.73035) rotate(116.369) scale(0.733051 2.4353)">
<stop stop-color="#FB5157" stop-opacity="0.73"/>
<stop offset="0.177703" stop-color="#FB5157" stop-opacity="0.68"/>
<stop offset="0.424401" stop-color="#FB5157" stop-opacity="0.303009"/>
<stop offset="0.722196" stop-color="#FB5157" stop-opacity="0.04"/>
<stop offset="1" stop-color="#FB5157" stop-opacity="0"/>
</radialGradient>
<radialGradient id="paint15_radial_698_1909" cx="0" cy="0" r="1" gradientUnits="userSpaceOnUse" gradientTransform="translate(10.7415 3.29686) rotate(97.1935) scale(0.820206 2.72485)">
<stop stop-color="#FB5157" stop-opacity="0.73"/>
<stop offset="0.177703" stop-color="#FB5157" stop-opacity="0.68"/>
<stop offset="0.424401" stop-color="#FB5157" stop-opacity="0.303009"/>
<stop offset="0.722196" stop-color="#FB5157" stop-opacity="0.04"/>
<stop offset="1" stop-color="#FB5157" stop-opacity="0"/>
</radialGradient>
<linearGradient id="paint16_linear_698_1909" x1="5.625" y1="27.6797" x2="30.375" y2="27.6797" gradientUnits="userSpaceOnUse">
<stop stop-color="#F1A738"/>
<stop offset="1" stop-color="#FAD42C"/>
</linearGradient>
<linearGradient id="paint17_linear_698_1909" x1="30.7205" y1="26.8359" x2="27.5409" y2="26.8359" gradientUnits="userSpaceOnUse">
<stop stop-color="#FFF733"/>
<stop offset="0.720904" stop-color="#FFF733" stop-opacity="0.136144"/>
<stop offset="1" stop-color="#FFF733" stop-opacity="0"/>
</linearGradient>
<linearGradient id="paint18_linear_698_1909" x1="18" y1="15.2273" x2="18" y2="18.3281" gradientUnits="userSpaceOnUse">
<stop stop-color="#C97525"/>
<stop offset="0.808655" stop-color="#C97525" stop-opacity="0.142955"/>
<stop offset="1" stop-color="#C97525" stop-opacity="0"/>
</linearGradient>
<radialGradient id="paint19_radial_698_1909" cx="0" cy="0" r="1" gradientUnits="userSpaceOnUse" gradientTransform="translate(3.12606 28.211) scale(9.04518 25.6597)">
<stop offset="0.215641" stop-color="#DE7550" stop-opacity="0.12"/>
<stop offset="0.648277" stop-color="#DE7550" stop-opacity="0.158562"/>
<stop offset="1" stop-color="#DE7550" stop-opacity="0"/>
</radialGradient>
<radialGradient id="paint20_radial_698_1909" cx="0" cy="0" r="1" gradientUnits="userSpaceOnUse" gradientTransform="translate(14.8774 24.0234) rotate(-180) scale(2.20786 22.3646)">
<stop stop-color="#C87C28"/>
<stop offset="0.736532" stop-color="#C87C28" stop-opacity="0.111376"/>
<stop offset="1" stop-color="#C87C28" stop-opacity="0"/>
</radialGradient>
<linearGradient id="paint21_linear_698_1909" x1="5.40885" y1="25.3594" x2="9.14654" y2="25.3594" gradientUnits="userSpaceOnUse">
<stop offset="0.062763" stop-color="#C2773F"/>
<stop offset="0.557292" stop-color="#C2773F" stop-opacity="0.319771"/>
<stop offset="0.751516" stop-color="#C2773F" stop-opacity="0.13"/>
<stop offset="0.869792" stop-color="#C2773F" stop-opacity="0.0544971"/>
<stop offset="1" stop-color="#C2773F" stop-opacity="0"/>
</linearGradient>
<linearGradient id="paint22_linear_698_1909" x1="18.5771" y1="34.8276" x2="18.5771" y2="30.7578" gradientUnits="userSpaceOnUse">
<stop stop-color="#E68370"/>
<stop offset="0.696478" stop-color="#E68370" stop-opacity="0.202348"/>
<stop offset="0.81579" stop-color="#E68370" stop-opacity="0.0982455"/>
<stop offset="1" stop-color="#E68370" stop-opacity="0"/>
</linearGradient>
<radialGradient id="paint23_radial_698_1909" cx="0" cy="0" r="1" gradientUnits="userSpaceOnUse" gradientTransform="translate(8.62625 35.5424) rotate(-90) scale(5.18995 14.7231)">
<stop offset="0.215641" stop-color="#DE7550"/>
<stop offset="0.804562" stop-color="#DE7550" stop-opacity="0.158562"/>
<stop offset="1" stop-color="#DE7550" stop-opacity="0"/>
</radialGradient>
<radialGradient id="paint24_radial_698_1909" cx="0" cy="0" r="1" gradientUnits="userSpaceOnUse" gradientTransform="translate(8.84864 16.5443) rotate(88.2101) scale(1.23439 7.70262)">
<stop stop-color="#DE7550"/>
<stop offset="0.768755" stop-color="#DE7550" stop-opacity="0.158562"/>
<stop offset="1" stop-color="#DE7550" stop-opacity="0"/>
</radialGradient>
<linearGradient id="paint25_linear_698_1909" x1="32.625" y1="13.5323" x2="3.37519" y2="13.4567" gradientUnits="userSpaceOnUse">
<stop stop-color="#F6D729"/>
<stop offset="1" stop-color="#F39B3A"/>
</linearGradient>
<linearGradient id="paint26_linear_698_1909" x1="32.625" y1="12.9844" x2="30.6817" y2="12.9844" gradientUnits="userSpaceOnUse">
<stop stop-color="#FFF850"/>
<stop offset="0.695278" stop-color="#FFF850" stop-opacity="0.15634"/>
<stop offset="1" stop-color="#FFF850" stop-opacity="0"/>
</linearGradient>
<radialGradient id="paint27_radial_698_1909" cx="0" cy="0" r="1" gradientUnits="userSpaceOnUse" gradientTransform="translate(27.5527 8.934) rotate(90) scale(1.97623 12.2607)">
<stop stop-color="#FFF850" stop-opacity="0.6"/>
<stop offset="0.671477" stop-color="#FFF850" stop-opacity="0.15634"/>
<stop offset="1" stop-color="#FFF850" stop-opacity="0"/>
</radialGradient>
<radialGradient id="paint28_radial_698_1909" cx="0" cy="0" r="1" gradientUnits="userSpaceOnUse" gradientTransform="translate(10.2607 9.06234) rotate(90) scale(2.71725 16.8581)">
<stop stop-color="#FFF850" stop-opacity="0.6"/>
<stop offset="0.671477" stop-color="#FFF850" stop-opacity="0.15634"/>
<stop offset="1" stop-color="#FFF850" stop-opacity="0"/>
</radialGradient>
<radialGradient id="paint29_radial_698_1909" cx="0" cy="0" r="1" gradientUnits="userSpaceOnUse" gradientTransform="translate(31.6977 10.2804) rotate(-123.341) scale(1.22872 1.93314)">
<stop stop-color="white" stop-opacity="0.64"/>
<stop offset="0.672805" stop-color="white" stop-opacity="0.15634"/>
<stop offset="0.870446" stop-color="white" stop-opacity="0.0479534"/>
<stop offset="1" stop-color="white" stop-opacity="0"/>
</radialGradient>
<linearGradient id="paint30_linear_698_1909" x1="18" y1="17.2804" x2="18" y2="15.1335" gradientUnits="userSpaceOnUse">
<stop offset="0.125527" stop-color="#E8AF21"/>
<stop offset="0.769626" stop-color="#E8AF21" stop-opacity="0.18586"/>
<stop offset="1" stop-color="#E8AF21" stop-opacity="0"/>
</linearGradient>
<radialGradient id="paint31_radial_698_1909" cx="0" cy="0" r="1" gradientUnits="userSpaceOnUse" gradientTransform="translate(6.92193 17.7365) rotate(-90) scale(2.42198 17.4)">
<stop offset="0.215641" stop-color="#DE7550"/>
<stop offset="0.804562" stop-color="#DE7550" stop-opacity="0.158562"/>
<stop offset="1" stop-color="#DE7550" stop-opacity="0"/>
</radialGradient>
<linearGradient id="paint32_linear_698_1909" x1="3.3947" y1="13.46" x2="5.31372" y2="13.46" gradientUnits="userSpaceOnUse">
<stop stop-color="#BE7841"/>
<stop offset="0.606593" stop-color="#BE7841" stop-opacity="0.217187"/>
<stop offset="0.8324" stop-color="#BE7841" stop-opacity="0.0717493"/>
<stop offset="1" stop-color="#BE7841" stop-opacity="0"/>
</linearGradient>
<radialGradient id="paint33_radial_698_1909" cx="0" cy="0" r="1" gradientUnits="userSpaceOnUse" gradientTransform="translate(15.693 14.1445) rotate(180) scale(2.84765 19.7227)">
<stop offset="0.188888" stop-color="#C57E10" stop-opacity="0.7"/>
<stop offset="0.763803" stop-color="#C57E10" stop-opacity="0.145026"/>
<stop offset="0.885514" stop-color="#C57E10" stop-opacity="0.072038"/>
<stop offset="1" stop-color="#C57E10" stop-opacity="0"/>
</radialGradient>
<linearGradient id="paint34_linear_698_1909" x1="18.0088" y1="3.42391" x2="18.0088" y2="33.7955" gradientUnits="userSpaceOnUse">
<stop stop-color="#D12136"/>
<stop offset="1" stop-color="#B6246E"/>
</linearGradient>
<linearGradient id="paint35_linear_698_1909" x1="14.7235" y1="18.8893" x2="15.3149" y2="18.8893" gradientUnits="userSpaceOnUse">
<stop stop-color="#BA1A27"/>
<stop offset="0.589026" stop-color="#BA1A27" stop-opacity="0.261528"/>
<stop offset="1" stop-color="#BA1A27" stop-opacity="0"/>
</linearGradient>
<radialGradient id="paint36_radial_698_1909" cx="0" cy="0" r="1" gradientUnits="userSpaceOnUse" gradientTransform="translate(15.2866 4.76912) rotate(23.4986) scale(0.799117 4.45249)">
<stop stop-color="#BA1A27"/>
<stop offset="0.589026" stop-color="#BA1A27" stop-opacity="0.261528"/>
<stop offset="1" stop-color="#BA1A27" stop-opacity="0"/>
</radialGradient>
<radialGradient id="paint37_radial_698_1909" cx="0" cy="0" r="1" gradientUnits="userSpaceOnUse" gradientTransform="translate(16.2743 3.86103) rotate(60.7086) scale(0.748947 4.17295)">
<stop stop-color="#BA1A27"/>
<stop offset="0.589026" stop-color="#BA1A27" stop-opacity="0.261528"/>
<stop offset="1" stop-color="#BA1A27" stop-opacity="0"/>
</radialGradient>
<linearGradient id="paint38_linear_698_1909" x1="21.3239" y1="21.0599" x2="20.4065" y2="21.0599" gradientUnits="userSpaceOnUse">
<stop stop-color="#E44D57"/>
<stop offset="0.509552" stop-color="#E44D57" stop-opacity="0.272435"/>
<stop offset="0.705965" stop-color="#E44D57" stop-opacity="0.0833426"/>
<stop offset="1" stop-color="#E44D57" stop-opacity="0"/>
</linearGradient>
<radialGradient id="paint39_radial_698_1909" cx="0" cy="0" r="1" gradientUnits="userSpaceOnUse" gradientTransform="translate(10.0447 22.1469) rotate(-58.9068) scale(20.4796 17.3601)">
<stop stop-color="#E44D57" stop-opacity="0"/>
<stop offset="0.960718" stop-color="#E44D57" stop-opacity="0"/>
<stop offset="0.976618" stop-color="#E44D57" stop-opacity="0.224248"/>
<stop offset="1" stop-color="#E44D57"/>
</radialGradient>
<radialGradient id="paint40_radial_698_1909" cx="0" cy="0" r="1" gradientUnits="userSpaceOnUse" gradientTransform="translate(20.993 5.38588) rotate(151.512) scale(0.724198 2.55827)">
<stop stop-color="#E44D57"/>
<stop offset="0.508631" stop-color="#E44D57" stop-opacity="0.272435"/>
<stop offset="1" stop-color="#E44D57" stop-opacity="0"/>
</radialGradient>
<linearGradient id="paint41_linear_698_1909" x1="18" y1="34.084" x2="18" y2="30.6914" gradientUnits="userSpaceOnUse">
<stop stop-color="#B3368C"/>
<stop offset="1" stop-color="#B3368C" stop-opacity="0"/>
</linearGradient>
</defs>
</svg>
