<?xml version="1.0" encoding="utf-8"?><svg xmlns="http://www.w3.org/2000/svg" xmlns:xlink="http://www.w3.org/1999/xlink"><symbol viewBox="0 0 20 11" id="arrow-down"><path fill-rule="evenodd" clip-rule="evenodd" d="M19.707.293a1 1 0 010 1.414l-9 9a1 1 0 01-1.414 0l-9-9A1 1 0 011.707.293L10 8.586 18.293.293a1 1 0 011.414 0z"/></symbol><symbol viewBox="0 0 13 22" id="icon-arrow"><path fill-rule="evenodd" clip-rule="evenodd" d="M.586.586a2 2 0 012.828 0l9 9a2 2 0 010 2.828l-9 9a2 2 0 11-2.828-2.828L8.172 11 .586 3.414a2 2 0 010-2.828z"/></symbol><symbol viewBox="0 0 30 38" id="icon-calculator"><path fill-rule="evenodd" clip-rule="evenodd" d="M2.018 2.055A5.183 5.183 0 015.714.5h18.572c1.39 0 2.72.562 3.696 1.555A5.31 5.31 0 0129.5 5.778v26.444a5.31 5.31 0 01-1.518 3.723 5.183 5.183 0 01-3.696 1.555H5.714a5.183 5.183 0 01-3.696-1.555A5.31 5.31 0 01.5 32.222V5.778a5.31 5.31 0 011.518-3.723zM5.714 3.5c-.579 0-1.14.234-1.557.658a2.31 2.31 0 00-.657 1.62v26.444c0 .612.24 1.195.657 1.62.418.424.978.658 1.557.658h18.572c.579 0 1.14-.234 1.556-.658a2.311 2.311 0 00.658-1.62V5.778c0-.612-.24-1.195-.657-1.62a2.183 2.183 0 00-1.557-.658H5.714zM7.93 9.556a1.5 1.5 0 011.5-1.5H20.57a1.5 1.5 0 110 3H9.43a1.5 1.5 0 01-1.5-1.5zm0 7.555a1.5 1.5 0 011.5-1.5h.018a1.5 1.5 0 010 3H9.43a1.5 1.5 0 01-1.5-1.5zm5.571 0a1.5 1.5 0 011.5-1.5h.019a1.5 1.5 0 010 3H15a1.5 1.5 0 01-1.5-1.5zm5.571 0a1.5 1.5 0 011.5-1.5h.019a1.5 1.5 0 010 3h-.019a1.5 1.5 0 01-1.5-1.5zM7.93 22.778a1.5 1.5 0 011.5-1.5h.018a1.5 1.5 0 010 3H9.43a1.5 1.5 0 01-1.5-1.5zm5.571 0a1.5 1.5 0 011.5-1.5h.019a1.5 1.5 0 010 3H15a1.5 1.5 0 01-1.5-1.5zm7.071-1.5a1.5 1.5 0 011.5 1.5v5.666a1.5 1.5 0 11-3 0v-5.666a1.5 1.5 0 011.5-1.5zM7.93 28.444a1.5 1.5 0 011.5-1.5h.018a1.5 1.5 0 010 3H9.43a1.5 1.5 0 01-1.5-1.5zm5.571 0a1.5 1.5 0 011.5-1.5h.019a1.5 1.5 0 010 3H15a1.5 1.5 0 01-1.5-1.5z"/></symbol><symbol viewBox="0 0 30 35" id="icon-play"><path d="M8.976.94L27.43 12.85a5.673 5.673 0 011.887 2.017c.448.81.683 1.716.683 2.636 0 .92-.235 1.825-.683 2.636a5.656 5.656 0 01-1.887 2.012L8.976 34.06c-.87.561-1.88.883-2.924.932a5.93 5.93 0 01-3.003-.654A5.697 5.697 0 01.82 32.284 5.451 5.451 0 010 29.413V5.598a5.45 5.45 0 01.816-2.875A5.695 5.695 0 013.044.663 5.93 5.93 0 018.976.94z"/></symbol></svg>