<svg width="42" height="40" viewBox="0 0 42 40" fill="none" xmlns="http://www.w3.org/2000/svg">
<path d="M0 0H42V2.1H39.9V4.2H37.8V6.3H35.7V8.4H33.6V10.5H31.5V12.6H29.4V14.7H27.3V16.8H25.2V18.9H23.1V21H18.9V18.9H16.8V16.8H14.7V14.7H12.6V12.6H10.5V10.5H8.4V8.4H6.3V6.3H4.2V4.2H2.1V2.1H0V0ZM35.7 2.1H6.3V4.2H8.4V6.3H10.5V8.4H12.6V10.5H14.7V12.6H16.8V14.7H18.9V16.8H23.1V14.7H25.2V12.6H27.3V10.5H29.4V8.4H31.5V6.3H33.6V4.2H35.7V2.1Z" fill="#C2FF14"/>
<path d="M42 39.8999H0V37.7999H2.1V35.6999H4.2V33.5999H6.3V31.4999H8.4V29.3999H10.5V27.2999H12.6V25.1999H14.7V23.0999H16.8V20.9999H18.9V18.8999H23.1V20.9999H25.2V23.0999H27.3V25.1999H29.4V27.2999H31.5V29.3999H33.6V31.4999H35.7V33.5999H37.8V35.6999H39.9V37.7999H42V39.8999ZM6.3 37.7999H35.7V35.6999H33.6V33.5999H31.5V31.4999H29.4V29.3999H27.3V27.2999H25.2V25.1999H23.1V23.0999H18.9V25.1999H16.8V27.2999H14.7V29.3999H12.6V31.4999H10.5V33.5999H8.4V35.6999H6.3V37.7999Z" fill="#C2FF14"/>
</svg>
