<svg width="127" height="40" viewBox="0 0 127 40" fill="none" xmlns="http://www.w3.org/2000/svg">
<path d="M22.2861 20.2928L18.548 2.01566H15.3235L11.1288 12.8839L6.96262 2.01566H3.73813L0 20.2928H3.65252L6.02095 8.38951L10.13 20.2928H12.099L16.2366 8.38951L18.6336 20.2928H22.2861Z" fill="#141D30"/>
<path d="M34.4631 6.67348V7.57235C33.3217 6.86415 31.952 6.45557 30.4967 6.45557C26.4161 6.45557 23.1346 9.61525 23.1346 13.4831C23.1346 17.351 26.4161 20.5107 30.4967 20.5107C31.952 20.5107 33.3217 20.1021 34.4631 19.3939V20.2928H38.1156V6.67348H34.4631ZM30.6108 17.2421C28.4707 17.2421 26.9012 15.6622 26.9012 13.4831C26.9012 11.3041 28.4707 9.72421 30.6108 9.72421C32.751 9.72421 34.3204 11.3041 34.3204 13.4831C34.3204 15.6622 32.751 17.2421 30.6108 17.2421Z" fill="#141D30"/>
<path d="M48.4255 16.0981C48.4255 16.5339 47.7407 17.2693 46.7705 17.2693C45.9715 17.2693 45.2867 16.5884 45.2867 15.4716V9.80592H48.6538V6.67348H45.2867V2.0429L41.6341 2.12462V6.67348H39.8935V9.80592H41.6341V16.5339C41.6341 19.3667 43.5175 20.5107 45.9715 20.5107C48.4541 20.5107 49.995 18.8764 49.995 18.8764L48.4255 16.0981Z" fill="#141D30"/>
<path d="M59.3519 6.45557C57.9251 6.45557 56.5269 7.05482 55.4996 8.06265V0H51.8471V20.2928H55.4996V12.8022C55.4996 10.9499 56.7552 9.64249 58.4958 9.64249C60.2365 9.64249 61.4921 10.9772 61.4921 12.8022V20.2928H65.2016V12.6932C65.2016 9.17943 62.8617 6.45557 59.3519 6.45557Z" fill="#141D30"/>
<path d="M71.8015 16.8063V2.01566H68.149V20.2928H79.5917V16.8063H71.8015Z" fill="#141D30"/>
<path d="M91.6452 6.67348V7.57235C90.5038 6.86415 89.1341 6.45557 87.6788 6.45557C83.5982 6.45557 80.3167 9.61525 80.3167 13.4831C80.3167 17.351 83.5982 20.5107 87.6788 20.5107C89.1341 20.5107 90.5038 20.1021 91.6452 19.3939V20.2928H95.2977V6.67348H91.6452ZM87.7929 17.2421C85.6528 17.2421 84.0833 15.6622 84.0833 13.4831C84.0833 11.3041 85.6528 9.72421 87.7929 9.72421C89.9331 9.72421 91.5025 11.3041 91.5025 13.4831C91.5025 15.6622 89.9331 17.2421 87.7929 17.2421Z" fill="#141D30"/>
<path d="M105.948 6.45557C104.464 6.45557 103.095 6.86415 101.953 7.59959V0H98.3006V20.2928H101.953V19.3667C103.095 20.1021 104.464 20.5107 105.948 20.5107C110.029 20.5107 113.31 17.351 113.31 13.4831C113.31 9.61525 110.029 6.45557 105.948 6.45557ZM105.834 17.2421C103.665 17.2421 102.124 15.6622 102.124 13.4831C102.124 11.3041 103.665 9.72421 105.834 9.72421C107.974 9.72421 109.544 11.3041 109.544 13.4831C109.544 15.6622 107.974 17.2421 105.834 17.2421Z" fill="#141D30"/>
<path d="M121.008 20.5107C124.746 20.5107 126.8 18.7947 126.8 16.3704C126.8 11.8488 118.24 12.0395 118.24 10.5958C118.24 9.91488 119.153 9.47906 120.522 9.47906C122.919 9.47906 124.689 11.1406 124.689 11.1406L127 9.1522C127 9.1522 124.66 6.45557 120.608 6.45557C116.87 6.45557 114.844 8.1716 114.844 10.5958C114.844 15.1175 123.376 14.9268 123.376 16.3704C123.376 17.0514 122.491 17.4872 121.093 17.4872C118.696 17.4872 116.956 15.8257 116.956 15.8257L114.644 17.8141C114.644 17.8141 116.984 20.5107 121.008 20.5107Z" fill="#141D30"/>
<path d="M18.5687 31.9658C17.5881 31.9658 16.7943 32.445 16.3974 33.1581C15.9889 32.445 15.2184 31.9658 14.3079 31.9658C13.5608 31.9658 12.872 32.3224 12.4401 32.8796V32.055H11.6696V37.6265H12.4401V34.3616C12.4401 33.4033 13.2106 32.6456 14.1795 32.6456C15.1484 32.6456 15.9188 33.4033 15.9188 34.3616V37.6265H16.7009V34.3616C16.7009 33.4033 17.4597 32.6456 18.4403 32.6456C19.4209 32.6456 20.168 33.4033 20.168 34.3616V37.6265H20.9618V34.3393C20.9618 33.0133 19.9345 31.9658 18.5687 31.9658Z" fill="#141D30"/>
<path d="M27.3474 32.055V32.9576C26.7987 32.3447 25.9816 31.9658 25.0711 31.9658C23.4017 31.9658 22.0593 33.2473 22.0593 34.8407C22.0593 36.4231 23.4017 37.7157 25.0711 37.7157C25.9816 37.7157 26.7987 37.3257 27.3474 36.7239V37.6265H28.1178V32.055H27.3474ZM25.0827 37.0136C23.8337 37.0136 22.8297 36.0553 22.8297 34.8407C22.8297 33.6261 23.8337 32.6678 25.0827 32.6678C26.3435 32.6678 27.324 33.6261 27.324 34.8407C27.324 36.0553 26.3435 37.0136 25.0827 37.0136Z" fill="#141D30"/>
<path d="M32.8923 36.3785C32.8923 36.4454 32.4721 37.0359 31.8651 37.0359C31.3397 37.0359 30.7677 36.6459 30.7677 35.9216V32.7236H32.5304V32.0438H30.7677V30.1941L29.9973 30.2832V32.0438H29.0634V32.7236H29.9973V36.0888C29.9973 37.2031 30.8144 37.7157 31.725 37.7157C32.7055 37.7045 33.2776 36.9468 33.2776 36.9468L32.8923 36.3785Z" fill="#141D30"/>
<path d="M36.8456 31.9658C36.0984 31.9658 35.4097 32.3224 34.9778 32.8796V29.3361H34.2073V37.6265H34.9778V34.3616C34.9778 33.4033 35.7482 32.6567 36.7171 32.6567C37.6977 32.6567 38.4565 33.4144 38.4565 34.3727V37.6265H39.2386V34.3616C39.2386 33.0356 38.1997 31.9658 36.8456 31.9658Z" fill="#141D30"/>
<path d="M44.4896 30.5172C44.7464 30.5172 44.9566 30.3166 44.9566 30.0715C44.9566 29.8264 44.7464 29.6258 44.4896 29.6258C44.2328 29.6258 44.0227 29.8264 44.0227 30.0715C44.0227 30.3166 44.2328 30.5172 44.4896 30.5172ZM44.1044 37.6265H44.8748V32.055H44.1044V37.6265Z" fill="#141D30"/>
<path d="M48.5713 37.7157C50.0772 37.7157 50.7193 37.0136 50.7193 36.1445C50.7193 34.3504 46.9721 34.629 46.9721 33.5259C46.9721 32.9464 47.5674 32.6344 48.3846 32.6344C49.3768 32.6344 50.0889 33.3141 50.0889 33.3141L50.6376 32.8573C50.6376 32.8573 49.8204 31.9658 48.3962 31.9658C46.902 31.9658 46.2483 32.6678 46.2483 33.537C46.2483 35.331 49.9955 35.0413 49.9955 36.1556C49.9955 36.7351 49.4118 37.0471 48.583 37.0471C47.6024 37.0471 46.8904 36.3673 46.8904 36.3673L46.3417 36.8131C46.3417 36.8131 47.1588 37.7157 48.5713 37.7157Z" fill="#141D30"/>
<path d="M57.9257 36.9802C56.9451 36.9914 56.0813 36.3451 55.8128 35.4648L60.9141 34.5845C60.9141 34.5399 60.9141 34.4953 60.9024 34.4396C60.7273 33.0244 59.4549 31.9213 57.9257 31.9101C56.2564 31.9213 54.9139 33.1916 54.9139 34.7962C54.9139 35.0636 54.9489 35.3422 55.0306 35.5985C55.4159 36.8131 56.6299 37.6599 57.9257 37.6599C59.5016 37.6711 60.5172 36.5679 60.8207 35.7879L60.167 35.565C59.8985 36.2671 59.023 36.9802 57.9257 36.9802ZM57.8556 32.5898C58.8596 32.5787 59.7468 33.225 60.0386 34.1164L55.696 34.863C55.696 34.7516 55.6844 34.6736 55.6844 34.6067C55.7427 33.5036 56.6883 32.6121 57.8556 32.5898Z" fill="#141D30"/>
<path d="M65.5969 32.055L63.9159 36.5902L62.2466 32.055H61.4762L63.5307 37.6265H64.3012L66.3674 32.055H65.5969Z" fill="#141D30"/>
<path d="M69.7816 36.9802C68.801 36.9914 67.9372 36.3451 67.6687 35.4648L72.77 34.5845C72.77 34.5399 72.7701 34.4953 72.7584 34.4396C72.5833 33.0244 71.3109 31.9213 69.7816 31.9101C68.1123 31.9213 66.7698 33.1916 66.7698 34.7962C66.7698 35.0636 66.8049 35.3422 66.8866 35.5985C67.2718 36.8131 68.4859 37.6599 69.7816 37.6599C71.3575 37.6711 72.3731 36.5679 72.6767 35.7879L72.0229 35.565C71.7544 36.2671 70.8789 36.9802 69.7816 36.9802ZM69.7116 32.5898C70.7155 32.5787 71.6027 33.225 71.8945 34.1164L67.552 34.863C67.552 34.7516 67.5403 34.6736 67.5403 34.6067C67.5987 33.5036 68.5442 32.6121 69.7116 32.5898Z" fill="#141D30"/>
<path d="M76.5059 31.9658C75.7588 31.9658 75.0701 32.3224 74.6382 32.8796V32.055H73.8677V37.6265H74.6382V34.3616C74.6382 33.4033 75.397 32.6456 76.3775 32.6456C76.7161 32.6456 77.0663 32.7793 77.3698 32.991L77.6383 32.2555C77.2997 32.0661 76.9145 31.9658 76.5059 31.9658Z" fill="#141D30"/>
<path d="M82.5714 32.055L80.9722 36.0331L79.2211 32.055H78.4507L80.6103 36.9468L79.3846 40H80.155L83.3419 32.055H82.5714Z" fill="#141D30"/>
<path d="M92.2768 32.055L90.5958 36.5902L88.9148 32.055H88.2144L86.5334 36.5902L84.8641 32.055H84.0937L86.1482 37.6265H86.9186L88.5646 33.0356L90.2106 37.6265H90.981L93.0473 32.055H92.2768Z" fill="#141D30"/>
<path d="M96.889 31.9658C96.1419 31.9658 95.4532 32.3224 95.0213 32.8796V29.3361H94.2508V37.6265H95.0213V34.3616C95.0213 33.4033 95.7917 32.6567 96.7606 32.6567C97.7412 32.6567 98.5 33.4144 98.5 34.3727V37.6265H99.2821V34.3616C99.2821 33.0356 98.2432 31.9658 96.889 31.9658Z" fill="#141D30"/>
<path d="M103.4 36.9802C102.419 36.9914 101.556 36.3451 101.287 35.4648L106.388 34.5845C106.388 34.5399 106.388 34.4953 106.377 34.4396C106.202 33.0244 104.929 31.9213 103.4 31.9101C101.731 31.9213 100.388 33.1916 100.388 34.7962C100.388 35.0636 100.423 35.3422 100.505 35.5985C100.89 36.8131 102.104 37.6599 103.4 37.6599C104.976 37.6711 105.992 36.5679 106.295 35.7879L105.641 35.565C105.373 36.2671 104.497 36.9802 103.4 36.9802ZM103.33 32.5898C104.334 32.5787 105.221 33.225 105.513 34.1164L101.17 34.863C101.17 34.7516 101.159 34.6736 101.159 34.6067C101.217 33.5036 102.163 32.6121 103.33 32.5898Z" fill="#141D30"/>
<path d="M110.124 31.9658C109.377 31.9658 108.689 32.3224 108.257 32.8796V32.055H107.486V37.6265H108.257V34.3616C108.257 33.4033 109.015 32.6456 109.996 32.6456C110.334 32.6456 110.685 32.7793 110.988 32.991L111.257 32.2555C110.918 32.0661 110.533 31.9658 110.124 31.9658Z" fill="#141D30"/>
<path d="M114.492 36.9802C113.512 36.9914 112.648 36.3451 112.379 35.4648L117.481 34.5845C117.481 34.5399 117.481 34.4953 117.469 34.4396C117.294 33.0244 116.021 31.9213 114.492 31.9101C112.823 31.9213 111.48 33.1916 111.48 34.7962C111.48 35.0636 111.515 35.3422 111.597 35.5985C111.982 36.8131 113.196 37.6599 114.492 37.6599C116.068 37.6711 117.084 36.5679 117.387 35.7879L116.734 35.565C116.465 36.2671 115.59 36.9802 114.492 36.9802ZM114.422 32.5898C115.426 32.5787 116.313 33.225 116.605 34.1164L112.263 34.863C112.263 34.7516 112.251 34.6736 112.251 34.6067C112.309 33.5036 113.255 32.6121 114.422 32.5898Z" fill="#141D30"/>
</svg>
