<svg width="48" height="48" viewBox="0 0 48 48" fill="none" xmlns="http://www.w3.org/2000/svg">
<path d="M44.1667 25.8334H25.8333C25.3471 25.8334 24.8808 26.0265 24.537 26.3703C24.1932 26.7142 24 27.1805 24 27.6667V40.8333C24 41.2627 24.1507 41.6784 24.4258 42.008C24.7009 42.3376 25.083 42.5602 25.5054 42.637L43.8387 45.9704C44.1029 46.0185 44.3744 46.0079 44.6341 45.9394C44.8938 45.8709 45.1352 45.7463 45.3414 45.5742C45.5475 45.4021 45.7134 45.1869 45.8272 44.9437C45.941 44.7004 46 44.4352 46 44.1666V27.6667C46 27.1805 45.8068 26.7142 45.463 26.3703C45.1192 26.0265 44.6529 25.8334 44.1667 25.8334ZM42.3333 41.9699L27.6667 39.3034V29.5H42.3333V41.9699ZM18.5 25.8334H3.83333C3.3471 25.8334 2.88079 26.0265 2.53698 26.3703C2.19316 26.7142 2 27.1805 2 27.6667V36.8333C2 37.2627 2.15068 37.6784 2.42578 38.008C2.70088 38.3377 3.08294 38.5603 3.50536 38.6371L18.172 41.3037C18.4362 41.3518 18.7077 41.3412 18.9674 41.2727C19.227 41.2043 19.4685 41.0796 19.6747 40.9076C19.8808 40.7355 20.0467 40.5203 20.1605 40.2771C20.2743 40.0338 20.3333 39.7686 20.3333 39.5001V27.6667C20.3333 27.1805 20.1402 26.7142 19.7964 26.3703C19.4525 26.0265 18.9862 25.8334 18.5 25.8334ZM16.6667 37.3033L5.66667 35.3032V29.5H16.6667V37.3033ZM45.3414 2.42587C45.1352 2.25374 44.8938 2.12903 44.6341 2.06056C44.3745 1.99209 44.1029 1.98153 43.8387 2.02964L25.5054 5.36307C25.083 5.43986 24.7009 5.66247 24.4258 5.99208C24.1507 6.3217 24 6.73741 24 7.16674V20.3334C24 20.8196 24.1932 21.2859 24.537 21.6297C24.8808 21.9735 25.3471 22.1667 25.8333 22.1667H44.1667C44.6529 22.1667 45.1192 21.9735 45.463 21.6297C45.8068 21.2859 46 20.8196 46 20.3334V3.83343C46 3.56489 45.941 3.29964 45.8272 3.05642C45.7134 2.81319 45.5475 2.59794 45.3414 2.42587ZM42.3333 18.5001H27.6667V8.69672L42.3333 6.03021V18.5001ZM19.6747 7.09256C19.4686 6.92043 19.2271 6.79572 18.9675 6.72725C18.7078 6.65878 18.4362 6.64822 18.172 6.69633L3.50537 9.36296C3.08295 9.43977 2.70088 9.6624 2.42579 9.99203C2.15069 10.3217 2 10.7374 2 11.1667V20.3334C2 20.8196 2.19316 21.2859 2.53698 21.6297C2.88079 21.9735 3.3471 22.1667 3.83333 22.1667H18.5C18.9862 22.1667 19.4525 21.9735 19.7964 21.6297C20.1402 21.2859 20.3333 20.8196 20.3333 20.3334V8.5C20.3333 8.23148 20.2744 7.96624 20.1605 7.72303C20.0467 7.47983 19.8809 7.26459 19.6747 7.09256ZM16.6667 18.5001H5.66667V12.6968L16.6667 10.6968V18.5001Z" fill="#742DDB"/>
<path d="M42.3333 18.5001H27.6667V8.69672L42.3333 6.03021V18.5001Z" fill="#D4BEF4"/>
<path d="M42.3333 41.9699L27.6667 39.3034V29.5H42.3333V41.9699Z" fill="#D4BEF4"/>
<path d="M16.6667 37.3033L5.66667 35.3032V29.5H16.6667V37.3033Z" fill="#D4BEF4"/>
<path d="M16.6667 18.5001H5.66667V12.6968L16.6667 10.6968V18.5001Z" fill="#D4BEF4"/>
</svg>
