<svg width="257" height="60" fill="none" xmlns="http://www.w3.org/2000/svg"><path fill-rule="evenodd" clip-rule="evenodd" d="M196.156 20.921c0-4.18 2.11-5.253 5.413-4.483V28.58h-5.413v-7.659zm-14.931-5.603v43.71c0 .43.13.56.56.56h14.371V37.548h5.413v22.042H216.5V6.912h-28.743c-2.469 0-3.879 1.05-4.895 2.572-.959 1.437-1.637 3.53-1.637 5.834zM85.853 28.392V16.065c2.927 0 3.987-.468 4.71 2.384.951 3.754.996 11.275-4.71 9.944zm-14.93 30.635c0 .43.13.56.56.56h14.37V37.548c2.1 0 5.413-1.256 5.413 4.11v17.558h15.117V37.92c0-2.63-1.312-5.013-3.919-5.23.718-.5 3.546-1.61 3.546-4.483V16.065c0-2.369-1.301-5.058-2.47-6.308-1.451-1.553-3.193-2.845-6.115-2.845H70.922v52.116zm69.802.56h14.931V37.548h5.412v22.042h14.371c.43 0 .56-.13.56-.56V6.911h-14.931V28.58h-5.412V6.912h-14.931v52.677zM249.348 17.56c-1.839 0-3.919-1.768-3.919-3.362 0-1.645-.176-2.41 1.25-3.792 2.371-2.295 6.962-.79 6.962 3.045 0 2.352-1.906 4.11-4.293 4.11zm-27.623 31.009c0 4.022 1.15 8.037 4.798 9.768 4.567 2.167 21.115 2.244 25.754.074 3.234-1.512 4.723-4.987 4.723-9.655V6.911h-14.931v39.974c0 3.412-1.128 4.11-3.173 4.11-1.658 0-2.239-2.376-2.239-4.11V6.913h-14.931v41.656h-.001zm-110.302 11.02l24.636-.186v-8.966h-9.705v-12.89h9.705V28.58h-9.705V15.878h9.705V6.912h-24.636v52.677z" fill="#fff"/><path fill-rule="evenodd" clip-rule="evenodd" d="M250.094 13.636c.373.706.941 1.287 1.12 2.055-1.177-.098-.88-1.072-1.595-1.766-.449-.436-.078-.289-1.018-.289v2.055h-.746v-4.67c1.357 0 3.546-.319 3.546 1.308 0 .926-.438 1.235-1.307 1.307zm-4.106-.56c0 2.466 1.409 4.092 3.523 4.046 4.683-.103 4.695-7.408-.163-7.408-1.685 0-3.36 1.622-3.36 3.362z" fill="#fff"/><path fill-rule="evenodd" clip-rule="evenodd" d="M248.601 13.263h.933c1.623 0 1.51-1.681.56-1.681h-1.493v1.68zM13.252 50.996c.183.688.081.381.548.759l2.55 1.931c.65.43 1.129.809 1.815 1.171 7.291 3.854 15.313 4.98 23.022 1.123 2.223-1.112 5.724-3.37 7.312-5.384.254-.323.432-.468.73-.765 3.313-3.307 5.456-9.596 5.456-14.713-1.47.985-3.97 3.157-6.084 4.558l-6.571 4.071c-1.487.902-3.278 1.678-4.894 2.387-5.98 2.624-10.374 3.657-16.922 4.546-2.172.294-4.343.316-6.962.316zM0 28.207c0 5.29.75 9.595 3.468 13.714.585.886 2.435 3.406 3.203 4.08.913.8 3.383 2.904 4.34 3.127-.771-3.316-.933-9.877-.933-13.636 0-7.802 1.577-13.845 3.85-20.244a30.174 30.174 0 011.438-3.418c.74-1.471.571-1.456 1.61-3.246.589-1.015 1.14-2.13 1.688-3.167-2.492.581-4.964 1.883-7.105 3.163-.586.35-.966.646-1.557 1.057l-2.858 2.37c-.54.457-.683.859-1.217 1.397C3.16 16.186 0 22.688 0 28.207zM22.21 2.802v.374c1.126.093 4.32 1.634 5.52 2.133 1.661.69 3.651 1.74 5.244 2.598 4.675 2.52 9.628 6.058 13.359 9.792 3.19 3.194 2.707 2.656 5.596 6.168.627.763 1.08 1.469 1.664 2.256l3.145 4.699c.33-.688.746-4.776.746-5.978 0-6.09-2.405-13.012-6.577-17.14-.511-.506-.88-.904-1.398-1.403L47.89 4.933C44.6 2.449 39.284 0 34.901 0c-3.885 0-7.015.1-10.517 1.803-.731.355-1.403.82-2.174.999z" fill="#fff"/></svg>