<svg width="312" height="321" viewBox="0 0 312 321" fill="none" xmlns="http://www.w3.org/2000/svg">
<path d="M10.8946 49.061L77.4001 12.2708C77.4001 12.2708 86.5792 7.14551 92.9653 5.1957C99.3949 3.23257 109.945 2.36568 109.945 2.36568L141.783 0.243164C141.783 0.243164 153.034 1.33668 158.763 5.1957C164.813 9.27095 170.083 20.0533 170.083 20.0533L200.506 90.8039C200.506 90.8039 201.356 96.8951 200.506 100.709C199.639 104.598 196.261 109.199 196.261 109.199L132.586 152.357C132.586 152.357 121.773 158.308 114.191 160.139C106.383 162.025 93.6729 161.554 93.6729 161.554L59.7126 163.677C59.7126 163.677 50.9557 160.907 46.27 158.017C39.9161 154.098 34.2424 144.574 34.2424 144.574L1.69705 78.0688C1.69705 78.0688 -0.0586239 68.3231 1.69705 62.5037C3.53425 56.4139 10.8946 49.061 10.8946 49.061Z" fill="url(#paint0_linear_1:3963)"/>
<path d="M79.5254 12.2698C79.5254 12.2698 87.1724 8.92547 92.2605 7.31727C97.9477 5.51973 107.118 3.77974 107.118 3.77974L141.078 1.65723C141.078 1.65723 142.704 3.09489 143.201 5.19475C143.838 7.88336 139.663 10.8548 139.663 10.8548L79.5254 47.6451C79.5254 47.6451 67.5653 54.8748 59.0078 56.8427C53.0594 58.2105 43.4427 58.2577 43.4427 58.2577H14.4349C14.4349 58.2577 11.852 57.4047 11.6049 55.4276C11.2141 52.3017 16.5574 47.6451 16.5574 47.6451L79.5254 12.2698Z" fill="url(#paint1_linear_1:3963)"/>
<path d="M7.35129 82.3119C7.35129 82.3119 4.69497 74.9695 6.64379 70.9918C8.8754 66.437 17.9639 64.6243 17.9639 64.6243H39.1891C39.1891 64.6243 49.8976 67.0411 55.4617 70.9918C60.0842 74.2739 65.3668 81.6044 65.3668 81.6044L100.035 137.497C100.035 137.497 101.55 145.651 100.035 150.232C98.622 154.503 94.3745 157.307 94.3745 157.307L60.4143 158.722C60.4143 158.722 54.8145 158.562 49.0942 155.185C43.0374 151.609 36.3591 142.45 36.3591 142.45L7.35129 82.3119Z" fill="url(#paint2_linear_1:3963)"/>
<path d="M78.8153 54.0129L142.491 14.3926C142.491 14.3926 152.051 12.0255 157.349 14.3926C161.987 16.4649 166.546 23.5902 166.546 23.5902L194.847 85.8506C194.847 85.8506 198.49 91.2012 198.384 95.0481C198.285 98.6386 194.847 103.538 194.847 103.538L131.171 145.989C131.171 145.989 122.617 147.902 117.729 145.989C112.813 144.064 107.824 136.791 107.824 136.791L78.8153 87.9732C78.8153 87.9732 71.1946 79.4831 71.7404 69.5781C72.2861 59.673 78.8153 54.0129 78.8153 54.0129Z" fill="url(#paint3_linear_1:3963)"/>
<path d="M51.2489 38.8373C51.4176 39.1808 51.3468 39.6691 50.9772 40.3007C50.6119 40.9249 49.9793 41.644 49.1201 42.4122C47.4038 43.9468 44.8154 45.6487 41.7616 47.1488C38.7078 48.649 35.7788 49.6575 33.5151 50.078C32.382 50.2885 31.4262 50.3496 30.7089 50.2573C29.9831 50.1639 29.5533 49.9214 29.3846 49.578C29.2159 49.2345 29.2867 48.7462 29.6563 48.1146C30.0217 47.4904 30.6542 46.7713 31.5134 46.0031C33.2297 44.4685 35.8181 42.7666 38.8719 41.2665C41.9258 39.7663 44.8547 38.7578 47.1184 38.3373C48.2515 38.1268 49.2073 38.0657 49.9246 38.158C50.6504 38.2514 51.0802 38.4939 51.2489 38.8373Z" fill="url(#paint4_linear_1:3963)" stroke="url(#paint5_linear_1:3963)" stroke-width="0.368192"/>
<path d="M50.7093 82.5933C52.2121 81.6371 54.343 81.9009 56.6119 83.1913C58.8728 84.477 61.2241 86.7596 63.1197 89.7391C65.0154 92.7186 66.0867 95.8154 66.2935 98.4081C66.5009 101.01 65.8371 103.052 64.3342 104.008C62.8313 104.964 60.7005 104.701 58.4315 103.41C56.1707 102.124 53.8194 99.8419 51.9237 96.8624C50.028 93.8829 48.9567 90.786 48.75 88.1933C48.5425 85.5914 49.2064 83.5495 50.7093 82.5933Z" fill="url(#paint6_linear_1:3963)" stroke="url(#paint7_linear_1:3963)" stroke-width="0.368192"/>
<path d="M143.817 34.9592C149.873 32.724 156.768 36.221 159.199 42.8095C161.631 49.3981 158.661 56.5358 152.605 58.771C146.549 61.0062 139.654 57.5092 137.222 50.9206C134.791 44.3321 137.761 37.1944 143.817 34.9592Z" fill="url(#paint8_linear_1:3963)" stroke="url(#paint9_linear_1:3963)" stroke-width="0.368192"/>
<path d="M102.776 59.0127C108.832 56.7775 115.727 60.2744 118.159 66.863C120.591 73.4515 117.621 80.5893 111.565 82.8244C105.508 85.0596 98.6135 81.5627 96.1819 74.9741C93.7502 68.3856 96.7201 61.2478 102.776 59.0127Z" fill="url(#paint10_linear_1:3963)" stroke="url(#paint11_linear_1:3963)" stroke-width="0.368192"/>
<path d="M156.109 59.1662C162.165 56.931 169.06 60.428 171.491 67.0165C173.923 73.6051 170.953 80.7428 164.897 82.978C158.841 85.2132 151.946 81.7162 149.514 75.1277C147.083 68.5391 150.053 61.4014 156.109 59.1662Z" fill="url(#paint12_linear_1:3963)" stroke="url(#paint13_linear_1:3963)" stroke-width="0.368192"/>
<path d="M115.078 83.2287C121.134 80.9935 128.029 84.4905 130.46 91.079C132.892 97.6676 129.922 104.805 123.866 107.041C117.81 109.276 110.915 105.779 108.483 99.1902C106.051 92.6016 109.021 85.4639 115.078 83.2287Z" fill="url(#paint14_linear_1:3963)" stroke="url(#paint15_linear_1:3963)" stroke-width="0.368192"/>
<path d="M43.6333 126.457C45.1362 125.501 47.267 125.765 49.536 127.055C51.7969 128.341 54.1481 130.623 56.0438 133.603C57.9395 136.582 59.0108 139.679 59.2175 142.272C59.425 144.874 58.7612 146.916 57.2583 147.872C55.7554 148.828 53.6246 148.564 51.3556 147.274C49.0947 145.988 46.7435 143.706 44.8478 140.726C42.9521 137.747 41.8808 134.65 41.6741 132.057C41.4666 129.455 42.1304 127.413 43.6333 126.457Z" fill="url(#paint16_linear_1:3963)" stroke="url(#paint17_linear_1:3963)" stroke-width="0.368192"/>
<path d="M81.1469 38.8373C81.3156 39.1808 81.2448 39.6691 80.8751 40.3007C80.5098 40.9249 79.8773 41.644 79.0181 42.4122C77.3017 43.9468 74.7134 45.6487 71.6595 47.1488C68.6057 48.649 65.6767 49.6575 63.4131 50.078C62.2799 50.2885 61.3242 50.3496 60.6069 50.2573C59.8811 50.1639 59.4513 49.9214 59.2825 49.578C59.1138 49.2345 59.1846 48.7462 59.5543 48.1146C59.9196 47.4904 60.5521 46.7713 61.4113 46.0031C63.1277 44.4685 65.716 42.7666 68.7699 41.2665C71.8237 39.7663 74.7527 38.7578 77.0163 38.3373C78.1495 38.1268 79.1053 38.0657 79.8225 38.158C80.5483 38.2514 80.9782 38.4939 81.1469 38.8373Z" fill="url(#paint18_linear_1:3963)" stroke="url(#paint19_linear_1:3963)" stroke-width="0.368192"/>
<path d="M92.4664 12.6271C92.6352 12.9706 92.5644 13.4589 92.1947 14.0905C91.8294 14.7147 91.1968 15.4338 90.3377 16.202C88.6213 17.7366 86.0329 19.4385 82.9791 20.9386C79.9253 22.4388 76.9963 23.4473 74.7327 23.8678C73.5995 24.0783 72.6437 24.1394 71.9265 24.0471C71.2006 23.9537 70.7708 23.7112 70.6021 23.3678C70.4334 23.0243 70.5042 22.536 70.8739 21.9044C71.2392 21.2802 71.8717 20.5611 72.7309 19.7929C74.4473 18.2583 77.0356 16.5564 80.0895 15.0563C83.1433 13.5561 86.0722 12.5476 88.3359 12.1271C89.4691 11.9166 90.4248 11.8555 91.1421 11.9478C91.8679 12.0412 92.2977 12.2837 92.4664 12.6271Z" fill="url(#paint20_linear_1:3963)" stroke="url(#paint21_linear_1:3963)" stroke-width="0.368192"/>
<path d="M122.364 12.6271C122.533 12.9706 122.462 13.4589 122.092 14.0905C121.727 14.7147 121.095 15.4338 120.235 16.202C118.519 17.7366 115.931 19.4385 112.877 20.9386C109.823 22.4388 106.894 23.4473 104.63 23.8678C103.497 24.0783 102.541 24.1394 101.824 24.0471C101.098 23.9537 100.669 23.7112 100.5 23.3678C100.331 23.0243 100.402 22.536 100.772 21.9044C101.137 21.2802 101.769 20.5611 102.629 19.7929C104.345 18.2583 106.933 16.5564 109.987 15.0563C113.041 13.5561 115.97 12.5476 118.234 12.1271C119.367 11.9166 120.323 11.8555 121.04 11.9478C121.766 12.0412 122.195 12.2837 122.364 12.6271Z" fill="url(#paint22_linear_1:3963)" stroke="url(#paint23_linear_1:3963)" stroke-width="0.368192"/>
<g filter="url(#filter0_d_1:3963)">
<path d="M124.736 68.758L217.419 86.4457C217.419 86.4457 237.582 93.9853 247.842 102.718C256.059 109.712 259.71 114.858 265.53 123.943C269.729 130.499 274.727 141.631 274.727 141.631C274.727 141.631 281.514 156.314 283.217 166.394C284.967 176.746 284.748 182.892 283.217 193.279C281.879 202.365 276.85 215.919 276.85 215.919L245.012 297.99C245.012 297.99 236.61 311.18 228.032 314.97C218.428 319.213 201.147 314.97 201.147 314.97L121.199 294.452C121.199 294.452 107.426 291.174 99.2661 287.377C89.6779 282.916 76.6259 272.52 76.6259 272.52L46.9106 235.729C46.9106 235.729 39.7539 219.757 39.128 208.844C38.4856 197.643 44.0806 180.544 44.0806 180.544L80.1634 93.5207C80.1634 93.5207 89.328 78.9523 98.5585 73.7105C108.005 68.3459 124.736 68.758 124.736 68.758Z" fill="url(#paint24_linear_1:3963)"/>
<path d="M101.386 80.083C113.815 72.7954 131.991 76.6412 134.377 77.1909C134.557 77.2322 134.73 77.2694 134.911 77.3023L233.643 95.2532C238.831 96.1964 241.905 101.6 240.064 106.541L203.425 204.888C203.32 205.17 203.231 205.453 203.148 205.742C202.336 208.567 197.24 224.592 184.165 232.197C168.614 241.241 142.743 235.103 142.425 235.027C142.415 235.025 142.417 235.025 142.407 235.023L47.3631 212.547C42.2965 211.348 39.5007 205.905 41.4782 201.089L81.4948 103.629C81.5491 103.497 81.6059 103.368 81.6687 103.239C82.5691 101.399 89.9888 86.766 101.386 80.083Z" fill="url(#paint25_linear_1:3963)"/>
<path d="M246.236 112.224C247.144 109.878 250.384 109.676 251.576 111.89L273.302 152.238C273.305 152.245 273.305 152.244 273.308 152.251C273.419 152.462 279.659 164.352 280.382 175.596C281.586 194.317 277.032 206.243 276.85 206.711C276.844 206.726 276.842 206.733 276.836 206.748L238.638 307.939C237.773 310.23 234.654 310.527 233.372 308.44L206.2 264.207C206.129 264.091 206.07 263.978 206.017 263.854C205.388 262.377 201.141 252.106 201.141 244.224C201.141 231.279 205.734 217.022 206.074 215.983C206.089 215.939 206.102 215.901 206.119 215.858L246.236 112.224Z" fill="url(#paint26_linear_1:3963)"/>
<path d="M43.4827 222.172C42.2428 220.527 43.7308 218.23 45.7392 218.689L163.545 245.616C163.619 245.633 163.681 245.65 163.752 245.674C165.025 246.112 178.56 250.832 186.295 256.254C193.435 261.257 200.794 269.849 201.755 270.986C201.827 271.071 201.89 271.159 201.947 271.255L228.083 314.603C229.104 316.295 227.558 318.374 225.643 317.884L114.999 289.548C114.891 289.52 114.791 289.487 114.689 289.443C113.113 288.771 99.3762 282.889 92.1972 278.894C84.056 274.363 77.3257 266.936 76.6824 266.215C76.6456 266.174 76.6154 266.137 76.5821 266.092L43.4827 222.172Z" fill="url(#paint27_linear_1:3963)"/>
<path d="M135.636 106.261C138.808 114.15 133.576 123.747 123.848 127.658C114.12 131.569 103.701 128.264 100.53 120.374C97.3577 112.485 102.59 102.888 112.318 98.977C122.045 95.0662 132.464 98.371 135.636 106.261Z" fill="url(#paint28_linear_1:3963)" stroke="url(#paint29_linear_1:3963)" stroke-width="0.368192"/>
<path d="M110.662 173.202C113.833 181.092 108.601 190.689 98.8735 194.599C89.1456 198.51 78.727 195.205 75.5552 187.316C72.3834 179.426 77.6153 169.829 87.3432 165.919C97.0711 162.008 107.49 165.313 110.662 173.202Z" fill="url(#paint30_linear_1:3963)" stroke="url(#paint31_linear_1:3963)" stroke-width="0.368192"/>
<path d="M206.882 120.839C210.054 128.729 204.822 138.325 195.094 142.236C185.366 146.147 174.948 142.842 171.776 134.953C168.604 127.063 173.836 117.466 183.564 113.556C193.292 109.645 203.71 112.95 206.882 120.839Z" fill="url(#paint32_linear_1:3963)" stroke="url(#paint33_linear_1:3963)" stroke-width="0.368192"/>
<path d="M247.17 194.334C248.102 194.547 248.903 195.201 249.548 196.234C250.195 197.267 250.677 198.669 250.972 200.346C251.561 203.7 251.392 208.121 250.316 212.81C249.24 217.499 247.466 221.552 245.474 224.313C244.477 225.694 243.432 226.745 242.4 227.393C241.368 228.041 240.363 228.281 239.431 228.067C238.499 227.853 237.698 227.199 237.052 226.167C236.406 225.133 235.923 223.732 235.629 222.055C235.04 218.701 235.209 214.28 236.285 209.591C237.36 204.902 239.135 200.849 241.127 198.087C242.124 196.706 243.169 195.656 244.201 195.007C245.232 194.359 246.238 194.12 247.17 194.334Z" fill="url(#paint34_linear_1:3963)" stroke="url(#paint35_linear_1:3963)" stroke-width="0.368192"/>
<path d="M173.716 268.493C173.332 269.368 172.54 270.033 171.405 270.475C170.269 270.917 168.802 271.13 167.099 271.106C163.694 271.059 159.383 270.068 154.977 268.136C150.571 266.204 146.921 263.704 144.579 261.232C143.408 259.995 142.571 258.772 142.127 257.637C141.683 256.503 141.635 255.47 142.019 254.595C142.403 253.719 143.195 253.054 144.33 252.613C145.466 252.171 146.933 251.958 148.635 251.981C152.04 252.028 156.352 253.02 160.758 254.952C165.164 256.884 168.814 259.383 171.155 261.856C172.326 263.092 173.164 264.315 173.608 265.45C174.052 266.584 174.099 267.617 173.716 268.493Z" fill="url(#paint36_linear_1:3963)" stroke="url(#paint37_linear_1:3963)" stroke-width="0.368192"/>
<path d="M151.08 275.567C150.696 276.443 149.904 277.107 148.769 277.549C147.633 277.991 146.166 278.204 144.463 278.18C141.058 278.133 136.747 277.142 132.341 275.21C127.935 273.278 124.285 270.778 121.943 268.306C120.772 267.069 119.935 265.846 119.491 264.711C119.047 263.577 118.999 262.544 119.383 261.669C119.767 260.793 120.559 260.129 121.694 259.687C122.83 259.245 124.297 259.032 125.999 259.055C129.404 259.103 133.716 260.094 138.122 262.026C142.528 263.958 146.178 266.457 148.519 268.93C149.69 270.167 150.528 271.39 150.972 272.525C151.416 273.659 151.464 274.692 151.08 275.567Z" fill="url(#paint38_linear_1:3963)" stroke="url(#paint39_linear_1:3963)" stroke-width="0.368192"/>
<path d="M129.846 284.054C129.462 284.93 128.67 285.594 127.535 286.036C126.399 286.478 124.933 286.691 123.23 286.668C119.825 286.62 115.513 285.629 111.107 283.697C106.701 281.765 103.051 279.266 100.71 276.793C99.5387 275.556 98.7015 274.333 98.2571 273.198C97.8131 272.064 97.7656 271.031 98.1495 270.156C98.5334 269.28 99.3252 268.616 100.46 268.174C101.596 267.732 103.063 267.519 104.766 267.543C108.171 267.59 112.482 268.581 116.888 270.513C121.294 272.445 124.944 274.945 127.286 277.417C128.457 278.654 129.294 279.877 129.738 281.012C130.182 282.146 130.23 283.179 129.846 284.054Z" fill="url(#paint40_linear_1:3963)" stroke="url(#paint41_linear_1:3963)" stroke-width="0.368192"/>
<path d="M178.588 188.767C181.76 196.657 176.528 206.253 166.8 210.164C157.072 214.075 146.653 210.77 143.481 202.881C140.31 194.991 145.542 185.394 155.269 181.483C164.997 177.573 175.416 180.877 178.588 188.767Z" fill="url(#paint42_linear_1:3963)" stroke="url(#paint43_linear_1:3963)" stroke-width="0.368192"/>
<path d="M157.357 147.725C160.529 155.615 155.297 165.212 145.569 169.123C135.841 173.033 125.423 169.729 122.251 161.839C119.079 153.949 124.311 144.353 134.039 140.442C143.767 136.531 154.186 139.836 157.357 147.725Z" fill="url(#paint44_linear_1:3963)" stroke="url(#paint45_linear_1:3963)" stroke-width="0.368192"/>
</g>
<defs>
<filter id="filter0_d_1:3963" x="28.3991" y="58.8095" width="257.891" height="261.724" filterUnits="userSpaceOnUse" color-interpolation-filters="sRGB">
<feFlood flood-opacity="0" result="BackgroundImageFix"/>
<feColorMatrix in="SourceAlpha" type="matrix" values="0 0 0 0 0 0 0 0 0 0 0 0 0 0 0 0 0 0 127 0" result="hardAlpha"/>
<feOffset dx="-4.41831" dy="-3.68192"/>
<feGaussianBlur stdDeviation="3.12963"/>
<feComposite in2="hardAlpha" operator="out"/>
<feColorMatrix type="matrix" values="0 0 0 0 0 0 0 0 0 0 0 0 0 0 0 0 0 0 0.33 0"/>
<feBlend mode="normal" in2="BackgroundImageFix" result="effect1_dropShadow_1:3963"/>
<feBlend mode="normal" in="SourceGraphic" in2="effect1_dropShadow_1:3963" result="shape"/>
</filter>
<linearGradient id="paint0_linear_1:3963" x1="0.916749" y1="59.6736" x2="205.386" y2="107.076" gradientUnits="userSpaceOnUse">
<stop stop-color="#EDEDED"/>
<stop offset="0.489583" stop-color="#BCBCBC"/>
<stop offset="1" stop-color="#6C6C6C"/>
</linearGradient>
<linearGradient id="paint1_linear_1:3963" x1="12.2395" y1="54.0126" x2="143.835" y2="8.02477" gradientUnits="userSpaceOnUse">
<stop stop-color="#F4F4F4"/>
<stop offset="1" stop-color="#C0C0C0"/>
</linearGradient>
<linearGradient id="paint2_linear_1:3963" x1="53.3188" y1="64.6243" x2="53.3188" y2="158.722" gradientUnits="userSpaceOnUse">
<stop stop-color="#898989"/>
<stop offset="1" stop-color="#F1F1F1"/>
</linearGradient>
<linearGradient id="paint3_linear_1:3963" x1="113.411" y1="32.7876" x2="167.181" y2="127.593" gradientUnits="userSpaceOnUse">
<stop stop-color="#838383"/>
<stop offset="1" stop-color="#D5D5D5"/>
</linearGradient>
<linearGradient id="paint4_linear_1:3963" x1="38.7908" y1="41.1012" x2="41.8428" y2="47.3141" gradientUnits="userSpaceOnUse">
<stop stop-color="#232323"/>
<stop offset="1" stop-color="#6D6D6D"/>
</linearGradient>
<linearGradient id="paint5_linear_1:3963" x1="38.7908" y1="41.1012" x2="41.8428" y2="47.3141" gradientUnits="userSpaceOnUse">
<stop stop-color="#666666"/>
<stop offset="0.520833" stop-color="#DADADA"/>
<stop offset="1" stop-color="white"/>
</linearGradient>
<linearGradient id="paint6_linear_1:3963" x1="51.7684" y1="96.9612" x2="63.2751" y2="89.6402" gradientUnits="userSpaceOnUse">
<stop stop-color="#232323"/>
<stop offset="1" stop-color="#6D6D6D"/>
</linearGradient>
<linearGradient id="paint7_linear_1:3963" x1="51.7684" y1="96.9612" x2="63.2751" y2="89.6402" gradientUnits="userSpaceOnUse">
<stop stop-color="#666666"/>
<stop offset="0.520833" stop-color="#DADADA"/>
<stop offset="1" stop-color="white"/>
</linearGradient>
<linearGradient id="paint8_linear_1:3963" x1="137.05" y1="50.9844" x2="159.372" y2="42.7458" gradientUnits="userSpaceOnUse">
<stop stop-color="#232323"/>
<stop offset="1" stop-color="#6D6D6D"/>
</linearGradient>
<linearGradient id="paint9_linear_1:3963" x1="137.05" y1="50.9844" x2="159.372" y2="42.7458" gradientUnits="userSpaceOnUse">
<stop stop-color="#666666"/>
<stop offset="0.520833" stop-color="#DADADA"/>
<stop offset="1" stop-color="white"/>
</linearGradient>
<linearGradient id="paint10_linear_1:3963" x1="96.0092" y1="75.0379" x2="118.332" y2="66.7992" gradientUnits="userSpaceOnUse">
<stop stop-color="#232323"/>
<stop offset="1" stop-color="#6D6D6D"/>
</linearGradient>
<linearGradient id="paint11_linear_1:3963" x1="96.0092" y1="75.0379" x2="118.332" y2="66.7992" gradientUnits="userSpaceOnUse">
<stop stop-color="#666666"/>
<stop offset="0.520833" stop-color="#DADADA"/>
<stop offset="1" stop-color="white"/>
</linearGradient>
<linearGradient id="paint12_linear_1:3963" x1="149.342" y1="75.1914" x2="171.664" y2="66.9528" gradientUnits="userSpaceOnUse">
<stop stop-color="#232323"/>
<stop offset="1" stop-color="#6D6D6D"/>
</linearGradient>
<linearGradient id="paint13_linear_1:3963" x1="149.342" y1="75.1914" x2="171.664" y2="66.9528" gradientUnits="userSpaceOnUse">
<stop stop-color="#666666"/>
<stop offset="0.520833" stop-color="#DADADA"/>
<stop offset="1" stop-color="white"/>
</linearGradient>
<linearGradient id="paint14_linear_1:3963" x1="108.31" y1="99.2539" x2="130.633" y2="91.0153" gradientUnits="userSpaceOnUse">
<stop stop-color="#232323"/>
<stop offset="1" stop-color="white"/>
</linearGradient>
<linearGradient id="paint15_linear_1:3963" x1="108.31" y1="99.2539" x2="130.633" y2="91.0153" gradientUnits="userSpaceOnUse">
<stop stop-color="#666666"/>
<stop offset="0.520833" stop-color="#DADADA"/>
<stop offset="1" stop-color="white"/>
</linearGradient>
<linearGradient id="paint16_linear_1:3963" x1="44.6925" y1="140.825" x2="56.1991" y2="133.504" gradientUnits="userSpaceOnUse">
<stop stop-color="#232323"/>
<stop offset="1" stop-color="#6D6D6D"/>
</linearGradient>
<linearGradient id="paint17_linear_1:3963" x1="44.6925" y1="140.825" x2="56.1991" y2="133.504" gradientUnits="userSpaceOnUse">
<stop stop-color="#666666"/>
<stop offset="0.520833" stop-color="#DADADA"/>
<stop offset="1" stop-color="white"/>
</linearGradient>
<linearGradient id="paint18_linear_1:3963" x1="68.6887" y1="41.1012" x2="71.7407" y2="47.3141" gradientUnits="userSpaceOnUse">
<stop stop-color="#232323"/>
<stop offset="1" stop-color="#6D6D6D"/>
</linearGradient>
<linearGradient id="paint19_linear_1:3963" x1="68.6887" y1="41.1012" x2="71.7407" y2="47.3141" gradientUnits="userSpaceOnUse">
<stop stop-color="#666666"/>
<stop offset="0.520833" stop-color="#DADADA"/>
<stop offset="1" stop-color="white"/>
</linearGradient>
<linearGradient id="paint20_linear_1:3963" x1="80.0083" y1="14.891" x2="83.0603" y2="21.1039" gradientUnits="userSpaceOnUse">
<stop stop-color="#232323"/>
<stop offset="1" stop-color="#6D6D6D"/>
</linearGradient>
<linearGradient id="paint21_linear_1:3963" x1="80.0083" y1="14.891" x2="83.0603" y2="21.1039" gradientUnits="userSpaceOnUse">
<stop stop-color="#666666"/>
<stop offset="0.520833" stop-color="#DADADA"/>
<stop offset="1" stop-color="white"/>
</linearGradient>
<linearGradient id="paint22_linear_1:3963" x1="109.906" y1="14.891" x2="112.958" y2="21.1039" gradientUnits="userSpaceOnUse">
<stop stop-color="#232323"/>
<stop offset="1" stop-color="#6D6D6D"/>
</linearGradient>
<linearGradient id="paint23_linear_1:3963" x1="109.906" y1="14.891" x2="112.958" y2="21.1039" gradientUnits="userSpaceOnUse">
<stop stop-color="#666666"/>
<stop offset="0.520833" stop-color="#DADADA"/>
<stop offset="1" stop-color="white"/>
</linearGradient>
<linearGradient id="paint24_linear_1:3963" x1="69.5509" y1="119.096" x2="245.012" y2="317.197" gradientUnits="userSpaceOnUse">
<stop stop-color="#DDDDDD"/>
<stop offset="0.536458" stop-color="#BFBFBF"/>
<stop offset="1" stop-color="#6B6B6B"/>
</linearGradient>
<linearGradient id="paint25_linear_1:3963" x1="68.8412" y1="131.836" x2="211.05" y2="177.824" gradientUnits="userSpaceOnUse">
<stop stop-color="#F4F4F4"/>
<stop offset="1" stop-color="#CECECE"/>
</linearGradient>
<linearGradient id="paint26_linear_1:3963" x1="287.457" y1="186.313" x2="194.774" y2="240.084" gradientUnits="userSpaceOnUse">
<stop stop-color="#EEEEEE"/>
<stop offset="1" stop-color="#7E7E7E"/>
</linearGradient>
<linearGradient id="paint27_linear_1:3963" x1="52.5769" y1="224.521" x2="214.596" y2="313.667" gradientUnits="userSpaceOnUse">
<stop stop-color="#7B7B7B"/>
<stop offset="1" stop-color="#CDCDCD"/>
</linearGradient>
<linearGradient id="paint28_linear_1:3963" x1="112.249" y1="98.8062" x2="123.917" y2="127.829" gradientUnits="userSpaceOnUse">
<stop stop-color="#232323"/>
<stop offset="1" stop-color="#6D6D6D"/>
</linearGradient>
<linearGradient id="paint29_linear_1:3963" x1="112.249" y1="98.8062" x2="123.917" y2="127.829" gradientUnits="userSpaceOnUse">
<stop stop-color="#666666"/>
<stop offset="0.520833" stop-color="#DADADA"/>
<stop offset="1" stop-color="white"/>
</linearGradient>
<linearGradient id="paint30_linear_1:3963" x1="87.2745" y1="165.748" x2="98.9422" y2="194.77" gradientUnits="userSpaceOnUse">
<stop stop-color="#232323"/>
<stop offset="1" stop-color="#6D6D6D"/>
</linearGradient>
<linearGradient id="paint31_linear_1:3963" x1="87.2745" y1="165.748" x2="98.9422" y2="194.77" gradientUnits="userSpaceOnUse">
<stop stop-color="#666666"/>
<stop offset="0.520833" stop-color="#DADADA"/>
<stop offset="1" stop-color="white"/>
</linearGradient>
<linearGradient id="paint32_linear_1:3963" x1="183.495" y1="113.385" x2="195.163" y2="142.407" gradientUnits="userSpaceOnUse">
<stop stop-color="#232323"/>
<stop offset="1" stop-color="#6D6D6D"/>
</linearGradient>
<linearGradient id="paint33_linear_1:3963" x1="183.495" y1="113.385" x2="195.163" y2="142.407" gradientUnits="userSpaceOnUse">
<stop stop-color="#666666"/>
<stop offset="0.520833" stop-color="#DADADA"/>
<stop offset="1" stop-color="white"/>
</linearGradient>
<linearGradient id="paint34_linear_1:3963" x1="236.105" y1="209.55" x2="250.496" y2="212.851" gradientUnits="userSpaceOnUse">
<stop stop-color="#232323"/>
<stop offset="1" stop-color="#6D6D6D"/>
</linearGradient>
<linearGradient id="paint35_linear_1:3963" x1="236.105" y1="209.55" x2="250.496" y2="212.851" gradientUnits="userSpaceOnUse">
<stop stop-color="#666666"/>
<stop offset="0.520833" stop-color="#DADADA"/>
<stop offset="1" stop-color="white"/>
</linearGradient>
<linearGradient id="paint36_linear_1:3963" x1="160.832" y1="254.783" x2="154.903" y2="268.304" gradientUnits="userSpaceOnUse">
<stop stop-color="#232323"/>
<stop offset="1" stop-color="#6D6D6D"/>
</linearGradient>
<linearGradient id="paint37_linear_1:3963" x1="160.832" y1="254.783" x2="154.903" y2="268.304" gradientUnits="userSpaceOnUse">
<stop stop-color="#666666"/>
<stop offset="0.520833" stop-color="#DADADA"/>
<stop offset="1" stop-color="white"/>
</linearGradient>
<linearGradient id="paint38_linear_1:3963" x1="138.196" y1="261.857" x2="132.267" y2="275.379" gradientUnits="userSpaceOnUse">
<stop stop-color="#232323"/>
<stop offset="1" stop-color="#6D6D6D"/>
</linearGradient>
<linearGradient id="paint39_linear_1:3963" x1="138.196" y1="261.857" x2="132.267" y2="275.379" gradientUnits="userSpaceOnUse">
<stop stop-color="#666666"/>
<stop offset="0.520833" stop-color="#DADADA"/>
<stop offset="1" stop-color="white"/>
</linearGradient>
<linearGradient id="paint40_linear_1:3963" x1="116.962" y1="270.344" x2="111.033" y2="283.866" gradientUnits="userSpaceOnUse">
<stop stop-color="#232323"/>
<stop offset="1" stop-color="#6D6D6D"/>
</linearGradient>
<linearGradient id="paint41_linear_1:3963" x1="116.962" y1="270.344" x2="111.033" y2="283.866" gradientUnits="userSpaceOnUse">
<stop stop-color="#666666"/>
<stop offset="0.520833" stop-color="#DADADA"/>
<stop offset="1" stop-color="white"/>
</linearGradient>
<linearGradient id="paint42_linear_1:3963" x1="155.201" y1="181.313" x2="166.868" y2="210.335" gradientUnits="userSpaceOnUse">
<stop stop-color="#232323"/>
<stop offset="1" stop-color="#6D6D6D"/>
</linearGradient>
<linearGradient id="paint43_linear_1:3963" x1="155.201" y1="181.313" x2="166.868" y2="210.335" gradientUnits="userSpaceOnUse">
<stop stop-color="#666666"/>
<stop offset="0.520833" stop-color="#DADADA"/>
<stop offset="1" stop-color="white"/>
</linearGradient>
<linearGradient id="paint44_linear_1:3963" x1="133.97" y1="140.271" x2="145.638" y2="169.293" gradientUnits="userSpaceOnUse">
<stop stop-color="#232323"/>
<stop offset="1" stop-color="#6D6D6D"/>
</linearGradient>
<linearGradient id="paint45_linear_1:3963" x1="133.97" y1="140.271" x2="145.638" y2="169.293" gradientUnits="userSpaceOnUse">
<stop stop-color="#666666"/>
<stop offset="0.520833" stop-color="#DADADA"/>
<stop offset="1" stop-color="white"/>
</linearGradient>
</defs>
</svg>
