<svg width="33" height="32" viewBox="0 0 33 32" fill="none" xmlns="http://www.w3.org/2000/svg">
<path fill-rule="evenodd" clip-rule="evenodd" d="M16.5 3.69231C9.70265 3.69231 4.19231 9.20265 4.19231 16C4.19231 22.7974 9.70265 28.3077 16.5 28.3077C23.2974 28.3077 28.8077 22.7974 28.8077 16C28.8077 9.20265 23.2974 3.69231 16.5 3.69231ZM0.5 16C0.5 7.16344 7.66344 0 16.5 0C25.3366 0 32.5 7.16344 32.5 16C32.5 24.8366 25.3366 32 16.5 32C7.66344 32 0.5 24.8366 0.5 16Z" fill="#E9F0FC"/>
<path fill-rule="evenodd" clip-rule="evenodd" d="M14.6538 1.84615C14.6538 0.826551 15.4804 0 16.5 0C18.6011 -1.46719e-07 20.6817 0.413852 22.6229 1.21793C24.5641 2.022 26.328 3.20055 27.8137 4.68629C29.2994 6.17203 30.478 7.93586 31.2821 9.87706C32.0861 11.8183 32.5 13.8988 32.5 16C32.5 17.0196 31.6734 17.8462 30.6538 17.8462C29.6342 17.8462 28.8077 17.0196 28.8077 16C28.8077 14.3837 28.4893 12.7833 27.8708 11.2901C27.2523 9.79681 26.3457 8.44002 25.2028 7.29715C24.06 6.15427 22.7032 5.24769 21.2099 4.62917C19.7167 4.01066 18.1163 3.69231 16.5 3.69231C15.4804 3.69231 14.6538 2.86576 14.6538 1.84615Z" fill="#4996F8"/>
</svg>
