<svg width="84" height="55" viewBox="0 0 84 55" fill="none" xmlns="http://www.w3.org/2000/svg">
<g filter="url(#filter0_d_1:978)">
<path d="M29.4536 26.0024L71.3391 26.0024V33.2653C71.3391 33.2653 67.0176 39.5378 50.3964 39.5378C33.7751 39.5378 29.4536 33.2653 29.4536 33.2653V26.0024Z" fill="#C6C6C6"/>
<path fill-rule="evenodd" clip-rule="evenodd" d="M41.7536 26.0034H31.3149V34.9837C33.0926 36.2679 36.324 37.9543 41.7536 38.8725V26.0034ZM59.0397 38.8727C64.4679 37.9548 67.6992 36.2691 69.4773 34.9849V26.0034L59.0397 26.0034V38.8727Z" fill="#761018"/>
<g filter="url(#filter1_ii_1:978)">
<ellipse cx="50.3964" cy="26.2854" rx="8.8665" ry="20.9428" transform="rotate(-90 50.3964 26.2854)" fill="url(#paint0_linear_1:978)"/>
</g>
<mask id="mask0_1:978" style="mask-type:alpha" maskUnits="userSpaceOnUse" x="29" y="17" width="43" height="19">
<ellipse cx="50.3964" cy="26.2854" rx="8.8665" ry="20.9428" transform="rotate(-90 50.3964 26.2854)" fill="url(#paint1_linear_1:978)"/>
</mask>
<g mask="url(#mask0_1:978)">
<g filter="url(#filter2_ii_1:978)">
<path fill-rule="evenodd" clip-rule="evenodd" d="M31.0564 29.9867C29.8472 28.856 29.1758 27.6016 29.1758 26.2849C29.1758 24.9682 29.8472 23.7138 31.0564 22.5831L37.5832 23.8341C36.786 24.5796 36.3404 25.4081 36.3404 26.2849C36.3404 27.1616 36.786 27.9902 37.5832 28.7357L31.0564 29.9867ZM41.6503 18.0979C44.3211 17.586 47.284 17.3017 50.3941 17.3017C53.5042 17.3017 56.4671 17.586 59.1379 18.0979L56.1828 20.8612C54.4221 20.5237 52.465 20.335 50.3941 20.335C48.3232 20.335 46.3661 20.5237 44.6054 20.8612L41.6503 18.0979ZM50.3941 35.2681C47.284 35.2681 44.3211 34.9838 41.6503 34.4719L44.6054 31.7086C46.3661 32.0461 48.3232 32.2348 50.3941 32.2348C52.465 32.2348 54.4221 32.0461 56.1828 31.7086L59.1379 34.4719C56.4671 34.9838 53.5042 35.2681 50.3941 35.2681ZM71.6124 26.2849C71.6124 27.6016 70.941 28.856 69.7318 29.9867L63.205 28.7357C64.0022 27.9902 64.4478 27.1616 64.4478 26.2849C64.4478 25.4081 64.0022 24.5796 63.205 23.8341L69.7318 22.5831C70.941 23.7138 71.6124 24.9682 71.6124 26.2849Z" fill="url(#paint2_linear_1:978)"/>
</g>
</g>
<ellipse cx="50.3947" cy="26.285" rx="6.06656" ry="16.8659" transform="rotate(-90 50.3947 26.285)" fill="url(#paint3_linear_1:978)"/>
<path fill-rule="evenodd" clip-rule="evenodd" d="M33.6528 27.1964C33.5229 26.8994 33.4556 26.5953 33.4556 26.2859C33.4556 25.9766 33.5229 25.6725 33.6528 25.3755C33.7363 25.1844 34.2449 25.0533 34.7888 25.0827C35.3326 25.112 35.7057 25.2907 35.6222 25.4818C35.5076 25.7437 35.4481 26.0123 35.4481 26.2859C35.4481 26.5596 35.5076 26.8282 35.6222 27.0901C35.7057 27.2812 35.3326 27.4599 34.7888 27.4892C34.2449 27.5186 33.7363 27.3875 33.6528 27.1964ZM36.9383 23.2611C36.4945 23.1468 36.3984 22.9278 36.7237 22.7719C37.7508 22.2796 38.988 21.845 40.3892 21.4842C40.833 21.3699 41.4564 21.4036 41.7817 21.5595C42.107 21.7154 42.0109 21.9345 41.5672 22.0487C40.3301 22.3673 39.2375 22.7511 38.3308 23.1857C38.0055 23.3416 37.382 23.3753 36.9383 23.2611ZM36.9383 29.3108C37.382 29.1966 38.0055 29.2303 38.3308 29.3862C39.2375 29.8208 40.3301 30.2046 41.5672 30.5232C42.0109 30.6374 42.107 30.8565 41.7817 31.0124C41.4564 31.1683 40.833 31.202 40.3892 31.0877C38.988 30.7269 37.7508 30.2923 36.7237 29.8C36.3984 29.6441 36.4945 29.4251 36.9383 29.3108ZM46.967 20.8044C46.8834 20.6134 47.2565 20.4347 47.8004 20.4053C48.6459 20.3597 49.5115 20.3361 50.3921 20.3361C51.2728 20.3361 52.1383 20.3597 52.9838 20.4053C53.5277 20.4347 53.9008 20.6134 53.8173 20.8044C53.7337 20.9955 53.2251 21.1266 52.6813 21.0972C51.9355 21.057 51.1711 21.036 50.3921 21.036C49.6131 21.036 48.8487 21.057 48.103 21.0972C47.5591 21.1266 47.0505 20.9955 46.967 20.8044ZM46.967 31.7675C47.0505 31.5764 47.5591 31.4453 48.103 31.4747C48.8487 31.5149 49.6131 31.5359 50.3921 31.5359C51.1711 31.5359 51.9355 31.5149 52.6813 31.4747C53.2251 31.4453 53.7337 31.5764 53.8173 31.7675C53.9008 31.9585 53.5277 32.1372 52.9838 32.1666C52.1383 32.2122 51.2728 32.2358 50.3921 32.2358C49.5115 32.2358 48.6459 32.2122 47.8004 32.1666C47.2565 32.1372 46.8834 31.9585 46.967 31.7675ZM59.0025 21.5595C59.3278 21.4036 59.9513 21.3699 60.395 21.4842C61.7962 21.845 63.0335 22.2796 64.0605 22.7719C64.3858 22.9278 64.2897 23.1468 63.846 23.2611C63.4022 23.3753 62.7787 23.3416 62.4535 23.1857C61.5467 22.7511 60.4541 22.3673 59.2171 22.0487C58.7733 21.9345 58.6772 21.7154 59.0025 21.5595ZM59.0025 31.0124C58.6772 30.8565 58.7733 30.6374 59.2171 30.5232C60.4541 30.2046 61.5467 29.8208 62.4535 29.3862C62.7787 29.2303 63.4022 29.1966 63.846 29.3108C64.2897 29.4251 64.3858 29.6441 64.0605 29.8C63.0335 30.2923 61.7962 30.7269 60.395 31.0877C59.9513 31.202 59.3278 31.1683 59.0025 31.0124ZM65.9955 25.0827C66.5393 25.0533 67.0479 25.1844 67.1315 25.3755C67.2614 25.6725 67.3287 25.9766 67.3287 26.2859C67.3287 26.5953 67.2614 26.8994 67.1315 27.1964C67.0479 27.3875 66.5393 27.5186 65.9955 27.4892C65.4516 27.4599 65.0785 27.2812 65.162 27.0901C65.2766 26.8282 65.3361 26.5596 65.3361 26.2859C65.3361 26.0123 65.2766 25.7437 65.162 25.4818C65.0785 25.2907 65.4516 25.112 65.9955 25.0827Z" fill="url(#paint4_linear_1:978)"/>
<ellipse cx="50.3976" cy="26.2833" rx="5.36657" ry="15.5406" transform="rotate(-90 50.3976 26.2833)" fill="url(#paint5_linear_1:978)"/>
</g>
<g filter="url(#filter3_d_1:978)">
<path d="M30.7832 20.7197L72.6687 20.7197V27.9826C72.6687 27.9826 68.3472 34.2551 51.726 34.2551C35.1047 34.2551 30.7832 27.9826 30.7832 27.9826V20.7197Z" fill="#C6C6C6"/>
<path fill-rule="evenodd" clip-rule="evenodd" d="M43.0837 20.7207H32.645V29.701C34.4227 30.9852 37.6541 32.6716 43.0837 33.5898V20.7207ZM60.3697 33.5899C65.798 32.6721 69.0293 30.9864 70.8074 29.7022V20.7207L60.3697 20.7207V33.5899Z" fill="#761018"/>
<g filter="url(#filter4_ii_1:978)">
<ellipse cx="51.726" cy="21.0026" rx="8.8665" ry="20.9428" transform="rotate(-90 51.726 21.0026)" fill="url(#paint6_linear_1:978)"/>
</g>
<mask id="mask1_1:978" style="mask-type:alpha" maskUnits="userSpaceOnUse" x="30" y="12" width="43" height="18">
<ellipse cx="51.726" cy="21.0026" rx="8.8665" ry="20.9428" transform="rotate(-90 51.726 21.0026)" fill="url(#paint7_linear_1:978)"/>
</mask>
<g mask="url(#mask1_1:978)">
<g filter="url(#filter5_ii_1:978)">
<path fill-rule="evenodd" clip-rule="evenodd" d="M32.3865 24.705C31.1773 23.5743 30.5059 22.3199 30.5059 21.0032C30.5059 19.6864 31.1773 18.432 32.3865 17.3013L38.9133 18.5524C38.1161 19.2978 37.6705 20.1264 37.6705 21.0032C37.6705 21.8799 38.1161 22.7085 38.9133 23.4539L32.3865 24.705ZM42.9804 12.8162C45.6511 12.3042 48.6141 12.02 51.7242 12.02C54.8343 12.02 57.7972 12.3042 60.468 12.8162L57.5129 15.5794C55.7522 15.2419 53.7951 15.0533 51.7242 15.0533C49.6533 15.0533 47.6962 15.2419 45.9355 15.5794L42.9804 12.8162ZM51.7242 29.9863C48.6141 29.9863 45.6511 29.7021 42.9804 29.1901L45.9355 26.4269C47.6962 26.7644 49.6533 26.953 51.7242 26.953C53.7951 26.953 55.7522 26.7644 57.5129 26.4269L60.468 29.1901C57.7972 29.7021 54.8343 29.9863 51.7242 29.9863ZM72.9425 21.0032C72.9425 22.3199 72.2711 23.5743 71.0619 24.705L64.5351 23.4539C65.3322 22.7085 65.7779 21.8799 65.7779 21.0032C65.7779 20.1264 65.3322 19.2978 64.5351 18.5524L71.0619 17.3013C72.2711 18.432 72.9425 19.6864 72.9425 21.0032Z" fill="url(#paint8_linear_1:978)"/>
</g>
</g>
<ellipse cx="51.7233" cy="21.0023" rx="6.06656" ry="16.8659" transform="rotate(-90 51.7233 21.0023)" fill="url(#paint9_linear_1:978)"/>
<path fill-rule="evenodd" clip-rule="evenodd" d="M34.9824 21.9127C34.8525 21.6157 34.7852 21.3116 34.7852 21.0023C34.7852 20.6929 34.8525 20.3888 34.9824 20.0918C35.0659 19.9007 35.5745 19.7696 36.1184 19.799C36.6622 19.8283 37.0353 20.007 36.9518 20.1981C36.8372 20.46 36.7777 20.7286 36.7777 21.0023C36.7777 21.2759 36.8372 21.5445 36.9518 21.8064C37.0353 21.9975 36.6622 22.1762 36.1184 22.2055C35.5745 22.2349 35.0659 22.1038 34.9824 21.9127ZM38.2679 17.9774C37.8241 17.8631 37.728 17.6441 38.0533 17.4882C39.0804 16.9959 40.3176 16.5613 41.7188 16.2005C42.1626 16.0862 42.786 16.12 43.1113 16.2759C43.4366 16.4318 43.3405 16.6508 42.8967 16.765C41.6597 17.0836 40.5671 17.4674 39.6604 17.902C39.3351 18.0579 38.7116 18.0917 38.2679 17.9774ZM38.2679 24.0271C38.7116 23.9129 39.3351 23.9466 39.6604 24.1025C40.5671 24.5371 41.6597 24.9209 42.8967 25.2395C43.3405 25.3537 43.4366 25.5728 43.1113 25.7287C42.786 25.8846 42.1626 25.9183 41.7188 25.804C40.3176 25.4432 39.0804 25.0086 38.0533 24.5163C37.728 24.3604 37.8241 24.1414 38.2679 24.0271ZM48.2965 15.5207C48.213 15.3297 48.5861 15.151 49.13 15.1216C49.9755 15.076 50.8411 15.0524 51.7217 15.0524C52.6023 15.0524 53.4679 15.076 54.3134 15.1216C54.8573 15.151 55.2304 15.3297 55.1469 15.5207C55.0633 15.7118 54.5547 15.8429 54.0109 15.8135C53.2651 15.7733 52.5007 15.7524 51.7217 15.7524C50.9427 15.7524 50.1783 15.7733 49.4325 15.8135C48.8887 15.8429 48.3801 15.7118 48.2965 15.5207ZM48.2965 26.4838C48.3801 26.2927 48.8887 26.1616 49.4325 26.191C50.1783 26.2313 50.9427 26.2522 51.7217 26.2522C52.5007 26.2522 53.2651 26.2313 54.0109 26.191C54.5547 26.1616 55.0633 26.2927 55.1469 26.4838C55.2304 26.6748 54.8573 26.8535 54.3134 26.8829C53.4679 26.9285 52.6023 26.9521 51.7217 26.9521C50.8411 26.9521 49.9755 26.9285 49.13 26.8829C48.5861 26.8535 48.213 26.6748 48.2965 26.4838ZM60.3321 16.2759C60.6574 16.12 61.2808 16.0862 61.7246 16.2005C63.1258 16.5613 64.363 16.9959 65.3901 17.4882C65.7154 17.6441 65.6193 17.8631 65.1756 17.9774C64.7318 18.0917 64.1083 18.0579 63.783 17.902C62.8763 17.4674 61.7837 17.0836 60.5467 16.765C60.1029 16.6508 60.0068 16.4318 60.3321 16.2759ZM60.3321 25.7287C60.0068 25.5728 60.1029 25.3537 60.5467 25.2395C61.7837 24.9209 62.8763 24.5371 63.783 24.1025C64.1083 23.9466 64.7318 23.9129 65.1756 24.0271C65.6193 24.1414 65.7154 24.3604 65.3901 24.5163C64.363 25.0086 63.1258 25.4432 61.7246 25.804C61.2808 25.9183 60.6574 25.8846 60.3321 25.7287ZM67.3251 19.799C67.8689 19.7696 68.3775 19.9007 68.4611 20.0918C68.591 20.3888 68.6582 20.6929 68.6582 21.0023C68.6582 21.3116 68.591 21.6157 68.4611 21.9127C68.3775 22.1038 67.8689 22.2349 67.3251 22.2055C66.7812 22.1762 66.4081 21.9975 66.4916 21.8064C66.6062 21.5445 66.6657 21.2759 66.6657 21.0023C66.6657 20.7286 66.6062 20.46 66.4916 20.1981C66.4081 20.007 66.7812 19.8283 67.3251 19.799Z" fill="url(#paint10_linear_1:978)"/>
<ellipse cx="51.7257" cy="21.0016" rx="5.36657" ry="15.5406" transform="rotate(-90 51.7257 21.0016)" fill="url(#paint11_linear_1:978)"/>
</g>
<g filter="url(#filter6_d_1:978)">
<path d="M30.7832 15.4375L72.6687 15.4375V22.7004C72.6687 22.7004 68.3472 28.9729 51.726 28.9729C35.1047 28.9729 30.7832 22.7004 30.7832 22.7004V15.4375Z" fill="#C6C6C6"/>
<path fill-rule="evenodd" clip-rule="evenodd" d="M43.0837 15.438H32.645V24.4182C34.4227 25.7025 37.6541 27.3889 43.0837 28.3071V15.438ZM60.3697 28.3072C65.798 27.3894 69.0293 25.7036 70.8074 24.4195V15.438H60.3697V28.3072Z" fill="#761018"/>
<g filter="url(#filter7_ii_1:978)">
<ellipse cx="51.726" cy="15.7204" rx="8.8665" ry="20.9428" transform="rotate(-90 51.726 15.7204)" fill="url(#paint12_linear_1:978)"/>
</g>
<mask id="mask2_1:978" style="mask-type:alpha" maskUnits="userSpaceOnUse" x="30" y="6" width="43" height="19">
<ellipse cx="51.726" cy="15.7204" rx="8.8665" ry="20.9428" transform="rotate(-90 51.726 15.7204)" fill="url(#paint13_linear_1:978)"/>
</mask>
<g mask="url(#mask2_1:978)">
<g filter="url(#filter8_ii_1:978)">
<path fill-rule="evenodd" clip-rule="evenodd" d="M32.3865 19.4223C31.1773 18.2916 30.5059 17.0372 30.5059 15.7204C30.5059 14.4037 31.1773 13.1493 32.3865 12.0186L38.9133 13.2697C38.1161 14.0151 37.6705 14.8437 37.6705 15.7204C37.6705 16.5972 38.1161 17.4258 38.9133 18.1712L32.3865 19.4223ZM42.9804 7.53346C45.6511 7.02152 48.6141 6.73727 51.7242 6.73727C54.8343 6.73727 57.7972 7.02152 60.468 7.53346L57.5129 10.2967C55.7522 9.95921 53.7951 9.77055 51.7242 9.77055C49.6533 9.77055 47.6962 9.95921 45.9355 10.2967L42.9804 7.53346ZM51.7242 24.7036C48.6141 24.7036 45.6511 24.4194 42.9804 23.9074L45.9355 21.1442C47.6962 21.4817 49.6533 21.6703 51.7242 21.6703C53.7951 21.6703 55.7522 21.4817 57.5129 21.1442L60.468 23.9074C57.7972 24.4194 54.8343 24.7036 51.7242 24.7036ZM72.9425 15.7204C72.9425 17.0372 72.2711 18.2916 71.0619 19.4223L64.5351 18.1712C65.3322 17.4258 65.7779 16.5972 65.7779 15.7204C65.7779 14.8437 65.3322 14.0151 64.5351 13.2697L71.0619 12.0186C72.2711 13.1493 72.9425 14.4037 72.9425 15.7204Z" fill="url(#paint14_linear_1:978)"/>
</g>
</g>
<ellipse cx="51.7233" cy="15.7201" rx="6.06656" ry="16.8659" transform="rotate(-90 51.7233 15.7201)" fill="url(#paint15_linear_1:978)"/>
<path fill-rule="evenodd" clip-rule="evenodd" d="M34.9824 16.6315C34.8525 16.3345 34.7852 16.0304 34.7852 15.721C34.7852 15.4116 34.8525 15.1075 34.9824 14.8105C35.0659 14.6195 35.5745 14.4884 36.1184 14.5177C36.6622 14.5471 37.0353 14.7258 36.9518 14.9168C36.8372 15.1788 36.7777 15.4473 36.7777 15.721C36.7777 15.9947 36.8372 16.2632 36.9518 16.5252C37.0353 16.7163 36.6622 16.8949 36.1184 16.9243C35.5745 16.9536 35.0659 16.8226 34.9824 16.6315ZM38.2679 12.6961C37.8241 12.5819 37.728 12.3628 38.0533 12.2069C39.0804 11.7147 40.3176 11.28 41.7188 10.9192C42.1626 10.805 42.786 10.8387 43.1113 10.9946C43.4366 11.1505 43.3405 11.3695 42.8967 11.4838C41.6597 11.8024 40.5671 12.1862 39.6604 12.6208C39.3351 12.7767 38.7116 12.8104 38.2679 12.6961ZM38.2679 18.7459C38.7116 18.6316 39.3351 18.6654 39.6604 18.8213C40.5671 19.2558 41.6597 19.6397 42.8967 19.9582C43.3405 20.0725 43.4366 20.2915 43.1113 20.4474C42.786 20.6033 42.1626 20.6371 41.7188 20.5228C40.3176 20.162 39.0804 19.7273 38.0533 19.2351C37.728 19.0792 37.8241 18.8602 38.2679 18.7459ZM48.2965 10.2395C48.213 10.0484 48.5861 9.86974 49.13 9.84039C49.9755 9.79476 50.8411 9.77112 51.7217 9.77112C52.6023 9.77112 53.4679 9.79476 54.3134 9.84039C54.8573 9.86974 55.2304 10.0484 55.1469 10.2395C55.0633 10.4305 54.5547 10.5616 54.0109 10.5323C53.2651 10.492 52.5007 10.4711 51.7217 10.4711C50.9427 10.4711 50.1783 10.492 49.4325 10.5323C48.8887 10.5616 48.3801 10.4305 48.2965 10.2395ZM48.2965 21.2025C48.3801 21.0115 48.8887 20.8804 49.4325 20.9098C50.1783 20.95 50.9427 20.9709 51.7217 20.9709C52.5007 20.9709 53.2651 20.95 54.0109 20.9098C54.5547 20.8804 55.0633 21.0115 55.1469 21.2025C55.2304 21.3936 54.8573 21.5723 54.3134 21.6016C53.4679 21.6473 52.6023 21.6709 51.7217 21.6709C50.8411 21.6709 49.9755 21.6473 49.13 21.6016C48.5861 21.5723 48.213 21.3936 48.2965 21.2025ZM60.3321 10.9946C60.6574 10.8387 61.2808 10.805 61.7246 10.9192C63.1258 11.28 64.363 11.7147 65.3901 12.2069C65.7154 12.3628 65.6193 12.5819 65.1756 12.6961C64.7318 12.8104 64.1083 12.7767 63.783 12.6208C62.8763 12.1862 61.7837 11.8024 60.5467 11.4838C60.1029 11.3695 60.0068 11.1505 60.3321 10.9946ZM60.3321 20.4474C60.0068 20.2915 60.1029 20.0725 60.5467 19.9582C61.7837 19.6397 62.8763 19.2558 63.783 18.8213C64.1083 18.6654 64.7318 18.6316 65.1756 18.7459C65.6193 18.8602 65.7154 19.0792 65.3901 19.2351C64.363 19.7273 63.1258 20.162 61.7246 20.5228C61.2808 20.6371 60.6574 20.6033 60.3321 20.4474ZM67.3251 14.5177C67.8689 14.4884 68.3775 14.6195 68.4611 14.8105C68.591 15.1075 68.6582 15.4116 68.6582 15.721C68.6582 16.0304 68.591 16.3345 68.4611 16.6315C68.3775 16.8225 67.8689 16.9536 67.3251 16.9243C66.7812 16.8949 66.4081 16.7163 66.4916 16.5252C66.6062 16.2632 66.6657 15.9947 66.6657 15.721C66.6657 15.4473 66.6062 15.1788 66.4916 14.9168C66.4081 14.7258 66.7812 14.5471 67.3251 14.5177Z" fill="url(#paint16_linear_1:978)"/>
<ellipse cx="51.7257" cy="15.7199" rx="5.36657" ry="15.5406" transform="rotate(-90 51.7257 15.7199)" fill="url(#paint17_linear_1:978)"/>
</g>
<g filter="url(#filter9_d_1:978)">
<path d="M30.7832 9.49512L72.6687 9.49512V16.758C72.6687 16.758 68.3472 23.0305 51.726 23.0305C35.1047 23.0305 30.7832 16.758 30.7832 16.758V9.49512Z" fill="#C6C6C6"/>
<path fill-rule="evenodd" clip-rule="evenodd" d="M43.0837 9.49561H32.645V18.4759C34.4227 19.7601 37.6541 21.4465 43.0837 22.3647V9.49561ZM60.3697 22.3649C65.798 21.447 69.0293 19.7613 70.8074 18.4771V9.49561H60.3697V22.3649Z" fill="#761018"/>
<g filter="url(#filter10_ii_1:978)">
<ellipse cx="51.726" cy="9.77803" rx="8.8665" ry="20.9428" transform="rotate(-90 51.726 9.77803)" fill="url(#paint18_linear_1:978)"/>
</g>
<mask id="mask3_1:978" style="mask-type:alpha" maskUnits="userSpaceOnUse" x="30" y="0" width="43" height="19">
<ellipse cx="51.726" cy="9.77803" rx="8.8665" ry="20.9428" transform="rotate(-90 51.726 9.77803)" fill="url(#paint19_linear_1:978)"/>
</mask>
<g mask="url(#mask3_1:978)">
<g filter="url(#filter11_ii_1:978)">
<path fill-rule="evenodd" clip-rule="evenodd" d="M32.3865 13.4804C31.1773 12.3497 30.5059 11.0953 30.5059 9.77855C30.5059 8.46184 31.1773 7.20742 32.3865 6.07671L38.9133 7.32778C38.1161 8.07322 37.6705 8.9018 37.6705 9.77855C37.6705 10.6553 38.1161 11.4839 38.9133 12.2293L32.3865 13.4804ZM42.9804 1.59156C45.6511 1.07963 48.6141 0.795376 51.7242 0.795376C54.8343 0.795376 57.7972 1.07963 60.468 1.59156L57.5129 4.35482C55.7522 4.01732 53.7951 3.82865 51.7242 3.82865C49.6533 3.82865 47.6962 4.01732 45.9355 4.35482L42.9804 1.59156ZM51.7242 18.7617C48.6141 18.7617 45.6511 18.4775 42.9804 17.9655L45.9355 15.2023C47.6962 15.5398 49.6533 15.7284 51.7242 15.7284C53.7951 15.7284 55.7522 15.5398 57.5129 15.2023L60.468 17.9655C57.7972 18.4775 54.8343 18.7617 51.7242 18.7617ZM72.9425 9.77855C72.9425 11.0953 72.2711 12.3497 71.0619 13.4804L64.5351 12.2293C65.3322 11.4839 65.7779 10.6553 65.7779 9.77855C65.7779 8.9018 65.3322 8.07322 64.5351 7.32778L71.0619 6.0767C72.2711 7.20741 72.9425 8.46183 72.9425 9.77855Z" fill="url(#paint20_linear_1:978)"/>
</g>
</g>
<ellipse cx="51.7233" cy="9.77817" rx="6.06656" ry="16.8659" transform="rotate(-90 51.7233 9.77817)" fill="url(#paint21_linear_1:978)"/>
<path fill-rule="evenodd" clip-rule="evenodd" d="M34.9824 10.6886C34.8525 10.3916 34.7852 10.0875 34.7852 9.77814C34.7852 9.46876 34.8525 9.16468 34.9824 8.86765C35.0659 8.67659 35.5745 8.54551 36.1184 8.57486C36.6622 8.60421 37.0353 8.78289 36.9518 8.97394C36.8372 9.23592 36.7777 9.50447 36.7777 9.77814C36.7777 10.0518 36.8372 10.3203 36.9518 10.5823C37.0353 10.7734 36.6622 10.9521 36.1184 10.9814C35.5745 11.0108 35.0659 10.8797 34.9824 10.6886ZM38.2679 6.75326C37.8241 6.63898 37.728 6.41996 38.0533 6.26406C39.0804 5.77183 40.3176 5.33717 41.7188 4.97636C42.1626 4.86209 42.786 4.89583 43.1113 5.05173C43.4366 5.20763 43.3405 5.42665 42.8967 5.54093C41.6597 5.85948 40.5671 6.2433 39.6604 6.67789C39.3351 6.83379 38.7116 6.86753 38.2679 6.75326ZM38.2679 12.803C38.7116 12.6887 39.3351 12.7225 39.6604 12.8784C40.5671 13.313 41.6597 13.6968 42.8967 14.0153C43.3405 14.1296 43.4366 14.3486 43.1113 14.5045C42.786 14.6604 42.1626 14.6942 41.7188 14.5799C40.3176 14.2191 39.0804 13.7844 38.0533 13.2922C37.728 13.1363 37.8241 12.9173 38.2679 12.803ZM48.2965 4.2966C48.213 4.10555 48.5861 3.92687 49.13 3.89752C49.9755 3.85189 50.8411 3.82824 51.7217 3.82824C52.6023 3.82824 53.4679 3.85189 54.3134 3.89752C54.8573 3.92687 55.2304 4.10555 55.1469 4.2966C55.0633 4.48766 54.5547 4.61874 54.0109 4.58939C53.2651 4.54914 52.5007 4.52823 51.7217 4.52823C50.9427 4.52823 50.1783 4.54914 49.4325 4.58939C48.8887 4.61874 48.3801 4.48766 48.2965 4.2966ZM48.2965 15.2597C48.3801 15.0686 48.8887 14.9375 49.4325 14.9669C50.1783 15.0071 50.9427 15.028 51.7217 15.028C52.5007 15.028 53.2651 15.0071 54.0109 14.9669C54.5547 14.9375 55.0633 15.0686 55.1469 15.2597C55.2304 15.4507 54.8573 15.6294 54.3134 15.6588C53.4679 15.7044 52.6023 15.728 51.7217 15.728C50.8411 15.728 49.9755 15.7044 49.13 15.6588C48.5861 15.6294 48.213 15.4507 48.2965 15.2597ZM60.3321 5.05173C60.6574 4.89583 61.2808 4.86209 61.7246 4.97636C63.1258 5.33717 64.363 5.77182 65.3901 6.26406C65.7154 6.41996 65.6193 6.63898 65.1756 6.75326C64.7318 6.86753 64.1083 6.83379 63.783 6.67789C62.8763 6.2433 61.7837 5.85948 60.5467 5.54093C60.1029 5.42665 60.0068 5.20763 60.3321 5.05173ZM60.3321 14.5045C60.0068 14.3486 60.1029 14.1296 60.5467 14.0153C61.7837 13.6968 62.8763 13.313 63.783 12.8784C64.1083 12.7225 64.7318 12.6887 65.1756 12.803C65.6193 12.9173 65.7154 13.1363 65.3901 13.2922C64.363 13.7844 63.1258 14.2191 61.7246 14.5799C61.2808 14.6942 60.6574 14.6604 60.3321 14.5045ZM67.3251 8.57486C67.8689 8.54551 68.3775 8.67659 68.4611 8.86765C68.591 9.16468 68.6582 9.46876 68.6582 9.77814C68.6582 10.0875 68.591 10.3916 68.4611 10.6886C68.3775 10.8797 67.8689 11.0108 67.3251 10.9814C66.7812 10.9521 66.4081 10.7734 66.4916 10.5823C66.6062 10.3203 66.6657 10.0518 66.6657 9.77814C66.6657 9.50447 66.6062 9.23592 66.4916 8.97394C66.4081 8.78289 66.7812 8.60421 67.3251 8.57486Z" fill="url(#paint22_linear_1:978)"/>
<ellipse cx="51.7257" cy="9.77699" rx="5.36657" ry="15.5406" transform="rotate(-90 51.7257 9.77699)" fill="url(#paint23_linear_1:978)"/>
</g>
<g filter="url(#filter12_d_1:978)">
<path d="M40.7554 38.5469H82.6409V45.8098C82.6409 45.8098 78.3194 52.0822 61.6981 52.0822C45.0769 52.0822 40.7554 45.8098 40.7554 45.8098V38.5469Z" fill="#C6C6C6"/>
<path fill-rule="evenodd" clip-rule="evenodd" d="M53.0568 38.5483H42.6182V47.5286C44.3958 48.8128 47.6272 50.4993 53.0568 51.4175V38.5483ZM70.3429 51.4176C75.7711 50.4997 79.0024 48.814 80.7805 47.5299V38.5483H70.3429V51.4176Z" fill="#761018"/>
<g filter="url(#filter13_ii_1:978)">
<ellipse cx="61.6981" cy="38.8298" rx="8.8665" ry="20.9428" transform="rotate(-90 61.6981 38.8298)" fill="url(#paint24_linear_1:978)"/>
</g>
<mask id="mask4_1:978" style="mask-type:alpha" maskUnits="userSpaceOnUse" x="40" y="29" width="43" height="19">
<ellipse cx="61.6981" cy="38.8298" rx="8.8665" ry="20.9428" transform="rotate(-90 61.6981 38.8298)" fill="url(#paint25_linear_1:978)"/>
</mask>
<g mask="url(#mask4_1:978)">
<g filter="url(#filter14_ii_1:978)">
<path fill-rule="evenodd" clip-rule="evenodd" d="M42.3572 42.5321C41.148 41.4014 40.4766 40.147 40.4766 38.8303C40.4766 37.5136 41.148 36.2592 42.3572 35.1285L48.884 36.3795C48.0868 37.125 47.6412 37.9536 47.6412 38.8303C47.6412 39.7071 48.0868 40.5356 48.884 41.2811L42.3572 42.5321ZM52.9511 30.6433C55.6218 30.1314 58.5848 29.8471 61.6949 29.8471C64.805 29.8471 67.7679 30.1314 70.4387 30.6433L67.4836 33.4066C65.7229 33.0691 63.7658 32.8804 61.6949 32.8804C59.624 32.8804 57.6669 33.0691 55.9062 33.4066L52.9511 30.6433ZM61.6949 47.8135C58.5848 47.8135 55.6219 47.5292 52.9511 47.0173L55.9062 44.254C57.6669 44.5915 59.624 44.7802 61.6949 44.7802C63.7658 44.7802 65.7229 44.5915 67.4836 44.254L70.4387 47.0173C67.7679 47.5292 64.805 47.8135 61.6949 47.8135ZM82.9132 38.8303C82.9132 40.147 82.2418 41.4014 81.0326 42.5321L74.5058 41.2811C75.303 40.5356 75.7486 39.7071 75.7486 38.8303C75.7486 37.9536 75.303 37.125 74.5058 36.3795L81.0326 35.1285C82.2418 36.2592 82.9132 37.5136 82.9132 38.8303Z" fill="url(#paint26_linear_1:978)"/>
</g>
</g>
<ellipse cx="61.6955" cy="38.8299" rx="6.06656" ry="16.8659" transform="rotate(-90 61.6955 38.8299)" fill="url(#paint27_linear_1:978)"/>
<path fill-rule="evenodd" clip-rule="evenodd" d="M44.9545 39.7414C44.8246 39.4443 44.7573 39.1402 44.7573 38.8309C44.7573 38.5215 44.8246 38.2174 44.9545 37.9204C45.0381 37.7293 45.5467 37.5982 46.0905 37.6276C46.6344 37.6569 47.0075 37.8356 46.9239 38.0267C46.8094 38.2887 46.7499 38.5572 46.7499 38.8309C46.7499 39.1045 46.8094 39.3731 46.9239 39.6351C47.0075 39.8261 46.6344 40.0048 46.0905 40.0341C45.5467 40.0635 45.0381 39.9324 44.9545 39.7414ZM48.24 35.806C47.7962 35.6917 47.7002 35.4727 48.0255 35.3168C49.0525 34.8246 50.2898 34.3899 51.691 34.0291C52.1347 33.9148 52.7582 33.9486 53.0835 34.1045C53.4087 34.2604 53.3127 34.4794 52.8689 34.5937C51.6318 34.9122 50.5393 35.296 49.6325 35.7306C49.3072 35.8865 48.6838 35.9203 48.24 35.806ZM48.24 41.8558C48.6838 41.7415 49.3072 41.7752 49.6325 41.9311C50.5393 42.3657 51.6318 42.7495 52.8689 43.0681C53.3127 43.1824 53.4087 43.4014 53.0835 43.5573C52.7582 43.7132 52.1347 43.7469 51.691 43.6326C50.2898 43.2718 49.0525 42.8372 48.0255 42.3449C47.7002 42.189 47.7963 41.97 48.24 41.8558ZM58.2687 33.3493C58.1852 33.1583 58.5583 32.9796 59.1021 32.9503C59.9476 32.9046 60.8132 32.881 61.6939 32.881C62.5745 32.881 63.4401 32.9046 64.2856 32.9503C64.8294 32.9796 65.2026 33.1583 65.119 33.3493C65.0355 33.5404 64.5269 33.6715 63.983 33.6421C63.2373 33.6019 62.4729 33.581 61.6939 33.581C60.9149 33.581 60.1504 33.6019 59.4047 33.6421C58.8609 33.6715 58.3523 33.5404 58.2687 33.3493ZM58.2687 44.3124C58.3523 44.1213 58.8609 43.9903 59.4047 44.0196C60.1504 44.0599 60.9149 44.0808 61.6939 44.0808C62.4729 44.0808 63.2373 44.0599 63.983 44.0196C64.5269 43.9903 65.0355 44.1213 65.119 44.3124C65.2026 44.5035 64.8294 44.6821 64.2856 44.7115C63.4401 44.7571 62.5745 44.7808 61.6939 44.7808C60.8132 44.7808 59.9476 44.7571 59.1021 44.7115C58.5583 44.6821 58.1852 44.5035 58.2687 44.3124ZM70.3043 34.1045C70.6296 33.9486 71.253 33.9148 71.6968 34.0291C73.098 34.3899 74.3352 34.8246 75.3623 35.3168C75.6875 35.4727 75.5915 35.6917 75.1477 35.806C74.7039 35.9203 74.0805 35.8865 73.7552 35.7306C72.8484 35.296 71.7559 34.9122 70.5188 34.5937C70.0751 34.4794 69.979 34.2604 70.3043 34.1045ZM70.3043 43.5573C69.979 43.4014 70.0751 43.1824 70.5188 43.0681C71.7559 42.7495 72.8484 42.3657 73.7552 41.9311C74.0805 41.7752 74.7039 41.7415 75.1477 41.8557C75.5915 41.97 75.6875 42.189 75.3623 42.3449C74.3352 42.8372 73.098 43.2718 71.6968 43.6326C71.253 43.7469 70.6296 43.7132 70.3043 43.5573ZM77.2972 37.6276C77.8411 37.5982 78.3497 37.7293 78.4332 37.9204C78.5631 38.2174 78.6304 38.5215 78.6304 38.8309C78.6304 39.1402 78.5631 39.4443 78.4332 39.7414C78.3497 39.9324 77.8411 40.0635 77.2972 40.0341C76.7534 40.0048 76.3802 39.8261 76.4638 39.6351C76.5784 39.3731 76.6379 39.1045 76.6379 38.8309C76.6379 38.5572 76.5784 38.2887 76.4638 38.0267C76.3802 37.8356 76.7534 37.6569 77.2972 37.6276Z" fill="url(#paint28_linear_1:978)"/>
<ellipse cx="61.6983" cy="38.8283" rx="5.36657" ry="15.5406" transform="rotate(-90 61.6983 38.8283)" fill="url(#paint29_linear_1:978)"/>
</g>
<g filter="url(#filter15_d_1:978)">
<path d="M4.52197 30.4634L40.7959 9.66512L44.4526 15.955C44.4526 15.955 43.868 23.533 29.4736 31.7862C15.0792 40.0395 8.17864 36.7532 8.17864 36.7532L4.52197 30.4634Z" fill="#C6C6C6"/>
<path fill-rule="evenodd" clip-rule="evenodd" d="M15.1749 24.3558L6.13477 29.5391L10.6567 37.3173C12.8433 37.5465 16.4907 37.4018 21.6543 35.501L15.1749 24.3558ZM36.6242 26.9172C40.864 23.4259 42.8132 20.3608 43.7059 18.3661L39.1848 10.5893L30.145 15.7724L36.6242 26.9172Z" fill="#761018"/>
<g filter="url(#filter16_ii_1:978)">
<ellipse rx="8.88194" ry="20.9067" transform="matrix(-0.502599 -0.86452 0.867518 -0.497406 22.8018 20.3099)" fill="url(#paint30_linear_1:978)"/>
</g>
<mask id="mask5_1:978" style="mask-type:alpha" maskUnits="userSpaceOnUse" x="4" y="7" width="38" height="27">
<ellipse rx="8.88194" ry="20.9067" transform="matrix(-0.502599 -0.86452 0.867518 -0.497406 22.8018 20.3099)" fill="url(#paint31_linear_1:978)"/>
</mask>
<g mask="url(#mask5_1:978)">
<g filter="url(#filter17_ii_1:978)">
<path fill-rule="evenodd" clip-rule="evenodd" d="M7.9169 33.1184C6.30043 32.7396 5.0874 31.9866 4.42447 30.8463C3.76154 29.706 3.71143 28.2863 4.18934 26.7066L10.4716 24.5492C10.1566 25.5906 10.1878 26.5294 10.6292 27.2887C11.0706 28.048 11.8737 28.5443 12.9394 28.794L7.9169 33.1184ZM11.1058 17.5619C13.161 15.7924 15.5839 14.075 18.2773 12.5307C20.9707 10.9864 23.6798 9.76131 26.2505 8.8785L25.0826 12.7389C23.3878 13.3209 21.5979 14.1293 19.8045 15.1576C18.011 16.1859 16.4111 17.3211 15.0562 18.4877L11.1058 17.5619ZM27.3229 28.09C24.6295 29.6343 21.9204 30.8594 19.3497 31.7422L20.5176 27.8818C22.2124 27.2998 24.0023 26.4914 25.7957 25.4631C27.5891 24.4348 29.1891 23.2996 30.544 22.1331L34.4944 23.0588C32.4392 24.8283 30.0163 26.5457 27.3229 28.09ZM41.1757 9.7744C41.8386 10.9147 41.8887 12.3345 41.4108 13.9141L35.1285 16.0715C35.4436 15.0301 35.4124 14.0913 34.9709 13.332C34.5295 12.5727 33.7264 12.0764 32.6607 11.8267L37.6833 7.50232C39.2997 7.88112 40.5128 8.63409 41.1757 9.7744Z" fill="url(#paint32_linear_1:978)"/>
</g>
</g>
<ellipse rx="6.07712" ry="16.8369" transform="matrix(-0.502599 -0.86452 0.867518 -0.497406 22.8 20.3104)" fill="url(#paint33_linear_1:978)"/>
<path fill-rule="evenodd" clip-rule="evenodd" d="M8.76004 29.4119C8.49799 29.2191 8.28661 28.9892 8.13085 28.7213C7.97509 28.4533 7.88027 28.1566 7.84322 27.8348C7.81939 27.6279 8.19386 27.2618 8.67962 27.0172C9.16538 26.7726 9.57848 26.742 9.60231 26.949C9.63499 27.2327 9.71865 27.4949 9.85644 27.7319C9.99422 27.9689 10.181 28.1719 10.4121 28.3419C10.5806 28.4658 10.3475 28.8059 9.89125 29.1013C9.43505 29.3968 8.92859 29.5358 8.76004 29.4119ZM9.62401 24.3723C9.18215 24.4937 8.9887 24.3517 9.19191 24.0552C9.83354 23.1189 10.6862 22.1281 11.718 21.1199C12.0448 20.8006 12.6017 20.5202 12.9619 20.4937C13.3221 20.4672 13.3492 20.7046 13.0224 21.0239C12.1114 21.9141 11.3585 22.789 10.792 23.6156C10.5888 23.9121 10.0659 24.2509 9.62401 24.3723ZM12.6699 29.6116C12.9967 29.2922 13.5536 29.0119 13.9138 28.9854C14.9179 28.9115 16.0573 28.7014 17.289 28.363C17.7309 28.2416 17.9243 28.3836 17.7211 28.6801C17.5179 28.9766 16.995 29.3154 16.5531 29.4368C15.158 29.8201 13.8677 30.058 12.7304 30.1417C12.3702 30.1682 12.3431 29.9309 12.6699 29.6116ZM17.0722 17.265C16.9037 17.1411 17.1369 16.8011 17.5931 16.5056C18.3023 16.0462 19.0401 15.596 19.8027 15.1587C20.5654 14.7214 21.3269 14.3121 22.0821 13.9317C22.5679 13.6871 22.981 13.6566 23.0048 13.8635C23.0286 14.0705 22.6542 14.4365 22.1684 14.6812C21.5023 15.0166 20.8298 15.3781 20.1551 15.7649C19.4805 16.1517 18.829 16.5494 18.2035 16.9545C17.7473 17.25 17.2408 17.389 17.0722 17.265ZM22.5919 26.7593C22.568 26.5524 22.9425 26.1863 23.4283 25.9417C24.0943 25.6063 24.7669 25.2448 25.4415 24.858C26.1161 24.4712 26.7676 24.0735 27.3932 23.6683C27.8494 23.3729 28.3559 23.2338 28.5244 23.3578C28.693 23.4818 28.4598 23.8218 28.0036 24.1173C27.2943 24.5766 26.5566 25.0269 25.7939 25.4642C25.0313 25.9015 24.2698 26.3108 23.5146 26.6911C23.0288 26.9357 22.6157 26.9663 22.5919 26.7593ZM27.8755 11.9427C28.0788 11.6462 28.6017 11.3074 29.0435 11.186C30.4386 10.8027 31.729 10.5648 32.8663 10.4811C33.2265 10.4546 33.2535 10.692 32.9268 11.0113C32.6 11.3306 32.0431 11.611 31.6829 11.6375C30.6788 11.7114 29.5394 11.9215 28.3076 12.2599C27.8658 12.3813 27.6723 12.2393 27.8755 11.9427ZM32.6348 20.1291C32.2746 20.1556 32.2475 19.9182 32.5743 19.5989C33.4852 18.7088 34.2382 17.8339 34.8047 17.0073C35.0079 16.7107 35.5308 16.3719 35.9726 16.2505C36.4145 16.1291 36.608 16.2711 36.4047 16.5677C35.7631 17.5039 34.9105 18.4947 33.8787 19.5029C33.5519 19.8223 32.995 20.1026 32.6348 20.1291ZM35.7054 11.5215C36.1616 11.2261 36.6681 11.087 36.8366 11.211C37.0987 11.4037 37.31 11.6337 37.4658 11.9016C37.6216 12.1695 37.7164 12.4663 37.7534 12.788C37.7773 12.995 37.4028 13.361 36.917 13.6056C36.4313 13.8503 36.0182 13.8808 35.9943 13.6739C35.9617 13.3901 35.878 13.128 35.7402 12.891C35.6024 12.654 35.4157 12.451 35.1846 12.281C35.016 12.157 35.2492 11.817 35.7054 11.5215Z" fill="url(#paint34_linear_1:978)"/>
<ellipse rx="5.37591" ry="15.5139" transform="matrix(-0.502599 -0.86452 0.867518 -0.497406 22.8021 20.3086)" fill="url(#paint35_linear_1:978)"/>
</g>
<defs>
<filter id="filter0_d_1:978" x="28.4536" y="17.4189" width="43.8857" height="24.1187" filterUnits="userSpaceOnUse" color-interpolation-filters="sRGB">
<feFlood flood-opacity="0" result="BackgroundImageFix"/>
<feColorMatrix in="SourceAlpha" type="matrix" values="0 0 0 0 0 0 0 0 0 0 0 0 0 0 0 0 0 0 127 0" result="hardAlpha"/>
<feOffset dy="1"/>
<feGaussianBlur stdDeviation="0.5"/>
<feComposite in2="hardAlpha" operator="out"/>
<feColorMatrix type="matrix" values="0 0 0 0 0 0 0 0 0 0 0 0 0 0 0 0 0 0 0.25 0"/>
<feBlend mode="normal" in2="BackgroundImageFix" result="effect1_dropShadow_1:978"/>
<feBlend mode="normal" in="SourceGraphic" in2="effect1_dropShadow_1:978" result="shape"/>
</filter>
<filter id="filter1_ii_1:978" x="29.4536" y="14.4189" width="41.8857" height="22.7329" filterUnits="userSpaceOnUse" color-interpolation-filters="sRGB">
<feFlood flood-opacity="0" result="BackgroundImageFix"/>
<feBlend mode="normal" in="SourceGraphic" in2="BackgroundImageFix" result="shape"/>
<feColorMatrix in="SourceAlpha" type="matrix" values="0 0 0 0 0 0 0 0 0 0 0 0 0 0 0 0 0 0 127 0" result="hardAlpha"/>
<feOffset dy="-3"/>
<feGaussianBlur stdDeviation="3"/>
<feComposite in2="hardAlpha" operator="arithmetic" k2="-1" k3="1"/>
<feColorMatrix type="matrix" values="0 0 0 0 0 0 0 0 0 0 0 0 0 0 0 0 0 0 0.5 0"/>
<feBlend mode="normal" in2="shape" result="effect1_innerShadow_1:978"/>
<feColorMatrix in="SourceAlpha" type="matrix" values="0 0 0 0 0 0 0 0 0 0 0 0 0 0 0 0 0 0 127 0" result="hardAlpha"/>
<feOffset dy="2"/>
<feGaussianBlur stdDeviation="3"/>
<feComposite in2="hardAlpha" operator="arithmetic" k2="-1" k3="1"/>
<feColorMatrix type="matrix" values="0 0 0 0 0.945833 0 0 0 0 0.264045 0 0 0 0 0.298349 0 0 0 1 0"/>
<feBlend mode="normal" in2="effect1_innerShadow_1:978" result="effect2_innerShadow_1:978"/>
</filter>
<filter id="filter2_ii_1:978" x="29.1758" y="16.3018" width="42.4365" height="20.9663" filterUnits="userSpaceOnUse" color-interpolation-filters="sRGB">
<feFlood flood-opacity="0" result="BackgroundImageFix"/>
<feBlend mode="normal" in="SourceGraphic" in2="BackgroundImageFix" result="shape"/>
<feColorMatrix in="SourceAlpha" type="matrix" values="0 0 0 0 0 0 0 0 0 0 0 0 0 0 0 0 0 0 127 0" result="hardAlpha"/>
<feOffset dy="-1"/>
<feGaussianBlur stdDeviation="1.5"/>
<feComposite in2="hardAlpha" operator="arithmetic" k2="-1" k3="1"/>
<feColorMatrix type="matrix" values="0 0 0 0 0 0 0 0 0 0 0 0 0 0 0 0 0 0 0.25 0"/>
<feBlend mode="normal" in2="shape" result="effect1_innerShadow_1:978"/>
<feColorMatrix in="SourceAlpha" type="matrix" values="0 0 0 0 0 0 0 0 0 0 0 0 0 0 0 0 0 0 127 0" result="hardAlpha"/>
<feOffset dy="2"/>
<feGaussianBlur stdDeviation="1.5"/>
<feComposite in2="hardAlpha" operator="arithmetic" k2="-1" k3="1"/>
<feColorMatrix type="matrix" values="0 0 0 0 1 0 0 0 0 1 0 0 0 0 1 0 0 0 1 0"/>
<feBlend mode="normal" in2="effect1_innerShadow_1:978" result="effect2_innerShadow_1:978"/>
</filter>
<filter id="filter3_d_1:978" x="29.7832" y="12.1362" width="43.8857" height="24.1187" filterUnits="userSpaceOnUse" color-interpolation-filters="sRGB">
<feFlood flood-opacity="0" result="BackgroundImageFix"/>
<feColorMatrix in="SourceAlpha" type="matrix" values="0 0 0 0 0 0 0 0 0 0 0 0 0 0 0 0 0 0 127 0" result="hardAlpha"/>
<feOffset dy="1"/>
<feGaussianBlur stdDeviation="0.5"/>
<feComposite in2="hardAlpha" operator="out"/>
<feColorMatrix type="matrix" values="0 0 0 0 0 0 0 0 0 0 0 0 0 0 0 0 0 0 0.25 0"/>
<feBlend mode="normal" in2="BackgroundImageFix" result="effect1_dropShadow_1:978"/>
<feBlend mode="normal" in="SourceGraphic" in2="effect1_dropShadow_1:978" result="shape"/>
</filter>
<filter id="filter4_ii_1:978" x="30.7832" y="9.13623" width="41.8857" height="22.7329" filterUnits="userSpaceOnUse" color-interpolation-filters="sRGB">
<feFlood flood-opacity="0" result="BackgroundImageFix"/>
<feBlend mode="normal" in="SourceGraphic" in2="BackgroundImageFix" result="shape"/>
<feColorMatrix in="SourceAlpha" type="matrix" values="0 0 0 0 0 0 0 0 0 0 0 0 0 0 0 0 0 0 127 0" result="hardAlpha"/>
<feOffset dy="-3"/>
<feGaussianBlur stdDeviation="3"/>
<feComposite in2="hardAlpha" operator="arithmetic" k2="-1" k3="1"/>
<feColorMatrix type="matrix" values="0 0 0 0 0 0 0 0 0 0 0 0 0 0 0 0 0 0 0.5 0"/>
<feBlend mode="normal" in2="shape" result="effect1_innerShadow_1:978"/>
<feColorMatrix in="SourceAlpha" type="matrix" values="0 0 0 0 0 0 0 0 0 0 0 0 0 0 0 0 0 0 127 0" result="hardAlpha"/>
<feOffset dy="2"/>
<feGaussianBlur stdDeviation="3"/>
<feComposite in2="hardAlpha" operator="arithmetic" k2="-1" k3="1"/>
<feColorMatrix type="matrix" values="0 0 0 0 0.945833 0 0 0 0 0.264045 0 0 0 0 0.298349 0 0 0 1 0"/>
<feBlend mode="normal" in2="effect1_innerShadow_1:978" result="effect2_innerShadow_1:978"/>
</filter>
<filter id="filter5_ii_1:978" x="30.5059" y="11.02" width="42.4365" height="20.9663" filterUnits="userSpaceOnUse" color-interpolation-filters="sRGB">
<feFlood flood-opacity="0" result="BackgroundImageFix"/>
<feBlend mode="normal" in="SourceGraphic" in2="BackgroundImageFix" result="shape"/>
<feColorMatrix in="SourceAlpha" type="matrix" values="0 0 0 0 0 0 0 0 0 0 0 0 0 0 0 0 0 0 127 0" result="hardAlpha"/>
<feOffset dy="-1"/>
<feGaussianBlur stdDeviation="1.5"/>
<feComposite in2="hardAlpha" operator="arithmetic" k2="-1" k3="1"/>
<feColorMatrix type="matrix" values="0 0 0 0 0 0 0 0 0 0 0 0 0 0 0 0 0 0 0.25 0"/>
<feBlend mode="normal" in2="shape" result="effect1_innerShadow_1:978"/>
<feColorMatrix in="SourceAlpha" type="matrix" values="0 0 0 0 0 0 0 0 0 0 0 0 0 0 0 0 0 0 127 0" result="hardAlpha"/>
<feOffset dy="2"/>
<feGaussianBlur stdDeviation="1.5"/>
<feComposite in2="hardAlpha" operator="arithmetic" k2="-1" k3="1"/>
<feColorMatrix type="matrix" values="0 0 0 0 1 0 0 0 0 1 0 0 0 0 1 0 0 0 1 0"/>
<feBlend mode="normal" in2="effect1_innerShadow_1:978" result="effect2_innerShadow_1:978"/>
</filter>
<filter id="filter6_d_1:978" x="30.7832" y="6.854" width="41.8857" height="23.1187" filterUnits="userSpaceOnUse" color-interpolation-filters="sRGB">
<feFlood flood-opacity="0" result="BackgroundImageFix"/>
<feColorMatrix in="SourceAlpha" type="matrix" values="0 0 0 0 0 0 0 0 0 0 0 0 0 0 0 0 0 0 127 0" result="hardAlpha"/>
<feOffset dy="1"/>
<feComposite in2="hardAlpha" operator="out"/>
<feColorMatrix type="matrix" values="0 0 0 0 0 0 0 0 0 0 0 0 0 0 0 0 0 0 0.25 0"/>
<feBlend mode="normal" in2="BackgroundImageFix" result="effect1_dropShadow_1:978"/>
<feBlend mode="normal" in="SourceGraphic" in2="effect1_dropShadow_1:978" result="shape"/>
</filter>
<filter id="filter7_ii_1:978" x="30.7832" y="3.854" width="41.8857" height="22.7329" filterUnits="userSpaceOnUse" color-interpolation-filters="sRGB">
<feFlood flood-opacity="0" result="BackgroundImageFix"/>
<feBlend mode="normal" in="SourceGraphic" in2="BackgroundImageFix" result="shape"/>
<feColorMatrix in="SourceAlpha" type="matrix" values="0 0 0 0 0 0 0 0 0 0 0 0 0 0 0 0 0 0 127 0" result="hardAlpha"/>
<feOffset dy="-3"/>
<feGaussianBlur stdDeviation="3"/>
<feComposite in2="hardAlpha" operator="arithmetic" k2="-1" k3="1"/>
<feColorMatrix type="matrix" values="0 0 0 0 0 0 0 0 0 0 0 0 0 0 0 0 0 0 0.5 0"/>
<feBlend mode="normal" in2="shape" result="effect1_innerShadow_1:978"/>
<feColorMatrix in="SourceAlpha" type="matrix" values="0 0 0 0 0 0 0 0 0 0 0 0 0 0 0 0 0 0 127 0" result="hardAlpha"/>
<feOffset dy="2"/>
<feGaussianBlur stdDeviation="3"/>
<feComposite in2="hardAlpha" operator="arithmetic" k2="-1" k3="1"/>
<feColorMatrix type="matrix" values="0 0 0 0 0.945833 0 0 0 0 0.264045 0 0 0 0 0.298349 0 0 0 1 0"/>
<feBlend mode="normal" in2="effect1_innerShadow_1:978" result="effect2_innerShadow_1:978"/>
</filter>
<filter id="filter8_ii_1:978" x="30.5059" y="5.7373" width="42.4365" height="20.9663" filterUnits="userSpaceOnUse" color-interpolation-filters="sRGB">
<feFlood flood-opacity="0" result="BackgroundImageFix"/>
<feBlend mode="normal" in="SourceGraphic" in2="BackgroundImageFix" result="shape"/>
<feColorMatrix in="SourceAlpha" type="matrix" values="0 0 0 0 0 0 0 0 0 0 0 0 0 0 0 0 0 0 127 0" result="hardAlpha"/>
<feOffset dy="-1"/>
<feGaussianBlur stdDeviation="1.5"/>
<feComposite in2="hardAlpha" operator="arithmetic" k2="-1" k3="1"/>
<feColorMatrix type="matrix" values="0 0 0 0 0 0 0 0 0 0 0 0 0 0 0 0 0 0 0.25 0"/>
<feBlend mode="normal" in2="shape" result="effect1_innerShadow_1:978"/>
<feColorMatrix in="SourceAlpha" type="matrix" values="0 0 0 0 0 0 0 0 0 0 0 0 0 0 0 0 0 0 127 0" result="hardAlpha"/>
<feOffset dy="2"/>
<feGaussianBlur stdDeviation="1.5"/>
<feComposite in2="hardAlpha" operator="arithmetic" k2="-1" k3="1"/>
<feColorMatrix type="matrix" values="0 0 0 0 1 0 0 0 0 1 0 0 0 0 1 0 0 0 1 0"/>
<feBlend mode="normal" in2="effect1_innerShadow_1:978" result="effect2_innerShadow_1:978"/>
</filter>
<filter id="filter9_d_1:978" x="30.7832" y="0.911621" width="41.8857" height="23.1187" filterUnits="userSpaceOnUse" color-interpolation-filters="sRGB">
<feFlood flood-opacity="0" result="BackgroundImageFix"/>
<feColorMatrix in="SourceAlpha" type="matrix" values="0 0 0 0 0 0 0 0 0 0 0 0 0 0 0 0 0 0 127 0" result="hardAlpha"/>
<feOffset dy="1"/>
<feComposite in2="hardAlpha" operator="out"/>
<feColorMatrix type="matrix" values="0 0 0 0 0 0 0 0 0 0 0 0 0 0 0 0 0 0 0.25 0"/>
<feBlend mode="normal" in2="BackgroundImageFix" result="effect1_dropShadow_1:978"/>
<feBlend mode="normal" in="SourceGraphic" in2="effect1_dropShadow_1:978" result="shape"/>
</filter>
<filter id="filter10_ii_1:978" x="30.7832" y="-2.08838" width="41.8857" height="22.7329" filterUnits="userSpaceOnUse" color-interpolation-filters="sRGB">
<feFlood flood-opacity="0" result="BackgroundImageFix"/>
<feBlend mode="normal" in="SourceGraphic" in2="BackgroundImageFix" result="shape"/>
<feColorMatrix in="SourceAlpha" type="matrix" values="0 0 0 0 0 0 0 0 0 0 0 0 0 0 0 0 0 0 127 0" result="hardAlpha"/>
<feOffset dy="-3"/>
<feGaussianBlur stdDeviation="3"/>
<feComposite in2="hardAlpha" operator="arithmetic" k2="-1" k3="1"/>
<feColorMatrix type="matrix" values="0 0 0 0 0 0 0 0 0 0 0 0 0 0 0 0 0 0 0.5 0"/>
<feBlend mode="normal" in2="shape" result="effect1_innerShadow_1:978"/>
<feColorMatrix in="SourceAlpha" type="matrix" values="0 0 0 0 0 0 0 0 0 0 0 0 0 0 0 0 0 0 127 0" result="hardAlpha"/>
<feOffset dy="2"/>
<feGaussianBlur stdDeviation="3"/>
<feComposite in2="hardAlpha" operator="arithmetic" k2="-1" k3="1"/>
<feColorMatrix type="matrix" values="0 0 0 0 0.945833 0 0 0 0 0.264045 0 0 0 0 0.298349 0 0 0 1 0"/>
<feBlend mode="normal" in2="effect1_innerShadow_1:978" result="effect2_innerShadow_1:978"/>
</filter>
<filter id="filter11_ii_1:978" x="30.5059" y="-0.20459" width="42.4365" height="20.9663" filterUnits="userSpaceOnUse" color-interpolation-filters="sRGB">
<feFlood flood-opacity="0" result="BackgroundImageFix"/>
<feBlend mode="normal" in="SourceGraphic" in2="BackgroundImageFix" result="shape"/>
<feColorMatrix in="SourceAlpha" type="matrix" values="0 0 0 0 0 0 0 0 0 0 0 0 0 0 0 0 0 0 127 0" result="hardAlpha"/>
<feOffset dy="-1"/>
<feGaussianBlur stdDeviation="1.5"/>
<feComposite in2="hardAlpha" operator="arithmetic" k2="-1" k3="1"/>
<feColorMatrix type="matrix" values="0 0 0 0 0 0 0 0 0 0 0 0 0 0 0 0 0 0 0.25 0"/>
<feBlend mode="normal" in2="shape" result="effect1_innerShadow_1:978"/>
<feColorMatrix in="SourceAlpha" type="matrix" values="0 0 0 0 0 0 0 0 0 0 0 0 0 0 0 0 0 0 127 0" result="hardAlpha"/>
<feOffset dy="2"/>
<feGaussianBlur stdDeviation="1.5"/>
<feComposite in2="hardAlpha" operator="arithmetic" k2="-1" k3="1"/>
<feColorMatrix type="matrix" values="0 0 0 0 1 0 0 0 0 1 0 0 0 0 1 0 0 0 1 0"/>
<feBlend mode="normal" in2="effect1_innerShadow_1:978" result="effect2_innerShadow_1:978"/>
</filter>
<filter id="filter12_d_1:978" x="39.7554" y="29.9634" width="43.8857" height="24.1187" filterUnits="userSpaceOnUse" color-interpolation-filters="sRGB">
<feFlood flood-opacity="0" result="BackgroundImageFix"/>
<feColorMatrix in="SourceAlpha" type="matrix" values="0 0 0 0 0 0 0 0 0 0 0 0 0 0 0 0 0 0 127 0" result="hardAlpha"/>
<feOffset dy="1"/>
<feGaussianBlur stdDeviation="0.5"/>
<feComposite in2="hardAlpha" operator="out"/>
<feColorMatrix type="matrix" values="0 0 0 0 0 0 0 0 0 0 0 0 0 0 0 0 0 0 0.25 0"/>
<feBlend mode="normal" in2="BackgroundImageFix" result="effect1_dropShadow_1:978"/>
<feBlend mode="normal" in="SourceGraphic" in2="effect1_dropShadow_1:978" result="shape"/>
</filter>
<filter id="filter13_ii_1:978" x="40.7554" y="26.9634" width="41.8857" height="22.7329" filterUnits="userSpaceOnUse" color-interpolation-filters="sRGB">
<feFlood flood-opacity="0" result="BackgroundImageFix"/>
<feBlend mode="normal" in="SourceGraphic" in2="BackgroundImageFix" result="shape"/>
<feColorMatrix in="SourceAlpha" type="matrix" values="0 0 0 0 0 0 0 0 0 0 0 0 0 0 0 0 0 0 127 0" result="hardAlpha"/>
<feOffset dy="-3"/>
<feGaussianBlur stdDeviation="3"/>
<feComposite in2="hardAlpha" operator="arithmetic" k2="-1" k3="1"/>
<feColorMatrix type="matrix" values="0 0 0 0 0 0 0 0 0 0 0 0 0 0 0 0 0 0 0.5 0"/>
<feBlend mode="normal" in2="shape" result="effect1_innerShadow_1:978"/>
<feColorMatrix in="SourceAlpha" type="matrix" values="0 0 0 0 0 0 0 0 0 0 0 0 0 0 0 0 0 0 127 0" result="hardAlpha"/>
<feOffset dy="2"/>
<feGaussianBlur stdDeviation="3"/>
<feComposite in2="hardAlpha" operator="arithmetic" k2="-1" k3="1"/>
<feColorMatrix type="matrix" values="0 0 0 0 0.945833 0 0 0 0 0.264045 0 0 0 0 0.298349 0 0 0 1 0"/>
<feBlend mode="normal" in2="effect1_innerShadow_1:978" result="effect2_innerShadow_1:978"/>
</filter>
<filter id="filter14_ii_1:978" x="40.4766" y="28.8472" width="42.4365" height="20.9663" filterUnits="userSpaceOnUse" color-interpolation-filters="sRGB">
<feFlood flood-opacity="0" result="BackgroundImageFix"/>
<feBlend mode="normal" in="SourceGraphic" in2="BackgroundImageFix" result="shape"/>
<feColorMatrix in="SourceAlpha" type="matrix" values="0 0 0 0 0 0 0 0 0 0 0 0 0 0 0 0 0 0 127 0" result="hardAlpha"/>
<feOffset dy="-1"/>
<feGaussianBlur stdDeviation="1.5"/>
<feComposite in2="hardAlpha" operator="arithmetic" k2="-1" k3="1"/>
<feColorMatrix type="matrix" values="0 0 0 0 0 0 0 0 0 0 0 0 0 0 0 0 0 0 0.25 0"/>
<feBlend mode="normal" in2="shape" result="effect1_innerShadow_1:978"/>
<feColorMatrix in="SourceAlpha" type="matrix" values="0 0 0 0 0 0 0 0 0 0 0 0 0 0 0 0 0 0 127 0" result="hardAlpha"/>
<feOffset dy="2"/>
<feGaussianBlur stdDeviation="1.5"/>
<feComposite in2="hardAlpha" operator="arithmetic" k2="-1" k3="1"/>
<feColorMatrix type="matrix" values="0 0 0 0 1 0 0 0 0 1 0 0 0 0 1 0 0 0 1 0"/>
<feBlend mode="normal" in2="effect1_innerShadow_1:978" result="effect2_innerShadow_1:978"/>
</filter>
<filter id="filter15_d_1:978" x="3.11914" y="6.38232" width="48.3335" height="38.0171" filterUnits="userSpaceOnUse" color-interpolation-filters="sRGB">
<feFlood flood-opacity="0" result="BackgroundImageFix"/>
<feColorMatrix in="SourceAlpha" type="matrix" values="0 0 0 0 0 0 0 0 0 0 0 0 0 0 0 0 0 0 127 0" result="hardAlpha"/>
<feOffset dx="3" dy="3"/>
<feGaussianBlur stdDeviation="2"/>
<feComposite in2="hardAlpha" operator="out"/>
<feColorMatrix type="matrix" values="0 0 0 0 0 0 0 0 0 0 0 0 0 0 0 0 0 0 0.25 0"/>
<feBlend mode="normal" in2="BackgroundImageFix" result="effect1_dropShadow_1:978"/>
<feBlend mode="normal" in="SourceGraphic" in2="effect1_dropShadow_1:978" result="shape"/>
</filter>
<filter id="filter16_ii_1:978" x="4.11914" y="4.38232" width="37.3652" height="30.8555" filterUnits="userSpaceOnUse" color-interpolation-filters="sRGB">
<feFlood flood-opacity="0" result="BackgroundImageFix"/>
<feBlend mode="normal" in="SourceGraphic" in2="BackgroundImageFix" result="shape"/>
<feColorMatrix in="SourceAlpha" type="matrix" values="0 0 0 0 0 0 0 0 0 0 0 0 0 0 0 0 0 0 127 0" result="hardAlpha"/>
<feOffset dy="-3"/>
<feGaussianBlur stdDeviation="3"/>
<feComposite in2="hardAlpha" operator="arithmetic" k2="-1" k3="1"/>
<feColorMatrix type="matrix" values="0 0 0 0 0 0 0 0 0 0 0 0 0 0 0 0 0 0 0.5 0"/>
<feBlend mode="normal" in2="shape" result="effect1_innerShadow_1:978"/>
<feColorMatrix in="SourceAlpha" type="matrix" values="0 0 0 0 0 0 0 0 0 0 0 0 0 0 0 0 0 0 127 0" result="hardAlpha"/>
<feOffset dy="2"/>
<feGaussianBlur stdDeviation="3"/>
<feComposite in2="hardAlpha" operator="arithmetic" k2="-1" k3="1"/>
<feColorMatrix type="matrix" values="0 0 0 0 0.945833 0 0 0 0 0.264045 0 0 0 0 0.298349 0 0 0 1 0"/>
<feBlend mode="normal" in2="effect1_innerShadow_1:978" result="effect2_innerShadow_1:978"/>
</filter>
<filter id="filter17_ii_1:978" x="3.87256" y="6.50244" width="37.855" height="28.6157" filterUnits="userSpaceOnUse" color-interpolation-filters="sRGB">
<feFlood flood-opacity="0" result="BackgroundImageFix"/>
<feBlend mode="normal" in="SourceGraphic" in2="BackgroundImageFix" result="shape"/>
<feColorMatrix in="SourceAlpha" type="matrix" values="0 0 0 0 0 0 0 0 0 0 0 0 0 0 0 0 0 0 127 0" result="hardAlpha"/>
<feOffset dy="-1"/>
<feGaussianBlur stdDeviation="1.5"/>
<feComposite in2="hardAlpha" operator="arithmetic" k2="-1" k3="1"/>
<feColorMatrix type="matrix" values="0 0 0 0 0 0 0 0 0 0 0 0 0 0 0 0 0 0 0.25 0"/>
<feBlend mode="normal" in2="shape" result="effect1_innerShadow_1:978"/>
<feColorMatrix in="SourceAlpha" type="matrix" values="0 0 0 0 0 0 0 0 0 0 0 0 0 0 0 0 0 0 127 0" result="hardAlpha"/>
<feOffset dy="2"/>
<feGaussianBlur stdDeviation="1.5"/>
<feComposite in2="hardAlpha" operator="arithmetic" k2="-1" k3="1"/>
<feColorMatrix type="matrix" values="0 0 0 0 1 0 0 0 0 1 0 0 0 0 1 0 0 0 1 0"/>
<feBlend mode="normal" in2="effect1_innerShadow_1:978" result="effect2_innerShadow_1:978"/>
</filter>
<linearGradient id="paint0_linear_1:978" x1="50.3964" y1="5.34259" x2="50.3964" y2="47.2281" gradientUnits="userSpaceOnUse">
<stop stop-color="#8F000E"/>
<stop offset="1" stop-color="#C5252D"/>
</linearGradient>
<linearGradient id="paint1_linear_1:978" x1="50.3964" y1="5.34259" x2="50.3964" y2="47.2281" gradientUnits="userSpaceOnUse">
<stop stop-color="#8F000E"/>
<stop offset="1" stop-color="#C5252D"/>
</linearGradient>
<linearGradient id="paint2_linear_1:978" x1="32.7581" y1="26.2849" x2="68.0301" y2="26.2849" gradientUnits="userSpaceOnUse">
<stop stop-color="#F2F2F2"/>
<stop offset="1" stop-color="#E2E2E2"/>
</linearGradient>
<linearGradient id="paint3_linear_1:978" x1="50.3947" y1="9.4191" x2="50.3947" y2="43.1509" gradientUnits="userSpaceOnUse">
<stop stop-color="#600009"/>
<stop offset="1" stop-color="#AB0E16"/>
</linearGradient>
<linearGradient id="paint4_linear_1:978" x1="34.4518" y1="26.2859" x2="66.3324" y2="26.2859" gradientUnits="userSpaceOnUse">
<stop stop-color="#C2C2C2"/>
<stop offset="1" stop-color="#F2F2F2"/>
</linearGradient>
<linearGradient id="paint5_linear_1:978" x1="50.3976" y1="10.7427" x2="50.3976" y2="41.824" gradientUnits="userSpaceOnUse">
<stop stop-color="#8F000E"/>
<stop offset="1" stop-color="#C5252D"/>
</linearGradient>
<linearGradient id="paint6_linear_1:978" x1="51.726" y1="0.0598793" x2="51.726" y2="41.9454" gradientUnits="userSpaceOnUse">
<stop stop-color="#8F000E"/>
<stop offset="1" stop-color="#C5252D"/>
</linearGradient>
<linearGradient id="paint7_linear_1:978" x1="51.726" y1="0.0598793" x2="51.726" y2="41.9454" gradientUnits="userSpaceOnUse">
<stop stop-color="#8F000E"/>
<stop offset="1" stop-color="#C5252D"/>
</linearGradient>
<linearGradient id="paint8_linear_1:978" x1="34.0882" y1="21.0032" x2="69.3602" y2="21.0032" gradientUnits="userSpaceOnUse">
<stop stop-color="#F2F2F2"/>
<stop offset="1" stop-color="#E2E2E2"/>
</linearGradient>
<linearGradient id="paint9_linear_1:978" x1="51.7233" y1="4.13638" x2="51.7233" y2="37.8682" gradientUnits="userSpaceOnUse">
<stop stop-color="#600009"/>
<stop offset="1" stop-color="#AB0E16"/>
</linearGradient>
<linearGradient id="paint10_linear_1:978" x1="35.7814" y1="21.0023" x2="67.662" y2="21.0023" gradientUnits="userSpaceOnUse">
<stop stop-color="#C2C2C2"/>
<stop offset="1" stop-color="#F2F2F2"/>
</linearGradient>
<linearGradient id="paint11_linear_1:978" x1="51.7257" y1="5.46098" x2="51.7257" y2="36.5422" gradientUnits="userSpaceOnUse">
<stop stop-color="#8F000E"/>
<stop offset="1" stop-color="#C5252D"/>
</linearGradient>
<linearGradient id="paint12_linear_1:978" x1="51.726" y1="-5.22235" x2="51.726" y2="36.6632" gradientUnits="userSpaceOnUse">
<stop stop-color="#8F000E"/>
<stop offset="1" stop-color="#C5252D"/>
</linearGradient>
<linearGradient id="paint13_linear_1:978" x1="51.726" y1="-5.22235" x2="51.726" y2="36.6632" gradientUnits="userSpaceOnUse">
<stop stop-color="#8F000E"/>
<stop offset="1" stop-color="#C5252D"/>
</linearGradient>
<linearGradient id="paint14_linear_1:978" x1="34.0882" y1="15.7204" x2="69.3602" y2="15.7204" gradientUnits="userSpaceOnUse">
<stop stop-color="#F2F2F2"/>
<stop offset="1" stop-color="#E2E2E2"/>
</linearGradient>
<linearGradient id="paint15_linear_1:978" x1="51.7233" y1="-1.14585" x2="51.7233" y2="32.586" gradientUnits="userSpaceOnUse">
<stop stop-color="#600009"/>
<stop offset="1" stop-color="#AB0E16"/>
</linearGradient>
<linearGradient id="paint16_linear_1:978" x1="35.7814" y1="15.721" x2="67.662" y2="15.721" gradientUnits="userSpaceOnUse">
<stop stop-color="#C2C2C2"/>
<stop offset="1" stop-color="#F2F2F2"/>
</linearGradient>
<linearGradient id="paint17_linear_1:978" x1="51.7257" y1="0.17924" x2="51.7257" y2="31.2605" gradientUnits="userSpaceOnUse">
<stop stop-color="#8F000E"/>
<stop offset="1" stop-color="#C5252D"/>
</linearGradient>
<linearGradient id="paint18_linear_1:978" x1="51.726" y1="-11.1647" x2="51.726" y2="30.7208" gradientUnits="userSpaceOnUse">
<stop stop-color="#8F000E"/>
<stop offset="1" stop-color="#C5252D"/>
</linearGradient>
<linearGradient id="paint19_linear_1:978" x1="51.726" y1="-11.1647" x2="51.726" y2="30.7208" gradientUnits="userSpaceOnUse">
<stop stop-color="#8F000E"/>
<stop offset="1" stop-color="#C5252D"/>
</linearGradient>
<linearGradient id="paint20_linear_1:978" x1="34.0882" y1="9.77855" x2="69.3602" y2="9.77855" gradientUnits="userSpaceOnUse">
<stop stop-color="#F2F2F2"/>
<stop offset="1" stop-color="#E2E2E2"/>
</linearGradient>
<linearGradient id="paint21_linear_1:978" x1="51.7233" y1="-7.08774" x2="51.7233" y2="26.6441" gradientUnits="userSpaceOnUse">
<stop stop-color="#600009"/>
<stop offset="1" stop-color="#AB0E16"/>
</linearGradient>
<linearGradient id="paint22_linear_1:978" x1="35.7814" y1="9.77814" x2="67.662" y2="9.77814" gradientUnits="userSpaceOnUse">
<stop stop-color="#C2C2C2"/>
<stop offset="1" stop-color="#F2F2F2"/>
</linearGradient>
<linearGradient id="paint23_linear_1:978" x1="51.7257" y1="-5.76363" x2="51.7257" y2="25.3176" gradientUnits="userSpaceOnUse">
<stop stop-color="#8F000E"/>
<stop offset="1" stop-color="#C5252D"/>
</linearGradient>
<linearGradient id="paint24_linear_1:978" x1="61.6981" y1="17.887" x2="61.6981" y2="59.7725" gradientUnits="userSpaceOnUse">
<stop stop-color="#8F000E"/>
<stop offset="1" stop-color="#C5252D"/>
</linearGradient>
<linearGradient id="paint25_linear_1:978" x1="61.6981" y1="17.887" x2="61.6981" y2="59.7725" gradientUnits="userSpaceOnUse">
<stop stop-color="#8F000E"/>
<stop offset="1" stop-color="#C5252D"/>
</linearGradient>
<linearGradient id="paint26_linear_1:978" x1="44.0589" y1="38.8303" x2="79.3309" y2="38.8303" gradientUnits="userSpaceOnUse">
<stop stop-color="#F2F2F2"/>
<stop offset="1" stop-color="#E2E2E2"/>
</linearGradient>
<linearGradient id="paint27_linear_1:978" x1="61.6955" y1="21.964" x2="61.6955" y2="55.6958" gradientUnits="userSpaceOnUse">
<stop stop-color="#600009"/>
<stop offset="1" stop-color="#AB0E16"/>
</linearGradient>
<linearGradient id="paint28_linear_1:978" x1="45.7536" y1="38.8309" x2="77.6341" y2="38.8309" gradientUnits="userSpaceOnUse">
<stop stop-color="#C2C2C2"/>
<stop offset="1" stop-color="#F2F2F2"/>
</linearGradient>
<linearGradient id="paint29_linear_1:978" x1="61.6983" y1="23.2876" x2="61.6983" y2="54.3689" gradientUnits="userSpaceOnUse">
<stop stop-color="#8F000E"/>
<stop offset="1" stop-color="#C5252D"/>
</linearGradient>
<linearGradient id="paint30_linear_1:978" x1="8.88194" y1="0" x2="8.88194" y2="41.8134" gradientUnits="userSpaceOnUse">
<stop stop-color="#8F000E"/>
<stop offset="1" stop-color="#C5252D"/>
</linearGradient>
<linearGradient id="paint31_linear_1:978" x1="8.88194" y1="0" x2="8.88194" y2="41.8134" gradientUnits="userSpaceOnUse">
<stop stop-color="#8F000E"/>
<stop offset="1" stop-color="#C5252D"/>
</linearGradient>
<linearGradient id="paint32_linear_1:978" x1="7.52685" y1="29.0675" x2="37.9672" y2="11.3707" gradientUnits="userSpaceOnUse">
<stop stop-color="#F2F2F2"/>
<stop offset="1" stop-color="#E2E2E2"/>
</linearGradient>
<linearGradient id="paint33_linear_1:978" x1="6.07712" y1="0" x2="6.07712" y2="33.6738" gradientUnits="userSpaceOnUse">
<stop stop-color="#600009"/>
<stop offset="1" stop-color="#AB0E16"/>
</linearGradient>
<linearGradient id="paint34_linear_1:978" x1="8.99364" y1="28.2266" x2="36.5071" y2="12.2313" gradientUnits="userSpaceOnUse">
<stop stop-color="#C2C2C2"/>
<stop offset="1" stop-color="#F2F2F2"/>
</linearGradient>
<linearGradient id="paint35_linear_1:978" x1="5.37591" y1="0" x2="5.37591" y2="31.0278" gradientUnits="userSpaceOnUse">
<stop stop-color="#8F000E"/>
<stop offset="1" stop-color="#C5252D"/>
</linearGradient>
</defs>
</svg>
