<svg width="76" height="77" viewBox="0 0 76 77" fill="none" xmlns="http://www.w3.org/2000/svg">
<g filter="url(#filter0_d_1:837)">
<path d="M21.1963 44.5527H63.1041V51.8474C63.1041 51.8474 58.7803 58.1473 42.1502 58.1473C25.5201 58.1473 21.1963 51.8474 21.1963 51.8474V44.5527Z" fill="#C6C6C6"/>
<path fill-rule="evenodd" clip-rule="evenodd" d="M33.502 44.5537H23.0581V53.5734C24.8367 54.8633 28.0698 56.557 33.502 57.4791V44.5537ZM50.7973 57.4793C56.2285 56.5574 59.4615 54.8643 61.2406 53.5745V44.5537H50.7973V57.4793Z" fill="#761018"/>
<g filter="url(#filter1_ii_1:837)">
<ellipse cx="42.1502" cy="44.8374" rx="8.90531" ry="20.9539" transform="rotate(-90 42.1502 44.8374)" fill="url(#paint0_linear_1:837)"/>
</g>
<mask id="mask0_1:837" style="mask-type:alpha" maskUnits="userSpaceOnUse" x="21" y="35" width="43" height="19">
<ellipse cx="42.1502" cy="44.8374" rx="8.90531" ry="20.9539" transform="rotate(-90 42.1502 44.8374)" fill="url(#paint1_linear_1:837)"/>
</mask>
<g mask="url(#mask0_1:837)">
<g filter="url(#filter2_ii_1:837)">
<path fill-rule="evenodd" clip-rule="evenodd" d="M22.7996 48.5544C21.5897 47.4188 20.918 46.1589 20.918 44.8364C20.918 43.5139 21.5897 42.254 22.7996 41.1184L29.3299 42.3749C28.5323 43.1236 28.0864 43.9558 28.0864 44.8364C28.0864 45.717 28.5323 46.5492 29.3299 47.2979L22.7996 48.5544ZM33.3991 36.6136C36.0713 36.0994 39.0358 35.8139 42.1476 35.8139C45.2593 35.8139 48.2238 36.0994 50.896 36.6136L47.9394 39.3889C46.1777 39.05 44.2196 38.8605 42.1476 38.8605C40.0756 38.8605 38.1174 39.05 36.3558 39.3889L33.3991 36.6136ZM42.1476 53.8589C39.0358 53.8589 36.0713 53.5734 33.3991 53.0592L36.3558 50.2839C38.1174 50.6228 40.0756 50.8123 42.1476 50.8123C44.2196 50.8123 46.1777 50.6228 47.9394 50.2839L50.896 53.0592C48.2238 53.5734 45.2593 53.8589 42.1476 53.8589ZM63.3772 44.8364C63.3772 46.1589 62.7054 47.4188 61.4956 48.5544L54.9653 47.2979C55.7629 46.5492 56.2087 45.717 56.2087 44.8364C56.2087 43.9558 55.7629 43.1236 54.9653 42.3749L61.4956 41.1184C62.7054 42.254 63.3772 43.5139 63.3772 44.8364Z" fill="url(#paint2_linear_1:837)"/>
</g>
</g>
<ellipse cx="42.1488" cy="44.838" rx="6.09311" ry="16.8749" transform="rotate(-90 42.1488 44.838)" fill="url(#paint3_linear_1:837)"/>
<path fill-rule="evenodd" clip-rule="evenodd" d="M25.3975 45.753C25.2675 45.4547 25.2002 45.1493 25.2002 44.8385C25.2002 44.5278 25.2675 44.2224 25.3975 43.9241C25.4811 43.7322 25.99 43.6005 26.5341 43.63C27.0782 43.6595 27.4516 43.8389 27.368 44.0308C27.2533 44.2939 27.1938 44.5637 27.1938 44.8385C27.1938 45.1134 27.2533 45.3831 27.368 45.6462C27.4516 45.8381 27.0782 46.0176 26.5341 46.0471C25.99 46.0765 25.4811 45.9449 25.3975 45.753ZM28.6847 41.8004C28.2407 41.6856 28.1446 41.4657 28.4701 41.3091C29.4977 40.8147 30.7356 40.3781 32.1375 40.0157C32.5815 39.901 33.2053 39.9349 33.5308 40.0914C33.8562 40.248 33.7601 40.468 33.3161 40.5828C32.0784 40.9027 30.9852 41.2882 30.078 41.7247C29.7525 41.8813 29.1288 41.9152 28.6847 41.8004ZM28.6847 47.8766C29.1288 47.7619 29.7525 47.7958 30.078 47.9523C30.9852 48.3888 32.0784 48.7743 33.3161 49.0943C33.7601 49.209 33.8562 49.429 33.5308 49.5856C33.2053 49.7422 32.5815 49.7761 32.1375 49.6613C30.7356 49.2989 29.4977 48.8624 28.4701 48.368C28.1446 48.2114 28.2407 47.9914 28.6847 47.8766ZM38.7188 39.333C38.6352 39.1411 39.0085 38.9617 39.5526 38.9322C40.3986 38.8863 41.2646 38.8626 42.1457 38.8626C43.0269 38.8626 43.8929 38.8863 44.7389 38.9322C45.283 38.9617 45.6563 39.1411 45.5727 39.333C45.4891 39.5249 44.9803 39.6566 44.4361 39.6271C43.69 39.5866 42.9252 39.5656 42.1457 39.5656C41.3663 39.5656 40.6015 39.5866 39.8554 39.6271C39.3112 39.6566 38.8024 39.5249 38.7188 39.333ZM38.7188 50.344C38.8024 50.1522 39.3112 50.0205 39.8554 50.05C40.6015 50.0904 41.3663 50.1114 42.1457 50.1114C42.9252 50.1114 43.69 50.0904 44.4361 50.05C44.9803 50.0205 45.4891 50.1522 45.5727 50.344C45.6563 50.5359 45.283 50.7154 44.7389 50.7449C43.8929 50.7907 43.0269 50.8145 42.1457 50.8145C41.2646 50.8145 40.3986 50.7907 39.5526 50.7449C39.0085 50.7154 38.6352 50.5359 38.7188 50.344ZM50.7607 40.0914C51.0862 39.9349 51.71 39.901 52.154 40.0157C53.5559 40.3781 54.7938 40.8147 55.8214 41.3091C56.1469 41.4657 56.0508 41.6856 55.6067 41.8004C55.1627 41.9152 54.539 41.8813 54.2135 41.7247C53.3063 41.2882 52.2131 40.9027 50.9754 40.5828C50.5314 40.468 50.4353 40.248 50.7607 40.0914ZM50.7607 49.5856C50.4353 49.429 50.5314 49.209 50.9754 49.0943C52.2131 48.7743 53.3063 48.3888 54.2135 47.9523C54.539 47.7958 55.1627 47.7619 55.6068 47.8766C56.0508 47.9914 56.1469 48.2114 55.8214 48.368C54.7938 48.8624 53.5559 49.2989 52.154 49.6613C51.71 49.7761 51.0862 49.7422 50.7607 49.5856ZM57.7574 43.63C58.3015 43.6005 58.8104 43.7322 58.894 43.924C59.024 44.2224 59.0913 44.5278 59.0913 44.8385C59.0913 45.1493 59.024 45.4547 58.894 45.753C58.8104 45.9449 58.3015 46.0765 57.7574 46.0471C57.2133 46.0176 56.8399 45.8381 56.9235 45.6462C57.0382 45.3831 57.0977 45.1134 57.0977 44.8385C57.0977 44.5637 57.0382 44.2939 56.9235 44.0308C56.8399 43.8389 57.2133 43.6595 57.7574 43.63Z" fill="url(#paint4_linear_1:837)"/>
<ellipse cx="42.1509" cy="44.836" rx="5.39005" ry="15.5489" transform="rotate(-90 42.1509 44.836)" fill="url(#paint5_linear_1:837)"/>
</g>
<g filter="url(#filter3_d_1:837)">
<path d="M22.5259 39.248H64.4337V46.5427C64.4337 46.5427 60.1099 52.8427 43.4798 52.8427C26.8497 52.8427 22.5259 46.5427 22.5259 46.5427V39.248Z" fill="#C6C6C6"/>
<path fill-rule="evenodd" clip-rule="evenodd" d="M34.8321 39.2495H24.3882V48.2692C26.1668 49.5591 29.3999 51.2528 34.8321 52.1749V39.2495ZM52.1274 52.1751C57.5585 51.2532 60.7916 49.5601 62.5706 48.2703V39.2495H52.1274V52.1751Z" fill="#761018"/>
<g filter="url(#filter4_ii_1:837)">
<ellipse cx="43.4798" cy="39.5327" rx="8.90531" ry="20.9539" transform="rotate(-90 43.4798 39.5327)" fill="url(#paint6_linear_1:837)"/>
</g>
<mask id="mask1_1:837" style="mask-type:alpha" maskUnits="userSpaceOnUse" x="22" y="30" width="43" height="19">
<ellipse cx="43.4798" cy="39.5327" rx="8.90531" ry="20.9539" transform="rotate(-90 43.4798 39.5327)" fill="url(#paint7_linear_1:837)"/>
</mask>
<g mask="url(#mask1_1:837)">
<g filter="url(#filter5_ii_1:837)">
<path fill-rule="evenodd" clip-rule="evenodd" d="M24.1321 43.2502C22.9223 42.1146 22.2505 40.8547 22.2505 39.5322C22.2505 38.2097 22.9223 36.9498 24.1321 35.8142L30.6624 37.0707C29.8648 37.8194 29.4189 38.6516 29.4189 39.5322C29.4189 40.4128 29.8648 41.245 30.6624 41.9937L24.1321 43.2502ZM34.7317 31.3094C37.4038 30.7952 40.3684 30.5097 43.4801 30.5097C46.5918 30.5097 49.5564 30.7952 52.2285 31.3094L49.2719 34.0847C47.5102 33.7458 45.5521 33.5563 43.4801 33.5563C41.4081 33.5563 39.45 33.7458 37.6883 34.0847L34.7317 31.3094ZM43.4801 48.5547C40.3684 48.5547 37.4038 48.2692 34.7317 47.755L37.6883 44.9797C39.45 45.3186 41.4081 45.5081 43.4801 45.5081C45.5521 45.5081 47.5102 45.3186 49.2719 44.9797L52.2285 47.755C49.5564 48.2692 46.5918 48.5547 43.4801 48.5547ZM64.7097 39.5322C64.7097 40.8547 64.0379 42.1146 62.8281 43.2502L56.2978 41.9937C57.0954 41.245 57.5413 40.4128 57.5413 39.5322C57.5413 38.6516 57.0954 37.8194 56.2978 37.0707L62.8281 35.8142C64.0379 36.9498 64.7097 38.2097 64.7097 39.5322Z" fill="url(#paint8_linear_1:837)"/>
</g>
</g>
<ellipse cx="43.4774" cy="39.5329" rx="6.09311" ry="16.8749" transform="rotate(-90 43.4774 39.5329)" fill="url(#paint9_linear_1:837)"/>
<path fill-rule="evenodd" clip-rule="evenodd" d="M26.7286 40.4468C26.5986 40.1485 26.5312 39.8431 26.5312 39.5324C26.5312 39.2216 26.5986 38.9162 26.7286 38.6179C26.8122 38.426 27.321 38.2943 27.8652 38.3238C28.4093 38.3533 28.7826 38.5328 28.699 38.7247C28.5844 38.9878 28.5248 39.2575 28.5248 39.5324C28.5248 39.8072 28.5844 40.077 28.699 40.3401C28.7826 40.532 28.4093 40.7114 27.8652 40.7409C27.321 40.7704 26.8122 40.6387 26.7286 40.4468ZM30.0158 36.4943C29.5718 36.3795 29.4757 36.1595 29.8011 36.0029C30.8287 35.5085 32.0667 35.072 33.4686 34.7096C33.9126 34.5948 34.5364 34.6287 34.8618 34.7853C35.1873 34.9419 35.0912 35.1618 34.6472 35.2766C33.4094 35.5966 32.3163 35.9821 31.409 36.4186C31.0836 36.5751 30.4598 36.609 30.0158 36.4943ZM30.0158 42.5705C30.4598 42.4557 31.0836 42.4896 31.409 42.6462C32.3163 43.0827 33.4094 43.4682 34.6472 43.7881C35.0912 43.9029 35.1873 44.1229 34.8618 44.2795C34.5364 44.436 33.9126 44.4699 33.4686 44.3552C32.0667 43.9928 30.8287 43.5562 29.8011 43.0618C29.4757 42.9052 29.5718 42.6853 30.0158 42.5705ZM40.0498 34.0268C39.9662 33.835 40.3396 33.6555 40.8837 33.626C41.7296 33.5802 42.5957 33.5564 43.4768 33.5564C44.3579 33.5564 45.224 33.5802 46.0699 33.626C46.614 33.6555 46.9874 33.835 46.9038 34.0268C46.8202 34.2187 46.3113 34.3504 45.7672 34.3209C45.021 34.2805 44.2562 34.2595 43.4768 34.2595C42.6974 34.2595 41.9326 34.2805 41.1864 34.3209C40.6423 34.3504 40.1334 34.2187 40.0498 34.0268ZM40.0498 45.0379C40.1334 44.846 40.6423 44.7143 41.1864 44.7438C41.9326 44.7842 42.6974 44.8053 43.4768 44.8053C44.2562 44.8053 45.0211 44.7842 45.7672 44.7438C46.3113 44.7143 46.8202 44.846 46.9038 45.0379C46.9874 45.2298 46.614 45.4092 46.0699 45.4387C45.224 45.4846 44.3579 45.5083 43.4768 45.5083C42.5957 45.5083 41.7296 45.4846 40.8837 45.4387C40.3396 45.4092 39.9662 45.2298 40.0498 45.0379ZM52.0918 34.7853C52.4172 34.6287 53.041 34.5948 53.485 34.7096C54.8869 35.072 56.1249 35.5085 57.1525 36.0029C57.4779 36.1595 57.3818 36.3795 56.9378 36.4943C56.4938 36.609 55.87 36.5751 55.5446 36.4186C54.6373 35.9821 53.5442 35.5966 52.3064 35.2766C51.8624 35.1618 51.7663 34.9419 52.0918 34.7853ZM52.0918 44.2795C51.7663 44.1229 51.8624 43.9029 52.3065 43.7881C53.5442 43.4682 54.6373 43.0827 55.5446 42.6462C55.87 42.4896 56.4938 42.4557 56.9378 42.5705C57.3818 42.6853 57.4779 42.9052 57.1525 43.0618C56.1249 43.5562 54.887 43.9928 53.485 44.3552C53.041 44.4699 52.4173 44.436 52.0918 44.2795ZM59.0884 38.3238C59.6326 38.2943 60.1415 38.426 60.2251 38.6179C60.355 38.9162 60.4224 39.2216 60.4224 39.5324C60.4224 39.8431 60.355 40.1485 60.2251 40.4468C60.1415 40.6387 59.6326 40.7704 59.0884 40.7409C58.5443 40.7114 58.171 40.532 58.2546 40.3401C58.3692 40.077 58.4288 39.8072 58.4288 39.5324C58.4288 39.2575 58.3692 38.9878 58.2546 38.7247C58.171 38.5328 58.5443 38.3533 59.0884 38.3238Z" fill="url(#paint10_linear_1:837)"/>
<ellipse cx="43.481" cy="39.5313" rx="5.39005" ry="15.5489" transform="rotate(-90 43.481 39.5313)" fill="url(#paint11_linear_1:837)"/>
</g>
<g filter="url(#filter6_d_1:837)">
<path d="M22.5259 33.9424H64.4337V41.2371C64.4337 41.2371 60.1099 47.537 43.4798 47.537C26.8497 47.537 22.5259 41.2371 22.5259 41.2371V33.9424Z" fill="#C6C6C6"/>
<path fill-rule="evenodd" clip-rule="evenodd" d="M34.8321 33.9424H24.3882V42.9621C26.1668 44.2519 29.3999 45.9456 34.8321 46.8678V33.9424ZM52.1274 46.868C57.5585 45.9461 60.7916 44.253 62.5706 42.9632V33.9424H52.1274V46.868Z" fill="#761018"/>
<g filter="url(#filter7_ii_1:837)">
<ellipse cx="43.4798" cy="34.227" rx="8.90531" ry="20.9539" transform="rotate(-90 43.4798 34.227)" fill="url(#paint12_linear_1:837)"/>
</g>
<mask id="mask2_1:837" style="mask-type:alpha" maskUnits="userSpaceOnUse" x="22" y="25" width="43" height="19">
<ellipse cx="43.4798" cy="34.227" rx="8.90531" ry="20.9539" transform="rotate(-90 43.4798 34.227)" fill="url(#paint13_linear_1:837)"/>
</mask>
<g mask="url(#mask2_1:837)">
<g filter="url(#filter8_ii_1:837)">
<path fill-rule="evenodd" clip-rule="evenodd" d="M24.1321 37.9431C22.9223 36.8075 22.2505 35.5475 22.2505 34.2251C22.2505 32.9026 22.9223 31.6427 24.1321 30.507L30.6624 31.7636C29.8648 32.5123 29.4189 33.3445 29.4189 34.2251C29.4189 35.1057 29.8648 35.9379 30.6624 36.6866L24.1321 37.9431ZM34.7317 26.0023C37.4038 25.4881 40.3684 25.2026 43.4801 25.2026C46.5918 25.2026 49.5564 25.4881 52.2285 26.0023L49.2719 28.7776C47.5102 28.4386 45.5521 28.2491 43.4801 28.2491C41.4081 28.2491 39.45 28.4386 37.6883 28.7776L34.7317 26.0023ZM43.4801 43.2476C40.3684 43.2476 37.4038 42.9621 34.7317 42.4479L37.6883 39.6725C39.45 40.0115 41.4081 40.201 43.4801 40.201C45.5521 40.201 47.5102 40.0115 49.2719 39.6725L52.2285 42.4479C49.5564 42.9621 46.5918 43.2476 43.4801 43.2476ZM64.7097 34.2251C64.7097 35.5475 64.0379 36.8075 62.8281 37.9431L56.2978 36.6866C57.0954 35.9379 57.5413 35.1057 57.5413 34.2251C57.5413 33.3445 57.0954 32.5123 56.2978 31.7636L62.8281 30.507C64.0379 31.6427 64.7097 32.9026 64.7097 34.2251Z" fill="url(#paint14_linear_1:837)"/>
</g>
</g>
<ellipse cx="43.4774" cy="34.2257" rx="6.09311" ry="16.8749" transform="rotate(-90 43.4774 34.2257)" fill="url(#paint15_linear_1:837)"/>
<path fill-rule="evenodd" clip-rule="evenodd" d="M26.7286 35.1417C26.5986 34.8433 26.5312 34.5379 26.5312 34.2272C26.5312 33.9165 26.5986 33.6111 26.7286 33.3127C26.8122 33.1208 27.321 32.9892 27.8652 33.0187C28.4093 33.0481 28.7826 33.2276 28.699 33.4195C28.5844 33.6826 28.5248 33.9523 28.5248 34.2272C28.5248 34.5021 28.5844 34.7718 28.699 35.0349C28.7826 35.2268 28.4093 35.4063 27.8652 35.4357C27.321 35.4652 26.8122 35.3336 26.7286 35.1417ZM30.0158 31.1891C29.5718 31.0743 29.4757 30.8543 29.8011 30.6977C30.8287 30.2034 32.0667 29.7668 33.4686 29.4044C33.9126 29.2896 34.5364 29.3235 34.8618 29.4801C35.1873 29.6367 35.0912 29.8567 34.6472 29.9714C33.4094 30.2914 32.3163 30.6769 31.409 31.1134C31.0836 31.27 30.4598 31.3039 30.0158 31.1891ZM30.0158 37.2653C30.4598 37.1505 31.0836 37.1844 31.409 37.341C32.3163 37.7775 33.4094 38.163 34.6472 38.4829C35.0912 38.5977 35.1873 38.8177 34.8618 38.9743C34.5364 39.1309 33.9126 39.1648 33.4686 39.05C32.0667 38.6876 30.8287 38.251 29.8011 37.7566C29.4757 37.6001 29.5718 37.3801 30.0158 37.2653ZM40.0498 28.7217C39.9662 28.5298 40.3396 28.3503 40.8837 28.3208C41.7296 28.275 42.5957 28.2513 43.4768 28.2513C44.3579 28.2513 45.224 28.275 46.0699 28.3208C46.614 28.3503 46.9874 28.5298 46.9038 28.7217C46.8202 28.9136 46.3113 29.0452 45.7672 29.0157C45.021 28.9753 44.2562 28.9543 43.4768 28.9543C42.6974 28.9543 41.9326 28.9753 41.1864 29.0157C40.6423 29.0452 40.1334 28.9136 40.0498 28.7217ZM40.0498 39.7327C40.1334 39.5408 40.6423 39.4092 41.1864 39.4386C41.9326 39.4791 42.6974 39.5001 43.4768 39.5001C44.2562 39.5001 45.0211 39.4791 45.7672 39.4386C46.3113 39.4092 46.8202 39.5408 46.9038 39.7327C46.9874 39.9246 46.614 40.1041 46.0699 40.1335C45.224 40.1794 44.3579 40.2031 43.4768 40.2031C42.5957 40.2031 41.7296 40.1794 40.8837 40.1335C40.3396 40.1041 39.9662 39.9246 40.0498 39.7327ZM52.0918 29.4801C52.4172 29.3235 53.041 29.2896 53.485 29.4044C54.8869 29.7668 56.1249 30.2034 57.1525 30.6977C57.4779 30.8543 57.3818 31.0743 56.9378 31.1891C56.4938 31.3039 55.87 31.27 55.5446 31.1134C54.6373 30.6769 53.5442 30.2914 52.3064 29.9714C51.8624 29.8567 51.7663 29.6367 52.0918 29.4801ZM52.0918 38.9743C51.7663 38.8177 51.8624 38.5977 52.3065 38.4829C53.5442 38.163 54.6373 37.7775 55.5446 37.341C55.87 37.1844 56.4938 37.1505 56.9378 37.2653C57.3818 37.3801 57.4779 37.6001 57.1525 37.7566C56.1249 38.251 54.887 38.6876 53.485 39.05C53.041 39.1648 52.4173 39.1309 52.0918 38.9743ZM59.0884 33.0187C59.6326 32.9892 60.1415 33.1208 60.2251 33.3127C60.355 33.6111 60.4224 33.9165 60.4224 34.2272C60.4224 34.5379 60.355 34.8433 60.2251 35.1417C60.1415 35.3336 59.6326 35.4652 59.0884 35.4357C58.5443 35.4063 58.171 35.2268 58.2546 35.0349C58.3692 34.7718 58.4288 34.5021 58.4288 34.2272C58.4288 33.9523 58.3692 33.6826 58.2546 33.4195C58.171 33.2276 58.5443 33.0481 59.0884 33.0187Z" fill="url(#paint16_linear_1:837)"/>
<ellipse cx="43.481" cy="34.2252" rx="5.39005" ry="15.5489" transform="rotate(-90 43.481 34.2252)" fill="url(#paint17_linear_1:837)"/>
</g>
<g filter="url(#filter9_d_1:837)">
<path d="M22.5259 27.9741L64.4337 27.9741V35.2688C64.4337 35.2688 60.1099 41.5687 43.4798 41.5687C26.8497 41.5687 22.5259 35.2688 22.5259 35.2688V27.9741Z" fill="#C6C6C6"/>
<path fill-rule="evenodd" clip-rule="evenodd" d="M34.8321 27.9751H24.3882V36.9948C26.1668 38.2846 29.3999 39.9783 34.8321 40.9005V27.9751ZM52.1274 40.9007C57.5585 39.9788 60.7916 38.2857 62.5706 36.9959V27.9751L52.1274 27.9751V40.9007Z" fill="#761018"/>
<g filter="url(#filter10_ii_1:837)">
<ellipse cx="43.4798" cy="28.2588" rx="8.90531" ry="20.9539" transform="rotate(-90 43.4798 28.2588)" fill="url(#paint18_linear_1:837)"/>
</g>
<mask id="mask3_1:837" style="mask-type:alpha" maskUnits="userSpaceOnUse" x="22" y="19" width="43" height="19">
<ellipse cx="43.4798" cy="28.2588" rx="8.90531" ry="20.9539" transform="rotate(-90 43.4798 28.2588)" fill="url(#paint19_linear_1:837)"/>
</mask>
<g mask="url(#mask3_1:837)">
<g filter="url(#filter11_ii_1:837)">
<path fill-rule="evenodd" clip-rule="evenodd" d="M24.1321 31.9768C22.9223 30.8412 22.2505 29.5812 22.2505 28.2588C22.2505 26.9363 22.9223 25.6764 24.1321 24.5407L30.6624 25.7973C29.8648 26.546 29.4189 27.3782 29.4189 28.2588C29.4189 29.1393 29.8648 29.9716 30.6624 30.7203L24.1321 31.9768ZM34.7317 20.036C37.4038 19.5218 40.3684 19.2363 43.4801 19.2363C46.5918 19.2363 49.5564 19.5218 52.2285 20.036L49.2719 22.8113C47.5102 22.4723 45.5521 22.2828 43.4801 22.2828C41.4081 22.2828 39.45 22.4723 37.6883 22.8113L34.7317 20.036ZM43.4801 37.2812C40.3684 37.2812 37.4038 36.9958 34.7317 36.4816L37.6883 33.7062C39.45 34.0452 41.4081 34.2347 43.4801 34.2347C45.5521 34.2347 47.5102 34.0452 49.2719 33.7062L52.2285 36.4816C49.5564 36.9958 46.5918 37.2812 43.4801 37.2812ZM64.7097 28.2588C64.7097 29.5812 64.0379 30.8411 62.8281 31.9768L56.2978 30.7203C57.0954 29.9716 57.5413 29.1393 57.5413 28.2588C57.5413 27.3782 57.0954 26.546 56.2978 25.7973L62.8281 24.5407C64.0379 25.6764 64.7097 26.9363 64.7097 28.2588Z" fill="url(#paint20_linear_1:837)"/>
</g>
</g>
<ellipse cx="43.4774" cy="28.2599" rx="6.09311" ry="16.8749" transform="rotate(-90 43.4774 28.2599)" fill="url(#paint21_linear_1:837)"/>
<path fill-rule="evenodd" clip-rule="evenodd" d="M26.7286 29.1744C26.5986 28.8761 26.5312 28.5706 26.5312 28.2599C26.5312 27.9492 26.5986 27.6438 26.7286 27.3454C26.8122 27.1535 27.321 27.0219 27.8652 27.0514C28.4093 27.0809 28.7826 27.2603 28.699 27.4522C28.5844 27.7153 28.5248 27.985 28.5248 28.2599C28.5248 28.5348 28.5844 28.8045 28.699 29.0676C28.7826 29.2595 28.4093 29.439 27.8652 29.4685C27.321 29.4979 26.8122 29.3663 26.7286 29.1744ZM30.0158 25.2218C29.5718 25.107 29.4757 24.887 29.8011 24.7305C30.8287 24.2361 32.0667 23.7995 33.4686 23.4371C33.9126 23.3223 34.5364 23.3562 34.8618 23.5128C35.1873 23.6694 35.0912 23.8894 34.6472 24.0042C33.4094 24.3241 32.3163 24.7096 31.409 25.1461C31.0836 25.3027 30.4598 25.3366 30.0158 25.2218ZM30.0158 31.298C30.4598 31.1833 31.0836 31.2171 31.409 31.3737C32.3163 31.8102 33.4094 32.1957 34.6472 32.5157C35.0912 32.6304 35.1873 32.8504 34.8618 33.007C34.5364 33.1636 33.9126 33.1975 33.4686 33.0827C32.0667 32.7203 30.8287 32.2838 29.8011 31.7894C29.4757 31.6328 29.5718 31.4128 30.0158 31.298ZM40.0498 22.7544C39.9662 22.5625 40.3396 22.383 40.8837 22.3536C41.7296 22.3077 42.5957 22.284 43.4768 22.284C44.3579 22.284 45.224 22.3077 46.0699 22.3536C46.614 22.383 46.9874 22.5625 46.9038 22.7544C46.8202 22.9463 46.3113 23.0779 45.7672 23.0485C45.021 23.008 44.2562 22.987 43.4768 22.987C42.6974 22.987 41.9326 23.008 41.1864 23.0485C40.6423 23.0779 40.1334 22.9463 40.0498 22.7544ZM40.0498 33.7654C40.1334 33.5735 40.6423 33.4419 41.1864 33.4714C41.9326 33.5118 42.6974 33.5328 43.4768 33.5328C44.2562 33.5328 45.0211 33.5118 45.7672 33.4714C46.3113 33.4419 46.8202 33.5735 46.9038 33.7654C46.9874 33.9573 46.614 34.1368 46.0699 34.1663C45.224 34.2121 44.3579 34.2358 43.4768 34.2358C42.5957 34.2358 41.7296 34.2121 40.8837 34.1663C40.3396 34.1368 39.9662 33.9573 40.0498 33.7654ZM52.0918 23.5128C52.4172 23.3562 53.041 23.3223 53.485 23.4371C54.8869 23.7995 56.1249 24.2361 57.1525 24.7305C57.4779 24.887 57.3818 25.107 56.9378 25.2218C56.4938 25.3366 55.87 25.3027 55.5446 25.1461C54.6373 24.7096 53.5442 24.3241 52.3064 24.0042C51.8624 23.8894 51.7663 23.6694 52.0918 23.5128ZM52.0918 33.007C51.7663 32.8504 51.8624 32.6304 52.3065 32.5157C53.5442 32.1957 54.6373 31.8102 55.5446 31.3737C55.87 31.2171 56.4938 31.1833 56.9378 31.298C57.3818 31.4128 57.4779 31.6328 57.1525 31.7894C56.1249 32.2838 54.887 32.7203 53.485 33.0827C53.041 33.1975 52.4173 33.1636 52.0918 33.007ZM59.0884 27.0514C59.6326 27.0219 60.1415 27.1535 60.2251 27.3454C60.355 27.6438 60.4224 27.9492 60.4224 28.2599C60.4224 28.5706 60.355 28.8761 60.2251 29.1744C60.1415 29.3663 59.6326 29.4979 59.0884 29.4685C58.5443 29.439 58.171 29.2595 58.2546 29.0676C58.3692 28.8045 58.4288 28.5348 58.4288 28.2599C58.4288 27.985 58.3692 27.7153 58.2546 27.4522C58.171 27.2603 58.5443 27.0808 59.0884 27.0514Z" fill="url(#paint22_linear_1:837)"/>
<ellipse cx="43.481" cy="28.2579" rx="5.39005" ry="15.5489" transform="rotate(-90 43.481 28.2579)" fill="url(#paint23_linear_1:837)"/>
</g>
<g filter="url(#filter12_d_1:837)">
<path d="M18.5347 20.0166L60.4425 20.0166V27.3113C60.4425 27.3113 56.1186 33.6112 39.4886 33.6112C22.8585 33.6112 18.5347 27.3113 18.5347 27.3113V20.0166Z" fill="#C6C6C6"/>
<path fill-rule="evenodd" clip-rule="evenodd" d="M30.8404 20.0181H20.3965V29.0378C22.1751 30.3276 25.4082 32.0213 30.8404 32.9435V20.0181ZM48.1357 32.9436C53.5668 32.0218 56.7999 30.3287 58.5789 29.0389V20.0181L48.1357 20.0181V32.9436Z" fill="#761018"/>
<g filter="url(#filter13_ii_1:837)">
<ellipse cx="39.4886" cy="20.3012" rx="8.90531" ry="20.9539" transform="rotate(-90 39.4886 20.3012)" fill="url(#paint24_linear_1:837)"/>
</g>
<mask id="mask4_1:837" style="mask-type:alpha" maskUnits="userSpaceOnUse" x="18" y="11" width="43" height="19">
<ellipse cx="39.4886" cy="20.3012" rx="8.90531" ry="20.9539" transform="rotate(-90 39.4886 20.3012)" fill="url(#paint25_linear_1:837)"/>
</mask>
<g mask="url(#mask4_1:837)">
<g filter="url(#filter14_ii_1:837)">
<path fill-rule="evenodd" clip-rule="evenodd" d="M20.137 24.0193C18.9271 22.8836 18.2554 21.6237 18.2554 20.3012C18.2554 18.9788 18.9271 17.7189 20.137 16.5832L26.6673 17.8398C25.8697 18.5885 25.4238 19.4207 25.4238 20.3012C25.4238 21.1818 25.8697 22.014 26.6673 22.7627L20.137 24.0193ZM30.7365 12.0784C33.4087 11.5643 36.3732 11.2788 39.485 11.2788C42.5967 11.2788 45.5612 11.5643 48.2334 12.0784L45.2768 14.8538C43.5151 14.5148 41.557 14.3253 39.485 14.3253C37.413 14.3253 35.4548 14.5148 33.6932 14.8538L30.7365 12.0784ZM39.485 29.3237C36.3732 29.3237 33.4087 29.0382 30.7366 28.5241L33.6932 25.7487C35.4548 26.0877 37.413 26.2772 39.485 26.2772C41.557 26.2772 43.5151 26.0877 45.2768 25.7487L48.2334 28.5241C45.5612 29.0382 42.5967 29.3237 39.485 29.3237ZM60.7146 20.3012C60.7146 21.6237 60.0428 22.8836 58.833 24.0193L52.3027 22.7627C53.1003 22.014 53.5462 21.1818 53.5462 20.3012C53.5462 19.4207 53.1003 18.5885 52.3027 17.8398L58.833 16.5832C60.0428 17.7189 60.7146 18.9788 60.7146 20.3012Z" fill="url(#paint26_linear_1:837)"/>
</g>
</g>
<ellipse cx="39.4862" cy="20.3014" rx="6.09311" ry="16.8749" transform="rotate(-90 39.4862 20.3014)" fill="url(#paint27_linear_1:837)"/>
<path fill-rule="evenodd" clip-rule="evenodd" d="M22.7364 21.2164C22.6064 20.918 22.5391 20.6126 22.5391 20.3019C22.5391 19.9912 22.6064 19.6858 22.7364 19.3874C22.82 19.1955 23.3288 19.0639 23.873 19.0934C24.4171 19.1228 24.7904 19.3023 24.7068 19.4942C24.5922 19.7573 24.5327 20.027 24.5327 20.3019C24.5327 20.5768 24.5922 20.8465 24.7068 21.1096C24.7904 21.3015 24.4171 21.481 23.873 21.5104C23.3288 21.5399 22.82 21.4083 22.7364 21.2164ZM26.0236 17.2638C25.5796 17.149 25.4835 16.929 25.809 16.7725C26.8366 16.2781 28.0745 15.8415 29.4764 15.4791C29.9204 15.3643 30.5442 15.3982 30.8696 15.5548C31.1951 15.7114 31.099 15.9314 30.655 16.0462C29.4172 16.3661 28.3241 16.7516 27.4169 17.1881C27.0914 17.3447 26.4676 17.3786 26.0236 17.2638ZM26.0236 23.34C26.4676 23.2252 27.0914 23.2591 27.4169 23.4157C28.3241 23.8522 29.4172 24.2377 30.655 24.5577C31.099 24.6724 31.1951 24.8924 30.8696 25.049C30.5442 25.2056 29.9204 25.2395 29.4764 25.1247C28.0745 24.7623 26.8366 24.3257 25.809 23.8314C25.4835 23.6748 25.5796 23.4548 26.0236 23.34ZM36.0576 14.7964C35.974 14.6045 36.3474 14.425 36.8915 14.3956C37.7375 14.3497 38.6035 14.326 39.4846 14.326C40.3657 14.326 41.2318 14.3497 42.0777 14.3956C42.6219 14.425 42.9952 14.6045 42.9116 14.7964C42.828 14.9883 42.3191 15.1199 41.775 15.0904C41.0289 15.05 40.264 15.029 39.4846 15.029C38.7052 15.029 37.9404 15.05 37.1942 15.0904C36.6501 15.1199 36.1412 14.9883 36.0576 14.7964ZM36.0576 25.8074C36.1412 25.6155 36.6501 25.4839 37.1942 25.5134C37.9404 25.5538 38.7052 25.5748 39.4846 25.5748C40.264 25.5748 41.0289 25.5538 41.775 25.5134C42.3191 25.4839 42.828 25.6155 42.9116 25.8074C42.9952 25.9993 42.6219 26.1788 42.0777 26.2083C41.2318 26.2541 40.3657 26.2778 39.4846 26.2778C38.6035 26.2778 37.7375 26.2541 36.8915 26.2083C36.3474 26.1788 35.974 25.9993 36.0576 25.8074ZM48.0996 15.5548C48.4251 15.3982 49.0488 15.3643 49.4928 15.4791C50.8948 15.8415 52.1327 16.2781 53.1603 16.7724C53.4857 16.929 53.3896 17.149 52.9456 17.2638C52.5016 17.3786 51.8778 17.3447 51.5524 17.1881C50.6451 16.7516 49.552 16.3661 48.3143 16.0461C47.8703 15.9314 47.7741 15.7114 48.0996 15.5548ZM48.0996 25.049C47.7741 24.8924 47.8703 24.6724 48.3143 24.5577C49.552 24.2377 50.6451 23.8522 51.5524 23.4157C51.8778 23.2591 52.5016 23.2252 52.9456 23.34C53.3896 23.4548 53.4857 23.6748 53.1603 23.8314C52.1327 24.3257 50.8948 24.7623 49.4928 25.1247C49.0488 25.2395 48.4251 25.2056 48.0996 25.049ZM55.0963 19.0934C55.6404 19.0639 56.1493 19.1955 56.2329 19.3874C56.3628 19.6858 56.4302 19.9912 56.4302 20.3019C56.4302 20.6126 56.3628 20.918 56.2329 21.2164C56.1493 21.4083 55.6404 21.5399 55.0963 21.5104C54.5521 21.481 54.1788 21.3015 54.2624 21.1096C54.377 20.8465 54.4366 20.5768 54.4366 20.3019C54.4366 20.027 54.377 19.7573 54.2624 19.4942C54.1788 19.3023 54.5521 19.1228 55.0963 19.0934Z" fill="url(#paint28_linear_1:837)"/>
<ellipse cx="39.4878" cy="20.2994" rx="5.39005" ry="15.5489" transform="rotate(-90 39.4878 20.2994)" fill="url(#paint29_linear_1:837)"/>
</g>
<g filter="url(#filter15_d_1:837)">
<path d="M32.5044 57.1533H74.4122V64.448C74.4122 64.448 70.0884 70.7479 53.4583 70.7479C36.8282 70.7479 32.5044 64.448 32.5044 64.448V57.1533Z" fill="#C6C6C6"/>
<path fill-rule="evenodd" clip-rule="evenodd" d="M44.8116 57.1538H34.3677V66.1735C36.1463 67.4634 39.3794 69.1571 44.8116 70.0792V57.1538ZM62.1069 70.0794C67.538 69.1575 70.7711 67.4644 72.5501 66.1746V57.1538H62.1069V70.0794Z" fill="#761018"/>
<g filter="url(#filter16_ii_1:837)">
<ellipse cx="53.4583" cy="57.438" rx="8.90531" ry="20.9539" transform="rotate(-90 53.4583 57.438)" fill="url(#paint30_linear_1:837)"/>
</g>
<mask id="mask5_1:837" style="mask-type:alpha" maskUnits="userSpaceOnUse" x="32" y="48" width="43" height="19">
<ellipse cx="53.4583" cy="57.438" rx="8.90531" ry="20.9539" transform="rotate(-90 53.4583 57.438)" fill="url(#paint31_linear_1:837)"/>
</mask>
<g mask="url(#mask5_1:837)">
<g filter="url(#filter17_ii_1:837)">
<path fill-rule="evenodd" clip-rule="evenodd" d="M34.1087 61.1555C32.8988 60.0199 32.2271 58.76 32.2271 57.4375C32.2271 56.115 32.8988 54.8551 34.1087 53.7194L40.639 54.976C39.8414 55.7247 39.3955 56.5569 39.3955 57.4375C39.3955 58.3181 39.8414 59.1503 40.639 59.899L34.1087 61.1555ZM44.7082 49.2147C47.3804 48.7005 50.3449 48.415 53.4567 48.415C56.5684 48.415 59.5329 48.7005 62.2051 49.2147L59.2485 51.99C57.4868 51.651 55.5286 51.4615 53.4567 51.4615C51.3847 51.4615 49.4265 51.651 47.6649 51.99L44.7082 49.2147ZM53.4567 66.46C50.3449 66.46 47.3804 66.1745 44.7082 65.6603L47.6649 62.8849C49.4265 63.2239 51.3847 63.4134 53.4567 63.4134C55.5286 63.4134 57.4868 63.2239 59.2485 62.8849L62.2051 65.6603C59.5329 66.1745 56.5684 66.46 53.4567 66.46ZM74.6863 57.4375C74.6863 58.76 74.0145 60.0199 72.8047 61.1555L66.2744 59.899C67.072 59.1503 67.5178 58.3181 67.5178 57.4375C67.5178 56.5569 67.072 55.7247 66.2744 54.976L72.8047 53.7194C74.0145 54.8551 74.6863 56.115 74.6863 57.4375Z" fill="url(#paint32_linear_1:837)"/>
</g>
</g>
<ellipse cx="53.4564" cy="57.4381" rx="6.09311" ry="16.8749" transform="rotate(-90 53.4564 57.4381)" fill="url(#paint33_linear_1:837)"/>
<path fill-rule="evenodd" clip-rule="evenodd" d="M36.7061 58.3531C36.5761 58.0548 36.5088 57.7493 36.5088 57.4386C36.5088 57.1279 36.5761 56.8225 36.7061 56.5241C36.7897 56.3323 37.2986 56.2006 37.8427 56.2301C38.3868 56.2596 38.7602 56.439 38.6766 56.6309C38.5619 56.894 38.5024 57.1638 38.5024 57.4386C38.5024 57.7135 38.5619 57.9832 38.6766 58.2463C38.7602 58.4382 38.3868 58.6177 37.8427 58.6472C37.2986 58.6766 36.7897 58.545 36.7061 58.3531ZM39.9933 54.4005C39.5493 54.2857 39.4532 54.0658 39.7787 53.9092C40.8063 53.4148 42.0442 52.9782 43.4461 52.6158C43.8901 52.5011 44.5139 52.535 44.8393 52.6915C45.1648 52.8481 45.0687 53.0681 44.6247 53.1829C43.387 53.5028 42.2938 53.8883 41.3866 54.3248C41.0611 54.4814 40.4373 54.5153 39.9933 54.4005ZM39.9933 60.4767C40.4374 60.362 41.0611 60.3959 41.3866 60.5524C42.2938 60.9889 43.387 61.3744 44.6247 61.6944C45.0687 61.8091 45.1648 62.0291 44.8394 62.1857C44.5139 62.3423 43.8901 62.3762 43.4461 62.2614C42.0442 61.899 40.8063 61.4625 39.7787 60.9681C39.4532 60.8115 39.5493 60.5915 39.9933 60.4767ZM50.0274 51.9331C49.9438 51.7412 50.3171 51.5618 50.8612 51.5323C51.7072 51.4864 52.5732 51.4627 53.4543 51.4627C54.3355 51.4627 55.2015 51.4864 56.0475 51.5323C56.5916 51.5618 56.9649 51.7412 56.8813 51.9331C56.7977 52.125 56.2888 52.2566 55.7447 52.2272C54.9986 52.1867 54.2337 52.1657 53.4543 52.1657C52.6749 52.1657 51.9101 52.1867 51.164 52.2272C50.6198 52.2566 50.111 52.125 50.0274 51.9331ZM50.0274 62.9441C50.111 62.7523 50.6198 62.6206 51.164 62.6501C51.9101 62.6905 52.6749 62.7115 53.4543 62.7115C54.2337 62.7115 54.9986 62.6905 55.7447 62.6501C56.2888 62.6206 56.7977 62.7523 56.8813 62.9441C56.9649 63.136 56.5916 63.3155 56.0475 63.345C55.2015 63.3908 54.3355 63.4146 53.4543 63.4146C52.5732 63.4146 51.7072 63.3908 50.8612 63.345C50.3171 63.3155 49.9438 63.136 50.0274 62.9441ZM62.0693 52.6915C62.3948 52.535 63.0186 52.5011 63.4626 52.6158C64.8645 52.9782 66.1024 53.4148 67.13 53.9092C67.4555 54.0658 67.3594 54.2857 66.9153 54.4005C66.4713 54.5153 65.8476 54.4814 65.5221 54.3248C64.6148 53.8883 63.5217 53.5028 62.284 53.1829C61.84 53.0681 61.7439 52.8481 62.0693 52.6915ZM62.0693 62.1857C61.7439 62.0291 61.84 61.8091 62.284 61.6944C63.5217 61.3744 64.6148 60.9889 65.5221 60.5524C65.8476 60.3959 66.4713 60.362 66.9153 60.4767C67.3594 60.5915 67.4555 60.8115 67.13 60.9681C66.1024 61.4625 64.8645 61.899 63.4626 62.2614C63.0186 62.3762 62.3948 62.3423 62.0693 62.1857ZM69.066 56.2301C69.6101 56.2006 70.119 56.3323 70.2026 56.5241C70.3326 56.8225 70.3999 57.1279 70.3999 57.4386C70.3999 57.7493 70.3326 58.0548 70.2026 58.3531C70.119 58.545 69.6101 58.6766 69.066 58.6472C68.5219 58.6177 68.1485 58.4382 68.2321 58.2463C68.3467 57.9832 68.4063 57.7135 68.4063 57.4386C68.4063 57.1638 68.3467 56.894 68.2321 56.6309C68.1485 56.439 68.5219 56.2596 69.066 56.2301Z" fill="url(#paint34_linear_1:837)"/>
<ellipse cx="53.4585" cy="57.4361" rx="5.39005" ry="15.5489" transform="rotate(-90 53.4585 57.4361)" fill="url(#paint35_linear_1:837)"/>
</g>
<g filter="url(#filter18_d_1:837)">
<path d="M3.40967 61.1099L42.8737 47.0518L45.3359 53.9211C45.3359 53.9211 43.3906 61.3041 27.7303 66.8827C12.07 72.4613 5.87184 67.9792 5.87184 67.9792L3.40967 61.1099Z" fill="#C6C6C6"/>
<path fill-rule="evenodd" clip-rule="evenodd" d="M14.9997 56.9823L5.16455 60.4858L8.20913 68.98C10.3196 69.5979 13.9359 70.1081 19.3624 69.1542L14.9997 56.9823ZM35.6491 63.3523C40.4537 60.6614 42.9266 57.9817 44.1661 56.1704L41.1218 47.677L31.2864 51.1806L35.6491 63.3523Z" fill="#761018"/>
<g filter="url(#filter19_ii_1:837)">
<ellipse rx="8.90843" ry="20.9466" transform="matrix(-0.337413 -0.941357 0.942016 -0.335569 23.2384 54.3491)" fill="url(#paint36_linear_1:837)"/>
</g>
<mask id="mask6_1:837" style="mask-type:alpha" maskUnits="userSpaceOnUse" x="3" y="43" width="41" height="23">
<ellipse rx="8.90843" ry="20.9466" transform="matrix(-0.337413 -0.941357 0.942016 -0.335569 23.2384 54.3491)" fill="url(#paint37_linear_1:837)"/>
</mask>
<g mask="url(#mask6_1:837)">
<g filter="url(#filter20_ii_1:837)">
<path fill-rule="evenodd" clip-rule="evenodd" d="M6.27053 64.341C4.74792 63.6774 3.69007 62.7163 3.2437 61.4709C2.79732 60.2256 3.00465 58.8138 3.76062 57.3385L10.3342 56.3312C9.83587 57.3038 9.6969 58.237 9.99412 59.0663C10.2913 59.8955 10.9921 60.5296 11.9959 60.9671L6.27053 64.341ZM12.2216 49.5408C14.5644 48.1602 17.2597 46.8969 20.19 45.853C23.1203 44.8092 26.0083 44.0836 28.6982 43.6714L26.8507 47.2767C25.0774 47.5485 23.1694 48.0269 21.2183 48.7219C19.2671 49.417 17.4871 50.2523 15.9426 51.1625L12.2216 49.5408ZM26.2807 62.8458C23.3504 63.8896 20.4624 64.6152 17.7725 65.0274L19.62 61.4221C21.3933 61.1503 23.3012 60.6719 25.2524 59.9769C27.2036 59.2818 28.9836 58.4465 30.5281 57.5363L34.2491 59.158C31.9063 60.5386 29.211 61.8019 26.2807 62.8458ZM43.227 47.2279C43.6734 48.4732 43.466 49.885 42.7101 51.3603L36.1364 52.3676C36.6348 51.395 36.7738 50.4618 36.4766 49.6326C36.1793 48.8033 35.4786 48.1692 34.4748 47.7317L40.2002 44.3578C41.7228 45.0214 42.7806 45.9825 43.227 47.2279Z" fill="url(#paint38_linear_1:837)"/>
</g>
</g>
<ellipse rx="6.09524" ry="16.869" transform="matrix(-0.337413 -0.941357 0.942016 -0.335569 23.2356 54.349)" fill="url(#paint39_linear_1:837)"/>
<path fill-rule="evenodd" clip-rule="evenodd" d="M7.77232 60.8301C7.54924 60.5928 7.38274 60.3278 7.27786 60.0351C7.17298 59.7425 7.1333 59.4323 7.155 59.1078C7.16895 58.8991 7.60371 58.6044 8.12607 58.4496C8.64842 58.2948 9.06056 58.3386 9.0466 58.5473C9.02747 58.8336 9.06243 59.1076 9.1552 59.3664C9.24798 59.6252 9.3951 59.8592 9.59186 60.0686C9.73535 60.2212 9.44436 60.5155 8.94191 60.7257C8.43945 60.936 7.91581 60.9828 7.77232 60.8301ZM9.53376 56.0053C9.0769 56.0461 8.91215 55.8712 9.16578 55.6146C9.96658 54.8043 10.985 53.978 12.1828 53.1664C12.5622 52.9094 13.161 52.7321 13.5204 52.7704C13.8797 52.8086 13.8634 53.048 13.4841 53.3051C12.4265 54.0215 11.5272 54.7513 10.8202 55.4666C10.5666 55.7233 9.99062 55.9644 9.53376 56.0053ZM11.5847 61.7272C11.9641 61.4702 12.5629 61.2928 12.9222 61.3311C13.9239 61.4378 15.0834 61.4341 16.357 61.3202C16.8138 61.2794 16.9786 61.4543 16.7249 61.7109C16.4713 61.9675 15.8953 62.2087 15.4385 62.2496C13.996 62.3786 12.6829 62.3827 11.5484 62.2619C11.189 62.2236 11.2053 61.9842 11.5847 61.7272ZM18.1498 50.3158C18.0064 50.1632 18.2973 49.8689 18.7998 49.6586C19.5809 49.3317 20.3885 49.0188 21.2182 48.7233C22.0479 48.4277 22.8715 48.1595 23.6836 47.9189C24.2059 47.7641 24.6181 47.8079 24.6041 48.0166C24.5902 48.2254 24.1554 48.5201 23.6331 48.6748C22.9168 48.8871 22.1895 49.1239 21.4555 49.3853C20.7216 49.6468 20.0084 49.9231 19.3194 50.2115C18.817 50.4218 18.2933 50.4685 18.1498 50.3158ZM21.8664 60.6848C21.8804 60.476 22.3151 60.1814 22.8375 60.0266C23.5537 59.8144 24.2811 59.5776 25.015 59.3161C25.749 59.0547 26.4621 58.7783 27.1511 58.49C27.6536 58.2797 28.1772 58.2329 28.3207 58.3856C28.4642 58.5383 28.1732 58.8325 27.6707 59.0428C26.8896 59.3697 26.0821 59.6826 25.2523 59.9782C24.4226 60.2737 23.599 60.5419 22.7869 60.7825C22.2646 60.9373 21.8525 60.8935 21.8664 60.6848ZM29.7456 46.9905C29.9992 46.7339 30.5752 46.4927 31.0321 46.4519C32.4745 46.3229 33.7876 46.3187 34.9222 46.4395C35.2815 46.4778 35.2652 46.7172 34.8859 46.9742C34.5065 47.2313 33.9076 47.4086 33.5483 47.3703C32.5466 47.2636 31.3871 47.2673 30.1136 47.3812C29.6567 47.4221 29.492 47.2472 29.7456 46.9905ZM32.9502 55.9311C32.5909 55.8928 32.6071 55.6534 32.9865 55.3964C34.044 54.6799 34.9433 53.9502 35.6503 53.2348C35.904 52.9782 36.4799 52.737 36.9368 52.6961C37.3936 52.6553 37.5584 52.8302 37.3048 53.0868C36.504 53.8971 35.4856 54.7235 34.2877 55.535C33.9084 55.792 33.3095 55.9693 32.9502 55.9311ZM37.5286 47.9757C38.0311 47.7654 38.5547 47.7187 38.6982 47.8713C38.9213 48.1087 39.0878 48.3737 39.1927 48.6663C39.2976 48.9589 39.3372 49.2691 39.3155 49.5936C39.3016 49.8024 38.8668 50.0971 38.3445 50.2518C37.8221 50.4066 37.41 50.3628 37.4239 50.1541C37.4431 49.8679 37.4081 49.5939 37.3153 49.335C37.2226 49.0762 37.0754 48.8422 36.8787 48.6329C36.7352 48.4802 37.0262 48.186 37.5286 47.9757Z" fill="url(#paint40_linear_1:837)"/>
<ellipse rx="5.39194" ry="15.5435" transform="matrix(-0.337413 -0.941357 0.942016 -0.335569 23.2384 54.348)" fill="url(#paint41_linear_1:837)"/>
</g>
<path d="M22.5259 14.5894L64.4337 14.5894V21.884C64.4337 21.884 60.1099 28.184 43.4798 28.184C26.8497 28.184 22.5259 21.884 22.5259 21.884V14.5894Z" fill="#C6C6C6"/>
<path fill-rule="evenodd" clip-rule="evenodd" d="M34.8321 14.5894H24.3882V23.6091C26.1668 24.8989 29.3999 26.5926 34.8321 27.5148V14.5894ZM52.1274 27.5149C57.5585 26.5931 60.7916 24.8999 62.5706 23.6102V14.5894H52.1274V27.5149Z" fill="#761018"/>
<g filter="url(#filter21_ii_1:837)">
<ellipse cx="43.4798" cy="14.874" rx="8.90531" ry="20.9539" transform="rotate(-90 43.4798 14.874)" fill="url(#paint42_linear_1:837)"/>
</g>
<mask id="mask7_1:837" style="mask-type:alpha" maskUnits="userSpaceOnUse" x="22" y="5" width="43" height="19">
<ellipse cx="43.4798" cy="14.874" rx="8.90531" ry="20.9539" transform="rotate(-90 43.4798 14.874)" fill="url(#paint43_linear_1:837)"/>
</mask>
<g mask="url(#mask7_1:837)">
<g filter="url(#filter22_ii_1:837)">
<path fill-rule="evenodd" clip-rule="evenodd" d="M24.1321 18.5911C22.9223 17.4554 22.2505 16.1955 22.2505 14.873C22.2505 13.5505 22.9223 12.2906 24.1321 11.155L30.6624 12.4115C29.8648 13.1602 29.4189 13.9924 29.4189 14.873C29.4189 15.7536 29.8648 16.5858 30.6624 17.3345L24.1321 18.5911ZM34.7317 6.65021C37.4038 6.13604 40.3684 5.85054 43.4801 5.85054C46.5918 5.85054 49.5564 6.13604 52.2285 6.65021L49.2719 9.42556C47.5102 9.08658 45.5521 8.89709 43.4801 8.89709C41.4081 8.89709 39.45 9.08658 37.6883 9.42556L34.7317 6.65021ZM43.4801 23.8955C40.3684 23.8955 37.4038 23.61 34.7317 23.0958L37.6883 20.3205C39.45 20.6595 41.4081 20.849 43.4801 20.849C45.5521 20.849 47.5102 20.6595 49.2719 20.3205L52.2285 23.0958C49.5564 23.61 46.5918 23.8955 43.4801 23.8955ZM64.7097 14.873C64.7097 16.1955 64.0379 17.4554 62.8281 18.5911L56.2978 17.3345C57.0954 16.5858 57.5413 15.7536 57.5413 14.873C57.5413 13.9924 57.0954 13.1602 56.2978 12.4115L62.8281 11.155C64.0379 12.2906 64.7097 13.5505 64.7097 14.873Z" fill="url(#paint44_linear_1:837)"/>
</g>
</g>
<ellipse cx="43.4774" cy="14.8742" rx="6.09311" ry="16.8749" transform="rotate(-90 43.4774 14.8742)" fill="url(#paint45_linear_1:837)"/>
<path fill-rule="evenodd" clip-rule="evenodd" d="M26.7286 15.7896C26.5986 15.4913 26.5312 15.1859 26.5312 14.8751C26.5312 14.5644 26.5986 14.259 26.7286 13.9607C26.8122 13.7688 27.321 13.6371 27.8652 13.6666C28.4093 13.6961 28.7826 13.8755 28.699 14.0674C28.5844 14.3306 28.5248 14.6003 28.5248 14.8751C28.5248 15.15 28.5844 15.4197 28.699 15.6829C28.7826 15.8747 28.4093 16.0542 27.8652 16.0837C27.321 16.1132 26.8122 15.9815 26.7286 15.7896ZM30.0158 11.837C29.5718 11.7223 29.4757 11.5023 29.8011 11.3457C30.8287 10.8513 32.0667 10.4147 33.4686 10.0524C33.9126 9.93758 34.5364 9.97148 34.8618 10.1281C35.1873 10.2846 35.0912 10.5046 34.6472 10.6194C33.4094 10.9393 32.3163 11.3248 31.409 11.7613C31.0836 11.9179 30.4598 11.9518 30.0158 11.837ZM30.0158 17.9133C30.4598 17.7985 31.0836 17.8324 31.409 17.989C32.3163 18.4255 33.4094 18.8109 34.6472 19.1309C35.0912 19.2457 35.1873 19.4656 34.8618 19.6222C34.5364 19.7788 33.9126 19.8127 33.4686 19.6979C32.0667 19.3355 30.8287 18.899 29.8011 18.4046C29.4757 18.248 29.5718 18.028 30.0158 17.9133ZM40.0498 9.36962C39.9662 9.17773 40.3396 8.99827 40.8837 8.96879C41.7296 8.92296 42.5957 8.89921 43.4768 8.89921C44.3579 8.89921 45.224 8.92296 46.0699 8.96879C46.614 8.99827 46.9874 9.17773 46.9038 9.36962C46.8202 9.56151 46.3113 9.69317 45.7672 9.66369C45.021 9.62327 44.2562 9.60226 43.4768 9.60226C42.6974 9.60226 41.9326 9.62327 41.1864 9.66369C40.6423 9.69317 40.1334 9.56151 40.0498 9.36962ZM40.0498 20.3807C40.1334 20.1888 40.6423 20.0571 41.1864 20.0866C41.9326 20.127 42.6974 20.148 43.4768 20.148C44.2562 20.148 45.0211 20.127 45.7672 20.0866C46.3113 20.0571 46.8202 20.1888 46.9038 20.3807C46.9874 20.5726 46.614 20.752 46.0699 20.7815C45.224 20.8273 44.3579 20.8511 43.4768 20.8511C42.5957 20.8511 41.7296 20.8273 40.8837 20.7815C40.3396 20.752 39.9662 20.5726 40.0498 20.3807ZM52.0918 10.1281C52.4172 9.97148 53.041 9.93758 53.485 10.0524C54.8869 10.4147 56.1249 10.8513 57.1525 11.3457C57.4779 11.5023 57.3818 11.7223 56.9378 11.837C56.4938 11.9518 55.87 11.9179 55.5446 11.7613C54.6373 11.3248 53.5442 10.9393 52.3064 10.6194C51.8624 10.5046 51.7663 10.2846 52.0918 10.1281ZM52.0918 19.6222C51.7663 19.4656 51.8624 19.2457 52.3065 19.1309C53.5442 18.8109 54.6373 18.4255 55.5446 17.989C55.87 17.8324 56.4938 17.7985 56.9378 17.9133C57.3818 18.028 57.4779 18.248 57.1525 18.4046C56.1249 18.899 54.887 19.3355 53.485 19.6979C53.041 19.8127 52.4173 19.7788 52.0918 19.6222ZM59.0884 13.6666C59.6326 13.6371 60.1415 13.7688 60.2251 13.9607C60.355 14.259 60.4224 14.5644 60.4224 14.8751C60.4224 15.1859 60.355 15.4913 60.2251 15.7896C60.1415 15.9815 59.6326 16.1132 59.0884 16.0837C58.5443 16.0542 58.171 15.8747 58.2546 15.6829C58.3692 15.4197 58.4288 15.15 58.4288 14.8751C58.4288 14.6003 58.3692 14.3306 58.2546 14.0674C58.171 13.8755 58.5443 13.6961 59.0884 13.6666Z" fill="url(#paint46_linear_1:837)"/>
<ellipse cx="43.481" cy="14.8731" rx="5.39005" ry="15.5489" transform="rotate(-90 43.481 14.8731)" fill="url(#paint47_linear_1:837)"/>
<g filter="url(#filter23_d_1:837)">
<path d="M22.5259 8.62061L64.4337 8.62061V15.9153C64.4337 15.9153 60.1099 22.2152 43.4798 22.2152C26.8497 22.2152 22.5259 15.9153 22.5259 15.9153V8.62061Z" fill="#C6C6C6"/>
<path fill-rule="evenodd" clip-rule="evenodd" d="M34.8321 8.62109H24.3882V17.6408C26.1668 18.9306 29.3999 20.6243 34.8321 21.5465V8.62109ZM52.1274 21.5467C57.5585 20.6248 60.7916 18.9317 62.5706 17.6419V8.62109H52.1274V21.5467Z" fill="#761018"/>
<g filter="url(#filter24_ii_1:837)">
<ellipse cx="43.4798" cy="8.90524" rx="8.90531" ry="20.9539" transform="rotate(-90 43.4798 8.90524)" fill="url(#paint48_linear_1:837)"/>
</g>
<mask id="mask8_1:837" style="mask-type:alpha" maskUnits="userSpaceOnUse" x="22" y="0" width="43" height="18">
<ellipse cx="43.4798" cy="8.90524" rx="8.90531" ry="20.9539" transform="rotate(-90 43.4798 8.90524)" fill="url(#paint49_linear_1:837)"/>
</mask>
<g mask="url(#mask8_1:837)">
<g filter="url(#filter25_ii_1:837)">
<path fill-rule="evenodd" clip-rule="evenodd" d="M24.1321 12.6233C22.9223 11.4876 22.2505 10.2277 22.2505 8.90525C22.2505 7.58278 22.9223 6.32287 24.1321 5.18721L30.6624 6.44376C29.8648 7.19246 29.4189 8.02467 29.4189 8.90525C29.4189 9.78583 29.8648 10.618 30.6624 11.3667L24.1321 12.6233ZM34.7317 0.682436C37.4038 0.168262 40.3684 -0.117235 43.4801 -0.117235C46.5918 -0.117235 49.5564 0.168262 52.2285 0.682436L49.2719 3.45779C47.5102 3.11881 45.5521 2.92932 43.4801 2.92932C41.4081 2.92932 39.45 3.11881 37.6883 3.45779L34.7317 0.682436ZM43.4801 17.9277C40.3684 17.9277 37.4038 17.6422 34.7317 17.1281L37.6883 14.3527C39.45 14.6917 41.4081 14.8812 43.4801 14.8812C45.5521 14.8812 47.5102 14.6917 49.2719 14.3527L52.2285 17.1281C49.5564 17.6422 46.5918 17.9277 43.4801 17.9277ZM64.7097 8.90525C64.7097 10.2277 64.0379 11.4876 62.8281 12.6233L56.2978 11.3667C57.0954 10.618 57.5413 9.78583 57.5413 8.90525C57.5413 8.02467 57.0954 7.19246 56.2978 6.44376L62.8281 5.18721C64.0379 6.32286 64.7097 7.58278 64.7097 8.90525Z" fill="url(#paint50_linear_1:837)"/>
</g>
</g>
<ellipse cx="43.4774" cy="8.90641" rx="6.09311" ry="16.8749" transform="rotate(-90 43.4774 8.90641)" fill="url(#paint51_linear_1:837)"/>
<path fill-rule="evenodd" clip-rule="evenodd" d="M26.7286 9.82087C26.5986 9.52254 26.5312 9.21712 26.5312 8.90639C26.5312 8.59567 26.5986 8.29025 26.7286 7.99192C26.8122 7.80003 27.321 7.66837 27.8652 7.69785C28.4093 7.72733 28.7826 7.90679 28.699 8.09868C28.5844 8.36181 28.5248 8.63153 28.5248 8.90639C28.5248 9.18126 28.5844 9.45098 28.699 9.71411C28.7826 9.906 28.4093 10.0855 27.8652 10.1149C27.321 10.1444 26.8122 10.0128 26.7286 9.82087ZM30.0158 5.86828C29.5718 5.7535 29.4757 5.53353 29.8011 5.37694C30.8287 4.88255 32.0667 4.446 33.4686 4.08361C33.9126 3.96883 34.5364 4.00273 34.8618 4.15931C35.1873 4.31589 35.0912 4.53587 34.6472 4.65064C33.4094 4.97059 32.3163 5.35609 31.409 5.79258C31.0836 5.94916 30.4598 5.98305 30.0158 5.86828ZM30.0158 11.9445C30.4598 11.8297 31.0836 11.8636 31.409 12.0202C32.3163 12.4567 33.4094 12.8422 34.6472 13.1621C35.0912 13.2769 35.1873 13.4969 34.8618 13.6535C34.5364 13.8101 33.9126 13.844 33.4686 13.7292C32.0667 13.3668 30.8287 12.9302 29.8011 12.4358C29.4757 12.2793 29.5718 12.0593 30.0158 11.9445ZM40.0498 3.40087C39.9662 3.20898 40.3396 3.02952 40.8837 3.00004C41.7296 2.95421 42.5957 2.93046 43.4768 2.93046C44.3579 2.93046 45.224 2.95421 46.0699 3.00004C46.614 3.02952 46.9874 3.20898 46.9038 3.40087C46.8202 3.59276 46.3113 3.72442 45.7672 3.69494C45.021 3.65452 44.2562 3.63351 43.4768 3.63351C42.6974 3.63351 41.9326 3.65452 41.1864 3.69494C40.6423 3.72442 40.1334 3.59276 40.0498 3.40087ZM40.0498 14.4119C40.1334 14.22 40.6423 14.0884 41.1864 14.1178C41.9326 14.1583 42.6974 14.1793 43.4768 14.1793C44.2562 14.1793 45.0211 14.1583 45.7672 14.1178C46.3113 14.0884 46.8202 14.22 46.9038 14.4119C46.9874 14.6038 46.614 14.7833 46.0699 14.8127C45.224 14.8586 44.3579 14.8823 43.4768 14.8823C42.5957 14.8823 41.7296 14.8586 40.8837 14.8127C40.3396 14.7833 39.9662 14.6038 40.0498 14.4119ZM52.0918 4.15931C52.4172 4.00273 53.041 3.96883 53.485 4.08361C54.8869 4.44599 56.1249 4.88255 57.1525 5.37694C57.4779 5.53352 57.3818 5.7535 56.9378 5.86828C56.4938 5.98305 55.87 5.94916 55.5446 5.79258C54.6373 5.35608 53.5442 4.97059 52.3064 4.65064C51.8624 4.53587 51.7663 4.31589 52.0918 4.15931ZM52.0918 13.6535C51.7663 13.4969 51.8624 13.2769 52.3065 13.1621C53.5442 12.8422 54.6373 12.4567 55.5446 12.0202C55.87 11.8636 56.4938 11.8297 56.9378 11.9445C57.3818 12.0593 57.4779 12.2793 57.1525 12.4358C56.1249 12.9302 54.887 13.3668 53.485 13.7292C53.041 13.844 52.4173 13.8101 52.0918 13.6535ZM59.0884 7.69785C59.6326 7.66837 60.1415 7.80003 60.2251 7.99192C60.355 8.29025 60.4224 8.59567 60.4224 8.90639C60.4224 9.21712 60.355 9.52254 60.2251 9.82087C60.1415 10.0128 59.6326 10.1444 59.0884 10.1149C58.5443 10.0855 58.171 9.906 58.2546 9.71411C58.3692 9.45098 58.4288 9.18126 58.4288 8.90639C58.4288 8.63153 58.3692 8.36181 58.2546 8.09868C58.171 7.90679 58.5443 7.72733 59.0884 7.69785Z" fill="url(#paint52_linear_1:837)"/>
<ellipse cx="43.481" cy="8.90438" rx="5.39005" ry="15.5489" transform="rotate(-90 43.481 8.90438)" fill="url(#paint53_linear_1:837)"/>
</g>
<defs>
<filter id="filter0_d_1:837" x="20.1963" y="35.9321" width="43.9077" height="24.2153" filterUnits="userSpaceOnUse" color-interpolation-filters="sRGB">
<feFlood flood-opacity="0" result="BackgroundImageFix"/>
<feColorMatrix in="SourceAlpha" type="matrix" values="0 0 0 0 0 0 0 0 0 0 0 0 0 0 0 0 0 0 127 0" result="hardAlpha"/>
<feOffset dy="1"/>
<feGaussianBlur stdDeviation="0.5"/>
<feComposite in2="hardAlpha" operator="out"/>
<feColorMatrix type="matrix" values="0 0 0 0 0 0 0 0 0 0 0 0 0 0 0 0 0 0 0.25 0"/>
<feBlend mode="normal" in2="BackgroundImageFix" result="effect1_dropShadow_1:837"/>
<feBlend mode="normal" in="SourceGraphic" in2="effect1_dropShadow_1:837" result="shape"/>
</filter>
<filter id="filter1_ii_1:837" x="21.1963" y="32.9321" width="41.9077" height="22.8105" filterUnits="userSpaceOnUse" color-interpolation-filters="sRGB">
<feFlood flood-opacity="0" result="BackgroundImageFix"/>
<feBlend mode="normal" in="SourceGraphic" in2="BackgroundImageFix" result="shape"/>
<feColorMatrix in="SourceAlpha" type="matrix" values="0 0 0 0 0 0 0 0 0 0 0 0 0 0 0 0 0 0 127 0" result="hardAlpha"/>
<feOffset dy="-3"/>
<feGaussianBlur stdDeviation="3"/>
<feComposite in2="hardAlpha" operator="arithmetic" k2="-1" k3="1"/>
<feColorMatrix type="matrix" values="0 0 0 0 0 0 0 0 0 0 0 0 0 0 0 0 0 0 0.5 0"/>
<feBlend mode="normal" in2="shape" result="effect1_innerShadow_1:837"/>
<feColorMatrix in="SourceAlpha" type="matrix" values="0 0 0 0 0 0 0 0 0 0 0 0 0 0 0 0 0 0 127 0" result="hardAlpha"/>
<feOffset dy="2"/>
<feGaussianBlur stdDeviation="3"/>
<feComposite in2="hardAlpha" operator="arithmetic" k2="-1" k3="1"/>
<feColorMatrix type="matrix" values="0 0 0 0 0.945833 0 0 0 0 0.264045 0 0 0 0 0.298349 0 0 0 1 0"/>
<feBlend mode="normal" in2="effect1_innerShadow_1:837" result="effect2_innerShadow_1:837"/>
</filter>
<filter id="filter2_ii_1:837" x="20.918" y="34.814" width="42.459" height="21.0449" filterUnits="userSpaceOnUse" color-interpolation-filters="sRGB">
<feFlood flood-opacity="0" result="BackgroundImageFix"/>
<feBlend mode="normal" in="SourceGraphic" in2="BackgroundImageFix" result="shape"/>
<feColorMatrix in="SourceAlpha" type="matrix" values="0 0 0 0 0 0 0 0 0 0 0 0 0 0 0 0 0 0 127 0" result="hardAlpha"/>
<feOffset dy="-1"/>
<feGaussianBlur stdDeviation="1.5"/>
<feComposite in2="hardAlpha" operator="arithmetic" k2="-1" k3="1"/>
<feColorMatrix type="matrix" values="0 0 0 0 0 0 0 0 0 0 0 0 0 0 0 0 0 0 0.25 0"/>
<feBlend mode="normal" in2="shape" result="effect1_innerShadow_1:837"/>
<feColorMatrix in="SourceAlpha" type="matrix" values="0 0 0 0 0 0 0 0 0 0 0 0 0 0 0 0 0 0 127 0" result="hardAlpha"/>
<feOffset dy="2"/>
<feGaussianBlur stdDeviation="1.5"/>
<feComposite in2="hardAlpha" operator="arithmetic" k2="-1" k3="1"/>
<feColorMatrix type="matrix" values="0 0 0 0 1 0 0 0 0 1 0 0 0 0 1 0 0 0 1 0"/>
<feBlend mode="normal" in2="effect1_innerShadow_1:837" result="effect2_innerShadow_1:837"/>
</filter>
<filter id="filter3_d_1:837" x="21.5259" y="30.6274" width="43.9077" height="24.2153" filterUnits="userSpaceOnUse" color-interpolation-filters="sRGB">
<feFlood flood-opacity="0" result="BackgroundImageFix"/>
<feColorMatrix in="SourceAlpha" type="matrix" values="0 0 0 0 0 0 0 0 0 0 0 0 0 0 0 0 0 0 127 0" result="hardAlpha"/>
<feOffset dy="1"/>
<feGaussianBlur stdDeviation="0.5"/>
<feComposite in2="hardAlpha" operator="out"/>
<feColorMatrix type="matrix" values="0 0 0 0 0 0 0 0 0 0 0 0 0 0 0 0 0 0 0.25 0"/>
<feBlend mode="normal" in2="BackgroundImageFix" result="effect1_dropShadow_1:837"/>
<feBlend mode="normal" in="SourceGraphic" in2="effect1_dropShadow_1:837" result="shape"/>
</filter>
<filter id="filter4_ii_1:837" x="22.5259" y="27.6274" width="41.9077" height="22.8105" filterUnits="userSpaceOnUse" color-interpolation-filters="sRGB">
<feFlood flood-opacity="0" result="BackgroundImageFix"/>
<feBlend mode="normal" in="SourceGraphic" in2="BackgroundImageFix" result="shape"/>
<feColorMatrix in="SourceAlpha" type="matrix" values="0 0 0 0 0 0 0 0 0 0 0 0 0 0 0 0 0 0 127 0" result="hardAlpha"/>
<feOffset dy="-3"/>
<feGaussianBlur stdDeviation="3"/>
<feComposite in2="hardAlpha" operator="arithmetic" k2="-1" k3="1"/>
<feColorMatrix type="matrix" values="0 0 0 0 0 0 0 0 0 0 0 0 0 0 0 0 0 0 0.5 0"/>
<feBlend mode="normal" in2="shape" result="effect1_innerShadow_1:837"/>
<feColorMatrix in="SourceAlpha" type="matrix" values="0 0 0 0 0 0 0 0 0 0 0 0 0 0 0 0 0 0 127 0" result="hardAlpha"/>
<feOffset dy="2"/>
<feGaussianBlur stdDeviation="3"/>
<feComposite in2="hardAlpha" operator="arithmetic" k2="-1" k3="1"/>
<feColorMatrix type="matrix" values="0 0 0 0 0.945833 0 0 0 0 0.264045 0 0 0 0 0.298349 0 0 0 1 0"/>
<feBlend mode="normal" in2="effect1_innerShadow_1:837" result="effect2_innerShadow_1:837"/>
</filter>
<filter id="filter5_ii_1:837" x="22.2505" y="29.5098" width="42.459" height="21.0449" filterUnits="userSpaceOnUse" color-interpolation-filters="sRGB">
<feFlood flood-opacity="0" result="BackgroundImageFix"/>
<feBlend mode="normal" in="SourceGraphic" in2="BackgroundImageFix" result="shape"/>
<feColorMatrix in="SourceAlpha" type="matrix" values="0 0 0 0 0 0 0 0 0 0 0 0 0 0 0 0 0 0 127 0" result="hardAlpha"/>
<feOffset dy="-1"/>
<feGaussianBlur stdDeviation="1.5"/>
<feComposite in2="hardAlpha" operator="arithmetic" k2="-1" k3="1"/>
<feColorMatrix type="matrix" values="0 0 0 0 0 0 0 0 0 0 0 0 0 0 0 0 0 0 0.25 0"/>
<feBlend mode="normal" in2="shape" result="effect1_innerShadow_1:837"/>
<feColorMatrix in="SourceAlpha" type="matrix" values="0 0 0 0 0 0 0 0 0 0 0 0 0 0 0 0 0 0 127 0" result="hardAlpha"/>
<feOffset dy="2"/>
<feGaussianBlur stdDeviation="1.5"/>
<feComposite in2="hardAlpha" operator="arithmetic" k2="-1" k3="1"/>
<feColorMatrix type="matrix" values="0 0 0 0 1 0 0 0 0 1 0 0 0 0 1 0 0 0 1 0"/>
<feBlend mode="normal" in2="effect1_innerShadow_1:837" result="effect2_innerShadow_1:837"/>
</filter>
<filter id="filter6_d_1:837" x="22.5259" y="25.3218" width="41.9077" height="23.2153" filterUnits="userSpaceOnUse" color-interpolation-filters="sRGB">
<feFlood flood-opacity="0" result="BackgroundImageFix"/>
<feColorMatrix in="SourceAlpha" type="matrix" values="0 0 0 0 0 0 0 0 0 0 0 0 0 0 0 0 0 0 127 0" result="hardAlpha"/>
<feOffset dy="1"/>
<feComposite in2="hardAlpha" operator="out"/>
<feColorMatrix type="matrix" values="0 0 0 0 0 0 0 0 0 0 0 0 0 0 0 0 0 0 0.25 0"/>
<feBlend mode="normal" in2="BackgroundImageFix" result="effect1_dropShadow_1:837"/>
<feBlend mode="normal" in="SourceGraphic" in2="effect1_dropShadow_1:837" result="shape"/>
</filter>
<filter id="filter7_ii_1:837" x="22.5259" y="22.3218" width="41.9077" height="22.8105" filterUnits="userSpaceOnUse" color-interpolation-filters="sRGB">
<feFlood flood-opacity="0" result="BackgroundImageFix"/>
<feBlend mode="normal" in="SourceGraphic" in2="BackgroundImageFix" result="shape"/>
<feColorMatrix in="SourceAlpha" type="matrix" values="0 0 0 0 0 0 0 0 0 0 0 0 0 0 0 0 0 0 127 0" result="hardAlpha"/>
<feOffset dy="-3"/>
<feGaussianBlur stdDeviation="3"/>
<feComposite in2="hardAlpha" operator="arithmetic" k2="-1" k3="1"/>
<feColorMatrix type="matrix" values="0 0 0 0 0 0 0 0 0 0 0 0 0 0 0 0 0 0 0.5 0"/>
<feBlend mode="normal" in2="shape" result="effect1_innerShadow_1:837"/>
<feColorMatrix in="SourceAlpha" type="matrix" values="0 0 0 0 0 0 0 0 0 0 0 0 0 0 0 0 0 0 127 0" result="hardAlpha"/>
<feOffset dy="2"/>
<feGaussianBlur stdDeviation="3"/>
<feComposite in2="hardAlpha" operator="arithmetic" k2="-1" k3="1"/>
<feColorMatrix type="matrix" values="0 0 0 0 0.945833 0 0 0 0 0.264045 0 0 0 0 0.298349 0 0 0 1 0"/>
<feBlend mode="normal" in2="effect1_innerShadow_1:837" result="effect2_innerShadow_1:837"/>
</filter>
<filter id="filter8_ii_1:837" x="22.2505" y="24.2026" width="42.459" height="21.0449" filterUnits="userSpaceOnUse" color-interpolation-filters="sRGB">
<feFlood flood-opacity="0" result="BackgroundImageFix"/>
<feBlend mode="normal" in="SourceGraphic" in2="BackgroundImageFix" result="shape"/>
<feColorMatrix in="SourceAlpha" type="matrix" values="0 0 0 0 0 0 0 0 0 0 0 0 0 0 0 0 0 0 127 0" result="hardAlpha"/>
<feOffset dy="-1"/>
<feGaussianBlur stdDeviation="1.5"/>
<feComposite in2="hardAlpha" operator="arithmetic" k2="-1" k3="1"/>
<feColorMatrix type="matrix" values="0 0 0 0 0 0 0 0 0 0 0 0 0 0 0 0 0 0 0.25 0"/>
<feBlend mode="normal" in2="shape" result="effect1_innerShadow_1:837"/>
<feColorMatrix in="SourceAlpha" type="matrix" values="0 0 0 0 0 0 0 0 0 0 0 0 0 0 0 0 0 0 127 0" result="hardAlpha"/>
<feOffset dy="2"/>
<feGaussianBlur stdDeviation="1.5"/>
<feComposite in2="hardAlpha" operator="arithmetic" k2="-1" k3="1"/>
<feColorMatrix type="matrix" values="0 0 0 0 1 0 0 0 0 1 0 0 0 0 1 0 0 0 1 0"/>
<feBlend mode="normal" in2="effect1_innerShadow_1:837" result="effect2_innerShadow_1:837"/>
</filter>
<filter id="filter9_d_1:837" x="22.5259" y="19.3535" width="41.9077" height="23.2153" filterUnits="userSpaceOnUse" color-interpolation-filters="sRGB">
<feFlood flood-opacity="0" result="BackgroundImageFix"/>
<feColorMatrix in="SourceAlpha" type="matrix" values="0 0 0 0 0 0 0 0 0 0 0 0 0 0 0 0 0 0 127 0" result="hardAlpha"/>
<feOffset dy="1"/>
<feComposite in2="hardAlpha" operator="out"/>
<feColorMatrix type="matrix" values="0 0 0 0 0 0 0 0 0 0 0 0 0 0 0 0 0 0 0.25 0"/>
<feBlend mode="normal" in2="BackgroundImageFix" result="effect1_dropShadow_1:837"/>
<feBlend mode="normal" in="SourceGraphic" in2="effect1_dropShadow_1:837" result="shape"/>
</filter>
<filter id="filter10_ii_1:837" x="22.5259" y="16.3535" width="41.9077" height="22.8105" filterUnits="userSpaceOnUse" color-interpolation-filters="sRGB">
<feFlood flood-opacity="0" result="BackgroundImageFix"/>
<feBlend mode="normal" in="SourceGraphic" in2="BackgroundImageFix" result="shape"/>
<feColorMatrix in="SourceAlpha" type="matrix" values="0 0 0 0 0 0 0 0 0 0 0 0 0 0 0 0 0 0 127 0" result="hardAlpha"/>
<feOffset dy="-3"/>
<feGaussianBlur stdDeviation="3"/>
<feComposite in2="hardAlpha" operator="arithmetic" k2="-1" k3="1"/>
<feColorMatrix type="matrix" values="0 0 0 0 0 0 0 0 0 0 0 0 0 0 0 0 0 0 0.5 0"/>
<feBlend mode="normal" in2="shape" result="effect1_innerShadow_1:837"/>
<feColorMatrix in="SourceAlpha" type="matrix" values="0 0 0 0 0 0 0 0 0 0 0 0 0 0 0 0 0 0 127 0" result="hardAlpha"/>
<feOffset dy="2"/>
<feGaussianBlur stdDeviation="3"/>
<feComposite in2="hardAlpha" operator="arithmetic" k2="-1" k3="1"/>
<feColorMatrix type="matrix" values="0 0 0 0 0.945833 0 0 0 0 0.264045 0 0 0 0 0.298349 0 0 0 1 0"/>
<feBlend mode="normal" in2="effect1_innerShadow_1:837" result="effect2_innerShadow_1:837"/>
</filter>
<filter id="filter11_ii_1:837" x="22.2505" y="18.2363" width="42.459" height="21.0449" filterUnits="userSpaceOnUse" color-interpolation-filters="sRGB">
<feFlood flood-opacity="0" result="BackgroundImageFix"/>
<feBlend mode="normal" in="SourceGraphic" in2="BackgroundImageFix" result="shape"/>
<feColorMatrix in="SourceAlpha" type="matrix" values="0 0 0 0 0 0 0 0 0 0 0 0 0 0 0 0 0 0 127 0" result="hardAlpha"/>
<feOffset dy="-1"/>
<feGaussianBlur stdDeviation="1.5"/>
<feComposite in2="hardAlpha" operator="arithmetic" k2="-1" k3="1"/>
<feColorMatrix type="matrix" values="0 0 0 0 0 0 0 0 0 0 0 0 0 0 0 0 0 0 0.25 0"/>
<feBlend mode="normal" in2="shape" result="effect1_innerShadow_1:837"/>
<feColorMatrix in="SourceAlpha" type="matrix" values="0 0 0 0 0 0 0 0 0 0 0 0 0 0 0 0 0 0 127 0" result="hardAlpha"/>
<feOffset dy="2"/>
<feGaussianBlur stdDeviation="1.5"/>
<feComposite in2="hardAlpha" operator="arithmetic" k2="-1" k3="1"/>
<feColorMatrix type="matrix" values="0 0 0 0 1 0 0 0 0 1 0 0 0 0 1 0 0 0 1 0"/>
<feBlend mode="normal" in2="effect1_innerShadow_1:837" result="effect2_innerShadow_1:837"/>
</filter>
<filter id="filter12_d_1:837" x="17.5347" y="11.396" width="43.9077" height="24.2153" filterUnits="userSpaceOnUse" color-interpolation-filters="sRGB">
<feFlood flood-opacity="0" result="BackgroundImageFix"/>
<feColorMatrix in="SourceAlpha" type="matrix" values="0 0 0 0 0 0 0 0 0 0 0 0 0 0 0 0 0 0 127 0" result="hardAlpha"/>
<feOffset dy="1"/>
<feGaussianBlur stdDeviation="0.5"/>
<feComposite in2="hardAlpha" operator="out"/>
<feColorMatrix type="matrix" values="0 0 0 0 0 0 0 0 0 0 0 0 0 0 0 0 0 0 0.25 0"/>
<feBlend mode="normal" in2="BackgroundImageFix" result="effect1_dropShadow_1:837"/>
<feBlend mode="normal" in="SourceGraphic" in2="effect1_dropShadow_1:837" result="shape"/>
</filter>
<filter id="filter13_ii_1:837" x="18.5347" y="8.396" width="41.9077" height="22.8105" filterUnits="userSpaceOnUse" color-interpolation-filters="sRGB">
<feFlood flood-opacity="0" result="BackgroundImageFix"/>
<feBlend mode="normal" in="SourceGraphic" in2="BackgroundImageFix" result="shape"/>
<feColorMatrix in="SourceAlpha" type="matrix" values="0 0 0 0 0 0 0 0 0 0 0 0 0 0 0 0 0 0 127 0" result="hardAlpha"/>
<feOffset dy="-3"/>
<feGaussianBlur stdDeviation="3"/>
<feComposite in2="hardAlpha" operator="arithmetic" k2="-1" k3="1"/>
<feColorMatrix type="matrix" values="0 0 0 0 0 0 0 0 0 0 0 0 0 0 0 0 0 0 0.5 0"/>
<feBlend mode="normal" in2="shape" result="effect1_innerShadow_1:837"/>
<feColorMatrix in="SourceAlpha" type="matrix" values="0 0 0 0 0 0 0 0 0 0 0 0 0 0 0 0 0 0 127 0" result="hardAlpha"/>
<feOffset dy="2"/>
<feGaussianBlur stdDeviation="3"/>
<feComposite in2="hardAlpha" operator="arithmetic" k2="-1" k3="1"/>
<feColorMatrix type="matrix" values="0 0 0 0 0.945833 0 0 0 0 0.264045 0 0 0 0 0.298349 0 0 0 1 0"/>
<feBlend mode="normal" in2="effect1_innerShadow_1:837" result="effect2_innerShadow_1:837"/>
</filter>
<filter id="filter14_ii_1:837" x="18.2554" y="10.2788" width="42.459" height="21.0449" filterUnits="userSpaceOnUse" color-interpolation-filters="sRGB">
<feFlood flood-opacity="0" result="BackgroundImageFix"/>
<feBlend mode="normal" in="SourceGraphic" in2="BackgroundImageFix" result="shape"/>
<feColorMatrix in="SourceAlpha" type="matrix" values="0 0 0 0 0 0 0 0 0 0 0 0 0 0 0 0 0 0 127 0" result="hardAlpha"/>
<feOffset dy="-1"/>
<feGaussianBlur stdDeviation="1.5"/>
<feComposite in2="hardAlpha" operator="arithmetic" k2="-1" k3="1"/>
<feColorMatrix type="matrix" values="0 0 0 0 0 0 0 0 0 0 0 0 0 0 0 0 0 0 0.25 0"/>
<feBlend mode="normal" in2="shape" result="effect1_innerShadow_1:837"/>
<feColorMatrix in="SourceAlpha" type="matrix" values="0 0 0 0 0 0 0 0 0 0 0 0 0 0 0 0 0 0 127 0" result="hardAlpha"/>
<feOffset dy="2"/>
<feGaussianBlur stdDeviation="1.5"/>
<feComposite in2="hardAlpha" operator="arithmetic" k2="-1" k3="1"/>
<feColorMatrix type="matrix" values="0 0 0 0 1 0 0 0 0 1 0 0 0 0 1 0 0 0 1 0"/>
<feBlend mode="normal" in2="effect1_innerShadow_1:837" result="effect2_innerShadow_1:837"/>
</filter>
<filter id="filter15_d_1:837" x="31.5044" y="48.5327" width="43.9077" height="24.2153" filterUnits="userSpaceOnUse" color-interpolation-filters="sRGB">
<feFlood flood-opacity="0" result="BackgroundImageFix"/>
<feColorMatrix in="SourceAlpha" type="matrix" values="0 0 0 0 0 0 0 0 0 0 0 0 0 0 0 0 0 0 127 0" result="hardAlpha"/>
<feOffset dy="1"/>
<feGaussianBlur stdDeviation="0.5"/>
<feComposite in2="hardAlpha" operator="out"/>
<feColorMatrix type="matrix" values="0 0 0 0 0 0 0 0 0 0 0 0 0 0 0 0 0 0 0.25 0"/>
<feBlend mode="normal" in2="BackgroundImageFix" result="effect1_dropShadow_1:837"/>
<feBlend mode="normal" in="SourceGraphic" in2="effect1_dropShadow_1:837" result="shape"/>
</filter>
<filter id="filter16_ii_1:837" x="32.5044" y="45.5327" width="41.9077" height="22.8105" filterUnits="userSpaceOnUse" color-interpolation-filters="sRGB">
<feFlood flood-opacity="0" result="BackgroundImageFix"/>
<feBlend mode="normal" in="SourceGraphic" in2="BackgroundImageFix" result="shape"/>
<feColorMatrix in="SourceAlpha" type="matrix" values="0 0 0 0 0 0 0 0 0 0 0 0 0 0 0 0 0 0 127 0" result="hardAlpha"/>
<feOffset dy="-3"/>
<feGaussianBlur stdDeviation="3"/>
<feComposite in2="hardAlpha" operator="arithmetic" k2="-1" k3="1"/>
<feColorMatrix type="matrix" values="0 0 0 0 0 0 0 0 0 0 0 0 0 0 0 0 0 0 0.5 0"/>
<feBlend mode="normal" in2="shape" result="effect1_innerShadow_1:837"/>
<feColorMatrix in="SourceAlpha" type="matrix" values="0 0 0 0 0 0 0 0 0 0 0 0 0 0 0 0 0 0 127 0" result="hardAlpha"/>
<feOffset dy="2"/>
<feGaussianBlur stdDeviation="3"/>
<feComposite in2="hardAlpha" operator="arithmetic" k2="-1" k3="1"/>
<feColorMatrix type="matrix" values="0 0 0 0 0.945833 0 0 0 0 0.264045 0 0 0 0 0.298349 0 0 0 1 0"/>
<feBlend mode="normal" in2="effect1_innerShadow_1:837" result="effect2_innerShadow_1:837"/>
</filter>
<filter id="filter17_ii_1:837" x="32.2271" y="47.415" width="42.459" height="21.0449" filterUnits="userSpaceOnUse" color-interpolation-filters="sRGB">
<feFlood flood-opacity="0" result="BackgroundImageFix"/>
<feBlend mode="normal" in="SourceGraphic" in2="BackgroundImageFix" result="shape"/>
<feColorMatrix in="SourceAlpha" type="matrix" values="0 0 0 0 0 0 0 0 0 0 0 0 0 0 0 0 0 0 127 0" result="hardAlpha"/>
<feOffset dy="-1"/>
<feGaussianBlur stdDeviation="1.5"/>
<feComposite in2="hardAlpha" operator="arithmetic" k2="-1" k3="1"/>
<feColorMatrix type="matrix" values="0 0 0 0 0 0 0 0 0 0 0 0 0 0 0 0 0 0 0.25 0"/>
<feBlend mode="normal" in2="shape" result="effect1_innerShadow_1:837"/>
<feColorMatrix in="SourceAlpha" type="matrix" values="0 0 0 0 0 0 0 0 0 0 0 0 0 0 0 0 0 0 127 0" result="hardAlpha"/>
<feOffset dy="2"/>
<feGaussianBlur stdDeviation="1.5"/>
<feComposite in2="hardAlpha" operator="arithmetic" k2="-1" k3="1"/>
<feColorMatrix type="matrix" values="0 0 0 0 1 0 0 0 0 1 0 0 0 0 1 0 0 0 1 0"/>
<feBlend mode="normal" in2="effect1_innerShadow_1:837" result="effect2_innerShadow_1:837"/>
</filter>
<filter id="filter18_d_1:837" x="2.27588" y="42.4067" width="50.0601" height="34.2764" filterUnits="userSpaceOnUse" color-interpolation-filters="sRGB">
<feFlood flood-opacity="0" result="BackgroundImageFix"/>
<feColorMatrix in="SourceAlpha" type="matrix" values="0 0 0 0 0 0 0 0 0 0 0 0 0 0 0 0 0 0 127 0" result="hardAlpha"/>
<feOffset dx="3" dy="3"/>
<feGaussianBlur stdDeviation="2"/>
<feComposite in2="hardAlpha" operator="out"/>
<feColorMatrix type="matrix" values="0 0 0 0 0 0 0 0 0 0 0 0 0 0 0 0 0 0 0.25 0"/>
<feBlend mode="normal" in2="BackgroundImageFix" result="effect1_dropShadow_1:837"/>
<feBlend mode="normal" in="SourceGraphic" in2="effect1_dropShadow_1:837" result="shape"/>
</filter>
<filter id="filter19_ii_1:837" x="3.27588" y="40.4067" width="39.9248" height="26.8848" filterUnits="userSpaceOnUse" color-interpolation-filters="sRGB">
<feFlood flood-opacity="0" result="BackgroundImageFix"/>
<feBlend mode="normal" in="SourceGraphic" in2="BackgroundImageFix" result="shape"/>
<feColorMatrix in="SourceAlpha" type="matrix" values="0 0 0 0 0 0 0 0 0 0 0 0 0 0 0 0 0 0 127 0" result="hardAlpha"/>
<feOffset dy="-3"/>
<feGaussianBlur stdDeviation="3"/>
<feComposite in2="hardAlpha" operator="arithmetic" k2="-1" k3="1"/>
<feColorMatrix type="matrix" values="0 0 0 0 0 0 0 0 0 0 0 0 0 0 0 0 0 0 0.5 0"/>
<feBlend mode="normal" in2="shape" result="effect1_innerShadow_1:837"/>
<feColorMatrix in="SourceAlpha" type="matrix" values="0 0 0 0 0 0 0 0 0 0 0 0 0 0 0 0 0 0 127 0" result="hardAlpha"/>
<feOffset dy="2"/>
<feGaussianBlur stdDeviation="3"/>
<feComposite in2="hardAlpha" operator="arithmetic" k2="-1" k3="1"/>
<feColorMatrix type="matrix" values="0 0 0 0 0.945833 0 0 0 0 0.264045 0 0 0 0 0.298349 0 0 0 1 0"/>
<feBlend mode="normal" in2="effect1_innerShadow_1:837" result="effect2_innerShadow_1:837"/>
</filter>
<filter id="filter20_ii_1:837" x="3.01074" y="42.6714" width="40.4492" height="24.356" filterUnits="userSpaceOnUse" color-interpolation-filters="sRGB">
<feFlood flood-opacity="0" result="BackgroundImageFix"/>
<feBlend mode="normal" in="SourceGraphic" in2="BackgroundImageFix" result="shape"/>
<feColorMatrix in="SourceAlpha" type="matrix" values="0 0 0 0 0 0 0 0 0 0 0 0 0 0 0 0 0 0 127 0" result="hardAlpha"/>
<feOffset dy="-1"/>
<feGaussianBlur stdDeviation="1.5"/>
<feComposite in2="hardAlpha" operator="arithmetic" k2="-1" k3="1"/>
<feColorMatrix type="matrix" values="0 0 0 0 0 0 0 0 0 0 0 0 0 0 0 0 0 0 0.25 0"/>
<feBlend mode="normal" in2="shape" result="effect1_innerShadow_1:837"/>
<feColorMatrix in="SourceAlpha" type="matrix" values="0 0 0 0 0 0 0 0 0 0 0 0 0 0 0 0 0 0 127 0" result="hardAlpha"/>
<feOffset dy="2"/>
<feGaussianBlur stdDeviation="1.5"/>
<feComposite in2="hardAlpha" operator="arithmetic" k2="-1" k3="1"/>
<feColorMatrix type="matrix" values="0 0 0 0 1 0 0 0 0 1 0 0 0 0 1 0 0 0 1 0"/>
<feBlend mode="normal" in2="effect1_innerShadow_1:837" result="effect2_innerShadow_1:837"/>
</filter>
<filter id="filter21_ii_1:837" x="22.5259" y="2.96875" width="41.9077" height="22.8105" filterUnits="userSpaceOnUse" color-interpolation-filters="sRGB">
<feFlood flood-opacity="0" result="BackgroundImageFix"/>
<feBlend mode="normal" in="SourceGraphic" in2="BackgroundImageFix" result="shape"/>
<feColorMatrix in="SourceAlpha" type="matrix" values="0 0 0 0 0 0 0 0 0 0 0 0 0 0 0 0 0 0 127 0" result="hardAlpha"/>
<feOffset dy="-3"/>
<feGaussianBlur stdDeviation="3"/>
<feComposite in2="hardAlpha" operator="arithmetic" k2="-1" k3="1"/>
<feColorMatrix type="matrix" values="0 0 0 0 0 0 0 0 0 0 0 0 0 0 0 0 0 0 0.5 0"/>
<feBlend mode="normal" in2="shape" result="effect1_innerShadow_1:837"/>
<feColorMatrix in="SourceAlpha" type="matrix" values="0 0 0 0 0 0 0 0 0 0 0 0 0 0 0 0 0 0 127 0" result="hardAlpha"/>
<feOffset dy="2"/>
<feGaussianBlur stdDeviation="3"/>
<feComposite in2="hardAlpha" operator="arithmetic" k2="-1" k3="1"/>
<feColorMatrix type="matrix" values="0 0 0 0 0.945833 0 0 0 0 0.264045 0 0 0 0 0.298349 0 0 0 1 0"/>
<feBlend mode="normal" in2="effect1_innerShadow_1:837" result="effect2_innerShadow_1:837"/>
</filter>
<filter id="filter22_ii_1:837" x="22.2505" y="4.85059" width="42.459" height="21.0449" filterUnits="userSpaceOnUse" color-interpolation-filters="sRGB">
<feFlood flood-opacity="0" result="BackgroundImageFix"/>
<feBlend mode="normal" in="SourceGraphic" in2="BackgroundImageFix" result="shape"/>
<feColorMatrix in="SourceAlpha" type="matrix" values="0 0 0 0 0 0 0 0 0 0 0 0 0 0 0 0 0 0 127 0" result="hardAlpha"/>
<feOffset dy="-1"/>
<feGaussianBlur stdDeviation="1.5"/>
<feComposite in2="hardAlpha" operator="arithmetic" k2="-1" k3="1"/>
<feColorMatrix type="matrix" values="0 0 0 0 0 0 0 0 0 0 0 0 0 0 0 0 0 0 0.25 0"/>
<feBlend mode="normal" in2="shape" result="effect1_innerShadow_1:837"/>
<feColorMatrix in="SourceAlpha" type="matrix" values="0 0 0 0 0 0 0 0 0 0 0 0 0 0 0 0 0 0 127 0" result="hardAlpha"/>
<feOffset dy="2"/>
<feGaussianBlur stdDeviation="1.5"/>
<feComposite in2="hardAlpha" operator="arithmetic" k2="-1" k3="1"/>
<feColorMatrix type="matrix" values="0 0 0 0 1 0 0 0 0 1 0 0 0 0 1 0 0 0 1 0"/>
<feBlend mode="normal" in2="effect1_innerShadow_1:837" result="effect2_innerShadow_1:837"/>
</filter>
<filter id="filter23_d_1:837" x="22.5259" y="0" width="41.9077" height="23.2153" filterUnits="userSpaceOnUse" color-interpolation-filters="sRGB">
<feFlood flood-opacity="0" result="BackgroundImageFix"/>
<feColorMatrix in="SourceAlpha" type="matrix" values="0 0 0 0 0 0 0 0 0 0 0 0 0 0 0 0 0 0 127 0" result="hardAlpha"/>
<feOffset dy="1"/>
<feComposite in2="hardAlpha" operator="out"/>
<feColorMatrix type="matrix" values="0 0 0 0 0 0 0 0 0 0 0 0 0 0 0 0 0 0 0.25 0"/>
<feBlend mode="normal" in2="BackgroundImageFix" result="effect1_dropShadow_1:837"/>
<feBlend mode="normal" in="SourceGraphic" in2="effect1_dropShadow_1:837" result="shape"/>
</filter>
<filter id="filter24_ii_1:837" x="22.5259" y="-3" width="41.9077" height="22.8105" filterUnits="userSpaceOnUse" color-interpolation-filters="sRGB">
<feFlood flood-opacity="0" result="BackgroundImageFix"/>
<feBlend mode="normal" in="SourceGraphic" in2="BackgroundImageFix" result="shape"/>
<feColorMatrix in="SourceAlpha" type="matrix" values="0 0 0 0 0 0 0 0 0 0 0 0 0 0 0 0 0 0 127 0" result="hardAlpha"/>
<feOffset dy="-3"/>
<feGaussianBlur stdDeviation="3"/>
<feComposite in2="hardAlpha" operator="arithmetic" k2="-1" k3="1"/>
<feColorMatrix type="matrix" values="0 0 0 0 0 0 0 0 0 0 0 0 0 0 0 0 0 0 0.5 0"/>
<feBlend mode="normal" in2="shape" result="effect1_innerShadow_1:837"/>
<feColorMatrix in="SourceAlpha" type="matrix" values="0 0 0 0 0 0 0 0 0 0 0 0 0 0 0 0 0 0 127 0" result="hardAlpha"/>
<feOffset dy="2"/>
<feGaussianBlur stdDeviation="3"/>
<feComposite in2="hardAlpha" operator="arithmetic" k2="-1" k3="1"/>
<feColorMatrix type="matrix" values="0 0 0 0 0.945833 0 0 0 0 0.264045 0 0 0 0 0.298349 0 0 0 1 0"/>
<feBlend mode="normal" in2="effect1_innerShadow_1:837" result="effect2_innerShadow_1:837"/>
</filter>
<filter id="filter25_ii_1:837" x="22.2505" y="-1.11719" width="42.459" height="21.0449" filterUnits="userSpaceOnUse" color-interpolation-filters="sRGB">
<feFlood flood-opacity="0" result="BackgroundImageFix"/>
<feBlend mode="normal" in="SourceGraphic" in2="BackgroundImageFix" result="shape"/>
<feColorMatrix in="SourceAlpha" type="matrix" values="0 0 0 0 0 0 0 0 0 0 0 0 0 0 0 0 0 0 127 0" result="hardAlpha"/>
<feOffset dy="-1"/>
<feGaussianBlur stdDeviation="1.5"/>
<feComposite in2="hardAlpha" operator="arithmetic" k2="-1" k3="1"/>
<feColorMatrix type="matrix" values="0 0 0 0 0 0 0 0 0 0 0 0 0 0 0 0 0 0 0.25 0"/>
<feBlend mode="normal" in2="shape" result="effect1_innerShadow_1:837"/>
<feColorMatrix in="SourceAlpha" type="matrix" values="0 0 0 0 0 0 0 0 0 0 0 0 0 0 0 0 0 0 127 0" result="hardAlpha"/>
<feOffset dy="2"/>
<feGaussianBlur stdDeviation="1.5"/>
<feComposite in2="hardAlpha" operator="arithmetic" k2="-1" k3="1"/>
<feColorMatrix type="matrix" values="0 0 0 0 1 0 0 0 0 1 0 0 0 0 1 0 0 0 1 0"/>
<feBlend mode="normal" in2="effect1_innerShadow_1:837" result="effect2_innerShadow_1:837"/>
</filter>
<linearGradient id="paint0_linear_1:837" x1="42.1502" y1="23.8835" x2="42.1502" y2="65.7913" gradientUnits="userSpaceOnUse">
<stop stop-color="#8F000E"/>
<stop offset="1" stop-color="#C5252D"/>
</linearGradient>
<linearGradient id="paint1_linear_1:837" x1="42.1502" y1="23.8835" x2="42.1502" y2="65.7913" gradientUnits="userSpaceOnUse">
<stop stop-color="#8F000E"/>
<stop offset="1" stop-color="#C5252D"/>
</linearGradient>
<linearGradient id="paint2_linear_1:837" x1="24.5022" y1="44.8364" x2="59.793" y2="44.8364" gradientUnits="userSpaceOnUse">
<stop stop-color="#F2F2F2"/>
<stop offset="1" stop-color="#E2E2E2"/>
</linearGradient>
<linearGradient id="paint3_linear_1:837" x1="42.1488" y1="27.9632" x2="42.1488" y2="61.7129" gradientUnits="userSpaceOnUse">
<stop stop-color="#600009"/>
<stop offset="1" stop-color="#AB0E16"/>
</linearGradient>
<linearGradient id="paint4_linear_1:837" x1="26.197" y1="44.8385" x2="58.0945" y2="44.8385" gradientUnits="userSpaceOnUse">
<stop stop-color="#C2C2C2"/>
<stop offset="1" stop-color="#F2F2F2"/>
</linearGradient>
<linearGradient id="paint5_linear_1:837" x1="42.1509" y1="29.2871" x2="42.1509" y2="60.3849" gradientUnits="userSpaceOnUse">
<stop stop-color="#8F000E"/>
<stop offset="1" stop-color="#C5252D"/>
</linearGradient>
<linearGradient id="paint6_linear_1:837" x1="43.4798" y1="18.5788" x2="43.4798" y2="60.4866" gradientUnits="userSpaceOnUse">
<stop stop-color="#8F000E"/>
<stop offset="1" stop-color="#C5252D"/>
</linearGradient>
<linearGradient id="paint7_linear_1:837" x1="43.4798" y1="18.5788" x2="43.4798" y2="60.4866" gradientUnits="userSpaceOnUse">
<stop stop-color="#8F000E"/>
<stop offset="1" stop-color="#C5252D"/>
</linearGradient>
<linearGradient id="paint8_linear_1:837" x1="25.8347" y1="39.5322" x2="61.1255" y2="39.5322" gradientUnits="userSpaceOnUse">
<stop stop-color="#F2F2F2"/>
<stop offset="1" stop-color="#E2E2E2"/>
</linearGradient>
<linearGradient id="paint9_linear_1:837" x1="43.4774" y1="22.658" x2="43.4774" y2="56.4078" gradientUnits="userSpaceOnUse">
<stop stop-color="#600009"/>
<stop offset="1" stop-color="#AB0E16"/>
</linearGradient>
<linearGradient id="paint10_linear_1:837" x1="27.528" y1="39.5324" x2="59.4256" y2="39.5324" gradientUnits="userSpaceOnUse">
<stop stop-color="#C2C2C2"/>
<stop offset="1" stop-color="#F2F2F2"/>
</linearGradient>
<linearGradient id="paint11_linear_1:837" x1="43.481" y1="23.9825" x2="43.481" y2="55.0802" gradientUnits="userSpaceOnUse">
<stop stop-color="#8F000E"/>
<stop offset="1" stop-color="#C5252D"/>
</linearGradient>
<linearGradient id="paint12_linear_1:837" x1="43.4798" y1="13.2731" x2="43.4798" y2="55.1809" gradientUnits="userSpaceOnUse">
<stop stop-color="#8F000E"/>
<stop offset="1" stop-color="#C5252D"/>
</linearGradient>
<linearGradient id="paint13_linear_1:837" x1="43.4798" y1="13.2731" x2="43.4798" y2="55.1809" gradientUnits="userSpaceOnUse">
<stop stop-color="#8F000E"/>
<stop offset="1" stop-color="#C5252D"/>
</linearGradient>
<linearGradient id="paint14_linear_1:837" x1="25.8347" y1="34.2251" x2="61.1255" y2="34.2251" gradientUnits="userSpaceOnUse">
<stop stop-color="#F2F2F2"/>
<stop offset="1" stop-color="#E2E2E2"/>
</linearGradient>
<linearGradient id="paint15_linear_1:837" x1="43.4774" y1="17.3509" x2="43.4774" y2="51.1006" gradientUnits="userSpaceOnUse">
<stop stop-color="#600009"/>
<stop offset="1" stop-color="#AB0E16"/>
</linearGradient>
<linearGradient id="paint16_linear_1:837" x1="27.528" y1="34.2272" x2="59.4256" y2="34.2272" gradientUnits="userSpaceOnUse">
<stop stop-color="#C2C2C2"/>
<stop offset="1" stop-color="#F2F2F2"/>
</linearGradient>
<linearGradient id="paint17_linear_1:837" x1="43.481" y1="18.6763" x2="43.481" y2="49.7741" gradientUnits="userSpaceOnUse">
<stop stop-color="#8F000E"/>
<stop offset="1" stop-color="#C5252D"/>
</linearGradient>
<linearGradient id="paint18_linear_1:837" x1="43.4798" y1="7.30486" x2="43.4798" y2="49.2127" gradientUnits="userSpaceOnUse">
<stop stop-color="#8F000E"/>
<stop offset="1" stop-color="#C5252D"/>
</linearGradient>
<linearGradient id="paint19_linear_1:837" x1="43.4798" y1="7.30486" x2="43.4798" y2="49.2127" gradientUnits="userSpaceOnUse">
<stop stop-color="#8F000E"/>
<stop offset="1" stop-color="#C5252D"/>
</linearGradient>
<linearGradient id="paint20_linear_1:837" x1="25.8347" y1="28.2588" x2="61.1255" y2="28.2588" gradientUnits="userSpaceOnUse">
<stop stop-color="#F2F2F2"/>
<stop offset="1" stop-color="#E2E2E2"/>
</linearGradient>
<linearGradient id="paint21_linear_1:837" x1="43.4774" y1="11.385" x2="43.4774" y2="45.1348" gradientUnits="userSpaceOnUse">
<stop stop-color="#600009"/>
<stop offset="1" stop-color="#AB0E16"/>
</linearGradient>
<linearGradient id="paint22_linear_1:837" x1="27.528" y1="28.2599" x2="59.4256" y2="28.2599" gradientUnits="userSpaceOnUse">
<stop stop-color="#C2C2C2"/>
<stop offset="1" stop-color="#F2F2F2"/>
</linearGradient>
<linearGradient id="paint23_linear_1:837" x1="43.481" y1="12.709" x2="43.481" y2="43.8068" gradientUnits="userSpaceOnUse">
<stop stop-color="#8F000E"/>
<stop offset="1" stop-color="#C5252D"/>
</linearGradient>
<linearGradient id="paint24_linear_1:837" x1="39.4886" y1="-0.65266" x2="39.4886" y2="41.2551" gradientUnits="userSpaceOnUse">
<stop stop-color="#8F000E"/>
<stop offset="1" stop-color="#C5252D"/>
</linearGradient>
<linearGradient id="paint25_linear_1:837" x1="39.4886" y1="-0.65266" x2="39.4886" y2="41.2551" gradientUnits="userSpaceOnUse">
<stop stop-color="#8F000E"/>
<stop offset="1" stop-color="#C5252D"/>
</linearGradient>
<linearGradient id="paint26_linear_1:837" x1="21.8396" y1="20.3012" x2="57.1304" y2="20.3012" gradientUnits="userSpaceOnUse">
<stop stop-color="#F2F2F2"/>
<stop offset="1" stop-color="#E2E2E2"/>
</linearGradient>
<linearGradient id="paint27_linear_1:837" x1="39.4862" y1="3.42654" x2="39.4862" y2="37.1763" gradientUnits="userSpaceOnUse">
<stop stop-color="#600009"/>
<stop offset="1" stop-color="#AB0E16"/>
</linearGradient>
<linearGradient id="paint28_linear_1:837" x1="23.5359" y1="20.3019" x2="55.4334" y2="20.3019" gradientUnits="userSpaceOnUse">
<stop stop-color="#C2C2C2"/>
<stop offset="1" stop-color="#F2F2F2"/>
</linearGradient>
<linearGradient id="paint29_linear_1:837" x1="39.4878" y1="4.75052" x2="39.4878" y2="35.8483" gradientUnits="userSpaceOnUse">
<stop stop-color="#8F000E"/>
<stop offset="1" stop-color="#C5252D"/>
</linearGradient>
<linearGradient id="paint30_linear_1:837" x1="53.4583" y1="36.4841" x2="53.4583" y2="78.3918" gradientUnits="userSpaceOnUse">
<stop stop-color="#8F000E"/>
<stop offset="1" stop-color="#C5252D"/>
</linearGradient>
<linearGradient id="paint31_linear_1:837" x1="53.4583" y1="36.4841" x2="53.4583" y2="78.3918" gradientUnits="userSpaceOnUse">
<stop stop-color="#8F000E"/>
<stop offset="1" stop-color="#C5252D"/>
</linearGradient>
<linearGradient id="paint32_linear_1:837" x1="35.8113" y1="57.4375" x2="71.102" y2="57.4375" gradientUnits="userSpaceOnUse">
<stop stop-color="#F2F2F2"/>
<stop offset="1" stop-color="#E2E2E2"/>
</linearGradient>
<linearGradient id="paint33_linear_1:837" x1="53.4564" y1="40.5633" x2="53.4564" y2="74.313" gradientUnits="userSpaceOnUse">
<stop stop-color="#600009"/>
<stop offset="1" stop-color="#AB0E16"/>
</linearGradient>
<linearGradient id="paint34_linear_1:837" x1="37.5056" y1="57.4386" x2="69.4031" y2="57.4386" gradientUnits="userSpaceOnUse">
<stop stop-color="#C2C2C2"/>
<stop offset="1" stop-color="#F2F2F2"/>
</linearGradient>
<linearGradient id="paint35_linear_1:837" x1="53.4586" y1="41.8872" x2="53.4586" y2="72.985" gradientUnits="userSpaceOnUse">
<stop stop-color="#8F000E"/>
<stop offset="1" stop-color="#C5252D"/>
</linearGradient>
<linearGradient id="paint36_linear_1:837" x1="8.90843" y1="0" x2="8.90843" y2="41.8932" gradientUnits="userSpaceOnUse">
<stop stop-color="#8F000E"/>
<stop offset="1" stop-color="#C5252D"/>
</linearGradient>
<linearGradient id="paint37_linear_1:837" x1="8.90843" y1="0" x2="8.90843" y2="41.8932" gradientUnits="userSpaceOnUse">
<stop stop-color="#8F000E"/>
<stop offset="1" stop-color="#C5252D"/>
</linearGradient>
<linearGradient id="paint38_linear_1:837" x1="6.61891" y1="60.2686" x2="39.8285" y2="48.3652" gradientUnits="userSpaceOnUse">
<stop stop-color="#F2F2F2"/>
<stop offset="1" stop-color="#E2E2E2"/>
</linearGradient>
<linearGradient id="paint39_linear_1:837" x1="6.09524" y1="0" x2="6.09524" y2="33.738" gradientUnits="userSpaceOnUse">
<stop stop-color="#600009"/>
<stop offset="1" stop-color="#AB0E16"/>
</linearGradient>
<linearGradient id="paint40_linear_1:837" x1="8.21653" y1="59.7008" x2="38.2329" y2="48.9419" gradientUnits="userSpaceOnUse">
<stop stop-color="#C2C2C2"/>
<stop offset="1" stop-color="#F2F2F2"/>
</linearGradient>
<linearGradient id="paint41_linear_1:837" x1="5.39194" y1="0" x2="5.39194" y2="31.0869" gradientUnits="userSpaceOnUse">
<stop stop-color="#8F000E"/>
<stop offset="1" stop-color="#C5252D"/>
</linearGradient>
<linearGradient id="paint42_linear_1:837" x1="43.4798" y1="-6.07991" x2="43.4798" y2="35.8279" gradientUnits="userSpaceOnUse">
<stop stop-color="#8F000E"/>
<stop offset="1" stop-color="#C5252D"/>
</linearGradient>
<linearGradient id="paint43_linear_1:837" x1="43.4798" y1="-6.07991" x2="43.4798" y2="35.8279" gradientUnits="userSpaceOnUse">
<stop stop-color="#8F000E"/>
<stop offset="1" stop-color="#C5252D"/>
</linearGradient>
<linearGradient id="paint44_linear_1:837" x1="25.8347" y1="14.873" x2="61.1255" y2="14.873" gradientUnits="userSpaceOnUse">
<stop stop-color="#F2F2F2"/>
<stop offset="1" stop-color="#E2E2E2"/>
</linearGradient>
<linearGradient id="paint45_linear_1:837" x1="43.4774" y1="-2.0007" x2="43.4774" y2="31.7491" gradientUnits="userSpaceOnUse">
<stop stop-color="#600009"/>
<stop offset="1" stop-color="#AB0E16"/>
</linearGradient>
<linearGradient id="paint46_linear_1:837" x1="27.528" y1="14.8751" x2="59.4256" y2="14.8751" gradientUnits="userSpaceOnUse">
<stop stop-color="#C2C2C2"/>
<stop offset="1" stop-color="#F2F2F2"/>
</linearGradient>
<linearGradient id="paint47_linear_1:837" x1="43.481" y1="-0.675754" x2="43.481" y2="30.422" gradientUnits="userSpaceOnUse">
<stop stop-color="#8F000E"/>
<stop offset="1" stop-color="#C5252D"/>
</linearGradient>
<linearGradient id="paint48_linear_1:837" x1="43.4798" y1="-12.0487" x2="43.4798" y2="29.8591" gradientUnits="userSpaceOnUse">
<stop stop-color="#8F000E"/>
<stop offset="1" stop-color="#C5252D"/>
</linearGradient>
<linearGradient id="paint49_linear_1:837" x1="43.4798" y1="-12.0487" x2="43.4798" y2="29.8591" gradientUnits="userSpaceOnUse">
<stop stop-color="#8F000E"/>
<stop offset="1" stop-color="#C5252D"/>
</linearGradient>
<linearGradient id="paint50_linear_1:837" x1="25.8347" y1="8.90525" x2="61.1255" y2="8.90525" gradientUnits="userSpaceOnUse">
<stop stop-color="#F2F2F2"/>
<stop offset="1" stop-color="#E2E2E2"/>
</linearGradient>
<linearGradient id="paint51_linear_1:837" x1="43.4774" y1="-7.96848" x2="43.4774" y2="25.7813" gradientUnits="userSpaceOnUse">
<stop stop-color="#600009"/>
<stop offset="1" stop-color="#AB0E16"/>
</linearGradient>
<linearGradient id="paint52_linear_1:837" x1="27.528" y1="8.90639" x2="59.4256" y2="8.90639" gradientUnits="userSpaceOnUse">
<stop stop-color="#C2C2C2"/>
<stop offset="1" stop-color="#F2F2F2"/>
</linearGradient>
<linearGradient id="paint53_linear_1:837" x1="43.481" y1="-6.6445" x2="43.481" y2="24.4533" gradientUnits="userSpaceOnUse">
<stop stop-color="#8F000E"/>
<stop offset="1" stop-color="#C5252D"/>
</linearGradient>
</defs>
</svg>
