<svg width="34" height="32" viewBox="0 0 34 32" fill="none" xmlns="http://www.w3.org/2000/svg">
<path d="M22.8294 31.6609C23.4422 31.6609 23.939 31.1637 23.939 30.5504C23.939 29.937 23.4422 29.4398 22.8294 29.4398C22.2165 29.4398 21.7197 29.937 21.7197 30.5504C21.7197 31.1637 22.2165 31.6609 22.8294 31.6609Z" fill="#101823"/>
<path d="M32.7522 0.925318C32.0668 0.337193 31.1422 0 30.215 0C30.0255 0.000150992 29.8363 0.0135042 29.6486 0.0399577C27.917 0.28305 26.2652 0.8779 24.9981 1.71509C24.2627 2.20053 23.5903 2.42644 22.8818 2.42644C22.3755 2.42644 21.8412 2.31666 21.1494 2.07021C18.7988 1.23264 16.0586 0.339436 13.2766 0.339436C12.1746 0.334566 11.077 0.479147 10.0137 0.769234C6.6486 1.69156 4.60355 3.76774 3.93978 6.94026C3.28123 10.0799 4.26028 12.7397 6.76986 14.6326C6.83516 14.6819 6.89187 14.7289 6.94672 14.7741C7.18253 14.9694 7.38626 15.1382 7.96645 15.2995C8.29479 15.3906 8.64888 15.2718 8.89029 14.9895C9.11863 14.7222 9.1802 14.379 9.05073 14.0934C8.82312 13.6005 8.57015 13.3622 8.27688 13.0851L8.21718 13.0291C6.21056 11.1356 5.59567 9.20464 6.2822 6.95258C6.98814 4.63742 8.65037 3.2487 11.223 2.82674C11.9358 2.71074 12.6567 2.65267 13.3789 2.6531C16.4011 2.6531 19.1517 3.65534 21.2143 4.52913C21.2179 4.53054 21.2211 4.53266 21.2238 4.53535C21.2265 4.53805 21.2286 4.54127 21.23 4.54482C21.2315 4.54837 21.2322 4.55217 21.2322 4.55601C21.2322 4.55986 21.2315 4.56367 21.23 4.56722V4.5717C20.883 5.40404 20.5423 6.23525 20.2125 7.03921L20.205 7.05713C19.176 9.56721 18.3738 11.5724 17.5559 13.8103L17.5421 13.8476C17.3182 14.4623 17.2063 14.7707 16.9701 14.9014C16.7067 15.0474 16.2026 15.0508 15.2874 15.0568C12.9681 15.0724 10.8756 15.4698 8.89066 16.2715C7.27022 16.9257 5.70574 17.8652 4.10843 19.143C2.78536 20.2013 1.66116 21.5437 0.943284 22.9231C0.844408 23.1128 0.75001 23.3159 0.654492 23.5444C0.635463 23.5911 0.337343 24.3701 0.276525 24.5766C-0.0301764 25.612 0.159364 27.0258 0.29294 27.5116C0.579867 28.5541 1.08208 29.4985 1.7078 30.1703C2.87043 31.419 4.31961 32 6.274 32H6.2822C8.55821 31.9981 10.4984 31.2409 12.2148 29.6848C13.6136 28.4152 14.9012 26.6057 16.3937 23.8148C16.9324 22.8066 17.2738 21.7517 17.635 20.6363C17.7731 20.2102 17.9156 19.7696 18.0704 19.332C18.1824 19.0194 18.2701 18.7487 18.3562 18.4869C18.4641 18.1587 18.5663 17.8488 18.707 17.4634C18.7106 17.4549 18.7173 17.448 18.7257 17.4442C18.7341 17.4403 18.7437 17.4397 18.7525 17.4425L18.7674 17.4447C19.2551 17.5026 19.7054 17.5586 20.1412 17.6124H20.1532C21.3039 17.755 22.2975 17.8783 23.1948 17.9451H23.2071C23.553 17.9451 23.9948 17.9178 24.3436 17.7043L24.3582 17.696C24.389 17.6804 24.4179 17.6614 24.4444 17.6393C24.7974 17.3372 24.8015 16.8062 24.7056 16.618L24.6683 16.5467C24.4522 16.124 23.9877 15.9451 23.7302 15.8745C23.1653 15.7229 22.4374 15.6281 21.5945 15.5183H21.59C21.3427 15.4862 21.0867 15.453 20.8229 15.4164C20.5244 15.3753 20.333 15.3529 20.1778 15.3346C19.8799 15.3046 19.5849 15.2505 19.2958 15.1729C19.2996 15.1278 19.3115 15.0838 19.3308 15.0429L20.3629 12.4802C20.852 11.4403 21.2927 10.3518 21.7188 9.30172C22.0173 8.56199 22.302 7.86334 22.6019 7.177C23.3538 5.45632 23.7213 5.5366 24.6134 5.7304C24.8194 5.77484 25.0925 5.84914 25.3817 5.92793C25.6615 6.00261 25.9503 6.08253 26.2256 6.1475C26.4051 6.19007 26.5711 6.2304 26.7275 6.26811C27.8327 6.53585 28.4416 6.68297 29.8348 6.7233H29.9691C31.444 6.7233 32.5033 6.18148 33.0033 5.67439C33.5794 5.09 33.9021 4.20127 33.8887 3.236C33.8712 2.36408 33.4693 1.54033 32.7522 0.925318ZM29.9131 2.34429C30.2788 2.34429 30.7904 2.45146 31.1097 2.69044C31.3429 2.86557 31.412 2.95967 31.4321 3.00038C31.522 3.17999 31.5758 3.39918 31.5481 3.4817L31.5448 3.49403C31.487 3.7248 31.4444 3.86296 31.2388 4.01681C30.8534 4.30657 30.3478 4.49067 29.921 4.49814H29.8229C29.0819 4.49814 28.2151 4.47461 27.4043 4.3006C27.2924 4.27633 27.1984 4.26102 27.1058 4.24609C26.8862 4.21453 26.6702 4.16188 26.4607 4.08887L26.3387 4.05153C26.304 4.03398 26.2719 4.01681 26.2387 3.99888C26.1566 3.95519 26.0723 3.90964 25.9536 3.8596C25.8905 3.8251 25.8325 3.78172 25.7816 3.73077C25.7698 3.70756 25.7631 3.68211 25.7619 3.65609C25.7902 3.52801 26.5756 3.08851 27.3831 2.90143C27.6409 2.84131 27.9017 2.77185 28.1543 2.70464C28.7061 2.55751 29.2766 2.4059 29.8434 2.3469C29.8673 2.34653 29.8993 2.34466 29.9131 2.34503V2.34429ZM2.55962 25.1837C2.79804 24.0392 3.18907 23.1979 3.82822 22.4556C5.30427 20.7379 6.56204 19.6923 8.03361 18.9511C9.64622 18.1397 11.5711 17.6721 14.2744 17.4354L15.3191 17.3607H15.3784C15.5523 17.3607 16.0317 17.3663 16.4067 17.3715C16.377 17.5857 16.3306 17.7972 16.2679 18.0041C16.2552 18.0497 16.2392 18.0967 16.219 18.1486C16.1679 18.2797 16.0802 18.5538 15.969 18.901C15.7784 19.4985 15.5168 20.3137 15.2825 20.9007C14.5187 22.8111 13.5662 24.9974 11.9304 26.7689C11.0573 27.7143 10.1865 28.6083 9.13878 29.1587C8.06122 29.7259 6.8333 29.9104 5.27479 29.7394C4.71512 29.6781 3.82187 29.2091 3.17974 28.3249C2.72715 27.7043 2.25367 26.6546 2.55962 25.1845V25.1837Z" fill="#101823"/>
</svg>
