<svg width="32" height="32" viewBox="0 0 32 32" fill="none" xmlns="http://www.w3.org/2000/svg">
<path d="M21.1772 29.7033C21.7215 29.7033 22.1628 29.2682 22.1628 28.7316C22.1628 28.1949 21.7215 27.7599 21.1772 27.7599C20.6329 27.7599 20.1917 28.1949 20.1917 28.7316C20.1917 29.2682 20.6329 29.7033 21.1772 29.7033Z" fill="url(#paint0_linear_11313_21390)"/>
<path d="M29.9902 2.80965C29.3815 2.29504 28.5603 2 27.7368 2C27.5685 2.00013 27.4004 2.01182 27.2338 2.03496C25.6958 2.24767 24.2288 2.76816 23.1034 3.50071C22.4502 3.92546 21.8531 4.12313 21.2238 4.12313C20.7741 4.12313 20.2995 4.02708 19.6851 3.81143C17.5974 3.07856 15.1637 2.29701 12.6929 2.29701C11.7141 2.29275 10.7392 2.41925 9.79491 2.67308C6.80613 3.48012 4.9898 5.29677 4.40027 8.07272C3.81537 10.8199 4.68493 13.1473 6.91383 14.8035C6.97182 14.8466 7.02219 14.8878 7.07091 14.9273C7.28034 15.0982 7.46128 15.2459 7.97659 15.387C8.26821 15.4668 8.58269 15.3629 8.7971 15.1159C8.99991 14.8819 9.05459 14.5816 8.9396 14.3317C8.73745 13.9004 8.51277 13.6919 8.2523 13.4495L8.19928 13.4005C6.41709 11.7436 5.87096 10.0541 6.48071 8.08351C7.10769 6.05774 8.58402 4.84261 10.8689 4.4734C11.502 4.3719 12.1423 4.32108 12.7837 4.32146C15.4679 4.32146 17.9109 5.19842 19.7428 5.96299C19.7459 5.96422 19.7488 5.96607 19.7512 5.96843C19.7536 5.97079 19.7555 5.97361 19.7567 5.97671C19.758 5.97982 19.7587 5.98315 19.7587 5.98651C19.7587 5.98987 19.758 5.99321 19.7567 5.99631V6.00024C19.4485 6.72853 19.146 7.45584 18.853 8.15931L18.8464 8.17499C17.9324 10.3713 17.2199 12.1259 16.4935 14.084L16.4813 14.1167C16.2825 14.6545 16.183 14.9244 15.9733 15.0387C15.7393 15.1665 15.2916 15.1694 14.4787 15.1747C12.4188 15.1884 10.5604 15.536 8.79743 16.2375C7.35822 16.81 5.96872 17.632 4.55006 18.7501C3.37496 19.6761 2.37649 20.8507 1.73891 22.0577C1.65109 22.2237 1.56725 22.4014 1.48242 22.6014C1.46551 22.6422 1.20074 23.3238 1.14672 23.5045C0.874322 24.4105 1.04266 25.6475 1.1613 26.0726C1.41614 26.9849 1.86218 27.8112 2.41792 28.399C3.45052 29.4916 4.73762 30 6.47342 30H6.48071C8.50217 29.9984 10.2254 29.3357 11.7498 27.9742C12.9921 26.8633 14.1357 25.28 15.4613 22.8379C15.9398 21.9557 16.243 21.0327 16.5638 20.0568C16.6864 19.684 16.813 19.2984 16.9505 18.9155C17.0499 18.642 17.1278 18.4051 17.2044 18.1761C17.3001 17.8889 17.3909 17.6177 17.5159 17.2805C17.5191 17.273 17.525 17.267 17.5325 17.2636C17.54 17.2603 17.5485 17.2597 17.5563 17.2622L17.5696 17.2641C18.0027 17.3148 18.4027 17.3638 18.7897 17.4108H18.8003C19.8223 17.5357 20.7048 17.6435 21.5018 17.702H21.5127C21.8199 17.702 22.2123 17.6781 22.5221 17.4912L22.535 17.484C22.5624 17.4704 22.5881 17.4537 22.6116 17.4344C22.9251 17.17 22.9287 16.7054 22.8436 16.5407L22.8104 16.4783C22.6186 16.1085 22.206 15.952 21.9773 15.8902C21.4756 15.7576 20.8291 15.6746 20.0805 15.5785H20.0765C19.8568 15.5504 19.6295 15.5213 19.3952 15.4893C19.1301 15.4534 18.9601 15.4338 18.8222 15.4178C18.5576 15.3915 18.2956 15.3442 18.0388 15.2763C18.0422 15.2368 18.0527 15.1983 18.0699 15.1626L18.9866 12.9202C19.421 12.0102 19.8124 11.0578 20.1908 10.139C20.4559 9.49174 20.7088 8.88042 20.9752 8.27988C21.643 6.77428 21.9694 6.84453 22.7617 7.0141C22.9446 7.05298 23.1872 7.118 23.444 7.18694C23.6926 7.25229 23.9491 7.32221 24.1936 7.37906C24.353 7.41631 24.5005 7.4516 24.6393 7.4846C25.6209 7.71887 26.1617 7.8476 27.3991 7.88289H27.5184C28.8284 7.88289 29.7692 7.4088 30.2133 6.96509C30.7249 6.45375 31.0116 5.67612 30.9996 4.8315C30.9841 4.06857 30.6272 3.34779 29.9902 2.80965ZM27.4687 4.05125C27.7935 4.05125 28.2478 4.14503 28.5315 4.35414C28.7386 4.50738 28.7999 4.58972 28.8178 4.62533C28.8977 4.78249 28.9454 4.97428 28.9209 5.04649L28.9179 5.05727C28.8665 5.2592 28.8287 5.38009 28.6461 5.5147C28.3038 5.76825 27.8548 5.92934 27.4757 5.93587H27.3885C26.7304 5.93587 25.9606 5.91529 25.2405 5.76303C25.1411 5.74179 25.0576 5.72839 24.9754 5.71533C24.7803 5.68772 24.5885 5.64164 24.4024 5.57776L24.294 5.54509C24.2632 5.52973 24.2347 5.51471 24.2052 5.49902C24.1323 5.46079 24.0574 5.42093 23.9521 5.37715C23.8959 5.34696 23.8445 5.309 23.7993 5.26443C23.7888 5.24412 23.7828 5.22184 23.7817 5.19908C23.8069 5.08701 24.5045 4.70244 25.2216 4.53875C25.4506 4.48614 25.6822 4.42537 25.9066 4.36656C26.3967 4.23782 26.9034 4.10517 27.4068 4.05354C27.428 4.05321 27.4565 4.05158 27.4687 4.05191V4.05125ZM3.17447 24.0358C3.38623 23.0343 3.73352 22.2982 4.30118 21.6486C5.61215 20.1456 6.72925 19.2308 8.03624 18.5822C9.46849 17.8722 11.1781 17.4631 13.579 17.256L14.5069 17.1906H14.5596C14.714 17.1906 15.1398 17.1955 15.4729 17.2001C15.4465 17.3875 15.4053 17.5726 15.3496 17.7536C15.3383 17.7935 15.3241 17.8346 15.3062 17.88C15.2608 17.9947 15.1829 18.2346 15.0842 18.5384C14.9148 19.0612 14.6825 19.7745 14.4744 20.2881C13.7961 21.9597 12.95 23.8727 11.4972 25.4227C10.7218 26.25 9.94833 27.0323 9.0178 27.5139C8.06076 28.0102 6.97017 28.1716 5.58597 28.0219C5.08889 27.9684 4.29555 27.558 3.72524 26.7843C3.32326 26.2412 2.90273 25.3228 3.17447 24.0364V24.0358Z" fill="url(#paint1_linear_11313_21390)"/>
<defs>
<linearGradient id="paint0_linear_11313_21390" x1="1" y1="17.5556" x2="31.5541" y2="16.9603" gradientUnits="userSpaceOnUse">
<stop stop-color="#4598FB"/>
<stop offset="1" stop-color="#D15EAE"/>
</linearGradient>
<linearGradient id="paint1_linear_11313_21390" x1="1" y1="17.5556" x2="31.5541" y2="16.9603" gradientUnits="userSpaceOnUse">
<stop stop-color="#4598FB"/>
<stop offset="1" stop-color="#D15EAE"/>
</linearGradient>
</defs>
</svg>
