<svg width="100" height="28" viewBox="0 0 100 28" fill="none" xmlns="http://www.w3.org/2000/svg">
<path fill-rule="evenodd" clip-rule="evenodd" d="M24.1899 0H4.38156C1.96169 0 0 1.96644 0 4.39216V23.6078C0 26.0336 1.96169 28 4.38156 28H24.1899C26.6097 28 28.5714 26.0336 28.5714 23.6078V4.39216C28.5714 1.96644 26.6097 0 24.1899 0ZM1.46057 4.39216C1.46057 2.77502 2.76836 1.46406 4.38161 1.46406H24.1899C25.8032 1.46406 27.111 2.77502 27.111 4.39216V23.6079C27.111 25.225 25.8032 26.536 24.1899 26.536H4.38161C2.76836 26.536 1.46057 25.225 1.46057 23.6079V4.39216Z" fill="white"/>
<path fill-rule="evenodd" clip-rule="evenodd" d="M5.53131 9.58907L7.08024 15.3886L8.9866 9.58907H10.8453L12.7517 15.3886L14.3006 9.58907H16.7431L14.0623 18.5683H11.6793L9.91596 13.3642L8.15257 18.5683H5.76961L3.08878 9.58907H5.53131ZM21.1524 14.6265C21.0809 14.3248 20.9339 14.0827 20.7115 13.9001C20.4891 13.7175 20.2191 13.6262 19.9013 13.6262C19.5677 13.6262 19.2957 13.7135 19.0852 13.8882C18.8747 14.0628 18.7416 14.3089 18.686 14.6265H21.1524ZM19.9371 17.2703C19.0634 17.2703 18.6265 16.8058 18.6265 15.8769H23.166V15.6507C23.166 15.1188 23.0906 14.6404 22.9397 14.2157C22.7887 13.7909 22.5703 13.4317 22.2843 13.1379C21.9984 12.8442 21.6489 12.6199 21.2358 12.4651C20.8228 12.3103 20.3581 12.2329 19.8418 12.2329C19.3176 12.2329 18.8469 12.3103 18.4299 12.4651C18.0129 12.6199 17.6574 12.8402 17.3635 13.126C17.0696 13.4118 16.8433 13.7592 16.6844 14.168C16.5255 14.5769 16.4461 15.0354 16.4461 15.5435C16.4461 16.0357 16.5295 16.4803 16.6963 16.8773C16.8631 17.2742 17.0994 17.6156 17.4052 17.9014C17.711 18.1872 18.0784 18.4076 18.5074 18.5624C18.9363 18.7172 19.4089 18.7946 19.9252 18.7946C21.6092 18.7946 22.6616 18.096 23.0826 16.6987H20.9975C20.7592 17.0797 20.4058 17.2703 19.9371 17.2703Z" fill="white"/>
<path fill-rule="evenodd" clip-rule="evenodd" d="M68.9483 9.5702C68.8853 9.71786 68.8538 9.87549 68.8538 10.0431C68.8538 10.2107 68.8853 10.3683 68.9483 10.516C69.0114 10.6636 69.098 10.7933 69.2084 10.9051C69.3187 11.0168 69.4467 11.1046 69.5925 11.1685C69.7382 11.2323 69.8938 11.2642 70.0593 11.2642C70.2248 11.2642 70.3804 11.2323 70.5261 11.1685C70.6719 11.1046 70.7999 11.0168 70.9102 10.9051C71.0206 10.7933 71.1072 10.6636 71.1703 10.516C71.2333 10.3683 71.2648 10.2107 71.2648 10.0431C71.2648 9.87549 71.2333 9.71786 71.1703 9.5702C71.1072 9.42255 71.0206 9.29285 70.9102 9.18112C70.7999 9.06938 70.6719 8.98158 70.5261 8.91773C70.3804 8.85388 70.2248 8.82196 70.0593 8.82196C69.8938 8.82196 69.7382 8.85388 69.5925 8.91773C69.4467 8.98158 69.3187 9.06938 69.2084 9.18112C69.098 9.29285 69.0114 9.42255 68.9483 9.5702ZM60.821 11.8269C60.5688 11.6194 60.3167 11.4658 60.0646 11.366C59.8124 11.2663 59.5682 11.2164 59.3318 11.2164C59.0324 11.2164 58.7882 11.2882 58.5991 11.4319C58.41 11.5755 58.3154 11.7631 58.3154 11.9946C58.3154 12.1542 58.3627 12.2859 58.4572 12.3896C58.5518 12.4934 58.6759 12.5832 58.8295 12.659C58.9832 12.7348 59.1565 12.8007 59.3495 12.8565C59.5426 12.9124 59.7336 12.9723 59.9227 13.0361C60.6791 13.2915 61.2326 13.6327 61.5833 14.0597C61.9339 14.4867 62.1092 15.0434 62.1092 15.7298C62.1092 16.1927 62.0324 16.6117 61.8787 16.9868C61.7251 17.362 61.5005 17.6832 61.2051 17.9506C60.9096 18.218 60.5472 18.4255 60.1178 18.5731C59.6883 18.7208 59.2018 18.7946 58.6581 18.7946C57.5314 18.7946 56.4874 18.4554 55.5262 17.777L56.519 15.8854C56.8656 16.1967 57.2084 16.4282 57.5472 16.5798C57.886 16.7314 58.2208 16.8073 58.5518 16.8073C58.93 16.8073 59.2117 16.7195 59.3968 16.5439C59.582 16.3683 59.6746 16.1688 59.6746 15.9453C59.6746 15.8096 59.6509 15.6919 59.6036 15.5921C59.5564 15.4923 59.4776 15.4006 59.3673 15.3168C59.257 15.233 59.1132 15.1551 58.9359 15.0833C58.7586 15.0115 58.5439 14.9317 58.2918 14.8439C57.9924 14.7481 57.6989 14.6423 57.4113 14.5266C57.1237 14.4109 56.8676 14.2572 56.6431 14.0657C56.4185 13.8741 56.2373 13.6327 56.0994 13.3414C55.9615 13.0501 55.8926 12.6809 55.8926 12.234C55.8926 11.787 55.9654 11.382 56.1112 11.0188C56.257 10.6557 56.4618 10.3444 56.7258 10.085C56.9897 9.82564 57.3128 9.62412 57.6949 9.48045C58.0771 9.33679 58.5045 9.26496 58.9772 9.26496C59.4185 9.26496 59.8794 9.32681 60.36 9.45053C60.8407 9.57424 61.3016 9.75581 61.7428 9.99525L60.821 11.8269ZM36.7857 9.51637L38.3221 15.3467L40.2131 9.51637H42.0569L43.9478 15.3467L45.4843 9.51637H47.9071L45.2479 18.5432H42.8842L41.135 13.3115L39.3858 18.5432H37.0221L34.3629 9.51637H36.7857ZM52.5912 14.5804C52.5203 14.2772 52.3745 14.0337 52.1539 13.8502C51.9333 13.6666 51.6654 13.5748 51.3503 13.5748C51.0193 13.5748 50.7495 13.6626 50.5407 13.8382C50.3319 14.0138 50.1999 14.2612 50.1448 14.5804H52.5912ZM51.3857 17.2382C50.519 17.2382 50.0856 16.7713 50.0856 15.8375H54.5886V15.61C54.5886 15.0752 54.5137 14.5944 54.364 14.1674C54.2143 13.7404 53.9976 13.3792 53.714 13.0839C53.4303 12.7886 53.0837 12.5631 52.6739 12.4075C52.2642 12.2519 51.8033 12.1741 51.2911 12.1741C50.7711 12.1741 50.3043 12.2519 49.8906 12.4075C49.477 12.5631 49.1244 12.7846 48.8329 13.0719C48.5413 13.3593 48.3168 13.7085 48.1592 14.1195C48.0016 14.5305 47.9228 14.9914 47.9228 15.5022C47.9228 15.9971 48.0056 16.444 48.171 16.8431C48.3365 17.2422 48.5709 17.5854 48.8742 17.8727C49.1776 18.16 49.542 18.3815 49.9675 18.5371C50.3929 18.6928 50.8617 18.7706 51.3739 18.7706C53.0443 18.7706 54.0882 18.0682 54.5058 16.6635H52.4376C52.2012 17.0466 51.8506 17.2382 51.3857 17.2382ZM66.7343 14.0058C67.1125 14.0058 67.4868 14.1335 67.8571 14.3889V12.5452C67.4159 12.3218 66.9352 12.21 66.4152 12.21C65.9425 12.21 65.4993 12.2918 65.0856 12.4555C64.6719 12.6191 64.3154 12.8465 64.016 13.1379C63.7166 13.4292 63.4802 13.7764 63.3069 14.1794C63.1336 14.5825 63.0469 15.0274 63.0469 15.5143C63.0469 16.0011 63.1375 16.4421 63.3187 16.8372C63.4999 17.2323 63.7422 17.5715 64.0456 17.8548C64.3489 18.1381 64.6995 18.3556 65.0974 18.5073C65.4953 18.6589 65.9149 18.7347 66.3561 18.7347C66.8289 18.7347 67.3292 18.619 67.8571 18.3875V16.5439C67.5104 16.8232 67.1362 16.9629 66.7343 16.9629C66.5295 16.9629 66.3364 16.927 66.1552 16.8551C65.974 16.7833 65.8184 16.6815 65.6884 16.5499C65.5583 16.4182 65.4559 16.2625 65.3811 16.0829C65.3062 15.9034 65.2688 15.7058 65.2688 15.4903C65.2688 15.2669 65.3062 15.0653 65.3811 14.8858C65.4559 14.7062 65.5603 14.5505 65.6943 14.4188C65.8282 14.2872 65.9838 14.1854 66.1611 14.1136C66.3384 14.0417 66.5295 14.0058 66.7343 14.0058ZM71.1348 12.4015V18.5431H68.9956V12.4015H71.1348ZM76.9535 14.5804C76.8826 14.2772 76.7369 14.0337 76.5162 13.8502C76.2956 13.6666 76.0277 13.5748 75.7126 13.5748C75.3816 13.5748 75.1118 13.6626 74.903 13.8382C74.6942 14.0138 74.5622 14.2612 74.5071 14.5804H76.9535ZM75.748 17.2382C74.8813 17.2382 74.448 16.7713 74.448 15.8375H78.9509V15.61C78.9509 15.0752 78.876 14.5944 78.7263 14.1674C78.5766 13.7404 78.3599 13.3792 78.0763 13.0839C77.7926 12.7886 77.446 12.5631 77.0362 12.4075C76.6265 12.2519 76.1656 12.1741 75.6535 12.1741C75.1334 12.1741 74.6666 12.2519 74.2529 12.4075C73.8393 12.5631 73.4867 12.7846 73.1952 13.0719C72.9036 13.3593 72.6791 13.7085 72.5215 14.1195C72.3639 14.5305 72.2851 14.9914 72.2851 15.5022C72.2851 15.9971 72.3679 16.444 72.5333 16.8431C72.6988 17.2422 72.9332 17.5854 73.2365 17.8727C73.5399 18.16 73.9043 18.3815 74.3298 18.5371C74.7552 18.6928 75.224 18.7706 75.7362 18.7706C77.4066 18.7706 78.4506 18.0682 78.8681 16.6635H76.7999C76.5635 17.0466 76.2129 17.2382 75.748 17.2382ZM80.0894 12.4015H82.2286V13.1797C82.5201 12.8206 82.8156 12.5791 83.115 12.4554C83.4144 12.3317 83.765 12.2699 84.1668 12.2699C84.5923 12.2699 84.9567 12.3397 85.26 12.4794C85.5634 12.619 85.8214 12.8166 86.0342 13.072C86.2075 13.2795 86.3257 13.5109 86.3887 13.7663C86.4518 14.0217 86.4833 14.3131 86.4833 14.6403V18.5431H84.3441V15.4424C84.3441 15.1391 84.3224 14.8937 84.2791 14.7061C84.2358 14.5186 84.1589 14.3689 84.0486 14.2572C83.9541 14.1614 83.8477 14.0936 83.7295 14.0537C83.6113 14.0138 83.4853 13.9938 83.3513 13.9938C82.9889 13.9938 82.7112 14.1035 82.5181 14.323C82.3251 14.5425 82.2286 14.8558 82.2286 15.2628V18.5431H80.0894V12.4015ZM91.3093 14.0058C91.6875 14.0058 92.0618 14.1335 92.4321 14.3889V12.5452C91.9908 12.3218 91.5102 12.21 90.9902 12.21C90.5175 12.21 90.0743 12.2918 89.6606 12.4555C89.2469 12.6191 88.8904 12.8465 88.591 13.1379C88.2916 13.4292 88.0552 13.7764 87.8819 14.1794C87.7085 14.5825 87.6219 15.0274 87.6219 15.5143C87.6219 16.0011 87.7125 16.4421 87.8937 16.8372C88.0749 17.2323 88.3172 17.5715 88.6206 17.8548C88.9239 18.1381 89.2745 18.3556 89.6724 18.5073C90.0703 18.6589 90.4899 18.7347 90.9311 18.7347C91.4039 18.7347 91.9042 18.619 92.4321 18.3875V16.5439C92.0854 16.8232 91.7112 16.9629 91.3093 16.9629C91.1045 16.9629 90.9114 16.927 90.7302 16.8551C90.549 16.7833 90.3934 16.6815 90.2634 16.5499C90.1333 16.4182 90.0309 16.2625 89.9561 16.0829C89.8812 15.9034 89.8438 15.7058 89.8438 15.4903C89.8438 15.2669 89.8812 15.0653 89.9561 14.8858C90.0309 14.7062 90.1353 14.5505 90.2693 14.4188C90.4032 14.2872 90.5588 14.1854 90.7361 14.1136C90.9134 14.0417 91.1045 14.0058 91.3093 14.0058ZM98.0026 14.5804C97.9317 14.2772 97.7859 14.0337 97.5653 13.8502C97.3447 13.6666 97.0768 13.5748 96.7616 13.5748C96.4307 13.5748 96.1609 13.6626 95.9521 13.8382C95.7433 14.0138 95.6113 14.2612 95.5561 14.5804H98.0026ZM96.7971 17.2382C95.9304 17.2382 95.497 16.7713 95.497 15.8375H100V15.61C100 15.0752 99.9251 14.5944 99.7754 14.1674C99.6257 13.7404 99.409 13.3792 99.1254 13.0839C98.8417 12.7886 98.495 12.5631 98.0853 12.4075C97.6756 12.2519 97.2147 12.1741 96.7025 12.1741C96.1825 12.1741 95.7157 12.2519 95.302 12.4075C94.8884 12.5631 94.5358 12.7846 94.2442 13.0719C93.9527 13.3593 93.7282 13.7085 93.5706 14.1195C93.413 14.5305 93.3342 14.9914 93.3342 15.5022C93.3342 15.9971 93.4169 16.444 93.5824 16.8431C93.7479 17.2422 93.9823 17.5854 94.2856 17.8727C94.5889 18.16 94.9534 18.3815 95.3788 18.5371C95.8043 18.6928 96.2731 18.7706 96.7853 18.7706C98.4557 18.7706 99.4996 18.0682 99.9172 16.6635H97.8489C97.6126 17.0466 97.2619 17.2382 96.7971 17.2382Z" fill="white"/>
<path d="M22.3939 8.99642L22.8419 8.33273C23.1405 8.60927 23.5807 8.77519 23.9815 8.77519C24.3352 8.77519 24.5395 8.62507 24.5395 8.37223C24.5395 7.74015 22.5511 7.89817 22.5511 6.57869C22.5511 5.78858 23.2427 5.36982 24.0837 5.36982C24.5631 5.36982 25.0661 5.50414 25.4355 5.82808L25.0661 6.53128C24.8303 6.32585 24.4059 6.18363 24.0522 6.18363C23.7064 6.18363 23.4942 6.31795 23.4942 6.57079C23.4942 7.21077 25.4827 7.02905 25.4827 8.34853C25.4827 9.05963 24.8853 9.589 23.9658 9.589C23.4077 9.589 22.8104 9.39937 22.3939 8.99642Z" fill="white"/>
</svg>
