<svg width="24" height="24" viewBox="0 0 24 24" fill="none" xmlns="http://www.w3.org/2000/svg">
<g filter="url(#filter0_d_1:3412)">
<path d="M4.77997 3.12716C4.6758 3.2725 4.59696 3.43724 4.54991 3.6149C4.51375 3.7507 4.49747 3.88916 4.50001 4.02634V19.9737C4.49747 20.1108 4.51375 20.2493 4.54991 20.3851C4.59698 20.5628 4.67586 20.7276 4.78008 20.873C4.90686 21.0506 5.06706 21.1934 5.247 21.2976C5.42694 21.4022 5.63064 21.4705 5.84803 21.4924C6.02574 21.5106 6.20769 21.4973 6.38511 21.4501C6.52099 21.4141 6.64931 21.3595 6.76718 21.2892L20.7222 13.3149C20.8452 13.2476 20.9595 13.1625 21.0609 13.0609C21.1914 12.9306 21.2946 12.7791 21.3681 12.6154C21.4576 12.4169 21.5005 12.2073 21.5003 12C21.5005 11.7927 21.4576 11.5831 21.3681 11.3846C21.2946 11.2209 21.1914 11.0694 21.0609 10.9391C20.9595 10.8375 20.8452 10.7524 20.7222 10.6851L6.76709 2.7107C6.64925 2.64044 6.52096 2.58587 6.38511 2.54989C6.20752 2.5026 6.02538 2.48933 5.84751 2.50765C5.63032 2.52958 5.4268 2.59785 5.247 2.70242C5.06701 2.80664 4.90677 2.94947 4.77997 3.12716Z" fill="white"/>
<path d="M4.37357 2.83589L4.77997 3.12715L4.37298 2.83672C4.54206 2.59977 4.75599 2.40904 4.99603 2.26996C5.23576 2.13062 5.50733 2.03953 5.79677 2.01023C6.03348 1.98591 6.27632 2.00355 6.51341 2.06663C6.69321 2.11428 6.86297 2.18627 7.01889 2.27871L20.9667 10.2489C21.1289 10.3383 21.28 10.4509 21.4143 10.5853C21.4144 10.5854 21.4146 10.5856 21.4147 10.5857L21.0609 10.9391C21.1914 11.0694 21.2946 11.2209 21.3681 11.3846L4.37357 2.83589ZM4.37357 2.83589C4.23484 3.02946 4.12956 3.24924 4.06665 3.48659C4.01883 3.66633 3.99711 3.84941 4.00001 4.03063M4.37357 2.83589L4.00001 4.03063M22.0003 12.0005C22.0005 11.7241 21.9434 11.4443 21.8242 11.1799L21.5003 12M22.0003 12.0005L21.5003 12M22.0003 12.0005C22.0003 12.0002 22.0003 11.9998 22.0003 11.9995L21.5003 12M22.0003 12.0005C22.0004 12.2767 21.9432 12.5563 21.824 12.8206M21.5003 12C21.5005 12.2073 21.4576 12.4169 21.3681 12.6154M21.824 12.8206C21.8241 12.8204 21.8242 12.8203 21.8242 12.8201L21.3681 12.6154M21.824 12.8206C21.824 12.8207 21.8239 12.8209 21.8238 12.821L21.3681 12.6154M21.824 12.8206C21.7261 13.0386 21.5885 13.2407 21.4143 13.4147M21.3681 12.6154L21.0609 13.0609M21.4143 13.4147L21.0609 13.0609M21.4143 13.4147C21.4144 13.4145 21.4146 13.4144 21.4147 13.4143L21.0609 13.0609M21.4143 13.4147C21.2799 13.5491 21.1289 13.6617 20.9666 13.7511M21.0609 13.0609C20.9595 13.1625 20.8452 13.2476 20.7222 13.3149L6.76718 21.2892M20.9666 13.7511L20.9703 13.7491L20.7222 13.315L20.9625 13.7534C20.9639 13.7527 20.9653 13.7519 20.9666 13.7511ZM20.9666 13.7511L7.01894 21.7213M7.01894 21.7213C7.02038 21.7204 7.02183 21.7195 7.02327 21.7187L6.76718 21.2892M7.01894 21.7213C6.86293 21.8138 6.69306 21.8858 6.51313 21.9334M7.01894 21.7213L7.01525 21.7234L6.76718 21.2892M6.76718 21.2892L6.51313 21.9334M6.51313 21.9334L6.38511 21.4501L6.51376 21.9333C6.51355 21.9333 6.51334 21.9334 6.51313 21.9334ZM4.00001 4.03063V19.9694C3.99711 20.1507 4.01885 20.3339 4.06674 20.5137L4.54991 20.3851M4.00001 4.03063L4.50001 19.9737C4.49747 20.1108 4.51375 20.2493 4.54991 20.3851M4.54991 20.3851C4.59698 20.5628 4.67586 20.7276 4.78008 20.873M4.54991 20.3851L4.06657 20.5131C4.1294 20.7503 4.23455 20.97 4.37311 21.1635L4.78008 20.873M4.78008 20.873C4.90686 21.0506 5.06706 21.1934 5.247 21.2976M4.78008 20.873L4.37371 21.1643C4.37361 21.1642 4.37351 21.164 4.37341 21.1639L5.247 21.2976M5.247 21.2976L4.99563 21.7298M5.247 21.2976L4.99644 21.7303C4.99617 21.7301 4.9959 21.73 4.99563 21.7298M5.247 21.2976C5.42694 21.4022 5.63064 21.4705 5.84803 21.4924M5.247 21.2976L5.84803 21.4924M4.99563 21.7298C5.2355 21.8693 5.50728 21.9605 5.79696 21.9898M4.99563 21.7298L5.79696 21.9898M5.79696 21.9898C5.7973 21.9898 5.79764 21.9898 5.79798 21.9899L5.84803 21.4924M5.79696 21.9898L5.84803 21.4924" stroke="url(#paint0_linear_1:3412)" stroke-linecap="round" stroke-linejoin="round"/>
</g>
<defs>
<filter id="filter0_d_1:3412" x="3.49976" y="1.49974" width="19.0005" height="22.0005" filterUnits="userSpaceOnUse" color-interpolation-filters="sRGB">
<feFlood flood-opacity="0" result="BackgroundImageFix"/>
<feColorMatrix in="SourceAlpha" type="matrix" values="0 0 0 0 0 0 0 0 0 0 0 0 0 0 0 0 0 0 127 0" result="hardAlpha"/>
<feOffset dy="1"/>
<feComposite in2="hardAlpha" operator="out"/>
<feColorMatrix type="matrix" values="0 0 0 0 0.360784 0 0 0 0 0.239216 0 0 0 0 0.00784314 0 0 0 0.7 0"/>
<feBlend mode="normal" in2="BackgroundImageFix" result="effect1_dropShadow_1:3412"/>
<feBlend mode="normal" in="SourceGraphic" in2="effect1_dropShadow_1:3412" result="shape"/>
</filter>
<linearGradient id="paint0_linear_1:3412" x1="11.3" y1="3.25976" x2="18.3023" y2="19.8442" gradientUnits="userSpaceOnUse">
<stop stop-color="#A3700E"/>
<stop offset="1" stop-color="#593B01"/>
</linearGradient>
</defs>
</svg>
