<svg width="12" height="12" viewBox="0 0 12 12" fill="none" xmlns="http://www.w3.org/2000/svg">
<path fill-rule="evenodd" clip-rule="evenodd" d="M8.5 3.28119L6.83296 4.62596C6.82411 4.6331 6.81514 4.64009 6.80605 4.64692C6.6399 4.77184 6.45684 4.85936 6.27398 4.91571C6.09053 4.97224 5.90028 4.99965 5.71274 5.00013L5.7102 5.00013H3.5V7.00019H5.70673C5.89729 7.0006 6.09072 7.02881 6.277 7.08717C6.46264 7.14532 6.64854 7.23582 6.81642 7.36527L6.83279 7.37816L8.5 8.71999V3.28119ZM3.20002 7.00019C3.19964 7.00018 3.20009 7.00019 3.20002 7.00019ZM3.2 5.00013C3.20007 5.00013 3.1996 5.00014 3.2 5.00013ZM9.3624 1.08514C9.81562 1.22479 10.5 1.66519 10.5 2.52161V9.47871C10.5 10.341 9.80784 10.7806 9.35297 10.918C8.86568 11.0653 8.21643 11.0369 7.69202 10.6366C7.68522 10.6314 7.67848 10.6261 7.67181 10.6207L5.65829 9.00019H3.2C2.8133 9.00019 2.42411 8.88491 2.1085 8.65028C1.79292 8.41568 1.5 8.01268 1.5 7.47968V4.52014C1.5 3.98683 1.79348 3.584 2.10875 3.34979C2.42424 3.1154 2.8133 3.00013 3.2 3.00013H5.66299L7.67724 1.37528C7.68744 1.36706 7.69779 1.35903 7.7083 1.35122C8.23304 0.96093 8.8771 0.935594 9.3624 1.08514Z" fill="#402E25"/>
</svg>
