<svg width="22" height="19" viewBox="0 0 22 19" fill="none" xmlns="http://www.w3.org/2000/svg">
<g filter="url(#filter0_ii_157:5453)">
<circle cx="6.74635" cy="7.80641" r="6.5" transform="rotate(-30 6.74635 7.80641)" fill="url(#paint0_linear_157:5453)"/>
</g>
<mask id="mask0_157:5453" style="mask-type:alpha" maskUnits="userSpaceOnUse" x="0" y="1" width="14" height="14">
<circle cx="6.74635" cy="7.80641" r="6.5" transform="rotate(-30 6.74635 7.80641)" fill="url(#paint1_linear_157:5453)"/>
</mask>
<g mask="url(#mask0_157:5453)">
<path fill-rule="evenodd" clip-rule="evenodd" d="M1.39387 3.96464C1.92409 3.22517 2.6163 2.58489 3.45226 2.10226C4.28821 1.61962 5.18881 1.34028 6.09432 1.25084L6.3129 3.46375C5.71593 3.52272 5.12073 3.70665 4.5641 4.02802C4.00747 4.34939 3.55058 4.77289 3.20102 5.2604L1.39387 3.96464ZM10.5859 2.45434C11.3253 2.98456 11.9656 3.67677 12.4483 4.51273C12.9309 5.34868 13.2102 6.24928 13.2997 7.15479L11.0868 7.37337C11.0278 6.7764 10.8439 6.1812 10.5225 5.62457C10.2011 5.06794 9.77762 4.61104 9.29011 4.26149L10.5859 2.45434ZM1.04179 11.0983C0.559149 10.2623 0.27981 9.3617 0.190368 8.45619L2.40328 8.23761C2.46225 8.83458 2.64618 9.42978 2.96755 9.98641C3.28892 10.543 3.71242 10.9999 4.19993 11.3495L2.90417 13.1566C2.1647 12.6264 1.52443 11.9342 1.04179 11.0983ZM10.0378 13.5087C9.20183 13.9914 8.30123 14.2707 7.39572 14.3601L7.17714 12.1472C7.77411 12.0883 8.36931 11.9043 8.92594 11.583C9.48257 11.2616 9.93947 10.8381 10.289 10.3506L12.0962 11.6463C11.566 12.3858 10.8737 13.0261 10.0378 13.5087Z" fill="url(#paint2_linear_157:5453)"/>
</g>
<circle cx="6.74807" cy="7.80558" r="4.44737" transform="rotate(-30 6.74807 7.80558)" fill="url(#paint3_linear_157:5453)"/>
<path fill-rule="evenodd" clip-rule="evenodd" d="M4.01387 4.40627C4.18572 4.26842 4.37011 4.14195 4.56653 4.02855C4.76294 3.91515 4.96467 3.8187 5.16997 3.7388C5.30203 3.6874 5.45075 3.75279 5.50214 3.88485C5.55354 4.0169 5.48815 4.16562 5.35609 4.21701C5.17501 4.28749 4.99685 4.37265 4.82311 4.47296C4.64936 4.57327 4.48653 4.68498 4.33496 4.80656C4.22442 4.89523 4.06294 4.8775 3.97427 4.76696C3.8856 4.65642 3.90333 4.49494 4.01387 4.40627ZM6.93543 3.69656C6.95084 3.55569 7.07752 3.45399 7.21838 3.46939C7.66315 3.51803 8.09842 3.63466 8.50792 3.81492C8.63762 3.87201 8.69647 4.02343 8.63938 4.15313C8.58229 4.28282 8.43087 4.34168 8.30118 4.28459C7.93964 4.12544 7.55527 4.02245 7.1626 3.97951C7.02173 3.9641 6.92003 3.83742 6.93543 3.69656ZM3.09456 5.91408C3.22426 5.97118 3.28311 6.1226 3.22602 6.25229C3.06688 6.61383 2.96389 6.9982 2.92094 7.39087C2.90554 7.53174 2.77885 7.63344 2.63799 7.61804C2.49712 7.60263 2.39542 7.47595 2.41082 7.33508C2.45947 6.89032 2.5761 6.45504 2.75636 6.04555C2.81345 5.91585 2.96487 5.85699 3.09456 5.91408ZM9.78651 5.03284C9.89704 4.94417 10.0585 4.9619 10.1472 5.07244C10.285 5.24429 10.4115 5.42868 10.5249 5.6251C10.6383 5.82151 10.7348 6.02323 10.8147 6.22854C10.8661 6.3606 10.8007 6.50931 10.6686 6.56071C10.5366 6.6121 10.3879 6.54671 10.3365 6.41466C10.266 6.23358 10.1808 6.05542 10.0805 5.88168C9.9802 5.70793 9.86849 5.5451 9.7469 5.39353C9.65824 5.28299 9.67597 5.1215 9.78651 5.03284ZM2.82628 9.05133C2.95833 8.99993 3.10705 9.06532 3.15845 9.19738C3.22892 9.37846 3.31408 9.55662 3.41439 9.73036C3.5147 9.9041 3.62641 10.0669 3.748 10.2185C3.83666 10.329 3.81893 10.4905 3.70839 10.5792C3.59786 10.6679 3.43637 10.6501 3.3477 10.5396C3.20986 10.3677 3.08338 10.1834 2.96998 9.98694C2.85658 9.79052 2.76013 9.5888 2.68023 9.3835C2.62883 9.25144 2.69422 9.10272 2.82628 9.05133ZM10.8569 7.994C10.9978 8.0094 11.0995 8.13609 11.0841 8.27695C11.0354 8.72172 10.9188 9.15699 10.7385 9.56649C10.6815 9.69618 10.53 9.75504 10.4003 9.69795C10.2706 9.64086 10.2118 9.48944 10.2689 9.35975C10.428 8.9982 10.531 8.61384 10.574 8.22116C10.5894 8.0803 10.716 7.97859 10.8569 7.994ZM4.85552 11.4589C4.91261 11.3292 5.06403 11.2704 5.19372 11.3274C5.55526 11.4866 5.93963 11.5896 6.33231 11.6325C6.47317 11.6479 6.57487 11.7746 6.55947 11.9155C6.54406 12.0563 6.41738 12.158 6.27652 12.1426C5.83175 12.094 5.39648 11.9774 4.98698 11.7971C4.85728 11.74 4.79843 11.5886 4.85552 11.4589ZM9.52063 10.8451C9.6093 10.9556 9.59157 11.1171 9.48103 11.2058C9.30918 11.3436 9.12479 11.4701 8.92837 11.5835C8.73196 11.6969 8.53023 11.7933 8.32493 11.8732C8.19287 11.9246 8.04416 11.8592 7.99276 11.7272C7.94137 11.5951 8.00675 11.4464 8.13881 11.395C8.31989 11.3245 8.49805 11.2394 8.67179 11.1391C8.84554 11.0388 9.00837 10.9271 9.15994 10.8055C9.27048 10.7168 9.43196 10.7345 9.52063 10.8451Z" fill="url(#paint4_linear_157:5453)"/>
<circle cx="6.74825" cy="7.80672" r="3.93421" transform="rotate(-30 6.74825 7.80672)" fill="url(#paint5_linear_157:5453)"/>
<g filter="url(#filter1_ii_157:5453)">
<circle cx="15.0483" cy="10.8256" r="6.5" transform="rotate(15 15.0483 10.8256)" fill="url(#paint6_linear_157:5453)"/>
</g>
<mask id="mask1_157:5453" style="mask-type:alpha" maskUnits="userSpaceOnUse" x="8" y="4" width="14" height="14">
<circle cx="15.0483" cy="10.8256" r="6.5" transform="rotate(15 15.0483 10.8256)" fill="url(#paint7_linear_157:5453)"/>
</mask>
<g mask="url(#mask1_157:5453)">
<g filter="url(#filter2_ii_157:5453)">
<path fill-rule="evenodd" clip-rule="evenodd" d="M13.9813 4.32466C14.8791 4.17669 15.8213 4.21342 16.7537 4.46325C17.6861 4.71308 18.5204 5.15238 19.224 5.72943L17.8138 7.44875C17.3499 7.06833 16.799 6.77752 16.1782 6.61116C15.5573 6.44481 14.9348 6.42119 14.3429 6.51874L13.9813 4.32466ZM21.549 9.75644C21.6969 10.6542 21.6602 11.5965 21.4104 12.5288C21.1605 13.4612 20.7213 14.2956 20.1442 14.9991L18.4249 13.5889C18.8053 13.1251 19.0961 12.5741 19.2625 11.9533C19.4288 11.3325 19.4524 10.7099 19.3549 10.118L21.549 9.75644ZM8.68812 9.11992C8.93795 8.18753 9.37725 7.35319 9.9543 6.64965L11.6736 8.05986C11.2932 8.52368 11.0024 9.07461 10.836 9.69545C10.6697 10.3163 10.6461 10.9388 10.7436 11.5307L8.54953 11.8923C8.40156 10.9945 8.43829 10.0523 8.68812 9.11992ZM13.3448 17.1855C12.4124 16.9357 11.5781 16.4964 10.8745 15.9193L12.2847 14.2C12.7485 14.5804 13.2995 14.8712 13.9203 15.0376C14.5412 15.2039 15.1637 15.2276 15.7556 15.13L16.1172 17.3241C15.2194 17.4721 14.2772 17.4353 13.3448 17.1855Z" fill="url(#paint8_linear_157:5453)"/>
</g>
</g>
<circle cx="15.05" cy="10.8243" r="4.44737" transform="rotate(15 15.05 10.8243)" fill="url(#paint9_linear_157:5453)"/>
<path fill-rule="evenodd" clip-rule="evenodd" d="M15.5202 6.48716C15.7392 6.51121 15.959 6.55216 16.1781 6.61086C16.3971 6.66956 16.608 6.744 16.8096 6.83267C16.9394 6.88971 16.9983 7.0411 16.9413 7.17082C16.8842 7.30054 16.7328 7.35946 16.6031 7.30243C16.4252 7.22422 16.239 7.15846 16.0452 7.10653C15.8515 7.05461 15.6573 7.01846 15.4642 6.99725C15.3233 6.98179 15.2217 6.85506 15.2371 6.71421C15.2526 6.57335 15.3793 6.4717 15.5202 6.48716ZM18.0879 8.05117C18.1984 7.96246 18.3599 7.98012 18.4486 8.09062C18.7287 8.43951 18.954 8.82977 19.1161 9.24679C19.1674 9.37887 19.102 9.52756 18.9699 9.57889C18.8378 9.63023 18.6891 9.56478 18.6378 9.4327C18.4947 9.06452 18.2957 8.71991 18.0484 8.41188C17.9597 8.30138 17.9774 8.13989 18.0879 8.05117ZM13.8039 6.9033C13.8553 7.03537 13.7898 7.18406 13.6578 7.2354C13.2896 7.37852 12.945 7.57748 12.6369 7.82478C12.5264 7.91349 12.3649 7.89583 12.2762 7.78533C12.1875 7.67483 12.2052 7.51333 12.3157 7.42462C12.6646 7.14452 13.0548 6.9192 13.4718 6.75711C13.6039 6.70577 13.7526 6.77122 13.8039 6.9033ZM19.159 11.0121C19.2999 11.0275 19.4015 11.1543 19.386 11.2951C19.362 11.5141 19.321 11.7339 19.2623 11.953C19.2036 12.1721 19.1292 12.3829 19.0405 12.5846C18.9835 12.7143 18.8321 12.7732 18.7024 12.7162C18.5727 12.6592 18.5137 12.5078 18.5708 12.378C18.649 12.2002 18.7148 12.014 18.7667 11.8202C18.8186 11.6264 18.8547 11.4323 18.876 11.2391C18.8914 11.0983 19.0181 10.9966 19.159 11.0121ZM11.3959 8.93196C11.5256 8.98899 11.5845 9.14039 11.5275 9.27011C11.4493 9.44798 11.3835 9.63418 11.3316 9.82796C11.2797 10.0218 11.2435 10.2159 11.2223 10.409C11.2068 10.5499 11.0801 10.6515 10.9393 10.6361C10.7984 10.6206 10.6968 10.4939 10.7122 10.353C10.7363 10.134 10.7772 9.91422 10.8359 9.69515C10.8946 9.47608 10.9691 9.26524 11.0577 9.06356C11.1148 8.93384 11.2662 8.87492 11.3959 8.93196ZM17.822 13.8628C17.9108 13.9733 17.8931 14.1348 17.7826 14.2235C17.4337 14.5036 17.0434 14.729 16.6264 14.891C16.4943 14.9424 16.3457 14.8769 16.2943 14.7449C16.243 14.6128 16.3084 14.4641 16.4405 14.4128C16.8087 14.2696 17.1533 14.0707 17.4613 13.8234C17.5718 13.7347 17.7333 13.7523 17.822 13.8628ZM11.1284 12.0693C11.2604 12.0179 11.4091 12.0834 11.4605 12.2155C11.6036 12.5836 11.8025 12.9282 12.0498 13.2363C12.1385 13.3468 12.1209 13.5083 12.0104 13.597C11.8999 13.6857 11.7384 13.668 11.6497 13.5575C11.3696 13.2086 11.1443 12.8184 10.9822 12.4014C10.9308 12.2693 10.9963 12.1206 11.1284 12.0693ZM14.8611 14.9339C14.8457 15.0748 14.7189 15.1765 14.5781 15.161C14.3591 15.1369 14.1393 15.096 13.9202 15.0373C13.7011 14.9786 13.4903 14.9042 13.2886 14.8155C13.1589 14.7584 13.1 14.6071 13.157 14.4773C13.214 14.3476 13.3654 14.2887 13.4952 14.3457C13.673 14.4239 13.8592 14.4897 14.053 14.5416C14.2468 14.5935 14.4409 14.6297 14.6341 14.6509C14.7749 14.6664 14.8766 14.7931 14.8611 14.9339Z" fill="url(#paint10_linear_157:5453)"/>
<circle cx="15.0475" cy="10.8248" r="3.93421" transform="rotate(15 15.0475 10.8248)" fill="url(#paint11_linear_157:5453)"/>
<defs>
<filter id="filter0_ii_157:5453" x="0.245117" y="-0.694824" width="13.002" height="17.0024" filterUnits="userSpaceOnUse" color-interpolation-filters="sRGB">
<feFlood flood-opacity="0" result="BackgroundImageFix"/>
<feBlend mode="normal" in="SourceGraphic" in2="BackgroundImageFix" result="shape"/>
<feColorMatrix in="SourceAlpha" type="matrix" values="0 0 0 0 0 0 0 0 0 0 0 0 0 0 0 0 0 0 127 0" result="hardAlpha"/>
<feOffset dy="-2"/>
<feGaussianBlur stdDeviation="1.5"/>
<feComposite in2="hardAlpha" operator="arithmetic" k2="-1" k3="1"/>
<feColorMatrix type="matrix" values="0 0 0 0 0 0 0 0 0 0 0 0 0 0 0 0 0 0 0.5 0"/>
<feBlend mode="normal" in2="shape" result="effect1_innerShadow_157:5453"/>
<feColorMatrix in="SourceAlpha" type="matrix" values="0 0 0 0 0 0 0 0 0 0 0 0 0 0 0 0 0 0 127 0" result="hardAlpha"/>
<feOffset dy="2"/>
<feGaussianBlur stdDeviation="1.5"/>
<feComposite in2="hardAlpha" operator="arithmetic" k2="-1" k3="1"/>
<feColorMatrix type="matrix" values="0 0 0 0 0.945833 0 0 0 0 0.264045 0 0 0 0 0.298349 0 0 0 1 0"/>
<feBlend mode="normal" in2="effect1_innerShadow_157:5453" result="effect2_innerShadow_157:5453"/>
</filter>
<filter id="filter1_ii_157:5453" x="8.54688" y="2.32373" width="13.0029" height="17.0034" filterUnits="userSpaceOnUse" color-interpolation-filters="sRGB">
<feFlood flood-opacity="0" result="BackgroundImageFix"/>
<feBlend mode="normal" in="SourceGraphic" in2="BackgroundImageFix" result="shape"/>
<feColorMatrix in="SourceAlpha" type="matrix" values="0 0 0 0 0 0 0 0 0 0 0 0 0 0 0 0 0 0 127 0" result="hardAlpha"/>
<feOffset dy="-2"/>
<feGaussianBlur stdDeviation="1.5"/>
<feComposite in2="hardAlpha" operator="arithmetic" k2="-1" k3="1"/>
<feColorMatrix type="matrix" values="0 0 0 0 0 0 0 0 0 0 0 0 0 0 0 0 0 0 0.5 0"/>
<feBlend mode="normal" in2="shape" result="effect1_innerShadow_157:5453"/>
<feColorMatrix in="SourceAlpha" type="matrix" values="0 0 0 0 0 0 0 0 0 0 0 0 0 0 0 0 0 0 127 0" result="hardAlpha"/>
<feOffset dy="2"/>
<feGaussianBlur stdDeviation="1.5"/>
<feComposite in2="hardAlpha" operator="arithmetic" k2="-1" k3="1"/>
<feColorMatrix type="matrix" values="0 0 0 0 0.945833 0 0 0 0 0.264045 0 0 0 0 0.298349 0 0 0 1 0"/>
<feBlend mode="normal" in2="effect1_innerShadow_157:5453" result="effect2_innerShadow_157:5453"/>
</filter>
<filter id="filter2_ii_157:5453" x="8.46191" y="3.2373" width="13.1738" height="16.1738" filterUnits="userSpaceOnUse" color-interpolation-filters="sRGB">
<feFlood flood-opacity="0" result="BackgroundImageFix"/>
<feBlend mode="normal" in="SourceGraphic" in2="BackgroundImageFix" result="shape"/>
<feColorMatrix in="SourceAlpha" type="matrix" values="0 0 0 0 0 0 0 0 0 0 0 0 0 0 0 0 0 0 127 0" result="hardAlpha"/>
<feOffset dy="-1"/>
<feGaussianBlur stdDeviation="1.5"/>
<feComposite in2="hardAlpha" operator="arithmetic" k2="-1" k3="1"/>
<feColorMatrix type="matrix" values="0 0 0 0 0 0 0 0 0 0 0 0 0 0 0 0 0 0 0.25 0"/>
<feBlend mode="normal" in2="shape" result="effect1_innerShadow_157:5453"/>
<feColorMatrix in="SourceAlpha" type="matrix" values="0 0 0 0 0 0 0 0 0 0 0 0 0 0 0 0 0 0 127 0" result="hardAlpha"/>
<feOffset dy="2"/>
<feGaussianBlur stdDeviation="1.5"/>
<feComposite in2="hardAlpha" operator="arithmetic" k2="-1" k3="1"/>
<feColorMatrix type="matrix" values="0 0 0 0 1 0 0 0 0 1 0 0 0 0 1 0 0 0 1 0"/>
<feBlend mode="normal" in2="effect1_innerShadow_157:5453" result="effect2_innerShadow_157:5453"/>
</filter>
<linearGradient id="paint0_linear_157:5453" x1="6.74635" y1="1.30641" x2="6.74635" y2="14.3064" gradientUnits="userSpaceOnUse">
<stop stop-color="#8F000E"/>
<stop offset="1" stop-color="#C5252D"/>
</linearGradient>
<linearGradient id="paint1_linear_157:5453" x1="6.74635" y1="1.30641" x2="6.74635" y2="14.3064" gradientUnits="userSpaceOnUse">
<stop stop-color="#8F000E"/>
<stop offset="1" stop-color="#C5252D"/>
</linearGradient>
<linearGradient id="paint2_linear_157:5453" x1="4.00818" y1="3.06514" x2="9.48186" y2="12.5458" gradientUnits="userSpaceOnUse">
<stop stop-color="#F2F2F2"/>
<stop offset="1" stop-color="#E2E2E2"/>
</linearGradient>
<linearGradient id="paint3_linear_157:5453" x1="6.74807" y1="3.35822" x2="6.74807" y2="12.253" gradientUnits="userSpaceOnUse">
<stop stop-color="#600009"/>
<stop offset="1" stop-color="#AB0E16"/>
</linearGradient>
<linearGradient id="paint4_linear_157:5453" x1="4.69482" y1="4.25076" x2="8.80008" y2="11.3613" gradientUnits="userSpaceOnUse">
<stop stop-color="#C2C2C2"/>
<stop offset="1" stop-color="#F2F2F2"/>
</linearGradient>
<linearGradient id="paint5_linear_157:5453" x1="6.74825" y1="3.87251" x2="6.74825" y2="11.7409" gradientUnits="userSpaceOnUse">
<stop stop-color="#8F000E"/>
<stop offset="1" stop-color="#C5252D"/>
</linearGradient>
<linearGradient id="paint6_linear_157:5453" x1="15.0483" y1="4.32559" x2="15.0483" y2="17.3256" gradientUnits="userSpaceOnUse">
<stop stop-color="#8F000E"/>
<stop offset="1" stop-color="#C5252D"/>
</linearGradient>
<linearGradient id="paint7_linear_157:5453" x1="15.0483" y1="4.32559" x2="15.0483" y2="17.3256" gradientUnits="userSpaceOnUse">
<stop stop-color="#8F000E"/>
<stop offset="1" stop-color="#C5252D"/>
</linearGradient>
<linearGradient id="paint8_linear_157:5453" x1="16.4659" y1="5.53721" x2="13.6326" y2="16.1116" gradientUnits="userSpaceOnUse">
<stop stop-color="#F2F2F2"/>
<stop offset="1" stop-color="#E2E2E2"/>
</linearGradient>
<linearGradient id="paint9_linear_157:5453" x1="15.05" y1="6.37696" x2="15.05" y2="15.2717" gradientUnits="userSpaceOnUse">
<stop stop-color="#600009"/>
<stop offset="1" stop-color="#AB0E16"/>
</linearGradient>
<linearGradient id="paint10_linear_157:5453" x1="16.1117" y1="6.8587" x2="13.9866" y2="14.7895" gradientUnits="userSpaceOnUse">
<stop stop-color="#C2C2C2"/>
<stop offset="1" stop-color="#F2F2F2"/>
</linearGradient>
<linearGradient id="paint11_linear_157:5453" x1="15.0475" y1="6.89054" x2="15.0475" y2="14.759" gradientUnits="userSpaceOnUse">
<stop stop-color="#8F000E"/>
<stop offset="1" stop-color="#C5252D"/>
</linearGradient>
</defs>
</svg>
