<svg width="13" height="15" viewBox="0 0 13 15" fill="none" xmlns="http://www.w3.org/2000/svg">
<path fill-rule="evenodd" clip-rule="evenodd" d="M2.72345 12.0739V14H5.44145V12.0739H8.21345V10.328H5.44145V8.92395H6.61145C7.85945 8.92395 8.84345 8.73795 9.56345 8.36595C10.2954 7.99395 10.8174 7.50195 11.1294 6.88995C11.4414 6.27795 11.5974 5.62395 11.5974 4.92795C11.5974 3.75195 11.2134 2.82795 10.4454 2.15595C9.68945 1.48395 8.48345 1.14795 6.82745 1.14795H2.72345V6.69195H1.28345V8.92395H2.72345V10.328H1.28345V12.0739H2.72345ZM6.41924 6.69149C6.39349 6.6918 6.36756 6.69195 6.34145 6.69195H5.44145V3.37995H6.68345C8.12345 3.37995 8.84345 3.92595 8.84345 5.01795C8.84345 5.60595 8.61545 6.03195 8.15945 6.29595C7.73525 6.54818 7.16318 6.67991 6.44323 6.69116L6.44145 6.69119C6.43406 6.6913 6.42665 6.6914 6.41924 6.69149C6.42725 6.6914 6.43525 6.69129 6.44323 6.69116C7.16318 6.67991 7.73525 6.54818 8.15945 6.29595C8.61545 6.03195 8.84345 5.60595 8.84345 5.01795C8.84345 3.92595 8.12345 3.37995 6.68345 3.37995H5.44145V6.69195H6.34145C6.36756 6.69195 6.39349 6.6918 6.41924 6.69149C6.42665 6.6914 6.43406 6.6913 6.44145 6.69119L6.44323 6.69116C6.43525 6.69129 6.42725 6.6914 6.41924 6.69149ZM7.65841 5.43052C7.76469 5.36899 7.84345 5.29904 7.84345 5.01795C7.84345 4.71182 7.75696 4.63005 7.69921 4.58625C7.58925 4.50286 7.30554 4.37995 6.68345 4.37995H6.44145V5.69105C7.05184 5.67994 7.42837 5.56723 7.64837 5.43641L7.65841 5.43052Z" fill="white"/>
<path fill-rule="evenodd" clip-rule="evenodd" d="M7.84345 5.01795C7.84345 5.29904 7.76469 5.36899 7.65841 5.43052L7.64837 5.43641C7.42837 5.56723 7.05184 5.67994 6.44145 5.69105V4.37995H6.68345C7.30554 4.37995 7.58925 4.50286 7.69921 4.58625C7.75696 4.63005 7.84345 4.71182 7.84345 5.01795ZM6.41924 6.69149L6.44145 6.69119L6.44323 6.69116C7.16318 6.67991 7.73525 6.54818 8.15945 6.29595C8.61545 6.03195 8.84345 5.60595 8.84345 5.01795C8.84345 3.92595 8.12345 3.37995 6.68345 3.37995H5.44145V6.69195H6.34145C6.36756 6.69195 6.39349 6.6918 6.41924 6.69149Z" fill="white"/>
<path d="M2.72345 14V12.0739H1.28345V10.328H2.72345V8.92395H1.28345V6.69195H2.72345V1.14795H6.82745C8.48345 1.14795 9.68945 1.48395 10.4454 2.15595C11.2134 2.82795 11.5974 3.75195 11.5974 4.92795C11.5974 5.62395 11.4414 6.27795 11.1294 6.88995L12.0204 7.34414C12.405 6.58956 12.5974 5.77967 12.5974 4.92795C12.5974 3.51363 12.124 2.29747 11.1069 1.40595C10.0821 0.496925 8.58048 0.147949 6.82745 0.147949H1.72345V5.69195H0.283447V13.0739H1.72345V15H6.44145V13.0739H9.21345V9.58337C9.49932 9.49391 9.76851 9.38534 10.0194 9.25596C10.9008 8.80745 11.5952 8.17815 12.0204 7.34414L11.1294 6.88995C10.8174 7.50195 10.2954 7.99395 9.56345 8.36595C8.84345 8.73795 7.85945 8.92395 6.61145 8.92395H5.44145V10.328H8.21345V12.0739H5.44145V14H2.72345Z" fill="white"/>
<path fill-rule="evenodd" clip-rule="evenodd" d="M7.84345 5.01795C7.84345 5.29904 7.76469 5.36899 7.65841 5.43052L7.64837 5.43641C7.42837 5.56723 7.05184 5.67994 6.44145 5.69105V4.37995H6.68345C7.30554 4.37995 7.58925 4.50286 7.69921 4.58625C7.75696 4.63005 7.84345 4.71182 7.84345 5.01795ZM6.41924 6.69149L6.44145 6.69119L6.44323 6.69116C7.16318 6.67991 7.73525 6.54818 8.15945 6.29595C8.61545 6.03195 8.84345 5.60595 8.84345 5.01795C8.84345 3.92595 8.12345 3.37995 6.68345 3.37995H5.44145V6.69195H6.34145C6.36756 6.69195 6.39349 6.6918 6.41924 6.69149Z" fill="#A3700E"/>
<path d="M2.72345 14V12.0739H1.28345V10.328H2.72345V8.92395H1.28345V6.69195H2.72345V1.14795H6.82745C8.48345 1.14795 9.68945 1.48395 10.4454 2.15595C11.2134 2.82795 11.5974 3.75195 11.5974 4.92795C11.5974 5.62395 11.4414 6.27795 11.1294 6.88995L12.0204 7.34414C12.405 6.58956 12.5974 5.77967 12.5974 4.92795C12.5974 3.51363 12.124 2.29747 11.1069 1.40595C10.0821 0.496925 8.58048 0.147949 6.82745 0.147949H1.72345V5.69195H0.283447V13.0739H1.72345V15H6.44145V13.0739H9.21345V9.58337C9.49932 9.49391 9.76851 9.38534 10.0194 9.25596C10.9008 8.80745 11.5952 8.17815 12.0204 7.34414L11.1294 6.88995C10.8174 7.50195 10.2954 7.99395 9.56345 8.36595C8.84345 8.73795 7.85945 8.92395 6.61145 8.92395H5.44145V10.328H8.21345V12.0739H5.44145V14H2.72345Z" fill="#A3700E"/>
</svg>
