<svg width="257" height="70" viewBox="0 0 257 70" fill="none" xmlns="http://www.w3.org/2000/svg">
<path d="M32.1186 9.0677C31.7509 20.5649 31.7622 32.9406 32.1186 44.5089C32.4343 32.9445 32.4447 20.5654 32.1186 9.0677ZM64.1332 38.4012C64.1257 37.0128 63.9417 35.6555 63.267 34.4138C62.4736 32.9534 61.3707 32.0497 59.6261 32.1661C58.5925 32.2346 58.5406 32.2282 58.5394 33.3274V46.748C58.5339 47.3927 58.5706 48.0372 58.649 48.6769C58.9058 50.673 59.5579 52.5935 60.5649 54.3194C61.5736 56.0479 62.915 57.5455 64.5066 58.7201C66.1012 59.8968 67.912 60.7261 69.8283 61.1574C71.7461 61.5891 73.7292 61.6143 75.6568 61.2314C78.9181 60.5796 81.8617 58.79 83.9918 56.164C86.1162 53.545 87.2933 50.2484 87.3225 46.8357C87.3362 44.6419 87.3225 42.4482 87.3225 40.2544V39.1573V33.0925C87.3225 32.6963 87.3225 32.2667 86.8124 32.2034C85.2804 32.0164 83.9295 32.3223 82.9928 33.7275C82.215 34.8871 81.8027 36.2653 81.8118 37.6747C81.8006 40.5137 81.8118 43.3527 81.8043 46.1917C81.8139 47.0098 81.7383 47.8266 81.5788 48.6281C80.6096 53.2116 76.5217 56.2324 71.9402 55.7588C67.5336 55.3018 64.1784 51.4551 64.1494 46.7878C64.1269 43.9928 64.1506 41.1966 64.1332 38.4012ZM0.00304628 60.4959C0.00304628 61.3478 0.122682 61.4573 0.95847 61.4483C2.14415 61.4442 3.28203 60.9664 4.13255 60.1155C5.23669 59.0492 5.59186 57.7035 5.59061 56.2055V34.2876C5.59061 33.8152 5.58147 33.342 5.59061 32.8683C5.59892 32.3946 5.36505 32.1794 4.89814 32.1687C4.08603 32.1494 3.30923 32.2757 2.59141 32.6847C0.852127 33.6723 0.0117697 35.2114 0.00553869 37.2258C-0.00692336 41.0725 0.00553869 44.9192 0.00553869 48.7646C0.00304628 52.6763 0.00221548 56.5867 0.00304628 60.4959ZM19.7301 69.911L19.755 70C19.863 69.9457 19.9751 69.8977 20.0811 69.8374C22.2918 68.5829 24.6413 67.6603 27.0349 66.8589C30.0839 65.8384 33.1787 65.7259 36.2705 66.6009C38.9408 67.3556 41.5229 68.4093 43.9704 69.7433C44.1229 69.8259 44.2512 69.991 44.4739 69.9431C44.4523 69.9008 44.4252 69.8618 44.3933 69.8271C40.5425 66.7815 36.6917 63.7354 32.841 60.6884C32.2984 60.2571 31.8602 60.3012 31.3301 60.7256C27.4669 63.7978 23.5999 66.8593 19.7301 69.911ZM17.4424 26.305C17.1907 26.6379 17.3087 26.8869 17.5534 27.1518C18.4797 28.1633 19.0376 29.3827 19.4214 30.6951C19.895 32.312 20.0761 33.9752 20.1504 35.6555C20.2651 38.2361 20.2294 40.8171 20.1833 43.3981C20.1209 46.8391 20.1039 50.2801 20.1317 53.7212C20.1629 57.5178 19.6532 61.2147 18.476 64.8188C18.0165 66.2239 17.5579 67.6295 16.9136 69.1186C17.0175 69.0839 17.1184 69.0407 17.2156 68.9893C20.5762 66.2047 23.9223 63.3995 27.4237 60.8005C27.8744 60.4663 27.8782 60.0457 27.6036 59.6144C27.3275 59.1827 27.0274 58.7678 26.7046 58.3718C25.7717 57.2273 25.4028 55.8905 25.3803 54.4285C25.3513 52.5145 25.3147 50.6011 25.2923 48.6884C25.2117 41.6352 25.2632 34.5832 25.1801 27.5257C25.0742 18.4734 25.0729 9.41985 25.0264 0.36798V0.00470671H24.9006C24.5142 3.5985 24.1196 7.1833 23.4516 10.7317C22.4052 16.3066 20.8388 21.6787 17.4424 26.3046V26.305ZM167.363 34.9666C166.56 32.9676 165.329 32.1272 163.237 32.1802C162.507 32.1974 162.388 32.2949 162.388 33.0433C162.388 37.8826 162.312 42.7216 162.426 47.5592C162.521 51.6087 164.226 55.0232 167.122 57.7163C170.513 60.8677 174.579 61.9502 179.095 61.296C185.411 60.3812 190.739 54.3934 191.089 47.8754C191.215 45.4883 191.113 43.1011 191.166 41.1564V33.4262C191.17 33.1901 191.158 32.9539 191.13 32.7194C191.12 32.5779 191.06 32.4452 190.961 32.347C190.861 32.2489 190.73 32.1925 190.592 32.1888C188.956 31.9963 187.61 32.4558 186.679 33.932C185.96 35.0779 185.581 36.4157 185.591 37.7804C185.577 40.7918 185.61 43.8024 185.576 46.813C185.499 53.3686 178.992 57.7069 173.183 55.0292C169.725 53.4341 168.021 50.5476 167.929 46.697C167.862 43.858 167.908 41.019 167.916 38.1805C167.942 37.0816 167.753 35.9886 167.363 34.9658V34.9666ZM249.303 61.1437C249.099 61.5579 248.942 61.9977 248.699 62.5826C251.073 61.9605 253.357 61.5912 255.309 60.2028C256.028 59.6867 256.484 58.9901 256.568 58.0633C256.627 57.3796 256.719 56.6984 256.782 56.0142C257.075 52.8192 257.014 49.6178 256.934 46.4146C256.823 41.9253 255.046 38.2737 251.702 35.4206C249.281 33.3556 246.529 32.2123 243.3 32.4318C241.127 32.579 239.028 33.0553 236.943 33.6436C233.798 34.5394 230.501 34.7155 227.283 34.1596C225.292 33.8229 223.387 33.1156 221.399 32.766C218.34 32.2282 215.348 32.1533 212.537 33.8272C208.257 36.3782 205.549 40.061 205.109 45.1823C204.768 49.21 204.931 53.2527 205.235 57.2906C205.381 59.1746 206.305 60.2896 207.913 60.9682C208.146 61.0662 208.376 61.1693 208.611 61.2635C209.87 61.7632 211.175 62.0739 212.481 62.394C212.677 62.4432 212.933 62.5891 213.072 62.4068C213.212 62.2249 213.012 62.0033 212.931 61.8146C212.123 59.9242 211.281 58.0518 210.999 55.9731C210.836 54.7806 210.697 53.5855 210.637 52.3845C210.528 50.1492 210.393 47.8977 210.644 45.683C211.18 40.9489 214.9 37.7342 219.559 37.7859C223.346 37.8287 226.05 39.8813 227.186 43.5786C227.28 43.8867 227.368 44.1965 227.445 44.5089C228.562 49.0538 229.678 53.5992 230.793 58.1446C230.829 58.2918 230.893 58.4313 230.981 58.6739C231.041 58.4685 231.067 58.3885 231.087 58.306C232.095 54.1769 233.105 50.0474 234.119 45.9179C234.431 44.6471 234.738 43.3745 235.234 42.1589C235.693 41.0401 236.459 40.0833 237.437 39.4055C239.116 38.2027 240.975 37.7149 243.02 37.7821C247.324 37.9224 251.019 41.5616 251.315 45.9645C251.465 48.1814 251.349 50.3931 251.261 52.6023C251.145 55.5718 250.623 58.4583 249.303 61.1437ZM39.0745 16.4136C38.9673 24.5177 39.062 32.624 38.9361 40.7281C38.8705 44.941 38.8834 49.1569 38.8959 53.3742C38.9021 55.5123 38.4742 57.4686 36.9933 59.074C36.8558 59.2349 36.7316 59.4077 36.6219 59.59C36.2938 60.0906 36.3702 60.4856 36.8629 60.8506C40.2264 63.3503 43.4507 66.0344 46.6763 68.7146C46.825 68.8434 46.9546 69.0308 47.2479 68.9932C46.1729 66.5106 45.4426 63.9604 44.8257 61.367C44.5864 60.3654 44.3497 59.3603 44.2653 58.3291C44.0564 55.7986 44.1166 53.2591 44.0688 50.7234C43.9883 46.3826 44.0286 42.0391 44.0099 37.6901C43.9946 36.2068 44.0825 34.7242 44.2728 33.2538C44.5399 31.2783 44.9969 29.3631 46.1953 27.7281C46.9783 26.6584 46.99 26.6627 46.2244 25.5348C43.5666 21.6128 42.1214 17.1894 41.1291 12.5802C40.2368 8.42973 39.7507 4.22064 39.3387 0H39.1779C39.1247 5.47519 39.1463 10.944 39.0745 16.4136ZM114.786 61.3281C115.496 61.3409 115.893 60.928 116.193 60.3333C119.863 53.0815 123.535 45.8311 127.21 38.5822C127.465 38.1081 127.599 37.5753 127.601 37.0333C127.555 36.1677 127.148 35.3004 126.641 34.4758C125.831 33.161 124.824 32.0061 123.818 30.8512C123.683 30.6972 123.58 30.4135 123.359 30.464C123.137 30.5145 123.17 30.8149 123.132 31.0177C122.711 33.3248 122.242 35.6179 121.243 37.7526C119.316 41.8611 117.172 45.855 115.144 49.9104C115.062 50.0718 115.002 50.3259 114.774 50.2887C114.544 50.2515 114.494 49.9892 114.396 49.8035C112.472 45.9838 110.551 42.1619 108.631 38.3383C107.728 36.5398 107.056 34.6276 106.633 32.6501C106.498 32.0202 106.348 31.3942 106.202 30.7674C106.147 30.5312 106.06 30.3027 105.807 30.6022C104.465 32.1969 103.056 33.7454 102.267 35.7381C101.864 36.7565 101.942 37.732 102.444 38.7174C106.119 45.917 109.784 53.1227 113.436 60.3345C113.731 60.9139 114.105 61.3165 114.786 61.3281ZM142.243 59.7706C142.243 61.2365 142.433 61.3953 143.867 61.1244L143.929 61.1103C146.217 60.6418 147.748 58.727 147.75 56.2803C147.758 48.6733 147.758 41.0662 147.75 33.4592C147.75 31.8268 147.552 31.6629 145.957 31.9753C145.895 31.9868 145.831 32.0061 145.773 32.0215C143.695 32.5495 142.269 34.3676 142.248 36.6272C142.222 40.4983 142.242 44.3634 142.242 48.2306H142.236C142.236 52.0777 142.238 55.9243 142.243 59.7706Z" fill="#02221F"/>
</svg>
