<svg width="78" height="68" viewBox="0 0 78 68" fill="none" xmlns="http://www.w3.org/2000/svg">
<g clip-path="url(#clip0_119_1700)">
<path fill-rule="evenodd" clip-rule="evenodd" d="M54.0766 36.9777L77.0437 60.9168C77.3193 61.2003 77.5387 61.5373 77.6897 61.9092C77.8403 62.2809 77.9193 62.68 77.922 63.0836C77.9247 63.4872 77.8511 63.8874 77.7052 64.2614C77.5597 64.6354 77.3446 64.9757 77.0724 65.263L75.3875 67.0133C74.9138 67.5308 74.2881 67.8684 73.6097 67.9731C73.1613 68.0354 72.7055 67.9888 72.2776 67.8371C71.8495 67.6852 71.4612 67.4322 71.1428 67.098L43.0969 37.8651C42.6089 37.3575 42.2223 36.755 41.9583 36.0917C41.6942 35.4283 41.5585 34.7171 41.5585 33.9988C41.5585 33.2807 41.6942 32.5696 41.9583 31.9061C42.2223 31.2427 42.6089 30.6401 43.0969 30.1327L71.1428 0.899854C71.4159 0.614594 71.7404 0.388277 72.0977 0.23387C72.4549 0.0794621 72.8378 0 73.2244 0C73.6111 0 73.994 0.0794621 74.3512 0.23387C74.7085 0.388277 75.033 0.614594 75.3065 0.899854L77.0437 2.74086C77.3172 3.02566 77.5344 3.3639 77.6826 3.73626C77.8308 4.10859 77.9068 4.50772 77.9068 4.91082C77.9068 5.31393 77.8308 5.71305 77.6826 6.08542C77.5344 6.45776 77.3172 6.79602 77.0437 7.08084L54.0766 31.0261C53.3233 31.8175 52.9005 32.8871 52.9005 34.002C52.9005 35.1166 53.3233 36.1862 54.0766 36.9777ZM23.8446 31.0515L0.886293 7.10597C0.607711 6.8223 0.385918 6.48383 0.233783 6.11011C0.0816478 5.73641 0.00219906 5.33491 4.50056e-05 4.92891C-0.00210905 4.52295 0.0730799 4.12053 0.22124 3.74507C0.369403 3.36963 0.587597 3.02863 0.863149 2.7418L2.54189 0.985249C3.01995 0.471175 3.64604 0.134163 4.32485 0.0255149C4.77269 -0.034987 5.22792 0.012451 5.65544 0.164188C6.08295 0.315925 6.4714 0.567888 6.79086 0.900731L34.8258 30.134C35.3134 30.6414 35.7 31.244 35.9641 31.9074C36.2278 32.5708 36.3635 33.282 36.3635 34.0003C36.3635 34.7184 36.2278 35.4294 35.9641 36.093C35.7 36.7564 35.3134 37.3589 34.8258 37.8665L6.79086 67.0997C6.51722 67.3849 6.19236 67.6114 5.83477 67.7661C5.47719 67.9204 5.09394 68 4.70688 68C4.31985 68 3.93657 67.9204 3.57902 67.7661C3.22144 67.6114 2.89655 67.3849 2.62293 67.0997L0.886293 65.2888C0.612543 65.0036 0.395386 64.6646 0.247227 64.292C0.0990674 63.919 0.0228164 63.5195 0.0228164 63.1156C0.0228164 62.712 0.0990674 62.3125 0.247227 61.9395C0.395386 61.5669 0.612543 61.2279 0.886293 60.9426L23.8446 37.0032C24.5976 36.2117 25.0201 35.1421 25.0201 34.0272C25.0201 32.9125 24.5976 31.8429 23.8446 31.0515Z" fill="#02221F"/>
</g>
<defs>
<clipPath id="clip0_119_1700">
<rect width="78" height="68" fill="white"/>
</clipPath>
</defs>
</svg>
