<svg width="42" height="42" viewBox="0 0 42 42" fill="none" xmlns="http://www.w3.org/2000/svg">
<g clip-path="url(#clip0)">
<path d="M41.3848 19.8973C40.9223 19.7701 40.5299 20.0548 40.3721 20.4723C40.1011 21.1891 39.082 21.6178 38.3447 21.7139C37.2342 21.8588 36.1521 21.3725 35.171 20.9174C34.0072 20.3776 32.8076 19.8625 31.4992 19.8735C30.1826 19.8845 28.8974 20.4105 27.8251 21.15C26.6181 21.9822 25.6485 23.0683 24.6998 24.1737C24.4104 24.5109 24.3685 25.0067 24.6998 25.3381C24.9961 25.6344 25.5734 25.6769 25.8642 25.3381C27.3875 23.5629 29.3952 21.2212 32.0135 21.5435C33.2497 21.6956 34.357 22.3855 35.4916 22.846C36.6579 23.3194 37.9373 23.5431 39.1734 23.2183C40.3987 22.8962 41.5027 22.119 41.9597 20.9099C42.1171 20.494 41.7852 20.0073 41.3848 19.8973Z" fill="black"/>
<path d="M16.9419 11.2018C17.7203 10.1238 18.5499 8.97232 18.7868 7.63292C19.0166 6.33362 18.6805 5.02514 17.9568 3.93117C17.122 2.66953 15.9104 1.76161 14.7145 0.86747C14.358 0.601033 13.7946 0.809638 13.588 1.16278C13.3421 1.58328 13.5262 2.02214 13.8834 2.28924C15.7235 3.66498 18.0246 5.5791 16.918 8.14085C15.9352 10.4159 13.3781 12.2459 13.6978 14.9745C13.8518 16.2893 14.632 17.4781 15.9613 17.8294C16.9868 18.1003 17.4242 16.5125 16.3991 16.2415C15.5685 16.0221 15.2405 15.1147 15.3292 14.319C15.4582 13.1637 16.2801 12.1184 16.9419 11.2018Z" fill="black"/>
<path d="M28.7593 13.2013C28.6257 12.1069 28.0062 11.1156 27.0805 10.5135C26.5647 10.1781 26.0035 10.0015 25.4342 9.95634C25.7157 9.02832 26.2427 8.1756 27.0131 7.58539C27.3655 7.31542 27.5528 6.87664 27.3085 6.45894C27.1056 6.11211 26.5372 5.89144 26.182 6.16354C24.8677 7.17056 23.9899 8.61488 23.6754 10.2115C22.6007 10.6024 21.6449 11.3918 21.0942 12.3723C19.6138 15.0076 20.5492 18.0883 22.0387 20.4839C22.5971 21.382 24.0222 20.5562 23.4605 19.6528C22.489 18.0902 21.6701 16.2169 22.0943 14.3412C22.3002 13.431 22.8224 12.5779 23.5682 12.0727C23.6401 12.9762 23.8939 13.8682 24.3355 14.6603C24.9484 15.7597 26.1119 16.6724 27.3975 16.0577C28.4354 15.5615 28.8914 14.285 28.7593 13.2013ZM26.9266 14.3367C26.4785 14.9762 26.0076 14.2789 25.7573 13.8291C25.4166 13.2168 25.2322 12.5186 25.1993 11.8219C25.196 11.7497 25.1956 11.677 25.1951 11.6043C25.2357 11.6059 25.2763 11.6077 25.3173 11.6112C26.5239 11.7125 27.6952 13.24 26.9266 14.3367Z" fill="black"/>
<path d="M32.1068 15.4496C31.0473 15.4496 31.0455 17.0963 32.1068 17.0963C33.1663 17.0962 33.1681 15.4496 32.1068 15.4496Z" fill="black"/>
<path d="M33.1332 13.0673C32.0737 13.0673 32.0719 14.714 33.1332 14.714C34.1927 14.714 34.1945 13.0673 33.1332 13.0673Z" fill="black"/>
<path d="M34.7426 15.1682C33.683 15.1682 33.6813 16.8148 34.7426 16.8148C35.8021 16.8148 35.8038 15.1682 34.7426 15.1682Z" fill="black"/>
<path d="M7.35488 8.43036C6.29537 8.43036 6.29356 10.0771 7.35488 10.0771C8.41448 10.0771 8.4162 8.43036 7.35488 8.43036Z" fill="black"/>
<path d="M8.3822 6.04822C7.32268 6.04822 7.32096 7.69491 8.3822 7.69491C9.4418 7.69483 9.4436 6.04822 8.3822 6.04822Z" fill="black"/>
<path d="M9.99059 8.14899C8.93108 8.14899 8.92936 9.79568 9.99059 9.79568C11.0501 9.79568 11.0518 8.14899 9.99059 8.14899Z" fill="black"/>
<path d="M23.2426 29.0743L12.3088 18.1405C12.1216 17.9534 11.8559 17.8675 11.5945 17.9101C11.3332 17.9526 11.1082 18.118 10.99 18.3549L10.0069 20.3235L0.0867443 40.192C-0.071494 40.5089 -0.00931427 40.8915 0.241209 41.142C0.399201 41.3001 0.609858 41.3832 0.823549 41.3832C0.948401 41.3832 1.07424 41.3548 1.19105 41.2964L23.0282 30.3931C23.2651 30.2749 23.4306 30.0499 23.473 29.7886C23.5156 29.5272 23.4298 29.2615 23.2426 29.0743ZM2.6613 38.7218L6.21948 31.5955L7.42083 36.3454L2.6613 38.7218ZM16.2488 31.9376L14.8469 28.5209C14.6742 28.1002 14.1934 27.8991 13.7727 28.0717C13.352 28.2443 13.1509 28.7252 13.3235 29.1459L14.7716 32.6751L8.92889 35.5923L7.34684 29.3373L10.6706 22.6804L11.5851 24.9094C11.7158 25.2277 12.0231 25.4204 12.3471 25.4204C12.4512 25.4204 12.5571 25.4006 12.6593 25.3586C13.08 25.186 13.2811 24.705 13.1085 24.2844L11.6477 20.7238L11.9526 20.1131L21.2701 29.4305L16.2488 31.9376Z" fill="black"/>
<path d="M38.6046 27.3487C36.7678 27.3487 35.2734 28.8431 35.2734 30.6799C35.2734 32.5172 36.7678 34.0119 38.6046 34.0119C40.442 34.0119 41.9367 32.5172 41.9367 30.6799C41.9367 28.8431 40.442 27.3487 38.6046 27.3487ZM38.6046 32.3652C37.6758 32.3652 36.9201 31.6092 36.9201 30.6799C36.9201 29.7511 37.6759 28.9954 38.6046 28.9954C39.5339 28.9954 40.29 29.7511 40.29 30.6799C40.29 31.6092 39.534 32.3652 38.6046 32.3652Z" fill="black"/>
<path d="M37.7209 4.16937L34.4094 0.857932C34.255 0.703549 34.0455 0.61676 33.8272 0.61676C33.6088 0.61676 33.3995 0.703549 33.245 0.858014L29.9344 4.16945C29.613 4.49093 29.613 5.01224 29.9344 5.3338L33.2451 8.64442C33.4058 8.8052 33.6166 8.88559 33.8272 8.88559C34.0379 8.88559 34.2486 8.8052 34.4093 8.6445L37.7208 5.33389C37.8753 5.1795 37.962 4.97008 37.962 4.75163C37.9619 4.53326 37.8752 4.32383 37.7209 4.16937ZM33.8274 6.89797L31.6811 4.75154L33.8274 2.60462L35.9743 4.75154L33.8274 6.89797Z" fill="black"/>
<path d="M13.1459 25.9126C12.0864 25.9126 12.0846 27.5593 13.1459 27.5593C14.2054 27.5593 14.2071 25.9126 13.1459 25.9126Z" fill="black"/>
</g>
<defs>
<clipPath id="clip0">
<rect width="42" height="42" fill="white"/>
</clipPath>
</defs>
</svg>
