<svg width="38" height="38" viewBox="0 0 38 38" fill="none" xmlns="http://www.w3.org/2000/svg">
<path d="M36.3439 8.17579L35.4227 7.88789C35.1924 7.83031 34.9621 7.77273 34.6742 7.77273C33.6379 7.77273 32.7167 8.46361 32.3712 9.4424L31.853 10.9969V9.84539V9.78788C31.853 9.61514 31.7379 9.4424 31.6227 9.32724L22.1803 0.172741C22.0652 0.0575803 21.8924 0 21.7773 0H3.29544C2.94996 0 2.71972 0.230321 2.71972 0.575726V2.36056H0.589398C0.243917 2.36056 0.0136719 2.59088 0.0136719 2.93629V37.4242C0.0136719 37.7697 0.243993 37.9999 0.589398 37.9999H28.5712C28.9167 37.9999 29.1469 37.7696 29.1469 37.4242V35.6394H31.2772C31.6227 35.6394 31.853 35.409 31.853 35.0636V27.2909L33.4651 25.103L33.5226 24.9303L37.8409 11.1697C38.3015 9.90304 37.6106 8.57877 36.3439 8.17579ZM22.353 1.95758L29.8954 9.21216H22.353V1.95758ZM27.9955 36.8485H1.16512V3.51209H2.71964V35.0636C2.71964 35.4091 2.94996 35.6394 3.29537 35.6394H27.9954V36.8485H27.9955ZM30.7591 34.4879H30.7015H3.87117V1.15153H21.2015V9.78788C21.2015 10.1334 21.4318 10.3636 21.7772 10.3636H30.759V14.6818L28.053 23.203V23.3758L28.1681 30.6879C28.1681 30.9182 28.3409 31.1486 28.5712 31.2061C28.8015 31.2636 29.0893 31.2061 29.2045 30.9757L30.759 28.903V34.4879H30.7591ZM29.2621 28.903L29.1469 24.1242L32.0257 25.0454L29.2621 28.903ZM36.8046 10.8243L32.6591 24.0091L29.3197 22.9152L33.4651 9.78788C33.6955 9.15458 34.3863 8.75151 35.0197 8.98183L35.9409 9.26974C36.6318 9.4424 37.0348 10.1909 36.8046 10.8243Z" fill="black"/>
<path d="M7.78764 10.3635H16.0786C16.4241 10.3635 16.6543 10.1332 16.6543 9.78781V3.91508C16.6543 3.5696 16.424 3.33936 16.0786 3.33936H7.78764C7.44216 3.33936 7.21191 3.56968 7.21191 3.91508V9.78781C7.21191 10.0757 7.49982 10.3635 7.78764 10.3635ZM8.36344 4.49081H15.5029V9.21201H8.36344V4.49081Z" fill="black"/>
<path d="M6.6353 15.7758H24.1383C24.4838 15.7758 24.714 15.5455 24.714 15.2001C24.714 14.8546 24.4837 14.6244 24.1383 14.6244H6.6353C6.28981 14.6244 6.05957 14.8547 6.05957 15.2001C6.05949 15.5455 6.28981 15.7758 6.6353 15.7758Z" fill="black"/>
<path d="M6.6353 19.9788H24.1383C24.4838 19.9788 24.714 19.7485 24.714 19.4031C24.714 19.0577 24.4837 18.8274 24.1383 18.8274H6.6353C6.28981 18.8274 6.05957 19.0577 6.05957 19.4031C6.05957 19.7485 6.28981 19.9788 6.6353 19.9788Z" fill="black"/>
<path d="M6.6353 24.1817H24.1383C24.4838 24.1817 24.714 23.9514 24.714 23.606C24.714 23.2606 24.4837 23.0303 24.1383 23.0303H6.6353C6.28981 23.0303 6.05957 23.2606 6.05957 23.606C6.05957 23.9514 6.28981 24.1817 6.6353 24.1817Z" fill="black"/>
<path d="M24.6565 27.8091C24.6565 27.4636 24.4262 27.2334 24.0807 27.2334H6.6353C6.28981 27.2334 6.05957 27.4637 6.05957 27.8091C6.05957 28.1545 6.28989 28.3848 6.6353 28.3848H24.1383C24.4262 28.3848 24.6565 28.0969 24.6565 27.8091Z" fill="black"/>
<path d="M26.5568 31.4364H17.8628C17.5174 31.4364 17.2871 31.6667 17.2871 32.0121C17.2871 32.3575 17.5174 32.5879 17.8628 32.5879H26.4992C26.8447 32.5879 27.0749 32.3575 27.0749 32.0121C27.0749 31.6667 26.8447 31.4364 26.5568 31.4364Z" fill="black"/>
</svg>
