<svg width="447" height="76" viewBox="0 0 447 76" fill="none" xmlns="http://www.w3.org/2000/svg">
<path d="M0.0498047 1.0881H27.2252L38.3721 12.3274V30.5306L32.9012 37.1231L40.3709 44.4838V64.3766L29.224 75.5264H5.32857V13.3259L9.17234 11.0345V10.3433H0.0498047V1.0881ZM23.9452 33.2828L29.224 27.0103V16.1166L23.4583 10.3433H14.4895V33.2828H23.9452ZM14.4895 66.348H25.4443L31.2227 60.5747V48.6441L24.8165 42.3716H14.4895V66.348Z" fill="black"/>
<path d="M109.174 63.8646L97.9246 75.7952H83.5873L72.4404 63.8646V11.2393L83.677 0H97.9118L109.161 11.2393L109.174 63.8646ZM100.116 60.3827V14.9261L94.1449 8.96075H87.3799L81.4092 14.9261V60.3827L87.4824 66.8472H94.0552L100.116 60.3827Z" fill="black"/>
<path d="M138.655 1.19046H156.273L164.729 27.8423L172.89 58.9745H173.185L171.199 27.3431V1.19046H180.065V75.4367H170.418L158.771 38.8256L152.006 14.5036H151.711L152.864 39.6833V75.5263H143.998V13.1339L147.842 10.8425V10.1512H138.681L138.655 1.19046Z" fill="black"/>
<path d="M240.63 35.907V44.9573H223.897V75.5263H214.839V13.2235L218.682 10.9321V10.2408H209.624V1.28006H245.371V18.8047H236.505V10.2408H223.961V35.843L240.63 35.907Z" fill="black"/>
<path d="M286.436 0.896057V60.5747L292.112 66.8472H298.082L303.758 60.5747V0.896057H312.817V64.0054L302.169 75.936H288.076L277.377 64.0054V12.1354L281.221 9.84402V9.15276H272.021V0.896057H286.436Z" fill="black"/>
<path d="M354.444 60.8819L360.313 67.052H366.834L372.702 60.8819V49.0409L345.924 30.3385V11.6361L356.571 0.499207H370.511L381.159 11.6361V36.4062L372.19 30.6713V15.3613L366.616 9.49836H360.428L354.944 15.3613V25.6021L381.62 44.3045V64.4022L370.665 75.9231H356.43L345.476 64.4022V37.4559L354.444 43.4852V60.8819Z" fill="black"/>
<path d="M441.377 34.1149V43.1653H424.49V66.4376H437.828V58.757H446.886V75.5264H415.521V13.0315L419.365 10.7401V10.0489H410.307V0.998505H446.182V18.6H437.123V10.0489H424.49V34.1149H441.377Z" fill="black"/>
</svg>
