<svg width="41" height="41" viewBox="0 0 41 41" fill="none" xmlns="http://www.w3.org/2000/svg">
<path d="M41 32.5117C41 32.0694 40.6415 31.7109 40.1992 31.7109H12.6523V24.8242C12.6523 24.3819 12.2939 24.0234 11.8516 24.0234H4.16406C3.72176 24.0234 3.36328 24.3819 3.36328 24.8242V31.7109H0.800781C0.358475 31.7109 0 32.0694 0 32.5117C0 32.954 0.358475 33.3125 0.800781 33.3125H1.14017C0.431046 34.1283 0 35.1921 0 36.3555C0 37.5188 0.431046 38.5826 1.14017 39.3984H0.800781C0.358475 39.3984 0 39.7569 0 40.1992C0 40.6415 0.358475 41 0.800781 41H40.1992C40.6415 41 41 40.6415 41 40.1992C41 39.7569 40.6415 39.3984 40.1992 39.3984H39.8598C40.569 38.5826 41 37.5188 41 36.3555C41 35.1921 40.569 34.1283 39.8598 33.3125H40.1992C40.6415 33.3125 41 32.954 41 32.5117ZM6.09751 31.7109L8.00781 29.8003L9.91811 31.7109H6.09751ZM11.0508 30.5783L9.14048 28.668L11.0508 26.7574V30.5783ZM8.00781 27.5353L6.09751 25.625H9.91843L8.00781 27.5353ZM6.87514 28.668L4.96484 30.5783V26.7574L6.87514 28.668ZM11.8516 33.3125H16.9956C16.2865 34.1283 15.8555 35.1921 15.8555 36.3555C15.8555 37.5188 16.2865 38.5826 16.9956 39.3984H8.14889C8.85802 38.5826 9.28906 37.5188 9.28906 36.3555C9.28906 35.1921 8.85802 34.1283 8.14889 33.3125H11.8516ZM17.457 36.3555C17.457 34.6776 18.8221 33.3125 20.5 33.3125C22.1779 33.3125 23.543 34.6776 23.543 36.3555C23.543 38.0334 22.1779 39.3984 20.5 39.3984C18.8221 39.3984 17.457 38.0334 17.457 36.3555ZM24.0044 33.3125H32.8511C32.142 34.1283 31.7109 35.1921 31.7109 36.3555C31.7109 37.5188 32.142 38.5826 32.8511 39.3984H24.0044C24.7135 38.5826 25.1445 37.5188 25.1445 36.3555C25.1445 35.1921 24.7135 34.1283 24.0044 33.3125ZM1.60156 36.3555C1.60156 34.6776 2.96664 33.3125 4.64453 33.3125C6.32242 33.3125 7.6875 34.6776 7.6875 36.3555C7.6875 38.0334 6.32242 39.3984 4.64453 39.3984C2.96664 39.3984 1.60156 38.0334 1.60156 36.3555ZM39.3984 36.3555C39.3984 38.0334 38.0334 39.3984 36.3555 39.3984C34.6776 39.3984 33.3125 38.0334 33.3125 36.3555C33.3125 34.6776 34.6776 33.3125 36.3555 33.3125C38.0334 33.3125 39.3984 34.6776 39.3984 36.3555Z" fill="black"/>
<path d="M20.5 35.5547C20.2895 35.5547 20.0827 35.6404 19.9338 35.7893C19.7849 35.9382 19.6992 36.145 19.6992 36.3555C19.6992 36.566 19.7849 36.7728 19.9338 36.9216C20.0827 37.0705 20.2895 37.1562 20.5 37.1562C20.7105 37.1562 20.9173 37.0705 21.0662 36.9216C21.2151 36.7728 21.3008 36.566 21.3008 36.3555C21.3008 36.145 21.2151 35.9382 21.0662 35.7893C20.9173 35.6404 20.7105 35.5547 20.5 35.5547Z" fill="black"/>
<path d="M36.3555 37.1562C36.566 37.1562 36.7728 37.0705 36.9216 36.9216C37.0705 36.7728 37.1562 36.566 37.1562 36.3555C37.1562 36.145 37.0705 35.9382 36.9216 35.7893C36.7728 35.6404 36.566 35.5547 36.3555 35.5547C36.145 35.5547 35.9382 35.6404 35.7893 35.7893C35.6404 35.9382 35.5547 36.145 35.5547 36.3555C35.5547 36.566 35.6404 36.7728 35.7893 36.9216C35.9382 37.0705 36.145 37.1562 36.3555 37.1562Z" fill="black"/>
<path d="M4.64453 35.5547C4.43401 35.5547 4.22725 35.6404 4.07835 35.7893C3.92946 35.9382 3.84375 36.145 3.84375 36.3555C3.84375 36.566 3.92946 36.7728 4.07835 36.9216C4.22725 37.0705 4.43401 37.1562 4.64453 37.1562C4.85505 37.1562 5.06181 37.0705 5.21071 36.9216C5.3596 36.7728 5.44531 36.566 5.44531 36.3555C5.44531 36.145 5.3596 35.9382 5.21071 35.7893C5.06181 35.6404 4.85505 35.5547 4.64453 35.5547Z" fill="black"/>
<path d="M21.0769 5.21071C21.2258 5.06181 21.3115 4.85505 21.3115 4.64453C21.3115 4.4337 21.2258 4.22725 21.0769 4.07835C20.928 3.92946 20.7216 3.84375 20.5107 3.84375C20.2993 3.84375 20.0938 3.92946 19.9446 4.07835C19.795 4.22725 19.71 4.4337 19.71 4.64453C19.71 4.85505 19.795 5.06181 19.9446 5.21071C20.0938 5.3596 20.2993 5.44531 20.5107 5.44531C20.7216 5.44531 20.928 5.3596 21.0769 5.21071Z" fill="black"/>
<path d="M8.00781 2.24219C7.79729 2.24219 7.59053 2.3279 7.44164 2.47679C7.29274 2.62569 7.20703 2.83214 7.20703 3.04297C7.20703 3.25349 7.29274 3.46025 7.44164 3.60915C7.59053 3.75804 7.79729 3.84375 8.00781 3.84375C8.21833 3.84375 8.42509 3.75804 8.57399 3.60915C8.72289 3.46025 8.80859 3.25349 8.80859 3.04297C8.80859 2.83245 8.72289 2.62569 8.57399 2.47679C8.42509 2.3279 8.21833 2.24219 8.00781 2.24219Z" fill="black"/>
<path d="M40.1992 0H0.800781C0.358475 0 0 0.358475 0 0.800781V4.64453C0 5.08684 0.358475 5.44531 0.800781 5.44531H4.34017C4.41462 5.81098 4.73775 6.08594 5.125 6.08594H7.20703V10.0116L1.23183 14.5292C1.03163 14.6806 0.914017 14.9171 0.914017 15.1679V21.0074C0.914017 21.4494 1.27249 21.8082 1.7148 21.8082C2.1571 21.8082 2.51558 21.4494 2.51558 21.0074V15.5664L8.00781 11.4139L13.5 15.5664V21.0071C13.5 21.4494 13.8585 21.8078 14.3008 21.8078C14.7431 21.8078 15.1016 21.4494 15.1016 21.0071V15.1679C15.1016 14.9171 14.984 14.6806 14.7838 14.5292L8.80859 10.0116V6.08594H10.8906C11.2782 6.08594 11.601 5.81098 11.6755 5.44531H17.3235C17.7658 5.44531 18.1242 5.08684 18.1242 4.64453C18.1242 4.20222 17.7658 3.84375 17.3235 3.84375H11.6914V1.60156H29.4825V3.84375H23.7832C23.3409 3.84375 22.9824 4.20222 22.9824 4.64453C22.9824 5.08684 23.3409 5.44531 23.7832 5.44531H29.4985C29.5726 5.81067 29.8957 6.08594 30.2833 6.08594H32.3653V10.0116L26.3901 14.5292C26.1899 14.6806 26.0723 14.9171 26.0723 15.1679V20.4199C26.0723 20.7393 26.2619 21.028 26.555 21.155L28.5216 22.0058V23.8633C28.5216 24.3056 28.8801 24.6641 29.3224 24.6641H37.0099C37.4519 24.6641 37.8106 24.3056 37.8106 23.8633V22.0159L39.7801 21.1535C40.0716 21.0258 40.2599 20.738 40.2599 20.4199V15.1679C40.2599 14.9171 40.142 14.6806 39.9418 14.5292L33.9669 10.0116V6.08594H36.0489C36.4362 6.08594 36.7593 5.81098 36.8334 5.44531H40.1992C40.6415 5.44531 41 5.08684 41 4.64453V0.800781C41 0.358475 40.6415 0 40.1992 0V0ZM30.1231 18.1089L32.0334 20.0195L30.1231 21.9298V18.1089ZM33.1661 21.1519L35.0764 23.0625H31.2555L33.1661 21.1519ZM34.2985 20.0195L36.2091 18.1092V21.9301L34.2985 20.0195ZM33.1661 18.8869L31.2555 16.9766H35.0764L33.1661 18.8869ZM38.6583 19.8963L37.8106 20.2676V16.1758C37.8106 15.7335 37.4522 15.375 37.0099 15.375H29.3224C28.8801 15.375 28.5216 15.7335 28.5216 16.1758V20.2607L27.6739 19.8938V15.5664L33.1661 11.4139L38.6583 15.5664V19.8963ZM35.2481 4.48438H31.0841V1.60156H35.2481V4.48438ZM1.60156 1.60156H4.32422V3.84375H1.60156V1.60156ZM5.92578 1.60156H10.0898V4.48438H5.92578V1.60156ZM39.3984 3.84375H36.8497V1.60156H39.3984V3.84375Z" fill="black"/>
<path d="M32.5998 3.60915C32.7487 3.75804 32.9552 3.84375 33.166 3.84375C33.3765 3.84375 33.583 3.75804 33.7319 3.60915C33.8811 3.46025 33.9668 3.25349 33.9668 3.04297C33.9668 2.83214 33.8811 2.62569 33.7319 2.47679C33.583 2.3279 33.3765 2.24219 33.166 2.24219C32.9552 2.24219 32.7487 2.3279 32.5998 2.47679C32.4506 2.62569 32.3652 2.83214 32.3652 3.04297C32.3652 3.25349 32.4506 3.46025 32.5998 3.60915Z" fill="black"/>
<path d="M18.8506 23.5828C18.8506 24.0251 19.2091 24.3835 19.6514 24.3835H26.2982C26.7405 24.3835 27.0989 24.0251 27.0989 23.5828C27.0989 23.1405 26.7405 22.782 26.2982 22.782H19.6514C19.2091 22.782 18.8506 23.1405 18.8506 23.5828Z" fill="black"/>
<path d="M16.3281 22.7822C16.1176 22.7822 15.9112 22.867 15.7619 23.0168C15.6131 23.1657 15.5273 23.3716 15.5273 23.583C15.5273 23.7935 15.6131 23.9994 15.7619 24.1492C15.9112 24.2981 16.1176 24.3838 16.3281 24.3838C16.539 24.3838 16.7454 24.2981 16.8943 24.1492C17.0432 23.9994 17.1289 23.7935 17.1289 23.583C17.1289 23.3716 17.0432 23.1657 16.8943 23.0168C16.7454 22.867 16.539 22.7822 16.3281 22.7822Z" fill="black"/>
<path d="M17.0762 20.3799C17.0762 20.8222 17.4346 21.1807 17.877 21.1807H22.9741C23.4164 21.1807 23.7749 20.8222 23.7749 20.3799C23.7749 19.9376 23.4164 19.5791 22.9741 19.5791H17.877C17.4346 19.5791 17.0762 19.9376 17.0762 20.3799Z" fill="black"/>
</svg>
