<svg width="42" height="42" viewBox="0 0 42 42" fill="none" xmlns="http://www.w3.org/2000/svg">
<g clip-path="url(#clip0)">
<path d="M25.0099 25.9182L17.8496 24.234V19.2997C17.9105 19.2521 17.9735 19.2094 18.0337 19.1597C20.4113 17.1765 21.8546 14.2919 22.016 11.2H22.0496C22.4362 11.2 22.7496 10.8866 22.7496 10.5V9.8C22.7496 4.3876 18.362 0 12.9496 0C7.53721 0 3.14961 4.3876 3.14961 9.8V11.2C3.14961 11.5866 3.46303 11.9 3.84961 11.9C3.87831 11.8973 3.90683 11.8929 3.93501 11.8867C4.26357 14.7255 5.67083 17.3294 7.86551 19.1597C7.92501 19.2094 7.98871 19.2521 8.04961 19.2997V24.234L0.88931 25.9182C0.57291 25.9927 0.349347 26.275 0.34961 26.6V41.3C0.34961 41.6866 0.663035 42 1.04961 42H24.8496C25.2362 42 25.5496 41.6866 25.5496 41.3V26.6C25.5498 26.275 25.3262 25.9927 25.0099 25.9182ZM8.04961 40.6H1.74961V27.1544L8.04961 25.6725V40.6ZM4.54961 9.8C4.54961 5.16084 8.31045 1.4 12.9496 1.4C17.5888 1.4 21.3496 5.16084 21.3496 9.8H19.2496C17.3176 9.79772 15.7519 8.232 15.7496 6.3C15.75 5.91342 15.4368 5.59974 15.0502 5.59939C14.9989 5.59939 14.9478 5.6049 14.8977 5.6161L14.4777 5.7099C10.945 6.49057 7.58192 7.90142 4.54961 9.8749V9.8ZM16.4496 40.6H9.44961V27.8047L11.9304 26.978L10.1741 33.418C10.1288 33.5841 10.1462 33.761 10.2231 33.915L12.3231 38.115C12.4959 38.4608 12.9164 38.6011 13.2622 38.4282C13.3978 38.3604 13.5077 38.2505 13.5754 38.115L15.6754 33.915C15.7523 33.761 15.7697 33.5841 15.7244 33.418L13.9681 26.978L16.4496 27.8047V40.6ZM9.44961 26.3284V24.9326L11.1247 25.7726L9.44961 26.3284ZM12.9496 28.56L14.3041 33.5265L12.9496 36.2348L11.5951 33.5265L12.9496 28.56ZM16.4496 26.3284L14.7745 25.7684L16.4496 24.9326V26.3284ZM16.4496 23.3667L12.9496 25.1167L9.44961 23.3667V20.181C10.5382 20.7183 11.7356 20.9984 12.9496 21C14.1637 20.9982 15.361 20.7177 16.4496 20.1803V23.3667ZM8.76291 18.0838C6.67288 16.3371 5.41035 13.7947 5.28181 11.074C8.07857 9.24674 11.1728 7.92164 14.4252 7.1582C14.8443 9.49489 16.8756 11.1967 19.2496 11.2H20.616C20.4553 13.8762 19.1964 16.3671 17.137 18.0838C14.7118 20.1057 11.1881 20.1057 8.76291 18.0838ZM24.1496 40.6H17.8496V25.6725L24.1496 27.1544V40.6Z" fill="black"/>
<path d="M18.5504 11.2H14.3504C13.9638 11.2 13.6504 11.5134 13.6504 11.9V12.6H12.2504V11.9C12.2504 11.5134 11.937 11.2 11.5504 11.2H7.35039C6.96382 11.2 6.65039 11.5134 6.65039 11.9V14.7C6.65039 15.0866 6.96382 15.4 7.35039 15.4H11.5504C11.937 15.4 12.2504 15.0866 12.2504 14.7V14H13.6504V14.7C13.6504 15.0866 13.9638 15.4 14.3504 15.4H18.5504C18.937 15.4 19.2504 15.0866 19.2504 14.7V11.9C19.2504 11.5134 18.937 11.2 18.5504 11.2ZM10.8504 14H8.05039V12.6H10.8504V14ZM17.8504 14H15.0504V12.6H17.8504V14Z" fill="black"/>
<path d="M41.4112 17.4526C41.3262 17.3323 41.2212 17.2274 41.1009 17.1423V17.1402L39.6421 16.1112L40.3897 14.49C40.6903 13.8406 40.4074 13.0705 39.758 12.7699C39.6227 12.7074 39.4777 12.6685 39.3292 12.6553L37.5526 12.4957L37.3923 10.7177C37.326 10.0048 36.6943 9.48063 35.9814 9.54696C35.8354 9.56052 35.6928 9.59876 35.5596 9.66001L33.9398 10.4083L32.9101 8.94881C32.4965 8.36387 31.6872 8.225 31.1022 8.63853C30.9819 8.72358 30.877 8.82849 30.7919 8.94881L29.7629 10.4076L28.1396 9.66001C27.4902 9.35944 26.7201 9.64233 26.4196 10.2918C26.357 10.427 26.3181 10.572 26.3049 10.7205L26.1453 12.4971L24.3673 12.6574C23.6544 12.7237 23.1303 13.3554 23.1966 14.0683C23.2101 14.2143 23.2484 14.3569 23.3096 14.49L24.0579 16.1098L22.5991 17.1388C22.0142 17.5524 21.8753 18.3618 22.2889 18.9467C22.3739 19.067 22.4788 19.172 22.5991 19.257L24.0579 20.286L23.3096 21.91C23.0091 22.5594 23.292 23.3295 23.9414 23.6301C24.0767 23.6926 24.2216 23.7315 24.3701 23.7447L26.1467 23.9043L26.307 25.6823C26.3456 26.1015 26.5852 26.476 26.9496 26.6868V35C26.9497 35.3866 27.2631 35.6999 27.6498 35.6998C27.8354 35.6998 28.0133 35.6261 28.1445 35.4949L31.8496 31.7898L35.5547 35.4949C35.8282 35.7683 36.2714 35.7682 36.5447 35.4947C36.6759 35.3635 36.7496 35.1855 36.7496 35V26.6868C37.1144 26.4757 37.354 26.1006 37.3922 25.6809L37.5518 23.9043L39.3298 23.744C40.0429 23.6792 40.5683 23.0486 40.5035 22.3355C40.4901 22.1883 40.4516 22.0443 40.3896 21.91L39.6413 20.2902L41.1008 19.2605C41.6859 18.8469 41.8248 18.0375 41.4112 17.4526ZM35.3498 33.3102L32.3447 30.3051C32.0714 30.0318 31.6283 30.0318 31.3549 30.3051L28.3498 33.3102V26.6448L29.7617 25.9924L30.7914 27.4519C31.205 28.0368 32.0144 28.1757 32.5993 27.7622C32.7197 27.6771 32.8246 27.5722 32.9096 27.4519L33.9386 25.9931L35.3498 26.6448V33.3102ZM38.7644 19.194C38.252 19.5542 38.0712 20.2297 38.3353 20.7977L39.0598 22.3622L37.3441 22.5169C36.7193 22.572 36.2236 23.0668 36.1674 23.6915L36.0113 25.41L34.4482 24.6869C33.8803 24.4239 33.2056 24.6041 32.8445 25.1153L31.8498 26.5244L30.8558 25.1146C30.4955 24.6025 29.8201 24.4217 29.2521 24.6855L27.6876 25.41L27.5329 23.6943C27.4778 23.0695 26.9831 22.5738 26.3583 22.5176L24.6398 22.3615L25.3629 20.7984C25.6272 20.2306 25.4466 19.5551 24.9345 19.1947L23.5254 18.2L24.9352 17.206C25.4476 16.8459 25.6284 16.1703 25.3643 15.6023L24.6398 14.0378L26.3555 13.8831C26.9803 13.828 27.476 13.3333 27.5322 12.7085L27.6869 10.9914L29.25 11.7145C29.8178 11.979 30.4935 11.7985 30.8537 11.2861L31.8498 9.8756L32.8438 11.2854C33.2041 11.7975 33.8796 11.9783 34.4475 11.7145L36.012 10.99L36.1667 12.7057C36.2218 13.3305 36.7166 13.8262 37.3413 13.8824L39.0584 14.0371L38.3353 15.6002C38.0711 16.168 38.2516 16.8435 38.7637 17.2039L40.1742 18.2L38.7644 19.194Z" fill="black"/>
<path d="M31.8508 11.9C28.3714 11.9 25.5508 14.7205 25.5508 18.2C25.5508 21.6793 28.3714 24.5 31.8508 24.5C35.3302 24.5 38.1508 21.6793 38.1508 18.2C38.1468 14.7222 35.3286 11.9038 31.8508 11.9ZM31.8508 23.1C29.1446 23.1 26.9508 20.9062 26.9508 18.2C26.9508 15.4938 29.1446 13.3 31.8508 13.3C34.557 13.3 36.7508 15.4938 36.7508 18.2C36.7476 20.9049 34.5557 23.0969 31.8508 23.1Z" fill="black"/>
<path d="M37.4508 4.89996H36.0508V6.29996H37.4508V4.89996Z" fill="black"/>
<path d="M40.2506 4.89996H38.8506V6.29996H40.2506V4.89996Z" fill="black"/>
<path d="M38.8502 3.5H37.4502V4.9H38.8502V3.5Z" fill="black"/>
<path d="M38.8502 6.29999H37.4502V7.69999H38.8502V6.29999Z" fill="black"/>
<path d="M29.7506 1.39996H28.3506V2.79996H29.7506V1.39996Z" fill="black"/>
<path d="M32.5504 1.39996H31.1504V2.79996H32.5504V1.39996Z" fill="black"/>
<path d="M31.15 0H29.75V1.4H31.15V0Z" fill="black"/>
<path d="M31.15 2.79999H29.75V4.19999H31.15V2.79999Z" fill="black"/>
</g>
<defs>
<clipPath id="clip0">
<rect width="42" height="42" fill="white"/>
</clipPath>
</defs>
</svg>
