<svg width="48" height="48" viewBox="0 0 48 48" fill="none" xmlns="http://www.w3.org/2000/svg">
<path fill-rule="evenodd" clip-rule="evenodd" d="M25.4112 2.58272L25.409 2.58064L25.4046 2.57624L25.3978 2.56966C25.3944 2.56626 25.3932 2.56526 25.3932 2.56526L25.3956 2.56748C25.4008 2.57254 25.406 2.57762 25.4112 2.58272ZM22.6044 2.56748C22.6004 2.57104 22.5922 2.57866 22.5792 2.59016C22.5438 2.62128 22.474 2.68088 22.3658 2.76504C22.1496 2.9333 21.7786 3.20046 21.221 3.53502C20.1062 4.2039 18.2407 5.14492 15.3675 6.10264C12.4284 7.08236 10.5099 7.55842 9.35776 7.78884C8.78254 7.90388 8.40252 7.95686 8.18538 7.98098C8.077 7.99302 8.00998 7.9978 7.98022 7.99954C7.97416 7.9999 7.9667 8.00028 7.9667 8.00028C6.8775 8.01806 6 8.90656 6 10V24C6 30.8928 10.5635 36.4006 14.683 40.0052C16.7848 41.8442 18.8771 43.2816 20.44 44.2584C21.4318 44.8784 22.4094 45.4908 23.5128 45.8572C23.829 45.9622 24.171 45.9622 24.4872 45.8572C25.5906 45.4908 26.5682 44.8784 27.56 44.2584C29.123 43.2816 31.2152 41.8442 33.317 40.0052C37.4366 36.4006 42 30.8928 42 24V10C42 8.90654 41.1226 8.01804 40.0332 8.00028C40.0332 8.00028 40.0258 7.9999 40.0198 7.99954C39.99 7.9978 39.923 7.99302 39.8146 7.98098C39.5974 7.95686 39.2174 7.90388 38.6422 7.78884C37.4902 7.55842 35.5716 7.08236 32.6324 6.10264C29.7594 5.14492 27.8938 4.2039 26.779 3.53502C26.2214 3.20046 25.8504 2.9333 25.6342 2.76504C25.526 2.68088 25.4562 2.62128 25.421 2.59016C25.4078 2.57866 25.3996 2.57104 25.3956 2.56748C24.6194 1.81084 23.3806 1.81084 22.6044 2.56748ZM24 6.51034C23.7866 6.65206 23.547 6.80422 23.279 6.96498C21.8938 7.7961 19.7593 8.85508 16.6325 9.89736C13.5716 10.9176 11.4901 11.4416 10.1422 11.7112C10.0939 11.7208 10.0465 11.7302 10 11.7392V24C10 29.1072 13.4365 33.5994 17.317 36.9948C19.2152 38.6558 21.123 39.9684 22.56 40.8666C23.1266 41.2206 23.6168 41.5082 24 41.7256C24.3832 41.5082 24.8734 41.2206 25.44 40.8666C26.877 39.9684 28.7848 38.6558 30.683 36.9948C34.5634 33.5994 38 29.1072 38 24V11.7392C37.9536 11.7302 37.906 11.7208 37.8578 11.7112C36.5098 11.4416 34.4284 10.9176 31.3676 9.89736C28.2406 8.85508 26.1062 7.7961 24.721 6.96498C24.453 6.80422 24.2134 6.65206 24 6.51034Z" fill="#742DDB"/>
<path d="M24 6.51034C23.7866 6.65206 23.547 6.80422 23.279 6.96498C21.8938 7.7961 19.7593 8.85508 16.6325 9.89736C13.5716 10.9176 11.4901 11.4416 10.1422 11.7112C10.0939 11.7208 10.0465 11.7302 10 11.7392V24C10 29.1072 13.4365 33.5994 17.317 36.9948C19.2152 38.6558 21.123 39.9684 22.56 40.8666C23.1266 41.2206 23.6168 41.5082 24 41.7256C24.3832 41.5082 24.8734 41.2206 25.44 40.8666C26.877 39.9684 28.7848 38.6558 30.683 36.9948C34.5634 33.5994 38 29.1072 38 24V11.7392C37.9536 11.7302 37.906 11.7208 37.8578 11.7112C36.5098 11.4416 34.4284 10.9176 31.3676 9.89736C28.2406 8.85508 26.1062 7.7961 24.721 6.96498C24.453 6.80422 24.2134 6.65206 24 6.51034Z" fill="#D4BEF4"/>
</svg>
