<svg xmlns="http://www.w3.org/2000/svg">
    <symbol id="icon-logo" viewBox="0 0 25 30">
        <path fill-rule="evenodd" clip-rule="evenodd" d="M19.8613 0.833252H2.31295C1.92511 0.833252 1.55315 0.982507 1.2789 1.24818C1.00466 1.51386 0.850586 1.8742 0.850586 2.24992V27.7499C0.850586 28.1256 1.00466 28.486 1.2789 28.7517C1.55315 29.0173 1.92511 29.1666 2.31295 29.1666H19.8613C21.0249 29.1666 22.1407 28.7188 22.9635 27.9218C23.7862 27.1248 24.2484 26.0438 24.2484 24.9166V5.08325C24.2484 3.95608 23.7862 2.87508 22.9635 2.07805C22.1407 1.28102 21.0249 0.833252 19.8613 0.833252ZM18.8353 14.6022L17.5 13.267V10.9688C17.5 9.88319 16.6168 9 15.5313 9H14.5C14.1893 9 13.9375 9.25184 13.9375 9.5625C13.9375 9.87316 14.1893 10.125 14.5 10.125H15.5313C15.9965 10.125 16.375 10.5035 16.375 10.9688V13.5C16.375 13.6492 16.4343 13.7923 16.5397 13.8978L17.642 15L16.5398 16.1022C16.4343 16.2077 16.375 16.3508 16.375 16.5V19.0312C16.375 19.4965 15.9965 19.875 15.5313 19.875H14.5C14.1893 19.875 13.9375 20.1268 13.9375 20.4375C13.9375 20.7482 14.1893 21 14.5 21H15.5313C16.6168 21 17.5 20.1168 17.5 19.0312V16.733L18.8353 15.3977C19.0549 15.1781 19.0549 14.8219 18.8353 14.6022ZM9.62427 10.9688V13.5C9.62427 13.6492 9.56499 13.7923 9.4595 13.8978L8.35726 15L9.45953 16.1022C9.56499 16.2077 9.62427 16.3508 9.62427 16.5V19.0312C9.62427 19.4965 10.0028 19.875 10.468 19.875H11.4993C11.8099 19.875 12.0618 20.1268 12.0618 20.4375C12.0618 20.7482 11.8099 21 11.4993 21H10.468C9.38244 21 8.49927 20.1168 8.49927 19.0312V16.733L7.16401 15.3977C6.94433 15.1781 6.94433 14.8219 7.16401 14.6022L8.49927 13.267V10.9688C8.49927 9.88319 9.38244 9 10.468 9H11.4993C11.8099 9 12.0618 9.25184 12.0618 9.5625C12.0618 9.87316 11.8099 10.125 11.4993 10.125H10.468C10.0028 10.125 9.62427 10.5035 9.62427 10.9688Z" />
    </symbol>
</svg>
