<svg width="45" height="52" viewBox="0 0 45 52" fill="none" xmlns="http://www.w3.org/2000/svg">
<path fill-rule="evenodd" clip-rule="evenodd" d="M36.0437 0.166992H3.54366C2.82537 0.166992 2.13649 0.439164 1.62858 0.923633C1.12067 1.4081 0.835327 2.06518 0.835327 2.75033V49.2503C0.835327 49.9355 1.12067 50.5925 1.62858 51.077C2.13649 51.5615 2.82537 51.8337 3.54366 51.8337H36.0437C38.1985 51.8337 40.2652 51.0171 41.7889 49.5637C43.3126 48.1103 44.1687 46.1391 44.1687 44.0837V7.91699C44.1687 5.86156 43.3126 3.89032 41.7889 2.43691C40.2652 0.983508 38.1985 0.166992 36.0437 0.166992ZM34.1433 25.2747L31.6704 22.8399V18.6489C31.6704 16.6694 30.0348 15.0589 28.0242 15.0589H26.1143C25.539 15.0589 25.0726 15.5181 25.0726 16.0846C25.0726 16.6511 25.539 17.1103 26.1143 17.1103H28.0242C28.8859 17.1103 29.5869 17.8005 29.5869 18.6489V23.2647C29.5869 23.5368 29.6967 23.7977 29.892 23.9901L31.9334 26L29.892 28.01C29.6967 28.2024 29.5869 28.4633 29.5869 28.7353V33.3511C29.5869 34.1995 28.8859 34.8897 28.0242 34.8897H26.1143C25.539 34.8897 25.0726 35.349 25.0726 35.9155C25.0726 36.482 25.539 36.9412 26.1143 36.9412H28.0242C30.0348 36.9412 31.6704 35.3307 31.6704 33.3511V29.1602L34.1433 26.7253C34.5502 26.3248 34.5502 25.6753 34.1433 25.2747ZM17.084 18.6489V23.2647C17.084 23.5368 16.9742 23.7977 16.7788 23.9901L14.7374 26L16.7789 28.01C16.9742 28.2024 17.084 28.4633 17.084 28.7353V33.3511C17.084 34.1995 17.7849 34.8897 18.6466 34.8897H20.5565C21.1319 34.8897 21.5983 35.349 21.5983 35.9155C21.5983 36.482 21.1319 36.9412 20.5565 36.9412H18.6466C16.6361 36.9412 15.0004 35.3307 15.0004 33.3511V29.1602L12.5275 26.7253C12.1207 26.3247 12.1207 25.6753 12.5275 25.2747L15.0004 22.8399V18.6489C15.0004 16.6694 16.6361 15.0589 18.6466 15.0589H20.5565C21.1319 15.0589 21.5983 15.5181 21.5983 16.0846C21.5983 16.6511 21.1319 17.1103 20.5565 17.1103H18.6466C17.7849 17.1103 17.084 17.8005 17.084 18.6489Z" fill="white"/>
</svg>
