<svg width="24" height="24" viewBox="0 0 24 24" fill="none" xmlns="http://www.w3.org/2000/svg">
<path d="M9.86224 8.02177C10.2495 8.08404 10.0501 8.40062 9.88689 8.58615C9.228 9.33497 8.22499 9.62698 7.30992 9.92688C7.01273 10.0243 6.63337 10.1395 6.3689 10.303C6.12766 10.4529 5.92848 10.6616 5.7901 10.9095C5.3949 11.6087 5.56228 12.3386 5.70669 13.0838C5.77825 13.4532 5.8705 13.8689 5.97149 14.2301C6.18764 14.2554 6.56586 14.5082 6.77823 14.5876C6.9552 14.6536 7.38844 14.8394 7.06013 15.0404C6.9931 15.0815 6.81915 15.0009 6.7503 14.9751C6.6993 15.0686 6.67595 15.1228 6.63616 15.2217C6.89175 15.6871 7.06852 15.8085 7.52512 16.0921C8.98331 17.0007 10.7846 16.859 12.3111 16.2064C12.6634 16.0559 13.1491 15.8297 13.5004 15.6744C13.5657 15.6455 14.0696 15.7246 14.1961 15.7344C14.7801 15.779 15.2997 15.7578 15.8735 15.6218C16.0224 15.1992 16.38 13.9459 16.3207 13.5392C16.2478 13.0378 15.7417 12.5289 15.354 12.2436C12.846 14.0025 11.6159 14.5062 8.83727 12.8368C8.58512 13.2146 8.44557 13.4778 8.28915 13.8943C7.9196 14.8783 8.44511 15.4524 8.84244 16.3023C8.86692 16.3547 8.87343 16.3763 8.85537 16.4256C8.76984 16.4884 8.67611 16.4965 8.57244 16.5138C8.53612 16.4851 8.45983 16.4229 8.43621 16.3817C8.19384 15.9595 7.90001 15.4392 7.78995 14.9659C7.7464 14.7785 7.767 14.484 7.69675 14.3234C7.55676 14.0033 7.34369 13.7136 7.13963 13.4335C7.10261 13.3933 7.03279 13.232 7.06714 13.1746C7.33524 12.7266 7.8443 13.7517 7.88601 13.8311C7.91228 13.7532 7.94016 13.6759 7.96965 13.5992C8.10778 13.2422 8.40604 12.6211 8.71082 12.3664C8.79682 12.2947 9.2022 12.5726 9.30798 12.6328C9.60322 12.803 9.90744 12.9572 10.2193 13.0946C12.3371 14.0108 13.6146 12.9183 15.2965 11.7896C15.4339 11.7222 15.6679 11.9498 15.7453 12.0197C16.2098 12.4392 16.8524 13.1395 16.7446 13.8284C16.5441 15.1106 16.0128 16.3837 15.8672 17.6839C15.7884 18.3874 15.9278 19.1665 16.1415 19.8386C16.0324 19.9492 15.9371 20.0458 15.8196 20.1487C15.6719 19.8594 15.6057 19.5205 15.5421 19.2069C15.2883 17.9581 15.4867 17.2788 15.7656 16.0928L15.7434 16.0777C15.0135 16.2279 14.2852 16.1736 13.5522 16.0993C12.4647 16.6438 11.2603 17.099 10.0292 17.1008C9.73285 17.1013 9.40081 17.0624 9.1037 17.0322C9.23372 17.2116 9.23487 17.5194 9.24247 17.7342C9.29372 19.1855 8.36961 20.3055 7.766 21.5394C7.47898 22.1211 7.24819 22.7291 7.07676 23.3549C8.77185 23.4961 10.7872 23.3227 12.4276 22.8021C14.0678 22.2816 15.6099 20.9635 16.598 19.5719C16.7656 19.3356 16.8115 19.0482 16.9388 18.7994L16.9496 18.7788C16.8614 18.6979 16.8246 18.6427 16.7937 18.5268C16.7883 18.5065 16.7836 18.4692 16.7727 18.4519C16.7347 18.3916 16.48 18.6434 16.356 18.609C16.3153 18.5976 16.2843 18.5649 16.2633 18.5295C16.2424 18.4939 16.2089 18.4393 16.2206 18.3974C16.2373 18.3374 16.29 18.2838 16.3352 18.2437C16.472 18.122 17.1946 17.62 17.355 17.5472C17.3985 17.5275 17.5104 17.4834 17.5566 17.5086C17.6036 17.5343 17.6318 17.5986 17.6499 17.6461C17.7344 17.8654 17.8527 18.6596 17.7542 18.8613C17.7256 18.9202 17.6796 18.972 17.6154 18.9915C17.5458 19.0123 17.4617 18.994 17.4003 18.9577C17.3169 18.9083 17.3016 18.8162 17.281 18.7296C17.1419 19.0466 16.9772 19.5364 16.8039 19.8306C16.228 20.8069 15.2622 21.6872 14.3432 22.3212C12.5879 23.5317 10.2718 23.8234 8.18434 23.8027C7.81635 23.8012 7.44861 23.7844 7.08201 23.7524C6.96148 23.743 6.661 23.7518 6.59409 23.6448C6.57752 23.4991 6.68191 23.2166 6.72767 23.064C6.95549 22.2999 7.26548 21.5626 7.65223 20.8652C7.94977 20.3226 8.29196 19.783 8.52895 19.2138C8.80257 18.5565 8.96464 17.6528 8.67546 16.9743C8.4545 16.8397 8.07158 16.757 7.82375 16.6306C7.41161 16.4206 7.06597 16.1758 6.74017 15.8479C6.59418 15.7009 6.47019 15.5243 6.30169 15.406L6.28357 15.3935C6.23987 15.5839 6.07135 15.7266 5.87925 15.6774C5.5785 15.6001 5.71598 14.9011 5.72173 14.6515C5.68265 14.6162 5.65179 14.5804 5.62899 14.5326C5.4386 14.1343 5.13415 12.3997 5.13033 11.9118C5.12819 11.6368 5.16431 11.361 5.25264 11.1C5.62958 9.98618 6.46354 9.76568 7.46942 9.44592C7.93474 9.298 8.41775 9.12825 8.84604 8.89177C9.07111 8.7675 9.28005 8.61974 9.46224 8.43754C9.59794 8.30185 9.6866 8.10897 9.86224 8.02177Z" fill="#6281AA"/>
<path d="M10.6569 6.44423C10.6648 6.46085 10.6675 6.47908 10.6703 6.49753C10.6748 6.52812 10.6795 6.55931 10.708 6.58481L10.7495 6.55984C10.7686 6.56292 10.7935 6.58071 10.8208 6.60625L10.6569 6.44423Z" fill="#6281AA"/>
<path fill-rule="evenodd" clip-rule="evenodd" d="M14.6127 1.2622C13.8498 0.699604 12.6637 0.113432 11.7075 0.209444C10.7948 0.287385 9.74842 0.673008 9.15006 1.39462C8.54917 2.11927 8.45458 3.12191 8.36735 4.04648C8.35254 4.20348 8.33794 4.35823 8.32111 4.50898C8.30727 4.65151 8.26698 4.80821 8.22608 4.9673C8.16553 5.20285 8.10362 5.44363 8.12422 5.65144C8.15789 5.99125 8.42008 6.31735 8.65415 6.60847C8.72573 6.6975 8.79469 6.78325 8.85367 6.86513C9.0117 7.0845 9.03485 7.20543 8.84786 7.42388C8.75378 7.53379 8.64767 7.64139 8.54024 7.75032C8.16915 8.12662 7.78237 8.51883 7.82152 9.07695C7.98548 9.0482 8.09951 9.0099 8.24063 8.91569C8.29281 8.7119 8.30634 8.66479 8.41541 8.48912C8.51691 8.32564 8.67636 8.17081 8.83748 8.01434C9.21486 7.64788 9.60149 7.27244 9.27474 6.75575C9.19976 6.63718 9.10174 6.51695 9.0016 6.39412C8.79392 6.13938 8.57709 5.87341 8.53756 5.58776C8.52626 5.50608 8.55577 5.35887 8.57734 5.2782C8.65499 4.98782 8.72084 4.72682 8.75575 4.42736C8.77397 4.27104 8.78918 4.11172 8.8045 3.9513C8.90708 2.8769 9.01434 1.75359 10.0614 1.15518C10.8053 0.730012 11.7111 0.488519 12.5675 0.706418C13.3819 0.913676 14.1104 1.3719 14.7577 1.89473C14.9342 2.03727 15.1774 2.24775 15.3203 2.4163C14.4145 3.45999 13.2848 3.75352 11.9461 3.66686C11.2725 3.62326 10.6601 3.59522 10.3509 4.30129C9.94796 4.13244 9.31602 3.86936 9.08021 4.42877C8.93876 4.76434 9.23074 5.127 9.44806 5.39693C9.47633 5.43205 9.50333 5.46559 9.52796 5.4973C9.6054 5.59988 9.66338 5.68564 9.73425 5.80252C9.7492 5.82716 9.76765 5.86963 9.7895 5.91991C9.87744 6.12229 10.0203 6.45114 10.2103 6.2523C10.4249 6.02766 10.1071 5.60107 9.82281 5.21951C9.60002 4.92046 9.39785 4.64907 9.48877 4.52426C9.63717 4.42622 9.86625 4.53066 10.0902 4.63276C10.2909 4.72424 10.4875 4.81386 10.6182 4.7543C10.6816 4.72546 10.721 4.59666 10.7534 4.49088C10.7678 4.44378 10.7809 4.40125 10.794 4.37414C10.9292 4.05658 11.3006 4.03935 11.6018 4.06048C12.9112 4.15235 14.0918 4.05584 15.1535 3.16756C15.2835 3.71748 15.2485 4.35263 15.0337 4.88115C15.0029 4.95708 14.9729 5.01594 14.9447 5.07104C14.8907 5.17696 14.8437 5.26901 14.8119 5.44177C14.7883 5.57007 14.8036 5.71521 14.8187 5.85879C14.8395 6.05686 14.8601 6.25196 14.7778 6.3958C14.7201 6.4824 14.6184 6.5422 14.5178 6.6013C14.429 6.65352 14.3411 6.7052 14.2852 6.77436C14.1832 6.90067 14.0906 7.06288 13.9944 7.23136C13.7633 7.63599 13.5115 8.07685 13.0595 8.14383C12.2739 8.26022 11.5571 7.44779 11.0729 6.899C11.0562 6.88011 11.0398 6.86154 11.0237 6.84332C11.0102 6.82809 10.9919 6.80513 10.9708 6.77874C10.9264 6.72308 10.8698 6.65215 10.8208 6.60625C10.7935 6.58071 10.7686 6.56292 10.7495 6.55984L10.708 6.58481C10.6795 6.55931 10.6748 6.52812 10.6703 6.49753C10.6675 6.47908 10.6648 6.46085 10.6569 6.44423L10.6129 6.40079C10.5136 6.34937 10.3822 6.4094 10.3506 6.51504C10.325 6.62271 10.4211 6.76466 10.4874 6.84355C10.5277 6.8906 10.5684 6.93846 10.6095 6.98685C11.1865 7.66525 11.8516 8.44729 12.7725 8.56196C13.132 8.60672 13.4688 8.48765 13.7419 8.26358C13.991 8.0649 14.149 7.78968 14.3057 7.51668C14.3938 7.36318 14.4815 7.21039 14.5848 7.07229C14.6429 6.99462 14.7331 6.93839 14.8272 6.87979C14.9379 6.81085 15.0539 6.73861 15.1289 6.62432C15.2856 6.38544 15.2607 6.16024 15.2347 5.92534C15.2195 5.78792 15.204 5.64719 15.2242 5.49845C15.2391 5.38922 15.301 5.26748 15.3618 5.14802C15.4074 5.05822 15.4525 4.96971 15.4763 4.88878C15.6655 4.35638 15.7582 3.37228 15.4564 2.86899C15.4674 2.8562 15.4813 2.84059 15.497 2.82285C15.6082 2.6977 15.8135 2.46654 15.7839 2.37326C15.6832 2.05587 14.8533 1.43956 14.6127 1.2622Z" fill="#6281AA"/>
<path d="M14.2719 7.9198C14.3379 7.93172 14.5323 8.00569 14.6072 8.03002C14.8353 8.10175 15.0717 8.14361 15.3105 8.15455C16.1993 8.20182 17.2417 7.82682 18.0732 8.318C19.6367 9.24174 18.944 10.9453 18.5844 12.2953C18.3115 13.3049 18.0478 14.3171 17.7931 15.3314C17.7329 15.5719 17.6839 15.9007 17.5948 16.1171C17.5711 16.1748 17.4955 16.1919 17.4391 16.2066C17.1738 16.16 17.2073 15.9891 17.2592 15.7775C17.3232 15.5169 17.3849 15.2552 17.4494 14.9948C17.6899 14.0345 17.9404 13.0766 18.2008 12.1216C18.3602 11.5264 18.5656 10.8546 18.6408 10.2485C18.6737 9.98328 18.6327 9.63056 18.5147 9.38575C18.0913 8.50657 17.3645 8.43785 16.484 8.495C16.252 8.51007 16.011 8.55852 15.7825 8.56857C15.2991 8.58981 14.7939 8.54489 14.3366 8.38042C14.2612 8.35127 14.1263 8.28921 14.1026 8.20114C14.0633 8.05558 14.1464 7.96122 14.2719 7.9198Z" fill="#6281AA"/>
<path d="M13.4245 16.4584C13.5924 16.4829 13.5816 16.654 13.5962 16.7951C13.6625 17.4412 13.4625 18.0552 13.4104 18.6902C13.3703 19.1806 13.652 19.6268 13.8098 20.0721C13.975 20.5251 14.1443 21.0277 14.1679 21.5154C14.0852 21.5966 14.0487 21.6206 13.9376 21.6513C13.9064 21.6441 13.8353 21.6279 13.8275 21.5898C13.8015 21.421 13.7724 21.2477 13.7509 21.0775C13.6603 20.354 13.12 19.6438 13.0602 18.9427C12.996 18.188 13.4123 17.3636 13.1641 16.6112C13.2562 16.5393 13.311 16.4908 13.4245 16.4584Z" fill="#6281AA"/>
<path d="M6.04613 15.8695C6.17592 15.8764 6.26836 15.9501 6.36228 16.0373C6.49077 16.7167 6.68057 17.4036 6.87925 18.0659C6.93208 18.2419 7.3132 19.3032 7.29878 19.3814C7.28726 19.444 7.23037 19.4863 7.18373 19.5228C7.11393 19.5446 7.01028 19.5671 6.95899 19.4956C6.86799 19.3612 6.82313 19.1979 6.76914 19.0407C6.43033 18.0545 6.14329 17.0366 5.94467 16.013C5.93474 15.9618 6.01161 15.8992 6.04613 15.8695Z" fill="#6281AA"/>
<path d="M11.6925 0.062376C12.2037 0.0110478 12.7646 0.14273 13.2873 0.352084C13.8118 0.562182 14.3101 0.855544 14.7002 1.14325C14.8208 1.23211 15.0923 1.43349 15.347 1.65336C15.4742 1.76313 15.5999 1.87988 15.7012 1.99119C15.7983 2.09788 15.8889 2.21669 15.9245 2.32902C15.9496 2.40873 15.9201 2.48533 15.9014 2.52633C15.8787 2.57591 15.8459 2.62688 15.8129 2.67263C15.7564 2.75072 15.6869 2.83015 15.6338 2.89015C15.7653 3.16826 15.8067 3.52849 15.7984 3.87189C15.789 4.25715 15.7164 4.64759 15.6175 4.92966L15.6184 4.93062C15.5899 5.02726 15.5372 5.12927 15.4933 5.21551C15.4289 5.34212 15.3819 5.43959 15.3711 5.5187C15.3537 5.64657 15.3662 5.76991 15.3817 5.90946C15.4041 6.11238 15.4328 6.34884 15.3133 6.59764L15.2527 6.70544C15.1569 6.85136 15.011 6.93982 14.9052 7.00573C14.8052 7.06806 14.7413 7.10964 14.7031 7.16069C14.6061 7.29036 14.5225 7.43506 14.4336 7.58996C14.3977 7.65251 14.3608 7.71687 14.322 7.78149C14.3687 7.79288 14.4324 7.81242 14.4846 7.83058C14.5551 7.85508 14.6173 7.87767 14.6531 7.88929C14.8688 7.95707 15.0914 7.99636 15.3172 8.00672C15.5285 8.01795 15.7528 8.00432 15.9871 7.98362C16.2178 7.96322 16.4642 7.93541 16.7051 7.92202C17.1891 7.89511 17.6945 7.92218 18.1488 8.19055C18.5621 8.43479 18.8336 8.7355 18.9967 9.07507C19.1592 9.41305 19.2097 9.78012 19.1979 10.1511C19.1745 10.8835 18.9027 11.6744 18.7273 12.3331C18.4546 13.3418 18.1906 14.3544 17.9361 15.3678C17.9066 15.4859 17.8818 15.6196 17.8495 15.7653C17.8184 15.9051 17.7818 16.0524 17.732 16.1734C17.7 16.2513 17.6363 16.2913 17.5915 16.312C17.5479 16.3321 17.499 16.3435 17.476 16.3495L17.4452 16.3582L17.4135 16.3524C17.3329 16.3383 17.2595 16.3123 17.2008 16.2667C17.1389 16.2187 17.1026 16.1559 17.0862 16.0887C17.071 16.0258 17.074 15.9625 17.0814 15.9077C17.0889 15.8524 17.1032 15.7946 17.1161 15.7422C17.1792 15.4848 17.2414 15.218 17.3057 14.9587C17.5463 13.9975 17.7977 13.0388 18.0583 12.0828C18.2199 11.4794 18.4208 10.8227 18.4943 10.2301C18.5243 9.98749 18.4851 9.66399 18.3817 9.44948C18.186 9.0432 17.9275 8.83477 17.6223 8.72858C17.3078 8.61913 16.9313 8.61448 16.4933 8.64292C16.3832 8.65009 16.27 8.66501 16.1507 8.68045C16.0334 8.69563 15.91 8.71073 15.7888 8.71607C15.2931 8.73782 14.7672 8.69266 14.2864 8.51972L14.2835 8.51876C14.242 8.50272 14.1777 8.47544 14.1189 8.43694C14.0693 8.40448 13.9977 8.3458 13.9668 8.25696C13.9254 8.29888 13.8821 8.33959 13.8349 8.37727C13.5352 8.62306 13.1594 8.75883 12.7541 8.70837C12.2558 8.64627 11.8334 8.4043 11.4672 8.09911C11.1025 7.79503 10.784 7.42007 10.4971 7.08273C10.4559 7.03431 10.4149 6.98613 10.3748 6.93932L10.3739 6.93836C10.3364 6.89375 10.2877 6.8284 10.2516 6.75549C10.2179 6.68738 10.1817 6.58592 10.2064 6.48118L10.2083 6.47252C10.2138 6.45421 10.2229 6.43724 10.2314 6.42054C10.1794 6.45101 10.1207 6.46856 10.0553 6.45904C9.96111 6.44528 9.89321 6.3835 9.8493 6.33199C9.76159 6.229 9.69499 6.0733 9.65392 5.97876C9.6301 5.92396 9.61612 5.89358 9.60772 5.87963C9.53968 5.76743 9.48498 5.68559 9.41137 5.58799L9.33245 5.48982C9.22584 5.35741 9.08839 5.18612 8.9975 5.0028C8.90618 4.81857 8.84909 4.59585 8.9436 4.37142C9.01413 4.20411 9.12038 4.08747 9.25352 4.01818C9.38399 3.95031 9.52735 3.93437 9.66354 3.94407C9.87595 3.95924 10.0968 4.04143 10.2776 4.11443C10.449 3.80342 10.6903 3.63758 10.9725 3.56004C11.2766 3.47651 11.624 3.49818 11.9552 3.51962C13.219 3.60143 14.2676 3.33561 15.1189 2.41661C14.985 2.27892 14.8063 2.1239 14.6646 2.00948C14.0253 1.49315 13.3159 1.04949 12.5308 0.849688C11.724 0.644479 10.8585 0.870393 10.1352 1.28377C9.16489 1.83831 9.05546 2.87443 8.9513 3.96525C8.93601 4.12538 8.92065 4.28645 8.90222 4.44456C8.86596 4.75547 8.79813 5.02558 8.72031 5.31657C8.71074 5.35238 8.69916 5.40425 8.69143 5.45517C8.68319 5.50968 8.68118 5.54929 8.68373 5.56778C8.69945 5.68099 8.75175 5.79806 8.83099 5.92294C8.91049 6.04813 9.01104 6.17163 9.11589 6.30023C9.21463 6.42134 9.31918 6.54907 9.39982 6.67656C9.49318 6.82419 9.54027 6.96979 9.54516 7.11353C9.54997 7.25705 9.51187 7.389 9.4518 7.50815C9.33537 7.73885 9.12414 7.94218 8.94072 8.12029C8.77602 8.28022 8.6313 8.42202 8.54129 8.56688C8.48804 8.65264 8.46268 8.70006 8.44408 8.74687C8.42478 8.79548 8.40998 8.84824 8.38344 8.95187C8.51738 8.89291 8.64881 8.83149 8.77421 8.76227C8.98978 8.64324 9.18707 8.50338 9.35747 8.333C9.41784 8.27263 9.46076 8.2077 9.53168 8.11933C9.5962 8.03897 9.67894 7.94761 9.79637 7.88929L9.83871 7.86812L9.88588 7.87582C10.0003 7.89424 10.1023 7.93568 10.1679 8.0173C10.2369 8.10324 10.242 8.20417 10.2256 8.2868C10.2097 8.36682 10.1713 8.4434 10.1313 8.50721C10.0903 8.57249 10.0417 8.63309 9.99752 8.68334C9.30629 9.46892 8.25713 9.7719 7.35551 10.0674C7.04986 10.1676 6.69241 10.2766 6.44692 10.4283C6.22698 10.5649 6.04564 10.7557 5.91948 10.9818L5.91852 10.9827C5.55544 11.6255 5.70489 12.2962 5.85211 13.0559C5.91761 13.394 6.0013 13.7696 6.09177 14.105C6.1333 14.117 6.17503 14.1319 6.21496 14.1483C6.29002 14.1793 6.36893 14.2184 6.44404 14.2571C6.60188 14.3384 6.73471 14.413 6.82999 14.4486L7.00901 14.5256C7.07823 14.5599 7.15099 14.6024 7.20728 14.6527C7.26226 14.7018 7.33354 14.787 7.32663 14.9029C7.3195 15.0224 7.23362 15.1075 7.13702 15.1666C7.08033 15.2012 7.01873 15.2014 6.9811 15.1984C6.9396 15.195 6.89835 15.1848 6.86368 15.1743C6.85004 15.1702 6.83619 15.1638 6.82229 15.1589C6.81473 15.1755 6.80785 15.1926 6.80015 15.2109C6.90808 15.3992 6.99938 15.5176 7.10622 15.6171C7.2271 15.7295 7.37278 15.8236 7.60287 15.9665C7.79686 16.0873 7.99885 16.1868 8.20442 16.2706C7.98672 15.885 7.7457 15.4271 7.64618 14.9992C7.62114 14.8913 7.61414 14.7541 7.60575 14.6459C7.59634 14.5245 7.58492 14.4358 7.56148 14.3822C7.4292 14.0798 7.22664 13.8036 7.02056 13.5208L7.02153 13.5189C7.00401 13.4969 6.98718 13.4735 6.97629 13.4524C6.96177 13.4244 6.94815 13.3915 6.93683 13.3581C6.92574 13.3254 6.91555 13.2863 6.9118 13.2474C6.90858 13.2137 6.90754 13.1535 6.94068 13.0983L6.97725 13.0453C7.01683 12.9952 7.06589 12.9551 7.12644 12.9327C7.20889 12.9022 7.28988 12.9125 7.35743 12.9394C7.48235 12.9894 7.59315 13.1064 7.67794 13.2138C7.74514 13.2989 7.80618 13.3946 7.85889 13.4813C7.92996 13.3057 8.02992 13.0837 8.14859 12.8721C8.2804 12.637 8.4424 12.3986 8.61636 12.2532L8.65582 12.2272C8.69588 12.208 8.73647 12.2058 8.76362 12.207C8.80198 12.2087 8.8395 12.2187 8.87142 12.2291C8.93613 12.2503 9.0077 12.2853 9.07258 12.3206C9.13876 12.3565 9.2045 12.3965 9.2593 12.4303L9.38154 12.5044C9.67148 12.6716 9.97038 12.8236 10.2766 12.9587C11.2995 13.4012 12.1103 13.3568 12.8696 13.0703C13.643 12.7785 14.3626 12.2385 15.2142 11.667L15.2228 11.6613L15.2315 11.6565C15.3124 11.6169 15.3952 11.6271 15.4567 11.6459C15.5189 11.6648 15.5777 11.6981 15.6261 11.7306C15.7224 11.7952 15.8101 11.8784 15.8446 11.9096C16.0807 12.1228 16.3675 12.4132 16.5828 12.7421C16.7967 13.069 16.9528 13.4542 16.8908 13.8509C16.789 14.5021 16.6031 15.1505 16.4279 15.7884C16.2517 16.4298 16.0854 17.0629 16.014 17.6999C15.9396 18.3642 16.0676 19.1081 16.272 19.7615C16.3424 19.67 16.4113 19.5787 16.477 19.4863C16.5486 19.3852 16.5968 19.2702 16.6444 19.1398C16.6817 19.0376 16.7229 18.9216 16.7734 18.8087C16.7561 18.7884 16.7398 18.7674 16.7253 18.7442C16.7052 18.7122 16.6903 18.6791 16.6772 18.6441C16.6759 18.6449 16.6746 18.6462 16.6733 18.647C16.6319 18.6722 16.579 18.7043 16.5261 18.7269C16.4793 18.7468 16.3989 18.7748 16.3162 18.7519C16.2239 18.726 16.1669 18.6562 16.1362 18.6046C16.1276 18.5898 16.1073 18.557 16.0929 18.5218C16.0799 18.4899 16.0591 18.4267 16.0785 18.3573C16.1082 18.2511 16.1932 18.1721 16.2373 18.133C16.3143 18.0647 16.5369 17.9038 16.7522 17.7557C16.862 17.6802 16.9737 17.6053 17.0679 17.5449C17.1586 17.4869 17.2427 17.4354 17.2941 17.4121L17.4173 17.3678C17.4422 17.3613 17.4725 17.355 17.5039 17.3534C17.5324 17.3519 17.5806 17.3531 17.6271 17.3784C17.6837 17.4093 17.7195 17.4577 17.7407 17.493C17.7628 17.5296 17.778 17.5674 17.7879 17.5931L17.8254 17.7134C17.8622 17.855 17.8967 18.0537 17.9178 18.2437C17.9321 18.3729 17.9405 18.5047 17.939 18.6191C17.9375 18.7254 17.9275 18.8431 17.887 18.9261C17.8574 18.9868 17.8095 19.0532 17.7378 19.0974L17.6579 19.133C17.5389 19.1687 17.4119 19.1364 17.3249 19.0849C17.3169 19.0801 17.3101 19.0738 17.3028 19.0685C17.268 19.1565 17.2304 19.2489 17.1921 19.3438C17.1119 19.5427 17.0241 19.7483 16.9313 19.9059C16.3404 20.9075 15.3555 21.8024 14.4269 22.443C12.6334 23.6797 10.2796 23.971 8.18324 23.9503C7.81179 23.9487 7.44063 23.9315 7.07061 23.8992C7.03133 23.8962 6.89814 23.8943 6.79919 23.8819C6.74523 23.8751 6.68508 23.8642 6.63076 23.8444C6.5796 23.8257 6.51161 23.7911 6.46906 23.7231L6.45077 23.6952L6.44692 23.6615C6.43501 23.5566 6.46591 23.4236 6.49505 23.3179C6.52473 23.2102 6.56581 23.0872 6.58552 23.0215C6.78749 22.3441 7.05384 21.6878 7.37957 21.0609L7.52298 20.7933C7.82662 20.2397 8.15926 19.7163 8.3921 19.1571C8.65338 18.5295 8.79722 17.6981 8.55669 17.0781C8.46585 17.0302 8.34684 16.9864 8.21115 16.9395C8.06178 16.8879 7.8922 16.8314 7.75686 16.7624C7.332 16.546 6.97329 16.2919 6.63557 15.952C6.55985 15.8758 6.48422 15.7859 6.41997 15.7152C6.39129 15.6837 6.36238 15.655 6.33431 15.6277C6.29873 15.6775 6.25569 15.7212 6.20534 15.7557C6.27475 15.782 6.33439 15.8194 6.38532 15.8606L6.46328 15.9289L6.4989 15.9616L6.50756 16.0098C6.6346 16.6815 6.82239 17.3626 7.02056 18.0233C7.04607 18.1083 7.15267 18.4113 7.25445 18.7134C7.30452 18.862 7.35307 19.009 7.38823 19.1244C7.40575 19.1818 7.4205 19.2339 7.43058 19.2745C7.43551 19.2944 7.44019 19.3139 7.44309 19.3313C7.44477 19.3414 7.45027 19.3746 7.44406 19.4083C7.43129 19.4775 7.39455 19.5287 7.36224 19.5633C7.33124 19.5963 7.29474 19.6236 7.27466 19.6393L7.25348 19.6557L7.2275 19.6643C7.18937 19.6762 7.12722 19.6932 7.06195 19.6922C6.99367 19.6912 6.90124 19.6687 6.83865 19.5815L6.83673 19.5787C6.78413 19.5009 6.74409 19.4144 6.71161 19.3294L6.62979 19.0888C6.28925 18.0975 5.99933 17.073 5.79917 16.0415C5.78869 15.9875 5.80333 15.9408 5.81746 15.9106C5.8317 15.8803 5.85074 15.8548 5.86654 15.8365C5.87004 15.8325 5.87448 15.8289 5.87809 15.825L5.84248 15.8202C5.70288 15.7843 5.62718 15.6762 5.58839 15.5699C5.55058 15.4662 5.53871 15.3443 5.53738 15.2311C5.53603 15.1155 5.54563 14.9959 5.5547 14.8933C5.56137 14.8178 5.56552 14.7547 5.56914 14.7046C5.54213 14.6736 5.51646 14.6387 5.49599 14.5959C5.441 14.4808 5.38275 14.2844 5.32755 14.0588C5.27134 13.8291 5.21445 13.557 5.16393 13.2831C5.0637 12.7395 4.98404 12.1711 4.98202 11.9125C4.97982 11.6243 5.01852 11.332 5.11292 11.053C5.31279 10.4624 5.63771 10.1007 6.04749 9.84891C6.44795 9.60285 6.92945 9.46258 7.42481 9.30511C7.51082 9.27776 7.59663 9.24836 7.68275 9.21944L7.67409 9.08758C7.62949 8.45184 8.07518 8.01204 8.43541 7.64675C8.54349 7.53716 8.64568 7.43332 8.73571 7.32816C8.82147 7.22797 8.83271 7.17778 8.83196 7.14818C8.83089 7.11225 8.81141 7.05962 8.73378 6.95183C8.67752 6.87374 8.61153 6.79039 8.53936 6.70063C8.42347 6.55648 8.29271 6.39562 8.18806 6.22612C8.08345 6.05668 7.99725 5.86762 7.97727 5.66596C7.95358 5.42679 8.02458 5.15843 8.08314 4.93062C8.1248 4.76861 8.16111 4.62349 8.17362 4.49461L8.17458 4.49269C8.19124 4.34343 8.20498 4.18984 8.21982 4.03262C8.30601 3.11898 8.40082 2.06618 9.036 1.30013C9.66792 0.538049 10.7572 0.142783 11.6925 0.062376ZM15.3576 11.9259C14.5357 12.4785 13.7818 13.0426 12.9735 13.3475C12.1441 13.6604 11.255 13.7037 10.1602 13.2301C9.84379 13.0906 9.5348 12.9331 9.23524 12.7604C9.20582 12.7437 9.15503 12.7127 9.10434 12.6815C9.05081 12.6485 8.99005 12.6125 8.93109 12.5804C8.87094 12.5478 8.81869 12.5229 8.77998 12.5102C8.77843 12.5097 8.77661 12.5087 8.77517 12.5083C8.6535 12.6216 8.52444 12.8062 8.40654 13.0164C8.28056 13.2411 8.17417 13.4795 8.10721 13.6526C8.07852 13.7273 8.05191 13.803 8.02636 13.8788L7.91567 14.2061L7.75494 13.9C7.732 13.8563 7.60071 13.5938 7.44502 13.3966C7.3641 13.2942 7.29482 13.2336 7.24771 13.2147C7.2385 13.211 7.23277 13.2101 7.23038 13.2099C7.23037 13.2099 7.22782 13.2101 7.22653 13.2109C7.22523 13.2117 7.22335 13.2133 7.22076 13.2157C7.21742 13.2188 7.21319 13.2237 7.20825 13.2301C7.20993 13.2386 7.21247 13.2497 7.21691 13.2628C7.2233 13.2817 7.23124 13.3006 7.23905 13.3158C7.24289 13.3232 7.24626 13.3293 7.24867 13.3331L7.25445 13.3398L7.25926 13.3466C7.46105 13.6235 7.68431 13.9264 7.83194 14.2638C7.8787 14.3707 7.8925 14.5101 7.90124 14.6228C7.911 14.7488 7.91548 14.8532 7.93396 14.9327C8.03823 15.3808 8.31961 15.8817 8.56439 16.3081C8.56245 16.3048 8.56322 16.3072 8.57112 16.3158C8.57823 16.3236 8.58772 16.3334 8.59904 16.3437C8.60356 16.3479 8.60885 16.3513 8.61347 16.3553C8.64669 16.3498 8.67284 16.3452 8.69528 16.3389C8.60149 16.1409 8.50221 15.9584 8.40558 15.7749C8.30586 15.5855 8.2101 15.395 8.13897 15.1984C7.994 14.7974 7.95181 14.3714 8.15052 13.8423C8.31133 13.4141 8.4568 13.1408 8.71453 12.7546L8.7925 12.6372L8.91377 12.7104C10.2909 13.5377 11.2574 13.8097 12.1766 13.6796C13.1051 13.5481 14.0125 13.0036 15.269 12.1223L15.3557 12.0617L15.4413 12.1242C15.6431 12.2727 15.8764 12.4801 16.0698 12.7171C16.2615 12.9519 16.4253 13.2291 16.4673 13.5179L16.475 13.6199C16.4774 13.7301 16.4641 13.8622 16.4433 13.9991C16.4149 14.1861 16.37 14.3986 16.3191 14.6094C16.2175 15.0305 16.0894 15.4543 16.013 15.671L15.9861 15.747L15.9072 15.7653C15.3156 15.9055 14.7805 15.9272 14.1853 15.8818C14.1185 15.8766 13.9494 15.8529 13.808 15.8365C13.7337 15.8279 13.6638 15.8215 13.6097 15.8182C13.5826 15.8166 13.5621 15.8159 13.5481 15.8163C13.5471 15.8163 13.5461 15.8163 13.5452 15.8163C13.2002 15.9692 12.7163 16.1944 12.3691 16.3428C10.9131 16.9652 9.19107 17.1388 7.73473 16.3813L7.44694 16.2177C7.35998 16.1637 7.28246 16.1125 7.21017 16.0646C7.41943 16.2289 7.64091 16.3715 7.89065 16.4987C8.00306 16.556 8.14921 16.6045 8.30837 16.6594C8.42175 16.6986 8.54377 16.7417 8.65101 16.7932L8.75207 16.8481L8.7925 16.8731L8.81174 16.9164C9.12393 17.6492 8.94497 18.5993 8.66545 19.2707C8.54495 19.5601 8.39724 19.8439 8.24292 20.1215L7.78189 20.9367C7.40033 21.6248 7.09422 22.3523 6.86945 23.1062C6.84342 23.193 6.80971 23.2879 6.77994 23.3959C6.76067 23.4658 6.74963 23.5245 6.74433 23.5681C6.76787 23.5754 6.79877 23.5836 6.83673 23.5884C6.9347 23.6006 7.01256 23.5984 7.09371 23.6047C7.45625 23.6363 7.82128 23.6533 8.18517 23.6548C10.2636 23.6754 12.5424 23.3836 14.2594 22.1995L14.6011 21.9531C15.399 21.3543 16.1854 20.5877 16.6762 19.7558C16.7042 19.7083 16.729 19.653 16.757 19.595C16.7443 19.6156 16.7329 19.6374 16.7185 19.6576C15.7173 21.0678 14.1506 22.4098 12.4721 22.9425C10.8108 23.4698 8.77619 23.6443 7.06484 23.5017L6.88678 23.4873L6.93394 23.316C7.06439 22.8398 7.2289 22.3736 7.42577 21.9213L7.63366 21.4738C7.7868 21.1608 7.96012 20.8558 8.13031 20.5556C8.30138 20.2538 8.46965 19.9567 8.61732 19.6537C8.91223 19.0487 9.11914 18.4309 9.09471 17.7393C9.09077 17.6279 9.08875 17.5067 9.07258 17.39C9.05616 17.2716 9.02755 17.1786 8.98403 17.1185L8.79057 16.8519L9.11878 16.8847C9.42017 16.9153 9.74258 16.9534 10.0293 16.953C11.2257 16.9512 12.4051 16.5084 13.4856 15.9674L13.5241 15.9482L13.5674 15.952C14.3002 16.0263 15.0083 16.078 15.7137 15.9328L15.7753 15.9203L15.8263 15.9559L15.8485 15.9703L15.9332 16.0281L15.9091 16.1262C15.6298 17.3142 15.4403 17.9643 15.6868 19.1773C15.7372 19.4258 15.7875 19.6733 15.8716 19.8972C15.9054 19.8644 15.9389 19.8311 15.9736 19.7962C15.7717 19.1328 15.642 18.3679 15.7205 17.6672C15.7947 17.0043 15.9671 16.3509 16.143 15.7104C16.3199 15.0663 16.4996 14.4366 16.5982 13.8057C16.6439 13.5136 16.532 13.2041 16.3355 12.9038C16.1403 12.6057 15.8746 12.3352 15.6463 12.129C15.6035 12.0903 15.5355 12.0256 15.4615 11.976C15.4246 11.9512 15.3929 11.9358 15.3701 11.9288C15.3645 11.9271 15.3604 11.9264 15.3576 11.9259ZM13.449 16.312C13.5158 16.3223 13.5751 16.35 13.6222 16.3948C13.6684 16.4387 13.694 16.4912 13.7089 16.5382C13.7236 16.5846 13.7299 16.6325 13.7339 16.672C13.7359 16.6919 13.7373 16.7119 13.7387 16.7297C13.7401 16.7481 13.7419 16.7643 13.7435 16.7798C13.7786 17.1219 13.7422 17.4521 13.6935 17.7692C13.6438 18.092 13.5832 18.3921 13.5578 18.7028C13.5404 18.9161 13.5921 19.1264 13.6742 19.3467C13.7152 19.4568 13.7626 19.5658 13.8109 19.6788C13.8587 19.7905 13.9083 19.9061 13.9495 20.0224C14.1143 20.4742 14.2905 20.996 14.3152 21.5084L14.3191 21.5748L14.2719 21.621C14.2293 21.6629 14.1883 21.6993 14.1391 21.7288C14.089 21.7588 14.0375 21.7767 13.9774 21.7933L13.9408 21.8039L13.9042 21.7953C13.8903 21.792 13.8522 21.7839 13.8157 21.7683C13.7972 21.7604 13.772 21.747 13.7483 21.7269C13.7244 21.7066 13.6936 21.6716 13.6829 21.6191L13.6809 21.6124C13.6554 21.4464 13.6257 21.2692 13.604 21.0965C13.5617 20.7601 13.4144 20.4215 13.2584 20.0609C13.1065 19.7098 12.9452 19.3337 12.9129 18.955C12.8788 18.5539 12.9723 18.1331 13.0351 17.7519C13.0999 17.3587 13.1354 16.9964 13.0236 16.6575L12.9908 16.5584L13.0736 16.4949C13.0801 16.4898 13.0864 16.4845 13.0929 16.4795C12.1365 16.9122 11.0963 17.2469 10.0293 17.2485C9.80631 17.2488 9.56447 17.2263 9.3363 17.2032C9.34888 17.2528 9.35859 17.3021 9.36517 17.3495C9.38397 17.4852 9.38655 17.6255 9.3902 17.7288C9.41702 18.4884 9.18809 19.1566 8.88297 19.7827C8.73064 20.0952 8.55757 20.4005 8.38729 20.7009C8.30167 20.852 8.21634 21.0021 8.13416 21.1523L7.89835 21.6047C7.64233 22.1236 7.43471 22.6646 7.27177 23.2197C8.91104 23.3328 10.8215 23.1569 12.3826 22.6615C13.6343 22.2642 14.8336 21.3855 15.7638 20.366L15.6877 20.2158C15.5291 19.9051 15.4596 19.5445 15.3971 19.236C15.1509 18.0247 15.3214 17.3252 15.5751 16.2562C14.9017 16.3631 14.234 16.3152 13.578 16.2494C13.5353 16.2707 13.4921 16.291 13.449 16.312ZM13.4211 16.6161C13.3896 16.629 13.3644 16.6454 13.3325 16.6691C13.4304 17.0497 13.3865 17.4373 13.3268 17.8C13.2596 18.2076 13.1774 18.5765 13.2074 18.9299C13.2349 19.2522 13.374 19.5833 13.5298 19.9434C13.6813 20.2936 13.849 20.6723 13.8975 21.059C13.9152 21.1995 13.9385 21.3411 13.961 21.4844C13.9712 21.4802 13.9803 21.4797 13.987 21.4757C13.9954 21.4707 14.0027 21.4621 14.014 21.4526C13.9798 21.0115 13.8286 20.5535 13.6713 20.1225L13.6704 20.1215C13.6327 20.0152 13.5876 19.9077 13.5395 19.7952C13.492 19.6842 13.4411 19.5679 13.397 19.4497C13.3089 19.2131 13.2406 18.9546 13.2632 18.6778L13.2892 18.4352C13.3209 18.1927 13.3667 17.9523 13.4018 17.7239C13.4495 17.4141 13.4801 17.1142 13.449 16.8106C13.447 16.7909 13.4456 16.7707 13.4442 16.7528C13.4427 16.7342 13.441 16.717 13.4394 16.7008C13.436 16.668 13.4322 16.6447 13.4269 16.6277C13.4252 16.6224 13.4224 16.619 13.4211 16.6161ZM6.0985 16.03C6.29519 17.0303 6.57689 18.026 6.90891 18.9925C6.96468 19.1548 7.00118 19.2858 7.07061 19.3958C7.07736 19.3955 7.08638 19.3951 7.09756 19.3929C7.10298 19.3918 7.10827 19.3895 7.11392 19.3881C7.12775 19.377 7.13849 19.3698 7.14665 19.3611C7.14568 19.3569 7.14508 19.3511 7.14376 19.3457C7.13556 19.3127 7.12224 19.2667 7.10526 19.211C7.07141 19.1 7.0243 18.9559 6.97436 18.8077C6.87598 18.5156 6.76492 18.199 6.73759 18.108C6.54332 17.4603 6.35712 16.7852 6.22748 16.1147C6.1782 16.0716 6.13829 16.0445 6.0985 16.03ZM17.4163 17.6816C17.3876 17.6946 17.3208 17.734 17.2267 17.7942C17.1361 17.8523 17.0277 17.925 16.9197 17.9992C16.7001 18.1503 16.4939 18.3008 16.4337 18.3544C16.4136 18.3722 16.3961 18.3897 16.3826 18.4064C16.3779 18.4122 16.3748 18.4175 16.3721 18.4217C16.3731 18.4239 16.3746 18.426 16.3759 18.4285C16.3804 18.4367 16.3846 18.4447 16.3903 18.4545L16.3942 18.4593C16.3983 18.4579 16.4043 18.4571 16.4106 18.4545C16.4412 18.4414 16.4772 18.4205 16.5193 18.3948C16.5563 18.3723 16.6057 18.3407 16.6464 18.3217C16.6657 18.3126 16.6982 18.2992 16.7349 18.2957C16.7761 18.2917 16.8507 18.3006 16.8966 18.3727C16.9087 18.3917 16.9169 18.4103 16.9207 18.4217C16.9248 18.4342 16.9273 18.4464 16.9293 18.4554C16.9314 18.4644 16.933 18.4739 16.9341 18.4795C16.9347 18.4824 16.9357 18.4845 16.9361 18.4862C16.9364 18.4879 16.9361 18.4891 16.9361 18.4891C16.9492 18.5382 16.9619 18.5656 16.9755 18.5873C16.9895 18.6096 17.0099 18.6337 17.0496 18.6701L17.1189 18.7336C17.1281 18.7118 17.137 18.6904 17.1459 18.6701L17.323 18.2658L17.425 18.6951C17.4371 18.7461 17.4423 18.7746 17.4529 18.8C17.4613 18.8199 17.469 18.8267 17.476 18.8308C17.5113 18.8515 17.5518 18.8558 17.5723 18.8501C17.5837 18.8466 17.6034 18.833 17.6214 18.7962L17.6348 18.7394C17.6391 18.7095 17.6428 18.6685 17.6435 18.6152C17.6448 18.5171 17.6368 18.3984 17.6233 18.2764C17.5957 18.0278 17.5467 17.7899 17.5116 17.6989C17.5048 17.6812 17.4981 17.6661 17.4914 17.6537C17.4638 17.6611 17.4341 17.6736 17.4163 17.6816ZM15.348 12.4264C14.1403 13.2691 13.2017 13.8329 12.218 13.9722C11.2306 14.112 10.2251 13.8213 8.88586 13.0347C8.68593 13.345 8.56343 13.5849 8.42771 13.9462C8.25697 14.4008 8.29255 14.7539 8.41713 15.0983C8.48084 15.2744 8.56836 15.4492 8.66737 15.6373C8.76513 15.8229 8.87509 16.0232 8.97633 16.2398C8.98766 16.264 9.00512 16.3021 9.01098 16.3457C9.01773 16.3962 9.00821 16.4395 8.99462 16.4766L8.98403 16.5035C10.0616 16.7119 11.216 16.5135 12.2526 16.0704C12.6048 15.9199 13.0836 15.6968 13.4403 15.5391C13.4782 15.5224 13.5209 15.5214 13.5395 15.5208C13.566 15.5201 13.5969 15.5209 13.628 15.5227C13.6906 15.5265 13.7672 15.5342 13.8426 15.543C14.0007 15.5613 14.1475 15.5826 14.2074 15.5872L14.6261 15.6065C15.0086 15.6124 15.3718 15.5797 15.758 15.4948C15.832 15.2729 15.9429 14.9064 16.0313 14.5401C16.0811 14.3339 16.124 14.1304 16.1507 13.9549C16.178 13.7748 16.1861 13.6385 16.1747 13.5602C16.1438 13.3477 16.0172 13.12 15.8408 12.9038C15.6913 12.7208 15.5126 12.5561 15.348 12.4264ZM14.2825 8.07601C14.264 8.08622 14.253 8.09625 14.2479 8.10393C14.2431 8.11098 14.2358 8.12532 14.244 8.15879C14.2427 8.15552 14.2423 8.15658 14.2469 8.16168C14.2533 8.16859 14.265 8.17879 14.2815 8.18959C14.3148 8.2113 14.3566 8.22947 14.3903 8.24252C14.8233 8.39768 15.3062 8.44123 15.7763 8.42058C15.8833 8.41586 15.9949 8.4022 16.1131 8.3869C16.2292 8.37187 16.3525 8.35535 16.4741 8.34743C16.9165 8.31872 17.3447 8.31904 17.7195 8.44946C18.1036 8.58313 18.4207 8.8488 18.6483 9.32147C18.7808 9.59649 18.8235 9.9789 18.7879 10.2666C18.711 10.8861 18.5004 11.573 18.3432 12.1598C18.0831 13.1138 17.8326 14.0718 17.5925 15.0309C17.5277 15.2921 17.4675 15.5491 17.4029 15.8125C17.3898 15.8659 17.3801 15.9095 17.375 15.9472C17.3698 15.9853 17.3711 16.0075 17.374 16.0194C17.3759 16.0268 17.378 16.0292 17.3827 16.0329C17.3892 16.0379 17.4054 16.0449 17.4385 16.0531H17.4414C17.4504 16.0504 17.4573 16.0466 17.4625 16.0444C17.499 15.9511 17.5316 15.8321 17.5607 15.7008C17.5901 15.5683 17.6187 15.4176 17.6493 15.2956L18.0391 13.7739C18.171 13.2677 18.3049 12.762 18.4414 12.257L18.5877 11.7315C18.7379 11.2008 18.8859 10.6581 18.9024 10.1425C18.9132 9.80351 18.8663 9.48639 18.7301 9.20308C18.5947 8.92139 18.3659 8.66316 17.9977 8.44561C17.6205 8.22285 17.1887 8.19152 16.7214 8.2175C16.4868 8.23055 16.2537 8.25687 16.013 8.27814C15.776 8.29909 15.5357 8.31458 15.3027 8.3022C15.0515 8.2906 14.8026 8.24675 14.5626 8.1713L14.5616 8.17034C14.5225 8.15764 14.4494 8.13125 14.3874 8.1097C14.3448 8.0949 14.3085 8.08389 14.2825 8.07601ZM9.88876 8.18092C9.84701 8.21037 9.80641 8.24965 9.76268 8.30412C9.71163 8.36771 9.64157 8.46661 9.56633 8.54186C9.37243 8.73573 9.15206 8.89172 8.91762 9.02117C8.47585 9.26509 7.98113 9.43873 7.51432 9.58711C7.00379 9.74941 6.56469 9.8785 6.20245 10.1011C5.84964 10.3179 5.57005 10.6243 5.393 11.1473C5.31087 11.39 5.27643 11.6491 5.27847 11.9105C5.28026 12.1399 5.35502 12.6839 5.45556 13.2292C5.5054 13.4994 5.56084 13.7659 5.61534 13.9886C5.64308 14.1019 5.66938 14.201 5.69426 14.2821L5.7626 14.4688L5.78473 14.5044C5.79407 14.5161 5.80537 14.5285 5.82035 14.542L5.87136 14.5872L5.86943 14.6546C5.86785 14.7234 5.85772 14.823 5.84922 14.9193C5.8403 15.0203 5.83266 15.1273 5.83382 15.2273C5.83501 15.3294 5.84488 15.4121 5.86558 15.4689C5.88519 15.5226 5.90482 15.5314 5.91563 15.5343C6.00299 15.5567 6.10865 15.4961 6.13989 15.3601L6.18801 15.1483L6.36704 15.2715L6.38532 15.2841L6.38629 15.285C6.48414 15.3537 6.56607 15.4374 6.63846 15.517C6.6434 15.5224 6.64808 15.528 6.65289 15.5333C6.60495 15.4622 6.55639 15.3834 6.5066 15.2927L6.47291 15.2311L6.4989 15.1666C6.53985 15.0648 6.56538 15.0043 6.62017 14.9039L6.68177 14.7913L6.80208 14.8365C6.84785 14.8537 6.89371 14.8749 6.94838 14.8914C6.96906 14.8976 6.98568 14.9002 6.99746 14.9019C7.00741 14.8952 7.01426 14.8893 7.0196 14.8846C7.01676 14.8817 7.0141 14.8777 7.00998 14.874C6.94411 14.8152 6.81752 14.7596 6.72701 14.7258C6.60997 14.682 6.44643 14.591 6.30832 14.5198C6.23541 14.4823 6.16556 14.4477 6.10235 14.4217C6.03757 14.395 5.988 14.3804 5.95413 14.3764L5.85596 14.3649L5.82901 14.2696C5.72661 13.9034 5.63344 13.4834 5.56144 13.1117C5.41987 12.3813 5.23459 11.5917 5.66154 10.8364C5.81211 10.567 6.0288 10.34 6.291 10.1771L6.40265 10.1146C6.67315 9.97268 7.01164 9.86908 7.26407 9.78635C8.19246 9.48209 9.14965 9.20085 9.77615 8.48892C9.81339 8.4466 9.85095 8.39827 9.88106 8.35032C9.91214 8.30079 9.92996 8.25901 9.93593 8.22905C9.93871 8.215 9.93836 8.20693 9.93785 8.20402C9.93756 8.20244 9.9369 8.20307 9.93689 8.20306C9.9363 8.20233 9.92582 8.19216 9.88876 8.18092ZM11.7223 0.356896H11.7204C10.831 0.432852 9.82839 0.808468 9.26411 1.48878C8.69755 2.17203 8.6026 3.12506 8.51434 4.06053C8.49955 4.21723 8.48513 4.37324 8.46814 4.52541C8.45279 4.68091 8.40895 4.84839 8.369 5.00377C8.30647 5.24702 8.25431 5.46067 8.27179 5.63708C8.28553 5.77512 8.34688 5.91898 8.44023 6.0702C8.53358 6.22141 8.65126 6.3689 8.7694 6.51583C8.84034 6.60406 8.91177 6.69299 8.97344 6.77859C9.05338 6.88956 9.12498 7.00749 9.1284 7.14144C9.13185 7.28156 9.06107 7.40157 8.95997 7.5197C8.86192 7.63423 8.75189 7.74553 8.64523 7.85368C8.3127 8.19088 8.02016 8.4961 7.97246 8.88643C8.02022 8.8697 8.06449 8.84841 8.11202 8.82001C8.13053 8.74919 8.14783 8.69232 8.16977 8.63714C8.19822 8.56562 8.23432 8.50076 8.29008 8.41096C8.40309 8.22904 8.57737 8.06137 8.73475 7.90854C8.92858 7.72032 9.09853 7.55196 9.18808 7.37436C9.23082 7.28949 9.25241 7.20755 9.24967 7.12412C9.24688 7.04081 9.21952 6.945 9.14958 6.83441C9.08031 6.72495 8.9882 6.61228 8.88682 6.48792C8.78411 6.36194 8.67235 6.2245 8.58171 6.08175C8.49097 5.93884 8.415 5.78038 8.39114 5.60821C8.38243 5.54523 8.38985 5.47031 8.39884 5.4109C8.40843 5.34769 8.42246 5.28443 8.43445 5.23958C8.51188 4.95002 8.5751 4.69775 8.60866 4.40991C8.62666 4.25549 8.64242 4.09791 8.65775 3.93733C8.75876 2.87938 8.86421 1.66905 9.9879 1.02678C10.7522 0.589952 11.6982 0.332433 12.6039 0.562868C13.4474 0.777519 14.1952 1.25029 14.8504 1.77945C15.0274 1.9224 15.28 2.14041 15.4327 2.32036L15.5154 2.41757L15.4317 2.51286C14.4869 3.60148 13.3062 3.90272 11.9369 3.81414C11.5948 3.79199 11.2991 3.77796 11.0514 3.8459C10.8181 3.91 10.623 4.04904 10.4865 4.36083L10.4278 4.49365L10.294 4.43783C10.0873 4.35122 9.85149 4.25446 9.64237 4.23955C9.54096 4.23233 9.45705 4.24531 9.3902 4.27998C9.32595 4.31342 9.26336 4.37358 9.21599 4.48595C9.16919 4.59696 9.18861 4.72351 9.26219 4.87191C9.33623 5.02119 9.45278 5.16661 9.56344 5.30406L9.64429 5.40705L9.64622 5.40801C9.72684 5.5148 9.78756 5.60478 9.86085 5.72563C9.88235 5.76108 9.90562 5.81597 9.92534 5.86134C9.97212 5.96901 10.0215 6.07822 10.0745 6.14046C10.0816 6.14878 10.0864 6.15568 10.0909 6.15971C10.0939 6.15712 10.0989 6.15483 10.1034 6.15008C10.1389 6.11283 10.1566 6.0374 10.0707 5.85941C9.98994 5.69236 9.84875 5.50226 9.70397 5.30791C9.59477 5.16134 9.48138 5.01002 9.40848 4.87864C9.37208 4.81301 9.34072 4.74209 9.32667 4.67267C9.31247 4.60242 9.31284 4.51399 9.36902 4.43686L9.38538 4.41569L9.40752 4.40125C9.5344 4.31744 9.68088 4.32976 9.79829 4.35987C9.91725 4.39041 10.0429 4.44896 10.1515 4.49846C10.2545 4.54543 10.3437 4.58538 10.422 4.60819C10.4893 4.62778 10.5263 4.62531 10.5461 4.6207C10.5502 4.61403 10.5565 4.6044 10.5625 4.59086C10.5799 4.5517 10.5948 4.50223 10.6116 4.44745C10.6241 4.40655 10.6401 4.35233 10.6588 4.3127C10.7488 4.1043 10.9184 3.99767 11.0957 3.94792C11.2685 3.89944 11.4581 3.90244 11.6126 3.91327C12.9093 4.00421 14.0411 3.90473 15.0583 3.05377L15.2421 2.90074L15.297 3.13366C15.4334 3.71103 15.3979 4.37741 15.1709 4.93639C15.1374 5.01882 15.1047 5.08333 15.0766 5.13851C15.0245 5.24051 14.9851 5.31732 14.9572 5.46865C14.9383 5.57183 14.9502 5.69421 14.9659 5.84305C14.9761 5.93986 14.988 6.04886 14.9851 6.15201C14.9822 6.2558 14.9641 6.36825 14.9062 6.46963L14.9014 6.47829C14.821 6.59836 14.6846 6.67432 14.5924 6.72854C14.4971 6.78459 14.4355 6.82307 14.3999 6.86714C14.3069 6.98233 14.2206 7.13372 14.1227 7.30507C14.0089 7.50434 13.8811 7.72917 13.7214 7.91143C13.5593 8.09624 13.3537 8.24925 13.0813 8.28969C12.6302 8.35652 12.214 8.15484 11.8638 7.88833C11.5123 7.62087 11.2024 7.26957 10.9619 6.99707C10.9453 6.97817 10.9289 6.95939 10.9128 6.94125C10.8963 6.92252 10.8751 6.896 10.8551 6.87099C10.8166 6.82277 10.7747 6.77406 10.7396 6.7372L10.6905 6.768L10.6097 6.69485C10.5469 6.63858 10.5324 6.56848 10.5269 6.53315C10.5238 6.53381 10.52 6.53251 10.5163 6.53412C10.5036 6.53972 10.4972 6.54831 10.4942 6.55433C10.4943 6.55758 10.4946 6.56292 10.4961 6.56973C10.4993 6.58423 10.5065 6.60275 10.5173 6.62459C10.5392 6.66878 10.5714 6.71365 10.6 6.74779L10.7223 6.8912C11.0122 7.2321 11.3148 7.58688 11.6568 7.87197C11.9976 8.15599 12.3682 8.36216 12.7907 8.41481C13.1042 8.45385 13.4016 8.35143 13.6482 8.14916L13.6502 8.1482C13.8735 7.97 14.0184 7.72 14.1776 7.4427C14.2648 7.29074 14.3568 7.13 14.4663 6.9836C14.5443 6.87942 14.6614 6.80927 14.7493 6.75452C14.8648 6.68257 14.9511 6.62544 15.0053 6.54278C15.1295 6.35328 15.1144 6.17881 15.0881 5.94123C15.0732 5.80612 15.0545 5.64763 15.0775 5.47827C15.0966 5.33905 15.1726 5.1928 15.2296 5.08077C15.2771 4.98742 15.3152 4.91211 15.3345 4.84688L15.3364 4.83918C15.4251 4.58953 15.4942 4.22593 15.5029 3.86419C15.5118 3.49808 15.4589 3.16046 15.3297 2.94501L15.2748 2.85358L15.3441 2.77273C15.356 2.75897 15.371 2.74207 15.3865 2.72461C15.4429 2.66103 15.5168 2.57741 15.5732 2.49938C15.6015 2.46019 15.6219 2.42798 15.6329 2.4041V2.40121C15.6121 2.35386 15.5657 2.28158 15.4827 2.19043C15.3926 2.09143 15.2774 1.98275 15.1545 1.87666C14.909 1.66475 14.6451 1.46945 14.525 1.38098C14.1524 1.10615 13.6758 0.825983 13.1776 0.626391C12.6774 0.426036 12.1673 0.312224 11.7223 0.356896ZM15.0525 3.43396C13.9975 4.21592 12.836 4.29511 11.5914 4.20779C11.4447 4.1975 11.2976 4.19859 11.1756 4.23282C11.0591 4.26552 10.9757 4.32508 10.9302 4.43205L10.9273 4.43879C10.9204 4.45317 10.9105 4.48207 10.8946 4.53407C10.879 4.58473 10.859 4.65247 10.833 4.71117C10.8197 4.74088 10.8027 4.77404 10.781 4.80357C10.7599 4.83224 10.7272 4.86764 10.6799 4.88923C10.5647 4.94171 10.4387 4.92111 10.3392 4.89212C10.2364 4.86216 10.1269 4.81148 10.0293 4.767C9.91399 4.71444 9.81277 4.6694 9.72418 4.64669C9.67953 4.63526 9.64663 4.63194 9.62216 4.63321C9.62994 4.65816 9.64358 4.69231 9.66739 4.73523C9.72854 4.84539 9.82829 4.97858 9.9417 5.13081C10.0811 5.31797 10.2407 5.53269 10.3363 5.73044C10.4144 5.89196 10.4758 6.10033 10.3748 6.27521C10.4456 6.23757 10.5289 6.22297 10.6097 6.24248L10.6809 6.26943C10.7148 6.28697 10.7397 6.31178 10.7608 6.33873L10.9215 6.4985L11.0101 6.59283C11.0386 6.62636 11.065 6.65973 11.0861 6.68619C11.108 6.71363 11.1238 6.73312 11.1342 6.7449C11.1502 6.76299 11.1668 6.78206 11.1833 6.80072C11.4271 7.077 11.7185 7.40667 12.0428 7.65348C12.3684 7.9012 12.7036 8.0476 13.038 7.99805C13.2175 7.97142 13.3645 7.87043 13.499 7.71701C13.6357 7.5611 13.7486 7.36293 13.8657 7.1578C13.9603 6.9923 14.059 6.81877 14.1699 6.68138C14.2461 6.58715 14.361 6.52181 14.4432 6.47348C14.548 6.41188 14.614 6.36888 14.6502 6.31852C14.6732 6.27647 14.6865 6.22049 14.6887 6.14335C14.6909 6.06351 14.682 5.97503 14.6713 5.87385C14.6568 5.7358 14.6384 5.56792 14.6665 5.41475C14.7022 5.22084 14.7568 5.11347 14.8128 5.00377C14.8409 4.9488 14.8684 4.89504 14.8966 4.82571C15.0695 4.40009 15.1187 3.89721 15.0525 3.43396Z" fill="#6281AA"/>
</svg>
