<svg width="24" height="24" viewBox="0 0 24 24" fill="none" xmlns="http://www.w3.org/2000/svg">
<g clip-path="url(#clip0_128_692)">
<path fill-rule="evenodd" clip-rule="evenodd" d="M7.64582 0.0981864C7.5686 0.16198 7.39461 0.662117 7.32799 1.01169C7.24948 1.4238 7.26294 1.95183 7.36881 2.61359C7.41903 2.92745 7.50823 3.64378 7.56704 4.20542C7.72905 5.75278 7.88189 6.65865 8.05123 7.07545C8.15202 7.3235 8.41537 7.84704 8.77936 8.52297C9.33332 9.55171 9.70743 10.1867 10.3763 11.2335C11.2146 12.5455 11.4508 12.9692 11.6118 13.4498C11.7841 13.9638 11.6944 14.2934 11.2395 14.8192C10.3713 15.8225 9.94419 16.4906 9.69316 17.2381C9.58411 17.5627 9.58134 17.5819 9.58068 18.0214C9.57996 18.4677 9.58104 18.4749 9.69526 18.7997C9.81681 19.1454 10.1763 19.9867 10.7359 21.2351C11.2848 22.4598 11.5401 23.0639 11.653 23.4056C11.7651 23.7448 11.8497 23.8631 11.9804 23.8631C12.0615 23.8631 12.1971 23.7647 12.2214 23.688C12.2672 23.5436 12.0183 22.9042 11.2023 21.0699C10.1913 18.7973 10.0795 18.5119 10.0548 18.1415C10.0204 17.6246 10.2468 16.969 10.6896 16.3031L10.8336 16.0866L10.9726 16.2004C11.5511 16.6738 12.4747 16.9976 13.4762 17.0782C13.8474 17.108 14.7885 17.0755 14.9477 17.0274C14.9948 17.0131 14.9983 17.0415 14.9881 17.3514C14.9623 18.1375 14.6815 19.2087 14.151 20.5443C14.0591 20.7755 13.9476 21.0459 13.9031 21.145L13.8222 21.3252L13.6179 20.1011C13.5056 19.4278 13.4041 18.8003 13.3923 18.7065C13.3554 18.4108 13.1647 18.3065 12.9866 18.4846C12.9277 18.5435 12.8988 18.6027 12.8988 18.6647C12.8988 18.7154 13.0202 19.4927 13.1685 20.392C13.5125 22.4777 13.551 22.7256 13.6207 23.304C13.6556 23.5944 13.6962 23.8087 13.7244 23.8517C13.8125 23.9863 14.0298 23.9826 14.12 23.845C14.168 23.7717 14.1655 23.7261 14.0714 22.9632L13.9722 22.1587L14.0942 21.8921C14.7469 20.4668 15.1344 19.3633 15.3818 18.2248C15.4607 17.8621 15.4653 17.7993 15.4657 17.0753C15.466 16.654 15.4479 15.7823 15.4255 15.138L15.3846 13.9667L15.491 13.6513C15.5702 13.4168 15.6092 13.2289 15.6431 12.9183L15.6888 12.5005L15.8085 12.3776C16.0091 12.1718 16.0923 11.969 16.1068 11.6508C16.1156 11.4586 16.1052 11.329 16.072 11.2147C16.0228 11.0457 15.7685 10.5983 15.6471 10.4676L15.5774 10.3926L15.5622 8.69561C15.5466 6.94786 15.5247 6.53987 15.3909 5.501C15.3572 5.23892 15.3114 4.98212 15.2893 4.93034C15.2266 4.78383 14.9225 4.4418 14.6099 4.16632C14.1641 3.77347 13.3787 3.195 12.3204 2.47981C11.9151 2.20593 11.9041 2.19563 11.7524 1.94436C11.547 1.60433 11.2866 1.34234 11.0366 1.22431C10.8082 1.11642 10.3885 1.01956 10.274 1.0483C10.154 1.0784 10.0755 1.17274 10.0755 1.28684C10.0755 1.43185 10.1693 1.50099 10.4255 1.54493C10.6881 1.59001 10.9598 1.71615 11.0858 1.85155C11.1376 1.90726 11.2698 2.09002 11.3796 2.25774L11.5791 2.56265L12.0362 2.87207C13.2165 3.67102 13.9971 4.25378 14.4169 4.64937C14.8052 5.01516 14.8374 5.07048 14.8933 5.46688C15.0241 6.39486 15.0927 7.61763 15.0889 8.9509C15.0864 9.80172 15.0834 9.84779 15.0362 9.77772C14.6776 9.24575 14.3725 8.92804 14.1059 8.80902C14.0125 8.76736 13.9846 8.74129 14.0059 8.71561C14.0524 8.65959 14.157 8.22944 14.1966 7.93104C14.244 7.57453 14.243 6.16383 14.1951 5.72497C14.1667 5.46556 14.1419 5.35981 14.0929 5.28946C13.9445 5.07628 13.5816 4.6406 13.3753 4.42783C12.9907 4.03128 11.9154 3.21101 11.2328 2.79347C11.0516 2.68264 10.8498 2.54613 10.7844 2.49015C10.6088 2.33988 10.4429 2.3561 10.3488 2.53277C10.2578 2.70354 10.3871 2.86137 10.8307 3.12081C11.2104 3.34289 11.3279 3.41903 11.6188 3.63116L11.8857 3.82576L11.769 3.84441C11.3643 3.90904 10.8543 4.15584 10.5584 4.4302L10.4256 4.55338L10.2103 4.52073C9.86469 4.46835 9.5095 4.54271 9.28409 4.71463L9.18341 4.79143L9.15134 4.60353C9.02399 3.85801 8.91785 3.31078 8.81477 2.86822L8.69514 2.35442L8.79735 2.15148C8.90634 1.93505 8.99429 1.57802 8.99429 1.35204C8.99429 1.17742 8.89784 1.0668 8.7456 1.0668C8.58341 1.0668 8.52457 1.15712 8.48778 1.46245C8.45414 1.74168 8.41654 1.85506 8.29226 2.05194C8.18428 2.22302 8.18972 2.3194 8.34743 3.03044C8.42113 3.36283 8.53004 3.89832 8.58945 4.22044C8.70481 4.84624 8.94188 6.00828 8.99224 6.19489C9.06781 6.47493 9.86118 7.68401 10.7711 8.90585C11.0841 9.32612 11.1621 9.40193 11.4199 9.53658C11.6021 9.63173 11.6239 9.65308 11.6491 9.76184C11.6904 9.93973 11.6241 10.5614 11.5331 10.8496C11.4614 11.0765 11.2813 11.3994 11.1802 11.4823C11.1394 11.5158 11.1 11.4687 10.8792 11.1219C9.95924 9.6769 9.29166 8.50999 8.69217 7.29899C8.55416 7.02015 8.45898 6.77972 8.40966 6.58528C8.29715 6.1417 8.13638 5.03516 8.03336 3.99518C7.98263 3.48309 7.90102 2.82146 7.85201 2.52487C7.71277 1.68254 7.73559 1.20631 7.94469 0.591596C8.04147 0.307017 8.04988 0.235054 7.99467 0.163151C7.90289 0.0436136 7.74704 0.01457 7.64582 0.0981864ZM14.8869 1.91663C14.8084 2.00013 14.5702 2.92156 14.5982 3.03314C14.6414 3.20515 14.8801 3.27363 15.0042 3.14959C15.0676 3.08621 15.2994 2.24972 15.3008 2.07903C15.3025 1.88426 15.021 1.77382 14.8869 1.91663ZM16.0139 2.8013C15.5774 3.25735 15.3616 3.52892 15.3616 3.62227C15.3616 3.73911 15.5045 3.89006 15.6151 3.89006C15.7084 3.89006 15.7898 3.81524 16.2152 3.33896C16.575 2.93604 16.5992 2.87044 16.4452 2.7164C16.3056 2.5768 16.211 2.59545 16.0139 2.8013ZM11.6824 4.35833C11.3504 4.43195 11.1131 4.56518 10.8427 4.82963C10.7113 4.95818 10.5761 5.0703 10.5424 5.07877C10.5086 5.08721 10.4219 5.07325 10.3496 5.04775C10.1858 4.98993 9.80684 4.98732 9.6734 5.04306C9.52365 5.10565 9.42057 5.23498 9.38155 5.40927C9.33506 5.61711 9.4136 5.99648 9.52443 6.09917C9.62453 6.19195 9.85916 6.24421 10.0619 6.21886C10.2167 6.19954 10.2311 6.20348 10.3159 6.28836C10.4167 6.38909 10.4279 6.45829 10.3593 6.55624C10.2918 6.65271 10.2033 6.69139 10.0056 6.71098L9.83045 6.72834L10.2322 7.31401C10.5587 7.78997 11.185 8.6641 11.378 8.91336C11.4339 8.98556 11.4884 8.97931 11.5851 8.88963C11.6854 8.79661 11.69 8.70233 11.6077 8.42854C11.5528 8.24593 11.538 8.22526 11.4214 8.17C11.2293 8.07887 11.001 7.83745 10.8863 7.604C10.7168 7.25893 10.7246 6.79567 10.9069 6.38309C10.9617 6.25895 11.0596 6.13981 11.3019 5.90253C11.6576 5.55416 11.7745 5.37236 11.8182 5.09974C11.8469 4.92028 11.9439 4.7911 12.0499 4.7911C12.0767 4.7911 12.2078 4.86436 12.3411 4.95389C12.5816 5.11544 12.7754 5.20642 13.064 5.29319C13.1466 5.31803 13.2634 5.36344 13.3236 5.39408L13.433 5.44982L13.3654 5.30818C13.3282 5.23027 13.2756 5.11923 13.2485 5.06141C13.1658 4.88484 12.9328 4.61209 12.7842 4.51788C12.5016 4.33857 12.0599 4.27462 11.6824 4.35833ZM16.5221 4.48772C16.1867 4.53094 16.1284 4.54674 16.0791 4.60756C15.991 4.71643 16.0034 4.8919 16.105 4.97215C16.1794 5.03093 16.2102 5.03549 16.4145 5.01783C16.5392 5.00705 16.7614 4.9805 16.9081 4.95881C17.1342 4.92539 17.1854 4.90703 17.2444 4.83853C17.3348 4.73337 17.3323 4.63741 17.2361 4.5231C17.1442 4.41383 17.1088 4.41209 16.5221 4.48772ZM5.72958 4.53584C5.59316 4.63138 5.61773 4.87291 5.77178 4.95076C5.86648 4.99864 6.52358 5.12148 6.68489 5.12148C6.87898 5.12148 6.99749 4.93626 6.91075 4.76854C6.85333 4.65751 6.78905 4.63411 6.3212 4.55398C5.87819 4.47808 5.81482 4.47613 5.72958 4.53584ZM12.208 5.51418C12.208 5.59633 11.9173 5.97435 11.656 6.23195C11.4005 6.48394 11.3602 6.53828 11.3039 6.7074C11.2567 6.84929 11.2433 6.95077 11.2519 7.10227C11.2675 7.37771 11.3745 7.55131 11.6425 7.73585C11.8131 7.85331 11.8822 7.88034 12.137 7.92945C12.5197 8.00319 12.8408 8.00529 13.0236 7.93534C13.1846 7.87377 13.418 7.64181 13.4907 7.47106C13.519 7.40472 13.5443 7.23478 13.5528 7.05412C13.5702 6.68418 13.5128 6.46274 13.3054 6.10028C13.2306 5.96957 13.1647 5.8579 13.1588 5.85207C13.153 5.84625 12.9819 5.78101 12.7785 5.70713C12.5752 5.63321 12.3776 5.5523 12.3395 5.52731C12.2581 5.474 12.208 5.46898 12.208 5.51418ZM13.56 5.56891C13.5753 5.5954 13.6166 5.65084 13.6516 5.69214C13.6977 5.7465 13.7104 5.75203 13.6975 5.7122C13.6877 5.68196 13.6797 5.63285 13.6797 5.60309C13.6797 5.56948 13.6517 5.54362 13.6059 5.53488C13.5449 5.5232 13.537 5.52911 13.56 5.56891ZM16.2095 5.83237C16.1587 5.85283 16.0825 6.00348 16.0825 6.0834C16.0825 6.22516 16.2225 6.30298 16.6728 6.41138C17.0833 6.51016 17.1007 6.51191 17.1773 6.46175C17.3301 6.36161 17.352 6.17035 17.2232 6.06012C17.1908 6.03234 16.9985 5.96543 16.7961 5.91142C16.4465 5.81817 16.2954 5.7978 16.2095 5.83237ZM6.2311 6.02486C5.85768 6.09845 5.78595 6.12178 5.72802 6.18843C5.64365 6.28547 5.64158 6.41096 5.7227 6.51404C5.80298 6.61613 5.85915 6.61531 6.44134 6.50368C6.84483 6.42628 6.91589 6.40405 6.97446 6.33692C7.08537 6.20976 7.06105 6.04943 6.91973 5.97636C6.80842 5.91878 6.74751 5.92308 6.2311 6.02486ZM6.71165 7.42166C6.29862 7.75964 6.26113 7.80198 6.26113 7.93038C6.26113 8.0462 6.40052 8.18502 6.51682 8.18502C6.56169 8.18502 6.72502 8.07455 6.9619 7.88404C7.4059 7.5269 7.41446 7.5175 7.41446 7.38712C7.41446 7.24316 7.3046 7.13302 7.16445 7.13642C7.07513 7.13858 6.9989 7.18657 6.71165 7.42166ZM13.5789 8.14225C13.5008 8.21088 13.4949 8.2298 13.5131 8.35153C13.5376 8.51495 13.5696 8.5218 13.6123 8.37273C13.6544 8.22541 13.687 8.06464 13.6746 8.06584C13.6691 8.06635 13.626 8.10074 13.5789 8.14225ZM12.1528 8.55114C12.1856 8.69612 12.1654 8.88669 12.1009 9.04118C12.0772 9.09783 12.0578 9.15168 12.0578 9.16081C12.0578 9.16994 12.3418 9.46047 12.6888 9.80644C13.3771 10.4926 13.4376 10.5334 13.6722 10.4692C13.9761 10.386 14.1019 10.2063 14.0459 9.93519C13.9979 9.70237 13.9254 9.57103 13.7391 9.37889C13.603 9.23851 13.5534 9.20619 13.4741 9.20619C13.3065 9.20619 13.1811 9.028 13.0631 8.62199L13.0165 8.46158L12.7399 8.46596C12.5878 8.46836 12.3868 8.45938 12.2934 8.44602L12.1234 8.42166L12.1528 8.55114ZM12.1478 10.1087C12.1476 10.3469 12.0711 10.7796 11.9838 11.0356C11.8852 11.325 11.757 11.5517 11.568 11.771L11.4154 11.9481L11.4762 12.0563C11.5096 12.1159 11.6134 12.2998 11.7068 12.465C11.9129 12.8293 12.1013 13.282 12.1501 13.53C12.1708 13.635 12.1797 13.8271 12.171 13.9792C12.147 14.4013 11.9728 14.7252 11.459 15.3032C11.3489 15.4271 11.2298 15.5666 11.1942 15.6133L11.1297 15.6981L11.2258 15.7808C11.4989 16.0157 11.9009 16.2222 12.3882 16.378C13.0112 16.5772 13.6225 16.6455 14.3339 16.5953C14.577 16.5782 14.8219 16.5556 14.8781 16.5452L14.9802 16.5263L14.9605 16.0726C14.9498 15.8231 14.9326 15.2269 14.9223 14.7478L14.9037 13.8766L15.0116 13.5462C15.0913 13.3022 15.132 13.1026 15.1672 12.7825C15.1935 12.5442 15.2287 12.3237 15.2454 12.2924C15.2622 12.2611 15.3431 12.1612 15.4254 12.0705C15.6035 11.8738 15.6319 11.8076 15.6319 11.5901C15.6319 11.3654 15.5311 11.163 15.2792 10.8821C15.1676 10.7577 14.9984 10.5493 14.9032 10.4191C14.808 10.2889 14.6901 10.135 14.6412 10.0772L14.5523 9.97208L14.5515 10.0944C14.5493 10.4191 14.367 10.6771 14.0175 10.8497C13.8088 10.9529 13.7659 10.9632 13.5461 10.9627C13.1867 10.9618 13.0694 10.8911 12.5609 10.369L12.1479 9.94499L12.1478 10.1087Z" fill="#6281AA"/>
<path d="M12.0974 10.109L12.0983 9.94497V9.82193L12.1833 9.90982L12.5964 10.3336C12.8516 10.5957 13.0042 10.7389 13.1354 10.818C13.2623 10.8945 13.3713 10.9123 13.5466 10.9127C13.6564 10.913 13.7164 10.9099 13.7741 10.8961C13.8322 10.8822 13.8911 10.8571 13.9958 10.8053C14.3322 10.639 14.4995 10.3958 14.5016 10.0944L14.5036 9.83657L14.5905 9.94009L14.6794 10.0446C14.7295 10.1038 14.8487 10.2589 14.944 10.3893C15.0381 10.518 15.2056 10.725 15.3161 10.8483C15.571 11.1325 15.6823 11.3474 15.6823 11.5905C15.6823 11.7005 15.6748 11.7801 15.6413 11.8581C15.6083 11.9347 15.5515 12.0059 15.4626 12.1042C15.4221 12.1489 15.3813 12.1955 15.3493 12.235C15.316 12.276 15.2955 12.3054 15.2897 12.3161C15.2897 12.3161 15.2884 12.3201 15.2868 12.3258C15.2846 12.334 15.2819 12.3452 15.279 12.359C15.2732 12.3866 15.2665 12.4236 15.2595 12.4674C15.2454 12.5553 15.2296 12.6693 15.2165 12.7877C15.1809 13.1104 15.1402 13.3142 15.0593 13.5622L14.9538 13.8825L14.9724 14.7467C14.9826 15.2258 14.9997 15.822 15.0104 16.0709L15.03 16.5241L15.0319 16.567L14.989 16.5758L14.8874 16.5944C14.8278 16.6054 14.5795 16.6281 14.3376 16.6452C13.6204 16.6957 13.0023 16.6267 12.3727 16.4254C11.8817 16.2684 11.4728 16.0596 11.1931 15.819L11.0974 15.736L11.0612 15.7057L11.0895 15.6676L11.154 15.5827C11.1908 15.5343 11.3116 15.3939 11.4216 15.2702C11.9333 14.6944 12.0977 14.381 12.1208 13.9762C12.1293 13.8267 12.1208 13.6393 12.1013 13.5397C12.054 13.2993 11.8686 12.8522 11.6638 12.4899C11.5704 12.3247 11.4658 12.1404 11.4323 12.0807L11.3718 11.9723L11.3542 11.942L11.3776 11.9157L11.53 11.7379C11.7145 11.5238 11.8396 11.3028 11.9362 11.0192C12.0219 10.7678 12.0971 10.3411 12.0974 10.109ZM12.1306 8.37173L12.3005 8.39614C12.3902 8.40898 12.5881 8.41805 12.739 8.41568L13.0153 8.41177L13.0534 8.41079L13.0641 8.4479L13.111 8.60806C13.1696 8.80956 13.2285 8.94933 13.2907 9.03775C13.3519 9.12475 13.4121 9.15591 13.4743 9.15591C13.5232 9.15594 13.5653 9.16683 13.613 9.1979C13.6575 9.22698 13.7073 9.27452 13.7751 9.34439C13.8697 9.44202 13.9376 9.52654 13.988 9.61782C14.0385 9.70944 14.0697 9.80584 14.0944 9.92544C14.1243 10.0705 14.1071 10.1982 14.0349 10.3014C13.9633 10.4036 13.8435 10.4739 13.6852 10.5172C13.6256 10.5336 13.5698 10.5454 13.5104 10.5387C13.4505 10.5319 13.392 10.5071 13.3229 10.4606C13.1875 10.3693 12.9954 10.1828 12.653 9.84146C12.4796 9.6686 12.3222 9.50934 12.2077 9.39224C12.1505 9.3337 12.1033 9.28584 12.071 9.25161C12.0549 9.23455 12.0418 9.22066 12.0329 9.2106C12.0285 9.20568 12.0252 9.20068 12.0222 9.19693C12.0208 9.19518 12.019 9.19268 12.0173 9.19009C12.0173 9.19009 12.0148 9.18619 12.0134 9.18325C12.0134 9.18325 12.0075 9.17283 12.0075 9.16079C12.0075 9.15347 12.0098 9.14689 12.0104 9.14419C12.0114 9.1403 12.0121 9.13564 12.0134 9.1315C12.0159 9.12327 12.0192 9.1132 12.0231 9.1022C12.0312 9.07967 12.0423 9.05098 12.0544 9.02212C12.1154 8.87596 12.1344 8.69575 12.1042 8.56216L12.0749 8.43228L12.0583 8.36197L12.1306 8.37173ZM12.2018 8.5397C12.2372 8.69598 12.2151 8.89743 12.1472 9.06021C12.1357 9.08771 12.1253 9.1147 12.1179 9.1354C12.1161 9.14028 12.1143 9.1451 12.113 9.14907C12.1207 9.15757 12.1313 9.16855 12.1442 9.18228C12.1759 9.21586 12.222 9.26357 12.279 9.32193C12.3932 9.43875 12.5509 9.59827 12.7243 9.77114C13.0701 10.1158 13.2531 10.293 13.3786 10.3776C13.4398 10.4189 13.4835 10.4348 13.5222 10.4391C13.5615 10.4435 13.6014 10.4363 13.6589 10.4206C13.8044 10.3807 13.8995 10.32 13.9528 10.2438C14.0054 10.1687 14.0228 10.0708 13.9968 9.94497C13.9734 9.83196 13.9453 9.74586 13.9011 9.66568C13.8566 9.58512 13.7944 9.50814 13.7028 9.41372C13.6348 9.34363 13.5923 9.30409 13.5583 9.28189C13.5275 9.26179 13.5045 9.25652 13.4743 9.2565C13.3689 9.2565 13.2816 9.19895 13.2087 9.09536C13.1369 8.99326 13.0747 8.84063 13.0153 8.63638L12.9782 8.51138L12.7409 8.51626C12.5875 8.51868 12.383 8.50965 12.2858 8.49575L12.1882 8.48111L12.2018 8.5397ZM10.0251 1.28677C10.0251 1.14728 10.122 1.03476 10.2614 0.99966C10.2996 0.990086 10.3556 0.991955 10.4147 0.998684C10.4761 1.00568 10.5486 1.01943 10.6237 1.03677C10.7736 1.07135 10.9398 1.12336 11.0583 1.17935C11.3201 1.30312 11.5873 1.57382 11.7956 1.91861C11.8718 2.04469 11.9086 2.10481 11.9753 2.16763C12.044 2.23236 12.1443 2.30023 12.3483 2.43814C13.407 3.15348 14.1949 3.73346 14.6433 4.12857C14.801 4.26757 14.9565 4.42341 15.0808 4.56314C15.2033 4.70098 15.3007 4.8291 15.3356 4.91079C15.3432 4.92864 15.3503 4.95902 15.3581 4.9938C15.3662 5.03012 15.3762 5.07566 15.3854 5.12759C15.404 5.2319 15.4232 5.36303 15.4401 5.49478C15.5743 6.53636 15.5963 6.94659 15.612 8.69497L15.6266 10.3717L15.6843 10.4333C15.7493 10.5033 15.8455 10.6531 15.9304 10.8024C16.0151 10.9515 16.0934 11.1101 16.1198 11.2008C16.1552 11.3226 16.1658 11.4583 16.1569 11.653C16.1495 11.8157 16.1243 11.952 16.0739 12.0749C16.0233 12.1981 15.9482 12.3062 15.8444 12.4127L15.737 12.5221L15.6931 12.9235C15.6588 13.2368 15.6193 13.4289 15.5388 13.6676L15.4343 13.9752L15.4753 15.1364C15.4977 15.7807 15.5156 16.6527 15.5153 17.0749C15.5151 17.4359 15.5138 17.635 15.5026 17.7887C15.4913 17.9438 15.4698 18.0534 15.4304 18.235C15.1819 19.378 14.7931 20.4852 14.1393 21.9127L14.0231 22.1647L14.1208 22.9567C14.1677 23.337 14.1924 23.5417 14.1989 23.6598C14.2022 23.7186 14.2012 23.76 14.195 23.7926C14.1883 23.8277 14.176 23.8511 14.1618 23.8727C14.1064 23.957 14.0131 23.999 13.9225 24.0006C13.8319 24.0022 13.7374 23.9634 13.6823 23.8795C13.6704 23.8614 13.6612 23.8324 13.653 23.8024C13.6443 23.7701 13.6348 23.7285 13.6257 23.6803C13.6074 23.5837 13.5885 23.456 13.571 23.3102C13.5015 22.7331 13.4629 22.486 13.1188 20.4001C13.0447 19.9504 12.9773 19.5307 12.9284 19.2174C12.904 19.061 12.8845 18.9308 12.8708 18.8366C12.864 18.7897 12.8588 18.7515 12.8552 18.7233C12.8518 18.697 12.8483 18.6751 12.8483 18.6647C12.8483 18.5854 12.8859 18.5139 12.9509 18.4489C13.0494 18.3503 13.1657 18.3188 13.2663 18.3737C13.3612 18.4256 13.4227 18.5451 13.4421 18.6999C13.4536 18.7923 13.5552 19.4186 13.6677 20.0924L13.8444 21.153L13.8571 21.1247C13.9011 21.0267 14.0124 20.7572 14.1042 20.526C14.634 19.1921 14.9127 18.1267 14.9382 17.3493C14.9431 17.1984 14.9434 17.1193 14.9391 17.0788C14.8884 17.09 14.8054 17.1021 14.7067 17.11C14.5895 17.1194 14.4447 17.1273 14.2936 17.1325C13.9918 17.1429 13.661 17.1428 13.4724 17.1276C12.4641 17.0465 11.5298 16.7206 10.9411 16.2389L10.8444 16.1598L10.7311 16.3307C10.2913 16.9922 10.0718 17.6369 10.1052 18.1383C10.117 18.3162 10.149 18.4747 10.3054 18.8737C10.4623 19.2741 10.7421 19.9129 11.2477 21.0495C11.6557 21.9666 11.9227 22.5863 12.0817 22.9948C12.1611 23.1986 12.2145 23.3511 12.2448 23.4626C12.2599 23.5181 12.2697 23.5649 12.2741 23.6032C12.2784 23.6404 12.278 23.6748 12.2692 23.7028C12.2522 23.7564 12.2017 23.8082 12.152 23.8444C12.1021 23.8807 12.0367 23.9127 11.9802 23.9127C11.895 23.9127 11.8276 23.8722 11.7692 23.7907C11.713 23.7121 11.6613 23.5915 11.6052 23.4215C11.4932 23.0828 11.2394 22.481 10.6901 21.2555C10.1308 20.0077 9.77052 19.1641 9.64813 18.8161C9.5915 18.655 9.56089 18.5673 9.54559 18.4635C9.53047 18.3608 9.53059 18.2427 9.53095 18.0211C9.53127 17.803 9.53159 17.6843 9.54657 17.5797C9.56173 17.4741 9.59194 17.3838 9.64618 17.2223C9.90022 16.4659 10.332 15.7921 11.2018 14.7868C11.4277 14.5258 11.5582 14.3184 11.613 14.1168C11.6672 13.9171 11.6483 13.7165 11.5641 13.4655C11.4054 12.9918 11.1724 12.5731 10.3337 11.2604C9.66428 10.2127 9.28959 9.57636 8.73505 8.54654C8.37129 7.87103 8.10654 7.34531 8.00458 7.09439C7.91775 6.88067 7.83722 6.54535 7.75751 6.0729C7.67763 5.59943 7.59833 4.98474 7.51727 4.2106C7.45851 3.64938 7.36904 2.93435 7.31903 2.62173C7.21274 1.95737 7.19899 1.42272 7.27899 1.00259C7.31285 0.824901 7.37318 0.609709 7.43524 0.431301C7.46625 0.342185 7.49797 0.261135 7.52704 0.197902C7.54156 0.16634 7.55647 0.138445 7.57001 0.115871C7.58282 0.0945243 7.59739 0.0729172 7.61395 0.0592305C7.74198 -0.0463394 7.92916 -0.0035484 8.03388 0.132473C8.05065 0.154317 8.06442 0.178473 8.07196 0.207668C8.07939 0.236619 8.07999 0.268031 8.07587 0.303371C8.06785 0.37209 8.03996 0.46668 7.99188 0.608059C7.78629 1.21262 7.76287 1.68007 7.90106 2.51626C7.95033 2.81434 8.03193 3.47742 8.0827 3.98989C8.18569 5.02958 8.3462 6.13314 8.4577 6.5729C8.50582 6.7626 8.5998 6.99979 8.737 7.277C9.3355 8.48598 10.0023 9.65156 10.9216 11.0954C11.0325 11.2697 11.0955 11.3649 11.1354 11.4127C11.1434 11.4223 11.1498 11.4293 11.155 11.4342C11.1739 11.4166 11.1999 11.3898 11.2272 11.3512C11.2581 11.3077 11.2914 11.2543 11.3239 11.1959C11.3894 11.0786 11.4505 10.9439 11.485 10.8346C11.5291 10.6953 11.5688 10.4718 11.5915 10.2594C11.6028 10.1537 11.6092 10.0515 11.611 9.96548C11.6128 9.87808 11.6091 9.81103 11.6003 9.7731C11.5882 9.7211 11.5791 9.69985 11.5583 9.67935C11.5333 9.65487 11.4897 9.62905 11.3972 9.58072C11.2662 9.51235 11.1775 9.45699 11.0817 9.36392C10.9876 9.27243 10.8871 9.14565 10.7311 8.93618C10.2757 8.32459 9.8492 7.71522 9.52704 7.22427C9.36606 6.97893 9.2304 6.7624 9.13056 6.5895C9.03197 6.41877 8.96489 6.28498 8.94403 6.20767C8.89291 6.01805 8.65594 4.85424 8.54071 4.22915C8.48143 3.90772 8.37208 3.37342 8.29852 3.04165C8.22 2.68761 8.17845 2.48078 8.17059 2.34146C8.1666 2.27064 8.17118 2.21464 8.18524 2.16372C8.19931 2.11283 8.22149 2.06974 8.2497 2.02505C8.31068 1.92845 8.34927 1.85467 8.37665 1.77212C8.40414 1.68915 8.4215 1.59503 8.43817 1.45669C8.45653 1.30437 8.48139 1.19426 8.52802 1.12271C8.55228 1.08554 8.58273 1.05824 8.62079 1.04068C8.65839 1.02345 8.70091 1.01724 8.74579 1.01724C8.83467 1.01729 8.91098 1.04964 8.96454 1.11099C9.0175 1.17173 9.04462 1.256 9.04462 1.3522C9.04458 1.58635 8.95456 1.9506 8.84247 2.17349L8.74774 2.36001L8.86395 2.85708C8.96734 3.30098 9.07348 3.84958 9.20087 4.59536L9.21845 4.70083L9.2536 4.67446C9.49214 4.49259 9.86195 4.41752 10.2175 4.47134L10.4089 4.49966L10.5241 4.39321C10.8267 4.11258 11.3446 3.86136 11.7585 3.79458L11.5895 3.67154C11.3003 3.46058 11.1839 3.38513 10.8054 3.16372C10.5835 3.03395 10.4329 2.92563 10.3503 2.82486C10.3086 2.77387 10.2821 2.72196 10.2741 2.66763C10.266 2.61241 10.2777 2.55963 10.3044 2.50943C10.3569 2.41074 10.4348 2.34899 10.5309 2.3395C10.6248 2.33032 10.7237 2.3719 10.8171 2.45181C10.8791 2.50488 11.0773 2.63981 11.2585 2.75064C11.9432 3.16945 13.0222 3.9926 13.4108 4.39321C13.6188 4.60765 13.9833 5.04569 14.1335 5.26138C14.191 5.34397 14.2168 5.46281 14.2448 5.71939C14.2691 5.94186 14.2816 6.40712 14.2819 6.85904C14.2822 7.31 14.27 7.75477 14.2458 7.93716C14.2257 8.08849 14.1893 8.27327 14.152 8.42642C14.1335 8.50283 14.1148 8.57231 14.0974 8.62661C14.0887 8.65362 14.0801 8.67748 14.072 8.69693C14.068 8.7064 14.0612 8.71522 14.0563 8.72427C14.0686 8.73289 14.0898 8.74691 14.1266 8.76333C14.3946 8.88309 14.6904 9.18862 15.029 9.67935C15.0345 9.56356 15.0376 9.34416 15.0388 8.95083C15.0426 7.61921 14.9738 6.39909 14.8434 5.47427C14.8155 5.27574 14.7949 5.17145 14.737 5.07193C14.6778 4.97032 14.5779 4.8703 14.3825 4.68618C13.966 4.2937 13.1886 3.71261 12.0085 2.91372L11.5515 2.60415L11.5427 2.59829L11.5368 2.59048L11.3376 2.28482C11.2277 2.11699 11.098 1.93763 11.0495 1.8854C10.9925 1.8242 10.8991 1.76224 10.7858 1.70962C10.6732 1.65731 10.5435 1.61615 10.4167 1.59439C10.2875 1.5722 10.1901 1.54203 10.1247 1.4938C10.0546 1.44206 10.0251 1.37254 10.0251 1.28677ZM11.6716 4.30923C12.0598 4.22317 12.5157 4.28778 12.8112 4.47525C12.8917 4.52631 12.9906 4.62293 13.0788 4.72622C13.1673 4.82987 13.2496 4.94663 13.2936 5.04068C13.3207 5.09845 13.3738 5.20908 13.4108 5.28677L13.4782 5.42837L13.5124 5.50064C13.5149 5.49774 13.518 5.49523 13.5212 5.49282C13.5316 5.48511 13.543 5.48231 13.5505 5.48111C13.5581 5.47992 13.5657 5.47982 13.572 5.48013C13.5845 5.48078 13.5995 5.48303 13.6149 5.48599C13.6721 5.49689 13.7302 5.53498 13.7302 5.60318C13.7302 5.62738 13.7365 5.67134 13.7448 5.69693C13.7479 5.70629 13.7529 5.72125 13.7526 5.73501C13.7525 5.74059 13.7508 5.76295 13.7302 5.77798C13.7066 5.79493 13.6822 5.78539 13.6765 5.78286C13.6685 5.77931 13.6618 5.77436 13.6579 5.77114C13.6535 5.76747 13.6485 5.76377 13.6442 5.75943C13.6354 5.75055 13.6258 5.73817 13.614 5.72427C13.5783 5.68223 13.5339 5.62477 13.5163 5.59439C13.5104 5.58421 13.5041 5.57044 13.5007 5.55728C13.4995 5.55277 13.4997 5.54675 13.4997 5.5397L13.4099 5.49478L13.3005 5.43911C13.2435 5.41014 13.1299 5.36564 13.0495 5.34146C12.7564 5.25332 12.5579 5.16014 12.3132 4.99575C12.2476 4.95168 12.1829 4.9112 12.1315 4.88247C12.1058 4.86806 12.0835 4.85675 12.0671 4.84927C12.0589 4.84556 12.0527 4.84289 12.0485 4.84146C12.0173 4.84202 11.9802 4.86107 11.945 4.90786C11.9098 4.95482 11.8812 5.02462 11.8679 5.10806C11.8216 5.39664 11.6944 5.5877 11.3366 5.93814C11.0944 6.1754 11.0034 6.28879 10.9528 6.40298C10.7754 6.80459 10.7695 7.25226 10.9313 7.58169C10.9861 7.69313 11.0684 7.80806 11.1608 7.90591C11.2537 8.00413 11.3544 8.08264 11.4431 8.12466C11.5013 8.15226 11.5445 8.17618 11.5778 8.22232C11.6088 8.26532 11.6292 8.32481 11.6559 8.41372C11.697 8.55033 11.7184 8.65021 11.7145 8.72915C11.7104 8.81385 11.6768 8.87267 11.6188 8.92642C11.5702 8.97145 11.5223 9.00649 11.4724 9.01236C11.4145 9.01898 11.3713 8.98626 11.3386 8.944C11.1447 8.69362 10.5178 7.81868 10.1911 7.34243L9.78876 6.7565L9.74188 6.68716L9.82587 6.67837L10.0007 6.66079C10.0979 6.65117 10.1636 6.63785 10.2116 6.61685C10.2575 6.59674 10.2892 6.56904 10.3181 6.52798C10.3488 6.4841 10.3561 6.45513 10.3522 6.4313C10.348 6.40516 10.3291 6.37205 10.2809 6.32388C10.2371 6.27997 10.2206 6.26749 10.2018 6.26236C10.1799 6.25641 10.1485 6.25818 10.0681 6.26821C9.96064 6.28164 9.84551 6.27522 9.74384 6.25259C9.64341 6.23023 9.55026 6.1904 9.49091 6.1354C9.45548 6.10258 9.42624 6.05231 9.40302 5.99673C9.37931 5.93992 9.35973 5.8726 9.3454 5.80337C9.31705 5.66628 9.30731 5.51161 9.3327 5.3981C9.37489 5.20995 9.48769 5.06625 9.65399 4.99673C9.69375 4.98012 9.748 4.96942 9.80634 4.96255C9.86562 4.95557 9.93308 4.95232 10.0007 4.95279C10.134 4.95372 10.2761 4.969 10.3659 5.00064C10.3991 5.01236 10.4364 5.02184 10.4684 5.027C10.5027 5.03251 10.5237 5.03141 10.53 5.02993C10.53 5.02993 10.5327 5.0292 10.5349 5.02798C10.5402 5.02489 10.5473 5.01969 10.5563 5.01333C10.5743 5.00068 10.5971 4.98265 10.6237 4.9606C10.6769 4.91645 10.7424 4.85704 10.8073 4.79361C11.0836 4.52338 11.3295 4.38509 11.6716 4.30923ZM12.7575 4.56021C12.4878 4.38909 12.0598 4.32556 11.6931 4.40689C11.3714 4.47824 11.142 4.60638 10.8776 4.86489C10.8112 4.9299 10.7438 4.99161 10.6882 5.03775C10.6604 5.06077 10.6349 5.08061 10.614 5.09536C10.6036 5.10264 10.5936 5.10878 10.5847 5.11392C10.5766 5.11854 10.5656 5.12478 10.5544 5.12759C10.5268 5.13443 10.4879 5.13125 10.4528 5.12564C10.415 5.11955 10.3718 5.10914 10.3327 5.09536C10.2588 5.06927 10.1299 5.0533 9.9997 5.05239C9.93542 5.05195 9.87245 5.05576 9.81806 5.06216C9.76296 5.06865 9.71998 5.0783 9.69306 5.0895C9.55994 5.14514 9.46625 5.26025 9.43036 5.42056C9.40937 5.51479 9.41614 5.65386 9.44306 5.78384C9.45636 5.84799 9.47417 5.90812 9.49481 5.95767C9.51593 6.00828 9.53842 6.04364 9.55829 6.06216C9.59902 6.09991 9.67279 6.13431 9.76532 6.15493C9.85651 6.17524 9.96018 6.18143 10.0554 6.16958C10.1294 6.16034 10.1831 6.15431 10.2282 6.16665C10.2764 6.17985 10.3104 6.21173 10.3513 6.25259C10.4037 6.30501 10.4415 6.35759 10.4509 6.41568C10.4605 6.47592 10.4378 6.53072 10.4001 6.58462C10.3615 6.63967 10.316 6.68048 10.2516 6.70864C10.1891 6.73599 10.111 6.75045 10.0104 6.7604L9.91864 6.76919L10.2731 7.28579C10.5994 7.76143 11.2254 8.63423 11.4177 8.88247C11.4408 8.91238 11.4531 8.91361 11.4606 8.91275C11.4759 8.91097 11.5036 8.89757 11.5515 8.85318C11.5937 8.81394 11.6123 8.77837 11.6149 8.72427C11.6178 8.66443 11.6014 8.57989 11.5602 8.44302C11.5321 8.34949 11.516 8.30766 11.4968 8.28091C11.4799 8.25747 11.4581 8.243 11.4001 8.21548C11.2965 8.16638 11.1865 8.07791 11.0886 7.97427C10.9903 7.87035 10.9014 7.7475 10.8415 7.62564C10.6644 7.26501 10.674 6.7863 10.861 6.36294C10.9202 6.229 11.0253 6.10383 11.2673 5.86685C11.6206 5.52079 11.7282 5.34788 11.7692 5.09146C11.7846 4.99571 11.8182 4.91068 11.8649 4.84829C11.9113 4.78655 11.9752 4.74104 12.0495 4.74087C12.0615 4.74087 12.0736 4.7443 12.0808 4.74673C12.0893 4.74964 12.0992 4.75394 12.1091 4.75845C12.1289 4.7675 12.1535 4.78054 12.1804 4.79556C12.2344 4.82582 12.3014 4.86747 12.3688 4.91275C12.605 5.07137 12.7949 5.16038 13.0788 5.24575C13.1545 5.26855 13.2576 5.30838 13.3239 5.3395L13.32 5.32974C13.2828 5.25176 13.23 5.1406 13.2028 5.08267C13.1641 5.00016 13.0883 4.89201 13.0026 4.79165C12.9166 4.69098 12.8255 4.60335 12.7575 4.56021ZM13.6911 8.01822C13.6978 8.02047 13.7036 8.02447 13.7087 8.02896C13.7171 8.03655 13.7216 8.04502 13.7233 8.04947C13.7266 8.05801 13.727 8.06622 13.7272 8.06997C13.7277 8.07874 13.7263 8.08909 13.7253 8.09829C13.7231 8.11763 13.7186 8.14383 13.7126 8.17349C13.7005 8.23327 13.6822 8.31164 13.6608 8.38638C13.65 8.42423 13.6384 8.45572 13.6266 8.47818C13.6209 8.48912 13.6128 8.50171 13.6022 8.51138C13.5913 8.52139 13.5714 8.53345 13.5456 8.52798C13.5226 8.52306 13.5092 8.50668 13.5026 8.49673C13.4954 8.48576 13.4892 8.47313 13.485 8.4606C13.4766 8.43518 13.4698 8.40066 13.4636 8.35904C13.4548 8.3006 13.4496 8.25303 13.4626 8.21157C13.4763 8.16837 13.5079 8.13832 13.5456 8.10513C13.5696 8.08399 13.5929 8.06392 13.611 8.04947C13.6198 8.04249 13.6279 8.03656 13.6345 8.03189C13.6376 8.02962 13.6418 8.02709 13.6452 8.02505C13.6452 8.02505 13.6493 8.02244 13.652 8.02114C13.652 8.02114 13.6604 8.01718 13.6696 8.01626L13.6911 8.01822ZM13.6071 8.18325C13.5708 8.21556 13.5614 8.22892 13.5573 8.24185C13.5524 8.25744 13.5527 8.28109 13.5622 8.34439C13.5628 8.34842 13.5635 8.35232 13.5641 8.35611C13.5811 8.29648 13.5958 8.23475 13.6071 8.18325ZM7.36493 7.38736C7.36493 7.27022 7.27648 7.18353 7.16571 7.18618C7.13286 7.18698 7.10002 7.19545 7.03876 7.23404C6.9757 7.27378 6.88679 7.34281 6.74286 7.4606C6.53522 7.63051 6.42649 7.72264 6.36884 7.78775C6.34093 7.81926 6.32712 7.84163 6.32001 7.86099C6.31298 7.88025 6.31122 7.9006 6.31122 7.93032C6.31122 7.96994 6.33634 8.02203 6.38056 8.06607C6.42472 8.10999 6.47731 8.1354 6.51727 8.1354C6.51409 8.1354 6.51485 8.13614 6.52216 8.13345C6.52855 8.13109 6.53717 8.12673 6.54852 8.12075C6.57155 8.10863 6.60203 8.08935 6.63934 8.06411C6.71371 8.01381 6.81266 7.94001 6.93036 7.84536C7.15428 7.66525 7.26375 7.57686 7.31806 7.51724C7.34392 7.48883 7.35327 7.47009 7.35809 7.45474C7.36324 7.43825 7.36493 7.42049 7.36493 7.38736ZM12.2477 5.43423C12.2831 5.43776 12.3251 5.45766 12.3669 5.48501L12.4167 5.5104C12.4429 5.52227 12.4771 5.53634 12.5163 5.55239C12.5951 5.58468 12.6946 5.6231 12.7956 5.65982C12.8973 5.69677 12.991 5.73207 13.0602 5.75845C13.0947 5.7716 13.1238 5.78241 13.1442 5.79068C13.1544 5.79479 13.1633 5.79861 13.1696 5.80142C13.1726 5.80276 13.1758 5.80399 13.1784 5.80532C13.1784 5.80532 13.1814 5.80715 13.1833 5.80825L13.194 5.81704L13.2018 5.82583C13.2031 5.82763 13.2044 5.82965 13.2058 5.83169C13.2086 5.83608 13.2123 5.84247 13.2165 5.84927C13.2248 5.86291 13.2365 5.8816 13.2497 5.90396C13.2764 5.94916 13.3109 6.01042 13.3483 6.07583C13.4531 6.25895 13.5225 6.40927 13.5622 6.56216C13.6019 6.71524 13.612 6.86837 13.6032 7.0563C13.5989 7.14809 13.59 7.23792 13.5788 7.31314C13.5678 7.38675 13.5536 7.4514 13.5368 7.49087C13.4969 7.58448 13.4157 7.69065 13.3259 7.77993C13.2363 7.86896 13.1316 7.94764 13.0417 7.98208C12.942 8.02019 12.8089 8.03681 12.655 8.03579C12.5003 8.03477 12.3212 8.01549 12.1276 7.97818C12.0001 7.95359 11.9146 7.93433 11.8395 7.90493C11.7639 7.87526 11.7001 7.83634 11.614 7.777C11.4768 7.68255 11.3774 7.58804 11.3102 7.47915C11.2427 7.36964 11.21 7.24906 11.2018 7.10513C11.1929 6.94756 11.2074 6.83982 11.2565 6.69204C11.2855 6.60496 11.3117 6.54331 11.3649 6.47134C11.4167 6.40145 11.4935 6.32142 11.6208 6.19595C11.7495 6.06905 11.8859 5.91226 11.9899 5.777C12.042 5.70928 12.0858 5.64728 12.1159 5.59829C12.1308 5.57403 12.1419 5.5537 12.1491 5.53775C12.1558 5.52303 12.1579 5.51431 12.1579 5.51431C12.1579 5.49434 12.1641 5.46967 12.1852 5.45181C12.2054 5.43478 12.2294 5.43247 12.2477 5.43423ZM12.2409 5.57876C12.2313 5.6001 12.2171 5.62457 12.2009 5.65103C12.1683 5.70396 12.1231 5.7685 12.07 5.83755C11.9635 5.97607 11.8235 6.13668 11.6911 6.26724C11.5628 6.39376 11.4913 6.46835 11.445 6.53091C11.4005 6.59106 11.3785 6.64157 11.3513 6.72329C11.3061 6.85897 11.2933 6.95414 11.3015 7.09927C11.3089 7.23074 11.3383 7.33513 11.3952 7.42739C11.4525 7.52009 11.54 7.60508 11.6706 7.69497C11.7549 7.75301 11.8116 7.78669 11.8766 7.81216C11.9423 7.83783 12.0193 7.85606 12.1462 7.88052C12.3352 7.91694 12.5087 7.93521 12.6559 7.93618C12.8037 7.93713 12.9224 7.92012 13.0056 7.88833C13.0765 7.86119 13.1691 7.79353 13.2546 7.70864C13.3397 7.624 13.4121 7.52887 13.445 7.45181C13.4564 7.42502 13.4693 7.37131 13.4802 7.29849C13.4908 7.22698 13.4984 7.14028 13.5026 7.05142C13.5111 6.86982 13.501 6.72705 13.4645 6.58657C13.428 6.44583 13.3649 6.30376 13.2624 6.12466C13.2251 6.05951 13.1892 5.99944 13.1628 5.95474L13.1247 5.89126C13.1201 5.88931 13.1144 5.88639 13.1071 5.88345C13.0876 5.87556 13.0593 5.86525 13.0251 5.8522C12.9565 5.82605 12.8629 5.79141 12.7614 5.75454C12.6592 5.7174 12.5585 5.67803 12.4782 5.64517C12.4381 5.62874 12.4025 5.61382 12.3747 5.60122C12.3482 5.5892 12.3254 5.57767 12.3122 5.569C12.2849 5.5511 12.2638 5.5443 12.2507 5.5397C12.2473 5.55295 12.2462 5.56708 12.2409 5.57876ZM6.84833 5.89614C6.88387 5.90356 6.91331 5.91689 6.94306 5.93228C7.02625 5.97544 7.07895 6.04639 7.09149 6.12857C7.10391 6.2104 7.07583 6.29698 7.01239 6.36978C6.97545 6.41212 6.93393 6.43895 6.85224 6.4645C6.77347 6.48914 6.65167 6.51387 6.45087 6.55239C6.16188 6.60781 5.99657 6.63783 5.89423 6.63931C5.84204 6.64003 5.80074 6.63314 5.76532 6.61587C5.72951 6.59837 5.70491 6.57208 5.68329 6.54458C5.58805 6.42332 5.58984 6.27147 5.69013 6.15591C5.72643 6.11415 5.76764 6.0875 5.8454 6.06216C5.92063 6.0377 6.03548 6.01285 6.22138 5.97622C6.47788 5.92566 6.6258 5.89819 6.72333 5.89126C6.77296 5.88777 6.81293 5.8888 6.84833 5.89614ZM16.4108 5.77407C16.5064 5.78697 16.6343 5.81627 16.8093 5.86294C16.9113 5.89015 17.0109 5.92055 17.0895 5.9479C17.1289 5.96159 17.1639 5.97532 17.1911 5.98696C17.2158 5.99753 17.2408 6.00951 17.2556 6.02212C17.4137 6.15753 17.3807 6.38825 17.2048 6.50357C17.1854 6.51629 17.1642 6.52916 17.1374 6.53677C17.1104 6.54443 17.0815 6.54619 17.0456 6.54263C16.976 6.53568 16.8641 6.50853 16.6608 6.45962C16.4361 6.40552 16.2822 6.35777 16.1843 6.30337C16.1348 6.27585 16.096 6.24489 16.07 6.20767C16.0435 6.16957 16.0329 6.12793 16.0329 6.08364C16.0329 6.03196 16.0561 5.96539 16.0827 5.91275C16.0964 5.88579 16.112 5.8598 16.1286 5.83853C16.144 5.81884 16.1656 5.79606 16.1911 5.78579C16.2462 5.7637 16.3163 5.76133 16.4108 5.77407ZM6.73114 5.99087C6.6413 5.9972 6.50028 6.02276 6.24091 6.07388C6.05346 6.11082 5.9451 6.13463 5.87665 6.15689C5.81109 6.17821 5.78687 6.19655 5.76532 6.22134C5.69739 6.2997 5.69576 6.39839 5.76239 6.48306C5.78085 6.50651 5.79381 6.51847 5.80927 6.52603C5.82505 6.5337 5.84896 6.53936 5.89325 6.53872C5.98463 6.53737 6.13929 6.51093 6.43231 6.45474C6.63432 6.41598 6.74972 6.39136 6.82196 6.3688C6.89132 6.34711 6.91557 6.32913 6.9372 6.30435C6.98448 6.25012 6.99912 6.19246 6.99188 6.14419C6.98465 6.09651 6.95466 6.05104 6.89716 6.02114C6.87144 6.00784 6.85088 5.99959 6.82782 5.99478C6.8044 5.98992 6.77504 5.9878 6.73114 5.99087ZM5.89227 4.444C5.97841 4.44664 6.10953 4.46681 6.32977 4.50454C6.56175 4.54428 6.6999 4.57063 6.78681 4.6022C6.83125 4.61838 6.86568 4.6373 6.89325 4.66177C6.92102 4.68649 6.93898 4.71521 6.95477 4.74575C7.05999 4.94919 6.91369 5.17131 6.68524 5.17154C6.59907 5.17154 6.3892 5.13966 6.19403 5.10318C6.09559 5.08477 5.9989 5.06498 5.92059 5.04654C5.88163 5.03735 5.84644 5.0284 5.81806 5.02017C5.79095 5.0123 5.76609 5.00395 5.7497 4.99575C5.6545 4.94765 5.60218 4.84999 5.59247 4.75454C5.58291 4.65934 5.6144 4.55534 5.70087 4.49478C5.72489 4.47795 5.74997 4.4638 5.78192 4.45474C5.81329 4.44587 5.8486 4.44269 5.89227 4.444ZM17.0671 4.38638C17.1185 4.38893 17.1585 4.39814 17.1931 4.41763C17.2267 4.43667 17.2508 4.46321 17.2741 4.49087C17.326 4.55253 17.3583 4.61605 17.36 4.68325C17.3617 4.75111 17.3319 4.81259 17.2819 4.87075C17.2477 4.91052 17.2135 4.938 17.1559 4.95864C17.1022 4.97788 17.0279 4.99186 16.9157 5.00845C16.7682 5.03026 16.5446 5.05714 16.4186 5.06802C16.3183 5.07669 16.2533 5.08019 16.2038 5.0729C16.1764 5.06886 16.1539 5.06179 16.1335 5.05142L16.0739 5.01138C16.01 4.96084 15.977 4.8827 15.9714 4.80435C15.9658 4.72572 15.9878 4.64124 16.0407 4.57583C16.0557 4.55744 16.0729 4.54128 16.0964 4.527C16.1194 4.51302 16.1464 4.502 16.1804 4.49282C16.2469 4.47482 16.3489 4.45958 16.5153 4.43814C16.8062 4.40065 16.9678 4.38147 17.0671 4.38638ZM5.80927 4.55044C5.79165 4.55542 5.77697 4.56387 5.75849 4.57681C5.7087 4.61168 5.68415 4.67602 5.6911 4.74478C5.69809 4.81345 5.73576 4.87617 5.79462 4.90591C5.80195 4.90959 5.8184 4.91564 5.8454 4.92349C5.87159 4.93109 5.90485 4.93987 5.94306 4.94888C6.01952 4.9669 6.11497 4.98629 6.21259 5.00454C6.40997 5.04145 6.6101 5.07193 6.68524 5.07193C6.84455 5.07171 6.93407 4.92344 6.86591 4.79165C6.85302 4.76674 6.84187 4.75034 6.82684 4.73696C6.81164 4.72343 6.78976 4.71044 6.75263 4.69693C6.6761 4.66909 6.5484 4.64347 6.31317 4.60318C6.0904 4.56501 5.96696 4.54599 5.88934 4.54361C5.85165 4.54247 5.82742 4.54532 5.80927 4.55044ZM17.0622 4.48599C16.9742 4.48163 16.8245 4.49965 16.529 4.53775C16.3606 4.55945 16.2655 4.57365 16.2067 4.5895C16.1782 4.59723 16.1603 4.60458 16.1481 4.61196C16.1365 4.61901 16.1275 4.62744 16.1179 4.63931C16.0828 4.68275 16.067 4.74123 16.071 4.79751C16.0751 4.85388 16.099 4.90367 16.1364 4.93325C16.1703 4.95998 16.1885 4.96985 16.2184 4.97427C16.254 4.97949 16.3064 4.97735 16.4099 4.96841C16.5335 4.95773 16.7552 4.93138 16.9011 4.90982C17.0144 4.89305 17.0787 4.88024 17.1218 4.86489C17.1609 4.85091 17.1821 4.83493 17.2067 4.8063C17.2471 4.75941 17.2613 4.72005 17.2604 4.68521C17.2594 4.64965 17.2421 4.60779 17.1979 4.55532C17.1754 4.52849 17.1603 4.51414 17.1433 4.50454C17.127 4.49541 17.1042 4.48807 17.0622 4.48599ZM16.2419 2.58071C16.3327 2.56297 16.4071 2.60823 16.4802 2.6813C16.5193 2.72042 16.5532 2.75926 16.571 2.80337C16.5901 2.85074 16.5895 2.89901 16.57 2.95181C16.5514 3.0021 16.5156 3.05768 16.4645 3.12368C16.4129 3.19042 16.3426 3.27195 16.2526 3.37271C16.0409 3.60982 15.9123 3.74943 15.8249 3.82974C15.7373 3.91014 15.681 3.94009 15.6149 3.94009C15.5398 3.94003 15.4643 3.89105 15.4108 3.83462C15.357 3.7777 15.3114 3.69894 15.3112 3.62271C15.3112 3.60223 15.317 3.58026 15.3249 3.56021C15.3329 3.53972 15.3448 3.51698 15.3591 3.49282C15.3878 3.4444 15.4303 3.38592 15.485 3.31704C15.595 3.17868 15.7596 2.99466 15.9782 2.76626C16.0759 2.66428 16.159 2.59704 16.2419 2.58071ZM15.1628 1.82486C15.2628 1.8641 15.3523 1.95569 15.3513 2.07974C15.3508 2.12859 15.3339 2.21774 15.3112 2.31997C15.2881 2.42433 15.2575 2.54793 15.2243 2.66763C15.1911 2.78737 15.1558 2.90455 15.1247 2.99575C15.1092 3.04128 15.0938 3.08111 15.0808 3.11196C15.0743 3.12729 15.0683 3.14152 15.0622 3.15298C15.0566 3.16335 15.0491 3.17583 15.0397 3.18521C14.9624 3.26256 14.8516 3.27747 14.7575 3.25064C14.6634 3.22363 14.5763 3.15205 14.5495 3.04556C14.5461 3.03217 14.5454 3.01661 14.5456 3.00259C14.5459 2.9876 14.5474 2.96973 14.5495 2.95083C14.5537 2.91306 14.5611 2.86627 14.571 2.81411C14.5909 2.70935 14.6209 2.57987 14.654 2.45181C14.6871 2.32386 14.7242 2.19653 14.7575 2.09536C14.7742 2.04483 14.7897 1.99959 14.8044 1.9645C14.8116 1.94722 14.8189 1.9317 14.8259 1.91861C14.8325 1.90622 14.8408 1.89261 14.8503 1.88247C14.9352 1.79207 15.0627 1.78567 15.1628 1.82486ZM15.1266 1.91763C15.0529 1.8887 14.9727 1.89857 14.9235 1.95083C14.9235 1.95083 14.9222 1.95226 14.9206 1.95474C14.9189 1.9573 14.9171 1.96101 14.9147 1.96548C14.9097 1.97498 14.9038 1.98776 14.8972 2.00357C14.8839 2.03527 14.8685 2.07735 14.8522 2.12661C14.8198 2.2251 14.7834 2.35065 14.7507 2.4772C14.718 2.60374 14.689 2.73078 14.6696 2.83267C14.66 2.8835 14.6529 2.92741 14.6491 2.96157C14.6472 2.97848 14.6464 2.99282 14.6462 3.00357C14.6461 3.0087 14.646 3.01319 14.6462 3.01626C14.6464 3.01928 14.6472 3.02114 14.6472 3.02114C14.6637 3.08643 14.718 3.13477 14.7849 3.15396C14.8518 3.17313 14.9219 3.16042 14.9684 3.11392C14.9684 3.11392 14.9716 3.11011 14.9743 3.10513C14.9785 3.09737 14.9832 3.08655 14.989 3.0729C15.0007 3.04522 15.0148 3.008 15.03 2.96353C15.0602 2.87475 15.0948 2.75986 15.1276 2.64126C15.1605 2.52269 15.1909 2.40086 15.2136 2.29849C15.2367 2.19431 15.2503 2.11536 15.2507 2.07876L15.2419 2.02798C15.2244 1.97953 15.1821 1.93938 15.1266 1.91763ZM12.1979 10.109C12.1977 10.3534 12.1197 10.791 12.0309 11.0514C11.9304 11.3464 11.7994 11.5791 11.6061 11.8034L11.4753 11.9538L11.5202 12.0319C11.5537 12.0916 11.6574 12.2751 11.7507 12.4401C11.9578 12.8064 12.1486 13.2645 12.1989 13.5202C12.2207 13.6306 12.2302 13.8274 12.2214 13.9821C12.1963 14.4215 12.0125 14.7563 11.4968 15.3366C11.3867 15.4604 11.2685 15.598 11.2341 15.6432L11.1979 15.6901L11.2585 15.7428C11.5247 15.9719 11.9197 16.1762 12.403 16.3307C13.0195 16.5278 13.6251 16.5953 14.3308 16.5456C14.5749 16.5283 14.816 16.5055 14.8688 16.4958L14.9284 16.484L14.9108 16.0749C14.9 15.8248 14.883 15.228 14.8727 14.7487L14.8542 13.8776L14.8532 13.8688L14.8561 13.861L14.9645 13.5309C15.0429 13.2908 15.0829 13.0945 15.1179 12.777C15.1311 12.6572 15.1465 12.5415 15.1608 12.4518C15.168 12.4071 15.1751 12.3684 15.1813 12.3385C15.1845 12.3236 15.1871 12.3103 15.1901 12.2995C15.1927 12.29 15.196 12.2784 15.2009 12.2692C15.2119 12.2486 15.2403 12.2118 15.2722 12.1725C15.3054 12.1315 15.3467 12.0828 15.3884 12.0368C15.4774 11.9384 15.5238 11.8779 15.5495 11.818C15.5746 11.7596 15.5817 11.6974 15.5817 11.5905C15.5817 11.3841 15.4907 11.1931 15.2419 10.9157C15.1293 10.7901 14.9592 10.5805 14.863 10.4489C14.7679 10.3188 14.6509 10.1654 14.6032 10.109L14.6003 10.1051C14.5941 10.4479 14.3983 10.7169 14.0397 10.8942C13.9358 10.9456 13.868 10.9769 13.7975 10.9938C13.7268 11.0107 13.6553 11.0126 13.5456 11.0124C13.3617 11.0119 13.2324 10.9935 13.0837 10.904C12.9394 10.817 12.7783 10.664 12.5251 10.404L12.1979 10.068V10.109ZM7.46454 7.38736C7.46454 7.41907 7.46399 7.45117 7.4538 7.48404C7.44312 7.51823 7.42296 7.54985 7.3913 7.58462C7.33021 7.65156 7.21247 7.74587 6.99286 7.92251C6.8741 8.01801 6.77257 8.09467 6.69501 8.14712C6.65644 8.1732 6.62295 8.19412 6.5954 8.20864C6.58161 8.21591 6.56835 8.22278 6.55634 8.2272C6.54534 8.23124 6.53145 8.23493 6.51727 8.23501C6.44099 8.23501 6.36482 8.19073 6.31024 8.13638C6.2557 8.08206 6.21161 8.00652 6.21161 7.93032C6.21161 7.8959 6.21337 7.86213 6.22626 7.82681C6.2391 7.79173 6.26081 7.75843 6.29364 7.72134C6.32583 7.68499 6.37136 7.64221 6.43427 7.58755L6.68036 7.38247C6.82331 7.26549 6.91691 7.19261 6.98602 7.14907C7.0566 7.10468 7.10662 7.08802 7.16278 7.08657C7.33228 7.08247 7.46454 7.2166 7.46454 7.38736ZM16.1325 6.08364C16.1325 6.10994 16.1384 6.13148 16.152 6.15103C16.1664 6.17155 16.1915 6.19333 16.2331 6.21646C16.3177 6.26344 16.4591 6.30873 16.6843 6.36294C16.8915 6.41281 16.9945 6.43694 17.0554 6.44302C17.0842 6.44589 17.0995 6.44402 17.11 6.44107C17.1209 6.43798 17.1312 6.43194 17.1501 6.41958C17.2793 6.33466 17.29 6.1833 17.1911 6.09829C17.1911 6.09829 17.1878 6.09634 17.1804 6.09243C17.1733 6.08871 17.1639 6.08387 17.152 6.07876C17.1278 6.06838 17.0953 6.05586 17.0573 6.04263C16.9812 6.01614 16.8831 5.98635 16.7829 5.95962C16.6086 5.91311 16.486 5.88565 16.3972 5.87368C16.3076 5.86162 16.2589 5.86625 16.2282 5.87857C16.2282 5.87857 16.2208 5.88333 16.2077 5.90005C16.1959 5.9151 16.1832 5.93571 16.1716 5.95864C16.1475 6.0063 16.1325 6.05548 16.1325 6.08364ZM15.4118 3.62271C15.412 3.66307 15.4383 3.71785 15.4831 3.76529C15.5286 3.81333 15.5797 3.84042 15.6149 3.84048C15.6421 3.84048 15.6739 3.83237 15.7565 3.7565C15.8395 3.68029 15.9642 3.54405 16.1774 3.30532C16.2673 3.20464 16.3362 3.12682 16.3854 3.06314C16.4352 2.99889 16.4631 2.95227 16.4763 2.91665C16.4884 2.88366 16.4866 2.86124 16.4782 2.84048C16.4684 2.81646 16.4476 2.78936 16.4099 2.75161C16.3435 2.68526 16.3009 2.67041 16.2604 2.67837C16.2121 2.68803 16.1493 2.73245 16.0505 2.8356C15.8327 3.06315 15.6703 3.24382 15.5632 3.37857C15.5096 3.44604 15.4704 3.50168 15.445 3.54458C15.4324 3.56586 15.4241 3.58346 15.4186 3.59732C15.413 3.61173 15.4118 3.61985 15.4118 3.62271ZM10.1257 1.28677C10.1257 1.34595 10.1435 1.38366 10.1843 1.41372C10.2298 1.4472 10.3076 1.47403 10.4343 1.49575C10.57 1.51908 10.7076 1.56302 10.8278 1.6188C10.9475 1.67436 11.0537 1.74288 11.1227 1.81704C11.1778 1.87627 11.312 2.06269 11.4216 2.23013L11.6149 2.52603L12.0641 2.83071C13.2441 3.62949 14.0277 4.21429 14.4509 4.61294C14.6435 4.79441 14.755 4.90466 14.8229 5.02114C14.892 5.1397 14.9152 5.26208 14.9431 5.45962C15.0743 6.39067 15.1432 7.61617 15.1393 8.95083C15.1381 9.37486 15.1366 9.60139 15.1296 9.71255C15.1278 9.74042 15.1248 9.76293 15.1218 9.77993C15.1203 9.78838 15.1185 9.7967 15.1159 9.80435C15.1135 9.81126 15.1094 9.82155 15.1013 9.83072C15.0915 9.84159 15.075 9.85172 15.0544 9.85025C15.0375 9.84891 15.0258 9.84015 15.0202 9.8356C15.0092 9.82651 15.0002 9.81337 14.9948 9.80532C14.6368 9.27417 14.3381 8.96799 14.0856 8.85513C14.0393 8.83447 14.002 8.8139 13.9792 8.79263C13.9675 8.78171 13.9535 8.76527 13.9499 8.74282C13.946 8.71809 13.9559 8.69724 13.9675 8.68325L13.9714 8.67739C13.9738 8.67286 13.9769 8.66668 13.9802 8.65884C13.9868 8.64297 13.9944 8.62193 14.0026 8.59634C14.0191 8.54502 14.0371 8.47725 14.0554 8.402C14.0919 8.25156 14.1276 8.0714 14.1472 7.92446C14.1703 7.75012 14.1817 7.31182 14.1813 6.85904C14.181 6.40676 14.1688 5.94652 14.1452 5.73013C14.1166 5.46831 14.0919 5.37607 14.0515 5.31802C13.9047 5.10726 13.5442 4.67358 13.3395 4.46255C12.9589 4.07008 11.8872 3.25286 11.2067 2.83657C11.0256 2.72579 10.8204 2.58684 10.7516 2.52798C10.6696 2.45777 10.5972 2.43261 10.5407 2.43814C10.4866 2.44347 10.4347 2.47855 10.3933 2.5563C10.3745 2.59141 10.3683 2.62256 10.3727 2.65298C10.3773 2.68415 10.394 2.71934 10.4284 2.76138C10.4986 2.84705 10.6345 2.94816 10.8561 3.07779C11.2367 3.30038 11.3559 3.37734 11.6481 3.59048L11.9147 3.78579L12.0124 3.85611L11.8933 3.87466L11.777 3.89419C11.3821 3.95727 10.881 4.19902 10.5925 4.46646L10.4597 4.59048L10.4421 4.60611L10.4177 4.60318L10.2028 4.56997C9.86731 4.51912 9.52638 4.59268 9.31415 4.75454L9.21356 4.83071L9.14813 4.8815L9.13446 4.79946L9.10224 4.61196C8.97497 3.86689 8.86905 3.32071 8.7663 2.87954L8.64618 2.36587L8.64227 2.34829L8.65009 2.33169L8.75263 2.12857C8.85827 1.91862 8.94399 1.56972 8.94403 1.3522C8.94403 1.27377 8.92267 1.21464 8.88934 1.17642C8.85671 1.13911 8.80879 1.11689 8.74579 1.11685C8.70958 1.11685 8.68297 1.12225 8.66278 1.1315C8.64352 1.14037 8.62709 1.15432 8.612 1.17739C8.57947 1.22732 8.55622 1.31544 8.53778 1.46841C8.52086 1.60887 8.50203 1.71082 8.47138 1.80337C8.44048 1.89653 8.39795 1.9785 8.33466 2.07876C8.30893 2.11953 8.2913 2.15266 8.28095 2.19009C8.27061 2.22752 8.26665 2.27223 8.2702 2.3356C8.2775 2.46494 8.31706 2.66245 8.39618 3.01919C8.47001 3.35215 8.57885 3.88884 8.63837 4.21157C8.75383 4.83788 8.99098 5.99802 9.04071 6.18228C9.05778 6.24507 9.11796 6.36737 9.21747 6.5397C9.31604 6.71039 9.45054 6.92501 9.61102 7.16958C9.93189 7.65856 10.3568 8.26549 10.8112 8.87564C10.9681 9.08623 11.0635 9.20753 11.1511 9.29263C11.2369 9.37608 11.3163 9.42565 11.4431 9.49185C11.5322 9.5384 11.5909 9.57101 11.6286 9.60806C11.6705 9.6492 11.6848 9.69394 11.6979 9.75064C11.7098 9.80166 11.7134 9.87929 11.7116 9.96743C11.7097 10.0569 11.7016 10.1615 11.6901 10.2692C11.6672 10.4841 11.6277 10.7162 11.5808 10.8649C11.5436 10.9824 11.4795 11.1234 11.4118 11.2448C11.3779 11.3056 11.3417 11.3616 11.3083 11.4088C11.2754 11.4553 11.2422 11.4961 11.2116 11.5211C11.2031 11.5281 11.1909 11.5362 11.1755 11.5397C11.1592 11.5434 11.1431 11.5415 11.1286 11.5358C11.1032 11.5257 11.0807 11.5028 11.0593 11.4772C11.0142 11.4232 10.9463 11.3213 10.8366 11.1491C9.9159 9.70295 9.24762 8.53391 8.64716 7.32095C8.50841 7.04058 8.41153 6.79644 8.36102 6.59732C8.24752 6.1496 8.08708 5.03958 7.98407 3.99966C7.93338 3.48806 7.85118 2.82782 7.80243 2.53286C7.66232 1.68517 7.68483 1.2002 7.89716 0.575832C7.94585 0.432639 7.97066 0.348034 7.97724 0.291652C7.98037 0.264686 7.97874 0.24666 7.97528 0.233059C7.9719 0.219852 7.96547 0.207955 7.95477 0.193996C7.87593 0.0913115 7.75173 0.0750405 7.67743 0.136379C7.67472 0.138621 7.66752 0.147434 7.65595 0.166652C7.64494 0.184995 7.63251 0.210165 7.61884 0.239895C7.59154 0.29925 7.56038 0.377094 7.52997 0.464504C7.46913 0.639419 7.40938 0.849403 7.37665 1.02114C7.29971 1.42516 7.31322 1.94717 7.41864 2.60611C7.46908 2.92147 7.55807 3.63822 7.61688 4.19986C7.69784 4.97307 7.77676 5.58579 7.85614 6.0563C7.93561 6.52726 8.01493 6.85328 8.09735 7.0563C8.19697 7.30146 8.45878 7.82341 8.82294 8.49966C9.37624 9.52717 9.75042 10.1609 10.4186 11.2067C11.2562 12.5175 11.4956 12.9468 11.6589 13.4342C11.7469 13.697 11.7698 13.9183 11.7087 14.1432C11.648 14.3664 11.5061 14.5875 11.277 14.8522C10.411 15.8532 9.98891 16.5154 9.74091 17.2536C9.68618 17.4165 9.65984 17.4985 9.64618 17.5934C9.6324 17.6894 9.63089 17.8003 9.63056 18.0211C9.63019 18.2459 9.63044 18.3552 9.64423 18.4489C9.65785 18.5414 9.68538 18.6194 9.74286 18.7829C9.86357 19.1261 10.2221 19.9655 10.7819 21.2145C11.3305 22.4384 11.587 23.0456 11.7009 23.3903C11.7566 23.559 11.8037 23.6668 11.8503 23.7321C11.8948 23.7943 11.9349 23.8131 11.9802 23.8131C12.0048 23.8131 12.0484 23.7962 12.0925 23.7643C12.1367 23.7321 12.1662 23.6955 12.1735 23.6725C12.176 23.6644 12.1782 23.6469 12.1745 23.6149C12.1709 23.5835 12.1626 23.5421 12.1481 23.4889C12.1192 23.3826 12.067 23.2339 11.988 23.0309C11.83 22.625 11.5649 22.0075 11.1569 21.0905C10.6518 19.9549 10.3705 19.3138 10.2126 18.9108C10.0543 18.5069 10.0174 18.3374 10.0046 18.1452C9.96913 17.6128 10.2023 16.9454 10.6481 16.2751L10.7917 16.0592L10.8229 16.0133L10.8649 16.0475L11.0046 16.1618C11.5729 16.6267 12.4855 16.948 13.4802 17.028C13.6628 17.0427 13.9885 17.0423 14.2897 17.0319C14.44 17.0267 14.5835 17.0197 14.6989 17.0104C14.8166 17.0009 14.8996 16.9893 14.9333 16.9792C14.945 16.9756 14.978 16.9668 15.0065 16.9899C15.0195 17.0004 15.0268 17.0138 15.0309 17.0251C15.035 17.0362 15.0372 17.0486 15.0388 17.0612C15.0449 17.1102 15.0428 17.2004 15.0378 17.3532C15.0117 18.148 14.729 19.2259 14.1979 20.5631C14.1061 20.7944 13.9939 21.0655 13.9489 21.1657L13.8679 21.3454L13.8005 21.4967L13.569 20.109C13.4568 19.4366 13.3543 18.8077 13.3425 18.7126C13.3249 18.5719 13.2726 18.4912 13.2184 18.4616C13.17 18.4351 13.1016 18.4407 13.0222 18.5202C12.9693 18.5731 12.9489 18.6201 12.9489 18.6647V18.6676C12.9491 18.67 12.9495 18.6733 12.9499 18.6774C12.9508 18.6855 12.952 18.6969 12.9538 18.7106C12.9573 18.738 12.9627 18.7754 12.9694 18.8219C12.9831 18.9157 13.0026 19.0463 13.027 19.2028C13.0759 19.5155 13.1434 19.9342 13.2175 20.3834C13.5615 22.4688 13.6008 22.7187 13.6706 23.2985C13.688 23.4428 13.7066 23.5681 13.7243 23.6618C13.7332 23.7085 13.7419 23.7472 13.7497 23.776C13.7536 23.7903 13.7573 23.8016 13.7604 23.8102C13.762 23.8145 13.7632 23.8185 13.7643 23.8209L13.7653 23.8239C13.7984 23.8744 13.8581 23.9011 13.9206 23.9001C13.9829 23.899 14.043 23.8707 14.0778 23.818C14.0876 23.803 14.093 23.792 14.0964 23.7741C14.1002 23.7538 14.1024 23.7224 14.0993 23.6657C14.093 23.5519 14.0693 23.3518 14.0222 22.9694L13.9225 22.1647L13.9206 22.151L13.9265 22.1383L14.0485 21.8717C14.7002 20.4487 15.0862 19.3484 15.3327 18.2145C15.372 18.0336 15.3922 17.9298 15.403 17.7819C15.4139 17.6326 15.4155 17.4375 15.4157 17.0749C15.416 16.6543 15.3981 15.783 15.3757 15.1393L15.3347 13.9684V13.9596L15.3376 13.9508L15.444 13.6354C15.5218 13.4051 15.5598 13.2206 15.5934 12.9127L15.6393 12.4948L15.6413 12.4782L15.653 12.4655L15.7731 12.3424C15.8696 12.2433 15.9364 12.1466 15.9811 12.0377C16.026 11.9284 16.0503 11.8033 16.0573 11.6481C16.0659 11.4587 16.0552 11.3349 16.0241 11.2282C16.0012 11.1498 15.9282 11.0003 15.8434 10.8512C15.7585 10.7019 15.6663 10.5622 15.61 10.5016L15.5407 10.4264L15.528 10.4127L15.527 10.3932L15.5124 8.69595C15.4967 6.94921 15.4749 6.5434 15.3415 5.50747C15.3247 5.37714 15.3051 5.24772 15.2868 5.14517C15.2777 5.094 15.2691 5.0497 15.2614 5.01529C15.2534 4.97932 15.2463 4.95793 15.2429 4.94986C15.215 4.88499 15.1287 4.76801 15.0056 4.62954C14.884 4.49291 14.7315 4.34003 14.5768 4.20376C14.1336 3.81319 13.3507 3.23611 12.2927 2.52114C12.0916 2.38526 11.983 2.31158 11.9069 2.23989C11.829 2.16637 11.7851 2.09523 11.7097 1.97036C11.5072 1.63525 11.2532 1.38156 11.0153 1.26919C10.9054 1.21731 10.7469 1.16707 10.6013 1.13345C10.5288 1.11674 10.4605 1.10475 10.404 1.09829C10.3452 1.0916 10.3049 1.09156 10.2858 1.09634C10.1856 1.12155 10.1257 1.19828 10.1257 1.28677Z" fill="#6281AA"/>
</g>
<defs>
<clipPath id="clip0_128_692">
<rect width="24" height="24" fill="white"/>
</clipPath>
</defs>
</svg>
