<svg width="24" height="24" viewBox="0 0 24 24" fill="none" xmlns="http://www.w3.org/2000/svg">
<path fill-rule="evenodd" clip-rule="evenodd" d="M11.8669 0.0611869C11.5519 0.0876378 11.3842 0.126001 11.0497 0.248073C9.95262 0.648456 9.24011 1.69974 8.99756 3.27591C8.91642 3.80333 8.88423 3.93389 8.7751 4.17819C8.64586 4.46755 8.4321 4.78381 8.01135 5.30828C7.33256 6.15436 7.17264 6.485 7.15016 7.08908C7.13504 7.49497 7.17549 7.69912 7.3529 8.11215C7.51006 8.47808 7.50334 8.56957 7.28805 8.9939C7.01518 9.53179 6.94544 9.77027 6.9268 10.2288C6.90822 10.6855 6.93996 10.8506 7.11653 11.2159C7.1842 11.3559 7.2395 11.4928 7.23941 11.5201C7.23931 11.5475 7.14427 11.7356 7.02821 11.9381C5.58045 14.4648 5.21642 15.182 5.08227 15.7718C4.96686 16.2791 5.03879 16.7972 5.29993 17.3399C5.66612 18.1008 6.26491 18.78 7.28209 19.5883C7.65856 19.8874 8.83758 20.7006 8.96519 20.7492C9.22445 20.8477 9.46907 20.5475 9.34729 20.2802C9.32311 20.2271 9.0854 20.046 8.68838 19.7782C7.22461 18.7908 6.3174 17.9112 5.91273 17.0872C5.65276 16.5578 5.61629 16.2255 5.76545 15.7446C5.87776 15.3826 6.48203 14.2098 7.20697 12.9469C7.66528 12.1484 7.81092 11.8854 7.82956 11.8223C7.84073 11.7846 7.79075 11.5152 7.71668 11.2139C7.48765 10.2822 7.50814 10.0486 7.88781 9.26463L8.1202 8.78473L8.11943 8.48006C8.11873 8.1957 8.11075 8.15868 7.9995 7.9236C7.76564 7.42936 7.73096 7.15085 7.85719 6.78057C7.95717 6.48737 8.09221 6.27643 8.54963 5.69896C9.12489 4.97274 9.33144 4.63564 9.47503 4.18857C9.54173 3.98083 9.56242 3.87804 9.65801 3.27815C9.71962 2.89157 9.8951 2.33549 10.0579 2.011C10.3777 1.37359 10.8465 0.981336 11.5211 0.786828C11.7228 0.728642 11.8477 0.71516 12.1711 0.716601C12.6381 0.718651 12.9024 0.77341 13.2657 0.943324C13.5391 1.07116 13.6271 1.07026 13.759 0.938393C13.8679 0.829483 13.8649 0.640931 13.7522 0.506979C13.4973 0.20401 12.6242 -0.00244283 11.8669 0.0611869ZM14.2654 1.28728C14.1271 1.42562 14.1204 1.554 14.2446 1.69058C14.3178 1.77115 14.3822 1.79789 14.6269 1.84954C15.0218 1.93287 15.1541 2.00591 15.3211 2.23283C15.608 2.62248 15.5979 2.86211 15.2646 3.57555C14.8878 4.38211 14.8069 4.72066 14.8417 5.34559C14.8607 5.68657 14.8557 5.73931 14.7827 5.97004C14.668 6.33241 14.4061 6.96787 14.3063 7.12588C14.164 7.35106 14.1175 7.36794 13.8016 7.30892C13.6534 7.28122 13.4312 7.2516 13.3079 7.24308C13.115 7.22976 13.0662 7.23786 12.9575 7.30126C12.888 7.34174 12.8047 7.42023 12.7723 7.47563C12.721 7.56353 12.6003 8.04036 12.5417 8.38723L12.5221 8.50296L12.319 8.52377C11.8798 8.56877 11.6089 8.74473 11.4355 9.09779C11.2993 9.37527 11.2436 9.66796 11.221 10.2249C11.1843 11.1314 11.3456 11.9545 11.7781 13.0675C11.8586 13.2747 11.9161 13.4528 11.9057 13.4631C11.8779 13.4909 10.7386 13.4166 10.3474 13.3615C9.95745 13.3066 9.64741 13.2383 9.60859 13.1986C9.56655 13.1556 9.29333 12.4322 9.2068 12.1347C9.11243 11.8102 9.10884 11.6547 9.19204 11.4916C9.28062 11.318 9.44316 11.1952 9.76435 11.0592C10.1312 10.9039 10.308 10.7866 10.5195 10.5583C10.7308 10.33 10.8611 10.0678 10.9736 9.64464C11.0962 9.1831 11.1926 9.01568 11.6374 8.49159C11.9614 8.10985 12.097 7.77037 12.1284 7.26277C12.1527 6.86934 12.1052 6.5705 11.9438 6.09967C11.8475 5.81857 11.8137 5.66931 11.8129 5.51983C11.8109 5.18093 11.8428 5.15406 12.4626 4.97156C12.9784 4.81964 13.1931 4.70391 13.4688 4.4289C13.8388 4.0598 14.0718 3.52604 14.1144 2.94982C14.1336 2.68931 14.1332 2.6872 14.0355 2.58956C13.876 2.43002 13.6232 2.46848 13.5235 2.66747C13.5059 2.7027 13.4816 2.81078 13.4696 2.90765C13.4217 3.29394 13.3109 3.57385 13.0929 3.85943C12.911 4.09778 12.7451 4.19372 12.2772 4.33126C11.6393 4.51875 11.4117 4.6602 11.2487 4.97025C11.1703 5.11954 11.1631 5.16418 11.1632 5.50151C11.1632 5.85264 11.1696 5.88783 11.2995 6.25799C11.4585 6.71057 11.4913 6.92086 11.4613 7.2948C11.4331 7.64759 11.3661 7.79509 11.0834 8.12739C10.6417 8.64655 10.4812 8.92893 10.359 9.40181C10.3148 9.57272 10.2499 9.77251 10.2147 9.84581C10.1216 10.0396 9.91704 10.2582 9.76102 10.3305C9.17436 10.6024 9.0536 10.671 8.88106 10.8308C8.76956 10.934 8.65543 11.0798 8.5991 11.191C8.512 11.3629 8.50451 11.4045 8.50496 11.714C8.5054 12.0404 8.51117 12.0672 8.70228 12.6357L8.89916 13.2213L8.57067 13.7736C8.28851 14.248 7.45143 15.7269 7.21882 16.1619C7.16988 16.2535 7.1435 16.3564 7.1435 16.4559C7.1435 16.5962 7.16992 16.6489 7.45848 17.0836C8.08952 18.0343 9.26022 19.5148 9.63777 19.8396C9.8145 19.9917 10.062 19.9139 10.1513 19.6782C10.2036 19.5402 10.1368 19.4235 9.77092 19.0137C9.18147 18.3534 8.6 17.6036 8.09163 16.8482L7.8098 16.4294L8.27285 15.6168C8.52753 15.1699 8.83514 14.6209 8.95645 14.397C9.07772 14.173 9.18759 13.9892 9.20062 13.9887C9.21362 13.9881 9.28391 14.1062 9.3568 14.2511C9.68455 14.903 10.1895 15.7405 10.9549 16.9017C11.5654 17.8278 11.615 17.9406 11.5851 18.3358C11.555 18.7333 11.316 19.1565 10.7764 19.7677C10.1098 20.5229 9.74082 21.0494 9.42988 21.6891C9.1034 22.3609 8.93678 22.9583 8.93678 23.4571C8.93678 23.6425 8.9463 23.673 9.03039 23.7571C9.13645 23.8631 9.26899 23.8792 9.41482 23.8038C9.5304 23.7441 9.54131 23.7136 9.59668 23.2966C9.67869 22.6788 9.94858 21.9987 10.3657 21.3586C10.5792 21.0311 10.641 20.9524 11.2095 20.2854C11.7136 19.6939 11.8463 19.5083 12.0144 19.1593C12.1979 18.7781 12.2442 18.5578 12.2287 18.137C12.2109 17.6538 12.1412 17.4932 11.5949 16.6775C10.9643 15.7361 9.96152 14.0898 9.96152 13.996C9.96152 13.9804 10.066 13.9856 10.1937 14.0075C10.6931 14.0931 11.2888 14.1268 12.2672 14.1245C12.822 14.1233 13.4095 14.1094 13.5728 14.0939L13.8696 14.0655L13.9045 14.1947C13.9237 14.2657 14.1169 15.118 14.3338 16.0888C14.7437 17.9233 14.8164 18.1879 15.0279 18.6149C15.3634 19.2924 16.0032 19.9331 16.6936 20.283C16.9773 20.4269 17.1294 20.4298 17.2439 20.2937C17.3382 20.1816 17.3528 20.0273 17.279 19.9219C17.2527 19.8844 17.1175 19.7881 16.9785 19.7079C16.6614 19.525 16.3056 19.2431 16.0809 18.9969C15.597 18.4664 15.3844 17.9499 15.1157 16.6513C14.9593 15.8953 14.4107 13.4837 14.3003 13.0661C14.1942 12.6654 14.0887 12.4542 13.8893 12.2432C13.7368 12.0821 13.7095 12.0662 13.5845 12.0662C13.3016 12.0662 13.168 12.3467 13.339 12.5819C13.5262 12.8393 13.5903 12.9503 13.6475 13.1166C13.6809 13.2137 13.7082 13.3182 13.7082 13.3489C13.7082 13.4086 13.6485 13.4178 12.9697 13.462L12.6635 13.482L12.4946 13.0863C12.0053 11.9402 11.8057 10.9673 11.8829 10.1048C11.9348 9.52456 12.0301 9.26133 12.206 9.21211C12.3096 9.18316 13.2853 9.18351 13.9003 9.21275C14.4797 9.24032 14.6135 9.28391 14.838 9.51825C15.081 9.77184 15.1304 9.91232 15.3744 11.0427C15.5875 12.0303 16.0293 14.3106 16.1744 15.1725C16.3319 16.1079 16.4722 16.59 16.778 17.2454C17.1287 17.9973 17.5135 19.4239 17.9681 21.6571C18.3312 23.4413 18.3599 23.5453 18.5097 23.6255C18.7003 23.7275 18.9602 23.577 18.9598 23.3648C18.9595 23.2363 18.4719 20.8186 18.2698 19.9439C18.0256 18.8868 17.5875 17.4166 17.4175 17.0832C17.3824 17.0145 17.3182 16.9275 17.2747 16.8899C17.0812 16.7225 17.0468 15.7557 17.2222 15.4133C17.2495 15.3601 17.3906 15.1941 17.5359 15.0444C17.986 14.5804 18.1555 14.2409 18.1831 13.7474C18.2289 12.9314 17.9066 12.4669 16.7429 11.6719C16.4129 11.4465 16.1234 11.2425 16.0995 11.2186C16.0757 11.1948 16.0164 10.9758 15.9678 10.7321C15.8355 10.0684 15.7427 9.72851 15.6364 9.5179C15.4218 9.09273 15.0566 8.76907 14.6417 8.63624C14.4655 8.57982 14.3222 8.56524 13.8123 8.55173C13.272 8.53742 13.1958 8.52899 13.1958 8.48352C13.1957 8.35232 13.3045 7.90323 13.3363 7.90323C13.3559 7.90323 13.4849 7.92485 13.623 7.95127C13.9376 8.01147 14.2227 8.01266 14.3622 7.95437C14.5117 7.8919 14.7239 7.69351 14.8479 7.50016C14.9818 7.29137 15.213 6.74986 15.3748 6.26599L15.5015 5.88687V5.36307C15.5015 4.70535 15.5477 4.50912 15.8529 3.87055C15.9756 3.61395 16.098 3.31812 16.125 3.21315C16.2224 2.83361 16.1729 2.38852 15.994 2.03537C15.8849 1.82011 15.5625 1.4986 15.3454 1.3886C15.1306 1.27973 14.7387 1.1784 14.5325 1.1784C14.3953 1.1784 14.3598 1.19285 14.2654 1.28728ZM16.3863 12.761C16.4452 13.0746 16.5542 13.6662 16.6284 14.0757C16.7026 14.4852 16.7718 14.8202 16.7821 14.8202C16.7925 14.8202 16.9259 14.7008 17.0785 14.5549C17.4374 14.2118 17.5278 14.0308 17.5302 13.6502C17.5316 13.4171 17.5202 13.3638 17.4287 13.1781C17.3611 13.0407 17.2621 12.9099 17.1408 12.7977C16.9685 12.6382 16.4286 12.2483 16.3251 12.2086C16.2886 12.1946 16.3011 12.3078 16.3863 12.761Z" fill="#6281AA"/>
<path d="M12.8616 9.1407C13.1959 9.14083 13.5948 9.1484 13.9032 9.16307C14.1919 9.17682 14.3767 9.19488 14.5178 9.24087C14.6625 9.28805 14.7586 9.36386 14.8738 9.484C14.9992 9.61495 15.0769 9.71928 15.1529 9.93524C15.2274 10.147 15.3015 10.4682 15.4232 11.0322C15.6365 12.0205 16.0784 14.3017 16.2236 15.1644C16.3805 16.0964 16.5194 16.5741 16.8227 17.2242C17.1762 17.9822 17.5624 19.4146 18.0169 21.6472C18.1987 22.5402 18.2963 23.0105 18.367 23.2674C18.4024 23.3961 18.4299 23.4669 18.4555 23.5096C18.4791 23.5487 18.5015 23.5645 18.5333 23.5815C18.6106 23.6229 18.7046 23.6143 18.7813 23.5699C18.8581 23.5254 18.9098 23.4493 18.9097 23.3647C18.9096 23.3606 18.9085 23.3472 18.9048 23.3219C18.9013 23.2976 18.8961 23.2653 18.8893 23.2256C18.8756 23.1459 18.8553 23.0376 18.8309 22.9086C18.7821 22.6504 18.7149 22.3086 18.6413 21.9438C18.4941 21.2141 18.322 20.3916 18.2211 19.955C18.0993 19.4277 17.929 18.7966 17.768 18.2561C17.6063 17.7136 17.4556 17.2674 17.3731 17.1056C17.34 17.0408 17.279 16.9598 17.2418 16.9276C17.2098 16.8999 17.1845 16.8589 17.164 16.8129C17.1432 16.766 17.1258 16.7092 17.1115 16.6475C17.083 16.5241 17.0655 16.3734 17.06 16.2186C17.0545 16.0638 17.0606 15.903 17.0794 15.7587C17.0981 15.6154 17.1301 15.4842 17.1776 15.391C17.1944 15.3583 17.2413 15.2983 17.2973 15.2325C17.3548 15.1649 17.4273 15.0853 17.5005 15.0098C17.7237 14.7798 17.8743 14.5827 17.9732 14.3845C18.0717 14.187 18.1201 13.9857 18.1336 13.7446C18.156 13.3452 18.0885 13.0367 17.8759 12.7302C17.6611 12.4207 17.2959 12.11 16.7147 11.713C16.5497 11.6003 16.3949 11.4928 16.2781 11.4105C16.2197 11.3694 16.1701 11.3347 16.1341 11.3084C16.1162 11.2954 16.1016 11.284 16.0904 11.2754C16.0802 11.2676 16.0699 11.2597 16.0641 11.254C16.0543 11.2441 16.0477 11.2306 16.0437 11.2219C16.0388 11.2112 16.0342 11.1975 16.0291 11.183C16.0189 11.1538 16.0071 11.1156 15.9951 11.0711C15.9708 10.9817 15.9437 10.8642 15.9192 10.7415C15.7868 10.0773 15.6952 9.74401 15.5924 9.5404C15.3832 9.12599 15.0276 8.81202 14.6267 8.68362C14.4583 8.62967 14.3215 8.61546 13.8108 8.60193C13.542 8.5948 13.3855 8.58842 13.2963 8.57859C13.2531 8.5738 13.2191 8.56748 13.1952 8.55622C13.1824 8.55013 13.1689 8.54113 13.1592 8.52704C13.1491 8.51224 13.1456 8.49632 13.1456 8.48328C13.1456 8.41075 13.1749 8.26006 13.2059 8.1322C13.2216 8.06743 13.2383 8.00594 13.2535 7.96007C13.261 7.9376 13.2686 7.91704 13.2759 7.90172C13.2794 7.89443 13.2841 7.8856 13.2895 7.87838C13.2923 7.87476 13.2971 7.86933 13.3031 7.86476C13.309 7.86037 13.3205 7.85312 13.3362 7.85309C13.3454 7.85309 13.3612 7.85569 13.3771 7.85795C13.3946 7.86046 13.4171 7.86428 13.4432 7.86865C13.4955 7.87741 13.5627 7.88945 13.6319 7.90269C13.7867 7.93231 13.9343 7.9469 14.0588 7.94742C14.1843 7.94792 14.2823 7.93373 14.3428 7.90852C14.4097 7.88056 14.4957 7.82004 14.581 7.74028C14.6657 7.66112 14.7462 7.56553 14.8057 7.47284C14.9361 7.26939 15.1665 6.7334 15.3279 6.25039L15.4514 5.87986V5.36346C15.4514 5.03393 15.4635 4.8151 15.5146 4.59809C15.5657 4.38144 15.6556 4.16871 15.8083 3.84925C15.9311 3.59234 16.0512 3.30023 16.0768 3.20059C16.1711 2.83293 16.1229 2.40032 15.9494 2.05788C15.8983 1.95706 15.7948 1.82714 15.6751 1.70778C15.5554 1.5884 15.4249 1.48416 15.3231 1.43256C15.22 1.38033 15.0719 1.32899 14.9234 1.29057C14.7743 1.25203 14.6293 1.22833 14.5324 1.22833C14.4643 1.22833 14.43 1.23255 14.4021 1.24389C14.3743 1.25521 14.3478 1.27583 14.3009 1.32266C14.2364 1.3872 14.2092 1.44266 14.2066 1.49188C14.2041 1.54043 14.2246 1.59465 14.2815 1.65721C14.3138 1.69277 14.3423 1.71501 14.3904 1.73501C14.4414 1.7562 14.5147 1.77525 14.6374 1.80114C14.8355 1.84294 14.9737 1.8833 15.0838 1.9441C15.1954 2.0058 15.2751 2.08707 15.361 2.20376C15.5077 2.40309 15.5839 2.57169 15.5749 2.78532C15.566 2.99409 15.4758 3.24033 15.3094 3.5964C15.1213 3.99902 15.0094 4.28224 14.9477 4.54071C14.8862 4.79799 14.874 5.03373 14.8913 5.34303C14.9007 5.51271 14.9045 5.61486 14.8961 5.70384C14.8876 5.7941 14.8666 5.86919 14.83 5.98489C14.7721 6.16786 14.6775 6.41875 14.5849 6.64328C14.493 6.86639 14.4012 7.06959 14.3486 7.15288C14.2788 7.26332 14.2228 7.33911 14.1356 7.37072C14.0924 7.38633 14.0452 7.38969 13.9907 7.38628C13.9364 7.38288 13.8714 7.37285 13.7923 7.35808C13.6456 7.33067 13.4251 7.30128 13.3041 7.29292C13.2078 7.28628 13.1529 7.28577 13.1096 7.29292C13.0684 7.29977 13.0344 7.31404 12.9822 7.34447C12.9516 7.36235 12.9164 7.38974 12.885 7.41935C12.8531 7.44935 12.8277 7.47922 12.8149 7.50104C12.8054 7.5176 12.7897 7.55886 12.7702 7.62163C12.7512 7.68286 12.7297 7.76035 12.708 7.84628C12.6643 8.0188 12.6194 8.22387 12.5903 8.39575L12.5708 8.51148L12.565 8.54844L12.5271 8.55233L12.3238 8.57372C12.1098 8.59568 11.9403 8.64887 11.8045 8.73711C11.6692 8.82505 11.564 8.94972 11.4807 9.1193C11.349 9.38741 11.2931 9.67229 11.2706 10.227C11.2343 11.1248 11.3942 11.9408 11.8249 13.0492C11.8654 13.1533 11.8996 13.2507 11.9232 13.3235C11.9348 13.3595 11.9438 13.3908 11.9494 13.4139C11.9522 13.4253 11.9551 13.4368 11.9562 13.446C11.9567 13.4504 11.9566 13.4563 11.9562 13.4625C11.956 13.4657 11.9559 13.4708 11.9543 13.4762C11.9527 13.4812 11.9489 13.4903 11.9407 13.4985C11.9334 13.5056 11.9257 13.5088 11.9222 13.5102C11.918 13.5119 11.9134 13.5134 11.9105 13.5141C11.9048 13.5154 11.8987 13.5165 11.893 13.517C11.881 13.5182 11.865 13.5187 11.8473 13.519C11.8116 13.5195 11.7626 13.518 11.7043 13.516C11.5868 13.5121 11.4287 13.5037 11.2599 13.4927C10.9229 13.4707 10.5386 13.4388 10.3409 13.411C10.145 13.3834 9.96786 13.3518 9.83516 13.3225C9.76929 13.308 9.71328 13.2941 9.67081 13.2807C9.64964 13.274 9.63067 13.2671 9.61538 13.2603C9.60165 13.2541 9.58447 13.2452 9.57259 13.233C9.56499 13.2251 9.55926 13.2142 9.55508 13.2068C9.55001 13.1977 9.54361 13.1864 9.53757 13.1737C9.52549 13.1483 9.51119 13.1147 9.49478 13.0755C9.46162 12.9963 9.42035 12.8918 9.37808 12.7798C9.29364 12.5563 9.20311 12.2994 9.15927 12.1487C9.06404 11.8212 9.0554 11.6496 9.1476 11.4689C9.2443 11.2794 9.42059 11.151 9.74472 11.0138C10.1068 10.8605 10.2774 10.7465 10.4829 10.5246C10.6869 10.3042 10.8142 10.0501 10.9254 9.63182C10.9871 9.3993 11.0431 9.23724 11.1412 9.06679C11.2388 8.8974 11.3769 8.72102 11.5993 8.45897C11.9161 8.08566 12.0481 7.75675 12.0788 7.25986C12.1026 6.87451 12.0566 6.58218 11.8969 6.11618C11.8002 5.83399 11.7636 5.67795 11.7627 5.52003C11.7617 5.35379 11.7673 5.23737 11.8726 5.14853C11.9219 5.10702 11.9904 5.07351 12.0817 5.03961C12.1736 5.00545 12.2937 4.96939 12.4483 4.92388C12.7051 4.84825 12.8838 4.78197 13.0318 4.70215C13.179 4.62276 13.2981 4.52888 13.4335 4.39386C13.7941 4.03412 14.0228 3.51143 14.0646 2.94579C14.0694 2.88051 14.0732 2.83295 14.0743 2.79602C14.0755 2.75883 14.0741 2.73577 14.0705 2.71919C14.0642 2.69047 14.051 2.67547 14.0004 2.62486C13.8642 2.48858 13.6517 2.52236 13.5677 2.69002C13.5619 2.70177 13.5531 2.73221 13.5434 2.7756C13.5339 2.81753 13.5248 2.86699 13.519 2.91369C13.4701 3.30799 13.3567 3.59692 13.133 3.8901C13.039 4.01314 12.9465 4.10103 12.8169 4.17602C12.6888 4.25008 12.5253 4.31032 12.2908 4.37927C11.9728 4.47275 11.7619 4.55298 11.611 4.64671C11.4624 4.73905 11.3707 4.84518 11.293 4.99293C11.2547 5.06569 11.2362 5.10902 11.2259 5.17284C11.215 5.24009 11.2132 5.33174 11.2132 5.50155C11.2132 5.67754 11.2148 5.76962 11.2317 5.86333C11.2487 5.95763 11.2811 6.05565 11.3464 6.24164C11.4262 6.46866 11.4751 6.63765 11.5001 6.79791C11.5252 6.95889 11.526 7.10939 11.5108 7.29876C11.4965 7.47761 11.4725 7.60932 11.4136 7.73931C11.355 7.86835 11.2636 7.99277 11.1218 8.15943C10.6832 8.6749 10.5267 8.95082 10.407 9.41397C10.3628 9.58523 10.2967 9.78915 10.2592 9.86717C10.21 9.96955 10.133 10.077 10.0481 10.1677C9.96371 10.2579 9.86785 10.3359 9.78168 10.3758C9.19488 10.6478 9.08089 10.7135 8.91517 10.8669C8.80721 10.9669 8.69706 11.1083 8.64384 11.2131C8.60067 11.2983 8.57933 11.3466 8.56798 11.4096C8.55622 11.4749 8.55414 11.5581 8.55436 11.714C8.55459 11.8772 8.55645 11.9609 8.58062 12.0738C8.60528 12.1889 8.65391 12.335 8.74984 12.6204L8.94629 13.2058L8.95407 13.2272L8.9424 13.2466L8.61369 13.799C8.33187 14.2729 7.49509 15.7513 7.26287 16.1856C7.21765 16.2702 7.19284 16.365 7.19284 16.4559C7.19285 16.4895 7.19478 16.5152 7.20062 16.5415C7.20648 16.5678 7.21756 16.5969 7.23758 16.6368C7.27859 16.7185 7.3552 16.8376 7.50016 17.056C7.81464 17.5297 8.2636 18.1367 8.68176 18.6655C9.10119 19.1959 9.48536 19.6437 9.66984 19.8024C9.74529 19.8673 9.8337 19.8813 9.91199 19.8568C9.991 19.832 10.0647 19.7656 10.1046 19.6604C10.1153 19.6319 10.1196 19.6068 10.1162 19.5797C10.1126 19.5517 10.1003 19.518 10.0744 19.4727C10.0215 19.3804 9.91751 19.2523 9.73402 19.0467C9.14307 18.3847 8.56017 17.6332 8.0506 16.8761L7.76857 16.4569L7.75107 16.4316L7.76663 16.4044L8.22954 15.5924C8.48419 15.1455 8.79121 14.5963 8.91225 14.3728C8.97309 14.2604 9.03191 14.1577 9.0766 14.083C9.09879 14.0459 9.11829 14.0154 9.13301 13.9935C9.1403 13.9827 9.14656 13.9726 9.15246 13.9653C9.15522 13.9619 9.15921 13.9583 9.16316 13.9546C9.16516 13.9528 9.16866 13.9495 9.17288 13.9469C9.17619 13.9448 9.18534 13.9397 9.19817 13.9391L9.23221 13.9488C9.23726 13.9523 9.24114 13.9566 9.24388 13.9595C9.24951 13.9654 9.25516 13.9727 9.26041 13.9799C9.27122 13.9949 9.28487 14.016 9.29931 14.0402C9.32833 14.089 9.3647 14.1559 9.40142 14.2289C9.72783 14.8781 10.2313 15.7136 10.9963 16.8741C11.3007 17.3358 11.4685 17.5999 11.5555 17.798C11.6449 18.0014 11.6496 18.1374 11.6343 18.3397C11.6029 18.7545 11.354 19.1882 10.8135 19.8004C10.1488 20.5534 9.78268 21.0761 9.47436 21.7104C9.14968 22.3785 8.98616 22.9686 8.98616 23.4571C8.98616 23.5514 8.98955 23.5974 8.99977 23.6302C9.00887 23.6593 9.02492 23.6806 9.06591 23.7216C9.1122 23.7679 9.16166 23.7931 9.21373 23.7994C9.26616 23.8058 9.32557 23.7937 9.3917 23.7595C9.41993 23.7449 9.43666 23.7347 9.44908 23.7226C9.46059 23.7113 9.471 23.6955 9.48117 23.6671C9.503 23.6062 9.51929 23.5008 9.5473 23.2898C9.63053 22.6632 9.90408 21.976 10.3243 21.3312C10.5395 21.001 10.603 20.9195 11.1714 20.2526C11.6747 19.6621 11.8047 19.4809 11.9698 19.1381C12.0607 18.9494 12.1164 18.8027 12.1478 18.6529C12.1792 18.503 12.1866 18.3467 12.1789 18.1384C12.1702 17.9002 12.1486 17.7463 12.0642 17.552C11.9783 17.3543 11.8273 17.1135 11.5536 16.7049C11.2378 16.2335 10.8291 15.5861 10.4994 15.0448C10.3345 14.7741 10.1893 14.5294 10.0851 14.3466C10.0331 14.2552 9.99073 14.1787 9.96159 14.1219C9.94716 14.0938 9.93567 14.0698 9.92755 14.0509C9.9235 14.0415 9.91943 14.0326 9.91686 14.0247L9.91199 13.9965L9.91686 13.9741C9.92536 13.9554 9.94262 13.9468 9.947 13.9449C9.95659 13.9409 9.96687 13.9399 9.97423 13.9391C9.99009 13.9372 10.0107 13.937 10.0326 13.9381C10.0771 13.9403 10.137 13.9474 10.2018 13.9585C10.6969 14.0434 11.2898 14.0765 12.2674 14.0743C12.8223 14.073 13.4067 14.0594 13.5677 14.0441L13.8653 14.0159L13.9071 14.012L13.9178 14.0529L13.9528 14.1812C13.9723 14.2537 14.166 15.108 14.3826 16.0776C14.7929 17.9138 14.864 18.1723 15.0721 18.5926C15.4028 19.2602 16.0347 19.8939 16.7157 20.239C16.8558 20.31 16.9567 20.3415 17.0327 20.3431C17.1041 20.3445 17.1573 20.3191 17.2058 20.2614C17.2883 20.1633 17.2964 20.0337 17.2379 19.9502C17.2351 19.9464 17.2265 19.9369 17.2088 19.922C17.1916 19.9076 17.1691 19.8903 17.1426 19.8714C17.0896 19.8336 17.0221 19.7901 16.954 19.7508C16.6328 19.5656 16.2721 19.2806 16.0437 19.0302C15.5507 18.4897 15.3365 17.9619 15.0673 16.6611C14.9109 15.9052 14.3624 13.4947 14.2523 13.0784C14.1476 12.6828 14.0444 12.4798 13.8526 12.2771C13.7753 12.1953 13.7358 12.1568 13.7019 12.137C13.6723 12.1198 13.6449 12.1156 13.5842 12.1156C13.4605 12.1157 13.3746 12.1769 13.3362 12.2576C13.2978 12.3387 13.3033 12.448 13.379 12.5523C13.5671 12.811 13.6345 12.9275 13.6941 13.1008C13.7111 13.1503 13.7275 13.2014 13.7388 13.2447C13.7445 13.2664 13.7491 13.2871 13.7524 13.304C13.7555 13.3197 13.7583 13.336 13.7583 13.3488C13.7583 13.3599 13.7569 13.3752 13.7495 13.3906C13.7417 13.4067 13.7288 13.4187 13.7145 13.4275C13.6888 13.4433 13.6504 13.453 13.6007 13.4606C13.4982 13.4763 13.3104 13.4901 12.9725 13.5121L12.6671 13.5316L12.6311 13.5335L12.6175 13.5014L12.4483 13.1056C11.9572 11.9553 11.7555 10.9739 11.8337 10.1006C11.8597 9.80949 11.8968 9.59295 11.9514 9.44218C12.0057 9.29204 12.0816 9.19509 12.1925 9.16404C12.2111 9.15884 12.2432 9.15598 12.2801 9.15334C12.3187 9.15059 12.3681 9.14833 12.4259 9.14653C12.5423 9.14293 12.6945 9.14064 12.8616 9.1407ZM8.07005 8.48036C8.0697 8.33728 8.06725 8.26167 8.05255 8.19347C8.03793 8.12582 8.01012 8.06242 7.95432 7.94451C7.83661 7.69568 7.76733 7.49669 7.74426 7.3114C7.72109 7.12492 7.74547 6.95536 7.81039 6.76485C7.91341 6.46271 8.05319 6.24532 8.5106 5.66785C9.08497 4.94275 9.28695 4.61127 9.42768 4.1731C9.49298 3.96972 9.51299 3.87039 9.60857 3.27061C9.67091 2.87947 9.84793 2.31826 10.0131 1.98883C10.339 1.33934 10.819 0.937617 11.5069 0.739155C11.715 0.679159 11.8454 0.665743 12.1711 0.667189C12.6442 0.669265 12.9158 0.725213 13.2866 0.898647C13.424 0.962877 13.5049 0.988675 13.5648 0.988118C13.6184 0.98758 13.6622 0.965525 13.7242 0.903509C13.8112 0.816494 13.814 0.65713 13.7145 0.538817C13.6573 0.470839 13.5618 0.40477 13.4354 0.345287C13.3097 0.286148 13.156 0.235689 12.9861 0.19552C12.6462 0.11517 12.2437 0.079568 11.8706 0.110911C11.5608 0.136947 11.3971 0.174028 11.0664 0.294716C9.99265 0.686721 9.28739 1.71781 9.04646 3.28325C8.96518 3.81148 8.93273 3.94787 8.82083 4.19838C8.68885 4.49388 8.47153 4.81442 8.0506 5.33914C7.71152 5.76179 7.50456 6.05236 7.37957 6.31068C7.25565 6.56691 7.21072 6.79384 7.19965 7.09064C7.19217 7.29161 7.19851 7.44045 7.22786 7.58857C7.25727 7.73687 7.3109 7.88718 7.39902 8.09233C7.47755 8.27516 7.51981 8.39983 7.50988 8.53482C7.50009 8.66788 7.43977 8.80553 7.33289 9.01622C7.19683 9.28441 7.11217 9.47549 7.05961 9.65516C7.00729 9.83408 6.98617 10.0041 6.97695 10.2309C6.9677 10.4583 6.97081 10.6091 6.99737 10.7473C7.02385 10.885 7.07414 11.0135 7.16172 11.1946C7.19587 11.2653 7.22655 11.3359 7.24925 11.3921C7.26055 11.42 7.27078 11.4448 7.27745 11.465C7.28079 11.4751 7.28318 11.4849 7.28523 11.4932C7.28702 11.5005 7.28916 11.5106 7.28912 11.5204C7.28905 11.533 7.28494 11.5459 7.28232 11.5535C7.2789 11.5633 7.27431 11.5756 7.2687 11.5885C7.25745 11.6143 7.24131 11.6476 7.22202 11.6858C7.18327 11.7625 7.12965 11.8611 7.07128 11.9629C6.34736 13.2264 5.89476 14.0367 5.60668 14.6043C5.31884 15.1714 5.19684 15.494 5.13112 15.783C5.01861 16.2776 5.08801 16.7844 5.34507 17.3186C5.70672 18.0699 6.29942 18.7437 7.31344 19.5495C7.5003 19.698 7.8876 19.9749 8.2451 20.2215C8.42368 20.3447 8.59459 20.4599 8.72844 20.5473C8.79542 20.591 8.85313 20.6282 8.89766 20.6553C8.94377 20.6833 8.97241 20.6988 8.98324 20.7029C9.08906 20.7429 9.1931 20.7029 9.26041 20.6202C9.3279 20.5374 9.35421 20.4158 9.30223 20.3013C9.30223 20.3013 9.29973 20.2967 9.29153 20.2876C9.2835 20.2788 9.27173 20.2673 9.25652 20.2536C9.22607 20.2263 9.18254 20.1917 9.12717 20.1495C9.0162 20.065 8.85844 19.9535 8.66037 19.8199C7.19511 18.8314 6.27901 17.9455 5.86828 17.1095C5.73706 16.8423 5.65973 16.6208 5.63585 16.4034C5.61193 16.1854 5.64157 15.9744 5.71754 15.7295C5.77532 15.5434 5.95739 15.1559 6.21255 14.6607C6.46866 14.1636 6.80095 13.5537 7.16367 12.9218C7.3928 12.5227 7.54342 12.2575 7.63923 12.0845C7.68705 11.9981 7.72122 11.9352 7.74426 11.89C7.76796 11.8435 7.77903 11.819 7.78219 11.8083C7.781 11.8123 7.78167 11.8113 7.78122 11.7996C7.78084 11.7899 7.77938 11.7766 7.77733 11.7597C7.77324 11.726 7.76598 11.6806 7.75593 11.6264C7.73578 11.5179 7.70526 11.3757 7.6684 11.2258C7.55394 10.7601 7.49972 10.4613 7.52447 10.1793C7.54931 9.89673 7.65347 9.63513 7.84346 9.24281L8.07005 8.77309V8.48036ZM17.4801 13.6502C17.4808 13.5338 17.4783 13.4668 17.4655 13.4071C17.4528 13.3479 17.4293 13.2924 17.3838 13.2C17.3191 13.0685 17.2238 12.9427 17.1066 12.8343C17.0228 12.7568 16.847 12.621 16.6778 12.4988C16.5934 12.4379 16.5114 12.3805 16.4444 12.3364C16.4111 12.3145 16.3816 12.2984 16.3588 12.2848C16.3593 12.2907 16.359 12.2973 16.3598 12.3043C16.3687 12.3853 16.393 12.5248 16.4356 12.7516C16.4945 13.0653 16.6035 13.6569 16.6778 14.0665C16.7148 14.271 16.7502 14.4572 16.7779 14.5916C16.79 14.6502 16.8007 14.6986 16.8091 14.7346C16.8193 14.7257 16.8316 14.7166 16.8441 14.7054C16.8973 14.6578 16.9684 14.5914 17.0444 14.5187C17.2226 14.3483 17.3298 14.2223 17.3935 14.0947C17.4566 13.9684 17.4789 13.8362 17.4801 13.6502ZM17.5803 13.6502C17.579 13.8444 17.5552 13.9935 17.483 14.1384C17.4113 14.2821 17.2929 14.4182 17.1125 14.5907C17.0359 14.6638 16.9644 14.7308 16.9102 14.7793C16.8832 14.8035 16.8602 14.8236 16.8431 14.8377C16.8347 14.8446 16.827 14.8507 16.8207 14.8552C16.8177 14.8574 16.8137 14.8599 16.81 14.862C16.8082 14.863 16.8055 14.8646 16.8022 14.8659C16.8 14.8668 16.792 14.8698 16.7818 14.8698C16.7649 14.8697 16.7532 14.8619 16.7488 14.8581C16.7441 14.8541 16.7416 14.8497 16.74 14.8474C16.7369 14.8429 16.7351 14.838 16.7342 14.8357C16.732 14.8306 16.73 14.8247 16.7283 14.8192C16.7249 14.8079 16.7203 14.7924 16.7157 14.7735C16.7064 14.7349 16.6947 14.6787 16.6807 14.6111C16.6527 14.4758 16.6166 14.2896 16.5795 14.085C16.5053 13.6755 16.3963 13.0836 16.3374 12.7701C16.2949 12.544 16.27 12.4004 16.2606 12.315C16.256 12.2737 16.2547 12.2401 16.2586 12.2168C16.2604 12.2062 16.2647 12.1863 16.281 12.172C16.2916 12.1627 16.3033 12.1584 16.314 12.1574L16.3432 12.1623L16.4998 12.2537C16.5683 12.2988 16.6512 12.3568 16.7361 12.4181C16.9056 12.5405 17.0861 12.6794 17.1747 12.7614C17.3001 12.8774 17.4028 13.013 17.4733 13.1562C17.5191 13.2493 17.5473 13.3137 17.5628 13.3857C17.5781 13.4573 17.581 13.534 17.5803 13.6502ZM8.17022 8.78476V8.79643L8.16536 8.80615L7.93293 9.28658C7.74335 9.67805 7.64678 9.92513 7.62367 10.1881C7.60052 10.4518 7.65012 10.7364 7.76468 11.2024C7.80186 11.3537 7.8336 11.4972 7.85415 11.608C7.86441 11.6633 7.87208 11.7113 7.87652 11.748C7.87871 11.7661 7.87989 11.7823 7.88041 11.7957C7.88085 11.807 7.88147 11.8231 7.87749 11.8365C7.87134 11.8573 7.85593 11.8892 7.83276 11.9347C7.80893 11.9815 7.77485 12.0463 7.72675 12.1331C7.63053 12.3069 7.47925 12.5724 7.25022 12.9714C6.8881 13.6023 6.55636 14.2109 6.30105 14.7064C6.04488 15.2036 5.86747 15.5836 5.81285 15.7596C5.73971 15.9955 5.71304 16.1921 5.73505 16.3927C5.75718 16.5939 5.82914 16.8038 5.95775 17.0657C6.35656 17.8774 7.2541 18.7511 8.7158 19.7372C8.91445 19.8712 9.07433 19.9836 9.18747 20.0698C9.24398 20.1129 9.29031 20.1498 9.32362 20.1797C9.3402 20.1946 9.35432 20.2083 9.36544 20.2205C9.37578 20.2319 9.38631 20.2455 9.39267 20.2594C9.46215 20.4119 9.4272 20.5741 9.33821 20.6835C9.24893 20.793 9.10056 20.8536 8.94726 20.7953C8.92617 20.7872 8.89 20.7665 8.84612 20.7399C8.80028 20.712 8.74137 20.6749 8.67398 20.6309C8.53923 20.5429 8.36765 20.4276 8.1887 20.3042C7.83097 20.0574 7.44091 19.7781 7.2512 19.6273C6.231 18.8166 5.62535 18.1317 5.25463 17.3614C4.98951 16.8103 4.91559 16.2805 5.03386 15.7606C5.10227 15.4599 5.22875 15.1288 5.51818 14.5586C5.80758 13.9884 6.26101 13.1764 6.98473 11.9133C7.04237 11.8127 7.09474 11.7158 7.13255 11.641C7.15149 11.6035 7.16708 11.5721 7.17728 11.5486C7.18236 11.537 7.18574 11.5279 7.18798 11.5214C7.19104 11.5126 7.18995 11.5144 7.18993 11.5204C7.18996 11.523 7.19035 11.5222 7.18895 11.5165C7.18773 11.5116 7.185 11.5048 7.18215 11.4961C7.17639 11.4787 7.16772 11.4559 7.15686 11.429C7.13506 11.3751 7.10471 11.3066 7.07128 11.2374C6.98238 11.0535 6.92802 10.916 6.89915 10.7658C6.87041 10.616 6.86747 10.4559 6.87678 10.227C6.88619 9.99531 6.90891 9.81634 6.9643 9.62696C7.01949 9.43836 7.10669 9.241 7.24342 8.97148C7.3517 8.75805 7.40259 8.63721 7.41069 8.52704C7.41852 8.41899 7.38598 8.31473 7.3076 8.1322C7.21843 7.92461 7.16201 7.7663 7.1306 7.60802C7.09916 7.44933 7.09283 7.29167 7.10046 7.08675C7.11192 6.77984 7.15884 6.5393 7.2901 6.26789C7.4204 5.99845 7.63326 5.70012 7.9728 5.2769C8.39302 4.75307 8.60296 4.44065 8.72942 4.15754C8.83562 3.91975 8.86729 3.7947 8.94823 3.26866C9.19237 1.68214 9.91226 0.610262 11.0323 0.201355C11.3704 0.077955 11.5429 0.0385792 11.8629 0.0117146C12.247 -0.0205467 12.6599 0.0156057 13.0094 0.0982683C13.1843 0.139617 13.3448 0.19305 13.4782 0.255815C13.6106 0.318183 13.7202 0.391278 13.7904 0.474631C13.9162 0.624161 13.925 0.842721 13.7943 0.97353C13.7244 1.04339 13.6574 1.08737 13.5657 1.08829C13.4803 1.08909 13.3806 1.05162 13.2448 0.988118C12.8891 0.821754 12.6319 0.768426 12.1711 0.766385C11.8504 0.764956 11.7304 0.778166 11.5351 0.834461C10.8742 1.02505 10.4163 1.40835 10.1026 2.03357C9.94231 2.35317 9.76766 2.90427 9.70679 3.28617C9.6113 3.88543 9.59004 3.99236 9.52201 4.20422C9.37558 4.65992 9.16427 5.00311 8.5884 5.73009C8.13115 6.30738 8.00164 6.51272 7.90472 6.79694C7.84354 6.97646 7.82148 7.13106 7.84248 7.29973C7.86368 7.46967 7.92879 7.65758 8.04477 7.90269C8.10001 8.01944 8.13245 8.09254 8.1498 8.17305C8.16703 8.25315 8.1689 8.33921 8.16925 8.48036L8.17022 8.78476ZM15.5516 5.89542L15.5487 5.90223L15.4223 6.28151C15.2603 6.76608 15.0268 7.31304 14.8893 7.5273C14.8248 7.6278 14.7378 7.72838 14.6481 7.81224C14.5591 7.8955 14.4642 7.96538 14.3817 7.99994C14.3027 8.03293 14.1881 8.04717 14.0578 8.04662C13.9263 8.04605 13.7731 8.0305 13.6134 7.99994C13.5448 7.98681 13.4781 7.9755 13.4267 7.96687C13.401 7.96257 13.3789 7.95853 13.3625 7.95618L13.3615 7.9552C13.3577 7.96444 13.3528 7.97643 13.3479 7.99119C13.3338 8.03345 13.3176 8.09206 13.3022 8.15554C13.2734 8.2744 13.2504 8.40224 13.2467 8.46772C13.2573 8.47082 13.2755 8.4759 13.307 8.47939C13.3911 8.48868 13.5428 8.49458 13.8137 8.50176C14.3228 8.51525 14.473 8.53038 14.6569 8.58928C15.0857 8.72661 15.4609 9.05986 15.6809 9.49567C15.7907 9.71325 15.8844 10.0597 16.0165 10.722C16.0406 10.843 16.0678 10.958 16.0913 11.0449C16.1031 11.0883 16.1134 11.1248 16.1225 11.1509C16.127 11.1637 16.1311 11.1733 16.1341 11.1801L16.1351 11.183C16.1351 11.183 16.1358 11.185 16.138 11.1869C16.141 11.1893 16.1455 11.1926 16.1507 11.1966C16.1611 11.2045 16.1758 11.2149 16.1935 11.2277C16.2288 11.2535 16.2774 11.288 16.3354 11.3289C16.4518 11.4108 16.6064 11.5178 16.7711 11.6303C17.3537 12.0283 17.7317 12.3484 17.9576 12.6738C18.1853 13.0022 18.2562 13.334 18.2328 13.7504C18.2187 14.0026 18.1682 14.2177 18.0626 14.4292C17.9574 14.6401 17.7984 14.845 17.5715 15.0789C17.4996 15.153 17.4292 15.2317 17.3731 15.2977C17.3154 15.3656 17.2766 15.4153 17.2661 15.4358C17.2261 15.5138 17.1968 15.632 17.1786 15.7713C17.1606 15.9096 17.1548 16.0654 17.1601 16.2157C17.1655 16.366 17.182 16.5097 17.2088 16.6252C17.2221 16.6829 17.238 16.7327 17.2554 16.772C17.2732 16.8121 17.2907 16.8387 17.307 16.8527C17.3567 16.8957 17.4246 16.9883 17.4616 17.0608C17.5491 17.2325 17.7024 17.688 17.8633 18.2279C18.0248 18.77 18.196 19.4029 18.3184 19.9327C18.4196 20.3708 18.5923 21.1945 18.7395 21.9244C18.8131 22.2894 18.8802 22.6314 18.9291 22.8901C18.9536 23.0192 18.9737 23.1277 18.9875 23.2081C18.9944 23.2481 18.9993 23.2818 19.003 23.3073C19.0066 23.3314 19.0098 23.3524 19.0099 23.3647C19.0101 23.4923 18.9316 23.5981 18.8309 23.6564C18.7303 23.7145 18.5997 23.7295 18.4866 23.6691C18.4437 23.6461 18.4052 23.6196 18.3699 23.5611C18.3368 23.506 18.3065 23.4237 18.2707 23.2937C18.1989 23.0326 18.101 22.5578 17.9197 21.6667C17.465 19.433 17.081 18.0118 16.7332 17.266C16.4252 16.6057 16.2834 16.1193 16.1254 15.181C15.9804 14.3201 15.539 12.0408 15.326 11.0536C15.2037 10.4873 15.1305 10.1728 15.0585 9.96831C14.9881 9.76806 14.9193 9.67565 14.8018 9.55304C14.6924 9.4389 14.6097 9.37529 14.4867 9.3352C14.3601 9.29398 14.1884 9.27607 13.8983 9.26226C13.5919 9.24769 13.1948 9.241 12.8616 9.24087C12.6952 9.24081 12.5447 9.24218 12.4298 9.24573C12.3723 9.24751 12.3237 9.2499 12.2869 9.25254C12.2486 9.25527 12.2273 9.25828 12.2198 9.26032C12.1549 9.27848 12.0949 9.33755 12.0447 9.47622C11.9947 9.61443 11.9587 9.82015 11.9329 10.1093C11.8567 10.9608 12.0533 11.9251 12.5407 13.0667L12.6944 13.4295L12.9667 13.412C13.3071 13.3898 13.4891 13.3772 13.5861 13.3624C13.6279 13.356 13.6476 13.3481 13.6571 13.3439C13.6566 13.3396 13.6561 13.3322 13.6542 13.3225C13.6514 13.3083 13.6478 13.2902 13.6426 13.27C13.6319 13.2292 13.617 13.1802 13.6007 13.1329C13.546 12.9736 13.4845 12.8676 13.2983 12.6116C13.2034 12.4811 13.1908 12.3326 13.2467 12.2148C13.303 12.0966 13.4253 12.0165 13.5842 12.0164C13.6486 12.0164 13.698 12.0204 13.7515 12.0514C13.8005 12.0799 13.8507 12.1299 13.9256 12.209C14.1326 12.428 14.2413 12.6478 14.3486 13.0531C14.4594 13.472 15.008 15.8854 15.1645 16.6417C15.4327 17.9373 15.6431 18.4428 16.1176 18.9631C16.3385 19.2052 16.6904 19.4846 17.0036 19.6652C17.0742 19.706 17.1442 19.751 17.2 19.7907C17.2278 19.8105 17.2531 19.8295 17.2729 19.8461C17.2915 19.8617 17.309 19.8787 17.3196 19.8938C17.4085 20.0209 17.3877 20.1996 17.2817 20.3256C17.2157 20.404 17.135 20.4453 17.0308 20.4432C16.9314 20.4412 16.8142 20.4001 16.671 20.3275C15.9714 19.973 15.3242 19.3245 14.9837 18.6373C14.7689 18.2037 14.6947 17.932 14.2854 16.1C14.0683 15.1283 13.8753 14.2772 13.8565 14.2075L13.8322 14.119L13.5774 14.1433C13.4113 14.1592 12.8215 14.1731 12.2674 14.1744C11.2883 14.1767 10.6891 14.1432 10.1853 14.0568C10.1245 14.0463 10.0699 14.0394 10.0306 14.0373C10.0361 14.0488 10.0425 14.0624 10.0501 14.0772C10.0782 14.132 10.1199 14.2072 10.1717 14.2979C10.2752 14.4795 10.4195 14.7232 10.584 14.9933C10.9132 15.5338 11.3215 16.1796 11.6363 16.6495C11.9089 17.0565 12.0655 17.3047 12.1556 17.5121C12.247 17.7226 12.2691 17.8908 12.2781 18.1355C12.2859 18.3478 12.2788 18.5125 12.2451 18.6733C12.2113 18.8341 12.152 18.9885 12.0593 19.1809C11.8883 19.5359 11.7519 19.7256 11.2473 20.3178C10.679 20.9845 10.6185 21.061 10.407 21.3856C9.99302 22.0209 9.72733 22.6945 9.6465 23.3034C9.61917 23.5092 9.60184 23.6277 9.5755 23.7012C9.56159 23.74 9.54383 23.7693 9.5191 23.7936C9.49526 23.8169 9.4668 23.8328 9.43741 23.848C9.35798 23.889 9.27864 23.9068 9.20206 23.8976C9.1249 23.8882 9.05467 23.8523 8.99491 23.7926C8.95191 23.7496 8.92118 23.7136 8.90447 23.6603C8.88892 23.6105 8.88696 23.5482 8.88696 23.4571C8.88696 22.948 9.05672 22.343 9.38489 21.6676C9.69836 21.0227 10.0704 20.4922 10.7386 19.7353C11.2773 19.1251 11.5064 18.7119 11.5351 18.3319C11.5497 18.1391 11.5446 18.0211 11.4641 17.8379C11.3813 17.6493 11.2195 17.3936 10.9137 16.9296C10.1479 15.7679 9.64104 14.9282 9.31195 14.2736C9.27593 14.202 9.24127 14.1371 9.21373 14.0908C9.20951 14.0837 9.20483 14.0774 9.20109 14.0713C9.19007 14.0886 9.17696 14.1098 9.16218 14.1346C9.11839 14.2078 9.06017 14.3089 8.99977 14.4205C8.87822 14.6449 8.57076 15.1941 8.3161 15.641L7.86777 16.4268L8.13327 16.8206C8.64035 17.5741 9.22012 18.3221 9.80793 18.9806C9.99015 19.1847 10.102 19.3202 10.161 19.4231C10.1908 19.4753 10.2087 19.5225 10.2144 19.568C10.2202 19.614 10.2131 19.6551 10.1979 19.6954C10.1485 19.8259 10.0534 19.9171 9.94214 19.9521C9.83036 19.9872 9.70673 19.9641 9.60565 19.8772C9.41258 19.7111 9.02203 19.2555 8.60396 18.7268C8.18476 18.1966 7.73298 17.5882 7.41652 17.1114C7.27293 16.8951 7.19245 16.7699 7.14811 16.6816C7.12558 16.6367 7.11149 16.5994 7.10337 16.5629C7.09525 16.5264 7.09365 16.4926 7.09365 16.4559C7.09365 16.348 7.12278 16.2373 7.17534 16.1389C7.40832 15.7032 8.24552 14.2236 8.52811 13.7485L8.84417 13.2155L8.65551 12.6515C8.56035 12.3684 8.50949 12.2162 8.48337 12.0942C8.45683 11.9701 8.45539 11.877 8.45517 11.714C8.45495 11.5604 8.45612 11.4679 8.46976 11.3921C8.48381 11.314 8.51047 11.255 8.55436 11.1684C8.61388 11.0509 8.73218 10.9004 8.84709 10.794C9.02618 10.6282 9.15423 10.5568 9.73986 10.2853C9.8097 10.253 9.89509 10.1852 9.97521 10.0996C10.0548 10.0145 10.1259 9.91564 10.1697 9.82438C10.2027 9.75581 10.2667 9.56012 10.3107 9.38966C10.4354 8.90718 10.6011 8.61801 11.0459 8.09525C11.1865 7.93004 11.2695 7.81419 11.3221 7.69846C11.3743 7.58352 11.3977 7.46474 11.4116 7.29098C11.4264 7.10642 11.4254 6.96427 11.4019 6.81347C11.3783 6.66213 11.3312 6.49995 11.2521 6.2747C11.1875 6.09072 11.1522 5.98532 11.1335 5.88181C11.1147 5.77776 11.1131 5.67638 11.113 5.50155C11.113 5.33404 11.1153 5.23401 11.1276 5.15728C11.1405 5.07756 11.1644 5.02341 11.2045 4.94722C11.2896 4.78514 11.3932 4.66479 11.5585 4.56211C11.7215 4.46081 11.944 4.3779 12.2635 4.28397C12.4965 4.21548 12.6501 4.1582 12.7673 4.09044C12.883 4.02349 12.9652 3.9441 13.0532 3.82883C13.2653 3.55091 13.3729 3.27926 13.4198 2.90105C13.4261 2.8511 13.436 2.79817 13.4461 2.75323C13.4558 2.7101 13.4673 2.66894 13.4792 2.64528C13.5946 2.41496 13.8877 2.37204 14.0705 2.55484C14.1173 2.6017 14.1542 2.63606 14.1677 2.6978C14.174 2.72651 14.1747 2.75942 14.1735 2.79894C14.1724 2.83863 14.1686 2.88891 14.1638 2.95357C14.1205 3.54033 13.8829 4.08545 13.5035 4.46388C13.3633 4.60373 13.2374 4.70549 13.0795 4.79065C12.9223 4.87538 12.7354 4.94293 12.4765 5.01919C12.3214 5.06486 12.2049 5.10021 12.1167 5.13297C12.0279 5.16594 11.9726 5.19513 11.9368 5.22536C11.8718 5.28022 11.8619 5.34687 11.8629 5.51906C11.8637 5.66006 11.8953 5.80329 11.9912 6.08312C12.1542 6.55851 12.2027 6.86435 12.1779 7.26569C12.146 7.78384 12.0062 8.13405 11.6752 8.52412C11.4529 8.78599 11.3203 8.95571 11.2278 9.11639C11.136 9.27592 11.0824 9.42832 11.0216 9.6571C10.9079 10.085 10.7744 10.3556 10.5558 10.5917C10.3384 10.8265 10.1553 10.9479 9.78362 11.1052C9.46571 11.2398 9.31651 11.357 9.2361 11.5146C9.16212 11.6598 9.16123 11.7994 9.25457 12.1205C9.29727 12.2673 9.38716 12.5217 9.47144 12.7448C9.51342 12.856 9.55369 12.9589 9.5862 13.0366C9.60247 13.0754 9.61687 13.1075 9.62802 13.1309L9.64455 13.164C9.64455 13.164 9.65028 13.1662 9.65622 13.1688C9.66679 13.1735 9.68173 13.1793 9.70096 13.1854C9.73944 13.1975 9.79211 13.211 9.85656 13.2253C9.98607 13.2538 10.1604 13.2845 10.3545 13.3118C10.5481 13.3391 10.9288 13.3715 11.2657 13.3935C11.4341 13.4045 11.5911 13.4129 11.7073 13.4168C11.7654 13.4188 11.813 13.4193 11.8463 13.4188L11.8473 13.4178C11.8425 13.4006 11.8368 13.3792 11.8288 13.3546C11.8061 13.2841 11.7716 13.1882 11.7316 13.0852C11.2975 11.968 11.1344 11.138 11.1714 10.2231C11.1941 9.66392 11.2503 9.36239 11.3912 9.07554C11.481 8.89269 11.5972 8.75285 11.75 8.65347C11.9028 8.55425 12.0891 8.49758 12.3141 8.47453L12.4785 8.45702L12.493 8.37922C12.5226 8.20423 12.5675 7.99656 12.6117 7.82197C12.6338 7.73475 12.6551 7.65505 12.6749 7.59148C12.6941 7.52978 12.7132 7.47811 12.7294 7.45047C12.749 7.41695 12.7817 7.37954 12.8169 7.34641C12.8524 7.31295 12.8939 7.28048 12.9326 7.25791C12.989 7.22504 13.0346 7.2044 13.0931 7.1947C13.1494 7.18536 13.215 7.18711 13.3109 7.19373C13.4365 7.2024 13.6611 7.23188 13.8108 7.25986C13.8895 7.27457 13.9489 7.28408 13.9965 7.28709C14.0436 7.29004 14.0761 7.28651 14.1016 7.27736C14.1521 7.25902 14.1916 7.21391 14.264 7.09939C14.3112 7.02468 14.3999 6.83008 14.4925 6.60536C14.5845 6.38215 14.6789 6.13405 14.7357 5.95474C14.7719 5.84001 14.7895 5.77303 14.7969 5.69411C14.8045 5.6139 14.8016 5.51883 14.7921 5.3479C14.7745 5.03271 14.786 4.78689 14.8504 4.51737C14.9146 4.24875 15.0304 3.95838 15.219 3.55458C15.3858 3.19752 15.4679 2.96717 15.4757 2.78046C15.4833 2.59868 15.4212 2.45227 15.2812 2.26211C15.2002 2.15204 15.13 2.083 15.0352 2.03065C14.9388 1.97751 14.8133 1.93982 14.617 1.89839C14.495 1.87263 14.4132 1.85165 14.3525 1.82642C14.289 1.80004 14.2484 1.76921 14.2076 1.72431C14.1403 1.65029 14.1021 1.57138 14.1064 1.48702C14.1108 1.40339 14.1563 1.32534 14.23 1.25167C14.2775 1.20417 14.3164 1.17099 14.3642 1.1515C14.4118 1.13209 14.4636 1.12816 14.5324 1.12816C14.6417 1.12816 14.7965 1.15495 14.9486 1.19429C15.101 1.23371 15.2561 1.2875 15.3678 1.34406C15.4829 1.4024 15.6222 1.51424 15.7451 1.63678C15.8681 1.75945 15.9809 1.89873 16.0388 2.01315C16.223 2.37689 16.2735 2.83464 16.173 3.22587C16.1446 3.33647 16.0202 3.63604 15.8978 3.89204C15.7453 4.21102 15.6593 4.41597 15.6109 4.62143C15.5627 4.82647 15.5516 5.03549 15.5516 5.36346V5.89542Z" fill="#6281AA"/>
</svg>
