<svg width="24" height="24" viewBox="0 0 24 24" fill="none" xmlns="http://www.w3.org/2000/svg">
<path fill-rule="evenodd" clip-rule="evenodd" d="M12.5816 0.00571712C12.5304 0.0131825 12.2865 0.0471332 12.0395 0.0811457C11.3253 0.179466 10.8336 0.347453 10.4133 0.63659L10.2708 0.734663L9.99258 0.696623C8.9078 0.548399 8.06179 1.00642 7.71408 1.93015C7.56973 2.3137 7.5455 2.48073 7.51989 3.26971L7.49526 4.02864L7.38213 4.31449C7.24989 4.64873 7.2449 4.71162 7.33929 4.85169C7.42819 4.98359 7.56582 5.02739 7.73359 4.97712C7.88684 4.93121 7.98426 4.80436 8.06951 4.53976C8.18709 4.17482 8.20122 4.06668 8.22935 3.31617C8.25943 2.51301 8.28898 2.33579 8.44711 2.01075C8.61383 1.66802 8.97883 1.42845 9.39318 1.38976L9.60614 1.36987L9.55717 1.44471C9.40008 1.68472 9.30186 1.86247 9.2303 2.03606C8.87202 2.90536 8.90737 3.89987 9.32775 4.77816L9.46408 5.06299L9.37688 5.18339C9.09177 5.57698 8.8281 5.64774 7.89777 5.58027L7.51979 5.55285L7.40989 5.66276C7.31683 5.75581 7.30001 5.79382 7.30001 5.91094C7.30001 6.07732 7.38052 6.19451 7.52509 6.23856C7.5802 6.25534 7.84133 6.28527 8.10541 6.30503C8.93292 6.36702 9.32698 6.25491 9.76905 5.83174L9.96129 5.64774L10.1253 5.79125C10.2155 5.87018 10.4008 5.99213 10.5371 6.06223C10.8936 6.24565 10.9243 6.27963 10.9243 6.49117C10.9243 6.81067 10.7566 7.15987 10.4823 7.41134C10.2904 7.58738 9.89007 7.78374 9.61497 7.8368C9.09016 7.93803 8.65351 8.25037 8.29139 8.78358C8.22777 8.87728 7.99792 9.27456 7.78062 9.66641C7.12292 10.8525 6.64436 11.6342 5.71354 13.0429C4.81131 14.4082 4.74443 14.5547 4.74443 15.1648C4.74443 15.5425 4.74709 15.5577 4.85285 15.7841C4.91248 15.9117 5.04357 16.1277 5.14418 16.2642C5.52297 16.7779 6.76272 17.9174 7.95799 18.8504L8.29068 19.1101L8.11696 19.2797C7.6892 19.6973 7.40855 20.2238 7.22266 20.957C7.10176 21.4341 7.05245 21.8121 7.05232 22.2635C7.0522 22.7358 7.09783 23.0283 7.22489 23.3695C7.29747 23.5644 7.32486 23.604 7.41237 23.6406C7.64255 23.7368 7.78508 23.665 7.85852 23.4158C7.8908 23.3064 7.88668 23.2397 7.83049 22.9605C7.73635 22.4928 7.74029 21.9684 7.8417 21.4676C8.0039 20.6665 8.17743 20.2703 8.52332 19.9111C8.85384 19.568 8.9853 19.5638 9.17668 19.8903C9.27268 20.0541 9.64805 20.4112 9.90389 20.582C10.5153 20.9903 11.147 20.9187 11.8823 20.3577C12.3152 20.0275 12.3399 19.6971 11.9696 19.1918C11.9009 19.0981 11.8022 18.9761 11.7502 18.9207L11.6556 18.8201H11.8258C11.9795 18.8201 12.0591 18.8513 12.645 19.1415C13.3314 19.4814 13.9878 19.7803 14.0479 19.7803C14.0986 19.7803 14.0933 19.9216 14.0213 20.4839C13.9064 21.382 13.8549 21.5873 13.7122 21.7164C13.5678 21.8471 13.516 22.0594 13.5926 22.2063C13.6121 22.2435 13.7468 22.3924 13.8921 22.5373C14.2558 22.8999 14.8776 23.6018 14.9372 23.7171C14.9868 23.8131 15.1412 23.9002 15.2616 23.9002C15.4613 23.9002 15.6189 23.7013 15.594 23.4804C15.5786 23.3442 15.4338 23.1599 14.7112 22.3571C14.5706 22.2009 14.4556 22.0613 14.4556 22.0468C14.4556 22.0324 14.4821 21.917 14.5145 21.7905C14.6626 21.2113 14.7764 20.3268 14.8569 19.1298C14.9372 17.9357 14.9568 17.8324 15.3124 16.7316C15.5301 16.0577 15.6972 15.3964 15.802 14.7942C15.8478 14.5307 15.9042 14.2699 15.9274 14.2145C15.9505 14.1592 16.0943 13.9731 16.2469 13.8012C16.5659 13.4417 16.6934 13.2225 16.7797 12.885C16.8516 12.6036 16.8559 12.4067 16.7963 12.125C16.7271 11.7989 16.5654 11.5159 16.1079 10.921C15.9834 10.7591 15.7365 10.4366 15.5592 10.2043L15.2368 9.78183L15.2656 9.63119C15.3513 9.18296 15.0997 8.69229 14.6725 8.47465C14.4559 8.36431 14.1995 8.28795 14.0456 8.28795C13.7925 8.28795 13.6285 7.95365 13.659 7.49965C13.6768 7.2352 13.7622 6.95595 13.8254 6.95595C13.8463 6.95595 14.0346 6.99777 14.2439 7.04888C14.6734 7.15376 14.8106 7.16185 15.0343 7.0954C15.3398 7.00467 15.4779 6.812 15.502 6.44257C15.515 6.24302 15.5243 6.21817 15.6055 6.16378C15.7333 6.07825 15.7989 5.92346 15.7765 5.76018C15.7665 5.68674 15.7713 5.61859 15.7872 5.60874C15.8031 5.59892 15.8405 5.51119 15.8704 5.4138C15.9092 5.28689 15.971 5.18578 16.0884 5.05685C16.2416 4.88868 16.2523 4.86662 16.2523 4.71797C16.2523 4.56572 16.2452 4.5523 16.0855 4.40222C15.7507 4.08759 15.6729 3.84585 15.755 3.37481C15.8061 3.08143 15.7999 2.67127 15.7411 2.44882C15.6713 2.1849 15.4725 1.79348 15.3174 1.61478C15.1996 1.47903 15.1847 1.44446 15.1824 1.30172C15.1764 0.933565 14.8227 0.491402 14.3578 0.270754C14.0315 0.115871 13.8916 0.0831282 13.4066 0.0481864C13.1913 0.032667 12.9386 0.0137092 12.8449 0.00608888C12.7512 -0.00156239 12.6327 -0.00171731 12.5816 0.00571712ZM12.1943 0.79389C11.6062 0.833603 11.171 0.984088 10.7229 1.30265C10.3579 1.56221 10.0076 1.99898 9.86938 2.36686C9.70502 2.80438 9.66524 3.49349 9.77865 3.9385C9.94304 4.58359 10.3807 5.1903 10.8461 5.41817C11.075 5.53021 11.2584 5.52916 11.3725 5.41516C11.5011 5.28655 11.4734 5.11704 11.2684 4.77769C11.0474 4.41182 11.0063 4.27896 11.0238 3.98722C11.0417 3.68957 11.1378 3.48903 11.3572 3.2918C11.5743 3.09664 11.7552 3.04002 12.1789 3.03475C12.497 3.03079 12.5319 3.02403 12.7055 2.93293C12.8175 2.87411 12.9911 2.81791 13.1424 2.79146C13.6907 2.69562 14.1473 2.3423 14.3802 1.83375C14.5313 1.50354 14.5217 1.32954 14.3413 1.1298C14.0801 0.840666 13.7917 0.759599 13.0462 0.765764C12.7736 0.767994 12.3903 0.780663 12.1943 0.79389ZM14.8702 2.3913C14.6354 2.76364 14.2728 3.09649 13.8945 3.28696C13.7795 3.34492 13.5485 3.43005 13.3812 3.47614C13.0445 3.56895 12.9896 3.60308 12.9023 3.77429C12.7637 4.0458 12.3957 4.09784 12.2743 3.8631C12.2219 3.76181 12.0911 3.72851 11.9199 3.7729C11.6725 3.83699 11.6702 4.09028 11.9134 4.48679C12.0019 4.63111 12.0943 4.81582 12.1188 4.89723C12.2414 5.30464 12.0824 5.80234 11.7504 6.04988L11.6339 6.13677L11.6231 6.49216C11.6063 7.04281 11.4612 7.39857 11.0629 7.86508L10.8552 8.10825L11.0059 8.26304C11.3306 8.59657 12.5881 9.68655 12.994 9.98631C13.4557 10.3273 14.004 10.548 14.2827 10.505C14.4582 10.478 14.7035 10.3949 14.7035 10.3625C14.7035 10.2923 14.178 9.65241 13.7846 9.24361C13.2097 8.64619 13.0433 8.36034 12.972 7.84808C12.9383 7.60606 12.9643 7.24459 13.0328 7.00241C13.0937 6.78712 13.3108 6.4044 13.4365 6.29087C13.5954 6.14727 13.6807 6.14885 14.2086 6.305C14.7846 6.47537 14.8583 6.46831 14.8583 6.24292C14.8583 6.06347 14.9451 5.82074 15.0449 5.72093C15.1193 5.64659 15.1371 5.60229 15.1371 5.49254C15.1371 5.30696 15.2096 5.0839 15.3351 4.88351L15.4399 4.71611L15.3073 4.55333C15.0398 4.22491 14.9705 3.86638 15.0578 3.26265C15.1111 2.89443 15.1058 2.7817 15.0223 2.51078C14.9587 2.30432 14.9363 2.28663 14.8702 2.3913ZM6.01448 7.0372C5.66565 7.09215 5.40925 7.20983 5.21487 7.40421C5.03047 7.58862 4.94578 7.81171 4.94578 8.11311C4.94578 8.39683 4.99624 8.56646 5.24238 9.1102C5.35071 9.34946 5.46098 9.63863 5.48747 9.75278C5.56321 10.0793 5.51101 10.1966 5.23516 10.3197C5.14728 10.359 5.06758 10.4037 5.05807 10.4191C5.04853 10.4345 4.97406 10.4724 4.89259 10.5033C4.59939 10.6143 4.53462 10.7302 4.66971 10.9019C4.82007 11.0931 5.02077 11.1197 5.40256 10.999C6.0106 10.807 6.31238 10.4175 6.26722 9.88325C6.24166 9.58073 6.15232 9.3099 5.90395 8.78175C5.78729 8.53369 5.68364 8.27581 5.67361 8.20868C5.65168 8.06197 5.7311 7.91325 5.86957 7.84163C6.0821 7.73173 6.61951 7.70298 7.31036 7.7645C7.64909 7.79467 7.70503 7.79272 7.79223 7.74762C8.06963 7.60417 8.01536 7.16835 7.70906 7.07979C7.59209 7.04596 6.18355 7.01056 6.01448 7.0372ZM9.60233 8.5787C9.41408 8.63997 9.282 8.72992 9.10419 8.91789C8.91068 9.12252 8.8131 9.27484 8.44829 9.9417C7.84173 11.0505 7.17865 12.135 6.24903 13.5385C5.58635 14.539 5.46876 14.7665 5.44816 15.0875C5.43397 15.3088 5.43933 15.3345 5.544 15.5454C5.73311 15.9264 6.12438 16.3357 7.22257 17.3009C7.65268 17.6789 8.36908 18.2594 9.09035 18.8142C9.48366 19.1167 9.55274 19.1857 9.77583 19.4981C9.90745 19.6824 10.2327 19.9583 10.4504 20.0701C10.6599 20.1778 10.963 20.1171 11.3038 19.899C11.5242 19.7579 11.5059 19.6961 11.117 19.2692C10.8045 18.9261 10.7326 18.7288 10.8608 18.5657L10.9212 18.4889L10.5433 18.5034C10.2523 18.5145 10.14 18.5072 10.0551 18.4716C9.68972 18.3186 8.15655 16.7803 7.31051 15.7179C6.88316 15.1812 6.7963 15.0376 6.77994 14.8403L6.76644 14.6778L6.99656 14.4179C7.63692 13.6948 8.62858 12.4076 9.26121 11.4786C9.76877 10.7331 9.75179 10.7539 9.88081 10.7217C9.95305 10.7037 10.0281 10.7038 10.0801 10.7221C10.1854 10.7592 10.3048 10.9336 10.3048 11.0505C10.3048 11.1448 10.212 11.3475 10.0571 11.5918C10.0059 11.6725 9.96402 11.7486 9.96402 11.7609C9.96402 11.7948 10.1771 11.7291 10.3486 11.6423C10.5428 11.544 10.7989 11.2877 10.8883 11.1023C11.0945 10.6746 11.0316 9.82548 10.7513 9.25408C10.6249 8.99629 10.3575 8.70421 10.1654 8.61392C10.0074 8.53973 9.76812 8.52477 9.60233 8.5787ZM11.6842 9.96138C11.7286 10.156 11.7112 10.8282 11.6562 11.0449C11.5683 11.3915 11.4038 11.6836 11.1596 11.927C10.8324 12.2532 10.5218 12.4112 10.1187 12.4568C9.9511 12.4758 9.93518 12.4838 9.94812 12.5435C10.0761 13.1325 10.2175 13.5664 10.3992 13.9279C10.5283 14.1849 10.8565 14.6635 10.934 14.7078C11.0724 14.787 15.01 14.7446 15.0916 14.6631C15.0973 14.6574 15.1297 14.5167 15.1637 14.3505C15.2498 13.9288 15.3962 13.6469 15.6974 13.3225C16.0348 12.9593 16.1124 12.8023 16.1111 12.4853C16.1103 12.2786 16.0951 12.2043 16.0193 12.0376C15.9443 11.8727 15.5903 11.3879 15.2421 10.9734L15.1691 10.8864L15.0244 10.9859C14.7548 11.1714 14.6038 11.2133 14.2078 11.2124C13.9026 11.2118 13.8171 11.1997 13.6108 11.1282C13.0954 10.9497 12.7011 10.7159 12.169 10.2731C11.9932 10.1268 11.8067 9.97262 11.7546 9.9304L11.6597 9.85364L11.6842 9.96138ZM20.3666 10.1C20.1165 10.1391 19.8446 10.1936 19.7626 10.2211C19.2589 10.3895 18.9736 10.7382 18.9264 11.243C18.8954 11.5757 19.0183 11.9295 19.3795 12.5473C19.6554 13.0191 19.6611 13.1001 19.4265 13.2137C19.3043 13.2729 19.2063 13.2853 18.6752 13.3091C17.7668 13.3499 17.5608 13.4006 17.2897 13.6505C17.0883 13.8361 17.0194 13.9849 17.0023 14.2704C16.9847 14.5653 17.035 14.7327 17.2621 15.1355C17.5692 15.6799 17.5911 15.8732 17.363 16.0259C17.1747 16.1519 16.9344 16.4015 16.929 16.4767C16.918 16.6283 16.9404 16.702 17.0184 16.7715C17.0926 16.8377 17.1223 16.8435 17.3193 16.8306C17.5776 16.8137 17.7339 16.7425 17.9296 16.5522C18.1304 16.3571 18.2159 16.1617 18.23 15.8653C18.246 15.5324 18.1808 15.3122 17.9393 14.8838C17.7105 14.4778 17.6862 14.3989 17.7514 14.2729C17.8361 14.109 17.9648 14.0757 18.6827 14.0314C19.4362 13.9849 19.6078 13.9545 19.8557 13.8239C20.1662 13.6602 20.3103 13.4127 20.3103 13.043C20.3103 12.7902 20.2491 12.5984 20.073 12.2994C19.8562 11.9313 19.6288 11.4808 19.6288 11.4195C19.6288 11.3899 19.651 11.3005 19.6781 11.2208C19.7631 10.9715 19.9262 10.8975 20.6145 10.7959C20.8414 10.7624 21.0529 10.7211 21.0844 10.7043C21.1953 10.6449 21.2705 10.5145 21.2705 10.3816C21.2705 10.2337 21.2117 10.1348 21.0843 10.0689C20.9719 10.0108 20.9236 10.0129 20.3666 10.1ZM9.0476 13.0209C8.85737 13.2809 8.24914 14.046 7.86478 14.5087L7.57351 14.8595L7.65888 14.9889C7.98407 15.482 9.62748 17.2451 9.84646 17.3358C10.0356 17.4141 10.3185 17.2423 10.5334 16.9185C10.8555 16.4332 10.7693 15.9745 10.1879 15.0801C10.0244 14.8285 9.82508 14.4833 9.74504 14.3129C9.58464 13.9715 9.34333 13.2983 9.28101 13.0182C9.25905 12.9195 9.23176 12.833 9.22036 12.8259C9.20899 12.8189 9.13124 12.9066 9.0476 13.0209ZM13.8516 15.4651C13.3695 15.4933 12.7831 15.5034 12.1836 15.4938L11.259 15.4791L11.2787 15.5465C11.3884 15.9222 11.4199 16.1027 11.4199 16.3559C11.4199 16.7738 11.3053 17.1391 11.0964 17.3874C11.0131 17.4864 10.995 17.55 11.0502 17.55C11.139 17.55 11.8196 17.8725 12.4618 18.2188C13.1136 18.5704 14.0201 19.0055 14.1011 19.0058C14.1206 19.0059 14.1492 18.8287 14.1724 18.5645C14.2279 17.931 14.3903 17.1622 14.5644 16.7083C14.6109 16.5872 14.8985 15.6409 14.9323 15.4978L14.9525 15.4126L14.7737 15.4171C14.6755 15.4196 14.2605 15.4412 13.8516 15.4651ZM13.6104 17.4264C13.509 17.5062 13.4262 17.7226 13.439 17.8746C13.4462 17.9609 13.472 18.0102 13.534 18.0563C13.6533 18.1449 13.7705 18.1003 13.8481 17.9366C13.8802 17.8688 13.9325 17.7618 13.9642 17.6988C14.041 17.5465 14.0372 17.5046 13.9403 17.4284C13.8371 17.3472 13.7121 17.3464 13.6104 17.4264Z" fill="#6281AA"/>
</svg>
