<svg width="24" height="24" viewBox="0 0 24 24" fill="none" xmlns="http://www.w3.org/2000/svg">
<path fill-rule="evenodd" clip-rule="evenodd" d="M12.8888 0.0589054C12.1793 0.133055 11.5081 0.329809 10.8441 0.658221C10.3413 0.906883 9.97615 1.1589 9.63637 1.49171C8.69373 2.41507 8.2051 3.5461 7.98409 5.31634L7.96337 5.48209L7.78893 5.53709C7.27832 5.69803 6.80737 6.21922 6.57857 6.8765C6.49762 7.10904 6.48781 7.18244 6.48713 7.56035C6.48645 7.94126 6.49563 8.01059 6.57854 8.25219C6.76487 8.79494 7.13904 9.22863 7.62614 9.46638C7.88776 9.5941 8.27749 9.69333 8.51743 9.69333C8.72678 9.69333 9.13306 9.60374 9.32753 9.51474C9.42705 9.46915 9.51481 9.43815 9.52246 9.44584C9.53428 9.45766 9.27491 10.8128 9.25963 10.8189C9.25674 10.8201 9.10007 10.8584 8.91152 10.9042C8.11509 11.0972 7.65698 11.46 7.47618 12.0409C7.40017 12.2851 7.39369 12.7407 7.46296 12.969C7.48963 13.0569 7.51161 13.1309 7.5118 13.1334C7.512 13.1359 7.45723 13.1481 7.39005 13.1605C7.15718 13.2034 6.85175 13.3767 6.64526 13.583C6.43636 13.7916 6.30171 14.0176 6.20802 14.3169L6.15217 14.4954L5.96105 14.5341C5.50922 14.6256 5.15284 14.8143 4.89903 15.0967C4.54736 15.4878 4.52288 16.1379 4.84093 16.6392L4.94003 16.7953L4.67046 17.0625C4.35865 17.3715 4.1646 17.7173 4.07264 18.1275C3.99347 18.4808 3.99846 19.1003 4.08358 19.4952C4.19003 19.9888 4.74601 22.1687 4.79964 22.3028C4.93638 22.6446 5.40908 22.6321 5.54231 22.2832L5.59587 22.143L5.23376 20.6972C4.84077 19.1281 4.79814 18.8616 4.87226 18.4353C4.91785 18.173 5.05397 17.873 5.21031 17.6903L5.31973 17.5624L5.34116 18.0973C5.37678 18.9858 5.47099 19.5028 5.80364 20.635C6.04364 21.4519 6.53559 23.0029 6.61426 23.1908C6.76337 23.5471 7.10862 23.6312 7.33198 23.3657C7.4711 23.2004 7.45003 23.0878 7.04206 21.814C6.83723 21.1745 6.62498 20.496 6.57037 20.3062C6.27211 19.2694 6.14879 18.4188 6.19555 17.7209C6.2231 17.3093 6.20779 17.3159 6.68405 17.5097C7.16988 17.7074 7.57781 17.8299 8.01421 17.9091C8.35242 17.9705 8.52202 17.9804 9.2218 17.9795C9.90715 17.9786 10.1003 17.9672 10.443 17.9077C11.6932 17.6907 12.642 17.3174 14.1839 16.436C15.0726 15.928 16.2432 15.4388 16.6609 15.4009C17.0502 15.3656 17.8551 15.689 18.221 16.0278C18.4548 16.2442 18.5515 16.4008 18.6536 16.7272C18.718 16.9332 18.7296 17.0377 18.7277 17.3948C18.7257 17.7688 18.6963 17.9871 18.4755 19.2673C17.8535 22.8739 17.8353 22.9891 17.8693 23.1156C17.9062 23.2533 18.0494 23.3877 18.1926 23.4191C18.3123 23.4454 18.5036 23.3593 18.5902 23.2401C18.6335 23.1805 18.7319 22.6774 18.9582 21.3598C19.615 17.5344 19.6064 17.5946 19.5611 17.119C19.4629 16.0878 19.0182 15.4294 18.1022 14.9583C17.9463 14.8781 17.4964 14.6996 17.1024 14.5615C16.4243 14.3239 16.1071 14.2281 14.6763 13.829C14.0438 13.6526 13.5691 13.4799 13.3679 13.353C13.1008 13.1846 12.9504 12.8348 12.9505 12.3822C12.9505 12.0537 13.0001 11.9107 13.1523 11.7991C13.2368 11.7371 13.2481 11.7367 13.4521 11.787C13.7358 11.857 14.0331 11.9794 14.677 12.2913C15.2894 12.5878 15.3966 12.6237 15.6718 12.6239C16.2323 12.6245 16.5567 12.3568 16.8043 11.6894C16.9523 11.2904 17.1388 11.0359 17.6705 10.5074C18.3155 9.86647 18.4071 9.63044 18.2613 8.98541C18.1269 8.39081 18.1691 7.99603 18.4659 7.07189C18.6568 6.47739 18.7058 6.28005 18.7633 5.87593C18.8249 5.44243 18.8247 4.92387 18.7627 4.56055C18.6592 3.95384 18.5341 3.69235 18.2824 3.55678C18.1734 3.4981 18.1687 3.48771 18.1498 3.26335C18.0946 2.61036 17.7403 1.97679 17.0647 1.32276C16.3129 0.594981 15.4117 0.186656 14.268 0.0556487C13.9274 0.0166365 13.2786 0.0181673 12.8888 0.0589054ZM12.7429 0.919584C12.1482 1.01207 11.4607 1.24689 10.9809 1.52141C10.2834 1.92048 9.75481 2.48916 9.38745 3.2356C9.16087 3.69603 9.08812 3.93899 8.89703 4.87379C8.83294 5.18722 8.77374 5.46568 8.76544 5.49258C8.7558 5.52384 8.80191 5.57412 8.89319 5.63185C9.38107 5.94053 9.47186 6.38302 9.08564 6.57C8.95789 6.63184 8.92331 6.63608 8.81393 6.60332C8.74499 6.58264 8.61193 6.50517 8.51824 6.43112C8.32383 6.27741 8.21865 6.26475 7.98718 6.36713C7.58159 6.54656 7.31678 7.01786 7.31678 7.56035C7.31678 8.15446 7.63571 8.61183 8.1697 8.78354C8.59923 8.92165 8.98889 8.83457 9.50263 8.48571C9.87777 8.23095 10.0979 8.1826 10.4355 8.28075C10.774 8.37916 11.1179 8.28635 11.319 8.04234C11.4127 7.92876 11.4197 7.90251 11.4176 7.67505C11.4163 7.54033 11.4041 7.31286 11.3904 7.16958C11.3235 6.47032 11.5522 5.95245 12.0462 5.68461C12.2396 5.57972 12.2674 5.57392 12.5759 5.57392C12.8677 5.57392 12.9212 5.58356 13.0901 5.66644C13.1937 5.7173 13.3873 5.85977 13.5202 5.98296C13.6531 6.10619 13.8027 6.21844 13.8527 6.23238C13.9027 6.24635 14.1122 6.2567 14.3181 6.2554C15.1114 6.25032 15.7836 5.93317 16.4081 5.26935C16.8032 4.84933 17.0422 4.44159 17.2045 3.91056C17.4267 3.18363 17.2492 2.67565 16.5255 1.96787C15.9186 1.37435 15.2531 1.0447 14.4083 0.919258C13.9875 0.856767 13.1458 0.85693 12.7429 0.919584ZM17.8085 4.71973C17.5453 5.35476 16.8128 6.16627 16.1376 6.57075C15.3038 7.07029 14.2588 7.23621 13.5119 6.98768C13.3387 6.93004 13.2558 6.87396 13.0312 6.66239C12.882 6.52181 12.7221 6.39728 12.676 6.38572C12.479 6.33626 12.2965 6.46632 12.2325 6.70179C12.2024 6.81235 12.203 6.93935 12.235 7.27353C12.3058 8.01355 12.2316 8.30123 11.8784 8.65501C11.5413 8.99273 11.1543 9.15673 10.6982 9.15517L10.4488 9.15429L10.4124 9.33427C10.3924 9.43323 10.3246 9.77799 10.2616 10.1004C10.1986 10.4228 10.1394 10.7122 10.13 10.7435C10.1154 10.7923 10.1356 10.8005 10.2698 10.8006C10.4646 10.8008 10.6086 10.8837 10.6817 11.0377C10.7516 11.1851 10.7501 11.2393 10.6716 11.4015C10.5778 11.5952 10.4686 11.6472 10.1556 11.6472H9.89467L9.82232 11.867C9.66386 12.3482 9.34714 12.971 9.10365 13.28L9.01022 13.3986L9.13374 13.4481C9.2017 13.4753 9.41051 13.5301 9.59775 13.57C9.785 13.6099 9.96596 13.6617 9.99989 13.6851C10.1092 13.7607 10.182 13.9054 10.1822 14.0477C10.1825 14.2263 10.0375 14.4028 9.86351 14.4354C9.69893 14.4663 9.23622 14.3735 8.77149 14.2165L8.38635 14.0864L8.07081 14.3892C7.7617 14.6858 7.52502 14.8634 7.20632 15.0378L7.04701 15.125L7.20221 15.2759C7.39298 15.4613 7.7842 15.6551 8.18208 15.7613C8.53504 15.8556 8.60291 15.8941 8.67188 16.0395C8.78022 16.2678 8.65374 16.5483 8.40553 16.6303C8.29462 16.6669 8.1939 16.6434 7.60986 16.4445C6.97231 16.2275 6.50989 15.8883 6.29099 15.4773C6.22704 15.3572 6.22326 15.3554 6.07933 15.3765C5.86808 15.4074 5.6344 15.5162 5.54126 15.6269C5.44061 15.7465 5.43429 15.9359 5.52469 16.1227C5.61486 16.3089 5.85987 16.5464 6.02817 16.6107C6.16517 16.663 6.17477 16.6625 6.27966 16.5986C6.43776 16.5022 6.54002 16.5149 6.88999 16.6745C7.91824 17.1434 8.9871 17.2797 10.215 17.0986C11.3089 16.9373 12.2829 16.5697 13.5577 15.8372C14.0473 15.556 15.2837 14.9362 15.3554 14.9362C15.376 14.9362 15.3928 14.9241 15.3928 14.9092C15.3928 14.8944 15.1839 14.8264 14.9287 14.7582C13.3308 14.3312 12.8685 14.1254 12.5356 13.6932C12.0861 13.1096 11.9682 12.2384 12.2555 11.6247C12.4376 11.2357 12.8034 10.9702 13.2012 10.9383C13.567 10.909 13.925 11.0251 14.9722 11.5131C15.3227 11.6764 15.6424 11.81 15.6827 11.81C15.8046 11.81 15.9275 11.6477 16.0546 11.3187C16.2156 10.9021 16.425 10.6082 16.98 10.0196C17.2351 9.74908 17.4521 9.49439 17.4624 9.45365C17.4726 9.41288 17.4507 9.22873 17.4138 9.04445C17.2848 8.4011 17.3321 7.92016 17.6077 7.07189C17.9077 6.14816 17.9823 5.72268 17.9587 5.06875C17.9401 4.55472 17.9079 4.47989 17.8085 4.71973ZM8.80702 11.7942C8.50505 11.9051 8.30485 12.1165 8.24675 12.3857C8.22304 12.4956 8.27492 12.8463 8.32181 12.8932C8.3747 12.9461 8.97756 11.9221 8.97756 11.7794C8.97756 11.7366 8.95942 11.7382 8.80702 11.7942ZM14.7186 18.9078C14.6613 18.9427 14.5933 19.0123 14.5675 19.0623C14.4652 19.2608 13.5928 23.269 13.5885 23.5601C13.5856 23.7579 13.5903 23.7704 13.7071 23.8776C13.8043 23.9668 13.8555 23.9891 13.9626 23.9891C14.1228 23.9891 14.2566 23.9166 14.3321 23.7889C14.3625 23.7375 14.5394 22.9884 14.7253 22.1244C14.9111 21.2604 15.1225 20.2825 15.1952 19.9511C15.3447 19.269 15.3528 19.1596 15.2643 19.0252C15.1418 18.8395 14.9118 18.79 14.7186 18.9078Z" fill="#6281AA"/>
</svg>
