<svg width="24" height="24" viewBox="0 0 24 24" fill="none" xmlns="http://www.w3.org/2000/svg">
<path fill-rule="evenodd" clip-rule="evenodd" d="M12.1211 0.106328C10.4845 0.255108 9.23754 1.26507 8.91343 2.70433C8.87446 2.87736 8.85353 3.18899 8.83632 3.85142C8.81472 4.68362 8.80668 4.77649 8.74161 4.94365C8.64523 5.1913 8.46993 5.42059 8.01089 5.89939C7.43444 6.50067 7.28406 6.77011 7.20358 7.34592C7.15835 7.66972 7.18459 7.95942 7.2891 8.29033C7.42668 8.72585 7.38855 8.81425 6.84829 9.31226C6.00316 10.0913 5.83421 10.3628 5.83421 10.9422C5.83421 11.582 6.10707 11.9863 6.70659 12.2348C7.06788 12.3846 7.20648 12.5117 7.20648 12.6932C7.20648 12.8073 7.18229 12.8464 6.97259 13.0706C6.77268 13.2843 6.73049 13.3499 6.68218 13.5222C6.6157 13.7591 6.63089 13.9115 6.74425 14.1457C6.88722 14.4409 7.1859 14.5931 7.56988 14.5662C8.03619 14.5337 8.36209 14.3244 8.46667 13.9903C8.49855 13.8886 8.53484 13.8168 8.54732 13.8308C8.57055 13.8569 8.89106 14.5949 9.22238 15.3853C9.60703 16.3029 9.78536 17.0008 9.74496 17.4305C9.70137 17.8941 9.69763 17.9003 8.87819 18.8856C7.85745 20.1129 7.71113 20.3217 7.46041 20.9084C7.24682 21.4084 7.01557 22.4329 7.01516 22.8812C7.01497 23.1075 7.1041 23.2228 7.27924 23.2228C7.4638 23.2228 7.52935 23.1175 7.56142 22.7694C7.64009 21.9157 7.95488 20.9402 8.3162 20.4304C8.4375 20.2592 8.64089 20.0174 9.02742 19.5847C9.4737 19.0851 9.83361 18.6451 9.97614 18.4249C10.4993 17.6166 10.3966 16.735 9.55089 14.7756C9.41597 14.463 9.27028 14.1375 9.22713 14.0523C9.18395 13.967 9.16043 13.9031 9.17486 13.9103C9.57515 14.109 9.96851 14.2335 10.3547 14.2839C10.4925 14.3019 11.0361 14.325 11.5626 14.3353C12.4235 14.352 12.5224 14.3593 12.5431 14.4082C12.5557 14.4381 12.6966 14.9796 12.856 15.6115C13.178 16.8871 13.2562 17.1535 13.4183 17.5263C13.604 17.9532 13.9438 18.5238 14.1469 18.7497C14.5821 19.2339 14.8916 19.711 15.3913 20.6684C15.5704 21.0114 15.7757 21.3875 15.8475 21.5042C16.1648 22.0201 16.5613 22.8496 16.7502 23.3931C16.8297 23.6217 16.9141 23.7015 17.076 23.7015C17.1666 23.7015 17.2833 23.5998 17.3087 23.4989C17.3273 23.4247 17.2281 23.1068 17.0402 22.6379C16.9274 22.3566 16.9185 22.2973 16.9893 22.2973C17.0816 22.2973 17.1953 22.1485 17.1953 22.0277C17.1953 21.8106 16.6962 19.7653 16.0748 17.4362C15.9164 16.8426 15.7524 16.2046 15.7103 16.0185L15.6339 15.6801L15.9439 15.3167C16.6045 14.5425 16.6698 14.4035 16.667 13.7765C16.6653 13.4003 16.6582 13.357 16.5429 13.017C16.4757 12.8187 16.3472 12.5315 16.2575 12.3788C16.0381 12.0055 15.6159 11.5797 15.2372 11.3501C15.0817 11.2557 14.9503 11.1636 14.9452 11.1451C14.9402 11.1268 14.912 10.9283 14.8826 10.704C14.7798 9.92046 14.5639 9.35927 14.2412 9.03659C13.9649 8.76032 13.7204 8.66314 13.113 8.58828C12.8931 8.56115 12.7083 8.53409 12.7023 8.52809C12.6963 8.52212 12.7451 8.37213 12.8107 8.19485C12.8932 7.97216 12.9457 7.87268 12.9804 7.87307C13.008 7.87342 13.1886 7.92438 13.3817 7.98639C13.8077 8.12317 14.1112 8.14021 14.3106 8.03847C14.4752 7.95451 14.7052 7.70626 14.9846 7.31114C15.4071 6.71372 15.5097 6.49167 15.6829 5.80027C15.8115 5.287 15.8297 5.23818 15.9935 4.96838C16.2771 4.50108 16.376 4.12013 16.3743 3.50037C16.3727 2.8938 16.254 2.49086 15.9432 2.03775C15.6805 1.65483 15.0488 1.15143 14.1955 0.645057C13.7274 0.367252 13.4771 0.255235 13.1583 0.180941C12.8976 0.120178 12.3791 0.0829037 12.1211 0.106328ZM11.7133 0.692927C10.7541 0.900682 10.0303 1.43073 9.64443 2.20788C9.42717 2.64548 9.38223 2.92383 9.36621 3.9312C9.3515 4.85621 9.32721 5.00837 9.13216 5.39742C8.98798 5.68509 8.89993 5.79644 8.43674 6.27683C8.02407 6.70482 7.88719 6.91493 7.79956 7.25478C7.72654 7.53798 7.73407 7.88436 7.81864 8.13163C7.92249 8.43532 7.91706 8.78815 7.80479 9.03091C7.71744 9.21974 7.59959 9.34746 6.8996 10.0118C6.64832 10.2503 6.55621 10.3623 6.47362 10.53C6.37664 10.7271 6.36949 10.7623 6.38344 10.9757C6.41072 11.3939 6.564 11.58 7.04554 11.7796C7.51965 11.9761 7.75998 12.276 7.76334 12.6754C7.76573 12.9584 7.68033 13.1449 7.42438 13.4153C7.25094 13.5985 7.20648 13.6658 7.20648 13.745C7.20648 13.8887 7.25441 13.9577 7.38385 14.0005C7.66737 14.094 7.87739 13.9414 8.10462 13.4768C8.23259 13.2151 8.25981 13.1287 8.26074 12.9815C8.26236 12.7222 8.34004 12.3257 8.41954 12.1712C8.51256 11.9903 8.66731 11.8342 9.00958 11.5758C9.52035 11.1903 9.53966 11.1511 9.56841 10.4415C9.59627 9.754 9.62299 9.68402 10.1253 8.98113C10.185 8.89758 10.2663 8.74679 10.306 8.64604C10.3734 8.47463 10.3771 8.42711 10.364 7.90441C10.3418 7.0228 10.3511 6.72495 10.4089 6.46831C10.4749 6.17458 10.5844 5.9815 10.8612 5.67048C11.2129 5.27526 11.2403 5.18418 11.1802 4.60779C11.1539 4.35501 11.1743 4.20042 11.2834 3.82675C11.452 3.24896 12.1532 3.06977 12.6022 3.48971C12.7783 3.65448 12.8715 3.86163 12.9027 4.15823C12.9365 4.48017 12.7639 4.68419 12.5461 4.57974C12.429 4.52361 12.3775 4.41258 12.3769 4.21517C12.3761 3.93216 12.1787 3.73359 11.9695 3.8054C11.8408 3.8496 11.7382 4.07213 11.7382 4.30708C11.7382 4.53127 11.7583 4.57301 11.9961 4.84258C12.2086 5.08356 12.2432 5.17598 12.1722 5.31333C12.1082 5.4369 11.9729 5.47108 11.8333 5.39889C11.7777 5.37014 11.7291 5.35128 11.7253 5.35696C11.7215 5.36264 11.6597 5.46783 11.588 5.59069C11.5162 5.71356 11.3576 5.92597 11.2355 6.06275C11.0996 6.21495 10.9987 6.3607 10.9754 6.43853C10.9165 6.63489 10.871 7.10313 10.8917 7.29805C10.902 7.39459 10.912 7.71771 10.9138 8.0161C10.9168 8.48628 10.9083 8.5863 10.8501 8.76607C10.7708 9.01161 10.6285 9.25619 10.4028 9.53511C10.3124 9.64681 10.2177 9.80312 10.1923 9.88242C10.1669 9.96192 10.1378 10.2247 10.1275 10.4678C10.1173 10.7105 10.0931 10.9834 10.0739 11.0742C9.99608 11.4408 9.78702 11.7051 9.2458 12.1211C8.94307 12.3539 8.84606 12.5009 8.81338 12.7767L8.79487 12.9331L8.99043 13.1142C9.31426 13.4139 9.72329 13.6209 10.2063 13.7292C10.3907 13.7705 10.6712 13.7867 11.427 13.7993C11.9668 13.8083 12.4083 13.8047 12.4083 13.7912C12.4083 13.7777 12.3294 13.4042 12.2328 12.9613C12.1363 12.5182 12.0573 12.1065 12.0573 12.0462C12.0573 11.9738 12.0817 11.9138 12.1291 11.8693C12.1931 11.8093 12.2172 11.8055 12.3504 11.834C12.4325 11.8515 12.5157 11.885 12.5351 11.9085C12.5545 11.9319 12.585 12.0422 12.6028 12.1537C12.663 12.5311 13.0474 14.2018 13.3211 15.2764C13.7079 16.7945 13.9575 17.5045 14.3126 18.096C14.5527 18.4959 15.047 19.2676 15.4498 19.8714C15.8943 20.5376 16.2572 21.1129 16.4468 21.4521C16.5115 21.5677 16.569 21.6577 16.5747 21.652C16.6003 21.6264 16.1059 19.6406 15.5197 17.4146C15.2047 16.2182 15.0563 15.6093 14.9787 15.1939C14.9044 14.7961 14.3946 11.1714 14.3741 10.8953C14.3336 10.3492 14.1244 9.75688 13.8773 9.48877C13.6217 9.21154 13.3443 9.13166 12.4768 9.08552C11.6736 9.04275 11.459 8.99575 11.2674 8.82061C11.1682 8.72984 11.1712 8.56421 11.274 8.46145C11.3596 8.3758 11.4312 8.36504 11.5685 8.41722C11.6178 8.43599 11.7412 8.47071 11.8426 8.49439L12.027 8.53737L12.1016 8.38843C12.1427 8.30651 12.2371 8.08532 12.3115 7.89687C12.4601 7.52055 12.5658 7.39376 12.786 7.3278C12.9231 7.28669 13.009 7.30045 13.473 7.43777C13.8583 7.55176 14.0339 7.54931 14.1721 7.42797C14.3492 7.27249 14.8258 6.62242 14.928 6.39685C14.9808 6.28047 15.0817 5.95836 15.1523 5.68107C15.2745 5.20033 15.3423 5.03001 15.6142 4.51939C15.7288 4.30414 15.8231 3.94406 15.8231 3.72169C15.8231 3.65263 15.8195 3.59611 15.8151 3.59614C15.8107 3.59614 15.7281 3.62771 15.6316 3.66626C15.4737 3.72935 15.3969 3.73656 14.8657 3.73806L14.2753 3.73972L13.9185 3.93918C13.475 4.18715 13.3192 4.19787 13.2451 3.98548C13.1861 3.81625 13.2597 3.72367 13.6251 3.50749C14.1361 3.20511 14.1549 3.20019 14.8018 3.19857L15.3603 3.1972L15.5463 3.08974C15.6485 3.03064 15.74 2.9619 15.7496 2.93694C15.7717 2.87947 15.6786 2.63246 15.567 2.45227C15.2354 1.91687 13.8882 0.974785 13.0945 0.723212C12.7667 0.619302 12.1188 0.605101 11.7133 0.692927ZM15.1267 12.5478L15.2969 13.7395C15.3905 14.3949 15.4733 14.9373 15.4809 14.9448C15.4993 14.9632 15.8419 14.5507 15.9877 14.3346C16.1001 14.1681 16.1741 13.9352 16.1741 13.7481C16.1741 13.6057 16.0599 13.1983 15.9553 12.9675C15.8435 12.721 15.6064 12.3574 15.476 12.2325L15.3857 12.1459L15.1267 12.5478ZM11.2863 15.4969C11.1913 15.5716 10.8014 16.1448 10.7311 16.313C10.6448 16.5195 10.6862 16.6171 11.0142 16.9802C11.1754 17.1587 11.3348 17.3367 11.3684 17.3758L11.4294 17.447L11.2004 17.6831C10.8845 18.0089 10.8213 18.178 10.9238 18.4235C10.9936 18.5904 11.328 19.006 11.4111 19.0291C11.5689 19.073 11.7701 18.9451 11.7701 18.8009C11.7701 18.7626 11.6983 18.6212 11.6105 18.4868C11.5228 18.3523 11.4509 18.2343 11.4509 18.2246C11.4509 18.2148 11.5663 18.0824 11.7073 17.9304C11.9985 17.6163 12.0608 17.4813 11.9915 17.3141C11.9679 17.257 11.8007 17.0453 11.62 16.8435C11.4392 16.6419 11.2914 16.4603 11.2914 16.4401C11.2914 16.4199 11.361 16.3042 11.4461 16.1829C11.7375 15.7676 11.7607 15.677 11.613 15.5292C11.5048 15.421 11.3964 15.4103 11.2863 15.4969ZM10.5427 19.6246C10.3554 19.8123 10.2808 19.9191 10.1471 20.191C9.97844 20.5341 9.79206 21.1545 9.79165 21.3742C9.79139 21.5251 9.90915 21.6399 10.0643 21.6399C10.2333 21.6399 10.2913 21.5561 10.3979 21.1584C10.5777 20.4875 10.7853 20.0927 11.0703 19.88C11.1568 19.8154 11.2276 19.7537 11.2276 19.743C11.2276 19.7028 10.8685 19.3932 10.8219 19.3932C10.7953 19.3932 10.6697 19.4973 10.5427 19.6246Z" fill="#6281AA"/>
<path d="M5.73584 10.942C5.73586 10.6398 5.7802 10.4076 5.94029 10.1502C6.09614 9.89969 6.35944 9.62863 6.78124 9.2398C6.91633 9.11528 7.01762 9.01853 7.09178 8.93698C7.16582 8.8555 7.20893 8.79314 7.23258 8.73831C7.27631 8.63651 7.26382 8.5377 7.19497 8.31976C7.08638 7.97583 7.05888 7.67137 7.10625 7.33222C7.14748 7.03728 7.20711 6.81267 7.33481 6.58385C7.46102 6.35773 7.65034 6.13226 7.93948 5.83066C8.399 5.35136 8.56087 5.1349 8.64928 4.90773C8.70654 4.76064 8.71618 4.68939 8.738 3.84882C8.75511 3.18991 8.77557 2.86742 8.81708 2.68287C9.15198 1.19574 10.4397 0.159702 12.1124 0.00763642C12.3813 -0.0167247 12.9104 0.0217311 13.181 0.0847881C13.5138 0.16239 13.774 0.280327 14.2457 0.560235C15.1004 1.06745 15.7492 1.57974 16.025 1.98175C16.3481 2.45279 16.4717 2.87569 16.4734 3.49971C16.4751 4.13511 16.3723 4.53481 16.078 5.0196C15.9966 5.15375 15.9555 5.22675 15.9179 5.32724C15.8792 5.431 15.8437 5.56584 15.7791 5.82391C15.6922 6.17091 15.6208 6.40681 15.5167 6.63207C15.4127 6.85718 15.2772 7.06833 15.0654 7.3679C14.9242 7.5676 14.7937 7.73259 14.6768 7.85878C14.5613 7.98337 14.4534 8.07698 14.3556 8.12688C14.1186 8.24778 13.7809 8.21837 13.3517 8.08059C13.2561 8.04989 13.1637 8.02168 13.0923 8.00151C13.0596 7.99228 13.0318 7.98467 13.0103 7.97933C13.0075 7.98415 13.0041 7.99011 13.0006 7.99669C12.976 8.0434 12.9441 8.1188 12.9032 8.22911C12.8718 8.31385 12.8442 8.39173 12.8251 8.44996C12.8304 8.45075 12.8358 8.45202 12.8415 8.45285C12.915 8.46362 13.0156 8.47696 13.125 8.49046C13.4308 8.52814 13.6541 8.57182 13.8377 8.64476C14.0244 8.71894 14.1658 8.8214 14.3112 8.96687C14.657 9.31267 14.8768 9.90036 14.9805 10.6912C14.9952 10.803 15.0097 10.9087 15.021 10.9882C15.0267 11.0278 15.0318 11.0606 15.0355 11.0847C15.0362 11.0893 15.0359 11.0936 15.0365 11.0972C15.0492 11.1075 15.0675 11.1219 15.0914 11.1387C15.1422 11.1743 15.2119 11.2197 15.2882 11.266C15.6805 11.5039 16.1144 11.941 16.3423 12.3288C16.436 12.4882 16.5674 12.7819 16.6364 12.9855C16.6936 13.1543 16.7275 13.2578 16.7454 13.3674C16.7632 13.4767 16.7648 13.5898 16.7656 13.7763C16.767 14.0922 16.7515 14.3025 16.6432 14.5334C16.5379 14.7575 16.3473 14.9965 16.0192 15.3811L15.7405 15.7061L15.807 15.9964C15.8486 16.1803 16.0121 16.8171 16.1706 17.4111C16.4813 18.5758 16.7617 19.6698 16.9643 20.5001C17.0656 20.9152 17.1477 21.2654 17.2044 21.5252C17.2327 21.6548 17.2549 21.7627 17.27 21.8454C17.2845 21.9248 17.2941 21.99 17.2941 22.0277C17.2941 22.1158 17.2543 22.2038 17.2054 22.2678C17.1802 22.3007 17.15 22.3316 17.1157 22.3546C17.0979 22.3665 17.0767 22.3758 17.054 22.3835C17.0662 22.4263 17.0894 22.4949 17.1321 22.6015C17.2265 22.8369 17.2992 23.0361 17.3462 23.1869C17.3697 23.2621 17.3877 23.3275 17.3983 23.3798C17.4035 23.4057 17.4072 23.4301 17.4089 23.4521C17.4105 23.4724 17.4102 23.4979 17.4041 23.5225C17.3851 23.5974 17.3358 23.6653 17.2816 23.7125C17.2286 23.7586 17.1546 23.8002 17.0762 23.8002C16.9768 23.8002 16.8879 23.7748 16.8139 23.7048C16.745 23.6395 16.6977 23.5432 16.6567 23.4251C16.4701 22.8888 16.0773 22.0661 15.7636 21.5561C15.6897 21.436 15.4825 21.0568 15.3036 20.7142C14.8055 19.76 14.5003 19.2906 14.073 18.8153C13.8601 18.5781 13.5153 17.9972 13.3276 17.5654C13.1617 17.184 13.0819 16.9092 12.7605 15.6357C12.6808 15.32 12.6059 15.027 12.5493 14.8092C12.521 14.7004 12.4972 14.6103 12.4799 14.5459C12.4713 14.5142 12.4638 14.4889 12.4586 14.4707C12.4406 14.4671 12.4103 14.4619 12.3603 14.4581C12.2287 14.4484 11.9921 14.4424 11.5608 14.434C11.0361 14.4238 10.4862 14.4008 10.3418 14.382C10.0168 14.3395 9.689 14.2443 9.35715 14.1013C9.42295 14.2434 9.53718 14.4949 9.64164 14.7369C10.065 15.7177 10.3068 16.439 10.3746 17.0205C10.4431 17.6084 10.334 18.0542 10.0592 18.4787C9.91202 18.7061 9.54663 19.1511 9.10062 19.6504C8.71381 20.0835 8.51421 20.3216 8.39661 20.4875C8.04842 20.9789 7.73744 21.9365 7.65981 22.7789C7.64383 22.9522 7.61853 23.0875 7.56144 23.1792C7.53083 23.2283 7.4904 23.2658 7.43896 23.2901C7.38887 23.3136 7.33378 23.3219 7.27887 23.3219C7.16797 23.3218 7.06977 23.2838 7.00306 23.1975C6.93988 23.1158 6.91617 23.0047 6.91626 22.8812C6.91648 22.6456 6.97702 22.2687 7.06188 21.8927C7.14701 21.5155 7.25934 21.1274 7.36953 20.8694C7.62653 20.268 7.78229 20.0489 8.80262 18.822C9.21517 18.326 9.41351 18.0858 9.51724 17.9116C9.61384 17.7495 9.62484 17.6516 9.64646 17.4217C9.66513 17.2232 9.6335 16.9536 9.54713 16.6155C9.46108 16.2787 9.32258 15.8794 9.13148 15.4235C8.96597 15.0287 8.80342 14.6468 8.67918 14.3607C8.62679 14.2401 8.58002 14.1371 8.54416 14.057C8.41098 14.4199 8.05055 14.6314 7.57687 14.6645C7.16155 14.6936 6.81907 14.528 6.65491 14.1891C6.59544 14.0662 6.5591 13.9575 6.54786 13.8448C6.53659 13.7316 6.55213 13.6214 6.5874 13.4957C6.61294 13.4046 6.63874 13.3346 6.6877 13.2584C6.73467 13.1854 6.80119 13.1094 6.90083 13.0029C7.00739 12.8889 7.05801 12.8307 7.08407 12.7888C7.10376 12.757 7.10817 12.7382 7.10817 12.6933C7.10817 12.6335 7.08724 12.5814 7.02524 12.5245C6.95854 12.4635 6.84625 12.3996 6.66841 12.3259C6.35623 12.1964 6.12017 12.0229 5.96344 11.7906C5.80658 11.5582 5.73584 11.2761 5.73584 10.942ZM10.8741 19.3062C10.8844 19.3107 10.8942 19.3163 10.9031 19.3216C10.9212 19.3325 10.9426 19.3474 10.9638 19.3631C11.0065 19.3946 11.0578 19.4358 11.1066 19.4778C11.1555 19.5201 11.2038 19.5651 11.2406 19.6022C11.2587 19.6205 11.2758 19.6382 11.2888 19.6543C11.2952 19.6622 11.3021 19.6721 11.3081 19.6823C11.3114 19.6878 11.3264 19.7116 11.3264 19.743C11.3264 19.767 11.3177 19.7847 11.3149 19.7903C11.3109 19.798 11.3061 19.8038 11.3033 19.8076C11.2976 19.8154 11.2912 19.8225 11.2859 19.8279C11.2751 19.8392 11.2615 19.8524 11.2464 19.8655C11.2157 19.8923 11.1743 19.9257 11.1297 19.9591C10.873 20.1507 10.6719 20.517 10.4932 21.1838C10.4408 21.3795 10.3963 21.5172 10.336 21.6043C10.3035 21.6513 10.2636 21.6876 10.2135 21.7104C10.1649 21.7325 10.1137 21.7384 10.064 21.7384C9.857 21.7382 9.6924 21.5818 9.69276 21.3738C9.69306 21.2477 9.7439 21.0246 9.81138 20.8C9.88001 20.5716 9.97075 20.3251 10.0583 20.1471C10.196 19.867 10.277 19.7513 10.473 19.555C10.5382 19.4896 10.6037 19.4295 10.6572 19.3852C10.6836 19.3634 10.7081 19.3436 10.7295 19.3293C10.74 19.3222 10.7517 19.3148 10.7632 19.3091C10.7706 19.3054 10.7939 19.2946 10.8221 19.2946L10.8741 19.3062ZM10.7825 19.5376C10.7349 19.5771 10.6742 19.6323 10.6128 19.6938C10.4341 19.873 10.3653 19.9712 10.2357 20.2349C10.1547 20.3998 10.0672 20.6347 10.0004 20.8569C9.93246 21.0831 9.89063 21.2811 9.89046 21.3748C9.89049 21.4682 9.96118 21.5405 10.064 21.5407C10.0985 21.5407 10.1185 21.5369 10.1316 21.531C10.1432 21.5257 10.1568 21.5158 10.173 21.4924C10.2106 21.4383 10.2481 21.3346 10.3023 21.1327C10.4831 20.4579 10.698 20.0347 11.0111 19.8009C11.0421 19.7777 11.0697 19.7538 11.0931 19.7344C11.0618 19.7033 11.0206 19.6656 10.9773 19.6283C10.9307 19.5881 10.8837 19.5489 10.8462 19.5212C10.8378 19.5151 10.8298 19.5104 10.823 19.5058C10.8118 19.5141 10.7978 19.5249 10.7825 19.5376ZM11.6659 18.7902C11.6594 18.7735 11.6486 18.7514 11.635 18.7246C11.6079 18.6712 11.5702 18.605 11.528 18.5404C11.4837 18.4726 11.4428 18.4087 11.4132 18.3601C11.3986 18.336 11.3865 18.3145 11.3776 18.2984C11.3732 18.2905 11.3684 18.2831 11.365 18.2762C11.3634 18.2728 11.3612 18.2678 11.3592 18.2627L11.3525 18.2241L11.3602 18.1855C11.3626 18.1797 11.3654 18.1747 11.3669 18.172C11.37 18.1667 11.3732 18.1619 11.3756 18.1585C11.3808 18.1512 11.387 18.1421 11.3939 18.1335C11.4081 18.1158 11.4283 18.0929 11.4518 18.0659C11.4991 18.0117 11.5641 17.94 11.635 17.8634C11.7806 17.7064 11.8584 17.604 11.8945 17.5259C11.9116 17.4888 11.9182 17.4599 11.9186 17.4352C11.919 17.4106 11.9136 17.3845 11.9003 17.3523C11.9002 17.3523 11.8986 17.3476 11.8925 17.3378C11.8868 17.3285 11.8785 17.3165 11.8684 17.3021C11.848 17.2731 11.8204 17.2359 11.7874 17.1941C11.7215 17.1106 11.6354 17.0091 11.5463 16.9096C11.4552 16.8079 11.3718 16.7104 11.311 16.6357C11.281 16.5988 11.2559 16.5663 11.2377 16.5412C11.2287 16.5288 11.2201 16.5163 11.2136 16.5056C11.2105 16.5003 11.2063 16.4936 11.203 16.4863C11.2012 16.4824 11.1924 16.4637 11.1924 16.44C11.1924 16.4177 11.1998 16.3985 11.202 16.3927C11.2057 16.3832 11.2109 16.373 11.2155 16.3638C11.2249 16.3451 11.2376 16.3224 11.2522 16.2982C11.2816 16.2494 11.3216 16.1885 11.365 16.1265C11.4376 16.0231 11.4921 15.9415 11.5309 15.8758C11.57 15.8095 11.59 15.7641 11.5984 15.7311C11.606 15.7013 11.6036 15.6847 11.5984 15.6714C11.5918 15.6546 11.577 15.6326 11.5434 15.599C11.499 15.5546 11.4643 15.5406 11.4402 15.5383C11.4179 15.5362 11.3884 15.5429 11.3477 15.5749C11.3439 15.5779 11.3323 15.588 11.3129 15.6106C11.2947 15.6318 11.2732 15.66 11.2483 15.6926C11.1988 15.7575 11.1398 15.8394 11.0815 15.925C10.9623 16.1002 10.8527 16.2779 10.8221 16.3513C10.8024 16.3983 10.7932 16.4318 10.7912 16.4602C10.7893 16.4868 10.7938 16.514 10.8086 16.549C10.8415 16.6265 10.9209 16.7303 11.0873 16.9145C11.248 17.0924 11.4085 17.2715 11.4431 17.3118L11.5039 17.3832L11.5627 17.4507L11.5 17.5153L11.2715 17.7516C11.1146 17.9134 11.0324 18.0249 10.9976 18.118C10.9661 18.2025 10.9708 18.2795 11.0149 18.3852C11.0439 18.4544 11.137 18.5903 11.2396 18.7179C11.2897 18.7801 11.3393 18.8372 11.3804 18.8789C11.401 18.8998 11.4184 18.9156 11.4316 18.9262C11.4364 18.9301 11.44 18.9324 11.4422 18.9339C11.4874 18.9448 11.5458 18.9342 11.5965 18.9021C11.6505 18.8677 11.6717 18.8266 11.6717 18.8008C11.6717 18.812 11.6743 18.8118 11.6659 18.7902ZM16.0751 13.7483C16.0751 13.6924 16.0504 13.5668 16.0086 13.4176C15.9678 13.2721 15.9144 13.1179 15.8649 13.0087C15.8117 12.8914 15.728 12.7431 15.6402 12.6084C15.5513 12.4721 15.4643 12.3578 15.4078 12.3037L15.4029 12.2998L15.3393 12.4001L15.2294 12.5708L15.3943 13.7252C15.441 14.0526 15.4854 14.352 15.5187 14.57C15.5284 14.6336 15.5371 14.6904 15.5447 14.7388C15.5647 14.7156 15.5879 14.6915 15.6103 14.6645C15.7156 14.5378 15.8361 14.3839 15.9064 14.2797C16.0085 14.1283 16.0751 13.9143 16.0751 13.7483ZM12.2783 4.21529C12.2779 4.09578 12.2355 4.00207 12.1809 3.94719C12.1281 3.89406 12.0653 3.87707 12.0015 3.89897C11.9748 3.90821 11.9327 3.94549 11.8954 4.02627C11.8601 4.10304 11.8366 4.20299 11.8366 4.30691C11.8366 4.41761 11.8422 4.46477 11.8665 4.51522C11.8942 4.57263 11.9486 4.63988 12.07 4.77754C12.1754 4.89707 12.2496 4.9927 12.2831 5.08229C12.3009 5.12992 12.3076 5.17724 12.3024 5.22598C12.2972 5.27382 12.2812 5.31809 12.26 5.35907C12.216 5.44396 12.1439 5.50254 12.0555 5.52494C11.9685 5.54693 11.875 5.5311 11.7884 5.48637C11.7819 5.483 11.7742 5.48065 11.7681 5.47769L11.7672 5.47962C11.7423 5.52188 11.7094 5.5793 11.6736 5.64067C11.5978 5.7706 11.4344 5.98829 11.3091 6.12866C11.2433 6.2023 11.1865 6.27384 11.1442 6.33504C11.1002 6.39861 11.0768 6.44401 11.0699 6.46716C11.0434 6.55583 11.0184 6.71388 11.0024 6.87799C10.9864 7.04271 10.9806 7.20087 10.9899 7.28786C11.0007 7.39037 11.0112 7.7179 11.013 8.01501C11.016 8.48433 11.008 8.59978 10.9445 8.79617C10.8603 9.05682 10.7102 9.31266 10.4797 9.59759C10.4377 9.64948 10.3934 9.71252 10.3572 9.77214C10.3202 9.83323 10.295 9.88375 10.2859 9.91198L10.2868 9.91294C10.2776 9.94197 10.2639 10.0173 10.2521 10.1241C10.2406 10.2279 10.2311 10.3529 10.2261 10.4723C10.2158 10.7141 10.1913 10.9942 10.1701 11.0943C10.0848 11.4964 9.85228 11.7796 9.30603 12.1995C9.15753 12.3137 9.06799 12.4005 9.01093 12.4869C8.95556 12.5709 8.9267 12.6613 8.91159 12.7888L8.89906 12.8939L9.05722 13.0414C9.36676 13.328 9.75985 13.5276 10.228 13.6326C10.4002 13.6713 10.6691 13.6875 11.4287 13.7001C11.6979 13.7046 11.9424 13.7064 12.1192 13.7049C12.1873 13.7044 12.245 13.7024 12.2899 13.7011C12.2818 13.6621 12.2718 13.6133 12.26 13.5574C12.2282 13.4073 12.1847 13.2037 12.1365 12.9826C12.0881 12.7605 12.0441 12.5457 12.0121 12.3789C11.9962 12.2957 11.9827 12.2238 11.9736 12.1687C11.9651 12.1176 11.9581 12.0712 11.9581 12.0462C11.9581 11.95 11.9917 11.8627 12.0613 11.7974C12.0955 11.7653 12.1364 11.7311 12.1983 11.7212C12.2504 11.7129 12.3083 11.7242 12.3709 11.7376C12.4172 11.7475 12.4641 11.7615 12.503 11.7771C12.5223 11.7849 12.5414 11.7938 12.558 11.8032C12.5723 11.8113 12.5944 11.8255 12.611 11.8456C12.6272 11.8651 12.6379 11.8898 12.6438 11.9054C12.6512 11.9247 12.6584 11.9479 12.665 11.9719C12.6783 12.0201 12.6913 12.079 12.7007 12.1378C12.7601 12.5101 13.1433 14.1766 13.4173 15.2518C13.8038 16.7691 14.0502 17.4668 14.3971 18.0447C14.6361 18.4428 15.1298 19.2132 15.5322 19.8163C15.8633 20.3127 16.1498 20.7604 16.3538 21.098C16.3068 20.9011 16.2501 20.659 16.1812 20.3824C15.9877 19.6051 15.7172 18.5526 15.4242 17.4401C15.1093 16.2444 14.9596 15.6318 14.8812 15.2123C14.8435 15.0106 14.6972 14.0014 14.5581 13.0125C14.4192 12.025 14.2861 11.0447 14.2756 10.9024C14.256 10.6387 14.1952 10.3623 14.1097 10.1203C14.0237 9.87693 13.9155 9.67621 13.8049 9.55612C13.689 9.43035 13.571 9.35091 13.3796 9.29573C13.1819 9.23878 12.9049 9.20693 12.4712 9.18386C11.6772 9.14158 11.4233 9.09665 11.2011 8.89358C11.0548 8.75984 11.0673 8.52912 11.204 8.39209C11.255 8.34103 11.3128 8.30104 11.3872 8.28987C11.4581 8.27922 11.5295 8.2966 11.6032 8.32458C11.6462 8.34092 11.7651 8.37444 11.8655 8.39788L11.9736 8.42295L12.0131 8.34387C12.0521 8.26602 12.1453 8.0487 12.2195 7.86071C12.2944 7.6709 12.3629 7.53231 12.4461 7.43252C12.533 7.3283 12.6323 7.27043 12.7576 7.23289C12.8402 7.20814 12.9113 7.20058 13.0228 7.21842C13.127 7.23512 13.271 7.27471 13.5012 7.34283C13.692 7.39929 13.8203 7.42322 13.9139 7.42191C14.0015 7.42067 14.0567 7.39741 14.1068 7.35344C14.186 7.28382 14.3435 7.09107 14.4983 6.87992C14.6528 6.66929 14.7914 6.45848 14.8378 6.35625C14.8867 6.2485 14.9863 5.93383 15.0567 5.65707C15.1813 5.16751 15.2523 4.98926 15.5273 4.47279C15.5799 4.37405 15.6296 4.2382 15.6662 4.0986C15.7012 3.96496 15.7202 3.83417 15.7222 3.73599C15.705 3.74275 15.6869 3.75068 15.6682 3.75817C15.4897 3.82945 15.3929 3.83576 14.8658 3.83725H14.3006L13.967 4.02531C13.8547 4.08804 13.7579 4.13725 13.6747 4.1719C13.5925 4.20617 13.5175 4.22898 13.45 4.23362C13.38 4.23844 13.3136 4.22397 13.2581 4.18058C13.2053 4.13918 13.1736 4.07953 13.152 4.01759C13.1346 3.96737 13.1233 3.91426 13.1299 3.85847C13.1368 3.80103 13.161 3.74924 13.1983 3.70224C13.2681 3.61456 13.3941 3.52927 13.5744 3.42256C13.8263 3.27357 13.9721 3.18828 14.1377 3.14482C14.3019 3.10173 14.4828 3.10029 14.8012 3.09949L15.3335 3.09852L15.4965 3.00401C15.5447 2.97617 15.5905 2.94704 15.6238 2.92204C15.6356 2.91316 15.6444 2.90433 15.6518 2.89793C15.6511 2.89382 15.651 2.88892 15.6498 2.88346C15.6438 2.85578 15.6323 2.81851 15.6161 2.77545C15.5837 2.68952 15.5351 2.58865 15.483 2.50446C15.4074 2.38244 15.2695 2.23007 15.0866 2.06469C14.9049 1.90044 14.6833 1.72734 14.4472 1.56224C13.9732 1.23077 13.4473 0.939109 13.0643 0.817729C12.9134 0.769932 12.6802 0.740262 12.4307 0.734791C12.1821 0.729353 11.9272 0.748014 11.7344 0.789761C10.8002 0.992091 10.1039 1.50536 9.73326 2.25179C9.62803 2.46373 9.56537 2.63349 9.52688 2.87189C9.4878 3.11415 9.47317 3.42898 9.46516 3.93273C9.45783 4.39351 9.44765 4.67018 9.41405 4.88073C9.37954 5.09688 9.32008 5.24279 9.2202 5.44201C9.06903 5.74355 8.97167 5.86425 8.50751 6.34564C8.09978 6.76854 7.97648 6.96381 7.89512 7.27918C7.82633 7.546 7.83488 7.873 7.91248 8.09988C8.02267 8.42235 8.01903 8.80178 7.89416 9.07199C7.79689 9.28228 7.66067 9.42566 6.96737 10.0836C6.71885 10.3195 6.63704 10.4219 6.56233 10.5736C6.51319 10.6734 6.4925 10.7207 6.48325 10.7664C6.4741 10.8118 6.47526 10.8614 6.48228 10.969C6.49521 11.167 6.53647 11.2955 6.62019 11.3971C6.70635 11.5017 6.84673 11.5904 7.0831 11.6884C7.33046 11.7909 7.5248 11.9236 7.65788 12.0896C7.79211 12.2571 7.86048 12.4541 7.86233 12.675C7.86358 12.8275 7.84061 12.9601 7.78036 13.0916C7.72088 13.2213 7.62714 13.3444 7.49586 13.4831C7.40923 13.5747 7.36039 13.6316 7.33288 13.6731C7.30799 13.7108 7.30491 13.7297 7.30491 13.7455C7.30497 13.8075 7.31627 13.8374 7.32806 13.8544C7.33936 13.8706 7.36125 13.8888 7.41485 13.9065C7.52961 13.9444 7.61907 13.9318 7.70706 13.8679C7.80326 13.798 7.90389 13.6616 8.01567 13.433C8.14218 13.1743 8.16148 13.1046 8.16226 12.9807C8.16314 12.8431 8.18401 12.6726 8.21434 12.5178C8.24421 12.3654 8.28559 12.2165 8.33199 12.1262C8.43592 11.9242 8.60646 11.7569 8.95017 11.4974C9.21109 11.3005 9.32144 11.208 9.38126 11.0866C9.44224 10.9628 9.4553 10.7999 9.46998 10.4376C9.48382 10.096 9.49744 9.89017 9.57703 9.68149C9.65548 9.47602 9.79601 9.27153 10.0448 8.92347C10.0995 8.84685 10.1777 8.70365 10.2145 8.61005C10.2462 8.52938 10.2599 8.48415 10.2666 8.39884C10.2738 8.30651 10.2722 8.17002 10.2656 7.907C10.2435 7.02872 10.252 6.71774 10.3129 6.44691C10.3838 6.13182 10.5036 5.9239 10.7873 5.60499C10.9646 5.40577 11.0444 5.29914 11.0805 5.17873C11.1172 5.05658 11.1128 4.90959 11.0824 4.61841C11.0543 4.34797 11.0776 4.17878 11.1885 3.79868C11.3792 3.1464 12.1704 2.95056 12.6698 3.41774C12.867 3.60226 12.9676 3.83351 13.0006 4.14779C13.0193 4.32509 12.9835 4.48689 12.8945 4.59237C12.8491 4.64615 12.7888 4.68592 12.7181 4.70039C12.6475 4.71476 12.5736 4.70241 12.503 4.66856C12.4246 4.63087 12.3659 4.57265 12.3284 4.49208C12.2925 4.41449 12.2786 4.32113 12.2783 4.21529ZM11.8684 18.8008C11.8684 18.9193 11.7885 19.0143 11.7026 19.0689C11.6149 19.1246 11.4963 19.155 11.3843 19.1239C11.3529 19.1151 11.3249 19.0948 11.3072 19.0805C11.286 19.0634 11.263 19.0415 11.2396 19.0178C11.1925 18.9699 11.138 18.9077 11.0853 18.8423C10.9826 18.7146 10.8735 18.559 10.8327 18.4613C10.7744 18.3218 10.7591 18.1914 10.8124 18.0486C10.8626 17.9144 10.9707 17.7786 11.1297 17.6146L11.2956 17.442L11.2937 17.4401C11.2611 17.4021 11.1023 17.2255 10.9407 17.0466C10.779 16.8676 10.6745 16.7397 10.6263 16.6261C10.6007 16.5658 10.5902 16.5075 10.5945 16.4467C10.5987 16.3876 10.6164 16.331 10.6398 16.2751C10.6794 16.1801 10.8004 15.9862 10.9175 15.8141C10.9773 15.7263 11.0387 15.6407 11.0911 15.572C11.1172 15.5379 11.1419 15.5074 11.1635 15.4823C11.1836 15.4588 11.2052 15.4354 11.2252 15.4196C11.2943 15.3652 11.3741 15.333 11.4605 15.3415C11.5451 15.35 11.6195 15.3954 11.6833 15.4592C11.7234 15.4993 11.7611 15.5444 11.7826 15.599C11.8054 15.6572 11.8064 15.7172 11.7903 15.7803C11.775 15.8403 11.743 15.9042 11.7006 15.9761C11.6577 16.0488 11.6001 16.1353 11.527 16.2394C11.4856 16.2984 11.4485 16.3562 11.4219 16.4004C11.4145 16.4128 11.4079 16.4238 11.4026 16.4332C11.4175 16.4533 11.4385 16.4796 11.4644 16.5113C11.5227 16.583 11.6043 16.6775 11.6939 16.7775C11.7853 16.8796 11.873 16.9847 11.9417 17.0717C11.9761 17.1151 12.0062 17.1553 12.0295 17.1883C12.0507 17.2185 12.0719 17.2505 12.0825 17.2761C12.1037 17.3273 12.1172 17.3807 12.1163 17.4381C12.1154 17.4956 12.1001 17.552 12.0738 17.6088C12.0232 17.7184 11.925 17.8408 11.7797 17.9975C11.7097 18.073 11.646 18.1438 11.6003 18.1961C11.588 18.2103 11.5768 18.2228 11.5675 18.2338C11.5719 18.2411 11.5767 18.2492 11.582 18.2579C11.6102 18.3042 11.6496 18.3661 11.6929 18.4324C11.7385 18.5023 11.7808 18.5745 11.8115 18.6349C11.8268 18.6651 11.8395 18.6941 11.8491 18.7188C11.8569 18.7387 11.8684 18.7705 11.8684 18.8008ZM16.2728 13.7483C16.2728 13.9566 16.1918 14.2081 16.0693 14.3897C15.9938 14.5016 15.8698 14.6619 15.7627 14.7909C15.709 14.8555 15.6579 14.9133 15.619 14.9548C15.6 14.9751 15.5821 14.9936 15.5669 15.0069C15.56 15.0129 15.5498 15.0222 15.538 15.0291C15.5327 15.0321 15.5197 15.0382 15.5032 15.0416C15.4875 15.0448 15.4453 15.0492 15.4107 15.0146C15.4014 15.0053 15.3963 14.9961 15.3943 14.9924C15.392 14.9882 15.3904 14.9841 15.3894 14.9818C15.3877 14.9775 15.3862 14.9733 15.3856 14.9712C15.3843 14.967 15.3834 14.9626 15.3827 14.9596C15.3812 14.9532 15.3795 14.9443 15.3779 14.9355C15.3745 14.9176 15.3695 14.8923 15.3644 14.8613C15.354 14.7985 15.3405 14.7091 15.3239 14.5999C15.2905 14.3811 15.2463 14.0811 15.1995 13.7532L15.0288 12.5621L15.0239 12.5255L15.0432 12.4946L15.1734 12.2931L15.3673 11.9922L15.4541 12.0751L15.5447 12.161C15.6185 12.2317 15.715 12.3622 15.8051 12.5004C15.8963 12.6404 15.9866 12.7975 16.0452 12.9267C16.1003 13.0482 16.1561 13.2131 16.1986 13.3645C16.24 13.5122 16.2728 13.6619 16.2728 13.7483ZM5.93258 10.942C5.93258 11.2476 5.99806 11.488 6.12738 11.6797C6.2569 11.8716 6.45745 12.0246 6.7446 12.1436C6.9275 12.2194 7.06541 12.2939 7.15832 12.3789C7.25594 12.4684 7.30491 12.5715 7.30491 12.6933C7.3049 12.7624 7.29665 12.8207 7.25187 12.8929C7.21335 12.955 7.1471 13.0282 7.04452 13.1379C6.94435 13.245 6.88974 13.3092 6.85357 13.3655C6.81944 13.4186 6.80014 13.4676 6.77739 13.5487C6.74621 13.6599 6.73559 13.7447 6.74363 13.8255C6.75175 13.9066 6.77958 13.9912 6.83332 14.1023C6.95512 14.3538 7.21077 14.4924 7.56337 14.4678C8.00555 14.4368 8.2844 14.2419 8.3725 13.9605C8.38936 13.9067 8.40863 13.858 8.4265 13.8226C8.43472 13.8064 8.44582 13.7858 8.46026 13.7696C8.46636 13.7627 8.48222 13.7461 8.50751 13.7368C8.52212 13.7314 8.54289 13.7276 8.56634 13.7329C8.57824 13.7356 8.58918 13.7399 8.59817 13.7455L8.62131 13.7647L8.63481 13.785C8.63727 13.7891 8.64032 13.7933 8.64253 13.7975C8.64707 13.8061 8.65193 13.8178 8.65796 13.8303C8.67006 13.8555 8.68691 13.8899 8.70618 13.9325C8.74491 14.0183 8.79731 14.1384 8.85952 14.2817C8.98416 14.5687 9.14795 14.9518 9.31375 15.3473C9.50721 15.8088 9.64989 16.2174 9.73905 16.5663C9.82788 16.914 9.86493 17.2089 9.8432 17.4401C9.82128 17.6732 9.80787 17.8099 9.68697 18.0129C9.57309 18.204 9.36049 18.4597 8.95403 18.9484C7.93294 20.1761 7.79522 20.3756 7.55083 20.9476C7.44748 21.1896 7.33774 21.5641 7.2538 21.9361C7.16959 22.3092 7.11417 22.6685 7.11396 22.8812C7.11387 22.9835 7.13433 23.0434 7.15929 23.076C7.18076 23.1038 7.21504 23.1241 7.27887 23.1242C7.31625 23.1242 7.33996 23.1188 7.35506 23.1117C7.36851 23.1053 7.38093 23.0945 7.39364 23.0741C7.42333 23.0261 7.44701 22.9348 7.46307 22.7606C7.54275 21.896 7.86124 20.9022 8.23555 20.3737C8.36053 20.1974 8.56795 19.9515 8.95403 19.5193C9.40036 19.0196 9.75537 18.5847 9.89335 18.3717C10.1417 17.9879 10.2422 17.5884 10.1788 17.0437C10.1146 16.4926 9.88256 15.7932 9.46034 14.815C9.32505 14.5016 9.1807 14.1785 9.13919 14.0965C9.1168 14.0523 9.09841 14.0114 9.08711 13.9808C9.08214 13.9673 9.07506 13.9485 9.07265 13.9306C9.07197 13.9255 9.07126 13.9175 9.07168 13.9084C9.07207 13.9007 9.07423 13.8829 9.08422 13.8641C9.09665 13.841 9.12152 13.8177 9.15752 13.812C9.18652 13.8075 9.20884 13.817 9.21827 13.8216C9.61009 14.0161 9.994 14.1374 10.3678 14.1862C10.4996 14.2033 11.0367 14.2261 11.5646 14.2363C11.9937 14.2447 12.2374 14.2511 12.3757 14.2614C12.4432 14.2664 12.4939 14.2732 12.531 14.2846C12.5504 14.2905 12.5717 14.2988 12.5908 14.3135C12.6013 14.3216 12.6096 14.3309 12.6168 14.3405L12.6342 14.3694L12.6486 14.4157C12.6542 14.4351 12.6611 14.4616 12.6698 14.4938C12.6874 14.559 12.7119 14.6499 12.7402 14.759C12.797 14.9774 12.8717 15.2713 12.9514 15.5874C13.2738 16.8648 13.3506 17.1233 13.5089 17.4873C13.6923 17.909 14.0274 18.4692 14.2206 18.6841C14.6636 19.1771 14.9778 19.6622 15.4791 20.6226C15.6584 20.9659 15.8617 21.3396 15.9314 21.4529C16.2523 21.9745 16.6523 22.81 16.8438 23.3605C16.882 23.4705 16.9163 23.5292 16.9498 23.5611C16.9783 23.588 17.0136 23.6025 17.0762 23.6025C17.0883 23.6025 17.1182 23.5937 17.1524 23.564C17.1852 23.5354 17.2066 23.501 17.2131 23.4752C17.2117 23.4811 17.2131 23.4803 17.2121 23.4675C17.2113 23.4562 17.2088 23.4398 17.2044 23.4183C17.1958 23.3755 17.1796 23.3177 17.1572 23.2457C17.1123 23.1019 17.0423 22.9078 16.9489 22.6748C16.894 22.5379 16.8581 22.4407 16.8486 22.3768C16.8442 22.3474 16.8397 22.2959 16.8717 22.2524C16.908 22.2034 16.963 22.1984 16.9894 22.1984L17.0058 22.1897C17.0185 22.1811 17.0336 22.1672 17.0482 22.1482C17.0792 22.1076 17.0964 22.0603 17.0964 22.0277C17.0964 22.0111 17.0904 21.9642 17.0752 21.8811C17.0606 21.8016 17.0396 21.6961 17.0116 21.5677C16.9553 21.3101 16.8735 20.9618 16.7724 20.5473C16.5701 19.7186 16.2902 18.6253 15.9797 17.4613C15.8214 16.8681 15.6567 16.228 15.6141 16.0398L15.538 15.7022L15.5264 15.654L15.5592 15.6164L15.8687 15.2528C16.2011 14.8633 16.3729 14.6451 16.4647 14.4495C16.5534 14.2606 16.5693 14.0879 16.5679 13.7773C16.5671 13.588 16.5655 13.4905 16.5506 13.3992C16.5357 13.3083 16.5073 13.22 16.4493 13.0492C16.3839 12.8562 16.2583 12.5751 16.1725 12.4291C15.9617 12.0702 15.551 11.6562 15.186 11.4348C15.1068 11.3867 15.0327 11.3384 14.9776 11.2997C14.9504 11.2807 14.9264 11.2626 14.9082 11.2477C14.8994 11.2404 14.89 11.2325 14.8822 11.2245C14.8783 11.2205 14.8735 11.2146 14.8687 11.2081C14.865 11.2032 14.8555 11.1902 14.8503 11.1715C14.8472 11.1599 14.843 11.1359 14.8397 11.1146C14.8358 11.0894 14.8309 11.0551 14.8253 11.0152C14.8139 10.935 14.7995 10.8293 14.7848 10.7173C14.683 9.94121 14.4709 9.40631 14.1714 9.10671C14.0406 8.97591 13.921 8.89116 13.7644 8.82896C13.605 8.76563 13.4024 8.72339 13.1009 8.68623C12.9906 8.67263 12.8889 8.65869 12.8135 8.64766C12.776 8.64215 12.7439 8.63724 12.721 8.63319C12.7097 8.63121 12.6994 8.62928 12.6911 8.62741C12.6871 8.62651 12.6818 8.62516 12.6766 8.62355C12.6741 8.62277 12.6691 8.62185 12.6641 8.61969C12.6614 8.6186 12.6462 8.61151 12.6322 8.59751C12.6102 8.57562 12.6055 8.55123 12.6043 8.54447C12.6026 8.53473 12.6032 8.52636 12.6033 8.52229C12.6036 8.51376 12.6045 8.50625 12.6052 8.50203C12.6069 8.49285 12.6094 8.48267 12.612 8.4731C12.6174 8.45299 12.6261 8.42576 12.6361 8.39499C12.6563 8.33305 12.685 8.24998 12.7181 8.16064C12.7596 8.04853 12.7952 7.96274 12.8261 7.90411C12.8413 7.8753 12.8578 7.84814 12.8762 7.82696C12.8906 7.81038 12.9263 7.77337 12.9813 7.77391C12.9944 7.77408 13.0082 7.77721 13.0161 7.77874C13.0261 7.78069 13.0381 7.78338 13.0508 7.78645C13.0763 7.79265 13.1093 7.8011 13.1463 7.81153C13.2202 7.8324 13.3143 7.86134 13.4115 7.89254C13.8342 8.02825 14.1042 8.03293 14.2659 7.9504C14.3326 7.91634 14.4218 7.84368 14.5321 7.72473C14.6412 7.60702 14.7662 7.44952 14.9043 7.25411C15.1148 6.95648 15.2412 6.75715 15.3374 6.54913C15.4334 6.34135 15.501 6.12064 15.5871 5.77665C15.651 5.52183 15.6893 5.37512 15.7328 5.25877C15.7774 5.13933 15.8271 5.05278 15.9093 4.91737C16.1823 4.4676 16.2773 4.10473 16.2757 3.50068C16.2742 2.91186 16.1603 2.52861 15.862 2.09362C15.6125 1.72981 14.9971 1.23545 14.1454 0.729969C13.681 0.454385 13.4402 0.347683 13.1356 0.276703C12.8848 0.218298 12.3768 0.181942 12.1298 0.204373C10.5294 0.349948 9.32328 1.33495 9.00996 2.72627C8.97361 2.88784 8.95202 3.18851 8.93474 3.85365C8.91336 4.67708 8.90626 4.79203 8.83348 4.9791C8.72915 5.24718 8.54061 5.48948 8.08221 5.9676C7.79496 6.26723 7.62064 6.47745 7.50743 6.68029C7.39577 6.88037 7.3403 7.07857 7.30105 7.35922C7.25799 7.66757 7.28266 7.94316 7.38303 8.26093C7.4516 8.47803 7.48961 8.64186 7.41389 8.81739C7.3777 8.90118 7.31787 8.98157 7.2374 9.07006C7.15681 9.1587 7.05022 9.26008 6.9153 9.38446C6.49204 9.77462 6.24799 10.0295 6.1081 10.2543C5.97266 10.472 5.9326 10.6652 5.93258 10.942ZM12.476 4.21529C12.4763 4.30665 12.4887 4.36789 12.5078 4.40914C12.5255 4.44704 12.5506 4.47275 12.5888 4.49111C12.6269 4.50932 12.6567 4.51098 12.6785 4.50654C12.7004 4.50207 12.7225 4.48943 12.7431 4.46507C12.7862 4.41422 12.8199 4.31318 12.8049 4.169C12.7756 3.89024 12.6898 3.7064 12.5348 3.56143C12.1365 3.18897 11.5253 3.35165 11.3785 3.85461C11.2714 4.2216 11.2538 4.36232 11.2782 4.5972C11.3079 4.88212 11.3194 5.0694 11.2695 5.23563C11.2191 5.40355 11.1092 5.54025 10.9349 5.73615C10.6652 6.03919 10.5661 6.21798 10.5048 6.4903C10.4503 6.73263 10.4401 7.01793 10.4623 7.90218C10.4689 8.16096 10.4715 8.30939 10.4633 8.41427C10.4545 8.52625 10.4334 8.59163 10.3977 8.68238C10.3553 8.79014 10.2704 8.94777 10.2058 9.03824C9.95257 9.39257 9.82874 9.57504 9.76123 9.75189C9.69492 9.92577 9.68073 10.0995 9.66672 10.4453C9.65266 10.7921 9.64203 11.0039 9.5587 11.1734C9.47399 11.3454 9.31864 11.4661 9.06879 11.6546C8.72848 11.9115 8.58964 12.0565 8.50751 12.2159C8.47447 12.2802 8.43741 12.4072 8.40818 12.5564C8.37947 12.703 8.36077 12.8601 8.35996 12.9817C8.35889 13.1521 8.32236 13.2555 8.19312 13.5198C8.07772 13.7558 7.96019 13.9288 7.82376 14.028C7.67917 14.1331 7.52174 14.1501 7.35313 14.0946C7.27761 14.0696 7.21015 14.0322 7.16507 13.9673C7.12065 13.9033 7.10823 13.8266 7.10817 13.7455C7.10817 13.6821 7.12741 13.6266 7.16797 13.5651C7.20608 13.5074 7.26664 13.4385 7.35313 13.3472C7.47748 13.2157 7.55441 13.1103 7.60098 13.0087C7.64669 12.9088 7.66573 12.8061 7.66463 12.6759C7.66307 12.4976 7.60882 12.3444 7.50358 12.213C7.39713 12.0803 7.23437 11.9646 7.00788 11.8707C6.76293 11.7691 6.58549 11.6654 6.46782 11.5225C6.34774 11.3767 6.29897 11.2024 6.28458 10.9825C6.27769 10.877 6.27523 10.8017 6.29037 10.7269C6.30545 10.6526 6.33718 10.5837 6.38488 10.4868C6.47531 10.3031 6.57759 10.1808 6.83139 9.93995C7.53807 9.26926 7.63736 9.15643 7.71478 8.98905C7.81423 8.77384 7.82273 8.4482 7.72539 8.16353C7.63385 7.89588 7.62693 7.52957 7.70417 7.23C7.79805 6.86603 7.94865 6.6413 8.36575 6.2087C8.8277 5.72959 8.90667 5.62669 9.04372 5.35328C9.13887 5.16349 9.18915 5.03823 9.21924 4.84987C9.25021 4.65586 9.26007 4.39387 9.26746 3.92983C9.27546 3.42648 9.2904 3.09818 9.33207 2.84007C9.37436 2.57811 9.44381 2.38962 9.55581 2.16403C9.95678 1.35638 10.708 0.810131 11.6919 0.596882C11.9046 0.550829 12.1769 0.53142 12.4355 0.53709C12.6928 0.54275 12.9473 0.572725 13.1241 0.628707C13.5348 0.758886 14.0802 1.06396 14.561 1.40022C14.8023 1.56897 15.0298 1.74733 15.2187 1.9181C15.4064 2.08773 15.5606 2.25467 15.6508 2.4003C15.7102 2.49627 15.7647 2.60906 15.8012 2.70602C15.8194 2.75415 15.834 2.80078 15.8427 2.84103C15.8471 2.86113 15.8504 2.88213 15.8514 2.90179C15.8523 2.91942 15.8518 2.94591 15.8417 2.97219C15.8349 2.98996 15.8246 3.00344 15.8186 3.01076C15.8116 3.01926 15.8039 3.02779 15.7964 3.03487C15.7813 3.04911 15.7624 3.06424 15.7424 3.07924C15.702 3.10962 15.6499 3.14442 15.5958 3.17568L15.4097 3.28272L15.3865 3.29623H15.3605L14.8021 3.29719C14.4741 3.29802 14.3222 3.30051 14.1878 3.33577C14.0545 3.37075 13.9347 3.43905 13.6757 3.5923C13.491 3.7016 13.3973 3.7708 13.3536 3.82568C13.3343 3.84998 13.3283 3.86734 13.3266 3.88161C13.3247 3.89724 13.3263 3.91885 13.3382 3.95298C13.3536 3.99712 13.3687 4.01671 13.3796 4.02531C13.3881 4.03189 13.4029 4.03919 13.4365 4.03688C13.4728 4.03438 13.5246 4.02045 13.5986 3.98963C13.6717 3.95917 13.7611 3.91387 13.8705 3.85268L14.2273 3.65305L14.2495 3.64148L14.2746 3.64052L14.8658 3.63955C15.4004 3.63804 15.4577 3.6297 15.5949 3.57494C15.6432 3.55563 15.6884 3.5377 15.7222 3.52479C15.739 3.51835 15.7539 3.51226 15.7646 3.50839C15.7698 3.50652 15.7748 3.50496 15.7791 3.50357L15.7945 3.49971C15.7966 3.49927 15.8046 3.49782 15.8147 3.49778L15.8514 3.50357C15.8817 3.51539 15.8968 3.53965 15.8996 3.54408C15.9064 3.55497 15.91 3.5652 15.9112 3.56915C15.9139 3.57807 15.9153 3.58675 15.916 3.59133C15.9176 3.60187 15.9181 3.61471 15.9189 3.62701C15.9205 3.65237 15.9218 3.68576 15.9218 3.72152C15.9218 3.84416 15.8962 3.99873 15.8572 4.14779C15.818 4.2973 15.7629 4.44899 15.7009 4.56537C15.4322 5.0701 15.3677 5.2334 15.2477 5.70529C15.1771 5.98276 15.0749 6.31199 15.0181 6.43726C14.9622 6.56063 14.811 6.78722 14.6575 6.99661C14.5042 7.20568 14.3349 7.41603 14.237 7.50196C14.149 7.57924 14.0477 7.61774 13.9168 7.61961C13.7919 7.62136 13.6395 7.59029 13.4452 7.53282C13.2116 7.46367 13.0801 7.42749 12.991 7.41323C12.9095 7.40022 12.8689 7.40657 12.8145 7.42287C12.7197 7.45127 12.6556 7.48926 12.5975 7.55885C12.5357 7.633 12.4773 7.74664 12.4037 7.93304C12.3292 8.12178 12.2327 8.34648 12.1896 8.4326L12.1153 8.58208L12.0806 8.65152L12.0044 8.63319L11.8202 8.59076C11.718 8.56691 11.5898 8.53096 11.5338 8.50975C11.4704 8.48564 11.4366 8.48256 11.4161 8.48564C11.3991 8.48829 11.378 8.49679 11.3438 8.53097C11.2752 8.5995 11.282 8.70028 11.3342 8.74795C11.4949 8.89485 11.6703 8.94391 12.4818 8.98712C12.9154 9.01019 13.212 9.04195 13.4336 9.10575C13.6614 9.17134 13.8101 9.27072 13.9496 9.42207C14.0859 9.56999 14.2054 9.79895 14.2958 10.0547C14.3868 10.3123 14.4514 10.6057 14.4723 10.8879L14.5649 11.6141C14.6165 11.9976 14.684 12.4888 14.7539 12.9855C14.8934 13.9773 15.0394 14.9794 15.076 15.1757C15.1528 15.5869 15.3 16.1924 15.6151 17.3889C15.9082 18.5021 16.1784 19.5558 16.3722 20.3342C16.469 20.7233 16.5477 21.0443 16.5998 21.2697C16.6258 21.3822 16.6451 21.4723 16.6576 21.5349C16.6638 21.5658 16.6684 21.5919 16.6711 21.6111C16.6724 21.6202 16.6736 21.6307 16.674 21.64C16.6742 21.6444 16.6749 21.6519 16.674 21.6602C16.6735 21.6645 16.6719 21.6719 16.6692 21.6805C16.6669 21.6877 16.6605 21.7056 16.6441 21.722C16.5952 21.7705 16.5368 21.7445 16.5284 21.7403C16.5145 21.7333 16.5055 21.724 16.5024 21.721C16.4945 21.7135 16.4874 21.7055 16.4831 21.6998C16.4734 21.6871 16.4613 21.6694 16.4493 21.6506C16.4248 21.6123 16.3935 21.5589 16.3606 21.5002C16.1729 21.1645 15.8113 20.5919 15.3673 19.9263C14.9641 19.3219 14.4696 18.5488 14.2283 18.147C13.8652 17.5421 13.6122 16.8196 13.2253 15.301C12.9518 14.2273 12.5662 12.5528 12.5049 12.1696C12.4966 12.1172 12.4853 12.0646 12.4741 12.024C12.4685 12.0038 12.463 11.9872 12.4586 11.9758C12.4582 11.9748 12.458 11.9738 12.4577 11.9729C12.4509 11.9693 12.4415 11.9651 12.4297 11.9604C12.4017 11.9491 12.3652 11.9381 12.3294 11.9305C12.2966 11.9234 12.2734 11.9191 12.2561 11.917C12.2392 11.9149 12.2317 11.9156 12.2291 11.916C12.2282 11.9161 12.2272 11.9161 12.2243 11.9179C12.2193 11.921 12.2113 11.9271 12.1963 11.9411C12.1712 11.9646 12.1558 11.9976 12.1558 12.0462C12.1558 12.0454 12.1563 12.0469 12.1568 12.052C12.1572 12.0568 12.1576 12.064 12.1587 12.0722C12.1609 12.0885 12.1641 12.1098 12.1684 12.1359C12.1771 12.1886 12.1902 12.2589 12.206 12.3413C12.2376 12.5062 12.2813 12.7193 12.3294 12.9402C12.3777 13.1618 12.422 13.3662 12.4538 13.5169C12.4697 13.592 12.4824 13.654 12.4914 13.6982C12.4959 13.7202 12.4996 13.7383 12.502 13.7512C12.5033 13.7577 12.5042 13.764 12.5049 13.7686C12.5053 13.7707 12.5056 13.773 12.5059 13.7753C12.506 13.7759 12.5068 13.7829 12.5069 13.7908C12.5069 13.8275 12.4873 13.8522 12.476 13.8631C12.4649 13.8736 12.454 13.8791 12.449 13.8814C12.4384 13.8864 12.4287 13.8892 12.4249 13.8901C12.4158 13.8922 12.4063 13.8932 12.3988 13.894C12.3826 13.8957 12.3606 13.8968 12.3352 13.8978C12.2837 13.9 12.2103 13.9019 12.1211 13.9026C11.9423 13.9041 11.696 13.9023 11.4258 13.8978C10.6738 13.8853 10.381 13.8696 10.1846 13.8255C9.68678 13.7139 9.26123 13.5 8.92317 13.1871L8.7274 13.0058L8.69075 12.971L8.69653 12.9219L8.71486 12.7647C8.73245 12.6165 8.76908 12.4946 8.84602 12.3779C8.92127 12.264 9.03173 12.1615 9.18548 12.0433C9.72161 11.6312 9.90699 11.3848 9.97725 11.0538C9.99459 10.9721 10.0181 10.7068 10.0284 10.4636C10.0336 10.3399 10.0444 10.2112 10.0563 10.1029C10.0679 9.99824 10.0816 9.9028 10.0978 9.85219C10.1142 9.80114 10.1495 9.73428 10.1885 9.66992C10.2286 9.6037 10.278 9.53296 10.3264 9.47318C10.5471 9.20028 10.682 8.96584 10.7565 8.73542C10.8091 8.57274 10.8183 8.48718 10.8153 8.01694C10.8135 7.71765 10.8028 7.3989 10.7931 7.30811C10.7817 7.20023 10.7894 7.02655 10.8057 6.85967C10.822 6.69219 10.8486 6.51793 10.8809 6.41026C10.8973 6.35561 10.936 6.28884 10.9822 6.2222C11.03 6.15308 11.0914 6.075 11.1615 5.99653C11.2803 5.86343 11.4353 5.65716 11.5029 5.54134C11.573 5.42129 11.6377 5.31117 11.6437 5.30217C11.6616 5.27565 11.6864 5.26547 11.6997 5.26166C11.713 5.25786 11.7245 5.25675 11.7305 5.25684C11.7426 5.25705 11.7529 5.25937 11.7585 5.2607C11.7709 5.26366 11.7848 5.26884 11.7961 5.27324C11.8197 5.28244 11.8493 5.29545 11.879 5.31085C11.9319 5.33811 11.9759 5.34191 12.0073 5.33399C12.0371 5.32639 12.0646 5.3065 12.0845 5.26841C12.0988 5.24072 12.1049 5.22042 12.1066 5.20476C12.1081 5.19032 12.1063 5.17401 12.098 5.15172C12.0788 5.10056 12.0294 5.02906 11.9224 4.90773C11.8063 4.77603 11.7309 4.68783 11.6891 4.60105C11.6439 4.50719 11.6399 4.42041 11.6399 4.30691C11.6399 4.17605 11.668 4.04752 11.7161 3.94334C11.7622 3.84323 11.8358 3.74691 11.9379 3.71188C12.0831 3.6622 12.2234 3.70852 12.3217 3.80736C12.4183 3.90453 12.4755 4.0519 12.476 4.21529Z" fill="#6281AA"/>
</svg>
