<svg width="24" height="24" viewBox="0 0 24 24" fill="none" xmlns="http://www.w3.org/2000/svg">
<g clip-path="url(#clip0_128_95)">
<path fill-rule="evenodd" clip-rule="evenodd" d="M11.6217 0.044887C11.2073 0.0962994 10.7732 0.260653 10.425 0.498025C10.346 0.551863 10.1306 0.741906 9.9463 0.920366C9.762 1.09879 9.48646 1.33291 9.33401 1.44062C9.18156 1.54832 9.00619 1.69825 8.94428 1.77379C8.71077 2.05878 8.54581 2.5603 8.54345 2.99256C8.54131 3.38487 8.7124 4.01526 8.85046 4.12386C9.03587 4.2697 9.30851 4.15258 9.30762 3.92747C9.30739 3.86964 9.27149 3.71045 9.22783 3.57377C9.0884 3.13713 9.12941 2.57976 9.32319 2.27761C9.41823 2.12944 9.55118 2.00915 9.86651 1.78605C10.0069 1.68667 10.2533 1.47231 10.4139 1.30968C10.5746 1.14701 10.7852 0.966257 10.8819 0.907952C11.3337 0.635795 11.9412 0.546724 12.4747 0.674442C13.353 0.884751 14.0322 1.5728 14.292 2.51559C14.3846 2.85173 14.3935 3.639 14.3085 3.97843C14.2405 4.24995 14.0518 4.65802 13.8714 4.92367C13.6909 5.18948 13.4406 5.44683 13.3838 5.42503C13.3592 5.41558 13.1946 5.39758 13.018 5.38507L12.697 5.36232L12.3729 5.66907C12.1019 5.92559 11.9946 6.00273 11.7178 6.14034C11.4321 6.28238 11.3545 6.30695 11.1511 6.32004C10.7711 6.34442 10.674 6.26081 10.3781 5.65439C10.2975 5.48927 10.2077 5.33622 10.1786 5.31426C10.1224 5.27197 9.95421 5.26109 9.86795 5.29419C9.80036 5.32013 9.7229 5.47229 9.7229 5.57917C9.7229 5.66186 9.98565 6.21718 10.1147 6.40729C10.2911 6.6671 10.6073 6.90064 10.784 6.90163C10.8514 6.90201 10.8516 6.89122 10.7793 7.19616C10.7108 7.48484 10.6471 7.59514 10.5323 7.62395C10.4433 7.64626 10.4251 7.64259 9.73886 7.46372C8.98772 7.26793 8.50793 7.27996 8.04745 7.50613C7.56301 7.74411 7.19773 8.2583 7.04391 8.91884C6.85469 9.73139 6.6298 14.8905 6.75487 15.55C6.83111 15.9519 7.1197 16.3343 7.46685 16.4932C7.62451 16.5654 8.0615 16.7015 9.15644 17.0198C9.41535 17.095 9.62716 17.1664 9.62716 17.1785C9.62716 17.1906 9.54556 17.3139 9.4458 17.4525C9.34604 17.5912 9.1327 17.9057 8.97173 18.1514C8.08907 19.4987 7.58286 20.6503 7.21825 22.1406C7.06746 22.757 6.91453 23.5215 6.91453 23.6591C6.91453 23.861 7.14322 23.9921 7.32845 23.8963C7.45588 23.8304 7.47091 23.7912 7.56722 23.2735C7.75554 22.2612 8.07965 21.1496 8.40463 20.4013C8.70101 19.7189 9.24746 18.7699 9.7821 18.0092C10.3976 17.1334 10.6013 16.6543 10.6384 15.9949C10.6616 15.5829 10.6138 15.2215 10.4848 14.8324C10.3291 14.3629 9.9334 13.6662 9.45531 13.0197C9.23303 12.7191 9.09443 12.4327 9.04644 12.1746C8.9574 11.6957 9.21497 11.198 9.65908 10.9907C9.81153 10.9196 9.87657 10.909 10.1537 10.91C10.4956 10.9113 10.5175 10.9174 11.7334 11.3559C11.9962 11.4507 12.1271 11.4794 12.3398 11.4891C12.6017 11.501 12.6287 11.4952 13.1217 11.3224C14.2491 10.9271 14.3054 10.9119 14.6535 10.9096C14.9344 10.9077 14.9943 10.9175 15.1529 10.9917C15.6127 11.2069 15.8852 11.7421 15.7876 12.2384C15.7349 12.5062 15.6408 12.6838 15.2921 13.1729C14.8815 13.7488 14.7789 13.9164 14.584 14.3296C14.3483 14.8292 14.2845 15.0713 14.2633 15.5462C14.2369 16.1382 14.3104 16.459 14.6501 17.2346L14.7937 17.5624L14.6757 17.6357C13.9483 18.0877 12.6443 18.5481 11.3984 18.7927C11.1725 18.8371 11.0924 18.8679 11.0234 18.9366C10.9051 19.0545 10.9029 19.2226 11.0183 19.338C11.0947 19.4144 11.116 19.4192 11.2975 19.4017C11.5251 19.3798 12.4689 19.1499 13.0259 18.9808C13.5848 18.8111 14.3299 18.5076 14.7201 18.2906C14.9074 18.1864 15.067 18.1074 15.0746 18.115C15.1048 18.1452 15.4638 19.0296 15.5326 19.2433L15.6058 19.4705L15.4373 19.6651C15.2278 19.9069 14.7672 20.2959 14.4301 20.5156C13.6592 21.0181 12.8091 21.3564 11.4788 21.69C11.1774 21.7656 10.9034 21.8507 10.8702 21.8792C10.722 22.0061 10.7588 22.2325 10.9437 22.332L11.0622 22.3958L11.6771 22.2412C12.8762 21.9396 13.8167 21.586 14.4961 21.1814C14.8323 20.9812 15.3152 20.6258 15.578 20.3852C15.7315 20.2446 15.7374 20.2422 15.7628 20.3111C15.8116 20.443 15.8274 21.1761 15.7891 21.5342C15.7349 22.0411 15.6105 22.6197 15.4487 23.1168C15.3252 23.4963 15.312 23.5633 15.343 23.6524C15.4062 23.8336 15.6439 23.9031 15.7948 23.7844C15.9442 23.6669 16.2367 22.635 16.349 21.8294C16.4147 21.3581 16.396 20.3918 16.3126 19.9489L16.2544 19.64L16.4002 19.3547C16.5752 19.0124 16.6261 18.7907 16.6113 18.4353C16.6013 18.1945 16.5917 18.1603 16.5125 18.081C16.3882 17.9568 16.1936 17.9573 16.0862 18.0821C16.0179 18.1615 16.0097 18.2019 16.0085 18.4643L16.0071 18.7578L15.9019 18.5024C15.8441 18.362 15.7442 18.1338 15.6799 17.9952C15.5527 17.7213 15.5503 17.7428 15.7294 17.546C16.1338 17.1017 16.1092 16.4128 15.6758 16.0389C15.348 15.7561 15.056 15.7255 14.9574 15.9636C14.8951 16.114 14.939 16.2683 15.0664 16.3471C15.1255 16.3836 15.2256 16.4707 15.2887 16.5406C15.385 16.6472 15.4035 16.691 15.4035 16.8127C15.4035 16.955 15.3323 17.1461 15.2793 17.1461C15.2501 17.1461 14.9547 16.4213 14.8891 16.1887C14.8303 15.9804 14.8385 15.3867 14.9037 15.1356C14.9612 14.914 15.2085 14.3773 15.3937 14.0724C15.4556 13.9703 15.6173 13.7327 15.7528 13.5443C16.0936 13.0706 16.2165 12.8511 16.3419 12.4925C16.4012 12.3226 16.5106 12.0256 16.5848 11.8326C16.9134 10.9778 17.2585 9.82875 17.3211 9.38088C17.3532 9.15149 17.3509 9.07828 17.3049 8.87154C17.1771 8.29726 16.6517 7.80893 16.0417 7.69764C15.9277 7.67684 15.8192 7.656 15.8009 7.65134C15.7825 7.64671 15.6938 7.52285 15.6038 7.37615C15.2033 6.72336 14.6775 6.33172 13.9355 6.13344C13.7863 6.09358 13.6582 6.05634 13.6509 6.05063C13.6436 6.04495 13.7561 5.93019 13.901 5.79561C14.6615 5.08905 15.0806 3.95651 14.9613 2.93011C14.7694 1.27942 13.6255 0.114075 12.1164 0.0319621C11.9672 0.0238242 11.7446 0.0296643 11.6217 0.044887ZM10.8422 1.84799C10.7129 2.01231 10.7673 2.21755 11.0548 2.65064C11.3476 3.09181 11.7706 3.4256 12.2146 3.56585C12.3704 3.6151 12.6221 3.66041 12.8597 3.68202C13.074 3.70152 13.2886 3.73771 13.3365 3.76247C13.4951 3.8442 13.5701 4.09833 13.4843 4.26323C13.4644 4.30155 13.3711 4.41443 13.2769 4.51406C13.0719 4.73095 13.0551 4.83371 13.1982 4.99388C13.2749 5.0797 13.3137 5.09741 13.4255 5.09741C13.5491 5.09741 13.5752 5.08142 13.7399 4.90564C14.2043 4.4098 14.2519 3.86144 13.8669 3.44018C13.6518 3.20488 13.4888 3.14201 12.9961 3.10442C12.4015 3.05904 12.1034 2.93515 11.7697 2.59467C11.6708 2.49376 11.5267 2.29784 11.4494 2.15934C11.2534 1.80768 11.2086 1.7639 11.0441 1.7639C10.9355 1.7639 10.8951 1.78069 10.8422 1.84799ZM12.852 6.03732C12.7538 6.22085 12.0647 6.65953 11.5867 6.84284L11.456 6.89298L11.3564 7.3022C11.2307 7.81843 11.144 7.96776 10.8965 8.09436C10.6188 8.23637 10.3767 8.24106 9.89843 8.11373C9.23396 7.93687 9.11926 7.91781 8.79742 7.93074C8.35823 7.94839 8.13209 8.0731 7.88578 8.4336C7.66644 8.75458 7.59447 9.0029 7.53815 9.63284C7.40663 11.1038 7.33017 12.8656 7.32969 14.4352L7.3294 15.4741L7.41349 15.6429C7.53138 15.8794 7.66842 15.9661 8.1491 16.1082C9.96123 16.6437 9.91706 16.6326 9.94486 16.5594C10.0148 16.3752 10.0602 15.9799 10.0471 15.6701C10.043 15.5738 10.0297 15.5505 9.97875 15.5505C9.91387 15.5505 9.14645 15.3313 8.89842 15.2419C8.72392 15.179 8.63814 15.0473 8.63798 14.842C8.63791 14.7595 8.687 14.4364 8.74703 14.1239C8.92264 13.2104 8.92181 13.2955 8.75765 13.0243C8.5521 12.6847 8.47401 12.4541 8.45441 12.1288C8.40239 11.2656 8.88403 10.5719 9.67921 10.3648C10.1222 10.2494 10.6425 10.3264 11.4143 10.6214C12.3963 10.9968 12.3716 10.9949 13.0302 10.7453C13.9167 10.4094 14.2716 10.3177 14.6854 10.3175C14.8434 10.3175 15.0498 10.338 15.144 10.363C15.5303 10.4659 15.8745 10.7082 16.0912 11.0299L16.1987 11.1895L16.2344 11.0962C16.2975 10.9315 16.5786 9.98356 16.6626 9.65234C16.7073 9.47602 16.7438 9.2546 16.7438 9.1603C16.7438 8.8306 16.5123 8.51635 16.1413 8.34236L15.962 8.25826L14.9886 8.25788C14.0678 8.2575 14.0039 8.25364 13.8058 8.18662C13.4029 8.05035 13.1367 7.79453 12.9707 7.384C12.9034 7.21767 12.8986 7.16201 12.9034 6.59079C12.9062 6.25293 12.9031 5.97646 12.8965 5.97646C12.89 5.97646 12.8699 6.00384 12.852 6.03732ZM13.4953 6.86206C13.5183 7.24859 13.6608 7.46161 13.9993 7.61566C14.1217 7.67138 14.2074 7.68102 14.5805 7.68095C14.8212 7.68092 15.0276 7.67144 15.0391 7.65989C15.076 7.623 14.7662 7.22331 14.5971 7.08966C14.5073 7.01872 14.3684 6.92764 14.2884 6.88724C14.1636 6.82421 13.5576 6.61473 13.5002 6.61473C13.4893 6.61473 13.4871 6.72604 13.4953 6.86206ZM12.1962 13.464C11.9958 13.4939 11.6459 13.5767 11.4534 13.6397C11.0721 13.7645 10.9151 14.033 11.1097 14.2275C11.2078 14.3257 11.2898 14.3259 11.5481 14.2286C12.0635 14.0346 12.7049 13.9891 13.212 14.1107C13.5715 14.1968 13.6338 14.1955 13.7295 14.0998C13.8766 13.9527 13.8046 13.6927 13.5935 13.6091C13.3065 13.4956 12.5272 13.4146 12.1962 13.464ZM9.36142 14.0373C9.32431 14.1627 9.2442 14.5931 9.2442 14.6671C9.2442 14.7369 9.27235 14.7519 9.55003 14.8307C9.71824 14.8784 9.86326 14.9101 9.87226 14.9011C9.89131 14.8821 9.52558 14.1672 9.43846 14.0532C9.38322 13.9809 9.3784 13.9799 9.36142 14.0373Z" fill="#6281AA"/>
<path d="M15.3535 16.8125C15.3535 16.7538 15.3486 16.7205 15.3359 16.6904C15.3228 16.6593 15.2995 16.6268 15.2519 16.5742C15.1909 16.5067 15.094 16.423 15.04 16.3896C15.0255 16.3806 15.0126 16.3699 15 16.3593C15.0408 16.4724 15.0929 16.6088 15.1445 16.7353C15.1872 16.8401 15.2283 16.9381 15.2607 17.0088C15.271 17.0312 15.2811 17.0504 15.289 17.0664C15.2967 17.0524 15.3068 17.0361 15.3144 17.0156C15.3372 16.9545 15.3535 16.8765 15.3535 16.8125ZM12.8535 6.15719C12.8534 6.14421 12.8527 6.13183 12.8525 6.12008C12.817 6.16148 12.7687 6.2077 12.7119 6.25387C12.6241 6.32524 12.5119 6.40394 12.3887 6.48239C12.1425 6.63911 11.8475 6.79642 11.6045 6.88961L11.498 6.92965L11.4053 7.31442C11.3425 7.57203 11.288 7.74462 11.2158 7.86911C11.1416 7.99695 11.0491 8.07206 10.9189 8.13864C10.7743 8.21261 10.6371 8.25168 10.4736 8.25485C10.3117 8.25798 10.1263 8.22612 9.88573 8.16208C9.55298 8.07351 9.36009 8.02476 9.21092 7.99997C9.0639 7.97556 8.95851 7.97407 8.79979 7.98043C8.58435 7.98909 8.4258 8.02435 8.29295 8.09762C8.16034 8.17089 8.04736 8.28535 7.92674 8.46188C7.8195 8.61886 7.74987 8.75682 7.6992 8.93161C7.64819 9.1077 7.61597 9.32353 7.58788 9.63766C7.45652 11.107 7.38035 12.8674 7.37987 14.4355V15.4638L7.45799 15.6201C7.51391 15.7323 7.57225 15.8061 7.67186 15.8691C7.77444 15.934 7.92287 15.9895 8.16307 16.0605C9.06997 16.3285 9.51086 16.459 9.7285 16.5136C9.78265 16.5272 9.82188 16.5361 9.85057 16.541C9.87381 16.5449 9.88804 16.544 9.89647 16.5439L9.89842 16.542C9.93115 16.4557 9.95921 16.3154 9.97752 16.1562C9.99574 15.9978 10.0035 15.8237 9.99706 15.6718C9.99607 15.6487 9.99428 15.6318 9.99217 15.6191C9.99042 15.6086 9.98843 15.6031 9.98729 15.6006C9.98729 15.6006 9.98241 15.6006 9.9785 15.6006C9.96975 15.6005 9.95924 15.5992 9.95018 15.5976C9.93992 15.5958 9.92724 15.593 9.91307 15.5898C9.88461 15.5835 9.84738 15.5745 9.80467 15.5634C9.7192 15.5414 9.60877 15.5105 9.49315 15.4775C9.2625 15.4116 9.00763 15.3343 8.88182 15.289C8.78632 15.2546 8.71133 15.1999 8.66112 15.123C8.61119 15.0463 8.58796 14.9512 8.58788 14.8418C8.58789 14.7958 8.60054 14.6903 8.6201 14.5615C8.63997 14.4307 8.66811 14.271 8.69823 14.1142C8.74215 13.8858 8.7749 13.7208 8.79686 13.5966C8.81889 13.4721 8.82948 13.3918 8.83006 13.333C8.83061 13.2764 8.82173 13.2402 8.80467 13.2031C8.78584 13.1621 8.75785 13.1208 8.71483 13.0498C8.50614 12.7049 8.42445 12.4666 8.40428 12.1318C8.35096 11.2466 8.84697 10.53 9.66698 10.3164C10.1253 10.1971 10.6581 10.2791 11.4326 10.5752C11.6782 10.6691 11.8593 10.7388 12.0039 10.7871C12.1486 10.8353 12.2543 10.861 12.3476 10.8681C12.5329 10.8823 12.6799 10.8243 13.0127 10.6982C13.8991 10.3623 14.2618 10.2677 14.6855 10.2675C14.8455 10.2675 15.057 10.2878 15.1572 10.3144C15.5547 10.4203 15.9092 10.6699 16.1328 11.0019L16.1855 11.081L16.1875 11.0781C16.2496 10.916 16.5304 9.9703 16.6142 9.63961C16.6586 9.4644 16.6943 9.24797 16.6943 9.16012C16.6942 8.85502 16.4787 8.55582 16.1201 8.38766L15.9502 8.30758H14.9883C14.0719 8.3072 13.9975 8.30452 13.79 8.23434C13.3727 8.09319 13.0961 7.82571 12.9248 7.40231C12.8899 7.31609 12.8699 7.25583 12.8603 7.14352C12.8511 7.0346 12.8511 6.87517 12.8535 6.59079C12.8549 6.42207 12.8547 6.26813 12.8535 6.15719ZM9.39549 13.9472C9.40875 13.95 9.41881 13.9572 9.42479 13.9619C9.43115 13.9669 9.43731 13.9729 9.44237 13.9785C9.45247 13.9896 9.46495 14.0047 9.4785 14.0224C9.50292 14.0544 9.54401 14.1244 9.58983 14.207C9.63636 14.2909 9.68914 14.3923 9.73924 14.4902C9.78938 14.5882 9.83674 14.6835 9.8701 14.7558C9.88665 14.7917 9.90025 14.8226 9.90917 14.8457C9.91352 14.8569 9.91753 14.8679 9.91991 14.8769C9.92101 14.8811 9.92236 14.8872 9.92284 14.8935C9.92306 14.8967 9.92291 14.9021 9.92186 14.9082C9.92087 14.9137 9.91773 14.926 9.90721 14.9365C9.89474 14.9488 9.88004 14.9516 9.87694 14.9521C9.87124 14.953 9.86524 14.9532 9.86131 14.9531C9.85333 14.9529 9.8442 14.9515 9.83495 14.9502C9.81562 14.9475 9.78943 14.943 9.75975 14.9365C9.70014 14.9235 9.62078 14.9029 9.53612 14.8789C9.40007 14.8402 9.3172 14.8154 9.26952 14.79C9.24431 14.7765 9.22245 14.7594 9.20897 14.7353C9.19576 14.7116 9.19432 14.6869 9.19432 14.667C9.19435 14.6439 9.2001 14.5993 9.20799 14.5478C9.21619 14.4944 9.22782 14.4289 9.24022 14.3623C9.2648 14.2302 9.29407 14.0891 9.31346 14.0234C9.31738 14.0102 9.32244 13.9937 9.32909 13.9814C9.33252 13.9751 9.33858 13.9648 9.3496 13.957C9.3629 13.9476 9.37948 13.944 9.39549 13.9472ZM12.1885 13.415C12.3604 13.3893 12.644 13.3974 12.917 13.4257C13.1894 13.4541 13.4621 13.503 13.6123 13.5625C13.8489 13.6563 13.9425 13.9567 13.7646 14.1347C13.7391 14.1603 13.7127 14.1834 13.6806 14.1992C13.648 14.2151 13.6122 14.2227 13.5703 14.2236C13.4901 14.2252 13.3777 14.2017 13.2002 14.1591C12.7035 14.0401 12.0719 14.0847 11.5654 14.2754C11.437 14.3237 11.3439 14.3517 11.2685 14.3515C11.1866 14.3513 11.1296 14.3181 11.0742 14.2627C11.019 14.2074 10.9867 14.1443 10.9785 14.0771C10.9703 14.0101 10.9866 13.9431 11.0224 13.8818C11.0935 13.7606 11.2405 13.6563 11.4375 13.5918C11.6325 13.5279 11.9852 13.4454 12.1885 13.415ZM12.9062 13.5254C12.6351 13.4972 12.3621 13.4899 12.2031 13.5136C12.0054 13.5432 11.6584 13.6254 11.4687 13.6875C11.2849 13.7477 11.1626 13.8399 11.1084 13.9326C11.0817 13.9782 11.072 14.0236 11.0771 14.0654C11.0823 14.107 11.1036 14.1505 11.1455 14.1923C11.1879 14.2347 11.2208 14.2507 11.2685 14.2509C11.3232 14.2511 11.4005 14.2304 11.5303 14.1816C12.0544 13.9843 12.7063 13.9385 13.2236 14.0625C13.4049 14.1059 13.5036 14.1243 13.5683 14.123C13.5987 14.1224 13.6196 14.1177 13.6367 14.1093C13.6545 14.1006 13.672 14.0867 13.6943 14.0644C13.8103 13.9483 13.7604 13.7285 13.5752 13.6552C13.4385 13.6012 13.1777 13.5536 12.9062 13.5254ZM13.5273 6.56833C13.536 6.5701 13.5463 6.57221 13.5576 6.57516C13.5808 6.58126 13.6109 6.59018 13.6445 6.60055C13.7121 6.62139 13.7983 6.64942 13.8857 6.67965C14.0587 6.73947 14.2443 6.80935 14.3105 6.84274C14.3943 6.885 14.5362 6.97826 14.6279 7.05075C14.7173 7.12141 14.8399 7.2587 14.9346 7.38083C14.9821 7.44221 15.0247 7.50156 15.0527 7.54879C15.0664 7.57195 15.0781 7.59416 15.0849 7.61325C15.0883 7.62263 15.0911 7.63461 15.0918 7.64645C15.0923 7.65734 15.0911 7.67837 15.0742 7.69528C15.0641 7.70526 15.0521 7.7092 15.0498 7.70993C15.0449 7.71148 15.0396 7.71201 15.0351 7.71286C15.026 7.71459 15.0146 7.71644 15.0019 7.71774C14.9759 7.72038 14.9402 7.72265 14.8984 7.72458C14.8144 7.72844 14.701 7.7314 14.5801 7.73141C14.2087 7.73147 14.1122 7.72195 13.9785 7.6611C13.8038 7.58157 13.6754 7.48432 13.5879 7.35348C13.5005 7.22287 13.4572 7.06375 13.4453 6.8652C13.4412 6.79635 13.4395 6.73301 13.4404 6.68649C13.4409 6.66349 13.4424 6.64312 13.4443 6.6279C13.4452 6.62076 13.4467 6.61228 13.4492 6.60446C13.4504 6.60084 13.453 6.59381 13.458 6.58688C13.4625 6.58061 13.4759 6.5645 13.5 6.56442C13.509 6.56442 13.5195 6.56674 13.5273 6.56833ZM13.541 6.68844C13.5401 6.73157 13.5409 6.79226 13.5449 6.85934C13.5561 7.04703 13.5967 7.18689 13.6709 7.29782C13.7449 7.40853 13.856 7.4958 14.0195 7.57028C14.1306 7.62082 14.206 7.63088 14.5801 7.63083C14.6998 7.63081 14.8114 7.62874 14.8935 7.62497C14.9262 7.62347 14.9538 7.62093 14.9756 7.61911C14.9725 7.61346 14.9708 7.60631 14.9668 7.59958C14.9418 7.55735 14.9018 7.50119 14.8555 7.44137C14.7623 7.32125 14.646 7.19186 14.5664 7.12887C14.4786 7.05947 14.342 6.97015 14.2656 6.93161C14.2065 6.90185 14.0275 6.83486 13.8525 6.77438C13.7658 6.74439 13.6813 6.71665 13.6152 6.69626C13.5862 6.68729 13.5611 6.67925 13.541 6.67379C13.5408 6.67833 13.5411 6.68325 13.541 6.68844ZM11.0439 1.81344C10.9911 1.81345 10.9621 1.81849 10.9414 1.82711C10.9224 1.83508 10.9056 1.84868 10.8818 1.87887C10.854 1.91424 10.8371 1.95037 10.8301 1.9902C10.823 2.03051 10.8255 2.07784 10.8408 2.13571C10.8719 2.25313 10.9532 2.40692 11.0967 2.62301C11.3841 3.05597 11.7979 3.38218 12.2295 3.51852C12.3807 3.56631 12.6287 3.61039 12.8642 3.6318C12.9725 3.64166 13.0811 3.65605 13.1689 3.67086C13.2126 3.67823 13.2516 3.68584 13.2832 3.69333C13.3131 3.70043 13.3413 3.70847 13.3594 3.71774C13.4541 3.76656 13.5193 3.86434 13.5498 3.96774C13.5803 4.07131 13.5785 4.1896 13.5283 4.2861C13.5155 4.31076 13.4841 4.35281 13.4473 4.39743C13.4089 4.44377 13.3613 4.4982 13.3135 4.54879C13.2109 4.65737 13.1655 4.72702 13.1562 4.78317C13.148 4.83322 13.167 4.88438 13.2353 4.9609C13.2726 5.0026 13.296 5.02154 13.3193 5.03219C13.3425 5.04275 13.3716 5.04782 13.4258 5.04782C13.4851 5.0478 13.5106 5.04289 13.541 5.02438C13.5765 5.00271 13.6193 4.96057 13.7031 4.87106C13.9299 4.62897 14.0517 4.37827 14.0723 4.14059C14.0927 3.90402 14.014 3.67483 13.8301 3.4736C13.7258 3.35955 13.6371 3.29121 13.5176 3.24508C13.3957 3.19809 13.238 3.17302 12.9922 3.15426C12.6925 3.13138 12.4631 3.0889 12.2656 3.0068C12.0675 2.92442 11.9045 2.80335 11.7344 2.62985C11.632 2.52542 11.4854 2.32547 11.4062 2.18356C11.3071 2.00568 11.2501 1.91394 11.2002 1.8652C11.1769 1.8425 11.1557 1.83111 11.1338 1.82418C11.1108 1.81697 11.0832 1.81344 11.0439 1.81344ZM15.4531 16.8125C15.4531 16.8905 15.4342 16.9798 15.4082 17.0498C15.3952 17.0846 15.3797 17.1177 15.3623 17.1425C15.3537 17.1548 15.3431 17.1672 15.331 17.1767C15.3191 17.1861 15.3011 17.1963 15.2793 17.1963C15.2663 17.1963 15.2566 17.1912 15.2519 17.1884C15.2469 17.1854 15.2435 17.1819 15.2412 17.1797C15.2366 17.1751 15.2321 17.1707 15.2295 17.167C15.224 17.1593 15.2186 17.1492 15.2129 17.1386C15.2011 17.1169 15.1865 17.0859 15.1699 17.0498C15.1367 16.9773 15.0947 16.8788 15.0517 16.7734C14.9661 16.5633 14.8745 16.3214 14.8408 16.2021C14.8093 16.0903 14.7969 15.8835 14.7998 15.6777C14.8027 15.4708 14.8213 15.2545 14.8555 15.123C14.8854 15.0075 14.9634 14.8144 15.0556 14.6142C15.1482 14.4134 15.2568 14.2014 15.3506 14.0468C15.4136 13.9431 15.5762 13.7033 15.7119 13.5146C16.0511 13.0431 16.1717 12.8279 16.2949 12.4756C16.3545 12.305 16.4638 12.0077 16.5381 11.8144C16.8664 10.9604 17.2096 9.81596 17.2715 9.37399C17.2875 9.25972 17.2942 9.18739 17.292 9.11911C17.2898 9.05123 17.2786 8.98508 17.2558 8.88278C17.1328 8.3296 16.6245 7.85512 16.0332 7.74704C15.9211 7.72659 15.8108 7.70557 15.789 7.70016C15.7789 7.69761 15.771 7.69185 15.7676 7.68942C15.7635 7.68653 15.7599 7.68348 15.7568 7.68063C15.7505 7.67468 15.743 7.66707 15.7363 7.65915C15.7228 7.64315 15.7065 7.62092 15.6885 7.59567C15.652 7.54469 15.6068 7.47621 15.5615 7.40231C15.1678 6.76055 14.6525 6.37661 13.9228 6.18161C13.848 6.16161 13.7776 6.14205 13.7256 6.12692C13.6998 6.11943 13.678 6.11345 13.6621 6.10836C13.6542 6.10583 13.647 6.10351 13.6416 6.10153C13.639 6.10057 13.6364 6.09874 13.6338 6.09762C13.6338 6.09762 13.626 6.09444 13.6201 6.08981C13.604 6.07712 13.6006 6.0598 13.6006 6.04977C13.6006 6.04065 13.6033 6.03327 13.6045 6.03024C13.607 6.02374 13.6104 6.01838 13.6123 6.01559C13.6166 6.00917 13.6228 6.0022 13.6289 5.99508C13.6417 5.98021 13.6607 5.95984 13.6836 5.93649C13.7296 5.88957 13.7945 5.82631 13.8672 5.75876C14.616 5.06296 15.0295 3.94591 14.9121 2.93551C14.7225 1.30564 13.5945 0.162597 12.1133 0.0819973C11.9665 0.0740224 11.7472 0.0799127 11.6279 0.0946926C11.2215 0.145113 10.7948 0.306138 10.4531 0.539029C10.3782 0.590093 10.1659 0.7774 9.98143 0.956021C9.79603 1.13551 9.51848 1.3717 9.36327 1.48141C9.21189 1.58836 9.04103 1.73537 8.98338 1.80563C8.75835 2.08027 8.59605 2.57025 8.59374 2.99313C8.59274 3.18323 8.63341 3.434 8.69237 3.65133C8.72182 3.75984 8.7559 3.85893 8.79002 3.93649C8.807 3.97504 8.82373 4.00758 8.83983 4.03317C8.85636 4.05942 8.87101 4.07643 8.88182 4.08493C8.95907 4.14542 9.05365 4.15129 9.12889 4.11911C9.20405 4.08682 9.25814 4.01772 9.2578 3.9277C9.25771 3.90492 9.24985 3.85534 9.23534 3.79098C9.22119 3.72829 9.202 3.65569 9.18065 3.58883C9.10882 3.3639 9.08318 3.10923 9.10057 2.87204C9.11798 2.63545 9.17841 2.41136 9.28124 2.25094C9.38191 2.09398 9.52207 1.96852 9.83788 1.74508C9.97528 1.64779 10.2188 1.43545 10.3779 1.27438C10.5392 1.11113 10.7541 0.926872 10.8564 0.8652C11.3199 0.586066 11.9407 0.495324 12.4863 0.625943C13.3839 0.840876 14.0756 1.54359 14.3398 2.50192C14.3879 2.67636 14.4138 2.96277 14.417 3.24508C14.4202 3.52721 14.4014 3.81405 14.3574 3.9902C14.2878 4.26818 14.0963 4.68232 13.9131 4.95211C13.8212 5.08732 13.7115 5.22038 13.6172 5.31735C13.5702 5.36564 13.5257 5.40605 13.4883 5.43356C13.4697 5.4472 13.4511 5.45916 13.4336 5.46676C13.4188 5.47317 13.3926 5.48169 13.3662 5.47165C13.3662 5.47165 13.3571 5.46922 13.334 5.46579C13.3133 5.46272 13.2855 5.45959 13.2529 5.45602C13.1874 5.44886 13.1024 5.44075 13.0146 5.43454L12.7148 5.41305L12.4072 5.70504C12.1333 5.96429 12.0223 6.0453 11.7402 6.18551C11.5977 6.25638 11.5035 6.29929 11.4189 6.32614C11.3329 6.35342 11.2579 6.36342 11.1543 6.37008C10.9611 6.38248 10.8244 6.36866 10.7002 6.26168C10.5823 6.16007 10.4798 5.97738 10.333 5.67672C10.2932 5.59516 10.2512 5.51642 10.2158 5.45602C10.1981 5.42587 10.1827 5.40044 10.1699 5.3818C10.1635 5.3725 10.1575 5.36549 10.1533 5.36032C10.1507 5.35716 10.1484 5.35446 10.1484 5.35446C10.142 5.34963 10.1285 5.34261 10.1064 5.33688C10.085 5.33136 10.0587 5.32791 10.0312 5.32614C9.97498 5.32251 9.9194 5.32787 9.88573 5.34079C9.87991 5.34306 9.8687 5.35054 9.85448 5.36715C9.8409 5.38304 9.82691 5.4042 9.81444 5.42868C9.78896 5.47874 9.77247 5.5359 9.77245 5.57907C9.77245 5.57907 9.77285 5.58192 9.7744 5.58883C9.77593 5.59559 9.7788 5.60442 9.78221 5.6152C9.78913 5.63704 9.79939 5.66545 9.81249 5.69821C9.83863 5.76359 9.87538 5.84574 9.916 5.93161C9.99762 6.1041 10.094 6.28722 10.1562 6.37887C10.2408 6.50343 10.3595 6.62293 10.4785 6.7109C10.538 6.75484 10.597 6.79106 10.6504 6.8154C10.7043 6.83997 10.7499 6.85131 10.7842 6.85153C10.7908 6.85157 10.8007 6.85112 10.8086 6.85153C10.8165 6.85195 10.8298 6.85344 10.8428 6.85934C10.8579 6.86628 10.8699 6.87839 10.8769 6.8945C10.883 6.9086 10.884 6.92365 10.8838 6.93551C10.8834 6.95895 10.8781 6.99095 10.8691 7.03219C10.8599 7.07467 10.8461 7.13209 10.8281 7.20797C10.7938 7.35269 10.7594 7.45829 10.7168 7.53219C10.6727 7.60861 10.6178 7.65443 10.5449 7.67282C10.5217 7.67864 10.4987 7.68351 10.4678 7.68356C10.4378 7.68356 10.4014 7.67839 10.3496 7.66793C10.2464 7.64708 10.0685 7.60082 9.72655 7.51168C8.98127 7.31742 8.5147 7.33199 8.06932 7.55075C7.60172 7.78047 7.24413 8.28063 7.09276 8.93063C7.04653 9.12947 6.99695 9.59998 6.95116 10.209C6.90548 10.8165 6.86314 11.5575 6.83104 12.2939C6.79894 13.0304 6.77694 13.7621 6.77049 14.3506C6.76727 14.6446 6.768 14.9026 6.77342 15.1074C6.77888 15.3135 6.78892 15.4631 6.8037 15.541C6.87723 15.9282 7.1562 16.2966 7.48729 16.4482C7.64062 16.5184 8.07292 16.6528 9.16991 16.9716C9.29962 17.0094 9.4188 17.0461 9.50487 17.0752C9.54782 17.0896 9.5832 17.1032 9.60838 17.1132C9.62077 17.1182 9.63215 17.1225 9.64061 17.1269C9.64456 17.129 9.64947 17.1321 9.65428 17.1357C9.65662 17.1375 9.66106 17.1407 9.66502 17.1455C9.66818 17.1493 9.67674 17.1611 9.67674 17.1787C9.6767 17.1896 9.67284 17.2002 9.67284 17.2002C9.67139 17.2039 9.66952 17.2078 9.66795 17.2109C9.66481 17.2171 9.66093 17.2245 9.65624 17.2324C9.64645 17.2488 9.63183 17.2708 9.61522 17.2959C9.58195 17.3461 9.53632 17.4119 9.48631 17.4814C9.38719 17.6192 9.17446 17.9332 9.01366 18.1787C8.13397 19.5214 7.62978 20.6679 7.26659 22.1523C7.1914 22.4597 7.11552 22.8041 7.05858 23.0888C7.0301 23.2312 7.00679 23.359 6.99022 23.459C6.97339 23.5604 6.96483 23.6297 6.96483 23.6591C6.96484 23.8202 7.15067 23.9317 7.30565 23.8515C7.3364 23.8356 7.3551 23.8237 7.3701 23.8086C7.38465 23.7939 7.39886 23.7734 7.41307 23.7363C7.44271 23.6589 7.47003 23.5254 7.51854 23.2646C7.70734 22.2497 8.03165 21.1343 8.35838 20.3818C8.6564 19.6957 9.20507 18.7432 9.7412 17.9804C10.3543 17.108 10.5525 16.6382 10.5889 15.9922C10.6117 15.5866 10.5644 15.2315 10.4375 14.8486C10.2842 14.3863 9.89162 13.6942 9.41502 13.0498C9.19002 12.7455 9.0469 12.4516 8.99706 12.1836C8.90394 11.6822 9.17325 11.1621 9.63768 10.9453C9.71582 10.9088 9.77516 10.8865 9.85155 10.874C9.92616 10.8618 10.016 10.8598 10.1543 10.8603C10.3272 10.8609 10.4231 10.8628 10.6289 10.9209C10.8312 10.978 11.1433 11.0898 11.75 11.3086C12.0093 11.4021 12.1356 11.43 12.3418 11.4394C12.4724 11.4454 12.5394 11.4459 12.6338 11.4257C12.731 11.405 12.8578 11.3622 13.1055 11.2754C13.6681 11.0781 13.9662 10.974 14.167 10.9199C14.3709 10.8649 14.4769 10.8605 14.6533 10.8593C14.7931 10.8584 14.8823 10.8607 14.957 10.873C15.0335 10.8856 15.093 10.9085 15.1738 10.9463C15.6543 11.1711 15.9389 11.7291 15.8369 12.248C15.782 12.5272 15.682 12.7125 15.333 13.2021C14.9234 13.7766 14.822 13.9412 14.6289 14.3506C14.5115 14.5993 14.4385 14.782 14.3916 14.9599C14.3448 15.1375 14.324 15.3133 14.3135 15.5488C14.3004 15.8418 14.312 16.0652 14.3681 16.3105C14.4246 16.5569 14.5267 16.8277 14.6963 17.2148L14.8398 17.542L14.8564 17.582L14.8203 17.6045L14.7021 17.6777C13.9678 18.134 12.6574 18.5964 11.4082 18.8418C11.1823 18.8861 11.1157 18.9148 11.0586 18.9716C10.9591 19.0708 10.9587 19.2077 11.0537 19.3027C11.0914 19.3404 11.1074 19.3513 11.1299 19.3564C11.1579 19.3627 11.1998 19.3605 11.293 19.3515C11.4026 19.3409 11.6915 19.2797 12.0264 19.1982C12.3598 19.117 12.7344 19.0168 13.0117 18.9326C13.5679 18.7637 14.309 18.4618 14.6953 18.247C14.7894 18.1947 14.8772 18.1484 14.9424 18.1162C14.9748 18.1001 15.003 18.0867 15.0234 18.0781C15.0332 18.074 15.0429 18.0707 15.0508 18.0683C15.0544 18.0672 15.0597 18.0661 15.0654 18.0654C15.0683 18.0651 15.0739 18.0646 15.0801 18.0654L15.1103 18.08L15.1211 18.0947C15.1234 18.0985 15.1256 18.103 15.1279 18.1074C15.1327 18.1166 15.139 18.1286 15.1455 18.1425C15.1586 18.1706 15.1758 18.2087 15.1953 18.2539C15.2345 18.3448 15.2848 18.4658 15.3359 18.5918C15.4377 18.8425 15.5448 19.1183 15.5801 19.2275L15.6621 19.4824L15.6435 19.5029L15.4756 19.6982C15.2623 19.9443 14.797 20.336 14.457 20.5576C13.6799 21.0641 12.8242 21.404 11.4912 21.7382C11.3413 21.7758 11.1981 21.8156 11.0889 21.8496C11.0341 21.8666 10.9879 21.8828 10.9541 21.8955C10.9374 21.9018 10.9237 21.9067 10.914 21.9111C10.9033 21.9161 10.9023 21.917 10.9023 21.917C10.7857 22.0169 10.8082 22.2021 10.9678 22.2881L11.0693 22.3418L11.665 22.1923C12.8617 21.8914 13.7972 21.5397 14.4707 21.1386C14.8041 20.9401 15.2839 20.5867 15.5439 20.3486C15.582 20.3138 15.6122 20.2863 15.6357 20.2666C15.6579 20.248 15.6799 20.2317 15.7002 20.2236C15.7112 20.2192 15.7257 20.2149 15.7422 20.2177C15.7598 20.2208 15.7733 20.2302 15.7822 20.2402C15.7903 20.2492 15.7951 20.2596 15.7988 20.2675C15.8026 20.2758 15.8064 20.2853 15.8096 20.2939C15.8245 20.3343 15.8351 20.4116 15.8428 20.5029C15.8506 20.5971 15.8557 20.714 15.8584 20.8369C15.8636 21.0823 15.8583 21.3579 15.8389 21.54C15.7843 22.0503 15.6589 22.6325 15.4961 23.1328C15.4342 23.3229 15.4009 23.4312 15.3867 23.5029C15.3733 23.571 15.3785 23.601 15.3906 23.6357C15.4425 23.7845 15.6398 23.8424 15.7637 23.7451C15.7739 23.7371 15.7914 23.716 15.8135 23.6757C15.8346 23.6373 15.8572 23.5861 15.8818 23.5244C15.9311 23.4008 15.9854 23.2374 16.0381 23.0517C16.1434 22.6803 16.244 22.2225 16.2998 21.8222C16.332 21.5905 16.3438 21.2344 16.3369 20.8798C16.33 20.5248 16.3046 20.1753 16.2637 19.958L16.2051 19.6494L16.2021 19.6328L16.2099 19.6172L16.3555 19.332C16.4419 19.1629 16.4968 19.0258 16.5283 18.8886C16.5597 18.7517 16.5688 18.6121 16.5615 18.4375C16.5564 18.3154 16.5517 18.2527 16.54 18.2109C16.5298 18.1744 16.5145 18.1531 16.4775 18.1162C16.3714 18.0101 16.2102 18.0142 16.124 18.1142C16.0933 18.15 16.0798 18.1731 16.0713 18.2148C16.0617 18.2618 16.0592 18.3324 16.0586 18.4648L16.0566 18.7578L15.9609 18.7763L15.8555 18.5215C15.7979 18.3818 15.6987 18.1545 15.6348 18.0166C15.6037 17.9496 15.5786 17.897 15.5625 17.8554C15.5464 17.8138 15.5358 17.7752 15.54 17.7363C15.5444 17.6964 15.5636 17.6628 15.5889 17.6298C15.6135 17.5979 15.6491 17.5602 15.6924 17.5127C16.0792 17.0876 16.0535 16.4313 15.6435 16.0771C15.4833 15.9389 15.3374 15.8672 15.2256 15.8554C15.1705 15.8497 15.1253 15.8588 15.0898 15.8789C15.0547 15.8987 15.0249 15.9318 15.0039 15.9824C14.9498 16.1131 14.9888 16.2404 15.0928 16.3047C15.157 16.3444 15.2609 16.4346 15.3262 16.5068C15.3747 16.5606 15.4085 16.6035 15.4287 16.6513C15.4493 16.7001 15.4531 16.7496 15.4531 16.8125ZM9.29686 14.6865C9.29686 14.6865 9.30046 14.6926 9.31639 14.7011C9.35219 14.7203 9.42242 14.7422 9.56346 14.7822C9.64668 14.8058 9.72411 14.8254 9.78124 14.8379C9.78683 14.8391 9.7927 14.8397 9.79784 14.8408C9.79221 14.828 9.78646 14.8134 9.77928 14.7978C9.74671 14.7272 9.70018 14.6325 9.65038 14.5351C9.60073 14.4381 9.54773 14.3384 9.50194 14.2558C9.45734 14.1754 9.4202 14.1149 9.40038 14.0879C9.38287 14.1572 9.35844 14.2703 9.33788 14.3808C9.32564 14.4466 9.3146 14.5105 9.30663 14.5625C9.29842 14.616 9.29397 14.6529 9.29393 14.667C9.29393 14.6818 9.29686 14.6865 9.29686 14.6865ZM12.9531 6.59079C12.9507 6.87712 12.9512 7.03149 12.9599 7.13473C12.9684 7.23442 12.9843 7.28533 13.0166 7.3652C13.1775 7.76287 13.4338 8.00823 13.8223 8.13961C14.0103 8.2032 14.0649 8.20759 14.9883 8.20797H15.9726L15.9834 8.21286L16.1621 8.29684C16.5454 8.47661 16.7938 8.80597 16.7939 9.16012C16.7939 9.2608 16.7559 9.48765 16.7109 9.665C16.6267 9.99708 16.3454 10.9468 16.2812 11.1142L16.2451 11.207L16.2109 11.2968L16.1572 11.2177L16.0498 11.0576C15.8401 10.7463 15.5058 10.5109 15.1308 10.4111C15.0424 10.3876 14.8413 10.3671 14.6855 10.3672C14.2817 10.3673 13.934 10.4561 13.0478 10.792C12.7223 10.9153 12.5522 10.984 12.3398 10.9677C12.2343 10.9596 12.1201 10.931 11.9726 10.8818C11.8253 10.8327 11.6414 10.7616 11.3965 10.6679C10.6276 10.374 10.119 10.3017 9.69139 10.4131C8.92127 10.6138 8.45321 11.2848 8.50389 12.1259C8.52291 12.4414 8.5986 12.664 8.80077 12.998C8.83981 13.0625 8.87349 13.1132 8.89549 13.1611C8.91923 13.2128 8.93035 13.2638 8.92967 13.334C8.929 13.4018 8.91748 13.4888 8.89549 13.6132C8.87335 13.7385 8.83969 13.9059 8.79588 14.1338C8.76601 14.2892 8.73936 14.4478 8.71971 14.5771C8.69984 14.708 8.68847 14.805 8.68846 14.8418C8.68854 14.9376 8.70848 15.0121 8.7451 15.0683C8.78142 15.1239 8.83642 15.1669 8.91502 15.1953C9.03728 15.2393 9.2905 15.3158 9.52147 15.3818C9.63654 15.4147 9.74579 15.445 9.83006 15.4668C9.87214 15.4776 9.90772 15.4862 9.93456 15.4922C9.94803 15.4952 9.95955 15.4975 9.96776 15.499C9.97431 15.5001 9.9785 15.5009 9.9785 15.5009C9.99434 15.5009 10.0128 15.5021 10.0303 15.5097C10.0493 15.518 10.0641 15.5321 10.0742 15.5498C10.0833 15.5659 10.0878 15.5843 10.0908 15.6025C10.0939 15.6212 10.0956 15.6432 10.0967 15.6679C10.1033 15.8258 10.0958 16.0052 10.0771 16.1679C10.0585 16.3297 10.0283 16.4792 9.9912 16.5771C9.99045 16.5791 9.98818 16.5873 9.98631 16.5918C9.98386 16.5977 9.98008 16.6061 9.97362 16.6142C9.95809 16.6337 9.93607 16.642 9.91307 16.6445C9.89204 16.6467 9.86564 16.645 9.83397 16.6396C9.80147 16.6341 9.75925 16.6242 9.70409 16.6103C9.48383 16.555 9.03999 16.4237 8.13475 16.1562C7.89448 16.0852 7.73368 16.0262 7.61815 15.9531C7.4998 15.8781 7.43104 15.7892 7.36913 15.665L7.28417 15.4961L7.27928 15.4863V14.4355C7.27976 12.8647 7.35664 11.1013 7.48827 9.62887C7.51648 9.31344 7.54871 9.08895 7.60252 8.90329C7.65674 8.71629 7.73271 8.56915 7.84471 8.40524C7.97022 8.22159 8.09353 8.09334 8.2451 8.00973C8.39669 7.92612 8.57214 7.88982 8.79588 7.88083C8.95835 7.87431 9.07118 7.87536 9.22752 7.90133C9.38225 7.92705 9.5795 7.97713 9.91112 8.0654C10.1487 8.12864 10.3236 8.1581 10.4717 8.15524C10.6182 8.1524 10.7411 8.11777 10.874 8.04977C10.9912 7.98979 11.0665 7.92674 11.1289 7.8193C11.1932 7.7085 11.2448 7.54812 11.3076 7.29001L11.4072 6.88083L11.414 6.85543L11.4385 6.84665L11.5693 6.79586C11.8041 6.70574 12.0928 6.55258 12.3349 6.3984C12.456 6.32132 12.5645 6.24398 12.6484 6.17575C12.7343 6.10591 12.7883 6.04972 12.8076 6.01364C12.8174 5.99536 12.8282 5.9781 12.8379 5.96481C12.8425 5.95846 12.848 5.95182 12.8535 5.94626C12.8562 5.94358 12.8604 5.93975 12.8652 5.93649C12.8686 5.93421 12.8804 5.92674 12.8965 5.92672L12.9238 5.93454C12.9304 5.93885 12.9346 5.94376 12.9365 5.94626C12.9408 5.95202 12.9435 5.95784 12.9443 5.95993C12.946 5.9646 12.9473 5.97067 12.9473 5.97067C12.948 5.97502 12.9478 5.97997 12.9482 5.98434C12.949 5.9938 12.9506 6.00761 12.9512 6.0234C12.9523 6.05521 12.9525 6.10068 12.9531 6.15622C12.9544 6.26789 12.9545 6.4218 12.9531 6.59079ZM9.35741 3.9277C9.35777 4.06249 9.27601 4.16483 9.16893 4.2109C9.06192 4.25687 8.92729 4.24798 8.81932 4.16305C8.79569 4.14441 8.77406 4.11734 8.75487 4.08688C8.7353 4.0558 8.71656 4.01819 8.69823 3.97653C8.66152 3.8931 8.626 3.78939 8.59569 3.6777C8.53521 3.4548 8.49205 3.19423 8.49315 2.99215C8.4956 2.55063 8.66338 2.03749 8.90526 1.74215C8.97152 1.66131 9.15127 1.50778 9.30467 1.39938C9.45432 1.29366 9.72804 1.06194 9.91112 0.884732C10.0949 0.706799 10.3132 0.51391 10.3965 0.456997C10.7511 0.215252 11.1929 0.0475317 11.6152 -0.00491678C11.7415 -0.0205686 11.9675 -0.0258801 12.1191 -0.0176121L12.4023 0.0107082C13.797 0.216038 14.8286 1.35777 15.0107 2.92477C15.1317 3.96697 14.7066 5.11475 13.9346 5.832C13.8626 5.89889 13.7995 5.96132 13.7549 6.0068C13.7483 6.01349 13.7419 6.0195 13.7363 6.02536C13.7419 6.02702 13.7477 6.02941 13.7539 6.03122C13.805 6.04608 13.874 6.06508 13.9482 6.08493C14.7025 6.28647 15.2393 6.686 15.6465 7.34958C15.691 7.42213 15.7346 7.48935 15.7695 7.53805C15.787 7.56251 15.8024 7.58161 15.8135 7.59469C15.8166 7.59835 15.8192 7.60123 15.8213 7.60348C15.8518 7.61006 15.9476 7.62958 16.0508 7.6484C16.6789 7.76303 17.2209 8.26526 17.3535 8.86032C17.3767 8.96447 17.3901 9.03856 17.3926 9.11618C17.395 9.19346 17.3872 9.27268 17.3711 9.38766C17.3076 9.84143 16.9607 10.995 16.6318 11.8506C16.5578 12.0432 16.4479 12.3394 16.3887 12.5088C16.2611 12.8737 16.1352 13.0975 15.793 13.5732C15.6576 13.7613 15.4974 13.9983 15.4365 14.0986C15.3453 14.2488 15.2381 14.4573 15.1465 14.6562C15.0544 14.856 14.9797 15.0423 14.9521 15.1484C14.9212 15.268 14.9022 15.474 14.8994 15.6787C14.898 15.7772 14.9005 15.8733 14.9062 15.957C14.9078 15.9528 14.9094 15.9485 14.9111 15.9443C14.9394 15.8761 14.9835 15.8244 15.041 15.792C15.0982 15.7597 15.1652 15.7484 15.2363 15.7558C15.3769 15.7707 15.5408 15.8567 15.708 16.0009C16.1645 16.3948 16.1882 17.1167 15.7666 17.58C15.7207 17.6305 15.6892 17.6636 15.668 17.6914C15.6475 17.7181 15.6412 17.7336 15.6396 17.747C15.638 17.7615 15.6408 17.7818 15.6553 17.8193C15.6698 17.8569 15.6932 17.9049 15.7256 17.9746C15.7902 18.1138 15.8902 18.3424 15.9482 18.4834L15.957 18.5058L15.958 18.4638C15.9586 18.3342 15.9617 18.2529 15.9736 18.1943C15.9866 18.1306 16.0113 18.0934 16.0488 18.0498C16.1774 17.9004 16.4055 17.9036 16.5478 18.0459C16.59 18.088 16.6188 18.124 16.6357 18.1845C16.6511 18.2398 16.6562 18.3151 16.6611 18.4336C16.6686 18.614 16.66 18.763 16.626 18.9111C16.592 19.0592 16.5329 19.2046 16.4443 19.3779L16.3066 19.6465L16.3613 19.9394C16.4038 20.165 16.4296 20.5212 16.4365 20.8779C16.4434 21.2344 16.4317 21.5965 16.3984 21.8359C16.3419 22.2413 16.2402 22.7038 16.1338 23.0791C16.0806 23.2665 16.0256 23.4336 15.9746 23.5615C15.9492 23.6253 15.9242 23.6802 15.9004 23.7236C15.8774 23.7654 15.8533 23.8028 15.8262 23.8242C15.6484 23.9641 15.3704 23.8824 15.2959 23.6689C15.2769 23.6146 15.2728 23.5659 15.289 23.4834C15.3047 23.4045 15.34 23.29 15.4014 23.1015C15.5621 22.6077 15.6854 22.0325 15.7392 21.5293C15.7581 21.3533 15.764 21.0825 15.7588 20.8388C15.7562 20.7173 15.7508 20.6032 15.7431 20.5117C15.7355 20.4202 15.725 20.3579 15.7158 20.331C15.7115 20.3344 15.706 20.3378 15.7002 20.3427C15.6786 20.3608 15.6499 20.3865 15.6113 20.4218C15.3458 20.665 14.8603 21.0228 14.5215 21.2246C13.8363 21.6325 12.8908 21.9879 11.6894 22.29L11.0742 22.4443L11.0556 22.4492L11.0381 22.4394L10.9199 22.3759C10.7099 22.2628 10.6583 21.9945 10.8379 21.8408C10.8478 21.8324 10.8619 21.8254 10.873 21.8203C10.8856 21.8145 10.9012 21.8084 10.9189 21.8017C10.9553 21.7881 11.0039 21.7721 11.0596 21.7548C11.1709 21.7202 11.3155 21.6795 11.4668 21.6416C12.794 21.3087 13.6388 20.972 14.4033 20.4736C14.7372 20.2559 15.1935 19.8703 15.3994 19.6328L15.5488 19.458L15.4853 19.2588C15.4516 19.154 15.3455 18.8809 15.2431 18.6289C15.1922 18.5034 15.1423 18.3839 15.1035 18.2939C15.0841 18.2488 15.0672 18.2113 15.0547 18.1845C15.0532 18.1813 15.0511 18.1786 15.0498 18.1757C15.0334 18.183 15.0125 18.1936 14.9873 18.206C14.9239 18.2374 14.8373 18.2821 14.7441 18.334C14.3501 18.5531 13.6013 18.8579 13.04 19.0283C12.7604 19.1132 12.3843 19.2134 12.0498 19.2949C11.7173 19.3759 11.421 19.4397 11.3027 19.4511C11.2147 19.4596 11.1545 19.4648 11.1074 19.4541C11.0548 19.4421 11.022 19.4116 10.9834 19.373C10.8477 19.2373 10.8512 19.038 10.9883 18.9013C11.0691 18.8208 11.1633 18.7884 11.3887 18.7441C12.6313 18.5001 13.929 18.0404 14.6494 17.5927L14.7305 17.542L14.6045 17.2548C14.4344 16.8666 14.3291 16.5888 14.2705 16.333C14.2116 16.0761 14.1995 15.8428 14.2129 15.5439C14.2236 15.3046 14.2456 15.1215 14.2949 14.9345C14.3441 14.7479 14.4208 14.5593 14.539 14.3086C14.7357 13.8916 14.8395 13.7206 15.251 13.1435C15.5993 12.6549 15.6878 12.485 15.7383 12.2285C15.8313 11.755 15.5708 11.2426 15.1318 11.0371C15.0543 11.0008 15.0044 10.9821 14.9414 10.9716C14.8764 10.9609 14.7949 10.959 14.6543 10.9599C14.4826 10.9611 14.3853 10.9646 14.1924 11.0166C13.9962 11.0695 13.7026 11.1714 13.1387 11.3691C12.8935 11.4551 12.7593 11.502 12.6543 11.5244C12.5467 11.5473 12.4688 11.545 12.3379 11.539C12.119 11.5291 11.9826 11.4991 11.7168 11.4033C11.1082 11.1838 10.8006 11.0735 10.6025 11.0175C10.4084 10.9628 10.3219 10.9605 10.1533 10.9599C10.0149 10.9594 9.93335 10.962 9.86815 10.9726C9.80473 10.983 9.75476 11.0015 9.68065 11.0361C9.25716 11.2337 9.01109 11.7089 9.09569 12.165C9.14184 12.4131 9.27557 12.6933 9.4951 12.9902C9.97454 13.6385 10.3741 14.3397 10.5322 14.8164C10.6632 15.2115 10.712 15.5798 10.6885 15.998C10.6505 16.6708 10.441 17.159 9.82323 18.0381C9.29012 18.7966 8.74495 19.7423 8.45018 20.4209C8.12708 21.1649 7.80401 22.2728 7.6162 23.2822C7.56845 23.5388 7.53962 23.6843 7.50585 23.7724C7.48838 23.8179 7.4684 23.8516 7.44139 23.8789C7.41484 23.9057 7.38423 23.9235 7.35155 23.9404C7.13608 24.0518 6.86425 23.9019 6.86424 23.6591C6.86424 23.6198 6.87506 23.542 6.89159 23.4423C6.9084 23.341 6.93232 23.2123 6.96092 23.0693C7.01812 22.7834 7.09437 22.4377 7.16991 22.1289C7.53592 20.6329 8.0441 19.4757 8.92967 18.124C9.09069 17.8782 9.30479 17.5634 9.40526 17.4238C9.45486 17.3549 9.49978 17.2892 9.53221 17.2402C9.54215 17.2252 9.55041 17.2116 9.5576 17.2002C9.53595 17.1919 9.50706 17.1815 9.47264 17.1699C9.3882 17.1414 9.27138 17.1048 9.14256 17.0673C8.05081 16.7501 7.6085 16.6132 7.44627 16.539C7.08327 16.3728 6.78513 15.976 6.70604 15.5595C6.68955 15.4726 6.67925 15.3157 6.67381 15.1103C6.66834 14.9037 6.66766 14.6443 6.67088 14.3496C6.67734 13.7599 6.6993 13.0271 6.73143 12.29C6.76357 11.5527 6.80576 10.81 6.85155 10.2011C6.8972 9.5941 6.94675 9.11484 6.9951 8.90719C7.15141 8.23625 7.52417 7.70711 8.02538 7.4609C8.50091 7.22737 8.99499 7.2177 9.75194 7.41501C10.0953 7.50452 10.2694 7.55012 10.3691 7.57028C10.4188 7.58031 10.4478 7.58395 10.4678 7.58395C10.4862 7.58391 10.4995 7.58043 10.5205 7.57516C10.5621 7.56462 10.5965 7.54018 10.6299 7.48239C10.6648 7.42182 10.6964 7.32809 10.7305 7.18454C10.7486 7.10798 10.7625 7.05198 10.7715 7.01071C10.7773 6.9837 10.7784 6.96441 10.7803 6.95114C10.7272 6.95011 10.6684 6.93307 10.6094 6.90622C10.5484 6.87842 10.4835 6.8389 10.4199 6.79196C10.2927 6.69801 10.1649 6.57058 10.0732 6.43551C10.0064 6.33708 9.90712 6.14774 9.82518 5.97458C9.78402 5.88758 9.74686 5.80322 9.71971 5.73532C9.70616 5.70142 9.69446 5.67057 9.68651 5.64547C9.67928 5.62263 9.67284 5.59803 9.67284 5.57907C9.67286 5.51542 9.69548 5.4429 9.72557 5.38376C9.74085 5.35374 9.75843 5.32494 9.77831 5.30172C9.79749 5.27932 9.82169 5.25781 9.8496 5.24704C9.90218 5.22686 9.97465 5.22243 10.0381 5.22653C10.0703 5.22863 10.1023 5.23286 10.1308 5.2402C10.1586 5.24735 10.1873 5.25809 10.209 5.27438C10.2174 5.28078 10.2245 5.28959 10.2305 5.29684C10.237 5.30488 10.2446 5.3145 10.2519 5.32516C10.2666 5.34647 10.2834 5.37398 10.3017 5.40524C10.3386 5.46813 10.3821 5.54924 10.4228 5.63278C10.5718 5.93789 10.6662 6.09979 10.7656 6.18551C10.8588 6.26579 10.961 6.28241 11.1474 6.27047C11.2473 6.26405 11.3136 6.25422 11.3887 6.23043C11.4649 6.20621 11.5526 6.1666 11.6953 6.09567C11.9669 5.96066 12.0707 5.88657 12.3389 5.63278L12.6631 5.32614L12.6787 5.31051L12.7002 5.31247L13.0215 5.33493C13.1103 5.34122 13.1966 5.34909 13.2637 5.35641C13.297 5.36006 13.3261 5.36382 13.3486 5.36715C13.3683 5.37008 13.389 5.37326 13.4014 5.3779C13.3895 5.37354 13.3837 5.37916 13.3935 5.37497C13.4012 5.37165 13.4132 5.36487 13.4287 5.35348C13.4598 5.3306 13.4997 5.2935 13.5449 5.24704C13.635 5.15435 13.7414 5.02604 13.8301 4.89547C13.8428 4.87675 13.8534 4.85597 13.8662 4.8359C13.838 4.87059 13.8083 4.9053 13.7764 4.93942C13.6957 5.02555 13.6433 5.08003 13.5937 5.11032C13.5391 5.14365 13.4897 5.14741 13.4258 5.14743C13.3683 5.14743 13.3216 5.1427 13.2783 5.12301C13.2352 5.10338 13.2003 5.0712 13.1611 5.02731C13.0865 4.94378 13.0421 4.86296 13.0576 4.76754C13.0723 4.67809 13.138 4.58761 13.2402 4.47946C13.2866 4.43042 13.3332 4.37853 13.3701 4.33395C13.4083 4.28772 13.4333 4.25384 13.4404 4.2402C13.4759 4.17193 13.4791 4.08105 13.4541 3.99606C13.4289 3.91074 13.3773 3.83951 13.3135 3.80661C13.3073 3.80353 13.2905 3.79807 13.2607 3.79098C13.232 3.78415 13.1948 3.77667 13.1523 3.7695C13.0673 3.75516 12.9614 3.74106 12.8555 3.73141C12.6157 3.70961 12.3596 3.66394 12.1992 3.61325C11.743 3.46902 11.3108 3.12784 11.0127 2.67868C10.8687 2.4617 10.7798 2.29564 10.7441 2.1611C10.7262 2.09318 10.7214 2.03138 10.7314 1.9736C10.7416 1.91542 10.7661 1.86398 10.8027 1.81735C10.8317 1.78043 10.8619 1.75159 10.9033 1.73434C10.943 1.71788 10.9885 1.71384 11.0439 1.71383C11.0866 1.71383 11.1264 1.71663 11.164 1.72848C11.2028 1.74072 11.2366 1.76188 11.2695 1.79391C11.3321 1.85495 11.3963 1.96107 11.4931 2.13473C11.5685 2.26982 11.7102 2.46217 11.8056 2.55954C11.9691 2.72631 12.1219 2.83805 12.3047 2.91403C12.4882 2.99024 12.7053 3.03216 13 3.05465C13.2468 3.07349 13.4171 3.09868 13.5537 3.15133C13.6923 3.2048 13.7927 3.28527 13.9033 3.40622C14.1044 3.62623 14.195 3.88251 14.1719 4.14938C14.1681 4.19235 14.1599 4.23513 14.1504 4.27829C14.1966 4.1653 14.2368 4.05842 14.2598 3.96676C14.3007 3.80345 14.3196 3.52622 14.3164 3.24606C14.3132 2.96624 14.2886 2.69095 14.2441 2.52926C13.9887 1.60225 13.3217 0.928275 12.4629 0.722622C11.9417 0.597935 11.3482 0.686174 10.9082 0.951138C10.817 1.00608 10.6093 1.18262 10.4492 1.34469C10.2871 1.50876 10.0389 1.72562 9.89549 1.82711C9.58067 2.04986 9.45461 2.16528 9.36522 2.30465C9.27436 2.44637 9.21686 2.65221 9.20018 2.87887C9.18355 3.10492 9.20783 3.34701 9.27538 3.55856C9.29766 3.62833 9.31822 3.70401 9.33299 3.7695C9.34736 3.83323 9.35727 3.89271 9.35741 3.9277Z" fill="#6281AA"/>
</g>
<defs>
<clipPath id="clip0_128_95">
<rect width="24" height="24" fill="white"/>
</clipPath>
</defs>
</svg>
