<svg width="24" height="24" viewBox="0 0 24 24" fill="none" xmlns="http://www.w3.org/2000/svg">
<g clip-path="url(#clip0_128_1533)">
<path fill-rule="evenodd" clip-rule="evenodd" d="M12.5439 0.0463283C12.3983 0.0702275 12.3015 0.125016 12.2587 0.207887C12.1973 0.326546 12.2045 0.398452 12.2873 0.494766C12.3586 0.577606 12.3636 0.578622 12.7131 0.580324C13.0064 0.581729 13.0902 0.592752 13.205 0.644912C13.5755 0.813401 13.7971 1.2581 13.7981 1.83533C13.7989 2.27728 13.6459 2.62164 13.2819 2.99715C13.1538 3.12926 13.0224 3.28783 12.99 3.34949C12.9567 3.41267 12.9062 3.62295 12.8742 3.83126C12.8103 4.24753 12.8253 4.39477 12.9484 4.55603C13.0256 4.65728 13.5013 4.99637 13.6844 5.08074C13.8371 5.15106 13.961 5.36442 13.9401 5.52078C13.9316 5.58376 13.8304 5.84187 13.7152 6.09433C13.234 7.14891 12.8743 8.12815 12.9127 8.27934C12.9455 8.4086 13.0358 8.48024 13.166 8.48024C13.3279 8.48024 13.3827 8.40481 13.5133 8.00226C13.6639 7.53808 13.8493 7.07422 14.1342 6.44881C14.2651 6.16128 14.3919 5.87225 14.4158 5.80653C14.4807 5.62842 14.4711 5.28209 14.3965 5.11357C14.274 4.83661 13.9893 4.57444 13.7372 4.50659C13.6769 4.49034 13.5645 4.41835 13.4874 4.34659C13.3762 4.24302 13.3506 4.20146 13.3632 4.145C13.3719 4.10586 13.3928 3.96829 13.4097 3.8393C13.4423 3.58961 13.4907 3.49482 13.6569 3.35498C13.8031 3.23196 14.0131 2.95808 14.1128 2.76034L14.2019 2.58367L14.2168 2.83105C14.2304 3.05609 14.2393 3.08492 14.3156 3.15044C14.4067 3.22874 14.5018 3.24104 14.6154 3.18927C14.7368 3.13395 14.7631 3.04558 14.7493 2.73955C14.7354 2.42964 14.6637 2.23062 14.4722 1.9697C14.3673 1.82684 14.3465 1.76103 14.2655 1.31561C14.2002 0.956437 14.078 0.717356 13.836 0.475377C13.7248 0.364246 13.5618 0.236775 13.4737 0.192113C13.2141 0.0605485 12.827 -0.000155456 12.5439 0.0463283ZM11.4983 0.285589C10.9606 0.375838 10.593 0.834193 10.4357 1.61076C10.3668 1.95031 10.3889 2.52386 10.4822 2.81913C10.5809 3.13141 10.7752 3.48813 10.8836 3.55606C11.0614 3.66749 11.2747 3.5739 11.3078 3.36986C11.3217 3.28436 11.3053 3.23913 11.2111 3.10279C11.0239 2.83162 10.9541 2.60258 10.9382 2.20672C10.9218 1.79837 10.992 1.44302 11.1463 1.15349C11.2568 0.946041 11.3878 0.846322 11.6035 0.805215C11.8183 0.764318 11.8538 0.745736 11.9046 0.647481C11.9633 0.53393 11.9354 0.40359 11.8355 0.325022C11.7626 0.267664 11.6698 0.25679 11.4983 0.285589ZM11.8469 3.76151C11.765 3.82595 11.7079 3.98051 11.7076 4.1384C11.7074 4.2429 11.8462 4.38752 11.9468 4.38752C12.1265 4.38752 12.2274 4.26677 12.2614 4.01084C12.279 3.87739 12.2733 3.85621 12.1992 3.78209C12.0994 3.68228 11.9581 3.67404 11.8469 3.76151ZM11.0656 4.06049C10.6006 4.11554 10.3774 4.21762 10.0869 4.50812C9.90478 4.69029 9.8851 4.72163 9.8851 4.82989C9.8851 4.92713 9.90248 4.96444 9.97702 5.02715C10.1235 5.1504 10.2156 5.12471 10.4499 4.89528C10.5374 4.80966 10.6677 4.71359 10.7396 4.6818C10.8399 4.63744 11.2232 4.56894 11.3822 4.567C11.3923 4.56685 11.436 4.53133 11.4793 4.48801C11.5798 4.38752 11.5846 4.24128 11.4908 4.13636C11.4073 4.04292 11.3302 4.02918 11.0656 4.06049ZM11.573 5.33249C11.5401 5.34091 11.3519 5.3971 11.1547 5.45736C10.6975 5.59705 10.4584 5.60317 10.116 5.48386C9.90395 5.40998 9.87524 5.40654 9.78505 5.44424C9.72676 5.46859 9.67165 5.52069 9.65065 5.57133C9.63105 5.61853 9.56742 5.68969 9.50925 5.72945C9.33425 5.8491 9.14539 6.08277 9.07752 6.26354C9.027 6.39818 9.01571 6.48398 9.02365 6.67287C9.03599 6.96674 9.12322 7.16247 9.35719 7.42139C9.65333 7.74908 9.68584 7.87804 9.75114 8.98394C9.77671 9.41709 9.82323 9.92124 9.85453 10.1043C9.9118 10.4394 10.053 10.8946 10.1537 11.0686L10.208 11.1626L9.87649 11.457C9.69417 11.6189 9.19423 12.101 8.76548 12.5282C7.57826 13.7111 7.22172 14.1382 7.10294 14.5198C7.03593 14.7351 7.03336 14.838 7.08965 15.0537C7.16287 15.3341 9.08657 19.1673 9.51033 19.8771C9.71634 20.2222 9.91927 20.5347 9.96133 20.5717C10.0988 20.6926 10.2781 20.6468 10.3511 20.4722C10.4038 20.3461 10.3838 20.2911 10.1391 19.8897C9.71673 19.1966 9.44476 18.68 8.54489 16.8617C7.82036 15.3978 7.58495 14.8957 7.58546 14.8154C7.58627 14.683 7.66824 14.4989 7.80901 14.3134C8.22787 13.7613 10.0936 11.9246 10.9904 11.1816C11.8825 10.4425 12.2326 10.3016 12.8124 10.4483C13.4758 10.616 13.752 10.9856 13.7532 11.7072C13.7537 12.005 13.7485 12.0322 13.6516 12.229C13.5227 12.4909 13.2261 12.792 12.8576 13.0351C12.1877 13.4768 10.9899 13.9924 9.56533 14.4523C9.29909 14.5382 9.04719 14.6353 9.00558 14.6681C8.915 14.7393 8.86819 14.8896 8.90511 14.9905C8.91969 15.0304 8.97774 15.114 9.03405 15.1764C9.09039 15.2387 9.17912 15.3742 9.23122 15.4773C9.35821 15.7288 9.58456 16.4293 9.71658 16.9794C10.0675 18.4414 10.1269 18.6603 10.2287 18.867C10.3497 19.1124 10.5239 19.2837 10.7888 19.4177C10.9231 19.4856 10.9606 19.5196 10.9606 19.5735C10.9606 19.6114 10.9047 19.7893 10.8364 19.9689C10.7154 20.2869 10.7116 20.3078 10.6915 20.7734C10.6801 21.0362 10.6563 21.2849 10.6385 21.326C10.6207 21.3671 10.5582 21.4669 10.4996 21.5479C10.3312 21.7803 10.3705 21.9894 10.5903 22.0306C10.7295 22.0567 10.8197 22.0123 10.9265 21.8648C11.0291 21.7232 11.0498 21.7471 11.0509 22.0081C11.0519 22.2418 11.0951 22.4068 11.1715 22.4687C11.2628 22.5426 11.4187 22.5352 11.515 22.4523L11.5949 22.3836L11.5503 21.1344L11.4635 21.0477C11.3992 20.9833 11.357 20.9647 11.3 20.9756L11.2232 20.9903L11.2369 20.6578C11.2493 20.3572 11.2614 20.2994 11.3632 20.0564C11.5061 19.7148 11.5321 19.4777 11.4451 19.3079C11.3692 19.1599 11.299 19.0981 11.0275 18.94C10.7076 18.7536 10.6782 18.6897 10.4209 17.6217C10.0587 16.118 9.91375 15.6378 9.69489 15.2168C9.64366 15.1182 9.59759 15.0288 9.59254 15.0181C9.58749 15.0075 9.73528 14.9484 9.92095 14.8868C10.7234 14.6209 11.7152 14.2348 12.2467 13.9816C12.3782 13.9189 12.482 13.876 12.4775 13.8861C12.4729 13.8962 12.3262 14.1863 12.1515 14.5308C11.9767 14.8752 11.7419 15.3654 11.6298 15.6201C11.372 16.2055 11.3601 16.317 11.494 16.8897C11.71 17.8137 11.7668 18.366 11.7875 19.7427C11.8031 20.7811 11.8068 20.8362 11.8639 20.8988C11.9763 21.0215 12.1649 21.013 12.2666 20.8805C12.2935 20.8454 12.3032 20.568 12.3039 19.8143C12.3052 18.3963 12.2498 17.8041 12.0219 16.8019C11.919 16.349 11.9177 16.3356 11.9645 16.196C12.09 15.8212 12.7212 14.5279 13.1469 13.7734C13.3582 13.399 13.4335 13.2955 13.6611 13.0669C14.0952 12.6308 14.2602 12.3116 14.2979 11.8345C14.3255 11.4848 14.2278 10.9839 14.069 10.661C13.8572 10.2305 13.6627 9.98714 12.9583 9.271C12.3149 8.61685 12.2959 8.58662 12.3652 8.32815C12.3846 8.25571 12.5202 7.91765 12.6666 7.57691C12.9644 6.88366 13.0056 6.73656 12.9846 6.44317C12.9568 6.05379 12.669 5.62961 12.299 5.43235C12.1368 5.3459 12.0776 5.33096 11.8717 5.32457C11.7403 5.32048 11.6058 5.32403 11.573 5.33249ZM11.31 5.95557C10.7716 6.12949 10.5357 6.14772 10.1337 6.04644L9.97902 6.00749L9.8117 6.15665C9.60933 6.337 9.54958 6.44463 9.54958 6.62877C9.54958 6.79903 9.58522 6.8724 9.75234 7.04629C9.82338 7.12023 9.92994 7.26138 9.98909 7.35997C10.1785 7.67559 10.228 7.92246 10.273 8.77683C10.3285 9.82923 10.3798 10.1787 10.5417 10.6088C10.5773 10.7032 10.6178 10.7805 10.6317 10.7805C10.6456 10.7805 10.7421 10.7091 10.8461 10.6217C11.3038 10.2374 11.6078 10.0539 11.9687 9.9443C12.1469 9.89017 12.24 9.88073 12.5118 9.88912L12.8397 9.89925L12.4269 9.49595C12.1979 9.27214 11.9758 9.02619 11.928 8.94328C11.8496 8.8073 11.8418 8.76846 11.8418 8.51011C11.8418 8.17116 11.8601 8.1107 12.203 7.31343C12.425 6.79708 12.4543 6.70839 12.4543 6.55033C12.4543 6.4014 12.438 6.34464 12.3572 6.21096C12.1271 5.8306 11.882 5.7708 11.31 5.95557ZM15.6508 9.69324C15.5933 9.73441 15.3743 9.86977 15.1642 9.99407C14.732 10.2498 14.6676 10.3238 14.7252 10.4985C14.7645 10.6174 14.8552 10.6909 14.9629 10.6909C15.0501 10.6908 15.8872 10.2042 16.0317 10.0695C16.1549 9.95473 16.164 9.81154 16.0555 9.69449C15.9584 9.58973 15.796 9.58922 15.6508 9.69324ZM15.0639 11.1976C14.8992 11.2665 14.8533 11.4939 14.9772 11.6276L15.0504 11.7066H16.2378L16.3088 11.6311C16.4087 11.5247 16.4044 11.3712 16.2984 11.2652L16.2171 11.1838L15.6726 11.1773C15.373 11.1737 15.0992 11.1828 15.0639 11.1976ZM12.576 21.3137C12.4952 21.3818 12.4841 21.4097 12.4841 21.546C12.4841 21.6786 12.464 21.7332 12.3449 21.9243C12.1709 22.2032 12.1001 22.357 11.9466 22.7892C11.8796 22.9778 11.805 23.1624 11.7808 23.1994C11.7108 23.3062 11.5614 23.3656 11.306 23.3883C11.0992 23.4066 11.0599 23.4196 10.9998 23.4896C10.9028 23.6024 10.907 23.7566 11.0097 23.8518C11.2312 24.057 12.026 23.8336 12.2176 23.5123C12.2536 23.4518 12.3553 23.209 12.4434 22.9728C12.5315 22.7365 12.6528 22.4542 12.7129 22.3454C12.9806 21.8606 13.0219 21.7664 13.0219 21.6406C13.0219 21.4582 12.9684 21.3308 12.8707 21.2803C12.7497 21.2177 12.6809 21.2255 12.576 21.3137Z" fill="#6281AA"/>
<path d="M12.4338 21.5464C12.4338 21.4795 12.4366 21.4289 12.4533 21.3863C12.4711 21.3414 12.503 21.3106 12.5441 21.2759C12.5994 21.2295 12.6522 21.1978 12.7121 21.191C12.772 21.1843 12.8301 21.2029 12.8938 21.2359C13.017 21.2996 13.0714 21.4524 13.0715 21.6402C13.0715 21.7116 13.0597 21.774 13.0139 21.8785C12.969 21.9809 12.8906 22.1278 12.757 22.3697C12.6988 22.4751 12.5784 22.7541 12.4904 22.9898C12.4462 23.1085 12.3978 23.2293 12.3566 23.3277C12.3162 23.4242 12.2812 23.5036 12.2609 23.5377C12.2071 23.6279 12.1136 23.7079 12.0051 23.773C11.8959 23.8385 11.7667 23.8911 11.6379 23.9273C11.5094 23.9634 11.3786 23.9831 11.2639 23.98C11.1509 23.977 11.0445 23.9519 10.9758 23.8882C10.8515 23.773 10.8494 23.5876 10.9621 23.4566C10.9958 23.4175 11.0279 23.3896 11.0822 23.3716C11.1319 23.3552 11.1999 23.3475 11.302 23.3384C11.5551 23.3159 11.6821 23.2578 11.7385 23.1724C11.7421 23.1669 11.7503 23.1514 11.7619 23.1255C11.773 23.101 11.7862 23.0694 11.801 23.0328C11.8307 22.9592 11.8663 22.8657 11.8996 22.772C12.0537 22.338 12.1265 22.1809 12.3029 21.898C12.3626 21.8022 12.3944 21.7445 12.4123 21.6959C12.4293 21.6495 12.4338 21.6093 12.4338 21.5464ZM10.9074 19.5572C10.9053 19.5528 10.9013 19.5462 10.8918 19.5377C10.8712 19.519 10.8332 19.4965 10.7658 19.4625C10.4923 19.324 10.3099 19.1451 10.1838 18.8892C10.0788 18.6762 10.0182 18.4491 9.66817 16.9908C9.53634 16.4415 9.31097 15.7456 9.18672 15.4996C9.13593 15.399 9.04971 15.2676 8.99727 15.2095C8.96757 15.1766 8.93776 15.1384 8.91329 15.1031C8.88965 15.069 8.86824 15.0337 8.8586 15.0074C8.8354 14.9439 8.83893 14.8696 8.85958 14.8033C8.88032 14.7367 8.91996 14.6716 8.97481 14.6285C8.99095 14.6159 9.02049 14.602 9.05293 14.5875C9.08756 14.572 9.13183 14.5534 9.18282 14.5337C9.28526 14.4943 9.41613 14.4481 9.55 14.4048C10.9733 13.9454 12.1662 13.4316 12.8303 12.9937C13.1949 12.7533 13.4832 12.4574 13.6066 12.2066C13.6551 12.1081 13.6777 12.0577 13.6897 11.9966C13.7019 11.9338 13.7036 11.8577 13.7033 11.7076C13.7027 11.3526 13.6345 11.0916 13.4914 10.9C13.3485 10.7087 13.1251 10.5788 12.8 10.4966C12.518 10.4253 12.2967 10.4245 12.0373 10.5289C11.7738 10.6349 11.4687 10.8507 11.0227 11.2203C10.576 11.5904 9.88663 12.2343 9.25606 12.855C8.62478 13.4765 8.05581 14.0706 7.84883 14.3433C7.71019 14.526 7.63665 14.6999 7.63594 14.816C7.63594 14.816 7.6358 14.8197 7.63692 14.8248C7.63835 14.8312 7.64113 14.8399 7.64473 14.8511C7.65196 14.8736 7.66351 14.904 7.67989 14.9439C7.71271 15.0239 7.76356 15.1394 7.83809 15.2984C7.98719 15.6164 8.22776 16.1074 8.59004 16.8394C9.48992 18.6578 9.7607 19.1728 10.1818 19.8638L10.3264 20.108C10.3628 20.1733 10.388 20.2244 10.4035 20.2671C10.4196 20.3113 10.4262 20.3495 10.424 20.3873C10.4218 20.4247 10.4117 20.4583 10.3977 20.4918C10.3561 20.5912 10.2812 20.6586 10.1926 20.6812C10.1037 20.7038 10.0075 20.6789 9.92793 20.6089C9.91889 20.6009 9.90846 20.5883 9.89864 20.5757C9.88806 20.5622 9.87566 20.545 9.86153 20.525C9.83285 20.4843 9.79613 20.43 9.75508 20.3668C9.67299 20.2403 9.57015 20.0756 9.467 19.9029C9.25393 19.546 8.6669 18.4081 8.12422 17.3267C7.85263 16.7855 7.59118 16.2574 7.39375 15.8472C7.29514 15.6423 7.21219 15.466 7.15157 15.3326C7.09205 15.2015 7.0517 15.1061 7.04122 15.066C7.01269 14.9566 6.99809 14.8719 7.0002 14.7857C7.00235 14.6993 7.02085 14.6139 7.05489 14.5044C7.11716 14.3046 7.24134 14.0968 7.49532 13.7925C7.74934 13.4882 8.13712 13.0841 8.73067 12.4927C9.15925 12.0657 9.6594 11.5826 9.84297 11.4195L10.1438 11.1519L10.1106 11.0933C10.0573 11.0011 9.99483 10.8395 9.93965 10.6617C9.88414 10.4827 9.83396 10.283 9.80489 10.1128C9.77307 9.92683 9.72695 9.42008 9.70137 8.98687C9.66863 8.43247 9.64385 8.12924 9.592 7.9234C9.5415 7.7231 9.46581 7.61543 9.32051 7.45465C9.20153 7.32298 9.11723 7.20515 9.06172 7.08062C9.00606 6.95572 8.98023 6.82693 8.97383 6.67535C8.96569 6.48176 8.97699 6.38822 9.03047 6.24566C9.06691 6.14871 9.13447 6.04043 9.21407 5.94195C9.29381 5.8433 9.38824 5.75127 9.48067 5.68804C9.50576 5.67089 9.53334 5.64596 9.55684 5.61968C9.5809 5.59277 9.59801 5.56836 9.60469 5.5523C9.63153 5.48759 9.69738 5.4266 9.76583 5.398C9.81421 5.37778 9.85326 5.36586 9.91036 5.37261C9.96183 5.37878 10.0279 5.40077 10.132 5.43707C10.2992 5.4953 10.4388 5.52201 10.591 5.51812C10.7441 5.51421 10.9131 5.47898 11.1398 5.40972C11.3363 5.34968 11.5265 5.29253 11.5607 5.28375C11.5737 5.28045 11.5925 5.27835 11.6115 5.27691C11.6318 5.27539 11.6565 5.27471 11.6838 5.27398C11.739 5.27252 11.8066 5.27288 11.8732 5.27496C11.9764 5.27816 12.0471 5.28365 12.1135 5.30035C12.1804 5.31722 12.2406 5.34458 12.3225 5.38824C12.7063 5.59286 13.0052 6.03199 13.0344 6.44C13.0452 6.59106 13.0401 6.70705 12.9934 6.87359C12.9474 7.03742 12.8607 7.25032 12.7121 7.59625C12.6391 7.76629 12.5693 7.93609 12.5148 8.07183C12.4597 8.2092 12.422 8.30873 12.4133 8.34136C12.3959 8.40642 12.3862 8.45012 12.3879 8.49078C12.3896 8.52917 12.4019 8.5692 12.4367 8.62457C12.5096 8.74037 12.6704 8.90651 12.9943 9.2359C13.6992 9.9525 13.898 10.2011 14.1135 10.6392C14.2761 10.9699 14.3762 11.4796 14.3479 11.8384C14.3286 12.0823 14.2759 12.2879 14.1721 12.4888C14.0686 12.6891 13.9154 12.8822 13.6965 13.1021C13.473 13.3267 13.4004 13.4267 13.1906 13.7984C12.9785 14.1744 12.7149 14.6852 12.4885 15.149C12.2616 15.6137 12.0736 16.0275 12.0119 16.2115C11.9894 16.2788 11.9802 16.3096 11.9865 16.3765C11.9935 16.4498 12.0187 16.5625 12.0705 16.7906C12.2995 17.7974 12.355 18.3938 12.3537 19.814C12.3534 20.1909 12.3508 20.4498 12.3449 20.6187C12.342 20.7027 12.3381 20.7655 12.3332 20.8101C12.3308 20.8323 12.3279 20.8517 12.3244 20.8668C12.3214 20.8797 12.3163 20.8971 12.3059 20.9107C12.1853 21.0676 11.9608 21.0781 11.8273 20.9322C11.8089 20.912 11.7936 20.8901 11.7824 20.8511C11.7723 20.8155 11.765 20.7659 11.76 20.69C11.7498 20.537 11.7453 20.262 11.7375 19.7437C11.7169 18.3691 11.6605 17.8202 11.4455 16.9009C11.3787 16.6152 11.346 16.4365 11.3654 16.2544C11.3849 16.073 11.4557 15.8919 11.5842 15.6002C11.6968 15.3445 11.9316 14.8533 12.1066 14.5084C12.194 14.3361 12.2741 14.1769 12.3332 14.0601C12.3485 14.0299 12.362 14.0022 12.3742 13.9781C12.3428 13.9921 12.3063 14.0086 12.2678 14.0269C11.7337 14.2814 10.7401 14.6679 9.93672 14.9341C9.84453 14.9647 9.76165 14.9948 9.70333 15.0181C9.68577 15.0251 9.67066 15.0312 9.6584 15.0367C9.67733 15.0735 9.70712 15.1317 9.73946 15.1939C9.9616 15.6213 10.1081 16.1079 10.4699 17.6099C10.5991 18.1462 10.6694 18.4232 10.7463 18.5904C10.7839 18.6721 10.8221 18.7254 10.8684 18.7691C10.9156 18.8137 10.9731 18.8505 11.0529 18.897C11.1884 18.9759 11.278 19.0331 11.343 19.0904C11.4096 19.1491 11.4496 19.207 11.4895 19.2847C11.5874 19.4757 11.5532 19.7321 11.4094 20.0757C11.3586 20.1971 11.3319 20.2689 11.3156 20.3462C11.2994 20.4239 11.2935 20.5095 11.2873 20.6597L11.2756 20.9283L11.2902 20.9263C11.3273 20.9192 11.3634 20.9221 11.3996 20.938C11.4336 20.9531 11.4657 20.9788 11.4992 21.0123L11.5998 21.1128V21.1324L11.6447 22.3814L11.6457 22.4058L11.6272 22.4214L11.5481 22.4898C11.4356 22.5865 11.2521 22.5983 11.1398 22.5074C11.0895 22.4665 11.0558 22.397 11.0344 22.315C11.0126 22.2316 11.0017 22.1276 11.0012 22.0084C11.0009 21.9434 10.9988 21.8951 10.9953 21.8609L10.9943 21.8599C10.9867 21.8694 10.9771 21.8802 10.967 21.8941C10.9116 21.9706 10.8561 22.0257 10.7922 22.0572C10.7268 22.0894 10.6583 22.0941 10.5813 22.0796C10.455 22.056 10.3706 21.9801 10.3498 21.8697C10.3303 21.7645 10.3709 21.6399 10.4592 21.5181L10.5422 21.3951C10.5662 21.3567 10.5853 21.324 10.593 21.3062L10.5969 21.2906C10.5989 21.2808 10.6004 21.2673 10.6027 21.2515C10.6074 21.2196 10.6127 21.1777 10.6174 21.1285C10.6269 21.0293 10.6361 20.9018 10.6418 20.7711C10.6518 20.5398 10.6577 20.4144 10.677 20.3072C10.6965 20.1987 10.729 20.1091 10.7893 19.9507C10.8231 19.8618 10.854 19.7732 10.8762 19.7027C10.8872 19.6675 10.8966 19.6373 10.9025 19.6138C10.9055 19.602 10.907 19.592 10.9084 19.5845C10.9096 19.578 10.9104 19.5738 10.9104 19.5738C10.9104 19.5665 10.9094 19.5613 10.9074 19.5572ZM16.218 11.1334L16.2385 11.1343L16.3342 11.23C16.4581 11.3543 16.4641 11.5387 16.3449 11.6656L16.2746 11.7408L16.259 11.7564H15.0285L15.0139 11.7408L14.9406 11.6617C14.7943 11.5037 14.8467 11.2349 15.0451 11.1519C15.0561 11.1474 15.0702 11.1447 15.0813 11.1431C15.0941 11.1413 15.1102 11.1397 15.1281 11.1382C15.1645 11.1353 15.2124 11.1323 15.2678 11.1304C15.3789 11.1267 15.5229 11.1257 15.6731 11.1275L16.218 11.1334ZM15.2707 11.231C15.216 11.2328 15.1701 11.2351 15.1359 11.2378C15.1188 11.2392 15.1049 11.2403 15.0949 11.2418C15.0834 11.2434 15.0811 11.2446 15.0832 11.2437C14.9521 11.2986 14.9126 11.4839 15.0139 11.5933L15.0725 11.6568H16.216L16.2727 11.5972C16.3533 11.5114 16.3506 11.3881 16.2629 11.3003L16.1955 11.233L15.6721 11.2271C15.5229 11.2253 15.3801 11.2274 15.2707 11.231ZM12.4045 6.55035C12.4045 6.47735 12.4001 6.431 12.3879 6.38824C12.3756 6.34545 12.3543 6.30244 12.3147 6.23687C12.2031 6.05238 12.0935 5.95449 11.9504 5.91949C11.8033 5.8836 11.6101 5.9115 11.3254 6.00347C11.0555 6.09067 10.8574 6.13972 10.675 6.15386C10.4914 6.16805 10.3256 6.14674 10.1213 6.09527L9.99141 6.06207L9.84493 6.1939C9.74496 6.28299 9.68471 6.35062 9.64864 6.41558C9.61355 6.47878 9.59984 6.54276 9.59981 6.62847C9.59981 6.70967 9.60799 6.76234 9.63301 6.81402C9.65908 6.86769 9.70519 6.9248 9.78829 7.01129C9.86221 7.08823 9.97157 7.2331 10.0324 7.33453C10.2286 7.66159 10.2784 7.92008 10.3234 8.77398C10.3789 9.82614 10.4292 10.1692 10.5881 10.5914C10.6053 10.637 10.6238 10.6777 10.6389 10.7066C10.6405 10.7096 10.6423 10.7127 10.6438 10.7154C10.6526 10.7093 10.6634 10.7025 10.675 10.6939C10.7128 10.6659 10.7624 10.6266 10.8137 10.5836C11.2739 10.1971 11.5843 10.0084 11.9543 9.89605C12.1393 9.83987 12.2384 9.83094 12.5129 9.83941L12.7121 9.84527L12.3918 9.53179C12.2767 9.41933 12.1633 9.30131 12.0725 9.20074C11.9832 9.10183 11.9121 9.01521 11.885 8.96832C11.8452 8.8994 11.8203 8.84985 11.8068 8.78277C11.794 8.71808 11.7922 8.63826 11.7922 8.51031C11.7922 8.33896 11.7964 8.23294 11.8459 8.0689C11.8944 7.90841 11.9866 7.69079 12.1574 7.29351C12.3806 6.7745 12.4045 6.69595 12.4045 6.55035ZM15.6213 9.65289C15.7796 9.53954 15.9722 9.53144 16.092 9.6607C16.1538 9.72743 16.185 9.80553 16.1799 9.88629C16.1747 9.96651 16.1342 10.0421 16.0656 10.106C16.0257 10.1432 15.9425 10.201 15.843 10.2652C15.7421 10.3302 15.6208 10.4046 15.5012 10.4742C15.3817 10.5437 15.2632 10.6085 15.1691 10.6568C15.1224 10.6808 15.081 10.7012 15.0481 10.7154C15.0316 10.7225 15.0161 10.7287 15.0031 10.733C14.9919 10.7367 14.977 10.7407 14.9631 10.7408C14.8296 10.7409 14.7225 10.6491 14.6779 10.5142C14.6625 10.4676 14.6533 10.4218 14.6594 10.3755C14.6656 10.3281 14.6867 10.2853 14.7229 10.2437C14.7921 10.1641 14.9247 10.0774 15.1389 9.95074C15.3489 9.82645 15.5653 9.69286 15.6213 9.65289ZM16.0188 9.72808C15.9443 9.64803 15.812 9.63934 15.6799 9.73394C15.6203 9.77662 15.3992 9.9127 15.1897 10.0367C14.9719 10.1655 14.8557 10.2442 14.799 10.3091C14.7724 10.3397 14.7611 10.3648 14.758 10.3882C14.7548 10.4129 14.7592 10.4423 14.7727 10.483C14.8066 10.5858 14.8815 10.6412 14.9631 10.6412C14.96 10.6412 14.9615 10.6416 14.9719 10.6382C14.9809 10.6353 14.993 10.6301 15.008 10.6236C15.038 10.6107 15.0772 10.5916 15.1232 10.5679C15.2152 10.5207 15.3318 10.4562 15.4504 10.3873C15.569 10.3183 15.6899 10.2453 15.7893 10.1812C15.8898 10.1164 15.965 10.0629 15.9973 10.0328C16.0518 9.98195 16.0771 9.92867 16.0803 9.87945C16.0833 9.83072 16.0653 9.77832 16.0188 9.72808ZM12.5354 -0.00336262C12.829 -0.0515821 13.2273 0.0108106 13.4963 0.147028C13.5911 0.195133 13.7584 0.327148 13.8713 0.439997C14.1209 0.689555 14.2476 0.937981 14.3147 1.30621C14.3553 1.52955 14.3802 1.65442 14.4074 1.74078C14.4337 1.82401 14.4626 1.87144 14.5129 1.94C14.6104 2.07285 14.6791 2.19205 14.7248 2.3189C14.7705 2.44586 14.7919 2.57861 14.799 2.73687C14.8059 2.88919 14.8042 2.99639 14.7815 3.07281C14.7696 3.11246 14.7512 3.14502 14.7258 3.17242C14.7006 3.19955 14.6702 3.21932 14.6359 3.23492C14.573 3.26354 14.5112 3.276 14.4504 3.26812C14.3895 3.26017 14.3346 3.23198 14.2834 3.18804C14.2423 3.15276 14.2121 3.12165 14.1945 3.065C14.179 3.01459 14.1738 2.94449 14.1672 2.83453L14.1623 2.77105L14.1574 2.78277C14.0552 2.98559 13.8408 3.26511 13.6887 3.39312C13.608 3.461 13.5601 3.51482 13.5275 3.57867C13.4946 3.64328 13.4753 3.72306 13.4592 3.84625C13.4424 3.97447 13.4216 4.11398 13.4123 4.15582C13.409 4.17073 13.4091 4.1821 13.4211 4.20172C13.4359 4.22567 13.4659 4.25813 13.5217 4.31011C13.5577 4.3436 13.6027 4.37728 13.6457 4.40484C13.6899 4.43314 13.7277 4.45248 13.7502 4.45855C13.8863 4.49519 14.0277 4.58264 14.1496 4.69488C14.2718 4.80737 14.3782 4.94766 14.4426 5.09332C14.4836 5.18604 14.5043 5.32208 14.508 5.45465C14.5117 5.58753 14.4986 5.72633 14.4631 5.82379C14.4383 5.89182 14.3104 6.1827 14.1799 6.46929C13.8955 7.09362 13.7106 7.5563 13.5607 8.01812C13.4961 8.21737 13.4475 8.34472 13.3918 8.42144C13.3627 8.4615 13.3298 8.48971 13.2902 8.50738C13.2514 8.52467 13.2101 8.52983 13.1662 8.52984C13.0917 8.52984 13.025 8.50949 12.9719 8.46734C12.9188 8.42526 12.8831 8.36477 12.8645 8.29156C12.8569 8.26159 12.8603 8.2206 12.8674 8.1773C12.8749 8.13154 12.8883 8.07492 12.9065 8.00933C12.9428 7.87792 12.9996 7.70673 13.0725 7.50836C13.2183 7.11142 13.4291 6.60192 13.6701 6.07379C13.7274 5.94829 13.7811 5.82134 13.8215 5.71832C13.8417 5.6668 13.8582 5.62146 13.8703 5.5855C13.8829 5.54821 13.8894 5.52457 13.8908 5.51422C13.8994 5.45055 13.8782 5.36919 13.8342 5.29351C13.7904 5.21813 13.7278 5.15625 13.6633 5.12652C13.567 5.08217 13.3988 4.97377 13.2473 4.86578C13.171 4.81138 13.0976 4.75573 13.0383 4.70757C12.9806 4.66075 12.9318 4.61718 12.9084 4.58648C12.8419 4.49935 12.8034 4.41354 12.7912 4.29449C12.7794 4.1786 12.7925 4.03204 12.8244 3.82379C12.8406 3.71835 12.8619 3.61193 12.883 3.52398C12.9036 3.43826 12.9256 3.36362 12.9455 3.32574C12.9646 3.28967 13.0092 3.23091 13.0617 3.16754C13.1154 3.10275 13.1814 3.02936 13.2463 2.96246C13.603 2.59452 13.749 2.262 13.7482 1.8355C13.7472 1.26835 13.5292 0.847075 13.1838 0.689997C13.0801 0.642906 13.0056 0.631833 12.7131 0.630426C12.5415 0.62959 12.4459 0.628801 12.3859 0.616755C12.3535 0.610219 12.3278 0.600456 12.3049 0.583551C12.2836 0.567845 12.2663 0.546766 12.2492 0.526911C12.2048 0.475209 12.1751 0.423951 12.1691 0.364801C12.1633 0.306005 12.1816 0.247956 12.2141 0.185114C12.2675 0.0816621 12.3836 0.0216165 12.5354 -0.00336262ZM11.3547 4.0025C11.4307 4.01606 11.481 4.04989 11.5285 4.10308C11.6399 4.22799 11.6334 4.40414 11.5148 4.523C11.4922 4.54564 11.4686 4.56699 11.4494 4.58257C11.4402 4.59007 11.4311 4.59682 11.4231 4.60211C11.419 4.60473 11.4143 4.60853 11.4094 4.6109C11.4061 4.61245 11.3957 4.61655 11.383 4.61675C11.3079 4.61767 11.1757 4.63498 11.0481 4.65777C10.9191 4.68081 10.8039 4.70777 10.76 4.72711C10.6957 4.75551 10.5699 4.84771 10.4846 4.93121C10.3686 5.04471 10.2782 5.11756 10.1936 5.14117C10.0995 5.16729 10.0228 5.13084 9.94454 5.065C9.90579 5.03237 9.87591 5.0017 9.85762 4.96246C9.83934 4.92313 9.83516 4.88038 9.83516 4.82965C9.83518 4.77097 9.84074 4.72553 9.8752 4.67047C9.90652 4.62054 9.96216 4.56301 10.052 4.4732C10.1998 4.32539 10.333 4.22294 10.4904 4.15093C10.6474 4.07919 10.825 4.03908 11.0598 4.01129C11.1915 3.9957 11.2837 3.98988 11.3547 4.0025ZM11.8156 3.72222C11.9467 3.61917 12.1168 3.62887 12.2346 3.74664C12.2713 3.78334 12.3003 3.81558 12.3127 3.8609C12.3243 3.90351 12.3193 3.95265 12.3107 4.01715C12.2933 4.14897 12.2579 4.25409 12.1975 4.32672C12.1348 4.40179 12.0491 4.43707 11.9465 4.43707C11.8759 4.43695 11.8037 4.38915 11.7531 4.33648C11.7022 4.2834 11.6573 4.2093 11.6574 4.13824C11.6576 4.0538 11.6729 3.97 11.6994 3.898C11.7257 3.82683 11.7649 3.76224 11.8156 3.72222ZM11.4904 0.235895C11.6645 0.206711 11.776 0.214614 11.8664 0.2857C11.9853 0.379196 12.019 0.53584 11.9494 0.670466C11.9221 0.723389 11.8943 0.763565 11.8391 0.792536C11.7892 0.818656 11.7182 0.833935 11.6125 0.854059C11.5105 0.873534 11.4313 0.906396 11.3654 0.956598C11.2993 1.007 11.2436 1.07791 11.1906 1.1773C11.0414 1.45725 10.9723 1.8031 10.9885 2.20465C11.0041 2.59298 11.0713 2.81284 11.2522 3.07476C11.299 3.1426 11.3303 3.19303 11.3469 3.23882C11.3645 3.28773 11.3654 3.32926 11.3576 3.3775C11.3186 3.6182 11.0636 3.72788 10.8566 3.5982C10.8211 3.57582 10.7838 3.53449 10.7482 3.4859C10.7116 3.43574 10.6729 3.3729 10.635 3.30328C10.5592 3.16413 10.4851 2.99388 10.4348 2.83453C10.3862 2.68089 10.3565 2.45851 10.3479 2.23394C10.3392 2.00901 10.3515 1.77614 10.3869 1.60113C10.5462 0.815173 10.9232 0.331104 11.4904 0.235895ZM11.507 0.334528C10.9989 0.419817 10.64 0.853481 10.4846 1.62066C10.4512 1.78517 10.4399 2.00959 10.4484 2.23004C10.457 2.45064 10.4848 2.66281 10.5295 2.80425C10.5778 2.95702 10.6498 3.1213 10.7229 3.25543C10.7593 3.32236 10.796 3.38078 10.8293 3.42632C10.8636 3.47325 10.8918 3.50157 10.9104 3.51324C11.059 3.6064 11.2308 3.52919 11.258 3.36187C11.264 3.32492 11.2636 3.30089 11.2531 3.27203C11.2414 3.23987 11.2171 3.19949 11.1701 3.1314C10.9765 2.851 10.9041 2.61194 10.8879 2.20855C10.8712 1.79381 10.9426 1.42937 11.1018 1.13043C11.1592 1.02257 11.2242 0.939065 11.3049 0.877497C11.3859 0.815804 11.4805 0.778051 11.594 0.756403C11.7029 0.735663 11.7579 0.721585 11.7922 0.703669C11.821 0.688564 11.8371 0.669874 11.8606 0.624567C11.9082 0.532315 11.8854 0.428407 11.8049 0.364801C11.7496 0.321291 11.6753 0.306326 11.507 0.334528ZM12.5344 21.5464C12.5344 21.6155 12.5286 21.6686 12.5061 21.73C12.4841 21.7896 12.4463 21.8555 12.3869 21.9507C12.2155 22.2256 12.146 22.3763 11.9934 22.8062C11.9597 22.901 11.9241 22.9949 11.8938 23.0699C11.8786 23.1074 11.8645 23.1403 11.8527 23.1666C11.8415 23.1917 11.831 23.2141 11.8225 23.2271C11.7386 23.3547 11.5672 23.4152 11.3107 23.438C11.2062 23.4473 11.1502 23.4552 11.1135 23.4673C11.0818 23.4779 11.0637 23.4914 11.0373 23.522C10.9561 23.6164 10.9631 23.7399 11.0441 23.815C11.0862 23.8538 11.1619 23.8776 11.2658 23.8804C11.3683 23.8832 11.4899 23.8658 11.6115 23.8316C11.7329 23.7975 11.8528 23.7473 11.9533 23.6871C12.0547 23.6263 12.133 23.5573 12.175 23.4869C12.1909 23.4602 12.2236 23.3872 12.2648 23.2886C12.3054 23.1916 12.3529 23.0729 12.3967 22.9556C12.485 22.7189 12.6072 22.4331 12.6691 22.3209C12.8031 22.0781 12.8794 21.9358 12.9221 21.8384C12.9638 21.7432 12.9719 21.6946 12.9719 21.6402C12.9718 21.4638 12.9198 21.362 12.8479 21.3248C12.7907 21.2952 12.7537 21.2871 12.7229 21.2906C12.692 21.2941 12.658 21.3105 12.6086 21.3521C12.569 21.3854 12.5541 21.4024 12.5461 21.4224C12.5372 21.4448 12.5344 21.4772 12.5344 21.5464ZM10.9992 19.6382C10.9926 19.6643 10.9833 19.6967 10.9719 19.733C10.949 19.8057 10.9175 19.8963 10.883 19.9869C10.8223 20.1464 10.7932 20.2269 10.7756 20.3248C10.7578 20.4238 10.7515 20.5419 10.7414 20.7759C10.7357 20.9078 10.7267 21.0363 10.717 21.1373C10.7122 21.1876 10.7074 21.2319 10.7023 21.2662C10.6998 21.2833 10.6972 21.2995 10.6945 21.3121C10.6921 21.3236 10.6891 21.3363 10.6848 21.3462C10.6646 21.3929 10.599 21.4966 10.5402 21.5777L10.5393 21.5767C10.4593 21.6871 10.4357 21.7845 10.4484 21.8521C10.4603 21.9145 10.5064 21.9635 10.5998 21.981C10.6616 21.9926 10.7073 21.9884 10.7482 21.9683C10.7909 21.9473 10.8345 21.9064 10.8859 21.8355C10.9114 21.8004 10.9354 21.7706 10.9572 21.7525C10.9678 21.7438 10.9834 21.733 11.0031 21.73C11.0278 21.7264 11.05 21.7357 11.0647 21.7525C11.0767 21.7664 11.0824 21.7842 11.0861 21.7984C11.0901 21.8136 11.093 21.8316 11.0949 21.8511C11.0989 21.8904 11.1005 21.9432 11.1008 22.0084C11.1013 22.1224 11.112 22.2178 11.1311 22.2906C11.1505 22.3647 11.1774 22.4092 11.2033 22.4302C11.2737 22.4868 11.4025 22.4835 11.4826 22.4146L11.5441 22.3609L11.5227 21.7613L11.5002 21.1548L11.4279 21.0826C11.3974 21.0521 11.3758 21.0364 11.3586 21.0289C11.3436 21.0223 11.3294 21.0212 11.3098 21.025L11.1711 21.0513L11.1731 20.9878L11.1867 20.6558C11.1929 20.5059 11.1997 20.4118 11.218 20.3248C11.2363 20.2375 11.2658 20.1581 11.3166 20.0367C11.4587 19.6972 11.4768 19.4792 11.4006 19.3306C11.3648 19.2607 11.3315 19.2141 11.2766 19.1656C11.2197 19.1154 11.1379 19.0621 11.0022 18.983C10.9224 18.9365 10.8562 18.8953 10.8 18.8423C10.7428 18.7883 10.6974 18.7234 10.6555 18.6324C10.5734 18.454 10.5003 18.165 10.3723 17.6334C10.0097 16.1283 9.8661 15.6544 9.65059 15.2398C9.59977 15.142 9.55271 15.0515 9.54708 15.0396C9.53315 15.0102 9.55245 14.9869 9.55489 14.9839C9.55989 14.9779 9.56537 14.9735 9.56856 14.9712C9.57561 14.9663 9.5844 14.9609 9.59297 14.9566C9.61077 14.9477 9.63625 14.9373 9.66622 14.9253C9.72694 14.9011 9.812 14.8704 9.90547 14.8394C10.7066 14.5739 11.6959 14.1882 12.2248 13.9361C12.291 13.9045 12.3509 13.8777 12.3938 13.8599C12.4149 13.8512 12.4333 13.8446 12.4465 13.8404C12.4522 13.8385 12.4603 13.8365 12.468 13.8355C12.4702 13.8352 12.4739 13.8344 12.4777 13.8345C12.4811 13.8346 12.4882 13.8351 12.4963 13.8384C12.5054 13.8422 12.5198 13.8521 12.5256 13.8707C12.5306 13.8872 12.5252 13.9011 12.5227 13.9068C12.5151 13.923 12.3691 14.2131 12.1965 14.5533C12.022 14.8971 11.7877 15.3865 11.676 15.6402C11.5467 15.9338 11.4826 16.1014 11.465 16.2652C11.4476 16.4283 11.4752 16.5917 11.5422 16.8785C11.7593 17.807 11.8164 18.3631 11.8371 19.7418C11.8449 20.2614 11.8497 20.5333 11.8596 20.6832C11.8645 20.7582 11.8711 20.799 11.8781 20.8238C11.8842 20.845 11.8906 20.8538 11.9006 20.8648C11.9917 20.9644 12.1438 20.958 12.2268 20.8502C12.2231 20.855 12.2241 20.8561 12.2268 20.8443C12.229 20.8346 12.2313 20.8199 12.2336 20.7994C12.2381 20.7586 12.2424 20.6983 12.2453 20.6148C12.2512 20.4478 12.2538 20.1907 12.2541 19.814C12.2554 18.3986 12.1996 17.8104 11.9729 16.813C11.9218 16.5885 11.8947 16.4678 11.8869 16.3863C11.8786 16.2986 11.893 16.2524 11.9172 16.1802C11.9812 15.9891 12.1722 15.5689 12.3986 15.105C12.6256 14.6401 12.8903 14.1269 13.1037 13.7486C13.2631 13.4662 13.3464 13.3349 13.4758 13.189L13.7746 12.8746C13.9109 12.7227 14.0115 12.5836 14.0842 12.4429C14.1807 12.2561 14.2298 12.0637 14.2482 11.8306C14.2752 11.4902 14.1786 10.9982 14.0236 10.6832C13.8157 10.2604 13.6266 10.0215 12.9231 9.30621C12.6037 8.98156 12.432 8.80574 12.3518 8.67828C12.3102 8.61222 12.2908 8.55496 12.2883 8.49468C12.2858 8.4366 12.2995 8.379 12.3166 8.315C12.3273 8.2751 12.368 8.16948 12.4221 8.03472C12.4769 7.89818 12.547 7.72783 12.6203 7.55718C12.7694 7.20996 12.8528 7.00261 12.8967 6.84625C12.9397 6.69289 12.9449 6.58884 12.9348 6.44683C12.9083 6.07608 12.6318 5.66602 12.2756 5.47613C12.1953 5.43336 12.1438 5.41083 12.0891 5.39703C12.034 5.38319 11.9726 5.37775 11.8703 5.37457C11.8055 5.37255 11.7398 5.37218 11.6867 5.37359C11.6601 5.37429 11.6366 5.37514 11.6184 5.37652C11.5992 5.37798 11.5886 5.37954 11.5852 5.38043C11.5528 5.38879 11.3663 5.44517 11.1691 5.50543C10.9391 5.5757 10.7601 5.61344 10.594 5.61773C10.4267 5.622 10.275 5.59185 10.0998 5.53082C9.99208 5.49328 9.93704 5.47682 9.89864 5.47222C9.86619 5.46837 9.84548 5.4734 9.80391 5.49078C9.75598 5.51097 9.7116 5.55395 9.69649 5.59039C9.68361 5.62139 9.65906 5.65581 9.63204 5.68609C9.60429 5.71711 9.57036 5.74846 9.53731 5.77105C9.45487 5.82747 9.36747 5.9123 9.29219 6.00543C9.21684 6.09868 9.15567 6.19717 9.12422 6.28082C9.0767 6.40747 9.06572 6.48649 9.07344 6.67047C9.0794 6.81242 9.10318 6.92867 9.15254 7.03961C9.20223 7.15112 9.27976 7.26101 9.39473 7.38824C9.5453 7.55489 9.63359 7.67661 9.68965 7.89898C9.74429 8.11599 9.76845 8.43013 9.80098 8.98101C9.82655 9.41409 9.87272 9.91619 9.90352 10.0962C9.93172 10.2611 9.98085 10.4567 10.0354 10.6324C10.0902 10.809 10.1492 10.9616 10.1965 11.0435L10.2717 11.1724L10.2414 11.1998L9.90938 11.4947C9.72798 11.6559 9.22949 12.1371 8.80098 12.564C8.2074 13.1555 7.82222 13.5566 7.57149 13.857C7.32112 14.157 7.2071 14.3532 7.15059 14.5347C7.11768 14.6405 7.10165 14.7149 7.09981 14.7877C7.098 14.8603 7.11032 14.9348 7.1379 15.0406C7.1457 15.0705 7.18122 15.1569 7.24239 15.2916C7.3026 15.4241 7.38601 15.5994 7.48458 15.8043C7.68164 16.2137 7.94172 16.7411 8.21309 17.2818C8.75624 18.3641 9.34199 19.4977 9.55293 19.8511C9.65568 20.0232 9.75772 20.1878 9.83907 20.313C9.87968 20.3756 9.91498 20.4282 9.94258 20.4673C9.95633 20.4868 9.96849 20.5024 9.97774 20.5142C9.98238 20.5201 9.98639 20.5254 9.98946 20.5289L9.99434 20.5337L10.0383 20.565C10.0829 20.5896 10.1281 20.5947 10.1682 20.5845C10.2218 20.5708 10.2735 20.5278 10.3049 20.4527C10.3172 20.4232 10.3232 20.4022 10.3244 20.3814C10.3256 20.3609 10.3226 20.3367 10.3098 20.3013C10.2829 20.2274 10.2202 20.1179 10.0969 19.9156C9.67322 19.2204 9.39988 18.7023 8.5002 16.8843C8.13812 16.1527 7.89787 15.6605 7.74825 15.3414C7.67348 15.1819 7.62091 15.0644 7.58711 14.982C7.57025 14.9409 7.5574 14.9074 7.54903 14.8814C7.54128 14.8573 7.53524 14.8338 7.53536 14.815C7.53629 14.6663 7.62588 14.4711 7.76875 14.2828C7.9808 14.0033 8.55544 13.4042 9.18575 12.7837C9.81685 12.1625 10.5081 11.516 10.9582 11.1431C11.4042 10.7736 11.7207 10.5486 12.0002 10.4361C12.2835 10.3222 12.527 10.3248 12.8244 10.4C13.1627 10.4855 13.4102 10.6245 13.5715 10.8404C13.7323 11.0557 13.8022 11.3405 13.8029 11.7066C13.8032 11.8538 13.8027 11.9409 13.7883 12.0152C13.7735 12.0912 13.7447 12.1535 13.6965 12.2515C13.5621 12.5244 13.2572 12.8312 12.885 13.0767C12.2094 13.5222 11.0061 14.0393 9.58028 14.4996C9.44801 14.5423 9.31935 14.5878 9.21895 14.6265C9.16888 14.6458 9.12641 14.6638 9.09395 14.6783C9.05932 14.6938 9.04106 14.7039 9.03633 14.7076C9.00078 14.7356 8.97135 14.7813 8.95528 14.8326C8.93913 14.8844 8.93869 14.9359 8.95235 14.9732C8.95728 14.9867 8.97223 15.0132 8.99532 15.0464C9.01757 15.0785 9.04492 15.1137 9.07149 15.1431C9.13167 15.2098 9.22225 15.3491 9.27559 15.4546C9.40528 15.7115 9.63263 16.4165 9.76485 16.9673C10.1166 18.433 10.175 18.6451 10.2736 18.8453C10.3894 19.0799 10.5558 19.2431 10.8117 19.3726C10.8784 19.4063 10.9265 19.4348 10.9582 19.4634C10.9747 19.4784 10.9891 19.495 10.9982 19.5142C11.0075 19.5338 11.0109 19.5541 11.0109 19.5738C11.0109 19.5905 11.0052 19.6145 10.9992 19.6382ZM12.5041 6.55035C12.5041 6.72082 12.47 6.82018 12.2492 7.33355C12.0773 7.73321 11.988 7.94445 11.9416 8.0982C11.8963 8.24838 11.8918 8.34276 11.8918 8.51031C11.8918 8.64047 11.8939 8.70999 11.9045 8.76324C11.9146 8.81372 11.9324 8.85179 11.9709 8.91851C11.9917 8.95456 12.0558 9.03272 12.1467 9.13336C12.2361 9.23234 12.3483 9.34931 12.4621 9.4605L12.966 9.95367L12.8381 9.94879L12.51 9.93902C12.2418 9.93074 12.1544 9.93988 11.9836 9.99175C11.6318 10.0986 11.3333 10.2775 10.8781 10.6597C10.8255 10.7039 10.7744 10.7445 10.7346 10.774C10.715 10.7885 10.6977 10.8012 10.6838 10.8101C10.6769 10.8145 10.6695 10.8187 10.6633 10.8218C10.6602 10.8234 10.6566 10.8252 10.6525 10.8267C10.6495 10.8278 10.6417 10.8306 10.632 10.8306C10.6106 10.8306 10.596 10.8177 10.592 10.814C10.586 10.8085 10.5804 10.802 10.5764 10.7964C10.5681 10.785 10.5596 10.7698 10.551 10.7535C10.5335 10.7202 10.5136 10.6751 10.4953 10.6265C10.3305 10.1886 10.2784 9.83219 10.2229 8.77984C10.1778 7.92552 10.1289 7.68927 9.94649 7.38531C9.88902 7.28958 9.78413 7.15152 9.71602 7.08062C9.63231 6.99349 9.57664 6.92689 9.54317 6.85797C9.50876 6.78707 9.49922 6.7173 9.49922 6.62847C9.49926 6.53033 9.51546 6.44834 9.56075 6.36675C9.60512 6.28685 9.67625 6.21084 9.77852 6.11968L9.94551 5.97027L9.96504 5.95269L9.99141 5.95855L10.1457 5.99761C10.3434 6.04742 10.4978 6.06734 10.6672 6.05425C10.8375 6.04105 11.0263 5.99428 11.2941 5.90777C11.5814 5.81497 11.7979 5.77989 11.9738 5.82281C12.1535 5.8667 12.2813 5.98951 12.3996 6.18511C12.4406 6.25287 12.4685 6.30487 12.4846 6.3609C12.5007 6.41717 12.5041 6.47443 12.5041 6.55035ZM9.93477 4.82965C9.93477 4.87608 9.93947 4.9012 9.94844 4.92047C9.95742 4.93968 9.97355 4.959 10.009 4.98882C10.0771 5.04618 10.1201 5.0586 10.1672 5.04547C10.2237 5.02969 10.297 4.97564 10.4152 4.85992C10.5047 4.77236 10.6393 4.67165 10.719 4.63629C10.7755 4.61127 10.9032 4.58188 11.0305 4.55914C11.153 4.53725 11.2847 4.52062 11.3693 4.51812C11.3734 4.51537 11.3795 4.51051 11.3869 4.50445C11.4029 4.49146 11.4231 4.47315 11.4436 4.45269C11.5256 4.37064 11.5291 4.2543 11.4533 4.16949C11.4174 4.12938 11.3866 4.10995 11.3371 4.10113C11.2826 4.09144 11.2041 4.09423 11.0715 4.10992C10.8413 4.13717 10.6749 4.17613 10.5315 4.24175C10.3885 4.30717 10.2649 4.40091 10.1223 4.54351C10.03 4.63576 9.98423 4.68487 9.96016 4.7232C9.93949 4.75615 9.93478 4.78045 9.93477 4.82965ZM11.758 4.13824C11.7579 4.17151 11.782 4.22187 11.8254 4.26715C11.8691 4.31271 11.9166 4.33731 11.9465 4.33746C12.0236 4.33746 12.0792 4.31246 12.1203 4.26324C12.1635 4.21154 12.1957 4.12819 12.2121 4.00445C12.2212 3.93561 12.2214 3.90708 12.216 3.88726C12.2114 3.87037 12.2011 3.85482 12.1643 3.81793C12.0826 3.73622 11.9695 3.72883 11.8781 3.80035C11.8471 3.82478 11.8159 3.87059 11.7932 3.93218C11.7708 3.99285 11.7582 4.06511 11.758 4.13824ZM13.8479 1.8355C13.8486 2.29271 13.6888 2.64884 13.3176 3.03179C13.2545 3.0969 13.191 3.16912 13.1389 3.23199C13.0859 3.29598 13.048 3.34694 13.0344 3.37261C13.0211 3.39785 13.0016 3.4604 12.9807 3.54742C12.9603 3.63235 12.9398 3.73572 12.924 3.83843C12.8922 4.04606 12.8805 4.18171 12.8908 4.28375C12.9009 4.38263 12.932 4.45184 12.9885 4.52593C13.0038 4.54588 13.0432 4.5829 13.1018 4.63043C13.159 4.6769 13.2308 4.73025 13.3059 4.78375C13.4573 4.89169 13.6184 4.99568 13.7053 5.0357C13.7933 5.0763 13.869 5.15579 13.9201 5.24371C13.971 5.33137 14.0019 5.43521 13.9895 5.52789C13.9865 5.54904 13.9773 5.58136 13.965 5.61773C13.9523 5.65565 13.9347 5.70225 13.9143 5.75445C13.8732 5.85925 13.8188 5.98794 13.7609 6.1148C13.5208 6.64104 13.311 7.14848 13.1662 7.54254C13.0938 7.73969 13.0375 7.90802 13.0022 8.0357C12.9845 8.09936 12.9727 8.15217 12.966 8.19293C12.9589 8.23621 12.9592 8.25933 12.9611 8.26715C12.9754 8.32315 13.0015 8.36318 13.0344 8.38922C13.0671 8.41503 13.1107 8.43023 13.1662 8.43023C13.2031 8.43022 13.2293 8.4259 13.2502 8.41656C13.2704 8.4075 13.2897 8.39176 13.3107 8.36285C13.3555 8.30126 13.4002 8.18986 13.466 7.98687C13.6174 7.52034 13.8037 7.05476 14.0891 6.42828C14.2204 6.13997 14.3462 5.8531 14.3693 5.78961C14.3987 5.70896 14.4119 5.58451 14.4084 5.45757C14.4048 5.3306 14.3843 5.209 14.3508 5.13336C14.2927 5.00225 14.1949 4.87279 14.0813 4.76812C13.9673 4.66325 13.8397 4.58642 13.7238 4.55523C13.6862 4.54503 13.6381 4.51933 13.592 4.4898C13.5446 4.45943 13.4943 4.42153 13.4533 4.38336C13.3979 4.33177 13.3588 4.29128 13.3361 4.25445C13.3109 4.2135 13.3055 4.17576 13.3147 4.13433C13.3228 4.09779 13.3436 3.96208 13.3606 3.83257C13.3771 3.70626 13.3978 3.61286 13.4387 3.53277C13.4799 3.45219 13.5391 3.3886 13.6242 3.31695C13.7645 3.19892 13.9714 2.93049 14.0686 2.73785L14.2404 2.39605L14.2522 2.58062L14.2668 2.82769C14.2737 2.94203 14.279 2.99915 14.2902 3.0357C14.2996 3.0661 14.3127 3.08262 14.3479 3.11285C14.3876 3.14701 14.4255 3.16455 14.4631 3.16949C14.5009 3.17439 14.5443 3.16718 14.5949 3.1441C14.6211 3.13214 14.6391 3.11942 14.6525 3.10504C14.6657 3.09082 14.6766 3.07187 14.6848 3.04449C14.7021 2.98638 14.7063 2.89545 14.6994 2.74175C14.6926 2.59032 14.6715 2.46822 14.6301 2.35308C14.5886 2.23795 14.5256 2.12738 14.4318 1.99957C14.3773 1.92527 14.3433 1.86779 14.3127 1.77105C14.2831 1.67746 14.2564 1.5465 14.216 1.32476C14.1524 0.974888 14.0353 0.744607 13.801 0.510309C13.6917 0.401115 13.5329 0.278303 13.4514 0.236872C13.2011 0.110037 12.8244 0.0505481 12.552 0.0952702C12.4127 0.118123 12.3351 0.168804 12.3029 0.231012C12.2742 0.286638 12.2657 0.324241 12.2688 0.355036C12.2719 0.385304 12.2873 0.418157 12.3254 0.462458C12.3438 0.483811 12.3539 0.494694 12.3645 0.502497C12.3733 0.50905 12.3843 0.514826 12.4055 0.519098C12.4532 0.528692 12.5354 0.528974 12.7131 0.529841C13.0065 0.531245 13.1004 0.542172 13.2258 0.599176C13.6214 0.779086 13.8468 1.24823 13.8479 1.8355Z" fill="#6281AA"/>
</g>
<defs>
<clipPath id="clip0_128_1533">
<rect width="24" height="24" fill="white"/>
</clipPath>
</defs>
</svg>
