<svg width="24" height="24" viewBox="0 0 24 24" fill="none" xmlns="http://www.w3.org/2000/svg">
<g clip-path="url(#clip0_128_1535)">
<path fill-rule="evenodd" clip-rule="evenodd" d="M11.6902 -0.091637C11.2056 -0.0185119 10.757 0.290919 10.4679 0.75133C10.4147 0.836078 10.3437 0.89877 10.2573 0.937178C9.87083 1.1089 9.71201 1.41888 9.6582 2.10639C9.6387 2.3555 9.6146 2.48485 9.57699 2.5423C9.54437 2.59206 9.42207 2.67235 9.26386 2.74785C8.47862 3.12266 8.22742 3.8987 8.67423 4.56945L8.7626 4.70213L8.6903 4.88007C8.57926 5.15335 8.54515 5.43884 8.58472 5.76413C8.64042 6.22235 8.78918 6.51912 9.11383 6.81967C9.29095 6.98365 9.66771 7.19765 9.77928 7.19765C9.82501 7.19765 9.82321 7.22093 9.76122 7.43414C9.61375 7.94147 9.61521 7.95099 9.98072 8.83749C10.2817 9.56755 10.4462 9.75904 10.6407 9.60602C10.7841 9.49327 10.7604 9.385 10.3946 8.47894C10.2645 8.15688 10.1928 7.93711 10.1953 7.8688C10.1976 7.81008 10.3155 7.38451 10.4574 6.92309C10.5994 6.46167 10.7665 5.90568 10.8287 5.68756C11.0032 5.07663 11.1547 4.75365 11.3167 4.64746C11.3807 4.60557 11.408 4.60341 11.4827 4.63434C11.6979 4.72348 11.6869 5.17172 11.4558 5.7299C11.3374 6.01572 11.3366 6.10877 11.4516 6.22378C11.5474 6.31954 11.6201 6.33324 11.7409 6.2782C11.8307 6.23729 11.8667 6.1657 12.0226 5.71807C12.1329 5.4015 12.1395 5.36178 12.1398 5.01641C12.14 4.69709 12.1315 4.63422 12.0727 4.52421C11.8711 4.14623 11.4529 3.9839 11.0971 4.14544C10.863 4.25169 10.5655 4.738 10.4056 5.27572C10.3632 5.41834 10.2517 5.79531 10.1577 6.11344C10.0638 6.43156 9.98303 6.69578 9.97821 6.7006C9.95179 6.72705 9.67876 6.60152 9.54727 6.50246C9.22213 6.25752 9.09135 5.94205 9.1098 5.44717C9.12085 5.15119 9.12664 5.12874 9.25041 4.90344C9.42644 4.58297 9.41698 4.45957 9.20978 4.37299C9.02072 4.29401 8.92033 3.99141 8.99726 3.7324C9.06752 3.49582 9.2138 3.35015 9.53949 3.19249C10.0091 2.96522 10.13 2.77928 10.1762 2.2135C10.1914 2.02688 10.2189 1.80858 10.2373 1.72837C10.2775 1.55275 10.403 1.41644 10.5496 1.38892C10.6989 1.36092 10.7983 1.27135 10.8837 1.08794C10.9816 0.877446 11.2084 0.658254 11.4529 0.537843C11.619 0.456023 11.6925 0.438726 11.9108 0.430031C12.1605 0.420086 12.1792 0.424082 12.3804 0.530826C12.6275 0.661945 12.7444 0.664599 12.8361 0.541137C12.8955 0.461209 12.8958 0.454833 12.8441 0.319596C12.727 0.0128798 12.2125 -0.170436 11.6902 -0.091637ZM13.1745 0.559167C13.0688 0.606361 13.0403 0.658375 13.0403 0.804229C13.0403 0.917257 13.0977 0.980833 13.2612 1.04917C13.5715 1.17882 13.7597 1.62209 13.6451 1.95355C13.6254 2.01056 13.5673 2.12576 13.5159 2.2095C13.442 2.33009 13.4184 2.41042 13.4025 2.59572C13.3871 2.77528 13.3595 2.87254 13.284 3.01424C13.1169 3.3277 12.7815 3.60186 12.423 3.71791C12.0969 3.82347 12.1209 4.23848 12.453 4.23848C12.6071 4.23848 13.0289 4.02683 13.2918 3.81761C13.6336 3.54558 13.8989 3.06906 13.9457 2.64282C13.9553 2.55551 14.0105 2.38687 14.0687 2.26728C14.2544 1.88561 14.2383 1.4359 14.0259 1.06958C13.7967 0.6743 13.4211 0.449159 13.1745 0.559167ZM13.1637 1.44945C13.1057 1.47462 13.0128 1.52987 12.9573 1.57224C12.7286 1.74665 12.6016 1.77981 12.0946 1.79744C11.5518 1.81633 11.4393 1.85345 11.2916 2.06252C11.1815 2.21825 11.1607 2.38134 11.2101 2.69926C11.269 3.07769 11.2186 3.13474 10.7526 3.21732C10.5013 3.2619 10.3862 3.34911 10.3862 3.49512C10.3862 3.60623 10.5409 3.75037 10.66 3.75037C10.8117 3.75037 11.182 3.6576 11.3322 3.582C11.6964 3.39866 11.8075 3.12956 11.7286 2.62235C11.7075 2.48641 11.6999 2.36545 11.7118 2.35352C11.7237 2.34156 11.9485 2.32363 12.2114 2.31365C12.6044 2.29876 12.7209 2.28336 12.866 2.22719C13.1508 2.11688 13.4979 1.75705 13.4979 1.57215C13.4979 1.50656 13.3888 1.40107 13.3225 1.40253C13.2932 1.4032 13.2217 1.42431 13.1637 1.44945ZM12.7634 5.15134C12.6025 5.31223 12.6595 5.46672 12.9463 5.64702C13.3028 5.87121 13.4807 6.02463 13.5662 6.18168C13.7351 6.49197 13.7138 6.6819 13.408 7.59424L13.1984 8.21963L13.1807 8.9518C13.1709 9.35449 13.154 9.81646 13.143 9.97839C13.1234 10.267 13.1246 10.2744 13.2023 10.3521C13.2982 10.448 13.4581 10.4581 13.5611 10.3748C13.6555 10.2983 13.6728 10.1417 13.6976 9.13484L13.7179 8.31116L13.9267 7.68576C14.1675 6.96461 14.2213 6.66695 14.1704 6.33901C14.1049 5.91673 13.9204 5.67731 13.3635 5.29222C12.9839 5.02971 12.9038 5.01092 12.7634 5.15134ZM11.2686 6.79871C11.2158 6.85143 11.1794 6.92025 11.1794 6.96699C11.1794 7.01049 11.2534 7.24149 11.3438 7.48033C11.6457 8.27793 11.6836 8.46094 11.592 8.68005C11.5463 8.78957 11.4677 8.89829 11.043 9.43991C10.4339 10.2166 10.2102 10.719 10.1807 11.3771C10.1673 11.6747 10.1753 11.7696 10.2336 12.0021C10.3508 12.4702 10.629 13.041 11.0365 13.6499C11.3147 14.0654 11.5316 14.3437 12.2019 15.1447C13.0031 16.1021 13.181 16.3282 13.2669 16.4984C13.3986 16.759 13.4901 17.1126 13.5126 17.448C13.5739 18.3617 13.81 19.1313 14.2095 19.7199C14.2775 19.8202 14.4746 20.077 14.6475 20.2906C15.1696 20.9357 15.5563 21.5788 15.5926 21.8624C15.6028 21.9421 15.5829 22.0428 15.5289 22.1849C15.382 22.5713 15.4436 22.7436 15.7707 22.8613C16.0867 22.975 16.2379 23.0662 16.5329 23.3209C16.9181 23.6536 17.1483 23.7685 17.4663 23.7871C17.7553 23.804 18.1084 23.7468 18.2105 23.6665C18.3545 23.5532 18.3041 23.3461 18.1081 23.2461C17.8009 23.0894 17.5682 22.6967 17.0134 21.3986C16.1701 19.4253 15.6097 17.9025 15.3631 16.9141C15.2962 16.6456 15.157 16.1926 15.054 15.9074C14.9508 15.6221 14.7426 15.0456 14.5912 14.6261C13.9309 12.7966 13.1541 11.0463 12.912 10.8426C12.7689 10.7222 12.5893 10.7564 12.5228 10.9167C12.4857 11.0064 12.4981 11.0399 12.797 11.6591C12.9692 12.0158 13.1781 12.4654 13.2613 12.6584C13.7525 13.798 14.68 16.3529 14.8516 17.0393C15.0953 18.0133 15.5397 19.2367 16.3523 21.1698C16.7508 22.1178 16.9025 22.4585 17.1141 22.8805L17.2839 23.2191L17.188 23.163C17.1352 23.1322 16.98 23.0123 16.8432 22.8966C16.5689 22.6646 16.3458 22.5143 16.1825 22.4517C16.0238 22.3909 16.0187 22.3789 16.0764 22.205C16.1468 21.993 16.1229 21.7017 16.0137 21.4409C15.8511 21.0526 15.4773 20.4677 15.0996 20.0106C14.3362 19.0866 14.1507 18.6366 14.0367 17.4327C14.0014 17.059 13.9721 16.9111 13.8773 16.626C13.7383 16.2083 13.6195 16.021 13.1019 15.404C11.9328 14.0104 11.5581 13.5227 11.228 12.9651C10.6603 12.0062 10.5668 11.4596 10.8463 10.7348C10.9572 10.4471 11.1932 10.0894 11.6403 9.53143C11.8285 9.29653 12.0174 9.02883 12.0602 8.93655C12.1537 8.73496 12.1803 8.42525 12.1256 8.17647C12.0882 8.0063 11.7606 7.05354 11.6778 6.87394C11.5958 6.69606 11.4061 6.66119 11.2686 6.79871ZM16.6859 9.76164C16.602 9.77469 16.4333 9.78659 16.3109 9.78805C15.8236 9.79391 15.3879 9.93974 15.1615 10.1727C14.8953 10.4466 14.8744 10.7723 15.0991 11.1454C15.2349 11.371 15.2489 11.4217 15.1911 11.4795C15.1469 11.5236 14.9622 11.5901 14.8825 11.5905C14.8638 11.5906 14.8123 11.6191 14.7681 11.6539C14.5953 11.7898 14.7087 12.1093 14.9297 12.1093C15.0874 12.1093 15.4123 11.9843 15.5409 11.8742C15.6321 11.7962 15.6758 11.727 15.7114 11.6044C15.7757 11.3832 15.7462 11.2104 15.6035 10.9728C15.4462 10.7109 15.437 10.6701 15.5135 10.5728C15.6423 10.4091 15.8277 10.3471 16.2987 10.3099C16.6632 10.2811 16.978 10.1965 17.1113 10.0917C17.2169 10.0087 17.2158 9.87704 17.1089 9.79297C17.0247 9.72674 16.9469 9.721 16.6859 9.76164ZM9.46533 13.5715C9.42412 13.604 9.37384 13.6857 9.35362 13.7532C9.24959 14.1004 8.96227 14.2067 7.97696 14.2629C7.28622 14.3022 6.81849 14.4546 6.5738 14.7201C6.5036 14.7963 6.42663 14.9053 6.40274 14.9625C6.27855 15.2597 6.41077 15.618 6.75879 15.9273C6.9943 16.1366 7.03784 16.2268 6.95025 16.3236C6.85055 16.4337 6.72633 16.4764 6.28593 16.5518C6.04944 16.5923 5.80789 16.6408 5.74916 16.6596C5.62573 16.699 5.32844 16.8487 5.26035 16.9057C5.0688 17.066 5.0238 17.2745 5.15291 17.4036C5.27283 17.5235 5.38833 17.4994 5.60011 17.3101C5.73839 17.1865 5.90481 17.1327 6.40418 17.0501C7.0264 16.9473 7.32106 16.7995 7.4548 16.5232C7.53165 16.3644 7.53583 16.1985 7.46811 15.9967C7.42851 15.8787 7.35956 15.7895 7.14778 15.5822C6.85425 15.2949 6.82795 15.2317 6.94183 15.087C7.09061 14.8978 7.4077 14.8104 8.1136 14.7639C8.66535 14.7275 8.88799 14.6936 9.14904 14.606C9.67641 14.4291 9.98938 13.9891 9.82037 13.6623C9.77638 13.5772 9.67256 13.5126 9.57992 13.5126C9.5581 13.5126 9.50652 13.5391 9.46533 13.5715ZM10.6736 13.9136C10.5244 13.986 10.4419 14.3005 10.3105 15.2972C10.2662 15.6328 10.2158 15.9623 10.1985 16.0294C10.1494 16.2198 10.0476 16.3257 9.77223 16.4729C9.08634 16.8395 8.53008 17.4633 8.0999 18.3479C7.92092 18.7161 7.6553 19.364 7.48257 19.8537C7.26594 20.4679 7.12643 20.6392 6.74872 20.7551C6.46147 20.8432 6.35308 20.9114 6.2169 21.0899C6.08663 21.2606 6.04185 21.4369 6.0862 21.6045C6.11253 21.7039 6.17312 21.7849 6.34563 21.9511L6.57074 22.168L6.56461 22.546C6.55891 22.8985 6.564 22.9357 6.64006 23.099C6.84723 23.5435 7.43418 23.8759 7.63479 23.6623C7.72967 23.5613 7.75161 23.4159 7.68681 23.317C7.64941 23.2599 7.63931 23.2034 7.65218 23.123C7.6811 22.9422 8.05625 21.8129 8.20668 21.4539C8.45537 20.8603 8.89912 20.1476 9.39032 19.5529C9.6967 19.182 10.6455 18.2407 11.0574 17.899C11.6438 17.4124 11.8364 17.1752 12.0675 16.6543C12.1964 16.3641 12.2098 16.2705 12.1415 16.1384C12.0922 16.0432 12.0395 16.0141 11.9159 16.0141C11.7886 16.0141 11.7077 16.091 11.6509 16.2659C11.6223 16.3539 11.5384 16.5442 11.4645 16.6886C11.3182 16.9747 11.1572 17.1463 10.5871 17.6236C10.0153 18.1024 9.3031 18.8246 8.88384 19.3507C8.11269 20.3186 7.60307 21.3494 7.24181 22.6723C7.20172 22.8191 7.15901 22.9392 7.14687 22.9392C7.0979 22.9392 7.06972 22.7205 7.08369 22.4489C7.10541 22.0265 7.07118 21.9294 6.81474 21.6864C6.69848 21.5761 6.60336 21.4632 6.60336 21.4354C6.60336 21.3664 6.70113 21.3108 6.95461 21.2358C7.22664 21.1552 7.43104 21.0197 7.57851 20.8222C7.7301 20.6191 7.79923 20.4782 7.97525 20.0134C8.50976 18.6021 8.80666 18.0278 9.25822 17.5316C9.48342 17.2841 9.72168 17.0964 10.007 16.9416C10.3413 16.7602 10.4641 16.6667 10.5619 16.519C10.6839 16.3349 10.7316 16.1275 10.8427 15.2972C10.8943 14.9113 10.964 14.4889 10.9974 14.3584C11.0534 14.14 11.0544 14.114 11.0105 14.0292C10.9424 13.8972 10.8046 13.85 10.6736 13.9136Z" fill="#6281AA"/>
<path d="M11.5035 6.66841C11.5965 6.68564 11.6765 6.75171 11.7232 6.85298C11.7659 6.94558 11.8698 7.23123 11.9664 7.51216C12.0627 7.79255 12.1548 8.07663 12.1744 8.16549C12.2311 8.42323 12.2046 8.74454 12.106 8.95748C12.0824 9.00837 12.0216 9.10217 11.9458 9.20943C11.8691 9.31809 11.774 9.44472 11.6792 9.56295C11.2326 10.1204 11.0011 10.4727 10.8931 10.7524C10.7559 11.1082 10.7116 11.4171 10.7691 11.7534C10.827 12.0915 10.9883 12.4623 11.271 12.9399C11.5987 13.4933 11.971 13.9778 13.1402 15.3715C13.3988 15.6798 13.5596 15.8837 13.6734 16.0629C13.7879 16.2434 13.8541 16.3987 13.9244 16.6098C14.0207 16.8993 14.0508 17.0516 14.0865 17.4282C14.1433 18.0283 14.2176 18.4357 14.3706 18.8071C14.5238 19.1786 14.7575 19.5182 15.1382 19.979C15.5178 20.4384 15.895 21.0272 16.0601 21.4213C16.1727 21.6903 16.1987 21.9949 16.1236 22.2211C16.1091 22.2649 16.0997 22.2951 16.0953 22.3178C16.0908 22.3407 16.0932 22.3486 16.0943 22.351C16.0943 22.351 16.0982 22.3587 16.1158 22.3686C16.1339 22.3788 16.1606 22.3894 16.2007 22.4047C16.3722 22.4705 16.6006 22.6263 16.8755 22.8588C16.9771 22.9447 17.0881 23.029 17.1578 23.0795L17.0699 22.9028C16.8574 22.4792 16.7047 22.1371 16.3062 21.1889C15.4935 19.2555 15.0479 18.0292 14.8033 17.0512C14.6325 16.3685 13.7061 13.8168 13.2154 12.6782C13.1327 12.4863 12.9246 12.0375 12.7525 11.6811C12.6037 11.3729 12.5238 11.2068 12.4869 11.1069C12.4684 11.0568 12.4584 11.0185 12.4576 10.9848C12.4567 10.9491 12.4668 10.9227 12.4771 10.8979C12.5163 10.8033 12.5905 10.742 12.6792 10.7251C12.7672 10.7083 12.8627 10.736 12.9439 10.8042C12.9804 10.8348 13.023 10.8902 13.0689 10.9614C13.1156 11.0339 13.1692 11.1275 13.2281 11.2387C13.3459 11.4614 13.4865 11.7578 13.6402 12.104C13.9477 12.7968 14.3077 13.6932 14.6382 14.6088C14.7896 15.0282 14.998 15.6048 15.1011 15.8901C15.2047 16.1767 15.3442 16.6315 15.4117 16.9018C15.6572 17.8861 16.216 19.4065 17.0591 21.3794C17.3365 22.0284 17.5328 22.4482 17.6968 22.7251C17.8604 23.0011 17.9891 23.1294 18.1304 23.2016C18.2389 23.257 18.3123 23.3448 18.3355 23.4399C18.3589 23.5366 18.3292 23.6365 18.2417 23.7055C18.2091 23.7312 18.1606 23.7521 18.107 23.769C18.0521 23.7863 17.9868 23.8016 17.9165 23.8129C17.7761 23.8357 17.6119 23.846 17.4634 23.8374C17.1296 23.8179 16.8893 23.6946 16.5005 23.3588C16.2094 23.1075 16.0628 23.02 15.7535 22.9086C15.5857 22.8483 15.471 22.7683 15.4253 22.6411C15.381 22.517 15.4081 22.362 15.482 22.1674C15.5353 22.0273 15.5521 21.9357 15.5435 21.8686C15.5353 21.8051 15.5062 21.7173 15.4576 21.6088C15.4091 21.5009 15.3419 21.375 15.2593 21.2378C15.0942 20.9632 14.8688 20.6428 14.6089 20.3217C14.4363 20.1084 14.2381 19.851 14.1685 19.7485C13.7628 19.1508 13.5242 18.3716 13.4624 17.4516C13.4403 17.1219 13.3505 16.7748 13.2222 16.521C13.1816 16.4406 13.1183 16.3448 12.9634 16.1479C12.8086 15.9512 12.5642 15.6559 12.1636 15.1772C11.4931 14.376 11.2744 14.0951 10.9947 13.6772C10.5856 13.066 10.3042 12.4898 10.1851 12.0141C10.1557 11.8969 10.1384 11.8121 10.1304 11.7182C10.1225 11.6248 10.1237 11.5235 10.1304 11.3745C10.1607 10.7021 10.3911 10.1895 11.0035 9.40865C11.2159 9.13774 11.3417 8.97621 11.4195 8.86861C11.4969 8.76148 11.5247 8.71018 11.5455 8.6606C11.5868 8.56158 11.601 8.47146 11.5669 8.30709C11.5321 8.13889 11.4485 7.89768 11.2974 7.49849C11.252 7.37839 11.2103 7.25947 11.1802 7.16548C11.1652 7.11858 11.1527 7.077 11.1441 7.04439C11.1398 7.02824 11.1358 7.01364 11.1333 7.00142C11.1311 6.9902 11.1295 6.97784 11.1294 6.96724C11.1294 6.9325 11.1421 6.89497 11.1597 6.86177C11.1778 6.82762 11.2032 6.79291 11.233 6.76314C11.3116 6.68447 11.4102 6.65127 11.5035 6.66841ZM10.7095 13.8471C10.7679 13.831 10.8268 13.8324 10.8814 13.851C10.9541 13.876 11.0158 13.9301 11.0552 14.0063C11.0787 14.0518 11.0936 14.089 11.0914 14.146C11.0893 14.1968 11.0729 14.2635 11.0455 14.3706C11.0129 14.4977 10.9438 14.9178 10.8921 15.3042C10.7817 16.1294 10.7336 16.3506 10.604 16.5463C10.4989 16.705 10.3658 16.8041 10.0308 16.9858C9.75074 17.1378 9.51687 17.3216 9.29545 17.5649C8.85086 18.0535 8.5563 18.6201 8.02202 20.0307C7.84563 20.4964 7.77456 20.6432 7.6187 20.852C7.46391 21.0594 7.24981 21.2005 6.96928 21.2836C6.84293 21.3211 6.75931 21.3525 6.70854 21.3813C6.66529 21.4059 6.65584 21.4226 6.65385 21.4311C6.65543 21.434 6.6583 21.4377 6.66166 21.4428C6.67089 21.4568 6.68519 21.4756 6.70366 21.4975C6.74053 21.5413 6.79217 21.5958 6.84916 21.6499C6.97802 21.772 7.05896 21.8643 7.10112 21.9838C7.14264 22.1017 7.14417 22.2411 7.13334 22.4516C7.12647 22.5853 7.13023 22.7047 7.14116 22.7895C7.14217 22.7974 7.14395 22.8048 7.14506 22.812C7.15936 22.769 7.17816 22.7163 7.19389 22.6586C7.5567 21.3303 8.06871 20.2933 8.84428 19.3198C9.26584 18.7907 9.98113 18.0661 10.5552 17.5854C11.1251 17.1082 11.2792 16.9417 11.4205 16.6655C11.4938 16.5221 11.5757 16.3348 11.6031 16.2504C11.6326 16.1595 11.6706 16.0878 11.7222 16.0385C11.7757 15.9878 11.8407 15.9644 11.9156 15.9643C11.9802 15.9643 12.0348 15.9713 12.0806 15.9965C12.1276 16.0224 12.1592 16.0637 12.1861 16.1157C12.224 16.189 12.2407 16.2559 12.2281 16.3442C12.216 16.4281 12.1771 16.5296 12.1128 16.6743C11.9963 16.9369 11.8888 17.1311 11.7349 17.3208C11.5814 17.5099 11.3831 17.6933 11.0894 17.937C10.6798 18.2768 9.73377 19.2159 9.42924 19.5844C8.94057 20.176 8.49895 20.8848 8.25248 21.4731C8.17811 21.6506 8.04738 22.0209 7.9312 22.3706C7.87318 22.5452 7.8193 22.7147 7.77787 22.851C7.73598 22.989 7.70828 23.0902 7.7017 23.1313C7.6905 23.2017 7.69979 23.2448 7.72905 23.2895C7.80918 23.412 7.7783 23.583 7.67143 23.6967C7.60722 23.7651 7.51518 23.7857 7.41948 23.7768C7.3238 23.7679 7.21756 23.7295 7.11479 23.6713C6.90949 23.555 6.70288 23.3526 6.59428 23.1196C6.55588 23.0372 6.5331 22.9811 6.52202 22.8999C6.51138 22.8216 6.51138 22.72 6.5142 22.5454L6.52006 22.1889L6.31108 21.9868C6.13877 21.8208 6.06791 21.7317 6.03764 21.6176C5.98842 21.4316 6.04025 21.2397 6.17729 21.06C6.24762 20.9679 6.31324 20.9007 6.39995 20.8461C6.48557 20.7923 6.58943 20.7518 6.73393 20.7075C6.91692 20.6513 7.03635 20.5834 7.13725 20.4594C7.24035 20.3327 7.32696 20.1439 7.4351 19.8374C7.6083 19.3463 7.87522 18.6959 8.05522 18.3256C8.4887 17.4344 9.05141 16.8019 9.74858 16.4292C9.88466 16.3564 9.97325 16.2957 10.0337 16.2329C10.0928 16.1714 10.1272 16.1052 10.1499 16.017C10.1663 15.9536 10.2168 15.6276 10.2613 15.2905C10.3269 14.7928 10.3805 14.4622 10.4371 14.2465C10.4654 14.1387 10.4951 14.0561 10.5289 13.9956C10.5628 13.9347 10.6026 13.8925 10.6519 13.8686L10.7095 13.8471ZM10.8492 13.9458C10.8034 13.9301 10.7503 13.9322 10.6958 13.9585C10.6706 13.9707 10.6433 13.995 10.6158 14.0444C10.588 14.0943 10.5611 14.1676 10.5337 14.2719C10.479 14.4808 10.4256 14.8059 10.3599 15.3042C10.3159 15.6376 10.2649 15.97 10.2466 16.0415C10.2203 16.1436 10.1789 16.2264 10.106 16.3022C10.0345 16.3765 9.9344 16.4428 9.79545 16.517C9.12127 16.8776 8.57178 17.4921 8.14506 18.3696C7.96709 18.7356 7.70209 19.3822 7.52983 19.8706C7.42147 20.1778 7.32951 20.3815 7.2144 20.5229C7.09701 20.667 6.95783 20.7435 6.76323 20.8032C6.6209 20.8469 6.52696 20.8843 6.45268 20.9311C6.37941 20.9773 6.3222 21.0343 6.25639 21.1206C6.13337 21.2819 6.0951 21.4424 6.13432 21.5913C6.15673 21.6759 6.20786 21.7492 6.38041 21.9155L6.60502 22.1323L6.62065 22.1469V22.1684L6.61479 22.5463C6.61192 22.7239 6.61218 22.818 6.62162 22.8872C6.63066 22.9529 6.6478 22.9975 6.6851 23.0776C6.78363 23.289 6.97457 23.4758 7.16459 23.5835C7.25943 23.6372 7.35104 23.6699 7.42827 23.6772C7.50524 23.6844 7.56214 23.6666 7.59819 23.6284C7.68103 23.5402 7.6944 23.4195 7.64506 23.3442C7.59962 23.2748 7.58864 23.2049 7.60307 23.1147C7.61105 23.0653 7.64101 22.9572 7.68217 22.8217C7.72391 22.6843 7.7783 22.5144 7.83647 22.3393C7.95257 21.9898 8.08465 21.6166 8.16069 21.435C8.41161 20.8361 8.85838 20.1187 9.35209 19.521C9.6609 19.1472 10.612 18.2042 11.0259 17.8608C11.3184 17.6182 11.5097 17.4395 11.6568 17.2583C11.8034 17.0776 11.9075 16.8923 12.022 16.6342C12.0866 16.4888 12.1196 16.398 12.1294 16.3295C12.1385 16.2659 12.1274 16.22 12.0972 16.1616C12.075 16.1186 12.0553 16.0969 12.0328 16.0844C12.0091 16.0714 11.9746 16.0639 11.9156 16.0639C11.8635 16.064 11.8244 16.0796 11.7915 16.1108C11.7569 16.1437 11.726 16.198 11.6988 16.2817C11.6689 16.3736 11.5836 16.5662 11.5093 16.7114C11.358 17.0073 11.1895 17.1844 10.6197 17.6616C10.0502 18.1384 9.34034 18.859 8.92338 19.3823C8.15696 20.3442 7.64925 21.3681 7.28959 22.685C7.26934 22.7592 7.24872 22.8275 7.231 22.8774C7.22227 22.9019 7.21388 22.9233 7.20659 22.9389C7.20305 22.9465 7.19845 22.9546 7.19389 22.9614C7.19171 22.9646 7.18814 22.9694 7.18315 22.9741C7.17972 22.9772 7.1672 22.9896 7.14702 22.9897C7.12048 22.9897 7.10192 22.974 7.09135 22.9614C7.08085 22.9488 7.07348 22.9332 7.06791 22.9184C7.0566 22.8883 7.04842 22.848 7.04252 22.8022C7.03063 22.7099 7.02667 22.5844 7.03373 22.4467C7.04463 22.2349 7.04058 22.114 7.00639 22.017C6.9728 21.9218 6.90808 21.8438 6.7808 21.7231C6.72158 21.667 6.66721 21.6091 6.62748 21.562C6.60778 21.5386 6.59086 21.5169 6.57866 21.4985C6.57258 21.4893 6.56627 21.4801 6.56205 21.4711C6.55857 21.4638 6.55327 21.4501 6.55327 21.435C6.55344 21.3723 6.6 21.3283 6.65971 21.2944C6.72112 21.2596 6.81332 21.2255 6.93998 21.1879C7.20328 21.11 7.39855 20.9801 7.53862 20.7924C7.68588 20.5951 7.75263 20.4593 7.92827 19.9956C8.4629 18.584 8.76275 18.0013 9.22123 17.4975C9.44995 17.2462 9.69277 17.0554 9.98295 16.8979C10.3163 16.7171 10.4296 16.6281 10.5201 16.4917C10.6343 16.3192 10.6818 16.1248 10.7935 15.2905C10.8451 14.9052 10.9145 14.4801 10.9488 14.3461C10.9772 14.2354 10.9902 14.18 10.9917 14.142C10.993 14.1103 10.9866 14.0913 10.9664 14.0522C10.9376 13.9965 10.8951 13.9615 10.8492 13.9458ZM9.57963 13.4624C9.6917 13.4624 9.81254 13.5382 9.86479 13.6391C9.96061 13.8244 9.91654 14.0366 9.78666 14.2192C9.65659 14.402 9.4367 14.5625 9.16459 14.6538C8.89734 14.7434 8.66909 14.7775 8.11674 14.8139C7.76489 14.8371 7.51354 14.8705 7.33256 14.9204C7.15204 14.9701 7.04628 15.0347 6.981 15.1176C6.95366 15.1524 6.9394 15.1775 6.93315 15.1987C6.92769 15.2174 6.92743 15.2367 6.93803 15.2622C6.94949 15.2896 6.97247 15.3243 7.01323 15.3715C7.05373 15.4184 7.1099 15.4746 7.18315 15.5463C7.39471 15.7534 7.47137 15.8504 7.51518 15.9809C7.58614 16.1924 7.58324 16.3725 7.49955 16.5454C7.35389 16.8458 7.03507 16.9961 6.41264 17.0991C5.9115 17.182 5.75923 17.2347 5.63334 17.3471C5.52691 17.4423 5.43644 17.5043 5.35209 17.5219C5.30836 17.531 5.26643 17.5283 5.22612 17.5131C5.18645 17.4982 5.15092 17.4721 5.11772 17.4389C5.04006 17.3613 5.01534 17.2591 5.03764 17.1557C5.05962 17.054 5.12626 16.9529 5.22807 16.8676C5.24876 16.8503 5.28345 16.8278 5.3228 16.8051C5.36317 16.7819 5.41173 16.756 5.46147 16.7309C5.56002 16.6813 5.66826 16.6327 5.73393 16.6118C5.79678 16.5917 6.04267 16.5427 6.27787 16.5024C6.72166 16.4264 6.82753 16.3856 6.91362 16.2905C6.93162 16.2706 6.93856 16.2546 6.94096 16.2417C6.9432 16.2292 6.94156 16.2124 6.93022 16.1889C6.9056 16.1384 6.8432 16.0692 6.72514 15.9643C6.37008 15.6486 6.2209 15.2685 6.35698 14.9428C6.37115 14.9091 6.39885 14.8642 6.43022 14.8198C6.46226 14.7744 6.4999 14.7259 6.53666 14.686C6.79534 14.4054 7.28094 14.2528 7.97416 14.2133C8.46701 14.1853 8.77802 14.1447 8.97807 14.0708C9.07686 14.0342 9.14642 13.9897 9.19682 13.937C9.24709 13.8843 9.28187 13.8199 9.3062 13.7387C9.31777 13.7002 9.33705 13.6591 9.35893 13.6235C9.38042 13.5885 9.40698 13.5542 9.43412 13.5327C9.45723 13.5145 9.48375 13.4979 9.50737 13.4858C9.51914 13.4797 9.53127 13.4741 9.54252 13.4702C9.55274 13.4666 9.566 13.4624 9.57963 13.4624ZM9.57475 13.5649C9.56901 13.5669 9.561 13.5702 9.55229 13.5747C9.53456 13.5838 9.51448 13.5968 9.49662 13.6108C9.48269 13.6218 9.46279 13.6445 9.44389 13.6753C9.42543 13.7053 9.41052 13.7393 9.4019 13.768C9.37421 13.8603 9.33266 13.9397 9.26909 14.0063C9.20561 14.0727 9.12216 14.1242 9.01323 14.1645C8.7973 14.2444 8.47194 14.2849 7.98002 14.3129C7.29177 14.3522 6.84159 14.5041 6.61088 14.7544C6.57748 14.7906 6.54121 14.835 6.51127 14.8774C6.48091 14.9205 6.45852 14.9586 6.44877 14.9819C6.33662 15.2505 6.45107 15.5874 6.79155 15.8901C6.90857 15.9941 6.98672 16.0749 7.02104 16.146C7.03901 16.1832 7.04645 16.2211 7.03959 16.2592C7.0328 16.2968 7.01249 16.3286 6.98686 16.3569C6.87361 16.482 6.73089 16.5263 6.29448 16.601C6.05675 16.6418 5.81886 16.69 5.7642 16.7075C5.70643 16.726 5.60419 16.7715 5.50639 16.8208C5.4579 16.8452 5.41095 16.87 5.3726 16.892C5.33359 16.9145 5.30588 16.9327 5.29252 16.9438C5.20296 17.0188 5.15144 17.1024 5.1353 17.1772C5.11959 17.2504 5.13665 17.3172 5.18803 17.3686C5.21474 17.3953 5.23899 17.411 5.26127 17.4194C5.28274 17.4274 5.30528 17.4297 5.33159 17.4243C5.38791 17.4125 5.46159 17.3671 5.56694 17.2729C5.7176 17.1383 5.89861 17.0827 6.39604 17.0004C7.01739 16.8977 7.28781 16.7532 7.40971 16.5014C7.47971 16.3568 7.48494 16.2043 7.42045 16.0122C7.38505 15.907 7.32442 15.8247 7.11284 15.6176C7.0395 15.5459 6.9814 15.4872 6.93803 15.437C6.89498 15.3871 6.86383 15.3425 6.84623 15.3003C6.82785 15.256 6.82412 15.214 6.83647 15.1713C6.84821 15.131 6.87345 15.0935 6.90287 15.0561C6.98634 14.9501 7.1138 14.8765 7.30522 14.8237C7.49633 14.771 7.7564 14.7376 8.10991 14.7143C8.66076 14.678 8.87868 14.6445 9.13334 14.559C9.38839 14.4735 9.5886 14.3245 9.70463 14.1616C9.82076 13.9983 9.84909 13.8265 9.77592 13.685C9.74009 13.616 9.65274 13.5629 9.57963 13.5629C9.57963 13.5629 9.57674 13.5642 9.57475 13.5649ZM16.9673 9.68697C17.0404 9.69238 17.0907 9.71444 17.1402 9.75338C17.2035 9.80324 17.2391 9.87087 17.2398 9.94185C17.2404 10.0132 17.2054 10.0816 17.1421 10.1313C17.0674 10.19 16.9471 10.2394 16.8042 10.2778C16.66 10.3165 16.4868 10.3453 16.3023 10.3598C15.831 10.3971 15.6673 10.4591 15.5533 10.604C15.5349 10.6273 15.5247 10.6423 15.5201 10.6557C15.5161 10.6673 15.5157 10.6801 15.5201 10.6997C15.5248 10.7209 15.536 10.7495 15.5572 10.7905C15.5781 10.831 15.6069 10.8815 15.646 10.9467C15.7192 11.0686 15.7661 11.1778 15.7847 11.2866C15.8033 11.3959 15.7931 11.5024 15.7593 11.6186C15.7407 11.6826 15.719 11.7352 15.689 11.7827C15.6589 11.8303 15.622 11.8713 15.5738 11.9126C15.503 11.9731 15.3831 12.0338 15.2642 12.0795C15.1459 12.125 15.0185 12.1595 14.9302 12.1596C14.793 12.1596 14.6933 12.0604 14.6539 11.9497C14.6145 11.8389 14.6292 11.6996 14.7369 11.6147C14.7609 11.5958 14.7879 11.5787 14.8111 11.5659C14.8225 11.5596 14.8337 11.5535 14.8443 11.5493C14.8535 11.5456 14.8679 11.5406 14.8824 11.5405C14.9132 11.5403 14.9722 11.5261 15.0328 11.5044C15.062 11.4938 15.0903 11.4824 15.1128 11.4711C15.1368 11.4591 15.1508 11.4489 15.1558 11.4438C15.1667 11.4329 15.1709 11.4263 15.1724 11.4213C15.1738 11.4165 15.1744 11.4072 15.1695 11.3891C15.1584 11.349 15.1251 11.2857 15.0562 11.1713C14.9403 10.9789 14.8848 10.794 14.896 10.6186C14.9073 10.4425 14.9858 10.282 15.1255 10.1381C15.365 9.89177 15.8161 9.74373 16.3101 9.73775C16.431 9.7363 16.5975 9.72493 16.6783 9.71236C16.8083 9.69211 16.8983 9.68187 16.9673 9.68697ZM16.9595 9.78756C16.9034 9.78348 16.8242 9.79071 16.6939 9.81099C16.6069 9.82454 16.4349 9.83685 16.3111 9.83834C15.8309 9.84419 15.4113 9.98809 15.1978 10.2075C15.0715 10.3374 15.0052 10.477 14.9956 10.6254C14.9862 10.7746 15.0334 10.939 15.1421 11.1196C15.2089 11.2305 15.2507 11.3058 15.2662 11.3618C15.2743 11.3915 15.2761 11.4207 15.2681 11.4487C15.2601 11.4763 15.2436 11.4976 15.2261 11.5151C15.2091 11.532 15.1832 11.5472 15.1578 11.56C15.1308 11.5735 15.0992 11.5865 15.0669 11.5981C15.0043 11.6206 14.9312 11.6399 14.8824 11.6401C14.8875 11.6401 14.8885 11.6392 14.8814 11.642C14.8758 11.6443 14.8681 11.6477 14.8589 11.6528C14.8408 11.6628 14.8193 11.6771 14.7994 11.6928C14.7346 11.7438 14.7193 11.8327 14.7486 11.9155C14.778 11.9983 14.8466 12.059 14.9302 12.059C14.9996 12.0589 15.113 12.031 15.2281 11.9868C15.3431 11.9425 15.4504 11.8859 15.5083 11.8364C15.5513 11.7996 15.5816 11.766 15.605 11.729C15.6284 11.6919 15.6467 11.6486 15.6636 11.5903C15.694 11.4855 15.7017 11.3948 15.6861 11.3032C15.6703 11.2109 15.6305 11.1141 15.5611 10.9985C15.5218 10.933 15.4909 10.8801 15.4683 10.8364C15.4459 10.793 15.43 10.7559 15.4224 10.7221C15.4145 10.6869 15.4155 10.655 15.4263 10.6235C15.4366 10.5937 15.4542 10.5668 15.4742 10.5415C15.6176 10.3593 15.8245 10.2973 16.2945 10.2602C16.4742 10.246 16.6414 10.218 16.7789 10.1811C16.9177 10.1438 17.022 10.0983 17.0806 10.0522C17.1228 10.019 17.1405 9.97904 17.1402 9.94283C17.1398 9.90652 17.1209 9.86649 17.0777 9.83248C17.043 9.80521 17.0116 9.79141 16.9595 9.78756ZM12.9849 5.02193C13.0345 5.03358 13.0903 5.05882 13.1548 5.09615C13.2197 5.13369 13.2972 5.18575 13.3921 5.25142C13.6714 5.44459 13.862 5.60401 13.9908 5.77095C14.1208 5.93965 14.1865 6.11375 14.2203 6.3315C14.2731 6.67241 14.2149 6.98043 13.9742 7.70162L13.7671 8.31783L13.7476 9.13619C13.7352 9.6384 13.7251 9.93166 13.7056 10.1088C13.6863 10.2844 13.6564 10.3616 13.5923 10.4135C13.4687 10.5135 13.2799 10.5005 13.1665 10.3872C13.1479 10.3685 13.1296 10.3503 13.1158 10.3295C13.1007 10.3069 13.0913 10.2825 13.0865 10.2524C13.0778 10.1977 13.0837 10.116 13.0933 9.97506C13.1042 9.81435 13.1207 9.35335 13.1304 8.95064L13.148 8.21822L13.149 8.21041L13.1509 8.20357L13.3609 7.57857C13.5142 7.12127 13.594 6.85074 13.6158 6.6567C13.6265 6.56091 13.6225 6.48475 13.607 6.41548C13.5914 6.34615 13.5629 6.28071 13.522 6.20552C13.4434 6.06112 13.276 5.9131 12.9195 5.68892C12.775 5.59804 12.6764 5.50725 12.6402 5.40963C12.6215 5.35889 12.62 5.3071 12.6363 5.25631C12.6522 5.20647 12.6843 5.15949 12.7281 5.11568C12.7645 5.07931 12.8012 5.0484 12.8433 5.03072C12.8874 5.01227 12.9337 5.00995 12.9849 5.02193ZM12.8824 5.12349C12.8583 5.13357 12.8321 5.15328 12.7984 5.18697C12.762 5.22347 12.7406 5.25665 12.731 5.28658C12.7218 5.3155 12.7227 5.34409 12.7339 5.37447C12.7578 5.43916 12.8313 5.51572 12.9732 5.60494C13.3293 5.82888 13.5176 5.98814 13.6099 6.15767C13.6533 6.23746 13.6863 6.31212 13.7046 6.394C13.723 6.47606 13.7261 6.56303 13.7144 6.66744C13.6913 6.87396 13.6081 7.155 13.4556 7.60982L13.2476 8.22701L13.231 8.95259C13.2213 9.35526 13.204 9.81874 13.1929 9.98189C13.1829 10.1294 13.1787 10.1962 13.1851 10.2368C13.1879 10.254 13.1925 10.2644 13.1988 10.2739C13.2063 10.2852 13.2178 10.2968 13.2378 10.3169C13.3163 10.3952 13.4475 10.4029 13.5298 10.3364C13.5601 10.3118 13.5869 10.2717 13.606 10.0981C13.6249 9.9261 13.6356 9.63731 13.648 9.13326L13.6675 8.31002L13.6685 8.3022L13.6705 8.29537L13.8794 7.67037C14.12 6.9497 14.1694 6.66188 14.1206 6.34713C14.0889 6.14269 14.0294 5.98527 13.9117 5.83248C13.7926 5.67805 13.6126 5.52511 13.3355 5.33345C13.2408 5.26795 13.1653 5.21848 13.104 5.18306C13.0426 5.14754 12.9978 5.12791 12.9624 5.11959C12.9288 5.11168 12.9046 5.11421 12.8824 5.12349ZM12.0894 5.01607C12.0895 4.85599 12.0875 4.76405 12.0787 4.69869C12.0702 4.63634 12.056 4.59823 12.0289 4.54732C11.8377 4.18924 11.446 4.04189 11.1177 4.19088C11.0679 4.21351 11.0107 4.25837 10.9497 4.32466C10.8892 4.39061 10.8267 4.47568 10.7662 4.57466C10.645 4.77266 10.5324 5.02466 10.4537 5.28951C10.4112 5.43205 10.2995 5.8093 10.2056 6.1274C10.1586 6.28657 10.1152 6.43289 10.0826 6.53951C10.0664 6.59252 10.0523 6.63582 10.0425 6.66646C10.0376 6.68177 10.0338 6.69475 10.0308 6.70357C10.0294 6.70762 10.0281 6.71129 10.0269 6.71431L10.022 6.72408C10.022 6.72408 10.0186 6.73046 10.0132 6.7358C10.0009 6.74807 9.98655 6.7521 9.97807 6.75338C9.96906 6.75469 9.95995 6.75413 9.95268 6.75338C9.9379 6.7518 9.92068 6.74777 9.90385 6.74263C9.86949 6.73212 9.82582 6.7145 9.7808 6.69381C9.6911 6.65253 9.58666 6.59482 9.51713 6.54244C9.34848 6.41538 9.22876 6.26806 9.15385 6.08736C9.0793 5.90744 9.05076 5.69749 9.0601 5.44576C9.06557 5.29931 9.06947 5.21326 9.0894 5.13619C9.10954 5.05835 9.14527 4.99096 9.20659 4.87935C9.24993 4.80043 9.28099 4.73542 9.30034 4.68111C9.31978 4.62646 9.32616 4.58528 9.32377 4.55416C9.32149 4.5248 9.31085 4.50224 9.29155 4.48189C9.27109 4.46039 9.23925 4.43962 9.19096 4.41939C9.07863 4.37246 8.99846 4.26219 8.95659 4.13619C8.91442 4.00909 8.90822 3.85803 8.94975 3.71822C8.98698 3.59288 9.04487 3.48998 9.13725 3.39791C9.22891 3.30664 9.35293 3.22787 9.51811 3.14791C9.75044 3.03545 9.88806 2.93611 9.97514 2.8022C10.0625 2.66763 10.1036 2.49037 10.1265 2.20943C10.1417 2.02267 10.1697 1.80126 10.189 1.71724C10.2326 1.52725 10.3698 1.37136 10.5406 1.33931C10.6069 1.32684 10.6609 1.30132 10.7076 1.25924C10.7549 1.21647 10.7975 1.15473 10.8384 1.06685L10.8833 0.983844C11.0013 0.789545 11.2099 0.601647 11.4312 0.492633C11.5153 0.451232 11.5792 0.424555 11.6509 0.407672C11.7222 0.390914 11.7991 0.384696 11.9087 0.380329C12.0318 0.375427 12.1059 0.373452 12.1744 0.388141C12.2434 0.402976 12.3047 0.434139 12.4039 0.486774C12.5266 0.551882 12.6086 0.580135 12.6675 0.581501C12.6955 0.582135 12.7176 0.576311 12.7369 0.565876C12.7565 0.55519 12.7765 0.537986 12.7964 0.511188C12.8278 0.468938 12.8311 0.45963 12.8316 0.449665C12.8318 0.443507 12.8304 0.433322 12.8247 0.414508C12.819 0.395684 12.8104 0.371503 12.7974 0.33736C12.7462 0.203406 12.6037 0.0879827 12.4019 0.0160709C12.2018 -0.055139 11.9511 -0.0807017 11.6978 -0.0425228C11.2293 0.0281703 10.7925 0.328252 10.5103 0.77779C10.4667 0.84727 10.4115 0.903827 10.3462 0.945758L10.2779 0.982868C10.0939 1.0646 9.96644 1.17746 9.87748 1.35103C9.78732 1.527 9.73431 1.76843 9.70756 2.10982C9.69777 2.23497 9.68703 2.33246 9.67338 2.40572C9.65999 2.47749 9.64316 2.53242 9.6187 2.56978C9.59614 2.60413 9.54915 2.64144 9.49467 2.6772C9.43798 2.71441 9.3662 2.75499 9.28569 2.79341C8.90328 2.97594 8.65443 3.25344 8.55424 3.56295C8.45428 3.87177 8.49993 4.2178 8.71537 4.54146L8.80424 4.67427L8.81889 4.69673L8.80912 4.72115L8.73686 4.89888C8.62936 5.16345 8.59566 5.44044 8.63432 5.75826C8.68868 6.20516 8.8325 6.49058 9.14799 6.78267C9.23266 6.86106 9.36721 6.95385 9.49565 7.02681C9.5596 7.06314 9.62097 7.09404 9.67241 7.11568C9.72583 7.13815 9.7619 7.14775 9.77885 7.14791C9.79042 7.14791 9.81924 7.14835 9.84037 7.17037C9.86147 7.19245 9.86227 7.22144 9.86088 7.2397C9.85791 7.27865 9.8393 7.34392 9.80912 7.44771C9.73491 7.70302 9.70247 7.82197 9.72807 7.9858C9.75453 8.155 9.8429 8.37253 10.0269 8.81881C10.1775 9.18415 10.2913 9.40688 10.3882 9.51998C10.4364 9.5761 10.4757 9.59889 10.5064 9.60396C10.5351 9.60857 10.568 9.59984 10.6099 9.56685C10.642 9.54158 10.6586 9.52152 10.6665 9.49556C10.6751 9.4676 10.6758 9.42497 10.6597 9.35103C10.6271 9.20177 10.5319 8.95237 10.3482 8.49752C10.283 8.33599 10.2321 8.1994 10.1978 8.0942C10.1807 8.04173 10.1676 7.99644 10.1587 7.95943C10.1502 7.92367 10.1441 7.89102 10.1451 7.86666C10.1455 7.85469 10.1492 7.83753 10.1529 7.81978C10.1568 7.80088 10.1617 7.7771 10.1685 7.74947C10.1823 7.69343 10.2023 7.61958 10.2261 7.53365C10.2738 7.36177 10.3387 7.13962 10.4097 6.90865C10.5516 6.44755 10.7186 5.89215 10.7808 5.67427C10.8682 5.36811 10.9502 5.13137 11.0318 4.95748C11.1127 4.78501 11.1966 4.66688 11.2896 4.60591C11.3228 4.58417 11.3547 4.56688 11.3921 4.56392C11.4288 4.56111 11.4635 4.57262 11.5015 4.58834C11.6404 4.64588 11.6909 4.81131 11.6861 5.00728C11.6811 5.2085 11.6185 5.46702 11.5015 5.74947C11.4422 5.89268 11.4171 5.97913 11.4165 6.04146C11.4161 6.09701 11.4356 6.13663 11.4869 6.18795C11.5317 6.23279 11.5653 6.25244 11.5962 6.25826C11.6269 6.264 11.6641 6.25843 11.7203 6.23287C11.7382 6.22469 11.7511 6.21543 11.7642 6.20162C11.778 6.18709 11.7934 6.16541 11.8121 6.12838C11.85 6.05296 11.8969 5.92637 11.9751 5.70162C12.0305 5.54271 12.0581 5.45739 12.0728 5.36959C12.0875 5.28172 12.0893 5.18938 12.0894 5.01607ZM13.1539 0.513141C13.2982 0.448749 13.472 0.48634 13.6324 0.582477C13.7939 0.679367 13.9507 0.84068 14.0689 1.04439C14.2897 1.42515 14.3068 1.89292 14.1138 2.28951C14.0571 2.4061 14.0045 2.56835 13.9956 2.64791C13.9474 3.08768 13.6749 3.57674 13.3228 3.85689C13.1882 3.96399 13.0139 4.0706 12.854 4.15084C12.774 4.19102 12.6963 4.22548 12.6285 4.24947C12.5622 4.2729 12.5 4.28853 12.4527 4.28853C12.359 4.28846 12.2824 4.25866 12.2281 4.20845C12.1742 4.1585 12.1453 4.09104 12.1412 4.02095C12.133 3.87959 12.2247 3.72961 12.4078 3.67037C12.7546 3.55803 13.0792 3.29192 13.2398 2.99068C13.3118 2.85562 13.3381 2.76492 13.3531 2.59127C13.3611 2.49785 13.3708 2.42764 13.3892 2.3647C13.4079 2.3009 13.4347 2.24581 13.4732 2.18306C13.5236 2.10075 13.5802 1.98907 13.5982 1.93697C13.6505 1.78534 13.6346 1.60423 13.5669 1.44478C13.4991 1.28516 13.3819 1.15372 13.2417 1.09517C13.1582 1.06025 13.0946 1.02392 13.0523 0.977008C13.0077 0.927545 12.9908 0.870523 12.9908 0.804157C12.9908 0.729822 12.9972 0.66938 13.024 0.620563C13.0519 0.569676 13.0967 0.538655 13.1539 0.513141ZM13.4478 1.57174C13.4477 1.56776 13.4457 1.55813 13.4371 1.54341C13.4285 1.52885 13.4151 1.51314 13.3999 1.49849C13.3849 1.48394 13.369 1.47155 13.354 1.46334C13.3384 1.45477 13.328 1.45256 13.3238 1.45259C13.3163 1.45276 13.2966 1.45592 13.2681 1.46431C13.2411 1.47228 13.2102 1.48385 13.1831 1.49556C13.1293 1.51903 13.0404 1.57174 12.9878 1.61177C12.8706 1.70121 12.7755 1.75786 12.6431 1.79244C12.5133 1.82631 12.3493 1.83832 12.0962 1.84713C11.8241 1.8566 11.6676 1.8707 11.5611 1.90572C11.4604 1.93897 11.4027 1.99198 11.3326 2.09127C11.2337 2.23112 11.2106 2.37852 11.2593 2.69185C11.274 2.7865 11.2829 2.86549 11.2789 2.93111C11.2747 2.99816 11.2567 3.05522 11.2154 3.10201C11.1751 3.1476 11.1174 3.17854 11.0445 3.20259C10.9715 3.22665 10.8778 3.24542 10.7613 3.26607C10.6386 3.28783 10.5563 3.31937 10.5054 3.35787C10.4575 3.39417 10.4361 3.43842 10.4361 3.49556C10.4363 3.53065 10.4633 3.58161 10.5122 3.6274C10.561 3.6728 10.6179 3.7005 10.6597 3.70064C10.729 3.70064 10.8551 3.67847 10.9849 3.64595C11.1142 3.61356 11.2402 3.57276 11.3101 3.53756C11.4846 3.44965 11.5923 3.34386 11.6499 3.20455C11.7083 3.06331 11.718 2.87997 11.6792 2.63033C11.6685 2.56131 11.6609 2.49533 11.6578 2.44478C11.6562 2.41966 11.656 2.39699 11.6568 2.37935C11.6571 2.37081 11.6573 2.36196 11.6587 2.35396C11.6595 2.34993 11.6607 2.3445 11.6626 2.33931C11.6643 2.33481 11.6684 2.3258 11.6763 2.31783L11.691 2.30709C11.6944 2.30538 11.6983 2.30498 11.7007 2.30416C11.7056 2.30253 11.7107 2.30125 11.7154 2.30025C11.7251 2.29819 11.7376 2.29621 11.7515 2.29439C11.7796 2.29071 11.8182 2.28631 11.8638 2.28267C11.9552 2.27539 12.0777 2.26912 12.2095 2.26412C12.6028 2.24922 12.7119 2.23292 12.8482 2.18013C12.9815 2.12838 13.1334 2.0164 13.2525 1.89302C13.3117 1.83166 13.3615 1.76876 13.396 1.71138C13.4315 1.65255 13.4478 1.60432 13.4478 1.57174ZM11.23 6.97017C11.2304 6.97298 11.231 6.9771 11.232 6.98189C11.2339 6.99145 11.2368 7.00387 11.2408 7.019C11.2488 7.04936 11.2602 7.08914 11.2749 7.13521C11.3044 7.22722 11.3453 7.34374 11.3902 7.46236C11.5408 7.86012 11.6278 8.10919 11.6646 8.28658C11.7021 8.46789 11.6884 8.57959 11.6382 8.69967C11.6132 8.75944 11.5797 8.81764 11.5005 8.9272C11.4214 9.03673 11.2948 9.20054 11.0826 9.47115C10.477 10.2434 10.2599 10.7357 10.231 11.3794C10.2243 11.5276 10.2227 11.623 10.23 11.7094C10.2373 11.7954 10.253 11.8746 10.2818 11.9897C10.3971 12.4501 10.6719 13.0162 11.0777 13.6225C11.3542 14.0356 11.5699 14.3122 12.2398 15.1128C12.64 15.591 12.8856 15.8872 13.0415 16.0854C13.1973 16.2833 13.2667 16.3863 13.3121 16.476C13.4471 16.7435 13.5392 17.1039 13.5621 17.4448C13.6229 18.352 13.8573 19.1124 14.2505 19.6919C14.3173 19.7902 14.5133 20.0457 14.6861 20.2592C14.9483 20.5832 15.1774 20.9068 15.3453 21.186C15.4292 21.3256 15.4978 21.4552 15.5484 21.5678C15.5985 21.6795 15.6321 21.7778 15.6421 21.8559C15.6539 21.9481 15.6305 22.0586 15.5757 22.2026C15.5029 22.3942 15.4877 22.5189 15.5191 22.6069C15.5493 22.6915 15.6286 22.7567 15.7876 22.8139C16.1102 22.93 16.267 23.0245 16.566 23.2827C16.9475 23.6121 17.1671 23.7191 17.4693 23.7368C17.6098 23.745 17.767 23.736 17.9009 23.7143C17.9676 23.7035 18.0277 23.6897 18.0767 23.6743C18.1267 23.6585 18.1609 23.6418 18.1792 23.6274C18.2354 23.5832 18.2524 23.5233 18.2378 23.4633C18.2228 23.4016 18.173 23.3351 18.0855 23.2905C17.9198 23.2059 17.7789 23.0595 17.6109 22.7758C17.4431 22.4927 17.2446 22.0673 16.9673 21.4184C16.1239 19.4448 15.5626 17.9187 15.315 16.9262C15.2485 16.6596 15.1099 16.2081 15.0074 15.9243C14.9043 15.639 14.6959 15.0625 14.5445 14.643C14.2147 13.7293 13.8558 12.8355 13.5494 12.145C13.3961 11.7997 13.2556 11.5055 13.1392 11.2856C13.0811 11.176 13.0294 11.0852 12.9849 11.0161C12.9394 10.9455 12.9035 10.9015 12.8794 10.8813C12.8176 10.8292 12.7519 10.8134 12.6978 10.8237C12.6445 10.8339 12.5961 10.8704 12.5689 10.936C12.5607 10.9557 12.5579 10.967 12.5581 10.9819C12.5586 10.999 12.5634 11.0251 12.5806 11.0717C12.6154 11.1658 12.6922 11.3263 12.8423 11.6372C13.0145 11.9938 13.2235 12.444 13.3072 12.6381C13.7987 13.7785 14.7271 16.3361 14.8999 17.0268C15.1426 17.997 15.5856 19.2181 16.398 21.1508C16.7963 22.0984 16.9479 22.4376 17.1587 22.8579L17.3287 23.1967L17.4039 23.3471L17.2583 23.2622L17.1626 23.2065C17.1055 23.1732 16.9473 23.0503 16.8111 22.935C16.5376 22.7036 16.3195 22.5579 16.1646 22.4985C16.1255 22.4835 16.0917 22.4701 16.066 22.4555C16.0399 22.4407 16.0156 22.4206 16.0025 22.3901C15.9898 22.3604 15.9918 22.3292 15.9976 22.2993C16.0035 22.2691 16.0146 22.2319 16.0289 22.1889C16.0944 21.9912 16.0731 21.713 15.9673 21.4604C15.8073 21.0781 15.4368 20.4972 15.0611 20.0424C14.6784 19.5792 14.4378 19.2306 14.2789 18.8452C14.12 18.4598 14.044 18.0403 13.9869 17.437C13.9518 17.0666 13.9229 16.9225 13.8296 16.642C13.761 16.4358 13.6983 16.2883 13.5894 16.1167C13.4796 15.9437 13.3228 15.7445 13.064 15.436C11.8953 14.0428 11.5175 13.5522 11.1851 12.9907C10.9003 12.5095 10.7315 12.1269 10.6705 11.771C10.6092 11.4132 10.6573 11.0859 10.7994 10.7172C10.9133 10.4217 11.1541 10.0584 11.6011 9.50045C11.6945 9.38383 11.7883 9.25876 11.8638 9.15181C11.9403 9.04345 11.996 8.95687 12.0152 8.91549C12.1033 8.72523 12.1294 8.42664 12.0767 8.18697C12.0586 8.10512 11.9688 7.82813 11.8716 7.54537C11.7744 7.26261 11.6725 6.98203 11.6324 6.89498C11.5971 6.8185 11.5414 6.77744 11.4849 6.76705C11.4285 6.75671 11.3631 6.77561 11.3042 6.83443C11.2813 6.85736 11.2619 6.88354 11.2486 6.90865C11.2348 6.93466 11.229 6.95532 11.229 6.96724L11.23 6.97017ZM12.19 5.01607C12.1899 5.18801 12.1877 5.28876 12.1714 5.38619C12.1551 5.48373 12.1248 5.57716 12.0699 5.73482C11.9923 5.95749 11.9434 6.09082 11.9019 6.1733C11.8809 6.21503 11.8605 6.2466 11.8374 6.27095C11.8137 6.29606 11.7882 6.31141 11.7613 6.32369C11.6968 6.35303 11.6374 6.36809 11.5777 6.35689C11.5182 6.34569 11.4674 6.31004 11.4165 6.25923C11.3531 6.19573 11.3152 6.13148 11.316 6.04048C11.3167 5.95617 11.3508 5.8527 11.4097 5.71041C11.5237 5.43498 11.5819 5.18994 11.5865 5.00533C11.5911 4.81542 11.5397 4.71172 11.4634 4.68013C11.4274 4.66522 11.4113 4.6627 11.3999 4.66353C11.3891 4.66439 11.3748 4.66895 11.3443 4.68892C11.2753 4.73415 11.2016 4.83117 11.1226 4.99947C11.0443 5.1663 10.9634 5.39716 10.8765 5.70162C10.814 5.92052 10.6473 6.47675 10.5054 6.93795C10.4346 7.16818 10.3692 7.38919 10.3218 7.56002C10.2982 7.64537 10.2796 7.71825 10.2662 7.77291C10.2594 7.80028 10.2541 7.82302 10.2505 7.84029C10.2468 7.8584 10.2458 7.86768 10.2456 7.87056C10.2453 7.88034 10.2472 7.90136 10.2554 7.93599C10.2634 7.96936 10.2759 8.01191 10.2925 8.06295C10.3259 8.16519 10.3762 8.29993 10.441 8.46041C10.6231 8.9115 10.7225 9.16999 10.7574 9.32955C10.7748 9.40947 10.778 9.4717 10.7622 9.52388C10.7457 9.5781 10.7109 9.61397 10.6714 9.64498C10.6163 9.68831 10.5559 9.71348 10.4898 9.70259C10.4256 9.69199 10.3679 9.64922 10.313 9.58541C10.204 9.45843 10.0842 9.22094 9.93412 8.85689C9.75265 8.41675 9.65824 8.18542 9.62944 8.00142C9.59983 7.81211 9.6402 7.67227 9.71342 7.42037C9.74098 7.3256 9.75283 7.27276 9.75737 7.24361C9.72162 7.23883 9.6774 7.22601 9.63334 7.20748C9.57743 7.18393 9.51283 7.15121 9.44682 7.11373C9.31473 7.0387 9.17207 6.94149 9.07963 6.85591C8.74613 6.54705 8.59176 6.23922 8.53471 5.76998C8.49428 5.4373 8.52953 5.14273 8.64409 4.8608L8.70561 4.70748L8.63237 4.59713C8.4014 4.2503 8.34947 3.87299 8.45952 3.53267C8.56954 3.19277 8.83989 2.89487 9.24272 2.70259C9.32014 2.66563 9.38795 2.62738 9.43998 2.59322C9.49383 2.55786 9.5244 2.53054 9.53471 2.51509C9.54781 2.49509 9.56184 2.45642 9.57475 2.38716C9.58743 2.31911 9.59825 2.22598 9.60795 2.10201C9.63504 1.75634 9.68938 1.49881 9.78862 1.30513C9.88913 1.10918 10.0345 0.980985 10.2369 0.891071C10.3135 0.85699 10.3771 0.801714 10.4253 0.725055C10.7212 0.253824 11.1825 -0.0656035 11.6831 -0.141156C11.9517 -0.181603 12.2193 -0.154911 12.4361 -0.0776791C12.6513 -0.000957102 12.8252 0.129522 12.8912 0.302204C12.9037 0.335184 12.9136 0.362522 12.9205 0.385212C12.9274 0.408012 12.9329 0.430376 12.9322 0.452594C12.9305 0.499332 12.9039 0.533946 12.8765 0.570758C12.8505 0.60569 12.8205 0.634323 12.7847 0.653766C12.7486 0.673405 12.709 0.682065 12.6656 0.68111C12.5814 0.679204 12.4812 0.640602 12.357 0.574665C12.2552 0.520627 12.2059 0.497171 12.1529 0.485797C12.0993 0.474369 12.039 0.474906 11.9126 0.479938C11.8041 0.484262 11.7349 0.49085 11.6734 0.505329C11.6126 0.519682 11.5566 0.542343 11.4751 0.582477C11.2392 0.698718 11.0216 0.91049 10.9292 1.10884C10.8849 1.20407 10.8348 1.27861 10.774 1.33345C10.7124 1.38888 10.6419 1.42238 10.5591 1.43795C10.4366 1.46093 10.3227 1.57846 10.2857 1.7397C10.2682 1.81623 10.2413 2.03103 10.2261 2.21724C10.2029 2.50169 10.16 2.7003 10.0581 2.85689C9.95585 3.01419 9.79825 3.12296 9.56108 3.23775C9.40071 3.3154 9.28799 3.38813 9.20756 3.46822C9.1281 3.54738 9.07843 3.63559 9.04545 3.74654C9.01005 3.86573 9.01525 3.99624 9.05131 4.10494C9.08771 4.21433 9.15256 4.29462 9.22905 4.32662C9.28393 4.34955 9.33077 4.37673 9.36479 4.41256C9.39991 4.44958 9.41931 4.49421 9.42338 4.54634C9.42726 4.59696 9.4159 4.65298 9.39409 4.71431C9.3722 4.77579 9.33892 4.84626 9.29448 4.9272C9.23204 5.04085 9.20254 5.0979 9.18608 5.16158C9.16948 5.22593 9.16528 5.29961 9.15971 5.44869C9.15066 5.69147 9.17828 5.88668 9.24565 6.04927C9.3128 6.21126 9.4212 6.34448 9.57768 6.46236C9.63946 6.50888 9.73673 6.56339 9.8228 6.60298C9.86578 6.62275 9.90477 6.63825 9.93315 6.64693C9.93659 6.64798 9.93999 6.64809 9.94291 6.64888C9.94418 6.64498 9.94634 6.64074 9.9478 6.63619C9.9574 6.60612 9.97069 6.56309 9.98686 6.51021C10.0193 6.40398 10.063 6.25803 10.1099 6.09908C10.2038 5.781 10.3155 5.40383 10.358 5.26119C10.439 4.98861 10.5552 4.72886 10.6812 4.52291C10.7442 4.41994 10.8095 4.32916 10.8755 4.25728C10.9411 4.18587 11.0096 4.13051 11.0767 4.10006C11.4599 3.92622 11.9046 4.10297 12.1167 4.50045C12.1483 4.55954 12.1679 4.6086 12.1783 4.68502C12.1882 4.75832 12.1901 4.85732 12.19 5.01607ZM13.5484 1.57174C13.5484 1.63161 13.5206 1.69905 13.482 1.76314C13.4426 1.82851 13.3877 1.89707 13.3247 1.96236C13.1993 2.09244 13.0356 2.21525 12.8843 2.27388C12.7305 2.33342 12.6059 2.34886 12.2134 2.36373C12.0826 2.36869 11.9613 2.37513 11.8716 2.38228C11.8267 2.38587 11.7898 2.38967 11.7642 2.39302C11.7614 2.39339 11.7588 2.39365 11.7564 2.394C11.7563 2.40559 11.7563 2.42036 11.7574 2.43795C11.7603 2.48481 11.7675 2.54788 11.7779 2.6147C11.8179 2.87209 11.8112 3.07675 11.7427 3.24263C11.6735 3.41025 11.5443 3.53107 11.355 3.62642C11.2749 3.66677 11.1396 3.70976 11.0083 3.74263C10.8776 3.77536 10.742 3.80025 10.6597 3.80025C10.5825 3.80012 10.5021 3.75489 10.4439 3.70064C10.3865 3.64699 10.3367 3.57116 10.3365 3.49556C10.3365 3.4068 10.3726 3.33369 10.4449 3.27877C10.5144 3.22608 10.6153 3.19121 10.7437 3.16841C10.86 3.14779 10.9476 3.12854 11.0132 3.10689C11.0789 3.0852 11.1179 3.06286 11.1412 3.03658C11.1633 3.0115 11.176 2.97783 11.1792 2.92525C11.1826 2.87126 11.1754 2.80085 11.1607 2.7065C11.1106 2.38434 11.1294 2.20517 11.2505 2.03365C11.328 1.92406 11.4009 1.85329 11.5289 1.81099C11.6512 1.7706 11.8232 1.75691 12.0933 1.74752C12.3469 1.73869 12.5001 1.72548 12.6177 1.69478C12.7326 1.66477 12.816 1.61759 12.9273 1.53267C12.9857 1.48811 13.0821 1.43068 13.1441 1.40377C13.175 1.39037 13.2092 1.37764 13.2398 1.36861C13.2687 1.36007 13.3 1.35348 13.3218 1.35299C13.3506 1.35245 13.3787 1.36276 13.4019 1.37545C13.426 1.38865 13.4498 1.40649 13.4703 1.42623C13.4906 1.44592 13.5091 1.4691 13.523 1.49263C13.5363 1.51523 13.5483 1.5429 13.5484 1.57174ZM13.0904 0.804157C13.0904 0.850696 13.1017 0.882013 13.1265 0.909626C13.1537 0.939786 13.2009 0.969995 13.2808 1.00338C13.4507 1.0745 13.5836 1.22878 13.6587 1.40572C13.734 1.58307 13.7541 1.79041 13.6919 1.97017C13.6704 2.03218 13.6102 2.15082 13.5581 2.2358C13.5229 2.29332 13.5014 2.33951 13.4859 2.39205C13.4702 2.44557 13.4605 2.50852 13.4527 2.60006C13.4367 2.78551 13.4067 2.88921 13.3277 3.03756C13.1541 3.36318 12.8079 3.64533 12.438 3.76509C12.2951 3.81145 12.2354 3.92261 12.2408 4.01509C12.2435 4.06165 12.2629 4.10418 12.2964 4.13521C12.3297 4.16599 12.3806 4.18885 12.4527 4.18892C12.4823 4.18892 12.5311 4.17745 12.5953 4.15474C12.6581 4.13252 12.7317 4.10083 12.8091 4.06197C12.9641 3.98419 13.1321 3.88071 13.2603 3.77877C13.5919 3.51486 13.8507 3.04988 13.896 2.63716C13.9065 2.54197 13.9645 2.36785 14.024 2.24556C14.2024 1.87881 14.187 1.44609 13.983 1.0942C13.872 0.902876 13.7256 0.754388 13.5806 0.667438C13.4344 0.579914 13.297 0.559369 13.1949 0.604938C13.1467 0.626469 13.1246 0.6453 13.1119 0.668415C13.0979 0.693843 13.0904 0.732717 13.0904 0.804157Z" fill="#6281AA"/>
</g>
<defs>
<clipPath id="clip0_128_1535">
<rect width="24" height="24" fill="white"/>
</clipPath>
</defs>
</svg>
