<svg width="24" height="24" viewBox="0 0 24 24" fill="none" xmlns="http://www.w3.org/2000/svg">
<path fill-rule="evenodd" clip-rule="evenodd" d="M12.1239 0.307348C12.0989 0.266972 12.7317 0.109857 13.0911 0.0671721C13.3806 0.0328 14.0866 0.0520971 14.4229 0.103556C14.7107 0.14756 15.2682 0.321532 15.2682 0.367285C15.2682 0.385658 15.2825 0.391859 15.2999 0.381106C15.3413 0.355508 15.6872 0.530205 15.9723 0.72067C16.2363 0.897083 16.523 1.20138 16.6275 1.41619C16.6742 1.51215 16.706 1.64954 16.7142 1.79046L16.7271 2.01312C16.9652 2.17736 17.4124 2.82601 17.2963 4.10671C17.167 4.60438 17.0378 4.88375 16.8284 5.11848L16.6453 5.32372L16.6653 5.52392C16.6764 5.63403 16.724 5.84286 16.7711 5.98801C16.8624 6.26955 16.8615 6.41957 16.7673 6.60185C16.7159 6.70114 16.4693 6.88669 16.4347 6.85206C16.3929 6.8103 16.3238 6.92885 16.3238 7.04229C16.3238 7.21465 16.2424 7.38301 16.1275 7.44842C16.0494 7.49282 16.0273 7.52825 16.0271 7.60887C16.027 7.67333 15.9842 7.77281 15.9137 7.87276C15.8515 7.961 15.7379 8.13435 15.6613 8.25801C15.4895 8.53543 15.3641 8.63406 15.1276 8.67777C14.8589 8.72745 14.4041 8.64363 14.1024 8.48879C14.0508 8.4623 14.0011 8.44818 13.9919 8.45735C13.9593 8.48994 13.8505 9.19041 13.8503 9.36913C13.85 9.5881 13.9332 9.7438 14.0887 9.81508C14.1478 9.84216 14.3817 9.91008 14.6085 9.96606C14.9814 10.0581 15.0949 10.0704 15.796 10.0953C16.2866 10.1128 16.6318 10.1401 16.7361 10.1698C17.3758 10.3519 17.8013 10.8048 18.2856 11.8192C18.6202 12.5202 18.7495 12.8796 18.8774 13.4649C18.8892 13.5191 18.9581 13.5979 19.0579 13.6711C19.3356 13.8749 19.9338 14.5528 20.2395 15.0098C20.5886 15.5318 20.7916 15.9612 21.0922 16.8134C21.4859 17.9295 21.4666 18.2233 20.9276 19.3146C20.5801 20.0183 19.6941 21.4752 19.6137 21.4752C19.5943 21.4752 19.588 21.4848 19.5997 21.4964C19.6255 21.5222 19.1535 22.2206 19.04 22.3246C18.9219 22.4329 18.7256 22.4268 18.6353 22.3119C18.4982 22.1377 18.5268 22.0691 19.0892 21.2224C19.7402 20.2425 20.0919 19.6527 20.4037 19.0177C20.6665 18.4826 20.777 18.1752 20.777 17.9788C20.777 17.6578 20.4003 16.5584 20.0649 15.9005C19.7433 15.2696 19.5068 14.9619 18.8069 14.2633L18.3377 13.795L18.2858 13.5365C18.2572 13.3944 18.2027 13.1816 18.1646 13.0636C18.0582 12.7339 17.5663 11.6671 17.4104 11.4279C17.1574 11.0394 16.8458 10.817 16.4228 10.7227C16.1646 10.6652 15.35 10.6363 15.3207 10.6837C15.2955 10.7246 15.749 11.4347 16.0688 11.8548C16.1812 12.0026 16.4024 12.2741 16.5604 12.4581C16.7184 12.6422 16.8411 12.8018 16.8331 12.8127C16.8251 12.8237 16.8285 12.8253 16.8407 12.8162C16.8752 12.7902 16.9845 12.9035 16.9612 12.9412C16.9497 12.9597 16.9562 12.9651 16.9755 12.9532C16.9949 12.9412 17.0838 13.0237 17.1743 13.1377C17.7062 13.8081 17.914 14.3774 17.9176 15.1748C17.9194 15.5383 17.9052 15.6498 17.8205 15.9417C17.8077 15.986 17.8234 15.9994 17.8878 15.9994C17.9444 15.9994 18.0445 16.0653 18.1947 16.2015C18.481 16.4608 18.7312 16.6298 19.096 16.81C19.4021 16.9612 19.4767 17.04 19.4427 17.1757C19.4268 17.2391 19.4445 17.2781 19.5223 17.3508C19.5774 17.4022 19.6225 17.4742 19.6225 17.5106C19.6225 17.5471 19.5328 17.6859 19.4231 17.819C19.1539 18.146 19.0392 18.3954 18.8117 19.1486C18.7054 19.5002 18.6106 19.7831 18.601 19.7772C18.5913 19.7713 18.582 19.806 18.5802 19.8543C18.5771 19.9436 18.4442 20.3822 18.115 21.3897C17.9024 22.0405 17.8498 22.1173 17.6333 22.0924C17.5571 22.0836 17.4072 22.0451 17.3 22.0067C17.1929 21.9684 17.0285 21.937 16.9347 21.937C16.7364 21.937 16.6786 21.9842 16.5419 22.2575C16.4486 22.4439 16.3796 22.4978 16.2343 22.4978C16.0284 22.4978 15.9258 22.3216 15.9911 22.08C16.0706 21.7861 16.4434 21.357 16.5579 21.4277C16.5851 21.4445 16.5893 21.4386 16.5711 21.4091C16.5512 21.3769 16.5626 21.3706 16.6156 21.3845C16.6607 21.3963 16.6789 21.3904 16.6653 21.3684C16.6512 21.3455 16.6737 21.3412 16.7312 21.3556C16.7829 21.3686 16.8186 21.3638 16.8186 21.3439C16.8186 21.2973 16.9592 21.3028 17.2287 21.3599C17.3544 21.3865 17.4625 21.4031 17.4689 21.3967C17.4977 21.3679 17.8047 20.4171 18.0738 19.5234C18.479 18.1777 18.6069 17.8413 18.8189 17.5632C18.9212 17.4291 18.9174 17.4014 18.7896 17.3488C18.5992 17.2705 18.0286 16.8688 17.8096 16.6588L17.5965 16.4546L17.5352 16.5321C17.5014 16.5748 17.3858 16.7089 17.2782 16.83L17.0825 17.0503V17.318C17.0825 17.8477 16.973 18.2122 16.3263 19.8354C15.6578 21.5134 15.5589 21.8766 15.5521 22.6792C15.5477 23.2125 15.5249 23.3018 15.3794 23.3571C15.2705 23.3985 15.1596 23.368 15.0694 23.2721C14.9187 23.1116 14.9136 22.3498 15.0586 21.6402C15.136 21.2613 15.3605 20.6096 15.6893 19.8094C16.2155 18.5288 16.5323 17.581 16.4685 17.4778C16.4401 17.4319 15.1453 17.4486 14.6745 17.501C13.5909 17.6216 12.5166 17.85 11.6725 18.1392C11.2805 18.2735 10.914 18.4249 10.914 18.4526C10.914 18.4613 10.9722 18.5771 11.0434 18.7101C11.3287 19.2428 11.3484 19.6058 11.1172 20.0674C10.9381 20.4248 10.7332 20.6894 10.2907 21.1346C10.0892 21.3373 9.9244 21.5117 9.9244 21.5222C9.9244 21.5327 9.98097 21.5412 10.0501 21.5412C10.2235 21.5412 10.6565 21.6587 10.8604 21.7611C11.1502 21.9066 11.614 22.2653 11.582 22.3191C11.5775 22.3266 11.5814 22.3326 11.5908 22.3324C11.6253 22.3314 12.2224 23.0797 12.2943 23.2138C12.3548 23.3269 12.341 23.5118 12.2664 23.5864C12.2004 23.6524 12.0318 23.6741 11.9197 23.6312C11.8893 23.6195 11.6915 23.3945 11.4799 23.1312C11.134 22.7007 11.0701 22.6182 10.9925 22.5518C10.9662 22.5293 10.9384 22.5086 10.8975 22.477C10.69 22.3161 10.5146 22.2406 10.2084 22.1804C9.94333 22.1284 9.90592 22.1283 9.64737 22.1791C9.49501 22.209 9.23154 22.2869 9.06186 22.3522C8.66035 22.5066 8.42918 22.5304 8.23667 22.4371C8.03245 22.338 7.4088 21.7915 6.88963 21.2566C6.4577 20.8116 6.00235 20.2812 5.3221 19.4309C4.89885 18.9018 4.42526 18.4248 4.14481 18.245C3.88178 18.0764 3.81613 17.9513 3.90279 17.7837C3.9995 17.5967 4.13386 17.5722 4.37971 17.6968C4.78221 17.9007 5.21922 18.3317 5.91652 19.2122C6.52578 19.9817 7.01953 20.5413 7.61942 21.1425C7.93468 21.4585 8.17033 21.6886 8.14312 21.6538C8.1159 21.6191 8.15104 21.64 8.22117 21.7003C8.29133 21.7605 8.39844 21.8335 8.4592 21.8625C8.55624 21.9088 8.58682 21.9096 8.71098 21.8693C8.78873 21.8442 8.87074 21.8251 8.8932 21.8271C8.9157 21.829 8.92711 21.8194 8.9186 21.8056C8.90122 21.7774 9.08472 21.7042 9.38012 21.6215C9.64005 21.5487 9.64289 21.5463 9.55013 21.4733C9.4637 21.4053 9.4228 21.2684 9.45942 21.1695C9.47208 21.1352 9.62445 20.9636 9.79799 20.7881C10.2984 20.2823 10.6831 19.7216 10.6831 19.4984C10.6831 19.3789 10.5732 19.0724 10.4576 18.8693C10.0642 18.1782 9.14232 16.8798 8.58141 16.2266C8.2525 15.8435 8.03093 15.5334 7.92871 15.3129C7.86682 15.1794 7.85594 15.1716 7.75282 15.1875C7.44011 15.2358 7.16883 15.4628 6.82365 15.9651C6.53647 16.3829 6.14868 16.8438 5.78705 17.1969C5.41572 17.5595 5.23591 17.6818 5.07421 17.6818C4.86323 17.6818 4.72191 17.4718 4.79851 17.2721C4.80952 17.2434 4.89486 17.1594 4.98818 17.0853C5.43112 16.7337 5.83904 16.2876 6.32401 15.6245C6.53453 15.3366 6.77388 15.0431 6.85591 14.9722C7.01557 14.8342 7.42187 14.614 7.5168 14.614C7.54976 14.614 7.59201 14.5713 7.61569 14.5142C7.70502 14.2985 7.96885 14.2169 8.11957 14.3584C8.16308 14.3992 8.25623 14.5662 8.32659 14.7295C8.4813 15.0884 8.68077 15.3878 9.12873 15.9335C9.58915 16.4943 9.85915 16.8553 10.2399 17.419C10.4172 17.6814 10.5664 17.9016 10.5715 17.9082C10.5766 17.9148 10.6891 17.8756 10.8216 17.8211C11.4427 17.5653 12.3648 17.2997 13.256 17.1199C14.1594 16.9376 14.6183 16.8874 15.5651 16.8673L16.4393 16.8488L16.6782 16.5973C17.1815 16.0675 17.3252 15.748 17.3253 15.1583C17.3255 14.3785 17.0719 13.868 16.2601 13.0142C16.0111 12.7523 15.7795 12.4564 15.7795 12.4002C15.7795 12.3841 15.7647 12.3705 15.7465 12.37C15.7284 12.3695 15.6948 12.4623 15.6719 12.5762C15.6251 12.8084 15.4828 13.1253 15.4132 13.152C15.3881 13.1616 15.375 13.1816 15.3842 13.1964C15.4077 13.2344 15.1916 13.4055 14.9741 13.521C14.0721 14.0002 12.4931 13.6436 11.393 12.7123C10.9006 12.2954 10.2217 11.4039 9.9079 10.7621C9.78648 10.5138 9.72648 10.4359 9.72648 10.5266C9.72648 10.5463 9.77704 10.6539 9.83883 10.7657C10.2232 11.461 10.3785 12.6842 10.1927 13.5532C10.0509 14.217 9.85262 14.6865 9.54076 15.0973C9.32876 15.3765 9.19411 15.4554 8.98349 15.4238C8.81958 15.3992 8.73688 15.3035 8.73688 15.1384C8.73688 15.0536 8.77616 14.9949 8.94304 14.8302C9.0903 14.6849 9.18863 14.5472 9.28719 14.3482C9.68653 13.5423 9.7876 12.6742 9.58077 11.8266C9.50213 11.5045 9.25398 10.8611 9.15231 10.716C9.11246 10.6591 8.9914 10.6153 8.59751 10.5151C8.12184 10.3941 8.0715 10.3877 7.6978 10.4C7.3585 10.4113 7.26897 10.4265 7.07105 10.5063C6.77332 10.6264 6.58912 10.7528 6.35109 11.0002C5.80473 11.568 5.53648 12.2707 5.25491 13.8718L5.19689 14.2017L4.89545 14.515C3.80617 15.6474 2.73242 17.6213 2.73364 18.4893C2.73417 18.8801 2.92856 19.1944 3.58843 19.8712C4.25103 20.5508 5.17449 21.3021 6.93911 22.5972C7.24753 22.8236 7.5357 23.046 7.57951 23.0914C7.62328 23.1369 7.64611 23.1518 7.63024 23.1246C7.61438 23.0973 7.68246 23.1395 7.78155 23.2181C7.95166 23.3532 8.04099 23.4624 8.04248 23.5369C8.04284 23.555 8.02931 23.548 8.01243 23.5213C7.98617 23.4798 7.97858 23.481 7.95978 23.53C7.94771 23.5614 7.94411 23.63 7.9518 23.6823C7.96258 23.7559 7.95477 23.7732 7.91709 23.7588C7.8878 23.7475 7.87705 23.7541 7.89011 23.7752C7.91502 23.8155 7.84231 23.8503 7.73329 23.8503C7.64993 23.8503 7.21606 23.5437 5.60905 22.3494C3.98509 21.1424 2.81367 20.0598 2.40645 19.3895C1.96928 18.6699 2.05623 17.9498 2.74812 16.5602C3.18028 15.6923 3.79845 14.7874 4.36797 14.1889L4.6467 13.896L4.69668 13.6035C4.91739 12.3114 5.173 11.5637 5.59418 10.9783L5.70613 10.8227L5.59121 10.467C5.41737 9.92898 5.36053 9.58421 5.36132 9.07225C5.36291 8.0019 5.64105 7.51354 6.47729 7.11292C7.01613 6.85476 7.09566 6.7724 7.15438 6.41155C7.19254 6.17705 7.1495 5.83244 7.00053 5.17983C6.78173 4.22134 6.87699 3.92618 7.56786 3.42184C7.94342 3.14773 8.09809 2.85669 8.22898 2.17805C8.32187 1.69628 8.42393 1.46528 8.63874 1.25043C8.91369 0.975525 9.58909 0.72133 10.177 0.67152C10.4 0.652619 10.4178 0.656247 10.4986 0.737064C10.612 0.850505 10.6136 1.01646 10.5024 1.14861C10.4344 1.22939 10.3869 1.24954 10.22 1.26845C9.92981 1.30127 9.54291 1.40643 9.30811 1.51631C9.03831 1.64255 8.92276 1.80075 8.85306 2.13949C8.6304 3.22125 8.44999 3.55076 7.8503 3.97097C7.4408 4.25792 7.41527 4.37687 7.59834 5.14477C7.809 6.02822 7.81325 6.50949 7.61408 6.9175C7.46419 7.22454 7.26818 7.39581 6.79802 7.63061C6.36854 7.84512 6.23088 7.95272 6.12797 8.15443C5.93671 8.52936 5.90234 9.24184 6.04336 9.90823C6.08884 10.1231 6.13394 10.3067 6.14357 10.3164C6.1532 10.326 6.1877 10.3223 6.22023 10.3081C6.25275 10.2939 6.29049 10.2846 6.30411 10.2875C6.31771 10.2904 6.32513 10.2753 6.32061 10.2539C6.30646 10.1873 6.91615 9.90428 7.19337 9.84883C7.68032 9.75142 8.23509 9.79361 8.90075 9.97873C9.16303 10.0516 9.27278 10.0415 9.521 9.92166C9.95257 9.71322 10.5305 9.02812 10.7796 8.42967C10.9228 8.08585 11.0414 7.60857 11.0672 7.2728L11.0882 7.0007H10.9673C10.9009 7.0007 10.8097 6.97658 10.7647 6.94712C10.6693 6.88455 10.4372 6.63837 10.3232 6.47868C10.2795 6.41746 10.2334 6.36735 10.2209 6.36735C10.2083 6.36735 10.189 6.48538 10.1778 6.62963C10.1302 7.24773 9.9051 8.06613 9.67145 8.47081C9.41531 8.91448 9.00776 9.3309 8.76251 9.39955C8.63558 9.43511 8.5989 9.43369 8.51428 9.38992C8.39893 9.33028 8.37402 9.27948 8.37402 9.10395C8.37402 8.9946 8.3919 8.9628 8.49772 8.884C8.94321 8.55225 9.19836 8.16809 9.39249 7.53706C9.60888 6.83355 9.71068 5.53329 9.58602 5.06438C9.43989 4.51456 9.38949 3.72971 9.46489 3.17827C9.53176 2.68908 9.7847 2.07141 10.074 1.69084C10.3267 1.3583 10.7148 0.999935 11.0641 0.776484C11.4334 0.540233 12.0383 0.275252 12.1088 0.31886C12.1286 0.331032 12.1353 0.325853 12.1239 0.307348ZM10.123 2.96973C10.4604 1.76661 11.6088 0.86789 13.0746 0.659843C13.3609 0.619236 14.1578 0.645791 14.4271 0.704969C14.7857 0.783774 15.1175 0.906385 15.3826 1.05802C15.6608 1.21722 15.9939 1.46973 15.9939 1.52142C15.9939 1.54497 15.9242 1.5491 15.7822 1.53389C15.4035 1.49332 15.0619 1.663 14.7375 2.05277C14.5834 2.23796 14.5591 2.28371 14.5744 2.35948C14.578 2.37762 14.5698 2.38125 14.5561 2.36753C14.5424 2.35384 14.4895 2.40579 14.4386 2.48298C14.2678 2.74193 13.9189 3.05929 13.6704 3.1818C13.2371 3.39536 12.7275 3.48307 12.1164 3.44922C11.6578 3.42386 11.4712 3.45655 11.2371 3.60321C11.0634 3.71196 10.8931 3.94369 10.861 4.11483C10.8493 4.17697 10.8464 4.34214 10.8545 4.48184C10.871 4.76651 10.9566 4.98937 11.1563 5.26728C11.2961 5.4619 11.3001 5.49782 11.2092 5.73718C11.1719 5.83505 11.1329 6.01317 11.1223 6.13302C11.0932 6.46196 11.0831 6.46575 10.8642 6.22944C10.5133 5.85055 10.3011 5.4435 10.1556 4.86966C9.99987 4.25581 9.98618 3.45777 10.123 2.96973ZM15.0405 2.6709C15.2424 2.37604 15.3727 2.24647 15.5331 2.18105C15.6202 2.14553 15.6325 2.14714 15.9609 2.23716C16.1544 2.29014 16.2 2.32082 16.4273 2.55034C16.7034 2.82927 16.7486 2.84544 16.9861 2.75044C17.1014 2.70432 17.1265 2.70307 17.1512 2.74219C17.2451 2.89036 17.1316 3.16683 16.8809 3.40054C16.7687 3.50518 16.7346 3.53712 16.7242 3.61931C16.7197 3.65518 16.7196 3.70062 16.7196 3.76586C16.7196 3.90724 16.6926 4.05892 16.6405 4.2092C16.512 4.57994 16.4674 4.66429 16.3563 4.74629C16.2972 4.78987 16.2139 4.90509 16.1665 5.00847C16.049 5.2651 16.0488 5.65171 16.1658 6.00882C16.264 6.30834 16.247 6.36735 16.0627 6.36735C15.9853 6.36735 15.9034 6.39368 15.8499 6.43573C15.7735 6.49584 15.763 6.52767 15.763 6.69963C15.763 6.89105 15.7611 6.89514 15.6723 6.89461C15.6224 6.89435 15.4925 6.87261 15.3837 6.84632C15.1124 6.78081 15.0375 6.78453 14.9487 6.86789C14.8661 6.94554 14.8461 7.11433 14.9064 7.22682C14.9503 7.30889 15.092 7.38113 15.2941 7.42447C15.3943 7.44598 15.4552 7.47659 15.4552 7.50549C15.4552 7.53105 15.4428 7.54432 15.4277 7.53498C15.4125 7.52564 15.4002 7.53244 15.4002 7.55005C15.4002 7.5677 15.3112 7.70219 15.2024 7.84888C14.9732 8.15806 14.9669 8.15988 14.5813 8.03103C14.0203 7.84354 13.383 7.37753 13.018 6.88795C12.9542 6.80235 12.8964 6.73555 12.8894 6.73951C12.8824 6.74347 12.8797 6.74119 12.8834 6.73449C12.8871 6.72776 12.8463 6.6354 12.7927 6.52925C12.7391 6.4231 12.6953 6.29798 12.6953 6.25121C12.6953 6.14057 12.6126 5.98253 12.5322 5.93952C12.3308 5.83175 12.1014 5.9787 12.1017 6.21515C12.102 6.47281 12.2131 6.76009 12.4567 7.1338C12.6389 7.41309 12.9945 7.79518 13.2322 7.96681C13.3044 8.01899 13.3504 8.04355 13.375 8.08186C13.4211 8.15368 13.392 8.27381 13.3194 8.71471C13.2044 9.41291 13.2494 9.78008 13.4852 10.0658C13.5935 10.1972 14.0095 10.4298 14.2459 10.4912L14.3941 10.5297L14.6329 11.0462C14.9526 11.7375 15.0373 11.9535 15.0719 12.1662C15.1789 12.8236 14.6349 13.2247 13.7676 13.128C12.7813 13.018 11.9305 12.5345 11.2455 11.6947C10.8668 11.2303 10.2872 10.3032 10.2872 10.1616C10.2872 10.1339 10.3401 10.0692 10.4047 10.0177C10.5383 9.91101 10.8602 9.51553 11.0369 9.24088C11.2413 8.92306 11.4463 8.44435 11.547 8.04967C11.6318 7.7173 11.6476 7.57846 11.6747 6.92839C11.7024 6.26272 11.7145 6.15954 11.7927 5.9249C11.8678 5.69921 11.8745 5.64864 11.841 5.55601C11.8196 5.49697 11.8117 5.41044 11.8235 5.36373C11.8538 5.24261 11.8212 5.14352 11.7021 4.99564C11.5496 4.80629 11.4425 4.55797 11.4421 4.3931C11.4418 4.27366 11.4606 4.23081 11.5539 4.13746C11.6411 4.05034 11.6933 4.0253 11.7881 4.0253C11.883 4.0253 11.9352 4.05034 12.0223 4.13746C12.084 4.19914 12.1345 4.2792 12.1345 4.31539C12.1345 4.35157 12.1776 4.42728 12.2302 4.48362C12.3985 4.66379 12.66 4.60372 12.7245 4.37005C12.7536 4.26475 12.7417 4.1719 12.6798 4.02009C12.6606 3.97289 12.6929 3.9624 12.9156 3.94353C13.2142 3.91819 13.6628 3.81564 13.8775 3.72364C14.3008 3.54218 14.6768 3.20176 15.0405 2.6709ZM14.3385 4.92722C14.1671 4.7459 14.1463 4.53732 14.2897 4.43688C14.4168 4.34785 14.5639 4.37654 14.784 4.5334C14.8961 4.61326 15.0695 4.70314 15.1693 4.7331C15.4731 4.82434 15.5144 4.85406 15.5258 4.9893C15.5411 5.17208 15.4502 5.24591 15.2105 5.24541C14.8748 5.24472 14.5143 5.11317 14.3385 4.92722ZM7.48553 13.476C7.4856 13.3755 7.54995 13.2786 7.66643 13.2037C7.70918 13.1761 7.82486 13.166 8.01117 13.1734C8.23977 13.1825 8.33249 13.2034 8.51316 13.2865C8.81014 13.4231 8.90181 13.518 8.90181 13.6889C8.90181 13.7778 8.88007 13.8441 8.83666 13.8875C8.7156 14.0085 8.62119 14.0053 8.33345 13.8703C8.11736 13.7689 8.03215 13.7459 7.88645 13.7497C7.61889 13.7567 7.48543 13.6656 7.48553 13.476ZM8.13487 14.4203C8.10314 14.3954 8.07715 14.3694 8.07715 14.3626C8.07715 14.3354 8.10423 14.3529 8.14734 14.4078C8.18834 14.4602 8.18719 14.4613 8.13487 14.4203ZM13.5199 21.1124C13.5199 21.0942 13.5509 21.0484 13.5888 21.0105C13.6391 20.9602 13.6812 20.9473 13.7455 20.9625C13.9314 21.0064 13.9896 21.1783 13.9125 21.4559C13.8859 21.5519 13.8874 21.6512 13.9186 21.8433C13.9598 22.0968 13.9591 22.1032 13.883 22.1843C13.7917 22.2814 13.6261 22.2947 13.504 22.2147C13.3823 22.135 13.3066 21.8964 13.306 21.5907C13.3056 21.3781 13.3184 21.3093 13.3715 21.2371C13.4078 21.1878 13.456 21.147 13.4787 21.1464C13.5014 21.1458 13.5199 21.1305 13.5199 21.1124Z" fill="#6281AA"/>
<path d="M16.8809 3.40054C17.1316 3.16683 17.2451 2.89036 17.1512 2.74219C17.1265 2.70307 17.1014 2.70432 16.9861 2.75044C16.7486 2.84544 16.7034 2.82927 16.4273 2.55034C16.5301 2.72873 16.7175 3.16931 16.7242 3.61931C16.7346 3.53712 16.7687 3.50518 16.8809 3.40054Z" fill="#6281AA"/>
<path d="M11.6252 22.3443C11.6271 22.341 11.6288 22.3342 11.6291 22.3258C11.6279 22.3316 11.6287 22.3383 11.6252 22.3443ZM13.7569 20.9137C13.8651 20.9393 13.9406 21.0047 13.9748 21.1053C14.0075 21.2021 13.9999 21.326 13.9602 21.469C13.9365 21.5542 13.937 21.6452 13.968 21.8356C13.9782 21.8985 13.9856 21.9477 13.9903 21.9864C13.9949 22.0247 13.9971 22.0562 13.9942 22.0836C13.9877 22.1454 13.957 22.1787 13.9193 22.2188C13.8094 22.3356 13.6162 22.3479 13.4768 22.2567C13.4021 22.2077 13.3481 22.115 13.3125 22.0029C13.2764 21.8891 13.2564 21.7471 13.2561 21.5906C13.2557 21.3788 13.2672 21.2941 13.331 21.2074C13.3513 21.1798 13.3755 21.1546 13.3981 21.1354C13.4093 21.1259 13.4213 21.1168 13.4331 21.1102C13.4429 21.1047 13.4575 21.0988 13.4739 21.0975C13.476 21.0878 13.478 21.0791 13.4807 21.0732C13.4857 21.0627 13.4921 21.0517 13.4992 21.0411C13.5136 21.0199 13.5327 20.996 13.5537 20.975C13.5819 20.9468 13.6118 20.9256 13.647 20.9147C13.6829 20.9037 13.7193 20.9048 13.7569 20.9137ZM19.6133 21.5254C19.6133 21.5254 19.6154 21.5254 19.6181 21.5244L19.6191 21.5225L19.6133 21.5254ZM7.43573 13.4761C7.43581 13.3528 7.51446 13.2422 7.63898 13.162L7.70024 13.1377C7.7243 13.1319 7.75195 13.1286 7.78096 13.126C7.84144 13.1207 7.9194 13.1203 8.01339 13.1241C8.12849 13.1287 8.21279 13.1355 8.29152 13.1532C8.37051 13.1711 8.44199 13.1996 8.53367 13.2417C8.68276 13.3103 8.78763 13.3708 8.85459 13.4401C8.92471 13.5127 8.95184 13.5924 8.95184 13.6891C8.95181 13.785 8.92815 13.8663 8.8721 13.9225C8.80585 13.9887 8.73882 14.0278 8.64551 14.0246C8.55935 14.0215 8.4549 13.9828 8.31194 13.9157C8.20446 13.8652 8.13276 13.8351 8.07076 13.8184C8.01006 13.8021 7.95721 13.7981 7.88794 13.7999C7.74993 13.8036 7.63675 13.7822 7.55729 13.728C7.47447 13.6714 7.43571 13.584 7.43573 13.4761ZM12.0521 6.21548C12.0518 5.94519 12.3181 5.76822 12.5559 5.89553C12.6091 5.92406 12.6557 5.9853 12.6882 6.04724C12.7211 6.11029 12.7455 6.18562 12.7455 6.25146C12.7456 6.26551 12.7531 6.30108 12.7708 6.35163C12.7878 6.39997 12.8111 6.45613 12.8369 6.50722C12.864 6.56075 12.8882 6.61109 12.905 6.64921C12.9133 6.66799 12.9208 6.68421 12.9254 6.69686C12.9262 6.69897 12.9267 6.70154 12.9274 6.70367C12.9312 6.70669 12.9351 6.71051 12.9381 6.71339C12.9471 6.72205 12.9583 6.73376 12.9702 6.74743C12.9945 6.77549 13.0253 6.81485 13.0577 6.85829C13.4168 7.34 14.0461 7.79929 14.5972 7.98347C14.6944 8.01596 14.7645 8.0391 14.8199 8.05154C14.8748 8.06388 14.9092 8.06443 14.9366 8.0564C14.9635 8.04849 14.9903 8.03049 15.026 7.99222C15.0625 7.9531 15.1043 7.89719 15.1622 7.81912C15.2161 7.74639 15.265 7.67689 15.3003 7.62365C15.3179 7.59695 15.3318 7.57461 15.3411 7.55849L15.3508 7.54098C15.3508 7.54098 15.3509 7.5456 15.3508 7.54974C15.3509 7.53456 15.3569 7.51617 15.3722 7.50111C15.3502 7.49218 15.3212 7.48094 15.2837 7.47291C15.1798 7.45062 15.0893 7.42065 15.0182 7.38441C14.9484 7.3488 14.8916 7.30433 14.8626 7.25021C14.8269 7.18341 14.816 7.10262 14.8247 7.02848C14.8334 6.95501 14.8621 6.88123 14.9142 6.83204C14.9653 6.78402 15.0174 6.75522 15.0951 6.75132C15.167 6.74775 15.2607 6.76543 15.3956 6.798C15.5041 6.8242 15.6291 6.84445 15.6727 6.84468C15.6901 6.84478 15.6998 6.84338 15.7058 6.84273C15.7072 6.83703 15.7106 6.82653 15.7116 6.80772C15.7131 6.78222 15.7136 6.74779 15.7136 6.69978C15.7136 6.61547 15.715 6.55601 15.7301 6.51014C15.7469 6.45921 15.7787 6.42849 15.8196 6.39636C15.883 6.34664 15.976 6.31759 16.0627 6.31759C16.1077 6.31759 16.1354 6.31349 16.1522 6.30689C16.1651 6.30178 16.1698 6.29624 16.1726 6.28647C16.1767 6.27204 16.1766 6.24627 16.1677 6.20089C16.159 6.15637 16.1425 6.09837 16.1181 6.0239C15.9987 5.65925 15.9971 5.25943 16.1211 4.98819C16.1462 4.93322 16.1806 4.87522 16.2164 4.82579C16.2515 4.77724 16.2907 4.73251 16.3262 4.70617C16.423 4.63476 16.4644 4.56588 16.5937 4.19269C16.6441 4.04709 16.6695 3.90087 16.6695 3.76577C16.6695 3.70549 16.6702 3.65838 16.6744 3.6199C16.6679 3.1845 16.4871 2.75568 16.3865 2.57933C16.2761 2.46789 16.2121 2.40835 16.1541 2.36927C16.0971 2.33095 16.0432 2.31172 15.9479 2.28564C15.7822 2.24021 15.7011 2.21843 15.6504 2.21173C15.6267 2.20862 15.6118 2.20855 15.5998 2.21075C15.5869 2.21315 15.574 2.21839 15.5521 2.22729C15.4063 2.28678 15.2826 2.40519 15.0815 2.69895C14.7145 3.23462 14.3318 3.58328 13.897 3.76966C13.6762 3.86423 13.222 3.96768 12.9196 3.99333C12.8167 4.00205 12.7605 4.00905 12.7309 4.01667C12.7899 4.16555 12.8048 4.26715 12.7728 4.3833C12.736 4.51657 12.6409 4.60418 12.5277 4.63031C12.4146 4.6563 12.2894 4.61942 12.1941 4.51751C12.1651 4.48644 12.1385 4.45017 12.1192 4.41637C12.1097 4.39957 12.1009 4.38283 12.0949 4.36677C12.0892 4.35136 12.0842 4.33286 12.0842 4.31523C12.0842 4.31523 12.0831 4.30947 12.0794 4.30064C12.075 4.29028 12.0681 4.27724 12.059 4.26271C12.0406 4.23369 12.0152 4.20052 11.987 4.17227C11.945 4.13028 11.9149 4.10698 11.8868 4.0935C11.8599 4.08059 11.831 4.07506 11.7886 4.07502C11.746 4.07502 11.7164 4.08055 11.6894 4.0935C11.6613 4.10699 11.6313 4.13029 11.5892 4.17227C11.5433 4.21817 11.5209 4.2471 11.5085 4.27536C11.4964 4.303 11.4919 4.33527 11.492 4.39303C11.4922 4.46612 11.5166 4.56227 11.561 4.66532C11.6052 4.76769 11.6676 4.8738 11.7409 4.96485C11.8019 5.0406 11.8445 5.10742 11.8664 5.17394C11.8889 5.24216 11.8895 5.30745 11.8722 5.37622C11.8684 5.39182 11.8664 5.41892 11.8693 5.4511C11.8722 5.48242 11.879 5.5141 11.8878 5.53862C11.9066 5.59054 11.9154 5.63505 11.9072 5.69714C11.8997 5.75503 11.8773 5.8285 11.8401 5.94026C11.7645 6.1673 11.7521 6.26411 11.7244 6.93026C11.6973 7.58129 11.6812 7.72475 11.5951 8.06224C11.4932 8.46165 11.2862 8.94554 11.0787 9.26813C10.9891 9.40733 10.8631 9.5759 10.7432 9.72326C10.6241 9.86953 10.5074 9.99973 10.4359 10.0568C10.4061 10.0806 10.3788 10.1067 10.36 10.1298C10.3505 10.1414 10.3437 10.1516 10.3396 10.1589C10.3349 10.1675 10.3366 10.1677 10.3367 10.1618C10.3367 10.1639 10.3378 10.1707 10.3415 10.1832C10.3452 10.1956 10.3512 10.2111 10.359 10.2299C10.3748 10.2677 10.3984 10.3156 10.4281 10.3719C10.4875 10.4845 10.5707 10.6273 10.6663 10.7804C10.858 11.0869 11.0963 11.4334 11.2839 11.6634C11.9614 12.4941 12.8013 12.97 13.7735 13.0784C14.1995 13.1258 14.5382 13.0501 14.7557 12.8897C14.9704 12.7313 15.0738 12.4857 15.0231 12.1739C14.9898 11.9694 14.9079 11.7602 14.5874 11.0672L14.3589 10.5713L14.2334 10.5392C14.1093 10.5069 13.9416 10.4317 13.7929 10.3486C13.7182 10.3068 13.6474 10.2617 13.5877 10.2192C13.5289 10.1773 13.478 10.1356 13.4467 10.0977C13.1964 9.79417 13.1554 9.40749 13.2707 8.707C13.3072 8.48527 13.3322 8.34723 13.3426 8.25479C13.3532 8.16065 13.3456 8.12866 13.3329 8.10892C13.3256 8.09759 13.3141 8.08631 13.2921 8.07002C13.2811 8.0619 13.2682 8.05312 13.2532 8.04279C13.2383 8.03257 13.2212 8.02021 13.2026 8.00681C12.9594 7.83099 12.5998 7.44429 12.4149 7.16074C12.1695 6.78441 12.0526 6.48739 12.0521 6.21548ZM16.8738 12.842C16.8725 12.8438 16.874 12.8415 16.8757 12.8372V12.8343C16.8746 12.8365 16.8754 12.8398 16.8738 12.842ZM8.32458 9.10378C8.32459 9.04766 8.32847 9.00114 8.35279 8.9579C8.37618 8.91639 8.41506 8.88322 8.46754 8.84412C8.90299 8.51985 9.15311 8.14531 9.34473 7.52251C9.45144 7.17557 9.53067 6.67834 9.56743 6.20867C9.60432 5.73728 9.59819 5.30215 9.53825 5.07669C9.39055 4.52067 9.33942 3.72957 9.41572 3.17158C9.48371 2.67417 9.7396 2.04795 10.0342 1.66032C10.1273 1.53789 10.2404 1.41409 10.361 1.29272C10.3233 1.30214 10.2799 1.31188 10.2258 1.31801C9.94035 1.35029 9.5585 1.45383 9.32917 1.56113C9.19924 1.62192 9.11109 1.6891 9.04617 1.778C8.98083 1.86751 8.93639 1.9836 8.90224 2.14949C8.79083 2.69076 8.68835 3.04999 8.53659 3.32718C8.38372 3.60636 8.18243 3.7993 7.87918 4.01181C7.67456 4.1552 7.58075 4.24715 7.55048 4.38816C7.53494 4.4608 7.53584 4.55023 7.55243 4.67116C7.56902 4.7921 7.60105 4.94137 7.64676 5.13309C7.8578 6.01819 7.86566 6.51439 7.65843 6.93901C7.58099 7.09763 7.49108 7.2232 7.3589 7.33871C7.22767 7.45337 7.05657 7.55711 6.82014 7.67519C6.39171 7.88918 6.26746 7.99085 6.17246 8.17699C6.08136 8.35558 6.02573 8.61996 6.01103 8.92484C5.9964 9.22866 6.02213 9.56932 6.09174 9.8983C6.11438 10.0052 6.13697 10.1041 6.15495 10.1774C6.16397 10.2141 6.17226 10.2439 6.17829 10.2649L6.17927 10.2679C6.18557 10.2663 6.19342 10.2652 6.20066 10.262C6.21922 10.254 6.23933 10.2479 6.25707 10.2435C6.26214 10.2423 6.26757 10.2406 6.27263 10.2396C6.27497 10.2276 6.27943 10.2174 6.28332 10.2114C6.29044 10.2006 6.30023 10.1907 6.30958 10.1823C6.32863 10.1652 6.35502 10.1466 6.38543 10.1278C6.44723 10.0896 6.53316 10.0457 6.62661 10.0024C6.81288 9.9159 7.03932 9.82899 7.18385 9.80008C7.68074 9.70073 8.24371 9.74404 8.91391 9.9304C9.04327 9.96635 9.12943 9.98071 9.2115 9.97319C9.29366 9.96563 9.37676 9.93611 9.49935 9.87691C9.70596 9.77712 9.95335 9.55946 10.1811 9.28952C10.408 9.02046 10.6113 8.7038 10.7334 8.41039C10.8747 8.07094 10.992 7.59865 11.0174 7.26869L11.0349 7.05085H10.9678C10.9293 7.05085 10.885 7.04385 10.8453 7.03334C10.806 7.02296 10.7661 7.00745 10.7373 6.98861C10.6841 6.95366 10.5986 6.87244 10.5146 6.78341C10.4296 6.69317 10.341 6.58954 10.2822 6.50722C10.2704 6.49071 10.2574 6.47616 10.2462 6.46249C10.2393 6.50736 10.2329 6.56756 10.2278 6.63365C10.1797 7.25684 9.95263 8.08313 9.71427 8.49597C9.58409 8.7214 9.41576 8.93963 9.24845 9.11059C9.08302 9.27962 8.91193 9.40897 8.77582 9.44707C8.7125 9.46481 8.66451 9.47602 8.62022 9.4743C8.57403 9.47243 8.5361 9.45729 8.49185 9.43443C8.43086 9.40289 8.38436 9.36834 8.35668 9.31189C8.33053 9.25847 8.32458 9.19149 8.32458 9.10378ZM12.8749 6.69297C12.8699 6.69402 12.8651 6.69589 12.8651 6.69589C12.87 6.69317 12.8752 6.69295 12.8797 6.692C12.8776 6.69219 12.8749 6.69297 12.8749 6.69297ZM13.7589 0.595446C14.0275 0.604405 14.2981 0.62604 14.4377 0.656713C14.8002 0.736376 15.1371 0.86003 15.4072 1.01459C15.5484 1.09536 15.7029 1.20014 15.8225 1.29078C15.8821 1.33594 15.9339 1.37824 15.9713 1.41331C15.9898 1.43066 16.0062 1.44711 16.018 1.46194C16.0238 1.46935 16.0301 1.47786 16.0345 1.48625C16.0384 1.49369 16.0432 1.50626 16.0433 1.52126C16.0433 1.55821 16.0146 1.5755 15.9995 1.58155C15.9833 1.58797 15.9632 1.59112 15.9441 1.59225C15.9046 1.59456 15.8482 1.59115 15.7768 1.5835C15.4201 1.54532 15.0936 1.70293 14.7761 2.08433C14.6985 2.17758 14.6567 2.23138 14.6361 2.27008C14.6263 2.28846 14.623 2.30218 14.6215 2.31287C14.62 2.32339 14.6203 2.33457 14.6234 2.34982C14.6249 2.35734 14.6263 2.36784 14.6244 2.379C14.6225 2.38994 14.615 2.41057 14.5923 2.42081C14.5767 2.42768 14.5622 2.42491 14.5524 2.42179C14.5508 2.42329 14.5486 2.42466 14.5466 2.42665C14.5286 2.44435 14.5046 2.4737 14.4805 2.51028C14.3921 2.64422 14.2584 2.79181 14.1167 2.92067C13.9755 3.04908 13.8226 3.16195 13.6927 3.22604C13.25 3.44426 12.7308 3.5335 12.1134 3.49931C11.8851 3.48668 11.7283 3.48867 11.6009 3.51098C11.4753 3.53301 11.376 3.57467 11.2635 3.64518C11.1832 3.69547 11.1014 3.77582 11.0359 3.86496C10.9702 3.95438 10.9247 4.0482 10.9104 4.12365C10.9 4.17931 10.8966 4.33935 10.9046 4.47861C10.9204 4.75203 11.0012 4.96644 11.1964 5.23812C11.2649 5.33353 11.3101 5.40201 11.3189 5.48027C11.3274 5.55745 11.3001 5.63775 11.2557 5.75452C11.2203 5.84753 11.1823 6.02174 11.172 6.13768C11.1649 6.21873 11.1587 6.28329 11.1497 6.32926C11.1452 6.3522 11.1388 6.37465 11.1302 6.39247C11.1217 6.40994 11.1069 6.43066 11.0816 6.44012C11.0558 6.44964 11.0314 6.44265 11.0135 6.43429C10.9956 6.42588 10.9773 6.4132 10.96 6.39831C10.9253 6.36837 10.8819 6.3216 10.8278 6.26313C10.4705 5.87735 10.2545 5.46277 10.1072 4.88219C9.94989 4.26213 9.93544 3.45496 10.0751 2.95666C10.4188 1.73056 11.5867 0.821254 13.0674 0.611005C13.2152 0.590037 13.4901 0.586481 13.7589 0.595446ZM13.756 0.69464C13.4877 0.685693 13.2206 0.689637 13.082 0.709227C11.6314 0.91512 10.5023 1.80301 10.1713 2.98291C10.0374 3.46071 10.0494 4.25039 10.2034 4.85788C10.3473 5.42466 10.5563 5.82416 10.9007 6.19603C10.9558 6.2555 10.9956 6.29694 11.0252 6.32245C11.0323 6.32856 11.0388 6.3326 11.0437 6.33607C11.0457 6.3296 11.0493 6.32165 11.0515 6.31078C11.0593 6.27104 11.0655 6.21178 11.0728 6.12893C11.0837 6.00523 11.1233 5.82226 11.1623 5.71951C11.2088 5.59728 11.2252 5.54006 11.2197 5.49097C11.2143 5.4428 11.1869 5.39565 11.1156 5.29647C10.9116 5.01244 10.8215 4.78028 10.8044 4.48444C10.7964 4.34443 10.7993 4.17371 10.8122 4.10517C10.8302 4.00974 10.8856 3.90266 10.9561 3.80661C11.0272 3.70992 11.1176 3.61904 11.2109 3.56057C11.3322 3.48465 11.4438 3.43737 11.5844 3.41275C11.7234 3.38846 11.8893 3.38642 12.1192 3.39914C12.7238 3.43261 13.2243 3.34625 13.648 3.13754C13.7665 3.07913 13.9128 2.97213 14.0506 2.84676C14.188 2.72173 14.3144 2.58069 14.3968 2.45582C14.4235 2.41532 14.452 2.37977 14.4766 2.35566C14.4884 2.34407 14.5018 2.33293 14.5155 2.32551C14.5176 2.32436 14.5205 2.32379 14.5232 2.32259C14.5233 2.31479 14.5211 2.30647 14.5223 2.29828C14.5259 2.27339 14.5349 2.24897 14.5485 2.2234C14.5748 2.17407 14.6231 2.1126 14.6993 2.02112L14.8247 1.88205C15.1203 1.58131 15.437 1.44677 15.7875 1.4843C15.8377 1.48968 15.8773 1.48966 15.9071 1.49014L15.9032 1.48625C15.8694 1.45451 15.8206 1.41378 15.7622 1.36955C15.6457 1.28126 15.4946 1.1795 15.3576 1.10114C15.0978 0.952504 14.7708 0.831878 14.4163 0.753962C14.2866 0.725474 14.0245 0.703608 13.756 0.69464ZM14.5116 4.3444C14.602 4.36208 14.7009 4.41325 14.8131 4.49319C14.9221 4.5708 15.0905 4.6578 15.1836 4.68575C15.3328 4.73056 15.4281 4.7628 15.486 4.80439C15.5172 4.82681 15.5389 4.85283 15.5531 4.88511C15.5667 4.916 15.5725 4.94984 15.5755 4.98527C15.5838 5.08466 15.5636 5.16856 15.4948 5.22451C15.43 5.27706 15.3327 5.29571 15.2108 5.2955C15.0368 5.29514 14.8565 5.26022 14.6973 5.20214C14.5388 5.14425 14.3973 5.06126 14.3025 4.96096C14.2116 4.86471 14.1569 4.75773 14.1469 4.65657C14.1367 4.55349 14.1735 4.45768 14.2616 4.39594C14.3363 4.3438 14.4184 4.32622 14.5116 4.3444ZM14.4921 4.44165C14.4253 4.42867 14.3703 4.44102 14.3181 4.47763C14.2629 4.51633 14.238 4.57528 14.2451 4.64685C14.2524 4.72032 14.2942 4.80791 14.3745 4.89289C14.4553 4.97844 14.582 5.05424 14.7314 5.10878C14.8803 5.16313 15.0491 5.195 15.2108 5.19533C15.3282 5.19555 15.3959 5.17745 15.4325 5.14768C15.4652 5.12117 15.4833 5.07639 15.4763 4.99305C15.4736 4.96109 15.4695 4.94049 15.4627 4.92498C15.4565 4.91083 15.4462 4.89841 15.4277 4.88511C15.3861 4.85537 15.3092 4.82725 15.1554 4.78105C15.049 4.74912 14.8699 4.65597 14.7547 4.57391C14.647 4.49717 14.5619 4.45528 14.4921 4.44165ZM16.581 2.76216C16.6567 2.94583 16.7354 3.1897 16.7629 3.44874C16.7861 3.42464 16.8124 3.39593 16.8465 3.36413C16.9677 3.25113 17.0547 3.12956 17.0994 3.02084C17.1448 2.9102 17.1433 2.82301 17.1091 2.76897C17.1072 2.7659 17.1052 2.76313 17.1052 2.76313C17.108 2.76481 17.1095 2.76293 17.1052 2.76313C17.0914 2.76382 17.0644 2.77245 17.005 2.79619C16.8876 2.84319 16.7998 2.87115 16.7045 2.83704C16.6634 2.82231 16.624 2.79675 16.581 2.76216ZM15.3139 0.428177H15.3158C15.318 0.427664 15.3222 0.426008 15.3265 0.423315C15.3231 0.425427 15.3182 0.426323 15.3139 0.428177ZM15.275 0.337735L15.274 0.338708C15.2758 0.337615 15.2798 0.336763 15.2798 0.336763L15.275 0.337735ZM13.3563 21.5906C13.3565 21.7397 13.3745 21.8709 13.4068 21.9728C13.4396 22.076 13.4845 22.1424 13.5313 22.1731C13.636 22.2417 13.7739 22.2269 13.8464 22.1498C13.8848 22.1089 13.8924 22.098 13.895 22.0729C13.8967 22.057 13.8965 22.0344 13.8921 21.998C13.8877 21.9618 13.8801 21.9149 13.8697 21.8512C13.8383 21.6576 13.8352 21.5495 13.8649 21.4428C13.9022 21.3082 13.904 21.2069 13.8804 21.1374C13.8582 21.0719 13.8112 21.0293 13.7336 21.011C13.7072 21.0048 13.69 21.0058 13.6762 21.01C13.6621 21.0144 13.6454 21.0242 13.6237 21.046C13.6071 21.0626 13.5924 21.0811 13.5819 21.0965C13.5766 21.1043 13.5723 21.1106 13.5702 21.115V21.1121L13.5615 21.1481C13.5455 21.1793 13.5092 21.195 13.4798 21.1957C13.4865 21.1956 13.4878 21.1942 13.4817 21.1977C13.477 21.2004 13.4702 21.2046 13.4623 21.2113C13.446 21.2251 13.4277 21.245 13.4117 21.2667C13.3693 21.3244 13.3559 21.3776 13.3563 21.5906ZM7.53492 13.4761C7.5349 13.5577 7.56307 13.6107 7.61369 13.6453C7.66781 13.6823 7.75553 13.7032 7.88502 13.6998C7.96118 13.6978 8.02397 13.7028 8.09605 13.7221C8.16705 13.7413 8.24628 13.7743 8.35473 13.8252C8.49925 13.893 8.58624 13.9232 8.6494 13.9254C8.70533 13.9273 8.74647 13.907 8.80111 13.8525C8.83166 13.8219 8.85164 13.7706 8.85167 13.6891C8.85167 13.6148 8.83258 13.5609 8.78263 13.5092C8.72954 13.4543 8.64002 13.3999 8.49283 13.3322C8.404 13.2913 8.33869 13.2661 8.26915 13.2505C8.19935 13.2348 8.12263 13.2278 8.0095 13.2233C7.91756 13.2196 7.84425 13.2204 7.78971 13.2252C7.7324 13.2302 7.70357 13.2391 7.69344 13.2456C7.58526 13.3152 7.53497 13.3986 7.53492 13.4761ZM16.3739 7.0421C16.3739 7.22601 16.2873 7.41434 16.1522 7.49139C16.1156 7.51221 16.0987 7.52713 16.0899 7.54098C16.0817 7.5541 16.0774 7.57284 16.0773 7.60906C16.0772 7.65084 16.063 7.69889 16.0423 7.74715C16.0212 7.79624 15.9916 7.8495 15.9548 7.90178C15.8933 7.98893 15.7801 8.16092 15.7039 8.28397C15.6169 8.42443 15.5383 8.52404 15.4491 8.59419C15.3588 8.6652 15.2606 8.70356 15.1369 8.72645C14.9943 8.75281 14.8066 8.74359 14.6186 8.70895C14.4299 8.67417 14.2358 8.613 14.0798 8.53292C14.0594 8.52243 14.0398 8.51453 14.0244 8.50959V8.51153C14.0187 8.53261 14.0122 8.5621 14.0049 8.59808C13.9903 8.67012 13.9738 8.76615 13.9582 8.86649C13.9268 9.06866 13.9 9.28445 13.8999 9.36927C13.8996 9.5753 13.9775 9.70921 14.1099 9.76993C14.1358 9.7817 14.205 9.8047 14.2996 9.83217C14.3931 9.85933 14.5077 9.88992 14.6205 9.91775C14.9883 10.0085 15.0983 10.0203 15.7982 10.0451C16.0437 10.0539 16.2532 10.0654 16.4147 10.0782C16.5745 10.0909 16.6925 10.1055 16.7503 10.122C17.4104 10.3101 17.8443 10.7791 18.3306 11.7976C18.6663 12.5008 18.7969 12.8641 18.9257 13.4537C18.9289 13.4685 18.9431 13.4941 18.9724 13.5276C19.0006 13.5599 19.0397 13.5958 19.0872 13.6307C19.2307 13.7361 19.4529 13.9601 19.6755 14.2123C19.8989 14.4654 20.1269 14.7515 20.2814 14.9825C20.6333 15.5089 20.8378 15.9429 21.1391 16.7972C21.3359 17.355 21.4332 17.7164 21.4095 18.077C21.3857 18.4372 21.2411 18.7912 20.9718 19.3363C20.7972 19.69 20.4885 20.2316 20.2133 20.6842C20.0756 20.9106 19.9461 21.1163 19.8457 21.2648C19.7957 21.3387 19.752 21.3991 19.7183 21.4418C19.7016 21.463 19.6857 21.4813 19.6726 21.4943C19.6663 21.5005 19.6594 21.5068 19.6522 21.5118L19.6483 21.5128C19.6475 21.5169 19.6472 21.5206 19.6463 21.5235C19.6431 21.5336 19.6384 21.5459 19.6327 21.5575C19.6211 21.5812 19.6035 21.6124 19.5822 21.648C19.5391 21.7197 19.4776 21.8128 19.4129 21.9086C19.3482 22.0044 19.2797 22.1036 19.2194 22.1848C19.1602 22.2644 19.1061 22.3319 19.0735 22.3618C18.9377 22.486 18.7071 22.4835 18.596 22.3423C18.5611 22.2979 18.5303 22.2524 18.5202 22.1955C18.5102 22.1381 18.5224 22.0763 18.5542 22C18.6169 21.8496 18.7678 21.6156 19.0473 21.1948C19.6977 20.2156 20.0487 19.6282 20.3592 18.996C20.4903 18.7291 20.5826 18.5199 20.6422 18.3541C20.7018 18.188 20.7268 18.0684 20.7268 17.9787C20.7268 17.9054 20.705 17.7819 20.6645 17.6238C20.6244 17.4669 20.567 17.2799 20.4992 17.0821C20.3636 16.6864 20.1871 16.2491 20.0207 15.9229C19.7023 15.2983 19.4694 14.9949 18.7721 14.2988L18.3024 13.8301L18.2917 13.8194L18.2372 13.5461C18.209 13.4057 18.155 13.1952 18.1176 13.0793C18.0654 12.9177 17.9166 12.5704 17.7607 12.2323C17.6047 11.8939 17.4444 11.5713 17.3688 11.4553C17.1222 11.0769 16.8213 10.8628 16.4118 10.7716C16.2878 10.744 16.0241 10.7217 15.7846 10.7133C15.6654 10.709 15.5533 10.7083 15.4705 10.7113C15.4346 10.7126 15.4051 10.7155 15.3829 10.7181C15.3928 10.7392 15.407 10.7672 15.4257 10.8008C15.469 10.8784 15.5328 10.9832 15.6076 11.1003C15.6824 11.2174 15.768 11.3462 15.8546 11.4718L16.1084 11.8248L16.336 12.1117C16.4247 12.2206 16.5198 12.3341 16.5985 12.4258C16.6778 12.5182 16.7488 12.6048 16.7989 12.6699C16.8236 12.7021 16.8435 12.7299 16.8572 12.7506C16.8601 12.755 16.8625 12.7601 16.865 12.7642C16.8782 12.7661 16.8903 12.7699 16.9 12.7749C16.9211 12.7858 16.9416 12.8032 16.9584 12.8206C16.9751 12.838 16.9917 12.8586 17.0021 12.88C17.0063 12.8886 17.0086 12.8993 17.0109 12.9101C17.0172 12.9129 17.0233 12.9157 17.0284 12.9189C17.0447 12.9291 17.063 12.9442 17.0819 12.9617C17.1201 12.9972 17.1669 13.0482 17.2132 13.1066C17.7513 13.7848 17.964 14.365 17.9678 15.1741C17.9687 15.356 17.9656 15.478 17.9513 15.5913C17.9371 15.7031 17.911 15.8052 17.8696 15.9482C17.8745 15.9485 17.8808 15.9501 17.8881 15.9501C17.9322 15.9502 17.9824 15.9736 18.0339 16.0075C18.0879 16.043 18.1526 16.0963 18.2284 16.165C18.5109 16.4209 18.7575 16.5869 19.1183 16.7651C19.2707 16.8404 19.3738 16.9016 19.4334 16.9644C19.4641 16.9969 19.4851 17.0315 19.4946 17.0704C19.5041 17.1093 19.5006 17.1489 19.4907 17.1881C19.4849 17.2116 19.4866 17.225 19.4927 17.2387C19.5005 17.2559 19.5178 17.2789 19.5559 17.3145C19.5867 17.3432 19.6152 17.3773 19.6356 17.4098C19.6458 17.4261 19.6545 17.4434 19.6609 17.4594C19.667 17.4747 19.6726 17.493 19.6726 17.511C19.6725 17.5237 19.669 17.5359 19.6658 17.545C19.6622 17.5552 19.6568 17.5669 19.6512 17.5781C19.64 17.6005 19.624 17.6272 19.6055 17.6559C19.5682 17.7135 19.5173 17.7827 19.4616 17.8504C19.1987 18.1696 19.0865 18.4119 18.8596 19.1632C18.8064 19.3391 18.756 19.498 18.7176 19.6125C18.6985 19.6696 18.6822 19.7165 18.67 19.7487C18.6639 19.7645 18.658 19.7779 18.6534 19.7876C18.6513 19.792 18.6482 19.798 18.6447 19.8031C18.6434 19.805 18.6397 19.8085 18.6349 19.8129C18.6329 19.8224 18.6308 19.8371 18.6301 19.8556C18.6291 19.8843 18.6186 19.9342 18.6009 20.0025C18.5826 20.0729 18.5547 20.1687 18.5173 20.2923C18.4424 20.5395 18.3268 20.9014 18.1623 21.4048C18.1091 21.5676 18.0659 21.696 18.0271 21.7958C17.9886 21.895 17.953 21.9688 17.9163 22.0224C17.8789 22.0768 17.8382 22.1129 17.7869 22.1313C17.7372 22.1491 17.6836 22.1484 17.6274 22.142C17.5461 22.1326 17.3923 22.0925 17.2832 22.0535C17.1804 22.0167 17.0221 21.9865 16.935 21.9864C16.8392 21.9864 16.789 21.9982 16.7464 22.0331C16.6996 22.0713 16.6558 22.1423 16.5869 22.2801C16.5396 22.3745 16.4943 22.4433 16.4381 22.4872C16.3794 22.5329 16.3131 22.5475 16.2339 22.5475C16.1155 22.5474 16.0215 22.4956 15.9684 22.4046C15.9165 22.3154 15.9082 22.1963 15.9431 22.0671C15.9855 21.9101 16.1041 21.7229 16.2241 21.5847C16.2844 21.5154 16.3476 21.4557 16.405 21.4175C16.4335 21.3985 16.4628 21.3831 16.4916 21.3757C16.499 21.3737 16.5069 21.3736 16.5149 21.3727C16.5154 21.3707 16.5151 21.368 16.5159 21.3659C16.5211 21.3521 16.5311 21.3419 16.5421 21.3358C16.5601 21.326 16.5797 21.3271 16.5888 21.328C16.5978 21.329 16.6076 21.3314 16.618 21.3338C16.6288 21.3095 16.6506 21.301 16.6618 21.2988C16.6749 21.2963 16.6889 21.2974 16.7007 21.2988C16.7133 21.3004 16.7279 21.3037 16.7434 21.3076C16.758 21.3112 16.7695 21.3101 16.7775 21.3105C16.781 21.3041 16.7857 21.2981 16.7911 21.293C16.8033 21.2813 16.8182 21.2744 16.831 21.2706C16.8563 21.2632 16.8887 21.2615 16.9243 21.2628C16.9975 21.2657 17.1041 21.2828 17.2394 21.3115C17.3013 21.3246 17.3586 21.3351 17.4009 21.3416C17.4148 21.3438 17.4271 21.3444 17.4368 21.3455C17.439 21.34 17.4428 21.3342 17.4456 21.327C17.4569 21.2974 17.4719 21.2548 17.4903 21.2016C17.5272 21.0949 17.5773 20.9452 17.6343 20.7688C17.7481 20.4163 17.8918 19.9557 18.0262 19.5094C18.4302 18.1677 18.5603 17.8201 18.7789 17.5333C18.8043 17.5 18.8214 17.4751 18.8314 17.4565C18.8405 17.4395 18.8411 17.4322 18.8411 17.4322C18.8416 17.4356 18.8438 17.434 18.8333 17.4264C18.8218 17.418 18.8025 17.4082 18.7711 17.3952C18.67 17.3537 18.4751 17.2298 18.2819 17.0938C18.0877 16.957 17.8876 16.8027 17.7753 16.695L17.6012 16.5278L17.574 16.5628C17.5392 16.6068 17.4227 16.7423 17.3153 16.8633L17.1324 17.0685V17.3184C17.1324 17.8592 17.0185 18.2334 16.3729 19.8537C16.0385 20.693 15.8471 21.2007 15.7389 21.5984C15.6312 21.994 15.6051 22.2814 15.6017 22.6798C15.5995 22.9444 15.593 23.1068 15.5667 23.2098C15.5532 23.2627 15.5335 23.3038 15.5035 23.3362C15.4737 23.3685 15.4373 23.3881 15.3975 23.4033C15.2668 23.453 15.1345 23.4142 15.0328 23.3061C14.9846 23.2546 14.9542 23.164 14.9346 23.0581C14.9145 22.9492 14.9045 22.8135 14.9035 22.6623C14.9015 22.3595 14.9364 21.9883 15.0095 21.6304C15.0879 21.2466 15.3146 20.591 15.6436 19.7905C15.9064 19.1508 16.1168 18.5943 16.2533 18.1859C16.3215 17.9817 16.3708 17.8149 16.3992 17.6938C16.4133 17.6334 16.4221 17.5858 16.4254 17.5508C16.4268 17.5368 16.4257 17.5253 16.4254 17.5168C16.418 17.5157 16.4084 17.514 16.3972 17.5129C16.3599 17.5093 16.3064 17.5062 16.2407 17.5042C16.109 17.5001 15.9305 17.4997 15.7379 17.5022C15.352 17.5072 14.9126 17.5249 14.6798 17.5508C13.5992 17.6711 12.5284 17.8981 11.6884 18.1859C11.4933 18.2527 11.3048 18.3247 11.1652 18.3823C11.0956 18.4111 11.0388 18.4359 10.9999 18.4553C10.9901 18.4602 10.9816 18.465 10.9746 18.4689C10.9804 18.4808 10.9875 18.4956 10.996 18.5126C11.0192 18.5588 11.052 18.6205 11.0874 18.6867C11.2318 18.9564 11.3115 19.1881 11.3237 19.4132C11.3359 19.6389 11.2796 19.8539 11.1613 20.09C10.9791 20.4538 10.7701 20.7226 10.326 21.1695C10.2254 21.2706 10.1343 21.3651 10.0683 21.435C10.0488 21.4556 10.0312 21.4736 10.0167 21.4894C10.0271 21.4899 10.0382 21.4914 10.0498 21.4914C10.1436 21.4914 10.3015 21.522 10.4573 21.5643C10.6139 21.6068 10.777 21.6637 10.8832 21.717C11.0319 21.7917 11.2229 21.9194 11.3724 22.035C11.4472 22.0929 11.5135 22.1489 11.5591 22.1945C11.5815 22.2169 11.6007 22.2385 11.6136 22.2577C11.6198 22.2671 11.6263 22.2786 11.6301 22.2908C11.6308 22.2931 11.6305 22.2964 11.6311 22.2995C11.6327 22.3009 11.6359 22.3034 11.6359 22.3034C11.6439 22.3103 11.6539 22.319 11.6641 22.3297C11.6848 22.3513 11.7118 22.3819 11.7429 22.4182C11.8054 22.4909 11.886 22.5893 11.9675 22.6914C12.049 22.7936 12.132 22.9005 12.199 22.99C12.2648 23.0779 12.318 23.1528 12.3381 23.1903L12.3604 23.2438C12.3786 23.2992 12.3851 23.3606 12.3808 23.4179C12.3752 23.4931 12.351 23.5719 12.3021 23.6211C12.2578 23.6654 12.1855 23.69 12.1163 23.6989C12.046 23.708 11.9676 23.7025 11.9024 23.6775C11.8941 23.6743 11.8859 23.6697 11.882 23.6668C11.8772 23.6633 11.8723 23.6586 11.8674 23.6542C11.8575 23.6454 11.8456 23.6338 11.8324 23.6202C11.8054 23.5925 11.7703 23.5539 11.7303 23.5083C11.65 23.4171 11.5475 23.2942 11.4414 23.1621C11.0931 22.7285 11.033 22.6518 10.96 22.5893C10.935 22.5679 10.9086 22.5489 10.8667 22.5164C10.6665 22.3612 10.4986 22.2884 10.1986 22.2295C10.0655 22.2034 9.99454 22.1908 9.92531 22.1906C9.85616 22.1904 9.78676 22.202 9.6569 22.2276C9.50791 22.2568 9.24767 22.3343 9.08021 22.3987C8.6772 22.5537 8.42742 22.5855 8.21469 22.4823C8.1586 22.4551 8.07768 22.3994 7.98227 22.3258C7.88594 22.2515 7.77229 22.1559 7.6487 22.0476C7.40136 21.8309 7.11469 21.5594 6.85418 21.291C6.42063 20.8444 5.96419 20.3126 5.2836 19.4618C4.86099 18.9335 4.39084 18.4622 4.11758 18.287C3.98499 18.202 3.89304 18.1225 3.8482 18.0371C3.80052 17.9461 3.81007 17.8553 3.8589 17.7609C3.91105 17.6601 3.97931 17.5919 4.07674 17.5742C4.16977 17.5574 4.27749 17.5886 4.40252 17.652C4.81587 17.8615 5.25865 18.3016 5.95559 19.1817C6.56372 19.9497 7.0563 20.5077 7.65454 21.1072C7.81208 21.2651 7.9498 21.4018 8.04451 21.4943C8.08671 21.5355 8.12083 21.5671 8.1437 21.5886C8.14718 21.5892 8.15148 21.5896 8.15148 21.5896C8.15943 21.592 8.16667 21.5958 8.17093 21.5984C8.18923 21.6092 8.21863 21.6325 8.25359 21.6625C8.32136 21.7207 8.42445 21.7905 8.48018 21.8172C8.52793 21.8399 8.55235 21.8476 8.57646 21.8483C8.60208 21.849 8.63361 21.8423 8.69608 21.822C8.73608 21.8091 8.7774 21.7979 8.8118 21.7899C8.82897 21.786 8.84491 21.7824 8.85848 21.7802C8.86337 21.7794 8.86867 21.7788 8.87404 21.7783C8.87711 21.7713 8.87991 21.7653 8.88279 21.7617C8.89201 21.7504 8.90483 21.7414 8.91586 21.7345C8.93911 21.72 8.97319 21.7041 9.01408 21.6878C9.09705 21.6548 9.21886 21.6156 9.3671 21.574C9.43233 21.5558 9.47989 21.5415 9.51394 21.5303C9.52088 21.528 9.52691 21.5255 9.53242 21.5235C9.5286 21.5204 9.52462 21.5166 9.51978 21.5128C9.46722 21.4714 9.42974 21.4106 9.41086 21.3475C9.39202 21.2844 9.38998 21.2137 9.4128 21.152C9.41675 21.1414 9.42356 21.1302 9.42934 21.1218C9.43593 21.1123 9.44493 21.101 9.45462 21.0888C9.47416 21.0642 9.50063 21.033 9.53145 20.9983C9.59347 20.9285 9.67576 20.8414 9.7629 20.7533C10.0112 20.5022 10.2304 20.2378 10.3872 20.0093C10.4657 19.895 10.5276 19.7898 10.5701 19.701C10.613 19.611 10.6332 19.5429 10.6333 19.4987C10.6333 19.4486 10.609 19.3492 10.5672 19.2323C10.526 19.1175 10.4706 18.9924 10.4145 18.8939C10.0228 18.2058 9.1024 16.9104 8.54339 16.2594C8.21399 15.8758 7.98835 15.5607 7.88307 15.3336C7.86758 15.3002 7.85697 15.2764 7.84709 15.2597C7.83717 15.2428 7.83092 15.2367 7.82764 15.2344C7.82355 15.2315 7.81645 15.2277 7.76054 15.2363C7.46961 15.2812 7.20858 15.4929 6.86487 15.9929C6.57586 16.4134 6.18535 16.8775 5.82139 17.2328C5.63568 17.4142 5.49521 17.5375 5.37988 17.616C5.26409 17.6948 5.16913 17.7316 5.07452 17.7317C4.82748 17.7317 4.66302 17.4854 4.75165 17.2542C4.7577 17.2385 4.77086 17.2225 4.7818 17.2095C4.79413 17.1948 4.80966 17.1775 4.8275 17.1599C4.8632 17.1247 4.90906 17.0841 4.95684 17.0461C5.39511 16.6983 5.80088 16.2561 6.2843 15.5952C6.38994 15.4507 6.50248 15.3046 6.59938 15.1857C6.69498 15.0685 6.77808 14.9738 6.82306 14.9348C6.90693 14.8623 7.05235 14.7704 7.18677 14.6976C7.25427 14.661 7.32062 14.6288 7.3764 14.6052C7.40429 14.5934 7.43055 14.5829 7.45323 14.576C7.47466 14.5694 7.49703 14.5644 7.51644 14.5643C7.51399 14.5643 7.52049 14.5642 7.53395 14.5507C7.54651 14.538 7.56026 14.5186 7.56993 14.4953C7.62035 14.3735 7.71997 14.2891 7.82959 14.2551C7.93947 14.2211 8.06277 14.2371 8.15343 14.3222C8.16872 14.3365 8.18575 14.359 8.20205 14.3834C8.21886 14.4087 8.23744 14.4397 8.25651 14.4739C8.29486 14.5426 8.33643 14.6271 8.37224 14.7102C8.52412 15.0624 8.7202 15.3575 9.16676 15.9015C9.62811 16.4635 9.89955 16.8263 10.2812 17.3914C10.3698 17.5225 10.4517 17.6431 10.5117 17.7317C10.5417 17.7759 10.5663 17.8121 10.5837 17.8377C10.5873 17.843 10.5905 17.848 10.5934 17.8523C10.6038 17.8491 10.6171 17.846 10.6323 17.8406C10.6765 17.8253 10.7369 17.8025 10.8025 17.7755C11.4274 17.5182 12.3531 17.2516 13.2464 17.0714C14.1526 16.8886 14.6143 16.8377 15.5638 16.8176L16.4167 16.7991L16.6423 16.5628C16.8924 16.2996 17.0497 16.0922 17.1451 15.8801C17.2401 15.6688 17.2753 15.449 17.2754 15.1585C17.2755 14.775 17.2134 14.4601 17.0527 14.1364C16.8912 13.8113 16.6289 13.4739 16.2241 13.0482C16.0988 12.9164 15.9777 12.7761 15.8877 12.6612C15.8428 12.6038 15.8045 12.5519 15.7778 12.5104C15.7676 12.4946 15.7587 12.4792 15.7515 12.4657C15.7409 12.4983 15.7296 12.5403 15.7204 12.5863C15.6961 12.7067 15.6481 12.8476 15.5969 12.9617C15.5712 13.0188 15.5438 13.0706 15.5181 13.1104C15.5053 13.1303 15.4923 13.1486 15.4792 13.163C15.4673 13.176 15.4513 13.1893 15.4325 13.197C15.4342 13.2148 15.4305 13.2299 15.4267 13.2378C15.4198 13.2523 15.4098 13.2668 15.3985 13.2797C15.3753 13.3061 15.3404 13.3374 15.3003 13.3691C15.2197 13.4329 15.1088 13.5056 14.9978 13.5646C14.5326 13.8118 13.8988 13.841 13.2473 13.6939C12.5947 13.5466 11.917 13.2215 11.3607 12.7506C10.9468 12.4002 10.4065 11.7203 10.0537 11.1295C10.1583 11.4179 10.2362 11.7487 10.2793 12.0884C10.3434 12.5937 10.3356 13.1225 10.2414 13.5636C10.0984 14.2324 9.8975 14.7093 9.58007 15.1274C9.47325 15.268 9.3816 15.3643 9.28638 15.4201C9.18837 15.4774 9.09031 15.4897 8.97615 15.4726C8.88631 15.4592 8.81233 15.4256 8.76123 15.3666C8.71011 15.3075 8.68732 15.2289 8.68732 15.1381C8.68737 15.0853 8.70024 15.0398 8.73595 14.9864C8.7698 14.9358 8.82492 14.8769 8.90808 14.7948C9.05113 14.6536 9.14633 14.5204 9.24262 14.3261C9.63689 13.5303 9.73637 12.6742 9.53242 11.8384C9.49385 11.6804 9.41343 11.4413 9.32917 11.2228C9.28715 11.1139 9.24394 11.0109 9.20566 10.9262C9.16685 10.8404 9.13379 10.7764 9.11133 10.7444C9.10102 10.7298 9.07441 10.7085 8.99074 10.6782C8.90887 10.6486 8.78224 10.6136 8.58521 10.5635C8.34662 10.5028 8.21801 10.4712 8.10286 10.4565C7.98868 10.4419 7.88618 10.4435 7.69927 10.4497C7.52963 10.4553 7.42526 10.4624 7.33945 10.4769C7.255 10.4913 7.18667 10.5136 7.08952 10.5528C6.79888 10.6701 6.62083 10.7925 6.38738 11.0351C5.8521 11.5915 5.58536 12.2809 5.30402 13.8807L5.24567 14.2103L5.24373 14.2249L5.23303 14.2366L4.93156 14.5497C4.39069 15.112 3.85231 15.8845 3.44948 16.625C3.24815 16.9952 3.08067 17.3563 2.96421 17.6782C2.84741 18.0011 2.78303 18.2809 2.78332 18.4893C2.78385 18.8577 2.96375 19.1584 3.62453 19.8362C4.284 20.5126 5.2045 21.2623 6.96893 22.5572C7.12324 22.6705 7.27271 22.7825 7.38905 22.8723C7.44725 22.9172 7.49748 22.9569 7.53589 22.988C7.57326 23.0183 7.60216 23.0431 7.61564 23.0571C7.61925 23.0608 7.62321 23.0637 7.62633 23.0668C7.63465 23.0662 7.64145 23.067 7.64481 23.0678C7.65352 23.0699 7.66135 23.0746 7.66718 23.0775C7.67369 23.0808 7.68115 23.0846 7.68857 23.0892C7.71833 23.1076 7.76217 23.139 7.81208 23.1787C7.89835 23.2472 7.96649 23.3111 8.01339 23.3683C8.05878 23.4237 8.09095 23.481 8.09216 23.5356C8.09226 23.5405 8.09187 23.5471 8.09021 23.554C8.08854 23.5608 8.08496 23.5719 8.07563 23.5813C8.05135 23.6055 8.02186 23.5953 8.01144 23.59C8.00722 23.5878 8.00413 23.5839 8.00074 23.5813C8.00009 23.5872 7.9982 23.5936 7.99783 23.6007C7.99653 23.6254 7.99751 23.6523 8.00074 23.6746C8.00353 23.6936 8.00533 23.7113 8.00561 23.7262C8.00583 23.7398 8.00508 23.7577 7.99783 23.7738C7.99378 23.7827 7.98732 23.7925 7.9774 23.8001C7.96745 23.8076 7.95653 23.8114 7.94628 23.8127C7.94373 23.813 7.94099 23.8107 7.9385 23.8108C7.93687 23.8164 7.93766 23.8229 7.93461 23.8283C7.92236 23.85 7.90151 23.8642 7.88307 23.873C7.84515 23.891 7.79159 23.9002 7.73331 23.9002C7.71109 23.9002 7.68666 23.8907 7.66329 23.8798C7.63786 23.868 7.60546 23.8504 7.56604 23.8263C7.48706 23.778 7.374 23.7011 7.214 23.5881C6.89366 23.3617 6.38266 22.9861 5.57924 22.389C4.76634 21.7848 4.06589 21.2114 3.51756 20.7046C2.97008 20.1986 2.57151 19.7564 2.36418 19.4151C2.14008 19.0462 2.04955 18.6751 2.10453 18.2199C2.15918 17.7677 2.35715 17.2343 2.70358 16.5385C3.1375 15.6671 3.75815 14.7575 4.33153 14.1549L4.59994 13.8719L4.64759 13.5947C4.86867 12.3006 5.12617 11.5442 5.55395 10.9496L5.6512 10.8134L5.54423 10.4828C5.369 9.94044 5.31104 9.59009 5.3118 9.07266C5.3126 8.53435 5.38236 8.13407 5.56271 7.81717C5.74377 7.49927 6.03244 7.27106 6.45545 7.06835C6.72652 6.93849 6.87291 6.8563 6.96018 6.76591C7.04365 6.67935 7.07613 6.58104 7.10508 6.40317C7.14135 6.17972 7.10158 5.84403 6.9524 5.19047C6.84305 4.71139 6.8086 4.3857 6.89599 4.11489C6.98406 3.84244 7.19221 3.63465 7.53881 3.38164C7.72166 3.24814 7.84857 3.11225 7.94628 2.92845C8.04473 2.74324 8.11457 2.50644 8.17968 2.16894C8.2734 1.68288 8.37873 1.43991 8.60369 1.21492C8.74849 1.07025 8.99359 0.934899 9.27276 0.829816C9.55314 0.724295 9.87346 0.647073 10.1723 0.621703C10.2806 0.612525 10.3498 0.60746 10.4009 0.617813C10.459 0.629656 10.4932 0.660612 10.5341 0.701447C10.6342 0.801554 10.6576 0.93624 10.6109 1.0603C10.7524 0.937922 10.8965 0.824306 11.0369 0.734512C11.2242 0.614678 11.4707 0.488163 11.6787 0.397057C11.7826 0.351563 11.8781 0.314219 11.953 0.291056C11.9901 0.279575 12.0236 0.270833 12.0512 0.266743C12.0643 0.264811 12.0778 0.264378 12.0901 0.264798L12.091 0.263826C12.0998 0.254961 12.1113 0.248106 12.1202 0.243404C12.1394 0.233292 12.1667 0.222041 12.198 0.211311C12.2614 0.18958 12.3514 0.16428 12.4518 0.139347C12.6528 0.0894671 12.9026 0.0394576 13.0849 0.0177854C13.3796 -0.0171954 14.0908 0.00271258 14.4309 0.0547401C14.5783 0.0773271 14.7924 0.132004 14.9686 0.186999C15.0567 0.214482 15.1366 0.242575 15.1952 0.266743C15.2243 0.278753 15.2504 0.290823 15.2691 0.301753C15.2781 0.307012 15.2876 0.313126 15.2954 0.32023C15.2981 0.322677 15.3011 0.326179 15.3042 0.329955C15.3063 0.329771 15.31 0.328983 15.31 0.328983C15.3195 0.328827 15.3294 0.330205 15.3382 0.3319C15.3559 0.335328 15.3771 0.341171 15.3995 0.349405C15.4446 0.366062 15.5025 0.392817 15.5667 0.42526C15.6957 0.49041 15.8554 0.582844 15.9995 0.67908C16.1351 0.769722 16.2765 0.892285 16.3963 1.01945C16.5157 1.14619 16.6171 1.28104 16.6725 1.39483C16.7227 1.49826 16.7554 1.64245 16.7639 1.78772L16.7746 1.98903C17.0349 2.18735 17.4603 2.85324 17.3464 4.111L17.3454 4.11976L17.3435 4.11878C17.2133 4.61962 17.0829 4.90839 16.866 5.15157L16.6968 5.33926L16.7152 5.51917C16.7259 5.62471 16.772 5.82955 16.8183 5.97235C16.8646 6.11491 16.8889 6.22892 16.8883 6.33218C16.8877 6.43696 16.8615 6.52818 16.8115 6.6249C16.7951 6.65667 16.7656 6.69133 16.7337 6.72312C16.701 6.75574 16.6626 6.78902 16.6248 6.81745C16.5873 6.84565 16.5486 6.87052 16.5159 6.8865C16.4999 6.8943 16.4826 6.90084 16.4663 6.904C16.4565 6.90589 16.4379 6.90528 16.4186 6.89622C16.4152 6.90013 16.4112 6.90653 16.407 6.91373C16.3889 6.94466 16.3739 6.99423 16.3739 7.0421ZM12.1854 4.32009C12.1861 4.32306 12.1866 4.32709 12.1883 4.33176C12.192 4.34171 12.1981 4.35418 12.2058 4.36774C12.2213 4.39485 12.2435 4.42424 12.2671 4.44943C12.3401 4.52749 12.4296 4.55047 12.5053 4.53307C12.5807 4.51563 12.6488 4.45705 12.6765 4.35704C12.7015 4.26651 12.6934 4.18544 12.6337 4.03904C12.6279 4.0249 12.6192 3.99721 12.6327 3.96902C12.6459 3.94196 12.6727 3.93058 12.692 3.92429C12.7324 3.91126 12.8032 3.90335 12.9118 3.89414C13.2066 3.86907 13.6496 3.7676 13.8581 3.67825C14.2699 3.5017 14.6395 3.16856 14.9998 2.64254C15.2023 2.34685 15.3394 2.20622 15.5142 2.1349C15.5358 2.12609 15.5573 2.11799 15.5813 2.11351C15.6063 2.10887 15.6318 2.10844 15.663 2.11253C15.7223 2.12031 15.8119 2.14487 15.9742 2.18936C16.0722 2.2162 16.1387 2.23902 16.2095 2.28661C16.2782 2.33281 16.3498 2.40144 16.4624 2.51514C16.5315 2.58492 16.5848 2.63703 16.6297 2.67463C16.6743 2.71212 16.708 2.73301 16.7376 2.74368C16.7934 2.76364 16.8481 2.75182 16.9681 2.70381C17.0229 2.68188 17.0659 2.66678 17.0994 2.66491C16.9751 2.32668 16.8086 2.12997 16.6987 2.05418L16.6793 2.04057L16.6773 2.01626L16.6647 1.79356C16.6568 1.65718 16.626 1.52609 16.583 1.43762C16.5338 1.33667 16.4393 1.2116 16.3233 1.0885C16.2077 0.96578 16.0733 0.847488 15.945 0.761742C15.8041 0.667606 15.6474 0.578086 15.522 0.514729C15.4594 0.483101 15.4055 0.458569 15.3654 0.443737C15.3452 0.436289 15.3299 0.431121 15.3197 0.429149C15.3173 0.428684 15.3139 0.428177 15.3139 0.428177C15.2984 0.434889 15.2785 0.440239 15.2575 0.431094C15.2382 0.422687 15.2296 0.406645 15.2244 0.391222C15.2244 0.391222 15.2209 0.388697 15.2186 0.387332C15.2057 0.379832 15.1849 0.370505 15.1573 0.35913C15.1025 0.336513 15.0254 0.309413 14.9385 0.282303C14.7643 0.227947 14.5556 0.174419 14.4153 0.152962C14.0827 0.102077 13.381 0.083218 13.0966 0.11698C12.9197 0.13802 12.6738 0.187265 12.4752 0.236596C12.3759 0.261256 12.2895 0.285269 12.2301 0.305643C12.2075 0.313396 12.19 0.320471 12.1776 0.326065C12.1766 0.337877 12.1732 0.352507 12.1581 0.363992C12.1369 0.380229 12.1138 0.374523 12.1076 0.372745C12.0983 0.370042 12.0891 0.365262 12.0823 0.361075C12.0884 0.364875 12.0922 0.364231 12.0872 0.363992C12.0831 0.363805 12.076 0.364436 12.0658 0.365937C12.0454 0.368966 12.017 0.37556 11.9821 0.38636C11.9123 0.407997 11.8206 0.443769 11.7186 0.488471C11.5143 0.577948 11.2733 0.701808 11.0913 0.818146C10.7471 1.03833 10.3632 1.39282 10.114 1.72062C9.83008 2.09413 9.57968 2.70421 9.51394 3.18519C9.43949 3.72992 9.49009 4.50788 9.63453 5.0514C9.69923 5.29479 9.70354 5.74473 9.66662 6.21645C9.62955 6.69002 9.54971 7.19511 9.44003 7.55168C9.24344 8.19074 8.98315 8.58472 8.52783 8.92387C8.47489 8.9633 8.45133 8.98532 8.43934 9.00653C8.4283 9.02616 8.42379 9.05075 8.42378 9.10378C8.42378 9.19108 8.43025 9.23739 8.44517 9.26813C8.45878 9.29587 8.48319 9.31782 8.53756 9.34593C8.57717 9.36639 8.59962 9.3741 8.62411 9.3751C8.65105 9.37615 8.68595 9.36958 8.74956 9.35176C8.85868 9.32105 9.01397 9.20761 9.17746 9.04057C9.33905 8.87541 9.50286 8.6643 9.6287 8.44637C9.8576 8.0499 10.0813 7.23886 10.1286 6.62587C10.1342 6.55277 10.1419 6.48555 10.15 6.43623C10.1539 6.41207 10.1581 6.39088 10.1626 6.37497C10.1647 6.36738 10.1675 6.35833 10.1713 6.35065C10.1732 6.347 10.1767 6.34092 10.182 6.33509C10.1868 6.32997 10.1999 6.31759 10.2209 6.31759L10.2521 6.32634C10.2578 6.32972 10.2632 6.3343 10.2676 6.33801C10.2767 6.34559 10.2869 6.35543 10.2968 6.36621C10.317 6.38819 10.3411 6.41792 10.3639 6.44985C10.4191 6.52718 10.5043 6.627 10.5876 6.71534C10.6719 6.80475 10.7496 6.8783 10.7918 6.90595C10.808 6.91654 10.8365 6.92804 10.8706 6.93707C10.9042 6.94597 10.9399 6.95068 10.9678 6.95068H11.1419L11.138 7.00417L11.1166 7.27647C11.0903 7.61803 10.9708 8.1011 10.8258 8.44929C10.6989 8.754 10.4889 9.07873 10.2569 9.35371C10.0256 9.62787 9.76798 9.85764 9.54312 9.96638C9.4175 10.027 9.32057 10.0631 9.22025 10.0724C9.12007 10.0815 9.02019 10.0635 8.88766 10.0267C8.22684 9.8429 7.68014 9.80199 7.2033 9.89733C7.07062 9.92387 6.85278 10.0072 6.66843 10.0928C6.57683 10.1353 6.49502 10.1771 6.43795 10.2124C6.40913 10.2302 6.3883 10.2459 6.37571 10.2572C6.37372 10.2589 6.36987 10.261 6.36987 10.261C6.37052 10.2742 6.37061 10.2885 6.36404 10.3019C6.35901 10.3121 6.35018 10.3228 6.33681 10.3301C6.3228 10.3375 6.30738 10.3387 6.29402 10.3359C6.29837 10.3368 6.29981 10.3365 6.29597 10.3369C6.29269 10.3373 6.28748 10.3383 6.28138 10.3398C6.2691 10.3428 6.25411 10.3475 6.24053 10.3534C6.22025 10.3623 6.19783 10.3688 6.17829 10.3709C6.16871 10.3719 6.15771 10.3716 6.14717 10.37C6.13768 10.3685 6.12145 10.3647 6.10827 10.3515C6.10053 10.3437 6.09563 10.333 6.09563 10.333L6.08202 10.2922C6.07549 10.2694 6.06777 10.2378 6.05868 10.2007C6.04038 10.1262 6.01727 10.0263 5.99449 9.91873C5.92315 9.58158 5.89581 9.23253 5.91086 8.91998C5.92589 8.6084 5.98387 8.32859 6.08396 8.13226C6.19476 7.91509 6.34517 7.80061 6.7754 7.58572C7.0091 7.46901 7.17196 7.37024 7.29374 7.26382C7.41451 7.15826 7.49652 7.04362 7.56896 6.89525C7.75992 6.50391 7.75971 6.038 7.54951 5.15643C7.50374 4.96447 7.47055 4.81098 7.45323 4.68477C7.43593 4.5586 7.43415 4.45569 7.45323 4.36677C7.49239 4.18474 7.61702 4.07362 7.82181 3.93012C8.118 3.72256 8.3062 3.54036 8.44906 3.27952C8.59309 3.01646 8.69277 2.66955 8.80402 2.12907C8.83956 1.95648 8.88824 1.82441 8.96546 1.71867C9.04318 1.61232 9.14755 1.53707 9.28735 1.47166C9.52757 1.35927 9.91933 1.25219 10.2141 1.21881C10.2974 1.20939 10.3446 1.20008 10.3785 1.18575C10.4098 1.17247 10.4329 1.15369 10.4641 1.1167C10.5606 1.00196 10.5561 0.865494 10.4631 0.772439C10.4233 0.732693 10.4079 0.721499 10.3814 0.716035C10.3477 0.709158 10.2956 0.711188 10.1811 0.720897C9.89219 0.745382 9.58064 0.82048 9.30777 0.923175C9.03385 1.02629 8.80382 1.15582 8.67371 1.28591C8.46923 1.49053 8.36992 1.71019 8.2779 2.18741C8.21215 2.52834 8.13927 2.77671 8.03381 2.97513C7.92763 3.1748 7.78965 3.32185 7.59716 3.46235C7.25318 3.71348 7.06797 3.90542 6.99032 4.14601C6.91217 4.3884 6.93931 4.68999 7.04867 5.16908C7.19731 5.82025 7.24326 6.17417 7.2033 6.4197C7.17359 6.60221 7.13735 6.72576 7.03214 6.83495C6.93029 6.94045 6.76679 7.02962 6.49922 7.15782C6.08624 7.35567 5.81667 7.57191 5.64926 7.8658C5.48126 8.16076 5.41178 8.54086 5.411 9.07266C5.41024 9.57867 5.46622 9.91822 5.63856 10.4517L5.75332 10.8076L5.7611 10.8309L5.74651 10.8513L5.63467 11.0069C5.2202 11.583 4.96613 12.3224 4.74581 13.6123L4.69622 13.904L4.6933 13.9196L4.6826 13.9303L4.40447 14.223C3.83897 14.8172 3.22336 15.7181 2.79305 16.5822C2.44789 17.2755 2.25634 17.7967 2.20372 18.2316C2.15154 18.6636 2.23582 19.0129 2.44879 19.3636C2.64866 19.6926 3.03967 20.1271 3.58563 20.6317C4.13067 21.1354 4.82779 21.7067 5.63856 22.3092C6.44215 22.9065 6.95218 23.2818 7.27138 23.5074C7.43097 23.6201 7.54256 23.6943 7.61855 23.7408C7.65658 23.764 7.6846 23.7798 7.70511 23.7894C7.72372 23.7981 7.73331 23.8001 7.73331 23.8001C7.78384 23.8001 7.82085 23.7919 7.84028 23.7826C7.8388 23.7782 7.83601 23.7731 7.83542 23.768C7.83353 23.7506 7.83898 23.7265 7.86168 23.7126C7.87772 23.7028 7.89454 23.7028 7.90349 23.7038C7.90297 23.6995 7.90328 23.6944 7.90252 23.6892C7.89818 23.6594 7.89706 23.6261 7.89863 23.5959C7.90016 23.5667 7.90438 23.5353 7.91322 23.5122C7.91797 23.4998 7.92365 23.4865 7.92975 23.4762C7.93265 23.4714 7.93986 23.462 7.95115 23.4539C7.9463 23.4473 7.94251 23.4388 7.93656 23.4315C7.89595 23.3819 7.83416 23.3236 7.75081 23.2574C7.71031 23.2253 7.67547 23.2 7.65065 23.1835L7.6487 23.1855C7.63597 23.1893 7.62526 23.1876 7.6205 23.1864C7.61092 23.184 7.60329 23.1788 7.60008 23.1767C7.58561 23.1672 7.56529 23.1486 7.54367 23.1261C7.53525 23.1174 7.51127 23.0971 7.47268 23.0658C7.43511 23.0354 7.38562 22.9967 7.32778 22.9521C7.21207 22.8628 7.06355 22.75 6.90961 22.637C5.14503 21.3419 4.21827 20.589 3.55257 19.9062C2.89367 19.2304 2.68469 18.9026 2.68413 18.4893C2.68382 18.2637 2.75264 17.9709 2.87085 17.6442C2.98941 17.3165 3.15888 16.9507 3.36196 16.5774C3.76799 15.831 4.31126 15.0507 4.8596 14.4807L5.1494 14.1782L5.2058 13.8632C5.48758 12.2609 5.7581 11.5454 6.31542 10.9661C6.55797 10.714 6.74787 10.5833 7.05256 10.4604C7.15311 10.4198 7.22857 10.3947 7.32292 10.3787C7.41615 10.3629 7.52679 10.3561 7.69635 10.3505C7.88277 10.3444 7.99241 10.3426 8.1155 10.3583C8.23783 10.3739 8.37254 10.4069 8.60952 10.4672C8.80631 10.5173 8.93769 10.5533 9.02478 10.5849C9.10935 10.6155 9.16333 10.6448 9.19302 10.687C9.22139 10.7275 9.25734 10.7997 9.2961 10.8854C9.33533 10.9721 9.37909 11.0768 9.42156 11.1869C9.50643 11.4069 9.58863 11.6509 9.6287 11.8151C9.83835 12.6744 9.73643 13.5547 9.33209 14.3708C9.23129 14.5742 9.12949 14.7164 8.9781 14.8658C8.89447 14.9483 8.84612 15.0007 8.81861 15.0418C8.79309 15.08 8.78655 15.1064 8.78652 15.1381C8.78652 15.2125 8.80491 15.2654 8.83611 15.3015C8.86732 15.3376 8.91689 15.3633 8.99074 15.3744C9.08708 15.3888 9.16192 15.3784 9.23678 15.3345C9.31448 15.289 9.3962 15.2055 9.5013 15.0671C9.80745 14.6638 10.0033 14.2018 10.1441 13.5432C10.2355 13.1155 10.2432 12.598 10.1801 12.101C10.1169 11.6036 9.98312 11.1304 9.79499 10.7901C9.76367 10.7334 9.73518 10.677 9.71427 10.6325C9.70391 10.6105 9.69524 10.5902 9.68899 10.5742C9.68594 10.5663 9.68322 10.5586 9.68121 10.5518C9.67959 10.5464 9.67635 10.5367 9.67635 10.5265C9.67635 10.5135 9.6781 10.4989 9.68218 10.4857C9.6858 10.4741 9.69705 10.4484 9.72789 10.4419C9.75471 10.4364 9.77549 10.4503 9.78332 10.4565C9.79352 10.4647 9.80303 10.4756 9.81152 10.4867C9.84523 10.5305 9.89213 10.6169 9.95254 10.7405C10.2636 11.3765 10.9384 12.2617 11.4249 12.6738C11.9687 13.1341 12.6314 13.4527 13.2687 13.5967C13.9072 13.7409 14.5145 13.7091 14.9511 13.4771C15.0572 13.4207 15.1632 13.3503 15.239 13.2904C15.277 13.2603 15.3062 13.2343 15.3236 13.2145C15.3305 13.2067 15.3333 13.2003 15.3353 13.197C15.3321 13.1774 15.3352 13.1591 15.344 13.1455C15.3563 13.1267 15.3757 13.1132 15.3956 13.1056C15.3933 13.1064 15.3965 13.1055 15.4053 13.0959C15.4134 13.087 15.4234 13.0732 15.4345 13.056C15.4565 13.0217 15.4811 12.975 15.5055 12.9208C15.5544 12.8119 15.6006 12.6784 15.6231 12.5668C15.6349 12.5081 15.6494 12.4534 15.664 12.4132C15.6712 12.3933 15.6791 12.3748 15.6873 12.3607C15.6913 12.3538 15.697 12.3462 15.7039 12.3393C15.7093 12.3338 15.7244 12.3193 15.7476 12.3198C15.7872 12.3209 15.8293 12.3523 15.8293 12.4005C15.8293 12.395 15.8283 12.3963 15.8351 12.4103C15.8407 12.4217 15.8492 12.4371 15.8614 12.456C15.8858 12.4938 15.9215 12.5428 15.9655 12.5989C16.0534 12.7113 16.1726 12.8502 16.2961 12.9801C16.7031 13.4082 16.974 13.7532 17.1422 14.0917C17.311 14.4316 17.3757 14.7624 17.3756 15.1585C17.3755 15.4576 17.3382 15.6927 17.2355 15.9209C17.1333 16.1482 16.9672 16.3656 16.7143 16.6318L16.475 16.8827L16.4614 16.8983H16.44L15.5658 16.9168C14.6221 16.9368 14.1661 16.987 13.2658 17.1687C12.4878 17.3256 11.6871 17.5481 11.0855 17.7716L10.6654 17.935C10.6423 17.943 10.6221 17.9494 10.607 17.9535C10.5999 17.9554 10.5924 17.9573 10.5856 17.9583C10.5825 17.9588 10.5769 17.9586 10.571 17.9583C10.5681 17.9582 10.5624 17.9583 10.5565 17.9564C10.5509 17.9545 10.5406 17.9497 10.5321 17.9389C10.5259 17.9307 10.3749 17.7078 10.1986 17.4468C9.81876 16.8845 9.54943 16.5244 9.08994 15.9647C8.6412 15.418 8.43826 15.1143 8.28082 14.7491C8.24637 14.6691 8.20656 14.5882 8.16996 14.5225C8.1643 14.5124 8.15787 14.5026 8.15245 14.4933L8.14954 14.4924C8.14472 14.4898 8.13963 14.4862 8.13592 14.4836C8.12797 14.478 8.11676 14.4694 8.10383 14.4593C8.08682 14.4459 8.07116 14.4315 8.05909 14.4194C8.0533 14.4136 8.04721 14.4079 8.04256 14.4019C8.0403 14.399 8.03725 14.3947 8.03478 14.3902L8.027 14.363L8.02797 14.3572C7.97696 14.3343 7.91806 14.3324 7.85973 14.3504C7.77757 14.3758 7.7002 14.4394 7.66134 14.5332C7.64734 14.567 7.62764 14.5978 7.60494 14.6207C7.5839 14.6419 7.55268 14.6635 7.51644 14.6635C7.51203 14.6636 7.50122 14.6655 7.48241 14.6713C7.46407 14.6769 7.44135 14.6856 7.4153 14.6966C7.36332 14.7186 7.30014 14.7495 7.23442 14.7851C7.10207 14.8568 6.96397 14.9442 6.88821 15.0097C6.85109 15.0418 6.7739 15.1294 6.67718 15.248C6.58139 15.3655 6.46877 15.5103 6.36404 15.6535C5.87756 16.3187 5.46666 16.7686 5.01908 17.1239C4.97377 17.1599 4.93049 17.1984 4.89752 17.2309C4.88099 17.2472 4.86733 17.2622 4.85765 17.2737C4.84852 17.2846 4.84501 17.2902 4.84501 17.2902C4.78069 17.4583 4.89968 17.6316 5.07452 17.6316C5.14142 17.6315 5.21736 17.6071 5.32445 17.5343C5.43213 17.461 5.5671 17.3418 5.75234 17.1609C6.11158 16.8101 6.49692 16.3516 6.78221 15.9365C7.12865 15.4324 7.41065 15.1898 7.74498 15.1381C7.792 15.1308 7.84243 15.1233 7.88502 15.1537C7.90502 15.1679 7.92002 15.1876 7.93267 15.2091C7.94539 15.2307 7.95821 15.2587 7.97351 15.2917C8.07269 15.5057 8.29084 15.8118 8.61925 16.1942C9.18201 16.8496 10.1059 18.1502 10.501 18.8443C10.5605 18.9488 10.6178 19.0792 10.6605 19.1982C10.7024 19.3151 10.7325 19.4295 10.7325 19.4987C10.7324 19.5661 10.705 19.6516 10.6605 19.7448C10.6152 19.8397 10.5492 19.9488 10.4689 20.0657C10.3083 20.2997 10.0848 20.5686 9.83292 20.8233C9.7468 20.9104 9.66596 20.9962 9.60536 21.0645C9.57503 21.0986 9.5504 21.1284 9.53242 21.151C9.52362 21.1621 9.5168 21.1713 9.512 21.1782C9.50879 21.1829 9.50616 21.187 9.50616 21.187C9.49249 21.2241 9.49227 21.2714 9.50616 21.3183C9.52019 21.3653 9.54723 21.4074 9.58104 21.434C9.60194 21.4504 9.6258 21.4694 9.63939 21.4875C9.64668 21.4973 9.65584 21.5138 9.65495 21.5351C9.65398 21.5585 9.64121 21.5747 9.62967 21.5847C9.61873 21.5942 9.60552 21.6014 9.59271 21.6071C9.5793 21.6131 9.56341 21.6196 9.54506 21.6256C9.50842 21.6376 9.45795 21.6513 9.39335 21.6693C9.24648 21.7105 9.12831 21.749 9.05006 21.7802C9.01251 21.7952 8.98608 21.8077 8.97032 21.8172L8.97129 21.8191C8.96989 21.8364 8.96106 21.8504 8.9499 21.86C8.93017 21.8767 8.9047 21.8779 8.88863 21.8765C8.88863 21.8765 8.88287 21.877 8.87404 21.8784C8.86357 21.8801 8.84991 21.8826 8.83417 21.8862C8.80262 21.8935 8.76385 21.9042 8.72622 21.9164C8.66467 21.9363 8.61848 21.9497 8.57354 21.9485C8.52706 21.9472 8.48669 21.9311 8.43739 21.9076C8.37146 21.8761 8.2607 21.8005 8.18844 21.7384C8.17162 21.7239 8.15689 21.7131 8.14565 21.7044C8.14126 21.7044 8.13592 21.7063 8.13592 21.7063C8.13081 21.7054 8.12716 21.7033 8.12522 21.7024C8.12126 21.7007 8.11647 21.6985 8.11647 21.6985C8.11381 21.6968 8.10966 21.6937 8.10966 21.6937C8.10358 21.6887 8.09462 21.6798 8.08341 21.6693C8.05977 21.6473 8.02198 21.6117 7.97449 21.5653C7.87936 21.4724 7.7421 21.3352 7.58452 21.1773C6.98313 20.5746 6.48803 20.0136 5.87779 19.243C5.18019 18.362 4.74845 17.9399 4.35682 17.7415C4.23628 17.6804 4.15391 17.6615 4.09424 17.6724C4.03892 17.6825 3.99193 17.7205 3.9474 17.8066C3.90968 17.8795 3.90775 17.935 3.9367 17.9904C3.96876 18.0515 4.04171 18.1198 4.17204 18.2034C4.45973 18.388 4.93771 18.8699 5.3614 19.3995C6.04123 20.2494 6.4949 20.7787 6.92517 21.222C7.18378 21.4884 7.46857 21.7578 7.71386 21.9728C7.83653 22.0803 7.94931 22.1743 8.04353 22.247C8.13853 22.3203 8.21247 22.3696 8.25845 22.3919C8.43075 22.4755 8.64422 22.4592 9.04423 22.3054C9.21604 22.2393 9.48188 22.1609 9.63745 22.1303C9.76599 22.1051 9.84495 22.0912 9.92531 22.0914C10.0056 22.0916 10.0862 22.1054 10.218 22.1313C10.5304 22.1927 10.7133 22.2712 10.9279 22.4376C10.9677 22.4684 10.9977 22.49 11.0252 22.5135C11.1074 22.5839 11.1758 22.6724 11.5192 23.0999C11.6245 23.2309 11.7261 23.3523 11.8051 23.4422C11.8446 23.4871 11.8781 23.5242 11.9034 23.5501C11.916 23.5632 11.926 23.5736 11.9335 23.5803C11.9373 23.5836 11.9423 23.5861 11.9423 23.5861L11.9374 23.5852C11.9839 23.603 12.0456 23.6082 12.1037 23.6007C12.1633 23.593 12.2093 23.5729 12.2311 23.5511C12.2563 23.5259 12.2769 23.475 12.2817 23.4111C12.2863 23.3483 12.2753 23.2832 12.2505 23.237C12.2347 23.2074 12.1864 23.139 12.1192 23.0493C12.053 22.9609 11.9707 22.8552 11.8897 22.7537C11.8087 22.6521 11.7285 22.5548 11.667 22.4833C11.6363 22.4475 11.611 22.4183 11.5922 22.3987C11.5826 22.3888 11.5753 22.3823 11.5708 22.3783L11.5698 22.3773C11.5593 22.3738 11.5479 22.3684 11.5396 22.3559C11.5303 22.3417 11.5296 22.3273 11.5319 22.3151L11.5309 22.3131C11.5234 22.302 11.5091 22.2855 11.4881 22.2645C11.4467 22.2232 11.3843 22.1703 11.3111 22.1138C11.1645 22.0004 10.9794 21.8763 10.8385 21.8055C10.7409 21.7565 10.585 21.7024 10.431 21.6606C10.276 21.6185 10.1293 21.5906 10.0498 21.5906C10.0136 21.5906 9.97934 21.5886 9.95351 21.5847C9.94108 21.5828 9.92822 21.5808 9.91753 21.577C9.91242 21.5751 9.90445 21.5717 9.8971 21.5663C9.89401 21.564 9.88842 21.559 9.88349 21.5517L9.87474 21.5225L9.88057 21.4992C9.88205 21.4962 9.8833 21.4932 9.88446 21.4914C9.8869 21.4877 9.89043 21.4832 9.89321 21.4797C9.89891 21.4726 9.90625 21.463 9.91558 21.4525C9.93471 21.4309 9.96297 21.4012 9.9963 21.3659C10.063 21.2954 10.1543 21.2007 10.255 21.0995C10.6955 20.6562 10.8972 20.396 11.0728 20.0453C11.1857 19.82 11.2357 19.6222 11.2246 19.418C11.2134 19.2131 11.1407 18.9963 10.9999 18.7334C10.9642 18.6668 10.9312 18.6045 10.9075 18.5574C10.8958 18.534 10.8862 18.5138 10.8793 18.499C10.8759 18.4917 10.8727 18.4849 10.8706 18.4796C10.8695 18.477 10.8686 18.4738 10.8677 18.4708C10.8677 18.4708 10.8638 18.4619 10.8638 18.4523C10.8638 18.4384 10.8702 18.4283 10.8735 18.4232C10.8771 18.4175 10.8812 18.4124 10.8842 18.4096C10.8901 18.404 10.8974 18.3991 10.9036 18.395C10.9168 18.3864 10.9346 18.377 10.9552 18.3668C10.9972 18.3458 11.0566 18.3192 11.1273 18.2899C11.269 18.2314 11.4596 18.1599 11.6563 18.0925C12.5045 17.8019 13.5827 17.5725 14.6691 17.4516C14.9072 17.4252 15.3507 17.408 15.7369 17.403C15.9301 17.4005 16.1099 17.4009 16.2436 17.405C16.3101 17.407 16.3663 17.4097 16.407 17.4137C16.4271 17.4157 16.4456 17.4185 16.4595 17.4215C16.4662 17.4229 16.474 17.4246 16.4809 17.4273C16.4844 17.4287 16.4889 17.4311 16.4935 17.4341L16.511 17.4516L16.5256 17.5032C16.5269 17.5199 16.5266 17.539 16.5246 17.5596C16.5207 17.6012 16.5111 17.6545 16.4964 17.7171C16.467 17.8427 16.4163 18.0125 16.3476 18.218C16.2102 18.6293 15.9983 19.1875 15.735 19.8284C15.4064 20.6281 15.1842 21.276 15.1077 21.6499C15.0359 22.0014 15.0008 22.3658 15.0027 22.6613C15.0037 22.8091 15.0141 22.9393 15.0328 23.0406C15.0521 23.1444 15.0787 23.2092 15.1058 23.238L15.167 23.2895C15.2295 23.3292 15.2965 23.3356 15.3615 23.3109C15.3943 23.2984 15.4152 23.2856 15.4306 23.2691C15.4458 23.2526 15.4596 23.2281 15.4705 23.1855C15.4818 23.1411 15.4889 23.0814 15.4938 22.9997L15.5025 22.6788C15.5059 22.2745 15.532 21.9782 15.6426 21.5721C15.7526 21.1681 15.9455 20.6551 16.2796 19.8167C16.927 18.1918 17.0322 17.8365 17.0323 17.3184V17.0315L17.0449 17.0169L17.2414 16.7972C17.349 16.676 17.4633 16.5431 17.4962 16.5015L17.5574 16.4237L17.5915 16.3809L17.6313 16.4189L17.8443 16.6231C17.9511 16.7254 18.1462 16.8761 18.3393 17.0121C18.5335 17.1488 18.7187 17.266 18.808 17.3029C18.8403 17.3161 18.8698 17.3298 18.8917 17.3456C18.9144 17.3621 18.9357 17.385 18.9403 17.4186C18.9446 17.4496 18.9325 17.479 18.9189 17.5042C18.9049 17.5301 18.8843 17.56 18.8586 17.5936C18.6534 17.8628 18.5276 18.1888 18.1215 19.5376C17.9868 19.9848 17.8427 20.4466 17.7286 20.7999C17.6716 20.9764 17.6218 21.1261 17.5847 21.2337C17.5662 21.2872 17.5509 21.3308 17.5389 21.362C17.533 21.3775 17.5278 21.391 17.5234 21.4009C17.5213 21.4057 17.5188 21.4104 17.5166 21.4146C17.5152 21.4172 17.5106 21.4254 17.5039 21.4321C17.492 21.4439 17.4757 21.4466 17.4757 21.4466C17.4709 21.4476 17.4662 21.4475 17.4631 21.4476C17.4567 21.4478 17.4496 21.4472 17.4427 21.4466C17.428 21.4454 17.4084 21.4432 17.3863 21.4398C17.3416 21.433 17.2816 21.4222 17.218 21.4087C17.0841 21.3804 16.9849 21.3655 16.9204 21.363C16.8909 21.3619 16.8724 21.3636 16.8621 21.3659C16.8575 21.378 16.8515 21.3888 16.8417 21.3961C16.8281 21.406 16.8127 21.41 16.8008 21.4116C16.7766 21.4149 16.7479 21.4111 16.7191 21.4039C16.7164 21.4032 16.7138 21.4025 16.7114 21.4019C16.7035 21.4205 16.6904 21.4327 16.6773 21.4369C16.6636 21.4412 16.6495 21.4408 16.6394 21.4398C16.6358 21.4395 16.6324 21.4375 16.6287 21.4369C16.6282 21.4446 16.6289 21.4553 16.6219 21.4651C16.6095 21.4822 16.5911 21.4861 16.5801 21.4865C16.5703 21.4868 16.5621 21.4851 16.5577 21.4836C16.5483 21.4804 16.539 21.4747 16.5314 21.47C16.5314 21.47 16.5258 21.4696 16.5169 21.4719C16.503 21.4755 16.4832 21.4843 16.4595 21.5001C16.4124 21.5316 16.356 21.5843 16.299 21.6499C16.1842 21.7821 16.0764 21.9565 16.0394 22.0934C16.0091 22.2053 16.0196 22.2947 16.054 22.354C16.0872 22.4111 16.1468 22.4482 16.2339 22.4483C16.2997 22.4483 16.3415 22.436 16.3768 22.4084C16.4147 22.3789 16.4514 22.3273 16.4974 22.2353C16.5652 22.0999 16.6183 22.0099 16.6841 21.9562C16.754 21.8993 16.8327 21.8872 16.935 21.8872C17.0357 21.8873 17.2059 21.9203 17.3172 21.9601C17.4223 21.9977 17.5681 22.0346 17.6391 22.0428C17.6909 22.0487 17.7253 22.0477 17.7529 22.0379C17.779 22.0286 17.8052 22.0088 17.8346 21.966C17.8646 21.9221 17.896 21.8568 17.9338 21.7598C17.9714 21.6629 18.0149 21.5372 18.068 21.3747C18.2325 20.8713 18.3474 20.5092 18.422 20.2631C18.4593 20.14 18.4868 20.0457 18.5046 19.9772C18.5228 19.9073 18.5303 19.8687 18.5309 19.8527C18.5318 19.8265 18.5346 19.8016 18.5396 19.7827C18.5419 19.7742 18.5457 19.7612 18.5533 19.7506C18.5553 19.7478 18.5594 19.7448 18.564 19.7409C18.5667 19.7346 18.5718 19.7253 18.5766 19.7127C18.5881 19.6825 18.6044 19.6379 18.6233 19.5814C18.6613 19.4681 18.7113 19.3096 18.7643 19.1341C18.9923 18.3792 19.1091 18.1219 19.3847 17.7872C19.4385 17.7219 19.4869 17.6554 19.5219 17.6014C19.5393 17.5745 19.5527 17.5513 19.5617 17.5333C19.5662 17.5243 19.5697 17.5169 19.5715 17.5119C19.5734 17.5064 19.5724 17.507 19.5724 17.511C19.5724 17.511 19.573 17.5095 19.5724 17.5071C19.5718 17.5044 19.5703 17.5008 19.5685 17.4964C19.5648 17.4871 19.559 17.475 19.551 17.4623C19.5352 17.4372 19.5129 17.41 19.4888 17.3875C19.4493 17.3505 19.4188 17.3167 19.4022 17.2805C19.3842 17.2409 19.3846 17.2032 19.3945 17.1638C19.4016 17.1353 19.4018 17.1134 19.3974 17.0947C19.3929 17.0762 19.3822 17.0555 19.3604 17.0325C19.3146 16.9843 19.2267 16.9302 19.0735 16.8545C18.705 16.6725 18.4511 16.5005 18.1613 16.238C18.0871 16.1707 18.0263 16.1226 17.9785 16.0911C17.9288 16.0585 17.9007 16.0494 17.8881 16.0493C17.8708 16.0493 17.8541 16.0482 17.8394 16.0454C17.8251 16.0427 17.8074 16.0375 17.7928 16.025C17.7575 15.9948 17.7655 15.9512 17.7723 15.9278C17.8145 15.7826 17.8387 15.6846 17.8521 15.5786C17.8655 15.4723 17.8685 15.3564 17.8676 15.175C17.864 14.3897 17.6608 13.831 17.1354 13.1688C17.0913 13.1132 17.0484 13.0658 17.0148 13.0346C16.9994 13.0203 16.9864 13.0112 16.9778 13.0054L16.9768 13.0064C16.9711 13.008 16.9469 13.0146 16.9253 12.9967C16.9013 12.9766 16.906 12.9489 16.9078 12.9412C16.909 12.9361 16.9106 12.931 16.9127 12.9266V12.9237C16.9081 12.9142 16.8983 12.902 16.8864 12.8897C16.8749 12.8777 16.8636 12.8688 16.8553 12.8644C16.8526 12.8658 16.8482 12.8689 16.8426 12.8702C16.8385 12.8713 16.8243 12.8744 16.8086 12.8673C16.7872 12.8575 16.7801 12.8374 16.7794 12.8236C16.7793 12.8207 16.7802 12.8182 16.7804 12.8158C16.7788 12.8131 16.777 12.8098 16.7746 12.8061C16.7627 12.7881 16.7436 12.762 16.7191 12.7302C16.6705 12.6669 16.601 12.5822 16.5227 12.491C16.3643 12.3064 16.1418 12.0339 16.0287 11.8851C15.8679 11.6738 15.6735 11.3895 15.523 11.1538C15.4477 11.036 15.3828 10.9295 15.3382 10.8494C15.316 10.8095 15.2982 10.7746 15.2867 10.7483C15.2811 10.7356 15.276 10.7233 15.273 10.7123C15.2716 10.7068 15.2705 10.6993 15.2701 10.6919C15.2698 10.6858 15.2695 10.6718 15.2779 10.6578L15.3012 10.6355C15.3077 10.6319 15.315 10.6304 15.3207 10.6286C15.3319 10.6252 15.3449 10.6218 15.3586 10.6199C15.3868 10.6159 15.4247 10.6137 15.4675 10.6121C15.5536 10.609 15.6673 10.6098 15.7875 10.6141C16.0268 10.6225 16.2991 10.6445 16.4332 10.6744C16.87 10.7717 17.1928 11.0023 17.4524 11.4008C17.5327 11.5242 17.6958 11.8546 17.8511 12.1914C18.0066 12.5288 18.1576 12.8801 18.2119 13.0482C18.2506 13.1682 18.3056 13.383 18.3344 13.5267L18.3831 13.7698L18.8421 14.2278C19.5444 14.9288 19.7845 15.2412 20.1092 15.8782C20.2783 16.2098 20.457 16.6514 20.5935 17.05C20.6618 17.2493 20.7198 17.4385 20.7608 17.5985C20.8014 17.7572 20.8269 17.8917 20.8269 17.9787C20.8269 18.0854 20.7967 18.2178 20.7355 18.3882C20.6741 18.559 20.5803 18.7716 20.4486 19.0397C20.1354 19.6775 19.7824 20.2694 19.1309 21.2502C18.8483 21.6757 18.7036 21.8997 18.6456 22.0389C18.6174 22.1069 18.613 22.1482 18.6184 22.1789C18.624 22.2101 18.6414 22.2386 18.6748 22.281C18.7443 22.3692 18.9061 22.3799 19.0064 22.2879C19.0307 22.2656 19.0784 22.2066 19.1387 22.1254C19.198 22.0457 19.2671 21.9481 19.3312 21.8531C19.3954 21.7582 19.4549 21.666 19.4966 21.5964C19.5175 21.5615 19.5335 21.5326 19.5433 21.5128C19.545 21.5093 19.545 21.5056 19.5462 21.503C19.5419 21.4883 19.5437 21.47 19.554 21.4544C19.5631 21.4406 19.5756 21.4334 19.5851 21.4301C19.5891 21.4287 19.5937 21.4279 19.5977 21.4272C19.5977 21.4272 19.6007 21.4252 19.6026 21.4233C19.6114 21.4146 19.6238 21.4004 19.6395 21.3805C19.671 21.3408 19.7134 21.2818 19.763 21.2084C19.8622 21.0618 19.9905 20.8583 20.1277 20.6327C20.4024 20.181 20.7106 19.6425 20.8833 19.2926C21.1529 18.7468 21.288 18.4085 21.3103 18.0702C21.3325 17.732 21.2416 17.3883 21.0448 16.8302C20.745 15.9805 20.5437 15.5553 20.1977 15.0379C20.0465 14.8118 19.8222 14.5295 19.6006 14.2784C19.3785 14.0268 19.1629 13.81 19.0288 13.7114C18.9768 13.6732 18.9316 13.6326 18.8975 13.5938C18.8646 13.5561 18.8371 13.5147 18.8285 13.4751C18.7016 12.8948 18.5745 12.5387 18.2411 11.8404C17.7589 10.8304 17.341 10.3934 16.7221 10.2173C16.6752 10.2041 16.568 10.1902 16.407 10.1774C16.2473 10.1648 16.0391 10.154 15.7943 10.1453C15.0921 10.1204 14.9741 10.1073 14.5962 10.014C14.4823 9.98592 14.3661 9.955 14.2714 9.92748C14.1784 9.90047 14.1017 9.87573 14.0681 9.86038C13.8897 9.77856 13.8004 9.60103 13.8007 9.36927C13.8008 9.27544 13.8288 9.05169 13.86 8.85093C13.8757 8.74974 13.8927 8.65268 13.9077 8.57863C13.9151 8.54172 13.9216 8.50938 13.9281 8.48527C13.9312 8.47365 13.9346 8.46301 13.9378 8.45415C13.9395 8.44966 13.9423 8.44414 13.9446 8.43957C13.9466 8.43574 13.95 8.42844 13.9563 8.42206C13.9674 8.41102 13.9811 8.40787 13.9884 8.4065C13.996 8.4051 14.0031 8.40419 14.0088 8.40456C14.0204 8.40532 14.0332 8.40807 14.0448 8.41136C14.0686 8.41814 14.0975 8.43003 14.1255 8.44443C14.271 8.51906 14.455 8.57732 14.6361 8.61072C14.8178 8.64423 14.9923 8.65246 15.1184 8.6292C15.231 8.60839 15.3134 8.57489 15.3878 8.51639C15.4634 8.45695 15.5344 8.36841 15.6192 8.23145C15.6961 8.10733 15.8101 7.93364 15.8731 7.8444C15.9066 7.79692 15.9329 7.74988 15.9509 7.70825C15.9691 7.66588 15.977 7.63171 15.9771 7.60906C15.9772 7.56465 15.9839 7.52432 16.0063 7.48847C16.0282 7.45359 16.0615 7.42824 16.1026 7.40483C16.1972 7.35099 16.2737 7.2028 16.2737 7.0421C16.2738 6.97675 16.2936 6.9103 16.3204 6.86413C16.3334 6.84184 16.3514 6.8182 16.3749 6.80481C16.3873 6.79772 16.404 6.79243 16.4225 6.79411C16.4337 6.79514 16.4438 6.7987 16.4527 6.80383C16.4571 6.80236 16.4639 6.80106 16.4721 6.79703C16.4969 6.7849 16.5298 6.76383 16.5645 6.73771C16.5991 6.71169 16.6346 6.68112 16.6637 6.65213C16.6933 6.62257 16.7138 6.59695 16.723 6.57919C16.7672 6.49373 16.7886 6.41823 16.7892 6.33218C16.7897 6.24458 16.769 6.14224 16.724 6.00347C16.6762 5.85615 16.6276 5.6436 16.6161 5.5289L16.5956 5.32856L16.5937 5.30717L16.6083 5.29064L16.7911 5.08544C16.9929 4.85926 17.1198 4.58863 17.2482 4.09447C17.2861 3.66878 17.2588 3.31573 17.2005 3.02862C17.1971 3.03809 17.1956 3.04834 17.1918 3.0578C17.1405 3.18269 17.0439 3.31647 16.9146 3.43707C16.8573 3.49056 16.8244 3.52178 16.8037 3.5489C16.7858 3.57252 16.7778 3.59275 16.7736 3.62573L16.7697 3.76577V3.76966C16.7692 3.91613 16.7403 4.0722 16.687 4.22576C16.5595 4.59373 16.5109 4.69335 16.3856 4.78591C16.3622 4.80318 16.3301 4.83846 16.2971 4.88414C16.2646 4.92898 16.2336 4.98074 16.2115 5.02904C16.1007 5.27093 16.099 5.64451 16.2134 5.99375C16.238 6.06874 16.256 6.13079 16.266 6.18144C16.2757 6.23093 16.2786 6.27598 16.2679 6.3137C16.2557 6.3561 16.2271 6.38494 16.1882 6.40025C16.1531 6.4139 16.1096 6.41678 16.0627 6.41678C15.9949 6.41678 15.9243 6.44093 15.8808 6.47513C15.8454 6.50303 15.833 6.51834 15.8254 6.54126C15.8162 6.56931 15.8128 6.6122 15.8128 6.69978C15.8128 6.747 15.8125 6.7846 15.8108 6.81356C15.8092 6.84123 15.8064 6.8686 15.7962 6.89039C15.7907 6.9023 15.7822 6.91342 15.771 6.92248C15.76 6.93124 15.7481 6.93604 15.7369 6.93901C15.7166 6.9443 15.692 6.94497 15.6718 6.94485C15.6154 6.94447 15.4812 6.92058 15.3722 6.89428C15.2358 6.86133 15.1555 6.84873 15.0999 6.85149C15.0506 6.85399 15.0206 6.86899 14.9832 6.904C14.953 6.93246 14.9298 6.9819 14.9229 7.04015C14.9161 7.09791 14.9257 7.15787 14.9502 7.20353C14.9651 7.23143 15.0016 7.26411 15.064 7.29592C15.1251 7.32703 15.2064 7.35466 15.3042 7.37566C15.3562 7.38684 15.4014 7.4009 15.4345 7.41748C15.4509 7.42572 15.4667 7.43614 15.4792 7.4486C15.4914 7.46081 15.5045 7.48043 15.5045 7.50597C15.5044 7.5245 15.5003 7.54884 15.4831 7.56724C15.4736 7.57736 15.4601 7.58597 15.4432 7.58766L15.4384 7.58572C15.4351 7.59235 15.4322 7.60028 15.4277 7.60809C15.417 7.62662 15.4019 7.65084 15.3839 7.6781C15.3475 7.73317 15.2967 7.80455 15.2419 7.87844C15.1853 7.95487 15.1401 8.01618 15.099 8.06029C15.0575 8.10471 15.0159 8.13664 14.9648 8.15171C14.9137 8.16667 14.8593 8.16267 14.7975 8.14879C14.7362 8.13498 14.6604 8.10965 14.5651 8.0778C13.9942 7.88685 13.3487 7.41491 12.978 6.91762C12.9466 6.87555 12.9166 6.83829 12.8943 6.81259C12.885 6.80186 12.8775 6.79379 12.872 6.78827C12.8651 6.78668 12.8577 6.78458 12.8506 6.77855C12.8408 6.77031 12.8362 6.76098 12.834 6.75229L12.8321 6.73187C12.8285 6.72206 12.8217 6.70731 12.8136 6.68908C12.7976 6.65295 12.7748 6.60423 12.7485 6.55196C12.7207 6.49697 12.6949 6.43709 12.6765 6.38469C12.659 6.33489 12.6454 6.28437 12.6454 6.25146C12.6454 6.20677 12.6281 6.14725 12.5997 6.09294C12.5707 6.0376 12.5354 5.99755 12.5082 5.98305C12.3435 5.8953 12.1511 6.01306 12.1513 6.21548C12.1518 6.45862 12.2569 6.73573 12.4985 7.10628C12.6776 7.38099 13.0289 7.75835 13.261 7.92609C13.2784 7.9387 13.2948 7.94992 13.3096 7.96013C13.3243 7.97024 13.3388 7.97999 13.3514 7.9893C13.3764 8.00776 13.3993 8.02854 13.4166 8.05543C13.4499 8.10747 13.4515 8.17149 13.4409 8.26549C13.4301 8.36125 13.4049 8.50396 13.3689 8.72256C13.2544 9.41827 13.3025 9.76646 13.5235 10.0345C13.5464 10.0621 13.5883 10.0981 13.6451 10.1385C13.7012 10.1784 13.7693 10.2206 13.8415 10.261C13.987 10.3424 14.1465 10.4137 14.2587 10.4429L14.4065 10.4818L14.4289 10.4876L14.4396 10.509L14.6779 11.0254C14.9967 11.7149 15.0854 11.9376 15.1213 12.1584C15.1775 12.5039 15.0622 12.7881 14.815 12.9704C14.5705 13.1507 14.2029 13.2267 13.7618 13.1775C12.7615 13.0659 11.8993 12.5752 11.2071 11.7266C11.0159 11.4922 10.7746 11.1423 10.5817 10.8338C10.4853 10.6795 10.4006 10.5341 10.3396 10.4186C10.3092 10.361 10.284 10.3096 10.2667 10.2679C10.2581 10.2473 10.2512 10.2282 10.2462 10.2114C10.2415 10.1953 10.2375 10.1778 10.2375 10.1618C10.2375 10.1418 10.2461 10.1228 10.253 10.1103C10.2608 10.0963 10.2715 10.0819 10.2832 10.0675C10.3069 10.0385 10.3389 10.0068 10.3736 9.97902C10.4357 9.92946 10.5469 9.8078 10.6663 9.66102C10.7848 9.51546 10.908 9.34898 10.995 9.21367C11.1963 8.90068 11.3994 8.42676 11.4988 8.03695C11.5822 7.70999 11.5982 7.57518 11.6252 6.92637C11.6529 6.26136 11.6651 6.15135 11.7458 5.90914C11.7835 5.7959 11.8019 5.73133 11.8081 5.6845C11.8136 5.64172 11.8092 5.61336 11.7944 5.57266C11.7821 5.53834 11.7736 5.49786 11.7701 5.45985C11.7667 5.42261 11.7672 5.38299 11.775 5.3519C11.7881 5.29955 11.7871 5.25363 11.7711 5.20506C11.7545 5.155 11.7209 5.09887 11.6631 5.02709C11.5841 4.9289 11.5172 4.81544 11.4696 4.7052C11.4223 4.59556 11.393 4.48479 11.3928 4.39303C11.3927 4.33144 11.3966 4.28241 11.4171 4.23548C11.4373 4.18922 11.471 4.14956 11.5182 4.10225C11.5631 4.05739 11.6032 4.02483 11.6466 4.00403C11.6912 3.98268 11.7364 3.97583 11.7886 3.97583C11.8406 3.97587 11.8852 3.98275 11.9296 4.00403C11.973 4.02483 12.0131 4.05737 12.058 4.10225C12.0912 4.13554 12.1213 4.17391 12.1436 4.20923C12.1547 4.22695 12.1647 4.24498 12.1718 4.26174C12.1783 4.2774 12.1844 4.29641 12.1844 4.31523C12.1844 4.31523 12.1847 4.31713 12.1854 4.32009Z" fill="#6281AA"/>
</svg>
