<svg width="36" height="36" viewBox="0 0 36 36" fill="none" xmlns="http://www.w3.org/2000/svg">
<path fill-rule="evenodd" clip-rule="evenodd" d="M19.5738 0.112207C19.5001 0.14943 19.2412 0.470167 18.9983 0.824983C18.166 2.04112 17.4211 2.9851 16.8919 3.4944C15.8325 4.51399 14.6288 5.14073 12.8423 5.60302C12.1759 5.77551 11.0155 5.98475 10.7254 5.98475H10.5253L9.94729 4.80135C9.62935 4.1505 9.30447 3.55714 9.22525 3.48275C9.00377 3.27467 8.65181 3.29523 8.41706 3.52999C8.10593 3.84118 8.13663 3.95669 9.00121 5.72628C9.42284 6.58929 9.93803 7.68863 10.1461 8.16922C10.5088 9.007 11.0266 10.1282 11.2806 10.6261L11.4007 10.8616L10.661 10.9551C10.2542 11.0065 9.71212 11.0662 9.45645 11.0878C9.04694 11.1225 8.97337 11.1468 8.83735 11.2924C8.57574 11.5724 8.58226 11.9092 8.85476 12.2002C9.02626 12.3833 9.20195 12.4048 9.95364 12.3346C14.3908 11.9206 19.4502 10.2389 23.8145 7.72743C24.764 7.18102 26.0072 6.37096 26.2459 6.1432C26.4455 5.95271 26.5318 5.677 26.4695 5.42897C26.4326 5.28188 25.3283 4.02089 24.3104 2.96355C23.3409 1.95642 21.7766 0.732653 20.8768 0.27741C20.5602 0.117275 20.3963 0.071779 20.0921 0.059779C19.8807 0.0514489 19.6474 0.0750416 19.5738 0.112207ZM19.7184 2.01176C18.7967 3.34487 18.1825 4.06964 17.4441 4.69551C15.9419 5.96879 14.2831 6.68349 11.6688 7.18364C11.3805 7.23881 11.1366 7.29007 11.1269 7.29764C11.1172 7.30516 11.457 8.04828 11.882 8.94904C12.4529 10.1589 12.6809 10.5867 12.7549 10.5867C13.0115 10.5867 15.3547 9.94935 16.5176 9.56326C18.2734 8.98021 19.6259 8.4285 21.2222 7.64401C23.0587 6.74157 24.9556 5.64601 24.9092 5.51465C24.8727 5.4112 23.4644 3.90362 22.9193 3.38448C22.2537 2.75052 21.4531 2.13467 20.7207 1.69312C20.4376 1.52244 20.1941 1.38281 20.1796 1.38281C20.1652 1.38281 19.9576 1.66586 19.7184 2.01176ZM26.2401 2.19898C25.9683 2.23364 25.8617 2.2796 25.7171 2.42413C25.3969 2.74434 25.5117 3.27525 25.9399 3.45421C26.0974 3.51997 26.2307 3.52324 26.6489 3.47157C26.9322 3.4365 27.4392 3.42077 27.7756 3.43656C28.9427 3.49131 29.2133 3.77914 28.6824 4.4011C28.5403 4.56753 28.4068 4.7583 28.3856 4.825C28.3179 5.03803 28.4114 5.32941 28.5976 5.48611C28.9193 5.75687 29.2792 5.66028 29.6907 5.19281C30.3744 4.41607 30.4468 3.53436 29.88 2.89032C29.3974 2.34217 28.7021 2.1352 27.3849 2.14772C26.943 2.15192 26.4278 2.17498 26.2401 2.19898ZM26.8566 7.61821C26.7836 7.64751 26.4166 7.85221 26.041 8.07316C23.0939 9.80658 19.177 11.3693 15.2805 12.3662C12.1941 13.1557 9.86177 13.5576 8.3648 13.5576C7.45321 13.5576 6.95597 13.4812 6.48313 13.2686C5.79261 12.9582 5.64249 12.5276 5.99451 11.8671C6.32702 11.2433 7.50214 10.195 8.45067 9.67609C9.03814 9.35465 9.20148 9.03939 8.97721 8.6597C8.84719 8.43968 8.53781 8.29364 8.29711 8.33885C8.19505 8.35795 7.91579 8.4952 7.67661 8.6438C6.17952 9.57362 4.8774 10.904 4.62173 11.765C4.57286 11.9295 4.5329 12.2626 4.53296 12.5051C4.53308 13.5484 5.2649 14.294 6.65911 14.6713C7.30671 14.8465 8.97768 14.8896 9.98941 14.7572C10.3793 14.7061 10.7282 14.6644 10.7647 14.6644C10.8012 14.6644 10.712 14.8282 10.5666 15.0284C10.0456 15.7459 9.08568 17.2099 8.72422 17.8384C7.98651 19.121 7.23436 20.8858 6.37758 23.344C6.13746 24.0328 5.83397 24.8868 5.70313 25.2419C5.34022 26.2264 5.22453 26.7331 5.21871 27.3634C5.21043 28.2573 5.43931 28.9227 6.16047 30.1013C6.84599 31.2217 7.01142 31.6728 7.18554 32.8974C7.30222 33.7177 7.35744 33.8712 7.58649 34.0109C7.82457 34.156 8.02682 34.1492 8.26624 33.9878C8.57451 33.7801 8.59152 33.6539 8.44216 32.6832C8.23117 31.3125 8.02228 30.7626 7.18478 29.3731C6.6008 28.4042 6.49746 28.1109 6.49688 27.4216C6.49641 26.779 6.50137 26.7614 7.38645 24.2469C8.97797 19.7256 9.87156 17.9967 11.9928 15.3343C12.3502 14.8857 12.67 14.4602 12.7034 14.3887C12.7435 14.303 12.8359 14.2463 12.9739 14.2229C13.9682 14.0537 16.6281 13.3617 18.0862 12.893C20.9501 11.9723 23.7806 10.7753 26.0487 9.52574C26.3964 9.33415 26.7032 9.1997 26.7304 9.22691C26.7576 9.25411 26.8447 9.51875 26.924 9.81497C27.3183 11.2885 27.2688 12.8234 26.7867 14.0669C26.4623 14.9035 26.17 15.2612 24.2707 17.1463C20.9265 20.4657 19.7951 21.4403 17.1012 23.322C14.6802 25.0131 13.7195 25.7737 13.1337 26.463C12.4724 27.2414 12.1706 27.8856 12.1196 28.6281C12.0833 29.1562 12.1512 29.4263 12.5425 30.3117C12.9026 31.1264 13.1091 31.7706 13.2818 32.6176C13.3837 33.1175 13.4033 33.4162 13.3997 34.4059L13.3954 35.5941L13.5616 35.7603C13.7963 35.9949 14.1815 35.9959 14.4426 35.7626C14.6157 35.608 14.629 35.5661 14.6787 35.0199C14.7747 33.9653 14.6409 32.6644 14.3231 31.5608C14.2267 31.2261 14.1556 30.9446 14.165 30.9352C14.1744 30.9258 14.2719 31.0382 14.3818 31.1851C14.4916 31.332 14.772 31.6228 15.0049 31.8315C15.268 32.0672 15.5146 32.3573 15.6564 32.5978C15.9412 33.0812 16.2507 33.9802 16.471 34.9645C16.6118 35.5933 16.6662 35.7431 16.7938 35.8528C17.0902 36.1078 17.6693 35.9855 17.8135 35.6375C17.8767 35.485 17.8654 35.3438 17.7347 34.653C17.5593 33.7255 17.3752 33.1254 17.0589 32.4504C16.7346 31.758 16.5321 31.4893 15.7718 30.742C15.1926 30.1729 15.0584 30.0054 14.8792 29.6287C14.6287 29.1019 14.4949 28.3407 14.4944 27.4399L14.4941 26.8464L14.8827 26.5168C15.0964 26.3354 15.9024 25.7393 16.6739 25.1919C18.8505 23.6477 19.2736 23.3444 19.6494 23.0591C20.3017 22.564 21.511 21.5575 22.1251 20.9987C22.4615 20.6926 22.7455 20.4505 22.756 20.4608C22.8398 20.5424 22.0448 22.8318 21.255 24.7829C20.7409 26.0529 20.6036 26.624 20.5672 27.6435C20.5093 29.2632 20.7507 30.015 21.8891 31.7614C22.7656 33.1059 23.2895 34.2333 23.4691 35.1606C23.5125 35.3849 23.5959 35.5963 23.6811 35.6974C24.0429 36.1273 24.8047 35.8605 24.8047 35.3038C24.8047 35.0764 24.5792 34.2398 24.363 33.6651C24.1429 33.0803 23.5722 32.0249 23.0343 31.2081C22.0386 29.6961 21.8932 29.3158 21.8485 28.1056C21.8042 26.9054 21.9186 26.425 22.6757 24.634C23.5703 22.5175 23.9919 21.1433 24.3136 19.2954L24.3947 18.8294L25.6954 17.5479C27.0847 16.1789 27.4524 15.715 27.8645 14.8107C28.513 13.3878 28.6533 11.4911 28.2352 9.80028C28.1008 9.25667 27.7357 8.12075 27.6246 7.90038C27.5496 7.75172 27.2248 7.5539 27.0678 7.56124C27.0246 7.56327 26.9295 7.5889 26.8566 7.61821Z" fill="#C483AD"/>
</svg>
