<svg width="36" height="36" viewBox="0 0 36 36" fill="none" xmlns="http://www.w3.org/2000/svg">
<path fill-rule="evenodd" clip-rule="evenodd" d="M18.3037 0.926814C17.2695 1.23302 16.2481 1.74858 14.8908 2.64973C12.815 4.02779 9.93681 6.24404 9.57621 6.74177C9.14884 7.33162 8.9388 8.29527 9.03427 9.2272C9.09086 9.77933 9.94873 14.2384 10.4401 16.535C10.5064 16.8447 10.4237 17.0678 9.91795 17.9442C8.97942 19.5705 8.83603 20.1471 8.92132 21.9534C8.96044 22.7808 9.04133 23.6922 9.10128 23.9786C9.33423 25.0925 9.23864 26.4546 8.76174 28.8209C8.30428 31.0902 7.94727 33.5596 7.94727 34.454C7.94727 34.9622 8.10315 35.2039 8.43065 35.2039C8.77505 35.2039 8.95894 34.7335 9.04122 33.6416C9.1353 32.3954 9.45829 30.4291 9.86807 28.6076C10.2782 26.7849 10.343 25.3024 10.0899 23.5283C9.71462 20.8963 9.87988 19.9601 11.0646 18.0075C11.4507 17.3711 11.5393 17.1263 11.5 16.8036C11.4729 16.5808 11.1312 14.8252 10.7405 12.9021C10.35 10.9791 10.0303 9.10766 10.0303 8.74358C10.0303 7.66179 10.2954 7.27272 11.7951 6.15389C15.6981 3.24236 17.5354 2.15119 19.001 1.87472C20.4368 1.60381 22.7419 1.94901 22.5657 2.40856C22.5304 2.50044 22.2817 2.70435 22.0131 2.86186C21.5798 3.11564 21.3912 3.14804 20.344 3.14804C18.8722 3.14804 18.753 3.20486 16.9084 4.78625C16.1405 5.44461 14.8532 6.54944 14.0476 7.24147C13.242 7.93339 12.5551 8.58747 12.521 8.69475C12.4869 8.80214 12.6626 9.56882 12.9114 10.3985C13.3484 11.8557 13.6405 13.135 13.8002 14.2908C13.9036 15.0394 14.1137 15.2549 15.0644 15.5886C17.1309 16.314 18.0894 15.7652 17.9368 13.9443C17.8314 12.6869 17.9795 11.6564 18.3245 11.2465C18.5865 10.9351 18.6812 10.9016 19.3022 10.9016C20.5455 10.9016 22.4182 10.0461 22.8095 9.29941L22.9631 9.0064L23.1529 9.37336C23.4569 9.96148 23.4963 10.6551 23.2847 11.6933C22.8853 13.6509 22.3218 14.8881 21.5673 15.4635C21.0967 15.8226 21.016 15.8264 20.1563 15.5306C19.4208 15.2777 18.993 15.2374 18.8855 15.4113C18.8474 15.473 18.7943 15.6943 18.7676 15.9032C18.7408 16.1119 18.6856 16.5432 18.645 16.8615C18.5403 17.6824 18.7634 17.9101 20.5034 18.7573C22.5333 19.7458 22.8675 20.0837 25.3956 23.7025C27.3863 26.5518 27.7613 27.5304 27.1764 28.3504C26.786 28.8976 25.6282 29.8 23.2935 31.3764C23.1034 31.5048 22.9304 31.6224 22.7734 31.7292C21.7871 32.4 21.4177 32.6512 21.2256 32.5536C21.1106 32.4951 21.0593 32.3115 20.9771 32.0178C20.9553 31.9397 20.9312 31.8538 20.9033 31.7604L20.7598 31.2814L22.4102 29.5684C23.3181 28.6262 24.188 27.6899 24.3436 27.4877C24.6199 27.1284 24.6219 27.1112 24.4287 26.7355C24.1503 26.1938 23.4564 25.1741 22.3362 23.6603C21.5933 22.6565 21.3117 22.3584 21.1059 22.3584C20.768 22.3584 20.5613 22.5626 20.5613 22.8965C20.5613 23.0397 20.1128 24.0315 19.5645 25.1004L18.5675 27.044L18.6208 27.9125C18.6653 28.636 18.803 29.1099 19.4447 30.7485C19.8683 31.8305 20.3459 33.2366 20.5059 33.8731C20.8131 35.095 20.9972 35.3666 21.4117 35.2092C21.6313 35.1258 21.6585 35.0334 21.6419 34.4258L21.6232 33.737L23.4357 32.5408C26.9469 30.2237 28.0925 29.2269 28.434 28.1924C28.7395 27.2667 28.2959 26.1937 26.5246 23.5735C23.7989 19.5417 23.3332 19.0495 21.3143 18.0679C19.6796 17.2731 19.5727 17.1839 19.7606 16.7714L19.8925 16.4819L20.8344 16.8373C21.6342 17.1389 21.9425 17.1937 22.8758 17.2005C23.8437 17.2077 24.0373 17.1739 24.4947 16.9178C24.7804 16.7578 25.0308 16.5401 25.0513 16.434C25.0717 16.3279 24.9591 16.0421 24.8009 15.799C24.3256 15.0688 24.2245 14.4702 24.3352 13.0425C24.3895 12.3424 24.4349 11.3009 24.436 10.728C24.4379 9.81451 24.3975 9.60389 24.1078 9.01403C23.666 8.11404 22.7101 7.15364 21.87 6.76561C20.538 6.1503 18.8126 6.31822 17.4558 7.19507C16.1782 8.02088 15.5541 9.09655 15.0701 11.3067C14.6674 13.1454 14.6577 13.1615 14.4737 12.2903C14.3863 11.8766 14.149 10.9705 13.9462 10.2767L13.5776 9.01519L13.9281 8.71442C14.1207 8.54894 15.1583 7.64848 16.2336 6.71342C17.3091 5.77824 18.4441 4.81483 18.7559 4.5725L19.3229 4.13171L20.5161 4.16816C21.9288 4.21121 22.4197 4.04619 23.1941 3.26794C23.5972 2.86278 23.6859 2.69544 23.6859 2.33993C23.6859 1.31218 22.6735 0.818381 20.4456 0.759361C19.3115 0.729388 18.8488 0.765494 18.3037 0.926814ZM20.0879 26.2931C20.3499 25.8157 20.7326 25.0965 20.9383 24.6947L21.3124 23.9643L21.577 24.2896C21.7227 24.4687 22.2082 25.1503 22.656 25.8044L23.4704 26.9938L20.3877 30.2114L20.0529 29.4962C19.8185 28.9956 19.702 28.5383 19.6648 27.9711C19.6136 27.1948 19.6313 27.1248 20.0879 26.2931ZM18.9759 7.64535C17.7106 8.08256 16.8263 8.98325 16.4035 10.2651C16.2776 10.647 16.0452 11.5434 15.8872 12.2571C15.7291 12.9708 15.4968 13.7875 15.3709 14.0719L15.1421 14.5891L15.4966 14.7127C16.0278 14.8979 16.8203 14.8704 16.8994 14.6642C16.9356 14.5695 16.9359 14.166 16.8998 13.7673C16.8166 12.8496 17.0059 11.4828 17.2933 10.9257C17.585 10.3604 18.163 9.97583 18.7212 9.97583C19.3442 9.97583 20.3118 9.75433 20.8269 9.4936C21.3475 9.23021 22.1815 8.50114 22.1815 8.30927C22.1815 8.16102 21.6301 7.79649 21.0833 7.58332C20.5685 7.38266 19.6588 7.40939 18.9759 7.64535ZM22.6414 15.8057C22.8439 15.5751 23.0661 15.2623 23.1351 15.1107C23.2554 14.8468 23.2715 14.8613 23.5054 15.4431L23.7498 16.0514L23.5153 16.1266C23.3864 16.168 23.0541 16.207 22.777 16.2134L22.2732 16.225L22.6414 15.8057Z" fill="#C483AD"/>
<path d="M9.95557 8.74342C9.95558 8.1957 10.0225 7.8106 10.2881 7.42066C10.5499 7.03648 11.0013 6.65211 11.75 6.09352C13.7017 4.63756 15.1395 3.63508 16.2734 2.96168C17.4074 2.28826 18.2428 1.94206 18.9878 1.80152C19.716 1.66424 20.6595 1.68347 21.3989 1.7942C21.7682 1.8495 22.092 1.92771 22.3145 2.02418C22.4246 2.07198 22.5172 2.12716 22.5767 2.19117C22.6386 2.25809 22.6705 2.34387 22.6353 2.4358C22.6208 2.47314 22.5895 2.5117 22.5562 2.54713C22.5208 2.58465 22.4759 2.62642 22.4243 2.66871C22.3209 2.75349 22.1882 2.84597 22.0508 2.92652C21.83 3.05582 21.6653 3.13217 21.4209 3.17408C21.1814 3.2151 20.866 3.22242 20.3442 3.22242C19.607 3.22242 19.2257 3.23869 18.7988 3.44215C18.3657 3.64868 17.8828 4.04928 16.9575 4.84254C16.1896 5.50088 14.9022 6.60706 14.0967 7.29908C13.6948 7.64425 13.3219 7.97869 13.0464 8.24098C12.9086 8.37212 12.7957 8.48486 12.7153 8.57057C12.6752 8.61336 12.6435 8.64875 12.6216 8.67604C12.6106 8.68971 12.6035 8.70159 12.5981 8.70973C12.5921 8.71898 12.5913 8.72024 12.5923 8.71705C12.5925 8.7169 12.5904 8.72838 12.5923 8.75953C12.5941 8.78914 12.5993 8.82934 12.6069 8.87818C12.6221 8.97564 12.6479 9.10555 12.6831 9.25904C12.7534 9.56589 12.8594 9.96321 12.9834 10.3767C13.4212 11.8366 13.7137 13.12 13.874 14.2805C13.9251 14.6502 14.0015 14.8707 14.1685 15.0422C14.3391 15.2174 14.614 15.3513 15.0898 15.5183C16.1202 15.8799 16.8479 15.9125 17.2959 15.656C17.7351 15.4043 17.9368 14.8525 17.8613 13.9509C17.8083 13.3181 17.8197 12.7393 17.8877 12.2664C17.9552 11.7969 18.0809 11.4199 18.2671 11.1985C18.3991 11.0416 18.4993 10.941 18.6538 10.8865C18.8022 10.8342 18.9953 10.8264 19.3027 10.8264C19.91 10.8263 20.6784 10.6167 21.3447 10.3123C21.6772 10.1604 21.9817 9.98532 22.2266 9.80397C22.4727 9.62162 22.6535 9.43695 22.7437 9.2649L22.896 8.97193L22.9634 8.84449L23.2197 9.33961C23.5348 9.94952 23.5719 10.6632 23.3589 11.7083C22.9842 13.5448 22.4614 14.7692 21.7563 15.4041L21.6128 15.5227C21.3794 15.7008 21.2236 15.807 21.0107 15.8172C20.9067 15.822 20.7934 15.8037 20.6548 15.7673C20.5159 15.7309 20.3465 15.6757 20.1318 15.6018C19.766 15.476 19.4813 15.4041 19.2778 15.385C19.1767 15.3756 19.1 15.3801 19.0449 15.3938C18.9904 15.4075 18.9632 15.4292 18.9497 15.4509C18.9451 15.4584 18.9366 15.4766 18.9263 15.5081C18.9164 15.5382 18.9059 15.5762 18.8955 15.6194C18.8748 15.7058 18.8543 15.8106 18.8413 15.9124C18.8146 16.121 18.7603 16.5522 18.7197 16.8704C18.6939 17.073 18.6892 17.2313 18.7197 17.3684C18.7497 17.5031 18.815 17.6224 18.9365 17.7463C19.0596 17.8719 19.2402 18.0015 19.502 18.1536C19.7634 18.3054 20.1014 18.478 20.5361 18.6897C21.5529 19.1849 22.153 19.5215 22.8154 20.1912C23.4742 20.8571 24.1937 21.8523 25.4565 23.6599C26.4514 25.0839 27.0481 26.0479 27.3213 26.761C27.4583 27.1186 27.5169 27.4179 27.5 27.6838C27.483 27.9513 27.3909 28.1796 27.2378 28.3943C27.0357 28.6775 26.6406 29.0456 26.0103 29.5369C25.3782 30.0295 24.5031 30.6498 23.3354 31.4382C23.1455 31.5665 22.9725 31.6845 22.8154 31.7913C22.3242 32.1254 21.9819 32.3579 21.7388 32.4944C21.6173 32.5626 21.5146 32.6093 21.4282 32.6321C21.3412 32.6549 21.2611 32.6561 21.1909 32.6204C21.109 32.5785 21.0586 32.4959 21.0195 32.4021C20.98 32.3071 20.9458 32.1821 20.9053 32.0374C20.8835 31.9595 20.8596 31.8747 20.832 31.7825L20.6885 31.3035L20.6753 31.261L20.7061 31.2288L22.3569 29.5164C23.2662 28.5727 24.1324 27.6401 24.2847 27.4422C24.3543 27.3516 24.4034 27.2854 24.437 27.2312C24.47 27.1781 24.4846 27.1419 24.4883 27.1096C24.4919 27.0779 24.4865 27.0417 24.4663 26.988C24.4455 26.9328 24.4111 26.8647 24.3623 26.7698C24.0872 26.2345 23.3971 25.2198 22.2764 23.7053C21.9048 23.2032 21.6503 22.8806 21.4648 22.6843C21.3722 22.5863 21.299 22.5226 21.2393 22.4837C21.18 22.4451 21.1382 22.4339 21.106 22.4338C20.9524 22.4338 20.8372 22.4797 20.7603 22.5554C20.6834 22.6313 20.6357 22.7454 20.6357 22.8967C20.6357 22.9275 20.6254 22.969 20.6123 23.011C20.5982 23.0562 20.5778 23.1125 20.5522 23.178C20.501 23.3095 20.4274 23.4817 20.3369 23.6819C20.1556 24.0827 19.9055 24.5997 19.6309 25.135L18.6421 27.0613L18.6963 27.908C18.7399 28.6184 18.8735 29.0821 19.5151 30.7205C19.9392 31.8036 20.4175 33.2142 20.5786 33.8552L20.6885 34.2683C20.7934 34.6374 20.8843 34.8757 20.98 35.0169C21.042 35.1084 21.1012 35.1502 21.1587 35.1663C21.2173 35.1826 21.2895 35.175 21.3857 35.1384C21.4374 35.1188 21.47 35.1017 21.4927 35.0813C21.5136 35.0624 21.5311 35.037 21.5439 34.9934C21.5721 34.8978 21.5758 34.7357 21.5674 34.428L21.5483 33.7395L21.5469 33.697L21.582 33.6751L23.394 32.4783C25.1496 31.3197 26.3099 30.4929 27.0737 29.8284C27.8373 29.1641 28.1981 28.6675 28.3628 28.1687C28.508 27.7285 28.4783 27.2483 28.1885 26.5471C27.8976 25.8434 27.3483 24.9257 26.4629 23.616C25.0992 21.5988 24.305 20.4726 23.6006 19.7283C22.9001 18.9881 22.2873 18.6249 21.2817 18.136C20.8735 17.9375 20.5592 17.7814 20.3208 17.6541C20.0834 17.5273 19.9168 17.4251 19.8066 17.3333C19.6959 17.2409 19.6314 17.1507 19.6191 17.0447C19.6075 16.9433 19.6455 16.843 19.6924 16.74L19.8242 16.4514L19.8535 16.387L20.8613 16.7678C21.2594 16.9179 21.5314 17.0039 21.8179 17.0549C22.105 17.106 22.4111 17.1218 22.877 17.1253C23.3616 17.1288 23.6456 17.1224 23.8643 17.0842C24.0786 17.0468 24.2328 16.9786 24.4575 16.8528C24.5963 16.775 24.7271 16.6834 24.8237 16.5994C24.872 16.5575 24.9108 16.5185 24.938 16.4851C24.9671 16.4494 24.9761 16.4267 24.9775 16.4192C24.9795 16.4078 24.9796 16.382 24.9702 16.3401C24.9611 16.2995 24.945 16.2501 24.9233 16.1951C24.8799 16.085 24.8137 15.958 24.7373 15.8406C24.4955 15.4689 24.3472 15.1259 24.2744 14.6951C24.202 14.2664 24.2043 13.7521 24.2598 13.0369C24.3139 12.3384 24.3597 11.299 24.3608 10.7283C24.3618 10.2716 24.3525 9.99688 24.3081 9.76441C24.2639 9.53382 24.184 9.3398 24.04 9.04664C23.605 8.16087 22.6613 7.21338 21.8384 6.83326C20.5325 6.23016 18.8342 6.39358 17.4966 7.25807C16.8666 7.66526 16.3999 8.13269 16.0303 8.76979C15.6597 9.40849 15.3853 10.2214 15.144 11.323C15.0435 11.7822 14.966 12.1287 14.9053 12.3762C14.8749 12.5 14.8489 12.6004 14.8247 12.678C14.8011 12.7539 14.7785 12.8141 14.7544 12.8538C14.7428 12.8729 14.7261 12.8962 14.7017 12.9109C14.6884 12.9189 14.6712 12.925 14.6519 12.9255C14.6324 12.9261 14.6149 12.9203 14.6006 12.9124C14.5747 12.898 14.5582 12.8745 14.5479 12.8567C14.5365 12.8371 14.5261 12.813 14.5171 12.7879C14.4819 12.6895 14.4453 12.521 14.3999 12.3059C14.3131 11.8949 14.0766 10.9906 13.874 10.2976L13.5063 9.03639L13.4917 8.98951L13.5283 8.95875L13.8799 8.65699C14.074 8.49024 15.1101 7.59139 16.1841 6.65748C17.259 5.72279 18.3956 4.7569 18.7095 4.51295L19.2764 4.07203L19.2983 4.05592L19.3247 4.05738L20.5186 4.09254C21.2235 4.11401 21.6886 4.08347 22.0713 3.95484C22.4512 3.82699 22.7574 3.6002 23.1406 3.2151C23.3416 3.01311 23.4575 2.87676 23.5244 2.75074C23.5892 2.62841 23.6108 2.51062 23.6108 2.34059C23.6108 2.09661 23.5509 1.887 23.4307 1.70924C23.31 1.53109 23.1251 1.379 22.8682 1.25367C22.3516 1.00175 21.555 0.864181 20.4438 0.834728C19.3118 0.804809 18.8587 0.841111 18.3257 0.99879C17.3013 1.30209 16.2856 1.81376 14.9316 2.71266C13.8957 3.40046 12.6586 4.29815 11.6357 5.0857C11.1246 5.47929 10.6675 5.84518 10.3159 6.14332C10.14 6.29246 9.99091 6.4248 9.875 6.53443C9.758 6.64511 9.67687 6.7303 9.63623 6.78639C9.22285 7.35749 9.0148 8.30091 9.10889 9.21949C9.13674 9.49129 9.3646 10.7393 9.64795 12.2122C9.93083 13.6826 10.2681 15.3712 10.5137 16.5188C10.55 16.6885 10.5441 16.837 10.4639 17.0535C10.3857 17.2644 10.2356 17.5451 9.9834 17.9822C9.5147 18.7944 9.24868 19.3373 9.10889 19.8997C8.96919 20.4617 8.95352 21.0488 8.99609 21.9505C9.03525 22.7785 9.11629 23.6835 9.1748 23.9631C9.41109 25.093 9.31205 26.4679 8.83496 28.8352C8.37741 31.105 8.02197 33.5683 8.02197 34.4544C8.02201 34.7031 8.06081 34.873 8.12891 34.9788C8.19309 35.0783 8.28866 35.1282 8.43066 35.1282C8.49757 35.1282 8.55589 35.1067 8.60938 35.0579C8.66465 35.0073 8.71734 34.9255 8.76465 34.8045C8.85955 34.5614 8.92577 34.1799 8.9668 33.6355C9.0613 32.3843 9.38425 30.4139 9.79443 28.5906C10.2026 26.7766 10.2674 25.3029 10.0156 23.5383C9.82784 22.2213 9.77431 21.3196 9.91895 20.5003C10.0638 19.6797 10.4061 18.9479 11 17.969C11.386 17.3329 11.4619 17.1075 11.4263 16.8132C11.3997 16.5943 11.0587 14.8423 10.6675 12.9168C10.4721 11.9546 10.2939 11.0053 10.165 10.2507C10.1006 9.87353 10.0489 9.54454 10.0127 9.28688C9.97677 9.03117 9.95557 8.84059 9.95557 8.74342ZM21.3711 23.9177L21.6348 24.2429C21.783 24.4251 22.2701 25.1089 22.7173 25.762L23.5317 26.9514L23.5669 27.0012L23.5244 27.0452L20.4424 30.2634L20.3662 30.3425L20.3193 30.2429L19.9854 29.5281C19.7468 29.0188 19.6277 28.5516 19.5898 27.9754C19.5644 27.5896 19.5548 27.3663 19.6133 27.1345C19.6712 26.9048 19.7952 26.6702 20.022 26.2571C20.2837 25.7802 20.6662 25.0615 20.8716 24.6604L21.2451 23.9295L21.2979 23.8284L21.3711 23.9177ZM21.0049 24.7293C20.7987 25.1318 20.416 25.8512 20.1538 26.3289C19.9241 26.7474 19.8106 26.9639 19.7583 27.1712C19.7066 27.3763 19.7136 27.5764 19.7393 27.9666C19.776 28.5245 19.8898 28.9733 20.1201 29.4651L20.4087 30.0803L23.3735 26.9851L22.5942 25.8469C22.1459 25.1922 21.6624 24.5128 21.519 24.3367L21.3257 24.0994L21.0049 24.7293ZM23.2314 14.8723C23.2731 14.8655 23.3067 14.8853 23.3281 14.9046C23.3486 14.9231 23.3667 14.9483 23.3823 14.9749C23.3986 15.0025 23.4151 15.0371 23.4336 15.0774C23.4708 15.1584 23.5159 15.2707 23.5742 15.4158L23.8188 16.0237L23.8496 16.0984L23.772 16.1233L23.5376 16.198C23.4656 16.221 23.3447 16.2423 23.2109 16.2581C23.075 16.274 22.9199 16.2856 22.7788 16.2888L22.2749 16.3005L22.1035 16.3035L22.2163 16.176L22.5854 15.7556C22.7863 15.5268 23.0029 15.2203 23.0674 15.0789C23.0957 15.0168 23.1228 14.9581 23.1523 14.9221C23.1674 14.9039 23.1938 14.8786 23.2314 14.8723ZM23.2036 15.1419C23.13 15.3035 22.9022 15.6229 22.6982 15.8552L22.4419 16.1453L22.7759 16.138C22.9117 16.1348 23.0619 16.1241 23.1934 16.1087C23.3263 16.093 23.4352 16.0742 23.4922 16.0559L23.6489 16.0047L23.4351 15.4714C23.3765 15.3258 23.3327 15.2175 23.2974 15.1404C23.2797 15.1019 23.2646 15.0725 23.252 15.051L23.2505 15.0496C23.2388 15.0709 23.2226 15.1003 23.2036 15.1419ZM22.0947 8.28492C22.0827 8.26667 22.0624 8.24445 22.0347 8.21754C21.979 8.16364 21.8969 8.09977 21.7959 8.03297C21.5943 7.89971 21.3245 7.75821 21.0562 7.65357C20.8117 7.55829 20.4668 7.51524 20.0952 7.52613C19.7247 7.53703 19.3341 7.6015 19.001 7.71656C17.7581 8.14605 16.8896 9.02895 16.4741 10.2888C16.3494 10.6674 16.1178 11.5611 15.96 12.2737C15.802 12.9869 15.5692 13.8095 15.4399 14.1018L15.2437 14.5442L15.522 14.6423C15.777 14.7311 16.0978 14.7687 16.3643 14.7595C16.4977 14.7549 16.6145 14.7387 16.6997 14.7127C16.7422 14.6996 16.7742 14.6849 16.7964 14.6702C16.8186 14.6554 16.8275 14.6444 16.8301 14.638C16.8348 14.6255 16.8402 14.5916 16.8447 14.5339C16.849 14.4794 16.852 14.41 16.8521 14.3303C16.8521 14.1703 16.8436 13.971 16.8257 13.7737C16.7835 13.3077 16.8094 12.7303 16.8828 12.2004C16.956 11.6726 17.0773 11.181 17.2271 10.8909C17.5294 10.3052 18.1306 9.90065 18.7212 9.90065C19.0252 9.90064 19.4171 9.8472 19.7979 9.76002C20.1788 9.67279 20.5425 9.55256 20.7925 9.42604C21.0449 9.29835 21.3783 9.05514 21.6494 8.81813C21.7847 8.69985 21.903 8.58449 21.9863 8.48854C22.0278 8.44077 22.0593 8.3993 22.0801 8.36549C22.0903 8.34878 22.0979 8.33498 22.1021 8.32447C22.1052 8.31638 22.1062 8.31138 22.1064 8.30982C22.1064 8.31097 22.1066 8.303 22.0947 8.28492ZM22.2559 8.30982C22.2557 8.35563 22.2336 8.40292 22.209 8.44313C22.1822 8.48676 22.1436 8.53539 22.0991 8.58668C22.0098 8.68957 21.8872 8.81008 21.749 8.93092C21.4732 9.17205 21.1294 9.42511 20.8613 9.5608C20.5963 9.69493 20.2187 9.81637 19.8315 9.90504C19.444 9.99377 19.0402 10.0515 18.7212 10.0515C18.1958 10.0515 17.6414 10.4153 17.3604 10.9597C17.2227 11.2265 17.1048 11.6972 17.0322 12.221C16.9599 12.7431 16.9341 13.3088 16.9751 13.7605C16.9933 13.9619 17.0015 14.1653 17.0015 14.3303C17.0014 14.4124 16.9989 14.4859 16.9941 14.5457C16.9896 14.6027 16.9825 14.6558 16.9692 14.6907C16.9519 14.7359 16.9179 14.7709 16.8799 14.7962C16.8417 14.8215 16.7946 14.8406 16.7437 14.8562C16.6414 14.8875 16.5111 14.9055 16.3701 14.9104C16.0882 14.9202 15.748 14.8791 15.4722 14.783L15.1177 14.6599L15.04 14.6336L15.0737 14.5588L15.3022 14.0418C15.4248 13.7649 15.6554 12.9549 15.8135 12.2415C15.9717 11.5272 16.2049 10.6276 16.332 10.242C16.762 8.93812 17.6637 8.01943 18.9512 7.57447C19.3008 7.45367 19.7072 7.38654 20.0908 7.37525C20.4731 7.36405 20.8402 7.40774 21.1104 7.51295C21.3886 7.62143 21.6687 7.76917 21.8794 7.90846C21.9841 7.97774 22.074 8.04652 22.1387 8.10914C22.1709 8.1404 22.199 8.17212 22.2192 8.20289C22.2385 8.23224 22.2559 8.26975 22.2559 8.30982ZM23.7603 2.34059C23.7602 2.5254 23.7378 2.66989 23.6577 2.82106C23.5795 2.96851 23.4491 3.11806 23.2476 3.32057C22.8567 3.71339 22.5301 3.95846 22.1182 4.09693C21.7087 4.23454 21.2216 4.26496 20.5142 4.24342L19.3467 4.2068L18.8018 4.6316C18.4919 4.87245 17.3581 5.83473 16.2822 6.77027C15.2072 7.7051 14.1694 8.6056 13.9766 8.77125L13.6631 9.03932L14.0176 10.2551C14.2205 10.9497 14.4584 11.8587 14.5464 12.2752C14.5882 12.4732 14.622 12.6186 14.6504 12.7088C14.6582 12.6878 14.6717 12.6643 14.6812 12.634C14.7039 12.5609 14.7302 12.4636 14.7603 12.3411C14.8204 12.0957 14.8968 11.7508 14.9976 11.2908C15.2403 10.1824 15.5181 9.35169 15.8999 8.69361C16.2826 8.03409 16.7671 7.55063 17.4146 7.13209C18.7902 6.24303 20.5434 6.06986 21.9014 6.69703C22.7583 7.09284 23.726 8.06676 24.1748 8.98072C24.3204 9.27724 24.4066 9.48476 24.4546 9.73512C24.5022 9.98366 24.5126 10.2719 24.5117 10.7283C24.5106 11.3034 24.465 12.347 24.4106 13.0486C24.3554 13.7609 24.3531 14.2602 24.4224 14.6702C24.474 14.9759 24.5656 15.2338 24.7065 15.4949L24.8633 15.7586L24.9761 15.9519C25.0096 16.0166 25.0389 16.081 25.0625 16.1409C25.0861 16.2007 25.1055 16.2576 25.1167 16.3079C25.1275 16.3562 25.1335 16.4066 25.1255 16.4485C25.1166 16.494 25.0862 16.539 25.0537 16.5789C25.0194 16.621 24.9743 16.6666 24.9219 16.7122C24.8168 16.8035 24.6777 16.9009 24.5308 16.9832C24.2988 17.1131 24.1274 17.1906 23.8892 17.2322C23.655 17.273 23.3579 17.2797 22.8755 17.2761C22.408 17.2727 22.0918 17.2563 21.7915 17.2029C21.4912 17.1494 21.2093 17.0581 20.8086 16.907L19.9312 16.5759L19.8286 16.803C19.7819 16.9056 19.7622 16.9712 19.7686 17.0271C19.7745 17.0786 19.805 17.1382 19.9019 17.219C19.9993 17.3003 20.1547 17.3959 20.3911 17.5222C20.6266 17.648 20.9391 17.8011 21.3477 17.9998C22.3606 18.4923 22.9906 18.8666 23.709 19.6257C24.4235 20.3808 25.2258 21.5169 26.5874 23.531C27.4731 24.8412 28.0303 25.7708 28.3276 26.49C28.6258 27.2115 28.665 27.7302 28.5049 28.2156C28.328 28.7513 27.9456 29.2707 27.1733 29.9426C26.4013 30.6143 25.2328 31.4444 23.4775 32.6028L21.6978 33.7761L21.7168 34.4236C21.725 34.7234 21.7237 34.9126 21.6875 35.0359C21.6682 35.1012 21.6374 35.152 21.5923 35.1926C21.5488 35.2317 21.496 35.2572 21.4385 35.2791C21.3275 35.3212 21.2198 35.3398 21.1177 35.3113C21.0148 35.2824 20.931 35.2095 20.8569 35.1004C20.712 34.8866 20.5865 34.4999 20.4336 33.8919C20.2748 33.26 19.7977 31.8571 19.3745 30.7761C18.7329 29.1377 18.5906 28.6533 18.5454 27.9168L18.4927 27.0481L18.4912 27.0276L18.5015 27.01L19.4976 25.0662C19.7713 24.5326 20.0206 24.0185 20.2007 23.6204C20.2907 23.4213 20.3632 23.2518 20.4131 23.1238C20.4381 23.0597 20.4562 23.0061 20.4688 22.9656C20.4749 22.9456 20.4806 22.9298 20.4834 22.9172C20.4847 22.9113 20.4858 22.9062 20.4863 22.9026C20.4868 22.8996 20.4863 22.8973 20.4863 22.8967C20.4863 22.7141 20.5438 22.5582 20.6548 22.4485C20.7657 22.3392 20.9221 22.283 21.106 22.283C21.1765 22.283 21.2468 22.3092 21.3213 22.3577C21.3954 22.406 21.4785 22.4799 21.5747 22.5818C21.7671 22.7855 22.0255 23.1147 22.3965 23.616C23.5158 25.1286 24.2139 26.1528 24.4956 26.7009C24.5432 26.7935 24.581 26.8692 24.6055 26.9338C24.6304 26.9998 24.6434 27.0616 24.6362 27.1257C24.629 27.1893 24.6031 27.2481 24.5645 27.3103C24.5261 27.372 24.4716 27.4441 24.4033 27.533C24.2446 27.7393 23.3702 28.6797 22.4639 29.6204L20.8438 31.3005L20.9756 31.7385L21.0488 31.9978L21.1587 32.345C21.1944 32.4307 21.227 32.4704 21.2598 32.4871C21.2854 32.5 21.3236 32.5045 21.3901 32.4871C21.4579 32.4692 21.5474 32.4303 21.6655 32.364C21.9015 32.2316 22.2364 32.0028 22.7305 31.6668C22.8874 31.56 23.0619 31.442 23.252 31.3137C24.4186 30.526 25.29 29.9076 25.918 29.4182C26.5477 28.9274 26.9265 28.5703 27.1147 28.3064C27.254 28.1111 27.3356 27.9092 27.3506 27.6736C27.3655 27.4365 27.3145 27.1591 27.1821 26.8137C26.9163 26.1202 26.3292 25.1701 25.3335 23.7449C24.0688 21.9346 23.3576 20.9514 22.71 20.2966C22.0659 19.6456 21.4832 19.3178 20.4702 18.8245C20.0355 18.6128 19.6936 18.4386 19.4272 18.2839C19.1613 18.1295 18.9667 17.9916 18.8296 17.8518C18.6909 17.7104 18.61 17.566 18.5732 17.4006C18.5371 17.2379 18.5438 17.0589 18.5703 16.8513C18.6109 16.5331 18.6666 16.102 18.6934 15.8933C18.7071 15.7864 18.727 15.676 18.749 15.5842C18.76 15.5384 18.7726 15.4963 18.7842 15.4612C18.7952 15.4276 18.8079 15.3951 18.8223 15.3718C18.8626 15.3068 18.9295 15.2685 19.0083 15.2488C19.0864 15.2293 19.1822 15.2252 19.2925 15.2356C19.5136 15.2564 19.8108 15.3327 20.1802 15.4597C20.3954 15.5338 20.5602 15.5875 20.6929 15.6223C20.8249 15.6569 20.9214 15.6715 21.0034 15.6677C21.1635 15.6601 21.2848 15.5851 21.522 15.4041C22.2527 14.8468 22.8119 13.6347 23.2109 11.679C23.421 10.6485 23.3788 9.97448 23.0864 9.40846L22.9619 9.16822L22.8755 9.33375C22.77 9.53498 22.5697 9.73753 22.3159 9.92555C22.0609 10.1145 21.746 10.2933 21.4062 10.4485C20.728 10.7583 19.9385 10.9772 19.3027 10.9773C18.9892 10.9773 18.8233 10.9863 18.7036 11.0286C18.5901 11.0687 18.5113 11.1407 18.3813 11.2952C18.2229 11.4838 18.102 11.8265 18.0356 12.2883C17.9697 12.7474 17.9599 13.3134 18.0122 13.9378C18.0892 14.8564 17.8885 15.4896 17.3706 15.7864C16.861 16.0781 16.0757 16.0224 15.04 15.6589C14.5655 15.4924 14.2594 15.3506 14.0615 15.1477C13.8601 14.9409 13.7784 14.6798 13.7261 14.301C13.5671 13.1502 13.2759 11.8749 12.8398 10.4207C12.7151 10.0046 12.6078 9.60343 12.5366 9.29274C12.5011 9.13779 12.475 9.00396 12.459 8.90162C12.4511 8.85071 12.4451 8.80583 12.4429 8.76979C12.4409 8.73727 12.4398 8.69985 12.4487 8.67164C12.454 8.65537 12.4641 8.63997 12.4722 8.6277C12.481 8.61413 12.4917 8.5981 12.5044 8.58229C12.5297 8.55066 12.5641 8.51217 12.6055 8.46803C12.6886 8.37934 12.805 8.26473 12.9438 8.13258C13.2216 7.86823 13.5953 7.53114 13.9985 7.18482C14.804 6.49288 16.0914 5.38816 16.8594 4.72975C17.7783 3.94189 18.2789 3.52311 18.7344 3.30592C19.1958 3.08611 19.6103 3.07301 20.3442 3.07301C20.869 3.07301 21.1712 3.06467 21.396 3.02613C21.6157 2.98845 21.7625 2.92183 21.9746 2.79762C22.1056 2.72078 22.2322 2.63242 22.3291 2.55299C22.3776 2.5132 22.4182 2.47602 22.4478 2.44459C22.4792 2.41121 22.4928 2.39006 22.4961 2.3816C22.5048 2.35871 22.5026 2.33243 22.4668 2.29371C22.4283 2.25213 22.3578 2.20673 22.2544 2.16188C22.0494 2.07305 21.7407 1.99664 21.377 1.94215C20.6491 1.83315 19.7217 1.8145 19.0142 1.94801C18.2938 2.084 17.4773 2.42183 16.3511 3.09059C15.2242 3.75977 13.7904 4.75818 11.8394 6.21363C11.089 6.77345 10.6583 7.14389 10.4126 7.50416C10.171 7.85873 10.105 8.20967 10.105 8.74342C10.105 8.82828 10.1244 9.0087 10.1606 9.26637C10.1966 9.52201 10.2487 9.84951 10.313 10.2258C10.4416 10.9787 10.6188 11.9267 10.814 12.8875C11.2039 14.807 11.5463 16.566 11.5742 16.7942C11.6169 17.1449 11.515 17.4104 11.1289 18.0466C10.5383 19.0201 10.2055 19.7331 10.0654 20.5266C9.92524 21.3213 9.97617 22.2036 10.1636 23.5178C10.418 25.3013 10.353 26.7931 9.94092 28.6243C9.53162 30.4437 9.20992 32.406 9.11621 33.6472C9.07498 34.1944 9.00742 34.595 8.90381 34.8601C8.8519 34.9928 8.78891 35.0975 8.71045 35.1692C8.63007 35.2425 8.53587 35.2791 8.43066 35.2791C8.24532 35.2791 8.09856 35.2089 8.00293 35.0608C7.91137 34.9188 7.87259 34.7133 7.87256 34.4544C7.87256 33.5515 8.2311 31.0749 8.68848 28.8059C9.16508 26.4411 9.25791 25.0919 9.02832 23.9939C8.96696 23.7007 8.88576 22.783 8.84668 21.9563C8.804 21.0521 8.81717 20.4473 8.9624 19.863C9.1076 19.279 9.38326 18.72 9.85303 17.906C10.1062 17.4672 10.2502 17.1978 10.3232 17.0007C10.3941 16.8095 10.3971 16.6908 10.3672 16.551C10.1214 15.4021 9.783 13.7125 9.5 12.2415C9.21747 10.7728 8.9882 9.51444 8.95947 9.23414C8.86286 8.28959 9.07531 7.30702 9.51611 6.6985C9.56563 6.63015 9.65346 6.53575 9.771 6.42457C9.88953 6.31245 10.0409 6.17906 10.2178 6.02906C10.5719 5.72875 11.0324 5.36172 11.5449 4.96705C12.5701 4.1777 13.81 3.27688 14.8496 2.58668C16.2098 1.68369 17.2381 1.16434 18.2817 0.855235C18.8386 0.69042 19.3125 0.653832 20.4482 0.683849C21.5644 0.713463 22.3876 0.852377 22.9341 1.11891C23.2085 1.25279 23.4164 1.42057 23.5552 1.62574C23.6943 1.83144 23.7603 2.07075 23.7603 2.34059Z" fill="#C483AD"/>
</svg>
