<svg xmlns="http://www.w3.org/2000/svg">
	
	<symbol id="icon-mail" viewBox="0 0 25 19">
	  <path d="M1075.4,45.856c0.32,0.216,1.27.857,2.86,1.923s2.81,1.887,3.65,2.463c0.1,0.063.29,0.2,0.6,0.412s0.55,0.383.75,0.513,0.44,0.276.73,0.438a4.188,4.188,0,0,0,.8.364,2.26,2.26,0,0,0,.7.122h0.02a2.26,2.26,0,0,0,.7-0.122,4.188,4.188,0,0,0,.8-0.364c0.29-.162.53-0.308,0.73-0.438s0.45-.3.75-0.513,0.5-.349.6-0.412c0.85-.576,3.03-2.038,6.52-4.387a6.606,6.606,0,0,0,1.71-1.66,3.523,3.523,0,0,0,.68-2.038,2.04,2.04,0,0,0-.66-1.525,2.2,2.2,0,0,0-1.57-.634h-20.54a2.015,2.015,0,0,0-1.65.7,2.646,2.646,0,0,0-.58,1.755,3.111,3.111,0,0,0,.77,1.843A6.725,6.725,0,0,0,1075.4,45.856Zm21.2,1.444q-4.575,3-6.94,4.657-0.795.567-1.29,0.884a8.033,8.033,0,0,1-1.32.648,4.145,4.145,0,0,1-1.54.33h-0.02a4.145,4.145,0,0,1-1.54-.33,8.033,8.033,0,0,1-1.32-.648q-0.5-.317-1.29-0.884-1.875-1.336-6.93-4.657a7.377,7.377,0,0,1-1.41-1.174V56.842a2.04,2.04,0,0,0,.66,1.525,2.165,2.165,0,0,0,1.57.635h20.54a2.165,2.165,0,0,0,1.57-.635,2.04,2.04,0,0,0,.66-1.525V46.126A7.36,7.36,0,0,1,1096.6,47.3Z" transform="translate(-1073 -40)"/>
	</symbol>

	<symbol id="icon-phone" viewBox="0 0 24 24">
	  <path d="M1339.46,57.969l-3.71-3.712a1.925,1.925,0,0,0-2.72.051l-1.87,1.87c-0.12-.066-0.24-0.133-0.37-0.206a18.773,18.773,0,0,1-4.49-3.253,18.6,18.6,0,0,1-3.25-4.505c-0.07-.125-0.14-0.246-0.2-0.361l1.25-1.253,0.62-.617a1.946,1.946,0,0,0,.05-2.729l-3.71-3.712a1.923,1.923,0,0,0-2.72.051l-1.05,1.052,0.03,0.028a6.124,6.124,0,0,0-.86,1.52,6.464,6.464,0,0,0-.38,1.542c-0.49,4.063,1.36,7.776,6.39,12.814,6.96,6.964,12.56,6.438,12.8,6.412a6.328,6.328,0,0,0,1.55-.389,6.088,6.088,0,0,0,1.51-.858l0.02,0.02,1.06-1.038A1.948,1.948,0,0,0,1339.46,57.969Z" transform="translate(-1316 -39)"/>
	</symbol>

	<symbol id="icon-place" viewBox="0 0 23 31">
		<path fill-rule="evenodd" clip-rule="evenodd" d="M11.5 8.76264e-06C8.48851 -0.033635 5.5866 1.12847 3.43076 3.23145C1.27491 5.33444 0.0411188 8.20663 0 11.218C0 18.894 10.291 30.164 10.729 30.64C10.8276 30.7457 10.9469 30.8299 11.0794 30.8875C11.212 30.9451 11.355 30.9748 11.4995 30.9748C11.644 30.9748 11.787 30.9451 11.9196 30.8875C12.0521 30.8299 12.1714 30.7457 12.27 30.64C12.709 30.164 23 18.894 23 11.218C22.9589 8.20663 21.7251 5.33444 19.5692 3.23145C17.4134 1.12847 14.5115 -0.033635 11.5 8.76264e-06V8.76264e-06ZM14.426 7.00001L11.55 11.461L8.61301 7.10304L7 14.4H9.18301L9.58301 12.066L11.515 15L13.437 12.13L13.824 14.413H16L14.426 7.00001Z" fill="#2E2E2D"/>
	</symbol>

	<symbol id="icon-arrow" viewBox="0 0 25 25">
		<g clip-path="url(#clip0)">
			<path fill-rule="evenodd" clip-rule="evenodd" d="M12.5 0C14.9723 0 17.389 0.733111 19.4446 2.10663C21.5003 3.48015 23.1024 5.43235 24.0485 7.71643C24.9946 10.0005 25.2421 12.5138 24.7598 14.9386C24.2775 17.3634 23.087 19.5906 21.3388 21.3388C19.5906 23.087 17.3634 24.2775 14.9386 24.7598C12.5138 25.2421 10.0005 24.9946 7.71643 24.0485C5.43235 23.1024 3.48015 21.5003 2.10663 19.4446C0.733111 17.389 0 14.9723 0 12.5C0 9.18479 1.31699 6.0054 3.66119 3.66119C6.0054 1.31699 9.18479 0 12.5 0V0ZM13.243 13.559L16.731 10.198C16.8728 10.0633 17.0609 9.98816 17.2565 9.98816C17.4521 9.98816 17.6402 10.0633 17.782 10.198C17.8505 10.2634 17.9051 10.342 17.9423 10.429C17.9796 10.5161 17.9988 10.6098 17.9988 10.7045C17.9988 10.7992 17.9796 10.8929 17.9423 10.98C17.9051 11.067 17.8505 11.1456 17.782 11.211L13.025 15.795C12.8832 15.9297 12.6951 16.0048 12.4995 16.0048C12.3039 16.0048 12.1158 15.9297 11.974 15.795L7.21802 11.211C7.14949 11.1456 7.09495 11.067 7.05768 10.98C7.02041 10.8929 7.00116 10.7992 7.00116 10.7045C7.00116 10.6098 7.02041 10.5161 7.05768 10.429C7.09495 10.342 7.14949 10.2634 7.21802 10.198C7.35982 10.0633 7.54795 9.98816 7.74353 9.98816C7.93911 9.98816 8.12718 10.0633 8.26898 10.198L11.757 13.559C11.8538 13.658 11.9693 13.7366 12.0969 13.7903C12.2245 13.844 12.3616 13.8717 12.5 13.8717C12.6384 13.8717 12.7755 13.844 12.9031 13.7903C13.0307 13.7366 13.1462 13.658 13.243 13.559V13.559Z"/>
		</g>
		<defs>
			<clipPath id="clip0">
				<rect width="25" height="25" fill="white"/>
			</clipPath>
		</defs>
	</symbol>


	<symbol id="icon-star" viewBox="0 0 25 24">
	  <defs>
	    <style>
	      .cls-1 {
	        fill: #f34b3e;
	        fill-rule: evenodd;
	      }
	    </style>
	  </defs>
	  <path id="Forma_1" data-name="Forma 1" class="cls-1" d="M965.448,784.872a1.8,1.8,0,0,0-.993-3.064l-6.049-.881a0.792,0.792,0,0,1-.6-0.434l-2.7-5.494a1.79,1.79,0,0,0-3.213,0l-2.705,5.5a0.792,0.792,0,0,1-.6.434l-6.049.881a1.8,1.8,0,0,0-.993,3.063l4.376,4.277a0.794,0.794,0,0,1,.229.7l-1.033,6.039a1.762,1.762,0,0,0,.391,1.456,1.806,1.806,0,0,0,2.208.437l5.41-2.851a0.806,0.806,0,0,1,.736,0l5.411,2.851a1.765,1.765,0,0,0,.833.209,1.793,1.793,0,0,0,1.375-.646,1.759,1.759,0,0,0,.39-1.456l-1.033-6.039a0.794,0.794,0,0,1,.229-0.7Z" transform="translate(-941 -774)"/>
	</symbol>

	<symbol id="icon-comfort" viewBox="0 0 25 25">
	  <path d="M943.973,952a2.469,2.469,0,1,1-2.465,2.469A2.466,2.466,0,0,1,943.973,952Zm-2.75,13.59h0.244v4.9a1.226,1.226,0,0,0,1.223,1.224h2.567a1.226,1.226,0,0,0,1.222-1.224V970.2a3.1,3.1,0,0,1-.366-1.428v-6.408a3.054,3.054,0,0,1,1.833-2.8v-0.489a1.227,1.227,0,0,0-1.222-1.225h-5.5A1.227,1.227,0,0,0,940,959.082v5.285A1.214,1.214,0,0,0,941.223,965.591ZM961.047,952a2.469,2.469,0,1,1-2.466,2.469A2.467,2.467,0,0,1,961.047,952Zm-3.994,7.06v0.49a3.054,3.054,0,0,1,1.834,2.8v6.387a2.866,2.866,0,0,1-.367,1.429v0.285a1.227,1.227,0,0,0,1.223,1.225h2.567a1.227,1.227,0,0,0,1.222-1.225v-4.9h0.245A1.227,1.227,0,0,0,965,964.326v-5.265a1.227,1.227,0,0,0-1.222-1.224h-5.5A1.228,1.228,0,0,0,957.053,959.061Zm-9.086,3.306h0v6.408A1.227,1.227,0,0,0,949.189,970h0.469v5.775A1.227,1.227,0,0,0,950.88,977h3.28a1.227,1.227,0,0,0,1.223-1.225v-5.795h0.468a1.227,1.227,0,0,0,1.223-1.225v-6.387h0a1.227,1.227,0,0,0-1.223-1.224h-6.662A1.213,1.213,0,0,0,947.967,962.367Zm4.543-7.918a2.837,2.837,0,1,1-2.832,2.837A2.834,2.834,0,0,1,952.51,954.449Z" transform="translate(-940 -952)"/>
	</symbol>

	<symbol id="icon-chair" viewBox="0 0 15 25">
	  <path d="M1276.13,827.813a4.348,4.348,0,0,1-4.08-3.217c-0.16-1.294-.21-1.348-0.39-2.924-0.52-1.525-2.62-8.479-2.62-8.479a1.754,1.754,0,0,1,1.46-2.145c1.89-.468,2.78,2.467,2.23,3.7a15.673,15.673,0,0,1,2.53,7.018,1.776,1.776,0,0,0,1.75,1.657c1.71,0.176,5.92.389,5.92,0.389s2.04,0.514.49,2.729c-0.72.726-2.9,1.188-6.12,1.268v5.36l5.05,1.657s0.68,1.108-.39,1.17l-5.05-1.657h-0.39L1271.47,836s-1.14-.034-0.49-1.072l5.15-1.755v-5.36Z" transform="translate(-1269 -811)"/>
	</symbol>

	<symbol id="icon-arrow-btn" viewBox="0 0 14.97 10">
	  <path d="M1490.77,1090.52l-4.46-4.32a0.694,0.694,0,0,0-.98,0,0.658,0.658,0,0,0,0,.95l3.27,3.17h-11.9a0.68,0.68,0,1,0,0,1.36h11.9l-3.27,3.17a0.658,0.658,0,0,0,0,.95,0.714,0.714,0,0,0,.49.2,0.7,0.7,0,0,0,.49-0.2l4.46-4.32A0.67,0.67,0,0,0,1490.77,1090.52Z" transform="translate(-1476 -1086)"/>
	</symbol>


	<symbol id="icon-check" viewBox="0 0 25 25">
		<g clip-path="url(#clip0)">
			<path fill-rule="evenodd" clip-rule="evenodd" d="M12.5 0C14.9723 0 17.389 0.733172 19.4446 2.10669C21.5003 3.48021 23.1024 5.43248 24.0485 7.71655C24.9946 10.0006 25.2421 12.514 24.7598 14.9387C24.2775 17.3635 23.087 19.5907 21.3388 21.3389C19.5907 23.087 17.3634 24.2775 14.9386 24.7598C12.5139 25.2421 10.0005 24.9947 7.71646 24.0486C5.43238 23.1025 3.48015 21.5002 2.10663 19.4446C0.733111 17.389 0 14.9723 0 12.5C0 9.18479 1.31696 6.00534 3.66116 3.66113C6.00537 1.31693 9.18479 0 12.5 0V0ZM16.7 8.45996L16.486 8.23999C16.4057 8.1583 16.3086 8.09499 16.2013 8.05469C16.0941 8.01438 15.9793 7.99802 15.8651 8.00659C15.7509 8.01516 15.6399 8.04864 15.5399 8.10449C15.4399 8.16034 15.3532 8.23732 15.286 8.33008L11.703 12.95L10.621 11.8701C10.5418 11.7863 10.445 11.7211 10.3375 11.6794C10.23 11.6378 10.1145 11.6205 9.99957 11.6292C9.88461 11.6378 9.773 11.672 9.67291 11.7292C9.57282 11.7865 9.48676 11.8653 9.42099 11.96L9.23199 12.2C9.07601 12.4066 8.99746 12.6613 9.01001 12.9199C9.01715 13.1799 9.11801 13.4287 9.29401 13.6201L11.276 15.73C11.3552 15.8198 11.4536 15.8908 11.5638 15.9375C11.6741 15.9842 11.7934 16.0055 11.913 16C12.0338 15.9891 12.1507 15.952 12.2558 15.8916C12.361 15.8312 12.4518 15.7487 12.522 15.6499L16.8 9.87012C16.953 9.6589 17.0261 9.39995 17.006 9.13989C16.9902 8.88353 16.8814 8.64182 16.7 8.45996V8.45996Z"/>
		</g>
		<defs>
			<clipPath id="clip0">
				<rect width="25" height="25" fill="white"/>
			</clipPath>
		</defs>
	</symbol>

	<symbol id="icon-time" viewBox="0 0 25 25">
		<path fill-rule="evenodd" clip-rule="evenodd" d="M12.5 0C10.0278 0 7.61099 0.733172 5.55538 2.10669C3.49977 3.48021 1.89759 5.43235 0.951498 7.71643C0.00540262 10.0005 -0.242121 12.5138 0.240194 14.9386C0.72251 17.3634 1.91306 19.5907 3.66121 21.3389C5.40937 23.087 7.63666 24.2775 10.0614 24.7598C12.4862 25.2421 14.9995 24.9946 17.2836 24.0485C19.5677 23.1024 21.5199 21.5002 22.8934 19.4446C24.2669 17.389 25 14.9723 25 12.5C24.9958 9.18609 23.6775 6.00918 21.3342 3.66589C18.9909 1.32261 15.8139 0.00423368 12.5 0V0ZM19.015 12.11H13.4V5.35999C13.4 5.08708 13.2916 4.82542 13.0987 4.63245C12.9057 4.43947 12.6439 4.33105 12.371 4.33105C12.0981 4.33105 11.8364 4.43947 11.6434 4.63245C11.4504 4.82542 11.342 5.08708 11.342 5.35999V13.14C11.3417 13.2753 11.3682 13.4093 11.4198 13.5343C11.4714 13.6593 11.5472 13.7728 11.6428 13.8685C11.7384 13.9642 11.8519 14.0401 11.9768 14.0918C12.1018 14.1435 12.2357 14.1702 12.371 14.17H19.018C19.1533 14.1698 19.2872 14.143 19.4121 14.0911C19.537 14.0391 19.6504 13.9631 19.7459 13.8673C19.8414 13.7715 19.9171 13.6579 19.9687 13.5328C20.0203 13.4078 20.0467 13.2738 20.0465 13.1385C20.0463 13.0033 20.0195 12.8694 19.9676 12.7445C19.9156 12.6196 19.8396 12.5061 19.7438 12.4106C19.648 12.3151 19.5344 12.2394 19.4093 12.1879C19.2843 12.1363 19.1503 12.1098 19.015 12.11V12.11Z"/>
	</symbol>

	<symbol id="icon-money" viewBox="0 0 25 25">
		<g clip-path="url(#clip0)">
			<rect width="25" height="25" fill="white"/>
			<path fill-rule="evenodd" clip-rule="evenodd" d="M21.3378 3.6597C18.9935 1.31546 15.814 -0.00152588 12.4988 -0.00152588C9.18349 -0.00152588 6.00401 1.31546 3.65976 3.6597C1.31551 6.00395 -0.00147247 9.18342 -0.00147247 12.4987C-0.00147247 15.8139 1.31551 18.9934 3.65976 21.3377C6.00401 23.6819 9.18349 24.9989 12.4988 24.9989C15.814 24.9989 18.9935 23.6819 21.3378 21.3377C23.682 18.9934 24.999 15.8139 24.999 12.4987C24.999 9.18342 23.682 6.00395 21.3378 3.6597V3.6597ZM13.2838 11.7667H11.7138C11.2838 11.7667 10.8715 11.5959 10.5675 11.2919C10.2635 10.9879 10.0928 10.5756 10.0928 10.1457C10.0928 9.71577 10.2635 9.30347 10.5675 8.99947C10.8715 8.69548 11.2838 8.52469 11.7138 8.52469H14.8518C15.046 8.52469 15.2323 8.44752 15.3697 8.31015C15.5071 8.17278 15.5843 7.98646 15.5843 7.79219C15.5843 7.59792 15.5071 7.41161 15.3697 7.27424C15.2323 7.13687 15.046 7.05969 14.8518 7.05969H13.2308V5.4377C13.2308 5.24343 13.1536 5.05711 13.0162 4.91974C12.8788 4.78237 12.6925 4.7052 12.4983 4.7052C12.304 4.7052 12.1177 4.78237 11.9803 4.91974C11.8429 5.05711 11.7658 5.24343 11.7658 5.4377V7.05969H11.7138C11.3085 7.05969 10.9072 7.13952 10.5328 7.2946C10.1584 7.44969 9.81819 7.677 9.53163 7.96356C9.24507 8.25012 9.01776 8.59032 8.86267 8.96473C8.70758 9.33914 8.62776 9.74043 8.62776 10.1457C8.62776 10.5509 8.70758 10.9522 8.86267 11.3266C9.01776 11.7011 9.24507 12.0413 9.53163 12.3278C9.81819 12.6144 10.1584 12.8417 10.5328 12.9968C10.9072 13.1519 11.3085 13.2317 11.7138 13.2317H13.2828C13.7127 13.2317 14.125 13.4025 14.429 13.7065C14.733 14.0105 14.9038 14.4228 14.9038 14.8527C14.9038 15.2826 14.733 15.6949 14.429 15.9989C14.125 16.3029 13.7127 16.4737 13.2828 16.4737H10.1448C9.95049 16.4737 9.76418 16.5509 9.62681 16.6882C9.48944 16.8256 9.41226 17.0119 9.41226 17.2062C9.41226 17.4004 9.48944 17.5868 9.62681 17.7241C9.76418 17.8615 9.95049 17.9387 10.1448 17.9387H11.7658V19.5587C11.7658 19.7529 11.8429 19.9393 11.9803 20.0766C12.1177 20.214 12.304 20.2912 12.4983 20.2912C12.6925 20.2912 12.8788 20.214 13.0162 20.0766C13.1536 19.9393 13.2308 19.7529 13.2308 19.5587V17.9377H13.2828C13.6926 17.9451 14.0999 17.8707 14.4807 17.719C14.8615 17.5672 15.2083 17.3411 15.5007 17.0539C15.7932 16.7666 16.0255 16.424 16.1841 16.046C16.3426 15.6679 16.4243 15.2621 16.4243 14.8522C16.4243 14.4422 16.3426 14.0364 16.1841 13.6584C16.0255 13.2804 15.7932 12.9377 15.5007 12.6505C15.2083 12.3633 14.8615 12.1372 14.4807 11.9854C14.0999 11.8337 13.6926 11.7593 13.2828 11.7667H13.2838Z"/>
		</g>
		<defs>
			<clipPath id="clip0">
				<rect width="25" height="25" fill="white"/>
			</clipPath>
		</defs>
	</symbol>

	<symbol id="icon-place-2" viewBox="0 0 19 25">
		<g clip-path="url(#clip0)">
			<path fill-rule="evenodd" clip-rule="evenodd" d="M9.5 5.93103e-05C7.04126 -0.0555473 4.6607 0.86572 2.88 2.56207C1.0993 4.25842 0.0636806 6.59156 0 9.05011C0 15.2401 8.49999 24.33 8.85999 24.71C8.94327 24.7954 9.0428 24.8633 9.15271 24.9096C9.26262 24.9559 9.38072 24.9798 9.5 24.9798C9.61928 24.9798 9.73738 24.9559 9.84729 24.9096C9.9572 24.8633 10.0567 24.7954 10.14 24.71C10.5 24.33 19 15.2401 19 9.05011C18.9363 6.59156 17.9007 4.25842 16.12 2.56207C14.3393 0.86572 11.9587 -0.0555473 9.5 5.93103e-05V5.93103e-05ZM9.5 5.00006C10.39 5.00006 11.2601 5.26402 12.0001 5.75848C12.7401 6.25295 13.3169 6.95575 13.6575 7.77801C13.9981 8.60028 14.0872 9.50507 13.9136 10.378C13.7399 11.2509 13.3113 12.0527 12.682 12.6821C12.0527 13.3114 11.2508 13.74 10.3779 13.9136C9.50502 14.0873 8.60022 13.9981 7.77795 13.6575C6.95569 13.3169 6.25289 12.7402 5.75842 12.0002C5.26396 11.2602 5 10.3901 5 9.50006C4.99921 8.90889 5.11508 8.32336 5.34094 7.77704C5.56681 7.23071 5.89826 6.73436 6.31628 6.31634C6.73431 5.89832 7.23066 5.56687 7.77698 5.341C8.3233 5.11514 8.90883 4.99927 9.5 5.00006Z"/>
		</g>
		<defs>
			<clipPath id="clip0">
				<rect width="19" height="25" fill="white"/>
			</clipPath>
		</defs>
	</symbol>





</svg>