<svg viewBox="0 0 319 401" fill="none" xmlns="http://www.w3.org/2000/svg" preserveAspectRatio="none">
<path opacity="0.2" fill-rule="evenodd" clip-rule="evenodd" d="M-100.053 -148.366L317.391 -253.268L318.609 -248.418L-78.3734 -148.659C-64.5652 -148.628 -50.2634 -148.257 -36.089 -147.46L217.812 -190.308L218.644 -185.378L-15.0484 -145.94C-11.7002 -145.641 -8.37744 -145.314 -5.08878 -144.96C25.685 -141.64 53.7941 -135.81 71.7407 -126.327C80.713 -121.586 87.4972 -115.749 90.5737 -108.515C93.7144 -101.13 92.7704 -92.8335 87.4416 -83.7863C84.2147 -78.3075 79.3465 -72.4832 72.6881 -66.2795C77.1842 -69.1826 81.7755 -71.6728 86.4441 -73.7627C108.783 -83.7624 132.685 -84.5012 156.034 -77.7165C202.64 -64.174 247.048 -20.7006 273.514 39.2203C303.916 108.055 310.777 198.787 270.288 291.942C281.425 344.674 285.183 403.123 279.024 460.424L274.053 459.89C279.902 405.476 276.716 350.114 266.782 299.758C235.823 366.673 180.151 434.555 90.9779 496.213L88.1342 492.101C179.388 429.005 235.112 359.511 265.064 291.415C252.771 234.097 231.7 183.855 205.339 149.779C180.086 117.134 150.404 99.8158 119.271 104.411C88.0092 109.025 54.1804 135.866 21.0435 194.271C-16.9906 261.308 -30.8854 307.682 -31.3886 340.799C-9.24142 376.47 15.5344 409.364 39.0078 436.773C42.1725 438.9 45.1191 441.054 47.7268 443.295C53.1218 447.931 57.3004 453.133 58.9315 459.54L54.6781 461.86C48.4956 455.212 42.1284 448.089 35.6586 440.548C32.5789 438.499 29.237 436.432 25.7082 434.271C25.1627 433.937 24.6131 433.601 24.0598 433.262C10.0202 424.677 -6.39578 414.638 -18.5414 398.951C-29.2697 385.094 -36.5182 367.084 -36.41 342.187C-48.8984 321.98 -60.5455 300.889 -70.6505 279.391C-72.361 290.32 -73.8128 300.979 -75.0341 311.339C-85.85 403.083 -78.5683 471.096 -72.8475 493.54L-77.0996 495.861C-102.116 468.996 -138.981 438.473 -178.24 405.97C-180.779 403.867 -183.329 401.756 -185.887 399.637C-227.89 364.834 -271.839 327.967 -305.932 291.29C-339.937 254.708 -364.595 217.849 -367.26 183.024C-368.602 165.5 -364.368 148.569 -353.113 132.607C-341.893 116.694 -323.776 101.855 -297.512 88.2765C-245.566 61.4218 -208.278 35.2662 -183.389 11.2451C-158.458 -12.8165 -146.184 -34.5255 -143.784 -52.4711C-141.414 -70.1885 -148.616 -84.5797 -163.634 -94.5355C-178.797 -104.587 -202.007 -110.134 -231.367 -109.461L-231.841 -114.425L-60.0576 -143.415C-73.5439 -143.746 -86.8368 -143.731 -99.3863 -143.442L-100.053 -148.366ZM-35.8107 -142.436L-207.16 -113.52C-188.243 -111.494 -172.516 -106.423 -160.871 -98.7029C-144.397 -87.7814 -136.183 -71.5824 -138.828 -51.8083C-141.442 -32.2623 -154.614 -9.57846 -179.917 14.8428C-205.262 39.3045 -242.996 65.7216 -295.216 92.7181C-321.034 106.066 -338.417 120.44 -349.027 135.488C-359.602 150.486 -363.529 166.26 -362.275 182.642C-359.75 215.631 -336.193 251.391 -302.269 287.886C-268.434 324.285 -224.74 360.951 -182.697 395.787C-180.158 397.89 -177.626 399.987 -175.102 402.076L-174.937 402.213L-174.936 402.214C-138.851 432.088 -104.497 460.53 -79.5688 486.035C-84.9269 456.959 -89.7281 393.273 -79.9997 310.753C-78.4977 298.012 -76.6489 284.819 -74.4017 271.232C-82.2635 253.739 -89.0552 236.018 -94.4042 218.324C-108.404 172.013 -112.586 125.671 -99.9829 84.0052C-87.3538 42.2533 -57.9601 5.49939 -5.41953 -21.6971C20.5171 -35.1227 40.2589 -47.1681 54.7409 -57.9493C69.2523 -68.7523 78.3365 -78.1797 83.1334 -86.3238C87.8864 -94.3935 88.3347 -101.004 85.9725 -106.559C83.546 -112.264 77.9319 -117.4 69.4047 -121.906C52.3524 -130.917 25.0575 -136.679 -5.62503 -139.989C-15.4516 -141.049 -25.5926 -141.854 -35.8107 -142.436ZM-69.2209 270.558C-59.5445 291.92 -48.2612 312.947 -36.0637 333.161C-33.6761 299.494 -18.7261 254.234 16.6947 191.804C50.0849 132.952 84.9675 104.42 118.541 99.4644C152.244 94.49 183.523 113.406 209.294 146.72C235.107 180.088 255.821 228.391 268.432 283.503C305.33 193.826 298.032 107.107 268.94 41.2404C242.875 -17.7735 199.419 -59.9032 154.639 -72.915C132.296 -79.4075 109.625 -78.6612 88.487 -69.1991C67.3352 -59.7307 47.5085 -41.4391 31.0577 -12.4807C-25.8472 87.6897 -55.1861 186.615 -69.2209 270.558ZM-72.8754 262.295C-79.373 247.236 -85.0339 232.042 -89.6181 216.878C-103.452 171.118 -107.415 125.846 -95.197 85.4529C-83.005 45.1459 -54.6116 9.39624 -3.12106 -17.2568C20.8202 -29.6494 39.635 -40.9347 53.9882 -51.2102C44.156 -41.5532 34.9874 -29.5207 26.7103 -14.9504C-28.8557 82.8629 -58.2884 179.49 -72.8754 262.295ZM25.2029 428.099C6.25867 405.063 -13.1778 378.78 -31.131 350.599C-29.7552 370.22 -23.284 384.658 -14.5878 395.89C-3.47043 410.249 11.4705 419.686 25.2029 428.099Z" fill="white"/>
</svg>
