<svg viewBox="0 0 297 401" fill="none" xmlns="http://www.w3.org/2000/svg" preserveAspectRatio="none">
<path opacity="0.2" d="M53.0923 377.313L121.662 593.745M53.0923 377.313L3.47918 220.713M53.0923 377.313L134.729 -13.6418M121.662 593.745L260.326 382.826M121.662 593.745L3.47918 220.713M260.326 382.826L150.785 239.243M260.326 382.826L3.47918 220.713M150.785 239.243L286.766 561.689L296.988 163.661M150.785 239.243L3.47918 220.713M150.785 239.243L296.988 163.661M150.785 239.243L310.533 -0.0438544M150.785 239.243L134.729 -13.6418M296.988 163.661L461.749 -134.072M296.988 163.661L566.692 230.692L461.749 -134.072M296.988 163.661L310.533 -0.0438544M461.749 -134.072L310.533 -0.0438544M461.749 -134.072L211.715 -63.6835L134.729 -13.6418M3.47918 220.713L134.729 -13.6418M310.533 -0.0438544L134.729 -13.6418" stroke="white" stroke-width="5"/>
</svg>
