<?xml version="1.0" encoding="utf-8"?><svg xmlns="http://www.w3.org/2000/svg" xmlns:xlink="http://www.w3.org/1999/xlink"><symbol viewBox="0 0 24 24" id="icon-account"><path d="M23.1 12C23.1 5.865 18.135.9 12 .9S.9 5.865.9 12c0 6.08 4.923 11.1 11.1 11.1 6.152 0 11.1-4.992 11.1-11.1zM12 2.39c5.3 0 9.61 4.31 9.61 9.61 0 1.896-.55 3.72-1.575 5.276-4.36-4.587-11.701-4.595-16.07 0A9.567 9.567 0 012.39 12c0-5.3 4.312-9.61 9.611-9.61zM4.89 18.466c3.808-4.194 10.413-4.193 14.22 0a9.601 9.601 0 01-14.22 0zM12 13.1c2.257 0 4.1-1.772 4.1-3.957V7.857C16.1 5.672 14.257 3.9 12 3.9c-2.257 0-4.1 1.772-4.1 3.957v1.286c0 2.185 1.843 3.957 4.1 3.957zM9.433 7.857c0-1.36 1.148-2.471 2.567-2.471 1.419 0 2.567 1.112 2.567 2.471v1.286c0 1.36-1.148 2.471-2.567 2.471-1.419 0-2.567-1.112-2.567-2.471V7.857z"/></symbol><symbol viewBox="0 0 24 24" id="icon-arrow"><path fill-rule="evenodd" clip-rule="evenodd" d="M12 3a9 9 0 100 18 9 9 0 000-18zM1 12C1 5.925 5.925 1 12 1s11 4.925 11 11-4.925 11-11 11S1 18.075 1 12z"/><path fill-rule="evenodd" clip-rule="evenodd" d="M12.4 7.2a1 1 0 011.4.2l3 4a1 1 0 010 1.2l-3 4a1 1 0 01-1.6-1.2l2.55-3.4-2.55-3.4a1 1 0 01.2-1.4z"/><path fill-rule="evenodd" clip-rule="evenodd" d="M7 12a1 1 0 011-1h8a1 1 0 110 2H8a1 1 0 01-1-1z"/></symbol><symbol viewBox="0 0 46 46" id="icon-arrow-round"><path d="M23 0C10.316 0 0 10.316 0 23s10.316 23 23 23 23-10.316 23-23S35.684 0 23 0zm12 24H13.414l6.293 6.293a1 1 0 11-1.414 1.414l-8-8a1 1 0 010-1.414l8-8a1 1 0 111.414 1.414L13.414 22H35a1 1 0 110 2z"/></symbol><symbol viewBox="0 0 24 24" id="icon-check"><path fill-rule="evenodd" clip-rule="evenodd" d="M21.648 5.362a1.261 1.261 0 010 1.747l-11.2 11.53a1.176 1.176 0 01-1.697 0l-6.4-6.589a1.261 1.261 0 010-1.747 1.176 1.176 0 011.698 0L9.6 16.018 19.951 5.362a1.176 1.176 0 011.697 0z"/></symbol><symbol viewBox="0 0 10 10" id="icon-check-2"><path fill-rule="evenodd" clip-rule="evenodd" d="M9.64 3.082a1 1 0 00-1.414-1.414L3.683 6.21 1.765 4.293A1 1 0 00.351 5.707l2.62 2.62.005.005a1 1 0 001.414 0h.001l5.25-5.25z"/></symbol><symbol viewBox="0 0 24 24" id="icon-check-success"><path fill-rule="evenodd" clip-rule="evenodd" d="M15.663 3.78A9 9 0 1021 12.004v-.92a1 1 0 112 0v.92a11.003 11.003 0 01-7.881 10.544 11 11 0 111.358-20.597 1 1 0 11-.814 1.827zm7.044-.482a1 1 0 010 1.415l-10 10.01a1 1 0 01-1.414 0l-3-3a1 1 0 111.414-1.414L12 12.6 21.293 3.3a1 1 0 011.414 0z"/></symbol><symbol viewBox="0 0 24 24" id="icon-close"><path fill-rule="evenodd" clip-rule="evenodd" d="M12 3a9 9 0 100 18 9 9 0 000-18zM1 12C1 5.925 5.925 1 12 1s11 4.925 11 11-4.925 11-11 11S1 18.075 1 12z"/><path fill-rule="evenodd" clip-rule="evenodd" d="M15.707 8.293a1 1 0 010 1.414l-6 6a1 1 0 01-1.414-1.414l6-6a1 1 0 011.414 0z"/><path fill-rule="evenodd" clip-rule="evenodd" d="M8.293 8.293a1 1 0 011.414 0l6 6a1 1 0 01-1.414 1.414l-6-6a1 1 0 010-1.414z"/></symbol><symbol viewBox="0 0 24 24" id="icon-dropdown"><path d="M11.337 15.81l-5.13-4.397a1 1 0 111.3-1.519L12 13.744l4.492-3.85a1 1 0 111.301 1.519l-5.13 4.397a.995.995 0 01-1.096.153.994.994 0 01-.23-.153z"/></symbol><symbol viewBox="0 0 24 24" id="icon-error"><path fill-rule="evenodd" clip-rule="evenodd" d="M12 3a9 9 0 100 18 9 9 0 000-18zM1 12C1 5.925 5.925 1 12 1s11 4.925 11 11-4.925 11-11 11S1 18.075 1 12z"/><path fill-rule="evenodd" clip-rule="evenodd" d="M15.707 8.293a1 1 0 010 1.414l-6 6a1 1 0 01-1.414-1.414l6-6a1 1 0 011.414 0z"/><path fill-rule="evenodd" clip-rule="evenodd" d="M8.293 8.293a1 1 0 011.414 0l6 6a1 1 0 01-1.414 1.414l-6-6a1 1 0 010-1.414z"/></symbol><symbol viewBox="0 0 24 24" id="icon-eye"><path fill-rule="evenodd" clip-rule="evenodd" d="M2.14 12a18.68 18.68 0 002.464 3.316C6.397 17.226 8.9 19 12 19c3.1 0 5.605-1.774 7.395-3.684A18.684 18.684 0 0021.86 12a18.681 18.681 0 00-2.464-3.316C17.605 6.774 15.101 5 12 5 8.9 5 6.396 6.774 4.605 8.684A18.678 18.678 0 002.14 12zM23 12l.894-.448-.002-.003-.003-.007-.011-.022a10.615 10.615 0 00-.192-.354 20.675 20.675 0 00-2.831-3.85C18.895 5.226 15.899 3 12 3 8.1 3 5.104 5.226 3.145 7.316a20.674 20.674 0 00-2.831 3.85 12.375 12.375 0 00-.192.354l-.011.022-.003.007-.002.002s0 .002.894.449l-.894-.447a1 1 0 000 .894L1 12l-.894.447.002.004.003.007.011.022a8.267 8.267 0 00.192.354 20.67 20.67 0 002.831 3.85C5.105 18.774 8.1 21 12 21c3.9 0 6.895-2.226 8.855-4.316a20.672 20.672 0 002.831-3.85 11.81 11.81 0 00.192-.354l.011-.022.003-.007.002-.002s0-.002-.894-.449zm0 0l.894.447c.141-.281.14-.613 0-.895L23 12z"/><path fill-rule="evenodd" clip-rule="evenodd" d="M12 10a2 2 0 100 4 2 2 0 000-4zm-4 2a4 4 0 118 0 4 4 0 01-8 0z"/></symbol><symbol viewBox="0 0 24 24" id="icon-hamburger"><path fill-rule="evenodd" clip-rule="evenodd" d="M1 6a1 1 0 011-1h20a1 1 0 110 2H2a1 1 0 01-1-1zm0 6a1 1 0 011-1h20a1 1 0 010 2H2a1 1 0 01-1-1zm1 5a1 1 0 100 2h20a1 1 0 100-2H2z"/></symbol><symbol viewBox="0 0 24 24" id="icon-plus"><path fill-rule="evenodd" clip-rule="evenodd" d="M12 1a1 1 0 011 1v20a1 1 0 11-2 0V2a1 1 0 011-1z"/><path fill-rule="evenodd" clip-rule="evenodd" d="M23 12a1 1 0 01-1 1H2a1 1 0 110-2h20a1 1 0 011 1z"/></symbol><symbol viewBox="0 0 24 24" id="icon-warning"><path fill-rule="evenodd" clip-rule="evenodd" d="M12 3a9 9 0 100 18 9 9 0 000-18zM1 12C1 5.925 5.925 1 12 1s11 4.925 11 11-4.925 11-11 11S1 18.075 1 12z"/><path fill-rule="evenodd" clip-rule="evenodd" d="M12 7a1 1 0 011 1v4a1 1 0 11-2 0V8a1 1 0 011-1zM11 16a1 1 0 011-1h.01a1 1 0 110 2H12a1 1 0 01-1-1z"/></symbol><symbol viewBox="0 0 24 24" id="iocn-arrow-left"><path d="M19.093 8.553a.5.5 0 00-.788.41V11H.5a.5.5 0 00-.5.5v1a.5.5 0 00.5.5h17.805v2.038a.5.5 0 00.788.409l4.325-3.038a.5.5 0 000-.818l-4.325-3.038z"/></symbol></svg>