<svg width="30" height="30" viewBox="0 0 30 30" fill="none" xmlns="http://www.w3.org/2000/svg">
<path fill-rule="evenodd" clip-rule="evenodd" d="M22.9803 8.71906C22.9803 13.1525 19.3843 16.7486 14.9508 16.7486C10.5172 16.7486 6.9212 13.1279 6.9212 8.71906C6.9212 4.31019 10.5173 0.714111 14.9508 0.714111C19.3842 0.714111 22.9803 4.28559 22.9803 8.71906ZM20.8621 8.71906C20.8621 5.4678 18.202 2.80772 14.9508 2.80772C11.6995 2.80772 9.03941 5.46775 9.03941 8.71901C9.03941 11.9703 11.6995 14.6304 14.9508 14.6304C18.202 14.6304 20.8621 11.9703 20.8621 8.71906ZM28.9409 29.2856H1.0591C0.467973 29.2856 0 28.8177 0 28.2265C0 22.66 4.53203 18.1526 10.0739 18.1526H19.9261C25.4926 18.1526 30 22.6846 30 28.2265C30 28.8177 29.532 29.2856 28.9409 29.2856ZM19.9261 20.2708H10.0739C6.0345 20.2708 2.70933 23.3004 2.19211 27.1674H27.8079C27.2906 23.2758 23.9655 20.2708 19.9261 20.2708Z" fill="#BDBDBD"/>
</svg>
