<svg id="exit" viewBox="0 0 20 19" xmlns="http://www.w3.org/2000/svg">
<path d="M13.7364 14.6358C13.8604 14.7599 14.0154 14.8219 14.186 14.8219C14.3565 14.8219 14.5116 14.7599 14.6356 14.6358L18.8216 10.4498C18.8526 10.4188 18.8836 10.3878 18.8992 10.3568C18.8992 10.3568 18.9147 10.3413 18.9147 10.3258C18.9302 10.2947 18.9457 10.2637 18.9612 10.2482C18.9612 10.2327 18.9612 10.2172 18.9767 10.2172C18.9922 10.1862 18.9922 10.1707 19.0077 10.1397C19.0232 10.0932 19.0232 10.0622 19.0232 10.0157C19.0232 9.96916 19.0232 9.93816 19.0077 9.89164C19.0077 9.86064 18.9922 9.82963 18.9767 9.81412C18.9767 9.79862 18.9767 9.78312 18.9612 9.78312C18.9457 9.75211 18.9302 9.7211 18.9147 9.69009C18.9147 9.69009 18.9147 9.67459 18.8992 9.67459C18.8836 9.64358 18.8526 9.61257 18.8216 9.58157L14.6356 5.39552C14.3875 5.14746 13.9844 5.14746 13.7364 5.39552C13.4883 5.64358 13.4883 6.04668 13.7364 6.29474L16.8371 9.39552H5.81388C5.45729 9.39552 5.17822 9.67459 5.17822 10.0312C5.17822 10.3878 5.45729 10.6668 5.81388 10.6668H16.8371L13.7364 13.7676C13.4883 13.9847 13.4883 14.3878 13.7364 14.6358Z" />
<path d="M1.62785 18.9924H9.99994C10.3565 18.9924 10.6356 18.7134 10.6356 18.3568V12.1087C10.6356 11.7521 10.3565 11.473 9.99994 11.473C9.64335 11.473 9.36428 11.7521 9.36428 12.1087V17.7211H2.26351V2.26375H9.36428V7.87615C9.36428 8.23274 9.64335 8.51181 9.99994 8.51181C10.3565 8.51181 10.6356 8.23274 10.6356 7.87615V1.62809C10.6356 1.2715 10.3565 0.992432 9.99994 0.992432H1.62785C1.27126 0.992432 0.992188 1.2715 0.992188 1.62809V18.3568C1.00769 18.7134 1.28676 18.9924 1.62785 18.9924Z" />
</svg>
