<svg id="search" width="25" height="24" viewBox="0 0 25 24" xmlns="http://www.w3.org/2000/svg">
<path fill-rule="evenodd" clip-rule="evenodd" d="M10.1913 0.510254C4.84392 0.510254 0.509766 4.84886 0.509766 10.1999C0.509766 15.5509 4.84392 19.8895 10.1913 19.8895C12.9408 19.8895 15.4224 18.7425 17.1847 16.9006L23.7884 23.5103L24.5098 22.7883L17.8524 16.125C19.1191 14.4868 19.8728 12.4314 19.8728 10.1999C19.8728 4.84886 15.5387 0.510254 10.1913 0.510254ZM1.50977 10.1999C1.50977 5.40032 5.39704 1.51025 10.1913 1.51025C14.9856 1.51025 18.8728 5.40032 18.8728 10.1999C18.8728 14.9994 14.9856 18.8895 10.1913 18.8895C5.39704 18.8895 1.50977 14.9994 1.50977 10.1999Z" />
</svg>
