<svg width="240" height="147" viewBox="0 0 240 147" fill="none" xmlns="http://www.w3.org/2000/svg">
<path d="M234.031 120.505C233.723 119.726 233.347 118.975 232.909 118.26C231.539 115.164 234.209 111.975 236.106 109.196C237.723 106.823 238.866 104.16 239.473 101.354C239.586 101.028 239.63 100.683 239.604 100.339C239.577 99.9958 239.48 99.6614 239.318 99.357C239.152 99.1515 238.944 98.9843 238.708 98.8667C238.471 98.7492 238.212 98.684 237.948 98.6758C236.207 98.5519 234.774 100.046 233.923 101.571C233.071 103.096 232.444 104.838 231.082 105.929C228.442 108.035 223.659 107.245 222.281 110.334C221.429 112.246 222.49 114.839 221.089 116.395C220.581 116.87 219.987 117.243 219.339 117.494C215.608 119.267 212.186 121.937 210.182 125.552C205.715 133.641 213.084 147.366 223.148 142.745C229.379 139.888 227.459 134.594 228.396 129.585C229.015 126.195 234.883 123.973 234.031 120.505Z" fill="#040047"/>
<path d="M219.144 144.053C217.827 144.032 216.53 143.733 215.336 143.177C214.142 142.621 213.079 141.819 212.216 140.825C208.384 136.683 207.339 129.895 209.847 125.343C212.169 121.101 216.218 118.531 219.175 117.122L219.299 117.06C219.856 116.843 220.366 116.519 220.8 116.108C221.489 115.334 221.497 114.235 221.513 113.058C221.452 112.07 221.594 111.079 221.931 110.148C222.797 108.189 224.895 107.663 226.931 107.16C228.327 106.919 229.658 106.392 230.84 105.611C231.765 104.744 232.494 103.688 232.977 102.515C233.17 102.12 233.372 101.741 233.588 101.346C234.138 100.363 235.655 98.095 237.977 98.2499C238.298 98.2579 238.613 98.337 238.9 98.4816C239.186 98.6262 239.437 98.8326 239.634 99.0859C239.83 99.4366 239.95 99.8243 239.987 100.224C240.025 100.624 239.978 101.027 239.851 101.408C239.228 104.261 238.064 106.967 236.421 109.381C236.22 109.683 236.003 109.993 235.787 110.302C234.076 112.749 232.125 115.528 233.255 118.043C233.39 118.326 233.542 118.601 233.712 118.864C234.011 119.324 234.243 119.825 234.401 120.35V120.35C234.927 122.494 233.217 124.151 231.552 125.769C230.314 126.969 229.029 128.207 228.773 129.585C228.567 130.865 228.453 132.159 228.433 133.455C228.286 137.264 228.146 140.856 223.308 143.077C222.007 143.7 220.586 144.033 219.144 144.053V144.053ZM237.722 99.0549C235.957 99.0549 234.703 100.928 234.239 101.756C234.03 102.128 233.836 102.531 233.642 102.894C233.119 104.159 232.326 105.295 231.32 106.223C230.057 107.084 228.624 107.665 227.117 107.926C225.182 108.414 223.355 108.87 222.635 110.488C222.344 111.323 222.223 112.207 222.279 113.089C222.279 114.351 222.279 115.667 221.365 116.65C220.869 117.139 220.279 117.523 219.631 117.78L219.508 117.842C216.651 119.197 212.765 121.713 210.52 125.738C208.198 129.995 209.158 136.389 212.781 140.298C214.004 141.738 215.674 142.726 217.524 143.106C219.375 143.487 221.299 143.237 222.991 142.396C227.396 140.368 227.519 137.163 227.636 133.44C227.653 132.115 227.769 130.792 227.984 129.484C228.286 127.867 229.656 126.535 230.987 125.258C232.536 123.71 234.045 122.309 233.619 120.613C233.481 120.161 233.277 119.73 233.015 119.336C232.835 119.043 232.67 118.741 232.52 118.43C231.22 115.489 233.294 112.524 235.121 109.915C235.338 109.606 235.555 109.304 235.756 109.002C237.339 106.668 238.463 104.054 239.069 101.3C239.26 100.744 239.227 100.136 238.976 99.6045C238.844 99.4447 238.678 99.3156 238.491 99.226C238.304 99.1365 238.1 99.0887 237.892 99.0859L237.722 99.0549Z" fill="#040047"/>
<path d="M18.4458 122.905C15.6745 121.086 15.1404 117.324 13.5381 114.39C11.3474 110.411 7.06666 108.035 2.75498 106.649C2.03507 106.409 1.09842 106.254 0.641711 106.858C0.429629 107.185 0.344304 107.579 0.401742 107.965C0.64171 112.23 5.04628 115.412 5.18562 119.677C5.23981 122.053 3.93933 124.569 5.01532 126.69C6.09131 128.811 8.97092 129.423 9.90757 131.551C10.5578 133.038 10.0392 134.741 10.0469 136.358C10.1398 147.382 30.2739 148.38 34.6862 140.152C36.6756 136.451 35.2048 131.907 32.7355 128.834C28.5709 123.648 23.2374 126.048 18.4458 122.905Z" fill="#040047"/>
<path d="M22.804 145.988C21.2554 145.995 19.7117 145.815 18.2059 145.454C12.8956 144.138 9.69088 140.755 9.69088 136.397C9.69823 135.88 9.73182 135.363 9.79152 134.849C9.98241 133.816 9.91054 132.751 9.58251 131.752C9.0294 130.785 8.2276 129.983 7.26024 129.43C6.19031 128.807 5.29555 127.923 4.6593 126.86C3.92391 125.405 4.21807 123.803 4.49674 122.254C4.68109 121.412 4.77965 120.554 4.79089 119.692C4.74445 117.633 3.6375 115.822 2.46862 113.948C1.29974 112.075 0.14635 110.186 0.0147548 107.988C-0.0428742 107.508 0.0694236 107.023 0.332132 106.618C0.812068 105.998 1.66357 105.882 2.87115 106.285C8.23559 108.058 11.9435 110.728 13.8787 114.25C14.3821 115.219 14.8267 116.216 15.2101 117.238C16.0616 119.39 16.8667 121.426 18.6548 122.595C20.5978 123.872 22.6879 124.213 24.7082 124.538C27.5724 125.002 30.5294 125.482 33.0375 128.61C35.3597 131.466 37.2253 136.25 35.0269 140.345C32.9755 144.161 27.7969 145.988 22.804 145.988ZM1.6326 106.819C1.50473 106.809 1.37621 106.828 1.25683 106.875C1.13745 106.922 1.03035 106.995 0.943664 107.09C0.793975 107.35 0.739245 107.653 0.788845 107.949C0.897218 109.946 1.98094 111.696 3.11112 113.538C4.24129 115.38 5.50306 117.409 5.55724 119.669C5.54733 120.585 5.44357 121.498 5.2476 122.394C4.97667 123.88 4.72122 125.289 5.3405 126.512C5.9242 127.429 6.72092 128.191 7.66277 128.734C8.75522 129.369 9.65429 130.289 10.2637 131.396C10.6502 132.507 10.7435 133.699 10.5346 134.857C10.4882 135.36 10.4418 135.871 10.4418 136.358C10.4882 142.102 16.0229 144.099 18.3994 144.672C24.1122 146.081 31.8299 144.672 34.3534 139.966C36.3738 136.203 34.5856 131.745 32.4414 129.074C30.1191 126.179 27.433 125.746 24.5921 125.289C22.4943 124.948 20.3191 124.592 18.2368 123.222C16.1545 121.852 15.3572 119.677 14.498 117.509C14.1171 116.515 13.675 115.546 13.1743 114.606C11.332 111.27 7.75566 108.716 2.60022 107.013C2.28878 106.901 1.96283 106.836 1.6326 106.819V106.819Z" fill="#040047"/>
<path d="M33.2146 110.38C33.292 108.576 34.3603 106.958 34.608 105.17C35.2118 100.688 30.7917 97.4293 27.8812 93.9459C24.7848 90.2535 23.1592 85.6089 21.3788 81.1889C20.7286 79.5788 20.0009 77.9068 18.6385 76.8308C17.2761 75.7548 15.0777 75.5303 13.9011 76.8308C13.0341 77.7829 12.9799 79.215 13.0651 80.5077C13.2801 83.5985 14.0128 86.6313 15.2325 89.4794C16.324 92.0339 17.8412 94.6658 17.3613 97.4061C16.9665 99.6664 15.3022 101.439 14.0017 103.32C12.7012 105.201 11.6794 107.701 12.7864 109.722C13.4444 110.96 14.7216 111.711 15.8208 112.578C17.9113 114.3 19.4437 116.604 20.2237 119.197C21.0037 121.791 20.9962 124.557 20.2022 127.147C19.637 128.475 19.2191 129.861 18.9559 131.28C18.7237 133.672 20.0396 135.964 21.7039 137.697C27.796 144.03 43.99 145.144 46.5909 134.601C47.7288 129.995 45.6543 124.004 42.4805 120.668C39.539 117.556 32.9979 115.481 33.2146 110.38Z" fill="#040047"/>
<path d="M34.5171 142.845C29.5707 142.845 24.3843 141.003 21.4272 137.922C20.2351 136.683 18.2844 134.168 18.5786 131.203C18.7219 130.18 19.0004 129.18 19.4069 128.23C19.5539 127.843 19.7087 127.456 19.8326 127.054C20.5965 124.539 20.6006 121.854 19.8446 119.337C19.0886 116.819 17.606 114.581 15.5828 112.903L14.8707 112.362C13.8928 111.741 13.0652 110.911 12.4478 109.931C11.1396 107.469 12.6645 104.613 13.6863 103.127C13.965 102.724 14.2669 102.353 14.561 101.919C15.6061 100.51 16.6898 99.0472 16.9839 97.3674C17.3633 95.1845 16.3802 93.0015 15.4358 90.896C15.25 90.478 15.0642 90.0677 14.8862 89.6497C13.6455 86.7505 12.9048 83.662 12.6955 80.5154C12.6026 79.2459 12.6336 77.6436 13.6321 76.5521C14.9945 75.0581 17.4252 75.3755 18.8882 76.5521C20.3512 77.7287 21.0402 79.3234 21.7446 81.0728L22.3252 82.5436C23.8734 86.4527 25.4757 90.5012 28.185 93.7137C28.7966 94.4413 29.501 95.1845 30.1744 95.9044C32.7909 98.6679 35.5002 101.532 34.997 105.24C34.8524 106.08 34.6188 106.903 34.3004 107.694C33.9338 108.559 33.7015 109.475 33.6114 110.411C33.4643 113.716 36.3981 115.713 39.239 117.641C40.5044 118.434 41.6869 119.352 42.7689 120.381C46.2755 124.027 48.0869 130.166 46.98 134.648C46.0356 138.464 43.2179 141.181 39.0455 142.303C37.5657 142.678 36.0436 142.86 34.5171 142.845V142.845ZM16.0705 76.3199C15.7201 76.3084 15.3711 76.3715 15.0469 76.5049C14.7226 76.6384 14.4304 76.8392 14.1895 77.094C13.4154 77.961 13.3767 79.3621 13.4154 80.4767C13.6197 83.5376 14.3394 86.5421 15.5441 89.3633C15.7222 89.7736 15.908 90.1838 16.0937 90.5941C17.0923 92.808 18.1219 95.0993 17.7039 97.5145C17.3787 99.38 16.2408 100.913 15.1416 102.399C14.8475 102.786 14.561 103.181 14.2824 103.583C13.5083 104.659 11.9601 107.4 13.0903 109.583C13.657 110.463 14.4101 111.208 15.2964 111.765C15.5441 111.944 15.7841 112.129 16.0241 112.315C18.1697 114.092 19.7422 116.463 20.5438 119.131C21.3454 121.799 21.3403 124.644 20.5293 127.309C20.3977 127.712 20.2429 128.083 20.0881 128.517C19.7291 129.403 19.4871 130.332 19.3681 131.28C19.105 133.935 20.9163 136.25 22.0078 137.388C25.7157 141.258 33.1237 143.07 38.8597 141.529C41.6155 140.755 45.1299 138.967 46.2446 134.439C47.398 129.794 45.1067 123.888 42.227 120.884C41.1808 119.897 40.0399 119.016 38.821 118.252C35.9492 116.302 32.698 114.095 32.8528 110.357C32.9576 109.34 33.2187 108.345 33.6269 107.407C33.932 106.66 34.1527 105.881 34.2849 105.085C34.7416 101.749 32.1639 99.0239 29.6403 96.3843C28.9591 95.6567 28.247 94.9135 27.62 94.1627C24.8255 90.8496 23.2076 86.7469 21.6362 82.7758L21.0479 81.3128C20.3899 79.6639 19.6933 78.1003 18.4315 77.1095C17.7529 76.5934 16.923 76.3159 16.0705 76.3199V76.3199Z" fill="#040047"/>
<path d="M165.368 146.073H219.678V95.494H165.368V146.073Z" fill="#FFE11B"/>
<path d="M219.679 146.452H165.368C165.266 146.452 165.167 146.412 165.095 146.339C165.022 146.266 164.981 146.168 164.981 146.065V95.4863C164.981 95.3836 165.022 95.2852 165.095 95.2126C165.167 95.14 165.266 95.0992 165.368 95.0992H219.679C219.781 95.0992 219.88 95.14 219.952 95.2126C220.025 95.2852 220.066 95.3836 220.066 95.4863V146.065C220.066 146.168 220.025 146.266 219.952 146.339C219.88 146.412 219.781 146.452 219.679 146.452ZM165.756 145.678H219.292V95.8733H165.756V145.678Z" fill="#040047"/>
<path d="M95.5687 146.065H149.879V71.6753H95.5687V146.065Z" fill="#FFE11B"/>
<path d="M149.878 146.453H95.5599C95.4572 146.453 95.3588 146.412 95.2862 146.339C95.2136 146.267 95.1729 146.168 95.1729 146.066V71.6755C95.1748 71.5735 95.2163 71.4762 95.2884 71.404C95.3606 71.3318 95.4579 71.2904 95.5599 71.2885H149.878C149.98 71.2904 150.077 71.3318 150.149 71.404C150.221 71.4762 150.263 71.5735 150.265 71.6755V146.066C150.265 146.168 150.224 146.267 150.152 146.339C150.079 146.412 149.98 146.453 149.878 146.453ZM95.9469 145.679H149.491V72.0625H95.9469V145.679Z" fill="#040047"/>
<path d="M25.7601 146.065H80.0703L80.0703 33.0947H25.7601L25.7601 146.065Z" fill="#FFE11B"/>
<path d="M80.0708 146.452H25.7606C25.6579 146.452 25.5595 146.412 25.4869 146.339C25.4143 146.267 25.3735 146.168 25.3735 146.065V33.0947C25.3735 32.992 25.4143 32.8936 25.4869 32.821C25.5595 32.7484 25.6579 32.7076 25.7606 32.7076H80.0708C80.1734 32.7076 80.2719 32.7484 80.3444 32.821C80.417 32.8936 80.4578 32.992 80.4578 33.0947V146.065C80.4578 146.116 80.4478 146.167 80.4283 146.214C80.4089 146.26 80.3804 146.303 80.3444 146.339C80.3085 146.375 80.2658 146.404 80.2189 146.423C80.1719 146.442 80.1216 146.452 80.0708 146.452ZM26.1476 145.678H79.6837V33.4817H26.1476V145.678Z" fill="#040047"/>
<path d="M178.752 62.6031V72.6818H171.336L178.752 77.0012V89.0151H215.776V62.6031H178.752Z" fill="white"/>
<path d="M215.777 89.4021H178.752C178.65 89.4001 178.553 89.3587 178.481 89.2866C178.408 89.2144 178.367 89.1171 178.365 89.0151V77.2257L171.143 73.0146C171.07 72.9715 171.013 72.9058 170.982 72.8276C170.95 72.7494 170.944 72.6628 170.966 72.5813C170.988 72.4997 171.036 72.4275 171.103 72.3758C171.17 72.3241 171.252 72.2956 171.336 72.2947H178.365V62.6031C178.367 62.5011 178.408 62.4038 178.481 62.3316C178.553 62.2595 178.65 62.218 178.752 62.2161H215.777C215.879 62.2161 215.978 62.2568 216.05 62.3294C216.123 62.402 216.164 62.5005 216.164 62.6031V89.0151C216.164 89.1177 216.123 89.2162 216.05 89.2888C215.978 89.3613 215.879 89.4021 215.777 89.4021ZM179.139 88.628H215.39V62.9902H179.139V72.6818C179.139 72.7844 179.098 72.8829 179.026 72.9554C178.953 73.028 178.855 73.0688 178.752 73.0688H172.768L178.961 76.6683C179.02 76.7021 179.068 76.7506 179.102 76.809C179.136 76.8674 179.154 76.9337 179.155 77.0012L179.139 88.628Z" fill="#040047"/>
<path d="M188.505 46.8504C188.606 46.5485 188.706 46.2466 188.815 45.9447C188.869 45.7899 188.931 45.6351 188.993 45.4802C189.027 45.3838 189.094 45.3021 189.181 45.2486C189.268 45.1951 189.371 45.173 189.473 45.1861C189.721 45.1861 189.961 45.2712 190.2 45.3099C190.331 45.333 190.463 45.3485 190.595 45.3564C190.693 45.3619 190.789 45.3316 190.866 45.2712C191.145 45.0003 191.416 44.7216 191.679 44.4429C191.725 44.3909 191.756 44.3281 191.771 44.2604C191.786 44.1927 191.784 44.1224 191.764 44.0559C191.702 43.7617 191.633 43.4676 191.571 43.1734C191.552 43.0581 191.552 42.9404 191.571 42.8251C191.573 42.7824 191.584 42.7406 191.602 42.7021C191.621 42.6635 191.647 42.6291 191.679 42.6006C192.13 42.306 192.623 42.0815 193.142 41.9349C193.218 41.9113 193.3 41.9128 193.375 41.9393C193.451 41.9658 193.515 42.0158 193.56 42.082C193.746 42.3374 193.939 42.5929 194.117 42.8561C194.177 42.9548 194.263 43.0348 194.365 43.0868C194.468 43.1388 194.583 43.1608 194.698 43.1502C195.015 43.1502 195.34 43.1502 195.666 43.1038C195.725 43.1006 195.784 43.0828 195.835 43.0517C195.886 43.0206 195.929 42.9774 195.96 42.9257C196.076 42.7554 196.184 42.5851 196.293 42.4148C196.401 42.2445 196.486 42.1129 196.587 41.9736C196.633 41.9005 196.702 41.8454 196.784 41.8172C196.866 41.7891 196.954 41.7896 197.036 41.8188C197.485 41.9736 197.934 42.1284 198.375 42.2987C198.458 42.3327 198.528 42.3943 198.571 42.4731C198.615 42.552 198.63 42.6434 198.615 42.7322C198.615 42.9799 198.537 43.2276 198.491 43.5063C198.491 43.6224 198.491 43.7385 198.452 43.8546C198.441 43.9298 198.449 44.0066 198.475 44.0781C198.5 44.1496 198.543 44.2138 198.599 44.2649C198.832 44.4894 199.072 44.7061 199.304 44.9384C199.368 45.0088 199.45 45.0599 199.542 45.0859C199.634 45.1119 199.731 45.1117 199.822 45.0854L200.782 44.8687C200.887 44.8337 201.001 44.8407 201.101 44.8884C201.201 44.936 201.278 45.0206 201.316 45.1241C201.502 45.5034 201.68 45.8982 201.843 46.2775C201.876 46.3299 201.898 46.3886 201.908 46.4498C201.918 46.511 201.915 46.5736 201.9 46.6337C201.884 46.6938 201.857 46.7502 201.819 46.7994C201.782 46.8487 201.734 46.8897 201.68 46.92C201.518 47.0439 201.34 47.16 201.169 47.2839L200.813 47.5703C200.767 47.6106 200.729 47.6605 200.704 47.7167C200.679 47.7728 200.666 47.8338 200.666 47.8954C200.666 48.236 200.666 48.5689 200.666 48.9017C200.668 48.9937 200.694 49.0836 200.742 49.1623C200.789 49.2411 200.857 49.3061 200.937 49.3507L201.487 49.6758C201.595 49.7455 201.711 49.8151 201.812 49.8925C201.891 49.9409 201.949 50.0163 201.976 50.1047C202.003 50.1931 201.997 50.2883 201.959 50.3725C201.812 50.7827 201.665 51.1466 201.51 51.5801C201.484 51.6436 201.451 51.7035 201.409 51.7581C201.374 51.8229 201.319 51.8745 201.252 51.9052C201.185 51.9359 201.11 51.944 201.038 51.9284L200.163 51.7891H200.101C199.98 51.7576 199.852 51.7629 199.733 51.8042C199.615 51.8456 199.511 51.9211 199.435 52.0213C199.273 52.2148 199.087 52.3929 198.909 52.5786C198.827 52.6585 198.769 52.759 198.74 52.8695C198.712 52.98 198.714 53.0962 198.746 53.2056C198.816 53.4921 198.886 53.7707 198.948 54.0571C198.971 54.1122 198.982 54.1716 198.98 54.2313C198.978 54.2909 198.963 54.3495 198.937 54.4031C198.91 54.4566 198.873 54.5039 198.827 54.5417C198.78 54.5795 198.727 54.6069 198.669 54.6222C198.282 54.808 197.895 54.9861 197.477 55.1564C197.387 55.2056 197.281 55.2186 197.182 55.1927C197.083 55.1668 196.997 55.1039 196.943 55.017C196.788 54.8235 196.649 54.6145 196.502 54.4132C196.192 53.972 196.115 53.9333 195.573 53.9643H194.946C194.845 53.9644 194.747 53.9909 194.66 54.0412C194.573 54.0914 194.5 54.1637 194.45 54.2507C194.326 54.4597 194.203 54.6764 194.071 54.8777C193.999 54.9848 193.919 55.0858 193.831 55.1796C193.792 55.2279 193.739 55.2623 193.679 55.2776C193.619 55.293 193.555 55.2884 193.498 55.2647L192.229 54.7925C192.172 54.7662 192.118 54.7351 192.066 54.6996C191.999 54.6643 191.946 54.6082 191.914 54.5398C191.881 54.4713 191.872 54.3943 191.888 54.3203L192.027 53.4611C192.035 53.3736 192.035 53.2855 192.027 53.1979C192.034 53.1264 192.025 53.0543 191.999 52.9871C191.974 52.9199 191.933 52.8596 191.88 52.8109L191.199 52.1684C191.134 52.1054 191.052 52.0613 190.964 52.0408C190.875 52.0204 190.782 52.0243 190.696 52.0523L189.844 52.2458C189.473 52.3154 189.357 52.2458 189.194 51.9207C189.032 51.5955 188.854 51.1466 188.699 50.7673C188.673 50.7233 188.656 50.6745 188.65 50.6239C188.643 50.5733 188.647 50.5219 188.66 50.4728C188.674 50.4236 188.698 50.3778 188.729 50.3379C188.761 50.2981 188.801 50.2651 188.846 50.2409C189.078 50.0706 189.303 49.9003 189.542 49.7455C189.659 49.6814 189.754 49.5836 189.815 49.4649C189.876 49.3463 189.9 49.2121 189.883 49.0797C189.883 48.7779 189.883 48.476 189.837 48.1741C189.835 48.1106 189.818 48.0485 189.787 47.9931C189.756 47.9378 189.712 47.8909 189.659 47.8567L188.885 47.3768C188.706 47.2951 188.564 47.1484 188.49 46.9665L188.505 46.8504ZM198.096 48.5301C198.097 48.1524 198.023 47.7782 197.879 47.4293C197.734 47.0803 197.522 46.7635 197.254 46.4971C196.986 46.2307 196.668 46.0201 196.319 45.8775C195.969 45.7348 195.594 45.6629 195.217 45.666C194.466 45.6879 193.753 45.9989 193.227 46.5341C192.7 47.0693 192.401 47.7872 192.391 48.5379C192.397 49.2902 192.698 50.0101 193.229 50.5428C193.761 51.0755 194.48 51.3785 195.232 51.3865C195.609 51.3917 195.983 51.3214 196.332 51.1798C196.682 51.0382 196.999 50.8281 197.266 50.562C197.533 50.2958 197.744 49.9789 197.887 49.6299C198.029 49.281 198.1 48.9071 198.096 48.5301Z" fill="white"/>
<path d="M90.8397 18.5651L84.1206 15.5384V0.7146H49.124V23.3413H84.1206V18.5651H90.8397Z" fill="white"/>
<path d="M84.1195 23.7282H49.1229C49.0202 23.7282 48.9218 23.6874 48.8492 23.6148C48.7766 23.5422 48.7358 23.4438 48.7358 23.3411V0.706747C48.7378 0.604717 48.7792 0.507419 48.8514 0.435259C48.9236 0.363099 49.0209 0.321684 49.1229 0.319702H84.1195C84.2222 0.319702 84.3206 0.36048 84.3932 0.433065C84.4658 0.50565 84.5065 0.604097 84.5065 0.706747V15.2829L91.0012 18.2089C91.1038 18.2305 91.1937 18.2919 91.251 18.3798C91.3084 18.4676 91.3285 18.5746 91.3069 18.6773C91.2854 18.7799 91.2239 18.8698 91.1361 18.9271C91.0483 18.9845 90.9413 19.0046 90.8386 18.983H84.5065V23.3721C84.4987 23.4693 84.4546 23.56 84.3828 23.626C84.311 23.692 84.217 23.7285 84.1195 23.7282V23.7282ZM49.5099 22.9541H83.7325V18.565C83.7325 18.4624 83.7732 18.3639 83.8458 18.2913C83.9184 18.2187 84.0169 18.178 84.1195 18.178H89.035L83.9647 15.8557C83.8967 15.826 83.8386 15.7774 83.7974 15.7156C83.7562 15.6539 83.7337 15.5816 83.7325 15.5074V1.09379H49.5099V22.9541Z" fill="#040047"/>
<path d="M67.1971 6.82203L72.4145 12.0704C72.4412 12.0987 72.4736 12.121 72.5097 12.1357C72.5458 12.1504 72.5846 12.1572 72.6235 12.1555H80.6276C80.5949 13.4018 80.2617 14.6217 79.6563 15.7116C79.051 16.8014 78.1913 17.7289 77.1505 18.4152C76.1097 19.1015 74.9185 19.5262 73.6783 19.6533C72.4381 19.7803 71.1856 19.606 70.0272 19.145C68.8689 18.6841 67.839 17.9502 67.0252 17.0057C66.2114 16.0613 65.6377 14.9343 65.353 13.7205C65.0683 12.5068 65.0809 11.2422 65.3899 10.0344C65.6988 8.82662 66.2949 7.71129 67.1274 6.78333L67.1971 6.82203Z" fill="#C4C4C4"/>
<path d="M73.1899 4.13611V11.5829H73.2674H80.4741C80.6367 11.5829 80.6367 11.5829 80.6289 11.4203C80.5165 9.56416 79.7397 7.81051 78.4406 6.48007C77.1414 5.14964 75.4067 4.33133 73.5538 4.17481L73.1899 4.13611Z" fill="#D1D3D4"/>
<path d="M72.64 11.4822V4.1438C71.7736 4.18854 70.9194 4.36877 70.1088 4.67792C69.1381 5.05811 68.2536 5.62933 67.5078 6.3577L72.64 11.4822Z" fill="#D1D3D4"/>
<path d="M61.8721 8.07621H52.9159C52.8132 8.07621 52.7148 8.03544 52.6422 7.96285C52.5696 7.89027 52.5288 7.79182 52.5288 7.68917C52.5288 7.58652 52.5696 7.48808 52.6422 7.41549C52.7148 7.34291 52.8132 7.30212 52.9159 7.30212H61.8721C61.9747 7.30212 62.0732 7.34291 62.1458 7.41549C62.2183 7.48808 62.2591 7.58652 62.2591 7.68917C62.2591 7.79182 62.2183 7.89027 62.1458 7.96285C62.0732 8.03544 61.9747 8.07621 61.8721 8.07621Z" fill="#D1D3D4"/>
<path d="M61.8721 11.8459H52.9159C52.8132 11.8459 52.7148 11.8051 52.6422 11.7325C52.5696 11.6599 52.5288 11.5615 52.5288 11.4588C52.5288 11.3562 52.5696 11.2577 52.6422 11.1851C52.7148 11.1126 52.8132 11.0718 52.9159 11.0718H61.8721C61.9747 11.0718 62.0732 11.1126 62.1458 11.1851C62.2183 11.2577 62.2591 11.3562 62.2591 11.4588C62.2591 11.5615 62.2183 11.6599 62.1458 11.7325C62.0732 11.8051 61.9747 11.8459 61.8721 11.8459Z" fill="#D1D3D4"/>
<path d="M58.8453 15.6159H52.9544C52.8518 15.6159 52.7533 15.5751 52.6807 15.5025C52.6082 15.4299 52.5674 15.3315 52.5674 15.2288C52.5674 15.1262 52.6082 15.0277 52.6807 14.9552C52.7533 14.8826 52.8518 14.8418 52.9544 14.8418H58.8453C58.9479 14.8418 59.0464 14.8826 59.1189 14.9552C59.1915 15.0277 59.2323 15.1262 59.2323 15.2288C59.2323 15.3315 59.1915 15.4299 59.1189 15.5025C59.0464 15.5751 58.9479 15.6159 58.8453 15.6159Z" fill="#D1D3D4"/>
<path d="M189.38 73.688H186.508V85.4H189.38V73.688Z" fill="#FFE11B"/>
<path d="M194.676 78.5261H191.804V85.4H194.676V78.5261Z" fill="#FFE11B"/>
<path d="M199.97 75.3756H197.098V85.4001H199.97V75.3756Z" fill="#FFE11B"/>
<path d="M205.273 81.0959H202.401V85.3999H205.273V81.0959Z" fill="#FFE11B"/>
<path d="M210.567 75.3756H207.695V85.4001H210.567V75.3756Z" fill="#FFE11B"/>
<path d="M210.497 66.5896H205.636C205.539 66.5875 205.446 66.5475 205.378 66.478C205.31 66.4086 205.272 66.3152 205.272 66.218C205.271 66.1696 205.28 66.1214 205.297 66.0764C205.315 66.0313 205.342 65.9903 205.376 65.9557C205.41 65.9211 205.45 65.8936 205.495 65.8749C205.539 65.8561 205.587 65.8464 205.636 65.8464H210.497C210.596 65.8464 210.69 65.8856 210.76 65.9553C210.83 66.025 210.869 66.1195 210.869 66.218C210.867 66.3159 210.827 66.4093 210.758 66.4785C210.688 66.5478 210.595 66.5876 210.497 66.5896V66.5896Z" fill="#D1D3D4"/>
<path d="M208.81 68.3933H205.636C205.539 68.3912 205.446 68.3512 205.378 68.2817C205.31 68.2123 205.272 68.1189 205.272 68.0217C205.271 67.9733 205.28 67.9251 205.297 67.8801C205.315 67.8351 205.342 67.794 205.376 67.7594C205.41 67.7248 205.45 67.6973 205.495 67.6786C205.539 67.6598 205.587 67.6501 205.636 67.6501H208.81C208.908 67.6501 209.003 67.6893 209.072 67.759C209.142 67.8286 209.181 67.9232 209.181 68.0217C209.179 68.1196 209.139 68.213 209.07 68.2822C209.001 68.3515 208.908 68.3913 208.81 68.3933Z" fill="#D1D3D4"/>
<path d="M204.189 75.7936C202.556 75.7936 201.186 74.0364 200.079 72.6276C199.498 71.8535 198.778 70.9633 198.438 70.9633C197.783 71.0953 197.161 71.3586 196.611 71.7374C195.597 72.3257 194.459 72.9914 193.321 72.9295C191.301 72.8211 187.74 68.6797 187.345 68.2075C187.313 68.1711 187.289 68.1288 187.273 68.0828C187.258 68.0369 187.252 67.9884 187.255 67.94C187.259 67.8917 187.272 67.8446 187.294 67.8015C187.316 67.7584 187.347 67.7201 187.384 67.6889C187.46 67.6266 187.558 67.5967 187.656 67.6054C187.755 67.614 187.846 67.6606 187.91 67.7353C188.932 68.9429 191.92 72.1089 193.329 72.1941C194.365 72.0831 195.355 71.7042 196.201 71.0949C196.851 70.6371 197.593 70.3279 198.376 70.1892C199.049 70.1892 199.762 71.0407 200.629 72.1399C201.65 73.4481 202.951 75.0814 204.22 75.0195C205.335 74.9653 205.861 73.9977 206.481 72.8753C207.1 71.7528 207.735 70.553 209.058 70.3363C209.155 70.3201 209.253 70.3417 209.334 70.3965C209.415 70.4513 209.471 70.535 209.492 70.6304C209.51 70.7269 209.489 70.8266 209.434 70.9078C209.379 70.989 209.294 71.0452 209.198 71.0639C208.215 71.2497 207.688 72.2095 207.131 73.2313C206.496 74.3847 205.784 75.6852 204.259 75.7549L204.189 75.7936Z" fill="#D1D3D4"/>
<path d="M213.021 85.7716H184.186C184.083 85.7716 183.985 85.7309 183.912 85.6583C183.84 85.5857 183.799 85.4873 183.799 85.3846C183.799 85.282 183.84 85.1835 183.912 85.1109C183.985 85.0383 184.083 84.9976 184.186 84.9976H213.021C213.123 84.9976 213.222 85.0383 213.294 85.1109C213.367 85.1835 213.408 85.282 213.408 85.3846C213.408 85.4873 213.367 85.5857 213.294 85.6583C213.222 85.7309 213.123 85.7716 213.021 85.7716Z" fill="#D1D3D4"/>
<path d="M187.692 68.8343C187.524 68.8343 187.359 68.7844 187.219 68.6908C187.079 68.5973 186.97 68.4643 186.906 68.3087C186.841 68.1531 186.824 67.9819 186.857 67.8167C186.89 67.6515 186.971 67.4998 187.09 67.3807C187.209 67.2617 187.361 67.1806 187.526 67.1477C187.691 67.1149 187.863 67.1317 188.018 67.1962C188.174 67.2606 188.307 67.3697 188.4 67.5098C188.494 67.6498 188.544 67.8144 188.544 67.9828C188.545 68.095 188.524 68.2061 188.481 68.3099C188.439 68.4137 188.376 68.508 188.297 68.5872C188.217 68.6665 188.123 68.7292 188.019 68.7716C187.916 68.8141 187.804 68.8354 187.692 68.8343V68.8343ZM187.692 67.8745C187.664 67.8745 187.636 67.8859 187.616 67.9062C187.595 67.9265 187.584 67.9541 187.584 67.9828C187.584 68.1067 187.808 68.1067 187.808 67.9828C187.806 67.9534 187.793 67.9258 187.772 67.9057C187.75 67.8856 187.722 67.8744 187.692 67.8745V67.8745Z" fill="#D1D3D4"/>
<path d="M209.166 71.5825C208.94 71.5825 208.724 71.4928 208.564 71.3331C208.404 71.1734 208.314 70.9569 208.314 70.731C208.314 70.5052 208.404 70.2886 208.564 70.1289C208.724 69.9692 208.94 69.8795 209.166 69.8795C209.392 69.8795 209.608 69.9692 209.768 70.1289C209.928 70.2886 210.017 70.5052 210.017 70.731C210.017 70.9569 209.928 71.1734 209.768 71.3331C209.608 71.4928 209.392 71.5825 209.166 71.5825V71.5825ZM209.166 70.6226C209.137 70.6226 209.11 70.6341 209.089 70.6544C209.069 70.6747 209.058 70.7023 209.058 70.731C209.058 70.8549 209.274 70.8549 209.274 70.731C209.274 70.7023 209.263 70.6747 209.243 70.6544C209.222 70.6341 209.195 70.6226 209.166 70.6226V70.6226Z" fill="#D1D3D4"/>
<path d="M197.2 53.1666V51.5391C196.635 51.3787 196.07 51.2584 195.505 51.0692C194.44 50.7253 193.522 50.0265 192.899 49.0865C192.386 48.2651 192.125 47.308 192.147 46.336H195.273C195.296 46.8859 195.495 47.4133 195.841 47.8375C196.187 48.2618 196.66 48.5595 197.189 48.6854V44.3762C196.562 44.1928 195.94 44.0209 195.318 43.8031C194.637 43.607 194.013 43.2473 193.498 42.7545C192.967 42.2158 192.613 41.523 192.486 40.7718C192.303 39.85 192.371 38.8949 192.684 38.0097C192.912 37.372 193.277 36.7935 193.752 36.3158C194.227 35.8382 194.8 35.4734 195.431 35.2477C195.951 35.08 196.479 34.9422 197.014 34.8351L197.2 34.795V32.6461H200.128V32.8524C200.128 33.4713 200.128 34.0844 200.128 34.6976C200.128 34.8523 200.179 34.8982 200.32 34.9325C201.322 35.1253 202.26 35.5685 203.05 36.2219C203.88 36.9188 204.431 37.8989 204.599 38.9782C204.649 39.2704 204.672 39.5512 204.712 39.8836H201.53C201.521 39.4434 201.387 39.0152 201.142 38.6517C200.897 38.2883 200.552 38.0054 200.151 37.8378V41.8491L200.495 41.9293C201.354 42.1002 202.19 42.3713 202.988 42.7373C203.587 43.0018 204.105 43.4259 204.486 43.9647C204.867 44.5034 205.098 45.1367 205.152 45.7973C205.333 47.0268 205.038 48.2796 204.327 49.2928C203.742 50.1208 202.916 50.7421 201.965 51.0692C201.4 51.2755 200.767 51.4073 200.134 51.585V53.1608L197.2 53.1666ZM200.139 44.9951V48.737C200.614 48.6673 201.061 48.4694 201.434 48.164C202.112 47.5909 202.355 46.187 201.36 45.5738C200.964 45.3583 200.556 45.1651 200.139 44.9951V44.9951ZM197.189 41.1672V37.557C196.801 37.7254 196.424 37.9167 196.059 38.1301C195.85 38.2798 195.682 38.4798 195.569 38.712C195.456 38.9442 195.401 39.2013 195.411 39.4601C195.421 39.7189 195.494 39.9712 195.623 40.1942C195.753 40.4172 195.936 40.6039 196.155 40.7374C196.488 40.9093 196.833 41.0182 197.189 41.1672V41.1672Z" fill="#FFE11B"/>
<path d="M200.068 53.1666H197.262C197.191 53.1651 197.123 53.1353 197.072 53.0833C197.022 53.0314 196.993 52.9613 196.991 52.8878V51.522L196.671 51.4384C196.287 51.3381 195.918 51.2377 195.55 51.1095C194.473 50.7527 193.544 50.0342 192.911 49.0692C192.389 48.2264 192.123 47.2422 192.148 46.2428C192.146 46.2058 192.152 46.1688 192.165 46.1343C192.178 46.0998 192.198 46.0684 192.224 46.0422C192.249 46.016 192.279 45.9955 192.313 45.9821C192.347 45.9686 192.382 45.9625 192.418 45.9641H195.415C195.481 45.9622 195.545 45.9857 195.595 46.03C195.645 46.0743 195.677 46.1363 195.685 46.2038C195.697 46.6205 195.825 47.0249 196.055 47.3682C196.284 47.7115 196.606 47.9789 196.98 48.1382V44.5481L196.639 44.4477C196.216 44.3195 195.794 44.1969 195.377 44.0631C194.681 43.8494 194.046 43.467 193.524 42.9481C192.969 42.3825 192.603 41.6506 192.478 40.8576C192.292 39.9107 192.361 38.9293 192.679 38.0201C192.912 37.3643 193.283 36.7695 193.765 36.2781C194.247 35.7866 194.829 35.4107 195.469 35.177C195.822 35.0481 196.184 34.9456 196.552 34.8704L196.997 34.7701V32.9249C196.997 32.8509 197.025 32.78 197.076 32.7278C197.127 32.6755 197.196 32.6461 197.267 32.6461H200.074C200.146 32.6461 200.215 32.6755 200.265 32.7278C200.316 32.78 200.345 32.8509 200.345 32.9249V33.6273C200.345 34.0454 200.345 34.4635 200.345 34.8816C201.34 35.0798 202.271 35.53 203.054 36.1916C203.899 36.9097 204.46 37.9208 204.63 39.0347C204.668 39.2354 204.69 39.4417 204.712 39.6479L204.744 39.9322C204.748 39.9714 204.744 40.0109 204.732 40.0483C204.72 40.0857 204.701 40.1202 204.675 40.1495C204.65 40.1788 204.619 40.2024 204.584 40.2188C204.549 40.2351 204.511 40.2438 204.473 40.2444H201.412C201.343 40.2433 201.278 40.2158 201.227 40.1673C201.177 40.1189 201.147 40.0529 201.141 39.9824C201.138 39.6824 201.066 39.3873 200.93 39.1217C200.795 38.8561 200.6 38.6275 200.361 38.4549V41.6604H200.475C201.32 41.8281 202.142 42.0995 202.924 42.4687C203.541 42.7444 204.074 43.187 204.466 43.7495C204.858 44.3119 205.094 44.9732 205.15 45.663C205.337 46.9284 205.036 48.2187 204.311 49.2587C203.72 50.113 202.882 50.753 201.916 51.0872C201.52 51.2266 201.125 51.3325 200.702 51.444L200.329 51.5555V52.8767C200.33 52.9133 200.324 52.9498 200.312 52.9842C200.3 53.0186 200.281 53.0502 200.257 53.0771C200.233 53.104 200.204 53.1258 200.171 53.1411C200.139 53.1565 200.104 53.1651 200.068 53.1666ZM197.533 52.6091H199.787V51.3548C199.787 51.2938 199.807 51.2345 199.843 51.1862C199.879 51.1378 199.93 51.1031 199.987 51.0872L200.529 50.9311C200.941 50.8252 201.325 50.7193 201.705 50.5855C202.562 50.2867 203.306 49.7194 203.834 48.9632C204.481 48.0366 204.748 46.8851 204.576 45.7578C204.532 45.1614 204.33 44.5889 203.992 44.1024C203.654 43.6159 203.192 43.234 202.658 42.9983C201.912 42.6508 201.128 42.3945 200.323 42.2346L200.085 42.1788L199.993 42.151C199.933 42.1382 199.879 42.1045 199.841 42.0558C199.802 42.0071 199.781 41.9462 199.781 41.8834V37.9811C199.782 37.9339 199.794 37.8876 199.816 37.8459C199.838 37.8043 199.868 37.7685 199.906 37.7414C199.946 37.7194 199.991 37.7079 200.036 37.7079C200.081 37.7079 200.126 37.7194 200.166 37.7414C200.556 37.9069 200.897 38.1765 201.152 38.5224C201.407 38.8683 201.568 39.278 201.618 39.7093H204.121C204.121 39.5197 204.083 39.3357 204.051 39.1518C203.9 38.167 203.405 37.2728 202.658 36.6376C201.934 36.0329 201.076 35.6212 200.161 35.439C200.044 35.4277 199.936 35.3692 199.861 35.2762C199.785 35.1832 199.749 35.0633 199.76 34.9429C199.76 34.5081 199.76 34.0788 199.76 33.6496V33.2259H197.495V35.0377C197.496 35.1022 197.475 35.165 197.435 35.215C197.396 35.265 197.34 35.299 197.278 35.3108H197.213H197.11L196.628 35.4223C196.288 35.4887 195.953 35.5819 195.626 35.701C195.058 35.908 194.541 36.2417 194.113 36.6783C193.685 37.1149 193.356 37.6436 193.15 38.2264C192.863 39.0386 192.803 39.9173 192.977 40.7629C193.081 41.4439 193.394 42.0727 193.87 42.5579C194.328 43.0077 194.886 43.3351 195.496 43.5112C195.908 43.6506 196.325 43.7732 196.747 43.8958L197.289 44.0519C197.345 44.0688 197.395 44.104 197.43 44.1523C197.465 44.2005 197.484 44.2592 197.484 44.3195V48.5117C197.484 48.5536 197.475 48.5951 197.457 48.6328C197.44 48.6705 197.413 48.7034 197.381 48.7291C197.348 48.756 197.309 48.7746 197.268 48.7833C197.226 48.792 197.184 48.7906 197.143 48.7793C196.635 48.6512 196.177 48.369 195.827 47.9693C195.477 47.5697 195.252 47.0711 195.182 46.5383H192.695C192.718 47.3304 192.951 48.1011 193.367 48.7681C193.932 49.6309 194.765 50.2714 195.729 50.5855C196.076 50.7081 196.428 50.8029 196.812 50.9032L197.354 51.0426C197.41 51.0595 197.46 51.0947 197.495 51.1429C197.53 51.1912 197.549 51.2499 197.549 51.3102L197.533 52.6091ZM200.079 48.8573C200.015 48.8582 199.954 48.8343 199.906 48.7904C199.877 48.7638 199.853 48.7313 199.836 48.6949C199.819 48.6585 199.81 48.6189 199.808 48.5786V44.9383C199.809 44.8917 199.82 44.8459 199.842 44.8051C199.864 44.7644 199.896 44.7299 199.934 44.705C199.973 44.68 200.016 44.6653 200.062 44.6623C200.107 44.6592 200.152 44.6679 200.193 44.6875L200.572 44.8547C200.855 44.9669 201.128 45.1011 201.39 45.2561C201.613 45.3943 201.798 45.5866 201.932 45.816C202.065 46.0454 202.141 46.3048 202.154 46.5717C202.177 46.884 202.129 47.1976 202.015 47.4877C201.9 47.7779 201.722 48.0367 201.493 48.2441C201.1 48.5767 200.626 48.7926 200.123 48.8685L200.079 48.8573ZM200.35 45.362V48.2107C200.642 48.1264 200.913 47.9802 201.147 47.7814C201.306 47.6313 201.431 47.4461 201.512 47.2396C201.592 47.0331 201.627 46.8105 201.613 46.5884C201.605 46.4111 201.555 46.2384 201.468 46.0857C201.38 45.933 201.256 45.805 201.109 45.7132C200.868 45.5748 200.618 45.4537 200.361 45.3508L200.35 45.362ZM197.251 41.521C197.217 41.5284 197.182 41.5284 197.148 41.521L196.834 41.3928C196.596 41.298 196.374 41.2088 196.151 41.0974C195.903 40.9654 195.692 40.7679 195.542 40.5251C195.392 40.2822 195.306 40.0026 195.295 39.7148C195.271 39.4004 195.326 39.0848 195.456 38.7987C195.585 38.5126 195.783 38.2655 196.032 38.0814C196.269 37.9238 196.52 37.7876 196.78 37.6745L197.132 37.5017C197.173 37.4791 197.219 37.4681 197.266 37.4698C197.313 37.4714 197.358 37.4857 197.398 37.5111C197.437 37.5366 197.469 37.5723 197.491 37.6146C197.513 37.657 197.524 37.7046 197.522 37.7525V41.2646C197.523 41.31 197.512 41.3547 197.491 41.3947C197.47 41.4347 197.44 41.4686 197.403 41.4932C197.356 41.5183 197.303 41.5281 197.251 41.521V41.521ZM196.98 38.1762C196.757 38.2751 196.541 38.3926 196.336 38.5274C196.169 38.6563 196.037 38.8256 195.95 39.0202C195.863 39.2148 195.824 39.4286 195.837 39.6424C195.841 39.8304 195.893 40.0141 195.988 40.1747C196.083 40.3352 196.218 40.467 196.379 40.5566C196.568 40.654 196.761 40.7414 196.959 40.8186L196.98 38.1762Z" fill="#040047"/>
<path d="M149.584 3.22259C149.584 3.22259 174.185 2.00727 179.162 18.2632V50.775C179.162 50.775 160.05 35.6957 149.584 40.7118V3.22259Z" fill="#D1D3D4"/>
<path d="M179.163 51.1001C179.076 51.099 178.991 51.0691 178.923 51.015C178.729 50.8679 159.865 36.1447 149.755 41.0292C149.699 41.0618 149.635 41.079 149.569 41.079C149.504 41.079 149.44 41.0618 149.384 41.0292C149.327 40.9934 149.281 40.9443 149.249 40.8862C149.216 40.8281 149.199 40.7629 149.198 40.6964V3.22265C149.198 3.12263 149.236 3.02646 149.306 2.9543C149.375 2.88214 149.469 2.83961 149.569 2.8356C149.817 2.8356 174.534 1.79058 179.534 18.1161C179.538 18.1548 179.538 18.1936 179.534 18.2323V50.7441C179.535 50.8166 179.514 50.8877 179.476 50.9493C179.438 51.0109 179.383 51.0605 179.318 51.0924C179.267 51.1038 179.214 51.1064 179.163 51.1001V51.1001ZM154.57 39.2488C158.386 39.2488 163.038 40.6577 168.504 43.4599C172.101 45.345 175.546 47.5088 178.807 49.9313V18.2632C174.271 3.63292 153.068 3.50906 150.003 3.55551V40.0461C151.459 39.4871 153.01 39.2163 154.57 39.2488Z" fill="#040047"/>
<path d="M174.185 41.1452C174.096 41.1453 174.01 41.1145 173.941 41.058C173.871 41.0016 173.824 40.923 173.806 40.8356C172.39 33.9307 169.611 24.1307 167.877 23.9682C166.963 23.8753 166.46 26.0892 166.019 28.0399C165.516 30.2461 165.043 32.3361 163.82 32.816C163.53 32.9135 163.22 32.9348 162.919 32.8779C162.618 32.821 162.336 32.6877 162.102 32.4909C158.286 29.9287 154.268 13.727 154.098 13.038C154.074 12.9375 154.091 12.8318 154.145 12.7435C154.198 12.6553 154.284 12.5915 154.384 12.5658C154.484 12.5426 154.588 12.5596 154.675 12.6133C154.762 12.6669 154.825 12.7528 154.849 12.8522C154.895 13.0148 158.959 29.4565 162.528 31.8484C162.664 31.9695 162.827 32.056 163.003 32.1005C163.18 32.145 163.365 32.1461 163.542 32.1039C164.378 31.7633 164.85 29.6965 165.26 27.8696C165.825 25.3848 166.344 23.0393 167.946 23.2251C170.888 23.5037 173.976 37.8399 174.565 40.7118C174.575 40.7616 174.575 40.8129 174.565 40.8628C174.556 40.9127 174.536 40.9602 174.508 41.0027C174.48 41.0451 174.444 41.0815 174.402 41.11C174.36 41.1384 174.313 41.1583 174.263 41.1685L174.185 41.1452Z" fill="#040047"/>
<path d="M179.162 18.2631C179.162 18.2631 177.474 31.5155 169.223 34.3564V63.1603C169.223 63.1603 175.415 60.3581 179.162 50.7749V18.2631Z" fill="white"/>
<path d="M169.223 63.5241C169.121 63.5241 169.022 63.4833 168.95 63.4107C168.877 63.3382 168.836 63.2397 168.836 63.1371V34.3254C168.838 34.2452 168.864 34.1674 168.911 34.1024C168.958 34.0374 169.024 33.9883 169.1 33.9616C177.026 31.2291 178.76 18.3095 178.776 18.1856C178.78 18.1361 178.793 18.0878 178.816 18.0436C178.839 17.9995 178.871 17.9603 178.909 17.9286C178.947 17.8968 178.991 17.8731 179.039 17.8587C179.087 17.8444 179.137 17.8397 179.186 17.845C179.284 17.8527 179.375 17.8966 179.443 17.9682C179.51 18.0398 179.548 18.1339 179.55 18.2321V50.7439C179.557 50.79 179.557 50.8371 179.55 50.8832C175.811 60.5439 169.665 63.4003 169.409 63.5164C169.349 63.5329 169.285 63.5355 169.223 63.5241V63.5241ZM169.611 34.5964V62.4636C171.159 61.527 175.803 58.268 178.776 50.62V21.9787C177.653 26.1433 175.083 32.545 169.611 34.5964Z" fill="#040047"/>
<path d="M165.214 10.5222C165.139 10.5245 165.066 10.5028 165.005 10.4603C163.642 9.60365 162.111 9.05176 160.515 8.84244C160.464 8.83761 160.415 8.82273 160.369 8.79866C160.324 8.77459 160.284 8.74181 160.252 8.70222C160.22 8.66263 160.195 8.61702 160.181 8.56801C160.166 8.519 160.161 8.46757 160.167 8.41669C160.178 8.3161 160.228 8.22384 160.306 8.15901C160.384 8.09417 160.484 8.06172 160.585 8.06835C162.308 8.28847 163.962 8.88294 165.43 9.81006C165.516 9.86824 165.575 9.95756 165.595 10.0589C165.616 10.1602 165.595 10.2654 165.539 10.3519C165.502 10.404 165.453 10.4467 165.397 10.4763C165.34 10.5059 165.278 10.5216 165.214 10.5222V10.5222Z" fill="#040047"/>
<path d="M164.896 13.0688C164.819 13.0673 164.745 13.046 164.679 13.0069C163.798 12.4266 162.824 12.0024 161.799 11.7529C161.748 11.7448 161.7 11.7267 161.656 11.6997C161.612 11.6728 161.574 11.6374 161.544 11.5957C161.514 11.5541 161.492 11.5068 161.48 11.4567C161.468 11.4067 161.466 11.3547 161.474 11.3039C161.482 11.2531 161.5 11.2044 161.527 11.1605C161.554 11.1167 161.59 11.0786 161.631 11.0484C161.673 11.0182 161.72 10.9965 161.77 10.9846C161.82 10.9726 161.872 10.9707 161.923 10.9788C163.055 11.2431 164.132 11.7042 165.105 12.3412C165.191 12.3967 165.251 12.4841 165.273 12.5843C165.295 12.6844 165.276 12.7891 165.221 12.8753C165.187 12.9322 165.14 12.9798 165.083 13.0136C165.026 13.0474 164.962 13.0664 164.896 13.0688Z" fill="#040047"/>
<path d="M137.028 40.6344L140.852 38.1573C142.06 37.3832 143.43 35.0609 144.429 35.1693C145.427 35.2777 143.283 38.0257 143.283 38.0257C143.283 38.0257 147.324 35.6415 148.485 35.7034C149.646 35.7654 150.033 37.778 149.692 38.3508C149.352 38.9237 146.016 39.9996 144.715 41.0214C142.968 42.1708 141.159 43.2226 139.296 44.172" fill="white"/>
<path d="M139.28 44.5823C139.195 44.581 139.112 44.5514 139.045 44.498C138.978 44.4446 138.93 44.3705 138.91 44.2873C138.89 44.2041 138.897 44.1164 138.932 44.0381C138.967 43.9599 139.027 43.8953 139.102 43.8546C140.942 42.9232 142.727 41.8894 144.451 40.7583C145.386 40.1456 146.379 39.627 147.416 39.2101C148.094 38.9479 148.741 38.6103 149.343 38.2038C149.462 37.7056 149.39 37.1812 149.142 36.733C149.086 36.5854 148.992 36.455 148.869 36.3546C148.747 36.2542 148.601 36.1872 148.445 36.1602C147.671 36.106 144.978 37.5303 143.453 38.4283C143.375 38.4742 143.284 38.4916 143.195 38.4774C143.106 38.4633 143.024 38.4185 142.965 38.3509C142.908 38.2807 142.878 38.1933 142.878 38.1031C142.878 38.013 142.908 37.9256 142.965 37.8554C143.538 37.196 143.986 36.438 144.289 35.6183C143.878 35.6725 143.197 36.3924 142.64 37.0504C142.187 37.612 141.667 38.1163 141.092 38.5521L137.268 41.0292L136.85 40.379C136.85 40.379 139.466 38.676 140.674 37.9019C141.201 37.5037 141.68 37.0437 142.098 36.5317C142.926 35.6106 143.716 34.7436 144.505 34.852C144.625 34.8617 144.74 34.9044 144.837 34.9755C144.934 35.0466 145.01 35.1431 145.055 35.2545C145.124 35.8571 144.954 36.4628 144.583 36.942C145.875 36.2531 147.679 35.3938 148.453 35.3938H148.507C148.8 35.4223 149.08 35.5294 149.317 35.7038C149.554 35.8782 149.74 36.1135 149.854 36.3847C150.048 36.7228 150.163 37.1001 150.191 37.4886C150.219 37.8772 150.16 38.2671 150.017 38.6295C149.785 38.9934 149.08 39.3185 147.764 39.9223C146.782 40.3229 145.841 40.8181 144.954 41.4008C143.194 42.5695 141.366 43.6344 139.482 44.59C139.415 44.6069 139.345 44.6042 139.28 44.5823Z" fill="#040047"/>
<path d="M140.467 24.959C141.727 24.2832 143.059 23.7509 144.438 23.3721C145.986 23.0625 147.96 22.9541 147.604 22.2652C147.248 21.5762 143.578 22.0562 143.563 22.0639C145.243 21.8394 146.83 16.7149 147.333 15.4687C147.425 15.2701 147.47 15.0528 147.464 14.8339C147.455 14.7248 147.407 14.6225 147.329 14.5458C147.251 14.469 147.148 14.4229 147.039 14.4159C146.888 14.4405 146.751 14.5173 146.652 14.6326C143.834 17.2258 141.31 19.9119 138.369 22.3735C138.075 22.6677 140.467 24.959 140.467 24.959Z" fill="white"/>
<path d="M140.466 25.3462C140.366 25.3452 140.269 25.3065 140.195 25.2378C137.951 23.0781 137.951 22.6136 137.958 22.4588C137.966 22.3317 138.018 22.2113 138.105 22.1182C139.909 20.57 141.589 18.9599 143.207 17.3808C144.236 16.3822 145.297 15.3527 146.388 14.3464C146.552 14.1686 146.775 14.056 147.015 14.029C147.227 14.0247 147.432 14.1032 147.587 14.2478C147.741 14.3923 147.833 14.5916 147.843 14.8031C147.867 15.0881 147.814 15.3742 147.689 15.6313C147.619 15.8094 147.526 16.0571 147.418 16.359C146.706 18.3329 145.87 20.3997 144.956 21.5531C146.35 21.4602 147.658 21.5531 147.952 22.1105C148.001 22.2075 148.027 22.315 148.027 22.424C148.027 22.533 148.001 22.6404 147.952 22.7375C147.696 23.2252 146.907 23.38 145.529 23.5967L144.499 23.7748C143.157 24.1478 141.859 24.667 140.629 25.323C140.577 25.3433 140.522 25.3512 140.466 25.3462V25.3462ZM138.787 22.5517C139.315 23.2442 139.9 23.8915 140.536 24.4869C141.749 23.8438 143.032 23.3425 144.36 22.9929C144.708 22.9233 145.072 22.8691 145.421 22.8072C146.03 22.7416 146.63 22.6065 147.209 22.4046C146.018 22.2176 144.804 22.2307 143.617 22.4433C143.514 22.4577 143.41 22.4307 143.327 22.3683C143.245 22.3059 143.19 22.2131 143.176 22.1105C143.161 22.0078 143.188 21.9037 143.251 21.8209C143.313 21.7382 143.406 21.6836 143.509 21.6692C144.716 21.5067 146.148 17.5588 146.69 16.0648C146.806 15.7552 146.899 15.492 146.969 15.2907C147.039 15.1541 147.076 15.003 147.077 14.8495C147.076 14.8328 147.071 14.8166 147.063 14.8019C147.055 14.7872 147.044 14.7744 147.031 14.7644C146.997 14.8098 146.958 14.8513 146.915 14.8882C145.831 15.8868 144.77 16.9163 143.749 17.9072C142.169 19.4708 140.536 21.0577 138.787 22.5517Z" fill="#040047"/>
<path d="M114.272 26.3988C114.272 26.3988 127.122 29.859 129.165 29.5958L137.943 21.8549L142.124 25.3692C142.124 25.3692 138.88 32.2122 135.103 35.9433C131.325 39.6744 109.813 37.9327 109.813 37.9327L114.272 26.3988Z" fill="white"/>
<path d="M120.386 38.7377C114.968 38.7377 110.192 38.3584 109.781 38.3275C109.722 38.3237 109.664 38.3055 109.613 38.2745C109.561 38.2435 109.518 38.2006 109.487 38.1494C109.461 38.0952 109.447 38.0356 109.447 37.9753C109.447 37.9149 109.461 37.8553 109.487 37.8011L113.946 26.2594C113.981 26.17 114.048 26.0967 114.134 26.0538C114.219 26.0109 114.318 26.0014 114.41 26.0272C117.816 26.9406 126.796 29.2242 128.925 29.2242H129.041L137.726 21.5762C137.795 21.5147 137.885 21.4807 137.978 21.4807C138.07 21.4807 138.16 21.5147 138.229 21.5762L142.409 25.0905C142.475 25.1457 142.521 25.2214 142.539 25.3055C142.558 25.3896 142.547 25.4774 142.51 25.555C142.378 25.8336 139.197 32.5218 135.412 36.2374C133.329 38.2501 126.486 38.7377 120.386 38.7377ZM110.362 37.6153C113.652 37.8475 131.541 38.9545 134.831 35.7033C138.121 32.4521 141.024 26.8013 141.643 25.5008L137.951 22.4044L129.436 29.9208C129.377 29.9718 129.304 30.0041 129.227 30.0137C127.291 30.2614 116.609 27.4515 114.519 26.9174L110.362 37.6153Z" fill="#040047"/>
<path d="M133.382 105.441C133.382 105.441 130.719 107.942 130.897 109.312C131.075 110.682 139.033 119.63 139.993 118.756C140.953 117.881 138.321 110.241 138.321 110.241L133.382 105.441Z" fill="#040047"/>
<path d="M139.815 119.181C139.685 119.178 139.556 119.152 139.435 119.104C137.438 118.376 130.704 110.69 130.518 109.335C130.316 107.841 132.84 105.426 133.119 105.163C133.191 105.094 133.286 105.056 133.386 105.056C133.485 105.056 133.581 105.094 133.653 105.163L138.576 109.915C138.621 109.956 138.655 110.006 138.677 110.063C139.489 112.447 141.278 118.082 140.225 119.019C140.114 119.123 139.967 119.182 139.815 119.181V119.181ZM133.382 105.975C132.422 106.935 131.176 108.468 131.284 109.234C131.47 110.612 138.514 118.206 139.76 118.407C140.078 117.796 139.288 114.219 137.98 110.403L133.382 105.975Z" fill="#040047"/>
<path d="M137.292 99.0472L133.383 105.441L138.322 110.194L143.361 102.771L137.292 99.0472Z" fill="white"/>
<path d="M138.321 110.581C138.22 110.582 138.122 110.543 138.05 110.473L133.111 105.735C133.049 105.674 133.009 105.593 132.998 105.506C132.987 105.419 133.005 105.331 133.049 105.255L136.92 98.8615C136.945 98.8168 136.98 98.7779 137.021 98.7473C137.062 98.7166 137.109 98.6949 137.159 98.6834C137.209 98.6714 137.261 98.6692 137.311 98.6772C137.362 98.6852 137.41 98.7031 137.454 98.7299L143.523 102.453C143.567 102.48 143.606 102.516 143.637 102.559C143.668 102.601 143.689 102.65 143.701 102.701C143.712 102.753 143.712 102.806 143.702 102.858C143.691 102.91 143.669 102.96 143.639 103.003L138.638 110.38C138.606 110.426 138.565 110.464 138.517 110.492C138.469 110.52 138.415 110.538 138.359 110.542L138.321 110.581ZM133.877 105.379L138.259 109.59L142.81 102.887L137.392 99.5736L133.877 105.379Z" fill="#040047"/>
<path d="M125.835 58.8333C125.835 58.8333 147.85 67.3483 151.875 71.5516C155.9 75.7549 149.266 101.424 143.275 105.573L135.317 100.061C135.317 100.061 142.284 80.6085 140.837 78.7584C139.389 76.9083 120.919 72.2019 120.919 72.2019L110.337 56.9678L125.835 58.8333Z" fill="#040047"/>
<path d="M143.276 105.96C143.198 105.961 143.122 105.936 143.059 105.89L135.102 100.379C135.032 100.33 134.98 100.26 134.954 100.179C134.927 100.098 134.928 100.01 134.955 99.9298C138.353 90.4704 141.364 80.0512 140.536 79.0294C139.514 77.7444 128.189 74.4855 120.828 72.6044C120.736 72.5818 120.657 72.5267 120.603 72.4496L110.021 57.2387C109.979 57.1775 109.956 57.1054 109.953 57.031C109.951 56.9567 109.97 56.8833 110.009 56.8196C110.047 56.7559 110.103 56.7046 110.17 56.6719C110.236 56.6391 110.311 56.6263 110.385 56.6349L125.867 58.4773H125.96C126.865 58.8256 148.107 67.1006 152.132 71.2885C153.68 72.8366 153.603 76.8387 153.301 79.9041C152.364 89.2396 147.781 102.918 143.477 105.898C143.418 105.938 143.348 105.96 143.276 105.96V105.96ZM135.783 99.9143L143.268 105.101C147.348 101.935 151.644 88.8448 152.558 79.8189C152.968 75.724 152.627 72.8521 151.605 71.8148C147.774 67.836 126.873 59.6461 125.751 59.2049L111.151 57.471L121.168 71.8613C123.622 72.4883 139.677 76.6607 141.147 78.5185C141.403 78.8513 142.386 81.46 135.783 99.9143Z" fill="#040047"/>
<path d="M116.778 114.707L115.3 120.861L120.974 124.484L123.397 116.038L116.778 114.707Z" fill="white"/>
<path d="M120.975 124.863C120.902 124.864 120.829 124.846 120.766 124.809L115.092 121.217C115.025 121.173 114.973 121.109 114.944 121.034C114.915 120.959 114.91 120.877 114.929 120.799L116.408 114.645C116.418 114.596 116.438 114.55 116.466 114.509C116.494 114.469 116.53 114.434 116.572 114.407C116.614 114.38 116.66 114.362 116.709 114.354C116.758 114.346 116.808 114.347 116.857 114.359L123.475 115.69C123.528 115.698 123.579 115.719 123.623 115.75C123.668 115.781 123.704 115.821 123.731 115.868C123.758 115.914 123.775 115.966 123.782 116.019C123.789 116.072 123.784 116.126 123.769 116.178L121.346 124.615C121.332 124.674 121.303 124.728 121.263 124.772C121.222 124.817 121.171 124.851 121.114 124.871L120.975 124.863ZM115.742 120.683L120.75 123.872L122.91 116.333L117.073 115.156L115.742 120.683Z" fill="#040047"/>
<path d="M102.891 61.9528C102.891 61.9528 100.793 71.7528 106.25 72.581C116.066 74.0673 121.036 81.5605 121.09 86.6695C121.175 93.7834 115.06 115.729 115.06 115.729L125.123 119.475C125.123 119.475 136.231 90.7644 134.621 82.8919C133.011 75.0194 120.44 57.494 120.44 57.494L102.891 61.9528Z" fill="#040047"/>
<path d="M125.124 119.863C125.078 119.87 125.031 119.87 124.985 119.863L114.922 116.116C114.832 116.081 114.759 116.014 114.716 115.928C114.673 115.843 114.664 115.744 114.689 115.651C114.751 115.435 120.789 93.6751 120.712 86.6928C120.619 78.828 111.995 73.8661 106.19 72.9836C105.62 72.9054 105.073 72.7077 104.585 72.4036C104.097 72.0994 103.678 71.6957 103.357 71.2187C101.22 68.1223 102.459 62.1541 102.513 61.9296C102.528 61.8587 102.563 61.7935 102.614 61.7414C102.664 61.6894 102.729 61.6527 102.799 61.6355L120.348 57.1767C120.423 57.1572 120.503 57.1608 120.576 57.187C120.649 57.2132 120.712 57.2609 120.758 57.3238C121.269 58.0437 133.391 75.0118 135.001 82.8688C136.612 90.7258 125.937 118.477 125.48 119.669C125.445 119.732 125.393 119.783 125.33 119.817C125.267 119.852 125.196 119.867 125.124 119.863V119.863ZM115.525 115.497L124.9 118.988C126.161 115.659 135.737 90.1684 134.243 82.9694C132.749 75.7704 121.718 59.9557 120.309 57.9353L103.279 62.2702C103.078 63.3849 102.319 68.2539 104.053 70.7852C104.315 71.1768 104.657 71.5075 105.058 71.7546C105.459 72.0018 105.908 72.1596 106.376 72.2173C116.741 73.7655 121.486 81.6302 121.548 86.685C121.548 93.3499 116.323 112.586 115.525 115.497Z" fill="#040047"/>
<path d="M108.032 18.4412C102.946 17.0711 104.34 9.0283 105.338 5.21977C105.476 4.39873 105.875 3.64407 106.476 3.0678C106.786 2.79904 107.191 2.66438 107.6 2.69341C108.009 2.72244 108.39 2.91278 108.659 3.22262C108.543 2.15437 109.588 1.31835 110.594 0.900346C112.503 0.153173 114.623 0.153173 116.532 0.900346C117.848 1.43447 119.04 2.31693 120.402 2.57238C121.765 2.82783 123.545 2.11567 123.684 0.706823C124.313 1.35652 124.78 2.14453 125.049 3.0076C125.318 3.87067 125.381 4.78476 125.233 5.67648C124.9 7.61945 123.684 8.48643 122.392 9.70949C121.099 10.9326 120.774 12.8446 119.226 13.8586C116.385 15.6932 114.898 18.2632 111.314 18.627C110.218 18.7644 109.106 18.7015 108.032 18.4412Z" fill="white"/>
<path d="M110.138 19.0759C109.396 19.0853 108.657 18.9968 107.939 18.8128C102.42 17.3342 104.015 8.74958 104.959 5.12684C105.119 4.22885 105.564 3.40636 106.229 2.78134C106.462 2.59698 106.731 2.46267 107.019 2.38676C107.306 2.31085 107.606 2.29497 107.901 2.34011C108.058 2.36902 108.211 2.41577 108.357 2.47945C108.556 2.03502 108.845 1.63686 109.206 1.31034C109.568 0.983818 109.993 0.736089 110.455 0.582928C112.446 -0.194309 114.657 -0.194309 116.648 0.582928C117.143 0.784192 117.623 1.0319 118.08 1.27187C118.827 1.70422 119.633 2.02745 120.472 2.23174C120.852 2.30078 121.242 2.29392 121.619 2.21155C121.996 2.12918 122.354 1.97292 122.67 1.7518C122.843 1.63188 122.989 1.47686 123.099 1.29682C123.208 1.11678 123.278 0.915747 123.305 0.706782C123.313 0.634292 123.341 0.56551 123.386 0.508355C123.432 0.4512 123.492 0.407999 123.561 0.38373C123.63 0.359461 123.704 0.355111 123.775 0.37118C123.846 0.387249 123.911 0.423083 123.963 0.474556C124.638 1.16703 125.142 2.00804 125.433 2.93019C125.725 3.85234 125.797 4.82999 125.643 5.78482C125.325 7.65037 124.296 8.57154 123.104 9.65526L122.686 10.0423C122.16 10.5723 121.717 11.1776 121.37 11.8382C120.907 12.7587 120.23 13.555 119.396 14.1605C118.556 14.7293 117.757 15.3552 117.004 16.0338C115.394 17.4194 113.907 18.7276 111.314 18.9908C110.924 19.0404 110.531 19.0689 110.138 19.0759V19.0759ZM107.568 3.0755C107.26 3.07434 106.961 3.17505 106.716 3.36191C106.187 3.89512 105.835 4.57927 105.71 5.32036C104.827 8.71862 103.287 16.7614 108.133 18.0619C109.158 18.3096 110.22 18.3725 111.268 18.2477C113.59 18.0077 114.945 16.8311 116.532 15.4687C117.309 14.7645 118.137 14.1177 119.009 13.5335C119.754 12.9888 120.358 12.2752 120.774 11.4512C121.155 10.7225 121.646 10.0568 122.229 9.47723L122.655 9.09018C123.785 8.06838 124.683 7.26333 124.977 5.6687C125.082 4.94186 125.038 4.20132 124.847 3.49207C124.657 2.78281 124.324 2.11963 123.87 1.5428C123.699 1.87657 123.453 2.1656 123.15 2.38656C122.747 2.67041 122.292 2.87134 121.811 2.97765C121.33 3.08397 120.833 3.09355 120.348 3.00583C119.439 2.80432 118.564 2.46772 117.755 2.00725C117.313 1.78277 116.849 1.5428 116.392 1.35702C114.574 0.642908 112.552 0.642908 110.734 1.35702C109.828 1.7131 108.953 2.433 109.046 3.25354C109.057 3.34076 109.037 3.42889 108.99 3.50345C108.944 3.578 108.874 3.63455 108.791 3.66381C108.707 3.69135 108.617 3.69033 108.535 3.66089C108.452 3.63145 108.381 3.57527 108.334 3.50125C108.272 3.40729 108.189 3.32812 108.093 3.26929C107.997 3.21045 107.889 3.17337 107.777 3.16065C107.711 3.12408 107.64 3.0955 107.568 3.0755V3.0755Z" fill="#040047"/>
<path d="M120.572 14.3927C120.572 14.3927 122.073 18.178 121.47 18.7741C120.866 19.3701 119.457 18.5883 119.457 18.5883" fill="white"/>
<path d="M120.834 19.3625C120.291 19.3261 119.762 19.1701 119.286 18.9058C119.241 18.8814 119.202 18.8484 119.17 18.8088C119.138 18.7691 119.114 18.7236 119.1 18.6747C119.085 18.6258 119.081 18.5746 119.086 18.5239C119.092 18.4732 119.107 18.4242 119.131 18.3794C119.156 18.3347 119.189 18.2952 119.228 18.2632C119.268 18.2312 119.314 18.2074 119.362 18.193C119.411 18.1786 119.463 18.174 119.513 18.1794C119.564 18.1849 119.613 18.2002 119.658 18.2246C120.13 18.4878 120.95 18.7432 121.206 18.4723C121.461 18.2014 120.935 16.3126 120.223 14.509C120.203 14.4618 120.193 14.4111 120.193 14.36C120.193 14.3088 120.204 14.2581 120.224 14.2111C120.244 14.1641 120.274 14.1217 120.311 14.0864C120.348 14.0511 120.392 14.0237 120.44 14.0058C120.487 13.987 120.537 13.9776 120.588 13.9783C120.639 13.979 120.689 13.9897 120.736 14.0099C120.783 14.03 120.825 14.0591 120.861 14.0956C120.896 14.1321 120.924 14.1753 120.943 14.2226C121.531 15.7243 122.429 18.3485 121.717 19.0219C121.479 19.2477 121.162 19.3702 120.834 19.3625V19.3625Z" fill="#040047"/>
<path d="M121.029 9.872C122.19 11.3118 121.276 13.6341 120.928 15.2055C120.448 17.4116 119.914 19.6101 119.333 21.7853C118.962 23.1709 115.331 22.4355 114.774 21.8859L114.139 26.5846C114.139 26.5846 112.746 28.9688 110.106 26.9949C107.467 25.0209 107.18 23.0083 107.18 23.0083L108.728 16.6763C108.728 16.6763 111.128 17.1949 113.141 14.6404C115.153 12.0859 116.028 7.67358 116.028 7.67358C116.028 7.67358 119.898 8.4709 121.029 9.872Z" fill="white"/>
<path d="M112.095 28.1638C111.281 28.1267 110.501 27.825 109.874 27.3045C107.141 25.2609 106.777 23.1554 106.777 23.0625C106.766 23.0142 106.766 22.9638 106.777 22.9154L108.387 16.5756C108.411 16.4782 108.473 16.3943 108.558 16.3421C108.644 16.2898 108.747 16.2736 108.844 16.297C108.929 16.297 111.035 16.7227 112.869 14.4004C114.805 11.9466 115.664 7.65036 115.679 7.61166C115.687 7.56128 115.706 7.51319 115.734 7.47051C115.762 7.42783 115.799 7.39153 115.842 7.36395C115.884 7.33648 115.93 7.31755 115.98 7.30825C116.029 7.29895 116.079 7.29946 116.128 7.30977C116.291 7.30977 120.123 8.1303 121.33 9.63204C122.414 10.979 121.918 12.9064 121.516 14.4546C121.438 14.7488 121.369 15.0352 121.307 15.2984C120.827 17.5045 120.285 19.7184 119.704 21.8936C119.63 22.143 119.487 22.3662 119.291 22.5374C119.095 22.7087 118.855 22.8209 118.598 22.8612C117.416 23.068 116.201 22.9475 115.083 22.5129L114.518 26.6465C114.511 26.6978 114.495 26.7475 114.472 26.7936C114.051 27.4638 113.384 27.9419 112.614 28.1251C112.442 28.1536 112.269 28.1666 112.095 28.1638V28.1638ZM107.613 23.0238C108.085 24.5262 109.061 25.8195 110.377 26.6852C110.663 26.94 111 27.1316 111.366 27.2477C111.731 27.3637 112.117 27.4015 112.498 27.3587C113.027 27.2203 113.49 26.8995 113.806 26.453L114.433 21.8085C114.444 21.7375 114.474 21.671 114.521 21.6163C114.567 21.5617 114.628 21.521 114.696 21.4988C114.764 21.4754 114.837 21.4717 114.907 21.4881C114.977 21.5045 115.041 21.5405 115.091 21.5917C116.126 22.103 117.297 22.2737 118.435 22.0794C118.752 21.9943 118.946 21.8549 119 21.6691C119.573 19.5017 120.107 17.2955 120.595 15.0971C120.649 14.8262 120.726 14.5398 120.804 14.2301C121.16 12.8523 121.578 11.1338 120.765 10.0888C119.991 9.13662 117.614 8.41672 116.391 8.12256C116.128 9.27596 115.238 12.6742 113.512 14.8571C113.019 15.5664 112.356 16.1407 111.584 16.5275C110.812 16.9142 109.955 17.1011 109.092 17.071L107.613 23.0238Z" fill="#040047"/>
<path d="M119.628 20.1288C119.383 20.2287 119.12 20.2745 118.856 20.2631C118.592 20.2518 118.333 20.1835 118.098 20.0629C117.863 19.9423 117.656 19.7724 117.493 19.5646C117.329 19.3569 117.213 19.1163 117.151 18.8593" fill="white"/>
<path d="M118.87 20.632C118.515 20.6371 118.165 20.5575 117.848 20.3998C117.577 20.2498 117.342 20.0438 117.158 19.7955C116.974 19.5471 116.845 19.2622 116.78 18.9599C116.753 18.8614 116.767 18.7566 116.818 18.6682C116.869 18.5798 116.952 18.5149 117.05 18.4877C117.15 18.4614 117.256 18.475 117.346 18.5256C117.435 18.5762 117.502 18.6599 117.53 18.7587C117.567 18.9566 117.646 19.1442 117.763 19.3086C117.879 19.473 118.029 19.6102 118.204 19.7108C118.614 19.8839 119.073 19.9031 119.497 19.765C119.594 19.7326 119.7 19.7396 119.793 19.7844C119.886 19.8292 119.957 19.9083 119.992 20.005C120.009 20.0522 120.017 20.1024 120.014 20.1526C120.012 20.2028 119.999 20.252 119.978 20.2974C119.956 20.3427 119.926 20.3834 119.888 20.4169C119.851 20.4504 119.807 20.4762 119.76 20.4926C119.472 20.5838 119.172 20.6308 118.87 20.632V20.632Z" fill="#040047"/>
<path d="M116.035 14.8882C116.092 14.3245 115.99 13.7561 115.741 13.2471C115.6 12.8286 115.399 12.4324 115.145 12.0705C115.016 11.8925 114.849 11.7453 114.657 11.6395C114.464 11.5338 114.25 11.4721 114.031 11.459C113.837 11.4668 113.647 11.5158 113.473 11.6025C113.3 11.6892 113.147 11.8118 113.024 11.9621C112.777 12.2643 112.602 12.6192 112.513 12.9994C112.307 13.8204 112.319 14.6812 112.548 15.4961C112.778 16.311 113.217 17.0515 113.822 17.644L113.721 17.4814" fill="white"/>
<path d="M113.806 18.0541C113.706 18.0531 113.609 18.0144 113.535 17.9457C112.882 17.2998 112.408 16.4945 112.161 15.6093C111.914 14.7241 111.902 13.7897 112.127 12.8986C112.23 12.4619 112.431 12.0542 112.715 11.7065C112.874 11.5145 113.073 11.3585 113.297 11.2491C113.521 11.1396 113.766 11.0792 114.015 11.0718V11.0718C114.295 11.0854 114.567 11.1621 114.813 11.2962C115.058 11.4302 115.27 11.6182 115.432 11.8459C115.711 12.2359 115.928 12.6668 116.075 13.1231C116.353 13.7002 116.463 14.3441 116.392 14.9809C116.372 15.0836 116.313 15.1743 116.227 15.2331C116.14 15.2919 116.034 15.3139 115.931 15.2944C115.829 15.2749 115.738 15.2155 115.679 15.1291C115.62 15.0427 115.598 14.9365 115.618 14.8339C115.659 14.3375 115.562 13.8394 115.339 13.394C115.213 13.0142 115.033 12.6545 114.805 12.3258C114.712 12.1929 114.592 12.0823 114.451 12.002C114.31 11.9217 114.154 11.8736 113.992 11.8614V11.8614C113.854 11.8697 113.719 11.907 113.596 11.9711C113.474 12.0351 113.366 12.1243 113.28 12.2329C113.07 12.4892 112.924 12.7916 112.854 13.1154C112.674 13.8162 112.668 14.5503 112.835 15.2543C113.002 15.9583 113.338 16.611 113.814 17.1561C113.898 17.1851 113.969 17.2426 114.015 17.3187L114.108 17.4812C114.144 17.5395 114.163 17.6062 114.165 17.6744C114.166 17.7426 114.15 17.81 114.117 17.8698C114.084 17.9295 114.035 17.9794 113.977 18.0145C113.918 18.0496 113.851 18.0686 113.783 18.0696L113.806 18.0541Z" fill="#040047"/>
<path d="M114.774 21.8857C113.768 21.3109 112.949 20.4592 112.413 19.4319C112.413 19.4319 111.832 22.8224 114.511 24.4015L114.774 21.8857Z" fill="#040047"/>
<path d="M114.51 24.7887C114.441 24.791 114.373 24.7721 114.316 24.7345C111.436 23.0392 111.994 19.5171 112.032 19.3701C112.048 19.287 112.089 19.2109 112.15 19.1525C112.211 19.0941 112.289 19.0565 112.373 19.0449C112.457 19.0354 112.542 19.0537 112.615 19.0971C112.687 19.1404 112.744 19.2064 112.776 19.2849C113.275 20.2322 114.035 21.0165 114.966 21.5452C115.031 21.5834 115.084 21.6393 115.119 21.7066C115.153 21.7738 115.167 21.8494 115.16 21.9246L114.897 24.4558C114.889 24.5214 114.866 24.5842 114.828 24.6383C114.79 24.6924 114.739 24.7361 114.68 24.7655C114.625 24.7849 114.567 24.7928 114.51 24.7887ZM112.76 20.7092C112.789 21.275 112.931 21.8292 113.177 22.3396C113.423 22.8499 113.768 23.3062 114.192 23.6817L114.362 22.0561C113.768 21.6847 113.228 21.2313 112.76 20.7092V20.7092Z" fill="#040047"/>
<path d="M119.94 12.7003C120.103 12.2866 120.103 11.8992 119.94 11.8349C119.777 11.7707 119.513 12.054 119.35 12.4676C119.187 12.8813 119.187 13.2688 119.35 13.333C119.513 13.3972 119.777 13.114 119.94 12.7003Z" fill="#040047"/>
<path d="M104.966 21.0188C104.966 21.0188 113.094 22.4044 115.803 27.2115C118.513 32.0186 119.14 49.126 120.61 50.4342C122.081 51.7424 125.882 58.5157 125.797 58.8253C125.712 59.135 101.444 63.7099 101.444 63.7099C101.444 63.7099 100.732 58.1596 99.0132 50.86C97.2947 43.5603 98.0998 20.6782 104.966 21.0188Z" fill="white"/>
<path d="M101.483 64.1049C101.403 64.1055 101.324 64.0812 101.259 64.0352C101.216 64.0045 101.18 63.9652 101.154 63.9199C101.127 63.8746 101.11 63.8242 101.104 63.772C101.104 63.7179 100.33 58.1444 98.6732 50.9531C97.3108 45.1552 97.3727 27.5833 101.855 22.2034C102.213 21.7113 102.686 21.3135 103.232 21.0439C103.778 20.7742 104.381 20.6409 104.99 20.6552H105.036C105.377 20.7094 113.373 22.1182 116.175 27.0182C117.724 29.774 118.606 36.2222 119.349 41.9117C119.829 45.5577 120.371 49.6526 120.897 50.1713C122.167 51.3169 126.378 58.2915 126.2 58.9495C126.115 59.2591 126.053 59.4913 101.545 64.1204L101.483 64.1049ZM104.812 21.4061C104.352 21.4301 103.903 21.5591 103.501 21.7831C103.098 22.0072 102.752 22.3204 102.489 22.6988C98.4564 27.5369 97.992 44.4972 99.4627 50.7751C100.91 56.8981 101.653 61.8523 101.855 63.2689C110.586 61.6123 123.204 59.1662 125.387 58.6243C124.76 57.2542 121.702 51.9207 120.425 50.7596C119.713 50.1094 119.295 47.1678 118.621 42.0279C117.917 36.6866 117.073 30.0372 115.525 27.413C112.978 22.962 105.415 21.5222 104.951 21.4371L104.812 21.4061Z" fill="#040047"/>
<path d="M110.794 28.6825C110.957 28.9457 118.396 44.8145 118.396 44.8145L137.856 38.227L141.727 43.9553C141.727 43.9553 124.805 53.7398 118.504 55.0016C112.203 56.2633 100.979 32.971 101.42 30.6487" fill="white"/>
<path d="M118.033 55.4194C116.67 55.4194 115.076 54.5137 113.28 52.7178C107.613 47.036 100.647 32.6456 101.072 30.5401C101.095 30.4405 101.155 30.3534 101.24 30.2971C101.325 30.2409 101.429 30.2197 101.529 30.2382C101.579 30.2484 101.626 30.2682 101.668 30.2967C101.71 30.3252 101.747 30.3616 101.775 30.404C101.803 30.4464 101.822 30.494 101.832 30.5439C101.841 30.5938 101.841 30.6451 101.831 30.6949C101.498 32.336 108.024 46.3625 113.829 52.1914C115.687 54.0492 117.243 54.862 118.474 54.6221C124.101 53.4919 138.701 45.2401 141.178 43.7848L137.718 38.6526L118.544 45.1395C118.453 45.1698 118.354 45.1661 118.266 45.1291C118.177 45.0921 118.106 45.0242 118.064 44.9382C116.028 40.5878 110.694 29.2242 110.485 28.8449C110.436 28.756 110.424 28.6518 110.45 28.5538C110.476 28.4558 110.538 28.3715 110.625 28.3185C110.711 28.2663 110.815 28.2501 110.913 28.2732C111.011 28.2964 111.097 28.3571 111.151 28.4423C111.306 28.6978 117.104 41.0523 118.621 44.2957L137.756 37.8243C137.837 37.7985 137.923 37.7996 138.003 37.8276C138.083 37.8555 138.151 37.9087 138.198 37.9791L142.068 43.6996C142.098 43.7434 142.118 43.7929 142.127 43.8449C142.136 43.8969 142.135 43.9502 142.122 44.0015C142.112 44.0531 142.091 44.1018 142.06 44.1445C142.029 44.1872 141.99 44.2229 141.944 44.2493C141.248 44.6518 124.914 54.0802 118.644 55.342C118.444 55.3901 118.239 55.416 118.033 55.4194V55.4194Z" fill="#040047"/>
<path d="M118.923 55.1177C114.735 55.1177 110.656 51.3014 106.778 43.7541C106.754 43.709 106.74 43.6596 106.735 43.6089C106.731 43.5581 106.737 43.507 106.753 43.4586C106.769 43.4102 106.794 43.3655 106.828 43.3271C106.861 43.2888 106.902 43.2576 106.948 43.2354C107.039 43.1889 107.144 43.1799 107.241 43.2103C107.338 43.2408 107.419 43.3082 107.467 43.398C111.376 51.0073 115.409 54.6842 119.465 54.3204C123.521 53.9566 132.346 48.6463 132.431 48.5921C132.474 48.5604 132.524 48.538 132.576 48.5263C132.628 48.5147 132.682 48.514 132.735 48.5243C132.787 48.5347 132.837 48.5558 132.881 48.5864C132.925 48.617 132.962 48.6564 132.99 48.7021C133.018 48.7478 133.037 48.7988 133.044 48.8519C133.051 48.905 133.047 48.959 133.032 49.0105C133.018 49.062 132.992 49.1099 132.958 49.1512C132.924 49.1924 132.882 49.2261 132.834 49.2501C132.47 49.4746 123.839 54.7152 119.535 55.0945L118.923 55.1177Z" fill="#040047"/>
<path d="M115.3 120.861C115.3 120.861 113.156 126.202 113.303 126.713C113.45 127.224 121.098 139.795 122.383 136.351C123.668 132.906 120.974 124.476 120.974 124.476L115.3 120.861Z" fill="#040047"/>
<path d="M121.663 137.334H121.617C119.016 137.218 113.102 127.332 112.932 126.814C112.761 126.295 113.946 123.207 114.944 120.714C114.967 120.663 115 120.616 115.042 120.578C115.083 120.539 115.131 120.509 115.184 120.489C115.239 120.474 115.296 120.47 115.352 120.478C115.408 120.486 115.461 120.506 115.509 120.536L121.183 124.159C121.259 124.205 121.317 124.276 121.346 124.36C121.454 124.708 124.063 132.952 122.747 136.482C122.686 136.724 122.546 136.938 122.35 137.092C122.154 137.246 121.912 137.331 121.663 137.334V137.334ZM115.471 121.434C114.741 123.126 114.138 124.87 113.667 126.651C113.953 127.363 119.689 136.56 121.656 136.56C121.733 136.56 121.88 136.56 122.012 136.211C123.15 133.161 120.967 125.807 120.634 124.732L115.471 121.434Z" fill="#040047"/>
<path d="M130.921 74.4545C130.854 74.4557 130.788 74.4391 130.729 74.4065C130.671 74.3738 130.622 74.3263 130.588 74.2687L123.961 63.3308C123.924 63.2447 123.92 63.148 123.948 63.0587C123.977 62.9694 124.037 62.8936 124.118 62.8453C124.198 62.7971 124.293 62.7796 124.386 62.7963C124.478 62.813 124.561 62.8627 124.619 62.936L131.246 73.8662C131.273 73.9095 131.292 73.9581 131.3 74.0088C131.309 74.0596 131.307 74.1115 131.295 74.1615C131.282 74.2115 131.26 74.2584 131.229 74.2995C131.198 74.3405 131.159 74.3748 131.114 74.4003C131.056 74.4362 130.989 74.455 130.921 74.4545V74.4545Z" fill="white"/>
</svg>
