<svg width="166" height="116" viewBox="0 0 166 116" fill="none" xmlns="http://www.w3.org/2000/svg">
<path d="M58.1219 32.0305C56.6908 30.6538 55.5154 29.56 54.3781 28.4281C48.8875 22.9865 40.9101 21.354 34.1353 24.3905C27.121 27.5303 22.9963 34.3269 23.5459 42.2281C23.671 44.0565 23.0942 44.6169 21.4237 45.0359C9.79493 47.9472 1.28968 58.4223 0.816264 70.1871C0.201362 86.2943 12.3634 98.9787 28.5141 98.9895C65.6912 99.0113 102.876 99.0113 140.067 98.9895C141.495 98.9843 142.92 98.8807 144.333 98.6794C156.109 97.0469 165.148 86.7078 165.278 74.6982C165.409 62.411 156.642 51.789 144.769 50.0096C142.048 49.6015 139.229 49.6178 136.454 49.4654C141.183 24.7659 124.831 6.7433 108.304 2.30839C99.2986 -0.102245 90.4723 0.256901 81.9072 3.94087C69.3752 9.26821 61.8657 19.0196 58.1219 32.0305Z" fill="#FFE11B"/>
<path d="M72.2974 99.2727H28.5142C24.7273 99.3395 20.9674 98.6241 17.4697 97.1713C13.9719 95.7185 10.8116 93.5597 8.18629 90.8297C5.56103 88.0997 3.52732 84.8574 2.21238 81.3055C0.897445 77.7537 0.329567 73.9687 0.544271 70.1873C0.82013 64.2778 2.9942 58.6148 6.74376 54.0388C10.4933 49.4629 15.6185 46.218 21.3584 44.7859C22.8712 44.4049 23.3882 43.9642 23.2739 42.261C22.7297 34.3053 26.8436 27.3673 34.0265 24.1513C40.9156 21.0713 48.9801 22.6766 54.5686 28.2488C55.3304 29.0052 56.0923 29.7344 56.9738 30.5724L57.9859 31.5301C61.9638 18.1056 69.9575 8.73517 81.7767 3.66903C90.1132 0.0884448 99.0484 -0.461158 108.348 2.03654C117.055 4.37644 125.163 10.2425 130.55 18.122C134.849 24.4233 139.392 34.9093 136.753 49.199C137.526 49.248 138.299 49.2806 139.071 49.3133C140.981 49.3577 142.886 49.5049 144.78 49.7541C156.751 51.5443 165.659 62.2698 165.523 74.7147C165.387 86.8876 156.272 97.3138 144.344 98.9571C142.918 99.1602 141.48 99.2656 140.04 99.2727C118.154 99.2619 95.3263 99.2727 72.2974 99.2727ZM41.2802 23.1391C38.8621 23.1373 36.4713 23.6492 34.266 24.641C27.2952 27.7536 23.3011 34.4903 23.8344 42.212C23.9759 44.2961 23.1596 44.8893 21.5054 45.3028C15.8798 46.7068 10.8569 49.8871 7.18189 54.3718C3.50692 58.8564 1.37578 64.4065 1.10476 70.1982C0.893767 73.9061 1.45028 77.6176 2.73947 81.1006C4.02865 84.5836 6.02278 87.763 8.59706 90.4399C11.1714 93.1169 14.2704 95.2338 17.7003 96.6581C21.1302 98.0824 24.8172 98.7836 28.5305 98.7177C66.0776 98.7177 104.316 98.7177 140.084 98.7177C141.498 98.7124 142.911 98.6087 144.312 98.4075C155.989 96.775 164.892 86.6047 165.022 74.6984C165.153 62.5255 156.436 52.0287 144.742 50.2819C142.868 50.0375 140.982 49.8904 139.093 49.8411C138.212 49.8085 137.33 49.7704 136.454 49.716C136.415 49.7139 136.377 49.703 136.344 49.6841C136.31 49.6653 136.28 49.639 136.258 49.6071C136.233 49.5772 136.216 49.5421 136.206 49.5044C136.197 49.4668 136.196 49.4275 136.204 49.3895C138.925 35.127 134.413 24.6791 130.142 18.4212C124.831 10.6397 116.853 4.86074 108.25 2.5535C99.032 0.10477 90.2112 0.648931 81.9889 4.15333C70.0446 9.27933 62.3447 18.4212 58.3832 32.1015C58.3702 32.1468 58.3459 32.188 58.3126 32.2213C58.2793 32.2547 58.238 32.279 58.1927 32.2919C58.1472 32.3031 58.0996 32.303 58.054 32.2916C58.0085 32.2802 57.9665 32.2579 57.9315 32.2266L56.5983 30.9533C55.7494 30.1479 54.9658 29.3861 54.1823 28.6243C52.4947 26.9063 50.4853 25.5377 48.2687 24.5965C46.0522 23.6554 43.6719 23.1602 41.2639 23.1391H41.2802Z" fill="#040047"/>
<path d="M110.993 67.5918H55.0527V97.9723H110.993V67.5918Z" fill="#D1D3D4"/>
<path d="M110.993 98.2442H55.0528C54.9807 98.2442 54.9115 98.2155 54.8604 98.1645C54.8094 98.1135 54.7808 98.0443 54.7808 97.9721V67.5807C54.7822 67.509 54.8113 67.4406 54.862 67.3898C54.9127 67.3391 54.9811 67.31 55.0528 67.3086H110.993C111.064 67.31 111.133 67.3391 111.183 67.3898C111.234 67.4406 111.263 67.509 111.265 67.5807V97.9612C111.266 97.9978 111.26 98.0344 111.247 98.0687C111.234 98.103 111.214 98.1342 111.189 98.1607C111.164 98.1871 111.133 98.2081 111.099 98.2225C111.066 98.2368 111.029 98.2442 110.993 98.2442ZM55.3249 97.7H110.721V67.8636H55.3249V97.7Z" fill="#040047"/>
<path d="M110.993 52.2407H55.0527V67.4337H110.993V52.2407Z" fill="#040047"/>
<path d="M110.993 67.7059H55.0528C54.9811 67.7045 54.9127 67.6754 54.862 67.6247C54.8113 67.5739 54.7822 67.5055 54.7808 67.4338V52.2408C54.7808 52.1687 54.8094 52.0995 54.8604 52.0484C54.9115 51.9974 54.9807 51.9688 55.0528 51.9688H110.993C111.065 51.9688 111.134 51.9974 111.185 52.0484C111.236 52.0995 111.265 52.1687 111.265 52.2408V67.4338C111.263 67.5055 111.234 67.5739 111.183 67.6247C111.133 67.6754 111.064 67.7045 110.993 67.7059ZM55.3249 67.1617H110.721V52.5129H55.3249V67.1617Z" fill="#040047"/>
<path d="M107.989 55.5547H62.8071V77.2831H107.989V55.5547Z" fill="white"/>
<path d="M107.989 77.5552H62.8234C62.7516 77.5539 62.6832 77.5247 62.6325 77.474C62.5818 77.4233 62.5527 77.3549 62.5513 77.2832V55.5548C62.5513 55.4826 62.5799 55.4134 62.631 55.3624C62.682 55.3114 62.7512 55.2827 62.8234 55.2827H107.989C108.061 55.2827 108.13 55.3114 108.181 55.3624C108.232 55.4134 108.261 55.4826 108.261 55.5548V77.2832C108.261 77.3553 108.232 77.4245 108.181 77.4755C108.13 77.5266 108.061 77.5552 107.989 77.5552ZM63.0791 77.0111H107.7V55.8269H63.0791V77.0111Z" fill="#040047"/>
<path d="M106.008 60.6159V56.9102H87.7353L85.3192 60.6159H60.2334V82.1973H109.001V60.6159H106.008Z" fill="#4F51FF"/>
<path d="M109.001 82.469H60.2335C60.1613 82.469 60.0921 82.4404 60.0411 82.3893C59.9901 82.3383 59.9614 82.2691 59.9614 82.197V60.6155C59.9614 60.5434 59.9901 60.4742 60.0411 60.4231C60.0921 60.3721 60.1613 60.3434 60.2335 60.3434H85.1996L87.5395 56.7629C87.5636 56.7253 87.5965 56.6942 87.6355 56.6724C87.6744 56.6506 87.718 56.6387 87.7626 56.6377H106.036C106.108 56.6377 106.177 56.6664 106.228 56.7174C106.279 56.7684 106.308 56.8376 106.308 56.9098V60.3434H109.028C109.101 60.3434 109.17 60.3721 109.221 60.4231C109.272 60.4742 109.301 60.5434 109.301 60.6155V82.197C109.301 82.2351 109.293 82.2728 109.278 82.3078C109.262 82.3427 109.24 82.374 109.211 82.3996C109.183 82.4253 109.15 82.4447 109.114 82.4567C109.078 82.4686 109.039 82.4729 109.001 82.469ZM60.5056 81.9249H108.729V60.8876H106.008C105.936 60.8876 105.867 60.8589 105.816 60.8079C105.765 60.7569 105.736 60.6877 105.736 60.6155V57.1819H87.8823L85.5425 60.7679C85.5181 60.8048 85.485 60.835 85.446 60.8559C85.4071 60.8768 85.3635 60.8877 85.3193 60.8876H60.5056V81.9249Z" fill="#040047"/>
<path d="M58.1164 84.5693H106.253V62.841L58.1164 62.841V84.5693Z" fill="white"/>
<path d="M106.258 84.8414H58.1217C58.0495 84.8414 57.9803 84.8127 57.9293 84.7617C57.8783 84.7107 57.8496 84.6415 57.8496 84.5693V62.8409C57.8496 62.7688 57.8783 62.6996 57.9293 62.6485C57.9803 62.5975 58.0495 62.5688 58.1217 62.5688H106.258C106.33 62.5688 106.4 62.5975 106.451 62.6485C106.502 62.6996 106.53 62.7688 106.53 62.8409V84.5693C106.53 84.6415 106.502 84.7107 106.451 84.7617C106.4 84.8127 106.33 84.8414 106.258 84.8414ZM58.372 84.2972H105.986V63.113H58.3938L58.372 84.2972Z" fill="#040047"/>
<path d="M60.2337 67.9074V64.2017H79.6984L82.2777 67.9074H109.001V89.4834H57.0449V67.9074H60.2337Z" fill="#4F51FF"/>
<path d="M109.001 89.7551H57.0445C56.9724 89.7551 56.9032 89.7265 56.8522 89.6754C56.8011 89.6244 56.7725 89.5552 56.7725 89.4831V67.9071C56.7725 67.8349 56.8011 67.7657 56.8522 67.7147C56.9032 67.6636 56.9724 67.635 57.0445 67.635H59.9612V64.2013C59.9612 64.1292 59.9899 64.06 60.0409 64.0089C60.092 63.9579 60.1612 63.9292 60.2333 63.9292H79.698C79.7417 63.9285 79.7849 63.9386 79.8238 63.9585C79.8627 63.9784 79.8961 64.0076 79.9211 64.0435L82.4188 67.635H109.001C109.073 67.635 109.142 67.6636 109.193 67.7147C109.244 67.7657 109.273 67.8349 109.273 67.9071V89.4831C109.273 89.5552 109.244 89.6244 109.193 89.6754C109.142 89.7265 109.073 89.7551 109.001 89.7551ZM57.3057 89.211H108.718V68.1791H82.2773C82.2331 68.1792 82.1896 68.1683 82.1506 68.1474C82.1117 68.1266 82.0786 68.0963 82.0542 68.0594L79.5565 64.4734H60.5109V67.9071C60.5109 67.9792 60.4822 68.0484 60.4312 68.0994C60.3801 68.1505 60.3109 68.1791 60.2388 68.1791H57.3221L57.3057 89.211Z" fill="#040047"/>
<path d="M108.686 69.5508H60.5493V91.2791H108.686V69.5508Z" fill="white"/>
<path d="M108.685 91.5568H60.5489C60.4768 91.5568 60.4076 91.5281 60.3566 91.4771C60.3055 91.4261 60.2769 91.3569 60.2769 91.2847V69.5509C60.2769 69.4787 60.3055 69.4095 60.3566 69.3585C60.4076 69.3075 60.4768 69.2788 60.5489 69.2788H108.685C108.758 69.2788 108.827 69.3075 108.878 69.3585C108.929 69.4095 108.958 69.4787 108.958 69.5509V91.2847C108.958 91.3569 108.929 91.4261 108.878 91.4771C108.827 91.5281 108.758 91.5568 108.685 91.5568ZM60.7993 91.0126H108.392V69.823H60.821L60.7993 91.0126Z" fill="#040047"/>
<path d="M107.924 71.3301H59.7871V93.0584H107.924V71.3301Z" fill="white"/>
<path d="M107.923 93.3306H59.7867C59.7146 93.3306 59.6454 93.302 59.5943 93.2509C59.5433 93.1999 59.5146 93.1307 59.5146 93.0586V71.3302C59.5146 71.258 59.5433 71.1888 59.5943 71.1378C59.6454 71.0868 59.7146 71.0581 59.7867 71.0581H107.923C107.995 71.0581 108.065 71.0868 108.116 71.1378C108.167 71.1888 108.195 71.258 108.195 71.3302V93.0586C108.195 93.1307 108.167 93.1999 108.116 93.2509C108.065 93.302 107.995 93.3306 107.923 93.3306ZM60.037 92.7865H107.629V71.6023H60.0588L60.037 92.7865Z" fill="#040047"/>
<path d="M105.813 76.3962V72.6904H86.348L83.7687 76.3962H57.0449V97.9722H109.001V76.3962H105.813Z" fill="#4F51FF"/>
<path d="M109.001 98.2444H57.0445C56.9724 98.2444 56.9032 98.2157 56.8522 98.1647C56.8011 98.1137 56.7725 98.0445 56.7725 97.9723V76.3963C56.7725 76.3241 56.8011 76.2549 56.8522 76.2039C56.9032 76.1529 56.9724 76.1242 57.0445 76.1242H83.6268L86.1245 72.5328C86.1495 72.4969 86.1829 72.4677 86.2218 72.4478C86.2607 72.4278 86.3039 72.4178 86.3476 72.4185H105.812C105.884 72.4185 105.954 72.4472 106.005 72.4982C106.056 72.5492 106.084 72.6184 106.084 72.6906V76.1242H109.001C109.073 76.1242 109.142 76.1529 109.193 76.2039C109.244 76.2549 109.273 76.3241 109.273 76.3963V97.9723C109.273 98.0445 109.244 98.1137 109.193 98.1647C109.142 98.2157 109.073 98.2444 109.001 98.2444ZM57.3057 97.7002H108.718V76.6684H105.801C105.729 76.6684 105.66 76.6397 105.609 76.5887C105.558 76.5377 105.529 76.4685 105.529 76.3963V72.9627H86.4837L83.986 76.5487C83.9616 76.5856 83.9285 76.6158 83.8895 76.6367C83.8506 76.6576 83.8071 76.6685 83.7629 76.6684H57.3166L57.3057 97.7002Z" fill="#040047"/>
<path d="M113.49 86.2183H52.5552V114.819H113.49V86.2183Z" fill="white"/>
<path d="M113.496 115.092H52.5499C52.4778 115.092 52.4086 115.063 52.3575 115.012C52.3065 114.961 52.2778 114.892 52.2778 114.819V86.2184C52.2778 86.1462 52.3065 86.077 52.3575 86.026C52.4086 85.975 52.4778 85.9463 52.5499 85.9463H113.496C113.568 85.9463 113.637 85.975 113.688 86.026C113.739 86.077 113.768 86.1462 113.768 86.2184V114.819C113.768 114.892 113.739 114.961 113.688 115.012C113.637 115.063 113.568 115.092 113.496 115.092ZM52.8329 114.547H113.235V86.4905H52.8329V114.547Z" fill="#040047"/>
<path d="M111.037 112.54H54.9879C54.9157 112.54 54.8465 112.511 54.7955 112.46C54.7445 112.409 54.7158 112.34 54.7158 112.268V88.8033C54.7158 88.7312 54.7445 88.662 54.7955 88.6109C54.8465 88.5599 54.9157 88.5312 54.9879 88.5312H111.037C111.109 88.5312 111.178 88.5599 111.229 88.6109C111.28 88.662 111.309 88.7312 111.309 88.8033V112.295C111.302 112.362 111.27 112.425 111.22 112.47C111.17 112.515 111.104 112.54 111.037 112.54ZM55.2818 111.995H110.775V89.0482H55.2709L55.2818 111.995Z" fill="#E6E7E8"/>
<path d="M91.1251 104.257H74.92C72.8957 104.257 71.3721 103.169 71.3721 101.738V100.002H73.5487V101.673C73.94 101.973 74.4282 102.118 74.92 102.081H91.1251C91.6169 102.118 92.1052 101.973 92.4964 101.673V100.002H94.6731V101.738C94.6731 103.174 93.1494 104.257 91.1251 104.257Z" fill="#040047"/>
<path d="M82.1904 84.2593C82.1904 84.2593 83.1264 84.1069 84.6174 86.2182H76.3896C76.3896 86.2182 79.3064 85.1952 82.1904 84.2593Z" fill="#040047"/>
<path d="M84.617 86.4904H76.3893C76.3249 86.4914 76.2622 86.4696 76.2124 86.4287C76.1625 86.3878 76.1288 86.3306 76.1172 86.2672C76.1071 86.2035 76.1194 86.1382 76.1522 86.0826C76.185 86.0269 76.2361 85.9845 76.2968 85.9625C76.3295 85.9625 79.2516 84.9286 82.103 83.9981H82.1466C82.2554 83.9981 83.2947 83.8838 84.8674 86.0713C84.8939 86.1138 84.908 86.1628 84.908 86.2128C84.908 86.2629 84.8939 86.3119 84.8674 86.3543C84.8433 86.3988 84.8068 86.4353 84.7624 86.4595C84.718 86.4836 84.6675 86.4943 84.617 86.4904ZM78.0055 85.9462H84.0783C83.0281 84.613 82.3533 84.5314 82.2391 84.5259C80.6828 85.032 79.1156 85.5653 78.0055 85.9462Z" fill="#040047"/>
<path d="M82.19 84.2593H59.7869C59.7869 84.2593 54.2038 86.2183 55.0527 96.0132H80.0841C80.0841 96.0132 78.0816 87.9813 82.19 84.2593Z" fill="white"/>
<path d="M80.0571 96.2851H55.0257C54.9575 96.2841 54.8921 96.2581 54.8419 96.2119C54.7917 96.1657 54.7603 96.1027 54.7536 96.0348C53.8993 86.1474 59.4334 84.0633 59.6511 84.0034C59.6799 83.9982 59.7093 83.9982 59.7381 84.0034H82.1413C82.1959 84.0041 82.249 84.0212 82.2938 84.0525C82.3386 84.0838 82.3729 84.1279 82.3922 84.179C82.4116 84.2301 82.4152 84.2858 82.4024 84.3389C82.3897 84.392 82.3613 84.4401 82.3208 84.4768C78.3811 88.0465 80.253 95.9042 80.2748 95.9641C80.2846 96.0043 80.2853 96.0461 80.2768 96.0866C80.2683 96.1271 80.2509 96.1652 80.2258 96.1981C80.1816 96.246 80.1218 96.2768 80.0571 96.2851ZM55.3032 95.741H79.7197C79.3987 94.2119 78.3593 88.0356 81.5318 84.5312H59.8415C59.3572 84.7326 54.6339 86.9364 55.3032 95.741Z" fill="#040047"/>
<path d="M74.2237 93.3303H58.3287C58.2566 93.3303 58.1874 93.3016 58.1363 93.2506C58.0853 93.1996 58.0566 93.1304 58.0566 93.0582C58.058 92.9865 58.0871 92.9181 58.1379 92.8674C58.1886 92.8166 58.257 92.7875 58.3287 92.7861H74.2237C74.2958 92.7861 74.365 92.8148 74.4161 92.8658C74.4671 92.9168 74.4958 92.9861 74.4958 93.0582C74.4958 93.1304 74.4671 93.1996 74.4161 93.2506C74.365 93.3016 74.2958 93.3303 74.2237 93.3303Z" fill="#E6E7E8"/>
<path d="M76.3894 90.4358H58.3287C58.257 90.4344 58.1886 90.4053 58.1379 90.3545C58.0871 90.3038 58.058 90.2354 58.0566 90.1637C58.0566 90.0915 58.0853 90.0223 58.1363 89.9713C58.1874 89.9203 58.2566 89.8916 58.3287 89.8916H76.3894C76.4616 89.8916 76.5308 89.9203 76.5818 89.9713C76.6329 90.0223 76.6615 90.0915 76.6615 90.1637C76.6601 90.2354 76.631 90.3038 76.5803 90.3545C76.5296 90.4053 76.4612 90.4344 76.3894 90.4358Z" fill="#E6E7E8"/>
<path d="M77.6082 87.2956H59.5475C59.4753 87.2956 59.4061 87.267 59.3551 87.2159C59.3041 87.1649 59.2754 87.0957 59.2754 87.0235C59.2754 86.9514 59.3041 86.8822 59.3551 86.8312C59.4061 86.7801 59.4753 86.7515 59.5475 86.7515H77.6082C77.6803 86.7515 77.7495 86.7801 77.8006 86.8312C77.8516 86.8822 77.8803 86.9514 77.8803 87.0235C77.8803 87.0957 77.8516 87.1649 77.8006 87.2159C77.7495 87.267 77.6803 87.2956 77.6082 87.2956Z" fill="#E6E7E8"/>
<path d="M104.305 65.1701H92.5348C92.4626 65.1701 92.3934 65.1415 92.3424 65.0904C92.2914 65.0394 92.2627 64.9702 92.2627 64.8981C92.2627 64.8259 92.2914 64.7567 92.3424 64.7057C92.3934 64.6546 92.4626 64.626 92.5348 64.626H104.305C104.377 64.626 104.446 64.6546 104.497 64.7057C104.548 64.7567 104.577 64.8259 104.577 64.8981C104.576 64.9698 104.547 65.0382 104.496 65.0889C104.445 65.1396 104.377 65.1687 104.305 65.1701Z" fill="#E6E7E8"/>
<path d="M78.0491 58.1506H66.2789C66.2068 58.1506 66.1376 58.1219 66.0865 58.0709C66.0355 58.0199 66.0068 57.9507 66.0068 57.8785C66.0068 57.8064 66.0355 57.7372 66.0865 57.6861C66.1376 57.6351 66.2068 57.6064 66.2789 57.6064H78.0491C78.1213 57.6064 78.1905 57.6351 78.2415 57.6861C78.2925 57.7372 78.3212 57.8064 78.3212 57.8785C78.3212 57.9507 78.2925 58.0199 78.2415 58.0709C78.1905 58.1219 78.1213 58.1506 78.0491 58.1506Z" fill="#E6E7E8"/>
<path d="M11.0303 26.8993C21.3484 28.5691 31.1705 32.4972 39.7946 38.4029L36.5297 42.348L51.1078 43.9805L48.474 30.3765L44.0935 33.5272C44.0935 33.5272 31.5778 19.1994 16.9508 15.4175L11.0303 26.8993Z" fill="white"/>
<path d="M51.0861 44.2635H51.0534L36.4753 42.6311C36.4269 42.626 36.3809 42.6075 36.3425 42.5777C36.304 42.5479 36.2746 42.508 36.2577 42.4624C36.239 42.4165 36.2332 42.3665 36.2409 42.3176C36.2485 42.2687 36.2694 42.2228 36.3012 42.1849L39.3975 38.4682C25.8479 29.076 11.1446 27.1878 10.9977 27.166C10.9543 27.161 10.9127 27.1456 10.8765 27.1211C10.8403 27.0966 10.8105 27.0637 10.7897 27.0253C10.7689 26.9869 10.7576 26.944 10.7569 26.9003C10.7561 26.8566 10.766 26.8133 10.7855 26.7742L16.6842 15.3414C16.7129 15.287 16.7592 15.2439 16.8155 15.2192C16.8719 15.1945 16.9349 15.1896 16.9944 15.2053C30.5984 18.7315 42.57 31.5302 44.1099 33.2116L48.2945 30.2024C48.3344 30.18 48.3794 30.1682 48.4251 30.1682C48.4709 30.1682 48.5158 30.18 48.5557 30.2024C48.5969 30.2192 48.6333 30.2459 48.6617 30.2801C48.6902 30.3142 48.7098 30.3548 48.719 30.3983L51.3527 44.0023C51.3589 44.0414 51.3567 44.0813 51.3463 44.1194C51.3358 44.1575 51.3174 44.1929 51.2921 44.2233C51.2669 44.2537 51.2355 44.2783 51.1999 44.2956C51.1644 44.3129 51.1256 44.3223 51.0861 44.3234V44.2635ZM37.0413 42.1359L50.7487 43.6813L48.2673 30.8717L44.2296 33.7776C44.174 33.816 44.1062 33.8327 44.0391 33.8247C43.972 33.8167 43.9101 33.7844 43.865 33.734C43.7399 33.5925 31.3493 19.5858 17.0705 15.7767L11.4494 26.6817C13.8818 27.0517 27.4477 29.4351 39.9525 38.1798C40.0129 38.2246 40.0538 38.2908 40.0668 38.3648C40.0722 38.4024 40.0696 38.4407 40.0593 38.4773C40.049 38.5138 40.0312 38.5478 40.0069 38.5771L37.0413 42.1359Z" fill="#040047"/>
<path d="M113.496 42.3645C113.496 42.3645 120.663 33.1954 139.398 26.6165L137.276 22.4155L153.095 23.8793L146.298 36.8086L143.283 31.9111C143.283 31.9111 133.967 34.6319 121.147 51.0058L113.496 42.3645Z" fill="white"/>
<path d="M121.146 51.2995C121.108 51.2998 121.07 51.2916 121.035 51.2756C121.001 51.2596 120.97 51.2362 120.945 51.207L113.289 42.5494C113.248 42.5005 113.226 42.4389 113.226 42.3752C113.226 42.3116 113.248 42.25 113.289 42.2011C113.359 42.1086 120.64 32.983 139.022 26.4639L137.047 22.5405C137.024 22.4971 137.013 22.4484 137.016 22.3995C137.019 22.3505 137.034 22.3032 137.062 22.2625C137.089 22.2218 137.127 22.1893 137.171 22.1683C137.215 22.1473 137.265 22.1387 137.313 22.1433L153.127 23.6071C153.171 23.612 153.215 23.6274 153.252 23.652C153.29 23.6765 153.322 23.7096 153.344 23.7486C153.366 23.7878 153.377 23.8318 153.377 23.8765C153.377 23.9211 153.366 23.9651 153.344 24.0043L146.548 36.9336C146.527 36.9767 146.494 37.0132 146.454 37.0391C146.414 37.065 146.367 37.0794 146.319 37.0805C146.27 37.0846 146.221 37.0745 146.178 37.0513C146.134 37.0282 146.098 36.993 146.074 36.9499L143.174 32.2593C141.775 32.7653 132.971 36.4003 121.375 51.1961C121.321 51.2555 121.248 51.2924 121.168 51.2995H121.146ZM113.849 42.3589L121.114 50.6029C127.644 42.2882 133.281 37.5975 136.845 35.1216C140.769 32.4007 143.087 31.6988 143.185 31.6716C143.242 31.6538 143.303 31.656 143.358 31.6778C143.414 31.6995 143.46 31.7396 143.49 31.7913L146.254 36.2589L152.675 24.1132L137.754 22.731L139.615 26.4966C139.63 26.5319 139.638 26.5698 139.638 26.6082C139.638 26.6465 139.63 26.6844 139.615 26.7197C139.6 26.7548 139.577 26.7865 139.549 26.8127C139.521 26.8389 139.488 26.8591 139.452 26.8721C122.458 32.847 114.948 41.0692 113.849 42.3589Z" fill="#040047"/>
</svg>
