<svg width="218" height="162" viewBox="0 0 218 162" fill="none" xmlns="http://www.w3.org/2000/svg">
<g clip-path="url(#clip0_1_14262)">
<path d="M30.2186 150.014C30.1281 150.014 30.0414 149.978 29.9774 149.914C29.9134 149.85 29.8774 149.763 29.8774 149.673V44.0822C29.8774 43.9917 29.9134 43.9049 29.9774 43.8409C30.0414 43.7769 30.1281 43.741 30.2186 43.741C30.3091 43.741 30.3959 43.7769 30.4599 43.8409C30.5239 43.9049 30.5598 43.9917 30.5598 44.0822V149.673C30.5598 149.763 30.5239 149.85 30.4599 149.914C30.3959 149.978 30.3091 150.014 30.2186 150.014Z" fill="#D1D3D4"/>
<path d="M71.2186 150.014C71.1281 150.014 71.0414 149.978 70.9774 149.914C70.9134 149.85 70.8774 149.763 70.8774 149.673V44.0822C70.8774 43.9917 70.9134 43.9049 70.9774 43.8409C71.0414 43.7769 71.1281 43.741 71.2186 43.741C71.3091 43.741 71.3959 43.7769 71.4599 43.8409C71.5239 43.9049 71.5598 43.9917 71.5598 44.0822V149.673C71.5598 149.763 71.5239 149.85 71.4599 149.914C71.3959 149.978 71.3091 150.014 71.2186 150.014Z" fill="#D1D3D4"/>
<path d="M112.158 150.014C112.068 150.014 111.981 149.978 111.917 149.914C111.853 149.85 111.817 149.763 111.817 149.673V44.0822C111.817 43.9917 111.853 43.9049 111.917 43.8409C111.981 43.7769 112.068 43.741 112.158 43.741C112.249 43.741 112.335 43.7769 112.399 43.8409C112.463 43.9049 112.499 43.9917 112.499 44.0822V149.673C112.499 149.763 112.463 149.85 112.399 149.914C112.335 149.978 112.249 150.014 112.158 150.014Z" fill="#D1D3D4"/>
<path d="M153.172 150.014C153.081 150.014 152.994 149.978 152.931 149.914C152.867 149.85 152.831 149.763 152.831 149.673V44.0822C152.831 43.9917 152.867 43.9049 152.931 43.8409C152.994 43.7769 153.081 43.741 153.172 43.741C153.262 43.741 153.349 43.7769 153.413 43.8409C153.477 43.9049 153.513 43.9917 153.513 44.0822V149.673C153.513 149.763 153.477 149.85 153.413 149.914C153.349 149.978 153.262 150.014 153.172 150.014Z" fill="#D1D3D4"/>
<path d="M194.154 150.014C194.063 150.014 193.976 149.978 193.912 149.914C193.848 149.85 193.812 149.763 193.812 149.673V44.0822C193.812 43.9917 193.848 43.9049 193.912 43.8409C193.976 43.7769 194.063 43.741 194.154 43.741C194.244 43.741 194.331 43.7769 194.395 43.8409C194.459 43.9049 194.495 43.9917 194.495 44.0822V149.673C194.495 149.763 194.459 149.85 194.395 149.914C194.331 149.978 194.244 150.014 194.154 150.014Z" fill="#D1D3D4"/>
<path d="M194.152 44.4098H30.2186C30.1281 44.4098 30.0414 44.3738 29.9774 44.3099C29.9134 44.2459 29.8774 44.1591 29.8774 44.0686C29.8774 43.9781 29.9134 43.8913 29.9774 43.8273C30.0414 43.7634 30.1281 43.7274 30.2186 43.7274H194.152C194.243 43.7274 194.329 43.7634 194.393 43.8273C194.457 43.8913 194.493 43.9781 194.493 44.0686C194.493 44.1591 194.457 44.2459 194.393 44.3099C194.329 44.3738 194.243 44.4098 194.152 44.4098Z" fill="#D1D3D4"/>
<path d="M194.152 79.3337H30.2186C30.1281 79.3337 30.0414 79.2978 29.9774 79.2338C29.9134 79.1698 29.8774 79.083 29.8774 78.9926C29.8774 78.9021 29.9134 78.8153 29.9774 78.7513C30.0414 78.6873 30.1281 78.6514 30.2186 78.6514H194.152C194.243 78.6514 194.329 78.6873 194.393 78.7513C194.457 78.8153 194.493 78.9021 194.493 78.9926C194.493 79.083 194.457 79.1698 194.393 79.2338C194.329 79.2978 194.243 79.3337 194.152 79.3337Z" fill="#D1D3D4"/>
<path d="M194.152 114.244H30.2186C30.1281 114.244 30.0414 114.208 29.9774 114.144C29.9134 114.08 29.8774 113.993 29.8774 113.903C29.8774 113.812 29.9134 113.725 29.9774 113.661C30.0414 113.597 30.1281 113.562 30.2186 113.562H194.152C194.243 113.562 194.329 113.597 194.393 113.661C194.457 113.725 194.493 113.812 194.493 113.903C194.493 113.993 194.457 114.08 194.393 114.144C194.329 114.208 194.243 114.244 194.152 114.244Z" fill="#D1D3D4"/>
<path d="M203.511 150.314H15.3529C15.2624 150.314 15.1756 150.278 15.1116 150.214C15.0477 150.15 15.0117 150.064 15.0117 149.973C15.0135 149.883 15.05 149.797 15.1136 149.734C15.1772 149.67 15.263 149.634 15.3529 149.632H203.511C203.601 149.634 203.687 149.67 203.75 149.734C203.814 149.797 203.85 149.883 203.852 149.973C203.852 150.064 203.816 150.15 203.752 150.214C203.688 150.278 203.601 150.314 203.511 150.314Z" fill="#D1D3D4"/>
<path d="M45.0063 146.657V154.122C45.0063 156.954 53.0857 159.247 63.0551 159.247C73.0246 159.247 81.1108 156.954 81.1108 154.122V146.657H45.0063Z" fill="white"/>
<path d="M63.0287 159.588C53.9872 159.588 44.6387 157.541 44.6387 154.129V146.657C44.6387 146.566 44.6746 146.48 44.7386 146.416C44.8026 146.352 44.8894 146.316 44.9799 146.316H81.1116C81.2021 146.316 81.2888 146.352 81.3528 146.416C81.4168 146.48 81.4528 146.566 81.4528 146.657V154.122C81.4528 157.541 72.0974 159.588 63.0287 159.588ZM45.321 146.998V154.122C45.321 156.435 52.4382 158.899 63.0287 158.899C73.6191 158.899 80.7704 156.429 80.7704 154.122V146.998H45.321Z" fill="#040047"/>
<path d="M63.0551 151.774C73.0232 151.774 81.104 149.483 81.104 146.657C81.104 143.83 73.0232 141.539 63.0551 141.539C53.0871 141.539 45.0063 143.83 45.0063 146.657C45.0063 149.483 53.0871 151.774 63.0551 151.774Z" fill="#040047"/>
<path d="M63.0287 152.075C52.7385 152.075 44.6797 149.693 44.6797 146.657C44.6797 143.62 52.7385 141.198 63.0287 141.198C73.3189 141.198 81.3846 143.579 81.3846 146.657C81.3846 149.734 73.3462 152.075 63.0287 152.075ZM63.0287 141.839C52.411 141.839 45.287 144.337 45.287 146.664C45.287 148.99 52.4178 151.481 63.0287 151.481C73.6397 151.481 80.7705 148.99 80.7705 146.664C80.7705 144.337 73.6738 141.832 63.0287 141.832V141.839Z" fill="#040047"/>
<path d="M41.3164 135.241V142.713C41.3164 145.538 49.3957 147.831 59.3652 147.831C69.3347 147.831 77.4208 145.538 77.4208 142.713V135.241H41.3164Z" fill="white"/>
<path d="M59.3636 148.172C50.3222 148.172 40.9736 146.125 40.9736 142.713V135.241C40.9736 135.15 41.0096 135.064 41.0736 135C41.1375 134.936 41.2243 134.9 41.3148 134.9H77.4192C77.5097 134.9 77.5965 134.936 77.6605 135C77.7245 135.064 77.7604 135.15 77.7604 135.241V142.713C77.7604 146.132 68.4051 148.172 59.3636 148.172ZM41.656 135.582V142.713C41.656 145.019 48.7732 147.489 59.3636 147.489C69.9541 147.489 77.1054 145.019 77.1054 142.713V135.582H41.656Z" fill="#040047"/>
<path d="M59.3652 140.358C69.3333 140.358 77.414 138.067 77.414 135.241C77.414 132.414 69.3333 130.123 59.3652 130.123C49.3971 130.123 41.3164 132.414 41.3164 135.241C41.3164 138.067 49.3971 140.358 59.3652 140.358Z" fill="white"/>
<path d="M59.3636 140.7C50.3222 140.7 40.9736 138.653 40.9736 135.241C40.9736 131.829 50.3222 129.782 59.3636 129.782C68.4051 129.782 77.7877 131.829 77.7877 135.241C77.7877 138.653 68.4051 140.7 59.3636 140.7ZM59.3636 130.464C48.7732 130.464 41.656 132.934 41.656 135.241C41.656 137.547 48.7732 140.017 59.3636 140.017C69.9541 140.017 77.1054 137.547 77.1054 135.241C77.1054 132.934 69.9609 130.464 59.3636 130.464Z" fill="#040047"/>
<path d="M59.3664 138.687C51.676 138.687 43.8833 137.506 43.8833 135.275C43.8833 133.043 51.676 131.829 59.3664 131.829C67.0567 131.829 74.8494 133.009 74.8494 135.275C74.8494 137.54 67.0636 138.687 59.3664 138.687ZM59.3664 132.477C50.1953 132.477 44.5657 134.088 44.5657 135.241C44.5657 136.394 50.1953 137.97 59.3664 137.97C68.5375 137.97 74.1671 136.36 74.1671 135.241C74.1671 134.122 68.5375 132.477 59.3664 132.477Z" fill="#D1D3D4"/>
<path d="M87.3979 148.001V155.466C87.3979 158.298 95.4841 160.591 105.454 160.591C115.423 160.591 123.502 158.298 123.502 155.466V148.001H87.3979Z" fill="white"/>
<path d="M105.452 160.932C96.411 160.932 87.0283 158.885 87.0283 155.473V148.001C87.0283 147.911 87.0643 147.824 87.1283 147.76C87.1922 147.696 87.279 147.66 87.3695 147.66H123.474C123.564 147.66 123.651 147.696 123.715 147.76C123.779 147.824 123.815 147.911 123.815 148.001V155.466C123.842 158.885 114.494 160.932 105.452 160.932ZM87.7107 148.342V155.466C87.7107 157.773 94.8279 160.243 105.452 160.243C116.077 160.243 123.194 157.766 123.194 155.466V148.342H87.7107Z" fill="#040047"/>
<path d="M105.452 153.119C115.42 153.119 123.5 150.828 123.5 148.001C123.5 145.175 115.42 142.883 105.452 142.883C95.4836 142.883 87.4028 145.175 87.4028 148.001C87.4028 150.828 95.4836 153.119 105.452 153.119Z" fill="#040047"/>
<path d="M105.452 153.419C95.1619 153.419 87.0962 151.038 87.0962 148.001C87.0962 144.965 95.1619 142.576 105.452 142.576C115.742 142.576 123.801 144.958 123.801 148.001C123.801 151.045 115.742 153.419 105.452 153.419ZM105.452 143.184C94.8343 143.184 87.7103 145.674 87.7103 148.008C87.7103 150.342 94.8411 152.826 105.452 152.826C116.063 152.826 123.194 150.335 123.194 148.008C123.194 145.681 116.07 143.177 105.452 143.177V143.184Z" fill="#040047"/>
<path d="M90.3237 137.213V144.719C90.3237 147.544 98.403 149.837 108.373 149.837C118.342 149.837 126.428 147.544 126.428 144.719V137.213H90.3237Z" fill="white"/>
<path d="M108.357 150.178C99.3158 150.178 89.9331 148.131 89.9331 144.719V137.213C89.9331 137.122 89.9691 137.036 90.033 136.972C90.097 136.908 90.1838 136.872 90.2743 136.872H126.379C126.469 136.872 126.556 136.908 126.62 136.972C126.684 137.036 126.72 137.122 126.72 137.213V144.719C126.754 148.131 117.399 150.178 108.357 150.178ZM90.6155 137.588V144.719C90.6155 147.025 97.7326 149.496 108.357 149.496C118.982 149.496 126.099 147.025 126.099 144.719V137.554L90.6155 137.588Z" fill="#040047"/>
<path d="M108.361 142.33C118.329 142.33 126.41 140.039 126.41 137.213C126.41 134.386 118.329 132.095 108.361 132.095C98.3927 132.095 90.312 134.386 90.312 137.213C90.312 140.039 98.3927 142.33 108.361 142.33Z" fill="#040047"/>
<path d="M108.359 142.631C98.0691 142.631 90.0103 140.249 90.0103 137.213C90.0103 134.176 98.0691 131.795 108.359 131.795C118.65 131.795 126.715 134.169 126.715 137.213C126.715 140.256 118.65 142.631 108.359 142.631ZM108.359 132.395C97.7416 132.395 90.6176 134.886 90.6176 137.213C90.6176 139.54 97.7484 142.03 108.359 142.03C118.97 142.03 126.101 139.54 126.101 137.213C126.101 134.886 118.984 132.395 108.359 132.395Z" fill="#040047"/>
<path d="M87.3979 126.384V133.89C87.3979 136.715 95.4841 139.007 105.454 139.007C115.423 139.007 123.502 136.715 123.502 133.89V126.384H87.3979Z" fill="white"/>
<path d="M105.452 139.315C96.411 139.315 87.0283 137.267 87.0283 133.856V126.349C87.0301 126.26 87.0666 126.174 87.1302 126.11C87.1938 126.047 87.2796 126.01 87.3695 126.008H123.474C123.564 126.008 123.651 126.044 123.715 126.108C123.779 126.172 123.815 126.259 123.815 126.349V133.856C123.842 137.274 114.494 139.315 105.452 139.315ZM87.7107 126.725V133.856C87.7107 136.162 94.8279 138.632 105.452 138.632C116.077 138.632 123.194 136.162 123.194 133.856V126.725H87.7107Z" fill="#040047"/>
<path d="M105.452 131.501C115.42 131.501 123.5 129.21 123.5 126.383C123.5 123.557 115.42 121.266 105.452 121.266C95.4836 121.266 87.4028 123.557 87.4028 126.383C87.4028 129.21 95.4836 131.501 105.452 131.501Z" fill="#040047"/>
<path d="M105.452 131.808C95.1619 131.808 87.0962 129.427 87.0962 126.349C87.0962 123.272 95.1619 120.931 105.452 120.931C115.742 120.931 123.801 123.313 123.801 126.349C123.801 129.386 115.742 131.808 105.452 131.808ZM105.452 121.573C94.8343 121.573 87.7103 124.063 87.7103 126.39C87.7103 128.717 94.8411 131.208 105.452 131.208C116.063 131.208 123.194 128.717 123.194 126.39C123.194 124.063 116.07 121.566 105.452 121.566V121.573Z" fill="#040047"/>
<path d="M93.2173 117.533V124.998C93.2173 127.83 101.303 130.123 111.273 130.123C121.242 130.123 129.322 127.83 129.322 124.998V117.533H93.2173Z" fill="white"/>
<path d="M111.274 130.464C102.232 130.464 92.8496 128.417 92.8496 125.005V117.533C92.8496 117.442 92.8856 117.356 92.9495 117.292C93.0135 117.228 93.1003 117.192 93.1908 117.192H129.295C129.386 117.192 129.472 117.228 129.536 117.292C129.6 117.356 129.636 117.442 129.636 117.533V124.998C129.664 128.417 120.349 130.464 111.274 130.464ZM93.532 117.874V124.998C93.532 127.304 100.649 129.775 111.274 129.775C121.898 129.775 129.015 127.298 129.015 124.998V117.874H93.532Z" fill="#040047"/>
<path d="M111.273 122.651C121.241 122.651 129.322 120.36 129.322 117.533C129.322 114.707 121.241 112.415 111.273 112.415C101.305 112.415 93.2241 114.707 93.2241 117.533C93.2241 120.36 101.305 122.651 111.273 122.651Z" fill="#040047"/>
<path d="M111.274 122.951C100.977 122.951 92.918 120.57 92.918 117.533C92.918 114.496 100.977 112.108 111.274 112.108C121.571 112.108 129.623 114.49 129.623 117.533C129.623 120.576 121.564 122.951 111.274 122.951ZM111.274 112.715C100.649 112.715 93.5321 115.213 93.5321 117.54C93.5321 119.867 100.663 122.357 111.274 122.357C121.885 122.357 129.016 119.867 129.016 117.54C129.016 115.213 121.892 112.709 111.274 112.709V112.715Z" fill="#040047"/>
<path d="M89.2593 108.676V116.148C89.2593 118.973 97.3386 121.265 107.308 121.265C117.278 121.265 125.364 118.973 125.364 116.148V108.676H89.2593Z" fill="white"/>
<path d="M107.309 121.607C98.2675 121.607 88.9189 119.56 88.9189 116.148V108.676C88.9189 108.585 88.9549 108.499 89.0189 108.435C89.0829 108.371 89.1696 108.335 89.2601 108.335H125.365C125.455 108.335 125.542 108.371 125.606 108.435C125.67 108.499 125.706 108.585 125.706 108.676V116.148C125.706 119.566 116.35 121.607 107.309 121.607ZM89.6013 109.017V116.148C89.6013 118.454 96.7185 120.924 107.309 120.924C117.899 120.924 125.051 118.454 125.051 116.148V109.017H89.6013Z" fill="#040047"/>
<path d="M107.308 113.794C117.276 113.794 125.357 111.502 125.357 108.676C125.357 105.849 117.276 103.558 107.308 103.558C97.34 103.558 89.2593 105.849 89.2593 108.676C89.2593 111.502 97.34 113.794 107.308 113.794Z" fill="white"/>
<path d="M107.309 114.135C98.2675 114.135 88.9189 112.088 88.9189 108.676C88.9189 105.264 98.2675 103.217 107.309 103.217C116.35 103.217 125.733 105.264 125.733 108.676C125.733 112.088 116.35 114.135 107.309 114.135ZM107.309 103.899C96.7185 103.899 89.6013 106.369 89.6013 108.676C89.6013 110.982 96.7185 113.453 107.309 113.453C117.899 113.453 125.051 110.982 125.051 108.676C125.051 106.369 117.906 103.899 107.309 103.899Z" fill="#040047"/>
<path d="M107.307 112.122C99.6164 112.122 91.8237 110.942 91.8237 108.71C91.8237 106.479 99.6164 105.264 107.307 105.264C114.997 105.264 122.79 106.445 122.79 108.71C122.79 110.976 115.004 112.122 107.307 112.122ZM107.307 105.912C98.1357 105.912 92.5061 107.523 92.5061 108.676C92.5061 109.829 98.1357 111.406 107.307 111.406C116.478 111.406 122.108 109.795 122.108 108.676C122.108 107.557 116.478 105.912 107.307 105.912Z" fill="#D1D3D4"/>
<path d="M178.104 143.886V151.358C178.104 154.183 170.025 156.476 160.056 156.476C150.086 156.476 142 154.183 142 151.358V143.886H178.104Z" fill="white"/>
<path d="M160.056 156.817C151.015 156.817 141.632 154.77 141.632 151.358V143.886C141.632 143.796 141.668 143.709 141.732 143.645C141.796 143.581 141.883 143.545 141.974 143.545H178.078C178.168 143.545 178.255 143.581 178.319 143.645C178.383 143.709 178.419 143.796 178.419 143.886V151.358C178.446 154.77 169.098 156.817 160.056 156.817ZM142.315 144.228V151.358C142.315 153.665 149.432 156.135 160.056 156.135C170.681 156.135 177.764 153.665 177.764 151.358V144.228H142.315Z" fill="#040047"/>
<path d="M160.058 149.004C170.026 149.004 178.107 146.713 178.107 143.886C178.107 141.06 170.026 138.769 160.058 138.769C150.09 138.769 142.009 141.06 142.009 143.886C142.009 146.713 150.09 149.004 160.058 149.004Z" fill="#040047"/>
<path d="M160.057 149.304C149.766 149.304 141.701 146.923 141.701 143.886C141.701 140.85 149.766 138.462 160.057 138.462C170.347 138.462 178.406 140.843 178.406 143.886C178.406 146.93 170.347 149.304 160.057 149.304ZM160.057 139.069C149.439 139.069 142.315 141.56 142.315 143.886C142.315 146.213 149.452 148.704 160.057 148.704C170.661 148.704 177.798 146.213 177.798 143.886C177.798 141.56 170.674 139.069 160.057 139.069Z" fill="#040047"/>
<path d="M172.29 135.029V142.501C172.29 145.326 164.204 147.619 154.234 147.619C144.265 147.619 136.186 145.326 136.186 142.501V135.029H172.29Z" fill="white"/>
<path d="M154.235 147.96C145.194 147.96 135.811 145.913 135.811 142.501V135.029C135.811 134.939 135.847 134.852 135.911 134.788C135.975 134.724 136.062 134.688 136.152 134.688H172.257C172.347 134.688 172.434 134.724 172.498 134.788C172.562 134.852 172.598 134.939 172.598 135.029V142.501C172.632 145.92 163.277 147.96 154.235 147.96ZM136.493 135.37V142.501C136.493 144.808 143.611 147.278 154.235 147.278C164.86 147.278 171.977 144.808 171.977 142.501V135.37H136.493Z" fill="#040047"/>
<path d="M154.234 140.147C164.202 140.147 172.283 137.856 172.283 135.029C172.283 132.203 164.202 129.911 154.234 129.911C144.266 129.911 136.186 132.203 136.186 135.029C136.186 137.856 144.266 140.147 154.234 140.147Z" fill="#040047"/>
<path d="M154.235 140.454C143.945 140.454 135.886 138.072 135.886 135.029C135.886 131.986 143.945 129.611 154.235 129.611C164.525 129.611 172.591 131.992 172.591 135.029C172.591 138.066 164.525 140.454 154.235 140.454ZM154.235 130.218C143.617 130.218 136.493 132.709 136.493 135.036C136.493 137.363 143.624 139.853 154.235 139.853C164.846 139.853 171.977 137.363 171.977 135.036C171.977 132.709 164.853 130.211 154.235 130.211V130.218Z" fill="#040047"/>
<path d="M176.25 126.172V133.678C176.25 136.51 168.171 138.803 158.202 138.803C148.232 138.803 140.139 136.476 140.139 133.644V126.138L176.25 126.172Z" fill="white"/>
<path d="M158.193 139.103C149.159 139.103 139.803 137.056 139.803 133.644V126.138C139.803 126.047 139.839 125.961 139.903 125.897C139.967 125.833 140.054 125.797 140.144 125.797H176.249C176.339 125.797 176.426 125.833 176.49 125.897C176.554 125.961 176.59 126.047 176.59 126.138V133.644C176.59 137.063 167.235 139.103 158.193 139.103ZM140.486 126.513V133.644C140.486 135.95 147.603 138.421 158.193 138.421C168.784 138.421 175.935 135.95 175.935 133.644V126.513H140.486Z" fill="#040047"/>
<path d="M158.202 131.29C168.17 131.29 176.25 128.998 176.25 126.172C176.25 123.345 168.17 121.054 158.202 121.054C148.234 121.054 140.153 123.345 140.153 126.172C140.153 128.998 148.234 131.29 158.202 131.29Z" fill="#040047"/>
<path d="M158.191 131.597C147.901 131.597 139.842 129.215 139.842 126.138C139.842 123.06 147.901 120.72 158.191 120.72C168.481 120.72 176.547 123.101 176.547 126.138C176.547 129.174 168.488 131.597 158.191 131.597ZM158.191 121.361C147.573 121.361 140.449 123.852 140.449 126.179C140.449 128.506 147.58 131.003 158.191 131.003C168.802 131.003 175.933 128.513 175.933 126.179C175.933 123.845 168.795 121.354 158.191 121.354V121.361Z" fill="#040047"/>
<path d="M176.883 116.148V123.613C176.883 126.445 168.804 128.738 158.834 128.738C148.865 128.738 140.779 126.445 140.779 123.613V116.148H176.883Z" fill="white"/>
<path d="M158.835 129.079C149.794 129.079 140.411 127.032 140.411 123.62V116.148C140.411 116.057 140.447 115.971 140.511 115.907C140.575 115.843 140.662 115.807 140.752 115.807H176.857C176.947 115.807 177.034 115.843 177.098 115.907C177.162 115.971 177.198 116.057 177.198 116.148V123.613C177.225 127.032 167.87 129.079 158.835 129.079ZM141.094 116.489V123.613C141.094 125.926 148.211 128.39 158.835 128.39C169.46 128.39 176.577 125.919 176.577 123.613V116.489H141.094Z" fill="#040047"/>
<path d="M158.834 121.266C168.803 121.266 176.883 118.974 176.883 116.148C176.883 113.321 168.803 111.03 158.834 111.03C148.866 111.03 140.786 113.321 140.786 116.148C140.786 118.974 148.866 121.266 158.834 121.266Z" fill="#040047"/>
<path d="M158.835 121.566C148.538 121.566 140.479 119.184 140.479 116.148C140.479 113.111 148.538 110.723 158.835 110.723C169.132 110.723 177.184 113.105 177.184 116.148C177.184 119.191 169.126 121.566 158.835 121.566ZM158.835 111.33C148.211 111.33 141.094 113.828 141.094 116.155C141.094 118.482 148.224 120.972 158.835 120.972C169.446 120.972 176.577 118.482 176.577 116.155C176.577 113.828 169.48 111.324 158.835 111.324V111.33Z" fill="#040047"/>
<path d="M173.341 106.369V113.835C173.341 116.666 165.255 118.959 155.285 118.959C145.316 118.959 137.236 116.666 137.236 113.835V106.369H173.341Z" fill="white"/>
<path d="M155.286 119.301C146.244 119.301 136.896 117.253 136.896 113.842V106.37C136.896 106.279 136.931 106.192 136.995 106.128C137.059 106.064 137.146 106.028 137.237 106.028H173.341C173.432 106.028 173.518 106.064 173.582 106.128C173.646 106.192 173.682 106.279 173.682 106.37V113.835C173.682 117.254 164.327 119.301 155.286 119.301ZM137.578 106.711V113.835C137.578 116.148 144.695 118.611 155.286 118.611C165.876 118.611 173.027 116.141 173.027 113.835V106.711H137.578Z" fill="#040047"/>
<path d="M155.285 111.487C165.253 111.487 173.334 109.196 173.334 106.37C173.334 103.543 165.253 101.252 155.285 101.252C145.317 101.252 137.236 103.543 137.236 106.37C137.236 109.196 145.317 111.487 155.285 111.487Z" fill="#040047"/>
<path d="M155.288 111.787C144.998 111.787 136.939 109.406 136.939 106.369C136.939 103.333 144.998 100.91 155.288 100.91C165.578 100.91 173.644 103.292 173.644 106.369C173.644 109.447 165.578 111.787 155.288 111.787ZM155.288 101.552C144.67 101.552 137.546 104.049 137.546 106.376C137.546 108.703 144.677 111.194 155.288 111.194C165.899 111.194 173.03 108.703 173.03 106.376C173.03 104.049 165.906 101.545 155.288 101.545V101.552Z" fill="#040047"/>
<path d="M178.104 96.3384V103.776C178.104 106.608 170.025 108.901 160.056 108.901C150.086 108.901 142 106.608 142 103.776V96.3384H178.104Z" fill="white"/>
<path d="M160.056 109.269C151.015 109.269 141.632 107.222 141.632 103.81V96.3385C141.632 96.248 141.668 96.1612 141.732 96.0972C141.796 96.0333 141.883 95.9973 141.974 95.9973H178.078C178.168 95.9973 178.255 96.0333 178.319 96.0972C178.383 96.1612 178.419 96.248 178.419 96.3385V103.776C178.446 107.222 169.098 109.269 160.056 109.269ZM142.315 96.6797V103.776C142.315 106.09 149.432 108.553 160.056 108.553C170.681 108.553 177.764 106.083 177.764 103.776V96.6797H142.315Z" fill="#040047"/>
<path d="M160.058 101.456C170.026 101.456 178.107 99.165 178.107 96.3385C178.107 93.512 170.026 91.2207 160.058 91.2207C150.09 91.2207 142.009 93.512 142.009 96.3385C142.009 99.165 150.09 101.456 160.058 101.456Z" fill="white"/>
<path d="M160.056 101.797C151.015 101.797 141.632 99.7503 141.632 96.3384C141.632 92.9265 150.988 90.8794 160.056 90.8794C169.125 90.8794 178.446 92.9265 178.446 96.3384C178.446 99.7503 169.098 101.797 160.056 101.797ZM160.056 91.5618C149.459 91.5618 142.315 94.0388 142.315 96.3384C142.315 98.638 149.432 101.115 160.056 101.115C170.681 101.115 177.764 98.6448 177.764 96.3384C177.764 94.032 170.647 91.5549 160.056 91.5549V91.5618Z" fill="#040047"/>
<path d="M160.057 99.7845C152.36 99.7845 144.574 98.5972 144.574 96.3385C144.574 94.0798 152.36 92.9266 160.057 92.9266C167.754 92.9266 175.54 94.1071 175.54 96.3385C175.54 98.5699 167.747 99.7845 160.057 99.7845ZM160.057 93.5749C150.886 93.5749 145.256 95.1853 145.256 96.3044C145.256 97.4235 150.886 99.068 160.057 99.068C169.228 99.068 174.858 97.4576 174.858 96.3044C174.858 95.1512 169.228 93.5749 160.057 93.5749Z" fill="#D1D3D4"/>
<path d="M75.4414 71.9164C75.4414 71.9164 73.2851 69.5895 73.1486 68.7502C73.0121 67.9108 72.8484 65.0039 72.1387 65.5157C71.429 66.0275 71.5996 68.1087 71.5996 68.1087C71.5996 68.1087 68.6586 64.5877 67.792 65.3792C66.9253 66.1708 66.5705 66.8736 66.5159 68.409C66.4613 69.9443 73.8583 76.3791 73.8583 76.3791" fill="white"/>
<path d="M73.8582 76.6862C73.7757 76.687 73.6957 76.6579 73.633 76.6043C72.3774 75.5125 66.1269 69.9784 66.1746 68.3612C66.1342 67.747 66.2363 67.1317 66.4731 66.5635C66.7098 65.9953 67.0748 65.4896 67.5394 65.0858C67.6245 65.016 67.7226 64.9638 67.828 64.9322C67.9334 64.9006 68.0441 64.8902 68.1535 64.9016C69.0406 64.9698 70.3985 66.3005 71.2174 67.1875C71.2515 66.5052 71.4016 65.6044 71.8998 65.2359C71.9808 65.1725 72.0774 65.1321 72.1795 65.1189C72.2815 65.1057 72.3853 65.1202 72.4798 65.1609C72.9779 65.3792 73.1622 66.28 73.3805 68.0951C73.3805 68.3408 73.4283 68.5523 73.4556 68.6956C73.5375 69.2074 74.8203 70.7427 75.6596 71.6844C75.7226 71.7493 75.7578 71.8362 75.7578 71.9266C75.7578 72.0171 75.7226 72.1039 75.6596 72.1689C75.6279 72.2008 75.5902 72.2262 75.5486 72.2435C75.507 72.2609 75.4624 72.2698 75.4174 72.2698C75.3724 72.2698 75.3278 72.2609 75.2862 72.2435C75.2446 72.2262 75.2069 72.2008 75.1752 72.1689C74.8067 71.7663 72.9438 69.7191 72.8005 68.8252C72.8005 68.6751 72.7527 68.4499 72.7186 68.1974C72.6647 67.404 72.5134 66.6202 72.2682 65.8637C71.9339 66.2254 71.8656 67.3581 71.9202 68.1019C71.9283 68.1734 71.9126 68.2455 71.8756 68.3072C71.8386 68.3688 71.7824 68.4166 71.7155 68.4431C71.6482 68.473 71.573 68.4798 71.5014 68.4625C71.4299 68.4452 71.366 68.4048 71.3197 68.3476C70.46 67.3172 68.8223 65.659 68.1126 65.6181C68.0307 65.6181 68.0171 65.6181 68.0034 65.6181C67.1777 66.3414 66.8911 67.0169 66.8434 68.4022C66.8093 69.262 70.4872 72.9877 74.0697 76.1062C74.1015 76.1373 74.1267 76.1745 74.144 76.2155C74.1612 76.2565 74.1701 76.3005 74.1701 76.345C74.1701 76.3895 74.1612 76.4335 74.144 76.4745C74.1267 76.5155 74.1015 76.5527 74.0697 76.5838C74.0156 76.6446 73.9395 76.6815 73.8582 76.6862Z" fill="#040047"/>
<path d="M71.3953 71.4181C71.3285 71.4192 71.2629 71.4003 71.207 71.3638C71.151 71.3273 71.1073 71.2749 71.0814 71.2134C70.8419 70.6868 70.7383 70.1086 70.78 69.5316C70.8217 68.9546 71.0075 68.3973 71.3202 67.9107C71.3746 67.839 71.4542 67.7907 71.5429 67.7755C71.6316 67.7603 71.7227 67.7793 71.7979 67.8288C71.8699 67.8832 71.9179 67.9634 71.9319 68.0525C71.9459 68.1416 71.9248 68.2326 71.8729 68.3065V68.3065C71.6306 68.6965 71.4882 69.1404 71.4584 69.5986C71.4287 70.0569 71.5124 70.5155 71.7024 70.9336C71.7216 70.9742 71.7324 71.0183 71.7342 71.0633C71.736 71.1082 71.7287 71.153 71.7128 71.195C71.6969 71.2371 71.6726 71.2755 71.6415 71.308C71.6104 71.3404 71.5731 71.3663 71.5318 71.384C71.4889 71.4042 71.4426 71.4158 71.3953 71.4181V71.4181Z" fill="#040047"/>
<path d="M110.113 139.84C110.058 140.713 110.058 141.588 110.113 142.46C110.222 142.795 110.891 144.46 110.795 144.965C110.7 145.47 105.132 154.306 103.74 152.908C102.348 151.509 105.91 145.06 105.91 144.392C105.91 143.723 105.466 139.826 105.466 139.826L110.113 139.84Z" fill="white"/>
<path d="M104.107 153.405C103.994 153.407 103.883 153.386 103.778 153.344C103.674 153.302 103.579 153.239 103.5 153.16C102.415 152.075 103.575 149.113 104.96 145.913C105.196 145.422 105.399 144.916 105.567 144.398C105.567 143.893 105.281 141.225 105.124 139.881C105.119 139.833 105.124 139.784 105.139 139.738C105.154 139.693 105.178 139.651 105.21 139.615C105.242 139.579 105.282 139.55 105.325 139.53C105.369 139.51 105.417 139.499 105.465 139.498H110.112C110.158 139.498 110.204 139.508 110.246 139.527C110.289 139.545 110.327 139.573 110.357 139.608C110.391 139.64 110.417 139.68 110.433 139.723C110.45 139.767 110.456 139.814 110.453 139.86C110.393 140.689 110.393 141.522 110.453 142.351C110.453 142.399 110.501 142.487 110.535 142.596C110.958 143.75 111.217 144.603 111.129 145.032C110.985 145.66 106.536 152.743 104.421 153.357C104.319 153.387 104.213 153.403 104.107 153.405V153.405ZM105.847 140.181C105.963 141.191 106.25 143.845 106.25 144.405C106.105 145.027 105.875 145.626 105.567 146.186C104.776 148.021 103.117 151.836 103.964 152.675C103.964 152.675 104.032 152.743 104.182 152.709C105.908 152.313 110.255 145.456 110.46 144.869C110.376 144.162 110.185 143.471 109.893 142.822C109.855 142.735 109.823 142.646 109.798 142.555C109.724 141.763 109.724 140.966 109.798 140.174L105.847 140.181Z" fill="#040047"/>
<path d="M97.8287 140.44C97.8287 140.44 97.6035 144.166 97.8287 144.999C98.0539 145.831 98.4429 146.78 98.3268 147.285C98.2108 147.79 91.3735 153.794 91.0391 152.744C90.7047 151.693 93.4888 147.414 93.5434 146.657C93.598 145.899 92.6563 140.058 92.6563 140.058L97.8287 140.44Z" fill="white"/>
<path d="M91.2593 153.201C91.144 153.208 91.0296 153.176 90.9345 153.11C90.8393 153.045 90.7687 152.949 90.7339 152.839C90.5019 152.109 91.2457 150.587 92.3238 148.527C92.6755 147.919 92.9745 147.282 93.2178 146.623C93.2587 146.097 92.7128 142.44 92.3307 140.106C92.3241 140.055 92.3286 140.003 92.3439 139.953C92.3592 139.904 92.385 139.858 92.4194 139.82C92.4542 139.783 92.4966 139.754 92.5438 139.735C92.5909 139.716 92.6416 139.708 92.6923 139.71L97.8716 140.099C97.9609 140.106 98.0439 140.148 98.1026 140.216C98.1613 140.284 98.1911 140.372 98.1855 140.461C98.0696 141.944 98.0696 143.434 98.1855 144.917C98.2469 145.135 98.3151 145.36 98.3833 145.599C98.6202 146.159 98.7252 146.766 98.6904 147.373C98.5608 147.96 92.665 153.153 91.3071 153.215L91.2593 153.201ZM93.054 140.42C93.286 141.853 93.9274 145.995 93.8797 146.677C93.6571 147.442 93.3311 148.172 92.9107 148.847C92.3102 149.987 91.3412 151.843 91.3412 152.505C92.4876 152.246 97.6737 147.769 98.008 147.162C97.9754 146.694 97.8719 146.234 97.701 145.797C97.6236 145.565 97.5554 145.338 97.4962 145.115C97.3723 143.673 97.3723 142.223 97.4962 140.782L93.054 140.42Z" fill="#040047"/>
<path d="M142.445 74.4342C142.445 74.4342 144.683 72.1892 144.854 71.3567C145.024 70.5242 145.304 67.6241 145.993 68.1632C146.682 68.7022 146.43 70.7767 146.43 70.7767C146.43 70.7767 149.507 67.3648 150.333 68.1632C151.159 68.9616 151.5 69.7053 151.5 71.2339C151.5 72.7624 143.857 78.9174 143.857 78.9174" fill="white"/>
<path d="M143.856 79.2111C143.806 79.2117 143.756 79.2009 143.709 79.1797C143.663 79.1585 143.623 79.1272 143.59 79.0883C143.533 79.0173 143.506 78.9268 143.515 78.8363C143.524 78.7457 143.568 78.6622 143.638 78.6038C147.337 75.6354 151.144 72.0462 151.144 71.1864C151.144 69.8216 150.885 69.1392 150.086 68.3613C150.086 68.3613 150.086 68.3613 149.984 68.3613C149.268 68.3613 147.575 69.9854 146.668 70.9817C146.62 71.0366 146.555 71.0744 146.484 71.0892C146.412 71.1039 146.338 71.0949 146.272 71.0635C146.207 71.033 146.153 70.9831 146.118 70.9208C146.083 70.8585 146.067 70.7868 146.074 70.7155C146.163 69.9717 146.142 68.8253 145.822 68.4637C145.548 69.2101 145.364 69.9868 145.276 70.7769C145.235 71.0362 145.201 71.2546 145.173 71.4047C144.996 72.2918 143.058 74.2639 142.669 74.6528C142.637 74.6848 142.6 74.7102 142.558 74.7275C142.516 74.7448 142.472 74.7537 142.427 74.7537C142.382 74.7537 142.337 74.7448 142.296 74.7275C142.254 74.7102 142.216 74.6848 142.185 74.6528C142.122 74.5879 142.086 74.501 142.086 74.4106C142.086 74.3201 142.122 74.2333 142.185 74.1683C143.085 73.2676 144.402 71.7732 144.505 71.2682C144.505 71.1249 144.566 70.9202 144.6 70.6746C144.887 68.8663 145.105 67.9451 145.61 67.7745C145.706 67.735 145.811 67.7231 145.914 67.74C146.016 67.7568 146.112 67.8019 146.19 67.87C146.681 68.259 146.797 69.1461 146.804 69.8489C147.657 68.9959 149.07 67.7131 149.957 67.679C150.066 67.6703 150.176 67.6847 150.279 67.7211C150.383 67.7575 150.478 67.8152 150.557 67.8905C151.011 68.3086 151.362 68.8263 151.583 69.4029C151.803 69.9795 151.886 70.5993 151.827 71.2137C151.827 72.8309 145.351 78.1193 144.054 79.1633C143.996 79.2013 143.926 79.2181 143.856 79.2111V79.2111Z" fill="#040047"/>
<path d="M101.147 98.2355L122.983 99.375C122.983 99.375 124.348 105.353 120.608 108.321C116.869 111.289 109.335 114.36 108.885 116.509C108.435 118.659 111.144 137.472 110.85 141.921L104.142 143.511C104.142 143.511 98.3559 121.054 98.4992 117.349C98.6425 113.643 100.58 111.89 100.58 111.89C100.58 111.89 95.2374 116.469 95.0873 117.506C94.9372 118.543 98.9223 142.371 98.9223 142.371C98.9223 142.371 91.8392 142.651 91.6959 142.201C91.5526 141.75 85.0018 119.737 86.6327 114.988C88.2636 110.238 101.147 98.2355 101.147 98.2355Z" fill="#040047"/>
<path d="M104.116 143.839C104.049 143.839 103.983 143.818 103.93 143.777C103.877 143.736 103.839 143.678 103.822 143.614C103.59 142.699 98.0289 121.095 98.1722 117.363C98.2132 116.084 98.503 114.825 99.0251 113.657C97.0804 115.425 95.4222 117.117 95.3608 117.567C95.2721 118.373 97.6058 132.818 99.1957 142.331C99.2018 142.374 99.1988 142.418 99.1871 142.461C99.1753 142.503 99.1551 142.542 99.1275 142.576C99.0711 142.639 98.9931 142.678 98.9091 142.686C91.6009 142.972 91.4576 142.542 91.403 142.31C91.3484 142.078 84.6475 119.792 86.3398 114.899C87.9775 110.123 100.431 98.5223 100.963 98.0105C100.992 97.9835 101.027 97.9629 101.064 97.95C101.102 97.9371 101.142 97.9321 101.181 97.9354L123.017 99.075C123.083 99.0803 123.146 99.1063 123.196 99.1491C123.246 99.192 123.282 99.2497 123.297 99.3138C123.352 99.5663 124.628 105.51 120.82 108.56C119.035 109.876 117.158 111.064 115.204 112.115C112.372 113.739 109.445 115.418 109.206 116.592C108.995 117.601 109.547 122.801 110.08 127.823C110.687 133.637 111.322 139.649 111.171 141.969C111.167 142.033 111.142 142.095 111.101 142.144C111.059 142.193 111.002 142.227 110.939 142.242L104.232 143.832L104.116 143.839ZM100.56 111.603C100.603 111.603 100.645 111.613 100.684 111.63C100.723 111.648 100.758 111.674 100.786 111.706C100.84 111.763 100.87 111.839 100.87 111.917C100.87 111.996 100.84 112.072 100.786 112.129C100.786 112.129 98.9433 113.862 98.8 117.383C98.6703 120.795 103.693 140.584 104.361 143.177L110.557 141.71C110.66 139.274 110.025 133.235 109.459 127.885C108.872 122.351 108.367 117.574 108.592 116.476C108.892 115.029 111.67 113.439 114.89 111.59C116.815 110.554 118.664 109.384 120.424 108.089C123.55 105.585 122.922 100.76 122.731 99.6687L101.243 98.5428C100.076 99.6346 88.3937 110.682 86.8789 115.097C85.3231 119.614 91.4303 140.441 91.908 142.03C92.4948 142.201 95.6064 142.201 98.527 142.099C97.9265 138.468 94.6034 118.495 94.7535 117.479C94.9036 116.462 99.4346 112.456 100.342 111.678C100.403 111.627 100.481 111.6 100.56 111.603V111.603Z" fill="#040047"/>
<path d="M123.95 99.9208C123.95 99.9208 122.654 90.4767 121.426 85.5909C121.426 85.5909 125.056 91.9233 129.396 92.2782C133.736 92.633 146.517 77.9074 146.517 77.9074L142.941 72.8305C142.941 72.8305 133.995 79.8931 128.836 82.1244C127.472 79.006 119.576 67.7946 115.018 65.5496C110.46 63.3046 104.632 65.0719 101.514 67.5967C100.006 68.8386 96.055 71.1109 89.2312 77.3819C84.3157 75.6448 79.6653 73.2335 75.4131 70.217L71.8989 75.1915C71.8989 75.1915 86.2288 88.4296 90.1661 86.4575L99.2826 81.8788L98.7981 99.716L123.95 99.9208Z" fill="#FFE11B"/>
<path d="M105.419 51.138C105.419 51.138 101.721 61.7216 100.069 63.9325L109.67 67.5286L111.472 50.4692L105.419 51.138Z" fill="white"/>
<path d="M109.669 67.8699C109.629 67.8764 109.587 67.8764 109.547 67.8699L99.9455 64.2738C99.8969 64.2538 99.8532 64.2232 99.8178 64.1842C99.7824 64.1453 99.7561 64.099 99.7408 64.0486C99.7236 63.998 99.7196 63.9439 99.7292 63.8914C99.7387 63.8388 99.7615 63.7896 99.7954 63.7483C101.392 61.6057 105.057 51.1517 105.097 51.0425C105.118 50.9823 105.155 50.9291 105.205 50.8892C105.254 50.8493 105.314 50.8244 105.377 50.8173L111.437 50.135C111.488 50.1284 111.539 50.1336 111.588 50.1501C111.636 50.1667 111.68 50.1942 111.717 50.2305C111.752 50.267 111.78 50.3111 111.796 50.3595C111.813 50.4079 111.818 50.4595 111.812 50.5103L110.004 67.5696C110 67.6213 109.984 67.6712 109.956 67.7152C109.929 67.7591 109.891 67.7958 109.847 67.8221C109.793 67.854 109.732 67.8705 109.669 67.8699ZM100.594 63.7756L109.376 67.0647L111.089 50.8515L105.671 51.4656C105.159 52.8986 102.218 61.1485 100.594 63.762V63.7756Z" fill="#040047"/>
<path d="M107.287 64.0964L106.202 68.8252C106.202 68.8252 105.629 71.7936 108.788 71.5206C109.721 71.4306 110.622 71.134 111.425 70.6524C112.229 70.1709 112.916 69.5164 113.435 68.7365L114.704 60.1386C114.759 59.777 115.277 56.2218 115.926 53.1033C112.295 52.3527 109.102 51.4315 109.102 51.4315C109.395 51.8546 108.085 51.6635 108.085 51.6703C107.504 51.5517 106.907 51.5286 106.318 51.6021C105.711 53.6492 104.721 55.8465 104.373 57.9345C104.146 59.184 104.034 60.4518 104.039 61.7217C104.08 64.1305 107.287 64.0964 107.287 64.0964Z" fill="white"/>
<path d="M108.394 71.8479C108.034 71.8726 107.674 71.8195 107.337 71.6923C107.001 71.5652 106.695 71.3669 106.442 71.111C106.193 70.7803 106.016 70.4013 105.922 69.9983C105.828 69.5953 105.819 69.1771 105.896 68.7704L106.899 64.3964C105.637 64.3009 103.76 63.6663 103.726 61.7215C103.717 60.4355 103.829 59.1516 104.06 57.8866C104.342 56.4712 104.746 55.083 105.268 53.7377C105.528 53.0008 105.794 52.2433 106.012 51.5132C106.029 51.4563 106.061 51.4054 106.106 51.3667C106.151 51.328 106.206 51.303 106.265 51.2948C106.887 51.2169 107.518 51.2376 108.134 51.3562C108.361 51.379 108.59 51.379 108.817 51.3562C108.825 51.3073 108.843 51.2607 108.871 51.2198C108.907 51.1691 108.958 51.1304 109.016 51.1085C109.075 51.0866 109.138 51.0826 109.199 51.0969C109.233 51.0969 112.426 52.025 116.022 52.7619C116.064 52.7681 116.103 52.7835 116.137 52.8072C116.172 52.8309 116.2 52.8621 116.22 52.8984C116.243 52.932 116.259 52.9698 116.268 53.0096C116.276 53.0494 116.276 53.0905 116.268 53.1304C115.702 55.8599 115.238 58.9033 115.06 60.0974C115.06 60.0974 115.06 60.0974 113.777 68.7499C113.774 68.7895 113.76 68.8273 113.737 68.8591C113.196 69.685 112.476 70.3779 111.63 70.8861C110.784 71.3942 109.834 71.7044 108.851 71.7933L108.394 71.8479ZM106.503 68.9001C106.449 69.2114 106.458 69.5304 106.528 69.8384C106.599 70.1465 106.729 70.4375 106.913 70.6947C107.159 70.9197 107.455 71.0834 107.776 71.1723C108.097 71.2613 108.435 71.273 108.762 71.2065C109.635 71.1204 110.478 70.845 111.234 70.3995C111.989 69.954 112.638 69.3492 113.136 68.6271C113.259 67.8356 114.385 60.1793 114.398 60.0974C114.576 58.8828 115.019 56.0032 115.558 53.3419C112.747 52.7551 110.222 52.0727 109.342 51.8271C109.233 51.9431 108.96 52.1 108.039 51.9772C107.549 51.8781 107.049 51.8482 106.551 51.8885C106.34 52.5709 106.094 53.2532 105.869 53.9356C105.35 55.2501 104.944 56.606 104.654 57.9889C104.428 59.2178 104.319 60.4652 104.327 61.7147C104.368 63.7618 107.145 63.7618 107.268 63.7618C107.315 63.7599 107.362 63.7695 107.405 63.7897C107.447 63.8099 107.485 63.8401 107.513 63.8778C107.542 63.915 107.562 63.9584 107.572 64.0045C107.581 64.0506 107.58 64.0983 107.568 64.1439L106.483 68.8728L106.503 68.9001Z" fill="#040047"/>
<path d="M109.075 56.7609C109.075 56.7609 107.028 58.808 107.342 59.3129C107.656 59.8179 108.748 59.7224 108.748 59.7224" fill="white"/>
<path d="M108.563 60.1045C108.16 60.1045 107.369 60.0363 107.055 59.5245C106.741 59.0127 107.362 58.0574 108.829 56.5562C108.861 56.5239 108.898 56.4981 108.939 56.4803C108.981 56.4625 109.025 56.4531 109.07 56.4524C109.115 56.4518 109.16 56.46 109.202 56.4767C109.243 56.4933 109.281 56.518 109.314 56.5494C109.346 56.5807 109.372 56.6181 109.39 56.6594C109.407 56.7008 109.417 56.7452 109.417 56.7902C109.418 56.8352 109.41 56.8798 109.393 56.9217C109.377 56.9635 109.352 57.0016 109.321 57.0338C108.633 57.6528 108.068 58.3959 107.656 59.2243C107.758 59.3676 108.338 59.4358 108.727 59.4153C108.816 59.4114 108.903 59.4418 108.97 59.5002C109.038 59.5586 109.08 59.6405 109.089 59.7292C109.092 59.7746 109.087 59.8202 109.073 59.8635C109.058 59.9067 109.036 59.9467 109.006 59.9811C108.976 60.0154 108.94 60.0434 108.899 60.0634C108.858 60.0835 108.813 60.0951 108.768 60.0977L108.563 60.1045Z" fill="#040047"/>
<path d="M107.567 55.9333C107.631 55.6542 107.561 55.3999 107.41 55.3653C107.26 55.3307 107.086 55.5289 107.021 55.808C106.957 56.0872 107.027 56.3415 107.178 56.3761C107.329 56.4107 107.503 56.2125 107.567 55.9333Z" fill="#040047"/>
<path d="M111.432 57.0264C111.496 56.7472 111.426 56.4929 111.275 56.4583C111.125 56.4237 110.951 56.6219 110.887 56.9011C110.823 57.1802 110.893 57.4345 111.043 57.4691C111.194 57.5037 111.368 57.3055 111.432 57.0264Z" fill="#040047"/>
<path d="M108.174 54.6456L108.686 53.6629L109.048 54.823L112.098 55.7305L112.944 54.4681L112.856 56.1741L114.459 56.3378C114.459 56.3378 111.436 63.844 111.552 68.5523C111.552 68.5523 120.614 71.0567 122.961 69.4394C122.961 69.4394 120.389 60.166 120.505 56.4743C120.621 52.7827 120.403 49.6096 115.994 47.9037C111.586 46.1978 108.406 46.7368 106.093 48.7498C105.406 49.3762 104.855 50.1363 104.472 50.9835C104.09 51.8307 103.884 52.7472 103.869 53.6766C103.869 53.6766 107.253 54.5841 108.174 54.6456Z" fill="white"/>
<path d="M120.244 70.3402C116.702 70.3402 111.735 68.9754 111.462 68.9072C111.389 68.8913 111.324 68.8507 111.278 68.7922C111.232 68.7336 111.208 68.6609 111.209 68.5865C111.107 64.4922 113.338 58.3508 113.939 56.6586L112.779 56.5426C112.692 56.5339 112.613 56.492 112.557 56.4258C112.501 56.3596 112.473 56.2743 112.479 56.1877V55.7101L112.322 55.9489C112.282 56.009 112.224 56.0547 112.157 56.0793C112.089 56.1039 112.015 56.106 111.946 56.0854L108.896 55.1778C108.842 55.1618 108.793 55.133 108.752 55.0938C108.712 55.0546 108.682 55.0061 108.664 54.9526L108.548 54.5841L108.418 54.8298C108.388 54.891 108.34 54.9414 108.28 54.9743C108.22 55.0073 108.152 55.0211 108.084 55.014C107.149 54.9253 103.86 54.0519 103.724 54.0109C103.652 53.9929 103.588 53.9516 103.543 53.8936C103.497 53.8356 103.472 53.7641 103.471 53.6902C103.482 52.7094 103.696 51.7414 104.1 50.8476C104.504 49.9537 105.089 49.1534 105.819 48.4974C108.384 46.2592 111.83 45.9521 116.054 47.5898C120.633 49.364 120.906 52.6735 120.783 56.4607C120.667 60.0841 123.205 69.2552 123.233 69.3439C123.249 69.4129 123.245 69.4854 123.221 69.5521C123.197 69.6188 123.153 69.6769 123.096 69.7192C122.219 70.1813 121.233 70.3959 120.244 70.3402V70.3402ZM111.885 68.293C114.451 68.9754 120.558 70.2719 122.564 69.2757C122.141 67.7335 120.053 59.8657 120.162 56.4402C120.278 52.7622 120.032 49.8143 115.87 48.2039C111.837 46.6413 108.712 46.8938 106.317 48.9887C105.07 50.1292 104.316 51.7102 104.215 53.3968C104.952 53.5879 107.06 54.1338 107.982 54.2771L108.384 53.506C108.414 53.446 108.461 53.3963 108.52 53.3635C108.578 53.3306 108.645 53.3161 108.712 53.3217C108.78 53.3277 108.844 53.3536 108.898 53.396C108.951 53.4385 108.991 53.4957 109.012 53.5606L109.319 54.55L111.953 55.3279L112.635 54.2771C112.677 54.215 112.737 54.1681 112.807 54.1435C112.877 54.1188 112.954 54.1178 113.024 54.1406C113.096 54.1631 113.159 54.2088 113.202 54.2705C113.245 54.3322 113.267 54.4065 113.263 54.4818L113.188 55.8465L114.471 55.9762C114.523 55.9833 114.572 56.0017 114.616 56.03C114.659 56.0583 114.696 56.0958 114.724 56.14C114.749 56.1872 114.762 56.24 114.762 56.2935C114.762 56.347 114.749 56.3997 114.724 56.447C114.744 56.563 111.885 63.7484 111.885 68.293Z" fill="#040047"/>
<path d="M105.68 60.2067C105.68 60.2067 107.993 62.9839 110.279 60.077Z" fill="white"/>
<path d="M108.003 61.7487C107.505 61.711 107.02 61.5745 106.576 61.3472C106.132 61.1199 105.738 60.8064 105.416 60.4249C105.381 60.3919 105.354 60.3518 105.335 60.3074C105.317 60.263 105.308 60.2152 105.31 60.1672C105.311 60.1191 105.323 60.0719 105.344 60.0287C105.364 59.9854 105.394 59.947 105.431 59.916C105.468 59.8851 105.511 59.8622 105.557 59.849C105.603 59.8358 105.652 59.8325 105.699 59.8393C105.747 59.8461 105.792 59.8629 105.833 59.8885C105.874 59.9142 105.908 59.9482 105.935 59.9882C106.456 60.5935 107.188 60.9787 107.982 61.0663H108.064C108.461 61.0276 108.844 60.8994 109.184 60.6914C109.525 60.4834 109.814 60.201 110.029 59.8654C110.085 59.7939 110.167 59.7476 110.258 59.7367C110.348 59.7258 110.439 59.7513 110.51 59.8074C110.582 59.8635 110.628 59.9457 110.639 60.0359C110.65 60.1261 110.624 60.2169 110.568 60.2884C110.29 60.7057 109.921 61.0542 109.488 61.3072C109.056 61.5603 108.571 61.7113 108.071 61.7487H108.003Z" fill="#040047"/>
<path d="M107.286 64.0964C107.286 64.0964 109.818 64.035 110.896 63.373C110.896 63.373 109.34 66.6826 106.454 67.7198L107.286 64.0964Z" fill="#040047"/>
<path d="M106.456 68.0608C106.374 68.0617 106.294 68.0326 106.231 67.979C106.184 67.9384 106.149 67.8858 106.13 67.8269C106.111 67.768 106.108 67.705 106.122 67.6446L106.954 64.0212C106.971 63.9472 107.013 63.8812 107.073 63.8341C107.132 63.787 107.206 63.7615 107.282 63.7619C107.282 63.7619 109.732 63.6868 110.694 63.0795C110.757 63.042 110.829 63.0257 110.902 63.0327C110.975 63.0398 111.043 63.07 111.097 63.1189C111.152 63.1678 111.189 63.2327 111.203 63.3042C111.218 63.3758 111.209 63.4501 111.178 63.5162C111.117 63.6527 109.534 66.9281 106.545 68.0335C106.517 68.0466 106.487 68.0557 106.456 68.0608ZM107.562 64.4306L106.934 67.1601C108.248 66.4238 109.349 65.3586 110.127 64.0689C109.286 64.273 108.427 64.3941 107.562 64.4306Z" fill="#040047"/>
<path d="M146.519 74.0589C146.47 74.0716 146.418 74.0716 146.369 74.0589C146.329 74.0393 146.292 74.0118 146.263 73.9782C146.233 73.9446 146.21 73.9054 146.196 73.8629C146.181 73.8204 146.175 73.7755 146.178 73.7307C146.181 73.6859 146.192 73.642 146.212 73.6017C146.42 73.1915 146.523 72.736 146.511 72.2761C146.499 71.8163 146.373 71.3666 146.144 70.9678C146.095 70.8917 146.078 70.7994 146.098 70.7112C146.117 70.6229 146.17 70.5459 146.246 70.4969C146.283 70.4719 146.326 70.4546 146.37 70.4462C146.414 70.4378 146.459 70.4384 146.503 70.4479C146.547 70.4575 146.589 70.4758 146.626 70.5018C146.662 70.5278 146.693 70.561 146.717 70.5993C147.013 71.0955 147.179 71.6588 147.198 72.2365C147.217 72.8142 147.089 73.3873 146.826 73.902C146.794 73.9536 146.749 73.9954 146.694 74.0231C146.64 74.0507 146.58 74.0631 146.519 74.0589V74.0589Z" fill="#040047"/>
<path d="M122.757 87.3517C122.757 87.3517 118.663 82.1315 116.056 78.8903Z" fill="white"/>
<path d="M122.759 87.6928C122.706 87.6936 122.655 87.6824 122.607 87.6599C122.56 87.6374 122.518 87.6043 122.486 87.5632C122.445 87.5154 118.392 82.3089 115.792 79.1086C115.735 79.038 115.708 78.9476 115.718 78.8574C115.727 78.7672 115.772 78.6845 115.843 78.6275C115.914 78.5705 116.004 78.5438 116.094 78.5534C116.184 78.563 116.267 78.6081 116.324 78.6787C118.91 81.8858 122.984 87.0923 123.025 87.1469C123.08 87.2185 123.104 87.3089 123.093 87.3984C123.081 87.488 123.035 87.5693 122.964 87.6246C122.905 87.6693 122.833 87.6933 122.759 87.6928V87.6928Z" fill="#040047"/>
<path d="M98.8674 97.8534C98.8226 97.8516 98.7785 97.841 98.7378 97.8222C98.6971 97.8034 98.6605 97.7768 98.63 97.7439C98.5996 97.7109 98.576 97.6723 98.5605 97.6302C98.545 97.5881 98.538 97.5433 98.5398 97.4985L99.0857 75.7649C99.0857 75.6744 99.1217 75.5876 99.1857 75.5236C99.2497 75.4597 99.3364 75.4237 99.4269 75.4237C99.5174 75.4237 99.6042 75.4597 99.6682 75.5236C99.7322 75.5876 99.7681 75.6744 99.7681 75.7649L99.2222 97.4985C99.2231 97.5454 99.2146 97.5919 99.1971 97.6354C99.1796 97.6789 99.1535 97.7184 99.1204 97.7515C99.0872 97.7846 99.0477 97.8107 99.0043 97.8282C98.9608 97.8457 98.9142 97.8543 98.8674 97.8534V97.8534Z" fill="#040047"/>
<path d="M139.967 48.3198C153.153 48.3198 163.843 37.63 163.843 24.4435C163.843 11.257 153.153 0.567261 139.967 0.567261C126.78 0.567261 116.09 11.257 116.09 24.4435C116.09 37.63 126.78 48.3198 139.967 48.3198Z" fill="#6EBD4A"/>
<path d="M148.156 17.3127L151.015 13.8599C149.952 12.6828 148.646 11.7514 147.187 11.1304C145.6 10.4442 143.877 10.1282 142.15 10.2062C140.423 10.2842 138.736 10.7543 137.217 11.5807C133.969 13.1911 132.086 15.9616 131.021 19.3462C130.673 20.4448 130.68 20.4448 129.506 20.4516H126.265V23.6656H130.284V25.3033H126.272V28.5309H130.646C132.011 33.908 134.952 37.6338 140.629 38.555C142.639 38.9534 144.72 38.7926 146.646 38.0899C148.571 37.3872 150.266 36.1697 151.547 34.5699L148.702 31.2126C147.412 32.5365 146.047 33.6624 144.205 33.9421C143.323 34.1272 142.413 34.1313 141.53 33.9542C140.647 33.7771 139.809 33.4224 139.066 32.9118C137.615 31.8152 136.592 30.2465 136.173 28.4763H146.477V25.2555H135.736V23.611H146.477V20.4038H136.241C137.006 17.9678 138.336 16.0708 140.759 15.2314C143.625 14.2283 146.061 15.1086 148.156 17.3127Z" fill="white"/>
<path d="M139.964 44.9831C135.901 44.9831 131.93 43.7785 128.553 41.5216C125.175 39.2647 122.542 36.0569 120.988 32.3038C119.433 28.5507 119.026 24.4209 119.819 20.4366C120.612 16.4523 122.568 12.7926 125.44 9.92005C128.313 7.04756 131.972 5.09136 135.957 4.29884C139.941 3.50632 144.071 3.91307 147.824 5.46766C151.577 7.02224 154.785 9.65484 157.042 13.0325C159.299 16.4102 160.503 20.3813 160.503 24.4436C160.494 29.8883 158.327 35.1073 154.477 38.9573C150.627 42.8072 145.408 44.9741 139.964 44.9831V44.9831ZM139.964 4.58656C136.036 4.58656 132.197 5.75116 128.932 7.93308C125.666 10.115 123.121 13.2163 121.618 16.8447C120.115 20.4731 119.722 24.4657 120.488 28.3176C121.254 32.1695 123.146 35.7077 125.923 38.4847C128.7 41.2618 132.238 43.153 136.09 43.9192C139.942 44.6854 143.934 44.2921 147.563 42.7892C151.191 41.2863 154.292 38.7411 156.474 35.4757C158.656 32.2102 159.821 28.371 159.821 24.4436C159.814 19.1794 157.719 14.1329 153.997 10.4105C150.275 6.68818 145.228 4.59378 139.964 4.58656V4.58656Z" fill="white"/>
<path d="M78.8963 48.3198C92.0828 48.3198 102.773 37.63 102.773 24.4435C102.773 11.257 92.0828 0.567261 78.8963 0.567261C65.7098 0.567261 55.02 11.257 55.02 24.4435C55.02 37.63 65.7098 48.3198 78.8963 48.3198Z" fill="#6EBD4A"/>
<path d="M76.546 32.0588C77.0212 31.1575 77.3096 30.1696 77.394 29.1542C77.4784 28.1389 77.3571 27.1169 77.0374 26.1495H80.8314V22.9969C79.337 22.9969 77.8835 22.9423 76.4369 22.9969C76.1457 23.0431 75.8476 22.9831 75.5971 22.8277C75.3465 22.6724 75.1602 22.4321 75.0721 22.1508C73.8848 19.6737 74.1987 17.1763 76.0479 15.327C77.8972 13.4778 80.8245 13.1025 82.7693 15.5044C83.4145 16.3782 84.0069 17.2896 84.5435 18.2339C84.7209 18.5205 84.8505 18.8276 85.0143 19.1415L89.1086 17.3537C88.5763 16.3983 88.0986 15.4635 87.5596 14.5764C86.6035 12.8704 85.184 11.4698 83.4653 10.5368C80.1012 8.85129 76.8531 9.26071 73.9121 11.4648C72.4688 12.4719 71.3402 13.8671 70.6567 15.4888C69.9732 17.1106 69.7628 18.8927 70.0498 20.6291C70.1454 21.3933 70.3706 22.1439 70.5548 22.9628H67.6138V26.1222C69.0399 26.1222 70.4251 26.1222 71.8104 26.1222C71.9673 26.1222 72.2198 26.1631 72.2676 26.2655C72.6906 27.1253 73.1615 28.0055 72.909 28.995C72.6424 30.1501 72.1013 31.2238 71.3316 32.1254C70.5618 33.027 69.5862 33.7297 68.4872 34.1742L68.2006 34.3243L69.6541 38.2684C69.8929 38.1797 70.084 38.1252 70.2546 38.0501C71.0256 37.6953 71.7763 37.2927 72.561 36.9788C74.4648 36.2213 76.4028 35.9552 78.3543 36.8286C78.8457 37.047 79.3438 37.2449 79.8419 37.4564C82.8034 38.7188 85.4306 37.8113 88.0304 36.2486C87.3549 34.8566 86.7407 33.4918 86.1198 32.1271C85.7786 32.3318 85.5056 32.516 85.219 32.6662C83.9566 33.3485 82.626 33.8467 81.1998 33.3485C79.7737 32.8504 78.2452 32.1271 76.546 32.0588Z" fill="white"/>
<path d="M78.8959 44.9831C74.8339 44.9818 70.8635 43.776 67.4867 41.5183C64.1099 39.2606 61.4783 36.0523 59.9248 32.299C58.3713 28.5458 57.9655 24.4162 58.7588 20.4324C59.5521 16.4486 61.5088 12.7895 64.3816 9.91764C67.2543 7.04583 70.9141 5.09031 74.8982 4.29835C78.8823 3.50638 83.0117 3.91353 86.7644 5.46831C90.5171 7.02309 93.7246 9.65569 95.9812 13.0332C98.2378 16.4108 99.4422 20.3816 99.4422 24.4437C99.435 29.89 97.2678 35.1112 93.416 38.9617C89.5642 42.8122 84.3423 44.9777 78.8959 44.9831ZM78.8959 4.58656C74.9689 4.58791 71.1304 5.75365 67.8658 7.9364C64.6012 10.1191 62.0571 13.2209 60.5552 16.8494C59.0533 20.4779 58.6611 24.4703 59.428 28.3218C60.195 32.1732 62.0867 35.7108 64.8641 38.4871C67.6414 41.2635 71.1796 43.1541 75.0313 43.9197C78.8831 44.6853 82.8753 44.2917 86.5033 42.7886C90.1313 41.2854 93.2322 38.7403 95.4138 35.475C97.5954 32.2096 98.7599 28.3707 98.7599 24.4437C98.7544 19.1777 96.6597 14.1291 92.9354 10.4061C89.2112 6.68319 84.1619 4.59017 78.8959 4.58656V4.58656Z" fill="white"/>
<path d="M35.4061 86.4579C48.5926 86.4579 59.2823 75.7681 59.2823 62.5816C59.2823 49.3951 48.5926 38.7053 35.4061 38.7053C22.2196 38.7053 11.5298 49.3951 11.5298 62.5816C11.5298 75.7681 22.2196 86.4579 35.4061 86.4579Z" fill="#6EBD4A"/>
<path d="M41.3585 62.3768C40.2736 61.791 39.16 61.2604 38.0217 60.7868C37.9089 60.754 37.8111 60.6829 37.7451 60.5858C37.6791 60.4886 37.649 60.3715 37.66 60.2546C37.66 58.2962 37.66 56.3378 37.66 54.3793C37.6691 54.2945 37.6828 54.2102 37.701 54.1269C39.127 54.5789 40.4078 55.4006 41.4131 56.5083C42.3752 55.3961 43.276 54.3384 44.1972 53.2671C42.5833 51.4566 40.4303 50.2127 38.0558 49.7187C37.7146 49.6437 37.6054 49.5208 37.6191 49.1728C37.6191 48.4904 37.6191 47.8081 37.6191 47.037H34.0707V49.4594C33.1435 49.7259 32.2322 50.0449 31.3412 50.4147C28.8301 51.6567 27.247 53.6014 27.1173 56.5083C26.9877 59.4153 28.3661 61.3737 30.7544 62.7521C31.7274 63.2772 32.7274 63.751 33.75 64.1714C33.8642 64.2018 33.9637 64.2723 34.0301 64.3701C34.0965 64.4678 34.1255 64.5863 34.1117 64.7037C34.1117 66.3277 34.1117 67.9381 34.1117 69.5553V71.6366C32.2322 71.2682 30.5078 70.3406 29.1645 68.9753L26.1074 72.319C28.2477 74.4576 31.0656 75.7846 34.0776 76.072V78.1191H37.66V75.9424L38.1718 75.8127C39.2512 75.5598 40.2833 75.1359 41.2288 74.5571C45.7257 71.8003 45.9713 65.1267 41.3585 62.3768ZM34.0503 58.9649C33.4661 58.8266 32.9426 58.5023 32.5586 58.0408C32.1746 57.5793 31.951 57.0056 31.9213 56.406C31.9371 55.827 32.161 55.273 32.552 54.8457C32.943 54.4183 33.4749 54.1462 34.0503 54.0791V58.9649ZM37.6941 71.3295C37.6941 71.234 37.66 71.1384 37.66 71.0429V65.9456C38.2752 66.0874 38.8233 66.4355 39.2131 66.9321C39.603 67.4287 39.811 68.0438 39.8027 68.6751C39.8065 69.2939 39.5999 69.8957 39.2168 70.3818C38.8337 70.8678 38.2968 71.2092 37.6941 71.35V71.3295Z" fill="white"/>
<path d="M35.4081 83.1212C31.3458 83.1212 27.3747 81.9166 23.997 79.6597C20.6193 77.4028 17.9867 74.1949 16.4321 70.4418C14.8776 66.6887 14.4708 62.5589 15.2633 58.5747C16.0558 54.5904 18.012 50.9306 20.8845 48.0581C23.757 45.1856 27.4168 43.2294 31.4011 42.4369C35.3853 41.6444 39.5151 42.0511 43.2682 43.6057C47.0213 45.1603 50.2292 47.7929 52.4861 51.1706C54.743 54.5483 55.9476 58.5194 55.9476 62.5817C55.9404 68.0269 53.7741 73.247 49.9238 77.0973C46.0734 80.9477 40.8533 83.114 35.4081 83.1212ZM35.4081 42.7246C31.4808 42.7246 27.6416 43.8892 24.3761 46.0711C21.1106 48.2531 18.5655 51.3543 17.0626 54.9827C15.5596 58.6111 15.1664 62.6037 15.9326 66.4556C16.6988 70.3075 18.59 73.8457 21.367 76.6228C24.1441 79.3999 27.6823 81.2911 31.5342 82.0573C35.3861 82.8235 39.3787 82.4302 43.0071 80.9273C46.6355 79.4243 49.7368 76.8792 51.9187 73.6137C54.1006 70.3482 55.2652 66.5091 55.2652 62.5817C55.2598 57.3169 53.166 52.2694 49.4432 48.5466C45.7205 44.8239 40.6729 42.73 35.4081 42.7246V42.7246Z" fill="white"/>
<path d="M183.454 86.4579C196.641 86.4579 207.331 75.7681 207.331 62.5816C207.331 49.3951 196.641 38.7053 183.454 38.7053C170.268 38.7053 159.578 49.3951 159.578 62.5816C159.578 75.7681 170.268 86.4579 183.454 86.4579Z" fill="#6EBD4A"/>
<path d="M194.271 50.2715L187.311 63.1957H193.043V66.2459H186.437V67.7744H193.036V70.8246H186.424V78.0509H180.528V70.8792H173.895V67.8222H180.494V66.2459H173.902V63.2093H179.627C177.28 58.8626 174.98 54.5909 172.646 50.2442H175.458C176.502 50.2442 177.546 50.2442 178.59 50.2442C178.707 50.227 178.826 50.2538 178.924 50.3194C179.023 50.3849 179.093 50.4845 179.122 50.599C180.487 53.7834 181.863 56.9497 183.251 60.0977C183.305 60.2273 183.373 60.3433 183.483 60.5617C183.605 60.3092 183.687 60.1591 183.756 60.0021C185.148 56.8769 186.542 53.7539 187.938 50.6331C188.014 50.4762 188.211 50.2647 188.355 50.2578C190.3 50.2647 192.237 50.2715 194.271 50.2715Z" fill="white"/>
<path d="M183.456 83.1212C179.394 83.1212 175.423 81.9166 172.045 79.6597C168.667 77.4028 166.035 74.1949 164.48 70.4418C162.925 66.6887 162.519 62.5589 163.311 58.5747C164.104 54.5904 166.06 50.9306 168.932 48.0581C171.805 45.1856 175.465 43.2294 179.449 42.4369C183.433 41.6444 187.563 42.0511 191.316 43.6057C195.069 45.1603 198.277 47.7929 200.534 51.1706C202.791 54.5483 203.995 58.5194 203.995 62.5817C203.988 68.0269 201.822 73.247 197.972 77.0973C194.121 80.9477 188.901 83.114 183.456 83.1212ZM183.456 42.7246C179.529 42.7246 175.689 43.8892 172.424 46.0711C169.158 48.2531 166.613 51.3543 165.11 54.9827C163.607 58.6111 163.214 62.6037 163.98 66.4556C164.747 70.3075 166.638 73.8457 169.415 76.6228C172.192 79.3999 175.73 81.2911 179.582 82.0573C183.434 82.8235 187.427 82.4302 191.055 80.9273C194.683 79.4243 197.785 76.8792 199.967 73.6137C202.148 70.3482 203.313 66.5091 203.313 62.5817C203.308 57.3169 201.214 52.2694 197.491 48.5466C193.768 44.8239 188.721 42.73 183.456 42.7246V42.7246Z" fill="white"/>
</g>
<defs>
<clipPath id="clip0_1_14262">
<rect width="217.139" height="160.361" fill="white" transform="translate(0.86084 0.819702)"/>
</clipPath>
</defs>
</svg>
