<svg width="150" height="161" viewBox="0 0 150 161" fill="none" xmlns="http://www.w3.org/2000/svg">
<path d="M58.5218 9.7475C62.1529 3.01077 68.0139 -1.65778 76.711 1.1447C77.4779 1.45295 78.2819 1.65907 79.1025 1.75774C79.9363 1.70885 80.7664 1.60987 81.5884 1.46133C85.5092 1.13796 88.4059 4.93748 90.3124 8.37321C93.856 14.7798 100.33 23.477 99.0702 31.177C98.0934 37.1458 92.4817 41.2821 86.8161 43.3705C80.4277 45.7267 73.5309 46.3564 66.8215 45.1962C63.4531 44.6168 59.9702 43.485 57.545 41.0396C54.1766 37.6308 53.5029 32.3829 53.7589 27.5662C54.116 22.1835 55.5644 15.2649 58.5218 9.7475Z" fill="white"/>
<path d="M73.363 46.0921C71.1525 46.0919 68.946 45.9026 66.7678 45.5262C62.5169 44.7987 59.4315 43.4109 57.3363 41.2821C54.3924 38.3247 53.0855 33.7437 53.4425 27.5998C53.8265 21.2268 55.6185 14.4969 58.2458 9.60599C61.3245 3.87977 67.0372 -2.29107 76.7785 0.848244L77.2434 1.00993C77.8357 1.23979 78.4568 1.38713 79.0892 1.44781C79.5737 1.4504 80.0571 1.40071 80.5309 1.29961C80.8543 1.24571 81.2046 1.18508 81.5347 1.15814C84.7616 0.881929 87.8066 3.26673 90.5551 8.22496C91.1884 9.37021 91.9025 10.5828 92.6772 11.8695C96.1197 17.6294 100.404 24.7973 99.3466 31.2309C98.5045 36.4384 93.8629 41.0867 86.9038 43.6602C82.571 45.2703 77.9854 46.0939 73.363 46.0921ZM58.8319 9.89567C56.245 14.7124 54.4732 21.3481 54.1162 27.6335C53.7591 33.5753 55.0054 38.0215 57.8079 40.8509C59.8289 42.872 62.7998 44.2193 66.916 44.893C73.5685 46.038 80.4055 45.4059 86.7354 43.0606C93.4721 40.5613 97.979 36.0881 98.7942 31.1029C99.8114 24.8984 95.5942 17.8315 92.2056 12.1525C91.4376 10.8658 90.7101 9.65315 90.0701 8.50117C87.4495 3.78546 84.6133 1.50171 81.6425 1.76444C81.3258 1.76444 81.0159 1.84528 80.6926 1.89917C80.1507 2.01965 79.5972 2.08064 79.0421 2.08107C78.3489 2.01993 77.6681 1.85883 77.0211 1.60276L76.563 1.44781C67.2259 -1.5635 61.7421 4.39176 58.7645 9.90914L58.8319 9.89567Z" fill="#040047"/>
<path d="M147.945 106.083C147.945 106.083 113.588 56.6418 106.46 50.1678C96.2071 40.8981 59.8153 38.9646 52.4251 40.8711C39.3558 44.2395 30.2612 64.6518 30.2612 64.6518L51.94 71.1325C51.9872 87.9002 53.6646 105.49 53.6646 105.49L147.945 106.083Z" fill="#FFE11B"/>
<path d="M36.8094 19.0374C36.8903 18.8084 36.7353 14.4565 35.5362 12.1256C34.337 9.79465 34.5055 9.39044 35.4755 8.63593C36.4456 7.88141 37.4966 8.63593 38.9921 10.5155C40.4877 12.395 40.8649 15.2783 40.4944 17.3802L36.8094 19.0374Z" fill="white"/>
<path d="M36.8096 19.3742C36.7588 19.3737 36.7087 19.3616 36.6632 19.339C36.6178 19.3164 36.578 19.2838 36.5469 19.2436C36.5158 19.2034 36.4941 19.1567 36.4836 19.107C36.4731 19.0573 36.474 19.0059 36.4862 18.9565C36.5334 18.5591 36.365 14.4699 35.2399 12.2805C34.1149 10.091 34.061 9.30282 35.2736 8.36641C36.6614 7.30201 38.0559 8.8043 39.255 10.3066C40.8584 12.3276 41.2019 15.3322 40.8247 17.4408C40.814 17.4948 40.7907 17.5454 40.7568 17.5888C40.7228 17.6321 40.6792 17.6668 40.6293 17.69L36.9511 19.3405C36.9066 19.3612 36.8585 19.3726 36.8096 19.3742ZM36.2572 8.68304C36.0465 8.68959 35.8444 8.76804 35.6845 8.90535C34.9166 9.49145 34.6606 9.69355 35.8328 11.9706C36.8298 13.904 37.1329 17.1376 37.1801 18.5119L40.2116 17.1646C40.508 15.2177 40.1779 12.5297 38.7498 10.7377C37.5035 9.19503 36.7894 8.68304 36.2572 8.68304Z" fill="#040047"/>
<path d="M34.7077 34.4982C34.8626 34.2759 35.0849 18.5861 35.6104 18.2088C36.1359 17.8316 42.2932 15.9587 44.9947 15.9587C47.6961 15.9587 48.363 17.0838 47.3997 18.1347C47.3997 18.1347 50.5525 19.5629 48.4506 22.2643C48.4506 22.2643 50.2493 24.1371 48.4506 25.9426C49.9057 27.8895 48.4506 30.3753 46.8809 31.7092C45.062 33.2182 42.4684 33.1846 42.4819 35.8523C42.5155 45.3309 43.3644 54.9038 42.6705 64.3756C42.2191 70.533 38.6285 79.3918 32.2353 77.8895C25.8421 76.3872 25.4043 64.6047 27.2771 58.353C29.1499 52.1013 34.7077 34.4982 34.7077 34.4982Z" fill="white"/>
<path d="M33.65 78.3947C33.1465 78.3924 32.6449 78.3336 32.1545 78.2195C31.2599 77.9849 30.4251 77.5634 29.7052 76.9828C28.9853 76.4022 28.3965 75.6758 27.9777 74.8512C25.4986 70.5666 25.5121 63.0484 26.9537 58.2586C28.813 52.1012 34.3641 34.5588 34.3641 34.3836C34.4113 34.1074 34.4719 32.0999 34.5393 29.9846C34.8761 19.327 35.0513 18.1683 35.3881 17.9258C35.9472 17.5283 42.1989 15.6151 44.9677 15.6151C46.6182 15.6151 47.7096 16.0261 48.0329 16.7738C48.1164 16.9774 48.146 17.199 48.1188 17.4173C48.0917 17.6356 48.0087 17.8432 47.878 18.0201C48.611 18.4341 49.1598 19.1106 49.414 19.9131C49.496 20.3179 49.4885 20.7357 49.3919 21.1372C49.2953 21.5387 49.112 21.9142 48.8548 22.2373C49.3045 22.7537 49.5523 23.4153 49.5523 24.1C49.5523 24.7848 49.3045 25.4464 48.8548 25.9627C50.0809 27.9164 48.9222 30.4224 47.0696 31.9584C46.4615 32.4294 45.7987 32.8253 45.0957 33.1373C43.8023 33.7639 42.785 34.2624 42.7918 35.832C42.7918 39.0993 42.913 42.4408 43.0208 45.6744C43.334 51.9068 43.3205 58.1513 42.9804 64.3823C42.657 68.741 40.7505 74.5817 37.3081 77.108C36.2594 77.9201 34.9762 78.3714 33.65 78.3947ZM34.9974 34.606C34.7481 35.4009 29.3924 52.4044 27.587 58.4472C26.1857 63.1023 26.1655 70.378 28.5503 74.5076C28.9248 75.249 29.4523 75.9025 30.098 76.4251C30.7436 76.9477 31.4928 77.3273 32.2959 77.5391C33.0894 77.7388 33.9178 77.7553 34.7185 77.5872C35.5193 77.4191 36.2712 77.0709 36.9173 76.569C40.1914 74.164 42.0103 68.5389 42.3067 64.3351C42.6468 58.1266 42.6603 51.9045 42.3471 45.6946C42.2394 42.461 42.1248 39.1128 42.1181 35.832C42.1181 33.811 43.4654 33.1373 44.8128 32.5176C45.4678 32.2297 46.0854 31.8632 46.6519 31.4262C47.9993 30.3012 49.542 27.9568 48.1677 26.1244C48.115 26.0623 48.0861 25.9835 48.0861 25.9021C48.0861 25.8207 48.115 25.7419 48.1677 25.6798C49.7104 24.1438 48.2283 22.5405 48.1677 22.4731C48.1155 22.4121 48.0868 22.3344 48.0868 22.2542C48.0868 22.1739 48.1155 22.0962 48.1677 22.0352C48.4139 21.7765 48.5968 21.4642 48.702 21.1229C48.8072 20.7816 48.8318 20.4205 48.774 20.0681C48.501 19.3383 47.9516 18.7454 47.2447 18.4176C47.1962 18.3971 47.1534 18.3648 47.1205 18.3236C47.0876 18.2825 47.0654 18.2337 47.0561 18.1818C47.0451 18.1295 47.0467 18.0754 47.0608 18.0238C47.0748 17.9723 47.1009 17.9248 47.137 17.8854C47.3054 17.7035 47.5681 17.3465 47.4334 17.0298C47.2986 16.7132 46.5441 16.2753 44.9812 16.2753C42.3876 16.2753 36.594 18.0471 35.8462 18.4311C35.5633 19.3001 35.3477 26.2322 35.2264 29.9913C35.1119 33.939 35.085 34.4645 35.0243 34.6262L34.9974 34.606Z" fill="#040047"/>
<path d="M42.4414 19.3742C42.3521 19.3876 42.2611 19.365 42.1884 19.3113C42.1158 19.2576 42.0675 19.1773 42.0541 19.0879C42.0407 18.9986 42.0633 18.9076 42.117 18.835C42.1707 18.7623 42.251 18.714 42.3404 18.7006C44.0003 18.298 45.683 17.9965 47.3794 17.7978C47.4679 17.7864 47.5572 17.8104 47.6279 17.8647C47.6987 17.919 47.745 17.9991 47.7567 18.0875C47.7633 18.1314 47.761 18.1762 47.7499 18.2192C47.7388 18.2622 47.7192 18.3025 47.6921 18.3378C47.6651 18.373 47.6312 18.4024 47.5925 18.4242C47.5538 18.446 47.5112 18.4598 47.467 18.4648C45.8192 18.6699 44.1841 18.9668 42.5694 19.354C42.529 19.3711 42.4851 19.378 42.4414 19.3742Z" fill="#040047"/>
<path d="M43.0815 23.423C42.9922 23.4409 42.8994 23.4226 42.8236 23.372C42.7478 23.3215 42.6952 23.2429 42.6773 23.1536C42.6595 23.0642 42.6778 22.9715 42.7283 22.8957C42.7789 22.8199 42.8575 22.7672 42.9468 22.7494C44.4895 22.0757 48.2755 21.9073 48.4305 21.9005C48.4747 21.8978 48.5191 21.9038 48.561 21.9183C48.6029 21.9327 48.6416 21.9553 48.6748 21.9847C48.7079 22.0141 48.735 22.0498 48.7543 22.0897C48.7737 22.1296 48.785 22.1729 48.7875 22.2172C48.7912 22.3072 48.7594 22.3951 48.6989 22.4619C48.6384 22.5286 48.5541 22.569 48.4642 22.5742C48.4305 22.5742 44.6445 22.7628 43.2163 23.3692C43.176 23.3971 43.1299 23.4155 43.0815 23.423Z" fill="#040047"/>
<path d="M44.4353 27.2899C44.3677 27.2909 44.3013 27.2715 44.2448 27.2343C44.1883 27.197 44.1444 27.1436 44.1187 27.0811C44.0869 26.9987 44.0881 26.9072 44.122 26.8257C44.1559 26.7442 44.2198 26.6788 44.3006 26.6432C45.626 26.148 47.0018 25.8001 48.4032 25.6057C48.4917 25.5942 48.581 25.6183 48.6517 25.6726C48.7225 25.7269 48.7688 25.807 48.7805 25.8954C48.7871 25.9393 48.7848 25.9841 48.7737 26.0271C48.7626 26.0701 48.743 26.1104 48.7159 26.1456C48.6889 26.1809 48.655 26.2103 48.6163 26.2321C48.5776 26.2539 48.535 26.2677 48.4908 26.2726C47.1501 26.4619 45.8335 26.7939 44.5633 27.2629C44.5231 27.2809 44.4794 27.2901 44.4353 27.2899Z" fill="#040047"/>
<path d="M50.9567 91.0935C50.9115 91.0901 50.8675 91.0778 50.8271 91.0573C50.7867 91.0368 50.7507 91.0085 50.7213 90.9741C50.6919 90.9397 50.6695 90.8997 50.6556 90.8567C50.6417 90.8136 50.6364 90.7681 50.6401 90.723L53.5705 52.3236C53.5739 52.2776 53.5864 52.2326 53.6072 52.1914C53.6281 52.1502 53.6569 52.1135 53.6919 52.0835C53.727 52.0534 53.7676 52.0306 53.8115 52.0163C53.8555 52.002 53.9018 51.9966 53.9478 52.0003C53.9936 52.0036 54.0382 52.0161 54.0791 52.0371C54.12 52.058 54.1562 52.0869 54.1858 52.122C54.2153 52.1572 54.2374 52.1979 54.251 52.2418C54.2645 52.2857 54.269 52.3318 54.2644 52.3775L51.3339 90.7769C51.3306 90.8227 51.3181 90.8673 51.2971 90.9082C51.2762 90.9491 51.2473 90.9853 51.2122 91.0148C51.177 91.0444 51.1363 91.0665 51.0924 91.08C51.0485 91.0935 51.0024 91.0981 50.9567 91.0935Z" fill="#040047"/>
<path d="M70.8232 54.3648C73.2551 57.3896 76.8862 59.5454 80.8003 59.606C81.3071 59.6341 81.8146 59.5655 82.2958 59.4039C82.9547 59.1222 83.5167 58.6538 83.9126 58.0565C85.6776 55.6313 85.7518 52.364 85.3071 49.3998C84.9905 47.3182 84.3842 45.1355 82.8078 43.741C80.9552 42.104 78.2672 41.949 75.7949 41.8817C73.3225 41.8143 67.5895 41.0935 66.6733 44.1385C65.8178 46.9207 69.1929 52.3371 70.8232 54.3648Z" fill="#040047"/>
<path d="M80.9486 59.9023H80.7936C77.0548 59.8417 73.2418 57.8409 70.5942 54.5534C68.8359 52.3707 65.5013 46.9409 66.3838 44.0508C67.2663 41.1608 71.9753 41.3561 74.7777 41.5313L75.8085 41.5784C78.5368 41.6593 81.1372 41.8614 83.0033 43.5119C84.8694 45.1624 85.3342 47.6011 85.5969 49.3526C86.1695 53.1387 85.6845 56.0894 84.1553 58.2249C83.7304 58.8745 83.1202 59.3814 82.4037 59.68C81.9364 59.8426 81.4431 59.9179 80.9486 59.9023ZM72.4805 42.05C70.1092 42.05 67.5155 42.3936 66.9564 44.226C66.1412 46.86 69.4288 52.1618 71.0523 54.1829C73.5921 57.3357 77.2366 59.2489 80.8004 59.3095C81.2724 59.3342 81.745 59.2725 82.1949 59.1276C82.8011 58.8644 83.3166 58.4286 83.677 57.8746C85.1051 55.9075 85.5565 53.0646 85.0243 49.4402C84.775 47.7762 84.2563 45.3982 82.626 43.9565C80.9957 42.5149 78.4156 42.2454 75.8017 42.1713C75.4986 42.1713 75.128 42.1713 74.7643 42.1241C74.0771 42.0904 73.2889 42.05 72.4805 42.05Z" fill="#040047"/>
<path d="M86.5603 23.2276C86.809 22.388 87.2313 21.6099 87.7999 20.9439C88.0912 20.6161 88.4764 20.386 88.903 20.2847C89.3297 20.1835 89.7772 20.2161 90.1847 20.378C90.4681 20.5468 90.706 20.7823 90.8774 21.0642C91.0489 21.346 91.1487 21.6655 91.1683 21.9948C91.2016 22.6573 91.0913 23.3191 90.8449 23.935C90.47 25.1061 89.821 26.1708 88.9519 27.0406C88.5201 27.4728 88.0046 27.8122 87.437 28.0381C86.8693 28.264 86.2616 28.3716 85.6509 28.3543" fill="white"/>
<path d="M85.9067 28.617H85.6305C85.5596 28.6102 85.4941 28.5762 85.4477 28.5223C85.4013 28.4683 85.3775 28.3985 85.3813 28.3273C85.3829 28.2916 85.3918 28.2566 85.4075 28.2244C85.4232 28.1922 85.4452 28.1636 85.4723 28.1403C85.4995 28.1169 85.5311 28.0994 85.5652 28.0887C85.5994 28.078 85.6353 28.0744 85.6709 28.0781C86.247 28.0977 86.821 27.9991 87.3575 27.7882C87.894 27.5773 88.3815 27.2587 88.79 26.852C89.6274 26.0126 90.2512 24.9846 90.609 23.8542C90.8441 23.2755 90.9499 22.6524 90.9188 22.0285C90.9027 21.7417 90.8161 21.4632 90.6669 21.2176C90.5177 20.9721 90.3104 20.767 90.0633 20.6205C89.7062 20.486 89.3168 20.4629 88.9463 20.5543C88.5759 20.6457 88.2419 20.8473 87.9884 21.1325C87.452 21.778 87.051 22.5249 86.8094 23.3287C86.7975 23.3617 86.779 23.392 86.7551 23.4178C86.7312 23.4436 86.7024 23.4643 86.6704 23.4788C86.6384 23.4932 86.6038 23.5011 86.5686 23.5019C86.5335 23.5028 86.4986 23.4965 86.4659 23.4836C86.399 23.4593 86.3445 23.4095 86.3142 23.3452C86.2839 23.2808 86.2803 23.2071 86.3042 23.1401C86.5681 22.2624 87.0134 21.45 87.6111 20.7553C87.9428 20.3884 88.3794 20.1328 88.8616 20.0231C89.3438 19.9134 89.8481 19.955 90.3058 20.1422C90.6339 20.3284 90.9104 20.5935 91.1104 20.9134C91.3104 21.2334 91.4274 21.5981 91.451 21.9746C91.4882 22.6648 91.3732 23.3548 91.1142 23.9956C90.7321 25.2198 90.0568 26.3321 89.1471 27.236C88.2816 28.0912 87.123 28.585 85.9067 28.617Z" fill="#040047"/>
<path d="M81.9322 34.9091L82.9764 45.2972C82.9764 45.2972 82.4711 51.2053 75.9769 50.0129C74.0694 49.6446 72.2674 48.8578 70.7005 47.7092C69.1337 46.5606 67.8412 45.0787 66.916 43.3704L67.1585 24.7299C67.1181 23.9687 68.7012 21.3616 67.9535 14.773C70.1797 14.5453 72.3341 13.8563 74.2792 12.7497C76.2244 11.6432 77.9176 10.1435 79.251 8.34619C79.251 8.34619 82.2623 12.0649 83.5288 13.2168C84.5453 14.0678 85.4506 15.0433 86.2235 16.1204C88.2445 19.1519 88.1569 24.0967 87.6719 27.5728C87.2003 30.4292 85.5431 34.9832 81.9322 34.9091Z" fill="white"/>
<path d="M77.6004 50.4979C77.0375 50.4942 76.4761 50.4401 75.9229 50.3363C73.962 49.9536 72.1099 49.1422 70.4992 47.9601C68.8885 46.778 67.5591 45.2544 66.606 43.4985C66.5962 43.4541 66.5962 43.4081 66.606 43.3637C66.606 43.3637 66.8486 24.8445 66.8486 24.73C66.8766 24.3968 66.9468 24.0686 67.0574 23.7531C67.4347 22.4597 68.2094 19.765 67.6502 14.8068C67.6459 14.7671 67.6497 14.7269 67.6612 14.6887C67.6728 14.6505 67.692 14.6151 67.7176 14.5844C67.7406 14.5515 67.7707 14.5241 67.8057 14.5043C67.8407 14.4845 67.8796 14.4727 67.9197 14.4699C70.0987 14.2408 72.2068 13.5635 74.1116 12.4807C76.0163 11.3979 77.6766 9.93295 78.9882 8.17781C79.0157 8.13842 79.0519 8.10581 79.0939 8.08247C79.1359 8.05912 79.1827 8.04565 79.2307 8.04308C79.2793 8.04122 79.3277 8.05059 79.3721 8.07045C79.4164 8.09031 79.4557 8.12013 79.4867 8.1576C79.4867 8.1576 82.498 11.8695 83.7376 12.9878C84.7571 13.8584 85.6625 14.8544 86.4322 15.952C88.7631 19.482 88.2512 25.2689 87.9278 27.5931C87.5371 30.3753 85.9068 35.0035 82.2892 35.2123L83.2929 45.2702C83.1317 46.8856 82.3432 48.3732 81.0968 49.4133C80.087 50.1589 78.8548 50.5411 77.6004 50.4979ZM67.1921 43.2964C68.1074 44.9495 69.3736 46.3821 70.9017 47.4936C72.4298 48.605 74.1828 49.3684 76.0375 49.73C77.9776 50.0803 79.5473 49.8108 80.706 48.9283C81.7971 47.9995 82.4972 46.693 82.6664 45.2702L81.629 34.9428C81.6252 34.899 81.6305 34.8549 81.6444 34.8132C81.6583 34.7715 81.6805 34.7331 81.7098 34.7003C81.7397 34.67 81.7754 34.646 81.8147 34.6298C81.8541 34.6136 81.8963 34.6055 81.9388 34.606H82.0197C85.388 34.606 86.9308 30.153 87.3013 27.5055C87.6246 25.2487 88.1232 19.6505 85.9068 16.2956C85.1553 15.2383 84.275 14.2788 83.2862 13.4392C81.8628 11.9787 80.5137 10.4475 79.2442 8.85148C76.5327 12.2699 72.5916 14.4919 68.2633 15.0425C68.7685 19.9267 67.9938 22.6146 67.5896 23.9215C67.5014 24.1795 67.4405 24.4459 67.4077 24.7165C67.4077 24.7165 67.4347 24.7367 67.1921 43.2964Z" fill="#040047"/>
<path d="M82.2894 38.3246C80.5836 38.6231 78.8282 38.4364 77.2234 37.7857C73.5249 36.4855 73.3093 33.9592 73.3093 33.9592C73.3093 33.9592 76.4217 35.9129 81.9323 34.8889L82.2894 38.3246Z" fill="#040047"/>
<path d="M80.7868 38.7625C79.5364 38.7413 78.2982 38.5137 77.122 38.0888C73.2888 36.7415 73.0261 34.1209 73.0126 34.0468C73.0072 33.9911 73.0177 33.935 73.0428 33.885C73.0679 33.835 73.1067 33.7931 73.1546 33.7642C73.2025 33.7354 73.2576 33.7206 73.3136 33.7217C73.3695 33.7229 73.424 33.7398 73.4707 33.7706C73.4707 33.7706 76.5629 35.6501 81.8782 34.6598C81.9608 34.6459 82.0456 34.6653 82.1139 34.7137C82.1474 34.7378 82.1751 34.769 82.1949 34.8052C82.2147 34.8413 82.2262 34.8814 82.2285 34.9225L82.5788 38.2909C82.5932 38.3468 82.5913 38.4057 82.5734 38.4606C82.5555 38.5155 82.5223 38.5641 82.4777 38.6008C82.4489 38.6274 82.4148 38.6478 82.3777 38.6605C82.3406 38.6733 82.3013 38.6782 82.2621 38.6749C81.7743 38.7513 81.2803 38.7807 80.7868 38.7625ZM73.7604 34.5453C74.0568 35.32 74.9056 36.6741 77.3241 37.5229C78.8021 38.0869 80.3972 38.2744 81.9657 38.0686L81.6761 35.2594C77.6205 35.9398 74.9056 35.091 73.7604 34.5453Z" fill="#040047"/>
<path d="M77.3916 18.0942C77.3916 18.0942 81.2315 22.7493 80.5242 23.6992C79.8168 24.6491 77.5398 24.292 77.5398 24.292" fill="white"/>
<path d="M78.4897 24.6558C78.1562 24.6554 77.8232 24.6329 77.4927 24.5885C77.4229 24.567 77.3632 24.521 77.3246 24.459C77.286 24.3971 77.271 24.3232 77.2825 24.2511C77.294 24.179 77.3311 24.1134 77.387 24.0665C77.443 24.0196 77.514 23.9944 77.587 23.9956C78.1731 24.0899 79.7966 24.1775 80.2817 23.5173C80.5848 23.1131 79.123 20.6677 77.1491 18.2829C77.1243 18.2528 77.1057 18.2182 77.0943 18.1809C77.0829 18.1436 77.0789 18.1045 77.0827 18.0657C77.0864 18.0269 77.0978 17.9892 77.1161 17.9548C77.1345 17.9204 77.1594 17.89 77.1895 17.8652C77.252 17.8164 77.3308 17.7933 77.4098 17.8008C77.4887 17.8084 77.5618 17.8459 77.6139 17.9056C78.8131 19.3608 81.5212 22.8504 80.76 23.8744C80.2817 24.5211 79.2644 24.6558 78.4897 24.6558Z" fill="#040047"/>
<path d="M82.1985 19.1633C82.5119 19.1213 82.7017 18.606 82.6222 18.0123C82.5428 17.4186 82.2243 16.9712 81.9108 17.0132C81.5974 17.0551 81.4077 17.5704 81.4871 18.1641C81.5665 18.7579 81.885 19.2052 82.1985 19.1633Z" fill="#040047"/>
<path d="M72.7505 19.1765C73.0668 19.1728 73.3174 18.6843 73.3104 18.0853C73.3034 17.4863 73.0414 17.0038 72.7252 17.0075C72.4089 17.0112 72.1583 17.4997 72.1653 18.0987C72.1723 18.6977 72.4343 19.1802 72.7505 19.1765Z" fill="#040047"/>
<path d="M69.2536 21.941C69.0217 21.0518 68.6265 20.2134 68.0881 19.4686C67.7785 19.0459 67.3725 18.7032 66.9038 18.4689C66.4352 18.2345 65.9174 18.1154 65.3934 18.1213C65.0695 18.1339 64.7526 18.2199 64.4667 18.3728C64.1808 18.5256 63.9333 18.7414 63.7429 19.0038C63.5155 19.3819 63.373 19.8048 63.3252 20.2434C62.9817 22.5541 63.7564 25.5654 65.9324 26.7578C66.2996 26.9886 66.7246 27.1111 67.1584 27.1111C67.5922 27.1111 68.0172 26.9886 68.3845 26.7578" fill="white"/>
<path d="M67.3067 27.3775C66.7808 27.3654 66.2655 27.2267 65.8044 26.9733C63.5274 25.7202 62.7055 22.6146 63.0626 20.1826C63.1136 19.7051 63.27 19.2449 63.5207 18.8353C63.7331 18.5383 64.0102 18.2936 64.3312 18.1197C64.6522 17.9458 65.0086 17.8472 65.3733 17.8315C65.9428 17.8274 66.5051 17.9591 67.0135 18.2157C67.522 18.4723 67.962 18.8463 68.297 19.3069C68.8584 20.0765 69.2698 20.9449 69.5096 21.8668C69.5285 21.9347 69.52 22.0073 69.486 22.069C69.452 22.1307 69.3952 22.1766 69.3277 22.1969C69.2946 22.2083 69.2595 22.2127 69.2246 22.21C69.1897 22.2072 69.1557 22.1973 69.1247 22.1809C69.0938 22.1645 69.0665 22.1419 69.0447 22.1145C69.0228 22.0871 69.0068 22.0556 68.9976 22.0218C68.7751 21.1647 68.396 20.3561 67.8793 19.637C67.5996 19.2425 67.2288 18.9213 66.7983 18.7008C66.3679 18.4803 65.8906 18.367 65.407 18.3705C65.1249 18.381 64.8489 18.4548 64.5993 18.5866C64.3497 18.7184 64.133 18.9047 63.9653 19.1317C63.7589 19.4766 63.6324 19.8633 63.5948 20.2635C63.258 22.5068 63.999 25.3699 66.0604 26.5017C66.378 26.7133 66.749 26.8306 67.1305 26.8402C67.512 26.8497 67.8884 26.751 68.2162 26.5556C68.2731 26.5136 68.344 26.4951 68.4142 26.5039C68.4844 26.5127 68.5486 26.5481 68.5934 26.6027C68.6371 26.6591 68.6566 26.7304 68.6477 26.8011C68.6389 26.8718 68.6024 26.9361 68.5463 26.98C68.1882 27.2456 67.7524 27.3853 67.3067 27.3775Z" fill="#040047"/>
<path d="M105.248 101.65C105.166 101.65 105.086 101.62 105.024 101.567C104.961 101.515 104.919 101.441 104.904 101.36C102.594 86.937 98.1676 59.4444 97.9655 58.609C97.9429 58.5197 97.9564 58.4251 98.0031 58.3457C98.0497 58.2662 98.1258 58.2084 98.2148 58.1846C98.3049 58.164 98.3995 58.1792 98.4787 58.227C98.5578 58.2747 98.6154 58.3513 98.6392 58.4406C98.9019 59.5118 105.315 99.5347 105.592 101.246C105.605 101.337 105.582 101.43 105.528 101.504C105.474 101.578 105.393 101.628 105.302 101.643L105.248 101.65Z" fill="#040047"/>
<path d="M139.848 64.672H10.1456C4.70904 64.672 0.303223 69.3473 0.303223 75.1005V131.884C0.303223 137.644 4.70904 142.306 10.1456 142.306H59.2631L72.7365 160.138L89.3089 142.306H139.882C145.318 142.306 149.731 137.644 149.731 131.884V75.1005C149.697 69.3473 145.284 64.672 139.848 64.672Z" fill="white"/>
<path d="M56.5941 76.7449H93.4061V75.7449H56.5941V76.7449ZM48.9514 84.5739C48.9514 80.2393 52.3838 76.7449 56.5941 76.7449V75.7449C51.8103 75.7449 47.9514 79.7085 47.9514 84.5739H48.9514ZM48.9514 121.013V84.5739H47.9514V121.013H48.9514ZM56.5941 128.842C52.3838 128.842 48.9514 125.348 48.9514 121.013H47.9514C47.9514 125.879 51.8103 129.842 56.5941 129.842V128.842ZM93.4061 128.842H56.5941V129.842H93.4061V128.842ZM101.049 121.013C101.049 125.348 97.6164 128.842 93.4061 128.842V129.842C98.1899 129.842 102.049 125.879 102.049 121.013H101.049ZM101.049 84.5739V121.013H102.049V84.5739H101.049ZM93.4061 76.7449C97.6164 76.7449 101.049 80.2393 101.049 84.5739H102.049C102.049 79.7085 98.1899 75.7449 93.4061 75.7449V76.7449ZM56.5942 78.5211C53.3094 78.5211 50.6657 81.2417 50.6657 84.5738H51.6657C51.6657 81.7726 53.8829 79.5211 56.5942 79.5211V78.5211ZM93.4061 78.5211H56.5942V79.5211H93.4061V78.5211ZM99.3346 84.5738C99.3346 81.2417 96.6909 78.5211 93.4061 78.5211V79.5211C96.1175 79.5211 98.3346 81.7726 98.3346 84.5738H99.3346ZM99.3346 121.013V84.5738H98.3346V121.013H99.3346ZM93.4061 127.066C96.6909 127.066 99.3346 124.345 99.3346 121.013H98.3346C98.3346 123.814 96.1175 126.066 93.4061 126.066V127.066ZM56.5942 127.066H93.4061V126.066H56.5942V127.066ZM50.6657 121.013C50.6657 124.345 53.3094 127.066 56.5942 127.066V126.066C53.8829 126.066 51.6657 123.814 51.6657 121.013H50.6657ZM50.6657 84.5738V121.013H51.6657V84.5738H50.6657Z" fill="#040047"/>
<path d="M61.6259 105.416L61.142 105.541L61.5762 107.21L62.102 105.568L61.6259 105.416ZM58.7363 94.3112L59.2202 94.1852L59.1228 93.8112H58.7363V94.3112ZM65.1822 94.3112V93.8112H64.8173L64.7061 94.1587L65.1822 94.3112ZM68.6497 94.3112L69.1259 94.1587L69.0146 93.8112H68.6497V94.3112ZM72.2061 105.416L71.7299 105.568L72.2558 107.21L72.69 105.541L72.2061 105.416ZM75.0956 94.3112V93.8112H74.7091L74.6117 94.1852L75.0956 94.3112ZM79.6522 94.3112L80.1323 94.4508L80.3184 93.8112H79.6522V94.3112ZM74.6511 111.504V112.004H75.0264L75.1312 111.643L74.6511 111.504ZM70.2056 111.504L69.7308 111.66L69.8441 112.004H70.2056V111.504ZM66.916 101.539L67.3908 101.383L66.916 99.9444L66.4412 101.383L66.916 101.539ZM63.6263 111.504V112.004H63.9878L64.1011 111.66L63.6263 111.504ZM59.1808 111.504L58.7007 111.643L58.8056 112.004H59.1808V111.504ZM54.1797 94.3112V93.8112H53.5135L53.6996 94.4508L54.1797 94.3112ZM87.0552 102.565L87.3774 102.183V102.183L87.0552 102.565ZM87.8776 103.956V104.456H88.5062L88.3648 103.844L87.8776 103.956ZM84.0212 102.543L83.697 102.162V102.162L84.0212 102.543ZM83.2766 103.956L82.7837 103.872L82.684 104.456H83.2766V103.956ZM83.1657 106.35V105.85H82.6657V106.35H83.1657ZM91.6343 106.35V106.85H92.1343V106.35H91.6343ZM89.9895 101.106L89.6267 101.45L89.9895 101.106ZM88.0335 99.8177L87.8539 100.284V100.284L88.0335 99.8177ZM82.7989 99.8177L82.977 100.285V100.285L82.7989 99.8177ZM80.8096 101.083L80.4564 100.729L80.4564 100.729L80.8096 101.083ZM79.5426 103.078L80.0102 103.255V103.255L79.5426 103.078ZM79.5648 108.266L79.1021 108.455L79.1021 108.455L79.5648 108.266ZM80.8874 110.227L81.2335 109.866L80.8874 110.227ZM82.9434 111.492L83.1171 111.023L82.9434 111.492ZM91.4787 107.924L91.9585 108.065L92.1466 107.424H91.4787V107.924ZM87.5889 107.924V107.424H87.3081L87.1619 107.664L87.5889 107.924ZM62.1097 105.29L59.2202 94.1852L58.2524 94.4371L61.142 105.541L62.1097 105.29ZM64.7061 94.1587L61.1497 105.263L62.102 105.568L65.6584 94.4637L64.7061 94.1587ZM68.6497 93.8112H65.1822V94.8112H68.6497V93.8112ZM72.6822 105.263L69.1259 94.1587L68.1735 94.4637L71.7299 105.568L72.6822 105.263ZM74.6117 94.1852L71.7222 105.29L72.69 105.541L75.5795 94.4371L74.6117 94.1852ZM79.6522 93.8112H75.0956V94.8112H79.6522V93.8112ZM75.1312 111.643L80.1323 94.4508L79.1721 94.1715L74.171 111.364L75.1312 111.643ZM70.2056 112.004H74.6511V111.004H70.2056V112.004ZM66.4412 101.696L69.7308 111.66L70.6804 111.347L67.3908 101.383L66.4412 101.696ZM64.1011 111.66L67.3908 101.696L66.4412 101.383L63.1515 111.347L64.1011 111.66ZM59.1808 112.004H63.6263V111.004H59.1808V112.004ZM53.6996 94.4508L58.7007 111.643L59.6609 111.364L54.6598 94.1715L53.6996 94.4508ZM58.7363 93.8112H54.1797V94.8112H58.7363V93.8112ZM86.733 102.948C87.0574 103.221 87.279 103.586 87.3904 104.069L88.3648 103.844C88.2095 103.171 87.8828 102.609 87.3774 102.183L86.733 102.948ZM85.5437 102.541C86.0303 102.541 86.4168 102.681 86.733 102.948L87.3774 102.183C86.8638 101.75 86.2427 101.541 85.5437 101.541V102.541ZM84.3454 102.923C84.6298 102.681 85.0146 102.541 85.5437 102.541V101.541C84.8282 101.541 84.1979 101.735 83.697 102.162L84.3454 102.923ZM83.7694 104.04C83.8575 103.524 84.0586 103.167 84.3454 102.923L83.697 102.162C83.1983 102.587 82.9031 103.172 82.7837 103.872L83.7694 104.04ZM87.8776 103.456H83.2766V104.456H87.8776V103.456ZM82.6657 106.35C82.6657 107.306 82.8838 108.117 83.4083 108.689C83.9404 109.27 84.7068 109.518 85.6107 109.518V108.518C84.8845 108.518 84.4285 108.322 84.1455 108.013C83.855 107.696 83.6657 107.173 83.6657 106.35H82.6657ZM91.6343 105.85H83.1657V106.85H91.6343V105.85ZM91.1343 105.917V106.35H92.1343V105.917H91.1343ZM90.7395 103.333C90.9998 104.085 91.1343 104.944 91.1343 105.917H92.1343C92.1343 104.853 91.9872 103.881 91.6845 103.006L90.7395 103.333ZM89.6267 101.45C90.106 101.955 90.4787 102.58 90.7395 103.333L91.6845 103.006C91.3822 102.133 90.9399 101.382 90.3523 100.762L89.6267 101.45ZM87.8539 100.284C88.5597 100.556 89.1477 100.945 89.6267 101.45L90.3523 100.762C89.7643 100.142 89.0484 99.6724 88.213 99.3511L87.8539 100.284ZM85.4329 99.8731C86.3447 99.8731 87.1494 100.013 87.8539 100.284L88.213 99.3511C87.3765 99.0293 86.4474 98.8731 85.4329 98.8731V99.8731ZM82.977 100.285C83.6891 100.014 84.5053 99.8731 85.4329 99.8731V98.8731C84.4044 98.8731 83.4647 99.029 82.6209 99.3505L82.977 100.285ZM81.1628 101.437C81.6577 100.943 82.2597 100.558 82.977 100.285L82.6209 99.3505C81.7822 99.6701 81.0581 100.129 80.4564 100.729L81.1628 101.437ZM80.0102 103.255C80.2835 102.534 80.6687 101.93 81.1628 101.437L80.4564 100.729C79.8539 101.331 79.3945 102.058 79.075 102.901L80.0102 103.255ZM79.5981 105.712C79.5981 104.79 79.7384 103.973 80.0102 103.255L79.075 102.901C78.7541 103.749 78.5981 104.688 78.5981 105.712H79.5981ZM80.0276 108.076C79.7444 107.385 79.5981 106.599 79.5981 105.712H78.5981C78.5981 106.71 78.763 107.627 79.1021 108.455L80.0276 108.076ZM81.2335 109.866C80.7154 109.369 80.3133 108.774 80.0276 108.076L79.1021 108.455C79.4387 109.277 79.9184 109.99 80.5413 110.588L81.2335 109.866ZM83.1171 111.023C82.376 110.749 81.7507 110.362 81.2335 109.866L80.5413 110.588C81.1651 111.186 81.9104 111.643 82.7697 111.961L83.1171 111.023ZM85.5885 111.437C84.677 111.437 83.855 111.297 83.1171 111.023L82.7697 111.961C83.6322 112.281 84.5735 112.437 85.5885 112.437V111.437ZM90.999 107.783C90.6329 109.03 90.0057 109.928 89.1356 110.52C88.2598 111.117 87.0907 111.437 85.5885 111.437V112.437C87.2277 112.437 88.611 112.088 89.6987 111.347C90.792 110.602 91.5391 109.493 91.9585 108.065L90.999 107.783ZM87.5889 108.424H91.4787V107.424H87.5889V108.424ZM85.6107 109.518C86.6544 109.518 87.4781 109.067 88.0159 108.184L87.1619 107.664C86.8107 108.24 86.3155 108.518 85.6107 108.518V109.518Z" fill="#040047"/>
<path d="M90.3125 93.4176L91.1433 92.1699C91.6972 92.6897 92.5135 93.0017 93.2568 93.0017C93.9128 93.0017 94.2917 92.7195 94.2917 92.2442C94.2917 91.0559 90.604 91.353 90.604 88.8725C90.604 87.3872 91.8867 86.6 93.4463 86.6C94.3355 86.6 95.2683 86.8525 95.9534 87.4615L95.2683 88.7834C94.831 88.3972 94.0439 88.1298 93.388 88.1298C92.7467 88.1298 92.3531 88.3823 92.3531 88.8576C92.3531 90.0607 96.0408 89.7191 96.0408 92.1996C96.0408 93.5364 94.9331 94.5315 93.2277 94.5315C92.1928 94.5315 91.085 94.1751 90.3125 93.4176Z" stroke="#040047"/>
<path d="M72.7028 160.448C72.6585 160.444 72.6154 160.431 72.5761 160.41C72.5368 160.389 72.502 160.361 72.4737 160.327L59.1283 142.616H10.1455C4.5473 142.616 0 137.799 0 131.884V75.1004C0 69.1855 4.5473 64.3688 10.1455 64.3688H139.848C145.446 64.3688 150 69.1855 150 75.1004V131.884C150 137.799 145.446 142.616 139.848 142.616H89.4099L72.9251 160.347C72.8973 160.379 72.8632 160.404 72.8248 160.421C72.7865 160.439 72.7449 160.448 72.7028 160.448ZM10.1455 64.9818C4.89087 64.9818 0.613045 69.5224 0.613045 75.0869V131.871C0.613045 137.449 4.89087 141.976 10.1455 141.976H59.263C59.3103 141.975 59.3571 141.985 59.3993 142.006C59.4416 142.028 59.4781 142.059 59.5055 142.097L72.723 159.613L89.0528 142.05C89.0812 142.02 89.1156 141.995 89.1539 141.979C89.1922 141.963 89.2335 141.955 89.2751 141.956H139.848C145.109 141.956 149.387 137.415 149.387 131.851V75.1004C149.387 69.5224 145.109 64.9953 139.848 64.9953L10.1455 64.9818Z" fill="#040047"/>
<path d="M121.793 27.5594C122.139 29.132 122.928 30.5726 124.067 31.7104C125.206 32.8483 126.647 33.6358 128.22 33.9795C126.649 34.3245 125.209 35.1125 124.071 36.2502C122.933 37.388 122.145 38.828 121.8 40.3997C121.455 38.828 120.667 37.388 119.53 36.2502C118.392 35.1125 116.952 34.3245 115.38 33.9795C115.38 33.9795 117.401 33.8583 119.53 31.7093C121.659 29.5603 121.793 27.5594 121.793 27.5594Z" fill="#D1D3D4"/>
<path d="M10.0715 35.6838C10.3359 36.8858 10.9389 37.987 11.8092 38.8572C12.6794 39.7275 13.7806 40.3305 14.9826 40.5949C13.7795 40.8571 12.6771 41.4593 11.8065 42.3299C10.9359 43.2006 10.3336 44.303 10.0715 45.506C9.80932 44.303 9.2071 43.2006 8.33647 42.3299C7.46583 41.4593 6.36343 40.8571 5.1604 40.5949C6.36237 40.3305 7.46353 39.7275 8.33378 38.8572C9.20404 37.987 9.80701 36.8858 10.0715 35.6838Z" fill="#D1D3D4"/>
<path d="M24.7642 15.157C24.9718 16.1062 25.447 16.9761 26.1334 17.6638C26.8199 18.3515 27.689 18.8281 28.6379 19.0373C27.6884 19.243 26.8183 19.7176 26.1314 20.4045C25.4445 21.0914 24.9699 21.9615 24.7642 22.911C24.5555 21.963 24.0799 21.0945 23.3935 20.4081C22.7071 19.7217 21.8386 19.2461 20.8906 19.0373C21.8528 18.8859 22.7345 18.4106 23.39 17.69C24.1255 17.0286 24.6108 16.1341 24.7642 15.157Z" fill="#D1D3D4"/>
<path d="M79.0016 30.6785C74.0232 30.6785 72.4333 24.1102 72.3659 23.8272C72.3498 23.7496 72.3648 23.6687 72.4076 23.602C72.4504 23.5352 72.5177 23.4879 72.595 23.4702C72.633 23.4612 72.6725 23.4598 72.7111 23.4661C72.7496 23.4725 72.7866 23.4864 72.8198 23.507C72.853 23.5277 72.8817 23.5547 72.9044 23.5865C72.9271 23.6184 72.9433 23.6544 72.952 23.6925C72.952 23.7531 74.4948 30.0856 79.0151 30.0856C79.4838 30.1037 79.9507 30.0183 80.3827 29.8355C80.8147 29.6527 81.2011 29.377 81.5144 29.028C83.0706 27.2562 82.6529 23.8205 82.6462 23.7868C82.6405 23.7478 82.6426 23.7081 82.6525 23.67C82.6623 23.6318 82.6797 23.596 82.7035 23.5647C82.7273 23.5333 82.7572 23.507 82.7913 23.4873C82.8254 23.4676 82.8631 23.4549 82.9022 23.45C82.9803 23.442 83.0586 23.464 83.1211 23.5115C83.1836 23.5591 83.2258 23.6285 83.239 23.706C83.239 23.8609 83.7039 27.4448 81.9658 29.4187C81.5959 29.8352 81.1381 30.1642 80.6255 30.3821C80.1128 30.6 79.5582 30.7012 79.0016 30.6785Z" fill="#040047"/>
<path d="M122.353 60.3875C119.82 59.5656 116.815 59.0402 114.679 60.6435C113.681 61.4996 112.893 62.5737 112.376 63.7828C111.209 66.0852 110.201 68.4643 109.357 70.9035C109.142 71.5772 108.994 72.3856 109.546 72.7629C110.22 73.2277 111.062 72.4867 111.486 71.7928C112.254 70.5533 112.852 69.2165 113.265 67.8181C112.305 69.8124 111.624 71.9298 111.244 74.1102C111.161 74.3733 111.161 74.6555 111.244 74.9186C111.376 75.1437 111.592 75.3075 111.844 75.3743C112.096 75.4412 112.365 75.4057 112.591 75.2757C113.05 75.017 113.425 74.6309 113.669 74.1641C114.779 72.3246 115.683 70.3681 116.364 68.3301C115.69 70.4522 115.016 72.6281 115.111 74.8513C115.095 75.0385 115.119 75.2269 115.18 75.4044C115.242 75.5819 115.34 75.7446 115.468 75.882C115.645 75.996 115.855 76.0492 116.065 76.0334C116.275 76.0176 116.475 75.9337 116.633 75.7944C116.931 75.505 117.161 75.1529 117.307 74.7637L120.001 69.2059C119.419 71.2733 119.096 73.4049 119.038 75.5519C119.017 75.7311 119.045 75.9126 119.119 76.0773C119.415 76.6365 120.298 76.2525 120.668 75.7405C121.242 74.8512 121.642 73.8614 121.847 72.8235C122.568 70.1288 123.195 67.3331 124.023 64.6451C124.71 62.4355 124.966 61.2363 122.353 60.3875Z" fill="white"/>
<path d="M119.604 76.6432H119.53C119.389 76.6346 119.253 76.5898 119.135 76.513C119.017 76.4363 118.921 76.3303 118.856 76.2053C118.764 75.9933 118.725 75.7621 118.742 75.5316C118.778 74.276 118.901 73.0244 119.112 71.786L117.623 74.8849C117.451 75.3219 117.182 75.7137 116.835 76.0302C116.623 76.2157 116.355 76.3246 116.074 76.3392C115.793 76.3539 115.515 76.2735 115.286 76.111C115.122 75.9469 114.995 75.7496 114.913 75.5322C114.832 75.3149 114.798 75.0827 114.814 74.8512C114.797 74.0366 114.858 73.2222 114.996 72.4193C114.673 73.093 114.322 73.6993 113.945 74.3123C113.69 74.8325 113.287 75.266 112.786 75.5586C112.612 75.6433 112.423 75.6924 112.23 75.7028C112.037 75.7132 111.843 75.6848 111.661 75.6192C111.524 75.5716 111.398 75.4969 111.291 75.3997C111.183 75.3025 111.096 75.1848 111.035 75.0533C110.922 74.7373 110.906 74.3951 110.988 74.0698C111.068 73.5713 111.169 73.0727 111.284 72.581C111.012 72.8813 110.659 73.0966 110.267 73.2007C110.117 73.2354 109.961 73.2377 109.81 73.2075C109.659 73.1773 109.516 73.1153 109.391 73.0256C109 72.7561 108.63 72.1498 109.088 70.8092C109.932 68.3585 110.943 65.9681 112.113 63.6548C112.652 62.4008 113.473 61.2876 114.511 60.401C116.323 59.0536 118.917 58.9526 122.46 60.1045C125.323 61.0342 125.034 62.4691 124.333 64.7327C123.781 66.5112 123.316 68.3638 122.864 70.1221C122.629 71.0382 122.4 71.9544 122.191 72.8639C121.973 73.9374 121.557 74.9609 120.965 75.882C120.81 76.1032 120.607 76.2865 120.371 76.4183C120.136 76.5502 119.873 76.627 119.604 76.6432ZM120.001 68.8892C120.037 68.8828 120.073 68.8828 120.109 68.8892C120.181 68.9166 120.24 68.9697 120.275 69.0382C120.31 69.1066 120.318 69.1856 120.298 69.2598C119.72 71.3 119.4 73.4049 119.348 75.5249C119.331 75.6499 119.345 75.7771 119.388 75.8954C119.405 75.9297 119.431 75.9586 119.463 75.9789C119.495 75.9991 119.532 76.0099 119.57 76.01C119.738 75.9928 119.9 75.9408 120.046 75.8573C120.192 75.7738 120.319 75.6605 120.419 75.5249C120.966 74.6661 121.35 73.7138 121.551 72.7157C121.793 71.8062 122.022 70.89 122.224 69.9806C122.676 68.1819 123.147 66.3158 123.707 64.5238C124.38 62.3411 124.562 61.4249 122.224 60.6637C118.897 59.5791 116.478 59.6464 114.814 60.8658C113.853 61.6958 113.094 62.7352 112.598 63.904C111.437 66.1926 110.435 68.5583 109.6 70.9844C109.452 71.4222 109.263 72.2037 109.674 72.4934C109.732 72.5338 109.798 72.5612 109.868 72.574C109.938 72.5868 110.009 72.5846 110.078 72.5675C110.55 72.3926 110.942 72.0528 111.183 71.6109C111.399 71.2673 111.601 70.9372 111.783 70.5465C112.108 69.5621 112.495 68.5991 112.941 67.6631C112.976 67.594 113.035 67.54 113.107 67.5115C113.179 67.4829 113.259 67.4818 113.332 67.5082C113.404 67.5369 113.463 67.5916 113.496 67.6615C113.53 67.7313 113.536 67.8112 113.514 67.8855C113.218 68.8848 112.83 69.8545 112.355 70.7822C111.997 71.8834 111.72 73.0091 111.527 74.1506C111.469 74.3577 111.469 74.5767 111.527 74.7839C111.584 74.8957 111.683 74.9804 111.803 75.0197C111.909 75.0649 112.024 75.0882 112.14 75.0882C112.255 75.0882 112.37 75.0649 112.476 75.0197C112.866 74.774 113.179 74.4239 113.379 74.0091C114.474 72.1876 115.366 70.2516 116.04 68.2358C116.072 68.1665 116.127 68.1113 116.197 68.0805C116.266 68.0497 116.345 68.0456 116.417 68.0689C116.49 68.0922 116.551 68.1413 116.589 68.2068C116.628 68.2724 116.641 68.3498 116.626 68.4244C115.986 70.506 115.326 72.6551 115.393 74.8445C115.378 74.9876 115.391 75.1323 115.433 75.27C115.475 75.4078 115.544 75.5357 115.636 75.6462C115.758 75.7137 115.898 75.7415 116.037 75.7258C116.176 75.7102 116.307 75.6517 116.411 75.5586C116.682 75.2994 116.893 74.9845 117.03 74.6357L119.725 69.0846C119.746 69.0277 119.783 68.9786 119.833 68.9436C119.882 68.9087 119.941 68.8897 120.001 68.8892Z" fill="#040047"/>
</svg>
