<svg width="132" height="132" viewBox="0 0 132 132" fill="none" xmlns="http://www.w3.org/2000/svg">
<path fill-rule="evenodd" clip-rule="evenodd" d="M20.9361 1.5C10.2124 1.5 1.5 10.3953 1.5 21.3922V110.608C1.5 121.605 10.2124 130.5 20.9361 130.5H111.064C121.788 130.5 130.5 121.605 130.5 110.608V21.3922C130.5 10.3953 121.788 1.5 111.064 1.5H20.9361ZM0.5 21.3922C0.5 9.86446 9.63895 0.5 20.9361 0.5H111.064C122.361 0.5 131.5 9.86446 131.5 21.3922V110.608C131.5 122.136 122.361 131.5 111.064 131.5H20.9361C9.63895 131.5 0.5 122.136 0.5 110.608V21.3922ZM7.146 21.3921C7.146 13.6185 13.3097 7.2973 20.9367 7.2973H111.065C118.692 7.2973 124.855 13.6185 124.855 21.3921V110.608C124.855 118.381 118.692 124.703 111.065 124.703H20.9367C13.3097 124.703 7.146 118.381 7.146 110.608V21.3921ZM20.9367 8.2973C13.8832 8.2973 8.146 14.1493 8.146 21.3921V110.608C8.146 117.851 13.8832 123.703 20.9367 123.703H111.065C118.118 123.703 123.855 117.851 123.855 110.608V21.3921C123.855 14.1493 118.118 8.2973 111.065 8.2973H20.9367Z" fill="#040047"/>
<path fill-rule="evenodd" clip-rule="evenodd" d="M14.3621 44.7324H26.571L33.3087 70.6252L41.6013 44.7324H50.8206L59.1132 70.6252L65.851 44.7324H78.0598L65.5244 87.8252H53.9036L46.211 64.5241L38.5183 87.8252H26.8975L14.3621 44.7324ZM15.6945 45.7324L27.6481 86.8252H37.7953L46.211 61.3343L54.6266 86.8252H64.7738L76.7274 45.7324H66.624L59.2126 74.2141L50.0908 45.7324H42.3311L33.2093 74.2141L25.7979 45.7324H15.6945ZM91.5463 58.1256C89.2022 58.1256 87.1144 58.4808 85.2756 59.1815C83.4316 59.8841 81.8691 60.88 80.5802 62.1665C79.292 63.4522 78.2952 65.0187 77.5926 66.8744C76.8916 68.7262 76.5366 70.8142 76.5366 73.1453C76.5366 75.3973 76.9083 77.4158 77.6422 79.2083C78.3786 81.0071 79.4191 82.5484 80.7635 83.838C82.107 85.1267 83.7249 86.1245 85.625 86.8283C87.5218 87.531 89.6208 87.8858 91.9272 87.8858C95.7044 87.8858 98.722 87.0816 101.02 85.5162C103.155 84.0614 104.709 81.9214 105.668 79.0604H97.0996C95.9196 80.8409 94.1944 81.7401 91.9817 81.7401C89.8974 81.7401 88.2457 81.1695 87.1234 79.945C86.0087 78.7287 85.4955 76.9524 85.4955 74.7084V74.2084H106.229V73.6477C106.229 71.1999 105.891 69.0141 105.223 67.0842C104.554 65.1529 103.592 63.5324 102.34 62.2125C101.088 60.8929 99.5556 59.8817 97.7339 59.1809C95.9133 58.4805 93.8532 58.1256 91.5463 58.1256ZM84.9195 58.247C86.8901 57.4962 89.1014 57.1256 91.5463 57.1256C93.9558 57.1256 96.1404 57.4965 98.093 58.2476C100.044 58.9983 101.705 60.0898 103.065 61.5243C104.425 62.9585 105.458 64.7061 106.168 66.7571C106.879 68.8095 107.229 71.1084 107.229 73.6477V75.2084H86.5049C86.5764 77.0564 87.0512 78.3861 87.8606 79.2693C88.7337 80.222 90.0751 80.7401 91.9817 80.7401C93.9527 80.7401 95.4029 79.9335 96.398 78.3002L96.5442 78.0604H107.016L106.828 78.7012C105.84 82.0672 104.098 84.629 101.583 86.3427C99.0731 88.0524 95.8415 88.8858 91.9272 88.8858C89.5173 88.8858 87.299 88.5148 85.2776 87.766C83.2593 87.0184 81.5214 85.9506 80.0713 84.5597C78.6221 83.1696 77.504 81.5102 76.7167 79.5872C75.9269 77.658 75.5366 75.5082 75.5366 73.1453C75.5366 70.7125 75.9072 68.502 76.6574 66.5203C77.4061 64.5427 78.4772 62.8526 79.8737 61.4587C81.2695 60.0656 82.9541 58.9959 84.9195 58.247ZM91.8135 64.6573C90.383 64.6573 89.2632 65.0395 88.41 65.7661C87.6783 66.3892 87.1623 67.2397 86.8792 68.3467H96.8699C96.5297 67.3144 95.969 66.4784 95.1919 65.8237C94.2748 65.0508 93.1585 64.6573 91.8135 64.6573ZM87.7616 65.0048C88.8312 64.0939 90.1966 63.6573 91.8135 63.6573C93.3709 63.6573 94.7217 64.1197 95.8363 65.0589C96.9426 65.9912 97.6663 67.2248 98.0148 68.7342L98.1562 69.3467H85.6702L85.7698 68.7626C86.0395 67.182 86.6942 65.9138 87.7616 65.0048Z" fill="#040047"/>
<path fill-rule="evenodd" clip-rule="evenodd" d="M106.548 28.1725C105.409 29.0176 104.703 30.2615 104.703 31.9166C104.703 33.2911 105.206 34.2585 105.964 35.0027C106.74 35.7643 107.794 36.3041 108.91 36.769C109.314 36.9373 109.715 37.0917 110.11 37.2438C110.259 37.3015 110.409 37.3589 110.557 37.4166C111.087 37.6232 111.602 37.8331 112.05 38.0639C112.909 38.5063 113.732 39.1313 113.732 40.1715C113.732 40.9032 113.431 41.5203 112.863 41.938C112.315 42.3413 111.563 42.5262 110.698 42.5262C108.944 42.5262 107.046 41.8671 105.626 40.7381L104.141 42.9679C105.903 44.5224 108.33 45.2718 110.627 45.2718C112.619 45.2718 114.219 44.6911 115.313 43.7632C116.401 42.8396 117.014 41.5514 117.014 40.0624C117.014 38.6882 116.511 37.7287 115.755 36.9949C114.981 36.2432 113.927 35.7155 112.811 35.2617C112.414 35.1001 112.02 34.952 111.632 34.806C111.475 34.7471 111.319 34.6885 111.164 34.6295C110.634 34.4274 110.118 34.2214 109.669 33.993C108.806 33.5539 107.985 32.929 107.985 31.8802C107.985 31.1385 108.304 30.5366 108.881 30.1407C109.432 29.7619 110.18 29.5983 111.019 29.5983C112.504 29.5983 114.25 30.1177 115.454 30.9375L116.672 28.5874C115.141 27.3768 113.125 26.8527 111.162 26.8527C109.33 26.8527 107.703 27.3161 106.548 28.1725ZM105.953 27.3694C107.323 26.353 109.176 25.8527 111.162 25.8527C113.423 25.8527 115.838 26.4937 117.632 28.0882L117.923 28.3466L115.772 32.4972L115.292 32.0732C114.328 31.2217 112.525 30.5983 111.019 30.5983C110.289 30.5983 109.769 30.7439 109.446 30.9652C109.149 31.1692 108.985 31.4583 108.985 31.8802C108.985 32.3043 109.293 32.6794 110.123 33.1017C110.52 33.304 110.993 33.494 111.52 33.6951C111.666 33.7507 111.817 33.8073 111.971 33.8651C112.364 34.0129 112.778 34.1684 113.188 34.3354C114.33 34.7998 115.533 35.3859 116.452 36.2774C117.389 37.1868 118.014 38.4002 118.014 40.0624C118.014 41.8463 117.271 43.4129 115.96 44.5257C114.653 45.6343 112.81 46.2718 110.627 46.2718C107.99 46.2718 105.142 45.3657 103.139 43.4014L102.844 43.1117L105.435 39.2208L105.866 39.6251C107.127 40.8086 109.002 41.5262 110.698 41.5262C111.438 41.5262 111.954 41.3656 112.271 41.1324C112.568 40.9138 112.732 40.6036 112.732 40.1715C112.732 39.7571 112.426 39.3821 111.592 38.9529C111.194 38.7479 110.721 38.5541 110.193 38.3483C110.053 38.2937 109.909 38.2382 109.762 38.1816C109.363 38.0279 108.942 37.866 108.525 37.692C107.383 37.216 106.181 36.617 105.263 35.7161C104.328 34.7977 103.703 33.5786 103.703 31.9166C103.703 29.9351 104.567 28.3971 105.953 27.3694Z" fill="#040047"/>
</svg>
