<svg width="170" height="157" viewBox="0 0 170 157" fill="none" xmlns="http://www.w3.org/2000/svg">
<path d="M73.4433 155.52C114.005 155.52 146.887 153.413 146.887 150.814C146.887 148.215 114.005 146.108 73.4433 146.108C32.8817 146.108 0 148.215 0 150.814C0 153.413 32.8817 155.52 73.4433 155.52Z" fill="#D1D3D4"/>
<path d="M99.1777 76.7128C100.635 75.8417 102.038 74.8846 103.381 73.8467C106.262 71.6175 107.118 69.6996 107.953 66.2391C108.512 63.9037 106.75 61.7028 105.016 60.0398C103.282 58.3767 101.308 56.5367 101.279 54.1377C101.279 52.2907 102.433 50.6771 103.134 48.9645C106.835 39.9487 96.5451 35.9715 94.4857 28.4417C92.4264 20.912 89.999 14.7198 80.7779 17.1188C78.5417 17.6921 76.3266 18.4563 74.0266 18.5342C71.9036 18.6403 69.823 18.1945 67.7141 18.1662C64.7656 18.1675 61.8721 18.9635 59.3377 20.4704C56.8034 21.9773 54.7221 24.1393 53.3128 26.7292C52.1876 28.8522 52.8528 31.6829 51.7983 33.3601C49.0313 37.7619 42.4286 36.6862 43.8298 43.8834C44.3323 46.4452 45.4292 49.1415 44.4526 51.5688C43.2071 54.6614 39.3643 55.5885 36.6681 57.57C32.2734 60.8111 31.1269 67.336 33.2287 72.3818C35.3306 77.4275 40.072 81.0155 45.224 82.8484C50.3759 84.6813 55.9312 84.9714 61.4016 84.9714C74.4512 85.021 88.1308 83.3438 99.1777 76.7128Z" fill="white"/>
<path d="M61.607 85.3253H61.4159C56.0516 85.3253 50.376 85.0564 45.1392 83.2022C39.3503 81.1429 34.9061 77.2648 32.9529 72.587C30.6671 67.0954 32.1886 60.5564 36.4913 57.386C37.3953 56.7541 38.341 56.1843 39.322 55.6805C41.3814 54.5694 43.3346 53.5574 44.1343 51.5264C44.842 49.7288 44.3678 47.6978 43.8866 45.7375C43.7521 45.1643 43.6106 44.5911 43.5044 44.0249C42.5774 39.2835 44.9835 37.9389 47.5312 36.5093C49.0031 35.6884 50.5176 34.8392 51.5154 33.2611C51.9566 32.3323 52.1863 31.3171 52.1877 30.2888C52.2183 29.0363 52.4973 27.8022 53.0086 26.6584C54.4315 24.045 56.5248 21.8577 59.0733 20.3216C61.6219 18.7855 64.5336 17.9561 67.509 17.9185H67.7001C68.6272 17.9185 69.5542 18.0176 70.453 18.1096C71.6269 18.2508 72.8094 18.3076 73.9914 18.2794C75.7532 18.1267 77.4928 17.7802 79.1787 17.2462L80.6861 16.8358C90.1053 14.4155 92.6388 20.6502 94.7831 28.4205C95.5474 31.2017 97.5148 33.5371 99.4184 35.7946C102.546 39.5099 105.788 43.3526 103.417 49.1273C103.219 49.6156 102.971 50.111 102.709 50.5851C102.05 51.6716 101.657 52.8987 101.563 54.166C101.563 56.3881 103.459 58.1786 105.101 59.7638L105.193 59.8416C107.705 62.2477 108.689 64.3708 108.215 66.3523C107.366 69.8907 106.488 71.8439 103.53 74.1368C102.173 75.1825 100.755 76.1467 99.284 77.0242C89.9921 82.6007 77.6501 85.3253 61.607 85.3253ZM67.5232 18.5271C64.6661 18.562 61.87 19.3573 59.4222 20.8312C56.9744 22.3051 54.9634 24.4044 53.596 26.9132C53.1261 27.9855 52.8712 29.1396 52.8458 30.31C52.842 31.44 52.5781 32.5539 52.0745 33.5654C50.9917 35.278 49.3994 36.1696 47.8284 37.033C45.3869 38.3988 43.278 39.5807 44.113 43.8551C44.2263 44.4141 44.3607 44.9732 44.4952 45.5394C44.9976 47.5987 45.5143 49.7359 44.7146 51.7245C43.8229 53.9396 41.6786 55.0931 39.6051 56.2112C38.6466 56.6977 37.7221 57.2486 36.8381 57.8601C32.7618 60.8678 31.3323 67.06 33.5049 72.2968C35.3944 76.8331 39.6971 80.5838 45.309 82.5795C50.461 84.4124 56.08 84.7025 61.3805 84.7025H61.5716C77.4944 84.7025 89.7303 82.0062 98.9797 76.458C100.423 75.5964 101.815 74.6512 103.148 73.6273C105.979 71.4547 106.792 69.5793 107.599 66.1966C108.017 64.4628 107.09 62.5379 104.769 60.3087L104.677 60.2309C102.936 58.5607 100.954 56.6924 100.933 54.1731C101.024 52.8029 101.439 51.4738 102.143 50.295C102.377 49.8279 102.61 49.3538 102.808 48.8796C105.023 43.4729 102.051 39.9487 98.9089 36.2121C96.9628 33.9051 94.9459 31.5131 94.1462 28.5904C92.0232 20.8908 89.6949 15.1869 80.8347 17.4656C80.3322 17.593 79.8369 17.7274 79.3415 17.869C77.609 18.415 75.8222 18.771 74.0126 18.9305C72.7975 18.9572 71.582 18.8981 70.3751 18.7536C69.4905 18.6616 68.5776 18.5767 67.6789 18.5625L67.5232 18.5271Z" fill="#040047"/>
<path d="M35.4368 98.0211C35.4368 98.0211 41.2115 66.8831 46.9861 61.6108C52.7608 56.3386 68.0822 56.3386 76.1144 56.0838C84.1466 55.8291 95.9295 58.5961 101.23 63.8683C106.531 69.1406 112.022 102.529 112.022 102.529L100.975 101.269L108.01 119.853C108.01 119.853 83.6512 132.959 72.3495 132.174C61.0478 131.388 43.2213 116.102 43.2213 116.102L44.2262 95.5088L35.4368 98.0211Z" fill="#FFE11B"/>
<path d="M97.9605 96.082C97.918 96.0802 97.8763 96.07 97.8379 96.0518C97.7995 96.0337 97.7651 96.008 97.7367 95.9763C97.7083 95.9447 97.6866 95.9077 97.6728 95.8675C97.6589 95.8273 97.6533 95.7847 97.6562 95.7423C98.1515 86.1037 94.6839 67.3784 94.6485 67.1944C94.6406 67.1531 94.6409 67.1106 94.6495 67.0693C94.658 67.0281 94.6746 66.989 94.6982 66.9541C94.7219 66.9193 94.7522 66.8895 94.7873 66.8663C94.8225 66.8432 94.8619 66.8272 94.9033 66.8193C94.9446 66.8114 94.9871 66.8118 95.0284 66.8203C95.0696 66.8288 95.1088 66.8454 95.1436 66.8691C95.1784 66.8927 95.2082 66.923 95.2314 66.9582C95.2545 66.9934 95.2705 67.0328 95.2784 67.0741C95.2784 67.2652 98.8168 86.0612 98.3002 95.7777C98.2984 95.8202 98.2881 95.8619 98.2699 95.9003C98.2518 95.9387 98.2261 95.9731 98.1945 96.0015C98.1628 96.0298 98.1258 96.0516 98.0856 96.0654C98.0454 96.0792 98.0029 96.0849 97.9605 96.082Z" fill="#040047"/>
<path d="M55.0255 89.5572C54.9404 89.5572 54.8587 89.5239 54.7978 89.4644C54.7369 89.4049 54.7018 89.3239 54.7 89.2388C54.7 89.0972 54.4806 75.2762 56.9717 66.2957C56.9964 66.2145 57.0512 66.1459 57.1248 66.1038C57.1985 66.0617 57.2855 66.0493 57.368 66.0692C57.4092 66.0799 57.4478 66.0987 57.4816 66.1245C57.5154 66.1503 57.5437 66.1826 57.5648 66.2196C57.586 66.2565 57.5994 66.2973 57.6045 66.3396C57.6096 66.3818 57.6062 66.4246 57.5944 66.4655C55.1246 75.3611 55.344 89.1114 55.344 89.2246C55.3459 89.3098 55.3144 89.3923 55.2562 89.4545C55.198 89.5167 55.1177 89.5535 55.0326 89.5572H55.0255Z" fill="#040047"/>
<path d="M80.6648 60.0681L81.8466 71.8298C81.8466 71.8298 81.2734 78.5245 73.9206 77.194C71.7504 76.7814 69.6995 75.8902 67.917 74.5852C66.1346 73.2803 64.6656 71.5943 63.6167 69.6501C63.27 68.9424 63.4964 67.3997 63.454 66.6212L63.0789 59.7213C62.8949 56.2608 62.4066 52.6445 62.5127 49.1981C62.6189 45.7517 62.5127 42.0788 62.6472 38.4838C62.6289 38.2737 62.6895 38.0643 62.817 37.8964C62.9434 37.7801 63.1057 37.7102 63.277 37.6982C64.272 37.5188 65.2932 37.5453 66.2776 37.7761C66.3273 35.3345 66.0367 32.8979 65.4142 30.5365C67.4903 32.0851 69.0991 34.1763 70.0637 36.5801C72.5041 36.4594 74.9504 36.5803 77.367 36.941C77.6787 35.2611 77.4457 33.5255 76.7018 31.9873C77.7339 33.2576 78.6796 34.5957 79.5325 35.9927C79.5325 36.198 82.8091 36.658 83.0355 36.4527C83.6017 35.9503 83.4177 32.5605 83.4884 31.7537C85.1639 33.8569 86.3007 36.3371 86.8004 38.9792C87.3665 41.3923 87.3029 51.3778 87.317 53.8971C87.3099 57.6124 84.6773 60.5918 80.6648 60.0681Z" fill="white"/>
<path d="M75.7607 77.6682C75.1243 77.6636 74.4896 77.602 73.8641 77.4842C71.6466 77.0649 69.5516 76.1527 67.7338 74.8151C65.9161 73.4776 64.4221 71.7487 63.3621 69.7563C63.1295 69.0157 63.0571 68.2341 63.1498 67.4634C63.1498 67.1379 63.1498 66.8406 63.1498 66.6071L62.7818 59.7143C62.7181 58.5678 62.619 57.386 62.527 56.2395C62.2902 53.8883 62.1838 51.5257 62.2086 49.1627C62.2581 47.4784 62.2652 45.7446 62.2723 44.0745C62.2723 42.2345 62.2723 40.3308 62.343 38.413C62.3262 38.122 62.4168 37.8349 62.5978 37.6063C62.7771 37.445 63.0022 37.3436 63.2418 37.3161C64.1475 37.1534 65.0749 37.1534 65.9805 37.3161C65.9933 35.0332 65.7054 32.7585 65.1242 30.5507C65.1082 30.4857 65.1126 30.4173 65.1369 30.3549C65.1611 30.2925 65.204 30.2391 65.2598 30.2019C65.3155 30.1648 65.3813 30.1458 65.4482 30.1474C65.5151 30.149 65.5799 30.1712 65.6338 30.211C67.6949 31.7487 69.3054 33.8114 70.2974 36.1838C72.5789 36.0869 74.8646 36.1958 77.1265 36.5094C77.3333 34.9906 77.0871 33.4446 76.4188 32.0651C76.3851 31.9934 76.3786 31.9119 76.4006 31.8358C76.4226 31.7597 76.4717 31.6942 76.5385 31.6517C76.6054 31.6091 76.6855 31.5924 76.7637 31.6047C76.842 31.617 76.9132 31.6574 76.9638 31.7184C77.9815 32.9849 78.913 34.3183 79.752 35.7097C80.76 35.9581 81.7925 36.0933 82.8305 36.1131C83.1064 35.7097 83.1206 33.5796 83.1206 32.7586C83.1206 32.2703 83.1206 31.8811 83.1206 31.6547C83.1259 31.5922 83.1496 31.5326 83.1886 31.4835C83.2276 31.4344 83.2803 31.398 83.34 31.3787C83.4007 31.3609 83.4651 31.3601 83.5262 31.3763C83.5873 31.3926 83.6428 31.4252 83.6868 31.4707C85.2295 33.2399 86.2981 35.5823 87.0624 38.8447C87.5719 40.9678 87.579 48.8372 87.5861 52.6091V53.8334C87.6226 54.7953 87.4519 55.7537 87.0856 56.6438C86.7193 57.5339 86.1659 58.3349 85.463 58.9924C84.8583 59.5152 84.1518 59.9071 83.3882 60.1434C82.6245 60.3797 81.8202 60.4553 81.0259 60.3653L82.1652 71.7378C81.9845 73.5614 81.0951 75.2412 79.6883 76.4156C78.556 77.2604 77.1731 77.7014 75.7607 77.6682ZM64.5864 37.8752C64.1662 37.8736 63.7469 37.9115 63.3338 37.9884C63.2325 37.9967 63.1351 38.0308 63.0507 38.0875C62.9855 38.2036 62.9582 38.3373 62.9729 38.4696C62.9021 40.3379 62.9021 42.2416 62.895 44.0745C62.895 45.7517 62.895 47.4855 62.8313 49.1769C62.8105 51.5186 62.9168 53.8598 63.1498 56.19C63.2418 57.3365 63.3409 58.5254 63.4046 59.6789L63.7726 66.5717C63.7726 66.8194 63.7726 67.1379 63.7726 67.4846C63.6925 68.1528 63.7405 68.8301 63.9141 69.4803C64.9329 71.3833 66.3661 73.0333 68.1078 74.3084C69.8496 75.5835 71.8554 76.4511 73.9773 76.8473C76.1924 77.2507 77.9757 76.9393 79.292 75.9344C80.534 74.8816 81.3306 73.3972 81.5212 71.7803L80.3465 60.0681C80.3408 60.0197 80.3469 59.9707 80.3641 59.9251C80.3814 59.8796 80.4093 59.8388 80.4456 59.8063C80.4811 59.7724 80.5235 59.7467 80.5699 59.7308C80.6164 59.7149 80.6657 59.7093 80.7145 59.7143C81.4767 59.849 82.2593 59.8142 83.0066 59.6124C83.7539 59.4106 84.4476 59.0467 85.0384 58.5466C85.6744 57.9494 86.1753 57.2229 86.5073 56.4161C86.8393 55.6093 86.9948 54.7407 86.9633 53.8688V52.6445C86.9633 49.191 86.9633 41.1093 86.4538 39.0287C86.0048 36.7281 85.0896 34.5437 83.7646 32.61V32.794C83.7646 34.726 83.708 36.2334 83.2268 36.6651C82.7455 37.0967 79.9077 36.5023 79.4973 36.3395C79.4348 36.3218 79.3768 36.2912 79.3268 36.2498C79.2769 36.2084 79.2361 36.157 79.2071 36.0989C78.7188 35.2921 78.1951 34.4995 77.6431 33.7352C77.8694 34.8001 77.8838 35.899 77.6856 36.9694C77.6717 37.0516 77.6261 37.125 77.5586 37.174C77.4911 37.2229 77.4071 37.2435 77.3247 37.2312C74.9265 36.8763 72.4993 36.7578 70.078 36.8774C70.0105 36.8838 69.9428 36.867 69.8861 36.8297C69.8295 36.7923 69.7873 36.7367 69.7666 36.6721C68.9443 34.6177 67.6382 32.7921 65.9593 31.3504C66.4251 33.4405 66.6412 35.5785 66.6033 37.7195C66.6012 37.7675 66.5888 37.8146 66.5668 37.8573C66.5448 37.9001 66.5138 37.9376 66.4759 37.9672C66.4379 37.9984 66.3933 38.0204 66.3454 38.0314C66.2975 38.0425 66.2477 38.0423 66.1999 38.0309C65.6701 37.9152 65.1285 37.863 64.5864 37.8752Z" fill="#040047"/>
<path d="M81.1459 65.8286C81.1459 65.8286 76.3832 66.4868 73.0146 63.5923C69.6461 60.6979 69.7947 57.4426 69.7947 57.4426C69.7947 57.4426 75.2863 60.4219 80.6647 60.0398L81.1459 65.8286Z" fill="#040047"/>
<path d="M79.9004 66.2037C77.3361 66.2623 74.8322 65.421 72.8236 63.8259C69.3772 60.8678 69.4904 57.57 69.4975 57.4568C69.4995 57.4038 69.5149 57.3522 69.5424 57.3069C69.5699 57.2616 69.6085 57.224 69.6546 57.1978C69.7007 57.1716 69.7527 57.1576 69.8057 57.1571C69.8587 57.1566 69.9109 57.1696 69.9575 57.1949C70.0141 57.1949 75.4349 60.1318 80.6576 59.7567C80.7391 59.7508 80.8197 59.7772 80.8819 59.8302C80.9441 59.8831 80.983 59.9584 80.9902 60.0398L81.4715 65.8286C81.4759 65.9076 81.4508 65.9853 81.4011 66.0468C81.3514 66.1083 81.2807 66.1491 81.2025 66.1613C80.7698 66.2021 80.3349 66.2162 79.9004 66.2037ZM70.1344 57.9451C70.4406 60.0656 71.541 61.9906 73.2128 63.3305C75.9657 65.6942 79.7376 65.6022 80.8062 65.5243L80.3816 60.3441C75.9515 60.5918 71.5781 58.6527 70.1344 57.9451Z" fill="#040047"/>
<path d="M76.8433 50.8682C76.4502 50.8664 76.0577 50.838 75.6685 50.7833C75.5863 50.7694 75.5128 50.7238 75.4639 50.6563C75.4149 50.5888 75.3944 50.5048 75.4067 50.4224C75.4127 50.3812 75.4268 50.3417 75.4484 50.3062C75.4699 50.2706 75.4983 50.2397 75.5319 50.2153C75.5655 50.1909 75.6037 50.1735 75.6442 50.1641C75.6847 50.1547 75.7266 50.1535 75.7676 50.1605C76.4328 50.2667 78.2869 50.3799 78.8601 49.6298C79.2494 49.1061 77.3669 46.0913 75.3217 43.6428C75.2962 43.6107 75.2772 43.5739 75.2658 43.5345C75.2545 43.4951 75.251 43.4539 75.2556 43.4131C75.2602 43.3724 75.2728 43.3329 75.2926 43.2971C75.3125 43.2612 75.3392 43.2296 75.3713 43.204C75.4033 43.1784 75.4401 43.1595 75.4795 43.1481C75.5189 43.1368 75.5602 43.1333 75.6009 43.1379C75.6417 43.1425 75.6811 43.1551 75.717 43.1749C75.7529 43.1948 75.7845 43.2215 75.81 43.2535C76.8574 44.5415 80.2189 48.8372 79.3484 50.0048C78.8248 50.7125 77.7066 50.8682 76.8433 50.8682Z" fill="#040047"/>
<path d="M65.8742 42.7511C65.2888 41.3251 64.4141 40.0359 63.3054 38.965C62.1235 37.9813 60.3402 37.5496 59.0593 38.3493C57.6439 39.2339 57.2901 41.18 57.4528 42.8926C57.6794 44.8119 58.2047 46.6839 59.0097 48.4409C59.3902 49.5168 60.0409 50.477 60.8992 51.2291C61.3363 51.5937 61.8804 51.8055 62.4489 51.8323C63.0173 51.8591 63.579 51.6995 64.0484 51.3777" fill="white"/>
<path d="M62.6542 52.1633C61.931 52.1436 61.2325 51.8959 60.6585 51.4556C59.7557 50.6682 59.0709 49.6616 58.6699 48.5328C57.8459 46.7412 57.3109 44.8304 57.0847 42.8714C56.9856 41.7957 56.9502 39.1773 58.8468 38.0167C60.3825 37.0755 62.3357 37.6911 63.4963 38.6607C64.6418 39.7596 65.5456 41.0852 66.1501 42.5529C66.1756 42.5916 66.1925 42.6352 66.1998 42.6809C66.2071 42.7266 66.2045 42.7734 66.1923 42.818C66.1801 42.8626 66.1585 42.9042 66.129 42.9398C66.0994 42.9754 66.0626 43.0044 66.021 43.0247C65.9794 43.045 65.934 43.0562 65.8877 43.0575C65.8415 43.0588 65.7954 43.0503 65.7527 43.0324C65.71 43.0146 65.6716 42.9878 65.6401 42.9539C65.6086 42.9201 65.5846 42.8799 65.5698 42.836C65.0001 41.4518 64.1523 40.1992 63.0788 39.156C62.088 38.3281 60.4462 37.7902 59.1865 38.5687C57.5518 39.5665 57.6579 42.0646 57.7287 42.8148C57.9473 44.7013 58.4657 46.5409 59.2644 48.2639C59.6244 49.2891 60.2408 50.2051 61.0548 50.9248C61.4346 51.2431 61.9071 51.4302 62.4019 51.4583C62.8966 51.4863 63.3872 51.3538 63.8006 51.0805C63.833 51.0531 63.8704 51.0325 63.9109 51.0198C63.9513 51.0071 63.9938 51.0026 64.036 51.0066C64.0782 51.0105 64.1191 51.0229 64.1565 51.0429C64.1938 51.0628 64.2268 51.0901 64.2535 51.123C64.3078 51.1882 64.3345 51.272 64.3279 51.3566C64.3213 51.4412 64.2819 51.5199 64.2182 51.5759C63.7834 51.9516 63.2288 52.1599 62.6542 52.1633Z" fill="#040047"/>
<path d="M71.1606 44.8458C71.5436 44.8458 71.8541 44.0601 71.8541 43.0908C71.8541 42.1215 71.5436 41.3357 71.1606 41.3357C70.7776 41.3357 70.467 42.1215 70.467 43.0908C70.467 44.0601 70.7776 44.8458 71.1606 44.8458Z" fill="#040047"/>
<path d="M81.6413 44.4708C82.0243 44.4708 82.3348 43.685 82.3348 42.7157C82.3348 41.7464 82.0243 40.9607 81.6413 40.9607C81.2583 40.9607 80.9478 41.7464 80.9478 42.7157C80.9478 43.685 81.2583 44.4708 81.6413 44.4708Z" fill="#040047"/>
<path d="M73.7084 71.4972C73.7084 71.4972 76.7444 62.9484 75.2866 60.5847C73.8287 58.2211 69.7737 55.9777 68.9882 53.8405C68.2027 51.7033 69.5473 46.5301 67.863 45.964C66.1787 45.3979 64.9402 50.2101 66.1787 54.0599C66.1787 54.0599 64.2609 51.7033 64.2609 49.4529C64.2609 47.2024 65.7258 44.3929 64.1476 43.7136C62.5695 43.0342 60.0997 48.2144 60.6658 52.3756C61.232 56.5368 66.5113 62.3822 66.1787 63.5074C65.8461 64.6327 36.9373 92.671 34.333 97.2639C31.9127 101.51 33.4201 111.085 41.7424 110.073C50.0648 109.061 68.0894 86.0047 73.7084 71.4972Z" fill="white"/>
<path d="M40.5109 110.469C39.3244 110.512 38.1472 110.246 37.0941 109.698C36.041 109.15 35.1481 108.338 34.5027 107.341C33.5729 105.812 33.0423 104.073 32.9595 102.285C32.8766 100.497 33.2442 98.7171 34.0285 97.1082C35.6562 94.2775 46.8447 82.9545 55.8322 73.8325C60.8568 68.7372 65.6053 63.925 65.8742 63.3942C65.9521 63.0828 64.9613 61.5471 64.1616 60.3087C62.6118 57.9167 60.6799 54.9303 60.3472 52.418C59.8872 49.0282 61.4017 44.8671 62.9586 43.6852C63.1307 43.5215 63.3454 43.4095 63.5781 43.3619C63.8109 43.3144 64.0523 43.3332 64.2749 43.4163C65.5558 43.9683 65.2302 45.5394 64.9118 47.1246C64.7271 47.8881 64.618 48.668 64.5863 49.4529C64.6428 50.4829 64.9436 51.4847 65.4638 52.3756C65.0958 49.7076 65.6832 46.9972 66.6598 46.0064C66.8172 45.8247 67.0244 45.693 67.2558 45.6276C67.4871 45.5622 67.7326 45.5659 67.9619 45.6384C69.1791 46.0418 69.1225 48.0446 69.0659 50.1535C68.9512 51.3374 69.0277 52.5322 69.2923 53.6919C69.6816 54.7534 71.0474 55.9423 72.3708 57.0887C73.5841 58.0302 74.6585 59.138 75.5624 60.3795C77.0839 62.8422 74.147 71.2141 74.0126 71.5679C71.3022 78.5528 65.5204 87.9154 58.9743 96.0042C51.9612 104.645 45.6841 109.875 41.7564 110.349C41.3443 110.416 40.9282 110.456 40.5109 110.469ZM63.8644 43.9825C63.6765 43.998 63.4983 44.0723 63.3549 44.1948C62.0881 45.1572 60.5242 48.9999 60.9912 52.3331C61.3097 54.6968 63.277 57.7398 64.7136 59.9619C66.037 62.0071 66.6668 63.0191 66.4899 63.5994C66.313 64.1797 63.5813 66.9043 56.2993 74.2854C47.8071 82.8767 36.1799 94.6525 34.5947 97.4266C33.8671 98.932 33.528 100.596 33.6083 102.266C33.6887 103.936 34.1859 105.559 35.0547 106.987C36.0596 108.495 38.0269 110.2 41.6927 109.754C49.8948 108.757 67.877 85.6933 73.4181 71.3839C74.2532 69.0415 76.1569 62.5804 75.0246 60.7687C74.1535 59.5845 73.1222 58.5271 71.9603 57.6266C70.5449 56.374 69.1296 55.1851 68.6979 53.9608C68.401 52.7221 68.3101 51.4429 68.429 50.1747C68.4785 48.4692 68.5351 46.5372 67.7708 46.2895C67.693 46.2895 67.4524 46.1763 67.1339 46.5018C66.0865 47.535 65.5699 51.1018 66.497 53.9749C66.518 54.0464 66.514 54.1228 66.4855 54.1916C66.457 54.2604 66.4058 54.3173 66.3404 54.3529C66.275 54.3885 66.1994 54.4006 66.1261 54.3872C66.0529 54.3738 65.9865 54.3357 65.9379 54.2792C65.8601 54.1802 63.9564 51.8024 63.9564 49.467C63.987 48.6391 64.1008 47.8164 64.2961 47.0114C64.6287 45.3695 64.7773 44.3434 64.0413 44.0249C63.9835 43.9986 63.9209 43.9841 63.8573 43.9825H63.8644Z" fill="#040047"/>
<path d="M80.4736 70.9947C80.4736 70.9947 77.4376 62.4459 78.9308 60.0681C80.2684 57.9451 82.6532 56.6712 84.2809 54.7676C86.0006 52.7507 85.76 49.2406 86.7366 46.7495C86.9347 46.24 87.3664 45.6314 87.883 45.8225C88.0978 45.9278 88.2683 46.1058 88.3642 46.3249C89.124 47.8637 89.6306 49.5149 89.8645 51.215C90.1915 52.6748 90.3717 54.1636 90.4024 55.6592C90.3811 57.0083 90.1125 58.3419 89.6098 59.594C89.2984 60.3866 87.7769 62.1133 88.0387 62.9908C88.3784 64.116 90.2891 69.8553 93.4383 73.7901C96.5875 77.7248 112.68 93.1735 114.938 102.968C116.134 108.127 115.355 114.333 107.033 113.321C98.7106 112.309 86.0997 85.5022 80.4736 70.9947Z" fill="white"/>
<path d="M108.71 113.767C108.126 113.765 107.543 113.73 106.962 113.661C98.4136 112.621 85.7319 85.3536 80.1766 71.1079C80.0492 70.7541 77.1052 62.3893 78.6338 59.9194C79.4893 58.6882 80.5357 57.6012 81.7335 56.6995C82.5513 56.057 83.3136 55.3468 84.0122 54.5764C85.01 53.4088 85.3285 51.6254 85.6257 49.9057C85.7829 48.8003 86.046 47.7126 86.4113 46.6575C86.6802 45.9498 87.2463 45.2421 87.9752 45.5393C88.2632 45.6714 88.4942 45.9024 88.6263 46.1904C89.4037 47.7468 89.9202 49.4203 90.1549 51.1442C90.4937 52.626 90.6764 54.1393 90.6998 55.6592C90.6823 57.0467 90.4088 58.419 89.8931 59.7071C89.7139 60.0792 89.5057 60.4365 89.2703 60.7757C88.8386 61.441 88.1946 62.4459 88.3291 62.8988C88.4069 63.1606 90.2894 69.367 93.665 73.5848C94.3302 74.4128 95.5687 75.7503 97.1397 77.4487C103.233 84.0514 113.416 95.0913 115.235 102.89C115.752 105.126 116.275 109.259 114.018 111.771C112.822 113.102 111.046 113.767 108.71 113.767ZM80.7781 70.8814C87.1473 87.3138 99.3972 112.09 107.04 113.017C110.027 113.378 112.206 112.819 113.53 111.347C115.596 109.054 115.087 105.169 114.598 103.053C112.836 95.4522 102.285 84.0231 96.6231 77.9087C95.045 76.1961 93.7924 74.8445 93.1272 74.0023C89.6737 69.6855 87.7488 63.3871 87.6709 63.0969C87.4516 62.3893 88.1097 61.3419 88.69 60.4431C88.9036 60.1426 89.0929 59.8255 89.2561 59.4948C89.7409 58.2755 89.9999 56.9782 90.0204 55.6663C89.9886 54.1921 89.8109 52.7248 89.4897 51.2857C89.2647 49.6229 88.7724 48.0075 88.0319 46.5018C87.9399 46.3461 87.8337 46.1833 87.7134 46.1409C87.4303 46.0347 87.1119 46.5372 87.0057 46.8839C86.6559 47.9001 86.4047 48.9476 86.2556 50.0119C85.9371 51.8165 85.6116 53.6848 84.4934 54.9657C83.7734 55.7639 82.9875 56.5002 82.1439 57.1666C80.9946 58.0162 79.9929 59.049 79.1787 60.2237C78.0465 62.0779 79.9501 68.5602 80.7781 70.8814Z" fill="#040047"/>
<path d="M69.087 122.882C69.087 122.882 38.1967 93.7538 25.1399 99.5285C12.0832 105.303 12.338 121.877 19.3653 131.417C26.3925 140.956 52.5131 148.741 74.1116 146.738C95.71 144.735 125.581 136.689 131.363 129.159C137.145 121.629 132.863 109.068 122.574 105.806C112.284 102.543 85.9086 123.632 69.087 122.882Z" fill="#040047"/>
<path d="M67.1905 147.354C47.616 147.354 25.6212 140.433 19.1176 131.601C14.822 125.776 13.2014 117.688 14.9777 111C15.6271 108.396 16.8721 105.978 18.6147 103.937C20.3572 101.896 22.5498 100.288 25.0197 99.2383C37.8995 93.5769 67.056 120.554 69.2145 122.592C77.7067 122.924 88.8385 117.589 98.6824 112.882C108.356 108.261 117.485 103.881 122.666 105.53C125.221 106.353 127.541 107.779 129.431 109.686C131.32 111.594 132.723 113.928 133.522 116.492C134.994 121.169 134.293 125.861 131.611 129.371C125.864 136.859 96.0003 145.032 74.1399 147.063C71.8541 147.255 69.5542 147.354 67.1905 147.354ZM29.0747 99.0826C27.7702 99.0508 26.4734 99.2919 25.2674 99.7903C22.8877 100.801 20.7745 102.349 19.0936 104.314C17.4127 106.279 16.2098 108.606 15.5792 111.113C13.8525 117.631 15.4377 125.515 19.6201 131.19C26.796 140.935 53.2633 148.316 74.0763 146.384C95.8163 144.36 125.461 136.293 131.115 128.926C133.677 125.585 134.335 121.099 132.927 116.619C132.16 114.149 130.81 111.901 128.99 110.063C127.171 108.225 124.936 106.852 122.475 106.06C117.521 104.496 108.512 108.813 98.9513 113.385C88.9942 118.141 77.7208 123.533 69.0729 123.151C68.999 123.146 68.929 123.116 68.8748 123.066C68.5917 122.84 43.2142 99.0826 29.0747 99.0826Z" fill="#040047"/>
<path d="M49.9584 143.369L69.9362 153.008L78.8813 130.412C78.8813 130.412 50.2556 110.314 43.2212 116.102C36.1869 121.891 47.6938 141.614 49.9584 143.369Z" fill="#040047"/>
<path d="M69.9361 153.319C69.8919 153.33 69.8459 153.33 69.8017 153.319L49.8238 143.681L49.7672 143.645C47.9626 142.23 40.7726 130.327 40.6664 122.096C40.6239 119.266 41.4236 117.206 43.023 115.89C50.1564 110.031 77.8834 129.336 79.0582 130.185C79.1146 130.226 79.1563 130.284 79.1767 130.35C79.1972 130.417 79.1953 130.488 79.1714 130.553L70.2263 153.128C70.2016 153.185 70.1611 153.233 70.1096 153.267C70.0581 153.301 69.9978 153.319 69.9361 153.319ZM50.121 143.108L69.7663 152.583L78.4991 130.532C75.9302 128.756 49.8875 111.028 43.4193 116.378C42.0039 117.567 41.2538 119.492 41.2962 122.096C41.4236 129.909 48.3801 141.692 50.121 143.108Z" fill="#040047"/>
<path d="M77.8765 151.005C77.8765 151.005 91.5277 155.534 104.238 153.638C118.554 151.515 122.821 145.103 115.561 139.329C108.3 133.554 78.6478 138.451 78.6478 138.451L77.8765 151.005Z" fill="#909090"/>
<path d="M97.6917 154.423C90.938 154.326 84.2317 153.278 77.7704 151.31C77.7034 151.287 77.6457 151.242 77.6061 151.184C77.5665 151.125 77.5472 151.055 77.551 150.984L78.3082 138.43C78.3122 138.357 78.3411 138.288 78.3901 138.234C78.439 138.179 78.5051 138.144 78.5772 138.133C79.7873 137.927 108.434 133.278 115.745 139.074C118.625 141.36 119.821 143.808 119.198 146.151C118.207 149.845 112.772 152.697 104.287 153.935C102.104 154.259 99.8992 154.422 97.6917 154.423ZM78.2233 150.772C80.0916 151.352 92.6176 155.018 104.209 153.319C112.426 152.095 117.655 149.42 118.582 145.981C119.142 143.907 118.023 141.699 115.355 139.612C108.618 134.269 81.8608 138.295 78.9522 138.755L78.2233 150.772Z" fill="#040047"/>
<path d="M71.104 150.05C71.104 150.05 82.894 153.765 85.1586 146.986C87.4232 140.206 82.5189 139.576 76.3692 138.196L71.104 150.05Z" fill="white"/>
<path d="M77.7279 151.359H77.275C75.153 151.277 73.0493 150.932 71.012 150.333C70.9679 150.32 70.9273 150.297 70.8931 150.267C70.8588 150.236 70.8318 150.198 70.8138 150.156C70.7927 150.116 70.7817 150.071 70.7817 150.025C70.7817 149.98 70.7927 149.935 70.8138 149.894L76.1002 138.069C76.1299 138 76.1831 137.943 76.2505 137.909C76.3179 137.876 76.395 137.867 76.4682 137.885L77.5297 138.118C81.1531 138.918 84.2881 139.605 85.5195 141.77C86.2272 143.072 86.2272 144.813 85.5195 147.085C84.5216 149.944 81.8537 151.359 77.7279 151.359ZM71.5498 149.816C73.496 150.347 82.9294 152.647 84.8472 146.858C85.5549 144.735 85.5549 143.192 84.9321 142.06C83.8423 140.149 80.8346 139.484 77.3599 138.72L76.5531 138.543L71.5498 149.816Z" fill="#040047"/>
<path d="M47.0853 142.103C47.0256 142.099 46.9675 142.082 46.9154 142.053C46.7668 141.954 31.58 132.598 22.8542 128.699C22.8154 128.682 22.7803 128.658 22.751 128.627C22.7217 128.597 22.6989 128.561 22.6837 128.521C22.6685 128.481 22.6614 128.439 22.6628 128.397C22.6641 128.355 22.6739 128.313 22.6915 128.275C22.7083 128.236 22.7328 128.201 22.7634 128.171C22.7939 128.142 22.8301 128.119 22.8696 128.104C22.9091 128.089 22.9513 128.082 22.9936 128.083C23.0359 128.084 23.0776 128.094 23.1161 128.112C31.8913 132.025 47.1065 141.409 47.2622 141.501C47.299 141.523 47.3311 141.552 47.3565 141.586C47.3818 141.621 47.4 141.66 47.41 141.701C47.4199 141.743 47.4213 141.786 47.4141 141.828C47.407 141.871 47.3914 141.911 47.3684 141.947C47.3383 141.995 47.2965 142.034 47.247 142.061C47.1975 142.089 47.1418 142.103 47.0853 142.103Z" fill="white"/>
<path d="M39.0814 136.689C39.0814 136.689 32.7122 135.436 31.0421 140.227C29.372 145.018 31.0421 154.381 35.2882 156.044C39.5343 157.707 46.0874 150.899 48.5997 150.269C51.112 149.639 57.566 147.078 57.566 147.078L39.0814 136.689Z" fill="#909090"/>
<path d="M36.7603 156.603C36.2265 156.607 35.6964 156.514 35.1963 156.327C30.6317 154.579 29.0819 144.933 30.7379 140.1C32.4434 135.146 39.0744 136.363 39.1381 136.37L39.2372 136.406L57.7431 146.773C57.7985 146.801 57.844 146.845 57.8731 146.899C57.9023 146.954 57.9137 147.016 57.9058 147.078C57.9022 147.138 57.8817 147.195 57.8466 147.244C57.8116 147.293 57.7634 147.331 57.7077 147.354C57.4388 147.46 51.2041 149.937 48.6989 150.567C47.9275 150.758 46.682 151.621 45.2312 152.626C42.627 154.43 39.4849 156.603 36.7603 156.603ZM37.284 136.873C35.352 136.873 32.3302 137.375 31.3465 140.312C30.5751 142.584 30.5468 146.08 31.2828 149.222C32.0825 152.654 33.5969 155.025 35.4298 155.726C38.1332 156.759 41.8627 154.169 44.8632 152.088C46.3635 151.055 47.6586 150.156 48.5432 149.965C50.5459 149.463 55.1459 147.693 56.8302 147.028L38.9682 137.029C38.4117 136.933 37.8486 136.881 37.284 136.873Z" fill="#040047"/>
<path d="M76.3692 138.522H76.2631C76.2228 138.508 76.1857 138.487 76.1538 138.459C76.1219 138.431 76.096 138.397 76.0775 138.358C76.0591 138.32 76.0484 138.278 76.0463 138.236C76.0441 138.194 76.0504 138.151 76.0649 138.111L78.103 132.181C76.6311 130.666 63.8079 117.497 55.1034 111.106C55.0349 111.055 54.9893 110.98 54.9767 110.895C54.9641 110.811 54.9855 110.725 55.0361 110.657C55.0868 110.588 55.1626 110.543 55.2469 110.53C55.3312 110.517 55.417 110.539 55.4855 110.59C64.7278 117.369 78.563 131.728 78.7046 131.877C78.746 131.919 78.7746 131.972 78.7872 132.029C78.7997 132.087 78.7956 132.147 78.7753 132.202L76.6523 138.324C76.6292 138.38 76.5902 138.429 76.54 138.464C76.4898 138.5 76.4305 138.519 76.3692 138.522Z" fill="white"/>
<path d="M76.9352 52.134C75.3097 52.1408 73.7141 52.5726 72.307 53.3866C72.2718 53.4082 72.2413 53.4367 72.2175 53.4704C72.1936 53.5041 72.1769 53.5423 72.1683 53.5827C72.1597 53.6231 72.1594 53.6648 72.1674 53.7053C72.1755 53.7458 72.1916 53.7842 72.215 53.8183C72.2372 53.8527 72.2661 53.8825 72.2998 53.9058C72.3336 53.929 72.3716 53.9454 72.4117 53.954C72.4519 53.9625 72.4933 53.9631 72.5336 53.9556C72.5739 53.9481 72.6123 53.9327 72.6467 53.9103C73.8914 53.188 75.301 52.7982 76.74 52.7784C78.1789 52.7586 79.5988 53.1094 80.8629 53.797C80.8987 53.817 80.938 53.8298 80.9787 53.8345C81.0194 53.8393 81.0607 53.836 81.1001 53.8248C81.1395 53.8137 81.1764 53.7948 81.2085 53.7694C81.2407 53.744 81.2675 53.7125 81.2875 53.6767C81.3075 53.641 81.3202 53.6016 81.325 53.5609C81.3298 53.5202 81.3265 53.4789 81.3153 53.4395C81.3041 53.4001 81.2853 53.3633 81.2599 53.3311C81.2345 53.2989 81.203 53.2721 81.1672 53.2521C79.8766 52.5206 78.4187 52.1354 76.9352 52.134Z" fill="#040047"/>
<path d="M110.84 9.29894C109.358 9.92498 108.06 10.9187 107.068 12.1863C102.44 18.0813 105.427 24.7618 109.1 30.303C113.048 36.2616 122.319 35.7167 128.639 33.3672C131.611 37.2666 137.647 38.8659 142.898 37.6133C145.305 37.0085 147.552 35.8886 149.484 34.3307C151.415 32.7729 152.986 30.8144 154.087 28.5904C155.304 30.7134 158.659 31.5131 161.341 30.8125C170.703 28.3781 172.09 16.5739 165.035 11.4574C163.096 10.042 159.89 9.65278 158.085 11.1885C157.632 8.61249 155.17 5.79591 152.261 4.81931C151.419 4.54331 143.698 4.28147 144.356 5.20146C142.162 2.13011 137.867 0.382139 133.628 0.311371C129.445 0.337882 125.357 1.5661 121.852 3.84978C119.885 4.99416 118.194 6.55735 116.898 8.42849C114.838 8.22912 112.761 8.52765 110.84 9.29894Z" fill="white"/>
<path d="M139.289 38.3776C135.008 38.3776 130.854 36.6792 128.518 33.7918C121.654 36.2617 112.631 36.2829 108.802 30.5011C105.554 25.5898 101.803 18.3148 106.792 11.9457C107.816 10.6296 109.162 9.5988 110.699 8.95218C112.613 8.18484 114.681 7.87702 116.735 8.05343C118.053 6.21882 119.74 4.68075 121.689 3.53841C125.262 1.24945 129.412 0.0223825 133.656 0C138.065 0.0778451 142.113 1.8329 144.349 4.62117C144.731 4.43717 145.687 4.23902 148.227 4.24609C149.622 4.21919 151.016 4.31152 152.395 4.52209C153.788 5.00546 155.049 5.80549 156.079 6.85916C157.109 7.91283 157.881 9.19135 158.333 10.594C160.364 9.30603 163.414 9.83679 165.268 11.1814C166.994 12.4624 168.323 14.2049 169.102 16.2082C169.88 18.2114 170.077 20.394 169.67 22.5043C169.289 24.5923 168.308 26.5242 166.848 28.0648C165.388 29.6053 163.511 30.6878 161.447 31.1805C158.963 31.8245 155.707 31.2725 154.15 29.3051C152.999 31.4454 151.413 33.321 149.493 34.8116C147.573 36.3021 145.363 37.3746 143.004 37.9601C141.787 38.248 140.54 38.3882 139.289 38.3776ZM128.639 33.0134C128.693 33.0139 128.747 33.0269 128.796 33.0515C128.845 33.076 128.888 33.1114 128.922 33.1549C131.71 36.8066 137.548 38.5333 142.813 37.2524C145.17 36.6663 147.371 35.5738 149.263 34.0511C151.155 32.5283 152.692 30.6118 153.768 28.4347C153.797 28.3762 153.841 28.3268 153.896 28.2918C153.951 28.2568 154.015 28.2377 154.08 28.2365C154.144 28.2351 154.207 28.2508 154.263 28.2819C154.319 28.313 154.366 28.3584 154.398 28.4135C155.573 30.4799 158.871 31.0885 161.249 30.4728C163.183 30.0144 164.942 29.0017 166.31 27.5586C167.677 26.1156 168.594 24.305 168.948 22.3486C169.333 20.3709 169.15 18.3246 168.422 16.4463C167.693 14.5679 166.447 12.934 164.829 11.7334C163.046 10.4383 160.003 10.0137 158.319 11.4503C158.27 11.4909 158.212 11.5182 158.15 11.5293C158.088 11.5405 158.024 11.5352 157.965 11.514C157.907 11.4928 157.856 11.4568 157.816 11.4096C157.776 11.3625 157.749 11.3057 157.738 11.2451C157.293 8.71865 154.837 6.05068 152.155 5.18024C151.327 4.90424 145.665 4.79101 144.71 5.18024C144.716 5.25763 144.695 5.3347 144.653 5.39957C144.61 5.46444 144.548 5.51353 144.474 5.53927C144.401 5.56501 144.322 5.56598 144.248 5.54202C144.174 5.51807 144.11 5.47052 144.066 5.40669C142.063 2.57596 137.966 0.735992 133.621 0.665223C129.507 0.705413 125.491 1.91819 122.043 4.16117C120.127 5.28195 118.48 6.80853 117.217 8.63373C117.181 8.68626 117.132 8.72877 117.075 8.75724C117.018 8.78572 116.955 8.79923 116.891 8.79649C114.881 8.58904 112.851 8.87319 110.975 9.62448C109.547 10.2232 108.299 11.1814 107.351 12.4057C102.695 18.3361 106 24.9812 109.397 30.0977C113.055 35.6247 121.873 35.4903 128.504 33.0205C128.548 33.0106 128.594 33.0082 128.639 33.0134Z" fill="#05947C"/>
<path d="M141.208 19.1926C140.348 20.5788 139.51 21.9749 138.613 23.3412C138.346 23.6413 138.035 23.9055 137.689 24.1262C137.425 23.7834 136.931 23.4306 136.937 23.0928C136.99 21.2793 137.151 19.4659 137.329 17.6574C137.329 17.4587 137.759 17.101 137.898 17.1606C138.271 17.229 138.599 17.4308 138.812 17.722C138.919 18.1418 138.919 18.5791 138.812 18.9989C138.668 19.6543 138.577 20.3185 138.538 20.9862C138.871 20.4447 139.188 19.8981 139.542 19.3665C139.764 19.0138 140.021 18.6811 140.311 18.3729C140.821 17.8462 141.385 17.3196 142.234 17.5879C143.083 17.8561 143.137 18.5815 143.18 19.2373C143.222 19.8932 143.18 20.5838 143.18 21.2595L143.518 21.3091C143.867 20.6782 144.179 20.0273 144.593 19.4212C144.914 18.8627 145.319 18.3491 145.796 17.8959C145.957 17.7219 146.168 17.5948 146.406 17.5299C146.643 17.465 146.896 17.4652 147.133 17.5305C147.37 17.5957 147.581 17.7231 147.742 17.8973C147.902 18.0715 148.005 18.2851 148.036 18.512C148.262 19.3168 148.283 20.1714 148.477 20.9961C148.568 21.4987 148.769 21.9788 149.068 22.4072C149.358 22.7847 149.756 23.058 149.229 23.4753C148.703 23.8927 148.112 23.9722 147.617 23.5151C147.302 23.1634 147.091 22.7424 147.005 22.2929C146.822 21.4433 146.768 20.5738 146.645 19.7193C146.581 19.4846 146.497 19.2553 146.392 19.0336C146.032 19.5702 145.769 19.9329 145.543 20.3204C145.071 21.1303 144.641 21.965 144.136 22.7599C143.83 23.2567 143.351 23.7536 142.712 23.4505C142.496 23.3122 142.311 23.1357 142.169 22.931C142.027 22.7263 141.93 22.4976 141.885 22.2581C141.741 21.3009 141.651 20.3374 141.616 19.3715L141.208 19.1926Z" fill="#05947C"/>
<path d="M116.01 18.7788L118.524 18.4586C118.892 18.3632 119.271 18.3188 119.651 18.3265C120.01 18.4425 120.349 18.6139 120.656 18.8347C120.385 19.1194 120.153 19.5768 119.832 19.648C118.826 19.8767 117.82 19.9529 116.814 20.0952C116.03 20.207 115.235 21.8386 115.678 22.4993C115.779 22.6518 116.141 22.7026 116.367 22.6772C117.373 22.5654 118.338 22.3976 119.324 22.2706C119.661 22.185 120.011 22.1695 120.355 22.2248C120.493 22.2801 120.618 22.3658 120.719 22.4756C120.821 22.5855 120.897 22.7168 120.943 22.8602C120.978 23.0076 120.666 23.3684 120.44 23.4396C120.081 23.5624 119.707 23.6359 119.329 23.6581C117.966 23.8208 116.603 24.0037 115.23 24.1156C114.114 24.207 113.782 23.7089 113.983 22.5908C114.34 20.5882 114.632 18.5755 114.939 16.5679C114.957 16.3971 114.942 16.2243 114.893 16.0596C114.622 15.0736 114.778 14.9262 115.779 14.8601C117.237 14.7636 118.685 14.5552 120.138 14.4281C120.722 14.3773 121.556 14.1486 121.597 15.0533C121.627 15.8462 120.827 15.7699 120.254 15.8157C119.288 15.897 118.328 15.9783 117.368 16.0495C117.244 16.0408 117.121 16.0585 117.005 16.1012C116.889 16.144 116.783 16.2109 116.695 16.2977C116.606 16.3844 116.536 16.4891 116.49 16.6048C116.444 16.7205 116.423 16.8448 116.427 16.9694C116.321 17.5799 116.182 18.184 116.01 18.7788Z" fill="#05947C"/>
<path d="M153.489 18.468C152.442 19.0317 151.301 21.2203 151.558 22.2103C151.629 22.3799 151.74 22.5273 151.882 22.6377C152.024 22.7482 152.19 22.818 152.366 22.8403C152.992 22.6845 153.606 22.4786 154.202 22.2245C154.485 22.149 154.774 22.0952 155.064 22.0634C154.997 22.3818 154.873 22.684 154.699 22.954C154.334 23.3525 153.892 23.6631 153.401 23.8643C152.911 24.0655 152.385 24.1525 151.86 24.1193C151.433 24.1223 151.022 23.9518 150.713 23.6436C150.403 23.3354 150.219 22.9135 150.199 22.4661C150.019 20.846 151.413 18.1175 152.803 17.3832C153.331 17.1038 153.873 17.009 154.329 17.5111C154.572 17.7462 154.744 18.0509 154.825 18.3876C154.905 18.7244 154.889 19.0784 154.78 19.406C154.727 19.5087 154.652 19.5971 154.561 19.6645C154.471 19.7319 154.366 19.7763 154.256 19.7944C154.112 19.7944 153.882 19.6049 153.805 19.4344C153.675 19.1217 153.57 18.7985 153.489 18.468Z" fill="#05947C"/>
<path d="M131.637 19.2456C130.048 19.2456 128.653 19.2456 127.259 19.2108C126.996 19.2108 126.737 18.7651 126.478 18.5144C126.651 18.1146 126.862 17.7576 127.105 17.4558C127.375 17.2944 127.665 17.2255 127.954 17.2538C128.862 17.1981 129.803 17.1285 130.729 17.1633C131.116 17.1839 131.494 17.3438 131.833 17.6299C131.921 17.7641 131.986 17.9297 132.023 18.112C132.059 18.2943 132.066 18.4875 132.042 18.6746C131.992 19.0019 131.678 19.169 131.637 19.2456Z" fill="#05947C"/>
<path d="M129.399 19.9428C130.065 19.9622 130.729 20.027 131.387 20.1368C131.646 20.1902 131.842 20.6217 132.056 20.8885C131.765 21.0388 131.478 21.3103 131.178 21.32C129.995 21.3588 128.807 21.32 127.62 21.32C127.411 21.32 127.165 21.3685 127.001 21.257C126.799 21.0536 126.623 20.822 126.478 20.5684C126.674 20.4132 126.851 20.1514 127.06 20.1223C127.734 20.0156 128.421 20.0059 129.399 19.9428Z" fill="#05947C"/>
<path d="M159.387 19.001C159.088 18.9856 158.788 18.9856 158.489 19.001L158.521 18.9747C158.727 18.7953 158.921 18.6027 159.105 18.4058C159.29 18.2473 159.418 18.0511 159.475 17.8383C159.532 17.6255 159.517 17.4042 159.43 17.198C158.986 16.2702 157.612 16.3227 156.725 16.7603C156.108 17.0798 156.676 17.8763 157.298 17.5568C157.547 17.4255 157.893 17.2592 158.186 17.3905C158.57 17.5656 158.186 17.8675 157.996 18.0513C157.617 18.4277 157.098 18.7209 156.762 19.1148C156.709 19.1843 156.68 19.2647 156.68 19.3467C156.68 19.4287 156.709 19.5091 156.762 19.5786C157.033 19.8762 157.266 19.8893 157.704 19.885C158.266 19.8773 158.828 19.8963 159.387 19.9419C160.134 19.9769 160.128 19.0666 159.387 19.001Z" fill="#05947C"/>
<path d="M124.336 40.4087C125.163 40.1232 126.048 40.0478 126.912 40.1893C127.429 40.2047 127.937 40.3316 128.402 40.5612C128.866 40.7908 129.275 41.1177 129.601 41.5197C130.153 42.3902 129.686 43.8692 128.653 43.8834C130.068 43.1757 132 44.2372 132.403 45.7941C133.246 49.0424 129.056 51.0664 126.324 50.8611C124.959 50.7621 123.635 50.111 122.276 50.3021C119.793 50.6488 118.03 50.9107 116.162 48.6815C114.818 47.068 115.285 44.8317 116.389 43.2182C116.728 42.6741 117.179 42.2085 117.713 41.8523C118.246 41.496 118.849 41.2572 119.481 41.1517C119.877 41.0951 122.913 41.4843 122.694 42.2133C122.813 41.8075 123.022 41.434 123.307 41.1213C123.591 40.8086 123.943 40.5649 124.336 40.4087Z" fill="white"/>
<path d="M126.693 51.2291C126.561 51.2363 126.428 51.2363 126.296 51.2291C125.735 51.1714 125.179 51.0697 124.633 50.9248C123.887 50.6942 123.105 50.6054 122.326 50.663C119.814 51.0168 117.861 51.2928 115.893 48.9221C114.343 47.0609 115.037 44.5911 116.099 43.0342C116.464 42.4476 116.95 41.9459 117.525 41.5627C118.1 41.1794 118.75 40.9235 119.432 40.812C120.531 40.8204 121.617 41.0615 122.616 41.5197C122.965 40.8785 123.525 40.3782 124.202 40.1044C125.085 39.7953 126.032 39.715 126.954 39.8708C128.37 40.0477 129.382 40.5785 129.898 41.3569C130.075 41.6585 130.175 41.9992 130.188 42.3486C130.202 42.6979 130.129 43.0453 129.976 43.3597C130.302 43.3971 130.619 43.4855 130.917 43.6215C131.359 43.8202 131.751 44.1133 132.066 44.4801C132.382 44.847 132.613 45.2786 132.743 45.7446C132.893 46.3071 132.901 46.8979 132.768 47.4645C132.635 48.0311 132.364 48.556 131.979 48.9928C131.293 49.702 130.472 50.2656 129.564 50.6498C128.655 51.0341 127.679 51.2311 126.693 51.2291ZM122.807 49.9128C123.487 49.9357 124.162 50.0403 124.817 50.2242C125.325 50.3605 125.844 50.4551 126.367 50.5073C127.31 50.562 128.254 50.4105 129.133 50.0634C130.011 49.7163 130.804 49.182 131.455 48.4975C131.772 48.149 131.995 47.7262 132.103 47.2684C132.212 46.8105 132.204 46.3326 132.078 45.879C131.973 45.52 131.793 45.1876 131.549 44.9043C131.305 44.6211 131.002 44.3936 130.663 44.2372C130.271 44.0506 129.834 43.9794 129.403 44.032C129.192 44.1667 128.946 44.238 128.695 44.2372C128.615 44.2406 128.536 44.2155 128.473 44.1663C128.409 44.117 128.365 44.0469 128.349 43.9683C128.332 43.8894 128.341 43.8072 128.376 43.7343C128.41 43.6615 128.468 43.6019 128.54 43.5649C128.724 43.4737 128.919 43.4071 129.12 43.3668C129.216 43.2832 129.295 43.1824 129.353 43.0695C129.467 42.8612 129.527 42.6276 129.527 42.3902C129.527 42.1527 129.467 41.9191 129.353 41.7108C128.95 41.0809 128.136 40.6917 126.919 40.5431C126.114 40.4023 125.286 40.468 124.513 40.7342C124.174 40.8773 123.872 41.0937 123.627 41.3678C123.382 41.6419 123.201 41.9669 123.098 42.3194C123.063 42.3989 123 42.4628 122.921 42.4991C122.842 42.5353 122.753 42.5414 122.67 42.516C122.587 42.4907 122.516 42.4358 122.471 42.3617C122.426 42.2876 122.41 42.1995 122.425 42.1142C122.213 41.8169 120.005 41.456 119.595 41.4985C119.014 41.6003 118.462 41.8238 117.974 42.1543C117.486 42.4849 117.074 42.915 116.764 43.4163C115.844 44.768 115.221 46.8981 116.516 48.455C118.236 50.5214 119.842 50.295 122.27 49.9553C122.448 49.9301 122.627 49.9159 122.807 49.9128Z" fill="#05947C"/>
<path d="M110.911 51.0522C110.24 50.7625 109.489 50.7174 108.788 50.9249C108.445 51.0326 108.142 51.2417 107.92 51.5246C107.697 51.8075 107.566 52.151 107.542 52.5101C107.543 52.6885 107.582 52.8648 107.655 53.0273C107.729 53.1899 107.836 53.335 107.97 53.4533C108.103 53.5715 108.26 53.6602 108.431 53.7135C108.601 53.7669 108.781 53.7836 108.958 53.7627C107.302 54.8454 110.854 57.6691 112.425 54.6543C112.604 54.3246 112.706 53.9589 112.725 53.5843C112.743 53.2098 112.678 52.8358 112.532 52.4901C112.387 52.1444 112.166 51.8357 111.885 51.5868C111.605 51.338 111.272 51.1553 110.911 51.0522Z" fill="white"/>
<path d="M110.508 56.3598C110.406 56.3668 110.305 56.3668 110.203 56.3598C109.756 56.3123 109.332 56.1388 108.98 55.8593C108.628 55.5799 108.363 55.2062 108.215 54.7817C108.161 54.5455 108.181 54.2986 108.271 54.074C108.117 54.0151 107.974 53.9314 107.847 53.8263C107.653 53.673 107.495 53.4786 107.385 53.2572C107.275 53.0357 107.215 52.7927 107.21 52.5454C107.232 52.1122 107.386 51.6962 107.652 51.3533C107.918 51.0104 108.282 50.7571 108.696 50.6276C109.468 50.399 110.296 50.444 111.039 50.755C111.452 50.901 111.831 51.131 112.151 51.4306C112.472 51.7303 112.726 52.0929 112.9 52.4959C113.039 52.873 113.095 53.2759 113.063 53.6767C113.031 54.0775 112.913 54.4666 112.716 54.8171C112.529 55.2553 112.223 55.6323 111.833 55.9051C111.443 56.1779 110.983 56.3355 110.508 56.3598ZM108.965 53.4088C109.034 53.4076 109.102 53.4272 109.16 53.465C109.218 53.5029 109.264 53.5572 109.291 53.6211C109.322 53.6974 109.326 53.7824 109.301 53.8612C109.277 53.94 109.225 54.0078 109.156 54.0528C109.059 54.1021 108.981 54.1826 108.935 54.2813C108.889 54.3801 108.877 54.4914 108.901 54.5977C109.019 54.8845 109.213 55.1334 109.463 55.3169C109.712 55.5005 110.008 55.6116 110.317 55.638C110.703 55.6684 111.089 55.5732 111.416 55.3666C111.744 55.16 111.996 54.8531 112.135 54.4915C112.286 54.23 112.378 53.9385 112.404 53.6376C112.429 53.3368 112.388 53.034 112.284 52.7506C112.15 52.4305 111.949 52.1426 111.696 51.9059C111.442 51.6692 111.141 51.4892 110.812 51.3777C110.22 51.1312 109.563 51.0889 108.944 51.2574C108.669 51.3398 108.426 51.5037 108.246 51.7274C108.067 51.9511 107.96 52.224 107.939 52.51C107.946 52.6481 107.984 52.7829 108.049 52.9051C108.113 53.0272 108.204 53.1339 108.314 53.2177C108.393 53.2904 108.488 53.3441 108.591 53.3747C108.694 53.4054 108.802 53.4122 108.908 53.3946L108.965 53.4088Z" fill="#05947C"/>
<path d="M150.598 98.566C150.713 96.9591 150.372 95.3523 149.614 93.9307C148.992 92.8975 148.043 92.0837 147.534 90.9938C146.656 89.1114 147.272 86.8964 147.067 84.8299C146.88 83.0975 146.117 81.4777 144.901 80.23C143.818 79.1402 142.424 78.39 141.363 77.2506C139.671 75.3824 139.183 72.7498 138.221 70.4215C136.856 67.1224 134.489 64.3352 131.455 62.453C133.302 66.1683 129.099 70.8886 131.002 74.5756C131.604 75.7433 132.757 76.5925 133.203 77.8309C134.272 80.8174 130.705 84.0586 131.851 87.0308C132.418 88.5099 133.975 89.3662 134.739 90.7745C135.737 92.664 134.951 94.9569 135.036 97.0941C135.149 100.038 136.94 102.678 139.07 104.716C140.393 105.99 141.901 107.087 143.316 108.254C145.029 109.67 145.75 111.085 147.265 108.87C149.353 105.832 150.512 102.252 150.598 98.566Z" fill="#D1D3D4"/>
<path d="M152.53 100.25C151.978 97.9715 151.582 95.4947 152.53 93.3433C153.577 90.9089 156.196 89.1892 156.507 86.5566C156.705 84.8369 155.8 83.089 156.175 81.3835C156.55 79.6779 157.908 78.5173 159.055 77.2647C161.696 74.3619 163.266 70.6443 163.506 66.7274C165.162 68.9141 166.839 71.1504 167.752 73.7405C168.665 76.3306 168.672 79.402 167.137 81.6453C166.695 82.1748 166.332 82.766 166.061 83.4004C165.544 85.0776 166.981 86.6486 167.724 88.2409C168.164 89.1506 168.347 90.1629 168.255 91.1691C168.163 92.1753 167.798 93.1373 167.2 93.9519C165.693 95.8343 162.784 96.5632 162.048 98.8561C161.861 99.7089 161.773 100.58 161.787 101.453C161.629 102.966 161.023 104.397 160.045 105.562C159.068 106.728 157.764 107.574 156.302 107.992C154.519 108.424 154.554 107.716 154.236 106.223C153.769 104.206 152.997 102.26 152.53 100.25Z" fill="#D1D3D4"/>
<path d="M146.868 83.8533C145.602 79.4727 145.099 74.894 143.762 70.5347C142.622 67.1357 141.236 63.8244 139.615 60.6271L145.05 62.92C146.791 63.6277 148.68 64.5194 149.501 66.2249C150.916 69.1901 148.362 72.9833 149.862 75.9131C150.393 76.9392 151.348 77.6752 151.985 78.6164C153.584 80.8669 153.344 83.9524 152.459 86.5637C152.084 87.6889 150.442 93.499 148.97 91.8855C148.376 91.2415 148.326 88.8283 148.079 87.9508C147.704 86.5566 147.236 85.2191 146.868 83.8533Z" fill="#D1D3D4"/>
<path d="M149.805 142.039C148.73 134.884 145.333 109.648 145.297 109.394L146.232 109.273C146.232 109.528 149.657 134.75 150.739 141.904L149.805 142.039Z" fill="#D1D3D4"/>
<path d="M151.115 148.804H150.173C150.237 140.312 153.783 107.815 155.835 105.586L156.542 106.216C155.134 107.688 151.171 137.163 151.115 148.804Z" fill="#D1D3D4"/>
<path d="M152.926 147.184L151.985 147.141C152.799 128.812 148.914 90.3215 148.871 89.9393L149.805 89.8403C149.848 90.2295 153.74 128.784 152.926 147.184Z" fill="#D1D3D4"/>
<path d="M140.499 124.786H160.725L159.309 145.259C159.193 146.966 158.432 148.565 157.182 149.733C155.931 150.901 154.284 151.551 152.572 151.55H148.659C146.947 151.551 145.299 150.902 144.047 149.734C142.795 148.566 142.033 146.967 141.915 145.259L140.499 124.786Z" fill="white"/>
<path d="M152.572 151.904H148.659C146.864 151.893 145.138 151.206 143.827 149.979C142.515 148.753 141.714 147.078 141.582 145.287L140.167 124.814C140.163 124.715 140.199 124.618 140.266 124.545C140.332 124.492 140.415 124.464 140.499 124.467H160.725C160.774 124.467 160.822 124.477 160.867 124.497C160.912 124.516 160.952 124.545 160.986 124.581C161.019 124.617 161.044 124.659 161.06 124.705C161.076 124.751 161.083 124.801 161.079 124.849L159.663 145.323C159.525 147.11 158.718 148.78 157.404 149.999C156.09 151.219 154.365 151.899 152.572 151.904ZM140.882 125.175L142.297 145.273C142.414 146.885 143.135 148.394 144.316 149.498C145.496 150.603 147.05 151.222 148.666 151.232H152.58C154.197 151.223 155.751 150.605 156.932 149.5C158.112 148.396 158.833 146.886 158.949 145.273L160.364 125.175H140.882Z" fill="#D1D3D4"/>
</svg>
