<svg width="12" height="41" viewBox="0 0 12 41" fill="none" xmlns="http://www.w3.org/2000/svg">
<path d="M9.73047 27.3945H2.26562L1.08984 0.1875H10.9062L9.73047 27.3945ZM0.816406 35.8711C0.816406 34.5221 1.29948 33.4193 2.26562 32.5625C3.25 31.6875 4.47135 31.25 5.92969 31.25C7.38802 31.25 8.60026 31.6875 9.56641 32.5625C10.5508 33.4193 11.043 34.5221 11.043 35.8711C11.043 37.2201 10.5508 38.332 9.56641 39.207C8.60026 40.0638 7.38802 40.4922 5.92969 40.4922C4.47135 40.4922 3.25 40.0638 2.26562 39.207C1.29948 38.332 0.816406 37.2201 0.816406 35.8711Z" fill="#EC6D26"/>
</svg>
