<svg width="111" height="34" viewBox="0 0 111 34" fill="none" xmlns="http://www.w3.org/2000/svg">
<path d="M0.872 34H4.76L8.744 25.12H27.032L30.968 34H35.048L19.736 0.159998H16.184L0.872 34ZM10.232 21.712L17.912 4.576L25.544 21.712H10.232ZM39.08 21.424H75.944V17.728H39.08V21.424ZM82.061 34H86.669L96.653 21.136H106.301V34H110.093V0.399998H95.741C91.421 0.399998 88.013 1.744 85.949 3.808C84.269 5.44 83.405 7.936 83.405 10.528C83.405 16.144 87.197 19.552 92.573 20.512L82.061 34ZM95.981 17.92C90.845 17.92 87.197 15.184 87.197 10.816C87.197 6.544 90.461 3.808 95.981 3.808H106.301V17.92H95.981Z" fill="#FED8C2"/>
</svg>
