<svg width="45" height="59" viewBox="0 0 45 59" fill="none" xmlns="http://www.w3.org/2000/svg">
<path d="M1.32353 3.97196e-05C0.611868 1.91382e-05 -0.000529069 0.754067 3.42999e-07 1.37213V57.6279C6.65195e-05 58.3463 0.63053 58.9999 1.32353 59H43.6765C44.3695 58.9999 44.9999 58.3463 45 57.6279V13.721C45 13.3557 44.8577 12.9916 44.6071 12.7348L32.6953 0.385941C32.4491 0.138971 32.1074 -0.00272505 31.7647 3.97196e-05H1.32353ZM2.64706 2.74423H30.4412V13.721C30.4412 14.4394 31.0717 15.093 31.7647 15.0931H42.3529V56.2558H2.64706V2.74423ZM33.0882 4.67373L40.4917 12.3489H33.0882V4.67373ZM7.94118 23.3256C7.21019 23.3256 6.61765 23.9399 6.61765 24.6977C6.61765 25.4555 7.21019 26.0698 7.94118 26.0698H31.7647C32.4957 26.0698 33.0882 25.4555 33.0882 24.6977C33.0882 23.9399 32.4957 23.3256 31.7647 23.3256H7.94118ZM7.94118 34.3023C7.21019 34.3023 6.61765 34.9166 6.61765 35.6744C6.61765 36.4322 7.21019 37.0465 7.94118 37.0465H37.0588C37.7898 37.0465 38.3824 36.4322 38.3824 35.6744C38.3824 34.9166 37.7898 34.3023 37.0588 34.3023H7.94118ZM7.94118 45.2791C7.21019 45.2791 6.61765 45.8934 6.61765 46.6512C6.61765 47.409 7.21019 48.0233 7.94118 48.0233H37.0588C37.7898 48.0233 38.3824 47.409 38.3824 46.6512C38.3824 45.8934 37.7898 45.2791 37.0588 45.2791H7.94118Z" fill="#FED8C2"/>
</svg>
