<svg width="59" height="59" viewBox="0 0 59 59" fill="none" xmlns="http://www.w3.org/2000/svg">
<path d="M25.7968 34.9604L19.7085 28.8721L17.7 30.8806L25.7968 38.9774L43.0574 21.654L41.0489 19.6455L25.7968 34.9604Z" fill="#FED8C2"/>
<path d="M29.5 0C13.2436 0 0 13.2436 0 29.5C0 45.7564 13.2436 59 29.5 59C45.7564 59 59 45.6936 59 29.5C59 13.3064 45.6936 0 29.5 0ZM29.6883 55.6106C15.3149 55.6106 3.51489 43.8734 3.51489 29.5C3.51489 15.1266 15.3149 3.3266 29.6883 3.3266C44.0617 3.3266 55.8617 15.0638 55.8617 29.5C55.8617 43.9362 44.0617 55.6106 29.6883 55.6106Z" fill="#FED8C2"/>
</svg>
