<svg width="91" height="58" viewBox="0 0 91 58" fill="none" xmlns="http://www.w3.org/2000/svg">
<path d="M79.9645 33.9725L91 25.5409L71.6022 0.00107555L60.57 8.43379L60.9596 8.94613H39.2623C37.832 8.94613 34.3558 9.25869 32.416 11.9353L28.9741 10.3489L30.4279 8.43271L19.3956 0L0 25.5409L11.0355 33.9725L13.151 31.1885L15.6615 33.1122L15.3328 33.5654C14.4624 34.7512 14.1038 36.2045 14.3243 37.6567C14.5384 39.0712 15.2814 40.3086 16.4109 41.1421C17.3187 41.8145 18.4021 42.1689 19.5401 42.1689C19.902 42.1689 20.2574 42.1109 20.6086 42.04C20.1718 44.0647 20.8859 46.2322 22.6245 47.519C23.5323 48.1881 24.6115 48.5437 25.7495 48.5437C26.2676 48.5437 26.7708 48.4459 27.2601 48.302C27.2108 48.7531 27.198 49.2096 27.2633 49.6672C27.4667 51.1065 28.2107 52.3674 29.3616 53.2171C30.2705 53.8862 31.3486 54.2396 32.4866 54.2396C33.7852 54.2396 35.0357 53.767 36.0152 52.9356C36.2593 54.2106 36.9381 55.3942 38.0472 56.2138C38.9593 56.8872 40.0417 57.2428 41.1797 57.2428C42.2717 57.2428 43.3069 56.8797 44.1966 56.2804L45.1365 56.9581C46.0808 57.6434 47.1878 58 48.3269 58C48.6213 58 48.92 57.9764 49.2165 57.928C50.6254 57.696 51.8565 56.9356 52.6766 55.7863C53.41 54.768 53.699 53.5715 53.6305 52.3943L53.7568 52.4877C54.73 53.1848 55.853 53.521 56.96 53.521C58.6311 53.521 60.2681 52.753 61.3012 51.3062C62.1223 50.1462 62.3974 48.7639 62.2079 47.4438C62.8385 47.6844 63.4926 47.8187 64.1478 47.8187C65.819 47.8187 67.458 47.0518 68.4933 45.6039C69.3497 44.3998 69.6292 42.9487 69.3904 41.5825C69.8882 41.7243 70.3968 41.8048 70.9042 41.8048C72.5754 41.8048 74.2102 41.0358 75.2443 39.5911C76.0772 38.4257 76.3984 36.9961 76.149 35.5643C75.952 34.4494 75.4231 33.4505 74.6405 32.661L77.3823 30.5719L79.9645 33.9725ZM71.2404 2.68631L88.3214 25.1778L80.3253 31.2894L63.2475 8.79683L71.2404 2.68631ZM10.6736 31.2905L2.67751 25.1789L19.7585 2.68738L27.7515 8.7979L10.6736 31.2905ZM17.5414 39.6008C16.822 39.0691 16.3488 38.2764 16.2107 37.3688C16.0672 36.4215 16.3017 35.4752 16.8744 34.6954L18.6216 32.2744C19.295 31.3571 20.3677 30.8115 21.4918 30.8115C22.2198 30.8115 22.9092 31.0381 23.4884 31.4624C24.2089 31.993 24.6821 32.7878 24.8202 33.6975C24.9615 34.6427 24.7282 35.589 24.1565 36.3688L24.0066 36.5761L22.2573 38.9585C21.1053 40.315 18.9588 40.6469 17.5414 39.6008ZM23.755 45.9755C22.2294 44.8477 21.9275 42.6469 23.0784 41.0723L23.8117 40.0734C23.8546 40.0186 23.9124 39.9778 23.9531 39.9208L25.5964 37.6405L28.0651 34.2743C28.7364 33.3614 29.807 32.8157 30.93 32.8157C31.6569 32.8157 32.3464 33.0402 32.9266 33.4688C34.4501 34.5933 34.7562 36.7856 33.6139 38.3613L32.3453 40.0895L28.6197 45.1635C27.5084 46.6726 25.2228 47.0593 23.755 45.9755ZM30.4932 51.6704C29.7599 51.1322 29.2845 50.3234 29.1518 49.3976C29.0212 48.4642 29.2567 47.533 29.8134 46.7736L34.1653 40.8371L35.1449 39.5041C35.1459 39.502 35.1459 39.4998 35.1502 39.4966L37.4584 36.3473C38.1296 35.4333 39.2002 34.8898 40.3264 34.8898C41.0544 34.8898 41.746 35.1143 42.322 35.5407C43.0553 36.082 43.5296 36.8876 43.6602 37.8113C43.7908 38.7447 43.5553 39.677 42.9986 40.4386L40.3211 44.0873C40.2783 44.142 40.2237 44.1828 40.183 44.2398L36.968 48.6403C36.9445 48.6715 36.9306 48.7091 36.9081 48.7413L35.3525 50.8637C34.2477 52.3707 31.9599 52.7584 30.4932 51.6704ZM39.1788 54.6714C37.6832 53.5683 37.3749 51.433 38.4551 49.8627L41.8445 45.2398C42.5201 44.4127 43.5264 43.9122 44.5895 43.9122C45.3143 43.9122 46.0026 44.1367 46.5786 44.5609C48.1074 45.693 48.4136 47.8906 47.2574 49.4653L44.0424 53.8647C42.9408 55.3728 40.6594 55.7648 39.1788 54.6714ZM51.1275 54.666C50.6018 55.4018 49.8117 55.8883 48.9082 56.0366C47.9596 56.1826 47.0293 55.9667 46.2521 55.4039L45.6215 54.9474L48.7968 50.5995C49.0773 50.2182 49.2818 49.8068 49.451 49.3858L50.923 50.4437C51.9144 51.6532 52.0503 53.3814 51.1275 54.666ZM73.6909 38.4719C72.5904 40.0154 70.4011 40.3526 68.8134 39.2098L62.5805 34.7502L60.3441 33.1433L60.3409 33.1487L57.6666 31.2347L56.5596 32.7953L61.6577 36.4429L66.0674 39.6158C67.6497 40.7533 68.0383 42.9423 66.9377 44.4868C65.8318 46.0324 63.6446 46.3611 62.0591 45.2258L56.9546 41.5825L52.5952 38.4408L51.4808 39.9971L58.872 45.3235C60.4522 46.4578 60.8419 48.6425 59.7445 50.1913C58.6429 51.7359 56.4547 52.0656 54.8659 50.9271L52.242 49.0399C51.9818 48.7488 51.6917 48.4792 51.3641 48.2386L49.8385 47.1441C49.7807 45.5588 49.0645 44.0196 47.7091 43.0142C46.6803 42.2591 45.4031 41.982 44.1516 42.0927L44.5338 41.5707C45.3903 40.4053 45.7521 38.9746 45.5498 37.545C45.3474 36.1046 44.6023 34.8447 43.4515 33.9961C41.2161 32.3474 37.8063 32.8726 36.0581 35.0584C35.7883 33.8404 35.1245 32.7115 34.0561 31.9242C31.8015 30.2615 28.3456 30.8039 26.6134 33.0434C26.334 31.7835 25.6489 30.6783 24.6168 29.9167C22.3215 28.2304 18.7918 28.8083 17.0778 31.1434L16.7802 31.559L14.305 29.6654L27.7868 11.9106L31.2672 13.5153L29.3017 16.2661C28.4313 17.4508 28.0726 18.9019 28.2942 20.3562C28.5105 21.7708 29.2513 23.0092 30.3776 23.8363C31.506 24.6719 32.9041 25.0167 34.3162 24.803C35.7658 24.5839 37.0419 23.8127 37.9166 22.6236L40.8328 18.5818L45.6986 18.5646C46.3559 22.4024 49.997 25.8094 53.6755 25.8094H61.9274L72.8248 33.5987C73.5914 34.1519 74.102 34.965 74.2648 35.8909C74.4253 36.8124 74.2219 37.7297 73.6909 38.4719ZM73.0871 31.4355L62.5398 23.8943H53.6765C50.7003 23.8943 47.646 20.759 47.51 17.5647L47.4683 16.6452L39.8575 16.671L36.376 21.4937C35.8097 22.2649 34.9768 22.7665 34.0336 22.9072C33.1247 23.0479 32.2329 22.8288 31.5103 22.2917C30.793 21.7644 30.323 20.9728 30.1827 20.0684C30.0393 19.121 30.2727 18.1747 30.8465 17.3928L33.8473 13.1909C35.3012 11.0299 38.3609 10.8623 39.2634 10.8623H62.4156L76.2239 29.0446L73.0871 31.4355Z" fill="#FED8C2"/>
</svg>
