<svg width="68" height="54" viewBox="0 0 68 54" fill="none" xmlns="http://www.w3.org/2000/svg">
<path d="M17.7744 0C13.0748 0 8.80292 0.9665 5.58025 2.65179C2.41622 4.30641 0.0859895 6.79882 0.00231243 9.85982C-0.000770811 9.91603 -0.000770811 9.97236 0.00231243 10.0286V12.9937C0.000739926 13.0339 0.000739926 13.0741 0.00231243 13.1143V16.9714V19.9366C0.000739926 19.9768 0.000739926 20.017 0.00231243 20.0571V23.9143V26.8794C0.000738919 26.9196 0.000738919 26.9598 0.00231243 27V30.8571V33.8223C0.000738919 33.8624 0.000738919 33.9027 0.00231243 33.9429V37.8V43.9714C0.00231297 47.1106 2.35758 49.6388 5.58025 51.3241C8.80292 53.0094 13.0748 54 17.7744 54C22.4741 54 26.746 53.0094 29.9686 51.3241C32.7371 49.8764 34.8809 47.8181 35.4258 45.2732C38.6132 50.0594 44.0545 53.2286 50.2279 53.2286C60.0248 53.2286 68 45.2665 68 35.4857C68 25.7048 60.0248 17.7429 50.2279 17.7429C44.1361 17.7429 38.7506 20.825 35.5466 25.5054V23.9143V20.8286C35.5488 20.7804 35.5488 20.7321 35.5466 20.6839V16.9714V13.8857C35.5488 13.8375 35.5488 13.7893 35.5466 13.7411V10.0286C35.5466 9.97959 35.5477 9.93261 35.5466 9.88393C35.5408 9.83536 35.5327 9.78709 35.5224 9.73929C35.381 6.73423 33.0904 4.28431 29.9686 2.65179C26.746 0.9665 22.4741 0 17.7744 0ZM17.7744 3.08571C22.0366 3.08571 25.8696 3.98995 28.5198 5.37589C31.1701 6.76183 32.4558 8.48123 32.4558 10.0286C32.4558 11.5759 31.1701 13.2712 28.5198 14.6571C25.8696 16.0431 22.0366 16.9714 17.7744 16.9714C13.5123 16.9714 9.67931 16.0431 7.02906 14.6571C4.37881 13.2712 3.09312 11.5759 3.09312 10.0286C3.09312 8.48123 4.37881 6.76183 7.02906 5.37589C9.67931 3.98995 13.5123 3.08571 17.7744 3.08571ZM3.09312 15.7661C3.83404 16.3749 4.66554 16.9029 5.58025 17.3813C8.80292 19.0666 13.0748 20.0571 17.7744 20.0571C22.4741 20.0571 26.746 19.0666 29.9686 17.3813C30.8833 16.9029 31.7148 16.3749 32.4558 15.7661V16.9714C32.4558 18.5188 31.1701 20.2141 28.5198 21.6C25.8696 22.9859 22.0366 23.9143 17.7744 23.9143C13.5123 23.9143 9.67931 22.9859 7.02906 21.6C4.37881 20.2141 3.09312 18.5188 3.09312 16.9714V15.7661ZM50.2279 20.8286C58.3544 20.8286 64.9092 27.3725 64.9092 35.4857C64.9092 43.5989 58.3544 50.1429 50.2279 50.1429C42.1013 50.1429 35.5466 43.5989 35.5466 35.4857C35.5466 27.3725 42.1013 20.8286 50.2279 20.8286ZM3.09312 22.7089C3.83404 23.3178 4.66554 23.8458 5.58025 24.3241C8.80292 26.0094 13.0748 27 17.7744 27C22.4741 27 26.746 26.0094 29.9686 24.3241C30.8833 23.8458 31.7148 23.3178 32.4558 22.7089V23.9143C32.4558 25.4616 31.1701 27.1569 28.5198 28.5429C25.8696 29.9288 22.0366 30.8571 17.7744 30.8571C13.5123 30.8571 9.67931 29.9288 7.02906 28.5429C4.37881 27.1569 3.09312 25.4616 3.09312 23.9143V22.7089ZM3.09312 29.6518C3.83404 30.2606 4.66554 30.7886 5.58025 31.2669C8.80292 32.9523 13.0748 33.9429 17.7744 33.9429C22.4741 33.9429 26.746 32.9523 29.9686 31.2669C30.8833 30.7886 31.7148 30.2606 32.4558 29.6518V30.8571C32.4558 32.4045 31.1701 34.0998 28.5198 35.4857C25.8696 36.8717 22.0366 37.8 17.7744 37.8C13.5123 37.8 9.67931 36.8717 7.02906 35.4857C4.37881 34.0998 3.09312 32.4045 3.09312 30.8571V29.6518ZM3.09312 36.5946C3.83404 37.2035 4.66554 37.7315 5.58025 38.2098C8.80292 39.8951 13.0748 40.8857 17.7744 40.8857C22.4741 40.8857 26.746 39.8951 29.9686 38.2098C30.8833 37.7315 31.7148 37.2035 32.4558 36.5946V37.8C32.4558 39.3473 31.1701 41.0426 28.5198 42.4286C25.8696 43.8145 22.0366 44.7429 17.7744 44.7429C13.5123 44.7429 9.67931 43.8145 7.02906 42.4286C4.37881 41.0426 3.09312 39.3473 3.09312 37.8V36.5946ZM3.09312 43.5375C3.83404 44.1463 4.66554 44.6744 5.58025 45.1527C8.80292 46.838 13.0748 47.8286 17.7744 47.8286C22.4741 47.8286 26.746 46.838 29.9686 45.1527C30.8833 44.6744 31.7148 44.1463 32.4558 43.5375V43.9714C32.4558 45.5188 31.1701 47.2141 28.5198 48.6C25.8696 49.9859 22.0366 50.9143 17.7744 50.9143C13.5123 50.9143 9.67931 49.9859 7.02906 48.6C4.37881 47.2141 3.09312 45.5188 3.09312 43.9714V43.5375Z" fill="#FED8C2"/>
</svg>
