<svg width="77" height="63" viewBox="0 0 77 63" fill="none" xmlns="http://www.w3.org/2000/svg">
<path fill-rule="evenodd" clip-rule="evenodd" d="M71.3548 31.9507C70.4508 31.9612 69.4984 32.1702 68.55 32.6239C68.5491 32.6243 68.5483 32.6246 68.5475 32.6247L52.1643 40.493C51.3847 38.7032 49.5144 37.4681 47.4083 37.5282C47.4071 37.5282 47.4059 37.5283 47.4047 37.5284L37.9908 37.8155C35.684 37.8155 33.9454 37.2621 31.7455 36.6267C29.5399 35.9896 26.9148 35.3 23.2829 35.3C20.293 35.3 16.2697 36.2023 12.993 37.3065V35.256C12.993 35.0274 12.9474 34.7988 12.8598 34.5876C12.7721 34.3765 12.6424 34.1828 12.4805 34.0211C12.3185 33.8594 12.1244 33.7299 11.9129 33.6423C11.7013 33.5548 11.4723 33.5093 11.2433 33.5093H1.74994C1.52087 33.5093 1.29198 33.5547 1.08032 33.6422C0.868755 33.7298 0.6746 33.8593 0.512644 34.021C0.350687 34.1826 0.220929 34.3764 0.133258 34.5876C0.0455857 34.799 0 35.0276 0 35.2563V61.2531C0 61.4818 0.0455857 61.7104 0.133258 61.9217C0.220929 62.1329 0.350687 62.3267 0.512644 62.4884C0.6746 62.6501 0.868755 62.7795 1.08032 62.867C1.29198 62.9545 1.52087 63 1.74994 63H11.2433C11.4723 63 11.7013 62.9545 11.9129 62.8669C12.1244 62.7794 12.3185 62.65 12.4805 62.4883C12.6424 62.3266 12.7721 62.1328 12.8598 61.9216C12.9474 61.7104 12.993 61.4817 12.993 61.2531V59.0169C24.5058 56.9819 31.3657 60.4489 41.736 60.4405C41.7368 60.4405 41.7369 60.4405 41.7374 60.4405C43.8855 60.44 46.1382 59.3949 48.9542 57.9369C51.7708 56.4786 54.9915 54.521 58.2497 52.4205C64.766 48.2194 71.4411 43.4336 74.9148 41.0886C74.9156 41.0883 74.9159 41.088 74.9164 41.0878C76.108 40.2817 76.8224 39.0158 76.9677 37.7609C77.1129 36.5061 76.761 35.2752 76.0607 34.2593C75.0978 32.8625 73.3434 31.9272 71.3548 31.9507ZM71.5899 35.3529C72.3787 35.3433 72.8483 35.7619 73.1779 36.2401C73.4292 36.6045 73.5293 37.0323 73.4914 37.3597C73.4535 37.6866 73.3499 37.9265 72.9546 38.1944C72.9537 38.1948 72.9537 38.1952 72.9533 38.1953C69.3744 40.6113 62.7639 45.3509 56.3513 49.4851C53.1445 51.5525 49.9894 53.4652 47.3432 54.8353C44.697 56.2054 42.4005 56.9467 41.736 56.9467C41.7351 56.9467 41.7349 56.9467 41.7344 56.9467C32.3498 56.9554 25.0016 53.4982 12.993 55.4717V53.9675C12.9959 53.7371 12.9525 53.5061 12.8661 53.2923C12.7798 53.0785 12.6505 52.8822 12.4882 52.7182C12.326 52.5541 12.1309 52.4226 11.9179 52.3338C11.7049 52.2449 11.4741 52.1987 11.2432 52.1987C11.0123 52.1987 10.7815 52.2449 10.5685 52.3338C10.3555 52.4226 10.1604 52.5541 9.99817 52.7182C9.83587 52.8822 9.70663 53.0785 9.62027 53.2923C9.53391 53.5061 9.49052 53.7371 9.4934 53.9675V59.5061H3.49961V37.0029H9.4934V42.5415C9.49052 42.772 9.53391 43.003 9.62027 43.2167C9.70663 43.4305 9.83587 43.6269 9.99817 43.7909C10.1604 43.955 10.3555 44.0864 10.5685 44.1753C10.7815 44.2641 11.0123 44.3103 11.2432 44.3103C11.4741 44.3103 11.7049 44.264 11.9179 44.1753C12.1309 44.0864 12.326 43.955 12.4882 43.7909C12.6505 43.6269 12.7798 43.4305 12.8661 43.2167C12.9525 43.003 12.9959 42.772 12.993 42.5415V41.0198C16.0845 39.8872 20.8038 38.7936 23.2829 38.7936C26.4846 38.7936 28.6234 39.362 30.7729 39.9828C32.9224 40.6037 35.1272 41.3095 38.0086 41.3095C38.0264 41.3095 38.0442 41.3092 38.062 41.3087L47.508 41.0204C48.4084 40.9951 49.0507 41.6925 49.0507 42.3405C49.0507 42.9886 48.4362 43.6165 47.3834 43.6615L29.4203 44.4302C29.1892 44.439 28.9596 44.4896 28.749 44.5849C28.5385 44.68 28.347 44.8173 28.1895 44.9862C28.032 45.1551 27.9086 45.3555 27.8286 45.572C27.7486 45.7885 27.7122 46.0209 27.722 46.2515C27.7319 46.482 27.7882 46.7105 27.8865 46.9194C27.9847 47.1282 28.1249 47.3173 28.2963 47.4722C28.4677 47.627 28.6702 47.7474 28.8881 47.8242C29.1061 47.901 29.3394 47.9341 29.5702 47.921L47.5332 47.1522C49.4188 47.0719 51.1871 46.0271 52.0316 44.4338L70.0623 35.7745C70.0632 35.7741 70.0639 35.7738 70.0647 35.7736C70.6776 35.4807 71.1773 35.3582 71.5899 35.3529Z" fill="#FED8C2"/>
<path fill-rule="evenodd" clip-rule="evenodd" d="M33.9663 0.366823C30.2469 0.366823 27.2028 3.41518 27.2028 7.11908C27.2028 10.8288 30.2506 13.8713 33.9663 13.8713C37.6762 13.8713 40.7295 10.8324 40.7295 7.11908C40.7295 3.41149 37.6799 0.366823 33.9663 0.366823ZM33.9663 3.86049C35.7825 3.86049 37.2299 5.30584 37.2299 7.11908C37.2299 8.94405 35.7862 10.3777 33.9663 10.3777C32.1347 10.3777 30.7024 8.94772 30.7024 7.11908C30.7024 5.30215 32.1384 3.86049 33.9663 3.86049Z" fill="#FED8C2"/>
<path fill-rule="evenodd" clip-rule="evenodd" d="M53.6449 0.000739729C53.4205 0.00772813 53.1974 0.0575956 52.9919 0.147842C52.7865 0.238088 52.5986 0.368282 52.4421 0.528954L25.2131 27.7051C25.0472 27.8658 24.9136 28.0598 24.8227 28.2721C24.7318 28.4843 24.6836 28.7147 24.6819 28.9456C24.6801 29.1764 24.7248 29.4075 24.8124 29.6211C24.9001 29.8347 25.0306 30.0308 25.1941 30.194C25.3575 30.3573 25.5538 30.4877 25.7677 30.5753C25.9817 30.6629 26.2131 30.7076 26.4443 30.7059C26.6755 30.7059 26.9063 30.6561 27.1189 30.5656C27.3316 30.4749 27.526 30.3417 27.6871 30.1761L54.9161 3C55.1671 2.75648 55.3423 2.43613 55.4116 2.09366C55.4811 1.75118 55.4445 1.38803 55.3081 1.06623C55.1717 0.744442 54.9361 0.465361 54.6416 0.276657C54.347 0.0879523 53.9947 -0.00955943 53.6449 0.000739729Z" fill="#FED8C2"/>
<path fill-rule="evenodd" clip-rule="evenodd" d="M46.3821 15.8374C42.6685 15.8374 39.6186 18.8821 39.6186 22.5897C39.6186 26.2973 42.6685 29.3419 46.3821 29.3419C50.0957 29.3419 53.1453 26.2973 53.1453 22.5897C53.1453 18.8821 50.0957 15.8374 46.3821 15.8374ZM46.3821 19.331C48.1983 19.331 49.6457 20.7764 49.6457 22.5897C49.6457 24.4029 48.1983 25.8483 46.3821 25.8483C44.5659 25.8483 43.1182 24.4029 43.1182 22.5897C43.1182 20.7764 44.5659 19.331 46.3821 19.331Z" fill="#FED8C2"/>
</svg>
