<svg width="22" height="26" viewBox="0 0 22 26" fill="none" xmlns="http://www.w3.org/2000/svg">
<path d="M22 6.5V19.5L11 26L9.17773 11.1517L22 6.5Z" fill="#FFB14E"/>
<path d="M11 11.1517V26L0 19.5V6.5L11 11.1517Z" fill="#FF9356"/>
<path d="M16.5003 3.25L13.3562 8.39175L5.49967 9.75L0 6.5L11 0L16.5003 3.25Z" fill="#FFB14E"/>
<path d="M22 6.5L11 13L5.49963 9.75L16.5003 3.25L22 6.5Z" fill="#FFD86C"/>
<path d="M15.3895 14.9625C15.1804 14.9625 14.9769 14.8529 14.8641 14.6564C14.6952 14.3624 14.7932 13.9852 15.0831 13.8139L17.3054 12.5008C17.5952 12.3296 17.9672 12.429 18.136 12.7231C18.3048 13.0171 18.2068 13.3942 17.9169 13.5655L15.6946 14.8786C15.5986 14.9355 15.4933 14.9625 15.3895 14.9625Z" fill="white"/>
</svg>
