<svg width="23" height="20" viewBox="0 0 23 20" fill="none" xmlns="http://www.w3.org/2000/svg">
<path fill-rule="evenodd" clip-rule="evenodd" d="M1 1H4.91845C5.53836 1 6.03331 1.45597 6.19409 1.96641L6.1969 1.97542L6.92475 4.76909H20.673C21.526 4.76909 22.1848 5.52967 21.9531 6.32631L20.583 11.9279C20.4608 12.4921 19.8907 12.9229 19.2996 12.9229H9.24086C8.61759 12.9229 8.08011 12.5371 7.95724 11.9279L5.4177 2.17937C5.33393 1.92509 5.10456 1.76922 4.91845 1.76922H1V1ZM7.12514 5.53831L8.74423 11.7533L8.74731 11.7653L8.74959 11.7773C8.79337 12.0064 8.97983 12.1537 9.24086 12.1537H19.2996C19.514 12.1537 19.7497 11.9726 19.7922 11.7706L19.7934 11.7645L19.7948 11.7589L21.1683 6.14339L21.1706 6.134L21.1733 6.12499C21.2564 5.84818 21.0284 5.53831 20.673 5.53831H7.12514Z" fill="white"/>
<path fill-rule="evenodd" clip-rule="evenodd" d="M7.50382 17C7.50382 15.8953 8.4443 14.9999 9.60444 14.9999C10.7646 14.9999 11.705 15.8953 11.705 17C11.705 18.1046 10.7646 19 9.60444 19C8.4443 19 7.50382 18.1046 7.50382 17ZM9.60444 15.7691C8.8905 15.7691 8.31175 16.3201 8.31175 17C8.31175 17.6798 8.8905 18.2308 9.60444 18.2308C10.3184 18.2308 10.8971 17.6798 10.8971 17C10.8971 16.3201 10.3184 15.7691 9.60444 15.7691Z" fill="white"/>
<path fill-rule="evenodd" clip-rule="evenodd" d="M19.3804 14.9999C18.2202 14.9999 17.2797 15.8953 17.2797 17C17.2797 18.1046 18.2202 19 19.3804 19C20.5405 19 21.481 18.1046 21.481 17C21.481 15.8953 20.5405 14.9999 19.3804 14.9999ZM18.0877 17C18.0877 16.3201 18.6664 15.7691 19.3804 15.7691C20.0943 15.7691 20.673 16.3201 20.673 17C20.673 17.6798 20.0943 18.2308 19.3804 18.2308C18.6664 18.2308 18.0877 17.6798 18.0877 17Z" fill="white"/>
<path fill-rule="evenodd" clip-rule="evenodd" d="M1 1H4.91845C5.53836 1 6.03331 1.45597 6.19409 1.96641L6.1969 1.97542L6.92475 4.76909H20.673C21.526 4.76909 22.1848 5.52967 21.9531 6.32631L20.583 11.9279C20.4608 12.4921 19.8907 12.9229 19.2996 12.9229H9.24086C8.61759 12.9229 8.08011 12.5371 7.95724 11.9279L5.4177 2.17937C5.33393 1.92509 5.10456 1.76922 4.91845 1.76922H1V1ZM7.12514 5.53831L8.74423 11.7533L8.74731 11.7653L8.74959 11.7773C8.79337 12.0064 8.97983 12.1537 9.24086 12.1537H19.2996C19.514 12.1537 19.7497 11.9726 19.7922 11.7706L19.7934 11.7645L19.7948 11.7589L21.1683 6.14339L21.1706 6.134L21.1733 6.12499C21.2564 5.84818 21.0284 5.53831 20.673 5.53831H7.12514Z" stroke="white" stroke-miterlimit="10"/>
<path fill-rule="evenodd" clip-rule="evenodd" d="M7.50382 17C7.50382 15.8953 8.4443 14.9999 9.60444 14.9999C10.7646 14.9999 11.705 15.8953 11.705 17C11.705 18.1046 10.7646 19 9.60444 19C8.4443 19 7.50382 18.1046 7.50382 17ZM9.60444 15.7691C8.8905 15.7691 8.31175 16.3201 8.31175 17C8.31175 17.6798 8.8905 18.2308 9.60444 18.2308C10.3184 18.2308 10.8971 17.6798 10.8971 17C10.8971 16.3201 10.3184 15.7691 9.60444 15.7691Z" stroke="white" stroke-miterlimit="10"/>
<path fill-rule="evenodd" clip-rule="evenodd" d="M19.3804 14.9999C18.2202 14.9999 17.2797 15.8953 17.2797 17C17.2797 18.1046 18.2202 19 19.3804 19C20.5405 19 21.481 18.1046 21.481 17C21.481 15.8953 20.5405 14.9999 19.3804 14.9999ZM18.0877 17C18.0877 16.3201 18.6664 15.7691 19.3804 15.7691C20.0943 15.7691 20.673 16.3201 20.673 17C20.673 17.6798 20.0943 18.2308 19.3804 18.2308C18.6664 18.2308 18.0877 17.6798 18.0877 17Z" stroke="white" stroke-miterlimit="10"/>
</svg>
