<svg width="22" height="22" viewBox="0 0 22 22" fill="none" xmlns="http://www.w3.org/2000/svg">
<path d="M21.7537 11.3617L10.632 0.230401C10.4614 0.0597336 10.2151 -0.0161186 9.98777 0.00284446L1.65121 0.950998C1.29122 0.988924 0.988072 1.27337 0.950179 1.65263L0.00284201 9.99638C-0.0161047 10.2429 0.0596822 10.4705 0.230203 10.6411L11.3519 21.7724C11.5035 21.9241 11.7119 22 11.9203 22C12.1288 22 12.3182 21.9241 12.4887 21.7724L21.7726 12.4805C21.9242 12.3288 22 12.1392 22 11.9116C21.9811 11.722 21.9053 11.5134 21.7537 11.3617ZM1.63226 9.78779L2.46592 2.46804L9.77936 1.63367L17.3391 9.19993L9.19201 17.354L1.63226 9.78779ZM11.9203 20.0847L10.3288 18.4918L18.4759 10.3377L20.0674 11.9306L11.9203 20.0847Z" fill="#EC6D26"/>
<path d="M9.13515 4.87662C8.56675 4.30772 7.80888 3.98535 6.99417 3.98535C6.17946 3.98535 5.44054 4.30772 4.85319 4.87662C3.67849 6.05233 3.67849 7.9676 4.85319 9.14331C5.42159 9.7122 6.17946 10.0346 6.99417 10.0346C7.80888 10.0346 8.5478 9.7122 9.13515 9.14331C9.70356 8.57441 10.0257 7.81589 10.0257 7.00048C10.0257 6.20403 9.70356 5.44551 9.13515 4.87662ZM8.0173 8.02448C7.48679 8.55545 6.53945 8.55545 5.99 8.02448C5.44054 7.47456 5.44054 6.56433 5.99 5.99544C6.25525 5.72995 6.61524 5.57825 6.99417 5.57825C7.37311 5.57825 7.7331 5.72995 7.99835 5.99544C8.2636 6.26092 8.41518 6.62122 8.41518 7.00048C8.43412 7.3987 8.28255 7.74004 8.0173 8.02448Z" fill="#EC6D26"/>
</svg>
