<svg width="16" height="20" viewBox="0 0 16 20" fill="none" xmlns="http://www.w3.org/2000/svg">
<path d="M11.0699 0.623875C10.6046 0.141538 10.2748 0 9.61707 0H1.27659C0.360106 0 0 0.373308 0 1.32338V18.5805C0 19.5305 0.360106 19.9038 1.27659 19.9038H14.7234C15.6401 19.9038 16 19.5305 16 18.5805V6.6167C16 5.93466 15.8633 5.59298 15.3982 5.11064L11.0699 0.623875ZM14.8834 18.3936C14.8834 18.647 14.7874 18.7463 14.5429 18.7463H1.45707C1.21259 18.7463 1.11659 18.6468 1.11659 18.3936V14.1125H14.8834V18.3936ZM2.71531 13.0233V9.23715C3.02421 9.18563 3.42699 9.1571 3.85173 9.1571C4.55808 9.1571 5.01611 9.28868 5.37472 9.56888C5.76107 9.86634 6.00363 10.3409 6.00363 11.0216C6.00363 11.7594 5.74421 12.2685 5.3856 12.583C4.99371 12.9205 4.39808 13.0806 3.66997 13.0806C3.23371 13.0804 2.9248 13.0521 2.71531 13.0233ZM6.38336 11.1417C6.38336 9.98642 7.09525 9.1226 8.19285 9.1226C9.33504 9.1226 9.95819 10.0092 9.95819 11.073C9.95819 12.3371 9.21899 13.1034 8.13205 13.1034C7.02869 13.1034 6.38336 12.2398 6.38336 11.1417ZM12.413 12.3769C12.6667 12.3769 12.9483 12.3198 13.114 12.251L13.2407 12.9318C13.0861 13.0118 12.7386 13.0976 12.2861 13.0976C11.0005 13.0976 10.3383 12.2683 10.3383 11.17C10.3383 9.85462 11.2433 9.12238 12.3693 9.12238C12.8047 9.12238 13.136 9.21393 13.2849 9.29399L13.114 9.9862C12.9425 9.91189 12.7055 9.84312 12.4077 9.84312C11.7397 9.84312 11.2211 10.2607 11.2211 11.1185C11.2213 11.891 11.6629 12.3769 12.413 12.3769ZM14.8834 8.11347H1.11659V1.51026C1.11659 1.25682 1.21259 1.15752 1.45707 1.15752H9.95755C10.0796 1.15752 10.1278 1.20728 10.1278 1.33378V4.7641C10.1278 5.71417 10.4879 6.08748 11.4042 6.08748H14.7132C14.8354 6.08748 14.8834 6.13746 14.8834 6.26396V8.11347Z" fill="#3A6597"/>
<path d="M9.06988 11.1023C9.06988 10.4103 8.74988 9.81543 8.17047 9.81543C7.60215 9.81543 7.27148 10.3761 7.27148 11.1251C7.27148 11.8801 7.61346 12.412 8.17623 12.412C8.74412 12.412 9.06988 11.8514 9.06988 11.1023Z" fill="#3A6597"/>
<path d="M3.94113 9.8252C3.75361 9.8252 3.63223 9.84245 3.56055 9.85947V12.3817C3.63223 12.399 3.74828 12.399 3.85303 12.399C4.6142 12.4047 5.11084 11.9702 5.11084 11.0491C5.1166 10.2485 4.66412 9.8252 3.94113 9.8252Z" fill="#3A6597"/>
</svg>
