<svg width="15" height="20" viewBox="0 0 15 20" fill="none" xmlns="http://www.w3.org/2000/svg">
<path d="M6.62662 11.9012V0.815925C6.62662 0.365254 6.99925 0 7.45885 0C7.91845 0 8.29104 0.365254 8.29104 0.815925V12.0628L11.1147 9.29434C11.4397 8.9757 11.9667 8.9757 12.2916 9.29434C12.6166 9.61298 12.6166 10.1296 12.2916 10.4483L8.12969 14.5288C7.80469 14.8475 7.27777 14.8475 6.95277 14.5288L2.70929 10.3683C2.38425 10.0496 2.38425 9.53303 2.70929 9.21439C3.03426 8.89575 3.56121 8.89575 3.88621 9.21439L6.62662 11.9012ZM0.828779 17.9474H14.0889C14.5467 17.9474 14.9177 18.3142 14.9177 18.7667C14.9177 19.2192 14.5467 19.5861 14.0889 19.5861H0.828779C0.371032 19.5861 0 19.2192 0 18.7667C0 18.3142 0.371032 17.9474 0.828779 17.9474Z" fill="#EC6D26"/>
</svg>
