<svg width="20" height="19" viewBox="0 0 20 19" fill="none" xmlns="http://www.w3.org/2000/svg">
<path d="M10 0C15.4217 0 20 3.60168 20 8.27401C20 10.7172 18.6538 12.723 16.7045 14.1719L18.1818 17.7503C18.2529 17.9222 18.269 18.1118 18.2281 18.2932C18.1872 18.4746 18.0911 18.6391 17.953 18.7643C17.8149 18.8894 17.6414 18.9692 17.4562 18.9927C17.2709 19.0163 17.0829 18.9824 16.9176 18.8959L11.946 16.2368C11.399 16.36 10.7737 16.548 10 16.548C4.57827 16.548 0 12.9464 0 8.27401C0 3.60168 4.57827 0 10 0ZM10 1.81038C5.378 1.81038 1.81818 4.80257 1.81818 8.27401C1.81818 11.7455 5.378 14.7376 10 14.7376C10.516 14.7376 11.1905 14.5377 11.9318 14.3982C12.1362 14.3625 12.3467 14.3974 12.5284 14.4972L15.5398 16.1096L14.7585 14.2285C14.6776 14.0338 14.6673 13.8171 14.7295 13.6158C14.7918 13.4144 14.9226 13.2409 15.0995 13.1253C17.0492 11.8888 18.1818 10.2859 18.1818 8.27401C18.1818 4.80257 14.622 1.81038 10 1.81038Z" fill="white"/>
</svg>
