<svg width="22" height="22" viewBox="0 0 22 22" fill="none" xmlns="http://www.w3.org/2000/svg">
<path d="M2.12411 21.2028C2.12411 21.6393 2.46549 21.981 2.90169 21.981C3.33789 21.981 3.67926 21.6393 3.67926 21.2028V5.78947C4.93097 5.4478 5.86027 4.30889 5.86027 2.94219C5.86027 1.32873 4.55167 0 2.92065 0C1.28964 0 0 1.32873 0 2.94219C0 4.28991 0.910333 5.42882 2.14308 5.77049V21.2028H2.12411ZM1.51722 2.94219C1.51722 2.18292 2.14308 1.55651 2.90169 1.55651C3.6603 1.55651 4.28615 2.18292 4.28615 2.94219C4.28615 3.70147 3.6603 4.32787 2.90169 4.32787C2.14308 4.32787 1.51722 3.70147 1.51722 2.94219Z" fill="#818183"/>
<path d="M10.9808 0C10.5446 0 10.2033 0.341674 10.2033 0.778257V8.78861C8.97051 9.13029 8.06018 10.2692 8.06018 11.6169C8.06018 12.9646 8.97051 14.1035 10.2033 14.4452V21.2217C10.2033 21.6583 10.5446 22 10.9808 22C11.417 22 11.7584 21.6583 11.7584 21.2217V14.4452C13.0101 14.1035 13.9394 12.9646 13.9394 11.5979C13.9394 10.2312 13.0101 9.09232 11.7584 8.75065V0.778257C11.7584 0.341674 11.417 0 10.9808 0ZM12.4032 11.6169C12.4032 12.3762 11.7774 13.0026 11.0188 13.0026C10.2602 13.0026 9.6343 12.3762 9.6343 11.6169C9.6343 10.8576 10.2602 10.2312 11.0188 10.2312C11.7774 10.2312 12.4032 10.8387 12.4032 11.6169Z" fill="#818183"/>
<path d="M19.8377 16.2105V0.778257C19.8377 0.341674 19.4963 0 19.0601 0C18.6239 0 18.2825 0.341674 18.2825 0.778257V16.2105C17.0308 16.5522 16.1205 17.6911 16.1205 19.0388C16.1205 20.6523 17.4291 21.981 19.0601 21.981C20.6911 21.981 21.9997 20.6713 21.9997 19.0388C22.0187 17.6911 21.0894 16.5522 19.8377 16.2105ZM19.0791 20.4245C18.3205 20.4245 17.6946 19.7981 17.6946 19.0388C17.6946 18.2796 18.3205 17.6532 19.0791 17.6532C19.8377 17.6532 20.4635 18.2796 20.4635 19.0388C20.4635 19.7981 19.8377 20.4245 19.0791 20.4245Z" fill="#818183"/>
</svg>
