<svg width="15" height="15" viewBox="0 0 15 15" fill="none" xmlns="http://www.w3.org/2000/svg">
<path d="M11.2 15C10.9246 14.954 10.6471 14.918 10.3737 14.86C9.3537 14.6091 8.37619 14.2108 7.47238 13.6777C6.04985 12.8911 4.76067 11.8866 3.65223 10.701C2.30311 9.24268 1.18119 7.63631 0.473457 5.76788C0.199227 5.09567 0.0415062 4.38206 0.00699645 3.6574C-0.0194299 3.30294 0.0291902 2.94691 0.149714 2.61232C0.270238 2.27772 0.459984 1.97202 0.706688 1.71495C1.12892 1.28485 1.53707 0.838752 1.99147 0.446662C2.69317 -0.153475 3.4572 -0.153475 4.13477 0.474669C4.85055 1.14282 5.5422 1.84498 6.20771 2.55915C6.4519 2.82106 6.5876 3.16512 6.5876 3.52237C6.5876 3.87962 6.4519 4.22368 6.20771 4.48559C5.85384 4.88568 5.46177 5.24976 5.0878 5.63185C5.05362 5.66386 5.01743 5.69187 4.9551 5.74788C5.95381 7.54657 7.44518 9.02624 9.25579 10.0149L10.1485 9.11665C10.3677 8.85891 10.6427 8.65376 10.9527 8.51651C11.1963 8.41113 11.4656 8.37959 11.7271 8.42586C11.9885 8.47212 12.2304 8.59412 12.4225 8.77657C13.1718 9.48607 13.9023 10.2156 14.6141 10.9651C14.8553 11.2224 14.9927 11.5592 14.9997 11.911C15.0068 12.2628 14.883 12.6049 14.6523 12.8715C14.2019 13.3996 13.7033 13.8997 13.1986 14.3839C12.8392 14.7127 12.3817 14.9157 11.8957 14.962C11.861 14.9701 11.8268 14.9802 11.7932 14.992L11.2 15ZM11.4232 14.0978C11.6709 14.1113 11.9185 14.0715 12.1493 13.981C12.38 13.8906 12.5885 13.7516 12.7603 13.5737C13.0981 13.2216 13.4439 12.8775 13.7857 12.5294C13.8298 12.4851 13.8714 12.4384 13.9103 12.3894C13.9685 12.3311 14.0143 12.2618 14.045 12.1855C14.0757 12.1092 14.0907 12.0276 14.089 11.9455C14.0873 11.8633 14.069 11.7824 14.0352 11.7074C14.0014 11.6325 13.9528 11.5651 13.8922 11.5092C13.6168 11.2131 13.3253 10.9331 13.0398 10.647C12.6678 10.2769 12.2998 9.90483 11.9239 9.54075C11.8691 9.47953 11.8024 9.43012 11.7277 9.39555C11.6531 9.36098 11.5721 9.34198 11.4898 9.33973C11.4074 9.33748 11.3255 9.35203 11.2491 9.38247C11.1726 9.41291 11.1033 9.45861 11.0452 9.51674C10.9889 9.56275 10.9387 9.61477 10.8864 9.66678C10.5285 10.0209 10.1746 10.3789 9.81474 10.729C9.71094 10.8476 9.56896 10.9266 9.41308 10.9525C9.25721 10.9784 9.09713 10.9496 8.96023 10.8711C8.74107 10.761 8.52393 10.651 8.31281 10.527C7.38307 9.96132 6.54173 9.26306 5.81564 8.4545C5.14261 7.76867 4.58461 6.97979 4.16292 6.11796C3.9498 5.64986 3.99604 5.4218 4.36398 5.06572C4.73192 4.70964 5.126 4.33155 5.48992 3.94747C5.54874 3.89489 5.59603 3.8308 5.62884 3.75922C5.66164 3.68763 5.67926 3.61009 5.68058 3.53142C5.6819 3.45276 5.6669 3.37467 5.63652 3.30203C5.60613 3.2294 5.56102 3.16378 5.504 3.10927C5.45976 3.05726 5.41352 3.00925 5.36727 2.96124L3.60196 1.19683C3.22397 0.826749 2.8882 0.822749 2.5102 1.19683C2.13221 1.57092 1.77633 1.901 1.43252 2.27508C1.26304 2.44923 1.12678 2.65258 1.0304 2.87522C0.879302 3.35292 0.873008 3.86432 1.0123 4.34556C1.17965 5.09295 1.44321 5.81575 1.79644 6.49605C2.40248 7.69566 3.17099 8.80693 4.08049 9.79881C5.64568 11.5712 7.62641 12.9317 9.84691 13.7597C10.3522 13.9497 10.8839 14.061 11.4232 14.0898V14.0978Z" fill="#C5C5C5"/>
</svg>
