<svg width="13" height="11" viewBox="0 0 13 11" fill="none" xmlns="http://www.w3.org/2000/svg">
<path d="M12.4857 7.50428C12.8143 7.205 12.9992 6.79929 13 6.37605V1.59664C12.9992 1.17385 12.8147 0.76854 12.4868 0.469337C12.1588 0.170135 11.7141 0.0013879 11.2499 0H1.75294C1.28826 0.000694409 0.84284 0.169135 0.514266 0.468412C0.185691 0.76769 0.000762387 1.1734 0 1.59664V6.37868C0.000762387 6.80192 0.185691 7.20762 0.514266 7.5069C0.84284 7.80618 1.28826 7.97462 1.75294 7.97532H2.06143V11L5 7.97269H11.2471C11.7117 7.97199 12.1572 7.80355 12.4857 7.50428Z" fill="#EC6D26"/>
</svg>
