<svg width="19" height="20" viewBox="0 0 19 20" fill="none" xmlns="http://www.w3.org/2000/svg">
<path d="M18.9541 9.02024L16.2391 1.87738C16.1431 1.62714 15.8818 1.42857 15.6087 1.42857H11.4111C11.1301 0.599048 10.3837 0 9.5 0C8.61627 0 7.86987 0.599048 7.58887 1.42857H3.39126C3.11636 1.42857 2.85391 1.63048 2.76093 1.87738L0.0459287 9.02024C0.0205887 9.08714 0.00022625 9.32452 0 9.31238C0.0142537 11.269 1.52877 12.8571 3.39126 12.8571C5.25374 12.8571 6.76826 11.269 6.78251 9.31262C6.78297 9.24262 6.74563 9.04429 6.73658 9.02048L4.39399 2.85714H7.58887C7.79385 3.46238 8.24635 3.93833 8.82125 4.15405V15.7143H6.10625C4.98338 15.7143 4.07001 16.6755 4.07001 17.8571V19.2857C4.07001 19.6802 4.37363 20 4.74875 20H14.2512C14.6264 20 14.93 19.6802 14.93 19.2857V17.8571C14.93 16.6755 14.0166 15.7143 12.8937 15.7143H10.1787V4.15405C10.7539 3.93833 11.2061 3.46214 11.4111 2.85714H14.606L12.2634 9.02024C12.2381 9.08714 12.2177 9.32452 12.2175 9.31238C12.2317 11.269 13.7463 12.8571 15.6087 12.8571C17.4712 12.8571 18.9857 11.269 19 9.31262C19.0004 9.24262 18.9631 9.04405 18.9541 9.02024ZM13.5725 17.8571V18.5714H5.4275V17.8571C5.4275 17.4633 5.73181 17.1429 6.10625 17.1429H12.8937C13.2682 17.1429 13.5725 17.4633 13.5725 17.8571ZM17.321 8.57143H13.8965L15.6087 4.06595L17.321 8.57143ZM3.39126 4.06595L5.10351 8.57143H1.679L3.39126 4.06595ZM3.39126 11.4286C2.50639 11.4286 1.7514 10.8314 1.47108 10H5.31166C5.03111 10.8314 4.27612 11.4286 3.39126 11.4286ZM9.5 2.85714C9.12555 2.85714 8.82125 2.53667 8.82125 2.14286C8.82125 1.74905 9.12555 1.42857 9.5 1.42857C9.87444 1.42857 10.1787 1.74905 10.1787 2.14286C10.1787 2.53667 9.87444 2.85714 9.5 2.85714ZM15.6087 11.4286C14.7239 11.4286 13.9689 10.8314 13.6886 10H17.5291C17.2486 10.8314 16.4936 11.4286 15.6087 11.4286Z" fill="#D9D9D9"/>
</svg>
