<svg width="22" height="19" viewBox="0 0 22 19" fill="none" xmlns="http://www.w3.org/2000/svg">
<path d="M10.9805 19C10.4014 19 9.86867 18.7719 9.47491 18.3842L1.94712 10.9712C-0.577586 8.5078 -0.647073 4.47059 1.73866 1.98439C2.96627 0.707083 4.63396 0 6.44063 0C8.15465 0 9.77602 0.638655 10.9805 1.82473C12.1849 0.638655 13.8063 0 15.5203 0C17.2575 0 18.8789 0.661465 20.1065 1.87035C22.6312 4.35654 22.6312 8.39376 20.1065 10.9028L12.486 18.3842C12.0923 18.7947 11.5595 19 10.9805 19ZM6.44063 2.509C5.352 2.509 4.33285 2.94238 3.59165 3.71789C2.13242 5.22329 2.20191 7.70948 3.73063 9.21489L10.9805 16.3541L18.323 9.12365C19.8517 7.61825 19.8517 5.13205 18.323 3.62665C17.5818 2.89676 16.5858 2.48619 15.5203 2.48619C14.4548 2.48619 13.482 2.89676 12.7408 3.62665L11.8838 4.4934C11.3974 4.97239 10.5867 4.97239 10.1003 4.4934L9.24329 3.64946C8.47893 2.91957 7.5061 2.509 6.44063 2.509Z" fill="#D9D9D9"/>
</svg>
