<svg width="607" height="160" viewBox="0 0 607 160" fill="none" xmlns="http://www.w3.org/2000/svg">
<rect y="5" width="607" height="155" rx="8" fill="url(#paint0_linear)"/>
<path fill-rule="evenodd" clip-rule="evenodd" d="M156 20C151.582 20 148 23.5817 148 28V136C148 140.418 151.582 144 156 144H530.208C532.016 144 533.77 143.388 535.186 142.263L587.121 88.2626C591.151 85.0597 591.151 78.9403 587.121 75.7374L535.186 21.7374C533.77 20.6124 532.016 20 530.208 20H156ZM558 91C562.971 91 567 86.9706 567 82C567 77.0294 562.971 73 558 73C553.029 73 549 77.0294 549 82C549 86.9706 553.029 91 558 91Z" fill="white"/>
<path d="M179.137 66.0938L184.25 80.5312L189.336 66.0938H194.723V86H190.607V80.5586L191.018 71.166L185.645 86H182.828L177.469 71.1797L177.879 80.5586V86H173.777V66.0938H179.137ZM202.27 75.541H205.1C206.376 75.541 207.497 75.7552 208.463 76.1836C209.429 76.612 210.167 77.2272 210.678 78.0293C211.197 78.8223 211.457 79.7474 211.457 80.8047C211.457 82.3633 210.878 83.6211 209.721 84.5781C208.572 85.526 207.005 86 205.018 86H198.305V71.207H202.27V75.541ZM217.746 86H213.795V71.207H217.746V86ZM202.27 78.7129V82.8418H205.072C205.856 82.8418 206.458 82.6595 206.877 82.2949C207.296 81.9303 207.506 81.4336 207.506 80.8047C207.506 80.1667 207.301 79.6608 206.891 79.2871C206.48 78.9043 205.874 78.7129 205.072 78.7129H202.27ZM238.281 74.4062H232.156V86H228.205V71.207H238.281V74.4062ZM239.047 78.4668C239.047 76.9993 239.329 75.6914 239.895 74.543C240.46 73.3945 241.271 72.5059 242.328 71.877C243.395 71.248 244.63 70.9336 246.033 70.9336C248.029 70.9336 249.656 71.5443 250.914 72.7656C252.181 73.987 252.887 75.6458 253.033 77.7422L253.061 78.7539C253.061 81.0234 252.427 82.8464 251.16 84.2227C249.893 85.5898 248.193 86.2734 246.061 86.2734C243.928 86.2734 242.223 85.5898 240.947 84.2227C239.68 82.8555 239.047 80.9961 239.047 78.6445V78.4668ZM242.998 78.7539C242.998 80.1576 243.262 81.2331 243.791 81.9805C244.32 82.7188 245.076 83.0879 246.061 83.0879C247.018 83.0879 247.765 82.7233 248.303 81.9941C248.84 81.2559 249.109 80.0801 249.109 78.4668C249.109 77.0905 248.84 76.0241 248.303 75.2676C247.765 74.5111 247.008 74.1328 246.033 74.1328C245.067 74.1328 244.32 74.5111 243.791 75.2676C243.262 76.015 242.998 77.1771 242.998 78.7539ZM267.361 74.3789H262.617V86H258.652V74.3789H253.99V71.207H267.361V74.3789ZM268.332 78.4668C268.332 76.9993 268.615 75.6914 269.18 74.543C269.745 73.3945 270.556 72.5059 271.613 71.877C272.68 71.248 273.915 70.9336 275.318 70.9336C277.314 70.9336 278.941 71.5443 280.199 72.7656C281.466 73.987 282.173 75.6458 282.318 77.7422L282.346 78.7539C282.346 81.0234 281.712 82.8464 280.445 84.2227C279.178 85.5898 277.479 86.2734 275.346 86.2734C273.213 86.2734 271.508 85.5898 270.232 84.2227C268.965 82.8555 268.332 80.9961 268.332 78.6445V78.4668ZM272.283 78.7539C272.283 80.1576 272.548 81.2331 273.076 81.9805C273.605 82.7188 274.361 83.0879 275.346 83.0879C276.303 83.0879 277.05 82.7233 277.588 81.9941C278.126 81.2559 278.395 80.0801 278.395 78.4668C278.395 77.0905 278.126 76.0241 277.588 75.2676C277.05 74.5111 276.294 74.1328 275.318 74.1328C274.352 74.1328 273.605 74.5111 273.076 75.2676C272.548 76.015 272.283 77.1771 272.283 78.7539ZM285.039 86V71.207H291.219C293.233 71.207 294.778 71.5625 295.854 72.2734C296.929 72.9844 297.467 74.0052 297.467 75.3359C297.467 76.0195 297.239 76.6348 296.783 77.1816C296.337 77.7194 295.68 78.1341 294.814 78.4258C295.872 78.6263 296.701 79.0228 297.303 79.6152C297.913 80.1986 298.219 80.9186 298.219 81.7754C298.219 83.1517 297.699 84.1999 296.66 84.9199C295.63 85.64 294.131 86 292.162 86H285.039ZM288.99 79.8613V82.8418H292.176C293.57 82.8418 294.268 82.3542 294.268 81.3789C294.268 80.3854 293.602 79.8796 292.271 79.8613H288.99ZM288.99 77.209H291.438C292.823 77.1908 293.516 76.7441 293.516 75.8691C293.516 75.3314 293.324 74.9486 292.941 74.7207C292.568 74.4928 291.993 74.3789 291.219 74.3789H288.99V77.209ZM304.863 75.541H307.693C308.969 75.541 310.09 75.7552 311.057 76.1836C312.023 76.612 312.761 77.2272 313.271 78.0293C313.791 78.8223 314.051 79.7474 314.051 80.8047C314.051 82.3633 313.472 83.6211 312.314 84.5781C311.166 85.526 309.598 86 307.611 86H300.898V71.207H304.863V75.541ZM320.34 86H316.389V71.207H320.34V86ZM304.863 78.7129V82.8418H307.666C308.45 82.8418 309.051 82.6595 309.471 82.2949C309.89 81.9303 310.1 81.4336 310.1 80.8047C310.1 80.1667 309.895 79.6608 309.484 79.2871C309.074 78.9043 308.468 78.7129 307.666 78.7129H304.863ZM343.664 86H339.699V74.4062H334.75V86H330.799V71.207H343.664V86ZM360.002 78.7402C360.002 81.0189 359.482 82.8464 358.443 84.2227C357.413 85.5898 356.019 86.2734 354.26 86.2734C352.765 86.2734 351.557 85.7539 350.637 84.7148V91.6875H346.686V71.207H350.35L350.486 72.6562C351.443 71.5078 352.692 70.9336 354.232 70.9336C356.055 70.9336 357.473 71.6081 358.484 72.957C359.496 74.306 360.002 76.1654 360.002 78.5352V78.7402ZM356.051 78.4531C356.051 77.0768 355.805 76.015 355.312 75.2676C354.829 74.5202 354.123 74.1465 353.193 74.1465C351.954 74.1465 351.102 74.6204 350.637 75.5684V81.625C351.12 82.6003 351.981 83.0879 353.221 83.0879C355.107 83.0879 356.051 81.543 356.051 78.4531ZM369.271 86.2734C367.102 86.2734 365.334 85.6081 363.967 84.2773C362.609 82.9466 361.93 81.1738 361.93 78.959V78.5762C361.93 77.0905 362.217 75.7643 362.791 74.5977C363.365 73.4219 364.176 72.5195 365.225 71.8906C366.282 71.2526 367.485 70.9336 368.834 70.9336C370.857 70.9336 372.448 71.5716 373.605 72.8477C374.772 74.1237 375.355 75.9329 375.355 78.2754V79.8887H365.936C366.063 80.8548 366.446 81.6296 367.084 82.2129C367.731 82.7962 368.547 83.0879 369.531 83.0879C371.053 83.0879 372.243 82.5365 373.1 81.4336L375.041 83.6074C374.449 84.446 373.646 85.1022 372.635 85.5762C371.623 86.041 370.502 86.2734 369.271 86.2734ZM368.82 74.1328C368.036 74.1328 367.398 74.3971 366.906 74.9258C366.423 75.4544 366.113 76.2109 365.977 77.1953H371.473V76.8809C371.454 76.0059 371.217 75.3314 370.762 74.8574C370.306 74.3743 369.659 74.1328 368.82 74.1328ZM377.816 82.8145C378.71 81.8665 379.316 80.9277 379.635 79.998C379.954 79.0684 380.132 77.7513 380.168 76.0469L380.277 71.207H391.16V82.8145H393.293V90.4434H389.342V86H380.578V90.4434H376.545V82.8145H377.816ZM382.479 82.8145H387.223V74.4746H384.146L384.119 76.252C384.037 78.9681 383.49 81.1556 382.479 82.8145ZM408.168 71.207V86H404.217V74.4062H400.73L400.484 78.9727C400.329 81.4062 399.851 83.179 399.049 84.291C398.247 85.403 397.053 85.9727 395.467 86H394.127L394.086 82.7871L394.578 82.7461C395.289 82.6914 395.809 82.2721 396.137 81.4883C396.465 80.7044 396.67 79.3691 396.752 77.4824L397.025 71.207H408.168ZM410.602 78.4668C410.602 76.9993 410.884 75.6914 411.449 74.543C412.014 73.3945 412.826 72.5059 413.883 71.877C414.949 71.248 416.184 70.9336 417.588 70.9336C419.584 70.9336 421.211 71.5443 422.469 72.7656C423.736 73.987 424.442 75.6458 424.588 77.7422L424.615 78.7539C424.615 81.0234 423.982 82.8464 422.715 84.2227C421.448 85.5898 419.748 86.2734 417.615 86.2734C415.482 86.2734 413.778 85.5898 412.502 84.2227C411.235 82.8555 410.602 80.9961 410.602 78.6445V78.4668ZM414.553 78.7539C414.553 80.1576 414.817 81.2331 415.346 81.9805C415.874 82.7188 416.631 83.0879 417.615 83.0879C418.572 83.0879 419.32 82.7233 419.857 81.9941C420.395 81.2559 420.664 80.0801 420.664 78.4668C420.664 77.0905 420.395 76.0241 419.857 75.2676C419.32 74.5111 418.563 74.1328 417.588 74.1328C416.622 74.1328 415.874 74.5111 415.346 75.2676C414.817 76.015 414.553 77.1771 414.553 78.7539ZM440.98 80.5176H439.189V86H435.238V80.5176H433.475L430.535 86H425.764L430.426 78.2617L425.818 71.207H430.713L433.789 76.7305H435.238V71.207H439.189V76.7305H440.666L443.756 71.207H448.65L444.07 78.166L448.773 86H443.92L440.98 80.5176ZM459.588 71.207H463.539V86H459.588V76.8672L454.639 86H450.674V71.207H454.639V80.3262L459.588 71.207ZM478.838 74.3789H474.094V86H470.129V74.3789H465.467V71.207H478.838V74.3789ZM485.059 75.541H487.889C489.165 75.541 490.286 75.7552 491.252 76.1836C492.218 76.612 492.956 77.2272 493.467 78.0293C493.986 78.8223 494.246 79.7474 494.246 80.8047C494.246 82.3633 493.667 83.6211 492.51 84.5781C491.361 85.526 489.794 86 487.807 86H481.094V71.207H485.059V75.541ZM485.059 78.7129V82.8418H487.861C488.645 82.8418 489.247 82.6595 489.666 82.2949C490.085 81.9303 490.295 81.4336 490.295 80.8047C490.295 80.1667 490.09 79.6608 489.68 79.2871C489.27 78.9043 488.663 78.7129 487.861 78.7129H485.059ZM173.777 119V104.207H179.957C181.971 104.207 183.516 104.562 184.592 105.273C185.667 105.984 186.205 107.005 186.205 108.336C186.205 109.02 185.977 109.635 185.521 110.182C185.075 110.719 184.419 111.134 183.553 111.426C184.61 111.626 185.439 112.023 186.041 112.615C186.652 113.199 186.957 113.919 186.957 114.775C186.957 116.152 186.438 117.2 185.398 117.92C184.368 118.64 182.869 119 180.9 119H173.777ZM177.729 112.861V115.842H180.914C182.309 115.842 183.006 115.354 183.006 114.379C183.006 113.385 182.34 112.88 181.01 112.861H177.729ZM177.729 110.209H180.176C181.561 110.191 182.254 109.744 182.254 108.869C182.254 108.331 182.062 107.949 181.68 107.721C181.306 107.493 180.732 107.379 179.957 107.379H177.729V110.209ZM197.949 119C197.767 118.645 197.635 118.202 197.553 117.674C196.596 118.74 195.352 119.273 193.82 119.273C192.371 119.273 191.168 118.854 190.211 118.016C189.263 117.177 188.789 116.12 188.789 114.844C188.789 113.276 189.368 112.073 190.525 111.234C191.692 110.396 193.374 109.972 195.57 109.963H197.389V109.115C197.389 108.432 197.211 107.885 196.855 107.475C196.509 107.064 195.958 106.859 195.201 106.859C194.536 106.859 194.012 107.019 193.629 107.338C193.255 107.657 193.068 108.094 193.068 108.65H189.117C189.117 107.794 189.382 107.001 189.91 106.271C190.439 105.542 191.186 104.973 192.152 104.562C193.118 104.143 194.203 103.934 195.406 103.934C197.229 103.934 198.674 104.394 199.74 105.314C200.816 106.226 201.354 107.511 201.354 109.17V115.582C201.363 116.986 201.559 118.048 201.941 118.768V119H197.949ZM194.682 116.252C195.265 116.252 195.803 116.124 196.295 115.869C196.787 115.605 197.152 115.254 197.389 114.816V112.273H195.912C193.934 112.273 192.882 112.957 192.754 114.324L192.74 114.557C192.74 115.049 192.913 115.454 193.26 115.773C193.606 116.092 194.08 116.252 194.682 116.252ZM213.398 114.338L217.268 104.207H222.217V119H218.266V109.922L214.725 119H212.072L208.6 110.072V119H204.648V104.207H209.557L213.398 114.338ZM232.635 104.207H236.586V115.814H241.535V104.207H245.5V115.842H247.715L247.441 123.389H243.764V119H232.635V104.207ZM256.506 119.273C254.337 119.273 252.568 118.608 251.201 117.277C249.843 115.947 249.164 114.174 249.164 111.959V111.576C249.164 110.09 249.451 108.764 250.025 107.598C250.6 106.422 251.411 105.52 252.459 104.891C253.516 104.253 254.719 103.934 256.068 103.934C258.092 103.934 259.682 104.572 260.84 105.848C262.007 107.124 262.59 108.933 262.59 111.275V112.889H253.17C253.298 113.855 253.68 114.63 254.318 115.213C254.965 115.796 255.781 116.088 256.766 116.088C258.288 116.088 259.477 115.536 260.334 114.434L262.275 116.607C261.683 117.446 260.881 118.102 259.869 118.576C258.857 119.041 257.736 119.273 256.506 119.273ZM256.055 107.133C255.271 107.133 254.633 107.397 254.141 107.926C253.658 108.454 253.348 109.211 253.211 110.195H258.707V109.881C258.689 109.006 258.452 108.331 257.996 107.857C257.54 107.374 256.893 107.133 256.055 107.133ZM277.67 119H273.705V113.312H268.797V119H264.846V104.207H268.797V110.141H273.705V104.207H277.67V119ZM286.256 113.408L288.99 104.207H293.229L287.281 121.297L286.953 122.076C286.069 124.008 284.611 124.975 282.578 124.975C282.004 124.975 281.421 124.888 280.828 124.715V121.721L281.43 121.734C282.177 121.734 282.733 121.62 283.098 121.393C283.471 121.165 283.763 120.786 283.973 120.258L284.438 119.041L279.256 104.207H283.508L286.256 113.408ZM318.221 119H314.119V110.469H306.121V119H302.02V99.0938H306.121V107.16H314.119V99.0938H318.221V119ZM333.752 99.0938H337.867V119H333.752V105.779L325.781 119H321.68V99.0938H325.781V112.342L333.752 99.0938ZM358.457 110.893H356.092V119H351.99V110.893H349.57L345.236 119H340.123L346.33 108.322L340.424 99.0938H345.523L349.953 107.119H351.99V99.0938H356.092V107.119H358.088L362.408 99.0938H367.494L361.697 108.309L367.809 119H362.682L358.457 110.893ZM381.59 110.373H373.715V115.705H382.957V119H369.613V99.0938H382.93V102.416H373.715V107.16H381.59V110.373ZM389.123 112.889H385.842L385.377 99.0938H389.588L389.123 112.889ZM387.482 115.049C388.148 115.049 388.681 115.245 389.082 115.637C389.492 116.029 389.697 116.53 389.697 117.141C389.697 117.742 389.492 118.239 389.082 118.631C388.681 119.023 388.148 119.219 387.482 119.219C386.826 119.219 386.293 119.023 385.883 118.631C385.482 118.239 385.281 117.742 385.281 117.141C385.281 116.539 385.482 116.042 385.883 115.65C386.293 115.249 386.826 115.049 387.482 115.049Z" fill="#EC6D26"/>
<path d="M184.734 54H182.273V47.6816H175.916V54H173.445V39.7812H175.916V45.6992H182.273V39.7812H184.734V54ZM193.748 54C193.644 53.7982 193.553 53.4694 193.475 53.0137C192.719 53.8014 191.795 54.1953 190.701 54.1953C189.64 54.1953 188.774 53.8926 188.104 53.2871C187.433 52.6816 187.098 51.9329 187.098 51.041C187.098 49.9147 187.514 49.0521 188.348 48.4531C189.188 47.8477 190.385 47.5449 191.941 47.5449H193.396V46.8516C193.396 46.3047 193.243 45.8685 192.938 45.543C192.632 45.2109 192.166 45.0449 191.541 45.0449C191.001 45.0449 190.558 45.1816 190.213 45.4551C189.868 45.722 189.695 46.0638 189.695 46.4805H187.322C187.322 45.901 187.514 45.3607 187.898 44.8594C188.283 44.3516 188.803 43.9544 189.461 43.668C190.125 43.3815 190.864 43.2383 191.678 43.2383C192.915 43.2383 193.901 43.5508 194.637 44.1758C195.372 44.7943 195.75 45.6667 195.77 46.793V51.5586C195.77 52.5091 195.903 53.2676 196.17 53.834V54H193.748ZM191.141 52.291C191.609 52.291 192.049 52.1771 192.459 51.9492C192.876 51.7214 193.188 51.4154 193.396 51.0312V49.0391H192.117C191.238 49.0391 190.577 49.1921 190.135 49.498C189.692 49.804 189.471 50.237 189.471 50.7969C189.471 51.2526 189.62 51.6172 189.92 51.8906C190.226 52.1576 190.633 52.291 191.141 52.291ZM200.721 43.4336V52.1055H204.021V43.4336H206.395V52.1055H209.705V43.4336H212.068V54H198.348V43.4336H200.721ZM223.621 43.4336V54H221.248V45.3477H218.26L218.064 49.0293C217.941 50.8001 217.599 52.0729 217.039 52.8477C216.486 53.6159 215.636 54 214.49 54H213.758L213.748 52.0273L214.236 51.9785C214.757 51.9069 215.135 51.5911 215.369 51.0312C215.61 50.4648 215.763 49.4362 215.828 47.9453L216.023 43.4336H223.621ZM232.742 43.4336H235.105V54H232.742V46.9492L228.602 54H226.238V43.4336H228.602V50.4844L232.742 43.4336ZM246.404 45.1426C245.851 45.1426 245.382 45.3151 244.998 45.6602C244.614 45.9987 244.422 46.4251 244.422 46.9395H242.186C242.186 46.2884 242.374 45.6797 242.752 45.1133C243.13 44.5404 243.647 44.0846 244.305 43.7461C244.962 43.4076 245.662 43.2383 246.404 43.2383C247.837 43.2383 248.986 43.7298 249.852 44.7129C250.724 45.696 251.16 47.0078 251.16 48.6484V48.8926C251.16 49.9017 250.962 50.8164 250.564 51.6367C250.174 52.457 249.62 53.0885 248.904 53.5312C248.188 53.974 247.358 54.1953 246.414 54.1953C245.613 54.1953 244.887 54.0293 244.236 53.6973C243.585 53.3587 243.081 52.8867 242.723 52.2812C242.365 51.6758 242.186 50.9922 242.186 50.2305H244.422C244.422 50.8359 244.614 51.334 244.998 51.7246C245.382 52.1087 245.854 52.3008 246.414 52.3008C247.078 52.3008 247.615 52.0534 248.025 51.5586C248.436 51.0573 248.68 50.3607 248.758 49.4688H245.438V47.8281H248.748C248.657 46.9688 248.406 46.3079 247.996 45.8457C247.586 45.377 247.055 45.1426 246.404 45.1426ZM261.102 45.3184H257.674V54H255.301V45.3184H251.912V43.4336H261.102V45.3184ZM261.951 48.6191C261.951 47.584 262.156 46.653 262.566 45.8262C262.977 44.9928 263.553 44.3548 264.295 43.9121C265.037 43.4629 265.89 43.2383 266.854 43.2383C268.279 43.2383 269.435 43.6973 270.32 44.6152C271.212 45.5332 271.694 46.7507 271.766 48.2676L271.775 48.8242C271.775 49.8659 271.574 50.7969 271.17 51.6172C270.773 52.4375 270.2 53.0723 269.451 53.5215C268.709 53.9707 267.85 54.1953 266.873 54.1953C265.382 54.1953 264.188 53.7005 263.289 52.7109C262.397 51.7148 261.951 50.39 261.951 48.7363V48.6191ZM264.324 48.8242C264.324 49.9115 264.549 50.7643 264.998 51.3828C265.447 51.9948 266.072 52.3008 266.873 52.3008C267.674 52.3008 268.296 51.9883 268.738 51.3633C269.188 50.7383 269.412 49.8236 269.412 48.6191C269.412 47.5514 269.181 46.7051 268.719 46.0801C268.263 45.4551 267.641 45.1426 266.854 45.1426C266.079 45.1426 265.464 45.4518 265.008 46.0703C264.552 46.6823 264.324 47.6003 264.324 48.8242ZM281.805 45.3184H278.377V54H276.004V45.3184H272.615V43.4336H281.805V45.3184ZM296.688 45.3184H293.26V54H290.887V45.3184H287.498V43.4336H296.688V45.3184ZM297.537 48.6191C297.537 47.584 297.742 46.653 298.152 45.8262C298.562 44.9928 299.139 44.3548 299.881 43.9121C300.623 43.4629 301.476 43.2383 302.439 43.2383C303.865 43.2383 305.021 43.6973 305.906 44.6152C306.798 45.5332 307.28 46.7507 307.352 48.2676L307.361 48.8242C307.361 49.8659 307.16 50.7969 306.756 51.6172C306.359 52.4375 305.786 53.0723 305.037 53.5215C304.295 53.9707 303.436 54.1953 302.459 54.1953C300.968 54.1953 299.773 53.7005 298.875 52.7109C297.983 51.7148 297.537 50.39 297.537 48.7363V48.6191ZM299.91 48.8242C299.91 49.9115 300.135 50.7643 300.584 51.3828C301.033 51.9948 301.658 52.3008 302.459 52.3008C303.26 52.3008 303.882 51.9883 304.324 51.3633C304.773 50.7383 304.998 49.8236 304.998 48.6191C304.998 47.5514 304.767 46.7051 304.305 46.0801C303.849 45.4551 303.227 45.1426 302.439 45.1426C301.665 45.1426 301.049 45.4518 300.594 46.0703C300.138 46.6823 299.91 47.6003 299.91 48.8242ZM309.549 54V43.4336H313.836C315.281 43.4336 316.382 43.6875 317.137 44.1953C317.892 44.6966 318.27 45.4193 318.27 46.3633C318.27 46.8516 318.117 47.291 317.811 47.6816C317.511 48.0658 317.065 48.362 316.473 48.5703C317.163 48.7135 317.71 49.0033 318.113 49.4395C318.517 49.8757 318.719 50.39 318.719 50.9824C318.719 51.9655 318.354 52.7142 317.625 53.2285C316.902 53.7428 315.861 54 314.5 54H309.549ZM311.922 49.498V52.125H314.52C315.737 52.125 316.346 51.6888 316.346 50.8164C316.346 49.9375 315.727 49.498 314.49 49.498H311.922ZM311.922 47.7988H313.875C315.223 47.7988 315.896 47.4017 315.896 46.6074C315.896 45.7741 315.258 45.3444 313.982 45.3184H311.922V47.7988ZM327.088 54C326.984 53.7982 326.893 53.4694 326.814 53.0137C326.059 53.8014 325.135 54.1953 324.041 54.1953C322.98 54.1953 322.114 53.8926 321.443 53.2871C320.773 52.6816 320.438 51.9329 320.438 51.041C320.438 49.9147 320.854 49.0521 321.688 48.4531C322.527 47.8477 323.725 47.5449 325.281 47.5449H326.736V46.8516C326.736 46.3047 326.583 45.8685 326.277 45.543C325.971 45.2109 325.506 45.0449 324.881 45.0449C324.34 45.0449 323.898 45.1816 323.553 45.4551C323.208 45.722 323.035 46.0638 323.035 46.4805H320.662C320.662 45.901 320.854 45.3607 321.238 44.8594C321.622 44.3516 322.143 43.9544 322.801 43.668C323.465 43.3815 324.204 43.2383 325.018 43.2383C326.255 43.2383 327.241 43.5508 327.977 44.1758C328.712 44.7943 329.09 45.6667 329.109 46.793V51.5586C329.109 52.5091 329.243 53.2676 329.51 53.834V54H327.088ZM324.48 52.291C324.949 52.291 325.389 52.1771 325.799 51.9492C326.215 51.7214 326.528 51.4154 326.736 51.0312V49.0391H325.457C324.578 49.0391 323.917 49.1921 323.475 49.498C323.032 49.804 322.811 50.237 322.811 50.7969C322.811 51.2526 322.96 51.6172 323.26 51.8906C323.566 52.1576 323.973 52.291 324.48 52.291ZM340.848 48.8242C340.848 50.4583 340.477 51.7637 339.734 52.7402C338.992 53.7103 337.996 54.1953 336.746 54.1953C335.587 54.1953 334.66 53.8145 333.963 53.0527V58.0625H331.59V43.4336H333.777L333.875 44.5078C334.572 43.6615 335.519 43.2383 336.717 43.2383C338.006 43.2383 339.015 43.7201 339.744 44.6836C340.48 45.6406 340.848 46.972 340.848 48.6777V48.8242ZM338.484 48.6191C338.484 47.5645 338.273 46.7279 337.85 46.1094C337.433 45.4909 336.834 45.1816 336.053 45.1816C335.083 45.1816 334.386 45.582 333.963 46.3828V51.0703C334.393 51.8906 335.096 52.3008 336.072 52.3008C336.827 52.3008 337.417 51.998 337.84 51.3926C338.27 50.7806 338.484 49.8561 338.484 48.6191ZM347.889 52.1055C348.546 51.3698 348.986 50.6732 349.207 50.0156C349.435 49.3516 349.572 48.5052 349.617 47.4766L349.754 43.4336H357.088V52.1055H358.553V57.1445H356.189V54H349.412V57.1445H347.01L347.02 52.1055H347.889ZM350.672 52.1055H354.725V45.4746H352.059L351.99 47.4961C351.899 49.4362 351.46 50.9727 350.672 52.1055ZM364.9 54.1953C363.396 54.1953 362.176 53.7233 361.238 52.7793C360.307 51.8288 359.842 50.5658 359.842 48.9902V48.6973C359.842 47.6426 360.044 46.7018 360.447 45.875C360.857 45.0417 361.43 44.3939 362.166 43.9316C362.902 43.4694 363.722 43.2383 364.627 43.2383C366.066 43.2383 367.176 43.6973 367.957 44.6152C368.745 45.5332 369.139 46.832 369.139 48.5117V49.4688H362.234C362.306 50.3411 362.596 51.0312 363.104 51.5391C363.618 52.0469 364.262 52.3008 365.037 52.3008C366.124 52.3008 367.01 51.8613 367.693 50.9824L368.973 52.2031C368.549 52.8346 367.983 53.3262 367.273 53.6777C366.57 54.0228 365.779 54.1953 364.9 54.1953ZM364.617 45.1426C363.966 45.1426 363.439 45.3704 363.035 45.8262C362.638 46.2819 362.384 46.9167 362.273 47.7305H366.795V47.5547C366.743 46.7604 366.531 46.1615 366.16 45.7578C365.789 45.3477 365.275 45.1426 364.617 45.1426ZM373.455 43.4336V52.1055H376.756V43.4336H379.129V52.1055H382.439V43.4336H384.803V54H371.082V43.4336H373.455ZM392.029 54.1953C390.525 54.1953 389.305 53.7233 388.367 52.7793C387.436 51.8288 386.971 50.5658 386.971 48.9902V48.6973C386.971 47.6426 387.173 46.7018 387.576 45.875C387.986 45.0417 388.559 44.3939 389.295 43.9316C390.031 43.4694 390.851 43.2383 391.756 43.2383C393.195 43.2383 394.305 43.6973 395.086 44.6152C395.874 45.5332 396.268 46.832 396.268 48.5117V49.4688H389.363C389.435 50.3411 389.725 51.0312 390.232 51.5391C390.747 52.0469 391.391 52.3008 392.166 52.3008C393.253 52.3008 394.139 51.8613 394.822 50.9824L396.102 52.2031C395.678 52.8346 395.112 53.3262 394.402 53.6777C393.699 54.0228 392.908 54.1953 392.029 54.1953ZM391.746 45.1426C391.095 45.1426 390.568 45.3704 390.164 45.8262C389.767 46.2819 389.513 46.9167 389.402 47.7305H393.924V47.5547C393.872 46.7604 393.66 46.1615 393.289 45.7578C392.918 45.3477 392.404 45.1426 391.746 45.1426ZM398.299 54V43.4336H402.586C404.031 43.4336 405.132 43.6875 405.887 44.1953C406.642 44.6966 407.02 45.4193 407.02 46.3633C407.02 46.8516 406.867 47.291 406.561 47.6816C406.261 48.0658 405.815 48.362 405.223 48.5703C405.913 48.7135 406.46 49.0033 406.863 49.4395C407.267 49.8757 407.469 50.39 407.469 50.9824C407.469 51.9655 407.104 52.7142 406.375 53.2285C405.652 53.7428 404.611 54 403.25 54H398.299ZM400.672 49.498V52.125H403.27C404.487 52.125 405.096 51.6888 405.096 50.8164C405.096 49.9375 404.477 49.498 403.24 49.498H400.672ZM400.672 47.7988H402.625C403.973 47.7988 404.646 47.4017 404.646 46.6074C404.646 45.7741 404.008 45.3444 402.732 45.3184H400.672V47.7988ZM418.504 43.4336V54H416.131V45.3477H413.143L412.947 49.0293C412.824 50.8001 412.482 52.0729 411.922 52.8477C411.368 53.6159 410.519 54 409.373 54H408.641L408.631 52.0273L409.119 51.9785C409.64 51.9069 410.018 51.5911 410.252 51.0312C410.493 50.4648 410.646 49.4362 410.711 47.9453L410.906 43.4336H418.504ZM425.682 54.1953C424.178 54.1953 422.957 53.7233 422.02 52.7793C421.089 51.8288 420.623 50.5658 420.623 48.9902V48.6973C420.623 47.6426 420.825 46.7018 421.229 45.875C421.639 45.0417 422.212 44.3939 422.947 43.9316C423.683 43.4694 424.503 43.2383 425.408 43.2383C426.847 43.2383 427.957 43.6973 428.738 44.6152C429.526 45.5332 429.92 46.832 429.92 48.5117V49.4688H423.016C423.087 50.3411 423.377 51.0312 423.885 51.5391C424.399 52.0469 425.044 52.3008 425.818 52.3008C426.906 52.3008 427.791 51.8613 428.475 50.9824L429.754 52.2031C429.331 52.8346 428.764 53.3262 428.055 53.6777C427.352 54.0228 426.561 54.1953 425.682 54.1953ZM425.398 45.1426C424.747 45.1426 424.22 45.3704 423.816 45.8262C423.419 46.2819 423.165 46.9167 423.055 47.7305H427.576V47.5547C427.524 46.7604 427.312 46.1615 426.941 45.7578C426.57 45.3477 426.056 45.1426 425.398 45.1426ZM433.973 49.8203C433.973 48.9544 434.08 48.2643 434.295 47.75C434.51 47.2357 434.933 46.6725 435.564 46.0605C436.202 45.4421 436.606 45.0026 436.775 44.7422C437.036 44.3451 437.166 43.9154 437.166 43.4531C437.166 42.8411 437.013 42.3757 436.707 42.0566C436.408 41.7311 435.965 41.5684 435.379 41.5684C434.819 41.5684 434.367 41.7279 434.021 42.0469C433.683 42.3594 433.514 42.7858 433.514 43.3262H431.141C431.154 42.1738 431.544 41.2624 432.312 40.5918C433.087 39.9212 434.109 39.5859 435.379 39.5859C436.688 39.5859 437.706 39.918 438.436 40.582C439.171 41.2461 439.539 42.1738 439.539 43.3652C439.539 44.4264 439.044 45.4714 438.055 46.5L436.854 47.6816C436.424 48.1699 436.202 48.8828 436.189 49.8203H433.973ZM433.807 52.8574C433.807 52.4733 433.927 52.1641 434.168 51.9297C434.409 51.6888 434.734 51.5684 435.145 51.5684C435.561 51.5684 435.89 51.6921 436.131 51.9395C436.372 52.1803 436.492 52.4863 436.492 52.8574C436.492 53.2155 436.375 53.515 436.141 53.7559C435.906 53.9967 435.574 54.1172 435.145 54.1172C434.715 54.1172 434.383 53.9967 434.148 53.7559C433.921 53.515 433.807 53.2155 433.807 52.8574Z" fill="#343434"/>
<path d="M26.8359 118.297C26.7214 119.51 26.2734 120.458 25.4922 121.141C24.7109 121.818 23.6719 122.156 22.375 122.156C21.4688 122.156 20.6693 121.943 19.9766 121.516C19.2891 121.083 18.7578 120.471 18.3828 119.68C18.0078 118.888 17.8125 117.969 17.7969 116.922V115.859C17.7969 114.786 17.987 113.841 18.3672 113.023C18.7474 112.206 19.2917 111.576 20 111.133C20.7135 110.69 21.5365 110.469 22.4688 110.469C23.724 110.469 24.7344 110.81 25.5 111.492C26.2656 112.174 26.7109 113.138 26.8359 114.383H24.8672C24.7734 113.565 24.5339 112.977 24.1484 112.617C23.7682 112.253 23.2083 112.07 22.4688 112.07C21.6094 112.07 20.9479 112.385 20.4844 113.016C20.026 113.641 19.7917 114.56 19.7812 115.773V116.781C19.7812 118.01 20 118.948 20.4375 119.594C20.8802 120.24 21.526 120.562 22.375 120.562C23.151 120.562 23.7344 120.388 24.125 120.039C24.5156 119.69 24.763 119.109 24.8672 118.297H26.8359ZM35.5938 122H33.6953V115.078H30.3984V122H28.5V113.547H35.5938V122ZM41.3359 122.156C40.1328 122.156 39.1562 121.779 38.4062 121.023C37.6615 120.263 37.2891 119.253 37.2891 117.992V117.758C37.2891 116.914 37.4505 116.161 37.7734 115.5C38.1016 114.833 38.5599 114.315 39.1484 113.945C39.737 113.576 40.3932 113.391 41.1172 113.391C42.2682 113.391 43.1562 113.758 43.7812 114.492C44.4115 115.227 44.7266 116.266 44.7266 117.609V118.375H39.2031C39.2604 119.073 39.4922 119.625 39.8984 120.031C40.3099 120.438 40.8255 120.641 41.4453 120.641C42.3151 120.641 43.0234 120.289 43.5703 119.586L44.5938 120.562C44.2552 121.068 43.8021 121.461 43.2344 121.742C42.6719 122.018 42.0391 122.156 41.3359 122.156ZM41.1094 114.914C40.5885 114.914 40.1667 115.096 39.8438 115.461C39.526 115.826 39.3229 116.333 39.2344 116.984H42.8516V116.844C42.8099 116.208 42.6406 115.729 42.3438 115.406C42.0469 115.078 41.6354 114.914 41.1094 114.914ZM46.2812 113.547H48.1797V120.484H51.4766V113.547H53.375V120.484H54.5234L54.3672 124.508H52.6406V122H46.2812V113.547ZM61.1406 113.547H63.0312V122H61.1406V116.359L57.8281 122H55.9375V113.547H57.8281V119.188L61.1406 113.547ZM70.1016 122C70.0182 121.839 69.9453 121.576 69.8828 121.211C69.2786 121.841 68.5391 122.156 67.6641 122.156C66.8151 122.156 66.1224 121.914 65.5859 121.43C65.0495 120.945 64.7812 120.346 64.7812 119.633C64.7812 118.732 65.1146 118.042 65.7812 117.562C66.4531 117.078 67.4115 116.836 68.6562 116.836H69.8203V116.281C69.8203 115.844 69.6979 115.495 69.4531 115.234C69.2083 114.969 68.8359 114.836 68.3359 114.836C67.9036 114.836 67.5495 114.945 67.2734 115.164C66.9974 115.378 66.8594 115.651 66.8594 115.984H64.9609C64.9609 115.521 65.1146 115.089 65.4219 114.688C65.7292 114.281 66.1458 113.964 66.6719 113.734C67.2031 113.505 67.7943 113.391 68.4453 113.391C69.4349 113.391 70.224 113.641 70.8125 114.141C71.401 114.635 71.7031 115.333 71.7188 116.234V120.047C71.7188 120.807 71.8255 121.414 72.0391 121.867V122H70.1016ZM68.0156 120.633C68.3906 120.633 68.7422 120.542 69.0703 120.359C69.4036 120.177 69.6536 119.932 69.8203 119.625V118.031H68.7969C68.0938 118.031 67.5651 118.154 67.2109 118.398C66.8568 118.643 66.6797 118.99 66.6797 119.438C66.6797 119.802 66.7995 120.094 67.0391 120.312C67.2839 120.526 67.6094 120.633 68.0156 120.633ZM80.8906 113.547V122H78.9922V115.078H76.6016L76.4453 118.023C76.3464 119.44 76.0729 120.458 75.625 121.078C75.1823 121.693 74.5026 122 73.5859 122H73L72.9922 120.422L73.3828 120.383C73.7995 120.326 74.1016 120.073 74.2891 119.625C74.4818 119.172 74.6042 118.349 74.6562 117.156L74.8125 113.547H80.8906ZM84.9531 116.234H86.8125C87.5052 116.234 88.1094 116.354 88.625 116.594C89.1406 116.833 89.5312 117.169 89.7969 117.602C90.0677 118.034 90.2031 118.536 90.2031 119.109C90.2031 119.979 89.8958 120.677 89.2812 121.203C88.6667 121.729 87.849 121.995 86.8281 122H83.0547V113.547H84.9531V116.234ZM84.9531 117.758V120.484H86.8047C87.2682 120.484 87.6328 120.37 87.8984 120.141C88.1693 119.906 88.3047 119.576 88.3047 119.148C88.3047 118.721 88.1719 118.385 87.9062 118.141C87.6458 117.891 87.2917 117.763 86.8438 117.758H84.9531ZM98.8828 122H96.9844V118.586H93.6953V122H91.7969V113.547H93.6953V117.07H96.9844V113.547H98.8828V122ZM100.555 117.695C100.555 116.867 100.719 116.122 101.047 115.461C101.375 114.794 101.836 114.284 102.43 113.93C103.023 113.57 103.706 113.391 104.477 113.391C105.617 113.391 106.542 113.758 107.25 114.492C107.964 115.227 108.349 116.201 108.406 117.414L108.414 117.859C108.414 118.693 108.253 119.438 107.93 120.094C107.612 120.75 107.154 121.258 106.555 121.617C105.961 121.977 105.273 122.156 104.492 122.156C103.299 122.156 102.344 121.76 101.625 120.969C100.911 120.172 100.555 119.112 100.555 117.789V117.695ZM102.453 117.859C102.453 118.729 102.633 119.411 102.992 119.906C103.352 120.396 103.852 120.641 104.492 120.641C105.133 120.641 105.63 120.391 105.984 119.891C106.344 119.391 106.523 118.659 106.523 117.695C106.523 116.841 106.339 116.164 105.969 115.664C105.604 115.164 105.107 114.914 104.477 114.914C103.857 114.914 103.365 115.161 103 115.656C102.635 116.146 102.453 116.88 102.453 117.859ZM113.742 122.156C112.539 122.156 111.562 121.779 110.812 121.023C110.068 120.263 109.695 119.253 109.695 117.992V117.758C109.695 116.914 109.857 116.161 110.18 115.5C110.508 114.833 110.966 114.315 111.555 113.945C112.143 113.576 112.799 113.391 113.523 113.391C114.674 113.391 115.562 113.758 116.188 114.492C116.818 115.227 117.133 116.266 117.133 117.609V118.375H111.609C111.667 119.073 111.898 119.625 112.305 120.031C112.716 120.438 113.232 120.641 113.852 120.641C114.721 120.641 115.43 120.289 115.977 119.586L117 120.562C116.661 121.068 116.208 121.461 115.641 121.742C115.078 122.018 114.445 122.156 113.742 122.156ZM113.516 114.914C112.995 114.914 112.573 115.096 112.25 115.461C111.932 115.826 111.729 116.333 111.641 116.984H115.258V116.844C115.216 116.208 115.047 115.729 114.75 115.406C114.453 115.078 114.042 114.914 113.516 114.914ZM25.1406 137H23.2422V130.078H19.9453V137H18.0469V128.547H25.1406V137ZM34.5625 132.859C34.5625 134.167 34.2656 135.211 33.6719 135.992C33.0781 136.768 32.2812 137.156 31.2812 137.156C30.3542 137.156 29.612 136.852 29.0547 136.242V140.25H27.1562V128.547H28.9062L28.9844 129.406C29.5417 128.729 30.2995 128.391 31.2578 128.391C32.2891 128.391 33.0964 128.776 33.6797 129.547C34.2682 130.312 34.5625 131.378 34.5625 132.742V132.859ZM32.6719 132.695C32.6719 131.852 32.5026 131.182 32.1641 130.688C31.8307 130.193 31.3516 129.945 30.7266 129.945C29.9505 129.945 29.3932 130.266 29.0547 130.906V134.656C29.3984 135.312 29.9609 135.641 30.7422 135.641C31.3464 135.641 31.8177 135.398 32.1562 134.914C32.5 134.424 32.6719 133.685 32.6719 132.695ZM39.8984 137.156C38.6953 137.156 37.7188 136.779 36.9688 136.023C36.224 135.263 35.8516 134.253 35.8516 132.992V132.758C35.8516 131.914 36.013 131.161 36.3359 130.5C36.6641 129.833 37.1224 129.315 37.7109 128.945C38.2995 128.576 38.9557 128.391 39.6797 128.391C40.8307 128.391 41.7188 128.758 42.3438 129.492C42.974 130.227 43.2891 131.266 43.2891 132.609V133.375H37.7656C37.8229 134.073 38.0547 134.625 38.4609 135.031C38.8724 135.438 39.388 135.641 40.0078 135.641C40.8776 135.641 41.5859 135.289 42.1328 134.586L43.1562 135.562C42.8177 136.068 42.3646 136.461 41.7969 136.742C41.2344 137.018 40.6016 137.156 39.8984 137.156ZM39.6719 129.914C39.151 129.914 38.7292 130.096 38.4062 130.461C38.0885 130.826 37.8854 131.333 37.7969 131.984H41.4141V131.844C41.3724 131.208 41.2031 130.729 40.9062 130.406C40.6094 130.078 40.1979 129.914 39.6719 129.914ZM44.8047 135.484C45.3307 134.896 45.6823 134.339 45.8594 133.812C46.0417 133.281 46.151 132.604 46.1875 131.781L46.2969 128.547H52.1641V135.484H53.3359V139.516H51.4453V137H46.0234V139.516H44.1016L44.1094 135.484H44.8047ZM47.0312 135.484H50.2734V130.18H48.1406L48.0859 131.797C48.013 133.349 47.6615 134.578 47.0312 135.484ZM61.875 128.547V137H59.9766V130.078H57.5859L57.4297 133.023C57.3307 134.44 57.0573 135.458 56.6094 136.078C56.1667 136.693 55.487 137 54.5703 137H53.9844L53.9766 135.422L54.3672 135.383C54.7839 135.326 55.0859 135.073 55.2734 134.625C55.4661 134.172 55.5885 133.349 55.6406 132.156L55.7969 128.547H61.875ZM63.5391 132.695C63.5391 131.867 63.7031 131.122 64.0312 130.461C64.3594 129.794 64.8203 129.284 65.4141 128.93C66.0078 128.57 66.6901 128.391 67.4609 128.391C68.6016 128.391 69.526 128.758 70.2344 129.492C70.9479 130.227 71.3333 131.201 71.3906 132.414L71.3984 132.859C71.3984 133.693 71.237 134.438 70.9141 135.094C70.5964 135.75 70.138 136.258 69.5391 136.617C68.9453 136.977 68.2578 137.156 67.4766 137.156C66.2839 137.156 65.3281 136.76 64.6094 135.969C63.8958 135.172 63.5391 134.112 63.5391 132.789V132.695ZM65.4375 132.859C65.4375 133.729 65.6172 134.411 65.9766 134.906C66.3359 135.396 66.8359 135.641 67.4766 135.641C68.1172 135.641 68.6146 135.391 68.9688 134.891C69.3281 134.391 69.5078 133.659 69.5078 132.695C69.5078 131.841 69.3229 131.164 68.9531 130.664C68.5885 130.164 68.0911 129.914 67.4609 129.914C66.8411 129.914 66.349 130.161 65.9844 130.656C65.6198 131.146 65.4375 131.88 65.4375 132.859ZM80.2734 133.602H79.2656V137H77.3672V133.602H76.3672L74.4219 137H72.0938L74.8984 132.602L72.2422 128.547H74.5625L76.4766 131.867H77.3672V128.547H79.2656V131.867H80.1641L82.0859 128.547H84.4062L81.7578 132.578L84.5781 137H82.2188L80.2734 133.602ZM89.3203 137.156C88.1172 137.156 87.1406 136.779 86.3906 136.023C85.6458 135.263 85.2734 134.253 85.2734 132.992V132.758C85.2734 131.914 85.4349 131.161 85.7578 130.5C86.0859 129.833 86.5443 129.315 87.1328 128.945C87.7214 128.576 88.3776 128.391 89.1016 128.391C90.2526 128.391 91.1406 128.758 91.7656 129.492C92.3958 130.227 92.7109 131.266 92.7109 132.609V133.375H87.1875C87.2448 134.073 87.4766 134.625 87.8828 135.031C88.2943 135.438 88.8099 135.641 89.4297 135.641C90.2995 135.641 91.0078 135.289 91.5547 134.586L92.5781 135.562C92.2396 136.068 91.7865 136.461 91.2188 136.742C90.6562 137.018 90.0234 137.156 89.3203 137.156ZM89.0938 129.914C88.5729 129.914 88.151 130.096 87.8281 130.461C87.5104 130.826 87.3073 131.333 87.2188 131.984H90.8359V131.844C90.7943 131.208 90.625 130.729 90.3281 130.406C90.0312 130.078 89.6198 129.914 89.0938 129.914ZM101.352 137H99.4531V133.586H96.1641V137H94.2656V128.547H96.1641V132.07H99.4531V128.547H101.352V137ZM108.656 128.547H110.547V137H108.656V131.359L105.344 137H103.453V128.547H105.344V134.188L108.656 128.547ZM116.289 137.156C115.086 137.156 114.109 136.779 113.359 136.023C112.615 135.263 112.242 134.253 112.242 132.992V132.758C112.242 131.914 112.404 131.161 112.727 130.5C113.055 129.833 113.513 129.315 114.102 128.945C114.69 128.576 115.346 128.391 116.07 128.391C117.221 128.391 118.109 128.758 118.734 129.492C119.365 130.227 119.68 131.266 119.68 132.609V133.375H114.156C114.214 134.073 114.445 134.625 114.852 135.031C115.263 135.438 115.779 135.641 116.398 135.641C117.268 135.641 117.977 135.289 118.523 134.586L119.547 135.562C119.208 136.068 118.755 136.461 118.188 136.742C117.625 137.018 116.992 137.156 116.289 137.156ZM116.062 129.914C115.542 129.914 115.12 130.096 114.797 130.461C114.479 130.826 114.276 131.333 114.188 131.984H117.805V131.844C117.763 131.208 117.594 130.729 117.297 130.406C117 130.078 116.589 129.914 116.062 129.914Z" fill="white"/>
<path d="M25.4141 39.6875C25.4141 34.875 26.9635 30.9375 30.0625 27.875C33.1615 24.776 37.2266 23.2266 42.2578 23.2266C47.362 23.2266 51.4453 24.776 54.5078 27.875C57.6068 30.9375 59.1562 34.9661 59.1562 39.9609V43.8984C59.1562 48.6745 57.6068 52.5938 54.5078 55.6562C51.4453 58.7188 47.3984 60.25 42.3672 60.25C37.4453 60.25 33.3802 58.7552 30.1719 55.7656C27 52.7396 25.4141 48.6745 25.4141 43.5703V39.6875ZM34.7109 43.8984C34.7109 46.4141 35.4036 48.4557 36.7891 50.0234C38.2109 51.5547 40.0703 52.3203 42.3672 52.3203C44.6276 52.3203 46.4505 51.5547 47.8359 50.0234C49.2214 48.4557 49.9141 46.3411 49.9141 43.6797V39.6875C49.9141 37.1719 49.2031 35.1302 47.7812 33.5625C46.3958 31.9948 44.5547 31.2109 42.2578 31.2109C39.9609 31.2109 38.1198 32.013 36.7344 33.6172C35.3854 35.1849 34.7109 37.263 34.7109 39.8516V43.8984ZM63.6953 84.4766C63.6953 79.5911 65.2812 75.6354 68.4531 72.6094C71.625 69.5833 75.6719 68.0703 80.5938 68.0703C85.5521 68.0703 89.599 69.5833 92.7344 72.6094C95.9062 75.6354 97.4922 79.7188 97.4922 84.8594V88.7422C97.4922 93.4818 95.9609 97.401 92.8984 100.5C89.8724 103.562 85.8073 105.094 80.7031 105.094C75.599 105.094 71.4792 103.581 68.3438 100.555C65.2448 97.4922 63.6953 93.4635 63.6953 88.4688V84.4766ZM72.9922 88.7422C72.9922 91.2214 73.7031 93.263 75.125 94.8672C76.5833 96.4349 78.4427 97.2188 80.7031 97.2188C83.0365 97.2188 84.8594 96.4714 86.1719 94.9766C87.5208 93.4453 88.1953 91.3125 88.1953 88.5781V84.4766C88.1953 81.9245 87.4844 79.8828 86.0625 78.3516C84.6406 76.8203 82.8177 76.0547 80.5938 76.0547C78.3333 76.0547 76.4922 76.8203 75.0703 78.3516C73.6849 79.8828 72.9922 81.9974 72.9922 84.6953V88.7422ZM45.1016 98.0391L38.2656 94.1016L77.1484 31.8672L83.9844 35.8047L45.1016 98.0391Z" fill="white"/>
<defs>
<linearGradient id="paint0_linear" x1="304" y1="153" x2="304" y2="-4" gradientUnits="userSpaceOnUse">
<stop stop-color="#E25D12"/>
<stop offset="1" stop-color="#EC8043"/>
</linearGradient>
</defs>
</svg>
