<svg width="26" height="26" viewBox="0 0 26 26" fill="none" xmlns="http://www.w3.org/2000/svg">
<path d="M23.8676 15.1324L26 13L23.8188 10.8188L24.9845 7.96285L22.1924 6.82324V3.80763H19.1078L17.9125 0.96389L15.1324 2.13239L13 0L10.8188 2.18116L7.96287 1.01552L6.82331 3.80763H3.80764V6.89227L0.963892 8.08748L2.13244 10.8676L0 13L2.18121 15.1812L1.01552 18.0371L3.80764 19.1767V22.1924H6.89229L8.0875 25.0361L10.8676 23.8676L13 26L15.1812 23.8188L18.0371 24.9844L19.1767 22.1924H22.1924V19.1077L25.0361 17.9125L23.8676 15.1324Z" fill="#27A2DB"/>
<path d="M13 21.5695C17.7328 21.5695 21.5694 17.7329 21.5694 13.0001C21.5694 8.26733 17.7328 4.43066 13 4.43066C8.26721 4.43066 4.43054 8.26733 4.43054 13.0001C4.43054 17.7329 8.26721 21.5695 13 21.5695Z" fill="#2D93BA"/>
<path d="M12.2619 9.25092C12.6453 9.66558 12.8371 10.1677 12.8371 10.7563C12.8371 11.3449 12.6432 11.849 12.2552 12.2683C11.8669 12.6875 11.3853 12.897 10.8101 12.897C10.2345 12.897 9.75499 12.6897 9.37165 12.275C8.98788 11.8603 8.79602 11.3582 8.79602 10.7696C8.79602 10.1811 8.99042 9.6769 9.37831 9.25764C9.76626 8.83838 10.2478 8.62891 10.8235 8.62891C11.3987 8.62891 11.8782 8.83626 12.2619 9.25092ZM17.7076 8.85631L10.8569 18.2093H9.13086L15.9816 8.85631H17.7076ZM11.3652 11.459C11.5078 11.2759 11.5793 11.0506 11.5793 10.783C11.5793 10.5155 11.5036 10.2902 11.3519 10.1075C11.2001 9.92483 11.0149 9.83284 10.7967 9.83284C10.5781 9.83284 10.3971 9.92483 10.2545 10.1075C10.1119 10.2901 10.0405 10.5155 10.0405 10.783C10.0405 11.0506 10.1161 11.2759 10.2679 11.459C10.4196 11.6417 10.6048 11.7332 10.8235 11.7332C11.0417 11.7332 11.2223 11.6417 11.3652 11.459ZM17.5739 14.6703C17.9572 15.085 18.1495 15.5866 18.1495 16.1756C18.1495 16.7642 17.9551 17.2684 17.5672 17.6876C17.1793 18.1069 16.6977 18.3164 16.1221 18.3164C15.5469 18.3164 15.0673 18.109 14.6836 17.6943C14.3003 17.2793 14.1084 16.7776 14.1084 16.189C14.1084 15.6 14.3024 15.0963 14.6903 14.677C15.0787 14.2577 15.5603 14.0478 16.1355 14.0478C16.711 14.0478 17.1901 14.2552 17.5739 14.6703ZM16.7044 16.9046C16.8469 16.722 16.9184 16.4967 16.9184 16.2291C16.9184 15.9615 16.8423 15.7363 16.691 15.5531C16.5392 15.3705 16.354 15.2789 16.1354 15.2789C15.9168 15.2789 15.7362 15.3705 15.5936 15.5531C15.4506 15.7362 15.3796 15.9615 15.3796 16.2291C15.3796 16.4967 15.4552 16.7219 15.607 16.9046C15.7583 17.0877 15.9435 17.1789 16.1622 17.1789C16.3808 17.1789 16.5614 17.0878 16.7044 16.9046Z" fill="#1C75A1"/>
<path d="M11.7892 8.77924C12.1725 9.1939 12.3644 9.696 12.3644 10.2846C12.3644 10.8732 12.1704 11.3773 11.7824 11.7966C11.3941 12.2159 10.9125 12.4253 10.3373 12.4253C9.76167 12.4253 9.28221 12.218 8.89887 11.8033C8.5151 11.3887 8.32324 10.8866 8.32324 10.298C8.32324 9.70938 8.51764 9.20522 8.90553 8.78596C9.29348 8.3667 9.77506 8.15723 10.3507 8.15723C10.9259 8.15723 11.4054 8.36453 11.7892 8.77924ZM17.2349 8.38463L10.3842 17.7376H8.65813L15.5088 8.38463H17.2349ZM10.8925 10.9873C11.0351 10.8042 11.1065 10.5789 11.1065 10.3113C11.1065 10.0437 11.0309 9.81846 10.8791 9.63575C10.7274 9.4531 10.5422 9.36111 10.324 9.36111C10.1053 9.36111 9.92433 9.4531 9.78177 9.63575C9.63922 9.81841 9.56775 10.0437 9.56775 10.3113C9.56775 10.5789 9.6434 10.8041 9.79516 10.9873C9.94692 11.1699 10.1321 11.2615 10.3507 11.2615C10.5689 11.2615 10.7495 11.1699 10.8925 10.9873ZM17.1011 14.1986C17.4844 14.6133 17.6767 15.1149 17.6767 15.7039C17.6767 16.2925 17.4823 16.7967 17.0944 17.2159C16.7065 17.6352 16.2249 17.8447 15.6493 17.8447C15.0741 17.8447 14.5946 17.6373 14.2109 17.2227C13.8275 16.8076 13.6356 16.3059 13.6356 15.7173C13.6356 15.1283 13.8296 14.6246 14.2176 14.2053C14.6059 13.7861 15.0875 13.5762 15.6627 13.5762C16.2383 13.5761 16.7173 13.7835 17.1011 14.1986ZM16.2316 16.433C16.3741 16.2503 16.4456 16.025 16.4456 15.7574C16.4456 15.4899 16.3695 15.2646 16.2182 15.0814C16.0664 14.8988 15.8812 14.8072 15.6626 14.8072C15.444 14.8072 15.2634 14.8988 15.1208 15.0814C14.9779 15.2645 14.9068 15.4899 14.9068 15.7574C14.9068 16.025 14.9825 16.2503 15.1342 16.433C15.2856 16.616 15.4708 16.7072 15.6894 16.7072C15.9081 16.7072 16.0886 16.616 16.2316 16.433Z" fill="white"/>
</svg>
