<svg width="17" height="24" viewBox="0 0 17 24" fill="none" xmlns="http://www.w3.org/2000/svg">
<path d="M6.86244 17.5692L5.68255 17.9731C5.56216 17.9983 5.46584 18.0236 5.34544 18.0236C4.93609 18.0236 4.5749 17.7964 4.38227 17.4177L3.82844 16.2565L3.34686 16.2061L1.01116 21.4314C0.842608 21.8353 1.15564 22.2644 1.56499 22.1887L3.25054 21.8605C3.46725 21.8101 3.68397 21.911 3.80436 22.1382L4.64714 23.7285C4.83978 24.1072 5.3936 24.0819 5.56216 23.7033L7.89785 18.5032C7.87377 18.4779 7.84969 18.4779 7.82561 18.4527L6.86244 17.5692Z" fill="#EC6D26"/>
<path d="M13.6529 16.2061L13.1713 16.2565L12.6175 17.4177C12.4248 17.7964 12.0637 18.0236 11.6543 18.0236C11.5339 18.0236 11.4376 17.9983 11.3172 17.9731L10.1373 17.5692L9.19822 18.4022C9.17414 18.4275 9.15006 18.4527 9.12598 18.4527L11.4617 23.6528C11.6543 24.0567 12.1841 24.0819 12.3767 23.6781L13.1954 22.0877C13.3158 21.8858 13.5325 21.7848 13.7492 21.8101L15.4348 22.1382C15.8441 22.2139 16.1812 21.7848 15.9886 21.3809L13.6529 16.2061Z" fill="#EC6D26"/>
<path d="M16.9278 9.08756C17.0241 8.98659 17.0241 8.83513 16.9278 8.73416L15.9164 7.49724C15.8442 7.42151 15.8442 7.32054 15.8683 7.21956L16.3499 5.67973C16.398 5.55351 16.3258 5.40205 16.2295 5.35156L14.8569 4.61951C14.7847 4.56902 14.7125 4.49329 14.7125 4.39232L14.5921 2.77676C14.5921 2.65054 14.4717 2.52432 14.3513 2.52432L12.7861 2.39811C12.6898 2.39811 12.6176 2.32238 12.5694 2.24665L11.8711 0.807783C11.8229 0.681567 11.6785 0.631081 11.5581 0.681567L10.0892 1.18643C9.99292 1.21167 9.8966 1.18643 9.82436 1.13595L8.64448 0.0757297C8.54816 -0.0252432 8.40368 -0.0252432 8.30737 0.0757297L7.15156 1.13595C7.07932 1.21167 6.983 1.21167 6.88669 1.18643L5.41785 0.681567C5.29745 0.631081 5.15297 0.70681 5.10482 0.807783L4.40652 2.24665C4.35836 2.32238 4.28612 2.39811 4.1898 2.39811L2.64873 2.52432C2.52833 2.52432 2.40793 2.65054 2.40793 2.77676L2.28754 4.39232C2.28754 4.49329 2.2153 4.56902 2.14306 4.61951L0.770538 5.35156C0.650142 5.40205 0.601983 5.55351 0.650142 5.67973L1.13173 7.21956C1.15581 7.32054 1.13173 7.42151 1.08357 7.49724L0.072238 8.73416C-0.0240793 8.83513 -0.0240793 8.98659 0.072238 9.08756L1.08357 10.3245C1.15581 10.4002 1.15581 10.5012 1.13173 10.6022L0.650142 12.142C0.601983 12.2682 0.674221 12.4197 0.770538 12.4702L2.14306 13.2022C2.2153 13.2527 2.28754 13.3284 2.28754 13.4294L2.40793 15.045C2.40793 15.1712 2.52833 15.2974 2.64873 15.2974L4.1898 15.4236C4.28612 15.4236 4.35836 15.4993 4.40652 15.5751L5.10482 17.0139C5.15297 17.1402 5.29745 17.1906 5.41785 17.1402L6.88669 16.6353C6.983 16.61 7.07932 16.6353 7.15156 16.6858L8.33144 17.746C8.42776 17.847 8.57224 17.847 8.66856 17.746L9.84844 16.6858C9.92068 16.61 10.017 16.61 10.1133 16.6353L11.5822 17.1402C11.7025 17.1906 11.847 17.1149 11.8952 17.0139L12.5935 15.5751C12.6416 15.4993 12.7139 15.4236 12.8102 15.4236L14.3513 15.2974C14.4717 15.2974 14.5921 15.1712 14.5921 15.045L14.7125 13.4294C14.7125 13.3284 14.7847 13.2527 14.8569 13.2022L16.2295 12.4702C16.3499 12.4197 16.398 12.2682 16.3499 12.142L15.8683 10.6022C15.8442 10.5012 15.8683 10.4002 15.9164 10.3245L16.9278 9.08756ZM8.5 14.9187C5.34561 14.9187 2.76912 12.2177 2.76912 8.91086C2.76912 5.604 5.34561 2.90297 8.5 2.90297C11.6544 2.90297 14.2309 5.604 14.2309 8.91086C14.2309 12.2177 11.6544 14.9187 8.5 14.9187Z" fill="#EC6D26"/>
<path d="M8.49983 3.76172C5.80294 3.76172 3.58765 6.05885 3.58765 8.91134C3.58765 11.7638 5.80294 14.061 8.49983 14.061C11.1967 14.061 13.412 11.7386 13.412 8.91134C13.412 6.0841 11.1967 3.76172 8.49983 3.76172ZM11.293 8.07831L8.1868 11.3347C8.09048 11.4357 7.92192 11.4357 7.82561 11.3347L5.70663 9.11328C5.61031 9.01231 5.61031 8.83561 5.70663 8.73463L6.59756 7.80064C6.69388 7.69966 6.86243 7.69966 6.95875 7.80064L8.01824 8.91134L10.065 6.76566C10.1613 6.66469 10.3299 6.66469 10.4262 6.76566L11.3171 7.69966C11.4134 7.80064 11.4134 7.97734 11.293 8.07831Z" fill="#EC6D26"/>
</svg>
