<svg width="26" height="26" viewBox="0 0 26 26" fill="none" xmlns="http://www.w3.org/2000/svg">
<path d="M23.8676 15.1324L26 13L23.8188 10.8188L24.9845 7.96285L22.1924 6.82324V3.80763H19.1078L17.9125 0.96389L15.1324 2.13239L13 0L10.8188 2.18116L7.96287 1.01552L6.82331 3.80763H3.80764V6.89227L0.963892 8.08748L2.13244 10.8676L0 13L2.18121 15.1812L1.01552 18.0371L3.80764 19.1767V22.1924H6.89229L8.0875 25.0361L10.8676 23.8676L13 26L15.1812 23.8188L18.0371 24.9844L19.1767 22.1924H22.1924V19.1077L25.0361 17.9125L23.8676 15.1324Z" fill="#27A2DB"/>
</svg>
