<svg width="24" height="26" viewBox="0 0 24 26" fill="none" xmlns="http://www.w3.org/2000/svg">
<path d="M5.8335 14.2109V15.8865H6.92388C7.22203 15.8865 7.44411 15.8163 7.58558 15.6778C7.72678 15.5344 7.79965 15.3181 7.79965 15.0232C7.79965 14.7251 7.71931 14.5164 7.55889 14.3927C7.39446 14.2728 7.15343 14.2109 6.83579 14.2109H5.8335Z" fill="#3A6597"/>
<path d="M13.3281 14.2109H12.1616V17.9372H13.3054C13.7068 17.9372 14.0205 17.7669 14.2455 17.4261C14.4716 17.0858 14.5826 16.6176 14.5826 16.0251C14.5826 15.414 14.4788 14.9579 14.273 14.6592C14.0664 14.3619 13.7527 14.2109 13.3281 14.2109Z" fill="#3A6597"/>
<path d="M23.308 19.2332V12.8556C23.308 11.5832 22.2793 10.5435 21.0223 10.5435H19.7878V2.15467C19.7878 0.967291 18.8317 0 17.6577 0H7.18823C6.15444 0 4.77525 0.583291 4.04762 1.32618L1.29431 4.14191C0.568279 4.88317 0 6.28361 0 7.32705V23.4991C0 24.6867 0.955584 25.654 2.12978 25.654H17.6575C18.8311 25.654 19.7873 24.6867 19.7873 23.4991V21.5461H21.0218C22.2795 21.5453 23.308 20.5043 23.308 19.2332ZM2.4613 4.55939L4.27717 2.63858C4.44747 2.45765 4.61269 2.36503 4.7555 2.36827C4.98025 2.37421 5.1089 2.60483 5.09983 2.98316L5.06513 4.3944C5.04938 5.02116 4.53342 5.51885 3.91442 5.50319L2.83552 5.47592C2.52589 5.46808 2.31582 5.3652 2.24215 5.18697C2.16955 5.00793 2.24722 4.78596 2.4613 4.55939ZM18.8047 23.4991C18.8047 24.1388 18.2896 24.6594 17.6575 24.6594H2.12978C1.49744 24.6594 0.983344 24.1388 0.983344 23.4991V7.32705C0.983344 7.05593 1.02525 6.61981 1.183 6.52017C1.34102 6.42214 1.64505 6.44159 2.06598 6.44159H4.38928C5.3793 6.44159 6.18887 5.62174 6.18887 4.62042V2.20624C6.18887 1.73124 6.33275 1.39585 6.48596 1.2133C6.63891 1.0321 6.97576 0.994565 7.18797 0.994565H17.6575C18.2896 0.994565 18.8047 1.51548 18.8047 2.15467V10.5438H5.46952C4.21284 10.5438 3.18439 11.5835 3.18439 12.8559V19.2332C3.18439 20.5043 4.21284 21.5456 5.46952 21.5456H18.8047V23.4991ZM15.7797 15.9398C15.7797 16.8339 15.5771 17.5538 15.1716 18.099C14.7624 18.6448 14.1883 18.9197 13.4465 18.9197H11.0095V13.231H13.4924C14.2542 13.231 14.8233 13.4786 15.2061 13.982C15.5886 14.4772 15.7797 15.131 15.7797 15.9398ZM8.97421 15.0538C8.97421 15.5415 8.821 15.9671 8.51137 16.327C8.20147 16.6867 7.75785 16.8687 7.18023 16.8687H5.8336V18.92H4.65941V13.231H7.22614C7.76185 13.231 8.18626 13.3936 8.49989 13.7187C8.81726 14.0438 8.97421 14.4883 8.97421 15.0538ZM19.0471 16.5279V18.9197H17.8729V13.231H21.8741V14.2374H19.0471V15.5182H21.5217V16.5279H19.0471Z" fill="#3A6597"/>
</svg>
