<svg width="17" height="17" viewBox="0 0 17 17" fill="none" xmlns="http://www.w3.org/2000/svg">
<path d="M8.5 0C3.81512 0 0 3.81512 0 8.5C0 13.1849 3.81512 17 8.5 17C13.1849 17 17 13.1849 17 8.5C17 3.79535 13.1849 0 8.5 0ZM13.1058 6.10814L7.53139 11.7221C7.41279 11.8209 7.25465 11.8802 7.09651 11.8802C7.05698 11.8802 7.01744 11.8802 6.97791 11.8605C6.81977 11.8209 6.70116 11.7419 6.60233 11.6233L3.89419 8.91512C3.67674 8.67791 3.67674 8.30233 3.91395 8.08488C4.15116 7.86744 4.48721 7.86744 4.72442 8.08488L7.09651 10.457L12.2756 5.27791C12.5128 5.06047 12.8884 5.06046 13.1058 5.29767C13.3233 5.53488 13.3233 5.87093 13.1058 6.10814Z" fill="#EC6D26"/>
</svg>
