<svg width="18" height="17" viewBox="0 0 18 17" fill="none" xmlns="http://www.w3.org/2000/svg">
<path d="M4.5 0H13.5V2.42857H4.5V0ZM16.875 3.64286H1.125C0.50616 3.64286 0 4.18919 0 4.85714V10.9286C0 11.5965 0.50616 12.1429 1.125 12.1429H4.5V17H13.5V12.1429H16.875C17.4938 12.1429 18 11.5965 18 10.9286V4.85714C18 4.18919 17.4938 3.64286 16.875 3.64286ZM2.25 7.28571C1.62864 7.28571 1.125 6.7421 1.125 6.07143C1.125 5.40075 1.62864 4.85714 2.25 4.85714C2.87136 4.85714 3.375 5.40075 3.375 6.07143C3.375 6.7421 2.87136 7.28571 2.25 7.28571ZM12.375 15.7857H5.625V9.71429H12.375V15.7857Z" fill="#EC6D26"/>
</svg>
