<svg width="20" height="20" viewBox="0 0 20 20" fill="none" xmlns="http://www.w3.org/2000/svg">
<path d="M10 0C4.47714 0 0 4.47714 0 10C0 15.5214 4.47714 20 10 20C15.5214 20 20 15.5214 20 10C20 4.47714 15.5214 0 10 0ZM11.4286 17.1429H8.57143V14.2857H11.4286V17.1429ZM12.4843 10.7071C11.8043 11.2971 11.4286 11.6243 11.4286 12.8571H8.57143C8.57143 10.32 9.79857 9.25571 10.6114 8.54857C11.2057 8.03429 11.4286 7.84 11.4286 7.14286C11.4286 6.35429 10.7886 5.71429 10 5.71429C9.21143 5.71429 8.57143 6.35429 8.57143 7.14286H5.71429C5.71429 4.78 7.63714 2.85714 10 2.85714C12.3629 2.85714 14.2857 4.78 14.2857 7.14286C14.2857 9.14286 13.2443 10.0471 12.4843 10.7071Z" fill="#EC6D26"/>
</svg>
