<svg width="230" height="64" viewBox="0 0 230 64" fill="none" xmlns="http://www.w3.org/2000/svg">
<path d="M66.476 19.276C69.581 19.276 71.421 18.31 73.077 16.539L70.823 14.124C69.558 15.274 68.431 16.01 66.591 16.01C63.831 16.01 61.922 13.71 61.922 10.95C61.922 8.144 63.877 5.89 66.591 5.89C68.431 5.89 69.489 6.557 70.731 7.684L72.847 5.246C71.352 3.774 69.65 2.624 66.614 2.624C61.669 2.624 58.219 6.373 58.219 10.95C58.219 15.619 61.738 19.276 66.476 19.276ZM75.9125 19H79.4545V14.078L81.3175 12.146L86.3085 19H90.5635L83.7095 9.731L90.2645 2.9H85.9865L79.4545 9.938V2.9H75.9125V19ZM94.8523 2.9V6.235C94.8523 14.906 93.7713 16.125 91.8623 16.125C91.6323 16.125 91.4713 16.102 91.3103 16.079L91.0803 19C91.5173 19.115 92.3683 19.207 92.9433 19.207C96.6233 19.207 98.1643 16.792 98.1643 7.316V6.097H102.81V19H106.352V2.9H94.8523ZM108.83 19H112.441L113.913 15.389H120.721L122.193 19H125.896L118.996 2.785H115.73L108.83 19ZM115.178 12.261L117.317 7.04L119.456 12.261H115.178ZM126.679 22.358H129.876L130.106 19H140.18V22.358H143.147L143.607 15.803H141.675V2.9H129.968V4.786C129.968 10.283 129.393 13.02 128.197 15.803H126.679V22.358ZM138.133 6.097V15.803H131.923C132.843 13.572 133.372 11.134 133.372 7.73V6.097H138.133ZM58.953 37H59.982L67.248 27.655V37H68.277V26.29H67.248L59.982 35.635V26.29H58.953V37ZM72.1805 37H73.2095V31.981H80.3285V37H81.3575V26.29H80.3285V31.057H73.2095V26.29H72.1805V37ZM89.9895 37.252C91.9635 37.252 93.2655 36.37 94.3575 35.131L93.6015 34.459C92.6985 35.467 91.5645 36.286 90.0525 36.286C87.5955 36.286 85.6425 34.228 85.6425 31.645C85.6425 29.083 87.5955 27.004 89.9685 27.004C91.5645 27.004 92.6145 27.823 93.5385 28.768L94.2525 28.033C93.3075 26.962 92.0055 26.038 89.9895 26.038C86.9235 26.038 84.5295 28.579 84.5295 31.645C84.5295 34.732 86.9025 37.252 89.9895 37.252ZM99.9496 37H100.979V27.214H104.99V26.29H95.9386V27.214H99.9496V37ZM107.577 40.36H108.606V34.69C109.488 36.034 110.874 37.252 113.016 37.252C115.599 37.252 118.224 35.131 118.224 31.645C118.224 28.117 115.599 26.038 113.016 26.038C110.895 26.038 109.53 27.277 108.606 28.684V26.29H107.577V40.36ZM112.911 36.265C110.685 36.265 108.543 34.417 108.543 31.666C108.543 28.894 110.685 27.025 112.911 27.025C115.158 27.025 117.111 28.831 117.111 31.645C117.111 34.564 115.242 36.265 112.911 36.265ZM122.742 40.423C124.275 40.423 125.367 39.625 126.312 37.378L130.953 26.29H129.819L125.955 35.866L121.503 26.29H120.306L125.451 36.937C124.653 38.806 123.918 39.457 122.805 39.457C122.007 39.457 121.545 39.331 120.978 39.058L120.621 39.961C121.335 40.276 121.923 40.423 122.742 40.423ZM133.786 37H134.773V28.075L139.036 33.997L143.341 28.075V37H144.37V26.29H143.446L139.078 32.443L134.71 26.29H133.786V37ZM152.8 37.252C154.858 37.252 156.139 36.412 157.231 35.236L156.517 34.606C155.635 35.551 154.501 36.286 152.842 36.286C150.742 36.286 148.831 34.732 148.642 32.065H157.525C157.546 31.897 157.546 31.834 157.546 31.645C157.546 28.474 155.635 26.038 152.632 26.038C149.734 26.038 147.55 28.516 147.55 31.624C147.55 35.005 149.986 37.252 152.8 37.252ZM148.642 31.141C148.831 28.768 150.469 26.983 152.59 26.983C155.047 26.983 156.286 28.978 156.433 31.141H148.642ZM160.549 37H161.578V31.981H168.697V37H169.726V26.29H168.697V31.057H161.578V26.29H160.549V37ZM176.321 37H177.35V27.214H181.361V26.29H172.31V27.214H176.321V37ZM188.694 37.252C191.886 37.252 194.217 34.648 194.217 31.645C194.217 28.6 191.907 26.038 188.736 26.038C185.544 26.038 183.213 28.642 183.213 31.645C183.213 34.69 185.523 37.252 188.694 37.252ZM188.736 36.286C186.258 36.286 184.326 34.228 184.326 31.645C184.326 29.083 186.279 27.004 188.694 27.004C191.109 27.004 193.104 29.062 193.104 31.645C193.104 34.207 191.109 36.286 188.736 36.286ZM197.381 37H202.505C204.815 37 206.348 35.866 206.348 34.081C206.348 32.569 205.214 31.75 203.933 31.414C204.794 31.057 205.739 30.406 205.739 28.957C205.739 27.319 204.353 26.29 202.274 26.29H197.381V37ZM198.41 36.076V31.939H202.127C204.185 31.939 205.277 32.695 205.277 33.934C205.277 35.257 204.164 36.076 202.379 36.076H198.41ZM198.41 31.078V27.214H202.19C203.807 27.214 204.689 27.949 204.689 29.02C204.689 30.364 203.618 31.078 202.127 31.078H198.41Z" fill="black"/>
<path d="M41.0493 4.90039H0.950806V7.38946H41.0493V4.90039Z" fill="#4A575E"/>
<path d="M41.0493 4.90039H36.9297V7.38946H41.0493V4.90039Z" fill="#3A4449"/>
<path d="M12.3564 16.6436H8.54773V34.1388H12.3564V16.6436Z" fill="#CCCCCC"/>
<path d="M20.1068 16.9219H22.304V31.7219C22.304 31.8928 22.1629 32.0313 21.9889 32.0313H20.4221C20.248 32.0313 20.1069 31.8928 20.1069 31.7219L20.1068 16.9219Z" fill="#E6E6E6"/>
<path d="M32.0301 9.57422H27.7159V13.8099H32.0301V9.57422Z" fill="#CCCCCC"/>
<path d="M27.4927 14.1112H23.3443C23.0358 14.1112 22.7856 13.8658 22.7856 13.563V9.81877C22.7856 9.51598 23.0358 9.27051 23.3443 9.27051H27.4927C27.6161 9.27051 27.7161 9.36873 27.7161 9.48981V13.8919C27.7161 14.0131 27.6161 14.1112 27.4927 14.1112Z" fill="#4A575E"/>
<path d="M36.4022 14.1112H32.2538C32.1304 14.1112 32.0304 14.013 32.0304 13.8919V9.48981C32.0304 9.36865 32.1305 9.27051 32.2538 9.27051H36.4022C36.7107 9.27051 36.9608 9.51598 36.9608 9.81877V13.563C36.9608 13.8658 36.7107 14.1112 36.4022 14.1112Z" fill="#4A575E"/>
<path d="M36.4024 9.27051H33.8672C34.1757 9.27051 34.4257 9.51606 34.4257 9.81893V13.5629C34.4257 13.8658 34.1756 14.1112 33.8672 14.1112H36.4024C36.7109 14.1112 36.9609 13.8658 36.9609 13.5629V9.81893C36.9609 9.51606 36.7108 9.27051 36.4024 9.27051Z" fill="#3A4449"/>
<path d="M31.0609 34.3792H28.6859C28.4908 34.3792 28.3326 34.224 28.3326 34.0325V11.1494H31.4142V34.0325C31.4141 34.224 31.256 34.3792 31.0609 34.3792Z" fill="#DF8E59"/>
<path d="M40.5631 20.332H1.43665V38.0873H40.5631V20.332Z" fill="#FFA857"/>
<path d="M40.5637 20.332H36.9297V38.0873H40.5637V20.332Z" fill="#FB8B4C"/>
<path d="M23.1971 26.8865H18.8029C18.6162 26.8865 18.4648 26.7379 18.4648 26.5547V24.7292C18.4648 24.546 18.6162 24.3975 18.8029 24.3975H23.1971C23.3838 24.3975 23.5352 24.546 23.5352 24.7292V26.5547C23.5352 26.7379 23.3838 26.8865 23.1971 26.8865Z" fill="#FFBF64"/>
<path d="M18.3152 11.0495V1.3746C18.3152 1.1677 18.4877 1 18.7006 1H23.7101C23.9229 1 24.0955 1.1677 24.0955 1.3746V11.0495C24.0955 11.5762 24.0227 12.1006 23.8789 12.6084L23.6699 13.3463C23.5261 13.8541 23.4533 14.3784 23.4533 14.9051V15.9845H18.9574V14.9051C18.9574 14.3785 18.8846 13.8541 18.7408 13.3463L18.5318 12.6084C18.388 12.1006 18.3152 11.5762 18.3152 11.0495Z" fill="#FF7357"/>
<path d="M23.71 1H21.0481C21.2609 1 21.4335 1.1677 21.4335 1.3746V11.0495C21.4335 11.5762 21.3606 12.1006 21.2168 12.6084L21.0079 13.3463C20.8641 13.8541 20.7913 14.3785 20.7913 14.9051V15.9845H23.4532V14.9051C23.4532 14.3785 23.5261 13.8541 23.6698 13.3463L23.8788 12.6084C24.0226 12.1006 24.0954 11.5762 24.0954 11.0495V1.3746C24.0953 1.1677 23.9228 1 23.71 1Z" fill="#FB624C"/>
<path d="M15.553 13.2482C15.553 16.0673 13.2024 18.3452 10.3293 18.2787C7.59314 18.2153 5.37444 15.9918 5.35114 13.2921C5.33449 11.369 6.41172 9.69254 8.00633 8.83174C8.18877 8.73328 8.41156 8.86089 8.41156 9.06602V12.1187C8.83657 12.5379 9.07479 12.773 9.49979 13.1922H11.4041C11.8292 12.773 12.0674 12.5379 12.4924 12.1187V9.06586C12.4924 8.86056 12.7154 8.73336 12.898 8.8319C14.4802 9.68626 15.553 11.3438 15.553 13.2482Z" fill="#E6E6E6"/>
<path d="M12.8979 8.83184C12.7153 8.7333 12.4923 8.8605 12.4923 9.0658V11.023C12.8283 11.6939 13.0177 12.449 13.0177 13.248C13.0177 15.594 11.3894 17.5638 9.18726 18.121C9.5541 18.2143 9.93604 18.2693 10.3292 18.2784C13.2024 18.345 15.5529 16.0671 15.5529 13.248C15.5529 11.3436 14.4801 9.68611 12.8979 8.83184Z" fill="#CCCCCC"/>
<path d="M18.4057 15.8428H24.0051C24.2315 15.8428 24.4166 16.0246 24.4166 16.2467V17.596C24.4166 17.8182 24.2314 17.9999 24.0051 17.9999H18.4057C18.1793 17.9999 17.9941 17.8181 17.9941 17.596V16.2467C17.9941 16.0245 18.1793 15.8428 18.4057 15.8428Z" fill="#51E3F0"/>
<path d="M2.19713 39H0.338051C0.151348 39 0 38.8515 0 38.6682V3.82103C0 3.6378 0.151348 3.48926 0.338051 3.48926H2.19704C2.38375 3.48926 2.53509 3.6378 2.53509 3.82103V38.6682C2.53518 38.8515 2.38383 39 2.19713 39Z" fill="#FFBF64"/>
<path d="M41.6619 39H39.8029C39.6162 39 39.4648 38.8515 39.4648 38.6682V3.82103C39.4648 3.6378 39.6162 3.48926 39.8029 3.48926H41.6619C41.8486 3.48926 41.9999 3.6378 41.9999 3.82103V38.6682C41.9999 38.8515 41.8486 39 41.6619 39Z" fill="#FFBF64"/>
<path d="M7.43066 51.0469H8.74316V61H7.43066V53.3301L2.5293 61H1.20996V51.0469H2.5293V58.7168L7.43066 51.0469ZM16.8405 61H15.5758V57.8418H12.1784V61H10.9069V53.6035H12.1784V56.8096H15.5758V53.6035H16.8405V61ZM21.7044 60.1045C22.1555 60.1045 22.5498 59.9678 22.887 59.6943C23.2242 59.4209 23.4111 59.0791 23.4475 58.6689H24.6438C24.621 59.0928 24.4752 59.4961 24.2063 59.8789C23.9374 60.2617 23.5774 60.5671 23.1262 60.7949C22.6796 61.0228 22.2057 61.1367 21.7044 61.1367C20.6972 61.1367 19.8951 60.8018 19.2981 60.1318C18.7057 59.4574 18.4095 58.5368 18.4095 57.3701V57.1582C18.4095 56.4382 18.5416 55.7979 18.8059 55.2373C19.0703 54.6768 19.4485 54.2415 19.9407 53.9316C20.4374 53.6217 21.0231 53.4668 21.6975 53.4668C22.527 53.4668 23.2151 53.7152 23.762 54.2119C24.3134 54.7087 24.6074 55.3535 24.6438 56.1465H23.4475C23.4111 55.668 23.2288 55.276 22.9007 54.9707C22.5771 54.6608 22.1761 54.5059 21.6975 54.5059C21.055 54.5059 20.5559 54.7383 20.2005 55.2031C19.8496 55.6634 19.6741 56.3311 19.6741 57.2061V57.4453C19.6741 58.2975 19.8496 58.9538 20.2005 59.4141C20.5514 59.8743 21.0527 60.1045 21.7044 60.1045ZM31.4218 54.6289H28.9404V61H27.6757V54.6289H25.2421V53.6035H31.4218V54.6289ZM38.7603 57.3838C38.7603 58.5094 38.5028 59.4163 37.9879 60.1045C37.4729 60.7926 36.7756 61.1367 35.8961 61.1367C34.9983 61.1367 34.2919 60.8519 33.7769 60.2822V63.8438H32.5123V53.6035H33.6675L33.7291 54.4238C34.244 53.7858 34.9595 53.4668 35.8755 53.4668C36.7642 53.4668 37.466 53.8018 37.981 54.4717C38.5005 55.1416 38.7603 56.0736 38.7603 57.2676V57.3838ZM37.4957 57.2402C37.4957 56.4062 37.3179 55.7477 36.9625 55.2646C36.607 54.7816 36.1194 54.54 35.4996 54.54C34.7339 54.54 34.1597 54.8796 33.7769 55.5586V59.0928C34.1552 59.7673 34.7339 60.1045 35.5132 60.1045C36.1194 60.1045 36.6002 59.8652 36.9556 59.3867C37.3157 58.9036 37.4957 58.1882 37.4957 57.2402ZM42.5715 59.1475L44.2941 53.6035H45.6477L42.674 62.1416C42.2137 63.3721 41.4823 63.9873 40.4797 63.9873L40.2404 63.9668L39.7687 63.8779V62.8525L40.1105 62.8799C40.5389 62.8799 40.8716 62.7933 41.1086 62.6201C41.3501 62.4469 41.5484 62.1302 41.7033 61.6699L41.9836 60.918L39.3449 53.6035H40.7258L42.5715 59.1475ZM50.9012 59.3252L53.4168 53.6035H54.9959V61H53.7313V55.6201L51.3387 61H50.4637L48.0233 55.5039V61H46.7586V53.6035H48.3993L50.9012 59.3252ZM59.9624 61.1367C58.9598 61.1367 58.144 60.8086 57.5151 60.1523C56.8862 59.4915 56.5718 58.6097 56.5718 57.5068V57.2744C56.5718 56.5407 56.7108 55.8867 56.9888 55.3125C57.2713 54.7337 57.6632 54.2826 58.1645 53.959C58.6704 53.6309 59.2173 53.4668 59.8052 53.4668C60.7667 53.4668 61.5141 53.7835 62.0473 54.417C62.5805 55.0505 62.8471 55.9574 62.8471 57.1377V57.6641H57.8364C57.8546 58.3932 58.0665 58.9834 58.4721 59.4346C58.8823 59.8812 59.4018 60.1045 60.0307 60.1045C60.4774 60.1045 60.8556 60.0133 61.1655 59.8311C61.4754 59.6488 61.7466 59.4072 61.979 59.1064L62.7514 59.708C62.1317 60.6605 61.202 61.1367 59.9624 61.1367ZM59.8052 54.5059C59.2947 54.5059 58.8664 54.6927 58.52 55.0664C58.1736 55.4355 57.9595 55.9551 57.8774 56.625H61.5825V56.5293C61.546 55.8867 61.3729 55.39 61.063 55.0391C60.7531 54.6836 60.3338 54.5059 59.8052 54.5059ZM70.2198 61H68.9552V57.8418H65.5577V61H64.2863V53.6035H65.5577V56.8096H68.9552V53.6035H70.2198V61ZM77.613 54.6289H75.1316V61H73.867V54.6289H71.4334V53.6035H77.613V54.6289ZM80.0844 56.1533H82.0053C82.8438 56.1624 83.5069 56.3812 83.9945 56.8096C84.4822 57.238 84.726 57.819 84.726 58.5527C84.726 59.291 84.4753 59.8835 83.974 60.3301C83.4727 60.7767 82.7982 61 81.9506 61H78.8197V53.6035H80.0844V56.1533ZM87.3646 61H86.0932V53.6035H87.3646V61ZM80.0844 57.1855V59.9678H81.9643C82.4382 59.9678 82.8051 59.847 83.0648 59.6055C83.3246 59.3594 83.4545 59.0244 83.4545 58.6006C83.4545 58.1904 83.3269 57.8555 83.0717 57.5957C82.821 57.3314 82.4678 57.1947 82.0121 57.1855H80.0844ZM98.8151 61H97.5505V54.6494H94.1462V61H92.8747V53.6035H98.8151V61ZM100.37 57.2334C100.37 56.5088 100.512 55.8571 100.794 55.2783C101.081 54.6995 101.478 54.2529 101.984 53.9385C102.494 53.624 103.075 53.4668 103.727 53.4668C104.734 53.4668 105.548 53.8154 106.167 54.5127C106.792 55.21 107.104 56.1374 107.104 57.2949V57.3838C107.104 58.1038 106.965 58.751 106.687 59.3252C106.413 59.8949 106.019 60.3392 105.504 60.6582C104.994 60.9772 104.406 61.1367 103.741 61.1367C102.738 61.1367 101.924 60.7881 101.3 60.0908C100.68 59.3936 100.37 58.4707 100.37 57.3223V57.2334ZM101.642 57.3838C101.642 58.2041 101.831 58.8626 102.209 59.3594C102.592 59.8561 103.103 60.1045 103.741 60.1045C104.383 60.1045 104.894 59.8538 105.272 59.3525C105.65 58.8467 105.839 58.1403 105.839 57.2334C105.839 56.4222 105.645 55.766 105.258 55.2646C104.875 54.7588 104.365 54.5059 103.727 54.5059C103.103 54.5059 102.599 54.7542 102.216 55.251C101.833 55.7477 101.642 56.4587 101.642 57.3838ZM111.821 59.9678L112.258 59.4277C112.751 58.7897 113.031 57.8327 113.099 56.5566L113.215 53.6035H117.98V59.9678H118.93V63.1738H117.666V61H112.504V63.1738H111.24L111.247 59.9678H111.821ZM113.318 59.9678H116.715V54.7725H114.439L114.364 56.5361C114.286 58.0081 113.938 59.152 113.318 59.9678ZM119.857 57.2334C119.857 56.5088 119.998 55.8571 120.281 55.2783C120.568 54.6995 120.964 54.2529 121.47 53.9385C121.98 53.624 122.561 53.4668 123.213 53.4668C124.22 53.4668 125.034 53.8154 125.654 54.5127C126.278 55.21 126.59 56.1374 126.59 57.2949V57.3838C126.59 58.1038 126.451 58.751 126.173 59.3252C125.9 59.8949 125.505 60.3392 124.99 60.6582C124.48 60.9772 123.892 61.1367 123.227 61.1367C122.224 61.1367 121.411 60.7881 120.786 60.0908C120.167 59.3936 119.857 58.4707 119.857 57.3223V57.2334ZM121.128 57.3838C121.128 58.2041 121.317 58.8626 121.696 59.3594C122.078 59.8561 122.589 60.1045 123.227 60.1045C123.869 60.1045 124.38 59.8538 124.758 59.3525C125.136 58.8467 125.325 58.1403 125.325 57.2334C125.325 56.4222 125.132 55.766 124.744 55.2646C124.362 54.7588 123.851 54.5059 123.213 54.5059C122.589 54.5059 122.085 54.7542 121.702 55.251C121.32 55.7477 121.128 56.4587 121.128 57.3838ZM131.003 60.1045C131.454 60.1045 131.848 59.9678 132.185 59.6943C132.523 59.4209 132.71 59.0791 132.746 58.6689H133.942C133.919 59.0928 133.774 59.4961 133.505 59.8789C133.236 60.2617 132.876 60.5671 132.425 60.7949C131.978 61.0228 131.504 61.1367 131.003 61.1367C129.996 61.1367 129.194 60.8018 128.597 60.1318C128.004 59.4574 127.708 58.5368 127.708 57.3701V57.1582C127.708 56.4382 127.84 55.7979 128.104 55.2373C128.369 54.6768 128.747 54.2415 129.239 53.9316C129.736 53.6217 130.322 53.4668 130.996 53.4668C131.825 53.4668 132.514 53.7152 133.06 54.2119C133.612 54.7087 133.906 55.3535 133.942 56.1465H132.746C132.71 55.668 132.527 55.276 132.199 54.9707C131.876 54.6608 131.474 54.5059 130.996 54.5059C130.353 54.5059 129.854 54.7383 129.499 55.2031C129.148 55.6634 128.973 56.3311 128.973 57.2061V57.4453C128.973 58.2975 129.148 58.9538 129.499 59.4141C129.85 59.8743 130.351 60.1045 131.003 60.1045ZM140.72 54.6289H138.239V61H136.974V54.6289H134.541V53.6035H140.72V54.6289ZM144.313 59.1475L146.035 53.6035H147.389L144.415 62.1416C143.955 63.3721 143.223 63.9873 142.221 63.9873L141.982 63.9668L141.51 63.8779V62.8525L141.852 62.8799C142.28 62.8799 142.613 62.7933 142.85 62.6201C143.091 62.4469 143.29 62.1302 143.444 61.6699L143.725 60.918L141.086 53.6035H142.467L144.313 59.1475ZM154.433 61H153.169V54.6494H149.764V61H148.493V53.6035H154.433V61ZM162.367 61H161.102V57.8418H157.705V61H156.433V53.6035H157.705V56.8096H161.102V53.6035H162.367V61ZM165.645 56.1533H167.566C168.404 56.1624 169.067 56.3812 169.555 56.8096C170.042 57.238 170.286 57.819 170.286 58.5527C170.286 59.291 170.036 59.8835 169.534 60.3301C169.033 60.7767 168.358 61 167.511 61H164.38V53.6035H165.645V56.1533ZM172.925 61H171.653V53.6035H172.925V61ZM165.645 57.1855V59.9678H167.524C167.998 59.9678 168.365 59.847 168.625 59.6055C168.885 59.3594 169.015 59.0244 169.015 58.6006C169.015 58.1904 168.887 57.8555 168.632 57.5957C168.381 57.3314 168.028 57.1947 167.572 57.1855H165.645ZM179.252 59.3252L181.767 53.6035H183.346V61H182.082V55.6201L179.689 61H178.814L176.374 55.5039V61H175.109V53.6035H176.75L179.252 59.3252ZM188.686 53.6035H189.957V59.9678H193.361V53.6035H194.626V59.9678H195.508L195.385 63.1943H194.25V61H188.686V53.6035ZM199.804 61.1367C198.802 61.1367 197.986 60.8086 197.357 60.1523C196.728 59.4915 196.414 58.6097 196.414 57.5068V57.2744C196.414 56.5407 196.553 55.8867 196.831 55.3125C197.113 54.7337 197.505 54.2826 198.006 53.959C198.512 53.6309 199.059 53.4668 199.647 53.4668C200.609 53.4668 201.356 53.7835 201.889 54.417C202.423 55.0505 202.689 55.9574 202.689 57.1377V57.6641H197.678C197.697 58.3932 197.909 58.9834 198.314 59.4346C198.724 59.8812 199.244 60.1045 199.873 60.1045C200.319 60.1045 200.698 60.0133 201.007 59.8311C201.317 59.6488 201.589 59.4072 201.821 59.1064L202.593 59.708C201.974 60.6605 201.044 61.1367 199.804 61.1367ZM199.647 54.5059C199.137 54.5059 198.708 54.6927 198.362 55.0664C198.016 55.4355 197.801 55.9551 197.719 56.625H201.424V56.5293C201.388 55.8867 201.215 55.39 200.905 55.0391C200.595 54.6836 200.176 54.5059 199.647 54.5059ZM210.062 61H208.797V57.8418H205.4V61H204.128V53.6035H205.4V56.8096H208.797V53.6035H210.062V61ZM216.525 61C216.452 60.8542 216.393 60.5944 216.348 60.2207C215.76 60.8314 215.058 61.1367 214.242 61.1367C213.513 61.1367 212.914 60.9316 212.444 60.5215C211.979 60.1068 211.747 59.5827 211.747 58.9492C211.747 58.179 212.039 57.582 212.622 57.1582C213.21 56.7298 214.035 56.5156 215.097 56.5156H216.327V55.9346C216.327 55.4925 216.195 55.1416 215.931 54.8818C215.666 54.6175 215.277 54.4854 214.762 54.4854C214.31 54.4854 213.932 54.5993 213.627 54.8271C213.322 55.055 213.169 55.3307 213.169 55.6543H211.897C211.897 55.2852 212.027 54.9297 212.287 54.5879C212.551 54.2415 212.907 53.9681 213.353 53.7676C213.805 53.5671 214.299 53.4668 214.837 53.4668C215.689 53.4668 216.357 53.681 216.84 54.1094C217.323 54.5332 217.573 55.1188 217.592 55.8662V59.2705C217.592 59.9495 217.678 60.4896 217.851 60.8906V61H216.525ZM214.427 60.0361C214.823 60.0361 215.199 59.9336 215.555 59.7285C215.91 59.5234 216.168 59.2568 216.327 58.9287V57.4111H215.336C213.786 57.4111 213.012 57.8646 213.012 58.7715C213.012 59.168 213.144 59.4779 213.408 59.7012C213.672 59.9245 214.012 60.0361 214.427 60.0361ZM223.693 59.3252L226.209 53.6035H227.788V61H226.523V55.6201L224.13 61H223.255L220.815 55.5039V61H219.55V53.6035H221.191L223.693 59.3252Z" fill="#343434"/>
</svg>
