<svg width="124" height="31" viewBox="0 0 124 31" fill="none" xmlns="http://www.w3.org/2000/svg">
<path d="M37.18 17.18C39.205 17.18 40.405 16.55 41.485 15.395L40.015 13.82C39.19 14.57 38.455 15.05 37.255 15.05C35.455 15.05 34.21 13.55 34.21 11.75C34.21 9.92 35.485 8.45 37.255 8.45C38.455 8.45 39.145 8.885 39.955 9.62L41.335 8.03C40.36 7.07 39.25 6.32 37.27 6.32C34.045 6.32 31.795 8.765 31.795 11.75C31.795 14.795 34.09 17.18 37.18 17.18ZM43.3342 17H45.6442V13.79L46.8592 12.53L50.1142 17H52.8892L48.4192 10.955L52.6942 6.5H49.9042L45.6442 11.09V6.5H43.3342V17ZM55.6863 6.5V8.675C55.6863 14.33 54.9813 15.125 53.7363 15.125C53.5863 15.125 53.4813 15.11 53.3763 15.095L53.2263 17C53.5113 17.075 54.0663 17.135 54.4413 17.135C56.8413 17.135 57.8463 15.56 57.8463 9.38V8.585H60.8763V17H63.1863V6.5H55.6863ZM64.8024 17H67.1574L68.1174 14.645H72.5574L73.5174 17H75.9324L71.4324 6.425H69.3024L64.8024 17ZM68.9424 12.605L70.3374 9.2L71.7324 12.605H68.9424ZM76.443 19.19H78.528L78.678 17H85.248V19.19H87.183L87.483 14.915H86.223V6.5H78.588V7.73C78.588 11.315 78.213 13.1 77.433 14.915H76.443V19.19ZM83.913 8.585V14.915H79.863C80.463 13.46 80.808 11.87 80.808 9.65V8.585H83.913ZM32.209 28H32.846L37.344 22.215V28H37.981V21.37H37.344L32.846 27.155V21.37H32.209V28ZM40.3975 28H41.0345V24.893H45.4415V28H46.0785V21.37H45.4415V24.321H41.0345V21.37H40.3975V28ZM51.4221 28.156C52.6441 28.156 53.4501 27.61 54.1261 26.843L53.6581 26.427C53.0991 27.051 52.3971 27.558 51.4611 27.558C49.9401 27.558 48.7311 26.284 48.7311 24.685C48.7311 23.099 49.9401 21.812 51.4091 21.812C52.3971 21.812 53.0471 22.319 53.6191 22.904L54.0611 22.449C53.4761 21.786 52.6701 21.214 51.4221 21.214C49.5241 21.214 48.0421 22.787 48.0421 24.685C48.0421 26.596 49.5111 28.156 51.4221 28.156ZM57.5878 28H58.2248V21.942H60.7078V21.37H55.1048V21.942H57.5878V28ZM62.3096 30.08H62.9466V26.57C63.4926 27.402 64.3506 28.156 65.6766 28.156C67.2756 28.156 68.9006 26.843 68.9006 24.685C68.9006 22.501 67.2756 21.214 65.6766 21.214C64.3636 21.214 63.5186 21.981 62.9466 22.852V21.37H62.3096V30.08ZM65.6116 27.545C64.2336 27.545 62.9076 26.401 62.9076 24.698C62.9076 22.982 64.2336 21.825 65.6116 21.825C67.0026 21.825 68.2116 22.943 68.2116 24.685C68.2116 26.492 67.0546 27.545 65.6116 27.545ZM71.6976 30.119C72.6466 30.119 73.3226 29.625 73.9076 28.234L76.7806 21.37H76.0786L73.6866 27.298L70.9306 21.37H70.1896L73.3746 27.961C72.8806 29.118 72.4256 29.521 71.7366 29.521C71.2426 29.521 70.9566 29.443 70.6056 29.274L70.3846 29.833C70.8266 30.028 71.1906 30.119 71.6976 30.119ZM78.5342 28H79.1452V22.475L81.7842 26.141L84.4492 22.475V28H85.0862V21.37H84.5142L81.8102 25.179L79.1062 21.37H78.5342V28ZM90.3048 28.156C91.5788 28.156 92.3718 27.636 93.0478 26.908L92.6058 26.518C92.0598 27.103 91.3578 27.558 90.3308 27.558C89.0308 27.558 87.8478 26.596 87.7308 24.945H93.2298C93.2428 24.841 93.2428 24.802 93.2428 24.685C93.2428 22.722 92.0598 21.214 90.2008 21.214C88.4068 21.214 87.0548 22.748 87.0548 24.672C87.0548 26.765 88.5628 28.156 90.3048 28.156ZM87.7308 24.373C87.8478 22.904 88.8618 21.799 90.1748 21.799C91.6958 21.799 92.4628 23.034 92.5538 24.373H87.7308ZM95.1016 28H95.7386V24.893H100.146V28H100.783V21.37H100.146V24.321H95.7386V21.37H95.1016V28ZM104.865 28H105.502V21.942H107.985V21.37H102.382V21.942H104.865V28ZM112.525 28.156C114.501 28.156 115.944 26.544 115.944 24.685C115.944 22.8 114.514 21.214 112.551 21.214C110.575 21.214 109.132 22.826 109.132 24.685C109.132 26.57 110.562 28.156 112.525 28.156ZM112.551 27.558C111.017 27.558 109.821 26.284 109.821 24.685C109.821 23.099 111.03 21.812 112.525 21.812C114.02 21.812 115.255 23.086 115.255 24.685C115.255 26.271 114.02 27.558 112.551 27.558ZM117.902 28H121.074C122.504 28 123.453 27.298 123.453 26.193C123.453 25.257 122.751 24.75 121.958 24.542C122.491 24.321 123.076 23.918 123.076 23.021C123.076 22.007 122.218 21.37 120.931 21.37H117.902V28ZM118.539 27.428V24.867H120.84C122.114 24.867 122.79 25.335 122.79 26.102C122.79 26.921 122.101 27.428 120.996 27.428H118.539ZM118.539 24.334V21.942H120.879C121.88 21.942 122.426 22.397 122.426 23.06C122.426 23.892 121.763 24.334 120.84 24.334H118.539Z" fill="white"/>
<path d="M24.4341 7.36035H0.565979V8.86689H24.4341V7.36035Z" fill="#4A575E"/>
<path d="M24.4341 7.36035H21.9819V8.86689H24.4341V7.36035Z" fill="#3A4449"/>
<path d="M7.35504 14.4678H5.08795V25.057H7.35504V14.4678Z" fill="#CCCCCC"/>
<path d="M11.9683 14.6367H13.2762V23.5946C13.2762 23.698 13.1922 23.7819 13.0886 23.7819H12.156C12.0524 23.7819 11.9684 23.698 11.9684 23.5946L11.9683 14.6367Z" fill="#E6E6E6"/>
<path d="M19.0656 10.1895H16.4976V12.7532H19.0656V10.1895Z" fill="#CCCCCC"/>
<path d="M16.3647 12.9358H13.8954C13.7117 12.9358 13.5629 12.7872 13.5629 12.6039V10.3377C13.5629 10.1544 13.7117 10.0059 13.8954 10.0059H16.3647C16.4381 10.0059 16.4977 10.0653 16.4977 10.1386V12.803C16.4977 12.8764 16.4381 12.9358 16.3647 12.9358Z" fill="#4A575E"/>
<path d="M21.668 12.9338H19.1987C19.1253 12.9338 19.0657 12.8744 19.0657 12.8011V10.1366C19.0657 10.0633 19.1253 10.0039 19.1987 10.0039H21.668C21.8516 10.0039 22.0005 10.1525 22.0005 10.3357V12.602C22.0005 12.7852 21.8516 12.9338 21.668 12.9338Z" fill="#4A575E"/>
<path d="M21.6681 10.0068H20.1591C20.3427 10.0068 20.4915 10.1555 20.4915 10.3388V12.6048C20.4915 12.7882 20.3427 12.9367 20.1591 12.9367H21.6681C21.8517 12.9367 22.0006 12.7882 22.0006 12.6048V10.3388C22.0006 10.1555 21.8517 10.0068 21.6681 10.0068Z" fill="#3A4449"/>
<path d="M18.4887 25.2027H17.0749C16.9588 25.2027 16.8647 25.1087 16.8647 24.9928V11.1426H18.699V24.9928C18.6989 25.1087 18.6048 25.2027 18.4887 25.2027Z" fill="#DF8E59"/>
<path d="M24.1447 16.7012H0.855164V27.4478H24.1447V16.7012Z" fill="#FFA857"/>
<path d="M24.145 16.7012H21.9819V27.4478H24.145V16.7012Z" fill="#FB8B4C"/>
<path d="M13.8078 20.6676H11.1922C11.0811 20.6676 10.991 20.5777 10.991 20.4668V19.3619C10.991 19.251 11.0811 19.1611 11.1922 19.1611H13.8078C13.9189 19.1611 14.009 19.251 14.009 19.3619V20.4668C14.009 20.5777 13.9189 20.6676 13.8078 20.6676Z" fill="#FFBF64"/>
<path d="M10.9019 11.0826V5.22673C10.9019 5.1015 11.0046 5 11.1313 5H14.1132C14.2399 5 14.3426 5.1015 14.3426 5.22673V11.0826C14.3426 11.4014 14.2992 11.7187 14.2136 12.0261L14.0893 12.4727C14.0037 12.7801 13.9603 13.0974 13.9603 13.4163V14.0696H11.2842V13.4163C11.2842 13.0975 11.2408 12.7801 11.1552 12.4727L11.0309 12.0261C10.9453 11.7187 10.9019 11.4014 10.9019 11.0826Z" fill="#FF7357"/>
<path d="M14.1131 5H12.5286C12.6553 5 12.758 5.1015 12.758 5.22673V11.0826C12.758 11.4014 12.7146 11.7187 12.6291 12.0261L12.5047 12.4727C12.4191 12.7801 12.3757 13.0975 12.3757 13.4163V14.0696H13.9602V13.4163C13.9602 13.0975 14.0036 12.7801 14.0892 12.4727L14.2135 12.0261C14.2991 11.7187 14.3425 11.4014 14.3425 11.0826V5.22673C14.3424 5.1015 14.2397 5 14.1131 5Z" fill="#FB624C"/>
<path d="M9.25768 12.4124C9.25768 14.1187 7.85856 15.4974 6.14836 15.4571C4.51969 15.4188 3.19904 14.073 3.18517 12.4389C3.17526 11.275 3.81647 10.2603 4.76564 9.73926C4.87423 9.67967 5.00685 9.7569 5.00685 9.88106V11.7288C5.25983 11.9825 5.40163 12.1248 5.65461 12.3785H6.78815C7.04113 12.1248 7.18293 11.9825 7.4359 11.7288V9.88096C7.4359 9.75671 7.56867 9.67972 7.67736 9.73936C8.61911 10.2565 9.25768 11.2597 9.25768 12.4124Z" fill="#E6E6E6"/>
<path d="M7.67737 9.73932C7.56868 9.67968 7.43591 9.75667 7.43591 9.88093V11.0655C7.63591 11.4716 7.74866 11.9286 7.74866 12.4122C7.74866 13.8322 6.77942 15.0244 5.46863 15.3617C5.68699 15.4182 5.91433 15.4515 6.14836 15.457C7.85862 15.4973 9.25769 14.1186 9.25769 12.4122C9.25769 11.2596 8.61912 10.2564 7.67737 9.73932Z" fill="#CCCCCC"/>
<path d="M10.9558 13.9834H14.2887C14.4235 13.9834 14.5337 14.0934 14.5337 14.2279V15.0446C14.5337 15.1791 14.4235 15.289 14.2887 15.289H10.9558C10.821 15.289 10.7108 15.179 10.7108 15.0446V14.2279C10.7108 14.0934 10.821 13.9834 10.9558 13.9834Z" fill="#51E3F0"/>
<path d="M1.30781 27.9992H0.201221C0.0900879 27.9992 0 27.9093 0 27.7983V6.70667C0 6.59576 0.0900879 6.50586 0.201221 6.50586H1.30776C1.4189 6.50586 1.50898 6.59576 1.50898 6.70667V27.7983C1.50903 27.9093 1.41895 27.9992 1.30781 27.9992Z" fill="#FFBF64"/>
<path d="M24.7987 27.9992H23.6922C23.5811 27.9992 23.491 27.9093 23.491 27.7983V6.70667C23.491 6.59576 23.5811 6.50586 23.6922 6.50586H24.7987C24.9099 6.50586 25 6.59576 25 6.70667V27.7983C25 27.9093 24.9099 27.9992 24.7987 27.9992Z" fill="#FFBF64"/>
</svg>
