<svg width="20" height="22" viewBox="0 0 20 22" fill="none" xmlns="http://www.w3.org/2000/svg">
<path fill-rule="evenodd" clip-rule="evenodd" d="M0.094078 4.33268C0.094078 3.15822 0.77343 2.7178 2.0642 1.39653C2.60768 0.882702 3.28703 0.222067 3.89845 0.295471L7.29521 5.72736C7.22727 6.68161 6.54792 7.19543 5.9365 7.48905C4.44193 9.03053 11.2354 16.8847 12.798 15.4167C13.0697 14.756 13.5452 14.0954 14.4963 14.022L19.2518 18.1326C19.3197 18.7932 18.6404 19.4539 18.0969 20.0411C16.8061 21.289 16.3306 22.023 15.2436 21.9496C9.87675 22.9039 -1.12876 10.0582 0.094078 4.33268ZM10.3523 0.0018553C16.3306 0.368875 20.067 4.6997 19.9991 11.1592C19.9991 12.5539 17.961 12.4071 17.961 11.4529C18.0969 5.94757 15.0398 2.42418 9.94468 2.13057C9.06152 2.05716 9.06152 -0.0715486 10.3523 0.0018553ZM10.0806 6.5348C9.19739 6.5348 9.06152 4.47949 10.2844 4.47949C13.817 4.5529 15.9909 7.12203 15.855 10.939C15.7871 12.2603 13.8849 11.9667 13.9529 11.0124C14.0208 8.14968 12.73 6.68161 10.0806 6.5348Z" fill="#EC6D26"/>
</svg>
