<svg width="17" height="12" viewBox="0 0 17 12" fill="none" xmlns="http://www.w3.org/2000/svg">
<path d="M15.1786 12H2C1.51693 12 0.875068 11.8104 0.533484 11.4728C0.1919 11.1352 0 10.4774 0 10V2C0 1.52261 0.1919 0.864773 0.533484 0.527208C0.875068 0.189642 1.51693 0 2 0H15C15.4831 0 16.1249 0.189642 16.4665 0.527208C16.8081 0.864773 17 1.52261 17 2V10.2C17 10.6774 16.8081 11.1352 16.4665 11.4728C16.1249 11.8104 15.6616 12 15.1786 12ZM1.82143 1C1.6604 1 1.50598 1.26321 1.39211 1.37574C1.27825 1.48826 1 1.84087 1 2V10C1 10.1591 1.38614 10.8875 1.5 11C1.61386 11.1125 2.17857 11.0027 2 11H15.1786C15.3396 11 15.494 10.7368 15.6079 10.6243C15.7217 10.5117 16 10.1591 16 10V2C16 1.84087 15.7217 1.48826 15.6079 1.37574C15.494 1.26321 15.3396 1.2 15.1786 1.2L1.82143 1Z" fill="#818183"/>
<path d="M8.5 7.20026C8.38098 7.19934 8.26485 7.16387 8.16607 7.09826L2.70178 3.49826C2.57775 3.40607 2.49416 3.27044 2.46817 3.11924C2.44217 2.96803 2.47576 2.81273 2.56203 2.68524C2.64829 2.55774 2.78069 2.46774 2.93202 2.43371C3.08334 2.39968 3.24211 2.42421 3.37571 2.50226L8.84 6.10226C8.94809 6.17404 9.02996 6.27827 9.07352 6.39956C9.11709 6.52085 9.12003 6.65276 9.08192 6.77583C9.04382 6.8989 8.96667 7.00659 8.86189 7.08302C8.7571 7.15944 8.63023 7.20055 8.5 7.20026Z" fill="#818183"/>
<path d="M8.5 7.20026C8.36976 7.20055 8.2429 7.15944 8.13811 7.08302C8.03333 7.00659 7.95619 6.8989 7.91808 6.77583C7.87997 6.65276 7.88292 6.52085 7.92648 6.39956C7.97004 6.27827 8.05191 6.17404 8.16001 6.10226L13.6243 2.50226C13.7579 2.42421 13.9167 2.39968 14.068 2.43371C14.2193 2.46774 14.3517 2.55774 14.438 2.68524C14.5242 2.81273 14.5578 2.96803 14.5318 3.11924C14.5058 3.27044 14.4223 3.40607 14.2982 3.49826L8.83394 7.09826C8.73515 7.16387 8.61902 7.19934 8.5 7.20026Z" fill="#818183"/>
</svg>
