<svg width="13" height="22" viewBox="0 0 13 22" fill="none" xmlns="http://www.w3.org/2000/svg">
<path d="M10.2917 0H2.70833C1.99027 0.000758046 1.30183 0.288338 0.794084 0.799637C0.286336 1.31094 0.000752782 2.00419 0 2.72727V19.2727C0.000752782 19.9958 0.286336 20.6891 0.794084 21.2004C1.30183 21.7117 1.99027 21.9992 2.70833 22H10.2917C11.0097 21.9992 11.6982 21.7117 12.2059 21.2004C12.7137 20.6891 12.9992 19.9958 13 19.2727V2.72727C12.9992 2.00419 12.7137 1.31094 12.2059 0.799637C11.6982 0.288338 11.0097 0.000758046 10.2917 0ZM11.9167 19.2727C11.9162 19.7066 11.7448 20.1225 11.4402 20.4293C11.1355 20.7361 10.7225 20.9086 10.2917 20.9091H2.70833C2.2775 20.9086 1.86445 20.7361 1.55981 20.4293C1.25516 20.1225 1.08381 19.7066 1.08333 19.2727V2.72727C1.08381 2.29343 1.25516 1.87749 1.55981 1.57072C1.86445 1.26394 2.2775 1.09139 2.70833 1.09091H10.2917C10.7225 1.09139 11.1355 1.26394 11.4402 1.57072C11.7448 1.87749 11.9162 2.29343 11.9167 2.72727V19.2727Z" fill="#818183"/>
<path d="M6.5 17.6364C6.28574 17.6364 6.07629 17.7003 5.89813 17.8202C5.71998 17.9401 5.58113 18.1105 5.49913 18.3098C5.41714 18.5091 5.39568 18.7285 5.43748 18.9401C5.47928 19.1517 5.58246 19.3461 5.73397 19.4987C5.88548 19.6512 6.07851 19.7551 6.28865 19.7972C6.4988 19.8393 6.71662 19.8177 6.91457 19.7351C7.11253 19.6526 7.28172 19.5127 7.40076 19.3333C7.5198 19.1539 7.58333 18.943 7.58333 18.7273C7.58305 18.438 7.46882 18.1607 7.26572 17.9562C7.06261 17.7517 6.78723 17.6367 6.5 17.6364Z" fill="#818183"/>
<path d="M8.125 2.18182H4.875C4.73134 2.18182 4.59357 2.23929 4.49198 2.34158C4.3904 2.44387 4.33333 2.58261 4.33333 2.72727C4.33333 2.87194 4.3904 3.01067 4.49198 3.11297C4.59357 3.21526 4.73134 3.27273 4.875 3.27273H8.125C8.26866 3.27273 8.40643 3.21526 8.50802 3.11297C8.6096 3.01067 8.66667 2.87194 8.66667 2.72727C8.66667 2.58261 8.6096 2.44387 8.50802 2.34158C8.40643 2.23929 8.26866 2.18182 8.125 2.18182Z" fill="#818183"/>
</svg>
