<svg width="19" height="19" viewBox="0 0 19 19" fill="none" xmlns="http://www.w3.org/2000/svg">
<path d="M14.2869 8.99045C14.3545 9.10764 14.464 9.19146 14.5943 9.2263C14.6369 9.23791 14.6811 9.24382 14.7254 9.24382C14.954 9.24382 15.1548 9.08969 15.2139 8.86862C15.4022 8.16637 15.4026 7.42316 15.2152 6.71964C15.0279 6.01993 14.6564 5.377 14.1402 4.86013C13.6249 4.34432 12.9816 3.97208 12.2797 3.78395C11.5807 3.59709 10.8317 3.59752 10.131 3.78522C9.86162 3.85743 9.70097 4.1355 9.77317 4.4047C9.84347 4.66821 10.1238 4.83458 10.393 4.7628C10.9225 4.62049 11.4899 4.62007 12.0183 4.76153C12.5486 4.90363 13.0344 5.18508 13.4239 5.57569C13.8149 5.96608 14.0961 6.45192 14.2375 6.98061C14.3794 7.51268 14.379 8.07495 14.2367 8.60639C14.2016 8.73709 14.2192 8.87327 14.2869 8.99045Z" fill="#818183"/>
<path d="M18.7371 5.77711C18.3842 4.45812 17.6852 3.24976 16.7166 2.28274C15.7476 1.31276 14.5394 0.614102 13.2221 0.262132C11.9086 -0.0883605 10.5007 -0.0870938 9.18818 0.264243C9.0575 0.29887 8.94836 0.382693 8.8808 0.499664C8.81304 0.616636 8.79509 0.753032 8.83014 0.883306C8.90022 1.14681 9.1829 1.31192 9.44953 1.24161C10.5931 0.935668 11.8193 0.935035 12.9614 1.23971C14.1075 1.54607 15.1582 2.15416 16.0011 2.9983C16.8447 3.84053 17.453 4.8918 17.7595 6.03787C18.065 7.18583 18.0641 8.40052 17.758 9.55145C17.6864 9.82107 17.8475 10.0991 18.1173 10.1707C18.1598 10.1821 18.2035 10.1876 18.2472 10.1876C18.4756 10.1876 18.6768 10.0333 18.7355 9.81221C19.0876 8.49089 19.0882 7.09568 18.7371 5.77711Z" fill="#818183"/>
<path d="M16.6879 12.3244C15.9885 11.748 15.3653 11.4794 14.7284 11.4794C14.156 11.4794 13.5634 11.7062 12.9179 12.1728L12.8733 12.2047C12.8729 12.2055 12.8721 12.2059 12.8716 12.2064L12.8699 12.2074C12.8672 12.2097 12.8642 12.2118 12.8613 12.2142L12.8607 12.2146C12.6286 12.3894 12.0084 12.9591 11.9375 13.0245C11.8841 13.0737 11.7382 13.1288 11.614 13.1288C11.5881 13.1288 11.5716 13.1257 11.5678 13.125C11.5566 13.1216 10.4316 12.7861 8.30721 10.694C6.21827 8.57158 5.87944 7.44536 5.87775 7.44051C5.8541 7.3419 5.9073 7.13689 5.97612 7.06214C6.08463 6.94433 6.6331 6.34596 6.79481 6.12679C7.79548 4.76853 7.76022 3.62732 6.67638 2.31065C5.94805 1.42597 5.04301 0.513847 3.85045 0.456417C2.94542 0.416089 2.02814 0.865818 1.0564 1.83812C0.135745 2.75827 -0.223143 4.22125 0.139123 5.54911C0.21259 5.97139 0.974066 9.7943 5.09009 13.9111C9.20527 18.0269 13.0287 18.7889 13.4353 18.8585C13.7805 18.9521 14.1383 19 14.4982 19C15.5204 19 16.4909 18.6157 17.1614 17.9454C18.134 16.972 18.586 16.0578 18.5421 15.1505C18.4846 13.958 17.5724 13.0528 16.6879 12.3244ZM16.4459 17.2296C15.9627 17.712 15.2542 17.9891 14.5029 17.9891C14.2268 17.9891 13.9527 17.9513 13.6878 17.8784C13.6703 17.874 13.6523 17.8698 13.6335 17.8664C13.5955 17.8603 9.79638 17.1869 5.80534 13.1951C1.8221 9.21134 1.14084 5.40406 1.13451 5.36563C1.13113 5.34684 1.12733 5.32826 1.12269 5.31264C0.844655 4.30845 1.09947 3.22573 1.77164 2.5543C2.49343 1.83221 3.15273 1.46609 3.73138 1.46609C3.75482 1.46609 3.77846 1.46651 3.80211 1.46778C4.6001 1.50621 5.30796 2.24097 5.89506 2.95441C6.68651 3.91552 6.70699 4.54092 5.97929 5.528C5.87437 5.67052 5.43019 6.16163 5.23154 6.37699C4.9326 6.70152 4.79053 7.24858 4.89376 7.67719C4.906 7.7285 5.21992 8.95628 7.42181 11.236L7.42223 11.2355C7.48134 11.2982 7.70048 11.5176 7.76486 11.578L7.76444 11.5784C10.0444 13.7808 11.2714 14.0946 11.3223 14.107C11.4133 14.129 11.5114 14.14 11.6153 14.14C11.9886 14.14 12.3747 13.9977 12.6225 13.7692C12.8794 13.533 13.3373 13.1206 13.4714 13.0205C13.9696 12.6533 14.357 12.4893 14.7273 12.4893C15.121 12.4893 15.5274 12.6791 16.0444 13.105C16.758 13.6924 17.4922 14.4009 17.5313 15.1986C17.5606 15.8048 17.2055 16.4695 16.4459 17.2296Z" fill="#818183"/>
</svg>
