<svg width="47" height="37" viewBox="0 0 47 37" fill="none" xmlns="http://www.w3.org/2000/svg">
<path d="M0.0400391 24.0082C0.0400391 32.1982 5.33204 36.8602 11.254 36.8602C16.672 36.8602 21.208 32.3242 21.208 26.9062C21.208 21.4882 17.428 17.8342 12.64 17.8342C11.632 17.8342 10.498 17.9602 10.12 18.2122C11.254 13.6762 15.916 8.38424 19.948 6.24224L13.018 0.698242C5.20604 6.11625 0.0400391 14.5582 0.0400391 24.0082ZM25.744 24.0082C25.744 32.1982 30.91 36.8602 36.832 36.8602C42.376 36.8602 46.786 32.3242 46.786 26.9062C46.786 21.4882 43.006 17.8342 38.344 17.8342C37.336 17.8342 36.202 17.9602 35.824 18.2122C36.832 13.6762 41.62 8.38424 45.652 6.24224L38.596 0.698242C30.784 6.11625 25.744 14.5582 25.744 24.0082Z" fill="#D9D9D9"/>
</svg>
