<svg width="47" height="37" viewBox="0 0 47 37" fill="none" xmlns="http://www.w3.org/2000/svg">
<path d="M0 24.0082C0 32.1982 5.292 36.8602 11.214 36.8602C16.632 36.8602 21.168 32.3242 21.168 26.9062C21.168 21.4882 17.388 17.8342 12.6 17.8342C11.592 17.8342 10.458 17.9602 10.08 18.2122C11.214 13.6762 15.876 8.38424 19.908 6.24224L12.978 0.698242C5.166 6.11625 0 14.5582 0 24.0082ZM25.704 24.0082C25.704 32.1982 30.87 36.8602 36.792 36.8602C42.336 36.8602 46.746 32.3242 46.746 26.9062C46.746 21.4882 42.966 17.8342 38.304 17.8342C37.296 17.8342 36.162 17.9602 35.784 18.2122C36.792 13.6762 41.58 8.38424 45.612 6.24224L38.556 0.698242C30.744 6.11625 25.704 14.5582 25.704 24.0082Z" fill="#D9D9D9"/>
</svg>
