<svg width="17" height="15" viewBox="0 0 17 15" fill="none" xmlns="http://www.w3.org/2000/svg">
<path d="M0 2.76857V8.40965C0 9.93865 1.17487 11.1791 2.62564 11.1791H8.99792L15.2823 15L14.3757 11.1791C15.8251 11.1791 17 9.93865 17 8.40965V2.76857C17 1.23985 15.8251 0 14.3757 0H2.62564C1.17487 0 0 1.23985 0 2.76857ZM11.2086 5.44583C11.2086 4.74062 11.7495 4.17065 12.417 4.17065H12.5761C13.243 4.17065 13.7845 4.74062 13.7845 5.44583C13.7845 6.15046 13.243 6.72129 12.5761 6.72129H12.417C11.7495 6.72129 11.2086 6.15046 11.2086 5.44583ZM7.17847 5.44583C7.17847 4.74062 7.72074 4.17065 8.38763 4.17065H8.54571C9.21423 4.17065 9.75486 4.74062 9.75486 5.44583C9.75486 6.15046 9.21396 6.72129 8.54571 6.72129H8.38763C7.72074 6.72129 7.17847 6.15046 7.17847 5.44583ZM3.14941 5.44583C3.14941 4.74062 3.69032 4.17065 4.35802 4.17065H4.51692C5.18462 4.17065 5.72526 4.74062 5.72526 5.44583C5.72526 6.15046 5.18462 6.72129 4.51692 6.72129H4.35802C3.69032 6.72129 3.14941 6.15046 3.14941 5.44583Z" fill="#EC6D26"/>
</svg>
