<svg width="24" height="24" viewBox="0 0 24 24" fill="none" xmlns="http://www.w3.org/2000/svg">
<mask id="path-1-inside-1" fill="white">
<path d="M22.0424 14.0272C21.9368 13.7711 22.0523 13.5399 22.2584 13.3747L24 11.9243L23.8893 10.1829L22.8954 10.8503C22.6549 11.0107 22.3584 11.0361 22.1777 10.8252C21.997 10.6146 22.0374 10.3585 22.1831 10.1377L23.3876 8.2206L22.7455 6.59969L22.0077 7.53819C21.8318 7.76886 21.556 7.87925 21.3151 7.73385C21.0791 7.58816 21.0387 7.33744 21.1093 7.08136L21.6613 4.88815L20.5522 3.54308L20.1405 4.66736C20.04 4.9384 19.8144 5.12898 19.5433 5.06404C19.2723 4.99854 19.1568 4.77295 19.1421 4.50671L18.9911 2.24827L17.5208 1.31486L17.4757 2.50915C17.4652 2.79544 17.3099 3.05124 17.0287 3.07129C16.7528 3.09614 16.5727 2.91572 16.477 2.66472L15.6339 0.566938L13.9477 0.130441L14.2735 1.28436C14.354 1.56077 14.2834 1.85158 14.0279 1.95718C13.7718 2.06249 13.5408 1.94701 13.3753 1.74119L11.9246 0L10.1833 0.110395L10.8505 1.10423C11.0112 1.34535 11.0366 1.64124 10.8257 1.82194C10.6151 2.00264 10.3592 1.96254 10.1382 1.81686L8.22071 0.612395L6.59972 1.25472L7.53854 1.99247C7.76922 2.16837 7.87962 2.44421 7.73393 2.68533C7.58795 2.92109 7.33722 2.96146 7.08169 2.89116L4.88809 2.3389L3.54325 3.44793L4.66701 3.85958C4.93807 3.95981 5.12894 4.18597 5.06372 4.45701C4.99849 4.72778 4.77261 4.84354 4.50692 4.8585L2.24838 5.00871L1.31464 6.47941L2.50899 6.52459C2.79529 6.53475 3.05111 6.69004 3.07115 6.97125C3.09628 7.2423 2.91586 7.42807 2.66513 7.5235L0.567247 8.36572L0.130447 10.0521L1.27962 9.72604C1.56141 9.64557 1.85195 9.71587 1.95755 9.97195C2.06315 10.228 1.94739 10.459 1.74155 10.6244L0 12.0745L0.1104 13.816L1.10456 13.1488C1.34513 12.9882 1.6416 12.9631 1.82202 13.1737C2.00273 13.3843 1.96264 13.6404 1.81666 13.8612L0.612141 15.7786L1.25449 17.3992L1.99228 16.461C2.16819 16.2303 2.44376 16.1196 2.68518 16.2653C2.92094 16.4113 2.96132 16.662 2.89073 16.9175L2.33873 19.111L3.44781 20.4564L3.85948 19.3321C3.96 19.061 4.1856 18.8705 4.45694 18.9357C4.72772 19.0012 4.84348 19.2268 4.85816 19.493L5.00922 21.7514L6.47972 22.6851L6.52489 21.4906C6.53534 21.2043 6.69035 20.9485 6.97186 20.9287C7.24772 20.9036 7.42786 21.0843 7.52386 21.335L8.36668 23.4328L10.0532 23.8693L9.72706 22.7154C9.64659 22.4389 9.71718 22.1479 9.97271 22.0425C10.2288 21.9369 10.4595 22.0524 10.6252 22.2585L12.076 24L13.8172 23.8893L13.15 22.8955C12.9894 22.6544 12.9642 22.3588 13.1749 22.1778C13.3855 21.9971 13.6413 22.0375 13.8624 22.1831L15.7799 23.3876L17.4006 22.7456L16.462 22.0078C16.2313 21.8319 16.1209 21.5561 16.2666 21.3152C16.4126 21.0792 16.6633 21.0388 16.9189 21.1094L19.1125 21.6617L20.4576 20.5526L19.3341 20.141C19.0628 20.0408 18.8719 19.8146 18.9374 19.5438C19.0026 19.2728 19.2285 19.1573 19.4942 19.1421L21.7528 18.9919L22.6868 17.5214L21.4921 17.4763C21.2058 17.4661 20.95 17.3105 20.9303 17.0296C20.9051 16.7586 21.0856 16.5731 21.3363 16.4776L23.4344 15.6346L23.8712 13.9484L22.7224 14.2742C22.4389 14.3533 22.1478 14.2827 22.0424 14.0272ZM12 15.0106C10.3389 15.0106 8.98871 13.6604 8.98871 11.9994C8.98871 10.3384 10.3389 8.98828 12 8.98828C13.6611 8.98828 15.0113 10.3384 15.0113 11.9994C15.0113 13.6604 13.6611 15.0106 12 15.0106Z"/>
</mask>
<path d="M22.0424 14.0272C21.9368 13.7711 22.0523 13.5399 22.2584 13.3747L24 11.9243L23.8893 10.1829L22.8954 10.8503C22.6549 11.0107 22.3584 11.0361 22.1777 10.8252C21.997 10.6146 22.0374 10.3585 22.1831 10.1377L23.3876 8.2206L22.7455 6.59969L22.0077 7.53819C21.8318 7.76886 21.556 7.87925 21.3151 7.73385C21.0791 7.58816 21.0387 7.33744 21.1093 7.08136L21.6613 4.88815L20.5522 3.54308L20.1405 4.66736C20.04 4.9384 19.8144 5.12898 19.5433 5.06404C19.2723 4.99854 19.1568 4.77295 19.1421 4.50671L18.9911 2.24827L17.5208 1.31486L17.4757 2.50915C17.4652 2.79544 17.3099 3.05124 17.0287 3.07129C16.7528 3.09614 16.5727 2.91572 16.477 2.66472L15.6339 0.566938L13.9477 0.130441L14.2735 1.28436C14.354 1.56077 14.2834 1.85158 14.0279 1.95718C13.7718 2.06249 13.5408 1.94701 13.3753 1.74119L11.9246 0L10.1833 0.110395L10.8505 1.10423C11.0112 1.34535 11.0366 1.64124 10.8257 1.82194C10.6151 2.00264 10.3592 1.96254 10.1382 1.81686L8.22071 0.612395L6.59972 1.25472L7.53854 1.99247C7.76922 2.16837 7.87962 2.44421 7.73393 2.68533C7.58795 2.92109 7.33722 2.96146 7.08169 2.89116L4.88809 2.3389L3.54325 3.44793L4.66701 3.85958C4.93807 3.95981 5.12894 4.18597 5.06372 4.45701C4.99849 4.72778 4.77261 4.84354 4.50692 4.8585L2.24838 5.00871L1.31464 6.47941L2.50899 6.52459C2.79529 6.53475 3.05111 6.69004 3.07115 6.97125C3.09628 7.2423 2.91586 7.42807 2.66513 7.5235L0.567247 8.36572L0.130447 10.0521L1.27962 9.72604C1.56141 9.64557 1.85195 9.71587 1.95755 9.97195C2.06315 10.228 1.94739 10.459 1.74155 10.6244L0 12.0745L0.1104 13.816L1.10456 13.1488C1.34513 12.9882 1.6416 12.9631 1.82202 13.1737C2.00273 13.3843 1.96264 13.6404 1.81666 13.8612L0.612141 15.7786L1.25449 17.3992L1.99228 16.461C2.16819 16.2303 2.44376 16.1196 2.68518 16.2653C2.92094 16.4113 2.96132 16.662 2.89073 16.9175L2.33873 19.111L3.44781 20.4564L3.85948 19.3321C3.96 19.061 4.1856 18.8705 4.45694 18.9357C4.72772 19.0012 4.84348 19.2268 4.85816 19.493L5.00922 21.7514L6.47972 22.6851L6.52489 21.4906C6.53534 21.2043 6.69035 20.9485 6.97186 20.9287C7.24772 20.9036 7.42786 21.0843 7.52386 21.335L8.36668 23.4328L10.0532 23.8693L9.72706 22.7154C9.64659 22.4389 9.71718 22.1479 9.97271 22.0425C10.2288 21.9369 10.4595 22.0524 10.6252 22.2585L12.076 24L13.8172 23.8893L13.15 22.8955C12.9894 22.6544 12.9642 22.3588 13.1749 22.1778C13.3855 21.9971 13.6413 22.0375 13.8624 22.1831L15.7799 23.3876L17.4006 22.7456L16.462 22.0078C16.2313 21.8319 16.1209 21.5561 16.2666 21.3152C16.4126 21.0792 16.6633 21.0388 16.9189 21.1094L19.1125 21.6617L20.4576 20.5526L19.3341 20.141C19.0628 20.0408 18.8719 19.8146 18.9374 19.5438C19.0026 19.2728 19.2285 19.1573 19.4942 19.1421L21.7528 18.9919L22.6868 17.5214L21.4921 17.4763C21.2058 17.4661 20.95 17.3105 20.9303 17.0296C20.9051 16.7586 21.0856 16.5731 21.3363 16.4776L23.4344 15.6346L23.8712 13.9484L22.7224 14.2742C22.4389 14.3533 22.1478 14.2827 22.0424 14.0272ZM12 15.0106C10.3389 15.0106 8.98871 13.6604 8.98871 11.9994C8.98871 10.3384 10.3389 8.98828 12 8.98828C13.6611 8.98828 15.0113 10.3384 15.0113 11.9994C15.0113 13.6604 13.6611 15.0106 12 15.0106Z" stroke="#EC6D26" stroke-width="2" mask="url(#path-1-inside-1)"/>
</svg>
