<svg width="22" height="22" viewBox="0 0 22 22" fill="none" xmlns="http://www.w3.org/2000/svg">
<path d="M21.702 20.0965L17.5962 16.0333C20.7122 12.1531 20.4189 6.4426 16.863 2.89185C14.9934 1.02496 12.5373 0 9.89787 0C7.25844 0 4.76564 1.02496 2.89604 2.89185C1.02645 4.75874 0 7.21131 0 9.88353C0 12.5557 1.02645 15.0083 2.89604 16.8752C4.76564 18.7055 7.22178 19.7671 9.89787 19.7671C12.1341 19.7671 14.3336 18.9983 16.0565 17.6073L20.1257 21.6705C20.3456 21.8902 20.6022 22 20.8955 22C21.1888 22 21.482 21.8902 21.6653 21.6705C22.1052 21.2313 22.1052 20.5358 21.702 20.0965ZM17.5962 9.88353C17.5962 11.9334 16.7897 13.8735 15.3234 15.3012C13.857 16.7288 11.9508 17.5707 9.89787 17.5707C7.84498 17.5707 5.90206 16.7654 4.47237 15.3012C3.04268 13.8369 2.19953 11.9334 2.19953 9.88353C2.19953 7.83361 3.00602 5.89351 4.47237 4.46589C5.93872 3.03827 7.80832 2.19634 9.89787 2.19634C11.9508 2.19634 13.8937 3.00166 15.3234 4.46589C16.7531 5.93012 17.5962 7.79701 17.5962 9.88353Z" fill="#EC6D26"/>
</svg>
