<svg width="16" height="16" viewBox="0 0 16 16" fill="none" xmlns="http://www.w3.org/2000/svg">
<path d="M10.666 10C10.566 10 10.464 9.97733 10.3687 9.93L7.702 8.59667C7.476 8.48333 7.33333 8.25267 7.33333 8V3.33333C7.33333 2.96533 7.632 2.66667 8 2.66667C8.368 2.66667 8.66667 2.96533 8.66667 3.33333V7.588L10.9647 8.73733C11.294 8.902 11.4273 9.30267 11.2627 9.632C11.146 9.86533 10.9107 10 10.666 10ZM8 16C3.58867 16 0 12.4113 0 8C0 3.58867 3.58867 0 8 0C12.4113 0 16 3.58867 16 8C16 12.4113 12.4113 16 8 16ZM8 1.33333C4.324 1.33333 1.33333 4.324 1.33333 8C1.33333 11.676 4.324 14.6667 8 14.6667C11.676 14.6667 14.6667 11.676 14.6667 8C14.6667 4.324 11.676 1.33333 8 1.33333Z" fill="#818183"/>
</svg>
