<svg width="160" height="52" viewBox="0 0 160 52" fill="none" xmlns="http://www.w3.org/2000/svg">
<path d="M160 0H0V52H160V0Z" fill="black"/>
<path d="M158.702 1.26953H82.1865V50.6793H158.702V1.26953Z" fill="white"/>
<path d="M157.405 42.666H83.4365V49.4104H157.405V42.666Z" fill="#F7B600"/>
<path d="M157.405 2.58984H83.4365V9.3342H157.405V2.58984Z" fill="#1A1F71"/>
<path d="M113.043 16.764L105.401 35.2865H100.403L96.6537 20.4783C96.4134 19.5497 96.2212 19.2565 95.5483 18.8655C94.0675 18.1408 92.5004 17.6151 90.8862 17.3016L90.9824 16.764H99.0088C99.5338 16.7664 100.041 16.96 100.437 17.3096C100.834 17.6593 101.095 18.1419 101.172 18.67L103.142 29.373L108.045 16.764H113.043ZM132.604 29.2264C132.604 24.3392 125.972 24.0459 126.02 21.8956C126.02 21.2114 126.645 20.5271 128.039 20.3317C129.638 20.1798 131.248 20.4667 132.701 21.1625L133.518 17.2527C132.106 16.7017 130.608 16.4201 129.096 16.4219C124.434 16.4219 121.166 18.9632 121.118 22.5309C121.069 25.2189 123.473 26.685 125.251 27.5647C127.029 28.4444 127.702 29.0798 127.702 29.8617C127.702 31.0835 126.212 31.67 124.866 31.67C123.175 31.7175 121.501 31.3131 120.012 30.4971L119.147 34.5535C120.811 35.2327 122.593 35.5651 124.386 35.5309C129.336 35.5798 132.556 33.0873 132.604 29.2264ZM144.908 35.2865H149.282L145.485 16.764H141.448C141.015 16.7587 140.591 16.8865 140.231 17.1307C139.87 17.3749 139.591 17.7241 139.429 18.1324L132.316 35.2865H137.267L138.228 32.5008H144.284L144.908 35.2865ZM139.622 28.7377L142.121 21.7978L143.563 28.7377H139.622ZM119.772 16.764L115.879 35.2865H111.169L115.062 16.764H119.772Z" fill="#1A1F71"/>
<path d="M22.5411 47.6504V44.7181C22.5631 44.4728 22.5327 44.2256 22.4518 43.9934C22.3709 43.7613 22.2415 43.5497 22.0725 43.3732C21.9035 43.1967 21.6989 43.0595 21.4729 42.9711C21.2468 42.8827 21.0045 42.8451 20.7628 42.861C20.4436 42.8481 20.1264 42.9175 19.8407 43.0627C19.555 43.208 19.31 43.4244 19.1287 43.6918C18.9713 43.4238 18.7448 43.2047 18.4737 43.0582C18.2026 42.9118 17.8972 42.8436 17.5907 42.861C17.3209 42.849 17.0523 42.9052 16.8091 43.0246C16.5658 43.144 16.3555 43.3229 16.1969 43.5452V42.9587H15.2837V47.6504H16.1969V44.9625C16.1779 44.8016 16.1943 44.6384 16.2448 44.4848C16.2953 44.3311 16.3788 44.1908 16.4892 44.0739C16.5995 43.957 16.734 43.8665 16.8829 43.8088C17.0319 43.7512 17.1915 43.7279 17.3504 43.7407C18.0233 43.7407 18.4078 44.1805 18.4078 44.9625V47.6504H19.3209V44.9625C19.302 44.8016 19.3183 44.6384 19.3689 44.4848C19.4194 44.3311 19.5029 44.1908 19.6132 44.0739C19.7236 43.957 19.8581 43.8665 20.007 43.8088C20.1559 43.7512 20.3156 43.7279 20.4744 43.7407C21.1473 43.7407 21.5318 44.1805 21.5318 44.9625V47.6504H22.5411ZM37.5366 43.0076H35.8544V41.5903H34.9412V43.0076H33.98V43.8384H34.9412V46.0377C34.9412 47.1128 35.3257 47.7482 36.4792 47.7482C36.917 47.7394 37.346 47.6219 37.7289 47.4061L37.4405 46.5752C37.1814 46.74 36.8809 46.8249 36.5754 46.8196C36.4744 46.8281 36.3728 46.8132 36.2782 46.7762C36.1836 46.7391 36.0985 46.6809 36.0292 46.6057C35.9599 46.5305 35.9081 46.4404 35.8779 46.342C35.8476 46.2436 35.8396 46.1396 35.8544 46.0377V43.7895H37.5366V43.0076ZM46.0917 42.861C45.8431 42.8557 45.5974 42.916 45.3784 43.0359C45.1594 43.1558 44.9747 43.3312 44.8421 43.5452V42.9587H43.9289V47.6504H44.8421V45.0113C44.8421 44.2294 45.2266 43.7407 45.8514 43.7407C46.0627 43.7493 46.2722 43.782 46.4762 43.8384L46.7646 42.9587C46.5443 42.9023 46.3188 42.8695 46.0917 42.861ZM33.1629 43.3497C32.6003 42.9998 31.9473 42.8296 31.2885 42.861C30.135 42.861 29.4141 43.3986 29.4141 44.3271C29.4141 45.1091 29.9427 45.5489 30.9521 45.6955L31.4327 45.7444C31.9614 45.8422 32.2978 46.0377 32.2978 46.282C32.2978 46.6241 31.9133 46.8685 31.1924 46.8685C30.6411 46.8802 30.1011 46.7086 29.6544 46.3798L29.1737 47.1128C29.7576 47.5054 30.4444 47.7098 31.1443 47.6993C32.4901 47.6993 33.211 47.064 33.211 46.1843C33.211 45.3046 32.6342 44.9625 31.6249 44.8158L31.1443 44.767C30.7118 44.7181 30.3272 44.5715 30.3272 44.2783C30.3272 43.985 30.7117 43.6918 31.2404 43.6918C31.7433 43.7141 32.2353 43.8475 32.6823 44.0828L33.1629 43.3497ZM47.1491 45.3046C47.1295 45.6307 47.1781 45.9573 47.292 46.2628C47.4058 46.5684 47.5821 46.8458 47.8093 47.0769C48.0365 47.3079 48.3094 47.4872 48.6098 47.6029C48.9103 47.7187 49.2315 47.7682 49.5522 47.7482C50.1435 47.7798 50.7254 47.5884 51.1864 47.2106L50.7057 46.4775C50.3662 46.7591 49.9423 46.9142 49.5042 46.9174C49.1173 46.8862 48.7561 46.708 48.4927 46.4181C48.2293 46.1282 48.0831 45.7481 48.0831 45.3534C48.0831 44.9588 48.2293 44.5786 48.4927 44.2888C48.7561 43.9989 49.1173 43.8207 49.5042 43.7895C49.9423 43.7926 50.3662 43.9478 50.7057 44.2294L51.1864 43.4963C50.7254 43.1185 50.1435 42.9271 49.5522 42.9587C49.2358 42.9201 48.9149 42.9534 48.6127 43.0562C48.3104 43.159 48.0344 43.3287 47.8045 43.5531C47.5746 43.7775 47.3966 44.0511 47.2832 44.3539C47.1699 44.6568 47.1241 44.9815 47.1491 45.3046ZM40.6607 42.861C39.3149 42.861 38.4017 43.8384 38.4017 45.3046C38.3812 45.6267 38.4276 45.9497 38.538 46.2523C38.6484 46.555 38.8204 46.8306 39.0426 47.0612C39.2648 47.2918 39.5323 47.4721 39.8277 47.5905C40.123 47.7089 40.4396 47.7626 40.7568 47.7482C41.435 47.7625 42.0972 47.5381 42.6312 47.1128L42.1506 46.4286C41.7645 46.7329 41.2931 46.9041 40.8049 46.9174C40.4637 46.9306 40.1302 46.8119 39.8716 46.5852C39.613 46.3585 39.4485 46.0406 39.4111 45.6955H42.8235V45.3046C42.8235 43.8384 41.9584 42.861 40.6607 42.861ZM40.6607 43.7407C40.8163 43.7334 40.9718 43.7583 41.1177 43.8141C41.2635 43.8698 41.3967 43.9551 41.5091 44.0649C41.6215 44.1746 41.7107 44.3064 41.7715 44.4523C41.8322 44.5982 41.8631 44.7552 41.8622 44.9136H39.363C39.384 44.5838 39.5321 44.2757 39.775 44.0562C40.0179 43.8366 40.3361 43.7233 40.6607 43.7407ZM28.2125 45.3046V42.9587H27.2993V43.5452C27.1234 43.3176 26.8961 43.1366 26.6368 43.0175C26.3774 42.8984 26.0935 42.8447 25.8094 42.861C25.172 42.861 24.5608 43.1184 24.1101 43.5767C23.6594 44.0349 23.4063 44.6565 23.4063 45.3046C23.4063 45.9527 23.6594 46.5742 24.1101 47.0325C24.5608 47.4907 25.172 47.7482 25.8094 47.7482C26.0935 47.7644 26.3774 47.7107 26.6368 47.5916C26.8961 47.4725 27.1234 47.2915 27.2993 47.064V47.6504H28.2125V45.3046ZM24.4636 45.3046C24.4824 45.0195 24.5826 44.7463 24.752 44.5183C24.9213 44.2904 25.1525 44.1178 25.4171 44.0217C25.6816 43.9255 25.9681 43.9101 26.2411 43.9772C26.5142 44.0443 26.762 44.1911 26.9542 44.3995C27.1463 44.608 27.2744 44.8689 27.3227 45.1503C27.371 45.4318 27.3374 45.7214 27.226 45.9837C27.1146 46.2459 26.9303 46.4694 26.6957 46.6266C26.4611 46.7838 26.1864 46.8678 25.9055 46.8685C25.7065 46.8734 25.5088 46.8355 25.3252 46.7574C25.1416 46.6792 24.9764 46.5624 24.8402 46.4148C24.7041 46.2671 24.6002 46.0919 24.5353 45.9006C24.4704 45.7093 24.446 45.5062 24.4636 45.3046ZM59.9818 42.861C59.7332 42.8557 59.4874 42.916 59.2685 43.0359C59.0495 43.1558 58.8648 43.3312 58.7322 43.5452V42.9587H57.819V47.6504H58.7322V45.0113C58.7322 44.2294 59.1167 43.7407 59.7415 43.7407C59.9527 43.7493 60.1623 43.782 60.3663 43.8384L60.6547 42.9587C60.4344 42.9023 60.2088 42.8695 59.9818 42.861ZM67.3834 46.9662C67.4512 46.9589 67.5193 46.9762 67.5757 47.0151C67.6237 47.0151 67.6718 47.064 67.7199 47.1128C67.7679 47.1617 67.816 47.2106 67.816 47.2595C67.816 47.3083 67.864 47.3572 67.864 47.4549C67.8712 47.5238 67.8542 47.5931 67.816 47.6504C67.7679 47.6993 67.7679 47.7482 67.7199 47.7971C67.6718 47.8459 67.6237 47.8948 67.5757 47.8948C67.5276 47.8948 67.4795 47.9437 67.3834 47.9437C67.3157 47.951 67.2476 47.9337 67.1912 47.8948C67.1431 47.8459 67.095 47.8459 67.047 47.7971C66.9989 47.7482 66.9509 47.6993 66.9509 47.6504C66.9509 47.6016 66.9028 47.5527 66.9028 47.4549C66.8956 47.3861 66.9126 47.3168 66.9509 47.2595C66.9989 47.2106 66.9989 47.1617 67.047 47.1128C67.095 47.064 67.1431 47.0151 67.1912 47.0151C67.2392 47.0151 67.3354 46.9662 67.3834 46.9662ZM67.3834 47.7971C67.4095 47.8002 67.436 47.7975 67.4609 47.7891C67.4858 47.7806 67.5086 47.7667 67.5276 47.7482C67.5524 47.746 67.5756 47.735 67.5932 47.7171C67.6107 47.6992 67.6216 47.6756 67.6237 47.6504L67.7199 47.5527C67.7199 47.5038 67.7679 47.4549 67.7679 47.4061C67.7711 47.3795 67.7684 47.3526 67.7601 47.3273C67.7518 47.3019 67.738 47.2788 67.7199 47.2595C67.7177 47.2343 67.7069 47.2107 67.6893 47.1928C67.6717 47.1749 67.6485 47.1639 67.6237 47.1617L67.5276 47.064C67.4795 47.064 67.4315 47.0151 67.3834 47.0151C67.3573 47.0119 67.3309 47.0146 67.3059 47.0231C67.281 47.0315 67.2582 47.0455 67.2392 47.064C67.2145 47.0662 67.1913 47.0772 67.1737 47.0951C67.1561 47.1129 67.1453 47.1365 67.1431 47.1617L67.047 47.2595C67.047 47.3083 66.9989 47.3572 66.9989 47.4061C66.9958 47.4326 66.9985 47.4595 67.0068 47.4849C67.0151 47.5102 67.0288 47.5334 67.047 47.5527C67.0491 47.5779 67.06 47.6015 67.0775 47.6194C67.0951 47.6372 67.1183 47.6482 67.1431 47.6504L67.2392 47.7482C67.2582 47.7667 67.281 47.7806 67.3059 47.7891C67.3309 47.7975 67.3573 47.8002 67.3834 47.7971ZM67.4315 47.2595C67.4576 47.2563 67.484 47.259 67.509 47.2674C67.5339 47.2759 67.5567 47.2899 67.5757 47.3083C67.6237 47.3572 67.6237 47.3572 67.6237 47.4061C67.6237 47.4549 67.6237 47.4549 67.5757 47.5038C67.5498 47.5304 67.516 47.5475 67.4795 47.5527L67.6237 47.6993H67.4795L67.3354 47.5527H67.2873V47.6993H67.1912V47.2595H67.4315ZM67.3354 47.3083V47.4061H67.4795V47.3083H67.3354ZM56.4252 45.3046V42.9587H55.512V43.5452C55.3361 43.3176 55.1088 43.1366 54.8494 43.0175C54.59 42.8984 54.3062 42.8447 54.0221 42.861C53.3847 42.861 52.7735 43.1184 52.3228 43.5767C51.8721 44.0349 51.6189 44.6565 51.6189 45.3046C51.6189 45.9527 51.8721 46.5742 52.3228 47.0325C52.7735 47.4907 53.3847 47.7482 54.0221 47.7482C54.3062 47.7644 54.59 47.7107 54.8494 47.5916C55.1088 47.4725 55.3361 47.2915 55.512 47.064V47.6504H56.4252V45.3046ZM52.7244 45.3046C52.7431 45.0195 52.8433 44.7463 53.0127 44.5183C53.1821 44.2904 53.4133 44.1178 53.6778 44.0217C53.9424 43.9255 54.2288 43.9101 54.5019 43.9772C54.7749 44.0443 55.0228 44.1911 55.2149 44.3995C55.4071 44.608 55.5352 44.8689 55.5835 45.1503C55.6317 45.4318 55.5981 45.7214 55.4867 45.9837C55.3753 46.2459 55.191 46.4694 54.9564 46.6266C54.7218 46.7838 54.4472 46.8678 54.1662 46.8685C53.253 46.9174 52.7244 46.1843 52.7244 45.3046ZM65.7493 45.3046V41.1016H64.8361V43.5452C64.6602 43.3176 64.4329 43.1366 64.1735 43.0175C63.9142 42.8984 63.6303 42.8447 63.3462 42.861C62.7088 42.861 62.0976 43.1184 61.6469 43.5767C61.1962 44.0349 60.9431 44.6565 60.9431 45.3046C60.9431 45.9527 61.1962 46.5742 61.6469 47.0325C62.0976 47.4907 62.7088 47.7482 63.3462 47.7482C63.6303 47.7644 63.9142 47.7107 64.1735 47.5916C64.4329 47.4725 64.6602 47.2915 64.8361 47.064V47.6504H65.7493V45.3046ZM62.0004 45.3046C62.0192 45.0195 62.1194 44.7463 62.2888 44.5183C62.4581 44.2904 62.6893 44.1178 62.9539 44.0217C63.2184 43.9255 63.5048 43.9101 63.7779 43.9772C64.051 44.0443 64.2988 44.1911 64.491 44.3995C64.6831 44.608 64.8112 44.8689 64.8595 45.1503C64.9078 45.4318 64.8742 45.7214 64.7628 45.9837C64.6514 46.2459 64.4671 46.4694 64.2325 46.6266C63.9979 46.7838 63.7232 46.8678 63.4423 46.8685C63.2433 46.8734 63.0456 46.8355 62.862 46.7574C62.6784 46.6792 62.5132 46.5624 62.377 46.4148C62.2409 46.2671 62.137 46.0919 62.0721 45.9006C62.0072 45.7093 61.9828 45.5062 62.0004 45.3046Z" fill="white"/>
<path d="M48.7834 7.38086H32.1057V35.0425H48.7834V7.38086Z" fill="#FF5F00"/>
<path d="M33.8359 21.2112C33.8366 18.5501 34.4293 15.9237 35.5696 13.5285C36.7099 11.1334 38.3682 9.03151 40.4205 7.38033C38.2513 5.6461 35.7058 4.46455 32.9962 3.93427C30.2866 3.40398 27.4916 3.54035 24.8443 4.33198C22.1971 5.12361 19.7745 6.54756 17.7786 8.48499C15.7827 10.4224 14.2714 12.8171 13.3709 15.4693C12.4704 18.1215 12.2068 20.9542 12.602 23.7311C12.9972 26.508 14.0398 29.1485 15.6428 31.4323C17.2458 33.716 19.3627 35.5768 21.8169 36.8594C24.271 38.142 26.9913 38.8091 29.7506 38.8051C33.6224 38.8079 37.3819 37.482 40.4205 35.042C38.3682 33.3908 36.7099 31.289 35.5696 28.8938C34.4293 26.4986 33.8366 23.8722 33.8359 21.2112Z" fill="#EB001B"/>
<path d="M66.7583 32.11V31.5235H66.9986V31.4258H66.4219V31.5235H66.6622V32.11H66.7583ZM67.9118 32.11V31.4258H67.7196L67.5273 31.9145L67.3351 31.4258H67.1428V32.11H67.287V31.5724L67.4792 32.0122H67.6234L67.8157 31.5724V32.11H67.9118Z" fill="#F79E1B"/>
<path d="M68.4409 21.2111C68.4373 24.5083 67.5226 27.738 65.8011 30.5322C64.0797 33.3263 61.6208 35.5723 58.7047 37.0141C55.7887 38.456 52.5329 39.0356 49.3085 38.6869C46.0842 38.3382 43.0211 37.0752 40.4685 35.042C42.5213 33.3913 44.18 31.2895 45.3203 28.8942C46.4606 26.499 47.0529 23.8723 47.0529 21.2111C47.0529 18.55 46.4606 15.9233 45.3203 13.528C44.18 11.1328 42.5213 9.03102 40.4685 7.38031C43.0211 5.34707 46.0842 4.08409 49.3085 3.7354C52.5329 3.3867 55.7887 3.96631 58.7047 5.40814C61.6208 6.84997 64.0797 9.09599 65.8011 11.8901C67.5226 14.6842 68.4373 17.914 68.4409 21.2111Z" fill="#F79E1B"/>
</svg>
