<svg width="35" height="24" viewBox="0 0 35 24" fill="none" xmlns="http://www.w3.org/2000/svg">
<path fill-rule="evenodd" clip-rule="evenodd" d="M25 5V3.16348C24.9813 3.14196 24.9567 3.11589 24.9257 3.0862C24.8602 3.02364 24.7853 2.96364 24.7152 2.91571C24.6538 2.87368 24.6164 2.85472 24.6078 2.85036C24.6057 2.84929 24.6068 2.84967 24.6068 2.84967L24.5145 2.8133L23 1.91936V9.3104L24.5435 8.46323L24.5975 8.44131C24.6646 8.41407 24.746 8.37837 24.8286 8.33661C24.8931 8.30399 24.9511 8.27123 25 8.23998V6H33.8365C33.8459 5.98788 33.8561 5.97401 33.8666 5.95837C33.91 5.89387 33.9478 5.8177 33.973 5.7453C33.9939 5.68508 33.9986 5.64956 33.9997 5.64157L33.9999 5.63988C33.9999 5.63747 33.9996 5.63268 33.999 5.62539C33.9979 5.61359 33.9961 5.59751 33.9929 5.57719C33.9864 5.53602 33.9757 5.48462 33.9599 5.42579C33.9277 5.30584 33.8809 5.17922 33.827 5.07026C33.8142 5.04448 33.8017 5.02104 33.7897 5H26H25ZM22 11V0L24.9735 1.91936C25.3198 2.05588 26 2.60649 26 3V4H34.0537C34.5772 4 35 5.12364 35 5.64163C35 6.16363 34.5235 7 34 7H26V8.5C26 8.89752 25.3198 9.22737 24.9735 9.36791L22 11ZM14 11H21V0H3.77301C2.73412 0 1.79188 0.421616 1.10734 1.10423C0.422803 1.78685 0 2.72645 0 3.76242V7.52484C0 9.59277 1.69926 11 3.77301 11H6.5L3 18H1.10734C0.58387 18 0 18.982 0 19.5V23C0 23.522 0.47653 24 1 24H10.4855C11.0003 24 11.0002 23.5923 11 23.0823V18.9742C11.0002 18.4661 11.0003 18 10.4855 18H9L9.96606 15.9893H13C13.4671 15.9893 13.8913 15.3373 14 15V11ZM13 14.7925V10H20V1H3.77301C3.01044 1 2.3189 1.3083 1.81345 1.81233C1.30805 2.31632 1 3.00462 1 3.76242V7.52484C1 8.93629 2.14125 10 3.77301 10H8.11803L3.61803 19H1.27655C1.25063 19.0283 1.21872 19.0675 1.18376 19.1188C1.12087 19.2111 1.06815 19.3133 1.03372 19.4036C1.00706 19.4734 1.00111 19.5102 1 19.5145V21.9758C1.00284 21.9798 1.00659 21.9844 1.01116 21.989C1.01566 21.9935 1.02016 21.9972 1.02415 22H10V19H7.41011L9.33708 14.9893H12.8578C12.8643 14.9824 12.8714 14.9746 12.8791 14.9657C12.9207 14.9178 12.962 14.8587 12.9964 14.7988C12.9976 14.7967 12.9988 14.7946 13 14.7925Z" fill="#EC6D26"/>
</svg>
