<svg width="32" height="32" viewBox="0 0 32 32" fill="none" xmlns="http://www.w3.org/2000/svg">
<rect width="32" height="32" fill="white"/>
<rect width="32" height="32" fill="url(#paint0_linear_11374_22269)"/>
<path d="M19.0797 23.7646C19.4034 23.7646 19.6658 23.5022 19.6658 23.1785C19.6658 22.8548 19.4034 22.5924 19.0797 22.5924C18.756 22.5924 18.4936 22.8548 18.4936 23.1785C18.4936 23.5022 18.756 23.7646 19.0797 23.7646Z" fill="white"/>
<path d="M24.3209 7.54305C23.9589 7.23265 23.4705 7.05469 22.9808 7.05469C22.8807 7.05477 22.7807 7.06181 22.6816 7.07578C21.7669 7.20407 20.8945 7.51802 20.2252 7.95987C19.8368 8.21608 19.4816 8.33531 19.1074 8.33531C18.8399 8.33531 18.5577 8.27737 18.1923 8.1473C16.9507 7.70525 15.5034 7.23383 14.034 7.23383C13.4519 7.23126 12.8721 7.30757 12.3105 7.46067C10.533 7.94746 9.45286 9.04322 9.10226 10.7176C8.75441 12.3746 9.27155 13.7784 10.5971 14.7774C10.6316 14.8034 10.6615 14.8283 10.6905 14.8521C10.8151 14.9552 10.9227 15.0443 11.2291 15.1294C11.4026 15.1775 11.5896 15.1148 11.7171 14.9658C11.8377 14.8247 11.8702 14.6436 11.8018 14.4928C11.6816 14.2327 11.548 14.107 11.3931 13.9607L11.3616 13.9312C10.3017 12.9318 9.97689 11.9127 10.3395 10.7241C10.7124 9.50222 11.5904 8.76928 12.9492 8.54658C13.3257 8.48536 13.7065 8.45471 14.088 8.45494C15.6843 8.45494 17.1372 8.98389 18.2266 9.44506C18.2285 9.4458 18.2302 9.44692 18.2316 9.44835C18.233 9.44977 18.2342 9.45147 18.2349 9.45334C18.2357 9.45521 18.2361 9.45722 18.2361 9.45925C18.2361 9.46128 18.2357 9.46329 18.2349 9.46516V9.46753C18.0516 9.90682 17.8717 10.3455 17.6975 10.7698L17.6935 10.7793C17.15 12.104 16.7263 13.1624 16.2943 14.3435L16.287 14.3632C16.1687 14.6876 16.1096 14.8503 15.9848 14.9193C15.8457 14.9964 15.5795 14.9982 15.096 15.0013C13.871 15.0096 12.7658 15.2193 11.7173 15.6424C10.8614 15.9877 10.035 16.4835 9.19134 17.1579C8.49249 17.7165 7.89869 18.425 7.51951 19.153C7.46729 19.2531 7.41743 19.3603 7.36698 19.4809C7.35692 19.5055 7.19946 19.9167 7.16733 20.0256C7.00534 20.5721 7.10545 21.3183 7.17601 21.5747C7.32756 22.1249 7.59283 22.6233 7.92333 22.9779C8.53743 23.6369 9.30288 23.9436 10.3352 23.9436H10.3395C11.5417 23.9426 12.5665 23.5429 13.4731 22.7217C14.2119 22.0516 14.892 21.0966 15.6804 19.6236C15.9649 19.0915 16.1453 18.5347 16.336 17.9461C16.409 17.7212 16.4842 17.4886 16.566 17.2577C16.6252 17.0927 16.6715 16.9498 16.717 16.8117C16.774 16.6384 16.828 16.4749 16.9022 16.2715C16.9042 16.267 16.9077 16.2634 16.9121 16.2613C16.9166 16.2593 16.9216 16.259 16.9263 16.2604L16.9342 16.2616C17.1918 16.2922 17.4296 16.3217 17.6598 16.3501H17.6661C18.2739 16.4254 18.7987 16.4904 19.2727 16.5257H19.2792C19.4619 16.5257 19.6953 16.5113 19.8795 16.3986L19.8872 16.3943C19.9035 16.386 19.9187 16.376 19.9327 16.3643C20.1192 16.2049 20.1213 15.9246 20.0707 15.8253L20.051 15.7877C19.9369 15.5646 19.6915 15.4702 19.5555 15.4329C19.2571 15.3529 18.8726 15.3028 18.4274 15.2449H18.4251C18.2944 15.228 18.1592 15.2104 18.0199 15.1911C17.8622 15.1694 17.7611 15.1576 17.6791 15.1479C17.5218 15.1321 17.366 15.1036 17.2132 15.0626C17.2153 15.0388 17.2215 15.0156 17.2318 14.994L17.7769 13.6415C18.0353 13.0926 18.268 12.5181 18.4931 11.9639C18.6507 11.5735 18.8011 11.2048 18.9596 10.8426C19.3567 9.93441 19.5508 9.97678 20.022 10.0791C20.1308 10.1025 20.2751 10.1417 20.4278 10.1833C20.5756 10.2227 20.7281 10.2649 20.8736 10.2992C20.9684 10.3217 21.0561 10.343 21.1387 10.3629C21.7224 10.5042 22.044 10.5818 22.7799 10.6031H22.8509C23.6299 10.6031 24.1894 10.3171 24.4535 10.0495C24.7578 9.74108 24.9283 9.27203 24.9212 8.76258C24.9119 8.3024 24.6997 7.86764 24.3209 7.54305ZM22.8213 8.29195C23.0145 8.29195 23.2847 8.34851 23.4534 8.47464C23.5765 8.56707 23.613 8.61674 23.6236 8.63822C23.6711 8.73301 23.6995 8.8487 23.6849 8.89225L23.6831 8.89876C23.6526 9.02055 23.6301 9.09347 23.5215 9.17467C23.318 9.3276 23.0509 9.42476 22.8255 9.42871H22.7736C22.3822 9.42871 21.9244 9.41629 21.4962 9.32445C21.437 9.31164 21.3874 9.30356 21.3385 9.29568C21.2225 9.27902 21.1084 9.25123 20.9977 9.2127L20.9333 9.193C20.915 9.18373 20.898 9.17467 20.8805 9.16521C20.8371 9.14215 20.7926 9.11811 20.7299 9.0917C20.6965 9.07349 20.6659 9.05059 20.6391 9.02371C20.6328 9.01146 20.6293 8.99802 20.6286 8.98429C20.6436 8.91669 21.0585 8.68473 21.4849 8.586C21.6211 8.55427 21.7589 8.51761 21.8923 8.48213C22.1838 8.40449 22.4851 8.32447 22.7845 8.29333C22.7971 8.29313 22.814 8.29215 22.8213 8.29234V8.29195ZM8.37326 20.3461C8.49919 19.742 8.70573 19.298 9.04333 18.9062C9.82297 17.9997 10.4873 17.4478 11.2646 17.0566C12.1164 16.6284 13.1331 16.3817 14.561 16.2567L15.1128 16.2173H15.1441C15.2359 16.2173 15.4892 16.2202 15.6873 16.223C15.6716 16.336 15.6471 16.4477 15.6139 16.5569C15.6072 16.5809 15.5988 16.6057 15.5881 16.6331C15.5611 16.7023 15.5148 16.847 15.4561 17.0302C15.3554 17.3456 15.2172 17.7758 15.0935 18.0856C14.69 19.0939 14.1869 20.2478 13.3229 21.1827C12.8617 21.6817 12.4018 22.1535 11.8484 22.444C11.2792 22.7434 10.6306 22.8407 9.8074 22.7505C9.51179 22.7181 9.03998 22.4706 8.70081 22.0039C8.46175 21.6764 8.21166 21.1224 8.37326 20.3465V20.3461Z" fill="white"/>
<defs>
<linearGradient id="paint0_linear_11374_22269" x1="1.72921" y1="10.1701" x2="30.8634" y2="24.7929" gradientUnits="userSpaceOnUse">
<stop stop-color="#4598FB"/>
<stop offset="1" stop-color="#D15EAE"/>
</linearGradient>
</defs>
</svg>
