<svg xmlns="http://www.w3.org/2000/svg">
	<symbol id="icon-place" viewBox="0 0 24 34">
		<path fill-rule="evenodd" clip-rule="evenodd" d="M11.9371 0.735398C11.9583 0.735398 11.9791 0.734398 11.9999 0.733398L12.0005 0.733426L12.0005 0.733426C12.0211 0.734417 12.0415 0.735398 12.0627 0.735398C17.1175 0.815198 21.2295 4.993 21.2295 10.049C21.2295 16.2306 14.6247 22.49 11.9999 24.7328C11.8245 24.5828 11.6301 24.4138 11.4221 24.2286L11.4165 24.2237L11.4123 24.2198C8.50754 21.6386 2.77054 15.8108 2.77054 10.049C2.77034 4.993 6.88274 0.815398 11.9371 0.735398ZM12.0874 13.9443C14.7548 13.9443 16.9172 11.7819 16.9172 9.11447C16.9172 6.44704 14.7548 4.28467 12.0874 4.28467C9.41994 4.28467 7.25757 6.44704 7.25757 9.11447C7.25757 11.7819 9.41994 13.9443 12.0874 13.9443ZM0.996338 28.8302C0.996338 31.8626 6.59754 33.4498 12.1301 33.4498C17.6631 33.4498 23.2643 31.8626 23.2643 28.8302C23.2643 26.6578 20.3921 25.2284 16.7295 24.5908C16.0365 25.2894 15.3803 25.9046 14.8041 26.4192C18.8179 26.8278 21.1895 28.0848 21.1895 28.8296C21.1895 29.7264 17.7499 31.3744 12.1301 31.3744C6.51034 31.3744 3.07134 29.7264 3.07134 28.8296C3.07134 28.0998 5.34694 26.8736 9.22014 26.441C8.64894 25.9322 7.99794 25.3226 7.31014 24.6312C3.75434 25.2868 0.996338 26.702 0.996338 28.8302Z" />
	</symbol>
	<symbol id="icon-phone" viewBox="0 0 24 39">
		<path fill-rule="evenodd" clip-rule="evenodd" d="M23.6706 34.8044C23.6706 37.096 21.8126 38.9542 19.5208 38.9542H4.47805C2.18645 38.9542 0.328247 37.0962 0.328247 34.8044V5.06484C0.328247 2.77324 2.18625 0.915039 4.47805 0.915039H19.5208C21.8124 0.915039 23.6706 2.77304 23.6706 5.06484V34.8044ZM12 37.561C13.2944 37.561 14.3436 36.5117 14.3436 35.2174C14.3436 33.923 13.2944 32.8738 12 32.8738C10.7057 32.8738 9.65642 33.923 9.65642 35.2174C9.65642 36.5117 10.7057 37.561 12 37.561ZM5.46165 3.64965H18.538C19.2711 3.64965 19.8671 4.21765 19.8674 4.91585V29.6343C19.8674 30.3319 19.2711 30.9005 18.538 30.9005H5.46165C4.72825 30.9005 4.13225 30.3325 4.13225 29.6343V4.91585C4.13225 4.21825 4.72865 3.64965 5.46165 3.64965Z"/>
	</symbol>

	<symbol id="icon-mail"  viewBox="0 0 36 33">
		<path fill-rule="evenodd" clip-rule="evenodd" d="M35.7522 11.6071L17.9996 0.537109L0.246987 11.6071H35.7522ZM35.9716 29.2845H35.9734V12.3115C35.9734 12.1233 35.9542 11.9411 35.923 11.7617L18.9614 22.3383C18.9496 22.3457 18.9372 22.3517 18.9249 22.3578C18.9155 22.3623 18.9061 22.3669 18.897 22.3721C18.8746 22.3845 18.8518 22.3965 18.829 22.4079C18.7086 22.4697 18.5856 22.5195 18.4596 22.5521C18.4466 22.5557 18.4336 22.5571 18.4206 22.5603C18.2822 22.5935 18.142 22.6133 18.002 22.6133H18H17.999C17.859 22.6133 17.7188 22.5929 17.5804 22.5603C17.575 22.5591 17.5697 22.5581 17.5643 22.5571C17.5567 22.5556 17.549 22.5542 17.5414 22.5521C17.4152 22.5195 17.2918 22.4697 17.172 22.4079C17.1492 22.3965 17.1264 22.3845 17.104 22.3721C17.0949 22.367 17.0857 22.3625 17.0765 22.358C17.064 22.3519 17.0516 22.3458 17.0396 22.3383L0.0779877 11.7617C0.0467882 11.9411 0.0275879 12.1237 0.0275879 12.3115V29.2845C0.0275879 31.0599 1.46639 32.4989 3.24199 32.4989H32.7572C34.5326 32.4989 35.9716 31.0601 35.9716 29.2845Z"/>
	</symbol>


</svg>
