<svg width="141" height="108" viewBox="0 0 141 108" fill="none" xmlns="http://www.w3.org/2000/svg">
<path d="M62.6786 69.1071C62.8929 70.8214 63 72.3214 63 73.6071C63 74.6786 63 76.0714 63 77.7857C63 86.7857 60.3214 94.0714 54.9643 99.6429C49.6071 105.214 42.3214 108 33.1071 108C22.6071 108 14.4643 104.357 8.67857 97.0714C2.89286 89.7857 0 80.3571 0 68.7857C0 61.7143 1.07143 54.75 3.21429 47.8928C5.35714 41.0357 8.35714 34.6071 12.2143 28.6071C16.2857 22.3929 21.2143 16.9286 27 12.2143C32.7857 7.2857 39.2143 3.21428 46.2857 0L59.7857 12.2143C53.7857 16.5 49.0714 21.4286 45.6429 27C42.4286 32.5714 40.8214 38.1429 40.8214 43.7143C40.8214 49.7143 42.6429 55.0714 46.2857 59.7857C50.1429 64.2857 55.6071 67.3929 62.6786 69.1071ZM140.464 69.1071C140.679 70.8214 140.786 72.3214 140.786 73.6071C140.786 74.6786 140.786 76.0714 140.786 77.7857C140.786 86.7857 138.107 94.0714 132.75 99.6429C127.393 105.214 120.107 108 110.893 108C100.393 108 92.25 104.357 86.4643 97.0714C80.6786 89.7857 77.7857 80.3571 77.7857 68.7857C77.7857 61.7143 78.8571 54.75 81 47.8928C83.1429 41.0357 86.1429 34.6071 90 28.6071C94.0714 22.3929 99 16.9286 104.786 12.2143C110.571 7.2857 117 3.21428 124.071 0L137.571 12.2143C131.571 16.5 126.857 21.4286 123.429 27C120.214 32.5714 118.607 38.1429 118.607 43.7143C118.607 49.7143 120.429 55.0714 124.071 59.7857C127.929 64.2857 133.393 67.3929 140.464 69.1071Z" fill="black" fill-opacity="0.02"/>
</svg>
