<svg width="82" height="32" viewBox="0 0 82 32" fill="none" xmlns="http://www.w3.org/2000/svg">
<g clip-path="url(#clip0_3318_2795)">
<path fill-rule="evenodd" clip-rule="evenodd" d="M31.4908 8.86249H23.1361V0.507812H8.86249V8.86249H0.507812V23.1361H8.86249V31.4908H23.1361V23.1361H31.4908V8.86249Z" fill="#FBF9FC"/>
<path fill-rule="evenodd" clip-rule="evenodd" d="M8.35468 0H23.6453V8.35468H32V23.6453H23.6453V32H8.35468V23.6453H0V8.35468H8.35468V0ZM9.37168 1.017V9.37168H1.017V22.6283H9.37168V30.983H22.6283V22.6283H30.983V9.37168H22.6283V1.017H9.37168Z" fill="#E7B117"/>
<path d="M16.2117 28.1734C23.0445 28.1734 28.5835 22.6343 28.5835 15.8015C28.5835 8.96875 23.0445 3.42969 16.2117 3.42969C9.37891 3.42969 3.83984 8.96875 3.83984 15.8015C3.83984 22.6343 9.37891 28.1734 16.2117 28.1734Z" fill="#FBF9FC"/>
<path fill-rule="evenodd" clip-rule="evenodd" d="M16.2104 3.93497C9.65848 3.93497 4.34708 9.24637 4.34708 15.7983C4.34708 22.3503 9.65848 27.6617 16.2104 27.6617C22.7624 27.6617 28.0738 22.3503 28.0738 15.7983C28.0738 9.24637 22.7624 3.93497 16.2104 3.93497ZM3.33008 15.7983C3.33008 8.68469 9.0968 2.91797 16.2104 2.91797C23.324 2.91797 29.0908 8.68469 29.0908 15.7983C29.0908 22.9119 23.324 28.6787 16.2104 28.6787C9.0968 28.6787 3.33008 22.9119 3.33008 15.7983Z" fill="#E7B117"/>
<path fill-rule="evenodd" clip-rule="evenodd" d="M11.3047 20.1005H12.5302L13.9997 13.2408L13.9591 10.8203H13.3082L11.3047 20.1005Z" fill="#536CEE"/>
<path fill-rule="evenodd" clip-rule="evenodd" d="M16.2981 20.1005H15.993L13.9895 13.2408L13.7607 10.8203H14.4878L16.2981 17.2376V20.1005Z" fill="#536CEE"/>
<path fill-rule="evenodd" clip-rule="evenodd" d="M21.1289 20.1005H19.8984L18.4339 13.2408L18.4695 10.8203H19.1254L21.1289 20.1005Z" fill="#536CEE"/>
<path fill-rule="evenodd" clip-rule="evenodd" d="M16.1352 20.1005H16.4352L18.4387 13.2408L18.6676 10.8203H17.9404L16.1352 17.2376V20.1005Z" fill="#536CEE"/>
<path fill-rule="evenodd" clip-rule="evenodd" d="M11.3047 20.1005H12.5302L13.9997 13.2408L13.9591 10.8203H13.3082L11.3047 20.1005Z" stroke="#536CEE" stroke-width="1.1983" stroke-miterlimit="10"/>
<path fill-rule="evenodd" clip-rule="evenodd" d="M16.2981 20.1005H15.993L13.9895 13.2408L13.7607 10.8203H14.4878L16.2981 17.2376V20.1005Z" stroke="#536CEE" stroke-width="1.1983" stroke-miterlimit="10"/>
<path fill-rule="evenodd" clip-rule="evenodd" d="M21.1289 20.1005H19.8984L18.4339 13.2408L18.4695 10.8203H19.1254L21.1289 20.1005Z" stroke="#536CEE" stroke-width="1.1983" stroke-miterlimit="10"/>
<path fill-rule="evenodd" clip-rule="evenodd" d="M16.1352 20.1005H16.4352L18.4387 13.2408L18.6676 10.8203H17.9404L16.1352 17.2376V20.1005Z" stroke="#536CEE" stroke-width="1.1983" stroke-miterlimit="10"/>
<path d="M13.1202 24.6964C12.9778 24.5846 12.8405 24.5083 12.6981 24.4574C12.5558 24.4066 12.4083 24.3812 12.2558 24.3761C11.9507 24.3608 11.615 24.4218 11.2947 24.4981C10.9743 24.5795 10.6692 24.671 10.4404 24.7524C10.2116 24.8286 10.0641 24.8846 10.0641 24.8846C10.0641 24.8846 10.2065 24.971 10.4404 25.0676C10.6743 25.1643 10.9947 25.2812 11.3455 25.3422C11.6964 25.4033 12.0778 25.4134 12.4083 25.3168C12.7388 25.2253 13.0185 25.0219 13.1151 24.7015L13.1202 24.6964Z" fill="#E7B117"/>
<path d="M12.1389 23.2781C12.2609 23.5578 12.444 23.8324 12.683 24.0103C12.7999 24.0968 12.9321 24.1629 13.0745 24.1934C13.2169 24.2188 13.3695 24.2137 13.5169 24.1527C13.522 23.8171 13.4305 23.5527 13.2881 23.3188C13.1457 23.0899 12.9423 22.8865 12.7287 22.7187C12.5203 22.5458 12.3016 22.4035 12.1389 22.3018C11.9762 22.2001 11.8643 22.139 11.8643 22.139C11.8643 22.139 11.8643 22.1746 11.8694 22.2407C11.8745 22.3018 11.8846 22.3933 11.905 22.5001C11.9406 22.7136 12.0118 23.0035 12.1338 23.2832L12.1389 23.2781Z" fill="#E7B117"/>
<path d="M9.83578 24.0255C10.1561 24.0102 10.4409 23.8882 10.6392 23.6187C10.4816 23.3339 10.2375 23.1814 9.94765 23.0899C9.6578 23.0034 9.32219 22.978 8.99166 22.9678C8.66114 22.9576 8.33061 22.9678 8.08653 22.9678C7.83228 22.9729 7.67465 22.9729 7.67465 22.9729C7.67465 22.9729 7.70516 23.0085 7.76109 23.0644C7.81703 23.1153 7.90347 23.1966 8.00517 23.2831C8.21366 23.456 8.50859 23.6543 8.83403 23.8018C9.15947 23.9492 9.51542 24.0408 9.83578 24.0255Z" fill="#E7B117"/>
<path d="M10.4458 22.759C10.6289 22.9878 10.8832 23.1404 11.1984 23.1251C11.3255 22.8149 11.3052 22.5251 11.2188 22.2505C11.1323 21.981 10.9798 21.7318 10.8221 21.5183C10.6645 21.3047 10.5069 21.1216 10.3899 20.9894C10.334 20.9233 10.2831 20.8725 10.2475 20.8318C10.217 20.7962 10.1967 20.7759 10.1967 20.7759C10.1967 20.7759 10.1865 20.8064 10.1712 20.8674C10.156 20.9284 10.1357 21.0098 10.1204 21.1165C10.0848 21.325 10.0695 21.6149 10.1204 21.9149C10.1662 22.2149 10.2729 22.52 10.456 22.7539L10.4458 22.759Z" fill="#E7B117"/>
<path d="M6.51991 20.4607C6.29109 20.3895 6.14362 20.3488 6.14362 20.3488C6.14362 20.3488 6.15888 20.3844 6.1843 20.4505C6.21481 20.5115 6.26058 20.6031 6.3216 20.7048C6.38262 20.8065 6.45381 20.9285 6.53517 21.0556C6.57585 21.1166 6.62161 21.1827 6.66738 21.2489L6.70297 21.2997L6.74874 21.3607C6.77925 21.4014 6.81484 21.4421 6.84535 21.4828C7.10977 21.798 7.4403 22.0421 7.76066 22.1438C8.08101 22.2455 8.39628 22.215 8.66579 22.0116C8.58951 21.6912 8.41154 21.4726 8.16746 21.2844C8.10644 21.2336 8.04033 21.1929 7.97423 21.1472C7.90812 21.1014 7.83693 21.0607 7.76574 21.0149C7.69455 20.9692 7.61827 20.9285 7.542 20.8827C7.47081 20.8421 7.39962 20.8065 7.32843 20.7759C7.03858 20.6387 6.74365 20.537 6.51483 20.4607H6.51991Z" fill="#E7B117"/>
<path d="M8.74731 21.0303C8.83375 21.3049 9.03207 21.5337 9.33717 21.6049C9.55074 21.3455 9.61685 21.0659 9.6321 20.7963C9.64736 20.5268 9.61176 20.2777 9.58634 20.0641C9.57617 19.9726 9.54057 19.82 9.50498 19.7031C9.46938 19.581 9.43379 19.4692 9.39819 19.3776C9.3626 19.2861 9.33209 19.2098 9.31175 19.159C9.29141 19.1081 9.28124 19.0776 9.28124 19.0776C9.28124 19.0776 9.2609 19.1081 9.2253 19.1641C9.18971 19.22 9.14394 19.2963 9.09309 19.3929C8.99139 19.5861 8.86935 19.8556 8.78799 20.1506C8.76765 20.2268 8.74731 20.3031 8.73205 20.3794C8.7168 20.4506 8.70663 20.5268 8.70154 20.598C8.70154 20.6743 8.70154 20.7455 8.70663 20.8218C8.71171 20.898 8.73205 20.9642 8.75239 21.0353L8.74731 21.0303Z" fill="#E7B117"/>
<path d="M6.17445 19.3369C6.2253 19.403 6.28632 19.4589 6.35243 19.5098C6.41345 19.5606 6.47955 19.6115 6.54566 19.6522C6.81008 19.82 7.10501 19.8911 7.42537 19.7996C7.45079 19.642 7.44062 19.4945 7.39994 19.3572C7.3796 19.2911 7.34909 19.225 7.3135 19.164C7.2779 19.103 7.23722 19.0419 7.19654 18.9809C7.02365 18.7419 6.75923 18.5334 6.48972 18.3504C6.23039 18.1622 5.9558 18.0046 5.74731 17.8877C5.53374 17.7707 5.39645 17.6995 5.39645 17.6995C5.39645 17.6995 5.40153 17.7402 5.42187 17.8114C5.44221 17.8775 5.46764 17.9792 5.50832 18.0911C5.58968 18.325 5.69646 18.6351 5.88461 18.9199C5.97105 19.0623 6.07275 19.2047 6.17954 19.3318L6.17445 19.3369Z" fill="#E7B117"/>
<path d="M7.90327 19.2099C7.96429 19.337 8.05582 19.4489 8.18294 19.5354C8.47279 19.3676 8.6406 19.1184 8.72704 18.8489C8.74738 18.7828 8.76772 18.7116 8.77789 18.6404C8.78298 18.6048 8.78806 18.5692 8.79315 18.5387C8.79315 18.5031 8.80332 18.4675 8.8084 18.4319C8.82874 18.2895 8.82874 18.1472 8.82874 18.0099C8.8084 17.7353 8.79315 17.481 8.75755 17.2929C8.7423 17.2013 8.72196 17.12 8.71179 17.0691C8.70162 17.0132 8.69653 16.9878 8.69653 16.9878C8.69653 16.9878 8.67111 17.0132 8.62534 17.059C8.57957 17.1047 8.51856 17.1708 8.45245 17.2522C8.31516 17.42 8.14735 17.659 8.01005 17.9336C7.87784 18.2082 7.79648 18.5133 7.79648 18.8082C7.79648 18.8845 7.80665 18.9506 7.82699 19.0218C7.84225 19.093 7.86767 19.154 7.89818 19.2201L7.90327 19.2099Z" fill="#E7B117"/>
<path d="M5.61501 16.7034C5.65569 16.7746 5.69637 16.8458 5.74722 16.9119C5.79807 16.978 5.85401 17.039 5.90994 17.0949C6.13877 17.3187 6.41336 17.4458 6.74389 17.4102C6.79982 17.2576 6.81508 17.1153 6.79982 16.9729C6.78965 16.9017 6.77439 16.8356 6.75405 16.7644C6.73371 16.6932 6.70829 16.6271 6.67778 16.561C6.61676 16.4288 6.53031 16.2966 6.4337 16.1694C6.38285 16.1084 6.332 16.0423 6.28115 15.9813C6.2303 15.9203 6.17945 15.8593 6.12351 15.7982C5.90486 15.5592 5.66586 15.3406 5.49806 15.1779C5.32517 15.0152 5.20312 14.9135 5.20312 14.9135C5.20312 14.9135 5.20313 15.0813 5.2133 15.3304C5.22347 15.4525 5.24889 15.5999 5.27432 15.7525C5.28957 15.8288 5.30483 15.9101 5.32517 15.9915C5.34551 16.0728 5.36585 16.1542 5.39636 16.2356C5.45738 16.3983 5.52348 16.5559 5.60484 16.7034H5.61501Z" fill="#E7B117"/>
<path d="M7.53706 17.2318C7.85233 17.125 8.0659 16.9115 8.20319 16.6725C8.23879 16.6114 8.2693 16.5504 8.29472 16.4843C8.32523 16.4182 8.35066 16.3572 8.37608 16.2911C8.42185 16.1589 8.45745 16.0267 8.47779 15.8945C8.50321 15.7623 8.52864 15.6402 8.54389 15.5182C8.54897 15.4622 8.55406 15.4012 8.55915 15.3504C8.55915 15.2995 8.56423 15.2487 8.56932 15.2029C8.58966 15.0198 8.58457 14.9029 8.58457 14.9029C8.58457 14.9029 8.46253 14.969 8.28456 15.0961C8.24388 15.1266 8.19302 15.1622 8.14726 15.2029C8.09641 15.2436 8.04556 15.2843 7.99979 15.33C7.90318 15.4216 7.80148 15.5283 7.70486 15.6453C7.6591 15.7063 7.61333 15.7673 7.56757 15.8284C7.54723 15.8589 7.52689 15.8945 7.50655 15.925C7.48621 15.9555 7.47095 15.9911 7.4557 16.0267C7.38959 16.1589 7.33874 16.3013 7.31332 16.4436C7.30315 16.5148 7.29298 16.586 7.29298 16.6572C7.29298 16.7284 7.30823 16.7945 7.32349 16.8606C7.35908 16.9928 7.43027 17.12 7.53706 17.2318Z" fill="#E7B117"/>
<path d="M6.38772 13.2349C6.31144 13.0925 6.23517 12.9552 6.15889 12.823C6.07753 12.6908 6.00634 12.5738 5.94532 12.4772C5.81819 12.2789 5.73175 12.1467 5.73175 12.1467C5.73175 12.1467 5.68598 12.3043 5.63513 12.5484C5.61479 12.6704 5.59954 12.8179 5.58937 12.9755C5.58428 13.0518 5.5792 13.1332 5.5792 13.2196C5.5792 13.301 5.58428 13.3874 5.58937 13.4739C5.60462 13.6467 5.62496 13.8196 5.67073 13.9824C5.72158 14.1451 5.7826 14.3027 5.86396 14.4349C6.02159 14.7044 6.27585 14.8926 6.60129 14.9383C6.64197 14.8722 6.67756 14.8061 6.6979 14.7349C6.72333 14.6688 6.74367 14.5976 6.75384 14.5315C6.77926 14.3942 6.76401 14.2519 6.7335 14.1044C6.70807 13.962 6.66231 13.8146 6.60129 13.6671C6.54027 13.5196 6.46399 13.3722 6.3928 13.2298L6.38772 13.2349Z" fill="#E7B117"/>
<path d="M8.17251 14.4963C8.27421 14.3997 8.35557 14.2878 8.42676 14.1759C8.50304 14.0641 8.57423 13.9471 8.63016 13.8302C8.66067 13.7742 8.68101 13.7132 8.70644 13.6573C8.73186 13.6013 8.75729 13.5454 8.77763 13.4946C8.82339 13.3878 8.8539 13.2861 8.88441 13.2047C8.95052 13.0369 8.97594 12.9199 8.97594 12.9199C8.97594 12.9199 8.83865 12.9505 8.64033 13.0267C8.43185 13.103 8.18777 13.225 7.9386 13.403C7.87758 13.4488 7.81656 13.4946 7.76063 13.5454C7.70469 13.5963 7.65384 13.6471 7.60299 13.703C7.50637 13.8149 7.41484 13.937 7.35891 14.0692C7.30297 14.2014 7.27246 14.3336 7.27246 14.4709C7.27246 14.537 7.27755 14.6082 7.29789 14.6743C7.32331 14.7404 7.34874 14.8116 7.3945 14.8777C7.73011 14.8472 7.96911 14.6946 8.17251 14.5014V14.4963Z" fill="#E7B117"/>
<path d="M7.20638 12.3604C7.25214 12.3045 7.28774 12.2435 7.31316 12.1774C7.33859 12.1113 7.35893 12.0452 7.37418 11.979C7.38944 11.9079 7.39452 11.8367 7.39961 11.7655C7.40978 11.6231 7.39961 11.4655 7.37418 11.3078C7.34876 11.1502 7.32333 10.9926 7.28265 10.8349C7.20129 10.5196 7.11485 10.2247 7.03857 10.001C6.9623 9.77723 6.90636 9.62977 6.90636 9.62977C6.90636 9.62977 6.88602 9.66536 6.85043 9.72638C6.81483 9.7874 6.77415 9.87893 6.7233 9.9908C6.61651 10.2095 6.50973 10.5298 6.44362 10.8603C6.4182 11.0281 6.39786 11.201 6.39786 11.3688C6.39786 11.4502 6.40294 11.5366 6.4182 11.618C6.42837 11.6994 6.44871 11.7807 6.46905 11.8519C6.51481 12.0045 6.57583 12.1367 6.67753 12.2536C6.77415 12.3706 6.90128 12.4621 7.05383 12.5282C7.11485 12.4774 7.16061 12.4164 7.20129 12.3604H7.20638Z" fill="#E7B117"/>
<path d="M9.82529 11.1605C9.8558 11.1147 9.86597 11.0893 9.86597 11.0893C9.86597 11.0893 9.83037 11.0893 9.76935 11.0893C9.70833 11.0893 9.6168 11.0995 9.5151 11.1096C9.40832 11.1249 9.28628 11.1452 9.15407 11.1758C9.08796 11.191 9.01677 11.2063 8.95067 11.2266C8.88456 11.2469 8.81337 11.2724 8.74218 11.2978C8.60489 11.3537 8.46251 11.4198 8.34046 11.5012C8.21842 11.5826 8.10655 11.6792 8.01502 11.791C7.96926 11.847 7.93366 11.9029 7.89807 11.9639C7.86756 12.025 7.84213 12.0911 7.82688 12.1572C7.81162 12.2233 7.80145 12.2894 7.80145 12.3606C7.80145 12.4318 7.81671 12.5029 7.84213 12.5792C8.00485 12.6046 8.1574 12.5996 8.2947 12.569C8.43199 12.5385 8.56929 12.4877 8.68625 12.4165C8.74727 12.3809 8.8032 12.3453 8.85914 12.3046C8.88965 12.2843 8.90999 12.2639 8.93541 12.2385C8.96084 12.2182 8.99135 12.1978 9.01677 12.1724C9.12356 12.0809 9.21509 11.9843 9.29645 11.8877C9.38289 11.791 9.46425 11.6944 9.53036 11.5978C9.54561 11.5724 9.56087 11.552 9.57612 11.5266C9.59138 11.5063 9.60663 11.4809 9.62697 11.4605C9.65748 11.4198 9.68799 11.3792 9.70833 11.3385C9.75918 11.2622 9.79478 11.1961 9.82529 11.1503V11.1605Z" fill="#E7B117"/>
<path d="M8.10675 10.3262C8.24913 10.255 8.35592 10.1584 8.43728 10.0465C8.52373 9.9397 8.58475 9.81257 8.62034 9.67019C8.70679 9.3956 8.72204 9.06508 8.71696 8.7498C8.71696 8.66844 8.71696 8.58708 8.70679 8.51081C8.70679 8.43453 8.69662 8.35826 8.69153 8.28707C8.68136 8.1396 8.66611 8.00231 8.65085 7.88535C8.62543 7.65653 8.6 7.49889 8.6 7.49889C8.6 7.49889 8.57458 7.5294 8.52881 7.58025C8.48305 7.6311 8.41694 7.70738 8.35084 7.80399C8.27965 7.90061 8.19828 8.01248 8.11692 8.14469C8.04065 8.2769 7.95929 8.41928 7.89827 8.57183C7.83725 8.72947 7.77623 8.8871 7.74063 9.04982C7.70504 9.21254 7.68978 9.37526 7.69487 9.52781C7.71521 9.84308 7.83725 10.1228 8.10167 10.3211L8.10675 10.3262Z" fill="#E7B117"/>
<path d="M10.4254 10.1587C10.5322 10.0825 10.6339 10.0011 10.7203 9.92483C10.8118 9.84856 10.8932 9.77737 10.9542 9.71126C11.0203 9.64516 11.0763 9.59431 11.1118 9.55363C11.1474 9.51803 11.1678 9.49261 11.1678 9.49261C11.1678 9.49261 11.0305 9.4621 10.8169 9.44176C10.7101 9.43159 10.5881 9.4265 10.4508 9.4265C10.3135 9.4265 10.166 9.43667 10.0186 9.4621C9.72364 9.50786 9.42362 9.60448 9.1948 9.77737C9.08293 9.86381 8.9914 9.96551 8.92529 10.0876C8.86427 10.2096 8.83376 10.3469 8.83885 10.4994C9.14395 10.6317 9.43379 10.6215 9.69821 10.5452C9.83551 10.5096 9.96263 10.4537 10.0796 10.3876C10.2016 10.3215 10.3186 10.2503 10.4203 10.1689L10.4254 10.1587Z" fill="#E7B117"/>
<path d="M9.8358 22.7084C10.7104 23.4356 11.7732 23.9288 12.8207 24.3509C13.675 24.6967 14.7733 25.2611 15.8921 25.7899C14.8903 26.1001 13.8987 26.3595 13.1004 26.4917C12.9936 26.5069 13.5326 27.0561 13.6343 27.0256C14.5598 26.7459 15.5005 26.4103 16.426 26.034C17.4379 26.4917 18.4346 26.8883 19.2583 27.0256C19.36 27.0409 19.6855 26.4917 19.5787 26.4764C18.8007 26.3442 17.8955 26.1154 16.9548 25.8204C18.5058 25.1696 20.0007 24.4322 21.2923 23.7305C22.6958 22.9678 23.7484 21.8846 24.44 20.4405C25.0807 19.1031 25.5332 17.6285 25.5993 16.1488C25.6909 14.0944 24.9993 12.0807 23.9315 10.3518C23.6162 9.84333 23.2704 9.33992 22.8789 8.87209C22.9145 8.73988 22.9195 8.61276 22.8941 8.4958C22.8687 8.35342 22.8128 8.21613 22.7263 8.09409C22.5636 7.84492 22.2992 7.64661 22.0297 7.49406C21.7602 7.34659 21.4754 7.24997 21.2669 7.19912C21.1601 7.1737 21.0737 7.15844 21.0127 7.14827C20.9822 7.14827 20.9567 7.14319 20.9415 7.14319C20.9262 7.14319 20.9211 7.14319 20.9211 7.14319C20.9211 7.14319 20.9211 7.14827 20.9313 7.16353C20.9415 7.17878 20.9466 7.19912 20.9618 7.22455C20.9872 7.28048 21.0279 7.35676 21.0788 7.44829C21.1805 7.63644 21.3178 7.88052 21.4754 8.11443C21.5568 8.23647 21.6483 8.34834 21.7398 8.45512C21.7856 8.51106 21.8364 8.56191 21.8873 8.60767C21.9381 8.65852 21.989 8.6992 22.05 8.73988C22.1619 8.81616 22.2839 8.88226 22.4161 8.91278C22.5178 8.9382 22.6246 8.94837 22.7416 8.94328C23.4891 9.82299 24.0993 10.8502 24.562 11.8773C25.1519 13.1842 25.4671 14.6131 25.4366 16.0521C25.401 17.6183 24.8773 19.2099 24.1755 20.6032C23.6264 21.6863 22.8331 22.5711 21.811 23.2271C20.9008 23.817 19.899 24.2593 18.9075 24.6865C18.1651 25.0068 17.2803 25.3374 16.3853 25.6323C14.4682 24.9916 12.4597 24.1271 11.0715 23.339C10.3443 22.9322 9.68833 22.4287 9.14424 21.7931C8.60014 21.1575 8.20859 20.4049 7.89332 19.6371C7.29838 18.1777 6.917 16.6674 7.00853 15.086C7.11532 13.2401 7.84247 11.4705 8.85439 9.93995C9.11373 9.5484 9.3934 9.15686 9.6985 8.78565C9.81037 8.79073 9.91207 8.78056 10.0087 8.75514C10.1409 8.71954 10.2629 8.65852 10.3748 8.58225C10.4307 8.54157 10.4816 8.50089 10.5324 8.45004C10.5833 8.40427 10.6341 8.35342 10.6799 8.29749C10.7765 8.1907 10.863 8.07375 10.9443 7.95171C11.1071 7.71271 11.2443 7.46863 11.341 7.28557C11.3918 7.19404 11.4325 7.11268 11.4579 7.06183C11.4732 7.0364 11.4833 7.01606 11.4884 7.00081C11.4935 6.98555 11.4986 6.98047 11.4986 6.98047C11.4986 6.98047 11.4935 6.98047 11.4783 6.98047C11.463 6.98047 11.4376 6.98047 11.4071 6.99064C11.346 7.00081 11.2596 7.01606 11.1528 7.04149C10.9443 7.09234 10.6596 7.18387 10.3901 7.33642C10.1206 7.48389 9.85614 7.68729 9.69342 7.93645C9.60697 8.05849 9.55104 8.19579 9.5307 8.33308C9.50527 8.45004 9.51036 8.57716 9.54595 8.70429C8.83405 9.55349 8.24419 10.5298 7.78654 11.5061C7.2221 12.7164 6.88141 14.0232 6.83056 15.3555C6.77462 16.8912 7.19159 18.3607 7.7662 19.7642C8.22893 20.8982 8.88999 21.9253 9.8358 22.7084Z" fill="#E7B117"/>
<path d="M21.0634 25.4953C21.4142 25.4342 21.7346 25.3224 21.9685 25.2207C22.2024 25.119 22.3448 25.0376 22.3448 25.0376C22.3448 25.0376 22.1973 24.9766 21.9685 24.9003C21.7397 24.824 21.4396 24.7274 21.1142 24.6461C20.7939 24.5698 20.4582 24.5088 20.1531 24.524C20.0006 24.5291 19.8531 24.5596 19.7107 24.6054C19.5684 24.6562 19.4362 24.7325 19.2938 24.8444C19.3853 25.1647 19.6701 25.3681 19.9955 25.4597C20.326 25.5563 20.7074 25.5461 21.0583 25.4851L21.0634 25.4953Z" fill="#E7B117"/>
<path d="M19.3397 24.3457C19.4821 24.3203 19.6143 24.2542 19.7313 24.1626C19.9703 23.9846 20.1482 23.7101 20.2754 23.4304C20.4025 23.1507 20.4686 22.8609 20.5042 22.6473C20.5195 22.5405 20.5296 22.449 20.5398 22.3879C20.5449 22.3269 20.5449 22.2913 20.5449 22.2913C20.5449 22.2913 20.433 22.3524 20.2703 22.4541C20.1076 22.5558 19.894 22.6981 19.6804 22.871C19.4719 23.0439 19.2635 23.2422 19.1211 23.4711C18.9787 23.705 18.8872 23.9694 18.8973 24.305C19.0448 24.366 19.1973 24.3762 19.3397 24.3457Z" fill="#E7B117"/>
<path d="M23.4279 23.1257C23.0973 23.1359 22.7566 23.1613 22.4668 23.2477C22.177 23.3393 21.938 23.4918 21.7752 23.7766C21.9736 24.0461 22.2583 24.1681 22.5787 24.1834C22.899 24.1986 23.255 24.1071 23.5804 23.9596C23.9059 23.8122 24.2008 23.6139 24.4093 23.441C24.5161 23.3545 24.5974 23.2783 24.6534 23.2223C24.7093 23.1664 24.7398 23.1308 24.7398 23.1308C24.7398 23.1308 24.5822 23.1308 24.3279 23.1257C24.0788 23.1257 23.7533 23.1155 23.4228 23.1257H23.4279Z" fill="#E7B117"/>
<path d="M21.2208 23.2829C21.536 23.2982 21.7903 23.1456 21.9734 22.9168C22.1513 22.6829 22.2632 22.3778 22.309 22.0778C22.3547 21.7777 22.3395 21.4879 22.3039 21.2794C22.2886 21.1726 22.2683 21.0913 22.253 21.0302C22.2378 20.9692 22.2276 20.9387 22.2276 20.9387C22.2276 20.9387 22.2073 20.9591 22.1768 20.9946C22.1412 21.0302 22.0954 21.0811 22.0344 21.1523C21.9174 21.2845 21.7598 21.4676 21.6022 21.6811C21.4445 21.8947 21.292 22.1439 21.2055 22.4134C21.1191 22.6829 21.0987 22.9778 21.2259 23.288L21.2208 23.2829Z" fill="#E7B117"/>
<path d="M25.5687 21.6357C25.6043 21.595 25.6348 21.5543 25.6653 21.5136L25.711 21.4526L25.7466 21.4018C25.7924 21.3357 25.8382 21.2696 25.8788 21.2085C25.9602 21.0814 26.0365 20.9594 26.0924 20.8577C26.1484 20.7509 26.1941 20.6644 26.2246 20.6034C26.2551 20.5424 26.2704 20.5017 26.2704 20.5017C26.2704 20.5017 26.1229 20.5424 25.8941 20.6136C25.6704 20.6848 25.3703 20.7916 25.0856 20.9238C25.0144 20.9594 24.9432 20.995 24.872 21.0306C24.7957 21.0712 24.7195 21.117 24.6483 21.1628C24.5771 21.2085 24.5059 21.2492 24.4398 21.295C24.3737 21.3407 24.3076 21.3814 24.2466 21.4323C24.0025 21.6204 23.8245 21.8391 23.7482 22.1594C24.0177 22.3578 24.3279 22.3933 24.6534 22.2916C24.9737 22.1899 25.3042 21.9459 25.5687 21.6306V21.6357Z" fill="#E7B117"/>
<path d="M23.631 20.2985C23.5446 19.9985 23.4226 19.7341 23.3259 19.5408C23.2751 19.4442 23.2293 19.3679 23.1937 19.312C23.1581 19.2561 23.1378 19.2256 23.1378 19.2256C23.1378 19.2256 23.1276 19.2561 23.1073 19.3069C23.0869 19.3578 23.0513 19.434 23.0208 19.5256C22.9852 19.6171 22.9496 19.729 22.9141 19.851C22.8785 19.968 22.8429 20.1205 22.8327 20.212C22.8022 20.4256 22.7717 20.6799 22.7869 20.9443C22.8022 21.2138 22.8683 21.4935 23.0819 21.7528C23.387 21.6816 23.5853 21.4579 23.6717 21.1782C23.6921 21.107 23.7073 21.0358 23.7175 20.9646C23.7226 20.8884 23.7277 20.8172 23.7175 20.7409C23.7124 20.6646 23.7022 20.5934 23.687 20.5222C23.6717 20.446 23.6514 20.3697 23.631 20.2934V20.2985Z" fill="#E7B117"/>
<path d="M27.0023 17.9693C27.0176 17.8981 27.0278 17.8574 27.0278 17.8574C27.0278 17.8574 26.8956 17.9286 26.682 18.0455C26.4735 18.1625 26.1989 18.3201 25.9396 18.5083C25.6701 18.6913 25.4057 18.8998 25.2328 19.1388C25.1921 19.1998 25.1463 19.2609 25.1107 19.3219C25.0751 19.3829 25.0446 19.449 25.0243 19.5151C24.9836 19.6524 24.9683 19.7948 24.9989 19.9575C25.3192 20.049 25.6141 19.9778 25.8786 19.81C25.9447 19.7694 26.0108 19.7185 26.0718 19.6677C26.1328 19.6168 26.1938 19.5558 26.2498 19.4948C26.3566 19.3676 26.4583 19.2303 26.5447 19.0829C26.7278 18.7981 26.8396 18.4879 26.921 18.254C26.9617 18.1371 26.9871 18.0405 27.0074 17.9693H27.0023Z" fill="#E7B117"/>
<path d="M24.2362 19.6928C24.3633 19.6064 24.4549 19.4894 24.5159 19.3674C24.5464 19.3064 24.5718 19.2403 24.5871 19.1691C24.6023 19.0979 24.6176 19.0318 24.6176 18.9555C24.6176 18.6606 24.5362 18.3555 24.404 18.0809C24.2667 17.8063 24.0938 17.5673 23.9616 17.3995C23.8955 17.3181 23.8345 17.252 23.7887 17.2063C23.743 17.1605 23.7175 17.1351 23.7175 17.1351C23.7175 17.1351 23.7125 17.1656 23.7023 17.2215C23.6921 17.2775 23.6718 17.3537 23.6565 17.4453C23.6209 17.6334 23.6057 17.8877 23.5853 18.1623C23.5803 18.2996 23.5853 18.4419 23.6057 18.5843C23.6108 18.6199 23.6158 18.6555 23.6209 18.6911C23.6209 18.7267 23.6311 18.7623 23.6362 18.7979C23.6464 18.8691 23.6667 18.9352 23.687 19.0064C23.7735 19.2759 23.9413 19.525 24.2311 19.6928H24.2362Z" fill="#E7B117"/>
<path d="M26.2906 15.9554C26.2346 16.0164 26.1838 16.0774 26.1329 16.1385C26.0821 16.1995 26.0312 16.2656 25.9804 16.3266C25.8838 16.4537 25.7973 16.5859 25.7363 16.7182C25.7058 16.7843 25.6804 16.8554 25.66 16.9216C25.6346 16.9877 25.6194 17.0588 25.6143 17.13C25.599 17.2724 25.6143 17.4148 25.6702 17.5673C26.0007 17.5979 26.2753 17.4707 26.5042 17.2521C26.5601 17.1961 26.616 17.1351 26.6669 17.069C26.7177 17.0029 26.7584 16.9317 26.7991 16.8605C26.8804 16.7131 26.9516 16.5503 27.0076 16.3927C27.0381 16.3113 27.0584 16.23 27.0788 16.1486C27.0991 16.0673 27.1144 15.991 27.1296 15.9096C27.1601 15.7571 27.1855 15.6096 27.1906 15.4876C27.2059 15.2384 27.2008 15.0757 27.2008 15.0757C27.2008 15.0757 27.0788 15.1774 26.9059 15.3401C26.7381 15.5028 26.4991 15.7215 26.2855 15.9605L26.2906 15.9554Z" fill="#E7B117"/>
<path d="M25.0956 17.0185C25.1159 16.9524 25.1261 16.8812 25.1312 16.8151C25.1312 16.7439 25.121 16.6727 25.1109 16.6015C25.0854 16.4592 25.0346 16.3168 24.9685 16.1846C24.9532 16.149 24.9329 16.1185 24.9176 16.0829C24.8973 16.0523 24.8769 16.0168 24.8566 15.9862C24.8108 15.9252 24.7651 15.8591 24.7193 15.8032C24.6227 15.6862 24.5261 15.5794 24.4244 15.4879C24.3786 15.4421 24.3278 15.4015 24.2769 15.3608C24.2261 15.3201 24.1803 15.2845 24.1396 15.254C23.9616 15.1269 23.8396 15.0608 23.8396 15.0608C23.8396 15.0608 23.8396 15.1828 23.8549 15.3608C23.865 15.4066 23.865 15.4574 23.865 15.5083C23.865 15.5591 23.8752 15.6201 23.8803 15.6761C23.8955 15.793 23.921 15.9201 23.9464 16.0523C23.9667 16.1846 24.0023 16.3168 24.0481 16.449C24.0735 16.5151 24.0989 16.5812 24.1295 16.6422C24.1549 16.7032 24.1854 16.7693 24.221 16.8304C24.3583 17.0694 24.5718 17.2829 24.8871 17.3897C24.9939 17.2778 25.0651 17.1558 25.1007 17.0185H25.0956Z" fill="#E7B117"/>
<path d="M25.6857 14.2623C25.6501 14.4047 25.645 14.547 25.6654 14.6894C25.6755 14.7606 25.6959 14.8267 25.7213 14.8928C25.7467 14.9589 25.7772 15.0301 25.8179 15.0962C26.1484 15.0505 26.4027 14.8623 26.5552 14.5928C26.6366 14.4555 26.6976 14.303 26.7485 14.1402C26.7942 13.9775 26.8146 13.8046 26.8298 13.6317C26.8349 13.5453 26.84 13.4589 26.84 13.3775C26.84 13.2961 26.8349 13.2148 26.8298 13.1334C26.8197 12.9758 26.7993 12.8283 26.7841 12.7063C26.7332 12.4622 26.6874 12.3046 26.6874 12.3046C26.6874 12.3046 26.5959 12.4368 26.4739 12.6351C26.4129 12.7317 26.3417 12.8537 26.2603 12.9809C26.184 13.108 26.1027 13.2504 26.0315 13.3927C25.9603 13.5351 25.884 13.6826 25.823 13.8301C25.762 13.9775 25.7162 14.125 25.6857 14.2674V14.2623Z" fill="#E7B117"/>
<path d="M25.0552 14.2216C24.9942 14.0894 24.9077 13.9673 24.806 13.8554C24.7552 13.7995 24.7043 13.7436 24.6484 13.6927C24.5925 13.6419 24.5314 13.5961 24.4704 13.5503C24.2212 13.3775 23.9772 13.2503 23.7687 13.1741C23.5704 13.0978 23.4331 13.0673 23.4331 13.0673C23.4331 13.0673 23.4636 13.1842 23.5297 13.352C23.5602 13.4385 23.5907 13.5402 23.6365 13.647C23.6568 13.6978 23.6822 13.7537 23.7077 13.8097C23.7331 13.8656 23.7585 13.9266 23.7839 13.9826C23.8399 14.0995 23.906 14.2165 23.9873 14.3284C24.0585 14.4402 24.1399 14.5521 24.2416 14.6487C24.445 14.8419 24.684 14.9945 25.0196 15.025C25.0603 14.9589 25.0908 14.8928 25.1111 14.8267C25.1315 14.7555 25.1366 14.6894 25.1416 14.6233C25.1416 14.486 25.1111 14.3487 25.0552 14.2216Z" fill="#E7B117"/>
<path d="M25.5128 9.78766C25.5128 9.78766 25.4569 9.93004 25.3806 10.1589C25.3043 10.3826 25.2179 10.6826 25.1365 10.9979C25.0959 11.1555 25.0704 11.3132 25.045 11.4708C25.0196 11.6284 25.0094 11.781 25.0196 11.9284C25.0247 11.9996 25.0298 12.0708 25.045 12.142C25.0603 12.2132 25.0806 12.2793 25.106 12.3403C25.1315 12.4014 25.1671 12.4624 25.2128 12.5234C25.2535 12.5844 25.3043 12.6404 25.3603 12.6912C25.5179 12.6251 25.64 12.5336 25.7366 12.4166C25.8383 12.2997 25.8993 12.1674 25.9451 12.0149C25.9705 11.9386 25.9857 11.8623 25.9959 11.781C26.0061 11.6996 26.0163 11.6132 26.0163 11.5318C26.0163 11.364 25.9959 11.1911 25.9705 11.0233C25.9044 10.6928 25.7976 10.3775 25.6908 10.1538C25.64 10.0419 25.5942 9.95038 25.5637 9.88936C25.5281 9.82834 25.5077 9.79274 25.5077 9.79274L25.5128 9.78766Z" fill="#E7B117"/>
<path d="M24.5214 12.1317C24.4909 12.0706 24.4553 12.0096 24.4044 11.9588C24.3129 11.852 24.201 11.7554 24.079 11.6689C23.957 11.5876 23.8146 11.5215 23.6773 11.4655C23.6061 11.4401 23.54 11.4147 23.4688 11.3943C23.4027 11.374 23.3315 11.3536 23.2654 11.3435C23.1332 11.313 23.0111 11.2926 22.9044 11.2825C22.7976 11.2672 22.7111 11.2621 22.6501 11.2621C22.584 11.2621 22.5535 11.2621 22.5535 11.2621C22.5535 11.2621 22.5687 11.2875 22.5993 11.3333C22.6247 11.3791 22.6603 11.4452 22.7162 11.5215C22.7416 11.557 22.7671 11.5977 22.7976 11.6435C22.8128 11.6638 22.8281 11.6893 22.8484 11.7096C22.8637 11.735 22.8789 11.7554 22.8942 11.7808C22.9603 11.8774 23.0417 11.974 23.1281 12.0706C23.2095 12.1723 23.301 12.2689 23.4078 12.3554C23.4332 12.3757 23.4637 12.4012 23.4891 12.4215C23.5146 12.4418 23.54 12.4622 23.5705 12.4876C23.6264 12.5283 23.6824 12.5639 23.7434 12.5995C23.8603 12.6707 23.9976 12.7215 24.1349 12.752C24.2722 12.7825 24.4248 12.7927 24.5875 12.7622C24.6078 12.691 24.6231 12.6147 24.6282 12.5435C24.6282 12.4723 24.618 12.4062 24.6028 12.3401C24.5875 12.274 24.5621 12.2079 24.5316 12.1469L24.5214 12.1317Z" fill="#E7B117"/>
<path d="M24.3125 10.484C24.577 10.2857 24.699 10.0061 24.7193 9.69079C24.7295 9.53823 24.7092 9.37552 24.6736 9.20771C24.638 9.04499 24.582 8.88735 24.5159 8.72972C24.4498 8.57717 24.3685 8.43479 24.2922 8.30258C24.2159 8.17037 24.1295 8.0585 24.0634 7.96188C23.9922 7.86527 23.9261 7.78899 23.8803 7.73814C23.8346 7.68729 23.8091 7.65678 23.8091 7.65678C23.8091 7.65678 23.7837 7.80933 23.7583 8.04324C23.743 8.1602 23.7329 8.29749 23.7176 8.44496C23.7125 8.51615 23.7074 8.59242 23.7074 8.6687C23.7074 8.74497 23.6973 8.82633 23.6973 8.90769C23.6973 9.22296 23.7074 9.55349 23.7939 9.82808C23.8346 9.97046 23.8905 10.0976 23.9769 10.2044C24.0583 10.3162 24.1651 10.4129 24.3075 10.484H24.3125Z" fill="#E7B117"/>
<path d="M23.2192 9.92966C22.9904 9.76186 22.6904 9.66016 22.3955 9.61439C22.248 9.58897 22.1005 9.58388 21.9632 9.5788C21.8259 9.5788 21.7039 9.5788 21.5971 9.59405C21.3835 9.61439 21.2463 9.6449 21.2463 9.6449C21.2463 9.6449 21.2666 9.67033 21.3022 9.70592C21.3378 9.7466 21.3937 9.79745 21.4598 9.86356C21.5259 9.92966 21.6073 10.0009 21.6988 10.0771C21.7853 10.1534 21.887 10.2348 21.9937 10.311C22.1005 10.3924 22.2175 10.4636 22.3344 10.5297C22.4514 10.5958 22.5785 10.6517 22.7158 10.6873C22.9802 10.7636 23.2701 10.7789 23.5752 10.6416C23.5803 10.489 23.5498 10.3517 23.4887 10.2297C23.4226 10.1127 23.3311 10.011 23.2192 9.91949V9.92966Z" fill="#E7B117"/>
<path fill-rule="evenodd" clip-rule="evenodd" d="M15.3714 6.56754C15.1172 6.46075 14.8477 6.37939 14.568 6.37431C14.2222 6.36922 13.8968 6.47601 13.6731 6.7506C13.4086 7.07604 13.3832 7.5286 13.4849 7.92015C13.551 8.17949 13.6731 8.42865 13.8256 8.65239C13.9121 8.65239 14.0036 8.65748 14.0849 8.6829C14.1917 8.71341 14.2934 8.77443 14.3748 8.85071C14.6901 8.56086 15.2443 8.54561 15.5545 8.85071C15.5799 8.83037 15.6003 8.81003 15.6257 8.79477L15.3664 6.56754H15.3714Z" fill="#E7B117"/>
<path fill-rule="evenodd" clip-rule="evenodd" d="M13.2105 6.66961C13.0936 6.66961 13.002 6.76114 13.002 6.8781C13.002 6.99505 13.0936 7.08658 13.2105 7.08658C13.3275 7.08658 13.419 6.98997 13.419 6.8781C13.419 6.76623 13.3275 6.66961 13.2105 6.66961ZM15.153 9.29856C15.097 9.32907 15.0259 9.33924 14.9648 9.33924C14.9038 9.33924 14.8326 9.32907 14.7767 9.29856C14.736 9.27822 14.6902 9.24263 14.6902 9.19178C14.6902 9.14093 14.7309 9.10533 14.7767 9.08499C14.8326 9.05448 14.9038 9.04431 14.9648 9.04431C15.0259 9.04431 15.097 9.05448 15.153 9.08499C15.1937 9.10533 15.2394 9.14093 15.2394 9.19178C15.2394 9.24263 15.1988 9.27822 15.153 9.29856ZM14.0292 9.29856H14.0241C13.9428 9.28839 13.8563 9.22737 13.8461 9.14093C13.8461 9.10533 13.8512 9.07482 13.8716 9.0494V9.03923H13.8868C13.9631 9.04431 14.1207 9.08499 14.1207 9.18669C14.1207 9.23754 14.08 9.27314 14.0343 9.29348L14.0292 9.29856ZM16.0225 9.08499C16.0785 9.05448 16.1496 9.04431 16.2107 9.04431V8.76464C16.2107 8.76464 16.1954 8.76464 16.1852 8.76464C16.1751 8.76464 16.17 8.76464 16.1598 8.76464C16.1496 8.76464 16.1446 8.76464 16.1344 8.76464C15.9615 8.77481 15.7734 8.83074 15.6462 8.94261C15.6411 8.94261 15.6361 8.95278 15.631 8.95787C15.631 8.95787 15.6208 8.96804 15.6157 8.97312C15.6157 8.97312 15.6056 8.98329 15.6005 8.98838C15.6005 8.99346 15.5903 8.99855 15.5852 9.00363C15.5852 9.00872 15.575 9.0138 15.575 9.01889C15.575 9.02397 15.5649 9.02906 15.5649 9.03414L15.5496 9.05448L15.5344 9.03414C15.5344 9.03414 15.5242 9.02397 15.5242 9.01889C15.4123 8.86125 15.2343 8.77989 15.0462 8.76464C15.0411 8.76464 15.0309 8.76464 15.0259 8.76464C15.0259 8.76464 15.0106 8.76464 15.0055 8.76464C15.0055 8.76464 14.9903 8.76464 14.9852 8.76464C14.9852 8.76464 14.9699 8.76464 14.9648 8.76464C14.9598 8.76464 14.9496 8.76464 14.9445 8.76464C14.9394 8.76464 14.9292 8.76464 14.9242 8.76464C14.9191 8.76464 14.9089 8.76464 14.9038 8.76464C14.8987 8.76464 14.8886 8.76464 14.8835 8.76464C14.8784 8.76464 14.8682 8.76464 14.8631 8.76464C14.8581 8.76464 14.8479 8.76464 14.8428 8.76464C14.8377 8.76464 14.8275 8.76464 14.8225 8.76464C14.8174 8.76464 14.8072 8.76464 14.8021 8.76464C14.797 8.76464 14.7869 8.76464 14.7818 8.76464C14.7767 8.76464 14.7665 8.76464 14.7614 8.76972C14.7564 8.76972 14.7462 8.76972 14.7411 8.77481C14.736 8.77481 14.7258 8.77481 14.7208 8.77989C14.5885 8.82566 14.4716 8.90193 14.3902 9.0138L14.375 9.03414L14.3597 9.0138C14.3038 8.92227 14.2123 8.85108 14.1106 8.80532H14.0699C14.0699 8.80532 14.0597 8.80532 14.0546 8.80532C14.0546 8.80532 14.0445 8.80532 14.0394 8.80532C14.0394 8.80532 14.0292 8.80532 14.0241 8.80532C14.0241 8.80532 14.0139 8.80532 14.0089 8.80532C13.9834 8.80023 13.9529 8.79515 13.9275 8.79006C13.9275 8.79006 13.9173 8.79006 13.9122 8.79006C13.9122 8.79006 13.9021 8.79006 13.897 8.79006C13.897 8.79006 13.8868 8.79006 13.8817 8.79006C13.8817 8.79006 13.8716 8.79006 13.8665 8.79006C13.8665 8.79006 13.8563 8.79006 13.8512 8.79006C13.8512 8.79006 13.8411 8.79006 13.836 8.79006C13.836 8.79006 13.8258 8.79006 13.8207 8.79006C13.7495 8.79006 13.6732 8.8104 13.6071 8.84091C13.6885 8.89176 13.7597 8.95787 13.8207 9.02906L13.8309 9.03923V9.0494C13.8055 9.07991 13.7953 9.12059 13.8004 9.15618C13.8105 9.26297 13.9122 9.33416 14.0089 9.34433H14.0292V9.3545C14.0699 9.43586 14.1004 9.5223 14.1207 9.61383H16.2056V9.34941C16.1446 9.34941 16.0734 9.33924 16.0174 9.30873C15.9768 9.28839 15.931 9.2528 15.931 9.20195C15.931 9.1511 15.9717 9.1155 16.0174 9.09516L16.0225 9.08499ZM15.7276 5.73397H16.1395V5.32208H16.1547C16.1547 5.32208 16.1903 5.32208 16.2107 5.32208V4.32033H15.9818C16.0886 4.47797 16.1039 4.52882 16.1039 4.73731V4.75256H16.0886C15.9005 4.75256 15.8496 4.72714 15.7123 4.63561V5.08817C15.8496 4.99156 15.9056 4.97122 16.0886 4.97122H16.1039V5.27632H16.0886C15.8344 5.33734 15.6513 5.56108 15.6513 5.82041C15.6513 6.12551 15.9005 6.37468 16.2056 6.37468V5.8916H15.7225V5.87635C15.7225 5.87635 15.7174 5.83567 15.7174 5.82041C15.7174 5.80516 15.7174 5.77973 15.7174 5.76448V5.74922L15.7276 5.73397ZM15.692 6.25773L15.4784 6.34417L15.753 8.72396C15.8903 8.66294 16.053 8.63243 16.2107 8.63243V6.50181C16.0073 6.50181 15.8191 6.41536 15.6869 6.26281L15.692 6.25773ZM13.541 6.20179C13.4241 6.20179 13.3325 6.29841 13.3325 6.41028C13.3325 6.52215 13.4241 6.61876 13.541 6.61876C13.658 6.61876 13.7546 6.52723 13.7546 6.41028C13.7546 6.29332 13.658 6.20179 13.541 6.20179ZM14.019 5.98822C13.9224 5.98822 13.8411 6.06958 13.8411 6.1662C13.8411 6.26281 13.9173 6.34417 14.019 6.34417C14.1207 6.34417 14.197 6.26281 14.197 6.1662C14.197 6.06958 14.1156 5.98822 14.019 5.98822ZM14.4919 5.96788C14.4106 5.96788 14.3445 6.03398 14.3445 6.11534C14.3445 6.1967 14.4106 6.26281 14.4919 6.26281C14.5733 6.26281 14.6394 6.1967 14.6394 6.11534C14.6394 6.03398 14.5733 5.96788 14.4919 5.96788ZM14.9038 6.04416C14.8326 6.04416 14.7767 6.10009 14.7767 6.17128C14.7767 6.24247 14.8326 6.29841 14.9038 6.29841C14.975 6.29841 15.0309 6.24247 15.0309 6.17128C15.0309 6.10009 14.975 6.04416 14.9038 6.04416ZM15.2496 6.19162C15.1937 6.19162 15.1479 6.23739 15.1479 6.29332C15.1479 6.34926 15.1937 6.39502 15.2496 6.39502C15.3055 6.39502 15.3513 6.34926 15.3513 6.29332C15.3513 6.23739 15.3055 6.19162 15.2496 6.19162ZM13.302 7.36117C13.2817 7.26456 13.1851 7.20354 13.0885 7.22896C12.9919 7.2493 12.9308 7.34592 12.9512 7.44253C12.9715 7.53915 13.0681 7.60017 13.1647 7.57474C13.2614 7.5544 13.3224 7.45779 13.302 7.36117ZM13.3325 7.83408C13.3122 7.7578 13.2359 7.70695 13.1546 7.72221C13.0783 7.73746 13.0224 7.81883 13.0427 7.90019C13.058 7.97646 13.1393 8.02731 13.2156 8.01206C13.297 7.9968 13.3478 7.91544 13.3275 7.83408H13.3325ZM13.4495 8.23071C13.4343 8.15952 13.3631 8.11884 13.297 8.1341C13.2308 8.14935 13.1851 8.22054 13.2003 8.28665C13.2156 8.35784 13.2868 8.39852 13.3529 8.38326C13.4241 8.36801 13.4648 8.29682 13.4495 8.23071ZM13.6122 8.55107C13.6021 8.49513 13.5461 8.45954 13.4902 8.47479C13.4343 8.48496 13.3987 8.5409 13.4139 8.59683C13.4241 8.65277 13.48 8.68836 13.536 8.67311C13.5919 8.66294 13.6275 8.607 13.6122 8.55107Z" fill="#E7B117"/>
<path fill-rule="evenodd" clip-rule="evenodd" d="M16.7649 5.81022C16.7649 6.11532 16.5158 6.36449 16.2107 6.36449V5.88141H16.6937V5.86616C16.6937 5.86616 16.6988 5.82548 16.6988 5.81022C16.6988 5.79497 16.6988 5.76954 16.6988 5.75429V5.73903H16.2869V5.32715H16.2717C16.2717 5.32715 16.231 5.32208 16.2107 5.32208V4.32033L16.4395 4.32031C16.3327 4.47795 16.3174 4.5288 16.3174 4.73728V4.75254H16.3327C16.5208 4.75254 16.5717 4.72711 16.709 4.63558V5.08815C16.5717 4.99153 16.5158 4.97119 16.3327 4.97119H16.3174V5.2763H16.3327C16.5869 5.33732 16.77 5.56106 16.77 5.82039L16.7649 5.81022Z" fill="#E7B117"/>
<path fill-rule="evenodd" clip-rule="evenodd" d="M16.9429 6.34418L16.6683 8.72397C16.531 8.66295 16.3683 8.63243 16.2107 8.63243V6.50181C16.4141 6.50181 16.6022 6.41537 16.7344 6.26282L16.948 6.34927L16.9429 6.34418Z" fill="#E7B117"/>
<path fill-rule="evenodd" clip-rule="evenodd" d="M17.2788 6.29308C17.2788 6.34901 17.233 6.39478 17.1771 6.39478C17.1211 6.39478 17.0754 6.34901 17.0754 6.29308C17.0754 6.23714 17.1211 6.19138 17.1771 6.19138C17.233 6.19138 17.2788 6.23714 17.2788 6.29308Z" fill="#E7B117"/>
<path fill-rule="evenodd" clip-rule="evenodd" d="M17.6498 6.17616C17.6498 6.24735 17.5938 6.30328 17.5226 6.30328C17.4514 6.30328 17.3955 6.24735 17.3955 6.17616C17.3955 6.10497 17.4514 6.04903 17.5226 6.04903C17.5938 6.04903 17.6498 6.10497 17.6498 6.17616Z" fill="#E7B117"/>
<path fill-rule="evenodd" clip-rule="evenodd" d="M18.082 6.11507C18.082 6.19643 18.0159 6.26253 17.9346 6.26253C17.8532 6.26253 17.7871 6.19643 17.7871 6.11507C17.7871 6.03371 17.8532 5.9676 17.9346 5.9676C18.0159 5.9676 18.082 6.03371 18.082 6.11507Z" fill="#E7B117"/>
<path fill-rule="evenodd" clip-rule="evenodd" d="M18.5801 6.16112C18.5801 6.25773 18.4987 6.33909 18.4021 6.33909C18.3055 6.33909 18.2241 6.25773 18.2241 6.16112C18.2241 6.0645 18.3055 5.98314 18.4021 5.98314C18.4987 5.98314 18.5801 6.0645 18.5801 6.16112Z" fill="#E7B117"/>
<path fill-rule="evenodd" clip-rule="evenodd" d="M18.5854 9.14577C18.5752 9.23222 18.4888 9.29324 18.4074 9.30341H18.4024C18.3617 9.28307 18.3159 9.24747 18.3159 9.19662C18.3159 9.09492 18.4735 9.05424 18.5498 9.04915H18.56L18.5651 9.05424C18.5854 9.07967 18.5956 9.11526 18.5905 9.14577H18.5854ZM17.6498 9.29832C17.5938 9.32883 17.5227 9.339 17.4616 9.339C17.4006 9.339 17.3294 9.32883 17.2735 9.29832C17.2328 9.27798 17.187 9.24239 17.187 9.19154C17.187 9.14069 17.2277 9.10509 17.2735 9.08475C17.3294 9.05424 17.4006 9.04407 17.4616 9.04407C17.5227 9.04407 17.5938 9.05424 17.6498 9.08475C17.6905 9.10509 17.7362 9.14069 17.7362 9.19154C17.7362 9.24239 17.6955 9.27798 17.6498 9.29832ZM18.8142 8.8305C18.7532 8.80508 18.682 8.78982 18.6159 8.78474C18.6159 8.78474 18.6058 8.78474 18.6007 8.78474C18.6007 8.78474 18.5905 8.78474 18.5854 8.78474C18.5854 8.78474 18.5752 8.78474 18.5702 8.78474C18.5702 8.78474 18.56 8.78474 18.5549 8.78474C18.5549 8.78474 18.5447 8.78474 18.5397 8.78474C18.5397 8.78474 18.5295 8.78474 18.5244 8.78474C18.4024 8.78982 18.2854 8.8305 18.1888 8.90169C18.1379 8.94237 18.0973 8.98814 18.0667 9.03899L18.0515 9.05933L18.0362 9.03899C17.9549 8.92712 17.8379 8.85084 17.7057 8.80507C17.7006 8.80507 17.6905 8.80507 17.6854 8.79999C17.6803 8.79999 17.6701 8.79999 17.665 8.7949C17.6599 8.7949 17.6498 8.79491 17.6447 8.78982C17.6396 8.78982 17.6294 8.78982 17.6244 8.78982C17.6193 8.78982 17.6091 8.78982 17.604 8.78982C17.5989 8.78982 17.5888 8.78982 17.5837 8.78982C17.5786 8.78982 17.5684 8.78982 17.5633 8.78982C17.5582 8.78982 17.5481 8.78982 17.543 8.78982C17.5379 8.78982 17.5277 8.78982 17.5226 8.78982C17.5176 8.78982 17.5074 8.78982 17.5023 8.78982C17.5023 8.78982 17.4871 8.78982 17.482 8.78982C17.482 8.78982 17.4667 8.78982 17.4616 8.78982C17.4616 8.78982 17.4464 8.78982 17.4413 8.78982C17.4362 8.78982 17.426 8.78982 17.4209 8.78982C17.4159 8.78982 17.4057 8.78982 17.4006 8.78982C17.4006 8.78982 17.3854 8.78982 17.3803 8.78982C17.187 8.80508 16.9989 8.89661 16.887 9.05933L16.8718 9.07967L16.8565 9.05933C16.7345 8.88135 16.4904 8.79999 16.287 8.78982C16.2768 8.78982 16.2717 8.78982 16.2616 8.78982C16.2616 8.78982 16.2463 8.78982 16.2361 8.78982C16.2361 8.78982 16.2209 8.78982 16.2107 8.78982V9.0695C16.2717 9.0695 16.3429 9.07967 16.3989 9.11018C16.4395 9.13052 16.4853 9.16611 16.4853 9.21696C16.4853 9.26781 16.4446 9.30341 16.3989 9.32375C16.3429 9.35426 16.2717 9.36443 16.2107 9.36443V9.62885H18.2956C18.3159 9.5424 18.3464 9.45596 18.3871 9.36951V9.35934H18.4074C18.5041 9.34409 18.6058 9.2729 18.6159 9.1712C18.6159 9.1356 18.6108 9.09492 18.5905 9.06441V9.04407C18.6515 8.97288 18.7227 8.90677 18.8041 8.85592L18.8142 8.8305Z" fill="#E7B117"/>
<path fill-rule="evenodd" clip-rule="evenodd" d="M18.9364 7.92015C18.8703 8.17949 18.7483 8.42865 18.5957 8.65239C18.5093 8.65239 18.4178 8.65748 18.3364 8.6829C18.2296 8.71341 18.1279 8.77443 18.0466 8.85071C17.7313 8.56086 17.177 8.54561 16.8668 8.85071C16.8414 8.83037 16.8211 8.81003 16.7957 8.79477L17.055 6.56754C17.3092 6.46075 17.5787 6.37939 17.8584 6.37431C18.2042 6.36922 18.5296 6.47601 18.7534 6.7506C19.0178 7.07604 19.0432 7.5286 18.9415 7.92015H18.9364Z" fill="#E7B117"/>
<path fill-rule="evenodd" clip-rule="evenodd" d="M19.0128 8.59703C19.0026 8.65296 18.9467 8.68856 18.8907 8.6733C18.8348 8.66313 18.7992 8.6072 18.8145 8.55126C18.8246 8.49533 18.8806 8.45973 18.9365 8.47499C18.9924 8.48516 19.028 8.54109 19.0128 8.59703Z" fill="#E7B117"/>
<path fill-rule="evenodd" clip-rule="evenodd" d="M19.0936 6.41541C19.0936 6.53236 19.0021 6.62389 18.8851 6.62389C18.7682 6.62389 18.6766 6.53236 18.6766 6.41541C18.6766 6.29845 18.7682 6.20692 18.8851 6.20692C19.0021 6.20692 19.0936 6.29845 19.0936 6.41541Z" fill="#E7B117"/>
<path fill-rule="evenodd" clip-rule="evenodd" d="M19.2311 8.28658C19.2159 8.35777 19.1447 8.39845 19.0786 8.3832C19.0074 8.36794 18.9667 8.29675 18.982 8.23065C18.9972 8.15946 19.0684 8.11878 19.1345 8.13403C19.2057 8.14929 19.2464 8.22048 19.2311 8.28658Z" fill="#E7B117"/>
<path fill-rule="evenodd" clip-rule="evenodd" d="M19.4243 6.88286C19.4243 6.99981 19.3328 7.09134 19.2158 7.09134C19.0989 7.09134 19.0073 6.99981 19.0073 6.88286C19.0073 6.7659 19.0989 6.67437 19.2158 6.67437C19.3328 6.67437 19.4243 6.7659 19.4243 6.88286Z" fill="#E7B117"/>
<path fill-rule="evenodd" clip-rule="evenodd" d="M19.3788 7.89998C19.3636 7.97625 19.2822 8.0271 19.2009 8.01185C19.1246 7.99659 19.0737 7.91523 19.089 7.83387C19.1042 7.7576 19.1856 7.70675 19.267 7.722C19.3432 7.73726 19.3941 7.81862 19.3788 7.89998Z" fill="#E7B117"/>
<path fill-rule="evenodd" clip-rule="evenodd" d="M19.4702 7.43763C19.4498 7.53425 19.3532 7.59527 19.2566 7.56984C19.16 7.5495 19.099 7.45289 19.1244 7.35627C19.1447 7.25966 19.2413 7.19864 19.338 7.22406C19.4346 7.2444 19.4956 7.34102 19.4702 7.43763Z" fill="#E7B117"/>
</g>
<path d="M40.1501 14.3909H38.8828V7.01562H40.1501L42.4043 10.6513L44.6584 7.01562H45.9257V14.3909H44.6584V9.12433H44.6376L42.4354 12.6977H42.3731L40.1709 9.12433H40.1501V14.3909Z" fill="#373737"/>
<path d="M47.5955 8.78154H48.7693V12.6354H48.7901L51.3455 8.78154H52.5089V14.3909H51.3455V10.5371H51.3247L48.7693 14.3909H47.5955V8.78154Z" fill="#373737"/>
<path d="M54.0347 14.5156C53.8269 14.5156 53.5257 14.4844 53.3595 14.4428V13.5287C53.453 13.5599 53.5984 13.5703 53.6919 13.5703C54.3671 13.5703 54.5645 12.6769 54.5645 9.39441V8.78154H58.6157V14.3909H57.3795V9.72682H55.7175V10.1631C55.7175 13.0509 55.4266 14.5156 54.0347 14.5156Z" fill="#373737"/>
<path d="M62.5309 14.5156C60.8793 14.5156 59.9548 13.4664 59.9548 11.5862C59.9548 9.70604 60.8793 8.65688 62.5309 8.65688C64.1826 8.65688 65.1071 9.71643 65.1071 11.5862C65.1071 13.4664 64.1826 14.5156 62.5309 14.5156ZM62.5309 13.5911C63.4035 13.5911 63.8502 12.9262 63.8502 11.6485V11.5239C63.8502 10.2462 63.4035 9.59178 62.5309 9.59178C61.6688 9.59178 61.2117 10.2462 61.2117 11.5239V11.6485C61.2117 12.9262 61.6688 13.5911 62.5309 13.5911Z" fill="#373737"/>
<path d="M68.6354 14.5156C67.0356 14.5156 66.1631 13.508 66.1631 11.6382C66.1631 9.7476 67.098 8.65688 68.7185 8.65688C69.1859 8.65688 69.6741 8.75037 70.0481 8.90619L69.9546 9.95535C69.6326 9.76837 69.2171 9.65411 68.8431 9.65411C67.929 9.65411 67.42 10.3397 67.42 11.5551V11.6382C67.42 12.8224 67.929 13.5183 68.8016 13.5183C69.2067 13.5183 69.6741 13.3729 70.0377 13.1755L70.1104 14.2039C69.7157 14.4013 69.1755 14.5156 68.6354 14.5156Z" fill="#373737"/>
<path d="M73.721 14.3909H72.4849V9.72682H70.7813V8.78154H75.4246V9.72682H73.721V14.3909Z" fill="#373737"/>
<path d="M78.8661 14.3909H76.4458V8.78154H77.6819V10.8591H78.783C80.2269 10.8591 81.006 11.4927 81.006 12.625C81.006 13.7573 80.2477 14.3909 78.8661 14.3909ZM77.6819 11.6797V13.5599H78.648C79.3751 13.5599 79.7906 13.2275 79.7906 12.6458V12.6042C79.7906 12.0121 79.3647 11.6797 78.6064 11.6797H77.6819Z" fill="#373737"/>
<path d="M40.1501 23.6206H38.8828V16.2453H40.1501L42.4043 19.881L44.6584 16.2453H45.9257V23.6206H44.6584V18.354H44.6376L42.4354 21.9274H42.3731L40.1709 18.354H40.1501V23.6206Z" fill="#373737"/>
<path d="M47.5955 18.0112H48.7693V21.865H48.7901L51.3455 18.0112H52.5089V23.6206H51.3455V19.7667H51.3247L48.7693 23.6206H47.5955V18.0112Z" fill="#373737"/>
<path d="M55.3747 25.6773H54.1386V18.0112H55.3435V18.8526H55.3643C55.7279 18.2086 56.2888 17.8865 57.0575 17.8865C58.3975 17.8865 59.1662 18.9357 59.1662 20.7847C59.1662 22.6857 58.3871 23.7452 56.9848 23.7452C56.2784 23.7452 55.7487 23.4751 55.3955 22.9246H55.3747V25.6773ZM56.6524 22.7895C57.4626 22.7895 57.9197 22.1247 57.9197 20.8782V20.7432C57.9197 19.4966 57.473 18.8422 56.6732 18.8422C55.8629 18.8422 55.3747 19.4759 55.3747 20.5043V21.1379C55.3747 22.1663 55.8525 22.7895 56.6524 22.7895Z" fill="#373737"/>
<path d="M62.3582 23.7452C60.987 23.7452 60.2287 22.7272 60.2287 20.847C60.2287 18.9669 61.0078 17.8865 62.4101 17.8865C63.1788 17.8865 63.7293 18.1982 64.0618 18.8422H64.0825L64.176 18.0112H65.2563V23.6206H64.1033V22.7064H64.0825C63.719 23.4024 63.1476 23.7452 62.3582 23.7452ZM62.7529 22.7895C63.5424 22.7895 64.0202 22.1767 64.0202 21.1275V20.4939C64.0202 19.4551 63.5424 18.8422 62.7529 18.8422C61.9323 18.8422 61.4856 19.507 61.4856 20.7536V20.8886C61.4856 22.1351 61.9219 22.7895 62.7529 22.7895Z" fill="#373737"/>
<defs>
<clipPath id="clip0_3318_2795">
<rect width="32" height="32" fill="white"/>
</clipPath>
</defs>
</svg>
