<svg width="111" height="33" viewBox="0 0 111 33" fill="none" xmlns="http://www.w3.org/2000/svg">
<mask id="mask0" mask-type="alpha" maskUnits="userSpaceOnUse" x="2" y="1" width="106" height="31">
<path d="M78.4564 8.25C79.5609 8.25 80.4564 7.35457 80.4564 6.25V3.35359C80.4564 1.83905 82.0744 0.874086 83.407 1.59394L107.743 14.7403C109.142 15.4962 109.142 17.5038 107.743 18.2597L83.407 31.4061C82.0744 32.1259 80.4564 31.1609 80.4564 29.6464V26.75C80.4564 25.6454 79.5609 24.75 78.4564 24.75H5.53821C3.66599 24.75 2.82011 22.4077 4.26034 21.2115L19.3102 8.71147C19.6692 8.41325 20.1213 8.25 20.588 8.25H78.4564Z" transform="translate(111) scale(-1 1)" fill="#E0E0E0"/>
</mask>
<g mask="url(#mask0)">
<path d="M78.4564 8.25C79.5609 8.25 80.4564 7.35457 80.4564 6.25V3.35359C80.4564 1.83905 82.0744 0.874086 83.407 1.59394L107.743 14.7403C109.142 15.4962 109.142 17.5038 107.743 18.2597L83.407 31.4061C82.0744 32.1259 80.4564 31.1609 80.4564 29.6464V26.75C80.4564 25.6454 79.5609 24.75 78.4564 24.75H5.53821C3.66599 24.75 2.82011 22.4077 4.26034 21.2115L19.3102 8.71147C19.6692 8.41325 20.1213 8.25 20.588 8.25H78.4564Z" transform="translate(111) scale(-1 1)" fill="#102F54"/>
<rect width="130.317" height="25.016" transform="matrix(-0.986449 -0.16407 -0.234384 0.972144 128.856 27.3857)" fill="#173C68"/>
</g>
</svg>
