<svg width="22" height="15" viewBox="0 0 22 15" fill="none" xmlns="http://www.w3.org/2000/svg">
<path d="M21.7004 6.78331L15.1535 0.296818C14.7541 -0.0989394 14.1063 -0.0989394 13.7068 0.296818C13.3073 0.692656 13.3073 1.33433 13.7068 1.73017L18.5074 6.48647H1.02294C0.458032 6.48647 0 6.94029 0 7.49999C0 8.05961 0.458032 8.5135 1.02294 8.5135H18.5074L13.707 13.2698C13.3075 13.6656 13.3075 14.3073 13.707 14.7032C13.9067 14.9009 14.1686 15 14.4304 15C14.6921 15 14.9539 14.9009 15.1537 14.7032L21.7004 8.21667C22.0999 7.82083 22.0999 7.17915 21.7004 6.78331Z" transform="translate(22 15.0005) rotate(180)" fill="white" fill-opacity="0.7"/>
</svg>
