<svg width="38" height="10" viewBox="0 0 38 10" fill="none" xmlns="http://www.w3.org/2000/svg">
<path d="M37.7905 4.52221L33.2134 0.197879C32.9341 -0.0659595 32.4812 -0.0659595 32.202 0.197879C31.9227 0.461771 31.9227 0.889555 32.202 1.15345L35.5582 4.32432H0.715173C0.320226 4.32432 0 4.62686 0 4.99999C0 5.37307 0.320226 5.67567 0.715173 5.67567H35.5582L32.2021 8.84654C31.9228 9.11043 31.9228 9.53822 32.2021 9.80211C32.3417 9.93395 32.5248 10 32.7078 10C32.8908 10 33.0739 9.93395 33.2135 9.80211L37.7905 5.47778C38.0698 5.21389 38.0698 4.7861 37.7905 4.52221Z" transform="translate(38 10) rotate(180)" fill="white" fill-opacity="0.7"/>
</svg>
