<svg width="47" height="52" viewBox="0 0 47 52" fill="none" xmlns="http://www.w3.org/2000/svg">
<rect x="1" y="1" width="45" height="45" rx="4" transform="translate(0 5)" stroke="#F83D5E" stroke-width="2"/>
<rect x="1" y="1" width="6" height="6" rx="1" transform="translate(8 15)" stroke="#F83D5E" stroke-width="2"/>
<rect x="1" y="1" width="6" height="6" rx="1" transform="translate(20 15)" stroke="#F83D5E" stroke-width="2"/>
<rect x="1" y="1" width="6" height="6" rx="1" transform="translate(31 15)" stroke="#F83D5E" stroke-width="2"/>
<rect x="1" y="1" width="6" height="6" rx="1" transform="translate(8 26)" stroke="#F83D5E" stroke-width="2"/>
<rect x="1" y="1" width="6" height="6" rx="1" transform="translate(20 26)" stroke="#F83D5E" stroke-width="2"/>
<rect x="1" y="1" width="6" height="6" rx="1" transform="translate(31 26)" stroke="#F83D5E" stroke-width="2"/>
<rect x="1" y="1" width="6" height="6" rx="1" transform="translate(8 37)" stroke="#F83D5E" stroke-width="2"/>
<rect x="1" y="1" width="6" height="6" rx="1" transform="translate(20 37)" stroke="#F83D5E" stroke-width="2"/>
<rect x="1" y="1" width="6" height="6" rx="1" transform="translate(31 37)" stroke="#F83D5E" stroke-width="2"/>
<rect x="1" y="1" width="4" height="10" rx="2" transform="translate(8)" fill="white" stroke="#F83D5E" stroke-width="2"/>
<rect x="1" y="1" width="4" height="10" rx="2" transform="translate(33)" fill="white" stroke="#F83D5E" stroke-width="2"/>
</svg>
