<svg width="19" height="34" viewBox="0 0 19 34" fill="none" xmlns="http://www.w3.org/2000/svg">
<path d="M17.643 0.00707427L13.2456 0C8.30537 0 5.11276 3.28423 5.11276 8.36745V12.2254H0.691438C0.309383 12.2254 -1.18424e-07 12.536 -1.18424e-07 12.919V18.5088C-1.18424e-07 18.8918 0.309736 19.202 0.691438 19.202H5.11276V33.3067C5.11276 33.6898 5.42214 34 5.8042 34H11.5728C11.9548 34 12.2642 33.6894 12.2642 33.3067V19.202H17.4338C17.8158 19.202 18.1252 18.8918 18.1252 18.5088L18.1273 12.919C18.1273 12.7351 18.0543 12.559 17.9248 12.4288C17.7954 12.2986 17.619 12.2254 17.4355 12.2254H12.2642V8.95496C12.2642 7.38306 12.6378 6.58508 14.68 6.58508L17.6422 6.58402C18.0239 6.58402 18.3333 6.27346 18.3333 5.89074V0.700353C18.3333 0.317988 18.0243 0.0077817 17.643 0.00707427Z" transform="translate(0.666504)" fill="white"/>
</svg>
