<svg width="28" height="30" viewBox="0 0 28 30" fill="none" xmlns="http://www.w3.org/2000/svg">
<path d="M7.34653 30C5.37672 30 3.53006 29.2201 2.14645 27.804C0.762849 26.3879 0 24.4992 0 22.4839C0 20.4692 0.762291 18.5799 2.14645 17.1644L17.3555 1.60426C19.5315 -0.620815 22.9128 -0.521048 25.2203 1.83971C27.5277 4.20046 27.6269 7.65921 25.451 9.88599L11.163 24.5037C9.82175 25.8759 7.6374 25.8782 6.29392 24.5037C4.95155 23.1298 4.95211 20.8951 6.29392 19.5223L15.9725 9.62033C16.299 9.28625 16.8278 9.28625 17.1543 9.62033C17.4809 9.9544 17.4809 10.4954 17.1543 10.8295L7.47581 20.7314C6.7854 21.4378 6.7854 22.5877 7.47581 23.2946C8.16733 24.0009 9.29071 23.9998 9.98111 23.2946L24.2691 8.67683C25.7708 7.13986 25.6722 4.72038 24.0384 3.04887C22.4046 1.37736 20.0397 1.27645 18.5374 2.81342L3.32834 18.3735C2.26013 19.4664 1.67169 20.9264 1.67169 22.4839C1.67169 24.042 2.26013 25.502 3.32834 26.5948C4.39655 27.6877 5.82362 28.2897 7.34653 28.2897C8.86888 28.2897 10.2959 27.6877 11.3642 26.5948L26.5732 11.0347C26.8997 10.7007 27.4286 10.7007 27.7551 11.0347C28.0816 11.3688 28.0816 11.9098 27.7551 12.2439L12.546 27.804C11.1624 29.2195 9.31578 30 7.34653 30Z" fill="#E13434"/>
</svg>
