<svg width="43" height="62" viewBox="0 0 43 62" fill="none" xmlns="http://www.w3.org/2000/svg">
<rect x="1" y="1" width="41" height="54" rx="4" transform="translate(0 6)" stroke="#F83D5E" stroke-width="2"/>
<rect x="1" y="1" width="23" height="10" rx="1" transform="translate(9)" fill="white" stroke="#F83D5E" stroke-width="2"/>
<rect width="13" height="2" rx="1" transform="translate(21 21)" fill="#F83D5E"/>
<rect width="8" height="2" rx="1" transform="translate(10.4373 23.6567) rotate(-45)" fill="#F83D5E"/>
<rect width="5.13321" height="2" rx="1" transform="translate(13.0439 23.6567) scale(-1 1) rotate(-45)" fill="#F83D5E"/>
<rect width="13" height="2" rx="1" transform="translate(21 32)" fill="#F83D5E"/>
<rect width="8" height="2" rx="1" transform="translate(10.4373 34.6567) rotate(-45)" fill="#F83D5E"/>
<rect width="5.13321" height="2" rx="1" transform="translate(13.0439 34.6567) scale(-1 1) rotate(-45)" fill="#F83D5E"/>
<rect width="13" height="2" rx="1" transform="translate(21 43)" fill="#F83D5E"/>
<rect width="8" height="2" rx="1" transform="translate(10.4373 45.6567) rotate(-45)" fill="#F83D5E"/>
<rect width="5.13321" height="2" rx="1" transform="translate(13.0439 45.6567) scale(-1 1) rotate(-45)" fill="#F83D5E"/>
</svg>
