<svg width="12" height="23" viewBox="0 0 12 23" fill="none" xmlns="http://www.w3.org/2000/svg">
<path d="M2.21311 4.915C2.21311 4.915 3.09911 3.773 2.52611 2.187C1.95111 0.602 0.612107 -9.53674e-08 0.612107 -9.53674e-08C0.612107 -9.53674e-08 -0.389893 1.361 0.170107 2.906C0.729107 4.452 2.21311 4.915 2.21311 4.915Z" transform="translate(0.922607 3.11694)" fill="#FF8500"/>
<path d="M0.202558 4.441C0.202558 4.441 1.75156 4.317 2.63856 2.932C3.52556 1.548 2.84756 2.28882e-07 2.84756 2.28882e-07C2.84756 2.28882e-07 1.40956 0.292 0.498558 1.713C-0.411442 3.133 0.202558 4.441 0.202558 4.441Z" transform="translate(5.39209 4.4021)" fill="#FF8500"/>
<path d="M0.30335 2.003C-0.41365 3.53 0.365351 4.748 0.365351 4.748C0.365351 4.748 1.88635 4.422 2.58435 2.935C3.28135 1.446 2.40735 -1.2207e-07 2.40735 -1.2207e-07C2.40735 -1.2207e-07 1.02035 0.476 0.30335 2.003Z" transform="translate(5.44824 8.66992)" fill="#FF8500"/>
<path d="M2.09776 -3.20435e-07C2.09776 -3.20435e-07 0.760764 0.605999 0.190764 2.192C-0.379236 3.781 0.509764 4.919 0.509764 4.919C0.509764 4.919 1.99176 4.452 2.54776 2.905C3.10276 1.358 2.09776 -3.20435e-07 2.09776 -3.20435e-07Z" transform="translate(7.15479 11.9031)" fill="#FF8500"/>
<path d="M1.09569 5.168C1.09569 5.168 2.38169 4.293 2.46869 2.652C2.55469 1.01 1.19969 -3.05176e-07 1.19969 -3.05176e-07C1.19969 -3.05176e-07 0.093692 0.965 0.00469205 2.649C-0.083308 4.332 1.09569 5.168 1.09569 5.168Z" transform="translate(9.271 15.0869)" fill="#FF8500"/>
<path d="M0.676853 4.976C0.676853 4.976 2.04785 4.518 2.44985 2.881C2.85285 1.244 2.07385 4.00543e-08 2.07385 4.00543e-08C2.07385 4.00543e-08 0.485853 0.576 0.0928527 2.173C-0.299147 3.769 0.676853 4.976 0.676853 4.976Z" transform="translate(4.43384)" fill="#FF8500"/>
<path d="M3.1346 4.225C3.1346 4.225 3.6436 2.872 2.6286 1.527C1.6116 0.181 0.155603 -9.15527e-08 0.155603 -9.15527e-08C0.155603 -9.15527e-08 -0.400397 1.596 0.589603 2.908C1.5796 4.221 3.1346 4.225 3.1346 4.225Z" transform="translate(0 7.28809)" fill="#FF8500"/>
<path d="M3.85298 3.46378C3.85298 3.46378 4.04798 2.03178 2.75998 0.94578C1.46998 -0.14122 0.00997915 0.00677975 0.00997915 0.00677975C0.00997915 0.00677975 -0.178021 1.68678 1.07798 2.74578C2.33598 3.80378 3.85298 3.46378 3.85298 3.46378Z" transform="translate(0.417725 11.6191)" fill="#FF8500"/>
<path d="M4.708 2.37241C4.708 2.37241 4.463 0.948407 2.905 0.304407C1.346 -0.341593 -1.71661e-08 0.241406 -1.71661e-08 0.241406C-1.71661e-08 0.241406 0.33 1.89941 1.848 2.52941C3.366 3.15641 4.708 2.37241 4.708 2.37241Z" transform="translate(1.29272 15.6626)" fill="#FF8500"/>
<path d="M2.892 0.147492C1.268 -0.306508 9.53674e-09 0.432492 9.53674e-09 0.432492C9.53674e-09 0.432492 0.525 2.03849 2.107 2.48149C3.691 2.92449 4.929 1.98549 4.929 1.98549C4.929 1.98549 4.516 0.600492 2.892 0.147492Z" transform="translate(3.8645 19.1135)" fill="#FF8500"/>
<path d="M1.3946 0.355L0.672595 -7.62939e-08C0.634595 0.0789999 -3.0794 7.968 7.3566 16.889L7.8786 16.278C-2.0574 7.783 1.2486 0.654 1.3946 0.355Z" transform="translate(3.88501 5.59692)" fill="#FF8500"/>
</svg>
