<svg width="12" height="23" viewBox="0 0 12 23" fill="none" xmlns="http://www.w3.org/2000/svg">
<path d="M0.506331 4.915C0.506331 4.915 -0.380669 3.773 0.193331 2.188C0.766331 0.602 2.10633 3.8147e-08 2.10633 3.8147e-08C2.10633 3.8147e-08 3.10733 1.36 2.54733 2.906C1.99033 4.452 0.506331 4.915 0.506331 4.915Z" transform="translate(8.12061 3.11792)" fill="#FF8500"/>
<path d="M2.89379 4.441C2.89379 4.441 1.34479 4.316 0.456794 2.932C-0.430206 1.548 0.247794 -1.14441e-07 0.247794 -1.14441e-07C0.247794 -1.14441e-07 1.68579 0.292 2.59779 1.712C3.50779 3.133 2.89379 4.441 2.89379 4.441Z" transform="translate(3.27417 4.40308)" fill="#FF8500"/>
<path d="M2.55128 2.003C3.26828 3.53 2.48928 4.748 2.48928 4.748C2.48928 4.748 0.968283 4.422 0.269283 2.935C-0.426717 1.446 0.446283 8.39233e-08 0.446283 8.39233e-08C0.446283 8.39233e-08 1.83428 0.477 2.55128 2.003Z" transform="translate(3.45972 8.66992)" fill="#FF8500"/>
<path d="M0.617537 2.89917e-07C0.617537 2.89917e-07 1.95354 0.605 2.52454 2.194C3.09454 3.782 2.20454 4.92 2.20454 4.92C2.20454 4.92 0.723539 4.452 0.167539 2.905C-0.388461 1.358 0.617537 2.89917e-07 0.617537 2.89917e-07Z" transform="translate(1.89258 11.9041)" fill="#FF8500"/>
<path d="M1.37592 5.169C1.37592 5.169 0.0909246 4.295 0.0039246 2.653C-0.0820754 1.011 1.27393 -5.0354e-07 1.27393 -5.0354e-07C1.27393 -5.0354e-07 2.37793 0.964999 2.46793 2.65C2.55693 4.335 1.37592 5.169 1.37592 5.169Z" transform="translate(0.0180664 15.0859)" fill="#FF8500"/>
<path d="M1.88661 4.977C1.88661 4.977 0.517611 4.519 0.115611 2.882C-0.287389 1.245 0.492609 7.62939e-09 0.492609 7.62939e-09C0.492609 7.62939e-09 2.08061 0.576 2.47261 2.174C2.86461 3.769 1.88661 4.977 1.88661 4.977Z" transform="translate(4.76343)" fill="#FF8500"/>
<path d="M0.127751 4.225C0.127751 4.225 -0.381248 2.872 0.632752 1.527C1.64975 0.181 3.10675 -4.34875e-07 3.10675 -4.34875e-07C3.10675 -4.34875e-07 3.66375 1.596 2.67275 2.908C1.68175 4.221 0.127751 4.225 0.127751 4.225Z" transform="translate(8.50024 7.28906)" fill="#FF8500"/>
<path d="M0.010658 3.46479C0.010658 3.46479 -0.185342 2.03279 1.10366 0.94479C2.39366 -0.14121 3.85366 0.00678978 3.85366 0.00678978C3.85366 0.00678978 4.04166 1.68779 2.78466 2.74579C1.52766 3.80379 0.010658 3.46479 0.010658 3.46479Z" transform="translate(7.48145 11.6191)" fill="#FF8500"/>
<path d="M5.64575e-07 2.37441C5.64575e-07 2.37441 0.246 0.949407 1.804 0.304407C3.364 -0.341593 4.709 0.241408 4.709 0.241408C4.709 0.241408 4.379 1.89941 2.861 2.52841C1.342 3.15841 5.64575e-07 2.37441 5.64575e-07 2.37441Z" transform="translate(5.76099 15.6616)" fill="#FF8500"/>
<path d="M2.035 0.147081C3.659 -0.305919 4.928 0.43208 4.928 0.43208C4.928 0.43208 4.404 2.03708 2.821 2.48308C1.238 2.92408 1.98364e-07 1.98508 1.98364e-07 1.98508C1.98364e-07 1.98508 0.412 0.601081 2.035 0.147081Z" transform="translate(2.96997 19.115)" fill="#FF8500"/>
<path d="M6.482 0.355L7.206 -4.19617e-07C7.244 0.0789996 10.958 7.968 0.521001 16.888L8.8501e-07 16.277C9.934 7.784 6.628 0.653 6.482 0.355Z" transform="translate(0 5.5979)" fill="#FF8500"/>
</svg>
