<svg width="430" height="386" viewBox="0 0 430 386" fill="none" xmlns="http://www.w3.org/2000/svg">
<path fill-rule="evenodd" clip-rule="evenodd" d="M217.5 377.814C328.233 377.814 418 288.048 418 177.314C418 110.25 385.074 50.876 334.506 14.4766C391.804 49.7695 430 113.081 430 185.314C430 296.048 340.233 385.814 229.5 385.814C224.624 385.814 219.789 385.64 215 385.298C210.211 385.64 205.376 385.814 200.5 385.814C89.7666 385.814 0 296.048 0 185.314C0 101.74 51.1328 30.1104 123.82 0C60.2861 33.6367 17 100.42 17 177.314C17 288.048 106.767 377.814 217.5 377.814Z" transform="translate(0 0.185547)" fill="#F38B12"/>
</svg>
