<svg width="36" height="30" viewBox="0 0 36 30" fill="none" xmlns="http://www.w3.org/2000/svg">
<path d="M35.8333 3.43404C34.5145 4.01679 33.0993 4.41199 31.6125 4.58843C33.1307 3.68189 34.2928 2.24398 34.8436 0.53586C33.4195 1.37538 31.8476 1.98498 30.1727 2.31544C28.8314 0.888681 26.9236 1.1047e-07 24.8076 1.1047e-07C20.748 1.1047e-07 17.4564 3.28224 17.4564 7.3281C17.4564 7.90191 17.5214 8.46235 17.6468 8.99827C11.5384 8.69233 6.12183 5.77406 2.49663 1.33965C1.86293 2.42036 1.50243 3.67961 1.50243 5.02381C1.50243 7.56701 2.80115 9.81099 4.77164 11.1238C3.56694 11.0837 2.43392 10.7532 1.442 10.2039V10.2955C1.442 13.8456 3.97674 16.8086 7.33771 17.4829C6.72192 17.6482 6.07259 17.7397 5.40083 17.7397C4.92615 17.7397 4.46711 17.6928 4.01703 17.6035C4.95297 20.5173 7.66688 22.6362 10.8823 22.6943C8.36774 24.6592 5.19707 25.827 1.75326 25.827C1.1599 25.827 0.575442 25.7913 0 25.7265C3.25352 27.8097 7.11609 29.0244 11.2675 29.0244C24.7898 29.0244 32.1813 17.8558 32.1813 8.1699L32.1567 7.22096C33.6009 6.19379 34.8503 4.90325 35.8333 3.43404Z" transform="translate(0.166504 0.487793)" fill="white"/>
</svg>
