<svg width="38" height="23" viewBox="0 0 38 23" fill="none" xmlns="http://www.w3.org/2000/svg">
<path d="M37.3011 19.4719C37.2557 19.3733 37.2134 19.2915 37.1741 19.226C36.5234 18.0451 35.2801 16.5957 33.4448 14.8773L33.4061 14.8379L33.3866 14.8186L33.367 14.7989H33.3473C32.5144 13.9987 31.9869 13.4607 31.766 13.1852C31.3619 12.6605 31.2713 12.1294 31.4922 11.5912C31.6483 11.1846 32.2345 10.3259 33.2495 9.014C33.7834 8.31871 34.2062 7.76147 34.5184 7.34163C36.7704 4.32453 37.7468 2.39656 37.4473 1.55697L37.3309 1.36077C37.2528 1.24265 37.051 1.13459 36.726 1.03604C36.4002 0.937701 35.9838 0.921438 35.476 0.986976L29.8531 1.02612C29.762 0.993592 29.6319 0.996624 29.4625 1.03604C29.2932 1.07546 29.2085 1.09524 29.2085 1.09524L29.1107 1.14452L29.033 1.20371C28.9679 1.24286 28.8963 1.3117 28.8181 1.41011C28.7404 1.50818 28.6753 1.62327 28.6234 1.75441C28.0112 3.3416 27.3151 4.81728 26.534 6.18138C26.0523 6.99478 25.61 7.69972 25.2061 8.29659C24.8027 8.89326 24.4642 9.33287 24.1911 9.61466C23.9175 9.89673 23.6707 10.1227 23.449 10.2934C23.2276 10.4642 23.0586 10.5363 22.9416 10.5099C22.8243 10.4835 22.7139 10.4574 22.6093 10.4312C22.4272 10.313 22.2807 10.1524 22.1703 9.9491C22.0594 9.7458 21.9847 9.48992 21.9456 9.18167C21.9068 8.8732 21.8838 8.60788 21.8772 8.3848C21.8712 8.162 21.874 7.84685 21.8872 7.44025C21.9007 7.03345 21.9068 6.7582 21.9068 6.61389C21.9068 6.11536 21.9164 5.57431 21.9358 4.9906C21.9555 4.40689 21.9714 3.9444 21.9847 3.60368C21.998 3.26262 22.0042 2.90178 22.0042 2.52137C22.0042 2.14096 21.9812 1.84262 21.9358 1.62609C21.8909 1.40984 21.8221 1.19992 21.7313 0.996417C21.64 0.793118 21.5064 0.635854 21.331 0.524211C21.1554 0.412707 20.9369 0.324219 20.677 0.258475C19.9871 0.101141 19.1085 0.0160314 18.0409 0.00279969C15.62 -0.023388 14.0644 0.134152 13.3746 0.475212C13.1012 0.619314 12.8539 0.816204 12.6327 1.06526C12.3984 1.35395 12.3657 1.51149 12.5349 1.5374C13.316 1.65531 13.8689 1.93738 14.1944 2.38333L14.3117 2.61964C14.4029 2.79014 14.494 3.09199 14.5851 3.52477C14.6761 3.95756 14.7349 4.43631 14.7607 4.96076C14.8257 5.91847 14.8257 6.73828 14.7607 7.42027C14.6956 8.10253 14.634 8.63365 14.5753 9.01406C14.5165 9.39448 14.4287 9.70273 14.3117 9.93877C14.1944 10.1749 14.1163 10.3192 14.0772 10.3716C14.0382 10.4239 14.0056 10.4569 13.9798 10.4699C13.8106 10.5352 13.6346 10.5685 13.4525 10.5685C13.2701 10.5685 13.049 10.4766 12.7887 10.2929C12.5285 10.1091 12.2584 9.85676 11.9785 9.53534C11.6986 9.21385 11.383 8.76459 11.0314 8.1875C10.6801 7.6104 10.3156 6.92835 9.9381 6.14134L9.62578 5.57059C9.43054 5.20341 9.16384 4.66876 8.8254 3.96714C8.48675 3.26524 8.18743 2.58629 7.92722 1.93042C7.8232 1.65497 7.66694 1.44526 7.45871 1.30095L7.36098 1.24175C7.29602 1.18938 7.19173 1.13376 7.04866 1.0745C6.9054 1.0153 6.7559 0.972848 6.59957 0.946729L1.24982 0.985873C0.703143 0.985873 0.332218 1.11068 0.136908 1.35994L0.0587434 1.47786C0.0196951 1.54353 0 1.64842 0 1.7928C0 1.93711 0.0390483 2.11422 0.117213 2.32393C0.89818 4.17361 1.74746 5.95748 2.66506 7.6758C3.58267 9.39413 4.38004 10.7783 5.05672 11.827C5.73354 12.8765 6.42341 13.8671 7.12635 14.7981C7.82929 15.7295 8.29459 16.3264 8.52224 16.5886C8.75017 16.8513 8.92921 17.0477 9.05934 17.1788L9.54755 17.651C9.85994 17.9659 10.3187 18.343 10.924 18.7823C11.5294 19.2219 12.1996 19.6547 12.935 20.0813C13.6706 20.5073 14.5263 20.8549 15.5027 21.1238C16.4789 21.3929 17.429 21.5009 18.3533 21.4488H20.5986C21.054 21.4091 21.399 21.2648 21.6335 21.0158L21.7112 20.9171C21.7634 20.8389 21.8123 20.7172 21.8575 20.5535C21.9032 20.3896 21.9259 20.209 21.9259 20.0125C21.9125 19.4486 21.9551 18.9403 22.0525 18.4878C22.1498 18.0355 22.2607 17.6944 22.3848 17.4647C22.5088 17.2352 22.6487 17.0416 22.8044 16.8846C22.9605 16.7272 23.0717 16.6319 23.1369 16.5991C23.2017 16.5661 23.2535 16.5437 23.2926 16.5303C23.6049 16.4254 23.9726 16.527 24.396 16.8355C24.8191 17.1438 25.216 17.5244 25.5872 17.9767C25.9582 18.4295 26.4039 18.9375 26.9245 19.5014C27.4454 20.0656 27.9008 20.4849 28.2912 20.7608L28.6815 20.9969C28.9422 21.1544 29.2806 21.2987 29.6972 21.4299C30.1131 21.5609 30.4774 21.5938 30.7903 21.5282L35.7884 21.4497C36.2828 21.4497 36.6675 21.3672 36.9403 21.2035C37.2137 21.0395 37.3761 20.8589 37.4285 20.6624C37.4808 20.4658 37.4836 20.2426 37.4384 19.9931C37.3921 19.7443 37.3465 19.5703 37.3011 19.4719Z" transform="translate(0 0.463379)" fill="white"/>
</svg>
