<svg width="618" height="644" viewBox="0 0 618 644" fill="none" xmlns="http://www.w3.org/2000/svg">
<path fill-rule="evenodd" clip-rule="evenodd" d="M15 0C6.7157 0 0 6.71582 0 15V629C0 637.284 6.7157 644 15 644H603C611.284 644 618 637.284 618 629V15C618 6.71582 611.284 0 603 0H15ZM306.5 617C417.233 617 507 527.233 507 416.5C507 305.767 417.233 216 306.5 216C195.767 216 106 305.767 106 416.5C106 527.233 195.767 617 306.5 617Z" fill="url(#paint0_linear)"/>
<path fill-rule="evenodd" clip-rule="evenodd" d="M217.5 377.814C328.233 377.814 418 288.048 418 177.314C418 110.25 385.074 50.876 334.505 14.4766C391.803 49.7695 430 113.081 430 185.314C430 296.048 340.233 385.814 229.5 385.814C224.624 385.814 219.789 385.64 215 385.298C210.211 385.64 205.376 385.814 200.5 385.814C89.7668 385.814 0 296.048 0 185.314C0 101.74 51.1328 30.1104 123.82 0C60.286 33.6367 17 100.42 17 177.314C17 288.048 106.767 377.814 217.5 377.814Z" transform="translate(89 239.186)" fill="#0C233F"/>
<defs>
<linearGradient id="paint0_linear" x2="1" gradientUnits="userSpaceOnUse" gradientTransform="translate(914.028) scale(1214.05 672) rotate(90)">
<stop offset="0.19337" stop-color="#102F53"/>
<stop offset="0.730472" stop-color="#023876" stop-opacity="0.8"/>
<stop offset="0.999747" stop-color="#102F53"/>
</linearGradient>
</defs>
</svg>
