<svg width="224" height="303" viewBox="0 0 224 303" fill="none" xmlns="http://www.w3.org/2000/svg">
<rect x="0.932435" y="15.1462" width="203" height="288" rx="9" transform="rotate(-4.01507 0.932435 15.1462)" fill="#5DC68D" stroke="#02221F" stroke-width="2"/>
<path d="M108.794 90.7796C118.306 90.1119 127.18 91.0956 135.415 93.7308C143.75 96.3588 150.471 100.355 155.577 105.72C160.683 111.085 163.495 117.465 164.014 124.859C164.435 130.854 163.345 136.102 160.742 140.602C158.14 145.102 154.681 148.859 150.364 151.874L142.719 156.929C138.582 159.629 135.844 161.478 134.505 162.476C132.3 164.036 130.807 165.697 130.025 167.459C129.243 169.221 128.932 171.251 129.094 173.549L94.6982 175.963C94.1651 168.37 95.5222 161.898 98.7693 156.549C102.009 151.101 107.752 146.179 115.996 141.785C119.682 139.819 122.306 137.777 123.868 135.659C125.523 133.435 126.26 131.023 126.077 128.425C125.874 125.528 124.297 123.128 121.346 121.227C118.495 119.318 114.967 118.512 110.761 118.807C105.054 119.207 100.696 120.919 97.688 123.942C94.7803 126.957 93.5052 131.013 93.8629 136.109C94.0032 138.107 94.4649 140.384 95.248 142.94C87.0761 141.204 75.0297 140.895 59.1086 142.012C58.9453 141.12 58.8076 139.875 58.6954 138.276C58.1063 129.883 59.7832 122.234 63.7261 115.33C67.7622 108.32 73.6558 102.685 81.4069 98.4254C89.2511 94.0592 98.3801 91.5106 108.794 90.7796ZM131.905 211.458L97.0593 213.903L95.1868 187.225L130.033 184.779L131.905 211.458Z" fill="#0C5A59"/>
</svg>
