<svg width="47" height="36" viewBox="0 0 47 36" fill="none" xmlns="http://www.w3.org/2000/svg">
<rect width="46.7108" height="35.7109" fill="black" fill-opacity="0"/>
<rect width="24" height="24" fill="black" fill-opacity="0" transform="translate(0 6)"/>
<mask id="path-1-inside-1" fill="white">
<path d="M22.0424 20.0272C21.9368 19.7711 22.0523 19.5399 22.2584 19.3747L24 17.9243L23.8893 16.1829L22.8954 16.8503C22.6549 17.0107 22.3584 17.0361 22.1777 16.8252C21.997 16.6146 22.0374 16.3585 22.1831 16.1377L23.3876 14.2206L22.7455 12.5997L22.0077 13.5382C21.8318 13.7689 21.556 13.8793 21.3151 13.7338C21.0791 13.5882 21.0387 13.3374 21.1093 13.0814L21.6613 10.8881L20.5522 9.54308L20.1405 10.6674C20.04 10.9384 19.8144 11.129 19.5433 11.064C19.2723 10.9985 19.1568 10.773 19.1421 10.5067L18.9911 8.24827L17.5208 7.31486L17.4757 8.50915C17.4652 8.79544 17.3099 9.05124 17.0287 9.07129C16.7528 9.09614 16.5727 8.91572 16.477 8.66472L15.6339 6.56694L13.9477 6.13044L14.2735 7.28436C14.354 7.56077 14.2834 7.85158 14.0279 7.95718C13.7718 8.06249 13.5408 7.94701 13.3753 7.74119L11.9246 6L10.1833 6.11039L10.8505 7.10423C11.0112 7.34535 11.0366 7.64124 10.8257 7.82194C10.6151 8.00264 10.3592 7.96254 10.1382 7.81686L8.22071 6.61239L6.59972 7.25472L7.53854 7.99247C7.76922 8.16837 7.87962 8.44421 7.73393 8.68533C7.58795 8.92109 7.33722 8.96146 7.08169 8.89116L4.88809 8.3389L3.54325 9.44793L4.66701 9.85958C4.93807 9.95981 5.12894 10.186 5.06372 10.457C4.99849 10.7278 4.77261 10.8435 4.50692 10.8585L2.24838 11.0087L1.31464 12.4794L2.50899 12.5246C2.79529 12.5348 3.05111 12.69 3.07115 12.9712C3.09628 13.2423 2.91586 13.4281 2.66513 13.5235L0.567247 14.3657L0.130447 16.0521L1.27962 15.726C1.56141 15.6456 1.85195 15.7159 1.95755 15.972C2.06315 16.228 1.94739 16.459 1.74155 16.6244L0 18.0745L0.1104 19.816L1.10456 19.1488C1.34513 18.9882 1.6416 18.9631 1.82202 19.1737C2.00273 19.3843 1.96264 19.6404 1.81666 19.8612L0.612141 21.7786L1.25449 23.3992L1.99228 22.461C2.16819 22.2303 2.44376 22.1196 2.68518 22.2653C2.92094 22.4113 2.96132 22.662 2.89073 22.9175L2.33873 25.111L3.44781 26.4564L3.85948 25.3321C3.96 25.061 4.1856 24.8705 4.45694 24.9357C4.72772 25.0012 4.84348 25.2268 4.85816 25.493L5.00922 27.7514L6.47972 28.6851L6.52489 27.4906C6.53534 27.2043 6.69035 26.9485 6.97186 26.9287C7.24772 26.9036 7.42786 27.0843 7.52386 27.335L8.36668 29.4328L10.0532 29.8693L9.72706 28.7154C9.64659 28.4389 9.71718 28.1479 9.97271 28.0425C10.2288 27.9369 10.4595 28.0524 10.6252 28.2585L12.076 30L13.8172 29.8893L13.15 28.8955C12.9894 28.6544 12.9642 28.3588 13.1749 28.1778C13.3855 27.9971 13.6413 28.0375 13.8624 28.1831L15.7799 29.3876L17.4006 28.7456L16.462 28.0078C16.2313 27.8319 16.1209 27.5561 16.2666 27.3152C16.4126 27.0792 16.6633 27.0388 16.9189 27.1094L19.1125 27.6617L20.4576 26.5526L19.3341 26.141C19.0628 26.0408 18.8719 25.8146 18.9374 25.5438C19.0026 25.2728 19.2285 25.1573 19.4942 25.1421L21.7528 24.9919L22.6868 23.5214L21.4921 23.4763C21.2058 23.4661 20.95 23.3105 20.9303 23.0296C20.9051 22.7586 21.0856 22.5731 21.3363 22.4776L23.4344 21.6346L23.8712 19.9484L22.7224 20.2742C22.4389 20.3533 22.1478 20.2827 22.0424 20.0272ZM12 21.0106C10.3389 21.0106 8.98871 19.6604 8.98871 17.9994C8.98871 16.3384 10.3389 14.9883 12 14.9883C13.6611 14.9883 15.0113 16.3384 15.0113 17.9994C15.0113 19.6604 13.6611 21.0106 12 21.0106Z"/>
</mask>
<path d="M22.0424 20.0272C21.9368 19.7711 22.0523 19.5399 22.2584 19.3747L24 17.9243L23.8893 16.1829L22.8954 16.8503C22.6549 17.0107 22.3584 17.0361 22.1777 16.8252C21.997 16.6146 22.0374 16.3585 22.1831 16.1377L23.3876 14.2206L22.7455 12.5997L22.0077 13.5382C21.8318 13.7689 21.556 13.8793 21.3151 13.7338C21.0791 13.5882 21.0387 13.3374 21.1093 13.0814L21.6613 10.8881L20.5522 9.54308L20.1405 10.6674C20.04 10.9384 19.8144 11.129 19.5433 11.064C19.2723 10.9985 19.1568 10.773 19.1421 10.5067L18.9911 8.24827L17.5208 7.31486L17.4757 8.50915C17.4652 8.79544 17.3099 9.05124 17.0287 9.07129C16.7528 9.09614 16.5727 8.91572 16.477 8.66472L15.6339 6.56694L13.9477 6.13044L14.2735 7.28436C14.354 7.56077 14.2834 7.85158 14.0279 7.95718C13.7718 8.06249 13.5408 7.94701 13.3753 7.74119L11.9246 6L10.1833 6.11039L10.8505 7.10423C11.0112 7.34535 11.0366 7.64124 10.8257 7.82194C10.6151 8.00264 10.3592 7.96254 10.1382 7.81686L8.22071 6.61239L6.59972 7.25472L7.53854 7.99247C7.76922 8.16837 7.87962 8.44421 7.73393 8.68533C7.58795 8.92109 7.33722 8.96146 7.08169 8.89116L4.88809 8.3389L3.54325 9.44793L4.66701 9.85958C4.93807 9.95981 5.12894 10.186 5.06372 10.457C4.99849 10.7278 4.77261 10.8435 4.50692 10.8585L2.24838 11.0087L1.31464 12.4794L2.50899 12.5246C2.79529 12.5348 3.05111 12.69 3.07115 12.9712C3.09628 13.2423 2.91586 13.4281 2.66513 13.5235L0.567247 14.3657L0.130447 16.0521L1.27962 15.726C1.56141 15.6456 1.85195 15.7159 1.95755 15.972C2.06315 16.228 1.94739 16.459 1.74155 16.6244L0 18.0745L0.1104 19.816L1.10456 19.1488C1.34513 18.9882 1.6416 18.9631 1.82202 19.1737C2.00273 19.3843 1.96264 19.6404 1.81666 19.8612L0.612141 21.7786L1.25449 23.3992L1.99228 22.461C2.16819 22.2303 2.44376 22.1196 2.68518 22.2653C2.92094 22.4113 2.96132 22.662 2.89073 22.9175L2.33873 25.111L3.44781 26.4564L3.85948 25.3321C3.96 25.061 4.1856 24.8705 4.45694 24.9357C4.72772 25.0012 4.84348 25.2268 4.85816 25.493L5.00922 27.7514L6.47972 28.6851L6.52489 27.4906C6.53534 27.2043 6.69035 26.9485 6.97186 26.9287C7.24772 26.9036 7.42786 27.0843 7.52386 27.335L8.36668 29.4328L10.0532 29.8693L9.72706 28.7154C9.64659 28.4389 9.71718 28.1479 9.97271 28.0425C10.2288 27.9369 10.4595 28.0524 10.6252 28.2585L12.076 30L13.8172 29.8893L13.15 28.8955C12.9894 28.6544 12.9642 28.3588 13.1749 28.1778C13.3855 27.9971 13.6413 28.0375 13.8624 28.1831L15.7799 29.3876L17.4006 28.7456L16.462 28.0078C16.2313 27.8319 16.1209 27.5561 16.2666 27.3152C16.4126 27.0792 16.6633 27.0388 16.9189 27.1094L19.1125 27.6617L20.4576 26.5526L19.3341 26.141C19.0628 26.0408 18.8719 25.8146 18.9374 25.5438C19.0026 25.2728 19.2285 25.1573 19.4942 25.1421L21.7528 24.9919L22.6868 23.5214L21.4921 23.4763C21.2058 23.4661 20.95 23.3105 20.9303 23.0296C20.9051 22.7586 21.0856 22.5731 21.3363 22.4776L23.4344 21.6346L23.8712 19.9484L22.7224 20.2742C22.4389 20.3533 22.1478 20.2827 22.0424 20.0272ZM12 21.0106C10.3389 21.0106 8.98871 19.6604 8.98871 17.9994C8.98871 16.3384 10.3389 14.9883 12 14.9883C13.6611 14.9883 15.0113 16.3384 15.0113 17.9994C15.0113 19.6604 13.6611 21.0106 12 21.0106Z" stroke="#EC6D26" stroke-width="2" mask="url(#path-1-inside-1)"/>
<rect width="25.2514" height="25.2514" fill="black" fill-opacity="0" transform="translate(46.7108 17.8555) rotate(135)"/>
<rect width="25.2514" height="25.2514" fill="black" fill-opacity="0" transform="translate(46.7108 17.8555) rotate(135)"/>
<path d="M30.6483 25.3215C30.7262 25.2436 30.8338 25.1953 30.9529 25.1952C31.1915 25.1945 31.3854 25.3876 31.3861 25.6262L31.3961 29.9144C31.397 30.1525 31.2043 30.3466 30.965 30.3473C30.7264 30.348 30.5325 30.1548 30.5318 29.9162L30.5218 25.628C30.5215 25.5083 30.5697 25.4001 30.6483 25.3215Z" fill="#EC6D26"/>
<path d="M26.4519 18.8435C26.5302 18.7652 26.6383 18.7168 26.7578 18.717C26.9964 18.717 27.1897 18.9103 27.1897 19.149L27.1897 19.1511C27.192 19.7407 28.2626 20.9882 29.1232 21.9905C30.2869 23.3459 31.3861 24.6262 31.3863 25.6271C31.3863 25.8657 31.1926 26.0594 30.954 26.0594C30.7152 26.0592 30.5219 25.8659 30.5219 25.6273C30.5217 24.9464 29.3829 23.6194 28.4675 22.5532C27.9957 22.0042 27.5508 21.4856 27.1895 21.0022L27.1897 23.4475C27.1897 23.6861 26.9962 23.88 26.7572 23.8796C26.5186 23.8796 26.3253 23.6863 26.3251 23.4475L26.3254 19.1521C26.3256 19.1509 26.3254 19.15 26.3253 19.1491C26.3253 19.0298 26.3737 18.9217 26.4519 18.8435Z" fill="#EC6D26"/>
<path d="M26.4518 23.1413C26.5301 23.0631 26.6382 23.0147 26.7575 23.0147C26.9963 23.0148 27.1896 23.2082 27.1896 23.4468C27.1896 24.0356 28.2641 25.2813 29.1273 26.2828C30.294 27.6355 31.3964 28.9133 31.3964 29.9148C31.3964 30.1534 31.2027 30.3471 30.9641 30.3471C30.7253 30.3469 30.5319 30.1536 30.5319 29.915C30.5321 29.2344 29.3903 27.9108 28.473 26.8469C27.3207 25.5106 26.3253 24.3567 26.3252 23.447C26.3252 23.3277 26.3736 23.2196 26.4518 23.1413Z" fill="#EC6D26"/>
<path d="M30.6583 17.9368C30.7366 17.8586 30.8445 17.8103 30.9638 17.8103C31.2028 17.8103 31.3961 18.0037 31.3961 18.2423L31.3963 22.5403C31.3966 22.7792 31.2028 22.9728 30.9642 22.9728C30.7254 22.9726 30.532 22.7792 30.532 22.5406L30.5318 18.2426C30.5318 18.123 30.5801 18.0151 30.6583 17.9368Z" fill="#EC6D26"/>
<path d="M26.4516 11.4693C26.5298 11.391 26.6377 11.3428 26.757 11.3428C26.9958 11.3426 27.1895 11.5363 27.1895 11.7749L27.1891 11.7767C27.1914 12.366 28.2645 13.6103 29.127 14.6104C30.2939 15.9633 31.3961 17.2412 31.3963 18.2429C31.3959 18.4818 31.2029 18.6748 30.964 18.6752C30.7252 18.675 30.5318 18.4817 30.5318 18.2431C30.5318 17.5623 29.39 16.2384 28.4726 15.1746C27.9989 14.6254 27.5516 14.107 27.1893 13.6236L27.1895 16.0731C27.1895 16.3124 26.9962 16.5054 26.7575 16.5054C26.5189 16.5054 26.3252 16.3117 26.3252 16.0731L26.3249 11.7749C26.3251 11.7747 26.3251 11.7747 26.3251 11.7747C26.3251 11.6554 26.3733 11.5475 26.4516 11.4693Z" fill="#EC6D26"/>
<path d="M26.4518 15.7673C26.5301 15.689 26.638 15.6408 26.7573 15.6408C26.9961 15.6406 27.1898 15.8343 27.1896 16.0727C27.1898 16.6613 28.2639 17.907 29.1271 18.9082C30.294 20.2611 31.3963 21.5389 31.3963 22.5403C31.3967 22.7793 31.2028 22.9728 30.9642 22.9728C30.7256 22.9728 30.5321 22.7793 30.5321 22.5407C30.5321 21.8599 29.3903 20.5363 28.473 19.4724C27.3203 18.1365 26.3255 16.9824 26.3253 16.0727C26.3251 15.9536 26.3736 15.8455 26.4518 15.7673Z" fill="#EC6D26"/>
<path d="M26.4517 26.2175C26.53 26.1393 26.638 26.0908 26.7575 26.091C26.9961 26.091 27.1895 26.2844 27.1895 26.523C27.1895 27.1125 28.2617 28.3608 29.1229 29.3646C30.2867 30.7199 31.3859 32.0002 31.3861 33.0011C31.3861 33.2397 31.1924 33.4334 30.9538 33.4334C30.715 33.4333 30.5216 33.2399 30.5216 33.0013C30.5215 32.3204 29.3826 30.9935 28.4673 29.9272C27.9955 29.3783 27.5506 28.8596 27.1893 28.3763L27.1895 33.0013C27.1895 33.2399 26.996 33.4338 26.757 33.4334C26.5184 33.4334 26.325 33.2401 26.3249 33.0013L26.325 26.5231C26.325 26.4038 26.3735 26.2958 26.4517 26.2175Z" fill="#EC6D26"/>
<path d="M26.4519 32.6956C26.5947 32.5528 26.8233 32.5259 26.9975 32.6426L28.8554 33.8871L30.7132 32.6423C30.9117 32.5094 31.1801 32.5624 31.3128 32.761C31.4452 32.9595 31.3901 33.2265 31.1943 33.3605L29.0959 34.7663C28.9505 34.8636 28.7603 34.8636 28.615 34.7661L26.5168 33.3605C26.3182 33.2279 26.2652 32.9595 26.398 32.761C26.4142 32.7372 26.4322 32.7152 26.4519 32.6956Z" fill="#EC6D26"/>
<path d="M26.8511 17.575C26.9714 17.4546 27.1188 17.3444 27.2993 17.2492C27.5104 17.1381 27.7717 17.219 27.8831 17.43C27.9938 17.6411 27.9136 17.902 27.7022 18.0141C27.385 18.1811 27.1895 18.4292 27.1897 19.1488C27.1897 19.3874 26.9965 19.5809 26.7579 19.5809C26.5189 19.5812 26.3256 19.3879 26.3254 19.1491C26.3251 18.6385 26.3942 18.0318 26.8511 17.575Z" fill="#EC6D26"/>
<path d="M30.6585 22.2349C30.7368 22.1566 30.845 22.1084 30.9643 22.1084C31.203 22.1084 31.3965 22.3019 31.3965 22.5405C31.3956 23.3046 30.8333 23.8336 30.4596 24.1869C30.2857 24.3506 30.0004 24.3538 29.8365 24.1801C29.676 24.0097 29.6692 23.7538 29.8334 23.5895C29.8362 23.5867 29.8395 23.5837 29.8427 23.5806C30.1778 23.2651 30.5322 22.9311 30.5319 22.5405C30.5319 22.4212 30.5803 22.3131 30.6585 22.2349Z" fill="#EC6D26"/>
<path d="M26.8517 24.9604C26.9762 24.8358 27.1292 24.7235 27.3178 24.6293C27.5312 24.5226 27.7909 24.609 27.8975 24.8223C28.0046 25.0353 27.9174 25.2962 27.7045 25.402C27.3871 25.5618 27.1896 25.8043 27.1898 26.5231C27.1898 26.7617 26.9961 26.9554 26.7575 26.9554C26.5187 26.9553 26.3253 26.7619 26.3253 26.5233C26.3253 26.0503 26.3892 25.4229 26.8517 24.9604Z" fill="#EC6D26"/>
<path d="M30.6583 29.6096C30.7366 29.5313 30.8447 29.4829 30.9642 29.4831C31.2028 29.4831 31.3961 29.6764 31.3963 29.9152C31.3956 30.6795 30.8312 31.2113 30.4596 31.5618C30.2857 31.7255 30.0004 31.7287 29.8365 31.555C29.6732 31.3818 29.6537 31.1378 29.8427 30.9555C30.1781 30.6397 30.5318 30.3063 30.5318 29.9154C30.5317 29.7959 30.5801 29.6878 30.6583 29.6096Z" fill="#EC6D26"/>
<path d="M26.4516 2.40406C26.5326 2.323 26.6426 2.27756 26.7572 2.27739L30.9538 2.27756C31.1922 2.27774 31.3858 2.47091 31.3859 2.70934L31.3961 15.166C31.3965 15.4049 31.2033 15.5985 30.9645 15.5986C30.7257 15.5988 30.532 15.4055 30.5318 15.167L30.5218 3.14183L27.1895 3.14201L27.1895 11.7749C27.1892 12.0138 26.996 12.207 26.7574 12.207C26.5186 12.2072 26.3249 12.0135 26.3251 11.7747L26.3251 2.70952C26.3251 2.59513 26.3705 2.48512 26.4516 2.40406Z" fill="#EC6D26"/>
<path d="M30.6583 14.8605C30.7366 14.7823 30.8445 14.734 30.9641 14.734C31.2028 14.734 31.3961 14.9274 31.3963 15.1662C31.3959 15.9304 30.831 16.4624 30.4596 16.8128C30.2857 16.9765 30.0004 16.9796 29.8365 16.8059C29.6727 16.6322 29.6748 16.3624 29.8425 16.2066C30.1785 15.8896 30.5317 15.5574 30.5318 15.1664C30.5318 15.0467 30.5801 14.9388 30.6583 14.8605Z" fill="#EC6D26"/>
</svg>
