<svg width="26" height="30" viewBox="0 0 26 30" fill="none" xmlns="http://www.w3.org/2000/svg">
<path d="M15.895 22.5004C15.895 21.5004 17.44 18.8004 18.465 17.0003C18.9052 16.2974 19.2946 15.5639 19.63 14.8053C19.8577 14.0968 19.9823 13.3593 20 12.6153C20 10.7588 19.2625 8.9783 17.9497 7.66554C16.637 6.35277 14.8565 5.61527 13 5.61527C11.1435 5.61527 9.36301 6.35277 8.05025 7.66554C6.7375 8.9783 6 10.7588 6 12.6153C6.01625 13.3643 6.14087 14.107 6.37 14.8203C6.70609 15.5737 7.09541 16.3022 7.535 17.0003C8.56 18.7854 10.105 21.5004 10.105 22.5004C10.105 22.633 10.1577 22.7602 10.2514 22.8539C10.3452 22.9477 10.4724 23.0004 10.605 23.0004H15.395C15.5276 23.0004 15.6548 22.9477 15.7486 22.8539C15.8423 22.7602 15.895 22.633 15.895 22.5004ZM14.955 22.0004H11.045C10.79 20.7504 9.695 18.7704 8.405 16.5003C8.00508 15.8543 7.64119 15.1866 7.315 14.5003C7.12172 13.89 7.01567 13.2554 7 12.6153C7 11.024 7.63214 9.49787 8.75736 8.37265C9.88258 7.24742 11.4087 6.61528 13 6.61528C14.5913 6.61528 16.1174 7.24742 17.2426 8.37265C18.3679 9.49787 19 11.024 19 12.6153C18.9843 13.2554 18.8783 13.89 18.685 14.5003C18.3588 15.1866 17.9949 15.8543 17.595 16.5003C16.305 18.7704 15.21 20.7504 14.955 22.0004Z" fill="#EC6D26"/>
<path d="M14.75 28.605L14.065 29H11.935L11.25 28.605C11.1346 28.5387 10.9977 28.5209 10.8692 28.5556C10.7407 28.5903 10.6313 28.6746 10.565 28.79C10.4987 28.9054 10.481 29.0423 10.5156 29.1708C10.5503 29.2993 10.6346 29.4087 10.75 29.475L11.55 29.935C11.6267 29.977 11.7126 29.9993 11.8 30H14.2C14.2874 29.9993 14.3733 29.977 14.45 29.935L15.25 29.5C15.3071 29.4672 15.3572 29.4234 15.3975 29.3712C15.4377 29.319 15.4672 29.2594 15.4844 29.1958C15.5016 29.1322 15.506 29.0658 15.4976 29.0005C15.4891 28.9352 15.4678 28.8721 15.435 28.815C15.4022 28.7579 15.3584 28.7078 15.3062 28.6676C15.254 28.6273 15.1944 28.5978 15.1308 28.5806C15.0672 28.5634 15.0009 28.559 14.9355 28.5674C14.8702 28.5759 14.8071 28.5972 14.75 28.63V28.605Z" fill="#EC6D26"/>
<path d="M14.95 23.605L10.95 24C10.8174 24.0066 10.6928 24.0657 10.6038 24.1641C10.5147 24.2626 10.4684 24.3924 10.475 24.525C10.4816 24.6576 10.5407 24.7821 10.6391 24.8712C10.7376 24.9603 10.8674 25.0066 11 25H11.05L15.05 24.6C15.1158 24.5937 15.1797 24.5745 15.238 24.5434C15.2963 24.5123 15.3479 24.47 15.3897 24.4189C15.4316 24.3677 15.4628 24.3088 15.4818 24.2455C15.5007 24.1821 15.5069 24.1157 15.5 24.05C15.4931 23.9846 15.4735 23.9213 15.4421 23.8636C15.4107 23.8058 15.3683 23.7548 15.3172 23.7135C15.2661 23.6722 15.2074 23.6413 15.1444 23.6227C15.0814 23.6041 15.0153 23.5981 14.95 23.605Z" fill="#EC6D26"/>
<path d="M14.95 25.105L10.95 25.5C10.8174 25.5066 10.6928 25.5657 10.6038 25.6641C10.5147 25.7626 10.4684 25.8924 10.475 26.025C10.4816 26.1576 10.5407 26.2822 10.6391 26.3712C10.7376 26.4603 10.8674 26.5066 11 26.5H11.05L15.05 26.1C15.1158 26.0938 15.1797 26.0745 15.238 26.0434C15.2963 26.0123 15.3479 25.97 15.3897 25.9189C15.4316 25.8677 15.4628 25.8088 15.4818 25.7455C15.5007 25.6822 15.5069 25.6157 15.5 25.55C15.4931 25.4847 15.4735 25.4213 15.4421 25.3636C15.4107 25.3058 15.3683 25.2548 15.3172 25.2135C15.2661 25.1722 15.2074 25.1413 15.1444 25.1227C15.0814 25.1041 15.0153 25.0981 14.95 25.105Z" fill="#EC6D26"/>
<path d="M14.95 26.605L10.95 27C10.8174 27.0066 10.6928 27.0657 10.6038 27.1641C10.5147 27.2626 10.4684 27.3924 10.475 27.525C10.4816 27.6576 10.5407 27.7822 10.6391 27.8712C10.7376 27.9603 10.8674 28.0066 11 28H11.05L15.05 27.6C15.1158 27.5938 15.1797 27.5745 15.238 27.5434C15.2963 27.5124 15.3479 27.47 15.3897 27.4189C15.4316 27.3677 15.4628 27.3088 15.4818 27.2455C15.5007 27.1822 15.5069 27.1157 15.5 27.05C15.4931 26.9847 15.4735 26.9213 15.4421 26.8636C15.4107 26.8058 15.3683 26.7548 15.3172 26.7135C15.2661 26.6722 15.2074 26.6413 15.1444 26.6227C15.0814 26.6041 15.0153 26.5981 14.95 26.605Z" fill="#EC6D26"/>
<path d="M12.5 0.500003V4.00003C12.5 4.13263 12.5527 4.25981 12.6464 4.35358C12.7402 4.44735 12.8674 4.50003 13 4.50003C13.1326 4.50003 13.2598 4.44735 13.3536 4.35358C13.4473 4.25981 13.5 4.13263 13.5 4.00003V0.500003C13.5 0.367394 13.4473 0.240216 13.3536 0.146448C13.2598 0.0526787 13.1326 0 13 0C12.8674 0 12.7402 0.0526787 12.6464 0.146448C12.5527 0.240216 12.5 0.367394 12.5 0.500003Z" fill="#EC6D26"/>
<path d="M19.72 7.00017L22.19 4.50015C22.2508 4.4042 22.2772 4.29038 22.2647 4.17746C22.2522 4.06453 22.2016 3.95923 22.1213 3.87889C22.0409 3.79856 21.9356 3.74798 21.8227 3.73548C21.7098 3.72298 21.596 3.74932 21.5 3.81015L19.025 6.31016C18.9329 6.3999 18.8789 6.52166 18.8743 6.65016C18.8696 6.77865 18.9147 6.904 19 7.00017C19.0467 7.04651 19.1021 7.08317 19.1631 7.10805C19.224 7.13294 19.2892 7.14555 19.355 7.14517C19.4225 7.14689 19.4896 7.13493 19.5523 7.11001C19.6151 7.08509 19.6721 7.04772 19.72 7.00017Z" fill="#EC6D26"/>
<path d="M26 13.0001C26 12.8675 25.9473 12.7403 25.8536 12.6465C25.7598 12.5528 25.6326 12.5001 25.5 12.5001H22C21.8674 12.5001 21.7402 12.5528 21.6464 12.6465C21.5527 12.7403 21.5 12.8675 21.5 13.0001C21.5 13.1327 21.5527 13.2599 21.6464 13.3536C21.7402 13.4474 21.8674 13.5001 22 13.5001H25.5C25.6326 13.5001 25.7598 13.4474 25.8536 13.3536C25.9473 13.2599 26 13.1327 26 13.0001Z" fill="#EC6D26"/>
<path d="M21.5 22.1903C21.5463 22.2376 21.6015 22.2752 21.6625 22.3009C21.7234 22.3266 21.7889 22.34 21.855 22.3403C21.9539 22.3399 22.0504 22.3102 22.1324 22.2549C22.2144 22.1996 22.2782 22.1213 22.3156 22.0297C22.3531 21.9382 22.3626 21.8377 22.3429 21.7408C22.3232 21.6438 22.2752 21.555 22.205 21.4853L19.72 19.0003C19.6734 18.9519 19.6175 18.9134 19.5556 18.8871C19.4937 18.8608 19.4272 18.8473 19.36 18.8473C19.2928 18.8473 19.2263 18.8608 19.1644 18.8871C19.1026 18.9134 19.0467 18.9519 19 19.0003C18.9069 19.094 18.8546 19.2207 18.8546 19.3528C18.8546 19.4849 18.9069 19.6116 19 19.7053L21.5 22.1903Z" fill="#EC6D26"/>
<path d="M4.16001 22.3401C4.22617 22.3398 4.29161 22.3264 4.35255 22.3007C4.41348 22.2749 4.46871 22.2373 4.51501 22.1901L7.01501 19.6901C7.10166 19.5952 7.14845 19.4706 7.14565 19.3421C7.14286 19.2136 7.09071 19.0911 7.00001 19.0001C6.95353 18.9532 6.89823 18.916 6.8373 18.8906C6.77637 18.8652 6.71102 18.8522 6.64501 18.8522C6.57901 18.8522 6.51366 18.8652 6.45273 18.8906C6.3918 18.916 6.33649 18.9532 6.29001 19.0001L3.81001 21.5001C3.7398 21.5697 3.69182 21.6586 3.67212 21.7555C3.65243 21.8524 3.66192 21.953 3.69938 22.0445C3.73684 22.136 3.8006 22.2144 3.88259 22.2697C3.96458 22.3249 4.06113 22.3547 4.16001 22.3551V22.3401Z" fill="#EC6D26"/>
<path d="M0.5 13.5001H4C4.13261 13.5001 4.25979 13.4474 4.35355 13.3536C4.44732 13.2599 4.5 13.1327 4.5 13.0001C4.5 12.8675 4.44732 12.7403 4.35355 12.6465C4.25979 12.5528 4.13261 12.5001 4 12.5001H0.5C0.367392 12.5001 0.240215 12.5528 0.146447 12.6465C0.0526785 12.7403 0 12.8675 0 13.0001C0 13.1327 0.0526785 13.2599 0.146447 13.3536C0.240215 13.4474 0.367392 13.5001 0.5 13.5001Z" fill="#EC6D26"/>
<path d="M3.81001 3.80985C3.71688 3.90353 3.66461 4.03025 3.66461 4.16235C3.66461 4.29444 3.71688 4.42117 3.81001 4.51485L6.28001 7.01487C6.32673 7.06121 6.38214 7.09787 6.44305 7.12275C6.50397 7.14763 6.5692 7.16025 6.63501 7.15987C6.70357 7.15965 6.77135 7.14533 6.83414 7.1178C6.89693 7.09028 6.95339 7.05013 7.00001 6.99987C7.09313 6.90618 7.1454 6.77946 7.1454 6.64736C7.1454 6.51527 7.09313 6.38854 7.00001 6.29486L4.50001 3.79485C4.40511 3.70819 4.28048 3.66141 4.15201 3.6642C4.02353 3.667 3.90105 3.71915 3.81001 3.80985Z" fill="#EC6D26"/>
<path d="M15.84 13.5251L13 14.5001L10.16 13.5501C10.0742 13.5178 9.98104 13.5096 9.89087 13.5266C9.8007 13.5437 9.71695 13.5852 9.64879 13.6466C9.58063 13.708 9.5307 13.7871 9.50446 13.875C9.47822 13.9629 9.47668 14.0564 9.50002 14.1451L11.5 20.6452C11.5191 20.7108 11.5509 20.7721 11.5936 20.8255C11.6363 20.8789 11.6891 20.9233 11.749 20.9563C11.8089 20.9892 11.8747 21.0101 11.9426 21.0176C12.0106 21.0252 12.0794 21.0192 12.145 21.0002C12.2107 20.9811 12.272 20.9494 12.3253 20.9066C12.3787 20.8639 12.4231 20.8111 12.4561 20.7512C12.4891 20.6913 12.5099 20.6255 12.5175 20.5576C12.525 20.4896 12.5191 20.4208 12.5 20.3552L10.765 14.7801L12.84 15.5002C12.9438 15.5352 13.0562 15.5352 13.16 15.5002L15.235 14.8051L13.5 20.3552C13.478 20.4208 13.4698 20.4902 13.4759 20.5592C13.4821 20.6281 13.5025 20.695 13.5359 20.7556C13.5693 20.8163 13.6149 20.8693 13.6698 20.9114C13.7247 20.9535 13.7878 20.9837 13.855 21.0002C13.9031 21.0079 13.952 21.0079 14 21.0002C14.111 21.0049 14.2203 20.9726 14.3108 20.9083C14.4014 20.8441 14.4679 20.7515 14.5 20.6452L16.5 14.1451C16.5271 14.057 16.5293 13.9631 16.5064 13.8737C16.4835 13.7844 16.4363 13.7032 16.37 13.639C16.3038 13.5748 16.2211 13.5302 16.1311 13.5101C16.0411 13.4901 15.9473 13.4952 15.86 13.5251H15.84Z" fill="#EC6D26"/>
</svg>
