<svg width="35" height="24" viewBox="0 0 35 24" fill="none" xmlns="http://www.w3.org/2000/svg">
<path d="M24.6374 2.79201L24.8339 2.40438L24.834 2.40446C24.8361 2.40553 24.8464 2.4107 24.8591 2.41812C24.8635 2.42072 24.8825 2.43176 24.905 2.44851C24.9142 2.45532 24.9427 2.47673 24.9736 2.51015C24.9767 2.51346 24.9803 2.51752 24.9845 2.5223C25.0007 2.54105 25.0241 2.57091 25.0458 2.61088C25.0693 2.65409 25.1182 2.75886 25.104 2.89964C25.1036 2.9035 25.1032 2.90739 25.1027 2.9113C25.093 2.98932 25.0647 3.06585 25.0181 3.13348C25.0115 3.14307 25.0047 3.15222 24.9978 3.16093C24.9793 3.13991 24.9555 3.11472 24.9257 3.0862C24.8602 3.02364 24.7853 2.96364 24.7152 2.91571C24.6638 2.88051 24.6292 2.86149 24.6143 2.85368L24.6374 2.79201ZM24.6374 2.79201L24.8339 2.40438C24.8572 2.41622 24.9143 2.44605 24.9976 2.50309C24.9121 2.44456 24.8376 2.40322 24.7902 2.38451L24.6374 2.79201ZM24.7464 2.36955C24.7543 2.37187 24.7605 2.37388 24.7639 2.375L24.7699 2.37703L24.7723 2.37786L24.7734 2.37824L24.7739 2.37842L24.7741 2.37851L24.7743 2.37855C24.7743 2.37858 24.7744 2.3786 24.6068 2.84967C24.6057 2.85276 24.6046 2.85583 24.6035 2.85888L24.7464 2.36955ZM24.7464 2.36955L24.7347 2.36264M24.7464 2.36955L22 10.4296L22.5 10.1552V10.7256L24.9735 9.36791C25.3198 9.22737 26 8.89752 26 8.5V7.5V7H26.5H34C34.5235 7 35 6.16363 35 5.64163C35 5.12364 34.5772 4 34.0537 4H26.5H26V3.5V3C26 2.60649 25.3198 2.05588 24.9735 1.91936L22.5 0.32274V0.917854M24.7347 2.36264L24.744 2.36633L24.7024 2.33944L22.5 0.917854M24.7347 2.36264L24.6979 2.34815L24.6943 2.35737M24.7347 2.36264L23.2542 1.48877L22.5 1.04363V0.917854M22.5 0.917854L24.6943 2.35737M9.24023 17.5L9.96606 15.9893H13C13.4671 15.9893 13.8913 15.3373 14 15M9.24023 17.5L21 10.5H20.5V11H14.5H14V11.5V15M9.24023 17.5H9V18L9.45068 18.2165L9.55472 18H10.4855C11.0003 18 11.0002 18.4661 11 18.9742V23.0823C11.0002 23.5923 11.0003 24 10.4855 24H1C0.47653 24 0 23.522 0 23V19.5C0 18.982 0.58387 18 1.10734 18H3L6.25 11.5H6.5V11L6.05279 10.7764L9.24023 17.5ZM14 15H13.5V14.9242L13.4351 15.0388C13.4617 14.9919 13.4835 14.9478 13.5 14.9096C13.5101 14.8861 13.5182 14.8648 13.5241 14.8466L14 15ZM24.6943 2.35737C24.6883 2.35631 24.682 2.35528 24.6753 2.35436L24.6746 2.35426C24.6618 2.35247 24.6081 2.34497 24.5404 2.35399C24.5074 2.3584 24.4271 2.37191 24.3409 2.42599C24.2774 2.46582 24.2133 2.5271 24.1681 2.60885L23.5 2.21448V1.91936H23L22.7458 2.34995L23 2.49996L24.6943 2.35737ZM34.4998 5.6259C34.4999 5.63131 34.5 5.63655 34.5 5.64163C34.5 5.66199 34.4984 5.68476 34.4951 5.70949C34.492 5.73272 34.4875 5.75767 34.4815 5.78398C34.4886 5.75255 34.4925 5.72813 34.4948 5.7114L34.4998 5.6259ZM34.4998 5.6259C34.4982 5.57026 34.4885 5.49729 34.4711 5.41401C34.4773 5.44404 34.4826 5.47272 34.4868 5.49979M34.4998 5.6259L34.4996 5.62097C34.4992 5.60974 34.4984 5.59672 34.4971 5.58184L34.497 5.5816C34.4949 5.55736 34.4916 5.53001 34.4868 5.49979M34.4868 5.49979L33.9929 5.57719M34.4868 5.49979C34.4868 5.49977 34.4868 5.49976 34.4868 5.49974L33.9929 5.57719M33.9929 5.57719C33.9961 5.59751 33.9979 5.61359 33.999 5.62539L33.7897 5C33.8017 5.02104 33.8142 5.04448 33.827 5.07026C33.8809 5.17922 33.9277 5.30584 33.9599 5.42579C33.9757 5.48462 33.9864 5.53602 33.9929 5.57719ZM10.5 23.0825V23.0823V18.9742V18.9741C10.5 18.9593 10.5 18.9449 10.5 18.9308V19V22V22.5H10H1.02415H0.866319L0.73709 22.4094C0.709161 22.3898 0.682378 22.3673 0.657438 22.3424L10.5 23.0825ZM10.5 23.0825C10.5 23.2145 10.4998 23.3163 10.4934 23.4045C10.4904 23.4457 10.4864 23.4769 10.4824 23.5L10.5 23.0825ZM25.2693 8.66124L25.2742 8.65814C25.222 8.69172 25.1667 8.72365 25.1108 8.75344C25.1665 8.72371 25.22 8.69279 25.2693 8.66124ZM34.2734 6.24925C34.2587 6.27064 34.2439 6.29074 34.2292 6.30951L34.2303 6.30806C34.2446 6.2897 34.2591 6.27009 34.2734 6.24925ZM34.0156 4.49376C34.0155 4.49372 34.0161 4.49394 34.0171 4.49448L34.0156 4.49376ZM0.513656 19.3978L0.513335 19.3993L0.512256 19.4034C0.519948 19.3674 0.531287 19.3263 0.546344 19.2816C0.537255 19.3086 0.530084 19.3327 0.524397 19.3539C0.519696 19.3714 0.516227 19.3861 0.513656 19.3978ZM0.511229 19.4092L0.511041 19.4101L0.511229 19.4092ZM13.255 15.2955C13.2402 15.3124 13.226 15.3279 13.2124 15.342L13.2206 15.3333C13.2317 15.3216 13.2431 15.309 13.255 15.2955ZM0.565518 19.2281C0.610242 19.1101 0.678223 18.9728 0.770566 18.8373C0.686267 18.961 0.615239 19.0978 0.566562 19.2253C0.566212 19.2263 0.565864 19.2272 0.565518 19.2281Z" fill="#EC6D26" stroke="#EC6D26"/>
</svg>
