<svg width="24" height="30" viewBox="0 0 24 30" fill="none" xmlns="http://www.w3.org/2000/svg">
<path fill-rule="evenodd" clip-rule="evenodd" d="M1 29H23V28.0004C23 28.0004 23.1875 26.6875 23 26.5C22.8125 26.3125 23.2652 26.0004 23 26.0004H3C2.73478 26.0004 2.48043 26.1058 2.29289 26.2933C2.10536 26.4808 0.494 27.0004 1.247 27.0004L1 29ZM8 25H21C22.654 25 24 25.3464 24 27.0004V30.0004H0V27.0004C0.00204268 26.3821 0.141911 26.5044 0.5 26.0004C0.858089 25.4964 1.41685 25.2054 2 25V19.0004H3V25H7V19.0004H8V25Z" fill="#EC6D26"/>
<path fill-rule="evenodd" clip-rule="evenodd" d="M0 5.99963L0 0H24V13.0004H21V15.4144L18.414 18.0004H18V21.0004H17V18.0004H16.586L14 15.4144V13.0004H9.898C9.66632 14.1288 9.05263 15.1429 8.16039 15.8715C7.26816 16.6002 6.15196 16.9989 5 17.0004C2.243 17.0004 0 14.7574 0 12.0004C0.00432688 10.7954 0.447652 9.63319 1.247 8.73141L0 5.99963ZM20 15.0004L18 17L17 17.0004L15 15.0004V13.0004H20V15.0004ZM5 15.0004C3.346 15.0004 2 13.6544 2 12.0004C2 10.3464 3.346 9.00041 5 9.00041C6.654 9.00041 8 10.3464 8 12.0004C8 13.6544 6.654 15.0004 5 15.0004ZM10 12L23 12.0004V3V1L3 1.00041H1V5.99963L2.866 7.49641C3.53136 7.17376 4.26055 7.00428 5 7.00041C6.15196 7.00195 7.26816 7.40066 8.16039 8.12931C9.05263 8.85797 9.76832 10.8716 10 12Z" fill="#EC6D26"/>
<path d="M13 8.00041H15V5.00041H13V8.00041Z" fill="#EC6D26"/>
<path d="M17 8.00041H19V5.00041H17V8.00041Z" fill="#EC6D26"/>
</svg>
