<svg width="25" height="30" viewBox="0 0 25 30" fill="none" xmlns="http://www.w3.org/2000/svg">
<path d="M5.50005 0C5.36745 1.32584e-05 5.24028 0.0526959 5.14651 0.146461C5.05275 0.240227 5.00006 0.367396 5.00005 0.5V2.5C5.00006 2.6326 5.05275 2.75977 5.14651 2.85354C5.24028 2.9473 5.36745 2.99999 5.50005 3H6.79693L3.76763 11.7031C3.02548 12.0231 2.46623 12.691 2.30083 13.5H1.00005V12.5C1.00083 12.4332 0.98822 12.3669 0.962954 12.305C0.937687 12.2432 0.900279 12.187 0.852941 12.1399C0.805603 12.0927 0.749294 12.0555 0.687341 12.0305C0.625388 12.0055 0.559047 11.9931 0.492238 11.9941C0.359971 11.9962 0.233915 12.0506 0.141667 12.1454C0.0494191 12.2402 -0.00150291 12.3677 5.00046e-05 12.5V15.5C-0.000887019 15.5663 0.0113534 15.632 0.0360603 15.6935C0.0607671 15.755 0.0974477 15.811 0.14397 15.8582C0.190492 15.9053 0.245928 15.9428 0.307057 15.9684C0.368185 15.994 0.433787 16.0071 0.50005 16.0071C0.566313 16.0071 0.631915 15.994 0.693043 15.9684C0.754172 15.9428 0.809608 15.9053 0.85613 15.8582C0.902652 15.811 0.939333 15.755 0.96404 15.6935C0.988747 15.632 1.00099 15.5663 1.00005 15.5V14.5H2.30083V14.502C2.46719 15.3093 3.02661 15.9774 3.76763 16.2969L6.90044 25.2988L4.22271 27.084C4.15422 27.1296 4.09806 27.1915 4.05922 27.2641C4.02038 27.3366 4.00006 27.4177 4.00005 27.5V29.5C4.00006 29.6326 4.05275 29.7598 4.14651 29.8535C4.24028 29.9473 4.36745 30 4.50005 30H14.5C14.6327 30 14.7598 29.9473 14.8536 29.8535C14.9474 29.7598 15 29.6326 15 29.5V27.5C15 27.4177 14.9797 27.3366 14.9409 27.2641C14.902 27.1915 14.8459 27.1296 14.7774 27.084L12.0997 25.2988L15.2305 16.2969C16.1214 15.9135 16.75 15.0271 16.75 14C16.75 12.973 16.1214 12.0865 15.2305 11.7031L12.2032 3H13.5C13.6327 2.99999 13.7598 2.9473 13.8536 2.85354C13.9474 2.75977 14 2.6326 14 2.5V0.5C14 0.367396 13.9474 0.240227 13.8536 0.146461C13.7598 0.0526959 13.6327 1.32584e-05 13.5 0H5.50005ZM6.00005 1H13V2H9.50591H7.50005H6.00005V1ZM7.85747 3H8.79692L5.76372 11.7207C5.49546 11.6004 5.20194 11.5318 4.89458 11.5137L7.85747 3ZM10.2032 3H11.1426L14.1055 11.5137C13.7982 11.5318 13.5046 11.6004 13.2364 11.7207L10.2032 3ZM9.50005 4.02539L12.3946 12.3438C12.1049 12.6679 11.8909 13.0594 11.8008 13.5H7.19927C7.10908 13.0589 6.89577 12.6661 6.60552 12.3418L9.50005 4.02539ZM4.75005 12.5C5.5844 12.5 6.25005 13.1657 6.25005 14C6.25005 14.8344 5.5844 15.5 4.75005 15.5C3.9157 15.5 3.25005 14.8344 3.25005 14C3.25005 13.1657 3.9157 12.5 4.75005 12.5ZM14.25 12.5C15.0844 12.5 15.75 13.1657 15.75 14C15.75 14.8344 15.0844 15.5 14.25 15.5C13.4157 15.5 12.75 14.8344 12.75 14C12.75 13.1657 13.4157 12.5 14.25 12.5ZM16.7071 13.5C16.74 13.6612 16.7579 13.8295 16.7579 14C16.7579 14.1712 16.7402 14.3382 16.7071 14.5H23.5C24.1755 14.51 24.1755 13.4904 23.5 13.5H16.7071ZM7.19927 14.5H11.8008V14.502C11.8914 14.9412 12.1055 15.333 12.3946 15.6562L9.50005 23.9785L6.60552 15.6562C6.89458 15.333 7.10875 14.9393 7.19927 14.5ZM12.7579 15.9902C12.7693 15.9989 12.7794 16.0091 12.7911 16.0176C12.7795 16.009 12.7693 15.999 12.7579 15.9902ZM5.76372 16.2793L8.79692 25H7.85552L4.89458 16.4844C5.20185 16.4663 5.49553 16.3996 5.76372 16.2793ZM13.2364 16.2793C13.5046 16.3996 13.7982 16.4663 14.1055 16.4844L11.1446 25H10.2032L13.2364 16.2793ZM14.9415 16.3887C14.8778 16.4074 14.8176 16.4336 14.752 16.4473C14.8176 16.4337 14.8778 16.4073 14.9415 16.3887ZM7.65239 26H9.50005H11.3477L14 27.7676V29H5.00005V27.7676L7.65239 26ZM8.50005 27C8.36744 27 8.24026 27.0527 8.1465 27.1464C8.05273 27.2402 8.00005 27.3674 8.00005 27.5C8.00005 27.6326 8.05273 27.7598 8.1465 27.8536C8.24026 27.9473 8.36744 28 8.50005 28C8.63266 28 8.75984 27.9473 8.8536 27.8536C8.94737 27.7598 9.00005 27.6326 9.00005 27.5C9.00005 27.3674 8.94737 27.2402 8.8536 27.1464C8.75984 27.0527 8.63266 27 8.50005 27ZM10.5 27C10.3674 27 10.2403 27.0527 10.1465 27.1464C10.0527 27.2402 10 27.3674 10 27.5C10 27.6326 10.0527 27.7598 10.1465 27.8536C10.2403 27.9473 10.3674 28 10.5 28C10.6327 28 10.7598 27.9473 10.8536 27.8536C10.9474 27.7598 11 27.6326 11 27.5C11 27.3674 10.9474 27.2402 10.8536 27.1464C10.7598 27.0527 10.6327 27 10.5 27Z" fill="#EC6D26"/>
</svg>
