<svg width="28" height="28" viewBox="0 0 28 28" fill="none" xmlns="http://www.w3.org/2000/svg">
<rect width="28" height="28" fill="black" fill-opacity="0"/>
<rect width="28" height="28" fill="black" fill-opacity="0"/>
<rect width="28" height="28" fill="black" fill-opacity="0"/>
<rect width="28" height="28" fill="black" fill-opacity="0"/>
<path d="M2.80005 17.2674C2.80005 17.525 3.00912 17.7341 3.2667 17.7341H24.7333C24.9909 17.7341 25.1999 17.525 25.1999 17.2674C25.1999 17.0098 24.9909 16.8008 24.7333 16.8008H3.2667C3.00912 16.8007 2.80005 17.0098 2.80005 17.2674Z" fill="#EC6D26"/>
<path d="M19.6 13.9998C19.6 13.485 19.1814 13.0664 18.6666 13.0664C18.1519 13.0664 17.7333 13.485 17.7333 13.9998C17.7333 14.5145 18.1519 14.9331 18.6666 14.9331C19.1813 14.9331 19.6 14.5145 19.6 13.9998Z" fill="#EC6D26"/>
<path d="M22.4 13.9998C22.4 13.485 21.9814 13.0664 21.4667 13.0664C20.952 13.0664 20.5333 13.485 20.5333 13.9998C20.5333 14.5145 20.9519 14.9331 21.4667 14.9331C21.9814 14.9331 22.4 14.5145 22.4 13.9998Z" fill="#EC6D26"/>
<path d="M22.8667 18.667C22.6091 18.667 22.4 18.8761 22.4 19.1336V26.6002C22.4 26.8401 22.1732 27.0669 21.9334 27.0669H6.06669C5.81797 27.0669 5.60004 26.849 5.60004 26.6002V19.1336C5.60004 18.8761 5.39097 18.667 5.1334 18.667C4.87582 18.667 4.66675 18.8761 4.66675 19.1336V26.6002C4.66675 27.359 5.30796 28.0002 6.06675 28.0002H21.9334C22.6921 28.0002 23.3334 27.359 23.3334 26.6002V19.1336C23.3333 18.8761 23.1242 18.667 22.8667 18.667Z" fill="#EC6D26"/>
<path d="M20.0675 5.13347H20.5342C20.7918 5.13347 21.0008 4.9244 21.0008 4.66682C21.0008 4.40925 20.7918 4.20018 20.5342 4.20018H20.0675C19.8146 4.20018 19.6009 3.98646 19.6009 3.73353V1.59335L22.4009 4.39333V6.06682C22.4009 6.32439 22.61 6.53346 22.8675 6.53346C23.1251 6.53346 23.3342 6.32439 23.3342 6.06682V4.20012C23.3342 4.07648 23.2852 3.95748 23.1975 3.8702L19.4642 0.136918C19.3303 0.00298852 19.1296 -0.0366597 18.9555 0.0356368C18.7815 0.107988 18.6676 0.278284 18.6676 0.466846V3.73348C18.6675 4.50533 19.2957 5.13347 20.0675 5.13347Z" fill="#EC6D26"/>
<path d="M5.13247 6.53326C5.39005 6.53326 5.59912 6.32419 5.59912 6.06662V1.39994C5.59912 1.16008 5.82591 0.933292 6.06577 0.933292H17.2657C17.5233 0.933292 17.7324 0.724223 17.7324 0.466646C17.7324 0.209069 17.5233 0 17.2657 0H6.06577C5.30698 0 4.66577 0.641208 4.66577 1.39999V6.06662C4.66583 6.32419 4.8749 6.53326 5.13247 6.53326Z" fill="#EC6D26"/>
<path d="M25.2 13.9998C25.2 13.485 24.7814 13.0664 24.2666 13.0664C23.7519 13.0664 23.3333 13.485 23.3333 13.9998C23.3333 14.5145 23.7518 14.9331 24.2666 14.9331C24.7813 14.9331 25.2 14.5145 25.2 13.9998Z" fill="#EC6D26"/>
<path d="M22.8667 7.4668H5.13334C2.0627 7.4668 0 9.52943 0 12.6001V22.8667C0 24.1533 1.04672 25.2001 2.33335 25.2001H3.2667C3.52427 25.2001 3.73334 24.991 3.73334 24.7334C3.73334 24.4758 3.52427 24.2668 3.2667 24.2668H2.33335C1.56149 24.2668 0.93335 23.6386 0.93335 22.8668V12.6001C0.93335 10.0489 2.58206 8.40014 5.13334 8.40014H22.8667C25.4179 8.40014 27.0666 10.0489 27.0666 12.6001V22.8667C27.0666 23.5877 26.0152 24.2667 25.2 24.2667H24.7334C24.4758 24.2667 24.2667 24.4758 24.2667 24.7334C24.2667 24.9909 24.4758 25.2 24.7334 25.2H25.2C26.4945 25.2 28 24.1808 28 22.8667V12.6001C28 9.52943 25.9373 7.4668 22.8667 7.4668Z" fill="#EC6D26"/>
<path d="M12.6001 23.3337H19.1334C19.391 23.3337 19.6001 23.1246 19.6001 22.867C19.6001 22.6095 19.391 22.4004 19.1334 22.4004H12.6001C12.3425 22.4004 12.1334 22.6095 12.1334 22.867C12.1334 23.1246 12.3424 23.3337 12.6001 23.3337Z" fill="#EC6D26"/>
<path d="M19.1333 19.6006H14.4666C14.2091 19.6006 14 19.8097 14 20.0672C14 20.3248 14.2091 20.5339 14.4666 20.5339H19.1333C19.3909 20.5339 19.5999 20.3248 19.5999 20.0672C19.5999 19.8097 19.3909 19.6006 19.1333 19.6006Z" fill="#EC6D26"/>
<path d="M13.0667 20.0672C13.0667 19.8097 12.8576 19.6006 12.6 19.6006H8.86667C8.60909 19.6006 8.40002 19.8097 8.40002 20.0672C8.40002 20.3248 8.60909 20.5339 8.86667 20.5339H12.6C12.8576 20.5339 13.0667 20.3248 13.0667 20.0672Z" fill="#EC6D26"/>
<path d="M8.86667 22.4004C8.60909 22.4004 8.40002 22.6095 8.40002 22.867C8.40002 23.1246 8.60909 23.3337 8.86667 23.3337H10.7333C10.9909 23.3337 11.2 23.1246 11.2 22.867C11.2 22.6095 10.9909 22.4004 10.7333 22.4004H8.86667Z" fill="#EC6D26"/>
</svg>
