<svg width="23" height="23" viewBox="0 0 23 23" fill="none" xmlns="http://www.w3.org/2000/svg">
<rect width="23" height="23" fill="black" fill-opacity="0"/>
<path d="M0.484605 0.00307388C0.204692 0.0232773 -0.0285515 0.30404 0.00284003 0.583006C0.636344 5.72945 2.26829 11.6411 6.32295 15.939L4.747 17.5154C4.10954 17.5154 3.46167 17.5154 2.82811 17.5154C2.70937 17.5261 2.59486 17.579 2.50965 17.6624L0.157985 20.0148C-0.0378692 20.2086 -0.0378692 20.5643 0.157985 20.7581L2.24836 22.8491C2.44155 23.0402 2.79006 23.0402 2.98325 22.8491L5.33492 20.4967C5.43192 20.4008 5.48897 20.2656 5.49007 20.1292V18.2505L7.05784 16.6823C11.3543 20.7407 17.2624 22.3622 22.409 22.9962C22.7235 23.038 23.0344 22.7314 22.9969 22.4162C22.3632 17.2682 20.7341 11.3585 16.6768 7.06027L18.2446 5.49201H20.1227C20.2591 5.49096 20.3942 5.43385 20.4901 5.33683L22.8418 2.98441C23.0376 2.79057 23.0376 2.43496 22.8418 2.24113L20.7514 0.150107C20.6411 0.041458 20.4807 -0.0140977 20.3268 0.00307388C20.2109 0.0156193 20.0997 0.0683131 20.0165 0.150107L17.6648 2.50251C17.5659 2.60036 17.5086 2.73906 17.5097 2.87823V4.74873L15.9338 6.32515C11.6376 2.26946 5.73576 0.636776 0.590757 0.00307388C0.555495 -0.000532937 0.519867 -0.000532937 0.484605 0.00307388ZM1.17051 1.16294C6.00515 1.84031 11.3275 3.44104 15.1907 7.06844L13.5739 8.68572C12.2084 7.41711 10.6038 6.57357 9.14821 6.53753C8.42528 6.51963 7.72887 6.7244 7.21299 7.19097C6.79647 7.56768 6.586 8.09572 6.54342 8.64488C6.50083 9.19405 6.60338 9.77802 6.80471 10.3765C7.16283 11.441 7.83357 12.5703 8.68278 13.5784L7.06601 15.1957C3.43306 11.3291 1.84752 6.00443 1.17051 1.16294ZM20.384 1.26097L21.7394 2.61685L19.9022 4.44649H18.5549V3.09061L20.384 1.26097ZM9.12372 7.58303C10.1612 7.60872 11.6132 8.30777 12.839 9.42084L9.43401 12.8269C8.68593 11.9215 8.09531 10.9168 7.8009 10.0416C7.63125 9.53731 7.5612 9.07993 7.5886 8.72656C7.616 8.37319 7.72254 8.1412 7.91522 7.96694C8.19909 7.71021 8.61575 7.57045 9.12372 7.58303ZM15.9338 7.80357C19.5697 11.6706 21.152 16.9929 21.8293 21.8363C16.9928 21.1587 11.6645 19.5693 7.8009 15.939L9.39318 14.3462C10.3622 15.2807 11.4888 15.9288 12.5614 16.2493C13.7802 16.6137 15.005 16.5677 15.7868 15.7919C16.2042 15.3777 16.455 14.7915 16.4563 14.1175C16.4594 12.6526 15.6049 10.89 14.3088 9.42901L15.9338 7.80357ZM13.5739 10.1641C14.7002 11.4765 15.4132 13.1157 15.4112 14.1175C15.4102 14.5538 15.2865 14.8159 15.0519 15.0486C14.6626 15.4349 13.862 15.5537 12.8554 15.2528C11.9731 14.9891 10.996 14.4134 10.1444 13.5947L13.5739 10.1641ZM3.0894 18.5609H4.44488V19.9086L2.6158 21.7383L1.26033 20.3905L3.0894 18.5609Z" fill="#EC6D26"/>
</svg>
