<svg width="24" height="30" viewBox="0 0 24 30" fill="none" xmlns="http://www.w3.org/2000/svg">
<path d="M18.0675 1.22725C17.2465 0.792197 16.2292 1.02737 15.3237 1.54766C14.4182 2.06795 13.5701 2.8936 12.9717 3.83791C11.9752 5.41042 12.0055 7.26845 12.8901 8.71869L5.61958 20.1921C4.02336 20.2605 2.50192 21.0388 1.64638 22.3889C0.311191 24.4959 1.11229 27.1909 3.42491 28.4074C5.73754 29.6239 8.69975 28.9085 10.0349 26.8015C10.8905 25.4514 10.8696 23.8618 10.1365 22.5681L17.407 11.0947C19.2279 11.0676 21.0091 10.1624 22.0056 8.58989C22.6021 7.64852 22.9572 6.56004 22.9964 5.58368C23.0357 4.60731 22.7552 3.68988 21.9392 3.26381C21.7702 3.17497 21.5278 3.23414 21.4303 3.38805L18.9986 7.20415L15.7723 5.507L18.2039 1.6909C18.3014 1.53698 18.2364 1.31612 18.0675 1.22725V1.22725ZM6.65719 23.2855C7.01403 23.7414 7.34522 24.213 7.68142 24.6816C7.41917 25.1233 7.14044 25.5565 6.86489 25.9914C6.25343 25.9566 5.64168 25.9266 5.02997 25.8957C4.68356 25.4315 4.34868 24.9603 4.01157 24.4904C4.27179 24.0518 4.54866 23.6217 4.82228 23.1899C5.43465 23.2097 6.0458 23.2495 6.65719 23.2855Z" stroke="#EC6D26"/>
</svg>
