<svg width="31" height="26" viewBox="0 0 31 26" fill="none" xmlns="http://www.w3.org/2000/svg">
<rect width="29" height="24" fill="black" fill-opacity="0" transform="translate(1 1)"/>
<path d="M27.252 9.97109C27.3008 10.0897 27.3469 10.2091 27.39 10.3298C27.4763 10.5712 27.551 10.8168 27.6137 11.0659C27.7392 11.5642 27.8169 12.0764 27.8436 12.5952C27.897 13.633 27.7464 14.6985 27.3661 15.7363C25.8445 19.8882 21.2219 22.0289 17.0412 20.5177C12.8605 19.0066 10.705 14.4158 12.2267 10.2641C13.7483 6.11228 18.3709 3.97154 22.5515 5.48268C23.5966 5.86049 24.5152 6.43081 25.2814 7.13854" stroke="#EC6D26" stroke-linecap="round" stroke-linejoin="round"/>
<path d="M19.227 11.3059C19.227 11.3059 18.8358 10.2396 18.6323 9.68476C18.4792 9.26726 18.0133 9.05304 17.5937 9.20728L17.4224 9.2703C16.7821 9.50561 16.2773 10.0068 16.0404 10.6427L15.977 10.8128C15.8218 11.2294 16.0374 11.692 16.4579 11.8441C16.9932 12.0377 18.0904 12.4346 18.0904 12.4346" stroke="#EC6D26" stroke-linecap="round" stroke-linejoin="round"/>
<path d="M20.3656 11.3059C20.3656 11.3059 20.7567 10.2396 20.9603 9.68476C21.1134 9.26726 21.5793 9.05304 21.9989 9.20728L22.1702 9.2703C22.8105 9.50561 23.3153 10.0068 23.5522 10.6427L23.6156 10.8128C23.7708 11.2294 23.5552 11.692 23.1347 11.8441C22.5994 12.0377 21.5022 12.4346 21.5022 12.4346" stroke="#EC6D26" stroke-linecap="round" stroke-linejoin="round"/>
<path d="M19.227 14.6941C19.227 14.6941 18.8358 15.7605 18.6323 16.3153C18.4792 16.7329 18.0133 16.9469 17.5937 16.7928L17.4224 16.7299C16.7821 16.4946 16.2773 15.9932 16.0404 15.3574L15.977 15.1873C15.8218 14.7707 16.0374 14.3079 16.4579 14.1559C16.9932 13.9622 18.0904 13.5654 18.0904 13.5654" stroke="#EC6D26" stroke-linecap="round" stroke-linejoin="round"/>
<path d="M20.3656 14.6941C20.3656 14.6941 20.7567 15.7605 20.9603 16.3153C21.1134 16.7329 21.5793 16.9469 21.9989 16.7928L22.1702 16.7299C22.8105 16.4946 23.3153 15.9932 23.5522 15.3574L23.6156 15.1873C23.7708 14.7707 23.5552 14.3079 23.1347 14.1559C22.5994 13.9622 21.5022 13.5654 21.5022 13.5654" stroke="#EC6D26" stroke-linecap="round" stroke-linejoin="round"/>
<path d="M25.9722 12.9995C25.9722 13.805 25.8125 14.6025 25.5021 15.3467C25.1917 16.0908 24.7368 16.767 24.1633 17.3365C23.5898 17.9061 22.909 18.3579 22.1597 18.6661C21.4104 18.9743 20.6073 19.1329 19.7963 19.1329C18.9853 19.1329 18.1822 18.9743 17.4329 18.6661C16.6836 18.3579 16.0027 17.9061 15.4292 17.3365C14.8558 16.767 14.4008 16.0908 14.0905 15.3467C13.7801 14.6025 13.6204 13.805 13.6204 12.9995C13.6204 12.1941 13.7801 11.3965 14.0905 10.6524C14.4008 9.90828 14.8558 9.23223 15.4292 8.6627C16.0027 8.09316 16.6836 7.64137 17.4329 7.33314C18.1822 7.02491 18.9853 6.86621 19.7963 6.86621C20.6073 6.86621 21.4104 7.02491 22.1597 7.33314C22.909 7.64137 23.5898 8.09316 24.1633 8.6627C24.7368 9.23223 25.1917 9.90828 25.5021 10.6524C25.8125 11.3965 25.9722 12.1941 25.9722 12.9995V12.9995Z" stroke="#EC6D26" stroke-linecap="round" stroke-linejoin="round"/>
<path d="M21.1388 13.0002C21.1388 13.1753 21.1041 13.3487 21.0366 13.5105C20.9691 13.6722 20.8703 13.8192 20.7456 13.943C20.6209 14.0668 20.4729 14.1651 20.31 14.2321C20.1471 14.2991 19.9726 14.3335 19.7963 14.3335C19.6199 14.3335 19.4454 14.2991 19.2825 14.2321C19.1196 14.1651 18.9716 14.0668 18.8469 13.943C18.7223 13.8192 18.6234 13.6722 18.5559 13.5105C18.4884 13.3487 18.4537 13.1753 18.4537 13.0002C18.4537 12.6466 18.5952 12.3075 18.847 12.0575C19.0987 11.8075 19.4402 11.667 19.7963 11.667C20.1523 11.667 20.4938 11.8075 20.7455 12.0575C20.9973 12.3075 21.1388 12.6466 21.1388 13.0002V13.0002Z" stroke="#EC6D26" stroke-linecap="round" stroke-linejoin="round"/>
<path d="M1.54468 7.13379H7.43708" stroke="#EC6D26" stroke-linecap="round" stroke-linejoin="round"/>
<path d="M1.54468 9.2666H7.43708" stroke="#EC6D26" stroke-linecap="round" stroke-linejoin="round"/>
<path d="M1.54468 11.4004H7.43708" stroke="#EC6D26" stroke-linecap="round" stroke-linejoin="round"/>
<path d="M1.54468 13.5332H7.43708" stroke="#EC6D26" stroke-linecap="round" stroke-linejoin="round"/>
<path d="M1.54468 15.667H7.43708" stroke="#EC6D26" stroke-linecap="round" stroke-linejoin="round"/>
<path d="M1.54468 17.7998H7.43708" stroke="#EC6D26" stroke-linecap="round" stroke-linejoin="round"/>
<path d="M1.54468 19.9336H7.43708" stroke="#EC6D26" stroke-linecap="round" stroke-linejoin="round"/>
<path d="M5.56482 24.2002V24.4669C5.56482 24.7623 5.80434 25.0002 6.10186 25.0002H7.71297C8.01049 25.0002 8.25 24.7623 8.25 24.4669V24.2002" stroke="#EC6D26" stroke-linejoin="round"/>
<path d="M22.75 24.2002V24.4669C22.75 24.7623 22.9895 25.0002 23.287 25.0002H24.8981C25.1957 25.0002 25.4352 24.7623 25.4352 24.4669V24.2002" stroke="#EC6D26" stroke-linejoin="round"/>
<path d="M3.41667 23.1337C2.07783 23.1337 1 22.0633 1 20.7337V3.40039C1 2.07079 2.07783 1.00039 3.41667 1.00039L7.17593 1C7.84534 1 8.4433 1.27391 8.88632 1.70143C9.27665 2.07818 9.35761 2.44705 9.54367 2.9151L26.2407 2.86706C28.3234 2.86706 30 4.53212 30 6.60039V19.4004C30 21.4687 28.3234 23.1337 26.2407 23.1337H3.41667Z" stroke="#EC6D26" stroke-linecap="square" stroke-linejoin="round"/>
<path d="M26.3806 8.61201L26.3806 8.61201C26.382 8.60813 26.3826 8.60426 26.3824 8.60044C26.3822 8.59648 26.3812 8.59249 26.3795 8.58879L26.8321 8.37629L26.3795 8.58879C26.3777 8.585 26.3751 8.58139 26.3717 8.57825C26.3683 8.57514 26.364 8.57252 26.3591 8.57074L26.3806 8.61201ZM26.3806 8.61201C26.3777 8.61985 26.3714 8.62718 26.3622 8.63142L26.5629 9.06478M26.3806 8.61201L26.5629 9.06478M26.5629 9.06478L26.3622 8.63142C26.353 8.63572 26.3419 8.63631 26.3317 8.63263L26.5629 9.06478ZM26.3102 8.59139L26.3102 8.5914C26.3074 8.59894 26.3078 8.60708 26.3113 8.61454C26.3148 8.62217 26.3218 8.62908 26.3317 8.63263L26.3102 8.59139ZM26.3102 8.59139C26.3117 8.5874 26.3139 8.58364 26.3169 8.58042M26.3102 8.59139L26.3169 8.58042M26.3169 8.58042C26.3199 8.57713 26.3238 8.57422 26.3285 8.57204M26.3169 8.58042L26.3285 8.57204M26.3285 8.57204C26.3332 8.5699 26.3383 8.56863 26.3436 8.5684M26.3285 8.57204L26.3436 8.5684M26.3436 8.5684C26.349 8.56817 26.3543 8.56899 26.3591 8.57074L26.3436 8.5684Z" fill="#EC6D26" stroke="#EC6D26"/>
</svg>
