<svg width="32" height="32" viewBox="0 0 32 32" fill="none" xmlns="http://www.w3.org/2000/svg">
<path d="M1.51029 25.7269L1.1568 26.0805L1.51029 25.7269ZM4.38837 25.0202L3.9094 24.8767L3.90936 24.8769L4.38837 25.0202ZM17.3714 12.6614L17.7249 12.3078L17.5088 12.0917L17.2179 12.1855L17.3714 12.6614ZM19.3457 14.635L19.8215 14.7886L19.9155 14.4976L19.6992 14.2814L19.3457 14.635ZM6.98251 27.6134L6.83912 27.1344L6.83905 27.1344L6.98251 27.6134ZM6.2756 30.4905L5.92211 30.8441L5.92233 30.8443L6.2756 30.4905ZM7.80171 30.9726L7.71208 30.4807L7.71202 30.4807L7.80171 30.9726ZM22.4058 16.887L22.4124 16.387L22.033 16.382L21.9261 16.7461L22.4058 16.887ZM23.8538 13.4571L23.5003 13.8107L23.8538 13.4571ZM18.5488 8.15392L18.9023 7.80031L18.5488 8.15392ZM15.1176 9.60185L15.2584 10.0816L15.6176 9.97622V9.60185H15.1176ZM1.02698 24.2008L0.535091 24.1111L0.534948 24.1119L1.02698 24.2008ZM25.4595 7.70456L25.106 7.35093L24.9049 7.55195L24.9749 7.82758L25.4595 7.70456ZM25.0415 9.22963L24.688 8.87601L25.0415 9.22963ZM23.5159 9.64749L23.6387 9.16281L23.3633 9.09302L23.1624 9.29387L23.5159 9.64749ZM22.762 10.4011L22.4085 10.0475L22.0548 10.4011L22.4085 10.7547L22.762 10.4011ZM24.8362 12.4746L25.1897 12.121L24.8362 12.4746ZM25.3888 13.1991L24.9544 13.4467L25.2091 13.8936L25.6486 13.6262L25.3888 13.1991ZM31 3.49578L31.498 3.5403L31.5188 3.30745L31.3535 3.14216L31 3.49578ZM30.3351 2.83116L30.6886 2.47754L30.3352 2.12419L29.9817 2.47752L30.3351 2.83116ZM19.5322 7.17199L19.1783 7.52521L19.1787 7.5256L19.5322 7.17199ZM21.5827 9.22173L21.2292 9.57535L21.5827 9.92871L21.9362 9.57535L21.5827 9.22173ZM22.3509 8.45376L22.7044 8.80737L22.8997 8.61215L22.8385 8.34289L22.3509 8.45376ZM24.2659 6.53951L24.1551 7.02708L24.4242 7.08823L24.6193 6.89312L24.2659 6.53951ZM29.1553 1.65177L29.5088 2.00538L29.8626 1.65177L29.5088 1.29815L29.1553 1.65177ZM28.5033 1L28.8568 0.646383L28.6916 0.481203L28.4589 0.50198L28.5033 1ZM18.7946 6.6122L18.3674 6.35242L18.0989 6.79395L18.5491 7.04774L18.7946 6.6122ZM1.1568 26.0805C2.33661 27.2599 4.3827 26.7835 4.86739 25.1635L3.90936 24.8769C3.64806 25.7502 2.52421 26.0334 1.86378 25.3732L1.1568 26.0805ZM4.86735 25.1637C7.14359 17.5634 13.6644 14.3827 17.5249 13.1372L17.2179 12.1855C13.2455 13.4671 6.32772 16.802 3.9094 24.8767L4.86735 25.1637ZM17.0179 13.015L18.9922 14.9886L19.6992 14.2814L17.7249 12.3078L17.0179 13.015ZM18.8699 14.4814C17.6241 18.3398 14.4423 24.8584 6.83912 27.1344L7.12589 28.0924C15.2033 25.6745 18.5395 18.7592 19.8215 14.7886L18.8699 14.4814ZM6.83905 27.1344C5.21989 27.6194 4.74173 29.6641 5.92211 30.8441L6.62909 30.1369C5.96924 29.4772 6.25191 28.3542 7.12596 28.0924L6.83905 27.1344ZM5.92233 30.8443C6.43504 31.3562 7.16979 31.5961 7.89139 31.4645L7.71202 30.4807C7.32157 30.5519 6.91557 30.4229 6.62887 30.1366L5.92233 30.8443ZM7.89134 31.4645C17.9886 29.6247 21.6722 21.1601 22.8856 17.0279L21.9261 16.7461C20.7432 20.7743 17.2311 28.7462 7.71208 30.4807L7.89134 31.4645ZM22.3992 17.3869C23.0514 17.3956 23.7084 17.1518 24.2073 16.6531L23.5003 15.9459C23.2007 16.2454 22.8071 16.3922 22.4124 16.387L22.3992 17.3869ZM24.2073 16.6531C25.1877 15.6731 25.1877 14.0835 24.2073 13.1034L23.5003 13.8107C24.09 14.4002 24.09 15.3564 23.5003 15.9459L24.2073 16.6531ZM18.9023 7.80031C17.9219 6.82034 16.3321 6.82034 15.3518 7.80031L16.0588 8.50754C16.6486 7.91793 17.6055 7.91793 18.1953 8.50754L18.9023 7.80031ZM15.3518 7.80031C14.8613 8.2906 14.6166 8.93381 14.6166 9.57515H15.6166C15.6166 9.18791 15.7637 8.80253 16.0588 8.50754L15.3518 7.80031ZM14.6166 9.57515C14.6166 9.58644 14.6169 9.59599 14.6172 9.60263C14.6175 9.6089 14.6178 9.61458 14.6179 9.61623C14.618 9.61903 14.618 9.6178 14.6179 9.61599C14.6178 9.61379 14.6176 9.60869 14.6176 9.60185H15.6176C15.6176 9.59056 15.6173 9.58101 15.617 9.57437C15.6168 9.5681 15.6164 9.56242 15.6164 9.56077C15.6162 9.55797 15.6163 9.5592 15.6164 9.56101C15.6164 9.56321 15.6166 9.56831 15.6166 9.57515H14.6166ZM14.9768 9.12208C10.8433 10.335 2.37563 14.0172 0.535093 24.1111L1.51887 24.2905C3.25393 14.775 11.2286 11.2641 15.2584 10.0816L14.9768 9.12208ZM0.534948 24.1119C0.404757 24.8325 0.643696 25.5675 1.1568 26.0805L1.86378 25.3732C1.57747 25.087 1.44836 24.6807 1.51902 24.2897L0.534948 24.1119ZM24.9749 7.82758C25.0676 8.19279 24.9717 8.59245 24.688 8.87601L25.395 9.58325C25.9394 9.039 26.1196 8.27261 25.9441 7.58154L24.9749 7.82758ZM24.688 8.87601C24.4047 9.15919 24.0047 9.25556 23.6387 9.16281L23.3931 10.1322C24.0847 10.3074 24.8512 10.1269 25.395 9.58325L24.688 8.87601ZM23.1624 9.29387L22.4085 10.0475L23.1155 10.7547L23.8694 10.0011L23.1624 9.29387ZM22.4085 10.7547L24.4827 12.8282L25.1897 12.121L23.1155 10.0475L22.4085 10.7547ZM24.4827 12.8282C24.6692 13.0147 24.8267 13.2227 24.9544 13.4467L25.8232 12.9515C25.652 12.6513 25.4405 12.3717 25.1897 12.121L24.4827 12.8282ZM25.6486 13.6262C28.2886 12.0203 29.7464 9.4801 30.5431 7.38045C30.9428 6.32698 31.1808 5.37265 31.319 4.68075C31.3882 4.33444 31.4326 4.05287 31.4599 3.85625C31.4736 3.75792 31.4829 3.68075 31.4889 3.62728C31.492 3.60053 31.4941 3.5797 31.4956 3.56511C31.4964 3.55781 31.4969 3.55206 31.4973 3.54792C31.4975 3.54584 31.4977 3.54417 31.4978 3.5429C31.4978 3.54226 31.4979 3.54173 31.4979 3.54129C31.4979 3.54108 31.498 3.54083 31.498 3.54072C31.498 3.5405 31.498 3.5403 31 3.49578C30.502 3.45126 30.502 3.45111 30.502 3.45099C30.502 3.45098 30.502 3.45089 30.502 3.45087C30.502 3.45085 30.502 3.45092 30.502 3.45109C30.502 3.45143 30.5019 3.45218 30.5018 3.45331C30.5016 3.45558 30.5012 3.45942 30.5007 3.4648C30.4996 3.47556 30.4978 3.49246 30.4952 3.51518C30.4901 3.56063 30.4818 3.62934 30.4694 3.71885C30.4446 3.89792 30.4033 4.15985 30.3384 4.48481C30.2084 5.13547 29.9841 6.03477 29.6081 7.02568C28.8534 9.01477 27.5056 11.3262 25.1289 12.7719L25.6486 13.6262ZM31.3535 3.14216L30.6886 2.47754L29.9817 3.18477L30.6465 3.8494L31.3535 3.14216ZM29.9817 2.47752L25.106 7.35093L25.813 8.05819L30.6886 3.18479L29.9817 2.47752ZM19.1787 7.5256L21.2292 9.57535L21.9362 8.86812L19.8857 6.81837L19.1787 7.5256ZM21.9362 9.57535L22.7044 8.80737L21.9974 8.10014L21.2292 8.86812L21.9362 9.57535ZM22.8385 8.34289C22.7571 7.98518 22.8556 7.59753 23.1323 7.32088L22.4253 6.61364C21.8948 7.14403 21.7092 7.88684 21.8634 8.56463L22.8385 8.34289ZM23.1323 7.32088C23.4091 7.0442 23.797 6.94572 24.1551 7.02708L24.3766 6.05194C23.6988 5.89791 22.9559 6.08328 22.4253 6.61364L23.1323 7.32088ZM24.6193 6.89312L29.5088 2.00538L28.8018 1.29815L23.9124 6.18589L24.6193 6.89312ZM29.5088 1.29815L28.8568 0.646383L28.1498 1.35361L28.8018 2.00538L29.5088 1.29815ZM28.5033 1C28.4589 0.50198 28.4587 0.501999 28.4584 0.502018C28.4583 0.502028 28.4581 0.50205 28.4579 0.502069C28.4574 0.50211 28.4569 0.502159 28.4563 0.502216C28.455 0.502335 28.4533 0.502489 28.4512 0.502687C28.4471 0.50308 28.4414 0.503637 28.434 0.504374C28.4194 0.505844 28.3986 0.508028 28.3718 0.511045C28.3183 0.517076 28.2411 0.526436 28.1427 0.540073C27.9459 0.567343 27.6641 0.611759 27.3175 0.680954C26.6251 0.819199 25.6701 1.05714 24.6159 1.45691C22.5149 2.25369 19.9732 3.71172 18.3674 6.35242L19.2218 6.87198C20.6673 4.49488 22.98 3.14681 24.9705 2.39194C25.9621 2.01588 26.8621 1.79161 27.5133 1.6616C27.8386 1.59667 28.1007 1.55545 28.2799 1.53061C28.3695 1.51819 28.4383 1.50988 28.4838 1.50476C28.5066 1.50219 28.5235 1.50043 28.5342 1.49934C28.5396 1.4988 28.5435 1.49843 28.5457 1.49821C28.5469 1.4981 28.5476 1.49804 28.548 1.498C28.5481 1.49799 28.5482 1.49798 28.5482 1.49798C28.5482 1.49799 28.5481 1.49799 28.5481 1.498C28.5479 1.498 28.5478 1.49802 28.5033 1ZM18.5491 7.04774C18.7771 7.17633 18.9893 7.33582 19.1783 7.52521L19.8861 6.81876C19.6309 6.56309 19.3454 6.34874 19.0402 6.17666L18.5491 7.04774ZM24.2073 13.1034L18.9023 7.80031L18.1953 8.50754L23.5003 13.8107L24.2073 13.1034Z" fill="#EC6D26"/>
</svg>
