<svg width="23" height="38" viewBox="0 0 23 38" fill="none" xmlns="http://www.w3.org/2000/svg">
<path d="M17.7526 1.17599C17.7526 1.17599 17.7526 1.13605 17.7526 1.17599C17.7526 1.09611 17.7125 1.05617 17.6725 1.01623C17.6725 1.01623 17.6725 1.01623 17.6725 0.976294C17.6325 0.936354 17.6325 0.896415 17.5925 0.896415C17.5925 0.896415 17.5525 0.896415 17.5525 0.856476C17.5525 0.856476 17.5525 0.856476 17.5124 0.856476L16.1118 0.0576901C16.0718 0.0576901 16.0718 0.0576901 16.0318 0.0177508C16.0318 0.0177508 16.0318 0.0177508 15.9918 0.0177508C15.9518 0.0177508 15.8717 -0.0221885 15.8317 0.0177508H15.7917C15.7517 0.0177508 15.7116 0.0177508 15.6716 0.0576901H15.6316L8.3884 4.25131C8.34838 4.29125 8.30837 4.29125 8.26835 4.33119C8.26835 4.33119 8.26835 4.33119 8.22833 4.37113C8.18831 4.41107 8.18831 4.45101 8.14829 4.49095L0.0246927 28.8539C-0.0553428 29.0935 0.0647107 29.3731 0.304817 29.453C0.344835 29.453 0.384853 29.4929 0.464888 29.4929C0.664977 29.4929 0.825048 29.3731 0.905083 29.1734L2.54581 24.221L8.62851 20.7462L7.30792 24.7002C7.22789 24.9399 7.34794 25.2194 7.58805 25.2993C7.62806 25.2993 7.66808 25.3393 7.74812 25.3393C7.94821 25.3393 8.10828 25.2194 8.18831 25.0197L11.1896 16.0334L14.6712 37.6006C14.7112 37.8402 14.9113 38 15.1514 38C15.1914 38 15.1914 38 15.2314 38C15.4715 37.9601 15.6716 37.7204 15.6316 37.4808L14.6312 31.2103L21.034 27.496L22.0345 33.3271C22.0745 33.5667 22.2746 33.7265 22.5147 33.7265C22.5547 33.7265 22.5547 33.7265 22.5947 33.7265C22.8348 33.6866 23.0349 33.4469 22.9949 33.2073L17.7526 1.17599ZM12.5903 18.3099L18.9931 14.5956L19.9135 20.3868L13.5107 24.1011L12.5903 18.3099ZM10.5894 14.995L4.50668 18.5096L5.86728 14.4758L10.5494 11.7599L10.9095 13.9965L10.5894 14.995ZM12.1901 10.1224L11.3097 10.6416L10.8295 7.68609L13.5107 6.12846L12.1901 10.1224ZM13.8708 5.12998C13.8708 5.16992 13.8708 5.16992 13.8708 5.12998L13.8308 5.20986L10.7494 6.96719L10.5494 5.60925L14.4711 3.37265L13.8708 5.12998ZM8.90863 5.32967L9.58893 5.72907L9.86906 7.52633L7.74812 8.76445L8.90863 5.32967ZM7.46799 9.60318L9.94909 8.16536L10.4293 11.1209L6.10739 13.5971L7.46799 9.60318ZM14.7512 5.48943C14.7512 5.48943 14.7512 5.44949 14.7512 5.48943L15.6716 2.73362L16.9522 1.97478L17.8726 7.56627L13.1505 10.2821L14.7512 5.48943ZM2.90597 23.3423L4.22656 19.3084L10.3093 15.8337L8.94865 19.8676L2.90597 23.3423ZM12.8304 11.1608L17.9526 8.2053L18.873 13.9965L12.4702 17.7108L11.8699 14.0764L12.8304 11.1608ZM14.5511 30.4914L13.6307 24.7002L20.0336 20.9859L20.954 26.7771L14.5511 30.4914Z" fill="#EC6D26"/>
</svg>
