<svg width="30" height="23" viewBox="0 0 30 23" fill="none" xmlns="http://www.w3.org/2000/svg">
<rect width="30" height="23" fill="black" fill-opacity="0"/>
<path d="M27.2666 9H26.6129V4.5C26.6129 2.019 24.659 0 22.2581 0H7.74194C5.34097 0 3.3871 2.019 3.3871 4.5V9H2.73339L0 11.26V23H30V11.26L27.2666 9ZM28.1366 11H22.186L23.3956 10H26.9269L28.1366 11ZM6.29032 9V4.5C6.29032 3.673 6.94161 3 7.74194 3H22.2581C23.0584 3 23.7097 3.673 23.7097 4.5V9H19.876L20.2655 7.994C20.2848 7.995 20.3032 8 20.3226 8C21.1229 8 21.7742 7.327 21.7742 6.5C21.7742 5.673 21.1229 5 20.3226 5C19.5223 5 18.871 5.673 18.871 6.5C18.871 6.9475 19.0655 7.3455 19.3674 7.6205L18.8337 9H16.6452L17.4024 6.1315L16.4685 5.8685L15.6421 9H13.6819L11.8994 3.843L8.58968 5.211L9.81242 9H6.29032ZM19.8387 6.5C19.8387 6.2245 20.056 6 20.3226 6C20.5892 6 20.8065 6.2245 20.8065 6.5C20.8065 6.7755 20.5892 7 20.3226 7C20.056 7 19.8387 6.7755 19.8387 6.5ZM11.4779 11L9.79694 5.789L11.326 5.157L13.3456 11H11.4779ZM14.3734 11L14.0279 10H15.3784L15.1147 11H14.3734ZM16.3815 10H18.4466L18.0595 11H16.1177L16.3815 10ZM19.4889 10H21.8463L20.6366 11H19.1018L19.4889 10ZM4.35484 4.5C4.35484 2.57 5.87419 1 7.74194 1H22.2581C24.1258 1 25.6452 2.57 25.6452 4.5V9H24.6774V4.5C24.6774 3.1215 23.5921 2 22.2581 2H7.74194C6.4079 2 5.32258 3.1215 5.32258 4.5V9H4.35484V4.5ZM8.70968 22H0.967742V11.74L3.07306 10H6.60484L8.70968 11.74V22ZM8.15371 10H10.1352L10.4579 11H9.36339L8.15371 10ZM9.67742 22V12H29.0323V22H9.67742Z" fill="#EC6D26"/>
<path d="M11.613 13H10.6453V14H11.613V13Z" fill="#EC6D26"/>
<path d="M16.9354 13H12.5806V14H16.9354V13Z" fill="#EC6D26"/>
</svg>
