<svg width="40" height="22" viewBox="0 0 40 22" fill="none" xmlns="http://www.w3.org/2000/svg">
<rect width="36" height="16" fill="black" fill-opacity="0" transform="translate(38.8674 5.3418) scale(-1 1) rotate(-7.26772)"/>
<path d="M3.13303 4.19998L8.94573 4.94128C9.36891 4.99524 9.73617 5.18031 9.98026 5.46324C10.2792 5.80846 10.592 6.16478 10.9364 6.55429C11.8539 7.59594 12.9929 8.88664 14.5656 10.8028C14.5524 10.7641 14.5454 10.7281 14.5411 10.6905C14.4612 10.0766 13.691 5.49563 13.691 5.49563C13.5706 5.48028 13.4866 5.36832 13.5023 5.24443C13.5181 5.12054 13.6276 5.03326 13.748 5.04861L37.4168 5.1568C37.5372 5.17215 37.6216 5.28416 37.606 5.40658C37.5902 5.53047 37.4807 5.61775 37.3604 5.6024C35.1166 7.39083 32.947 10.5422 31.7013 12.1938C30.6243 13.6215 28.7321 13.9622 27.1413 13.9775L29.8175 14.3188C30.6187 13.1844 31.9773 12.5193 33.4204 12.7033C34.8621 12.8872 36.0103 13.872 36.5012 15.1712L37.1908 15.2591C37.4154 15.2878 37.5722 15.4983 37.5429 15.7281C37.514 15.9545 37.308 16.1188 37.0848 16.0903L36.7205 16.0438C36.7678 16.3876 36.7716 16.7445 36.7253 17.1073C36.4493 19.2715 34.5214 20.8065 32.4194 20.5385C30.3171 20.2704 28.8379 18.3004 29.1139 16.1366C29.1601 15.7742 29.2534 15.4297 29.3851 15.1084L19.1521 13.8033C18.9906 13.7827 18.8187 14.0556 18.7724 14.1483C18.7559 14.1832 17.2202 17.6852 17.0858 18.0394C16.8886 18.5548 16.5512 18.6254 16.3048 18.594L15.7148 18.5187C15.5124 18.4929 15.1657 18.3568 15.0953 17.7396C15.0284 17.1658 14.5089 13.1652 14.3942 12.3119C14.3504 11.9779 14.0797 11.5026 14.0431 11.4396C13.4686 10.7507 12.5325 9.66814 11.6218 8.62138C10.7245 7.58416 9.87405 6.60336 9.43761 6.07286C9.24882 5.84293 8.88703 5.77998 8.56421 5.73881L3.0272 5.03268C2.804 5.00421 2.64578 4.7935 2.67509 4.56374C2.7038 4.33577 2.90983 4.17152 3.13303 4.19998ZM15.8302 17.4493C15.8511 17.6608 15.9591 17.7022 16.0616 17.7153L16.2526 17.7396C16.3112 17.7471 16.3905 17.7572 16.4889 17.478C16.6184 17.1168 18.0023 13.752 18.0638 13.5999C18.0763 13.5709 18.4349 12.8672 19.1538 12.9589L23.6048 13.5265C21.1786 12.9806 16.2283 11.8718 15.8819 11.8277C15.644 11.7973 15.321 11.6609 15.0493 11.4525C15.1655 11.6653 15.277 11.9377 15.3115 12.2507C15.4003 13.0544 15.7825 16.8873 15.8302 17.4493Z" stroke="#EC6D26"/>
</svg>
