<svg width="31" height="21" viewBox="0 0 31 21" fill="none" xmlns="http://www.w3.org/2000/svg">
<path d="M24.7558 8.28038C24.4523 5.82225 23.3118 3.54109 21.5234 1.81549L20.5106 2.85526C22.0605 4.35084 23.0489 6.328 23.3116 8.45849L24.7558 8.28038Z" fill="#EC6D26"/>
<path d="M21.3998 19.0247C21.9209 18.3676 22.6792 17.2062 22.6792 16.3697V10.8916C22.678 9.45823 22.3904 8.03936 21.8331 6.71722C21.2758 5.39507 20.4599 4.19596 19.4325 3.18939C18.4052 2.18282 17.187 1.38881 15.8485 0.853379C14.5099 0.317952 13.0777 0.0517609 11.6348 0.0702357C8.75182 0.138243 6.01052 1.3261 3.99918 3.37891C1.98783 5.43172 0.866715 8.1859 0.876405 11.0504V16.3745C0.877687 17.3686 1.27584 18.3217 1.98353 19.0247C2.69123 19.7276 2.99834 19.9987 3.99918 20H30V21H31V19.0247H21.3998ZM11.6542 1.51437V2.4001C11.6564 2.66469 11.5686 2.92225 11.405 3.13106C11.2414 3.33988 11.0116 3.4877 10.7528 3.55059C9.21595 3.8964 7.81334 4.67831 6.71554 5.80125C5.61774 6.9242 4.87206 8.33978 4.56916 9.87588C4.51331 10.1296 4.37088 10.3564 4.16599 10.5179C3.9611 10.6793 3.70634 10.7654 3.44486 10.7616H2.34478C2.40618 8.3283 3.4067 6.01149 5.13942 4.29034C6.87215 2.56919 9.20453 1.57535 11.6542 1.51437ZM4.56916 19.0247C3.95351 19.0247 3.44547 18.4325 3.01014 18.0001C2.57481 17.5677 2.33025 16.9812 2.33025 16.3697V12.2057H3.45455C4.05494 12.2129 4.63921 12.0128 5.10764 11.6397C5.57606 11.2666 5.89959 10.7436 6.023 10.1599C6.26838 8.89977 6.87653 7.73743 7.77369 6.81379C8.67086 5.89014 9.81852 5.24487 11.0775 4.95621C11.6589 4.82127 12.1772 4.49462 12.5477 4.02953C12.9182 3.56445 13.1192 2.98838 13.1177 2.39528V1.61545C15.3678 1.93112 17.4274 3.04362 18.9172 4.74811C20.4069 6.45261 21.2266 8.63434 21.2253 10.8916V16.3745C21.2253 16.6773 21.1653 16.9771 21.0486 17.2569C20.932 17.5366 20.761 17.7908 20.5454 18.0049C20.3299 18.219 20.074 18.3889 19.7924 18.5047C19.5107 18.6206 19.222 19.0247 18.9172 19.0247H4.56916Z" fill="#EC6D26"/>
<path d="M12.5145 6.35553C11.5388 6.35553 10.585 6.64293 9.77366 7.1814C8.96238 7.71986 8.33005 8.4852 7.95666 9.38064C7.58326 10.2761 7.48557 11.2614 7.67592 12.212C7.86628 13.1626 8.33614 14.0357 9.02608 14.7211C9.71602 15.4064 10.5951 15.8731 11.552 16.0622C12.509 16.2513 13.501 16.1542 14.4024 15.7833C15.3039 15.4124 16.0744 14.7843 16.6164 13.9785C17.1585 13.1726 17.4479 12.2252 17.4479 11.2559C17.4466 9.95667 16.9264 8.71097 16.0015 7.79224C15.0766 6.87351 13.8225 6.3568 12.5145 6.35553ZM12.5145 14.7122C11.8263 14.7122 11.1536 14.5095 10.5814 14.1297C10.0092 13.75 9.56319 13.2102 9.29983 12.5786C9.03648 11.9471 8.96757 11.2521 9.10183 10.5817C9.23609 9.9112 9.56748 9.29535 10.0541 8.81198C10.5407 8.32861 11.1607 7.99943 11.8357 7.86607C12.5106 7.73271 13.2103 7.80115 13.8461 8.06275C14.4819 8.32435 15.0253 8.76735 15.4076 9.33574C15.7899 9.90412 15.994 10.5724 15.994 11.2559C15.9927 12.1722 15.6257 13.0506 14.9735 13.6985C14.3212 14.3464 13.4369 14.711 12.5145 14.7122Z" fill="#EC6D26"/>
</svg>
