<svg width="129" height="256" viewBox="0 0 129 256" fill="none" xmlns="http://www.w3.org/2000/svg">
<g clip-path="url(#clip0_16_2050)">
<path d="M100.906 30.3323C101.277 29.3141 101.466 28.2389 101.465 27.1554C101.272 26.1404 100.531 24.2525 100.906 23.0954C101.282 21.9383 102.581 18.3249 104.083 18.4163C105.586 18.5076 110.062 19.7256 110.529 21.9688C110.996 24.2119 106.469 35.6611 106.469 35.6611L100.906 30.3323Z" fill="white"/>
<path d="M106.469 36.1687C106.337 36.1674 106.211 36.1167 106.114 36.0266L100.603 30.6978C100.534 30.6308 100.485 30.5459 100.462 30.4527C100.439 30.3594 100.442 30.2616 100.471 30.17C100.829 29.2367 101.014 28.2463 101.019 27.2468C100.968 26.9829 100.887 26.6784 100.796 26.3333C100.384 25.2355 100.272 24.0479 100.471 22.8925C100.836 21.6846 102.186 17.7261 104.165 17.8175C105.465 17.8987 110.519 19.0964 111.078 21.776C111.565 24.1003 107.413 34.6157 106.936 35.8033C106.907 35.8824 106.858 35.9528 106.794 36.0078C106.73 36.0629 106.654 36.1008 106.571 36.1179L106.469 36.1687ZM101.537 30.1903L106.277 34.768C108.063 30.1903 110.387 23.4812 110.083 22.0196C109.707 20.1926 105.668 18.9746 104.105 18.8731C103.282 18.8731 102.075 21.0249 101.435 23.1868C101.313 24.1606 101.428 25.1496 101.77 26.0694C101.871 26.445 101.963 26.7799 102.014 27.0844C102.039 28.144 101.86 29.1987 101.486 30.1903H101.537Z" fill="#040047"/>
<path d="M94.0049 16.9951L119.512 30.0176L128.657 12.2855L102.937 -0.00610352L94.0049 16.9951Z" fill="white"/>
<path d="M119.512 30.515C119.43 30.5155 119.349 30.4945 119.278 30.4541L93.7712 17.4621C93.7091 17.4316 93.6537 17.3889 93.6084 17.3366C93.5631 17.2843 93.5287 17.2234 93.5073 17.1576C93.4799 17.0934 93.4658 17.0244 93.4658 16.9546C93.4658 16.8848 93.4799 16.8158 93.5073 16.7516L102.429 -0.249634C102.49 -0.371656 102.597 -0.464636 102.726 -0.508354C102.855 -0.552071 102.997 -0.542991 103.119 -0.483086L128.839 11.8086C128.904 11.8375 128.961 11.8795 129.009 11.9319C129.056 11.9844 129.091 12.0461 129.113 12.1131C129.141 12.1772 129.155 12.2463 129.155 12.3161C129.155 12.3858 129.141 12.4549 129.113 12.5191L119.978 30.2511C119.932 30.3335 119.864 30.4017 119.782 30.4482C119.7 30.4948 119.606 30.5179 119.512 30.515V30.515ZM94.7151 16.7719L119.288 29.3072L127.946 12.5191L103.17 0.684166L94.7151 16.7719Z" fill="#040047"/>
<path d="M26.0814 30.3323C25.7062 29.3154 25.5171 28.2393 25.5232 27.1554C25.7059 26.1404 26.457 24.2525 26.0814 23.0954C25.7059 21.9383 24.3965 18.3249 22.9045 18.4163C21.4124 18.5076 16.9261 19.7256 16.4592 21.9688C15.9923 24.2119 20.57 35.7118 20.57 35.7118L26.0814 30.3323Z" fill="white"/>
<path d="M20.5696 36.1687H20.458C20.3768 36.1483 20.3015 36.1092 20.2381 36.0546C20.1746 36 20.1248 35.9313 20.0926 35.854C19.6257 34.6665 15.4744 24.1511 15.9616 21.8267C16.5198 19.1471 21.5644 17.9494 22.8737 17.8682C24.8327 17.7261 26.1928 21.6948 26.5683 22.9432C26.7568 24.0991 26.6449 25.2839 26.2435 26.3841C26.1522 26.7292 26.071 27.0337 26.0202 27.2976C26.0238 28.2963 26.206 29.2862 26.5582 30.2208C26.5924 30.3109 26.599 30.4092 26.5774 30.5032C26.5557 30.5971 26.5066 30.6825 26.4363 30.7486L20.9249 36.0773C20.8212 36.1493 20.6952 36.1817 20.5696 36.1687V36.1687ZM22.965 18.9137C21.4019 19.0152 17.3622 20.2332 16.9867 22.0602C16.6822 23.5218 19.0167 30.1802 20.7929 34.8086L25.533 30.2309C25.1686 29.2307 25.0064 28.1681 25.0559 27.1047C25.1067 26.8205 25.1981 26.4856 25.2894 26.0897C25.6317 25.1699 25.7466 24.1809 25.6244 23.2071C24.9443 21.0553 23.7872 18.8731 22.965 18.8731V18.9137Z" fill="#040047"/>
<path d="M90.6655 242.214C90.7568 242.498 89.823 251.095 90.6655 252.496C91.5079 253.896 99.7294 257.916 103.282 255.297C106.834 252.678 104.124 250.465 103.282 249.207C102.439 247.948 98.887 240.275 98.887 240.275L90.6655 242.214Z" fill="#040047"/>
<path d="M100.136 256.667C99.3549 256.661 98.5766 256.579 97.8114 256.424C94.5228 255.764 90.8891 253.856 90.2293 252.759C89.5696 251.663 89.732 248.598 90.0771 243.787C90.0771 243.107 90.1684 242.406 90.1684 242.285C90.1406 242.228 90.1262 242.165 90.1262 242.102C90.1262 242.039 90.1406 241.976 90.1684 241.919C90.2499 241.811 90.3698 241.738 90.5034 241.716L98.735 239.757C98.8494 239.73 98.9697 239.744 99.0752 239.796C99.1807 239.848 99.265 239.934 99.3136 240.042C99.3136 240.113 102.856 247.684 103.668 248.913C103.804 249.113 103.949 249.306 104.104 249.491C104.558 249.94 104.917 250.477 105.158 251.068C105.398 251.659 105.516 252.294 105.505 252.932C105.387 253.504 105.152 254.045 104.815 254.522C104.478 254.999 104.046 255.401 103.546 255.703C102.539 256.376 101.346 256.713 100.136 256.667V256.667ZM91.1733 242.65C91.1733 242.904 91.1733 243.279 91.0921 243.888C90.9398 245.918 90.5643 251.359 91.0921 252.262C91.5082 252.973 94.7258 254.8 98.0042 255.459C99.5267 255.764 101.618 255.916 102.968 254.921C103.359 254.692 103.7 254.385 103.97 254.021C104.24 253.656 104.434 253.241 104.541 252.8C104.504 251.788 104.075 250.831 103.343 250.131C103.16 249.897 102.988 249.674 102.856 249.481C102.105 248.334 99.344 242.376 98.6031 240.854L91.1733 242.65Z" fill="#040047"/>
<path d="M28.4665 238.428C28.4665 238.428 21.4529 250.07 22.5796 253.145C23.7062 256.221 33.9374 253.571 35.8964 251.328C37.8553 249.085 37.9974 235.484 37.9974 235.484L28.4665 238.428Z" fill="#040047"/>
<path d="M25.9798 255.053C25.4591 255.059 24.9391 255.015 24.4268 254.921C23.9303 254.89 23.4517 254.724 23.0422 254.442C22.6327 254.159 22.3079 253.771 22.1025 253.318C20.9352 250.1 27.2993 239.382 28.0301 238.164C28.0956 238.058 28.1962 237.979 28.3143 237.94L37.8451 234.997C37.9222 234.973 38.004 234.967 38.0836 234.981C38.1633 234.995 38.2385 235.027 38.3031 235.076C38.3676 235.124 38.4196 235.188 38.4547 235.261C38.4898 235.333 38.507 235.413 38.5049 235.494C38.5049 236.905 38.3019 249.339 36.282 251.663C34.861 253.277 29.6642 255.053 25.9798 255.053ZM28.8015 238.813C26.0407 243.421 22.3055 250.861 23.0566 252.932C23.2291 253.409 23.7468 253.724 24.6095 253.886C27.7763 254.485 34.0896 252.577 35.5106 250.953C36.9316 249.329 37.3985 240.285 37.4797 236.134L28.8015 238.813Z" fill="#040047"/>
<path d="M47.2536 125.296C47.2536 125.296 37.5806 180.248 34.495 193.707C31.4094 207.166 25.8066 240.255 25.8066 240.255C25.8066 240.255 30.2929 243.3 37.5806 241.371L64.5999 157.532L89.9749 243.614L100.906 241.097L83.0019 129.122L47.2536 125.296Z" fill="#040047"/>
<path d="M90.0155 244.122C89.9052 244.123 89.7976 244.088 89.7094 244.022C89.6212 243.956 89.5575 243.863 89.5283 243.756L64.5796 159.258L38.0576 241.533C38.0325 241.613 37.9876 241.684 37.9272 241.741C37.8668 241.797 37.7929 241.838 37.7125 241.858C30.2827 243.888 25.705 240.843 25.5325 240.671C25.4528 240.615 25.3906 240.537 25.3529 240.448C25.3152 240.358 25.3036 240.259 25.3194 240.163C25.3803 239.838 30.9627 206.912 34.0179 193.595C37.073 180.278 46.675 125.752 46.7765 125.204C46.7965 125.078 46.8648 124.964 46.9669 124.886C47.069 124.809 47.1972 124.774 47.3245 124.788L83.0729 128.615C83.1838 128.627 83.2877 128.675 83.3684 128.752C83.4492 128.829 83.5023 128.931 83.5195 129.041L101.465 241.016C101.486 241.142 101.458 241.271 101.386 241.377C101.314 241.483 101.204 241.557 101.079 241.584L90.1474 244.112L90.0155 244.122ZM64.6405 157.025C64.7485 157.027 64.8531 157.063 64.9389 157.129C65.0247 157.195 65.0873 157.286 65.1175 157.39L90.391 243.015L100.399 240.701L82.5654 129.589L47.6697 125.844C46.7156 131.233 37.8851 181.161 34.9923 193.849C32.0996 206.536 26.9637 236.479 26.3648 240.021C27.3798 240.61 31.3586 242.467 37.1847 240.985L64.1228 157.39C64.1516 157.285 64.2138 157.193 64.2999 157.127C64.386 157.061 64.4914 157.025 64.5999 157.025H64.6405Z" fill="#040047"/>
<path d="M108.611 31.3574C105.992 41.2638 88.9806 84.787 87.6713 87.7813C86.3619 90.7755 87.4885 130.807 87.4885 130.807C76.6382 137.729 45.6097 134.725 45.0514 133.426C44.4932 132.127 45.2443 104.63 44.3105 99.403C43.3767 94.1758 18.1641 32.2912 18.1641 32.2912L27.1367 29.3071L36.4341 49.3534C36.4341 49.3534 47.457 67.9989 50.0757 69.8665C51.0049 70.4347 52.0416 70.8044 53.1207 70.9526C55.7198 71.3804 58.3537 71.5606 60.9869 71.4905C66.204 72.9826 72.6087 70.9526 76.1104 69.2474C76.7535 68.9548 77.3743 68.6155 77.9679 68.2324C80.3836 66.5373 100.379 29.3071 100.379 29.3071L108.611 31.3574Z" fill="#FFE11B"/>
<path d="M76.1001 69.2474L64.8539 113.045L53.1104 70.9526C55.7095 71.3805 58.3434 71.5606 60.9766 71.4906C66.1937 72.9826 72.5983 70.9526 76.1001 69.2474Z" fill="#040047"/>
<path d="M64.8541 113.552C64.7443 113.552 64.6375 113.517 64.5496 113.451C64.4618 113.385 64.3976 113.292 64.3669 113.187L52.6741 71.115C52.651 71.0309 52.6491 70.9424 52.6686 70.8574C52.6881 70.7724 52.7283 70.6935 52.7858 70.6278C52.8441 70.5617 52.9192 70.5126 53.0032 70.4857C53.0872 70.4589 53.177 70.4554 53.2628 70.4756C55.8255 70.8936 58.4217 71.0703 61.0174 71.0034H61.1697C65.9097 72.3635 71.9084 70.7496 75.9278 68.7907C76.0154 68.7528 76.1119 68.7399 76.2064 68.7534C76.301 68.7669 76.3899 68.8063 76.4635 68.8672C76.537 68.9282 76.5923 69.0083 76.6231 69.0986C76.654 69.189 76.6592 69.2862 76.6382 69.3794L65.3921 113.177C65.3664 113.286 65.304 113.383 65.2152 113.451C65.1265 113.519 65.0169 113.555 64.9048 113.552H64.8541ZM53.8211 71.5921L64.8541 111.086L75.3594 70.1609C71.2385 71.9676 65.5646 73.2973 60.9362 71.9981C58.5573 72.0604 56.1774 71.9246 53.8211 71.5921V71.5921Z" fill="#040047"/>
<path d="M73.6641 56.2859C73.7907 55.9537 73.8991 55.6149 73.9889 55.2709C75.7753 48.7038 73.1464 40.2591 65.4121 39.7313C63.6414 39.6575 61.886 40.0876 60.3499 40.9716C58.8138 41.8555 57.5599 43.157 56.7339 44.7251C54.511 48.5922 55.1302 53.5353 55.5362 57.7881C55.5376 58.0702 55.6223 58.3457 55.7798 58.5798C56.2264 59.0975 57.0891 58.7523 57.6575 58.7422C58.4797 58.7422 59.3424 58.864 60.1646 58.9148C61.6059 58.9858 63.037 59.0365 64.4682 59.0061C66.5403 59.0959 68.6161 59.0382 70.68 58.8336C71.5529 58.6915 72.1517 58.6914 72.71 57.9809C73.1269 57.4776 73.45 56.9035 73.6641 56.2859V56.2859Z" fill="white"/>
<path d="M67.5941 59.5033H66.3152H64.5085C63.2499 59.5033 61.8695 59.5033 60.1745 59.412L59.1595 59.3308C58.6621 59.3308 58.1445 59.2293 57.6573 59.2395H57.2208C56.9809 59.3511 56.7163 59.3991 56.4524 59.379C56.1886 59.3588 55.9343 59.2711 55.7141 59.1244C55.494 58.9776 55.3152 58.7766 55.1951 58.5408C55.0751 58.305 55.0176 58.0423 55.0284 57.7778V57.1891C54.6123 52.9972 54.1454 48.2369 56.3378 44.4103C57.2155 42.7701 58.5386 41.4112 60.1547 40.49C61.7708 39.5688 63.6143 39.1228 65.4727 39.2033C66.9119 39.2818 68.3141 39.6884 69.572 40.3921C70.8299 41.0958 71.9101 42.078 72.73 43.2633C73.8724 45.0517 74.6216 47.0625 74.9278 49.1624C75.234 51.2622 75.0903 53.4032 74.5063 55.4433C74.4115 55.787 74.2997 56.1258 74.1713 56.4583V56.4583C73.9376 57.1106 73.5944 57.7181 73.1563 58.2549C72.9083 58.5573 72.5994 58.804 72.2496 58.9789C71.8998 59.1538 71.517 59.253 71.1263 59.2699H70.8218C69.754 59.4348 68.6746 59.5129 67.5941 59.5033V59.5033ZM65.0465 58.4883H66.3355C67.7692 58.549 69.2056 58.4878 70.629 58.3056H70.9436C71.2128 58.3123 71.4802 58.2604 71.7273 58.1535C71.9744 58.0466 72.1953 57.8873 72.3748 57.6865C72.7279 57.2333 73.0055 56.726 73.1969 56.1843V56.1843C73.3086 55.8595 73.41 55.5245 73.5014 55.1693C74.0447 53.2763 74.1799 51.2895 73.8982 49.3403C73.6165 47.3911 72.9243 45.5239 71.8673 43.8622C71.1314 42.8064 70.1631 41.9335 69.0369 41.3105C67.9108 40.6876 66.6567 40.3314 65.3713 40.2691C63.713 40.2104 62.0717 40.6201 60.6355 41.4513C59.1994 42.2824 58.0265 43.5014 57.2513 44.9685C55.2213 48.521 55.6679 53.0885 56.0637 57.1485L56.1246 57.7372C56.1277 57.9133 56.1693 58.0865 56.2464 58.2447C56.3784 58.397 56.7032 58.3665 57.1599 58.2447L57.7283 58.1839C58.2663 58.1839 58.8042 58.1838 59.332 58.2752L60.276 58.3564C61.9507 58.4376 63.321 58.468 64.5491 58.4477L65.0465 58.4883Z" fill="#040047"/>
<path d="M58.5106 57.0877C58.1046 53.8194 52.7454 52.8349 52.8774 56.6716C52.8791 58.0011 53.3418 59.2889 54.1868 60.3154C54.6181 60.8211 55.1897 61.1874 55.8293 61.368C56.4689 61.5487 57.1477 61.5356 57.7798 61.3304" fill="white"/>
<path d="M56.7337 61.98C56.1782 61.9715 55.6304 61.8492 55.1241 61.6204C54.6178 61.3917 54.1638 61.0615 53.7902 60.6503C52.8596 59.5372 52.3495 58.1326 52.3489 56.6817C52.2883 56.3171 52.3056 55.9439 52.3995 55.5866C52.4935 55.2292 52.662 54.8957 52.894 54.6081C53.126 54.3205 53.4162 54.0853 53.7456 53.9178C54.075 53.7504 54.4361 53.6546 54.8052 53.6367C55.7939 53.566 56.7731 53.8688 57.5493 54.4853C58.3254 55.1017 58.8421 55.9869 58.9972 56.9659C59.0058 57.0325 59.0013 57.1002 58.9838 57.1651C58.9663 57.23 58.9362 57.2908 58.8952 57.344C58.8542 57.3973 58.8031 57.442 58.7448 57.4755C58.6866 57.509 58.6223 57.5307 58.5556 57.5393C58.489 57.548 58.4213 57.5435 58.3564 57.526C58.2915 57.5085 58.2307 57.4783 58.1775 57.4373C58.1242 57.3963 58.0796 57.3453 58.0461 57.287C58.0125 57.2287 57.9908 57.1645 57.9822 57.0978C57.8562 56.3793 57.4697 55.7325 56.8967 55.2812C56.3236 54.8299 55.6043 54.6057 54.8763 54.6517C54.2876 54.6517 53.303 55.0171 53.3538 56.6005C53.3459 57.825 53.774 59.0123 54.5616 59.95C54.9297 60.3748 55.4151 60.6814 55.9568 60.8313C56.4986 60.9812 57.0725 60.9677 57.6066 60.7924C57.7307 60.7446 57.8685 60.7464 57.9914 60.7974C58.1142 60.8484 58.2127 60.9448 58.2664 61.0665C58.3147 61.192 58.3132 61.3313 58.2623 61.4558C58.2113 61.5803 58.1148 61.6807 57.9923 61.7364C57.5926 61.8986 57.1651 61.9813 56.7337 61.98V61.98Z" fill="#040047"/>
<path d="M70.1934 57.0877C70.5994 53.8194 75.9687 52.8349 75.8368 56.6716C75.8365 58.0031 75.3696 59.2925 74.5172 60.3154C74.0883 60.8213 73.5185 61.188 72.8804 61.3688C72.2423 61.5495 71.5648 61.5362 70.9343 61.3304" fill="white"/>
<path d="M71.9587 61.98C71.5422 61.9826 71.129 61.9069 70.7406 61.7567C70.6165 61.703 70.5183 61.6028 70.4671 61.4776C70.4159 61.3524 70.4157 61.2121 70.4666 61.0868C70.5183 60.9634 70.6165 60.8653 70.7401 60.814C70.8636 60.7627 71.0025 60.7622 71.1264 60.8127C71.6606 60.9867 72.2342 60.9995 72.7756 60.8497C73.3171 60.6999 73.8025 60.394 74.1714 59.9703C74.9367 59.0338 75.3528 57.8606 75.3488 56.6512C75.3995 55.0678 74.415 54.7532 73.8263 54.7024C73.0988 54.6588 72.3806 54.8838 71.808 55.3347C71.2354 55.7856 70.8484 56.4311 70.7204 57.1486C70.7027 57.2818 70.6329 57.4025 70.5264 57.4843C70.4198 57.5661 70.2852 57.6023 70.152 57.585C70.0855 57.5776 70.0212 57.5568 69.9629 57.5239C69.9046 57.4911 69.8536 57.4468 69.8128 57.3937C69.7721 57.3406 69.7425 57.2799 69.7257 57.2151C69.709 57.1503 69.7055 57.0828 69.7155 57.0166C69.8706 56.0377 70.3873 55.1525 71.1634 54.536C71.9396 53.9196 72.9188 53.6168 73.9075 53.6874C74.2766 53.7054 74.6377 53.8012 74.9671 53.9686C75.2965 54.136 75.5867 54.3713 75.8187 54.6589C76.0507 54.9465 76.2192 55.28 76.3132 55.6373C76.4071 55.9947 76.4243 56.3679 76.3638 56.7324C76.3638 58.1852 75.8496 59.5911 74.9123 60.7011C74.5332 61.1043 74.0756 61.4258 73.5676 61.6457C73.0597 61.8657 72.5122 61.9794 71.9587 61.98V61.98Z" fill="#040047"/>
<path d="M58.1045 73.3277C60.2366 74.2473 62.5323 74.7272 64.8542 74.7386C69.0969 74.8908 69.8176 73.7236 69.8176 73.7236L69.7161 71.45L69.4826 66.1517L69.2593 61.2086L59.5458 60.8737L59.0789 64.9337L58.9368 66.2329L58.1045 73.3277Z" fill="white"/>
<path d="M65.5647 75.2563H64.8542C62.4639 75.2442 60.1013 74.7433 57.9116 73.7845C57.8189 73.7389 57.7426 73.6655 57.6935 73.5745C57.6444 73.4836 57.6248 73.3796 57.6376 73.277L59.0586 60.8331C59.0714 60.7066 59.1322 60.5898 59.2285 60.5068C59.3248 60.4237 59.4492 60.3807 59.5762 60.3865L69.2898 60.7215C69.4177 60.7285 69.5386 60.7818 69.6302 60.8714C69.7217 60.9611 69.7774 61.0809 69.7871 61.2087L70.3454 73.7236C70.3498 73.8246 70.3213 73.9244 70.2642 74.0078C70.0916 74.221 69.2492 75.2563 65.5647 75.2563ZM58.6424 73.0131C60.626 73.7789 62.7284 74.1911 64.8542 74.2311C67.8992 74.3326 68.9751 73.7541 69.2796 73.5308L68.7518 61.706L59.9721 61.4015L58.6424 73.0131Z" fill="#040047"/>
<path d="M58.916 66.2025C59.6746 67.4102 60.7208 68.4111 61.961 69.1155C63.991 70.3437 67.0868 71.7545 69.6446 71.4602L69.4111 66.1619C67.5552 66.3355 65.6854 66.2946 63.8388 66.0401C62.1916 65.9166 60.5728 65.5436 59.0378 64.9337L58.916 66.2025Z" fill="#040047"/>
<path d="M68.9747 72.0082C66.2647 72.0082 63.3415 70.506 61.7479 69.5519C60.4187 68.8293 59.2943 67.7817 58.4796 66.5069C58.4209 66.4169 58.3957 66.3091 58.4086 66.2024L58.5507 64.893C58.561 64.8137 58.5892 64.7378 58.6331 64.671C58.6771 64.6041 58.7357 64.5482 58.8044 64.5073C58.8766 64.4699 58.9566 64.4504 59.0379 64.4504C59.1191 64.4504 59.1992 64.4699 59.2713 64.5073C60.7601 65.0804 62.3278 65.4227 63.92 65.5223C65.7341 65.7943 67.5746 65.8454 69.401 65.6746C69.4702 65.6679 69.54 65.6753 69.6063 65.6962C69.6725 65.7172 69.7339 65.7512 69.7867 65.7964C69.8408 65.8413 69.885 65.897 69.9165 65.9599C69.9479 66.0228 69.966 66.0915 69.9694 66.1618L70.2029 71.4499C70.2089 71.5781 70.1662 71.7037 70.0834 71.8016C70.0005 71.8996 69.8836 71.9625 69.7563 71.9777C69.4965 72.003 69.2356 72.0132 68.9747 72.0082V72.0082ZM59.4337 66.0907C60.1626 67.1664 61.1367 68.0535 62.2757 68.679C63.514 69.4199 66.5489 71.0744 69.1676 70.983L68.9747 66.72C67.2431 66.827 65.5051 66.7556 63.7881 66.5069C62.3247 66.3827 60.8806 66.0898 59.4845 65.634L59.4337 66.0907Z" fill="#040047"/>
<path d="M72.8626 48.2775L72.4464 60.0617C72.4366 60.5652 72.3684 61.0659 72.2434 61.5537C71.8404 63.2197 70.8753 64.6957 69.5107 65.733C68.1462 66.7702 66.4658 67.3053 64.7527 67.2479H63.8798C62.2725 67.191 60.7268 66.6156 59.4736 65.6075C58.2204 64.5995 57.3271 63.213 56.9271 61.6552C56.7516 60.9657 56.6731 60.2552 56.6936 59.544L57.1098 47.77C57.1098 47.77 58.9469 50.1959 64.2148 50.1451C67.199 50.1603 70.1506 49.5229 72.8626 48.2775Z" fill="white"/>
<path d="M65.0065 67.7553H64.7325H63.8595C62.1434 67.6885 60.4943 67.0712 59.1562 65.9945C57.8181 64.9178 56.8622 63.439 56.4298 61.7769C56.2459 61.0405 56.164 60.2823 56.1862 59.5236L56.6023 47.7395C56.6037 47.6353 56.6377 47.5342 56.6997 47.4504C56.7616 47.3666 56.8482 47.3044 56.9474 47.2726C57.0479 47.2414 57.1556 47.2422 57.2556 47.2749C57.3557 47.3077 57.443 47.3707 57.5057 47.4553C57.5057 47.4553 59.3327 49.7086 64.2148 49.6274C67.1108 49.652 69.9779 49.0495 72.619 47.8612C72.6962 47.8167 72.7837 47.7933 72.8728 47.7933C72.9618 47.7933 73.0494 47.8167 73.1265 47.8612C73.2009 47.9089 73.2616 47.9752 73.3026 48.0535C73.3435 48.1319 73.3633 48.2195 73.36 48.3078L72.9743 60.0818C72.9633 60.6194 72.8918 61.1539 72.7611 61.6754C72.3344 63.4099 71.3387 64.9514 69.933 66.0535C68.5273 67.1556 66.7927 67.7548 65.0065 67.7553V67.7553ZM57.5767 48.8357L57.2012 59.5337C57.1382 61.3736 57.8085 63.1632 59.0647 64.5089C60.321 65.8546 62.0603 66.6463 63.9002 66.7098H64.7731C66.3671 66.7567 67.9291 66.2567 69.1995 65.2928C70.4699 64.3289 71.3722 62.9593 71.7562 61.4115C71.8669 60.9524 71.9281 60.4829 71.939 60.0108L72.3246 49.0488C69.7386 50.0664 66.9837 50.5864 64.2046 50.5814C61.8651 50.7273 59.5409 50.1151 57.5767 48.8357V48.8357Z" fill="#040047"/>
<path d="M64.9353 53.86C64.9353 53.86 67.3815 59.2598 66.2955 59.3613C65.3808 59.321 64.4864 59.0783 63.6768 58.6508" fill="white"/>
<path d="M66.1127 59.8587C65.1787 59.784 64.27 59.5179 63.4432 59.0771C63.3797 59.0486 63.3228 59.0074 63.2759 58.9559C63.2291 58.9045 63.1933 58.844 63.1708 58.7782C63.1483 58.7123 63.1396 58.6426 63.1452 58.5732C63.1508 58.5039 63.1706 58.4364 63.2034 58.375C63.2362 58.3137 63.2812 58.2597 63.3358 58.2165C63.3903 58.1732 63.4531 58.1417 63.5203 58.1238C63.5875 58.1058 63.6577 58.1019 63.7266 58.1123C63.7954 58.1226 63.8613 58.147 63.9203 58.1839C64.5913 58.5332 65.3206 58.7568 66.0721 58.8437C65.7807 57.1767 65.2437 55.5622 64.4785 54.0529C64.4496 53.993 64.433 53.928 64.4296 53.8617C64.4262 53.7953 64.4362 53.7289 64.4589 53.6665C64.4816 53.604 64.5166 53.5468 64.5618 53.4981C64.607 53.4494 64.6615 53.4102 64.7221 53.383C64.8461 53.3276 64.9869 53.3232 65.1141 53.3707C65.2413 53.4181 65.3447 53.5137 65.4022 53.6367C66.204 55.413 67.4322 58.5392 66.945 59.4628C66.8828 59.5699 66.7962 59.6608 66.6921 59.7278C66.5879 59.7949 66.4694 59.8363 66.3461 59.8485L66.1127 59.8587Z" fill="#040047"/>
<path d="M61.4841 54.1848C61.7643 54.1848 61.9916 53.6668 61.9916 53.0277C61.9916 52.3887 61.7643 51.8706 61.4841 51.8706C61.2038 51.8706 60.9766 52.3887 60.9766 53.0277C60.9766 53.6668 61.2038 54.1848 61.4841 54.1848Z" fill="#040047"/>
<path d="M68.7927 54.1848C69.0729 54.1848 69.3002 53.6668 69.3002 53.0277C69.3002 52.3887 69.0729 51.8706 68.7927 51.8706C68.5124 51.8706 68.2852 52.3887 68.2852 53.0277C68.2852 53.6668 68.5124 54.1848 68.7927 54.1848Z" fill="#040047"/>
<path d="M22.0617 19.4211C21.1146 19.6011 20.228 20.0164 19.4836 20.629C18.7224 21.1872 17.9205 21.918 17.9408 22.8518C17.9374 22.953 17.9738 23.0514 18.0423 23.1259C18.1304 23.1796 18.2357 23.1977 18.3367 23.1766C19.7223 23.0831 21.0607 22.6358 22.2241 21.8774C21.6297 22.4407 21.2195 23.1706 21.0474 23.9713C20.8753 24.772 20.9494 25.6059 21.2599 26.3637L21.4527 26.4246" fill="white"/>
<path d="M21.4024 26.9422H21.2501L21.0573 26.8813C20.9868 26.8607 20.9219 26.8244 20.8674 26.7752C20.8129 26.726 20.7703 26.6651 20.7426 26.5971C20.3062 25.5127 20.3062 24.3015 20.7426 23.2171C19.9979 23.4892 19.2191 23.6566 18.4284 23.7145C18.1911 23.747 17.9506 23.6851 17.7585 23.5419C17.6705 23.4606 17.6005 23.3616 17.5533 23.2514C17.5061 23.1413 17.4826 23.0224 17.4845 22.9025C17.5323 22.3529 17.7111 21.8227 18.006 21.3565C18.301 20.8903 18.7034 20.5015 19.1795 20.2229C19.9871 19.5516 20.9565 19.1036 21.9911 18.9237C22.0572 18.9152 22.1244 18.9202 22.1886 18.9382C22.2529 18.9562 22.3128 18.987 22.3649 19.0287C22.417 19.0703 22.4601 19.122 22.4918 19.1807C22.5235 19.2394 22.5431 19.3039 22.5493 19.3703C22.5636 19.5034 22.5247 19.6368 22.441 19.7414C22.3574 19.846 22.2358 19.9132 22.1027 19.9285C21.2467 20.1004 20.4475 20.4843 19.7784 21.045C18.9359 21.654 18.5198 22.1514 18.4487 22.6589C19.6763 22.5398 20.8569 22.1254 21.8896 21.451C21.9974 21.3817 22.1274 21.3558 22.2535 21.3784C22.3797 21.401 22.4926 21.4704 22.5696 21.5728C22.6459 21.6735 22.6819 21.7989 22.6706 21.9246C22.6594 22.0504 22.6016 22.1674 22.5087 22.2529C22.017 22.7177 21.6687 23.3136 21.505 23.9702C21.3414 24.6267 21.3691 25.3164 21.5851 25.9576C21.7034 26.0074 21.7991 26.0993 21.8535 26.2156C21.9079 26.3319 21.9171 26.4642 21.8794 26.5869C21.8461 26.688 21.7824 26.7764 21.697 26.8399C21.6116 26.9035 21.5088 26.9392 21.4024 26.9422V26.9422Z" fill="#040047"/>
<path d="M65.8693 61.8176L63.0983 60.8838C63.0983 60.8838 61.9209 63.5025 63.4434 64.416C64.9659 65.3295 65.8693 61.8176 65.8693 61.8176Z" fill="#040047"/>
<path d="M102.349 21.7657C102.469 21.6047 102.621 21.4702 102.796 21.3706C102.97 21.2711 103.164 21.2086 103.364 21.1872C104.133 20.9987 104.929 20.9404 105.718 21.0146C106.511 21.1002 107.258 21.426 107.86 21.9484C107.992 22.0514 108.088 22.1935 108.134 22.3544C108.146 22.4922 108.112 22.63 108.036 22.7459C107.961 22.8618 107.849 22.9491 107.718 22.9939C107.455 23.0722 107.179 23.0964 106.906 23.0649L104.876 22.9228C105.47 23.3483 105.971 23.8906 106.348 24.5164C106.53 24.8269 106.62 25.1834 106.605 25.5433C106.591 25.9032 106.473 26.2514 106.267 26.5464" fill="white"/>
<path d="M106.287 27.0741C106.169 27.0727 106.055 27.0335 105.962 26.9625C105.86 26.8741 105.796 26.7492 105.785 26.6146C105.773 26.4799 105.815 26.3461 105.901 26.2418C106.04 26.018 106.114 25.7595 106.114 25.4958C106.114 25.2321 106.04 24.9736 105.901 24.7498C105.55 24.1856 105.091 23.6959 104.551 23.3085C104.47 23.2397 104.413 23.1474 104.388 23.0444C104.362 22.9415 104.369 22.8331 104.408 22.7346C104.448 22.636 104.517 22.5522 104.606 22.4949C104.695 22.4377 104.8 22.4098 104.906 22.4153L106.936 22.5574C107.131 22.5949 107.331 22.5949 107.525 22.5574C107.568 22.5383 107.603 22.5063 107.626 22.466V22.466C107.593 22.4254 107.555 22.3881 107.515 22.3544C106.992 21.9037 106.344 21.6239 105.657 21.5525C104.926 21.4815 104.188 21.5364 103.475 21.7149C103.221 21.7657 102.886 21.8672 102.785 22.0499C102.752 22.1085 102.708 22.1602 102.656 22.2019C102.603 22.2435 102.543 22.2745 102.478 22.2928C102.414 22.3112 102.346 22.3167 102.279 22.309C102.213 22.3013 102.148 22.2805 102.09 22.2478C102.031 22.2152 101.979 22.1713 101.938 22.1186C101.896 22.066 101.865 22.0057 101.847 21.9412C101.828 21.8766 101.823 21.809 101.831 21.7424C101.838 21.6757 101.859 21.6112 101.892 21.5525C102.046 21.3248 102.247 21.1328 102.482 20.9892C102.716 20.8457 102.979 20.754 103.252 20.7202C104.078 20.5179 104.933 20.4595 105.779 20.5477C106.669 20.6306 107.513 20.9849 108.195 21.5627C108.414 21.7368 108.568 21.9801 108.631 22.2529C108.665 22.5047 108.613 22.7607 108.482 22.9785C108.351 23.1962 108.149 23.3628 107.911 23.4506C107.586 23.5665 107.237 23.6013 106.896 23.5521H106.317C106.516 23.7856 106.693 24.0371 106.845 24.3032C107.074 24.708 107.182 25.1704 107.155 25.635C107.128 26.0996 106.968 26.5464 106.693 26.9219C106.641 26.9769 106.578 27.0193 106.508 27.0457C106.437 27.0721 106.361 27.0818 106.287 27.0741V27.0741Z" fill="#040047"/>
<path d="M64.8542 137.78C64.7196 137.78 64.5905 137.727 64.4953 137.632C64.4002 137.536 64.3467 137.407 64.3467 137.273V113.045C64.3467 112.91 64.4002 112.781 64.4953 112.686C64.5905 112.591 64.7196 112.537 64.8542 112.537C64.988 112.54 65.1155 112.594 65.2101 112.689C65.3048 112.783 65.3591 112.911 65.3617 113.045V137.273C65.3591 137.406 65.3048 137.534 65.2101 137.629C65.1155 137.723 64.988 137.778 64.8542 137.78V137.78Z" fill="#040047"/>
</g>
<defs>
<clipPath id="clip0_16_2050">
<rect width="129" height="256" fill="white"/>
</clipPath>
</defs>
</svg>
