<svg width="149" height="236" viewBox="0 0 149 236" fill="none" xmlns="http://www.w3.org/2000/svg">
<path d="M13.8099 106.626L39.7556 121.676L26.7828 144.35L0.535645 129.186L13.8099 106.626Z" fill="white"/>
<path d="M26.7828 144.878C26.6876 144.88 26.5938 144.855 26.5125 144.806L0.265422 129.642C0.204188 129.607 0.150549 129.561 0.107744 129.506C0.0649397 129.45 0.0338613 129.387 0.016375 129.319C-0.00111122 129.251 -0.00463668 129.18 0.00600962 129.111C0.0166559 129.042 0.0412481 128.976 0.0783136 128.916L13.3422 106.357C13.3776 106.297 13.4245 106.244 13.4803 106.202C13.536 106.161 13.5996 106.13 13.6672 106.113C13.7348 106.096 13.8051 106.092 13.8743 106.102C13.9434 106.111 14.0098 106.135 14.0698 106.17L40.0571 121.21C40.1783 121.281 40.2668 121.397 40.3037 121.533C40.3406 121.668 40.3229 121.812 40.2546 121.935L27.2506 144.609C27.1754 144.733 27.057 144.825 26.9179 144.868L26.7828 144.878ZM1.27373 128.989L26.5853 143.614L39.0592 121.863L14.0491 107.361L1.27373 128.989Z" fill="#040047"/>
<path d="M39.6311 217.011C38.3123 219.342 37.2327 221.799 36.4087 224.345C35.3172 227.949 37.5106 233.128 39.049 234.516C39.8662 235.144 40.8714 235.478 41.9028 235.467C42.9342 235.456 43.9318 235.099 44.735 234.454C46.4294 232.973 44.735 218.762 44.735 218.762L39.6311 217.011Z" fill="#040047"/>
<path d="M41.762 235.998C40.6212 236.034 39.5082 235.642 38.6436 234.9C36.9804 233.398 34.7143 227.97 35.8681 224.2C36.6938 221.601 37.7949 219.098 39.1529 216.732C39.216 216.635 39.3096 216.563 39.4187 216.525C39.5279 216.488 39.6465 216.488 39.7558 216.525L44.7973 218.275C44.8891 218.306 44.9702 218.362 45.0309 218.438C45.0917 218.513 45.1297 218.604 45.1404 218.7C45.5666 222.097 46.7932 233.305 45.026 234.848C44.1019 235.592 42.9499 235.997 41.762 235.998V235.998ZM39.8702 217.643C38.6657 219.828 37.677 222.125 36.918 224.5C35.8785 227.846 37.9575 232.787 39.4024 234.133C40.1257 234.675 41.0085 234.962 41.913 234.951C42.8175 234.94 43.6928 234.63 44.4023 234.071C45.3275 233.274 45.0364 225.909 44.2152 219.145L39.8702 217.643Z" fill="#040047"/>
<path d="M56.242 165.149C51.3155 171.523 47.6728 178.786 45.5144 186.538C42.1984 198.968 40.4417 216.09 40.2442 216.67C40.0467 217.25 36.9282 222.698 39.1216 223.723C41.3149 224.749 43.5082 225.329 44.6828 218.762C44.6828 218.762 67.3645 173.705 68.2377 168.308C69.1108 162.911 56.242 165.149 56.242 165.149Z" fill="white"/>
<path d="M41.2628 224.883C40.4336 224.83 39.6254 224.601 38.8928 224.21C38.6744 224.11 38.4787 223.967 38.3178 223.788C38.157 223.61 38.0343 223.401 37.9573 223.174C37.4167 221.672 38.4354 219.218 39.4957 217.022C39.6205 216.773 39.7036 216.597 39.7348 216.514C39.766 216.431 39.8907 215.406 40.0363 214.277C40.7327 208.891 42.3647 196.285 44.9946 186.414C47.1857 178.591 50.8627 171.26 55.8261 164.817C55.9096 164.721 56.0231 164.655 56.1483 164.631C56.5226 164.569 65.2543 163.087 67.9777 165.77C68.3205 166.107 68.5725 166.525 68.7105 166.985C68.8486 167.445 68.8683 167.932 68.7678 168.401C67.8946 173.767 46.5331 216.297 45.1921 218.948C44.6204 222.139 43.7472 223.941 42.4687 224.604C42.0959 224.794 41.6818 224.89 41.2628 224.883V224.883ZM56.533 165.646C51.729 171.931 48.163 179.065 46.0237 186.673C43.4146 196.482 41.793 209.036 41.0965 214.401C40.8574 216.297 40.8055 216.69 40.7535 216.846C40.7015 217.001 40.608 217.167 40.4624 217.477C39.9219 218.586 38.5082 221.517 38.9656 222.801C38.995 222.897 39.0446 222.985 39.1109 223.06C39.1772 223.135 39.2588 223.195 39.3502 223.237C40.4624 223.754 41.2836 224.003 41.9697 223.651C42.9156 223.154 43.6537 221.486 44.1526 218.669C44.1605 218.617 44.1781 218.568 44.2046 218.524C44.4333 218.078 66.8551 173.477 67.7075 168.225C67.7801 167.922 67.7734 167.606 67.6878 167.307C67.6022 167.007 67.4407 166.735 67.2189 166.516C65.3374 164.672 59.0589 165.232 56.533 165.646V165.646Z" fill="#040047"/>
<path d="M128.975 217.011C130.293 219.341 131.369 221.798 132.187 224.345C133.289 227.949 131.095 233.128 129.557 234.516C128.74 235.144 127.735 235.478 126.703 235.467C125.672 235.456 124.674 235.099 123.871 234.454C122.166 232.973 123.871 218.762 123.871 218.762L128.975 217.011Z" fill="#040047"/>
<path d="M126.844 235.977C125.64 236 124.466 235.6 123.528 234.848C121.761 233.305 122.988 222.097 123.414 218.7C123.425 218.604 123.462 218.513 123.523 218.438C123.584 218.362 123.665 218.306 123.757 218.275L128.798 216.525C128.908 216.489 129.026 216.49 129.135 216.528C129.243 216.565 129.337 216.637 129.401 216.732C130.748 219.104 131.848 221.606 132.686 224.2C133.84 227.97 131.563 233.398 129.9 234.9C129.049 235.62 127.961 236.004 126.844 235.977ZM124.401 219.145C123.58 225.909 123.289 233.274 124.214 234.071C124.923 234.632 125.799 234.942 126.704 234.953C127.608 234.965 128.492 234.676 129.214 234.133C130.669 232.818 132.717 227.846 131.699 224.5C130.931 222.126 129.939 219.83 128.736 217.643L124.401 219.145Z" fill="#040047"/>
<path d="M112.364 165.149C117.29 171.523 120.933 178.786 123.092 186.538C126.408 198.968 128.164 216.09 128.362 216.67C128.559 217.25 131.678 222.698 129.484 223.723C127.291 224.749 125.098 225.329 123.923 218.762C123.923 218.762 101.241 173.705 100.358 168.308C99.4743 162.911 112.364 165.149 112.364 165.149Z" fill="white"/>
<path d="M127.354 224.884C126.934 224.887 126.52 224.788 126.148 224.594C124.869 223.931 123.996 222.128 123.414 218.938C122.083 216.286 100.712 173.756 99.8384 168.391C99.742 167.921 99.7648 167.434 99.9045 166.975C100.044 166.515 100.297 166.098 100.639 165.76C103.362 163.077 112.073 164.558 112.468 164.621C112.593 164.645 112.707 164.711 112.79 164.807C117.754 171.249 121.431 178.581 123.622 186.403C126.252 196.275 127.884 208.88 128.58 214.267C128.726 215.396 128.851 216.338 128.882 216.525L129.121 217.011C130.16 219.207 131.2 221.662 130.659 223.164C130.581 223.39 130.457 223.598 130.297 223.776C130.136 223.954 129.941 224.098 129.724 224.2C128.991 224.593 128.183 224.826 127.354 224.884V224.884ZM106.948 165.232C104.672 165.232 102.406 165.532 101.398 166.516C101.176 166.736 101.015 167.008 100.927 167.307C100.84 167.606 100.83 167.921 100.899 168.225C101.761 173.477 124.183 218.078 124.412 218.524C124.434 218.57 124.451 218.619 124.464 218.669C124.963 221.486 125.701 223.154 126.647 223.651C127.333 224.003 128.154 223.755 129.266 223.237C129.358 223.195 129.439 223.135 129.506 223.06C129.572 222.985 129.622 222.897 129.651 222.802C130.108 221.517 128.684 218.586 128.154 217.478C128.046 217.272 127.949 217.061 127.863 216.846C127.863 216.69 127.759 216.297 127.51 214.401C126.824 209.036 125.202 196.482 122.582 186.673C120.445 179.067 116.883 171.932 112.084 165.646C110.382 165.376 108.661 165.237 106.938 165.232H106.948Z" fill="#040047"/>
<path d="M63.851 105.269C63.851 105.849 55.6598 147.654 54.1006 166.319C54.1006 166.319 86.0961 183.037 115.368 165.149C115.368 165.149 108.726 138.321 108.539 132.096C108.352 125.871 105.212 109.547 100.732 102.742L63.851 105.269Z" fill="#040047"/>
<path d="M85.3269 173.881C74.444 173.798 63.7073 171.374 53.8512 166.775C53.7617 166.728 53.6882 166.656 53.6401 166.567C53.592 166.479 53.5714 166.378 53.5809 166.278C54.8387 151.176 60.4311 121.003 62.5413 109.64C62.9883 107.196 63.3209 105.435 63.3313 105.238C63.3448 105.113 63.4006 104.997 63.4895 104.909C63.5783 104.82 63.6949 104.765 63.8199 104.751L100.691 102.224C100.782 102.215 100.874 102.232 100.957 102.272C101.039 102.312 101.109 102.374 101.158 102.452C105.691 109.329 108.851 125.54 109.048 132.086C109.246 138.176 115.794 164.755 115.867 165.024C115.892 165.131 115.883 165.243 115.842 165.345C115.801 165.447 115.73 165.534 115.638 165.594C106.508 171.119 96.0086 173.99 85.3269 173.881V173.881ZM54.6412 166.008C57.9675 167.624 87.6865 181.204 114.776 164.91C113.944 161.534 108.206 137.98 108.019 132.117C107.821 125.902 104.734 110.044 100.462 103.27L64.298 105.756C64.2045 106.284 64.007 107.403 63.5496 109.827C61.4706 121.086 55.9509 150.855 54.6412 166.008Z" fill="#040047"/>
<path d="M121.117 14.9264L123.58 8.2766C123.58 8.2766 122.437 5.65602 123.715 3.69835C124.994 1.74069 125.794 0.0730484 126.834 0.673814C127.873 1.27458 133.071 3.97802 132.229 7.22008C131.387 10.4621 129.11 10.9075 129.11 10.9075C128.022 13.9624 126.658 16.9128 125.036 19.7222L121.117 14.9264Z" fill="white"/>
<path d="M125.015 20.2504C124.935 20.2494 124.857 20.2313 124.785 20.1974C124.713 20.1634 124.65 20.1144 124.599 20.0536L120.68 15.2682C120.621 15.195 120.583 15.1078 120.568 15.0151C120.553 14.9224 120.563 14.8276 120.597 14.74L122.988 8.28692C122.668 7.50478 122.526 6.66198 122.571 5.81867C122.616 4.97536 122.847 4.15232 123.248 3.40829L123.757 2.61072C124.796 0.901649 125.836 -0.569191 127.073 0.218018L127.385 0.404463C128.913 1.28489 133.57 3.97798 132.707 7.35469C132.563 8.23655 132.192 9.06628 131.631 9.76324C131.07 10.4602 130.338 11.0007 129.505 11.3322C128.418 14.3406 127.076 17.2513 125.493 20.0329C125.449 20.109 125.388 20.1732 125.313 20.2202C125.239 20.2671 125.154 20.2953 125.067 20.3022L125.015 20.2504ZM121.709 14.8539L124.932 18.8003C126.371 16.2325 127.588 13.5469 128.57 10.7728C128.599 10.6802 128.653 10.5973 128.727 10.5333C128.8 10.4694 128.89 10.4268 128.986 10.4103C129.058 10.4103 130.94 9.97528 131.667 7.12682C132.333 4.52696 128.206 2.14461 126.844 1.3574L126.512 1.1606C126.117 0.922363 125.379 2.08246 124.672 3.2322C124.495 3.49115 124.329 3.77082 124.142 4.05049C123.04 5.72849 124.048 8.09011 124.058 8.12119C124.105 8.24822 124.105 8.38776 124.058 8.51479L121.709 14.8539Z" fill="#040047"/>
<path d="M126.241 2.03064C127.75 2.78023 129.031 3.91725 129.952 5.32449C130.075 5.48051 130.138 5.6753 130.129 5.87347C130.129 6.1117 129.838 6.24636 129.62 6.34994C129.326 6.5285 128.986 6.6151 128.642 6.59853C128.423 6.56037 128.213 6.47559 128.029 6.34994C127.271 5.89604 126.573 5.34976 125.95 4.72373C126.236 4.95562 126.449 5.26404 126.565 5.61267C126.681 5.96131 126.694 6.33562 126.603 6.69154C126.513 7.04746 126.322 7.37014 126.053 7.62159C125.785 7.87304 125.45 8.04277 125.087 8.1108" fill="white"/>
<path d="M125.129 8.63909C125.005 8.63861 124.885 8.59481 124.79 8.51532C124.695 8.43584 124.631 8.3257 124.609 8.20405C124.582 8.06396 124.611 7.91872 124.691 7.80025C124.771 7.68177 124.895 7.59976 125.035 7.57222C125.286 7.50906 125.515 7.37943 125.698 7.19708C125.881 7.01473 126.011 6.78644 126.075 6.53641C126.123 6.32474 126.123 6.10504 126.074 5.8935C126.025 5.68196 125.93 5.48399 125.794 5.31417C125.711 5.24166 125.638 5.1588 125.555 5.07593C125.503 5.029 125.461 4.97235 125.431 4.90922C125.401 4.84608 125.384 4.77769 125.381 4.70796C125.377 4.63823 125.388 4.56851 125.412 4.5028C125.435 4.43709 125.472 4.37666 125.519 4.32497C125.566 4.27328 125.623 4.23135 125.686 4.20155C125.749 4.17176 125.818 4.15469 125.888 4.15132C125.958 4.14795 126.028 4.15835 126.094 4.18193C126.16 4.2055 126.22 4.24179 126.272 4.28872C126.384 4.38086 126.488 4.48128 126.584 4.5891C127.095 5.07433 127.656 5.50481 128.258 5.8735C128.381 5.95598 128.519 6.01563 128.663 6.04958C128.899 6.04017 129.129 5.9687 129.328 5.84242C129.403 5.81587 129.474 5.77739 129.536 5.72848C129.503 5.68731 129.475 5.64206 129.453 5.59383C128.583 4.26682 127.374 3.19436 125.95 2.48643C125.838 2.41561 125.756 2.30623 125.72 2.17912C125.684 2.05201 125.695 1.91602 125.753 1.79706C125.811 1.67809 125.911 1.58444 126.033 1.53393C126.156 1.48342 126.293 1.47958 126.418 1.52313C128.018 2.31527 129.375 3.52077 130.347 5.01378C130.451 5.14761 130.527 5.30103 130.57 5.46481C130.613 5.62859 130.622 5.79932 130.597 5.96672C130.537 6.15706 130.435 6.3315 130.299 6.47684C130.162 6.62219 129.993 6.73464 129.807 6.80572C129.502 7.01736 129.139 7.13081 128.767 7.13081C128.395 7.13081 128.033 7.01736 127.728 6.80572L127.208 6.46391C127.197 6.58626 127.176 6.70752 127.146 6.82644C127.029 7.26968 126.793 7.67275 126.463 7.99218C126.133 8.31162 125.722 8.53529 125.274 8.63909H125.129Z" fill="#040047"/>
<path d="M32.4482 98.8782L31.336 107.589C31.2632 108.128 32.4378 109.827 32.5937 110.49C33.0095 112.375 33.0719 114.467 33.3318 116.394C33.3318 116.684 33.3941 117.046 33.1551 117.222C32.916 117.398 32.4482 117.222 32.1156 116.963L29.6832 114.995C28.4827 117.108 27.4404 119.307 26.5647 121.573C24.5481 122.059 22.5523 120.713 21.1074 119.221C20.9459 119.067 20.8091 118.889 20.702 118.693C20.605 118.452 20.5488 118.196 20.5357 117.937C20.1614 114.467 19.7456 107.745 23.862 105.953C24.3199 101.964 25.141 98.026 26.3152 94.186L32.4482 98.8782Z" fill="white"/>
<path d="M25.7954 122.204C24.8295 122.123 23.8897 121.85 23.0311 121.402C22.1725 120.954 21.4124 120.339 20.7955 119.594C20.5928 119.399 20.4241 119.171 20.2965 118.921C20.1686 118.629 20.0946 118.317 20.0782 117.999C19.808 115.461 19.0387 107.859 23.4358 105.569C23.9184 101.658 24.7321 97.7948 25.8682 94.0203C25.8911 93.9348 25.9356 93.8566 25.9975 93.7931C26.0594 93.7297 26.1365 93.683 26.2216 93.6577C26.3038 93.6317 26.391 93.6257 26.476 93.6401C26.561 93.6545 26.6413 93.689 26.7102 93.7406L32.7808 98.4328C32.8539 98.4921 32.9112 98.5686 32.9474 98.6554C32.9837 98.7421 32.9979 98.8364 32.9887 98.93C32.9887 98.93 31.866 107.6 31.866 107.641C32.0242 108.103 32.2298 108.547 32.4793 108.967C32.7441 109.403 32.9569 109.869 33.1134 110.355C33.3614 111.604 33.535 112.866 33.6332 114.136C33.6955 114.871 33.7683 115.596 33.8619 116.3C33.9249 116.535 33.9224 116.783 33.8546 117.017C33.7869 117.25 33.6564 117.461 33.4773 117.626C33.2174 117.823 32.6561 118.041 31.8245 117.357L29.8806 115.793C28.8379 117.713 27.9212 119.699 27.1364 121.738C27.1054 121.82 27.0553 121.892 26.9901 121.95C26.9249 122.008 26.8467 122.049 26.7621 122.07C26.4459 122.15 26.1217 122.196 25.7954 122.204V122.204ZM26.679 95.0975C25.619 98.6619 24.8712 102.311 24.4441 106.004C24.4333 106.1 24.398 106.191 24.3416 106.269C24.2851 106.347 24.2095 106.41 24.1218 106.45C21.3984 107.631 20.4109 111.38 21.1073 117.895C21.116 118.091 21.1582 118.284 21.2321 118.465C21.3093 118.615 21.4152 118.749 21.5439 118.859C22.4898 119.843 24.3193 121.386 26.2112 121.117C27.0697 118.924 28.0769 116.793 29.2257 114.736C29.2638 114.669 29.3161 114.611 29.3789 114.567C29.4417 114.522 29.5136 114.491 29.5896 114.477C29.6679 114.462 29.7486 114.465 29.8259 114.484C29.9031 114.504 29.9751 114.541 30.0365 114.591L32.4689 116.57C32.573 116.654 32.6885 116.724 32.812 116.777C32.812 116.777 32.812 116.642 32.812 116.476C32.7184 115.762 32.6457 115.016 32.5729 114.27C32.4838 113.046 32.3171 111.828 32.0739 110.624C31.9356 110.231 31.758 109.853 31.5438 109.495C31.1322 108.913 30.878 108.235 30.8058 107.527C30.8058 107.455 31.6997 100.649 31.8453 99.1268L26.679 95.0975Z" fill="#040047"/>
<path d="M75.5661 51.3763C75.3437 51.2709 75.1101 51.191 74.8696 51.1381C73.0921 50.7548 70.3375 52.8886 68.8406 53.9451C67.283 55.147 66.1505 56.8124 65.6078 58.6994C64.8786 61.1822 64.3844 63.7276 64.1317 66.3022C62.4789 79.7677 62.4789 93.6474 61.6577 107.216C61.6577 107.216 72.9882 115.379 82.4475 114.063C91.9069 112.748 103.767 107.361 103.767 107.361C103.767 107.361 100.451 69.7514 100.327 64.0442C100.327 64.0442 106.314 56.0271 113.487 46.1144C120.659 36.2018 127.291 16.9255 127.291 16.9255L121.054 12.6995C121.054 12.6995 99.7342 46.4355 96.0233 49.5947C92.4786 52.6089 87.2396 53.4893 82.7178 53.2408C81.0962 53.157 79.4873 52.9106 77.9153 52.5053C77.1028 52.1931 76.3171 51.8155 75.5661 51.3763V51.3763Z" fill="#FFE11B"/>
<path d="M70.0776 47.378C69.332 46.9403 68.7514 46.2707 68.4248 45.4722C68.3702 44.8523 68.4739 44.2287 68.7263 43.6595C70.8053 37.4447 70.3895 30.3391 73.9237 24.8079C74.3492 24.0417 74.9603 23.3936 75.7013 22.9228C76.074 22.6914 76.5043 22.5687 76.9435 22.5687C77.3826 22.5687 77.8129 22.6914 78.1856 22.9228C81.3041 17.6505 88.9651 21.4208 91.1377 25.6676C93.435 30.163 94.7863 35.3213 96.491 40.0653C97.1344 41.4928 97.4402 43.0485 97.385 44.6125C97.3407 45.3925 97.0382 46.1358 96.5247 46.7262C96.0112 47.3166 95.3157 47.7207 94.5472 47.8752L93.7156 46.4355C93.8094 46.5475 93.8801 46.677 93.9236 46.8164C93.967 46.9557 93.9824 47.1023 93.9689 47.2476C93.9554 47.3929 93.9132 47.5342 93.8448 47.6632C93.7763 47.7922 93.683 47.9065 93.5701 47.9995C93.1281 48.3646 92.5976 48.6075 92.0316 48.7039C86.5327 50.0815 80.5972 51.1898 75.2751 49.3046C74.4539 49.0146 73.4871 48.2688 73.8094 47.4816C73.3 48.911 71.4809 48.3517 70.0776 47.378Z" fill="white"/>
<path d="M81.6159 50.8169C79.4138 50.8423 77.2235 50.492 75.1399 49.7811C74.504 49.5748 73.9458 49.1811 73.5391 48.6521C73.4496 48.7021 73.3557 48.7437 73.2584 48.7764C71.9591 49.2114 70.2959 48.1445 69.8073 47.8131C69.4227 47.5438 68.1234 46.5701 67.9362 45.5654C67.8603 44.8886 67.9606 44.2037 68.2273 43.5767C68.9796 41.1345 69.5392 38.6376 69.9009 36.1085C70.5766 32.131 71.2834 28.0086 73.4871 24.5179C73.9646 23.6761 74.643 22.9646 75.4622 22.4463C75.8463 22.2255 76.2745 22.0915 76.7164 22.0539C77.1583 22.0163 77.6031 22.076 78.0193 22.2288C78.5558 21.4367 79.2909 20.7982 80.1516 20.3766C81.0123 19.9551 81.9686 19.7652 82.9257 19.8257C84.723 19.9923 86.4535 20.5888 87.97 21.5644C89.4865 22.5399 90.7443 23.8658 91.6366 25.4294C93.1843 28.7071 94.4805 32.097 95.5139 35.5699C95.9921 37.02 96.4703 38.4598 96.9796 39.8685C97.6506 41.3757 97.9636 43.0168 97.8944 44.6642C97.8354 45.566 97.4762 46.4224 96.8737 47.0978C96.2712 47.7732 95.4598 48.2291 94.568 48.3931C94.4746 48.4022 94.3805 48.387 94.2948 48.3488C94.2091 48.3107 94.1349 48.251 94.0794 48.1756L93.9443 48.331C93.438 48.7644 92.8241 49.0542 92.1668 49.17C88.7292 50.1405 85.1866 50.6935 81.6159 50.8169V50.8169ZM74.3395 47.7095C74.3099 47.7862 74.3099 47.8711 74.3395 47.9477C74.6092 48.3466 75.0098 48.6396 75.4726 48.7764C80.6076 50.5787 86.408 49.5429 91.9277 48.1653C92.3951 48.0918 92.8356 47.8991 93.2062 47.6059C93.3466 47.4649 93.4283 47.2762 93.4349 47.0777L93.2686 46.7773C93.1912 46.6667 93.1592 46.5309 93.179 46.3975C93.1989 46.2642 93.2692 46.1435 93.3755 46.0601C93.4817 45.9767 93.616 45.9369 93.7507 45.9489C93.8855 45.9609 94.0105 46.0238 94.1002 46.1247C94.2549 46.2794 94.3722 46.4672 94.4432 46.6737L94.8279 47.3573C95.3991 47.1451 95.8979 46.7753 96.2661 46.2911C96.6342 45.8069 96.8565 45.2282 96.9068 44.6228C96.9387 43.1409 96.6442 41.6701 96.0441 40.3139C95.5347 38.8948 95.0566 37.4447 94.568 35.9842C93.5362 32.5573 92.247 29.2126 90.7115 25.9784C89.914 24.5795 88.7901 23.3926 87.4349 22.5182C86.0796 21.6438 84.5329 21.1075 82.9257 20.9547C82.0729 20.906 81.2236 21.0978 80.4753 21.5082C79.727 21.9186 79.1099 22.531 78.695 23.2749C78.6559 23.338 78.6045 23.3925 78.5438 23.4352C78.483 23.478 78.4142 23.508 78.3416 23.5235C78.2679 23.539 78.1919 23.5387 78.1184 23.5226C78.0449 23.5066 77.9757 23.4751 77.9154 23.4303C77.6303 23.2574 77.3031 23.166 76.9694 23.166C76.6357 23.166 76.3085 23.2574 76.0235 23.4303C75.3335 23.8358 74.755 24.4052 74.3395 25.0876C72.2605 28.4022 71.5849 32.2346 70.8988 36.2846C70.5376 38.8468 69.9816 41.378 69.2356 43.8563C69.0239 44.3426 68.9245 44.87 68.9446 45.3997C69.2585 46.0532 69.7618 46.598 70.3894 46.9637C71.0771 47.5519 71.9699 47.8459 72.8738 47.782C72.9685 47.7511 73.0545 47.6985 73.125 47.6283C73.1954 47.5581 73.2482 47.4724 73.2792 47.3781C73.2767 47.3436 73.2767 47.309 73.2792 47.2745C73.3289 47.1371 73.4312 47.025 73.5638 46.9629C73.6963 46.9007 73.8482 46.8936 73.9861 46.943C74.1239 46.9925 74.2364 47.0944 74.2988 47.2265C74.3612 47.3586 74.3683 47.51 74.3187 47.6474C74.3284 47.6671 74.3354 47.688 74.3395 47.7095V47.7095Z" fill="#040047"/>
<path d="M84.6406 62.3662L84.4327 62.5423C84.1692 62.7559 83.8489 62.8883 83.511 62.9232C83.1731 62.9582 82.8324 62.8942 82.5304 62.7391C82.2522 62.5365 82.0187 62.2791 81.8444 61.9829C79.6199 58.803 78.123 55.4988 78.7883 51.542C78.7907 51.5041 78.7907 51.466 78.7883 51.4281L78.6843 50.0919L78.4141 46.4045V45.8658V45.089L78.7467 41.0079L87.3433 41.1012L87.6447 46.0937V46.4045L87.8422 49.6051L87.9462 51.3556V51.4281C87.9493 54.7483 87.1204 58.0167 85.5346 60.9368C85.3168 61.4587 85.0149 61.9415 84.6406 62.3662Z" fill="white"/>
<path d="M83.2687 63.4744C82.9013 63.4804 82.5401 63.3796 82.2292 63.1844C81.8921 62.946 81.6059 62.6432 81.3872 62.2936C79.5265 59.6213 77.4891 55.9856 78.2687 51.4591L77.8945 46.4458L77.9881 45.0475L78.3207 40.9665C78.3313 40.8318 78.3932 40.7064 78.4938 40.6159C78.5943 40.5253 78.7258 40.4766 78.8613 40.4796L87.4578 40.5625C87.5934 40.5672 87.7225 40.6216 87.8203 40.7153C87.9181 40.8089 87.9778 40.9352 87.988 41.07L88.279 46.0626C88.279 46.0626 88.279 46.1662 88.279 46.1765L88.5805 51.3555C88.6097 54.7939 87.762 58.1834 86.1169 61.206C85.8422 61.7952 85.4657 62.3316 85.0046 62.7908L84.7552 63.0083C84.3192 63.3116 83.8004 63.4742 83.2687 63.4744V63.4744ZM79.3394 41.5465L78.9548 46.4355L79.3394 51.3866C79.3468 51.4693 79.3468 51.5525 79.3394 51.6352C78.7885 54.9084 79.6721 57.9122 82.302 61.6825C82.4432 61.9144 82.6265 62.1182 82.8425 62.2833C83.0514 62.3787 83.2829 62.4138 83.5108 62.3845C83.7387 62.3552 83.9538 62.2627 84.1315 62.1175C84.1916 62.0748 84.2473 62.0262 84.2978 61.9725V61.9725C84.6711 61.6039 84.9709 61.1681 85.1814 60.6881C86.732 57.8581 87.5401 54.6835 87.5306 51.4591L87.2188 46.1973V46.0937L86.9589 41.6294L79.3394 41.5465Z" fill="#040047"/>
<path d="M78.4141 46.4044C79.0922 47.5749 80.0535 48.5577 81.2103 49.2632C83.0398 50.4544 85.6385 51.5109 87.8838 51.1484L87.7279 46.0937C86.0861 46.3162 84.4217 46.3162 82.7799 46.0937C81.309 46.002 79.8661 45.6513 78.518 45.0579L78.4141 46.4044Z" fill="#040047"/>
<path d="M86.9276 51.7388C84.7774 51.6 82.7049 50.8842 80.9297 49.6672C79.6916 48.8979 78.6688 47.8289 77.9568 46.5598C77.9311 46.4683 77.9311 46.3716 77.9568 46.2801L78.0504 44.9647C78.0578 44.8801 78.0853 44.7984 78.1304 44.7264C78.1756 44.6544 78.2372 44.5941 78.3102 44.5503C78.3852 44.5095 78.4691 44.4882 78.5545 44.4882C78.6399 44.4882 78.7239 44.5095 78.7988 44.5503C80.0959 45.0966 81.4779 45.4155 82.884 45.4929C84.4847 45.7056 86.1066 45.7056 87.7072 45.4929C87.779 45.4781 87.8533 45.4808 87.9239 45.5006C87.9944 45.5204 88.0592 45.5569 88.1126 45.6069C88.1696 45.6513 88.2159 45.7078 88.2483 45.7723C88.2806 45.8368 88.2982 45.9077 88.2997 45.9797L88.4557 51.0345C88.4598 51.1604 88.4178 51.2834 88.3374 51.3807C88.257 51.4779 88.1439 51.5426 88.0191 51.5627C87.6605 51.65 87.2955 51.7088 86.9276 51.7388ZM78.9443 46.2905C79.5772 47.3273 80.4506 48.1976 81.4911 48.8282C83.2029 50.0415 85.2532 50.6899 87.3538 50.6823L87.2291 46.6737C85.7269 46.8139 84.2137 46.7861 82.7177 46.5909C81.4446 46.4938 80.1881 46.2434 78.9755 45.8451L78.9443 46.2905Z" fill="#040047"/>
<path d="M82.7907 47.2952H83.695C84.6875 47.3061 85.6723 47.1222 86.5934 46.7538C87.5145 46.3855 88.3537 45.8399 89.0632 45.1483C89.7727 44.4568 90.3385 43.6327 90.7283 42.7232C91.1182 41.8138 91.3244 40.8367 91.3353 39.8478C91.2475 37.5378 91.0289 35.2347 90.6804 32.9493C90.6804 32.9493 87.1981 31.7064 84.4435 30.6706C79.8593 28.9408 78.6223 26.5273 78.6223 26.5273C78.491 28.1682 78.1414 29.7844 77.5828 31.3335C76.98 32.4265 76.2845 33.4661 75.5038 34.4409C75.5038 34.4409 75.3687 38.1491 75.3479 39.6924C75.3312 41.6817 76.1041 43.597 77.4981 45.021C78.8922 46.445 80.7945 47.2625 82.7907 47.2952Z" fill="white"/>
<path d="M83.7572 47.8442H82.7801C80.6397 47.8169 78.5972 46.9462 77.0992 45.4225C75.6013 43.8988 74.7697 41.8461 74.7864 39.7131C74.7864 38.1594 74.9319 34.4409 74.9319 34.4409C74.9383 34.3283 74.9781 34.2202 75.0463 34.1302C75.7893 33.1773 76.4533 32.1658 77.0317 31.1056C77.5804 29.6144 77.9299 28.0577 78.0712 26.4756C78.0804 26.358 78.1281 26.2467 78.207 26.1587C78.2859 26.0708 78.3915 26.0111 78.5078 25.9888C78.6233 25.9657 78.7433 25.9818 78.8487 26.0343C78.9542 26.0868 79.039 26.1728 79.0899 26.2788C79.0899 26.2788 80.3269 28.599 84.6304 30.2148C87.3538 31.2506 90.8673 32.4936 90.8673 32.4936C90.9598 32.5251 91.0417 32.5814 91.1041 32.6563C91.1664 32.7313 91.2068 32.8219 91.2207 32.9183C91.5807 35.23 91.7994 37.5614 91.8756 39.8996C91.8455 42.0224 90.9759 44.0477 89.4558 45.5353C87.9356 47.0228 85.8878 47.8526 83.7572 47.8442ZM82.7905 46.8084H83.6948C84.6167 46.8301 85.5333 46.6651 86.3892 46.3232C87.2451 45.9814 88.0224 45.4698 88.674 44.8196C89.3293 44.1769 89.8504 43.4112 90.2072 42.5668C90.564 41.7223 90.7495 40.8158 90.753 39.8996C90.6815 37.7213 90.4802 35.5492 90.1501 33.3947C89.2457 33.0736 86.4806 32.0689 84.225 31.2196C82.233 30.539 80.4283 29.4039 78.9547 27.905C78.7699 29.148 78.4492 30.3671 77.9984 31.5407C77.4261 32.6352 76.7546 33.6753 75.9922 34.6481C75.9922 35.3938 75.8571 38.377 75.8467 39.7235C75.8357 40.6412 76.0064 41.552 76.349 42.4039C76.6917 43.2557 77.1995 44.0319 77.8435 44.6881C78.4874 45.3442 79.2549 45.8673 80.102 46.2276C80.9491 46.5879 81.8591 46.7782 82.7801 46.7877L82.7905 46.8084Z" fill="#040047"/>
<path d="M83.5597 39.3299C83.1187 39.3283 82.678 39.3041 82.2395 39.2574C82.0995 39.2368 81.9732 39.1624 81.8877 39.05C81.8022 38.9377 81.7643 38.7965 81.7821 38.6566C81.7911 38.587 81.8138 38.5198 81.8491 38.459C81.8844 38.3982 81.9315 38.3451 81.9876 38.3026C82.0437 38.2602 82.1078 38.2293 82.176 38.2119C82.2443 38.1944 82.3153 38.1906 82.3851 38.2008C83.0245 38.2638 83.6686 38.2638 84.3081 38.2008C84.1798 36.733 83.8038 35.2972 83.1959 33.954C83.1448 33.8167 83.1507 33.6648 83.2121 33.5317C83.2735 33.3987 83.3854 33.2953 83.5233 33.2445C83.6611 33.1937 83.8136 33.1995 83.9471 33.2607C84.0807 33.3219 84.1843 33.4334 84.2353 33.5708C84.7239 34.8241 85.8154 37.8694 85.2748 38.8327C85.2084 38.9458 85.1166 39.0421 85.0066 39.114C84.8966 39.1858 84.7713 39.2314 84.6407 39.247C84.2825 39.2972 83.9214 39.3249 83.5597 39.3299V39.3299Z" fill="#040047"/>
<path d="M80.3728 35.0902C80.3806 34.3866 80.1542 33.8137 79.8672 33.8106C79.5801 33.8074 79.3412 34.3752 79.3334 35.0788C79.3256 35.7824 79.552 36.3553 79.839 36.3585C80.1261 36.3616 80.3651 35.7938 80.3728 35.0902Z" fill="#040047"/>
<path d="M87.2468 34.9231C87.2546 34.2195 87.0282 33.6466 86.7412 33.6434C86.4542 33.6403 86.2152 34.2081 86.2074 34.9117C86.1997 35.6153 86.426 36.1882 86.7131 36.1914C87.0001 36.1945 87.2391 35.6267 87.2468 34.9231Z" fill="#040047"/>
<path d="M92.3642 53.5308C92.3642 55.6024 92.5201 59.8181 88.0399 67.6488L83.6948 62.8944C84.8071 60.8228 87.6761 59.4038 87.9048 51.9771C87.9048 51.7906 87.9048 51.6146 87.9048 51.4281C87.9597 51.3952 88.0192 51.3707 88.0815 51.3556C89.7135 50.6513 92.1355 51.8942 92.3642 52.7643C92.3875 53.0193 92.3875 53.2758 92.3642 53.5308V53.5308Z" fill="white"/>
<path d="M88.04 68.177C87.9662 68.1783 87.8929 68.1642 87.8249 68.1357C87.7569 68.1072 87.6956 68.0648 87.645 68.0113L83.2479 63.257C83.173 63.1758 83.1248 63.0737 83.1099 62.9644C83.095 62.8551 83.1142 62.7439 83.1648 62.6458C83.4621 62.0969 83.8101 61.5767 84.2043 61.0921C85.4932 59.4659 87.094 57.4461 87.2604 51.9564C87.2698 51.7804 87.2698 51.6041 87.2604 51.4281C87.2591 51.336 87.2825 51.2452 87.3282 51.165C87.3738 51.0849 87.4401 51.0184 87.5202 50.9724C87.6078 50.9186 87.7022 50.8768 87.8009 50.8481C88.3545 50.6592 88.9414 50.5865 89.5246 50.6347C90.1078 50.6828 90.6747 50.8507 91.1897 51.1277C91.5951 51.3245 92.5722 51.8631 92.7697 52.6296C92.8185 52.9309 92.8359 53.2363 92.8216 53.5411V53.8312C92.8216 56.0892 92.8216 60.3153 88.4142 67.9077C88.3746 67.9828 88.3167 68.0468 88.2459 68.0938C88.1751 68.1408 88.0936 68.1695 88.0088 68.177H88.04ZM84.2978 62.8219L87.9256 66.7476C91.7926 59.787 91.8133 55.9235 91.8341 53.8208V53.5308C91.8526 53.3171 91.8526 53.1023 91.8341 52.8886C91.5754 52.5276 91.213 52.2531 90.7946 52.1014C90.0582 51.7108 89.2022 51.6074 88.3934 51.8113C88.3883 51.8734 88.3883 51.9358 88.3934 51.9978C88.2063 57.8397 86.408 60.1081 85.0982 61.7654C84.7968 62.1383 84.5265 62.5008 84.2978 62.8219Z" fill="#040047"/>
<path d="M83.2479 62.9359L78.4247 67.6798C73.1233 64.0338 74.1836 53.4272 74.3499 52.7954C74.5582 52.3355 74.9278 51.9672 75.3894 51.7596C75.8913 51.4403 76.4624 51.2447 77.0552 51.1888C77.6481 51.133 78.2458 51.2186 78.7989 51.4385V51.5524C79.0068 59.2588 82.1045 60.8021 83.2479 62.9359Z" fill="white"/>
<path d="M78.4245 68.1769C78.3135 68.1779 78.2048 68.1454 78.1127 68.0837C72.2707 64.0648 73.8092 52.7331 73.8404 52.6295C74.0797 52.0447 74.5277 51.5688 75.0981 51.2934V51.2934C75.6773 50.9302 76.3353 50.7105 77.0171 50.6529C77.699 50.5952 78.3847 50.7012 79.017 50.9619C79.1038 51.0082 79.1766 51.0768 79.2278 51.1606C79.279 51.2444 79.3067 51.3403 79.3081 51.4384V51.5523C79.4536 57.2389 81.1688 59.383 82.5513 61.1024C82.9791 61.597 83.3585 62.1311 83.6843 62.6975C83.7384 62.799 83.7585 62.9151 83.7417 63.0288C83.7248 63.1424 83.672 63.2478 83.5908 63.3294L78.7675 68.0423C78.6717 68.1244 78.5508 68.1718 78.4245 68.1769V68.1769ZM75.6179 52.2256C75.3094 52.3748 75.0498 52.6083 74.8695 52.8989C74.6304 53.8518 73.8923 63.3605 78.3725 66.9443L82.5305 62.8011C82.3018 62.449 82.0211 62.0968 81.7093 61.7032C80.3164 59.9837 78.4349 57.6325 78.227 51.7284C77.3302 51.5308 76.3915 51.6867 75.6075 52.1634L75.6179 52.2256Z" fill="#040047"/>
<path d="M84.8488 40.6765H82.3332C82.3332 40.6765 82.0422 45.1615 83.591 44.6851C84.8488 44.2915 85.1711 42.3234 84.8488 40.6765Z" fill="#040047"/>
<path d="M71.8034 51.9771C71.3668 50.6305 40.7746 67.3587 35.2861 71.0462C29.7976 74.7337 22.5835 102.12 22.5835 102.12L34.1426 102.68C34.1426 102.68 43.155 81.1453 47.1882 77.6546C51.2214 74.164 68.3938 67.6488 68.3938 67.6488L71.8034 51.9771Z" fill="#FFE11B"/>
</svg>
