<svg width="25" height="24" viewBox="0 0 25 24" fill="none" xmlns="http://www.w3.org/2000/svg">
<path d="M9.46 7.7099L11.75 5.4099V14.9999C11.75 15.2651 11.8554 15.5195 12.0429 15.707C12.2304 15.8945 12.4848 15.9999 12.75 15.9999C13.0152 15.9999 13.2696 15.8945 13.4571 15.707C13.6446 15.5195 13.75 15.2651 13.75 14.9999V5.4099L16.04 7.7099C16.133 7.80363 16.2436 7.87802 16.3654 7.92879C16.4873 7.97956 16.618 8.00569 16.75 8.00569C16.882 8.00569 17.0127 7.97956 17.1346 7.92879C17.2564 7.87802 17.367 7.80363 17.46 7.7099C17.5537 7.61693 17.6281 7.50633 17.6789 7.38447C17.7297 7.26261 17.7558 7.13191 17.7558 6.9999C17.7558 6.86788 17.7297 6.73718 17.6789 6.61532C17.6281 6.49346 17.5537 6.38286 17.46 6.2899L13.46 2.2899C13.3649 2.19886 13.2528 2.12749 13.13 2.0799C12.8865 1.97988 12.6135 1.97988 12.37 2.0799C12.2472 2.12749 12.1351 2.19886 12.04 2.2899L8.04 6.2899C7.94676 6.38313 7.8728 6.49383 7.82234 6.61565C7.77188 6.73747 7.74591 6.86804 7.74591 6.9999C7.74591 7.13176 7.77188 7.26232 7.82234 7.38415C7.8728 7.50597 7.94676 7.61666 8.04 7.7099C8.13324 7.80313 8.24393 7.8771 8.36575 7.92756C8.48757 7.97802 8.61814 8.00399 8.75 8.00399C8.88186 8.00399 9.01243 7.97802 9.13425 7.92756C9.25607 7.8771 9.36676 7.80313 9.46 7.7099ZM21.75 11.9999C21.4848 11.9999 21.2304 12.1053 21.0429 12.2928C20.8554 12.4803 20.75 12.7347 20.75 12.9999V18.9999C20.75 19.2651 20.6446 19.5195 20.4571 19.707C20.2696 19.8945 20.0152 19.9999 19.75 19.9999H5.75C5.48478 19.9999 5.23043 19.8945 5.04289 19.707C4.85536 19.5195 4.75 19.2651 4.75 18.9999V12.9999C4.75 12.7347 4.64464 12.4803 4.45711 12.2928C4.26957 12.1053 4.01522 11.9999 3.75 11.9999C3.48478 11.9999 3.23043 12.1053 3.04289 12.2928C2.85536 12.4803 2.75 12.7347 2.75 12.9999V18.9999C2.75 19.7955 3.06607 20.5586 3.62868 21.1212C4.19129 21.6838 4.95435 21.9999 5.75 21.9999H19.75C20.5456 21.9999 21.3087 21.6838 21.8713 21.1212C22.4339 20.5586 22.75 19.7955 22.75 18.9999V12.9999C22.75 12.7347 22.6446 12.4803 22.4571 12.2928C22.2696 12.1053 22.0152 11.9999 21.75 11.9999Z" fill="black"/>
</svg>
