<svg width="48" height="48" viewBox="0 0 48 48" fill="none" xmlns="http://www.w3.org/2000/svg">
<path fill-rule="evenodd" clip-rule="evenodd" d="M38.4813 16.6515L38.3046 16.6219L36.2924 9.91959C35.5944 7.59317 33.4532 6 31.0243 6H16.9766C14.5477 6 12.4065 7.59317 11.7085 9.91959L9.69431 16.6222C8.11307 16.8854 6.56338 17.1954 5.04552 17.5524L5.04237 17.5532C3.96716 17.8062 3.30063 18.8829 3.55362 19.9581C3.80661 21.0333 4.88332 21.6998 5.95853 21.4468C7.38693 21.1107 8.85102 20.8176 10.3511 20.5679C14.6251 19.8564 19.1746 19.5 24.0005 19.5C28.8256 19.5 33.3745 19.8563 37.6479 20.5676C39.1369 20.8154 40.5905 21.106 42.0089 21.439L42.0424 21.4468C43.1176 21.6998 44.1943 21.0333 44.4473 19.9581C44.7003 18.8829 44.0337 17.8062 42.9585 17.5532C41.4956 17.2089 40.0031 16.9085 38.4813 16.6515Z" fill="#742DDB"/>
<path fill-rule="evenodd" clip-rule="evenodd" d="M44.5005 33C44.5005 27.7533 40.2472 23.5 35.0005 23.5C30.0913 23.5 26.0519 27.2236 25.5524 32.0006H22.4485C21.9491 27.2236 17.9096 23.5 13.0005 23.5C7.75378 23.5 3.50049 27.7533 3.50049 33C3.50049 38.2467 7.75378 42.5 13.0005 42.5C17.1965 42.5 20.7572 39.7796 22.015 36.0063H25.986C27.2438 39.7796 30.8045 42.5 35.0005 42.5C40.2472 42.5 44.5005 38.2467 44.5005 33ZM7.50049 33C7.50049 29.9624 9.96292 27.5 13.0005 27.5C16.0381 27.5 18.5005 29.9624 18.5005 33C18.5005 36.0376 16.0381 38.5 13.0005 38.5C9.96292 38.5 7.50049 36.0376 7.50049 33ZM29.5005 33C29.5005 29.9624 31.9629 27.5 35.0005 27.5C38.0381 27.5 40.5005 29.9624 40.5005 33C40.5005 36.0376 38.0381 38.5 35.0005 38.5C31.9629 38.5 29.5005 36.0376 29.5005 33Z" fill="#742DDB"/>
<path d="M13.0005 27.5C9.96292 27.5 7.50049 29.9624 7.50049 33C7.50049 36.0376 9.96292 38.5 13.0005 38.5C16.0381 38.5 18.5005 36.0376 18.5005 33C18.5005 29.9624 16.0381 27.5 13.0005 27.5Z" fill="#D4BEF4"/>
<path d="M35.0005 27.5C31.9629 27.5 29.5005 29.9624 29.5005 33C29.5005 36.0376 31.9629 38.5 35.0005 38.5C38.0381 38.5 40.5005 36.0376 40.5005 33C40.5005 29.9624 38.0381 27.5 35.0005 27.5Z" fill="#D4BEF4"/>
</svg>
