<svg width="25" height="24" viewBox="0 0 25 24" fill="none" xmlns="http://www.w3.org/2000/svg">
<path d="M12.548 3.01645C12.4833 3.02255 12.3959 3.03039 12.3018 3.03848C11.2766 3.12647 10.3289 3.4725 9.45928 4.07325C9.18027 4.26601 8.85132 4.56446 8.55928 4.86929C8.26838 5.17291 7.98958 5.50841 7.82293 5.78336C7.79505 5.82936 7.77195 5.86709 7.75241 5.89829C7.71869 5.89585 7.68568 5.89428 7.65533 5.89314C7.55239 5.88925 7.43282 5.88916 7.31345 5.8921C7.08617 5.89769 6.81638 5.9152 6.6589 5.95013C5.91037 6.11618 5.17883 6.58626 4.70115 7.20505C4.13074 7.94397 3.8941 8.74798 3.94645 9.72373L3.95941 9.96511L3.92981 9.98996C3.47025 10.376 3.03171 10.9522 2.74821 11.5328C1.84369 13.3854 2.19496 15.6682 3.6057 17.2122C4.13937 17.7963 4.70391 18.1963 5.37376 18.452C5.68926 18.5724 5.90994 18.6435 6.32733 18.6786C6.71809 18.7116 7.25 18.7144 7.32715 18.7144L7.58326 18.7144C7.75 18.7144 7.97499 18.7149 8.24347 18.6809C8.39418 18.6618 8.55558 18.625 8.68944 18.5121C8.79549 18.4227 8.85903 18.2963 8.88329 18.248L8.89055 18.2338C9.1256 17.7964 9.00582 17.269 8.59654 16.9883C8.44326 16.8832 8.26206 16.8699 8.01144 16.8586C7.72795 16.8457 7.75 16.829 7.30655 16.829L7.2747 16.8287C6.75 16.8287 6.71796 16.8113 6.41584 16.7779C6.16114 16.7497 6.07701 16.7082 5.82188 16.5823L5.80307 16.573C4.95234 16.1534 4.32503 15.2971 4.12897 14.2412C4.11363 14.1586 4.09527 13.9034 4.09501 13.6819C4.09375 12.7113 4.5427 11.8347 5.3595 11.2424C5.55576 11.1 5.74352 10.9358 5.84012 10.7071C5.94395 10.4614 5.91189 10.2194 5.85063 10.0009C5.83714 9.95277 5.80556 9.78695 5.7852 9.63692C5.67938 8.85786 6.18502 8.06358 6.95553 7.83102C7.04139 7.80511 7.19056 7.78588 7.36287 7.78565C7.53432 7.78542 7.68853 7.80406 7.78282 7.83112C8.03362 7.90308 8.29787 7.93783 8.54558 7.84842C8.80966 7.75311 8.97437 7.54761 9.08429 7.31901C9.58192 6.28399 10.4982 5.46033 11.5219 5.1154C12.3271 4.84413 13.2728 4.85037 14.0996 5.13603C14.722 5.35109 15.2109 5.6677 15.6944 6.17373C16.2837 6.79046 16.6618 7.53492 16.8119 8.37098C16.8485 8.57494 16.8798 8.74735 16.9145 8.88483C16.949 9.02117 16.9957 9.16192 17.0819 9.28468C17.2553 9.53184 17.5271 9.60718 17.7492 9.66874L17.7914 9.6805C18.6161 9.91225 19.2107 10.3244 19.6821 10.9785C20.1685 11.6536 20.3974 12.3665 20.3982 13.2148C20.3992 14.1445 20.0801 14.9965 19.4841 15.6679C18.9836 16.2317 18.4977 16.5422 17.8203 16.7386C17.6191 16.7969 17.25 16.8284 16.9168 16.8284C16.5837 16.8284 16.1113 16.8512 16.1113 16.8512L16.0649 16.8639C15.8741 16.9158 15.7212 17.0234 15.6223 17.1827C15.4942 17.389 15.4958 17.6337 15.4965 17.7432L15.4966 17.7635C15.4966 17.9287 15.5207 18.1021 15.6066 18.2615C15.6961 18.4278 15.8304 18.5377 15.9781 18.6128C16.0491 18.649 16.1277 18.6608 16.1549 18.665L16.1577 18.6654C16.2016 18.6721 16.2528 18.6774 16.3067 18.6819C16.4156 18.6909 16.5564 18.6981 16.7162 18.7037L16.8633 18.7039C16.8633 18.7039 16.9882 18.7082 17.1238 18.7039C17.4707 18.6932 17.7816 18.6765 17.9375 18.6484C18.973 18.4624 19.9105 17.9438 20.6796 17.1422C21.8613 15.9107 22.4389 14.1288 22.1949 12.4488C21.8921 10.364 20.5069 8.59684 18.6396 7.96948L18.6062 7.95826L18.6032 7.94175C18.5741 7.78379 18.4902 7.47281 18.4171 7.24269C17.7708 5.20552 16.0927 3.63633 14.0487 3.16027C13.8913 3.12361 13.5762 3.07937 13.3057 3.04779C13.1669 3.03158 13.0314 3.01774 12.9234 3.00926C12.8699 3.00505 12.8194 3.00187 12.7771 3.00061C12.7562 2.99998 12.7331 2.99971 12.7108 3.00043C12.6997 3.00079 12.6716 3.0017 12.6378 3.00749L12.6243 3.00896C12.6064 3.01084 12.5805 3.01338 12.548 3.01645Z" fill="#17131E"/>
<path fill-rule="evenodd" clip-rule="evenodd" d="M16.7423 14.8411C16.3668 15.2233 15.758 15.2233 15.3825 14.8411L12.2162 11.6183L9.05 14.8411C8.6745 15.2233 8.06569 15.2233 7.69019 14.8411C7.31468 14.4589 7.31468 13.8392 7.69019 13.457L11.5363 9.54212C11.9118 9.15991 12.5206 9.15991 12.8961 9.54212L16.7423 13.457C17.1178 13.8392 17.1178 14.4589 16.7423 14.8411Z" fill="#17131E"/>
<path fill-rule="evenodd" clip-rule="evenodd" d="M12.2162 21C11.6852 21 11.2547 20.5618 11.2547 20.0213L11.2547 10.2342C11.2547 9.69364 11.6852 9.25546 12.2162 9.25546C12.7473 9.25546 13.1778 9.69364 13.1778 10.2342L13.1778 20.0213C13.1778 20.5618 12.7473 21 12.2162 21Z" fill="#17131E"/>
</svg>
