<svg width="48" height="48" viewBox="0 0 48 48" fill="none" xmlns="http://www.w3.org/2000/svg">
<path d="M46 19.88C45.9792 19.6963 45.9389 19.5153 45.88 19.34V19.16C45.7838 18.9544 45.6556 18.7653 45.5 18.6L33.5 6.6C33.3347 6.44443 33.1456 6.31616 32.94 6.22H32.76C32.5568 6.10348 32.3324 6.02869 32.1 6H16C14.4087 6 12.8826 6.63214 11.7574 7.75736C10.6321 8.88258 10 10.4087 10 12V14H8C6.4087 14 4.88258 14.6321 3.75736 15.7574C2.63214 16.8826 2 18.4087 2 20V36C2 37.5913 2.63214 39.1174 3.75736 40.2426C4.88258 41.3679 6.4087 42 8 42H32C33.5913 42 35.1174 41.3679 36.2426 40.2426C37.3679 39.1174 38 37.5913 38 36V34H40C41.5913 34 43.1174 33.3679 44.2426 32.2426C45.3679 31.1174 46 29.5913 46 28V20C46 20 46 20 46 19.88ZM34 12.82L39.18 18H36C35.4696 18 34.9609 17.7893 34.5858 17.4142C34.2107 17.0391 34 16.5304 34 16V12.82ZM34 36C34 36.5304 33.7893 37.0391 33.4142 37.4142C33.0391 37.7893 32.5304 38 32 38H8C7.46957 38 6.96086 37.7893 6.58579 37.4142C6.21071 37.0391 6 36.5304 6 36V20C6 19.4696 6.21071 18.9609 6.58579 18.5858C6.96086 18.2107 7.46957 18 8 18H10V28C10 29.5913 10.6321 31.1174 11.7574 32.2426C12.8826 33.3679 14.4087 34 16 34H34V36ZM42 28C42 28.5304 41.7893 29.0391 41.4142 29.4142C41.0391 29.7893 40.5304 30 40 30H16C15.4696 30 14.9609 29.7893 14.5858 29.4142C14.2107 29.0391 14 28.5304 14 28V12C14 11.4696 14.2107 10.9609 14.5858 10.5858C14.9609 10.2107 15.4696 10 16 10H30V16C30 17.5913 30.6321 19.1174 31.7574 20.2426C32.8826 21.3679 34.4087 22 36 22H42V28Z" fill="#742DDB"/>
<path d="M42 28C42 28.5304 41.7893 29.0391 41.4142 29.4142C41.0391 29.7893 40.5304 30 40 30H16C15.4696 30 14.9609 29.7893 14.5858 29.4142C14.2107 29.0391 14 28.5304 14 28V12C14 11.4696 14.2107 10.9609 14.5858 10.5858C14.9609 10.2107 15.4696 10 16 10H30V16C30 17.5913 30.6321 19.1174 31.7574 20.2426C32.8826 21.3679 34.4087 22 36 22H42V28Z" fill="#D4BEF4"/>
<path d="M34 12.82L39.18 18H36C35.4696 18 34.9609 17.7893 34.5858 17.4142C34.2107 17.0391 34 16.5304 34 16V12.82Z" fill="#D4BEF4"/>
<path d="M34 36C34 36.5304 33.7893 37.0391 33.4142 37.4142C33.0391 37.7893 32.5304 38 32 38H8C7.46957 38 6.96086 37.7893 6.58579 37.4142C6.21071 37.0391 6 36.5304 6 36V20C6 19.4696 6.21071 18.9609 6.58579 18.5858C6.96086 18.2107 7.46957 18 8 18H10V28C10 29.5913 10.6321 31.1174 11.7574 32.2426C12.8826 33.3679 14.4087 34 16 34H34V36Z" fill="#D4BEF4"/>
</svg>
