<svg width="16" height="16" viewBox="0 0 16 16" fill="none" xmlns="http://www.w3.org/2000/svg">
<path d="M8.97342 1.66184L8.6198 3.07099C9.12071 2.07573 9.91628 1.32681 10.8298 0.666504C10.1619 1.445 9.55294 2.22358 9.17968 3.00208C9.80833 2.11513 10.653 1.62244 11.6057 1.29723C10.3387 2.43052 9.33294 3.64666 8.56679 4.86856L7.95786 4.60252C8.06574 3.62696 8.43317 2.62766 8.97342 1.66184Z" fill="#A6A6A6"/>
<path d="M7.34718 4.34365L8.50623 4.82609C8.50623 5.12179 8.48228 6.02368 8.6666 6.28972C10.5942 8.78051 10.2699 13.7733 8.27609 13.9014C5.2399 13.9014 4.08201 11.832 4.08201 9.93004C4.08201 8.1956 6.15441 7.04261 7.39206 6.01777C7.70635 5.74184 7.65176 5.13204 7.34718 4.34365Z" fill="#EDEDED"/>
<path d="M8.50657 4.80849L8.92427 5.02229C8.88501 5.29814 8.94391 5.90924 9.21885 6.06683C10.4369 6.82564 11.586 7.65342 12.0378 8.4812C13.6487 11.3982 10.9083 14.0983 8.54116 13.8421C9.82786 12.8862 10.2011 10.9252 9.71984 8.78664C9.52343 7.94897 9.21885 7.19017 8.6786 6.3328C8.44458 5.91198 8.52628 5.39 8.50657 4.80849Z" fill="#6F6F6F"/>
<path d="M8.30559 4.73647L9.16991 4.85474C8.91453 5.70222 9.67089 6.29348 9.91642 6.43151C10.4665 6.73703 10.9969 7.05235 11.4192 7.43666C11.8127 7.79649 12.1269 8.23482 12.3417 8.72355C12.5565 9.21229 12.6672 9.74066 12.6667 10.2748C12.6667 11.3489 12.1755 12.3837 11.3505 13.0735C10.5746 13.7239 9.50397 13.9998 8.46281 13.9998C7.81453 13.9998 7.23501 13.9703 6.60644 13.7633C5.17246 13.2804 4.1018 12.0486 4.01342 10.5704C3.93481 9.41737 4.19019 8.5403 5.08407 7.62383C5.54564 7.14096 6.47879 6.5891 7.11728 6.14563C7.43164 5.9288 7.76555 5.31777 7.12706 4.16485L7.25479 4.06628L8.20102 4.70213L7.40215 4.37179C7.4709 4.47036 7.65753 4.91384 7.69687 5.04192C7.78526 5.40652 7.74599 5.76139 7.66739 5.91898C7.26471 6.64827 6.57717 6.84533 6.07626 7.25923C5.19223 7.98844 4.22967 8.56988 4.3377 10.5704C4.38682 11.5558 5.15297 12.7581 6.30208 13.3198C6.95036 13.6352 7.69687 13.7633 8.45317 13.8027C9.13086 13.8323 10.4274 13.4282 11.1346 12.837C11.8909 12.2063 12.3133 11.2504 12.3133 10.2748C12.3133 9.28929 11.9204 8.35312 11.1837 7.69282C10.7613 7.30851 10.064 6.84533 9.63184 6.59892C9.19968 6.35257 8.65943 5.66275 8.83621 5.00252L8.30559 4.73647Z" fill="#17131E"/>
<path d="M8.04036 6.19507C7.95198 6.64843 7.85373 7.46633 7.46084 7.77184C7.29385 7.89004 7.12685 8.00837 6.95008 8.12657C6.2429 8.60951 5.53565 9.06273 5.21159 10.2256C5.14283 10.472 5.20181 10.7381 5.26078 10.9844C5.43756 11.6939 5.93847 12.4626 6.33136 12.916C6.33136 12.9357 6.40997 12.985 6.40997 13.0047C6.73411 13.389 6.83235 13.4974 8.06007 13.7733L8.03058 13.9113C7.29392 13.7143 6.68498 13.5369 6.30187 13.0933C6.30187 13.0835 6.23312 13.0145 6.23312 13.0145C5.8206 12.5414 5.31961 11.7531 5.13305 11.014C5.0643 10.7183 5.0054 10.4917 5.08393 10.1861C5.41785 8.98394 6.14473 8.51088 6.88139 8.0083C7.04839 7.89992 7.2448 7.80128 7.40194 7.67321C7.70637 7.44663 7.8733 6.75674 8.04036 6.19507Z" fill="#17131E"/>
<path d="M8.35444 8.06726C8.36429 8.57972 8.31445 8.83674 8.44211 9.20142C8.52064 9.41818 8.78602 9.71388 8.86463 9.99969C8.97265 10.3841 9.09031 10.8078 9.08039 11.064C9.08039 11.3597 9.06198 11.9113 8.93432 12.5026C8.83694 12.9912 8.61263 13.4105 8.23534 13.6481C7.84892 13.5683 7.39519 13.432 7.12736 13.2017C6.60682 12.7484 6.14575 11.9904 6.08677 11.33C6.03773 10.7882 6.53792 9.9888 7.23524 9.58479C7.82454 9.23988 7.96162 8.84677 8.08928 8.21605C7.9125 8.7679 7.74644 9.23057 7.17677 9.52613C6.35172 9.95979 5.92841 10.6876 5.96768 11.3775C6.02658 12.2643 6.38056 12.8653 7.07788 13.3482C7.37254 13.5552 7.923 13.7739 8.26677 13.833V13.7879C8.52748 13.7389 8.86506 13.3093 9.03321 12.7281C9.18057 12.2058 9.23868 11.5374 9.22875 11.1136C9.2189 10.8672 9.11059 10.3337 8.91411 9.85083C8.80609 9.58479 8.6401 9.31882 8.53201 9.13157C8.41428 8.94418 8.41341 8.54025 8.35444 8.06726Z" fill="#17131E"/>
<path d="M8.29609 9.99984C8.30587 10.3447 8.44396 10.7866 8.50286 11.24C8.55205 11.5751 8.53069 11.9117 8.52084 12.2074C8.51113 12.5496 8.3975 13.1629 8.24215 13.4611C8.09565 13.3937 8.03841 13.3168 7.94326 13.1928C7.82546 13.0252 7.74541 12.8577 7.6668 12.6606C7.60783 12.5128 7.539 12.3436 7.50945 12.1465C7.47018 11.8509 7.48118 11.3884 7.8151 10.9153C8.07048 10.5408 8.12902 10.5124 8.21741 10.0788C8.09947 10.4631 8.01158 10.5023 7.73642 10.8274C7.43199 11.1822 7.38136 11.7048 7.38136 12.1285C7.38136 12.3059 7.45184 12.5027 7.52074 12.6899C7.59927 12.8871 7.66666 13.0833 7.77461 13.2311C7.93707 13.4707 8.14492 13.607 8.24661 13.6325H8.24884C8.251 13.633 8.25352 13.6343 8.2556 13.6347V13.6235C8.44619 13.4103 8.5609 13.1985 8.59944 12.9853C8.64856 12.7291 8.65986 12.4723 8.68934 12.1668C8.71883 11.9106 8.69747 11.5654 8.62871 11.2107C8.53055 10.7672 8.36477 10.3151 8.29609 9.99984Z" fill="#17131E"/>
<path d="M8.32518 5.78106C8.33503 6.29345 8.3743 7.24946 8.51181 7.62388C8.55108 7.75196 8.91448 8.3137 9.16979 8.99363C9.34664 9.4667 9.38591 9.90029 9.4154 10.0284C9.53327 10.5901 9.38591 11.5362 9.18943 12.4329C9.09126 12.9158 8.75727 13.5169 8.37423 13.7535L8.2957 13.8914C8.51181 13.8815 9.04214 13.3593 9.22877 12.7089C9.54312 11.6051 9.67078 11.0927 9.52349 9.8707C9.50386 9.75236 9.45474 9.34843 9.26811 8.91477C8.99309 8.25446 8.6002 7.62381 8.55115 7.49566C8.46269 7.28878 8.34482 6.39202 8.32518 5.78106Z" fill="#17131E"/>
<path d="M8.50933 5.08039C8.48014 5.607 8.47237 5.80095 8.57054 6.18526C8.67856 6.60904 9.22867 7.21999 9.45456 7.9197C9.88672 9.25994 9.7787 11.0141 9.46434 12.3838C9.34654 12.8666 8.78658 13.5664 8.22677 13.793L8.63929 13.8915C8.86519 13.8817 9.44464 13.3397 9.67061 12.7189C10.0339 11.7432 10.1028 10.5804 9.9554 9.35843C9.94555 9.24017 9.74907 8.18574 9.56251 7.74226C9.29728 7.08203 8.82578 6.4907 8.77673 6.36269C8.68841 6.14586 8.4943 5.6956 8.50933 5.08039Z" fill="#17131E"/>
<path d="M8.19707 4.70984H8.23663V13.803H8.19707V4.70984Z" fill="#17131E"/>
</svg>
