<svg width="20" height="20" viewBox="0 0 20 20" fill="none" xmlns="http://www.w3.org/2000/svg">
<path d="M12.266 7.32435L8.69102 10.9077L7.31602 9.53268C7.24131 9.44545 7.14938 9.3746 7.04599 9.32458C6.94261 9.27456 6.83 9.24645 6.71523 9.24202C6.60046 9.23758 6.48602 9.25692 6.37908 9.29882C6.27215 9.34071 6.17502 9.40426 6.09381 9.48547C6.0126 9.56669 5.94905 9.66381 5.90715 9.77075C5.86526 9.87768 5.84592 9.99213 5.85035 10.1069C5.85479 10.2217 5.8829 10.3343 5.93291 10.4377C5.98293 10.541 6.05378 10.633 6.14102 10.7077L8.09935 12.6743C8.17722 12.7516 8.26957 12.8127 8.3711 12.8542C8.47263 12.8956 8.58135 12.9167 8.69102 12.916C8.90964 12.9151 9.11914 12.8283 9.27435 12.6743L13.441 8.50768C13.5191 8.43021 13.5811 8.33805 13.6234 8.2365C13.6657 8.13495 13.6875 8.02603 13.6875 7.91602C13.6875 7.80601 13.6657 7.69708 13.6234 7.59554C13.5811 7.49399 13.5191 7.40182 13.441 7.32435C13.2849 7.16914 13.0737 7.08202 12.8535 7.08202C12.6334 7.08202 12.4222 7.16914 12.266 7.32435ZM9.99935 1.66602C8.35118 1.66602 6.74001 2.15476 5.3696 3.07044C3.99919 3.98611 2.93109 5.2876 2.30036 6.81032C1.66963 8.33304 1.5046 10.0086 1.82614 11.6251C2.14769 13.2416 2.94136 14.7265 4.1068 15.8919C5.27223 17.0573 6.75709 17.851 8.3736 18.1726C9.99011 18.4941 11.6657 18.3291 13.1884 17.6983C14.7111 17.0676 16.0126 15.9995 16.9283 14.6291C17.8439 13.2587 18.3327 11.6475 18.3327 9.99935C18.3327 8.905 18.1171 7.82137 17.6983 6.81032C17.2796 5.79927 16.6657 4.88061 15.8919 4.10679C15.1181 3.33297 14.1994 2.71914 13.1884 2.30035C12.1773 1.88156 11.0937 1.66602 9.99935 1.66602V1.66602ZM9.99935 16.666C8.68081 16.666 7.39188 16.275 6.29555 15.5425C5.19922 14.8099 4.34474 13.7687 3.84016 12.5506C3.33557 11.3324 3.20355 9.99195 3.46078 8.69875C3.71802 7.40554 4.35296 6.21765 5.28531 5.2853C6.21766 4.35295 7.40554 3.71802 8.69875 3.46078C9.99196 3.20355 11.3324 3.33557 12.5506 3.84015C13.7687 4.34474 14.8099 5.19922 15.5425 6.29555C16.275 7.39188 16.666 8.68081 16.666 9.99935C16.666 11.7675 15.9636 13.4632 14.7134 14.7134C13.4632 15.9636 11.7675 16.666 9.99935 16.666V16.666Z" fill="#039855"/>
</svg>
