<svg width="25" height="18" viewBox="0 0 25 18" fill="none" xmlns="http://www.w3.org/2000/svg">
<path d="M9.92515 15.4164C10.4134 15.9011 10.4134 16.6641 9.92515 17.1488C9.43691 17.6171 8.66825 17.6171 8.18 17.1488L0.866186 9.88977C0.639656 9.66491 0.5 9.35272 0.5 9.00669C0.5 8.66066 0.639656 8.34846 0.866186 8.12251L8.18 0.863496C8.66825 0.378835 9.43691 0.378835 9.92515 0.863496C10.4134 1.34816 10.4134 2.11117 9.92515 2.59583L4.68859 7.77647L23.2783 7.77647C23.959 7.77538 24.5 8.32991 24.5 9.00559C24.5 9.68128 23.959 10.2183 23.2783 10.2183L4.68969 10.2183L9.92515 15.4164Z" fill="#F94814"/>
</svg>
