<svg xmlns="http://www.w3.org/2000/svg">
	<symbol id="icon-search" viewBox="0 0 15 15">
		<path d="M5.76897 0.10791C2.64096 0.10791 0.10791 2.64096 0.10791 5.76897C0.10791 8.89697 2.64096 11.43 5.76897 11.43C7.08958 11.43 8.30427 10.9635 9.26656 10.2041L9.77137 10.7089C9.55953 11.1078 9.6339 11.6171 9.96969 11.9529L12.6199 14.6211C13.0323 15.0335 13.7039 15.0335 14.1163 14.6211L14.6211 14.1163C15.0335 13.7039 15.0335 13.0323 14.6211 12.6199L11.9529 9.96969C11.6148 9.63165 11.1078 9.57305 10.7089 9.7894L10.2041 9.28459C10.968 8.32005 11.43 7.09634 11.43 5.76897C11.43 2.64096 8.89697 0.10791 5.76897 0.10791ZM5.76897 1.15358C8.3178 1.15358 10.3844 3.22014 10.3844 5.76897C10.3844 8.3178 8.3178 10.3844 5.76897 10.3844C3.22014 10.3844 1.15358 8.3178 1.15358 5.76897C1.15358 3.22014 3.22014 1.15358 5.76897 1.15358ZM2.84829 4.30863C2.55082 4.7909 2.37954 5.35881 2.37954 5.96729C2.37954 7.71383 3.78805 9.12233 5.53459 9.12233C6.20842 9.12233 6.84168 8.90373 7.35551 8.54541C7.21804 8.56119 7.06479 8.56344 6.92281 8.56344C4.6647 8.56344 2.84829 6.74703 2.84829 4.48892C2.84829 4.42807 2.84604 4.36948 2.84829 4.30863Z" />
	</symbol>
	<symbol id="icon-lamp" viewBox="0 0 15 15">
		<path d="M7.5 0.577148C4.64017 0.577148 2.30769 2.90963 2.30769 5.76946C2.30769 7.41684 3.13702 8.58196 3.89423 9.41128C4.27284 9.82595 4.64694 10.1798 4.88582 10.457C5.1247 10.7341 5.19231 10.9144 5.19231 10.9618C5.19231 10.9798 5.19231 10.9978 5.19231 11.0159V12.6925C5.19231 13.3235 5.71514 13.8464 6.34615 13.8464L6.92308 14.4233H8.07692L8.65385 13.8464C9.28486 13.8464 9.80769 13.3235 9.80769 12.6925V11.1421C9.80995 11.1128 9.80995 11.0812 9.80769 11.0519C9.80769 10.973 9.89333 10.7634 10.1322 10.475C10.3711 10.1865 10.7294 9.83271 11.1058 9.41128C11.8607 8.56843 12.6923 7.40557 12.6923 5.76946C12.6923 2.90963 10.3598 0.577148 7.5 0.577148ZM1.73077 1.73099C1.41301 1.73099 1.15385 1.99016 1.15385 2.30792C1.15385 2.62568 1.41301 2.88484 1.73077 2.88484C2.04853 2.88484 2.30769 2.62568 2.30769 2.30792C2.30769 1.99016 2.04853 1.73099 1.73077 1.73099ZM7.5 1.73099C9.73783 1.73099 11.5385 3.53163 11.5385 5.76946C11.5385 7.02021 10.9277 7.88559 10.2404 8.65407C9.89558 9.03718 9.53275 9.37072 9.23077 9.7358C9.06851 9.93187 8.92428 10.1482 8.81611 10.3848H6.21995C6.10727 10.1279 5.93149 9.90933 5.7512 9.69974C5.44922 9.35044 5.10216 9.01014 4.75962 8.63604C4.07452 7.88559 3.46154 7.03598 3.46154 5.76946C3.46154 3.53163 5.26217 1.73099 7.5 1.73099ZM13.2692 1.73099C12.9515 1.73099 12.6923 1.99016 12.6923 2.30792C12.6923 2.62568 12.9515 2.88484 13.2692 2.88484C13.587 2.88484 13.8462 2.62568 13.8462 2.30792C13.8462 1.99016 13.587 1.73099 13.2692 1.73099ZM0.576923 5.19253C0.259165 5.19253 0 5.4517 0 5.76946C0 6.08721 0.259165 6.34638 0.576923 6.34638C0.894681 6.34638 1.15385 6.08721 1.15385 5.76946C1.15385 5.4517 0.894681 5.19253 0.576923 5.19253ZM14.4231 5.19253C14.1053 5.19253 13.8462 5.4517 13.8462 5.76946C13.8462 6.08721 14.1053 6.34638 14.4231 6.34638C14.7408 6.34638 15 6.08721 15 5.76946C15 5.4517 14.7408 5.19253 14.4231 5.19253ZM1.73077 8.65407C1.41301 8.65407 1.15385 8.91324 1.15385 9.23099C1.15385 9.54875 1.41301 9.80792 1.73077 9.80792C2.04853 9.80792 2.30769 9.54875 2.30769 9.23099C2.30769 8.91324 2.04853 8.65407 1.73077 8.65407ZM13.2692 8.65407C12.9515 8.65407 12.6923 8.91324 12.6923 9.23099C12.6923 9.54875 12.9515 9.80792 13.2692 9.80792C13.587 9.80792 13.8462 9.54875 13.8462 9.23099C13.8462 8.91324 13.587 8.65407 13.2692 8.65407ZM6.34615 11.5387H8.65385V12.6925H6.34615V11.5387Z" />
	</symbol>
	<symbol id="icon-flask" viewBox="0 0 13 13">
		<path d="M4.625 0.875C4.28 0.875 4 1.155 4 1.5C4 1.845 4.28 2.125 4.625 2.125V5.25L1.14233 10.1084H1.14478C0.978525 10.3203 0.875 10.5844 0.875 10.875C0.875 11.5656 1.43437 12.125 2.125 12.125H10.875C11.5656 12.125 12.125 11.5656 12.125 10.875C12.125 10.5844 12.0215 10.3203 11.8552 10.1084H11.8577L8.375 5.25V2.125C8.72 2.125 9 1.845 9 1.5C9 1.155 8.72 0.875 8.375 0.875H4.625ZM5.875 2.125H7.125V5.25H5.875V2.125ZM7.125 7.125C7.47 7.125 7.75 7.405 7.75 7.75C7.75 8.095 7.47 8.375 7.125 8.375C6.78 8.375 6.5 8.095 6.5 7.75C6.5 7.405 6.78 7.125 7.125 7.125ZM4.9375 9C5.455 9 5.875 9.42 5.875 9.9375C5.875 10.455 5.455 10.875 4.9375 10.875C4.42 10.875 4 10.455 4 9.9375C4 9.42 4.42 9 4.9375 9Z"/>
	</symbol>


</svg>
