<svg width="18" height="18" viewBox="0 0 18 18" fill="none" xmlns="http://www.w3.org/2000/svg">
<path d="M16.8032 9.2332C16.7308 9.08502 16.7308 8.91508 16.8032 8.76693L17.4745 7.39356C17.8483 6.62888 17.5522 5.71746 16.8003 5.31854L15.45 4.60206C15.3043 4.52479 15.2044 4.38726 15.1759 4.22487L14.9118 2.71918C14.7647 1.88084 13.9893 1.3175 13.1467 1.43672L11.6331 1.65082C11.4697 1.67388 11.3082 1.62136 11.1897 1.50671L10.091 0.443876C9.47927 -0.147941 8.52092 -0.147976 7.9092 0.443876L6.8105 1.50682C6.69196 1.6215 6.53042 1.67392 6.36708 1.65092L4.85351 1.43682C4.01064 1.31754 3.23545 1.88095 3.08839 2.71928L2.8243 4.22491C2.79579 4.38733 2.69591 4.52483 2.55026 4.60213L1.19992 5.31861C0.44807 5.71749 0.151916 6.62898 0.525695 7.39366L1.197 8.767C1.26942 8.91518 1.26942 9.08513 1.197 9.23327L0.525659 10.6066C0.15188 11.3713 0.448035 12.2827 1.19988 12.6816L2.55023 13.3981C2.69591 13.4754 2.79579 13.6129 2.8243 13.7753L3.08839 15.281C3.22227 16.0442 3.87666 16.5794 4.62876 16.5793C4.70283 16.5793 4.77799 16.5741 4.85354 16.5634L6.36712 16.3493C6.53035 16.3261 6.69199 16.3788 6.81054 16.4934L7.9092 17.5563C8.21513 17.8522 8.60754 18.0001 9.00009 18.0001C9.39254 18.0001 9.7852 17.8521 10.091 17.5563L11.1897 16.4934C11.3082 16.3788 11.4698 16.3264 11.6331 16.3493L13.1467 16.5634C13.9896 16.6827 14.7647 16.1193 14.9118 15.281L15.1759 13.7753C15.2044 13.6129 15.3043 13.4754 15.45 13.3981L16.8003 12.6816C17.5522 12.2827 17.8483 11.3713 17.4745 10.6066L16.8032 9.2332ZM6.92374 4.32834C7.97322 4.32834 8.82706 5.18217 8.82706 6.23165C8.82706 7.28113 7.97322 8.13496 6.92374 8.13496C5.87426 8.13496 5.02043 7.28113 5.02043 6.23165C5.02043 5.18217 5.87426 4.32834 6.92374 4.32834ZM5.94134 12.7929C5.83999 12.8942 5.70713 12.9449 5.57431 12.9449C5.44149 12.9449 5.3086 12.8942 5.20728 12.7929C5.00457 12.5901 5.00457 12.2615 5.20728 12.0588L12.0588 5.20724C12.2615 5.00453 12.5902 5.00453 12.7929 5.20724C12.9956 5.40995 12.9956 5.73862 12.7929 5.94133L5.94134 12.7929ZM11.0764 13.6718C10.0269 13.6718 9.17306 12.818 9.17306 11.7685C9.17306 10.719 10.0269 9.8652 11.0764 9.8652C12.1259 9.8652 12.9797 10.719 12.9797 11.7685C12.9797 12.818 12.1259 13.6718 11.0764 13.6718Z" fill="#F94814"/>
</svg>
