<svg width="33" height="19" viewBox="0 0 33 19" fill="none" xmlns="http://www.w3.org/2000/svg">
<path d="M32.606 9.49991C32.606 14.7127 28.2418 18.9998 22.8242 18.9998C17.4568 18.9998 13.0425 14.7127 13.0425 9.49991C13.0425 4.28714 17.4066 0 22.7741 0C28.2418 0 32.606 4.28714 32.606 9.49991Z" fill="#F9B50B"/>
<path d="M19.5133 9.54887C19.5133 8.86682 19.413 8.18478 19.3127 7.55145H13.2932C13.3433 7.21043 13.4436 6.91812 13.544 6.52838H18.9114C18.8111 6.18736 18.6606 5.84634 18.5101 5.50532H13.9453C14.0958 5.1643 14.2964 4.87199 14.4971 4.48225H17.9583C17.7576 4.14123 17.5068 3.80021 17.2059 3.45918H15.2997C15.6006 3.11816 15.9016 2.82586 16.3029 2.48483C14.5974 0.925876 12.2899 0.000244141 9.73159 0.000244141C4.41433 0.146397 0 4.28738 0 9.50015C0 14.7129 4.36417 19.0001 9.78175 19.0001C12.3401 19.0001 14.5974 18.0257 16.3531 16.5155C16.7042 16.2232 17.0052 15.8821 17.3563 15.4924H15.3498C15.099 15.2001 14.8482 14.8591 14.6475 14.518H18.0586C18.2593 14.2257 18.4599 13.8847 18.6104 13.495H14.0456C13.8951 13.2027 13.7446 12.8617 13.6443 12.4719H19.0117C19.3127 11.595 19.5133 10.6207 19.5133 9.54887Z" fill="#C8191C"/>
<path d="M13.2429 11.9357L13.3934 11.0588C13.3432 11.0588 13.2429 11.1075 13.1426 11.1075C12.7915 11.1075 12.7413 10.9127 12.7915 10.8152L13.0924 9.0614H13.6442L13.7947 8.08705H13.2931L13.3934 7.50244H12.34C12.34 7.50244 11.738 10.8152 11.738 11.205C11.738 11.7896 12.0892 12.0819 12.5908 12.0819C12.8918 12.0819 13.1426 11.9844 13.2429 11.9357Z" fill="white"/>
<path d="M13.594 10.328C13.594 11.7408 14.5973 12.0818 15.3999 12.0818C16.1523 12.0818 16.5034 11.9357 16.5034 11.9357L16.7041 10.9613C16.7041 10.9613 16.1523 11.2049 15.6005 11.2049C14.4468 11.2049 14.6474 10.3767 14.6474 10.3767H16.7543C16.7543 10.3767 16.9047 9.7434 16.9047 9.45109C16.9047 8.81777 16.5536 7.98957 15.3999 7.98957C14.3966 7.94085 13.594 9.06135 13.594 10.328ZM15.3999 8.86648C15.9516 8.86648 15.8513 9.49981 15.8513 9.54853H14.6976C14.7477 9.49981 14.8481 8.86648 15.3999 8.86648Z" fill="white"/>
<path d="M21.9713 11.9356L22.172 10.8151C22.172 10.8151 21.6704 11.0587 21.2691 11.0587C20.5668 11.0587 20.2156 10.5228 20.2156 9.88947C20.2156 8.67153 20.8176 8.0382 21.57 8.0382C22.0717 8.0382 22.5231 8.33051 22.5231 8.33051L22.6736 7.25872C22.6736 7.25872 22.0717 7.01514 21.4697 7.01514C20.2658 7.01514 19.1121 8.0382 19.1121 9.93818C19.1121 11.2048 19.714 12.033 20.9681 12.033C21.4196 12.0818 21.9713 11.9356 21.9713 11.9356Z" fill="white"/>
<path d="M7.57452 7.94092C6.87224 7.94092 6.32044 8.13579 6.32044 8.13579L6.16996 9.0127C6.16996 9.0127 6.62142 8.81783 7.3237 8.81783C7.67484 8.81783 7.97582 8.86655 7.97582 9.15885C7.97582 9.35372 7.92566 9.40244 7.92566 9.40244H7.47419C6.57126 9.40244 5.61816 9.74346 5.61816 10.9127C5.61816 11.8383 6.22012 12.0332 6.62142 12.0332C7.3237 12.0332 7.67484 11.5947 7.725 11.5947L7.67484 11.9845H8.52761L8.92891 9.20757C8.92891 7.98964 7.92566 7.94092 7.57452 7.94092ZM7.77517 10.1819C7.77517 10.3281 7.67484 11.1563 7.07289 11.1563C6.77191 11.1563 6.67158 10.9127 6.67158 10.7665C6.67158 10.5229 6.82207 10.1819 7.62468 10.1819C7.725 10.1819 7.77517 10.1819 7.77517 10.1819Z" fill="white"/>
<path d="M9.9323 12.0331C10.1831 12.0331 11.4873 12.0818 11.4873 10.7177C11.4873 9.45105 10.2333 9.69464 10.2333 9.20746C10.2333 8.96387 10.4339 8.86644 10.7851 8.86644C10.9356 8.86644 11.4873 8.91516 11.4873 8.91516L11.6378 7.98952C11.6378 7.98952 11.2867 7.89209 10.6346 7.89209C9.88213 7.89209 9.07953 8.18439 9.07953 9.20746C9.07953 10.3767 10.3838 10.2792 10.3838 10.7177C10.3838 11.01 10.0326 11.0587 9.78181 11.0587C9.33034 11.0587 8.82871 10.9126 8.82871 10.9126L8.67822 11.8382C8.77855 11.9356 9.07953 12.0331 9.9323 12.0331Z" fill="white"/>
<path d="M30.5993 7.16138L30.3986 8.52547C30.3986 8.52547 29.9973 8.03829 29.3953 8.03829C28.4423 8.03829 27.6396 9.15879 27.6396 10.4742C27.6396 11.3024 28.041 12.1306 28.9439 12.1306C29.5458 12.1306 29.9471 11.7408 29.9471 11.7408L29.897 12.0818H30.9504L31.7028 7.25881L30.5993 7.16138ZM30.0976 9.79212C30.0976 10.328 29.8468 11.0588 29.2449 11.0588C28.8937 11.0588 28.6931 10.7665 28.6931 10.2306C28.6931 9.40238 29.0442 8.91521 29.5458 8.91521C29.897 8.96392 30.0976 9.20751 30.0976 9.79212Z" fill="white"/>
<path d="M1.90609 11.9844L2.50804 8.37931L2.60837 11.9844H3.31065L4.66505 8.37931L4.11325 11.9844H5.21684L6.06961 7.16138H4.36407L3.31065 10.1331L3.26049 7.16138H1.7556L0.902832 11.9844H1.90609Z" fill="white"/>
<path d="M17.9584 11.9844C18.2594 10.3281 18.3096 8.96396 19.062 9.20755C19.1623 8.57422 19.3128 8.28192 19.4132 8.03833H19.2125C18.761 8.03833 18.3597 8.62294 18.3597 8.62294L18.4601 8.08705H17.4568L16.8047 11.9844H17.9584Z" fill="white"/>
<path d="M24.379 7.94092C23.6767 7.94092 23.1249 8.13579 23.1249 8.13579L22.9744 9.0127C22.9744 9.0127 23.4259 8.81783 24.1281 8.81783C24.4793 8.81783 24.7803 8.86655 24.7803 9.15885C24.7803 9.35372 24.7301 9.40244 24.7301 9.40244H24.2786C23.3757 9.40244 22.4226 9.74346 22.4226 10.9127C22.4226 11.8383 23.0246 12.0332 23.4259 12.0332C24.1281 12.0332 24.4793 11.5947 24.5294 11.5947L24.4793 11.9845H25.4324L25.8337 9.20757C25.8337 7.98964 24.7301 7.94092 24.379 7.94092ZM24.6298 10.1819C24.6298 10.3281 24.5294 11.1563 23.9275 11.1563C23.6265 11.1563 23.5262 10.9127 23.5262 10.7665C23.5262 10.5229 23.6767 10.1819 24.4793 10.1819C24.5796 10.1819 24.5796 10.1819 24.6298 10.1819Z" fill="white"/>
<path d="M26.6364 11.9844C26.9374 10.3281 26.9876 8.96396 27.74 9.20755C27.8403 8.57422 27.9908 8.28192 28.0911 8.03833H27.8905C27.439 8.03833 27.0377 8.62294 27.0377 8.62294L27.138 8.08705H26.1348L25.4827 11.9844H26.6364Z" fill="white"/>
</svg>
