<svg width="35" height="11" viewBox="0 0 35 11" fill="none" xmlns="http://www.w3.org/2000/svg">
<path d="M32.6924 0.506348H30.5354C29.8832 0.506348 29.3816 0.701218 29.0806 1.33454L24.9673 10.4447H27.8767C27.8767 10.4447 28.3784 9.22678 28.4787 8.93447C28.7797 8.93447 31.6389 8.93447 32.0402 8.93447C32.1406 9.27549 32.3914 10.396 32.3914 10.396H34.9999L32.6924 0.506348ZM29.2813 6.88834C29.5321 6.30373 30.3849 4.11144 30.3849 4.11144C30.3849 4.16016 30.6357 3.52683 30.736 3.18581L30.9367 4.06272C30.9367 4.06272 31.4885 6.44988 31.5888 6.93705H29.2813V6.88834Z" fill="#3362AB"/>
<path d="M25.1678 7.18055C25.1678 9.22669 23.2616 10.5908 20.302 10.5908C19.0479 10.5908 17.844 10.3472 17.1919 10.0549L17.5932 7.81388L17.9443 7.96003C18.8473 8.34977 19.4492 8.49592 20.5528 8.49592C21.3554 8.49592 22.2082 8.20362 22.2082 7.52158C22.2082 7.08312 21.857 6.79081 20.7535 6.30364C19.7 5.81646 18.2955 5.03699 18.2955 3.62418C18.2955 1.67548 20.2518 0.360107 23.0108 0.360107C24.0642 0.360107 24.9671 0.554977 25.5189 0.798565L25.1176 2.94213L24.917 2.74726C24.4153 2.55239 23.7632 2.35752 22.8101 2.35752C21.7567 2.40624 21.2551 2.8447 21.2551 3.23444C21.2551 3.6729 21.857 4.01392 22.8101 4.45237C24.4153 5.18314 25.1678 6.01133 25.1678 7.18055Z" fill="#3362AB"/>
<path d="M0.688477 0.604538L0.738639 0.409668H5.05264C5.6546 0.409668 6.10606 0.604538 6.25655 1.23787L7.20965 5.62244C6.25655 3.284 4.04939 1.38402 0.688477 0.604538Z" fill="#F9B50B"/>
<path d="M13.2792 0.506481L8.91502 10.3961H5.95541L3.44727 2.11416C5.25313 3.23466 6.75801 4.98849 7.30981 6.20643L7.61078 7.22949L10.3196 0.457764H13.2792V0.506481Z" fill="#3362AB"/>
<path d="M14.4329 0.457764H17.1919L15.4362 10.3961H12.6772L14.4329 0.457764Z" fill="#3362AB"/>
</svg>
