<?xml version="1.0" encoding="utf-8"?><svg xmlns="http://www.w3.org/2000/svg" xmlns:xlink="http://www.w3.org/1999/xlink"><symbol viewBox="0 0 24 24" id="icon-jabber"><g clip-path="url(#aclip0_89_1693)"><path d="M12.094 11.803c0-.263-.047-.549-.196-.77-.298-.44-.937-.58-1.382-.303-.225.141-.35.387-.42.639-.14.5-.077 1.071.021 1.574.032.16.064.322.108.48.016.056.023.14.06.187.062.082.216.106.31.09.283-.049.213-.527.203-.73-.022-.476-.159-.938-.027-1.411.056-.2.165-.426.362-.513.178-.079.357.018.428.196.114.289.085.622.157.923.024.102.051.203.096.298.013.028.03.085.069.082.091-.009.221-.166.29-.224.222-.188.45-.39.706-.529.12-.066.317-.172.44-.06a.457.457 0 01.08.098c.143.232 0 .413-.094.633-.121.286-.246.569-.422.824-.15.22-.358.412-.478.651a.784.784 0 00-.09.498c.026.14.132.226.272.193.105-.025.176-.117.236-.202.106-.152.205-.31.311-.461.205-.295.446-.57.618-.887a2.61 2.61 0 00.308-1.249c0-.355-.126-.898-.53-.973a.695.695 0 00-.237.007 1.027 1.027 0 00-.274.09c-.229.115-.427.285-.598.478-.106.12-.2.272-.327.371z"/><path d="M11.715 3.013c-.318.042-.641.038-.96.089-.613.097-1.2.292-1.773.527a9.505 9.505 0 00-.617.282c-.075.038-.19.068-.25.128-.032.03-.03.104-.033.146-.01.118-.025.235-.036.353-.043.454-.073.921-.01 1.375.02.147.065.413.24.44.27.044.48-.297.613-.485.31-.44.661-.85 1.169-1.046.597-.231 1.28-.286 1.913-.33 1.772-.125 3.71.207 5.016 1.548.186.19.362.393.511.615.585.87.894 1.857 1.043 2.895.07.488.118.98.01 1.466-.188.842-.681 1.575-1.247 2.199a9.879 9.879 0 01-1.278 1.164c-.253.195-.537.361-.776.575a3.194 3.194 0 00-.676.885c-.467.885-.592 1.951-.455 2.94.029.203.054.406.099.606.013.06.015.163.053.212.07.091.263.141.37.147.113.005.188-.083.216-.187.047-.177.019-.373-.009-.552-.056-.365-.107-.733-.091-1.104a2.82 2.82 0 01.75-1.818c.47-.505 1.104-.796 1.639-1.218 1.076-.852 2.041-2.002 2.412-3.37.132-.489.176-1.007.115-1.51-.076-.637-.303-1.274-.517-1.873-.651-1.828-1.77-3.567-3.544-4.403-.705-.332-1.442-.483-2.204-.592a11.126 11.126 0 00-1.076-.1c-.2-.008-.418-.031-.617-.004z"/><path d="M8.938 14.847c-.346.05-.447.335-.383.657.082.41.397.724.709.97a4.33 4.33 0 002.839.93c.392-.018.82-.084 1.18-.256.194-.091.396-.421.133-.563a.426.426 0 00-.123-.038c-.115-.02-.244.03-.353.063-.192.057-.384.115-.582.147a2.308 2.308 0 01-1.719-.4c-.396-.29-.716-.674-1.018-1.062-.184-.236-.35-.497-.683-.448zM8.488 16.855c-.088.012-.189.009-.264.066-.157.118.016.357.099.465.24.312.555.572.87.8a5.63 5.63 0 002.945 1.082c.308.022.621 0 .926-.053.11-.019.25-.027.352-.077.291-.14.207-.704-.053-.83-.113-.054-.295.018-.414.035-.281.04-.563.045-.846.038a4.766 4.766 0 01-2.178-.623 4.087 4.087 0 01-.705-.52c-.133-.12-.27-.316-.441-.376a.72.72 0 00-.29-.006zM8.665 18.548a.464.464 0 00-.303.177c-.057.065-.11.125-.143.208-.18.456.3.887.63 1.103.37.24.772.418 1.182.568.925.338 2.01.554 2.971.252.285-.09.568-.254.775-.476.117-.125.198-.314-.017-.394-.127-.047-.281.073-.397.12a3.27 3.27 0 01-.846.235c-.385.048-.731-.039-1.102-.134-.317-.081-.637-.163-.943-.28-.261-.1-.521-.218-.75-.384-.068-.05-.15-.094-.206-.159-.183-.211-.32-.459-.517-.66-.084-.086-.205-.191-.334-.176z"/></g><defs><clipPath id="aclip0_89_1693"><path transform="translate(8 3)" d="M0 0h11.7v18H0z"/></clipPath></defs></symbol><symbol viewBox="0 0 24 24" id="icon-telegram"><path fill-rule="evenodd" clip-rule="evenodd" d="M3.232 11.47c4.831-2.11 8.047-3.513 9.662-4.193C17.49 5.347 18.456 5.014 19.078 5c.138 0 .441.028.648.194.166.14.207.32.235.458.028.14.055.43.028.653-.249 2.638-1.326 9.038-1.878 11.98-.234 1.25-.69 1.667-1.131 1.708-.966.084-1.698-.638-2.623-1.249-1.463-.958-2.277-1.555-3.699-2.499-1.642-1.083-.58-1.68.359-2.652.248-.25 4.486-4.137 4.569-4.484.013-.041.013-.208-.083-.291-.097-.084-.235-.056-.345-.028-.152.028-2.47 1.583-6.984 4.65-.663.459-1.256.681-1.795.667-.593-.014-1.725-.333-2.58-.61-1.036-.334-1.864-.514-1.795-1.098.041-.305.455-.61 1.228-.93z"/></symbol><symbol viewBox="0 0 24 24" id="icon-tox"><path fill-rule="evenodd" clip-rule="evenodd" d="M12.121 2a4.972 4.972 0 014.973 4.972v2.873h2.155c.549 0 .994.445.994.995v10.166c0 .549-.445.994-.994.994H4.994A.994.994 0 014 21.006V10.84c0-.55.445-.995.994-.995H7.15V6.972A4.972 4.972 0 0112.121 2zm.79 8.03c-.252.06-.517.091-.79.091-1.8 0-3.26-1.385-3.26-3.093 0-1.71 1.46-3.094 3.26-3.094 1.504 0 2.77.965 3.146 2.279.69 2.079-1.195 4.472-3.035 5.566.332-.497.608-1.05.663-1.713l.016-.036zm1.365 8.71c0-1.263-.6-2.09-1.584-2.425a1.603 1.603 0 10-1.14 0c-.985.336-1.585 1.162-1.585 2.425 0 .442.387.774.829.774h2.652c.441 0 .828-.332.828-.774z"/></symbol></svg>