<?xml version="1.0" encoding="utf-8"?><svg xmlns="http://www.w3.org/2000/svg" xmlns:xlink="http://www.w3.org/1999/xlink"><symbol viewBox="0 0 20 20" id="icon-angle-down"><path d="M14.167 7.64a.834.834 0 00-1.175 0L10 10.59 7.05 7.64a.833.833 0 10-1.175 1.184l3.534 3.533a.833.833 0 001.183 0l3.575-3.533a.833.833 0 000-1.183z"/></symbol><symbol viewBox="0 0 16 16" id="icon-angle-right"><path d="M10.36 7.527L6.585 3.76a.667.667 0 10-.947.94l3.3 3.333-3.3 3.3a.667.667 0 00.217 1.088.666.666 0 00.513 0 .668.668 0 00.217-.148l3.773-3.766a.669.669 0 000-.98z"/></symbol><symbol viewBox="0 0 20 20" id="icon-arrow-left"><path d="M14.166 9.167H7.841l2.75-2.742a.837.837 0 00-1.183-1.183L5.241 9.408a.833.833 0 00-.175.275.833.833 0 000 .634c.04.102.1.195.175.275l4.167 4.166a.833.833 0 001.183 0 .832.832 0 000-1.183l-2.75-2.742h6.325a.833.833 0 000-1.666z"/></symbol><symbol viewBox="0 0 20 20" id="icon-arrow-right"><path d="M14.933 9.683a.832.832 0 00-.175-.275l-4.166-4.166a.837.837 0 00-1.184 1.183l2.75 2.742H5.833a.833.833 0 000 1.666h6.325l-2.75 2.742a.833.833 0 000 1.183.833.833 0 001.184 0l4.166-4.166a.832.832 0 00.175-.275.833.833 0 000-.634z"/></symbol><symbol viewBox="0 0 20 20" id="icon-check-circle"><path d="M12.266 7.324l-3.575 3.584-1.375-1.375a.833.833 0 10-1.175 1.175l1.958 1.966a.833.833 0 001.175 0l4.167-4.166a.833.833 0 10-1.175-1.184zM9.999 1.666a8.333 8.333 0 100 16.667 8.333 8.333 0 000-16.667zm0 15a6.667 6.667 0 110-13.334 6.667 6.667 0 010 13.334z"/></symbol><symbol viewBox="0 0 16 16" id="icon-chevron-bottom"><path fill-rule="evenodd" clip-rule="evenodd" d="M3.53 5.529c.26-.26.682-.26.942 0l3.529 3.528 3.528-3.528a.667.667 0 01.943.943l-4 4a.667.667 0 01-.943 0l-4-4a.667.667 0 010-.943z"/></symbol><symbol viewBox="0 0 16 16" id="icon-chevron-top"><path d="M12 10L8 6l-4 4"/></symbol><symbol viewBox="0 0 20 20" id="icon-close"><path d="M11.175 10l5.25-5.242a.837.837 0 00-1.184-1.183L10 8.825l-5.242-5.25a.837.837 0 00-1.183 1.183L8.825 10l-5.25 5.242a.834.834 0 00.27 1.366.833.833 0 00.913-.183L10 11.175l5.241 5.25a.833.833 0 001.184 0 .834.834 0 000-1.183L11.175 10z"/></symbol><symbol viewBox="0 0 25 24" id="icon-cloud"><path d="M12.548 3.016a31.66 31.66 0 01-.246.022 5.8 5.8 0 00-2.843 1.035 6.386 6.386 0 00-.9.796c-.29.304-.57.64-.736.914a9.509 9.509 0 01-.07.115 5.657 5.657 0 00-.439-.006 4.05 4.05 0 00-.655.058A3.517 3.517 0 004.7 7.205c-.57.739-.807 1.543-.755 2.519l.013.241-.03.025c-.459.386-.897.962-1.18 1.543-.905 1.852-.554 4.135.857 5.68.533.583 1.098.983 1.768 1.239.315.12.536.191.953.227.391.033.923.035 1 .035h.256c.167 0 .392 0 .66-.033a.826.826 0 00.446-.169.838.838 0 00.194-.264l.008-.014a.948.948 0 00-.294-1.246c-.154-.105-.335-.118-.586-.13-.283-.012-.261-.029-.704-.029h-.032c-.525 0-.557-.018-.86-.051-.254-.028-.338-.07-.593-.196l-.019-.009c-.85-.42-1.478-1.276-1.674-2.332a4.312 4.312 0 01-.034-.56c-.001-.97.448-1.846 1.264-2.439.197-.142.385-.306.481-.535.104-.246.072-.488.01-.706a3.877 3.877 0 01-.065-.364c-.106-.78.4-1.573 1.17-1.806.086-.026.236-.045.408-.045.171 0 .326.018.42.045.25.072.515.107.763.017.264-.095.428-.3.538-.529.498-1.035 1.414-1.859 2.438-2.204a4.083 4.083 0 012.578.021c.622.215 1.11.532 1.594 1.038.59.616.968 1.36 1.118 2.197.037.204.068.376.102.514.035.136.082.277.168.4.173.247.445.322.667.384l.042.011c.825.232 1.42.644 1.891 1.299.487.675.715 1.388.716 2.236a3.638 3.638 0 01-.914 2.453c-.5.564-.986.874-1.664 1.07-.2.059-.57.09-.903.09-.333 0-.806.023-.806.023l-.046.013a.73.73 0 00-.443.319c-.128.206-.126.45-.126.56v.02c0 .166.025.34.11.498a.84.84 0 00.372.352c.071.036.15.048.177.052h.003c.044.007.095.012.149.017.109.009.25.016.41.022h.146s.125.004.26 0c.348-.01.659-.027.814-.056 1.036-.186 1.973-.704 2.743-1.506 1.181-1.231 1.759-3.013 1.515-4.693-.303-2.085-1.688-3.852-3.555-4.48l-.034-.01-.003-.017a7.235 7.235 0 00-.186-.7c-.646-2.036-2.324-3.606-4.368-4.082a8.474 8.474 0 00-.743-.112A10.653 10.653 0 0012.777 3h-.066c-.011 0-.04 0-.073.006l-.014.002a7.928 7.928 0 01-.076.007z"/><path fill-rule="evenodd" clip-rule="evenodd" d="M16.742 14.841a.95.95 0 01-1.36 0l-3.166-3.223-3.166 3.223a.95.95 0 01-1.36 0 .991.991 0 010-1.384l3.846-3.915a.95.95 0 011.36 0l3.846 3.915a.991.991 0 010 1.384z"/><path fill-rule="evenodd" clip-rule="evenodd" d="M12.216 21a.97.97 0 01-.961-.979v-9.787c0-.54.43-.979.961-.979a.97.97 0 01.962.98v9.786a.97.97 0 01-.962.979z"/></symbol><symbol viewBox="0 0 20 20" id="icon-copy"><g clip-path="url(#ajclip0_457_22808)"><path d="M2.861 2.862a.667.667 0 01.472-.196h7.5a.667.667 0 01.666.667v.833a1 1 0 002 0v-.833A2.667 2.667 0 0010.833.667h-7.5A2.667 2.667 0 00.666 3.333v7.5A2.667 2.667 0 003.333 13.5h.833a1 1 0 100-2h-.833a.667.667 0 01-.667-.667v-7.5c0-.177.07-.346.195-.471z"/><path fill-rule="evenodd" clip-rule="evenodd" d="M9.167 6.5A2.667 2.667 0 006.5 9.167v7.5a2.667 2.667 0 002.667 2.666h7.5a2.667 2.667 0 002.666-2.666v-7.5A2.667 2.667 0 0016.667 6.5h-7.5zM8.5 9.167c0-.369.298-.667.667-.667h7.5c.368 0 .666.298.666.667v7.5a.667.667 0 01-.666.666h-7.5a.667.667 0 01-.667-.666v-7.5z"/></g><defs><clipPath id="ajclip0_457_22808"><path d="M0 0h20v20H0z"/></clipPath></defs></symbol><symbol viewBox="0 0 24 24" id="icon-download"><path d="M8.29 13.29a1 1 0 000 1.42l3 3a1.002 1.002 0 001.42 0l3-3a1.004 1.004 0 10-1.42-1.42L13 14.59V3a1 1 0 00-2 0v11.59l-1.29-1.3a1 1 0 00-1.42 0zM18 9h-2a1 1 0 100 2h2a1 1 0 011 1v7a1 1 0 01-1 1H6a1 1 0 01-1-1v-7a1 1 0 011-1h2a1 1 0 000-2H6a3 3 0 00-3 3v7a3 3 0 003 3h12a3 3 0 003-3v-7a3 3 0 00-3-3z"/></symbol><symbol viewBox="0 0 20 20" id="icon-error"><path d="M10 1.666a8.333 8.333 0 100 16.667 8.333 8.333 0 000-16.667zm0 15a6.667 6.667 0 110-13.334 6.667 6.667 0 010 13.334z"/><path d="M9.41 6.077a.833.833 0 011.423.589v3.333a.833.833 0 11-1.667 0V6.666c0-.221.088-.433.244-.59zM9.536 12.64a.833.833 0 11.926 1.385.833.833 0 01-.926-1.385z"/></symbol><symbol viewBox="0 0 20 20" id="icon-exit"><path d="M3.334 10a.833.833 0 00.833.833h6.325l-1.916 1.909a.832.832 0 000 1.183.833.833 0 001.183 0l3.333-3.333a.832.832 0 00.175-.275.833.833 0 000-.634.832.832 0 00-.175-.275L9.76 6.075a.837.837 0 10-1.183 1.183l1.916 1.909H4.167a.833.833 0 00-.833.833zm10.833-8.333H5.834a2.5 2.5 0 00-2.5 2.5v2.5a.833.833 0 101.667 0v-2.5a.833.833 0 01.833-.834h8.333a.833.833 0 01.834.834v11.666a.833.833 0 01-.834.834H5.834a.833.833 0 01-.833-.834v-2.5a.833.833 0 00-1.667 0v2.5a2.5 2.5 0 002.5 2.5h8.333a2.5 2.5 0 002.5-2.5V4.167a2.5 2.5 0 00-2.5-2.5z"/></symbol><symbol viewBox="0 0 21 20" id="icon-file"><path d="M17.167 7.45a1.09 1.09 0 00-.05-.225V7.15a.89.89 0 00-.158-.233l-5-5a.893.893 0 00-.233-.158h-.075l-.267-.092h-5.05a2.5 2.5 0 00-2.5 2.5v11.667a2.5 2.5 0 002.5 2.5h8.333a2.5 2.5 0 002.5-2.5V7.5v-.05zm-5-2.941l2.159 2.158h-2.159V4.509zm3.334 11.325a.833.833 0 01-.834.833H6.334a.833.833 0 01-.833-.833V4.167a.833.833 0 01.833-.833h4.167V7.5a.833.833 0 00.833.834h4.167v7.5z"/></symbol><symbol viewBox="0 0 21 20" id="icon-file-check"><path d="M10.084 16.667h-5a.833.833 0 01-.833-.833V4.167a.833.833 0 01.833-.833h4.167v2.5a2.5 2.5 0 002.5 2.5h2.5V12.5a.833.833 0 101.666 0v-5-.05a1.09 1.09 0 00-.05-.225V7.15a.89.89 0 00-.158-.233l-5-5a.893.893 0 00-.233-.158.242.242 0 00-.084 0 .917.917 0 00-.258-.092h-5.05a2.5 2.5 0 00-2.5 2.5v11.667a2.5 2.5 0 002.5 2.5h5a.833.833 0 100-1.667zm.833-12.158l2.159 2.158H11.75a.833.833 0 01-.834-.833V4.509zm-4.166 7.158h5a.833.833 0 000-1.667h-5a.833.833 0 100 1.667zm3.333 1.667H6.751a.834.834 0 000 1.666h3.333a.833.833 0 100-1.666zm-3.333-5h.833a.833.833 0 100-1.667h-.833a.833.833 0 000 1.667zm11.425 5.241a.834.834 0 00-1.184 0l-2.741 2.75-1.075-1.083a.838.838 0 00-1.184 1.183l1.667 1.667a.833.833 0 001.183 0l3.334-3.333a.834.834 0 000-1.184z"/></symbol><symbol viewBox="0 0 21 20" id="icon-file-text"><path fill-rule="evenodd" clip-rule="evenodd" d="M3.732 1.565A2.5 2.5 0 015.5.833h6.667c.22 0 .433.088.589.244l5 5a.833.833 0 01.244.59v10a2.5 2.5 0 01-2.5 2.5h-10a2.5 2.5 0 01-2.5-2.5V3.332a2.5 2.5 0 01.732-1.768zM5.5 2.5a.833.833 0 00-.833.833v13.333a.833.833 0 00.833.834h10a.833.833 0 00.833-.834V7.012L11.822 2.5H5.5z"/><path fill-rule="evenodd" clip-rule="evenodd" d="M6.333 14.166c0-.46.373-.833.834-.833h6.666a.833.833 0 110 1.667H7.167a.833.833 0 01-.834-.834zM6.333 10.833c0-.46.373-.833.834-.833h6.666a.833.833 0 110 1.666H7.167a.833.833 0 01-.834-.833zM6.333 7.5c0-.46.373-.834.834-.834h1.666a.833.833 0 110 1.667H7.167a.833.833 0 01-.834-.833zM12.167.833c.46 0 .833.373.833.833v4.167h4.167a.833.833 0 010 1.667h-5a.833.833 0 01-.834-.834v-5c0-.46.373-.833.834-.833z"/></symbol><symbol viewBox="0 0 20 20" id="icon-focus"><path d="M6.666 1.666H2.499a.833.833 0 00-.833.833v4.167a.833.833 0 101.667 0V3.333h3.333a.833.833 0 100-1.667zm0 15H3.333v-3.333a.833.833 0 00-1.667 0v4.166a.833.833 0 00.833.834h4.167a.833.833 0 100-1.667zm10.833-15h-4.166a.833.833 0 000 1.667h3.333v3.333a.833.833 0 101.667 0V2.499a.833.833 0 00-.834-.833zm0 10.833a.833.833 0 00-.833.834v3.333h-3.333a.833.833 0 000 1.667h4.166a.833.833 0 00.834-.834v-4.166a.833.833 0 00-.834-.834z"/></symbol><symbol viewBox="0 0 24 24" id="icon-jabber"><g clip-path="url(#arclip0_89_1693)"><path d="M12.094 11.803c0-.263-.047-.549-.196-.77-.298-.44-.937-.58-1.382-.303-.225.141-.35.387-.42.639-.14.5-.077 1.071.021 1.574.032.16.064.322.108.48.016.056.023.14.06.187.062.082.216.106.31.09.283-.049.213-.527.203-.73-.022-.476-.159-.938-.027-1.411.056-.2.165-.426.362-.513.178-.079.357.018.428.196.114.289.085.622.157.923.024.102.051.203.096.298.013.028.03.085.069.082.091-.009.221-.166.29-.224.222-.188.45-.39.706-.529.12-.066.317-.172.44-.06a.457.457 0 01.08.098c.143.232 0 .413-.094.633-.121.286-.246.569-.422.824-.15.22-.358.412-.478.651a.784.784 0 00-.09.498c.026.14.132.226.272.193.105-.025.176-.117.236-.202.106-.152.205-.31.311-.461.205-.295.446-.57.618-.887a2.61 2.61 0 00.308-1.249c0-.355-.126-.898-.53-.973a.695.695 0 00-.237.007 1.027 1.027 0 00-.274.09c-.229.115-.427.285-.598.478-.106.12-.2.272-.327.371z"/><path d="M11.715 3.013c-.318.042-.641.038-.96.089-.613.097-1.2.292-1.773.527a9.505 9.505 0 00-.617.282c-.075.038-.19.068-.25.128-.032.03-.03.104-.033.146-.01.118-.025.235-.036.353-.043.454-.073.921-.01 1.375.02.147.065.413.24.44.27.044.48-.297.613-.485.31-.44.661-.85 1.169-1.046.597-.231 1.28-.286 1.913-.33 1.772-.125 3.71.207 5.016 1.548.186.19.362.393.511.615.585.87.894 1.857 1.043 2.895.07.488.118.98.01 1.466-.188.842-.681 1.575-1.247 2.199a9.879 9.879 0 01-1.278 1.164c-.253.195-.537.361-.776.575a3.194 3.194 0 00-.676.885c-.467.885-.592 1.951-.455 2.94.029.203.054.406.099.606.013.06.015.163.053.212.07.091.263.141.37.147.113.005.188-.083.216-.187.047-.177.019-.373-.009-.552-.056-.365-.107-.733-.091-1.104a2.82 2.82 0 01.75-1.818c.47-.505 1.104-.796 1.639-1.218 1.076-.852 2.041-2.002 2.412-3.37.132-.489.176-1.007.115-1.51-.076-.637-.303-1.274-.517-1.873-.651-1.828-1.77-3.567-3.544-4.403-.705-.332-1.442-.483-2.204-.592a11.126 11.126 0 00-1.076-.1c-.2-.008-.418-.031-.617-.004z"/><path d="M8.938 14.847c-.346.05-.447.335-.383.657.082.41.397.724.709.97a4.33 4.33 0 002.839.93c.392-.018.82-.084 1.18-.256.194-.091.396-.421.133-.563a.426.426 0 00-.123-.038c-.115-.02-.244.03-.353.063-.192.057-.384.115-.582.147a2.308 2.308 0 01-1.719-.4c-.396-.29-.716-.674-1.018-1.062-.184-.236-.35-.497-.683-.448zM8.488 16.855c-.088.012-.189.009-.264.066-.157.118.016.357.099.465.24.312.555.572.87.8a5.63 5.63 0 002.945 1.082c.308.022.621 0 .926-.053.11-.019.25-.027.352-.077.291-.14.207-.704-.053-.83-.113-.054-.295.018-.414.035-.281.04-.563.045-.846.038a4.766 4.766 0 01-2.178-.623 4.087 4.087 0 01-.705-.52c-.133-.12-.27-.316-.441-.376a.72.72 0 00-.29-.006zM8.665 18.548a.464.464 0 00-.303.177c-.057.065-.11.125-.143.208-.18.456.3.887.63 1.103.37.24.772.418 1.182.568.925.338 2.01.554 2.971.252.285-.09.568-.254.775-.476.117-.125.198-.314-.017-.394-.127-.047-.281.073-.397.12a3.27 3.27 0 01-.846.235c-.385.048-.731-.039-1.102-.134-.317-.081-.637-.163-.943-.28-.261-.1-.521-.218-.75-.384-.068-.05-.15-.094-.206-.159-.183-.211-.32-.459-.517-.66-.084-.086-.205-.191-.334-.176z"/></g><defs><clipPath id="arclip0_89_1693"><path transform="translate(8 3)" d="M0 0h11.7v18H0z"/></clipPath></defs></symbol><symbol viewBox="0 0 20 20" id="icon-link"><path d="M10.09 12.825L6.859 16.06a2.1 2.1 0 01-2.917 0 2.059 2.059 0 010-2.917l3.233-3.233a.837.837 0 10-1.183-1.184l-3.233 3.242a3.733 3.733 0 005.275 5.275l3.241-3.233a.837.837 0 00-1.183-1.184zM17.24 2.76a3.742 3.742 0 00-5.274 0L8.724 5.992a.837.837 0 101.184 1.183l3.233-3.233a2.1 2.1 0 012.917 0 2.058 2.058 0 010 2.917l-3.234 3.233a.833.833 0 000 1.183.835.835 0 001.184 0l3.233-3.241a3.742 3.742 0 000-5.275zm-9.882 9.883a.834.834 0 00.591.242.833.833 0 00.592-.242l4.1-4.1a.837.837 0 10-1.184-1.183l-4.1 4.1a.832.832 0 000 1.183z"/></symbol><symbol viewBox="0 0 24 24" id="icon-moon"><path d="M21.64 13a1 1 0 00-1.05-.14 8.05 8.05 0 01-3.37.73 8.15 8.15 0 01-8.14-8.1 8.59 8.59 0 01.25-2A1 1 0 008 2.36a10.14 10.14 0 1014 11.69 1 1 0 00-.36-1.05zm-9.5 6.69A8.14 8.14 0 017.08 5.22v.27a10.15 10.15 0 0012.24 9.92 8.11 8.11 0 01-7.18 4.32v-.04z"/></symbol><symbol viewBox="0 0 20 20" id="icon-off"><path d="M13.833 3.5c-.416-.25-.916-.084-1.166.333-.25.416-.084.916.333 1.166 1.75 1.084 2.917 3 2.917 5a5.798 5.798 0 01-5.834 5.834A5.797 5.797 0 014.25 9.999c0-2.083 1.167-4 2.917-5.083.333-.25.5-.75.25-1.083-.25-.417-.75-.584-1.167-.334C3.917 4.833 2.5 7.333 2.5 10c0 4.167 3.333 7.5 7.5 7.5s7.5-3.333 7.5-7.5c0-2.666-1.417-5.083-3.667-6.5z"/><path d="M10 10.833c.5 0 .833-.334.833-.834V2.5c0-.5-.333-.833-.833-.833-.5 0-.833.333-.833.833V10c0 .5.333.834.833.834z"/></symbol><symbol viewBox="0 0 20 20" id="icon-pause"><path d="M13.333 1.666a2.5 2.5 0 00-2.5 2.5v11.667a2.5 2.5 0 005 0V4.166a2.5 2.5 0 00-2.5-2.5zm.833 14.167a.833.833 0 11-1.667 0V4.166a.833.833 0 111.667 0v11.667zm-7.5-14.167a2.5 2.5 0 00-2.5 2.5v11.667a2.5 2.5 0 005 0V4.166a2.5 2.5 0 00-2.5-2.5zm.833 14.167a.833.833 0 11-1.666 0V4.166a.833.833 0 111.666 0v11.667z"/></symbol><symbol viewBox="0 0 20 20" id="icon-preset"><path fill-rule="evenodd" clip-rule="evenodd" d="M8.333 1.771A3.647 3.647 0 004.76 4.688H1.667a.73.73 0 100 1.458H4.76a3.647 3.647 0 007.146 0h6.427a.73.73 0 000-1.458h-6.427A3.647 3.647 0 008.333 1.77zM6.146 5.417a2.187 2.187 0 114.375 0 2.187 2.187 0 01-4.375 0zM11.667 10.938a3.647 3.647 0 00-3.573 2.916H1.667a.73.73 0 000 1.459h6.427a3.647 3.647 0 007.146 0h3.093a.73.73 0 000-1.459H15.24a3.647 3.647 0 00-3.573-2.916zm-2.188 3.646a2.188 2.188 0 114.375 0 2.188 2.188 0 01-4.375 0z"/></symbol><symbol viewBox="0 0 20 20" id="icon-report"><g clip-path="url(#axclip0_448_18364)"><path d="M11.667 7.5H8.334a.833.833 0 00-.833.834v10a.833.833 0 00.833.833h3.333a.833.833 0 00.834-.833v-10a.833.833 0 00-.834-.833zm-.833 10H9.167V9.168h1.667v8.334zm7.5-16.666h-3.333a.833.833 0 00-.834.833v16.667a.833.833 0 00.834.833h3.333a.833.833 0 00.833-.833V1.667a.833.833 0 00-.833-.833zm-.833 16.667h-1.667v-15h1.667v15zM5 12.5H1.667a.833.833 0 00-.833.833v5a.833.833 0 00.833.833h3.334a.833.833 0 00.833-.833v-5a.833.833 0 00-.833-.833zm-.834 5H2.501v-3.334h1.666v3.334z"/></g><defs><clipPath id="axclip0_448_18364"><path d="M0 0h20v20H0z"/></clipPath></defs></symbol><symbol viewBox="0 0 21 20" id="icon-results"><path d="M19.055 2.023a1.707 1.707 0 00-1.732-.27L2.389 7.781a1.702 1.702 0 00.087 3.182l3.02 1.05 1.684 5.569a.834.834 0 00.099.21c.006.01.016.017.022.027a.82.82 0 00.235.221c.079.053.167.091.259.114h.01l.005.003a.85.85 0 00.169.017l.015-.003a.827.827 0 00.251-.043c.02-.007.035-.017.053-.025a.829.829 0 00.17-.096l.128-.107 2.251-2.486 3.359 2.602c.296.23.66.355 1.034.356a1.712 1.712 0 001.673-1.36l2.72-13.348a1.692 1.692 0 00-.578-1.642zM8.309 12.28a.828.828 0 00-.227.421l-.258 1.254-.653-2.161 3.388-1.764-2.25 2.25zm6.918 4.42l-3.969-3.075a.834.834 0 00-1.128.1l-.72.795.254-1.238 5.903-5.903a.833.833 0 00-.975-1.328l-8.47 4.41-3.104-1.135L18 3.332 15.227 16.7z"/></symbol><symbol viewBox="0 0 20 20" id="icon-save"><path d="M17.258 7.742l-5-5a.833.833 0 00-.266-.175.909.909 0 00-.325-.067H5A2.5 2.5 0 002.5 5v10A2.5 2.5 0 005 17.5h10a2.5 2.5 0 002.5-2.5V8.333a.833.833 0 00-.242-.591zM7.5 4.167h3.333v1.666H7.5V4.167zm5 11.666h-5v-2.5a.833.833 0 01.833-.833h3.334a.833.833 0 01.833.833v2.5zM15.833 15a.834.834 0 01-.833.833h-.833v-2.5a2.5 2.5 0 00-2.5-2.5H8.333a2.5 2.5 0 00-2.5 2.5v2.5H5A.834.834 0 014.167 15V5A.833.833 0 015 4.167h.833v2.5a.833.833 0 00.834.833h5a.833.833 0 00.833-.833V5.342l3.333 3.333V15z"/></symbol><symbol viewBox="0 0 20 20" id="icon-settings"><path d="M16.583 10.55a.833.833 0 010-1.1l1.067-1.2a.833.833 0 00.1-.975l-1.667-2.883a.833.833 0 00-.892-.4l-1.566.316a.833.833 0 01-.959-.55l-.508-1.525a.833.833 0 00-.792-.566H8.033a.833.833 0 00-.833.566l-.467 1.525a.833.833 0 01-.958.55l-1.609-.316a.833.833 0 00-.833.4L1.666 7.275a.833.833 0 00.084.975l1.058 1.2a.833.833 0 010 1.1l-1.058 1.2a.834.834 0 00-.084.975l1.667 2.883a.834.834 0 00.892.4l1.566-.316a.833.833 0 01.959.55l.508 1.525a.833.833 0 00.833.566h3.334a.832.832 0 00.791-.566l.509-1.525a.833.833 0 01.958-.55l1.567.316a.833.833 0 00.891-.4l1.667-2.883a.834.834 0 00-.1-.975l-1.125-1.2zm-1.242 1.117l.667.75-1.067 1.85-.983-.2a2.5 2.5 0 00-2.875 1.666l-.317.934H8.633l-.3-.95a2.5 2.5 0 00-2.875-1.667l-.983.2-1.084-1.842.667-.75a2.5 2.5 0 000-3.333l-.667-.75 1.067-1.833.983.2a2.5 2.5 0 002.875-1.667l.317-.942h2.133l.317.95a2.5 2.5 0 002.875 1.667l.983-.2 1.067 1.85-.667.75a2.5 2.5 0 000 3.317zm-5.641-5a3.333 3.333 0 100 6.666 3.333 3.333 0 000-6.666zm0 5a1.667 1.667 0 110-3.334 1.667 1.667 0 010 3.334z"/></symbol><symbol viewBox="0 0 24 24" id="icon-telegram"><path fill-rule="evenodd" clip-rule="evenodd" d="M3.232 11.47c4.831-2.11 8.047-3.513 9.662-4.193C17.49 5.347 18.456 5.014 19.078 5c.138 0 .441.028.648.194.166.14.207.32.235.458.028.14.055.43.028.653-.249 2.638-1.326 9.038-1.878 11.98-.234 1.25-.69 1.667-1.131 1.708-.966.084-1.698-.638-2.623-1.249-1.463-.958-2.277-1.555-3.699-2.499-1.642-1.083-.58-1.68.359-2.652.248-.25 4.486-4.137 4.569-4.484.013-.041.013-.208-.083-.291-.097-.084-.235-.056-.345-.028-.152.028-2.47 1.583-6.984 4.65-.663.459-1.256.681-1.795.667-.593-.014-1.725-.333-2.58-.61-1.036-.334-1.864-.514-1.795-1.098.041-.305.455-.61 1.228-.93z"/></symbol><symbol viewBox="0 0 24 24" id="icon-tox"><path fill-rule="evenodd" clip-rule="evenodd" d="M12.121 2a4.972 4.972 0 014.973 4.972v2.873h2.155c.549 0 .994.445.994.995v10.166c0 .549-.445.994-.994.994H4.994A.994.994 0 014 21.006V10.84c0-.55.445-.995.994-.995H7.15V6.972A4.972 4.972 0 0112.121 2zm.79 8.03c-.252.06-.517.091-.79.091-1.8 0-3.26-1.385-3.26-3.093 0-1.71 1.46-3.094 3.26-3.094 1.504 0 2.77.965 3.146 2.279.69 2.079-1.195 4.472-3.035 5.566.332-.497.608-1.05.663-1.713l.016-.036zm1.365 8.71c0-1.263-.6-2.09-1.584-2.425a1.603 1.603 0 10-1.14 0c-.985.336-1.585 1.162-1.585 2.425 0 .442.387.774.829.774h2.652c.441 0 .828-.332.828-.774z"/></symbol><symbol viewBox="0 0 20 20" id="icon-trash"><path d="M8.333 15a.834.834 0 00.834-.834v-5a.833.833 0 00-1.667 0v5a.833.833 0 00.833.834zm8.334-10h-3.334v-.833a2.5 2.5 0 00-2.5-2.5H9.167a2.5 2.5 0 00-2.5 2.5V5H3.333a.833.833 0 000 1.667h.834v9.166a2.5 2.5 0 002.5 2.5h6.666a2.5 2.5 0 002.5-2.5V6.667h.834a.833.833 0 000-1.667zm-8.334-.833a.833.833 0 01.834-.834h1.666a.833.833 0 01.834.833V5H8.333v-.833zm5.834 11.666a.833.833 0 01-.834.833H6.667a.833.833 0 01-.834-.833V6.667h8.334v9.166zm-2.5-.833a.834.834 0 00.833-.834v-5a.833.833 0 10-1.667 0v5a.833.833 0 00.834.834z"/></symbol><symbol viewBox="0 0 25 24" id="icon-upload"><path d="M9.46 7.71l2.29-2.3V15a1 1 0 002 0V5.41l2.29 2.3a1.001 1.001 0 001.639-.326 1 1 0 00-.219-1.094l-4-4a1 1 0 00-.33-.21 1 1 0 00-.76 0 1 1 0 00-.33.21l-4 4a1.004 1.004 0 101.42 1.42zM21.75 12a1 1 0 00-1 1v6a1 1 0 01-1 1h-14a1 1 0 01-1-1v-6a1 1 0 10-2 0v6a3 3 0 003 3h14a3 3 0 003-3v-6a1 1 0 00-1-1z"/></symbol><symbol viewBox="0 0 20 20" id="icon-user"><path d="M13.092 10.592a5 5 0 10-6.183 0 8.333 8.333 0 00-5.183 6.816.838.838 0 001.666.184 6.667 6.667 0 0113.25 0 .833.833 0 00.834.741h.091a.833.833 0 00.734-.916 8.334 8.334 0 00-5.209-6.825zM10.001 10a3.333 3.333 0 110-6.667A3.333 3.333 0 0110 10z"/></symbol><symbol viewBox="0 0 24 24" id="icon-wallet"><path d="M19 7h-1V6a3 3 0 00-3-3H5a3 3 0 00-3 3v12a3 3 0 003 3h14a3 3 0 003-3v-8a3 3 0 00-3-3zM5 5h10a1 1 0 011 1v1H5a1 1 0 010-2zm15 10h-1a1 1 0 010-2h1v2zm0-4h-1a3 3 0 000 6h1v1a1 1 0 01-1 1H5a1 1 0 01-1-1V8.83A3 3 0 005 9h14a1 1 0 011 1v1z"/></symbol></svg>