<svg width="321" height="313" viewBox="0 0 321 313" fill="none" xmlns="http://www.w3.org/2000/svg">
<path d="M123.918 162.627L127.575 135.169L95.8506 113.164L124.837 122.974L131.683 112.48L156.679 96.9822L211.778 127.313L214.633 173.591L190.086 207.674L170.684 210.644L180.718 192.293V174.626L173.422 160.829L166.009 155.924L154.606 167.669V180.099L145.707 188.424L134.402 189.792L129.394 192.626L121.18 190.007L117.757 177.695L123.918 169.037V162.627Z" fill="white"/>
<path d="M174.576 112.929C168.533 111.678 161.922 112.011 161.922 112.011C161.922 112.011 159.751 122.036 146.294 124.675C146.392 124.675 164.073 130.713 174.576 112.929Z" fill="#A4A4A4"/>
<path d="M180.053 203.902C187.349 198.195 192.825 190.339 195.348 181.447C195.466 181.114 196.483 180.528 197.167 180.079C198.302 179.395 199.456 178.828 199.671 177.909C200.121 175.291 200.356 172.555 200.356 169.819C200.356 168.802 199.319 167.767 198.302 166.75C197.5 166.066 196.698 165.265 196.698 164.698C195.564 154.321 190.772 144.628 183.124 137.573L182.322 138.374C189.735 145.331 194.527 154.79 195.564 164.816C195.681 165.734 196.581 166.633 197.5 167.552C198.302 168.236 199.221 169.271 199.221 169.721C199.221 172.34 198.986 174.958 198.537 177.577C198.419 178.027 197.402 178.496 196.6 178.945C195.466 179.512 194.429 180.079 194.214 180.997C191.476 190.691 185.197 199.133 176.865 204.605C178.351 201.42 183.026 191.042 185.53 185.785L185.08 168.92L170.587 154.907L162.372 156.041L153.355 170.639C153.355 170.639 157.58 175.994 151.634 182.268C145.825 188.424 141.248 189.792 141.248 189.792L137.023 187.505C138.275 185.903 140.798 183.518 142.734 181.916C146.04 179.18 149.345 178.945 149.345 175.994C149.482 169.819 142.852 171.519 142.852 171.519L140.446 173.805L139.429 182.248L134.422 188.521L133.854 188.404L125.64 186.587C125.64 186.587 130.666 183.968 131.468 180.997C132.27 178.144 129.864 168.685 129.747 168.118C129.864 168.236 132.153 170.17 133.17 173.356C134.989 168.333 137.395 163.545 138.079 163.096C138.764 162.646 147.996 157.741 147.996 157.741L144.925 165.832L147.213 164.581L152.69 151.136C152.69 151.136 158.049 148.517 162.039 148.517C169.217 148.399 179.838 139.625 175.046 123.893C176.415 124.459 200.14 136.322 204.248 159.578C207.319 177.46 197.167 194.208 180.053 203.902Z" fill="#A4A4A4"/>
<path d="M152.905 115.431C155.526 112.343 154.509 107.79 154.509 107.79L146.861 119.085C146.744 119.085 149.58 119.203 152.905 115.431Z" fill="#3C3C3C"/>
<path d="M127.223 177.108L128.142 172.555C128.142 172.555 124.367 179.16 124.035 180.079C123.683 181.115 124.27 182.932 125.737 182.815C127.223 182.698 129.042 180.528 129.042 178.945C129.042 176.893 127.223 177.108 127.223 177.108Z" fill="#3C3C3C"/>
<path d="M194.996 104.604C194.996 104.604 200.707 104.838 206.633 105.522C193.274 95.0278 180.62 91.9596 170.351 91.9596C156.21 91.9596 146.626 97.7834 146.039 98.1156L150.499 91.0411C150.499 91.0411 132.7 89.3213 126.421 108.141C124.817 104.154 123.351 98.3306 123.351 98.3306C123.351 98.3306 114.099 106.441 118.441 119.887C107.821 116.017 92.6622 110.643 92.0755 110.545C91.2735 110.428 91.0388 110.779 91.0388 110.779C91.0388 110.779 90.8041 111.112 91.4887 111.698C92.76 112.695 116.72 130.381 121.981 133.801C120.847 137.905 120.847 139.84 121.981 141.775C123.585 144.393 123.683 145.761 123.468 147.696C123.233 149.631 121.179 166.399 120.73 168.451C120.28 170.503 115.488 177.792 115.703 179.962C115.938 182.131 118.891 191.355 121.532 192.391C123.468 193.075 128.26 194.56 131.448 194.56C132.582 194.56 133.619 194.326 134.069 193.876C136.005 192.176 136.572 191.824 137.942 191.824C138.059 191.824 138.176 191.824 138.274 191.824C138.841 191.824 139.526 191.942 140.328 191.942C142.147 191.942 144.553 191.59 146.254 190.007C148.758 187.505 153.1 184.085 154.469 182.483C156.19 180.313 157.09 177.362 156.64 174.392C156.288 171.656 157.775 169.252 159.496 166.868C161.667 164.015 165.657 158.894 165.657 158.894C173.539 164.796 178.449 173.806 178.449 183.831C178.449 201.615 162.938 215.979 143.77 215.979C140.797 215.979 137.961 215.647 135.106 214.963C143.888 218.031 151.301 219.067 157.364 219.067C170.253 219.067 177.099 214.396 177.099 214.396C177.099 214.396 174.713 217.484 170.821 221.002C170.938 221.002 170.938 221.002 170.938 221.002C192.277 218.031 202.663 200.482 202.663 200.482C202.663 200.482 201.861 206.188 200.844 210.058C229.224 188.737 224.432 162.06 224.315 161.161C224.549 161.494 227.405 164.914 228.872 166.751C233.449 119.769 194.996 104.604 194.996 104.604ZM151.301 179.629C150.851 180.196 148.914 181.916 147.545 183.167C146.176 184.417 144.69 185.668 143.555 186.821C143.105 187.271 142.186 187.505 140.817 187.505C140.367 187.505 139.898 187.505 139.565 187.505C139.33 187.505 139.115 187.505 138.88 187.505C138.646 187.505 138.528 187.505 138.431 187.505C138.079 187.505 137.746 187.505 137.394 187.505C139.115 185.219 144.122 179.981 145.844 178.848C147.897 177.48 148.934 176.112 147.663 173.727C146.411 171.324 143.105 171.91 143.105 171.91C143.105 171.91 145.042 171.109 146.763 171.109C144.592 170.542 141.853 171.109 140.602 172.359C139.233 173.61 139.467 178.066 138.9 180.9C138.333 183.87 136.396 185.356 133.423 188.092C131.82 189.577 130.685 190.026 129.766 190.026C127.83 189.694 125.541 189.108 123.937 188.541C122.803 187.056 121.082 182.151 120.632 180.098C120.964 178.965 122.333 176.561 123.018 175.193C124.387 172.574 125.189 171.089 125.424 169.721C125.874 167.786 127.36 155.807 127.927 150.804C129.414 152.738 131.468 155.943 130.998 157.995C134.304 153.325 131.917 148.752 130.763 146.934C129.746 145.117 128.377 141.462 129.512 137.592C130.646 133.723 134.753 122.994 134.753 122.994C134.753 122.994 136.123 125.398 138.059 124.929C139.995 124.479 155.623 100.988 155.623 100.988C155.623 100.988 159.848 110.213 155.388 116.955C150.831 123.678 146.372 124.929 146.372 124.929C146.372 124.929 152.65 126.062 158.459 121.841C160.845 127.43 163.134 133.234 163.251 134.036C162.899 134.837 158.342 145.781 157.892 146.465C157.657 146.7 156.073 147.149 154.919 147.384C152.983 147.95 151.848 148.302 151.379 148.634C150.577 149.318 146.919 159.344 145.218 164.249C143.164 164.816 141.11 165.969 139.624 168.236C140.426 167.669 142.929 167.317 144.768 167.102C146.372 166.985 151.261 169.604 152.533 174.509C152.533 174.626 152.533 174.626 152.533 174.744C152.787 176.542 152.22 178.261 151.301 179.629ZM140.582 180.997C141.619 179.512 141.501 177.011 141.619 176.209C141.736 175.408 141.951 173.923 142.871 173.708C143.79 173.473 145.961 173.825 145.961 175.408C145.961 176.893 144.357 177.226 143.223 178.261C142.401 179.043 140.797 180.763 140.582 180.997ZM186.096 159.207C187.231 153.403 187.348 148.38 187.015 144.276C191.455 150.198 194.194 157.39 194.996 164.796C195.113 165.715 196.013 166.614 196.932 167.532C197.734 168.216 198.653 169.135 198.653 169.702C198.653 172.32 198.418 174.939 197.969 177.577C197.851 177.91 196.834 178.496 196.032 178.945C194.898 179.512 193.861 180.079 193.646 180.997C191.142 189.772 185.764 197.531 178.585 203.003C189.187 191.942 194.311 173.688 186.096 159.207ZM178.918 204.019C186.331 198.313 192.042 190.339 194.546 181.33C194.663 180.997 195.68 180.411 196.365 179.962C197.499 179.395 198.653 178.711 198.868 177.792C199.318 175.174 199.553 172.438 199.553 169.702C199.553 168.685 198.516 167.65 197.499 166.633C196.932 165.949 196.013 165.148 196.013 164.581C195.093 156.256 191.788 148.4 186.663 141.892C184.375 128.212 175.26 123.991 175.026 123.873C175.26 124.225 181.187 132.765 177.079 142.791C172.855 152.934 162.019 151.351 161.1 151.448C160.18 151.448 156.66 156.002 152.2 164.445C151.633 164.21 149.227 163.643 146.489 164.112C148.543 158.406 151.633 150.315 152.2 149.631C152.435 149.396 154.137 148.947 155.291 148.615C157.462 148.048 158.479 147.696 158.831 147.247C159.065 146.895 160.2 144.276 161.334 141.54C162.371 141.54 164.992 141.306 165.207 141.188C165.442 140.954 167.613 135.384 167.613 134.7C167.613 134.133 163.153 123.072 161.452 118.851C162.254 117.932 163.056 116.799 163.838 115.548C187.231 118.069 205.499 137.905 205.499 161.943C205.499 180.411 194.663 196.495 178.918 204.019Z" fill="#3C3C3C"/>
<path d="M148.563 142.459C150.734 139.957 149.6 135.287 145.59 134.485C146.627 132.101 148.094 127.313 148.094 127.313C148.094 127.313 136.456 145.547 135.439 145.898C134.402 146.25 133.385 142.244 133.385 142.244C131.214 150.569 137.043 151.703 137.727 149.084C140.916 148.263 146.392 144.843 148.563 142.459Z" fill="#3C3C3C"/>
<path d="M138.626 146.895L144.552 136.752C144.552 136.752 147.975 138.472 146.254 141.208C144.103 144.393 138.626 146.895 138.626 146.895Z" fill="white"/>
<path d="M211.993 193.876C210.272 196.162 208.335 198.546 206.066 200.833C220.775 172.554 206.751 146.679 206.184 145.663C207.22 146.699 208.237 147.832 209.157 148.849C220.442 161.376 221.812 180.196 211.993 193.876Z" fill="#BDBDBD"/>
<path d="M225.684 157.506C220.54 143.709 213.244 131.964 197.167 121.371C181.656 111.111 164.992 111.913 164.073 112.03C163.955 112.03 163.838 112.03 163.838 112.03C164.405 111.795 164.972 111.678 165.54 111.58C169.08 110.447 173.637 109.528 178.214 108.962C190.321 107.222 202.526 111.326 210.858 120.121C210.975 120.238 210.975 120.238 211.093 120.355C220.559 130.381 225.469 142.908 225.684 157.506Z" fill="#BDBDBD"/>
<path d="M193.509 101.067C176.512 97.8815 165.559 99.4644 157.677 102.435C157.442 101.516 156.64 99.699 155.956 98.2137C153.589 101.067 151.066 104.487 149.481 106.656C145.139 109.627 143.32 112.48 143.32 112.48C145.824 103.92 153.139 97.5492 162.038 95.9467C164.542 95.4972 167.28 95.2627 170.253 95.2627C178.116 95.38 185.979 97.3147 193.509 101.067Z" fill="#BDBDBD"/>
<path d="M130.647 122.954C117.307 122.504 121.747 106.987 121.982 106.088C121.982 106.206 122.882 118.283 130.647 122.954Z" fill="#BDBDBD"/>
<path d="M143.77 95.0278C133.502 101.184 135.556 115.88 135.556 115.88C125.737 100.969 142.969 95.3796 143.77 95.0278Z" fill="#BDBDBD"/>
<path d="M126.891 127.058C127.575 127.625 128.26 128.661 127.458 130.146C127.008 130.947 126.324 130.83 125.287 130.381C123.918 129.697 115.703 124.908 108.29 120.003C116.74 122.974 125.287 126.159 126.656 126.843C126.656 126.843 126.773 126.96 126.891 127.058Z" fill="white"/>
</svg>
