<svg width="321" height="313" viewBox="0 0 321 313" fill="none" xmlns="http://www.w3.org/2000/svg">
<path d="M188.933 163.902V158.965H190.579V157.169H185.193V158.965H186.839V163.902H188.933Z" fill="#3B3B3B"/>
<path d="M232.773 162.256H233.222L234.12 163.902H236.065L234.868 161.808C235.167 161.658 235.466 161.359 235.616 160.91C235.765 160.611 235.915 160.162 235.915 159.713C235.915 159.264 235.765 158.815 235.616 158.366C235.466 157.917 235.167 157.618 234.718 157.468C234.269 157.319 233.82 157.169 233.371 157.169H230.678V163.902H232.623L232.773 162.256ZM232.773 158.965H233.521C233.82 158.965 233.97 158.965 234.12 159.114C234.269 159.264 234.269 159.414 234.269 159.713C234.269 160.012 234.269 160.162 234.12 160.311C233.97 160.461 233.82 160.461 233.521 160.461H232.773V158.965Z" fill="#3B3B3B"/>
<path d="M208.085 157.169V160.76C208.085 161.808 208.385 162.556 208.834 163.005C209.282 163.603 210.031 163.753 210.779 163.753C211.676 163.753 212.275 163.453 212.724 163.005C213.173 162.406 213.472 161.658 213.472 160.76V157.169H211.676V160.76C211.676 161.209 211.676 161.658 211.527 161.808C211.377 161.957 211.228 162.107 210.928 162.107C210.629 162.107 210.479 161.957 210.33 161.808C210.18 161.658 210.18 161.209 210.18 160.76V157.169H208.085Z" fill="#3B3B3B"/>
<path d="M202.699 150.436V136.97H191.926C190.879 136.97 189.981 137.419 189.233 138.167C188.485 138.915 188.036 139.813 188.036 140.86V150.436H191.178V140.86C191.178 140.711 191.327 140.411 191.477 140.262C191.627 140.112 191.776 139.962 192.075 139.962H199.856V150.436H202.699Z" fill="#3B3B3B"/>
<path d="M230.229 147.144C230.08 147.294 229.781 147.444 229.631 147.444H220.205V150.436H229.93C230.978 150.436 231.726 149.987 232.474 149.239C233.222 148.491 233.521 147.593 233.521 146.396V142.207H222.898V140.86C222.898 140.711 223.047 140.411 223.197 140.262C223.347 140.112 223.646 139.962 223.796 139.962H233.521V136.97H223.796C222.748 136.97 222 137.419 221.252 138.167C220.504 138.915 220.205 139.813 220.205 141.01V145.199H230.529V146.696C230.529 146.845 230.379 146.995 230.229 147.144Z" fill="#3B3B3B"/>
<path d="M281.85 142.356V137.12H270.927C269.88 137.12 268.982 137.569 268.234 138.317C267.486 139.065 267.037 139.962 267.037 141.01V150.436H270.03V146.247H276.314L278.558 150.436H281.551L279.306 145.947C279.755 145.798 280.204 145.499 280.653 145.05C281.551 144.451 281.85 143.404 281.85 142.356ZM278.857 142.356C278.857 142.656 278.857 142.805 278.708 142.955C278.558 143.105 278.409 143.254 278.109 143.254H270.179V141.01C270.179 140.86 270.329 140.561 270.478 140.411C270.628 140.262 270.778 140.112 271.077 140.112H279.007V142.356H278.857Z" fill="#3B3B3B"/>
<path d="M244.444 150.436V140.112H249.681V137.12H236.215V140.112H241.601V150.436H244.444Z" fill="#3B3B3B"/>
<path d="M279.755 162.107C279.606 162.107 279.456 162.257 279.157 162.257C278.858 162.257 278.558 162.257 278.11 162.107C277.81 161.957 277.511 161.808 277.212 161.658L276.613 163.304C276.913 163.454 277.361 163.603 277.81 163.753C278.259 163.903 278.708 163.903 279.307 163.903C279.905 163.903 280.354 163.753 280.803 163.603C281.252 163.454 281.551 163.154 281.701 162.855C281.85 162.556 282 162.107 282 161.808C282 161.359 281.85 160.91 281.701 160.76C281.401 160.461 281.252 160.312 280.952 160.162C280.653 160.012 280.204 159.863 279.755 159.863C279.456 159.863 279.157 159.713 279.007 159.713C278.858 159.713 278.708 159.563 278.708 159.414C278.708 159.115 279.007 158.965 279.456 158.965C279.905 158.965 280.504 159.115 281.102 159.414L281.701 157.918C281.401 157.768 281.102 157.618 280.653 157.469C280.204 157.319 279.905 157.319 279.456 157.319C278.858 157.319 278.409 157.469 277.96 157.618C277.511 157.768 277.212 158.067 277.062 158.366C276.913 158.666 276.763 159.115 276.763 159.414C276.763 159.863 276.913 160.312 277.062 160.461C277.361 160.76 277.511 160.91 277.81 161.06C278.11 161.209 278.558 161.359 279.007 161.359C279.307 161.509 279.606 161.509 279.755 161.509C279.905 161.509 280.055 161.658 280.055 161.808C279.905 161.957 279.755 162.107 279.755 162.107Z" fill="#3B3B3B"/>
<path d="M264.344 137.12H254.618C253.571 137.12 252.823 137.569 252.075 138.317C251.327 139.065 251.027 139.962 251.027 141.159V150.436H253.87V146.995H261.501V150.436H264.344V137.12ZM253.87 144.002V140.86C253.87 140.711 254.02 140.561 254.02 140.262C254.169 140.112 254.319 140.112 254.618 140.112H261.501V144.002H253.87Z" fill="#3B3B3B"/>
<path d="M260.304 158.965V157.319H255.067V163.903H260.454V162.257H257.162V161.359H259.855V159.713H257.162V158.965H260.304Z" fill="#3B3B3B"/>
<path d="M217.512 143.853H214.519V147.444H206.888V141.01C206.888 140.711 207.038 140.561 207.188 140.411C207.337 140.262 207.487 140.112 207.786 140.112H216.913V137.12H207.786C206.739 137.12 205.841 137.569 205.093 138.317C204.345 139.065 204.045 139.962 204.045 141.159V150.436H217.512V143.853Z" fill="#3B3B3B"/>
<path d="M149.283 149.239C150.031 148.491 150.48 147.593 150.48 146.396V137.12H139.557C138.51 137.12 137.612 137.569 136.864 138.317C136.116 139.065 135.667 139.962 135.667 141.159V146.546C135.667 147.593 136.116 148.641 136.864 149.389C137.612 150.137 138.51 150.586 139.557 150.586H146.59C147.637 150.436 148.535 150.137 149.283 149.239ZM140.455 147.444H139.557C139.258 147.444 139.108 147.444 138.959 147.294C138.809 147.144 138.659 146.995 138.659 146.696V140.86C138.659 140.711 138.809 140.561 138.959 140.262C139.108 140.112 139.258 140.112 139.557 140.112H140.455H147.338V146.696C147.338 146.845 147.188 146.995 147.038 147.294C146.889 147.444 146.739 147.444 146.44 147.444H145.542H140.455Z" fill="#3B3B3B"/>
<path d="M186.689 137.12H183.996V150.586H186.689V137.12Z" fill="#3B3B3B"/>
<path d="M144.944 158.965V157.319H139.707V163.903H145.094V162.257H141.802V161.359H144.495V159.713H141.802V158.965H144.944Z" fill="#3B3B3B"/>
<path d="M118.909 157.169H116.814L119.208 163.902H121.154L123.548 157.169H121.752L120.256 161.059L118.909 157.169Z" fill="#3B3B3B"/>
<path d="M134.321 150.436V136.97H120.705C119.657 136.97 118.76 137.419 118.011 138.167C117.263 138.915 116.814 139.813 116.814 140.86V150.436H119.807V140.86C119.807 140.711 119.957 140.411 120.106 140.262C120.256 140.112 120.405 139.962 120.705 139.962H123.996V150.436H126.989V140.112H131.178V150.436H134.321Z" fill="#3B3B3B"/>
<path d="M164.246 160.91L166.34 163.902H167.837V157.169H166.041V160.162L163.946 157.169H162.45V163.902H164.246V160.91Z" fill="#3B3B3B"/>
<path d="M182.649 150.436V136.97H171.876C170.829 136.97 169.931 137.419 169.183 138.167C168.435 138.915 167.986 139.813 167.986 140.86V150.436H171.128V140.86C171.128 140.711 171.278 140.411 171.427 140.262C171.577 140.112 171.726 139.962 172.026 139.962H179.806V150.436H182.649Z" fill="#3B3B3B"/>
<path d="M166.49 142.356V137.12H155.567C154.52 137.12 153.622 137.569 152.874 138.317C152.126 139.065 151.677 139.962 151.677 141.01V150.436H154.67V146.247H160.954L163.198 150.436H166.191L163.946 145.947C164.395 145.798 164.844 145.499 165.293 145.05C166.191 144.451 166.49 143.404 166.49 142.356ZM163.498 142.356C163.498 142.656 163.498 142.805 163.348 142.955C163.198 143.105 163.049 143.254 162.749 143.254H154.819V141.01C154.819 140.86 154.969 140.561 155.119 140.411C155.268 140.262 155.418 140.112 155.717 140.112H163.647V142.356H163.498Z" fill="#3B3B3B"/>
<path d="M75.8174 157.169L23 206.845L72.6753 154.027C75.2189 151.184 75.3685 146.995 72.9745 144.152L56.5159 125L75.8174 141.608C78.6603 144.002 82.7001 144.002 85.543 141.608L104.845 125L88.2362 144.302C85.8422 147.144 85.8422 151.184 88.2362 154.027L104.845 173.329L85.6926 156.87C82.8497 154.476 78.5106 154.476 75.8174 157.169Z" fill="#3B3B3B"/>
</svg>
