<svg width="321" height="313" viewBox="0 0 321 313" fill="none" xmlns="http://www.w3.org/2000/svg">
<path d="M201.184 168.884V163.314H203.041V161.289H196.964V163.314H198.821V168.884H201.184Z" fill="#3B3B3B"/>
<path d="M250.638 167.028H251.144L252.157 168.884H254.351L253.001 166.521C253.338 166.353 253.676 166.015 253.845 165.509C254.014 165.171 254.182 164.665 254.182 164.158C254.182 163.652 254.014 163.146 253.845 162.639C253.676 162.133 253.338 161.795 252.832 161.627C252.326 161.458 251.819 161.289 251.313 161.289H248.275V168.884H250.469L250.638 167.028ZM250.638 163.314H251.482C251.819 163.314 251.988 163.314 252.157 163.483C252.326 163.652 252.326 163.821 252.326 164.158C252.326 164.496 252.326 164.665 252.157 164.834C251.988 165.002 251.819 165.002 251.482 165.002H250.638V163.314Z" fill="#3B3B3B"/>
<path d="M222.789 161.289V165.34C222.789 166.521 223.126 167.365 223.633 167.872C224.139 168.547 224.983 168.716 225.827 168.716C226.839 168.716 227.515 168.378 228.021 167.872C228.527 167.197 228.865 166.353 228.865 165.34V161.289H226.839V165.34C226.839 165.846 226.839 166.353 226.671 166.521C226.502 166.69 226.333 166.859 225.996 166.859C225.658 166.859 225.489 166.69 225.32 166.521C225.152 166.353 225.152 165.846 225.152 165.34V161.289H222.789Z" fill="#3B3B3B"/>
<path d="M216.712 153.694V138.503H204.559C203.378 138.503 202.365 139.009 201.521 139.853C200.677 140.697 200.171 141.71 200.171 142.891V153.694H203.715V142.891C203.715 142.723 203.884 142.385 204.053 142.216C204.222 142.047 204.391 141.879 204.728 141.879H213.505V153.694H216.712Z" fill="#3B3B3B"/>
<path d="M247.769 149.98C247.6 150.149 247.262 150.318 247.093 150.318H236.46V153.694H247.431C248.613 153.694 249.456 153.187 250.3 152.343C251.144 151.499 251.482 150.487 251.482 149.136V144.41H239.498V142.891C239.498 142.723 239.667 142.385 239.836 142.216C240.004 142.047 240.342 141.879 240.511 141.879H251.482V138.503H240.511C239.329 138.503 238.485 139.009 237.641 139.853C236.798 140.697 236.46 141.71 236.46 143.06V147.786H248.106V149.474C248.106 149.643 247.937 149.812 247.769 149.98Z" fill="#3B3B3B"/>
<path d="M306 144.579V138.672H293.678C292.497 138.672 291.484 139.178 290.64 140.022C289.796 140.866 289.29 141.879 289.29 143.06V153.694H292.666V148.968H299.755L302.287 153.694H305.662L303.13 148.63C303.637 148.461 304.143 148.124 304.65 147.618C305.662 146.942 306 145.761 306 144.579ZM302.624 144.579C302.624 144.917 302.624 145.086 302.455 145.255C302.287 145.423 302.118 145.592 301.78 145.592H292.835V143.06C292.835 142.892 293.003 142.554 293.172 142.385C293.341 142.216 293.51 142.048 293.847 142.048H302.793V144.579H302.624Z" fill="#3B3B3B"/>
<path d="M263.804 153.694V142.048H269.711V138.672H254.521V142.048H260.597V153.694H263.804Z" fill="#3B3B3B"/>
<path d="M303.637 166.859C303.469 166.859 303.3 167.028 302.962 167.028C302.625 167.028 302.287 167.028 301.781 166.859C301.443 166.69 301.105 166.522 300.768 166.353L300.093 168.209C300.43 168.378 300.937 168.547 301.443 168.716C301.949 168.885 302.456 168.885 303.131 168.885C303.806 168.885 304.312 168.716 304.819 168.547C305.325 168.378 305.663 168.041 305.831 167.703C306 167.366 306.169 166.859 306.169 166.522C306.169 166.015 306 165.509 305.831 165.34C305.494 165.003 305.325 164.834 304.988 164.665C304.65 164.496 304.144 164.327 303.637 164.327C303.3 164.327 302.962 164.159 302.793 164.159C302.625 164.159 302.456 163.99 302.456 163.821C302.456 163.483 302.793 163.315 303.3 163.315C303.806 163.315 304.481 163.483 305.156 163.821L305.831 162.133C305.494 161.964 305.156 161.796 304.65 161.627C304.144 161.458 303.806 161.458 303.3 161.458C302.625 161.458 302.118 161.627 301.612 161.796C301.105 161.964 300.768 162.302 300.599 162.64C300.43 162.977 300.262 163.483 300.262 163.821C300.262 164.327 300.43 164.834 300.599 165.003C300.937 165.34 301.105 165.509 301.443 165.678C301.781 165.846 302.287 166.015 302.793 166.015C303.131 166.184 303.469 166.184 303.637 166.184C303.806 166.184 303.975 166.353 303.975 166.522C303.806 166.69 303.637 166.859 303.637 166.859Z" fill="#3B3B3B"/>
<path d="M286.252 138.672H275.281C274.099 138.672 273.255 139.178 272.412 140.022C271.568 140.866 271.23 141.879 271.23 143.229V153.694H274.437V149.812H283.045V153.694H286.252V138.672ZM274.437 146.436V142.892C274.437 142.723 274.606 142.554 274.606 142.216C274.774 142.048 274.943 142.048 275.281 142.048H283.045V146.436H274.437Z" fill="#3B3B3B"/>
<path d="M281.695 163.315V161.458H275.787V168.885H281.863V167.028H278.15V166.015H281.188V164.159H278.15V163.315H281.695Z" fill="#3B3B3B"/>
<path d="M233.422 146.267H230.046V150.318H221.438V143.06C221.438 142.723 221.607 142.554 221.775 142.385C221.944 142.216 222.113 142.048 222.451 142.048H232.747V138.672H222.451C221.269 138.672 220.256 139.178 219.412 140.022C218.569 140.866 218.231 141.879 218.231 143.229V153.694H233.422V146.267Z" fill="#3B3B3B"/>
<path d="M156.455 152.344C157.299 151.5 157.806 150.487 157.806 149.137V138.672H145.484C144.303 138.672 143.29 139.178 142.446 140.022C141.602 140.866 141.096 141.879 141.096 143.229V149.305C141.096 150.487 141.602 151.668 142.446 152.512C143.29 153.356 144.303 153.863 145.484 153.863H153.417C154.599 153.694 155.611 153.356 156.455 152.344ZM146.497 150.318H145.484C145.147 150.318 144.978 150.318 144.809 150.149C144.64 149.981 144.471 149.812 144.471 149.474V142.892C144.471 142.723 144.64 142.554 144.809 142.216C144.978 142.048 145.147 142.048 145.484 142.048H146.497H154.261V149.474C154.261 149.643 154.092 149.812 153.923 150.149C153.755 150.318 153.586 150.318 153.248 150.318H152.236H146.497Z" fill="#3B3B3B"/>
<path d="M198.652 138.672H195.614V153.863H198.652V138.672Z" fill="#3B3B3B"/>
<path d="M151.561 163.315V161.458H145.653V168.885H151.73V167.028H148.016V166.015H151.054V164.159H148.016V163.315H151.561Z" fill="#3B3B3B"/>
<path d="M122.192 161.289H119.829L122.53 168.884H124.724L127.424 161.289H125.399L123.711 165.678L122.192 161.289Z" fill="#3B3B3B"/>
<path d="M139.577 153.694V138.503H124.218C123.036 138.503 122.023 139.009 121.179 139.853C120.335 140.697 119.829 141.71 119.829 142.891V153.694H123.205V142.891C123.205 142.723 123.374 142.385 123.542 142.216C123.711 142.047 123.88 141.879 124.218 141.879H127.931V153.694H131.307V142.047H136.033V153.694H139.577Z" fill="#3B3B3B"/>
<path d="M173.335 165.509L175.698 168.884H177.385V161.289H175.36V164.665L172.997 161.289H171.309V168.884H173.335V165.509Z" fill="#3B3B3B"/>
<path d="M194.095 153.694V138.503H181.942C180.761 138.503 179.748 139.009 178.904 139.853C178.06 140.697 177.554 141.71 177.554 142.891V153.694H181.098V142.891C181.098 142.723 181.267 142.385 181.436 142.216C181.605 142.047 181.773 141.879 182.111 141.879H190.888V153.694H194.095Z" fill="#3B3B3B"/>
<path d="M175.866 144.579V138.672H163.545C162.363 138.672 161.35 139.178 160.507 140.022C159.663 140.866 159.156 141.879 159.156 143.06V153.694H162.532V148.968H169.621L172.153 153.694H175.528L172.997 148.63C173.503 148.461 174.009 148.124 174.516 147.618C175.529 146.942 175.866 145.761 175.866 144.579ZM172.49 144.579C172.49 144.917 172.49 145.086 172.322 145.255C172.153 145.423 171.984 145.592 171.646 145.592H162.701V143.06C162.701 142.892 162.87 142.554 163.038 142.385C163.207 142.216 163.376 142.048 163.713 142.048H172.659V144.579H172.49Z" fill="#3B3B3B"/>
<path d="M73.5815 161.289L14 217.326L70.037 157.745C72.9064 154.538 73.0751 149.812 70.3746 146.605L51.8081 125L73.5815 143.735C76.7884 146.436 81.3457 146.436 84.5526 143.735L106.326 125L87.5907 146.773C84.8902 149.98 84.8902 154.538 87.5907 157.745L106.326 179.518L84.7214 160.951C81.5145 158.251 76.6196 158.251 73.5815 161.289Z" fill="#3B3B3B"/>
</svg>
