<svg width="321" height="313" viewBox="0 0 321 313" fill="none" xmlns="http://www.w3.org/2000/svg">
<g clip-path="url(#clip0_254_50)">
<path d="M117.002 128H57.3864C57.0187 128 56.6661 128.136 56.4061 128.377C56.1461 128.619 56 128.947 56 129.289V184.709C56 185.051 56.1461 185.379 56.4061 185.621C56.6661 185.862 57.0187 185.998 57.3864 185.998H117.002C117.37 185.998 117.723 185.862 117.983 185.621C118.243 185.379 118.389 185.051 118.389 184.709V129.289C118.389 128.947 118.243 128.619 117.983 128.377C117.723 128.136 117.37 128 117.002 128ZM97.5926 165.376C97.5926 165.718 97.4465 166.046 97.1865 166.288C96.9265 166.529 96.5739 166.665 96.2062 166.665H78.1827C77.815 166.665 77.4624 166.529 77.2024 166.288C76.9424 166.046 76.7963 165.718 76.7963 165.376V148.621C76.7963 148.28 76.9424 147.952 77.2024 147.71C77.4624 147.468 77.815 147.333 78.1827 147.333H96.2062C96.5739 147.333 96.9265 147.468 97.1865 147.71C97.4465 147.952 97.5926 148.28 97.5926 148.621V165.376Z" fill="#3B3B3B"/>
<path d="M241.806 147.335H223.782C223.017 147.335 222.396 147.912 222.396 148.624V165.379C222.396 166.091 223.017 166.668 223.782 166.668H241.806C242.571 166.668 243.192 166.091 243.192 165.379V148.624C243.192 147.912 242.571 147.335 241.806 147.335Z" fill="#3B3B3B"/>
<path d="M221.014 128.001H202.991C202.225 128.001 201.604 128.578 201.604 129.29V146.045C201.604 146.757 202.225 147.334 202.991 147.334H221.014C221.78 147.334 222.401 146.757 222.401 146.045V129.29C222.401 128.578 221.78 128.001 221.014 128.001Z" fill="#3B3B3B"/>
<path d="M262.613 128.001H244.589C243.824 128.001 243.203 128.578 243.203 129.29V146.045C243.203 146.757 243.824 147.334 244.589 147.334H262.613C263.379 147.334 264 146.757 264 146.045V129.29C264 128.578 263.379 128.001 262.613 128.001Z" fill="#3B3B3B"/>
<path d="M221.014 166.667H202.991C202.225 166.667 201.604 167.244 201.604 167.956V184.711C201.604 185.423 202.225 186 202.991 186H221.014C221.78 186 222.401 185.423 222.401 184.711V167.956C222.401 167.244 221.78 166.667 221.014 166.667Z" fill="#3B3B3B"/>
<path d="M262.613 166.667H244.589C243.824 166.667 243.203 167.244 243.203 167.956V184.711C243.203 185.423 243.824 186 244.589 186H262.613C263.379 186 264 185.423 264 184.711V167.956C264 167.244 263.379 166.667 262.613 166.667Z" fill="#3B3B3B"/>
<path d="M189.795 128.001H171.772C171.006 128.001 170.385 128.578 170.385 129.29V146.045C170.385 146.757 171.006 147.334 171.772 147.334H189.795C190.561 147.334 191.181 146.757 191.181 146.045V129.29C191.181 128.578 190.561 128.001 189.795 128.001Z" fill="#3B3B3B"/>
<path d="M189.795 166.667H171.772C171.006 166.667 170.385 167.244 170.385 167.956V184.711C170.385 185.423 171.006 186 171.772 186H189.795C190.561 186 191.181 185.423 191.181 184.711V167.956C191.181 167.244 190.561 166.667 189.795 166.667Z" fill="#3B3B3B"/>
<path d="M170.379 148.607C170.379 148.265 170.233 147.937 169.973 147.696C169.713 147.454 169.36 147.318 168.993 147.318H149.583V129.289C149.583 128.947 149.436 128.619 149.176 128.377C148.917 128.136 148.564 128 148.196 128H130.173C129.805 128 129.453 128.136 129.192 128.377C128.932 128.619 128.786 128.947 128.786 129.289V184.68C128.786 185.022 128.932 185.35 129.192 185.591C129.453 185.833 129.805 185.969 130.173 185.969H148.196C148.564 185.969 148.917 185.833 149.176 185.591C149.436 185.35 149.583 185.022 149.583 184.68V166.651H168.993C169.36 166.651 169.713 166.515 169.973 166.273C170.233 166.032 170.379 165.704 170.379 165.362V148.607Z" fill="#3B3B3B"/>
</g>
<defs>
<clipPath id="clip0_254_50">
<rect width="208" height="58" fill="white" transform="translate(56 128)"/>
</clipPath>
</defs>
</svg>
