<svg width="321" height="313" viewBox="0 0 321 313" fill="none" xmlns="http://www.w3.org/2000/svg">
<path d="M189.333 136.932C187.25 135.742 184.573 135.742 182.193 136.932L165.533 146.749L154.229 152.997L137.866 162.814C135.784 164.004 133.106 164.004 130.727 162.814L117.934 155.079C115.852 153.889 114.364 151.509 114.364 148.832V133.957C114.364 131.577 115.554 129.197 117.934 127.71L130.727 120.272C132.809 119.082 135.486 119.082 137.866 120.272L150.659 128.007C152.741 129.197 154.229 131.577 154.229 134.255V144.072L165.533 137.527V127.412C165.533 125.032 164.343 122.652 161.963 121.165L138.164 107.183C136.081 105.993 133.404 105.993 131.024 107.183L106.63 121.462C104.25 122.652 103.06 125.032 103.06 127.412V155.377C103.06 157.757 104.25 160.137 106.63 161.624L130.727 175.606C132.809 176.796 135.486 176.796 137.866 175.606L154.229 166.086L165.533 159.542L181.896 150.022C183.978 148.832 186.655 148.832 189.035 150.022L201.828 157.459C203.91 158.649 205.398 161.029 205.398 163.706V178.581C205.398 180.961 204.208 183.341 201.828 184.829L189.333 192.266C187.25 193.456 184.573 193.456 182.193 192.266L169.401 184.829C167.318 183.639 165.831 181.259 165.831 178.581V169.061L154.526 175.606V185.424C154.526 187.803 155.716 190.183 158.096 191.671L182.193 205.653C184.276 206.843 186.953 206.843 189.333 205.653L213.43 191.671C215.512 190.481 217 188.101 217 185.424V157.162C217 154.782 215.81 152.402 213.43 150.914L189.333 136.932Z" fill="#3B3B3B"/>
</svg>
