<svg width="321" height="313" viewBox="0 0 321 313" fill="none" xmlns="http://www.w3.org/2000/svg">
<path d="M224.269 142.099H219.83C218.843 142.099 217.857 142.69 217.364 143.578L209.473 157.19C208.783 158.374 207.5 159.163 206.119 159.163H192.902C191.817 159.163 191.127 157.979 191.62 156.993L198.031 145.847C198.919 144.269 197.834 142.197 195.96 142.197H187.872C186.688 142.197 185.603 142.888 184.912 143.874L176.232 159.064L170.117 169.618C169.229 171.196 170.314 173.268 172.188 173.268H205.429C207.5 173.268 209.374 172.183 210.459 170.407L216.969 159.064L225.551 144.269C226.143 143.381 225.354 142.099 224.269 142.099Z" fill="#3B3B3B"/>
<path d="M130.465 149.398L133.424 144.269C134.016 143.282 133.326 142.099 132.142 142.099H113.598C112.711 142.099 111.922 142.592 111.527 143.282L108.568 148.411C107.976 149.398 108.666 150.581 109.85 150.581H112.612C113.401 150.581 113.796 151.37 113.401 152.061L110.343 157.387C109.752 158.472 108.666 159.064 107.384 159.064H104.326C103.143 159.064 102.058 159.656 101.367 160.741L95.3505 171.098C94.7587 172.084 95.4492 173.268 96.6328 173.268H114.683C115.867 173.268 116.952 172.577 117.642 171.591L123.659 161.234C124.251 160.248 123.561 159.064 122.377 159.064H119.615C118.826 159.064 118.432 158.275 118.826 157.585L122.18 151.765C122.574 150.976 123.363 150.581 124.251 150.581H128.394C129.282 150.581 130.071 150.088 130.465 149.398Z" fill="#3B3B3B"/>
<path d="M270.924 149.102L273.784 144.17C274.376 143.184 273.685 142 272.502 142H232.751C231.074 142 229.398 142.888 228.608 144.367L223.479 153.245C222.789 154.527 223.677 156.105 225.156 156.105H228.411H256.523C257.312 156.105 257.805 156.894 257.41 157.585L257.016 158.176C256.72 158.67 256.325 158.867 255.734 158.867H222.888C221.211 158.867 219.534 159.755 218.745 161.234L213.221 170.802C212.629 171.788 213.32 172.972 214.503 172.972H254.254C255.931 172.972 257.608 172.084 258.397 170.605L266.386 156.796C267.274 155.217 266.189 153.146 264.315 153.146H259.876H231.765C230.976 153.146 230.483 152.357 230.877 151.666L231.272 151.075C231.568 150.581 231.962 150.384 232.554 150.384H268.556C269.444 150.581 270.43 150.088 270.924 149.102Z" fill="#3B3B3B"/>
<path d="M177.12 146.34H173.471C172.682 146.34 172.287 145.551 172.682 144.86C173.372 143.578 172.484 142.099 171.103 142.099H139.737C138.553 142.099 137.468 142.789 136.778 143.775L121.39 170.407C120.601 171.69 121.588 173.268 123.067 173.268H157.689C159.366 173.268 161.042 172.38 161.832 170.901L164.396 166.462C164.791 165.673 165.58 165.278 166.467 165.278H167.454C168.637 165.278 169.722 164.588 170.413 163.601L178.698 149.299C179.488 147.918 178.6 146.34 177.12 146.34ZM143.485 156.894L146.444 151.765C146.839 150.976 147.628 150.581 148.516 150.581H166.862C167.947 150.581 168.637 151.765 168.144 152.751L165.185 157.881C164.791 158.67 164.002 159.064 163.114 159.064H144.669C143.584 159.064 142.893 157.881 143.485 156.894Z" fill="#3B3B3B"/>
<path d="M104.918 149.102L107.779 144.17C108.371 143.184 107.68 142 106.496 142H66.7458C65.069 142 63.3922 142.888 62.6031 144.367L57.474 153.245C56.7835 154.527 57.6713 156.105 59.1508 156.105H62.4058H90.5173C91.3064 156.105 91.7996 156.894 91.405 157.585L91.0105 158.176C90.7146 158.67 90.32 158.867 89.7282 158.867H56.8822C55.2053 158.867 53.5285 159.755 52.7394 161.234L47.2158 170.802C46.6239 171.788 47.3144 172.972 48.498 172.972H88.2487C89.9255 172.972 91.6023 172.084 92.3914 170.605L100.381 156.796C101.269 155.217 100.184 153.146 98.3096 153.146H93.871H65.6608C64.8717 153.146 64.3786 152.357 64.7731 151.666L65.1677 151.075C65.4636 150.581 65.8581 150.384 66.4499 150.384H102.452C103.537 150.581 104.425 150.088 104.918 149.102Z" fill="#3B3B3B"/>
</svg>
