<svg width="321" height="313" viewBox="0 0 321 313" fill="none" xmlns="http://www.w3.org/2000/svg">
<path d="M63.7681 149.745V175.488H75.0071C75.4406 175.484 75.8611 175.31 76.1685 175.002C76.4758 174.695 76.6505 174.278 76.6505 173.841V149.742H63.7681V149.745Z" fill="#3B3B3B"/>
<path d="M38 173.844C38 174.281 38.1747 174.695 38.482 175.006C38.7926 175.313 39.2067 175.488 39.6435 175.491H50.8825V149.749H38V173.844Z" fill="#3B3B3B"/>
<path d="M76.6508 136.873V125.64C76.6475 125.207 76.4728 124.789 76.1687 124.482C75.8582 124.175 75.4408 124.003 75.0073 124H39.6436C39.2069 124 38.7896 124.175 38.4855 124.482C38.1749 124.789 38.0034 125.207 38.0034 125.64V136.873H76.6508Z" fill="#3B3B3B"/>
<path d="M137.676 141.056C135.993 140.186 133.499 139.749 130.193 139.749C126.805 139.736 123.425 140.108 120.118 140.852V146.714C122.752 146.391 125.398 146.206 128.051 146.164C130.028 146.164 131.445 146.307 132.296 146.591C132.723 146.734 133.108 146.979 133.418 147.303C133.729 147.627 133.958 148.021 134.085 148.455C134.434 149.419 134.605 151.027 134.605 153.278V154.987C131.471 154.805 129.031 154.712 127.294 154.708C125.036 154.708 123.279 155.054 122.011 155.744C120.707 156.484 119.733 157.691 119.287 159.124C118.734 160.687 118.459 162.825 118.462 165.533C118.462 169.208 119.096 171.871 120.358 173.527C121.623 175.18 123.703 176.009 126.605 176.009H126.666C128.038 176.038 132.228 175.915 134.149 173.446C134.463 173.052 134.732 172.621 134.945 172.165L135.155 175.468H142.056V153.68C142.056 150.053 141.745 147.264 141.124 145.307C140.869 144.401 140.432 143.56 139.837 142.832C139.245 142.091 138.507 141.493 137.676 141.056ZM134.605 162.084C134.605 165.074 134.282 167.002 133.638 167.872C133.231 168.39 132.677 168.775 132.05 168.975C131.331 169.179 130.587 169.27 129.843 169.254C128.187 169.254 127.106 168.969 126.602 168.4C126.097 167.83 125.841 166.646 125.841 164.851C125.799 163.851 125.906 162.854 126.152 161.887C126.223 161.609 126.349 161.35 126.53 161.124C126.708 160.897 126.935 160.713 127.187 160.58C127.902 160.308 128.666 160.192 129.426 160.234H134.602V162.084H134.605Z" fill="#3B3B3B"/>
<path d="M197.833 143.02C197.685 142.771 197.52 142.531 197.342 142.301C195.009 139.312 189.425 139.768 189.425 139.768C187.225 139.807 185.478 140.318 184.23 141.299C182.916 142.334 181.984 144.136 181.434 146.711C180.884 149.286 180.613 152.965 180.622 157.749C180.622 162.434 180.884 166.044 181.412 168.574C181.939 171.107 182.848 172.897 184.136 173.948C185.42 175.009 187.29 175.533 189.729 175.533H189.923H189.901C189.901 175.533 194.941 175.918 197.452 173.398C197.452 176.277 197.306 178.325 197.025 179.516C196.743 180.706 196.141 181.596 195.197 182.033C194.249 182.469 192.631 182.686 190.334 182.686L182.605 182.55V188.412C184.032 188.684 185.472 188.878 186.921 188.998C188.691 189.156 190.383 189.237 191.991 189.237C195.899 189.237 198.772 188.619 200.616 187.38C202.456 186.141 203.628 184.304 204.132 181.864C204.637 179.425 204.889 175.795 204.889 170.972V140.302H198.011L197.833 143.02ZM196.979 165.737C196.75 166.876 196.313 167.681 195.666 168.151C195.022 168.62 194.077 168.856 192.835 168.859C191.315 168.859 190.244 168.642 189.623 168.206C189.001 167.769 188.587 166.814 188.384 165.342C188.128 162.819 188.024 160.286 188.079 157.749C188.079 154.074 188.183 151.525 188.39 150.098C188.597 148.672 189.001 147.753 189.597 147.342C190.195 146.928 191.279 146.724 192.842 146.724C194.174 146.724 195.164 146.986 195.805 147.513C196.446 148.041 196.882 149.037 197.118 150.503C197.348 151.836 197.465 154.249 197.465 157.74C197.461 161.735 197.3 164.401 196.979 165.737Z" fill="#3B3B3B"/>
<path d="M232.198 141.519C230.609 140.348 227.976 139.762 224.297 139.762C220.574 139.762 217.837 140.37 216.087 141.587C214.336 142.803 213.21 144.631 212.709 147.073C212.198 149.513 211.946 153.146 211.949 157.966C211.949 162.835 212.214 166.478 212.745 168.891C213.275 171.305 214.446 173.097 216.261 174.272C218.079 175.443 220.92 176.028 224.783 176.028C226.64 176.025 228.493 175.921 230.341 175.721C231.89 175.575 233.421 175.31 234.928 174.925V169.047C232.11 169.377 229.28 169.564 226.446 169.603C224.142 169.603 222.531 169.406 221.612 169.014C221.143 168.801 220.735 168.477 220.422 168.07C220.108 167.662 219.901 167.183 219.817 166.675C219.532 165.504 219.39 163.427 219.39 160.438H235.74V157.876C235.74 152.771 235.546 149.057 235.155 146.743C234.76 144.417 233.776 142.68 232.198 141.519ZM228.642 154.928H219.396C219.386 152.991 219.513 151.056 219.775 149.134C219.985 147.986 220.409 147.203 221.059 146.792C221.709 146.381 222.735 146.174 224.165 146.174C225.498 146.174 226.465 146.358 227.063 146.724C227.659 147.093 228.073 147.873 228.303 149.066C228.584 150.985 228.697 152.923 228.649 154.861L228.642 154.928Z" fill="#3B3B3B"/>
<path d="M281.385 145.019C280.952 143.249 280.169 141.929 279.043 141.056C277.917 140.182 276.27 139.746 274.109 139.749C274.016 139.749 273.928 139.749 273.834 139.749C273.834 139.749 268.244 139.425 265.898 142.311C265.636 142.631 265.413 142.974 265.222 143.34C264.847 142.376 264.206 141.538 263.365 140.926C262.282 140.176 260.661 139.794 258.532 139.765C258.532 139.765 252.832 139.416 250.593 142.327C250.341 142.651 250.117 142.994 249.92 143.353L249.726 140.325H242.887V175.481H250.337V157.119C250.302 154.922 250.383 152.725 250.58 150.535C250.742 149.179 251.12 148.202 251.719 147.604C252.317 147.005 253.307 146.708 254.685 146.711C256.018 146.711 256.94 146.882 257.445 147.229C257.953 147.572 258.299 148.351 258.445 149.571C258.648 151.735 258.729 153.912 258.687 156.087V175.455H266.138V157.119C266.102 154.922 266.18 152.725 266.377 150.535C266.539 149.179 266.931 148.202 267.548 147.604C268.17 147.009 269.172 146.711 270.541 146.711C271.909 146.711 272.793 146.882 273.304 147.229C273.812 147.575 274.158 148.351 274.303 149.571C274.504 151.735 274.585 153.912 274.543 156.087V175.455H281.997V152.295C282.029 149.218 281.825 146.792 281.385 145.019Z" fill="#3B3B3B"/>
<path d="M170.723 141.088C169.555 140.192 167.818 139.742 165.514 139.742H165.288C165.288 139.742 159.633 139.432 157.349 142.305C157.177 142.521 157.038 142.732 156.922 142.942L156.76 140.302H149.921V175.459H157.371V157.119C157.339 154.932 157.417 152.748 157.611 150.571C157.773 149.238 158.177 148.264 158.821 147.64C159.465 147.015 160.532 146.711 161.995 146.711C163.376 146.711 164.343 146.883 164.893 147.229C165.443 147.572 165.812 148.364 165.996 149.603C166.229 151.755 166.323 153.919 166.278 156.083V175.452H173.732V152.622C173.793 150.121 173.586 147.617 173.117 145.158C172.697 143.346 171.897 141.991 170.723 141.088Z" fill="#3B3B3B"/>
<path d="M109.562 130.098H102.111V140.105H97.4883V146.517H102.111V175.455H109.562V146.517H115.217V140.102H109.562V130.098Z" fill="#3B3B3B"/>
</svg>
