<svg width="525" height="145" viewBox="0 0 525 145" fill="none" xmlns="http://www.w3.org/2000/svg">
<g clip-path="url(#clip0_281_52)">
<path d="M200.465 12.8627C199.872 11.8478 197.688 11.3591 193.897 11.3591C188.938 11.3591 185.185 13.0431 182.638 16.411C180.091 19.7789 178.81 24.6428 178.795 31.0027C178.795 44.2137 183.732 50.8167 193.605 50.8116H195.729C196.937 50.8181 198.138 50.6433 199.294 50.2929C200.413 49.9471 201.081 49.5863 201.291 49.2104C201.544 48.6576 201.655 48.0504 201.614 47.4437V41.0162L209.78 41.5725V55.45C205.617 57.6452 200.333 58.7402 193.927 58.7352C185.741 58.7352 179.498 56.4474 175.2 51.8716C170.901 47.2959 168.752 40.4524 168.752 31.341C168.659 26.8599 169.392 22.4001 170.914 18.1851C172.098 14.8269 174.109 11.8223 176.761 9.44966C181.561 5.4386 187.648 3.3024 193.897 3.43556C199.095 3.39328 204.237 4.50497 208.955 6.69069V20.2976L200.781 20.8614V14.6293C200.819 14.0236 200.711 13.4174 200.465 12.8627V12.8627Z" fill="#1D1E2C"/>
<path d="M215.516 57.6978V51.2026L218.158 50.9545C219.704 50.7967 220.485 50.0524 220.485 48.6992V11.4193L215.913 11.1788V4.3678H237.779C243.974 4.3678 248.728 5.51549 252.04 7.81087C255.353 10.1063 257.007 13.8651 257.002 19.0873C257.002 22.7258 256.054 25.7329 254.157 28.1085C252.383 30.3726 250.056 32.141 247.402 33.243C249.323 33.9346 250.844 35.566 251.965 38.137L257.73 50.7215L262.294 50.8869V57.7054H242.5V51.2026L244.827 50.9545C246.051 50.7967 246.666 50.3155 246.666 49.5187C246.647 49.1228 246.537 48.7367 246.343 48.391L242.59 40.3697C242.174 39.2769 241.499 38.3017 240.624 37.5281C239.72 36.9121 238.637 36.6157 237.546 36.6861H230.258V50.6388L235.459 50.8794V57.6978H215.516ZM230.25 29.0632H237.193C243.764 29.0632 247.046 26.1238 247.041 20.245C247.041 16.8771 246.176 14.6845 244.444 13.6671C242.713 12.6497 239.923 12.1485 236.075 12.1636H230.228L230.25 29.0632Z" fill="#1D1E2C"/>
<path d="M276.855 48.7143V37.3251L263.239 11.4193L259.486 11.1788V4.3678H279.002V10.863L276.6 11.1036C276.261 11.0798 275.923 11.1589 275.63 11.3306C275.337 11.5023 275.102 11.7585 274.956 12.0658C274.844 12.4254 274.81 12.8051 274.858 13.1789C274.906 13.5526 275.034 13.9115 275.234 14.2309L282.042 28.1836H282.365L291.102 11.502L287.101 11.1788V4.3678H304.32V10.863L301.918 11.1036C300.918 11.2088 300.009 12.0107 299.194 13.5092L286.621 37.3251V50.6388L292.866 50.8794V57.6978H270.288V51.2026L274.529 50.9545C276.085 50.8493 276.86 50.1025 276.855 48.7143Z" fill="#1D1E2C"/>
<path d="M307.277 57.6978V51.2026L309.92 50.9545C311.476 50.7942 312.251 50.0424 312.246 48.6992V11.4193L307.683 11.1788V4.3678H330.584C336.559 4.3678 341.215 5.77109 344.553 8.57767C347.89 11.3843 349.559 15.5941 349.559 21.2073C349.559 26.8154 347.665 31.1857 343.877 34.318C340.089 37.4504 335.07 39.014 328.82 39.009H322.012V50.6388L329.698 50.8794V57.6978H307.277ZM322.012 31.2283H327.777C335.568 31.2283 339.466 28.0483 339.471 21.6884C339.471 17.8394 338.47 15.2859 336.469 14.0279C334.467 12.77 331.277 12.141 326.898 12.141H322.012V31.2283Z" fill="#1D1E2C"/>
<path d="M368.618 48.7143V12.3064H362.373C361.142 12.3064 360.526 13.1334 360.526 14.7872V18.546L352.359 17.9822V4.3678H394.243V17.9973L386.069 18.5611V14.8023C386.124 14.1358 385.986 13.4677 385.672 12.8778C385.401 12.5094 384.763 12.3214 383.75 12.3214H378.308V50.6613L384.628 50.9019V57.7204H362.05V51.2026L366.291 50.9545C367.847 50.7942 368.623 50.0474 368.618 48.7143Z" fill="#1D1E2C"/>
<path d="M413.137 13.7498V40.3697C413.137 44.1135 414.03 46.7472 415.816 48.2707C417.603 49.7943 420.167 50.5461 423.51 50.526C426.843 50.526 429.43 49.6966 431.272 48.0377C433.113 46.3788 434.034 43.9481 434.034 40.7456V11.4193L429.395 11.1788V4.3678H448.37V10.863L445.728 11.1036C444.172 11.264 443.396 12.0658 443.401 13.5092V42.1364C443.401 47.3235 441.587 51.3881 437.959 54.3299C434.332 57.2718 429.312 58.7403 422.902 58.7353C416.502 58.7353 411.658 57.3069 408.37 54.4502C405.083 51.5935 403.441 47.0604 403.446 40.8508V11.4193L398.808 11.1788V4.3678H418.181V10.863L415.539 11.1036C414.871 11.1348 414.229 11.371 413.7 11.7802C413.481 12.0552 413.319 12.3707 413.222 12.7087C413.125 13.0467 413.096 13.4005 413.137 13.7498Z" fill="#1D1E2C"/>
<path d="M468.306 50.4809C474.716 50.4809 477.919 47.9123 477.914 42.7753C477.914 40.1091 476.5 38.1319 473.673 36.8439C471.81 35.959 469.864 35.2614 467.863 34.7615C465.848 34.2361 463.87 33.5781 461.941 32.7919C460.25 32.0579 458.651 31.1295 457.174 30.0254C454.027 27.6749 452.453 24.0539 452.453 19.1624C452.453 14.271 454.147 10.4219 457.535 7.61536C460.927 4.80377 465.359 3.40048 470.828 3.40549C476.092 3.35818 481.301 4.48016 486.08 6.69069V18.7189L477.914 19.2827V14.6293C477.953 14.0236 477.845 13.4174 477.599 12.8627C477.008 11.8603 475.124 11.3591 471.946 11.3591C468.771 11.3591 466.422 11.9154 464.906 13.0431C463.39 14.1707 462.654 15.8998 462.654 18.2528C462.647 19.0966 462.814 19.9329 463.144 20.709C463.475 21.4852 463.962 22.1846 464.575 22.7634C465.667 23.7429 466.969 24.458 468.381 24.8533C470.062 25.4171 471.856 25.9884 473.748 26.5823C475.472 27.1019 477.158 27.7425 478.792 28.4993C480.423 29.3003 481.965 30.2704 483.393 31.3936C486.641 33.7993 488.267 37.513 488.272 42.5347C488.277 47.5565 486.476 51.5133 482.868 54.4051C479.265 57.2918 474.511 58.7352 468.606 58.7352C463.132 58.826 457.706 57.7042 452.716 55.45V42.7753L460.875 42.219V47.1055C460.834 47.7121 460.945 48.3193 461.198 48.8721C461.408 49.248 462.061 49.6088 463.157 49.9546C464.84 50.3695 466.574 50.5467 468.306 50.4809V50.4809Z" fill="#1D1E2C"/>
<path d="M170.997 120.214L183.9 82.8367L178.856 82.3556V75.8604H197.194L213.534 122.139H213.609L218.173 122.379V129.19H197.501V122.695L200.541 122.455C201.209 122.441 201.855 122.218 202.388 121.816C202.703 121.492 202.733 120.906 202.463 120.049L200.781 115.08H182.016L179.614 122.139L184.418 122.379V129.19H165.953V122.695L168.595 122.455C169.711 122.349 170.512 121.603 170.997 120.214ZM191.414 84.8815L183.968 107.735H198.86L191.654 84.8815H191.414Z" fill="#1D1E2C"/>
<path d="M250.268 84.3628C249.683 83.3604 247.494 82.8592 243.701 82.8592C238.737 82.8592 234.984 84.5432 232.441 87.9111C229.899 91.279 228.618 96.1454 228.598 102.51C228.598 115.716 233.535 122.319 243.408 122.319H245.532C246.74 122.327 247.942 122.152 249.098 121.801C250.218 121.45 250.886 121.089 251.102 120.718C251.348 120.163 251.456 119.557 251.417 118.951V112.531L259.584 113.095V126.973C255.425 129.163 250.141 130.258 243.731 130.258C235.564 130.258 229.331 127.96 225.033 123.364C220.734 118.768 218.585 111.925 218.585 102.834C218.491 98.3518 219.227 93.8912 220.754 89.6777C221.936 86.318 223.945 83.311 226.594 80.9347C231.396 76.9267 237.481 74.7909 243.731 74.9206C248.919 74.8854 254.05 75.9995 258.758 78.1833V91.8127L250.591 92.3765V86.1219C250.627 85.518 250.516 84.9146 250.268 84.3628V84.3628Z" fill="#1D1E2C"/>
<path d="M269.807 120.214L282.695 82.8367L277.651 82.3556V75.8604H295.988L312.321 122.139H312.404L316.968 122.379V129.19H296.311V122.695L299.351 122.455C300.018 122.441 300.664 122.218 301.197 121.816C301.513 121.492 301.543 120.906 301.272 120.049L299.591 115.08H280.826L278.424 122.139L283.228 122.379V129.19H264.763V122.695L267.405 122.455C268.526 122.349 269.326 121.603 269.807 120.214ZM290.223 84.8815L282.777 107.735H297.669L290.464 84.8815H290.223Z" fill="#1D1E2C"/>
<path d="M320.091 129.19V122.695L322.733 122.455C324.279 122.297 325.052 121.545 325.052 120.199V82.9194L320.511 82.6939V75.8754H342.429C350.28 75.8754 356.408 77.9603 360.811 82.13C365.215 86.2998 367.417 92.4768 367.417 100.661C367.506 105.166 366.828 109.653 365.413 113.93C364.337 117.281 362.468 120.322 359.963 122.793C355.375 127.068 349.665 129.205 342.834 129.205L320.091 129.19ZM334.825 83.6411V121.492H343.029C347.618 121.492 351.194 119.836 353.756 116.523C356.318 113.21 357.599 108.399 357.599 102.089C357.599 89.7905 352.395 83.6411 341.986 83.6411H334.825Z" fill="#1D1E2C"/>
<path d="M408.971 129.19H370.938V122.695L373.58 122.455C375.126 122.297 375.899 121.545 375.899 120.199V82.9194L371.335 82.6788V75.8604H408.01V89.1741L399.844 89.7379V86.5279C399.898 85.8614 399.76 85.1933 399.446 84.6034C399.175 84.2275 398.537 84.0395 397.524 84.0395H385.672V97.7291H404.167V105.908H385.672V120.944H398.575C399.536 120.944 400.151 120.741 400.422 120.342C400.73 119.734 400.868 119.053 400.819 118.373V114.366L408.986 114.929L408.971 129.19Z" fill="#1D1E2C"/>
<path d="M432.832 75.8604L446.448 112.11H446.613L460.304 75.8604H476.157V82.3556L473.515 82.5961C471.916 82.7615 471.143 83.6937 471.196 85.4077L473.2 122.139L478.161 122.379V129.19H458.856V122.695L461.738 122.455C463.179 122.349 463.87 121.658 463.817 120.372L462.316 92.0608H462.151L449.811 124.041H442.2L430.032 92.3615H429.867L428.268 122.116L433.47 122.357V129.168H414.577V122.673L417.459 122.432C417.734 122.425 418.004 122.364 418.254 122.25C418.504 122.137 418.729 121.975 418.915 121.773C419.102 121.571 419.245 121.334 419.338 121.075C419.431 120.816 419.471 120.541 419.456 120.267L421.625 82.9795L416.739 82.6939V75.8754L432.832 75.8604Z" fill="#1D1E2C"/>
<path d="M497.535 120.214V108.825L483.919 82.9194L480.166 82.6788V75.8604H499.682V82.3556L497.28 82.5961C496.942 82.5755 496.605 82.6559 496.312 82.8272C496.019 82.9985 495.784 83.253 495.636 83.5584C495.523 83.9179 495.489 84.2977 495.537 84.6715C495.585 85.0454 495.714 85.4043 495.914 85.7235L502.722 99.6837H503.045L511.767 83.0021L507.766 82.6788V75.8604H524.985V82.3556L522.583 82.5961C521.562 82.7089 520.661 83.5058 519.858 85.0018L507.286 108.825V122.139L513.531 122.379V129.19H490.967V122.695L495.208 122.455C496.755 122.349 497.535 121.605 497.535 120.214Z" fill="#1D1E2C"/>
<path d="M119 87.1291V11H11V87.1443L59.6732 115.494L59.5974 138.88C61.349 139.04 68.6511 139.04 70.4102 138.88L70.342 115.494L119 87.1291ZM64.928 19.0421L77.3711 40.1136H52.4848L64.928 19.0421ZM65.0341 106.505L15.7468 77.6969L65.0341 48.8889L114.579 77.6969L65.0341 106.505Z" fill="#7D47D1"/>
<path d="M65.0755 145.444C48.6176 145.426 32.8388 138.87 21.2013 127.215C9.56371 115.559 3.01788 99.7564 3 83.2732V3H127.114V83.2732C127.096 99.7499 120.555 115.547 108.926 127.202C97.2961 138.856 81.527 145.416 65.0755 145.444V145.444ZM11.617 11.6302V83.2732C11.5332 90.3572 12.8539 97.3873 15.5027 103.956C18.1515 110.525 22.0756 116.503 27.0476 121.542C32.0197 126.581 37.9408 130.581 44.4679 133.312C50.995 136.042 57.9982 137.448 65.0718 137.448C72.1454 137.448 79.1486 136.042 85.6757 133.312C92.2028 130.581 98.1239 126.581 103.096 121.542C108.068 116.503 111.992 110.525 114.641 103.956C117.29 97.3873 118.61 90.3572 118.527 83.2732V11.6302H11.617Z" fill="#B26DFF"/>
</g>
<defs>
<clipPath id="clip0_281_52">
<rect width="525" height="145" fill="white"/>
</clipPath>
</defs>
</svg>
