<svg width="30" height="40" viewBox="0 0 30 40" fill="none" xmlns="http://www.w3.org/2000/svg">
<path d="M2.5 0C1.125 0 0 1.125 0 2.5V37.5C0 38.875 1.125 40 2.5 40H27.5C28.875 40 30 38.875 30 37.5V10L20 0H2.5Z" fill="#0263D1"/>
<path d="M4.63922 28.0159C4.30922 28.0159 3.94922 27.8346 3.94922 27.3959V21.7196C3.94922 21.3596 4.30922 21.0996 4.63922 21.0996H6.92797C11.4955 21.0996 11.3942 28.0159 7.01672 28.0159H4.63922ZM5.26922 22.3184V26.7959H6.92797C9.62672 26.7959 9.74547 22.3184 6.92797 22.3184H5.26922Z" fill="white"/>
<path d="M15.2199 28.1666C13.3712 28.2466 11.4512 27.0166 11.4512 24.5679C11.4512 22.1091 13.3699 20.9004 15.2199 20.9004C16.9687 20.9891 18.7974 22.1991 18.7974 24.5679C18.7974 26.9379 16.9687 28.1666 15.2199 28.1666ZM15.1099 22.2004C13.9899 22.2004 12.7712 22.9904 12.7712 24.5691C12.7712 26.1391 13.9912 26.9391 15.1099 26.9391C16.2599 26.9391 17.4887 26.1391 17.4887 24.5691C17.4887 22.9891 16.2599 22.2004 15.1099 22.2004Z" fill="white"/>
<path d="M19.9746 24.5367C19.9746 22.608 21.1846 20.9492 23.4834 20.9492C24.3534 20.9492 25.0434 21.2092 25.7721 21.8392C26.0421 22.088 26.0721 22.528 25.8021 22.808C25.5321 23.0467 25.1221 23.018 24.8821 22.778C24.4734 22.348 24.0534 22.2292 23.4834 22.2292C21.9446 22.2292 21.2059 23.3192 21.2059 24.538C21.2059 25.778 21.9346 26.9167 23.4834 26.9167C24.0534 26.9167 24.5834 26.6855 25.0434 26.2767C25.3521 26.0367 25.7821 26.1555 25.9621 26.3967C26.1221 26.6167 26.2009 26.9867 25.8521 27.3355C25.1521 27.9867 24.3134 28.1167 23.4821 28.1167C21.0646 28.1167 19.9746 26.4655 19.9746 24.5367Z" fill="white"/>
<path d="M22.5 10H30L20 0V7.5C20 8.875 21.125 10 22.5 10Z" fill="#4E92DF"/>
</svg>
