<svg width="14" height="10" viewBox="0 0 14 10" fill="none" xmlns="http://www.w3.org/2000/svg">
<path d="M5.45431 1.19302C5.73685 0.915517 5.73685 0.478642 5.45431 0.201142C5.17176 -0.0669827 4.72694 -0.0669827 4.4444 0.201142L0.211945 4.35739C0.0808537 4.48614 3.55075e-05 4.66489 3.54989e-05 4.86302C3.54902e-05 5.06114 0.0808537 5.23989 0.211945 5.36927L4.4444 9.52552C4.72694 9.80302 5.17176 9.80302 5.45431 9.52552C5.73685 9.24802 5.73685 8.81114 5.45431 8.53364L2.42394 5.56739L13.1817 5.56739C13.5756 5.56802 13.8887 5.25052 13.8887 4.86364C13.8887 4.47677 13.5756 4.16927 13.1817 4.16927L2.42458 4.16927L5.45431 1.19302Z" fill="white"/>
</svg>
