<svg width="254" height="140" viewBox="0 0 254 140" fill="none" xmlns="http://www.w3.org/2000/svg">
<g opacity="0.3">
<path d="M246.384 39.929C254.468 38.7741 255.623 27.2255 252.158 21.0662C247.539 12.8539 234.579 9.77428 225.34 9.26101C220.977 5.15484 216.101 1.56196 210.84 0.407095C205.322 -0.876082 199.292 1.04867 193.389 3.74335C193.261 3.74335 193.261 3.61504 193.132 3.61504C179.659 1.69027 166.186 0.663719 152.584 0.535401C139.88 0.407084 128.973 1.81859 113.19 2.97345C87.0135 2.46018 52.2394 3.74336 40.6908 32.2299C38.2528 38.3892 38.6377 43.7785 38.3811 50.1944C38.1245 60.7164 30.1687 66.3624 21.5715 70.7252C14.7706 74.1898 4.63353 79.1942 1.42559 86.8933C0.142413 88.4331 -0.242541 90.2295 0.142413 92.026C0.399048 96.902 4.37688 103.061 6.94324 105.628C13.8724 112.557 21.0582 108.322 28.6289 106.269C29.5272 106.013 30.4254 105.884 31.4519 105.628C31.7086 105.628 31.9652 105.499 32.0935 105.499C37.8678 104.216 43.7704 103.061 48.6465 100.238C48.5182 101.65 50.5713 102.035 51.7261 101.778H51.8545C56.2173 111.915 66.4827 120.512 75.4649 126.158C86.2436 132.959 97.2789 135.654 109.469 137.835C118.323 140.017 128.332 139.247 138.597 134.756C147.836 130.65 153.482 122.822 157.845 114.097C159.513 110.889 160.283 107.809 160.668 103.96C163.106 101.521 164.774 98.8268 168.239 97.1587C173.243 94.7206 178.504 94.9773 183.508 96.902C185.048 99.3401 186.845 101.521 189.283 103.061C197.11 108.194 206.991 107.809 215.46 104.986C232.911 99.0835 245.999 83.3004 248.181 64.9509C249.079 57.3802 248.309 48.5263 245.229 40.8272C245.871 40.5706 246.256 40.1856 246.384 39.929ZM243.689 15.5486C252.672 20.4247 255.11 32.2299 246.897 38.1325C247.026 37.4909 246.897 36.721 246.897 35.9511C246.769 34.9246 246.769 33.898 246.641 32.9998H246.769C248.694 32.4865 249.977 30.6901 249.977 28.7653C249.079 29.9202 247.796 30.5618 246.384 30.9467C246.256 29.9202 246.128 28.7653 245.999 27.7388C246.128 27.7388 246.256 27.6104 246.384 27.4821C247.154 26.8405 247.924 26.3273 248.437 25.3007C248.951 24.4025 249.079 23.6326 248.822 22.7344C248.822 22.6061 248.566 22.6061 248.566 22.7344C247.924 23.7609 247.154 25.3007 245.871 25.814C245.743 24.4025 245.486 22.991 244.716 21.7078C242.791 17.9866 235.477 12.8539 231.243 15.5486C229.959 14.0088 228.548 12.469 227.008 10.9291C232.782 12.3406 238.557 12.8539 243.689 15.5486ZM242.791 22.4777C240.995 22.3494 238.813 22.6061 237.53 23.7609C236.375 21.8362 235.092 20.0397 233.681 18.2433C233.296 17.73 232.911 17.345 232.526 16.8318C236.504 16.4468 240.61 19.0132 242.791 22.4777ZM40.4342 38.2608C40.6908 37.3626 40.8191 36.4644 41.0758 35.5662C44.5404 27.9954 48.9031 21.9645 56.3456 17.345C64.6862 12.2123 74.1817 11.5707 83.0357 8.10616C83.164 8.10616 83.164 7.97784 83.0357 7.97784C72.257 8.23447 59.6818 12.084 50.6996 19.3981C66.0977 4.7699 94.071 3.99998 114.089 4.38493C114.474 4.38493 140.137 2.33185 152.584 2.46017C165.031 2.7168 177.349 3.74336 189.668 5.28317C188 6.05308 186.331 6.9513 184.792 7.7212C175.296 5.66812 164.902 4.12831 155.279 5.79644C155.279 5.79644 155.279 5.79644 155.279 5.92476C164.261 7.20794 173.243 7.46457 182.225 9.00438C181.199 9.51765 180.301 9.90261 179.402 10.2876C178.247 10.8008 176.964 11.3141 175.809 11.6991C169.522 9.38934 162.464 9.38933 155.792 9.26101C155.664 9.26101 155.664 9.38934 155.792 9.38934C161.438 10.1592 166.955 11.8274 172.601 12.8539C171.062 13.4955 169.394 14.0088 167.854 14.6504C157.332 11.0575 137.442 11.5707 131.155 12.3407C114.73 14.5221 98.3055 10.2876 81.8808 13.3672C68.7924 15.8052 54.4208 21.7078 46.0802 32.6148C45.0536 33.898 44.1554 35.3095 43.5138 36.721C46.0802 31.3317 50.058 26.7122 55.1907 22.991C62.8898 17.345 71.3588 14.7787 80.0844 11.4424C61.35 11.8274 42.4873 27.4821 39.7926 45.9599C39.9209 43.3935 39.9209 40.8272 40.4342 38.2608ZM165.287 15.8052C157.973 18.4999 150.531 21.0663 143.088 23.5043C130.77 27.3538 118.323 30.6901 105.748 33.5131C93.686 36.2078 81.3675 37.8759 69.3057 40.4422C59.2969 42.4953 46.9784 48.7829 42.2306 58.1501C42.7439 51.2209 42.1023 43.9068 45.6952 37.4909C53.1376 24.1459 70.4605 17.73 84.8321 15.5486C100.487 13.1106 116.013 16.8318 131.796 14.6504C134.234 14.2654 143.602 13.8805 149.504 14.1371C154.894 14.1371 160.155 15.0353 165.287 15.8052ZM39.2793 88.5614C33.6334 90.4862 27.2175 90.8711 21.8281 93.3091C20.9299 93.5658 20.0317 93.9507 19.2618 94.3357C17.0803 95.2339 14.6423 96.3888 12.2043 96.902C11.5627 97.0304 10.7928 97.0304 10.1512 97.0304C16.3104 85.995 29.1422 82.4021 37.2262 73.0349C38.7661 71.2385 39.7926 69.4421 40.5625 67.5173C40.6908 69.4421 41.2041 71.6235 42.2306 73.8049C40.8191 74.1898 39.536 74.8314 38.6377 75.473C34.5316 78.1677 37.0979 85.2251 39.2793 88.5614ZM1.55388 92.7959C4.37687 77.3978 19.3901 75.3447 30.5537 67.1323C34.2749 64.4377 37.6112 60.8447 39.0227 56.3536C39.2793 55.3271 39.5359 54.4289 39.6643 53.4023C39.7926 53.659 39.9209 53.7873 40.1775 53.7873C40.0492 60.7164 40.0492 67.1323 34.4032 73.0349C26.3192 81.5039 13.3591 85.4818 8.61135 96.902C8.35472 96.902 7.96979 96.7737 7.71315 96.7737C9.25297 93.8224 10.1512 90.7428 12.2043 88.0481C14.7706 84.4552 18.1069 81.8889 21.6998 79.5792C21.8281 79.4508 21.8281 79.0659 21.5715 79.1942C15.0273 81.6322 7.32818 89.0747 6.81491 96.6454C6.04501 96.3888 5.40341 96.1321 4.76182 95.7472C5.40341 89.5879 8.48304 85.4818 12.4609 80.9907C12.5892 80.8623 12.4609 80.734 12.3326 80.734C7.32821 83.3004 4.24858 89.3313 3.35036 94.7206C2.58045 94.2074 1.93883 93.5658 1.55388 92.7959ZM24.2661 106.398C21.8281 107.167 19.3901 107.937 16.6954 107.937C14.0007 108.066 11.8193 107.167 9.89453 105.756C14.514 105.884 19.6467 104.986 23.1113 101.906C23.2396 101.778 23.1113 101.65 22.983 101.65C17.9786 103.575 13.6158 105.114 8.22642 103.831C8.0981 103.831 7.84147 103.831 7.71315 103.831C7.07156 103.19 6.55827 102.548 6.045 101.778C11.1777 103.061 17.4653 102.035 21.6998 98.8268C21.8281 98.6985 21.8281 98.3135 21.5715 98.4419C15.9255 100.367 11.306 101.008 5.40341 99.8534C5.27509 99.8534 5.01846 99.8534 4.89015 99.8534L4.76182 99.725C4.12023 98.6985 3.22202 97.287 2.45212 95.8755C2.83707 96.2605 3.35035 96.6454 3.86362 96.902C5.40343 97.8003 6.94325 98.3135 8.48307 98.4419C8.61138 98.5702 8.73969 98.5702 8.99633 98.4419C14.2574 98.6985 19.9033 95.7472 25.0361 93.8224C33.505 91.8977 42.6156 90.7428 48.5182 84.3269C48.6465 85.0968 49.0315 85.995 49.4164 86.7649C43.6421 92.4109 36.1997 92.5392 29.2705 95.4905C29.1422 95.4905 29.1422 95.6189 29.2705 95.6189C36.5846 95.6189 44.1554 92.5392 50.1863 88.4331C50.3147 88.6897 50.443 88.9463 50.443 89.203C50.5713 89.5879 50.6996 89.9729 50.8279 90.4862C50.8279 90.4862 50.8279 90.4862 50.8279 90.6145C47.1067 97.9286 37.9961 96.3888 31.8369 99.8534V99.9817C38.766 99.3401 46.4651 97.9286 51.3412 92.6676C51.5978 93.5658 51.8544 94.3357 52.2394 95.1056C45.0536 103.446 32.9917 101.265 24.2661 106.398ZM77.0047 115.765C77.0047 115.636 76.8764 115.765 76.8764 115.893C77.6463 120.897 80.4693 125.004 84.0622 128.083C81.8808 126.928 79.8277 125.774 77.9029 124.619C67.6375 118.331 61.0933 109.99 53.0093 101.65C53.7792 101.265 54.4208 100.752 55.0624 100.238C56.3456 99.3401 57.7571 98.5702 58.9119 97.5436C59.5535 97.287 60.3234 96.902 60.965 96.5171C61.4783 96.2605 62.5048 95.8755 62.5048 95.2339C62.5048 95.2339 62.5048 95.1056 62.3765 95.1056C62.2482 95.1056 62.1199 94.9773 61.9916 94.9773C61.8632 94.849 61.7349 94.849 61.6066 94.849C58.6553 95.6189 57.6288 88.4331 56.9872 86.6366C56.2173 84.1986 55.704 81.5039 54.1642 79.3225H54.0359C54.0359 83.557 56.2172 88.0481 57.3721 92.026C57.8854 93.6941 58.6553 95.3622 60.0668 95.7472C59.5535 96.0038 59.1686 96.2605 58.6553 96.6454C58.527 96.6454 58.527 96.6454 58.3987 96.6454C56.7305 97.4153 55.1907 98.6985 53.5226 99.5967C52.881 99.8534 52.3677 100.367 51.5978 100.495C51.4695 100.495 51.3412 100.495 51.3412 100.623C51.0846 100.623 50.9562 100.752 50.6996 100.752C49.9297 100.752 49.5448 100.367 48.9032 100.11C49.9297 99.4684 50.8279 98.8268 51.7261 98.0569C51.8544 98.4418 52.1111 98.6985 52.496 98.9551C52.7527 99.0835 53.1376 98.9551 53.266 98.6985C53.3943 98.1852 53.2659 97.4153 53.0093 97.0304C53.2659 96.7737 53.5226 96.5171 53.7792 96.2605C54.0359 96.0038 54.0359 95.7472 53.9075 95.4905C54.2925 93.4375 52.881 90.6145 52.1111 88.818C51.4695 86.8933 50.8279 83.8136 48.7748 82.9154H48.6465C48.3899 82.9154 48.1332 82.9154 48.0049 83.1721C47.8766 83.3004 47.7483 83.4287 47.62 83.6853C47.62 83.557 47.4917 83.557 47.4917 83.4287C47.235 82.9154 46.9784 82.6588 46.5934 82.2738C46.4651 82.1455 46.3368 82.2738 46.3368 82.4021C46.2085 82.9154 46.2085 83.3004 46.2085 83.8136C46.2085 84.1986 46.3368 84.4552 46.4651 84.8402C45.9518 85.3535 45.3102 85.8667 44.6687 86.2517C44.1554 85.0968 43.6421 83.8136 43.8987 82.6588C44.2837 80.9906 46.2085 80.4774 47.62 79.8358C49.2881 79.1942 51.2129 78.5526 52.7527 77.5261C53.5226 78.0393 54.4208 78.296 55.319 78.5526C56.4739 78.8092 57.3721 78.9376 58.527 78.9376V78.8092C57.6288 78.296 56.7305 77.7827 55.8323 77.3978C55.0624 77.1411 54.2925 76.6279 53.5226 76.4995C53.3943 76.3712 53.2659 76.2429 53.1376 76.2429C51.4695 76.4995 49.9297 77.2694 48.3899 77.911C46.85 78.5526 44.797 79.1942 43.6421 80.3491C43.2572 80.734 43.0005 80.9906 42.8722 81.3756C42.3589 81.119 41.7174 80.9906 41.2041 80.8623C40.4342 80.6057 39.6643 80.3491 38.8944 80.2207C38.5094 80.2207 38.3811 80.734 38.6377 80.9907C39.2793 81.5039 40.0492 81.6322 40.8191 82.0172C41.3324 82.2738 41.974 82.5304 42.4873 82.6588C42.359 83.9419 43.0005 85.3534 43.7705 86.6366C42.7439 87.2782 41.589 87.9198 40.3059 88.4331C38.1245 85.0968 35.5581 79.1942 39.9209 76.4995C43.3855 74.3181 47.62 74.3181 51.2129 75.8579C51.3412 75.8579 51.3412 75.7296 51.3412 75.7296C50.058 74.0615 48.0049 73.4199 45.8235 73.4199C44.412 69.3137 44.412 65.0792 46.4651 61.2297C48.1332 58.1501 50.6996 56.482 53.266 54.1722C53.3943 54.0439 53.2659 53.9156 53.1376 54.0439C44.9253 55.8404 42.4873 66.4907 44.412 73.5482C44.1554 73.5482 43.7704 73.6765 43.5138 73.6765C39.5359 62.8978 46.7217 52.3758 56.2173 47.7563C65.1995 43.5219 75.4649 42.752 85.0887 41.2122C105.491 37.8759 125.381 33.3848 145.013 27.0972C154.637 24.0176 164.133 20.553 173.371 16.8318C182.739 12.9822 192.106 7.07961 201.858 4.38493C206.349 3.10176 210.583 3.87167 214.561 5.79644C208.53 4.25662 202.115 4.64159 197.238 7.84953C197.11 7.84953 197.238 7.97784 197.238 7.97784C202.756 7.20793 207.889 6.05306 213.535 7.59288C218.924 9.13269 222.774 12.3406 227.008 15.8052C228.035 16.9601 228.933 17.9866 229.831 19.1415C231.756 21.4512 233.552 24.0176 235.221 26.5839C234.964 26.4556 234.836 26.3273 234.579 26.0706C232.782 24.6592 230.858 23.1193 229.061 21.7078C225.853 19.1415 223.287 16.4468 220.977 12.9822C220.849 12.8539 220.721 12.9822 220.721 12.9822C220.464 16.8318 223.672 19.7831 226.367 22.0928C226.88 22.4777 227.393 22.8627 227.906 23.2477C226.367 22.7344 224.827 22.4777 223.159 22.3494C212.123 21.3229 200.061 23.6326 189.411 26.199C186.588 26.8405 183.765 27.6105 181.07 28.5087C179.916 27.4821 178.889 26.3273 177.734 25.1724C176.708 24.1459 175.553 22.3494 174.141 21.9645C174.398 23.376 175.938 24.6591 176.708 25.6857C177.606 26.7122 178.504 27.8671 179.402 28.8936C178.247 29.2786 177.093 29.6635 175.938 30.0485C175.424 29.2786 174.911 28.637 174.398 27.8671C173.885 27.0972 173.243 26.3273 172.473 25.9423C172.473 25.9423 172.345 25.9423 172.345 26.0706C172.345 26.9689 172.73 27.8671 173.243 28.637C173.628 29.2786 174.013 29.9202 174.398 30.6901C172.73 31.3317 171.19 31.8449 169.522 32.6148C158.358 36.2077 147.195 39.6723 136.159 43.5219C135.774 43.6502 135.261 43.7785 134.876 44.0351C134.234 43.1369 133.336 42.2387 132.695 41.4688C131.796 40.4422 130.898 39.1591 129.743 38.6458C129.743 38.6458 129.615 38.6458 129.615 38.7741C129.872 40.0573 131.027 41.2121 131.668 42.2387C132.181 43.0086 132.823 43.9068 133.465 44.5484C132.566 44.805 131.796 45.0617 130.898 45.3183C130.257 43.7785 128.845 42.367 127.947 41.0838C127.049 39.6723 126.279 37.8759 124.739 36.8493C124.739 36.8493 124.611 36.8493 124.611 36.9777C124.867 38.6458 126.022 40.1856 126.792 41.7254C127.434 43.0086 128.075 44.6767 128.973 45.9599C121.018 48.3979 112.934 50.451 105.62 54.3006C96.2524 59.1766 88.1684 65.5925 83.164 74.1898C82.6507 74.7031 82.2658 75.088 81.6242 75.3447C79.6994 76.3712 77.903 75.9863 75.8499 76.3712C75.7216 76.3712 75.5932 76.6278 75.7216 76.7562C77.1331 78.1677 79.3144 78.1677 81.2392 77.6544C80.8543 78.4243 80.5976 79.1942 80.341 79.8358C80.341 79.8358 80.341 79.8358 80.2127 79.8358C74.8233 79.4508 68.7924 78.296 63.2747 79.0659C63.1464 79.0659 63.1464 79.1942 63.2747 79.3225C68.2791 81.2473 74.1817 81.3756 79.4428 82.2738C78.6729 84.8402 78.0313 87.6632 77.6463 90.6145C77.3897 93.5658 77.2614 96.5171 77.518 99.3401C76.8764 98.9551 76.2348 98.6985 75.7216 98.5702C73.9251 97.9286 71.872 97.6719 69.9473 97.4153C68.2791 97.1587 66.7393 96.6454 65.0712 97.0304C64.9428 97.0304 64.9429 97.1587 64.9429 97.287C66.7393 98.6985 69.3057 98.9551 71.4871 99.4684C72.7702 99.725 74.1817 99.9817 75.3366 100.623C76.4914 101.137 77.0047 101.906 77.6463 102.676C77.7747 103.446 77.903 104.216 78.0313 104.986C78.0313 104.986 78.0313 104.986 77.9029 104.986C75.9782 103.575 73.2835 102.676 70.9738 103.703C70.8455 103.831 70.7172 104.088 70.9738 104.088C73.0269 104.729 75.08 105.371 76.7481 106.783C77.518 107.552 78.1596 108.579 78.9295 109.477C81.8808 120.128 88.5533 128.597 97.2789 133.986C88.81 130.906 82.6507 124.105 77.0047 115.765ZM169.265 95.2339C166.442 96.3888 163.106 98.5702 161.181 101.393C161.694 93.9507 160.411 84.4552 168.11 81.6322C172.088 82.0172 174.655 83.6853 176.836 86.1234C175.938 86.1234 175.04 86.38 174.013 86.8933C173.885 86.8933 174.013 87.0216 174.013 87.0216C175.168 87.0216 176.708 87.4065 177.863 87.7915C177.991 87.9198 178.119 87.9198 178.247 88.0481C178.761 88.818 179.274 89.5879 179.787 90.4862C176.451 89.4596 172.345 89.8446 170.035 92.026V92.1543C171.96 91.8977 174.013 91.3844 175.938 91.5127C177.991 91.641 179.531 92.2826 181.327 93.1808C181.584 93.5658 181.84 93.9507 182.097 94.464C177.862 93.3092 173.371 93.4375 169.265 95.2339ZM243.176 73.1633C237.402 90.6145 216.743 108.322 197.238 102.805C186.331 99.725 185.947 89.8446 179.146 82.7871C176.964 80.4774 173.885 78.6809 170.805 78.6809H170.677C170.42 78.6809 170.163 78.6809 170.035 78.6809C168.752 78.8092 167.469 79.3225 166.442 79.7075C162.464 81.3756 160.54 86.1233 159.898 90.9994C158.871 97.287 159.77 103.446 157.717 109.349C155.535 115.251 153.225 120.641 148.221 124.875C127.69 142.327 103.695 140.402 88.1684 118.331C73.9251 97.9286 81.7525 75.473 99.332 61.1014C108.956 53.1457 122.429 51.3492 133.721 47.2431C141.42 44.4201 149.248 41.982 156.947 39.544C160.026 38.5175 163.106 37.6192 166.057 36.5927C167.854 35.9511 169.65 35.4378 171.447 34.7963C171.575 34.7963 171.703 34.6679 171.832 34.6679C186.075 29.7919 200.446 26.199 215.716 25.4291C221.875 25.1724 228.163 25.3007 233.296 29.1503C237.787 32.4865 240.61 37.4909 242.535 42.6236C246.128 52.2475 246.384 63.2828 243.176 73.1633ZM245.101 38.2608C244.331 34.1547 243.433 29.7919 241.765 25.9423C242.021 28.637 242.535 31.2033 242.92 33.898C241.508 30.6901 239.968 27.6105 238.044 24.5308C238.813 24.4025 239.583 24.1459 240.353 24.0176C241.38 23.7609 242.406 23.6326 243.305 23.376C243.561 24.0176 243.818 24.6591 244.074 25.3007C244.588 27.4821 246.384 34.7963 245.101 38.2608Z" fill="white"/>
<path d="M226.752 30.8184C226.623 30.8184 226.623 30.6901 226.495 30.6901C226.239 30.5618 226.11 30.4335 225.854 30.4335C217.641 26.5839 208.916 29.5352 200.318 30.9467C189.155 32.7432 177.734 36.721 166.827 40.3139C166.314 40.4422 166.186 41.2121 166.057 41.5971C166.057 46.0882 164.774 48.9112 161.566 51.2209C157.46 52.1192 153.354 50.836 151.943 46.0882C151.814 45.5749 151.173 45.19 150.659 45.3183C139.239 48.9112 127.562 51.9908 116.398 56.2253C107.801 59.4333 99.5889 63.7961 93.9429 71.1102C83.5491 84.3269 82.7793 103.318 93.173 116.663C103.695 130.393 122.429 134.884 137.828 126.8C145.27 122.822 151.044 116.278 154.124 108.451C155.535 104.601 156.434 100.623 156.562 96.5171C156.819 88.1764 154.894 79.4508 164.133 75.3447C164.774 75.088 165.416 74.8314 166.057 74.7031C166.956 74.4464 167.982 74.3181 168.88 74.1898C176.451 74.3181 180.044 77.911 183.894 84.1986C185.818 87.2782 187.615 90.2295 189.925 93.0525C196.212 100.367 200.832 102.805 209.044 100.88C217.641 98.8268 225.084 94.3357 230.73 88.1764C236.247 82.1455 240.097 74.7031 241.765 66.4908C244.973 49.8094 239.84 37.4909 226.752 30.8184ZM232.783 82.2738C235.221 74.1898 235.349 65.7209 233.424 57.2519H233.296C234.579 67.1323 233.168 76.6279 229.831 85.9951C222.646 94.2074 212.637 98.9551 203.27 99.2118C199.805 99.3401 196.597 96.9021 193.774 94.0791C195.057 92.4109 196.084 90.6145 197.239 88.9464C198.522 87.0216 199.933 85.2251 200.703 83.0437C200.703 82.9154 200.575 82.9154 200.575 82.9154C199.035 84.3269 197.88 86.2517 196.597 87.9198C195.442 89.5879 194.159 91.2561 193.004 93.0525C192.106 92.026 191.336 91.1278 190.566 90.2295C192.748 85.3535 196.34 81.119 199.548 76.8845C199.677 76.6278 199.42 76.3712 199.163 76.6278C195.186 80.3491 192.619 84.7119 189.796 89.203C189.155 88.4331 188.513 87.6632 188.128 87.0216C184.92 83.0437 184.535 79.3225 180.814 75.7296C179.403 74.3181 177.734 73.1633 176.195 72.65C176.066 72.5217 175.938 72.2651 175.681 72.2651C171.575 71.2385 165.288 72.1367 161.053 74.8314C156.947 75.9863 154.637 80.9907 153.996 85.3535C153.226 90.8711 154.509 96.3888 153.482 101.906C152.327 107.552 149.761 112.942 146.04 117.176C136.929 127.698 123.456 130.265 111.779 126.672C112.806 125.26 113.704 123.592 114.73 122.181C116.014 120.256 117.425 118.459 118.195 116.278C118.195 116.15 118.067 116.15 118.067 116.15C116.527 117.561 115.372 119.486 114.089 121.154C112.934 122.822 111.651 124.362 110.624 126.158C109.598 125.774 108.571 125.389 107.545 124.875C109.726 120.128 113.319 115.893 116.398 111.787C116.527 111.53 116.27 111.274 116.014 111.53C111.907 115.251 109.469 119.871 106.518 124.49C98.819 120.641 92.4031 113.84 89.5801 104.729C86.2438 94.3357 88.4252 82.6588 94.7128 73.8049C101.514 64.0527 112.421 59.5616 123.328 56.097C128.717 54.4289 134.106 52.7608 139.496 51.0926C141.549 50.451 147.066 47.628 149.12 48.1413C149.248 48.1413 149.248 48.2696 149.376 48.2696C144.372 55.8404 138.854 64.3094 135.133 72.65C135.133 72.7783 135.133 72.7783 135.261 72.7783C140.907 65.5925 145.912 56.9952 150.403 48.9112C150.788 49.1679 151.173 49.5528 151.686 50.0661C152.327 50.5793 152.969 51.0926 153.482 51.6059C153.354 51.6059 153.097 51.6059 153.097 51.8625C147.708 61.6147 141.677 71.1102 136.673 81.2473C136.673 81.3756 136.673 81.3756 136.801 81.2473C142.96 72.0084 148.221 61.8713 153.996 52.3758C154.124 52.2475 154.124 52.1192 153.996 51.9908C157.204 54.3006 160.668 55.3271 164.389 52.2475C166.699 50.7077 167.726 48.013 168.752 44.9334C169.265 43.5219 169.265 42.6237 169.907 41.8537C171.96 39.8007 176.066 39.2874 178.376 38.7741C184.15 37.4909 189.283 35.4378 194.544 34.5396C205.323 32.8715 216.871 27.3538 226.752 33.2564C226.752 33.2564 226.752 33.2564 226.88 33.2564C227.522 34.1547 228.035 35.0529 228.548 36.0794C229.318 37.7476 229.831 39.4157 230.216 41.0838H230.345C230.345 39.1591 230.088 36.8494 229.318 34.7963C230.986 35.9511 232.526 37.2343 233.809 38.5175C228.677 46.2165 223.159 54.6855 219.438 63.1545C219.438 63.2828 219.438 63.2828 219.566 63.2828C225.212 56.097 230.216 47.4997 234.707 39.4157C235.606 40.4422 236.376 41.4688 237.146 42.752C231.756 52.3758 225.854 61.743 220.977 71.6235C220.977 71.7518 220.977 71.7518 221.106 71.6235C227.137 62.6412 232.141 52.8891 237.659 43.6502C239.199 46.6015 240.097 50.1944 240.482 54.9422C240.738 65.5925 237.787 74.9597 232.783 82.2738Z" fill="white"/>
<path d="M159.898 48.2696C161.438 48.2696 162.978 46.8581 162.85 45.3183C162.721 43.6501 161.566 42.3669 159.898 42.3669C158.358 42.3669 156.819 43.7784 156.947 45.3183C156.947 46.9864 158.23 48.2696 159.898 48.2696Z" fill="white"/>
<path d="M50.6992 79.9642C51.2125 82.9155 52.624 85.6102 53.6505 88.3048C54.6771 91.1278 55.7036 93.8225 56.4735 96.7738C56.6018 97.0304 56.9868 96.9021 56.8585 96.6455C55.9602 91.2562 54.8054 84.0704 50.8275 79.8359C50.8275 79.7075 50.6992 79.8359 50.6992 79.9642Z" fill="white"/>
<path d="M92.6601 50.451C93.6867 47.1148 95.6115 45.7033 98.9477 44.9333C99.9743 44.6767 101.001 44.4201 102.156 44.2918C102.284 44.2918 106.647 43.3935 107.16 43.7785C110.111 43.7785 110.625 44.9333 107.673 46.6015C107.16 46.9864 106.647 47.2431 106.134 47.4997C104.979 48.1413 103.824 48.5263 102.541 48.9112C99.846 49.6811 97.2796 49.5528 94.5849 49.8094C93.4301 49.9377 93.0451 51.6059 94.3283 51.8625C99.0761 53.0174 104.85 51.0926 108.828 48.5262C111.01 47.1148 113.448 44.2918 110.625 42.1104C106.647 39.0307 87.2708 43.5218 92.5319 50.5793C92.5319 50.5793 92.6601 50.5793 92.6601 50.451Z" fill="white"/>
<path d="M191.336 18.7564C192.363 15.4202 194.287 14.0087 197.624 13.2388C198.65 12.9821 199.677 12.7255 200.831 12.5972C200.96 12.5972 205.323 11.6989 205.836 12.0839C208.787 12.0839 209.3 13.2388 206.349 14.9069C205.836 15.2919 205.323 15.5485 204.809 15.8051C203.654 16.4467 202.5 16.8317 201.216 17.2166C198.522 17.9865 195.955 17.8582 193.261 18.1148C192.106 18.2432 191.721 19.9113 193.004 20.1679C197.752 21.3228 203.526 19.398 207.504 16.8317C209.685 15.4202 212.123 12.5972 209.3 10.4158C205.323 7.33615 185.947 11.8273 191.208 18.8847C191.208 18.8847 191.336 18.8848 191.336 18.7564Z" fill="white"/>
</g>
</svg>
