<svg width="265" height="177" viewBox="0 0 265 177" fill="none" xmlns="http://www.w3.org/2000/svg">
<g opacity="0.3">
<path d="M103.119 60.754C100.112 57.4601 96.5315 54.8823 93.0944 52.0181C93.0944 52.0181 92.9512 52.0181 92.9512 52.1613C93.3808 55.8848 98.8228 59.7515 101.257 62.4725C104.695 66.196 107.845 70.3492 112.285 72.927C112.571 73.0702 112.714 72.7838 112.571 72.6406C109.277 68.9171 106.556 64.4775 103.119 60.754Z" fill="white"/>
<path d="M100.827 100.281C96.3879 101.57 91.9484 103.145 87.3656 104.147C84.0717 104.863 79.3457 104.72 76.7679 107.155C76.6247 107.298 76.6247 107.584 76.9111 107.728C84.7877 109.16 94.6694 105.723 101.4 101.713C102.26 101.283 101.83 99.9942 100.827 100.281Z" fill="white"/>
<path d="M65.3094 59.8948C62.5884 64.0479 61.2995 69.0603 60.0106 73.7863C58.7217 78.5123 56.8599 83.668 57.4328 88.5372C57.4328 88.9668 58.1488 89.3964 58.4352 88.8236C60.7266 84.384 61.1563 79.0852 62.1588 74.3592C63.3045 69.6332 65.023 64.764 65.3094 59.8948Z" fill="white"/>
<path d="M213.822 26.6697C213.966 26.0969 213.25 25.6673 212.82 26.0969C210.528 27.9587 209.096 30.8229 207.521 33.2575C205.802 35.8353 203.941 38.4131 202.222 40.9909C190.622 39.8452 177.303 37.9835 166.133 41.1341C165.846 41.2774 165.703 41.4206 165.56 41.707C162.982 44.2848 161.693 47.8651 160.404 51.3022C159.545 52.8775 158.829 54.3096 157.97 55.885C155.105 61.1838 152.098 66.3394 149.234 71.6383C147.658 70.9222 145.94 71.2086 144.078 71.2086C135.485 71.0654 126.463 70.2062 117.727 70.9222C116.152 67.0555 110.423 63.332 107.846 60.611C103.406 55.885 99.2528 50.8726 94.9564 46.0034L94.8132 45.8601C94.67 45.7169 94.67 45.7169 94.5268 45.7169C94.3836 45.7169 94.2404 45.7169 94.2404 45.7169C87.6526 46.8626 81.0649 49.2972 74.6204 51.3022C70.7537 52.4479 63.8795 53.1639 60.872 55.885C60.7288 56.0282 60.5856 56.1714 60.5856 56.3146C57.2917 54.3096 55.1436 49.8701 52.2793 47.4355C50.4176 45.8601 47.6965 42.5663 45.1187 43.1391C45.1187 43.1391 45.1187 43.1391 45.1187 43.2823C44.9755 46.2898 49.2719 48.438 51.2768 50.2997C54.1411 53.0207 56.5757 55.7418 59.4399 58.4628C57.7214 62.0431 57.4349 67.6283 56.4325 70.6358C54.5707 76.7939 52.4225 82.952 50.5608 89.1101C50.4176 89.3966 50.2743 89.8262 50.5608 90.1126C54.5707 95.4114 59.7263 99.9942 64.4523 104.72C67.3166 107.584 71.1833 113.456 74.9068 114.745C78.9167 116.034 85.7909 112.31 89.6576 111.308C95.8158 109.733 102.117 108.587 108.275 107.012C110.996 109.16 113.86 111.165 116.581 113.17C119.016 114.888 121.451 117.036 124.315 117.896C124.745 118.039 124.888 117.609 124.745 117.323C122.883 114.888 120.162 113.313 117.727 111.451C115.006 109.446 112.428 107.441 109.707 105.436C111.855 99.4214 113.288 92.8336 114.863 86.6755C115.722 83.0952 118.3 77.6532 118.3 73.6432C123.169 74.2161 128.182 74.2161 133.051 74.2161C136.201 74.3593 139.782 74.0729 142.932 74.5025C147.658 75.2186 149.663 76.5075 151.812 80.6606C154.533 86.2459 157.11 92.2608 158.399 98.4189C158.829 100.281 158.829 101.713 158.543 103.002C156.681 104.577 154.676 106.152 152.814 107.728C150.666 109.446 147.945 111.308 146.513 113.743C146.37 113.743 146.37 113.886 146.226 113.886C145.797 114.172 145.94 114.745 146.226 115.031C146.226 115.031 146.226 115.031 146.37 115.031C146.37 115.031 146.37 115.031 146.513 115.031C146.656 115.175 146.942 115.175 147.229 115.031L147.372 114.888C149.377 114.029 151.096 112.454 152.814 110.878C154.103 109.876 155.392 108.73 156.681 107.728C158.399 106.439 161.55 105.436 162.266 103.145C163.125 100.567 160.977 95.8411 160.261 93.4065C159.115 89.5398 157.683 85.673 155.965 81.9495C154.819 79.3717 153.244 75.0754 151.239 72.9272C154.103 67.6283 156.967 62.3295 159.831 57.0307C162.409 52.4479 165.417 47.8651 167.135 42.8527C173.007 43.4255 179.165 42.7095 185.18 42.7095C191.052 42.7095 196.78 42.8527 202.652 43.4255C203.225 43.8552 204.227 43.9984 204.8 43.1391C206.805 40.5613 208.667 37.6971 210.385 34.8328C211.388 32.1118 213.393 29.534 213.822 26.6697ZM100.971 105.866C99.396 106.296 97.5343 106.725 95.959 107.298C95.5293 107.441 94.9565 107.441 94.5268 107.584C89.0848 108.587 82.9267 111.308 77.4846 111.594C72.1858 111.881 66.8869 104.004 63.1634 100.424C59.2967 96.5572 55.5732 92.5472 51.2768 89.1101C53.2818 85.2434 55.0003 81.0903 56.5757 76.7939C58.5806 71.4951 59.2967 64.9073 61.8745 60.0381C64.3091 55.3121 73.7611 54.1664 78.6303 52.5911C83.9291 51.0158 89.3712 49.4404 94.5268 47.2923C96.8182 51.0158 99.5392 54.5961 102.26 58.0331C105.697 62.3295 110.996 66.3394 113.86 71.0654C116.725 75.6482 112.715 84.3841 111.426 89.5398C110.137 94.5522 108.705 99.5646 107.989 104.72C105.554 104.72 103.263 105.15 100.971 105.866Z" fill="white"/>
<path d="M233.011 3.46934C231.866 8.33854 230.577 13.2077 229.288 18.0769C226.853 12.6349 225.278 6.90642 223.13 1.32116C222.557 -0.11096 219.979 -0.683808 219.693 1.17795C218.404 8.48175 215.826 15.3559 214.251 22.6597C213.964 23.8054 215.683 24.6647 216.256 23.519C218.69 18.793 220.266 13.9238 221.554 8.76817C223.13 14.3534 225.135 19.9387 228.142 24.8079C229.001 26.24 231.579 26.24 232.009 24.3783C233.728 17.7905 235.446 11.2028 237.308 4.75824C238.024 1.89401 233.727 0.605099 233.011 3.46934Z" fill="white"/>
<path d="M254.922 7.90898C252.344 10.2004 250.912 14.7831 249.766 18.9363C248.764 18.6499 247.761 18.3634 246.759 18.077C245.04 17.5042 243.322 16.9313 241.46 16.6449C241.746 15.4992 242.033 14.3535 242.319 13.2078C243.035 10.3436 244.324 7.04971 243.179 4.18547C242.892 3.46941 241.46 3.3262 241.174 4.18547C237.88 11.2029 236.448 19.5091 234.299 26.9562C233.583 29.6772 237.737 30.8229 238.453 28.1019C239.169 25.524 239.885 22.9462 240.601 20.3684C242.606 20.5116 244.611 21.3709 246.616 21.9437C247.332 22.2302 248.048 22.3734 248.764 22.6598C248.621 23.2326 248.477 23.6623 248.334 24.2351C247.761 26.0969 244.467 31.9686 247.905 32.8278C249.05 33.1143 250.196 32.5414 250.626 31.3957C251.914 26.813 253.49 22.2302 254.922 17.6474C255.781 14.6399 257.07 11.2029 255.638 8.1954C255.495 7.76577 255.065 7.76577 254.922 7.90898Z" fill="white"/>
<path d="M264.376 34.6896C262.371 33.5439 260.223 32.6846 258.075 31.9686C260.08 30.3932 262.371 28.6747 263.803 26.813C264.949 25.3808 265.236 23.2327 264.09 21.6573C261.369 18.077 256.213 20.9413 256.356 24.9512C256.356 25.524 257.216 25.8105 257.502 25.2376C258.218 23.9487 259.507 20.2252 261.942 22.087C264.376 23.9487 261.512 25.8105 260.366 26.6697C258.361 28.2451 256.356 29.9636 254.208 31.5389C253.492 32.1118 253.779 33.5439 254.781 33.8303C257.645 34.4032 260.366 35.4057 263.087 36.6946C264.52 37.5538 265.808 35.5489 264.376 34.6896Z" fill="white"/>
<path d="M154.102 101.283C154.961 102.715 157.252 101.426 156.393 99.9942C154.245 96.5571 152.383 93.12 150.951 89.3965C149.519 85.8162 148.803 81.6631 146.798 78.5124C146.798 78.3692 146.511 78.3692 146.511 78.5124C144.936 85.9595 150.235 95.4114 154.102 101.283Z" fill="white"/>
<path d="M145.078 121.906C144.362 125.916 143.646 130.069 142.929 134.079C142.643 133.076 142.213 132.074 141.784 131.215C140.065 127.491 137.631 124.34 136.628 120.33C136.199 118.325 132.905 118.182 132.475 120.187C131.759 124.054 130.756 127.921 129.897 131.644C129.181 134.508 128.035 137.373 128.608 140.38C128.751 140.81 129.324 140.953 129.611 140.667C132.761 138.089 134.194 132.933 135.196 128.064C135.626 128.78 136.055 129.639 136.485 130.355C138.633 134.365 139.779 138.518 140.925 142.958C141.354 144.963 144.505 145.106 145.078 143.101C146.653 136.37 148.228 129.782 149.517 123.051C150.09 120.33 145.507 119.042 145.078 121.906Z" fill="white"/>
<path d="M139.352 155.847C139.495 155.274 138.922 154.558 138.492 154.128C138.349 154.128 138.206 153.842 137.92 153.842H137.49C136.917 153.842 136.058 154.128 135.771 154.701C134.769 156.849 133.91 159.14 133.194 161.432C130.616 160.859 128.038 159.57 125.603 158.854C126.319 156.563 126.892 154.271 126.606 151.837C126.463 151.264 125.603 150.977 125.174 151.407C123.312 153.412 122.596 156.133 121.88 158.711C121.307 159.14 120.877 160 121.307 160.573C120.305 163.866 119.302 167.16 118.156 170.454C117.44 172.889 121.307 174.035 122.023 171.6C122.882 168.736 123.742 165.728 124.601 162.864C125.747 163.437 127.036 163.866 128.181 164.296C129.47 164.726 130.759 165.155 132.048 165.585C131.045 168.449 130.043 171.314 129.757 174.321C129.613 176.326 132.621 177.328 133.623 175.467C135.342 172.459 135.915 169.022 136.917 165.728C137.92 162.434 138.922 159.14 139.352 155.847Z" fill="white"/>
<path d="M19.769 17.0744C19.769 15.6422 17.9072 15.0694 17.1912 16.3583C15.759 18.3633 15.043 20.7979 14.3269 23.0893C11.8923 22.3732 9.31449 21.5139 6.73667 21.0843C7.45273 18.5065 8.31203 16.0719 7.88239 13.3509C7.73918 12.778 6.87991 12.4916 6.45027 12.9212C4.01567 15.3558 3.44281 18.9361 2.58354 22.23C1.58105 25.9535 0.148951 29.677 0.00573958 33.5437C-0.137472 35.5487 2.44032 35.5487 3.15637 33.9734C4.44528 31.1091 5.16138 27.8153 5.87744 24.6646C8.16883 25.6671 10.7466 26.3831 13.1812 27.0992C12.1787 30.2499 11.1762 33.4005 10.4602 36.5512C9.88734 39.2722 13.6108 40.4179 14.6133 37.8401C15.9022 34.403 16.7615 30.6795 17.764 27.0992C18.6233 23.6621 19.769 20.3682 19.769 17.0744Z" fill="white"/>
<path d="M37.5277 21.0843C33.9474 18.3633 28.3622 19.6522 25.2115 22.9461C21.0584 26.0967 19.0534 31.3956 22.2041 36.408C25.7844 41.9933 33.0882 43.5686 38.1006 38.5562C42.397 34.2598 42.6833 25.0943 37.5277 21.0843ZM35.0931 35.5487C32.2289 38.413 28.0758 37.6969 25.9276 34.5463C22.7769 30.1067 26.214 26.6696 29.7943 24.0918C31.3696 23.2325 32.945 22.9461 34.5203 23.8054C38.387 25.9535 37.8142 32.9709 35.0931 35.5487Z" fill="white"/>
</g>
</svg>
