<svg width="18" height="18" viewBox="0 0 18 18" fill="none" xmlns="http://www.w3.org/2000/svg">
<g id="close">
<path id="Shape" fill-rule="evenodd" clip-rule="evenodd" d="M0 9C0 4.03719 4.03754 0 9 0C13.9625 0 18 4.03719 18 9C18 13.9628 13.9625 18 9 18C4.03754 18 0 13.9628 0 9ZM0.692308 9C0.692308 13.5807 4.41935 17.3077 9 17.3077C13.5807 17.3077 17.3077 13.5807 17.3077 9C17.3077 4.41935 13.5807 0.692308 9 0.692308C4.41935 0.692308 0.692308 4.41935 0.692308 9Z" fill="#EDF0F3"/>
<path id="Path" fill-rule="evenodd" clip-rule="evenodd" d="M12.276 5.72397C12.1441 5.59201 11.9308 5.59201 11.7988 5.72397L9 8.52282L6.20118 5.72397C6.06922 5.59201 5.85593 5.59201 5.72397 5.72397C5.59201 5.85593 5.59201 6.06923 5.72397 6.20119L8.52279 9.00004L5.72397 11.7989C5.59201 11.9309 5.59201 12.1442 5.72397 12.2761C5.78978 12.3419 5.87618 12.375 5.96258 12.375C6.04897 12.375 6.13537 12.3419 6.20118 12.2761L9 9.47726L11.7988 12.2761C11.8646 12.3419 11.951 12.375 12.0374 12.375C12.1238 12.375 12.2102 12.3419 12.276 12.2761C12.408 12.1442 12.408 11.9309 12.276 11.7989L9.47721 9.00004L12.276 6.20119C12.408 6.06923 12.408 5.85593 12.276 5.72397Z" fill="#EDF0F3"/>
</g>
</svg>
