<svg width="128" height="36" viewBox="0 0 128 36" fill="none" xmlns="http://www.w3.org/2000/svg">
<path fill-rule="evenodd" clip-rule="evenodd" d="M30.8968 0H5.59639C2.50559 0 0 2.52827 0 5.64706V30.3529C0 33.4717 2.50559 36 5.59639 36H30.8968C33.9876 36 36.4931 33.4717 36.4931 30.3529V5.64706C36.4931 2.52827 33.9876 0 30.8968 0ZM1.86546 5.64706C1.86546 3.56787 3.53586 1.88235 5.59639 1.88235H30.8968C32.9573 1.88235 34.6277 3.56787 34.6277 5.64706V30.3529C34.6277 32.4321 32.9573 34.1176 30.8968 34.1176H5.59639C3.53586 34.1176 1.86546 32.4321 1.86546 30.3529V5.64706Z" fill="#1F2D48"/>
<path fill-rule="evenodd" clip-rule="evenodd" d="M7.06506 12.3291L9.04344 19.7857L11.4784 12.3291H13.8524L16.2873 19.7857L18.2657 12.3291H21.3855L17.9614 23.8738H14.9177L12.6654 17.1828L10.4131 23.8738H7.36943L3.94531 12.3291H7.06506ZM27.0173 18.8058C26.9259 18.4179 26.7383 18.1066 26.4542 17.8718C26.1701 17.637 25.8252 17.5196 25.4193 17.5196C24.9932 17.5196 24.6457 17.6319 24.3769 17.8565C24.108 18.081 23.9381 18.3975 23.8671 18.8058H27.0173ZM25.465 22.2049C24.349 22.2049 23.791 21.6077 23.791 20.4135H29.5891V20.1225C29.5891 19.4386 29.4928 18.8236 29.3 18.2775C29.1072 17.7314 28.8282 17.2695 28.463 16.8919C28.0978 16.5142 27.6514 16.2258 27.1238 16.0268C26.5962 15.8277 26.0027 15.7282 25.3432 15.7282C24.6736 15.7282 24.0725 15.8277 23.5399 16.0268C23.0072 16.2258 22.5532 16.5091 22.1778 16.8766C21.8025 17.244 21.5133 17.6906 21.3104 18.2163C21.1075 18.742 21.006 19.3315 21.006 19.9847C21.006 20.6176 21.1126 21.1892 21.3256 21.6996C21.5387 22.21 21.8405 22.6489 22.2311 23.0164C22.6217 23.3838 23.0909 23.6671 23.6388 23.8661C24.1867 24.0652 24.7903 24.1647 25.4498 24.1647C27.6006 24.1647 28.9449 23.2665 29.4826 21.4699H26.8194C26.5151 21.9599 26.0636 22.2049 25.465 22.2049Z" fill="#1F2D48"/>
<path fill-rule="evenodd" clip-rule="evenodd" d="M88.065 12.3048C87.9845 12.4946 87.9442 12.6973 87.9442 12.9128C87.9442 13.1283 87.9845 13.331 88.065 13.5208C88.1455 13.7106 88.2562 13.8774 88.3971 14.0211C88.538 14.1647 88.7015 14.2776 88.8877 14.3597C89.0739 14.4418 89.2726 14.4828 89.484 14.4828C89.6953 14.4828 89.8941 14.4418 90.0802 14.3597C90.2664 14.2776 90.4299 14.1647 90.5708 14.0211C90.7117 13.8774 90.8224 13.7106 90.9029 13.5208C90.9834 13.331 91.0237 13.1283 91.0237 12.9128C91.0237 12.6973 90.9834 12.4946 90.9029 12.3048C90.8224 12.115 90.7117 11.9482 90.5708 11.8045C90.4299 11.6609 90.2664 11.548 90.0802 11.4659C89.8941 11.3838 89.6953 11.3428 89.484 11.3428C89.2726 11.3428 89.0739 11.3838 88.8877 11.4659C88.7015 11.548 88.538 11.6609 88.3971 11.8045C88.2562 11.9482 88.1455 12.115 88.065 12.3048ZM77.6843 15.2063C77.3622 14.9395 77.0402 14.7419 76.7182 14.6137C76.3961 14.4854 76.0841 14.4213 75.7822 14.4213C75.3998 14.4213 75.0878 14.5136 74.8463 14.6983C74.6048 14.883 74.484 15.1242 74.484 15.4218C74.484 15.627 74.5444 15.7963 74.6652 15.9297C74.7859 16.0631 74.9444 16.1786 75.1407 16.2761C75.3369 16.3735 75.5583 16.4582 75.8049 16.53C76.0514 16.6019 76.2955 16.6788 76.537 16.7609C77.5031 17.0893 78.2101 17.528 78.6579 18.077C79.1058 18.626 79.3297 19.3417 79.3297 20.2242C79.3297 20.8194 79.2316 21.3581 79.0353 21.8404C78.8391 22.3227 78.5523 22.7358 78.1749 23.0795C77.7975 23.4233 77.3346 23.6901 76.7861 23.8799C76.2376 24.0698 75.6162 24.1647 74.9218 24.1647C73.4827 24.1647 72.1492 23.7286 70.9215 22.8563L72.1895 20.4243C72.6323 20.8245 73.0701 21.1221 73.5028 21.3171C73.9355 21.5121 74.3632 21.6095 74.7859 21.6095C75.269 21.6095 75.6288 21.4967 75.8653 21.2709C76.1018 21.0452 76.22 20.7886 76.22 20.5013C76.22 20.3268 76.1898 20.1755 76.1294 20.0472C76.069 19.9189 75.9684 19.8009 75.8275 19.6932C75.6866 19.5854 75.503 19.4854 75.2765 19.393C75.0501 19.3007 74.7759 19.1981 74.4538 19.0852C74.0714 18.962 73.6965 18.8261 73.3292 18.6773C72.9619 18.5285 72.6348 18.331 72.348 18.0847C72.0612 17.8384 71.8297 17.528 71.6536 17.1534C71.4775 16.7789 71.3894 16.3043 71.3894 15.7296C71.3894 15.155 71.4825 14.6342 71.6687 14.1673C71.8549 13.7004 72.1165 13.3002 72.4537 12.9667C72.7908 12.6332 73.2034 12.3741 73.6915 12.1894C74.1796 12.0046 74.7255 11.9123 75.3294 11.9123C75.8929 11.9123 76.4817 11.9918 77.0955 12.1509C77.7094 12.3099 78.2982 12.5434 78.8617 12.8512L77.6843 15.2063ZM46.985 12.2355L48.9474 19.7317L51.3627 12.2355H53.7176L56.1329 19.7317L58.0953 12.2355H61.1899L57.7934 23.8414H54.7743L52.5401 17.1149L50.306 23.8414H47.2869L43.8904 12.2355H46.985ZM67.1727 18.7465C67.0822 18.3566 66.896 18.0436 66.6142 17.8076C66.3324 17.5716 65.9903 17.4536 65.5877 17.4536C65.165 17.4536 64.8204 17.5665 64.5537 17.7922C64.287 18.018 64.1184 18.3361 64.048 18.7465H67.1727ZM65.633 22.1637C64.526 22.1637 63.9725 21.5634 63.9725 20.3628H69.7239V20.0703C69.7239 19.3828 69.6283 18.7645 69.4371 18.2155C69.2459 17.6665 68.9691 17.2022 68.6068 16.8225C68.2445 16.4428 67.8017 16.1529 67.2784 15.9528C66.7551 15.7527 66.1664 15.6527 65.5122 15.6527C64.848 15.6527 64.2518 15.7527 63.7234 15.9528C63.1951 16.1529 62.7447 16.4377 62.3724 16.8071C62 17.1765 61.7132 17.6255 61.5119 18.1539C61.3106 18.6824 61.21 19.275 61.21 19.9318C61.21 20.568 61.3157 21.1426 61.527 21.6557C61.7383 22.1688 62.0377 22.6101 62.4252 22.9795C62.8126 23.3489 63.2781 23.6336 63.8215 23.8338C64.365 24.0339 64.9638 24.1339 65.6179 24.1339C67.7514 24.1339 69.0848 23.2309 69.6182 21.4248H66.9765C66.6746 21.9174 66.2268 22.1637 65.633 22.1637ZM85.2371 18.0077C85.7201 18.0077 86.1982 18.1719 86.6712 18.5003V16.1298C86.1076 15.8425 85.4937 15.6988 84.8295 15.6988C84.2257 15.6988 83.6596 15.804 83.1312 16.0144C82.6029 16.2247 82.1475 16.5172 81.7651 16.8918C81.3827 17.2663 81.0808 17.7127 80.8594 18.2309C80.638 18.7491 80.5273 19.3212 80.5273 19.9472C80.5273 20.5731 80.643 21.1401 80.8745 21.648C81.1059 22.156 81.4154 22.5921 81.8028 22.9564C82.1903 23.3207 82.6381 23.6003 83.1463 23.7953C83.6546 23.9902 84.1904 24.0877 84.754 24.0877C85.3578 24.0877 85.9969 23.9389 86.6712 23.6413V21.2709C86.2283 21.6301 85.7503 21.8096 85.2371 21.8096C84.9754 21.8096 84.7289 21.7635 84.4974 21.6711C84.2659 21.5788 84.0672 21.4479 83.9011 21.2786C83.7351 21.1093 83.6042 20.9092 83.5086 20.6783C83.413 20.4474 83.3652 20.1934 83.3652 19.9164C83.3652 19.629 83.413 19.3699 83.5086 19.1391C83.6042 18.9082 83.7376 18.7081 83.9087 18.5387C84.0798 18.3694 84.2785 18.2386 84.5049 18.1462C84.7314 18.0539 84.9754 18.0077 85.2371 18.0077ZM90.8576 15.9451V23.8414H88.1254V15.9451H90.8576ZM98.2897 18.7465C98.1991 18.3566 98.0129 18.0436 97.7312 17.8076C97.4494 17.5716 97.1072 17.4536 96.7047 17.4536C96.282 17.4536 95.9373 17.5665 95.6706 17.7922C95.4039 18.018 95.2354 18.3361 95.1649 18.7465H98.2897ZM96.7499 22.1637C95.6429 22.1637 95.0894 21.5634 95.0894 20.3628H100.841V20.0703C100.841 19.3828 100.745 18.7645 100.554 18.2155C100.363 17.6665 100.086 17.2022 99.7238 16.8225C99.3615 16.4428 98.9187 16.1529 98.3954 15.9528C97.872 15.7527 97.2833 15.6527 96.6292 15.6527C95.965 15.6527 95.3687 15.7527 94.8404 15.9528C94.312 16.1529 93.8617 16.4377 93.4893 16.8071C93.1169 17.1765 92.8301 17.6255 92.6289 18.1539C92.4276 18.6824 92.3269 19.275 92.3269 19.9318C92.3269 20.568 92.4326 21.1426 92.644 21.6557C92.8553 22.1688 93.1547 22.6101 93.5421 22.9795C93.9296 23.3489 94.395 23.6336 94.9385 23.8338C95.4819 24.0339 96.0807 24.1339 96.7348 24.1339C98.8684 24.1339 100.202 23.2309 100.735 21.4248H98.0934C97.7915 21.9174 97.3437 22.1637 96.7499 22.1637ZM102.295 15.9451H105.027V16.9456C105.4 16.4839 105.777 16.1734 106.16 16.0144C106.542 15.8553 106.99 15.7758 107.503 15.7758C108.046 15.7758 108.512 15.8656 108.899 16.0452C109.287 16.2247 109.616 16.4787 109.888 16.8071C110.11 17.0739 110.26 17.3715 110.341 17.6999C110.421 18.0282 110.462 18.4028 110.462 18.8235V23.8414H107.729V19.8548C107.729 19.4649 107.702 19.1493 107.646 18.9082C107.591 18.667 107.493 18.4746 107.352 18.3309C107.231 18.2078 107.095 18.1206 106.944 18.0693C106.794 18.018 106.632 17.9923 106.461 17.9923C105.998 17.9923 105.644 18.1334 105.397 18.4156C105.151 18.6978 105.027 19.1006 105.027 19.6239V23.8414H102.295V15.9451ZM116.626 18.0077C117.109 18.0077 117.587 18.1719 118.06 18.5003V16.1298C117.496 15.8425 116.882 15.6988 116.218 15.6988C115.614 15.6988 115.048 15.804 114.52 16.0144C113.992 16.2247 113.536 16.5172 113.154 16.8918C112.771 17.2663 112.469 17.7127 112.248 18.2309C112.027 18.7491 111.916 19.3212 111.916 19.9472C111.916 20.5731 112.032 21.1401 112.263 21.648C112.495 22.156 112.804 22.5921 113.192 22.9564C113.579 23.3207 114.027 23.6003 114.535 23.7953C115.043 23.9902 115.579 24.0877 116.143 24.0877C116.747 24.0877 117.386 23.9389 118.06 23.6413V21.2709C117.617 21.6301 117.139 21.8096 116.626 21.8096C116.364 21.8096 116.118 21.7635 115.886 21.6711C115.655 21.5788 115.456 21.4479 115.29 21.2786C115.124 21.1093 114.993 20.9092 114.897 20.6783C114.802 20.4474 114.754 20.1934 114.754 19.9164C114.754 19.629 114.802 19.3699 114.897 19.1391C114.993 18.9082 115.126 18.7081 115.297 18.5387C115.468 18.3694 115.667 18.2386 115.894 18.1462C116.12 18.0539 116.364 18.0077 116.626 18.0077ZM125.175 18.7465C125.084 18.3566 124.898 18.0436 124.616 17.8076C124.335 17.5716 123.992 17.4536 123.59 17.4536C123.167 17.4536 122.822 17.5665 122.556 17.7922C122.289 18.018 122.121 18.3361 122.05 18.7465H125.175ZM123.635 22.1637C122.528 22.1637 121.975 21.5634 121.975 20.3628H127.726V20.0703C127.726 19.3828 127.63 18.7645 127.439 18.2155C127.248 17.6665 126.971 17.2022 126.609 16.8225C126.247 16.4428 125.804 16.1529 125.281 15.9528C124.757 15.7527 124.168 15.6527 123.514 15.6527C122.85 15.6527 122.254 15.7527 121.726 15.9528C121.197 16.1529 120.747 16.4377 120.374 16.8071C120.002 17.1765 119.715 17.6255 119.514 18.1539C119.313 18.6824 119.212 19.275 119.212 19.9318C119.212 20.568 119.318 21.1426 119.529 21.6557C119.74 22.1688 120.04 22.6101 120.427 22.9795C120.815 23.3489 121.28 23.6336 121.824 23.8338C122.367 24.0339 122.966 24.1339 123.62 24.1339C125.754 24.1339 127.087 23.2309 127.62 21.4248H124.979C124.677 21.9174 124.229 22.1637 123.635 22.1637Z" fill="#1F2D48"/>
<path d="M28.6028 11.5671L29.175 10.7137C29.5565 11.0693 30.1186 11.2826 30.6306 11.2826C31.0823 11.2826 31.3433 11.0896 31.3433 10.7645C31.3433 9.95186 28.8036 10.155 28.8036 8.45855C28.8036 7.4427 29.687 6.9043 30.7611 6.9043C31.3735 6.9043 32.0159 7.07699 32.4878 7.49349L32.0159 8.3976C31.7148 8.13348 31.1727 7.95063 30.7209 7.95063C30.2792 7.95063 30.0082 8.12332 30.0082 8.44839C30.0082 9.27124 32.548 9.03759 32.548 10.7341C32.548 11.6483 31.785 12.329 30.6105 12.329C29.8978 12.329 29.1348 12.0851 28.6028 11.5671Z" fill="#1F2D48"/>
</svg>
