<svg width="20" height="20" viewBox="0 0 20 20" fill="none" xmlns="http://www.w3.org/2000/svg">
<path fill-rule="evenodd" clip-rule="evenodd" d="M10 0.00012207C4.47754 0.00012207 0 4.47766 0 10.0001C0 15.5226 4.47754 20.0001 10 20.0001C15.5225 20.0001 20 15.5226 20 10.0001C20 4.47766 15.5225 0.00012207 10 0.00012207ZM10 1.25012C14.8242 1.25012 18.75 5.1759 18.75 10.0001C18.75 14.8243 14.8242 18.7501 10 18.7501C5.17578 18.7501 1.25 14.8243 1.25 10.0001C1.25 5.1759 5.17578 1.25012 10 1.25012ZM15.5188 13.1727L15.5749 13.3436C15.7055 13.7367 15.5737 14.2994 15.2808 14.5912L14.48 15.392C14.3372 15.5348 13.9185 15.6239 13.905 15.6239C11.3721 15.6459 8.93311 14.651 7.14111 12.859C5.34424 11.0609 4.34811 8.61344 4.37498 6.07192C4.37498 6.07067 4.46654 5.66418 4.60936 5.52258L5.41014 4.7218C5.70311 4.42758 6.26584 4.29454 6.66014 4.42637L6.82861 4.48254C7.22166 4.61438 7.63428 5.04895 7.74291 5.44934L8.1458 6.92762C8.25443 7.32922 8.10795 7.90051 7.81498 8.19348L7.28029 8.72817C7.80521 10.6715 9.32986 12.1962 11.2732 12.7223L11.8079 12.1876C12.1021 11.8934 12.6733 11.747 13.0737 11.8556L14.552 12.2597C14.9524 12.3695 15.3869 12.7797 15.5188 13.1727Z" fill="white"/>
</svg>
