<svg width="180" height="180" viewBox="0 0 180 180" fill="none" xmlns="http://www.w3.org/2000/svg">
<path d="M99.0879 0.523201C116.819 2.11774 134.82 5.32498 149.029 15.7976C163.684 26.5986 175.321 41.9892 179.135 59.5205C182.823 76.4727 173.795 92.7714 169.429 109.569C164.911 126.95 165.652 146.731 153.068 159.797C140.145 173.216 120.474 179.568 101.608 179.99C83.7855 180.388 68.8976 168.965 52.5419 162.043C35.9638 155.027 14.7484 153.877 4.9301 139.073C-4.88506 124.273 2.99082 104.921 2.96737 87.2921C2.94411 69.8008 -3.93557 51.1888 4.7929 35.9118C13.6234 20.4563 32.0331 13.1499 48.9573 6.79825C65.0068 0.774918 81.9651 -1.01664 99.0879 0.523201Z" fill="white"/>
</svg>
