<svg width="53" height="75" viewBox="0 0 53 75" fill="none" xmlns="http://www.w3.org/2000/svg">
<path d="M38.8759 4.6408C38.3857 3.05812 39.2713 1.37773 40.854 0.887541C42.4367 0.397354 44.1171 1.283 44.6073 2.86568L52.6273 28.7603C53.1175 30.3429 52.2319 32.0233 50.6492 32.5135C49.0665 33.0037 47.3861 32.1181 46.8959 30.5354L38.8759 4.6408Z" fill="#FFE11B"/>
<path d="M2.99935 74.2376C1.34274 74.2091 0.0228208 72.8432 0.0512314 71.1866C0.0796421 69.5299 1.44562 68.21 3.10223 68.2384L22.989 68.5795C24.6457 68.6079 25.9656 69.9739 25.9372 71.6305C25.9088 73.2871 24.5428 74.607 22.8862 74.5786L2.99935 74.2376Z" fill="#FFE11B"/>
<path d="M11.2278 52.7211C9.93782 52.2287 9.29128 50.7839 9.78366 49.4939C10.276 48.204 11.7209 47.5574 13.0108 48.0498L32.5271 55.4994C33.817 55.9918 34.4636 57.4367 33.9712 58.7266C33.4788 60.0165 32.0339 60.6631 30.744 60.1707L11.2278 52.7211Z" fill="#FFE11B"/>
</svg>
