<svg width="608" height="475" viewBox="0 0 608 475" fill="none" xmlns="http://www.w3.org/2000/svg">
<g clip-path="url(#clip0_122_23753)">
<path d="M316.036 293.185L304.732 287.942L307.336 272.037L297.55 260.563L302.213 240.443L314.099 227.427L323.814 229.188L332.411 224.341L338.803 227.131L343.823 232.73L352.311 229.308L368.783 218.447L389.657 228.873L382.61 248.34L361.333 269.032L351.903 283.275L345.727 282.207L338.105 287.943L316.036 293.185Z" fill="#F5F7FF" stroke="#5E6066" stroke-width="0.504423" stroke-linecap="round" stroke-linejoin="round"/>
<path d="M286.985 357.917L287.596 359.753L289.736 358.835L291.57 361.437L293.557 362.508L294.474 366.028L293.71 369.395L295.238 373.526L298.754 375.822L298.907 378.424L296.308 379.801L296.155 383.015L292.793 387.759L291.417 387.146L291.112 385.004L286.374 381.637L285.304 377.046L285.457 370.313L286.221 367.405L284.845 365.875L284.081 362.661L286.985 357.917Z" fill="#F5F7FF" stroke="#5E6066" stroke-width="0.504423" stroke-linecap="round" stroke-linejoin="round"/>
<path d="M505.244 396.175L502.492 396.482L498.213 390.819L497.907 389.289H494.392L491.488 386.687L489.96 386.84L486.291 384.086L479.872 381.637L479.719 376.893L477.732 373.526L488.431 371.996L490.571 374.445L493.933 376.128L492.863 378.577L497.754 381.943L496.073 385.157L500.047 387.759L503.868 389.289L505.244 396.175Z" fill="#F5F7FF" stroke="#5E6066" stroke-width="0.504423" stroke-linecap="round" stroke-linejoin="round"/>
<path d="M260.392 300.989L259.934 302.213L261.003 305.427L260.698 309.405H256.418L258.099 311.548L256.113 317.669L254.737 319.353L248.012 319.506L244.344 321.801L237.925 321.036L226.767 318.434L224.78 315.221L217.291 316.904L216.527 318.74L211.789 317.363L207.815 317.057L204.3 315.221L205.37 312.925L205.064 311.242L207.204 310.783L211.33 313.384L212.247 310.783L218.972 311.242L224.322 309.558L227.99 309.865L230.588 311.854L231.2 310.171L229.671 303.896L232.269 302.672L234.715 298.234L240.523 301.448L244.497 297.469L247.095 296.704L253.209 299.611L256.724 299.152L260.392 300.989Z" fill="#F5F7FF" stroke="#5E6066" stroke-width="0.504423" stroke-linecap="round" stroke-linejoin="round"/>
<path d="M502.492 396.482L496.684 395.104L491.793 390.666L489.959 386.841L491.487 386.688L494.391 389.289H497.907L498.212 390.819L502.492 396.482Z" fill="#F5F7FF" stroke="#5E6066" stroke-width="0.504423" stroke-linecap="round" stroke-linejoin="round"/>
<path d="M512.117 370.466L515.938 366.487L521.287 371.537L526.79 378.577L530.611 379.036L533.515 381.637L527.095 382.402L527.248 390.054L526.637 393.421L524.038 395.716L525.261 400.46L523.274 401.073L517.313 395.869L519.148 391.125L516.244 388.218L513.34 388.983L505.239 396.175L503.864 389.289L500.043 387.759L496.069 385.157L497.75 381.943L492.859 378.577L493.929 376.128L490.566 374.445L488.427 371.996L490.108 370.313L496.527 373.22L500.96 373.68L501.877 372.608L496.833 367.252L498.667 366.028L500.96 366.334L507.532 372.149L511.2 372.914L512.117 370.466Z" fill="#F5F7FF" stroke="#5E6066" stroke-width="0.504423" stroke-linecap="round" stroke-linejoin="round"/>
<path d="M177.703 280.023L177.092 286.45L175.105 286.756L174.494 292.112L167.769 287.674L163.948 288.44L158.598 284.002L154.93 280.176L151.568 280.023L150.345 276.656L156.306 274.819L161.808 275.585L168.686 273.595L173.424 277.727L177.703 280.023Z" fill="#F5F7FF" stroke="#5E6066" stroke-width="0.504423" stroke-linecap="round" stroke-linejoin="round"/>
<path d="M355.156 348.123L351.641 352.102L349.654 358.988L352.864 364.498L345.833 363.273L338.191 366.334L338.65 371.231L331.619 372.149L325.658 368.63L319.545 371.384L313.737 371.078L312.514 364.651L308.234 361.437L309.304 360.213L308.387 358.988L309.304 355.928L312.055 352.867L307.776 348.735L306.706 345.062L308.387 342.92L311.138 346.899L314.042 346.287L320.156 347.664L331.772 348.276L335.287 345.828L344.305 343.532L350.418 347.052L355.156 348.123Z" fill="#F5F7FF" stroke="#5E6066" stroke-width="0.504423" stroke-linecap="round" stroke-linejoin="round"/>
<path d="M279.345 336.951L282.249 336.798L280.567 341.083L284.694 344.909L283.93 349.347L282.249 349.806L280.873 350.724L278.428 353.02L277.816 358.376L270.48 354.703L267.27 350.571L264.061 348.429L260.24 344.756L258.253 341.848L254.126 337.257L255.349 333.278L258.406 335.574L259.934 333.431L263.449 333.278L270.327 334.962L275.676 334.809L279.345 336.951Z" fill="#F5F7FF" stroke="#5E6066" stroke-width="0.504423" stroke-linecap="round" stroke-linejoin="round"/>
<path d="M427.161 248.609L421.2 248.303L419.977 249.222L422.27 252.282L425.327 258.404L419.06 258.863L417.073 261.005L417.532 265.749L414.322 264.831L407.75 265.29L405.457 262.995L402.859 264.678L399.955 263.301L393.994 263.148L385.282 260.852L377.793 260.087L371.985 260.393L368.317 262.842L364.802 263.301L364.038 259.016L361.134 254.731L365.413 252.741L364.802 249.068L362.204 245.549L361.287 241.417H368.47L375.806 237.897L376.571 232.694L382.073 229.633L380.544 225.501L384.671 223.971L391.702 220.451L399.802 222.747L401.178 225.042L404.846 223.971L412.182 226.113L413.864 230.551L412.794 233L418.602 239.121L421.811 240.805V242.488L427.008 244.171L429.606 246.62L427.161 248.609Z" fill="#F5F7FF" stroke="#5E6066" stroke-width="0.504423" stroke-linecap="round" stroke-linejoin="round"/>
<path d="M205.062 311.242L205.368 312.925L204.298 315.221L207.814 317.057L211.788 317.363L211.329 321.189L208.119 322.872L202.311 321.648L200.783 325.474L197.115 325.78L195.739 324.249L191.612 327.616L187.791 328.075L184.429 325.933L181.678 321.801L178.01 323.331V318.893L183.512 313.537L183.206 311.089L186.722 312.007L188.709 310.323H195.128L196.656 308.334L205.062 311.242Z" fill="#F5F7FF" stroke="#5E6066" stroke-width="0.504423" stroke-linecap="round" stroke-linejoin="round"/>
<path d="M243.735 277.115L247.556 280.176L253.212 280.941L252.906 283.542L257.185 285.532L258.102 283.083L263.299 284.155L264.369 287.215L270.024 287.674L273.998 292.418H271.705L270.635 294.102L268.954 294.561L268.648 296.703L267.273 297.162L267.12 298.081L264.675 298.999L261.312 298.846L260.395 300.988L256.727 299.152L253.212 299.611L247.098 296.703L244.5 297.468L240.526 301.447L234.718 298.234L230.133 294.255L226.159 291.959L225.089 287.827L223.561 285.073L228.757 283.083L231.355 280.635L236.705 278.798L238.386 276.962L240.373 278.033L243.735 277.115Z" fill="#F5F7FF" stroke="#5E6066" stroke-width="0.504423" stroke-linecap="round" stroke-linejoin="round"/>
<path d="M234.863 252.17L237.003 256.914L235.169 259.516L238.073 262.73L240.365 267.78L240.06 271.146L243.728 277.115L240.365 278.033L238.378 276.962L236.697 278.798L231.348 280.635L228.749 283.083L223.553 285.072L225.081 287.827L226.151 291.959L230.125 294.255L234.71 298.233L232.265 302.671L229.666 303.896L231.195 310.17L230.583 311.853L227.985 309.864L224.317 309.558L218.968 311.241L212.243 310.782L211.326 313.384L207.199 310.782L205.059 311.241L196.653 308.334L195.125 310.323H188.705L189.317 303.437L192.985 297.009L181.98 295.173L178.312 292.724L178.618 288.592L177.089 286.45L177.701 280.022L176.02 270.075H180.452L182.286 266.555L183.662 257.985L182.286 254.772L183.509 252.782L189.622 252.323L191.151 254.313L195.889 249.722L193.902 246.202L193.29 240.999L198.946 242.223L203.378 240.846L203.836 244.365L211.326 246.508L211.478 249.875L218.662 248.038L222.636 245.59L231.195 249.263L234.863 252.17Z" fill="#F5F7FF" stroke="#5E6066" stroke-width="0.504423" stroke-linecap="round" stroke-linejoin="round"/>
<path d="M222.946 235.031L219.277 242.529L211.33 237.173L209.954 233.347L220.347 230.287L222.946 235.031Z" fill="#F5F7FF" stroke="#5E6066" stroke-width="0.504423" stroke-linecap="round" stroke-linejoin="round"/>
<path d="M203.38 240.846L198.948 242.223L193.293 240.999L190.083 235.796L189.472 226.461L190.389 223.859L192.376 221.105L198.489 220.646L200.935 218.044L206.437 215.442V220.186L204.603 223.247L205.673 225.696L209.647 227.073L208.118 230.593L205.978 229.675L201.24 236.255L203.38 240.846Z" fill="#F5F7FF" stroke="#5E6066" stroke-width="0.504423" stroke-linecap="round" stroke-linejoin="round"/>
<path d="M199.866 413.928L198.338 418.978L199.866 428.313L198.185 436.423L193.294 441.933L194.211 449.278L201.089 455.247L201.242 457.542L206.439 461.521L210.412 479.12L213.316 487.843L213.928 492.434L212.705 500.392L213.316 504.983L212.399 510.339L213.316 516.46L209.954 520.592L215.15 527.785L215.456 531.917L218.666 537.426L222.487 535.589L229.365 540.18L233.186 546.302L204.452 565.125L179.997 584.407L168.076 588.692L158.6 589.763L158.447 583.489L154.473 581.806L149.123 579.051L147.137 574.46L118.555 553.035L90.1272 531.611L58.7949 507.737L58.9477 505.901L59.1006 505.289L59.2534 493.658L72.8562 486.312L81.1096 484.782L87.9874 482.181L91.1971 477.284L100.979 473.458L101.437 466.112L106.175 465.194L109.996 461.674L120.848 459.991L122.376 456.165L120.237 454.022L117.333 443.616L116.874 437.648L113.97 431.373L121.765 426.017L130.63 424.334L135.674 420.355L143.468 417.294L157.224 415.611L170.674 414.846L174.801 416.223L182.29 412.397L191.002 412.244L194.364 414.54L199.866 413.928Z" fill="#F5F7FF" stroke="#5E6066" stroke-width="0.504423" stroke-linecap="round" stroke-linejoin="round"/>
<path d="M415.521 470.244L421.482 484.629L422.552 487.078L420.565 491.057L419.495 498.402L417.661 503.605L415.827 505.289L412.77 502.075L408.643 497.79L401.46 483.711L400.696 484.629L404.975 494.883L410.936 504.83L418.425 520.133L421.941 525.489L424.997 530.999L433.251 541.864L431.722 543.547L432.334 549.975L442.727 558.851L444.408 560.84H410.63H377.77H343.686L342.158 524.571L340.171 489.679L337.114 481.722L338.795 475.753L337.267 471.468L339.865 466.724L350.87 466.571L359.123 469.173L367.529 472.081L371.503 473.611L377.617 470.55L380.827 467.796L388.01 466.877L393.971 468.102L396.722 472.999L398.403 469.785L405.128 472.081L411.7 472.693L415.521 470.244Z" fill="#F5F7FF" stroke="#5E6066" stroke-width="0.504423" stroke-linecap="round" stroke-linejoin="round"/>
<path d="M326.271 199.68L327.646 201.21L323.672 206.413L327.341 214.983L324.895 217.891L319.087 217.738L312.362 214.371L309.153 213.3L303.345 214.83L303.192 209.474L300.899 210.698L295.856 207.485L294.327 202.281L302.733 199.68L311.292 198.456L319.087 199.833L326.271 199.68Z" fill="#F5F7FF" stroke="#5E6066" stroke-width="0.504423" stroke-linecap="round" stroke-linejoin="round"/>
<path d="M311.597 116.277L312.208 122.092L323.366 127.754L318.933 134.182L328.868 143.823L326.269 151.168L333.759 157.596L332.383 163.411L343.693 169.379L342.318 173.817L337.121 179.02L324.894 190.345L312.667 191.11L301.051 194.324L290.199 196.313L285.308 191.416L278.125 188.509L278.278 179.633L273.693 171.675L276.138 166.472L281.182 161.115L294.632 151.627L298.605 149.791L297.23 146.118L287.295 142.139L284.544 138.773L281.793 125.765L270.789 120.102L261.618 115.97L264.981 113.828L272.775 118.113L280.876 117.807L288.059 119.796L293.256 116.124L294.937 110.002L303.955 107.248L312.82 110.461L311.597 116.277Z" fill="#F5F7FF" stroke="#5E6066" stroke-width="0.504423" stroke-linecap="round" stroke-linejoin="round"/>
<path d="M86.3057 251.1L80.9563 249.264L76.3711 249.417L78.2052 244.366L76.8296 239.469L82.9432 239.01L90.4324 244.826L86.3057 251.1Z" fill="#F5F7FF" stroke="#5E6066" stroke-width="0.504423" stroke-linecap="round" stroke-linejoin="round"/>
<path d="M110.612 207.179L102.817 217.126L110.001 215.902H117.796L115.809 223.4L109.236 231.664L116.726 232.123L117.184 233.194L123.603 244.06L128.494 245.59L132.927 256.303L135.066 259.975L144.084 261.659L143.167 267.78L139.499 270.535L142.403 275.432L135.678 280.329L125.743 280.176L112.905 282.93L109.542 280.941L104.498 285.379L97.6206 284.308L92.1184 287.981L88.2974 286.144L99.4547 276.197L106.18 274.054L94.5638 272.524L92.5769 268.698L100.372 265.791L96.5508 260.741L98.0792 254.619L108.931 255.537L110.154 250.028L105.415 244.366L105.263 244.213L96.5508 242.53L94.8695 240.081L97.6206 235.949L95.328 233.348L91.3542 237.785L91.2014 228.756L87.8389 224.165L90.7428 214.677L96.5508 207.332L102.053 207.944L110.612 207.179Z" fill="#F5F7FF" stroke="#5E6066" stroke-width="0.504423" stroke-linecap="round" stroke-linejoin="round"/>
<path d="M482.164 357.764L489.959 359.754L493.169 363.733L498.671 366.028L496.837 367.252L501.88 372.609L500.963 373.68L496.531 373.221L490.112 370.313L488.431 371.996L477.732 373.527L469.173 368.63L460.766 369.089L461.225 364.957L458.015 358.376L452.819 354.704L448.234 353.632L444.871 350.725L445.482 349.5L452.513 351.184L464.282 352.714L475.898 357.458L477.732 359.295L482.164 357.764Z" fill="#F5F7FF" stroke="#5E6066" stroke-width="0.504423" stroke-linecap="round" stroke-linejoin="round"/>
<path d="M324.736 426.17L329.474 429.537L335.741 428.925L341.854 429.537V431.374L346.134 430.149L345.37 433.057L333.754 433.822L333.601 432.292L323.514 430.302L324.736 426.17Z" fill="#F5F7FF" stroke="#5E6066" stroke-width="0.504423" stroke-linecap="round" stroke-linejoin="round"/>
<path d="M338.8 376.128L333.909 375.822L329.782 374.904L320.306 377.352L326.42 382.862L322.599 384.545H318.166L313.428 379.495L312.053 381.637L314.498 387.453L318.931 392.044L316.027 394.186L320.917 398.624L325.197 401.532L325.808 407.041L318.166 404.439L320.917 409.49L315.874 410.408L319.695 419.131L314.345 419.284L307.315 414.999L303.647 407.194L301.66 400.614L298.144 396.176L293.559 390.513L292.795 387.759L296.157 383.015L296.31 379.801L298.909 378.424L298.756 375.822L303.952 375.057L306.703 372.914L310.983 373.067L312.206 371.384L313.734 371.078L319.542 371.384L325.656 368.629L331.616 372.149L338.647 371.231L338.188 366.334L342.315 368.936L340.634 375.057L338.8 376.128Z" fill="#F5F7FF" stroke="#5E6066" stroke-width="0.504423" stroke-linecap="round" stroke-linejoin="round"/>
<path d="M277.052 326.698L279.345 330.524L281.943 333.279L279.345 336.952L275.676 334.809L270.327 334.962L263.449 333.279L259.934 333.432L258.406 335.574L255.349 333.279L254.126 337.258L258.253 341.849L260.24 344.756L264.061 348.429L267.27 350.572L270.48 354.704L277.816 358.376L277.052 359.907L269.41 356.387L264.519 352.867L257.183 349.96L249.999 342.92L251.528 342.155L247.707 338.023L247.248 334.809L242.204 333.279L240.065 337.411L237.619 334.197V330.83L237.772 330.677L243.274 330.983L244.497 329.453L247.248 330.983L250.305 331.136L250.152 328.535L252.75 327.464L253.209 323.638L259.17 321.036L261.615 322.26L267.729 326.392L274.301 328.229L277.052 326.698Z" fill="#F5F7FF" stroke="#5E6066" stroke-width="0.504423" stroke-linecap="round" stroke-linejoin="round"/>
<path d="M299.513 302.672L304.098 305.274L304.862 307.875L300.43 309.865L297.526 316.292L293.552 322.873L287.591 324.709L282.7 324.25L277.045 326.698L274.294 328.229L267.722 326.392L261.609 322.26L259.163 321.036L257.329 317.822L256.106 317.669L258.093 311.548L256.412 309.406H260.692L260.997 305.427L265.124 308.028L268.028 308.946L274.294 307.875L274.753 305.886L277.657 305.58L281.172 304.202L282.089 304.815L285.604 303.59L287.133 301.295L289.578 300.683L297.985 303.59L299.513 302.672Z" fill="#F5F7FF" stroke="#5E6066" stroke-width="0.504423" stroke-linecap="round" stroke-linejoin="round"/>
<path d="M86.3072 251.1L87.3771 257.833L81.4163 266.25L67.9664 271.759L57.5732 270.382L64.1454 260.588L60.9357 251.1L71.176 243.754L76.8311 239.469L78.2067 244.366L76.3726 249.416L80.9578 249.263L86.3072 251.1Z" fill="#F5F7FF" stroke="#5E6066" stroke-width="0.504423" stroke-linecap="round" stroke-linejoin="round"/>
<path d="M502.491 396.482L505.242 396.176L513.342 388.983L516.246 388.218L519.15 391.126L517.316 395.87L523.277 401.073L525.264 400.461L529.085 407.806L537.185 409.796L543.758 414.693L555.526 416.376L567.753 413.775L568.059 411.479L574.784 409.643L579.369 403.981L584.872 404.287L587.928 402.45L593.889 403.369L603.977 408.419L610.549 409.49L621.706 418.06L627.82 418.519L630.418 426.63L629.501 438.872L628.737 446.065L632.558 447.595L630.112 452.951L634.239 460.756L636.073 467.031L642.645 468.714L644.326 474.988L638.366 483.864L643.256 489.067L647.536 495.036L656.248 499.321L657.776 507.891L661.903 509.574L663.278 514.012L651.815 519.215L650.134 530.54L633.933 527.632L624.457 525.336L614.828 524.112L609.784 512.023L605.505 510.339L599.239 512.023L591.444 516.767L580.745 513.553L571.422 505.901L563.015 503.147L556.29 493.811L548.343 480.804L544.063 482.334L538.408 479.12L535.81 482.946L530.461 477.743L529.696 472.54H527.098L527.404 465.347L522.054 458.002L511.203 452.492L504.172 443.157L504.936 435.506L508.451 432.139L507.076 426.477L501.268 423.416L494.084 411.785L488.276 403.981L489.346 400.92L484.914 389.748L489.958 386.841L491.792 390.667L496.683 395.105L502.491 396.482Z" fill="#F5F7FF" stroke="#5E6066" stroke-width="0.504423" stroke-linecap="round" stroke-linejoin="round"/>
<path d="M494.086 411.785L501.269 423.416L507.077 426.476L508.453 432.139L504.937 435.505L504.173 443.157L511.204 452.492L522.056 458.001L527.405 465.347L527.099 472.539H529.698L530.462 477.743L535.811 482.946L530.767 482.487L525.112 481.568L520.069 491.057L504.479 490.291L478.802 470.55L465.658 463.664L455.264 460.909L450.526 448.972L467.339 438.719L468.867 426.935L467.033 419.743L471.16 417.294L474.369 411.173L477.579 409.643L487.208 411.02L490.418 413.468L494.086 411.785Z" fill="#F5F7FF" stroke="#5E6066" stroke-width="0.504423" stroke-linecap="round" stroke-linejoin="round"/>
<path d="M426.226 450.043L426.838 454.022L425.921 455.553H426.073L425.004 458.613L421.794 457.389L420.724 463.817L423.017 464.888L421.03 466.265L420.877 468.867L424.698 467.642L425.309 471.468L422.558 487.078L421.488 484.629L415.527 470.244L417.667 467.03L417.056 466.418L418.737 461.827L419.654 454.481L420.571 451.88H420.724H423.475L424.086 450.196L426.226 450.043Z" fill="#F5F7FF" stroke="#5E6066" stroke-width="0.504423" stroke-linecap="round" stroke-linejoin="round"/>
<path d="M256.723 401.379L254.125 409.184L255.501 412.091L254.125 417.141L247.706 413.469L243.579 412.397L232.116 407.5L232.88 402.45L242.357 403.368L250.61 402.297L256.723 401.379Z" fill="#F5F7FF" stroke="#5E6066" stroke-width="0.504423" stroke-linecap="round" stroke-linejoin="round"/>
<path d="M204.755 372.302L209.799 379.189L209.188 392.197L205.519 391.585L202.31 394.798L199.253 392.197L198.489 380.413L196.502 374.904L200.934 375.363L204.755 372.302Z" fill="#F5F7FF" stroke="#5E6066" stroke-width="0.504423" stroke-linecap="round" stroke-linejoin="round"/>
<path d="M237.927 321.036L237.316 325.781L239.456 329.912L233.189 328.382L227.228 331.902L227.84 336.646L227.076 339.401L229.979 344.298L237.621 349.195L242.054 357.305L251.377 365.11L257.491 364.957L259.631 367.1L257.491 369.089L264.827 372.609L270.941 375.517L278.124 380.72L279.041 382.403L277.819 385.923L273.081 381.332L266.05 379.801L263.146 386.076L269.107 389.749L268.495 394.799L265.286 395.411L261.465 403.828L258.102 404.593L257.949 401.532L259.325 396.329L261.006 394.187L257.491 388.524L254.74 383.627L251.377 382.403L248.626 378.271L243.429 376.435L239.761 372.456L233.953 371.844L227.381 367.559L219.892 361.131L214.237 355.622L211.333 345.981L207.359 344.91L200.94 341.696L197.425 342.92L192.992 347.511L189.783 348.123L190.547 343.992L186.267 342.767L183.975 335.269L186.573 332.361L184.28 328.688L184.433 325.934L187.796 328.076L191.617 327.617L195.743 324.25L197.119 325.781L200.787 325.474L202.315 321.649L208.123 322.873L211.333 321.19L211.792 317.364L216.53 318.741L217.294 316.905L224.783 315.221L226.77 318.435L237.927 321.036Z" fill="#F5F7FF" stroke="#5E6066" stroke-width="0.504423" stroke-linecap="round" stroke-linejoin="round"/>
<path d="M455.259 460.909L453.883 462.439L437.988 467.336L447.158 477.283L444.713 478.814L443.643 482.181L437.376 483.558L435.695 487.078L432.485 490.138L423.009 488.455L422.551 487.078L425.302 471.468L424.691 467.642L425.608 464.735L424.996 458.613L426.066 455.553L435.695 459.531L450.521 448.972L455.259 460.909Z" fill="#F5F7FF" stroke="#5E6066" stroke-width="0.504423" stroke-linecap="round" stroke-linejoin="round"/>
<path d="M669.546 254.619L676.27 254.16L690.332 245.284L689.109 248.345L701.948 255.538L729.917 279.411L731.599 274.514L744.437 279.87L753.913 277.421L758.957 279.105L765.223 284.614L771.337 286.45L776.381 290.582L785.551 289.205L792.276 295.02L789.372 301.448L783.564 302.366L787.385 311.854L784.94 316.292L768.433 313.078L769.961 330.371L766.905 332.514L752.996 336.339L766.446 353.173L762.014 355.622L764.612 361.284L759.263 359.754L754.066 356.234L741.992 355.316L728.847 355.01L726.402 356.081L713.869 351.949L710.048 354.091L710.812 359.754L696.751 356.387L692.013 357.764L691.554 362.049L687.581 363.886L679.327 370.619L677.952 377.659H674.895L671.38 373.068L661.139 372.762L657.318 364.804L653.344 364.651L651.052 354.857L639.436 347.817L626.292 348.582L617.58 349.959L607.492 341.237L600.156 337.564L586.095 330.677L584.413 329.912L566.073 335.574L575.549 371.384L571.575 371.843L564.239 364.192L558.278 361.437L549.719 363.426L546.968 366.793L546.051 364.345L546.968 360.366L544.675 356.999L534.74 353.632L529.085 344.909L524.194 342.461L523.277 339.247L531.072 340.165L529.544 333.126L535.81 331.595L542.994 332.973L541.924 323.638L539.02 317.669L531.378 318.128L524.194 315.833L516.4 319.965L509.675 322.107L505.395 320.424L505.089 315.527L498.517 309.099L493.015 309.406L484.915 302.978L487.513 295.632L484.762 293.796L488.124 283.237L497.295 288.746L496.378 281.859L508.758 271.606L520.373 271.3L538.714 277.881L548.802 281.706L555.527 277.728L567.295 277.574L578.453 282.472L579.675 279.564L590.374 280.023L590.68 275.585L576.313 269.005L581.662 264.414L579.37 261.965L585.483 259.516L577.688 253.089L579.828 249.875L605.811 246.662L608.409 244.366L625.069 240.846L629.807 237.021L643.716 239.01L650.441 248.651L657.013 246.356L667.864 249.569L669.546 254.619Z" fill="#F5F7FF" stroke="#5E6066" stroke-width="0.504423" stroke-linecap="round" stroke-linejoin="round"/>
<path d="M426.226 450.044L424.086 450.197L423.475 451.88H420.724L422.711 443.769L426.073 436.883V436.577L429.894 437.036L431.728 440.862L427.601 444.687L426.226 450.044Z" fill="#F5F7FF" stroke="#5E6066" stroke-width="0.504423" stroke-linecap="round" stroke-linejoin="round"/>
<path d="M339.868 466.724L337.27 471.468L338.798 475.753L337.117 481.722L340.174 489.679L342.161 524.571L343.689 560.84L344.453 580.428H334.672V584.56L300.13 565.737L265.741 546.914L257.335 552.27L251.527 555.943L246.636 550.587L233.186 546.302L229.365 540.181L222.487 535.59L218.666 537.426L215.456 531.917L215.151 527.785L209.954 520.592L213.317 516.46L212.4 510.339L213.317 504.983L212.705 500.392L213.928 492.434L213.317 487.843L210.413 479.12L214.387 476.978L214.998 472.693L214.081 468.714L219.583 464.888L222.029 461.674L226.002 458.92L226.155 451.421L235.937 454.788L239.452 453.869L246.33 455.553L257.487 459.991L261.767 468.714L269.256 470.55L281.178 474.682L290.348 479.579L294.169 476.978L297.99 472.54L295.545 465.041L297.837 460.144L303.492 455.553L309.147 454.329L320.458 456.318L323.514 460.603L326.571 460.756L329.322 462.439L337.576 463.511L339.868 466.724Z" fill="#F5F7FF" stroke="#5E6066" stroke-width="0.504423" stroke-linecap="round" stroke-linejoin="round"/>
<path d="M322.293 234.878L323.821 239.01L318.319 242.07L317.555 247.273L310.218 250.793H303.035L300.895 247.886L297.074 246.814L296.157 244.519L296.463 241.917L293.1 240.54L285.305 238.857L282.707 231.052L290.502 228.297L302.576 228.909L309.454 227.991L310.83 229.828L314.651 230.44L322.293 234.878Z" fill="#F5F7FF" stroke="#5E6066" stroke-width="0.504423" stroke-linecap="round" stroke-linejoin="round"/>
<path d="M178.318 292.725L176.178 292.878L174.497 292.112L175.108 286.756L177.095 286.45L178.624 288.593L178.318 292.725Z" fill="#F5F7FF" stroke="#5E6066" stroke-width="0.504423" stroke-linecap="round" stroke-linejoin="round"/>
<path d="M324.887 217.891L328.708 219.881L330.236 224.319L333.446 229.828L326.415 233.348L322.288 234.878L314.646 230.44L310.825 229.828L309.45 227.992L302.572 228.91L290.498 228.298L282.703 231.052L281.938 224.166L284.537 218.35L290.803 215.29L297.528 222.176L303.183 221.87L303.336 214.831L309.144 213.3L312.354 214.372L319.079 217.738L324.887 217.891Z" fill="#F5F7FF" stroke="#5E6066" stroke-width="0.504423" stroke-linecap="round" stroke-linejoin="round"/>
<path d="M113.969 431.373L116.873 437.648L117.331 443.616L120.235 454.022L122.375 456.165L120.846 459.991L109.995 461.674L106.174 465.194L101.436 466.112L100.977 473.458L91.1956 477.284L87.9859 482.181L81.108 484.782L72.8547 486.313L59.2519 493.658L59.0991 505.289H57.7235L57.8763 510.492L52.6798 510.798L49.9287 513.093H46.1077L43.0509 511.716L36.0202 512.787L33.1163 520.439L30.3651 521.204L26.2385 533.6L14.1641 544.159L11.1073 557.779L7.43905 562.217L6.36925 565.737L-12.7358 566.502H-12.8887L-12.4302 561.911L-9.06767 559.31L-6.16367 554.107L-6.62217 550.74L-3.56536 543.853L1.32545 537.579L4.22945 536.049L6.67485 530.386L6.98055 525.03L10.1903 519.062L15.9982 515.389L21.5004 505.442L21.6533 505.289L26.0856 501.463L33.8805 500.392L40.6054 493.658L44.8849 491.057L52.0684 482.793L50.2343 470.703L53.5968 462.133L54.9724 456.93L60.4746 450.35L68.728 445.912L74.9944 441.78L80.6495 431.679L83.4006 425.558L89.3614 425.711L94.0995 429.843L101.894 429.231L110.301 431.373H113.969Z" fill="#F5F7FF" stroke="#5E6066" stroke-width="0.504423" stroke-linecap="round" stroke-linejoin="round"/>
<path d="M350.261 330.83L348.274 326.392L348.58 322.26L347.663 318.128L342.466 312.313L339.409 308.334L336.658 305.579L334.213 304.508L335.894 303.131L340.785 302.212L346.899 305.12L349.955 305.579L353.929 308.181L353.776 311.394L356.833 312.925L358.515 316.904L361.571 319.352L361.266 320.883L362.794 321.801L360.807 322.566L356.222 322.26L355.305 320.883L353.776 321.648L354.694 323.331L353.012 326.545L352.095 329.758L350.261 330.83Z" fill="#F5F7FF" stroke="#5E6066" stroke-width="0.504423" stroke-linecap="round" stroke-linejoin="round"/>
<path d="M313.733 371.078L312.205 371.384L310.982 373.067L306.702 372.914L303.951 375.057L298.755 375.822L295.239 373.526L293.711 369.394L294.475 366.028L295.545 366.181L295.698 364.191L300.13 362.661L301.964 362.202L304.563 361.743L308.231 361.437L312.51 364.65L313.733 371.078Z" fill="#F5F7FF" stroke="#5E6066" stroke-width="0.504423" stroke-linecap="round" stroke-linejoin="round"/>
<path d="M290.96 356.693L289.738 358.835L287.598 359.753L286.986 357.917L284.082 362.661L284.847 365.875L283.165 365.11L280.567 361.896L277.052 359.906L277.816 358.376L278.427 353.02L280.873 350.724L282.248 349.806L284.388 351.49L285.764 352.867L288.362 353.938L291.572 355.928L290.96 356.693Z" fill="#F5F7FF" stroke="#5E6066" stroke-width="0.504423" stroke-linecap="round" stroke-linejoin="round"/>
<path d="M326.265 112.298L316.484 115.512L311.593 116.277L312.816 110.461L303.951 107.248L294.933 110.002L293.252 116.124L288.055 119.796L280.872 117.807L272.771 118.113L264.976 113.828L261.614 115.971L257.64 116.277L257.793 121.786L245.566 120.409L244.649 125.153H238.535L235.02 131.121L229.823 140.456L221.111 152.546L223.862 155.606L221.876 158.973L215.303 158.82L211.635 167.084L213.164 178.868L217.902 183.306L216.679 193.865L211.482 199.986L208.731 205.189L203.688 199.68L190.543 210.086L181.22 212.229L171.285 207.638L168.534 197.997L165.478 177.337L171.591 171.675L188.862 164.176L201.242 155.147L212.247 143.211L225.849 126.836L235.631 120.562L251.374 110.155L264.365 106.483L274.605 106.942L282.553 100.208L293.863 100.514L304.562 98.9839L325.501 104.952L318.012 107.095L326.265 112.298Z" fill="#F5F7FF" stroke="#5E6066" stroke-width="0.504423" stroke-linecap="round" stroke-linejoin="round"/>
<path d="M269.559 47.5647L257.943 50.4724L247.55 48.789L250.912 46.9526L246.938 44.6571L258.096 43.2798L261 45.8814L269.559 47.5647Z" fill="#F5F7FF" stroke="#5E6066" stroke-width="0.504423" stroke-linecap="round" stroke-linejoin="round"/>
<path d="M230.429 34.5563L249.687 39.7594L236.543 42.514L234.709 47.7172L230.123 49.0945L228.748 55.2158L222.023 55.5219L209.031 51.0839L213.617 48.4823L204.905 46.3399L193.136 40.3715L188.245 35.0154L202.459 32.5668L205.975 34.8623H213.617L215.145 32.5668L223.093 32.2607L230.429 34.5563Z" fill="#F5F7FF" stroke="#5E6066" stroke-width="0.504423" stroke-linecap="round" stroke-linejoin="round"/>
<path d="M267.735 29.9656L279.045 32.2611L272.32 35.9339L256.883 36.6991L240.529 35.4748L239.001 33.6384H231.206L224.634 30.5777L240.682 28.7413L248.935 30.2717L253.673 28.2822L267.735 29.9656Z" fill="#F5F7FF" stroke="#5E6066" stroke-width="0.504423" stroke-linecap="round" stroke-linejoin="round"/>
<path d="M274.609 245.897L283.626 246.968L297.076 246.815L300.897 247.886L303.037 250.794L303.954 254.926L306.552 258.445L307.163 262.118L302.884 264.108L305.788 268.393L306.552 272.678L311.443 280.941L310.984 283.543L307.469 284.614L301.661 292.572L304.107 296.857L302.425 296.245L294.783 292.572L289.434 293.949L285.766 293.031L281.486 295.02L277.36 291.654L274.456 293.031L273.997 292.419L270.023 287.675L264.368 287.216L263.298 284.155L258.102 283.084L257.185 285.532L252.905 283.543L253.211 280.941L247.556 280.176L243.735 277.116L240.067 271.147L240.372 267.78L238.08 262.73L235.176 259.517L237.01 256.915L234.87 252.171L239.608 249.416L250.46 245.131L259.325 242.071L266.661 243.601L267.578 245.897H274.609Z" fill="#F5F7FF" stroke="#5E6066" stroke-width="0.504423" stroke-linecap="round" stroke-linejoin="round"/>
<path d="M425.003 458.613L425.614 464.735L424.697 467.642L420.876 468.867L421.029 466.265L423.016 464.888L420.724 463.817L421.793 457.389L425.003 458.613Z" fill="#F5F7FF" stroke="#5E6066" stroke-width="0.504423" stroke-linecap="round" stroke-linejoin="round"/>
<path d="M334.215 304.508L336.66 305.58L339.411 308.334L342.468 312.313L347.665 318.128L348.582 322.26L348.276 326.392L350.263 330.83L353.931 332.667L357.447 330.983L361.115 332.667L361.726 335.268L358.211 337.258L355.765 336.339L355.154 348.123L350.416 347.052L344.302 343.532L335.285 345.827L331.769 348.276L320.153 347.664L314.04 346.287L311.136 346.899L308.385 342.92L306.856 341.236L308.385 339.553L306.398 338.482L304.105 340.624L299.367 337.717L298.297 333.738L293.406 331.595L292.184 328.382L287.599 324.709L293.559 322.872L297.533 316.292L300.437 309.864L304.869 307.875L307.926 305.733L312.817 306.804H317.708L321.529 309.252L323.974 307.722L329.477 306.804L331.005 304.508H334.215Z" fill="#F5F7FF" stroke="#5E6066" stroke-width="0.504423" stroke-linecap="round" stroke-linejoin="round"/>
<path d="M308.384 342.92L306.703 345.062L307.773 348.735L312.052 352.867L309.301 355.928L308.384 358.988L309.301 360.212L308.231 361.437L304.563 361.743L301.965 362.202L301.506 361.437L302.423 360.366L303.035 357.917L301.965 358.07L300.283 356.234L298.908 355.774L297.685 354.244L296.157 353.632L294.934 352.255L293.559 352.867L292.794 356.081L290.96 356.693L291.572 355.928L288.362 353.938L285.764 352.867L284.388 351.49L282.248 349.806L283.93 349.347L284.694 344.909L280.567 341.083L282.248 336.798L279.344 336.951L281.943 333.278L279.344 330.524L277.052 326.698L282.707 324.25L287.598 324.709L292.183 328.381L293.406 331.595L298.297 333.738L299.366 337.716L304.104 340.624L306.397 338.482L308.384 339.553L306.856 341.236L308.384 342.92Z" fill="#F5F7FF" stroke="#5E6066" stroke-width="0.504423" stroke-linecap="round" stroke-linejoin="round"/>
<path d="M302.428 296.244L300.594 298.846L299.524 302.672L297.996 303.59L289.589 300.682L287.144 301.294L285.616 303.59L282.1 304.814L281.183 304.202L277.668 305.579L274.764 305.885L274.305 307.875L268.039 308.946L265.135 308.028L261.008 305.426L259.938 302.213L260.397 300.988L261.314 298.846L264.676 298.999L267.122 298.081L267.275 297.163L268.65 296.703L268.956 294.561L270.637 294.102L271.707 292.418H274L274.458 293.031L277.362 291.653L281.489 295.02L285.768 293.031L289.437 293.949L294.786 292.572L302.428 296.244Z" fill="#F5F7FF" stroke="#5E6066" stroke-width="0.504423" stroke-linecap="round" stroke-linejoin="round"/>
<path d="M259.17 321.036L253.209 323.637L252.75 327.463L250.152 328.534L250.305 331.136L247.248 330.983L244.497 329.453L243.274 330.983L237.772 330.677L239.453 329.912L237.313 325.78L237.925 321.036L244.344 321.801L248.012 319.505L254.737 319.352L256.113 317.669L257.336 317.822L259.17 321.036Z" fill="#F5F7FF" stroke="#5E6066" stroke-width="0.504423" stroke-linecap="round" stroke-linejoin="round"/>
<path d="M287.288 142.139L276.589 144.588L271.24 150.556L273.227 155.913L263.751 162.799L251.829 170.451L248.62 182.846L254.275 189.121L261.611 194.171L256.567 204.271L249.537 206.414L248.62 221.717L245.41 230.44L236.698 229.522L233.336 236.867L224.93 237.327L222.026 228.604L215.148 218.044L208.729 205.189L211.48 199.986L216.676 193.865L217.899 183.306L213.161 178.868L211.632 167.084L215.301 158.82L221.873 158.973L223.86 155.606L221.109 152.546L229.82 140.456L235.017 131.121L238.532 125.153H244.646L245.563 120.409L257.79 121.786L257.637 116.277L261.611 115.971L270.782 120.103L281.786 125.765L284.537 138.773L287.288 142.139Z" fill="#F5F7FF" stroke="#5E6066" stroke-width="0.504423" stroke-linecap="round" stroke-linejoin="round"/>
<path d="M450.524 448.972L435.699 459.532L426.07 455.553H425.917L426.834 454.022L426.223 450.043L427.598 444.687L431.725 440.861L429.891 437.036L426.07 436.576L424.389 429.078L425.917 424.946L427.904 422.803L429.738 420.661L429.432 415.305L432.336 417.141L440.895 414.387L445.481 416.223H452.206L460.918 412.55L465.35 412.703L474.367 411.173L471.158 417.294L467.031 419.743L468.865 426.935L467.337 438.719L450.524 448.972Z" fill="#F5F7FF" stroke="#5E6066" stroke-width="0.504423" stroke-linecap="round" stroke-linejoin="round"/>
<path d="M669.545 409.949L667.099 409.643L662.667 407.041L662.208 410.408L655.789 412.397L656.095 420.202L652.121 423.263L646.007 424.64L645.396 429.078L639.435 430.455L630.418 426.629L627.819 418.519L621.706 418.06L610.548 409.49L603.976 408.418L593.889 403.368L587.928 402.45L584.871 404.287L579.369 403.981L574.784 409.643L568.059 411.479L565.155 404.593L564.238 394.339L557.207 390.973L557.818 384.392L552.469 383.78L552.316 375.516L560.417 377.965L566.683 374.904L559.5 368.936L555.832 363.427L550.024 365.875L550.941 373.068L546.967 366.793L549.718 363.427L558.277 361.437L564.238 364.192L571.574 371.843L575.548 371.384L584.565 371.231L581.967 366.334L587.775 362.967L592.972 357.305L605.046 362.508L607.95 370.16L611.465 372.149L619.872 371.69L623.081 373.527L629.653 383.627L640.505 390.36L646.924 394.951L656.553 399.696L668.322 403.981L669.545 409.949Z" fill="#F5F7FF" stroke="#5E6066" stroke-width="0.504423" stroke-linecap="round" stroke-linejoin="round"/>
<path d="M226.156 451.421L226.003 458.919L222.029 461.674L219.584 464.888L214.081 468.714L214.998 472.692L214.387 476.977L210.413 479.12L206.439 461.521L201.243 457.542L201.09 455.247L194.212 449.278L193.295 441.933L198.186 436.423L199.867 428.313L198.339 418.978L199.867 413.927L208.579 410.102L214.234 411.173V416.223L220.959 412.55L221.57 414.386L217.749 419.284L217.902 423.722L220.806 426.17L220.042 434.74L214.693 439.637L216.527 444.993L220.806 445.146L222.946 449.89L226.156 451.421Z" fill="#F5F7FF" stroke="#5E6066" stroke-width="0.504423" stroke-linecap="round" stroke-linejoin="round"/>
<path d="M460.758 369.088L469.164 368.629L477.724 373.526L479.71 376.893L479.863 381.637L486.283 384.086L489.951 386.84L484.907 389.748L489.339 400.92L488.269 403.98L494.078 411.785L490.409 413.468L487.2 411.02L477.571 409.642L474.361 411.173L465.343 412.703L460.911 412.55L452.199 416.223H445.474L440.889 414.386L432.33 417.141L429.426 415.305L429.732 420.661L427.898 422.803L425.911 424.946L422.395 420.508L424.994 416.835L420.103 417.753L413.072 415.458L408.181 421.12L395.954 422.191L388.771 416.988L380.059 416.682L378.53 420.661L373.028 421.885L364.775 416.682L355.91 416.835L350.102 407.041L343.683 401.685L346.74 394.033L341.237 389.289L349.032 379.954L361.259 379.648L363.705 372.149L378.989 373.526L387.548 367.252L396.413 364.497L409.404 364.191L424.382 371.078L436.457 374.904L445.321 373.373L452.352 374.292L460.758 369.088Z" fill="#F5F7FF" stroke="#5E6066" stroke-width="0.504423" stroke-linecap="round" stroke-linejoin="round"/>
<path d="M338.8 376.128L340.634 375.057L342.315 368.935L338.188 366.334L345.83 363.273L352.861 364.497L354.237 368.323L361.573 371.384L360.503 373.832L351.027 374.291L347.97 377.352L342.009 382.555L338.953 378.117L338.8 376.128Z" fill="#F5F7FF" stroke="#5E6066" stroke-width="0.504423" stroke-linecap="round" stroke-linejoin="round"/>
<path d="M392.752 276.197L396.267 280.329L396.42 282.166L406.661 285.532L412.163 284.002L417.665 288.44L422.097 288.287L433.866 291.348L434.477 294.255L432.491 299.152L435.242 304.508L434.783 307.722L427.447 308.334L424.084 311.089L424.696 315.221L418.735 315.986L414.15 319.2L407.119 319.659L401.005 323.332L402.534 329.3L406.813 331.595L414.608 330.983L413.691 334.503L405.438 336.186L395.809 341.696L391.071 339.706L392.141 335.268L383.123 332.361L384.193 330.524L391.224 327.311L388.625 325.168L376.245 322.72L375.023 319.047L368.145 320.271L366.158 325.627L361.114 332.667L357.446 330.983L353.931 332.667L350.263 330.83L352.097 329.759L353.014 326.545L354.695 323.332L353.778 321.648L355.306 320.883L356.223 322.26L360.809 322.566L362.795 321.801L361.267 320.883L361.573 319.353L358.516 316.904L356.835 312.925L353.778 311.395L353.931 308.181L349.957 305.58L346.9 305.121L340.786 302.213L335.896 303.131L334.214 304.508H331.005L329.476 306.804L323.974 307.722L321.529 309.253L317.708 306.804H312.817L307.926 305.733L304.869 307.875L304.105 305.274L299.52 302.672L300.59 298.846L302.424 296.245L304.105 296.857L301.659 292.572L307.467 284.614L310.983 283.543L311.441 280.941L306.55 272.677L310.066 272.218L313.734 269.77L319.542 269.464L327.031 270.229L335.743 272.524L341.704 272.677L344.607 274.055L347.206 272.371L349.498 274.667L356.07 274.208L359.28 275.126L358.822 270.382L360.809 268.239L367.075 267.78L369.826 268.086L371.354 265.944L373.647 266.403L381.136 265.485L386.944 270.841L385.569 272.83L386.791 275.738L392.752 276.197Z" fill="#F5F7FF" stroke="#5E6066" stroke-width="0.504423" stroke-linecap="round" stroke-linejoin="round"/>
<path d="M691.557 362.049L694.155 362.967L689.57 369.241L696.601 372.914L701.492 370.466L712.496 375.669L704.396 382.708L698.129 381.79L694.92 381.943L692.933 379.342L693.238 374.751L683.304 377.046L682.54 383.32L680.247 388.677L673.522 388.218L672.605 392.502L679.024 394.798L682.692 402.144L680.705 412.091L674.133 409.948H669.548L668.325 403.98L656.557 399.695L646.928 394.951L640.508 390.36L629.657 383.627L623.085 373.526L619.875 371.69L611.469 372.149L607.953 370.16L605.049 362.508L592.975 357.305L587.779 362.967L581.971 366.334L584.569 371.231L575.551 371.384L566.075 335.574L584.416 329.912L586.097 330.677L600.159 337.563L607.495 341.236L617.582 349.959L626.294 348.582L639.438 347.817L651.054 354.856L653.347 364.65L657.321 364.803L661.142 372.761L671.382 373.067L674.898 377.658H677.954L679.33 370.619L687.583 363.885L691.557 362.049Z" fill="#F5F7FF" stroke="#5E6066" stroke-width="0.504423" stroke-linecap="round" stroke-linejoin="round"/>
<path d="M301.964 362.202L300.129 362.661L295.697 364.192L295.544 366.181L294.474 366.028L293.557 362.508L291.57 361.437L289.736 358.835L290.959 356.693L292.793 356.081L293.557 352.867L294.933 352.255L296.156 353.632L297.684 354.244L298.907 355.775L300.282 356.234L301.964 358.07L303.033 357.917L302.422 360.366L301.505 361.437L301.964 362.202Z" fill="#F5F7FF" stroke="#5E6066" stroke-width="0.504423" stroke-linecap="round" stroke-linejoin="round"/>
<path d="M177.708 280.023L173.429 277.727L168.691 273.596L161.813 275.585L156.311 274.82L160.132 272.218L166.245 258.445L176.18 254.466L182.293 254.772L183.669 257.986L182.293 266.556L180.459 270.076H176.027L177.708 280.023Z" fill="#F5F7FF" stroke="#5E6066" stroke-width="0.504423" stroke-linecap="round" stroke-linejoin="round"/>
<path d="M71.331 412.55L67.9685 414.998L63.689 413.621L59.5623 414.692L60.9378 407.04L60.4793 401.072L56.8112 400.154L55.1299 396.481L55.8941 390.054L59.2566 386.534L60.0208 382.555L61.8549 376.74V372.608L60.4793 369.088L60.1736 365.721L63.0776 363.273L66.4401 361.896L68.2742 366.64H72.8594L74.2349 365.415L78.973 365.721L80.9599 370.618L77.2917 373.22L76.8332 380.872L75.6105 382.249L75.152 386.993L71.6366 387.758L74.6934 393.574L72.248 400.001L74.9991 402.909L73.7764 405.51L70.7196 409.183L71.331 412.55Z" fill="#F5F7FF" stroke="#5E6066" stroke-width="0.504423" stroke-linecap="round" stroke-linejoin="round"/>
<path d="M297.071 246.815L283.621 246.968L274.604 245.896L275.673 241.918L285.302 238.857L293.097 240.54L296.46 241.918L296.154 244.519L297.071 246.815Z" fill="#F5F7FF" stroke="#5E6066" stroke-width="0.504423" stroke-linecap="round" stroke-linejoin="round"/>
<path d="M486.902 102.81L483.54 103.422L462.906 102.35L459.391 98.8307L447.317 96.6882L444.26 92.2502L449.609 90.5669L447.164 86.2819L455.417 79.5484L449.303 78.6302L459.544 71.7437L455.723 68.2239L466.116 64.245L481.858 59.348L499.741 57.9707L507.383 55.2161L517.623 54.2979L524.042 57.2055L522.055 59.501L504.632 63.3268L489.5 66.8466L476.203 74.1922L471.924 81.8439L466.88 89.4956L471.618 96.0761L486.902 102.81Z" fill="#F5F7FF" stroke="#5E6066" stroke-width="0.504423" stroke-linecap="round" stroke-linejoin="round"/>
<path d="M802.052 292.572C799.385 293.662 794.869 294.255 794.869 294.255L792.27 295.02L785.545 289.205L776.375 290.582L771.331 286.45L765.218 284.614L758.951 279.105L753.907 277.421L744.431 279.87L731.593 274.514L729.912 279.411L701.942 255.538L689.103 248.345L690.326 245.284L676.265 254.16L669.54 254.619L667.858 249.569L657.007 246.355L650.435 248.651L643.71 239.01L629.801 237.02L625.063 240.846L608.404 244.366L605.805 246.662L579.822 249.875L577.683 253.089L585.478 259.516L579.364 261.965L581.657 264.413L576.307 269.004L590.674 275.585L590.368 280.023L579.67 279.564L578.447 282.471L567.29 277.574L555.521 277.727L548.796 281.706L538.708 277.88L520.368 271.3L508.752 271.606L496.372 281.859L497.289 288.746L488.118 283.237L484.756 293.796L487.507 295.632L484.909 302.978L493.009 309.405L498.512 309.099L505.084 315.527L505.389 320.424L509.669 322.107L507.529 327.77L500.498 329.3L494.996 339.247L504.167 348.582L504.778 355.01L515.935 366.487L512.114 370.466L511.197 372.914L507.529 372.149L500.957 366.334L498.664 366.028L493.162 363.732L489.952 359.754L482.158 357.764L477.725 359.294L475.891 357.458L464.275 352.714L452.507 351.184L445.476 349.5L444.865 350.725L433.249 342.461L423.773 338.788L415.978 333.126L421.48 331.595L426.371 323.638L421.327 319.812L431.873 315.833L431.262 313.69L424.69 315.221L424.078 311.089L427.441 308.334L434.777 307.722L435.236 304.508L432.484 299.152L434.471 294.255L433.86 291.347L422.091 288.287L417.659 288.44L412.157 284.002L406.655 285.532L396.414 282.165L396.261 280.329L392.746 276.197L386.785 275.738L385.563 272.83L386.938 270.841L381.13 265.485L373.641 266.403L371.348 265.944L369.82 268.086L367.069 267.78L364.012 261.659L361.72 258.598L362.942 257.68L368.903 257.986L371.348 255.997L368.75 253.548L363.554 251.865V250.181L360.344 248.498L354.536 242.377L355.606 239.928L353.925 235.49L346.588 233.348L342.92 234.419L341.545 232.123L333.444 229.828L330.235 224.319L328.706 219.881L324.885 217.891L327.331 214.984L323.662 206.414L327.636 201.21L326.261 199.68L333.138 194.63L324.885 190.345L337.112 179.021L342.309 173.817L343.684 169.379L332.374 163.411L333.75 157.596L326.261 151.168L328.859 143.823L318.924 134.182L323.357 127.754L312.199 122.092L311.588 116.277L316.479 115.512L326.261 112.298L331.916 109.39L343.684 114.287L361.567 116.277L388.619 125.765L394.886 129.744L397.178 135.406L391.523 139.844L381.589 142.139L350.715 135.712L346.283 136.783L358.663 143.058L360.191 147.036L363.095 155.912L372.418 158.514L378.226 160.81L377.921 156.525L372.724 152.852L375.934 149.485L393.663 154.994L398.554 152.852L391.982 146.424L404.362 138.161L410.628 138.62L417.659 141.527L419.34 135.712L412.157 130.662L413.379 125.612L406.807 120.409L425.607 123.163L431.109 127.754L423.314 128.825L425.148 133.57L431.415 136.477L440.585 134.641L439.974 129.285L451.742 125.153L470.694 118.113L475.585 118.419L471.764 123.469L480.018 124.387L483.227 121.48L494.996 121.327L502.638 117.807L512.42 122.857L516.7 117.348L507.529 112.604L509.363 109.849L529.232 112.298L539.32 114.899L567.748 124.387L569.429 120.103L560.412 115.665L559.189 113.981L551.089 113.063L550.783 109.237L543.599 102.81L541.918 100.208L548.49 93.0156L547.573 85.6699L550.936 84.1396L568.359 86.2821L572.792 90.7201L571.416 97.1475L577.071 99.7491L582.879 105.411L588.687 116.736L598.927 121.786L599.692 127.448L594.342 139.385L602.443 140.609L603.207 137.548L609.015 135.406L608.251 131.274L611.155 127.142L604.43 122.398L603.818 116.889L596.482 116.277L592.05 111.686L591.438 103.422L578.905 96.8414L586.089 91.4852L580.434 85.823L583.338 85.6699L589.757 89.9549L592.967 97.7596L600.609 99.2899L593.578 93.4747L601.373 90.2609L613.753 89.8018L628.426 94.3929L617.88 87.8124L610.39 79.3955L619.408 77.8652L633.928 78.1713L645.849 77.1L637.29 73.1212L639.277 68.071L645.697 67.765L653.186 64.0922L667.4 63.0209L667.094 60.8785L681.308 60.2663L687.881 61.9497L696.134 57.9708L706.833 58.1238L704.54 54.7571L705.916 51.6964L715.392 48.6357L728.077 51.0843L722.728 52.9207L737.095 53.9919L743.361 57.6647L746.265 55.8283L762.925 55.9814L780.654 59.6542L789.061 62.4088L792.882 66.3877L789.213 68.6832L779.126 72.9681L777.445 75.2636L786.004 76.3349L797.008 78.3243L800.676 76.794L802.052 292.572Z" fill="#F5F7FF"/>
<path d="M797.008 78.3243L786.004 76.3349L777.445 75.2636L779.126 72.9681L789.213 68.6832L792.882 66.3877L789.061 62.4088L780.654 59.6542L762.925 55.9814L746.265 55.8283L743.361 57.6647L737.095 53.9919L722.728 52.9207L728.077 51.0843L715.392 48.6357L705.916 51.6964L704.54 54.7571L706.833 58.1238L696.134 57.9708L687.881 61.9497L681.308 60.2663L667.094 60.8785L667.4 63.0209L653.186 64.0922L645.697 67.765L639.277 68.071L637.29 73.1212L645.849 77.1L633.928 78.1713L619.408 77.8652L610.39 79.3955L617.88 87.8124L628.426 94.3929L613.753 89.8018L601.373 90.2609L593.578 93.4747L600.609 99.2899L592.967 97.7596L589.757 89.9549L583.338 85.6699L580.434 85.823L586.089 91.4852L578.905 96.8414L591.438 103.422L592.05 111.686L596.482 116.277L603.818 116.889L604.43 122.398L611.155 127.142L608.251 131.274L609.015 135.406L603.207 137.548L602.443 140.609L594.342 139.385L599.692 127.448L598.927 121.786L588.687 116.736L582.879 105.411L577.071 99.7491L571.416 97.1475L572.792 90.7201L568.359 86.2821L550.936 84.1396L547.573 85.6699L548.49 93.0156L541.918 100.208L543.599 102.81L550.783 109.237L551.089 113.063L559.189 113.981L560.412 115.665L569.429 120.103L567.748 124.387L539.32 114.899L529.232 112.298L509.363 109.849L507.529 112.604L516.7 117.348L512.42 122.857L502.638 117.807L494.996 121.327L483.227 121.48L480.018 124.387L471.764 123.469L475.585 118.419L470.694 118.113L451.742 125.153L439.974 129.285L440.585 134.641L431.415 136.477L425.148 133.57L423.314 128.825L431.109 127.754L425.607 123.163L406.807 120.409L413.379 125.612L412.157 130.662L419.34 135.712L417.659 141.527L410.628 138.62L404.362 138.161L391.982 146.424L398.554 152.852L393.663 154.994L375.934 149.485L372.724 152.852L377.921 156.525L378.226 160.81L372.418 158.514L363.095 155.912L360.191 147.036L358.663 143.058L346.283 136.783L350.715 135.712L381.589 142.139L391.523 139.844L397.178 135.406L394.886 129.744L388.619 125.765L361.567 116.277L343.684 114.287L331.916 109.39L326.261 112.298L316.479 115.512L311.588 116.277L312.199 122.092L323.357 127.754L318.924 134.182L328.859 143.823L326.261 151.168L333.75 157.596L332.374 163.411L343.684 169.379L342.309 173.817L337.112 179.021L324.885 190.345L333.138 194.63L326.261 199.68L327.636 201.21L323.662 206.414L327.331 214.984L324.885 217.891L328.706 219.881L330.235 224.319L333.444 229.828L341.545 232.123L342.92 234.419L346.588 233.348L353.925 235.49L355.606 239.928L354.536 242.377L360.344 248.498L363.554 250.181V251.865L368.75 253.548L371.348 255.997L368.903 257.986L362.942 257.68L361.72 258.598L364.012 261.659L367.069 267.78L369.82 268.086L371.348 265.944L373.641 266.403L381.13 265.485L386.938 270.841L385.563 272.83L386.785 275.738L392.746 276.197L396.261 280.329L396.414 282.165L406.655 285.532L412.157 284.002L417.659 288.44L422.091 288.287L433.86 291.347L434.471 294.255L432.484 299.152L435.236 304.508L434.777 307.722L427.441 308.334L424.078 311.089L424.69 315.221L431.262 313.69L431.873 315.833L421.327 319.812L426.371 323.638L421.48 331.595L415.978 333.126L423.773 338.788L433.249 342.461L444.865 350.725L445.476 349.5L452.507 351.184L464.275 352.714L475.891 357.458L477.725 359.294L482.158 357.764L489.952 359.754L493.162 363.732L498.664 366.028L500.957 366.334L507.529 372.149L511.197 372.914L512.114 370.466L515.935 366.487L504.778 355.01L504.167 348.582L494.996 339.247L500.498 329.3L507.529 327.77L509.669 322.107L505.389 320.424L505.084 315.527L498.512 309.099L493.009 309.405L484.909 302.978L487.507 295.632L484.756 293.796L488.118 283.237L497.289 288.746L496.372 281.859L508.752 271.606L520.368 271.3L538.708 277.88L548.796 281.706L555.521 277.727L567.29 277.574L578.447 282.471L579.67 279.564L590.368 280.023L590.674 275.585L576.307 269.004L581.657 264.413L579.364 261.965L585.478 259.516L577.683 253.089L579.822 249.875L605.805 246.662L608.404 244.366L625.063 240.846L629.801 237.02L643.71 239.01L650.435 248.651L657.007 246.355L667.858 249.569L669.54 254.619L676.265 254.16L690.326 245.284L689.103 248.345L701.942 255.538L729.912 279.411L731.593 274.514L744.431 279.87L753.907 277.421L758.951 279.105L765.218 284.614L771.331 286.45L776.375 290.582L785.545 289.205L792.27 295.02L794.869 294.255C794.869 294.255 799.385 293.662 802.052 292.572L800.676 76.794M797.008 78.3243C797.008 78.3243 799.244 77.3916 800.676 76.794M797.008 78.3243L800.676 76.794" stroke="#F5F7FF" stroke-width="0.504423" stroke-linecap="round" stroke-linejoin="round"/>
<path d="M404.369 29.0472L397.797 29.8123L393.364 30.4245V31.4957L387.862 32.567L380.984 31.0366L382.666 28.8941L370.744 28.7411L380.373 27.5168H388.321L390.613 29.2002L392.6 27.6699L396.88 26.5986L405.744 27.9759L404.369 29.0472Z" fill="#F5F7FF" stroke="#5E6066" stroke-width="0.504423" stroke-linecap="round" stroke-linejoin="round"/>
<path d="M116.722 350.878L119.779 354.551L134.299 358.989L137.203 356.846L146.068 361.284L155.085 360.06L155.697 365.722L148.208 372.149L138.12 374.292L137.356 377.506L132.465 382.862L129.408 390.82L132.465 396.482L127.88 400.767L126.046 407.194L119.932 409.184L114.277 416.682L103.884 416.835L96.2419 416.682L91.0453 420.049L87.8356 423.722L83.8617 422.957L80.9578 419.59L78.818 414.081L71.3289 412.55L70.7175 409.184L73.7743 405.511L74.997 402.909L72.2459 400.002L74.6913 393.574L71.6345 387.759L75.1499 386.994L75.6084 382.25L76.8311 380.872L77.2896 373.221L80.9578 370.619L78.9709 365.722L74.2328 365.416L72.8573 366.64H68.2721L66.438 361.896L63.0755 363.274L60.1715 365.722L60.9357 358.836L57.8789 354.704L69.1891 347.664L78.6652 349.347H89.2111L97.4646 351.031L104.037 350.419L116.722 350.878Z" fill="#F5F7FF" stroke="#5E6066" stroke-width="0.504423" stroke-linecap="round" stroke-linejoin="round"/>
<path d="M207.05 363.12L204.758 370.619L201.09 368.629L199.103 362.202L200.478 358.529L205.369 354.856L207.05 363.12Z" fill="#F5F7FF" stroke="#5E6066" stroke-width="0.504423" stroke-linecap="round" stroke-linejoin="round"/>
<path d="M174.496 292.113L176.177 292.878L178.317 292.725L181.985 295.173L192.99 297.01L189.321 303.437L188.71 310.324L186.723 312.007L183.208 311.089L183.513 313.537L178.011 318.894V323.332L181.679 321.801L184.431 325.933L184.278 328.688L186.57 332.361L183.972 335.268L186.265 342.767L190.544 343.991L189.78 348.123L182.902 353.632L167.312 351.031L156.002 354.244L155.085 360.06L146.068 361.284L137.203 356.846L134.299 358.988L119.779 354.55L116.722 350.878L120.849 345.062L122.377 325.78L114.583 315.68L108.927 310.783L97.3116 307.11L96.7002 300.07L106.635 298.081L119.321 300.53L117.028 289.664L124.211 293.796L141.635 286.45L143.928 278.646L150.347 276.656L151.57 280.023L154.932 280.176L158.6 284.002L163.95 288.44L167.771 287.675L174.496 292.113Z" fill="#F5F7FF" stroke="#5E6066" stroke-width="0.504423" stroke-linecap="round" stroke-linejoin="round"/>
<path d="M409.556 432.445L409.709 432.751L410.167 433.363L409.556 433.21H409.098L408.488 433.516L408.029 433.057V432.598L408.488 432.445L408.793 432.598L409.556 432.445Z" fill="#F5F7FF" stroke="#5E6066" stroke-width="0.504423" stroke-linecap="round" stroke-linejoin="round"/>
<path d="M406.966 433.21V433.363L406.66 433.669L406.507 434.587L406.354 434.894H405.896L405.59 435.2L404.826 435.506L404.52 435.659L403.603 436.118L402.992 435.965L402.228 436.118L401.769 436.73L401.464 436.271L401.005 436.424H400.699L400.241 435.965L399.629 436.424H398.865L398.101 436.118L397.337 435.965L396.726 435.506L396.267 434.587L395.808 434.128L395.503 433.057L395.197 432.598L395.35 432.139L396.114 432.598L396.726 432.445L397.031 431.986L397.184 431.527L397.643 431.374L397.948 431.527L398.254 431.221H398.56L398.712 431.833L399.477 432.139L399.629 432.445H400.547L401.464 431.68L402.075 431.833L402.533 431.527L402.992 431.68L403.603 431.986L403.909 431.527H404.368L404.826 432.139V433.057L405.285 432.751L405.743 433.057L405.896 432.904L406.966 433.21Z" fill="#F5F7FF" stroke="#5E6066" stroke-width="0.504423" stroke-linecap="round" stroke-linejoin="round"/>
<path d="M250.15 424.793L249.845 425.252L249.081 424.946L248.318 424.487V423.722L248.165 423.569H249.081L249.692 424.028L249.998 424.334L250.15 424.793Z" fill="#F5F7FF" stroke="#5E6066" stroke-width="0.504423" stroke-linecap="round" stroke-linejoin="round"/>
<path d="M247.7 423.108L246.938 422.955V422.65L247.548 422.498L248.157 422.955L247.7 423.108Z" fill="#F5F7FF" stroke="#5E6066" stroke-width="0.504423" stroke-linecap="round" stroke-linejoin="round"/>
<circle cx="407.073" cy="222.119" r="11.3495" fill="#4169F4" fill-opacity="0.2"/>
<circle cx="407.073" cy="222.119" r="6.30529" fill="#4169F4"/>
<circle cx="202.782" cy="285.172" r="11.3495" fill="#4169F4" fill-opacity="0.2"/>
<circle cx="202.782" cy="285.172" r="6.30529" fill="#4169F4"/>
<line x1="201.154" y1="285.226" x2="407.967" y2="222.173" stroke="#4169F4" stroke-width="2.52212"/>
<line x1="201.18" y1="287.647" x2="120.472" y2="264.948" stroke="#4169F4" stroke-width="2.52212"/>
<line x1="157.525" y1="337.454" x2="119.694" y2="264.313" stroke="#4169F4" stroke-width="2.52212"/>
<line x1="99.981" y1="371.107" x2="157.99" y2="335.798" stroke="#4169F4" stroke-width="2.52212"/>
<circle cx="122.074" cy="264.995" r="11.3495" fill="#4169F4" fill-opacity="0.2"/>
<circle cx="122.074" cy="264.995" r="6.30529" fill="#4169F4"/>
<circle cx="99.3759" cy="370.924" r="11.3495" fill="#4169F4" fill-opacity="0.2"/>
<circle cx="99.3756" cy="370.924" r="6.30529" fill="#4169F4"/>
<circle cx="157.384" cy="335.614" r="11.3495" fill="#4169F4" fill-opacity="0.2"/>
<circle cx="157.383" cy="335.614" r="6.30529" fill="#4169F4"/>
</g>
<defs>
<clipPath id="clip0_122_23753">
<rect width="608" height="475" fill="white"/>
</clipPath>
</defs>
</svg>
