<svg width="374" height="331" viewBox="0 0 374 331" fill="none" xmlns="http://www.w3.org/2000/svg">
<g filter="url(#filter0_i)">
<path fill-rule="evenodd" clip-rule="evenodd" d="M200.592 4.38099C238.855 13.13 280.553 46.33 311.532 78.889C326.546 94.804 337.59 109.346 342.887 121.416C348.532 133.984 348.431 144.08 349.207 162.588C346.939 178.288 351.753 203.21 349.407 225.972C347.691 248.924 338.807 269.719 323.783 281.526C308.998 293.736 288.056 296.96 267.741 294.073C247.275 291.806 227.434 283.427 211.357 286.697C195.057 285.357 171.7 296.897 144.742 303.311C118.104 310.322 87.866 312.202 65.219 305.368C42.308 298.868 26.978 283.64 23.977 263.968C20.12 244.349 28.593 220.279 33.571 197.361C48.522 151.024 68.516 82.441 98.319 41.593C112.874 21.031 129.11 7.53599 146.092 2.70599C163.158 -2.54701 180.972 0.863986 200.592 4.38199V4.38099Z" fill="white"/>
</g>
<path fill-rule="evenodd" clip-rule="evenodd" d="M320.399 298.777C320.399 305.52 314.945 310.931 308.245 310.931H64.7669C58.0239 310.931 52.6123 305.477 52.6123 298.777V148.155C52.6123 141.412 58.0668 136 64.7669 136H308.202C314.945 136 320.356 141.455 320.356 148.155V298.777H320.399Z" fill="#28333B"/>
<path d="M309.491 147.553H64.5957V298.777H309.491V147.553Z" fill="#F4F4F4"/>
<path fill-rule="evenodd" clip-rule="evenodd" d="M0.257694 310.072C0.085898 311.146 0 312.263 0 313.379C0 323 5.84106 330.774 13.0136 330.774H360.986C368.202 330.774 374 322.957 374 313.379C374 312.263 373.914 311.146 373.742 310.072H0.257694Z" fill="#FFFEFE"/>
<g opacity="0.1">
<g opacity="0.1">
<path opacity="0.1" d="M1.11621 320.466C3.13481 326.565 7.68741 330.817 13.0131 330.817H360.986C366.312 330.817 370.864 326.565 372.883 320.466H1.11621Z" fill="black"/>
</g>
</g>
<path d="M138.597 161.726H77.2656V164.776H138.597V161.726Z" fill="#00748A"/>
<path d="M138.597 170.832H77.2656V173.881H138.597V170.832Z" fill="#F7636C"/>
<path d="M138.553 182.385H77.2649L75.6758 179.336H137.007L138.553 182.385Z" fill="#F0CFBB"/>
<path d="M138.597 258.018H77.2656V261.068H138.597V258.018Z" fill="#00748A"/>
<path d="M138.597 247.968H77.2656V251.017H138.597V247.968Z" fill="#00748A"/>
<path d="M138.597 268.412H77.2656V271.461H138.597V268.412Z" fill="#00748A"/>
<path d="M211.781 198.62H150.45V201.669H211.781V198.62Z" fill="#F7636C"/>
<path d="M147.057 198.62H85.7256V201.669H147.057V198.62Z" fill="#00748A"/>
<path d="M147.057 207.081H85.7256V210.13H147.057V207.081Z" fill="#F7636C"/>
<path d="M179.226 207.081H150.45V210.13H179.226V207.081Z" fill="#00748A"/>
<path d="M147.057 223.487H85.7256V226.537H147.057V223.487Z" fill="#00748A"/>
<path d="M179.226 223.487H150.45V226.537H179.226V223.487Z" fill="#F7636C"/>
<path d="M252.369 215.241H223.593V218.29H252.369V215.241Z" fill="#F7636C"/>
<path d="M218.182 191.834H85.7268L84.1377 188.784H216.592L218.182 191.834Z" fill="#F0CFBB"/>
<path d="M216.592 218.29H84.1377L85.7268 215.241H218.182L216.592 218.29Z" fill="#F0CFBB"/>
<path d="M252.412 236.243H223.593L222.004 233.194H250.823L252.412 236.243Z" fill="#F0CFBB"/>
<path d="M218.18 233.194H85.7256V236.243H218.18V233.194Z" fill="#00748A"/>
<path d="M242.319 276.873H213.543V279.922H242.319V276.873Z" fill="#F0CFBB"/>
<path d="M209.72 276.873H77.2656V279.922H209.72V276.873Z" fill="#00748A"/>
<path d="M65.196 315.269C65.196 316.601 64.1223 317.674 62.7909 317.674C61.4595 317.674 60.3857 316.601 60.3857 315.269C60.3857 313.938 61.4595 312.864 62.7909 312.864C64.1223 312.864 65.196 313.938 65.196 315.269Z" fill="#F7636C"/>
<g opacity="0.7">
<g opacity="0.7">
<path opacity="0.7" d="M56.7784 315.269C56.7784 316.472 55.7906 317.46 54.588 317.46H35.7763C34.5738 317.46 33.5859 316.472 33.5859 315.269C33.5859 314.067 34.5738 313.079 35.7763 313.079H54.588C55.8335 313.079 56.7784 314.067 56.7784 315.269Z" fill="black"/>
</g>
</g>
<path d="M96.3347 298.863L85.082 299.936V308.655H80.7871V309.514H85.941V300.709L96.4205 299.679L96.3347 298.863Z" fill="#231F20"/>
<path d="M147.83 298.304L156.978 299.421V308.097H160.457V308.956H156.291V300.194L147.787 299.163L147.83 298.304Z" fill="#231F20"/>
<defs>
<filter id="filter0_i" x="23" y="0" width="327.07" height="309.635" filterUnits="userSpaceOnUse" color-interpolation-filters="sRGB">
<feFlood flood-opacity="0" result="BackgroundImageFix"/>
<feBlend mode="normal" in="SourceGraphic" in2="BackgroundImageFix" result="shape"/>
<feColorMatrix in="SourceAlpha" type="matrix" values="0 0 0 0 0 0 0 0 0 0 0 0 0 0 0 0 0 0 127 0" result="hardAlpha"/>
<feOffset/>
<feGaussianBlur stdDeviation="10"/>
<feComposite in2="hardAlpha" operator="arithmetic" k2="-1" k3="1"/>
<feColorMatrix type="matrix" values="0 0 0 0 0 0 0 0 0 0 0 0 0 0 0 0 0 0 0.1 0"/>
<feBlend mode="normal" in2="shape" result="effect1_innerShadow"/>
</filter>
</defs>
</svg>
