<svg width="272" height="286" viewBox="0 0 272 286" fill="none" xmlns="http://www.w3.org/2000/svg">
<path d="M104.248 77.8716C67.0534 84.1286 79.6211 105.464 52.6773 127.85C25.7336 150.236 10.1706 166.315 6.46882 196.903C3.51589 221.29 21.1841 306.556 96.3567 276.807C160.113 251.581 203.192 290.047 226.102 266.745C257.73 234.565 216.742 223.671 254.869 182.959C283.437 152.449 267.726 119.078 253.131 105.063C232.39 85.1433 210.878 96.1494 177.026 97.1077C145.504 97.9673 127.673 73.9328 104.248 77.8716V77.8716Z" fill="#A8AAFB"/>
<path d="M269.35 135.46C272.113 149.327 272.84 168.077 259.771 185.052C246.462 202.343 244.794 202.738 246.553 219.31C248.312 235.883 248.199 256.465 228.327 270.888C228.327 270.888 202.464 294.775 172.349 280.394C157.563 273.347 137.775 267.858 107.73 277.575C76.5901 287.63 63.5139 281.803 63.5139 281.803M27.9585 151.836C27.9585 151.836 1.71417 173.63 1.00772 213.138C0.513211 241.252 23.8541 272.326 47.3928 278.555L27.9585 151.836Z" stroke="#A8AAFB" stroke-miterlimit="10" stroke-linecap="round"/>
<path d="M56.8803 251.06C56.5412 253.568 56.7743 254.667 55.5522 256.534C53.4894 259.684 53.6236 264.638 57.2406 266.026C59.4306 266.864 65.1104 265.99 66.1912 265.857C67.2721 265.723 66.6857 258.514 66.6857 258.514C66.5152 256.414 66.603 254.301 66.9471 252.222C62.4683 252.631 56.8803 251.06 56.8803 251.06V251.06Z" fill="#E1A487"/>
<path d="M63.0898 254.379C63.0332 256.021 63.1816 257.197 62.1996 259.523C61.4367 261.348 58.9924 266.71 64.319 267.83C67.2931 268.457 69.6456 266.844 73.3261 267.471C76.5504 267.996 79.8155 268.232 83.0821 268.175C85.5971 268.133 88.9032 267.753 88.9032 266.407C88.9032 264.857 84.3537 264.237 82.2909 263.638C80.4541 263.109 78.8364 262.059 76.053 261.108C73.2696 260.157 72.1605 258.748 72.1252 256.141C72.0899 253.533 72.217 253.858 72.217 253.858L63.0898 254.379Z" fill="#FFC5AA"/>
<path d="M58.2507 176.131C58.2507 176.131 60.582 192.069 60.2217 197.347C59.8614 202.625 56.096 207.557 54.8386 212.849C53.5811 218.14 54.9304 230.126 55.4673 235.227C56.0042 240.329 56.7318 248.439 56.7954 251.737C60.0451 253.85 65.0679 252.688 65.0679 252.688L69.3065 188.772C69.3065 188.772 58.4273 176.582 58.2507 176.131V176.131Z" fill="#272B7B"/>
<path d="M54.2451 123.764C54.2451 123.764 55.0505 128.506 53.3691 131.162C68.0349 137.37 75.8411 131.014 75.8411 131.014C75.8411 131.014 75.5727 126.716 75.6645 124.208C62.7366 125.018 54.2451 123.764 54.2451 123.764Z" fill="#FFC5AA"/>
<path d="M53.1645 131.233C53.1645 131.233 46.7429 137.913 46.7358 149.257C46.7358 158.896 54.3654 166.443 54.3654 166.443C54.3654 166.443 56.3929 173.679 59.4024 181.197C60.7093 184.446 65.6756 193.176 65.0539 198.108C64.4746 202.73 59.2399 210.559 62.0869 226.039C64.9338 241.52 62.9205 250.194 63.1324 254.802C68.1623 257.43 72.1819 254.922 72.2031 254.442C72.2243 253.963 81.7755 198.404 81.8956 192.077C82.0156 185.749 75.8484 130.993 75.8484 130.993C75.8484 130.993 63.9448 134.326 53.1645 131.233V131.233Z" fill="#353AA8"/>
<path d="M75.6642 124.187C72.2167 128.33 54.0752 124.814 54.0894 124.694C54.6545 118.994 54.1529 111.384 52.8813 100.913C65.9647 84.4392 71.0864 80.3242 71.0864 80.3242C71.3549 80.5004 78.5535 89.5618 78.4617 94.1066C78.3345 100.85 76.3424 102.879 76.2011 107.988" fill="#F461DB"/>
<path d="M63.5281 39.0752C63.5281 39.0752 64.3829 32.0924 58.583 30.0631C54.4008 28.5975 52.8749 32.8182 48.9259 33.7342C46.5593 34.2768 41.4305 35.5521 41.6142 40.7804C41.819 46.5301 48.6786 47.5095 48.6786 47.5095L63.5281 39.0752Z" fill="#471597"/>
<path d="M73.4677 49.109C73.4677 49.109 76.7597 45.0081 71.5885 39.2443C68.7628 36.1299 63.8671 35.4183 59.3105 37.8351C56.8027 39.1527 55.2132 41.8867 51.4619 42.3447C48.7845 42.6688 42.9846 47.8759 45.217 55.0278C48.2052 64.6459 60.4338 65.1673 60.4338 65.1673L73.4677 49.109Z" fill="#611CCF"/>
<path d="M57.9893 59.234C59.0136 63.2855 59.8825 69.465 57.9893 79.1324C68.2186 81.3731 71.4117 80.9221 71.4117 80.9221C71.4117 80.9221 69.914 71.6141 70.9878 62.8416C61.4932 57.6486 57.9893 59.234 57.9893 59.234Z" fill="#FFC5AA"/>
<path d="M57.9893 59.2349C57.9893 59.2349 60.0097 71.4812 70.7476 73.9403C70.5993 69.7831 70.6417 68.395 70.6417 68.395L58.1023 56.501L57.9893 59.2349Z" fill="#E1A487"/>
<path d="M73.6586 48.4394C75.4035 51.8005 78.194 58.1984 77.8337 63.5253C77.4169 69.7049 70.5149 69.0848 67.237 67.5699C60.9426 64.6809 59.6286 62.7221 58.0533 59.6217C56.0682 60.4602 52.6066 56.2959 55.2275 54.1821C56.3931 53.2309 58.0533 54.0764 58.0533 54.0764C59.7112 51.0031 62.3415 48.5629 65.5345 47.1359C71.1296 44.4865 72.5707 46.3397 73.6586 48.4394Z" fill="#FFC5AA"/>
<path d="M69.9077 55.3309C70.0366 55.4097 70.174 55.4736 70.3175 55.5212C70.5826 55.6153 70.8639 55.6559 71.145 55.6405C71.426 55.625 71.7012 55.5539 71.9544 55.4312C72.2076 55.3086 72.4337 55.1368 72.6197 54.926C72.8056 54.7153 72.9475 54.4696 73.0373 54.2035C73.1748 53.7846 73.1748 53.3329 73.0373 52.9141" stroke="#3F3B3F" stroke-miterlimit="10" stroke-linecap="round"/>
<path d="M72.832 63.0679C74.2449 64.2023 75.8909 64.1882 76.7599 63.4906" stroke="#E1A487" stroke-miterlimit="10" stroke-linecap="round"/>
<path d="M69.8082 61.8695C71.0528 61.8695 72.0618 60.8632 72.0618 59.6218C72.0618 58.3804 71.0528 57.374 69.8082 57.374C68.5636 57.374 67.5547 58.3804 67.5547 59.6218C67.5547 60.8632 68.5636 61.8695 69.8082 61.8695Z" fill="#E1A487"/>
<path d="M71.5888 49.7358C70.5644 50.1222 69.6462 50.7451 68.9095 51.5534C68.1728 52.3617 67.6384 53.3325 67.3501 54.3863" stroke="#471597" stroke-miterlimit="10" stroke-linecap="round"/>
<path d="M58.873 40.9213L57.2623 42.6336L61.7482 40.0828L58.873 40.9213ZM51.5895 40.6184C56.3651 39.6742 59.6077 34.6996 63.2671 35.4887C63.2671 33.1494 63.2671 30.0138 58.4703 29.1965C52.953 28.2593 52.8187 33.0719 48.3682 33.4242C45.945 33.6215 41.1907 34.5375 40.8657 39.8503C40.6962 42.6124 43.1687 44.987 44.2001 45.6282C45.0337 44.2824 46.0581 41.7457 51.5895 40.6184V40.6184Z" fill="#611CCF"/>
<path d="M53.7083 32.5855C53.7083 32.5855 56.9085 34.7839 55.8276 37.3065M63.8669 38.3775C63.8669 38.3775 68.7485 38.5396 70.557 44.0145L63.8669 38.3775ZM48.2051 50.9761C48.9115 58.7269 54.9657 60.1362 54.9657 60.1362L48.2051 50.9761ZM52.4155 44.6768C52.4155 44.6768 51.264 49.8839 53.6871 53.1886L52.4155 44.6768ZM58.9077 40.6182C60.1231 40.6205 61.3028 41.0282 62.2591 41.7765C63.2153 42.5247 63.8932 43.5704 64.1848 44.7473L58.9077 40.6182ZM56.2656 44.4866C55.764 45.7196 55.8982 48.982 58.067 51.9062L56.2656 44.4866ZM45.0755 35.559C44.0457 36.5966 43.4633 37.9947 43.4528 39.4547C43.4422 40.9147 44.0043 42.3209 45.019 43.3733L45.0755 35.559ZM56.6118 30.4717C56.8661 30.4717 59.1479 30.5633 61.3096 33.572L56.6118 30.4717ZM49.1729 34.9249C49.1729 34.9249 47.0536 37.2924 50.4657 39.2794L49.1729 34.9249Z" stroke="#471597" stroke-miterlimit="10" stroke-linecap="round"/>
<path d="M74.1811 137.144C74.1458 136.56 71.3554 135.665 68.4943 134.678C68.134 134.558 70.5006 130.901 69.2855 130.563C68.1834 130.26 66.6434 133.882 65.2305 133.431C64.3001 133.189 63.4232 132.775 62.6449 132.212C59.3882 130.098 58.0954 129.013 55.743 125.673C53.3905 122.333 45.2523 111.186 45.8527 110.312C46.4532 109.439 54.9447 102.273 58.9997 99.412C63.0547 96.5512 71.0092 90.576 72.196 86.3976C73.3829 82.2193 72.0194 79.1823 70.3663 77.6886C65.506 73.2988 59.4871 75.0603 56.2375 79.591C54.217 82.4095 53.6801 85.3125 48.1628 90.0405C42.6455 94.7685 41.162 99.2922 37.6863 101.801C34.2106 104.309 30.8691 108.008 31.2294 110.869C31.5896 113.73 34.698 117.915 39.1274 121.734C43.5568 125.553 49.4203 129.647 53.1291 132.473C56.0397 134.692 60.5115 139.209 61.9526 140.224C63.973 141.633 68.5932 144.078 68.7768 143.451C69.1089 142.288 65.6402 140.851 66.0359 140.139C66.4315 139.427 72.4715 143.838 73.1568 142.824C73.842 141.809 68.3177 138.941 67.9644 138.349C67.6112 137.757 73.9056 140.963 74.3224 139.836C74.711 138.857 69.9001 136.898 69.3279 136.51C69.3773 136.517 74.2377 138.222 74.1811 137.144V137.144Z" fill="#FFC5AA"/>
<path d="M67.0601 132.409C67.0601 132.409 68.3882 130.098 69.2854 130.563C70.0625 130.972 69.3207 132.409 69.3207 132.409M56.6612 78.9005C58.3708 77.005 61.571 74.8841 65.3222 75.1589C69.469 75.4619 73.5947 78.4636 72.3867 84.784L56.6612 78.9005ZM53.2773 122.206C53.2773 122.206 58.4132 131.19 65.0608 133.248L53.2773 122.206Z" stroke="#E1A487" stroke-miterlimit="10" stroke-linecap="round"/>
<path d="M234.516 179.942C234.516 179.942 236.706 190.66 237.172 195.268C237.638 199.876 236.465 201.264 237.631 203.336C238.797 205.407 242.576 208.754 243.064 218.09C243.551 227.427 242.597 239.525 242.138 243.788C241.679 248.051 241.7 253.927 243.191 256.344C244.681 258.761 246.066 262.108 245.261 263.954C244.455 265.8 242.597 266.491 240.52 266.371C238.444 266.251 235.088 265.363 229.429 266.371C223.771 267.379 216.374 266.709 215.908 265.554L215.703 262.284C217.233 262.034 218.748 261.695 220.238 261.27C222.026 260.748 225.184 259.755 228.666 258.839C232.149 257.923 233.47 256.795 232.905 254.611C232.34 252.427 225.841 212.334 224.004 209.67C222.167 207.007 221.114 206.901 220.768 202.624C220.422 198.347 222.04 178.773 222.04 178.773L234.516 179.942Z" fill="#FFC5AA"/>
<path d="M225.615 183.636C225.615 183.636 224.809 197.228 223.997 200.92C223.185 204.612 221.461 207.832 221.92 209.678C222.379 211.525 223.333 215.668 222.379 219.705C221.426 223.743 215.908 248.285 215.682 252.66C215.456 257.036 216.261 257.959 216.834 260.615C217.406 263.272 217.703 266.21 215.301 267.662C213.732 268.62 210.25 269.198 205.686 267.824C201.935 266.696 196.227 268.416 190.999 269.022C186.824 269.508 182.882 267.612 181.731 266.393C180.318 264.892 182.338 263.448 186.676 263.49C190.137 263.49 195.153 261.496 198.579 260.82C203.277 259.897 203.849 260.418 205.057 257.593C206.689 253.795 206.216 246.072 205.764 238.117C205.312 230.162 206.922 212.997 205.764 209.538C204.605 206.078 203.341 202.858 203.454 200.208C203.567 197.559 204.033 185.686 204.033 185.686L225.615 183.636Z" fill="#FFC5AA"/>
<path d="M234.516 179.943L236.169 188.391L225.318 187.384L225.615 181.254L234.516 179.943Z" fill="#E1A487"/>
<path d="M229.288 153.985C229.288 153.985 233.265 165.569 234.233 170.579C235.201 175.588 238.945 177.667 238.599 179.57C238.253 181.472 235.484 183.093 231.754 182.769C228.024 182.444 226.208 183.635 226.208 183.635L229.288 153.985Z" fill="#272B7B"/>
<path d="M225.614 183.636L225.077 193.057L203.912 190.21L204.011 185.707L225.614 183.636Z" fill="#E1A487"/>
<path d="M225.53 184.875C225.53 184.875 224.788 194.536 224.251 199.454C223.714 204.372 221.863 206.127 221.863 208.656C221.863 209.896 222.202 210.89 222.57 212.919" stroke="#E1A487" stroke-miterlimit="10" stroke-linecap="round"/>
<path d="M227.953 132.381C227.953 132.381 230.334 135.953 231.125 145.86C231.832 154.534 229.338 160.361 228.653 166.604C228.017 172.382 227.77 177.998 229.288 184.219C229.769 186.192 228.582 186.812 225.876 186.559C223.171 186.305 213.16 186.728 209.586 187.679C206.011 188.63 200.317 188.384 200.225 187.158C200.133 185.932 203.171 164.427 201.702 157.514C200.232 150.602 198.41 137.898 198.841 133.663C208.286 134.797 227.953 132.381 227.953 132.381V132.381Z" fill="#353AA8"/>
<path d="M211.316 73.9821C211.316 73.9821 211.959 70.1138 203.983 64.054C200.578 61.4681 196.262 60.3689 193.054 54.9715C190.893 51.3286 188.872 49.2641 185.283 45.5789C181.695 41.8938 166.209 20.2126 164.373 16.0765C162.536 11.9404 160.954 8.14953 160.84 4.67576C160.65 0.0464074 159.06 -0.14384 156.22 0.0464076C154.221 0.180285 149.283 0.52555 148.633 1.68817C148.153 2.55485 149.036 4.43619 149.036 4.43619C149.036 4.43619 147.185 2.82261 146.033 3.51314C144.882 4.20366 146.203 7.03623 147.997 8.81187C150.541 11.3485 154.122 13.5399 156.086 15.4987C158.05 17.4576 162.557 25.4127 164.175 30.0209C166.484 36.4085 169.183 42.6491 172.257 48.7074C175.379 54.6826 183.814 63.8427 189.127 70.7268C194.439 77.6109 201.956 86.7146 203.107 89.0469C210.136 78.534 211.316 73.9821 211.316 73.9821V73.9821Z" fill="#FFC5AA"/>
<path d="M253.978 135.63C250.912 140.301 245.013 142.359 243.876 141.732C243.127 140.569 242.011 134.488 245.494 129.753C248.976 125.018 254.508 123.785 255.85 124.229C257.228 125.391 257.009 131.021 253.978 135.63V135.63Z" fill="#353AA8"/>
<path d="M223.537 72.0442C223.537 72.0442 214.587 72.5938 210.539 70.1135C208.193 70.5433 204.887 72.5374 203.029 77.4275C199.659 86.355 201.885 87.4401 202.047 90.625C202.309 95.7264 199.97 105.323 199.271 110.157C198.571 114.991 199.617 120.726 198.148 126.321C196.678 131.916 196.502 134.882 197.54 135.051C198.579 135.22 228.624 134.53 229.168 133.233C229.712 131.937 228.348 124.116 228.023 117.57C227.698 111.024 229.288 88.638 229.288 88.638L223.537 72.0442Z" fill="#611CCF"/>
<path d="M211.634 37.2857C211.634 37.2857 205.226 33.2341 208.363 27.2589C210.885 22.4464 216.035 22.0166 222.188 26.9489C226.844 30.6763 232.319 28.8232 235.999 30.2959C239.68 31.7685 242.004 35.8483 237.85 40.9074C233.576 46.1146 233.746 47.3688 232.636 54.2036C231.697 59.9885 223.135 59.4741 223.092 59.4882C223.05 59.5023 221.538 50.6523 221.538 50.4057C221.538 50.1591 223.474 40.541 223.474 40.541L211.634 37.2857Z" fill="#353AA8"/>
<path d="M227.232 49.377C227.119 49.6095 223.537 63.6666 225.268 72.256C212.043 76.3427 209.634 72.3757 209.557 71.7345C209.387 70.3253 211.711 63.7723 213.251 58.544C224.463 51.8572 227.232 49.377 227.232 49.377V49.377Z" fill="#FFC5AA"/>
<path d="M226.836 50.9624C226.836 50.9624 223.827 66.2879 211.21 65.1252L213.026 58.4807L226.836 50.9624Z" fill="#E1A487"/>
<path d="M187.17 77.4341L255.857 124.242C253.936 124.552 252.096 125.24 250.445 126.268C248.794 127.296 247.365 128.642 246.242 130.227C245.119 131.812 244.325 133.605 243.905 135.501C243.485 137.396 243.449 139.356 243.798 141.266L243.883 141.731L175.188 94.9227L175.153 94.4436C174.836 90.6535 175.865 86.8727 178.06 83.7631C180.256 80.6534 183.478 78.4131 187.163 77.4341H187.17Z" fill="#7363FF"/>
<path d="M212.34 36.1794C212.34 36.1794 201.157 52.8719 206.455 58.8189C211.754 64.7659 221.778 57.5787 224.18 54.6898C226.582 51.8009 226.836 50.9624 226.836 50.9624C226.836 50.9624 230.065 49.7152 230.439 46.9249C230.842 43.895 227.444 42.6972 226.335 45.1845C225.628 46.7135 225.593 47.5027 225.091 47.5027C224.834 47.4778 224.581 47.4136 224.343 47.3124C224.127 47.2271 223.949 47.0666 223.842 46.8606C223.736 46.6546 223.708 46.4171 223.763 46.1921C224.138 44.6912 224.957 41.443 225.176 40.5551C214.686 37.3421 212.34 36.1794 212.34 36.1794ZM226.427 71.2765C234.424 72.3687 235.434 83.0296 233.244 89.1386C231.054 95.2477 230.418 97.8971 230.326 100.645C230.192 104.915 228.419 109.361 228.073 112.201C227.649 115.632 228.391 119.212 226.427 123.94C224.463 128.668 214.467 144.078 214 148.714C213.682 151.906 213.569 153.766 213.223 157.226C212.877 160.686 212.248 164.012 211.005 163.793C209.762 163.575 210.595 158.22 210.595 157.684C210.595 157.149 209.069 166.612 207.021 165.963C204.972 165.315 209.182 155.711 208.518 156.317C208.158 156.648 205.876 166.823 203.573 165.801C201.454 164.885 206.745 155.62 206.47 154.936C206.47 154.936 202.994 163.455 201.178 162.532C199.363 161.609 204.711 153.477 204.852 152.864C205.156 151.505 200.79 156.07 199.843 153.985C198.331 150.645 204.322 151.948 206.908 144.339C209.415 137.025 209.797 130.162 211.641 124.609C213.485 119.057 215.222 117.232 214.65 113.547C214.078 109.862 213.372 107.966 214.488 98.045C215.484 89.2373 214.53 88.1804 214.53 83.0085C214.53 77.8365 217.992 70.121 226.427 71.2765V71.2765Z" fill="#FFC5AA"/>
<path d="M155.429 6.88811C155.429 6.88811 153.472 7.59273 152.285 6.93039C151.037 6.32898 149.924 5.4803 149.015 4.43604M230.39 72.9039C229.952 72.6503 222.859 68.1477 216.805 75.4687L230.39 72.9039Z" stroke="#E1A487" stroke-miterlimit="10" stroke-linecap="round"/>
<path d="M211.775 40.3853C213.608 41.19 215.369 42.1494 217.038 43.2531" stroke="#353AA8" stroke-miterlimit="10" stroke-linecap="round"/>
<path d="M213.908 46.1007C213.778 46.1725 213.644 46.236 213.506 46.2909C213.24 46.386 212.957 46.4271 212.675 46.4118C212.393 46.3964 212.117 46.3249 211.863 46.2015C211.608 46.078 211.382 45.9052 211.196 45.693C211.009 45.4809 210.868 45.2338 210.779 44.9662C210.63 44.5511 210.617 44.0994 210.744 43.6768" stroke="#3F3B3F" stroke-miterlimit="10" stroke-linecap="round"/>
<path d="M205.46 50.9624C207.275 51.8676 209.311 52.2414 211.331 52.0405C210.517 52.8648 209.529 53.497 208.438 53.8908C207.348 54.2846 206.183 54.43 205.029 54.3164C204.994 53.8332 204.994 53.3481 205.029 52.8649C205.113 52.2187 205.257 51.5818 205.46 50.9624V50.9624Z" fill="#FCFCFC"/>
<path d="M233.823 134.756C233.329 131.684 234.191 127.816 236.437 124.25C238.888 120.361 242.378 117.796 245.621 117.134M188.646 104.225C188.152 101.146 189.021 97.2775 191.267 93.7121C193.711 89.8297 197.201 87.2578 200.451 86.6025L188.646 104.225Z" stroke="#353AA8" stroke-miterlimit="10" stroke-linecap="round"/>
<path d="M221.531 33.0226C223.997 33.6779 226.052 33.995 227.479 33.0226M233.972 32.0573C236.797 33.0649 236.042 37.2644 235.109 38.8428L233.972 32.0573ZM230.475 50.4831C229.62 52.1986 229.207 54.0997 229.274 56.0143L230.475 50.4831ZM229.429 36.7078C229.24 38.942 229.598 41.1888 230.475 43.2537L229.429 36.7078ZM210.751 27.8225C209.861 31.1342 211.563 33.9175 213.909 34.7278L210.751 27.8225ZM218.232 28.2453C219.706 29.7577 221.561 30.8478 223.601 31.402L218.232 28.2453Z" stroke="#272B7B" stroke-miterlimit="10" stroke-linecap="round"/>
<path d="M208.25 71.6426C208.029 72.1727 207.989 72.7604 208.136 73.3154C208.283 73.8704 208.608 74.362 209.062 74.7147C210.744 76.124 213.534 76.0605 215.766 75.6871" stroke="#510D9C" stroke-miterlimit="10" stroke-linecap="round"/>
</svg>
