<svg width="335" height="256" viewBox="0 0 335 256" fill="none" xmlns="http://www.w3.org/2000/svg">
<path d="M30.4948 221.747C-1.28696 178.005 1.02865 96.8408 38.7924 77.1361C76.5561 57.4314 101.314 79.8477 129.352 55.2698C157.39 30.692 171.457 17.1727 207.735 12.2706C247.477 6.9054 309.429 14.1137 327.375 61.3588C345.321 108.604 322.995 126.514 305.579 159.632C288.164 192.749 305.377 230.789 266.204 251.14C231.075 269.397 199.004 230.142 154.746 232.805C114.436 235.285 61.8423 264.852 30.4948 221.747Z" fill="#A8AAFB"/>
<path d="M22.9982 93.2801C22.8534 93.5889 -14.4665 136.144 8.42912 207.234C33.6114 285.396 112.371 233.095 144.674 232.603M331.457 107.735C331.457 107.735 348.196 33.6931 286.437 10.2732C223.858 -13.4555 173.223 12.2031 145.513 43.9121L331.457 107.735Z" stroke="#A8AAFB" stroke-miterlimit="10"/>
<path d="M158.462 164.833C158.462 164.833 126.94 139.184 121.431 134.533C115.922 129.882 112.526 126.716 108.695 125.51C104.865 124.304 102.501 124.671 97.889 121.988C90.8024 117.68 83.9399 113.013 77.3284 108.006C70.8929 103.026 55.0117 89.2466 50.3129 84.8463C45.6142 80.446 42.5074 77.2037 40.9347 73.1894C39.362 69.1751 40.3655 65.6337 36.4965 58.4833C33.245 52.4811 27.0025 41.3453 22.6993 41.7313C19.525 42.0112 20.8468 52.8382 22.6993 59.6316C24.5518 66.425 26.906 69.2813 25.8061 72.9771C24.7062 76.673 20.9819 84.2191 24.6386 88.4167C27.6103 91.7845 34.287 90.0957 39.5839 95.6733C44.8809 101.251 47.7851 109.772 57.5106 123.677C67.2362 137.582 75.7171 144.906 85.9829 149.432C96.2488 153.958 94.9463 151.593 100.127 157.634C105.309 163.675 120.582 184.972 161.665 209.82C171.361 183.91 158.462 164.833 158.462 164.833V164.833Z" fill="#E1A487"/>
<path d="M158.462 164.833C158.462 164.833 126.94 139.184 121.431 134.533C115.922 129.882 112.526 126.716 108.695 125.51C104.865 124.304 102.501 124.671 97.8891 121.988C90.8024 117.68 83.9399 113.013 77.3284 108.006C70.8929 103.026 55.0117 89.2466 50.3129 84.8463C45.6142 80.446 42.5074 77.2037 40.9347 73.1894C39.362 69.1751 40.3655 65.6337 36.4965 58.4833C33.245 52.4811 27.0025 41.3453 22.6993 41.7313C19.525 42.0112 20.8468 52.8382 22.6993 59.6316C24.5518 66.425 26.906 69.2813 25.8061 72.9771C24.7062 76.673 20.9819 84.2191 24.6386 88.4167C27.6103 91.7845 34.287 90.0957 39.584 95.6733C44.4757 100.826 47.3027 108.585 55.4169 120.763C62.7979 128.598 71.1245 136.897 80.7535 141.992C93.1421 148.525 98.1206 145.466 107.962 158.252C117.803 171.038 141.731 189.227 141.731 189.227L139.097 194.93C145.591 199.755 153.058 204.773 161.674 209.984C171.361 183.91 158.462 164.833 158.462 164.833V164.833Z" fill="#FFC5AA"/>
<path d="M22.6891 59.5834C20.5568 60.1624 25.381 65.7013 25.0337 68.5287C24.6863 71.356 24.175 74.058 25.2459 74.5887C26.3169 75.1194 39.3326 78.1494 46.2022 80.5136C53.0718 82.8778 199.418 139.753 199.418 139.753L207.079 138.045L205.767 144.047L199.418 139.753C199.418 139.753 154.872 121.689 139.396 114.664C98.9016 96.1751 22.6891 59.5834 22.6891 59.5834Z" fill="#7363FF"/>
<path d="M199.418 139.753L63.1255 86.9502L83.445 95.7218L194.913 143.71L201.493 145.167L207.427 139.753L203.461 138.2L199.418 139.753V139.753Z" fill="#5F52D1"/>
<path d="M221.34 138.624C218.58 137.694 215.915 136.505 213.38 135.073C212.41 134.333 211.223 133.932 210.003 133.932C208.782 133.932 207.596 134.333 206.626 135.073C205.233 136.036 203.73 136.829 202.149 137.437C200.769 137.958 199.486 139 200.702 140.679C201.917 142.358 206.587 140.274 206.587 140.274C206.587 140.274 203.123 143.68 199.544 143.68H195.733C195.483 144.301 195.442 144.986 195.616 145.632C195.79 146.278 196.17 146.85 196.698 147.26C198.54 148.766 199.119 148.476 199.119 148.476C199.119 148.476 198.888 152.066 201.483 152.751C204.079 153.436 203.509 153.552 204.667 154.421C205.825 155.289 212.753 153.784 212.753 153.784L221.34 138.624Z" fill="#FFC5AA"/>
<path d="M197.615 177.87C192.745 177.891 187.945 176.708 183.644 174.425C176.977 170.69 173.909 172.196 166.865 166.136C159.822 160.076 152.885 154.479 150.463 158.078C148.041 161.678 146.324 163.347 144.124 172.167C141.924 180.987 141.229 181.074 137.891 186.719C134.553 192.364 134.032 201.599 137.032 205.526C140.033 209.453 146.324 201.502 158.423 211.229C170.522 220.956 173.069 223.494 178.684 227.875C186.403 233.906 194.546 238.904 209.453 235.913C224.36 232.922 237.53 209.154 237.53 209.154L220.279 186.516L204.841 175.264L197.615 177.87Z" fill="#272B7B"/>
<path d="M200.866 227.894C217.982 228.164 229.367 209.029 232.889 203.075L220.279 186.516L204.841 175.264L197.576 177.87C192.709 177.892 187.913 176.708 183.615 174.425C176.938 170.69 173.87 172.196 166.827 166.136C159.783 160.076 152.846 154.479 150.424 158.078C148.003 161.678 146.285 163.347 144.085 172.167C141.886 180.987 141.191 181.074 137.853 186.719C134.514 192.364 133.993 201.599 136.994 205.526C139.589 208.971 144.761 203.297 154.129 208.363C170.927 211.354 181.386 227.605 200.866 227.894V227.894Z" fill="#353AA8"/>
<path d="M242.17 97.6221C242.17 97.6221 236.111 100.449 231.837 109.404C227.563 118.359 223.925 128.173 222.015 132.737C220.104 137.302 215.782 147.357 212.897 151.863C210.012 156.37 207.629 157.508 205.034 160.799C202.438 164.089 202.824 168.451 201.531 170.835C199.544 174.521 196.9 175.92 198.26 177.676C199.081 178.718 198.984 178.062 204.117 178.796C207.928 179.346 209.356 180.561 212.974 183.823C217.548 187.963 216.506 188.127 219.188 191.601C222.989 196.503 223.346 197.024 226.405 199.224C230.737 202.322 234.895 211.18 237.664 210.369C240.434 209.559 243.56 198.877 247.023 190.559C250.487 182.24 250.777 180.793 254.24 176.46C258.007 171.626 261.026 166.252 263.194 160.519C265.732 154.112 267.642 149.779 271.164 141.519C274.685 133.258 275.669 103.084 275.669 103.084C275.669 103.084 275.177 101.434 271.482 97.6221C269.687 95.7693 268.134 94.042 267.526 93.4341C266.254 92.1921 264.754 91.209 263.107 90.5392L242.17 97.6221Z" fill="#611CCF"/>
<path d="M246.849 43.6614C246.849 43.6614 238.687 36.0188 244.872 28.2218C249.85 21.9302 257.414 22.7022 264.969 31.5413C270.671 38.2383 278.023 36.4241 284.034 40.2261C288 42.7157 290.875 49.5574 283.793 56.1385C275.11 64.2442 278.255 64.7364 274.762 74.3475C271.81 82.4919 257.395 79.0373 257.308 79.0469C257.221 79.0566 257.492 65.7979 257.559 65.4408C257.627 65.0838 263.068 51.6996 263.068 51.6996L246.849 43.6614Z" fill="#353AA8"/>
<path d="M247.139 76.3254L242.17 97.5548C242.17 97.5548 259.537 96.7442 264.757 92.0641L265.355 66.6467L248.471 74.5113L247.139 76.3254Z" fill="#FFC6AA"/>
<path d="M222.188 147.955C222.188 147.955 214.219 146.527 212.434 149.982C210.649 153.436 211.16 157.769 211.276 160.77C211.392 163.771 214.508 165.798 216.506 165.913C218.503 166.029 223.346 163.433 223.346 163.433L222.188 147.955Z" fill="#7363FF"/>
<path d="M244.399 88.0502C244.399 88.0502 262.056 80.2532 265.356 66.676C256.672 68.1235 250.372 69.2815 250.372 69.2815L248.297 72.8036L246.956 77.0977L244.399 88.0502Z" fill="#E1A487"/>
<path d="M262.345 40.1973C265.742 41.8184 268.627 42.8509 270.952 41.8281M280.629 42.2141C284.392 44.4432 282.183 50.3391 280.398 52.3752L280.629 42.2141ZM270.479 67.9981C268.77 70.2618 267.649 72.9144 267.218 75.7179L270.479 67.9981ZM272.766 47.7144C271.877 50.9042 271.777 54.2625 272.476 57.4992L272.766 47.7144ZM248.172 29.6791C245.972 34.2434 247.67 38.7595 250.845 40.5736L248.172 29.6791ZM258.882 32.3617C260.605 34.9645 262.998 37.0546 265.809 38.4121L258.882 32.3617Z" stroke="#272B7B" stroke-miterlimit="10" stroke-linecap="round"/>
<path d="M248.162 42.2526C248.162 42.2526 227.379 63.4048 233.419 73.4984C239.459 83.592 255.938 75.9108 260.213 72.3694C264.487 68.8279 265.085 67.6989 265.085 67.6989C265.085 67.6989 270.102 66.7339 271.414 62.8258C272.833 58.5413 268.231 55.9069 265.954 59.1685C264.535 61.195 264.236 62.324 263.512 62.1889C263.145 62.0839 262.796 61.9211 262.48 61.7064C262.19 61.5261 261.976 61.2461 261.879 60.9191C261.781 60.5921 261.806 60.2406 261.949 59.9309C262.914 57.8465 264.979 53.3594 265.587 52.1532C251.249 44.5492 248.162 42.2526 248.162 42.2526Z" fill="#FFC5AA"/>
<path d="M246.194 48.1968C248.626 49.8688 250.911 51.7443 253.025 53.8033" stroke="#353AA8" stroke-miterlimit="10" stroke-linecap="round"/>
<path d="M247.708 57.0939C247.501 57.1644 247.288 57.2192 247.072 57.2579C246.498 57.3444 245.912 57.2711 245.377 57.046C244.843 56.8209 244.38 56.4527 244.041 55.982C243.702 55.5113 243.5 54.9563 243.455 54.3778C243.411 53.7994 243.527 53.22 243.791 52.7032" stroke="#3F3B3F" stroke-miterlimit="10" stroke-linecap="round"/>
<path d="M234.076 65.0738C236.478 66.5406 238.987 66.2125 240.183 64.9773" stroke="#E1A487" stroke-miterlimit="10" stroke-linecap="round"/>
<path d="M263.599 101.482C254.424 104.966 256.788 117.887 258.052 121.699C259.316 125.51 265.442 130.017 267.642 134.87C269.842 139.724 269.967 144.105 274 149.191C278.033 154.276 279.423 156.351 279.423 156.351C273.128 154.321 266.615 153.041 260.02 152.539C248.239 151.507 246.734 153.118 238.88 150.233C231.027 147.348 232.705 145.726 227.302 144.395C221.899 143.063 218.484 143.565 217.258 144.858C216.033 146.151 216.737 147.29 218.001 147.811C219.262 148.125 220.568 148.22 221.861 148.091C221.861 148.091 218.455 147.917 217.818 150.233C217.379 151.533 217.241 152.915 217.413 154.276C217.373 155.886 217.1 157.482 216.602 159.014C216.322 159.767 216.67 163.752 219.092 164.206C221.513 164.659 225.903 164.042 231.335 164.206C236.155 164.256 240.94 165.017 245.538 166.464C249.638 167.853 264.198 174.376 275.689 175.419C287.18 176.461 297.88 177.493 301.161 169.407C304.441 161.32 297.301 154.623 296.481 151.072C295.661 147.521 296.018 140.901 291.396 132.526C286.775 124.15 285.675 122.943 284.758 116.989C283.842 111.036 282.433 108.199 277.763 103.943C274 100.517 269.832 99.0892 263.599 101.482V101.482Z" fill="#FFC5AA"/>
<path d="M205.767 140.303C205.767 140.303 207.928 138.122 213.852 139.898M270.874 143.874C269.933 140.319 268.64 136.866 267.015 133.568C264.217 127.855 262.249 128.974 259.296 123.918C256.344 118.861 255.958 110.698 258.669 105.68C261.178 101.029 270.392 97.3426 277.493 103.673L270.874 143.874ZM279.423 156.322C279.423 156.322 283.224 157.499 284.72 159.989L279.423 156.322Z" stroke="#E1A487" stroke-miterlimit="10" stroke-linecap="round"/>
<path d="M198.261 148.496C200.926 148.853 203.624 148.142 205.767 146.517C209.627 143.622 209.81 142.272 209.945 141.297C210.205 139.434 207.34 139.502 207.34 139.502" stroke="#E1A487" stroke-miterlimit="10" stroke-linecap="round"/>
<path d="M202.304 153.302C202.304 153.302 210.524 150.831 212.454 146.904C214.644 142.436 208.681 144.009 208.681 144.009" stroke="#E1A487" stroke-miterlimit="10" stroke-linecap="round"/>
<path d="M74.7036 91.9485L118.98 111.016L215.396 155.376V163.636L74.7036 91.9485Z" fill="#7363FF"/>
<path d="M239.295 101.097C242.682 102.312 261.747 100.797 266.311 94.4961" stroke="#510D9C" stroke-miterlimit="10" stroke-linecap="round"/>
</svg>
