<svg width="340" height="268" viewBox="0 0 340 268" fill="none" xmlns="http://www.w3.org/2000/svg">
<path d="M332.025 146.427C341.426 197.64 305.327 266.838 264.083 267.969C222.84 269.099 210.612 239.27 175.813 248.702C141.013 258.134 123.04 263.878 89.3049 252.845C52.3474 240.742 1.28487 208.393 5.44192 159.987C9.59897 111.581 26.9111 108.129 51.6938 96.048C87.2226 78.7163 92.5044 37.1779 135.291 36.1004C173.639 35.1215 188.443 68.1837 228.22 84.5062C264.433 99.3489 322.753 95.9493 332.025 146.427V146.427Z" fill="#A8AAFB"/>
<path d="M19.0985 117.59C19.0985 117.59 -19.5689 164.729 16.1347 215.047C53.6089 267.854 119.423 267.474 156.95 251.714M302.773 109.273C333.317 119.502 349.436 171.035 331.523 216.754C315.039 258.816 282.406 266.958 262.366 267.292L302.773 109.273Z" stroke="#A8AAFB" stroke-miterlimit="10"/>
<path d="M5.67773 240.324H280.484L246.004 205.668L39.9753 204.955L5.67773 240.324V240.324Z" fill="#7363FF"/>
<path d="M278.827 244.938C278.827 244.938 278.758 248.049 278.91 249.179C278.941 250.125 279.172 251.054 279.589 251.905C280.005 252.755 280.598 253.507 281.327 254.112C283.607 256.229 285.431 257.86 286.563 259.044C287.696 260.228 287.946 262.292 287.323 262.717C286.7 263.142 281.836 267.725 278.432 265.95C275.027 264.174 275.468 262.345 274.381 260.129C273.294 257.914 272.306 257.215 270.429 255C268.552 252.784 268.012 251.896 268.506 249.475C269 247.055 269.692 244.346 269.692 244.346C269.692 244.346 273.249 245.977 278.827 244.938V244.938Z" fill="#FFC6AA"/>
<path d="M255.435 16.4462C251.217 13.4109 250.875 5.35966 256.043 1.71728C262.594 -2.92676 267.381 3.42465 270.421 2.47611C273.461 1.52757 278.279 2.1574 279.009 7.94728C279.883 14.8982 272.496 19.2387 272.496 19.2387L255.435 16.4462Z" fill="#510D9C"/>
<path d="M249.279 36.1988C249.279 36.1988 243.693 33.0117 244.43 23.4277C244.894 17.3039 250.51 11.901 257.22 11.5671C260.952 11.385 262.213 13.4642 267.86 12.842C272.724 12.3032 276.63 14.0561 279.336 18.2904C282.748 23.6022 281.783 34.3169 271.379 40.5772C264.145 38.5145 256.753 37.05 249.279 36.1988V36.1988Z" fill="#7116D4"/>
<path d="M272.678 36.4418C272.678 36.639 272.367 52.9843 274.381 55.8147C276.395 58.6451 279.404 59.6088 283.174 58.9714C289.352 57.9925 292.293 61.0051 294.057 64.6627C296.595 69.9745 294.718 74.5275 296.336 81.2962C297.955 88.065 296.549 92.9822 296.937 98.461C297.378 104.532 298.73 111.073 295.25 113.205C291.769 115.337 284.975 113.6 280.727 110.891C276.478 108.182 265.755 99.364 261.325 95.5015C258.908 93.3768 253.026 89.484 251.3 85.9327C249.575 82.3813 249.469 83.5196 248.975 79.475C248.481 75.4305 247.744 71.826 248.633 71.6818C249.522 71.5377 250.313 76.8571 251.202 76.7584C252.091 76.6598 250.016 70.3463 251.247 69.8075C252.478 69.2688 252.828 75.825 253.527 75.9692C254.226 76.1134 252.296 68.2292 253.33 68.176C254.363 68.1229 254.766 76.4169 255.655 76.4169C256.544 76.4169 255.359 70.8927 256.59 71.3328C257.821 71.7729 259.014 81.152 259.159 81.448C260.838 81.0534 262.472 80.6057 262.472 80.6057C262.472 80.6057 260.694 83.9597 262.077 85.5912C263.46 87.2227 273.226 93.7183 277.444 96.2148C279.847 97.6901 282.393 98.9205 285.043 99.8876L282.809 76.6674L280.217 92.1475L280.909 100.495C280.904 105.33 281.211 110.162 281.829 114.958C265.74 119.989 250.123 114.26 250.123 114.26C250.074 111.397 249.72 108.548 249.066 105.761C248.109 101.496 248.481 99.5613 248.481 99.5613L248.907 83.1857L258.946 57.9318L261.036 56.2245C261.036 56.2245 261.575 51.0948 261.036 48.6362C264.541 44.2503 266.728 38.9613 267.343 33.3837L272.678 36.4418Z" fill="#FFC6AA"/>
<path d="M282.832 76.6674C281.29 74.7382 279.129 73.3983 276.714 72.8733C268.871 71.4846 266.91 72.6988 261.742 72.4104C254.652 72.0082 254.713 69.7697 247.493 71.7123C245.646 77.7829 245.897 80.9321 246.733 84.878C247.569 88.8239 248.139 89.4841 248.192 91.457C248.245 93.43 248.374 97.1634 248.481 99.5462C253.167 99.8288 257.812 100.592 262.343 101.823C266.948 103.075 281 102.809 281 102.809C280.829 98.9251 280.855 95.035 281.076 91.1535C281.6 85.356 281.714 86.1376 282.832 76.6674V76.6674Z" fill="#F461DB"/>
<path d="M272.679 36.4408C272.679 36.4408 272.147 48.1647 268.028 53.3172C266.098 55.5493 263.486 57.0852 260.595 57.688V51.4428C260.595 51.4428 264.98 36.16 265.079 35.9096C265.178 35.6592 272.679 36.4408 272.679 36.4408Z" fill="#E1A487"/>
<path d="M248.39 33.2771C248.268 41.6242 254.401 52.9687 259.273 53.0067C264.144 53.0446 269.251 46.2455 270.627 42.8839C271.551 40.4662 272.23 37.9622 272.656 35.4094C272.656 35.4094 275.65 33.482 274.989 30.0217C274.533 27.5934 271.652 26.4173 269.76 29.1718C265.96 25.0286 261.484 23.6323 256.453 24.6188C251.665 25.5825 248.466 28.1246 248.39 33.2771Z" fill="#F5A587"/>
<path d="M269.761 29.1639C265.961 25.0207 261.484 23.6244 256.453 24.6109C251.666 25.567 248.466 28.1091 248.39 33.2616C248.437 36.5505 249.11 39.8005 250.374 42.838C250.569 42.5771 250.821 42.3638 251.111 42.2138C251.401 42.0639 251.721 41.9813 252.047 41.9722C252.373 41.963 252.697 42.0276 252.995 42.1611C253.293 42.2945 253.556 42.4935 253.766 42.743C253.976 42.9925 254.127 43.2861 254.207 43.6019C254.287 43.9177 254.295 44.2476 254.23 44.5669C254.164 44.8861 254.028 45.1865 253.83 45.4456C253.632 45.7046 253.378 45.9157 253.087 46.063C252.746 46.2351 252.365 46.3112 251.985 46.2831C254.113 50.1455 256.849 52.9684 259.273 52.9836C264.152 52.9836 269.251 46.2224 270.627 42.8608C272.002 39.4992 271.98 39.4309 272.398 36.8812C274.624 36.0616 275.438 32.3282 274.989 29.9986C274.541 27.669 271.653 26.4093 269.761 29.1639V29.1639Z" fill="#FFC6AA"/>
<path d="M262.715 36.8962C262.649 37.2215 262.509 37.5274 262.306 37.7904C262.103 38.0535 261.843 38.2667 261.545 38.4139C261.032 38.6622 260.441 38.697 259.903 38.5106C259.364 38.3242 258.921 37.9319 258.672 37.4198M253.793 38.2318C253.758 38.5626 253.645 38.8805 253.465 39.1599C253.284 39.4394 253.04 39.6725 252.752 39.8405C252.261 40.1286 251.676 40.2104 251.124 40.0682C250.573 39.9259 250.101 39.5712 249.811 39.0817L253.793 38.2318Z" stroke="#3E383E" stroke-width="0.8" stroke-miterlimit="10" stroke-linecap="round"/>
<path d="M258.391 33.4892C258.391 33.4892 261.431 32.6848 263.787 34.0507M249.196 36.0995C250.235 35.1368 251.58 34.5699 252.995 34.4984L249.196 36.0995Z" stroke="#7116D4" stroke-miterlimit="10" stroke-linecap="round"/>
<path d="M258.33 43.8784C258.177 44.1976 257.904 44.4432 257.57 44.5614C257.311 44.6911 257.012 44.7154 256.735 44.629C256.459 44.5427 256.227 44.3524 256.088 44.0985" stroke="#F5A587" stroke-width="0.7" stroke-miterlimit="10" stroke-linecap="round"/>
<path d="M262.214 44.5533C263.418 44.5533 264.395 43.5783 264.395 42.3755C264.395 41.1727 263.418 40.1976 262.214 40.1976C261.009 40.1976 260.033 41.1727 260.033 42.3755C260.033 43.5783 261.009 44.5533 262.214 44.5533Z" fill="#F5A587"/>
<path d="M253.968 14.6185L253.421 14.3908C253.917 15.2835 254.598 16.0597 255.42 16.6673L268.149 18.7314L253.968 14.6185ZM270.406 2.71244C267.366 3.69133 262.586 -2.66008 256.035 1.95361C254.609 2.94628 253.5 4.32784 252.84 5.93319C252.179 7.53853 251.996 9.29977 252.311 11.0065C254.72 9.5495 257.251 9.04108 261.598 10.5891C266.918 12.471 273.819 8.94244 278.006 13.6244C278.845 11.9384 279.188 10.0489 278.994 8.17602C278.264 2.36338 273.53 1.67284 270.406 2.71244V2.71244Z" fill="#7116D4"/>
<path d="M268.476 3.65939C268.476 3.65939 270.186 6.49742 269.107 9.28233M248.041 28.2455C248.041 28.2455 245.001 20.9076 253.915 14.6548L248.041 28.2455ZM276.897 33.4814C276.897 33.4814 280.583 25.6579 275.217 16.7872L276.897 33.4814ZM257.229 15.5654C257.229 15.5654 252.737 19.0029 254.09 23.8215L257.229 15.5654ZM266.949 15.2543C266.949 15.2543 270.171 20.2019 266.584 23.4269L266.949 15.2543ZM261.234 22.4404C261.234 22.4404 265.17 19.3292 263.012 13.7822L261.234 22.4404ZM273.18 18.9726C273.18 18.9726 274.7 22.4177 272.914 25.62L273.18 18.9726ZM256.02 7.75708C255.26 2.44527 260.77 1.5802 260.77 1.5802L256.02 7.75708ZM273.887 3.76563C274.842 4.38289 275.573 5.2892 275.973 6.35167C276.374 7.41414 276.423 8.57686 276.114 9.66933L273.887 3.76563ZM263.726 2.78674C263.536 2.87021 261.021 4.0464 261.887 8.99397L263.726 2.78674Z" stroke="#510D9C" stroke-miterlimit="10" stroke-linecap="round"/>
<path d="M254.462 243.116C254.18 244.465 254.282 245.867 254.758 247.161C255.518 249.437 256.643 252.882 255.07 254.59C253.497 256.297 249.302 256.267 246.756 255.402C244.012 254.506 241.71 254.294 237.75 255.318C232.043 256.798 223.371 257.079 222.551 255.25C221.791 253.535 226.693 252.101 229.459 251.691C234.573 250.932 236.831 248.959 240.174 247.479C241.31 246.958 242.31 246.184 243.101 245.217C243.891 244.251 244.45 243.117 244.734 241.902C250.259 244.497 254.462 243.116 254.462 243.116Z" fill="#FFC6AA"/>
<path d="M281.851 114.943C281.851 114.943 282.505 122.994 284.891 127.274C290.355 137.184 291.883 144.052 289.253 159.585C286.973 173.168 284.359 173.646 283.987 184.05C283.819 188.823 283.371 189.847 284.367 196.328C285.659 204.675 283.462 223.236 281.327 233.1C279.191 242.965 278.826 244.938 278.826 244.938C278.826 244.938 273.225 246.904 269.509 244.999C269.243 237.411 268.027 217.059 266.712 207.057C265.398 197.056 264.471 191.797 264.737 185.089L264.995 178.381C263.752 182.272 262.762 186.239 262.031 190.257C261.271 195.387 263.285 196.403 263.156 203.111C263.027 209.82 261.043 211.261 258.672 222.439C256.301 233.616 254.591 241.41 254.462 243.109C252.341 244.331 246.307 244.157 244.696 241.926C244.316 222.462 245.456 213.09 244.696 201.397C243.936 189.703 242.857 184.839 243.776 178.632C244.696 172.424 246.976 147.588 248.215 139.036C249.454 130.484 249.795 120.24 250.145 114.26C266.211 117.933 281.851 114.943 281.851 114.943V114.943Z" fill="#353AA8"/>
<path d="M265.33 177.538L263.878 146.691L258.741 138.671" stroke="#272B7B" stroke-miterlimit="10" stroke-linecap="round"/>
<path d="M247.022 79.8536C247.22 87.7454 245.715 107.665 236.535 106.473C228.319 105.396 236.063 81.432 238.45 75.8242C241.03 77.691 243.938 79.0577 247.022 79.8536V79.8536Z" fill="#FFC6AA"/>
<path d="M261.295 52.3844C261.181 52.8852 266.911 78.3364 266.911 78.3364L246.612 87.1009L235.509 78.1391L231.146 53.9704L243.002 61.6649L261.295 52.3844Z" fill="#611CCF"/>
<path d="M281.008 111.064C276.76 108.348 265.732 99.3633 261.325 95.5009C258.908 93.3761 254.85 90.4015 252.516 87.2144C251.202 85.416 250.662 84.3537 249.727 80.0814C248.853 76.0824 248.375 72.5387 249.264 72.3869C250.153 72.2351 250.951 77.5394 251.27 77.1372C251.825 76.4315 249.591 70.1104 251.126 69.7993C252.433 69.5413 253.086 76.8109 253.535 76.5529C253.778 76.4163 252.167 68.312 253.322 68.2057C255.017 68.0009 255.442 76.3328 255.648 76.4391C256.529 76.9019 254.698 69.1922 256.263 69.306C258.004 69.435 259.075 81.3942 259.219 81.6902L262.343 80.3394C262.343 80.3394 260.154 83.6176 261.537 85.2415C262.921 86.8654 269.95 91.6688 273.606 93.9832C274.495 94.5523 280.195 97.7774 281.099 98.2327L281.008 111.064Z" fill="#FFC6AA"/>
<path d="M255.99 47.703C256.229 48.0731 256.567 48.3686 256.966 48.5556C257.365 48.7427 257.809 48.8138 258.247 48.7607C258.684 48.7077 259.098 48.5326 259.441 48.2557C259.784 47.9787 260.042 47.611 260.185 47.1946M281.852 111.566C281.852 111.566 271.531 104.615 268.453 101.474L281.852 111.566Z" stroke="#E1A487" stroke-miterlimit="10" stroke-linecap="round"/>
<path d="M242.956 63.3871L246.436 84.7254" stroke="#F461DB" stroke-miterlimit="10" stroke-linecap="round"/>
<path d="M126.68 72.3871C126.68 72.3871 132.137 71.4689 131.62 64.9657C131.141 58.9786 127.911 57.5216 122.356 57.552C113.776 57.5975 112.301 60.7542 107.719 61.4751C103.995 62.0594 99.7769 59.449 94.9131 62.9928C88.2102 67.8872 96.2279 77.7976 95.1031 84.8395C93.9783 91.8815 98.4394 94.7954 101.183 95.2583C103.926 95.7211 104.922 95.319 104.922 95.319L104.162 83.9744L107.361 80.6432L114.201 74.1172L121.041 75.4148L127.06 73.5785L126.68 72.3871Z" fill="#353AA8"/>
<path d="M102.71 86.6383C103.209 93.1391 102.835 99.6773 101.601 106.08C101.635 106.601 101.803 107.105 102.09 107.542C102.376 107.979 102.77 108.336 103.235 108.576C112.248 112.97 118.13 111.118 120.273 109.145C121.033 108.424 120.752 106.626 120.752 106.626L119.232 96.0023L102.71 86.6383Z" fill="#FFC6AA"/>
<path d="M102.711 86.6374C102.711 86.6374 104.162 96.5477 110.622 100.296C115.828 103.332 120.183 102.505 120.183 102.505L119.256 95.9786L105.249 84.0118L102.711 86.6374Z" fill="#F5A587"/>
<path d="M126.68 72.3876C128.483 78.1255 128.848 84.2173 127.744 90.129C125.981 100.123 120.859 101.109 113.723 97.8463C106.587 94.5833 102.734 86.6384 102.734 86.6384C102.06 86.554 101.416 86.3122 100.853 85.9324C100.291 85.5527 99.8257 85.0458 99.4962 84.453C98.2119 82.2524 97.7559 78.7845 99.9066 77.8132C102.057 76.8419 103.805 79.2398 104.14 80.6664C104.58 81.2886 105.979 80.9927 106.04 80.5222C106.1 80.0517 104.77 74.8689 106.344 72.8732C107.917 70.8775 111.435 71.8033 114.703 73.0705C120.479 75.3015 126.68 72.3876 126.68 72.3876V72.3876ZM63.0783 200.766C63.0783 200.766 50.1056 202.284 44.4286 208.021C38.7516 213.758 35.5749 218.91 41.7383 227.075C47.9017 235.24 66.5666 234.481 75.4659 235.422C84.3652 236.363 108.715 240.833 115.615 241.774C122.516 242.715 124.401 243.011 128.056 245.537C131.711 248.064 130.275 247.715 134.759 249.445C139.243 251.176 144.084 253.391 147.268 254.871C150.452 256.351 151.752 256.844 151.661 254.939C151.57 253.035 148.454 247.306 144.236 244.263C139.182 240.62 139.775 240.985 138.407 237.289C137.039 233.593 136.446 233.692 136.446 233.692C136.446 233.692 141.432 233.776 149.282 233.427C157.133 233.077 182.721 230.057 183.998 217.742C185.274 205.426 168.669 203.255 168.669 203.255L155.491 209.569L125.92 215.753L110.295 219.411L98.8958 218.394L85.2163 211.883L80.0257 211.686L63.0783 200.766Z" fill="#FFC6AA"/>
<path d="M170.5 203.589L171.8 203.961L160.537 211.883L156.471 211.708L158.189 208.339L170.5 203.589ZM59.7798 201.289L76.864 214.918L80.641 214.751L77.5935 208.976L66.08 201.373L61.2465 201.001L59.7798 201.289V201.289Z" fill="#E1A487"/>
<path d="M85.9458 185.476C85.9458 185.476 84.1979 192.093 82.5107 193.724C80.8236 195.356 78.5513 196.152 74.265 196.555C69.9788 196.957 61.5203 198.482 60.4259 199.893C59.3316 201.305 65.7457 201.92 68.3145 204.287C72.1827 207.793 78.8705 212.885 80.0256 214.911C89.2973 214.706 99.1693 221.391 99.1693 221.391C99.1693 221.391 108.768 222.97 115.691 220.951C122.614 218.933 143.765 211.321 157.064 211.898C162.619 206.412 170.326 204.545 171.891 203.384C173.457 202.223 170.736 202.625 166.457 201.305C160.651 199.491 155.628 198.11 149.692 197.511C143.757 196.911 141.766 194.316 140.443 192.783C138.992 191.091 137.654 185.567 137.654 185.567C137.654 185.567 108.221 194.263 85.9458 185.476V185.476Z" fill="#353AA8"/>
<path d="M90.1104 216.914C96.3312 217.151 102.561 216.91 108.745 216.193C118.769 214.934 126.103 208.856 139.25 207.892C137.586 210.927 135.777 213.962 135.777 213.962L134.364 215.389L128.284 217.096L124.18 218.333L118.503 220.109C116.789 220.718 115.031 221.195 113.244 221.536C110.65 221.937 108.024 222.089 105.401 221.991C104.36 221.991 99.6328 221.695 98.47 221.232C97.9122 220.933 97.374 220.598 96.8589 220.23L94.3966 218.857L91.8279 217.643L90.1104 216.914Z" fill="#272B7B"/>
<path d="M140.983 195.508C138.381 194.998 135.718 194.875 133.079 195.143" stroke="#272B7B" stroke-miterlimit="10" stroke-linecap="round"/>
<path d="M87.6711 110.95C84.3242 111.756 81.1704 113.216 78.3918 115.245C73.604 118.888 72.4488 126.104 73.2164 130.422C73.984 134.74 73.6496 140.408 72.2969 142.996C70.9441 145.583 72.1297 153.437 72.0537 157.702C71.9777 161.966 70.4805 166.808 69.3102 173.205C68.1398 179.602 67.4178 179.814 67.1974 185.862C66.977 191.91 67.7446 203.315 66.8478 207.686C65.9511 212.057 63.4736 217.46 64.2411 221.398C65.0087 225.336 65.4951 232.105 66.6883 232.022C67.8814 231.938 67.4026 228.228 67.1898 224.911C68.5046 231.695 68.5654 233.259 69.5534 232.94C70.5413 232.621 69.8193 227.446 69.4926 225.481C71.7725 233.35 71.4989 234.162 72.9276 233.547C73.9156 233.114 72.9276 231.27 73.2392 230.929C74.1816 233.084 76.2791 229.859 75.4659 225.579C74.6528 221.299 73.4824 218.294 74.2424 217.771C75.0024 217.247 74.9568 222.855 77.4647 222.271C79.9726 221.686 74.0372 208.475 74.554 203.74C75.0708 199.005 76.9631 192.813 79.1138 184.838C81.2645 176.862 83.9852 170.147 84.7452 162.073C85.5052 153.999 87.7851 137.479 89.0998 135.096C86.8199 125.535 88.6743 123.342 88.6743 123.342L87.6711 110.95ZM135.625 110.229C135.625 110.229 144.745 110.943 148.241 117.992C151.402 124.351 150.05 130.422 149.578 134.208C149.176 137.471 150.513 140.666 151.136 146.099C151.76 151.533 150.422 158.999 151.136 162.035C151.851 165.07 153.044 176.217 152.314 182.698C151.585 189.178 147.861 204.529 147.633 207.625C147.405 210.721 147.283 212.421 148.043 215.282C148.803 218.143 148.628 222.946 147.709 224.623C146.789 226.3 145.771 228.592 145.072 228.045C144.373 227.499 146.987 219.979 145.725 220.586C144.464 221.193 143.628 229.002 141.85 228.797C140.071 228.592 142.959 220.806 142.252 220.449C141.546 220.093 138.977 230.094 137.647 229.555C136.317 229.017 140.322 218.568 139.524 218.552C138.726 218.537 136.651 225.002 135.329 224.54C134.007 224.077 139.22 215.168 138.156 214.675C137.092 214.182 136.796 219.546 134.85 219.607C132.905 219.668 134.295 214.69 135.496 212.33C137.115 209.128 138.665 210.524 139.699 204.795C140.786 198.724 141.766 190.24 141.31 185.574C140.854 180.907 138.931 172.962 139.661 166.208C140.39 159.455 140.2 155.365 138.437 148.573C136.674 141.782 135.2 133.746 135.2 133.746L135.625 110.229Z" fill="#FFC6AA"/>
<path d="M101.601 106.079C101.601 106.079 90.0421 109.805 87.6481 110.951C85.83 119.357 85.9521 128.065 88.0053 136.417C88.0053 136.417 87.2454 143.209 87.8153 147.678C88.2257 151.055 88.0281 156.268 87.9825 159.349C87.9369 162.43 85.8166 167.271 86.5918 170.367C87.367 173.463 86.5462 176.438 85.7938 178.889C85.1775 181.065 85.1775 183.368 85.7938 185.544C106.457 195.135 137.472 185.673 137.472 185.673C138.111 184.092 138.426 182.399 138.399 180.695C138.211 178.217 138.261 175.727 138.551 173.258C138.825 170.982 137.578 167.871 137.867 164.79C138.156 161.709 139.288 158.294 138.627 153.187C137.966 148.08 138.164 147.443 137.768 143.884C137.539 141.191 137.494 138.486 137.632 135.787C137.632 135.787 138.832 116.058 135.648 110.23C126.186 107.308 120.707 106.625 120.707 106.625C120.707 106.625 118.138 109.228 111.808 109.205C108.193 109.054 104.679 107.977 101.601 106.079V106.079Z" fill="#611CCF"/>
<path d="M134.569 214.699C134.569 214.699 132.714 218.857 133.923 219.464C135.131 220.071 136.286 218.03 137.19 215.996C138.026 214.122 138.482 214.881 138.11 215.587C137.738 216.292 134.173 223.44 135.367 224.472C136.56 225.504 138.938 218.265 139.562 218.485C140.185 218.705 135.762 228.494 137.684 229.488C139.607 230.482 141.583 220.223 142.29 220.382C142.997 220.542 140.01 228.183 141.887 228.729C143.764 229.276 144.783 220.511 145.763 220.519C146.743 220.526 144.137 227.53 145.109 227.978C146.082 228.426 147.807 224.184 148.423 221.908C149.038 219.631 148.256 217.226 147.891 214.676C147.693 213.264 147.26 212.399 147.313 210.123M76.8638 214.919C76.8638 214.919 81.8797 213.909 89.7226 216.831C97.5655 219.752 100.985 223.281 105.484 226.286C109.983 229.291 115.546 232.144 120.258 232.577C124.97 233.009 125.95 233.207 129.272 232.106C132.593 231.006 134.447 230.74 136.871 233.996L76.8638 214.919ZM156.957 211.967C158.945 211.83 160.941 211.863 162.923 212.066L156.957 211.967ZM67.2806 202.224C67.2806 202.224 67.2198 208.112 66.0722 210.662C64.9247 213.211 63.9823 216.626 64.2939 219.297C64.6055 221.968 65.2895 229.966 65.8898 231.34C66.4902 232.713 67.2882 231.992 67.3718 230.922C67.4554 229.853 66.6574 225.664 67.235 225.611C67.8126 225.558 68.2989 233.131 69.5149 232.926C70.7309 232.721 69.3857 226.157 69.6289 226.051C70.6473 225.595 70.3889 233.146 72.0456 233.639C73.4744 234.041 71.7948 225.717 72.3344 225.52C72.874 225.322 73.8543 232.152 75.4579 231.78C76.613 231.514 75.4579 225.535 74.9563 223.387C74.4547 221.24 73.6416 218.508 74.0823 217.954C74.5231 217.4 74.8423 218.03 75.0019 218.849C75.1843 219.973 75.6251 222.826 77.0006 222.644C78.3762 222.461 78.2622 220.314 77.4338 217.226C76.6054 214.137 75.6935 212.028 75.2679 209.212L67.2806 202.224Z" stroke="#E1A487" stroke-miterlimit="10" stroke-linecap="round"/>
<path d="M117.811 81.0907C117.752 81.2552 117.676 81.413 117.583 81.5612C117.349 81.9499 117.012 82.2666 116.609 82.4764C116.206 82.6863 115.754 82.7811 115.3 82.7505C114.847 82.7199 114.411 82.5651 114.04 82.303C113.669 82.041 113.378 81.6819 113.198 81.2652" stroke="#3F3B3F" stroke-miterlimit="10" stroke-linecap="round"/>
<path d="M123.503 87.8291C123.303 88.0526 123.06 88.2344 122.789 88.3638C122.518 88.4933 122.223 88.5679 121.923 88.5834C121.623 88.5989 121.323 88.555 121.04 88.4542C120.756 88.3534 120.496 88.1977 120.273 87.996M124.4 92.4731C124.052 93.1322 123.458 93.6272 122.746 93.8504C122.034 94.0735 121.263 94.0067 120.6 93.6645C120.211 93.4621 119.873 93.1741 119.612 92.8222L124.4 92.4731Z" stroke="#F5A587" stroke-miterlimit="10" stroke-linecap="round"/>
<path d="M127.569 81.2355C127.473 81.3972 127.358 81.5474 127.227 81.6833C126.864 82.0546 126.387 82.2937 125.872 82.3625C125.356 82.4312 124.833 82.3257 124.385 82.0627C123.969 81.8238 123.639 81.46 123.443 81.0231" stroke="#3F3B3F" stroke-miterlimit="10" stroke-linecap="round"/>
<path d="M127.25 78.4268C126.039 78.044 124.774 77.8545 123.504 77.8653M112.021 79.2691C114.153 78.7125 116.33 78.3368 118.526 78.1461L112.021 79.2691Z" stroke="#353AA8" stroke-miterlimit="10" stroke-linecap="round"/>
<path d="M115 61.7331C117.151 60.3065 119.56 60.0029 120.799 60.4355M80.6416 195.143C80.6416 195.143 86.4554 194.096 91 195.143H80.6416ZM127.57 68.0465C125.29 70.6569 122.736 72.3187 117.812 71.3095L127.57 68.0465ZM98.6301 65.7928C95.4839 68.8812 97.9766 72.7361 97.9158 75.7031L98.6301 65.7928ZM99.7549 87.207C99.7373 89.2573 100.394 91.2567 101.624 92.8982L99.7549 87.207ZM109.741 66.453C113.541 67.4622 117.067 66.157 117.531 65.3906L109.741 66.453Z" stroke="#272B7B" stroke-miterlimit="10" stroke-linecap="round"/>
<path d="M99.7468 107.885C103.211 110.486 107.413 111.921 111.747 111.983C119.004 112.241 122.576 108.128 122.576 108.128M88.5676 159.827C88.5676 159.827 90.1787 162.824 94.6473 163.052L88.5676 159.827ZM137.031 178.441C132.395 181.401 129.256 181.924 129.256 181.924L137.031 178.441ZM134.075 180.187C133.003 182.076 129.583 184.489 126.946 184.489L134.075 180.187ZM87.8152 173.835C89.2059 176.787 90.9995 177.432 90.9995 177.432L87.8152 173.835Z" stroke="#510D9C" stroke-miterlimit="10" stroke-linecap="round"/>
</svg>
