<svg width="50" height="12" viewBox="0 0 50 12" fill="none" xmlns="http://www.w3.org/2000/svg">
<path d="M3.44695 6.82742C2.35887 6.55791 1.18703 6.41797 -4.29942e-07 6.41797L-5.61077e-07 4.91797C1.18703 4.91797 2.35887 4.77803 3.44695 4.50852C4.55481 4.23412 5.04615 4.11103 6.3224 3.36121C6.90804 3.01713 7.52712 2.45884 7.99495 1.81972C8.47044 1.17012 8.72851 0.522301 8.72851 3.60807e-06L10.2285 3.47693e-06C10.2285 0.966362 9.77812 1.92318 9.20534 2.7057C8.62488 3.49869 7.85586 4.2 7.08224 4.65451C6.91853 4.7507 6.76514 4.83813 6.62011 4.91797L50 4.91797L50 6.41797L6.62011 6.41797C6.76514 6.49782 6.91853 6.58524 7.08224 6.68143C7.85587 7.13595 8.62488 7.83726 9.20534 8.63025C9.77813 9.41277 10.2285 10.3696 10.2285 11.3359L8.72852 11.3359C8.72852 10.8136 8.47044 10.1658 7.99495 9.51623C7.52712 8.8771 6.90804 8.31881 6.3224 7.97474C5.04615 7.22491 4.55481 7.10183 3.44695 6.82742Z" fill="black"/>
</svg>
