<svg width="51" height="12" viewBox="0 0 51 12" fill="none" xmlns="http://www.w3.org/2000/svg">
<path d="M46.7845 4.78586C47.8726 5.05537 49.0444 5.19531 50.2314 5.19531V6.69531C49.0444 6.69531 47.8726 6.83525 46.7845 7.10476C45.6766 7.37917 45.1853 7.50225 43.909 8.25208C43.3234 8.59615 42.7043 9.15444 42.2365 9.79357C41.761 10.4432 41.5029 11.091 41.5029 11.6133H40.0029C40.0029 10.6469 40.4533 9.69011 41.0261 8.90759C41.6066 8.1146 42.3756 7.41329 43.1492 6.95877C43.3129 6.86258 43.4663 6.77516 43.6113 6.69531L0.231445 6.69531V5.19531H43.6113C43.4663 5.11547 43.3129 5.02804 43.1492 4.93185C42.3756 4.47734 41.6066 3.77603 41.0261 2.98304C40.4533 2.20052 40.0029 1.2437 40.0029 0.277344H41.5029C41.5029 0.799641 41.761 1.44746 42.2365 2.09706C42.7043 2.73618 43.3234 3.29447 43.909 3.63855C45.1853 4.38837 45.6766 4.51146 46.7845 4.78586Z" fill="black"/>
</svg>
