<svg width="11" height="18" viewBox="0 0 11 18" fill="none" xmlns="http://www.w3.org/2000/svg">
<path d="M10.4883 12.1266C10.4883 13.5202 10.0034 14.706 9.0336 15.6841C8.06395 16.6623 6.88358 17.1514 5.49247 17.1514C4.10135 17.1514 2.91954 16.6623 1.94704 15.6841C0.974534 14.706 0.488281 13.5202 0.488281 12.1266V4.41196C0.488281 3.42186 0.83209 2.58029 1.51971 1.88724C2.20718 1.19418 3.04597 0.847656 4.03607 0.847656C5.02616 0.847656 5.86502 1.19418 6.55264 1.88724C7.24026 2.58029 7.58406 3.42186 7.58406 4.41196V11.7141C7.58406 12.2949 7.38177 12.7907 6.97718 13.2016C6.57245 13.6125 6.07933 13.8179 5.49783 13.8179C4.91618 13.8179 4.41992 13.6139 4.00904 13.2059C3.59815 12.7979 3.39271 12.3006 3.39271 11.7141V4.18113H4.67964V11.7141C4.67964 11.9441 4.75694 12.1377 4.91154 12.295C5.06614 12.4524 5.25842 12.531 5.48839 12.531C5.71821 12.531 5.91043 12.4524 6.06503 12.295C6.21963 12.1377 6.29693 11.9441 6.29693 11.7141V4.40381C6.28806 3.77011 6.06796 3.23351 5.63662 2.79403C5.20529 2.35454 4.67177 2.1348 4.03607 2.1348C3.40308 2.1348 2.86806 2.3559 2.431 2.7981C1.99395 3.24045 1.77542 3.7784 1.77542 4.41196V12.1266C1.76655 13.1641 2.12517 14.0463 2.85125 14.7734C3.57734 15.5007 4.45875 15.8643 5.49547 15.8643C6.51746 15.8643 7.3862 15.5007 8.10171 14.7734C8.81707 14.0463 9.18355 13.1641 9.20114 12.1266V4.18113H10.4883V12.1266Z" fill="#1C1B1F"/>
</svg>
