<svg width="24" height="24" viewBox="0 0 24 24" fill="none" xmlns="http://www.w3.org/2000/svg">
<path fill-rule="evenodd" clip-rule="evenodd" d="M3.38281 11.2494C5.46531 11.2494 7.52384 11.004 9.43922 10.5296C11.3744 10.0503 12.2728 9.8227 14.5269 8.49837C15.6014 7.86704 16.7198 6.85567 17.5647 5.70141C18.4173 4.53668 18.9302 3.31167 18.9302 2.25391H20.4302C20.4302 3.75573 19.7249 5.28974 18.7751 6.58739C17.8176 7.89551 16.5493 9.0499 15.2867 9.79167C12.8666 11.2135 11.8193 11.4854 9.79986 11.9856C9.78078 11.9903 9.76168 11.995 9.74257 11.9997C9.76168 12.0044 9.78078 12.0091 9.79986 12.0138C11.8193 12.514 12.8666 12.7858 15.2867 14.2077C16.5493 14.9495 17.8176 16.1039 18.7751 17.412C19.7249 18.7097 20.4302 20.2437 20.4302 21.7455H18.9302C18.9302 20.6877 18.4173 19.4627 17.5647 18.298C16.7198 17.1437 15.6014 16.1324 14.5269 15.501C12.2728 14.1767 11.3744 13.9491 9.43922 13.4698C7.52384 12.9954 5.46531 12.75 3.38281 12.75V12.7494V11.25V11.2494Z" fill="#373737"/>
</svg>
