<svg width="24" height="24" viewBox="0 0 24 24" fill="none" xmlns="http://www.w3.org/2000/svg">
<path fill-rule="evenodd" clip-rule="evenodd" d="M20.6186 11.2494C18.5362 11.2494 16.4776 11.004 14.5622 10.5296C12.6271 10.0503 11.7287 9.8227 9.4746 8.49837C8.40003 7.86704 7.28165 6.85567 6.43676 5.70141C5.5842 4.53668 5.07129 3.31167 5.07129 2.25391H3.57129C3.57129 3.75573 4.27652 5.28974 5.22637 6.58739C6.18389 7.89552 7.45221 9.0499 8.71476 9.79167C11.1349 11.2135 12.1822 11.4854 14.2016 11.9856C14.2207 11.9903 14.2398 11.995 14.2589 11.9997C14.2398 12.0044 14.2207 12.0091 14.2016 12.0138C12.1822 12.514 11.1349 12.7859 8.71476 14.2077C7.45221 14.9495 6.18389 16.1039 5.22637 17.412C4.27652 18.7097 3.57129 20.2437 3.57129 21.7455H5.07129C5.07129 20.6877 5.5842 19.4627 6.43676 18.298C7.28165 17.1437 8.40003 16.1324 9.4746 15.501C11.7287 14.1767 12.6271 13.9491 14.5622 13.4698C16.4776 12.9954 18.5362 12.75 20.6187 12.75L20.6186 12.7494L20.6187 11.25L20.6186 11.2494Z" fill="#373737"/>
</svg>
