<svg width="41" height="41" viewBox="0 0 41 41" fill="none" xmlns="http://www.w3.org/2000/svg">
<path d="M4.38439 40.4375C3.25884 40.4375 2.32811 40.0695 1.59218 39.3336C0.856247 38.5977 0.488281 37.6669 0.488281 36.5414V4.3336C0.488281 3.20806 0.856247 2.27733 1.59218 1.5414C2.32811 0.805465 3.25884 0.4375 4.38439 0.4375H21.787V2.25568H4.38439C3.77832 2.25568 3.28049 2.45049 2.89088 2.8401C2.50127 3.22971 2.30646 3.72754 2.30646 4.3336V36.5414C2.30646 37.1475 2.50127 37.6453 2.89088 38.0349C3.28049 38.4245 3.77832 38.6193 4.38439 38.6193H36.5922C37.1982 38.6193 37.6961 38.4245 38.0857 38.0349C38.4753 37.6453 38.6701 37.1475 38.6701 36.5414V19.1388H40.4883V36.5414C40.4883 37.6669 40.1203 38.5977 39.3844 39.3336C38.6485 40.0695 37.7177 40.4375 36.5922 40.4375H4.38439ZM7.50127 31.3466H33.4753L25.4883 20.6972L17.6961 30.3726L12.6961 24.5933L7.50127 31.3466ZM33.4753 12.6453V7.45049H28.2805V5.63231H33.4753V0.4375H35.2935V5.63231H40.4883V7.45049H35.2935V12.6453H33.4753Z" fill="#373737"/>
</svg>
