<svg width="345" height="347" viewBox="0 0 345 347" fill="none" xmlns="http://www.w3.org/2000/svg">
<g clip-path="url(#clip0)">
<g filter="url(#filter0_i)">
<path fill-rule="evenodd" clip-rule="evenodd" d="M328.517 238.062C310.163 272.762 267.305 304.446 227.839 325.945C208.581 336.331 191.681 343.231 178.649 345.231C165.049 347.431 155.323 344.721 137.249 340.68C122.668 334.425 97.3537 332.626 75.9767 324.465C54.2527 316.865 36.4647 302.908 28.9517 285.335C20.9857 267.893 23.2907 246.829 31.3377 227.952C38.8247 208.768 52.0527 191.771 53.0557 175.394C58.5687 159.994 53.4657 134.445 54.2497 106.745C54.3727 79.198 60.3827 49.501 72.8497 29.394C85.0547 8.94101 103.726 -1.928 123.506 0.265003C143.454 1.617 164.506 16.032 185.357 26.772C226.239 53.208 287.306 90.272 319.045 129.635C335.138 149.017 343.97 168.193 344.245 185.848C344.901 203.693 336.997 220.018 328.521 238.061L328.517 238.062Z" fill="white"/>
</g>
</g>
<path d="M167.392 327.987C154.658 316.739 160.441 290.53 160.441 290.53H141.447H122.453C122.453 290.53 128.237 316.739 115.503 327.987C102.77 339.235 87.9141 339.235 87.9141 339.235V345.549H141.447H194.981V339.235C194.981 339.235 180.125 339.235 167.392 327.987Z" fill="#DDDDDD"/>
<path opacity="0.3" d="M194.981 339.235H87.9141V345.549H194.981V339.235Z" fill="white"/>
<path d="M282.947 281.457C282.947 291.219 275.413 299.178 266.075 299.178H16.8718C7.53394 299.178 0 291.219 0 281.457V136.721C0 126.958 7.53394 119 16.8718 119H266.128C275.466 119 283 126.958 283 136.721V281.457H282.947Z" fill="#28333B"/>
<path d="M0 135.872V273.605C0 276.894 0.955007 279.918 2.54668 282.518H280.4C281.992 279.918 282.947 276.894 282.947 273.605V135.872C282.947 131.521 281.249 127.542 278.543 124.571H4.35058C1.64473 127.542 0 131.521 0 135.872Z" fill="#28333B"/>
<path d="M270.745 130.248H12.1504V276.629H270.745V130.248Z" fill="#F9F9F9"/>
<path d="M65.4182 223.945H37.8291V276.629H65.4182V223.945Z" fill="#9FC3C4"/>
<path d="M112.266 208.081H84.6768V276.682H112.266V208.081Z" fill="#F0CFBB"/>
<path d="M159.486 174.603H131.896V276.682H159.486V174.603Z" fill="#A4A2BA"/>
<path d="M208.881 157.041H181.292V276.682H208.881V157.041Z" fill="#FF8D29"/>
<path d="M255.942 138.578H228.353V276.682H255.942V138.578Z" fill="#F7636C"/>
<path d="M30.5604 245.114L28.0137 241.718L108.287 181.5L194.291 172.533L254.881 136.774L257.056 140.435L195.67 176.672L109.879 185.638L30.5604 245.114Z" fill="#34495E"/>
<path d="M36.1842 243.416C36.1842 247.236 33.1069 250.313 29.2869 250.313C25.4669 250.313 22.3896 247.236 22.3896 243.416C22.3896 239.596 25.4669 236.519 29.2869 236.519C33.1069 236.519 36.1842 239.596 36.1842 243.416Z" fill="#9FC3C4"/>
<path d="M115.98 183.569C115.98 187.389 112.903 190.466 109.083 190.466C105.263 190.466 102.186 187.389 102.186 183.569C102.186 179.749 105.263 176.672 109.083 176.672C112.903 176.672 115.98 179.749 115.98 183.569Z" fill="#9FC3C4"/>
<path d="M201.878 174.603C201.878 178.423 198.8 181.5 194.98 181.5C191.16 181.5 188.083 178.423 188.083 174.603C188.083 170.783 191.16 167.705 194.98 167.705C198.8 167.705 201.878 170.783 201.878 174.603Z" fill="#9FC3C4"/>
<path d="M262.839 138.578C262.839 142.398 259.762 145.475 255.942 145.475C252.122 145.475 249.045 142.398 249.045 138.578C249.045 134.758 252.122 131.68 255.942 131.68C259.762 131.68 262.839 134.758 262.839 138.578Z" fill="#9FC3C4"/>
<path d="M141.447 293.819C145.344 293.819 148.503 290.66 148.503 286.763C148.503 282.866 145.344 279.706 141.447 279.706C137.55 279.706 134.391 282.866 134.391 286.763C134.391 290.66 137.55 293.819 141.447 293.819Z" fill="white"/>
<defs>
<filter id="filter0_i" x="24.0127" y="-0.0132294" width="320.27" height="346.03" filterUnits="userSpaceOnUse" color-interpolation-filters="sRGB">
<feFlood flood-opacity="0" result="BackgroundImageFix"/>
<feBlend mode="normal" in="SourceGraphic" in2="BackgroundImageFix" result="shape"/>
<feColorMatrix in="SourceAlpha" type="matrix" values="0 0 0 0 0 0 0 0 0 0 0 0 0 0 0 0 0 0 127 0" result="hardAlpha"/>
<feOffset/>
<feGaussianBlur stdDeviation="10"/>
<feComposite in2="hardAlpha" operator="arithmetic" k2="-1" k3="1"/>
<feColorMatrix type="matrix" values="0 0 0 0 0 0 0 0 0 0 0 0 0 0 0 0 0 0 0.1 0"/>
<feBlend mode="normal" in2="shape" result="effect1_innerShadow"/>
</filter>
<clipPath id="clip0">
<rect width="320.281" height="346.031" fill="white" transform="translate(24)"/>
</clipPath>
</defs>
</svg>
