<svg width="345" height="351" viewBox="0 0 345 351" fill="none" xmlns="http://www.w3.org/2000/svg">
<g clip-path="url(#clip0)">
<g filter="url(#filter0_i)">
<path fill-rule="evenodd" clip-rule="evenodd" d="M328.517 240.806C310.163 275.906 267.305 307.956 227.839 329.702C208.581 340.208 191.681 347.188 178.649 349.211C165.049 351.436 155.323 348.695 137.249 344.607C122.668 338.28 97.3537 336.46 75.9767 328.205C54.2527 320.518 36.4647 306.4 28.9517 288.624C20.9857 270.981 23.2907 249.674 31.3377 230.58C38.8247 211.175 52.0527 193.982 53.0557 177.416C58.5687 161.838 53.4657 135.995 54.2497 107.976C54.3727 80.1111 60.3827 50.0718 72.8497 29.733C85.0547 9.04421 103.726 -1.95009 123.506 0.268196C143.454 1.63578 164.506 16.2169 185.357 27.0807C226.239 53.8215 287.306 91.3127 319.045 131.129C335.138 150.735 343.97 170.132 344.245 187.99C344.901 206.041 336.997 222.554 328.521 240.805L328.517 240.806Z" fill="white"/>
</g>
<path d="M167.392 331.768C154.658 320.39 160.441 293.879 160.441 293.879H141.447H122.453C122.453 293.879 128.237 320.39 115.503 331.768C102.77 343.145 87.9141 343.145 87.9141 343.145V349.532H141.447H194.981V343.145C194.981 343.145 180.125 343.145 167.392 331.768Z" fill="#DDDDDD"/>
<path opacity="0.3" d="M194.981 343.146H87.9141V349.532H194.981V343.146Z" fill="white"/>
<path d="M282.947 284.701C282.947 294.576 275.413 302.627 266.075 302.627H16.8718C7.53394 302.627 0 294.576 0 284.701V138.297C0 128.421 7.53394 120.372 16.8718 120.372H266.128C275.466 120.372 283 128.421 283 138.297V284.701H282.947Z" fill="#28333B"/>
<path d="M0 137.438V276.759C0 280.086 0.955007 283.145 2.54668 285.775H280.4C281.992 283.145 282.947 280.086 282.947 276.759V137.438C282.947 133.037 281.249 129.012 278.543 126.007H4.35058C1.64473 129.012 0 133.037 0 137.438Z" fill="#28333B"/>
<path d="M270.745 131.749H12.1504V279.818H270.745V131.749Z" fill="#F9F9F9"/>
<path d="M65.4182 226.526H37.8291V279.818H65.4182V226.526Z" fill="#9FC3C4"/>
<path d="M112.266 210.48H84.6768V279.871H112.266V210.48Z" fill="#F0CFBB"/>
<path d="M159.486 176.616H131.896V279.871H159.486V176.616Z" fill="#A4A2BA"/>
<path d="M208.881 158.851H181.292V279.871H208.881V158.851Z" fill="#FF8D29"/>
<path d="M255.942 140.175H228.353V279.871H255.942V140.175Z" fill="#F7636C"/>
<path d="M30.5604 247.94L28.0137 244.504L108.287 183.592L194.291 174.522L254.881 138.351L257.056 142.054L195.67 178.709L109.879 187.778L30.5604 247.94Z" fill="#34495E"/>
<path d="M36.1842 246.222C36.1842 250.086 33.1069 253.198 29.2869 253.198C25.4669 253.198 22.3896 250.086 22.3896 246.222C22.3896 242.358 25.4669 239.245 29.2869 239.245C33.1069 239.245 36.1842 242.358 36.1842 246.222Z" fill="#9FC3C4"/>
<path d="M115.98 185.685C115.98 189.549 112.903 192.662 109.083 192.662C105.263 192.662 102.186 189.549 102.186 185.685C102.186 181.821 105.263 178.709 109.083 178.709C112.903 178.709 115.98 181.821 115.98 185.685Z" fill="#9FC3C4"/>
<path d="M201.878 176.616C201.878 180.48 198.8 183.592 194.98 183.592C191.16 183.592 188.083 180.48 188.083 176.616C188.083 172.752 191.16 169.638 194.98 169.638C198.8 169.638 201.878 172.752 201.878 176.616Z" fill="#9FC3C4"/>
<path d="M262.839 140.175C262.839 144.039 259.762 147.152 255.942 147.152C252.122 147.152 249.045 144.039 249.045 140.175C249.045 136.311 252.122 133.198 255.942 133.198C259.762 133.198 262.839 136.311 262.839 140.175Z" fill="#9FC3C4"/>
<path d="M141.447 297.206C145.344 297.206 148.503 294.011 148.503 290.069C148.503 286.127 145.344 282.93 141.447 282.93C137.55 282.93 134.391 286.127 134.391 290.069C134.391 294.011 137.55 297.206 141.447 297.206Z" fill="white"/>
</g>
<defs>
<filter id="filter0_i" x="24.0127" y="-0.0132446" width="320.27" height="350.019" filterUnits="userSpaceOnUse" color-interpolation-filters="sRGB">
<feFlood flood-opacity="0" result="BackgroundImageFix"/>
<feBlend mode="normal" in="SourceGraphic" in2="BackgroundImageFix" result="shape"/>
<feColorMatrix in="SourceAlpha" type="matrix" values="0 0 0 0 0 0 0 0 0 0 0 0 0 0 0 0 0 0 127 0" result="hardAlpha"/>
<feOffset/>
<feGaussianBlur stdDeviation="10"/>
<feComposite in2="hardAlpha" operator="arithmetic" k2="-1" k3="1"/>
<feColorMatrix type="matrix" values="0 0 0 0 0 0 0 0 0 0 0 0 0 0 0 0 0 0 0.1 0"/>
<feBlend mode="normal" in2="shape" result="effect1_innerShadow"/>
</filter>
<clipPath id="clip0">
<rect width="345" height="351" fill="white"/>
</clipPath>
</defs>
</svg>
