<svg width="374" height="351" viewBox="0 0 374 351" fill="none" xmlns="http://www.w3.org/2000/svg">
<g filter="url(#filter0_i)">
<path fill-rule="evenodd" clip-rule="evenodd" d="M200.592 24.381C238.855 33.13 280.553 66.33 311.532 98.889C326.546 114.804 337.59 129.346 342.887 141.416C348.532 153.984 348.431 164.08 349.207 182.588C346.939 198.288 351.753 223.21 349.407 245.972C347.691 268.924 338.807 289.719 323.783 301.526C308.998 313.736 288.056 316.96 267.741 314.073C247.275 311.806 227.434 303.427 211.357 306.697C195.057 305.357 171.7 316.897 144.742 323.311C118.104 330.322 87.866 332.202 65.219 325.368C42.308 318.868 26.978 303.64 23.977 283.968C20.12 264.349 28.593 240.279 33.571 217.361C48.522 171.024 68.516 102.441 98.319 61.593C112.874 41.031 129.11 27.536 146.092 22.706C163.158 17.453 180.972 20.864 200.592 24.382V24.381Z" fill="white"/>
</g>
<path fill-rule="evenodd" clip-rule="evenodd" d="M320.399 318.777C320.399 325.52 314.945 330.931 308.245 330.931H64.7669C58.0239 330.931 52.6123 325.477 52.6123 318.777V168.155C52.6123 161.412 58.0668 156 64.7669 156H308.202C314.945 156 320.356 161.455 320.356 168.155V318.777H320.399Z" fill="#28333B"/>
<path d="M309.491 167.553H64.5957V318.777H309.491V167.553Z" fill="#F4F4F4"/>
<path fill-rule="evenodd" clip-rule="evenodd" d="M0.257694 330.072C0.085898 331.146 0 332.263 0 333.379C0 343 5.84106 350.774 13.0136 350.774H360.986C368.202 350.774 374 342.957 374 333.379C374 332.263 373.914 331.146 373.742 330.072H0.257694Z" fill="white"/>
<path opacity="0.1" d="M1.11621 340.466C3.13481 346.565 7.68741 350.817 13.0131 350.817H360.986C366.312 350.817 370.864 346.565 372.883 340.466H1.11621Z" fill="#4C4444"/>
<path d="M138.597 181.726H77.2656V184.776H138.597V181.726Z" fill="#00748A"/>
<path d="M138.597 190.832H77.2656V193.881H138.597V190.832Z" fill="#F7636C"/>
<path d="M138.553 202.385H77.2649L75.6758 199.336H137.007L138.553 202.385Z" fill="#F0CFBB"/>
<path d="M138.597 278.018H77.2656V281.068H138.597V278.018Z" fill="#00748A"/>
<path d="M138.597 267.968H77.2656V271.017H138.597V267.968Z" fill="#00748A"/>
<path d="M138.597 288.412H77.2656V291.461H138.597V288.412Z" fill="#00748A"/>
<path d="M211.781 218.62H150.45V221.669H211.781V218.62Z" fill="#F7636C"/>
<path d="M147.057 218.62H85.7256V221.669H147.057V218.62Z" fill="#00748A"/>
<path d="M147.057 227.081H85.7256V230.13H147.057V227.081Z" fill="#F7636C"/>
<path d="M179.226 227.081H150.45V230.13H179.226V227.081Z" fill="#00748A"/>
<path d="M147.057 243.487H85.7256V246.537H147.057V243.487Z" fill="#00748A"/>
<path d="M179.226 243.487H150.45V246.537H179.226V243.487Z" fill="#F7636C"/>
<path d="M252.369 235.241H223.593V238.29H252.369V235.241Z" fill="#F7636C"/>
<path d="M218.182 211.834H85.7268L84.1377 208.784H216.592L218.182 211.834Z" fill="#F0CFBB"/>
<path d="M216.592 238.29H84.1377L85.7268 235.241H218.182L216.592 238.29Z" fill="#F0CFBB"/>
<path d="M252.412 256.243H223.593L222.004 253.194H250.823L252.412 256.243Z" fill="#F0CFBB"/>
<path d="M218.18 253.194H85.7256V256.243H218.18V253.194Z" fill="#00748A"/>
<path d="M242.319 296.873H213.543V299.922H242.319V296.873Z" fill="#F0CFBB"/>
<path d="M209.72 296.873H77.2656V299.922H209.72V296.873Z" fill="#00748A"/>
<path d="M65.196 335.269C65.196 336.601 64.1223 337.674 62.7909 337.674C61.4595 337.674 60.3857 336.601 60.3857 335.269C60.3857 333.938 61.4595 332.864 62.7909 332.864C64.1223 332.864 65.196 333.938 65.196 335.269Z" fill="#F7636C"/>
<g opacity="0.7">
<g opacity="0.7">
<path opacity="0.7" d="M56.7784 335.269C56.7784 336.472 55.7906 337.46 54.588 337.46H35.7763C34.5738 337.46 33.5859 336.472 33.5859 335.269C33.5859 334.067 34.5738 333.079 35.7763 333.079H54.588C55.8335 333.079 56.7784 334.067 56.7784 335.269Z" fill="black"/>
</g>
</g>
<path d="M96.3347 318.863L85.082 319.936V328.655H80.7871V329.514H85.941V320.709L96.4205 319.679L96.3347 318.863Z" fill="#231F20"/>
<path d="M147.83 318.304L156.978 319.421V328.097H160.457V328.956H156.291V320.194L147.787 319.163L147.83 318.304Z" fill="#231F20"/>
<defs>
<filter id="filter0_i" x="23" y="20" width="327.07" height="309.635" filterUnits="userSpaceOnUse" color-interpolation-filters="sRGB">
<feFlood flood-opacity="0" result="BackgroundImageFix"/>
<feBlend mode="normal" in="SourceGraphic" in2="BackgroundImageFix" result="shape"/>
<feColorMatrix in="SourceAlpha" type="matrix" values="0 0 0 0 0 0 0 0 0 0 0 0 0 0 0 0 0 0 127 0" result="hardAlpha"/>
<feOffset/>
<feGaussianBlur stdDeviation="10"/>
<feComposite in2="hardAlpha" operator="arithmetic" k2="-1" k3="1"/>
<feColorMatrix type="matrix" values="0 0 0 0 0 0 0 0 0 0 0 0 0 0 0 0 0 0 0.1 0"/>
<feBlend mode="normal" in2="shape" result="effect1_innerShadow"/>
</filter>
</defs>
</svg>
