<svg width="51" height="58" viewBox="0 0 51 58" fill="none" xmlns="http://www.w3.org/2000/svg">
<path d="M31.1414 36.1177C31.1414 34.6111 31.1414 33.1045 31.1414 31.3998C24.6916 31.3998 18.402 31.3998 11.9922 31.3998C11.9922 29.7743 11.9922 28.347 11.9922 26.6818C18.2417 26.6818 24.5313 26.6818 31.1414 26.6818C31.1414 24.9374 31.1414 23.3515 31.1414 21.8053L31.1013 21.845C32.6237 21.845 34.146 21.845 35.8686 21.845C35.8686 23.3912 35.8686 24.8581 35.8686 26.5232C37.5512 26.5232 39.0334 26.5232 40.6359 26.5232C40.6359 28.1487 40.6359 29.576 40.6359 31.2015C39.1937 31.2015 37.7114 31.2015 35.9888 31.2015C35.9888 32.8667 35.9888 34.3336 35.9888 36.0384C34.2261 36.0384 32.6637 36.0384 31.0613 36.0384L31.1414 36.1177Z" fill="#C2FF14"/>
<path d="M29.819 36.4751C29.819 37.9817 29.819 39.4883 29.819 41.1138C28.2566 41.1138 26.7743 41.1138 25.1719 41.1138C25.1719 39.6865 25.1719 38.2196 25.1719 36.5148C26.7343 36.5148 28.2966 36.5148 29.8991 36.5148C29.859 36.5544 29.819 36.4751 29.819 36.4751Z" fill="#C2FF14"/>
<path d="M29.859 22.242C28.3367 22.242 26.8144 22.242 25.1719 22.242C25.1719 20.6958 25.1719 19.2289 25.1719 17.643C26.6141 17.643 28.0963 17.643 29.819 17.643C29.819 19.1892 29.819 20.7354 29.819 22.3213C29.819 22.2816 29.859 22.242 29.859 22.242Z" fill="#C2FF14"/>
<rect x="2.44049" y="55.3959" width="53.3442" height="46.5052" transform="rotate(-90 2.44049 55.3959)" stroke="#C2FF14" stroke-width="4.1034"/>
<rect x="46.8945" y="57.4478" width="4.1034" height="4.1034" transform="rotate(-90 46.8945 57.4478)" fill="#060606"/>
<rect x="46.8945" y="4.10352" width="4.1034" height="4.1034" transform="rotate(-90 46.8945 4.10352)" fill="#060606"/>
<rect x="0.390625" y="57.4478" width="4.1034" height="4.1034" transform="rotate(-90 0.390625 57.4478)" fill="#060606"/>
<rect x="0.390625" y="4.10352" width="4.1034" height="4.1034" transform="rotate(-90 0.390625 4.10352)" fill="#060606"/>
</svg>
