<svg width="51" height="58" viewBox="0 0 51 58" fill="none" xmlns="http://www.w3.org/2000/svg">
<path d="M19.8586 36.1182C19.8586 34.6116 19.8586 33.105 19.8586 31.4002C26.3084 31.4002 32.598 31.4002 39.0078 31.4002C39.0078 29.7747 39.0078 28.3475 39.0078 26.6823C32.7583 26.6823 26.4687 26.6823 19.8586 26.6823C19.8586 24.9379 19.8586 23.352 19.8586 21.8058L19.8987 21.8455C18.3763 21.8455 16.854 21.8455 15.1314 21.8455C15.1314 23.3917 15.1314 24.8586 15.1314 26.5237C13.4488 26.5237 11.9666 26.5237 10.3641 26.5237C10.3641 28.1492 10.3641 29.5765 10.3641 31.202C11.8063 31.202 13.2886 31.202 15.0112 31.202C15.0112 32.8672 15.0112 34.3341 15.0112 36.0389C16.7739 36.0389 18.3363 36.0389 19.9387 36.0389L19.8586 36.1182Z" fill="#C2FF14"/>
<path d="M21.181 36.4751C21.181 37.9817 21.181 39.4883 21.181 41.1138C22.7434 41.1138 24.2257 41.1138 25.8281 41.1138C25.8281 39.6865 25.8281 38.2196 25.8281 36.5148C24.2657 36.5148 22.7034 36.5148 21.1009 36.5148C21.141 36.5544 21.181 36.4751 21.181 36.4751Z" fill="#C2FF14"/>
<path d="M21.141 22.242C22.6633 22.242 24.1856 22.242 25.8281 22.242C25.8281 20.6958 25.8281 19.2289 25.8281 17.643C24.3859 17.643 22.9037 17.643 21.181 17.643C21.181 19.1892 21.181 20.7354 21.181 22.3213C21.181 22.2816 21.141 22.242 21.141 22.242Z" fill="#C2FF14"/>
<rect x="2.0517" y="2.0517" width="53.3442" height="46.5052" transform="matrix(4.37114e-08 -1 -1 -4.37114e-08 50.6112 57.4481)" stroke="#C2FF14" stroke-width="4.1034"/>
<rect width="4.1034" height="4.1034" transform="matrix(4.37114e-08 -1 -1 -4.37114e-08 4.10547 57.4478)" fill="#060606"/>
<rect width="4.1034" height="4.1034" transform="matrix(4.37114e-08 -1 -1 -4.37114e-08 4.10547 4.104)" fill="#060606"/>
<rect width="4.1034" height="4.1034" transform="matrix(4.37114e-08 -1 -1 -4.37114e-08 50.6094 57.4478)" fill="#060606"/>
<rect width="4.1034" height="4.1034" transform="matrix(4.37114e-08 -1 -1 -4.37114e-08 50.6094 4.104)" fill="#060606"/>
</svg>
