<svg width="128" height="112" viewBox="0 0 128 112" fill="none" xmlns="http://www.w3.org/2000/svg">
<g opacity="0.2">
<path d="M117.065 66.1386C118.689 61.4726 121.093 56.9425 121.772 52.0062C121.901 51.0604 121.968 50.107 121.971 49.1524C113.292 50.5303 104.533 51.488 95.7885 52.4511C98.7468 53.4541 101.714 54.449 104.648 55.5339C106.546 56.2247 108.426 56.9656 110.268 57.7948C111.96 58.5525 113.455 59.556 115.069 60.4498C115.196 60.5336 115.284 60.6636 115.316 60.8119C115.348 60.9602 115.32 61.1151 115.24 61.2435C113.025 64.9746 111.81 69.1089 110.16 73.0796C110.115 73.2052 110.025 73.3092 109.906 73.3713C109.788 73.4333 109.651 73.4487 109.522 73.4146C102.708 71.3199 96.0241 68.7568 89.3705 66.1423L90.4197 67.2954C93.3864 70.5814 96.2944 73.9197 99.263 77.2006C101.436 79.5967 103.812 81.7487 106.029 84.087C106.509 84.5738 106.962 85.0853 107.388 85.6195C108.461 84.4581 109.425 83.2012 110.269 81.8645C113.364 77.0076 115.186 71.5344 117.065 66.1386Z" fill="#4BAEE6"/>
<path d="M79.4204 20.1671L78.6191 19.8755C78.8716 20.0128 79.1243 20.1444 79.3771 20.2705C79.3891 20.235 79.4035 20.2005 79.4204 20.1671Z" fill="#1857BD"/>
<path d="M82.4928 21.3082C82.5958 21.3193 82.695 21.3535 82.7831 21.408C82.8711 21.4626 82.9458 21.5362 83.0017 21.6235C83.0575 21.7107 83.0931 21.8094 83.1058 21.9122C83.1184 22.015 83.1079 22.1194 83.0749 22.2176C80.9501 29.4578 78.3887 36.5731 75.8291 43.6834C82.4309 42.8253 89.0173 41.9162 95.6223 41.0025C100.024 40.3927 104.439 39.7311 108.883 39.1765C112.033 38.7804 115.123 38.6119 118.264 38.4735C115.263 34.9708 110.709 32.4457 106.797 30.3697C101.357 27.5716 95.6589 25.3077 89.7821 23.6097C86.8638 22.7252 83.9747 21.7814 81.1147 20.7782L81.0364 20.9936C81.4967 21.1157 81.9911 21.222 82.4928 21.3082Z" fill="#4BAEE6"/>
<path d="M18.0662 51.1684C26.0758 50.6809 34.0392 49.167 41.9929 48.0693L43.4126 47.8772C39.2524 46.4367 35.0771 45.0531 30.9224 43.5976C26.6643 42.0989 22.4351 39.913 17.8611 39.6094C17.7329 39.5991 17.6087 39.5596 17.4981 39.4939C17.3875 39.4281 17.2935 39.338 17.2232 39.2302C17.1529 39.1225 17.1082 39.0001 17.0925 38.8724C17.0769 38.7447 17.0907 38.6151 17.1329 38.4936C17.775 36.5893 18.4199 34.6462 18.9049 32.6903C19.276 31.2033 19.5132 29.5543 20.2717 28.2027C21.3992 26.1801 23.6807 26.4717 25.5823 27.1525C28.2415 28.1203 30.728 29.4847 33.4132 30.428C37.1705 31.7445 40.9752 32.9308 44.7398 34.2273C38.3792 27.7381 32.1529 21.0824 26.2268 14.2409C24.0706 16.4253 22.2096 18.8824 20.6912 21.5498C18.6352 25.1177 16.8943 28.858 15.4882 32.7284C14.0448 36.3209 12.9194 40.0332 12.1252 43.8225C11.5839 46.6996 11.4689 49.6406 11.7839 52.5512C13.3382 51.2567 16.3706 51.2772 18.0662 51.1684Z" fill="#4BAEE6"/>
<path d="M89.7325 81.8243C85.8694 78.1497 82.2367 74.3718 78.6459 70.4163C78.4302 70.5385 78.1787 70.5816 77.9346 70.5383C77.6906 70.495 77.4692 70.368 77.3087 70.1792C74.6578 67.2407 72.0015 64.3173 69.4572 61.3042C68.7791 63.1671 68.076 65.021 67.3579 66.8693C66.436 69.2673 65.5013 71.6588 64.5538 74.0438C63.5869 76.4821 62.2986 78.9623 61.6945 81.51C61.6454 81.6548 61.5504 81.7797 61.4239 81.8657C61.2974 81.9517 61.1464 81.9941 60.9937 81.9865L60.6422 81.955C60.4234 82.556 60.2065 83.1519 59.9914 83.7428C59.9198 83.9234 59.7806 84.0689 59.6034 84.1484C59.4262 84.2279 59.225 84.2352 59.0425 84.1687C56.1575 82.8862 53.1482 82.0234 50.4619 80.3197C50.3676 80.2486 50.2941 80.1535 50.2491 80.0443C50.204 79.9352 50.189 79.816 50.2057 79.6991C49.4649 79.4627 48.6854 79.3716 47.9101 79.4307C47.7472 79.4613 47.5788 79.4442 47.4254 79.3812C47.272 79.3182 47.1402 79.2121 47.0458 79.0758C46.9514 78.9394 46.8986 78.7787 46.8937 78.6129C46.8887 78.4472 46.932 78.2836 47.0181 78.1419C49.4067 73.3399 51.1616 68.2223 53.0772 63.2085C53.8414 61.2181 54.6406 59.2404 55.4548 57.2683C52.6202 57.6393 49.7847 58.0232 46.9483 58.42C46.7089 58.4559 46.4645 58.4092 46.2551 58.2877C46.0458 58.1661 45.8841 57.9769 45.7966 57.7512C39.9993 58.596 34.217 59.5085 28.442 60.2763C25.9714 60.6134 23.443 60.8444 20.9387 61.1806C20.5462 61.293 20.1523 61.3935 19.7521 61.4803C18.8428 61.6992 17.9135 61.8247 16.9786 61.8547C16.3343 61.9888 15.6946 62.1416 15.0717 62.2949C15.9945 63.8169 17.1011 65.2197 18.3664 66.4715C22.0616 70.1246 26.9282 72.2419 31.6875 74.1556C36.0554 75.8779 40.5139 77.3605 45.0432 78.597C48.888 83.0079 52.5146 87.5038 56.9272 91.4294C60.6156 94.7115 64.3015 99.0135 69.2458 100.325C69.3306 100.341 69.418 100.336 69.5005 100.311C69.583 100.285 69.658 100.24 69.7192 100.179C69.7804 100.118 69.8259 100.044 69.8518 99.9613C69.8777 99.879 69.8832 99.7916 69.8679 99.7067C69.3543 97.0673 69.3895 94.3504 69.9714 91.7251C70.3939 89.9564 71.1271 88.2382 71.414 86.4371C76.5148 88.0044 81.5391 89.7821 86.7726 90.8135C90.5524 91.5541 94.5026 91.8576 98.2738 91.0013C95.6723 87.7226 92.8164 84.6541 89.7325 81.8243Z" fill="#4BAEE6"/>
<path d="M38.9293 11.0782C40.7081 12.8599 42.4209 14.714 44.1269 16.5712C47.3517 20.0986 50.5055 23.6965 53.7477 27.2074C56.9898 30.7184 60.1942 34.2553 63.4072 37.784C66.1588 30.8974 68.395 23.8159 70.0974 16.598C59.8896 12.5764 49.362 8.90348 38.2278 9.1101C37.7656 9.1177 37.3149 9.14079 36.8686 9.18255C37.5851 9.80062 38.2529 10.4123 38.9293 11.0782Z" fill="#4BAEE6"/>
<path d="M72.7302 17.5451C70.4458 22.5438 68.9389 27.9615 67.1749 33.1666C65.9431 36.7846 64.7396 40.4186 63.4978 44.0329C56.4416 41.4647 49.3905 38.8983 42.2437 36.5636C35.5176 34.3821 28.7855 32.17 22.2745 29.3975C21.2178 28.9505 20.5034 30.6017 21.5687 31.0405L22.2398 31.2848C21.2748 33.2815 19.7003 34.9429 19.1046 37.125C19.0722 37.2253 19.0786 37.334 19.1225 37.4298C19.1664 37.5256 19.2446 37.6014 19.3417 37.6423C30.9362 42.2481 42.8333 46.0848 54.6187 50.1816C56.5928 50.866 58.5663 51.5673 60.5331 52.2718C57.1083 61.3698 53.2983 70.3105 50.2054 79.5406C50.1916 79.5894 50.1829 79.6394 50.1794 79.69C50.1627 79.8069 50.1777 79.9261 50.2228 80.0352C50.2678 80.1444 50.3413 80.2395 50.4355 80.3106C53.1146 82.0343 56.1312 82.8771 59.0161 84.1596C59.1986 84.2261 59.3999 84.2189 59.5771 84.1393C59.7543 84.0598 59.8935 83.9143 59.9651 83.7337C60.2103 83.1537 60.4322 82.5596 60.6158 81.9459C61.3149 79.9318 61.892 77.7542 62.5122 75.7228C63.3303 73.0545 64.0915 70.3711 64.8695 67.6882C66.1128 63.5242 67.489 59.4314 68.9659 55.3582C75.8103 57.9004 82.6188 60.5259 89.4317 63.1701C95.8277 65.6511 102.293 67.925 108.757 70.204C108.896 70.252 109.047 70.2551 109.187 70.2126C109.328 70.1701 109.452 70.0843 109.541 69.9674C111.474 67.461 112.2 64.4699 113.553 61.656C113.62 61.4749 113.614 61.2745 113.535 61.0982C113.456 60.9219 113.31 60.7838 113.13 60.7138C107.272 58.3604 101.101 56.6307 95.0541 54.7812C89.1288 52.9705 83.2175 51.0742 77.3697 49.0195C75.5869 48.3706 73.804 47.7217 72.0103 47.1029C73.2862 43.5973 74.467 40.0572 75.5785 36.4578C77.1882 31.2249 78.7415 25.9602 80.969 20.9465L81.0474 20.7311C81.0711 20.666 81.0948 20.6009 81.1166 20.5408C81.5955 19.4901 79.9324 18.777 79.4754 19.83C79.439 19.9302 79.4044 20.0254 79.3697 20.1205C79.3545 20.1546 79.3417 20.1898 79.3314 20.2257C79.0786 20.0996 78.826 19.968 78.5735 19.8307C76.8322 18.8963 75.1478 17.8523 73.278 17.2398C73.1803 17.2046 73.0731 17.2058 72.9762 17.2433C72.9163 17.2736 72.8636 17.3162 72.8212 17.3681C72.7788 17.4201 72.7478 17.4804 72.7302 17.5451Z" fill="#EF5F7A"/>
<path d="M97.3573 50.589C101.25 49.9755 105.131 49.4881 109.033 48.9406C113.129 48.3612 117.116 47.3963 121.282 47.7276C121.348 47.7372 121.414 47.7316 121.477 47.7112C121.539 47.6908 121.596 47.6563 121.643 47.6102C121.69 47.5641 121.726 47.5078 121.747 47.4457C121.769 47.3835 121.776 47.3172 121.768 47.2519C121.281 45.1296 121.389 40.5014 118.452 40.3739C116.305 40.2731 114.028 40.6863 111.899 40.9265C109.366 41.2181 106.84 41.5807 104.325 41.9638C99.3238 42.7241 94.3347 43.5453 89.3297 44.2077C87.0471 44.5112 84.7482 44.6726 82.4657 44.9761C80.1831 45.2795 77.9132 45.9222 75.5757 45.7066C75.5414 45.7036 75.5069 45.7101 75.4762 45.7255C75.4454 45.7408 75.4194 45.7644 75.4012 45.7935C75.3829 45.8227 75.3731 45.8563 75.3728 45.8907C75.3725 45.9251 75.3817 45.9589 75.3994 45.9884L75.2363 46.0936C75.041 46.0225 74.8457 45.9514 74.6408 45.9222C73.8609 45.712 73.6138 47.0456 74.4378 47.1811C78.382 47.8283 81.8946 49.8951 85.7631 50.8437C89.6316 51.7924 93.5375 51.1893 97.3573 50.589Z" fill="#EF5F7A"/>
<path d="M27.8956 59.1252C31.3639 58.3685 34.9145 58.0559 38.4233 57.5465C38.4356 57.664 38.4728 57.7776 38.5325 57.8796C38.5921 57.9817 38.6729 58.0698 38.7693 58.1382C38.8657 58.2065 38.9756 58.2536 39.0916 58.2761C39.2076 58.2987 39.3271 58.2962 39.4421 58.2689C45.173 56.952 51.0147 56.7643 56.7929 55.8786C57.9986 55.6823 59.1152 55.1076 59.1393 53.7325C59.1634 52.3575 57.9524 51.758 56.8853 51.2618C53.1153 49.5127 48.9642 48.7452 44.8179 49.0304C42.0013 49.2586 39.2374 49.903 36.438 50.2395C33.4069 50.6051 30.3531 50.6903 27.3193 51.0323C24.0332 51.4128 20.8085 52.0143 17.5465 52.5C15.334 52.829 12.9486 52.9476 11.1287 54.395C11.0898 54.4273 11.0589 54.4681 11.0383 54.5143C11.0176 54.5605 11.0079 54.6108 11.0097 54.6613C11.0116 54.7119 11.0251 54.7613 11.0491 54.8058C11.0731 54.8504 11.107 54.8888 11.1482 54.9181C13.0246 56.0888 12.1463 59.3591 13.7822 60.8789C14.675 61.6088 15.8155 61.9649 16.965 61.8729C17.8998 61.8429 18.8291 61.7175 19.7384 61.4986C20.1387 61.4117 20.5325 61.3112 20.925 61.1989C23.2705 60.5667 25.5278 59.6472 27.8956 59.1252Z" fill="#EF5F7A"/>
<path d="M99.5055 90.7753C99.582 90.8324 99.6755 90.8622 99.7709 90.86C99.8663 90.8577 99.9582 90.8234 100.032 90.7627C101.875 89.2961 103.868 88.0292 105.978 86.9835C106.053 86.9419 106.117 86.8827 106.164 86.8111C106.212 86.7395 106.241 86.6576 106.25 86.5723C106.259 86.487 106.247 86.4008 106.215 86.3211C106.183 86.2414 106.133 86.1704 106.068 86.1144C102.813 83.886 101.061 80.3619 98.5451 77.4271C95.7823 74.204 92.5463 71.4553 89.9425 68.0916C87.5881 65.0398 85.4994 62.5045 81.7835 61.152C79.8455 60.4466 77.8331 59.9921 75.9115 59.2416C73.7963 58.4151 71.7969 57.3641 69.7674 56.3645C69.6584 56.3232 69.5414 56.3074 69.4253 56.3181C69.3093 56.3288 69.1972 56.3658 69.0975 56.4262C68.9979 56.4867 68.9133 56.5691 68.8503 56.6672C68.7872 56.7652 68.7474 56.8763 68.7337 56.9921C68.6651 57.6826 68.6704 58.3785 68.7495 59.0679C68.7605 59.1436 68.7908 59.2153 68.8375 59.276C68.8842 59.3367 68.9457 59.3844 69.016 59.4146C69.0864 59.4448 69.1634 59.4564 69.2395 59.4483C69.3157 59.4403 69.3885 59.4128 69.451 59.3686C72.4505 61.1465 74.2927 64.25 76.5458 66.8168C79.0655 69.6792 81.7834 72.3868 84.5541 75.0116C87.3389 77.6034 89.961 80.3646 92.4053 83.2797C94.6083 85.953 96.8262 88.5694 99.5055 90.7753Z" fill="#EF5F7A"/>
<path d="M44.9667 18.9408C42.9965 17.373 40.9718 15.8931 39.1032 14.1865C37.7645 12.9563 36.6163 11.1716 34.9892 10.3128C32.2655 8.86779 29.7496 11.4173 27.9943 13.217C27.8572 13.36 27.8339 13.6577 28.0301 13.7575C30.0059 14.7488 31.3739 17.192 32.8231 18.8197C34.4098 20.5995 35.9742 22.3939 37.5472 24.1801C40.6755 27.7234 43.8876 31.161 47.3015 34.4339C47.211 34.5423 47.1672 34.6823 47.1798 34.823C47.1924 34.9637 47.2603 35.0937 47.3687 35.1843C49.2581 36.9288 51.4272 38.3433 53.7855 39.3687C56.339 40.5022 59.2713 40.2991 61.602 41.9981C61.7173 42.0774 61.8552 42.1174 61.995 42.1121C62.1349 42.1068 62.2693 42.0566 62.3783 41.9688C62.8118 41.6689 63.1932 41.3 63.5074 40.8768C63.5867 40.7615 63.6267 40.6236 63.6214 40.4838C63.6161 40.3439 63.5658 40.2095 63.478 40.1005C61.9932 38.6016 61.0608 36.6913 59.7518 35.0523C58.188 33.1163 56.732 31.1175 55.1481 29.2366C52.1198 25.4614 48.7077 22.011 44.9667 18.9408Z" fill="#EF5F7A"/>
</g>
</svg>
