<svg width="103" height="103" viewBox="0 0 103 103" fill="none" xmlns="http://www.w3.org/2000/svg">
<g opacity="0.2">
<path d="M63.0654 20.3414L65.3455 14.0768C56.5688 10.8823 46.7831 14.4169 42.0712 22.4802L31.3971 40.7404L23.0478 37.7016L20.7677 43.9662L27.9783 46.5906L17.9151 63.8053C14.8303 69.0851 8.42247 71.3982 2.67634 69.3068L0.3962 75.5714C9.17293 78.7659 18.9586 75.2313 23.6705 67.168L34.3446 48.9078L41.1277 51.3766L43.4079 45.112L37.7634 43.0576L47.8266 25.8429C50.9114 20.5631 57.3192 18.25 63.0654 20.3414Z" fill="#AF48C9"/>
<path d="M61.6369 34.0106L59.815 31.2188C59.4923 31.4296 51.8497 36.5357 46.9657 49.9543C42.0817 63.3729 44.6542 72.197 44.7659 72.5659L51.1447 70.6302C51.1249 70.5632 49.1638 63.4071 53.2303 52.2344C57.2957 41.0649 63.4183 36.8302 63.48 36.7868L61.6369 34.0106Z" fill="#AF48C9"/>
<path d="M85.0712 44.6687C85.0926 44.7362 87.0536 51.8924 82.9871 63.065C78.9218 74.2346 72.7991 78.4693 72.7375 78.5127L74.5806 81.2888L76.4024 84.0806C76.728 83.8691 84.3678 78.7637 89.2518 65.3451C94.1357 51.9265 91.5632 43.1024 91.4515 42.7335L85.0712 44.6687Z" fill="#AF48C9"/>
<path d="M74.5781 49.049L68.9783 52.8228L67.1144 46.3325L60.7072 48.1747L63.1669 56.7378L55.7785 61.7165L59.5024 67.2461L65.1022 63.4724L66.9661 69.9627L73.3732 68.1204L70.9136 59.5574L78.302 54.5787L74.5781 49.049Z" fill="#AF48C9"/>
</g>
</svg>
