<svg width="104" height="139" viewBox="0 0 104 139" fill="none" xmlns="http://www.w3.org/2000/svg">
<g opacity="0.2">
<path d="M18.1947 91.7896L10.4319 88.6531L30.7363 27.4342L38.4991 30.5707L40.5295 24.4488L25.0039 18.1758L0.638654 91.6384L16.1642 97.9115L18.1947 91.7896Z" fill="#644BEC"/>
<path d="M85.618 47.0989L93.3808 50.2355L73.0764 111.454L65.3136 108.318L63.2832 114.44L78.8088 120.713L103.174 47.2501L87.6484 40.9771L85.618 47.0989Z" fill="#644BEC"/>
<path d="M23.9926 83.6532L65.396 101.343L69.0023 89.8162L62.1018 86.8679L60.2986 92.6314L35.2251 81.9185L58.1522 72.1126L46.0441 47.3376L71.1176 58.0505L69.3145 63.814L76.215 66.7623L79.8214 55.2354L38.418 37.5454L36.7356 42.9226L49.112 68.2501L25.6749 78.276L23.9926 83.6532Z" fill="#644BEC"/>
</g>
</svg>
