<svg width="72" height="77" viewBox="0 0 72 77" fill="none" xmlns="http://www.w3.org/2000/svg">
<path opacity="0.2" d="M4.0674 50.5385L29.537 30.2281C32.5202 33.3483 36.0543 35.8925 39.9767 37.7364L26.7439 74.0933L32.7777 76.2894L41.6073 52.0304C49.4336 54.245 57.0264 54.1608 61.4461 53.8135L65.2891 72.8231L71.5843 71.551L65.158 39.7649L65.165 39.7641L58.6896 7.77154L57.1224 0.0159646L50.9367 4.9497L25.4118 25.2951L25.4166 25.3002L0.0626788 45.5176L4.0674 50.5385ZM54.1302 17.6238L57.5593 34.5852C54.44 34.8662 51.2741 34.5989 48.2252 33.8479L54.1302 17.6238ZM34.5671 26.2167L48.0964 15.4277L42.1908 31.6532C39.3729 30.2672 36.7765 28.4355 34.5671 26.2167ZM43.8104 45.9774L46.0105 39.9325C50.2013 41.0391 54.5431 41.364 58.8341 40.8914L60.1621 47.4614C56.3503 47.6972 50.1305 47.678 43.8104 45.9774Z" fill="#48C95F"/>
</svg>
