<svg width="99" height="99" viewBox="0 0 99 99" fill="none" xmlns="http://www.w3.org/2000/svg">
<path opacity="0.2" d="M29.549 92.8294C19.5986 89.1875 11.5039 81.7326 7.03944 72.0986C2.57495 62.4647 2.10487 51.4377 5.73223 41.4349L19.3574 4L35.0716 9.71948L21.4464 47.1544C19.4876 52.938 19.8611 59.2549 22.487 64.7534C25.113 70.2518 29.7827 74.495 35.4968 76.5748C41.211 78.6546 47.5157 78.4057 53.0616 75.8816C58.6075 73.3574 62.9541 68.7585 65.1712 63.0689L78.7964 25.634L94.5105 31.3535L80.8853 68.7884C77.2308 78.7923 69.7719 86.943 60.1467 91.4505C50.5215 95.958 39.5167 96.454 29.549 92.8294Z" fill="#5475CA" stroke="white" stroke-width="6"/>
</svg>
