<svg width="81" height="81" viewBox="0 0 81 81" fill="none" xmlns="http://www.w3.org/2000/svg">
<path d="M72.7232 33.7904L62.2985 29.9961L66.0928 19.5714C68.3029 13.4993 65.1609 6.76137 59.0888 4.55131L48.8109 0.810465C42.7388 -1.3996 36.0009 1.74234 33.7909 7.81444L29.9966 18.2392L19.5719 14.4449C13.4998 12.2348 6.76186 15.3767 4.5518 21.4488L0.810953 31.7267C-1.39911 37.7988 1.74283 44.5367 7.81493 46.7468L18.2396 50.5411L14.4454 60.9658C12.2353 67.0379 15.3772 73.7758 21.4493 75.9859L31.7272 79.7267C37.7993 81.9368 44.5372 78.7948 46.7473 72.7227L50.5416 62.298L60.9663 66.0923C67.0384 68.3024 73.7763 65.1604 75.9864 59.0883L79.7272 48.8105C81.9373 42.7384 78.7953 36.0004 72.7232 33.7904ZM9.41815 42.342C5.775 41.016 3.88977 36.9731 5.21576 33.3299L8.95661 23.0521C10.2826 19.4089 14.3255 17.5237 17.9687 18.8497L44.5443 28.5224C45.7608 28.9652 47.1056 28.3381 47.5483 27.1216C47.9911 25.9052 47.364 24.5604 46.1476 24.1176L34.4014 19.8424L38.1957 9.41766C39.5217 5.77451 43.5646 3.88928 47.2077 5.21527L57.4856 8.95612C61.1288 10.2821 63.014 14.325 61.688 17.9682L52.8168 42.3414L27.1221 32.9893C25.9056 32.5466 24.5609 33.1736 24.1181 34.3901L19.8429 46.1363L9.41815 42.342ZM71.5816 57.4851C70.2556 61.1283 66.2127 63.0135 62.5695 61.6875L35.9938 52.0148C34.7773 51.572 33.4326 52.1991 32.9898 53.4155C32.5471 54.632 33.1741 55.9768 34.3906 56.4196L46.1368 60.6948L42.3425 71.1195C41.0165 74.7627 36.9736 76.6479 33.3304 75.3219L23.0525 71.5811C19.4094 70.2551 17.5242 66.2122 18.8502 62.569L27.7213 38.1957L53.416 47.5479C54.6325 47.9906 55.9773 47.3635 56.42 46.1471L60.6953 34.4009L71.12 38.1952C74.7632 39.5212 76.6484 43.5641 75.3224 47.2072L71.5816 57.4851Z" fill="#6864B0" fill-opacity="0.2"/>
<path d="M46.2037 14.8265C45.7609 16.043 44.4162 16.6701 43.1997 16.2273C41.9832 15.7845 41.3561 14.4398 41.7989 13.2233C42.2416 12.0068 43.5864 11.3797 44.8029 11.8225C46.0194 12.2653 46.6465 13.61 46.2037 14.8265Z" fill="#6864B0" fill-opacity="0.2"/>
<path d="M38.7393 67.3139C38.2965 68.5304 36.9518 69.1575 35.7353 68.7147C34.5188 68.2719 33.8917 66.9272 34.3345 65.7107C34.7772 64.4942 36.122 63.8671 37.3385 64.3099C38.555 64.7527 39.182 66.0974 38.7393 67.3139Z" fill="#6864B0" fill-opacity="0.2"/>
</svg>
