<svg width="15" height="16" viewBox="0 0 15 16" fill="none" xmlns="http://www.w3.org/2000/svg">
<path fill-rule="evenodd" clip-rule="evenodd" d="M13.3482 12.8626C13.3482 13.2596 13.0262 13.5816 12.6292 13.5816H2.83615C2.43915 13.5816 2.11815 13.2596 2.11815 12.8626V6.93755H3.52415C3.44615 7.25755 3.40415 7.58955 3.40215 7.93255C3.38615 10.0546 4.98515 11.9466 7.08515 12.2506C9.76515 12.6376 12.0632 10.5716 12.0632 7.96655C12.0632 7.61155 12.0212 7.26755 11.9402 6.93755H13.3482V12.8626ZM5.10615 6.93755C5.51715 5.88855 6.53915 5.14455 7.73215 5.14455C8.92615 5.14455 9.94815 5.88855 10.3592 6.93755C10.5822 7.50355 10.6272 8.15655 10.4232 8.83255C10.1662 9.68455 9.48015 10.3836 8.63015 10.6486C6.69615 11.2526 4.91115 9.81355 4.91115 7.96655C4.91115 7.60355 4.98015 7.25655 5.10615 6.93755ZM10.7832 2.80655C10.7832 2.58755 10.9612 2.40955 11.1802 2.40955H12.9012C13.1202 2.40955 13.2992 2.58755 13.2992 2.80655V4.52755C13.2992 4.74655 13.1212 4.92455 12.9022 4.92455H11.1812C10.9612 4.92455 10.7832 4.74655 10.7832 4.52755V2.80655ZM12.6292 0.841553H2.83615C1.60615 0.841553 0.608154 1.83955 0.608154 3.06955V12.8626C0.608154 14.0936 1.60515 15.0906 2.83615 15.0906H12.6292C13.8592 15.0906 14.8572 14.0926 14.8572 12.8626V3.06955C14.8572 1.83955 13.8602 0.841553 12.6292 0.841553Z" fill="white"/>
</svg>
