<svg width="18" height="12" viewBox="0 0 18 12" fill="none" xmlns="http://www.w3.org/2000/svg">
<path fill-rule="evenodd" clip-rule="evenodd" d="M7.05132 8.37381C8.72732 7.50481 10.3893 6.64281 12.0733 5.76981C10.3873 4.88981 8.72532 4.02281 7.05132 3.14881V8.37381ZM2.62132 11.2718C2.01132 11.0718 1.60032 10.6718 1.38032 10.0658C0.842323 8.58781 0.683323 2.40581 1.71832 1.18881C2.07232 0.771808 2.52732 0.527808 3.06932 0.468808C5.85832 0.169808 14.4753 0.211808 15.4693 0.569808C16.0513 0.779808 16.4643 1.16081 16.6883 1.74381C17.2773 3.27081 17.2973 8.82981 16.6113 10.3018C16.4253 10.7008 16.1213 10.9818 15.7363 11.1838C14.6973 11.7288 3.98932 11.7228 2.62132 11.2718Z" fill="white"/>
</svg>
