<svg width="17" height="14" viewBox="0 0 17 14" fill="none" xmlns="http://www.w3.org/2000/svg">
<path fill-rule="evenodd" clip-rule="evenodd" d="M4.97854 10.6097C3.27254 10.5507 2.20654 9.32571 1.92354 8.33171C2.39854 8.42171 2.86654 8.40371 3.33154 8.28871C3.34354 8.28671 3.35454 8.27871 3.37854 8.26771C2.45454 8.05271 1.74154 7.55871 1.24654 6.76171C0.917545 6.23271 0.760545 5.65271 0.765545 5.01571C1.22654 5.26271 1.70854 5.40071 2.22654 5.41371C1.53154 4.91371 1.06554 4.25871 0.874545 3.42171C0.685545 2.58771 0.808545 1.79271 1.22754 1.04471C3.00454 3.13771 5.25454 4.28571 7.99854 4.47471C7.97854 4.34471 7.95854 4.23071 7.94554 4.11571C7.85254 3.33071 8.01354 2.59871 8.44654 1.93571C9.01554 1.06671 10.0025 0.502712 11.0405 0.441712C11.9825 0.385712 12.8145 0.711712 13.5245 1.39971C13.5855 1.41771 13.6395 1.43371 13.7005 1.45171C14.3755 1.30571 15.0115 1.06271 15.6095 0.717712C15.6245 0.709712 15.6385 0.701712 15.6535 0.695712C15.6565 0.692712 15.6615 0.693712 15.6755 0.693712C15.4155 1.45771 14.9425 2.04571 14.2695 2.48071C14.9055 2.41071 15.5125 2.24171 16.0975 1.98871C16.1025 1.99371 16.1065 1.99871 16.1105 2.00371C15.9855 2.16771 15.8635 2.33571 15.7335 2.49571C15.3835 2.92671 14.9815 3.30571 14.5335 3.63371C14.5165 3.66971 14.5025 3.69771 14.4855 3.73271C14.5035 4.21971 14.4845 4.70671 14.4245 5.19071C14.2985 6.21071 14.0135 7.18371 13.5785 8.11371C13.1285 9.07271 12.5425 9.94071 11.8045 10.7017C10.5535 11.9947 9.04655 12.8287 7.29254 13.2157C6.64154 13.3587 5.97855 13.4257 5.31054 13.4357C4.48655 13.4487 3.66855 13.2747 2.89555 12.9907C-0.035455 11.9147 0.361545 12.1207 0.133545 11.9727C1.27954 12.0967 2.36854 11.9497 3.41754 11.5207C3.97454 11.2927 4.48954 10.9927 4.97854 10.6097Z" fill="white"/>
</svg>
