<svg xmlns="http://www.w3.org/2000/svg">
	<symbol id="icon-facebook" viewBox="0 0 10 16">
		<path fill-rule="evenodd" clip-rule="evenodd" d="M7.36325 2.78785C7.84725 2.77185 8.33125 2.78385 8.81725 2.78385H9.01725V0.263851C8.75825 0.237851 8.48825 0.200851 8.21725 0.187851C7.72025 0.165851 7.22225 0.140851 6.72525 0.151851C5.96625 0.167851 5.24725 0.352851 4.62025 0.802851C3.90025 1.32085 3.50525 2.04685 3.35525 2.90685C3.29225 3.25985 3.27625 3.62685 3.26725 3.98785C3.25325 4.55285 3.26425 5.11785 3.26525 5.68385V5.89585H0.854248V8.70885H3.25125V15.7839H6.18025V8.72185H8.56925C8.69125 7.78485 8.81125 6.85885 8.93625 5.89285C8.74425 5.89285 8.57125 5.89285 8.39925 5.89285C7.72025 5.89685 6.16025 5.89285 6.16025 5.89285C6.16025 5.89285 6.16725 4.49885 6.18425 3.89285C6.20725 3.06385 6.69925 2.81185 7.36325 2.78785Z" />
	</symbol>

	<symbol id="icon-twitter" viewBox="0 0 17 14">
		<path fill-rule="evenodd" clip-rule="evenodd" d="M4.97854 10.6097C3.27254 10.5507 2.20654 9.32571 1.92354 8.33171C2.39854 8.42171 2.86654 8.40371 3.33154 8.28871C3.34354 8.28671 3.35454 8.27871 3.37854 8.26771C2.45454 8.05271 1.74154 7.55871 1.24654 6.76171C0.917545 6.23271 0.760545 5.65271 0.765545 5.01571C1.22654 5.26271 1.70854 5.40071 2.22654 5.41371C1.53154 4.91371 1.06554 4.25871 0.874545 3.42171C0.685545 2.58771 0.808545 1.79271 1.22754 1.04471C3.00454 3.13771 5.25454 4.28571 7.99854 4.47471C7.97854 4.34471 7.95854 4.23071 7.94554 4.11571C7.85254 3.33071 8.01354 2.59871 8.44654 1.93571C9.01554 1.06671 10.0025 0.502712 11.0405 0.441712C11.9825 0.385712 12.8145 0.711712 13.5245 1.39971C13.5855 1.41771 13.6395 1.43371 13.7005 1.45171C14.3755 1.30571 15.0115 1.06271 15.6095 0.717712C15.6245 0.709712 15.6385 0.701712 15.6535 0.695712C15.6565 0.692712 15.6615 0.693712 15.6755 0.693712C15.4155 1.45771 14.9425 2.04571 14.2695 2.48071C14.9055 2.41071 15.5125 2.24171 16.0975 1.98871C16.1025 1.99371 16.1065 1.99871 16.1105 2.00371C15.9855 2.16771 15.8635 2.33571 15.7335 2.49571C15.3835 2.92671 14.9815 3.30571 14.5335 3.63371C14.5165 3.66971 14.5025 3.69771 14.4855 3.73271C14.5035 4.21971 14.4845 4.70671 14.4245 5.19071C14.2985 6.21071 14.0135 7.18371 13.5785 8.11371C13.1285 9.07271 12.5425 9.94071 11.8045 10.7017C10.5535 11.9947 9.04655 12.8287 7.29254 13.2157C6.64154 13.3587 5.97855 13.4257 5.31054 13.4357C4.48655 13.4487 3.66855 13.2747 2.89555 12.9907C-0.035455 11.9147 0.361545 12.1207 0.133545 11.9727C1.27954 12.0967 2.36854 11.9497 3.41754 11.5207C3.97454 11.2927 4.48954 10.9927 4.97854 10.6097Z" />
	</symbol>

	<symbol id="icon-youtube" viewBox="0 0 15 16">
		<path fill-rule="evenodd" clip-rule="evenodd" d="M13.3482 12.8626C13.3482 13.2596 13.0262 13.5816 12.6292 13.5816H2.83615C2.43915 13.5816 2.11815 13.2596 2.11815 12.8626V6.93755H3.52415C3.44615 7.25755 3.40415 7.58955 3.40215 7.93255C3.38615 10.0546 4.98515 11.9466 7.08515 12.2506C9.76515 12.6376 12.0632 10.5716 12.0632 7.96655C12.0632 7.61155 12.0212 7.26755 11.9402 6.93755H13.3482V12.8626ZM5.10615 6.93755C5.51715 5.88855 6.53915 5.14455 7.73215 5.14455C8.92615 5.14455 9.94815 5.88855 10.3592 6.93755C10.5822 7.50355 10.6272 8.15655 10.4232 8.83255C10.1662 9.68455 9.48015 10.3836 8.63015 10.6486C6.69615 11.2526 4.91115 9.81355 4.91115 7.96655C4.91115 7.60355 4.98015 7.25655 5.10615 6.93755ZM10.7832 2.80655C10.7832 2.58755 10.9612 2.40955 11.1802 2.40955H12.9012C13.1202 2.40955 13.2992 2.58755 13.2992 2.80655V4.52755C13.2992 4.74655 13.1212 4.92455 12.9022 4.92455H11.1812C10.9612 4.92455 10.7832 4.74655 10.7832 4.52755V2.80655ZM12.6292 0.841553H2.83615C1.60615 0.841553 0.608154 1.83955 0.608154 3.06955V12.8626C0.608154 14.0936 1.60515 15.0906 2.83615 15.0906H12.6292C13.8592 15.0906 14.8572 14.0926 14.8572 12.8626V3.06955C14.8572 1.83955 13.8602 0.841553 12.6292 0.841553Z" />
	</symbol>

	<symbol id="icon-inst" viewBox="0 0 18 12" >
		<path fill-rule="evenodd" clip-rule="evenodd" d="M7.05132 8.37381C8.72732 7.50481 10.3893 6.64281 12.0733 5.76981C10.3873 4.88981 8.72532 4.02281 7.05132 3.14881V8.37381ZM2.62132 11.2718C2.01132 11.0718 1.60032 10.6718 1.38032 10.0658C0.842323 8.58781 0.683323 2.40581 1.71832 1.18881C2.07232 0.771808 2.52732 0.527808 3.06932 0.468808C5.85832 0.169808 14.4753 0.211808 15.4693 0.569808C16.0513 0.779808 16.4643 1.16081 16.6883 1.74381C17.2773 3.27081 17.2973 8.82981 16.6113 10.3018C16.4253 10.7008 16.1213 10.9818 15.7363 11.1838C14.6973 11.7288 3.98932 11.7228 2.62132 11.2718Z" />
	</symbol>


</svg>
