<svg width="212" height="120" viewBox="0 0 212 120" fill="none" xmlns="http://www.w3.org/2000/svg">
<path d="M168.969 77.2845H135.41V104.561H168.969V77.2845Z" fill="white"/>
<path d="M168.969 104.83H135.41C135.339 104.83 135.272 104.802 135.222 104.753C135.173 104.703 135.145 104.636 135.145 104.566V77.2845C135.145 77.2144 135.173 77.1471 135.222 77.0976C135.272 77.048 135.339 77.0201 135.41 77.0201H168.969C169.039 77.0215 169.106 77.0498 169.155 77.0991C169.205 77.1484 169.233 77.2148 169.234 77.2845V104.566C169.233 104.636 169.205 104.702 169.155 104.751C169.106 104.801 169.039 104.829 168.969 104.83ZM135.675 104.302H168.704V77.5489H135.68L135.675 104.302Z" fill="#D1D3D4"/>
<path d="M168.969 81.0542H135.41C135.339 81.0542 135.272 81.0264 135.222 80.9768C135.173 80.9272 135.145 80.86 135.145 80.7899C135.145 80.7198 135.173 80.6525 135.222 80.6029C135.272 80.5534 135.339 80.5255 135.41 80.5255H168.969C169.04 80.5255 169.107 80.5534 169.157 80.6029C169.206 80.6525 169.234 80.7198 169.234 80.7899C169.233 80.8596 169.205 80.926 169.155 80.9753C169.106 81.0246 169.039 81.0529 168.969 81.0542Z" fill="#D1D3D4"/>
<path d="M76.5003 26.3221C75.7765 26.3706 75.0544 26.2064 74.4231 25.8498C73.7919 25.4932 73.2794 24.9598 72.9489 24.3156C72.6184 23.6714 72.4844 22.9446 72.5636 22.2253C72.6429 21.506 72.9317 20.8256 73.3945 20.2683C71.3699 19.3378 70.2993 16.948 70.4477 14.7327C70.5961 12.5174 71.7674 10.503 73.2302 8.8006C74.4333 7.41009 75.9438 6.15705 77.7511 5.81339C78.0932 5.77939 78.4268 5.68636 78.7369 5.53846C78.981 5.3672 79.1927 5.15419 79.3623 4.90929C80.682 3.22799 82.3091 1.68416 84.3443 1.00741C86.3795 0.330661 88.8705 0.716618 90.2326 2.37148C90.9135 1.78183 91.7578 1.41231 92.6538 1.31182C93.5498 1.21132 94.4553 1.38459 95.2504 1.8087C96.0455 2.2328 96.6928 2.88775 97.1066 3.68687C97.5204 4.486 97.6813 5.39164 97.5678 6.28394C99.0017 6.49512 100.346 7.10734 101.446 8.04964C102.545 8.99194 103.354 10.2257 103.779 11.6081C104.537 14.3891 103.249 17.6565 100.679 18.973C100.382 19.1263 100.027 19.3272 100.038 19.655C100.067 19.8529 100.156 20.0372 100.292 20.1837C101.119 21.3628 100.705 23.0705 99.762 24.1385C98.8186 25.2065 97.4088 25.7722 96.052 26.3115C96.3538 26.6134 96.555 27.0008 96.628 27.4209C96.701 27.841 96.6424 28.2733 96.4601 28.659C96.0669 29.431 95.4551 30.0708 94.7005 30.4989C91.7537 32.3969 88.1073 31.8048 84.8054 31.8735C81.7579 31.937 78.7316 29.9966 76.7123 27.7972C76.3201 27.3795 76.0074 26.6181 76.5003 26.3221Z" fill="white"/>
<path d="M88.457 32.1749C87.927 32.1749 87.397 32.1749 86.9094 32.1749C86.2204 32.1749 85.4996 32.1431 84.8212 32.1749C82.0546 32.2225 78.9912 30.6733 76.5214 28.0139C76.3476 27.84 76.211 27.6328 76.1199 27.4046C76.0288 27.1765 75.9851 26.9323 75.9914 26.6869C75.9884 26.6676 75.9884 26.648 75.9914 26.6287C75.2778 26.5945 74.5869 26.3681 73.992 25.9735C73.3971 25.579 72.9205 25.031 72.6128 24.3878C72.3051 23.7447 72.1779 23.0304 72.2446 22.3208C72.3113 21.6113 72.5694 20.9331 72.9916 20.3582C71.1631 19.3536 70.0236 17.0855 70.1826 14.7169C70.3151 12.6919 71.2744 10.6458 73.0287 8.62611C74.5551 6.87079 76.0815 5.86624 77.7033 5.5543L77.8835 5.52257C78.1385 5.51258 78.3868 5.43853 78.6055 5.30729C78.8241 5.17604 79.006 4.99186 79.1343 4.77181C80.7985 2.65696 82.468 1.35634 84.2594 0.758894C86.4695 0.0239865 88.8916 0.536835 90.2643 2.00136C90.9867 1.44496 91.8553 1.10932 92.765 1.03506C93.6746 0.96079 94.5863 1.15108 95.3899 1.5829C96.1934 2.01472 96.8542 2.66957 97.2925 3.46822C97.7307 4.26687 97.9275 5.17509 97.8592 6.08301C99.2912 6.34117 100.625 6.98646 101.714 7.94858C102.804 8.9107 103.608 10.1527 104.039 11.5393C104.845 14.4948 103.419 17.8838 100.801 19.2109C100.536 19.3431 100.297 19.4911 100.302 19.6497C100.329 19.7594 100.382 19.8611 100.456 19.9458L100.504 20.0145C101.447 21.3469 100.912 23.2132 99.9315 24.2918C98.9616 25.2414 97.7921 25.9638 96.5077 26.4066C96.7397 26.7531 96.8799 27.1525 96.9151 27.5677C96.9504 27.9829 96.8795 28.4001 96.7091 28.7806C96.3035 29.5956 95.6631 30.2713 94.87 30.7209C92.9037 31.9898 90.6777 32.1749 88.457 32.1749ZM85.4095 31.6039C85.913 31.6039 86.4218 31.6039 86.92 31.6039C89.57 31.6567 92.2995 31.7149 94.5626 30.2557C95.2757 29.8593 95.8535 29.259 96.2215 28.5321C96.3859 28.1953 96.4411 27.8157 96.3794 27.4462C96.3176 27.0766 96.142 26.7355 95.877 26.4701C95.8423 26.4407 95.8158 26.4029 95.8 26.3603C95.7842 26.3177 95.7797 26.2717 95.7869 26.2269C95.7943 26.1814 95.8133 26.1385 95.8421 26.1024C95.8708 26.0663 95.9084 26.0382 95.9512 26.0207C97.1914 25.5237 98.6012 24.9633 99.5393 23.9058C100.382 22.9806 100.854 21.3945 100.069 20.2842L100.022 20.226C99.8771 20.0598 99.7882 19.8528 99.7672 19.6339C99.7672 19.1051 100.271 18.8514 100.552 18.7086C102.958 17.4714 104.262 14.3732 103.52 11.645C103.1 10.3192 102.315 9.13787 101.254 8.23647C100.193 7.33507 98.8989 6.75001 97.52 6.54827C97.4514 6.5378 97.3897 6.50093 97.3481 6.44557C97.3065 6.39022 97.2883 6.32079 97.2974 6.2522C97.4015 5.41463 97.2495 4.56523 96.8612 3.81535C96.473 3.06548 95.8667 2.45014 95.1218 2.05001C94.3769 1.64988 93.5281 1.48364 92.6868 1.57308C91.8456 1.66252 91.051 2.00347 90.4074 2.55122C90.3808 2.57459 90.3496 2.59228 90.3159 2.60319C90.2822 2.6141 90.2466 2.61801 90.2113 2.61467C90.1763 2.61206 90.1422 2.60226 90.1112 2.58588C90.0802 2.5695 90.0529 2.5469 90.0311 2.5195C88.8386 1.07083 86.5331 0.542122 84.4343 1.24531C82.7436 1.80574 81.1536 3.0535 79.5742 5.05731C79.3871 5.32853 79.1518 5.56327 78.8799 5.74992C78.6001 5.89851 78.2942 5.99186 77.9789 6.02485L77.8093 6.05657C76.3094 6.34736 74.8784 7.29376 73.4315 8.95391C71.7567 10.8837 70.8451 12.8294 70.7179 14.7327C70.5642 17.0167 71.709 19.1845 73.511 20.0198C73.5476 20.0368 73.58 20.0618 73.6056 20.0929C73.6313 20.124 73.6497 20.1605 73.6594 20.1996C73.6679 20.2394 73.667 20.2806 73.6569 20.3201C73.6468 20.3595 73.6277 20.3961 73.6011 20.4269C73.164 20.9421 72.8895 21.5748 72.8121 22.2453C72.7348 22.9158 72.8579 23.5942 73.1662 24.195C73.4744 24.7958 73.9539 25.2923 74.5443 25.6219C75.1348 25.9514 75.8097 26.0994 76.4843 26.0471C76.5447 26.041 76.6053 26.0561 76.6556 26.0899C76.706 26.1237 76.7429 26.1741 76.7599 26.2322C76.7779 26.2889 76.7762 26.3501 76.755 26.4057C76.7339 26.4614 76.6945 26.5083 76.6433 26.5388C76.6106 26.5569 76.5828 26.5828 76.5625 26.6141C76.5421 26.6455 76.5298 26.6814 76.5267 26.7186C76.5357 27.056 76.6764 27.3766 76.9189 27.6121C79.2615 30.1605 82.2189 31.6514 84.8106 31.5986L85.4095 31.6039Z" fill="#040047"/>
<path d="M114.353 103.752C115.566 103.752 124.614 104.73 128.848 106.829C133.083 108.928 134 109.092 133.141 111.926C132.283 114.76 124.826 115.457 119.149 114.389C115.493 113.64 111.967 112.361 108.682 110.593L114.353 103.752Z" fill="white"/>
<path d="M124.502 115.145C122.691 115.138 120.885 114.961 119.107 114.617C115.426 113.861 111.875 112.575 108.565 110.799C108.534 110.781 108.508 110.756 108.487 110.727C108.466 110.698 108.451 110.665 108.443 110.63C108.437 110.596 108.439 110.56 108.448 110.526C108.457 110.493 108.474 110.461 108.496 110.435L114.167 103.593C114.188 103.565 114.215 103.542 114.247 103.527C114.278 103.511 114.312 103.503 114.347 103.503H114.4C115.879 103.503 124.714 104.508 128.954 106.607L129.908 107.077C133.306 108.737 134.222 109.192 133.374 111.994C132.839 113.771 129.352 115.145 124.502 115.145ZM109.058 110.519C112.249 112.2 115.663 113.423 119.197 114.151C124.894 115.209 132.124 114.458 132.913 111.857C133.639 109.446 133.115 109.187 129.696 107.516L128.742 107.046C124.698 105.042 116.049 104.021 114.464 103.99L109.058 110.519Z" fill="#040047"/>
<path d="M115.566 103.725C116.367 103.921 117.063 104.411 117.516 105.097C117.969 105.784 118.146 106.616 118.01 107.426C117.612 110.435 111.236 110.562 110.871 110.599C110.505 110.636 115.566 103.725 115.566 103.725Z" fill="white"/>
<path d="M110.871 110.768C110.823 110.766 110.777 110.753 110.736 110.729C110.696 110.705 110.662 110.671 110.637 110.63C110.558 110.472 110.431 110.228 115.37 103.561C115.399 103.523 115.438 103.493 115.484 103.477C115.529 103.461 115.578 103.459 115.625 103.472C115.651 103.472 118.672 104.228 118.275 107.416C117.872 110.477 112.063 110.747 110.902 110.768H110.871ZM115.641 103.984C114.088 106.099 111.777 109.272 111.199 110.276C112.651 110.207 117.427 109.8 117.75 107.352C117.875 106.636 117.731 105.899 117.345 105.282C116.96 104.665 116.361 104.21 115.662 104.006L115.641 103.984Z" fill="#040047"/>
<path d="M68.3117 110.614C68.1262 110.71 66.3931 112.957 58.8353 113.855C51.2775 114.754 48.4738 116.377 46.7884 112.417C45.103 108.457 46.2584 105.898 49.9684 104.767C53.6784 103.635 63.9551 102.7 65.9691 104.592C67.9831 106.485 68.3117 110.614 68.3117 110.614Z" fill="white"/>
<path d="M50.5195 115.198C48.6486 115.198 47.4455 114.574 46.5657 112.513C45.6859 110.451 45.5534 108.679 46.1947 107.31C46.7883 106.041 48.0391 105.105 49.9047 104.54C53.3921 103.482 63.9868 102.393 66.1386 104.418C68.2003 106.353 68.5289 110.424 68.5448 110.593C68.5473 110.638 68.5377 110.683 68.5173 110.723C68.4968 110.763 68.4661 110.796 68.4282 110.821L68.354 110.884C66.1757 112.861 61.994 113.723 58.8564 114.093C57.2293 114.289 55.8301 114.516 54.6164 114.717C53.2646 114.978 51.8952 115.139 50.5195 115.198ZM60.3033 103.746C56.6728 103.746 52.2738 104.323 50.0584 105C48.32 105.528 47.1646 106.374 46.6346 107.516C46.0516 108.753 46.1788 110.371 47.0109 112.322C48.2564 115.257 50.0955 114.966 54.5263 114.241C55.7665 114.04 57.1763 113.813 58.8087 113.618C61.8721 113.253 65.9584 112.417 68.0413 110.525C67.9671 109.832 67.5113 106.411 65.7994 104.783C65.0362 104.032 62.8579 103.746 60.3033 103.746Z" fill="#040047"/>
<path d="M70.7233 108.997C70.7233 108.997 67.2942 111.852 65.0099 111.513C62.7256 111.175 59.5668 109.927 60.8388 107.469C62.1108 105.01 70.2993 103.53 70.2993 103.53L70.7233 108.997Z" fill="white"/>
<path d="M65.402 111.783C65.2583 111.783 65.1148 111.772 64.9727 111.751C63.2608 111.497 61.1938 110.768 60.5313 109.472C60.3677 109.14 60.2902 108.773 60.306 108.403C60.3217 108.034 60.4302 107.674 60.6214 107.358C61.9358 104.809 69.9176 103.355 70.2568 103.292C70.2901 103.286 70.3243 103.287 70.3572 103.295C70.39 103.304 70.4208 103.319 70.4476 103.339C70.4744 103.36 70.4967 103.387 70.5131 103.417C70.5295 103.447 70.5396 103.48 70.543 103.514L70.967 108.975C70.9699 109.014 70.9638 109.053 70.949 109.088C70.9343 109.124 70.9114 109.156 70.8822 109.182C70.7444 109.293 67.7287 111.783 65.402 111.783ZM70.0819 103.82C68.6774 104.095 62.1319 105.486 61.0719 107.58C60.9155 107.828 60.8248 108.112 60.8081 108.405C60.7914 108.698 60.8493 108.991 60.9765 109.256C61.5595 110.382 63.4675 111.037 65.0628 111.275C67.0079 111.566 69.9282 109.335 70.49 108.891L70.0819 103.82Z" fill="#040047"/>
<path d="M111.915 85.0142C111.915 85.0142 108.3 99.0779 95.1084 101.764C81.9167 104.45 75.0903 103.741 70.4157 94.8588C65.7411 85.9765 68.8257 80.5413 68.8257 80.5413L110.457 79.7166L111.915 85.0142Z" fill="#040047"/>
<path d="M84.2277 103.408C77.8677 103.408 73.4528 101.198 70.1774 94.9805C65.4922 86.0717 68.4761 80.6365 68.5874 80.4092C68.6105 80.3692 68.6437 80.336 68.6837 80.3128C68.7237 80.2896 68.769 80.2773 68.8153 80.277L110.447 79.4522C110.507 79.4492 110.566 79.467 110.614 79.5027C110.663 79.5384 110.697 79.5897 110.712 79.6479L112.153 84.935C112.164 84.9802 112.164 85.0272 112.153 85.0724C112.116 85.2152 108.348 99.3476 95.1404 102.018C90.9693 102.879 87.36 103.408 84.2277 103.408ZM69.0008 80.8004C68.5874 81.6728 66.4992 86.8436 70.6491 94.7372C75.3926 103.725 82.3091 104.106 95.0291 101.505C107.447 98.9775 111.321 86.0505 111.613 85.0143L110.24 79.9862L69.0008 80.8004Z" fill="#040047"/>
<path d="M65.72 85.1412C65.72 85.1412 58.8989 63.1468 59.7946 49.3633C60.6903 35.5798 65.826 35.0881 72.8326 34.3109C75.9437 33.962 92.5169 31.5141 98.7232 38.7997C104.929 46.0853 115.853 80.2083 115.853 80.2083L65.72 85.1412Z" fill="#FFE11B"/>
<path d="M90.3385 34.348L89.2785 41.7077C89.2785 41.7077 86.9571 45.5091 82.309 43.5846C77.6609 41.6601 77.5708 38.1124 77.5708 38.1124L79.7756 24.514C79.7756 24.514 84.6781 20.1257 86.7398 11.7404C86.7398 11.7404 90.8473 18.8885 96.8098 20.4958C96.8098 20.4958 96.4123 26.4332 95.347 30.113C94.287 33.6713 90.4127 34.3057 90.3385 34.348Z" fill="white"/>
<path d="M84.7999 44.3882C83.8985 44.3773 83.0083 44.1868 82.1817 43.8278C77.4117 41.8609 77.2845 38.271 77.2792 38.1177L79.4999 24.4717C79.5107 24.4112 79.5404 24.3557 79.5847 24.313C79.6324 24.2707 84.4501 19.8825 86.4747 11.6769C86.4893 11.6265 86.518 11.5813 86.5574 11.5466C86.5968 11.512 86.6454 11.4893 86.6973 11.4812C86.7491 11.4739 86.8019 11.4821 86.8491 11.5047C86.8962 11.5273 86.9356 11.5632 86.9623 11.6081C87.0047 11.6821 91.091 18.6823 96.8627 20.2367C96.9224 20.2525 96.9747 20.2887 97.0105 20.3389C97.0463 20.3891 97.0634 20.4502 97.0588 20.5116C97.0588 20.5698 96.6454 26.5231 95.5854 30.187C94.7109 33.206 91.8754 34.2422 90.5822 34.5595L89.5222 41.7446C89.5173 41.7796 89.5066 41.8136 89.4904 41.8451C88.9681 42.611 88.27 43.2413 87.4541 43.6837C86.6383 44.126 85.7283 44.3676 84.7999 44.3882ZM80.0299 24.6408L77.8357 38.1547C77.8357 38.2393 77.9947 41.5067 82.4149 43.3413C86.5436 45.0491 88.7749 42.009 89.0293 41.6125L90.0893 34.311C90.0942 34.2709 90.1089 34.2326 90.132 34.1994C90.1551 34.1663 90.1859 34.1392 90.2218 34.1206C90.2707 34.0924 90.3248 34.0744 90.3808 34.0678C91.5203 33.7981 94.2657 32.8623 95.0819 30.039C96.0147 26.8191 96.4387 21.7858 96.5182 20.6914C91.5362 19.2321 87.9216 14.1089 86.8404 12.4118C84.8264 19.856 80.6023 24.0593 80.0299 24.6408Z" fill="#040047"/>
<path d="M82.6322 24.7202C82.5727 24.0323 82.2899 23.3826 81.8266 22.8697C81.3762 22.4089 80.849 22.0296 80.2684 21.7488C79.9673 21.5631 79.629 21.4457 79.2773 21.4052C79.0285 21.4076 78.7823 21.456 78.5512 21.5479C77.9869 21.7275 77.5056 22.1025 77.1944 22.6053C76.9896 23.0319 76.8931 23.5021 76.9135 23.9747C76.8926 24.4861 76.9389 24.998 77.0513 25.4974C77.1758 25.996 77.3988 26.4648 77.7073 26.8763C78.0158 27.2878 78.4036 27.6337 78.8479 27.8937C79.2922 28.1537 79.7841 28.3226 80.2947 28.3905C80.8052 28.4584 81.3243 28.4239 81.8213 28.289" fill="white"/>
<path d="M80.8145 28.6643C79.8922 28.6651 78.996 28.3587 78.2682 27.7936C77.5404 27.2284 77.0226 26.437 76.7971 25.5449C76.6742 25.0256 76.6242 24.4918 76.6487 23.9588C76.63 23.4438 76.7373 22.9321 76.9614 22.4678C77.2991 21.9151 77.8234 21.5007 78.4401 21.2994C78.7038 21.1971 78.9839 21.1434 79.2669 21.1407C79.6595 21.182 80.038 21.3102 80.3746 21.5161C80.9805 21.8112 81.5309 22.2083 82.0017 22.6899C82.5044 23.2469 82.8114 23.9522 82.8761 24.699C82.8806 24.7688 82.8577 24.8377 82.8122 24.8909C82.7667 24.9442 82.7022 24.9778 82.6324 24.9845C82.5626 24.9876 82.4943 24.9642 82.4412 24.9191C82.3881 24.874 82.3541 24.8104 82.3462 24.7413C82.2941 24.1122 82.0394 23.5168 81.6201 23.0441C81.1893 22.6077 80.6852 22.2498 80.1308 21.9867C79.8664 21.8176 79.5677 21.7093 79.2563 21.6695C79.0416 21.6712 78.8292 21.7143 78.6309 21.7963C78.1303 21.9505 77.6992 22.274 77.4119 22.711C77.2319 23.1015 77.1483 23.5294 77.1681 23.9588C77.1427 24.4472 77.1873 24.9368 77.3006 25.4127C77.4172 25.8756 77.6248 26.3106 77.9115 26.6927C78.1982 27.0747 78.5581 27.3961 78.9704 27.6382C79.3827 27.8802 79.8391 28.0381 80.313 28.1026C80.787 28.1671 81.2691 28.137 81.7314 28.014C81.7988 27.9962 81.8706 28.0056 81.9311 28.0402C81.9917 28.0749 82.0361 28.1319 82.0547 28.199C82.0634 28.2327 82.0654 28.2678 82.0606 28.3022C82.0557 28.3367 82.0441 28.3698 82.0264 28.3998C82.0086 28.4298 81.9852 28.4559 81.9573 28.4768C81.9294 28.4977 81.8976 28.5129 81.8639 28.5215C81.522 28.6157 81.1691 28.6638 80.8145 28.6643Z" fill="#040047"/>
<path d="M89.2944 22.6211C89.2944 22.6211 91.3773 26.7186 90.6936 27.3055C90.0099 27.8923 88.3669 27.2473 88.3669 27.2473" fill="white"/>
<path d="M89.8403 27.8183C89.2958 27.8016 88.7581 27.6925 88.2503 27.4958C88.2179 27.483 88.1884 27.4639 88.1634 27.4397C88.1384 27.4155 88.1184 27.3866 88.1046 27.3547C88.0908 27.3228 88.0835 27.2885 88.083 27.2537C88.0826 27.219 88.089 27.1844 88.1019 27.1522C88.1289 27.0878 88.1799 27.0364 88.2442 27.0088C88.3084 26.9812 88.3809 26.9795 88.4464 27.0041C88.8333 27.1522 90.0364 27.4958 90.4975 27.1046C90.7784 26.872 90.0788 24.7888 89.04 22.7374C89.0237 22.7067 89.0138 22.6729 89.0108 22.6383C89.0079 22.6036 89.012 22.5687 89.0229 22.5356C89.0337 22.5026 89.0512 22.472 89.0742 22.4458C89.0971 22.4197 89.1252 22.3983 89.1566 22.3832C89.2194 22.3532 89.2914 22.3486 89.3575 22.3703C89.4237 22.3919 89.4789 22.4382 89.5117 22.4995C90.1636 23.7896 91.6052 26.8561 90.8473 27.5064C90.5569 27.7216 90.2017 27.8317 89.8403 27.8183Z" fill="#040047"/>
<path d="M86.7069 21.695C86.7469 21.206 86.4954 20.7866 86.1453 20.7581C85.7952 20.7297 85.4791 21.1029 85.4391 21.5919C85.3991 22.0808 85.6506 22.5003 86.0007 22.5287C86.3508 22.5572 86.667 22.1839 86.7069 21.695Z" fill="#040047"/>
<path d="M93.2731 22.6001C93.3096 22.1109 93.0552 21.6932 92.7049 21.6672C92.3547 21.6411 92.0411 22.0166 92.0046 22.5058C91.968 22.995 92.2224 23.4127 92.5727 23.4387C92.923 23.4648 93.2365 23.0893 93.2731 22.6001Z" fill="#040047"/>
<path d="M88.7536 31.0964C87.9432 31.1106 87.1413 30.9292 86.4163 30.5677C85.1496 29.9068 84.3387 28.6432 84.0048 26.8138C83.9987 26.7794 83.9996 26.7442 84.0072 26.7101C84.0149 26.6761 84.0292 26.6438 84.0494 26.6153C84.0696 26.5868 84.0953 26.5626 84.1249 26.544C84.1546 26.5255 84.1876 26.5129 84.2221 26.5072C84.2908 26.4962 84.3611 26.5121 84.4183 26.5515C84.4756 26.5908 84.5154 26.6507 84.5295 26.7187C84.8263 28.3788 85.5471 29.5155 86.6495 30.0971C88.8755 31.2603 92.0078 29.8539 92.0396 29.8381C92.1036 29.8094 92.1763 29.8073 92.2419 29.8321C92.3075 29.8568 92.3605 29.9065 92.3894 29.9702C92.4044 30.0017 92.4128 30.0359 92.4142 30.0707C92.4156 30.1055 92.4099 30.1402 92.3975 30.1728C92.3852 30.2054 92.3664 30.2351 92.3422 30.2603C92.318 30.2854 92.289 30.3055 92.2569 30.3192C91.15 30.8002 89.9606 31.0641 88.7536 31.0964Z" fill="#040047"/>
<path d="M90.3386 34.3479C90.3386 34.3479 85.5686 34.7392 83.1094 32.8041C83.1094 32.8041 85.2029 39.413 89.6019 39.3918L90.3386 34.3479Z" fill="#040047"/>
<path d="M89.57 39.6561C85.0438 39.6561 82.9344 33.1583 82.8443 32.8834C82.8288 32.8291 82.8306 32.7714 82.8496 32.7183C82.8686 32.6652 82.9039 32.6194 82.9503 32.5873C82.995 32.5525 83.05 32.5337 83.1067 32.5337C83.1633 32.5337 83.2184 32.5525 83.263 32.5873C85.6321 34.4325 90.259 34.0782 90.3067 34.073C90.3462 34.0702 90.3858 34.0763 90.4226 34.0907C90.4594 34.1052 90.4925 34.1277 90.5194 34.1566C90.5463 34.1855 90.5665 34.2201 90.5783 34.2578C90.5901 34.2954 90.5933 34.3353 90.5876 34.3743L89.8509 39.4235C89.8396 39.4893 89.805 39.5489 89.7535 39.5916C89.702 39.6342 89.637 39.6571 89.57 39.6561ZM83.634 33.4702C84.3071 35.1251 86.2151 38.9582 89.3633 39.1221L90.0152 34.6334C88.9976 34.6757 85.86 34.7074 83.6446 33.4702H83.634Z" fill="#040047"/>
<path d="M67.5802 35.5376C57.7911 34.3215 48.6009 75.7778 53.9433 79.7166C62.2749 85.8656 87.7043 77.4696 87.7043 77.4696L85.1603 66.5306C85.1603 66.5306 66.8064 67.403 66.4725 63.6438C66.1386 59.8847 76.728 42.2628 75.244 39.6932C73.76 37.1237 67.5802 35.5376 67.5802 35.5376Z" fill="#FFE11B"/>
<path d="M101.76 66.8371C101.702 66.8388 101.645 66.8186 101.6 66.7804C101.556 66.7422 101.528 66.6889 101.522 66.6309C100.26 57.7909 97.4935 42.987 96.5978 42.1199C96.5542 42.0745 96.53 42.0139 96.5302 41.951C96.5304 41.8881 96.5551 41.8277 96.599 41.7825C96.6429 41.7373 96.7026 41.7109 96.7656 41.7088C96.8287 41.7066 96.8901 41.7289 96.937 41.771C98.0871 42.8866 101.045 59.8687 101.999 66.5622C102.008 66.626 101.991 66.6908 101.952 66.7423C101.913 66.7939 101.856 66.828 101.792 66.8371H101.76Z" fill="#040047"/>
<path d="M92.395 87.753L75.4986 83.0316L106.53 77.2104L123.326 84.2317L92.395 87.753Z" fill="white"/>
<path d="M92.3949 88.0332C92.3722 88.0382 92.3487 88.0382 92.326 88.0332L75.4296 83.2748C75.3593 83.2748 75.2919 83.2469 75.2422 83.1974C75.1925 83.1478 75.1646 83.0806 75.1646 83.0104C75.1646 82.9403 75.1925 82.8731 75.2422 82.8235C75.2919 82.7739 75.3593 82.7461 75.4296 82.7461L106.461 76.9303C106.509 76.9145 106.561 76.9145 106.61 76.9303L123.405 83.9515C123.459 83.9743 123.504 84.014 123.532 84.0647C123.561 84.1154 123.572 84.1741 123.564 84.2318C123.556 84.2902 123.529 84.3443 123.487 84.3854C123.445 84.4266 123.39 84.4526 123.331 84.4591L92.4267 88.0332H92.3949ZM76.6645 83.1003L92.4161 87.5045L122.287 84.1049L106.498 77.5066L76.6645 83.1003Z" fill="#040047"/>
<path d="M82.4255 70.3108C86.1355 70.7179 89.5752 70.9823 93.0255 72.4256C94.9972 73.2517 96.8591 74.3172 98.5693 75.5979C99.4408 76.2147 100.255 76.9084 101.002 77.6704C101.596 78.3155 101.405 78.9446 100.408 78.6327C99.2498 78.2706 98.1526 77.7359 97.1542 77.0466C99.5415 78.9895 101.657 81.2424 103.445 83.7453C103.647 84.0308 103.843 84.4379 103.604 84.6917C103.366 84.9455 102.836 84.6917 102.544 84.4274L97.3026 79.4681C98.6903 80.6623 99.8704 82.0772 100.795 83.6555C100.928 83.8828 101.055 84.1842 100.917 84.3904C100.684 84.7763 100.09 84.4855 99.7724 84.163C98.2024 82.5815 96.7747 80.8654 95.5059 79.0345L98.3361 83.2642C98.3093 83.3422 98.2673 83.4142 98.2125 83.4759C98.1577 83.5376 98.0911 83.5878 98.0167 83.6237C97.9423 83.6596 97.8615 83.6804 97.7789 83.685C97.6964 83.6895 97.6138 83.6777 97.5358 83.6502C97.2241 83.5218 96.9544 83.3094 96.7567 83.0369L93.3276 79.1085L95.3522 81.8896C95.6702 82.3231 95.9882 82.947 95.6225 83.3541C95.2568 83.7612 94.43 83.3541 93.9636 82.9417C92.0876 81.234 90.0274 79.7391 87.8209 78.4847C87.0206 78.0141 86.3369 77.3744 85.4518 77.1047C84.1798 76.7135 82.5898 76.7664 81.2648 76.6183" fill="white"/>
<path d="M103.35 85.0512C102.996 85.0113 102.666 84.8507 102.417 84.5965L100.721 83.0104C100.833 83.1849 100.944 83.3647 101.045 83.5391C101.152 83.6769 101.22 83.841 101.241 84.0141C101.263 84.1872 101.237 84.3629 101.167 84.5225C101.119 84.604 101.053 84.6732 100.974 84.7246C100.895 84.776 100.805 84.8082 100.711 84.8186C100.51 84.816 100.313 84.7719 100.13 84.6891C99.9476 84.6063 99.7843 84.4866 99.6507 84.3375C99.3009 83.9885 98.9617 83.6343 98.6278 83.2801C98.6302 83.2994 98.6302 83.3189 98.6278 83.3382C98.6077 83.4361 98.5671 83.5286 98.5086 83.6097C98.4502 83.6908 98.3752 83.7586 98.2886 83.8088C98.1742 83.877 98.047 83.9211 97.9148 83.9384C97.7826 83.9557 97.6483 83.9458 97.5201 83.9092C97.1635 83.7697 96.8545 83.5312 96.6297 83.2219L96.0043 82.5081C96.0823 82.6804 96.1098 82.8711 96.0835 83.0583C96.0573 83.2454 95.9783 83.4213 95.8559 83.5656C95.7796 83.6508 95.6866 83.7196 95.5827 83.7678C95.4789 83.8159 95.3662 83.8425 95.2517 83.8458C94.6982 83.7855 94.1857 83.5261 93.8101 83.1162C91.9525 81.4176 89.9078 79.9348 87.7151 78.6961C87.4448 78.5375 87.1851 78.3578 86.9307 78.1674C86.4677 77.8072 85.9508 77.5217 85.399 77.3215C84.4749 77.0882 83.5272 76.9605 82.5741 76.9408C82.1183 76.9144 81.6731 76.888 81.2544 76.8457C81.1905 76.8377 81.1324 76.8049 81.0927 76.7544C81.053 76.7039 81.0349 76.6398 81.0424 76.576C81.0457 76.5447 81.0552 76.5143 81.0703 76.4867C81.0855 76.4591 81.106 76.4347 81.1306 76.415C81.1553 76.3954 81.1836 76.3808 81.2139 76.3721C81.2443 76.3634 81.276 76.3609 81.3074 76.3645C81.7208 76.4068 82.1554 76.4333 82.6006 76.4597C83.5931 76.4786 84.5801 76.6117 85.5421 76.8562C86.1395 77.0741 86.7006 77.3807 87.2063 77.7656C87.4501 77.9401 87.6992 78.1093 87.9589 78.2626C90.1816 79.5225 92.2562 81.0264 94.144 82.7461C94.4307 83.0368 94.8013 83.2309 95.204 83.3012C95.2533 83.2994 95.3017 83.2878 95.3463 83.2669C95.3909 83.246 95.4309 83.2163 95.4637 83.1796C95.7499 82.8677 95.3577 82.2596 95.1775 82.0112L93.1529 79.2354C93.134 79.2112 93.12 79.1834 93.1119 79.1538C93.1038 79.1241 93.1017 79.0932 93.1056 79.0627C93.1095 79.0322 93.1195 79.0028 93.1349 78.9762C93.1503 78.9496 93.1708 78.9263 93.1953 78.9076C93.2399 78.864 93.2998 78.8396 93.3623 78.8396C93.4247 78.8396 93.4846 78.864 93.5292 78.9076L96.9636 82.8359C97.1312 83.0699 97.3605 83.2529 97.6261 83.3647C97.6888 83.3822 97.7545 83.387 97.8191 83.3789C97.8837 83.3707 97.9461 83.3497 98.0024 83.3171C98.0362 83.2995 98.0653 83.2741 98.0872 83.2431L95.3259 79.1032C95.2901 79.0507 95.2766 78.986 95.2885 78.9236C95.3005 78.8611 95.3368 78.8059 95.3895 78.7702C95.4422 78.7344 95.507 78.721 95.5696 78.7329C95.6322 78.7448 95.6876 78.781 95.7234 78.8336C96.9864 80.6516 98.4051 82.3569 99.9634 83.9304C100.136 84.1193 100.371 84.2395 100.626 84.2688C100.647 84.2682 100.667 84.262 100.685 84.2508C100.703 84.2397 100.717 84.2239 100.727 84.2053C100.785 84.1154 100.727 83.9462 100.605 83.7136C99.9667 82.6244 99.2037 81.613 98.331 80.7L97.1491 79.5791C97.1109 79.5337 97.0905 79.476 97.0919 79.4168C97.0933 79.3575 97.1164 79.3008 97.1567 79.2573C97.1971 79.2138 97.252 79.1865 97.3111 79.1806C97.3702 79.1746 97.4294 79.1903 97.4777 79.2248C97.8964 79.5844 98.2939 79.9598 98.6755 80.3563L102.725 84.1894C102.882 84.3679 103.098 84.4842 103.334 84.5172C103.356 84.5181 103.377 84.5137 103.396 84.5045C103.416 84.4953 103.433 84.4815 103.446 84.4644C103.567 84.3375 103.446 84.052 103.271 83.8193C101.496 81.3348 99.396 79.0979 97.0272 77.1682C96.9838 77.127 96.9571 77.0714 96.9522 77.0119C96.9472 76.9524 96.9644 76.8932 97.0004 76.8455C97.0364 76.7978 97.0888 76.765 97.1475 76.7534C97.2062 76.7417 97.2671 76.752 97.3187 76.7822C98.2932 77.4588 99.3656 77.983 100.499 78.3366C100.87 78.4529 101.066 78.4054 101.103 78.3366C101.14 78.2679 101.103 78.0353 100.843 77.7603C100.108 77.0076 99.304 76.3244 98.4423 75.7195C96.7489 74.4522 94.9046 73.3991 92.9515 72.5843C89.8404 71.2889 86.7293 70.9558 83.4115 70.6016L82.378 70.4853C82.3466 70.482 82.3162 70.4725 82.2885 70.4574C82.2608 70.4423 82.2364 70.4219 82.2166 70.3973C82.1969 70.3727 82.1823 70.3444 82.1736 70.3142C82.1649 70.2839 82.1623 70.2522 82.166 70.2209C82.1693 70.1896 82.1788 70.1592 82.1939 70.1316C82.2091 70.104 82.2296 70.0796 82.2542 70.0599C82.2789 70.0403 82.3072 70.0257 82.3375 70.017C82.3679 70.0083 82.3996 70.0058 82.431 70.0094L83.491 70.1205C86.8247 70.48 89.9676 70.8184 93.1423 72.1401C95.1323 72.9625 97.0123 74.028 98.7391 75.3124C99.625 75.9411 100.452 76.6489 101.209 77.4272C101.591 77.8396 101.707 78.289 101.516 78.5904C101.405 78.7596 101.108 79.0134 100.361 78.7807C99.9296 78.6492 99.5066 78.4921 99.0942 78.3102C100.789 79.8919 102.321 81.6382 103.668 83.5233C104.034 84.052 104.082 84.4802 103.811 84.7763C103.753 84.8399 103.683 84.891 103.605 84.9264C103.526 84.9619 103.441 84.981 103.355 84.9825L103.35 85.0512Z" fill="#040047"/>
<path d="M123.326 84.2319L131.058 63.5857L99.4757 64.2096L92.3949 87.7531L123.326 84.2319Z" fill="white"/>
<path d="M92.3949 88.0333C92.3563 88.0337 92.3181 88.0253 92.2832 88.0088C92.2483 87.9923 92.2177 87.9682 92.1935 87.9381C92.1658 87.9048 92.1464 87.8653 92.1372 87.8229C92.128 87.7806 92.1291 87.7367 92.1405 87.6949L99.2213 64.1514C99.2385 64.0982 99.2716 64.0514 99.3161 64.0174C99.3606 63.9834 99.4144 63.9638 99.4704 63.9611L131.053 63.3372C131.096 63.3365 131.139 63.3463 131.178 63.3656C131.217 63.3849 131.25 63.4133 131.276 63.4482C131.299 63.4839 131.314 63.5242 131.319 63.5662C131.325 63.6083 131.321 63.6511 131.307 63.6914L123.575 84.3111C123.557 84.3579 123.528 84.399 123.488 84.4298C123.449 84.4606 123.402 84.4799 123.352 84.4856L92.4267 88.0333H92.3949ZM99.6771 64.4845L92.7871 87.4622L123.156 84.0045L130.693 63.8712L99.6771 64.4845Z" fill="#040047"/>
<path d="M121.64 84.4221C121.64 84.4221 130.21 91.364 127.2 97.7297C124.19 104.095 69.43 111.37 69.43 111.37L66.9655 103.049C66.9655 103.049 109.922 81.1599 121.64 84.4221Z" fill="#040047"/>
<path d="M69.4301 111.635C69.373 111.634 69.3176 111.615 69.2719 111.581C69.2262 111.547 69.1925 111.499 69.1757 111.444L66.7112 103.123C66.6924 103.064 66.6954 103.001 66.7198 102.944C66.7441 102.888 66.7882 102.842 66.8437 102.816C66.9497 102.758 77.7246 97.2856 89.798 92.2734C106.042 85.5324 116.775 82.8042 121.693 84.1683C121.73 84.1784 121.765 84.1965 121.794 84.2212C123.29 85.4887 124.618 86.9401 125.748 88.5407C128.112 91.9351 128.684 95.1496 127.401 97.846C124.338 104.265 71.7038 111.333 69.4672 111.63L69.4301 111.635ZM67.2783 103.175L69.6209 111.064C73.4475 110.535 124.078 103.567 126.924 97.6081C129.723 91.7289 122.154 85.1887 121.497 84.6547C110.357 81.6886 70.4901 101.589 67.3101 103.186L67.2783 103.175Z" fill="#040047"/>
<path d="M64.1302 81.2339C64.1302 81.2339 106.652 98.3853 117.194 102.911L111.067 112.354C111.067 112.354 71.8046 111.587 60.5474 101.748C49.2901 91.9086 50.0375 75.5291 64.1302 81.2339Z" fill="#040047"/>
<path d="M111.067 112.629C110.971 112.629 101.108 112.423 89.9992 111.016C75.0532 109.118 65.0892 106.073 60.3775 101.954C54.4839 96.8045 50.3552 87.7635 53.5988 82.5134C54.6588 80.7687 57.489 78.2573 64.2412 80.9854C64.6652 81.1599 106.885 98.195 117.31 102.663C117.346 102.677 117.377 102.699 117.403 102.728C117.429 102.756 117.448 102.79 117.459 102.826C117.469 102.864 117.472 102.903 117.466 102.941C117.461 102.979 117.447 103.016 117.427 103.049L111.3 112.507C111.275 112.546 111.24 112.578 111.2 112.599C111.159 112.62 111.113 112.631 111.067 112.629ZM58.9094 80.314C56.7311 80.314 55.0616 81.1493 54.044 82.7884C51.5424 86.8436 53.6253 95.3558 60.722 101.558C71.4333 110.921 108.279 112.031 110.924 112.095L116.807 103.027C105.92 98.3747 64.4585 81.6463 64.0345 81.4772C62.4158 80.768 60.6764 80.3732 58.9094 80.314Z" fill="#040047"/>
<path d="M123.49 75.9892C123.536 76.2332 123.641 76.4621 123.798 76.6554L124.624 77.8873C124.594 77.76 124.536 77.6409 124.455 77.5383C124.374 77.4358 124.271 77.3523 124.153 77.2938C124.036 77.2353 123.907 77.2033 123.776 77.1998C123.645 77.1964 123.515 77.2217 123.395 77.274C123.16 77.4007 122.965 77.5898 122.831 77.8203C122.697 78.0507 122.63 78.3136 122.637 78.5799C122.661 79.1117 122.787 79.634 123.008 80.1184C123.596 81.6411 124.926 83.867 126.85 82.7144C128.154 81.9319 128.515 79.172 128.7 77.7974C129.066 75.0904 128.234 71.6115 124.746 72.1402C124.847 73.4732 125.345 74.7457 126.177 75.7936C125.61 75.2437 123.315 74.3925 123.49 75.9892Z" fill="white"/>
<path d="M125.785 83.2747C125.572 83.2762 125.36 83.2404 125.159 83.169C123.903 82.7407 123.119 81.1282 122.764 80.2029C122.533 79.6895 122.401 79.1369 122.377 78.5745C122.368 78.2619 122.449 77.9533 122.609 77.6846C122.77 77.4159 123.004 77.1983 123.283 77.0571C123.413 76.9981 123.554 76.9675 123.697 76.9672L123.58 76.7928C123.399 76.5656 123.279 76.2964 123.23 76.0103C123.188 75.8003 123.217 75.5823 123.313 75.3908C123.409 75.1993 123.567 75.0451 123.76 74.9528C124.304 74.7855 124.89 74.8289 125.403 75.0745C124.894 74.1868 124.59 73.1969 124.513 72.1771C124.509 72.1161 124.528 72.056 124.567 72.0082C124.605 71.9605 124.659 71.9283 124.72 71.9181C125.25 71.8023 125.801 71.8169 126.324 71.9605C126.848 72.1042 127.328 72.3727 127.725 72.7428C128.97 73.9694 129.177 76.1794 128.949 77.8449C128.742 79.3676 128.371 82.101 126.983 82.9364C126.623 83.1597 126.208 83.277 125.785 83.2747ZM123.728 77.4589C123.643 77.4578 123.558 77.474 123.479 77.5065C123.286 77.6142 123.127 77.7728 123.019 77.9649C122.91 78.1571 122.857 78.3753 122.865 78.5957C122.885 79.0967 123.004 79.5888 123.214 80.0443C123.479 80.7211 124.211 82.3442 125.334 82.7249C125.566 82.7988 125.812 82.8187 126.053 82.7829C126.293 82.7472 126.523 82.6568 126.723 82.5187C127.915 81.8049 128.276 79.1191 128.451 77.829C128.668 76.2429 128.493 74.1809 127.391 73.0706C127.078 72.7769 126.702 72.5588 126.291 72.4332C125.88 72.3076 125.446 72.2779 125.022 72.3463C125.158 73.5497 125.63 74.6908 126.384 75.6402C126.422 75.6877 126.441 75.7483 126.436 75.8094C126.431 75.8704 126.403 75.9272 126.357 75.968C126.312 76.0103 126.252 76.0339 126.19 76.0339C126.128 76.0339 126.069 76.0103 126.023 75.968C125.668 75.619 124.497 75.122 123.972 75.3758C123.856 75.4287 123.707 75.5503 123.744 75.9627C123.791 76.1665 123.881 76.3578 124.009 76.5231L124.455 77.1787C124.571 77.2542 124.67 77.3545 124.743 77.4724C124.816 77.5903 124.863 77.7229 124.879 77.8607C124.884 77.9147 124.872 77.9689 124.843 78.0149C124.814 78.0609 124.771 78.096 124.72 78.1145C124.669 78.1326 124.613 78.1331 124.562 78.1158C124.511 78.0985 124.468 78.0645 124.439 78.0194L124.11 77.5329C123.991 77.4756 123.86 77.4501 123.728 77.4589Z" fill="#040047"/>
<path d="M111.549 100.955C111.516 100.96 111.482 100.96 111.448 100.955C110.521 100.595 88.6001 92.1306 83.6605 89.1117C83.599 89.0735 83.5551 89.0127 83.5383 88.9424C83.5214 88.8722 83.5329 88.7981 83.5704 88.7363C83.5888 88.7054 83.6133 88.6785 83.6424 88.6572C83.6714 88.6359 83.7045 88.6206 83.7395 88.6123C83.7746 88.6039 83.811 88.6026 83.8466 88.6085C83.8821 88.6143 83.9162 88.6272 83.9467 88.6464C88.8439 91.6389 111.417 100.357 111.644 100.442C111.713 100.468 111.768 100.52 111.797 100.586C111.827 100.653 111.829 100.728 111.803 100.796C111.782 100.845 111.746 100.886 111.7 100.914C111.655 100.942 111.602 100.956 111.549 100.955Z" fill="white"/>
<path d="M85.982 66.4301C90.8147 66.4301 94.7323 62.7303 94.7323 58.1663C94.7323 53.6024 90.8147 49.9026 85.982 49.9026C81.1494 49.9026 77.2318 53.6024 77.2318 58.1663C77.2318 62.7303 81.1494 66.4301 85.982 66.4301Z" fill="#040047"/>
<path d="M85.9819 66.6892C81.0105 66.6892 76.9719 62.8666 76.9719 58.1664C76.9719 53.4662 81.0158 49.6383 85.9819 49.6383C90.948 49.6383 94.9919 53.4662 94.9919 58.1664C94.9919 62.8666 90.9533 66.6892 85.9819 66.6892ZM85.9819 50.167C81.302 50.167 77.5019 53.757 77.5019 58.1664C77.5019 62.5759 81.3073 66.1605 85.9819 66.1605C90.6565 66.1605 94.4619 62.5759 94.4619 58.1664C94.4619 53.757 90.6618 50.167 85.9819 50.167Z" fill="#040047"/>
<path d="M81.3657 60.8522L79.2457 59.615V57.9813L81.3657 56.7441C82.0724 56.3388 82.7791 55.9264 83.4857 55.507V57.4843C83.1094 57.717 82.7331 57.9443 82.3568 58.1611C81.9805 58.3779 81.6095 58.5999 81.2279 58.8378L82.3568 59.4617L83.4857 60.0909V62.0894L81.3657 60.8522Z" fill="white"/>
<path d="M84.0846 62.6128L86.5809 53.1383L87.8847 53.7252L85.3778 63.1838L84.0846 62.6128Z" fill="white"/>
<path d="M90.6301 56.7441L92.7501 57.9813V59.615L90.6301 60.8522L88.5101 62.0894V60.0909L89.639 59.4617L90.7679 58.8378C90.3916 58.5999 90.0153 58.3726 89.639 58.1611C89.2627 57.9496 88.8917 57.717 88.5101 57.4843V55.507L90.6301 56.7441Z" fill="white"/>
<path d="M67.8401 81.16C67.7698 81.1642 67.7007 81.1404 67.648 81.0938C67.5954 81.0472 67.5634 80.9816 67.5592 80.9115C67.555 80.8414 67.5788 80.7725 67.6256 80.7199C67.6723 80.6674 67.738 80.6355 67.8083 80.6313L80.5283 79.0927L82.5476 68.9362L66.2501 67.5616C66.2111 67.559 66.1733 67.5476 66.1393 67.5284C66.1054 67.5092 66.0762 67.4826 66.054 67.4505C66.0302 67.4193 66.014 67.383 66.0066 67.3445C65.9993 67.3059 66.001 67.2662 66.0116 67.2285L72.7108 42.3474C72.729 42.2772 72.7745 42.2172 72.8371 42.1806C72.8997 42.1439 72.9744 42.1335 73.0447 42.1517C73.115 42.17 73.1751 42.2153 73.2119 42.2778C73.2487 42.3402 73.259 42.4147 73.2408 42.4848L66.6211 67.0646L82.8762 68.4075C82.9134 68.4115 82.9495 68.423 82.9823 68.4411C83.015 68.4593 83.0438 68.4838 83.067 68.5132C83.0891 68.5433 83.1048 68.5776 83.1131 68.614C83.1213 68.6504 83.1218 68.6881 83.1147 68.7247L80.9947 79.3571C80.9832 79.4115 80.9551 79.461 80.9143 79.4989C80.8735 79.5367 80.822 79.5611 80.7668 79.5686L67.8401 81.1283V81.16Z" fill="#040047"/>
<path d="M137.885 9.36108H111.459V12.0892H137.885V9.36108Z" fill="#E2E2E2"/>
<path d="M167.384 9.36108H140.959V12.0892H167.384V9.36108Z" fill="#E2E2E2"/>
<path d="M137.885 14.0349H122.372V16.7631H137.885V14.0349Z" fill="#E2E2E2"/>
<path d="M164.432 14.0349H140.959V16.7631H164.432V14.0349Z" fill="#E2E2E2"/>
<path d="M137.885 18.714H118.333V21.4421H137.885V18.714Z" fill="#E2E2E2"/>
<path d="M151.983 18.714H140.959V21.4421H151.983V18.714Z" fill="#E2E2E2"/>
<path d="M137.89 23.3878H126.485V26.116H137.89V23.3878Z" fill="#E2E2E2"/>
<path d="M162.551 23.3878H140.959V26.116H162.551V23.3878Z" fill="#E2E2E2"/>
<path d="M137.885 28.0669H134.254V30.795H137.885V28.0669Z" fill="#E2E2E2"/>
<path d="M155.465 28.0669H140.959V30.795H155.465V28.0669Z" fill="#E2E2E2"/>
<path d="M137.429 47.2908H113.144V50.4155H137.429V47.2908Z" fill="#E2E2E2"/>
<path d="M156.244 47.2908H141.33V50.4155H156.244V47.2908Z" fill="#E2E2E2"/>
<path d="M137.424 52.6412H117.708V55.7659H137.424V52.6412Z" fill="#E2E2E2"/>
<path d="M163.044 52.6412H141.33V55.7659H163.044V52.6412Z" fill="#E2E2E2"/>
<path d="M137.424 57.9972H127.566V61.1219H137.424V57.9972Z" fill="#E2E2E2"/>
<path d="M167.151 57.9972H141.33V61.1219H167.151V57.9972Z" fill="#E2E2E2"/>
<path d="M137.424 63.353H133.73V66.4777H137.424V63.353Z" fill="#E2E2E2"/>
<path d="M168.773 63.353H141.33V66.4777H168.773V63.353Z" fill="#E2E2E2"/>
<path d="M159.763 68.7035H141.33V71.8282H159.763V68.7035Z" fill="#E2E2E2"/>
<path d="M150.674 40.5127L148.681 39.7196V38.6622L150.674 37.8691L152.667 37.076V38.3344C152.306 38.4877 151.951 38.6305 151.607 38.7679C151.262 38.9054 150.896 39.0481 150.547 39.2015L151.607 39.6033L152.667 40.0051V41.2846L150.674 40.5127Z" fill="#E2E2E2"/>
<path d="M153.255 41.6389L155.619 35.5746L156.859 35.9447L154.479 42.0354L153.255 41.6389Z" fill="#E2E2E2"/>
<path d="M159.435 37.885C160.097 38.1493 160.765 38.4137 161.428 38.6781V39.7355L159.435 40.5285L157.442 41.3216V40.0263L158.502 39.6244L159.562 39.2226C159.202 39.0693 158.846 38.9265 158.502 38.7891C158.157 38.6516 157.792 38.5089 157.442 38.3555V37.0919L159.435 37.885Z" fill="#E2E2E2"/>
<path d="M112.153 2.85791C112.153 2.73535 112.18 2.61422 112.233 2.50367C112.279 2.39105 112.35 2.28997 112.44 2.20759C112.528 2.12622 112.63 2.06171 112.742 2.01726C112.861 1.96838 112.989 1.94323 113.118 1.94324C113.24 1.94435 113.361 1.96951 113.473 2.01726C113.582 2.06298 113.683 2.12739 113.77 2.20759C113.855 2.29309 113.923 2.39346 113.971 2.50367C114.02 2.61537 114.046 2.73599 114.045 2.85791C114.045 2.98153 114.02 3.10387 113.971 3.21743C113.922 3.32211 113.853 3.41702 113.77 3.49765C113.593 3.66277 113.36 3.75689 113.118 3.762C112.989 3.76201 112.861 3.73686 112.742 3.68798C112.629 3.64555 112.526 3.5808 112.44 3.49765C112.351 3.42008 112.281 3.32452 112.233 3.21743C112.18 3.10504 112.153 2.98217 112.153 2.85791ZM112.153 5.95615C112.156 5.83509 112.182 5.71574 112.232 5.60501C112.281 5.49428 112.351 5.39439 112.44 5.31113C112.526 5.2263 112.629 5.15976 112.742 5.1155C112.861 5.06843 112.989 5.04508 113.118 5.04677C113.24 5.04607 113.36 5.06943 113.473 5.1155C113.584 5.16111 113.684 5.22753 113.77 5.31113C113.855 5.39466 113.923 5.49329 113.971 5.60192C114.02 5.71458 114.045 5.83604 114.045 5.95879C114.045 6.08155 114.02 6.20301 113.971 6.31567C113.923 6.42273 113.855 6.51962 113.77 6.60118C113.683 6.68138 113.582 6.74579 113.473 6.79151C113.36 6.83758 113.24 6.86095 113.118 6.86025C112.989 6.86193 112.861 6.83859 112.742 6.79151C112.63 6.74706 112.528 6.68255 112.44 6.60118C112.35 6.52267 112.279 6.42509 112.233 6.31567C112.179 6.20346 112.152 6.08047 112.153 5.95615Z" fill="#E2E2E2"/>
<path d="M143.1 91.8187C143.309 91.8296 143.517 91.77 143.688 91.6495C143.837 91.5385 143.906 91.3059 143.906 90.9463V89.3073C143.905 89.036 143.941 88.7657 144.012 88.5037C144.078 88.2595 144.189 88.03 144.34 87.827C144.494 87.6318 144.69 87.473 144.913 87.3617C145.178 87.2384 145.468 87.1786 145.761 87.1872H146.953V88.8897H146.534C146.439 88.8802 146.342 88.8969 146.256 88.9379C146.169 88.9789 146.095 89.0426 146.041 89.1223C145.95 89.2832 145.904 89.466 145.909 89.651V91.3217C145.915 91.5334 145.877 91.744 145.798 91.9403C145.734 92.092 145.644 92.2316 145.533 92.3527C145.435 92.4572 145.318 92.5416 145.188 92.6012C145.084 92.6558 144.971 92.6899 144.854 92.7017C144.97 92.7229 145.082 92.7585 145.188 92.8074C145.318 92.8631 145.435 92.9439 145.533 93.0453C145.788 93.3271 145.923 93.6969 145.909 94.0763V95.7523C145.902 95.9375 145.948 96.1208 146.041 96.281C146.094 96.3617 146.168 96.4265 146.255 96.4684C146.342 96.5104 146.438 96.5278 146.534 96.519H146.953V98.2214H145.761C145.468 98.23 145.178 98.1703 144.913 98.0469C144.69 97.9357 144.494 97.7768 144.34 97.5817C144.19 97.378 144.079 97.1487 144.012 96.9049C143.941 96.641 143.905 96.3691 143.906 96.096V94.457C143.924 94.3319 143.914 94.2042 143.876 94.0834C143.839 93.9626 143.774 93.8518 143.688 93.7591C143.517 93.6387 143.309 93.5791 143.1 93.5899V91.8187Z" fill="#E6E7E8"/>
<path d="M161.406 93.5793C161.195 93.5686 160.986 93.6281 160.813 93.7485C160.727 93.8419 160.664 93.9528 160.626 94.0734C160.589 94.194 160.578 94.3213 160.595 94.4464V96.0854C160.595 96.3585 160.56 96.6305 160.489 96.8944C160.424 97.1389 160.313 97.3687 160.161 97.5711C160.009 97.7689 159.813 97.9282 159.588 98.0364C159.323 98.1597 159.033 98.2195 158.74 98.2109H157.548V96.4925H157.972C158.067 96.5004 158.163 96.4825 158.248 96.4406C158.334 96.3987 158.407 96.3344 158.459 96.2546C158.553 96.0944 158.599 95.9111 158.592 95.7259V94.0499C158.587 93.84 158.624 93.6313 158.703 93.4366C158.768 93.2826 158.86 93.1412 158.974 93.0189C159.07 92.9181 159.185 92.8372 159.313 92.781C159.421 92.7327 159.535 92.6972 159.652 92.6752C159.534 92.6629 159.419 92.6289 159.313 92.5748C159.184 92.5154 159.069 92.4309 158.974 92.3263C158.858 92.2069 158.767 92.067 158.703 91.9139C158.624 91.7175 158.586 91.5069 158.592 91.2953V89.6193C158.597 89.4343 158.551 89.2515 158.459 89.0906C158.407 89.0117 158.333 88.9485 158.248 88.9076C158.162 88.8667 158.067 88.8495 157.972 88.8579H157.548V87.1872H158.74C159.033 87.1786 159.323 87.2384 159.588 87.3617C159.813 87.4698 160.009 87.6292 160.161 87.827C160.314 88.0287 160.426 88.2587 160.489 88.5037C160.56 88.7657 160.596 89.036 160.595 89.3074V90.9464C160.578 91.0723 160.588 91.2006 160.626 91.3221C160.663 91.4436 160.727 91.5554 160.813 91.6495C160.986 91.77 161.195 91.8295 161.406 91.8187V93.5793Z" fill="#E6E7E8"/>
</svg>
