<svg width="212" height="120" viewBox="0 0 212 120" fill="none" xmlns="http://www.w3.org/2000/svg">
<path d="M167.968 28.4595V76.8635C167.962 82.3429 165.642 87.6142 161.481 91.6051C157.32 95.5961 151.63 98.0067 145.569 98.3465V119.243L144.158 117.404L130.678 99.7679L129.62 98.396H69.4925C63.1604 98.396 57.0871 96.1283 52.6067 92.091C48.1262 88.0537 45.605 82.5769 45.5966 76.8635V28.4595C45.5977 25.629 46.2166 22.8265 47.418 20.2118C48.6194 17.5971 50.3799 15.2216 52.5988 13.2208C54.8178 11.22 57.4517 9.63314 60.3504 8.55082C63.249 7.4685 66.3555 6.91191 69.4925 6.91284H144.08C147.217 6.91191 150.323 7.46855 153.221 8.55096C156.119 9.63336 158.752 11.2203 160.971 13.2212C163.189 15.2221 164.949 17.5977 166.149 20.2123C167.35 22.827 167.968 25.6294 167.968 28.4595Z" fill="#F2F9FF"/>
<path d="M144.079 6.91276C147.216 6.91184 150.322 7.46847 153.22 8.55088C156.119 9.63328 158.752 11.2203 160.97 13.2211C163.189 15.222 164.948 17.5976 166.149 20.2122C167.35 22.8269 167.968 25.6293 167.968 28.4594V76.8634C167.961 82.3428 165.642 87.6142 161.481 91.6051C157.32 95.596 151.63 98.0066 145.569 98.3465V119.243L144.158 117.404L130.678 99.7678L129.62 98.396H69.4921C63.16 98.396 57.0867 96.1283 52.6063 92.0909C48.1259 88.0536 45.6046 82.5768 45.5963 76.8634V28.4594C45.5973 25.629 46.2162 22.8264 47.4177 20.2117C48.6191 17.597 50.3795 15.2215 52.5985 13.2207C54.8174 11.2199 57.4514 9.63306 60.35 8.55074C63.2486 7.46842 66.3551 6.91184 69.4921 6.91276H144.079ZM144.079 6.20562H69.4921C62.9437 6.21123 56.6652 8.56038 52.0341 12.7377C47.4029 16.915 44.7974 22.5792 44.7891 28.4877V76.8634C44.7974 82.7719 47.4029 88.4362 52.0341 92.6135C56.6652 96.7908 62.9437 99.1399 69.4921 99.1455H129.157L129.941 100.206L143.484 117.842L144.895 119.681C144.968 119.779 145.067 119.859 145.184 119.913C145.3 119.967 145.43 119.995 145.561 119.992C145.641 120.002 145.723 120.002 145.804 119.992C145.972 119.948 146.119 119.854 146.221 119.726C146.323 119.598 146.375 119.443 146.368 119.285V99.0253C152.488 98.5051 158.175 95.9471 162.319 91.85C166.462 87.7528 168.767 82.4101 168.783 76.8634V28.4594C168.783 22.546 166.181 16.8745 161.549 12.6911C156.917 8.5077 150.633 6.15467 144.079 6.14905V6.20562Z" fill="#040047"/>
<path d="M129.816 7.82506C129.816 7.82506 135.184 -2.44974 143.774 4.8197C150.828 10.788 140.075 25.3764 147.473 27.6746C147.473 27.6746 140.631 26.6422 138.805 21.6214C136.979 16.6007 137.496 15.0874 137.496 15.0874C137.496 15.0874 133.93 17.0109 130.592 15.3491C127.253 13.6873 129.816 7.82506 129.816 7.82506Z" fill="white"/>
<path d="M147.473 27.9999H147.41C147.12 27.9574 140.357 26.8755 138.46 21.7275C137.238 18.3544 137.049 16.5229 137.073 15.646C136.039 16.1095 134.9 16.3507 133.746 16.3507C132.592 16.3507 131.453 16.1095 130.419 15.646C126.845 13.864 129.369 7.97354 129.479 7.71897C129.581 7.51389 132.096 2.76896 136.532 2.02645C138.962 1.60217 141.478 2.47196 144.001 4.60753C147.716 7.74725 146.705 13.0933 145.804 17.8665C144.949 22.4205 144.236 26.3522 147.575 27.3988C147.653 27.4255 147.718 27.4758 147.76 27.5411C147.802 27.6064 147.817 27.6828 147.803 27.757C147.789 27.8313 147.747 27.899 147.684 27.9484C147.621 27.9978 147.541 28.026 147.457 28.0281L147.473 27.9999ZM137.496 14.7621C137.576 14.7608 137.655 14.7859 137.716 14.8328C137.773 14.8727 137.815 14.927 137.837 14.9887C137.86 15.0505 137.861 15.1169 137.841 15.1793C137.841 15.1793 137.402 16.728 139.142 21.5436C140.255 24.5985 143.358 26.133 145.459 26.8401C143.758 24.9238 144.424 21.4163 145.114 17.7533C145.984 13.171 146.964 7.97354 143.547 5.07425C141.195 3.08717 138.899 2.24567 136.697 2.65581C132.7 3.36296 130.286 7.74018 130.161 7.97354C130.035 8.20689 127.809 13.6307 130.78 15.0874C133.915 16.6431 137.292 14.847 137.332 14.8328C137.377 14.7947 137.435 14.77 137.496 14.7621Z" fill="#040047"/>
<path d="M136.611 13.9276C136.542 14.3336 136.343 14.7127 136.04 15.019C135.737 15.3253 135.342 15.5456 134.902 15.6531C133.664 15.9076 132.002 15.2783 130.929 14.4226C129.983 13.5995 129.243 12.6038 128.758 11.5021C127.856 9.70597 124.902 2.92446 130.247 4.91154C134.902 6.63697 137.363 11.099 136.611 13.9276Z" fill="#040047"/>
<path d="M134.299 16.049C132.947 15.9698 131.667 15.47 130.678 14.6347C129.692 13.7875 128.922 12.7573 128.421 11.6152C127.778 10.3353 125.811 6.06416 127.316 4.65694C127.912 4.0983 128.938 4.07709 130.357 4.60744C135.059 6.36116 137.716 10.9717 136.924 13.9912C136.845 14.4548 136.616 14.8871 136.266 15.2342C135.917 15.5812 135.461 15.8277 134.957 15.943C134.742 15.998 134.522 16.0336 134.299 16.049ZM128.609 4.8903C128.467 4.87954 128.324 4.89533 128.189 4.93671C128.055 4.97808 127.931 5.04413 127.825 5.13073C126.94 5.96516 127.825 8.96345 129.064 11.4031C129.528 12.4706 130.242 13.4354 131.156 14.2317C132.089 14.9883 133.656 15.646 134.816 15.3914C135.195 15.3013 135.535 15.1111 135.794 14.8453C136.052 14.5794 136.217 14.25 136.266 13.8993C136.995 11.1627 134.518 6.87738 130.106 5.2368C129.636 5.03213 129.129 4.90519 128.609 4.86202V4.8903Z" fill="#040047"/>
<path d="M109.102 6.09964C109.102 6.09964 103.733 -4.17516 95.1436 3.08721C88.0901 9.06257 98.8428 23.6509 91.4444 25.9421C91.4444 25.9421 98.2864 24.9097 100.112 19.8889C101.939 14.8682 101.421 13.3549 101.421 13.3549C101.421 13.3549 104.987 15.2854 108.326 13.6166C111.665 11.9477 109.102 6.09964 109.102 6.09964Z" fill="white"/>
<path d="M91.4445 26.2673C91.3658 26.2667 91.2895 26.2429 91.2272 26.1994C91.165 26.156 91.1202 26.0954 91.0996 26.0269C91.0785 25.9482 91.09 25.8653 91.1318 25.7937C91.1737 25.7221 91.243 25.6667 91.3269 25.638C94.697 24.5914 93.9602 20.688 93.0981 16.1057C92.2047 11.3678 91.1859 5.9935 94.9007 2.85378C97.4243 0.732351 99.9401 -0.151576 102.37 0.265639C106.806 1.02935 109.321 5.76015 109.423 5.92279C109.533 6.17029 112.057 12.0608 108.483 13.8428C105.802 15.1864 102.997 14.3449 101.829 13.8428C101.829 14.7126 101.664 16.5512 100.442 19.9172C98.5686 25.0652 91.7815 26.1471 91.4915 26.1966L91.4445 26.2673ZM101.186 0.810137C99.3053 0.810137 97.3616 1.65164 95.3866 3.3205C91.9539 6.22686 92.9414 11.4173 93.8192 15.9996C94.5089 19.6626 95.175 23.17 93.4822 25.0864C95.5826 24.3792 98.6783 22.8447 99.7912 19.7899C101.539 14.9954 101.1 13.4256 101.092 13.4256C101.072 13.3628 101.074 13.296 101.097 13.234C101.119 13.172 101.162 13.1177 101.22 13.078C101.277 13.0383 101.347 13.0152 101.419 13.0116C101.491 13.008 101.563 13.0241 101.625 13.0579C101.625 13.0579 105.058 14.8682 108.169 13.3124C111.132 11.8345 108.906 6.47436 108.788 6.241C108.671 6.00764 106.241 1.60214 102.252 0.91621C101.901 0.851663 101.544 0.816157 101.186 0.810137Z" fill="#040047"/>
<path d="M102.307 12.2022C102.377 12.61 102.578 12.9904 102.884 13.2968C103.19 13.6033 103.589 13.8225 104.031 13.9277C105.269 14.1822 106.939 13.5599 108.005 12.6972C108.953 11.8761 109.693 10.8799 110.175 9.77673C111.077 7.98765 114.039 1.19907 108.686 3.18615C104.031 4.90451 101.562 9.39487 102.307 12.2022Z" fill="#040047"/>
<path d="M104.627 14.2954C104.397 14.2972 104.168 14.2734 103.945 14.2247C103.439 14.1124 102.981 13.8669 102.629 13.5195C102.278 13.172 102.048 12.7382 101.97 12.273C101.186 9.28884 103.82 4.6429 108.538 2.88919C109.956 2.3659 110.983 2.38004 111.579 2.94576C113.083 4.36005 111.116 8.60291 110.474 9.89698C109.975 11.0423 109.205 12.0753 108.216 12.9236C107.227 13.735 105.961 14.2187 104.627 14.2954ZM110.301 3.12962C109.781 3.15863 109.271 3.27369 108.796 3.46904C104.384 5.10255 101.907 9.38784 102.636 12.1245C102.686 12.4752 102.85 12.8046 103.109 13.0704C103.367 13.3363 103.707 13.5264 104.086 13.6166C105.254 13.857 106.814 13.2135 107.754 12.4568C108.664 11.6584 109.375 10.6941 109.839 9.62827C111.061 7.19569 111.971 4.19033 111.077 3.36297C110.972 3.27854 110.849 3.2143 110.716 3.17418C110.582 3.13405 110.441 3.11889 110.301 3.12962Z" fill="#040047"/>
<path d="M111.79 2.30926C107.48 4.2822 103.725 6.92691 103.341 12.6618C102.934 18.6726 102.558 26.0552 108.044 29.8737C110.747 31.6865 113.958 32.7799 117.315 33.0298C120.671 33.2798 124.038 32.6764 127.034 31.288C129.984 29.8221 132.434 27.6552 134.116 25.0225C135.799 22.3898 136.651 19.3916 136.579 16.3531C136.164 3.67405 121.892 -2.30131 111.79 2.30926Z" fill="white"/>
<path d="M118.86 33.3954C114.889 33.4247 111.018 32.2769 107.84 30.1284C102.08 26.1118 102.605 18.3262 102.981 12.6407C103.397 6.58052 107.582 3.87215 111.602 2.03358C114.223 0.892268 117.118 0.359186 120.025 0.482668C122.932 0.606151 125.758 1.38229 128.249 2.74072C130.868 4.14709 133.043 6.13662 134.567 8.51883C136.09 10.901 136.91 13.5962 136.948 16.3462C137.034 19.4508 136.171 22.5168 134.454 25.2085C132.737 27.9001 130.232 30.1135 127.214 31.6063C124.631 32.8036 121.764 33.4175 118.86 33.3954ZM111.806 2.28108L111.971 2.57101C107.911 4.42373 104.133 6.92701 103.718 12.6549C103.342 18.1918 102.832 25.7795 108.295 29.5839C110.942 31.3575 114.085 32.4295 117.371 32.6793C120.656 32.9292 123.954 32.347 126.893 30.9982C129.789 29.566 132.194 27.4433 133.844 24.8619C135.494 22.2805 136.327 19.3396 136.25 16.3603C136.221 13.7164 135.44 11.1235 133.981 8.83031C132.522 6.53712 130.435 4.62044 127.919 3.26401C125.536 1.95751 122.83 1.20854 120.044 1.08505C117.259 0.961564 114.484 1.46747 111.971 2.55687L111.806 2.28108Z" fill="#040047"/>
<path d="M68.6299 40.389C68.3696 36.5202 67.3782 32.72 65.6988 29.1525C65.448 28.6151 64.9151 27.9857 64.3116 28.2544C64.6407 29.895 64.9725 31.545 65.3069 33.2045C61.9375 31.1929 59.0138 28.6316 56.6859 25.6522C56.4979 25.3454 56.2287 25.0854 55.9022 24.8955C55.727 24.8135 55.5239 24.7941 55.3336 24.8413C55.1432 24.8885 54.9796 24.9988 54.8755 25.1501C54.8377 25.2931 54.835 25.4419 54.8674 25.586C54.8999 25.7301 54.9669 25.8661 55.0636 25.9845C56.0553 27.5967 57.2124 29.1214 58.5198 30.5385C56.8426 28.311 55.0714 25.9987 52.4538 24.6975C52.7385 27.2743 53.8253 29.7258 55.5887 31.7689L51.4036 27.5685C51.0274 27.1867 50.3926 26.7765 49.9458 27.1018C49.4991 27.4271 49.7969 28.0423 50.1104 28.4595L53.0102 32.3771C51.5368 31.2127 50.0033 30.1048 48.4097 29.0535C48.684 31.4366 50.7061 33.3529 52.8613 34.7531C55.0166 36.1532 57.4383 37.2847 59.2017 39.0737C60.2656 40.2427 61.1707 41.5223 61.8977 42.8852" fill="white"/>
<path d="M61.8273 43.1964C61.762 43.1959 61.6981 43.1792 61.6428 43.148C61.5874 43.1168 61.5428 43.0723 61.5138 43.0196C60.7941 41.6822 59.9052 40.4245 58.8648 39.2717C57.5753 38.0798 56.1182 37.0456 54.5308 36.1956C53.8881 35.8138 53.2219 35.4178 52.5793 35.0006C49.7735 33.1691 48.2217 31.1749 47.9788 29.0747C47.9717 29.0126 47.985 28.95 48.0171 28.8947C48.0491 28.8393 48.0985 28.7937 48.1591 28.7635C48.2178 28.7303 48.2857 28.7126 48.355 28.7126C48.4243 28.7126 48.4922 28.7303 48.5509 28.7635C49.46 29.3623 50.3561 29.9845 51.2391 30.6304L49.7422 28.615C49.1779 27.8584 49.1465 27.2008 49.656 26.8189C50.1654 26.437 50.9178 26.635 51.5996 27.328L53.3473 29.0747C52.6582 27.6858 52.2241 26.205 52.062 24.6904C52.0542 24.6316 52.0647 24.5719 52.0924 24.5182C52.1201 24.4645 52.1638 24.4188 52.2188 24.3863C52.2748 24.3572 52.3383 24.3418 52.4029 24.3418C52.4676 24.3418 52.5311 24.3572 52.5871 24.3863C53.2568 24.7241 53.887 25.1222 54.4681 25.5743C54.4107 25.3824 54.4245 25.1787 54.5072 24.9945C54.5592 24.8894 54.6338 24.7947 54.7266 24.7158C54.8194 24.6369 54.9287 24.5754 55.048 24.5348C55.3633 24.4354 55.709 24.4507 56.012 24.5772C56.4064 24.7787 56.7338 25.0717 56.9603 25.4258C59.1033 28.1716 61.7545 30.5637 64.7976 32.4973C64.5154 31.1113 64.2359 29.7229 63.959 28.3322C63.947 28.265 63.9588 28.1961 63.9925 28.1352C64.0263 28.0743 64.0803 28.0245 64.1471 27.9928C64.2657 27.9331 64.3974 27.8977 64.5329 27.8892C64.6683 27.8806 64.8042 27.8991 64.9308 27.9433C65.445 28.1662 65.8418 28.5623 66.0359 29.0464C67.7288 32.6385 68.7306 36.4648 68.9984 40.3607C69.0028 40.4466 68.9701 40.5306 68.9073 40.5952C68.8444 40.6599 68.7563 40.7 68.6614 40.7072C68.567 40.7111 68.4747 40.6814 68.4044 40.6245C68.334 40.5677 68.2912 40.4882 68.2852 40.4031C68.028 36.5703 67.0446 32.8056 65.3775 29.2727C65.2581 28.9803 65.0349 28.7317 64.7427 28.5655C65.0484 30.0859 65.354 31.6133 65.6675 33.1337C65.6801 33.1958 65.672 33.2599 65.644 33.3179C65.6161 33.3758 65.5697 33.4249 65.5108 33.459C65.4541 33.4969 65.3854 33.5173 65.3149 33.5173C65.2443 33.5173 65.1756 33.4969 65.1189 33.459C61.7045 31.4312 58.7451 28.8401 56.396 25.8218C56.2296 25.5608 55.9957 25.3401 55.7142 25.1783C55.651 25.154 55.583 25.1415 55.5143 25.1415C55.4456 25.1415 55.3777 25.154 55.3145 25.1783C55.2839 25.1858 55.2554 25.1991 55.2311 25.2174C55.2067 25.2357 55.187 25.2586 55.1734 25.2844C55.1107 25.4188 55.2361 25.645 55.3458 25.836C55.6593 26.3451 55.9963 26.8543 56.349 27.3493C57.2503 28.3251 58.0419 29.3717 58.7864 30.3617C58.8365 30.431 58.8555 30.5149 58.8395 30.5963C58.8234 30.6777 58.7736 30.7506 58.7002 30.8001C58.6647 30.8258 58.624 30.8448 58.5804 30.8562C58.5367 30.8676 58.491 30.8711 58.4458 30.8665C58.4007 30.8619 58.357 30.8493 58.3172 30.8294C58.2775 30.8095 58.2425 30.7827 58.2143 30.7506C57.3298 29.7939 56.5131 28.7877 55.769 27.7382C54.9415 26.8081 53.964 25.9953 52.8693 25.3268C53.2397 27.6075 54.2515 29.7645 55.8082 31.5921C55.8588 31.6587 55.8802 31.7398 55.8682 31.8198C55.8562 31.8997 55.8116 31.9728 55.7433 32.0248C55.6749 32.0768 55.5875 32.104 55.4981 32.1012C55.4088 32.0983 55.3238 32.0656 55.2596 32.0093L51.0745 27.8089C50.8159 27.5402 50.3378 27.2008 50.1105 27.3705C49.8832 27.5402 50.1105 27.9574 50.3456 28.3039L53.2454 32.2144C53.2946 32.2792 53.3161 32.3578 53.306 32.4358C53.2959 32.5138 53.2549 32.5858 53.1906 32.6387C53.1239 32.69 53.0392 32.7182 52.9515 32.7182C52.8639 32.7182 52.7792 32.69 52.7125 32.6387C51.4742 31.6558 50.1811 30.7153 48.8566 29.8101C49.3425 31.4436 50.7297 33.0135 53.0103 34.4985C53.6295 34.9086 54.2956 35.2975 54.9383 35.6794C56.5777 36.5588 58.08 37.6313 59.4055 38.8686C60.4873 40.0549 61.4081 41.3534 62.1486 42.7367C62.1784 42.786 62.1935 42.8415 62.1925 42.8977C62.1914 42.9538 62.1743 43.0088 62.1427 43.0572C62.1112 43.1056 62.0662 43.1459 62.0123 43.174C61.9584 43.2021 61.8974 43.2171 61.8351 43.2176L61.8273 43.1964Z" fill="#040047"/>
<path d="M95.9901 40.0425C93.1373 42.4397 86.7656 51.4911 80.966 60.981L68.9515 38.2534L59.1862 40.8769C59.1862 40.8769 68.0188 82.9095 76.7339 84.6562C85.4489 86.4028 97.3224 67.6282 97.3224 67.6282L110.646 34.6328C110.646 34.6328 100.254 36.436 95.9901 40.0425Z" fill="#FFE11B"/>
<path d="M129.432 88.5101C129.894 93.2551 130.349 97.2999 130.639 99.7679L129.581 98.396H97.6514C96.8677 91.8903 95.5667 80.4275 95.2454 70.6618C95.0494 65.0047 95.1748 59.9627 95.888 56.7382C97.6044 48.9596 104.133 43.4297 108.224 40.6153C109.152 39.9668 110.118 39.3626 111.116 38.805L111.594 38.5433H111.633C112.059 38.1078 112.534 37.7143 113.052 37.3695C117.26 34.5409 122.417 36.132 125.936 37.4614L126.383 37.6382C127.041 37.8998 127.637 38.1332 128.146 38.3453L128.828 38.5716C131.916 39.4768 132.01 42.0296 128.828 51.18C127.496 55.0127 127.645 64.6157 128.28 74.4592C128.585 79.2678 129.016 84.1824 129.432 88.5101Z" fill="#040047"/>
<path d="M112.033 37.1362C111.919 37.6147 111.776 38.0869 111.602 38.5505C111.445 38.9819 111.242 39.4556 111.006 39.9648C110.912 40.1628 110.818 40.3678 110.709 40.5729C108.93 47.9414 107.284 64.7714 106.79 70.577C106.641 72.4368 106.288 75.527 105.873 79.5295C105.787 80.3073 105.701 81.1347 105.622 81.9833C105.619 82.0115 105.619 82.0399 105.622 82.0681C105.528 82.9591 105.434 83.8855 105.34 84.8472C105.34 84.8967 105.34 84.9391 105.34 84.9886C105.27 85.6958 105.199 86.4029 105.136 87.1101C105.074 87.7253 105.011 88.3546 104.956 88.9981C104.69 91.9045 104.431 95.0371 104.172 98.3678H89.5637C90.175 92.9581 90.7785 87.4495 91.3506 82.1742C91.6406 79.579 91.9149 77.0403 92.1813 74.5936C93.4823 62.7489 94.5325 53.1954 95.1595 50.4871C95.4024 49.4051 95.6689 48.3656 95.9432 47.4676C98.2004 40.4881 102.08 37.2706 105.466 35.7997C105.732 35.6795 105.991 35.5805 106.249 35.4815C107.595 34.9951 109.019 34.7085 110.466 34.6329H110.575C110.959 34.6329 111.265 34.6329 111.492 34.6329H111.563C111.693 34.6242 111.824 34.6242 111.955 34.6329C112.103 34.9126 112.173 35.2211 112.159 35.531C112.198 36.0687 112.156 36.6088 112.033 37.1362Z" fill="#FFE11B"/>
<path d="M111.908 31.1112L110.975 40.0919C110.975 40.0919 111.492 45.1834 117.692 44.1297C119.514 43.8013 121.234 43.1113 122.725 42.1096C124.216 41.108 125.441 39.8198 126.313 38.3382L127.096 22.7811C126.573 20.0045 126.512 17.173 126.916 14.3802C119.58 13.673 114.282 8.23511 114.282 8.23511C114.282 8.23511 111.43 11.4597 110.223 12.478C109.267 13.2221 108.416 14.07 107.691 15.0025C106.5 16.6501 106.335 18.8069 106.194 20.7162C106.002 22.9842 106.034 25.2631 106.288 27.526C106.915 31.7689 111.908 31.1112 111.908 31.1112Z" fill="white"/>
<path d="M116.092 44.5824C114.902 44.6174 113.733 44.294 112.769 43.6631C111.579 42.7754 110.811 41.5102 110.622 40.1274L111.515 31.4861C110.177 31.5689 108.847 31.2371 107.746 30.5456C107.24 30.1779 106.825 29.7198 106.526 29.2001C106.226 28.6804 106.049 28.1105 106.006 27.5261C105.741 25.2424 105.71 22.9415 105.912 20.6526C106.045 18.8141 106.21 16.5158 107.479 14.7833C108.218 13.8286 109.087 12.9615 110.066 12.2023C111.233 11.2335 114.063 8.05132 114.094 8.02304C114.126 7.98572 114.166 7.95503 114.212 7.93305C114.258 7.91108 114.308 7.89836 114.36 7.89575C114.467 7.89862 114.569 7.93925 114.643 8.00889C114.69 8.06546 119.933 13.3832 127.033 14.0479C127.08 14.0514 127.126 14.0634 127.168 14.0833C127.21 14.1031 127.247 14.1303 127.277 14.1633C127.307 14.1962 127.329 14.2343 127.343 14.2753C127.356 14.3162 127.36 14.3591 127.355 14.4015C126.97 16.9255 126.999 19.4869 127.441 22.0033C127.503 22.2613 127.537 22.5242 127.543 22.7882C127.543 22.7882 127.543 23.0498 126.72 38.3454C126.714 38.3894 126.701 38.4323 126.681 38.4727C125.788 40.0081 124.524 41.3421 122.981 42.3755C121.438 43.4088 119.657 44.1148 117.77 44.4409C117.217 44.5355 116.655 44.5828 116.092 44.5824ZM111.335 40.092C111.402 40.7386 111.63 41.3631 112.002 41.9191C112.374 42.4751 112.88 42.9482 113.483 43.3031C114.085 43.6579 114.769 43.8854 115.483 43.9686C116.197 44.0517 116.922 43.9884 117.605 43.7833C119.364 43.4664 121.025 42.8059 122.471 41.8481C123.917 40.8904 125.113 39.6586 125.975 38.2393C126.03 37.1362 126.759 22.8306 126.798 22.7316C126.782 22.5156 126.75 22.3006 126.704 22.0881C126.27 19.6216 126.23 17.1115 126.587 14.6348C120.262 13.9277 115.567 9.83333 114.376 8.7019C113.632 9.52218 111.547 11.8275 110.536 12.6619C109.599 13.3854 108.767 14.2122 108.059 15.1228C106.915 16.7138 106.758 18.8211 106.625 20.6809C106.424 22.9296 106.453 25.1902 106.711 27.4341C106.747 27.9336 106.897 28.421 107.15 28.8662C107.404 29.3114 107.756 29.7049 108.185 30.0223C109.269 30.6658 110.572 30.9414 111.86 30.8001C111.914 30.7937 111.968 30.798 112.02 30.8127C112.071 30.8273 112.118 30.852 112.158 30.885C112.197 30.9201 112.226 30.9623 112.245 31.0087C112.264 31.055 112.272 31.1045 112.268 31.1537L111.335 40.092Z" fill="#040047"/>
<path d="M116.68 18.5099C116.68 18.5099 113.067 22.5689 113.757 23.375C114.447 24.1812 116.618 23.8559 116.618 23.8559" fill="white"/>
<path d="M115.638 24.2379C115.242 24.2688 114.844 24.2216 114.47 24.0995C114.097 23.9774 113.757 23.7833 113.475 23.5307C112.691 22.6256 115.27 19.5566 116.414 18.2837C116.442 18.2508 116.476 18.2232 116.516 18.2028C116.556 18.1823 116.6 18.1694 116.645 18.1648C116.691 18.1601 116.737 18.1639 116.78 18.1758C116.824 18.1878 116.865 18.2076 116.9 18.2342C116.936 18.2597 116.965 18.2913 116.987 18.3271C117.009 18.363 117.023 18.4024 117.028 18.4431C117.033 18.4839 117.03 18.5251 117.017 18.5645C117.004 18.6039 116.983 18.6407 116.955 18.6726C115.16 20.6809 113.773 22.8165 114.032 23.1489C114.486 23.6863 116.046 23.5873 116.563 23.5095C116.648 23.5082 116.73 23.5346 116.796 23.5839C116.861 23.6332 116.904 23.702 116.917 23.7777C116.93 23.8534 116.913 23.9309 116.868 23.9959C116.823 24.061 116.754 24.1092 116.673 24.1318C116.331 24.1904 115.985 24.2259 115.638 24.2379Z" fill="#040047"/>
<path d="M111.433 17.9805C111.508 17.4701 111.325 17.0276 111.025 16.992C110.725 16.9565 110.421 17.3414 110.347 17.8518C110.273 18.3621 110.456 18.8047 110.756 18.8402C111.056 18.8758 111.359 18.4908 111.433 17.9805Z" fill="#040047"/>
<path d="M119.865 17.3328C119.937 16.8214 119.752 16.3788 119.452 16.3442C119.151 16.3096 118.849 16.6961 118.777 17.2075C118.704 17.7189 118.889 18.1615 119.19 18.1961C119.49 18.2307 119.793 17.8442 119.865 17.3328Z" fill="#040047"/>
<path d="M113.773 25.9491L116.367 25.5602C116.367 25.5602 116.563 28.9545 115.105 29.0959C113.647 29.2373 113.773 25.9491 113.773 25.9491Z" fill="white"/>
<path d="M115.003 29.4353C114.735 29.433 114.478 29.3396 114.282 29.1736C113.365 28.4665 113.428 26.1683 113.436 25.9137C113.44 25.8419 113.471 25.7735 113.524 25.7196C113.576 25.6656 113.648 25.6294 113.726 25.6167L116.328 25.2278C116.376 25.2207 116.425 25.2227 116.472 25.2337C116.52 25.2446 116.564 25.2643 116.602 25.2914C116.641 25.3192 116.673 25.3547 116.695 25.3951C116.716 25.4355 116.728 25.4799 116.728 25.5248C116.728 25.8996 116.892 29.209 115.16 29.4211L115.003 29.4353ZM114.126 26.1895C114.126 27.0593 114.282 28.3109 114.745 28.714C114.788 28.7509 114.841 28.7784 114.898 28.7944C114.955 28.8103 115.015 28.8142 115.074 28.8059C115.858 28.7069 116.054 26.9886 116.046 25.9066L114.126 26.1895Z" fill="#040047"/>
<path d="M124.299 17.8878C125.082 16.3674 127.387 15.9573 129.048 16.3957C129.595 16.5208 130.09 16.7888 130.469 17.1662C130.848 17.5436 131.095 18.0135 131.18 18.5172C131.258 19.1409 131.202 19.7724 131.015 20.377C130.705 21.5042 130.175 22.5723 129.448 23.5308C129.116 24.0285 128.649 24.4421 128.092 24.733C127.736 24.8905 127.334 24.9458 126.942 24.8915C126.55 24.8371 126.185 24.6757 125.898 24.4289" fill="white"/>
<path d="M127.277 25.242C126.699 25.2222 126.146 25.0251 125.709 24.6833C125.644 24.6266 125.605 24.55 125.6 24.4685C125.595 24.3871 125.623 24.3069 125.681 24.2437C125.738 24.1805 125.819 24.139 125.909 24.1275C125.998 24.1159 126.089 24.1351 126.164 24.1813C126.4 24.3834 126.698 24.517 127.019 24.5649C127.341 24.6128 127.67 24.5727 127.966 24.45C128.469 24.1827 128.889 23.8058 129.189 23.3539C129.885 22.4222 130.389 21.385 130.678 20.292C130.856 19.7269 130.907 19.1354 130.827 18.5524C130.756 18.1084 130.54 17.6937 130.206 17.3612C129.872 17.0286 129.436 16.7934 128.954 16.6855C127.386 16.2754 125.356 16.6855 124.628 18.0079C124.611 18.0517 124.585 18.0919 124.55 18.1257C124.515 18.1596 124.472 18.1863 124.425 18.2042C124.378 18.222 124.327 18.2306 124.276 18.2292C124.224 18.2279 124.174 18.2167 124.128 18.1964C124.082 18.1761 124.041 18.1472 124.008 18.1116C123.976 18.076 123.952 18.0345 123.938 17.9899C123.925 17.9453 123.922 17.8986 123.93 17.8529C123.938 17.8072 123.957 17.7637 123.985 17.725C124.871 16.0703 127.308 15.6036 129.158 16.0632C129.767 16.2096 130.316 16.5152 130.734 16.9416C131.152 17.3681 131.422 17.8964 131.509 18.4605C131.596 19.1266 131.538 19.8018 131.336 20.4475C131.024 21.613 130.48 22.7176 129.73 23.7075C129.363 24.2492 128.851 24.699 128.241 25.0157C127.943 25.1578 127.613 25.2352 127.277 25.242Z" fill="#040047"/>
<path d="M144.174 117.404L131.979 101.522L130.678 99.7679L129.62 98.396H115.513C115.967 94.9522 116.469 91.4731 116.994 88.0152C117.276 86.1412 117.566 84.2673 117.856 82.4146C118.107 80.8306 118.368 79.2631 118.64 77.7121C118.75 77.0474 118.851 76.3897 118.961 75.7321C121.594 59.8991 124.322 45.9189 125.615 39.5475C125.685 39.1444 125.764 38.7767 125.827 38.4373C125.889 38.0979 125.975 37.7302 126.022 37.4544C126.234 36.4361 126.352 35.8845 126.352 35.8845H126.563C128.806 36.3595 131.02 36.9426 133.194 37.6312C136.485 38.6919 139.84 40.1486 140.427 41.8316C142.489 47.6938 142.167 72.7055 142.536 87.6121C142.614 91.0771 142.739 93.9764 142.943 96.0059C143.084 97.3848 143.304 98.9335 143.539 101.486C143.735 104.704 144.001 109.456 144.174 117.404Z" fill="#FFE11B"/>
<path d="M123.703 79.1829C120.677 78.7091 117.911 77.4434 115.082 76.3544C113.953 75.923 112.785 75.5341 111.618 75.2017C110.23 74.8199 108.914 74.0773 107.425 74.042C106.515 74.042 106.751 75.1876 107.088 75.6189C107.446 76.0003 107.873 76.3253 108.349 76.5806C109.212 77.111 111.038 78.0869 111.351 79.0274C110.201 79.2019 109.037 79.2847 107.871 79.2749C106.628 79.4021 105.39 79.5719 104.156 79.784C102.957 79.9962 101.758 80.2578 100.583 80.5548C99.5153 80.7276 98.4665 80.9831 97.4478 81.3185C97.2126 81.4246 96.954 81.5872 96.9383 81.8277C96.8835 82.6692 98.9839 82.5702 99.509 82.5348L109.196 81.6509C105.804 81.9405 102.446 82.4869 99.1563 83.2844C98.8496 83.3378 98.5727 83.4852 98.3726 83.7016C97.5888 84.8189 101.014 84.8754 101.406 84.8896C103.192 84.9226 104.979 84.8802 106.766 84.7623L102.409 85.4129C101.437 85.5614 100.457 85.7099 99.5011 85.9291C98.965 86.014 98.4657 86.2319 98.0591 86.5584C98.0318 86.5798 98.0094 86.6057 97.9933 86.6348C97.9772 86.664 97.9676 86.6957 97.965 86.7282C97.965 86.8201 98.0747 86.8767 98.161 86.912C98.98 87.2166 99.862 87.3589 100.747 87.3292C102.562 87.3588 104.376 87.2499 106.171 87.0039L100.794 87.5202C100.315 87.5163 99.8495 87.6696 99.4855 87.9515C99.4377 88.0919 99.4434 88.2427 99.5016 88.3798C99.5599 88.5169 99.6673 88.6325 99.8068 88.7082C100.086 88.8569 100.4 88.9441 100.724 88.9627C102.705 89.0723 104.691 89.0723 106.672 88.9627C108.834 88.9677 110.994 88.8449 113.138 88.595C117.38 88.1335 121.507 87.0365 125.348 85.3492" fill="white"/>
<path d="M102.84 89.3941C102.122 89.4007 101.405 89.3652 100.692 89.288C100.313 89.2666 99.9441 89.1622 99.6187 88.9839C99.4125 88.8659 99.2557 88.6891 99.1734 88.4816C99.091 88.2741 99.0878 88.0477 99.1642 87.8384C99.1803 87.8036 99.2043 87.7723 99.2347 87.7464C99.2949 87.6827 99.3633 87.6257 99.4385 87.5767C98.9514 87.5188 98.4762 87.3973 98.0278 87.2161C97.9168 87.1814 97.8197 87.118 97.7486 87.0337C97.6775 86.9494 97.6355 86.848 97.6281 86.7423C97.6282 86.6672 97.6449 86.5929 97.6772 86.5237C97.7095 86.4545 97.7568 86.3918 97.8162 86.3392C98.2707 85.9722 98.8299 85.7272 99.4307 85.6321C100.144 85.4623 100.873 85.3421 101.594 85.229H101.413C99.4542 85.1866 98.2786 84.8966 97.9964 84.3663C97.9253 84.2353 97.8964 84.089 97.9131 83.944C97.9297 83.7989 97.9912 83.661 98.0905 83.546C98.3416 83.2536 98.7052 83.0567 99.1093 82.9944L99.6187 82.8742C99.2817 82.8742 97.5811 83.0298 96.9227 82.4641C96.8279 82.3842 96.7541 82.2863 96.7066 82.1774C96.6591 82.0685 96.6393 81.9514 96.6484 81.8347C96.6757 81.6581 96.7569 81.4919 96.8828 81.3545C97.0087 81.2172 97.1745 81.1141 97.3616 81.0568C98.0308 80.7931 98.7337 80.6054 99.4542 80.4982C99.8225 80.4346 100.191 80.3638 100.536 80.279C101.727 79.9749 102.942 79.7133 104.149 79.5011C105.356 79.289 106.641 79.1051 107.887 78.9849C108.334 78.9425 108.781 78.9354 109.219 78.9283C109.778 78.9355 110.336 78.9024 110.889 78.8293C110.234 78.1462 109.458 77.5656 108.592 77.111L108.075 76.7928C107.607 76.5416 107.192 76.2157 106.853 75.831C106.669 75.5927 106.551 75.3178 106.51 75.0297C106.469 74.7416 106.506 74.4488 106.617 74.1763C106.703 74.0378 106.83 73.9239 106.984 73.8476C107.137 73.7712 107.312 73.7357 107.487 73.745C108.515 73.8122 109.52 74.0521 110.45 74.4521C110.904 74.6218 111.335 74.7774 111.774 74.9047C112.963 75.2375 114.132 75.6246 115.278 76.0644L116.845 76.6796C119.06 77.6534 121.397 78.3846 123.805 78.8576C123.85 78.8645 123.894 78.8794 123.934 78.9017C123.973 78.9239 124.007 78.9529 124.034 78.9871C124.061 79.0213 124.08 79.0599 124.091 79.1008C124.101 79.1417 124.102 79.184 124.095 79.2253C124.076 79.3091 124.022 79.3833 123.945 79.4331C123.868 79.4829 123.773 79.5047 123.679 79.4941C121.215 79.0187 118.824 78.2705 116.563 77.2666L114.995 76.6655C113.874 76.2305 112.728 75.8482 111.563 75.5199C111.093 75.3856 110.622 75.2158 110.176 75.0461C109.329 74.6651 108.413 74.4255 107.472 74.339C107.299 74.339 107.276 74.3956 107.252 74.4309C107.206 74.596 107.198 74.7679 107.229 74.9359C107.26 75.1039 107.329 75.2642 107.433 75.4068C107.729 75.7233 108.081 75.9933 108.475 76.2058L108.992 76.5241C110.027 77.1393 111.437 77.9878 111.743 78.9071C111.778 78.9866 111.778 79.0752 111.743 79.1546C111.72 79.1929 111.689 79.2265 111.652 79.2533C111.614 79.2801 111.57 79.2995 111.524 79.3102C110.783 79.4738 110.021 79.5476 109.259 79.5294C108.812 79.5294 108.396 79.5294 107.989 79.5789C106.759 79.6991 105.52 79.8688 104.305 80.081C103.091 80.2931 101.954 80.5477 100.755 80.8447C100.395 80.9437 100.011 81.0144 99.6266 81.0851C98.9639 81.1818 98.3165 81.3504 97.6986 81.5872C97.4713 81.6862 97.393 81.7781 97.3851 81.8276C97.3839 81.8508 97.3889 81.8738 97.3999 81.8948C97.4108 81.9158 97.4273 81.934 97.4478 81.9478C98.1122 82.2213 98.854 82.3028 99.5717 82.1812L109.227 81.3043C109.321 81.2963 109.414 81.3214 109.487 81.3742C109.56 81.427 109.607 81.5034 109.619 81.5872C109.628 81.6732 109.599 81.7589 109.539 81.8263C109.479 81.8936 109.393 81.9372 109.298 81.9478C105.929 82.2459 102.594 82.7994 99.3288 83.6026C99.0969 83.6358 98.8828 83.7349 98.7175 83.8854C98.6783 83.942 98.6391 84.0127 98.6626 84.0481C98.7958 84.2743 99.7206 84.536 101.445 84.5713C103.169 84.6067 105.019 84.5713 106.782 84.4511C106.828 84.4462 106.875 84.4497 106.919 84.4614C106.963 84.4731 107.005 84.4927 107.041 84.5191C107.076 84.5455 107.106 84.5781 107.127 84.615C107.149 84.6519 107.162 84.6924 107.166 84.734C107.177 84.8163 107.152 84.8994 107.097 84.9654C107.041 85.0314 106.959 85.0753 106.868 85.0876L102.519 85.7381C101.555 85.8866 100.575 86.0281 99.6344 86.2473C99.2277 86.3218 98.8414 86.4684 98.498 86.6786C99.2366 86.9174 100.018 87.0301 100.802 87.011C101.649 87.011 102.495 87.011 103.341 86.9615L106.179 86.6928C106.271 86.6828 106.364 86.7062 106.437 86.7578C106.511 86.8095 106.559 86.8852 106.57 86.9686C106.582 87.0517 106.557 87.1356 106.502 87.2028C106.446 87.27 106.364 87.3153 106.273 87.3292C105.324 87.4636 104.36 87.5555 103.404 87.605L100.881 87.8525C100.513 87.8525 100.154 87.9483 99.846 88.1283C99.8499 88.1938 99.8711 88.2576 99.9079 88.3142C99.9448 88.3708 99.9961 88.4186 100.058 88.4536C100.298 88.5734 100.567 88.6389 100.841 88.6445C102.144 88.7614 103.454 88.7826 104.76 88.7081C105.418 88.7081 106.084 88.6657 106.743 88.6657H106.892C108.988 88.6699 111.083 88.5471 113.162 88.298C117.345 87.8225 121.411 86.7208 125.192 85.0381C125.233 85.0176 125.279 85.0051 125.326 85.0012C125.373 84.9973 125.42 85.0021 125.465 85.0153C125.51 85.0286 125.551 85.05 125.586 85.0782C125.621 85.1065 125.65 85.1409 125.67 85.1795C125.711 85.2556 125.718 85.3433 125.689 85.4239C125.659 85.5045 125.596 85.5716 125.513 85.6108C121.646 87.3319 117.487 88.4577 113.209 88.9415C111.047 89.2011 108.868 89.3239 106.688 89.3092C106.006 89.3092 105.379 89.3092 104.729 89.3516C104.078 89.3941 103.483 89.3941 102.84 89.3941Z" fill="#040047"/>
<path d="M140.333 41.8599C140.333 41.8599 165.624 83.3763 156.556 86.1695C152.841 87.3151 119.604 89.0759 119.604 89.0759L116.077 76.1563L140.999 72.6772L140.333 41.8599Z" fill="#FFE11B"/>
<path d="M110.246 22.5124C110.074 22.5124 109.893 22.5124 109.721 22.5124C108.761 22.4375 107.837 22.15 107.03 21.6756C106.223 21.2012 105.558 20.5545 105.095 19.7928C104.631 19.0311 104.383 18.178 104.372 17.309C104.361 16.44 104.588 15.5821 105.033 14.8112C105.477 14.0403 106.126 13.3803 106.921 12.8897C107.716 12.3991 108.633 12.093 109.59 11.9986C110.548 11.9043 111.516 12.0245 112.41 12.3487C113.303 12.6728 114.095 13.1909 114.713 13.857C115.428 14.6263 115.885 15.5635 116.031 16.5588C116.177 17.5541 116.006 18.5663 115.537 19.4768C115.068 20.3873 114.321 21.1585 113.384 21.6999C112.447 22.2412 111.359 22.5305 110.246 22.5336V22.5124ZM110.246 12.6124C109.25 12.6131 108.276 12.8752 107.442 13.3669C106.608 13.8585 105.951 14.5584 105.55 15.3813C105.149 16.2041 105.023 17.1144 105.185 18.0011C105.348 18.8877 105.793 19.7125 106.467 20.3749C107.14 21.0373 108.012 21.5086 108.977 21.7314C109.942 21.9542 110.958 21.9189 111.901 21.6298C112.844 21.3406 113.674 20.8102 114.289 20.103C114.904 19.3959 115.277 18.5426 115.364 17.6473C115.481 16.4247 115.056 15.21 114.182 14.27C113.307 13.33 112.055 12.7415 110.701 12.6336L110.246 12.6124Z" fill="#040047"/>
<path d="M121.634 22.5619H121.109C119.955 22.4712 118.857 22.0738 117.954 21.42C117.05 20.7663 116.382 19.8855 116.034 18.8891C115.685 17.8927 115.672 16.8254 115.996 15.8222C116.32 14.819 116.966 13.9251 117.853 13.2534C118.74 12.5816 119.828 12.1623 120.979 12.0485C122.13 11.9347 123.293 12.1315 124.32 12.6139C125.347 13.0964 126.193 13.8428 126.75 14.7589C127.307 15.675 127.55 16.7195 127.449 17.7604C127.324 19.0747 126.657 20.299 125.58 21.1917C124.504 22.0845 123.096 22.5809 121.634 22.5831V22.5619ZM121.634 12.6619C120.809 12.6633 119.997 12.844 119.266 13.1887C118.535 13.5333 117.907 14.0318 117.435 14.6419C116.963 15.252 116.66 15.9558 116.553 16.6936C116.447 17.4315 116.538 18.1817 116.821 18.8808C117.104 19.5798 117.569 20.2072 118.177 20.7097C118.785 21.2122 119.519 21.5751 120.315 21.7677C121.112 21.9602 121.948 21.9768 122.753 21.8159C123.559 21.655 124.309 21.3215 124.941 20.8435C125.459 20.4538 125.886 19.9748 126.197 19.4345C126.508 18.8942 126.697 18.3035 126.751 17.6967C126.814 17.0911 126.742 16.4805 126.54 15.9002C126.338 15.3199 126.01 14.7816 125.576 14.3166C125.14 13.8445 124.604 13.4551 124 13.1711C123.396 12.887 122.736 12.714 122.057 12.6619H121.634Z" fill="#040047"/>
<path d="M116.077 76.4463C115.992 76.4441 115.91 76.4155 115.846 76.3652C115.782 76.3149 115.739 76.2461 115.724 76.1705C115.717 76.1286 115.718 76.0858 115.729 76.0445C115.74 76.0032 115.76 75.9643 115.787 75.93C115.815 75.8957 115.85 75.8668 115.891 75.845C115.931 75.8231 115.976 75.8088 116.022 75.8027L140.561 72.3802L134.651 49.3626C134.634 49.3196 134.628 49.2737 134.632 49.2281C134.636 49.1825 134.65 49.1382 134.674 49.0981C134.699 49.0579 134.732 49.0228 134.772 48.9951C134.813 48.9673 134.859 48.9475 134.908 48.937C134.958 48.9265 135.009 48.9255 135.059 48.9341C135.108 48.9427 135.156 48.9606 135.197 48.9868C135.239 49.0129 135.274 49.0467 135.3 49.0859C135.326 49.125 135.343 49.1687 135.349 49.2141L141.352 72.5499C141.37 72.6379 141.35 72.7287 141.297 72.8045C141.269 72.8406 141.233 72.8711 141.191 72.8942C141.149 72.9173 141.103 72.9325 141.054 72.9388L116.132 76.418L116.077 76.4463Z" fill="#040047"/>
<path d="M91.3505 82.5206H91.3113C91.2169 82.51 91.1309 82.4661 91.0722 82.3985C91.0135 82.331 90.9867 82.2452 90.9978 82.1599C91.0448 81.8205 95.5826 47.9271 95.6296 47.4321H95.9823L96.0607 47.1068C96.3898 47.1705 96.3898 47.1705 95.6296 52.8913L91.711 82.2094C91.71 82.2512 91.6999 82.2924 91.6812 82.3307C91.6625 82.3689 91.6357 82.4035 91.6022 82.4324C91.5687 82.4613 91.5292 82.484 91.4861 82.4991C91.4429 82.5142 91.3968 82.5215 91.3505 82.5206Z" fill="#040047"/>
<path d="M85.7467 69.1202C85.6803 69.1203 85.6151 69.1039 85.5584 69.0727C85.5017 69.0415 85.4557 68.9968 85.4253 68.9435L70.5345 42.0083C70.4928 41.9312 70.4858 41.8424 70.515 41.7606C70.5443 41.6789 70.6074 41.6106 70.6913 41.5699C70.7778 41.5328 70.8769 41.5276 70.9676 41.5553C71.0583 41.583 71.1335 41.6415 71.1772 41.7184L86.068 68.6535C86.1097 68.7307 86.1167 68.8195 86.0875 68.9012C86.0582 68.9829 85.9951 69.0513 85.9112 69.0919C85.8591 69.1116 85.8031 69.1212 85.7467 69.1202Z" fill="#040047"/>
<path d="M137.496 15.4126C137.417 15.4116 137.339 15.3867 137.277 15.3419C137.215 15.2971 137.171 15.2349 137.151 15.1651C137.128 15.0835 137.141 14.9967 137.188 14.9238C137.235 14.8508 137.312 14.7977 137.402 14.7762C137.402 14.7762 138.664 14.4438 140.929 12.4284C140.998 12.3692 141.089 12.3362 141.184 12.3362C141.279 12.3362 141.37 12.3692 141.438 12.4284C141.472 12.458 141.498 12.4933 141.516 12.5321C141.534 12.571 141.543 12.6126 141.543 12.6547C141.543 12.6968 141.534 12.7385 141.516 12.7773C141.498 12.8162 141.472 12.8514 141.438 12.881C138.993 15.0519 137.645 15.3772 137.59 15.3914L137.496 15.4126Z" fill="#040047"/>
</svg>
