<svg width="212" height="120" viewBox="0 0 212 120" fill="none" xmlns="http://www.w3.org/2000/svg">
<path d="M204.393 2.31229H82.5481V93.1413H204.393V2.31229Z" fill="white"/>
<path d="M204.387 93.4575H82.5481C82.4642 93.4575 82.3838 93.4242 82.3244 93.3649C82.2651 93.3056 82.2318 93.2252 82.2318 93.1413V2.31228C82.2318 2.22843 82.2651 2.148 82.3244 2.0887C82.3838 2.02941 82.4642 1.99609 82.5481 1.99609H204.387C204.47 1.99609 204.551 2.02941 204.61 2.0887C204.669 2.148 204.703 2.22843 204.703 2.31228V93.1413C204.703 93.2252 204.669 93.3056 204.61 93.3649C204.551 93.4242 204.47 93.4575 204.387 93.4575ZM82.8643 92.8252H204.07V2.62848H82.8643V92.8252Z" fill="#040047"/>
<path d="M139.132 54.8822H100.043C99.9592 54.8822 99.8787 54.8489 99.8194 54.7896C99.7601 54.7303 99.7268 54.6499 99.7268 54.566C99.7268 54.4822 99.7601 54.4017 99.8194 54.3425C99.8787 54.2832 99.9592 54.2498 100.043 54.2498H139.132C139.215 54.2498 139.296 54.2832 139.355 54.3425C139.414 54.4017 139.448 54.4822 139.448 54.566C139.448 54.6499 139.414 54.7303 139.355 54.7896C139.296 54.8489 139.215 54.8822 139.132 54.8822V54.8822Z" fill="#D1D3D4"/>
<path d="M139.132 60.4345H100.043C99.9592 60.4345 99.8787 60.4012 99.8194 60.3419C99.7601 60.2826 99.7268 60.2022 99.7268 60.1183C99.7268 60.0345 99.7601 59.9541 99.8194 59.8948C99.8787 59.8355 99.9592 59.8022 100.043 59.8022H139.132C139.215 59.8022 139.296 59.8355 139.355 59.8948C139.414 59.9541 139.448 60.0345 139.448 60.1183C139.448 60.2022 139.414 60.2826 139.355 60.3419C139.296 60.4012 139.215 60.4345 139.132 60.4345V60.4345Z" fill="#D1D3D4"/>
<path d="M139.132 65.9489H100.043C99.9592 65.9489 99.8787 65.9156 99.8194 65.8563C99.7601 65.797 99.7268 65.7166 99.7268 65.6327C99.7268 65.5489 99.7601 65.4684 99.8194 65.4091C99.8787 65.3498 99.9592 65.3165 100.043 65.3165H139.132C139.215 65.3165 139.296 65.3498 139.355 65.4091C139.414 65.4684 139.448 65.5489 139.448 65.6327C139.448 65.6742 139.44 65.7154 139.424 65.7537C139.408 65.7921 139.385 65.8269 139.355 65.8563C139.326 65.8857 139.291 65.909 139.253 65.9249C139.214 65.9407 139.173 65.9489 139.132 65.9489Z" fill="#D1D3D4"/>
<path d="M197.182 88.0823H89.7586C89.6748 88.0823 89.5943 88.049 89.535 87.9897C89.4757 87.9304 89.4424 87.8499 89.4424 87.7661V7.68753C89.4424 7.60367 89.4757 7.52325 89.535 7.46395C89.5943 7.40466 89.6748 7.37134 89.7586 7.37134H197.182C197.266 7.37134 197.347 7.40466 197.406 7.46395C197.465 7.52325 197.499 7.60367 197.499 7.68753V87.7661C197.499 87.8499 197.465 87.9304 197.406 87.9897C197.347 88.049 197.266 88.0823 197.182 88.0823ZM90.0812 87.4499H196.86V8.00372H90.0749L90.0812 87.4499Z" fill="#D1D3D4"/>
<path d="M190.168 60.4345H150.542C150.501 60.4345 150.46 60.4263 150.422 60.4104C150.384 60.3944 150.349 60.371 150.32 60.3416C150.292 60.3121 150.269 60.2772 150.254 60.2389C150.238 60.2005 150.231 60.1596 150.232 60.1183C150.232 60.045 150.256 59.9738 150.302 59.916C150.687 58.2465 150.472 33.2611 150.232 16.68C150.231 16.6156 150.249 16.5523 150.286 16.4991C150.322 16.4458 150.374 16.4051 150.434 16.3828C150.494 16.3579 150.559 16.3525 150.622 16.3673C150.684 16.3821 150.74 16.4163 150.782 16.465L190.402 59.9033C190.442 59.9496 190.468 60.0063 190.477 60.0667C190.486 60.1272 190.477 60.189 190.453 60.2448C190.428 60.3004 190.389 60.3478 190.338 60.3815C190.288 60.4151 190.229 60.4335 190.168 60.4345ZM150.909 59.8022H189.447L150.864 17.5021C151.092 32.4263 151.345 55.932 150.909 59.8022V59.8022Z" fill="#D1D3D4"/>
<path d="M181.838 63.3308C181.756 63.3309 181.678 63.2993 181.619 63.2427C181.56 63.1861 181.525 63.1089 181.522 63.0273C181.522 62.9388 181.25 54.4712 188.536 52.8459C188.62 52.8275 188.708 52.8431 188.78 52.8894C188.852 52.9356 188.903 53.0087 188.922 53.0926C188.94 53.1764 188.925 53.2642 188.878 53.3365C188.832 53.4089 188.759 53.4599 188.675 53.4783C181.895 54.9834 182.154 62.9641 182.154 63.0146C182.156 63.0981 182.125 63.179 182.069 63.2403C182.012 63.3016 181.934 63.3386 181.851 63.3435L181.838 63.3308Z" fill="#D1D3D4"/>
<path d="M157.031 60.4345C156.947 60.4345 156.867 60.4012 156.808 60.3419C156.748 60.2826 156.715 60.2022 156.715 60.1183V55.3755H150.548C150.465 55.3739 150.385 55.34 150.326 55.2811C150.267 55.2221 150.234 55.1426 150.232 55.0593C150.232 54.9754 150.265 54.895 150.325 54.8357C150.384 54.7764 150.464 54.7431 150.548 54.7431H157.031C157.115 54.7431 157.196 54.7764 157.255 54.8357C157.314 54.895 157.348 54.9754 157.348 55.0593V60.1183C157.348 60.2022 157.314 60.2826 157.255 60.3419C157.196 60.4012 157.115 60.4345 157.031 60.4345Z" fill="#D1D3D4"/>
<path d="M145.128 35.2404V34.8167C145.126 34.6578 145.139 34.4991 145.166 34.3424C145.19 34.2027 145.233 34.0667 145.292 33.9377C145.348 33.8054 145.422 33.6819 145.513 33.5709C145.62 33.4385 145.737 33.3138 145.861 33.1978L146.361 32.7172C146.498 32.5934 146.619 32.4532 146.722 32.2998C146.826 32.1289 146.879 31.9311 146.873 31.7307C146.88 31.4623 146.782 31.2019 146.601 31.0035C146.501 30.9032 146.38 30.8254 146.247 30.7753C146.114 30.7252 145.972 30.7038 145.83 30.7126C145.677 30.7104 145.525 30.7402 145.385 30.8001C145.244 30.86 145.118 30.9487 145.014 31.0604C144.913 31.168 144.836 31.2949 144.786 31.4335C144.735 31.5715 144.705 31.7165 144.698 31.8635L143.331 31.7434C143.369 31.4127 143.465 31.0914 143.616 30.7948C143.752 30.5239 143.942 30.2831 144.173 30.0865C144.408 29.8948 144.676 29.747 144.963 29.6502C145.271 29.5471 145.594 29.4958 145.918 29.4984C146.225 29.4989 146.53 29.5458 146.823 29.6375C147.097 29.727 147.352 29.8664 147.575 30.0486C147.796 30.2309 147.973 30.4599 148.094 30.7189C148.225 31.0088 148.29 31.3242 148.284 31.6422C148.287 31.8558 148.259 32.0688 148.202 32.2746C148.151 32.4485 148.077 32.6146 147.98 32.7678C147.879 32.9208 147.763 33.0628 147.632 33.1915C147.493 33.3306 147.341 33.4698 147.171 33.6215C147 33.7733 146.905 33.8555 146.81 33.9504C146.726 34.039 146.652 34.1366 146.589 34.2413C146.532 34.3368 146.494 34.4418 146.475 34.5511C146.447 34.6864 146.435 34.8242 146.437 34.9622V35.2531L145.128 35.2404ZM144.906 36.7834C144.902 36.6657 144.924 36.5485 144.968 36.4395C145.013 36.3305 145.08 36.2322 145.166 36.1511C145.249 36.0687 145.347 36.0038 145.456 35.9603C145.565 35.9169 145.681 35.8957 145.798 35.8981C146.032 35.894 146.258 35.9801 146.431 36.1384C146.52 36.2171 146.59 36.3148 146.636 36.4243C146.682 36.5338 146.702 36.6522 146.696 36.7708C146.7 36.8885 146.679 37.0057 146.634 37.1147C146.59 37.2237 146.522 37.322 146.437 37.4032C146.354 37.4859 146.255 37.5509 146.147 37.5944C146.038 37.6379 145.921 37.6589 145.804 37.6561C145.687 37.6556 145.571 37.632 145.463 37.5866C145.358 37.5451 145.262 37.4852 145.178 37.4095C145.094 37.3363 145.027 37.2456 144.982 37.1439C144.93 37.031 144.904 36.9078 144.906 36.7834V36.7834Z" fill="#D1D3D4"/>
<path d="M124.375 55.6854C122.718 55.894 116.324 60.58 114.666 60.8899C114.666 60.8899 111.833 63.7293 108.43 66.7331C110.231 69.8649 111.732 73.1594 112.914 76.5729C115.862 73.3162 118.461 70.0531 119.239 69.1361C119.889 68.251 120.593 67.4063 121.346 66.6066C122.503 65.5126 124.034 64.7537 125.33 63.8304C126.77 62.9008 127.973 61.6468 128.841 60.1689C129.191 59.5852 129.346 58.9052 129.283 58.2275C128.993 56.5327 125.83 55.4956 124.375 55.6854Z" fill="white"/>
<path d="M112.914 76.8765H112.857C112.803 76.8666 112.753 76.8427 112.71 76.8072C112.668 76.7717 112.636 76.7258 112.617 76.6741C111.442 73.2782 109.949 70.0006 108.158 66.8848C108.121 66.8224 108.107 66.749 108.119 66.6773C108.13 66.6057 108.166 66.5403 108.221 66.4927C111.573 63.5332 114.413 60.6875 114.439 60.6622C114.486 60.6169 114.545 60.5862 114.609 60.5737C115.356 60.4345 117.291 59.2456 119.163 58.0884C121.346 56.7477 123.414 55.483 124.331 55.3628C125.906 55.1668 129.264 56.2355 129.568 58.1706C129.647 58.9177 129.48 59.6702 129.094 60.3144C128.201 61.8404 126.967 63.1391 125.488 64.1087C125.02 64.4375 124.521 64.741 124.04 65.0509C123.142 65.5708 122.295 66.1742 121.51 66.8532C120.997 67.3675 120.525 67.9215 120.1 68.51C119.878 68.8009 119.663 69.0855 119.467 69.3574L118.955 69.9898C117.873 71.3178 115.621 74.0813 113.161 76.8132C113.09 76.8647 113.002 76.8873 112.914 76.8765ZM108.835 66.7583C110.508 69.6988 111.922 72.7797 113.06 75.9658C115.368 73.3794 117.449 70.8246 118.474 69.5661L118.993 68.9337C119.214 68.6681 119.429 68.3899 119.625 68.1053C120.071 67.4908 120.564 66.9115 121.099 66.3726C121.905 65.6586 122.778 65.0233 123.705 64.4754C124.179 64.1782 124.673 63.8431 125.122 63.5522C126.516 62.6428 127.684 61.4273 128.537 59.9982C128.857 59.473 128.999 58.8587 128.942 58.2465C128.714 56.773 125.729 55.8055 124.413 55.9699C123.629 56.0711 121.434 57.4181 119.499 58.6133C117.563 59.8085 115.704 60.9278 114.825 61.1428C114.388 61.6171 111.833 64.1403 108.835 66.8026V66.7583Z" fill="#040047"/>
<path d="M117.519 66.1955L141.206 34.8167L141.693 35.076L118.835 66.9038L117.519 66.1955Z" fill="#040047"/>
<path d="M118.835 67.22C118.782 67.2195 118.73 67.2065 118.683 67.1821L117.367 66.4738C117.327 66.451 117.293 66.4201 117.265 66.383C117.238 66.346 117.219 66.3037 117.209 66.2588C117.199 66.215 117.199 66.1697 117.209 66.1259C117.219 66.0822 117.238 66.0412 117.266 66.0058L140.953 34.627C140.998 34.5665 141.062 34.5242 141.136 34.5079C141.209 34.4916 141.286 34.5025 141.352 34.5385L141.845 34.7978C141.885 34.8189 141.92 34.8485 141.947 34.8846C141.974 34.9206 141.994 34.9622 142.003 35.0064C142.012 35.0498 142.013 35.0947 142.004 35.1382C141.995 35.1817 141.978 35.223 141.952 35.2594L119.094 67.0872C119.065 67.1289 119.026 67.1628 118.981 67.186C118.936 67.2091 118.885 67.2208 118.835 67.22V67.22ZM117.993 66.088L118.74 66.4928L139.422 37.7004L117.993 66.088Z" fill="#040047"/>
<path d="M114.135 61.3831C115.887 59.486 117.715 56.5833 118.563 55.4577C118.73 55.2077 118.945 54.9928 119.195 54.8253C119.505 54.6685 119.847 54.5883 120.194 54.5913C122.302 54.4555 124.419 54.6324 126.475 55.1162C127.126 55.2143 127.729 55.5127 128.202 55.9699C128.338 56.1068 128.419 56.2892 128.43 56.4821C128.43 56.8236 128.107 57.0703 127.797 57.2347C126.803 57.6962 125.729 57.9604 124.635 58.0125C123.079 58.1706 122.535 57.8354 120.972 57.8165C121.169 57.8165 121.567 59.4417 121.175 60.4851C120.728 61.482 120.082 62.3772 119.277 63.1158" fill="white"/>
<path d="M119.303 63.4573C119.22 63.4565 119.141 63.4249 119.081 63.3688C119.052 63.3394 119.028 63.3044 119.012 63.2659C118.996 63.2274 118.988 63.186 118.988 63.1443C118.988 63.1026 118.996 63.0612 119.012 63.0227C119.028 62.9842 119.052 62.9492 119.081 62.9198L119.138 62.8629C119.889 62.1726 120.49 61.3353 120.903 60.4029C121.113 59.6476 121.085 58.8457 120.821 58.1074C120.775 58.0784 120.739 58.0379 120.714 57.9902C120.69 57.9424 120.679 57.889 120.682 57.8354C120.685 57.7532 120.719 57.6753 120.778 57.6177C120.837 57.5601 120.915 57.5271 120.998 57.5256C121.54 57.5347 122.081 57.5791 122.617 57.6584C123.282 57.7694 123.958 57.7906 124.628 57.7216C125.681 57.6728 126.715 57.4193 127.671 56.9754C127.81 56.9058 128.126 56.7161 128.126 56.5011C128.11 56.3862 128.056 56.2797 127.974 56.1976C127.541 55.7964 126.996 55.5362 126.412 55.4514C124.389 54.9739 122.307 54.797 120.232 54.9265C119.935 54.9252 119.641 54.99 119.372 55.1162C119.167 55.2628 118.989 55.4448 118.847 55.6537C118.582 55.9952 118.215 56.5201 117.797 57.1272C116.753 58.6874 115.613 60.1806 114.382 61.5981C114.325 61.6602 114.245 61.697 114.161 61.7006C114.077 61.7041 113.995 61.6741 113.933 61.6171C113.871 61.5601 113.834 61.4807 113.83 61.3965C113.827 61.3123 113.857 61.2302 113.914 61.1681C115.129 59.766 116.253 58.2874 117.279 56.7414C117.702 56.109 118.069 55.6031 118.348 55.249C118.537 54.9354 118.809 54.6795 119.133 54.509C119.457 54.3384 119.822 54.2598 120.188 54.2815C122.326 54.1433 124.473 54.3244 126.557 54.819C127.274 54.9262 127.939 55.2584 128.455 55.7675C128.641 55.9626 128.749 56.2191 128.759 56.4885C128.759 56.7667 128.619 57.1714 127.968 57.5192C126.937 57.9965 125.826 58.2734 124.692 58.335C123.973 58.4067 123.247 58.3833 122.535 58.2655C122.225 58.2212 121.902 58.1832 121.516 58.158C121.746 58.9575 121.746 59.8057 121.516 60.6053C121.075 61.6184 120.429 62.5292 119.619 63.2803L119.562 63.3372C119.531 63.3754 119.491 63.4061 119.446 63.4269C119.401 63.4477 119.352 63.4581 119.303 63.4573V63.4573Z" fill="#040047"/>
<path d="M80.872 49.0516C80.872 49.0516 89.8662 79.5008 92.6365 78.0464C95.4069 76.5919 111.713 62.3317 111.713 62.3317L118.854 71.8174C118.854 71.8174 97.064 106.44 90.1255 102.741C83.187 99.0414 75.9638 79.4755 75.9638 79.4755L80.872 49.0516Z" fill="#FFE11B"/>
<path d="M35.9898 75.1817L25.5472 72.5383C25.9457 71.8174 32.2896 52.7637 38.1023 49.0517C43.0991 44.8969 53.1305 44.4922 64.4839 44.0495C68.12 43.8377 71.767 44.194 75.2933 45.1056C88.5379 48.7671 82.8011 75.7761 82.8011 75.7761C82.8011 75.7761 84.2495 88.7083 86.5265 114.263C86.5265 114.263 67.8931 117.855 35.4015 116.04C35.4015 116.084 36.2997 78.546 35.9898 75.1817Z" fill="#FFE11B"/>
<path d="M65.7805 41.95L67.4756 50.4492C67.4756 50.4492 64.8065 56.0964 59.1266 55.1541C53.4468 54.2119 52.3399 49.9623 52.3399 49.9623L50.006 33.6974C50.006 33.6974 45.1547 27.5886 47.5962 20.9929C50.0376 14.3971 65.401 14.1252 66.7672 23.2378C66.7672 23.2378 70.0119 32.8058 69.6577 37.1502C69.3035 41.4947 65.7805 41.95 65.7805 41.95Z" fill="white"/>
<path d="M60.3727 55.5778C59.9486 55.5743 59.5255 55.5362 59.1077 55.464C53.2887 54.5028 52.1122 50.2279 52.0616 50.0445L49.734 33.8239C49.2027 33.1093 44.9966 27.1839 47.3305 20.8854C48.4058 17.989 52.5107 15.3647 58.2917 15.9654C62.0867 16.3575 66.4004 18.457 67.1467 23.1935C67.2669 23.535 70.3915 32.8184 70.0373 37.2071C69.7273 40.9635 67.1531 41.9563 66.2423 42.1966L67.8741 50.4176C67.8958 50.4811 67.8958 50.5501 67.8741 50.6136C67.7413 50.6389 65.3441 55.5778 60.3727 55.5778ZM56.818 16.5219C53.0989 16.5219 49.0383 18.0017 47.8934 21.1004C45.5405 27.4242 50.2021 33.4381 50.2527 33.5014C50.2865 33.5457 50.3083 33.5979 50.3159 33.6531L52.6498 49.918C52.6878 50.0508 53.7757 53.9463 59.1772 54.8443C64.2372 55.679 66.7672 51.1385 67.1467 50.4176L65.4706 42.0132C65.4609 41.9705 65.461 41.9261 65.4708 41.8834C65.4807 41.8407 65.5001 41.8008 65.5275 41.7666C65.5529 41.7321 65.5851 41.703 65.6221 41.6813C65.659 41.6595 65.7 41.6455 65.7426 41.6401C65.8754 41.6401 69.0126 41.2101 69.3415 37.1629C69.6894 32.9006 66.5016 23.4465 66.47 23.3516C65.9007 19.5574 62.8078 17.0721 58.1969 16.5978C57.7478 16.5472 57.2861 16.5219 56.818 16.5219Z" fill="#040047"/>
<path d="M69.7779 35.8538C69.7779 35.8538 69.2024 34.1401 62.8774 35.2214C56.5524 36.3028 56.7674 43.2906 53.0104 40.1983C49.2533 37.1059 51.2647 31.6675 50.8788 26.6084C50.3792 20.1265 48.9813 20.2846 47.5962 20.9865C42.6943 23.3643 44.2566 33.5899 50.9231 42.6962C53.2823 45.9214 68.0006 51.929 69.955 43.1642C71.0493 38.3012 69.7779 35.8538 69.7779 35.8538Z" fill="#D1D3D4"/>
<path d="M63.4276 48.0462C58.3676 48.0462 52.1817 44.9538 50.67 42.8923C45.9516 36.442 43.5544 29.0178 44.6992 24.414C44.8507 23.6288 45.1773 22.8878 45.6547 22.2462C46.1322 21.6046 46.7482 21.0789 47.4569 20.7083C47.735 20.5263 48.0539 20.416 48.385 20.3873C48.7161 20.3586 49.0492 20.4124 49.3544 20.5439C50.3348 21.1067 50.8914 22.9722 51.1697 26.5894C51.2522 28.1176 51.2268 29.6496 51.0938 31.1742C50.8724 34.627 50.67 37.8901 53.1937 39.958C53.6193 40.3978 54.201 40.6522 54.8129 40.6663C55.5087 40.5967 56.0779 39.8631 56.8496 38.9399C58.0197 37.4791 59.6326 35.4871 62.8014 34.9306C68.9746 33.8492 69.9233 35.4301 70.0435 35.7274C70.1637 36.0246 71.3085 38.4719 70.2459 43.2401C70.0283 44.3994 69.4586 45.4635 68.6142 46.2873C67.7698 47.1111 66.692 47.6547 65.5275 47.8438C64.8361 47.9817 64.1326 48.0495 63.4276 48.0462ZM48.665 20.9865C48.3377 21.0149 48.0204 21.1142 47.7352 21.2774C47.1074 21.6046 46.5627 22.071 46.1428 22.6409C45.723 23.2109 45.439 23.8693 45.3128 24.5658C44.2059 28.9925 46.5778 36.2143 51.176 42.5191C52.7826 44.7135 60.3852 48.2738 65.4199 47.2241C66.4684 47.0667 67.4408 46.584 68.2001 45.8441C68.9593 45.1043 69.467 44.1448 69.6514 43.1009C70.7013 38.4023 69.5059 36.0183 69.4932 35.9993C69.4932 35.9424 68.69 34.5828 62.9405 35.5819C60.0057 36.0941 58.513 37.9091 57.3682 39.3762C56.5649 40.3754 55.8692 41.2734 54.9078 41.3366C54.5215 41.3443 54.1378 41.2731 53.7799 41.1274C53.4221 40.9817 53.0978 40.7645 52.8269 40.4892C50.0502 38.219 50.2969 34.7978 50.4993 31.1805C50.6257 29.6852 50.651 28.183 50.5752 26.6843C50.3222 23.4339 49.8162 21.5683 49.0698 21.1383C48.9536 21.0475 48.8123 20.9945 48.665 20.9865Z" fill="#040047"/>
<path d="M51.7896 33.0524C51.5777 32.5146 51.2612 32.0241 50.8584 31.6095C50.4556 31.1948 49.9745 30.8642 49.443 30.6367C49.0295 30.4267 48.5785 30.3007 48.1161 30.2659C47.6536 30.2312 47.1888 30.2884 46.7486 30.4343C45.3255 30.9529 44.9207 32.3315 45.2116 33.6848C45.3223 34.2614 45.5095 34.8208 45.7682 35.3479C46.0353 35.8721 46.4041 36.3378 46.8532 36.7178C47.3023 37.0978 47.8227 37.3845 48.3839 37.5611C48.9451 37.7377 49.5359 37.8007 50.1217 37.7465C50.7076 37.6922 51.2767 37.5218 51.7959 37.2451" fill="white"/>
<path d="M49.7024 38.0672C49.224 38.0679 48.7483 37.9954 48.2919 37.8522C47.6919 37.664 47.1353 37.3586 46.6543 36.9537C46.1733 36.5488 45.7776 36.0524 45.4899 35.4934C45.2173 34.9402 45.0195 34.3533 44.9017 33.748C44.5412 32.0469 45.2053 30.662 46.6411 30.1371C47.1208 29.9749 47.6282 29.9104 48.1334 29.9473C48.6385 29.9842 49.1311 30.1219 49.5822 30.3521C50.157 30.5931 50.6773 30.9474 51.112 31.394C51.5467 31.8406 51.8869 32.3702 52.1122 32.9512C52.1259 32.9906 52.1315 33.0324 52.1287 33.074C52.1259 33.1156 52.1147 33.1563 52.0958 33.1935C52.0769 33.2307 52.0507 33.2637 52.0187 33.2905C51.9868 33.3174 51.9497 33.3374 51.9098 33.3496C51.8704 33.3633 51.8286 33.369 51.7869 33.3662C51.7453 33.3634 51.7046 33.3522 51.6674 33.3333C51.6302 33.3144 51.5972 33.2881 51.5704 33.2562C51.5436 33.2242 51.5235 33.1872 51.5113 33.1472C51.3126 32.6515 51.0182 32.1998 50.6449 31.8179C50.2715 31.4359 49.8266 31.1313 49.3355 30.9213C48.9592 30.7293 48.5486 30.6136 48.1274 30.5811C47.7062 30.5485 47.2827 30.5997 46.8814 30.7315C45.7492 31.1426 45.2496 32.224 45.5468 33.6152C45.6503 34.1674 45.8268 34.7033 46.0718 35.2088C46.323 35.6924 46.6677 36.1215 47.0858 36.4711C47.5039 36.8208 47.9873 37.084 48.5078 37.2458C49.0283 37.4075 49.5758 37.4644 50.1184 37.4133C50.6611 37.3622 51.1883 37.204 51.6694 36.9479C51.7441 36.9084 51.8313 36.9003 51.912 36.9252C51.9926 36.9501 52.0601 37.006 52.0995 37.0807C52.1389 37.1553 52.1471 37.2425 52.1222 37.3232C52.0973 37.4038 52.0413 37.4713 51.9667 37.5107C51.2692 37.8797 50.4914 38.0708 49.7024 38.0672V38.0672Z" fill="#040047"/>
<path d="M66.6091 33.3559C66.4446 33.3559 66.2865 33.3559 66.1284 33.3559C64.7147 33.229 63.4091 32.5465 62.4984 31.458C61.5876 30.3696 61.1461 28.9643 61.2708 27.5507V27.5507C61.3616 26.5168 61.7512 25.5317 62.3921 24.7153C63.0331 23.8989 63.8977 23.2865 64.8806 22.9528C65.8635 22.6191 66.9222 22.5784 67.9279 22.8357C68.9335 23.093 69.8426 23.6372 70.5443 24.402C71.246 25.1668 71.7101 26.1191 71.88 27.1429C72.0499 28.1668 71.9183 29.2179 71.5012 30.1683C71.0841 31.1187 70.3996 31.9272 69.5309 32.4955C68.6623 33.0637 67.6471 33.367 66.6091 33.3686V33.3559ZM61.897 27.5886C61.7881 28.8344 62.1777 30.0724 62.9804 31.0315C63.7831 31.9905 64.9333 32.5921 66.179 32.7046C67.1086 32.7872 68.0418 32.5924 68.8607 32.1447C69.6795 31.6971 70.3472 31.0167 70.7793 30.1896C71.2113 29.3626 71.3884 28.426 71.288 27.4983C71.1877 26.5706 70.8145 25.6935 70.2155 24.978C69.6166 24.2624 68.8189 23.7404 67.9232 23.4782C67.0276 23.2159 66.0743 23.2251 65.1838 23.5045C64.2934 23.784 63.5059 24.3211 62.9208 25.0481C62.3357 25.7751 61.9794 26.6592 61.897 27.5886V27.5886Z" fill="#040047"/>
<path d="M56.059 33.8365H55.5783C54.8783 33.7753 54.1972 33.5767 53.5741 33.252C52.9509 32.9273 52.3979 32.4829 51.9467 31.9443C51.4955 31.4056 51.155 30.7833 50.9446 30.113C50.7343 29.4426 50.6582 28.7374 50.7207 28.0376H51.037H50.7207C50.8477 26.6254 51.5295 25.3211 52.6167 24.4107C53.704 23.5003 55.1079 23.058 56.5208 23.1809C57.884 23.3132 59.1446 23.963 60.0429 24.9966C60.9413 26.0302 61.4091 27.3689 61.3499 28.737C61.2907 30.1051 60.7091 31.3984 59.7249 32.3506C58.7406 33.3028 57.4286 33.8414 56.059 33.8555V33.8365ZM56.059 23.7753C54.833 23.7581 53.6486 24.2194 52.7573 25.0612C51.8659 25.9029 51.3378 27.0589 51.2851 28.2837C51.2324 29.5084 51.6593 30.7055 52.4751 31.6207C53.2909 32.5359 54.4313 33.0971 55.6542 33.1852C56.5839 33.2697 57.5177 33.0762 58.3372 32.6293C59.1566 32.1825 59.8249 31.5023 60.2572 30.6751C60.6895 29.848 60.8664 28.911 60.7653 27.9832C60.6642 27.0554 60.2898 26.1785 59.6896 25.4638C59.2935 24.9873 58.8065 24.5943 58.2571 24.3077C57.7076 24.0211 57.1067 23.8466 56.4891 23.7943C56.3247 23.7564 56.1855 23.7564 56.0401 23.7564L56.059 23.7753Z" fill="#040047"/>
<path d="M84.3697 93.4575C84.2917 93.4578 84.2164 93.4286 84.159 93.3759C84.1015 93.3231 84.0661 93.2507 84.0597 93.173L80.562 54.5976C80.5583 54.5561 80.5628 54.5143 80.5752 54.4745C80.5876 54.4347 80.6078 54.3977 80.6345 54.3657C80.6885 54.3011 80.7659 54.2605 80.8498 54.253C80.9337 54.2454 81.0171 54.2715 81.0818 54.3255C81.1464 54.3794 81.187 54.4569 81.1945 54.5407L84.6922 93.116C84.6993 93.1989 84.6734 93.2813 84.6201 93.3452C84.5668 93.4091 84.4904 93.4495 84.4076 93.4575H84.3697Z" fill="#040047"/>
<path d="M61.7578 34.9622C61.4808 34.9635 61.204 34.9466 60.9293 34.9116C60.8469 34.8976 60.7732 34.8522 60.7237 34.7849C60.6741 34.7177 60.6526 34.6339 60.6636 34.5511C60.6698 34.51 60.684 34.4705 60.7055 34.4349C60.727 34.3992 60.7553 34.3682 60.7888 34.3435C60.8222 34.3189 60.8603 34.301 60.9007 34.2911C60.9411 34.2811 60.983 34.2792 61.0241 34.2855C61.4922 34.3551 62.9216 34.4183 63.3264 33.8681C63.5794 33.5267 62.5611 31.6358 61.1506 29.8209C61.0996 29.7546 61.077 29.6708 61.0876 29.5878C61.0983 29.5048 61.1414 29.4295 61.2076 29.3782C61.2731 29.3265 61.3564 29.3028 61.4394 29.3123C61.5223 29.3218 61.5981 29.3637 61.6503 29.4288C62.5358 30.5671 64.5155 33.318 63.8388 34.2413C63.396 34.842 62.4599 34.9622 61.7578 34.9622Z" fill="#040047"/>
<path d="M57.2749 30.2841C57.6765 30.2748 57.9915 29.8115 57.9784 29.2494C57.9654 28.6872 57.6292 28.2391 57.2276 28.2484C56.826 28.2577 56.511 28.721 56.5241 29.2831C56.5371 29.8453 56.8733 30.2934 57.2749 30.2841Z" fill="#040047"/>
<path d="M64.4053 29.514C64.7863 29.3868 64.9508 28.8513 64.7726 28.3179C64.5944 27.7846 64.1411 27.4554 63.7601 27.5826C63.379 27.7099 63.2146 28.2454 63.3928 28.7787C63.5709 29.312 64.0243 29.6412 64.4053 29.514Z" fill="#040047"/>
<path d="M63.6743 41.6465C62.2185 41.618 60.813 41.1089 59.6769 40.1983C59.6458 40.1705 59.6204 40.1368 59.6023 40.0992C59.5842 40.0615 59.5736 40.0207 59.5713 39.979C59.5689 39.9373 59.5748 39.8956 59.5886 39.8562C59.6024 39.8168 59.6238 39.7804 59.6516 39.7493C59.6795 39.7182 59.7131 39.6928 59.7508 39.6747C59.7884 39.6566 59.8292 39.646 59.8709 39.6437C59.9126 39.6413 59.9544 39.6472 59.9938 39.661C60.0332 39.6748 60.0696 39.6962 60.1007 39.724C60.2525 39.8631 63.8198 42.9808 67.7476 39.1865C67.7765 39.157 67.8109 39.1336 67.8489 39.1177C67.887 39.1017 67.9278 39.0935 67.969 39.0935C68.0102 39.0935 68.0511 39.1017 68.0891 39.1177C68.1271 39.1336 68.1615 39.157 68.1904 39.1865C68.22 39.2159 68.2436 39.2508 68.2596 39.2894C68.2757 39.3279 68.2839 39.3692 68.2839 39.411C68.2839 39.4527 68.2757 39.494 68.2596 39.5326C68.2436 39.5711 68.22 39.6061 68.1904 39.6355C67.6081 40.2527 66.9092 40.7483 66.1339 41.0935C65.3587 41.4387 64.5227 41.6266 63.6743 41.6465V41.6465Z" fill="#040047"/>
<path d="M67.5641 94.8551C67.5641 94.8551 76.9251 93.6915 79.4108 94.2227C83.2812 95.2376 86.7051 97.5086 89.145 100.679C89.6336 101.263 89.9704 101.958 90.1254 102.703C90.1908 103.077 90.1426 103.461 89.987 103.808C89.8314 104.154 89.5755 104.445 89.2525 104.644C88.4113 105.055 87.4436 104.562 86.5644 104.271C84.5657 103.607 82.3962 103.999 80.309 104.271C79.4919 104.406 78.6613 104.44 77.8359 104.372C75.9384 104.151 74.3382 103.025 72.5988 102.292C69.4363 100.964 65.7868 101.065 62.4788 101.59" fill="white"/>
<path d="M88.5442 105.144C87.978 105.106 87.422 104.974 86.8997 104.752L86.4633 104.594C84.7302 104.018 82.8138 104.278 80.9606 104.524L80.3281 104.606C79.4919 104.742 78.6421 104.774 77.7981 104.701C76.4627 104.472 75.1781 104.01 74.0031 103.335C73.4971 103.082 72.9784 102.817 72.4597 102.602C69.8412 101.501 66.5902 101.274 62.5042 101.925C62.4214 101.936 62.3376 101.915 62.2703 101.865C62.2031 101.816 62.1577 101.742 62.1437 101.66C62.1374 101.618 62.1393 101.576 62.1492 101.536C62.1592 101.496 62.177 101.458 62.2017 101.424C62.2264 101.391 62.2574 101.362 62.293 101.341C62.3287 101.319 62.3682 101.305 62.4093 101.299C66.6091 100.635 69.9993 100.869 72.7064 102.02C73.244 102.248 73.7753 102.513 74.2877 102.766C75.3905 103.409 76.5981 103.852 77.855 104.075C78.6528 104.142 79.4558 104.11 80.2458 103.98L80.8783 103.898C82.7758 103.639 84.7935 103.373 86.6657 103.993L87.1211 104.157C87.8485 104.417 88.5379 104.67 89.1198 104.385C89.3852 104.218 89.5942 103.975 89.7194 103.687C89.8446 103.399 89.8803 103.081 89.8219 102.773C89.673 102.073 89.3537 101.421 88.8921 100.875C86.5024 97.765 83.1439 95.5398 79.3477 94.5515C76.9505 94.014 67.697 95.1523 67.6085 95.1839C67.5668 95.1901 67.5242 95.1877 67.4835 95.1769C67.4427 95.1661 67.4046 95.1471 67.3714 95.1211C67.3383 95.095 67.3108 95.0625 67.2906 95.0255C67.2705 94.9884 67.2581 94.9477 67.2543 94.9057C67.2435 94.8227 67.2661 94.7388 67.3171 94.6724C67.368 94.606 67.4433 94.5626 67.5262 94.5515C67.9121 94.5073 76.9758 93.388 79.4868 93.9192C83.4299 94.9529 86.9182 97.2661 89.4044 100.496C89.9252 101.122 90.2837 101.867 90.4481 102.665C90.5289 103.105 90.4713 103.56 90.2833 103.967C90.0953 104.373 89.7861 104.712 89.3981 104.935C89.1332 105.069 88.8411 105.141 88.5442 105.144V105.144Z" fill="#040047"/>
<path d="M25.5471 72.5383C25.5471 72.5383 15.288 103.063 20.3164 106.529C25.3447 109.994 65.5148 108.3 65.5148 108.3L68.0448 93.9002C68.0448 93.9002 40.3793 97.4542 41.0687 95.4053C41.7581 93.3564 45.1167 70.11 45.1167 70.11L25.5471 72.5383Z" fill="#FFE11B"/>
<path d="M142.237 105.808H77.4311C76.75 105.808 76.1978 106.36 76.1978 107.041V107.098C76.1978 107.779 76.75 108.331 77.4311 108.331H142.237C142.918 108.331 143.47 107.779 143.47 107.098V107.041C143.47 106.36 142.918 105.808 142.237 105.808Z" fill="#040047"/>
<path d="M142.231 108.641H77.4312C77.0118 108.641 76.6096 108.474 76.3131 108.178C76.0165 107.882 75.8499 107.479 75.8499 107.06C75.8499 106.641 76.0165 106.239 76.3131 105.942C76.6096 105.646 77.0118 105.479 77.4312 105.479H142.231C142.65 105.479 143.052 105.646 143.349 105.942C143.645 106.239 143.812 106.641 143.812 107.06C143.812 107.479 143.645 107.882 143.349 108.178C143.052 108.474 142.65 108.641 142.231 108.641V108.641ZM77.4312 106.112C77.1879 106.112 76.9547 106.208 76.7827 106.38C76.6107 106.552 76.514 106.785 76.514 107.028C76.509 107.153 76.5288 107.277 76.5725 107.393C76.6161 107.509 76.6827 107.616 76.7682 107.706C76.8537 107.796 76.9564 107.868 77.0703 107.918C77.1842 107.968 77.3069 107.994 77.4312 107.996H142.231C142.475 107.996 142.709 107.9 142.882 107.728C143.055 107.556 143.153 107.323 143.154 107.079C143.158 106.955 143.138 106.83 143.093 106.714C143.049 106.598 142.982 106.491 142.896 106.401C142.81 106.311 142.707 106.239 142.593 106.189C142.478 106.14 142.355 106.113 142.231 106.112H77.4312Z" fill="#040047"/>
<path d="M118.506 74.3849H158.151L142.288 107.035H102.643L118.506 74.3849Z" fill="#040047"/>
<path d="M142.288 107.351H102.643C102.59 107.351 102.538 107.338 102.491 107.312C102.445 107.287 102.406 107.25 102.377 107.206C102.352 107.159 102.339 107.107 102.339 107.054C102.339 107.001 102.352 106.949 102.377 106.902L118.24 74.2458C118.267 74.193 118.307 74.1486 118.358 74.1174C118.408 74.0861 118.466 74.0693 118.525 74.0687H158.17C158.223 74.0689 158.276 74.0829 158.323 74.1095C158.369 74.1361 158.408 74.1744 158.435 74.2205C158.46 74.2672 158.473 74.3193 158.473 74.3722C158.473 74.4252 158.46 74.4773 158.435 74.524L142.572 107.174C142.546 107.227 142.505 107.271 142.455 107.302C142.405 107.334 142.347 107.35 142.288 107.351V107.351ZM103.149 106.719H142.085L157.645 74.7011H118.708L103.149 106.719Z" fill="#040047"/>
<path d="M68.0512 94.2164L38.5071 92.0536C38.4617 92.0496 38.4178 92.0356 38.3784 92.0127C38.3391 91.9897 38.3053 91.9584 38.2794 91.9208C38.2515 91.8845 38.2325 91.8421 38.2237 91.7971C38.2149 91.7522 38.2167 91.7058 38.2288 91.6616L44.8194 65.2976C44.829 65.2575 44.8465 65.2197 44.8709 65.1865C44.8953 65.1533 44.926 65.1253 44.9614 65.1041C44.9967 65.0829 45.0359 65.0689 45.0767 65.0631C45.1175 65.0572 45.1591 65.0595 45.1989 65.0699C45.2395 65.0787 45.2778 65.0957 45.3115 65.1199C45.3452 65.144 45.3736 65.1748 45.3949 65.2104C45.4162 65.2459 45.43 65.2855 45.4355 65.3266C45.441 65.3677 45.438 65.4094 45.4266 65.4493L38.9309 91.4213L68.0765 93.5587C68.1603 93.5587 68.2408 93.592 68.3001 93.6513C68.3594 93.7106 68.3927 93.7911 68.3927 93.8749C68.3927 93.9588 68.3594 94.0392 68.3001 94.0985C68.2408 94.1578 68.1603 94.1911 68.0765 94.1911L68.0512 94.2164Z" fill="#040047"/>
<path d="M54.2373 108.616C54.1681 108.615 54.1009 108.592 54.046 108.55C53.9912 108.508 53.9517 108.449 53.9337 108.382C53.9222 108.342 53.9186 108.301 53.9232 108.26C53.9278 108.219 53.9405 108.18 53.9605 108.144C53.9805 108.108 54.0074 108.076 54.0398 108.051C54.0721 108.026 54.1092 108.007 54.1488 107.996C54.2373 107.996 62.4915 105.656 66.0714 103.942C66.147 103.908 66.2332 103.904 66.3113 103.933C66.3894 103.961 66.4532 104.019 66.4889 104.094C66.5071 104.131 66.5178 104.171 66.5203 104.212C66.5229 104.253 66.5172 104.294 66.5036 104.333C66.4901 104.372 66.469 104.408 66.4414 104.439C66.4139 104.469 66.3806 104.494 66.3434 104.512C62.7192 106.251 54.6611 108.508 54.3259 108.603L54.2373 108.616Z" fill="#040047"/>
<path d="M176.62 108.3H14.6935C12.9923 108.3 11.6133 109.678 11.6133 111.379V115.477C11.6133 117.178 12.9923 118.557 14.6935 118.557H176.62C178.321 118.557 179.7 117.178 179.7 115.477V111.379C179.7 109.678 178.321 108.3 176.62 108.3Z" fill="white"/>
<path d="M176.62 118.873H14.6998C14.2511 118.874 13.8067 118.786 13.3922 118.614C12.9777 118.442 12.6014 118.19 12.285 117.872C11.9686 117.554 11.7184 117.176 11.5488 116.761C11.3792 116.345 11.2936 115.9 11.297 115.452V111.348C11.297 110.449 11.6542 109.587 12.2899 108.951C12.9257 108.315 13.788 107.958 14.6872 107.958H176.607C177.506 107.958 178.369 108.315 179.004 108.951C179.64 109.587 179.997 110.449 179.997 111.348V115.452C180.001 115.898 179.916 116.341 179.748 116.755C179.58 117.168 179.332 117.545 179.018 117.863C178.704 118.18 178.331 118.433 177.92 118.607C177.508 118.78 177.066 118.871 176.62 118.873V118.873ZM14.6998 108.616C14.3377 108.616 13.9791 108.687 13.6445 108.826C13.3099 108.964 13.0059 109.167 12.7498 109.423C12.4938 109.679 12.2906 109.983 12.152 110.318C12.0134 110.652 11.9421 111.011 11.9421 111.373V115.452C11.9421 116.184 12.2325 116.886 12.7494 117.404C13.2664 117.922 13.9679 118.214 14.6998 118.215H176.62C177.352 118.214 178.053 117.922 178.57 117.404C179.087 116.886 179.377 116.184 179.377 115.452V111.348C179.376 110.617 179.085 109.917 178.568 109.4C178.051 108.883 177.351 108.592 176.62 108.59L14.6998 108.616Z" fill="#040047"/>
<path d="M180.997 33.7037C180.893 33.5646 180.756 33.4537 180.598 33.3812C180.429 33.2991 180.243 33.2559 180.054 33.2547C179.863 33.2516 179.674 33.295 179.504 33.3812C179.35 33.4652 179.216 33.5818 179.112 33.7227C179.006 33.8628 178.926 34.0215 178.878 34.1907C178.828 34.3633 178.802 34.5421 178.802 34.7219C178.801 34.9001 178.829 35.0774 178.884 35.2468C178.933 35.4188 179.015 35.5798 179.125 35.721C179.238 35.8688 179.385 35.9876 179.553 36.0678C179.721 36.148 179.906 36.1874 180.092 36.1827C180.276 36.1834 180.459 36.1491 180.63 36.0815C180.796 36.0196 180.942 35.9148 181.054 35.778L181.768 36.4989C181.567 36.7106 181.317 36.871 181.041 36.9668C180.736 37.0823 180.412 37.1402 180.086 37.1376C179.76 37.1385 179.437 37.0829 179.131 36.9732C178.837 36.8721 178.568 36.7105 178.34 36.4989C178.11 36.2873 177.929 36.0284 177.809 35.74C177.674 35.4178 177.607 35.0711 177.613 34.7219C177.606 34.3787 177.673 34.038 177.809 33.7227C177.929 33.4341 178.108 33.1735 178.334 32.9575C178.559 32.7476 178.823 32.5843 179.112 32.4769C179.413 32.3616 179.732 32.3036 180.054 32.3062C180.39 32.3055 180.723 32.3699 181.035 32.4959C181.323 32.6044 181.579 32.7825 181.781 33.0144L180.997 33.7037Z" fill="#D1D3D4"/>
<path d="M116.419 34.9559H114.274V34.2602L116.248 31.2754H117.19V34.2792H117.823V34.9559H117.19V35.9171H116.419V34.9559ZM116.419 32.1987L115.097 34.2792H116.431L116.419 32.1987Z" fill="#D1D3D4"/>
<path d="M121.447 31.9773H119.549L119.505 32.9828C119.592 32.9575 119.681 32.9406 119.771 32.9322H120.049C120.264 32.9324 120.477 32.9665 120.681 33.0334C120.868 33.0925 121.04 33.1894 121.187 33.318C121.334 33.4448 121.451 33.6025 121.529 33.7796C121.612 33.9799 121.653 34.1952 121.649 34.412C121.653 34.6485 121.608 34.8831 121.516 35.1013C121.429 35.2946 121.304 35.4687 121.15 35.6135C120.993 35.7545 120.81 35.864 120.612 35.936C120.409 36.0097 120.195 36.0482 119.979 36.0499C119.633 36.0593 119.291 35.9646 118.999 35.778C118.732 35.5957 118.529 35.3349 118.417 35.0317L119.132 34.7725C119.191 34.9496 119.304 35.1042 119.454 35.2151C119.614 35.325 119.804 35.3824 119.998 35.3795C120.113 35.3808 120.226 35.3615 120.334 35.3226C120.435 35.281 120.529 35.2233 120.612 35.1519C120.691 35.0721 120.753 34.9775 120.795 34.8736C120.845 34.7535 120.869 34.6242 120.865 34.4942C120.87 34.3418 120.839 34.1904 120.776 34.0515C120.719 33.9375 120.637 33.838 120.536 33.7607C120.437 33.6906 120.325 33.6412 120.207 33.6152C120.085 33.5849 119.96 33.57 119.834 33.5709H119.549C119.453 33.5838 119.358 33.6028 119.265 33.6279L118.986 33.7101L118.752 33.8049L118.828 31.2754H121.472L121.447 31.9773Z" fill="#D1D3D4"/>
<path d="M122.396 32.42C122.395 32.255 122.427 32.0916 122.49 31.9394C122.554 31.7966 122.641 31.6661 122.75 31.5536C122.863 31.4435 122.996 31.3555 123.142 31.2944C123.446 31.1713 123.786 31.1713 124.091 31.2944C124.233 31.3575 124.364 31.4453 124.477 31.5536C124.59 31.6672 124.68 31.8024 124.741 31.9511C124.802 32.0999 124.832 32.2593 124.831 32.42C124.832 32.583 124.8 32.7445 124.736 32.8943C124.614 33.1782 124.387 33.4045 124.103 33.5267C123.878 33.6163 123.633 33.6395 123.395 33.5935C123.157 33.5475 122.938 33.4344 122.762 33.2674C122.654 33.155 122.566 33.0244 122.503 32.8816C122.436 32.7366 122.4 32.5796 122.396 32.42ZM124.205 32.42C124.203 32.2857 124.155 32.1559 124.069 32.0528C123.983 31.9497 123.864 31.8795 123.732 31.8542C123.6 31.8289 123.464 31.8501 123.345 31.9141C123.227 31.9781 123.135 32.081 123.084 32.2053C123.033 32.3297 123.027 32.4678 123.066 32.5962C123.106 32.7246 123.188 32.8355 123.3 32.9099C123.412 32.9844 123.546 33.0178 123.68 33.0046C123.814 32.9914 123.939 32.9323 124.034 32.8374C124.089 32.7831 124.133 32.7181 124.162 32.6463C124.192 32.5745 124.206 32.4975 124.205 32.42V32.42ZM126.267 31.0667L126.817 31.3196L124.084 36.1258L123.54 35.8791L126.267 31.0667ZM125.526 34.7788C125.525 34.6158 125.557 34.4543 125.621 34.3045C125.683 34.1574 125.773 34.0241 125.887 33.9124C125.998 33.8029 126.129 33.715 126.273 33.6531C126.577 33.5301 126.917 33.5301 127.222 33.6531C127.365 33.715 127.496 33.8029 127.607 33.9124C127.721 34.0241 127.812 34.1574 127.873 34.3045C127.996 34.6087 127.996 34.9489 127.873 35.2531C127.809 35.3971 127.719 35.5279 127.607 35.6388C127.498 35.7506 127.366 35.8388 127.222 35.8981C127.071 35.9607 126.91 35.993 126.747 35.993C126.584 35.993 126.423 35.9607 126.273 35.8981C126.128 35.8388 125.997 35.7506 125.887 35.6388C125.775 35.5279 125.685 35.3971 125.621 35.2531C125.557 35.1033 125.525 34.9417 125.526 34.7788V34.7788ZM127.335 34.7788C127.338 34.7002 127.324 34.622 127.294 34.5491C127.265 34.4761 127.221 34.4101 127.165 34.3551C127.111 34.2991 127.046 34.2549 126.974 34.2255C126.902 34.1961 126.825 34.1821 126.747 34.1843C126.664 34.1758 126.581 34.1847 126.502 34.2105C126.422 34.2363 126.35 34.2784 126.288 34.3342C126.226 34.3899 126.177 34.458 126.143 34.534C126.109 34.6101 126.091 34.6924 126.091 34.7756C126.091 34.8588 126.109 34.9411 126.143 35.0172C126.177 35.0932 126.226 35.1613 126.288 35.2171C126.35 35.2728 126.422 35.3149 126.502 35.3408C126.581 35.3666 126.664 35.3755 126.747 35.3669C126.825 35.3691 126.902 35.3551 126.974 35.3257C127.046 35.2963 127.111 35.2522 127.165 35.1962C127.22 35.1419 127.264 35.0769 127.293 35.0051C127.323 34.9333 127.337 34.8563 127.335 34.7788V34.7788Z" fill="#D1D3D4"/>
<path d="M167.784 62.6036V65.8098H167.815C167.88 65.7255 167.952 65.6472 168.03 65.5758C168.13 65.4869 168.238 65.4085 168.353 65.3418C168.488 65.2666 168.633 65.2092 168.783 65.1711C168.966 65.1177 169.156 65.0921 169.346 65.0952C169.646 65.0952 169.943 65.157 170.219 65.2767C170.494 65.3963 170.742 65.5713 170.946 65.7908C171.147 66.0131 171.302 66.2732 171.402 66.556C171.51 66.856 171.563 67.173 171.56 67.4919C171.562 67.8144 171.511 68.135 171.408 68.4405C171.307 68.723 171.155 68.9845 170.959 69.212C170.755 69.4458 170.502 69.6312 170.217 69.7549C169.933 69.8785 169.624 69.9371 169.314 69.9266C169.001 69.929 168.691 69.8575 168.41 69.7179C168.13 69.5793 167.898 69.3587 167.746 69.0855V69.7685H166.664V62.6036H167.784ZM170.402 67.4919C170.403 67.3137 170.375 67.1366 170.32 66.9671C170.27 66.7956 170.188 66.6348 170.08 66.4928C169.968 66.3532 169.828 66.239 169.669 66.1576C169.488 66.0697 169.288 66.0264 169.087 66.0311C168.893 66.0278 168.702 66.0735 168.53 66.1639C168.368 66.249 168.224 66.365 168.106 66.5054C167.987 66.6438 167.896 66.8052 167.841 66.9797C167.779 67.15 167.747 67.3297 167.746 67.5109C167.746 67.6922 167.778 67.872 167.841 68.0421C167.896 68.2147 167.987 68.3739 168.106 68.5101C168.224 68.6504 168.368 68.7664 168.53 68.8515C168.708 68.9368 168.902 68.9811 169.099 68.9811C169.296 68.9811 169.491 68.9368 169.669 68.8515C169.828 68.7683 169.969 68.6519 170.08 68.5101C170.189 68.3688 170.271 68.2078 170.32 68.0358C170.376 67.86 170.404 67.6764 170.402 67.4919V67.4919Z" fill="#D1D3D4"/>
<path d="M167.784 62.6036V65.8098H167.815C167.88 65.7255 167.952 65.6472 168.03 65.5758C168.13 65.4869 168.238 65.4085 168.353 65.3418C168.488 65.2666 168.633 65.2092 168.783 65.1711C168.966 65.1177 169.156 65.0921 169.346 65.0952C169.646 65.0952 169.943 65.157 170.219 65.2767C170.494 65.3963 170.742 65.5713 170.946 65.7908C171.147 66.0131 171.302 66.2732 171.402 66.556C171.51 66.856 171.563 67.173 171.56 67.4919C171.562 67.8144 171.511 68.135 171.408 68.4405C171.307 68.723 171.155 68.9845 170.959 69.212C170.755 69.4458 170.502 69.6312 170.217 69.7549C169.933 69.8785 169.624 69.9371 169.314 69.9266C169.001 69.929 168.691 69.8575 168.41 69.7179C168.13 69.5793 167.898 69.3587 167.746 69.0855V69.7685H166.664V62.6036H167.784ZM170.402 67.4919C170.403 67.3137 170.375 67.1366 170.32 66.9671C170.27 66.7956 170.188 66.6348 170.08 66.4928C169.968 66.3532 169.828 66.239 169.669 66.1576C169.488 66.0697 169.288 66.0264 169.087 66.0311C168.893 66.0278 168.702 66.0735 168.53 66.1639C168.368 66.249 168.224 66.365 168.106 66.5054C167.987 66.6438 167.896 66.8052 167.841 66.9797C167.779 67.15 167.747 67.3297 167.746 67.5109C167.746 67.6922 167.778 67.872 167.841 68.0421C167.896 68.2147 167.987 68.3739 168.106 68.5101C168.224 68.6504 168.368 68.7664 168.53 68.8515C168.708 68.9368 168.902 68.9811 169.099 68.9811C169.296 68.9811 169.491 68.9368 169.669 68.8515C169.828 68.7683 169.969 68.6519 170.08 68.5101C170.189 68.3688 170.271 68.2078 170.32 68.0358C170.376 67.86 170.404 67.6764 170.402 67.4919V67.4919Z" fill="#D1D3D4"/>
<path d="M130.631 41.7856H97.6395C97.5745 41.7856 97.5111 41.7655 97.4579 41.7282C97.4047 41.6908 97.3643 41.638 97.3422 41.5769C97.3218 41.5145 97.3205 41.4474 97.3386 41.3843C97.3566 41.3212 97.3931 41.265 97.4434 41.2228L130.435 15.3899C130.466 15.3599 130.504 15.3368 130.545 15.3221C130.587 15.3074 130.631 15.3014 130.674 15.3045C130.718 15.3076 130.76 15.3198 130.799 15.3402C130.838 15.3606 130.872 15.3889 130.899 15.4231C130.927 15.4574 130.946 15.497 130.958 15.5393C130.969 15.5817 130.971 15.6258 130.964 15.6691C130.957 15.7123 130.942 15.7537 130.918 15.7906C130.894 15.8274 130.863 15.859 130.827 15.8832L98.5693 41.1785H130.643C130.727 41.1801 130.806 41.2139 130.865 41.2729C130.924 41.3318 130.958 41.4113 130.96 41.4947C130.953 41.5763 130.915 41.6523 130.854 41.7065C130.793 41.7608 130.713 41.7891 130.631 41.7856Z" fill="#D1D3D4"/>
<path d="M109.834 44.3214C109.774 44.3203 109.715 44.3028 109.663 44.2708C109.593 44.2254 109.544 44.1545 109.525 44.0731C109.506 43.9917 109.519 43.9062 109.562 43.8345C109.606 43.7713 113.636 37.0617 105.242 28.0249C105.184 27.9648 105.151 27.8843 105.151 27.8004C105.151 27.7166 105.184 27.6361 105.242 27.576C105.272 27.5463 105.307 27.5228 105.345 27.5067C105.384 27.4907 105.425 27.4824 105.467 27.4824C105.509 27.4824 105.55 27.4907 105.588 27.5067C105.627 27.5228 105.662 27.5463 105.691 27.576C110.239 32.4643 111.2 36.6886 111.207 39.3699C111.254 41.0283 110.866 42.6702 110.081 44.1317C110.06 44.1819 110.026 44.2258 109.982 44.259C109.939 44.2923 109.888 44.3138 109.834 44.3214Z" fill="#D1D3D4"/>
<path d="M192.565 88.0823H174.52C174.436 88.0823 174.356 88.049 174.296 87.9897C174.237 87.9304 174.204 87.8499 174.204 87.7661V80.285C174.204 80.2011 174.237 80.1207 174.296 80.0614C174.356 80.0021 174.436 79.9688 174.52 79.9688H192.565C192.649 79.9688 192.729 80.0021 192.789 80.0614C192.848 80.1207 192.881 80.2011 192.881 80.285V87.7661C192.881 87.8499 192.848 87.9304 192.789 87.9897C192.729 88.049 192.649 88.0823 192.565 88.0823ZM174.855 87.4499H192.249V80.6012H174.836L174.855 87.4499Z" fill="#D1D3D4"/>
<path d="M192.559 84.0287H174.52V87.7724H192.559V84.0287Z" fill="#D1D3D4"/>
<path d="M192.565 88.0823H174.52C174.436 88.0823 174.356 88.049 174.296 87.9897C174.237 87.9304 174.204 87.85 174.204 87.7661V84.0287C174.204 83.9449 174.237 83.8644 174.296 83.8051C174.356 83.7458 174.436 83.7125 174.52 83.7125H192.565C192.649 83.7125 192.729 83.7458 192.789 83.8051C192.848 83.8644 192.881 83.9449 192.881 84.0287V87.7661C192.881 87.85 192.848 87.9304 192.789 87.9897C192.729 88.049 192.649 88.0823 192.565 88.0823ZM174.855 87.4499H192.249V84.3449H174.836L174.855 87.4499Z" fill="#D1D3D4"/>
</svg>
