<svg width="212" height="120" viewBox="0 0 212 120" fill="none" xmlns="http://www.w3.org/2000/svg">
<path d="M167.8 55.3206L170.347 49.2065C170.347 49.2065 170.236 41.3086 171.262 40.7369C171.443 40.6347 171.645 40.577 171.853 40.5688C172.061 40.5605 172.268 40.6019 172.456 40.6895C172.645 40.7771 172.809 40.9083 172.936 41.0722C173.064 41.2361 173.149 41.4279 173.187 41.6315C173.341 42.2297 173.564 45.4323 173.564 45.4323C173.564 45.4323 178.728 36.9362 179.552 36.8621C180.376 36.788 181.275 36.788 181.147 37.7567C181.147 37.7567 182.492 37.2273 183.019 38.4289C183.019 38.4289 184.588 37.8308 184.891 39.2494C184.891 39.2494 185.789 38.7995 185.954 39.9958C186.119 41.1922 178.26 58.2108 178.26 58.2108" fill="white"/>
<path d="M178.201 58.4596C178.163 58.4584 178.125 58.4494 178.09 58.4332C178.023 58.4022 177.972 58.3463 177.947 58.2779C177.922 58.2094 177.926 58.1339 177.957 58.0679C180.956 51.5516 185.694 40.8799 185.619 40.0011C185.619 39.8 185.529 39.5353 185.369 39.4718C185.241 39.4203 185.098 39.4203 184.97 39.4718C184.932 39.4901 184.89 39.4996 184.848 39.4996C184.806 39.4996 184.764 39.4901 184.726 39.4718C184.689 39.4539 184.656 39.428 184.63 39.3959C184.605 39.3639 184.586 39.3265 184.577 39.2865C184.561 39.159 184.516 39.0368 184.446 38.9287C184.376 38.8206 184.283 38.7295 184.173 38.6619C183.818 38.5319 183.427 38.5319 183.072 38.6619C183.006 38.6871 182.933 38.6863 182.868 38.6597C182.803 38.6332 182.75 38.5828 182.721 38.519C182.322 37.5979 181.317 37.9473 181.2 37.9896C181.156 38.0072 181.107 38.0126 181.059 38.0053C181.012 37.998 180.967 37.9783 180.93 37.9481C180.892 37.9179 180.864 37.8784 180.847 37.8336C180.83 37.7888 180.825 37.7404 180.833 37.6932C180.853 37.6197 180.856 37.543 180.844 37.4681C180.831 37.3932 180.802 37.3219 180.759 37.2591C180.541 37.0262 179.85 37.0897 179.557 37.1162C179.025 37.3226 176.196 41.5733 173.777 45.554C173.747 45.6037 173.702 45.6427 173.649 45.6655C173.595 45.6883 173.536 45.6938 173.479 45.6811C173.422 45.6662 173.372 45.6344 173.334 45.5899C173.296 45.5454 173.272 45.4904 173.266 45.4323C173.208 44.5483 173.022 42.1503 172.9 41.6792C172.852 41.5026 172.767 41.3382 172.65 41.1967C172.534 41.0553 172.389 40.9401 172.224 40.8587C172.086 40.8047 171.937 40.7852 171.79 40.8018C171.642 40.8184 171.501 40.8707 171.379 40.954C170.847 41.2716 170.549 45.4852 170.597 49.2119C170.605 49.2467 170.605 49.2829 170.597 49.3177L168.055 55.4317C168.026 55.4982 167.972 55.5504 167.904 55.5772C167.836 55.604 167.761 55.6031 167.694 55.5747C167.66 55.5613 167.63 55.5415 167.604 55.5164C167.579 55.4912 167.559 55.4613 167.545 55.4283C167.531 55.3953 167.524 55.3599 167.524 55.3242C167.524 55.2884 167.531 55.253 167.545 55.22L170.071 49.1589C170.044 47.2056 170.071 41.1022 171.134 40.4829C171.329 40.3552 171.553 40.2768 171.786 40.2547C172.018 40.2326 172.253 40.2673 172.469 40.3558C172.712 40.4703 172.928 40.6361 173.1 40.8418C173.273 41.0474 173.399 41.288 173.469 41.5469C173.57 41.965 173.708 43.5425 173.782 44.543C175.776 41.3033 178.76 36.6398 179.536 36.571C180.142 36.518 180.817 36.4916 181.19 36.8833C181.317 37.0209 181.397 37.1951 181.418 37.3809C181.744 37.3026 182.086 37.3285 182.397 37.4549C182.707 37.5812 182.969 37.8017 183.147 38.0849C183.585 37.9557 184.057 37.9915 184.471 38.1855C184.748 38.3405 184.96 38.5907 185.066 38.8895C185.267 38.8496 185.475 38.8795 185.656 38.9742C185.818 39.0791 185.95 39.2219 186.043 39.3899C186.136 39.5579 186.186 39.746 186.188 39.9376C186.337 41.1498 179.807 55.4476 178.472 58.3008C178.449 58.3521 178.411 58.3949 178.362 58.4234C178.314 58.4518 178.257 58.4645 178.201 58.4596Z" fill="#040047"/>
<path d="M162.28 60.1376L165.077 53.4519L180.206 57.8508L176.452 65.6482L162.28 60.1376Z" fill="#040047"/>
<path d="M176.452 65.9129C176.42 65.9179 176.388 65.9179 176.356 65.9129L162.185 60.4023C162.152 60.3896 162.121 60.3704 162.096 60.3459C162.07 60.3213 162.05 60.2919 162.036 60.2594C162.01 60.1931 162.01 60.1193 162.036 60.053L164.833 53.362C164.858 53.3032 164.904 53.2556 164.961 53.2282C165.019 53.2009 165.085 53.1957 165.147 53.2137L180.28 57.6179C180.317 57.6285 180.35 57.6467 180.379 57.6714C180.407 57.696 180.43 57.7266 180.445 57.7609C180.461 57.7958 180.469 57.8337 180.469 57.872C180.469 57.9104 180.461 57.9483 180.445 57.9832L176.691 65.7805C176.668 65.823 176.633 65.8579 176.591 65.8813C176.548 65.9048 176.5 65.9157 176.452 65.9129ZM162.626 59.9947L176.308 65.3147L179.823 58.0203L165.216 53.7854L162.626 59.9947Z" fill="#040047"/>
<path d="M135.437 68.5649L148.731 75.51L161.951 55.3206C161.951 55.3206 181.711 61.461 181.413 62.3239C181.115 63.1867 163.445 104.031 151.47 100.035C139.495 96.0382 128.982 92.878 128.982 92.878L135.437 68.5649Z" fill="#FFE11B"/>
<path d="M176.18 51.4351C176.14 51.4454 176.098 51.4454 176.058 51.4351C175.993 51.4031 175.943 51.3469 175.919 51.2785C175.895 51.2102 175.899 51.1352 175.931 51.0698C176.142 50.6838 176.272 50.259 176.313 49.8213C176.354 49.3835 176.306 48.942 176.17 48.5237C175.558 46.7292 173.442 45.6705 173.421 45.6599C173.36 45.6247 173.315 45.5681 173.295 45.5013C173.275 45.4345 173.281 45.3626 173.312 45.3001C173.343 45.2376 173.397 45.1891 173.462 45.1645C173.528 45.1399 173.6 45.141 173.665 45.1676C173.761 45.2152 176.01 46.3375 176.691 48.3437C176.85 48.83 176.909 49.3435 176.863 49.853C176.818 50.3626 176.669 50.8576 176.425 51.3081C176.399 51.3491 176.363 51.3825 176.32 51.4049C176.277 51.4272 176.229 51.4376 176.18 51.4351Z" fill="#040047"/>
<path d="M43.3692 54.7911L40.8221 48.6771C40.8221 48.6771 40.9337 40.7792 39.9075 40.2075C39.7266 40.1053 39.5238 40.0476 39.316 40.0394C39.1082 40.0311 38.9014 40.0725 38.713 40.1601C38.5245 40.2477 38.3599 40.3789 38.2328 40.5428C38.1057 40.7066 38.0199 40.8984 37.9825 41.1021C37.8283 41.7003 37.605 44.9028 37.605 44.9028C37.605 44.9028 32.4416 36.4068 31.6174 36.3327C30.7932 36.2585 29.8945 36.2585 30.0221 37.2273C30.0221 37.2273 28.6768 36.6979 28.1503 37.8995C28.1503 37.8995 26.5551 37.3014 26.2786 38.72C26.2786 38.72 25.3799 38.2701 25.215 39.4664C25.0502 40.6627 33.3137 59.0524 33.3137 59.0524" fill="white"/>
<path d="M33.3722 59.2959C33.3193 59.2947 33.2678 59.2787 33.2236 59.2496C33.1794 59.2206 33.1443 59.1798 33.1223 59.1318C31.7397 56.051 24.8535 40.6045 25.0024 39.4029C25.0049 39.2112 25.0548 39.0231 25.1475 38.8551C25.2402 38.6872 25.373 38.5444 25.5341 38.4395C25.7153 38.3448 25.9237 38.3149 26.1244 38.3548C26.2376 38.0622 26.4528 37.8198 26.7306 37.6719C27.1446 37.478 27.6158 37.4422 28.0547 37.5713C28.2319 37.2881 28.4942 37.0677 28.8045 36.9413C29.1147 36.8149 29.457 36.789 29.7829 36.8673C29.8043 36.6815 29.8844 36.5073 30.0115 36.3697C30.3837 35.978 31.075 36.0045 31.6653 36.0574C32.4416 36.1262 35.4248 40.7898 37.4189 44.0294C37.4933 43.029 37.6316 41.4515 37.7379 41.0333C37.8059 40.7744 37.9302 40.5335 38.102 40.3277C38.2739 40.1218 38.489 39.9561 38.7323 39.8423C38.9487 39.7551 39.1829 39.7211 39.4153 39.7432C39.6476 39.7653 39.8712 39.8429 40.067 39.9693C41.1305 40.5886 41.1305 46.6921 41.1305 48.6454L43.6564 54.7064C43.6702 54.7394 43.6774 54.7748 43.6774 54.8106C43.6774 54.8464 43.6703 54.8818 43.6564 54.9148C43.6426 54.9478 43.6223 54.9777 43.5967 55.0028C43.5711 55.0279 43.5408 55.0478 43.5075 55.0611C43.4405 55.0895 43.3649 55.0904 43.2972 55.0637C43.2295 55.0369 43.1751 54.9846 43.1459 54.9182L40.5935 48.7883C40.5855 48.7535 40.5855 48.7173 40.5935 48.6824C40.6413 44.977 40.3595 40.7422 39.8118 40.4245C39.6893 40.3412 39.5483 40.289 39.4009 40.2724C39.2536 40.2558 39.1043 40.2753 38.9663 40.3293C38.8018 40.4106 38.6565 40.5259 38.5401 40.6673C38.4237 40.8088 38.3388 40.9732 38.291 41.1498C38.1687 41.6209 37.9825 44.0188 37.924 44.9029C37.9184 44.961 37.8949 45.016 37.8569 45.0605C37.8189 45.105 37.7681 45.1368 37.7113 45.1517C37.6546 45.1643 37.5953 45.1589 37.5418 45.1361C37.4883 45.1133 37.4435 45.0743 37.4136 45.0246C34.9941 41.0439 32.1598 36.7932 31.6121 36.5815C31.3409 36.5815 30.6496 36.4968 30.4316 36.7297C30.3879 36.7931 30.3585 36.8653 30.3457 36.9412C30.3328 37.0171 30.3367 37.0948 30.3572 37.169C30.3653 37.2153 30.3607 37.2628 30.3438 37.3066C30.327 37.3504 30.2985 37.3889 30.2614 37.4178C30.2244 37.4488 30.1796 37.4691 30.1318 37.4765C30.084 37.484 30.035 37.4783 29.9902 37.4602C29.8733 37.4178 28.8682 37.0685 28.4694 37.9895C28.4402 38.0534 28.3877 38.1038 28.3224 38.1303C28.2572 38.1569 28.1842 38.1576 28.1185 38.1325C27.7616 38.0012 27.3693 38.0012 27.0124 38.1325C26.9034 38.1992 26.811 38.2895 26.7419 38.3968C26.6729 38.504 26.629 38.6254 26.6136 38.7518C26.6042 38.7918 26.586 38.8292 26.5602 38.8612C26.5345 38.8933 26.5018 38.9192 26.4647 38.9371C26.4266 38.9554 26.3848 38.9649 26.3424 38.9649C26.3001 38.9649 26.2583 38.9554 26.2201 38.9371C26.0922 38.8856 25.9492 38.8856 25.8213 38.9371C25.6564 39.0271 25.5926 39.2864 25.566 39.4664C25.5075 40.3663 30.4901 51.8691 33.6434 58.9042C33.6584 58.9368 33.6668 58.9721 33.6679 59.0079C33.6691 59.0438 33.663 59.0795 33.6502 59.1131C33.6373 59.1466 33.6178 59.1772 33.5929 59.2031C33.568 59.2291 33.5382 59.2498 33.5052 59.2641C33.4641 59.2852 33.4185 59.2961 33.3722 59.2959Z" fill="#040047"/>
<path d="M48.8888 59.6083L46.0971 52.9225L30.9633 57.3215L34.7175 65.1188L48.8888 59.6083Z" fill="#040047"/>
<path d="M34.7176 65.3835C34.6675 65.3849 34.6181 65.3716 34.5755 65.3452C34.533 65.3189 34.4992 65.2806 34.4783 65.2353L30.7241 57.4379C30.7082 57.403 30.7 57.3651 30.7 57.3268C30.7 57.2884 30.7082 57.2505 30.7241 57.2156C30.7395 57.1813 30.7623 57.1508 30.7907 57.1261C30.8192 57.1014 30.8527 57.0832 30.8889 57.0727L46.028 52.6685C46.0895 52.6504 46.1555 52.6556 46.2133 52.6829C46.2712 52.7103 46.3169 52.7579 46.3418 52.8167L49.1388 59.5077C49.1652 59.574 49.1652 59.6478 49.1388 59.7141C49.1248 59.7466 49.1045 59.776 49.0789 59.8006C49.0533 59.8251 49.0231 59.8443 48.9899 59.8571L34.8133 65.3676C34.7825 65.378 34.7501 65.3833 34.7176 65.3835ZM31.3356 57.4908L34.8612 64.7853L48.5539 59.4653L45.9536 53.2402L31.3356 57.4908Z" fill="#040047"/>
<path d="M99.076 22.9296C99.076 22.9296 95.3802 19.15 91.19 22.9296C86.9998 26.7091 85.798 31.8491 83.3041 32.2673C83.3041 32.2673 84.5431 33.2625 87.4677 31.3727C87.4677 31.3727 88.2919 34.8135 85.1971 36.5233C85.1971 36.5233 88.1962 36.1422 88.7918 35.941C89.3874 35.7399 86.5956 39.6465 84.6016 40.1388C82.6075 40.6311 87.6964 43.389 91.19 43.2408C94.6836 43.0925 101.235 32.4632 100.852 28.673C100.469 24.8829 99.076 22.9296 99.076 22.9296Z" fill="white"/>
<path d="M90.9295 43.5213C88.0473 43.5213 84.0166 41.7162 83.8837 40.5887C83.8571 40.4246 83.8837 40.0275 84.5377 39.874C85.9575 39.5352 87.8719 37.2273 88.4355 36.3115C87.4145 36.5127 85.3354 36.7773 85.245 36.7932C85.1815 36.8014 85.1171 36.7875 85.0628 36.7537C85.0084 36.7199 84.9676 36.6684 84.9472 36.6079C84.9287 36.5469 84.9311 36.4814 84.9543 36.422C84.9774 36.3625 85.0198 36.3124 85.0748 36.2797C85.8563 35.8512 86.4864 35.1935 86.8793 34.3961C87.2722 33.5987 87.409 32.7001 87.271 31.8226C84.4633 33.4954 83.1977 32.5213 83.1392 32.479C83.0995 32.4452 83.07 32.401 83.0541 32.3515C83.0381 32.3019 83.0363 32.249 83.0488 32.1984C83.0613 32.1464 83.0893 32.0993 83.1291 32.0633C83.169 32.0274 83.2189 32.0044 83.2722 31.9973C84.458 31.8067 85.3992 30.3192 86.5637 28.4401C87.7687 26.3347 89.2671 24.4099 91.0145 22.7231C95.3537 18.8165 99.2408 22.6966 99.2833 22.7231L99.3099 22.7548C99.3684 22.8395 100.751 24.8722 101.139 28.6465C101.416 31.3885 98.3262 37.222 95.3802 40.6045C94.2582 41.8909 92.6258 43.4419 91.2113 43.5001L90.9295 43.5213ZM88.829 35.6604C88.9097 35.6606 88.9875 35.6908 89.047 35.7451C89.0967 35.7925 89.1312 35.8535 89.1463 35.9203C89.1615 35.9871 89.1565 36.0569 89.1321 36.1209C88.9247 36.8938 86.4733 39.9693 84.6654 40.4034C84.4633 40.451 84.4261 40.5093 84.4261 40.5093C84.4261 40.5093 84.4261 40.6151 84.5856 40.7633C85.4683 41.7056 88.7705 43.0713 91.1794 42.9707C92.1259 42.9284 93.4659 41.9703 94.9548 40.2658C98.0816 36.6715 100.804 31.0603 100.581 28.7153C100.441 26.7383 99.8535 24.8183 98.8632 23.0989C98.5655 22.8078 95.2154 19.6687 91.3708 23.1307C89.4086 24.8934 88.0846 27.0214 87.0157 28.7259C86.016 30.314 85.1865 31.6585 84.1602 32.2461C84.7664 32.2884 85.7927 32.1243 87.3188 31.145C87.3576 31.1255 87.4004 31.1153 87.4438 31.1153C87.4872 31.1153 87.53 31.1255 87.5688 31.145C87.6092 31.1618 87.6452 31.1878 87.6738 31.2209C87.7024 31.254 87.7229 31.2933 87.7336 31.3356C87.7336 31.3674 88.3983 34.2364 86.2713 36.0998C87.0895 36.003 87.9024 35.8652 88.7067 35.6869C88.7456 35.671 88.787 35.6621 88.829 35.6604Z" fill="#040047"/>
<path d="M115.374 22.9296C115.374 22.9296 119.065 19.15 123.26 22.9296C127.456 26.7091 128.647 31.8703 131.146 32.2673C131.146 32.2673 129.907 33.2625 126.982 31.3727C126.982 31.3727 126.153 34.8135 129.248 36.5233C129.248 36.5233 126.254 36.1422 125.653 35.941C125.052 35.7399 127.849 39.6465 129.849 40.1388C131.848 40.6311 126.754 43.389 123.26 43.2408C119.767 43.0925 113.21 32.4632 113.593 28.673C113.976 24.8829 115.374 22.9296 115.374 22.9296Z" fill="white"/>
<path d="M123.515 43.5213H123.25C121.835 43.4631 120.203 41.9332 119.081 40.6257C116.129 37.2379 113.029 31.4044 113.322 28.673C113.705 24.8722 115.092 22.8501 115.151 22.7813V22.7495C115.188 22.7072 119.075 18.8271 123.414 22.7495C125.18 24.4236 126.696 26.3397 127.918 28.4401C129.094 30.3193 130.019 31.8067 131.21 31.9973C131.262 32.0064 131.311 32.0301 131.351 32.0657C131.39 32.1013 131.419 32.1473 131.433 32.1985C131.446 32.2494 131.443 32.3029 131.427 32.3527C131.41 32.4024 131.379 32.4462 131.338 32.479C131.284 32.5214 130.013 33.4901 127.206 31.8226C127.069 32.7 127.207 33.598 127.6 34.3951C127.992 35.1922 128.621 35.8501 129.402 36.2798C129.458 36.311 129.502 36.361 129.525 36.4209C129.549 36.4808 129.55 36.547 129.53 36.608C129.508 36.6678 129.467 36.7187 129.413 36.7524C129.359 36.7861 129.295 36.8004 129.232 36.7932C129.131 36.7932 127.052 36.5127 126.041 36.3115C126.61 37.2379 128.525 39.5353 129.944 39.8741C130.604 40.0276 130.62 40.4034 130.598 40.5887C130.407 41.7162 126.403 43.5213 123.515 43.5213ZM115.587 23.0989C114.592 24.8169 114.003 26.7374 113.864 28.7153C113.63 31.0604 116.363 36.6556 119.495 40.2658C120.979 41.9703 122.319 42.9125 123.271 42.9708C125.68 43.0713 128.982 41.7056 129.859 40.7634C129.939 40.695 129.996 40.6047 130.024 40.504C129.954 40.4513 129.872 40.4167 129.785 40.4034C127.956 39.9693 125.531 36.8938 125.318 36.121C125.294 36.0572 125.289 35.9881 125.303 35.9216C125.317 35.855 125.35 35.7939 125.398 35.7451C125.444 35.7047 125.501 35.6775 125.562 35.6664C125.623 35.6552 125.685 35.6604 125.743 35.6816C126.547 35.8659 127.36 36.0055 128.179 36.0998C126.052 34.21 126.706 31.3356 126.717 31.3356C126.726 31.2925 126.745 31.2525 126.774 31.2191C126.803 31.1858 126.84 31.1603 126.881 31.1451C126.92 31.1255 126.963 31.1153 127.006 31.1153C127.05 31.1153 127.093 31.1255 127.131 31.1451C128.652 32.1244 129.678 32.2885 130.29 32.2461C129.258 31.6585 128.429 30.3299 127.429 28.7259C126.253 26.6637 124.786 24.7796 123.074 23.1307C119.219 19.674 115.885 22.8078 115.587 23.0989Z" fill="#040047"/>
<path d="M131.465 117.683L135.437 68.5649C127.259 63.319 115.013 59.0366 99.9427 59.5659C99.9427 59.5659 83.4582 63.462 76.0987 69.2478L80.0231 117.662L131.465 117.683Z" fill="#FFE11B"/>
<path d="M105.133 105.847C105.094 105.848 105.056 105.839 105.021 105.823C104.986 105.806 104.955 105.782 104.931 105.752L87.3826 84.202C87.3428 84.1544 87.3211 84.0945 87.3211 84.0326C87.3211 83.9707 87.3428 83.9107 87.3826 83.8632L94.8272 75.3565L85.6704 72.7098C85.6272 72.6978 85.588 72.6749 85.5563 72.6434C85.5246 72.6118 85.5016 72.5727 85.4896 72.5298C85.4758 72.4869 85.474 72.4411 85.4843 72.3973C85.4946 72.3535 85.5166 72.3133 85.5481 72.281L93.5244 63.5308C93.5491 63.506 93.5785 63.4863 93.6109 63.4729C93.6433 63.4594 93.6781 63.4525 93.7132 63.4525C93.7483 63.4525 93.783 63.4594 93.8154 63.4729C93.8478 63.4863 93.8772 63.506 93.902 63.5308C93.9267 63.555 93.9464 63.5838 93.9598 63.6156C93.9732 63.6474 93.9802 63.6816 93.9802 63.7161C93.9802 63.7506 93.9732 63.7847 93.9598 63.8166C93.9464 63.8484 93.9267 63.8772 93.902 63.9014L86.1862 72.3392L95.3377 74.986C95.3799 74.9969 95.4185 75.0188 95.4493 75.0495C95.4802 75.0802 95.5022 75.1186 95.5132 75.1607C95.526 75.2032 95.5279 75.2483 95.5186 75.2918C95.5093 75.3353 95.4891 75.3758 95.46 75.4094L87.9197 84.0432L105.34 105.429C105.384 105.483 105.405 105.552 105.398 105.622C105.391 105.691 105.357 105.755 105.303 105.799C105.252 105.832 105.193 105.849 105.133 105.847Z" fill="#040047"/>
<path d="M108.722 103.841C108.689 103.842 108.656 103.836 108.625 103.825C108.594 103.813 108.565 103.795 108.541 103.772C108.516 103.747 108.497 103.718 108.483 103.686C108.47 103.654 108.463 103.619 108.463 103.584C108.463 103.549 108.47 103.515 108.483 103.482C108.497 103.45 108.516 103.421 108.541 103.396L125.068 85.9858L117.863 77.8126C117.839 77.7854 117.821 77.7534 117.81 77.7188C117.799 77.6841 117.795 77.6476 117.799 77.6115C117.802 77.5767 117.812 77.5428 117.829 77.5119C117.845 77.4811 117.868 77.4537 117.895 77.4315L126.892 70.3329L117.283 63.9119C117.251 63.8945 117.222 63.8705 117.199 63.8414C117.177 63.8124 117.16 63.7789 117.151 63.7432C117.142 63.7075 117.141 63.6703 117.147 63.634C117.153 63.5977 117.167 63.5631 117.187 63.5324C117.208 63.5017 117.234 63.4756 117.266 63.4557C117.297 63.4359 117.332 63.4227 117.368 63.4171C117.405 63.4114 117.442 63.4134 117.478 63.423C117.514 63.4325 117.547 63.4494 117.576 63.4725L127.488 70.1158C127.523 70.1382 127.551 70.1687 127.572 70.2047C127.592 70.2406 127.603 70.281 127.605 70.3223C127.607 70.3639 127.599 70.4055 127.581 70.4434C127.564 70.4812 127.537 70.5142 127.504 70.5393L118.464 77.6856L125.616 85.8429C125.66 85.8915 125.684 85.9547 125.684 86.0202C125.684 86.0857 125.66 86.1489 125.616 86.1975L108.919 103.788C108.863 103.83 108.792 103.849 108.722 103.841Z" fill="#040047"/>
<path d="M97.4062 66.4316L106.733 105.604L114.991 67.0615C114.991 67.0615 103.537 67.7232 97.4062 66.4316Z" fill="#040047"/>
<path d="M106.733 105.847C106.674 105.847 106.617 105.828 106.57 105.791C106.524 105.755 106.491 105.703 106.478 105.646L97.1457 66.474C97.1355 66.4301 97.1364 66.3843 97.1485 66.3408C97.1606 66.2974 97.1834 66.2576 97.2149 66.2252C97.2466 66.1941 97.2854 66.1712 97.328 66.1583C97.3706 66.1454 97.4157 66.1429 97.4595 66.1511C103.484 67.4215 114.858 66.7651 114.975 66.7545C115.016 66.7543 115.057 66.7627 115.095 66.7791C115.132 66.7955 115.166 66.8196 115.193 66.8498C115.22 66.8799 115.239 66.9156 115.249 66.9542C115.259 66.9927 115.26 67.0331 115.252 67.0721L106.994 105.641C106.981 105.699 106.948 105.75 106.902 105.788C106.856 105.825 106.798 105.846 106.739 105.847H106.733ZM97.7572 66.7863L106.723 104.37L114.662 67.3156C112.742 67.4215 103.319 67.845 97.7572 66.7863Z" fill="#040047"/>
<path d="M117.741 42.8119C118.693 37.9789 126.839 37.0632 126.249 42.7802C126.041 44.744 125.339 46.7238 123.904 48.0737C122.468 49.4235 120.181 50.0217 118.421 49.1324" fill="white"/>
<path d="M120.25 49.847C119.571 49.852 118.9 49.7017 118.288 49.4076C118.255 49.3924 118.226 49.3707 118.202 49.3438C118.178 49.317 118.159 49.2854 118.148 49.2512C118.137 49.217 118.132 49.1809 118.135 49.145C118.138 49.109 118.149 49.0741 118.166 49.0424C118.182 49.0102 118.204 48.9814 118.231 48.9578C118.258 48.9343 118.29 48.9163 118.324 48.9049C118.358 48.8936 118.394 48.8891 118.43 48.8918C118.466 48.8945 118.501 48.9043 118.533 48.9206C120.128 49.6935 122.255 49.2647 123.702 47.8884C125.297 46.3903 125.829 44.2676 125.967 42.7484C126.174 40.7633 125.244 39.4135 123.473 39.1488C121.298 38.8259 118.522 40.271 118.006 42.8543C118 42.8895 117.987 42.9231 117.967 42.9531C117.948 42.9832 117.922 43.0091 117.893 43.0293C117.863 43.0495 117.829 43.0636 117.794 43.0708C117.759 43.078 117.723 43.0782 117.687 43.0713C117.615 43.0572 117.552 43.0153 117.511 42.9548C117.47 42.8942 117.455 42.82 117.469 42.7484C118.038 39.8528 121.138 38.2383 123.553 38.5983C125.148 38.8418 126.802 40.0699 126.515 42.796C126.344 44.3841 125.786 46.6603 124.079 48.2695C123.05 49.2593 121.681 49.8231 120.25 49.847Z" fill="#040047"/>
<path d="M97.5392 42.1185C96.9277 37.2273 88.8609 35.7663 89.063 41.4939C89.1321 43.4684 89.6958 45.4958 91.0358 46.9462C92.3758 48.3966 94.5933 49.1483 96.4331 48.4019" fill="white"/>
<path d="M94.8858 48.9683C94.1202 48.954 93.3656 48.7836 92.6687 48.4676C91.9718 48.1517 91.3473 47.697 90.8338 47.1315C89.2385 45.4111 88.8451 43.119 88.7919 41.5045C88.6962 38.7625 90.3871 37.6508 92.0356 37.5185C94.4604 37.3279 97.4489 39.1542 97.8158 42.0815C97.8234 42.1535 97.8028 42.2257 97.7582 42.2829C97.7136 42.3401 97.6485 42.378 97.5765 42.3885C97.5041 42.3961 97.4316 42.3756 97.3741 42.3312C97.3167 42.2868 97.2787 42.222 97.2681 42.1503C96.9384 39.5036 94.269 37.9155 92.0781 38.0637C90.2914 38.2066 89.2705 39.4877 89.3396 41.4833C89.3928 43.0079 89.765 45.1888 91.238 46.7768C92.5993 48.2537 94.6944 48.8254 96.3269 48.1584C96.3618 48.1449 96.399 48.1383 96.4365 48.1391C96.474 48.1399 96.5109 48.148 96.5452 48.163C96.5796 48.178 96.6106 48.1995 96.6365 48.2265C96.6625 48.2534 96.6828 48.2851 96.6964 48.3199C96.7101 48.3547 96.7167 48.3917 96.7159 48.429C96.7151 48.4663 96.7069 48.5031 96.6919 48.5373C96.6768 48.5714 96.6551 48.6023 96.6281 48.6281C96.6011 48.654 96.5692 48.6742 96.5342 48.6878C96.0082 48.8866 95.4483 48.9818 94.8858 48.9683Z" fill="#040047"/>
<path d="M97.4062 66.4316C97.4062 66.4316 101.129 68.3267 107.51 68.549C113.891 68.7713 114.954 67.0403 114.954 67.0403L114.837 63.6101L114.486 55.6699L114.151 48.259L99.5439 47.7296L98.8473 53.7536L98.6293 55.7069L97.4062 66.4316Z" fill="white"/>
<path d="M108.61 68.8402C108.265 68.8402 107.903 68.8402 107.52 68.8402C101.139 68.6232 97.4169 66.7757 97.2786 66.6963C97.2292 66.6703 97.1886 66.6303 97.1621 66.5812C97.1356 66.5322 97.1243 66.4765 97.1297 66.4211L99.2568 47.7932C99.2669 47.7258 99.3009 47.6643 99.3525 47.6196C99.4042 47.575 99.4702 47.5502 99.5386 47.5497L114.146 48.0526C114.215 48.0551 114.28 48.0831 114.329 48.131C114.378 48.179 114.408 48.2435 114.412 48.3119L115.252 67.051C115.256 67.1047 115.243 67.1583 115.215 67.2045C115.156 67.2574 114.125 68.8402 108.61 68.8402ZM97.6987 66.257C98.4964 66.6169 102.033 68.0726 107.536 68.2632C112.949 68.4538 114.449 67.2045 114.71 66.9398L113.885 48.5607L99.7832 48.0737L97.6987 66.257Z" fill="#040047"/>
<path d="M98.6293 55.7757C99.6928 57.5808 101.448 59.0259 103.282 60.127C106.366 61.9691 111.003 64.0812 114.837 63.6313L114.486 55.691C111.679 55.9443 108.852 55.8662 106.063 55.4581C103.601 55.1617 101.075 54.8282 98.8473 53.8065L98.6293 55.7757Z" fill="#040047"/>
<path d="M113.747 63.9595C109.807 63.9595 105.489 61.7521 103.149 60.3546C100.932 59.0259 99.3365 57.5332 98.4006 55.9081C98.3742 55.8595 98.3631 55.8042 98.3687 55.7492L98.5814 53.7959C98.5856 53.7542 98.5999 53.7141 98.623 53.6791C98.6462 53.644 98.6775 53.6151 98.7144 53.5948C98.7522 53.5753 98.7941 53.5651 98.8367 53.5651C98.8792 53.5651 98.9212 53.5753 98.959 53.5948C101.214 54.627 103.803 54.9446 106.095 55.2252C108.864 55.6335 111.672 55.7117 114.46 55.4581C114.495 55.4538 114.531 55.4572 114.565 55.4682C114.599 55.4791 114.63 55.4974 114.656 55.5216C114.684 55.5445 114.707 55.5727 114.723 55.6045C114.74 55.6363 114.75 55.6712 114.752 55.7069L115.103 63.6472C115.106 63.714 115.084 63.7795 115.04 63.8306C114.997 63.8817 114.936 63.9145 114.869 63.9224C114.496 63.9562 114.122 63.9685 113.747 63.9595ZM98.9005 55.7175C100.038 57.4624 101.59 58.9007 103.42 59.9047C105.877 61.371 110.551 63.7478 114.561 63.3931L114.236 55.9822C111.498 56.205 108.744 56.1162 106.026 55.7175C103.814 55.4528 101.315 55.1458 99.0706 54.193L98.9005 55.7175Z" fill="#040047"/>
<path d="M106.116 57.2844L107.419 57.3268C110.387 57.4296 113.274 56.3548 115.446 54.3386C117.618 52.3225 118.897 49.5301 119.001 46.5756C119.001 46.5756 119.618 33.2519 119.618 28.9324C119.618 24.6129 116.028 20.4257 107.18 20.2457C98.3314 20.0657 95.9172 25.5392 95.9172 29.774C95.9172 34.0088 95.3004 45.7551 95.3004 45.7551C95.25 47.2192 95.4897 48.6788 96.006 50.0505C96.5223 51.4223 97.305 52.6794 98.3094 53.75C99.3137 54.8207 100.52 55.6838 101.86 56.2903C103.199 56.8967 104.646 57.2345 106.116 57.2844Z" fill="white"/>
<path d="M107.797 57.6073H107.393L106.09 57.5597C103.05 57.452 100.176 56.1481 98.1008 53.934C96.0252 51.7199 94.9167 48.7766 95.0186 45.7499C95.0186 45.6281 95.6355 33.9771 95.6355 29.7793C95.6355 28.1913 95.9917 25.1316 98.3581 22.8184C100.373 20.8545 103.325 19.8963 107.18 19.9758C116.539 20.1663 119.873 24.7399 119.873 28.9377C119.873 33.1354 119.267 46.4592 119.256 46.5915C119.147 49.5464 117.893 52.3444 115.756 54.3984C113.62 56.4523 110.767 57.6025 107.797 57.6073ZM106.116 57.0092L107.424 57.0568C110.319 57.1525 113.133 56.1019 115.25 54.1351C117.368 52.1683 118.615 49.446 118.719 46.5651C118.719 46.4274 119.336 33.1989 119.336 28.9324C119.336 24.9834 116.145 20.701 107.18 20.5157C103.489 20.4469 100.661 21.3468 98.7569 23.2048C96.5288 25.3751 96.1938 28.2548 96.1938 29.774C96.1938 34.0089 95.5823 45.6546 95.577 45.771C95.4808 48.6517 96.5364 51.4527 98.5123 53.5596C100.488 55.6664 103.223 56.907 106.116 57.0092Z" fill="#040047"/>
<path d="M105.133 49.5718C105.133 49.5718 104.75 53.7536 107.004 53.8066C109.259 53.8595 109.254 49.1906 109.254 49.1906C109.254 49.1906 106.505 48.7883 105.133 49.5718Z" fill="white"/>
<path d="M107.052 54.0819H106.999C106.751 54.0799 106.507 54.025 106.282 53.9209C106.057 53.8168 105.858 53.6659 105.696 53.4784C104.633 52.2715 104.851 49.6459 104.861 49.5348C104.866 49.4911 104.881 49.449 104.905 49.4122C104.929 49.3754 104.961 49.3448 105 49.323C106.435 48.5078 109.179 48.9101 109.296 48.926C109.36 48.9372 109.418 48.9704 109.46 49.0197C109.502 49.069 109.525 49.1314 109.525 49.196C109.525 49.3283 109.525 52.3721 108.265 53.5843C108.106 53.7432 107.917 53.869 107.709 53.9545C107.501 54.0399 107.277 54.0832 107.052 54.0819ZM105.399 49.7253C105.367 50.2547 105.319 52.2292 106.111 53.1132C106.223 53.2435 106.361 53.3483 106.517 53.4205C106.673 53.4926 106.843 53.5305 107.015 53.5314C107.176 53.5379 107.336 53.5107 107.485 53.4514C107.635 53.3921 107.77 53.3021 107.882 53.1873C108.781 52.3139 108.945 50.1541 108.972 49.4342C108.313 49.376 106.467 49.2278 105.399 49.7412V49.7253Z" fill="#040047"/>
<path d="M107.398 47.5656C106.628 47.5636 105.859 47.5141 105.095 47.4174C105.024 47.4069 104.959 47.3688 104.915 47.3114C104.872 47.254 104.852 47.1818 104.861 47.1103C104.866 47.0747 104.878 47.0404 104.896 47.0094C104.914 46.9783 104.938 46.9511 104.967 46.9294C104.995 46.9078 105.028 46.892 105.063 46.8831C105.098 46.8741 105.134 46.8722 105.17 46.8774C106.228 47.0099 107.296 47.0471 108.36 46.9886C108.39 46.9876 108.418 46.9787 108.442 46.9628C108.467 46.9469 108.486 46.9247 108.499 46.8986C108.988 46.1152 107.754 42.3991 106.866 40.2447C106.851 40.2114 106.844 40.1755 106.843 40.1391C106.843 40.1028 106.85 40.0667 106.864 40.0331C106.878 39.9995 106.898 39.969 106.924 39.9435C106.95 39.918 106.981 39.898 107.015 39.8847C107.082 39.8583 107.157 39.859 107.224 39.8866C107.29 39.9143 107.343 39.9668 107.371 40.0329C107.775 41.0122 109.743 45.9405 108.967 47.1897C108.908 47.2888 108.825 47.3717 108.725 47.4308C108.626 47.49 108.513 47.5236 108.398 47.5285C108.063 47.555 107.712 47.5656 107.398 47.5656Z" fill="#040047"/>
<path d="M120.74 36.1581C120.74 36.1581 109.041 32.2462 94.2104 35.0252L94.5188 41.2822C96.6693 42.2529 99.0067 42.7442 101.368 42.722C104.947 42.5844 107.446 39.4559 107.446 39.4559C107.863 40.5412 108.594 41.4793 109.546 42.1518C110.498 42.8244 111.628 43.2015 112.795 43.2355C116.9 43.3678 119.953 40.6364 119.953 40.6364L120.74 36.1581Z" fill="white"/>
<path d="M113.082 43.4949H112.785C111.64 43.4628 110.526 43.114 109.569 42.4876C108.612 41.8612 107.849 40.9819 107.366 39.9482C106.595 40.7793 104.367 42.8649 101.378 42.9814C98.9788 43.0127 96.6019 42.5156 94.4178 41.5257C94.3732 41.5045 94.3353 41.4716 94.3081 41.4306C94.2809 41.3895 94.2655 41.3419 94.2636 41.2928L93.9392 35.0253C93.9356 34.9594 93.9563 34.8945 93.9974 34.8428C94.0386 34.7911 94.0973 34.7562 94.1625 34.7447C108.897 31.9815 120.708 35.8405 120.825 35.8828C120.887 35.9035 120.94 35.946 120.973 36.0025C121.006 36.0589 121.018 36.1255 121.006 36.1898L120.224 40.6681C120.213 40.7272 120.183 40.7811 120.139 40.8216C118.156 42.4781 115.67 43.42 113.082 43.4949ZM107.446 39.1648H107.488C107.537 39.1722 107.583 39.193 107.62 39.2247C107.658 39.2565 107.686 39.2981 107.701 39.3448C108.098 40.3802 108.795 41.2747 109.704 41.9146C110.613 42.5546 111.693 42.9112 112.806 42.9391C116.411 43.0502 119.224 40.8587 119.719 40.467L120.447 36.3169C111.995 34.0253 103.135 33.6526 94.5188 35.2264L94.8059 41.0493C96.8675 41.9648 99.0998 42.4374 101.357 42.4362C104.76 42.3038 107.206 39.3024 107.206 39.2601C107.238 39.2302 107.276 39.2079 107.317 39.1951C107.359 39.1822 107.403 39.1791 107.446 39.186V39.1648Z" fill="#040047"/>
<path d="M113.089 39.1993C113.125 38.1534 112.81 37.2935 112.384 37.2788C111.959 37.264 111.584 38.1001 111.548 39.146C111.511 40.192 111.827 41.0519 112.252 41.0666C112.678 41.0814 113.052 40.2453 113.089 39.1993Z" fill="#040047"/>
<path d="M103.223 38.8638C103.259 37.8178 102.944 36.9579 102.518 36.9432C102.093 36.9285 101.718 37.7645 101.681 38.8105C101.645 39.8565 101.96 40.7163 102.386 40.7311C102.811 40.7458 103.186 39.9098 103.223 38.8638Z" fill="#040047"/>
<path d="M120.474 37.8308H120.394C115.929 36.6146 111.334 35.9288 106.707 35.7875C102.565 35.6567 98.42 35.9333 94.3327 36.6133C94.2951 36.6288 94.2546 36.6359 94.214 36.6341C94.1733 36.6323 94.1336 36.6215 94.0976 36.6027C94.0616 36.5838 94.0303 36.5572 94.0058 36.5249C93.9813 36.4926 93.9642 36.4553 93.9559 36.4157C93.9475 36.3761 93.948 36.3351 93.9574 36.2957C93.9668 36.2563 93.9848 36.2194 94.0101 36.1877C94.0354 36.156 94.0674 36.1303 94.1039 36.1124C94.1404 36.0944 94.1804 36.0847 94.221 36.0839C98.3554 35.393 102.549 35.1129 106.739 35.2475C111.413 35.3888 116.054 36.0818 120.564 37.312C120.599 37.3217 120.631 37.3382 120.66 37.3606C120.688 37.383 120.712 37.4108 120.729 37.4424C120.746 37.474 120.757 37.5086 120.761 37.5444C120.764 37.5802 120.761 37.6164 120.75 37.6508C120.73 37.7064 120.692 37.754 120.642 37.7864C120.592 37.8188 120.533 37.8344 120.474 37.8308Z" fill="#040047"/>
<path d="M106.685 114.624C106.615 114.624 106.547 114.596 106.497 114.546C106.448 114.497 106.42 114.429 106.42 114.359C106.42 111.43 106.436 108.504 106.467 105.582C106.47 105.514 106.499 105.448 106.549 105.4C106.598 105.352 106.664 105.324 106.733 105.323C106.768 105.323 106.802 105.33 106.834 105.343C106.866 105.357 106.895 105.376 106.919 105.401C106.944 105.425 106.963 105.455 106.976 105.487C106.988 105.519 106.995 105.553 106.994 105.588C106.969 108.51 106.953 111.433 106.946 114.359C106.946 114.428 106.919 114.495 106.87 114.544C106.821 114.594 106.755 114.622 106.685 114.624Z" fill="#040047"/>
<path d="M106.733 47.2903C104.617 47.8917 102.741 49.1352 101.368 50.8476C101.368 50.8476 103.66 52.1709 107.004 49.5718C107.004 49.5718 111.014 51.541 113.577 50.5511C113.561 50.5511 110.604 46.7133 106.733 47.2903Z" fill="#040047"/>
<path d="M102.963 51.4351C102.364 51.4544 101.77 51.3233 101.235 51.054C101.202 51.0345 101.173 51.008 101.151 50.9765C101.13 50.945 101.115 50.9091 101.108 50.8714C101.102 50.8336 101.103 50.7949 101.113 50.7579C101.123 50.7209 101.141 50.6864 101.166 50.657C103.718 47.645 106.563 47.0362 106.68 47.0097C110.658 46.4169 113.646 50.1858 113.768 50.3658C113.794 50.3982 113.812 50.4362 113.82 50.4766C113.828 50.5171 113.827 50.5589 113.816 50.5987C113.805 50.6383 113.785 50.6748 113.758 50.7052C113.73 50.7356 113.695 50.7589 113.657 50.7734C111.269 51.6998 107.807 50.2123 107.026 49.8576C105.883 50.8145 104.455 51.369 102.963 51.4351ZM101.804 50.7258C102.501 50.9693 104.346 51.2816 106.845 49.3442C106.883 49.3134 106.93 49.2941 106.979 49.2885C107.028 49.2828 107.077 49.2911 107.121 49.3124C107.159 49.3124 110.69 51.0434 113.12 50.3976C112.343 49.54 109.828 47.0838 106.781 47.5285C104.843 48.0968 103.113 49.2152 101.804 50.747V50.7258Z" fill="#040047"/>
<path d="M85.9629 64.1395L62.4327 75.0071L49.2186 54.7912C49.2186 54.7912 29.4586 60.9317 29.7564 61.7945C30.0541 62.6574 47.7244 103.502 59.6995 99.5055C71.6747 95.5089 82.1875 92.3487 82.1875 92.3487L85.9629 64.1395Z" fill="#FFE11B"/>
<path d="M34.3293 50.9057C34.2651 50.9053 34.2032 50.8821 34.1545 50.8405C34.1058 50.7988 34.0735 50.7412 34.0635 50.6781C33.5317 47.3961 37.3072 44.7441 37.472 44.6329C37.5325 44.5932 37.606 44.5782 37.6773 44.591C37.7486 44.6038 37.8122 44.6435 37.8549 44.7017C37.8956 44.7622 37.9106 44.8362 37.8967 44.9076C37.8827 44.979 37.8409 45.042 37.7804 45.0829C37.7485 45.1093 34.1113 47.6449 34.5899 50.5881C34.6023 50.6597 34.5858 50.7332 34.5439 50.7927C34.5021 50.8522 34.4383 50.8928 34.3666 50.9057H34.3293Z" fill="#040047"/>
<path d="M79.6828 113.703C79.6132 113.697 79.5485 113.665 79.5027 113.612C79.457 113.56 79.4338 113.491 79.4382 113.422C79.4807 112.697 77.6462 89.4795 76.6678 77.3044C76.665 77.2696 76.6691 77.2347 76.6798 77.2015C76.6906 77.1683 76.7079 77.1376 76.7306 77.111C76.7533 77.0845 76.781 77.0627 76.8122 77.0468C76.8434 77.0309 76.8774 77.0213 76.9124 77.0185C76.9473 77.0158 76.9824 77.0199 77.0157 77.0306C77.049 77.0413 77.0799 77.0585 77.1066 77.0811C77.1333 77.1037 77.1552 77.1313 77.1711 77.1624C77.1871 77.1934 77.1967 77.2273 77.1995 77.262C77.3112 78.7019 80.0284 112.554 79.9646 113.459C79.9592 113.528 79.9266 113.593 79.8738 113.638C79.8211 113.684 79.7525 113.707 79.6828 113.703Z" fill="#040047"/>
<path d="M131.704 115.026C131.67 115.023 131.636 115.014 131.605 114.998C131.574 114.982 131.546 114.96 131.524 114.933C131.502 114.907 131.485 114.876 131.475 114.843C131.465 114.81 131.462 114.775 131.465 114.74L134.555 77.262C134.56 77.1918 134.594 77.1268 134.648 77.0811C134.701 77.0354 134.771 77.0129 134.842 77.0185C134.912 77.0242 134.978 77.0574 135.024 77.111C135.069 77.1646 135.092 77.2342 135.086 77.3044L131.997 114.788C131.994 114.823 131.985 114.857 131.968 114.888C131.952 114.92 131.929 114.947 131.902 114.969C131.875 114.992 131.843 115.008 131.809 115.018C131.775 115.028 131.74 115.03 131.704 115.026Z" fill="#040047"/>
<path d="M111.966 7.49894C111.115 8.97583 110.285 10.4633 109.397 11.919C109.133 12.2388 108.825 12.5203 108.483 12.7554C108.222 12.3901 107.733 12.0143 107.738 11.6543C107.791 9.72221 107.951 7.79008 108.126 5.86324C108.126 5.6515 108.552 5.27037 108.69 5.33389C109.059 5.40676 109.384 5.62177 109.594 5.93206C109.701 6.37931 109.701 6.84524 109.594 7.29249C109.452 7.99084 109.362 8.6985 109.323 9.4099C109.653 8.8329 109.966 8.25062 110.317 7.68421C110.537 7.30838 110.791 6.95392 111.078 6.62551C111.583 6.0644 112.141 5.50328 112.981 5.78913C113.821 6.07498 113.875 6.84784 113.917 7.54658C113.96 8.24532 113.917 8.98112 113.917 9.70104L114.252 9.75397C114.598 9.0817 114.906 8.38825 115.316 7.74244C115.634 7.14738 116.035 6.60023 116.507 6.11733C116.666 5.93196 116.876 5.79651 117.11 5.7274C117.345 5.65829 117.595 5.65849 117.83 5.72797C118.065 5.79746 118.274 5.93324 118.433 6.11886C118.592 6.30448 118.693 6.53197 118.724 6.77373C118.948 7.63128 118.969 8.54176 119.16 9.42049C119.251 9.95596 119.45 10.4675 119.745 10.9238C120.032 11.3261 120.426 11.6173 119.905 12.0619C119.384 12.5066 118.799 12.5913 118.31 12.1043C117.998 11.7296 117.789 11.281 117.703 10.8021C117.523 9.8969 117.469 8.97054 117.347 8.06005C117.284 7.81006 117.201 7.56571 117.097 7.32955C116.741 7.90125 116.48 8.28767 116.257 8.70057C115.789 9.56341 115.364 10.4527 114.864 11.2997C114.561 11.829 114.087 12.3584 113.455 12.0355C113.24 11.8882 113.058 11.7 112.917 11.4819C112.777 11.2639 112.681 11.0202 112.636 10.765C112.493 9.74515 112.405 8.71858 112.37 7.68951L111.966 7.49894Z" fill="#040047"/>
<path d="M85.8193 7.37721L88.4781 7.04372C88.8671 6.94438 89.2678 6.89808 89.6692 6.90609C90.049 7.02689 90.4078 7.20545 90.7327 7.43544C90.4456 7.73188 90.201 8.20829 89.8607 8.2824C88.7971 8.52061 87.7336 8.60002 86.6701 8.74823C85.8406 8.86469 85.0004 10.5639 85.4684 11.2521C85.5747 11.4109 85.9576 11.4638 86.1969 11.4373C87.2604 11.3209 88.2813 11.1462 89.3236 11.0139C89.68 10.9248 90.0508 10.9086 90.4137 10.9662C90.5601 11.0238 90.6919 11.113 90.7995 11.2274C90.9071 11.3419 90.9878 11.4786 91.0358 11.6279C91.0731 11.7814 90.7434 12.1573 90.5041 12.2314C90.1244 12.3593 89.7291 12.4359 89.3289 12.459C87.8878 12.6284 86.4468 12.8189 84.9951 12.9354C83.8146 13.0307 83.4636 12.5119 83.6764 11.3473C84.0539 9.2617 84.3623 7.16547 84.6867 5.07453C84.7064 4.89667 84.6901 4.71668 84.6388 4.54518C84.3517 3.51824 84.5165 3.36473 85.5747 3.29592C87.1168 3.19534 88.6483 2.9783 90.185 2.84597C90.8019 2.79303 91.6846 2.55482 91.7271 3.49707C91.759 4.32286 90.9135 4.24345 90.3073 4.2911C89.2864 4.37579 88.2707 4.46049 87.2551 4.5346C87.1249 4.5256 86.9942 4.54397 86.8716 4.5885C86.749 4.63304 86.6372 4.70275 86.5434 4.79311C86.4497 4.88347 86.376 4.99245 86.3273 5.11298C86.2786 5.23351 86.2559 5.36289 86.2607 5.49272C86.1487 6.12852 86.0013 6.75765 85.8193 7.37721Z" fill="#040047"/>
<path d="M124.84 6.47729C123.606 7.10721 122.261 9.55281 122.564 10.6592C122.647 10.8487 122.779 11.0134 122.946 11.1368C123.113 11.2603 123.309 11.3383 123.515 11.3632C124.253 11.189 124.977 10.959 125.68 10.675C126.013 10.5907 126.353 10.5305 126.695 10.4951C126.616 10.8509 126.47 11.1885 126.265 11.4902C125.835 11.9355 125.314 12.2826 124.736 12.5074C124.159 12.7323 123.539 12.8295 122.92 12.7924C122.417 12.7957 121.933 12.6052 121.568 12.2608C121.203 11.9165 120.986 11.4449 120.963 10.945C120.75 9.13463 122.393 6.08557 124.031 5.26507C124.653 4.95275 125.292 4.84688 125.829 5.408C126.115 5.67062 126.319 6.01111 126.413 6.38742C126.508 6.76372 126.489 7.15934 126.36 7.5254C126.298 7.64015 126.21 7.73902 126.103 7.81432C125.996 7.88961 125.873 7.93928 125.744 7.95947C125.573 7.95947 125.302 7.74773 125.212 7.55716C125.059 7.20771 124.934 6.84659 124.84 6.47729Z" fill="#040047"/>
<path d="M102.346 7.15487C100.485 7.15487 98.8526 7.15487 97.2201 7.1284C96.9117 7.1284 96.6086 6.78962 96.3055 6.59905C96.5074 6.29517 96.7549 6.02382 97.0393 5.79444C97.3555 5.67175 97.6949 5.61935 98.0337 5.64093C99.0972 5.59858 100.198 5.54564 101.283 5.57211C101.735 5.5878 102.178 5.70929 102.575 5.92677C102.678 6.02879 102.755 6.15467 102.797 6.2932C102.84 6.43174 102.848 6.57863 102.819 6.7208C102.761 6.96959 102.394 7.09664 102.346 7.15487Z" fill="#040047"/>
<path d="M99.8523 8.7218C100.631 8.74296 101.407 8.81369 102.176 8.93354C102.479 8.99177 102.708 9.4629 102.958 9.75404C102.617 9.91814 102.282 10.2146 101.931 10.2252C100.549 10.2675 99.161 10.2252 97.7731 10.2252C97.5285 10.2252 97.2414 10.2781 97.0499 10.1563C96.813 9.93432 96.6074 9.68147 96.4384 9.40467C96.6671 9.23527 96.8745 8.94942 97.1191 8.91766C97.9061 8.8012 98.709 8.79062 99.8523 8.7218Z" fill="#040047"/>
<path d="M130.577 7.41957C130.283 7.40095 129.988 7.40095 129.694 7.41957L129.726 7.38781C129.928 7.17077 130.12 6.93786 130.301 6.69965C130.482 6.50792 130.608 6.27062 130.664 6.01322C130.72 5.75583 130.705 5.48805 130.62 5.23864C130.184 4.11642 128.833 4.17994 127.961 4.70929C127.355 5.09571 127.913 6.05913 128.525 5.67271C128.769 5.5139 129.11 5.31275 129.397 5.47155C129.774 5.68329 129.397 6.04855 129.211 6.27087C128.838 6.72612 128.328 7.08078 127.998 7.5572C127.945 7.64133 127.917 7.73854 127.917 7.83775C127.917 7.93696 127.945 8.03418 127.998 8.11831C128.264 8.47827 128.493 8.49415 128.923 8.48886C129.476 8.47963 130.028 8.5026 130.577 8.55767C131.311 8.60002 131.306 7.49897 130.577 7.41957Z" fill="#040047"/>
</svg>
