<svg width="88" height="16" viewBox="0 0 88 16" fill="none" xmlns="http://www.w3.org/2000/svg">
<path d="M12.7895 4.43272C13.0886 4.43272 13.331 4.18766 13.331 3.88535C13.331 3.58305 13.0886 3.33798 12.7895 3.33798C12.4904 3.33798 12.248 3.58305 12.248 3.88535C12.248 4.18766 12.4904 4.43272 12.7895 4.43272Z" fill="url(#paint0_linear_384_70000)"/>
<path d="M2.6645 10.2042C2.43243 10.1643 2.31892 10.3833 2.26104 10.614C2.03365 11.5199 1.74857 12.6749 1.49421 13.6765C1.40955 14.0099 1.39943 14.1206 1.29716 14.4264C1.28293 14.4688 1.22074 14.6173 1.19059 14.6506C0.952332 14.9134 0.510102 14.811 0.418322 14.4668C0.401839 14.4045 0.419819 14.1973 0.435552 14.1424C0.801737 12.8604 0.866357 12.3059 1.14732 11.113C1.29154 10.5007 1.78416 9.65516 0.585398 9.48476C0.157215 9.42398 0.173323 8.55702 0.828896 8.63275C1.05591 8.65888 1.35504 8.80978 1.61558 8.74635C1.77498 8.70848 1.88531 8.14502 1.93026 7.9856C2.38111 6.38836 2.84806 4.67885 3.3684 2.98922C3.36934 2.98619 3.37046 2.98316 3.37139 2.98013C3.52124 2.52364 4.22664 2.63535 4.24574 3.1157C4.24926 3.18473 4.24295 3.25391 4.22701 3.32113C3.81812 4.97346 3.35772 6.61292 2.86679 8.23685C2.62685 9.03036 2.51372 9.29902 3.45381 9.48135C6.20459 10.0149 7.70305 9.65516 8.90031 7.88828C10.1721 6.01159 9.65459 3.48415 7.76411 2.21541C5.8326 0.919215 3.84341 1.18599 1.86395 2.09575C1.44214 2.28963 1.06022 2.59521 0.632224 2.76429C0.569676 2.78743 0.503222 2.79786 0.436677 2.79496C0.146352 2.78966 -0.0561275 2.50301 0.0139251 2.21806C0.0513864 2.06772 0.225769 1.89978 0.304813 1.85453C1.29173 1.28918 2.34496 0.752787 3.48996 0.473896C6.47413 -0.253153 9.26706 1.24203 10.233 3.91621C11.3744 7.07812 9.10466 10.5893 5.79383 10.7154C4.81553 10.7533 3.7387 10.389 2.6645 10.2042Z" fill="url(#paint1_linear_384_70000)"/>
<path d="M62.3156 2.13756e-07C62.2257 -4.23924e-05 62.1359 0.00628429 62.0468 0.0189338C61.194 0.139919 60.3813 0.435471 59.7585 0.850495C59.3702 1.10932 59.013 1.22917 58.6347 1.22917C58.367 1.22917 58.0872 1.17237 57.7274 1.0421C56.5561 0.620641 55.1914 0.171158 53.8126 0.171158C53.2694 0.16898 52.7283 0.24127 52.2042 0.386054C50.5588 0.840459 49.5599 1.86496 49.2352 3.42849C48.9144 4.97442 49.3911 6.28367 50.6138 7.2152C50.7824 7.34319 50.8397 7.43976 51.1769 7.53442C51.4354 7.60694 51.6922 7.30968 51.5889 7.08002C51.4766 6.83388 51.3486 6.72236 51.1956 6.5762C50.1538 5.58313 49.8356 4.56716 50.1939 3.37945C50.5618 2.16013 51.4264 1.42929 52.7635 1.20853C53.1273 1.14859 53.4954 1.11857 53.864 1.11878C55.4012 1.11878 56.7955 1.63151 57.8384 2.07815C57.854 2.08443 57.8682 2.09378 57.8802 2.10567C57.8922 2.11755 57.9018 2.13172 57.9083 2.14737C57.9149 2.16301 57.9183 2.17981 57.9183 2.19679C57.9184 2.21377 57.9151 2.23059 57.9087 2.24628L57.9075 2.24893C57.7328 2.67266 57.5623 3.09242 57.3932 3.50858C56.9062 4.70916 56.4885 5.75789 56.0658 6.92855C55.8148 7.62341 55.8223 7.62909 54.822 7.63591C52.3655 7.65238 50.673 8.55703 49.2796 9.68282C48.6274 10.2097 48.0736 10.8775 47.7201 11.5633C47.6673 11.6657 47.6214 11.7678 47.5793 11.8696C47.5684 11.8961 47.4695 12.1323 47.4309 12.2294C47.2655 12.6472 46.704 12.9867 46.1831 13.3404C46.1623 13.3546 46.1378 13.3623 46.1128 13.3627C46.0877 13.3631 46.063 13.3561 46.0418 13.3425C46.0206 13.329 46.0037 13.3095 45.9933 13.2864C45.9829 13.2633 45.9793 13.2377 45.983 13.2126C45.9879 13.1817 45.992 13.1507 45.9952 13.1194C46.0405 12.6895 45.9677 12.2589 45.7783 11.8392C45.5777 11.395 45.257 10.9871 44.8251 10.6274C44.6022 10.4415 44.3662 10.2766 44.1164 10.1018C43.9407 9.97913 43.759 9.85208 43.5838 9.71803L43.4999 9.65517C43.1959 9.42324 42.8818 9.18354 42.6065 8.90086C42.386 8.67366 42.2712 8.40518 42.2746 8.12288C42.2779 7.83585 42.4081 7.55203 42.6411 7.3235C42.9144 7.05559 43.3703 6.8903 43.892 6.8691C43.9283 6.86758 43.9644 6.86683 44.0004 6.86683C44.4786 6.86683 45.025 6.89466 45.2273 7.2188C45.2735 7.29321 45.3039 7.47781 45.2911 7.56491C45.26 7.77715 45.0896 7.92465 45.0265 7.97823C44.7058 8.24898 44.842 8.60171 44.9958 8.72781C45.0707 8.78934 45.1979 8.79862 45.2954 8.78461C45.4266 8.76567 45.5496 8.67706 45.7064 8.51575C46.1372 8.07214 46.3108 7.5206 46.17 7.04064C46.0357 6.58377 45.6513 6.32324 45.0727 6.12425C44.8944 6.06291 44.6672 6.00137 44.3214 6.00137C43.8853 5.99856 43.4504 6.04988 43.0266 6.15417C42.3173 6.32286 41.9052 6.75834 41.6786 7.1709C41.4045 7.66734 41.33 8.15204 41.457 8.61137C41.5881 9.08698 41.9361 9.55009 42.49 9.98821C42.7569 10.1995 43.0406 10.4034 43.3152 10.6007C43.6865 10.8675 44.0705 11.1435 44.4278 11.4474C44.8978 11.8469 45.1475 12.311 45.1501 12.7898C45.1529 13.2764 44.901 13.7537 44.4217 14.1706C43.9718 14.5639 43.4167 14.8133 42.8266 14.8875C42.6654 14.9085 42.503 14.919 42.3405 14.9187C41.9786 14.9187 41.5862 14.8706 41.1535 14.7735C40.5826 14.6455 40.1735 14.352 39.9703 13.9245C39.8606 13.6933 39.7776 13.4271 39.8392 13.1505C40.1071 11.9272 40.5961 11.2973 40.8188 10.7344C40.9687 10.3557 40.875 10.2075 40.7064 10.1096C40.6225 10.0609 40.3131 9.95811 40.0973 10.3438C40.0947 10.3485 40.0915 10.3529 40.0889 10.3578C40.0454 10.4421 39.6345 11.2367 39.2333 12.0126C39.2333 12.0126 38.5337 13.7259 36.9358 14.0305C36.2832 14.1549 35.596 14.2689 34.9355 14.1894C34.132 14.0928 33.4951 13.9531 33.1018 13.4798C32.919 13.2597 32.7995 13.0784 32.7787 12.5435C32.777 12.497 32.785 12.4507 32.8021 12.4075C32.8192 12.3643 32.845 12.3252 32.8779 12.2927C32.9108 12.2601 32.9501 12.2349 32.9932 12.2186C33.0363 12.2023 33.0823 12.1953 33.1282 12.198C33.2764 12.2065 33.4221 12.2133 33.5678 12.2146C35.3021 12.2303 36.9296 11.9033 38.2102 10.6231C38.9744 9.8589 39.2644 8.76927 38.8896 7.76182C38.5221 6.77424 37.6897 6.13485 36.6232 5.98206C35.3661 5.80181 34.1309 6.24921 33.2329 7.17488C31.8493 8.60133 31.3396 10.3313 31.6408 12.3059C31.7427 12.9761 31.6466 13.4389 31.0789 13.7827C30.4403 14.1712 29.7514 14.3318 29.082 13.9292C28.8267 13.7759 28.5587 13.4114 28.5409 13.1473C28.494 12.4573 28.6263 12.0554 28.8499 11.1509C29.1684 9.86344 29.4868 8.87663 29.7677 7.68608C29.8614 7.28848 29.9738 6.92874 30.0944 6.52375C30.1287 6.40882 30.2427 6.33612 30.3592 6.31264C30.6509 6.25414 31.1143 6.32286 31.3411 6.32286C31.5679 6.32286 31.7318 6.2282 31.7532 6.07673C31.7719 5.94419 31.7206 5.81923 31.5284 5.73592C31.3973 5.67912 31.1538 5.67912 30.9852 5.66019C30.8603 5.64618 30.4982 5.66019 30.4982 5.52766C30.4982 5.18477 30.6447 4.82181 30.6106 4.63778C30.5544 4.33484 30.0674 4.22124 29.8614 4.46738C29.7458 4.6054 29.643 5.03709 29.5804 5.20578C29.5136 5.38622 29.4306 5.48979 29.1241 5.46271C28.8112 5.43507 28.4457 5.40478 28.3442 5.41405C27.9321 5.45192 27.9509 5.94419 28.2505 6.03886C28.3665 6.07559 28.778 6.12596 29.0352 6.19828C29.0765 6.20969 29.1117 6.23713 29.1332 6.27464C29.1546 6.31215 29.1605 6.3567 29.1496 6.3986C29.1191 6.51845 29.0786 6.73429 29.0599 6.80529C28.5079 8.91165 28.0297 10.6005 27.5021 12.6855C27.296 13.4996 27.0439 13.7515 26.6592 13.954C26.3033 14.1409 25.7135 14.1563 25.423 13.954C25.1461 13.7613 24.9965 13.3461 24.9547 12.9316C24.9264 12.6508 25.1521 11.8624 25.2357 11.5684C25.7116 9.89203 26.2308 8.54851 26.6669 6.8619C26.6734 6.83416 26.6768 6.80578 26.6772 6.77727C26.6897 6.36622 26.1825 6.16288 25.903 6.46184C25.8581 6.50905 25.8186 6.56134 25.7854 6.61766C25.6867 6.7892 25.623 6.98819 25.5715 7.19438C25.5604 7.23967 25.5377 7.28125 25.5059 7.31502C25.474 7.34879 25.434 7.37359 25.3897 7.38697C25.3455 7.40034 25.2986 7.40184 25.2536 7.39131C25.2086 7.38078 25.1671 7.35858 25.1332 7.32691C23.0084 5.34854 20.4859 5.81223 19.0083 8.48072C18.3551 9.66066 18.0839 10.9232 18.1787 12.2813C18.2724 13.6318 16.8488 14.5824 15.6276 13.9913C15.3901 13.8764 14.975 13.4387 14.9696 13.2151C14.9508 12.4517 15.0415 11.7844 15.2432 11.0602C16.0061 8.32149 16.082 7.96232 16.8977 5.23835C16.9676 5.0049 17.0536 4.76028 17.0511 4.52853C17.0487 4.29678 16.8329 4.158 16.6928 4.12695C16.543 4.09344 16.3641 4.10385 16.2165 4.3231C16.0934 4.50562 16.0539 4.71294 15.9917 4.91724C15.1288 7.77621 15.1895 7.80991 14.3509 10.659C14.2011 11.1702 13.9973 12.5126 13.9763 13.0447C13.9388 13.9913 13.2563 14.3185 12.1665 14.2753C11.1738 14.2375 10.6909 13.6219 10.8224 12.5177C10.8655 12.1567 10.979 11.8017 11.0847 11.451C11.5428 9.92819 12.007 8.46236 12.4231 6.92874C12.4679 6.76345 12.5144 6.52451 12.4419 6.32286C12.367 6.1146 12.0298 6.00099 11.8425 6.1714C11.7028 6.29863 11.6102 6.55007 11.5615 6.70154C11.0013 8.44797 10.5849 9.86022 10.0818 11.6243C9.97486 11.9993 9.88215 12.6656 9.89039 13.0591C9.9123 14.0972 10.5181 14.8388 11.5183 15.131C12.5672 15.4371 13.4385 15.0681 14.2548 14.4857C14.3005 14.4531 14.355 14.4356 14.4108 14.4356C14.4667 14.4356 14.5212 14.4531 14.5669 14.4857C16.0207 15.5301 17.3592 15.1809 18.6151 14.1638C18.6645 14.1238 18.7261 14.1024 18.7894 14.1032C18.8527 14.104 18.9137 14.1271 18.962 14.1684C20.4777 15.4632 21.7368 15.4399 23.8224 14.1165C23.9234 14.0525 24.0779 14.0667 24.165 14.1489C25.3825 15.2962 26.1879 15.3171 27.81 14.3886C27.8507 14.3654 27.8965 14.3528 27.9432 14.3522C27.99 14.3515 28.0361 14.3626 28.0775 14.3846C29.837 15.318 30.3385 15.2474 32.1864 14.1455C32.2337 14.1171 32.288 14.1031 32.3429 14.1051C32.3979 14.1071 32.4511 14.125 32.4962 14.1566C34.2543 15.393 35.692 15.3799 37.4306 14.8837C38.0862 14.6964 38.6223 14.3859 39.054 13.9682C39.1494 14.2614 39.2973 14.5343 39.4903 14.7735C39.7774 15.1241 40.1631 15.3809 40.6369 15.5369C41.1818 15.7162 41.7233 15.8065 42.2512 15.8065C42.3433 15.8065 42.435 15.8037 42.5263 15.7982C43.1633 15.7589 43.785 15.5843 44.3509 15.2858C44.4245 15.248 44.7616 15.1283 44.8167 15.1061C45.01 15.028 46.2518 14.5357 47.1756 13.7367C47.3184 13.6132 47.3455 13.6002 47.4023 13.8083C47.5244 14.256 47.7492 14.7415 48.0863 15.108C48.6915 15.7645 49.4349 16.0006 50.3003 16C52.6753 15.9979 54.0052 14.3128 55.2757 11.9096C55.6471 11.2068 55.8367 10.4347 56.1105 9.65233C56.2336 9.30111 56.3016 9.06028 56.4308 8.70319C56.4419 8.67381 56.4629 8.64937 56.4901 8.63421C56.5174 8.61905 56.5491 8.61418 56.5795 8.62045C57.4702 8.72762 58.1803 8.82872 58.795 8.87435C58.9272 8.87435 59.1477 8.86735 59.3067 8.76889C59.3196 8.76251 59.3319 8.75497 59.3434 8.74636C59.4746 8.63276 59.4783 8.42771 59.4472 8.36769C59.441 8.35557 59.4348 8.34345 59.4285 8.33134C59.3412 8.15923 59.1434 8.08047 59.0284 8.04942C58.6691 7.95115 58.1598 7.89908 57.5828 7.81862C57.1031 7.75178 57.1519 7.77961 56.7773 7.68608C56.6981 7.66715 56.7122 7.54408 56.747 7.46929L57.2643 6.1714C57.6764 5.28568 58.0171 4.34071 58.3882 3.48283C58.7935 2.54619 59.025 2.57402 59.5249 2.68383C59.731 2.7289 60.0546 2.82849 60.3362 2.89589C61.0479 3.06629 61.3381 3.16096 62.124 3.18463L62.1897 3.18576C62.7142 3.18576 63.3031 3.02539 63.632 2.68762C63.9235 2.38904 64.0499 1.95508 64.0441 1.53267C64.0328 0.66684 63.2235 2.13756e-07 62.3156 2.13756e-07ZM24.8041 9.67411C24.3947 11.1577 24.3759 11.5961 23.2869 13.1579C22.6051 14.1356 21.3513 14.2738 20.4024 13.8395C19.3454 13.3557 19.1578 12.5232 19.0785 11.5519C19.0771 11.5358 19.0771 11.5196 19.0785 11.5035C19.2109 10.0092 19.7111 8.7013 20.8613 7.71353C21.6293 7.05408 22.5167 6.77822 23.5012 7.17469C24.4731 7.56604 25.0454 8.79994 24.8041 9.67411ZM32.6375 10.2554C32.8958 9.12503 33.3215 8.44096 33.8323 7.98902C34.3341 7.54484 35.0009 7.24171 35.6707 7.05749C36.6822 6.77954 37.6237 7.27579 37.9718 8.17835C38.2967 9.02109 37.8878 9.90926 36.9449 10.4525C35.7986 11.1129 34.5914 11.4058 33.1258 11.1928C32.6897 11.1293 32.5382 10.6893 32.6375 10.2554ZM55.4958 8.69562C55.4866 8.79919 55.4549 8.92547 55.4209 9.04608C55.4128 9.07448 55.4034 9.10288 55.3928 9.12977C55.3255 9.30471 55.109 10.0541 54.9223 10.5261C54.4914 11.6157 54.0174 12.6624 53.2178 13.5366C52.2595 14.5843 51.5035 15.2695 49.7818 15.0789C49.1914 15.0134 48.0114 14.1424 48.3225 12.6327C48.4587 11.9719 48.6857 11.5485 48.9837 11.1984C50.3527 9.59023 51.5629 8.85656 54.3049 8.61383L54.8293 8.57596C54.8574 8.5735 55.3864 8.58107 55.3864 8.58107C55.4013 8.58025 55.4162 8.58268 55.4301 8.5882C55.444 8.59373 55.4566 8.60221 55.467 8.61308C55.4774 8.62394 55.4853 8.63694 55.4903 8.65118C55.4952 8.66542 55.4971 8.68058 55.4958 8.69562ZM63.0927 1.68584C63.0603 1.81724 63.0278 1.91589 62.8978 2.01453C62.6758 2.18266 62.3975 2.27733 62.1695 2.28131H62.1193C61.7087 2.28131 61.28 2.26502 60.8816 2.1785C60.7151 2.14214 60.6214 2.14555 60.3993 2.06868L60.3289 2.04691C60.2637 2.01415 60.2165 1.98348 60.1337 1.94845C60.0849 1.92361 60.0409 1.89021 60.0037 1.84981C59.9766 1.81142 59.9649 1.76403 59.9711 1.71727C60.0037 1.55293 60.5422 1.32308 60.8702 1.2464C61.2806 1.15002 61.6943 1.00727 62.1191 0.962393C62.1317 0.961067 62.1519 0.959931 62.1645 0.959931C62.3636 0.959931 62.6498 1.01919 62.8331 1.15798C62.9109 1.21667 62.9957 1.28938 63.0283 1.35526C63.0609 1.42115 63.1253 1.5872 63.0927 1.68584Z" fill="url(#paint2_linear_384_70000)"/>
<path d="M64.3273 14.6932C64.7499 15.1452 65.2685 15.4572 65.8542 15.5948C66.0753 15.6469 66.3015 15.6732 66.5285 15.6732C67.2693 15.6732 68.0111 15.3941 68.6704 14.8572C69.006 14.5808 69.3011 14.2578 69.547 13.8976C69.548 13.8961 69.5497 13.8951 69.5515 13.8948C70.0104 13.8179 71.0795 13.5691 71.8239 12.8409C71.8251 12.8397 71.8267 12.8389 71.8283 12.8385C71.83 12.8381 71.8318 12.8383 71.8334 12.8389C71.835 12.8395 71.8365 12.8405 71.8375 12.8419C71.8386 12.8432 71.8392 12.8449 71.8394 12.8466C71.8829 13.3669 71.9213 13.9847 72.0168 14.5989C72.019 14.6133 72.0217 14.6275 72.0247 14.6417C72.1483 15.2097 72.6225 15.3491 73.0442 14.9545C73.0832 14.9187 73.1179 14.8784 73.1474 14.8343C74.1238 13.3531 74.9613 12.0726 75.384 11.4153C75.4964 11.2409 76.2746 10.0217 76.4811 9.7756C76.4826 9.7739 76.4845 9.77268 76.4867 9.77208C76.4889 9.77148 76.4912 9.77154 76.4933 9.77224C76.4955 9.77294 76.4974 9.77426 76.4988 9.77604C76.5002 9.77781 76.5011 9.77996 76.5013 9.78223C76.7047 11.4758 76.9321 12.7383 77.1398 14.275C77.1773 14.5495 77.2554 14.9308 77.3676 15.1953C77.4 15.261 77.4 15.261 77.4266 15.3248C77.4558 15.4089 77.524 15.4983 77.5952 15.5602C77.6887 15.6413 77.8079 15.6858 77.9312 15.6857C78.006 15.6858 78.0799 15.6694 78.1478 15.6378C78.2157 15.6062 78.276 15.56 78.3245 15.5024C78.4622 15.34 81.664 11.515 82.1587 7.53671C82.159 7.53421 82.1601 7.5319 82.1619 7.53019C82.1638 7.52849 82.1661 7.52751 82.1686 7.52743C84.2605 7.4517 87.0693 5.96693 87.8865 4.93353C87.9339 4.87361 87.9678 4.80389 87.9856 4.7293C88.0034 4.6547 88.0047 4.57707 87.9895 4.50189C87.9744 4.4267 87.943 4.35581 87.8978 4.29423C87.8525 4.23264 87.7944 4.18188 87.7275 4.14552C87.5057 4.02264 87.2302 4.09137 87.0704 4.28941C86.4711 5.03388 84.1653 6.31246 82.3756 6.46848C82.3741 6.46863 82.3726 6.46844 82.3712 6.46793C82.3698 6.46742 82.3686 6.4666 82.3675 6.46553C82.3665 6.46446 82.3657 6.46316 82.3652 6.46174C82.3647 6.46031 82.3646 6.4588 82.3647 6.45731C82.4466 5.79823 82.2119 5.15695 81.8564 4.6181C81.463 4.02283 80.487 3.48473 79.788 3.92437C79.3924 4.17316 78.8662 4.83034 79.788 6.43856C79.994 6.7983 80.3862 7.22658 81.1205 7.42311C81.123 7.42381 81.1251 7.42541 81.1266 7.4276C81.128 7.42978 81.1286 7.43242 81.1283 7.43504C80.7767 10.1781 78.9485 12.9447 78.0449 14.1689L77.9868 13.965C77.899 13.3934 77.8336 13.0473 77.7952 12.6546C77.6828 11.5042 77.5517 10.3557 77.385 9.21214L77.2889 8.55155C77.2262 8.12081 76.7416 7.87448 76.3917 8.12838C76.3091 8.19206 76.2327 8.26365 76.1636 8.34214C76.0016 8.52277 75.8937 8.74732 75.762 8.9537C74.8492 10.3843 73.9363 11.8147 72.9277 13.3951C72.8662 13.0842 72.8473 12.993 72.8247 12.865C72.4965 11.0284 72.4952 9.14625 72.2852 7.29209C72.2818 7.26448 72.2755 7.23732 72.2665 7.21105C72.1223 6.77558 71.488 6.83617 71.4105 7.28887C71.4058 7.31593 71.4034 7.34337 71.4036 7.37085C71.4097 8.16417 71.5461 8.95559 71.5708 9.74966L71.6903 11.1288C71.6892 11.1365 71.6866 11.1436 71.6858 11.1513C71.5922 12.0804 70.8023 12.5547 70.1456 12.7917C70.1438 12.7924 70.1418 12.7925 70.14 12.7921C70.1381 12.7916 70.1364 12.7906 70.1351 12.7892C70.1337 12.7878 70.1328 12.7861 70.1325 12.7841C70.1321 12.7822 70.1323 12.7803 70.1331 12.7785C70.228 12.5319 70.3056 12.2788 70.3653 12.0211C70.9227 9.59763 69.8055 7.25611 67.8741 6.80228C66.1084 6.38725 64.2666 7.69575 63.5384 9.77712C63.5271 9.80151 63.5181 9.82685 63.5112 9.85285C63.455 10.0233 63.4028 10.1965 63.3614 10.3762C63.0959 11.5311 63.1971 12.7027 63.6461 13.6769C63.6918 13.7763 63.7431 13.8698 63.7959 13.9626C63.7524 13.9625 63.7091 13.9689 63.6674 13.9815C61.9817 14.5041 60.837 14.4974 60.3542 13.9626C59.7795 13.3247 60.1633 11.9367 60.3592 11.4552L62.4127 5.42391C62.4887 5.2005 62.3939 4.94792 62.1813 4.84833C62.1238 4.82092 62.0612 4.80607 61.9976 4.80475C61.934 4.80343 61.8708 4.81568 61.8122 4.84069C61.7536 4.8657 61.7009 4.90291 61.6575 4.9499C61.6141 4.99689 61.5809 5.0526 61.5602 5.1134L59.518 11.1172C59.433 11.3302 58.6403 13.4143 59.6838 14.576C60.1039 15.0435 60.7413 15.2766 61.5891 15.2766C62.3894 15.2794 63.1838 15.1367 63.9341 14.8551C64.1128 14.7883 64.2134 14.7487 64.296 14.7014L64.3273 14.6932ZM69.4844 11.8136C69.4261 12.0654 69.347 12.3118 69.248 12.5503L69.2493 12.5515C69.2493 12.5515 69.2196 12.6245 69.1652 12.7408C69.1508 12.7713 69.1364 12.8018 69.1216 12.8319C68.8644 13.3592 68.2632 14.1095 67.4418 14.5516C67.4388 14.5533 67.4351 14.5516 67.4317 14.5516C66.9796 14.7508 66.5096 14.807 66.0593 14.701C65.3803 14.5416 64.8156 14.0398 64.4693 13.2883C64.2833 12.8847 64.1735 12.4363 64.1391 11.9662V11.9649C64.1016 11.643 64.1334 10.23 64.6294 9.42098C65.2101 8.31715 66.2148 7.63952 67.2036 7.63952C67.3606 7.63942 67.5172 7.65759 67.6702 7.69367C69.1154 8.03447 69.9289 9.88239 69.4844 11.8146V11.8136ZM81.3623 6.05895C81.3158 6.2373 81.1487 6.35412 80.9907 6.26172C80.8526 6.18107 80.7766 6.07447 80.6846 5.9141C80.233 5.12552 80.3287 4.85136 80.3347 4.81368C80.3596 4.64328 80.5104 4.61034 80.5874 4.61034C80.6953 4.61034 80.8264 4.6465 80.9172 4.7353C81.1459 4.95871 81.2396 5.11018 81.3357 5.39797C81.409 5.61111 81.4183 5.84144 81.3623 6.05989V6.05895Z" fill="url(#paint3_linear_384_70000)"/>
<defs>
<linearGradient id="paint0_linear_384_70000" x1="1.6307e-07" y1="8.88889" x2="88.7715" y2="0.0117375" gradientUnits="userSpaceOnUse">
<stop stop-color="#4598FB"/>
<stop offset="1" stop-color="#D15EAE"/>
</linearGradient>
<linearGradient id="paint1_linear_384_70000" x1="1.6307e-07" y1="8.88889" x2="88.7715" y2="0.0117375" gradientUnits="userSpaceOnUse">
<stop stop-color="#4598FB"/>
<stop offset="1" stop-color="#D15EAE"/>
</linearGradient>
<linearGradient id="paint2_linear_384_70000" x1="1.6307e-07" y1="8.88889" x2="88.7715" y2="0.0117375" gradientUnits="userSpaceOnUse">
<stop stop-color="#4598FB"/>
<stop offset="1" stop-color="#D15EAE"/>
</linearGradient>
<linearGradient id="paint3_linear_384_70000" x1="1.6307e-07" y1="8.88889" x2="88.7715" y2="0.0117375" gradientUnits="userSpaceOnUse">
<stop stop-color="#4598FB"/>
<stop offset="1" stop-color="#D15EAE"/>
</linearGradient>
</defs>
</svg>
