<svg width="277" height="34" viewBox="0 0 277 34" fill="none" xmlns="http://www.w3.org/2000/svg">
<path d="M26.4396 17.5728C26.4396 25.7833 19.7276 32.4954 11.4551 32.4954C6.88545 32.4954 2.72446 30.4149 0 27.1703H4.85449C10.5882 27.1703 10.8111 21.2136 10.8111 21.2136H4.03715C3.45511 21.2136 0.44582 20.7554 0.44582 17.3994C0.44582 13.9814 3.80186 13.8081 4.03715 13.8081H10.1176C15.8514 13.8081 16.0743 7.8514 16.0743 7.8514H0C2.77399 4.60682 6.82353 2.58824 11.4551 2.58824C19.7276 2.65016 26.4396 9.36224 26.4396 17.5728Z" fill="#FC525A"/>
<path d="M49.2137 25.8889C47.418 25.8889 45.6843 25.4671 44.1239 24.6362C42.6255 23.8053 41.3995 22.6036 40.5326 21.108C39.6657 19.5612 39.2075 17.8226 39.2571 16.033C39.2571 14.2433 39.6657 12.5047 40.5326 11.0219C41.3995 9.52622 42.6131 8.33736 44.1239 7.49366C45.6843 6.66274 47.48 6.17697 49.2756 6.24089C50.7741 6.24089 52.223 6.53491 53.61 7.13573C54.8855 7.67263 55.9877 8.56746 56.8546 9.64127L54.1301 12.2746C53.5481 11.5588 52.8546 11.0219 52.0496 10.6C51.2447 10.2421 50.3654 9.9992 49.4985 9.9992C48.4583 9.9992 47.3561 10.2421 46.4273 10.779C45.5605 11.252 44.805 12.0318 44.3468 12.9266C43.8267 13.8854 43.5914 14.9592 43.5914 16.0969C43.5914 17.1707 43.8267 18.3084 44.3468 19.2672C44.867 20.162 45.5605 20.9418 46.4273 21.4148C47.3561 21.9517 48.3964 22.1945 49.4985 22.1945C50.3654 22.1945 51.2942 22.0156 52.0496 21.5937C52.8546 21.1719 53.5481 20.635 54.1301 19.9191L56.8546 22.5525C55.9877 23.6263 54.8855 24.5211 53.61 25.058C52.223 25.5821 50.7245 25.8889 49.2137 25.8889Z" fill="#02221F"/>
<path d="M85.2013 10.894L78.7741 26.4258C78.1425 28.1005 77.3252 29.2893 76.3468 30.0052C75.3066 30.7211 74.1425 31.079 72.8793 31.0151H70.1549L71.48 27.5508H72.7555C73.2756 27.5508 73.7338 27.4357 74.1425 27.1289C74.5512 26.771 74.8979 26.298 75.0713 25.7611L75.1332 25.6461L75.0713 25.4671L73.5728 21.8877L69.0032 10.894H73.2261L77.2137 20.8139L81.2013 10.894H85.2013Z" fill="#02221F"/>
<path d="M101.399 14.2944C100.817 13.1567 99.9009 12.2619 98.8483 11.661C96.5325 10.3444 92.421 9.93529 90.8111 12.6198V10.9452H86.873V30.8361H90.9845V24.0226C92.0248 25.2114 93.4117 25.8122 95.2693 25.8122C96.5449 25.8122 97.7585 25.5182 98.8607 24.9174C99.9628 24.3166 100.83 23.3706 101.412 22.284C102.043 21.0952 102.341 19.7146 102.341 18.3467C102.39 16.8639 102.043 15.4961 101.399 14.2944ZM97.1269 21.223C96.7802 21.5809 96.3715 21.875 95.9752 22.0539C95.517 22.2329 95.0464 22.3479 94.5882 22.2968C94.13 22.2968 93.6099 22.2329 93.2012 22.0539C92.743 21.875 92.3343 21.5809 91.9876 21.223C91.2941 20.5071 91.0093 19.4845 91.0093 18.2317C91.0093 16.9789 91.356 16.0202 91.9876 15.3043L92.0991 15.1893C92.4458 14.8313 92.7926 14.5884 93.2508 14.4095C93.6594 14.2305 94.1176 14.1666 94.5758 14.1666C94.8607 14.1666 95.096 14.1666 95.3808 14.2305C96.0743 14.3456 96.7059 14.7035 97.1765 15.2404C97.87 15.9563 98.2167 16.9789 98.2167 18.1678C98.1672 19.4973 97.8204 20.456 97.1269 21.223Z" fill="#02221F"/>
<path d="M113.09 21.8877C112.632 22.2457 112.05 22.4247 111.468 22.4247C111.232 22.4247 111.009 22.4246 110.774 22.3096C110.539 22.2457 110.365 22.0667 110.143 21.9517C109.858 21.5298 109.684 21.0568 109.684 20.5199V14.5501H111.938L112.05 14.3072L113.201 11.3159H109.672V7.73654H105.561V11.3159H103.356V14.6012H105.561V20.5199C105.561 22.2457 106.019 23.5624 106.948 24.4572C107.876 25.352 109.152 25.7739 110.886 25.7739C111.517 25.7739 112.099 25.71 112.743 25.531C113.263 25.416 113.783 25.1731 114.242 24.8151L113.09 21.8877Z" fill="#02221F"/>
<path d="M122.873 25.7611C121.486 25.7611 120.099 25.4671 118.824 24.8024C117.672 24.2015 116.743 23.2556 116.05 22.1178C115.356 20.929 115.009 19.6123 115.071 18.2317C115.071 16.8639 115.418 15.5472 116.05 14.3456C116.681 13.2078 117.672 12.313 118.824 11.661C120.099 11.0091 121.424 10.6512 122.873 10.7023C124.26 10.7023 125.647 10.9963 126.861 11.661C128.012 12.2619 128.941 13.2078 129.635 14.3456C130.328 15.5344 130.675 16.8511 130.613 18.2317C130.613 19.5995 130.266 20.9162 129.635 22.1178C128.941 23.2556 128.012 24.2143 126.861 24.8024C125.585 25.4671 124.26 25.7611 122.873 25.7611ZM122.873 22.2968C123.331 22.2968 123.851 22.2329 124.26 22.0539C124.718 21.875 125.127 21.5809 125.412 21.223C126.105 20.5071 126.452 19.4845 126.452 18.2317C126.452 16.9789 126.105 16.0202 125.412 15.3043C125.065 14.9464 124.656 14.6524 124.26 14.4734C123.802 14.2944 123.331 14.1794 122.873 14.2305C122.415 14.2305 121.895 14.2944 121.424 14.5245C120.966 14.7035 120.557 14.9975 120.211 15.3554C119.517 16.0713 119.17 17.0812 119.17 18.2828C119.17 19.5356 119.517 20.4944 120.211 21.2741C120.557 21.6321 120.966 21.9261 121.424 22.1051C121.882 22.2457 122.353 22.2968 122.873 22.2968Z" fill="#02221F"/>
<path d="M147.864 17.1707V25.531H143.753V17.8226C143.753 16.6849 143.517 15.7901 142.997 15.2532C142.65 14.8952 142.242 14.6012 141.783 14.4734C141.499 14.4095 141.201 14.3583 140.855 14.3583C140.05 14.2944 139.232 14.6012 138.601 15.1893C138.539 15.2532 138.489 15.3043 138.427 15.3682C137.845 16.0202 137.499 16.9789 137.499 18.2956V25.5182H133.387V10.894H137.325V12.6326C137.325 12.2746 138.019 11.7377 138.254 11.5588C138.712 11.2008 139.294 10.958 139.876 10.8429C142.019 10.3699 144.619 10.7279 146.242 12.3386C147.282 13.3996 147.864 15.0103 147.864 17.1707Z" fill="#02221F"/>
<path d="M68.2477 14.6012H66.9227C66.2292 14.6012 65.5976 14.8441 65.0651 15.202C64.8917 15.3171 64.7183 15.4449 64.6069 15.6239C63.9134 16.2758 63.6285 17.2985 63.6285 18.6663V25.5821H59.5171V10.958H63.4552V12.8627C63.6905 12.6198 63.8019 12.2619 64.0372 11.9678C64.322 11.6738 64.6688 11.367 65.0155 11.1881C66.0558 10.6512 67.158 10.6512 68.2601 10.7151V14.6012H68.2477Z" fill="#02221F"/>
<g clip-path="url(#clip0_96_1001)">
<path d="M200.113 32C199.558 32.0051 198.992 31.9949 198.452 31.9747C197.998 31.9595 197.407 31.8381 197.023 31.57C196.509 31.2109 196.206 30.614 196.014 30.0373C195.711 29.1268 195.655 28.1252 195.64 27.1641C195.635 26.3193 195.872 24.5741 195.292 23.8811C194.737 23.2134 193.565 23.1628 193.126 22.3737C192.742 21.6857 193.389 21.1344 193.888 20.6791C194.328 20.2795 194.949 19.9557 195.277 19.4549C195.615 18.9339 195.539 18.6405 195.534 17.9678C195.504 13.6832 195.347 9.40373 195.211 5.12425C195.216 4.36042 195.257 3.62188 195.544 2.90357C195.771 2.33702 196.11 1.80588 196.534 1.38097C196.902 1.0117 197.463 0.672779 197.947 0.505849C198.482 0.323743 199.038 0.257983 199.608 0.227632C199.931 0.227632 200.093 0.227632 200.416 0.227632C200.986 0.217515 201.557 0.328802 202.062 0.495732C202.627 0.682896 203.087 0.961113 203.546 1.36073C204 1.75024 204.359 2.30667 204.621 2.86816C204.944 3.57129 205.035 4.30983 205.091 5.07366C205.187 8.21499 205.283 11.3614 205.348 14.5027C204.212 14.5128 203.076 14.528 201.941 14.5381C201.88 11.5384 201.784 8.53873 201.688 5.53905C201.643 4.88144 201.612 4.17325 201.224 3.62694C200.956 3.24755 200.613 3.05533 200.244 3.06039C200.123 3.06039 200.063 3.06039 199.941 3.06039C199.568 3.06039 199.235 3.24755 198.992 3.61176C198.624 4.16314 198.629 4.94214 198.649 5.60481C198.78 9.7123 198.922 13.8198 198.952 17.9273C198.957 18.5899 199.048 18.9238 198.694 19.4347C198.422 19.8293 197.942 20.1277 197.589 20.4464C197.114 20.8713 196.256 21.4733 196.473 22.227C196.7 23.006 198.043 23.264 198.578 23.8002C199.225 24.4477 199.023 25.7022 199.058 26.5824C199.053 27.3917 199.083 28.3326 199.452 29.061C199.709 29.5669 200.032 29.8097 200.406 29.8046C200.527 29.8046 200.588 29.8046 200.709 29.8046C201.077 29.8046 201.416 29.5568 201.673 29.056C202.047 28.3326 202.087 27.4018 202.082 26.5874C202.057 25.9652 202.112 25.171 201.991 24.5488C201.86 23.866 201.436 23.6535 200.885 23.3045C199.613 22.5002 199.068 22.0651 200.234 20.7954C201.385 20.7853 202.536 20.7752 203.687 20.7651C202.42 22.1663 203.213 22.5356 204.49 23.4208C205.697 24.2656 205.469 25.7932 205.485 27.1641C205.459 28.1353 205.404 29.1369 205.071 30.0221C204.854 30.6039 204.576 31.1906 204.031 31.57C203.637 31.8432 203.031 31.9595 202.572 31.9747C202.042 31.9949 201.481 32.0051 200.936 32C200.598 32 200.436 32 200.113 32Z" fill="#02221F"/>
<path d="M217.606 14.3661C217.591 15.1755 217.565 16.0152 217.136 16.7183C216.854 17.1837 216.419 17.5681 215.899 17.7452C216.43 17.8767 216.854 18.2966 217.151 18.6911C217.596 19.2779 216.414 20.3452 216.046 20.6892C215.132 21.7464 215.173 22.2725 216.253 23.092C216.601 23.355 217.126 23.5877 217.348 23.9924C217.621 24.4831 217.56 25.2317 217.631 25.7679C217.772 27.4979 217.611 29.2634 217.868 30.9832C218 31.8381 218.116 31.9342 218.217 31.9697C217.091 31.9697 215.96 31.9697 214.834 31.9697C214.385 31.6459 214.425 30.963 214.39 30.4723C214.274 28.9295 214.37 27.3209 214.254 25.7528C214.087 24.4123 214.097 23.9519 212.966 23.1729C211.972 22.49 211.639 21.9741 212.401 20.932C212.517 20.8157 214.41 18.858 213.047 19.0199C212.441 19.03 211.841 19.0351 211.235 19.0452C210.614 19.7433 208.458 21.1394 208.943 22.3181C209.301 23.1831 210.654 23.264 211.053 24.1138C211.462 24.9788 211.28 26.5773 211.285 27.4878C211.29 28.9801 211.28 30.4774 211.275 31.9697C210.144 31.9697 209.013 31.9697 207.883 31.9697C207.898 30.1789 207.933 28.3832 207.903 26.5925C207.893 26.0259 207.893 25.3936 207.792 24.8271C207.635 23.9519 207.438 23.7597 206.676 23.2589C205.868 22.7328 205.061 22.2574 205.677 21.2608C206.111 20.5577 206.944 20.1328 207.469 19.5005C207.923 18.9542 207.837 18.509 207.832 17.8109C207.787 12.0291 207.549 6.25229 207.413 0.475498C209.21 0.470439 211.008 0.465381 212.805 0.460322C213.981 0.455264 215.102 0.880177 215.98 1.65918C217.02 2.58489 217.318 3.89504 217.399 5.23048C217.475 8.28075 217.555 11.3209 217.606 14.3661ZM213.032 16.5514C214.153 16.5463 214.228 15.0136 214.203 14.2144C214.153 11.3968 214.072 8.5792 213.996 5.76668C213.951 5.11413 213.915 4.43629 213.542 3.88998C213.274 3.49542 212.921 3.29813 212.517 3.30319C211.977 3.30825 211.437 3.30825 210.897 3.31331C211.018 7.73443 211.159 12.1555 211.215 16.5767C211.825 16.5666 212.426 16.5615 213.032 16.5514Z" fill="#02221F"/>
<path d="M224.285 21.2962C223.583 22.2725 224.901 22.9655 225.476 23.4815C226.097 24.0379 226.127 24.5893 226.218 25.3784C226.466 27.5485 226.334 29.7844 226.339 31.9697C225.214 31.9697 224.088 31.9697 222.967 31.9697C222.967 29.7793 223.083 27.5435 222.851 25.3633C222.765 24.564 222.735 24.0278 222.099 23.4815C221.528 22.9908 220.155 22.2978 220.862 21.3215C221.23 20.3149 222.402 19.7585 222.382 18.5899C222.366 17.7199 222.048 16.7335 221.887 15.8837C221.594 14.3206 221.296 12.7626 220.993 11.2046C220.291 7.61808 219.565 4.03667 218.863 0.445147C219.989 0.440089 221.109 0.440089 222.235 0.43503C223.008 5.07366 223.82 9.70218 224.573 14.3408C224.613 14.3408 224.633 14.3408 224.673 14.3408C225.289 9.70218 225.85 5.05849 226.461 0.419855C227.586 0.414796 228.707 0.414796 229.833 0.409738C229.257 3.98609 228.712 7.56244 228.147 11.1388C227.884 12.798 227.622 14.4521 227.349 16.1113C227.218 16.9055 227.203 17.9425 226.915 18.6962C226.481 19.809 225.087 20.5071 224.285 21.2962Z" fill="#02221F"/>
<path d="M237.017 0.384445C238.183 0.379387 239.299 0.794183 240.177 1.56813C241.207 2.47866 241.485 3.77869 241.55 5.0939C241.596 8.81189 241.646 12.5299 241.661 16.2479C241.671 17.5833 241.363 18.681 240.132 19.3133C239.001 19.895 237.703 20.1328 236.436 20.148C235.709 20.153 234.987 20.1631 234.26 20.1682C233.407 20.9978 232.655 21.7464 233.584 22.8037C234.281 23.5928 234.836 23.7294 234.992 24.8524C235.32 27.1944 235.204 29.5972 235.214 31.9646C234.089 31.9646 232.963 31.9646 231.837 31.9646C231.827 30.184 231.832 28.4034 231.802 26.6228C231.792 26.0563 231.731 25.515 231.63 24.9535C231.474 24.0582 231.357 23.8558 230.691 23.2336C229.959 22.5457 229.363 22.0702 229.979 21.0737C230.429 20.3503 231.221 19.9659 231.63 19.197C231.928 18.6355 231.872 18.1397 231.872 17.5125C231.847 11.8065 231.706 6.10054 231.62 0.394562C233.422 0.399621 235.22 0.394562 237.017 0.384445ZM238.153 5.61998C238.117 4.97755 238.092 4.30983 237.723 3.76857C237.461 3.38413 237.113 3.18685 236.709 3.18685C236.174 3.19191 235.639 3.19191 235.098 3.19697C235.174 8.00253 235.265 12.803 235.28 17.6086C235.881 17.6035 236.477 17.5934 237.077 17.5884C238.183 17.5833 238.279 16.0809 238.264 15.2817C238.243 12.0594 238.198 8.83718 238.153 5.61998Z" fill="#02221F"/>
<path d="M253.374 3.0705C252.248 3.07556 251.127 3.08062 250.001 3.08568C250.021 5.92855 250.052 8.77142 250.067 11.6143C250.077 12.8132 250.082 14.012 250.082 15.2109C250.087 16.3136 250.228 17.5782 250.016 18.6608C249.769 19.9304 248.179 20.4363 248.053 21.6959C247.942 22.7733 249.123 23.1426 249.517 23.9722C249.941 24.8726 249.895 26.3598 249.9 27.326C249.915 28.8739 249.946 30.4268 249.966 31.9747C248.84 31.9747 247.714 31.9747 246.589 31.9747C246.573 30.4268 246.543 28.8739 246.528 27.326C246.518 26.3598 246.578 24.8574 246.144 23.9621C245.745 23.1426 244.529 22.7885 244.63 21.711C244.741 20.4717 246.346 19.9406 246.619 18.7012C246.856 17.6339 246.695 16.344 246.69 15.2463C246.684 14.0474 246.679 12.8435 246.669 11.6446C246.649 8.79671 246.614 5.94878 246.589 3.10085C245.468 3.10591 244.342 3.11097 243.221 3.11603C243.211 2.20044 243.201 1.2798 243.196 0.364211C246.584 0.354094 249.971 0.343977 253.358 0.328802C253.363 1.24439 253.369 2.15997 253.374 3.0705Z" fill="#02221F"/>
<path d="M259.568 32C259.017 32.0051 258.452 31.9949 257.917 31.9697C257.463 31.9494 256.867 31.8179 256.488 31.5346C255.943 31.1299 255.665 30.528 255.433 29.926C255.1 29.061 255.029 28.0746 254.994 27.1388C254.989 26.0158 254.959 24.5438 254.353 23.5827C253.843 22.7733 252.924 22.3889 253.353 21.3013C253.606 20.669 254.186 20.3705 254.575 19.8647C254.898 19.4398 255.125 19.03 255.206 18.4635C255.357 17.3506 255.211 16.1214 255.206 14.9934C255.196 10.1018 255.155 5.2153 255.135 0.323743C256.276 0.318685 257.412 0.318685 258.553 0.313626C258.568 5.11413 258.598 9.91464 258.603 14.7151C258.603 15.7774 258.609 16.8397 258.603 17.9071C258.598 18.4382 258.548 19.1717 258.245 19.6421C257.876 20.2137 257.134 20.4717 256.837 21.1546C256.433 22.0752 256.867 22.5862 257.457 23.2842C258.225 24.1846 258.331 25.51 258.366 26.6734C258.376 27.417 258.437 28.282 258.8 28.9497C259.078 29.4556 259.401 29.7034 259.77 29.7034C259.891 29.7034 259.951 29.7034 260.073 29.7034C260.441 29.7034 260.769 29.4455 261.012 28.9447C261.335 28.277 261.39 27.4271 261.38 26.6785C261.345 25.5251 261.224 24.1846 260.481 23.2842C259.896 22.576 259.487 22.055 259.896 21.1394C260.199 20.4565 260.956 20.1935 261.314 19.6168C261.597 19.1565 261.627 18.3927 261.627 17.8767C261.632 16.8144 261.632 15.7521 261.632 14.6949C261.632 9.89946 261.607 5.10907 261.597 0.313626C262.738 0.308568 263.879 0.308568 265.02 0.303509C265.025 5.16978 265.045 10.031 265.045 14.8972C265.045 16.0405 265.131 17.214 265.04 18.3471C264.995 18.9491 264.868 19.3083 264.54 19.7736C264.162 20.3048 263.561 20.6032 263.293 21.2507C262.849 22.3433 263.682 22.7379 264.157 23.5979C264.697 24.5741 264.768 26.031 264.778 27.1489C264.798 28.0746 264.717 29.0711 264.429 29.921C264.232 30.5179 263.975 31.1299 263.44 31.5397C263.061 31.828 262.45 31.9595 261.996 31.9747C261.466 31.9949 260.911 32.0051 260.37 32.0051C260.047 32 259.891 32 259.568 32Z" fill="#02221F"/>
<path d="M273.855 13.7237C273.855 10.8555 273.855 7.9823 273.855 5.11413C273.829 4.48182 273.824 3.79893 273.451 3.2779C273.193 2.91369 272.86 2.73158 272.487 2.73158C272.365 2.73158 272.305 2.73158 272.184 2.73158C271.81 2.73158 271.472 2.91369 271.219 3.26273C270.841 3.78375 270.816 4.53747 270.816 5.17989C270.816 6.60133 270.816 8.02276 270.821 9.4442C270.821 10.8403 271.113 12.2567 271.83 13.4556C272.153 14.0019 272.269 14.0677 274.052 16.7335C274.344 17.1736 274.637 17.6187 274.789 18.2763C274.986 19.1211 274.784 19.5814 274.809 20.2947C274.829 20.9371 275.041 21.8476 275.899 22.9453C276.783 24.0733 276.985 25.7174 277.005 27.1388C277.03 28.0594 276.964 29.0458 276.702 29.8957C276.515 30.5027 276.268 31.1249 275.718 31.5296C275.334 31.8128 274.728 31.9494 274.264 31.9697C273.718 31.9949 273.153 32 272.598 32C272.315 32 272.174 32 271.891 32C271.336 32 270.77 31.9949 270.225 31.9697C269.745 31.9494 269.134 31.8078 268.726 31.5296C268.145 31.135 267.847 30.528 267.6 29.9108C267.261 29.0661 267.161 28.0696 267.14 27.1439C267.13 26.0057 267.039 24.3819 266.388 23.4208C265.51 22.1258 265.267 21.5947 266.398 20.2289C267.453 20.2188 268.513 20.2087 269.569 20.1985C268.574 21.4075 268.473 22.0348 269.387 23.264C270.023 24.1239 270.225 25.601 270.26 26.6835C270.275 27.417 270.402 28.2921 270.755 28.9194C270.952 29.2735 271.431 29.6883 271.881 29.6731C271.982 29.6731 272.032 29.6731 272.133 29.6731C272.567 29.6731 272.941 29.4151 273.193 28.9143C273.521 28.2668 273.587 27.4271 273.572 26.6886C273.643 25.8893 273.284 23.8558 272.739 23.2943C272.073 22.5052 271.487 21.5745 271.633 20.4869C271.729 19.7736 272.118 19.6067 271.739 18.939C271.426 18.3775 271.012 17.8615 270.629 17.3506C269.831 16.2934 269.089 15.2008 268.413 14.0677C267.675 12.8283 267.443 11.4271 267.403 10.0006C267.403 8.24028 267.398 6.47993 267.393 4.71957C267.423 3.97597 267.489 3.26778 267.792 2.57983C268.039 2.0234 268.397 1.4872 268.852 1.11287C269.281 0.758773 269.771 0.445147 270.316 0.2681C270.856 0.0910527 271.411 0.0303508 271.987 -9.80217e-08C272.189 -9.80217e-08 272.29 -9.80217e-08 272.492 -9.80217e-08C273.017 -0.0101171 273.617 0.10117 274.107 0.257983C274.652 0.429972 275.142 0.738539 275.576 1.08758C276.025 1.45684 276.379 1.98799 276.611 2.53936C276.899 3.22226 276.959 3.93045 276.99 4.66393C276.99 7.67373 276.99 10.6785 276.99 13.6883C275.95 13.7034 274.9 13.7136 273.855 13.7237Z" fill="#02221F"/>
</g>
<path d="M179 25L164 10" stroke="#02221F" stroke-width="2"/>
<path d="M179 10L164 25" stroke="#02221F" stroke-width="2"/>
<defs>
<clipPath id="clip0_96_1001">
<rect width="84" height="32" fill="white" transform="translate(193)"/>
</clipPath>
</defs>
</svg>
