<svg width="320" height="298" viewBox="0 0 320 298" fill="none" xmlns="http://www.w3.org/2000/svg">
<mask id="mask0_153_2238" style="mask-type:alpha" maskUnits="userSpaceOnUse" x="0" y="0" width="320" height="298">
<rect width="320" height="298" fill="#F8F8F8"/>
</mask>
<g mask="url(#mask0_153_2238)">
<path d="M209.671 131.29C209.671 131.29 170.059 90.7424 148.311 103.895C126.557 116.787 110.156 214.329 137.47 225.549C164.784 236.769 266.541 199.512 262.606 175.76C258.666 151.749 221.088 141.757 209.671 131.29Z" stroke="#457C75" stroke-miterlimit="10"/>
<path d="M204.082 137.51C204.082 137.51 170.344 102.974 151.931 114.113C133.368 125.125 119.422 208.173 142.729 217.773C165.886 227.246 252.629 195.599 249.218 175.353C245.8 154.847 213.993 146.442 204.082 137.51Z" stroke="#457C75" stroke-miterlimit="10"/>
<path d="M200.213 141.876C200.213 141.876 170.543 111.562 154.302 121.23C138.06 130.898 125.792 203.891 146.129 212.244C166.466 220.597 242.713 192.785 239.65 174.876C236.886 157.222 208.925 149.789 200.213 141.876Z" stroke="#457C75" stroke-miterlimit="10"/>
<path d="M194.055 148.887C194.055 148.887 171.015 125.483 158.395 132.872C145.782 140.521 136.216 196.933 152.101 203.544C167.837 210.027 226.882 188.516 224.647 174.628C222.412 160.739 200.666 155.016 194.055 148.887Z" stroke="#457C75" stroke-miterlimit="10"/>
<path d="M188.753 154.842C188.753 154.842 171.281 136.934 161.715 142.836C152.143 148.477 144.912 191.568 156.935 196.426C168.957 201.285 213.714 184.98 212.146 174.464C210.428 163.821 193.859 159.435 188.753 154.842Z" stroke="#457C75" stroke-miterlimit="10"/>
<path d="M226.446 119.269C226.446 119.269 209.247 113.072 194.497 92.1209C179.748 71.1696 138.192 54.4805 116.14 98.7516C94.0872 143.023 114.427 214.642 113.669 232.621C112.912 250.599 138.34 250.268 168.001 242.308C197.662 234.349 269.22 213.522 287.231 204.083C305.243 194.643 328.565 167.012 226.446 119.269Z" stroke="#457C75" stroke-miterlimit="10"/>
<path d="M239.353 111.614C239.353 111.614 232.922 106.914 219.204 86.0744C205.48 64.9743 169.611 20.9744 140.192 39.3435C110.773 57.7125 91.7648 87.4783 92.2662 127.955C92.6175 168.304 100.952 204.212 99.4397 227.672C97.9275 251.132 98.1486 273.258 124.931 267.955C151.713 262.652 213.697 241.088 244.139 235.067C274.436 229.179 330.313 204.211 339.138 185.435C347.964 166.659 308.041 131.715 289.295 128.541C270.699 125.494 247.645 120.446 239.353 111.614Z" stroke="#457C75" stroke-miterlimit="10"/>
<path d="M246.55 104.974C246.55 104.974 235.461 89.6843 223.26 64.521C211.059 39.3577 174.615 2.26781 141.104 15.3738C107.593 28.4799 82.2986 59.7919 80.1394 112.293C77.9802 164.795 94.2491 194.18 89.384 218.872C84.669 243.692 73.6525 282.035 93.8199 283.101C113.987 284.166 220.555 245.129 251.938 241.695C283.472 238.388 347.894 226.803 364.063 188.758C380.232 150.712 321.32 121.06 293.756 118.046C266.191 115.032 255.489 110.019 246.55 104.974Z" stroke="#457C75" stroke-miterlimit="10"/>
<path d="M249.907 97.6232C249.907 97.6232 242.365 89.4287 238.305 66.5909C234.388 43.6203 196.195 -11.7931 155.879 -6.76476C115.564 -1.73642 74.1141 24.0111 65.3007 68.5623C56.4872 113.114 88.2917 190.904 77.9964 234.961C67.7012 279.019 60.4181 300.891 75.1508 302.185C89.8897 303.74 217.588 256.639 256.278 251.249C294.817 245.732 366.417 226.727 383.609 201.03C400.945 175.2 372.956 122.335 321.57 112.854C270.772 103.363 266.55 111.51 249.907 97.6232Z" stroke="#457C75" stroke-miterlimit="10"/>
<path d="M264.758 91.3652C264.758 91.3652 254.848 88.8115 252.288 67.2482C249.871 45.5522 238.937 -0.983543 187.884 -21.4055C136.832 -41.8274 83.0473 3.54091 68.1356 32.4513C53.2239 61.3616 55.7841 133.434 62.7974 163.118C69.9606 192.929 65.9607 223.203 58.1942 255.889C50.5776 288.703 40.6158 321.819 68.4011 321.705C96.3364 321.718 194.553 277.625 252.832 267.454C310.968 257.416 359.622 256.922 391.97 219.103C424.317 181.284 396.656 123.597 362.953 109.499C329.394 95.2679 288.618 105.772 264.758 91.3652Z" stroke="#457C75" stroke-miterlimit="10"/>
<path d="M264.758 91.3652C264.758 91.3652 254.848 88.8115 252.288 67.2482C249.871 45.5522 238.937 -0.983543 187.884 -21.4055C136.832 -41.8274 83.0473 3.54091 68.1356 32.4513C53.2239 61.3616 55.7841 133.434 62.7974 163.118C69.9606 192.929 65.9607 223.203 58.1942 255.889C50.5776 288.703 40.6158 321.819 68.4011 321.705C96.3364 321.718 194.553 277.625 252.832 267.454C310.968 257.416 359.622 256.922 391.97 219.103C424.317 181.284 396.656 123.597 362.953 109.499C329.394 95.2679 288.618 105.772 264.758 91.3652Z" stroke="#457C75" stroke-miterlimit="10"/>
<path d="M274.679 88.0606C274.679 88.0606 261.798 77.8802 259.956 49.2743C258.407 20.6629 225.642 -35.2396 156.91 -38.2868C88.1775 -41.3341 46.4425 22.6913 39.8986 51.0591C33.3548 79.4269 52.0084 148.083 55.7959 184.464C59.5835 220.846 45.396 268.229 35.216 291.976C25.0359 315.723 44.9351 349.469 75.1961 342.02C105.457 334.57 205.596 278.336 267.53 273.566C329.464 268.796 389.897 256.372 416.694 213.837C443.492 171.303 414.263 128.354 386.875 107.632C359.486 86.9104 309.726 103.045 274.679 88.0606Z" stroke="#457C75" stroke-miterlimit="10"/>
<path d="M282.464 81.4102C282.464 81.4102 268.539 70.5979 266.792 39.7772C264.901 9.08922 229.988 -50.6797 156.396 -54.0292C82.8052 -57.3787 37.946 11.3899 30.8628 41.8504C23.7796 72.3109 43.724 145.89 47.8661 184.869C52.0082 223.847 36.7298 274.895 25.8483 300.087C14.9728 325.539 36.2522 361.733 68.7086 353.854C101.015 345.846 208.705 285.57 274.898 280.592C341.235 275.481 406.058 262.197 434.991 216.629C463.923 171.062 432.27 125.032 402.932 102.654C373.3 80.2807 320.037 97.5208 282.464 81.4102Z" stroke="#457C75" stroke-miterlimit="10"/>
<path d="M282.464 81.4102C282.464 81.4102 268.539 70.5979 266.792 39.7772C264.901 9.08922 229.988 -50.6797 156.396 -54.0292C82.8052 -57.3787 37.946 11.3899 30.8628 41.8504C23.7796 72.3109 43.724 145.89 47.8661 184.869C52.0082 223.847 36.7298 274.895 25.8483 300.087C14.9728 325.539 36.2522 361.733 68.7086 353.854C101.015 345.846 208.705 285.57 274.898 280.592C341.235 275.481 406.058 262.197 434.991 216.629C463.923 171.062 432.27 125.032 402.932 102.654C373.3 80.2807 320.037 97.5208 282.464 81.4102Z" stroke="#457C75" stroke-miterlimit="10"/>
<path d="M297.474 63.0426C297.474 63.0426 283.146 47.5512 285.121 31.373C287.097 15.1949 254.467 -53.8582 181.977 -66.7308C109.488 -79.6034 29.2252 -34.7955 11.1256 34.0076C-6.82405 102.938 37.2619 165.144 16.6776 228.264C-3.90675 291.385 -16.9171 345.125 32.6355 364.272C82.1881 383.42 109.67 370.293 167.747 338.776C225.824 307.259 268.395 304.403 318.345 302.714C368.294 301.026 445.022 249.643 459.678 203.423C474.333 157.204 449.05 106.893 408.751 81.0685C368.609 55.6318 316.284 81.5768 297.474 63.0426Z" stroke="#457C75" stroke-miterlimit="10"/>
<path d="M314.888 40.5958C314.888 40.5958 309.17 34.9718 299.625 3.90213C290.081 -27.1675 240.687 -83.6792 157.38 -81.2545C74.0722 -78.8298 -24.5517 -8.04293 -13.0601 87.6905C-1.56852 183.424 0.926734 208.503 -10.6215 255.577C-22.1698 302.652 -10.9476 348.922 37.8565 373.811C86.6606 398.7 177.677 348.489 229.849 334.914C282.022 321.339 386.068 325.567 441.671 257.254C497.423 189.069 474.373 121.013 423.286 80.1537C372.198 39.2942 337.195 57.7647 314.888 40.5958Z" stroke="#457C75" stroke-miterlimit="10"/>
<path d="M341.083 10.0484C341.083 10.0484 331.183 1.63641 299.321 -40.7439C267.459 -83.1242 162.096 -124.95 51.5654 -54.0774C-58.9656 16.7956 -24.3537 120.44 -24.7024 168.613C-25.0511 216.786 -59.3987 320.251 -4.51912 366.119C50.3604 411.986 95.389 426.269 157.54 399.234C219.691 372.2 239.799 351.787 297.342 347.877C354.886 343.968 440.819 309.081 475.215 232.952C509.611 156.823 487.238 61.027 341.083 10.0484Z" stroke="#457C75" stroke-miterlimit="10"/>
</g>
</svg>
