<svg width="48" height="16" viewBox="0 0 48 16" fill="none" xmlns="http://www.w3.org/2000/svg">
<path d="M9.15327 2.34007L10.3266 4.68674C10.4866 5.0134 10.9133 5.32674 11.2733 5.38674L13.3999 5.74007C14.7599 5.96674 15.0799 6.9534 14.0999 7.92674L12.4466 9.58007C12.1666 9.86007 12.0133 10.4001 12.0999 10.7867L12.5733 12.8334C12.9466 14.4534 12.0866 15.0801 10.6533 14.2334L8.65994 13.0534C8.29994 12.8401 7.70661 12.8401 7.33994 13.0534L5.34661 14.2334C3.91994 15.0801 3.05327 14.4467 3.42661 12.8334L3.89994 10.7867C3.98661 10.4001 3.83327 9.86007 3.55327 9.58007L1.89994 7.92674C0.926606 6.9534 1.23994 5.96674 2.59994 5.74007L4.72661 5.38674C5.07994 5.32674 5.50661 5.0134 5.66661 4.68674L6.83994 2.34007C7.47994 1.06674 8.51994 1.06674 9.15327 2.34007Z" fill="#060048" fill-opacity="0.2"/>
<path d="M25.1533 2.34007L26.3266 4.68674C26.4866 5.0134 26.9133 5.32674 27.2733 5.38674L29.3999 5.74007C30.7599 5.96674 31.0799 6.9534 30.0999 7.92674L28.4466 9.58007C28.1666 9.86007 28.0133 10.4001 28.0999 10.7867L28.5733 12.8334C28.9466 14.4534 28.0866 15.0801 26.6533 14.2334L24.6599 13.0534C24.2999 12.8401 23.7066 12.8401 23.3399 13.0534L21.3466 14.2334C19.9199 15.0801 19.0533 14.4467 19.4266 12.8334L19.8999 10.7867C19.9866 10.4001 19.8333 9.86007 19.5533 9.58007L17.8999 7.92674C16.9266 6.9534 17.2399 5.96674 18.5999 5.74007L20.7266 5.38674C21.0799 5.32674 21.5066 5.0134 21.6666 4.68674L22.8399 2.34007C23.4799 1.06674 24.5199 1.06674 25.1533 2.34007Z" fill="#060048" fill-opacity="0.2"/>
<path d="M41.1533 2.34007L42.3266 4.68674C42.4866 5.0134 42.9133 5.32674 43.2733 5.38674L45.3999 5.74007C46.7599 5.96674 47.0799 6.9534 46.0999 7.92674L44.4466 9.58007C44.1666 9.86007 44.0133 10.4001 44.0999 10.7867L44.5733 12.8334C44.9466 14.4534 44.0866 15.0801 42.6533 14.2334L40.6599 13.0534C40.2999 12.8401 39.7066 12.8401 39.3399 13.0534L37.3466 14.2334C35.9199 15.0801 35.0533 14.4467 35.4266 12.8334L35.8999 10.7867C35.9866 10.4001 35.8333 9.86007 35.5533 9.58007L33.8999 7.92674C32.9266 6.9534 33.2399 5.96674 34.5999 5.74007L36.7266 5.38674C37.0799 5.32674 37.5066 5.0134 37.6666 4.68674L38.8399 2.34007C39.4799 1.06674 40.5199 1.06674 41.1533 2.34007Z" stroke="#060048" stroke-opacity="0.2" stroke-linecap="round" stroke-linejoin="round"/>
</svg>
