<?xml version="1.0" encoding="utf-8"?><svg xmlns="http://www.w3.org/2000/svg" xmlns:xlink="http://www.w3.org/1999/xlink"><symbol viewBox="0 0 21 20" id="arrow-right"><path fill-rule="evenodd" clip-rule="evenodd" d="M11.646 3.554a.833.833 0 011.177.049l5.374 5.833a.833.833 0 010 1.13l-5.374 5.833a.833.833 0 01-1.226-1.13l4.086-4.435H3.417a.833.833 0 110-1.667h12.266l-4.085-4.435a.833.833 0 01.048-1.178z"/></symbol><symbol viewBox="0 0 20 20" id="check"><path fill-rule="evenodd" clip-rule="evenodd" d="M15.375 6.56a1 1 0 01-.036 1.415l-6.31 6a1 1 0 01-1.416-.037l-2.84-3a1 1 0 011.453-1.375l2.15 2.272 5.585-5.31a1 1 0 011.414.036z"/></symbol><symbol viewBox="0 0 16 16" id="check-circle"><path d="M9.814 5.86l-2.86 2.867-1.1-1.1a.667.667 0 10-.94.94l1.567 1.574a.668.668 0 00.94 0l3.333-3.334a.666.666 0 00-.47-1.14.667.667 0 00-.47.194zM8.001 1.335a6.667 6.667 0 100 13.333A6.667 6.667 0 008 1.334zm0 12A5.334 5.334 0 118 2.667a5.334 5.334 0 010 10.667z"/></symbol><symbol viewBox="0 0 24 24" id="clipboard-notes"><path d="M13 14H9a1 1 0 000 2h4a1 1 0 000-2zm4-10h-1.18A3 3 0 0013 2h-2a3 3 0 00-2.82 2H7a3 3 0 00-3 3v12a3 3 0 003 3h10a3 3 0 003-3V7a3 3 0 00-3-3zm-7 1a1 1 0 011-1h2a1 1 0 011 1v1h-4V5zm8 14a1 1 0 01-1 1H7a1 1 0 01-1-1V7a1 1 0 011-1h1v1a1 1 0 001 1h6a1 1 0 001-1V6h1a1 1 0 011 1v12zm-3-9H9a1 1 0 000 2h6a1 1 0 000-2z"/></symbol><symbol viewBox="0 0 24 24" id="clock"><path d="M12 2a10 10 0 100 20 10 10 0 000-20zm0 18a8 8 0 110-16.001A8 8 0 0112 20zm0-14a1 1 0 00-1 1v4H9a1 1 0 000 2h3a1 1 0 001-1V7a1 1 0 00-1-1z"/></symbol><symbol viewBox="0 0 24 24" id="external-link"><path d="M18 10.82a1 1 0 00-1 1V19a1 1 0 01-1 1H5a1 1 0 01-1-1V8a1 1 0 011-1h7.18a1 1 0 100-2H5a3 3 0 00-3 3v11a3 3 0 003 3h11a3 3 0 003-3v-7.18a1 1 0 00-1-1zm3.92-8.2a1 1 0 00-.54-.54A1 1 0 0021 2h-6a1 1 0 100 2h3.59L8.29 14.29a1 1 0 00.325 1.639 1 1 0 001.095-.219L20 5.41V9a1 1 0 002 0V3a1.001 1.001 0 00-.08-.38z"/></symbol><symbol viewBox="0 0 24 24" id="gift"><path d="M18 7h-.35A3.45 3.45 0 0018 5.5a3.49 3.49 0 00-6-2.44A3.49 3.49 0 006 5.5 3.45 3.45 0 006.35 7H6a3 3 0 00-3 3v2a1 1 0 001 1h1v6a3 3 0 003 3h8a3 3 0 003-3v-6h1a1 1 0 001-1v-2a3 3 0 00-3-3zm-7 13H8a1 1 0 01-1-1v-6h4v7zm0-9H5v-1a1 1 0 011-1h5v2zm0-4H9.5A1.5 1.5 0 1111 5.5V7zm2-1.5A1.5 1.5 0 1114.5 7H13V5.5zM17 19a1 1 0 01-1 1h-3v-7h4v6zm2-8h-6V9h5a1 1 0 011 1v1z"/></symbol><symbol viewBox="0 0 24 24" id="graph"><path d="M6 13H2a1 1 0 00-1 1v8a1 1 0 001 1h4a1 1 0 001-1v-8a1 1 0 00-1-1zm-1 8H3v-6h2v6zM22 9h-4a1 1 0 00-1 1v12a1 1 0 001 1h4a1 1 0 001-1V10a1 1 0 00-1-1zm-1 12h-2V11h2v10zM14 1h-4a1 1 0 00-1 1v20a1 1 0 001 1h4a1 1 0 001-1V2a1 1 0 00-1-1zm-1 20h-2V3h2v18z"/></symbol><symbol viewBox="0 0 20 20" id="loader"><path d="M10 17.5c0 .46-.375.837-.833.791a8.334 8.334 0 119.124-9.124c.046.458-.331.832-.792.832-.46 0-.828-.374-.885-.83a6.664 6.664 0 00-6.615-5.836 6.667 6.667 0 00-.83 13.281c.456.057.83.425.83.885z"/></symbol></svg>