<?xml version="1.0" encoding="utf-8"?><svg xmlns="http://www.w3.org/2000/svg" xmlns:xlink="http://www.w3.org/1999/xlink"><symbol viewBox="0 0 21 20" id="arrow-right"><path fill-rule="evenodd" clip-rule="evenodd" d="M11.646 3.554a.833.833 0 011.177.049l5.374 5.833a.833.833 0 010 1.13l-5.374 5.833a.833.833 0 01-1.226-1.13l4.086-4.435H3.417a.833.833 0 110-1.667h12.266l-4.085-4.435a.833.833 0 01.048-1.178z"/></symbol><symbol viewBox="0 0 20 20" id="check"><path fill-rule="evenodd" clip-rule="evenodd" d="M15.375 6.56a1 1 0 01-.036 1.415l-6.31 6a1 1 0 01-1.416-.037l-2.84-3a1 1 0 011.453-1.375l2.15 2.272 5.585-5.31a1 1 0 011.414.036z"/></symbol><symbol viewBox="0 0 16 16" id="check-circle"><path d="M9.814 5.86l-2.86 2.867-1.1-1.1a.667.667 0 10-.94.94l1.567 1.574a.668.668 0 00.94 0l3.333-3.334a.666.666 0 00-.47-1.14.667.667 0 00-.47.194zM8.001 1.335a6.667 6.667 0 100 13.333A6.667 6.667 0 008 1.334zm0 12A5.334 5.334 0 118 2.667a5.334 5.334 0 010 10.667z"/></symbol><symbol viewBox="0 0 20 20" id="loader"><path d="M10 17.5c0 .46-.375.837-.833.791a8.334 8.334 0 119.124-9.124c.046.458-.331.832-.792.832-.46 0-.828-.374-.885-.83a6.664 6.664 0 00-6.615-5.836 6.667 6.667 0 00-.83 13.281c.456.057.83.425.83.885z"/></symbol></svg>