<svg xmlns="http://www.w3.org/2000/svg">
	<symbol id="vk" viewBox="0 0 20 12">
		<path fill-rule="evenodd" clip-rule="evenodd" d="M9.63656 11.1893H10.8139C10.8139 11.1893 11.1695 11.1503 11.3511 10.9545C11.5182 10.7749 11.5128 10.4374 11.5128 10.4374C11.5128 10.4374 11.4898 8.85768 12.223 8.62505C12.9458 8.3959 13.8739 10.1518 14.8576 10.827C15.6015 11.338 16.1667 11.2259 16.1667 11.2259L18.7971 11.1893C18.7971 11.1893 20.173 11.1046 19.5206 10.0227C19.4671 9.93419 19.1406 9.2224 17.5649 7.75978C15.9157 6.22898 16.1365 6.47658 18.1232 3.82863C19.3332 2.216 19.8169 1.23147 19.6658 0.809801C19.5217 0.408183 18.6318 0.514336 18.6318 0.514336L15.6702 0.532786C15.6702 0.532786 15.4507 0.502838 15.2878 0.600168C15.1287 0.695626 15.0263 0.918095 15.0263 0.918095C15.0263 0.918095 14.5576 2.166 13.9324 3.22727C12.6137 5.46665 12.0864 5.58484 11.8709 5.4458C11.3695 5.12172 11.4947 4.14388 11.4947 3.4492C11.4947 1.27907 11.8238 0.374225 10.8537 0.139992C10.5318 0.0621817 10.2949 0.010843 9.47159 0.0025539C8.41486 -0.00840905 7.52045 0.00576222 7.01401 0.253899C6.6771 0.418879 6.4172 0.786538 6.57549 0.807662C6.77122 0.833866 7.21455 0.927185 7.44959 1.24725C7.75307 1.6601 7.74238 2.58741 7.74238 2.58741C7.74238 2.58741 7.91672 5.14204 7.33515 5.45943C6.93593 5.67709 6.38832 5.23269 5.21261 3.20106C4.61018 2.16038 4.15535 1.01008 4.15535 1.01008C4.15535 1.01008 4.06765 0.795095 3.91123 0.680117C3.72138 0.540807 3.45613 0.496422 3.45613 0.496422L0.641859 0.514871C0.641859 0.514871 0.219384 0.526637 0.0642985 0.710333C-0.0736743 0.873708 0.0533355 1.21169 0.0533355 1.21169C0.0533355 1.21169 2.25662 6.36642 4.75136 8.9641C7.03888 11.3457 9.63656 11.1893 9.63656 11.1893Z"/>
	</symbol>
	<symbol id="instagram" viewBox="0 0 18 18">
		<path d="M13.0325 0H4.96724C2.22831 0 0 2.22841 0 4.96735V13.0327C0 15.7717 2.22831 18 4.96724 18H13.0325C15.7717 18 18 15.7716 18 13.0327V4.96735C18.0001 2.22841 15.7717 0 13.0325 0ZM16.4031 13.0327C16.4031 14.8911 14.8911 16.403 13.0327 16.403H4.96724C3.10892 16.4031 1.59705 14.8911 1.59705 13.0327V4.96735C1.59705 3.10903 3.10892 1.59705 4.96724 1.59705H13.0325C14.891 1.59705 16.403 3.10903 16.403 4.96735V13.0327H16.4031Z"/>
		<path d="M8.99996 4.36206C6.44245 4.36206 4.36182 6.44269 4.36182 9.0002C4.36182 11.5576 6.44245 13.6381 8.99996 13.6381C11.5575 13.6381 13.6381 11.5576 13.6381 9.0002C13.6381 6.44269 11.5575 4.36206 8.99996 4.36206ZM8.99996 12.041C7.32317 12.041 5.95886 10.6769 5.95886 9.0001C5.95886 7.3232 7.32306 5.959 8.99996 5.959C10.6769 5.959 12.0411 7.3232 12.0411 9.0001C12.0411 10.6769 10.6768 12.041 8.99996 12.041Z" />
		<path d="M13.8323 3.00787C13.5246 3.00787 13.2223 3.13244 13.005 3.35071C12.7867 3.5679 12.6611 3.87028 12.6611 4.17904C12.6611 4.48685 12.7868 4.78911 13.005 5.00738C13.2222 5.22458 13.5246 5.35021 13.8323 5.35021C14.1411 5.35021 14.4424 5.22458 14.6606 5.00738C14.8789 4.78911 15.0035 4.48674 15.0035 4.17904C15.0035 3.87028 14.8789 3.5679 14.6606 3.35071C14.4434 3.13244 14.1411 3.00787 13.8323 3.00787Z"/>
	</symbol>
	<symbol id="facebook" viewBox="0 0 10 20">
		<path d="M8.66047 9.76799H5.9839V19.5737H1.92868V9.76799H0V6.32188H1.92868V4.09186C1.92868 2.49715 2.68619 0 6.02 0L9.02385 0.012567V3.35761H6.84436C6.48686 3.35761 5.98417 3.53622 5.98417 4.29694V6.32509H9.01476L8.66047 9.76799Z"/>
	</symbol>
	<symbol id="youtube" viewBox="0 0 24 16">
		<path d="M22.98 1.54182C22.329 0.418909 21.6225 0.212364 20.184 0.133818C18.747 0.0392727 15.1335 0 12.003 0C8.8665 0 5.2515 0.0392728 3.816 0.132364C2.3805 0.212364 1.6725 0.417454 1.0155 1.54182C0.345 2.66327 0 4.59491 0 7.99564C0 7.99855 0 8 0 8C0 8.00291 0 8.00436 0 8.00436V8.00727C0 11.3935 0.345 13.3396 1.0155 14.4495C1.6725 15.5724 2.379 15.776 3.8145 15.8705C5.2515 15.952 8.8665 16 12.003 16C15.1335 16 18.747 15.952 20.1855 15.872C21.624 15.7775 22.3305 15.5738 22.9815 14.4509C23.658 13.3411 24 11.3949 24 8.00873C24 8.00873 24 8.00436 24 8.00146C24 8.00146 24 7.99855 24 7.99709C24 4.59491 23.658 2.66327 22.98 1.54182ZM9 12.3636V3.63636L16.5 8L9 12.3636Z"/>
	</symbol>
	<symbol id="play" viewBox="0 0 22 24">
		<path d="M20.2061 10.4003C21.5394 11.1701 21.5394 13.0946 20.2061 13.8644L3.59576 23.4544C2.26243 24.2242 0.59576 23.2619 0.59576 21.7223V2.54241C0.59576 1.00281 2.26243 0.0405586 3.59576 0.810359L20.2061 10.4003Z" fill="black"/>
	</symbol>
	<symbol id="arrow-slider" viewBox="0 0 22 15">
		<path d="M14.8145 0.225589C14.5148 -0.0751965 14.016 -0.0751965 13.7058 0.225589C13.4061 0.516214 13.4061 0.99991 13.7058 1.28986L19.3277 6.74126L0.776183 6.74126C0.343728 6.74194 0 7.07524 0 7.49458C0 7.91392 0.343728 8.25806 0.776183 8.25806L19.3277 8.25806L13.7058 13.6993C13.4061 14.0001 13.4061 14.4845 13.7058 14.7744C14.016 15.0752 14.5155 15.0752 14.8145 14.7744L21.7674 8.03247C22.0775 7.74185 22.0775 7.25815 21.7674 6.96821L14.8145 0.225589Z"/>
	</symbol>
	<symbol id="prev" viewBox="0 0 15 14">
		<path d="M14.2606 -6.46381e-08C14.669 -2.89377e-08 15 0.321432 15 0.717919L15 13.282C15 13.6785 14.669 14 14.2606 14L2.24644 7.53842C2.24644 7.53842 1.69195 7 2.24644 6.46155C2.8009 5.92311 14.2606 -6.46381e-08 14.2606 -6.46381e-08Z"/>
		<path d="M2 13.2222C2 13.6518 1.70959 14 1.35137 14L0.648634 14C0.290408 14 3.04436e-08 13.6518 6.79966e-08 13.2222L1.15592e-06 0.777789C1.19348e-06 0.348233 0.290409 -1.49457e-07 0.648635 -1.1814e-07L1.35137 -5.67054e-08C1.70959 -2.53883e-08 2 0.348233 2 0.777789L2 13.2222Z"/>
	</symbol>

</svg>