<svg width="15" height="14" viewBox="0 0 15 14" fill="none" xmlns="http://www.w3.org/2000/svg">
<path d="M14.2606 -6.46381e-08C14.669 -2.89377e-08 15 0.321432 15 0.717919L15 13.282C15 13.6785 14.669 14 14.2606 14L2.24644 7.53842C2.24644 7.53842 1.69195 7 2.24644 6.46155C2.8009 5.92311 14.2606 -6.46381e-08 14.2606 -6.46381e-08Z" fill="#9E9E9E"/>
<path d="M2 13.2222C2 13.6518 1.70959 14 1.35137 14L0.648634 14C0.290408 14 3.04436e-08 13.6518 6.79966e-08 13.2222L1.15592e-06 0.777789C1.19348e-06 0.348233 0.290409 -1.49457e-07 0.648635 -1.1814e-07L1.35137 -5.67054e-08C1.70959 -2.53883e-08 2 0.348233 2 0.777789L2 13.2222Z" fill="#9E9E9E"/>
</svg>
