<?xml version="1.0" encoding="utf-8"?><svg xmlns="http://www.w3.org/2000/svg" xmlns:xlink="http://www.w3.org/1999/xlink"><symbol viewBox="0 0 24 24" id="icon-arrow-down"><path d="M17 9.17a1 1 0 00-1.41 0L12 12.71 8.46 9.17a1 1 0 10-1.41 1.42l4.24 4.24a.998.998 0 001.42 0L17 10.59a.997.997 0 00.219-1.095.998.998 0 00-.22-.325z"/></symbol><symbol viewBox="0 0 24 24" id="icon-close"><path fill-rule="evenodd" clip-rule="evenodd" d="M2.94 2.94a1.5 1.5 0 012.12 0L12 9.878l6.94-6.94a1.5 1.5 0 112.12 2.122L14.122 12l6.94 6.94a1.5 1.5 0 01-2.122 2.12L12 14.122l-6.94 6.94a1.5 1.5 0 01-2.12-2.122L9.878 12l-6.94-6.94a1.5 1.5 0 010-2.12z"/></symbol><symbol viewBox="0 0 24 24" id="icon-copy"><path fill-rule="evenodd" clip-rule="evenodd" d="M10 1a3 3 0 00-3 3v2H6a3 3 0 00-3 3v11a3 3 0 003 3h8a3 3 0 003-3v-1h1a3 3 0 003-3V7.242a3 3 0 00-.903-2.145l-3.315-3.242A3 3 0 0014.685 1H10zm5 18v1a1 1 0 01-1 1H6a1 1 0 01-1-1V9a1 1 0 011-1h1v8a3 3 0 003 3h5zm-6-3a1 1 0 001 1h8a1 1 0 001-1V7.242a1.001 1.001 0 00-.301-.715l-3.315-3.242A1 1 0 0014.685 3H10a1 1 0 00-1 1v12z"/></symbol><symbol viewBox="0 0 19 20" id="icon-cup"><g filter="url(#dfilter0_i_157:5446)"><path fill-rule="evenodd" clip-rule="evenodd" d="M18.443 1.613H15.6c.002-.08.007-.158.011-.236a5.28 5.28 0 00.013-.32.551.551 0 00-.557-.557H3.934a.551.551 0 00-.557.557c0 .11.006.214.012.32.005.077.01.156.012.236H.557A.556.556 0 000 2.17v1.41c0 3.108 2.49 5.633 5.558 5.795.64.88 1.398 1.534 2.261 1.902-.134 2.705-1.681 4.586-2.048 4.976a.395.395 0 00-.123.178h7.704a.395.395 0 00-.123-.178c-.378-.39-1.914-2.26-2.048-4.976.863-.368 1.627-1.022 2.266-1.902C16.513 9.21 19 6.686 19 3.58V2.17a.556.556 0 00-.557-.557zM1.113 3.58v-.853H3.45c.144 1.84.543 3.788 1.382 5.444-2.102-.474-3.718-2.348-3.718-4.591zm16.774 0c0 2.242-1.614 4.115-3.715 4.59.832-1.656 1.233-3.586 1.38-5.443h2.335v.853zm-4.535 12.852H5.648a.452.452 0 00-.044.211v1.744h-.557a.556.556 0 100 1.113h8.906a.556.556 0 100-1.113h-.556v-1.744a.452.452 0 00-.045-.211z"/></g><defs><filter id="dfilter0_i_157:5446" x="0" y=".5" width="19" height="20" filterUnits="userSpaceOnUse" color-interpolation-filters="sRGB"><feFlood flood-opacity="0" result="BackgroundImageFix"/><feBlend in="SourceGraphic" in2="BackgroundImageFix" result="shape"/><feColorMatrix in="SourceAlpha" values="0 0 0 0 0 0 0 0 0 0 0 0 0 0 0 0 0 0 127 0" result="hardAlpha"/><feOffset dy="1"/><feGaussianBlur stdDeviation=".5"/><feComposite in2="hardAlpha" operator="arithmetic" k2="-1" k3="1"/><feColorMatrix values="0 0 0 0 0 0 0 0 0 0 0 0 0 0 0 0 0 0 1 0"/><feBlend in2="shape" result="effect1_innerShadow_157:5446"/></filter></defs></symbol><symbol viewBox="0 0 20 20" id="icon-download"><path fill-rule="evenodd" clip-rule="evenodd" d="M10 1.5a1 1 0 011 1v7.586l1.626-1.626a1 1 0 111.415 1.414l-3.334 3.333-.002.002a.998.998 0 01-1.412-.002L5.96 9.874A1 1 0 017.374 8.46L9 10.086V2.5a1 1 0 011-1z"/><path d="M2.637 13.924a1 1 0 00-1.94.485l.517 2.071a2.667 2.667 0 002.587 2.02h12.398a2.667 2.667 0 002.587-2.02l.518-2.07a1 1 0 10-1.94-.486l-.518 2.071a.667.667 0 01-.647.505H3.801a.667.667 0 01-.647-.505l-.517-2.07z"/></symbol><symbol viewBox="0 0 20 20" id="icon-edit"><path fill-rule="evenodd" clip-rule="evenodd" d="M14.507 3.891L4.318 14.081a.667.667 0 00-.182.34l-.361 1.804 1.803-.36a.667.667 0 00.34-.183l10.19-10.19a1.134 1.134 0 00-1.601-1.6zM2.904 12.666L13.1 2.468l.016-.015a3.133 3.133 0 014.43 4.429l-.015.016L7.333 17.096a2.668 2.668 0 01-1.363.73l-3.274.655a1 1 0 01-1.177-1.177l.655-3.275c.104-.516.358-.99.73-1.363z"/><path fill-rule="evenodd" clip-rule="evenodd" d="M11.376 4.71a1 1 0 011.415 0l2.5 2.5a1 1 0 01-1.415 1.414l-2.5-2.5a1 1 0 010-1.414z"/></symbol><symbol viewBox="0 0 24 24" id="icon-exit"><path d="M23.923 10.618a1 1 0 00-.217-.326l-3-3a.999.999 0 10-1.413 1.415L20.586 10H18V1a1 1 0 00-1-1H1C.964 0 .932.015.897.019a.966.966 0 00-.423.148C.452.181.424.182.403.198.395.204.392.215.384.221a.99.99 0 00-.266.316C.104.564.101.593.09.621.058.697.023.771.011.855c-.005.03.004.058.003.087C.013.962 0 .98 0 1v20a1 1 0 00.804.98l10 2A1 1 0 0012 23v-1h5a1 1 0 001-1v-9h2.586l-1.293 1.293a.999.999 0 101.414 1.414l2.999-3a1 1 0 00.217-1.089zM8.97 15.243a1 1 0 01-1.212.727l-2-.5a1 1 0 01.484-1.94l2 .5a1 1 0 01.728 1.213zM16 20h-4V4c0-.441-.29-.831-.713-.958L7.814 2H16v18z"/></symbol><symbol viewBox="0 0 15 15" id="icon-plus"><path fill-rule="evenodd" clip-rule="evenodd" d="M7.5 1.5a1 1 0 011 1v4h4a1 1 0 110 2h-4v4a1 1 0 11-2 0v-4h-4a1 1 0 010-2h4v-4a1 1 0 011-1z"/></symbol><symbol viewBox="0 0 24 24" id="icon-sound"><g filter="url(#ifilter0_i_1:2811)"><path fill-rule="evenodd" clip-rule="evenodd" d="M17.218 5.102l-4.18 3.371a2.47 2.47 0 01-.785.402c-.268.083-.55.124-.83.125H6.4a.68.68 0 00-.4.113v5.775l.007.005A.68.68 0 006.4 15h5.011c.285 0 .572.043.844.129.272.085.535.215.767.393l.017.013 4.172 3.359c.135.098.382.144.627.07A.547.547 0 0018 18.89V5.112a.543.543 0 00-.159-.075c-.239-.074-.484-.032-.623.065zm1.212-1.976c.697.215 1.57.829 1.57 1.917v13.914c0 1.096-.883 1.71-1.583 1.922-.733.221-1.683.167-2.426-.4a1.006 1.006 0 01-.02-.017l-4.175-3.36a.48.48 0 00-.139-.065.852.852 0 00-.249-.037H6.4c-.58 0-1.144-.173-1.586-.502C4.37 16.169 4 15.636 4 14.959V9.04c0-.677.372-1.21.814-1.538A2.667 2.667 0 016.4 7h5.019c.09 0 .174-.014.245-.036a.503.503 0 00.137-.062l4.181-3.373.031-.024c.746-.555 1.688-.604 2.417-.38z"/></g><defs><filter id="ifilter0_i_1:2811" x="4" y="3" width="16" height="18.999" filterUnits="userSpaceOnUse" color-interpolation-filters="sRGB"><feFlood flood-opacity="0" result="BackgroundImageFix"/><feBlend in="SourceGraphic" in2="BackgroundImageFix" result="shape"/><feColorMatrix in="SourceAlpha" values="0 0 0 0 0 0 0 0 0 0 0 0 0 0 0 0 0 0 127 0" result="hardAlpha"/><feOffset dy="1"/><feGaussianBlur stdDeviation=".5"/><feComposite in2="hardAlpha" operator="arithmetic" k2="-1" k3="1"/><feColorMatrix values="0 0 0 0 0 0 0 0 0 0 0 0 0 0 0 0 0 0 1 0"/><feBlend in2="shape" result="effect1_innerShadow_1:2811"/></filter></defs></symbol><symbol viewBox="0 0 24 24" id="icon-sound-off"><path fill-rule="evenodd" clip-rule="evenodd" d="M20 13.371V5.043c0-1.088-.873-1.702-1.57-1.917-.729-.225-1.671-.176-2.417.379l-.03.024L11.8 6.902a.505.505 0 01-.136.062.854.854 0 01-.246.036h-1.26L4.952 3.63 3.866 5.31l17.48 11.315 1.087-1.679L20 13.371zm-2.782-8.27l-4.18 3.372a2.319 2.319 0 01-.3.197L18 12.078V5.112a.543.543 0 00-.159-.075c-.239-.074-.484-.032-.623.065z"/><path d="M4.539 7.745A1.86 1.86 0 004 9.04v5.92c0 .676.371 1.21.814 1.538A2.666 2.666 0 006.4 17h5.008c.092 0 .177.015.25.037a.48.48 0 01.138.066l4.175 3.36.012.01.008.005c.743.568 1.693.622 2.426.4.7-.21 1.583-.825 1.583-1.92v-1.204l-2-1.295v2.43a.547.547 0 01-.162.075c-.245.074-.492.028-.627-.07l-4.172-3.359-.017-.013a2.462 2.462 0 00-.767-.393 2.85 2.85 0 00-.844-.129H6.4a.68.68 0 01-.393-.107L6 14.888V9.113l.007-.005-1.468-1.363z"/></symbol><symbol viewBox="0 0 21 21" id="icon-watch"><path fill-rule="evenodd" clip-rule="evenodd" d="M10.017 4C7.954 4 6.12 4.984 4.7 6.087 3.27 7.2 2.153 8.513 1.504 9.36a2.406 2.406 0 000 2.946c.65.848 1.765 2.162 3.196 3.273 1.42 1.104 3.254 2.088 5.317 2.088 2.064 0 3.898-.984 5.318-2.088 1.432-1.112 2.549-2.428 3.198-3.275a2.407 2.407 0 000-2.941c-.65-.848-1.766-2.163-3.198-3.276C13.915 4.984 12.081 4 10.017 4zm-6.913 6.574C3.7 9.797 4.697 8.629 5.94 7.663 7.195 6.688 8.596 6 10.017 6c1.422 0 2.823.688 4.078 1.663 1.242.965 2.24 2.133 2.835 2.91a.417.417 0 010 .52c-.595.777-1.592 1.945-2.835 2.91-1.255.976-2.656 1.664-4.078 1.664-1.421 0-2.822-.688-4.077-1.663-1.243-.966-2.24-2.134-2.836-2.911l-.004-.006a.414.414 0 010-.508l.004-.005z"/><path fill-rule="evenodd" clip-rule="evenodd" d="M10.017 9.333c-.818 0-1.493.665-1.493 1.5s.675 1.5 1.493 1.5c.818 0 1.493-.665 1.493-1.5s-.675-1.5-1.493-1.5zm-3.507 1.5c0-1.927 1.564-3.5 3.507-3.5a3.503 3.503 0 013.507 3.5c0 1.927-1.564 3.5-3.507 3.5a3.503 3.503 0 01-3.507-3.5z"/></symbol></svg>