<svg width="164" height="125" viewBox="0 0 164 125" fill="none" xmlns="http://www.w3.org/2000/svg">
<circle cx="61" cy="63" r="51" fill="#FFE11B"/>
<g clip-path="url(#clip0)">
<path d="M101.557 51.0894L134.025 62.4868L116.975 66.8696L97.0005 56.9746L101.557 51.0894Z" fill="#040047"/>
<path d="M116.989 67.0884C116.958 67.0958 116.926 67.0958 116.895 67.0884L96.9205 57.1934C96.8909 57.1789 96.8648 57.158 96.8442 57.1321C96.8236 57.1063 96.809 57.0763 96.8013 57.0441C96.7942 57.0124 96.7941 56.9795 96.8009 56.9477C96.8078 56.9159 96.8215 56.886 96.841 56.8601L101.383 50.9499C101.412 50.9137 101.451 50.8872 101.495 50.8739C101.54 50.8606 101.587 50.8611 101.631 50.8753L134.099 62.2727C134.143 62.2888 134.181 62.3187 134.207 62.3582C134.233 62.3976 134.246 62.4445 134.243 62.4916C134.241 62.5381 134.224 62.5827 134.194 62.6187C134.165 62.6546 134.124 62.6798 134.079 62.6906L117.029 67.0785L116.989 67.0884ZM97.3374 56.9198L116.989 66.6357L133.26 62.4518L101.636 51.3479L97.3374 56.9198Z" fill="#040047"/>
<path d="M63.5196 89.0078C63.5196 89.0078 46.3053 94.2364 37.7329 89.0078C37.7329 89.0078 44.2851 97.2064 53.2 96.291C62.1149 95.3756 63.5196 89.0078 63.5196 89.0078Z" fill="#F6C707"/>
<path d="M69.521 84.4758C69.521 84.4758 56.4018 97.2165 41.5056 93.8634C20.8216 89.2368 4.88799 64.5863 18.7368 33.6675C18.7368 33.6675 4.34198 54.6216 11.7876 77.9936C21.9931 109.987 46.643 108.664 71.7398 102.132" fill="#F6C707"/>
<path d="M105.19 26.9162C105.19 26.9162 101.443 44.0148 101.557 51.089C101.557 51.4373 102.674 52.3079 102.698 52.5815C103.24 58.8946 82.9229 53.5765 82.9229 53.5765C82.9229 53.5765 82.1684 40.1891 83.6823 35.3983C85.1963 30.6075 86.8194 29.5578 86.8194 29.5578C86.8194 29.5578 100.41 24.2049 102.798 24.9561C105.185 25.7073 105.19 26.9162 105.19 26.9162Z" fill="#4F51FF"/>
<path d="M97.8987 34.2144L123.745 20.6281L121.685 13.9717L94.0469 28.0108L97.8987 34.2144Z" fill="#4F51FF"/>
<path d="M61.0628 89.2017C61.0628 89.2017 60.6806 91.9727 62.8944 97.5396C65.1082 103.106 67.2873 104.848 67.2873 104.848L75.1598 103.853L67.4412 84.4507L61.0628 89.2017Z" fill="#040047"/>
<path d="M67.2871 105.066C67.2387 105.067 67.1915 105.051 67.153 105.022C67.0637 104.947 64.8995 103.176 62.6857 97.6191C60.4718 92.0622 60.8243 89.2862 60.8392 89.1618C60.8434 89.1329 60.8536 89.1052 60.8689 89.0804C60.8843 89.0556 60.9046 89.0342 60.9285 89.0176L67.3069 84.2914C67.3335 84.2713 67.3643 84.2576 67.3971 84.2516C67.4299 84.2455 67.4636 84.2473 67.4955 84.2566C67.5282 84.2649 67.5583 84.281 67.5834 84.3035C67.6084 84.3261 67.6277 84.3543 67.6395 84.386L75.3581 103.788C75.3726 103.818 75.3802 103.851 75.3802 103.885C75.3802 103.919 75.3726 103.952 75.3581 103.982C75.3412 104.01 75.3181 104.034 75.2906 104.052C75.2631 104.071 75.2319 104.082 75.1993 104.086L67.3268 105.057L67.2871 105.066ZM61.271 89.321C61.2313 89.8185 61.1469 92.5646 63.0977 97.4549C65.0484 102.345 66.9793 104.275 67.3566 104.619L74.8518 103.698L67.3516 84.8188L61.271 89.321Z" fill="#040047"/>
<path d="M100.242 102.131C100.242 102.131 98.0479 108.464 91.0291 114.404C84.0104 120.344 66.3345 123.857 66.3345 123.857L76.0237 103.554L100.242 102.131Z" fill="white"/>
<path d="M66.359 124.08C66.3217 124.081 66.2848 124.072 66.2512 124.056C66.2177 124.039 66.1883 124.016 66.1654 123.986C66.1367 123.949 66.1187 123.905 66.1134 123.858C66.1082 123.812 66.1159 123.765 66.1357 123.722L75.7902 103.425C75.8095 103.385 75.8389 103.351 75.8756 103.327C75.9122 103.302 75.9547 103.288 75.9986 103.286L100.217 101.883C100.258 101.879 100.299 101.887 100.337 101.904C100.374 101.922 100.406 101.948 100.43 101.982C100.455 102.014 100.471 102.052 100.478 102.092C100.485 102.132 100.482 102.172 100.47 102.211C100.445 102.276 98.1717 108.678 91.1778 114.593C84.1839 120.509 66.5526 124.046 66.359 124.08ZM76.2121 103.768L66.781 123.488C69.6748 122.872 84.6505 119.509 90.875 114.21C96.8315 109.176 99.3134 103.803 99.8743 102.395L76.2121 103.768Z" fill="#040047"/>
<path d="M86.8395 68.4464C86.8395 68.4464 80.9128 66.337 71.7398 66.8693C62.5668 67.4016 47.333 76.0828 47.333 76.0828L68.3048 84.1321L86.8395 68.4464Z" fill="white"/>
<path d="M68.3047 84.381C68.2751 84.3856 68.2449 84.3856 68.2153 84.381L47.2435 76.3217C47.2001 76.3038 47.1624 76.2745 47.1344 76.2368C47.1065 76.1991 47.0892 76.1545 47.0846 76.1078C47.0812 76.061 47.0911 76.0143 47.1131 75.9729C47.135 75.9316 47.1682 75.8972 47.2087 75.8739C47.3626 75.7844 62.5963 67.153 71.7247 66.6256C80.853 66.0983 86.8641 68.1927 86.9187 68.2126C86.9607 68.2267 86.9983 68.2518 87.0274 68.2853C87.0565 68.3188 87.0761 68.3594 87.0842 68.4031C87.0923 68.4468 87.0886 68.4918 87.0735 68.5336C87.0583 68.5753 87.0323 68.6122 86.9981 68.6405L68.4635 84.3262C68.4176 84.3608 68.362 84.3799 68.3047 84.381ZM47.9185 76.0431L68.2699 83.8437L86.3479 68.5459C84.8588 68.0932 79.3986 66.6704 71.7694 67.1182C63.6288 67.5908 50.5344 74.6004 47.9185 76.0431Z" fill="#040047"/>
<path d="M63.5347 82.5253C71.2434 74.9536 83.6776 67.158 98.5937 61.1931C121.199 52.1587 137.941 59.9543 143.486 63.2378C144.089 63.5948 144.556 64.1419 144.816 64.7935C145.075 65.4452 145.112 66.1647 144.92 66.8396C143.153 73.0482 136.353 90.2463 113.748 99.2807C98.8319 105.251 84.4619 108.166 73.6707 107.987C73.6707 107.987 70.196 104.907 66.6569 96.047C63.1177 87.1868 63.5347 82.5253 63.5347 82.5253Z" fill="white"/>
<path d="M74.5988 108.246H73.6656C73.6056 108.246 73.5474 108.225 73.5018 108.186C73.3578 108.056 69.9378 104.962 66.4284 96.1367C62.9191 87.3113 63.2715 82.7045 63.2864 82.5105C63.2926 82.452 63.3189 82.3975 63.3608 82.3563C71.3624 74.496 84.1689 66.7004 98.5042 60.9644C120.945 52.0096 137.524 59.4172 143.615 63.024C144.263 63.4092 144.767 63.9988 145.046 64.7007C145.325 65.4027 145.365 66.1775 145.158 66.9044C143.218 73.7249 136.283 90.5449 113.842 99.5146C99.904 105.086 85.6729 108.246 74.5988 108.246ZM73.7698 107.748C84.8787 107.897 99.4274 104.763 113.659 99.0569C135.896 90.1668 142.761 73.5209 144.682 66.775C144.858 66.1534 144.823 65.491 144.585 64.8909C144.346 64.2908 143.916 63.7866 143.362 63.4568C137.336 59.8898 120.92 52.5419 98.6878 61.432C84.4568 67.1183 71.7396 74.8641 63.7778 82.6399C63.748 83.3214 63.6884 87.9033 66.8901 95.9476C70.0917 103.992 73.2784 107.265 73.7698 107.743V107.748Z" fill="#040047"/>
<path d="M144.92 66.8394C142.604 74.5151 138.39 81.4799 132.67 87.0871C132.67 87.0871 127.85 83.7838 123.66 73.247C119.471 62.7103 120.682 56.9941 120.682 56.9941C128.682 57.1144 136.522 59.2623 143.471 63.2376C144.076 63.5924 144.547 64.1385 144.809 64.7904C145.071 65.4422 145.11 66.1629 144.92 66.8394Z" fill="white"/>
<path d="M132.67 87.3361C132.62 87.3352 132.572 87.3196 132.531 87.2913C132.332 87.152 127.602 83.8089 123.427 73.3617C119.253 62.9144 120.404 57.1983 120.449 56.9446C120.461 56.8888 120.492 56.8389 120.536 56.8027C120.58 56.7666 120.635 56.7465 120.692 56.7456C128.737 56.8586 136.622 59.019 143.605 63.0239C144.254 63.4092 144.757 63.9988 145.036 64.7007C145.315 65.4026 145.355 66.1774 145.149 66.9043C142.842 74.6236 138.619 81.6298 132.873 87.2664C132.847 87.2923 132.814 87.312 132.779 87.324C132.744 87.336 132.707 87.3402 132.67 87.3361ZM120.906 57.2481C120.747 58.3475 120.211 63.9094 123.884 73.1677C127.557 82.4259 131.771 86.1023 132.645 86.7689C138.265 81.223 142.403 74.349 144.677 66.7799C144.853 66.1583 144.819 65.4959 144.58 64.8958C144.341 64.2957 143.911 63.7915 143.357 63.4617C136.513 59.5323 128.791 57.3952 120.906 57.2481Z" fill="#040047"/>
<path d="M66.9843 81.4611C66.9488 81.4608 66.9137 81.4531 66.8812 81.4385C66.8487 81.424 66.8196 81.4029 66.7957 81.3765C66.7744 81.3519 66.7583 81.3232 66.7482 81.2922C66.7382 81.2612 66.7344 81.2286 66.7372 81.1961C66.74 81.1636 66.7492 81.132 66.7644 81.1032C66.7796 81.0744 66.8003 81.0489 66.8255 81.0283C72.4045 76.454 78.256 72.2242 84.3475 68.3622C84.4038 68.3285 84.4709 68.3179 84.5348 68.3327C84.5987 68.3476 84.6544 68.3867 84.69 68.4418C84.7072 68.4692 84.7189 68.4997 84.7242 68.5316C84.7295 68.5635 84.7284 68.5962 84.721 68.6277C84.7136 68.6592 84.7001 68.6888 84.6811 68.715C84.6622 68.7412 84.6382 68.7633 84.6106 68.7801C78.5411 72.6308 72.708 76.8438 67.1432 81.3964C67.0998 81.4366 67.0434 81.4596 66.9843 81.4611Z" fill="white"/>
<path d="M86.0252 107.31C85.9629 107.311 85.9026 107.287 85.8565 107.245C85.787 107.181 79.081 100.778 75.7503 92.4004C72.4196 84.0227 72.8862 74.7496 72.8912 74.66C72.8917 74.6267 72.8991 74.5938 72.9129 74.5635C72.9266 74.5331 72.9464 74.5059 72.9711 74.4835C72.9957 74.4611 73.0247 74.444 73.0562 74.4333C73.0877 74.4226 73.1211 74.4185 73.1543 74.4212C73.2196 74.4263 73.2805 74.4567 73.324 74.5058C73.3675 74.555 73.3903 74.6192 73.3875 74.6849C73.3875 74.7744 72.9259 83.9531 76.2119 92.2163C79.4979 100.48 86.1394 106.818 86.199 106.882C86.2222 106.905 86.2407 106.933 86.2533 106.963C86.2659 106.994 86.2724 107.026 86.2724 107.059C86.2724 107.092 86.2659 107.124 86.2533 107.155C86.2407 107.185 86.2222 107.212 86.199 107.235C86.1529 107.282 86.0906 107.309 86.0252 107.31Z" fill="#040047"/>
<path d="M142.801 62.6208C142.801 62.6208 152.341 60.1333 152.907 61.5562C153.473 62.979 144.846 67.7548 144.846 67.7548" fill="#040047"/>
<path d="M144.846 67.9738C144.798 67.9725 144.753 67.9558 144.715 67.9261C144.678 67.8964 144.652 67.8554 144.64 67.8093C144.628 67.7631 144.632 67.7144 144.65 67.6705C144.668 67.6266 144.7 67.5898 144.742 67.5658C148.812 65.3073 153.016 62.4019 152.684 61.6358C152.351 60.8697 147.333 61.6607 142.835 62.8347C142.807 62.8419 142.778 62.8435 142.75 62.8394C142.721 62.8353 142.693 62.8256 142.669 62.8108C142.644 62.796 142.622 62.7764 142.605 62.7532C142.587 62.73 142.575 62.7036 142.567 62.6756C142.56 62.6475 142.559 62.6182 142.563 62.5895C142.567 62.5608 142.577 62.5332 142.591 62.5083C142.606 62.4833 142.626 62.4615 142.649 62.4441C142.672 62.4267 142.698 62.4141 142.726 62.4069C145.01 61.8149 152.5 59.9941 153.091 61.4766C153.681 62.9591 146.995 66.8047 144.93 67.9439C144.904 67.9586 144.875 67.9686 144.846 67.9738Z" fill="#040047"/>
<path d="M143.65 68.6554C142.343 66.9576 141.535 64.928 141.317 62.795C141.303 62.4592 141.416 62.1305 141.633 61.8742C141.85 61.618 142.155 61.453 142.488 61.412C142.63 61.3794 142.777 61.376 142.92 61.4021C143.064 61.4281 143.2 61.483 143.322 61.5634C143.444 61.6439 143.548 61.7482 143.628 61.8701C143.708 61.992 143.763 62.129 143.788 62.2727C143.973 64.1095 144.662 65.859 145.779 67.3271C145.86 67.4487 145.915 67.5856 145.942 67.7294C145.968 67.8731 145.965 68.0208 145.932 68.1633C145.9 68.3058 145.839 68.4401 145.753 68.5581C145.666 68.6761 145.557 68.7752 145.432 68.8494C145.164 69.0455 144.833 69.1343 144.503 69.0984C144.173 69.0625 143.869 68.9045 143.65 68.6554Z" fill="white"/>
<path d="M144.637 69.3573C144.41 69.3612 144.185 69.313 143.98 69.2164C143.774 69.1199 143.593 68.9775 143.451 68.8001C142.123 67.0681 141.299 65.0021 141.068 62.8302C141.046 62.4285 141.177 62.0332 141.435 61.7252C141.693 61.4172 142.06 61.2199 142.458 61.1736C142.656 61.1428 142.857 61.152 143.05 61.2007C143.244 61.2494 143.426 61.3366 143.585 61.4571C143.711 61.5527 143.816 61.673 143.894 61.8108C143.971 61.9485 144.02 62.1008 144.037 62.2581C144.225 64.0512 144.903 65.7574 145.998 67.1882C146.094 67.3134 146.163 67.4571 146.201 67.6102C146.24 67.7634 146.246 67.9229 146.221 68.0787C146.189 68.2784 146.118 68.4695 146.01 68.6405C145.903 68.8116 145.761 68.9589 145.595 69.0737C145.314 69.2671 144.979 69.3664 144.637 69.3573ZM142.687 61.6412H142.523C142.253 61.6734 142.005 61.8057 141.828 62.0119C141.651 62.2182 141.557 62.4835 141.565 62.7556C141.784 64.8411 142.572 66.8257 143.843 68.4916C144.025 68.6939 144.275 68.8208 144.545 68.8475C144.815 68.8742 145.085 68.7987 145.303 68.6359C145.414 68.5617 145.509 68.4657 145.582 68.3537C145.656 68.2417 145.706 68.116 145.729 67.9842C145.743 67.8972 145.738 67.8084 145.717 67.723C145.696 67.6376 145.658 67.5573 145.605 67.4867C144.454 65.9821 143.74 64.1883 143.54 62.3029C143.53 62.2125 143.502 62.125 143.458 62.0456C143.413 61.9661 143.354 61.8963 143.282 61.8402C143.111 61.7105 142.901 61.6422 142.687 61.6462V61.6412Z" fill="#040047"/>
<path d="M87.9959 103.092C87.9301 103.096 87.8654 103.073 87.8161 103.029C87.7668 102.985 87.7368 102.924 87.7329 102.858C87.7289 102.792 87.7513 102.727 87.795 102.678C87.8388 102.628 87.9003 102.598 87.9662 102.594C88.1895 102.569 110.328 99.9077 127.954 85.595C128.005 85.5537 128.07 85.5343 128.135 85.5408C128.2 85.5473 128.26 85.5793 128.302 85.6298C128.342 85.682 128.361 85.7477 128.354 85.8133C128.348 85.879 128.316 85.9397 128.267 85.983C110.526 100.41 88.2491 103.062 88.0257 103.087L87.9959 103.092Z" fill="#D1D3D4"/>
<path d="M98.2858 23.8271C98.7265 23.6402 99.0809 23.2939 99.2785 22.857C100.098 21.5926 100.542 20.121 100.559 18.6135C100.515 16.4052 99.6149 14.301 98.0488 12.7471C96.4826 11.1933 94.3741 10.3121 92.1705 10.2905L93.9276 11.7233C92.4217 11.6639 90.9244 11.9763 89.5672 12.633C88.2101 13.2897 87.0347 14.2705 86.1445 15.4893C86.7393 15.3152 87.3752 15.3449 87.9513 15.5738C87.0532 15.8081 86.1697 16.0955 85.3056 16.4345C85.1685 16.4719 85.0468 16.5521 84.9581 16.6633C84.8859 16.8195 84.8753 16.9972 84.9283 17.1608C85.5637 20.1209 87.7775 22.8521 90.731 23.4789C91.2273 23.5834 91.7237 23.6282 92.2548 23.6928C93.3816 23.8371 94.4935 24.0759 95.6302 24.1356C96.3437 24.1864 97.0608 24.1345 97.7596 23.9814C97.938 23.9409 98.1138 23.8894 98.2858 23.8271Z" fill="white"/>
<path d="M96.1417 24.389H95.5857C94.8436 24.3361 94.1047 24.2448 93.3719 24.1154C92.9798 24.0557 92.5876 23.996 92.1955 23.9462L91.8282 23.9015C91.441 23.8517 91.0439 23.8069 90.6518 23.7224C87.7778 23.1154 85.3803 20.5086 84.6953 17.255C84.6579 17.1434 84.6439 17.0253 84.6541 16.908C84.6644 16.7908 84.6987 16.6769 84.7548 16.5735C84.8674 16.4225 85.026 16.3125 85.2065 16.2601C85.7923 16.0262 86.3879 15.8223 86.9885 15.6382C86.7199 15.6306 86.4519 15.6658 86.1943 15.7427C86.1493 15.7558 86.1013 15.7548 86.0569 15.7396C86.0125 15.7245 85.9738 15.696 85.9461 15.6581C85.9193 15.6185 85.9049 15.5717 85.9049 15.5238C85.9049 15.4759 85.9193 15.4291 85.9461 15.3895C86.7959 14.2326 87.8961 13.2838 89.1642 12.6143C90.4322 11.9448 91.8352 11.5721 93.2677 11.524L92.0118 10.4992C91.9762 10.4687 91.9505 10.4283 91.9381 10.383C91.9257 10.3378 91.9272 10.2898 91.9423 10.2454C91.9594 10.2013 91.9894 10.1635 92.0284 10.1368C92.0674 10.1102 92.1136 10.096 92.1608 10.0962C94.4196 10.1187 96.5816 11.0193 98.1909 12.6081C99.8002 14.1969 100.731 16.3498 100.788 18.6132C100.777 20.1702 100.32 21.6913 99.4724 22.996C99.2498 23.4758 98.8569 23.8553 98.3704 24.0607C98.1872 24.1351 97.9979 24.1934 97.8045 24.2348C97.2582 24.3513 96.7001 24.4031 96.1417 24.389ZM86.919 15.1308C87.2981 15.132 87.6736 15.2046 88.026 15.3447C88.0702 15.3638 88.1077 15.3958 88.1334 15.4367C88.1591 15.4776 88.1718 15.5253 88.1699 15.5735C88.1657 15.6206 88.1473 15.6654 88.1171 15.7018C88.087 15.7382 88.0466 15.7646 88.0011 15.7775C87.109 16.0078 86.232 16.2936 85.3753 16.6332C85.3186 16.635 85.2634 16.6525 85.216 16.6837C85.1686 16.715 85.1307 16.7588 85.1065 16.8103C85.0824 16.8617 85.0729 16.9189 85.0792 16.9755C85.0855 17.032 85.1072 17.0857 85.142 17.1307C85.8072 20.235 88.0657 22.7025 90.7659 23.2746C91.1382 23.3542 91.5254 23.399 91.8977 23.4438L92.2749 23.4885C92.6671 23.5383 93.0642 23.603 93.4613 23.6627C94.1792 23.7898 94.9032 23.8795 95.6304 23.9313C96.3225 23.9835 97.0186 23.9316 97.6953 23.7771C97.8648 23.7395 98.0308 23.6879 98.1917 23.6229C98.5871 23.4576 98.9037 23.1457 99.0753 22.7523C99.8779 21.5199 100.315 20.0846 100.336 18.6132C100.293 16.5822 99.5062 14.638 98.1247 13.1516C96.7432 11.6651 94.8641 10.7404 92.8458 10.5539L94.0619 11.5489C94.0985 11.5796 94.1248 11.621 94.1372 11.6672C94.1497 11.7135 94.1476 11.7625 94.1314 11.8075C94.1167 11.8539 94.0864 11.8936 94.0456 11.92C94.0048 11.9463 93.9562 11.9576 93.908 11.9518C92.5389 11.9041 91.1769 12.1681 89.9243 12.7239C88.6716 13.2797 87.561 14.1128 86.6758 15.1606L86.919 15.1308Z" fill="#040047"/>
<path d="M92.2349 28.2944C92.2349 28.2944 92.3242 33.4981 94.7664 33.6623C97.2085 33.8265 97.2483 29.0606 97.2483 29.0606" fill="#040047"/>
<path d="M94.8858 33.8863H94.7518C92.1359 33.7122 92.0167 28.5234 92.0118 28.3045C92.007 28.2727 92.0091 28.2401 92.018 28.2092C92.0269 28.1782 92.0424 28.1496 92.0634 28.1252C92.0843 28.1008 92.1103 28.0812 92.1395 28.0677C92.1687 28.0543 92.2005 28.0474 92.2326 28.0474C92.2648 28.0474 92.2965 28.0543 92.3258 28.0677C92.355 28.0812 92.381 28.1008 92.4019 28.1252C92.4229 28.1496 92.4384 28.1782 92.4473 28.2092C92.4562 28.2401 92.4583 28.2727 92.4535 28.3045C92.4535 28.3543 92.5677 33.3043 94.7815 33.4535C94.9738 33.4711 95.1676 33.4464 95.3494 33.3811C95.5312 33.3158 95.6965 33.2115 95.8339 33.0754C96.9954 32.0008 97.05 29.0955 97.05 29.0657C97.0536 29.0093 97.0779 28.9562 97.1182 28.9167C97.1586 28.8772 97.212 28.8541 97.2684 28.8517C97.3263 28.8517 97.3819 28.8748 97.4228 28.9159C97.4638 28.9569 97.4868 29.0126 97.4868 29.0706C97.4868 29.2 97.4322 32.1949 96.1317 33.3988C95.7944 33.7159 95.3482 33.8905 94.8858 33.8863Z" fill="#040047"/>
<path d="M97.0396 25.7768L97.268 29.0602C97.268 29.0602 97.0545 30.9108 95.0244 30.478C94.4267 30.3446 93.8661 30.0794 93.3836 29.7016C92.901 29.3238 92.5086 28.843 92.2347 28.2941C92.2347 28.2941 91.7383 20.4338 91.5547 18.3443C93.0129 18.1699 94.4182 17.6902 95.6796 16.9364C95.8668 16.7925 96.0721 16.6738 96.2901 16.5832C96.6971 16.5235 96.6475 16.7524 96.8262 17.0807C97.1523 17.7091 97.6756 18.2125 98.3153 18.5135C98.3971 18.5406 98.4695 18.5907 98.5238 18.6577C98.5546 18.7125 98.5716 18.774 98.5734 18.8368C98.7819 20.7124 99.1641 22.5779 98.8961 24.4634C98.6777 26.0753 97.0396 25.7768 97.0396 25.7768Z" fill="white"/>
<path d="M95.6051 30.7716C95.3947 30.772 95.1849 30.7486 94.9796 30.702C94.3453 30.5642 93.7502 30.2847 93.2388 29.8841C92.7274 29.4835 92.3129 28.9723 92.0262 28.3887C92.0217 28.3623 92.0217 28.3354 92.0262 28.3091C92.0262 28.2295 91.5298 20.4289 91.3511 18.3593C91.3469 18.298 91.3665 18.2374 91.4057 18.1902C91.4247 18.1675 91.4482 18.1492 91.4747 18.1363C91.5012 18.1235 91.5302 18.1164 91.5596 18.1156C92.985 17.9428 94.3583 17.4716 95.5902 16.7325L95.759 16.6231C95.9033 16.4989 96.0725 16.4073 96.2553 16.3545C96.3284 16.3354 96.4046 16.3314 96.4793 16.3428C96.554 16.3542 96.6255 16.3807 96.6896 16.4207C96.7537 16.4608 96.809 16.5135 96.8521 16.5756C96.8952 16.6378 96.9252 16.7081 96.9403 16.7823C96.9643 16.8543 96.9942 16.9242 97.0297 16.9912C97.3283 17.5763 97.8142 18.0441 98.4096 18.3195C98.5334 18.3644 98.6408 18.446 98.7173 18.5533C98.7649 18.637 98.7922 18.7308 98.7968 18.827C98.8414 19.2299 98.896 19.6329 98.9457 20.0309C99.2101 21.5081 99.2685 23.0149 99.1194 24.5083C99.0987 24.7361 99.0311 24.9572 98.9209 25.1575C98.8107 25.3579 98.6602 25.5332 98.4791 25.6724C98.1245 25.9056 97.7068 26.0237 97.2828 26.0107L97.4913 29.0254C97.4595 29.2996 97.3738 29.5648 97.2392 29.8055C97.1046 30.0463 96.9237 30.258 96.707 30.4284C96.3859 30.6581 95.9996 30.7785 95.6051 30.7716ZM92.4581 28.2394C92.7216 28.7463 93.0921 29.1895 93.5438 29.5383C93.9956 29.8871 94.5177 30.1331 95.074 30.2592C95.285 30.3357 95.5105 30.3634 95.7337 30.3403C95.9569 30.3172 96.172 30.2438 96.363 30.1256C96.5539 30.0075 96.7157 29.8476 96.8363 29.6579C96.9569 29.4683 97.0332 29.2538 97.0595 29.0304L96.8311 25.7968C96.8283 25.7628 96.8331 25.7287 96.8451 25.6968C96.8571 25.665 96.8761 25.6363 96.9006 25.6127C96.9263 25.5888 96.9571 25.571 96.9906 25.5607C97.0241 25.5503 97.0595 25.5477 97.0942 25.553C97.4872 25.6114 97.8881 25.5286 98.2259 25.3192C98.3571 25.2146 98.4656 25.0843 98.545 24.9364C98.6244 24.7884 98.6729 24.6258 98.6876 24.4585C98.8236 23.0062 98.7651 21.5423 98.5138 20.1055C98.4592 19.7025 98.4096 19.2996 98.3649 18.8916C98.3649 18.8916 98.3649 18.822 98.3649 18.8071L98.2607 18.7523C97.5626 18.4374 96.9908 17.8958 96.6375 17.2151C96.595 17.1326 96.5568 17.048 96.5234 16.9614C96.5063 16.9098 96.4847 16.8599 96.4588 16.8121C96.4176 16.8077 96.376 16.8077 96.3347 16.8121C96.2167 16.8604 96.1063 16.9258 96.0071 17.0062C95.9277 17.0559 95.8582 17.1106 95.7987 17.1405C94.5794 17.8662 93.2305 18.3461 91.8277 18.5533C91.9766 20.8119 92.4183 27.6225 92.4581 28.2394Z" fill="#040047"/>
<path d="M97.1341 27.394C96.3288 27.458 95.5295 27.2106 94.9005 26.7025C94.6428 26.4916 94.4339 26.2271 94.2882 25.9273C94.1425 25.6276 94.0635 25.2997 94.0566 24.9663C94.9678 25.4778 95.9907 25.7563 97.0349 25.7772L97.1341 27.394Z" fill="#040047"/>
<path d="M96.8858 27.6227C96.1025 27.6383 95.3403 27.3677 94.7415 26.8615C94.4599 26.6287 94.2323 26.3372 94.0745 26.0073C93.9168 25.6774 93.8327 25.317 93.8281 24.9511C93.8322 24.9139 93.8452 24.8782 93.8659 24.847C93.8866 24.8159 93.9145 24.7902 93.9473 24.7721C93.9799 24.7538 94.0166 24.7441 94.054 24.7441C94.0913 24.7441 94.1281 24.7538 94.1607 24.7721C95.0366 25.2725 96.0219 25.5493 97.0297 25.578C97.087 25.5778 97.1423 25.5991 97.1846 25.6378C97.2269 25.6765 97.2531 25.7297 97.2581 25.7869L97.3425 27.3988C97.3466 27.4548 97.3286 27.5101 97.2924 27.5529C97.2562 27.5957 97.2046 27.6226 97.1489 27.6276C97.0612 27.6336 96.9732 27.6319 96.8858 27.6227ZM94.3046 25.3442C94.4205 25.8075 94.6751 26.2242 95.0343 26.5381C95.5575 26.9696 96.2184 27.1975 96.8957 27.1799L96.8312 26.0008C95.9528 25.9588 95.0927 25.7353 94.3046 25.3442Z" fill="#040047"/>
<path d="M96.5385 19.9517C96.5385 19.9517 97.6901 21.4441 97.4568 21.7526C97.2235 22.061 96.5137 21.9068 96.5137 21.9068" fill="white"/>
<path d="M96.8758 22.1604C96.7408 22.1617 96.606 22.1483 96.4738 22.1206C96.4454 22.1153 96.4184 22.1046 96.3942 22.0889C96.37 22.0732 96.3491 22.0528 96.3327 22.0291C96.3164 22.0053 96.3048 21.9785 96.2988 21.9502C96.2928 21.922 96.2924 21.8928 96.2976 21.8644C96.3028 21.836 96.3135 21.8088 96.3292 21.7846C96.3449 21.7603 96.3651 21.7394 96.3889 21.723C96.4126 21.7066 96.4394 21.6951 96.4675 21.689C96.4957 21.683 96.5248 21.6825 96.5532 21.6878C96.7964 21.7375 97.1886 21.7375 97.2878 21.6131C97.0575 21.067 96.7462 20.5588 96.3646 20.1058C96.3468 20.0829 96.3338 20.0568 96.3262 20.0289C96.3186 20.001 96.3166 19.9719 96.3203 19.9432C96.324 19.9146 96.3333 19.8869 96.3477 19.8619C96.3621 19.8368 96.3814 19.8149 96.4043 19.7973C96.4274 19.7798 96.4537 19.7671 96.4817 19.7598C96.5097 19.7526 96.5389 19.751 96.5675 19.7552C96.5961 19.7594 96.6237 19.7692 96.6485 19.7841C96.6733 19.799 96.6949 19.8187 96.712 19.8421C97.5459 20.9316 97.8537 21.6281 97.6303 21.9116C97.5284 22.0029 97.4088 22.0721 97.279 22.1149C97.1492 22.1577 97.0119 22.1732 96.8758 22.1604Z" fill="#040047"/>
<path d="M96.3945 23.8666H96.3051C95.2081 23.8069 94.3841 22.7423 94.3494 22.6975C94.3318 22.6746 94.3189 22.6485 94.3113 22.6206C94.3038 22.5928 94.3018 22.5637 94.3055 22.535C94.3092 22.5064 94.3185 22.4788 94.3328 22.4537C94.3472 22.4287 94.3663 22.4067 94.3891 22.3891C94.4119 22.3714 94.438 22.3584 94.4658 22.3509C94.4936 22.3434 94.5226 22.3414 94.5512 22.3451C94.5798 22.3488 94.6074 22.3581 94.6324 22.3724C94.6573 22.3868 94.6793 22.406 94.6969 22.4288C94.6969 22.4288 95.4365 23.3791 96.325 23.4238C96.5594 23.4268 96.7913 23.3758 97.003 23.2749C97.2146 23.174 97.4004 23.0258 97.5461 22.8418C97.5876 22.8022 97.6427 22.7802 97.6999 22.7802C97.7572 22.7802 97.8123 22.8022 97.8538 22.8418C97.8747 22.8622 97.8913 22.8865 97.9026 22.9134C97.9139 22.9404 97.9197 22.9693 97.9197 22.9985C97.9197 23.0277 97.9139 23.0566 97.9026 23.0835C97.8913 23.1104 97.8747 23.1348 97.8538 23.1552C97.6743 23.3701 97.4515 23.5445 97.2 23.6671C96.9485 23.7897 96.674 23.8577 96.3945 23.8666Z" fill="#040047"/>
<path d="M98.0225 70.1279L94.394 84.9232C94.394 84.9232 112.467 78.8588 113.117 76.8788C113.768 74.8988 103.771 77.1773 103.771 77.1773L104.48 72.9487L98.0225 70.1279Z" fill="white"/>
<path d="M94.3944 85.1719C94.357 85.1715 94.3201 85.1626 94.2866 85.1459C94.2531 85.1292 94.2238 85.1051 94.2009 85.0754C94.1779 85.0458 94.162 85.0113 94.1543 84.9746C94.1465 84.9379 94.1472 84.8999 94.1562 84.8634L97.7797 70.0682C97.7882 70.0327 97.8044 69.9994 97.8272 69.9709C97.8499 69.9424 97.8787 69.9192 97.9114 69.9031C97.9441 69.8869 97.9799 69.8782 98.0163 69.8775C98.0528 69.8768 98.0889 69.8841 98.1222 69.899L104.575 72.7198C104.625 72.7427 104.667 72.7812 104.694 72.8295C104.72 72.8779 104.731 72.9336 104.724 72.9884L104.084 76.8539C106.069 76.4161 112.234 75.1624 113.232 76.2669C113.316 76.3571 113.373 76.4699 113.395 76.5918C113.417 76.7136 113.404 76.8392 113.356 76.9534C112.686 78.9981 96.3402 84.5351 94.4937 85.157C94.4624 85.1702 94.4283 85.1753 94.3944 85.1719ZM98.1917 70.4761L94.7469 84.5401C101.696 82.187 112.443 78.1275 112.884 76.7992C112.919 76.6798 112.884 76.635 112.86 76.6002C112.18 75.849 106.958 76.7047 103.826 77.421C103.786 77.4294 103.745 77.4278 103.706 77.4165C103.667 77.4053 103.631 77.3846 103.602 77.3564C103.572 77.3281 103.55 77.2929 103.537 77.2538C103.524 77.2148 103.521 77.1731 103.528 77.1325L104.208 73.0979L98.1917 70.4761Z" fill="#040047"/>
<path d="M82.9229 53.5817C82.9229 53.5817 80.4162 64.0289 85.3651 65.4467C90.3139 66.8646 98.5935 61.1932 98.5935 61.1932L95.913 70.8992C95.913 70.8992 94.1162 75.2821 96.7221 75.0881C99.07 72.0385 102.277 71.2325 104.48 72.9489C107.93 69.1132 113.986 57.0641 110.075 52.93C106.163 48.7959 82.9229 53.5817 82.9229 53.5817Z" fill="#040047"/>
<path d="M96.5583 75.3266C96.3383 75.3417 96.1179 75.3018 95.917 75.2107C95.716 75.1195 95.5407 74.9799 95.4068 74.8043C94.5679 73.6501 95.6649 70.9487 95.7096 70.8244L98.2262 61.7104C96.3548 62.9093 89.6538 66.9141 85.3204 65.6903C80.2276 64.2327 82.6201 53.9944 82.7244 53.5616C82.734 53.5209 82.7549 53.4838 82.7848 53.4548C82.8147 53.4257 82.8523 53.4058 82.8931 53.3974C83.8512 53.1984 106.302 48.6315 110.248 52.8104C114.195 56.9892 108.263 69.1329 104.659 73.1228C104.623 73.1648 104.572 73.1913 104.516 73.1968C104.461 73.2024 104.405 73.1866 104.361 73.1526C103.944 72.8259 103.465 72.5863 102.954 72.4479C102.442 72.3095 101.908 72.2751 101.383 72.3467C99.7947 72.5506 98.2162 73.5804 96.9157 75.252C96.8978 75.2765 96.8747 75.2967 96.8481 75.3113C96.8215 75.3259 96.7921 75.3345 96.7619 75.3366L96.5583 75.3266ZM98.5935 60.989C98.6402 60.9894 98.6856 61.0051 98.7225 61.0338C98.7592 61.0591 98.787 61.0953 98.8021 61.1372C98.8172 61.1791 98.8189 61.2247 98.8069 61.2676L96.1414 70.9587C95.8436 71.6999 95.2032 73.7347 95.784 74.5356C95.8839 74.6598 96.014 74.7561 96.1618 74.8153C96.3096 74.8746 96.47 74.8947 96.6278 74.8739C97.978 73.1576 99.6359 72.0979 101.314 71.889C102.425 71.7302 103.555 72.0044 104.471 72.6551C107.896 68.71 113.629 56.9942 109.931 53.084C106.233 49.1737 85.0474 53.3874 83.1264 53.7755C82.8584 54.9943 81.0516 63.9839 85.4445 65.2177C90.2296 66.5858 98.4098 61.0487 98.4892 60.994C98.5219 60.9793 98.5577 60.9724 98.5935 60.9741V60.989Z" fill="#040047"/>
<path d="M94.394 84.9232C94.394 84.9232 96.3795 86.8733 102.038 84.9232C107.697 82.973 114.845 77.7444 113.117 76.8788C111.39 76.0132 96.3101 82.1919 94.394 84.9232Z" fill="#040047"/>
<path d="M97.5362 86.013C95.238 86.013 94.2998 85.1324 94.2452 85.0777C94.2073 85.0418 94.1834 84.9934 94.178 84.9414C94.1725 84.8894 94.1858 84.8372 94.2155 84.7941C96.1017 82.1127 111.196 75.6652 113.217 76.6801C113.34 76.736 113.442 76.8287 113.511 76.9453C113.579 77.062 113.61 77.197 113.599 77.3318C113.48 79.0531 107.042 83.426 102.113 85.1324C100.646 85.6759 99.0996 85.9734 97.5362 86.013ZM94.7069 84.8837C95.2678 85.2568 97.3873 86.2965 101.969 84.7145C106.933 82.9982 113.068 78.7049 113.162 77.302C113.167 77.2532 113.156 77.2041 113.13 77.1626C113.104 77.1211 113.064 77.0896 113.018 77.0731C111.529 76.3219 97.0646 82.1127 94.7069 84.8837Z" fill="#040047"/>
<path d="M104.58 76.237C103.274 76.7233 102.008 77.3105 100.792 77.9932L100.996 75.7047C100.996 75.7047 103.93 74.277 104.58 74.3615V76.237Z" fill="white"/>
<path d="M100.802 78.2423C100.759 78.2426 100.716 78.2305 100.678 78.2075C100.638 78.1836 100.604 78.1483 100.583 78.1059C100.562 78.0634 100.554 78.0158 100.559 77.9687L100.763 75.6852C100.766 75.6431 100.779 75.6025 100.803 75.5676C100.827 75.5326 100.859 75.5046 100.897 75.4862C101.393 75.2424 103.94 74.0335 104.625 74.1131C104.685 74.1205 104.74 74.1501 104.779 74.1961C104.819 74.2421 104.84 74.3012 104.838 74.3619V76.2374C104.838 76.2878 104.822 76.3369 104.794 76.3786C104.766 76.4202 104.726 76.4525 104.679 76.4712C103.391 76.9516 102.141 77.5304 100.941 78.2025C100.9 78.2283 100.852 78.242 100.802 78.2423ZM101.244 75.8693L101.095 77.5259C102.149 76.9788 103.233 76.4922 104.342 76.0683V74.6255C103.275 74.9495 102.239 75.3656 101.244 75.8693Z" fill="#040047"/>
<path d="M89.0088 28.7324C89.0088 28.7324 71.0847 36.0256 69.5658 38.0752C68.0469 40.1249 65.4409 52.5521 65.4409 52.5521L70.8564 51.771C70.8564 51.771 75.7556 44.06 77.2745 42.4282C78.7934 40.7965 87.3757 38.513 87.3757 38.513L89.0088 28.7324Z" fill="#4F51FF"/>
<path d="M73.8045 48.2535L70.1611 54.5019C70.1611 54.5019 73.2585 56.9894 72.504 57.3973C71.7495 57.8053 71.0149 58.1286 71.0149 58.1286C71.0149 58.1286 70.9355 60.1733 70.0221 60.4171C69.1088 60.6608 64.011 60.2081 64.2394 58.457C65.0336 52.4175 66.0214 45.5472 65.9568 46.3332L73.8045 48.2535Z" fill="white"/>
<path d="M69.3073 60.7254C67.9423 60.7254 65.4902 60.3822 64.4925 59.5066C64.3268 59.3826 64.1965 59.2171 64.1146 59.0268C64.0327 58.8365 64.0021 58.628 64.0259 58.4221C64.3584 55.86 64.7704 52.8552 65.1477 50.1837C65.4803 47.8505 65.6441 46.8157 65.7384 46.363C65.7359 46.3448 65.7359 46.3264 65.7384 46.3083C65.7356 46.3197 65.7356 46.3316 65.7384 46.3431C65.8228 46.0048 65.8873 46.0098 66.0064 46.0247C66.0416 46.0273 66.0758 46.0375 66.1067 46.0547C66.1376 46.0719 66.1643 46.0956 66.1851 46.1242L73.8541 48.0097C73.8912 48.0196 73.9255 48.0377 73.9547 48.0627C73.9839 48.0877 74.0072 48.1188 74.0229 48.1539C74.0399 48.1888 74.0488 48.2271 74.0488 48.2659C74.0488 48.3047 74.0399 48.343 74.0229 48.3778L70.4787 54.4322C71.2233 55.0441 72.9259 56.5217 72.8613 57.2331C72.8545 57.3111 72.8281 57.3862 72.7848 57.4514C72.7414 57.5166 72.6824 57.5698 72.6132 57.6062C72.0572 57.9047 71.5162 58.1684 71.268 58.2828C71.2283 58.8151 71.0347 60.3971 70.1214 60.6458C69.854 60.704 69.5808 60.7307 69.3073 60.7254ZM66.1702 46.6366C65.9617 47.945 65.1775 53.3228 64.5173 58.4867C64.5074 58.6116 64.5301 58.7369 64.5832 58.8503C64.6363 58.9637 64.7179 59.0613 64.8201 59.1335C65.922 60.0986 69.2874 60.3623 69.9873 60.1732C70.578 60.014 70.7617 58.6012 70.7815 58.1186C70.7837 58.0732 70.7983 58.0292 70.8237 57.9915C70.8491 57.9538 70.8843 57.9237 70.9255 57.9047C70.9255 57.9047 71.6403 57.5763 72.3799 57.1783C72.4096 56.9147 71.3027 55.7406 70.0022 54.6909C69.9551 54.6544 69.923 54.6018 69.912 54.5431C69.9011 54.4844 69.912 54.4237 69.9427 54.3725L73.4173 48.4027L66.1702 46.6366Z" fill="#040047"/>
<path d="M122.107 22.5634C122.107 22.3146 119.66 13.9718 119.66 13.9718L124.956 12.1112C124.956 12.1112 124.877 10.1511 126.013 9.41481C127.15 8.67852 128.704 9.41481 128.704 9.41481C128.704 9.41481 133.345 5.49958 133.916 6.31546C134.486 7.13134 132.774 8.92727 130.168 10.7928C130.168 10.7928 131.553 14.713 130.004 15.9369C129.098 16.6642 127.998 17.1088 126.842 17.2154L122.107 22.5634Z" fill="white"/>
<path d="M122.107 22.8121C122.077 22.8168 122.047 22.8168 122.018 22.8121C121.973 22.7954 121.933 22.7657 121.905 22.7268C121.877 22.6878 121.861 22.6413 121.859 22.5932C121.804 22.2449 120.37 17.3049 119.422 14.0563C119.405 13.9943 119.412 13.9284 119.442 13.8714C119.471 13.8144 119.521 13.7704 119.581 13.7479L124.708 11.947C124.708 11.4147 124.842 9.89234 125.88 9.22073C126.917 8.54913 128.222 8.96702 128.659 9.14114C129.548 8.39988 132.695 5.82787 133.752 5.97214C133.825 5.97995 133.895 6.00303 133.958 6.03989C134.022 6.07675 134.077 6.12655 134.119 6.18606C134.943 7.36511 132.253 9.60877 130.461 10.9122C130.719 11.7231 131.647 14.9816 130.158 16.1557C129.238 16.8907 128.131 17.3511 126.962 17.484L122.291 22.7424C122.266 22.766 122.238 22.7843 122.206 22.7962C122.174 22.8082 122.141 22.8136 122.107 22.8121ZM119.968 14.1359C120.727 16.7427 121.864 20.648 122.231 22.0559L126.659 17.081C126.704 17.0318 126.766 17.0016 126.833 16.9965C127.936 16.8899 128.984 16.4648 129.851 15.7726C131.007 14.8573 130.302 11.9519 129.935 10.9072C129.917 10.8566 129.917 10.8017 129.933 10.7506C129.949 10.6995 129.981 10.655 130.024 10.6236C133.052 8.44465 134.055 6.96712 133.712 6.47461C133.36 6.26069 131.101 7.73822 128.863 9.62867C128.826 9.65858 128.782 9.67732 128.736 9.68262C128.689 9.68791 128.642 9.67955 128.6 9.65852C128.6 9.65852 127.155 8.99686 126.148 9.65852C125.14 10.3202 125.204 12.1161 125.204 12.146C125.206 12.1994 125.191 12.2519 125.16 12.2958C125.13 12.3397 125.086 12.3727 125.036 12.3897L119.968 14.1359Z" fill="#040047"/>
<path d="M101.776 47.1989H101.731C101.672 47.1869 101.62 47.1519 101.586 47.1015C101.553 47.0512 101.54 46.9896 101.552 46.9302C103.007 39.7565 104.386 26.8566 104.317 26.2298C104.31 26.2017 104.308 26.1724 104.312 26.1436C104.316 26.1148 104.325 26.0871 104.34 26.0621C104.355 26.0371 104.375 26.0153 104.398 25.9979C104.421 25.9806 104.448 25.9681 104.476 25.9611C104.536 25.9461 104.599 25.9554 104.652 25.9871C104.705 26.0188 104.744 26.0703 104.759 26.1303C104.883 26.593 103.453 39.841 101.999 47.0247C101.986 47.0743 101.957 47.1182 101.917 47.1496C101.876 47.1811 101.827 47.1984 101.776 47.1989Z" fill="#040047"/>
<path d="M78.8875 41.2489C78.8346 41.2474 78.7839 41.2276 78.744 41.1928C78.7041 41.158 78.6775 41.1104 78.6687 41.0582C78.6599 41.0059 78.6695 40.9522 78.6958 40.9062C78.7221 40.8603 78.7635 40.8249 78.813 40.8061L88.9341 37.473C88.9898 37.4592 89.0487 37.467 89.0989 37.4947C89.1492 37.5225 89.1872 37.5682 89.2054 37.6228C89.2235 37.6774 89.2205 37.7368 89.1969 37.7892C89.1733 37.8417 89.1309 37.8833 89.078 37.9058L78.9569 41.2389C78.9347 41.2468 78.911 41.2502 78.8875 41.2489Z" fill="#040047"/>
<path d="M128.798 14.6334C128.755 14.6381 128.712 14.6381 128.669 14.6334C128.285 14.5499 127.929 14.3687 127.635 14.1073C127.341 13.8459 127.12 13.5131 126.991 13.1409C126.956 13.4684 126.827 13.7787 126.62 14.0346C126.413 14.2905 126.137 14.4812 125.825 14.5836C125.796 14.5931 125.766 14.5966 125.737 14.5939C125.707 14.5912 125.678 14.5825 125.652 14.5681C125.625 14.5538 125.602 14.5342 125.584 14.5106C125.565 14.4869 125.552 14.4598 125.545 14.4307C125.537 14.4017 125.536 14.3714 125.54 14.3418C125.545 14.3122 125.556 14.2839 125.572 14.2585C125.588 14.2332 125.609 14.2115 125.633 14.1947C125.658 14.1779 125.686 14.1663 125.716 14.1608C126.823 13.8722 126.629 11.937 126.624 11.9171C126.618 11.8592 126.635 11.8014 126.672 11.7559C126.708 11.7104 126.76 11.6808 126.818 11.6733C126.874 11.6688 126.931 11.6856 126.976 11.7206C127.021 11.7556 127.051 11.8061 127.061 11.8624C127.061 11.8624 127.369 13.9518 128.734 14.1558C128.779 14.1679 128.827 14.1668 128.872 14.1527C128.916 14.1386 128.956 14.1121 128.987 14.0762C129.483 13.529 128.937 10.9569 128.49 9.46946C128.473 9.41405 128.479 9.35411 128.506 9.30281C128.533 9.25151 128.579 9.21304 128.634 9.19585C128.662 9.18747 128.691 9.1847 128.72 9.18769C128.749 9.19068 128.777 9.19937 128.802 9.21325C128.827 9.22714 128.85 9.24594 128.868 9.26858C128.886 9.29121 128.899 9.31722 128.907 9.34509C129.031 9.76298 130.099 13.4543 129.309 14.3647C129.25 14.4454 129.173 14.5115 129.085 14.558C128.996 14.6046 128.898 14.6303 128.798 14.6334Z" fill="#040047"/>
<path d="M16.8605 82.4857C16.1159 80.9933 8.84897 68.4616 7.73212 60.4321C7.73212 60.4321 7.60306 76.0781 14.0956 84.1324C20.5882 92.1867 16.8605 82.4857 16.8605 82.4857Z" fill="#F6C707"/>
<path d="M93.0838 19.3198L90.582 20.3994V20.9466L93.9623 19.9516L93.0838 19.3198Z" fill="#040047"/>
<path d="M90.5822 21.1654C90.5338 21.1658 90.4867 21.1501 90.4482 21.1207C90.4215 21.1003 90.3999 21.074 90.3852 21.0437C90.3706 21.0135 90.3632 20.9802 90.3638 20.9465V20.3993C90.363 20.3564 90.3748 20.3141 90.3977 20.2779C90.4207 20.2416 90.4538 20.2129 90.4929 20.1953L92.9747 19.1158C93.0094 19.1011 93.0473 19.0957 93.0847 19.1001C93.1221 19.1045 93.1578 19.1184 93.1882 19.1407L94.0668 19.7774C94.0993 19.8017 94.1243 19.8346 94.1392 19.8724C94.1542 19.9102 94.1583 19.9514 94.1511 19.9914C94.145 20.0322 94.1272 20.0703 94.0999 20.1012C94.0726 20.1321 94.0369 20.1544 93.9973 20.1655L90.617 21.1605L90.5822 21.1654ZM90.8006 20.5436V20.653L93.4711 19.867L93.0591 19.5685L90.8006 20.5436Z" fill="#040047"/>
<path d="M92.2647 21.4041C91.8875 20.9365 91.272 20.0808 90.582 20.4091C90.3939 20.4978 90.2328 20.6352 90.1154 20.8071C89.8835 21.16 89.7632 21.5748 89.7703 21.9973C89.7774 22.4198 89.9115 22.8303 90.1552 23.1752C90.5274 23.8119 91.6443 24.7373 92.2896 23.8667" fill="white"/>
<path d="M91.6294 24.4387H91.5649C91.2305 24.3718 90.9141 24.2342 90.6368 24.0352C90.3595 23.8362 90.1276 23.5803 89.9566 23.2846C89.6929 22.8976 89.5518 22.4399 89.5518 21.9712C89.5518 21.5026 89.6929 21.0448 89.9566 20.6578C90.0975 20.4555 90.2893 20.2942 90.5126 20.1902C91.3266 19.827 92.0017 20.6529 92.374 21.1454L92.4633 21.2598C92.5011 21.3071 92.5192 21.3672 92.5136 21.4275C92.508 21.4878 92.4793 21.5436 92.4336 21.5832C92.4102 21.6023 92.3832 21.6165 92.3543 21.6251C92.3253 21.6337 92.295 21.6364 92.265 21.6332C92.235 21.63 92.2059 21.6208 92.1795 21.6062C92.153 21.5917 92.1297 21.572 92.1109 21.5483L92.0166 21.4289C91.5798 20.8767 91.1479 20.4041 90.6962 20.6031C90.5446 20.6785 90.4148 20.7916 90.319 20.9315C90.1151 21.2495 90.0112 21.6216 90.021 21.9995C90.0307 22.3774 90.1536 22.7437 90.3736 23.0508C90.5046 23.2837 90.6827 23.4867 90.8963 23.6469C91.11 23.8071 91.3546 23.9209 91.6145 23.9811C91.7125 23.9814 91.8091 23.9575 91.8957 23.9116C91.9823 23.8656 92.0562 23.7989 92.1109 23.7174C92.1481 23.6703 92.2022 23.6398 92.2616 23.6323C92.321 23.6249 92.381 23.6411 92.4286 23.6776C92.4524 23.6956 92.4724 23.7183 92.4873 23.7442C92.5022 23.7701 92.5118 23.7987 92.5155 23.8284C92.5192 23.8581 92.5169 23.8882 92.5088 23.917C92.5007 23.9458 92.4869 23.9726 92.4683 23.996C92.3736 24.1313 92.2482 24.242 92.1023 24.319C91.9564 24.396 91.7943 24.4371 91.6294 24.4387Z" fill="#040047"/>
<path d="M94.7185 20.3267C95.5527 20.2378 96.1737 19.6452 96.1056 19.0032C96.0374 18.3611 95.306 17.9127 94.4718 18.0016C93.6377 18.0905 93.0167 18.6831 93.0848 19.3251C93.1529 19.9672 93.8843 20.4156 94.7185 20.3267Z" fill="white"/>
<path d="M94.5132 20.5633C94.137 20.5962 93.7616 20.4906 93.4574 20.2663C93.1532 20.0419 92.9409 19.7142 92.8603 19.3444C92.7759 18.5783 93.4907 17.8519 94.4487 17.7674C94.8809 17.7172 95.3178 17.8079 95.6946 18.0261C95.8672 18.1224 96.0147 18.2582 96.1251 18.4225C96.2355 18.5867 96.3057 18.7748 96.3299 18.9713C96.4143 19.7374 95.6995 20.4638 94.7415 20.5483C94.6658 20.5583 94.5896 20.5632 94.5132 20.5633ZM94.682 18.2101H94.4934C93.7885 18.2848 93.2574 18.7673 93.312 19.2847C93.3666 19.8021 93.9821 20.1603 94.6969 20.0857C95.4116 20.011 95.9378 19.5285 95.8832 19.0111C95.8628 18.884 95.8138 18.7633 95.7398 18.6582C95.6658 18.553 95.5689 18.4661 95.4563 18.4042C95.2206 18.2701 94.9529 18.203 94.682 18.2101Z" fill="#040047"/>
<path d="M97.8274 20.1773C98.6616 20.0884 99.2826 19.4958 99.2145 18.8538C99.1463 18.2117 98.4149 17.7633 97.5807 17.8522C96.7465 17.9411 96.1255 18.5337 96.1937 19.1757C96.2618 19.8178 96.9932 20.2662 97.8274 20.1773Z" fill="white"/>
<path d="M97.6306 20.4142C97.2544 20.4471 96.879 20.3416 96.5748 20.1172C96.2706 19.8929 96.0583 19.5652 95.9777 19.1954C95.8983 18.4292 96.6131 17.7029 97.5661 17.6183C98.5192 17.5338 99.3729 18.0561 99.4523 18.8223C99.5318 19.5884 98.8219 20.3147 97.8639 20.3943L97.6306 20.4142ZM97.8044 18.0611H97.6157C96.9059 18.1357 96.3748 18.6183 96.4294 19.1357C96.484 19.6531 97.1094 20.0113 97.8143 19.9366C98.5192 19.862 99.0552 19.3794 99.0006 18.8621C98.9298 18.6052 98.7688 18.3826 98.5471 18.2354C98.3254 18.0882 98.0581 18.0263 97.7944 18.0611H97.8044Z" fill="#040047"/>
<path d="M35.4445 73.1679C36.7083 73.1679 37.7328 72.1411 37.7328 70.8745C37.7328 69.6079 36.7083 68.5811 35.4445 68.5811C34.1808 68.5811 33.1562 69.6079 33.1562 70.8745C33.1562 72.1411 34.1808 73.1679 35.4445 73.1679Z" fill="white"/>
<path d="M35.4448 73.4165C34.942 73.4175 34.4501 73.269 34.0315 72.9897C33.613 72.7104 33.2864 72.3129 33.0933 71.8476C32.9002 71.3823 32.8492 70.87 32.9467 70.3755C33.0442 69.8811 33.2858 69.4268 33.6411 69.0701C33.9963 68.7133 34.4491 68.4703 34.9422 68.3716C35.4354 68.2729 35.9466 68.323 36.4113 68.5157C36.876 68.7083 37.2732 69.0348 37.5527 69.4538C37.8321 69.8728 37.9813 70.3654 37.9813 70.8694C37.9813 71.5441 37.7142 72.1912 37.2387 72.6688C36.7632 73.1463 36.118 73.4152 35.4448 73.4165ZM35.4448 68.8247C35.0399 68.8237 34.6439 68.9432 34.3068 69.1681C33.9697 69.3929 33.7068 69.713 33.5514 70.0877C33.396 70.4624 33.3551 70.875 33.4339 71.273C33.5126 71.6711 33.7075 72.0368 33.9938 72.3237C34.2801 72.6106 34.645 72.806 35.0421 72.8849C35.4393 72.9638 35.8509 72.9228 36.2248 72.7671C36.5987 72.6113 36.918 72.3478 37.1424 72.01C37.3667 71.6722 37.4859 71.2752 37.4849 70.8694C37.4836 70.3275 37.2683 69.8082 36.886 69.425C36.5037 69.0419 35.9855 68.826 35.4448 68.8247Z" fill="#D1D3D4"/>
<path d="M121.68 43.8008C122.313 43.8008 122.826 43.2863 122.826 42.6516C122.826 42.017 122.313 41.5024 121.68 41.5024C121.047 41.5024 120.533 42.017 120.533 42.6516C120.533 43.2863 121.047 43.8008 121.68 43.8008Z" fill="white"/>
<path d="M121.68 44.0498C121.404 44.0508 121.134 43.9696 120.904 43.8166C120.674 43.6636 120.494 43.4456 120.388 43.1903C120.282 42.9349 120.253 42.6537 120.306 42.3822C120.36 42.1107 120.492 41.8611 120.687 41.6651C120.882 41.4691 121.13 41.3355 121.401 41.2811C121.672 41.2268 121.953 41.2542 122.208 41.3598C122.463 41.4655 122.681 41.6447 122.834 41.8747C122.988 42.1047 123.07 42.3751 123.07 42.6518C123.07 43.0217 122.924 43.3766 122.663 43.6386C122.403 43.9006 122.049 44.0485 121.68 44.0498ZM121.68 41.7514C121.502 41.7504 121.328 41.8024 121.18 41.9007C121.031 41.9991 120.915 42.1393 120.846 42.3038C120.778 42.4682 120.759 42.6494 120.793 42.8244C120.827 42.9994 120.913 43.1603 121.038 43.2868C121.163 43.4132 121.324 43.4995 121.498 43.5346C121.672 43.5698 121.853 43.5522 122.018 43.4842C122.182 43.4162 122.323 43.3008 122.422 43.1526C122.521 43.0044 122.574 42.8301 122.574 42.6518C122.574 42.4139 122.48 42.1856 122.312 42.0169C122.145 41.8481 121.917 41.7527 121.68 41.7514Z" fill="#D1D3D4"/>
<path d="M137.906 39.9853C139.17 39.9853 140.195 38.9585 140.195 37.6919C140.195 36.4252 139.17 35.3984 137.906 35.3984C136.643 35.3984 135.618 36.4252 135.618 37.6919C135.618 38.9585 136.643 39.9853 137.906 39.9853Z" fill="#D1D3D4"/>
<path d="M115.5 106.564C115.434 106.564 115.371 106.538 115.325 106.491C115.278 106.444 115.252 106.381 115.252 106.315V103.385C115.252 103.319 115.278 103.256 115.325 103.209C115.371 103.162 115.434 103.136 115.5 103.136C115.566 103.136 115.629 103.162 115.676 103.209C115.722 103.256 115.748 103.319 115.748 103.385V106.315C115.748 106.381 115.722 106.444 115.676 106.491C115.629 106.538 115.566 106.564 115.5 106.564Z" fill="#D1D3D4"/>
<path d="M116.989 105.097H114.066C114 105.097 113.937 105.07 113.89 105.024C113.844 104.977 113.817 104.914 113.817 104.848C113.819 104.782 113.845 104.72 113.891 104.673C113.938 104.627 114 104.6 114.066 104.599H116.989C117.055 104.599 117.118 104.625 117.165 104.672C117.211 104.719 117.237 104.782 117.237 104.848C117.237 104.914 117.211 104.977 117.165 105.024C117.118 105.07 117.055 105.097 116.989 105.097Z" fill="#D1D3D4"/>
<path d="M149.333 47.2187C149.267 47.2187 149.204 47.1925 149.158 47.1458C149.111 47.0992 149.085 47.0359 149.085 46.97V44.0398C149.085 43.9738 149.111 43.9105 149.158 43.8639C149.204 43.8172 149.267 43.791 149.333 43.791C149.399 43.791 149.462 43.8172 149.509 43.8639C149.555 43.9105 149.581 43.9738 149.581 44.0398V46.97C149.581 47.0359 149.555 47.0992 149.509 47.1458C149.462 47.1925 149.399 47.2187 149.333 47.2187Z" fill="#D1D3D4"/>
<path d="M150.797 45.7563H147.874C147.808 45.7563 147.745 45.7301 147.698 45.6834C147.652 45.6368 147.625 45.5735 147.625 45.5075C147.625 45.4416 147.652 45.3783 147.698 45.3316C147.745 45.285 147.808 45.2588 147.874 45.2588H150.797C150.863 45.2588 150.926 45.285 150.973 45.3316C151.019 45.3783 151.046 45.4416 151.046 45.5075C151.044 45.5731 151.018 45.6356 150.971 45.682C150.925 45.7284 150.863 45.755 150.797 45.7563Z" fill="#D1D3D4"/>
<path d="M26.0582 111.449C25.9924 111.449 25.9293 111.423 25.8828 111.376C25.8362 111.33 25.8101 111.266 25.8101 111.2V108.27C25.8101 108.204 25.8362 108.141 25.8828 108.094C25.9293 108.048 25.9924 108.021 26.0582 108.021C26.1241 108.021 26.1872 108.048 26.2337 108.094C26.2803 108.141 26.3064 108.204 26.3064 108.27V111.2C26.3064 111.266 26.2803 111.33 26.2337 111.376C26.1872 111.423 26.1241 111.449 26.0582 111.449Z" fill="#D1D3D4"/>
<path d="M27.5175 109.987H24.5939C24.5285 109.985 24.4661 109.959 24.4198 109.912C24.3735 109.866 24.347 109.804 24.3457 109.738C24.3457 109.672 24.3719 109.609 24.4184 109.562C24.4649 109.515 24.5281 109.489 24.5939 109.489H27.5175C27.5834 109.489 27.6465 109.515 27.693 109.562C27.7396 109.609 27.7657 109.672 27.7657 109.738C27.7657 109.804 27.7396 109.867 27.693 109.914C27.6465 109.961 27.5834 109.987 27.5175 109.987Z" fill="#D1D3D4"/>
<path d="M55.528 48.6865C55.4621 48.6865 55.399 48.6603 55.3525 48.6136C55.3059 48.567 55.2798 48.5037 55.2798 48.4377V45.5075C55.2798 45.4416 55.3059 45.3783 55.3525 45.3316C55.399 45.285 55.4621 45.2588 55.528 45.2588C55.5938 45.2588 55.6569 45.285 55.7035 45.3316C55.75 45.3783 55.7762 45.4416 55.7762 45.5075V48.4626C55.77 48.5242 55.7411 48.5812 55.6952 48.6226C55.6493 48.664 55.5897 48.6868 55.528 48.6865Z" fill="#D1D3D4"/>
<path d="M56.9873 47.2187H54.0636C53.9978 47.2187 53.9347 47.1925 53.8881 47.1458C53.8416 47.0992 53.8154 47.0359 53.8154 46.9699C53.8154 46.904 53.8416 46.8407 53.8881 46.794C53.9347 46.7474 53.9978 46.7212 54.0636 46.7212H56.9873C57.0531 46.7212 57.1162 46.7474 57.1628 46.794C57.2093 46.8407 57.2354 46.904 57.2354 46.9699C57.2354 47.0359 57.2093 47.0992 57.1628 47.1458C57.1162 47.1925 57.0531 47.2187 56.9873 47.2187Z" fill="#D1D3D4"/>
</g>
<defs>
<clipPath id="clip0">
<rect width="154" height="118" fill="white" transform="translate(8 6)"/>
</clipPath>
</defs>
</svg>
