<svg id="9223954" viewBox="0 0 173 148" xmlns="http://www.w3.org/2000/svg" xmlns:xlink="http://www.w3.org/1999/xlink"><g transform="matrix(1,0,0,1,0,0)"><g id="9223954" opacity="1" style="mix-blend-mode:normal"><g><g><g transform="matrix(1,0,0,1,20,20)"><g id="9223953" opacity="1" style="mix-blend-mode:normal"><g><g><g transform="matrix(1,0,0,1,0,76.3676)"><g id="9223951" opacity="1" style="mix-blend-mode:normal"><g><g><path id="9223951_fill_path" d="M0.264,23l5.784,-16.8h2.616l5.808,16.8h-2.856l-1.344,-4.2h-5.808l-1.368,4.2zM5.232,16.328h4.248l-2.112,-6.6zM16.4468,23v-12.096h2.5439v2.112c0.4481,-0.72 1.0081,-1.28 1.68,-1.68c0.688,-0.416 1.4161,-0.624 2.184,-0.624c1.1361,0 2.0401,0.328 2.712,0.984c0.6721,0.656 1.0081,1.576 1.0081,2.76v8.544h-2.52v-7.872c0,-1.472 -0.656,-2.208 -1.968,-2.208c-0.8641,0 -1.6001,0.464 -2.2081,1.392c-0.5919,0.928 -0.888,2.168 -0.888,3.72v4.968zM31.0005,21.416c-1.088,-1.2 -1.632,-2.688 -1.632,-4.464c0,-1.776 0.544,-3.256 1.632,-4.44c1.104,-1.2 2.56,-1.8 4.368,-1.8c1.808,0 3.256,0.6 4.344,1.8c1.104,1.184 1.656,2.664 1.656,4.44c0,1.776 -0.552,3.264 -1.656,4.464c-1.088,1.184 -2.536,1.776 -4.344,1.776c-1.808,0 -3.264,-0.592 -4.368,-1.776zM37.8165,19.808c0.592,-0.784 0.888,-1.736 0.888,-2.856c0,-1.12 -0.296,-2.072 -0.888,-2.856c-0.592,-0.784 -1.408,-1.176 -2.448,-1.176c-1.056,0 -1.88,0.392 -2.472,1.176c-0.592,0.784 -0.888,1.736 -0.888,2.856c0,1.12 0.296,2.072 0.888,2.856c0.592,0.784 1.416,1.176 2.472,1.176c1.04,0 1.856,-0.392 2.448,-1.176zM44.1499,23v-12.096h2.544v2.112c0.448,-0.72 1.008,-1.28 1.68,-1.68c0.688,-0.416 1.416,-0.624 2.184,-0.624c1.136,0 2.04,0.328 2.712,0.984c0.672,0.656 1.008,1.576 1.008,2.76v8.544h-2.52v-7.872c0,-1.472 -0.656,-2.208 -1.968,-2.208c-0.864,0 -1.6,0.464 -2.208,1.392c-0.592,0.928 -0.888,2.168 -0.888,3.72v4.968zM64.1651,10.904h2.544l-6.168,16.992h-2.448l1.968,-5.496l-4.368,-11.496h2.568l3,8.112zM68.5483,23v-12.096h2.544v2.112c0.912,-1.536 2.104,-2.304 3.576,-2.304c1.76,0 2.88,0.848 3.36,2.544c0.432,-0.784 0.976,-1.4 1.632,-1.848c0.672,-0.464 1.384,-0.696 2.136,-0.696c1.152,0 2.032,0.328 2.64,0.984c0.608,0.656 0.912,1.592 0.912,2.808v8.496h-2.52v-8.088c0,-1.328 -0.568,-1.992 -1.704,-1.992c-0.848,0 -1.544,0.464 -2.088,1.392c-0.544,0.912 -0.816,2.176 -0.816,3.792v4.896h-2.52v-8.088c0,-1.328 -0.568,-1.992 -1.704,-1.992c-0.864,0 -1.568,0.48 -2.112,1.44c-0.528,0.944 -0.792,2.256 -0.792,3.936v4.704zM93.0463,23l-5.712,-16.8h2.904l4.152,13.056l4.176,-13.056h2.9037l-5.7117,16.8zM103.734,23v-16.8h6.144c1.616,0 2.872,0.448 3.768,1.344c0.912,0.896 1.368,2.104 1.368,3.624c0,1.52 -0.456,2.728 -1.368,3.624c-0.896,0.896 -2.152,1.344 -3.768,1.344h-3.48v6.864zM106.398,13.664h3.408c1.664,0 2.496,-0.832 2.496,-2.496c0,-1.664 -0.832,-2.496 -2.496,-2.496h-3.408zM117.89,23v-16.8h2.856l6.816,12.048v-12.048h2.664v16.8h-2.856l-6.816,-12.024v12.024z" fill-rule="nonzero" fill="rgb(0, 0, 0)" fill-opacity="1" style="mix-blend-mode:NORMAL"></path></g></g></g></g><g transform="matrix(1,0,0,1,27.8164,0)"><g id="9223952" opacity="1" style="mix-blend-mode:normal"><g><g><g transform="matrix(1,0,0,1,29.1838,27.1837)"><g id="9223949" opacity="1" style="mix-blend-mode:normal"><g><g><path id="9223949_fill_path" d="M9,0c-4.42983,0 -6.90467,1.54933 -8.05766,2.59296c-0.71604,0.64812 -0.94234,1.54665 -0.94234,2.31537v6.09167c0,2.57509 1.27689,4.75941 2.75258,6.42987c1.48097,1.67644 3.24482,2.93107 4.41815,3.6685c1.12478,0.70691 2.53376,0.70691 3.65853,0c1.17333,-0.73743 2.93718,-1.99207 4.41815,-3.6685c1.47569,-1.67045 2.75258,-3.85478 2.75258,-6.42987v-6.09167c0,-0.76872 -0.2263,-1.66724 -0.94234,-2.31537c-1.15299,-1.04363 -3.62783,-2.59296 -8.05766,-2.59296zM2.28449,4.07574c0.79986,-0.72399 2.80112,-2.07574 6.71551,-2.07574c3.91439,0 5.91565,1.35175 6.71551,2.07574c0.16218,0.14679 0.28449,0.41675 0.28449,0.83258v4.23539c-0.03286,0.03565 -0.07058,0.07515 -0.11336,0.11792c-0.22866,0.22866 -0.60231,0.55157 -1.15114,0.88086c-1.08992,0.65395 -2.91123,1.35749 -5.7355,1.35749c-2.82427,0 -4.64558,-0.70354 -5.7355,-1.35749c-0.54883,-0.3293 -0.92248,-0.6522 -1.15114,-0.88086c-0.04278,-0.04278 -0.0805,-0.08227 -0.11336,-0.11792v-4.23539c0,-0.41583 0.12231,-0.68579 0.28449,-0.83258zM2.04802,11.74192c0.20735,1.60459 1.06702,3.07739 2.20346,4.36382c1.30419,1.47633 2.89177,2.61315 3.98351,3.2993c0.47419,0.29803 1.05585,0.29803 1.53004,0c1.09173,-0.68615 2.67931,-1.82297 3.98351,-3.2993c1.13644,-1.28643 1.99611,-2.75923 2.20346,-4.36382c-0.06084,0.03853 -0.12333,0.07708 -0.18748,0.11557c-1.41008,0.84605 -3.58877,1.64251 -6.7645,1.64251c-3.17573,0 -5.35442,-0.79646 -6.7645,-1.64251c-0.06416,-0.0385 -0.12665,-0.07705 -0.18748,-0.11557z" fill-rule="evenodd" fill="rgb(65, 105, 244)" fill-opacity="1" style="mix-blend-mode:NORMAL"></path></g></g></g></g><g transform="matrix(0.7071067811865476,0.7071067811865475,-0.7071067811865475,0.7071067811865476,38.18379999999999,-1.183766184073562)"><g id="9223950" opacity="1" style="mix-blend-mode:normal"><g><g><g style="mix-blend-mode:normal"><defs><linearGradient id="lfb2fb609701287501827214" x1="35.99999560878748" y1="4.000000989134627" x2="45.73829513101527" y2="107.25659037464231" gradientUnits="userSpaceOnUse"><stop offset="0%" stop-opacity="1" stop-color="rgb(65, 105, 244)"></stop><stop offset="50.160000000000004%" stop-opacity="0.1287" stop-color="rgb(65, 105, 244)"></stop><stop offset="100%" stop-opacity="0" stop-color="rgb(65, 105, 244)"></stop></linearGradient></defs><path id="9223950_fill_path" d="M 39.7278 3.1887 C 37.3815 1.9359, 34.8759 1.0368, 32.2677 0.5184 C 29.659499999999998 0, 27 -0.13230000000000003, 24.354 0.1296 C 21.708 0.3915, 19.124100000000002 1.0368, 16.6671 2.0547 C 14.2101 3.0726, 11.9259 4.4415, 9.8712 6.129 C 7.8165 7.8165, 6.026400000000001 9.7875, 4.5495 11.9988 C 3.0726 14.210099999999999, 1.9359 16.6158, 1.1637 19.1619 C 0.39149999999999996 21.708, 0 24.3405, 0 27 C 0 29.6595, 0.39149999999999996 32.291999999999994, 1.1637 34.8381 C 1.9359 37.3842, 3.0726 39.789899999999996, 4.5495 42.0012 C 6.026400000000001 44.2125, 7.8165 46.1835, 9.8712 47.871 C 11.9259 49.5585, 14.2101 50.927400000000006, 16.6671 51.9453 C 19.124100000000002 52.9632, 21.708 53.6085, 24.354 53.8704 C 27 54.132299999999994, 29.659499999999998 54, 32.2677 53.4816 C 34.8759 52.9632, 37.3815 52.0641, 39.7278 50.8113 C 42.0741 49.5585, 44.2098 47.973600000000005, 46.0917 46.0917 C 46.0917 46.0917, 43.8102 43.8102, 43.8102 43.8102 C 42.043800000000005 45.5766, 40.0184 47.0482, 37.7932 48.1822 C 35.568 49.3162, 33.1859 50.0912, 30.7182 50.4811 C 28.2505 50.870999999999995, 25.7495 50.870999999999995, 23.2818 50.4811 C 20.8141 50.0912, 18.432000000000002 49.3162, 16.2068 48.1822 C 13.9816 47.0482, 11.956199999999999 45.5766, 10.1898 43.8102 C 8.4234 42.043800000000005, 6.9518 40.0184, 5.8178 37.7932 C 4.6838 35.568, 3.9088 33.1859, 3.5189 30.7182 C 3.129 28.2505, 3.129 25.7495, 3.5189 23.2818 C 3.9088 20.8141, 4.6838 18.432000000000002, 5.8178 16.2068 C 6.9518 13.9816, 8.4234 11.956199999999999, 10.1898 10.1898 C 11.956199999999999 8.4234, 13.9816 6.9518, 16.2068 5.8178 C 18.432000000000002 4.6838, 20.8141 3.9088, 23.2818 3.5189 C 25.7495 3.129, 28.2505 3.129, 30.7182 3.5189 C 33.1859 3.9088, 35.568 4.6838, 37.7932 5.8178 C 40.0184 6.9518, 42.043800000000005 8.4234, 43.8102 10.1898 C 43.8102 10.1898, 45.2816 8.718399999999999, 45.3307 8.6693 C 45.3798 8.6202, 45.422200000000004 8.5682, 45.4602 8.5101 C 45.4982 8.452, 45.529 8.3924, 45.5544 8.3278 C 45.5798 8.2632, 45.5977 8.1986, 45.6094 8.1302 C 45.6211 8.0618, 45.6255 7.994800000000001, 45.623000000000005 7.9255 C 45.62050000000001 7.8562, 45.611 7.789700000000001, 45.5944 7.722300000000001 C 45.5778 7.6549000000000005, 45.5551 7.5918, 45.525000000000006 7.5292 C 45.49490000000001 7.466600000000001, 45.459900000000005 7.4095, 45.4177 7.3544 C 45.3755 7.2993, 45.32940000000001 7.2504, 45.276900000000005 7.2051 C 45.2244 7.1598, 42.0741 4.4415, 39.7278 3.1887 Z" fill-rule="nonzero" fill="url(#lfb2fb609701287501827214)"></path></g></g></g></g></g></g></g></g></g></g></g></g></g></g></g></g></g><animateTransform href="#9223950" attributeName="transform" type="rotate" values="0 27 27;360 27 27" dur="1.2s" repeatCount="indefinite" calcMode="spline" keyTimes="0;1" keySplines="0 0 1 1" additive="sum" fill="freeze"></animateTransform></svg>