<svg width="217" height="33" viewBox="0 0 217 33" fill="none" xmlns="http://www.w3.org/2000/svg">
<path d="M12.8848 18.3454H5.93677V5.65625H12.8848C15.4618 5.65625 17.4516 6.21079 18.789 7.28724C20.1264 8.39632 20.8114 9.96206 20.8114 11.9845C20.8114 14.0069 20.1264 15.6053 18.789 16.6817C17.4516 17.7908 15.4944 18.3454 12.8848 18.3454Z" fill="url(#paint0_linear_986_1574)"/>
<path d="M37.676 30.9365C38.7524 31.5237 39.8941 31.9804 41.101 32.3392H5.96948V23.4014H13.1785C15.9511 23.4014 18.365 22.9447 20.4201 22.0313C22.4751 21.118 24.0409 19.8132 25.1499 18.0843C26.259 16.3555 26.7809 14.333 26.7809 12.0497C26.7809 9.70104 26.2264 7.6786 25.1499 5.98237C24.0735 4.28614 22.4751 2.98135 20.4201 2.068C19.572 1.67656 18.6586 1.38297 17.7126 1.18726H40.4486C39.5027 1.51345 38.5567 1.9049 37.676 2.39419C35.0664 3.79685 33.0113 5.78666 31.5108 8.29838C30.0103 10.8101 29.26 13.6154 29.26 16.7143C29.26 19.8132 30.0103 22.6185 31.5108 25.1302C33.0113 27.5441 35.0664 29.5013 37.676 30.9365Z" fill="url(#paint1_linear_986_1574)"/>
<path d="M52.257 26.4024C50.5608 27.3484 48.6362 27.8377 46.5159 27.8377C44.3956 27.8377 42.471 27.3484 40.7748 26.4024C39.0786 25.4565 37.7412 24.1191 36.7626 22.3902C35.784 20.6614 35.2947 18.7368 35.2947 16.6165C35.2947 14.4962 35.784 12.5716 36.7626 10.8428C37.7412 9.11393 39.0786 7.77652 40.7748 6.83054C42.471 5.88457 44.3956 5.39526 46.5159 5.39526C48.6362 5.39526 50.5608 5.88457 52.257 6.83054C53.9532 7.77652 55.2906 9.11393 56.2692 10.8428C57.2478 12.5716 57.7371 14.4962 57.7371 16.6165C57.7371 18.7368 57.2478 20.6614 56.2692 22.3902C55.2906 24.1191 53.9532 25.4565 52.257 26.4024Z" fill="url(#paint2_linear_986_1574)"/>
<path d="M52.5506 1.08936H68.4364V32.3065H51.8982C53.1051 31.9803 54.2468 31.491 55.3233 30.9039C57.9329 29.5012 59.9879 27.544 61.4884 25.0323C62.9889 22.5532 63.7392 19.7153 63.7392 16.5838C63.7392 13.4523 62.9889 10.647 61.4884 8.13524C59.9879 5.65613 57.9329 3.69894 55.3233 2.26367C54.4425 1.80699 53.5292 1.41555 52.5506 1.08936Z" fill="url(#paint3_linear_986_1574)"/>
<path d="M86.4426 1.08936L98.7077 21.4115V32.3065H91.0746V27.5766H74.3733V1.08936H86.4426Z" fill="url(#paint4_linear_986_1574)"/>
<path d="M111.005 1.08936L101.839 16.1923L92.7708 1.08936H111.005Z" fill="url(#paint5_linear_986_1574)"/>
<path d="M124.184 30.9366C125.26 31.5237 126.402 31.9804 127.609 32.3393H104.645V21.3464L116.877 1.12207H126.989C126.011 1.44827 125.097 1.8397 124.216 2.329C121.574 3.73165 119.519 5.68884 118.019 8.20057C116.518 10.7123 115.768 13.5176 115.768 16.6491C115.768 19.7806 116.518 22.5859 118.019 25.0976C119.519 27.5441 121.574 29.5013 124.184 30.9366Z" fill="url(#paint6_linear_986_1574)"/>
<path d="M157.847 30.9366C158.924 31.5237 160.065 31.9804 161.272 32.3393H138.667C139.026 32.2414 139.384 32.1435 139.743 32.0131C141.929 31.2954 143.853 30.3168 145.484 29.012V16.2577H139.874V26.2067C137.982 27.3158 135.796 27.8377 133.284 27.8377C131.066 27.8377 129.077 27.3484 127.315 26.3698C125.554 25.3912 124.184 24.0538 123.205 22.3576C122.226 20.6613 121.737 18.7368 121.737 16.6165C121.737 14.431 122.226 12.4738 123.205 10.7775C124.184 9.0813 125.554 7.74389 127.315 6.79792C129.077 5.85194 131.066 5.39526 133.317 5.39526C136.742 5.39526 139.678 6.6022 142.124 9.04868L145.876 5.39526C144.375 3.69903 142.549 2.39424 140.363 1.5135C140.004 1.38302 139.645 1.25255 139.287 1.12207H160.587C159.641 1.44827 158.695 1.8397 157.815 2.329C155.205 3.73165 153.15 5.72146 151.649 8.23319C150.149 10.7449 149.399 13.5502 149.399 16.6491C149.399 19.748 150.149 22.5533 151.649 25.065C153.15 27.5441 155.205 29.5013 157.847 30.9366Z" fill="url(#paint7_linear_986_1574)"/>
<path d="M172.396 26.4024C170.7 27.3484 168.775 27.8377 166.655 27.8377C164.535 27.8377 162.61 27.3484 160.914 26.4024C159.217 25.4565 157.88 24.1191 156.901 22.3902C155.923 20.6614 155.434 18.7368 155.434 16.6165C155.434 14.4962 155.923 12.5716 156.901 10.8428C157.88 9.11393 159.217 7.77652 160.914 6.83054C162.61 5.88457 164.535 5.39526 166.655 5.39526C168.775 5.39526 170.7 5.88457 172.396 6.83054C174.092 7.77652 175.43 9.11393 176.408 10.8428C177.387 12.5716 177.876 14.4962 177.876 16.6165C177.876 18.7368 177.387 20.6614 176.408 22.3902C175.43 24.1191 174.125 25.4565 172.396 26.4024Z" fill="url(#paint8_linear_986_1574)"/>
<path d="M185.509 1.08926V32.3064H172.037C173.244 31.9802 174.385 31.4909 175.462 30.9038C178.072 29.5011 180.127 27.5439 181.627 25.0322C183.128 22.5531 183.878 19.7152 183.878 16.5837C183.878 13.4522 183.128 10.6469 181.627 8.13515C180.127 5.65604 178.072 3.69885 175.462 2.26358C174.581 1.77428 173.668 1.38284 172.689 1.05664H185.509V1.08926Z" fill="url(#paint9_linear_986_1574)"/>
<path d="M216.954 0.632568V32.6H212.061L194.447 10.9404V32.6H188.542V0.632568H193.435L211.05 22.2921V0.632568H216.954Z" fill="url(#paint10_linear_986_1574)"/>
<defs>
<linearGradient id="paint0_linear_986_1574" x1="5.95634" y1="12.0008" x2="20.7984" y2="12.0008" gradientUnits="userSpaceOnUse">
<stop offset="1.38522e-07" stop-color="#965DE9"/>
<stop offset="1" stop-color="#6358ED"/>
</linearGradient>
<linearGradient id="paint1_linear_986_1574" x1="5.95643" y1="16.7127" x2="41.1076" y2="16.7127" gradientUnits="userSpaceOnUse">
<stop offset="1.38522e-07" stop-color="#965DE9"/>
<stop offset="1" stop-color="#6358ED"/>
</linearGradient>
<linearGradient id="paint2_linear_986_1574" x1="35.2718" y1="16.6116" x2="57.7404" y2="16.6116" gradientUnits="userSpaceOnUse">
<stop offset="1.38522e-07" stop-color="#965DE9"/>
<stop offset="1" stop-color="#6358ED"/>
</linearGradient>
<linearGradient id="paint3_linear_986_1574" x1="51.9047" y1="16.7126" x2="68.4267" y2="16.7126" gradientUnits="userSpaceOnUse">
<stop offset="1.38522e-07" stop-color="#965DE9"/>
<stop offset="1" stop-color="#6358ED"/>
</linearGradient>
<linearGradient id="paint4_linear_986_1574" x1="74.3602" y1="16.7126" x2="98.7012" y2="16.7126" gradientUnits="userSpaceOnUse">
<stop offset="1.38522e-07" stop-color="#965DE9"/>
<stop offset="1" stop-color="#6358ED"/>
</linearGradient>
<linearGradient id="paint5_linear_986_1574" x1="92.7773" y1="8.65389" x2="111.015" y2="8.65389" gradientUnits="userSpaceOnUse">
<stop offset="1.38522e-07" stop-color="#965DE9"/>
<stop offset="1" stop-color="#6358ED"/>
</linearGradient>
<linearGradient id="paint6_linear_986_1574" x1="104.638" y1="16.7127" x2="127.596" y2="16.7127" gradientUnits="userSpaceOnUse">
<stop offset="1.38522e-07" stop-color="#965DE9"/>
<stop offset="1" stop-color="#6358ED"/>
</linearGradient>
<linearGradient id="paint7_linear_986_1574" x1="121.76" y1="16.7127" x2="161.253" y2="16.7127" gradientUnits="userSpaceOnUse">
<stop offset="1.38522e-07" stop-color="#965DE9"/>
<stop offset="1" stop-color="#6358ED"/>
</linearGradient>
<linearGradient id="paint8_linear_986_1574" x1="155.414" y1="16.6116" x2="177.883" y2="16.6116" gradientUnits="userSpaceOnUse">
<stop offset="1.38522e-07" stop-color="#965DE9"/>
<stop offset="1" stop-color="#6358ED"/>
</linearGradient>
<linearGradient id="paint9_linear_986_1574" x1="172.043" y1="16.7125" x2="185.519" y2="16.7125" gradientUnits="userSpaceOnUse">
<stop offset="1.38522e-07" stop-color="#965DE9"/>
<stop offset="1" stop-color="#6358ED"/>
</linearGradient>
<linearGradient id="paint10_linear_986_1574" x1="188.567" y1="16.6125" x2="216.971" y2="16.6125" gradientUnits="userSpaceOnUse">
<stop offset="1.38522e-07" stop-color="#965DE9"/>
<stop offset="1" stop-color="#6358ED"/>
</linearGradient>
</defs>
</svg>
