<svg width="122" height="32" viewBox="0 0 122 32" fill="none" xmlns="http://www.w3.org/2000/svg">
<g clip-path="url(#clip0_464_16388)">
<path fill-rule="evenodd" clip-rule="evenodd" d="M109.555 23.8305L116.356 25.0273L121.974 0.899273V32H115.868L116.784 26.808L108.544 25.3585L107.372 32H0V0H112.44L109.555 23.8305ZM25.6775 18.2487H20.2888V20.8502C20.2888 21.9865 20.2266 22.7084 20.1031 23.016C19.9793 23.3236 19.7168 23.4771 19.316 23.4771C18.8976 23.4771 18.6289 23.324 18.5095 23.0171C18.3897 22.7102 18.3303 22.0542 18.3303 21.0484V11.4345C18.3303 10.3862 18.3897 9.70473 18.5095 9.38909C18.6289 9.07382 18.9103 8.91636 19.3542 8.91636C19.7467 8.91636 20.0008 9.04618 20.1159 9.30546C20.2309 9.56473 20.2888 10.2175 20.2888 11.2636V14.8607H25.6775V12.8945C25.6775 10.9625 25.5155 9.53927 25.1915 8.62436C24.867 7.70945 24.1884 6.94546 23.1561 6.33273C22.1235 5.71964 20.8135 5.41345 19.2264 5.41345C18.0569 5.41345 17.0225 5.61164 16.1221 6.00764C15.2216 6.404 14.5178 6.94727 14.0103 7.63782C13.5023 8.328 13.1972 9.04618 13.0949 9.792C12.9926 10.5378 12.9413 11.6564 12.9413 13.1476V19.1945C12.9413 21.2229 13.1077 22.7422 13.4404 23.752C13.7732 24.7622 14.4516 25.5527 15.4758 26.1236C16.4996 26.6945 17.8009 26.98 19.38 26.98C20.8987 26.98 22.1767 26.6429 23.2137 25.9687C24.2506 25.2945 24.9202 24.5091 25.2231 23.6127C25.5261 22.7167 25.6775 21.1975 25.6775 19.0553V18.2487ZM40.0013 5.848H34.6126V13.2498H32.9996V5.848H27.6105V26.5455H32.9996V17.8524H34.6126V26.5455H40.0013V5.848ZM51.5091 22.4033H47.5535V17.8524H50.9203V13.9149H47.5535V9.99018H51.1504V5.848H42.1648V26.5455H51.5091V22.4033ZM65.6406 18.2487H60.2515V20.8502C60.2515 21.9865 60.1896 22.7084 60.0662 23.016C59.9424 23.3236 59.6799 23.4771 59.279 23.4771C58.8607 23.4771 58.5919 23.324 58.4725 23.0171C58.3527 22.7102 58.2934 22.0542 58.2934 21.0484V11.4345C58.2934 10.3862 58.3527 9.70473 58.4725 9.38909C58.5919 9.07382 58.8734 8.91636 59.3172 8.91636C59.7097 8.91636 59.9635 9.04618 60.0789 9.30546C60.194 9.56473 60.2515 10.2175 60.2515 11.2636V14.8607H65.6406V12.8945C65.6406 10.9625 65.4786 9.53927 65.1542 8.62436C64.8297 7.70945 64.1514 6.94546 63.1188 6.33273C62.0862 5.71964 60.7766 5.41345 59.1891 5.41345C58.0199 5.41345 56.9855 5.61164 56.0851 6.00764C55.1847 6.404 54.4805 6.94727 53.973 7.63782C53.4654 8.328 53.1603 9.04618 53.058 9.792C52.9553 10.5378 52.9043 11.6564 52.9043 13.1476V19.1945C52.9043 21.2229 53.0707 22.7422 53.4035 23.752C53.7363 24.7622 54.4146 25.5527 55.4388 26.1236C56.4627 26.6945 57.764 26.98 59.3427 26.98C60.8618 26.98 62.1398 26.6429 63.1767 25.9687C64.2133 25.2945 64.8833 24.5091 65.1862 23.6127C65.4891 22.7167 65.6406 21.1975 65.6406 19.0553V18.2487ZM80.4187 5.848H75.3625L72.9627 13.8891V5.848H67.5736V26.5455H72.9627V17.6735L75.1451 26.5455H80.7133L77.3275 15.1931L80.4187 5.848ZM90.9857 22.4033H87.0301V17.8524H90.3966V13.9149H87.0301V9.99018H90.6271V5.848H81.6414V26.5455H90.9857V22.4033ZM105.015 13.1476C105.015 11.1876 104.955 9.87309 104.836 9.204C104.716 8.53491 104.417 7.92764 103.94 7.38218C103.462 6.83673 102.764 6.44473 101.847 6.20582C100.929 5.96764 99.1693 5.848 96.5667 5.848H92.5346V26.5455H99.3313C100.62 26.5455 101.584 26.4753 102.224 26.3345C102.865 26.1938 103.402 25.9469 103.837 25.5931C104.272 25.2396 104.578 24.7495 104.752 24.1229C104.927 23.4964 105.015 22.2545 105.015 20.3964V13.1476ZM97.9233 23.0044V9.38909C98.512 9.38909 98.9133 9.45127 99.1266 9.57455C99.34 9.69818 99.4765 9.892 99.5363 10.1564C99.596 10.4204 99.6258 11.0215 99.6258 11.9589V20C99.6258 21.3807 99.5363 22.2265 99.3571 22.5378C99.178 22.8487 98.6999 23.0044 97.9233 23.0044Z" fill="white"/>
</g>
<defs>
<clipPath id="clip0_464_16388">
<rect width="121.974" height="32" fill="white"/>
</clipPath>
</defs>
</svg>
