<svg width="70" height="70" viewBox="0 0 70 70" fill="none" xmlns="http://www.w3.org/2000/svg">
<g clip-path="url(#clip0_1_12810)">
<path d="M17.9375 9.80005C17.1664 9.87114 16.5977 10.5602 16.6687 11.3313C16.7398 12.1024 17.4289 12.6711 18.2 12.6H27.3875L3.19375 36.7938C2.63594 37.3516 2.63594 38.2485 3.19375 38.8063C3.75156 39.3641 4.64844 39.3641 5.20625 38.8063L29.4 14.6125V23.8C29.3945 24.3032 29.657 24.7735 30.0945 25.0305C30.532 25.2821 31.068 25.2821 31.5055 25.0305C31.943 24.7735 32.2055 24.3032 32.2 23.8V9.80005H18.2C18.1562 9.80005 18.1125 9.80005 18.0687 9.80005C18.025 9.80005 17.9812 9.80005 17.9375 9.80005ZM47.6 15.4V70H67.2V15.4H47.6ZM50.4 18.2H64.4V67.2H50.4V18.2ZM25.2 33.6V70H44.8V33.6H25.2ZM28 36.4H42V67.2H28V36.4ZM2.8 49V70H22.4V49H2.8ZM5.6 51.8H19.6V67.2H5.6V51.8Z" fill="#6EBD4A"/>
</g>
<defs>
<clipPath id="clip0_1_12810">
<rect width="70" height="70" fill="white"/>
</clipPath>
</defs>
</svg>
