<?xml version="1.0" encoding="utf-8"?><svg xmlns="http://www.w3.org/2000/svg" xmlns:xlink="http://www.w3.org/1999/xlink"><symbol viewBox="0 0 12 12" id="icon-arrow"><path d="M7.459 5.645l-2.1-2.12a.495.495 0 00-.703 0 .502.502 0 000 .705L6.409 6 4.656 7.77a.502.502 0 00.161.813.491.491 0 00.38 0 .495.495 0 00.162-.108l2.1-2.12a.5.5 0 000-.71z"/></symbol><symbol viewBox="0 0 24 24" id="icon-cart"><path d="M21 16H7a1 1 0 010-2h10.44a3 3 0 002.91-2.27L22 5.24a1 1 0 00-.18-.86A1 1 0 0021 4H6.76a3 3 0 00-2.82-2H3a1 1 0 000 2h.94a1 1 0 011 .76l.06.48L6.73 12A3.003 3.003 0 107 18h.18a3 3 0 105.64 0h2.36a3 3 0 105.64 0H21a1 1 0 000-2zM19.72 6l-1.31 5.24a1 1 0 01-1 .76H8.78l-1.5-6h12.44zM10 20a1 1 0 110-2 1 1 0 010 2zm8 0a1 1 0 110-2 1 1 0 010 2z"/></symbol><symbol viewBox="0 0 24 24" id="icon-check"><path d="M21.542 5.405a1.428 1.428 0 00-.463-.3 1.472 1.472 0 00-1.558.3L8.92 15.623l-4.454-4.301a1.462 1.462 0 00-.478-.295 1.504 1.504 0 00-1.579.33 1.395 1.395 0 00-.307.459 1.353 1.353 0 00.02 1.07 1.4 1.4 0 00.323.45l5.465 5.259c.132.128.29.23.463.3a1.472 1.472 0 001.557-.3L21.542 7.419c.144-.129.26-.284.338-.458a1.325 1.325 0 000-1.099 1.372 1.372 0 00-.338-.457z"/></symbol><symbol viewBox="0 0 20 20" id="icon-close"><path d="M11.175 10l5.25-5.242a.837.837 0 00-1.184-1.183L10 8.825l-5.242-5.25a.837.837 0 00-1.183 1.183L8.825 10l-5.25 5.242a.834.834 0 00.27 1.366.833.833 0 00.913-.183L10 11.175l5.241 5.25a.833.833 0 001.184 0 .834.834 0 000-1.183L11.175 10z"/></symbol><symbol viewBox="0 0 24 24" id="icon-delivery"><path d="M1 12.5v4a1 1 0 001 1h1a3 3 0 006 0h6a3 3 0 006 0h1a1 1 0 001-1v-10a3 3 0 00-3-3H8.44A3 3 0 005.6 5.55L4.16 9.86l-2.71 1.81a1 1 0 00-.45.83zm20-3h-2v-4h1a1 1 0 011 1v3zm-4 8a1 1 0 112 0 1 1 0 01-2 0zm-2-6h6v4h-.78a3 3 0 00-4.44 0H15v-4zm0-6h2v4h-2v-4zm-4 6h2v4h-2v-4zm0-6h2v4h-2v-4zm-2 4H6.39l1.1-3.32a1 1 0 01.95-.68H9v4zm-4 8a1 1 0 112 0 1 1 0 01-2 0zM3 13l2.3-1.5H9v4h-.78a3 3 0 00-4.44 0H3V13z"/></symbol><symbol viewBox="0 0 24 24" id="icon-left"><path d="M6.08 12.38a1 1 0 00.21.33l5 5a1.003 1.003 0 001.714-.71c0-.267-.106-.522-.294-.71L9.41 13H17a1 1 0 100-2H9.41l3.3-3.29a1.001 1.001 0 00-.325-1.64 1 1 0 00-1.095.22l-5 5a1 1 0 00-.21.33 1 1 0 000 .76z"/></symbol><symbol viewBox="0 0 24 24" id="icon-pay"><path d="M6 11a1 1 0 100 2 1 1 0 000-2zm12 0a1 1 0 100 2 1 1 0 000-2zm2-6H4a3 3 0 00-3 3v8a3 3 0 003 3h16a3 3 0 003-3V8a3 3 0 00-3-3zm1 11a1 1 0 01-1 1H4a1 1 0 01-1-1V8a1 1 0 011-1h16a1 1 0 011 1v8zm-9-7a3 3 0 100 6 3 3 0 000-6zm0 4a1 1 0 110-2 1 1 0 010 2z"/></symbol><symbol viewBox="0 0 24 24" id="icon-phone"><path d="M19.44 13c-.22 0-.45-.07-.67-.12a9.443 9.443 0 01-1.31-.39 2 2 0 00-2.48 1l-.22.45a12.184 12.184 0 01-2.66-2 12.18 12.18 0 01-2-2.66l.42-.28a2 2 0 001-2.48 10.32 10.32 0 01-.39-1.31c-.05-.22-.09-.45-.12-.68a3 3 0 00-3-2.49h-3a3 3 0 00-3 3.41 19 19 0 0016.52 16.46h.38a3 3 0 002.741-1.778 3 3 0 00.259-1.232v-3a3 3 0 00-2.47-2.9zm.5 6a1 1 0 01-.724.962c-.141.043-.29.056-.436.038A17 17 0 014.07 5.22a1.09 1.09 0 01.25-.82 1 1 0 01.75-.34h3a1 1 0 011 .79c.04.273.09.543.15.81.115.527.269 1.045.46 1.55l-1.4.65a1 1 0 00-.49 1.33 14.49 14.49 0 007 7 1 1 0 00.76 0 1.002 1.002 0 00.57-.52l.62-1.4c.517.185 1.044.338 1.58.46.266.06.536.11.81.15a1 1 0 01.79 1l.02 3.12z"/></symbol><symbol viewBox="0 0 24 24" id="icon-play"><path d="M21.023 10.182a2.18 2.18 0 010 3.636L9.735 21.572C8.177 22.642 6 21.582 6 19.754V4.246c0-1.829 2.177-2.888 3.735-1.818l11.288 7.754z"/></symbol><symbol viewBox="0 0 25 25" id="icon-quote"><path d="M7.638 25c.415 0 .769-.355.836-.84l3.168-23C11.726.553 11.33 0 10.807 0h-4.81c-.385 0-.721.306-.82.744l-5.148 23C-.113 24.38.292 25 .847 25h6.791zm13.346 0c.415 0 .77-.355.836-.84l3.169-23C25.073.553 24.675 0 24.153 0h-4.81c-.385 0-.72.306-.819.744l-5.149 23c-.142.635.263 1.256.819 1.256h6.79z"/></symbol><symbol viewBox="0 0 24 24" id="icon-shield"><path d="M19.63 3.65a1 1 0 00-.84-.2 8 8 0 01-6.22-1.27 1 1 0 00-1.14 0 8 8 0 01-6.22 1.27A1 1 0 004 4.43v7.45a9 9 0 003.77 7.33l3.65 2.6a1 1 0 001.16 0l3.65-2.6A9 9 0 0020 11.88V4.43a1 1 0 00-.37-.78zM18 11.88a7 7 0 01-2.93 5.7L12 19.77l-3.07-2.19A7 7 0 016 11.88v-6.3a10 10 0 006-1.39 10 10 0 006 1.39v6.3zm-4.46-2.29l-2.69 2.7-.89-.9a1.004 1.004 0 00-1.42 1.42l1.6 1.6a1.002 1.002 0 001.42 0L15 11a1.004 1.004 0 10-1.42-1.42l-.04.01z"/></symbol><symbol viewBox="0 0 24 24" id="icon-trash"><path d="M20 6h-4V5a3 3 0 00-2.999-3h-2a3 3 0 00-2.999 3v1h-4a1 1 0 000 2h1v11a3 3 0 003 3h7.999a3 3 0 003-3V8h1a1 1 0 100-2zm-9.998-1a1 1 0 011-1h2a1 1 0 011 1v1h-4V5zM17 19a1 1 0 01-1 1H8.002a1 1 0 01-1-1V8h9.999v11z"/></symbol></svg>