<svg width="105" height="104" viewBox="0 0 105 104" fill="none" xmlns="http://www.w3.org/2000/svg">
<path d="M64.3407 83.3536C65.5099 83.3536 66.4577 82.4058 66.4577 81.2367C66.4577 80.0675 65.5099 79.1197 64.3407 79.1197C63.1716 79.1197 62.2238 80.0675 62.2238 81.2367C62.2238 82.4058 63.1716 83.3536 64.3407 83.3536Z" fill="url(#paint0_linear_102_2165)"/>
<path d="M83.2711 24.7639C81.9635 23.6428 80.1996 23 78.4307 23C78.0692 23.0003 77.7082 23.0257 77.3502 23.0762C74.0467 23.5396 70.8954 24.6735 68.4781 26.2694C67.0751 27.1948 65.7924 27.6254 64.4407 27.6254C63.4747 27.6254 62.4554 27.4161 61.1357 26.9463C56.6512 25.3497 51.4236 23.647 46.1163 23.647C44.0139 23.6378 41.9199 23.9134 39.8915 24.4664C33.4716 26.2245 29.5701 30.1823 28.3038 36.2299C27.0474 42.2148 28.9152 47.2851 33.7029 50.8933C33.8275 50.9873 33.9357 51.077 34.0403 51.1631C34.4902 51.5354 34.8789 51.8571 35.9857 52.1646C36.6121 52.3383 37.2876 52.112 37.7482 51.5738C38.1838 51.0642 38.3013 50.41 38.0543 49.8655C37.6201 48.9259 37.1375 48.4717 36.578 47.9436L36.4641 47.8368C32.6359 44.2271 31.4628 40.5463 32.7726 36.2534C34.1193 31.8401 37.2905 29.1928 42.1985 28.3885C43.5583 28.1673 44.9337 28.0566 46.3114 28.0575C52.0771 28.0575 57.3246 29.968 61.2596 31.6336C61.2663 31.6363 61.2724 31.6404 61.2776 31.6455C61.2827 31.6507 61.2868 31.6568 61.2895 31.6636C61.2923 31.6703 61.2937 31.6776 61.2937 31.6849C61.2937 31.6922 61.2923 31.6995 61.2895 31.7063V31.7148C60.6275 33.3014 59.9776 34.8859 59.3483 36.4185L59.3341 36.4527C57.3709 41.2375 55.8405 45.06 54.2802 49.3259L54.2538 49.3971C53.8268 50.5687 53.6132 51.1567 53.1626 51.4058C52.6601 51.6841 51.6984 51.6906 49.9523 51.702C45.5277 51.7319 41.5358 52.4892 37.7489 54.0175C34.6575 55.2646 31.6728 57.0555 28.6255 59.4914C26.1014 61.5087 23.9567 64.0677 22.5872 66.6971C22.3985 67.0587 22.2185 67.4459 22.0362 67.8816C21.9999 67.9706 21.4312 69.4554 21.3152 69.849C20.73 71.8229 21.0916 74.5179 21.3465 75.4439C21.8939 77.4313 22.852 79.2315 24.0457 80.5121C26.2637 82.8924 29.0284 84 32.7569 84H32.7726C37.1147 83.9964 40.8161 82.5529 44.0905 79.5867C46.7591 77.1665 49.2156 73.7171 52.0629 68.3969C53.0907 66.475 53.742 64.4641 54.4311 62.3379C54.6945 61.5258 54.9664 60.6858 55.2618 59.8516C55.4753 59.2558 55.6426 58.7397 55.807 58.2407C56.0127 57.615 56.2078 57.0242 56.4761 56.2896C56.4831 56.2734 56.4958 56.2603 56.5119 56.2529C56.5279 56.2456 56.5461 56.2444 56.563 56.2498L56.5914 56.254C57.5218 56.3644 58.381 56.4711 59.2124 56.5736H59.2351C61.4304 56.8455 63.326 57.0804 65.0379 57.2079H65.0614C65.7212 57.2079 66.564 57.1559 67.2296 56.7487L67.2573 56.7331C67.3161 56.7033 67.3712 56.667 67.4218 56.6249C68.0951 56.049 68.103 55.0368 67.92 54.6781L67.8489 54.5421C67.4367 53.7363 66.5505 53.3954 66.0593 53.2608C64.9817 52.9718 63.5929 52.791 61.9849 52.5818H61.9764C61.5044 52.5205 61.0161 52.4572 60.5129 52.3874C59.9434 52.3091 59.5782 52.2664 59.2821 52.2315C58.7138 52.1744 58.1511 52.0713 57.5994 51.9233C57.6067 51.8374 57.6293 51.7535 57.6663 51.6756L59.6352 46.7904C60.5684 44.808 61.409 42.733 62.2219 40.7314C62.7914 39.3213 63.3345 37.9895 63.9068 36.6812C65.3411 33.4011 66.0423 33.5541 67.7442 33.9236C68.1371 34.0083 68.6582 34.1499 69.2099 34.3001C69.7437 34.4425 70.2947 34.5948 70.82 34.7187C71.1624 34.7998 71.4791 34.8767 71.7774 34.9486C73.8858 35.459 75.0475 35.7394 77.7054 35.8163H77.9617C80.7755 35.8163 82.7963 34.7835 83.7502 33.8168C84.8492 32.7028 85.4649 31.0087 85.4393 29.1686C85.4059 27.5065 84.6392 25.9363 83.2711 24.7639ZM77.8549 27.4688C78.5525 27.4688 79.5284 27.6731 80.1377 28.1287C80.5826 28.4625 80.7143 28.6419 80.7527 28.7195C80.9242 29.0619 81.0268 29.4797 80.9741 29.637L80.9677 29.6605C80.8573 30.1004 80.7762 30.3638 80.384 30.657C79.6487 31.2094 78.6842 31.5603 77.8698 31.5746H77.6826C76.269 31.5746 74.6154 31.5297 73.0686 31.198C72.8551 31.1518 72.6757 31.1226 72.4992 31.0941C72.0802 31.034 71.6681 30.9336 71.2684 30.7944L71.0357 30.7232C70.9695 30.6898 70.9083 30.657 70.8449 30.6229C70.6883 30.5396 70.5274 30.4527 70.3011 30.3574C70.1805 30.2916 70.07 30.2089 69.9729 30.1118C69.9504 30.0675 69.9376 30.019 69.9352 29.9694C69.9893 29.7253 71.4877 28.8875 73.028 28.5308C73.5199 28.4162 74.0175 28.2838 74.4994 28.1557C75.5522 27.8753 76.6405 27.5863 77.7218 27.4738C77.7673 27.4731 77.8285 27.4695 77.8549 27.4702V27.4688ZM25.6708 71.0065C26.1256 68.8247 26.8716 67.221 28.091 65.8059C30.9069 62.5316 33.3064 60.5385 36.1139 59.1255C39.1903 57.5787 42.8626 56.6875 48.0197 56.2362L50.0128 56.0939H50.126C50.4577 56.0939 51.3724 56.1045 52.0878 56.1145C52.0311 56.5227 51.9426 56.9259 51.823 57.3203C51.7988 57.4072 51.7682 57.4969 51.7297 57.5958C51.6322 57.8456 51.4649 58.3681 51.2528 59.0301C50.8891 60.169 50.3901 61.7229 49.9431 62.8419C48.486 66.4836 46.6687 70.6513 43.5481 74.0281C41.8824 75.8305 40.221 77.5345 38.2223 78.5838C36.1665 79.665 33.8239 80.0167 30.8507 79.6906C29.7829 79.5739 28.0789 78.6799 26.8538 76.9943C25.9904 75.8112 25.0871 73.8103 25.6708 71.0079V71.0065Z" fill="url(#paint1_linear_102_2165)"/>
<defs>
<linearGradient id="paint0_linear_102_2165" x1="21" y1="56.8889" x2="86.6309" y2="55.6283" gradientUnits="userSpaceOnUse">
<stop stop-color="#4598FB"/>
<stop offset="1" stop-color="#D15EAE"/>
</linearGradient>
<linearGradient id="paint1_linear_102_2165" x1="21" y1="56.8889" x2="86.6309" y2="55.6283" gradientUnits="userSpaceOnUse">
<stop stop-color="#4598FB"/>
<stop offset="1" stop-color="#D15EAE"/>
</linearGradient>
</defs>
</svg>
