<svg width="270" height="212" viewBox="0 0 270 212" fill="none" xmlns="http://www.w3.org/2000/svg">
<path d="M194.643 61.128H203.915C206.195 61.128 208.11 59.6022 208.11 57.7102C208.11 55.9631 206.506 54.5289 204.431 54.3229C204.486 54.0955 204.514 53.8625 204.515 53.6286C204.515 51.6451 202.539 50.043 200.107 50.043C199.458 50.0426 198.814 50.1615 198.207 50.3939C198.207 50.3939 198.207 50.3176 198.207 50.2718C198.207 48.2959 196.231 46.6862 193.799 46.6862C192.997 46.6567 192.202 46.8401 191.493 47.2178C190.785 47.5956 190.188 48.1543 189.763 48.8376C189.284 48.7581 188.798 48.7173 188.312 48.7155C184.421 48.7155 181.244 51.1797 181.008 54.3C178.728 54.3 176.866 55.8258 176.866 57.7102C176.866 59.5946 178.743 61.128 181.061 61.128" fill="white"/>
<path d="M203.915 61.5095H194.635C194.534 61.5095 194.438 61.4693 194.366 61.3978C194.295 61.3262 194.255 61.2292 194.255 61.128C194.257 61.0275 194.298 60.9316 194.369 60.8605C194.439 60.7894 194.535 60.7485 194.635 60.7466H203.915C206.02 60.7466 207.715 59.3886 207.715 57.695C207.715 56.1691 206.278 54.8798 204.378 54.6891C204.324 54.683 204.272 54.6654 204.225 54.6376C204.178 54.6098 204.137 54.5723 204.106 54.5277C204.074 54.483 204.052 54.4322 204.042 54.3785C204.031 54.3248 204.032 54.2695 204.044 54.2161C204.091 54.0186 204.117 53.8165 204.12 53.6134C204.12 51.8434 202.311 50.4092 200.092 50.4092C199.503 50.417 198.921 50.5334 198.374 50.7525C198.315 50.7754 198.252 50.7832 198.189 50.7751C198.126 50.7671 198.066 50.7434 198.015 50.7063C197.964 50.6691 197.922 50.6197 197.895 50.5625C197.867 50.5053 197.855 50.4421 197.858 50.3787L198.192 50.2871H197.865C197.865 48.5248 196.056 47.0829 193.837 47.0829C193.103 47.0504 192.374 47.2141 191.724 47.5572C191.073 47.9004 190.525 48.4107 190.136 49.0359C190.098 49.1048 190.039 49.1602 189.969 49.1943C189.898 49.2285 189.818 49.2398 189.741 49.2267C189.281 49.1504 188.816 49.1121 188.35 49.1122C184.694 49.1122 181.647 51.401 181.419 54.3458C181.41 54.4397 181.367 54.527 181.298 54.5915C181.23 54.6561 181.14 54.6935 181.046 54.6967C178.972 54.6967 177.246 56.0776 177.246 57.7484C177.246 59.4191 178.956 60.8 181.046 60.8C181.147 60.8 181.244 60.8402 181.315 60.9117C181.386 60.9833 181.426 61.0803 181.426 61.1814C181.426 61.2826 181.386 61.3796 181.315 61.4512C181.244 61.5227 181.147 61.5629 181.046 61.5629C178.523 61.5629 176.486 59.8616 176.486 57.7484C176.486 55.7801 178.333 54.1398 180.666 53.9338C181.115 50.7677 184.398 48.3341 188.312 48.3341C188.731 48.3352 189.15 48.3632 189.566 48.418C190.046 47.7419 190.685 47.1952 191.426 46.8266C192.167 46.4579 192.988 46.2787 193.814 46.3047C196.292 46.3047 198.336 47.8305 198.58 49.8675C199.075 49.7311 199.586 49.6618 200.1 49.6615C202.737 49.6615 204.888 51.4391 204.888 53.6287C204.895 53.7532 204.895 53.878 204.888 54.0025C206.978 54.3687 208.505 55.9098 208.505 57.7102C208.49 59.8082 206.438 61.5095 203.915 61.5095Z" fill="#D1D3D4"/>
<path d="M228.933 131.773C235.013 130.888 232.551 124.495 229.237 124.488C228.979 121.161 225.589 118.537 221.447 118.537C220.938 118.536 220.43 118.577 219.927 118.659C219.475 117.929 218.838 117.333 218.081 116.93C217.324 116.528 216.474 116.335 215.618 116.37C213.027 116.37 210.921 118.087 210.921 120.185C210.921 120.231 210.921 120.269 210.921 120.315C210.274 120.064 209.586 119.934 208.892 119.933C206.301 119.933 204.195 121.65 204.195 123.748C204.193 124.005 204.224 124.261 204.287 124.511C202.067 124.732 200.357 126.265 200.357 128.127C200.357 130.141 202.356 131.773 204.834 131.773" fill="white"/>
<path d="M228.934 132.155C228.842 132.154 228.753 132.121 228.684 132.061C228.614 132.001 228.568 131.918 228.554 131.827C228.54 131.728 228.567 131.628 228.626 131.548C228.686 131.468 228.774 131.415 228.873 131.399C231.153 131.064 232.392 129.874 232.27 128.149C232.148 126.425 230.704 124.869 229.23 124.869C229.135 124.868 229.043 124.831 228.973 124.766C228.903 124.702 228.859 124.613 228.85 124.518C228.607 121.375 225.354 118.918 221.44 118.918C220.931 118.916 220.423 118.955 219.92 119.033C219.842 119.048 219.762 119.038 219.691 119.004C219.619 118.969 219.561 118.912 219.525 118.842C219.105 118.172 218.516 117.625 217.818 117.256C217.12 116.888 216.338 116.711 215.55 116.744C213.171 116.744 211.233 118.27 211.233 120.192V120.299C211.238 120.363 211.225 120.427 211.197 120.485C211.169 120.542 211.126 120.591 211.074 120.627C211.023 120.665 210.964 120.69 210.902 120.699C210.839 120.709 210.776 120.702 210.716 120.681C210.114 120.443 209.472 120.321 208.824 120.322C206.445 120.322 204.507 121.848 204.507 123.77C204.506 123.989 204.532 124.207 204.583 124.419C204.598 124.472 204.601 124.528 204.59 124.583C204.58 124.637 204.556 124.688 204.522 124.732C204.492 124.778 204.452 124.816 204.404 124.844C204.357 124.872 204.304 124.888 204.249 124.892C202.212 125.098 200.669 126.486 200.669 128.127C200.669 129.927 202.501 131.392 204.766 131.392C204.866 131.392 204.963 131.432 205.034 131.504C205.106 131.575 205.146 131.672 205.146 131.773C205.146 131.874 205.106 131.971 205.034 132.043C204.963 132.115 204.866 132.155 204.766 132.155C202.083 132.155 199.909 130.347 199.909 128.127C199.909 126.204 201.543 124.571 203.77 124.19C203.763 124.05 203.763 123.91 203.77 123.77C203.77 121.482 206.05 119.559 208.847 119.559C209.41 119.56 209.97 119.64 210.511 119.796C210.754 117.659 212.928 115.981 215.565 115.981C216.446 115.958 217.32 116.155 218.106 116.554C218.893 116.954 219.569 117.543 220.072 118.27C220.52 118.209 220.972 118.178 221.425 118.178C225.597 118.178 229.093 120.772 229.557 124.144C230.486 124.336 231.327 124.829 231.95 125.547C232.574 126.265 232.945 127.169 233.007 128.119C233.152 130.27 231.647 131.781 228.964 132.17L228.934 132.155Z" fill="#D1D3D4"/>
<path d="M120.862 151.784L94.4746 136.488L120.862 121.199L147.257 136.488L120.862 151.784Z" fill="white"/>
<path d="M120.854 152.166C120.788 152.165 120.723 152.15 120.664 152.12L94.2542 136.824C94.1957 136.791 94.147 136.742 94.1132 136.684C94.0794 136.626 94.0615 136.559 94.0615 136.492C94.0615 136.424 94.0794 136.358 94.1132 136.3C94.147 136.242 94.1957 136.193 94.2542 136.16L120.641 120.902C120.699 120.868 120.765 120.851 120.831 120.851C120.898 120.851 120.964 120.868 121.021 120.902L147.454 136.198C147.513 136.232 147.561 136.28 147.595 136.338C147.629 136.396 147.647 136.463 147.647 136.53C147.647 136.598 147.629 136.664 147.595 136.722C147.561 136.78 147.513 136.829 147.454 136.862L121.059 152.158C120.993 152.179 120.922 152.182 120.854 152.166ZM95.227 136.496L120.854 151.35L146.489 136.496L120.854 121.634L95.227 136.496Z" fill="#040047"/>
<path d="M147.256 172.818L120.861 188.114V151.784L147.256 136.488V172.818Z" fill="white"/>
<path d="M120.854 188.496C120.787 188.492 120.722 188.474 120.664 188.442C120.606 188.409 120.558 188.361 120.525 188.304C120.492 188.246 120.474 188.181 120.474 188.114V151.785C120.474 151.718 120.492 151.653 120.525 151.595C120.558 151.538 120.606 151.49 120.664 151.456L147.066 136.198C147.124 136.165 147.189 136.147 147.256 136.147C147.323 136.147 147.388 136.165 147.446 136.198C147.504 136.233 147.551 136.283 147.584 136.341C147.618 136.4 147.635 136.466 147.636 136.534V172.818C147.636 172.884 147.618 172.95 147.585 173.007C147.551 173.065 147.503 173.113 147.446 173.146L121.051 188.442C120.991 188.477 120.923 188.496 120.854 188.496ZM121.234 152.006V187.451L146.868 172.597V137.152L121.234 152.006Z" fill="#040047"/>
<path d="M120.862 188.114L94.4746 172.818V136.488L120.862 151.784V188.114Z" fill="white"/>
<path d="M120.854 188.496C120.788 188.492 120.723 188.474 120.665 188.442L94.2545 173.146C94.196 173.114 94.1474 173.066 94.1139 173.008C94.0804 172.951 94.0633 172.885 94.0645 172.818V136.496C94.0636 136.428 94.0804 136.362 94.1134 136.303C94.1464 136.244 94.1943 136.195 94.2522 136.161C94.3101 136.127 94.376 136.109 94.4432 136.109C94.5103 136.109 94.5764 136.126 94.6345 136.16L121.052 151.456C121.111 151.488 121.159 151.536 121.193 151.594C121.226 151.652 121.243 151.717 121.242 151.784V188.114C121.243 188.181 121.226 188.247 121.193 188.305C121.159 188.363 121.111 188.41 121.052 188.442C120.992 188.477 120.924 188.495 120.854 188.496ZM94.8473 172.597L120.475 187.45V152.006L94.8473 137.152V172.597Z" fill="#040047"/>
<path d="M194.87 162.137L172.032 148.901L194.87 135.664L217.716 148.901L194.87 162.137Z" fill="white"/>
<path d="M194.87 162.518C194.804 162.518 194.739 162.502 194.68 162.473L171.88 149.229C171.822 149.196 171.773 149.149 171.739 149.091C171.705 149.034 171.687 148.968 171.687 148.901C171.687 148.833 171.705 148.768 171.739 148.71C171.773 148.652 171.822 148.605 171.88 148.572L194.68 135.336C194.738 135.303 194.804 135.285 194.87 135.285C194.937 135.285 195.003 135.303 195.06 135.336L217.906 148.572C217.965 148.605 218.014 148.652 218.048 148.71C218.082 148.768 218.1 148.833 218.1 148.901C218.1 148.968 218.082 149.034 218.048 149.091C218.014 149.149 217.965 149.196 217.906 149.229L195.06 162.473C195.002 162.504 194.937 162.52 194.87 162.518ZM172.83 148.901L194.87 161.702L216.956 148.901L194.87 136.107L172.83 148.901Z" fill="#040047"/>
<path d="M217.716 169.965L194.87 183.209V162.137L217.716 148.901V169.965Z" fill="white"/>
<path d="M194.87 183.59C194.804 183.587 194.739 183.568 194.68 183.537C194.623 183.503 194.575 183.456 194.542 183.398C194.508 183.34 194.491 183.275 194.49 183.209V162.137C194.491 162.071 194.508 162.005 194.542 161.948C194.575 161.89 194.623 161.842 194.68 161.809L217.526 148.573C217.584 148.539 217.649 148.521 217.716 148.521C217.783 148.521 217.848 148.539 217.906 148.573C217.963 148.606 218.011 148.654 218.044 148.711C218.078 148.769 218.095 148.834 218.096 148.901V169.972C218.094 170.038 218.076 170.103 218.042 170.16C218.009 170.218 217.962 170.266 217.906 170.3L195.06 183.537C195.002 183.57 194.937 183.589 194.87 183.59ZM195.25 162.358V182.545L217.374 169.766V149.564L195.25 162.358Z" fill="#040047"/>
<path d="M194.87 183.209L172.032 169.965V148.901L194.87 162.137V183.209Z" fill="white"/>
<path d="M194.871 183.59C194.804 183.587 194.739 183.568 194.681 183.537L171.88 170.3C171.823 170.267 171.775 170.219 171.742 170.162C171.709 170.104 171.691 170.039 171.69 169.972V148.901C171.689 148.834 171.706 148.768 171.74 148.71C171.773 148.652 171.822 148.605 171.88 148.573C171.938 148.539 172.004 148.521 172.07 148.521C172.137 148.521 172.203 148.539 172.26 148.573L195.061 161.809C195.119 161.841 195.168 161.889 195.201 161.946C195.235 162.004 195.252 162.07 195.251 162.137V183.209C195.252 183.276 195.235 183.341 195.201 183.399C195.168 183.457 195.119 183.505 195.061 183.537C195.003 183.57 194.937 183.589 194.871 183.59ZM172.412 169.766L194.453 182.56V162.358L172.412 149.564V169.766Z" fill="#040047"/>
<path d="M64.0286 115.859L44.793 104.713L64.0286 93.5593L83.2642 104.713L64.0286 115.859Z" fill="white"/>
<path d="M64.0288 116.241C63.9615 116.243 63.8951 116.224 63.8388 116.187L44.6031 105.041C44.5446 105.009 44.496 104.962 44.4625 104.904C44.429 104.846 44.4119 104.78 44.4131 104.713C44.4122 104.645 44.4293 104.578 44.4627 104.519C44.4961 104.46 44.5446 104.411 44.6031 104.377L63.854 93.2313C63.9117 93.1978 63.9772 93.1802 64.044 93.1802C64.1107 93.1802 64.1762 93.1978 64.234 93.2313L83.4696 104.377C83.5271 104.412 83.5747 104.462 83.608 104.52C83.6412 104.579 83.659 104.645 83.6596 104.713C83.6592 104.78 83.6414 104.845 83.6081 104.902C83.5747 104.96 83.527 105.008 83.4696 105.041L64.234 116.187C64.1725 116.225 64.101 116.244 64.0288 116.241ZM45.5531 104.713L64.0288 115.394L82.5043 104.713L64.0288 94.0323L45.5531 104.713Z" fill="#040047"/>
<path d="M83.2649 122.298L64.0293 133.444V115.859L83.2649 104.713V122.298Z" fill="white"/>
<path d="M64.0285 133.826C63.9612 133.828 63.8948 133.809 63.8385 133.772C63.78 133.74 63.7314 133.693 63.6979 133.635C63.6644 133.577 63.6473 133.511 63.6485 133.444V115.897C63.6473 115.83 63.6644 115.764 63.6979 115.707C63.7314 115.649 63.78 115.601 63.8385 115.569L83.0741 104.415C83.1329 104.385 83.198 104.37 83.2641 104.37C83.3301 104.37 83.3952 104.385 83.4541 104.415C83.5116 104.451 83.5593 104.5 83.5925 104.559C83.6258 104.617 83.6435 104.684 83.6441 104.751V122.336C83.6437 122.403 83.6259 122.468 83.5926 122.526C83.5593 122.583 83.5115 122.631 83.4541 122.664L64.2185 133.81C64.1577 133.833 64.092 133.838 64.0285 133.826ZM64.4085 116.08V132.78L82.8841 122.1V105.392L64.4085 116.08Z" fill="#040047"/>
<path d="M64.0286 133.444L44.793 122.298V104.713L64.0286 115.859V133.444Z" fill="white"/>
<path d="M64.0288 133.826C63.9615 133.828 63.8951 133.809 63.8388 133.772L44.6031 122.626C44.5446 122.594 44.496 122.547 44.4625 122.489C44.429 122.431 44.4119 122.365 44.4131 122.298V104.713C44.4122 104.645 44.4293 104.578 44.4627 104.519C44.4961 104.46 44.5446 104.411 44.6031 104.377C44.662 104.347 44.7271 104.332 44.7931 104.332C44.8592 104.332 44.9243 104.347 44.9831 104.377L64.2188 115.531C64.2762 115.564 64.3239 115.612 64.3573 115.67C64.3906 115.727 64.4084 115.793 64.4088 115.859V133.406C64.4084 133.473 64.3906 133.538 64.3573 133.595C64.3239 133.653 64.2762 133.701 64.2188 133.734C64.166 133.783 64.0998 133.815 64.0288 133.826ZM45.1731 122.077L63.6488 132.758V116.08L45.1731 105.4V122.077Z" fill="#040047"/>
<path d="M65.9821 146.345H81.4177C85.2785 146.345 88.4097 143.797 88.4097 140.654C88.4097 137.747 85.7269 135.359 82.2765 135.008C82.3683 134.631 82.4142 134.244 82.4133 133.856C82.4133 130.553 79.1301 127.883 75.0793 127.883C73.9983 127.88 72.9262 128.079 71.9177 128.47C71.9218 128.404 71.9218 128.338 71.9177 128.272C71.9177 124.976 68.6345 122.298 64.5837 122.298C61.5437 122.298 58.9977 123.771 57.8653 125.876C57.0633 125.75 56.2527 125.686 55.4409 125.685C48.9809 125.685 43.6913 129.782 43.2809 134.97C39.4809 135.008 36.3877 137.541 36.3877 140.654C36.3877 143.766 39.5189 146.345 43.3721 146.345" fill="white"/>
<path d="M81.4176 146.726H65.982C65.8812 146.726 65.7846 146.686 65.7133 146.615C65.642 146.543 65.602 146.446 65.602 146.345C65.602 146.244 65.642 146.147 65.7133 146.075C65.7846 146.004 65.8812 145.963 65.982 145.963H81.4176C85.0656 145.963 88.0296 143.583 88.0296 140.623C88.0296 137.953 85.5368 135.687 82.2384 135.359C82.1836 135.355 82.1304 135.339 82.0829 135.311C82.0355 135.283 81.9951 135.245 81.9648 135.199C81.9343 135.155 81.9131 135.105 81.9027 135.053C81.8922 135 81.8927 134.946 81.904 134.894C81.9914 134.544 82.0348 134.186 82.0332 133.826C82.0332 130.774 78.9172 128.233 75.0792 128.233C74.0397 128.23 73.0088 128.422 72.0392 128.798C71.9805 128.821 71.9172 128.828 71.8549 128.82C71.7925 128.812 71.7331 128.789 71.682 128.752C71.6312 128.714 71.5901 128.665 71.5624 128.608C71.5346 128.551 71.5209 128.488 71.5224 128.424V128.241C71.5224 125.189 68.4064 122.649 64.5684 122.649C61.7944 122.649 59.294 123.976 58.1844 126.029C58.1473 126.099 58.0893 126.156 58.0185 126.191C57.9476 126.227 57.8675 126.239 57.7892 126.227C57.0079 126.098 56.2174 126.034 55.4256 126.036C49.2164 126.036 44.0256 129.958 43.6532 134.97C43.6455 135.066 43.6022 135.155 43.5317 135.22C43.4613 135.285 43.3689 135.321 43.2732 135.321C39.686 135.359 36.76 137.739 36.76 140.661C36.76 143.583 39.724 146.002 43.3644 146.002C43.4652 146.002 43.5618 146.042 43.6331 146.113C43.7044 146.185 43.7444 146.282 43.7444 146.383C43.7444 146.484 43.7044 146.581 43.6331 146.653C43.5618 146.724 43.4652 146.765 43.3644 146.765C39.306 146.765 36 144.041 36 140.661C36 137.457 39.04 134.794 42.9236 134.604C43.5468 129.363 48.958 125.312 55.4256 125.312C56.1707 125.311 56.9149 125.365 57.6524 125.472C58.4119 124.341 59.4448 123.423 60.6544 122.802C61.864 122.182 63.2108 121.88 64.5684 121.924C68.68 121.924 72.0544 124.594 72.2672 127.944C73.1661 127.654 74.1047 127.507 75.0488 127.509C79.3048 127.509 82.7628 130.362 82.7628 133.864C82.7627 134.14 82.7398 134.415 82.6944 134.688C86.1828 135.206 88.7744 137.739 88.7744 140.661C88.7896 144.003 85.4836 146.726 81.4176 146.726Z" fill="#D1D3D4"/>
<path d="M67.9812 61.4942L79.138 55.0324L67.9888 48.5706L56.832 55.0324L67.9812 61.4942Z" fill="white"/>
<path d="M67.9811 61.8757C67.9146 61.8723 67.8497 61.8541 67.7911 61.8223L56.6419 55.33C56.5834 55.2967 56.5347 55.2485 56.5009 55.1902C56.4671 55.1319 56.4492 55.0656 56.4492 54.9981C56.4492 54.9307 56.4671 54.8644 56.5009 54.8061C56.5347 54.7478 56.5834 54.6995 56.6419 54.6663L67.7911 48.2044C67.8488 48.171 67.9144 48.1533 67.9811 48.1533C68.0478 48.1533 68.1133 48.171 68.1711 48.2044L79.3279 54.6663C79.3863 54.6995 79.435 54.7478 79.4688 54.8061C79.5027 54.8644 79.5205 54.9307 79.5205 54.9981C79.5205 55.0656 79.5027 55.1319 79.4688 55.1902C79.435 55.2485 79.3863 55.2967 79.3279 55.33L68.1711 61.7918C68.1163 61.8363 68.0507 61.8653 67.9811 61.8757ZM57.5919 55.0096L67.9811 61.0289L78.3779 55.0096L67.9811 48.9826L57.5919 55.0096Z" fill="#040047"/>
<path d="M56.832 67.9561L67.9888 74.418V61.4943L56.832 55.0325V67.9561Z" fill="white"/>
<path d="M67.9804 74.7992C67.9133 74.7997 67.8475 74.7812 67.7904 74.7458L56.6412 68.2993C56.5837 68.266 56.536 68.2182 56.5026 68.1606C56.4693 68.1031 56.4516 68.0378 56.4512 67.9712V55.0323C56.4517 54.9647 56.4695 54.8984 56.5027 54.8397C56.536 54.7809 56.5836 54.7317 56.6412 54.6966C56.6989 54.6631 56.7645 54.6455 56.8312 54.6455C56.8979 54.6455 56.9634 54.6631 57.0212 54.6966L68.1704 61.1584C68.2289 61.1924 68.2774 61.2414 68.3108 61.3004C68.3442 61.3594 68.3613 61.4263 68.3604 61.4941V74.4025C68.3616 74.4694 68.3445 74.5353 68.311 74.5932C68.2775 74.651 68.2289 74.6985 68.1704 74.7306C68.1159 74.773 68.0493 74.7971 67.9804 74.7992ZM57.2112 67.7347L67.6004 73.7541V61.7077L57.2112 55.6884V67.7347Z" fill="#040047"/>
<path d="M67.9883 74.418L79.1375 67.9561V55.0325L67.9883 61.4943V74.418Z" fill="white"/>
<path d="M67.9806 74.7992C67.9135 74.7997 67.8477 74.7812 67.7906 74.7458C67.7332 74.7126 67.6854 74.6648 67.6521 74.6072C67.6187 74.5497 67.601 74.4844 67.6006 74.4178V61.4941C67.6012 61.4266 67.6189 61.3603 67.6522 61.3015C67.6854 61.2428 67.7331 61.1935 67.7906 61.1584L78.9474 54.6966C79.0052 54.6631 79.0707 54.6455 79.1374 54.6455C79.2041 54.6455 79.2696 54.6631 79.3274 54.6966C79.3849 54.7317 79.4326 54.7809 79.4658 54.8397C79.4991 54.8984 79.5168 54.9647 79.5174 55.0323V67.956C79.517 68.0225 79.4992 68.0878 79.4659 68.1454C79.4326 68.2029 79.3848 68.2507 79.3274 68.284L68.1706 74.7458C68.1142 74.7829 68.0479 74.8015 67.9806 74.7992ZM68.3606 61.7077V73.7541L78.7574 67.7347V55.6884L68.3606 61.7077Z" fill="#040047"/>
<path d="M44.793 34.1669C56.3222 42.0249 61.8626 28.5977 67.8438 37.2185V24.8899C57.1582 19.3283 58.4274 31.6798 44.793 34.1669Z" fill="#4F51FF"/>
<path d="M67.8437 55.4214C67.7928 55.4214 67.7424 55.4114 67.6953 55.3918C67.6483 55.3723 67.6056 55.3436 67.5696 55.3075C67.5336 55.2714 67.505 55.2285 67.4856 55.1813C67.4661 55.134 67.4561 55.0835 67.4561 55.0324V23.2877C67.4796 23.2048 67.5295 23.1319 67.5981 23.08C67.6666 23.0281 67.7502 23 67.8361 23C67.9219 23 68.0055 23.0281 68.074 23.08C68.1426 23.1319 68.1925 23.2048 68.216 23.2877V55.0324C68.2161 55.133 68.1774 55.2297 68.108 55.3022C68.0385 55.3748 67.9438 55.4175 67.8437 55.4214Z" fill="#040047"/>
<path d="M116.537 41.7424L107.889 36.7301L116.537 31.7178L125.186 36.7301L116.537 41.7424Z" fill="white"/>
<path d="M116.537 42.1239C116.47 42.1244 116.404 42.1059 116.347 42.0705L107.699 37.0582C107.64 37.0249 107.591 36.9767 107.558 36.9184C107.524 36.8601 107.506 36.7938 107.506 36.7263C107.506 36.6589 107.524 36.5926 107.558 36.5343C107.591 36.476 107.64 36.4277 107.699 36.3945L116.347 31.3822C116.405 31.3487 116.471 31.3311 116.537 31.3311C116.604 31.3311 116.67 31.3487 116.727 31.3822L125.414 36.3945C125.473 36.4277 125.521 36.476 125.555 36.5343C125.589 36.5926 125.607 36.6589 125.607 36.7263C125.607 36.7938 125.589 36.8601 125.555 36.9184C125.521 36.9767 125.473 37.0249 125.414 37.0582L116.765 42.0705C116.698 42.1147 116.617 42.1336 116.537 42.1239ZM108.649 36.7301L116.537 41.3076L124.426 36.7301L116.537 32.1527L108.649 36.7301Z" fill="#D1D3D4"/>
<path d="M125.186 45.2824L116.537 50.2947V41.7425L125.186 36.7302V45.2824Z" fill="white"/>
<path d="M116.537 50.6763C116.47 50.6767 116.404 50.6582 116.347 50.6229C116.29 50.5896 116.242 50.5418 116.209 50.4843C116.175 50.4267 116.158 50.3614 116.157 50.2948V41.7426C116.158 41.6751 116.176 41.6088 116.209 41.55C116.242 41.4913 116.29 41.442 116.347 41.4069L124.996 36.3946C125.054 36.3609 125.12 36.3433 125.187 36.3435C125.255 36.3437 125.32 36.3618 125.378 36.3959C125.436 36.4301 125.484 36.479 125.517 36.5377C125.55 36.5964 125.567 36.6629 125.566 36.7303V45.2825C125.567 45.3494 125.55 45.4153 125.517 45.4732C125.483 45.531 125.435 45.5785 125.376 45.6106L116.727 50.6229C116.67 50.659 116.604 50.6776 116.537 50.6763ZM116.917 41.9639V49.593L124.806 45.0155V37.3864L116.917 41.9639Z" fill="#D1D3D4"/>
<path d="M116.537 50.2947L107.889 45.2824V36.7302L116.537 41.7425V50.2947Z" fill="white"/>
<path d="M116.538 50.6763C116.471 50.6767 116.405 50.6582 116.348 50.6229L107.699 45.6105C107.641 45.5773 107.594 45.5295 107.56 45.4719C107.527 45.4144 107.509 45.3491 107.509 45.2825V36.7303C107.509 36.6627 107.527 36.5964 107.56 36.5377C107.594 36.4789 107.641 36.4297 107.699 36.3946C107.757 36.3611 107.822 36.3435 107.889 36.3435C107.955 36.3435 108.021 36.3611 108.079 36.3946L116.728 41.4069C116.786 41.4408 116.835 41.4898 116.868 41.5488C116.901 41.6079 116.919 41.6747 116.918 41.7426V50.2948C116.919 50.3617 116.902 50.4276 116.868 50.4855C116.835 50.5433 116.786 50.5908 116.728 50.6229C116.671 50.659 116.605 50.6776 116.538 50.6763ZM108.269 45.0613L116.158 49.6387V42.0096L108.269 37.4322V45.0613Z" fill="#D1D3D4"/>
<path d="M140.204 48.1966H140.128C139.833 48.1883 139.543 48.1213 139.274 47.9995C139.005 47.8777 138.763 47.7035 138.562 47.4871C138.156 47.0485 137.938 46.4679 137.954 45.8697C137.963 45.5732 138.031 45.2815 138.153 45.0116C138.276 44.7417 138.451 44.4992 138.668 44.2981C139.105 43.8911 139.684 43.672 140.28 43.6878C140.575 43.6975 140.865 43.7659 141.134 43.889C141.403 44.0121 141.644 44.1875 141.845 44.4049C142.136 44.7306 142.327 45.1328 142.397 45.5642C142.467 45.9955 142.412 46.438 142.239 46.8391C142.067 47.2403 141.783 47.5835 141.423 47.8281C141.062 48.0727 140.639 48.2085 140.204 48.2195V48.1966ZM140.204 44.4431C139.826 44.4462 139.463 44.5903 139.185 44.8474C138.9 45.1192 138.732 45.491 138.714 45.885C138.703 46.2716 138.839 46.6479 139.094 46.9378C139.225 47.0834 139.384 47.2005 139.562 47.2819C139.74 47.3632 139.932 47.4071 140.128 47.4108C140.347 47.466 140.576 47.4713 140.798 47.4262C141.02 47.3811 141.229 47.2867 141.41 47.1501C141.591 47.0135 141.74 46.838 141.844 46.6365C141.949 46.4349 142.008 46.2124 142.016 45.9853C142.024 45.7581 141.981 45.532 141.891 45.3235C141.801 45.1149 141.666 44.9292 141.495 44.78C141.324 44.6307 141.122 44.5216 140.904 44.4607C140.686 44.3998 140.457 44.3885 140.234 44.4278L140.204 44.4431Z" fill="#040047"/>
<path d="M153.337 54.5214C154.18 54.5214 155.024 54.3917 156.004 54.3459C156.985 54.3001 158.087 54.0026 158.14 53.0871C158.178 52.3242 157.266 51.6299 157.501 50.8823C157.579 50.685 157.692 50.5039 157.836 50.3482C159.201 48.6522 159.855 46.4894 159.659 44.3178C159.463 42.1462 158.433 40.1364 156.787 38.7139C157.038 38.8131 157.319 38.5689 157.357 38.3019C157.369 38.0228 157.274 37.7497 157.091 37.539C156.439 36.7713 155.582 36.2074 154.621 35.914C151.583 34.8569 148.299 34.7452 145.197 35.5936C142.818 36.2039 139.93 37.9891 140.143 40.85C140.167 41.3669 140.365 41.8602 140.705 42.2496C141.044 42.6389 141.505 42.9012 142.013 42.9938C142.431 46.0454 143.958 48.2045 145.889 50.4932C147.182 52.0567 148.839 53.2752 150.715 54.0407C151.548 54.3733 152.439 54.5367 153.337 54.5214Z" fill="white"/>
<path d="M153.26 54.9028C152.342 54.9147 151.431 54.7462 150.577 54.4069C148.641 53.624 146.93 52.3679 145.599 50.7525C143.889 48.7385 142.187 46.5031 141.678 43.3447C141.148 43.1809 140.681 42.8586 140.339 42.421C139.996 41.9833 139.795 41.4512 139.763 40.8958C139.55 37.9891 142.293 35.9597 145.083 35.235C148.258 34.3758 151.618 34.4927 154.727 35.5707C155.757 35.89 156.675 36.4989 157.372 37.3254C157.492 37.4651 157.584 37.6274 157.641 37.8029C157.698 37.9783 157.721 38.1635 157.706 38.3477C157.683 38.5378 157.597 38.7148 157.463 38.8512C158.993 40.3829 159.905 42.428 160.024 44.5938C160.144 46.7595 159.461 48.8931 158.109 50.5847C157.996 50.7062 157.904 50.8453 157.835 50.9967C157.759 51.2484 157.919 51.5383 158.101 51.874C158.347 52.2402 158.484 52.6687 158.497 53.1099C158.443 54.0407 157.509 54.6357 155.996 54.7273L154.841 54.8112C154.317 54.857 153.823 54.8951 153.321 54.9028H153.237H153.26ZM149.536 35.4486C148.111 35.453 146.691 35.6349 145.311 35.9903C143.433 36.4709 140.325 38.0349 140.538 40.8576C140.555 41.2832 140.714 41.6905 140.99 42.0142C141.266 42.338 141.642 42.5594 142.058 42.6428C142.144 42.6516 142.225 42.6884 142.288 42.7477C142.351 42.8069 142.393 42.8853 142.407 42.9709C142.787 45.786 144.087 47.7848 146.207 50.2719C147.46 51.7908 149.068 52.9732 150.889 53.7126C151.653 54.0159 152.469 54.1662 153.291 54.1551H153.367C153.838 54.1551 154.324 54.1093 154.833 54.0636L156.011 53.9796C156.3 53.9796 157.744 53.85 157.79 53.0794C157.763 52.7837 157.661 52.4999 157.493 52.2555C157.339 52.0486 157.229 51.811 157.173 51.5584C157.117 51.3058 157.114 51.0441 157.167 50.7907C157.249 50.5574 157.375 50.3423 157.539 50.1575C158.852 48.5362 159.485 46.466 159.305 44.3846C159.125 42.3031 158.145 40.3736 156.574 39.0038C156.496 38.9498 156.442 38.8683 156.422 38.7759C156.403 38.6835 156.418 38.5869 156.466 38.5056C156.515 38.4244 156.592 38.3645 156.682 38.338C156.773 38.3115 156.87 38.3204 156.954 38.3629C156.954 38.3629 156.999 38.3019 157.007 38.2485C157.003 38.0751 156.935 37.9093 156.817 37.7831C156.22 37.0637 155.428 36.5337 154.537 36.2573C152.927 35.6871 151.228 35.4081 149.521 35.4333L149.536 35.4486Z" fill="#040047"/>
<path d="M141.048 47.4263C141.048 47.4263 138.768 50.9433 139.231 51.668C139.695 52.3928 141.298 51.9045 141.298 51.9045" fill="white"/>
<path d="M140.249 52.4461C139.998 52.4692 139.744 52.4289 139.512 52.329C139.28 52.2291 139.076 52.0727 138.919 51.8739C138.38 51.0652 139.824 48.6086 140.728 47.2125C140.783 47.1275 140.87 47.0681 140.969 47.0474C141.068 47.0266 141.172 47.0462 141.256 47.1019C141.341 47.1575 141.4 47.2446 141.421 47.3441C141.441 47.4435 141.422 47.5471 141.366 47.6321C140.264 49.3181 139.421 51.111 139.558 51.4466C139.694 51.7823 140.774 51.645 141.192 51.5229C141.287 51.4943 141.39 51.5047 141.479 51.5518C141.567 51.5989 141.633 51.679 141.663 51.7747C141.692 51.8718 141.681 51.9764 141.635 52.0661C141.588 52.1559 141.508 52.2238 141.412 52.2553C141.035 52.3716 140.644 52.4357 140.249 52.4461Z" fill="#040047"/>
<path d="M141.518 42.7877C140.051 44.0007 140.492 46.5412 140.515 48.1967C140.515 50.5312 140.596 52.8606 140.758 55.1849C140.842 56.6574 144.649 56.7108 145.318 56.2301L144.748 62.0664L152.774 58.9461L152.424 54.1245C151.537 54.0542 150.686 53.74 149.965 53.2166C149.244 52.6931 148.68 51.9805 148.335 51.1568C146.815 48.1509 147.021 41.6128 147.021 41.6128C147.021 41.6128 142.947 41.5975 141.518 42.7877Z" fill="white"/>
<path d="M144.748 62.4479C144.666 62.4474 144.586 62.4207 144.52 62.3716C144.468 62.3319 144.427 62.2796 144.4 62.2196C144.374 62.1596 144.363 62.0938 144.368 62.0283L144.885 56.7642C143.674 56.977 142.427 56.8503 141.283 56.3981C141.035 56.3034 140.819 56.141 140.66 55.9292C140.5 55.7175 140.402 55.4649 140.378 55.2003C140.241 52.9116 140.158 50.5313 140.135 48.2044C140.135 47.9298 140.135 47.6246 140.097 47.3118C140.013 45.6639 139.915 43.6193 141.283 42.4902C142.803 41.2314 146.831 41.2238 146.983 41.2314C147.086 41.2345 147.185 41.2784 147.256 41.3535C147.326 41.4275 147.364 41.5261 147.363 41.6281C147.363 41.6892 147.195 48.1052 148.639 50.9814C150.007 53.7279 152.318 53.766 152.386 53.7431C152.483 53.7447 152.575 53.7824 152.645 53.8487C152.716 53.915 152.759 54.0052 152.766 54.1017L153.116 58.9233C153.121 59.0046 153.101 59.0855 153.057 59.1542C153.013 59.2228 152.949 59.2756 152.873 59.3047L144.885 62.4174C144.843 62.4384 144.796 62.4489 144.748 62.4479ZM145.318 55.8488C145.388 55.8473 145.456 55.8658 145.516 55.9022C145.578 55.9395 145.628 55.9938 145.66 56.0586C145.692 56.1235 145.706 56.1962 145.698 56.2684L145.174 61.4867L152.318 58.6944L152.014 54.4831C151.123 54.3469 150.281 53.9856 149.567 53.4331C148.853 52.8806 148.291 52.1551 147.933 51.3247C146.61 48.6698 146.557 43.4896 146.572 42.002C145.273 42.002 142.711 42.2766 141.739 43.0853C140.667 43.9703 140.758 45.8089 140.834 47.2813C140.834 47.6093 140.834 47.9145 140.872 48.2044C140.872 50.4931 140.979 52.8582 141.108 55.1698C141.108 55.3758 141.29 55.5589 141.602 55.7191C142.713 56.1606 143.937 56.2302 145.09 55.9174C145.158 55.872 145.237 55.8481 145.318 55.8488Z" fill="#040047"/>
<path d="M140.804 53.4455C141.029 53.5967 141.284 53.6973 141.551 53.7407C141.819 53.784 142.092 53.7689 142.353 53.6965C142.614 53.6241 142.857 53.4961 143.064 53.3211C143.272 53.1461 143.439 52.9284 143.555 52.6826" fill="white"/>
<path d="M141.967 54.1475C141.495 54.1431 141.031 54.0253 140.614 53.8042C140.571 53.7783 140.533 53.7441 140.503 53.7036C140.473 53.6631 140.452 53.617 140.44 53.568C140.428 53.5191 140.425 53.4682 140.433 53.4184C140.441 53.3686 140.458 53.3208 140.485 53.2778C140.538 53.1919 140.623 53.1304 140.721 53.1062C140.818 53.082 140.922 53.097 141.009 53.1481C141.411 53.3812 141.884 53.4598 142.339 53.3693C142.536 53.2996 142.717 53.1897 142.87 53.0466C143.023 52.9036 143.145 52.7303 143.228 52.5378C143.25 52.4926 143.281 52.4522 143.318 52.4192C143.356 52.3861 143.4 52.361 143.447 52.3453C143.495 52.3297 143.545 52.3238 143.595 52.328C143.645 52.3322 143.693 52.3465 143.737 52.3699C143.827 52.4157 143.895 52.4951 143.926 52.5909C143.957 52.6867 143.95 52.791 143.905 52.8811C143.776 53.1705 143.588 53.4291 143.352 53.6396C143.116 53.8501 142.838 54.0076 142.537 54.1017C142.35 54.1432 142.158 54.1586 141.967 54.1475Z" fill="#040047"/>
<path d="M150.562 49.1733C150.477 49.1741 150.393 49.1459 150.326 49.0933C150.258 49.0407 150.21 48.9667 150.19 48.8834C150.123 48.6228 150.037 48.3677 149.931 48.1205C148.67 47.9298 139.39 46.4497 138.281 46.2742C138.18 46.2574 138.09 46.2015 138.031 46.1187C137.971 46.0359 137.946 45.9328 137.961 45.8318C137.978 45.7329 138.033 45.6447 138.114 45.5862C138.195 45.5277 138.296 45.5035 138.395 45.519L150.152 47.3805C150.319 47.3805 150.608 47.4262 150.912 48.7232C150.924 48.7718 150.927 48.8224 150.92 48.8721C150.913 48.9218 150.897 48.9697 150.871 49.0129C150.846 49.0561 150.812 49.0939 150.772 49.124C150.732 49.1542 150.687 49.1761 150.638 49.1886L150.562 49.1733Z" fill="#040047"/>
<path d="M145.501 48.8986C145.566 48.3151 145.789 47.7609 146.147 47.2965C146.372 46.9034 146.654 46.546 146.983 46.236C147.149 46.0823 147.347 45.9677 147.562 45.9004C147.778 45.8331 148.006 45.8148 148.229 45.847C148.423 45.8955 148.604 45.9845 148.761 46.108C148.919 46.2316 149.048 46.387 149.141 46.5641C149.327 46.9228 149.429 47.3195 149.438 47.7237C149.48 48.5997 149.291 49.4713 148.891 50.2508C148.491 51.0303 147.893 51.6902 147.158 52.1638L147.287 52.0265" fill="white"/>
<path d="M147.158 52.5454C147.102 52.5455 147.048 52.5332 146.998 52.5094C146.948 52.4857 146.904 52.451 146.869 52.4081C146.808 52.3385 146.774 52.249 146.774 52.1563C146.774 52.0637 146.808 51.9742 146.869 51.9046L146.99 51.7672C147.055 51.7032 147.137 51.6606 147.226 51.6452C147.819 51.1906 148.295 50.5986 148.611 49.9198C148.927 49.241 149.075 48.4954 149.042 47.7467C149.035 47.4021 148.952 47.0635 148.799 46.7549C148.732 46.6243 148.639 46.5092 148.525 46.4172C148.411 46.3252 148.279 46.2583 148.138 46.2209C147.971 46.1997 147.801 46.2161 147.64 46.2689C147.48 46.3216 147.333 46.4095 147.211 46.5261C146.913 46.8141 146.657 47.1428 146.451 47.5026C146.132 47.9083 145.93 48.3937 145.866 48.9063C145.866 48.9561 145.856 49.0053 145.836 49.0512C145.817 49.097 145.789 49.1386 145.754 49.1734C145.718 49.2082 145.676 49.2356 145.63 49.2539C145.584 49.2723 145.535 49.2812 145.486 49.2802C145.435 49.2802 145.385 49.2701 145.338 49.2504C145.292 49.2308 145.249 49.202 145.214 49.1657C145.179 49.1295 145.151 49.0866 145.132 49.0394C145.114 48.9922 145.105 48.9418 145.106 48.8911C145.167 48.236 145.412 47.6118 145.812 47.0906C146.055 46.6638 146.363 46.2777 146.724 45.9462C146.933 45.754 147.182 45.6116 147.453 45.5297C147.724 45.4477 148.01 45.4285 148.29 45.4732C148.539 45.5309 148.772 45.6419 148.974 45.7986C149.176 45.9553 149.342 46.154 149.46 46.3811C149.672 46.7895 149.789 47.2407 149.802 47.7009C149.845 48.6441 149.641 49.582 149.211 50.4213C148.78 51.2606 148.137 51.972 147.348 52.4844C147.292 52.5241 147.226 52.5454 147.158 52.5454Z" fill="#040047"/>
<path d="M142.057 45.6274C142.079 45.1687 141.952 44.7895 141.772 44.7804C141.591 44.7713 141.427 45.1358 141.404 45.5945C141.381 46.0532 141.508 46.4324 141.689 46.4415C141.869 46.4505 142.034 46.086 142.057 45.6274Z" fill="#040047"/>
<path d="M154.354 60.3803L153.663 57.8093L143.433 58.4502L142.339 62.2647C146.442 62.8939 150.638 62.2358 154.354 60.3803Z" fill="white"/>
<path d="M145.227 62.898C144.231 62.907 143.236 62.8227 142.255 62.6463C142.205 62.6338 142.157 62.6111 142.115 62.5796C142.073 62.5482 142.038 62.5086 142.012 62.4632C141.986 62.4189 141.969 62.3696 141.962 62.3184C141.955 62.2672 141.96 62.2152 141.974 62.1656L143.068 58.3511C143.09 58.2755 143.135 58.2085 143.196 58.1593C143.257 58.1102 143.332 58.0812 143.41 58.0764L153.64 57.4356C153.728 57.4291 153.816 57.4537 153.888 57.5052C153.961 57.5568 154.012 57.632 154.035 57.7179L154.727 60.2889C154.748 60.3751 154.739 60.4659 154.702 60.5464C154.665 60.6269 154.601 60.6922 154.522 60.7314C151.627 62.1506 148.449 62.8914 145.227 62.898ZM142.818 61.9673C146.608 62.4251 150.45 61.8038 153.906 60.1744L153.382 58.2138L143.722 58.8165L142.818 61.9673Z" fill="#040047"/>
<path d="M117.229 75.5851C117.229 75.5851 114.075 71.5264 113.816 70.6872C113.558 69.848 113.535 68.1314 112.874 66.9413C112.213 65.7512 110.526 64.7289 109.796 66.4073C109.796 66.4073 109.31 63.6761 107.516 65.24C106.727 65.8754 106.151 66.7382 105.866 67.7121C105.581 68.686 105.6 69.7243 105.92 70.6872C106.452 72.7623 114.356 83.1455 114.356 83.1455" fill="white"/>
<path d="M114.364 83.5575C114.305 83.5584 114.248 83.5458 114.195 83.5207C114.142 83.4955 114.096 83.4585 114.06 83.4125C113.733 82.9853 106.11 72.9378 105.563 70.8169C105.222 69.785 105.204 68.6734 105.509 67.6305C105.815 66.5876 106.43 65.6632 107.273 64.9807C107.476 64.7516 107.738 64.5829 108.03 64.4928C108.322 64.4026 108.633 64.3946 108.93 64.4695C109.162 64.5742 109.37 64.7258 109.541 64.9148C109.713 65.1038 109.843 65.3262 109.925 65.5681C110.178 65.3295 110.506 65.1889 110.853 65.1714C111.351 65.2115 111.83 65.381 112.243 65.6633C112.656 65.9455 112.989 66.3307 113.209 66.7811C113.615 67.6602 113.872 68.6014 113.969 69.5658C114.015 69.915 114.081 70.2614 114.166 70.6033C115.163 72.2753 116.28 73.8715 117.51 75.3791C117.573 75.459 117.601 75.5606 117.589 75.6615C117.577 75.7623 117.525 75.8542 117.446 75.917C117.366 75.9797 117.265 76.0081 117.164 75.9959C117.064 75.9838 116.972 75.932 116.91 75.8521C116.378 75.1655 113.703 71.6943 113.444 70.8246C113.347 70.4503 113.271 70.0708 113.216 69.6878C113.129 68.8114 112.898 67.9554 112.532 67.155C112.379 66.8293 112.147 66.5471 111.858 66.334C111.568 66.1209 111.231 65.9835 110.875 65.9343C110.556 65.9343 110.313 66.1632 110.115 66.5904C110.083 66.6653 110.027 66.7277 109.957 66.7684C109.886 66.8091 109.804 66.826 109.723 66.8166C109.643 66.8072 109.567 66.772 109.507 66.7162C109.448 66.6604 109.408 66.5869 109.393 66.5065C109.34 66.209 109.089 65.3469 108.633 65.1943C108.352 65.0875 107.987 65.3316 107.737 65.5529C106.998 66.1417 106.46 66.9458 106.196 67.8544C105.932 68.7629 105.955 69.7313 106.262 70.6262C106.68 72.2665 112.441 80.0786 114.622 82.9472C114.681 83.0288 114.705 83.13 114.691 83.2296C114.677 83.3291 114.625 83.4193 114.546 83.4812C114.493 83.5227 114.43 83.549 114.364 83.5575Z" fill="#040047"/>
<path d="M185.4 85.4878C185.4 85.4878 186.32 87.4866 186.814 88.9819C187.163 90.3883 187.362 91.8282 187.407 93.2771C187.787 92.8422 188.38 92.743 188.782 92.3616C188.812 92.9855 188.948 93.5996 189.185 94.1773C189.307 94.4639 189.498 94.7157 189.741 94.9101C189.984 95.1045 190.27 95.2354 190.576 95.2911C190.906 95.31 191.237 95.2633 191.549 95.1538C192.689 94.8029 194.589 94.162 194.84 92.7964C194.898 92.2719 194.803 91.7417 194.566 91.2706C193.745 89.2336 190.006 83.9009 189.36 83.0388" fill="white"/>
<path d="M190.774 95.6878H190.569C190.2 95.6215 189.853 95.4651 189.559 95.2322C189.264 94.9993 189.032 94.6972 188.881 94.3527C188.691 93.9377 188.568 93.4946 188.517 93.0405L188.349 93.1244C188.12 93.2253 187.912 93.3675 187.734 93.544C187.684 93.6007 187.618 93.6412 187.545 93.6602C187.472 93.6792 187.395 93.6759 187.323 93.6508C187.251 93.6263 187.188 93.5804 187.141 93.5192C187.095 93.4579 187.069 93.3842 187.065 93.3075C187.02 91.8953 186.829 90.4917 186.495 89.1191C186.009 87.6619 185.104 85.686 185.097 85.6631C185.075 85.6182 185.063 85.5693 185.06 85.5194C185.058 85.4695 185.065 85.4197 185.082 85.3727C185.099 85.3258 185.125 85.2827 185.159 85.2461C185.193 85.2095 185.234 85.1801 185.279 85.1596C185.324 85.1377 185.374 85.1251 185.424 85.1225C185.474 85.1199 185.524 85.1273 185.572 85.1443C185.619 85.1614 185.663 85.1877 185.7 85.2217C185.737 85.2558 185.767 85.2969 185.788 85.3427C185.826 85.4266 186.723 87.3797 187.209 88.875C187.537 90.0781 187.731 91.3139 187.787 92.5598L188.007 92.4454C188.204 92.3562 188.388 92.2407 188.555 92.1021C188.607 92.0537 188.671 92.0204 188.741 92.0056C188.81 91.9908 188.883 91.9952 188.95 92.0182C189.016 92.0435 189.074 92.0869 189.117 92.1435C189.16 92.2001 189.186 92.2677 189.193 92.3386C189.225 92.9171 189.351 93.4866 189.565 94.0246C189.66 94.253 189.808 94.455 189.997 94.6131C190.187 94.7713 190.411 94.8809 190.652 94.9325C190.932 94.9448 191.211 94.9007 191.473 94.8028C192.773 94.4061 194.293 93.811 194.513 92.7353C194.558 92.2754 194.471 91.8122 194.262 91.4002C193.502 89.5692 190.204 84.7781 189.102 83.2523C189.072 83.2118 189.051 83.1658 189.039 83.117C189.028 83.0682 189.026 83.0175 189.033 82.9679C189.049 82.8678 189.104 82.778 189.185 82.7183C189.267 82.6586 189.369 82.6339 189.469 82.6497C189.569 82.6654 189.658 82.7203 189.717 82.8022C189.763 82.8633 194.049 88.8521 194.969 91.1179C195.235 91.6643 195.336 92.2771 195.258 92.8802C194.939 94.5434 192.674 95.2376 191.701 95.5352C191.401 95.6297 191.089 95.681 190.774 95.6878Z" fill="#040047"/>
<path d="M135.537 134.276C135.537 134.276 136.806 140.051 134.465 141.081C132.125 142.111 119.053 133.146 119.744 130.926C120.436 128.706 124.585 127.608 128.583 130.263C130.805 131.762 133.128 133.103 135.537 134.276Z" fill="white"/>
<path d="M134.002 141.539C131.349 141.539 124.821 137.182 121.842 134.543C118.862 131.903 119.25 131.087 119.341 130.797C119.526 130.282 119.828 129.819 120.224 129.444C120.62 129.069 121.099 128.793 121.621 128.638C123.742 127.875 126.409 128.356 128.758 129.919C130.963 131.406 133.269 132.736 135.659 133.902C135.715 133.926 135.764 133.964 135.802 134.012C135.841 134.06 135.867 134.116 135.879 134.176C136.016 134.802 137.148 140.28 134.587 141.432C134.4 141.502 134.202 141.538 134.002 141.539ZM123.764 129.08C123.139 129.073 122.517 129.174 121.925 129.378C121.518 129.495 121.143 129.704 120.829 129.99C120.516 130.276 120.272 130.63 120.116 131.026C120.033 131.285 120.42 132.201 122.396 133.955C126.432 137.564 133.037 141.287 134.313 140.707C135.925 139.997 135.529 136.175 135.203 134.535C132.84 133.364 130.555 132.041 128.362 130.576C127.007 129.642 125.408 129.128 123.764 129.096V129.08Z" fill="#040047"/>
<path d="M158.436 106.01C158.436 106.01 143.996 111.076 132.869 109.878L135.674 134.245C135.674 134.245 131.623 136.068 126.653 130.522C126.653 130.522 120.041 100.822 122.777 99.1666C125.513 97.5111 151.657 97.2822 151.657 97.2822L158.436 106.01Z" fill="#040047"/>
<path d="M133.933 134.917C132.2 134.917 129.457 134.215 126.333 130.782C126.288 130.732 126.257 130.672 126.242 130.606C125.132 125.601 119.721 100.555 122.541 98.8462C125.36 97.1373 150.516 96.9085 151.588 96.9008C151.647 96.8959 151.706 96.9067 151.759 96.9321C151.813 96.9576 151.859 96.9968 151.892 97.0458L158.732 105.781C158.769 105.828 158.795 105.883 158.807 105.941C158.819 106 158.816 106.061 158.8 106.118C158.784 106.176 158.754 106.229 158.713 106.272C158.672 106.316 158.621 106.349 158.565 106.369C158.42 106.422 144.338 111.305 133.302 110.298L136.054 134.199C136.06 134.279 136.043 134.359 136.003 134.428C135.964 134.498 135.905 134.553 135.833 134.589C135.227 134.82 134.582 134.932 133.933 134.917ZM127.002 130.339C131.038 134.787 134.336 134.253 135.263 133.978L132.497 109.916C132.488 109.859 132.493 109.801 132.512 109.747C132.53 109.692 132.562 109.643 132.603 109.603C132.642 109.561 132.691 109.528 132.745 109.508C132.799 109.489 132.858 109.482 132.915 109.489C142.681 110.542 155.168 106.681 157.812 105.812L151.451 97.6561C144.072 97.7248 125.117 98.1902 122.966 99.4871C121.249 100.532 124.289 118.125 127.002 130.347V130.339Z" fill="#040047"/>
<path d="M166.256 101.143C166.256 101.143 165.663 124.03 166.446 124.343C167.229 124.655 189.322 140.776 189.322 140.776L190.135 148.237C190.135 148.237 159.241 134.924 157.607 130.797C155.973 126.669 149.779 102.386 149.779 102.386L166.256 101.143Z" fill="#040047"/>
<path d="M190.136 148.596C190.086 148.607 190.034 148.607 189.984 148.596C188.714 148.054 158.93 135.176 157.258 130.949C155.632 126.845 149.658 103.485 149.415 102.501C149.4 102.447 149.397 102.39 149.407 102.334C149.417 102.279 149.44 102.227 149.472 102.181C149.505 102.136 149.548 102.099 149.597 102.072C149.646 102.045 149.701 102.03 149.757 102.028L166.234 100.792C166.286 100.789 166.339 100.796 166.388 100.815C166.437 100.833 166.482 100.861 166.52 100.898C166.558 100.934 166.588 100.978 166.608 101.027C166.628 101.076 166.638 101.128 166.636 101.181C166.424 109.413 166.256 122.763 166.712 124.068C168.536 125.167 187.346 138.861 189.512 140.463C189.556 140.493 189.592 140.533 189.618 140.579C189.645 140.625 189.66 140.677 189.664 140.73L190.478 148.191C190.485 148.258 190.474 148.325 190.448 148.387C190.421 148.448 190.379 148.502 190.326 148.542C190.268 148.576 190.203 148.595 190.136 148.596ZM150.258 102.714C151.11 106.025 156.468 126.883 157.957 130.637C159.226 133.833 180.757 143.728 189.687 147.611L188.965 140.966C180.187 134.573 167.001 125.029 166.294 124.694C166.028 124.579 165.291 124.274 165.869 101.555L150.258 102.714Z" fill="#040047"/>
<path d="M134.139 67.7426C134.139 67.7426 134.997 62.715 149.544 60.0448C153.052 59.3588 156.674 59.5607 160.085 60.6323C160.632 62.921 165.291 95.5735 167.381 103.248C167.381 103.248 149.84 109.703 141.039 99.0142C141.039 99.0142 135.453 70.1228 134.139 67.7426Z" fill="#FFE11B"/>
<path d="M190.063 120.132L214.276 109.356C215.642 108.748 216.258 107.144 215.652 105.772L209.461 91.754C208.855 90.3828 207.257 89.764 205.891 90.3719L181.678 101.148C180.312 101.756 179.696 103.36 180.301 104.731L186.493 118.75C187.098 120.121 188.697 120.74 190.063 120.132Z" fill="white"/>
<path d="M188.966 120.742C188.369 120.742 187.785 120.568 187.284 120.242C186.784 119.915 186.389 119.45 186.146 118.903L179.952 104.919C179.782 104.548 179.689 104.147 179.676 103.739C179.664 103.331 179.733 102.925 179.88 102.544C180.026 102.164 180.248 101.817 180.53 101.524C180.813 101.23 181.151 100.997 181.525 100.837L205.739 90.0574C206.487 89.7256 207.335 89.7046 208.099 89.9992C208.862 90.2937 209.478 90.8797 209.812 91.629L215.999 105.651C216.166 106.023 216.258 106.424 216.268 106.831C216.279 107.239 216.208 107.644 216.06 108.024C215.915 108.403 215.697 108.749 215.418 109.043C215.139 109.336 214.804 109.571 214.433 109.733L190.212 120.513C189.817 120.676 189.393 120.754 188.966 120.742ZM206.985 90.5152C206.663 90.5143 206.345 90.5819 206.05 90.7135L181.829 101.493C181.55 101.615 181.298 101.792 181.087 102.014C180.877 102.235 180.713 102.497 180.606 102.783C180.494 103.068 180.44 103.373 180.448 103.68C180.456 103.987 180.525 104.289 180.651 104.568L186.838 118.59C187.09 119.147 187.549 119.582 188.117 119.805C188.685 120.027 189.316 120.018 189.878 119.78L214.091 109C214.371 108.881 214.624 108.707 214.836 108.488C215.048 108.269 215.214 108.01 215.324 107.725C215.435 107.441 215.488 107.137 215.479 106.832C215.471 106.527 215.402 106.227 215.277 105.949L209.083 91.9266C208.907 91.5129 208.615 91.1595 208.242 90.909C207.87 90.6585 207.433 90.5217 206.985 90.5152Z" fill="#040047"/>
<path d="M184.519 106.391C184.418 106.413 184.313 106.393 184.227 106.336C184.141 106.28 184.08 106.191 184.059 106.09C184.038 105.989 184.058 105.883 184.114 105.797C184.17 105.71 184.258 105.65 184.359 105.629L207.425 95.3674C207.518 95.327 207.623 95.3251 207.717 95.3623C207.811 95.3995 207.887 95.4727 207.927 95.5658C207.967 95.6589 207.969 95.7642 207.932 95.8586C207.895 95.953 207.822 96.0288 207.729 96.0693L184.694 106.361C184.639 106.385 184.579 106.396 184.519 106.391Z" fill="#D1D3D4"/>
<path d="M188.395 98.5335C188.35 98.5408 188.303 98.5408 188.258 98.5335C188.212 98.5151 188.169 98.4873 188.134 98.4519C188.099 98.4165 188.071 98.3741 188.053 98.3275L187.133 96.2601C187.004 95.9675 186.934 95.6524 186.926 95.3326C186.919 95.0128 186.974 94.6946 187.089 94.3963C187.204 94.098 187.377 93.8254 187.597 93.5941C187.817 93.3628 188.08 93.1773 188.372 93.0482L195.41 89.9203C195.7 89.7907 196.013 89.7199 196.331 89.7119C196.648 89.704 196.964 89.7589 197.261 89.8737C197.557 89.9885 197.828 90.1609 198.059 90.3809C198.289 90.601 198.473 90.8645 198.602 91.1562L199.521 93.2237C199.542 93.2696 199.554 93.3193 199.556 93.3699C199.557 93.4205 199.548 93.4708 199.53 93.5179C199.511 93.565 199.484 93.6078 199.448 93.6438C199.413 93.6798 199.37 93.7082 199.324 93.7272L188.554 98.5259C188.502 98.5393 188.448 98.5419 188.395 98.5335ZM196.39 90.4238C196.157 90.427 195.927 90.4763 195.714 90.5688L188.676 93.7043C188.275 93.8848 187.961 94.2164 187.802 94.6274C187.717 94.8291 187.674 95.0457 187.674 95.2645C187.674 95.4833 187.717 95.6999 187.802 95.9015L188.562 97.6257L198.64 93.1398L197.88 91.4156C197.7 91.0132 197.369 90.6981 196.96 90.5382C196.778 90.4665 196.585 90.4278 196.39 90.4238Z" fill="#040047"/>
<path d="M156.376 59.7471C156.376 59.7471 171.067 63.0733 174.616 65.2934C178.165 67.5135 192.294 82.6801 192.294 82.6801L182.984 87.9594C182.984 87.9594 174.213 77.3474 171.629 75.8215C169.045 74.2957 157.539 75.5393 157.539 75.5393L156.376 59.7471Z" fill="#FFE11B"/>
<path d="M134.138 67.7424C134.138 67.7424 125.778 83.0616 124.372 82.2377C122.966 81.4137 116.978 72.3199 116.978 72.3199L110.312 79.8803C110.312 79.8803 115.769 97.0305 123.802 95.0927C131.836 93.1549 144.087 78.8885 144.087 78.8885L134.138 67.7424Z" fill="#FFE11B"/>
<path d="M132.413 90.5381C132.348 90.537 132.284 90.5198 132.227 90.4878C132.17 90.4559 132.122 90.4102 132.086 90.355C132.035 90.2685 132.019 90.1653 132.041 90.0671C132.064 89.9689 132.124 89.8834 132.208 89.8286C138.873 85.6402 143.73 78.6825 143.775 78.6138C143.835 78.5366 143.922 78.4853 144.018 78.4705C144.114 78.4557 144.212 78.4785 144.292 78.5343C144.372 78.5901 144.428 78.6746 144.448 78.7703C144.467 78.866 144.45 78.9656 144.398 79.0487C144.353 79.1173 139.413 86.1971 132.611 90.4923C132.55 90.5252 132.482 90.5411 132.413 90.5381Z" fill="#040047"/>
<path d="M165.892 96.5956C165.804 96.5956 165.719 96.5652 165.651 96.5096C165.583 96.454 165.537 96.3766 165.519 96.2904C164.63 91.774 161.263 69.169 161.233 68.9402C161.225 68.891 161.228 68.8408 161.24 68.7926C161.252 68.7443 161.273 68.699 161.303 68.6592C161.333 68.6194 161.37 68.586 161.413 68.5609C161.456 68.5358 161.503 68.5195 161.552 68.5129C161.601 68.5053 161.652 68.5076 161.7 68.5196C161.749 68.5316 161.795 68.5531 161.835 68.5829C161.875 68.6127 161.909 68.6501 161.935 68.6931C161.961 68.7361 161.978 68.7837 161.985 68.8333C161.985 69.0622 165.375 91.6367 166.264 96.1379C166.275 96.187 166.276 96.2379 166.267 96.2875C166.258 96.3371 166.239 96.3843 166.211 96.4264C166.184 96.4684 166.148 96.5044 166.106 96.5322C166.064 96.5599 166.017 96.5789 165.968 96.588L165.892 96.5956Z" fill="#040047"/>
<path d="M185.401 145.086C183.744 139.662 185.53 137.144 187.476 137.037C189.422 136.931 190.66 136.626 192.196 141.943C193.731 147.26 193.868 155.675 190.835 156.133C187.803 156.591 187.058 150.518 185.401 145.086Z" fill="white"/>
<path d="M190.508 156.553C188.053 156.553 187.095 152.891 185.993 148.679C185.689 147.535 185.378 146.353 185.028 145.201C184.078 142.08 184.139 139.509 185.218 137.961C185.465 137.583 185.794 137.268 186.182 137.039C186.569 136.81 187.004 136.674 187.453 136.641H187.681C189.809 136.511 191.085 136.687 192.567 141.836C193.867 146.33 194.156 152.837 192.522 155.378C192.351 155.68 192.116 155.94 191.834 156.14C191.551 156.341 191.228 156.476 190.888 156.537L190.508 156.553ZM188.387 137.388C188.182 137.388 187.962 137.388 187.734 137.388H187.498C187.169 137.415 186.85 137.518 186.567 137.689C186.283 137.86 186.043 138.094 185.864 138.373C185.317 139.135 184.587 141.043 185.781 144.934C186.138 146.101 186.449 147.291 186.746 148.443C187.81 152.502 188.729 156.011 190.774 155.706C191.004 155.665 191.222 155.572 191.411 155.433C191.599 155.294 191.753 155.113 191.861 154.905C193.381 152.616 193.039 146.246 191.815 142.012C190.591 137.778 189.702 137.388 188.387 137.388Z" fill="#040047"/>
</svg>
