<svg width="270" height="212" viewBox="0 0 270 212" fill="none" xmlns="http://www.w3.org/2000/svg">
<path d="M206.718 152.273C206.718 152.273 231.745 86.7394 218.779 76.7453C205.814 66.7512 151.436 70.787 148.457 74.3574C145.477 77.9278 127.937 156.813 127.937 156.813L206.718 152.273Z" fill="#040047"/>
<path d="M127.899 157.209C127.844 157.209 127.79 157.197 127.741 157.175C127.691 157.152 127.646 157.12 127.61 157.08C127.572 157.035 127.545 156.982 127.532 156.925C127.519 156.868 127.519 156.808 127.534 156.752C128.248 153.524 145.158 77.7294 148.168 74.1285C149.817 72.1526 164.333 70.314 179.867 70.108C188.987 69.9859 211.096 70.3597 219.015 76.4554C224.525 80.6972 224.175 94.7652 217.981 118.354C213.421 135.802 207.136 152.243 207.075 152.403C207.05 152.472 207.005 152.532 206.945 152.576C206.885 152.619 206.814 152.644 206.741 152.647L127.921 157.225L127.899 157.209ZM182.74 70.848H179.883C163.923 71.0616 150.053 73.0376 148.723 74.6015C146.443 77.3556 134.465 129.02 128.355 156.408L206.429 151.892C208.033 147.627 230.749 86.4495 218.529 77.0428C213.383 73.0833 200.41 70.848 182.74 70.848Z" fill="#040047"/>
<path d="M105.099 95.6502L93.8203 133.651C93.8203 133.651 117.084 136.664 117.084 135.802C117.084 134.94 121.644 93.9871 121.644 93.9871L105.099 95.6502Z" fill="white"/>
<path d="M115.913 136.298C111.984 136.298 100.835 134.94 93.7744 134.009C93.72 134.001 93.6677 133.982 93.6213 133.952C93.5748 133.923 93.5352 133.884 93.505 133.837C93.4748 133.791 93.4547 133.739 93.4461 133.685C93.4376 133.63 93.4407 133.574 93.4552 133.521L104.734 95.5204C104.755 95.4471 104.797 95.3817 104.855 95.3328C104.913 95.2838 104.985 95.2535 105.06 95.2458L121.613 93.5826C121.669 93.5774 121.726 93.585 121.778 93.6049C121.831 93.6247 121.878 93.6562 121.917 93.6971C121.958 93.7357 121.989 93.7835 122.008 93.8366C122.026 93.8897 122.032 93.9465 122.024 94.0022C120.45 108.116 117.464 135.009 117.464 135.779C117.457 135.904 117.402 136.021 117.312 136.107C116.866 136.276 116.388 136.342 115.913 136.298ZM94.2836 133.33C102.37 134.368 114.925 135.81 116.688 135.558C116.977 132.262 120.678 98.9993 121.188 94.4142L105.364 96.0087L94.2836 133.33Z" fill="#040047"/>
<path d="M83.7201 86.2131C83.8189 86.3199 87.8241 85.2442 89.8913 87.7389C91.9585 90.2336 89.2757 92.4613 82.7473 91.172C76.2189 89.8827 83.7201 86.2131 83.7201 86.2131Z" fill="white"/>
<path d="M86.1901 91.9271C85.008 91.9153 83.8297 91.7901 82.6713 91.5533C80.7865 91.1795 79.8137 90.5692 79.6997 89.6765C79.4793 87.9524 82.8689 86.2053 83.5529 85.862C83.6318 85.8353 83.7173 85.8353 83.7961 85.862H84.0469C85.1109 85.7323 88.3485 85.3203 90.1877 87.5328C91.0085 88.5093 91.1833 89.5087 90.6969 90.3479C90.0661 91.3473 88.4321 91.9271 86.1901 91.9271ZM83.8037 86.5868C82.3217 87.3497 80.3685 88.6924 80.4749 89.5392C80.4749 89.8215 80.8701 90.3555 82.8233 90.7446C87.2389 91.6143 89.4581 90.8056 90.0205 89.852C90.1549 89.5284 90.1853 89.1707 90.1077 88.8289C90.03 88.487 89.8481 88.178 89.5873 87.9447C88.0217 86.068 85.2021 86.4189 84.1457 86.5563C84.0013 86.5868 83.8949 86.5868 83.8037 86.5868Z" fill="#040047"/>
<path d="M73.6799 78.2407C73.6799 78.2407 72.8591 77.2947 73.3759 76.6309C73.4921 76.4962 73.6387 76.3912 73.8035 76.3247C73.9682 76.2581 74.1464 76.232 74.3232 76.2484C74.5001 76.2648 74.6704 76.3233 74.8203 76.419C74.9701 76.5147 75.095 76.6449 75.1847 76.7988C75.1847 76.7988 73.8927 77.2642 73.6799 78.2407Z" fill="white"/>
<path d="M73.6806 78.6298C73.6249 78.6304 73.5696 78.6191 73.5186 78.5967C73.4675 78.5744 73.4217 78.5414 73.3842 78.5001C73.0042 78.0576 72.5026 77.1116 73.0726 76.3944C73.2 76.2263 73.3644 76.09 73.5529 75.996C73.7414 75.9021 73.9489 75.8531 74.1594 75.8528C74.4184 75.8572 74.6729 75.9223 74.9024 76.0428C75.132 76.1633 75.3304 76.336 75.4818 76.547C75.5234 76.5956 75.5522 76.6539 75.5655 76.7165C75.5788 76.7792 75.5761 76.8442 75.5578 76.9056C75.5418 76.9665 75.5113 77.0227 75.469 77.0692C75.4266 77.1157 75.3736 77.1512 75.3146 77.1726C75.0106 77.2794 74.1974 77.7066 74.0606 78.3246C74.046 78.3956 74.0119 78.461 73.9622 78.5136C73.9125 78.5662 73.8492 78.6037 73.7794 78.6221L73.6806 78.6298ZM74.1746 76.6386C74.0823 76.64 73.9915 76.6619 73.9087 76.7028C73.8259 76.7437 73.7532 76.8025 73.6958 76.8751C73.6525 76.9587 73.6299 77.0516 73.6299 77.1459C73.6299 77.2402 73.6525 77.3331 73.6958 77.4167C73.9247 77.1347 74.2028 76.8969 74.5166 76.7149C74.4115 76.6686 74.2957 76.6528 74.1822 76.6691L74.1746 76.6386Z" fill="#040047"/>
<path d="M75.4735 76.7605C75.0214 76.7974 74.5942 76.9836 74.2587 77.29C73.9232 77.5964 73.6983 78.0058 73.6191 78.4542L89.9211 99.7469C90.0217 98.7266 90.4607 97.7696 91.1676 97.0295C91.8746 96.2895 92.8086 95.8091 93.8199 95.6654L75.4735 76.7605Z" fill="white"/>
<path d="M89.9142 100.136C89.8553 100.136 89.7973 100.122 89.7447 100.095C89.692 100.069 89.646 100.031 89.6102 99.9837L73.3082 78.6909C73.2714 78.6427 73.2461 78.5867 73.2342 78.5272C73.2224 78.4677 73.2243 78.4062 73.2398 78.3476C73.3471 77.8182 73.6232 77.3383 74.0263 76.9804C74.4295 76.6226 74.9377 76.4062 75.4742 76.364C75.5268 76.3645 75.5788 76.3756 75.6271 76.3966C75.6754 76.4175 75.719 76.448 75.7554 76.4861L94.1018 95.391C94.1528 95.4417 94.1884 95.5059 94.2045 95.5761C94.2207 95.6463 94.2167 95.7196 94.193 95.7877C94.1717 95.8559 94.132 95.917 94.0784 95.9641C94.0248 96.0112 93.9592 96.0425 93.889 96.0547C92.9626 96.1818 92.1058 96.6182 91.4565 97.2935C90.8072 97.9688 90.4032 98.8438 90.3094 99.7777C90.3031 99.8569 90.2727 99.9322 90.2224 99.9936C90.1722 100.055 90.1044 100.099 90.0282 100.121L89.9142 100.136ZM74.053 78.3781L89.7166 98.8317C89.9372 98.0267 90.3597 97.2919 90.9438 96.6975C91.5279 96.1031 92.2541 95.6691 93.053 95.4367L75.3298 77.1727C75.0267 77.2353 74.7469 77.3812 74.5214 77.594C74.296 77.8068 74.1339 78.0782 74.053 78.3781Z" fill="#040047"/>
<path d="M89.9211 99.747L95.4843 102.646L96.1759 101.998L93.8199 95.6654C93.8199 95.6654 89.4879 95.2305 89.9211 99.747Z" fill="white"/>
<path d="M95.4847 103.035C95.421 103.036 95.3581 103.02 95.3023 102.989L89.7391 100.09C89.68 100.061 89.6295 100.016 89.5922 99.9617C89.555 99.9069 89.5323 99.8435 89.5263 99.7775C89.4205 99.1705 89.4538 98.5472 89.6237 97.955C89.7936 97.3629 90.0955 96.8173 90.5067 96.3597C90.9654 95.9638 91.4979 95.6634 92.0733 95.4761C92.6487 95.2888 93.2555 95.2183 93.8583 95.2687C93.9328 95.2758 94.0037 95.3039 94.0629 95.3498C94.1221 95.3957 94.1671 95.4575 94.1927 95.5281L96.5411 101.86C96.5693 101.933 96.575 102.013 96.5574 102.089C96.5398 102.165 96.4997 102.234 96.4423 102.287L95.7507 102.936C95.677 103 95.5824 103.036 95.4847 103.035ZM90.2939 99.4952L95.4163 102.165L95.7203 101.891L93.5467 96.0469C92.6378 96.0209 91.7509 96.3303 91.0539 96.9166C90.7487 97.2655 90.5226 97.6768 90.3914 98.122C90.2602 98.5673 90.2269 99.0358 90.2939 99.4952Z" fill="#040047"/>
<path d="M95.4844 102.646L96.5484 103.79L97.05 103.218L96.176 101.998L95.4844 102.646Z" fill="white"/>
<path d="M96.549 104.187C96.4956 104.188 96.4427 104.176 96.3941 104.154C96.3455 104.131 96.3024 104.098 96.2679 104.057L95.1963 102.913C95.1271 102.835 95.0892 102.735 95.0899 102.631C95.0957 102.526 95.1421 102.427 95.2191 102.356L95.9107 101.708C95.9518 101.67 96.0003 101.642 96.0531 101.625C96.1058 101.607 96.1616 101.601 96.2168 101.607C96.272 101.613 96.3254 101.63 96.3735 101.658C96.4216 101.686 96.4633 101.724 96.4959 101.769L97.3699 102.989C97.4254 103.059 97.4556 103.145 97.4556 103.233C97.4556 103.322 97.4254 103.408 97.3699 103.478L96.8682 104.05C96.8333 104.093 96.7892 104.127 96.7393 104.151C96.6893 104.175 96.6347 104.187 96.5795 104.187H96.549ZM96.0399 102.661L96.5415 103.203L96.1082 102.6L96.0399 102.661Z" fill="#040047"/>
<path d="M84.7533 101.418C85.6501 99.5944 87.8997 95.7265 88.4165 94.0481C89.8453 89.4706 81.4777 85.1831 78.7721 85.1831C76.0665 85.1831 70.4121 94.6737 70.4121 99.747C70.4121 104.82 89.1461 143.668 89.1461 143.668L107.12 135.413L84.7533 101.418Z" fill="white"/>
<path d="M89.1692 144.064C89.0961 144.064 89.0245 144.044 88.9626 144.004C88.9008 143.965 88.8512 143.909 88.8196 143.843C88.0596 142.256 70.04 104.843 70.04 99.747C70.04 94.6508 75.7552 84.7864 78.7724 84.7864C80.8548 84.7864 85.696 87.0141 87.8924 89.9742C88.3786 90.5432 88.7182 91.2235 88.8812 91.9551C89.0442 92.6868 89.0256 93.4474 88.8272 94.1702C88.1026 95.969 87.2545 97.7152 86.2888 99.3961C85.886 100.159 85.5288 100.846 85.24 101.387L107.5 135.184C107.532 135.232 107.552 135.286 107.561 135.342C107.571 135.399 107.568 135.457 107.554 135.512C107.537 135.566 107.51 135.615 107.473 135.657C107.437 135.699 107.391 135.733 107.341 135.756L89.3592 144.026C89.3022 144.061 89.2351 144.074 89.1692 144.064ZM78.7724 85.5722C76.3936 85.5722 70.8304 94.7271 70.8304 99.747C70.8304 104.416 87.4972 139.273 89.3516 143.156L106.566 135.238L84.4268 101.67C84.3936 101.609 84.3761 101.541 84.3761 101.471C84.3761 101.402 84.3936 101.334 84.4268 101.273C84.7156 100.693 85.1336 99.9072 85.5896 99.0528C86.5295 97.4149 87.3573 95.7148 88.0672 93.9642C88.2276 93.3595 88.2373 92.7245 88.0955 92.1151C87.9537 91.5058 87.6647 90.9408 87.254 90.47C85.1336 87.5786 80.5204 85.5722 78.7724 85.5722Z" fill="#040047"/>
<path d="M180.385 109.108L202.539 103.44C201.779 102.364 192.841 73.8844 183.417 69.2231C175.171 63.7301 155.616 60.0682 138.341 61.3117C138.341 61.3117 133.781 61.1439 125.786 64.3252C106.315 72.0916 102.561 99.1367 102.561 99.1367L117.761 104.408C117.761 104.408 114.857 139.388 112.114 157.675C112.114 157.675 145.721 164.274 194.65 156.149C194.688 156.134 180.476 114.28 180.385 109.108Z" fill="#FFE11B"/>
<path d="M178.56 70.0088C175.627 73.0604 173.339 76.7224 170.102 79.5986C163.125 85.7934 153.997 90.6989 144.429 90.1038C133.15 89.402 123.4 81.6661 120.952 70.3979C119.432 63.3334 121.013 56.7723 126.455 51.7829C130.217 48.3346 135.035 46.229 139.96 44.9168C153.04 41.3997 167.715 43.2689 178.88 50.9742C180.704 52.1014 182.244 53.6367 183.379 55.4601C186.168 60.5335 182.961 65.7518 179.343 69.2383C179.1 69.4748 178.842 69.7418 178.56 70.0088Z" fill="#FFE11B"/>
<path d="M140.082 78.0042C139.968 78.0042 137.87 80.5675 137.764 80.6057C138.957 85.1221 140.218 91.0041 145.31 91.5839C155.639 92.7665 157.204 78.9425 159.15 72.4197C151.998 74.4338 146.952 75.2424 140.082 78.0042Z" fill="#040047"/>
<path d="M146.518 92.0417C146.102 92.0384 145.686 92.013 145.272 91.9655C140.188 91.3856 138.751 85.8622 137.588 81.4449L137.391 80.682C137.373 80.6071 137.377 80.5284 137.404 80.4562C137.431 80.384 137.48 80.3218 137.543 80.2777C137.664 80.1633 138.219 79.5148 138.622 79.0418C139.8 77.6838 139.815 77.6762 139.937 77.6228C144.144 75.9902 148.461 74.6619 152.857 73.648C154.795 73.1598 156.794 72.6562 159.013 72.0307C159.078 72.0124 159.147 72.0119 159.213 72.0294C159.278 72.0468 159.338 72.0815 159.385 72.1298C159.431 72.1793 159.463 72.2395 159.479 72.3049C159.495 72.3703 159.494 72.4387 159.477 72.5037C159.188 73.4726 158.907 74.6169 158.603 75.8299C157.029 82.3604 154.62 92.0341 146.518 92.0417ZM138.158 80.7278L138.295 81.2542C139.458 85.6791 140.765 90.6914 145.333 91.172C153.792 92.1409 156.155 82.5969 157.888 75.624C158.124 74.6703 158.352 73.7548 158.58 72.9309C156.611 73.4726 154.78 73.9303 153.055 74.3728C148.699 75.3653 144.421 76.6759 140.256 78.2941C140.104 78.4467 139.572 79.057 139.177 79.5224C138.645 80.209 138.348 80.5447 138.181 80.7278H138.158Z" fill="#040047"/>
<path d="M150.083 24.7912C148.563 24.7302 147.59 25.3939 146.283 25.8669C143.737 26.7672 142.551 24.631 140.363 23.4943C136.916 21.6958 132.956 21.1501 129.155 21.9497C125.354 22.7494 121.945 24.8451 119.508 27.881C117.992 29.6839 117.01 31.8778 116.673 34.2131C116.354 36.8528 117.091 39.5535 116.635 42.1627C116.357 43.6611 115.702 45.0637 114.734 46.2382C113.767 47.4128 112.517 48.3206 111.103 48.8762C113.536 49.0648 115.983 48.8325 118.338 48.1896C117.661 48.9972 116.82 49.6499 115.871 50.1039C114.921 50.5579 113.887 50.8026 112.835 50.8217C115.259 52.6924 118.237 53.6942 121.294 53.6673L115.936 54.9261C120.496 57.8633 126.052 58.7407 131.425 58.4965C142.126 57.9396 160.047 53.5452 159.735 39.6298C159.56 34.2971 156.642 25.0964 150.083 24.7912Z" fill="white"/>
<path d="M129.586 58.9467C125.49 58.9467 120.246 58.1838 115.701 55.2695C115.639 55.2278 115.59 55.1689 115.56 55.0998C115.53 55.0308 115.521 54.9546 115.534 54.8804C115.549 54.8078 115.584 54.741 115.635 54.6871C115.686 54.6333 115.751 54.5946 115.822 54.5752L118.802 53.881C116.534 53.4932 114.395 52.5557 112.57 51.1498C112.506 51.1018 112.459 51.0348 112.435 50.9584C112.411 50.8819 112.412 50.7999 112.437 50.724C112.462 50.648 112.511 50.582 112.575 50.5352C112.64 50.4884 112.718 50.4632 112.798 50.4632C114.358 50.4375 115.865 49.8868 117.076 48.8992C115.093 49.3121 113.061 49.4405 111.042 49.2807C110.957 49.2728 110.876 49.2361 110.814 49.1766C110.752 49.117 110.712 49.038 110.7 48.9526C110.686 48.8662 110.703 48.7777 110.747 48.7024C110.792 48.6271 110.861 48.5699 110.943 48.5406C112.302 48.0159 113.504 47.1508 114.435 46.0277C115.366 44.9046 115.996 43.5609 116.263 42.1246C116.446 40.7533 116.461 39.3647 116.309 37.9896C116.19 36.7209 116.19 35.4438 116.309 34.1751C116.655 31.7672 117.666 29.5048 119.227 27.6446C121.719 24.5401 125.205 22.3976 129.093 21.5812C132.981 20.7649 137.03 21.3249 140.553 23.1663C141.2 23.5212 141.816 23.9322 142.392 24.3946C143.623 25.333 144.596 26.073 146.192 25.5161C146.534 25.394 146.853 25.2567 147.165 25.127C148.092 24.6541 149.119 24.4108 150.159 24.4175C156.741 24.7074 160.039 33.6639 160.146 39.6299C160.282 45.9544 156.84 50.9362 149.908 54.4227C142.977 57.9092 134.708 58.7178 131.478 58.8857C130.84 58.9315 130.224 58.9467 129.586 58.9467ZM116.894 55.1322C121.804 57.9931 127.435 58.3745 131.38 58.1838C134.541 58.016 142.628 57.2607 149.506 53.7971C156.156 50.4555 159.454 45.7179 159.325 39.7062C159.196 34.0301 156.163 25.5084 150.068 25.2109C149.141 25.2174 148.228 25.4394 147.4 25.8594C147.074 25.9967 146.739 26.1417 146.382 26.2637C144.414 26.958 143.182 26.0196 141.883 25.0278C141.343 24.5935 140.765 24.208 140.158 23.8758C136.791 22.1128 132.92 21.5757 129.204 22.3561C125.487 23.1365 122.155 25.1861 119.774 28.1557C118.308 29.8934 117.353 32.0068 117.016 34.259C116.902 35.4744 116.902 36.6979 117.016 37.9133C117.17 39.3498 117.15 40.7999 116.955 42.2314C116.715 43.5383 116.199 44.7786 115.443 45.8693C114.687 46.96 113.707 47.876 112.57 48.5559C114.465 48.5534 116.351 48.2969 118.178 47.793C118.257 47.7701 118.341 47.7733 118.418 47.8022C118.494 47.831 118.56 47.884 118.604 47.9532C118.651 48.019 118.676 48.0976 118.676 48.1783C118.676 48.2589 118.651 48.3375 118.604 48.4033C117.401 49.8399 115.723 50.7932 113.877 51.0888C116.075 52.5274 118.648 53.2813 121.272 53.2554C121.365 53.253 121.457 53.2862 121.527 53.3485C121.598 53.4107 121.642 53.4974 121.652 53.5911C121.664 53.6845 121.641 53.779 121.587 53.8565C121.534 53.9339 121.454 53.9889 121.363 54.0107L116.894 55.1322Z" fill="#040047"/>
<path d="M137.004 67.4683L137.764 80.6056C137.764 80.6056 143.745 87.4718 151.444 83.2529C159.142 79.034 158.846 72.3433 158.846 72.3433L153.792 47.6785C153.792 47.6785 146.808 46.0611 145.029 32.2524C139.071 36.988 131.95 40.0217 124.418 41.0335C124.418 41.0335 124.555 56.4824 127.268 62.6238C129.981 68.7652 137.004 67.4683 137.004 67.4683Z" fill="white"/>
<path d="M146.39 85.0001C141.161 85.0001 137.521 80.9186 137.475 80.8575C137.419 80.7944 137.387 80.7134 137.384 80.6287L136.624 67.8957C135.02 68.0559 129.305 68.2085 126.896 62.7537C124.183 56.6504 124.023 41.644 124.016 41.0108C124.016 40.9187 124.05 40.8298 124.109 40.7599C124.169 40.6901 124.252 40.6438 124.342 40.6294C131.795 39.6094 138.842 36.6124 144.756 31.9475C144.808 31.9016 144.872 31.8709 144.94 31.8588C145.009 31.8467 145.079 31.8536 145.144 31.8788C145.207 31.9036 145.263 31.9449 145.306 31.9985C145.349 32.0521 145.377 32.1161 145.387 32.184C146.284 39.1722 148.548 42.9028 150.289 44.8101C151.229 45.9494 152.466 46.8049 153.861 47.2819C153.931 47.3003 153.994 47.3379 154.044 47.3905C154.093 47.443 154.127 47.5085 154.142 47.5795L159.204 72.2672C159.204 72.3969 159.432 79.3012 151.604 83.5887C150.013 84.4951 148.219 84.9807 146.39 85.0001ZM138.129 80.4227C138.889 81.2542 144.33 86.7014 151.269 82.8945C158.656 78.8358 158.474 72.3892 158.474 72.3282L153.466 47.9151C152.204 47.4955 146.489 44.9627 144.748 32.9087C138.906 37.3386 132.049 40.2243 124.806 41.3007C124.806 43.5894 125.186 56.9098 127.61 62.4104C130.172 68.1932 136.662 67.1023 136.936 67.0565C136.988 67.0462 137.042 67.047 137.095 67.0588C137.147 67.0706 137.196 67.0932 137.24 67.1252C137.281 67.1603 137.315 67.2033 137.34 67.2518C137.365 67.3002 137.38 67.3531 137.384 67.4074L138.129 80.4227Z" fill="#040047"/>
<path d="M150.942 54.5904C152.728 54.8604 154.547 54.4106 156.004 53.3393C156.987 52.5574 157.754 51.535 158.231 50.37C158.707 49.205 158.877 47.9367 158.725 46.6867C158.678 45.7525 158.418 44.8415 157.965 44.0242C157.743 43.6154 157.436 43.2594 157.065 42.9803C156.694 42.7012 156.267 42.5056 155.814 42.4068C154.692 42.3367 153.577 42.6339 152.637 43.2536C151.163 44.0165 151.117 44.8634 150.312 46.1145C150.403 46.0001 150.471 45.6797 150.562 45.5652" fill="white"/>
<path d="M151.96 55.056C151.599 55.0546 151.238 55.0265 150.881 54.972C150.781 54.9552 150.691 54.8993 150.631 54.8165C150.571 54.7337 150.546 54.6306 150.562 54.5296C150.569 54.4802 150.586 54.4328 150.612 54.3902C150.638 54.3475 150.672 54.3105 150.713 54.2814C150.753 54.2522 150.799 54.2315 150.847 54.2204C150.896 54.2093 150.946 54.2081 150.995 54.2168C152.679 54.4655 154.392 54.0349 155.76 53.019C156.691 52.2753 157.416 51.3035 157.865 50.1972C158.313 49.0908 158.471 47.8872 158.321 46.7021C158.291 45.8268 158.06 44.9704 157.645 44.1998C157.449 43.8427 157.18 43.5315 156.855 43.2868C156.53 43.0422 156.157 42.8697 155.76 42.7808C154.818 42.6129 153.875 43.0478 152.827 43.5895C152.106 43.9414 151.542 44.5508 151.246 45.2984C151.086 45.5883 150.911 45.9163 150.676 46.2749C150.66 46.3059 150.639 46.3342 150.615 46.3588C150.554 46.4347 150.466 46.4836 150.369 46.495C150.272 46.5064 150.175 46.4794 150.098 46.4198C150.018 46.363 149.963 46.2765 149.946 46.1793C149.929 46.0821 149.951 45.9821 150.007 45.9011C150.007 45.9011 150.007 45.8019 150.06 45.7485C150.105 45.6104 150.169 45.4794 150.25 45.3594C150.29 45.3132 150.339 45.2766 150.395 45.2526L150.539 44.9779C150.914 44.0929 151.594 43.3728 152.454 42.9486C153.351 42.4832 154.59 41.8424 155.859 42.0636C156.375 42.1664 156.863 42.3807 157.288 42.6916C157.713 43.0025 158.066 43.4026 158.321 43.8641C158.787 44.7367 159.047 45.705 159.081 46.6945C159.242 48.0079 159.062 49.3406 158.559 50.5636C158.055 51.7866 157.246 52.8584 156.209 53.6751C154.975 54.5769 153.487 55.0605 151.96 55.056Z" fill="#040047"/>
<path d="M136.001 46.5876C136.001 46.5876 133.15 54.1252 134.442 55.0254C135.734 55.9256 138.463 54.4914 138.463 54.4914" fill="white"/>
<path d="M135.567 55.7042C135.092 55.7261 134.621 55.5981 134.222 55.3381C132.793 54.3463 134.982 48.2888 135.636 46.4502C135.671 46.3565 135.742 46.2807 135.834 46.2393C135.925 46.1979 136.028 46.1942 136.122 46.2289C136.169 46.2467 136.212 46.2737 136.249 46.3083C136.285 46.3429 136.315 46.3845 136.335 46.4306C136.356 46.4768 136.367 46.5265 136.368 46.577C136.369 46.6275 136.361 46.6778 136.342 46.7248C135.02 50.2266 134.062 54.2776 134.655 54.7048C135.56 55.3304 137.581 54.5217 138.28 54.1555C138.37 54.1094 138.475 54.1003 138.571 54.1302C138.668 54.1601 138.749 54.2267 138.797 54.3158C138.842 54.4058 138.85 54.5102 138.819 54.606C138.787 54.7017 138.719 54.7812 138.63 54.8269C137.683 55.3358 136.639 55.635 135.567 55.7042Z" fill="#040047"/>
<path d="M141.606 46.3969C142.186 46.209 142.441 45.3904 142.176 44.5685C141.911 43.7466 141.227 43.2327 140.648 43.4206C140.069 43.6084 139.814 44.427 140.079 45.2489C140.343 46.0708 141.027 46.5848 141.606 46.3969Z" fill="#040047"/>
<path d="M130.973 48.8926C131.582 48.8843 132.066 48.1774 132.054 47.3137C132.042 46.4501 131.54 45.7567 130.931 45.765C130.322 45.7733 129.839 46.4802 129.85 47.3439C129.862 48.2075 130.365 48.9009 130.973 48.8926Z" fill="#040047"/>
<path d="M136.905 64.7067C136.175 64.7259 135.457 64.5151 134.853 64.104C132.459 62.3493 132.284 58.4738 132.276 58.3059C132.274 58.2157 132.304 58.1276 132.359 58.0567C132.414 57.9857 132.493 57.9363 132.58 57.9168C142.415 55.7578 142.521 55.8341 142.696 55.9638C142.739 55.9967 142.776 56.0379 142.803 56.085C142.831 56.1322 142.849 56.1843 142.856 56.2384C143.008 57.7766 142.797 59.329 142.24 60.7701C141.905 61.6536 141.375 62.4491 140.689 63.0967C140.003 63.7442 139.179 64.227 138.28 64.5084C137.833 64.6381 137.37 64.7049 136.905 64.7067ZM133.067 58.6035C133.158 59.5266 133.568 62.2273 135.286 63.4784C135.695 63.7304 136.154 63.8885 136.631 63.9412C137.108 63.994 137.591 63.9401 138.045 63.7836C138.837 63.536 139.563 63.1116 140.169 62.5421C140.774 61.9727 141.243 61.2729 141.541 60.4955C142.011 59.2823 142.209 57.9796 142.118 56.6809C140.811 56.9174 136.198 57.9092 133.067 58.5958V58.6035Z" fill="#040047"/>
<path d="M141.891 60.6481C140.432 64.188 136.776 65.0349 135.051 63.8066C135.438 62.4562 136.145 61.0525 137.46 60.5413C138.903 60.0473 140.473 60.0852 141.891 60.6481Z" fill="#040047"/>
<path d="M136.904 64.6991C136.175 64.7195 135.458 64.5115 134.852 64.104C134.79 64.0582 134.743 63.9939 134.718 63.92C134.694 63.8462 134.693 63.7665 134.716 63.6921C135.232 61.8306 136.122 60.6404 137.345 60.1751C138.866 59.656 140.521 59.6911 142.019 60.2742C142.068 60.2921 142.112 60.3195 142.15 60.3549C142.188 60.3902 142.218 60.4329 142.24 60.4802C142.277 60.5758 142.277 60.6822 142.24 60.7778C141.903 61.6592 141.372 62.4527 140.686 63.0988C140 63.7448 139.178 64.2268 138.28 64.5084C137.832 64.6353 137.37 64.6995 136.904 64.6991ZM135.521 63.6234C136.311 63.9982 137.215 64.0528 138.044 63.776C138.772 63.5525 139.445 63.1775 140.019 62.6753C140.592 62.1731 141.054 61.5551 141.373 60.8617C140.155 60.455 138.838 60.455 137.619 60.8617C136.684 61.2431 136 62.1739 135.521 63.6234Z" fill="#040047"/>
<path d="M124.061 52.6755C123.541 52.6754 123.036 52.4967 122.631 52.1692C122.226 51.8418 121.945 51.3851 121.834 50.8751L121.036 47.236C120.907 46.6432 121.018 46.0232 121.344 45.5125C121.671 45.0018 122.186 44.6421 122.776 44.5124L131.25 42.6433C131.543 42.5781 131.846 42.5717 132.141 42.6243C132.437 42.6769 132.719 42.7875 132.972 42.9498C133.225 43.1121 133.443 43.3229 133.614 43.5701C133.786 43.8173 133.907 44.096 133.971 44.3903L134.731 48.0294C134.854 48.6146 134.744 49.2249 134.424 49.7296C134.105 50.2344 133.601 50.5935 133.021 50.7301L124.547 52.5916C124.389 52.6385 124.225 52.6667 124.061 52.6755ZM131.744 43.3833C131.636 43.372 131.526 43.372 131.417 43.3833L122.951 45.2448C122.564 45.3343 122.228 45.5718 122.014 45.9068C121.799 46.2417 121.724 46.6476 121.803 47.0376L122.601 50.7301C122.692 51.1151 122.928 51.4496 123.26 51.6631C123.592 51.8766 123.993 51.9524 124.38 51.8745L132.854 49.9672C133.237 49.876 133.571 49.6389 133.783 49.3059C133.996 48.9728 134.071 48.5699 133.994 48.182L133.234 44.5429C133.157 44.2104 132.972 43.9132 132.708 43.6988C132.443 43.4845 132.115 43.3653 131.775 43.3604L131.744 43.3833Z" fill="#040047"/>
<path d="M139.162 49.3569C138.725 49.3558 138.297 49.2287 137.93 48.9907C137.422 48.6637 137.064 48.148 136.935 47.5565L136.175 43.9174C136.044 43.3249 136.154 42.7048 136.479 42.1932C136.64 41.9386 136.85 41.7185 137.097 41.5457C137.343 41.3728 137.621 41.2507 137.915 41.1862L146.382 39.3247C146.674 39.2595 146.977 39.2531 147.273 39.3057C147.568 39.3583 147.85 39.4689 148.103 39.6312C148.356 39.7935 148.574 40.0043 148.746 40.2515C148.917 40.4987 149.038 40.7774 149.102 41.0717L149.862 44.7108C149.994 45.2994 149.89 45.9166 149.571 46.428C149.252 46.9395 148.745 47.3039 148.16 47.442L139.694 49.3035C139.518 49.3383 139.34 49.3562 139.162 49.3569ZM146.845 40.0494C146.735 40.0508 146.626 40.0636 146.518 40.0876L138.052 41.9567C137.859 41.9973 137.676 42.0763 137.515 42.189C137.353 42.3017 137.215 42.4458 137.11 42.6128C136.895 42.9501 136.822 43.3583 136.904 43.7495L137.702 47.3886C137.793 47.7736 138.029 48.1081 138.361 48.3216C138.693 48.5351 139.094 48.6109 139.481 48.533L147.955 46.6715C148.342 46.5847 148.68 46.3492 148.897 46.0154C149.109 45.6771 149.18 45.2689 149.095 44.8787L148.335 41.2396C148.259 40.9006 148.069 40.5978 147.799 40.3814C147.528 40.165 147.191 40.0479 146.845 40.0494Z" fill="#040047"/>
<path d="M133.583 44.8709C133.513 44.8724 133.445 44.8539 133.385 44.8175C133.297 44.7649 133.232 44.6797 133.205 44.5799C133.178 44.4802 133.191 44.3738 133.241 44.2835C133.598 43.6655 134.761 42.6966 136.669 43.4672C136.769 43.5056 136.851 43.5827 136.895 43.6814C136.939 43.7801 136.943 43.8924 136.904 43.9936C136.866 44.0947 136.789 44.1765 136.691 44.2208C136.593 44.2652 136.481 44.2685 136.38 44.2301C134.677 43.5435 133.993 44.5886 133.925 44.7107C133.885 44.7634 133.834 44.8056 133.774 44.8335C133.714 44.8614 133.649 44.8743 133.583 44.8709Z" fill="#040047"/>
<path d="M57.8722 146.429H214.128L239.201 192.395H32.7998L57.8722 146.429Z" fill="white"/>
<path d="M239.201 192.776H32.8003C32.7348 192.776 32.6705 192.759 32.6134 192.727C32.5563 192.695 32.5081 192.649 32.4735 192.593C32.4415 192.535 32.4248 192.469 32.4248 192.402C32.4248 192.336 32.4415 192.27 32.4735 192.212L57.5535 146.246C57.5856 146.185 57.6339 146.135 57.6929 146.1C57.7519 146.065 57.8193 146.047 57.8879 146.048H214.121C214.19 146.047 214.257 146.065 214.316 146.1C214.375 146.135 214.423 146.185 214.455 146.246L239.535 192.212C239.567 192.27 239.584 192.336 239.584 192.402C239.584 192.469 239.567 192.535 239.535 192.593C239.5 192.65 239.451 192.696 239.392 192.729C239.334 192.761 239.268 192.777 239.201 192.776ZM33.4463 192.013H238.555L213.901 146.811H58.1007L33.4463 192.013Z" fill="#909090"/>
<path d="M60.2969 116.775L60.6313 115.326C61.3913 113.876 62.2349 112.9 64.1957 112.9H138.577C139.476 112.901 140.351 113.195 141.07 113.737C141.789 114.278 142.314 115.039 142.567 115.906L154.658 157.606C154.97 158.5 154.931 159.48 154.548 160.346C154.166 161.212 153.469 161.899 152.599 162.267L151.284 162.58L60.2969 116.775Z" fill="white"/>
<path d="M151.284 162.962C151.227 162.96 151.17 162.947 151.117 162.924L60.1298 117.103C60.053 117.066 59.9915 117.003 59.9555 116.925C59.9195 116.847 59.9113 116.759 59.9322 116.676L60.2666 115.227C60.2633 115.194 60.2633 115.16 60.2666 115.127C61.0266 113.746 61.9006 112.503 64.1654 112.503H138.547C139.527 112.507 140.481 112.828 141.265 113.419C142.05 114.01 142.623 114.839 142.901 115.783L155.001 157.537C155.34 158.523 155.294 159.601 154.87 160.553C154.447 161.506 153.678 162.26 152.721 162.664L151.36 162.992L151.284 162.962ZM60.7606 116.569L151.36 162.176L152.538 161.901C154.37 161.184 154.75 159.223 154.317 157.713L142.225 116.012C141.993 115.227 141.515 114.537 140.862 114.045C140.21 113.553 139.416 113.285 138.6 113.281H64.1958C62.5162 113.281 61.7942 114.044 60.9886 115.463L60.7606 116.569Z" fill="#040047"/>
<path d="M151.284 162.58H75.3825C74.8668 162.574 74.3666 162.402 73.956 162.089C73.5454 161.776 73.2461 161.338 73.1025 160.841L60.3269 116.775C60.2787 116.606 60.2702 116.428 60.3022 116.255C60.3341 116.082 60.4055 115.919 60.5108 115.779C60.6162 115.638 60.7525 115.524 60.9092 115.446C61.0659 115.367 61.2386 115.326 61.4137 115.326H139.344L152.545 160.894C152.604 161.091 152.615 161.298 152.579 161.5C152.543 161.702 152.46 161.892 152.337 162.056C152.215 162.22 152.056 162.353 151.873 162.444C151.69 162.535 151.488 162.582 151.284 162.58Z" fill="#4F51FF"/>
<path d="M151.284 162.962H75.3831C74.7808 162.959 74.1955 162.761 73.7137 162.399C73.2319 162.036 72.8793 161.527 72.7079 160.947L59.9323 116.882C59.8706 116.657 59.8613 116.42 59.9051 116.19C59.9488 115.961 60.0445 115.745 60.1848 115.558C60.3251 115.372 60.5061 115.22 60.714 115.115C60.9219 115.01 61.1511 114.954 61.3839 114.952H139.345C139.425 114.95 139.504 114.976 139.569 115.024C139.633 115.072 139.68 115.141 139.702 115.219L152.911 160.787C152.984 161.041 152.997 161.307 152.95 161.567C152.902 161.826 152.796 162.071 152.638 162.282C152.48 162.493 152.276 162.664 152.041 162.782C151.806 162.9 151.547 162.961 151.284 162.962ZM61.3839 115.707C61.2682 115.709 61.1545 115.737 61.0514 115.79C60.9483 115.842 60.8585 115.918 60.7889 116.011C60.7193 116.103 60.6716 116.211 60.6496 116.325C60.6276 116.439 60.6318 116.556 60.6619 116.668L73.4299 160.734C73.5556 161.156 73.8134 161.527 74.1652 161.79C74.5169 162.054 74.944 162.197 75.3831 162.199H151.284C151.431 162.2 151.576 162.166 151.708 162.101C151.84 162.037 151.955 161.942 152.044 161.825C152.13 161.708 152.188 161.573 152.213 161.43C152.238 161.287 152.23 161.14 152.189 161.001L139.041 115.707H61.3839Z" fill="#040047"/>
<path d="M200.464 103.653C200.464 103.653 207.258 133.941 201.695 141.676C196.132 149.412 157.281 148.192 157.281 148.192C157.281 148.192 150.98 155.783 145.508 155.279C140.036 154.776 143.228 144.385 149.666 140.059L148.776 136.451L183.03 130.935L178.47 109.169" fill="white"/>
<path d="M146.01 155.684C145.822 155.684 145.632 155.684 145.44 155.684C144.732 155.648 144.055 155.378 143.516 154.916C142.977 154.453 142.606 153.825 142.461 153.128C141.602 149.748 144.353 143.302 149.194 139.914L148.373 136.565C148.36 136.515 148.357 136.463 148.365 136.412C148.373 136.36 148.391 136.311 148.419 136.268C148.448 136.223 148.486 136.185 148.53 136.156C148.575 136.127 148.625 136.108 148.677 136.1L182.535 130.645L178.051 109.283C178.041 109.234 178.041 109.184 178.051 109.135C178.06 109.085 178.079 109.039 178.107 108.997C178.134 108.955 178.17 108.919 178.211 108.891C178.252 108.863 178.299 108.843 178.348 108.833C178.396 108.822 178.446 108.821 178.495 108.829C178.544 108.838 178.591 108.856 178.633 108.883C178.675 108.91 178.711 108.946 178.739 108.987C178.767 109.028 178.786 109.074 178.796 109.123L183.356 130.889C183.367 130.94 183.368 130.993 183.357 131.044C183.347 131.096 183.326 131.144 183.295 131.187C183.267 131.229 183.23 131.265 183.187 131.293C183.143 131.32 183.095 131.339 183.045 131.347L149.202 136.802L149.962 140.006C149.981 140.081 149.977 140.16 149.95 140.232C149.923 140.305 149.874 140.367 149.81 140.41C145.159 143.538 142.369 149.832 143.167 152.96C143.27 153.499 143.551 153.988 143.965 154.347C144.378 154.705 144.901 154.913 145.447 154.936C150.653 155.424 156.847 148.07 156.893 147.986C156.93 147.941 156.976 147.906 157.029 147.882C157.082 147.858 157.139 147.847 157.197 147.849C157.585 147.849 195.957 148.97 201.323 141.486C206.688 134.002 200.107 104.103 200.038 103.775C200.027 103.725 200.026 103.673 200.035 103.623C200.044 103.572 200.063 103.524 200.09 103.481C200.118 103.438 200.154 103.4 200.196 103.371C200.237 103.342 200.285 103.321 200.335 103.31C200.384 103.299 200.436 103.298 200.486 103.307C200.537 103.316 200.585 103.335 200.628 103.362C200.671 103.39 200.708 103.426 200.737 103.468C200.766 103.51 200.787 103.557 200.798 103.607C201.079 104.851 207.562 134.124 201.961 141.936C196.489 149.565 160.625 148.711 157.379 148.611C156.521 149.618 151.102 155.684 146.01 155.684Z" fill="#040047"/>
<path d="M159.705 88.6543C159.646 88.6533 159.588 88.6376 159.537 88.6085C159.491 88.5873 159.449 88.5568 159.414 88.5189C159.38 88.4811 159.353 88.4366 159.336 88.3881C159.319 88.3397 159.312 88.2883 159.315 88.237C159.318 88.1857 159.332 88.1356 159.355 88.0897C164.873 76.6461 179.039 68.9484 179.183 68.8721C179.228 68.847 179.277 68.8312 179.328 68.8257C179.379 68.8202 179.431 68.8251 179.48 68.84C179.529 68.855 179.574 68.8797 179.613 68.9128C179.652 68.9458 179.685 68.9864 179.708 69.0323C179.733 69.0777 179.749 69.1277 179.754 69.1794C179.76 69.2311 179.755 69.2833 179.74 69.3331C179.725 69.3829 179.701 69.4292 179.668 69.4692C179.635 69.5093 179.594 69.5423 179.548 69.5663C179.411 69.6426 165.465 77.1954 160.062 88.433C160.028 88.4993 159.977 88.555 159.914 88.594C159.851 88.6331 159.779 88.6539 159.705 88.6543Z" fill="#040047"/>
<path d="M136.281 88.1128C136.226 88.1243 136.169 88.1243 136.114 88.1128C122.875 82.0095 121.271 68.5976 121.256 68.4679C121.245 68.3638 121.276 68.2596 121.342 68.1782C121.407 68.0967 121.502 68.0445 121.606 68.033C121.657 68.0266 121.708 68.0305 121.758 68.0443C121.807 68.0582 121.853 68.0818 121.894 68.1137C121.934 68.1457 121.968 68.1853 121.992 68.2304C122.017 68.2755 122.033 68.3251 122.039 68.3763C122.039 68.506 123.62 81.4831 136.479 87.327C136.573 87.3703 136.646 87.4489 136.683 87.5459C136.72 87.6429 136.718 87.7505 136.676 87.8458C136.647 87.9267 136.593 87.9962 136.522 88.0442C136.451 88.0922 136.367 88.1162 136.281 88.1128Z" fill="#040047"/>
<path d="M75.9605 105.408C75.8779 105.384 75.8053 105.334 75.7535 105.265C75.7018 105.196 75.6738 105.113 75.6738 105.026C75.6738 104.94 75.7018 104.856 75.7535 104.787C75.8053 104.719 75.8779 104.669 75.9605 104.645C81.6909 104.469 84.4725 101.219 84.5029 101.189C84.5352 101.149 84.5751 101.116 84.6201 101.092C84.6652 101.068 84.7146 101.053 84.7654 101.048C84.8163 101.043 84.8676 101.048 84.9165 101.063C84.9653 101.078 85.0107 101.103 85.0501 101.136C85.1305 101.202 85.1812 101.299 85.1911 101.403C85.2011 101.507 85.1695 101.611 85.1033 101.692C84.9817 101.837 82.0633 105.248 75.9833 105.431L75.9605 105.408Z" fill="#040047"/>
<path d="M178.423 109.558C178.336 109.559 178.25 109.53 178.181 109.476C178.112 109.422 178.064 109.346 178.043 109.261C178.043 109.123 174.463 95.0628 173.969 86.6327C173.966 86.5816 173.973 86.5303 173.99 86.4819C174.007 86.4335 174.033 86.3889 174.067 86.3507C174.101 86.3124 174.142 86.2812 174.188 86.2589C174.233 86.2366 174.283 86.2236 174.334 86.2207C174.438 86.2144 174.54 86.2493 174.618 86.3178C174.696 86.3863 174.744 86.483 174.752 86.5869C175.246 94.9407 178.773 108.925 178.803 109.07C178.829 109.171 178.813 109.278 178.761 109.368C178.708 109.458 178.622 109.524 178.522 109.55L178.423 109.558Z" fill="#040047"/>
<path d="M117.168 112.068C117.116 112.065 117.066 112.052 117.019 112.029C116.973 112.006 116.931 111.975 116.897 111.935C116.863 111.896 116.837 111.851 116.821 111.802C116.805 111.752 116.799 111.7 116.803 111.649L118.688 82.0095C118.691 81.9577 118.704 81.907 118.727 81.8604C118.749 81.8138 118.781 81.7722 118.82 81.738C118.859 81.7039 118.904 81.678 118.953 81.6617C119.002 81.6454 119.054 81.6392 119.106 81.6433C119.157 81.6452 119.207 81.6575 119.254 81.6795C119.3 81.7014 119.342 81.7326 119.376 81.7711C119.41 81.8096 119.436 81.8546 119.452 81.9035C119.468 81.9523 119.475 82.004 119.471 82.0553L117.555 111.694C117.551 111.795 117.509 111.89 117.437 111.96C117.364 112.029 117.268 112.068 117.168 112.068Z" fill="#040047"/>
<path d="M180.186 160.688L179.738 160.772C178.382 160.975 177.148 161.673 176.272 162.733C175.781 163.486 175.511 164.361 175.49 165.261C175.47 166.16 175.702 167.047 176.158 167.821C178.149 171.422 182.998 172.399 186.737 172.773C187.267 172.859 187.809 172.817 188.318 172.651C188.57 172.564 188.789 172.402 188.945 172.187C189.101 171.971 189.188 171.712 189.192 171.445C189.16 171.226 189.074 171.018 188.941 170.841C188.808 170.664 188.633 170.523 188.432 170.431C188.04 170.248 187.622 170.13 187.193 170.08C184.868 169.698 182.421 169.416 180.293 168.34C179.054 167.707 177.321 166.265 178.225 164.709C178.542 164.216 178.997 163.828 179.533 163.595C181.668 162.573 183.697 163.351 185.803 163.976C185.956 164.033 186.119 164.056 186.281 164.045C186.483 163.989 186.657 163.862 186.77 163.686C186.884 163.51 186.929 163.298 186.897 163.091C186.829 162.168 185.909 161.566 185.043 161.222C183.495 160.632 181.824 160.449 180.186 160.688Z" fill="white"/>
<path d="M239.193 192.395H32.7998V200.382H239.193V192.395Z" fill="white"/>
<path d="M239.201 200.764H32.7999C32.6991 200.764 32.6025 200.724 32.5312 200.652C32.46 200.58 32.4199 200.483 32.4199 200.382V192.395C32.4219 192.294 32.4625 192.198 32.5334 192.127C32.6042 192.056 32.6997 192.015 32.7999 192.013H239.201C239.301 192.015 239.396 192.056 239.467 192.127C239.538 192.198 239.579 192.294 239.581 192.395V200.382C239.581 200.483 239.541 200.58 239.469 200.652C239.398 200.724 239.301 200.764 239.201 200.764ZM33.1799 200.001H238.821V192.776H33.1799V200.001Z" fill="#909090"/>
<path d="M206.718 117.797C206.618 117.793 206.523 117.751 206.454 117.678C206.384 117.606 206.346 117.509 206.346 117.408C206.346 116.531 206.901 95.8486 209.173 88.6848C211.445 81.5211 215.709 78.5382 215.884 78.4237C215.967 78.3671 216.07 78.3461 216.169 78.3654C216.268 78.3847 216.355 78.4427 216.412 78.5267C216.468 78.6107 216.489 78.7137 216.47 78.8132C216.451 78.9126 216.393 79.0003 216.309 79.0569C216.264 79.0569 212.107 81.9484 209.895 88.9137C207.683 95.8791 207.113 117.21 207.106 117.424C207.105 117.474 207.094 117.523 207.074 117.569C207.054 117.615 207.025 117.656 206.989 117.691C206.953 117.726 206.911 117.753 206.864 117.771C206.818 117.79 206.768 117.798 206.718 117.797Z" fill="white"/>
</svg>
