<svg width="270" height="212" viewBox="0 0 270 212" fill="none" xmlns="http://www.w3.org/2000/svg">
<path d="M28.3223 172.823V181.765H215.632L239.914 150.73V140.011L28.3223 172.823Z" fill="white"/>
<path d="M215.632 182.108H28.3225C28.2318 182.108 28.1448 182.072 28.0807 182.007C28.0165 181.943 27.9805 181.856 27.9805 181.765V172.823C27.9795 172.741 28.0081 172.661 28.0612 172.598C28.1142 172.535 28.1881 172.493 28.2693 172.48L239.861 139.675C239.911 139.668 239.962 139.671 240.011 139.686C240.059 139.7 240.104 139.725 240.142 139.759C240.18 139.79 240.211 139.83 240.232 139.875C240.253 139.92 240.264 139.969 240.264 140.018V150.737C240.265 150.815 240.238 150.891 240.188 150.951L215.906 181.986C215.872 182.025 215.83 182.057 215.783 182.078C215.735 182.099 215.684 182.109 215.632 182.108ZM28.6721 181.414H215.472L239.58 150.607V140.423L28.6721 173.121V181.414Z" fill="#909090"/>
<path d="M68.1235 90.0021C66.6907 90.0487 65.2695 89.7303 63.9924 89.0766C62.7153 88.4229 61.6238 87.4553 60.8199 86.2638C59.7789 84.4756 59.1262 82.4867 58.9047 80.4276C58.1827 75.7814 57.5139 71.2193 58.2055 66.5503C58.3439 65.2182 58.7306 63.9242 59.3455 62.7357C59.6551 62.1398 60.0972 61.6233 60.6375 61.2265C61.1779 60.8296 61.802 60.5629 62.4615 60.447C62.9844 58.4815 64.2241 56.785 65.9347 55.6941C68.5012 53.9544 71.6377 53.2766 74.6899 53.8021C74.065 53.8069 73.4513 53.635 72.9191 53.3062C72.659 53.1353 72.4733 52.8715 72.3999 52.5683C72.3265 52.2651 72.3709 51.9452 72.5239 51.6735C72.8963 51.17 73.6335 51.1929 74.2491 51.2845C77.4266 51.7489 80.4803 52.8433 83.2323 54.5039C83.0651 53.3825 84.2887 52.4441 85.4211 52.4746C86.5542 52.6173 87.6159 53.1075 88.4611 53.8783C90.0579 54.9712 91.4198 56.3747 92.4663 58.0057C93.6215 60.0274 93.4543 63.1858 92.6335 65.3143C92.4081 66.0081 91.9623 66.6084 91.3643 67.0233C90.9235 67.3513 90.3307 67.4734 89.8975 67.7862C89.0159 68.4118 89.2515 68.0379 88.8715 69.1518C88.0507 71.5549 87.6099 73.836 86.3331 76.0942C85.067 78.2502 83.6176 80.2922 82.0011 82.1975C79.6212 85.1932 76.5405 87.5519 73.0331 89.0637C71.473 89.6943 69.8053 90.013 68.1235 90.0021Z" fill="white"/>
<path d="M68.2144 90.3837H68.1157C66.6226 90.4291 65.1425 90.094 63.8134 89.4095C62.4844 88.7251 61.3498 87.7138 60.5157 86.4699C59.4442 84.6356 58.7708 82.5948 58.5397 80.4811C57.8709 76.2241 57.1108 71.3949 57.8404 66.497C57.9827 65.1123 58.3823 63.7667 59.0185 62.5299C59.3404 61.9245 59.7867 61.3945 60.3277 60.975C60.8688 60.5555 61.4924 60.2559 62.1572 60.0962C62.7478 58.1423 64.0147 56.4647 65.7293 55.3662C67.6857 54.0475 69.9709 53.3049 72.3261 53.2224C72.1593 52.9963 72.045 52.7356 71.9917 52.4595C71.9633 52.2855 71.9694 52.1076 72.0099 51.9361C72.0503 51.7646 72.1242 51.6028 72.2272 51.4601C72.7896 50.6972 73.9297 50.865 74.3097 50.9184C77.33 51.3727 80.2411 52.3813 82.8976 53.8937C82.9813 53.5717 83.1432 53.2755 83.3688 53.0317C83.6289 52.7389 83.949 52.5062 84.3071 52.3495C84.6653 52.1928 85.053 52.1158 85.4437 52.1238C86.6559 52.267 87.7933 52.7872 88.6965 53.6115C90.3422 54.7243 91.7419 56.1656 92.8081 57.8456C94.0393 60.0123 93.834 63.3233 92.9904 65.4747C92.7398 66.2301 92.2484 66.8816 91.592 67.3286C91.3292 67.511 91.0461 67.662 90.7484 67.7787C90.5248 67.8623 90.3108 67.9697 90.1101 68.0991L89.6921 68.3814C89.4792 68.5187 89.4793 68.5187 89.3653 68.862L89.2284 69.274C88.9928 69.9758 88.78 70.6625 88.5748 71.3491C88.1297 73.0624 87.4897 74.7187 86.6673 76.2851C85.3848 78.4583 83.9203 80.518 82.2896 82.4418C79.8688 85.476 76.7349 87.859 73.1697 89.3766C71.5973 90.0272 69.9151 90.3691 68.2144 90.3837ZM72.6604 53.9853C70.339 53.9973 68.073 54.6981 66.1472 55.9994C64.5068 57.0333 63.3216 58.657 62.8337 60.5387C62.8172 60.6171 62.7769 60.6886 62.7184 60.7432C62.6599 60.7978 62.586 60.833 62.5069 60.8438C61.9089 60.9467 61.3424 61.1859 60.851 61.543C60.3595 61.9001 59.9562 62.3656 59.6721 62.9037C59.0824 64.0715 58.7138 65.3391 58.5853 66.6419C57.8785 71.4177 58.6233 76.1859 59.2845 80.3743C59.5012 82.3803 60.1328 84.3187 61.1389 86.0656C61.9105 87.2013 62.9551 88.1232 64.1759 88.746C65.3968 89.3688 66.7545 89.6723 68.1233 89.6284C69.7583 89.624 71.3768 89.3001 72.8885 88.6747C76.3355 87.2077 79.3651 84.9032 81.7045 81.9688C83.3052 80.0771 84.7441 78.0533 86.006 75.9189C86.797 74.3984 87.4164 72.794 87.8529 71.1355C88.0581 70.4412 88.2708 69.747 88.514 69.0298L88.6432 68.6331C88.818 68.0991 88.8637 68.0152 89.2817 67.7482L89.6768 67.4811C89.9156 67.3225 90.1704 67.1895 90.4368 67.0844C90.6793 66.9897 90.9112 66.8696 91.1284 66.7259C91.6686 66.3604 92.0702 65.8229 92.2684 65.2C93.0285 63.2089 93.2413 60.1725 92.1317 58.2194C91.115 56.629 89.7857 55.2635 88.2253 54.2065C87.4407 53.488 86.4576 53.0252 85.4057 52.8791C85.1205 52.8691 84.8366 52.9221 84.574 53.0341C84.3114 53.1461 84.0764 53.3146 83.8857 53.5275C83.7669 53.6523 83.6768 53.8016 83.6217 53.9651C83.5665 54.1285 83.5477 54.302 83.5665 54.4736C83.5799 54.5456 83.5719 54.6199 83.5435 54.6875C83.5152 54.755 83.4677 54.8126 83.407 54.8533C83.3462 54.8939 83.275 54.9157 83.202 54.916C83.129 54.9164 83.0575 54.8951 82.9965 54.855C80.2857 53.2175 77.2793 52.1337 74.1501 51.666C73.4357 51.5592 72.9873 51.666 72.7897 51.9102C72.7049 52.0352 72.6722 52.1885 72.6985 52.3374C72.745 52.6055 72.8918 52.8456 73.1089 53.0088C73.3028 53.1477 73.5224 53.2463 73.7549 53.2987C74.0741 53.2987 74.4009 53.375 74.7201 53.436C74.8208 53.4491 74.9123 53.5019 74.9743 53.5828C75.0363 53.6636 75.0638 53.7659 75.0507 53.867C75.0375 53.9682 74.985 54.06 74.9044 54.1222C74.8239 54.1845 74.722 54.2121 74.6213 54.1989C74.2891 54.1762 73.959 54.1303 73.6333 54.0616C73.3521 54.0005 73.0024 53.9853 72.6604 53.9853Z" fill="#040047"/>
<path d="M90.9997 76.2468C90.9997 76.2468 95.4304 82.785 94.5488 84.1658C93.6672 85.5467 90.6729 84.677 90.6729 84.677" fill="white"/>
<path d="M92.557 85.3255C91.884 85.3174 91.2148 85.2226 90.5658 85.0432C90.4702 85.0132 90.3899 84.9472 90.3417 84.859C90.2935 84.7708 90.2812 84.6673 90.3074 84.5702C90.3205 84.5216 90.3432 84.4761 90.3742 84.4365C90.4052 84.3969 90.4439 84.3639 90.4879 84.3397C90.5319 84.3155 90.5804 84.3004 90.6303 84.2955C90.6803 84.2905 90.7307 84.2958 90.7786 84.3109C91.5386 84.5245 93.6362 84.8907 94.229 83.9599C94.6926 83.197 92.747 79.5045 90.6874 76.4605C90.6595 76.419 90.64 76.3723 90.63 76.3231C90.62 76.274 90.6198 76.2233 90.6293 76.1741C90.6389 76.1249 90.6579 76.078 90.6855 76.0362C90.7131 75.9943 90.7486 75.9584 90.79 75.9303C90.8314 75.9023 90.8779 75.8827 90.9269 75.8727C90.9759 75.8627 91.0263 75.8624 91.0754 75.872C91.1244 75.8816 91.1711 75.9007 91.2128 75.9284C91.2544 75.9561 91.2903 75.9917 91.3182 76.0333C92.3898 77.6125 95.8174 82.8995 94.8674 84.3719C94.5917 84.7112 94.236 84.9761 93.8326 85.1427C93.4292 85.3092 92.9908 85.372 92.557 85.3255Z" fill="#040047"/>
<path d="M89.9655 67.5421C92.7547 69.7697 92.0175 74.5684 92.0327 77.6811C92.0327 82.0704 91.9566 86.452 91.8046 90.826C91.6906 93.603 84.5314 93.7556 83.2546 92.9393L84.5999 100.263L68.123 98.478V90.0021C68.123 90.0021 74.7654 89.1934 77.4938 83.4945C80.2222 77.7955 80.1158 67.1682 80.1158 67.1682C80.1158 67.1682 87.237 65.3678 89.9655 67.5421Z" fill="white"/>
<path d="M84.6001 100.645H84.5621L68.0777 98.8518C67.9856 98.8423 67.9004 98.7988 67.8386 98.7297C67.7768 98.6606 67.7428 98.5708 67.7433 98.478V90.0021C67.7409 89.9079 67.774 89.8163 67.836 89.7455C67.898 89.6748 67.9843 89.6302 68.0777 89.6206C68.1385 89.6206 74.5453 88.7661 77.1521 83.3342C79.7589 77.9023 79.7361 67.3132 79.7361 67.1758C79.7339 67.0896 79.7615 67.0054 79.8141 66.9372C79.8667 66.8691 79.9412 66.8213 80.0249 66.802C80.3213 66.7257 87.3589 64.9787 90.2013 67.2445C92.6713 69.2128 92.5497 72.9739 92.4813 75.9951C92.4813 76.5901 92.4813 77.1623 92.4813 77.6811C92.4813 82.0525 92.4281 86.4774 92.2533 90.8413C92.2092 91.2812 92.0436 91.7001 91.775 92.0506C91.5064 92.401 91.1456 92.6692 90.7333 92.8248C88.8561 93.8166 85.4133 93.931 83.7945 93.5267L84.9801 100.21C84.9886 100.268 84.9841 100.328 84.967 100.385C84.9499 100.442 84.9207 100.494 84.8813 100.538C84.8439 100.574 84.7997 100.601 84.7514 100.62C84.7031 100.638 84.6517 100.647 84.6001 100.645ZM68.5033 98.1347L84.1365 99.8283L82.8825 93.0079C82.8677 92.9356 82.875 92.8605 82.9035 92.7924C82.932 92.7243 82.9803 92.6665 83.0421 92.6265C83.1048 92.5872 83.1772 92.5664 83.2511 92.5664C83.325 92.5664 83.3974 92.5872 83.4601 92.6265C84.2809 93.1529 88.3013 93.2292 90.3001 92.1535C90.9993 91.7873 91.3641 91.3371 91.3869 90.8184C91.5617 86.4698 91.6377 82.0525 91.6149 77.6963C91.6149 77.1623 91.6149 76.5825 91.6149 75.9722C91.7061 73.1265 91.8201 69.579 89.6465 67.8472C87.3665 66.0544 81.7577 67.1835 80.4201 67.481C80.4201 69.2967 80.2605 78.4364 77.7601 83.6699C75.2597 88.9035 69.8409 90.086 68.4273 90.3377L68.5033 98.1347Z" fill="#040047"/>
<path d="M82.6702 79.1613C82.5356 78.0659 82.0986 77.03 81.4086 76.1707C80.9749 75.4379 80.4344 74.7745 79.805 74.2024C79.4857 73.9203 79.1083 73.7124 78.6997 73.5938C78.2911 73.4751 77.8614 73.4484 77.4414 73.5158C77.0783 73.6139 76.7397 73.7875 76.4478 74.0254C76.1558 74.2632 75.9169 74.5601 75.7466 74.8966C75.4186 75.5777 75.2422 76.3222 75.2298 77.0786C75.1806 78.7271 75.5641 80.3597 76.3418 81.8125C77.1194 83.2653 78.264 84.4874 79.6606 85.3561L79.4174 85.0967" fill="white"/>
<path d="M79.6603 85.7147C79.5863 85.7392 79.5064 85.7392 79.4323 85.7147C77.9811 84.8065 76.7919 83.533 75.9826 82.0207C75.1734 80.5084 74.7723 78.8099 74.8191 77.0939C74.8303 76.2808 75.0225 75.4806 75.3815 74.7517C75.5756 74.365 75.8495 74.0242 76.185 73.7519C76.5204 73.4796 76.9098 73.2821 77.3271 73.1725C77.8027 73.0876 78.2912 73.1122 78.7559 73.2444C79.2206 73.3765 79.6494 73.6128 80.0099 73.9354C80.6738 74.5286 81.2429 75.2208 81.6971 75.9877C82.427 76.9052 82.8852 78.0102 83.0195 79.1766C83.0216 79.2765 82.9845 79.3732 82.9163 79.446C82.8481 79.5187 82.7542 79.5617 82.6547 79.5657C82.555 79.566 82.4588 79.5284 82.3855 79.4605C82.3122 79.3926 82.2672 79.2993 82.2595 79.1995C82.1186 78.1781 81.7065 77.2136 81.0663 76.4073C80.6555 75.707 80.1432 75.0719 79.5463 74.5229C79.2735 74.2754 78.949 74.0921 78.5967 73.9865C78.2443 73.8809 77.8729 73.8557 77.5095 73.9125C77.1987 73.9973 76.9094 74.1472 76.6605 74.3523C76.4116 74.5575 76.2088 74.8132 76.0655 75.1027C75.7611 75.7305 75.6001 76.4186 75.5943 77.1168C75.5594 78.6032 75.8874 80.0755 76.5498 81.4054C77.2122 82.7352 78.1888 83.8821 79.3943 84.7458C79.4515 84.7394 79.5094 84.7464 79.5635 84.7663C79.6176 84.7862 79.6663 84.8183 79.7059 84.8603L79.9491 85.1197C80.0095 85.188 80.0428 85.2762 80.0428 85.3676C80.0428 85.459 80.0095 85.5472 79.9491 85.6156C79.911 85.652 79.8654 85.6798 79.8155 85.6969C79.7657 85.714 79.7127 85.7201 79.6603 85.7147Z" fill="#040047"/>
<path d="M89.7756 74.4212C90.1148 74.3983 90.3429 73.6811 90.2852 72.8192C90.2274 71.9574 89.9056 71.2774 89.5664 71.3003C89.2271 71.3232 88.999 72.0404 89.0568 72.9022C89.1145 73.764 89.4364 74.4441 89.7756 74.4212Z" fill="#040047"/>
<path d="M64.5283 101.736L65.6911 95.7393L86.8647 97.0362L88.1947 101.362C88.1947 101.362 76.5667 107.404 64.5283 101.736Z" fill="white"/>
<path d="M75.5186 104.536C71.6699 104.557 67.8636 103.729 64.3694 102.109C64.2922 102.074 64.2294 102.013 64.1908 101.937C64.1522 101.86 64.1401 101.774 64.1566 101.69L65.3194 95.6858C65.3344 95.5941 65.3835 95.5115 65.4569 95.4549C65.5303 95.3982 65.6224 95.3716 65.7146 95.3806L86.8882 96.6776C86.9658 96.6807 87.0405 96.7081 87.1018 96.756C87.1632 96.8039 87.208 96.8698 87.2302 96.9446L88.5526 101.278C88.58 101.363 88.5759 101.456 88.541 101.538C88.5061 101.621 88.4428 101.688 88.3626 101.728C84.3288 103.57 79.9501 104.527 75.5186 104.536ZM64.9926 101.537C75.6326 106.351 85.9382 102.033 87.7926 101.186L86.645 97.4176L66.0642 96.1588L64.9926 101.537Z" fill="#040047"/>
<path d="M91.9188 87.3625C91.9188 87.3625 90.7332 89.6513 87.0244 87.3625H91.9188Z" fill="white"/>
<path d="M89.9431 88.7663C88.8262 88.6994 87.7487 88.3274 86.8271 87.6906C86.755 87.6308 86.7069 87.5468 86.6917 87.4542C86.6765 87.3616 86.6951 87.2666 86.7442 87.1867C86.7932 87.1068 86.8694 87.0473 86.9587 87.0194C87.0479 86.9914 87.1443 86.9968 87.2299 87.0345C88.5371 87.8508 89.6847 88.156 90.5435 87.9271C90.9757 87.8174 91.3489 87.544 91.5847 87.1642C91.6311 87.0742 91.7112 87.0063 91.8074 86.9755C91.9036 86.9448 92.008 86.9536 92.0977 87.0002C92.1874 87.0467 92.255 87.1271 92.2856 87.2237C92.3163 87.3203 92.3075 87.4251 92.2611 87.5151C91.9183 88.071 91.3729 88.4706 90.7411 88.629C90.4825 88.7109 90.2141 88.7571 89.9431 88.7663Z" fill="#040047"/>
<path d="M218.2 166.697H25.3428L51.1524 138.271L241.441 136.654L218.2 166.697Z" fill="white"/>
<path d="M218.201 167.041H25.3431C25.2764 167.042 25.2109 167.023 25.1552 166.987C25.0995 166.95 25.0563 166.897 25.0315 166.835C25.003 166.773 24.9935 166.705 25.0044 166.638C25.0152 166.572 25.0459 166.51 25.0923 166.461L50.9323 138.042C50.9633 138.006 51.0018 137.977 51.0451 137.957C51.0884 137.938 51.1355 137.928 51.1831 137.928L241.472 136.303C241.536 136.304 241.599 136.322 241.654 136.355C241.709 136.389 241.753 136.437 241.784 136.494C241.81 136.554 241.82 136.62 241.814 136.686C241.807 136.751 241.783 136.814 241.746 136.868L218.512 166.911C218.475 166.957 218.428 166.993 218.373 167.016C218.319 167.039 218.259 167.047 218.201 167.041ZM26.1335 166.346H218.026L240.727 137.005L51.3123 138.622L26.1335 166.346Z" fill="#909090"/>
<path d="M161.923 161.174L176.69 141.208H108.031L87.458 162.135L161.923 161.174Z" fill="white"/>
<path d="M87.4583 162.517C87.384 162.518 87.3109 162.497 87.2486 162.456C87.1863 162.415 87.1376 162.357 87.1088 162.288C87.0794 162.218 87.0709 162.141 87.0844 162.067C87.0979 161.992 87.1328 161.923 87.1847 161.868L107.766 140.942C107.799 140.905 107.841 140.876 107.886 140.856C107.932 140.836 107.982 140.827 108.032 140.827H176.713C176.783 140.827 176.853 140.847 176.913 140.884C176.973 140.921 177.021 140.975 177.053 141.038C177.084 141.101 177.098 141.172 177.091 141.243C177.085 141.313 177.059 141.381 177.017 141.437L162.227 161.395C162.193 161.443 162.148 161.482 162.097 161.509C162.046 161.537 161.989 161.553 161.931 161.555L87.4508 162.517H87.4583ZM108.191 141.59L88.378 161.746L161.733 160.792L175.953 141.59H108.191Z" fill="#040047"/>
<path d="M170.769 144.359L160.524 158.015H94.3584L109.832 144.932L170.769 144.359Z" fill="white"/>
<path d="M160.525 158.397H94.3591C94.2799 158.398 94.2024 158.374 94.1373 158.329C94.0722 158.284 94.0228 158.219 93.996 158.145C93.9693 158.07 93.9664 157.989 93.9879 157.912C94.0094 157.836 94.0541 157.768 94.1159 157.718L109.582 144.634C109.652 144.581 109.737 144.551 109.825 144.55L170.762 143.978C170.833 143.975 170.903 143.993 170.963 144.03C171.024 144.067 171.073 144.12 171.104 144.184C171.141 144.245 171.16 144.315 171.16 144.386C171.16 144.458 171.141 144.527 171.104 144.588L160.859 158.244C160.82 158.296 160.769 158.336 160.711 158.363C160.653 158.39 160.589 158.401 160.525 158.397ZM95.4003 157.634H160.335L170.002 144.749L109.962 145.306L95.4003 157.634Z" fill="#D1D3D4"/>
<path d="M218.193 166.697H25.3428V172.823H218.193V166.697Z" fill="white"/>
<path d="M218.201 173.175H25.343C25.2516 173.173 25.1646 173.135 25.1007 173.069C25.0367 173.003 25.001 172.915 25.001 172.824V166.72C25.001 166.629 25.0367 166.54 25.1007 166.475C25.1646 166.409 25.2516 166.371 25.343 166.369H218.201C218.292 166.371 218.379 166.409 218.443 166.475C218.507 166.54 218.543 166.629 218.543 166.72V172.824C218.543 172.915 218.507 173.003 218.443 173.069C218.379 173.135 218.292 173.173 218.201 173.175ZM25.6926 172.473H217.851V167.041H25.6926V172.473Z" fill="#909090"/>
<path d="M143.409 154.636C146.047 155.299 149.489 152.667 150.88 150.73C151.074 150.409 151.349 150.145 151.678 149.967C151.903 149.89 152.141 149.859 152.377 149.875C153.877 149.851 155.371 149.685 156.839 149.379C158.267 149.074 159.879 148.479 160.365 147.091C160.851 145.702 160.076 144.184 158.967 143.276C156.443 141.14 152.803 141.254 149.558 140.659C148.235 140.293 146.86 140.159 145.492 140.263C144.218 140.541 143.103 141.308 142.383 142.399C141.591 143.303 140.687 144.103 139.693 144.779C138.249 145.918 136.825 147.073 135.422 148.243C137.702 150.173 139.982 152.82 142.551 154.346C142.823 154.481 143.111 154.579 143.409 154.636Z" fill="white"/>
<path d="M144.291 155.139C143.96 155.141 143.631 155.1 143.311 155.017C142.977 154.934 142.657 154.803 142.361 154.628C140.607 153.476 138.981 152.138 137.512 150.638C136.706 149.875 135.992 149.158 135.179 148.51C135.136 148.474 135.101 148.429 135.077 148.378C135.053 148.327 135.041 148.272 135.041 148.216C135.041 148.16 135.053 148.104 135.077 148.054C135.101 148.003 135.136 147.958 135.179 147.922C136.6 146.74 138.036 145.572 139.457 144.459L140.012 144.031C140.779 143.496 141.474 142.862 142.079 142.147C142.856 140.974 144.059 140.153 145.431 139.858C146.592 139.73 147.767 139.817 148.897 140.118L149.657 140.255C150.417 140.392 151.23 140.499 152.013 140.598C154.581 140.919 157.234 141.254 159.24 142.956C160.426 143.947 161.353 145.656 160.76 147.228C160.281 148.471 159.043 149.288 156.96 149.73C155.46 150.045 153.933 150.214 152.4 150.234C152.211 150.22 152.02 150.241 151.838 150.295C151.598 150.438 151.4 150.64 151.26 150.882L151.199 150.966C149.862 152.782 146.928 155.139 144.291 155.139ZM143.531 154.277C145.902 154.88 149.216 152.431 150.607 150.524L150.66 150.447C150.875 150.085 151.189 149.791 151.564 149.601C151.83 149.506 152.111 149.465 152.393 149.479C153.872 149.458 155.345 149.294 156.793 148.99C158.602 148.609 159.666 147.945 160.038 146.961C160.509 145.748 159.727 144.367 158.754 143.543C156.915 142.017 154.376 141.674 151.914 141.361C151.154 141.262 150.303 141.155 149.52 141.01L148.76 140.873C147.714 140.597 146.627 140.52 145.553 140.644C144.369 140.903 143.335 141.618 142.672 142.635C142.028 143.407 141.284 144.089 140.461 144.665L139.921 145.084C138.621 146.099 137.307 147.167 136.007 148.243C136.683 148.83 137.36 149.479 138.021 150.104C139.453 151.565 141.035 152.869 142.741 153.995C142.978 154.133 143.234 154.236 143.501 154.3L143.531 154.277Z" fill="#040047"/>
<path d="M38.3465 176.867C38.3465 176.867 35.2609 111.363 51.9201 102.498C57.1033 99.7367 98.9185 97.8524 108.791 106.191C118.663 114.53 119.484 148.426 119.484 148.426L137.846 144.062L145.195 157.428C145.195 157.428 118.147 169.909 112.971 172.327C104.125 176.455 38.3465 176.867 38.3465 176.867Z" fill="#FFE11B"/>
<path d="M94.3587 148.586C94.3087 148.581 94.2602 148.567 94.2159 148.543C94.1715 148.519 94.1323 148.487 94.1005 148.448C94.0687 148.409 94.045 148.364 94.0306 148.315C94.0162 148.267 94.0115 148.217 94.0167 148.166L97.3987 110.952C97.4078 110.851 97.4565 110.757 97.5342 110.692C97.6119 110.627 97.7121 110.595 97.8129 110.605C97.9137 110.614 98.0068 110.663 98.0716 110.741C98.1365 110.819 98.1678 110.919 98.1587 111.02L94.7387 148.273C94.7225 148.362 94.6755 148.442 94.6059 148.5C94.5363 148.557 94.4487 148.587 94.3587 148.586Z" fill="#040047"/>
<path d="M83.7718 113.462H45.8326C43.066 113.461 40.3314 114.054 37.8117 115.201C35.2921 116.348 33.0456 118.022 31.2228 120.111C29.4 122.2 28.043 124.656 27.2426 127.314C26.4422 129.973 26.2169 132.772 26.5818 135.525L32.7074 181.765H109.832L102.992 130.383C102.372 125.705 100.082 121.411 96.5474 118.299C93.0127 115.187 88.4733 113.468 83.7718 113.462Z" fill="#040047"/>
<path d="M123.558 159.923C126.005 159.923 126.005 156.108 123.558 156.108C121.111 156.108 121.111 159.923 123.558 159.923Z" fill="#FFE11B"/>
<path d="M124.105 159.923C126.552 159.923 126.56 156.108 124.105 156.108C121.65 156.108 121.658 159.923 124.105 159.923Z" fill="#FFE11B"/>
<path d="M218.201 172.824L241.442 142.063V136.654L218.201 166.697V172.824Z" fill="white"/>
<path d="M218.2 173.175H218.086C218.017 173.153 217.956 173.109 217.914 173.05C217.871 172.991 217.849 172.919 217.851 172.847V166.743C217.849 166.665 217.876 166.589 217.927 166.53L241.167 136.486C241.209 136.428 241.269 136.384 241.337 136.362C241.406 136.34 241.479 136.341 241.547 136.364C241.617 136.388 241.677 136.434 241.719 136.494C241.762 136.554 241.784 136.626 241.783 136.7V142.109C241.784 142.186 241.76 142.261 241.715 142.323L218.512 173.037C218.475 173.084 218.428 173.122 218.373 173.146C218.319 173.17 218.259 173.18 218.2 173.175ZM218.542 166.812V171.786L241.091 141.949V137.669L218.542 166.812Z" fill="#909090"/>
<path d="M215.632 182.108C215.54 182.108 215.453 182.072 215.387 182.008C215.322 181.944 215.284 181.857 215.282 181.765V172.824C215.284 172.731 215.322 172.643 215.387 172.578C215.452 172.512 215.54 172.475 215.632 172.473C215.723 172.475 215.81 172.513 215.874 172.578C215.938 172.644 215.974 172.732 215.974 172.824V181.765C215.974 181.856 215.938 181.943 215.874 182.008C215.81 182.072 215.723 182.108 215.632 182.108Z" fill="#909090"/>
<path d="M118.838 39.8257H240.818V105.337C240.818 106.055 240.534 106.744 240.028 107.252C239.522 107.76 238.835 108.045 238.12 108.045H121.536C120.82 108.045 120.134 107.76 119.628 107.252C119.122 106.744 118.838 106.055 118.838 105.337V39.8257Z" fill="white"/>
<path d="M238.113 108.396H121.536C120.73 108.396 119.957 108.074 119.386 107.502C118.816 106.93 118.496 106.153 118.496 105.344V39.8255C118.496 39.7325 118.533 39.6432 118.598 39.5774C118.664 39.5116 118.753 39.4746 118.846 39.4746H240.826C240.918 39.4766 241.006 39.5142 241.071 39.5796C241.136 39.6449 241.173 39.7331 241.175 39.8255V105.337C241.176 105.74 241.098 106.139 240.944 106.512C240.79 106.885 240.564 107.223 240.28 107.507C239.995 107.792 239.657 108.017 239.285 108.169C238.913 108.322 238.514 108.399 238.113 108.396ZM119.18 40.1765V105.337C119.182 105.962 119.431 106.562 119.873 107.004C120.314 107.446 120.913 107.694 121.536 107.694H238.113C238.736 107.694 239.334 107.446 239.776 107.004C240.217 106.562 240.467 105.962 240.469 105.337V40.1765H119.18Z" fill="#040047"/>
<path d="M121.536 29.3357H238.112C238.828 29.3357 239.514 29.621 240.02 30.1289C240.526 30.6369 240.81 31.3257 240.81 32.044V40.0088H118.838V32.0516C118.837 31.6953 118.906 31.3423 119.041 31.0129C119.176 30.6834 119.375 30.3839 119.625 30.1316C119.876 29.8793 120.174 29.6792 120.502 29.5426C120.829 29.406 121.181 29.3357 121.536 29.3357Z" fill="white"/>
<path d="M240.818 40.3521H118.838C118.792 40.3531 118.747 40.345 118.705 40.3282C118.662 40.3114 118.624 40.2862 118.591 40.2543C118.559 40.2223 118.533 40.1841 118.515 40.1419C118.497 40.0998 118.488 40.0545 118.488 40.0088V32.0516C118.488 31.2423 118.809 30.4661 119.379 29.8938C119.949 29.3215 120.722 29 121.528 29H238.112C238.919 29 239.692 29.3215 240.262 29.8938C240.832 30.4661 241.152 31.2423 241.152 32.0516V40.0088C241.15 40.0979 241.115 40.183 241.053 40.2468C240.991 40.3106 240.907 40.3482 240.818 40.3521ZM119.218 39.6578H240.468V32.0287C240.468 31.4015 240.22 30.8 239.778 30.3564C239.336 29.9129 238.737 29.6637 238.112 29.6637H121.536C120.911 29.6637 120.312 29.9129 119.87 30.3564C119.428 30.8 119.18 31.4015 119.18 32.0287L119.218 39.6578Z" fill="#040047"/>
<path d="M182.716 48.4006H124.69V86.5537H182.716V48.4006Z" fill="white"/>
<path d="M182.709 86.943H124.691C124.59 86.943 124.493 86.9028 124.422 86.8313C124.351 86.7597 124.311 86.6627 124.311 86.5615V48.4161C124.311 48.315 124.351 48.2179 124.422 48.1464C124.493 48.0749 124.59 48.0347 124.691 48.0347H182.709C182.81 48.0347 182.906 48.0749 182.978 48.1464C183.049 48.2179 183.089 48.315 183.089 48.4161V86.5615C183.089 86.6627 183.049 86.7597 182.978 86.8313C182.906 86.9028 182.81 86.943 182.709 86.943ZM125.071 86.1801H182.329V48.7976H125.071V86.1801Z" fill="#D1D3D4"/>
<path d="M131.584 64.4599C132.746 64.4599 133.689 63.5138 133.689 62.3467C133.689 61.1795 132.746 60.2334 131.584 60.2334C130.421 60.2334 129.479 61.1795 129.479 62.3467C129.479 63.5138 130.421 64.4599 131.584 64.4599Z" fill="white"/>
<path d="M131.584 64.8339C131.092 64.8339 130.611 64.6874 130.202 64.4129C129.793 64.1385 129.475 63.7484 129.287 63.2921C129.099 62.8358 129.05 62.3338 129.147 61.8497C129.243 61.3656 129.481 60.9211 129.829 60.5725C130.178 60.2239 130.621 59.9869 131.104 59.8915C131.586 59.7961 132.086 59.8466 132.54 60.0366C132.994 60.2266 133.382 60.5475 133.654 60.9588C133.926 61.37 134.071 61.8531 134.069 62.3468C134.067 63.0071 133.804 63.6397 133.338 64.1059C132.873 64.5721 132.242 64.8339 131.584 64.8339ZM131.584 60.615C131.243 60.615 130.909 60.7166 130.625 60.9069C130.342 61.0972 130.121 61.3676 129.99 61.6841C129.859 62.0005 129.825 62.3487 129.892 62.6847C129.958 63.0206 130.123 63.3292 130.364 63.5714C130.605 63.8136 130.913 63.9785 131.247 64.0453C131.582 64.1122 131.929 64.0779 132.244 63.9468C132.559 63.8157 132.829 63.5938 133.018 63.309C133.208 63.0242 133.309 62.6893 133.309 62.3468C133.309 61.8875 133.127 61.447 132.804 61.1223C132.48 60.7975 132.041 60.615 131.584 60.615Z" fill="#D1D3D4"/>
<path d="M175.953 62.7282H138.105C138.004 62.7263 137.909 62.6855 137.838 62.6144C137.767 62.5432 137.727 62.4473 137.725 62.3468C137.725 62.2456 137.765 62.1486 137.836 62.0771C137.907 62.0055 138.004 61.9653 138.105 61.9653H175.953C176.053 61.9653 176.15 62.0055 176.221 62.0771C176.293 62.1486 176.333 62.2456 176.333 62.3468C176.333 62.448 176.293 62.545 176.221 62.6165C176.15 62.6881 176.053 62.7282 175.953 62.7282Z" fill="#D1D3D4"/>
<path d="M131.584 71.9365C132.746 71.9365 133.689 70.9903 133.689 69.8232C133.689 68.6561 132.746 67.71 131.584 67.71C130.421 67.71 129.479 68.6561 129.479 69.8232C129.479 70.9903 130.421 71.9365 131.584 71.9365Z" fill="white"/>
<path d="M131.584 72.3102C131.092 72.3102 130.611 72.1637 130.202 71.8892C129.793 71.6148 129.475 71.2247 129.287 70.7684C129.099 70.3121 129.05 69.8101 129.147 69.326C129.243 68.8419 129.481 68.3974 129.829 68.0488C130.178 67.7002 130.621 67.4632 131.104 67.3678C131.586 67.2724 132.086 67.3229 132.54 67.5129C132.994 67.7029 133.382 68.0238 133.654 68.4351C133.926 68.8463 134.071 69.3294 134.069 69.8231C134.067 70.4835 133.804 71.116 133.338 71.5822C132.873 72.0484 132.242 72.3102 131.584 72.3102ZM131.584 68.0913C131.243 68.0913 130.909 68.1929 130.625 68.3832C130.342 68.5735 130.121 68.844 129.99 69.1604C129.859 69.4769 129.825 69.8251 129.892 70.161C129.958 70.4969 130.123 70.8055 130.364 71.0477C130.605 71.2899 130.913 71.4548 131.247 71.5217C131.582 71.5885 131.929 71.5542 132.244 71.4231C132.559 71.292 132.829 71.0701 133.018 70.7853C133.208 70.5005 133.309 70.1657 133.309 69.8231C133.309 69.3638 133.127 68.9233 132.804 68.5986C132.48 68.2738 132.041 68.0913 131.584 68.0913Z" fill="#D1D3D4"/>
<path d="M166.916 70.2046H138.127C138.026 70.2046 137.93 70.1644 137.858 70.0928C137.787 70.0213 137.747 69.9243 137.747 69.8231C137.747 69.7219 137.787 69.6249 137.858 69.5534C137.93 69.4818 138.026 69.4417 138.127 69.4417H166.916C167.017 69.4417 167.113 69.4818 167.185 69.5534C167.256 69.6249 167.296 69.7219 167.296 69.8231C167.296 69.9243 167.256 70.0213 167.185 70.0928C167.113 70.1644 167.017 70.2046 166.916 70.2046Z" fill="#D1D3D4"/>
<path d="M131.584 79.413C132.746 79.413 133.689 78.4669 133.689 77.2998C133.689 76.1327 132.746 75.1865 131.584 75.1865C130.421 75.1865 129.479 76.1327 129.479 77.2998C129.479 78.4669 130.421 79.413 131.584 79.413Z" fill="white"/>
<path d="M131.584 79.7944C131.092 79.7944 130.612 79.648 130.203 79.3739C129.794 79.0998 129.476 78.7102 129.288 78.2543C129.1 77.7985 129.05 77.2969 129.146 76.813C129.242 76.329 129.479 75.8845 129.827 75.5356C130.174 75.1867 130.617 74.9491 131.099 74.8529C131.581 74.7566 132.081 74.806 132.535 74.9948C132.989 75.1836 133.377 75.5034 133.65 75.9137C133.923 76.3239 134.069 76.8062 134.069 77.2996C134.067 77.9607 133.805 78.594 133.339 79.0615C132.873 79.5289 132.242 79.7923 131.584 79.7944ZM131.584 75.5678C131.243 75.5678 130.909 75.6694 130.625 75.8597C130.342 76.05 130.121 76.3205 129.99 76.6369C129.859 76.9534 129.825 77.3016 129.892 77.6375C129.958 77.9734 130.123 78.282 130.364 78.5242C130.605 78.7664 130.913 78.9314 131.247 78.9982C131.582 79.065 131.929 79.0307 132.244 78.8996C132.559 78.7685 132.829 78.5466 133.018 78.2618C133.208 77.977 133.309 77.6422 133.309 77.2996C133.309 76.8403 133.127 76.3999 132.804 76.0751C132.48 75.7503 132.041 75.5678 131.584 75.5678Z" fill="#D1D3D4"/>
<path d="M171.909 77.6811H138.127C138.026 77.6811 137.93 77.6409 137.858 77.5694C137.787 77.4979 137.747 77.4008 137.747 77.2997C137.747 77.1985 137.787 77.1015 137.858 77.0299C137.93 76.9584 138.026 76.9182 138.127 76.9182H171.909C172.01 76.9182 172.107 76.9584 172.178 77.0299C172.249 77.1015 172.289 77.1985 172.289 77.2997C172.289 77.4008 172.249 77.4979 172.178 77.5694C172.107 77.6409 172.01 77.6811 171.909 77.6811Z" fill="#D1D3D4"/>
<path d="M149.489 53.8022H129.479V56.9149H149.489V53.8022Z" fill="#D1D3D4"/>
<path d="M167.387 84.5549C166.627 83.6013 165.746 82.3806 164.963 81.4423C164.628 76.8648 163.602 74.2785 163.017 73.9505C162.181 73.4851 161.224 74.2175 160.342 74.5837C160.184 74.6613 160.006 74.6879 159.833 74.66C159.701 74.6104 159.582 74.5323 159.483 74.4311C157.446 72.623 155.638 69.2128 154.3 68.839C153.403 68.5872 152.195 70.4106 154.072 72.4857C155.121 73.6453 157.226 75.7891 157.264 75.9264C157.302 76.0638 156.344 78.9323 156.208 80.0614C155.957 82.1289 162.037 88.7738 163.291 90.3378L167.387 84.5549Z" fill="white"/>
<path d="M163.29 90.7192C163.234 90.7199 163.178 90.7079 163.127 90.6841C163.075 90.6604 163.03 90.6254 162.994 90.5819C162.781 90.3149 162.439 89.9105 162.006 89.407C158.905 85.7756 155.614 81.7779 155.835 80.0156C156.006 79.0671 156.242 78.1315 156.542 77.2157C156.678 76.7656 156.823 76.2621 156.876 76.0332C156.663 75.7891 156.055 75.1482 155.508 74.5761C154.961 74.0039 154.246 73.2486 153.79 72.7451C152.476 71.2956 152.521 69.9376 153.03 69.1441C153.156 68.8944 153.361 68.6933 153.612 68.5719C153.864 68.4505 154.148 68.4157 154.421 68.4728C155.295 68.7093 156.215 69.9071 157.286 71.2955C158.024 72.3179 158.851 73.2727 159.756 74.1488C159.814 74.2075 159.881 74.2565 159.954 74.2938C160.047 74.2918 160.138 74.2683 160.22 74.2251C160.402 74.1488 160.592 74.0573 160.79 73.9581C161.55 73.5843 162.394 73.1952 163.222 73.6148C164.05 74.0344 165.023 76.8419 165.35 81.2896C165.76 81.7855 166.194 82.3501 166.619 82.9146C167.045 83.4792 167.379 83.8835 167.706 84.3108C167.757 84.3775 167.785 84.4593 167.785 84.5435C167.785 84.6276 167.757 84.7094 167.706 84.7761L163.61 90.559C163.577 90.6081 163.533 90.6484 163.481 90.6763C163.43 90.7043 163.372 90.719 163.313 90.7192H163.29ZM154.132 69.1976C154.031 69.2126 153.935 69.2516 153.852 69.3113C153.769 69.371 153.701 69.4497 153.654 69.5409C153.334 70.0749 153.319 71.0667 154.353 72.2339C154.809 72.7374 155.462 73.4241 156.063 74.0496C157.583 75.6518 157.583 75.6823 157.628 75.8196C157.674 75.9569 157.628 76.1476 157.271 77.4293C156.989 78.307 156.76 79.2013 156.587 80.1071C156.397 81.633 160.729 86.7444 162.584 88.9111L163.268 89.7122L166.908 84.5702C166.612 84.1963 166.3 83.8073 165.996 83.38C165.548 82.7926 165.092 82.1975 164.666 81.6864C164.612 81.6252 164.583 81.5466 164.582 81.4651C164.248 76.8877 163.207 74.4921 162.827 74.2861C162.447 74.0802 161.748 74.2861 161.102 74.6447C160.896 74.7439 160.691 74.8507 160.486 74.9346C160.251 75.0522 159.982 75.0845 159.726 75.0262C159.531 74.966 159.353 74.8586 159.209 74.7134C158.269 73.808 157.412 72.8199 156.648 71.7609C155.744 70.5937 154.816 69.3807 154.178 69.2052L154.132 69.1976Z" fill="#040047"/>
<path d="M166.832 82.2129C166.832 82.2129 180.049 94.0914 181.409 93.893C183.689 90.9405 191.798 78.7111 191.798 78.7111C193.858 75.9875 199.793 73.8819 208.283 75.0492C208.283 75.0492 227.115 75.4383 230.763 81.45C232.861 84.9136 234.647 94.1371 235.81 107.77H172.981C167.858 99.9963 159.156 89.6283 159.156 89.6283L166.832 82.2129Z" fill="#4F51FF"/>
<path d="M205.304 77.8718L205.722 103.673L217.031 76.4604L205.304 77.8718Z" fill="#040047"/>
<path d="M205.722 104.024H205.646C205.56 104.007 205.483 103.96 205.428 103.892C205.372 103.824 205.342 103.738 205.342 103.65L204.924 77.8489C204.922 77.7548 204.955 77.6631 205.017 77.5924C205.079 77.5217 205.165 77.4771 205.258 77.4675L216.993 76.0866C217.058 76.077 217.124 76.0854 217.184 76.111C217.244 76.1366 217.296 76.1783 217.335 76.2316C217.377 76.2847 217.403 76.348 217.413 76.4151C217.422 76.4821 217.414 76.5504 217.388 76.613L206.079 103.826C206.045 103.89 205.993 103.942 205.929 103.977C205.866 104.013 205.794 104.029 205.722 104.024ZM205.684 78.1846L206.072 101.835L216.423 76.9106L205.684 78.1846Z" fill="#040047"/>
<path d="M199.185 49.6443L199.239 49.5451C200.409 47.592 203.039 45.6314 205.159 44.7082C210.145 42.5111 216.43 43.747 220.473 47.3174C221.994 48.5902 223.061 50.3255 223.513 52.261C223.984 54.092 225.101 55.9611 225.451 57.8303C225.709 59.2188 225.208 60.6378 225.253 62.0568C225.352 65.1084 227.913 67.4658 230.513 69.0298C226.713 72.5163 221.301 73.6072 216.156 73.9124C207.151 74.458 198.132 73.1067 189.678 69.9453C190.977 68.9236 192.029 67.6202 192.756 66.1326C193.482 64.6449 193.864 63.0116 193.873 61.3549C193.873 60.3402 193.751 59.2416 194.321 58.4101C194.891 57.5785 195.735 57.3649 196.419 56.8003C198.608 55.0151 197.924 51.8796 199.185 49.6443Z" fill="white"/>
<path d="M212.333 74.4082C204.564 74.4071 196.856 73.0173 189.571 70.3038C189.508 70.2789 189.452 70.2376 189.409 70.1841C189.366 70.1305 189.338 70.0665 189.328 69.9986C189.32 69.9314 189.329 69.8632 189.354 69.8005C189.379 69.7377 189.42 69.6825 189.473 69.64C190.725 68.6536 191.739 67.3963 192.441 65.9619C193.142 64.5274 193.512 62.9527 193.523 61.3548V60.92C193.408 59.9769 193.591 59.0211 194.048 58.1888C194.424 57.7096 194.899 57.3169 195.439 57.0368C195.702 56.8768 195.956 56.701 196.199 56.5104C197.377 55.5339 197.635 54.1072 197.909 52.589C198.048 51.4996 198.364 50.4404 198.843 49.4535L199.17 49.6442L198.859 49.4306V49.3467C200.082 47.3021 202.849 45.2956 204.939 44.3572C209.917 42.1601 216.384 43.2587 220.655 47.0351C222.241 48.3545 223.361 50.1525 223.847 52.1618C224.083 53.0005 224.378 53.8215 224.729 54.6184C225.186 55.6275 225.54 56.6807 225.785 57.7615C225.899 58.6139 225.878 59.4789 225.725 60.3249C225.634 60.8924 225.59 61.4667 225.595 62.0415C225.687 65.0931 228.407 67.3818 230.672 68.7016C230.724 68.7308 230.768 68.7727 230.8 68.8233C230.832 68.8739 230.851 68.9318 230.855 68.9916C230.861 69.0508 230.854 69.1108 230.833 69.1666C230.812 69.2223 230.777 69.2722 230.733 69.312C227.473 72.3026 222.837 73.8894 216.141 74.2938C214.925 74.3701 213.625 74.4082 212.333 74.4082ZM190.461 69.8308C198.692 72.79 207.437 74.041 216.164 73.508C222.419 73.1265 226.804 71.7075 229.912 69.0602C227.587 67.5802 225.003 65.2457 224.904 62.0415C224.899 61.4259 224.945 60.8109 225.041 60.2028C225.18 59.448 225.203 58.676 225.109 57.9141C224.868 56.8871 224.53 55.8856 224.098 54.9235C223.731 54.0947 223.424 53.2406 223.179 52.3678C222.734 50.5051 221.696 48.839 220.222 47.6225C216.164 44.0368 210.031 42.9916 205.311 45.0744C203.32 45.9593 200.705 47.8514 199.565 49.7586L199.527 49.8273L199.185 49.6595L199.512 49.8578C199.073 50.7685 198.786 51.7452 198.661 52.7492C198.38 54.3285 198.076 55.9687 196.685 57.1207C196.413 57.3372 196.126 57.5335 195.826 57.7081C195.381 57.9407 194.985 58.2597 194.663 58.6465C194.304 59.3517 194.169 60.1505 194.276 60.9352V61.3854C194.26 62.9798 193.913 64.5533 193.256 66.0051C192.599 67.4568 191.647 68.7547 190.461 69.8155V69.8308Z" fill="#040047"/>
<path d="M202.689 61.7364C202.508 61.1194 202.2 60.5475 201.785 60.058C201.576 59.8151 201.296 59.6446 200.985 59.5706C200.673 59.4967 200.347 59.523 200.052 59.646C199.836 59.7632 199.654 59.933 199.521 60.1397C199.388 60.3463 199.309 60.5832 199.292 60.8285C199.263 61.3133 199.344 61.7983 199.527 62.2475C199.794 63.1111 200.266 63.8966 200.903 64.5363C201.219 64.8529 201.597 65.101 202.013 65.265C202.428 65.4291 202.873 65.5056 203.32 65.4899" fill="white"/>
<path d="M203.168 65.8789C202.231 65.8553 201.337 65.4764 200.667 64.8185C199.993 64.1375 199.487 63.3063 199.193 62.3924C198.998 61.8874 198.913 61.3464 198.942 60.8056C198.959 60.4932 199.053 60.19 199.217 59.9235C199.38 59.657 199.607 59.4357 199.877 59.2798C200.246 59.1252 200.654 59.0891 201.045 59.1765C201.435 59.2639 201.789 59.4706 202.058 59.768C202.512 60.293 202.849 60.9095 203.046 61.5761C203.065 61.6232 203.073 61.6734 203.072 61.7239C203.071 61.7744 203.06 61.8242 203.039 61.8703C203.019 61.9165 202.989 61.958 202.953 61.9927C202.916 62.0273 202.873 62.0543 202.826 62.072C202.73 62.1046 202.625 62.0991 202.533 62.0565C202.441 62.0139 202.369 61.9375 202.332 61.8431C202.168 61.2841 201.891 60.7648 201.519 60.3173C201.36 60.1379 201.151 60.0101 200.92 59.9502C200.688 59.8904 200.444 59.9014 200.219 59.9816C200.069 60.0761 199.943 60.2048 199.852 60.3573C199.761 60.5097 199.707 60.6816 199.695 60.859C199.679 61.2895 199.754 61.7185 199.915 62.1178C200.166 62.917 200.603 63.6443 201.192 64.2387C201.467 64.5229 201.797 64.7474 202.161 64.8983C202.526 65.0492 202.918 65.1233 203.312 65.116C203.411 65.1116 203.508 65.1456 203.583 65.2109C203.658 65.2762 203.705 65.3678 203.715 65.467C203.719 65.5171 203.713 65.5675 203.698 65.6154C203.683 65.6633 203.658 65.7077 203.626 65.7459C203.593 65.7842 203.553 65.8157 203.509 65.8385C203.464 65.8613 203.415 65.8751 203.365 65.8789H203.168Z" fill="#040047"/>
<path d="M206.056 70.2809L205.296 77.91C205.296 77.91 205.66 82.2357 210.388 81.3736C211.785 81.1066 213.105 80.5305 214.253 79.6873C215.4 78.844 216.347 77.7548 217.022 76.4986L217.752 63.2545C217.752 62.6899 215.738 60.3707 216.285 55.5491C214.664 55.3814 213.095 54.877 211.678 54.0679C210.261 53.2589 209.027 52.1629 208.054 50.8496C208.054 50.8496 205.858 53.5732 204.938 54.4124C204.203 55.0368 203.55 55.752 202.993 56.5409C201.534 58.7533 201.382 61.805 201.731 64.3302C202.012 66.4358 203.426 70.3267 206.056 70.2809Z" fill="white"/>
<path d="M209.218 81.8314C208.274 81.8617 207.347 81.5714 206.588 81.0075C205.657 80.2283 205.061 79.119 204.924 77.9101L205.646 70.6396C203.115 70.3191 201.671 66.7106 201.344 64.3837C201.078 62.5222 200.903 58.9976 202.666 56.3274C203.238 55.5114 203.913 54.7729 204.673 54.1302C205.562 53.3139 207.713 50.6361 207.713 50.6132C207.753 50.5681 207.802 50.5319 207.857 50.5069C207.912 50.4819 207.972 50.4688 208.032 50.4683C208.091 50.4732 208.149 50.4915 208.2 50.5219C208.251 50.5523 208.295 50.5939 208.328 50.6437C209.275 51.9127 210.473 52.972 211.846 53.7556C213.219 54.5393 214.738 55.0304 216.308 55.1983C216.41 55.2119 216.502 55.2638 216.567 55.3432C216.628 55.4238 216.658 55.5243 216.65 55.6255C216.327 57.9411 216.728 60.3004 217.798 62.3773C217.969 62.6583 218.078 62.9732 218.117 63.3004L217.403 76.514C217.414 76.5617 217.414 76.6112 217.403 76.6589C216.705 77.9719 215.721 79.1103 214.525 79.9899C213.33 80.8694 211.952 81.4675 210.494 81.7399C210.073 81.812 209.645 81.8426 209.218 81.8314ZM205.684 77.9101C205.733 78.4439 205.902 78.9597 206.178 79.4189C206.453 79.8782 206.829 80.269 207.276 80.5623C207.723 80.8557 208.23 81.0439 208.76 81.1131C209.289 81.1822 209.828 81.1305 210.335 80.9617C211.656 80.7062 212.906 80.1642 213.996 79.3736C215.087 78.583 215.993 77.5627 216.65 76.3843C216.711 75.2857 217.35 63.3462 217.357 63.2546C217.287 63.0668 217.206 62.8834 217.114 62.7053C216.043 60.6112 215.604 58.2486 215.852 55.9078C212.778 55.4939 209.978 53.9164 208.024 51.4982C207.378 52.2611 205.912 54.0463 205.182 54.7177C204.478 55.3057 203.85 55.9797 203.312 56.7241C201.694 59.1883 201.861 62.4993 202.112 64.254C202.362 66.0087 203.632 69.8766 206.026 69.8766H206.079C206.131 69.8754 206.182 69.8857 206.229 69.9068C206.277 69.9279 206.319 69.9593 206.352 69.9987C206.391 70.0372 206.42 70.0841 206.437 70.1358C206.454 70.1874 206.459 70.2424 206.451 70.2962L205.691 77.9253L205.684 77.9101Z" fill="#040047"/>
<path d="M209.218 57.2275C209.218 57.2275 206.444 60.653 206.938 61.3396C207.432 62.0262 209.119 61.7592 209.119 61.7592" fill="white"/>
<path d="M208.434 62.1942C208.111 62.2267 207.786 62.1875 207.479 62.0794C207.173 61.9713 206.895 61.7969 206.663 61.5686C206.078 60.8057 207.575 58.6543 208.943 56.9912C209.006 56.9126 209.097 56.862 209.197 56.8506C209.297 56.8392 209.397 56.8678 209.475 56.9301C209.553 56.9955 209.602 57.0888 209.612 57.1901C209.622 57.2913 209.592 57.3925 209.529 57.4718C208.244 59.0587 207.203 60.7676 207.294 61.1414C207.568 61.4923 208.632 61.4618 209.095 61.3855C209.145 61.3775 209.196 61.3794 209.246 61.3912C209.295 61.403 209.341 61.4243 209.382 61.4541C209.423 61.4838 209.458 61.5214 209.484 61.5646C209.511 61.6078 209.528 61.6558 209.536 61.7059C209.544 61.756 209.542 61.8072 209.531 61.8566C209.519 61.9059 209.498 61.9525 209.468 61.9935C209.438 62.0346 209.401 62.0695 209.358 62.096C209.315 62.1226 209.267 62.1404 209.217 62.1484C208.957 62.1804 208.696 62.1956 208.434 62.1942Z" fill="#040047"/>
<path d="M206.147 58.1427C206.205 57.7084 206.067 57.3314 205.838 57.3007C205.609 57.2699 205.377 57.5971 205.319 58.0314C205.261 58.4658 205.399 58.8428 205.628 58.8735C205.857 58.9042 206.089 58.5771 206.147 58.1427Z" fill="#040047"/>
<path d="M213.103 57.9149C213.108 57.4768 212.925 57.1194 212.694 57.1167C212.463 57.114 212.272 57.467 212.267 57.9051C212.262 58.3433 212.445 58.7007 212.676 58.7034C212.907 58.7061 213.098 58.3531 213.103 57.9149Z" fill="#040047"/>
<path d="M215.548 60.3479C215.716 59.6967 216.004 59.0833 216.399 58.5398C216.623 58.2275 216.917 57.9733 217.258 57.7981C217.599 57.623 217.977 57.532 218.36 57.5327C218.596 57.544 218.826 57.6081 219.033 57.7203C219.241 57.8325 219.421 57.99 219.561 58.1812C219.73 58.4564 219.834 58.767 219.865 59.0891C220.115 60.7827 219.553 62.9799 217.972 63.8496C217.705 64.02 217.396 64.1105 217.079 64.1105C216.763 64.1105 216.453 64.02 216.186 63.8496" fill="white"/>
<path d="M216.992 64.5056C216.626 64.5135 216.267 64.398 215.974 64.1776C215.931 64.1484 215.895 64.1106 215.867 64.0667C215.839 64.0228 215.82 63.9736 215.812 63.9222C215.804 63.8707 215.806 63.8182 215.819 63.7677C215.832 63.7172 215.855 63.67 215.887 63.6287C215.918 63.5875 215.958 63.5533 216.003 63.528C216.049 63.5028 216.099 63.4872 216.15 63.4822C216.202 63.4772 216.254 63.4828 216.304 63.4987C216.353 63.5147 216.399 63.5406 216.438 63.5749C216.649 63.6927 216.889 63.7493 217.13 63.7386C217.372 63.7278 217.606 63.65 217.806 63.5139C219.234 62.7509 219.744 60.7216 219.516 59.1424C219.491 58.8734 219.408 58.6131 219.272 58.3795C219.167 58.237 219.031 58.12 218.874 58.0369C218.718 57.9538 218.545 57.9066 218.368 57.8989C218.045 57.9002 217.726 57.9792 217.439 58.1291C217.152 58.2791 216.905 58.4957 216.719 58.7609C216.367 59.2697 216.109 59.8384 215.959 60.4393C215.929 60.5353 215.863 60.616 215.775 60.6643C215.687 60.7127 215.584 60.725 215.488 60.6987C215.439 60.6848 215.393 60.6611 215.354 60.6293C215.314 60.5974 215.282 60.5579 215.258 60.5131C215.233 60.4683 215.219 60.4191 215.214 60.3685C215.209 60.3178 215.214 60.2667 215.229 60.2181C215.411 59.5221 215.724 58.8672 216.149 58.2879C216.41 57.9281 216.753 57.6364 217.15 57.4373C217.547 57.2382 217.985 57.1375 218.429 57.1436C218.727 57.1506 219.02 57.2274 219.284 57.3678C219.548 57.5081 219.775 57.7082 219.949 57.9523C220.147 58.2742 220.272 58.6365 220.314 59.0127C220.58 60.8589 219.949 63.2163 218.224 64.17C217.849 64.3868 217.425 64.5025 216.992 64.5056Z" fill="#040047"/>
<path d="M191.768 105.672C191.67 105.67 191.576 105.63 191.507 105.561C191.437 105.491 191.397 105.397 191.396 105.298C191.396 104.734 194.261 89.3842 194.831 86.3097C194.85 86.2085 194.908 86.1191 194.993 86.0612C195.078 86.0033 195.182 85.9815 195.283 86.0007C195.384 86.0199 195.473 86.0786 195.53 86.1637C195.588 86.2488 195.61 86.3535 195.591 86.4547C194.238 93.7252 192.201 104.764 192.171 105.306C192.169 105.357 192.157 105.407 192.135 105.453C192.114 105.499 192.084 105.54 192.046 105.574C192.009 105.608 191.965 105.635 191.917 105.651C191.869 105.668 191.818 105.675 191.768 105.672Z" fill="#040047"/>
<path d="M222.251 106.878C222.15 106.878 222.054 106.837 221.982 106.766C221.911 106.694 221.871 106.597 221.871 106.496V85.6383C221.871 85.5371 221.911 85.4401 221.982 85.3686C222.054 85.297 222.15 85.2568 222.251 85.2568C222.352 85.2568 222.449 85.297 222.52 85.3686C222.591 85.4401 222.631 85.5371 222.631 85.6383V106.496C222.631 106.597 222.591 106.694 222.52 106.766C222.449 106.837 222.352 106.878 222.251 106.878Z" fill="#040047"/>
<path d="M211.9 62.7434L205.722 63.3309C205.722 63.3309 205.722 67.7557 208.336 67.4658C210.95 67.1759 211.672 65.4746 211.9 62.7434Z" fill="white"/>
<path d="M208.093 67.8626C207.568 67.8682 207.061 67.6748 206.672 67.3209C205.365 66.1536 205.342 63.4453 205.342 63.3309C205.34 63.2355 205.374 63.1429 205.437 63.0719C205.501 63.001 205.589 62.9572 205.684 62.9494L211.863 62.3696C211.918 62.364 211.974 62.3706 212.027 62.3891C212.079 62.4075 212.127 62.4374 212.167 62.4764C212.206 62.5151 212.236 62.5617 212.255 62.6129C212.275 62.6642 212.284 62.7191 212.281 62.774C212.106 65.2 211.521 67.4964 208.382 67.8473L208.093 67.8626ZM206.117 63.6742C206.163 64.3913 206.36 66.0239 207.181 66.7258C207.33 66.8608 207.506 66.9609 207.698 67.019C207.89 67.077 208.093 67.0916 208.291 67.0615C210.327 66.8403 211.217 65.7646 211.483 63.1478L206.117 63.6742Z" fill="#040047"/>
<path d="M202.758 93.3436C202.706 93.3439 202.655 93.3331 202.608 93.3121C202.561 93.291 202.519 93.2602 202.484 93.2216L197.537 88.0033C197.5 87.9633 197.472 87.9159 197.454 87.8641C197.437 87.8124 197.431 87.7575 197.437 87.7033C197.443 87.6491 197.46 87.5967 197.488 87.5498C197.516 87.5028 197.553 87.4623 197.597 87.4311L202.104 84.3337L197.59 80.9693C197.541 80.9339 197.501 80.8875 197.474 80.8337C197.447 80.78 197.433 80.7206 197.433 80.6603C197.433 80.6 197.447 80.5405 197.474 80.4868C197.501 80.4331 197.541 80.3867 197.59 80.3513L203.13 76.5368C203.171 76.505 203.218 76.482 203.268 76.469C203.318 76.456 203.37 76.4533 203.421 76.4612C203.471 76.469 203.52 76.4872 203.564 76.5146C203.608 76.542 203.646 76.578 203.675 76.6205C203.704 76.663 203.725 76.7111 203.735 76.7618C203.746 76.8125 203.746 76.8648 203.735 76.9155C203.725 76.9662 203.704 77.0142 203.675 77.0567C203.645 77.0991 203.607 77.1351 203.563 77.1623L198.456 80.6946L202.978 84.0667C203.028 84.101 203.069 84.148 203.096 84.2028C203.122 84.2577 203.134 84.3186 203.13 84.3795C203.13 84.4404 203.115 84.5004 203.086 84.5538C203.057 84.6072 203.014 84.6522 202.963 84.6846L198.403 87.8278L203.039 92.718C203.075 92.7535 203.103 92.7957 203.122 92.8422C203.141 92.8887 203.151 92.9385 203.151 92.9889C203.151 93.0392 203.141 93.0891 203.122 93.1356C203.103 93.1821 203.075 93.2243 203.039 93.2597C202.959 93.3229 202.859 93.3529 202.758 93.3436Z" fill="#040047"/>
<path d="M212.212 93.6945C212.146 93.6934 212.081 93.6753 212.024 93.6419C211.967 93.6085 211.919 93.561 211.885 93.5038C211.86 93.4609 211.843 93.4133 211.836 93.3638C211.829 93.3142 211.832 93.2637 211.844 93.2154C211.857 93.167 211.879 93.1217 211.91 93.0821C211.941 93.0425 211.979 93.0095 212.022 92.985L219.189 88.6899L215.267 84.1887C215.227 84.1452 215.198 84.0927 215.182 84.0357C215.167 83.9787 215.164 83.9187 215.176 83.8606C215.188 83.8014 215.213 83.7458 215.25 83.6981C215.287 83.6504 215.335 83.6121 215.389 83.586L220.291 81.2973L217.456 78.2456C217.421 78.2102 217.392 78.168 217.373 78.1215C217.354 78.075 217.344 78.0252 217.344 77.9748C217.344 77.9245 217.354 77.8746 217.373 77.8281C217.392 77.7816 217.421 77.7394 217.456 77.704C217.528 77.6336 217.625 77.5942 217.726 77.5942C217.827 77.5942 217.923 77.6336 217.996 77.704L221.18 81.1752C221.221 81.2199 221.25 81.2736 221.266 81.332C221.282 81.3904 221.284 81.4517 221.271 81.5109C221.261 81.5697 221.236 81.6249 221.199 81.6715C221.162 81.7181 221.113 81.7547 221.059 81.7779L216.149 84.0666L220.04 88.4991C220.077 88.5413 220.105 88.5912 220.121 88.6453C220.137 88.6993 220.14 88.7563 220.131 88.8119C220.123 88.8673 220.102 88.9201 220.07 88.9663C220.039 89.0125 219.997 89.051 219.949 89.0789L212.433 93.6411C212.365 93.6776 212.289 93.696 212.212 93.6945Z" fill="#040047"/>
<path d="M161.748 81.4957C161.656 81.4953 161.567 81.4629 161.497 81.4041C160.858 80.8674 160.447 80.106 160.349 79.2756C160.061 79.5927 159.696 79.8296 159.29 79.9633C158.884 80.0969 158.45 80.1229 158.031 80.0385C157.846 80.0135 157.671 79.9365 157.527 79.8164C157.384 79.6963 157.276 79.538 157.218 79.3595C156.777 77.9634 159.498 74.9118 160.06 74.3167C160.096 74.2809 160.138 74.2526 160.184 74.2332C160.23 74.2138 160.28 74.2039 160.33 74.2039C160.38 74.2039 160.43 74.2138 160.476 74.2332C160.523 74.2526 160.565 74.2809 160.6 74.3167C160.636 74.3521 160.664 74.3943 160.683 74.4408C160.702 74.4873 160.712 74.5372 160.712 74.5875C160.712 74.6379 160.702 74.6877 160.683 74.7342C160.664 74.7807 160.636 74.8229 160.6 74.8584C159.156 76.3842 157.727 78.5051 157.932 79.1535C157.932 79.1917 157.97 79.2756 158.176 79.3137C159.27 79.5579 160.068 78.5508 160.501 77.7879C160.602 77.4809 160.743 77.1885 160.919 76.9182C160.972 76.8421 161.05 76.7877 161.139 76.7652C161.229 76.7428 161.324 76.7538 161.406 76.7961C161.488 76.8374 161.553 76.9073 161.588 76.9929C161.623 77.0786 161.626 77.174 161.596 77.2615C161.488 77.5458 161.358 77.8213 161.208 78.0855C161.038 78.5674 161.02 79.09 161.156 79.5826C161.292 80.0752 161.576 80.5139 161.968 80.8396C162.038 80.9121 162.077 81.0093 162.077 81.1104C162.077 81.2115 162.038 81.3086 161.968 81.3812C161.909 81.4426 161.832 81.4828 161.748 81.4957Z" fill="#040047"/>
<path d="M129.722 36.179C130.549 36.179 131.219 35.5061 131.219 34.676C131.219 33.846 130.549 33.1731 129.722 33.1731C128.895 33.1731 128.225 33.846 128.225 34.676C128.225 35.5061 128.895 36.179 129.722 36.179Z" fill="#D1D3D4"/>
<path d="M136.782 36.179C137.609 36.179 138.28 35.5061 138.28 34.676C138.28 33.846 137.609 33.1731 136.782 33.1731C135.955 33.1731 135.285 33.846 135.285 34.676C135.285 35.5061 135.955 36.179 136.782 36.179Z" fill="#D1D3D4"/>
<path d="M143.842 36.179C144.669 36.179 145.339 35.5061 145.339 34.676C145.339 33.846 144.669 33.1731 143.842 33.1731C143.015 33.1731 142.345 33.846 142.345 34.676C142.345 35.5061 143.015 36.179 143.842 36.179Z" fill="#D1D3D4"/>
</svg>
