<svg width="56" height="49" viewBox="0 0 56 49" fill="none" xmlns="http://www.w3.org/2000/svg">
<path d="M0.986503 23.491L13.8976 28.3225L18.8939 44.4587C19.2207 45.4906 20.4815 45.8659 21.2987 45.1858L28.4896 39.2989C29.2367 38.6891 30.3107 38.6422 31.1045 39.2285L44.0856 48.7038C44.9728 49.3605 46.2336 48.868 46.4671 47.7891L55.9694 1.8432C56.2029 0.670507 55.0589 -0.338011 53.9382 0.107611L0.939809 20.6531C-0.320946 21.1456 -0.320946 22.9985 0.986503 23.491ZM18.1001 25.766L43.3385 10.1458C43.7821 9.86438 44.2491 10.4742 43.8755 10.8494L23.0264 30.2926C22.3026 30.9728 21.8123 31.8875 21.6956 32.896L20.9951 38.1731C20.9018 38.8767 19.9212 38.947 19.711 38.2669L16.9794 28.6274C16.6759 27.5251 17.1428 26.3524 18.1001 25.766Z" fill="black"/>
</svg>
