<?xml version="1.0" encoding="utf-8"?>
<!-- Generator: Adobe Illustrator 19.0.0, SVG Export Plug-In . SVG Version: 6.00 Build 0)  -->
<svg version="1.1" id="Layer_1" xmlns="http://www.w3.org/2000/svg" xmlns:xlink="http://www.w3.org/1999/xlink" x="0px" y="0px"
	 viewBox="0 0 612 792" style="enable-background:new 0 0 612 792;" xml:space="preserve">
<style type="text/css">
	.st0{clip-path:url(#SVGID_2_);}
</style>
<g>
	<g>
		<defs>
			<rect id="SVGID_1_" x="295" y="380" width="20.9" height="32.9"/>
		</defs>
		<clipPath id="SVGID_2_">
			<use xlink:href="#SVGID_1_"  style="overflow:visible;"/>
		</clipPath>
		<path class="st0" d="M315.8,409.4c0.1,0.2,0.1,0.4,0.1,0.7c0,0.3-0.1,0.6-0.2,0.9c-0.2,0.3-0.4,0.5-0.7,0.6l-1.4,0.6
			c-0.5,0.2-1.1,0.4-1.6,0.5c-0.5,0.1-1.1,0.2-1.6,0.2c-0.9,0-1.8-0.1-2.6-0.4c-0.9-0.3-1.7-0.7-2.5-1.3c-0.8-0.5-1.5-1.2-2.2-2
			c-0.7-0.8-1.3-1.7-1.9-2.6c-0.4-0.5-0.7-1.1-1.1-1.8c-0.3-0.6-0.7-1.3-1.1-2.1c-0.4-0.8-0.8-1.7-1.3-2.7c-0.4-1-0.8-1.9-1-2.6
			s-0.5-1.4-0.6-1.8c-0.2-0.6-0.3-1.1-0.3-1.5c-0.2-0.8-0.4-1.5-0.5-2.3c-0.1-0.8-0.2-1.5-0.2-2.2c0-1,0.1-1.9,0.3-2.8
			c0.2-0.9,0.5-1.7,0.9-2.5c0.4-0.8,0.9-1.5,1.5-2.1c0.6-0.6,1.3-1.1,2.2-1.5l1.4-0.6c0.2-0.1,0.4-0.1,0.6-0.1
			c0.3,0,0.6,0.1,0.8,0.3c0.3,0.2,0.5,0.4,0.6,0.7l2.6,6c0.1,0.2,0.1,0.4,0.1,0.6c0,0.3-0.1,0.6-0.2,0.9c-0.2,0.3-0.4,0.5-0.7,0.6
			l-2.7,1.2c-0.4,0.2-0.6,0.4-0.8,0.7c-0.2,0.3-0.3,0.7-0.3,1c0,0.3,0.1,0.5,0.2,0.8l4.4,10.1c0.2,0.4,0.4,0.7,0.7,0.9
			c0.3,0.2,0.6,0.3,1,0.3c0.2,0,0.5-0.1,0.8-0.2l2.7-1.2c0.2-0.1,0.4-0.1,0.6-0.1c0.3,0,0.6,0.1,0.8,0.3c0.3,0.2,0.5,0.4,0.6,0.7
			L315.8,409.4z M315.8,409.4"/>
	</g>
</g>
</svg>
