<svg xmlns="http://www.w3.org/2000/svg">

	<svg id="icon-phone" viewBox="0 0 21 33">
		<path d="M20.7996 29.4C20.8996 29.6 20.8996 29.8 20.8996 30.1C20.8996 30.4 20.7996 30.7 20.6996 31C20.4996 31.3 20.2996 31.5 19.9996 31.6L18.5996 32.2C18.0996 32.4 17.4996 32.6 16.9996 32.7C16.4996 32.8 15.8996 32.9 15.3996 32.9C14.4996 32.9 13.5996 32.8 12.7996 32.5C11.8996 32.2 11.0996 31.8 10.2996 31.2C9.49959 30.7 8.79961 30 8.09961 29.2C7.39961 28.4 6.79962 27.5 6.19962 26.6C5.79962 26.1 5.49961 25.5 5.09961 24.8C4.79961 24.2 4.3996 23.5 3.9996 22.7C3.5996 21.9 3.19962 21 2.69962 20C2.29962 19 1.89962 18.1 1.69962 17.4C1.49962 16.7 1.19961 16 1.09961 15.6C0.899609 15 0.799591 14.5 0.799591 14.1C0.599591 13.3 0.399591 12.6 0.299591 11.8C0.199591 11 0.0996094 10.3 0.0996094 9.60001C0.0996094 8.60001 0.199597 7.69999 0.399597 6.79999C0.599597 5.89999 0.899591 5.09999 1.29959 4.29999C1.69959 3.49999 2.19959 2.80001 2.79959 2.20001C3.39959 1.60001 4.0996 1.10001 4.9996 0.700012L6.3996 0.100006C6.5996 6.10203e-06 6.7996 0 6.9996 0C7.2996 0 7.59959 0.0999878 7.79959 0.299988C8.09959 0.499988 8.2996 0.7 8.3996 1L10.9996 7C11.0996 7.2 11.0996 7.40001 11.0996 7.60001C11.0996 7.90001 10.9996 8.2 10.8996 8.5C10.6996 8.8 10.4996 9.00001 10.1996 9.10001L7.4996 10.3C7.0996 10.5 6.89962 10.7 6.69962 11C6.49962 11.3 6.3996 11.7 6.3996 12C6.3996 12.3 6.49961 12.5 6.59961 12.8L10.9996 22.9C11.1996 23.3 11.3996 23.6 11.6996 23.8C11.9996 24 12.2996 24.1 12.6996 24.1C12.8996 24.1 13.1996 24 13.4996 23.9L16.1996 22.7C16.3996 22.6 16.5996 22.6 16.7996 22.6C17.0996 22.6 17.3996 22.7 17.5996 22.9C17.8996 23.1 18.0996 23.3 18.1996 23.6L20.7996 29.4Z" />
	</svg>
	
	<symbol id="icon-mail" viewBox="0 0 73 57">
		<path d="M65.6002 56.6001C67.2002 56.6001 68.6002 56.1001 69.8002 55.0001L49.4002 34.6001C48.9002 35.0001 48.4002 35.3001 48.0002 35.6001C46.5002 36.7001 45.2002 37.6001 44.3002 38.2001C43.3002 38.8001 42.1002 39.5001 40.5002 40.1001C38.9002 40.8001 37.4002 41.1001 36.1002 41.1001H36.0002C34.6002 41.1001 33.2002 40.8001 31.6002 40.1001C30.0002 39.4001 28.8002 38.8001 27.8002 38.2001C26.9002 37.6001 25.6002 36.7001 24.1002 35.6001C23.7002 35.3001 23.2002 34.9001 22.7002 34.6001L2.2002 55.0001C3.4002 56.1001 4.80018 56.6001 6.40018 56.6001H65.6002Z" />
		<path d="M4.10001 21.7C2.60001 20.7 1.2 19.5 0 18.2V49.2L18 31.2C14.4 28.8 9.70001 25.6 4.10001 21.7Z" />
		<path d="M68 21.7001C62.5 25.4001 57.9 28.6 54 31.3L72 49.3V18.3C70.8 19.5 69.5 20.7001 68 21.7001Z" />
		<path d="M65.6 0H6.5C4.4 0 2.80001 0.700006 1.70001 2.10001C0.600012 3.50001 0 5.19999 0 7.29999C0 8.99999 0.700012 10.8 2.20001 12.8C3.70001 14.8 5.19999 16.3 6.89999 17.4C7.79999 18 10.6 20 15.1 23.1C17.6 24.8 19.7 26.3 21.6 27.6C23.2 28.7 24.5 29.6 25.7 30.4C25.8 30.5 26 30.6 26.3 30.8C26.6 31 27 31.3 27.4 31.6C28.3 32.2 29 32.7 29.6 33.1C30.2 33.5 30.9 33.9 31.7 34.4C32.5 34.9 33.3 35.2 34 35.5C34.7 35.7 35.4 35.9 36 35.9H36.1C36.7 35.9 37.4 35.8 38.1 35.5C38.8 35.3 39.6 34.9 40.4 34.4C41.2 33.9 41.9 33.5 42.5 33.1C43.1 32.7 43.8 32.2 44.7 31.6C45.1 31.3 45.5 31 45.8 30.8C46.1 30.6 46.3 30.5 46.4 30.4C47.3 29.8 48.6 28.8 50.5 27.6C53.8 25.3 58.7 21.9 65.2 17.4C67.2 16 68.8 14.4 70.1 12.5C71.4 10.6 72.1 8.49999 72.1 6.39999C72.1 4.59999 71.5 3.09999 70.2 1.89999C68.8 0.599994 67.3 0 65.6 0Z"/>
	</symbol>

	<symbol id="icon-place" viewBox="0 0 72 95">
		<path d="M35.6 0C15.9 0 0 15.9 0 35.6C0 45.8 5.10001 55.1 10.2 63.7C16.4 74.3 23.7 84.3 32.3 93.1C34.1 95 37.2 95 39.1 93.1C46.6 85.7 53.3 77.3 58.9 68.3C64.9 58.6 71.4 47.4 71.4 35.7C71.2 16 55.3 0 35.6 0ZM35.6 56.2C23.7 56.2 14 46.5 14 34.6C14 22.7 23.7 13 35.6 13C47.5 13 57.2 22.6 57.2 34.6C57.2 46.6 47.5 56.2 35.6 56.2Z" />
	</symbol>

	<symbol id="icon-skype" viewBox="0 0 44 44">
		<path d="M42.1223 22.0313C42.1223 19.2774 41.6216 16.7112 40.5576 14.2077C39.4936 11.7041 38.0541 9.5761 36.239 7.76102C34.4239 5.94594 32.2959 4.5064 29.7923 3.44239C27.2888 2.37838 24.7226 1.87767 21.9687 1.87767C20.5918 1.87767 19.1522 2.00285 17.6501 2.3158C15.6472 0.813663 13.4566 0 10.9531 0C7.94879 0 5.32006 1.06401 3.19204 3.19204C1.06402 5.32006 0 7.94879 0 10.9531C0 13.4566 0.751075 15.6472 2.3158 17.6501C2.00285 19.0896 1.87767 20.5292 1.87767 21.9687C1.87767 24.7226 2.37838 27.2888 3.44239 29.7923C4.5064 32.2959 5.94594 34.4239 7.76102 36.239C9.5761 38.054 11.7041 39.4936 14.2077 40.5576C16.7112 41.6216 19.2774 42.1223 22.0313 42.1223C23.4083 42.1223 24.8478 41.9971 26.3499 41.6842C28.3528 43.1863 30.5434 44 33.0469 44C36.0512 44 38.68 42.936 40.808 40.808C42.936 38.6799 44 36.0512 44 33.0469C44 30.5434 43.2489 28.3528 41.6842 26.3499C41.9346 24.8478 42.1223 23.4083 42.1223 22.0313ZM32.6088 30.5434C31.9829 31.67 31.1067 32.5462 30.1053 33.2347C29.0413 33.9232 27.8521 34.4239 26.6003 34.7368C25.3485 35.1124 23.9716 35.2376 22.5946 35.2376C19.4026 35.2376 16.5861 34.6117 14.2703 33.3599C11.9545 32.1081 10.7653 30.606 10.7653 28.8535C10.7653 27.9772 11.0156 27.2888 11.5164 26.7255C12.0171 26.1622 12.7055 25.8492 13.707 25.8492C14.2703 25.8492 14.771 25.9744 15.2717 26.2873C15.7724 26.6003 16.2105 26.9758 16.5861 27.4139C16.9616 27.8521 17.3997 28.2902 17.9004 28.7283C18.4011 29.1664 18.9644 29.542 19.7781 29.8549C20.5292 30.1679 21.4054 30.293 22.4068 30.293C23.6586 30.293 24.66 30.0427 25.4111 29.542C26.1622 29.0413 26.5377 28.4154 26.5377 27.7269C26.5377 26.9758 26.2248 26.4125 25.5989 26.037C25.1607 25.7866 24.0967 25.4111 22.4068 25.0356L18.2134 24.0341C17.0868 23.7838 16.0853 23.4708 15.2717 23.0953C14.458 22.7198 13.707 22.2817 12.9559 21.7184C12.2674 21.1551 11.7041 20.404 11.3286 19.5903C10.9531 18.7141 10.7653 17.7127 10.7653 16.5235C10.7653 15.1465 11.0782 13.8947 11.7041 12.8307C12.33 11.7667 13.2063 10.9531 14.2703 10.3272C15.3343 9.70128 16.4609 9.26315 17.7127 9.0128C18.9644 8.69985 20.2162 8.57469 21.468 8.57469C23.2831 8.57469 25.0356 8.82504 26.6629 9.26317C28.2902 9.70129 29.6672 10.3272 30.7312 11.2034C31.7952 12.0797 32.3585 13.0185 32.3585 14.0199C32.3585 14.8962 32.1081 15.5846 31.5448 16.2105C30.9815 16.8364 30.293 17.1494 29.4168 17.1494C28.9161 17.1494 28.478 17.0242 28.0398 16.8364C27.6017 16.5861 27.2262 16.3357 26.9132 16.0228C26.6003 15.7098 26.2247 15.3969 25.8492 15.0839C25.4737 14.771 24.973 14.5206 24.2845 14.2703C23.6586 14.0199 22.9075 13.9573 22.0939 13.9573C19.34 13.9573 17.963 14.7084 17.963 16.1479C17.963 16.4609 18.0256 16.7738 18.1508 17.0242C18.276 17.2745 18.4637 17.4623 18.6515 17.6501C18.8393 17.7753 19.0896 17.963 19.5278 18.0882C19.9033 18.2134 20.2788 18.3385 20.5292 18.4011C20.7795 18.4637 21.2176 18.5889 21.7809 18.7141L24.7852 19.4026C25.724 19.5903 26.5377 19.8407 27.2888 20.091C28.0398 20.3414 28.7909 20.6543 29.6671 21.0925C30.4808 21.5306 31.2319 21.9687 31.7326 22.4694C32.2959 22.9701 32.734 23.6586 33.1095 24.4097C33.4851 25.2233 33.6728 26.0996 33.6728 27.0384C33.5477 28.165 33.2347 29.4168 32.6088 30.5434Z"/>
	</symbol>

	<symbol id="icon-telegram" viewBox="0 0 56 49" >
		<path d="M0.986503 23.491L13.8976 28.3225L18.8939 44.4587C19.2207 45.4906 20.4815 45.8659 21.2987 45.1858L28.4896 39.2989C29.2367 38.6891 30.3107 38.6422 31.1045 39.2285L44.0856 48.7038C44.9728 49.3605 46.2336 48.868 46.4671 47.7891L55.9694 1.8432C56.2029 0.670507 55.0589 -0.338011 53.9382 0.107611L0.939809 20.6531C-0.320946 21.1456 -0.320946 22.9985 0.986503 23.491ZM18.1001 25.766L43.3385 10.1458C43.7821 9.86438 44.2491 10.4742 43.8755 10.8494L23.0264 30.2926C22.3026 30.9728 21.8123 31.8875 21.6956 32.896L20.9951 38.1731C20.9018 38.8767 19.9212 38.947 19.711 38.2669L16.9794 28.6274C16.6759 27.5251 17.1428 26.3524 18.1001 25.766Z" />
	</symbol>

	<symbol id="icon-whatsup" viewBox="0 0 25 25">
		<path d="M24.5 12C24.5 18.6 19.1 23.9 12.5 23.9C10.4 23.9 8.40001 23.4 6.70001 22.4L0 24.5L2.20001 18.1C1.10001 16.3 0.5 14.2 0.5 11.9C0.5 5.29999 5.9 0 12.5 0C19.1 0 24.5 5.4 24.5 12ZM12.5 1.89999C6.9 1.89999 2.39999 6.39999 2.39999 11.9C2.39999 14.1 3.09999 16.1 4.29999 17.8L3 21.5L6.89999 20.3C8.49999 21.4 10.4 22 12.5 22C18.1 22 22.6 17.5 22.6 12C22.6 6.4 18.1 1.89999 12.5 1.89999ZM18.6 14.7C18.5 14.6 18.3 14.5 18 14.4C17.7 14.3 16.3 13.5 16 13.4C15.7 13.3 15.5 13.3 15.3 13.5C15.1 13.8 14.5 14.4 14.4 14.6C14.2 14.8 14.1 14.8 13.8 14.7C13.5 14.6 12.6 14.2 11.4 13.2C10.5 12.4 9.89999 11.5 9.79999 11.2C9.59999 10.9 9.79999 10.8 9.89999 10.6C9.99999 10.5 10.2 10.3 10.3 10.1C10.4 9.90001 10.5 9.80001 10.6 9.60001C10.7 9.40001 10.7 9.20001 10.6 9.10001C10.5 9.00001 9.90001 7.49999 9.70001 6.89999C9.50001 6.29999 9.2 6.39999 9 6.39999C8.8 6.39999 8.59999 6.39999 8.39999 6.39999C8.19999 6.39999 7.90001 6.49999 7.60001 6.79999C7.30001 7.09999 6.60001 7.80001 6.60001 9.20001C6.60001 10.6 7.69999 12 7.79999 12.2C7.89999 12.4 9.79999 15.5 12.8 16.6C15.8 17.8 15.8 17.4 16.3 17.3C16.8 17.2 18 16.6 18.3 15.9C18.6 15.4 18.6 14.8 18.6 14.7Z" />
	</symbol>


	<symbol id="icon-arrow" viewBox="0 0 27 17">
		<path fill-rule="evenodd" clip-rule="evenodd" d="M26.7057 0.647189L25.9434 0L13.3887 14.7882L0.760458 2.69413e-05L0 0.649414L13.3113 16.2375L13.7378 15.8733L13.7619 15.8938L13.8887 15.7444L14.0718 15.5881L14.0465 15.5585L26.7057 0.647189Z"/>
	</symbol>





</svg>