<svg width="135" height="121" viewBox="0 0 135 121" fill="none" xmlns="http://www.w3.org/2000/svg">
<path d="M96.1292 3.01313C95.5841 2.38929 94.6365 2.32545 94.0126 2.87054C93.3888 3.41563 93.325 4.36323 93.8701 4.98707L96.1292 3.01313ZM112 78.5011L111.047 77.342L112 78.5011ZM26.4865 97.8947C25.8754 98.454 25.8334 99.4029 26.3927 100.014L35.5074 109.973C36.0667 110.584 37.0155 110.626 37.6266 110.066C38.2377 109.507 38.2797 108.558 37.7204 107.947L29.6185 99.095L38.4706 90.9931C39.0817 90.4338 39.1237 89.485 38.5643 88.8739C38.005 88.2628 37.0562 88.2208 36.4451 88.7801L26.4865 97.8947ZM94.9996 4.0001C93.8701 4.98707 93.87 4.98697 93.8701 4.98707C93.8703 4.98736 93.8706 4.98766 93.8711 4.98824C93.8721 4.98942 93.8738 4.99138 93.8762 4.9941C93.8809 4.99955 93.8884 5.00811 93.8984 5.01972C93.9186 5.04295 93.9492 5.07842 93.9899 5.12582C94.0713 5.22062 94.193 5.36314 94.3513 5.55096C94.668 5.9266 95.1313 6.48327 95.7124 7.20146C96.8748 8.63811 98.5076 10.7196 100.381 13.29C104.133 18.4367 108.83 25.5167 112.654 33.2878C116.487 41.0784 119.386 49.4512 119.657 57.2094C119.925 64.9034 117.617 71.9459 111.047 77.342L112.952 79.6602C120.383 73.5562 122.949 65.536 122.655 57.1048C122.363 48.7379 119.262 39.9229 115.345 31.9633C111.419 23.9842 106.617 16.7514 102.806 11.5229C100.898 8.90578 99.2337 6.78408 98.0446 5.31443C97.4499 4.57948 96.9738 4.00722 96.645 3.61723C96.4805 3.42221 96.353 3.27274 96.2658 3.17125C96.2222 3.12051 96.1887 3.08175 96.1658 3.0553C96.1544 3.04207 96.1455 3.03192 96.1394 3.02488C96.1363 3.02135 96.134 3.01861 96.1322 3.01665C96.1314 3.01567 96.1306 3.01479 96.1302 3.01431C96.1296 3.01362 96.1292 3.01313 94.9996 4.0001ZM111.047 77.342C97.391 88.56 76.628 93.6455 59.0595 95.8883C50.3116 97.0051 42.4283 97.4087 36.7323 97.5328C33.8852 97.5949 31.5871 97.5871 30.0037 97.5639C29.212 97.5523 28.5992 97.5368 28.1859 97.5244C27.9792 97.5181 27.8225 97.5126 27.7182 97.5087C27.6661 97.5068 27.6271 97.5052 27.6015 97.5042C27.5888 97.5037 27.5793 97.5033 27.5733 97.503C27.5703 97.5029 27.5682 97.5028 27.5669 97.5028C27.5662 97.5027 27.5659 97.5027 27.5656 97.5027C27.5655 97.5027 27.5656 97.5027 27.4992 99.0012C27.4329 100.5 27.4335 100.5 27.4342 100.5C27.4347 100.5 27.4357 100.5 27.4368 100.5C27.4389 100.5 27.4419 100.5 27.4458 100.5C27.4535 100.501 27.4646 100.501 27.4791 100.502C27.508 100.503 27.5505 100.505 27.6061 100.507C27.7174 100.511 27.8813 100.517 28.0954 100.523C28.5234 100.536 29.1517 100.552 29.9597 100.564C31.5755 100.587 33.9103 100.595 36.7976 100.532C42.5704 100.406 50.5622 99.9974 59.4394 98.8642C77.1212 96.6069 98.6083 91.4425 112.952 79.6602L111.047 77.342Z" fill="url(#paint0_linear)"/>
<defs>
<linearGradient id="paint0_linear" x1="105" y1="6" x2="3.49963" y2="114.502" gradientUnits="userSpaceOnUse">
<stop stop-color="white"/>
<stop offset="1" stop-color="#F94814"/>
</linearGradient>
</defs>
</svg>
